<svg xmlns="http://www.w3.org/2000/svg" version="1.1" viewBox="0 0 6500 1000">
	<path fill="none" stroke="gold" stroke-width="125" stroke-linecap="round" stroke-linejoin="round" d="M0 589  L-22106 589 L-21694 471 L-21469 530 L-21412 471 L-21374 353 L-21190 235 L-20700 117 L-20406 57 L-20095 -1 L-19861 -119 L-19807 -237 L-19748 -355 L-19595 -414 L-19554 -473 L-19422 -533 L-19129 -473 L-18588 -533 L-17978 -651 L-17930 -533 L-17290 -651 L-17257 -592 L-16731 -710 L-16599 -769 L-16208 -1005 L-15880 -1124 L-15763 -1242 L-15552 -1124 L-14835 -1183 L-14265 -1242 L-14158 -1301 L-13983 -1419 L-13762 -1537 L-13360 -1596 L-13335 -1715 L-12407 -1833 L-12319 -1951 L-12237 -2069 L-12167 -2187 L-11870 -2247 L-11718 -2306 L-9827 -1951 L-9727 -2128 L-9464 -2247 L-9171 -2128 L-9029 -2247 L-8780 -2306 L-8745 -2365 L-8586 -2483 L-8123 -2542 L-7870 -2660 L-7658 -2719 L-7406 -2778 L-7057 -2897 L-6130 -3015 L-6036 -3133 L-5626 -3192 L-4455 -3251 L-3266 -3369 L-3174 -3488 L-3146 -3606 L-2880 -3783 L-2581 -3901 L-2452 -3960 L-2415 -4079 L-1600 -3665 L-1216 -3724 L-156 -3842 L-95 -3901 L170 885 L641 826 L833 708 L1097 648 L1434 589 L1569 648 L2025 471 L2768 412 L2786 294 L2951 235 L3019 353 L3535 294 L4564 176 L4760 57 L5249 117 L5611 57 L6019 176 L6405 235" />
</svg>
