<svg xmlns="http://www.w3.org/2000/svg" version="1.1" viewBox="0 0 6500 1000">
	<path fill="none" stroke="gold" stroke-width="125" stroke-linecap="round" stroke-linejoin="round" d="M0 287002  L-1303111 287002 L-1302927 287001 L-1302437 286998 L-1302144 286997 L-1301832 286994 L-1301598 286993 L-1301544 286990 L-1301485 286987 L-1301332 286986 L-1301292 286984 L-1301159 286982 L-1300866 286981 L-1300326 286981 L-1299715 286980 L-1299667 286980 L-1299027 286978 L-1298994 286978 L-1298469 286978 L-1298336 286977 L-1297946 286974 L-1297618 286972 L-1297500 286969 L-1297289 286967 L-1296572 286967 L-1296002 286965 L-1295895 286965 L-1295720 286964 L-1295499 286961 L-1295098 286960 L-1295072 286957 L-1294144 286955 L-1294056 286952 L-1293974 286950 L-1293904 286947 L-1293607 286946 L-1293455 286943 L-1291565 286944 L-1291464 286944 L-1291202 286944 L-1290908 286946 L-1290766 286943 L-1290518 286943 L-1290482 286942 L-1290324 286940 L-1289860 286938 L-1289607 286936 L-1289395 286934 L-1289144 286933 L-1288795 286931 L-1287867 286929 L-1287774 286926 L-1287363 286925 L-1286192 286922 L-1285003 286921 L-1284911 286918 L-1284883 286916 L-1284617 286913 L-1284318 286910 L-1284190 286908 L-1284152 286905 L-1283338 286905 L-1282954 286906 L-1281893 286908 L-1281832 286908 L-1281567 286934 L-1281095 286959 L-1280903 286984 L-1280639 287008 L-1280302 287007 L-1280167 287006 L-1279711 287004 L-1278968 287003 L-1278951 287002 L-1278785 286999 L-1278717 286999 L-1278201 286998 L-1277172 286998 L-1276976 286997 L-1276488 286995 L-1276126 286994 L-1275717 286994 L-1275331 286995 L-1273628 286995 L-1273530 286995 L-1273458 286995 L-1273397 286995 L-1273212 286994 L-1272876 286994 L-1272235 286993 L-1272158 286991 L-1272097 286991 L-1271911 286990 L-1271831 286990 L-1271654 286989 L-1271635 286987 L-1271405 286987 L-1271017 286986 L-1270128 286986 L-1270089 286985 L-1270001 286984 L-1269973 286981 L-1268965 286980 L-1268815 286977 L-1268791 286976 L-1268658 286974 L-1268618 286973 L-1267360 286972 L-1267302 286972 L-1266763 286970 L-1266710 286970 L-1266663 286970 L-1266268 286969 L-1266129 286968 L-1265929 286967 L-1265782 286967 L-1265617 286967 L-1265341 286968 L-1264982 286968 L-1264430 286967 L-1263785 286965 L-1263526 286963 L-1263372 286961 L-1262971 286960 L-1262931 286959 L-1262811 286957 L-1262749 286959 L-1262735 286959 L-1262641 286959 L-1262348 286957 L-1262196 286952 L-1261866 286950 L-1261788 286947 L-1261712 286946 L-1261486 286942 L-1261419 286939 L-1261192 286936 L-1261139 286934 L-1260975 286933 L-1259969 286931 L-1259785 286930 L-1259234 286929 L-1258841 286926 L-1258444 286925 L-1257594 286922 L-1257515 286921 L-1256937 286919 L-1256495 286919 L-1256254 286918 L-1256097 286918 L-1255696 286916 L-1255676 286916 L-1255231 286914 L-1254825 286913 L-1254689 286910 L-1254514 286908 L-1254378 286905 L-1254128 286902 L-1253128 286901 L-1253046 286900 L-1252910 286899 L-1252872 286897 L-1251982 286896 L-1251766 286895 L-1251323 286893 L-1251205 286892 L-1251149 286891 L-1250472 286891 L-1250372 286889 L-1250343 286889 L-1249001 286888 L-1248595 286887 L-1248556 286885 L-1247628 286884 L-1247530 286883 L-1247397 286882 L-1246992 286880 L-1246966 286879 L-1246873 286878 L-1246657 286876 L-1246246 286874 L-1245092 286871 L-1244800 286868 L-1244772 286866 L-1244164 286865 L-1243914 286862 L-1243894 286861 L-1242965 286859 L-1242913 286857 L-1242791 286855 L-1242773 286853 L-1242617 286851 L-1242442 286849 L-1242306 286847 L-1242249 286846 L-1242141 286845 L-1242056 286844 L-1241823 286842 L-1241748 286841 L-1241439 286840 L-1241322 286838 L-1241152 286837 L-1241060 286836 L-1240958 286836 L-1240935 286834 L-1240857 286834 L-1240759 286832 L-1240393 286830 L-1240288 286829 L-1239785 286828 L-1239333 286827 L-1239295 286825 L-1239271 286824 L-1239230 286823 L-1239101 286821 L-1239000 286820 L-1238559 286819 L-1238277 286817 L-1237684 286816 L-1237554 286815 L-1237279 286812 L-1237127 286811 L-1236974 286810 L-1236888 286807 L-1236810 286806 L-1236625 286804 L-1236574 286804 L-1236546 286803 L-1236467 286802 L-1236444 286800 L-1236160 286798 L-1235557 286795 L-1234561 286794 L-1234263 286793 L-1233529 286791 L-1233285 286790 L-1233195 286789 L-1232618 286787 L-1231919 286786 L-1231167 286785 L-1230849 286783 L-1230466 286781 L-1230389 286779 L-1229754 286778 L-1229569 286777 L-1229481 286777 L-1229351 286777 L-1229039 286776 L-1228989 286774 L-1228847 286773 L-1228825 286772 L-1227858 286770 L-1227312 286769 L-1226834 286769 L-1226773 286769 L-1226449 286769 L-1226428 286768 L-1226365 286768 L-1226155 286766 L-1226078 286765 L-1226024 286764 L-1226001 286762 L-1225962 286761 L-1225946 286760 L-1225189 286759 L-1225173 286757 L-1224373 286756 L-1224221 286755 L-1223316 286753 L-1222809 286752 L-1222580 286749 L-1222539 286749 L-1222424 286748 L-1222247 286747 L-1221493 286748 L-1221358 286747 L-1221194 286745 L-1220876 286744 L-1220700 286742 L-1219678 286739 L-1219654 286736 L-1219403 286735 L-1219190 286732 L-1218556 286731 L-1218318 286728 L-1218286 286726 L-1218108 286723 L-1218027 286721 L-1217938 286719 L-1217873 286717 L-1217433 286714 L-1217409 286713 L-1216868 286711 L-1216613 286710 L-1216118 286709 L-1215241 286708 L-1215204 286706 L-1215151 286705 L-1215110 286704 L-1214993 286702 L-1214716 286701 L-1214509 286698 L-1214312 286696 L-1214289 286693 L-1214239 286691 L-1214199 286689 L-1214121 286688 L-1213524 286685 L-1213464 286684 L-1213360 286683 L-1213206 286681 L-1212574 286680 L-1211893 286679 L-1211591 286676 L-1211244 286675 L-1211046 286674 L-1210998 286671 L-1210678 286670 L-1210050 286668 L-1209903 286667 L-1209867 286666 L-1209809 286664 L-1209733 286662 L-1209491 286662 L-1209403 286660 L-1209309 286659 L-1209015 286658 L-1208881 286656 L-1208821 286655 L-1208784 286653 L-1208512 286653 L-1207506 286651 L-1207330 286650 L-1207279 286650 L-1206987 286649 L-1206794 286646 L-1206461 286645 L-1205955 286643 L-1205392 286641 L-1205378 286638 L-1205361 286637 L-1205261 286634 L-1205146 286632 L-1205107 286629 L-1205069 286628 L-1205004 286628 L-1204976 286626 L-1204837 286628 L-1204544 286628 L-1204494 286628 L-1204389 286628 L-1204124 286626 L-1203659 286625 L-1203515 286625 L-1203460 286622 L-1203403 286621 L-1203212 286620 L-1202847 286619 L-1202632 286619 L-1202438 286619 L-1202380 286619 L-1202321 286616 L-1202167 286615 L-1201897 286613 L-1201467 286620 L-1201452 286620 L-1201375 286619 L-1201310 286617 L-1201181 286608 L-1201158 286607 L-1200873 286605 L-1200826 286604 L-1200771 286603 L-1200309 286602 L-1200270 286602 L-1200229 286600 L-1200039 286599 L-1199559 286598 L-1199072 286596 L-1199055 286595 L-1199017 286594 L-1198761 286592 L-1198683 286590 L-1198453 286588 L-1198437 286586 L-1198143 286583 L-1197701 286582 L-1197254 286581 L-1196749 286579 L-1196595 286578 L-1196309 286577 L-1196269 286574 L-1195938 286573 L-1195716 286571 L-1195199 286569 L-1195123 286568 L-1194875 286565 L-1194681 286562 L-1194621 286561 L-1193844 286560 L-1193770 286560 L-1193540 286558 L-1193523 286558 L-1193461 286557 L-1193266 286556 L-1192801 286556 L-1192778 286554 L-1192648 286554 L-1191348 286554 L-1191331 286554 L-1191254 286553 L-1191160 286553 L-1190943 286553 L-1190791 286552 L-1190612 286553 L-1190558 286554 L-1190272 286556 L-1190232 286556 L-1189862 286556 L-1189422 286556 L-1189239 286556 L-1188918 286554 L-1188623 286554 L-1188177 286552 L-1188105 286551 L-1187643 286548 L-1187205 286547 L-1187023 286545 L-1185569 286543 L-1185437 286541 L-1184980 286539 L-1184754 286537 L-1184367 286535 L-1183851 286532 L-1182896 286530 L-1182102 286527 L-1181428 286526 L-1181002 286523 L-1180691 286522 L-1180461 286518 L-1179778 286514 L-1179765 286510 L-1179555 286505 L-1179533 286503 L-1179359 286501 L-1178409 286500 L-1178140 286497 L-1177325 286496 L-1177015 286493 L-1176977 286492 L-1176920 286489 L-1176303 286488 L-1175665 286485 L-1174039 286484 L-1173365 286483 L-1172723 286483 L-1172646 286483 L-1172589 286483 L-1172553 286483 L-1172525 286481 L-1172413 286479 L-1172395 286477 L-1172373 286476 L-1172219 286475 L-1172166 286472 L-1172088 286471 L-1171968 286469 L-1171871 286468 L-1171753 286467 L-1171484 286464 L-1171214 286463 L-1171197 286460 L-1170997 286459 L-1170850 286456 L-1170623 286455 L-1170489 286454 L-1170180 286452 L-1170120 286451 L-1169767 286448 L-1169419 286447 L-1169318 286446 L-1169253 286443 L-1169194 286442 L-1168809 286439 L-1168428 286438 L-1168324 286437 L-1168064 286435 L-1167792 286433 L-1167633 286431 L-1167601 286430 L-1167539 286429 L-1167398 286428 L-1167214 286426 L-1167169 286425 L-1166881 286425 L-1166865 286424 L-1166632 286424 L-1166571 286422 L-1166533 286422 L-1165953 286421 L-1165819 286420 L-1165796 286414 L-1165777 286405 L-1165760 286395 L-1165744 286384 L-1165720 286374 L-1165703 286366 L-1165682 286357 L-1165666 286348 L-1165642 286343 L-1165626 286337 L-1165604 286333 L-1165587 286331 L-1165538 286327 L-1165466 286323 L-1165431 286316 L-1165408 286311 L-1165372 286306 L-1165331 286301 L-1165294 286298 L-1165278 286293 L-1165254 286289 L-1165216 286286 L-1165200 286282 L-1165176 286280 L-1165159 286277 L-1165140 286275 L-1165124 286272 L-1165095 286268 L-1165069 286264 L-1165024 286263 L-1165007 286260 L-1164965 286259 L-1164917 286256 L-1164847 286254 L-1164831 286251 L-1164815 286248 L-1164753 286247 L-1164714 286246 L-1164674 286244 L-1164508 286243 L-1164443 286242 L-1164427 286240 L-1164383 286238 L-1164325 286237 L-1164112 286235 L-1164079 286234 L-1164036 286233 L-1163958 286231 L-1163421 286230 L-1163343 286229 L-1163238 286226 L-1163150 286225 L-1162974 286223 L-1162623 286222 L-1162467 286221 L-1162029 286220 L-1161873 286218 L-1161743 286217 L-1161039 286214 L-1160838 286213 L-1159877 286210 L-1159395 286209 L-1159296 286209 L-1159203 286208 L-1158958 286206 L-1158885 286205 L-1158442 286203 L-1158346 286201 L-1158331 286200 L-1158315 286199 L-1158290 286197 L-1157825 286196 L-1157608 286195 L-1157468 286193 L-1157174 286192 L-1157086 286191 L-1157044 286189 L-1157014 286188 L-1156842 286187 L-1156783 286186 L-1156707 286184 L-1156626 286183 L-1156556 286183 L-1156247 286182 L-1156162 286180 L-1155948 286179 L-1155913 286178 L-1155230 286176 L-1155131 286175 L-1154926 286174 L-1154879 286172 L-1154601 286171 L-1154539 286170 L-1154522 286167 L-1154444 286166 L-1154136 286163 L-1154111 286162 L-1154057 286159 L-1154035 286158 L-1153912 286157 L-1153776 286154 L-1153532 286153 L-1153406 286153 L-1152760 286152 L-1152744 286152 L-1152719 286152 L-1152539 286149 L-1152463 286148 L-1152371 286146 L-1151943 286145 L-1151527 286144 L-1151134 286141 L-1151055 286140 L-1151037 286138 L-1150673 286137 L-1150437 286136 L-1150209 286135 L-1149895 286133 L-1149818 286132 L-1149737 286129 L-1149559 286127 L-1149543 286125 L-1149278 286123 L-1149198 286121 L-1148968 286120 L-1148741 286119 L-1148426 286119 L-1148251 286118 L-1147889 286118 L-1147498 286116 L-1147428 286114 L-1147365 286112 L-1147224 286110 L-1147172 286108 L-1147071 286106 L-1146569 286104 L-1146372 286103 L-1146125 286102 L-1145940 286101 L-1145640 286099 L-1145564 286098 L-1145398 286095 L-1144513 286094 L-1144485 286091 L-1144362 286089 L-1143783 286087 L-1143705 286086 L-1142992 286086 L-1142680 286086 L-1142467 286086 L-1142450 286086 L-1142064 286086 L-1141539 286084 L-1141092 286082 L-1140763 286081 L-1140610 286080 L-1140284 286080 L-1140106 286078 L-1140024 286078 L-1139818 286076 L-1139643 286074 L-1138714 286073 L-1137824 286072 L-1137785 286070 L-1137557 286070 L-1137178 286069 L-1136390 286068 L-1136156 286066 L-1136080 286065 L-1135723 286064 L-1135151 286061 L-1134884 286060 L-1134497 286059 L-1134394 286059 L-1134224 286059 L-1133605 286059 L-1133394 286059 L-1133086 286059 L-1133033 286057 L-1132906 286056 L-1132853 286055 L-1132733 286053 L-1132397 286051 L-1131438 286049 L-1131307 286047 L-1131105 286046 L-1130474 286044 L-1130162 286043 L-1129748 286042 L-1129721 286040 L-1129576 286039 L-1129155 286038 L-1127823 286038 L-1127776 286036 L-1127647 286034 L-1127631 286032 L-1127053 286030 L-1126847 286029 L-1126817 286027 L-1126776 286026 L-1126719 286025 L-1126681 286023 L-1126603 286022 L-1126460 286021 L-1126006 286019 L-1125888 286018 L-1125602 286017 L-1125230 286015 L-1125134 286014 L-1124807 286013 L-1124452 286012 L-1124282 286010 L-1124235 286009 L-1124126 286008 L-1124037 286006 L-1124009 286005 L-1123933 286002 L-1123629 286001 L-1123595 285998 L-1123524 285997 L-1123156 285996 L-1122820 285995 L-1122740 285995 L-1122520 285993 L-1122348 285992 L-1122321 285991 L-1121824 285989 L-1121275 285987 L-1120394 285985 L-1120296 285983 L-1120219 285981 L-1119944 285980 L-1119697 285978 L-1119623 285976 L-1119561 285974 L-1119442 285972 L-1119400 285971 L-1119290 285970 L-1119213 285967 L-1118512 285966 L-1118267 285964 L-1118227 285963 L-1118071 285962 L-1117472 285962 L-1117245 285962 L-1117153 285962 L-1116678 285962 L-1116080 285959 L-1115560 285958 L-1115539 285957 L-1115394 285955 L-1115074 285955 L-1114532 285955 L-1114300 285955 L-1114130 285955 L-1113643 285954 L-1113416 285953 L-1113331 285951 L-1112985 285950 L-1112659 285950 L-1112136 285949 L-1111808 285947 L-1111208 285946 L-1111010 285944 L-1110958 285942 L-1110918 285941 L-1110636 285940 L-1109952 285937 L-1109642 285936 L-1109617 285933 L-1109426 285932 L-1109203 285930 L-1109117 285929 L-1108453 285927 L-1108429 285925 L-1108207 285923 L-1107877 285921 L-1107525 285919 L-1107320 285917 L-1107088 285915 L-1106830 285913 L-1106640 285911 L-1106593 285910 L-1106366 285908 L-1106331 285907 L-1106175 285906 L-1105960 285904 L-1105787 285903 L-1105696 285902 L-1105419 285900 L-1105175 285899 L-1104860 285898 L-1104434 285898 L-1104396 285898 L-1103913 285898 L-1103679 285898 L-1103468 285896 L-1103242 285895 L-1102692 285895 L-1102444 285894 L-1101610 285894 L-1101555 285893 L-1101533 285891 L-1101375 285890 L-1100914 285889 L-1100873 285887 L-1100533 285885 L-1100400 285883 L-1100177 285882 L-1099605 285881 L-1099133 285879 L-1098938 285878 L-1098746 285877 L-1098556 285875 L-1098454 285874 L-1098086 285873 L-1098040 285872 L-1097958 285870 L-1096665 285869 L-1096616 285868 L-1096348 285868 L-1096203 285868 L-1095652 285868 L-1095535 285866 L-1095454 285865 L-1095094 285864 L-1094871 285862 L-1094589 285861 L-1094260 285858 L-1093752 285857 L-1093640 285856 L-1093561 285855 L-1093396 285853 L-1093102 285853 L-1092633 285853 L-1092437 285855 L-1092386 285855 L-1091736 285853 L-1091615 285852 L-1091161 285852 L-1091125 285851 L-1090656 285849 L-1090546 285848 L-1090530 285847 L-1090313 285847 L-1090133 285845 L-1089601 285845 L-1088571 285845 L-1088372 285844 L-1087914 285843 L-1086965 285840 L-1086866 285839 L-1086513 285836 L-1086452 285835 L-1086437 285834 L-1086402 285832 L-1086033 285831 L-1085913 285830 L-1085671 285828 L-1085507 285827 L-1085320 285826 L-1085199 285824 L-1084128 285822 L-1083270 285821 L-1083058 285818 L-1082961 285817 L-1082786 285814 L-1082453 285813 L-1082381 285811 L-1082324 285810 L-1082148 285810 L-1081759 285809 L-1081524 285807 L-1081413 285806 L-1081296 285805 L-1080315 285804 L-1080289 285802 L-1079695 285800 L-1079663 285800 L-1079514 285798 L-1079230 285797 L-1078318 285797 L-1077372 285797 L-1077219 285796 L-1077116 285796 L-1076985 285794 L-1076842 285793 L-1076815 285792 L-1076701 285790 L-1076483 285789 L-1075801 285788 L-1075672 285787 L-1075369 285785 L-1075129 285783 L-1074796 285781 L-1074157 285780 L-1073815 285777 L-1073753 285776 L-1073597 285776 L-1072676 285776 L-1072205 285776 L-1072162 285776 L-1072149 285775 L-1072108 285773 L-1072086 285772 L-1072059 285771 L-1071915 285770 L-1071492 285768 L-1071157 285768 L-1070966 285767 L-1070537 285767 L-1070349 285766 L-1069961 285763 L-1069426 285762 L-1069054 285760 L-1069032 285760 L-1068782 285759 L-1068664 285758 L-1068588 285756 L-1068452 285755 L-1068413 285754 L-1068333 285753 L-1067939 285751 L-1067443 285750 L-1067331 285747 L-1067158 285746 L-1066850 285745 L-1066402 285743 L-1066079 285742 L-1065937 285739 L-1065510 285737 L-1065356 285734 L-1065301 285732 L-1064487 285730 L-1064468 285729 L-1064096 285728 L-1064039 285728 L-1062910 285726 L-1062842 285726 L-1062283 285725 L-1062089 285724 L-1061952 285722 L-1061719 285721 L-1061372 285720 L-1061337 285717 L-1061302 285716 L-1061234 285713 L-1060885 285712 L-1060713 285711 L-1060228 285709 L-1060212 285708 L-1059887 285707 L-1059729 285705 L-1058588 285703 L-1058564 285702 L-1058372 285699 L-1058178 285698 L-1057928 285696 L-1057911 285695 L-1056891 285694 L-1056593 285692 L-1056518 285691 L-1056381 285688 L-1056206 285687 L-1055629 285684 L-1055413 285683 L-1055350 285682 L-1055219 285681 L-1055182 285678 L-1054659 285677 L-1054521 286192 L-1054506 286192 L-1054484 286192 L-1054463 286192 L-1054236 285675 L-1053460 285675 L-1053419 285675 L-1053051 285675 L-1052973 285674 L-1052921 285673 L-1052247 285671 L-1051505 285670 L-1051080 285670 L-1050633 285669 L-1049571 285667 L-1049259 285665 L-1048849 285665 L-1048777 285664 L-1048253 285664 L-1048158 285664 L-1048140 285664 L-1047696 285662 L-1047510 285660 L-1046730 285657 L-1046057 285656 L-1045645 285652 L-1045413 285649 L-1045273 285648 L-1045191 285645 L-1045171 285644 L-1045095 285644 L-1044967 285643 L-1044650 285644 L-1044426 285644 L-1044101 285643 L-1044039 285643 L-1043668 285643 L-1043635 285643 L-1043427 285643 L-1042759 285643 L-1042682 285643 L-1042524 285640 L-1042413 285640 L-1042087 285639 L-1041932 285637 L-1041591 285637 L-1041534 285635 L-1041196 285632 L-1040992 285631 L-1040939 285628 L-1039563 285627 L-1039433 285626 L-1039000 285624 L-1038679 285623 L-1037852 285620 L-1037728 285619 L-1036997 285616 L-1036841 285614 L-1036801 285613 L-1036747 285611 L-1036724 285610 L-1036610 285609 L-1036313 285607 L-1036024 285606 L-1035969 285605 L-1035849 285603 L-1035818 285602 L-1035719 285601 L-1035275 285601 L-1035123 285599 L-1034288 285599 L-1033746 285598 L-1033411 285598 L-1033395 285597 L-1033320 285596 L-1033204 285594 L-1033009 285593 L-1032745 285592 L-1031910 285590 L-1031814 285589 L-1031292 285588 L-1031251 285586 L-1031151 285585 L-1030323 285585 L-1030188 285584 L-1029849 285584 L-1029295 285582 L-1028916 285581 L-1028753 285580 L-1028443 285579 L-1027630 285577 L-1027324 285576 L-1027055 285576 L-1026734 285576 L-1026413 285577 L-1026138 285577 L-1025309 285575 L-1025214 285573 L-1025121 285569 L-1025017 285565 L-1024630 285562 L-1024150 285559 L-1024134 285558 L-1024015 285556 L-1023647 285554 L-1023552 285552 L-1022718 285550 L-1022641 285548 L-1022342 285547 L-1022251 285546 L-1021844 285543 L-1021734 285541 L-1021034 285539 L-1020561 285538 L-1020501 285537 L-1020282 285534 L-1020008 285533 L-1019895 285531 L-1018868 285530 L-1018482 285529 L-1018462 285528 L-1018129 285526 L-1017884 285525 L-1017451 285524 L-1017341 285522 L-1017223 285521 L-1016771 285518 L-1016181 285517 L-1015844 285516 L-1013951 285514 L-1013838 285512 L-1013626 285511 L-1012308 285509 L-1012201 285215 L-1012135 284924 L-1012099 284656 L-1012037 284656 L-1011538 284948 L-1010863 285236 L-1010841 285501 L-1010570 285499 L-1009602 285499 L-1008913 285497 L-1008751 285496 L-1008210 285495 L-1008120 285493 L-1007101 285492 L-1006153 285490 L-1005788 285491 L-1005685 285492 L-1005097 285492 L-1005037 285492 L-1004937 285491 L-1004497 285488 L-1004389 285487 L-1003948 285486 L-1002948 285482 L-1002691 285478 L-1002588 285474 L-1002458 285471 L-1002092 285469 L-1001511 285466 L-1001480 285465 L-1001164 285463 L-999181 285462 L-999066 285461 L-998998 285461 L-998639 285459 L-997021 285458 L-996843 285458 L-996699 285458 L-995876 285459 L-995823 285461 L-995769 285461 L-995335 285461 L-994354 285462 L-994281 285462 L-993196 285461 L-992983 285461 L-992267 285458 L-991878 285457 L-991660 285454 L-991340 285452 L-990846 285449 L-990718 285448 L-990490 285445 L-990257 285442 L-990198 285441 L-989909 285440 L-989636 285437 L-988607 285436 L-986942 285435 L-986522 285433 L-986385 285432 L-986229 285432 L-985924 285431 L-985696 285428 L-985537 285427 L-985378 285424 L-985209 285422 L-985161 285420 L-985108 285419 L-985086 285419 L-984700 285418 L-984450 285418 L-984180 285418 L-984019 285418 L-983929 285418 L-982271 285418 L-982106 285419 L-981726 285418 L-981266 285418 L-980656 285415 L-979563 285414 L-979132 285412 L-979100 285411 L-979038 285410 L-979021 285408 L-977317 285407 L-977275 285406 L-976808 285405 L-976622 285403 L-976589 285401 L-975994 285399 L-975944 285398 L-975622 285397 L-975571 285395 L-975361 285394 L-975342 285393 L-975076 285390 L-975023 285389 L-974554 285388 L-974044 285385 L-973966 285385 L-973671 285384 L-973655 285382 L-973616 285381 L-973545 285380 L-973388 285378 L-972442 285378 L-972385 285378 L-971864 285378 L-971672 285377 L-971571 285377 L-971345 285376 L-970835 285376 L-970447 285411 L-970378 285411 L-970030 285410 L-969673 285408 L-968544 285371 L-968492 285368 L-968266 285367 L-968232 285365 L-968107 285363 L-968009 285363 L-967744 285363 L-967004 285364 L-966425 285364 L-966132 285364 L-965426 285364 L-965247 285363 L-965224 285363 L-964588 285361 L-964277 285360 L-963880 285360 L-963851 285359 L-963830 285357 L-963676 285356 L-962991 285356 L-962974 285356 L-962634 285356 L-962362 285355 L-962324 285354 L-962268 285351 L-962246 285350 L-962174 285348 L-961842 285347 L-961736 285346 L-961708 285343 L-961510 285342 L-961357 285340 L-960489 285339 L-959926 285337 L-959910 285337 L-959809 285335 L-959707 285337 L-959560 285337 L-959482 285337 L-959444 285335 L-959389 285334 L-959315 285333 L-959170 285331 L-958689 285331 L-958284 285330 L-957418 285331 L-957398 285331 L-957140 285331 L-957064 285331 L-957034 285330 L-957024 285327 L-957007 285326 L-956714 285325 L-956674 285323 L-956602 285322 L-956529 285321 L-956324 285320 L-956164 285316 L-955863 285312 L-955785 285306 L-955768 285302 L-955552 285300 L-955320 285300 L-955211 285301 L-954841 285302 L-954683 285302 L-954451 285302 L-954283 285302 L-954138 285301 L-954006 285300 L-952730 285297 L-952326 285295 L-952266 285293 L-952149 285291 L-951724 285289 L-951708 285287 L-951646 285285 L-951373 285283 L-951260 285282 L-950978 285279 L-950701 285278 L-950276 285275 L-950253 285274 L-950175 285272 L-950050 285271 L-949463 285270 L-949072 285268 L-948736 285267 L-948147 285266 L-948045 285266 L-947875 285265 L-947738 285265 L-946911 285263 L-945725 285262 L-945689 285261 L-945634 285261 L-945413 285259 L-945208 285259 L-945054 285259 L-944797 285258 L-944720 285257 L-944178 285255 L-944141 285254 L-943892 285253 L-943505 285251 L-942679 285250 L-942321 285249 L-942011 285249 L-941753 285248 L-941529 285246 L-941123 285245 L-941006 285244 L-940823 285242 L-940770 285242 L-940581 285241 L-940410 285240 L-940382 285238 L-940101 285237 L-939791 285236 L-939653 285234 L-939343 285233 L-939149 285233 L-939134 285232 L-938414 285232 L-938281 285229 L-937983 285228 L-937893 285227 L-937292 285227 L-937254 285225 L-937175 285224 L-936555 285223 L-936403 285220 L-936363 285219 L-936052 285217 L-935860 285216 L-935667 285214 L-935612 285211 L-935303 285210 L-935251 285208 L-935196 285210 L-935171 285210 L-935046 285210 L-934235 285208 L-934159 285207 L-933618 285206 L-933349 285204 L-932690 285203 L-931782 285202 L-931541 285200 L-931008 285199 L-930791 285198 L-929684 285199 L-929634 285199 L-928858 285199 L-928310 285198 L-928199 285197 L-928046 285194 L-927991 285193 L-927826 285191 L-927448 285190 L-927001 285189 L-926946 285187 L-926792 285186 L-926112 285185 L-925892 285183 L-925374 285182 L-924525 285180 L-924509 285178 L-922718 285177 L-922163 285176 L-922046 285174 L-921041 285173 L-921004 285172 L-920771 285172 L-920679 285172 L-920639 285172 L-920307 285170 L-919955 285169 L-919690 285166 L-919403 285165 L-919092 285163 L-918838 285160 L-918744 285159 L-918254 285157 L-918047 285156 L-917481 285155 L-917367 285156 L-917016 285155 L-916964 285155 L-916924 285155 L-916321 285152 L-915587 285149 L-915006 285147 L-914770 285144 L-914230 285140 L-914077 285138 L-913576 285136 L-913366 285134 L-913343 285134 L-913284 285132 L-912321 285132 L-912144 285131 L-911702 285130 L-911678 285127 L-911523 285126 L-911441 285126 L-911291 285127 L-910644 285127 L-910594 285126 L-909474 285125 L-908490 285123 L-908429 285122 L-907708 285121 L-906843 285119 L-906464 285118 L-906245 285118 L-905486 285117 L-905434 285115 L-905125 285113 L-904273 285113 L-904080 285111 L-903904 285110 L-903679 285110 L-903552 285109 L-903360 285109 L-903128 285108 L-902958 285109 L-902672 285108 L-902392 285108 L-902309 285106 L-902139 285105 L-902122 285102 L-901968 285101 L-901929 285100 L-901154 285098 L-901077 285098 L-900845 285096 L-900418 285094 L-900073 285093 L-899489 285092 L-899221 285092 L-898962 285092 L-898832 285089 L-898816 285088 L-898702 285087 L-898678 285085 L-898444 285084 L-898408 285083 L-897092 285083 L-897036 285081 L-896358 285079 L-895785 285079 L-895660 285079 L-895507 285079 L-895429 285079 L-895118 285076 L-894845 285075 L-894755 285072 L-894654 285072 L-893726 285071 L-893650 285071 L-893286 285071 L-893261 285070 L-893225 285068 L-892449 285066 L-892357 285064 L-892217 285063 L-891816 285062 L-891554 285062 L-891310 285063 L-891096 285062 L-891016 285062 L-890939 285062 L-890863 285062 L-890676 285063 L-890610 285063 L-890360 285063 L-890305 285062 L-890168 285060 L-890088 285058 L-889975 285057 L-889751 285055 L-889587 285054 L-889546 285053 L-889377 285051 L-889006 285050 L-888991 285049 L-888875 285047 L-888154 285046 L-888118 285045 L-887985 285045 L-887637 285043 L-887226 285043 L-887190 285043 L-887111 285042 L-887073 285041 L-886708 285040 L-886504 285038 L-886489 285037 L-886144 285036 L-885795 285036 L-885469 285036 L-885368 285034 L-885215 285034 L-885021 285033 L-884789 285033 L-884696 285033 L-884541 285033 L-884464 285033 L-884423 285032 L-884309 285030 L-884286 285029 L-884035 285029 L-883897 285026 L-883319 285023 L-882491 285020 L-882003 285017 L-881881 285016 L-881843 285015 L-881830 285013 L-881678 285011 L-881577 285008 L-881344 285007 L-880954 285004 L-880649 285003 L-880634 285002 L-880463 285000 L-880224 284998 L-879628 284998 L-879024 284996 L-878985 284996 L-878944 284996 L-878791 284995 L-878738 284994 L-878675 284992 L-878607 284991 L-878553 284989 L-878527 284987 L-878481 284986 L-878386 284983 L-878249 284982 L-878096 284981 L-877964 284979 L-877923 284979 L-877887 284978 L-877825 284977 L-877552 284974 L-877237 284973 L-877196 284970 L-877111 284969 L-876934 284968 L-876697 284966 L-876339 284965 L-876309 284964 L-875740 284962 L-875617 284961 L-875381 284960 L-875358 284960 L-875077 284958 L-874792 284958 L-874536 284958 L-873964 284957 L-873668 284956 L-873591 284955 L-872892 284953 L-872815 284952 L-872780 284951 L-872753 284949 L-872702 284947 L-872508 284945 L-872368 284943 L-872332 284941 L-872292 284940 L-871696 284939 L-871464 284938 L-871180 284947 L-871126 284955 L-871052 284964 L-870974 284972 L-870738 284969 L-870494 284968 L-870358 284966 L-870252 284965 L-870172 284964 L-869785 284961 L-869658 284960 L-869505 284958 L-869468 284957 L-869322 284956 L-869100 284955 L-868926 284953 L-868857 284952 L-868036 284949 L-868020 284949 L-867725 284948 L-866937 284947 L-866628 284947 L-866481 284945 L-866253 284944 L-866052 284941 L-865115 284940 L-865079 284939 L-865056 284938 L-865015 284935 L-864747 284934 L-864150 284932 L-864086 284931 L-864051 284930 L-864034 284928 L-863339 284928 L-863138 284928 L-863106 284928 L-862772 284928 L-862665 284927 L-862040 284924 L-861536 284923 L-861499 284920 L-861056 284920 L-860960 284919 L-860801 284919 L-860488 284919 L-860476 284919 L-860036 284920 L-859554 284922 L-859425 284922 L-859105 284922 L-859036 284920 L-858732 284920 L-858556 284919 L-858363 284918 L-858120 284915 L-857922 284913 L-857897 284910 L-857318 284909 L-857249 284907 L-856839 284906 L-856785 284905 L-856738 284903 L-856374 284902 L-856228 284901 L-856023 284900 L-855926 284900 L-855771 284898 L-855710 284897 L-855562 284894 L-855462 284893 L-854905 284893 L-854882 284896 L-854710 284897 L-854169 284898 L-854108 284898 L-854054 284896 L-854025 284893 L-853954 284892 L-853938 284889 L-853874 284888 L-853838 284885 L-853683 284884 L-853357 284883 L-852791 284881 L-852777 284880 L-852715 284877 L-852613 284875 L-852567 284875 L-852324 284873 L-851902 284873 L-851747 284873 L-850006 284871 L-849464 284869 L-848521 284868 L-848111 284867 L-847570 284864 L-847374 284863 L-847205 284862 L-846909 284860 L-846795 284859 L-846780 284859 L-846625 284858 L-846485 284856 L-846408 284854 L-846277 284854 L-845929 284854 L-845558 284855 L-844960 284855 L-844784 284855 L-844628 284854 L-844359 284852 L-844208 284852 L-843916 284856 L-843893 284859 L-843810 284862 L-843582 284864 L-842883 284863 L-842756 284862 L-842325 284860 L-842231 284859 L-841026 284859 L-840976 284858 L-840683 284858 L-840280 284856 L-840004 284854 L-839985 284852 L-839867 284851 L-839791 284850 L-839609 284849 L-839129 284847 L-838678 284845 L-838268 284843 L-838237 284842 L-837819 284841 L-837705 284841 L-837587 284841 L-837572 284841 L-837377 284839 L-837356 284837 L-837123 284835 L-836680 284834 L-836361 284832 L-835896 284832 L-835731 284830 L-835576 284829 L-835420 284829 L-834966 284829 L-834647 284829 L-834592 284830 L-834221 284830 L-834184 284832 L-833857 284832 L-833740 284830 L-833642 284829 L-833316 284826 L-832929 284825 L-832668 284824 L-832310 284821 L-832053 284820 L-829883 284818 L-829833 284817 L-829811 284816 L-829399 284816 L-829338 284816 L-829268 284817 L-829037 284817 L-828726 284816 L-828423 284813 L-828379 284812 L-828071 284811 L-827938 284809 L-827721 284808 L-827009 284807 L-826854 284807 L-826715 284805 L-826567 284805 L-826546 284805 L-826351 284804 L-826326 284803 L-826235 284801 L-826213 284800 L-826197 284799 L-826096 284798 L-825168 284796 L-824710 284796 L-823618 284794 L-823195 284794 L-822792 284792 L-822753 284791 L-822499 284790 L-821725 284787 L-821709 284786 L-821684 284784 L-821491 284783 L-820755 284782 L-820485 284781 L-820445 284779 L-820046 284777 L-820021 284775 L-819232 284774 L-818552 284773 L-817181 284771 L-816911 284770 L-816862 284769 L-816325 284766 L-816292 284765 L-816190 284762 L-815866 284761 L-815787 284760 L-815518 284760 L-814605 284758 L-814467 284758 L-814218 284756 L-813672 284756 L-813250 284754 L-813057 284753 L-813042 284753 L-812904 284750 L-812810 284749 L-812683 284748 L-812423 284747 L-812398 284744 L-812307 284743 L-811996 284741 L-811936 284740 L-811819 284740 L-811469 284740 L-810659 284740 L-810427 284737 L-809598 284737 L-809366 284735 L-809150 284733 L-808631 284733 L-807993 284732 L-807577 284731 L-807255 284729 L-806774 284728 L-806348 284728 L-806287 284727 L-805938 284727 L-805898 284726 L-805884 284724 L-805785 284722 L-805739 284722 L-805254 284720 L-804452 284720 L-804118 284720 L-803037 284719 L-802557 284718 L-802534 284716 L-802394 284715 L-801838 284714 L-801141 284712 L-800832 284711 L-800611 284710 L-800506 284709 L-800403 284706 L-799732 284705 L-799638 284703 L-799616 284703 L-799539 284702 L-799361 284702 L-799189 284702 L-799008 284701 L-798995 284699 L-798918 284698 L-798754 284697 L-798239 284695 L-798223 284694 L-798083 284694 L-797720 284693 L-797696 284693 L-797566 284692 L-797541 284690 L-797179 284689 L-796653 284686 L-796560 284685 L-796344 284682 L-796250 284681 L-796226 284680 L-795762 284678 L-795684 284678 L-795283 284677 L-794832 284677 L-793580 284676 L-793542 284675 L-793110 284673 L-793077 284672 L-792358 284671 L-792182 284669 L-792046 284668 L-791740 284667 L-791685 284665 L-791660 284663 L-791644 284660 L-791469 284659 L-791279 284658 L-790772 284658 L-790398 284647 L-790060 284635 L-790021 284625 L-789302 284616 L-789208 284614 L-789170 284613 L-788628 284613 L-788605 284612 L-788203 284610 L-787777 284609 L-787506 284609 L-787326 284608 L-787080 284605 L-787057 284604 L-787001 284601 L-786384 284600 L-785881 284599 L-785494 284599 L-784875 284600 L-784659 284600 L-784504 284601 L-783211 284599 L-783112 284597 L-782670 284595 L-782339 284593 L-782038 284591 L-781796 284590 L-781061 284587 L-780482 284586 L-779652 284584 L-779552 284583 L-778994 284582 L-778856 284580 L-777214 284579 L-777153 284579 L-777060 284579 L-776093 284579 L-775915 284578 L-775628 284578 L-775410 284578 L-775332 284576 L-775061 284576 L-774945 284575 L-774792 284574 L-774482 284573 L-774404 284571 L-774313 284571 L-774235 284570 L-774119 284570 L-773940 284569 L-773848 284567 L-773810 284566 L-773307 284566 L-773088 284565 L-772959 284565 L-772804 284563 L-772749 284562 L-772624 284562 L-772240 284561 L-771731 284559 L-771659 284558 L-771179 284557 L-771101 284556 L-771001 284556 L-770768 284554 L-770303 284554 L-770073 284554 L-770057 284554 L-769825 284554 L-769670 284554 L-769608 284554 L-769415 284553 L-769144 284550 L-768393 284549 L-767440 284549 L-767404 284548 L-767179 284548 L-766739 284548 L-766458 284545 L-766110 284544 L-765041 284542 L-764113 284542 L-763982 284542 L-763936 284542 L-763866 284541 L-763711 284541 L-763634 284538 L-763460 284536 L-763026 284533 L-762822 284532 L-762761 284529 L-762179 284528 L-762025 284525 L-761909 284524 L-761868 284523 L-761699 284521 L-761562 284520 L-761351 284518 L-761274 284516 L-761251 284515 L-761042 284512 L-760632 284511 L-760607 284510 L-760384 284508 L-760239 284507 L-760204 284506 L-760191 284504 L-760168 284503 L-759935 284502 L-759749 284501 L-759532 284499 L-759507 284498 L-758818 284497 L-758714 284495 L-758678 284494 L-758658 284493 L-758464 284491 L-758411 284490 L-758294 284487 L-758212 284487 L-758101 284486 L-757787 284485 L-757327 284484 L-757072 284482 L-756838 284480 L-756708 284478 L-756356 284477 L-756296 284476 L-756144 284474 L-755572 284472 L-755485 284470 L-755332 284468 L-755036 284465 L-754666 284463 L-754363 284460 L-754286 284459 L-753881 284457 L-753713 284457 L-753569 284457 L-753029 284457 L-752968 284457 L-752953 284455 L-752786 284453 L-752581 284452 L-752506 284452 L-752413 284451 L-752003 284450 L-751988 284448 L-751964 284448 L-751771 284447 L-751694 284459 L-751524 284470 L-751462 284481 L-751446 284493 L-750932 284491 L-750710 284490 L-750091 284487 L-749838 284486 L-749644 284485 L-749605 284484 L-749531 284484 L-749466 284484 L-748815 284484 L-748777 284485 L-748602 284485 L-748537 284485 L-747863 284485 L-747474 284482 L-747212 284481 L-746974 284480 L-746896 284477 L-746881 284474 L-746678 284473 L-746308 284470 L-746082 284469 L-745447 284468 L-745427 284468 L-745040 284467 L-744946 284467 L-744888 284465 L-744612 284464 L-744302 284464 L-744225 284463 L-743374 284464 L-743031 284470 L-742594 284478 L-742161 284485 L-741666 284491 L-741516 284490 L-741248 284491 L-740009 284493 L-739953 284495 L-738189 284497 L-737999 284495 L-736989 284494 L-736838 284493 L-736462 284495 L-736141 284498 L-735536 284501 L-735466 284503 L-735289 284502 L-734460 284501 L-734322 284499 L-733935 284498 L-733751 284497 L-733707 284495 L-733587 284494 L-733377 284493 L-732930 284490 L-732582 284489 L-732449 284487 L-732040 284486 L-731690 284486 L-731405 284485 L-731211 284484 L-731057 284484 L-730893 284482 L-730825 284481 L-730725 284481 L-730491 284480 L-730375 284480 L-730322 284478 L-729780 284478 L-729315 284477 L-728133 284477 L-728000 284477 L-727975 284477 L-727923 284477 L-727255 284477 L-726220 284474 L-726027 284473 L-725847 284472 L-725695 284472 L-725655 284470 L-725640 284470 L-725578 284469 L-725253 284468 L-724093 284467 L-723899 284465 L-723722 284464 L-722608 284463 L-721748 284461 L-721642 284461 L-721168 284460 L-720975 284460 L-718654 284459 L-718576 284457 L-718455 284455 L-718421 284453 L-718383 284451 L-718289 284447 L-718073 284444 L-717492 284442 L-717106 284440 L-716333 284439 L-716255 284438 L-715557 284438 L-715016 284438 L-714975 284436 L-714845 284436 L-714381 284435 L-714342 284434 L-714208 284433 L-713839 284431 L-713810 284430 L-713660 284430 L-713259 284429 L-711435 284430 L-710628 284429 L-709910 284429 L-709893 284429 L-709579 284426 L-709017 284425 L-708516 284423 L-707997 284422 L-707976 284421 L-706232 284419 L-706063 284418 L-705867 284417 L-704973 284416 L-704455 284413 L-704244 284412 L-703986 284410 L-703277 284409 L-702326 284408 L-701668 284406 L-701629 284404 L-701342 284402 L-701260 284401 L-701165 284401 L-701033 284400 L-700956 284400 L-700220 284400 L-699883 284399 L-699834 284400 L-699578 284400 L-699292 284399 L-698866 284399 L-698286 284397 L-698027 284397 L-697875 284396 L-697628 284396 L-697590 284396 L-696792 284395 L-696755 284393 L-696578 284393 L-696168 284391 L-695940 284391 L-695864 284391 L-695732 284391 L-695616 284389 L-695268 284388 L-695205 284387 L-695052 284385 L-694311 284384 L-694200 284383 L-694030 284382 L-693991 284380 L-693696 284380 L-693295 284380 L-693118 284380 L-693024 284380 L-692715 284379 L-691913 284378 L-691455 284375 L-690935 284374 L-690446 284372 L-689751 284371 L-688704 284370 L-688435 284370 L-688381 284368 L-688221 284368 L-687969 284368 L-687723 284367 L-687644 284366 L-687430 284363 L-687118 284362 L-686654 284359 L-686640 284358 L-686344 284358 L-686330 284357 L-685339 284355 L-684667 284354 L-684332 284351 L-683716 284351 L-683579 284350 L-682940 284349 L-682810 284347 L-681859 284345 L-681760 284342 L-681200 284341 L-680791 284341 L-680363 284341 L-680272 284340 L-679437 284340 L-679074 284340 L-679034 284341 L-678902 284342 L-678725 284342 L-678508 284342 L-678455 284341 L-678298 284338 L-678045 284337 L-676945 284336 L-676867 284334 L-676648 284333 L-676517 284330 L-676481 284329 L-676287 284328 L-676188 284327 L-675704 284325 L-675420 284324 L-675259 284323 L-675165 284320 L-674893 284319 L-674623 284317 L-674607 284312 L-674469 284308 L-674330 284304 L-674004 284299 L-673695 284296 L-673654 284295 L-673578 284293 L-673463 284291 L-672612 284289 L-672286 284287 L-671955 284286 L-671822 284286 L-671606 284286 L-671589 284286 L-670909 284286 L-670816 284283 L-670792 284282 L-670777 284279 L-670738 284278 L-670326 284276 L-670057 284274 L-670017 284273 L-669648 284273 L-669439 284272 L-668356 284272 L-668340 284270 L-668311 284269 L-668291 284269 L-667914 284266 L-667659 284265 L-667411 284262 L-667271 284260 L-667139 284259 L-666807 284257 L-666715 284256 L-666654 284255 L-666096 284253 L-666034 284252 L-665878 284251 L-665684 284249 L-665492 284248 L-665476 284247 L-665438 284245 L-665399 284244 L-665128 284243 L-665005 284242 L-664973 284240 L-664873 284240 L-664718 284240 L-664576 284240 L-664292 284239 L-663967 284239 L-663271 284238 L-663248 284238 L-662739 284238 L-661893 284238 L-661530 284236 L-661375 284235 L-660771 284235 L-660601 284235 L-660540 284235 L-660485 284234 L-659430 284232 L-659411 284232 L-658505 284232 L-658484 284232 L-658317 284231 L-658075 284231 L-658025 284230 L-657970 284227 L-657832 284226 L-657793 284225 L-656865 284223 L-656810 284223 L-656688 284223 L-656616 284223 L-656500 284223 L-656322 284225 L-655339 284223 L-655200 284223 L-655082 284221 L-654788 284218 L-654540 284217 L-654504 284215 L-654449 284217 L-654427 284217 L-654294 284217 L-654215 284217 L-654078 284215 L-653455 284215 L-653288 284214 L-652824 284214 L-652647 284211 L-652631 284210 L-652571 284209 L-652454 284208 L-651972 284206 L-651276 284205 L-650903 284204 L-650734 284202 L-649768 284201 L-649613 284200 L-649435 284200 L-649343 284198 L-649087 284198 L-648917 284198 L-648270 284197 L-648259 284197 L-647679 284196 L-647540 284196 L-647485 284193 L-646750 284192 L-646711 284191 L-646634 284191 L-645992 284189 L-645218 284189 L-645125 284188 L-645076 284188 L-645061 284187 L-645025 284187 L-645009 284184 L-644946 284183 L-644930 284181 L-644910 284181 L-644755 284180 L-644716 284179 L-644700 284177 L-644661 284176 L-644521 284175 L-644445 284174 L-644080 284172 L-643732 284171 L-642959 284170 L-642356 284168 L-642160 284167 L-641930 284167 L-641792 284166 L-641154 284166 L-640865 284164 L-640843 284164 L-640383 284163 L-640150 284163 L-640095 284162 L-640057 284160 L-639554 284159 L-639004 284158 L-638216 284156 L-637093 284156 L-636198 284155 L-636110 284155 L-635811 284154 L-635739 284153 L-635623 284151 L-634446 284150 L-634098 284149 L-634076 284147 L-633557 284146 L-633410 284145 L-633302 284143 L-633092 284142 L-632938 284141 L-632915 284139 L-632721 284138 L-632644 284137 L-632501 284136 L-631700 284134 L-631554 284133 L-631274 284132 L-631097 284130 L-630787 284129 L-629975 284128 L-629047 284128 L-627455 284126 L-627212 284125 L-626571 284124 L-626375 284122 L-626297 284121 L-625780 284120 L-625548 284120 L-625525 284119 L-625393 284119 L-625054 284117 L-625043 284116 L-624826 284115 L-624789 284113 L-624248 284112 L-623719 284109 L-623651 284108 L-623358 284107 L-622810 284104 L-622775 284103 L-622722 284102 L-622623 284099 L-622391 284099 L-621811 284099 L-621713 284100 L-621639 284100 L-621307 284099 L-620557 284098 L-620518 284096 L-619838 284096 L-619683 284096 L-619357 284095 L-619141 284094 L-618910 284094 L-618613 284092 L-618367 284091 L-618016 284090 L-617963 284088 L-617203 284087 L-616510 284085 L-616160 284082 L-615696 284081 L-615062 284079 L-614654 284078 L-614576 284079 L-614150 284079 L-613507 284078 L-613338 284078 L-612596 284077 L-612409 284075 L-612113 284074 L-611541 284073 L-611516 284071 L-610497 284071 L-610010 284070 L-609917 284070 L-609856 284069 L-609568 284068 L-609282 284066 L-609220 284065 L-609040 284065 L-608329 284064 L-608153 284062 L-607955 284061 L-607803 284060 L-607711 284058 L-607650 284057 L-607108 284057 L-606797 284056 L-606705 284053 L-606628 284051 L-606061 284049 L-605970 284049 L-605715 284047 L-605388 284044 L-605351 284040 L-605196 284036 L-604964 284035 L-604642 284034 L-603510 284032 L-603311 284031 L-602785 284030 L-602540 284030 L-602294 284028 L-602215 284027 L-602195 284024 L-602118 284023 L-602062 284020 L-601985 284019 L-601946 284018 L-601767 284015 L-601730 284014 L-601499 284013 L-600261 284011 L-599934 284010 L-599895 284007 L-599113 284006 L-598966 284005 L-597975 284003 L-597768 284003 L-597342 284003 L-597215 284003 L-596811 284005 L-596723 284003 L-596066 284002 L-595358 284001 L-594750 284000 L-594557 283998 L-594324 283996 L-593705 283994 L-593410 283992 L-592970 283990 L-592816 283989 L-592660 283988 L-591904 283985 L-591554 283984 L-591152 283984 L-591113 283983 L-590107 283983 L-589787 283983 L-589541 283981 L-588841 283979 L-588767 283977 L-588455 283976 L-587375 283975 L-587183 283973 L-586950 283973 L-586755 283972 L-586255 283971 L-585501 283971 L-585387 283971 L-585187 283971 L-585146 283969 L-585053 283968 L-584740 283967 L-584652 283965 L-584536 283964 L-584218 283964 L-584149 283963 L-584124 283962 L-583762 283960 L-583723 283959 L-583507 283958 L-583004 283959 L-582401 283960 L-582190 283963 L-582037 283964 L-581999 283964 L-581955 283962 L-581920 283960 L-581787 283959 L-581378 283958 L-581007 283956 L-580954 283955 L-580938 283954 L-580859 283952 L-580449 283951 L-580296 283950 L-580280 283947 L-580240 283946 L-580062 283943 L-579986 283942 L-579754 283941 L-578965 283939 L-578887 283939 L-578152 283937 L-577996 283935 L-577757 283933 L-577695 283930 L-577610 283929 L-577587 283926 L-577469 283924 L-577455 283921 L-577393 283918 L-577356 283917 L-577261 283916 L-577239 283916 L-577123 283914 L-576890 283913 L-576720 283911 L-575900 283911 L-575499 283909 L-575344 283909 L-574839 283909 L-574725 283909 L-574128 283909 L-573754 283908 L-573702 283908 L-573508 283907 L-572812 283907 L-572773 283905 L-572629 283905 L-572403 283904 L-572142 283903 L-571768 283901 L-571342 283900 L-571213 283899 L-571193 283896 L-570700 283896 L-570003 283895 L-569772 283896 L-569618 283896 L-568649 283896 L-568425 283897 L-568147 283897 L-568131 283896 L-567605 283895 L-567076 283894 L-566928 283892 L-566909 283891 L-566367 283890 L-566057 283888 L-565939 283886 L-565748 283883 L-565611 283880 L-565284 283879 L-565167 283878 L-564858 283878 L-564432 283877 L-564376 283877 L-564143 283878 L-564047 283878 L-563914 283878 L-563617 283878 L-563503 283877 L-563139 283875 L-562826 283875 L-562343 283874 L-562173 283873 L-561925 283871 L-561709 283870 L-561183 283869 L-560996 283866 L-560641 283865 L-560006 283863 L-559851 283861 L-559110 283860 L-558691 283858 L-558511 283857 L-558434 283857 L-558303 283856 L-558010 283854 L-557969 283853 L-557739 283853 L-557546 283852 L-557291 283852 L-556865 283850 L-556756 283849 L-556137 283849 L-555956 283849 L-554744 283849 L-554097 283850 L-553946 283850 L-553909 283850 L-553777 283850 L-553676 283849 L-553660 283848 L-553578 283846 L-553367 283845 L-553250 283844 L-552887 283843 L-552515 283841 L-551819 283840 L-551416 283839 L-551312 283837 L-551294 283836 L-550349 283835 L-550154 283832 L-550002 283831 L-549946 283828 L-549190 283828 L-549173 283831 L-548684 283832 L-548553 283835 L-548360 283835 L-547470 283833 L-547431 283832 L-547393 283831 L-547316 283829 L-547277 283829 L-547200 283828 L-547116 283827 L-546852 283826 L-546619 283824 L-546557 283823 L-546077 283822 L-545740 283822 L-545629 283820 L-545435 283819 L-545259 283818 L-545200 283818 L-545163 283816 L-544894 283815 L-544196 283812 L-544143 283810 L-543849 283807 L-543447 283805 L-542883 283803 L-542009 283802 L-541705 283801 L-541667 283799 L-541544 283798 L-540945 283797 L-540816 283795 L-540616 283794 L-540578 283793 L-539964 283792 L-539786 283790 L-539771 283788 L-539553 283786 L-539475 283784 L-539168 283784 L-539036 283782 L-538804 283782 L-538469 283782 L-538378 283781 L-538277 283780 L-538240 283778 L-537696 283778 L-537504 283777 L-536963 283776 L-536537 283775 L-536405 283775 L-536343 283775 L-536112 283775 L-536096 283775 L-535607 283776 L-535527 283776 L-535509 283776 L-534116 283777 L-533981 283777 L-533867 283776 L-533232 283775 L-533093 283773 L-532975 283772 L-532821 283769 L-532784 283768 L-532706 283767 L-532652 283768 L-531660 283768 L-531623 283767 L-531490 283767 L-531430 283764 L-531331 283763 L-531040 283761 L-531027 283760 L-530717 283760 L-530617 283761 L-530152 283760 L-530098 283899 L-529956 284036 L-529828 284175 L-529596 284313 L-529027 284312 L-528938 284311 L-528915 284311 L-528628 284310 L-527946 284308 L-527868 284307 L-527832 284306 L-527816 284304 L-527616 284303 L-527196 284300 L-526925 284300 L-526052 284299 L-525759 284299 L-525648 284299 L-524914 284298 L-524787 284296 L-524427 284295 L-524175 284295 L-523303 284294 L-523134 284294 L-523073 284293 L-523018 284291 L-522670 284290 L-522647 284289 L-522438 284287 L-522297 284286 L-522167 284285 L-522044 284283 L-521921 284282 L-521684 284281 L-521393 284279 L-520734 284278 L-520712 284277 L-520557 284276 L-520440 284274 L-519476 284273 L-519420 284272 L-519187 284270 L-519165 284269 L-518839 284268 L-518723 284268 L-518684 284266 L-518182 284266 L-517883 284265 L-517771 284264 L-517229 284262 L-516170 284261 L-515544 284260 L-515372 284259 L-515124 284257 L-514868 284256 L-514737 284255 L-514716 284253 L-514048 284252 L-513152 284251 L-513106 284249 L-513036 284248 L-512920 284248 L-512699 284247 L-512509 284247 L-512469 284245 L-512277 284244 L-511618 284244 L-511001 284243 L-510962 284251 L-510366 284259 L-510304 284265 L-509182 284272 L-509127 284272 L-509006 284270 L-508741 284269 L-508677 284269 L-508408 284269 L-508332 284268 L-508116 284268 L-507633 284266 L-507363 284265 L-507232 284265 L-507000 284262 L-506975 284259 L-506960 284253 L-506937 284247 L-506922 284240 L-506898 284234 L-506884 284226 L-506860 284218 L-506845 284210 L-506822 284204 L-506807 284197 L-506784 284191 L-506768 284187 L-506740 284183 L-506722 284177 L-506704 284175 L-506668 284171 L-506628 284168 L-506613 284166 L-506588 284162 L-506536 284159 L-506511 284156 L-506434 284154 L-506397 284153 L-506381 284150 L-506318 284147 L-506304 284145 L-506258 284141 L-506187 284138 L-506148 284137 L-506124 284134 L-506072 284132 L-506046 284130 L-506031 284129 L-505969 284128 L-505932 284126 L-505855 284125 L-505840 284124 L-505812 284121 L-505739 284120 L-505699 284119 L-505546 284116 L-505429 284115 L-505375 284113 L-505293 284112 L-505259 284111 L-505235 284109 L-505081 284108 L-505066 284107 L-504964 284105 L-504654 284104 L-504617 284103 L-504402 284102 L-504291 284102 L-504266 284102 L-504036 284103 L-503804 284103 L-503429 284102 L-503301 284100 L-503261 284099 L-503209 284098 L-503108 284096 L-503071 284095 L-502860 284095 L-502796 284094 L-502683 284094 L-502472 284092 L-502435 284091 L-502062 284090 L-502009 284088 L-501930 284087 L-501908 284086 L-501816 284085 L-501616 284083 L-501578 284083 L-501556 284083 L-501326 284083 L-501306 284082 L-501096 284082 L-501001 284081 L-500964 284079 L-500627 284078 L-500515 284077 L-500475 284075 L-500461 284075 L-500322 284074 L-500307 284074 L-500052 284074 L-499469 284073 L-499393 284071 L-499355 284070 L-499310 284069 L-499262 284068 L-499082 284066 L-499068 284065 L-498968 284064 L-498890 284062 L-498830 284061 L-498464 284058 L-498382 284057 L-498364 284056 L-498311 284054 L-497342 284053 L-497211 284052 L-497189 284051 L-496969 284049 L-496900 284048 L-496878 284047 L-496631 284045 L-496375 284044 L-496244 284043 L-496205 284041 L-496183 284039 L-496128 284036 L-496040 284035 L-495979 284032 L-495754 284031 L-495624 284030 L-495525 284028 L-495470 284027 L-495277 284026 L-495199 284024 L-494866 284023 L-494735 284022 L-494557 284020 L-494542 284019 L-494517 284018 L-494247 284018 L-493046 284017 L-493010 284017 L-492893 284015 L-492660 284014 L-492469 284013 L-492430 284013 L-492374 284011 L-492270 284011 L-491756 284010 L-491462 284009 L-491230 284007 L-490955 284006 L-490938 284005 L-490905 284003 L-490865 284002 L-490827 284001 L-490726 284000 L-490649 283998 L-490556 283997 L-490429 283996 L-490325 283994 L-490146 283994 L-489954 283993 L-489125 283993 L-489009 283992 L-488754 283990 L-488714 283989 L-488615 283988 L-488555 283988 L-488312 283986 L-488289 283986 L-488168 283985 L-488096 283984 L-488057 283983 L-487825 283981 L-487649 283980 L-487129 283979 L-487052 283977 L-487036 283976 L-486625 283976 L-486262 283976 L-486146 283975 L-486123 283975 L-486083 283973 L-486006 283972 L-485953 283971 L-485604 283969 L-485488 283968 L-485311 283968 L-485255 283967 L-485232 283967 L-485118 283965 L-484830 283964 L-484598 283963 L-484382 283962 L-484173 283960 L-483962 283958 L-483136 283956 L-482796 283955 L-481789 283954 L-481426 283952 L-480380 283951 L-480303 283950 L-479856 283948 L-479644 283947 L-479453 283946 L-479158 283945 L-479117 283943 L-478964 283942 L-478911 283939 L-478679 283938 L-478098 283937 L-477904 283935 L-477285 283935 L-476796 283934 L-476744 283933 L-476096 283931 L-475946 283930 L-475776 283929 L-475403 283928 L-475388 283928 L-475289 283926 L-475250 283926 L-475119 283925 L-474686 283925 L-474383 283925 L-473997 283925 L-473857 283924 L-473696 283924 L-473262 283924 L-473223 283922 L-473122 283922 L-473007 283921 L-472829 283921 L-472658 283920 L-472540 283918 L-472179 283916 L-471961 283914 L-471829 283913 L-471689 283913 L-471190 283913 L-471112 283913 L-470878 283912 L-470554 283912 L-470167 283911 L-470144 283909 L-469524 283909 L-469254 283908 L-469021 283908 L-468596 283907 L-468324 283905 L-468183 283904 L-467974 283903 L-467768 283901 L-467217 283900 L-467086 283900 L-466699 283899 L-466429 283899 L-466326 283897 L-466066 283896 L-465864 283895 L-465795 283894 L-465756 283892 L-465189 283891 L-464982 283890 L-464955 283888 L-464726 283887 L-464648 283886 L-464131 283884 L-464093 283883 L-463937 283882 L-463644 283880 L-463372 283879 L-463008 283878 L-462660 283878 L-462288 283877 L-462168 283877 L-462096 283875 L-461616 283874 L-461554 283873 L-461219 283871 L-461088 283870 L-461010 283869 L-460881 283867 L-460417 283867 L-460123 283866 L-460046 283866 L-459735 283865 L-459427 283863 L-459363 283862 L-459334 283861 L-458559 283860 L-458454 283857 L-458366 283856 L-458343 283854 L-458189 283853 L-457968 283852 L-457801 283850 L-457414 283849 L-457359 283848 L-457296 283848 L-456678 283846 L-456561 283845 L-456238 283844 L-455713 283843 L-455362 283841 L-455286 283840 L-454667 283839 L-454256 283837 L-453955 283836 L-453644 283835 L-453506 283833 L-452882 283833 L-452500 283832 L-451377 283832 L-450316 283831 L-450254 283829 L-449893 283828 L-449792 283828 L-449776 283827 L-449402 283827 L-448397 283824 L-448010 283823 L-447803 283820 L-447714 283819 L-447338 283818 L-447046 283816 L-446734 283815 L-445945 283814 L-445858 283812 L-445805 283811 L-445767 283810 L-445249 283809 L-445134 283807 L-444925 283806 L-444786 283805 L-444182 283803 L-443353 283802 L-443070 283801 L-442888 283801 L-442386 283799 L-442181 283799 L-441627 283799 L-441122 283798 L-440931 283797 L-440892 283795 L-440263 283794 L-439810 283793 L-439396 283792 L-438787 283790 L-437667 283790 L-437253 283789 L-436929 283789 L-436714 283788 L-436287 283786 L-436147 283785 L-436056 283784 L-435825 283782 L-435238 283782 L-434430 283781 L-433231 283781 L-433117 283781 L-432985 283780 L-432897 283778 L-432855 283780 L-432835 283781 L-432824 283784 L-432729 283786 L-431966 283786 L-431260 283786 L-431220 283785 L-430934 283784 L-430393 283782 L-430331 283781 L-430291 283780 L-430277 283778 L-430020 283777 L-429696 283776 L-429556 283775 L-429286 283773 L-429247 283772 L-429139 283771 L-428738 283769 L-428628 283768 L-428551 283767 L-428254 283765 L-428211 283764 L-427993 283764 L-427809 283764 L-427699 283764 L-427685 283763 L-427658 283763 L-427234 283761 L-426988 283760 L-426652 283759 L-426617 283757 L-426483 283756 L-426229 283756 L-426075 283755 L-425168 283755 L-425069 283754 L-424874 283751 L-423867 283750 L-423366 283748 L-423288 283747 L-423250 283746 L-423042 283744 L-422923 283743 L-422825 283742 L-422639 283740 L-422473 283739 L-422238 283738 L-421818 283737 L-421803 283735 L-421494 283734 L-420448 283733 L-420231 283731 L-420215 283730 L-420193 283729 L-419984 283727 L-419825 283726 L-419767 283725 L-418322 283723 L-417996 283723 L-417794 283723 L-417595 283723 L-417445 283723 L-417174 283722 L-416734 283721 L-416516 283721 L-415821 283720 L-415319 283718 L-414994 283717 L-414723 283717 L-414002 283716 L-413847 283716 L-412649 283713 L-412260 283712 L-412144 283709 L-411991 283708 L-411837 283706 L-410867 283705 L-410815 283704 L-410567 283703 L-410545 283701 L-410325 283700 L-409887 283697 L-409747 283695 L-409640 283692 L-409438 283691 L-409320 283689 L-409218 283688 L-409204 283688 L-409071 283687 L-408817 283686 L-408199 283684 L-407540 283683 L-407294 283683 L-407101 283682 L-406342 283682 L-406303 283682 L-406225 283680 L-406173 283678 L-406133 283676 L-406095 283675 L-406056 283674 L-405965 283672 L-405921 283671 L-405862 283669 L-405838 283667 L-405723 283666 L-405414 283663 L-405359 283662 L-405337 283661 L-404995 283659 L-404830 283658 L-404794 283655 L-404754 283654 L-404739 283653 L-404507 283652 L-404367 283650 L-404199 283649 L-403749 283649 L-403516 283649 L-403423 283649 L-403403 283650 L-402922 283649 L-402845 283649 L-402718 283648 L-402588 283645 L-402209 283644 L-401968 283641 L-401930 283640 L-401876 283638 L-401738 283636 L-401699 283635 L-401659 283633 L-401429 283632 L-401389 283631 L-401259 283629 L-401080 283628 L-401039 283627 L-401025 283625 L-400861 283624 L-400846 283623 L-400693 283621 L-400678 283620 L-400652 283619 L-400618 283618 L-400396 283615 L-400173 283615 L-399919 283614 L-399787 283615 L-399145 283615 L-398538 283614 L-397518 283614 L-397325 283612 L-397274 283611 L-397149 283610 L-396824 283608 L-396051 283607 L-395994 283606 L-395880 283604 L-395468 283603 L-395143 283602 L-395005 283601 L-394781 283599 L-394255 283598 L-393854 283598 L-393822 283597 L-393536 283597 L-393250 283595 L-392862 283594 L-392646 283593 L-392219 283590 L-392037 283589 L-391701 283587 L-391594 283586 L-391408 283586 L-391291 283585 L-391277 283585 L-390556 283584 L-390386 283582 L-390138 283581 L-390038 283580 L-389395 283578 L-389107 283577 L-388917 283576 L-388642 283574 L-388324 283573 L-388040 283572 L-387926 283569 L-387881 283568 L-387679 283566 L-386070 283565 L-385858 283564 L-385177 283563 L-385094 283561 L-384866 283560 L-384676 283560 L-384537 283559 L-384518 283559 L-384325 283559 L-384095 283559 L-383903 283559 L-382819 283557 L-382623 283557 L-382570 283557 L-382417 283557 L-382309 283557 L-382143 283557 L-381990 283556 L-381875 283555 L-381751 283552 L-381334 283551 L-381077 283548 L-380984 283547 L-380791 283547 L-380730 283546 L-380404 283546 L-380343 283546 L-380286 283544 L-380017 283543 L-379669 283542 L-379490 283540 L-379296 283539 L-379260 283540 L-378547 283540 L-378508 283543 L-378198 283544 L-377901 283546 L-377851 283547 L-377595 283548 L-377325 283549 L-377269 283549 L-376178 283549 L-376148 283548 L-376107 283548 L-375931 283548 L-375738 283547 L-374880 283547 L-373827 283546 L-373766 283544 L-373417 283543 L-372604 283543 L-371791 283543 L-371776 283543 L-371401 283543 L-371232 283543 L-370964 283543 L-370636 283542 L-370514 283540 L-370457 283540 L-370422 283539 L-370345 283539 L-370128 283538 L-370069 283536 L-369753 283535 L-369586 283534 L-369222 283534 L-369029 283534 L-369005 283534 L-368928 283532 L-368447 283532 L-368310 283532 L-367896 283531 L-367597 283531 L-367498 283530 L-367482 283529 L-367453 283527 L-367094 283526 L-366744 283525 L-366607 283523 L-366570 283523 L-365753 283522 L-365547 283521 L-365523 283519 L-365366 283519 L-365277 283518 L-365035 283518 L-364711 283517 L-364619 283517 L-364423 283515 L-364137 283515 L-363381 283514 L-363252 283513 L-363178 283512 L-362565 283510 L-362390 283509 L-362279 283508 L-362179 283506 L-362100 283505 L-361963 283504 L-361809 283504 L-361730 283504 L-361539 283504 L-360866 283504 L-360827 283502 L-360724 283501 L-359781 283500 L-359760 283498 L-359408 283497 L-358943 283496 L-358908 283495 L-358479 283493 L-358427 283493 L-358016 283492 L-357999 283492 L-357903 283492 L-357848 283492 L-357809 283492 L-357514 283491 L-355776 283489 L-354266 283488 L-353758 283487 L-353260 283485 L-353126 283484 L-353036 283483 L-352908 283481 L-352829 283479 L-352524 283478 L-352253 283476 L-352019 283476 L-350820 283475 L-350715 283475 L-350650 283474 L-349808 283472 L-349622 283471 L-348711 283470 L-347842 283467 L-347554 283466 L-347462 283463 L-346913 283462 L-346393 283461 L-345324 283459 L-345056 283458 L-344902 283458 L-344809 283458 L-344679 283459 L-344632 283461 L-344472 283461 L-343606 283461 L-343272 283461 L-342888 283459 L-342136 283458 L-342076 283457 L-341687 283457 L-341365 283457 L-341208 283455 L-340476 283455 L-340414 283455 L-340126 283455 L-339752 283455 L-339571 283455 L-339315 283454 L-339054 283451 L-338901 283450 L-338498 283449 L-337201 283447 L-337085 283446 L-336622 283445 L-335290 283444 L-334865 283442 L-334841 283441 L-334708 283440 L-334533 283438 L-334399 283438 L-334069 283437 L-333682 283436 L-333642 283434 L-333626 283432 L-333236 283430 L-332944 283429 L-332675 283429 L-332502 283429 L-331008 283429 L-330958 283428 L-330880 283429 L-329640 283430 L-329565 283430 L-329538 283433 L-329292 283432 L-329134 283432 L-329076 283430 L-328188 283430 L-327960 283429 L-327436 283429 L-327295 283430 L-327219 283430 L-326523 283432 L-326275 283432 L-325595 283430 L-325577 283430 L-325323 283429 L-324955 283429 L-324820 283428 L-324198 283425 L-323854 283424 L-323807 283423 L-323320 283421 L-322986 283419 L-322769 283419 L-322635 283417 L-322314 283416 L-322249 283416 L-321997 283415 L-321708 283413 L-321398 283412 L-321258 283411 L-320719 283410 L-320443 283408 L-319713 283407 L-319660 283407 L-319553 283407 L-319287 283407 L-318863 283407 L-318598 283406 L-318379 283404 L-318358 283403 L-318127 283402 L-317840 283400 L-317817 283400 L-317802 283399 L-317430 283399 L-317258 283398 L-317182 283395 L-317121 283394 L-316820 283391 L-316579 283389 L-316487 283387 L-316230 283386 L-316177 283385 L-315981 283383 L-315765 283385 L-315342 283385 L-315249 283386 L-315109 283385 L-314244 283383 L-313871 283382 L-313543 283379 L-313390 283378 L-312963 283378 L-312245 283377 L-312051 283377 L-311696 283375 L-311550 283374 L-311043 283372 L-310807 283370 L-309840 283369 L-309830 283368 L-308765 283366 L-308532 283365 L-308130 283364 L-307936 283362 L-307856 283361 L-307760 283360 L-307023 283360 L-306891 283360 L-306501 283360 L-306479 283358 L-306384 283358 L-306248 283357 L-306231 283356 L-306211 283355 L-304526 283353 L-304508 283353 L-304391 283352 L-304307 283352 L-304182 283352 L-304158 283351 L-303874 283349 L-303768 283348 L-303579 283345 L-303309 283344 L-302637 283343 L-302265 283341 L-301413 283341 L-301355 283340 L-301336 283340 L-301103 283340 L-300828 283339 L-300523 283339 L-300483 283336 L-300252 283336 L-300015 283335 L-299402 283334 L-299361 283332 L-299324 283330 L-298802 283328 L-298611 283327 L-298550 283326 L-298508 283324 L-298185 283324 L-298157 283323 L-298143 283323 L-297658 283322 L-297604 283321 L-297466 283319 L-297428 283318 L-297411 283317 L-297316 283315 L-296651 283315 L-296035 283314 L-295765 283314 L-295357 283314 L-295337 283313 L-295321 283313 L-295208 283311 L-294820 283310 L-294354 283310 L-294293 283309 L-294215 283307 L-294200 283306 L-293714 283304 L-293674 283302 L-293529 283302 L-293479 283301 L-293401 283302 L-292768 283301 L-292678 283301 L-292437 283301 L-292320 283300 L-291992 283300 L-291238 283298 L-291221 283298 L-290270 283298 L-289960 283297 L-289535 283296 L-288822 283294 L-288503 283293 L-288488 283292 L-288337 283289 L-288034 283288 L-287956 283287 L-287829 283285 L-287392 283285 L-287331 283285 L-286808 283285 L-286540 283285 L-286402 283284 L-286324 283283 L-286285 283281 L-285474 283281 L-285433 283281 L-284993 283281 L-284915 283281 L-284657 283280 L-284467 283279 L-283838 283277 L-283651 283276 L-283616 283273 L-283460 283272 L-283059 283270 L-282982 283268 L-282801 283267 L-282610 283266 L-281681 283263 L-281531 283262 L-280323 283260 L-279514 283259 L-279110 283258 L-278508 283256 L-278306 283255 L-278237 283254 L-278079 283253 L-277817 283251 L-277444 284423 L-277426 284422 L-277269 284422 L-276071 284422 L-274967 283249 L-274039 283247 L-273925 283246 L-273640 283245 L-273538 283243 L-273514 283243 L-273324 283241 L-273246 283239 L-273050 283239 L-272338 283239 L-272181 283241 L-271124 283241 L-270699 283241 L-270289 283239 L-270002 283237 L-269828 283236 L-269596 283234 L-269342 283233 L-268899 283232 L-268239 283230 L-268063 283229 L-267758 283228 L-267371 283226 L-267351 283225 L-267332 283224 L-267310 283222 L-267177 283221 L-266984 283220 L-265341 283219 L-264044 283217 L-264005 283216 L-263947 283215 L-263846 283213 L-263287 283212 L-262303 283211 L-261760 283208 L-261297 283207 L-260651 283205 L-260102 283204 L-259052 283203 L-258124 283202 L-257776 283200 L-257582 283199 L-257080 283198 L-256634 283198 L-256492 283196 L-256471 283196 L-255899 283196 L-255514 283194 L-254681 283192 L-254332 283191 L-254310 283190 L-253923 283190 L-253500 283188 L-252901 283187 L-252882 283186 L-252376 283186 L-252144 283184 L-252031 283184 L-251412 283182 L-250850 283181 L-250810 283179 L-250251 283178 L-249918 283177 L-249806 283177 L-249767 283175 L-249342 283175 L-249282 283175 L-249207 283174 L-248916 283174 L-248703 283173 L-248219 283170 L-248005 283169 L-246865 283167 L-246806 283166 L-246788 283165 L-246382 283164 L-245743 283162 L-245608 283161 L-245550 283160 L-245008 283158 L-244699 283157 L-244448 283157 L-244372 283156 L-244253 283154 L-243519 283152 L-243074 283150 L-242860 283149 L-242126 283148 L-241951 283147 L-241586 283147 L-241371 283147 L-240133 283147 L-239824 283147 L-239707 283147 L-239454 283145 L-239243 283144 L-238701 283143 L-238469 283141 L-238412 283141 L-238315 283140 L-237985 283140 L-237753 283139 L-236091 283137 L-235740 283136 L-235336 283133 L-235181 283132 L-234388 283131 L-232898 283130 L-232511 283128 L-232472 283127 L-232219 283126 L-232124 283124 L-231931 283123 L-231582 283123 L-230886 283122 L-230635 283122 L-229919 283120 L-228507 283119 L-228275 283118 L-227945 283118 L-226729 283118 L-226377 283119 L-226185 283120 L-226067 283122 L-223632 283122 L-222663 283120 L-221832 283119 L-221523 283118 L-220181 283116 L-219608 283115 L-219492 283114 L-219163 283114 L-219067 283113 L-218659 283113 L-218544 283111 L-218353 283110 L-217597 283109 L-217471 283107 L-217190 283106 L-216687 283105 L-216609 283103 L-215023 283110 L-214965 283116 L-214223 283124 L-213843 283131 L-213514 283130 L-212851 283128 L-212721 283127 L-212681 283127 L-212431 283127 L-212295 283127 L-212102 283126 L-211966 283126 L-211715 283123 L-211503 283123 L-211193 283122 L-210921 283122 L-210419 283122 L-210400 283122 L-209966 283120 L-209740 283119 L-209297 283118 L-209278 283116 L-208775 283115 L-208637 283114 L-208523 283113 L-208291 283111 L-207981 283110 L-207516 283109 L-207439 283107 L-206937 283106 L-206666 283105 L-206328 283103 L-206143 283102 L-205467 283101 L-205448 283101 L-205273 283099 L-205253 283098 L-204635 283097 L-203919 283096 L-203357 283094 L-203162 283094 L-203009 283093 L-202990 283093 L-202467 283090 L-202352 283089 L-201481 283088 L-201460 283086 L-201403 283085 L-200572 283084 L-200262 283082 L-200186 283081 L-199914 283080 L-199851 283080 L-199800 283077 L-199489 283075 L-198872 283072 L-198096 283071 L-197303 283069 L-197264 283068 L-197187 283067 L-197015 283065 L-196137 283064 L-195252 283063 L-195157 283062 L-195038 283060 L-194708 283059 L-194672 283059 L-194440 283058 L-194206 283058 L-193491 283055 L-192989 283054 L-192323 283052 L-192215 283051 L-192061 283050 L-192041 283048 L-191886 283047 L-191471 283046 L-190860 283045 L-190725 283043 L-189817 283042 L-189614 283041 L-189062 283039 L-186412 283038 L-186237 283037 L-186159 283034 L-185288 283033 L-184824 283031 L-184341 283030 L-184303 283028 L-183722 283026 L-183702 283025 L-182600 283024 L-181179 283022 L-180761 283021 L-180453 283020 L-180376 283018 L-180300 283017 L-180143 283016 L-180067 283014 L-179602 283013 L-178364 283012 L-178113 283011 L-177668 283009 L-177046 283008 L-176990 283007 L-176797 283007 L-176332 283005 L-176041 283003 L-176000 283000 L-175964 282997 L-175811 282995 L-175633 282993 L-174495 282991 L-174107 282990 L-174050 282988 L-173876 282987 L-171359 282984 L-170199 282983 L-169562 282982 L-169423 282980 L-169291 282978 L-168903 282976 L-168440 282975 L-168229 282973 L-168163 282971 L-168130 282970 L-167376 282969 L-166794 282967 L-166602 282966 L-165983 282965 L-165937 282963 L-165577 282962 L-165471 282961 L-165286 282959 L-165009 282958 L-164105 282957 L-163100 282956 L-162365 282954 L-161940 282953 L-161779 282952 L-161416 282950 L-161319 282949 L-160876 282948 L-160800 282946 L-160448 282946 L-160199 282944 L-160179 282941 L-160005 282939 L-159057 282935 L-158943 282933 L-158380 282932 L-157930 282931 L-157545 282929 L-156634 282928 L-156579 282927 L-155440 282925 L-154859 282923 L-154684 282922 L-153891 282919 L-153659 282918 L-153273 282916 L-153002 282915 L-152866 282914 L-152751 282912 L-152132 282912 L-152074 282912 L-151859 282912 L-151564 282912 L-150776 282911 L-150636 282911 L-149248 282910 L-148901 282910 L-148514 282908 L-148453 282906 L-148416 282905 L-148360 282903 L-147716 282902 L-147025 282901 L-146773 282901 L-146437 282899 L-146348 282899 L-145827 282898 L-145574 282897 L-145358 282894 L-144975 282893 L-144815 282891 L-144276 282889 L-143464 282888 L-143445 282886 L-143329 282886 L-143185 282885 L-142804 282885 L-142612 282885 L-142556 282884 L-142256 282882 L-142190 282881 L-141994 282880 L-141627 282878 L-141565 282877 L-141262 282876 L-141216 282876 L-141163 282874 L-140525 282874 L-140505 282873 L-140020 282872 L-139538 282873 L-139169 282873 L-138802 282874 L-138668 282874 L-138514 282873 L-138444 282872 L-137796 282872 L-137776 282871 L-137636 282871 L-137151 282869 L-136868 282869 L-136810 282868 L-136752 282868 L-136442 282867 L-136288 282865 L-135804 282865 L-135031 282865 L-134391 282865 L-134293 282864 L-133231 282864 L-133210 282863 L-132745 284442 L-132728 284442 L-132555 284442 L-132042 284442 L-129688 282861 L-128743 282860 L-128024 282859 L-127484 282856 L-126787 282855 L-126470 282854 L-125822 282852 L-125314 282851 L-125280 282850 L-125238 282848 L-124892 282847 L-124197 282846 L-124000 282844 L-123984 282842 L-123868 282840 L-123586 282839 L-122689 282837 L-122642 282835 L-122276 282833 L-122259 282831 L-122204 282830 L-122011 282829 L-121875 282827 L-121800 282826 L-121566 282825 L-121025 282823 L-120984 282822 L-120947 282821 L-120922 282820 L-120286 282817 L-119744 282816 L-118579 282814 L-118219 282813 L-116942 282813 L-116903 282812 L-116865 282812 L-116650 282810 L-116459 282809 L-116382 282808 L-116228 282806 L-116189 282805 L-115100 282804 L-114776 282804 L-114562 282802 L-114301 282802 L-113808 282802 L-113786 282808 L-113369 282813 L-113228 282817 L-113168 282822 L-113091 282822 L-112880 282821 L-111585 282821 L-111309 282820 L-110685 282818 L-109294 282817 L-109221 282816 L-109183 282813 L-108990 282812 L-108600 282810 L-108293 282809 L-108237 282808 L-107921 282808 L-107871 282808 L-107832 282806 L-107787 282805 L-107154 282804 L-106380 282802 L-105941 282801 L-105799 284395 L-105775 284393 L-105759 285987 L-105734 285987 L-105317 284393 L-105113 284392 L-104964 282797 L-104886 282796 L-104832 282795 L-104035 282795 L-104018 282795 L-103155 282795 L-102951 282795 L-102664 282793 L-102548 282792 L-102023 282791 L-101846 282789 L-101542 282788 L-101155 282787 L-101095 282784 L-101039 282783 L-100885 282782 L-99840 282780 L-99278 282780 L-99042 282779 L-99005 282779 L-98736 282779 L-98330 282778 L-96861 282776 L-95120 282775 L-94733 282774 L-94501 282772 L-94402 282771 L-94307 282770 L-94152 282767 L-93589 282767 L-93507 282766 L-93340 282766 L-92798 282767 L-91613 282767 L-91599 282767 L-91539 282767 L-91388 282766 L-90903 282765 L-90256 282763 L-89550 282761 L-89433 282759 L-88466 282758 L-88421 282757 L-87731 282757 L-87674 282755 L-87596 282755 L-87576 282754 L-87555 282753 L-87340 282751 L-86627 282751 L-86237 282750 L-86200 282749 L-86183 282748 L-86125 282746 L-85698 282745 L-85484 282744 L-85409 282741 L-85331 282740 L-85216 282738 L-85151 282738 L-85022 282737 L-84963 282737 L-84888 282734 L-84809 282733 L-84380 282732 L-83655 282731 L-83641 282728 L-83474 282727 L-83258 282724 L-83243 282721 L-82662 282720 L-82391 282719 L-82102 282717 L-81672 282716 L-81519 282715 L-81462 282714 L-81286 282712 L-79890 282711 L-79625 282708 L-78732 282706 L-78206 282704 L-77187 282702 L-77106 282700 L-76642 282699 L-76023 282699 L-75736 282698 L-75483 282698 L-75331 282697 L-74983 282695 L-74266 282694 L-73705 282693 L-72816 282691 L-72507 282691 L-72216 282691 L-71364 282691 L-71343 282691 L-70686 282691 L-70183 282689 L-69972 282687 L-69952 282686 L-69623 282685 L-69564 282685 L-69178 282685 L-68192 282685 L-67631 282685 L-67534 282685 L-67225 282683 L-67148 282683 L-66113 282682 L-65983 282681 L-65926 282680 L-65291 282678 L-65232 282677 L-65156 282676 L-63743 282674 L-63606 282673 L-63472 282672 L-62986 282670 L-62737 282669 L-62446 282668 L-62234 282666 L-61576 282665 L-61008 282663 L-60919 282661 L-60779 282660 L-60705 282659 L-59540 282659 L-59508 282657 L-59078 282657 L-59061 282656 L-58887 282655 L-57359 282653 L-57275 282655 L-56469 282655 L-56276 282655 L-56254 282655 L-55401 282653 L-55207 282652 L-54574 282651 L-54398 282649 L-54279 282648 L-54225 282648 L-54204 282648 L-54148 282648 L-53760 282648 L-53316 282648 L-53237 282647 L-53040 282647 L-52979 282646 L-52716 282644 L-52368 282644 L-52252 282643 L-51104 282643 L-50819 282642 L-50374 282640 L-49171 282639 L-49041 282638 L-48731 282636 L-48303 282635 L-47006 282634 L-46696 284170 L-46680 284170 L-46634 284200 L-46584 284200 L-45656 282661 L-45326 282661 L-44777 282630 L-44650 282629 L-44204 282627 L-42671 282626 L-42502 282625 L-42231 282623 L-42207 282621 L-41302 282619 L-41187 282618 L-40719 282617 L-40697 282615 L-40624 282614 L-40426 282613 L-40274 282611 L-39807 282610 L-39156 282609 L-38670 282608 L-38120 282608 L-37098 282608 L-36792 282608 L-36737 282608 L-36137 282606 L-35707 282605 L-35633 282605 L-35615 282604 L-35394 282604 L-35090 282602 L-35008 282601 L-34704 282601 L-34104 282600 L-33968 282598 L-33698 282597 L-33484 282596 L-33309 282596 L-33100 282596 L-33078 282596 L-32829 282611 L-32380 282627 L-32363 282643 L-31918 282659 L-30710 282659 L-30508 282657 L-29579 282657 L-29518 282656 L-29483 282655 L-28458 282653 L-28341 282653 L-28321 282652 L-28167 282652 L-28148 282652 L-27737 282651 L-27721 282651 L-27683 282649 L-27373 282648 L-27219 282647 L-27014 282647 L-26616 282646 L-25633 282646 L-25108 282646 L-25052 282644 L-25026 282644 L-24704 282643 L-23987 282643 L-23118 282643 L-23080 282643 L-23002 282643 L-22751 282642 L-22731 282640 L-22008 282640 L-21858 282639 L-21745 282639 L-21648 282638 L-20546 282636 L-19791 282635 L-19619 282634 L-19457 282632 L-19382 282631 L-19188 282631 L-18050 282630 L-17365 282630 L-17082 282629 L-16115 282627 L-16096 282626 L-15245 282625 L-15205 282623 L-15062 282622 L-14738 282621 L-14508 282619 L-14470 282618 L-14429 282617 L-14413 282614 L-14277 282613 L-14258 282611 L-14047 282610 L-13987 282609 L-13909 282608 L-13885 282606 L-13810 282605 L-13329 282604 L-13233 282602 L-13157 282601 L-12980 282600 L-12958 282598 L-12903 282597 L-12865 282596 L-12806 282594 L-12651 282593 L-11627 282592 L-11328 282591 L-11201 282589 L-11123 282588 L-10098 282587 L-10041 282585 L-9983 282584 L-9937 282583 L-9923 282581 L-9886 282580 L-9847 282579 L-8668 282577 L-8609 282576 L-7913 282576 L-7293 282575 L-7151 282575 L-6708 282574 L-6442 282572 L-5779 282572 L-5495 282571 L-4025 282571 L-3076 282570 L-2970 282568 L-2904 282568 L-2875 282567 L-2555 282566 L-2534 282566 L-1605 282566 L-1429 282567 L-697 282568 L-157 212105 L-133 141641 L-107 71176 L-74 712 L-58 711 L-37 708 L0 705 L19 705 L42 708 L57 709 L76 711 L96 711 L118 708 L134 707 L154 705 L173 705 L212 705 L252 703 L277 700 L293 696 L311 694 L348 691 L367 690 L386 688 L405 687 L427 684 L444 683 L483 679 L505 675 L521 674 L540 671 L560 670 L580 669 L599 666 L637 665 L695 664 L743 661 L794 660 L821 657 L837 654 L854 653 L870 652 L890 650 L908 650 L928 648 L948 647 L970 644 L986 640 L1005 637 L1025 636 L1046 633 L1083 631 L1102 628 L1123 626 L1159 623 L1180 622 L1206 620 L1222 619 L1240 616 L1257 610 L1277 603 L1295 596 L1315 590 L1334 586 L1392 584 L1412 580 L1434 577 L1468 573 L1489 569 L1509 567 L1527 564 L1546 563 L1585 562 L1604 559 L1623 556 L1649 555 L1837 552 L1857 550 L1876 548 L1899 546 L1933 543 L1953 541 L1975 537 L1992 533 L2011 529 L2030 525 L2051 522 L2069 520 L2088 517 L2109 514 L2134 512 L2150 509 L2185 507 L2206 505 L2224 503 L2243 501 L2262 499 L2284 496 L2320 493 L2340 491 L2362 488 L2378 486 L2397 483 L2417 480 L2437 479 L2474 476 L2552 475 L2577 473 L2600 470 L2628 466 L2651 463 L2677 461 L2727 458 L2747 457 L2785 453 L2804 450 L2826 449 L2842 446 L2861 445 L2881 444 L2902 442 L2939 440 L2959 439 L3016 437 L3037 436 L3063 436 L3077 435 L3094 435 L3133 433 L3152 431 L3171 428 L3191 425 L3211 423 L3229 420 L3248 416 L3268 414 L3289 411 L3326 408 L3346 407 L3364 406 L3403 405 L3442 403 L3462 402 L3480 401 L3529 399 L3557 398 L3596 395 L3627 394 L3641 391 L3714 389 L3733 386 L3755 385 L3771 384 L3790 382 L3830 382 L3907 380 L3926 378 L3945 376 L3966 374 L3991 373 L4023 372 L4042 372 L4061 369 L4100 367 L4140 363 L4219 359 L4254 356 L4294 354 L4371 352 L4390 351 L4436 350 L4457 351 L4486 351 L4525 348 L4555 347 L4570 344 L4584 342 L4625 339 L4686 338 L4700 335 L4719 333 L4739 330 L4816 326 L4855 323 L4873 321 L4920 320 L4937 318 L4955 317 L4971 316 L5009 312 L5030 309 L5048 305 L5070 302 L5086 300 L5126 297 L5164 295 L5183 292 L5203 288 L5223 283 L5241 278 L5260 272 L5280 270 L5300 268 L5364 267 L5386 266 L5414 265 L5438 261 L5464 257 L5480 251 L5497 246 L5533 244 L5551 241 L5571 240 L5591 238 L5614 236 L5629 234 L5648 233 L5667 229 L5689 224 L5706 220 L5726 216 L5745 214 L5766 211 L5783 210 L5802 207 L5849 206 L5865 203 L5883 200 L5899 197 L5920 193 L5938 189 L5958 185 L5977 180 L6015 178 L6034 177 L6077 176 L6092 174 L6111 170 L6131 166 L6170 164 L6189 163 L6209 160 L6247 159 L6266 156 L6292 153 L6342 152 L6380 151 L6395 149 L6441 148 L6480 146 L6500 144" />
</svg>
