<svg xmlns="http://www.w3.org/2000/svg" version="1.1" viewBox="0 0 6500 1000">
	<path fill="none" stroke="gold" stroke-width="125" stroke-linecap="round" stroke-linejoin="round" d="M0 1516  L-3945 1516 L-3533 1455 L-3308 1486 L-3251 1455 L-3213 1395 L-3029 1334 L-2539 1273 L-2245 1243 L-1934 1213 L-1700 1152 L-1646 1091 L-1587 1031 L-1434 1000 L-1393 970 L-1261 940 L-968 970 L-427 940 L182 879 L230 940 L870 879 L903 909 L1429 849 L1561 818 L1952 697 L2280 636 L2397 576 L2608 636 L3325 606 L3895 576 L4002 545 L4177 485 L4398 424 L4800 394 L4825 333 L5753 272 L5841 212 L5923 151 L5993 90 L6290 60 L6442 30" />
</svg>
