<svg xmlns="http://www.w3.org/2000/svg" version="1.1" viewBox="0 0 6500 1000">
	<path fill="none" stroke="gold" stroke-width="125" stroke-linecap="round" stroke-linejoin="round" d="M0 97227  L-830855 97227 L-830671 97186 L-830180 97105 L-829887 97064 L-829576 96982 L-829341 96941 L-829288 96859 L-829228 96778 L-829075 96737 L-829035 96655 L-828902 96614 L-828610 96573 L-828069 96573 L-827459 96532 L-827411 96532 L-826771 96492 L-826737 96492 L-826212 96492 L-826079 96451 L-825689 96369 L-825361 96287 L-825244 96205 L-825032 96124 L-824315 96124 L-823746 96083 L-823638 96083 L-823464 96042 L-823242 95960 L-822841 95919 L-822815 95838 L-821887 95756 L-821800 95674 L-821718 95592 L-821647 95511 L-821350 95470 L-821198 95388 L-819308 95429 L-819207 95429 L-818945 95429 L-818651 95470 L-818510 95388 L-818261 95388 L-818225 95347 L-818067 95306 L-817604 95225 L-817351 95184 L-817138 95102 L-816887 95061 L-816538 95020 L-815611 94939 L-815517 94857 L-815106 94816 L-813935 94734 L-812746 94693 L-812654 94612 L-812627 94530 L-812361 94448 L-812062 94366 L-811933 94285 L-811895 94203 L-811081 94203 L-810697 94244 L-809636 94285 L-809575 94285 L-809310 95102 L-808839 95879 L-808646 96655 L-808383 97431 L-808046 97391 L-807910 97350 L-807455 97309 L-806711 97268 L-806694 97227 L-806529 97145 L-806461 97145 L-805944 97105 L-804916 97105 L-804720 97064 L-804231 97023 L-803869 96982 L-803460 96982 L-803075 97023 L-801371 97023 L-801273 97023 L-801201 97023 L-801140 97023 L-800956 96982 L-800619 96982 L-799979 96941 L-799902 96900 L-799840 96900 L-799654 96859 L-799574 96859 L-799397 96818 L-799378 96778 L-799148 96778 L-798760 96737 L-797871 96737 L-797832 96696 L-797744 96655 L-797717 96573 L-796708 96532 L-796559 96451 L-796534 96410 L-796402 96369 L-796362 96328 L-795103 96287 L-795046 96287 L-794506 96246 L-794453 96246 L-794407 96246 L-794012 96205 L-793872 96165 L-793672 96124 L-793526 96124 L-793361 96124 L-793084 96165 L-792726 96165 L-792173 96124 L-791528 96083 L-791269 96001 L-791116 95960 L-790715 95919 L-790675 95879 L-790554 95838 L-790492 95879 L-790478 95879 L-790384 95879 L-790091 95838 L-789940 95674 L-789609 95592 L-789532 95511 L-789456 95470 L-789229 95347 L-789163 95266 L-788935 95184 L-788883 95102 L-788718 95061 L-787712 95020 L-787529 94979 L-786978 94939 L-786585 94857 L-786187 94816 L-785337 94734 L-785259 94693 L-784680 94653 L-784239 94653 L-783998 94612 L-783840 94612 L-783440 94530 L-783419 94530 L-782974 94489 L-782569 94448 L-782433 94366 L-782258 94285 L-782121 94203 L-781871 94121 L-780871 94080 L-780789 94040 L-780653 93999 L-780615 93958 L-779725 93917 L-779509 93876 L-779066 93835 L-778949 93794 L-778892 93753 L-778216 93753 L-778115 93713 L-778086 93713 L-776745 93672 L-776339 93631 L-776299 93590 L-775371 93549 L-775273 93508 L-775140 93467 L-774736 93427 L-774710 93386 L-774617 93345 L-774400 93304 L-773989 93222 L-772836 93140 L-772544 93059 L-772515 92977 L-771907 92936 L-771657 92854 L-771637 92814 L-770708 92773 L-770657 92691 L-770534 92650 L-770517 92568 L-770361 92527 L-770186 92446 L-770049 92405 L-769993 92364 L-769885 92323 L-769799 92282 L-769566 92241 L-769491 92201 L-769183 92160 L-769065 92119 L-768895 92078 L-768804 92037 L-768701 92037 L-768678 91996 L-768601 91996 L-768503 91914 L-768136 91874 L-768032 91833 L-767528 91792 L-767076 91751 L-767038 91710 L-767014 91669 L-766973 91628 L-766845 91588 L-766744 91547 L-766302 91506 L-766020 91465 L-765428 91424 L-765297 91383 L-765023 91302 L-764870 91261 L-764717 91220 L-764632 91138 L-764554 91097 L-764368 91056 L-764317 91056 L-764290 91015 L-764210 90975 L-764187 90934 L-763904 90852 L-763300 90770 L-762305 90729 L-762007 90689 L-761273 90648 L-761028 90607 L-760938 90566 L-760361 90525 L-759663 90484 L-758910 90443 L-758592 90402 L-758209 90321 L-758132 90280 L-757497 90239 L-757312 90198 L-757224 90198 L-757095 90198 L-756782 90157 L-756733 90116 L-756590 90076 L-756569 90035 L-755601 89994 L-755056 89953 L-754577 89953 L-754516 89953 L-754193 89953 L-754171 89912 L-754109 89912 L-753899 89871 L-753822 89830 L-753767 89789 L-753745 89749 L-753706 89708 L-753690 89667 L-752933 89626 L-752916 89585 L-752117 89544 L-751964 89503 L-751059 89463 L-750553 89422 L-750323 89340 L-750282 89340 L-750167 89299 L-749991 89258 L-749236 89299 L-749101 89258 L-748937 89217 L-748619 89176 L-748443 89095 L-747421 89013 L-747398 88931 L-747146 88890 L-746933 88809 L-746299 88768 L-746062 88686 L-746029 88604 L-745851 88523 L-745771 88441 L-745681 88400 L-745616 88318 L-745176 88237 L-745153 88196 L-744612 88155 L-744356 88114 L-743861 88073 L-742984 88032 L-742947 87991 L-742894 87950 L-742853 87910 L-742736 87869 L-742460 87828 L-742253 87746 L-742055 87664 L-742032 87583 L-741982 87501 L-741943 87460 L-741865 87419 L-741267 87337 L-741207 87297 L-741104 87256 L-740950 87215 L-740317 87174 L-739637 87133 L-739334 87051 L-738987 87011 L-738790 86970 L-738742 86888 L-738421 86847 L-737794 86806 L-737647 86765 L-737611 86724 L-737553 86684 L-737476 86602 L-737235 86602 L-737146 86561 L-737052 86520 L-736759 86479 L-736624 86438 L-736564 86398 L-736527 86316 L-736255 86316 L-735249 86275 L-735073 86234 L-735023 86234 L-734730 86193 L-734538 86111 L-734204 86071 L-733698 86030 L-733136 85948 L-733121 85866 L-733104 85825 L-733004 85744 L-732889 85662 L-732850 85580 L-732813 85539 L-732747 85539 L-732719 85498 L-732580 85539 L-732287 85539 L-732237 85539 L-732132 85539 L-731867 85498 L-731402 85458 L-731258 85458 L-731203 85376 L-731146 85335 L-730955 85294 L-730590 85253 L-730376 85253 L-730181 85253 L-730123 85253 L-730064 85172 L-729910 85131 L-729641 85090 L-729211 85294 L-729195 85294 L-729118 85253 L-729054 85212 L-728924 84926 L-728901 84885 L-728617 84845 L-728569 84804 L-728515 84763 L-728052 84722 L-728013 84722 L-727973 84681 L-727782 84640 L-727302 84599 L-726815 84559 L-726799 84518 L-726760 84477 L-726504 84436 L-726427 84354 L-726197 84313 L-726181 84232 L-725886 84150 L-725444 84109 L-724997 84068 L-724493 84027 L-724339 83986 L-724052 83946 L-724012 83864 L-723681 83823 L-723459 83782 L-722942 83700 L-722866 83659 L-722618 83578 L-722424 83496 L-722364 83455 L-721588 83414 L-721514 83414 L-721283 83373 L-721266 83373 L-721205 83333 L-721009 83292 L-720545 83292 L-720521 83251 L-720392 83251 L-719091 83251 L-719074 83251 L-718997 83210 L-718904 83210 L-718686 83210 L-718534 83169 L-718356 83210 L-718302 83251 L-718015 83292 L-717975 83292 L-717606 83292 L-717165 83292 L-716982 83292 L-716661 83251 L-716366 83251 L-715920 83169 L-715848 83128 L-715386 83046 L-714948 83006 L-714766 82965 L-713312 82883 L-713180 82842 L-712723 82760 L-712497 82720 L-712110 82638 L-711594 82556 L-710640 82474 L-709846 82393 L-709171 82352 L-708746 82270 L-708434 82229 L-708205 82107 L-707521 81984 L-707508 81861 L-707298 81698 L-707276 81657 L-707102 81575 L-706152 81534 L-705884 81453 L-705069 81412 L-704758 81330 L-704720 81289 L-704663 81208 L-704046 81167 L-703408 81085 L-701782 81044 L-701109 81003 L-700466 81003 L-700389 81003 L-700333 81003 L-700297 81003 L-700268 80962 L-700157 80881 L-700139 80840 L-700116 80799 L-699963 80758 L-699909 80676 L-699831 80635 L-699712 80595 L-699614 80554 L-699497 80513 L-699227 80431 L-698958 80390 L-698940 80308 L-698740 80268 L-698593 80186 L-698367 80145 L-698233 80104 L-697924 80063 L-697864 80022 L-697511 79941 L-697162 79900 L-697061 79859 L-696997 79777 L-696937 79736 L-696553 79655 L-696172 79614 L-696067 79573 L-695807 79532 L-695536 79450 L-695377 79409 L-695344 79369 L-695282 79328 L-695141 79287 L-694957 79246 L-694913 79205 L-694625 79205 L-694608 79164 L-694375 79164 L-694314 79123 L-694276 79123 L-693696 79082 L-693562 79042 L-693539 78878 L-693521 78592 L-693503 78265 L-693487 77938 L-693463 77611 L-693447 77366 L-693426 77080 L-693409 76794 L-693386 76630 L-693369 76467 L-693347 76344 L-693331 76263 L-693282 76140 L-693209 76017 L-693175 75813 L-693151 75650 L-693115 75486 L-693074 75323 L-693037 75241 L-693021 75078 L-692997 74955 L-692960 74873 L-692943 74751 L-692920 74669 L-692902 74587 L-692884 74505 L-692868 74424 L-692838 74301 L-692812 74178 L-692767 74138 L-692751 74056 L-692709 74015 L-692661 73933 L-692590 73852 L-692575 73770 L-692559 73688 L-692496 73647 L-692457 73606 L-692418 73565 L-692252 73525 L-692187 73484 L-692171 73443 L-692127 73361 L-692068 73320 L-691856 73279 L-691822 73239 L-691780 73198 L-691702 73157 L-691164 73116 L-691086 73075 L-690982 72993 L-690893 72953 L-690717 72912 L-690366 72871 L-690211 72830 L-689773 72789 L-689616 72748 L-689486 72707 L-688782 72626 L-688581 72585 L-687621 72503 L-687138 72462 L-687039 72462 L-686947 72421 L-686702 72380 L-686629 72340 L-686186 72258 L-686090 72217 L-686075 72176 L-686059 72135 L-686034 72094 L-685568 72053 L-685351 72013 L-685211 71972 L-684918 71931 L-684829 71890 L-684788 71849 L-684758 71808 L-684585 71767 L-684526 71727 L-684450 71686 L-684370 71645 L-684300 71645 L-683991 71604 L-683905 71563 L-683692 71522 L-683657 71481 L-682973 71440 L-682874 71400 L-682669 71359 L-682623 71318 L-682344 71277 L-682282 71236 L-682265 71154 L-682187 71114 L-681879 71032 L-681855 70991 L-681801 70909 L-681778 70868 L-681656 70827 L-681520 70746 L-681276 70705 L-681150 70705 L-680503 70664 L-680487 70664 L-680462 70664 L-680282 70582 L-680206 70541 L-680114 70501 L-679687 70460 L-679270 70419 L-678877 70337 L-678799 70296 L-678780 70255 L-678417 70214 L-678180 70174 L-677952 70133 L-677639 70092 L-677561 70051 L-677480 69969 L-677302 69888 L-677287 69847 L-677021 69765 L-676941 69724 L-676711 69683 L-676485 69642 L-676169 69642 L-675994 69601 L-675633 69601 L-675241 69561 L-675172 69479 L-675108 69438 L-674968 69356 L-674916 69315 L-674814 69234 L-674312 69193 L-674115 69152 L-673868 69111 L-673683 69070 L-673383 69029 L-673307 68988 L-673141 68907 L-672257 68866 L-672228 68784 L-672105 68702 L-671526 68662 L-671449 68621 L-670735 68621 L-670423 68621 L-670210 68621 L-670193 68621 L-669807 68621 L-669282 68539 L-668836 68498 L-668506 68457 L-668353 68416 L-668027 68416 L-667849 68375 L-667768 68375 L-667561 68294 L-667386 68253 L-666457 68212 L-665567 68171 L-665528 68130 L-665300 68130 L-664921 68089 L-664134 68049 L-663899 68008 L-663823 67967 L-663466 67926 L-662894 67844 L-662627 67803 L-662241 67762 L-662137 67762 L-661967 67762 L-661349 67762 L-661137 67762 L-660830 67762 L-660777 67722 L-660649 67681 L-660596 67640 L-660477 67599 L-660140 67517 L-659181 67476 L-659050 67395 L-658848 67354 L-658217 67313 L-657906 67272 L-657492 67231 L-657464 67190 L-657319 67149 L-656899 67109 L-655566 67109 L-655519 67068 L-655391 66986 L-655374 66945 L-654796 66863 L-654590 66823 L-654561 66782 L-654520 66741 L-654462 66700 L-654425 66659 L-654347 66618 L-654204 66577 L-653749 66536 L-653631 66496 L-653346 66455 L-652973 66414 L-652877 66373 L-652550 66332 L-652196 66291 L-652026 66250 L-651978 66210 L-651869 66169 L-651780 66128 L-651753 66087 L-651676 66005 L-651373 65964 L-651339 65883 L-651267 65842 L-650899 65801 L-650564 65760 L-650483 65760 L-650263 65719 L-650092 65678 L-650064 65637 L-649567 65597 L-649018 65515 L-648137 65474 L-648039 65392 L-647962 65351 L-647687 65310 L-647440 65229 L-647366 65188 L-647305 65106 L-647186 65065 L-647143 65024 L-647033 64984 L-646956 64902 L-646256 64861 L-646010 64820 L-645971 64779 L-645814 64738 L-645215 64738 L-644988 64738 L-644896 64738 L-644421 64738 L-643823 64657 L-643304 64616 L-643283 64575 L-643137 64534 L-642817 64534 L-642276 64534 L-642043 64534 L-641873 64534 L-641387 64493 L-641159 64452 L-641074 64411 L-640728 64371 L-640402 64371 L-639879 64330 L-639551 64289 L-638951 64248 L-638753 64166 L-638701 64125 L-638661 64085 L-638380 64044 L-637695 63962 L-637385 63921 L-637360 63839 L-637169 63798 L-636946 63758 L-636860 63717 L-636197 63635 L-636172 63594 L-635950 63512 L-635620 63472 L-635268 63390 L-635064 63349 L-634831 63267 L-634573 63226 L-634384 63145 L-634337 63104 L-634109 63063 L-634075 63022 L-633918 62981 L-633704 62940 L-633531 62899 L-633440 62859 L-633162 62818 L-632918 62777 L-632603 62736 L-632177 62736 L-632140 62736 L-631656 62736 L-631423 62736 L-631211 62695 L-630985 62654 L-630435 62654 L-630188 62613 L-629354 62613 L-629298 62572 L-629276 62532 L-629118 62491 L-628657 62450 L-628616 62409 L-628276 62327 L-628143 62286 L-627920 62246 L-627348 62205 L-626876 62164 L-626682 62123 L-626489 62082 L-626299 62041 L-626197 62000 L-625829 61959 L-625783 61919 L-625701 61878 L-624408 61837 L-624360 61796 L-624091 61796 L-623946 61796 L-623395 61796 L-623279 61755 L-623197 61714 L-622837 61673 L-622614 61633 L-622333 61592 L-622003 61510 L-621496 61469 L-621383 61428 L-621304 61387 L-621140 61346 L-620845 61346 L-620377 61346 L-620180 61387 L-620130 61387 L-619480 61346 L-619358 61306 L-618904 61306 L-618868 61265 L-618400 61224 L-618289 61183 L-618273 61142 L-618057 61142 L-617876 61101 L-617344 61101 L-616315 61101 L-616115 61060 L-615657 61020 L-614709 60938 L-614610 60897 L-614256 60815 L-614195 60774 L-614181 60733 L-614146 60693 L-613776 60652 L-613656 60611 L-613414 60570 L-613250 60529 L-613063 60488 L-612942 60447 L-611872 60366 L-611013 60325 L-610801 60243 L-610704 60202 L-610530 60120 L-610197 60080 L-610125 60039 L-610067 59998 L-609892 59998 L-609503 59957 L-609268 59916 L-609156 59875 L-609039 59834 L-608058 59794 L-608033 59753 L-607439 59671 L-607406 59671 L-607258 59630 L-606973 59589 L-606061 59589 L-605115 59589 L-604962 59548 L-604860 59548 L-604728 59507 L-604585 59467 L-604559 59426 L-604444 59385 L-604226 59344 L-603545 59303 L-603415 59262 L-603112 59221 L-602872 59140 L-602539 59099 L-601901 59058 L-601558 58976 L-601497 58935 L-601341 58935 L-600419 58935 L-599949 58935 L-599905 58935 L-599892 58894 L-599851 58854 L-599829 58813 L-599802 58772 L-599658 58731 L-599236 58690 L-598900 58690 L-598709 58649 L-598281 58649 L-598093 58608 L-597704 58527 L-597170 58486 L-596797 58445 L-596776 58445 L-596526 58404 L-596407 58363 L-596331 58322 L-596196 58281 L-596156 58241 L-596077 58200 L-595682 58159 L-595186 58118 L-595074 58036 L-594901 57995 L-594593 57955 L-594146 57914 L-593823 57873 L-593680 57791 L-593253 57709 L-593100 57628 L-593044 57546 L-592231 57505 L-592211 57464 L-591839 57423 L-591782 57423 L-590653 57382 L-590585 57382 L-590027 57342 L-589832 57301 L-589696 57260 L-589463 57219 L-589116 57178 L-589081 57096 L-589046 57055 L-588977 56974 L-588628 56933 L-588456 56892 L-587971 56851 L-587955 56810 L-587630 56769 L-587473 56729 L-586332 56647 L-586307 56606 L-586115 56524 L-585922 56483 L-585671 56442 L-585654 56402 L-584634 56361 L-584336 56320 L-584261 56279 L-584125 56197 L-583949 56156 L-583372 56075 L-583157 56034 L-583093 55993 L-582962 55952 L-582925 55870 L-582402 55829 L-582264 71931 L-582250 71931 L-582227 71931 L-582207 71931 L-581979 55789 L-581204 55789 L-581162 55789 L-580794 55789 L-580716 55748 L-580664 55707 L-579991 55666 L-579248 55625 L-578824 55625 L-578376 55584 L-577314 55543 L-577003 55462 L-576593 55462 L-576520 55421 L-575996 55421 L-575902 55421 L-575884 55421 L-575439 55380 L-575254 55298 L-574473 55217 L-573801 55176 L-573389 55053 L-573157 54971 L-573016 54930 L-572935 54849 L-572915 54808 L-572839 54808 L-572710 54767 L-572393 54808 L-572169 54808 L-571844 54767 L-571782 54767 L-571412 54767 L-571379 54767 L-571170 54767 L-570503 54767 L-570425 54767 L-570267 54685 L-570157 54685 L-569830 54644 L-569675 54604 L-569334 54604 L-569277 54522 L-568939 54440 L-568736 54399 L-568683 54317 L-567306 54277 L-567176 54236 L-566743 54195 L-566423 54154 L-565595 54072 L-565471 54031 L-564741 53950 L-564585 53868 L-564544 53827 L-564490 53786 L-564467 53745 L-564353 53704 L-564057 53664 L-563767 53623 L-563712 53582 L-563592 53541 L-563562 53500 L-563462 53459 L-563018 53459 L-562866 53418 L-562031 53418 L-561489 53378 L-561154 53378 L-561139 53337 L-561063 53296 L-560947 53255 L-560752 53214 L-560488 53173 L-559653 53132 L-559557 53091 L-559036 53051 L-558994 53010 L-558895 52969 L-558066 52969 L-557931 52928 L-557593 52928 L-557038 52887 L-556659 52846 L-556496 52805 L-556186 52765 L-555373 52724 L-555067 52683 L-554799 52683 L-554477 52683 L-554156 52724 L-553881 52724 L-553052 52642 L-552957 52601 L-552865 52478 L-552760 52356 L-552373 52233 L-551893 52152 L-551877 52111 L-551758 52070 L-551390 51988 L-551295 51947 L-550462 51865 L-550385 51825 L-550085 51784 L-549994 51743 L-549587 51661 L-549477 51579 L-548778 51539 L-548305 51498 L-548244 51457 L-548026 51375 L-547752 51334 L-547639 51293 L-546612 51252 L-546225 51212 L-546205 51171 L-545872 51130 L-545627 51089 L-545194 51048 L-545084 51007 L-544966 50966 L-544515 50885 L-543924 50844 L-543588 50803 L-541695 50762 L-541581 50680 L-541369 50639 L-540051 50599 L-539945 41404 L-539879 32331 L-539842 23954 L-539781 23954 L-539281 33067 L-538606 42058 L-538584 50353 L-538314 50272 L-537346 50272 L-536656 50231 L-536494 50190 L-535954 50149 L-535864 50108 L-534845 50067 L-533897 49986 L-533531 50026 L-533428 50067 L-532840 50067 L-532781 50067 L-532680 50026 L-532240 49945 L-532132 49904 L-531691 49863 L-530691 49740 L-530435 49618 L-530332 49495 L-530202 49413 L-529835 49332 L-529254 49250 L-529223 49209 L-528908 49168 L-526925 49127 L-526809 49087 L-526741 49087 L-526383 49046 L-524764 49005 L-524586 49005 L-524442 49005 L-523620 49046 L-523567 49087 L-523512 49087 L-523078 49087 L-522098 49127 L-522024 49127 L-520939 49087 L-520726 49087 L-520010 49005 L-519622 48964 L-519403 48882 L-519083 48800 L-518590 48719 L-518462 48678 L-518233 48596 L-518001 48514 L-517941 48474 L-517652 48433 L-517380 48351 L-516350 48310 L-514685 48269 L-514266 48228 L-514129 48187 L-513972 48187 L-513667 48147 L-513439 48065 L-513281 48024 L-513121 47942 L-512952 47861 L-512905 47820 L-512851 47779 L-512830 47779 L-512444 47738 L-512194 47738 L-511923 47738 L-511763 47738 L-511673 47738 L-510014 47738 L-509849 47779 L-509469 47738 L-509009 47738 L-508399 47656 L-507306 47615 L-506875 47574 L-506844 47534 L-506781 47493 L-506764 47452 L-505060 47411 L-505018 47370 L-504552 47329 L-504365 47288 L-504333 47207 L-503738 47166 L-503688 47125 L-503365 47084 L-503314 47043 L-503104 47002 L-503086 46961 L-502820 46880 L-502767 46839 L-502298 46798 L-501788 46716 L-501709 46716 L-501415 46675 L-501398 46635 L-501360 46594 L-501289 46553 L-501131 46512 L-500185 46512 L-500129 46512 L-499608 46512 L-499416 46471 L-499315 46471 L-499089 46430 L-498579 46430 L-498191 47534 L-498121 47534 L-497773 47493 L-497416 47452 L-496287 46267 L-496236 46185 L-496010 46144 L-495976 46103 L-495851 46022 L-495752 46022 L-495487 46022 L-494747 46062 L-494169 46062 L-493875 46062 L-493169 46062 L-492990 46022 L-492967 46022 L-492331 45981 L-492020 45940 L-491623 45940 L-491594 45899 L-491573 45858 L-491419 45817 L-490734 45817 L-490718 45817 L-490378 45817 L-490105 45776 L-490068 45736 L-490012 45654 L-489990 45613 L-489918 45572 L-489586 45531 L-489480 45490 L-489451 45409 L-489253 45368 L-489100 45327 L-488232 45286 L-487669 45204 L-487654 45204 L-487552 45163 L-487450 45204 L-487304 45204 L-487225 45204 L-487187 45163 L-487132 45123 L-487059 45082 L-486914 45041 L-486432 45041 L-486028 45000 L-485161 45041 L-485141 45041 L-484884 45041 L-484807 45041 L-484778 45000 L-484767 44918 L-484750 44877 L-484457 44836 L-484418 44796 L-484346 44755 L-484272 44714 L-484067 44673 L-483907 44550 L-483606 44428 L-483529 44264 L-483511 44142 L-483295 44060 L-483064 44060 L-482954 44101 L-482584 44142 L-482426 44142 L-482194 44142 L-482026 44142 L-481881 44101 L-481749 44060 L-480473 43978 L-480070 43897 L-480009 43856 L-479892 43774 L-479467 43733 L-479451 43651 L-479390 43610 L-479116 43529 L-479004 43488 L-478721 43406 L-478444 43365 L-478019 43284 L-477997 43243 L-477919 43202 L-477793 43161 L-477207 43120 L-476815 43079 L-476480 43038 L-475890 42997 L-475788 42997 L-475618 42957 L-475482 42957 L-474654 42916 L-473469 42875 L-473433 42834 L-473377 42834 L-473157 42793 L-472951 42793 L-472797 42793 L-472540 42752 L-472464 42711 L-471921 42671 L-471885 42630 L-471636 42589 L-471248 42548 L-470423 42507 L-470064 42466 L-469754 42466 L-469496 42425 L-469272 42384 L-468866 42344 L-468750 42303 L-468566 42262 L-468513 42262 L-468325 42221 L-468154 42180 L-468125 42139 L-467845 42098 L-467534 42058 L-467396 42017 L-467086 41976 L-466892 41976 L-466877 41935 L-466158 41935 L-466024 41853 L-465726 41812 L-465636 41771 L-465035 41771 L-464997 41731 L-464919 41690 L-464298 41649 L-464147 41567 L-464106 41526 L-463795 41485 L-463604 41445 L-463411 41363 L-463355 41281 L-463046 41240 L-462994 41199 L-462940 41240 L-462914 41240 L-462789 41240 L-461978 41199 L-461902 41158 L-461361 41118 L-461093 41077 L-460433 41036 L-459525 40995 L-459284 40954 L-458752 40913 L-458535 40872 L-457427 40913 L-457377 40913 L-456601 40913 L-456054 40872 L-455943 40832 L-455790 40750 L-455734 40709 L-455569 40668 L-455192 40627 L-454744 40586 L-454690 40545 L-454535 40505 L-453855 40464 L-453635 40423 L-453117 40382 L-452268 40300 L-452252 40259 L-450461 40219 L-449907 40178 L-449790 40137 L-448784 40096 L-448747 40055 L-448515 40055 L-448422 40055 L-448382 40055 L-448050 40014 L-447698 39973 L-447433 39892 L-447146 39851 L-446836 39769 L-446581 39687 L-446488 39646 L-445998 39606 L-445790 39565 L-445225 39524 L-445110 39565 L-444759 39524 L-444708 39524 L-444667 39524 L-444064 39442 L-443330 39360 L-442749 39279 L-442514 39197 L-441973 39074 L-441821 38993 L-441319 38952 L-441110 38870 L-441086 38870 L-441028 38829 L-440065 38829 L-439887 38788 L-439446 38747 L-439421 38666 L-439266 38625 L-439184 38625 L-439034 38666 L-438387 38666 L-438338 38625 L-437218 38584 L-436234 38543 L-436172 38502 L-435451 38461 L-434587 38420 L-434208 38380 L-433989 38380 L-433229 38339 L-433177 38298 L-432868 38216 L-432017 38216 L-431824 38175 L-431647 38134 L-431423 38134 L-431296 38093 L-431104 38093 L-430871 38053 L-430702 38093 L-430415 38053 L-430136 38053 L-430053 38012 L-429882 37971 L-429866 37889 L-429712 37848 L-429673 37807 L-428897 37767 L-428821 37767 L-428588 37685 L-428161 37644 L-427816 37603 L-427233 37562 L-426964 37562 L-426705 37562 L-426576 37480 L-426559 37440 L-426446 37399 L-426422 37358 L-426188 37317 L-426152 37276 L-424836 37276 L-424780 37235 L-424101 37154 L-423529 37154 L-423403 37154 L-423250 37154 L-423173 37154 L-422861 37072 L-422588 37031 L-422499 36949 L-422397 36949 L-421469 36908 L-421393 36908 L-421029 36908 L-421004 36868 L-420968 36827 L-420193 36745 L-420101 36704 L-419961 36663 L-419559 36622 L-419297 36622 L-419054 36663 L-418840 36622 L-418759 36622 L-418683 36622 L-418606 36622 L-418420 36663 L-418353 36663 L-418103 36663 L-418048 36622 L-417911 36581 L-417831 36500 L-417718 36459 L-417495 36418 L-417330 36377 L-417289 36336 L-417120 36295 L-416749 36255 L-416734 36214 L-416618 36173 L-415897 36132 L-415861 36091 L-415728 36091 L-415381 36050 L-414969 36050 L-414933 36050 L-414855 36009 L-414816 35968 L-414452 35928 L-414248 35887 L-414233 35846 L-413887 35805 L-413539 35805 L-413213 35805 L-413111 35764 L-412958 35764 L-412764 35723 L-412532 35723 L-412440 35723 L-412284 35723 L-412207 35723 L-412166 35682 L-412053 35642 L-412029 35601 L-411779 35601 L-411640 35519 L-411062 35396 L-410234 35315 L-409746 35233 L-409625 35192 L-409586 35151 L-409574 35110 L-409421 35029 L-409321 34947 L-409087 34906 L-408697 34824 L-408393 34783 L-408377 34742 L-408206 34702 L-407968 34620 L-407372 34620 L-406768 34579 L-406728 34579 L-406688 34579 L-406535 34538 L-406481 34497 L-406419 34456 L-406351 34416 L-406296 34334 L-406271 34293 L-406224 34252 L-406130 34170 L-405992 34129 L-405839 34089 L-405707 34048 L-405666 34048 L-405630 34007 L-405568 33966 L-405295 33884 L-404981 33843 L-404940 33762 L-404855 33721 L-404677 33680 L-404440 33639 L-404082 33598 L-404053 33557 L-403483 33516 L-403360 33476 L-403124 33435 L-403102 33435 L-402820 33394 L-402535 33394 L-402279 33394 L-401708 33353 L-401411 33312 L-401335 33271 L-400636 33230 L-400558 33190 L-400523 33149 L-400497 33108 L-400445 33026 L-400251 32985 L-400111 32903 L-400075 32863 L-400035 32822 L-399440 32781 L-399207 32740 L-398924 33026 L-398869 33271 L-398795 33557 L-398717 33803 L-398481 33721 L-398237 33680 L-398102 33639 L-397995 33598 L-397916 33557 L-397528 33476 L-397401 33435 L-397249 33394 L-397211 33353 L-397065 33312 L-396844 33271 L-396670 33230 L-396601 33190 L-395779 33108 L-395763 33108 L-395469 33067 L-394681 33026 L-394371 33026 L-394225 32985 L-393997 32944 L-393796 32863 L-392859 32822 L-392822 32781 L-392800 32740 L-392759 32658 L-392490 32617 L-391894 32577 L-391830 32536 L-391795 32495 L-391778 32454 L-391082 32454 L-390881 32454 L-390849 32454 L-390516 32454 L-390408 32413 L-389783 32331 L-389279 32290 L-389242 32209 L-388800 32209 L-388704 32168 L-388545 32168 L-388231 32168 L-388219 32168 L-387779 32209 L-387297 32250 L-387168 32250 L-386848 32250 L-386780 32209 L-386475 32209 L-386300 32168 L-386106 32127 L-385863 32045 L-385666 31964 L-385640 31882 L-385062 31841 L-384992 31800 L-384582 31759 L-384528 31718 L-384482 31677 L-384118 31637 L-383971 31596 L-383766 31555 L-383670 31555 L-383515 31514 L-383453 31473 L-383306 31391 L-383205 31351 L-382648 31351 L-382626 31432 L-382454 31473 L-381912 31514 L-381851 31514 L-381797 31432 L-381769 31351 L-381697 31310 L-381681 31228 L-381617 31187 L-381581 31105 L-381426 31064 L-381101 31024 L-380535 30983 L-380520 30942 L-380458 30860 L-380357 30778 L-380310 30778 L-380068 30738 L-379645 30738 L-379491 30738 L-377749 30656 L-377207 30615 L-376264 30574 L-375855 30533 L-375314 30451 L-375117 30411 L-374949 30370 L-374653 30329 L-374538 30288 L-374523 30288 L-374368 30247 L-374228 30206 L-374152 30125 L-374020 30125 L-373672 30125 L-373301 30165 L-372703 30165 L-372528 30165 L-372371 30125 L-372102 30084 L-371951 30084 L-371660 30206 L-371636 30288 L-371553 30370 L-371326 30451 L-370626 30411 L-370499 30370 L-370068 30329 L-369974 30288 L-368769 30288 L-368720 30247 L-368427 30247 L-368023 30206 L-367747 30125 L-367728 30084 L-367610 30043 L-367534 30002 L-367352 29961 L-366872 29920 L-366421 29838 L-366011 29798 L-365981 29757 L-365562 29716 L-365448 29716 L-365330 29716 L-365315 29716 L-365120 29675 L-365099 29593 L-364867 29552 L-364423 29512 L-364104 29430 L-363639 29430 L-363474 29389 L-363319 29348 L-363163 29348 L-362710 29348 L-362391 29348 L-362336 29389 L-361965 29389 L-361927 29430 L-361601 29430 L-361484 29389 L-361385 29348 L-361059 29266 L-360672 29225 L-360411 29185 L-360053 29103 L-359796 29062 L-357626 29021 L-357577 28980 L-357554 28939 L-357143 28939 L-357081 28939 L-357011 28980 L-356780 28980 L-356470 28939 L-356166 28858 L-356122 28817 L-355814 28776 L-355681 28735 L-355464 28694 L-354752 28653 L-354597 28653 L-354459 28612 L-354310 28612 L-354289 28612 L-354095 28572 L-354069 28531 L-353978 28490 L-353956 28449 L-353940 28408 L-353840 28367 L-352911 28326 L-352453 28326 L-351361 28245 L-350939 28245 L-350535 28204 L-350496 28163 L-350243 28122 L-349468 28040 L-349452 28000 L-349428 27959 L-349234 27918 L-348498 27877 L-348229 27836 L-348188 27795 L-347789 27713 L-347765 27673 L-346975 27632 L-346295 27591 L-344924 27550 L-344654 27509 L-344606 27468 L-344068 27387 L-344035 27346 L-343933 27264 L-343610 27223 L-343530 27182 L-343261 27182 L-342349 27141 L-342210 27141 L-341961 27060 L-341416 27060 L-340994 27019 L-340800 26978 L-340785 26978 L-340647 26896 L-340553 26855 L-340426 26814 L-340166 26774 L-340141 26692 L-340050 26651 L-339740 26610 L-339679 26569 L-339562 26569 L-339213 26569 L-338402 26569 L-338171 26487 L-337342 26487 L-337110 26406 L-336893 26365 L-336375 26365 L-335737 26324 L-335320 26283 L-334998 26242 L-334517 26201 L-334092 26201 L-334030 26161 L-333682 26161 L-333641 26120 L-333627 26079 L-333528 25997 L-333483 25997 L-332997 25956 L-332196 25956 L-331861 25956 L-330780 25915 L-330300 25874 L-330277 25834 L-330137 25793 L-329582 25752 L-328885 25711 L-328576 25670 L-328354 25629 L-328249 25588 L-328147 25507 L-327476 25466 L-327382 25425 L-327360 25425 L-327282 25384 L-327104 25384 L-326932 25384 L-326751 25343 L-326738 25302 L-326662 25261 L-326498 25221 L-325983 25180 L-325967 25139 L-325826 25139 L-325464 25098 L-325440 25098 L-325309 25057 L-325284 25016 L-324922 24975 L-324397 24894 L-324303 24853 L-324087 24771 L-323994 24730 L-323969 24689 L-323505 24648 L-323428 24648 L-323026 24608 L-322575 24608 L-321324 24567 L-321285 24526 L-320853 24485 L-320821 24444 L-320102 24403 L-319925 24362 L-319790 24322 L-319483 24281 L-319428 24240 L-319403 24158 L-319387 24076 L-319212 24035 L-319023 23995 L-318515 23995 L-318141 23668 L-317803 23300 L-317764 22973 L-317046 22687 L-316952 22646 L-316913 22605 L-316372 22605 L-316349 22564 L-315946 22523 L-315520 22483 L-315249 22483 L-315070 22442 L-314824 22360 L-314800 22319 L-314744 22237 L-314127 22196 L-313624 22156 L-313237 22156 L-312618 22196 L-312402 22196 L-312247 22237 L-310955 22156 L-310856 22115 L-310413 22033 L-310082 21992 L-309781 21910 L-309539 21870 L-308804 21788 L-308225 21747 L-307395 21706 L-307295 21665 L-306737 21624 L-306599 21583 L-304958 21543 L-304897 21543 L-304803 21543 L-303836 21543 L-303659 21502 L-303372 21502 L-303154 21502 L-303076 21461 L-302804 21461 L-302689 21420 L-302536 21379 L-302225 21338 L-302147 21297 L-302056 21297 L-301979 21257 L-301863 21257 L-301684 21216 L-301591 21175 L-301553 21134 L-301050 21134 L-300832 21093 L-300702 21093 L-300547 21052 L-300492 21011 L-300368 21011 L-299983 20970 L-299475 20930 L-299402 20889 L-298922 20848 L-298845 20807 L-298745 20807 L-298511 20766 L-298046 20766 L-297816 20766 L-297800 20766 L-297568 20766 L-297413 20766 L-297352 20766 L-297159 20725 L-296888 20644 L-296136 20603 L-295183 20603 L-295147 20562 L-294922 20562 L-294482 20562 L-294202 20480 L-293853 20439 L-292784 20398 L-291856 20398 L-291726 20398 L-291679 20398 L-291610 20357 L-291455 20357 L-291377 20276 L-291204 20194 L-290769 20112 L-290565 20071 L-290505 19990 L-289922 19949 L-289768 19867 L-289653 19826 L-289612 19785 L-289442 19744 L-289306 19704 L-289095 19622 L-289017 19581 L-288994 19540 L-288785 19458 L-288375 19418 L-288351 19377 L-288128 19336 L-287982 19295 L-287947 19254 L-287934 19213 L-287912 19172 L-287678 19131 L-287493 19091 L-287275 19050 L-287250 19009 L-286561 18968 L-286457 18927 L-286422 18886 L-286401 18845 L-286207 18805 L-286154 18764 L-286037 18682 L-285956 18682 L-285845 18641 L-285530 18600 L-285071 18559 L-284816 18519 L-284581 18437 L-284451 18396 L-284099 18355 L-284040 18314 L-283887 18273 L-283315 18192 L-283228 18151 L-283075 18069 L-282779 17987 L-282409 17906 L-282106 17824 L-282030 17783 L-281625 17742 L-281457 17742 L-281313 17742 L-280773 17742 L-280712 17742 L-280696 17660 L-280530 17619 L-280324 17579 L-280249 17579 L-280156 17538 L-279747 17497 L-279731 17456 L-279708 17456 L-279515 17415 L-279438 17783 L-279267 18151 L-279205 18478 L-279189 18845 L-278675 18805 L-278454 18764 L-277835 18682 L-277581 18641 L-277387 18600 L-277348 18559 L-277274 18559 L-277209 18559 L-276559 18559 L-276520 18600 L-276346 18600 L-276280 18600 L-275606 18600 L-275217 18519 L-274955 18478 L-274718 18437 L-274640 18355 L-274624 18273 L-274422 18232 L-274051 18151 L-273826 18110 L-273190 18069 L-273170 18069 L-272783 18028 L-272689 18028 L-272631 17987 L-272355 17946 L-272046 17946 L-271969 17906 L-271117 17946 L-270775 18151 L-270338 18396 L-269904 18600 L-269409 18805 L-269259 18764 L-268991 18805 L-267753 18845 L-267696 18927 L-265932 18968 L-265742 18927 L-264732 18886 L-264581 18845 L-264205 18927 L-263885 19009 L-263279 19091 L-263210 19172 L-263032 19131 L-262204 19091 L-262065 19050 L-261678 19009 L-261494 18968 L-261450 18927 L-261331 18886 L-261121 18845 L-260673 18764 L-260325 18723 L-260193 18682 L-259784 18641 L-259433 18641 L-259148 18600 L-258955 18559 L-258800 18559 L-258636 18519 L-258568 18478 L-258468 18478 L-258235 18437 L-258118 18437 L-258065 18396 L-257523 18396 L-257059 18355 L-255877 18355 L-255744 18355 L-255719 18355 L-255666 18355 L-254999 18355 L-253964 18273 L-253770 18232 L-253590 18192 L-253439 18192 L-253398 18151 L-253383 18151 L-253322 18110 L-252997 18069 L-251836 18028 L-251642 17987 L-251465 17946 L-250351 17906 L-249491 17865 L-249385 17865 L-248912 17824 L-248719 17824 L-246397 17783 L-246320 17742 L-246198 17660 L-246164 17619 L-246127 17538 L-246032 17415 L-245817 17333 L-245235 17252 L-244849 17211 L-244076 17170 L-243998 17129 L-243301 17129 L-242759 17129 L-242718 17088 L-242588 17088 L-242124 17047 L-242086 17006 L-241951 16966 L-241583 16925 L-241553 16884 L-241403 16884 L-241002 16843 L-239178 16884 L-238372 16843 L-237653 16843 L-237636 16843 L-237323 16761 L-236761 16720 L-236260 16680 L-235741 16639 L-235719 16598 L-233975 16557 L-233806 16516 L-233611 16475 L-232717 16434 L-232198 16353 L-231988 16312 L-231730 16271 L-231020 16230 L-230070 16189 L-229412 16148 L-229373 16067 L-229086 16026 L-229004 15985 L-228908 15985 L-228776 15944 L-228699 15944 L-227964 15944 L-227627 15903 L-227577 15944 L-227322 15944 L-227035 15903 L-226610 15903 L-226029 15862 L-225770 15862 L-225619 15821 L-225372 15821 L-225333 15821 L-224536 15780 L-224498 15740 L-224321 15740 L-223912 15658 L-223683 15658 L-223607 15658 L-223476 15658 L-223360 15617 L-223011 15576 L-222948 15535 L-222796 15494 L-222055 15454 L-221944 15413 L-221773 15372 L-221734 15331 L-221440 15331 L-221038 15331 L-220862 15331 L-220767 15331 L-220458 15290 L-219657 15249 L-219198 15167 L-218678 15127 L-218189 15086 L-217494 15045 L-216448 15004 L-216179 15004 L-216124 14963 L-215964 14963 L-215713 14963 L-215467 14922 L-215388 14881 L-215173 14800 L-214861 14759 L-214398 14677 L-214383 14636 L-214087 14636 L-214074 14595 L-213083 14554 L-212410 14514 L-212075 14432 L-211459 14432 L-211322 14391 L-210683 14350 L-210553 14309 L-209602 14228 L-209503 14146 L-208943 14105 L-208535 14105 L-208106 14105 L-208015 14064 L-207180 14064 L-206817 14064 L-206778 14105 L-206645 14146 L-206468 14146 L-206252 14146 L-206198 14105 L-206041 14023 L-205788 13982 L-204688 13941 L-204611 13901 L-204391 13860 L-204260 13778 L-204224 13737 L-204031 13696 L-203931 13655 L-203447 13615 L-203163 13574 L-203003 13533 L-202908 13451 L-202637 13410 L-202367 13369 L-202351 13206 L-202212 13083 L-202074 12961 L-201747 12797 L-201438 12715 L-201397 12675 L-201322 12593 L-201206 12552 L-200356 12470 L-200029 12429 L-199698 12389 L-199565 12389 L-199349 12389 L-199333 12389 L-198652 12389 L-198559 12307 L-198536 12266 L-198520 12184 L-198481 12143 L-198070 12062 L-197800 12021 L-197760 11980 L-197392 11980 L-197182 11939 L-196099 11939 L-196083 11898 L-196054 11857 L-196034 11857 L-195657 11776 L-195402 11735 L-195154 11653 L-195015 11571 L-194883 11530 L-194551 11489 L-194458 11449 L-194397 11408 L-193839 11367 L-193778 11326 L-193622 11285 L-193428 11244 L-193235 11203 L-193220 11163 L-193181 11122 L-193142 11081 L-192872 11040 L-192748 10999 L-192716 10958 L-192617 10958 L-192461 10958 L-192320 10958 L-192036 10917 L-191710 10917 L-191014 10876 L-190992 10876 L-190482 10876 L-189636 10876 L-189273 10836 L-189118 10795 L-188515 10795 L-188345 10795 L-188284 10795 L-188229 10754 L-187173 10713 L-187155 10713 L-186249 10713 L-186227 10713 L-186061 10672 L-185818 10672 L-185768 10631 L-185713 10550 L-185576 10509 L-185536 10468 L-184608 10427 L-184553 10427 L-184431 10427 L-184359 10427 L-184244 10427 L-184065 10468 L-183083 10427 L-182943 10427 L-182826 10345 L-182531 10263 L-182284 10223 L-182247 10182 L-182192 10223 L-182171 10223 L-182038 10223 L-181959 10223 L-181821 10182 L-181198 10182 L-181032 10141 L-180567 10141 L-180391 10059 L-180375 10018 L-180314 9977 L-180198 9937 L-179715 9896 L-179020 9855 L-178647 9814 L-178477 9773 L-177511 9732 L-177356 9691 L-177179 9691 L-177086 9651 L-176831 9651 L-176660 9651 L-176013 9610 L-176002 9610 L-175422 9569 L-175284 9569 L-175229 9487 L-174493 9446 L-174455 9405 L-174377 9405 L-173735 9364 L-172961 9364 L-172868 9324 L-172820 9324 L-172804 9283 L-172768 9283 L-172752 9201 L-172689 9160 L-172673 9119 L-172653 9119 L-172498 9078 L-172459 9038 L-172443 8997 L-172404 8956 L-172264 8915 L-172188 8874 L-171824 8833 L-171476 8792 L-170702 8751 L-170100 8711 L-169903 8670 L-169673 8670 L-169536 8629 L-168898 8629 L-168608 8588 L-168587 8588 L-168126 8547 L-167893 8547 L-167839 8506 L-167800 8465 L-167297 8425 L-166747 8384 L-165959 8343 L-164836 8343 L-163942 8302 L-163854 8302 L-163554 8261 L-163483 8220 L-163367 8179 L-162190 8138 L-161842 8098 L-161819 8057 L-161300 8016 L-161153 7975 L-161045 7934 L-160836 7893 L-160681 7852 L-160659 7812 L-160465 7771 L-160388 7730 L-160244 7689 L-159443 7648 L-159297 7607 L-159017 7566 L-158840 7525 L-158530 7485 L-157719 7444 L-156790 7444 L-155198 7403 L-154955 7362 L-154314 7321 L-154118 7280 L-154041 7239 L-153523 7199 L-153291 7199 L-153268 7158 L-153136 7158 L-152797 7117 L-152786 7076 L-152570 7035 L-152533 6994 L-151991 6953 L-151462 6872 L-151395 6831 L-151102 6790 L-150554 6708 L-150519 6667 L-150466 6626 L-150367 6545 L-150134 6545 L-149554 6545 L-149456 6586 L-149382 6586 L-149050 6545 L-148300 6504 L-148261 6463 L-147581 6463 L-147427 6463 L-147100 6422 L-146885 6381 L-146653 6381 L-146357 6340 L-146110 6299 L-145759 6259 L-145706 6218 L-144947 6177 L-144253 6095 L-143903 6013 L-143439 5973 L-142806 5932 L-142397 5891 L-142319 5932 L-141893 5932 L-141251 5891 L-141081 5891 L-140339 5850 L-140152 5809 L-139857 5768 L-139285 5727 L-139260 5686 L-138240 5686 L-137753 5646 L-137660 5646 L-137599 5605 L-137311 5564 L-137025 5523 L-136963 5482 L-136784 5482 L-136072 5441 L-135897 5400 L-135698 5360 L-135547 5319 L-135455 5278 L-135393 5237 L-134851 5237 L-134541 5196 L-134449 5114 L-134372 5033 L-133804 4992 L-133713 4992 L-133459 4910 L-133132 4828 L-133095 4706 L-132940 4583 L-132708 4542 L-132386 4501 L-131253 4460 L-131054 4420 L-130528 4379 L-130284 4379 L-130038 4338 L-129958 4297 L-129938 4215 L-129861 4174 L-129806 4093 L-129729 4052 L-129690 4011 L-129511 3929 L-129474 3888 L-129242 3847 L-128005 3807 L-127678 3766 L-127638 3684 L-126857 3643 L-126710 3602 L-125718 3561 L-125511 3561 L-125086 3561 L-124958 3561 L-124554 3602 L-124466 3561 L-123809 3521 L-123102 3480 L-122493 3439 L-122300 3398 L-122067 3316 L-121449 3275 L-121153 3194 L-120713 3153 L-120559 3112 L-120404 3071 L-119648 2989 L-119298 2948 L-118895 2948 L-118857 2908 L-117851 2908 L-117531 2908 L-117284 2867 L-116584 2785 L-116511 2744 L-116198 2703 L-115118 2662 L-114927 2621 L-114693 2621 L-114498 2581 L-113998 2540 L-113244 2540 L-113130 2540 L-112930 2540 L-112889 2499 L-112796 2458 L-112483 2417 L-112395 2376 L-112279 2335 L-111961 2335 L-111892 2295 L-111867 2254 L-111505 2213 L-111467 2172 L-111250 2131 L-110747 2172 L-110145 2213 L-109933 2295 L-109780 2335 L-109742 2335 L-109698 2254 L-109664 2213 L-109531 2172 L-109122 2131 L-108751 2090 L-108697 2049 L-108681 2008 L-108602 1968 L-108193 1927 L-108039 1886 L-108023 1804 L-107984 1763 L-107805 1682 L-107729 1641 L-107498 1600 L-106708 1559 L-106630 1559 L-105895 1477 L-105740 1436 L-105500 1355 L-105438 1273 L-105353 1232 L-105330 1150 L-105212 1069 L-105198 987 L-105136 905 L-105099 864 L-105005 823 L-104983 823 L-104866 782 L-104634 742 L-104463 660 L-103644 660 L-103242 619 L-103087 619 L-102582 619 L-102468 619 L-101872 619 L-101497 578 L-101446 578 L-101252 537 L-100555 537 L-100517 496 L-100372 496 L-100147 456 L-99885 415 L-99511 374 L-99086 333 L-98956 292 L-98936 210 L-98443 210 L-97747 170 L-97515 210 L-97361 210 L-96393 210 L-96168 251 L-95890 251 L-95874 210 L-95348 170 L-94819 129 L-94671 88 L-94652 47 L-94110 6 L-93800 -34 L-93683 -116 L-93491 -197 L-93355 -279 L-93027 -320 L-92911 -361 L-92601 -361 L-92175 -402 L-92119 -402 L-91887 -361 L-91790 -361 L-91657 -361 L-91361 -361 L-91247 -402 L-90882 -442 L-90570 -442 L-90087 -483 L-89916 -524 L-89668 -565 L-89452 -606 L-88926 -647 L-88740 -729 L-88384 -769 L-87749 -810 L-87595 -892 L-86854 -933 L-86434 -974 L-86254 -1015 L-86178 -1015 L-86047 -1055 L-85753 -1096 L-85712 -1137 L-85482 -1137 L-85290 -1178 L-85035 -1178 L-84608 -1219 L-84499 -1260 L-83881 -1260 L-83699 -1260 L-82487 -1260 L-81840 -1219 L-81690 -1219 L-81652 -1219 L-81520 -1219 L-81419 -1260 L-81403 -1301 L-81321 -1342 L-81110 -1382 L-80993 -1423 L-80631 -1464 L-80259 -1505 L-79562 -1546 L-79160 -1587 L-79055 -1628 L-79037 -1668 L-78092 -1709 L-77897 -1791 L-77745 -1832 L-77690 -1914 L-76933 -1914 L-76916 -1832 L-76427 -1791 L-76297 -1709 L-76104 -1709 L-75214 -1750 L-75174 -1791 L-75136 -1832 L-75059 -1873 L-75020 -1873 L-74943 -1914 L-74859 -1955 L-74595 -1995 L-74363 -2036 L-74301 -2077 L-73820 -2118 L-73484 -2118 L-73372 -2159 L-73179 -2200 L-73002 -2241 L-72943 -2241 L-72907 -2281 L-72637 -2322 L-71939 -2404 L-71886 -2486 L-71592 -2568 L-71190 -2649 L-70626 -2690 L-69753 -2731 L-69448 -2772 L-69410 -2813 L-69287 -2854 L-68689 -2894 L-68559 -2935 L-68359 -2976 L-68322 -3017 L-67708 -3058 L-67529 -3099 L-67514 -3181 L-67296 -3221 L-67218 -3303 L-66911 -3303 L-66779 -3344 L-66547 -3344 L-66213 -3344 L-66121 -3385 L-66021 -3426 L-65983 -3467 L-65440 -3467 L-65247 -3507 L-64706 -3548 L-64280 -3589 L-64148 -3589 L-64087 -3589 L-63855 -3589 L-63839 -3589 L-63351 -3548 L-63270 -3548 L-63253 -3548 L-61860 -3507 L-61724 -3507 L-61610 -3548 L-60976 -3589 L-60836 -3630 L-60718 -3671 L-60565 -3753 L-60528 -3794 L-60449 -3834 L-60395 -3794 L-59403 -3794 L-59367 -3834 L-59234 -3834 L-59173 -3916 L-59074 -3957 L-58784 -3998 L-58770 -4039 L-58460 -4039 L-58360 -3998 L-57895 -4039 L-57842 292 L-57699 4583 L-57571 8915 L-57339 13247 L-56770 13206 L-56681 13165 L-56659 13165 L-56372 13124 L-55689 13083 L-55612 13042 L-55576 13002 L-55559 12961 L-55360 12920 L-54939 12838 L-54668 12838 L-53795 12797 L-53502 12797 L-53392 12797 L-52657 12756 L-52530 12715 L-52171 12675 L-51918 12675 L-51047 12634 L-50878 12634 L-50816 12593 L-50761 12552 L-50413 12511 L-50390 12470 L-50181 12429 L-50041 12389 L-49910 12348 L-49787 12307 L-49664 12266 L-49427 12225 L-49137 12184 L-48478 12143 L-48456 12102 L-48301 12062 L-48183 12021 L-47219 11980 L-47163 11939 L-46931 11898 L-46908 11857 L-46582 11816 L-46467 11816 L-46427 11776 L-45925 11776 L-45626 11735 L-45514 11694 L-44972 11653 L-43913 11612 L-43287 11571 L-43115 11530 L-42868 11489 L-42612 11449 L-42481 11408 L-42459 11367 L-41792 11326 L-40895 11285 L-40849 11244 L-40779 11203 L-40663 11203 L-40443 11163 L-40252 11163 L-40213 11122 L-40020 11081 L-39361 11081 L-38744 11040 L-38705 11285 L-38109 11530 L-38047 11735 L-36925 11939 L-36871 11939 L-36750 11898 L-36484 11857 L-36421 11857 L-36152 11857 L-36075 11816 L-35859 11816 L-35377 11776 L-35107 11735 L-34975 11735 L-34743 11653 L-34718 11530 L-34703 11367 L-34681 11163 L-34665 10958 L-34641 10754 L-34627 10509 L-34604 10263 L-34588 10018 L-34565 9814 L-34550 9610 L-34528 9405 L-34511 9283 L-34483 9160 L-34466 8997 L-34448 8915 L-34411 8792 L-34371 8711 L-34356 8629 L-34331 8506 L-34279 8425 L-34255 8343 L-34178 8261 L-34140 8220 L-34125 8138 L-34062 8057 L-34047 7975 L-34001 7852 L-33930 7771 L-33892 7730 L-33867 7648 L-33815 7566 L-33790 7525 L-33774 7485 L-33713 7444 L-33676 7403 L-33599 7362 L-33583 7321 L-33555 7239 L-33482 7199 L-33443 7158 L-33289 7076 L-33173 7035 L-33119 6994 L-33036 6953 L-33003 6912 L-32979 6872 L-32824 6831 L-32809 6790 L-32708 6749 L-32397 6708 L-32361 6667 L-32146 6626 L-32034 6626 L-32010 6626 L-31780 6667 L-31547 6667 L-31172 6626 L-31045 6586 L-31005 6545 L-30952 6504 L-30851 6463 L-30814 6422 L-30604 6422 L-30539 6381 L-30427 6381 L-30215 6340 L-30178 6299 L-29806 6259 L-29752 6218 L-29674 6177 L-29652 6136 L-29559 6095 L-29359 6054 L-29321 6054 L-29300 6054 L-29070 6054 L-29049 6013 L-28839 6013 L-28745 5973 L-28707 5932 L-28371 5891 L-28258 5850 L-28218 5809 L-28205 5809 L-28065 5768 L-28050 5768 L-27796 5768 L-27213 5727 L-27137 5686 L-27099 5646 L-27054 5605 L-27006 5564 L-26826 5523 L-26811 5482 L-26711 5441 L-26634 5400 L-26573 5360 L-26208 5278 L-26126 5237 L-26108 5196 L-26054 5155 L-25086 5114 L-24954 5073 L-24933 5033 L-24712 4992 L-24644 4951 L-24621 4910 L-24375 4869 L-24119 4828 L-23988 4787 L-23948 4747 L-23927 4665 L-23871 4583 L-23783 4542 L-23722 4460 L-23497 4420 L-23368 4379 L-23268 4338 L-23214 4297 L-23020 4256 L-22942 4215 L-22609 4174 L-22478 4134 L-22301 4093 L-22285 4052 L-22260 4011 L-21990 4011 L-20790 3970 L-20753 3970 L-20637 3929 L-20403 3888 L-20212 3847 L-20173 3847 L-20118 3807 L-20013 3807 L-19499 3766 L-19205 3725 L-18973 3684 L-18698 3643 L-18681 3602 L-18648 3561 L-18608 3521 L-18571 3480 L-18469 3439 L-18392 3398 L-18299 3357 L-18172 3316 L-18068 3275 L-17890 3275 L-17697 3234 L-16868 3234 L-16752 3194 L-16498 3153 L-16457 3112 L-16359 3071 L-16298 3071 L-16056 3030 L-16032 3030 L-15911 2989 L-15840 2948 L-15800 2908 L-15568 2867 L-15392 2826 L-14872 2785 L-14796 2744 L-14779 2703 L-14368 2703 L-14005 2703 L-13889 2662 L-13866 2662 L-13826 2621 L-13750 2581 L-13696 2540 L-13347 2499 L-13231 2458 L-13054 2458 L-12999 2417 L-12975 2417 L-12861 2376 L-12573 2335 L-12341 2295 L-12126 2254 L-11916 2213 L-11706 2131 L-10879 2090 L-10540 2049 L-9532 2008 L-9169 1968 L-8124 1927 L-8046 1886 L-7599 1845 L-7388 1804 L-7196 1763 L-6902 1722 L-6861 1682 L-6707 1641 L-6654 1559 L-6422 1518 L-5842 1477 L-5648 1436 L-5029 1436 L-4540 1395 L-4488 1355 L-3839 1314 L-3689 1273 L-3520 1232 L-3147 1191 L-3131 1191 L-3032 1150 L-2994 1150 L-2863 1109 L-2429 1109 L-2126 1109 L-1741 1109 L-1601 1069 L-1439 1069 L-1005 1069 L-967 1028 L-865 1028 L-750 987 L-572 987 L-402 946 L-284 905 L77 823 L294 782 L427 742 L567 742 L1066 742 L1144 742 L1378 701 L1702 701 L2089 660 L2112 619 L2732 619 L3002 578 L3235 578 L3660 537 L3931 496 L4073 456 L4282 415 L4487 374 L5039 333 L5170 333 L5556 292 L5827 292 L5930 251 L6190 210 L6392 170 L6461 129 L6500 88" />
</svg>
