<svg xmlns="http://www.w3.org/2000/svg" version="1.1" viewBox="0 0 6500 1000">
	<path fill="none" stroke="gold" stroke-width="125" stroke-linecap="round" stroke-linejoin="round" d="M0 1682  L-3247 1682 L-2835 1602 L-2610 1642 L-2553 1602 L-2515 1522 L-2331 1441 L-1841 1361 L-1547 1321 L-1236 1281 L-1001 1201 L-948 1121 L-889 1041 L-735 1001 L-695 961 L-562 921 L-270 961 L270 921 L880 840 L928 921 L1568 840 L1601 881 L2127 800 L2260 760 L2650 600 L2978 520 L3095 440 L3306 520 L4023 480 L4593 440 L4700 400 L4875 320 L5096 239 L5498 199 L5524 119 L6451 39" />
</svg>
