<svg xmlns="http://www.w3.org/2000/svg" version="1.1" viewBox="0 0 6500 1000">
	<path fill="none" stroke="gold" stroke-width="125" stroke-linecap="round" stroke-linejoin="round" d="M0 50536  L-428591 50536 L-428407 50504 L-427917 50440 L-427623 50408 L-427312 50344 L-427077 50312 L-427024 50248 L-426965 50184 L-426812 50152 L-426771 50088 L-426638 50056 L-426346 50024 L-425805 50024 L-425195 49992 L-425147 49992 L-424507 49960 L-424474 49960 L-423948 49960 L-423816 49928 L-423425 49864 L-423097 49800 L-422980 49736 L-422769 49672 L-422052 49672 L-421482 49640 L-421375 49640 L-421200 49608 L-420979 49544 L-420577 49512 L-420552 49448 L-419624 49384 L-419536 49320 L-419454 49256 L-419384 49192 L-419086 49160 L-418934 49096 L-417044 49128 L-416943 49128 L-416681 49128 L-416388 49160 L-416246 49096 L-415997 49096 L-415962 49064 L-415803 49032 L-415340 48968 L-415087 48936 L-414875 48872 L-414623 48840 L-414274 48808 L-413347 48744 L-413253 48680 L-412842 48648 L-411672 48584 L-410483 48552 L-410390 48488 L-410363 48424 L-410097 48360 L-409798 48296 L-409669 48232 L-409632 48168 L-408817 48168 L-408433 48200 L-407373 48232 L-407311 48232 L-407046 48872 L-406575 49480 L-406383 50088 L-406119 50696 L-405782 50664 L-405647 50632 L-405191 50600 L-404448 50568 L-404430 50536 L-404265 50472 L-404197 50472 L-403681 50440 L-402652 50440 L-402456 50408 L-401967 50376 L-401605 50344 L-401197 50344 L-400811 50376 L-399107 50376 L-399009 50376 L-398938 50376 L-398876 50376 L-398692 50344 L-398355 50344 L-397715 50312 L-397638 50280 L-397577 50280 L-397390 50248 L-397311 50248 L-397133 50216 L-397114 50184 L-396884 50184 L-396496 50152 L-395608 50152 L-395568 50120 L-395480 50088 L-395453 50024 L-394445 49992 L-394295 49928 L-394271 49896 L-394138 49864 L-394098 49832 L-392840 49800 L-392782 49800 L-392242 49768 L-392190 49768 L-392143 49768 L-391748 49736 L-391608 49704 L-391409 49672 L-391262 49672 L-391097 49672 L-390821 49704 L-390462 49704 L-389909 49672 L-389264 49640 L-389006 49576 L-388852 49544 L-388451 49512 L-388411 49480 L-388290 49448 L-388228 49480 L-388214 49480 L-388121 49480 L-387828 49448 L-387676 49320 L-387346 49256 L-387268 49192 L-387192 49160 L-386966 49064 L-386899 49000 L-386671 48936 L-386619 48872 L-386454 48840 L-385448 48808 L-385265 48776 L-384714 48744 L-384321 48680 L-383924 48648 L-383073 48584 L-382995 48552 L-382416 48520 L-381975 48520 L-381734 48488 L-381577 48488 L-381176 48424 L-381155 48424 L-380710 48392 L-380305 48360 L-380169 48296 L-379994 48232 L-379858 48168 L-379607 48104 L-378607 48072 L-378525 48040 L-378390 48008 L-378351 47976 L-377461 47944 L-377246 47912 L-376802 47880 L-376685 47849 L-376628 47817 L-375952 47817 L-375852 47785 L-375823 47785 L-374481 47753 L-374075 47721 L-374036 47689 L-373107 47657 L-373009 47625 L-372876 47593 L-372472 47561 L-372446 47529 L-372353 47497 L-372137 47465 L-371726 47401 L-370572 47337 L-370280 47273 L-370252 47209 L-369644 47177 L-369393 47113 L-369374 47081 L-368444 47049 L-368393 46985 L-368271 46953 L-368253 46889 L-368097 46857 L-367922 46793 L-367785 46761 L-367729 46729 L-367621 46697 L-367536 46665 L-367302 46633 L-367228 46601 L-366919 46569 L-366801 46537 L-366631 46505 L-366540 46473 L-366438 46473 L-366414 46441 L-366337 46441 L-366239 46377 L-365873 46345 L-365768 46313 L-365264 46281 L-364813 46249 L-364774 46217 L-364750 46185 L-364710 46153 L-364581 46121 L-364480 46089 L-364038 46057 L-363756 46025 L-363164 45993 L-363033 45961 L-362759 45897 L-362607 45865 L-362453 45833 L-362368 45769 L-362290 45737 L-362104 45705 L-362054 45705 L-362026 45673 L-361947 45641 L-361923 45609 L-361640 45545 L-361036 45481 L-360041 45449 L-359743 45417 L-359009 45385 L-358765 45353 L-358675 45321 L-358097 45289 L-357399 45257 L-356647 45225 L-356328 45193 L-355945 45129 L-355868 45097 L-355234 45065 L-355048 45033 L-354961 45033 L-354831 45033 L-354518 45001 L-354469 44969 L-354327 44937 L-354305 44905 L-353338 44873 L-352792 44841 L-352314 44841 L-352253 44841 L-351929 44841 L-351908 44809 L-351845 44809 L-351635 44777 L-351558 44746 L-351504 44714 L-351481 44682 L-351442 44650 L-351426 44618 L-350669 44586 L-350652 44554 L-349853 44522 L-349701 44490 L-348795 44458 L-348289 44426 L-348060 44362 L-348018 44362 L-347903 44330 L-347727 44298 L-346972 44330 L-346838 44298 L-346674 44266 L-346355 44234 L-346179 44170 L-345157 44106 L-345134 44042 L-344883 44010 L-344670 43946 L-344036 43914 L-343798 43850 L-343765 43786 L-343587 43722 L-343507 43658 L-343417 43626 L-343353 43562 L-342912 43498 L-342889 43466 L-342348 43434 L-342092 43402 L-341598 43370 L-340720 43338 L-340683 43306 L-340631 43274 L-340590 43242 L-340472 43210 L-340196 43178 L-339989 43114 L-339792 43050 L-339769 42986 L-339718 42922 L-339679 42890 L-339601 42858 L-339004 42794 L-338943 42762 L-338840 42730 L-338686 42698 L-338054 42666 L-337373 42634 L-337070 42570 L-336724 42538 L-336526 42506 L-336478 42442 L-336157 42410 L-335530 42378 L-335383 42346 L-335347 42314 L-335289 42282 L-335212 42218 L-334971 42218 L-334883 42186 L-334789 42154 L-334495 42122 L-334361 42090 L-334300 42058 L-334264 41994 L-333991 41994 L-332985 41962 L-332810 41930 L-332759 41930 L-332466 41898 L-332274 41834 L-331941 41802 L-331434 41770 L-330872 41706 L-330857 41642 L-330841 41611 L-330740 41547 L-330626 41483 L-330587 41419 L-330549 41387 L-330483 41387 L-330455 41355 L-330316 41387 L-330023 41387 L-329973 41387 L-329868 41387 L-329604 41355 L-329139 41323 L-328994 41323 L-328940 41259 L-328883 41227 L-328692 41195 L-328326 41163 L-328112 41163 L-327917 41163 L-327859 41163 L-327800 41099 L-327646 41067 L-327377 41035 L-326947 41195 L-326932 41195 L-326855 41163 L-326790 41131 L-326661 40907 L-326637 40875 L-326353 40843 L-326305 40811 L-326251 40779 L-325788 40747 L-325750 40747 L-325709 40715 L-325519 40683 L-325038 40651 L-324551 40619 L-324535 40587 L-324497 40555 L-324240 40523 L-324163 40459 L-323933 40427 L-323917 40363 L-323623 40299 L-323180 40267 L-322733 40235 L-322229 40203 L-322075 40171 L-321788 40139 L-321748 40075 L-321417 40043 L-321195 40011 L-320678 39947 L-320602 39915 L-320355 39851 L-320160 39787 L-320100 39755 L-319324 39723 L-319250 39723 L-319019 39691 L-319003 39691 L-318941 39659 L-318745 39627 L-318281 39627 L-318258 39595 L-318128 39595 L-316827 39595 L-316811 39595 L-316734 39563 L-316640 39563 L-316423 39563 L-316270 39531 L-316092 39563 L-316038 39595 L-315751 39627 L-315711 39627 L-315342 39627 L-314902 39627 L-314719 39627 L-314398 39595 L-314102 39595 L-313656 39531 L-313585 39499 L-313122 39435 L-312685 39403 L-312502 39371 L-311048 39307 L-310916 39275 L-310459 39211 L-310233 39179 L-309847 39115 L-309330 39051 L-308376 38987 L-307582 38923 L-306907 38891 L-306482 38827 L-306171 38795 L-305941 38699 L-305258 38603 L-305244 38507 L-305035 38380 L-305013 38348 L-304838 38284 L-303888 38252 L-303620 38188 L-302805 38156 L-302494 38092 L-302457 38060 L-302399 37996 L-301783 37964 L-301145 37900 L-299519 37868 L-298845 37836 L-298203 37836 L-298125 37836 L-298069 37836 L-298033 37836 L-298005 37804 L-297893 37740 L-297875 37708 L-297852 37676 L-297699 37644 L-297645 37580 L-297567 37548 L-297448 37516 L-297350 37484 L-297233 37452 L-296964 37388 L-296694 37356 L-296676 37292 L-296477 37260 L-296330 37196 L-296103 37164 L-295969 37132 L-295660 37100 L-295600 37068 L-295247 37004 L-294898 36972 L-294797 36940 L-294733 36876 L-294673 36844 L-294289 36780 L-293908 36748 L-293804 36716 L-293543 36684 L-293272 36620 L-293113 36588 L-293081 36556 L-293019 36524 L-292877 36492 L-292693 36460 L-292649 36428 L-292361 36428 L-292345 36396 L-292111 36396 L-292051 36364 L-292012 36364 L-291432 36332 L-291299 36300 L-291275 36172 L-291257 35948 L-291240 35692 L-291223 35436 L-291199 35181 L-291183 34989 L-291162 34765 L-291145 34541 L-291122 34413 L-291105 34285 L-291084 34189 L-291067 34125 L-291018 34029 L-290946 33933 L-290911 33773 L-290887 33645 L-290852 33517 L-290810 33389 L-290773 33325 L-290757 33197 L-290733 33101 L-290696 33037 L-290679 32941 L-290656 32877 L-290638 32813 L-290620 32749 L-290604 32685 L-290575 32589 L-290549 32493 L-290503 32461 L-290487 32397 L-290445 32365 L-290397 32301 L-290326 32238 L-290311 32174 L-290295 32110 L-290233 32078 L-290193 32046 L-290154 32014 L-289988 31982 L-289923 31950 L-289907 31918 L-289863 31854 L-289804 31822 L-289592 31790 L-289558 31758 L-289516 31726 L-289438 31694 L-288901 31662 L-288822 31630 L-288718 31566 L-288630 31534 L-288453 31502 L-288103 31470 L-287947 31438 L-287509 31406 L-287352 31374 L-287223 31342 L-286519 31278 L-286318 31246 L-285357 31182 L-284875 31150 L-284775 31150 L-284683 31118 L-284438 31086 L-284365 31054 L-283922 30990 L-283826 30958 L-283811 30926 L-283795 30894 L-283770 30862 L-283304 30830 L-283087 30798 L-282948 30766 L-282654 30734 L-282565 30702 L-282524 30670 L-282494 30638 L-282322 30606 L-282263 30574 L-282187 30542 L-282106 30510 L-282036 30510 L-281727 30478 L-281642 30446 L-281428 30414 L-281393 30382 L-280709 30350 L-280611 30318 L-280406 30286 L-280359 30254 L-280081 30222 L-280019 30190 L-280001 30126 L-279923 30094 L-279615 30030 L-279591 29998 L-279537 29934 L-279514 29902 L-279392 29870 L-279256 29806 L-279012 29774 L-278886 29774 L-278239 29742 L-278223 29742 L-278199 29742 L-278018 29678 L-277942 29646 L-277851 29614 L-277423 29582 L-277007 29550 L-276614 29486 L-276535 29454 L-276516 29422 L-276153 29390 L-275917 29358 L-275688 29326 L-275375 29294 L-275297 29262 L-275217 29198 L-275038 29134 L-275023 29103 L-274757 29039 L-274677 29007 L-274447 28975 L-274221 28943 L-273905 28943 L-273730 28911 L-273369 28911 L-272977 28879 L-272908 28815 L-272844 28783 L-272704 28719 L-272652 28687 L-272551 28623 L-272049 28591 L-271851 28559 L-271605 28527 L-271419 28495 L-271120 28463 L-271043 28431 L-270877 28367 L-269993 28335 L-269964 28271 L-269841 28207 L-269263 28175 L-269185 28143 L-268471 28143 L-268160 28143 L-267946 28143 L-267930 28143 L-267543 28143 L-267018 28079 L-266572 28047 L-266242 28015 L-266090 27983 L-265764 27983 L-265585 27951 L-265504 27951 L-265298 27887 L-265122 27855 L-264193 27823 L-263304 27791 L-263265 27759 L-263037 27759 L-262658 27727 L-261870 27695 L-261636 27663 L-261560 27631 L-261202 27599 L-260631 27535 L-260364 27503 L-259977 27471 L-259873 27471 L-259703 27471 L-259085 27471 L-258874 27471 L-258566 27471 L-258513 27439 L-258385 27407 L-258332 27375 L-258213 27343 L-257877 27279 L-256917 27247 L-256786 27183 L-256584 27151 L-255953 27119 L-255642 27087 L-255228 27055 L-255200 27023 L-255055 26991 L-254635 26959 L-253302 26959 L-253256 26927 L-253127 26863 L-253110 26831 L-252532 26767 L-252327 26735 L-252297 26703 L-252256 26671 L-252199 26639 L-252161 26607 L-252083 26575 L-251940 26543 L-251486 26511 L-251367 26479 L-251082 26447 L-250709 26415 L-250613 26383 L-250286 26351 L-249932 26319 L-249762 26287 L-249715 26255 L-249606 26223 L-249517 26191 L-249489 26159 L-249412 26095 L-249109 26063 L-249075 26000 L-249004 25968 L-248636 25936 L-248300 25904 L-248219 25904 L-248000 25872 L-247828 25840 L-247801 25808 L-247303 25776 L-246754 25712 L-245874 25680 L-245775 25616 L-245698 25584 L-245424 25552 L-245176 25488 L-245103 25456 L-245041 25392 L-244922 25360 L-244880 25328 L-244770 25296 L-244693 25232 L-243992 25200 L-243747 25168 L-243707 25136 L-243551 25104 L-242951 25104 L-242724 25104 L-242632 25104 L-242157 25104 L-241560 25040 L-241040 25008 L-241019 24976 L-240874 24944 L-240554 24944 L-240012 24944 L-239780 24944 L-239609 24944 L-239123 24912 L-238895 24880 L-238810 24848 L-238464 24816 L-238138 24816 L-237615 24784 L-237288 24752 L-236687 24720 L-236490 24656 L-236438 24624 L-236397 24592 L-236116 24560 L-235432 24496 L-235121 24464 L-235097 24400 L-234905 24368 L-234683 24336 L-234597 24304 L-233933 24240 L-233909 24208 L-233687 24144 L-233357 24112 L-233005 24048 L-232800 24016 L-232567 23952 L-232310 23920 L-232120 23856 L-232073 23824 L-231846 23792 L-231811 23760 L-231655 23728 L-231440 23696 L-231267 23664 L-231176 23632 L-230899 23600 L-230655 23568 L-230339 23536 L-229913 23536 L-229876 23536 L-229392 23536 L-229159 23536 L-228947 23504 L-228721 23472 L-228171 23472 L-227924 23440 L-227090 23440 L-227034 23408 L-227013 23376 L-226855 23344 L-226393 23312 L-226352 23280 L-226012 23216 L-225879 23184 L-225656 23152 L-225084 23120 L-224612 23088 L-224418 23056 L-224225 23024 L-224035 22992 L-223934 22960 L-223565 22928 L-223519 22896 L-223438 22865 L-222144 22833 L-222096 22801 L-221828 22801 L-221682 22801 L-221132 22801 L-221015 22769 L-220933 22737 L-220574 22705 L-220350 22673 L-220069 22641 L-219740 22577 L-219232 22545 L-219119 22513 L-219041 22481 L-218876 22449 L-218582 22449 L-218113 22449 L-217917 22481 L-217866 22481 L-217216 22449 L-217094 22417 L-216640 22417 L-216604 22385 L-216136 22353 L-216025 22321 L-216009 22289 L-215793 22289 L-215612 22257 L-215081 22257 L-214051 22257 L-213851 22225 L-213393 22193 L-212445 22129 L-212346 22097 L-211992 22033 L-211932 22001 L-211917 21969 L-211882 21937 L-211512 21905 L-211392 21873 L-211150 21841 L-210987 21809 L-210799 21777 L-210679 21745 L-209608 21681 L-208750 21649 L-208537 21585 L-208440 21553 L-208266 21489 L-207933 21457 L-207861 21425 L-207804 21393 L-207628 21393 L-207239 21361 L-207004 21329 L-206893 21297 L-206776 21265 L-205795 21233 L-205769 21201 L-205175 21137 L-205142 21137 L-204994 21105 L-204709 21073 L-203798 21073 L-202851 21073 L-202698 21041 L-202596 21041 L-202464 21009 L-202321 20977 L-202295 20945 L-202181 20913 L-201962 20881 L-201281 20849 L-201152 20817 L-200848 20785 L-200608 20721 L-200276 20689 L-199637 20657 L-199295 20593 L-199233 20561 L-199077 20561 L-198156 20561 L-197685 20561 L-197642 20561 L-197629 20529 L-197587 20497 L-197565 20465 L-197539 20433 L-197395 20401 L-196972 20369 L-196637 20369 L-196446 20337 L-196017 20337 L-195829 20305 L-195440 20241 L-194906 20209 L-194533 20177 L-194512 20177 L-194262 20145 L-194144 20113 L-194068 20081 L-193932 20049 L-193893 20017 L-193813 19985 L-193418 19953 L-192922 19921 L-192811 19857 L-192637 19825 L-192329 19793 L-191882 19761 L-191559 19730 L-191416 19666 L-190989 19602 L-190836 19538 L-190781 19474 L-189967 19442 L-189947 19410 L-189575 19378 L-189519 19378 L-188389 19346 L-188322 19346 L-187763 19314 L-187569 19282 L-187432 19250 L-187199 19218 L-186852 19186 L-186817 19122 L-186782 19090 L-186714 19026 L-186365 18994 L-186193 18962 L-185708 18930 L-185691 18898 L-185366 18866 L-185209 18834 L-184068 18770 L-184043 18738 L-183851 18674 L-183658 18642 L-183408 18610 L-183390 18578 L-182370 18546 L-182073 18514 L-181997 18482 L-181861 18418 L-181685 18386 L-181109 18322 L-180893 18290 L-180829 18258 L-180698 18226 L-180662 18162 L-180138 18130 L-180000 30734 L-179986 30734 L-179963 30734 L-179943 30734 L-179716 18098 L-178940 18098 L-178898 18098 L-178531 18098 L-178452 18066 L-178400 18034 L-177727 18002 L-176985 17970 L-176560 17970 L-176112 17938 L-175051 17906 L-174739 17842 L-174329 17842 L-174257 17810 L-173733 17810 L-173638 17810 L-173620 17810 L-173175 17778 L-172990 17714 L-172210 17650 L-171537 17618 L-171125 17522 L-170893 17458 L-170753 17426 L-170671 17362 L-170651 17330 L-170575 17330 L-170447 17298 L-170130 17330 L-169905 17330 L-169580 17298 L-169518 17298 L-169148 17298 L-169115 17298 L-168906 17298 L-168239 17298 L-168162 17298 L-168004 17234 L-167893 17234 L-167566 17202 L-167412 17170 L-167071 17170 L-167014 17106 L-166675 17042 L-166472 17010 L-166419 16946 L-165043 16914 L-164913 16882 L-164479 16850 L-164159 16818 L-163331 16754 L-163208 16722 L-162477 16658 L-162321 16595 L-162280 16563 L-162227 16531 L-162204 16499 L-162089 16467 L-161793 16435 L-161503 16403 L-161449 16371 L-161328 16339 L-161298 16307 L-161198 16275 L-160754 16275 L-160603 16243 L-159767 16243 L-159225 16211 L-158891 16211 L-158875 16179 L-158799 16147 L-158683 16115 L-158489 16083 L-158224 16051 L-157390 16019 L-157293 15987 L-156772 15955 L-156730 15923 L-156631 15891 L-155803 15891 L-155668 15859 L-155329 15859 L-154775 15827 L-154395 15795 L-154232 15763 L-153922 15731 L-153110 15699 L-152804 15667 L-152535 15667 L-152214 15667 L-151893 15699 L-151617 15699 L-150789 15635 L-150693 15603 L-150601 15507 L-150497 15411 L-150110 15315 L-149630 15251 L-149613 15219 L-149495 15187 L-149127 15123 L-149032 15091 L-148198 15027 L-148121 14995 L-147821 14963 L-147731 14931 L-147323 14867 L-147213 14803 L-146514 14771 L-146041 14739 L-145981 14707 L-145762 14643 L-145488 14611 L-145375 14579 L-144348 14547 L-143961 14515 L-143941 14483 L-143608 14451 L-143364 14419 L-142930 14387 L-142820 14355 L-142703 14323 L-142251 14259 L-141661 14227 L-141324 14195 L-139431 14163 L-139318 14099 L-139106 14067 L-137787 14035 L-137681 6838 L-137615 -263 L-137579 -6821 L-137517 -6821 L-137017 312 L-136342 7349 L-136320 13843 L-136050 13779 L-135082 13779 L-134393 13747 L-134231 13715 L-133690 13683 L-133600 13651 L-132581 13619 L-131633 13555 L-131268 13587 L-131165 13619 L-130576 13619 L-130517 13619 L-130417 13587 L-129976 13523 L-129869 13492 L-129427 13460 L-128427 13364 L-128171 13268 L-128068 13172 L-127938 13108 L-127571 13044 L-126990 12980 L-126960 12948 L-126644 12916 L-124661 12884 L-124545 12852 L-124478 12852 L-124119 12820 L-122500 12788 L-122323 12788 L-122178 12788 L-121356 12820 L-121303 12852 L-121249 12852 L-120815 12852 L-119834 12884 L-119760 12884 L-118676 12852 L-118462 12852 L-117746 12788 L-117358 12756 L-117139 12692 L-116820 12628 L-116326 12564 L-116198 12532 L-115969 12468 L-115737 12404 L-115678 12372 L-115388 12340 L-115116 12276 L-114086 12244 L-112421 12212 L-112002 12180 L-111865 12148 L-111708 12148 L-111403 12116 L-111175 12052 L-111017 12020 L-110857 11956 L-110688 11892 L-110641 11860 L-110588 11828 L-110566 11828 L-110180 11796 L-109930 11796 L-109660 11796 L-109499 11796 L-109409 11796 L-107750 11796 L-107585 11828 L-107205 11796 L-106745 11796 L-106136 11732 L-105043 11700 L-104611 11668 L-104580 11636 L-104518 11604 L-104500 11572 L-102796 11540 L-102755 11508 L-102288 11476 L-102101 11444 L-102069 11380 L-101474 11348 L-101424 11316 L-101101 11284 L-101051 11252 L-100840 11220 L-100822 11188 L-100556 11124 L-100503 11092 L-100034 11060 L-99524 10996 L-99445 10996 L-99151 10964 L-99135 10932 L-99096 10900 L-99025 10868 L-98868 10836 L-97921 10836 L-97865 10836 L-97344 10836 L-97152 10804 L-97051 10804 L-96825 10772 L-96315 10772 L-95927 11636 L-95858 11636 L-95509 11604 L-95152 11572 L-94024 10644 L-93972 10580 L-93746 10548 L-93712 10516 L-93587 10452 L-93488 10452 L-93224 10452 L-92483 10484 L-91905 10484 L-91611 10484 L-90906 10484 L-90727 10452 L-90704 10452 L-90068 10420 L-89756 10388 L-89360 10388 L-89330 10357 L-89309 10325 L-89156 10293 L-88470 10293 L-88454 10293 L-88114 10293 L-87842 10261 L-87804 10229 L-87748 10165 L-87726 10133 L-87654 10101 L-87322 10069 L-87216 10037 L-87187 9973 L-86989 9941 L-86836 9909 L-85968 9877 L-85406 9813 L-85390 9813 L-85289 9781 L-85186 9813 L-85040 9813 L-84962 9813 L-84924 9781 L-84868 9749 L-84795 9717 L-84650 9685 L-84168 9685 L-83764 9653 L-82897 9685 L-82877 9685 L-82620 9685 L-82543 9685 L-82514 9653 L-82504 9589 L-82487 9557 L-82194 9525 L-82154 9493 L-82082 9461 L-82008 9429 L-81803 9397 L-81644 9301 L-81342 9205 L-81265 9077 L-81248 8981 L-81031 8917 L-80800 8917 L-80690 8949 L-80320 8981 L-80162 8981 L-79931 8981 L-79762 8981 L-79617 8949 L-79485 8917 L-78209 8853 L-77806 8789 L-77745 8757 L-77628 8693 L-77203 8661 L-77188 8597 L-77126 8565 L-76853 8501 L-76740 8469 L-76458 8405 L-76180 8373 L-75755 8309 L-75733 8277 L-75655 8245 L-75529 8213 L-74943 8181 L-74551 8149 L-74216 8117 L-73627 8085 L-73525 8085 L-73354 8053 L-73218 8053 L-72390 8021 L-71205 7989 L-71169 7957 L-71113 7957 L-70893 7925 L-70688 7925 L-70533 7925 L-70276 7893 L-70200 7861 L-69657 7829 L-69621 7797 L-69372 7765 L-68985 7733 L-68159 7701 L-67801 7669 L-67490 7669 L-67232 7637 L-67009 7605 L-66602 7573 L-66486 7541 L-66303 7509 L-66249 7509 L-66061 7477 L-65890 7445 L-65861 7413 L-65581 7381 L-65271 7349 L-65132 7317 L-64823 7285 L-64629 7285 L-64614 7253 L-63894 7253 L-63760 7190 L-63463 7158 L-63372 7126 L-62772 7126 L-62733 7094 L-62655 7062 L-62035 7030 L-61883 6966 L-61842 6934 L-61532 6902 L-61340 6870 L-61147 6806 L-61091 6742 L-60783 6710 L-60730 6678 L-60676 6710 L-60650 6710 L-60525 6710 L-59715 6678 L-59638 6646 L-59098 6614 L-58829 6582 L-58169 6550 L-57262 6518 L-57021 6486 L-56488 6454 L-56271 6422 L-55163 6454 L-55113 6454 L-54338 6454 L-53790 6422 L-53679 6390 L-53526 6326 L-53471 6294 L-53305 6262 L-52928 6230 L-52481 6198 L-52426 6166 L-52271 6134 L-51592 6102 L-51371 6070 L-50853 6038 L-50005 5974 L-49989 5942 L-48198 5910 L-47643 5878 L-47526 5846 L-46520 5814 L-46484 5782 L-46251 5782 L-46158 5782 L-46118 5782 L-45786 5750 L-45434 5718 L-45169 5654 L-44883 5622 L-44572 5558 L-44318 5494 L-44224 5462 L-43734 5430 L-43527 5398 L-42961 5366 L-42847 5398 L-42495 5366 L-42444 5366 L-42404 5366 L-41801 5302 L-41067 5238 L-40485 5174 L-40250 5110 L-39710 5014 L-39557 4950 L-39055 4918 L-38846 4854 L-38823 4854 L-38764 4822 L-37801 4822 L-37624 4790 L-37182 4758 L-37157 4694 L-37002 4662 L-36921 4662 L-36770 4694 L-36124 4694 L-36074 4662 L-34954 4630 L-33970 4598 L-33908 4566 L-33188 4534 L-32323 4502 L-31944 4470 L-31725 4470 L-30966 4438 L-30914 4406 L-30604 4342 L-29753 4342 L-29560 4310 L-29383 4278 L-29159 4278 L-29032 4246 L-28840 4246 L-28608 4214 L-28438 4246 L-28152 4214 L-27872 4214 L-27789 4182 L-27619 4150 L-27602 4087 L-27448 4055 L-27409 4023 L-26633 3991 L-26557 3991 L-26325 3927 L-25898 3895 L-25552 3863 L-24969 3831 L-24700 3831 L-24441 3831 L-24312 3767 L-24296 3735 L-24182 3703 L-24158 3671 L-23924 3639 L-23888 3607 L-22572 3607 L-22516 3575 L-21837 3511 L-21265 3511 L-21139 3511 L-20986 3511 L-20909 3511 L-20597 3447 L-20324 3415 L-20235 3351 L-20133 3351 L-19205 3319 L-19129 3319 L-18765 3319 L-18741 3287 L-18704 3255 L-17929 3191 L-17837 3159 L-17697 3127 L-17295 3095 L-17034 3095 L-16790 3127 L-16576 3095 L-16495 3095 L-16419 3095 L-16343 3095 L-16156 3127 L-16089 3127 L-15840 3127 L-15785 3095 L-15647 3063 L-15567 2999 L-15454 2967 L-15231 2935 L-15067 2903 L-15026 2871 L-14856 2839 L-14485 2807 L-14471 2775 L-14355 2743 L-13633 2711 L-13597 2679 L-13465 2679 L-13117 2647 L-12705 2647 L-12669 2647 L-12591 2615 L-12552 2583 L-12188 2551 L-11984 2519 L-11969 2487 L-11623 2455 L-11275 2455 L-10949 2455 L-10847 2423 L-10695 2423 L-10500 2391 L-10269 2391 L-10176 2391 L-10021 2391 L-9943 2391 L-9903 2359 L-9789 2327 L-9766 2295 L-9515 2295 L-9376 2231 L-8798 2135 L-7970 2071 L-7482 2007 L-7361 1975 L-7323 1943 L-7310 1911 L-7158 1847 L-7057 1783 L-6824 1751 L-6433 1687 L-6129 1655 L-6113 1623 L-5943 1591 L-5704 1527 L-5108 1527 L-4504 1495 L-4464 1495 L-4424 1495 L-4271 1463 L-4218 1431 L-4155 1399 L-4087 1367 L-4032 1303 L-4007 1271 L-3960 1239 L-3866 1175 L-3729 1143 L-3575 1111 L-3443 1079 L-3402 1079 L-3367 1047 L-3305 1015 L-3032 952 L-2717 920 L-2676 856 L-2591 824 L-2414 792 L-2176 760 L-1819 728 L-1789 696 L-1220 664 L-1097 632 L-861 600 L-838 600 L-557 568 L-271 568 L-16 568 L555 536 L852 504 L928 472 L1627 440 L1705 408 L1740 376 L1766 344 L1818 280 L2011 248 L2152 184 L2187 152 L2228 120 L2823 88 L3055 56 L3339 280 L3393 472 L3467 696 L3545 888 L3782 824 L4026 792 L4161 760 L4268 728 L4347 696 L4734 632 L4861 600 L5014 568 L5052 536 L5197 504 L5419 472 L5593 440 L5662 408 L6483 344 L6500 344" />
</svg>
