<svg xmlns="http://www.w3.org/2000/svg" version="1.1" viewBox="0 0 6500 1000">
	<path fill="none" stroke="gold" stroke-width="125" stroke-linecap="round" stroke-linejoin="round" d="M0 33110  L-328119 33110 L-327935 33084 L-327444 33031 L-327151 33005 L-326839 32952 L-326605 32925 L-326552 32872 L-326492 32819 L-326339 32793 L-326299 32740 L-326166 32713 L-325874 32687 L-325333 32687 L-324723 32660 L-324675 32660 L-324035 32634 L-324001 32634 L-323476 32634 L-323343 32607 L-322953 32554 L-322625 32501 L-322508 32449 L-322296 32396 L-321579 32396 L-321010 32369 L-320902 32369 L-320728 32343 L-320506 32290 L-320105 32263 L-320079 32210 L-319151 32157 L-319064 32104 L-318981 32051 L-318911 31998 L-318614 31972 L-318462 31919 L-316572 31945 L-316471 31945 L-316209 31945 L-315915 31972 L-315774 31919 L-315525 31919 L-315489 31893 L-315331 31866 L-314867 31813 L-314614 31787 L-314402 31734 L-314151 31707 L-313802 31681 L-312875 31628 L-312781 31575 L-312370 31548 L-311199 31495 L-310010 31469 L-309918 31416 L-309891 31363 L-309625 31310 L-309326 31257 L-309197 31204 L-309159 31151 L-308345 31151 L-307961 31178 L-306900 31204 L-306839 31204 L-306574 31734 L-306103 32237 L-305910 32740 L-305647 33243 L-305310 33216 L-305174 33190 L-304719 33163 L-303975 33137 L-303958 33110 L-303793 33057 L-303724 33057 L-303208 33031 L-302180 33031 L-301983 33005 L-301495 32978 L-301133 32952 L-300724 32952 L-300339 32978 L-298635 32978 L-298537 32978 L-298465 32978 L-298404 32978 L-298220 32952 L-297883 32952 L-297243 32925 L-297166 32899 L-297104 32899 L-296918 32872 L-296838 32872 L-296661 32846 L-296642 32819 L-296412 32819 L-296024 32793 L-295135 32793 L-295096 32766 L-295008 32740 L-294980 32687 L-293972 32660 L-293823 32607 L-293798 32581 L-293666 32554 L-293626 32528 L-292367 32501 L-292310 32501 L-291770 32475 L-291717 32475 L-291671 32475 L-291276 32449 L-291136 32422 L-290936 32396 L-290790 32396 L-290625 32396 L-290348 32422 L-289989 32422 L-289437 32396 L-288792 32369 L-288533 32316 L-288380 32290 L-287979 32263 L-287938 32237 L-287818 32210 L-287756 32237 L-287742 32237 L-287648 32237 L-287355 32210 L-287204 32104 L-286873 32051 L-286796 31998 L-286720 31972 L-286493 31893 L-286427 31840 L-286199 31787 L-286147 31734 L-285982 31707 L-284976 31681 L-284793 31654 L-284242 31628 L-283849 31575 L-283451 31548 L-282601 31495 L-282523 31469 L-281944 31442 L-281503 31442 L-281262 31416 L-281104 31416 L-280704 31363 L-280683 31363 L-280238 31337 L-279833 31310 L-279697 31257 L-279522 31204 L-279385 31151 L-279135 31098 L-278135 31072 L-278053 31045 L-277917 31019 L-277879 30992 L-276989 30966 L-276773 30939 L-276330 30913 L-276213 30886 L-276156 30860 L-275480 30860 L-275379 30833 L-275350 30833 L-274009 30807 L-273603 30781 L-273563 30754 L-272635 30728 L-272537 30701 L-272404 30675 L-272000 30648 L-271974 30622 L-271881 30595 L-271664 30569 L-271253 30516 L-270099 30463 L-269808 30410 L-269779 30357 L-269171 30330 L-268921 30277 L-268901 30251 L-267972 30225 L-267921 30172 L-267798 30145 L-267781 30092 L-267625 30066 L-267450 30013 L-267313 29986 L-267256 29960 L-267149 29933 L-267063 29907 L-266830 29880 L-266755 29854 L-266447 29827 L-266329 29801 L-266159 29774 L-266068 29748 L-265965 29748 L-265942 29722 L-265865 29722 L-265767 29669 L-265400 29642 L-265295 29616 L-264792 29589 L-264340 29563 L-264302 29536 L-264278 29510 L-264237 29483 L-264108 29457 L-264008 29430 L-263566 29404 L-263284 29377 L-262691 29351 L-262561 29324 L-262287 29271 L-262134 29245 L-261981 29218 L-261896 29166 L-261818 29139 L-261632 29113 L-261581 29113 L-261554 29086 L-261474 29060 L-261451 29033 L-261168 28980 L-260564 28927 L-259568 28901 L-259271 28874 L-258537 28848 L-258292 28821 L-258202 28795 L-257625 28768 L-256927 28742 L-256174 28715 L-255856 28689 L-255473 28636 L-255396 28610 L-254761 28583 L-254576 28557 L-254488 28557 L-254359 28557 L-254046 28530 L-253996 28504 L-253854 28477 L-253833 28451 L-252865 28424 L-252320 28398 L-251841 28398 L-251780 28398 L-251457 28398 L-251435 28371 L-251373 28371 L-251163 28345 L-251086 28318 L-251031 28292 L-251009 28265 L-250969 28239 L-250954 28212 L-250197 28186 L-250180 28159 L-249381 28133 L-249228 28106 L-248323 28080 L-247817 28054 L-247587 28001 L-247546 28001 L-247431 27974 L-247254 27948 L-246500 27974 L-246365 27948 L-246201 27921 L-245883 27895 L-245707 27842 L-244685 27789 L-244662 27736 L-244410 27709 L-244197 27656 L-243563 27630 L-243326 27577 L-243293 27524 L-243115 27471 L-243035 27418 L-242945 27392 L-242880 27339 L-242440 27286 L-242417 27259 L-241876 27233 L-241620 27206 L-241125 27180 L-240248 27153 L-240211 27127 L-240158 27100 L-240117 27074 L-240000 27047 L-239724 27021 L-239516 26968 L-239319 26915 L-239296 26862 L-239246 26809 L-239207 26783 L-239129 26756 L-238531 26703 L-238471 26677 L-238368 26650 L-238213 26624 L-237581 26597 L-236901 26571 L-236598 26518 L-236251 26491 L-236054 26465 L-236005 26412 L-235685 26386 L-235057 26359 L-234911 26333 L-234874 26306 L-234817 26280 L-234740 26227 L-234499 26227 L-234410 26200 L-234316 26174 L-234022 26147 L-233888 26121 L-233828 26094 L-233791 26041 L-233519 26041 L-232513 26015 L-232337 25988 L-232287 25988 L-231994 25962 L-231802 25909 L-231468 25882 L-230962 25856 L-230400 25803 L-230385 25750 L-230368 25724 L-230268 25671 L-230153 25618 L-230114 25565 L-230076 25538 L-230011 25538 L-229983 25512 L-229844 25538 L-229551 25538 L-229501 25538 L-229396 25538 L-229131 25512 L-228666 25485 L-228522 25485 L-228467 25432 L-228410 25406 L-228219 25379 L-227854 25353 L-227639 25353 L-227445 25353 L-227387 25353 L-227328 25300 L-227174 25274 L-226904 25247 L-226475 25379 L-226459 25379 L-226382 25353 L-226318 25326 L-226188 25141 L-226165 25115 L-225881 25088 L-225833 25062 L-225779 25035 L-225316 25009 L-225277 25009 L-225237 24982 L-225046 24956 L-224566 24929 L-224079 24903 L-224062 24876 L-224024 24850 L-223768 24823 L-223691 24770 L-223461 24744 L-223445 24691 L-223150 24638 L-222708 24612 L-222261 24585 L-221756 24559 L-221603 24532 L-221316 24506 L-221276 24453 L-220945 24426 L-220723 24400 L-220206 24347 L-220130 24320 L-219882 24267 L-219688 24214 L-219628 24188 L-218852 24162 L-218778 24162 L-218547 24135 L-218530 24135 L-218468 24109 L-218273 24082 L-217809 24082 L-217785 24056 L-217656 24056 L-216355 24056 L-216338 24056 L-216261 24029 L-216168 24029 L-215950 24029 L-215798 24003 L-215620 24029 L-215566 24056 L-215279 24082 L-215239 24082 L-214870 24082 L-214429 24082 L-214246 24082 L-213925 24056 L-213630 24056 L-213184 24003 L-213112 23976 L-212650 23923 L-212212 23897 L-212030 23870 L-210576 23817 L-210444 23791 L-209987 23738 L-209761 23711 L-209374 23658 L-208858 23606 L-207904 23553 L-207110 23500 L-206435 23473 L-206010 23420 L-205698 23394 L-205468 23314 L-204785 23235 L-204772 23155 L-204562 23050 L-204540 23023 L-204366 22970 L-203416 22944 L-203148 22891 L-202332 22864 L-202022 22811 L-201984 22785 L-201927 22732 L-201310 22705 L-200672 22652 L-199046 22626 L-198372 22599 L-197730 22599 L-197653 22599 L-197596 22599 L-197561 22599 L-197532 22573 L-197421 22520 L-197403 22494 L-197380 22467 L-197227 22441 L-197173 22388 L-197095 22361 L-196976 22335 L-196878 22308 L-196761 22282 L-196491 22229 L-196221 22202 L-196204 22149 L-196004 22123 L-195857 22070 L-195631 22043 L-195496 22017 L-195188 21990 L-195128 21964 L-194775 21911 L-194426 21885 L-194325 21858 L-194261 21805 L-194201 21779 L-193816 21726 L-193436 21699 L-193331 21673 L-193071 21646 L-192800 21593 L-192641 21567 L-192608 21540 L-192546 21514 L-192405 21487 L-192221 21461 L-192177 21435 L-191888 21435 L-191872 21408 L-191639 21408 L-191578 21382 L-191540 21382 L-190960 21355 L-190826 21329 L-190803 21223 L-190785 21037 L-190767 20826 L-190751 20614 L-190727 20402 L-190711 20243 L-190689 20058 L-190673 19872 L-190650 19767 L-190633 19661 L-190611 19581 L-190594 19528 L-190546 19449 L-190473 19369 L-190439 19237 L-190415 19131 L-190379 19025 L-190338 18919 L-190301 18866 L-190285 18760 L-190261 18681 L-190224 18628 L-190207 18549 L-190184 18496 L-190166 18443 L-190148 18390 L-190132 18337 L-190102 18257 L-190076 18178 L-190031 18151 L-190014 18099 L-189973 18072 L-189924 18019 L-189854 17966 L-189838 17913 L-189822 17860 L-189760 17834 L-189721 17807 L-189682 17781 L-189516 17754 L-189451 17728 L-189435 17701 L-189391 17648 L-189332 17622 L-189119 17595 L-189086 17569 L-189044 17543 L-188966 17516 L-188428 17490 L-188350 17463 L-188246 17410 L-188157 17384 L-187981 17357 L-187630 17331 L-187475 17304 L-187037 17278 L-186880 17251 L-186750 17225 L-186046 17172 L-185845 17145 L-184885 17092 L-184402 17066 L-184303 17066 L-184211 17039 L-183966 17013 L-183893 16987 L-183450 16934 L-183354 16907 L-183339 16881 L-183323 16854 L-183298 16828 L-182832 16801 L-182615 16775 L-182475 16748 L-182181 16722 L-182093 16695 L-182051 16669 L-182022 16642 L-181849 16616 L-181790 16589 L-181714 16563 L-181633 16536 L-181564 16536 L-181255 16510 L-181169 16483 L-180956 16457 L-180920 16431 L-180237 16404 L-180138 16378 L-179933 16351 L-179887 16325 L-179608 16298 L-179546 16272 L-179529 16219 L-179451 16192 L-179143 16139 L-179119 16113 L-179065 16060 L-179042 16033 L-178919 16007 L-178784 15954 L-178539 15927 L-178414 15927 L-177767 15901 L-177751 15901 L-177726 15901 L-177546 15848 L-177470 15822 L-177378 15795 L-176950 15769 L-176534 15742 L-176141 15689 L-176063 15663 L-176044 15636 L-175680 15610 L-175444 15583 L-175216 15557 L-174903 15530 L-174825 15504 L-174744 15451 L-174566 15398 L-174550 15371 L-174285 15319 L-174205 15292 L-173975 15266 L-173749 15239 L-173433 15239 L-173258 15213 L-172897 15213 L-172505 15186 L-172436 15133 L-172372 15107 L-172231 15054 L-172180 15027 L-172078 14974 L-171576 14948 L-171379 14921 L-171132 14895 L-170947 14868 L-170647 14842 L-170571 14815 L-170405 14763 L-169521 14736 L-169492 14683 L-169369 14630 L-168790 14604 L-168713 14577 L-167999 14577 L-167687 14577 L-167474 14577 L-167457 14577 L-167071 14577 L-166546 14524 L-166100 14498 L-165770 14471 L-165617 14445 L-165291 14445 L-165113 14418 L-165031 14418 L-164825 14365 L-164650 14339 L-163721 14312 L-162831 14286 L-162792 14259 L-162564 14259 L-162185 14233 L-161398 14207 L-161163 14180 L-161087 14154 L-160730 14127 L-160158 14074 L-159891 14048 L-159505 14021 L-159401 14021 L-159231 14021 L-158613 14021 L-158401 14021 L-158094 14021 L-158041 13995 L-157913 13968 L-157860 13942 L-157741 13915 L-157404 13862 L-156445 13836 L-156314 13783 L-156112 13756 L-155481 13730 L-155169 13703 L-154756 13677 L-154728 13651 L-154583 13624 L-154163 13598 L-152830 13598 L-152783 13571 L-152655 13518 L-152638 13492 L-152060 13439 L-151854 13412 L-151825 13386 L-151784 13359 L-151726 13333 L-151689 13306 L-151611 13280 L-151468 13253 L-151013 13227 L-150895 13200 L-150610 13174 L-150237 13148 L-150141 13121 L-149814 13095 L-149460 13068 L-149290 13042 L-149242 13015 L-149133 12989 L-149044 12962 L-149016 12936 L-148940 12883 L-148637 12856 L-148603 12803 L-148531 12777 L-148163 12750 L-147828 12724 L-147747 12724 L-147527 12697 L-147356 12671 L-147328 12644 L-146831 12618 L-146282 12565 L-145401 12539 L-145303 12486 L-145226 12459 L-144951 12433 L-144704 12380 L-144630 12353 L-144568 12300 L-144450 12274 L-144407 12247 L-144297 12221 L-144220 12168 L-143520 12141 L-143274 12115 L-143235 12088 L-143078 12062 L-142479 12062 L-142252 12062 L-142160 12062 L-141685 12062 L-141087 12009 L-140568 11983 L-140547 11956 L-140401 11930 L-140081 11930 L-139539 11930 L-139307 11930 L-139137 11930 L-138651 11903 L-138423 11877 L-138338 11850 L-137992 11824 L-137666 11824 L-137143 11797 L-136815 11771 L-136215 11744 L-136017 11691 L-135965 11665 L-135925 11638 L-135644 11612 L-134959 11559 L-134649 11532 L-134624 11480 L-134433 11453 L-134210 11427 L-134124 11400 L-133460 11347 L-133436 11321 L-133214 11268 L-132884 11241 L-132532 11188 L-132328 11162 L-132095 11109 L-131837 11082 L-131647 11029 L-131600 11003 L-131373 10976 L-131339 10950 L-131182 10924 L-130968 10897 L-130795 10871 L-130703 10844 L-130426 10818 L-130182 10791 L-129867 10765 L-129441 10765 L-129404 10765 L-128920 10765 L-128687 10765 L-128475 10738 L-128249 10712 L-127699 10712 L-127452 10685 L-126618 10685 L-126562 10659 L-126540 10632 L-126382 10606 L-125921 10579 L-125880 10553 L-125540 10500 L-125407 10473 L-125184 10447 L-124612 10420 L-124140 10394 L-123945 10368 L-123753 10341 L-123563 10315 L-123461 10288 L-123093 10262 L-123047 10235 L-122965 10209 L-121672 10182 L-121624 10156 L-121355 10156 L-121210 10156 L-120659 10156 L-120542 10129 L-120461 10103 L-120101 10076 L-119878 10050 L-119597 10023 L-119267 9970 L-118759 9944 L-118647 9917 L-118568 9891 L-118404 9864 L-118109 9864 L-117641 9864 L-117444 9891 L-117394 9891 L-116744 9864 L-116622 9838 L-116168 9838 L-116132 9812 L-115664 9785 L-115553 9759 L-115537 9732 L-115321 9732 L-115140 9706 L-114608 9706 L-113579 9706 L-113379 9679 L-112921 9653 L-111973 9600 L-111874 9573 L-111520 9520 L-111459 9494 L-111445 9467 L-111409 9441 L-111040 9414 L-110920 9388 L-110678 9361 L-110514 9335 L-110327 9308 L-110206 9282 L-109136 9229 L-108277 9203 L-108065 9150 L-107968 9123 L-107794 9070 L-107460 9044 L-107389 9017 L-107331 8991 L-107156 8991 L-106767 8964 L-106531 8938 L-106420 8911 L-106303 8885 L-105322 8858 L-105297 8832 L-104703 8779 L-104670 8779 L-104521 8752 L-104237 8726 L-103325 8726 L-102379 8726 L-102226 8700 L-102124 8700 L-101992 8673 L-101849 8647 L-101823 8620 L-101708 8594 L-101490 8567 L-100809 8541 L-100679 8514 L-100376 8488 L-100136 8435 L-99803 8408 L-99165 8382 L-98822 8329 L-98760 8302 L-98605 8302 L-97683 8302 L-97213 8302 L-97169 8302 L-97156 8276 L-97115 8249 L-97093 8223 L-97066 8196 L-96922 8170 L-96500 8144 L-96164 8144 L-95973 8117 L-95545 8117 L-95357 8091 L-94968 8038 L-94434 8011 L-94061 7985 L-94040 7985 L-93790 7958 L-93671 7932 L-93595 7905 L-93460 7879 L-93420 7852 L-93340 7826 L-92946 7799 L-92450 7773 L-92338 7720 L-92165 7693 L-91857 7667 L-91409 7640 L-91086 7614 L-90944 7561 L-90517 7508 L-90364 7455 L-90308 7402 L-89495 7376 L-89475 7349 L-89103 7323 L-89046 7323 L-87917 7296 L-87849 7296 L-87291 7270 L-87096 7243 L-86960 7217 L-86726 7190 L-86379 7164 L-86345 7111 L-86310 7084 L-86241 7032 L-85892 7005 L-85720 6979 L-85235 6952 L-85219 6926 L-84894 6899 L-84736 6873 L-83596 6820 L-83571 6793 L-83379 6740 L-83186 6714 L-82935 6687 L-82918 6661 L-81898 6634 L-81600 6608 L-81525 6581 L-81389 6528 L-81213 6502 L-80636 6449 L-80421 6423 L-80357 6396 L-80226 6370 L-80189 6317 L-79666 6290 L-79528 16722 L-79514 16722 L-79491 16722 L-79471 16722 L-79243 6264 L-78468 6264 L-78426 6264 L-78058 6264 L-77980 6237 L-77928 6211 L-77255 6184 L-76512 6158 L-76088 6158 L-75640 6131 L-74578 6105 L-74267 6052 L-73856 6052 L-73784 6025 L-73260 6025 L-73166 6025 L-73148 6025 L-72703 5999 L-72518 5946 L-71737 5893 L-71065 5867 L-70653 5787 L-70421 5734 L-70280 5708 L-70199 5655 L-70179 5628 L-70103 5628 L-69974 5602 L-69657 5628 L-69433 5628 L-69108 5602 L-69046 5602 L-68676 5602 L-68643 5602 L-68434 5602 L-67767 5602 L-67689 5602 L-67531 5549 L-67421 5549 L-67094 5522 L-66939 5496 L-66598 5496 L-66541 5443 L-66203 5390 L-65999 5364 L-65946 5311 L-64570 5284 L-64440 5258 L-64007 5231 L-63686 5205 L-62859 5152 L-62735 5125 L-62005 5072 L-61849 5019 L-61808 4993 L-61754 4966 L-61731 4940 L-61617 4913 L-61321 4887 L-61031 4861 L-60976 4834 L-60856 4808 L-60826 4781 L-60726 4755 L-60282 4755 L-60130 4728 L-59295 4728 L-58753 4702 L-58418 4702 L-58403 4675 L-58327 4649 L-58211 4622 L-58016 4596 L-57752 4569 L-56917 4543 L-56821 4516 L-56300 4490 L-56258 4463 L-56159 4437 L-55330 4437 L-55195 4410 L-54857 4410 L-54302 4384 L-53923 4357 L-53760 4331 L-53450 4305 L-52637 4278 L-52331 4252 L-52063 4252 L-51741 4252 L-51420 4278 L-51145 4278 L-50316 4225 L-50221 4199 L-50129 4119 L-50024 4040 L-49637 3960 L-49157 3907 L-49141 3881 L-49022 3854 L-48654 3801 L-48559 3775 L-47725 3722 L-47648 3696 L-47349 3669 L-47258 3643 L-46851 3590 L-46741 3537 L-46041 3510 L-45568 3484 L-45508 3457 L-45289 3404 L-45016 3378 L-44903 3351 L-43875 3325 L-43489 3298 L-43469 3272 L-43136 3245 L-42891 3219 L-42458 3193 L-42348 3166 L-42230 3140 L-41779 3087 L-41188 3060 L-40852 3034 L-38959 3007 L-38845 2954 L-38633 2928 L-37315 2901 L-37209 -3055 L-37143 -8933 L-37106 -14360 L-37045 -14360 L-36545 -8456 L-35870 -2631 L-35848 2742 L-35578 2689 L-34609 2689 L-33920 2663 L-33758 2637 L-33217 2610 L-33128 2584 L-32108 2557 L-31161 2504 L-30795 2531 L-30692 2557 L-30104 2557 L-30045 2557 L-29944 2531 L-29504 2478 L-29396 2451 L-28955 2425 L-27955 2345 L-27699 2266 L-27596 2186 L-27465 2133 L-27099 2081 L-26518 2028 L-26487 2001 L-26172 1975 L-24189 1948 L-24073 1922 L-24005 1922 L-23647 1895 L-22028 1869 L-21850 1869 L-21706 1869 L-20884 1895 L-20831 1922 L-20776 1922 L-20342 1922 L-19362 1948 L-19288 1948 L-18203 1922 L-17990 1922 L-17274 1869 L-16886 1842 L-16667 1789 L-16347 1736 L-15853 1683 L-15726 1657 L-15497 1604 L-15265 1551 L-15205 1525 L-14916 1498 L-14644 1445 L-13614 1419 L-11949 1392 L-11530 1366 L-11392 1339 L-11236 1339 L-10931 1313 L-10703 1260 L-10544 1233 L-10385 1180 L-10216 1127 L-10168 1101 L-10115 1074 L-10093 1074 L-9707 1048 L-9458 1048 L-9187 1048 L-9026 1048 L-8937 1048 L-7278 1048 L-7113 1074 L-6733 1048 L-6273 1048 L-5663 995 L-4570 969 L-4139 942 L-4108 916 L-4045 889 L-4028 863 L-2324 836 L-2282 810 L-1816 783 L-1629 757 L-1597 704 L-1001 677 L-952 651 L-629 624 L-578 598 L-368 571 L-350 545 L-84 492 L-31 465 L437 439 L948 386 L1026 386 L1320 360 L1337 333 L1375 307 L1446 280 L1604 254 L2550 254 L2606 254 L3127 254 L3320 227 L3420 227 L3646 201 L4156 201 L4544 916 L4614 916 L4962 889 L5319 863 L6448 95 L6500 42" />
</svg>
