<svg xmlns="http://www.w3.org/2000/svg" version="1.1" viewBox="0 0 6500 1000">
	<path fill="none" stroke="gold" stroke-width="125" stroke-linecap="round" stroke-linejoin="round" d="M0 1307  L-25379 1307 L-24967 1105 L-24742 1206 L-24685 1105 L-24647 904 L-24463 702 L-23973 501 L-23679 400 L-23368 300 L-23133 98 L-23080 -102 L-23021 -304 L-22867 -404 L-22827 -505 L-22694 -606 L-22402 -505 L-21861 -606 L-21251 -807 L-21203 -606 L-20563 -807 L-20529 -706 L-20004 -908 L-19871 -1009 L-19481 -1411 L-19153 -1613 L-19036 -1814 L-18825 -1613 L-18108 -1713 L-17538 -1814 L-17431 -1915 L-17256 -2116 L-17035 -2318 L-16633 -2418 L-16607 -2620 L-15679 -2821 L-15592 -3023 L-15510 -3224 L-15440 -3425 L-15142 -3526 L-14990 -3627 L-13100 -3023 L-12999 -3325 L-12737 -3526 L-12443 -3325 L-12302 -3526 L-12053 -3627 L-12018 -3728 L-11859 -3929 L-11396 -4030 L-11143 -4231 L-10930 -4332 L-10679 -4433 L-10330 -4634 L-9403 -4835 L-9309 -5037 L-8898 -5137 L-7728 -5238 L-6539 -5440 L-6446 -5641 L-6419 -5842 L-6153 -6145 L-5854 -6346 L-5725 -6447 L-5688 -6648 L-4873 -5943 L-4489 -6044 L-3429 -6245 L-3367 -6346 L-3102 1810 L-2631 1709 L-2438 1508 L-2175 1407 L-1838 1307 L-1702 1407 L-1247 1105 L-504 1005 L-486 803 L-321 702 L-253 904 L262 803 L1291 602 L1487 400 L1976 501 L2338 400 L2747 602 L3132 702 L4836 602 L4934 501 L5005 602 L5067 501 L5251 400 L5588 300 L6228 98 L6305 300 L6366 199" />
</svg>
