<svg xmlns="http://www.w3.org/2000/svg" version="1.1" viewBox="0 0 6500 1000">
	<path fill="none" stroke="gold" stroke-width="125" stroke-linecap="round" stroke-linejoin="round" d="M0 9130  L-129746 9130 L-129562 9109 L-129071 9068 L-128778 9048 L-128467 9006 L-128232 8986 L-128179 8944 L-128119 8903 L-127966 8883 L-127926 8841 L-127793 8821 L-127501 8800 L-126960 8800 L-126350 8780 L-126302 8780 L-125662 8759 L-125628 8759 L-125103 8759 L-124970 8738 L-124580 8697 L-124252 8656 L-124135 8615 L-123924 8574 L-123207 8574 L-122637 8553 L-122529 8553 L-122355 8532 L-122134 8491 L-121732 8471 L-121706 8429 L-120778 8388 L-120691 8347 L-120609 8306 L-120539 8265 L-120241 8244 L-120089 8203 L-118199 8223 L-118098 8223 L-117836 8223 L-117542 8244 L-117401 8203 L-117152 8203 L-117116 8182 L-116958 8162 L-116495 8120 L-116242 8100 L-116029 8059 L-115778 8038 L-115429 8017 L-114502 7976 L-114408 7935 L-113997 7914 L-112826 7873 L-111637 7853 L-111545 7811 L-111518 7770 L-111252 7729 L-110953 7688 L-110824 7647 L-110786 7605 L-109972 7605 L-109588 7626 L-108527 7647 L-108466 7647 L-108201 8059 L-107730 8450 L-107537 8841 L-107274 9233 L-106937 9212 L-106801 9192 L-106346 9171 L-105603 9151 L-105585 9130 L-105420 9089 L-105352 9089 L-104835 9068 L-103807 9068 L-103611 9048 L-103122 9027 L-102760 9006 L-102351 9006 L-101966 9027 L-100262 9027 L-100164 9027 L-100093 9027 L-100031 9027 L-99847 9006 L-99510 9006 L-98870 8986 L-98793 8965 L-98732 8965 L-98545 8944 L-98465 8944 L-98288 8924 L-98269 8903 L-98039 8903 L-97651 8883 L-96763 8883 L-96723 8862 L-96635 8841 L-96608 8800 L-95600 8780 L-95450 8738 L-95426 8718 L-95293 8697 L-95253 8677 L-93995 8656 L-93937 8656 L-93397 8635 L-93345 8635 L-93298 8635 L-92903 8615 L-92763 8594 L-92563 8574 L-92417 8574 L-92252 8574 L-91975 8594 L-91617 8594 L-91064 8574 L-90419 8553 L-90160 8512 L-90007 8491 L-89606 8471 L-89566 8450 L-89445 8429 L-89383 8450 L-89369 8450 L-89275 8450 L-88982 8429 L-88831 8347 L-88501 8306 L-88423 8265 L-88347 8244 L-88120 8182 L-88054 8141 L-87826 8100 L-87774 8059 L-87609 8038 L-86603 8017 L-86420 7997 L-85869 7976 L-85476 7935 L-85078 7914 L-84228 7873 L-84150 7853 L-83571 7832 L-83130 7832 L-82889 7811 L-82731 7811 L-82331 7770 L-82310 7770 L-81865 7750 L-81460 7729 L-81324 7688 L-81149 7647 L-81012 7605 L-80762 7564 L-79762 7544 L-79680 7523 L-79545 7502 L-79506 7482 L-78616 7461 L-78400 7441 L-77957 7420 L-77840 7399 L-77783 7379 L-77107 7379 L-77006 7358 L-76978 7358 L-75636 7338 L-75230 7317 L-75190 7296 L-74262 7276 L-74164 7255 L-74031 7235 L-73627 7214 L-73601 7193 L-73508 7173 L-73291 7152 L-72880 7111 L-71727 7070 L-71435 7029 L-71406 6987 L-70798 6967 L-70548 6926 L-70528 6905 L-69599 6884 L-69548 6843 L-69425 6823 L-69408 6781 L-69252 6761 L-69077 6720 L-68940 6699 L-68884 6678 L-68776 6658 L-68690 6637 L-68457 6617 L-68382 6596 L-68074 6575 L-67956 6555 L-67786 6534 L-67695 6514 L-67592 6514 L-67569 6493 L-67492 6493 L-67394 6452 L-67027 6431 L-66923 6411 L-66419 6390 L-65967 6369 L-65929 6349 L-65905 6328 L-65864 6307 L-65736 6287 L-65635 6266 L-65193 6246 L-64911 6225 L-64319 6204 L-64188 6184 L-63914 6143 L-63761 6122 L-63608 6101 L-63523 6060 L-63445 6040 L-63259 6019 L-63209 6019 L-63181 5998 L-63101 5978 L-63078 5957 L-62795 5916 L-62191 5875 L-61196 5854 L-60898 5834 L-60164 5813 L-59919 5792 L-59829 5772 L-59252 5751 L-58554 5731 L-57801 5710 L-57483 5689 L-57100 5648 L-57023 5628 L-56389 5607 L-56203 5586 L-56115 5586 L-55986 5586 L-55673 5566 L-55624 5545 L-55482 5525 L-55460 5504 L-54492 5483 L-53947 5463 L-53469 5463 L-53408 5463 L-53084 5463 L-53062 5442 L-53000 5442 L-52790 5422 L-52713 5401 L-52658 5380 L-52636 5360 L-52597 5339 L-52581 5319 L-51824 5298 L-51807 5277 L-51008 5257 L-50855 5236 L-49950 5216 L-49444 5195 L-49215 5154 L-49173 5154 L-49058 5133 L-48882 5113 L-48127 5133 L-47992 5113 L-47828 5092 L-47510 5071 L-47334 5030 L-46312 4989 L-46289 4948 L-46038 4927 L-45825 4886 L-45191 4865 L-44953 4824 L-44920 4783 L-44742 4742 L-44662 4701 L-44572 4680 L-44508 4639 L-44067 4598 L-44044 4577 L-43503 4556 L-43247 4536 L-42752 4515 L-41875 4495 L-41838 4474 L-41786 4453 L-41744 4433 L-41627 4412 L-41351 4392 L-41144 4350 L-40946 4309 L-40923 4268 L-40873 4227 L-40834 4206 L-40756 4186 L-40158 4144 L-40098 4124 L-39995 4103 L-39841 4083 L-39209 4062 L-38528 4041 L-38225 4000 L-37878 3980 L-37681 3959 L-37633 3918 L-37312 3897 L-36685 3877 L-36538 3856 L-36502 3835 L-36444 3815 L-36367 3774 L-36126 3774 L-36038 3753 L-35944 3732 L-35650 3712 L-35515 3691 L-35455 3670 L-35418 3629 L-35146 3629 L-34140 3609 L-33964 3588 L-33914 3588 L-33621 3567 L-33429 3526 L-33096 3506 L-32589 3485 L-32027 3444 L-32012 3403 L-31995 3382 L-31895 3341 L-31780 3300 L-31741 3258 L-31704 3238 L-31638 3238 L-31610 3217 L-31471 3238 L-31178 3238 L-31128 3238 L-31023 3238 L-30758 3217 L-30293 3197 L-30149 3197 L-30094 3155 L-30037 3135 L-29846 3114 L-29481 3094 L-29267 3094 L-29072 3094 L-29014 3094 L-28955 3052 L-28801 3032 L-28532 3011 L-28102 3114 L-28086 3114 L-28009 3094 L-27945 3073 L-27816 2929 L-27792 2908 L-27508 2888 L-27460 2867 L-27406 2846 L-26943 2826 L-26905 2826 L-26864 2805 L-26674 2785 L-26193 2764 L-25706 2743 L-25690 2723 L-25652 2702 L-25395 2682 L-25318 2640 L-25088 2620 L-25072 2579 L-24777 2537 L-24335 2517 L-23888 2496 L-23384 2476 L-23230 2455 L-22943 2434 L-22903 2393 L-22572 2373 L-22350 2352 L-21833 2311 L-21757 2290 L-21509 2249 L-21315 2208 L-21255 2187 L-20479 2167 L-20405 2167 L-20174 2146 L-20158 2146 L-20096 2125 L-19900 2105 L-19436 2105 L-19413 2084 L-19283 2084 L-17982 2084 L-17966 2084 L-17888 2064 L-17795 2064 L-17577 2064 L-17425 2043 L-17247 2064 L-17193 2084 L-16906 2105 L-16866 2105 L-16497 2105 L-16056 2105 L-15873 2105 L-15552 2084 L-15257 2084 L-14811 2043 L-14739 2022 L-14277 1981 L-13839 1961 L-13657 1940 L-12203 1899 L-12071 1878 L-11614 1837 L-11388 1816 L-11002 1775 L-10485 1734 L-9531 1693 L-8737 1652 L-8062 1631 L-7637 1590 L-7326 1569 L-7096 1507 L-6412 1446 L-6399 1384 L-6189 1301 L-6167 1281 L-5993 1240 L-5043 1219 L-4775 1178 L-3960 1157 L-3649 1116 L-3612 1095 L-3554 1054 L-2937 1033 L-2300 992 L-673 972 L0 951 L641 951 L719 951 L775 951 L811 951 L839 930 L951 889 L969 869 L992 848 L1145 827 L1199 786 L1277 766 L1396 745 L1494 724 L1611 704 L1881 663 L2150 642 L2168 601 L2368 580 L2515 539 L2741 518 L2875 498 L3184 477 L3244 457 L3597 415 L3946 395 L4047 374 L4111 333 L4171 312 L4555 271 L4936 251 L5041 230 L5301 209 L5572 168 L5731 148 L5764 127 L5826 106 L5967 86 L6151 65 L6195 45 L6483 45 L6500 24" />
</svg>
