<svg xmlns="http://www.w3.org/2000/svg" version="1.1" viewBox="0 0 6500 1000">
	<path fill="none" stroke="gold" stroke-width="125" stroke-linecap="round" stroke-linejoin="round" d="M0 79786  L-534586 79786 L-534402 79744 L-533912 79659 L-533618 79617 L-533307 79533 L-533072 79491 L-533019 79407 L-532960 79322 L-532807 79280 L-532766 79196 L-532634 79154 L-532341 79112 L-531800 79112 L-531190 79070 L-531142 79070 L-530502 79028 L-530469 79028 L-529943 79028 L-529811 78986 L-529420 78901 L-529092 78817 L-528975 78733 L-528764 78649 L-528047 78649 L-527477 78607 L-527370 78607 L-527195 78565 L-526974 78480 L-526572 78438 L-526547 78354 L-525619 78270 L-525531 78186 L-525449 78101 L-525379 78017 L-525082 77975 L-524930 77891 L-523039 77933 L-522939 77933 L-522676 77933 L-522383 77975 L-522241 77891 L-521992 77891 L-521957 77849 L-521798 77807 L-521335 77722 L-521082 77680 L-520870 77596 L-520618 77554 L-520269 77512 L-519342 77428 L-519248 77344 L-518838 77301 L-517667 77217 L-516478 77175 L-516385 77091 L-516358 77007 L-516092 76922 L-515793 76838 L-515664 76754 L-515627 76670 L-514812 76670 L-514428 76712 L-513368 76754 L-513307 76754 L-513041 77596 L-512570 78396 L-512378 79196 L-512114 79996 L-511777 79954 L-511642 79912 L-511186 79870 L-510443 79828 L-510425 79786 L-510260 79701 L-510192 79701 L-509676 79659 L-508647 79659 L-508451 79617 L-507962 79575 L-507600 79533 L-507192 79533 L-506806 79575 L-505103 79575 L-505005 79575 L-504933 79575 L-504871 79575 L-504687 79533 L-504351 79533 L-503710 79491 L-503633 79449 L-503572 79449 L-503385 79407 L-503306 79407 L-503129 79365 L-503109 79322 L-502879 79322 L-502492 79280 L-501603 79280 L-501564 79238 L-501475 79196 L-501448 79112 L-500440 79070 L-500290 78986 L-500266 78944 L-500133 78901 L-500093 78859 L-498835 78817 L-498777 78817 L-498237 78775 L-498185 78775 L-498138 78775 L-497743 78733 L-497604 78691 L-497404 78649 L-497257 78649 L-497092 78649 L-496816 78691 L-496457 78691 L-495904 78649 L-495260 78607 L-495001 78522 L-494847 78480 L-494446 78438 L-494406 78396 L-494285 78354 L-494224 78396 L-494210 78396 L-494116 78396 L-493823 78354 L-493671 78186 L-493341 78101 L-493263 78017 L-493187 77975 L-492961 77849 L-492894 77765 L-492666 77680 L-492614 77596 L-492449 77554 L-491443 77512 L-491260 77470 L-490709 77428 L-490316 77344 L-489919 77301 L-489069 77217 L-488990 77175 L-488411 77133 L-487970 77133 L-487729 77091 L-487572 77091 L-487171 77007 L-487150 77007 L-486706 76965 L-486300 76922 L-486164 76838 L-485989 76754 L-485853 76670 L-485602 76586 L-484603 76544 L-484520 76501 L-484385 76459 L-484346 76417 L-483456 76375 L-483241 76333 L-482797 76291 L-482680 76249 L-482623 76207 L-481947 76207 L-481847 76165 L-481818 76165 L-480476 76122 L-480070 76080 L-480031 76038 L-479103 75996 L-479004 75954 L-478871 75912 L-478467 75870 L-478441 75828 L-478348 75786 L-478132 75744 L-477721 75659 L-476567 75575 L-476275 75491 L-476247 75407 L-475639 75365 L-475389 75280 L-475369 75238 L-474439 75196 L-474388 75112 L-474266 75070 L-474248 74986 L-474092 74944 L-473917 74859 L-473780 74817 L-473724 74775 L-473616 74733 L-473531 74691 L-473298 74649 L-473223 74607 L-472914 74565 L-472796 74522 L-472627 74480 L-472535 74438 L-472433 74438 L-472409 74396 L-472332 74396 L-472234 74312 L-471868 74270 L-471763 74228 L-471259 74186 L-470808 74144 L-470769 74101 L-470745 74059 L-470705 74017 L-470576 73975 L-470475 73933 L-470034 73891 L-469751 73849 L-469159 73807 L-469029 73765 L-468754 73680 L-468602 73638 L-468448 73596 L-468363 73512 L-468285 73470 L-468099 73428 L-468049 73428 L-468021 73386 L-467942 73344 L-467919 73301 L-467635 73217 L-467031 73133 L-466036 73091 L-465738 73049 L-465004 73007 L-464760 72965 L-464670 72922 L-464092 72880 L-463394 72838 L-462642 72796 L-462323 72754 L-461940 72670 L-461863 72628 L-461229 72586 L-461043 72544 L-460956 72544 L-460826 72544 L-460513 72501 L-460464 72459 L-460322 72417 L-460300 72375 L-459333 72333 L-458787 72291 L-458309 72291 L-458248 72291 L-457924 72291 L-457903 72249 L-457840 72249 L-457630 72207 L-457553 72165 L-457499 72122 L-457476 72080 L-457437 72038 L-457421 71996 L-456664 71954 L-456648 71912 L-455848 71870 L-455696 71828 L-454790 71786 L-454284 71744 L-454055 71659 L-454014 71659 L-453898 71617 L-453722 71575 L-452968 71617 L-452833 71575 L-452669 71533 L-452351 71491 L-452174 71407 L-451152 71322 L-451129 71238 L-450878 71196 L-450665 71112 L-450031 71070 L-449793 70986 L-449760 70901 L-449582 70817 L-449502 70733 L-449412 70691 L-449348 70607 L-448908 70522 L-448884 70480 L-448343 70438 L-448087 70396 L-447593 70354 L-446715 70312 L-446679 70270 L-446626 70228 L-446585 70186 L-446468 70144 L-446191 70101 L-445984 70017 L-445787 69933 L-445764 69849 L-445713 69765 L-445674 69722 L-445596 69680 L-444999 69596 L-444938 69554 L-444835 69512 L-444681 69470 L-444049 69428 L-443368 69386 L-443065 69301 L-442719 69259 L-442521 69217 L-442473 69133 L-442152 69091 L-441525 69049 L-441378 69007 L-441342 68965 L-441284 68922 L-441207 68838 L-440966 68838 L-440878 68796 L-440784 68754 L-440490 68712 L-440356 68670 L-440296 68628 L-440259 68544 L-439986 68544 L-438980 68501 L-438805 68459 L-438754 68459 L-438461 68417 L-438269 68333 L-437936 68291 L-437429 68249 L-436867 68165 L-436852 68080 L-436836 68038 L-436735 67954 L-436621 67870 L-436582 67786 L-436544 67744 L-436478 67744 L-436450 67701 L-436311 67744 L-436019 67744 L-435969 67744 L-435863 67744 L-435599 67701 L-435134 67659 L-434989 67659 L-434935 67575 L-434878 67533 L-434687 67491 L-434321 67449 L-434107 67449 L-433912 67449 L-433854 67449 L-433795 67365 L-433641 67322 L-433372 67280 L-432942 67491 L-432927 67491 L-432850 67449 L-432785 67407 L-432656 67112 L-432632 67070 L-432348 67028 L-432301 66986 L-432246 66944 L-431784 66901 L-431745 66901 L-431704 66859 L-431514 66817 L-431033 66775 L-430546 66733 L-430530 66691 L-430492 66649 L-430235 66607 L-430158 66522 L-429928 66480 L-429912 66396 L-429618 66312 L-429175 66270 L-428728 66228 L-428224 66186 L-428070 66144 L-427784 66101 L-427743 66017 L-427412 65975 L-427190 65933 L-426673 65849 L-426598 65807 L-426350 65722 L-426155 65638 L-426096 65596 L-425319 65554 L-425245 65554 L-425014 65512 L-424998 65512 L-424936 65470 L-424740 65428 L-424276 65428 L-424253 65386 L-424123 65386 L-422822 65386 L-422806 65386 L-422729 65344 L-422635 65344 L-422418 65344 L-422266 65301 L-422087 65344 L-422033 65386 L-421746 65428 L-421707 65428 L-421337 65428 L-420897 65428 L-420714 65428 L-420393 65386 L-420098 65386 L-419652 65301 L-419580 65259 L-419117 65175 L-418680 65133 L-418498 65091 L-417043 65007 L-416912 64965 L-416454 64880 L-416228 64838 L-415842 64754 L-415325 64670 L-414371 64586 L-413577 64501 L-412903 64459 L-412477 64375 L-412166 64333 L-411936 64207 L-411253 64080 L-411240 63954 L-411030 63786 L-411008 63744 L-410833 63659 L-409883 63617 L-409615 63533 L-408800 63491 L-408489 63407 L-408452 63365 L-408395 63280 L-407778 63238 L-407140 63154 L-405514 63112 L-404840 63070 L-404198 63070 L-404120 63070 L-404064 63070 L-404028 63070 L-404000 63028 L-403888 62944 L-403870 62901 L-403847 62859 L-403694 62817 L-403640 62733 L-403562 62691 L-403443 62649 L-403346 62607 L-403228 62565 L-402959 62480 L-402689 62438 L-402672 62354 L-402472 62312 L-402325 62228 L-402098 62186 L-401964 62144 L-401655 62101 L-401595 62059 L-401242 61975 L-400893 61933 L-400793 61891 L-400728 61807 L-400668 61765 L-400284 61680 L-399903 61638 L-399799 61596 L-399538 61554 L-399267 61470 L-399108 61428 L-399076 61386 L-399014 61344 L-398872 61301 L-398688 61259 L-398644 61217 L-398356 61217 L-398340 61175 L-398107 61175 L-398046 61133 L-398007 61133 L-397428 61091 L-397294 61049 L-397271 60880 L-397252 60586 L-397235 60249 L-397219 59912 L-397195 59575 L-397178 59322 L-397157 59028 L-397140 58733 L-397117 58565 L-397100 58396 L-397079 58270 L-397062 58186 L-397013 58059 L-396941 57933 L-396906 57722 L-396882 57554 L-396847 57386 L-396805 57217 L-396768 57133 L-396753 56965 L-396728 56838 L-396691 56754 L-396674 56628 L-396651 56544 L-396634 56459 L-396615 56375 L-396599 56291 L-396570 56165 L-396544 56038 L-396498 55996 L-396482 55912 L-396440 55870 L-396392 55786 L-396321 55701 L-396306 55617 L-396290 55533 L-396228 55491 L-396189 55449 L-396149 55407 L-395983 55365 L-395918 55322 L-395902 55280 L-395858 55196 L-395800 55154 L-395587 55112 L-395554 55070 L-395511 55028 L-395433 54986 L-394896 54944 L-394818 54901 L-394713 54817 L-394625 54775 L-394448 54733 L-394098 54691 L-393942 54649 L-393504 54607 L-393347 54565 L-393218 54522 L-392514 54438 L-392313 54396 L-391352 54312 L-390870 54270 L-390771 54270 L-390678 54228 L-390433 54186 L-390360 54144 L-389917 54059 L-389821 54017 L-389806 53975 L-389790 53933 L-389765 53891 L-389299 53849 L-389082 53807 L-388943 53765 L-388649 53722 L-388560 53680 L-388519 53638 L-388489 53596 L-388317 53554 L-388258 53512 L-388182 53470 L-388101 53428 L-388031 53428 L-387722 53386 L-387637 53344 L-387423 53301 L-387388 53259 L-386705 53217 L-386606 53175 L-386401 53133 L-386354 53091 L-386076 53049 L-386014 53007 L-385997 52922 L-385919 52880 L-385610 52796 L-385586 52754 L-385532 52670 L-385509 52628 L-385387 52586 L-385251 52501 L-385007 52459 L-384881 52459 L-384235 52417 L-384219 52417 L-384194 52417 L-384014 52333 L-383937 52291 L-383846 52249 L-383418 52207 L-383002 52165 L-382609 52080 L-382530 52038 L-382511 51996 L-382148 51954 L-381912 51912 L-381683 51870 L-381370 51828 L-381292 51786 L-381212 51701 L-381034 51617 L-381018 51575 L-380753 51491 L-380672 51449 L-380442 51407 L-380216 51365 L-379901 51365 L-379725 51322 L-379364 51322 L-378973 51280 L-378903 51196 L-378839 51154 L-378699 51070 L-378647 51028 L-378546 50944 L-378044 50901 L-377846 50859 L-377600 50817 L-377414 50775 L-377115 50733 L-377039 50691 L-376873 50607 L-375988 50565 L-375960 50480 L-375837 50396 L-375258 50354 L-375180 50312 L-374467 50312 L-374155 50312 L-373942 50312 L-373925 50312 L-373538 50312 L-373013 50228 L-372567 50186 L-372237 50144 L-372085 50101 L-371759 50101 L-371580 50059 L-371499 50059 L-371293 49975 L-371117 49933 L-370188 49891 L-369299 49849 L-369260 49807 L-369032 49807 L-368653 49765 L-367865 49722 L-367631 49680 L-367555 49638 L-367197 49596 L-366626 49512 L-366359 49470 L-365972 49428 L-365869 49428 L-365699 49428 L-365080 49428 L-364869 49428 L-364561 49428 L-364508 49386 L-364380 49344 L-364327 49301 L-364208 49259 L-363872 49175 L-362913 49133 L-362781 49049 L-362580 49007 L-361948 48965 L-361637 48922 L-361223 48880 L-361196 48838 L-361050 48796 L-360630 48754 L-359297 48754 L-359251 48712 L-359122 48628 L-359105 48586 L-358527 48501 L-358322 48459 L-358292 48417 L-358251 48375 L-358194 48333 L-358156 48291 L-358078 48249 L-357935 48207 L-357481 48165 L-357362 48122 L-357077 48080 L-356705 48038 L-356608 47996 L-356282 47954 L-355927 47912 L-355757 47870 L-355710 47828 L-355601 47786 L-355512 47744 L-355484 47701 L-355408 47617 L-355104 47575 L-355070 47491 L-354999 47449 L-354631 47407 L-354295 47365 L-354214 47365 L-353995 47322 L-353823 47280 L-353796 47238 L-353298 47196 L-352749 47112 L-351869 47070 L-351770 46986 L-351693 46944 L-351419 46901 L-351172 46817 L-351098 46775 L-351036 46691 L-350917 46649 L-350875 46607 L-350765 46565 L-350688 46480 L-349987 46438 L-349742 46396 L-349702 46354 L-349546 46312 L-348946 46312 L-348720 46312 L-348628 46312 L-348152 46312 L-347555 46228 L-347035 46186 L-347014 46144 L-346869 46101 L-346549 46101 L-346007 46101 L-345775 46101 L-345604 46101 L-345118 46059 L-344890 46017 L-344805 45975 L-344459 45933 L-344133 45933 L-343610 45891 L-343283 45849 L-342682 45807 L-342485 45722 L-342433 45680 L-342392 45638 L-342111 45596 L-341427 45512 L-341117 45470 L-341092 45386 L-340900 45344 L-340678 45301 L-340592 45259 L-339928 45175 L-339904 45133 L-339682 45049 L-339352 45007 L-339000 44922 L-338795 44880 L-338563 44796 L-338305 44754 L-338115 44670 L-338068 44628 L-337841 44586 L-337806 44544 L-337650 44501 L-337435 44459 L-337262 44417 L-337171 44375 L-336894 44333 L-336650 44291 L-336334 44249 L-335908 44249 L-335871 44249 L-335388 44249 L-335154 44249 L-334942 44207 L-334716 44165 L-334166 44165 L-333919 44122 L-333085 44122 L-333029 44080 L-333008 44038 L-332850 43996 L-332388 43954 L-332348 43912 L-332008 43828 L-331874 43786 L-331652 43744 L-331079 43701 L-330608 43659 L-330413 43617 L-330220 43575 L-330031 43533 L-329929 43491 L-329561 43449 L-329514 43407 L-329433 43365 L-328139 43322 L-328091 43280 L-327823 43280 L-327678 43280 L-327127 43280 L-327010 43238 L-326928 43196 L-326569 43154 L-326345 43112 L-326064 43070 L-325735 42986 L-325227 42944 L-325114 42901 L-325036 42859 L-324871 42817 L-324577 42817 L-324108 42817 L-323912 42859 L-323861 42859 L-323211 42817 L-323089 42775 L-322635 42775 L-322600 42733 L-322131 42691 L-322021 42649 L-322004 42607 L-321788 42607 L-321607 42565 L-321076 42565 L-320046 42565 L-319847 42522 L-319388 42480 L-318440 42396 L-318341 42354 L-317987 42270 L-317927 42228 L-317912 42186 L-317877 42144 L-317508 42101 L-317388 42059 L-317146 42017 L-316982 41975 L-316794 41933 L-316674 41891 L-315603 41807 L-314745 41765 L-314533 41680 L-314435 41638 L-314261 41554 L-313928 41512 L-313856 41470 L-313799 41428 L-313623 41428 L-313234 41386 L-312999 41344 L-312888 41301 L-312771 41259 L-311790 41217 L-311764 41175 L-311170 41091 L-311138 41091 L-310989 41049 L-310705 41007 L-309793 41007 L-308847 41007 L-308694 40965 L-308591 40965 L-308459 40922 L-308316 40880 L-308290 40838 L-308176 40796 L-307957 40754 L-307276 40712 L-307147 40670 L-306843 40628 L-306603 40544 L-306271 40501 L-305632 40459 L-305290 40375 L-305228 40333 L-305072 40333 L-304151 40333 L-303680 40333 L-303637 40333 L-303624 40291 L-303583 40249 L-303560 40207 L-303534 40165 L-303390 40122 L-302967 40080 L-302632 40080 L-302441 40038 L-302012 40038 L-301824 39996 L-301435 39912 L-300901 39870 L-300528 39828 L-300507 39828 L-300257 39786 L-300139 39744 L-300063 39701 L-299927 39659 L-299888 39617 L-299808 39575 L-299413 39533 L-298918 39491 L-298806 39407 L-298633 39365 L-298324 39322 L-297877 39280 L-297554 39238 L-297411 39154 L-296984 39070 L-296831 38986 L-296776 38901 L-295962 38859 L-295942 38817 L-295570 38775 L-295514 38775 L-294385 38733 L-294317 38733 L-293758 38691 L-293564 38649 L-293427 38607 L-293194 38565 L-292847 38522 L-292812 38438 L-292777 38396 L-292709 38312 L-292360 38270 L-292188 38228 L-291703 38186 L-291686 38144 L-291361 38101 L-291204 38059 L-290063 37975 L-290038 37933 L-289846 37849 L-289653 37807 L-289403 37765 L-289386 37722 L-288365 37680 L-288068 37638 L-287992 37596 L-287856 37512 L-287680 37470 L-287104 37386 L-286888 37344 L-286824 37301 L-286694 37259 L-286657 37175 L-286133 37133 L-285996 53722 L-285981 53722 L-285958 53722 L-285938 53722 L-285711 37091 L-284935 37091 L-284894 37091 L-284526 37091 L-284447 37049 L-284395 37007 L-283722 36965 L-282980 36922 L-282555 36922 L-282107 36880 L-281046 36838 L-280734 36754 L-280324 36754 L-280252 36712 L-279728 36712 L-279633 36712 L-279615 36712 L-279170 36670 L-278985 36586 L-278205 36501 L-277532 36459 L-277120 36333 L-276888 36249 L-276748 36207 L-276666 36122 L-276646 36080 L-276570 36080 L-276442 36038 L-276125 36080 L-275900 36080 L-275575 36038 L-275513 36038 L-275143 36038 L-275110 36038 L-274902 36038 L-274234 36038 L-274157 36038 L-273999 35954 L-273888 35954 L-273562 35912 L-273407 35870 L-273066 35870 L-273009 35786 L-272670 35701 L-272467 35659 L-272414 35575 L-271038 35533 L-270908 35491 L-270474 35449 L-270154 35407 L-269326 35322 L-269203 35280 L-268472 35196 L-268316 35112 L-268276 35070 L-268222 35028 L-268199 34986 L-268085 34944 L-267788 34901 L-267498 34859 L-267444 34817 L-267323 34775 L-267293 34733 L-267194 34691 L-266750 34691 L-266598 34649 L-265762 34649 L-265220 34607 L-264886 34607 L-264870 34565 L-264794 34522 L-264678 34480 L-264484 34438 L-264219 34396 L-263385 34354 L-263289 34312 L-262767 34270 L-262725 34228 L-262626 34186 L-261798 34186 L-261663 34144 L-261324 34144 L-260770 34101 L-260390 34059 L-260227 34017 L-259917 33975 L-259105 33933 L-258799 33891 L-258530 33891 L-258209 33891 L-257888 33933 L-257612 33933 L-256784 33849 L-256689 33807 L-256596 33680 L-256492 33554 L-256105 33428 L-255625 33344 L-255608 33301 L-255490 33259 L-255122 33175 L-255027 33133 L-254193 33049 L-254116 33007 L-253817 32965 L-253726 32922 L-253319 32838 L-253208 32754 L-252509 32712 L-252036 32670 L-251976 32628 L-251757 32544 L-251483 32501 L-251370 32459 L-250343 32417 L-249956 32375 L-249936 32333 L-249603 32291 L-249359 32249 L-248926 32207 L-248815 32165 L-248698 32122 L-248246 32038 L-247656 31996 L-247319 31954 L-245426 31912 L-245313 31828 L-245101 31786 L-243783 31744 L-243676 22270 L-243610 12922 L-243574 4291 L-243512 4291 L-243013 13680 L-242338 22944 L-242316 31491 L-242045 31407 L-241077 31407 L-240388 31365 L-240226 31322 L-239685 31280 L-239595 31238 L-238576 31196 L-237628 31112 L-237263 31154 L-237160 31196 L-236572 31196 L-236512 31196 L-236412 31154 L-235971 31070 L-235864 31028 L-235422 30986 L-234422 30859 L-234166 30733 L-234063 30607 L-233933 30522 L-233566 30438 L-232986 30354 L-232955 30312 L-232639 30270 L-230656 30228 L-230540 30186 L-230473 30186 L-230114 30144 L-228495 30101 L-228318 30101 L-228173 30101 L-227351 30144 L-227298 30186 L-227244 30186 L-226810 30186 L-225829 30228 L-225755 30228 L-224671 30186 L-224458 30186 L-223741 30101 L-223353 30059 L-223134 29975 L-222815 29891 L-222321 29807 L-222193 29765 L-221964 29680 L-221732 29596 L-221673 29554 L-221383 29512 L-221111 29428 L-220081 29386 L-218416 29344 L-217997 29301 L-217860 29259 L-217704 29259 L-217398 29217 L-217170 29133 L-217012 29091 L-216853 29007 L-216683 28922 L-216636 28880 L-216583 28838 L-216561 28838 L-216175 28796 L-215925 28796 L-215655 28796 L-215494 28796 L-215404 28796 L-213746 28796 L-213580 28838 L-213200 28796 L-212740 28796 L-212131 28712 L-211038 28670 L-210606 28628 L-210575 28586 L-210513 28544 L-210495 28501 L-208792 28459 L-208750 28417 L-208283 28375 L-208096 28333 L-208064 28249 L-207469 28207 L-207419 28165 L-207096 28122 L-207046 28080 L-206835 28038 L-206817 27996 L-206551 27912 L-206498 27870 L-206029 27828 L-205519 27744 L-205440 27744 L-205146 27701 L-205130 27659 L-205091 27617 L-205020 27575 L-204863 27533 L-203917 27533 L-203860 27533 L-203339 27533 L-203147 27491 L-203046 27491 L-202820 27449 L-202310 27449 L-201922 28586 L-201853 28586 L-201504 28544 L-201147 28501 L-200019 27280 L-199967 27196 L-199741 27154 L-199707 27112 L-199582 27028 L-199484 27028 L-199219 27028 L-198478 27070 L-197900 27070 L-197607 27070 L-196901 27070 L-196722 27028 L-196699 27028 L-196063 26986 L-195751 26944 L-195355 26944 L-195325 26901 L-195304 26859 L-195151 26817 L-194466 26817 L-194449 26817 L-194109 26817 L-193837 26775 L-193799 26733 L-193743 26649 L-193721 26607 L-193649 26565 L-193317 26522 L-193211 26480 L-193182 26396 L-192984 26354 L-192832 26312 L-191963 26270 L-191401 26186 L-191385 26186 L-191284 26144 L-191181 26186 L-191035 26186 L-190957 26186 L-190919 26144 L-190863 26101 L-190790 26059 L-190645 26017 L-190163 26017 L-189759 25975 L-188892 26017 L-188872 26017 L-188615 26017 L-188538 26017 L-188509 25975 L-188499 25891 L-188482 25849 L-188189 25807 L-188149 25765 L-188077 25722 L-188004 25680 L-187799 25638 L-187639 25512 L-187337 25386 L-187260 25217 L-187243 25091 L-187026 25007 L-186795 25007 L-186685 25049 L-186316 25091 L-186157 25091 L-185926 25091 L-185757 25091 L-185612 25049 L-185480 25007 L-184204 24922 L-183801 24838 L-183740 24796 L-183623 24712 L-183198 24670 L-183183 24586 L-183121 24544 L-182848 24459 L-182735 24417 L-182453 24333 L-182176 24291 L-181750 24207 L-181728 24165 L-181650 24122 L-181524 24080 L-180938 24038 L-180547 23996 L-180211 23954 L-179622 23912 L-179520 23912 L-179349 23870 L-179213 23870 L-178385 23828 L-177200 23786 L-177164 23744 L-177109 23744 L-176888 23701 L-176683 23701 L-176528 23701 L-176272 23659 L-176195 23617 L-175652 23575 L-175616 23533 L-175367 23491 L-174980 23449 L-174154 23407 L-173796 23365 L-173485 23365 L-173227 23322 L-173004 23280 L-172598 23238 L-172481 23196 L-172298 23154 L-172245 23154 L-172056 23112 L-171885 23070 L-171857 23028 L-171576 22986 L-171266 22944 L-171128 22901 L-170818 22859 L-170624 22859 L-170609 22817 L-169889 22817 L-169756 22733 L-169458 22691 L-169367 22649 L-168767 22649 L-168728 22607 L-168650 22565 L-168030 22522 L-167878 22438 L-167838 22396 L-167527 22354 L-167335 22312 L-167142 22228 L-167086 22144 L-166778 22101 L-166726 22059 L-166671 22101 L-166645 22101 L-166520 22101 L-165710 22059 L-165633 22017 L-165093 21975 L-164824 21933 L-164165 21891 L-163257 21849 L-163016 21807 L-162483 21765 L-162266 21722 L-161159 21765 L-161108 21765 L-160333 21765 L-159785 21722 L-159674 21680 L-159521 21596 L-159466 21554 L-159300 21512 L-158923 21470 L-158476 21428 L-158421 21386 L-158267 21344 L-157587 21301 L-157366 21259 L-156849 21217 L-156000 21133 L-155984 21091 L-154193 21049 L-153638 21007 L-153521 20965 L-152515 20922 L-152479 20880 L-152246 20880 L-152153 20880 L-152113 20880 L-151781 20838 L-151429 20796 L-151164 20712 L-150878 20670 L-150567 20586 L-150313 20501 L-150219 20459 L-149729 20417 L-149522 20375 L-148956 20333 L-148842 20375 L-148490 20333 L-148439 20333 L-148399 20333 L-147796 20249 L-147062 20165 L-146481 20080 L-146245 19996 L-145705 19870 L-145552 19786 L-145050 19744 L-144841 19659 L-144818 19659 L-144759 19617 L-143796 19617 L-143619 19575 L-143177 19533 L-143153 19449 L-142998 19407 L-142916 19407 L-142766 19449 L-142119 19449 L-142069 19407 L-140949 19365 L-139965 19322 L-139903 19280 L-139183 19238 L-138318 19196 L-137939 19154 L-137720 19154 L-136961 19112 L-136909 19070 L-136600 18986 L-135748 18986 L-135555 18944 L-135378 18901 L-135154 18901 L-135027 18859 L-134835 18859 L-134603 18817 L-134433 18859 L-134147 18817 L-133867 18817 L-133784 18775 L-133614 18733 L-133597 18649 L-133443 18607 L-133404 18565 L-132628 18522 L-132552 18522 L-132320 18438 L-131893 18396 L-131547 18354 L-130964 18312 L-130695 18312 L-130437 18312 L-130307 18228 L-130291 18186 L-130177 18144 L-130153 18101 L-129919 18059 L-129883 18017 L-128567 18017 L-128511 17975 L-127832 17891 L-127260 17891 L-127134 17891 L-126981 17891 L-126904 17891 L-126592 17807 L-126319 17765 L-126230 17680 L-126128 17680 L-125201 17638 L-125124 17638 L-124760 17638 L-124736 17596 L-124699 17554 L-123924 17470 L-123832 17428 L-123692 17386 L-123290 17344 L-123029 17344 L-122785 17386 L-122571 17344 L-122491 17344 L-122414 17344 L-122338 17344 L-122151 17386 L-122084 17386 L-121835 17386 L-121780 17344 L-121642 17301 L-121563 17217 L-121449 17175 L-121226 17133 L-121062 17091 L-121021 17049 L-120851 17007 L-120481 16965 L-120466 16922 L-120350 16880 L-119628 16838 L-119592 16796 L-119460 16796 L-119112 16754 L-118700 16754 L-118664 16754 L-118586 16712 L-118547 16670 L-118183 16628 L-117979 16586 L-117964 16544 L-117618 16501 L-117270 16501 L-116944 16501 L-116843 16459 L-116690 16459 L-116495 16417 L-116264 16417 L-116171 16417 L-116016 16417 L-115938 16417 L-115898 16375 L-115784 16333 L-115761 16291 L-115510 16291 L-115371 16207 L-114793 16080 L-113965 15996 L-113478 15912 L-113356 15870 L-113318 15828 L-113305 15786 L-113153 15701 L-113052 15617 L-112819 15575 L-112429 15491 L-112124 15449 L-112109 15407 L-111938 15365 L-111699 15280 L-111103 15280 L-110499 15238 L-110460 15238 L-110419 15238 L-110266 15196 L-110213 15154 L-110150 15112 L-110082 15070 L-110027 14986 L-110002 14944 L-109955 14901 L-109861 14817 L-109724 14775 L-109570 14733 L-109438 14691 L-109398 14691 L-109362 14649 L-109300 14607 L-109027 14522 L-108712 14480 L-108671 14396 L-108586 14354 L-108409 14312 L-108171 14270 L-107814 14228 L-107784 14186 L-107215 14144 L-107092 14101 L-106856 14059 L-106833 14059 L-106552 14017 L-106266 14017 L-106011 14017 L-105439 13975 L-105142 13933 L-105066 13891 L-104367 13849 L-104289 13807 L-104254 13765 L-104228 13722 L-104177 13638 L-103983 13596 L-103842 13512 L-103807 13470 L-103766 13428 L-103171 13386 L-102939 13344 L-102655 13638 L-102601 13891 L-102527 14186 L-102449 14438 L-102213 14354 L-101969 14312 L-101833 14270 L-101727 14228 L-101647 14186 L-101260 14101 L-101133 14059 L-100980 14017 L-100943 13975 L-100797 13933 L-100575 13891 L-100401 13849 L-100332 13807 L-99511 13722 L-99495 13722 L-99200 13680 L-98412 13638 L-98102 13638 L-97956 13596 L-97728 13554 L-97527 13470 L-96590 13428 L-96554 13386 L-96531 13344 L-96490 13259 L-96222 13217 L-95625 13175 L-95561 13133 L-95526 13091 L-95509 13049 L-94814 13049 L-94613 13049 L-94581 13049 L-94247 13049 L-94139 13007 L-93515 12922 L-93011 12880 L-92973 12796 L-92531 12796 L-92435 12754 L-92276 12754 L-91963 12754 L-91951 12754 L-91510 12796 L-91029 12838 L-90899 12838 L-90579 12838 L-90511 12796 L-90207 12796 L-90031 12754 L-89837 12712 L-89595 12628 L-89397 12544 L-89371 12459 L-88793 12417 L-88723 12375 L-88314 12333 L-88259 12291 L-88213 12249 L-87849 12207 L-87703 12165 L-87498 12122 L-87401 12122 L-87246 12080 L-87185 12038 L-87037 11954 L-86936 11912 L-86380 11912 L-86357 11996 L-86185 12038 L-85643 12080 L-85582 12080 L-85528 11996 L-85500 11912 L-85429 11870 L-85412 11786 L-85349 11744 L-85312 11659 L-85158 11617 L-84832 11575 L-84266 11533 L-84251 11491 L-84189 11407 L-84088 11322 L-84042 11322 L-83799 11280 L-83377 11280 L-83222 11280 L-81480 11196 L-80939 11154 L-79995 11112 L-79586 11070 L-79045 10986 L-78849 10944 L-78680 10901 L-78384 10859 L-78270 10817 L-78254 10817 L-78100 10775 L-77960 10733 L-77883 10649 L-77751 10649 L-77403 10649 L-77033 10691 L-76435 10691 L-76259 10691 L-76103 10649 L-75834 10607 L-75682 10607 L-75391 10733 L-75367 10817 L-75285 10901 L-75057 10986 L-74357 10944 L-74231 10901 L-73799 10859 L-73705 10817 L-72500 10817 L-72451 10775 L-72158 10775 L-71754 10733 L-71479 10649 L-71459 10607 L-71342 10565 L-71266 10522 L-71084 10480 L-70604 10438 L-70153 10354 L-69743 10312 L-69712 10270 L-69294 10228 L-69180 10228 L-69062 10228 L-69046 10228 L-68852 10186 L-68831 10101 L-68598 10059 L-68155 10017 L-67836 9933 L-67371 9933 L-67205 9891 L-67051 9849 L-66895 9849 L-66441 9849 L-66122 9849 L-66067 9891 L-65696 9891 L-65658 9933 L-65332 9933 L-65215 9891 L-65117 9849 L-64791 9765 L-64403 9722 L-64143 9680 L-63784 9596 L-63528 9554 L-61358 9512 L-61308 9470 L-61286 9428 L-60874 9428 L-60813 9428 L-60742 9470 L-60512 9470 L-60201 9428 L-59898 9344 L-59853 9301 L-59545 9259 L-59413 9217 L-59196 9175 L-58484 9133 L-58329 9133 L-58190 9091 L-58042 9091 L-58020 9091 L-57826 9049 L-57801 9007 L-57710 8965 L-57688 8922 L-57671 8880 L-57571 8838 L-56643 8796 L-56185 8796 L-55093 8712 L-54670 8712 L-54266 8670 L-54228 8628 L-53974 8586 L-53200 8501 L-53183 8459 L-53159 8417 L-52966 8375 L-52229 8333 L-51960 8291 L-51920 8249 L-51521 8165 L-51496 8122 L-50707 8080 L-50027 8038 L-48656 7996 L-48386 7954 L-48337 7912 L-47799 7828 L-47766 7786 L-47665 7701 L-47341 7659 L-47261 7617 L-46993 7617 L-46080 7575 L-45941 7575 L-45692 7491 L-45147 7491 L-44725 7449 L-44532 7407 L-44516 7407 L-44379 7322 L-44285 7280 L-44157 7238 L-43897 7196 L-43873 7112 L-43781 7070 L-43471 7028 L-43411 6986 L-43294 6986 L-42944 6986 L-42133 6986 L-41902 6901 L-41073 6901 L-40841 6817 L-40625 6775 L-40106 6775 L-39468 6733 L-39052 6691 L-38729 6649 L-38249 6607 L-37823 6607 L-37762 6565 L-37413 6565 L-37373 6522 L-37359 6480 L-37259 6396 L-37214 6396 L-36729 6354 L-35927 6354 L-35593 6354 L-34512 6312 L-34032 6270 L-34009 6228 L-33868 6186 L-33313 6144 L-32616 6101 L-32307 6059 L-32085 6017 L-31981 5975 L-31878 5891 L-31207 5849 L-31113 5807 L-31091 5807 L-31014 5765 L-30836 5765 L-30664 5765 L-30483 5722 L-30470 5680 L-30393 5638 L-30229 5596 L-29714 5554 L-29698 5512 L-29558 5512 L-29195 5470 L-29171 5470 L-29040 5428 L-29016 5386 L-28654 5344 L-28128 5259 L-28034 5217 L-27819 5133 L-27725 5091 L-27701 5049 L-27236 5007 L-27159 5007 L-26758 4965 L-26307 4965 L-25055 4922 L-25016 4880 L-24585 4838 L-24552 4796 L-23833 4754 L-23657 4712 L-23521 4670 L-23214 4628 L-23159 4586 L-23135 4501 L-23118 4417 L-22944 4375 L-22754 4333 L-22247 4333 L-21873 3996 L-21535 3617 L-21496 3280 L-20777 2986 L-20683 2944 L-20645 2901 L-20103 2901 L-20080 2859 L-19677 2817 L-19252 2775 L-18981 2775 L-18801 2733 L-18555 2649 L-18532 2607 L-18475 2522 L-17859 2480 L-17356 2438 L-16969 2438 L-16350 2480 L-16134 2480 L-15979 2522 L-14686 2438 L-14587 2396 L-14145 2312 L-13813 2270 L-13513 2186 L-13270 2144 L-12536 2059 L-11956 2017 L-11127 1975 L-11027 1933 L-10469 1891 L-10331 1849 L-8689 1807 L-8628 1807 L-8534 1807 L-7567 1807 L-7390 1765 L-7103 1765 L-6885 1765 L-6807 1722 L-6536 1722 L-6420 1680 L-6267 1638 L-5957 1596 L-5879 1554 L-5788 1554 L-5710 1512 L-5594 1512 L-5415 1470 L-5323 1428 L-5285 1386 L-4782 1386 L-4563 1344 L-4433 1344 L-4278 1301 L-4224 1259 L-4099 1259 L-3714 1217 L-3206 1175 L-3134 1133 L-2653 1091 L-2576 1049 L-2476 1049 L-2243 1007 L-1778 1007 L-1548 1007 L-1531 1007 L-1299 1007 L-1145 1007 L-1083 1007 L-890 965 L-619 880 L131 838 L1084 838 L1121 796 L1345 796 L1785 796 L2066 712 L2414 670 L3483 628 L4411 628 L4542 628 L4589 628 L4658 586 L4813 586 L4890 501 L5064 417 L5499 333 L5703 291 L5763 207 L6345 165 L6500 80" />
</svg>
