<svg xmlns="http://www.w3.org/2000/svg" version="1.1" viewBox="0 0 6500 1000">
	<path fill="none" stroke="gold" stroke-width="125" stroke-linecap="round" stroke-linejoin="round" d="M0 60519  L-811356 60519 L-811171 60493 L-810681 60441 L-810388 60415 L-810076 60363 L-809842 60336 L-809789 60284 L-809729 60232 L-809576 60206 L-809536 60154 L-809403 60128 L-809110 60102 L-808570 60102 L-807960 60076 L-807912 60076 L-807271 60050 L-807238 60050 L-806713 60050 L-806580 60024 L-806190 59972 L-805862 59919 L-805745 59867 L-805533 59815 L-804816 59815 L-804246 59789 L-804139 59789 L-803965 59763 L-803743 59711 L-803342 59685 L-803316 59633 L-802388 59581 L-802301 59529 L-802218 59476 L-802148 59424 L-801851 59398 L-801699 59346 L-799809 59372 L-799708 59372 L-799446 59372 L-799152 59398 L-799011 59346 L-798762 59346 L-798726 59320 L-798568 59294 L-798104 59242 L-797851 59216 L-797639 59164 L-797388 59138 L-797039 59112 L-796112 59059 L-796018 59007 L-795607 58981 L-794436 58929 L-793247 58903 L-793155 58851 L-793128 58799 L-792861 58747 L-792563 58695 L-792434 58642 L-792396 58590 L-791582 58590 L-791198 58616 L-790137 58642 L-790076 58642 L-789811 59164 L-789340 59659 L-789147 60154 L-788884 60649 L-788547 60623 L-788411 60597 L-787956 60571 L-787212 60545 L-787195 60519 L-787030 60467 L-786961 60467 L-786445 60441 L-785417 60441 L-785220 60415 L-784732 60389 L-784370 60363 L-783961 60363 L-783576 60389 L-781872 60389 L-781774 60389 L-781702 60389 L-781641 60389 L-781457 60363 L-781120 60363 L-780480 60336 L-780403 60310 L-780341 60310 L-780155 60284 L-780075 60284 L-779898 60258 L-779879 60232 L-779649 60232 L-779261 60206 L-778372 60206 L-778333 60180 L-778245 60154 L-778217 60102 L-777209 60076 L-777059 60024 L-777035 59998 L-776902 59972 L-776863 59946 L-775604 59919 L-775546 59919 L-775007 59893 L-774954 59893 L-774908 59893 L-774512 59867 L-774373 59841 L-774173 59815 L-774026 59815 L-773862 59815 L-773585 59841 L-773226 59841 L-772674 59815 L-772029 59789 L-771770 59737 L-771616 59711 L-771215 59685 L-771175 59659 L-771055 59633 L-770993 59659 L-770979 59659 L-770885 59659 L-770592 59633 L-770441 59529 L-770110 59476 L-770033 59424 L-769957 59398 L-769730 59320 L-769664 59268 L-769436 59216 L-769383 59164 L-769219 59138 L-768213 59112 L-768030 59086 L-767479 59059 L-767086 59007 L-766688 58981 L-765838 58929 L-765760 58903 L-765181 58877 L-764739 58877 L-764498 58851 L-764341 58851 L-763940 58799 L-763920 58799 L-763475 58773 L-763069 58747 L-762934 58695 L-762758 58642 L-762622 58590 L-762372 58538 L-761372 58512 L-761290 58486 L-761154 58460 L-761116 58434 L-760226 58408 L-760010 58382 L-759567 58356 L-759449 58330 L-759393 58304 L-758716 58304 L-758616 58278 L-758587 58278 L-757245 58252 L-756840 58225 L-756800 58199 L-755872 58173 L-755774 58147 L-755641 58121 L-755237 58095 L-755210 58069 L-755117 58043 L-754901 58017 L-754490 57965 L-753336 57913 L-753045 57861 L-753016 57808 L-752408 57782 L-752158 57730 L-752138 57704 L-751209 57678 L-751157 57626 L-751035 57600 L-751017 57548 L-750862 57522 L-750686 57470 L-750550 57444 L-750493 57418 L-750385 57391 L-750300 57365 L-750067 57339 L-749992 57313 L-749683 57287 L-749566 57261 L-749396 57235 L-749305 57209 L-749202 57209 L-749179 57183 L-749102 57183 L-749004 57131 L-748637 57105 L-748532 57079 L-748029 57053 L-747577 57027 L-747539 57001 L-747515 56974 L-747474 56948 L-747345 56922 L-747244 56896 L-746803 56870 L-746521 56844 L-745928 56818 L-745798 56792 L-745523 56740 L-745371 56714 L-745218 56688 L-745133 56636 L-745055 56610 L-744869 56584 L-744818 56584 L-744791 56557 L-744711 56531 L-744688 56505 L-744405 56453 L-743801 56401 L-742805 56375 L-742507 56349 L-741774 56323 L-741529 56297 L-741439 56271 L-740862 56245 L-740163 56219 L-739411 56193 L-739093 56167 L-738710 56114 L-738633 56088 L-737998 56062 L-737813 56036 L-737725 56036 L-737596 56036 L-737283 56010 L-737233 55984 L-737091 55958 L-737070 55932 L-736102 55906 L-735556 55880 L-735078 55880 L-735017 55880 L-734694 55880 L-734672 55854 L-734610 55854 L-734400 55828 L-734323 55802 L-734268 55776 L-734246 55750 L-734206 55724 L-734191 55697 L-733433 55671 L-733417 55645 L-732618 55619 L-732465 55593 L-731560 55567 L-731054 55541 L-730824 55489 L-730783 55489 L-730668 55463 L-730491 55437 L-729737 55463 L-729602 55437 L-729438 55411 L-729120 55385 L-728944 55333 L-727922 55280 L-727898 55228 L-727647 55202 L-727434 55150 L-726800 55124 L-726562 55072 L-726530 55020 L-726352 54968 L-726271 54916 L-726182 54890 L-726117 54837 L-725677 54785 L-725654 54759 L-725113 54733 L-724857 54707 L-724362 54681 L-723485 54655 L-723448 54629 L-723395 54603 L-723354 54577 L-723237 54551 L-722961 54525 L-722753 54473 L-722556 54420 L-722533 54368 L-722483 54316 L-722443 54290 L-722366 54264 L-721768 54212 L-721708 54186 L-721604 54160 L-721450 54134 L-720818 54108 L-720138 54082 L-719835 54029 L-719488 54003 L-719290 53977 L-719242 53925 L-718922 53899 L-718294 53873 L-718147 53847 L-718111 53821 L-718053 53795 L-717977 53743 L-717735 53743 L-717647 53717 L-717553 53691 L-717259 53665 L-717125 53639 L-717065 53612 L-717028 53560 L-716756 53560 L-715750 53534 L-715574 53508 L-715523 53508 L-715231 53482 L-715038 53430 L-714705 53404 L-714199 53378 L-713637 53326 L-713622 53274 L-713605 53248 L-713505 53195 L-713390 53143 L-713351 53091 L-713313 53065 L-713248 53065 L-713220 53039 L-713081 53065 L-712788 53065 L-712738 53065 L-712633 53065 L-712368 53039 L-711903 53013 L-711759 53013 L-711704 52961 L-711647 52935 L-711456 52909 L-711091 52883 L-710876 52883 L-710682 52883 L-710624 52883 L-710565 52831 L-710411 52805 L-710141 52778 L-709711 52909 L-709696 52909 L-709619 52883 L-709555 52857 L-709425 52674 L-709402 52648 L-709118 52622 L-709070 52596 L-709015 52570 L-708553 52544 L-708514 52544 L-708474 52518 L-708283 52492 L-707803 52466 L-707316 52440 L-707299 52414 L-707261 52388 L-707005 52362 L-706927 52309 L-706698 52283 L-706682 52231 L-706387 52179 L-705945 52153 L-705498 52127 L-704993 52101 L-704840 52075 L-704553 52049 L-704513 51997 L-704182 51971 L-703960 51945 L-703443 51892 L-703367 51866 L-703119 51814 L-702925 51762 L-702865 51736 L-702088 51710 L-702014 51710 L-701784 51684 L-701767 51684 L-701705 51658 L-701510 51632 L-701046 51632 L-701022 51606 L-700893 51606 L-699592 51606 L-699575 51606 L-699498 51580 L-699404 51580 L-699187 51580 L-699035 51554 L-698857 51580 L-698803 51606 L-698516 51632 L-698476 51632 L-698106 51632 L-697666 51632 L-697483 51632 L-697162 51606 L-696867 51606 L-696421 51554 L-696349 51528 L-695887 51475 L-695449 51449 L-695267 51423 L-693813 51371 L-693681 51345 L-693224 51293 L-692998 51267 L-692611 51215 L-692095 51163 L-691141 51111 L-690346 51058 L-689672 51032 L-689246 50980 L-688935 50954 L-688705 50876 L-688022 50798 L-688009 50720 L-687799 50615 L-687777 50589 L-687603 50537 L-686653 50511 L-686385 50459 L-685569 50433 L-685259 50381 L-685221 50355 L-685164 50303 L-684547 50277 L-683909 50224 L-682283 50198 L-681609 50172 L-680967 50172 L-680890 50172 L-680833 50172 L-680798 50172 L-680769 50146 L-680657 50094 L-680640 50068 L-680617 50042 L-680463 50016 L-680410 49964 L-680332 49938 L-680213 49912 L-680115 49886 L-679998 49860 L-679728 49807 L-679458 49781 L-679441 49729 L-679241 49703 L-679094 49651 L-678867 49625 L-678733 49599 L-678425 49573 L-678365 49547 L-678011 49495 L-677663 49469 L-677562 49443 L-677498 49390 L-677438 49364 L-677053 49312 L-676672 49286 L-676568 49260 L-676308 49234 L-676037 49182 L-675878 49156 L-675845 49130 L-675783 49104 L-675642 49078 L-675458 49052 L-675413 49026 L-675125 49026 L-675109 49000 L-674876 49000 L-674815 48973 L-674777 48973 L-674197 48947 L-674063 48921 L-674040 48817 L-674022 48635 L-674004 48426 L-673988 48218 L-673964 48009 L-673948 47853 L-673926 47670 L-673910 47488 L-673887 47384 L-673870 47279 L-673848 47201 L-673831 47149 L-673782 47071 L-673710 46993 L-673676 46862 L-673652 46758 L-673616 46654 L-673575 46550 L-673538 46498 L-673522 46393 L-673498 46315 L-673461 46263 L-673444 46185 L-673421 46133 L-673403 46081 L-673384 46028 L-673368 45976 L-673339 45898 L-673313 45820 L-673268 45794 L-673251 45742 L-673209 45716 L-673161 45664 L-673091 45611 L-673075 45559 L-673059 45507 L-672997 45481 L-672958 45455 L-672919 45429 L-672753 45403 L-672688 45377 L-672672 45351 L-672627 45299 L-672569 45273 L-672356 45247 L-672323 45221 L-672281 45194 L-672202 45168 L-671665 45142 L-671587 45116 L-671483 45064 L-671394 45038 L-671218 45012 L-670867 44986 L-670711 44960 L-670274 44934 L-670117 44908 L-669987 44882 L-669283 44830 L-669082 44804 L-668121 44751 L-667639 44725 L-667540 44725 L-667448 44699 L-667203 44673 L-667130 44647 L-666687 44595 L-666591 44569 L-666576 44543 L-666559 44517 L-666535 44491 L-666069 44465 L-665852 44439 L-665712 44413 L-665418 44387 L-665330 44360 L-665288 44334 L-665259 44308 L-665086 44282 L-665027 44256 L-664951 44230 L-664870 44204 L-664801 44204 L-664491 44178 L-664406 44152 L-664192 44126 L-664157 44100 L-663474 44074 L-663375 44048 L-663170 44022 L-663124 43996 L-662845 43970 L-662783 43943 L-662766 43891 L-662688 43865 L-662380 43813 L-662355 43787 L-662302 43735 L-662279 43709 L-662156 43683 L-662021 43631 L-661776 43605 L-661651 43605 L-661004 43579 L-660988 43579 L-660963 43579 L-660783 43526 L-660707 43500 L-660615 43474 L-660187 43448 L-659771 43422 L-659378 43370 L-659300 43344 L-659281 43318 L-658917 43292 L-658681 43266 L-658453 43240 L-658140 43214 L-658062 43188 L-657981 43136 L-657803 43083 L-657787 43057 L-657522 43005 L-657442 42979 L-657212 42953 L-656986 42927 L-656670 42927 L-656495 42901 L-656134 42901 L-655742 42875 L-655673 42823 L-655609 42797 L-655468 42745 L-655417 42719 L-655315 42666 L-654813 42640 L-654616 42614 L-654369 42588 L-654184 42562 L-653884 42536 L-653808 42510 L-653642 42458 L-652758 42432 L-652729 42380 L-652606 42328 L-652027 42302 L-651949 42275 L-651236 42275 L-650924 42275 L-650711 42275 L-650694 42275 L-650308 42275 L-649783 42223 L-649336 42197 L-649007 42171 L-648854 42145 L-648528 42145 L-648350 42119 L-648268 42119 L-648062 42067 L-647887 42041 L-646958 42015 L-646068 41989 L-646029 41963 L-645801 41963 L-645422 41937 L-644634 41911 L-644400 41885 L-644324 41859 L-643967 41832 L-643395 41780 L-643128 41754 L-642742 41728 L-642638 41728 L-642468 41728 L-641850 41728 L-641638 41728 L-641330 41728 L-641277 41702 L-641150 41676 L-641097 41650 L-640977 41624 L-640641 41572 L-639682 41546 L-639551 41494 L-639349 41468 L-638718 41442 L-638406 41415 L-637992 41389 L-637965 41363 L-637820 41337 L-637400 41311 L-636067 41311 L-636020 41285 L-635892 41233 L-635875 41207 L-635297 41155 L-635091 41129 L-635062 41103 L-635021 41077 L-634963 41051 L-634926 41025 L-634847 40998 L-634705 40972 L-634250 40946 L-634132 40920 L-633847 40894 L-633474 40868 L-633378 40842 L-633051 40816 L-632697 40790 L-632527 40764 L-632479 40738 L-632370 40712 L-632281 40686 L-632253 40660 L-632177 40608 L-631874 40581 L-631840 40529 L-631768 40503 L-631400 40477 L-631065 40451 L-630984 40451 L-630764 40425 L-630593 40399 L-630565 40373 L-630068 40347 L-629519 40295 L-628638 40269 L-628540 40217 L-628463 40191 L-628188 40164 L-627941 40112 L-627867 40086 L-627805 40034 L-627687 40008 L-627644 39982 L-627534 39956 L-627457 39904 L-626757 39878 L-626511 39852 L-626471 39826 L-626315 39800 L-625716 39800 L-625489 39800 L-625397 39800 L-624922 39800 L-624324 39747 L-623805 39721 L-623784 39695 L-623638 39669 L-623318 39669 L-622776 39669 L-622544 39669 L-622374 39669 L-621887 39643 L-621660 39617 L-621575 39591 L-621229 39565 L-620903 39565 L-620380 39539 L-620052 39513 L-619452 39487 L-619254 39435 L-619202 39409 L-619162 39383 L-618880 39357 L-618196 39304 L-617886 39278 L-617861 39226 L-617670 39200 L-617447 39174 L-617361 39148 L-616697 39096 L-616673 39070 L-616451 39018 L-616121 38992 L-615769 38940 L-615564 38913 L-615332 38861 L-615074 38835 L-614884 38783 L-614837 38757 L-614610 38731 L-614575 38705 L-614419 38679 L-614205 38653 L-614031 38627 L-613940 38601 L-613663 38575 L-613419 38549 L-613104 38523 L-612678 38523 L-612640 38523 L-612157 38523 L-611924 38523 L-611712 38497 L-611486 38470 L-610936 38470 L-610689 38444 L-609855 38444 L-609799 38418 L-609777 38392 L-609619 38366 L-609158 38340 L-609117 38314 L-608777 38262 L-608644 38236 L-608421 38210 L-607849 38184 L-607377 38158 L-607182 38132 L-606990 38106 L-606800 38080 L-606698 38053 L-606330 38027 L-606284 38001 L-606202 37975 L-604909 37949 L-604860 37923 L-604592 37923 L-604447 37923 L-603896 37923 L-603779 37897 L-603698 37871 L-603338 37845 L-603115 37819 L-602833 37793 L-602504 37741 L-601996 37715 L-601884 37689 L-601805 37663 L-601641 37636 L-601346 37636 L-600878 37636 L-600681 37663 L-600630 37663 L-599981 37636 L-599859 37610 L-599405 37610 L-599369 37584 L-598901 37558 L-598790 37532 L-598774 37506 L-598558 37506 L-598377 37480 L-597845 37480 L-596815 37480 L-596616 37454 L-596158 37428 L-595209 37376 L-595111 37350 L-594757 37298 L-594696 37272 L-594682 37246 L-594646 37219 L-594277 37193 L-594157 37167 L-593915 37141 L-593751 37115 L-593564 37089 L-593443 37063 L-592372 37011 L-591514 36985 L-591302 36933 L-591205 36907 L-591031 36855 L-590697 36829 L-590625 36802 L-590568 36776 L-590392 36776 L-590004 36750 L-589768 36724 L-589657 36698 L-589540 36672 L-588559 36646 L-588534 36620 L-587939 36568 L-587907 36568 L-587758 36542 L-587474 36516 L-586562 36516 L-585616 36516 L-585463 36490 L-585360 36490 L-585229 36464 L-585086 36438 L-585059 36412 L-584945 36385 L-584727 36359 L-584045 36333 L-583916 36307 L-583613 36281 L-583373 36229 L-583040 36203 L-582401 36177 L-582059 36125 L-581997 36099 L-581842 36099 L-580920 36099 L-580450 36099 L-580406 36099 L-580393 36073 L-580352 36047 L-580330 36021 L-580303 35995 L-580159 35968 L-579736 35942 L-579401 35942 L-579210 35916 L-578782 35916 L-578594 35890 L-578205 35838 L-577670 35812 L-577298 35786 L-577276 35786 L-577026 35760 L-576908 35734 L-576832 35708 L-576697 35682 L-576657 35656 L-576577 35630 L-576183 35604 L-575687 35578 L-575575 35525 L-575402 35499 L-575094 35473 L-574646 35447 L-574323 35421 L-574181 35369 L-573754 35317 L-573600 35265 L-573545 35213 L-572731 35187 L-572712 35161 L-572340 35135 L-572283 35135 L-571154 35108 L-571086 35108 L-570528 35082 L-570333 35056 L-570197 35030 L-569963 35004 L-569616 34978 L-569582 34926 L-569546 34900 L-569478 34848 L-569129 34822 L-568957 34796 L-568472 34770 L-568456 34744 L-568131 34718 L-567973 34691 L-566832 34639 L-566808 34613 L-566616 34561 L-566422 34535 L-566172 34509 L-566155 34483 L-565135 34457 L-564837 34431 L-564762 34405 L-564625 34353 L-564450 34327 L-563873 34274 L-563657 34248 L-563594 34222 L-563463 34196 L-563426 34144 L-562903 34118 L-562765 44387 L-562751 44387 L-562728 44387 L-562707 44387 L-562480 34092 L-561704 34092 L-561663 34092 L-561295 34092 L-561217 34066 L-561165 34040 L-560492 34014 L-559749 33988 L-559324 33988 L-558877 33962 L-557815 33936 L-557503 33884 L-557093 33884 L-557021 33857 L-556497 33857 L-556402 33857 L-556385 33857 L-555940 33831 L-555754 33779 L-554974 33727 L-554302 33701 L-553890 33623 L-553658 33571 L-553517 33545 L-553436 33493 L-553415 33467 L-553339 33467 L-553211 33440 L-552894 33467 L-552670 33467 L-552345 33440 L-552283 33440 L-551913 33440 L-551880 33440 L-551671 33440 L-551003 33440 L-550926 33440 L-550768 33388 L-550657 33388 L-550331 33362 L-550176 33336 L-549835 33336 L-549778 33284 L-549440 33232 L-549236 33206 L-549183 33154 L-547807 33128 L-547677 33102 L-547244 33076 L-546923 33050 L-546096 32997 L-545972 32971 L-545241 32919 L-545086 32867 L-545045 32841 L-544991 32815 L-544968 32789 L-544854 32763 L-544558 32737 L-544268 32711 L-544213 32685 L-544093 32659 L-544062 32633 L-543963 32606 L-543519 32606 L-543367 32580 L-542532 32580 L-541990 32554 L-541655 32554 L-541640 32528 L-541564 32502 L-541448 32476 L-541253 32450 L-540989 32424 L-540154 32398 L-540058 32372 L-539536 32346 L-539495 32320 L-539395 32294 L-538567 32294 L-538432 32268 L-538093 32268 L-537539 32242 L-537160 32216 L-536997 32189 L-536687 32163 L-535874 32137 L-535568 32111 L-535300 32111 L-534978 32111 L-534657 32137 L-534382 32137 L-533553 32085 L-533458 32059 L-533366 31981 L-533261 31903 L-532874 31825 L-532394 31772 L-532378 31746 L-532259 31720 L-531891 31668 L-531796 31642 L-530962 31590 L-530885 31564 L-530586 31538 L-530495 31512 L-530088 31460 L-529978 31408 L-529278 31382 L-528805 31356 L-528745 31329 L-528526 31277 L-528253 31251 L-528140 31225 L-527112 31199 L-526726 31173 L-526706 31147 L-526373 31121 L-526128 31095 L-525695 31069 L-525585 31043 L-525467 31017 L-525015 30965 L-524425 30939 L-524088 30912 L-522196 30886 L-522082 30834 L-521870 30808 L-520552 30782 L-520445 24918 L-520379 19132 L-520343 13790 L-520281 13790 L-519782 19602 L-519107 25335 L-519085 30626 L-518815 30574 L-517846 30574 L-517157 30548 L-516995 30522 L-516454 30495 L-516365 30469 L-515345 30443 L-514398 30391 L-514032 30417 L-513929 30443 L-513341 30443 L-513282 30443 L-513181 30417 L-512741 30365 L-512633 30339 L-512192 30313 L-511192 30235 L-510935 30157 L-510833 30078 L-510702 30026 L-510336 29974 L-509755 29922 L-509724 29896 L-509408 29870 L-507425 29844 L-507310 29818 L-507242 29818 L-506883 29792 L-505265 29766 L-505087 29766 L-504943 29766 L-504121 29792 L-504068 29818 L-504013 29818 L-503579 29818 L-502599 29844 L-502525 29844 L-501440 29818 L-501227 29818 L-500511 29766 L-500122 29740 L-499904 29688 L-499584 29635 L-499090 29583 L-498963 29557 L-498734 29505 L-498501 29453 L-498442 29427 L-498153 29401 L-497881 29349 L-496851 29323 L-495186 29297 L-494766 29271 L-494629 29244 L-494473 29244 L-494168 29218 L-493940 29166 L-493781 29140 L-493622 29088 L-493453 29036 L-493405 29010 L-493352 28984 L-493330 28984 L-492944 28958 L-492695 28958 L-492424 28958 L-492263 28958 L-492174 28958 L-490515 28958 L-490350 28984 L-489970 28958 L-489510 28958 L-488900 28906 L-487807 28880 L-487376 28854 L-487345 28827 L-487282 28801 L-487265 28775 L-485561 28749 L-485519 28723 L-485053 28697 L-484866 28671 L-484834 28619 L-484238 28593 L-484189 28567 L-483866 28541 L-483815 28515 L-483605 28489 L-483587 28463 L-483320 28410 L-483268 28384 L-482799 28358 L-482288 28306 L-482210 28306 L-481916 28280 L-481899 28254 L-481860 28228 L-481789 28202 L-481632 28176 L-480686 28176 L-480630 28176 L-480109 28176 L-479916 28150 L-479815 28150 L-479590 28124 L-479080 28124 L-478692 28827 L-478622 28827 L-478274 28801 L-477917 28775 L-476788 28020 L-476736 27967 L-476510 27941 L-476476 27915 L-476352 27863 L-476253 27863 L-475988 27863 L-475248 27889 L-474669 27889 L-474376 27889 L-473670 27889 L-473491 27863 L-473468 27863 L-472832 27837 L-472521 27811 L-472124 27811 L-472095 27785 L-472074 27759 L-471920 27733 L-471235 27733 L-471218 27733 L-470878 27733 L-470606 27707 L-470569 27681 L-470513 27629 L-470491 27603 L-470419 27577 L-470087 27550 L-469981 27524 L-469952 27472 L-469754 27446 L-469601 27420 L-468733 27394 L-468170 27342 L-468154 27342 L-468053 27316 L-467951 27342 L-467804 27342 L-467726 27342 L-467688 27316 L-467633 27290 L-467559 27264 L-467414 27238 L-466933 27238 L-466528 27212 L-465662 27238 L-465642 27238 L-465384 27238 L-465308 27238 L-465279 27212 L-465268 27160 L-465251 27133 L-464958 27107 L-464919 27081 L-464847 27055 L-464773 27029 L-464568 27003 L-464408 26925 L-464107 26847 L-464029 26743 L-464012 26664 L-463796 26612 L-463565 26612 L-463455 26638 L-463085 26664 L-462927 26664 L-462695 26664 L-462527 26664 L-462382 26638 L-462250 26612 L-460974 26560 L-460570 26508 L-460510 26482 L-460393 26430 L-459968 26404 L-459952 26352 L-459890 26326 L-459617 26273 L-459505 26247 L-459222 26195 L-458945 26169 L-458520 26117 L-458498 26091 L-458419 26065 L-458294 26039 L-457707 26013 L-457316 25987 L-456980 25961 L-456391 25935 L-456289 25935 L-456119 25909 L-455982 25909 L-455155 25882 L-453969 25856 L-453933 25830 L-453878 25830 L-453657 25804 L-453452 25804 L-453298 25804 L-453041 25778 L-452965 25752 L-452422 25726 L-452385 25700 L-452137 25674 L-451749 25648 L-450923 25622 L-450565 25596 L-450255 25596 L-449997 25570 L-449773 25544 L-449367 25518 L-449250 25492 L-449067 25465 L-449014 25465 L-448825 25439 L-448655 25413 L-448626 25387 L-448345 25361 L-448035 25335 L-447897 25309 L-447587 25283 L-447393 25283 L-447378 25257 L-446659 25257 L-446525 25205 L-446227 25179 L-446137 25153 L-445536 25153 L-445498 25127 L-445419 25101 L-444799 25075 L-444648 25022 L-444607 24996 L-444296 24970 L-444105 24944 L-443912 24892 L-443856 24840 L-443547 24814 L-443495 24788 L-443440 24814 L-443415 24814 L-443290 24814 L-442479 24788 L-442403 24762 L-441862 24736 L-441593 24710 L-440934 24684 L-440026 24658 L-439785 24632 L-439253 24605 L-439036 24579 L-437928 24605 L-437878 24605 L-437102 24605 L-436554 24579 L-436443 24553 L-436291 24501 L-436235 24475 L-436070 24449 L-435693 24423 L-435245 24397 L-435190 24371 L-435036 24345 L-434356 24319 L-434136 24293 L-433618 24267 L-432769 24215 L-432753 24188 L-430962 24162 L-430408 24136 L-430290 24110 L-429285 24084 L-429248 24058 L-429015 24058 L-428923 24058 L-428883 24058 L-428551 24032 L-428199 24006 L-427934 23954 L-427647 23928 L-427336 23876 L-427082 23824 L-426988 23798 L-426498 23771 L-426291 23745 L-425725 23719 L-425611 23745 L-425260 23719 L-425209 23719 L-425168 23719 L-424565 23667 L-423831 23615 L-423250 23563 L-423014 23511 L-422474 23433 L-422321 23381 L-421820 23354 L-421610 23302 L-421587 23302 L-421528 23276 L-420566 23276 L-420388 23250 L-419946 23224 L-419922 23172 L-419767 23146 L-419685 23146 L-419535 23172 L-418888 23172 L-418838 23146 L-417718 23120 L-416734 23094 L-416673 23068 L-415952 23042 L-415087 23016 L-414708 22990 L-414490 22990 L-413730 22964 L-413678 22937 L-413369 22885 L-412518 22885 L-412324 22859 L-412148 22833 L-411923 22833 L-411797 22807 L-411605 22807 L-411372 22781 L-411202 22807 L-410916 22781 L-410637 22781 L-410554 22755 L-410383 22729 L-410367 22677 L-410212 22651 L-410173 22625 L-409398 22599 L-409321 22599 L-409089 22547 L-408662 22520 L-408317 22494 L-407734 22468 L-407465 22468 L-407206 22468 L-407076 22416 L-407060 22390 L-406946 22364 L-406923 22338 L-406689 22312 L-406653 22286 L-405336 22286 L-405281 22260 L-404602 22208 L-404029 22208 L-403904 22208 L-403751 22208 L-403674 22208 L-403362 22156 L-403089 22130 L-403000 22077 L-402898 22077 L-401970 22051 L-401894 22051 L-401530 22051 L-401505 22025 L-401469 21999 L-400693 21947 L-400601 21921 L-400461 21895 L-400060 21869 L-399798 21869 L-399555 21895 L-399340 21869 L-399260 21869 L-399184 21869 L-399107 21869 L-398920 21895 L-398854 21895 L-398604 21895 L-398549 21869 L-398412 21843 L-398332 21791 L-398219 21765 L-397995 21739 L-397831 21713 L-397790 21686 L-397621 21660 L-397250 21634 L-397235 21608 L-397119 21582 L-396398 21556 L-396362 21530 L-396229 21530 L-395881 21504 L-395470 21504 L-395434 21504 L-395356 21478 L-395317 21452 L-394953 21426 L-394748 21400 L-394733 21374 L-394388 21348 L-394039 21348 L-393714 21348 L-393612 21322 L-393459 21322 L-393265 21296 L-393033 21296 L-392941 21296 L-392785 21296 L-392708 21296 L-392667 21270 L-392554 21243 L-392530 21217 L-392280 21217 L-392141 21165 L-391563 21087 L-390735 21035 L-390247 20983 L-390126 20957 L-390087 20931 L-390074 20905 L-389922 20853 L-389821 20800 L-389588 20774 L-389198 20722 L-388894 20696 L-388878 20670 L-388707 20644 L-388469 20592 L-387872 20592 L-387268 20566 L-387229 20566 L-387188 20566 L-387035 20540 L-386982 20514 L-386920 20488 L-386851 20462 L-386797 20409 L-386772 20383 L-386725 20357 L-386630 20305 L-386493 20279 L-386340 20253 L-386208 20227 L-386167 20227 L-386131 20201 L-386069 20175 L-385796 20123 L-385482 20097 L-385441 20045 L-385356 20019 L-385178 19992 L-384941 19966 L-384583 19940 L-384553 19914 L-383984 19888 L-383861 19862 L-383625 19836 L-383603 19836 L-383321 19810 L-383036 19810 L-382780 19810 L-382208 19784 L-381912 19758 L-381836 19732 L-381137 19706 L-381059 19680 L-381024 19654 L-380998 19628 L-380946 19575 L-380752 19549 L-380612 19497 L-380576 19471 L-380536 19445 L-379940 19419 L-379708 19393 L-379425 19575 L-379370 19732 L-379296 19914 L-379218 20071 L-378982 20019 L-378738 19992 L-378603 19966 L-378496 19940 L-378416 19914 L-378029 19862 L-377902 19836 L-377750 19810 L-377712 19784 L-377566 19758 L-377344 19732 L-377171 19706 L-377102 19680 L-376280 19628 L-376264 19628 L-375969 19602 L-375182 19575 L-374872 19575 L-374726 19549 L-374497 19523 L-374297 19471 L-373360 19445 L-373323 19419 L-373300 19393 L-373260 19341 L-372991 19315 L-372394 19289 L-372331 19263 L-372295 19237 L-372278 19211 L-371583 19211 L-371382 19211 L-371350 19211 L-371017 19211 L-370909 19185 L-370284 19132 L-369780 19106 L-369743 19054 L-369301 19054 L-369204 19028 L-369046 19028 L-368732 19028 L-368720 19028 L-368280 19054 L-367798 19080 L-367669 19080 L-367349 19080 L-367280 19054 L-366976 19054 L-366800 19028 L-366607 19002 L-366364 18950 L-366166 18898 L-366141 18846 L-365563 18820 L-365493 18794 L-365083 18768 L-365029 18741 L-364983 18715 L-364619 18689 L-364472 18663 L-364267 18637 L-364171 18637 L-364016 18611 L-363954 18585 L-363806 18533 L-363706 18507 L-363149 18507 L-363127 18559 L-362955 18585 L-362413 18611 L-362352 18611 L-362298 18559 L-362269 18507 L-362198 18481 L-362182 18429 L-362118 18403 L-362082 18351 L-361927 18324 L-361601 18298 L-361035 18272 L-361021 18246 L-360959 18194 L-360857 18142 L-360811 18142 L-360568 18116 L-360146 18116 L-359992 18116 L-358250 18064 L-357708 18038 L-356765 18012 L-356356 17986 L-355814 17934 L-355618 17908 L-355449 17881 L-355154 17855 L-355039 17829 L-355024 17829 L-354869 17803 L-354729 17777 L-354653 17725 L-354521 17725 L-354173 17725 L-353802 17751 L-353204 17751 L-353028 17751 L-352872 17725 L-352603 17699 L-352452 17699 L-352161 17777 L-352137 17829 L-352054 17881 L-351826 17934 L-351127 17908 L-351000 17881 L-350569 17855 L-350475 17829 L-349270 17829 L-349221 17803 L-348927 17803 L-348524 17777 L-348248 17725 L-348229 17699 L-348111 17673 L-348035 17647 L-347853 17621 L-347373 17595 L-346922 17543 L-346512 17517 L-346481 17491 L-346063 17464 L-345949 17464 L-345831 17464 L-345816 17464 L-345621 17438 L-345600 17386 L-345368 17360 L-344924 17334 L-344605 17282 L-344140 17282 L-343975 17256 L-343820 17230 L-343664 17230 L-343211 17230 L-342892 17230 L-342837 17256 L-342466 17256 L-342428 17282 L-342101 17282 L-341985 17256 L-341886 17230 L-341560 17178 L-341173 17152 L-340912 17126 L-340554 17074 L-340297 17047 L-338127 17021 L-338078 16995 L-338055 16969 L-337644 16969 L-337582 16969 L-337512 16995 L-337281 16995 L-336970 16969 L-336667 16917 L-336623 16891 L-336315 16865 L-336182 16839 L-335965 16813 L-335253 16787 L-335098 16787 L-334960 16761 L-334811 16761 L-334790 16761 L-334596 16735 L-334570 16709 L-334479 16683 L-334457 16657 L-334441 16630 L-334341 16604 L-333412 16578 L-332954 16578 L-331862 16526 L-331440 16526 L-331036 16500 L-330997 16474 L-330744 16448 L-329969 16396 L-329953 16370 L-329928 16344 L-329735 16318 L-328999 16292 L-328730 16266 L-328689 16240 L-328290 16187 L-328265 16161 L-327476 16135 L-326796 16109 L-325425 16083 L-325155 16057 L-325106 16031 L-324569 15979 L-324536 15953 L-324434 15901 L-324110 15875 L-324031 15849 L-323762 15849 L-322849 15823 L-322711 15823 L-322462 15770 L-321916 15770 L-321494 15744 L-321301 15718 L-321286 15718 L-321148 15666 L-321054 15640 L-320927 15614 L-320667 15588 L-320642 15536 L-320551 15510 L-320241 15484 L-320180 15458 L-320063 15458 L-319714 15458 L-318903 15458 L-318672 15406 L-317843 15406 L-317610 15353 L-317394 15327 L-316875 15327 L-316237 15301 L-315821 15275 L-315499 15249 L-315018 15223 L-314592 15223 L-314531 15197 L-314183 15197 L-314142 15171 L-314128 15145 L-314029 15093 L-313983 15093 L-313498 15067 L-312697 15067 L-312362 15067 L-311281 15041 L-310801 15015 L-310778 14989 L-310638 14962 L-310082 14936 L-309386 14910 L-309077 14884 L-308855 14858 L-308750 14832 L-308648 14780 L-307976 14754 L-307882 14728 L-307860 14728 L-307783 14702 L-307605 14702 L-307433 14702 L-307252 14676 L-307239 14650 L-307163 14624 L-306998 14598 L-306483 14572 L-306468 14545 L-306327 14545 L-305965 14519 L-305940 14519 L-305810 14493 L-305785 14467 L-305423 14441 L-304897 14389 L-304804 14363 L-304588 14311 L-304495 14285 L-304470 14259 L-304006 14233 L-303929 14233 L-303527 14207 L-303076 14207 L-301824 14181 L-301786 14155 L-301354 14129 L-301321 14102 L-300602 14076 L-300426 14050 L-300290 14024 L-299984 13998 L-299929 13972 L-299904 13920 L-299888 13868 L-299713 13842 L-299524 13816 L-299016 13816 L-298642 13607 L-298304 13373 L-298265 13164 L-297546 12982 L-297453 12956 L-297414 12930 L-296872 12930 L-296849 12904 L-296447 12878 L-296021 12851 L-295750 12851 L-295570 12825 L-295325 12773 L-295301 12747 L-295245 12695 L-294628 12669 L-294125 12643 L-293738 12643 L-293119 12669 L-292903 12669 L-292748 12695 L-291456 12643 L-291356 12617 L-290914 12565 L-290583 12539 L-290282 12487 L-290040 12461 L-289305 12408 L-288726 12382 L-287896 12356 L-287796 12330 L-287238 12304 L-287100 12278 L-285459 12252 L-285398 12252 L-285304 12252 L-284337 12252 L-284159 12226 L-283872 12226 L-283654 12226 L-283576 12200 L-283305 12200 L-283190 12174 L-283037 12148 L-282726 12122 L-282648 12096 L-282557 12096 L-282480 12070 L-282363 12070 L-282184 12044 L-282092 12017 L-282054 11991 L-281551 11991 L-281332 11965 L-281203 11965 L-281048 11939 L-280993 11913 L-280869 11913 L-280484 11887 L-279975 11861 L-279903 11835 L-279423 11809 L-279346 11783 L-279245 11783 L-279012 11757 L-278547 11757 L-278317 11757 L-278301 11757 L-278069 11757 L-277914 11757 L-277852 11757 L-277659 11731 L-277389 11679 L-276637 11653 L-275684 11653 L-275648 11627 L-275423 11627 L-274983 11627 L-274702 11574 L-274354 11548 L-273285 11522 L-272357 11522 L-272226 11522 L-272180 11522 L-272110 11496 L-271956 11496 L-271878 11444 L-271705 11392 L-271270 11340 L-271066 11314 L-271005 11262 L-270423 11236 L-270269 11183 L-270153 11157 L-270113 11131 L-269943 11105 L-269806 11079 L-269596 11027 L-269518 11001 L-269495 10975 L-269286 10923 L-268876 10897 L-268852 10871 L-268628 10845 L-268483 10819 L-268448 10793 L-268435 10767 L-268412 10740 L-268179 10714 L-267994 10688 L-267776 10662 L-267751 10636 L-267062 10610 L-266958 10584 L-266923 10558 L-266902 10532 L-266708 10506 L-266655 10480 L-266538 10428 L-266456 10428 L-266345 10402 L-266031 10376 L-265571 10350 L-265316 10323 L-265082 10271 L-264952 10245 L-264600 10219 L-264541 10193 L-264388 10167 L-263816 10115 L-263729 10089 L-263576 10037 L-263280 9985 L-262910 9933 L-262607 9880 L-262530 9854 L-262125 9828 L-261957 9828 L-261813 9828 L-261273 9828 L-261213 9828 L-261197 9776 L-261031 9750 L-260825 9724 L-260750 9724 L-260657 9698 L-260247 9672 L-260232 9646 L-260208 9646 L-260015 9620 L-259939 9854 L-259768 10089 L-259706 10297 L-259690 10532 L-259176 10506 L-258955 10480 L-258336 10428 L-258082 10402 L-257888 10376 L-257849 10350 L-257775 10350 L-257710 10350 L-257060 10350 L-257021 10376 L-256847 10376 L-256781 10376 L-256107 10376 L-255718 10323 L-255456 10297 L-255218 10271 L-255140 10219 L-255125 10167 L-254923 10141 L-254552 10089 L-254327 10063 L-253691 10037 L-253671 10037 L-253284 10011 L-253190 10011 L-253132 9985 L-252856 9959 L-252547 9959 L-252470 9933 L-251618 9959 L-251276 10089 L-250839 10245 L-250405 10376 L-249910 10506 L-249760 10480 L-249492 10506 L-248254 10532 L-248197 10584 L-246433 10610 L-246243 10584 L-245233 10558 L-245082 10532 L-244706 10584 L-244385 10636 L-243780 10688 L-243710 10740 L-243533 10714 L-242705 10688 L-242566 10662 L-242179 10636 L-241995 10610 L-241951 10584 L-241831 10558 L-241621 10532 L-241174 10480 L-240826 10454 L-240694 10428 L-240285 10402 L-239934 10402 L-239649 10376 L-239456 10350 L-239301 10350 L-239137 10323 L-239069 10297 L-238969 10297 L-238735 10271 L-238619 10271 L-238566 10245 L-238024 10245 L-237560 10219 L-236378 10219 L-236244 10219 L-236220 10219 L-236167 10219 L-235499 10219 L-234465 10167 L-234271 10141 L-234091 10115 L-233939 10115 L-233899 10089 L-233884 10089 L-233822 10063 L-233497 10037 L-232337 10011 L-232143 9985 L-231966 9959 L-230852 9933 L-229992 9906 L-229886 9906 L-229412 9880 L-229220 9880 L-226898 9854 L-226820 9828 L-226699 9776 L-226665 9750 L-226627 9698 L-226533 9620 L-226317 9568 L-225736 9516 L-225350 9489 L-224577 9463 L-224499 9437 L-223802 9437 L-223260 9437 L-223219 9411 L-223089 9411 L-222625 9385 L-222586 9359 L-222452 9333 L-222084 9307 L-222054 9281 L-221904 9281 L-221503 9255 L-219679 9281 L-218872 9255 L-218154 9255 L-218137 9255 L-217823 9203 L-217262 9177 L-216760 9151 L-216241 9125 L-216220 9099 L-214476 9072 L-214307 9046 L-214111 9020 L-213217 8994 L-212699 8942 L-212488 8916 L-212230 8890 L-211521 8864 L-210571 8838 L-209912 8812 L-209873 8760 L-209587 8734 L-209504 8708 L-209409 8708 L-209277 8682 L-209200 8682 L-208465 8682 L-208127 8655 L-208078 8682 L-207822 8682 L-207536 8655 L-207110 8655 L-206530 8629 L-206271 8629 L-206120 8603 L-205872 8603 L-205834 8603 L-205037 8577 L-204999 8551 L-204822 8551 L-204413 8499 L-204184 8499 L-204108 8499 L-203977 8499 L-203860 8473 L-203512 8447 L-203449 8421 L-203296 8395 L-202556 8369 L-202444 8343 L-202274 8317 L-202235 8291 L-201940 8291 L-201539 8291 L-201363 8291 L-201268 8291 L-200959 8265 L-200157 8238 L-199699 8186 L-199179 8160 L-198690 8134 L-197995 8108 L-196948 8082 L-196679 8082 L-196625 8056 L-196465 8056 L-196213 8056 L-195967 8030 L-195888 8004 L-195674 7952 L-195362 7926 L-194899 7874 L-194884 7848 L-194588 7848 L-194575 7821 L-193584 7795 L-192911 7769 L-192576 7717 L-191960 7717 L-191823 7691 L-191184 7665 L-191054 7639 L-190103 7587 L-190004 7535 L-189444 7509 L-189035 7509 L-188607 7509 L-188516 7483 L-187681 7483 L-187318 7483 L-187278 7509 L-187146 7535 L-186969 7535 L-186753 7535 L-186699 7509 L-186542 7457 L-186289 7431 L-185189 7405 L-185112 7378 L-184892 7352 L-184761 7300 L-184725 7274 L-184531 7248 L-184432 7222 L-183948 7196 L-183664 7170 L-183504 7144 L-183409 7092 L-183137 7066 L-182867 7040 L-182851 6935 L-182713 6857 L-182575 6779 L-182248 6675 L-181939 6623 L-181898 6597 L-181822 6544 L-181707 6518 L-180857 6466 L-180530 6440 L-180199 6414 L-180066 6414 L-179850 6414 L-179834 6414 L-179153 6414 L-179060 6362 L-179036 6336 L-179021 6284 L-178982 6258 L-178570 6206 L-178301 6180 L-178261 6154 L-177893 6154 L-177683 6127 L-176600 6127 L-176584 6101 L-176555 6075 L-176535 6075 L-176158 6023 L-175903 5997 L-175655 5945 L-175516 5893 L-175384 5867 L-175052 5841 L-174959 5815 L-174898 5789 L-174340 5763 L-174279 5737 L-174123 5710 L-173928 5684 L-173736 5658 L-173721 5632 L-173682 5606 L-173643 5580 L-173372 5554 L-173249 5528 L-173217 5502 L-173117 5502 L-172962 5502 L-172821 5502 L-172536 5476 L-172211 5476 L-171515 5450 L-171492 5450 L-170983 5450 L-170137 5450 L-169774 5424 L-169619 5398 L-169015 5398 L-168845 5398 L-168785 5398 L-168729 5372 L-167674 5346 L-167655 5346 L-166750 5346 L-166728 5346 L-166561 5320 L-166319 5320 L-166269 5293 L-166214 5241 L-166077 5215 L-166037 5189 L-165109 5163 L-165054 5163 L-164932 5163 L-164860 5163 L-164744 5163 L-164566 5189 L-163583 5163 L-163444 5163 L-163326 5111 L-163032 5059 L-162785 5033 L-162748 5007 L-162693 5033 L-162672 5033 L-162539 5033 L-162460 5033 L-162322 5007 L-161699 5007 L-161533 4981 L-161068 4981 L-160892 4929 L-160875 4903 L-160815 4876 L-160698 4850 L-160216 4824 L-159520 4798 L-159147 4772 L-158978 4746 L-158012 4720 L-157857 4694 L-157679 4694 L-157587 4668 L-157331 4668 L-157161 4668 L-156514 4642 L-156503 4642 L-155923 4616 L-155785 4616 L-155729 4564 L-154994 4538 L-154956 4512 L-154878 4512 L-154236 4486 L-153462 4486 L-153369 4459 L-153320 4459 L-153305 4433 L-153269 4433 L-153253 4381 L-153190 4355 L-153174 4329 L-153154 4329 L-152999 4303 L-152960 4277 L-152944 4251 L-152905 4225 L-152765 4199 L-152689 4173 L-152324 4147 L-151976 4121 L-151203 4095 L-150600 4069 L-150404 4043 L-150174 4043 L-150036 4016 L-149398 4016 L-149109 3990 L-149087 3990 L-148627 3964 L-148394 3964 L-148339 3938 L-148301 3912 L-147798 3886 L-147248 3860 L-146460 3834 L-145337 3834 L-144442 3808 L-144354 3808 L-144055 3782 L-143983 3756 L-143867 3730 L-142691 3704 L-142343 3678 L-142320 3652 L-141801 3626 L-141654 3599 L-141546 3573 L-141337 3547 L-141182 3521 L-141159 3495 L-140965 3469 L-140889 3443 L-140745 3417 L-139944 3391 L-139798 3365 L-139518 3339 L-139341 3313 L-139031 3287 L-138219 3261 L-137291 3261 L-135699 3235 L-135456 3209 L-134815 3182 L-134619 3156 L-134542 3130 L-134024 3104 L-133792 3104 L-133769 3078 L-133637 3078 L-133298 3052 L-133287 3026 L-133071 3000 L-133034 2974 L-132492 2948 L-131963 2896 L-131895 2870 L-131602 2844 L-131055 2792 L-131019 2765 L-130967 2739 L-130867 2687 L-130635 2687 L-130055 2687 L-129957 2713 L-129883 2713 L-129551 2687 L-128801 2661 L-128762 2635 L-128082 2635 L-127928 2635 L-127601 2609 L-127385 2583 L-127154 2583 L-126857 2557 L-126611 2531 L-126260 2505 L-126207 2479 L-125448 2453 L-124754 2401 L-124404 2348 L-123940 2322 L-123307 2296 L-122898 2270 L-122820 2296 L-122394 2296 L-121751 2270 L-121582 2270 L-120840 2244 L-120653 2218 L-120358 2192 L-119786 2166 L-119760 2140 L-118741 2140 L-118254 2114 L-118161 2114 L-118100 2088 L-117812 2062 L-117526 2036 L-117464 2010 L-117284 2010 L-116573 1984 L-116398 1958 L-116199 1931 L-116047 1905 L-115956 1879 L-115894 1853 L-115352 1853 L-115041 1827 L-114950 1775 L-114872 1723 L-114305 1697 L-114214 1697 L-113959 1645 L-113633 1593 L-113595 1514 L-113441 1436 L-113209 1410 L-112887 1384 L-111754 1358 L-111555 1332 L-111029 1306 L-110785 1306 L-110539 1280 L-110459 1254 L-110439 1202 L-110362 1176 L-110307 1124 L-110229 1097 L-110190 1071 L-110012 1019 L-109975 993 L-109743 967 L-108505 941 L-108179 915 L-108139 863 L-107357 837 L-107210 811 L-106219 785 L-106012 785 L-105587 785 L-105459 785 L-105055 811 L-104967 785 L-104310 759 L-103603 733 L-102994 707 L-102801 681 L-102568 628 L-101950 602 L-101654 550 L-101214 524 L-101060 498 L-100905 472 L-100149 420 L-99798 394 L-99396 394 L-99358 368 L-98351 368 L-98032 368 L-97785 342 L-97085 290 L-97011 264 L-96699 237 L-95619 211 L-95428 185 L-95194 185 L-94999 159 L-94499 133 L-93745 133 L-93631 133 L-93431 133 L-93390 107 L-93297 81 L-92984 55 L-92896 29 L-92780 3 L-92462 3 L-92393 -22 L-92368 -48 L-92006 -74 L-91968 -100 L-91751 -126 L-91248 -100 L-90645 -74 L-90434 -22 L-90281 3 L-90243 3 L-90199 -48 L-90164 -74 L-90032 -100 L-89622 -126 L-89252 -152 L-89198 -179 L-89182 -205 L-89103 -231 L-88693 -257 L-88540 -283 L-88524 -335 L-88485 -361 L-88306 -413 L-88230 -439 L-87999 -465 L-87209 -491 L-87131 -491 L-86396 -543 L-86241 -569 L-86001 -622 L-85939 -674 L-85854 -700 L-85831 -752 L-85713 -804 L-85699 -856 L-85637 -908 L-85600 -934 L-85505 -960 L-85483 -960 L-85367 -986 L-85134 -1013 L-84964 -1065 L-84144 -1065 L-83743 -1091 L-83588 -1091 L-83083 -1091 L-82969 -1091 L-82372 -1091 L-81998 -1117 L-81946 -1117 L-81753 -1143 L-81056 -1143 L-81018 -1169 L-80873 -1169 L-80648 -1195 L-80386 -1221 L-80012 -1247 L-79586 -1273 L-79457 -1299 L-79437 -1351 L-78944 -1351 L-78247 -1377 L-78016 -1351 L-77862 -1351 L-76894 -1351 L-76669 -1325 L-76391 -1325 L-76375 -1351 L-75849 -1377 L-75320 -1403 L-75172 -1430 L-75153 -1456 L-74611 -1482 L-74301 -1508 L-74183 -1560 L-73992 -1612 L-73855 -1664 L-73528 -1690 L-73412 -1716 L-73102 -1716 L-72676 -1742 L-72620 -1742 L-72387 -1716 L-72291 -1716 L-72158 -1716 L-71861 -1716 L-71747 -1742 L-71383 -1768 L-71070 -1768 L-70587 -1794 L-70417 -1820 L-70169 -1847 L-69953 -1873 L-69427 -1899 L-69240 -1951 L-68885 -1977 L-68250 -2003 L-68095 -2055 L-67355 -2081 L-66935 -2107 L-66755 -2133 L-66679 -2133 L-66548 -2159 L-66254 -2185 L-66213 -2211 L-65983 -2211 L-65790 -2237 L-65535 -2237 L-65109 -2264 L-65000 -2290 L-64381 -2290 L-64200 -2290 L-62988 -2290 L-62341 -2264 L-62190 -2264 L-62153 -2264 L-62021 -2264 L-61920 -2290 L-61904 -2316 L-61822 -2342 L-61611 -2368 L-61494 -2394 L-61131 -2420 L-60760 -2446 L-60063 -2472 L-59661 -2498 L-59556 -2524 L-59538 -2550 L-58593 -2576 L-58398 -2628 L-58246 -2654 L-58190 -2707 L-57434 -2707 L-57417 -2654 L-56928 -2628 L-56798 -2576 L-56605 -2576 L-55715 -2602 L-55675 -2628 L-55637 -2654 L-55560 -2681 L-55521 -2681 L-55444 -2707 L-55360 -2733 L-55096 -2759 L-54863 -2785 L-54801 -2811 L-54321 -2837 L-53984 -2837 L-53873 -2863 L-53680 -2889 L-53503 -2915 L-53444 -2915 L-53408 -2941 L-53138 -2967 L-52440 -3019 L-52387 -3071 L-52093 -3124 L-51691 -3176 L-51127 -3202 L-50254 -3228 L-49949 -3254 L-49911 -3280 L-49788 -3306 L-49190 -3332 L-49060 -3358 L-48860 -3384 L-48822 -3410 L-48209 -3436 L-48030 -3462 L-48015 -3514 L-47797 -3541 L-47719 -3593 L-47412 -3593 L-47280 -3619 L-47048 -3619 L-46713 -3619 L-46622 -3645 L-46521 -3671 L-46484 -3697 L-45940 -3697 L-45748 -3723 L-45207 -3749 L-44781 -3775 L-44649 -3775 L-44588 -3775 L-44356 -3775 L-44340 -3775 L-43852 -3749 L-43771 -3749 L-43753 -3749 L-42361 -3723 L-42225 -3723 L-42111 -3749 L-41477 -3775 L-41337 -3801 L-41219 -3827 L-41065 -3879 L-41029 -3905 L-40950 -3931 L-40896 -3905 L-39904 -3905 L-39867 -3931 L-39735 -3931 L-39674 -3984 L-39575 -4010 L-39285 -4036 L-39271 -4062 L-38961 -4062 L-38861 -4036 L-38396 -4062 L-38342 -1299 L-38200 1436 L-38072 4199 L-37840 6961 L-37271 6935 L-37182 6909 L-37159 6909 L-36872 6883 L-36190 6857 L-36113 6831 L-36076 6805 L-36060 6779 L-35860 6753 L-35440 6701 L-35169 6701 L-34296 6675 L-34003 6675 L-33892 6675 L-33158 6649 L-33031 6623 L-32671 6597 L-32419 6597 L-31547 6571 L-31378 6571 L-31317 6544 L-31262 6518 L-30914 6492 L-30891 6466 L-30682 6440 L-30542 6414 L-30411 6388 L-30288 6362 L-30165 6336 L-29928 6310 L-29637 6284 L-28978 6258 L-28956 6232 L-28802 6206 L-28684 6180 L-27720 6154 L-27664 6127 L-27431 6101 L-27409 6075 L-27083 6049 L-26968 6049 L-26928 6023 L-26426 6023 L-26127 5997 L-26015 5971 L-25473 5945 L-24414 5919 L-23788 5893 L-23616 5867 L-23369 5841 L-23112 5815 L-22981 5789 L-22960 5763 L-22292 5737 L-21396 5710 L-21350 5684 L-21280 5658 L-21164 5658 L-20944 5632 L-20753 5632 L-20713 5606 L-20521 5580 L-19862 5580 L-19245 5554 L-19206 5710 L-18610 5867 L-18548 5997 L-17426 6127 L-17372 6127 L-17251 6101 L-16985 6075 L-16921 6075 L-16652 6075 L-16576 6049 L-16360 6049 L-15877 6023 L-15608 5997 L-15476 5997 L-15244 5945 L-15219 5867 L-15204 5763 L-15182 5632 L-15166 5502 L-15142 5372 L-15128 5215 L-15104 5059 L-15089 4903 L-15066 4772 L-15051 4642 L-15029 4512 L-15012 4433 L-14984 4355 L-14966 4251 L-14948 4199 L-14912 4121 L-14872 4069 L-14857 4016 L-14832 3938 L-14780 3886 L-14755 3834 L-14679 3782 L-14641 3756 L-14625 3704 L-14562 3652 L-14548 3599 L-14502 3521 L-14431 3469 L-14393 3443 L-14368 3391 L-14316 3339 L-14291 3313 L-14275 3287 L-14214 3261 L-14176 3235 L-14099 3209 L-14084 3182 L-14056 3130 L-13983 3104 L-13944 3078 L-13790 3026 L-13674 3000 L-13619 2974 L-13537 2948 L-13504 2922 L-13479 2896 L-13325 2870 L-13310 2844 L-13208 2818 L-12898 2792 L-12862 2765 L-12646 2739 L-12535 2739 L-12511 2739 L-12281 2765 L-12048 2765 L-11673 2739 L-11545 2713 L-11505 2687 L-11453 2661 L-11352 2635 L-11315 2609 L-11104 2609 L-11040 2583 L-10928 2583 L-10716 2557 L-10679 2531 L-10307 2505 L-10253 2479 L-10175 2453 L-10153 2427 L-10060 2401 L-9860 2375 L-9822 2375 L-9800 2375 L-9570 2375 L-9550 2348 L-9340 2348 L-9246 2322 L-9208 2296 L-8872 2270 L-8759 2244 L-8719 2218 L-8705 2218 L-8566 2192 L-8551 2192 L-8296 2192 L-7714 2166 L-7637 2140 L-7600 2114 L-7555 2088 L-7506 2062 L-7326 2036 L-7312 2010 L-7212 1984 L-7135 1958 L-7074 1931 L-6709 1879 L-6626 1853 L-6609 1827 L-6555 1801 L-5587 1775 L-5455 1749 L-5433 1723 L-5213 1697 L-5145 1671 L-5122 1645 L-4875 1619 L-4619 1593 L-4488 1567 L-4449 1541 L-4428 1488 L-4372 1436 L-4284 1410 L-4223 1358 L-3998 1332 L-3869 1306 L-3769 1280 L-3714 1254 L-3521 1228 L-3443 1202 L-3110 1176 L-2979 1150 L-2802 1124 L-2786 1097 L-2761 1071 L-2491 1071 L-1291 1045 L-1254 1045 L-1137 1019 L-904 993 L-713 967 L-674 967 L-618 941 L-514 941 L0 915 L293 889 L525 863 L800 837 L817 811 L850 785 L890 759 L927 733 L1029 707 L1106 681 L1199 654 L1326 628 L1430 602 L1609 602 L1801 576 L2630 576 L2746 550 L3001 524 L3041 498 L3140 472 L3200 472 L3442 446 L3466 446 L3587 420 L3659 394 L3698 368 L3930 342 L4106 316 L4626 290 L4703 264 L4719 237 L5130 237 L5493 237 L5609 211 L5632 211 L5672 185 L5748 159 L5802 133 L6151 107 L6267 81 L6444 81 L6500 55" />
</svg>
