<svg xmlns="http://www.w3.org/2000/svg" version="1.1" viewBox="0 0 6500 1000">
	<path fill="none" stroke="gold" stroke-width="125" stroke-linecap="round" stroke-linejoin="round" d="M0 1117  L-24167 1117 L-23755 893 L-23530 1005 L-23473 893 L-23435 669 L-23251 445 L-22760 221 L-22467 109 L-22156 -2 L-21921 -226 L-21868 -450 L-21808 -674 L-21655 -786 L-21615 -898 L-21482 -1010 L-21190 -898 L-20649 -1010 L-20039 -1234 L-19991 -1010 L-19351 -1234 L-19317 -1122 L-18792 -1346 L-18659 -1458 L-18269 -1905 L-17941 -2129 L-17824 -2353 L-17613 -2129 L-16896 -2241 L-16326 -2353 L-16218 -2465 L-16044 -2689 L-15823 -2913 L-15421 -3025 L-15395 -3249 L-14467 -3473 L-14380 -3697 L-14298 -3921 L-14228 -4145 L-13930 -4257 L-13778 -4369 L-11888 -3697 L-11787 -4033 L-11525 -4257 L-11231 -4033 L-11090 -4257 L-10841 -4369 L-10805 -4481 L-10647 -4705 L-10184 -4817 L-9931 -5041 L-9718 -5153 L-9467 -5265 L-9118 -5489 L-8191 -5713 L-8097 -5937 L-7686 -6049 L-6515 -6161 L-5326 -6385 L-5234 -6609 L-5207 -6833 L-4941 -7169 L-4642 -7393 L-4513 -7505 L-4475 -7729 L-3661 -6945 L-3277 -7057 L-2216 -7281 L-2155 -7393 L-1890 1677 L-1419 1565 L-1226 1341 L-963 1229 L-626 1117 L-490 1229 L-35 893 L707 781 L725 557 L890 445 L958 669 L1475 557 L2503 333 L2699 109 L3188 221 L3550 109 L3959 333 L4344 445 L6048 333 L6146 221 L6217 333 L6279 221 L6463 109" />
</svg>
