<svg xmlns="http://www.w3.org/2000/svg" version="1.1" viewBox="0 0 6500 1000">
	<path fill="none" stroke="gold" stroke-width="125" stroke-linecap="round" stroke-linejoin="round" d="M0 5660  L-82372 5660 L-82188 5636 L-81698 5589 L-81404 5565 L-81093 5518 L-80859 5494 L-80805 5447 L-80746 5399 L-80593 5376 L-80552 5328 L-80420 5305 L-80127 5281 L-79586 5281 L-78976 5257 L-78928 5257 L-78288 5234 L-78255 5234 L-77729 5234 L-77597 5210 L-77206 5163 L-76878 5115 L-76761 5068 L-76550 5021 L-75833 5021 L-75263 4997 L-75156 4997 L-74981 4973 L-74760 4926 L-74359 4902 L-74333 4855 L-73405 4808 L-73317 4760 L-73235 4713 L-73165 4665 L-72868 4642 L-72716 4594 L-70826 4618 L-70725 4618 L-70462 4618 L-70169 4642 L-70027 4594 L-69779 4594 L-69743 4571 L-69585 4547 L-69121 4500 L-68868 4476 L-68656 4429 L-68404 4405 L-68056 4381 L-67128 4334 L-67035 4287 L-66624 4263 L-65453 4216 L-64264 4192 L-64172 4145 L-64144 4097 L-63878 4050 L-63579 4003 L-63450 3955 L-63413 3908 L-62598 3908 L-62214 3932 L-61154 3955 L-61093 3955 L-60828 4429 L-60356 4879 L-60164 5328 L-59900 5778 L-59563 5754 L-59428 5731 L-58972 5707 L-58229 5683 L-58212 5660 L-58046 5612 L-57978 5612 L-57462 5589 L-56433 5589 L-56237 5565 L-55749 5541 L-55387 5518 L-54978 5518 L-54592 5541 L-52889 5541 L-52791 5541 L-52719 5541 L-52658 5541 L-52473 5518 L-52137 5518 L-51496 5494 L-51419 5470 L-51358 5470 L-51171 5447 L-51092 5447 L-50915 5423 L-50895 5399 L-50665 5399 L-50278 5376 L-49389 5376 L-49350 5352 L-49261 5328 L-49234 5281 L-48226 5257 L-48076 5210 L-48052 5186 L-47919 5163 L-47879 5139 L-46621 5115 L-46563 5115 L-46023 5092 L-45971 5092 L-45924 5092 L-45529 5068 L-45390 5044 L-45190 5021 L-45043 5021 L-44878 5021 L-44602 5044 L-44243 5044 L-43691 5021 L-43046 4997 L-42787 4950 L-42633 4926 L-42232 4902 L-42192 4879 L-42071 4855 L-42010 4879 L-41996 4879 L-41902 4879 L-41609 4855 L-41457 4760 L-41127 4713 L-41049 4665 L-40973 4642 L-40747 4571 L-40680 4523 L-40452 4476 L-40400 4429 L-40235 4405 L-39230 4381 L-39046 4358 L-38495 4334 L-38102 4287 L-37705 4263 L-36855 4216 L-36776 4192 L-36197 4168 L-35756 4168 L-35515 4145 L-35358 4145 L-34957 4097 L-34937 4097 L-34492 4074 L-34086 4050 L-33950 4003 L-33775 3955 L-33639 3908 L-33388 3861 L-32389 3837 L-32306 3813 L-32171 3790 L-32132 3766 L-31243 3742 L-31027 3718 L-30584 3695 L-30466 3671 L-30409 3647 L-29733 3647 L-29633 3624 L-29604 3624 L-28262 3600 L-27856 3576 L-27817 3553 L-26889 3529 L-26790 3505 L-26658 3482 L-26253 3458 L-26227 3434 L-26134 3411 L-25918 3387 L-25507 3340 L-24353 3292 L-24061 3245 L-24033 3198 L-23425 3174 L-23175 3127 L-23155 3103 L-22226 3079 L-22174 3032 L-22052 3008 L-22034 2961 L-21878 2937 L-21703 2890 L-21567 2866 L-21510 2843 L-21402 2819 L-21317 2795 L-21084 2772 L-21009 2748 L-20700 2724 L-20582 2700 L-20413 2677 L-20321 2653 L-20219 2653 L-20196 2629 L-20118 2629 L-20020 2582 L-19654 2558 L-19549 2535 L-19046 2511 L-18594 2487 L-18556 2464 L-18532 2440 L-18491 2416 L-18362 2393 L-18261 2369 L-17820 2345 L-17537 2322 L-16945 2298 L-16815 2274 L-16540 2227 L-16388 2203 L-16234 2180 L-16149 2132 L-16071 2109 L-15886 2085 L-15835 2085 L-15807 2061 L-15728 2038 L-15705 2014 L-15421 1967 L-14818 1919 L-13822 1896 L-13524 1872 L-12790 1848 L-12546 1825 L-12456 1801 L-11879 1777 L-11180 1754 L-10428 1730 L-10109 1706 L-9727 1659 L-9649 1635 L-9015 1611 L-8830 1588 L-8742 1588 L-8612 1588 L-8299 1564 L-8250 1540 L-8108 1517 L-8086 1493 L-7119 1469 L-6573 1446 L-6095 1446 L-6034 1446 L-5710 1446 L-5689 1422 L-5626 1422 L-5416 1398 L-5339 1375 L-5285 1351 L-5262 1327 L-5223 1304 L-5207 1280 L-4450 1256 L-4434 1233 L-3634 1209 L-3482 1185 L-2576 1162 L-2070 1138 L-1841 1091 L-1800 1091 L-1684 1067 L-1508 1043 L-754 1067 L-619 1043 L-455 1020 L-137 996 L38 949 L1060 901 L1084 854 L1335 830 L1548 783 L2182 759 L2420 712 L2452 665 L2630 617 L2711 570 L2801 546 L2865 499 L3305 451 L3329 428 L3870 404 L4125 380 L4620 357 L5497 333 L5534 309 L5587 286 L5628 262 L5745 238 L6022 215 L6229 167 L6426 120 L6449 73 L6500 25" />
</svg>
