<svg xmlns="http://www.w3.org/2000/svg" version="1.1" viewBox="0 0 6500 1000">
	<path fill="none" stroke="gold" stroke-width="125" stroke-linecap="round" stroke-linejoin="round" d="M0 54008  L-694844 54008 L-694659 53985 L-694169 53937 L-693876 53914 L-693564 53866 L-693330 53843 L-693277 53796 L-693217 53748 L-693064 53725 L-693024 53677 L-692891 53654 L-692598 53630 L-692058 53630 L-691447 53606 L-691400 53606 L-690759 53583 L-690726 53583 L-690201 53583 L-690068 53559 L-689678 53512 L-689350 53465 L-689232 53417 L-689021 53370 L-688304 53370 L-687734 53346 L-687627 53346 L-687453 53323 L-687231 53276 L-686830 53252 L-686804 53205 L-685876 53157 L-685789 53110 L-685706 53063 L-685636 53016 L-685339 52992 L-685187 52945 L-683297 52968 L-683196 52968 L-682934 52968 L-682640 52992 L-682499 52945 L-682250 52945 L-682214 52921 L-682056 52897 L-681592 52850 L-681339 52826 L-681127 52779 L-680876 52756 L-680527 52732 L-679600 52685 L-679506 52637 L-679095 52614 L-677924 52567 L-676735 52543 L-676643 52496 L-676615 52448 L-676349 52401 L-676050 52354 L-675922 52307 L-675884 52259 L-675070 52259 L-674686 52283 L-673625 52307 L-673564 52307 L-673299 52779 L-672828 53228 L-672635 53677 L-672371 54126 L-672035 54103 L-671899 54079 L-671444 54056 L-670700 54032 L-670683 54008 L-670518 53961 L-670449 53961 L-669933 53937 L-668905 53937 L-668708 53914 L-668220 53890 L-667858 53866 L-667449 53866 L-667064 53890 L-665360 53890 L-665262 53890 L-665190 53890 L-665129 53890 L-664945 53866 L-664608 53866 L-663967 53843 L-663891 53819 L-663829 53819 L-663643 53796 L-663563 53796 L-663386 53772 L-663367 53748 L-663137 53748 L-662749 53725 L-661860 53725 L-661821 53701 L-661733 53677 L-661705 53630 L-660697 53606 L-660547 53559 L-660523 53536 L-660390 53512 L-660351 53488 L-659092 53465 L-659034 53465 L-658495 53441 L-658442 53441 L-658395 53441 L-658000 53417 L-657861 53394 L-657661 53370 L-657514 53370 L-657350 53370 L-657073 53394 L-656714 53394 L-656162 53370 L-655517 53346 L-655258 53299 L-655104 53276 L-654703 53252 L-654663 53228 L-654543 53205 L-654481 53228 L-654467 53228 L-654373 53228 L-654080 53205 L-653929 53110 L-653598 53063 L-653520 53016 L-653445 52992 L-653218 52921 L-653152 52874 L-652924 52826 L-652871 52779 L-652707 52756 L-651701 52732 L-651518 52708 L-650967 52685 L-650574 52637 L-650176 52614 L-649326 52567 L-649248 52543 L-648669 52519 L-648227 52519 L-647986 52496 L-647829 52496 L-647428 52448 L-647408 52448 L-646963 52425 L-646557 52401 L-646422 52354 L-646246 52307 L-646110 52259 L-645860 52212 L-644860 52188 L-644778 52165 L-644642 52141 L-644604 52117 L-643714 52094 L-643498 52070 L-643055 52047 L-642937 52023 L-642881 51999 L-642204 51999 L-642104 51976 L-642075 51976 L-640733 51952 L-640328 51928 L-640288 51905 L-639360 51881 L-639262 51857 L-639129 51834 L-638724 51810 L-638698 51787 L-638605 51763 L-638389 51739 L-637978 51692 L-636824 51645 L-636533 51597 L-636504 51550 L-635896 51527 L-635646 51479 L-635626 51456 L-634697 51432 L-634645 51385 L-634523 51361 L-634505 51314 L-634350 51290 L-634174 51243 L-634038 51219 L-633981 51196 L-633873 51172 L-633788 51148 L-633555 51125 L-633480 51101 L-633171 51077 L-633054 51054 L-632884 51030 L-632793 51007 L-632690 51007 L-632667 50983 L-632590 50983 L-632492 50936 L-632125 50912 L-632020 50888 L-631517 50865 L-631065 50841 L-631027 50818 L-631003 50794 L-630962 50770 L-630833 50747 L-630732 50723 L-630291 50699 L-630009 50676 L-629416 50652 L-629286 50628 L-629011 50581 L-628859 50558 L-628706 50534 L-628621 50487 L-628543 50463 L-628357 50439 L-628306 50439 L-628279 50416 L-628199 50392 L-628176 50368 L-627892 50321 L-627289 50274 L-626293 50250 L-625995 50227 L-625262 50203 L-625017 50179 L-624927 50156 L-624350 50132 L-623651 50108 L-622899 50085 L-622581 50061 L-622198 50014 L-622121 49990 L-621486 49967 L-621301 49943 L-621213 49943 L-621083 49943 L-620771 49919 L-620721 49896 L-620579 49872 L-620558 49848 L-619590 49825 L-619044 49801 L-618566 49801 L-618505 49801 L-618181 49801 L-618160 49778 L-618098 49778 L-617888 49754 L-617811 49730 L-617756 49707 L-617734 49683 L-617694 49659 L-617679 49636 L-616921 49612 L-616905 49588 L-616105 49565 L-615953 49541 L-615048 49518 L-614542 49494 L-614312 49447 L-614271 49447 L-614156 49423 L-613979 49399 L-613225 49423 L-613090 49399 L-612926 49376 L-612608 49352 L-612432 49305 L-611410 49258 L-611386 49210 L-611135 49187 L-610922 49139 L-610288 49116 L-610050 49069 L-610018 49021 L-609840 48974 L-609759 48927 L-609670 48903 L-609605 48856 L-609165 48809 L-609142 48785 L-608601 48761 L-608345 48738 L-607850 48714 L-606973 48690 L-606936 48667 L-606883 48643 L-606842 48619 L-606725 48596 L-606448 48572 L-606241 48525 L-606044 48478 L-606021 48430 L-605971 48383 L-605931 48359 L-605854 48336 L-605256 48289 L-605196 48265 L-605092 48241 L-604938 48218 L-604306 48194 L-603626 48170 L-603323 48123 L-602976 48099 L-602778 48076 L-602730 48029 L-602410 48005 L-601782 47981 L-601635 47958 L-601599 47934 L-601541 47910 L-601465 47863 L-601223 47863 L-601135 47839 L-601041 47816 L-600747 47792 L-600613 47769 L-600553 47745 L-600516 47698 L-600244 47698 L-599238 47674 L-599062 47650 L-599011 47650 L-598719 47627 L-598526 47580 L-598193 47556 L-597687 47532 L-597125 47485 L-597110 47438 L-597093 47414 L-596993 47367 L-596878 47320 L-596839 47272 L-596801 47249 L-596736 47249 L-596708 47225 L-596569 47249 L-596276 47249 L-596226 47249 L-596121 47249 L-595856 47225 L-595391 47201 L-595247 47201 L-595192 47154 L-595135 47130 L-594944 47107 L-594579 47083 L-594364 47083 L-594170 47083 L-594112 47083 L-594053 47036 L-593899 47012 L-593629 46989 L-593199 47107 L-593184 47107 L-593107 47083 L-593043 47060 L-592913 46894 L-592890 46870 L-592606 46847 L-592558 46823 L-592503 46800 L-592041 46776 L-592002 46776 L-591961 46752 L-591771 46729 L-591291 46705 L-590804 46681 L-590787 46658 L-590749 46634 L-590493 46610 L-590415 46563 L-590186 46540 L-590170 46492 L-589875 46445 L-589433 46421 L-588986 46398 L-588481 46374 L-588327 46350 L-588041 46327 L-588001 46280 L-587670 46256 L-587448 46232 L-586931 46185 L-586855 46161 L-586607 46114 L-586413 46067 L-586353 46043 L-585576 46020 L-585502 46020 L-585272 45996 L-585255 45996 L-585193 45972 L-584998 45949 L-584533 45949 L-584510 45925 L-584380 45925 L-583080 45925 L-583063 45925 L-582986 45901 L-582892 45901 L-582675 45901 L-582523 45878 L-582345 45901 L-582291 45925 L-582004 45949 L-581964 45949 L-581594 45949 L-581154 45949 L-580971 45949 L-580650 45925 L-580355 45925 L-579909 45878 L-579837 45854 L-579375 45807 L-578937 45783 L-578755 45760 L-577301 45712 L-577169 45689 L-576712 45641 L-576486 45618 L-576099 45571 L-575583 45523 L-574629 45476 L-573834 45429 L-573160 45405 L-572734 45358 L-572423 45334 L-572193 45263 L-571510 45192 L-571497 45121 L-571287 45027 L-571265 45003 L-571091 44956 L-570141 44932 L-569872 44885 L-569057 44861 L-568747 44814 L-568709 44791 L-568652 44743 L-568035 44720 L-567397 44672 L-565771 44649 L-565097 44625 L-564455 44625 L-564378 44625 L-564321 44625 L-564286 44625 L-564257 44601 L-564145 44554 L-564128 44531 L-564105 44507 L-563951 44483 L-563898 44436 L-563820 44412 L-563701 44389 L-563603 44365 L-563486 44341 L-563216 44294 L-562946 44271 L-562929 44223 L-562729 44200 L-562582 44152 L-562355 44129 L-562221 44105 L-561913 44082 L-561853 44058 L-561499 44011 L-561151 43987 L-561050 43963 L-560986 43916 L-560926 43892 L-560541 43845 L-560160 43822 L-560056 43798 L-559796 43774 L-559525 43727 L-559366 43703 L-559333 43680 L-559271 43656 L-559130 43632 L-558946 43609 L-558901 43585 L-558613 43585 L-558597 43562 L-558364 43562 L-558303 43538 L-558265 43538 L-557685 43514 L-557551 43491 L-557528 43396 L-557510 43231 L-557492 43042 L-557476 42852 L-557452 42663 L-557436 42522 L-557414 42356 L-557398 42191 L-557374 42096 L-557358 42002 L-557336 41931 L-557319 41883 L-557270 41813 L-557198 41742 L-557163 41623 L-557140 41529 L-557104 41434 L-557063 41340 L-557026 41293 L-557010 41198 L-556986 41127 L-556949 41080 L-556932 41009 L-556908 40962 L-556891 40914 L-556872 40867 L-556856 40820 L-556827 40749 L-556801 40678 L-556756 40654 L-556739 40607 L-556697 40584 L-556649 40536 L-556579 40489 L-556563 40442 L-556547 40394 L-556485 40371 L-556446 40347 L-556407 40324 L-556241 40300 L-556176 40276 L-556160 40253 L-556115 40205 L-556057 40182 L-555844 40158 L-555811 40134 L-555769 40111 L-555690 40087 L-555153 40064 L-555075 40040 L-554971 39993 L-554882 39969 L-554706 39945 L-554355 39922 L-554199 39898 L-553762 39874 L-553605 39851 L-553475 39827 L-552771 39780 L-552570 39756 L-551609 39709 L-551127 39685 L-551028 39685 L-550936 39662 L-550691 39638 L-550617 39614 L-550175 39567 L-550079 39544 L-550063 39520 L-550047 39496 L-550023 39473 L-549557 39449 L-549340 39425 L-549200 39402 L-548906 39378 L-548818 39354 L-548776 39331 L-548747 39307 L-548574 39284 L-548515 39260 L-548439 39236 L-548358 39213 L-548288 39213 L-547979 39189 L-547894 39165 L-547680 39142 L-547645 39118 L-546962 39095 L-546863 39071 L-546658 39047 L-546611 39024 L-546333 39000 L-546271 38976 L-546254 38929 L-546176 38905 L-545868 38858 L-545843 38835 L-545790 38787 L-545767 38764 L-545644 38740 L-545509 38693 L-545264 38669 L-545139 38669 L-544492 38645 L-544476 38645 L-544451 38645 L-544271 38598 L-544195 38575 L-544103 38551 L-543675 38527 L-543259 38504 L-542866 38456 L-542788 38433 L-542769 38409 L-542405 38385 L-542169 38362 L-541941 38338 L-541628 38315 L-541550 38291 L-541469 38244 L-541291 38196 L-541275 38173 L-541010 38125 L-540930 38102 L-540700 38078 L-540474 38055 L-540158 38055 L-539983 38031 L-539622 38031 L-539230 38007 L-539160 37960 L-539097 37936 L-538956 37889 L-538905 37865 L-538803 37818 L-538301 37795 L-538104 37771 L-537857 37747 L-537672 37724 L-537372 37700 L-537296 37676 L-537130 37629 L-536246 37606 L-536217 37558 L-536094 37511 L-535515 37487 L-535437 37464 L-534724 37464 L-534412 37464 L-534199 37464 L-534182 37464 L-533796 37464 L-533271 37416 L-532824 37393 L-532495 37369 L-532342 37346 L-532016 37346 L-531838 37322 L-531756 37322 L-531550 37275 L-531375 37251 L-530446 37227 L-529556 37204 L-529517 37180 L-529289 37180 L-528910 37156 L-528122 37133 L-527888 37109 L-527812 37086 L-527455 37062 L-526883 37015 L-526616 36991 L-526229 36967 L-526126 36967 L-525956 36967 L-525337 36967 L-525126 36967 L-524818 36967 L-524765 36944 L-524638 36920 L-524585 36896 L-524465 36873 L-524129 36826 L-523170 36802 L-523039 36755 L-522837 36731 L-522206 36707 L-521894 36684 L-521480 36660 L-521453 36636 L-521308 36613 L-520888 36589 L-519555 36589 L-519508 36566 L-519380 36518 L-519363 36495 L-518785 36447 L-518579 36424 L-518549 36400 L-518509 36376 L-518451 36353 L-518414 36329 L-518335 36306 L-518192 36282 L-517738 36258 L-517620 36235 L-517335 36211 L-516962 36187 L-516866 36164 L-516539 36140 L-516184 36116 L-516014 36093 L-515967 36069 L-515858 36046 L-515769 36022 L-515741 35998 L-515665 35951 L-515362 35927 L-515328 35880 L-515256 35857 L-514888 35833 L-514553 35809 L-514472 35809 L-514252 35786 L-514081 35762 L-514053 35738 L-513556 35715 L-513007 35667 L-512126 35644 L-512028 35597 L-511951 35573 L-511676 35549 L-511429 35502 L-511355 35478 L-511293 35431 L-511175 35407 L-511132 35384 L-511022 35360 L-510945 35313 L-510245 35289 L-509999 35266 L-509959 35242 L-509803 35218 L-509204 35218 L-508977 35218 L-508885 35218 L-508410 35218 L-507812 35171 L-507293 35147 L-507272 35124 L-507126 35100 L-506806 35100 L-506264 35100 L-506032 35100 L-505862 35100 L-505375 35077 L-505148 35053 L-505063 35029 L-504717 35006 L-504391 35006 L-503868 34982 L-503540 34958 L-502940 34935 L-502742 34887 L-502690 34864 L-502650 34840 L-502368 34817 L-501684 34769 L-501374 34746 L-501349 34698 L-501158 34675 L-500935 34651 L-500849 34627 L-500185 34580 L-500161 34557 L-499939 34509 L-499609 34486 L-499257 34438 L-499052 34415 L-498820 34367 L-498562 34344 L-498372 34297 L-498325 34273 L-498098 34249 L-498063 34226 L-497907 34202 L-497693 34178 L-497519 34155 L-497428 34131 L-497151 34108 L-496907 34084 L-496592 34060 L-496166 34060 L-496128 34060 L-495645 34060 L-495412 34060 L-495200 34037 L-494974 34013 L-494424 34013 L-494177 33989 L-493343 33989 L-493287 33966 L-493265 33942 L-493107 33918 L-492646 33895 L-492605 33871 L-492265 33824 L-492132 33800 L-491909 33777 L-491337 33753 L-490865 33729 L-490670 33706 L-490478 33682 L-490288 33658 L-490186 33635 L-489818 33611 L-489772 33588 L-489690 33564 L-488397 33540 L-488348 33517 L-488080 33517 L-487935 33517 L-487384 33517 L-487267 33493 L-487186 33469 L-486826 33446 L-486603 33422 L-486321 33398 L-485992 33351 L-485484 33328 L-485372 33304 L-485293 33280 L-485129 33257 L-484834 33257 L-484366 33257 L-484169 33280 L-484118 33280 L-483469 33257 L-483347 33233 L-482893 33233 L-482857 33209 L-482389 33186 L-482278 33162 L-482262 33138 L-482045 33138 L-481865 33115 L-481333 33115 L-480303 33115 L-480104 33091 L-479646 33068 L-478697 33020 L-478599 32997 L-478245 32949 L-478184 32926 L-478170 32902 L-478134 32878 L-477765 32855 L-477645 32831 L-477403 32808 L-477239 32784 L-477052 32760 L-476931 32737 L-475860 32689 L-475002 32666 L-474790 32619 L-474693 32595 L-474519 32548 L-474185 32524 L-474113 32500 L-474056 32477 L-473880 32477 L-473492 32453 L-473256 32429 L-473145 32406 L-473028 32382 L-472047 32359 L-472022 32335 L-471427 32288 L-471395 32288 L-471246 32264 L-470962 32240 L-470050 32240 L-469104 32240 L-468951 32217 L-468848 32217 L-468717 32193 L-468574 32169 L-468547 32146 L-468433 32122 L-468215 32099 L-467533 32075 L-467404 32051 L-467101 32028 L-466861 31980 L-466528 31957 L-465889 31933 L-465547 31886 L-465485 31862 L-465330 31862 L-464408 31862 L-463938 31862 L-463894 31862 L-463881 31839 L-463840 31815 L-463818 31791 L-463791 31768 L-463647 31744 L-463224 31720 L-462889 31720 L-462698 31697 L-462270 31697 L-462082 31673 L-461693 31626 L-461158 31602 L-460786 31579 L-460764 31579 L-460514 31555 L-460396 31531 L-460320 31508 L-460184 31484 L-460145 31460 L-460065 31437 L-459671 31413 L-459175 31389 L-459063 31342 L-458890 31319 L-458582 31295 L-458134 31271 L-457811 31248 L-457669 31200 L-457242 31153 L-457088 31106 L-457033 31059 L-456219 31035 L-456200 31011 L-455828 30988 L-455771 30988 L-454642 30964 L-454574 30964 L-454016 30940 L-453821 30917 L-453685 30893 L-453451 30870 L-453104 30846 L-453070 30799 L-453034 30775 L-452966 30728 L-452617 30704 L-452445 30680 L-451960 30657 L-451944 30633 L-451619 30610 L-451461 30586 L-450320 30539 L-450296 30515 L-450104 30468 L-449910 30444 L-449660 30420 L-449643 30397 L-448623 30373 L-448325 30350 L-448250 30326 L-448113 30279 L-447938 30255 L-447361 30208 L-447145 30184 L-447082 30160 L-446951 30137 L-446914 30090 L-446391 30066 L-446253 39378 L-446239 39378 L-446216 39378 L-446195 39378 L-445968 30042 L-445192 30042 L-445151 30042 L-444783 30042 L-444705 30019 L-444653 29995 L-443980 29971 L-443237 29948 L-442812 29948 L-442365 29924 L-441303 29900 L-440991 29853 L-440581 29853 L-440509 29830 L-439985 29830 L-439890 29830 L-439872 29830 L-439428 29806 L-439242 29759 L-438462 29711 L-437790 29688 L-437377 29617 L-437146 29570 L-437005 29546 L-436923 29499 L-436903 29475 L-436827 29475 L-436699 29451 L-436382 29475 L-436158 29475 L-435833 29451 L-435771 29451 L-435401 29451 L-435368 29451 L-435159 29451 L-434491 29451 L-434414 29451 L-434256 29404 L-434145 29404 L-433819 29380 L-433664 29357 L-433323 29357 L-433266 29310 L-432928 29262 L-432724 29239 L-432671 29191 L-431295 29168 L-431165 29144 L-430732 29121 L-430411 29097 L-429584 29050 L-429460 29026 L-428729 28979 L-428574 28931 L-428533 28908 L-428479 28884 L-428456 28861 L-428342 28837 L-428046 28813 L-427756 28790 L-427701 28766 L-427581 28742 L-427550 28719 L-427451 28695 L-427007 28695 L-426855 28671 L-426020 28671 L-425478 28648 L-425143 28648 L-425128 28624 L-425052 28601 L-424936 28577 L-424741 28553 L-424477 28530 L-423642 28506 L-423546 28482 L-423024 28459 L-422983 28435 L-422883 28411 L-422055 28411 L-421920 28388 L-421581 28388 L-421027 28364 L-420648 28341 L-420485 28317 L-420175 28293 L-419362 28270 L-419056 28246 L-418788 28246 L-418466 28246 L-418145 28270 L-417870 28270 L-417041 28222 L-416946 28199 L-416853 28128 L-416749 28057 L-416362 27986 L-415882 27939 L-415866 27915 L-415747 27891 L-415379 27844 L-415284 27821 L-414450 27773 L-414373 27750 L-414074 27726 L-413983 27702 L-413576 27655 L-413466 27608 L-412766 27584 L-412293 27561 L-412233 27537 L-412014 27490 L-411741 27466 L-411628 27442 L-410600 27419 L-410214 27395 L-410194 27372 L-409861 27348 L-409616 27324 L-409183 27301 L-409073 27277 L-408955 27253 L-408503 27206 L-407913 27182 L-407576 27159 L-405684 27135 L-405570 27088 L-405358 27064 L-404040 27041 L-403933 21723 L-403867 16476 L-403831 11631 L-403769 11631 L-403270 16901 L-402595 22101 L-402573 26899 L-402302 26852 L-401334 26852 L-400645 26828 L-400483 26804 L-399942 26781 L-399853 26757 L-398833 26733 L-397886 26686 L-397520 26710 L-397417 26733 L-396829 26733 L-396769 26733 L-396669 26710 L-396229 26662 L-396121 26639 L-395680 26615 L-394680 26544 L-394423 26473 L-394321 26402 L-394190 26355 L-393824 26308 L-393243 26261 L-393212 26237 L-392896 26213 L-390913 26190 L-390798 26166 L-390730 26166 L-390371 26142 L-388753 26119 L-388575 26119 L-388431 26119 L-387608 26142 L-387556 26166 L-387501 26166 L-387067 26166 L-386087 26190 L-386013 26190 L-384928 26166 L-384715 26166 L-383999 26119 L-383610 26095 L-383392 26048 L-383072 26001 L-382578 25953 L-382451 25930 L-382222 25883 L-381989 25835 L-381930 25812 L-381641 25788 L-381369 25741 L-380339 25717 L-378674 25693 L-378254 25670 L-378117 25646 L-377961 25646 L-377656 25623 L-377428 25575 L-377269 25552 L-377110 25504 L-376941 25457 L-376893 25433 L-376840 25410 L-376818 25410 L-376432 25386 L-376182 25386 L-375912 25386 L-375751 25386 L-375662 25386 L-374003 25386 L-373838 25410 L-373458 25386 L-372998 25386 L-372388 25339 L-371295 25315 L-370864 25292 L-370833 25268 L-370770 25244 L-370753 25221 L-369049 25197 L-369007 25173 L-368541 25150 L-368354 25126 L-368322 25079 L-367726 25055 L-367677 25032 L-367354 25008 L-367303 24984 L-367093 24961 L-367075 24937 L-366808 24890 L-366756 24866 L-366287 24843 L-365776 24795 L-365698 24795 L-365404 24772 L-365387 24748 L-365348 24724 L-365277 24701 L-365120 24677 L-364174 24677 L-364118 24677 L-363597 24677 L-363404 24653 L-363303 24653 L-363077 24630 L-362568 24630 L-362180 25268 L-362110 25268 L-361762 25244 L-361405 25221 L-360276 24535 L-360224 24488 L-359998 24464 L-359964 24441 L-359839 24393 L-359741 24393 L-359476 24393 L-358736 24417 L-358157 24417 L-357864 24417 L-357158 24417 L-356979 24393 L-356956 24393 L-356320 24370 L-356009 24346 L-355612 24346 L-355583 24323 L-355562 24299 L-355408 24275 L-354723 24275 L-354706 24275 L-354366 24275 L-354094 24252 L-354057 24228 L-354000 24181 L-353978 24157 L-353907 24134 L-353575 24110 L-353468 24086 L-353440 24039 L-353242 24015 L-353089 23992 L-352221 23968 L-351658 23921 L-351642 23921 L-351541 23897 L-351439 23921 L-351292 23921 L-351214 23921 L-351176 23897 L-351121 23874 L-351047 23850 L-350902 23826 L-350421 23826 L-350016 23803 L-349150 23826 L-349130 23826 L-348872 23826 L-348796 23826 L-348767 23803 L-348756 23755 L-348739 23732 L-348446 23708 L-348407 23684 L-348335 23661 L-348261 23637 L-348056 23614 L-347896 23543 L-347595 23472 L-347517 23377 L-347500 23306 L-347284 23259 L-347053 23259 L-346943 23283 L-346573 23306 L-346415 23306 L-346183 23306 L-346015 23306 L-345870 23283 L-345738 23259 L-344462 23212 L-344058 23164 L-343998 23141 L-343881 23094 L-343456 23070 L-343440 23023 L-343378 22999 L-343105 22952 L-342993 22928 L-342710 22881 L-342433 22857 L-342008 22810 L-341986 22786 L-341907 22763 L-341782 22739 L-341195 22715 L-340804 22692 L-340468 22668 L-339879 22645 L-339777 22645 L-339607 22621 L-339470 22621 L-338643 22597 L-337457 22574 L-337421 22550 L-337366 22550 L-337145 22526 L-336940 22526 L-336786 22526 L-336529 22503 L-336452 22479 L-335910 22455 L-335873 22432 L-335625 22408 L-335237 22385 L-334411 22361 L-334053 22337 L-333743 22337 L-333485 22314 L-333261 22290 L-332855 22266 L-332738 22243 L-332555 22219 L-332502 22219 L-332313 22195 L-332143 22172 L-332114 22148 L-331833 22125 L-331523 22101 L-331385 22077 L-331075 22054 L-330881 22054 L-330866 22030 L-330147 22030 L-330013 21983 L-329715 21959 L-329625 21935 L-329024 21935 L-328986 21912 L-328907 21888 L-328287 21865 L-328136 21817 L-328095 21794 L-327784 21770 L-327593 21746 L-327400 21699 L-327344 21652 L-327035 21628 L-326983 21605 L-326928 21628 L-326903 21628 L-326778 21628 L-325967 21605 L-325891 21581 L-325350 21557 L-325081 21534 L-324422 21510 L-323514 21486 L-323273 21463 L-322741 21439 L-322524 21415 L-321416 21439 L-321366 21439 L-320590 21439 L-320042 21415 L-319931 21392 L-319779 21345 L-319723 21321 L-319558 21297 L-319181 21274 L-318733 21250 L-318678 21226 L-318524 21203 L-317844 21179 L-317624 21155 L-317106 21132 L-316257 21085 L-316241 21061 L-314450 21037 L-313896 21014 L-313778 20990 L-312773 20966 L-312736 20943 L-312503 20943 L-312411 20943 L-312371 20943 L-312039 20919 L-311687 20896 L-311422 20848 L-311135 20825 L-310824 20777 L-310570 20730 L-310476 20706 L-309986 20683 L-309779 20659 L-309213 20636 L-309099 20659 L-308748 20636 L-308697 20636 L-308656 20636 L-308053 20588 L-307319 20541 L-306738 20494 L-306502 20446 L-305962 20376 L-305809 20328 L-305308 20305 L-305098 20257 L-305075 20257 L-305016 20234 L-304054 20234 L-303876 20210 L-303434 20186 L-303410 20139 L-303255 20116 L-303173 20116 L-303023 20139 L-302376 20139 L-302326 20116 L-301206 20092 L-300222 20068 L-300161 20045 L-299440 20021 L-298575 19997 L-298196 19974 L-297978 19974 L-297218 19950 L-297166 19926 L-296857 19879 L-296005 19879 L-295812 19856 L-295636 19832 L-295411 19832 L-295285 19808 L-295092 19808 L-294860 19785 L-294690 19808 L-294404 19785 L-294125 19785 L-294042 19761 L-293871 19737 L-293855 19690 L-293700 19666 L-293661 19643 L-292886 19619 L-292809 19619 L-292577 19572 L-292150 19548 L-291805 19525 L-291222 19501 L-290953 19501 L-290694 19501 L-290564 19454 L-290548 19430 L-290434 19406 L-290411 19383 L-290177 19359 L-290140 19336 L-288824 19336 L-288769 19312 L-288090 19265 L-287517 19265 L-287392 19265 L-287239 19265 L-287162 19265 L-286850 19217 L-286577 19194 L-286488 19147 L-286386 19147 L-285458 19123 L-285382 19123 L-285018 19123 L-284993 19099 L-284957 19076 L-284181 19028 L-284089 19005 L-283949 18981 L-283548 18957 L-283286 18957 L-283042 18981 L-282828 18957 L-282748 18957 L-282672 18957 L-282595 18957 L-282408 18981 L-282342 18981 L-282092 18981 L-282037 18957 L-281900 18934 L-281820 18887 L-281707 18863 L-281483 18839 L-281319 18816 L-281278 18792 L-281109 18768 L-280738 18745 L-280723 18721 L-280607 18697 L-279886 18674 L-279850 18650 L-279717 18650 L-279369 18627 L-278958 18627 L-278922 18627 L-278844 18603 L-278805 18579 L-278441 18556 L-278236 18532 L-278221 18508 L-277876 18485 L-277527 18485 L-277202 18485 L-277100 18461 L-276947 18461 L-276753 18437 L-276521 18437 L-276429 18437 L-276273 18437 L-276196 18437 L-276155 18414 L-276042 18390 L-276018 18367 L-275768 18367 L-275629 18319 L-275051 18248 L-274223 18201 L-273735 18154 L-273614 18130 L-273575 18107 L-273562 18083 L-273410 18036 L-273309 17988 L-273076 17965 L-272686 17917 L-272381 17894 L-272366 17870 L-272195 17847 L-271957 17799 L-271360 17799 L-270756 17776 L-270717 17776 L-270676 17776 L-270523 17752 L-270470 17728 L-270407 17705 L-270339 17681 L-270285 17634 L-270260 17610 L-270213 17587 L-270118 17539 L-269981 17516 L-269828 17492 L-269696 17468 L-269655 17468 L-269619 17445 L-269557 17421 L-269284 17374 L-268970 17350 L-268929 17303 L-268844 17279 L-268666 17256 L-268429 17232 L-268071 17208 L-268041 17185 L-267472 17161 L-267349 17138 L-267113 17114 L-267090 17114 L-266809 17090 L-266524 17090 L-266268 17090 L-265696 17067 L-265400 17043 L-265324 17019 L-264625 16996 L-264547 16972 L-264512 16948 L-264486 16925 L-264434 16878 L-264240 16854 L-264100 16807 L-264064 16783 L-264024 16759 L-263428 16736 L-263196 16712 L-262913 16878 L-262858 17019 L-262784 17185 L-262706 17327 L-262470 17279 L-262226 17256 L-262091 17232 L-261984 17208 L-261904 17185 L-261517 17138 L-261390 17114 L-261238 17090 L-261200 17067 L-261054 17043 L-260832 17019 L-260659 16996 L-260590 16972 L-259768 16925 L-259752 16925 L-259457 16901 L-258670 16878 L-258360 16878 L-258214 16854 L-257985 16830 L-257785 16783 L-256848 16759 L-256811 16736 L-256788 16712 L-256748 16665 L-256479 16641 L-255882 16618 L-255819 16594 L-255783 16570 L-255766 16547 L-255071 16547 L-254870 16547 L-254838 16547 L-254505 16547 L-254397 16523 L-253772 16476 L-253268 16452 L-253231 16405 L-252789 16405 L-252692 16381 L-252534 16381 L-252220 16381 L-252208 16381 L-251768 16405 L-251286 16428 L-251157 16428 L-250837 16428 L-250768 16405 L-250464 16405 L-250288 16381 L-250095 16358 L-249852 16310 L-249654 16263 L-249629 16216 L-249051 16192 L-248981 16168 L-248571 16145 L-248517 16121 L-248470 16098 L-248107 16074 L-247960 16050 L-247755 16027 L-247659 16027 L-247504 16003 L-247442 15979 L-247294 15932 L-247194 15909 L-246637 15909 L-246615 15956 L-246443 15979 L-245901 16003 L-245840 16003 L-245786 15956 L-245757 15909 L-245686 15885 L-245670 15838 L-245606 15814 L-245570 15767 L-245415 15743 L-245089 15719 L-244523 15696 L-244509 15672 L-244447 15625 L-244345 15578 L-244299 15578 L-244056 15554 L-243634 15554 L-243479 15554 L-241738 15507 L-241196 15483 L-240253 15459 L-239844 15436 L-239302 15389 L-239106 15365 L-238937 15341 L-238642 15318 L-238527 15294 L-238512 15294 L-238357 15270 L-238217 15247 L-238140 15199 L-238009 15199 L-237661 15199 L-237290 15223 L-236692 15223 L-236516 15223 L-236360 15199 L-236091 15176 L-235940 15176 L-235649 15247 L-235625 15294 L-235542 15341 L-235314 15389 L-234615 15365 L-234488 15341 L-234057 15318 L-233963 15294 L-232758 15294 L-232709 15270 L-232415 15270 L-232012 15247 L-231736 15199 L-231717 15176 L-231599 15152 L-231523 15129 L-231341 15105 L-230861 15081 L-230410 15034 L-230000 15010 L-229969 14987 L-229551 14963 L-229437 14963 L-229319 14963 L-229304 14963 L-229109 14939 L-229088 14892 L-228856 14869 L-228412 14845 L-228093 14798 L-227628 14798 L-227463 14774 L-227308 14750 L-227152 14750 L-226699 14750 L-226379 14750 L-226325 14774 L-225953 14774 L-225916 14798 L-225589 14798 L-225473 14774 L-225374 14750 L-225048 14703 L-224661 14679 L-224400 14656 L-224042 14609 L-223785 14585 L-221615 14561 L-221566 14538 L-221543 14514 L-221132 14514 L-221070 14514 L-221000 14538 L-220769 14538 L-220458 14514 L-220155 14467 L-220111 14443 L-219803 14419 L-219670 14396 L-219453 14372 L-218741 14349 L-218586 14349 L-218448 14325 L-218299 14325 L-218278 14325 L-218084 14301 L-218058 14278 L-217967 14254 L-217945 14230 L-217929 14207 L-217829 14183 L-216900 14160 L-216442 14160 L-215350 14112 L-214928 14112 L-214524 14089 L-214485 14065 L-214231 14041 L-213457 13994 L-213441 13970 L-213416 13947 L-213223 13923 L-212487 13900 L-212218 13876 L-212177 13852 L-211778 13805 L-211753 13781 L-210964 13758 L-210284 13734 L-208913 13710 L-208643 13687 L-208594 13663 L-208057 13616 L-208024 13592 L-207922 13545 L-207598 13521 L-207519 13498 L-207250 13498 L-206337 13474 L-206199 13474 L-205950 13427 L-205404 13427 L-204982 13403 L-204789 13380 L-204774 13380 L-204636 13332 L-204542 13309 L-204415 13285 L-204155 13261 L-204130 13214 L-204039 13190 L-203729 13167 L-203668 13143 L-203551 13143 L-203202 13143 L-202391 13143 L-202160 13096 L-201331 13096 L-201098 13049 L-200882 13025 L-200363 13025 L-199725 13001 L-199309 12978 L-198987 12954 L-198506 12930 L-198080 12930 L-198019 12907 L-197671 12907 L-197630 12883 L-197616 12860 L-197517 12812 L-197471 12812 L-196986 12789 L-196185 12789 L-195850 12789 L-194769 12765 L-194289 12741 L-194266 12718 L-194126 12694 L-193570 12670 L-192873 12647 L-192564 12623 L-192343 12600 L-192238 12576 L-192135 12529 L-191464 12505 L-191370 12481 L-191348 12481 L-191271 12458 L-191093 12458 L-190921 12458 L-190740 12434 L-190727 12411 L-190651 12387 L-190486 12363 L-189971 12340 L-189955 12316 L-189815 12316 L-189452 12292 L-189428 12292 L-189298 12269 L-189273 12245 L-188911 12221 L-188385 12174 L-188292 12151 L-188076 12103 L-187982 12080 L-187958 12056 L-187494 12032 L-187417 12032 L-187015 12009 L-186564 12009 L-185312 11985 L-185274 11961 L-184842 11938 L-184809 11914 L-184090 11891 L-183914 11867 L-183778 11843 L-183472 11820 L-183417 11796 L-183392 11749 L-183376 11701 L-183201 11678 L-183011 11654 L-182504 11654 L-182130 11465 L-181792 11252 L-181753 11063 L-181034 10898 L-180941 10874 L-180902 10851 L-180360 10851 L-180337 10827 L-179935 10803 L-179509 10780 L-179238 10780 L-179058 10756 L-178813 10709 L-178789 10685 L-178733 10638 L-178116 10614 L-177613 10591 L-177226 10591 L-176607 10614 L-176391 10614 L-176236 10638 L-174944 10591 L-174844 10567 L-174402 10520 L-174071 10496 L-173770 10449 L-173528 10425 L-172793 10378 L-172214 10354 L-171384 10331 L-171284 10307 L-170726 10283 L-170588 10260 L-168947 10236 L-168886 10236 L-168792 10236 L-167825 10236 L-167647 10212 L-167360 10212 L-167142 10212 L-167064 10189 L-166793 10189 L-166678 10165 L-166525 10142 L-166214 10118 L-166136 10094 L-166045 10094 L-165968 10071 L-165851 10071 L-165672 10047 L-165580 10023 L-165542 10000 L-165039 10000 L-164820 9976 L-164691 9976 L-164536 9952 L-164481 9929 L-164357 9929 L-163972 9905 L-163463 9882 L-163391 9858 L-162911 9834 L-162834 9811 L-162733 9811 L-162500 9787 L-162035 9787 L-161805 9787 L-161789 9787 L-161557 9787 L-161402 9787 L-161340 9787 L-161147 9763 L-160876 9716 L-160125 9692 L-159172 9692 L-159136 9669 L-158911 9669 L-158471 9669 L-158190 9622 L-157842 9598 L-156773 9574 L-155845 9574 L-155714 9574 L-155668 9574 L-155598 9551 L-155444 9551 L-155366 9503 L-155193 9456 L-154758 9409 L-154554 9385 L-154493 9338 L-153911 9314 L-153757 9267 L-153641 9243 L-153601 9220 L-153431 9196 L-153294 9173 L-153083 9125 L-153006 9102 L-152983 9078 L-152774 9031 L-152364 9007 L-152340 8983 L-152116 8960 L-151971 8936 L-151936 8913 L-151923 8889 L-151900 8865 L-151667 8842 L-151482 8818 L-151264 8794 L-151239 8771 L-150550 8747 L-150446 8723 L-150411 8700 L-150390 8676 L-150196 8653 L-150143 8629 L-150026 8582 L-149944 8582 L-149833 8558 L-149519 8534 L-149059 8511 L-148804 8487 L-148570 8440 L-148440 8416 L-148088 8393 L-148029 8369 L-147876 8345 L-147304 8298 L-147217 8274 L-147064 8227 L-146768 8180 L-146398 8133 L-146095 8085 L-146018 8062 L-145613 8038 L-145445 8038 L-145301 8038 L-144761 8038 L-144701 8038 L-144685 7991 L-144519 7967 L-144313 7943 L-144238 7943 L-144145 7920 L-143735 7896 L-143720 7873 L-143696 7873 L-143503 7849 L-143427 8062 L-143256 8274 L-143194 8463 L-143178 8676 L-142664 8653 L-142442 8629 L-141823 8582 L-141570 8558 L-141376 8534 L-141337 8511 L-141263 8511 L-141198 8511 L-140547 8511 L-140509 8534 L-140335 8534 L-140269 8534 L-139595 8534 L-139206 8487 L-138944 8463 L-138706 8440 L-138628 8393 L-138613 8345 L-138411 8322 L-138040 8274 L-137814 8251 L-137179 8227 L-137159 8227 L-136772 8203 L-136678 8203 L-136620 8180 L-136344 8156 L-136035 8156 L-135957 8133 L-135106 8156 L-134764 8274 L-134327 8416 L-133893 8534 L-133398 8653 L-133248 8629 L-132980 8653 L-131742 8676 L-131685 8723 L-129921 8747 L-129731 8723 L-128721 8700 L-128570 8676 L-128194 8723 L-127873 8771 L-127268 8818 L-127198 8865 L-127021 8842 L-126193 8818 L-126054 8794 L-125667 8771 L-125483 8747 L-125439 8723 L-125319 8700 L-125109 8676 L-124662 8629 L-124314 8605 L-124181 8582 L-123773 8558 L-123422 8558 L-123137 8534 L-122944 8511 L-122789 8511 L-122625 8487 L-122557 8463 L-122457 8463 L-122223 8440 L-122107 8440 L-122054 8416 L-121512 8416 L-121048 8393 L-119866 8393 L-119732 8393 L-119708 8393 L-119655 8393 L-118987 8393 L-117952 8345 L-117759 8322 L-117579 8298 L-117427 8298 L-117387 8274 L-117372 8274 L-117310 8251 L-116985 8227 L-115825 8203 L-115631 8180 L-115454 8156 L-114340 8133 L-113480 8109 L-113374 8109 L-112900 8085 L-112708 8085 L-110386 8062 L-110308 8038 L-110187 7991 L-110153 7967 L-110115 7920 L-110021 7849 L-109805 7802 L-109224 7754 L-108838 7731 L-108065 7707 L-107987 7683 L-107290 7683 L-106748 7683 L-106707 7660 L-106577 7660 L-106113 7636 L-106074 7613 L-105940 7589 L-105572 7565 L-105542 7542 L-105392 7542 L-104991 7518 L-103167 7542 L-102360 7518 L-101642 7518 L-101625 7518 L-101311 7471 L-100750 7447 L-100248 7424 L-99729 7400 L-99708 7376 L-97964 7353 L-97795 7329 L-97599 7305 L-96705 7282 L-96187 7234 L-95976 7211 L-95718 7187 L-95009 7164 L-94059 7140 L-93400 7116 L-93361 7069 L-93075 7045 L-92992 7022 L-92897 7022 L-92765 6998 L-92688 6998 L-91953 6998 L-91615 6974 L-91566 6998 L-91310 6998 L-91024 6974 L-90598 6974 L-90018 6951 L-89759 6951 L-89608 6927 L-89360 6927 L-89322 6927 L-88525 6904 L-88487 6880 L-88310 6880 L-87901 6833 L-87672 6833 L-87596 6833 L-87465 6833 L-87348 6809 L-87000 6785 L-86937 6762 L-86784 6738 L-86044 6714 L-85932 6691 L-85762 6667 L-85723 6644 L-85428 6644 L-85027 6644 L-84851 6644 L-84756 6644 L-84447 6620 L-83645 6596 L-83187 6549 L-82667 6525 L-82178 6502 L-81483 6478 L-80436 6454 L-80167 6454 L-80113 6431 L-79953 6431 L-79701 6431 L-79455 6407 L-79376 6384 L-79162 6336 L-78850 6313 L-78387 6265 L-78372 6242 L-78076 6242 L-78063 6218 L-77071 6194 L-76399 6171 L-76064 6124 L-75448 6124 L-75311 6100 L-74672 6076 L-74542 6053 L-73591 6005 L-73492 5958 L-72932 5935 L-72523 5935 L-72095 5935 L-72004 5911 L-71169 5911 L-70806 5911 L-70766 5935 L-70634 5958 L-70457 5958 L-70240 5958 L-70187 5935 L-70030 5887 L-69777 5864 L-68677 5840 L-68599 5816 L-68380 5793 L-68249 5745 L-68213 5722 L-68019 5698 L-67920 5675 L-67436 5651 L-67152 5627 L-66992 5604 L-66897 5556 L-66625 5533 L-66355 5509 L-66339 5415 L-66201 5344 L-66063 5273 L-65736 5178 L-65427 5131 L-65386 5107 L-65310 5060 L-65195 5036 L-64345 4989 L-64018 4965 L-63687 4942 L-63554 4942 L-63338 4942 L-63322 4942 L-62641 4942 L-62548 4895 L-62524 4871 L-62509 4824 L-62470 4800 L-62058 4753 L-61789 4729 L-61749 4705 L-61381 4705 L-61171 4682 L-60088 4682 L-60072 4658 L-60043 4635 L-60023 4635 L-59646 4587 L-59391 4564 L-59143 4516 L-59004 4469 L-58872 4445 L-58540 4422 L-58447 4398 L-58386 4375 L-57828 4351 L-57766 4327 L-57611 4304 L-57416 4280 L-57224 4256 L-57209 4233 L-57170 4209 L-57131 4186 L-56860 4162 L-56737 4138 L-56705 4115 L-56605 4115 L-56450 4115 L-56309 4115 L-56024 4091 L-55699 4091 L-55003 4067 L-54980 4067 L-54471 4067 L-53625 4067 L-53262 4044 L-53107 4020 L-52503 4020 L-52333 4020 L-52273 4020 L-52217 3996 L-51162 3973 L-51143 3973 L-50238 3973 L-50216 3973 L-50049 3949 L-49807 3949 L-49757 3926 L-49702 3878 L-49565 3855 L-49525 3831 L-48597 3807 L-48542 3807 L-48420 3807 L-48348 3807 L-48232 3807 L-48054 3831 L-47071 3807 L-46932 3807 L-46814 3760 L-46520 3713 L-46273 3689 L-46236 3666 L-46181 3689 L-46160 3689 L-46027 3689 L-45948 3689 L-45810 3666 L-45187 3666 L-45021 3642 L-44556 3642 L-44380 3595 L-44363 3571 L-44303 3547 L-44186 3524 L-43704 3500 L-43008 3476 L-42635 3453 L-42466 3429 L-41500 3406 L-41345 3382 L-41167 3382 L-41075 3358 L-40819 3358 L-40649 3358 L-40002 3335 L-39991 3335 L-39411 3311 L-39273 3311 L-39217 3264 L-38482 3240 L-38444 3216 L-38366 3216 L-37724 3193 L-36950 3193 L-36857 3169 L-36808 3169 L-36793 3146 L-36757 3146 L-36741 3098 L-36678 3075 L-36662 3051 L-36642 3051 L-36487 3027 L-36448 3004 L-36432 2980 L-36393 2956 L-36253 2933 L-36177 2909 L-35812 2886 L-35464 2862 L-34691 2838 L-34088 2815 L-33892 2791 L-33662 2791 L-33524 2767 L-32886 2767 L-32597 2744 L-32575 2744 L-32115 2720 L-31882 2720 L-31827 2696 L-31789 2673 L-31286 2649 L-30736 2626 L-29948 2602 L-28825 2602 L-27930 2578 L-27842 2578 L-27543 2555 L-27471 2531 L-27355 2507 L-26179 2484 L-25831 2460 L-25808 2437 L-25289 2413 L-25142 2389 L-25034 2366 L-24825 2342 L-24670 2318 L-24647 2295 L-24453 2271 L-24377 2247 L-24233 2224 L-23432 2200 L-23286 2177 L-23006 2153 L-22829 2129 L-22519 2106 L-21707 2082 L-20779 2082 L-19187 2058 L-18944 2035 L-18303 2011 L-18107 1987 L-18029 1964 L-17512 1940 L-17280 1940 L-17257 1917 L-17125 1917 L-16786 1893 L-16775 1869 L-16559 1846 L-16521 1822 L-15980 1798 L-15451 1751 L-15383 1727 L-15090 1704 L-14543 1657 L-14507 1633 L-14455 1609 L-14355 1562 L-14123 1562 L-13543 1562 L-13445 1586 L-13371 1586 L-13039 1562 L-12289 1538 L-12250 1515 L-11570 1515 L-11415 1515 L-11089 1491 L-10873 1467 L-10642 1467 L-10345 1444 L-10099 1420 L-9748 1397 L-9695 1373 L-8936 1349 L-8242 1302 L-7892 1255 L-7428 1231 L-6795 1207 L-6386 1184 L-6308 1207 L-5882 1207 L-5239 1184 L-5070 1184 L-4328 1160 L-4141 1137 L-3846 1113 L-3274 1089 L-3248 1066 L-2229 1066 L-1742 1042 L-1649 1042 L-1588 1018 L-1300 995 L-1014 971 L-952 948 L-772 948 L-61 924 L114 900 L312 877 L464 853 L555 829 L617 806 L1159 806 L1470 782 L1561 735 L1639 688 L2206 664 L2297 664 L2552 617 L2878 569 L2916 498 L3070 428 L3302 404 L3625 380 L4757 357 L4956 333 L5482 309 L5727 309 L5972 286 L6052 262 L6072 215 L6149 191 L6204 144 L6282 120 L6321 97 L6500 49" />
</svg>
