<svg xmlns="http://www.w3.org/2000/svg" version="1.1" viewBox="0 0 6500 1000">
	<path fill="none" stroke="gold" stroke-width="125" stroke-linecap="round" stroke-linejoin="round" d="M0 21842  L-172678 21842 L-172494 21813 L-172004 21756 L-171710 21728 L-171399 21671 L-171164 21642 L-171111 21585 L-171052 21528 L-170899 21500 L-170858 21442 L-170725 21414 L-170433 21385 L-169892 21385 L-169282 21357 L-169234 21357 L-168594 21328 L-168561 21328 L-168035 21328 L-167903 21300 L-167512 21243 L-167184 21186 L-167067 21128 L-166856 21071 L-166139 21071 L-165569 21043 L-165462 21043 L-165287 21014 L-165066 20957 L-164664 20929 L-164639 20872 L-163711 20815 L-163623 20757 L-163541 20700 L-163471 20643 L-163173 20615 L-163021 20558 L-161131 20586 L-161030 20586 L-160768 20586 L-160475 20615 L-160333 20558 L-160084 20558 L-160049 20529 L-159890 20501 L-159427 20444 L-159174 20415 L-158962 20358 L-158710 20329 L-158361 20301 L-157434 20244 L-157340 20187 L-156929 20158 L-155759 20101 L-154570 20073 L-154477 20015 L-154450 19958 L-154184 19901 L-153885 19844 L-153756 19787 L-153719 19730 L-152904 19730 L-152520 19759 L-151460 19787 L-151398 19787 L-151133 20358 L-150662 20900 L-150470 21442 L-150206 21985 L-149869 21956 L-149734 21928 L-149278 21899 L-148535 21871 L-148517 21842 L-148352 21785 L-148284 21785 L-147768 21756 L-146739 21756 L-146543 21728 L-146054 21699 L-145692 21671 L-145284 21671 L-144898 21699 L-143194 21699 L-143096 21699 L-143025 21699 L-142963 21699 L-142779 21671 L-142442 21671 L-141802 21642 L-141725 21614 L-141664 21614 L-141477 21585 L-141398 21585 L-141220 21557 L-141201 21528 L-140971 21528 L-140583 21500 L-139695 21500 L-139655 21471 L-139567 21442 L-139540 21385 L-138532 21357 L-138382 21300 L-138358 21271 L-138225 21243 L-138185 21214 L-136927 21186 L-136869 21186 L-136329 21157 L-136277 21157 L-136230 21157 L-135835 21128 L-135695 21100 L-135496 21071 L-135349 21071 L-135184 21071 L-134908 21100 L-134549 21100 L-133996 21071 L-133351 21043 L-133093 20986 L-132939 20957 L-132538 20929 L-132498 20900 L-132377 20872 L-132315 20900 L-132301 20900 L-132208 20900 L-131915 20872 L-131763 20757 L-131433 20700 L-131355 20643 L-131279 20615 L-131053 20529 L-130986 20472 L-130758 20415 L-130706 20358 L-130541 20329 L-129535 20301 L-129352 20272 L-128801 20244 L-128408 20187 L-128011 20158 L-127160 20101 L-127082 20073 L-126503 20044 L-126062 20044 L-125821 20015 L-125664 20015 L-125263 19958 L-125242 19958 L-124797 19930 L-124392 19901 L-124256 19844 L-124081 19787 L-123945 19730 L-123694 19673 L-122694 19644 L-122612 19616 L-122477 19587 L-122438 19559 L-121548 19530 L-121333 19502 L-120889 19473 L-120772 19445 L-120715 19416 L-120039 19416 L-119939 19388 L-119910 19388 L-118568 19359 L-118162 19331 L-118123 19302 L-117194 19273 L-117096 19245 L-116963 19216 L-116559 19188 L-116533 19159 L-116440 19131 L-116224 19102 L-115813 19045 L-114659 18988 L-114367 18931 L-114339 18874 L-113731 18845 L-113480 18788 L-113461 18760 L-112531 18731 L-112480 18674 L-112358 18646 L-112340 18589 L-112184 18560 L-112009 18503 L-111872 18474 L-111816 18446 L-111708 18417 L-111623 18389 L-111389 18360 L-111315 18332 L-111006 18303 L-110888 18275 L-110718 18246 L-110627 18218 L-110525 18218 L-110501 18189 L-110424 18189 L-110326 18132 L-109960 18103 L-109855 18075 L-109351 18046 L-108900 18018 L-108861 17989 L-108837 17961 L-108797 17932 L-108668 17904 L-108567 17875 L-108125 17847 L-107843 17818 L-107251 17789 L-107120 17761 L-106846 17704 L-106694 17675 L-106540 17647 L-106455 17590 L-106377 17561 L-106191 17533 L-106141 17533 L-106113 17504 L-106034 17476 L-106010 17447 L-105727 17390 L-105123 17333 L-104128 17304 L-103830 17276 L-103096 17247 L-102852 17219 L-102762 17190 L-102184 17162 L-101486 17133 L-100734 17105 L-100415 17076 L-100032 17019 L-99955 16990 L-99321 16962 L-99135 16933 L-99048 16933 L-98918 16933 L-98605 16905 L-98556 16876 L-98414 16848 L-98392 16819 L-97425 16791 L-96879 16762 L-96401 16762 L-96340 16762 L-96016 16762 L-95995 16734 L-95932 16734 L-95722 16705 L-95645 16676 L-95591 16648 L-95568 16619 L-95529 16591 L-95513 16562 L-94756 16534 L-94739 16505 L-93940 16477 L-93788 16448 L-92882 16420 L-92376 16391 L-92147 16334 L-92105 16334 L-91990 16305 L-91814 16277 L-91059 16305 L-90925 16277 L-90761 16248 L-90442 16220 L-90266 16163 L-89244 16106 L-89221 16049 L-88970 16020 L-88757 15963 L-88123 15934 L-87885 15877 L-87852 15820 L-87674 15763 L-87594 15706 L-87504 15678 L-87440 15621 L-86999 15563 L-86976 15535 L-86435 15506 L-86179 15478 L-85685 15449 L-84807 15421 L-84770 15392 L-84718 15364 L-84677 15335 L-84559 15307 L-84283 15278 L-84076 15221 L-83879 15164 L-83856 15107 L-83805 15050 L-83766 15021 L-83688 14993 L-83091 14936 L-83030 14907 L-82927 14878 L-82773 14850 L-82141 14821 L-81460 14793 L-81157 14736 L-80811 14707 L-80613 14679 L-80565 14622 L-80244 14593 L-79617 14565 L-79470 14536 L-79434 14507 L-79376 14479 L-79299 14422 L-79058 14422 L-78970 14393 L-78876 14365 L-78582 14336 L-78448 14308 L-78387 14279 L-78351 14222 L-78078 14222 L-77072 14194 L-76897 14165 L-76846 14165 L-76553 14136 L-76361 14079 L-76028 14051 L-75521 14022 L-74959 13965 L-74944 13908 L-74928 13880 L-74827 13823 L-74713 13765 L-74674 13708 L-74636 13680 L-74570 13680 L-74542 13651 L-74403 13680 L-74110 13680 L-74060 13680 L-73955 13680 L-73691 13651 L-73226 13623 L-73081 13623 L-73027 13566 L-72970 13537 L-72779 13509 L-72413 13480 L-72199 13480 L-72004 13480 L-71946 13480 L-71887 13423 L-71733 13394 L-71464 13366 L-71034 13509 L-71019 13509 L-70942 13480 L-70877 13452 L-70748 13252 L-70724 13223 L-70440 13195 L-70392 13166 L-70338 13138 L-69875 13109 L-69837 13109 L-69796 13081 L-69606 13052 L-69125 13023 L-68638 12995 L-68622 12966 L-68584 12938 L-68327 12909 L-68250 12852 L-68020 12824 L-68004 12767 L-67710 12710 L-67267 12681 L-66820 12652 L-66316 12624 L-66162 12595 L-65875 12567 L-65835 12510 L-65504 12481 L-65282 12453 L-64765 12396 L-64689 12367 L-64442 12310 L-64247 12253 L-64187 12224 L-63411 12196 L-63337 12196 L-63106 12167 L-63090 12167 L-63028 12139 L-62832 12110 L-62368 12110 L-62345 12082 L-62215 12082 L-60914 12082 L-60898 12082 L-60821 12053 L-60727 12053 L-60510 12053 L-60357 12025 L-60179 12053 L-60125 12082 L-59838 12110 L-59798 12110 L-59429 12110 L-58989 12110 L-58806 12110 L-58485 12082 L-58189 12082 L-57743 12025 L-57672 11996 L-57209 11939 L-56772 11910 L-56589 11882 L-55135 11825 L-55003 11796 L-54546 11739 L-54320 11711 L-53934 11654 L-53417 11597 L-52463 11539 L-51669 11482 L-50994 11454 L-50569 11397 L-50258 11368 L-50028 11283 L-49345 11197 L-49331 11111 L-49122 10997 L-49100 10969 L-48925 10912 L-47975 10883 L-47707 10826 L-46892 10797 L-46581 10740 L-46544 10712 L-46486 10655 L-45870 10626 L-45232 10569 L-43606 10541 L-42932 10512 L-42290 10512 L-42212 10512 L-42156 10512 L-42120 10512 L-42092 10484 L-41980 10426 L-41962 10398 L-41939 10369 L-41786 10341 L-41732 10284 L-41654 10255 L-41535 10227 L-41437 10198 L-41320 10170 L-41051 10113 L-40781 10084 L-40763 10027 L-40564 9998 L-40417 9941 L-40190 9913 L-40056 9884 L-39747 9856 L-39687 9827 L-39334 9770 L-38985 9742 L-38884 9713 L-38820 9656 L-38760 9627 L-38376 9570 L-37995 9542 L-37891 9513 L-37630 9485 L-37359 9428 L-37200 9399 L-37168 9371 L-37106 9342 L-36964 9313 L-36780 9285 L-36736 9256 L-36448 9256 L-36432 9228 L-36198 9228 L-36138 9199 L-36099 9199 L-35519 9171 L-35386 9142 L-35362 9028 L-35344 8828 L-35327 8600 L-35310 8372 L-35286 8143 L-35270 7972 L-35249 7772 L-35232 7573 L-35209 7458 L-35192 7344 L-35171 7259 L-35154 7202 L-35105 7116 L-35033 7030 L-34998 6888 L-34974 6773 L-34939 6659 L-34897 6545 L-34860 6488 L-34844 6374 L-34820 6288 L-34783 6231 L-34766 6146 L-34743 6089 L-34725 6031 L-34707 5974 L-34691 5917 L-34662 5832 L-34636 5746 L-34590 5718 L-34574 5660 L-34532 5632 L-34484 5575 L-34413 5518 L-34398 5461 L-34382 5404 L-34320 5375 L-34280 5347 L-34241 5318 L-34075 5289 L-34010 5261 L-33994 5232 L-33950 5175 L-33891 5147 L-33679 5118 L-33645 5090 L-33603 5061 L-33525 5033 L-32988 5004 L-32909 4976 L-32805 4918 L-32717 4890 L-32540 4861 L-32190 4833 L-32034 4804 L-31596 4776 L-31439 4747 L-31310 4719 L-30606 4662 L-30405 4633 L-29444 4576 L-28962 4547 L-28862 4547 L-28770 4519 L-28525 4490 L-28452 4462 L-28009 4405 L-27913 4376 L-27898 4348 L-27882 4319 L-27857 4291 L-27391 4262 L-27174 4234 L-27035 4205 L-26741 4176 L-26652 4148 L-26611 4119 L-26581 4091 L-26409 4062 L-26350 4034 L-26274 4005 L-26193 3977 L-26123 3977 L-25814 3948 L-25729 3920 L-25515 3891 L-25480 3863 L-24796 3834 L-24698 3805 L-24493 3777 L-24446 3748 L-24168 3720 L-24106 3691 L-24088 3634 L-24010 3606 L-23702 3549 L-23678 3520 L-23624 3463 L-23601 3434 L-23479 3406 L-23343 3349 L-23099 3320 L-22973 3320 L-22326 3292 L-22310 3292 L-22286 3292 L-22105 3235 L-22029 3206 L-21938 3178 L-21510 3149 L-21094 3121 L-20701 3063 L-20622 3035 L-20603 3006 L-20240 2978 L-20004 2949 L-19775 2921 L-19462 2892 L-19384 2864 L-19304 2807 L-19125 2750 L-19110 2721 L-18844 2664 L-18764 2635 L-18534 2607 L-18308 2578 L-17992 2578 L-17817 2550 L-17456 2550 L-17064 2521 L-16995 2464 L-16931 2436 L-16791 2378 L-16739 2350 L-16638 2293 L-16136 2264 L-15938 2236 L-15692 2207 L-15506 2179 L-15207 2150 L-15130 2122 L-14964 2065 L-14080 2036 L-14051 1979 L-13928 1922 L-13350 1893 L-13272 1865 L-12559 1865 L-12247 1865 L-12033 1865 L-12017 1865 L-11630 1865 L-11105 1808 L-10659 1779 L-10329 1751 L-10177 1722 L-9851 1722 L-9672 1694 L-9591 1694 L-9385 1636 L-9209 1608 L-8280 1579 L-7391 1551 L-7352 1522 L-7124 1522 L-6745 1494 L-5957 1465 L-5723 1437 L-5647 1408 L-5289 1380 L-4718 1323 L-4451 1294 L-4064 1265 L-3960 1265 L-3790 1265 L-3172 1265 L-2961 1265 L-2653 1265 L-2600 1237 L-2472 1208 L-2419 1180 L-2300 1151 L-1964 1094 L-1004 1066 L-873 1009 L-671 980 L-40 952 L270 923 L684 894 L712 866 L857 837 L1277 809 L2610 809 L2656 780 L2785 723 L2802 695 L3380 638 L3585 609 L3615 581 L3656 552 L3713 523 L3751 495 L3829 466 L3972 438 L4426 409 L4545 381 L4830 352 L5202 324 L5299 295 L5626 267 L5980 238 L6150 210 L6197 181 L6306 152 L6395 124 L6423 95 L6500 38" />
</svg>
