<svg xmlns="http://www.w3.org/2000/svg" version="1.1" viewBox="0 0 6500 1000">
	<path fill="none" stroke="gold" stroke-width="125" stroke-linecap="round" stroke-linejoin="round" d="M0 73891  L-376921 73891 L-376737 73838 L-376247 73733 L-375953 73680 L-375642 73575 L-375408 73522 L-375354 73417 L-375295 73312 L-375142 73259 L-375101 73154 L-374969 73102 L-374676 73049 L-374135 73049 L-373525 72996 L-373477 72996 L-372837 72944 L-372804 72944 L-372278 72944 L-372146 72891 L-371755 72786 L-371427 72681 L-371310 72576 L-371099 72470 L-370382 72470 L-369812 72418 L-369705 72418 L-369530 72365 L-369309 72260 L-368907 72207 L-368882 72102 L-367954 71997 L-367866 71892 L-367784 71786 L-367714 71681 L-367417 71629 L-367265 71523 L-365375 71576 L-365274 71576 L-365011 71576 L-364718 71629 L-364576 71523 L-364328 71523 L-364292 71471 L-364134 71418 L-363670 71313 L-363417 71260 L-363205 71155 L-362953 71103 L-362605 71050 L-361677 70945 L-361584 70840 L-361173 70787 L-360002 70682 L-358813 70629 L-358721 70524 L-358693 70419 L-358427 70314 L-358128 70208 L-357999 70103 L-357962 69998 L-357147 69998 L-356763 70051 L-355703 70103 L-355642 70103 L-355376 71155 L-354905 72155 L-354713 73154 L-354449 74154 L-354112 74101 L-353977 74048 L-353521 73996 L-352778 73943 L-352761 73891 L-352595 73785 L-352527 73785 L-352011 73733 L-350982 73733 L-350786 73680 L-350298 73628 L-349936 73575 L-349527 73575 L-349141 73628 L-347438 73628 L-347340 73628 L-347268 73628 L-347207 73628 L-347022 73575 L-346686 73575 L-346045 73522 L-345968 73470 L-345907 73470 L-345720 73417 L-345641 73417 L-345464 73365 L-345444 73312 L-345214 73312 L-344827 73259 L-343938 73259 L-343899 73207 L-343810 73154 L-343783 73049 L-342775 72996 L-342625 72891 L-342601 72839 L-342468 72786 L-342428 72733 L-341170 72681 L-341112 72681 L-340572 72628 L-340520 72628 L-340473 72628 L-340078 72576 L-339939 72523 L-339739 72470 L-339592 72470 L-339427 72470 L-339151 72523 L-338792 72523 L-338240 72470 L-337595 72418 L-337336 72312 L-337182 72260 L-336781 72207 L-336741 72155 L-336620 72102 L-336559 72155 L-336545 72155 L-336451 72155 L-336158 72102 L-336006 71892 L-335676 71786 L-335598 71681 L-335522 71629 L-335296 71471 L-335229 71366 L-335001 71260 L-334949 71155 L-334784 71103 L-333779 71050 L-333595 70997 L-333044 70945 L-332651 70840 L-332254 70787 L-331404 70682 L-331325 70629 L-330746 70577 L-330305 70577 L-330064 70524 L-329907 70524 L-329506 70419 L-329486 70419 L-329041 70366 L-328635 70314 L-328499 70208 L-328324 70103 L-328188 69998 L-327937 69893 L-326938 69840 L-326855 69788 L-326720 69735 L-326681 69682 L-325792 69630 L-325576 69577 L-325133 69524 L-325015 69472 L-324958 69419 L-324282 69419 L-324182 69367 L-324153 69367 L-322811 69314 L-322405 69261 L-322366 69209 L-321438 69156 L-321339 69104 L-321207 69051 L-320802 68998 L-320776 68946 L-320683 68893 L-320467 68841 L-320056 68735 L-318902 68630 L-318610 68525 L-318582 68420 L-317974 68367 L-317724 68262 L-317704 68209 L-316775 68157 L-316723 68052 L-316601 67999 L-316583 67894 L-316427 67841 L-316252 67736 L-316116 67683 L-316059 67631 L-315951 67578 L-315866 67526 L-315633 67473 L-315558 67420 L-315249 67368 L-315131 67315 L-314962 67263 L-314870 67210 L-314768 67210 L-314745 67157 L-314667 67157 L-314569 67052 L-314203 67000 L-314098 66947 L-313595 66894 L-313143 66842 L-313105 66789 L-313081 66736 L-313040 66684 L-312911 66631 L-312810 66579 L-312369 66526 L-312086 66473 L-311494 66421 L-311364 66368 L-311089 66263 L-310937 66210 L-310783 66158 L-310698 66053 L-310620 66000 L-310435 65947 L-310384 65947 L-310356 65895 L-310277 65842 L-310254 65790 L-309970 65684 L-309367 65579 L-308371 65527 L-308073 65474 L-307339 65421 L-307095 65369 L-307005 65316 L-306428 65264 L-305729 65211 L-304977 65158 L-304658 65106 L-304276 65001 L-304198 64948 L-303564 64895 L-303379 64843 L-303291 64843 L-303161 64843 L-302848 64790 L-302799 64738 L-302657 64685 L-302635 64632 L-301668 64580 L-301122 64527 L-300644 64527 L-300583 64527 L-300259 64527 L-300238 64475 L-300175 64475 L-299965 64422 L-299888 64369 L-299834 64317 L-299811 64264 L-299772 64211 L-299756 64159 L-298999 64106 L-298983 64054 L-298183 64001 L-298031 63948 L-297125 63896 L-296619 63843 L-296390 63738 L-296349 63738 L-296233 63685 L-296057 63633 L-295303 63685 L-295168 63633 L-295004 63580 L-294686 63528 L-294510 63422 L-293488 63317 L-293464 63212 L-293213 63159 L-293000 63054 L-292366 63002 L-292128 62896 L-292096 62791 L-291917 62686 L-291837 62581 L-291747 62528 L-291683 62423 L-291243 62318 L-291219 62265 L-290678 62213 L-290423 62160 L-289928 62107 L-289051 62055 L-289014 62002 L-288961 61950 L-288920 61897 L-288803 61844 L-288526 61792 L-288319 61687 L-288122 61581 L-288099 61476 L-288048 61371 L-288009 61318 L-287931 61266 L-287334 61160 L-287274 61108 L-287170 61055 L-287016 61003 L-286384 60950 L-285703 60897 L-285400 60792 L-285054 60740 L-284856 60687 L-284808 60582 L-284488 60529 L-283860 60477 L-283713 60424 L-283677 60371 L-283619 60319 L-283542 60214 L-283301 60214 L-283213 60161 L-283119 60108 L-282825 60056 L-282691 60003 L-282631 59951 L-282594 59845 L-282322 59845 L-281316 59793 L-281140 59740 L-281089 59740 L-280797 59688 L-280604 59582 L-280271 59530 L-279764 59477 L-279202 59372 L-279188 59267 L-279171 59214 L-279071 59109 L-278956 59004 L-278917 58899 L-278879 58846 L-278814 58846 L-278785 58793 L-278646 58846 L-278354 58846 L-278304 58846 L-278198 58846 L-277934 58793 L-277469 58741 L-277325 58741 L-277270 58635 L-277213 58583 L-277022 58530 L-276657 58478 L-276442 58478 L-276247 58478 L-276190 58478 L-276131 58372 L-275977 58320 L-275707 58267 L-275277 58530 L-275262 58530 L-275185 58478 L-275120 58425 L-274991 58057 L-274967 58004 L-274683 57952 L-274636 57899 L-274581 57846 L-274119 57794 L-274080 57794 L-274039 57741 L-273849 57689 L-273369 57636 L-272882 57583 L-272865 57531 L-272827 57478 L-272570 57426 L-272493 57320 L-272263 57268 L-272247 57163 L-271953 57057 L-271510 57005 L-271064 56952 L-270559 56900 L-270405 56847 L-270119 56794 L-270079 56689 L-269747 56637 L-269526 56584 L-269009 56479 L-268933 56426 L-268685 56321 L-268491 56216 L-268431 56163 L-267654 56110 L-267580 56110 L-267349 56058 L-267333 56058 L-267271 56005 L-267075 55953 L-266611 55953 L-266588 55900 L-266458 55900 L-265157 55900 L-265141 55900 L-265064 55847 L-264970 55847 L-264753 55847 L-264601 55795 L-264422 55847 L-264368 55900 L-264082 55953 L-264042 55953 L-263672 55953 L-263232 55953 L-263049 55953 L-262728 55900 L-262433 55900 L-261987 55795 L-261915 55742 L-261453 55637 L-261015 55584 L-260833 55532 L-259379 55427 L-259247 55374 L-258790 55269 L-258563 55216 L-258177 55111 L-257661 55006 L-256706 54901 L-255912 54795 L-255238 54743 L-254812 54638 L-254501 54585 L-254271 54427 L-253588 54269 L-253575 54112 L-253365 53901 L-253343 53849 L-253169 53743 L-252219 53691 L-251950 53586 L-251135 53533 L-250825 53428 L-250787 53375 L-250730 53270 L-250113 53217 L-249475 53112 L-247849 53059 L-247175 53007 L-246533 53007 L-246455 53007 L-246399 53007 L-246363 53007 L-246335 52954 L-246223 52849 L-246205 52796 L-246183 52744 L-246029 52691 L-245976 52586 L-245898 52533 L-245778 52481 L-245681 52428 L-245563 52376 L-245294 52270 L-245024 52218 L-245007 52113 L-244807 52060 L-244660 51955 L-244433 51902 L-244299 51850 L-243990 51797 L-243930 51744 L-243577 51639 L-243229 51587 L-243128 51534 L-243063 51429 L-243003 51376 L-242619 51271 L-242238 51218 L-242134 51166 L-241874 51113 L-241602 51008 L-241443 50955 L-241411 50903 L-241349 50850 L-241208 50798 L-241024 50745 L-240979 50692 L-240691 50692 L-240675 50640 L-240442 50640 L-240381 50587 L-240343 50587 L-239763 50534 L-239629 50482 L-239606 50271 L-239587 49903 L-239570 49482 L-239554 49062 L-239530 48641 L-239513 48325 L-239492 47957 L-239475 47589 L-239452 47378 L-239435 47168 L-239414 47010 L-239397 46905 L-239348 46747 L-239276 46589 L-239241 46326 L-239218 46116 L-239182 45905 L-239140 45695 L-239104 45590 L-239088 45379 L-239063 45221 L-239026 45116 L-239009 44958 L-238986 44853 L-238969 44748 L-238950 44643 L-238934 44538 L-238905 44380 L-238879 44222 L-238833 44169 L-238817 44064 L-238775 44012 L-238727 43906 L-238656 43801 L-238641 43696 L-238625 43591 L-238563 43538 L-238524 43486 L-238484 43433 L-238318 43380 L-238253 43328 L-238237 43275 L-238193 43170 L-238135 43117 L-237922 43065 L-237889 43012 L-237846 42960 L-237768 42907 L-237231 42854 L-237153 42802 L-237048 42697 L-236960 42644 L-236784 42591 L-236433 42539 L-236277 42486 L-235839 42433 L-235683 42381 L-235553 42328 L-234849 42223 L-234648 42170 L-233687 42065 L-233205 42013 L-233106 42013 L-233013 41960 L-232768 41907 L-232695 41855 L-232252 41750 L-232156 41697 L-232141 41644 L-232125 41592 L-232100 41539 L-231634 41487 L-231418 41434 L-231278 41381 L-230984 41329 L-230896 41276 L-230854 41224 L-230824 41171 L-230652 41118 L-230593 41066 L-230517 41013 L-230436 40961 L-230366 40961 L-230057 40908 L-229972 40855 L-229758 40803 L-229723 40750 L-229040 40698 L-228941 40645 L-228736 40592 L-228689 40540 L-228411 40487 L-228349 40435 L-228332 40329 L-228254 40277 L-227946 40172 L-227921 40119 L-227867 40014 L-227844 39961 L-227722 39908 L-227586 39803 L-227342 39751 L-227216 39751 L-226570 39698 L-226554 39698 L-226529 39698 L-226349 39593 L-226273 39540 L-226181 39488 L-225753 39435 L-225337 39382 L-224944 39277 L-224865 39225 L-224846 39172 L-224483 39119 L-224247 39067 L-224019 39014 L-223705 38962 L-223627 38909 L-223547 38804 L-223369 38699 L-223353 38646 L-223088 38541 L-223008 38488 L-222777 38436 L-222551 38383 L-222236 38383 L-222060 38330 L-221699 38330 L-221308 38278 L-221238 38173 L-221174 38120 L-221034 38015 L-220982 37962 L-220881 37857 L-220379 37804 L-220182 37752 L-219935 37699 L-219749 37647 L-219450 37594 L-219374 37541 L-219208 37436 L-218323 37384 L-218295 37278 L-218172 37173 L-217593 37120 L-217515 37068 L-216802 37068 L-216490 37068 L-216277 37068 L-216260 37068 L-215873 37068 L-215348 36963 L-214902 36910 L-214573 36857 L-214420 36805 L-214094 36805 L-213916 36752 L-213834 36752 L-213628 36647 L-213452 36594 L-212523 36542 L-211634 36489 L-211595 36437 L-211367 36437 L-210988 36384 L-210200 36331 L-209966 36279 L-209890 36226 L-209533 36174 L-208961 36068 L-208694 36016 L-208307 35963 L-208204 35963 L-208034 35963 L-207415 35963 L-207204 35963 L-206896 35963 L-206843 35911 L-206716 35858 L-206662 35805 L-206543 35753 L-206207 35648 L-205248 35595 L-205116 35490 L-204915 35437 L-204283 35385 L-203972 35332 L-203558 35279 L-203531 35227 L-203385 35174 L-202965 35122 L-201633 35122 L-201586 35069 L-201457 34964 L-201440 34911 L-200862 34806 L-200657 34753 L-200627 34701 L-200586 34648 L-200529 34596 L-200491 34543 L-200413 34490 L-200270 34438 L-199816 34385 L-199698 34332 L-199412 34280 L-199040 34227 L-198943 34175 L-198617 34122 L-198262 34069 L-198092 34017 L-198045 33964 L-197936 33912 L-197847 33859 L-197819 33806 L-197743 33701 L-197439 33649 L-197405 33543 L-197334 33491 L-196966 33438 L-196630 33386 L-196549 33386 L-196330 33333 L-196158 33280 L-196131 33228 L-195633 33175 L-195084 33070 L-194204 33017 L-194105 32912 L-194029 32860 L-193754 32807 L-193507 32702 L-193433 32649 L-193371 32544 L-193252 32491 L-193210 32439 L-193100 32386 L-193023 32281 L-192322 32228 L-192077 32176 L-192037 32123 L-191881 32071 L-191282 32071 L-191055 32071 L-190963 32071 L-190487 32071 L-189890 31965 L-189370 31913 L-189349 31860 L-189204 31807 L-188884 31807 L-188342 31807 L-188110 31807 L-187940 31807 L-187453 31755 L-187226 31702 L-187141 31650 L-186794 31597 L-186468 31597 L-185945 31544 L-185618 31492 L-185018 31439 L-184820 31334 L-184768 31281 L-184727 31229 L-184446 31176 L-183762 31071 L-183452 31018 L-183427 30913 L-183236 30861 L-183013 30808 L-182927 30755 L-182263 30650 L-182239 30598 L-182017 30492 L-181687 30440 L-181335 30335 L-181130 30282 L-180898 30177 L-180640 30124 L-180450 30019 L-180403 29966 L-180176 29914 L-180141 29861 L-179985 29809 L-179770 29756 L-179597 29703 L-179506 29651 L-179229 29598 L-178985 29546 L-178670 29493 L-178243 29493 L-178206 29493 L-177723 29493 L-177489 29493 L-177278 29440 L-177051 29388 L-176502 29388 L-176254 29335 L-175420 29335 L-175365 29283 L-175343 29230 L-175185 29177 L-174723 29125 L-174683 29072 L-174343 28967 L-174210 28914 L-173987 28862 L-173415 28809 L-172943 28756 L-172748 28704 L-172556 28651 L-172366 28599 L-172264 28546 L-171896 28493 L-171849 28441 L-171768 28388 L-170474 28336 L-170426 28283 L-170158 28283 L-170013 28283 L-169462 28283 L-169345 28230 L-169263 28178 L-168904 28125 L-168681 28073 L-168399 28020 L-168070 27915 L-167562 27862 L-167450 27810 L-167371 27757 L-167206 27704 L-166912 27704 L-166443 27704 L-166247 27757 L-166196 27757 L-165546 27704 L-165425 27652 L-164971 27652 L-164935 27599 L-164466 27547 L-164356 27494 L-164339 27441 L-164123 27441 L-163942 27389 L-163411 27389 L-162381 27389 L-162182 27336 L-161723 27284 L-160775 27178 L-160676 27126 L-160323 27021 L-160262 26968 L-160247 26915 L-160212 26863 L-159843 26810 L-159723 26758 L-159481 26705 L-159317 26652 L-159129 26600 L-159009 26547 L-157938 26442 L-157080 26389 L-156868 26284 L-156770 26231 L-156596 26126 L-156263 26074 L-156191 26021 L-156134 25968 L-155958 25968 L-155569 25916 L-155334 25863 L-155223 25811 L-155106 25758 L-154125 25705 L-154099 25653 L-153505 25548 L-153473 25548 L-153324 25495 L-153040 25442 L-152128 25442 L-151182 25442 L-151029 25390 L-150926 25390 L-150795 25337 L-150651 25285 L-150625 25232 L-150511 25179 L-150292 25127 L-149611 25074 L-149482 25022 L-149178 24969 L-148939 24864 L-148606 24811 L-147967 24759 L-147625 24653 L-147563 24601 L-147407 24601 L-146486 24601 L-146015 24601 L-145972 24601 L-145959 24548 L-145918 24496 L-145896 24443 L-145869 24390 L-145725 24338 L-145302 24285 L-144967 24285 L-144776 24233 L-144347 24233 L-144159 24180 L-143770 24075 L-143236 24022 L-142864 23970 L-142842 23970 L-142592 23917 L-142474 23864 L-142398 23812 L-142262 23759 L-142223 23706 L-142143 23654 L-141749 23601 L-141253 23549 L-141141 23443 L-140968 23391 L-140659 23338 L-140212 23286 L-139889 23233 L-139747 23128 L-139319 23023 L-139166 22917 L-139111 22812 L-138297 22760 L-138277 22707 L-137906 22654 L-137849 22654 L-136720 22602 L-136652 22602 L-136093 22549 L-135899 22497 L-135762 22444 L-135529 22391 L-135182 22339 L-135147 22234 L-135112 22181 L-135044 22076 L-134695 22023 L-134523 21971 L-134038 21918 L-134022 21865 L-133696 21813 L-133539 21760 L-132398 21655 L-132373 21602 L-132182 21497 L-131988 21445 L-131738 21392 L-131721 21339 L-130701 21287 L-130403 21234 L-130327 21182 L-130191 21076 L-130016 21024 L-129439 20918 L-129223 20866 L-129159 20813 L-129029 20761 L-128992 20655 L-128469 20603 L-128331 41329 L-128316 41329 L-128294 41329 L-128273 41329 L-128046 20550 L-127270 20550 L-127229 20550 L-126861 20550 L-126782 20498 L-126730 20445 L-126057 20392 L-125315 20340 L-124890 20340 L-124442 20287 L-123381 20235 L-123069 20129 L-122659 20129 L-122587 20077 L-122063 20077 L-121968 20077 L-121950 20077 L-121506 20024 L-121320 19919 L-120540 19814 L-119867 19761 L-119455 19603 L-119223 19498 L-119083 19446 L-119001 19340 L-118981 19288 L-118905 19288 L-118777 19235 L-118460 19288 L-118236 19288 L-117911 19235 L-117848 19235 L-117478 19235 L-117445 19235 L-117237 19235 L-116569 19235 L-116492 19235 L-116334 19130 L-116223 19130 L-115897 19077 L-115742 19025 L-115401 19025 L-115344 18920 L-115006 18814 L-114802 18762 L-114749 18657 L-113373 18604 L-113243 18551 L-112810 18499 L-112489 18446 L-111661 18341 L-111538 18288 L-110807 18183 L-110651 18078 L-110611 18025 L-110557 17973 L-110534 17920 L-110420 17867 L-110123 17815 L-109833 17762 L-109779 17710 L-109658 17657 L-109628 17604 L-109529 17552 L-109085 17552 L-108933 17499 L-108098 17499 L-107556 17447 L-107221 17447 L-107205 17394 L-107130 17341 L-107014 17289 L-106819 17236 L-106555 17184 L-105720 17131 L-105624 17078 L-105102 17026 L-105061 16973 L-104961 16921 L-104133 16921 L-103998 16868 L-103659 16868 L-103105 16815 L-102725 16763 L-102562 16710 L-102253 16658 L-101440 16605 L-101134 16552 L-100865 16552 L-100544 16552 L-100223 16605 L-99948 16605 L-99119 16500 L-99024 16447 L-98931 16289 L-98827 16132 L-98440 15974 L-97960 15869 L-97943 15816 L-97825 15763 L-97457 15658 L-97362 15605 L-96528 15500 L-96451 15448 L-96152 15395 L-96061 15342 L-95654 15237 L-95543 15132 L-94844 15079 L-94371 15027 L-94311 14974 L-94092 14869 L-93818 14816 L-93705 14764 L-92678 14711 L-92292 14659 L-92271 14606 L-91939 14553 L-91694 14501 L-91261 14448 L-91151 14396 L-91033 14343 L-90581 14238 L-89991 14185 L-89654 14133 L-87761 14080 L-87648 13975 L-87436 13922 L-86118 13870 L-86011 2034 L-85945 -9643 L-85909 -20427 L-85847 -20427 L-85348 -8697 L-84673 2875 L-84651 13554 L-84380 13449 L-83412 13449 L-82723 13396 L-82561 13344 L-82020 13291 L-81930 13238 L-80911 13186 L-79963 13081 L-79598 13133 L-79495 13186 L-78907 13186 L-78847 13186 L-78747 13133 L-78306 13028 L-78199 12975 L-77757 12923 L-76758 12765 L-76501 12607 L-76398 12449 L-76268 12344 L-75901 12239 L-75321 12134 L-75290 12081 L-74974 12028 L-72991 11976 L-72875 11923 L-72808 11923 L-72449 11871 L-70831 11818 L-70653 11818 L-70509 11818 L-69686 11871 L-69633 11923 L-69579 11923 L-69145 11923 L-68164 11976 L-68091 11976 L-67006 11923 L-66793 11923 L-66077 11818 L-65688 11765 L-65469 11660 L-65150 11555 L-64656 11450 L-64528 11397 L-64300 11292 L-64067 11187 L-64008 11134 L-63718 11082 L-63446 10976 L-62416 10924 L-60751 10871 L-60332 10819 L-60195 10766 L-60039 10766 L-59734 10713 L-59505 10608 L-59347 10556 L-59188 10450 L-59018 10345 L-58971 10293 L-58918 10240 L-58896 10240 L-58510 10187 L-58260 10187 L-57990 10187 L-57829 10187 L-57739 10187 L-56081 10187 L-55915 10240 L-55536 10187 L-55076 10187 L-54466 10082 L-53373 10029 L-52942 9977 L-52910 9924 L-52848 9872 L-52830 9819 L-51127 9766 L-51085 9714 L-50618 9661 L-50432 9609 L-50399 9503 L-49804 9451 L-49754 9398 L-49432 9346 L-49381 9293 L-49170 9240 L-49152 9188 L-48886 9083 L-48833 9030 L-48364 8977 L-47854 8872 L-47776 8872 L-47481 8820 L-47465 8767 L-47426 8714 L-47355 8662 L-47198 8609 L-46252 8609 L-46195 8609 L-45674 8609 L-45482 8557 L-45381 8557 L-45155 8504 L-44645 8504 L-44257 9924 L-44188 9924 L-43839 9872 L-43482 9819 L-42354 8294 L-42302 8188 L-42076 8136 L-42042 8083 L-41917 7978 L-41819 7978 L-41554 7978 L-40814 8031 L-40235 8031 L-39942 8031 L-39236 8031 L-39057 7978 L-39034 7978 L-38398 7925 L-38087 7873 L-37690 7873 L-37661 7820 L-37640 7768 L-37486 7715 L-36801 7715 L-36784 7715 L-36444 7715 L-36172 7662 L-36134 7610 L-36078 7504 L-36056 7452 L-35984 7399 L-35652 7347 L-35546 7294 L-35518 7189 L-35319 7136 L-35167 7084 L-34298 7031 L-33736 6926 L-33720 6926 L-33619 6873 L-33517 6926 L-33370 6926 L-33292 6926 L-33254 6873 L-33199 6821 L-33125 6768 L-32980 6715 L-32498 6715 L-32094 6663 L-31228 6715 L-31208 6715 L-30950 6715 L-30873 6715 L-30844 6663 L-30834 6558 L-30817 6505 L-30524 6452 L-30484 6400 L-30412 6347 L-30339 6295 L-30134 6242 L-29974 6084 L-29672 5926 L-29595 5716 L-29578 5558 L-29362 5453 L-29130 5453 L-29020 5506 L-28651 5558 L-28492 5558 L-28261 5558 L-28093 5558 L-27947 5506 L-27815 5453 L-26540 5348 L-26136 5243 L-26075 5190 L-25959 5085 L-25533 5032 L-25518 4927 L-25456 4874 L-25183 4769 L-25070 4716 L-24788 4611 L-24511 4559 L-24086 4453 L-24063 4401 L-23985 4348 L-23860 4296 L-23273 4243 L-22882 4190 L-22546 4138 L-21957 4085 L-21855 4085 L-21684 4033 L-21548 4033 L-20720 3980 L-19535 3927 L-19499 3875 L-19444 3875 L-19223 3822 L-19018 3822 L-18863 3822 L-18607 3770 L-18530 3717 L-17988 3664 L-17951 3612 L-17702 3559 L-17315 3507 L-16489 3454 L-16131 3401 L-15821 3401 L-15563 3349 L-15339 3296 L-14933 3244 L-14816 3191 L-14633 3138 L-14580 3138 L-14391 3086 L-14220 3033 L-14192 2981 L-13911 2928 L-13601 2875 L-13463 2823 L-13153 2770 L-12959 2770 L-12944 2718 L-12224 2718 L-12091 2612 L-11793 2560 L-11703 2507 L-11102 2507 L-11064 2455 L-10985 2402 L-10365 2349 L-10213 2244 L-10173 2192 L-9862 2139 L-9670 2086 L-9477 1981 L-9422 1876 L-9113 1823 L-9061 1771 L-9006 1823 L-8980 1823 L-8856 1823 L-8045 1771 L-7969 1718 L-7428 1665 L-7159 1613 L-6500 1560 L-5592 1508 L-5351 1455 L-4818 1402 L-4601 1350 L-3494 1402 L-3444 1402 L-2668 1402 L-2120 1350 L-2009 1297 L-1856 1192 L-1801 1139 L-1636 1087 L-1258 1034 L-811 982 L-756 929 L-602 876 L77 824 L297 771 L815 719 L1664 613 L1680 561 L3471 508 L4026 456 L4143 403 L5149 350 L5185 298 L5418 298 L5510 298 L5550 298 L5882 245 L6234 193 L6500 87" />
</svg>
