<svg xmlns="http://www.w3.org/2000/svg" version="1.1" viewBox="0 0 6500 1000">
	<path fill="none" stroke="gold" stroke-width="125" stroke-linecap="round" stroke-linejoin="round" d="M0 4938  L-50365 4938 L-50181 4888 L-49691 4789 L-49397 4739 L-49086 4639 L-48851 4589 L-48798 4489 L-48739 4390 L-48585 4340 L-48545 4240 L-48412 4190 L-48120 4140 L-47579 4140 L-46969 4090 L-46921 4090 L-46281 4040 L-46248 4040 L-45722 4040 L-45589 3991 L-45199 3891 L-44871 3791 L-44754 3691 L-44543 3592 L-43826 3592 L-43256 3542 L-43149 3542 L-42974 3492 L-42753 3392 L-42351 3342 L-42325 3242 L-41398 3143 L-41310 3043 L-41228 2943 L-41158 2843 L-40860 2794 L-40708 2694 L-38818 2744 L-38717 2744 L-38455 2744 L-38161 2794 L-38020 2694 L-37771 2694 L-37736 2644 L-37577 2594 L-37114 2494 L-36861 2444 L-36648 2345 L-36397 2295 L-36048 2245 L-35121 2145 L-35027 2045 L-34616 1996 L-33446 1896 L-32257 1846 L-32164 1746 L-32137 1646 L-31871 1547 L-31572 1447 L-31443 1347 L-31406 1247 L-30591 1247 L-30207 1297 L-29147 1347 L-29085 1347 L-28820 2345 L-28349 3292 L-28157 4240 L-27893 5188 L-27556 5138 L-27420 5088 L-26965 5038 L-26222 4988 L-26204 4938 L-26039 4838 L-25971 4838 L-25455 4789 L-24426 4789 L-24230 4739 L-23741 4689 L-23379 4639 L-22971 4639 L-22585 4689 L-20881 4689 L-20783 4689 L-20712 4689 L-20650 4689 L-20466 4639 L-20129 4639 L-19489 4589 L-19412 4539 L-19351 4539 L-19164 4489 L-19085 4489 L-18907 4439 L-18888 4390 L-18658 4390 L-18270 4340 L-17382 4340 L-17342 4290 L-17254 4240 L-17227 4140 L-16219 4090 L-16069 3991 L-16045 3941 L-15912 3891 L-15872 3841 L-14614 3791 L-14556 3791 L-14016 3741 L-13964 3741 L-13917 3741 L-13522 3691 L-13382 3641 L-13182 3592 L-13036 3592 L-12871 3592 L-12595 3641 L-12236 3641 L-11683 3592 L-11038 3542 L-10780 3442 L-10626 3392 L-10225 3342 L-10185 3292 L-10064 3242 L-10002 3292 L-9988 3292 L-9895 3292 L-9602 3242 L-9450 3043 L-9120 2943 L-9042 2843 L-8966 2794 L-8739 2644 L-8673 2544 L-8445 2444 L-8393 2345 L-8228 2295 L-7222 2245 L-7039 2195 L-6488 2145 L-6095 2045 L-5698 1996 L-4847 1896 L-4769 1846 L-4190 1796 L-3749 1796 L-3508 1746 L-3350 1746 L-2950 1646 L-2929 1646 L-2484 1597 L-2079 1547 L-1943 1447 L-1768 1347 L-1631 1247 L-1381 1148 L-381 1098 L-299 1048 L-164 998 L-125 948 L764 898 L979 848 L1423 799 L1540 749 L1597 699 L2273 699 L2374 649 L2402 649 L3744 599 L4150 549 L4189 499 L5118 449 L5216 400 L5349 350 L5753 300 L5779 250 L5872 200 L6088 150 L6500 50" />
</svg>
