<svg xmlns="http://www.w3.org/2000/svg" version="1.1" viewBox="0 0 6500 1000">
	<path fill="none" stroke="gold" stroke-width="125" stroke-linecap="round" stroke-linejoin="round" d="M0 1015  L-1297851 1015 L-1297667 1015 L-1297177 1015 L-1296884 1015 L-1296572 1015 L-1296338 1015 L-1296284 1015 L-1296225 1015 L-1296072 1015 L-1296032 1015 L-1295899 1015 L-1295606 1015 L-1295066 1015 L-1294455 1015 L-1294407 1015 L-1293767 1015 L-1293734 1015 L-1293209 1015 L-1293076 1015 L-1292686 1015 L-1292358 1015 L-1292240 1015 L-1292029 1015 L-1291312 1015 L-1290742 1015 L-1290635 1015 L-1290460 1015 L-1290239 1015 L-1289838 1015 L-1289812 1015 L-1288884 1015 L-1288796 1015 L-1288714 1015 L-1288644 1015 L-1288347 1015 L-1288195 1015 L-1286305 1015 L-1286204 1015 L-1285942 1015 L-1285648 1015 L-1285506 1015 L-1285258 1015 L-1285222 1015 L-1285064 1015 L-1284600 1015 L-1284347 1015 L-1284135 1015 L-1283884 1015 L-1283535 1015 L-1282607 1015 L-1282514 1015 L-1282103 1015 L-1280932 1015 L-1279743 1015 L-1279651 1015 L-1279623 1015 L-1279357 1015 L-1279058 1015 L-1278930 1015 L-1278892 1015 L-1278078 1015 L-1277694 1015 L-1276633 1015 L-1276572 1015 L-1276307 1015 L-1275835 1015 L-1275643 1015 L-1275379 1015 L-1275042 1015 L-1274907 1015 L-1274451 1015 L-1273708 1015 L-1273691 1015 L-1273525 1015 L-1273457 1015 L-1272941 1015 L-1271912 1015 L-1271716 1015 L-1271228 1015 L-1270866 1015 L-1270457 1015 L-1270071 1015 L-1268368 1015 L-1268270 1015 L-1268198 1015 L-1268137 1015 L-1267952 1015 L-1267616 1015 L-1266975 1015 L-1266898 1015 L-1266837 1015 L-1266651 1015 L-1266571 1015 L-1266394 1015 L-1266375 1015 L-1266145 1015 L-1265757 1015 L-1264868 1015 L-1264829 1015 L-1264741 1015 L-1264713 1015 L-1263705 1015 L-1263555 1015 L-1263531 1015 L-1263398 1015 L-1263358 1015 L-1262100 1015 L-1262042 1015 L-1261503 1015 L-1261450 1015 L-1261403 1015 L-1261008 1015 L-1260869 1015 L-1260669 1015 L-1260522 1015 L-1260358 1015 L-1260081 1015 L-1259722 1015 L-1259170 1015 L-1258525 1015 L-1258266 1015 L-1258112 1015 L-1257711 1015 L-1257671 1015 L-1257551 1015 L-1257489 1015 L-1257475 1015 L-1257381 1015 L-1257088 1015 L-1256937 1015 L-1256606 1015 L-1256528 1015 L-1256452 1015 L-1256226 1015 L-1256159 1015 L-1255932 1015 L-1255879 1015 L-1255715 1015 L-1254709 1015 L-1254525 1015 L-1253974 1015 L-1253581 1015 L-1253184 1015 L-1252334 1015 L-1252255 1015 L-1251677 1015 L-1251235 1015 L-1250994 1015 L-1250837 1015 L-1250436 1015 L-1250416 1015 L-1249971 1015 L-1249565 1015 L-1249429 1015 L-1249254 1015 L-1249118 1015 L-1248868 1015 L-1247868 1015 L-1247786 1015 L-1247650 1015 L-1247612 1015 L-1246722 1015 L-1246506 1015 L-1246063 1015 L-1245945 1015 L-1245889 1015 L-1245212 1015 L-1245112 1015 L-1245083 1015 L-1243741 1015 L-1243335 1015 L-1243296 1015 L-1242368 1015 L-1242270 1015 L-1242137 1015 L-1241732 1015 L-1241706 1015 L-1241613 1015 L-1241397 1015 L-1240986 1015 L-1239832 1015 L-1239540 1015 L-1239512 1015 L-1238904 1015 L-1238654 1015 L-1238634 1015 L-1237705 1015 L-1237653 1015 L-1237531 1015 L-1237513 1015 L-1237357 1015 L-1237182 1015 L-1237046 1015 L-1236989 1015 L-1236881 1015 L-1236796 1015 L-1236563 1015 L-1236488 1015 L-1236179 1015 L-1236062 1015 L-1235892 1015 L-1235800 1015 L-1235698 1015 L-1235675 1015 L-1235597 1015 L-1235499 1015 L-1235133 1015 L-1235028 1015 L-1234525 1015 L-1234073 1015 L-1234035 1015 L-1234011 1015 L-1233970 1015 L-1233841 1015 L-1233740 1015 L-1233299 1015 L-1233017 1015 L-1232424 1015 L-1232294 1015 L-1232019 1015 L-1231867 1015 L-1231714 1015 L-1231628 1014 L-1231550 1014 L-1231365 1014 L-1231314 1014 L-1231286 1014 L-1231207 1014 L-1231184 1014 L-1230900 1014 L-1230297 1014 L-1229301 1014 L-1229003 1014 L-1228269 1014 L-1228025 1014 L-1227935 1014 L-1227358 1014 L-1226659 1014 L-1225907 1014 L-1225589 1014 L-1225206 1014 L-1225129 1014 L-1224494 1014 L-1224309 1014 L-1224221 1014 L-1224091 1014 L-1223779 1014 L-1223729 1014 L-1223587 1014 L-1223565 1014 L-1222598 1014 L-1222052 1014 L-1221574 1014 L-1221513 1014 L-1221189 1014 L-1221168 1014 L-1221105 1014 L-1220895 1014 L-1220819 1014 L-1220764 1014 L-1220741 1014 L-1220702 1014 L-1220686 1014 L-1219929 1014 L-1219913 1014 L-1219113 1014 L-1218961 1014 L-1218056 1014 L-1217549 1014 L-1217320 1014 L-1217279 1014 L-1217164 1014 L-1216987 1014 L-1216233 1014 L-1216098 1014 L-1215934 1014 L-1215616 1014 L-1215440 1014 L-1214418 1014 L-1214394 1014 L-1214143 1014 L-1213930 1014 L-1213296 1014 L-1213058 1014 L-1213026 1014 L-1212848 1014 L-1212767 1014 L-1212678 1014 L-1212613 1014 L-1212173 1014 L-1212149 1014 L-1211608 1014 L-1211353 1014 L-1210858 1014 L-1209981 1014 L-1209944 1014 L-1209891 1014 L-1209850 1014 L-1209733 1014 L-1209456 1014 L-1209249 1014 L-1209052 1014 L-1209029 1014 L-1208979 1014 L-1208939 1014 L-1208861 1014 L-1208264 1014 L-1208204 1014 L-1208100 1014 L-1207946 1014 L-1207314 1014 L-1206633 1014 L-1206331 1014 L-1205984 1014 L-1205786 1014 L-1205738 1014 L-1205418 1014 L-1204790 1014 L-1204643 1014 L-1204607 1014 L-1204549 1014 L-1204473 1014 L-1204231 1014 L-1204143 1014 L-1204049 1014 L-1203755 1014 L-1203621 1014 L-1203561 1014 L-1203524 1014 L-1203252 1014 L-1202246 1014 L-1202070 1014 L-1202019 1014 L-1201727 1014 L-1201534 1014 L-1201201 1014 L-1200695 1014 L-1200132 1014 L-1200118 1014 L-1200101 1014 L-1200001 1014 L-1199886 1014 L-1199847 1014 L-1199809 1014 L-1199744 1014 L-1199716 1014 L-1199577 1014 L-1199284 1014 L-1199234 1014 L-1199129 1014 L-1198864 1014 L-1198399 1014 L-1198255 1014 L-1198200 1014 L-1198143 1014 L-1197952 1014 L-1197587 1014 L-1197372 1014 L-1197178 1014 L-1197120 1014 L-1197061 1014 L-1196907 1014 L-1196637 1014 L-1196207 1014 L-1196192 1014 L-1196115 1014 L-1196050 1014 L-1195921 1014 L-1195898 1014 L-1195613 1014 L-1195566 1014 L-1195511 1014 L-1195049 1014 L-1195010 1014 L-1194969 1014 L-1194779 1014 L-1194299 1014 L-1193812 1014 L-1193795 1014 L-1193757 1014 L-1193501 1014 L-1193423 1014 L-1193193 1014 L-1193177 1014 L-1192883 1014 L-1192441 1014 L-1191994 1014 L-1191489 1014 L-1191335 1014 L-1191049 1014 L-1191009 1014 L-1190678 1014 L-1190456 1014 L-1189939 1014 L-1189863 1014 L-1189615 1014 L-1189421 1014 L-1189361 1014 L-1188584 1014 L-1188510 1014 L-1188280 1014 L-1188263 1014 L-1188201 1014 L-1188006 1014 L-1187541 1014 L-1187518 1014 L-1187388 1014 L-1186088 1014 L-1186071 1014 L-1185994 1014 L-1185900 1014 L-1185683 1014 L-1185531 1014 L-1185353 1014 L-1185298 1014 L-1185012 1014 L-1184972 1014 L-1184602 1014 L-1184162 1014 L-1183979 1014 L-1183658 1014 L-1183363 1014 L-1182917 1014 L-1182845 1014 L-1182383 1014 L-1181945 1014 L-1181763 1014 L-1180309 1014 L-1180177 1014 L-1179720 1014 L-1179494 1014 L-1179107 1014 L-1178591 1014 L-1177637 1014 L-1176842 1013 L-1176168 1013 L-1175742 1013 L-1175431 1013 L-1175201 1013 L-1174518 1013 L-1174505 1013 L-1174295 1013 L-1174273 1013 L-1174099 1013 L-1173149 1013 L-1172880 1013 L-1172065 1013 L-1171755 1013 L-1171717 1013 L-1171660 1013 L-1171043 1013 L-1170405 1013 L-1168779 1013 L-1168105 1013 L-1167463 1013 L-1167386 1013 L-1167329 1013 L-1167293 1013 L-1167265 1013 L-1167153 1013 L-1167135 1013 L-1167113 1013 L-1166959 1013 L-1166906 1013 L-1166828 1013 L-1166708 1013 L-1166611 1013 L-1166493 1013 L-1166224 1013 L-1165954 1013 L-1165937 1013 L-1165737 1013 L-1165590 1013 L-1165363 1013 L-1165229 1013 L-1164920 1013 L-1164860 1013 L-1164507 1013 L-1164159 1013 L-1164058 1013 L-1163993 1013 L-1163934 1013 L-1163549 1013 L-1163168 1013 L-1163064 1013 L-1162804 1013 L-1162533 1013 L-1162373 1013 L-1162341 1013 L-1162279 1013 L-1162138 1013 L-1161954 1013 L-1161909 1013 L-1161621 1013 L-1161605 1013 L-1161372 1013 L-1161311 1013 L-1161273 1013 L-1160693 1013 L-1160559 1013 L-1160536 1013 L-1160517 1013 L-1160500 1013 L-1160484 1013 L-1160460 1013 L-1160443 1013 L-1160422 1013 L-1160406 1013 L-1160382 1013 L-1160366 1013 L-1160344 1013 L-1160327 1013 L-1160278 1013 L-1160206 1013 L-1160171 1013 L-1160148 1013 L-1160112 1013 L-1160071 1013 L-1160034 1013 L-1160018 1013 L-1159994 1013 L-1159956 1013 L-1159940 1013 L-1159916 1013 L-1159899 1013 L-1159880 1013 L-1159864 1013 L-1159835 1013 L-1159809 1013 L-1159764 1013 L-1159747 1013 L-1159705 1013 L-1159657 1013 L-1159587 1013 L-1159571 1013 L-1159555 1013 L-1159493 1013 L-1159454 1013 L-1159414 1012 L-1159248 1012 L-1159183 1012 L-1159167 1012 L-1159123 1012 L-1159065 1012 L-1158852 1012 L-1158819 1012 L-1158776 1012 L-1158698 1012 L-1158161 1012 L-1158083 1012 L-1157978 1012 L-1157890 1012 L-1157714 1012 L-1157363 1012 L-1157207 1012 L-1156769 1012 L-1156613 1012 L-1156483 1012 L-1155779 1012 L-1155578 1012 L-1154617 1012 L-1154135 1012 L-1154036 1012 L-1153943 1012 L-1153698 1012 L-1153625 1012 L-1153182 1012 L-1153086 1012 L-1153071 1012 L-1153055 1012 L-1153030 1012 L-1152565 1012 L-1152348 1012 L-1152208 1012 L-1151914 1012 L-1151826 1012 L-1151784 1012 L-1151754 1012 L-1151582 1012 L-1151523 1012 L-1151447 1012 L-1151366 1012 L-1151296 1012 L-1150987 1012 L-1150902 1012 L-1150688 1012 L-1150653 1012 L-1149970 1012 L-1149871 1012 L-1149666 1012 L-1149619 1012 L-1149341 1012 L-1149279 1012 L-1149262 1012 L-1149184 1012 L-1148876 1012 L-1148851 1012 L-1148797 1012 L-1148775 1012 L-1148652 1012 L-1148516 1012 L-1148272 1012 L-1148146 1012 L-1147500 1012 L-1147484 1012 L-1147459 1012 L-1147279 1012 L-1147203 1012 L-1147111 1012 L-1146683 1012 L-1146267 1012 L-1145874 1012 L-1145795 1012 L-1145777 1012 L-1145413 1012 L-1145177 1012 L-1144949 1012 L-1144635 1012 L-1144558 1012 L-1144477 1012 L-1144299 1012 L-1144283 1012 L-1144018 1012 L-1143938 1012 L-1143708 1012 L-1143481 1012 L-1143166 1012 L-1142991 1012 L-1142629 1012 L-1142238 1012 L-1142168 1012 L-1142105 1012 L-1141964 1012 L-1141912 1012 L-1141811 1012 L-1141309 1012 L-1141112 1012 L-1140865 1012 L-1140680 1012 L-1140380 1012 L-1140304 1012 L-1140138 1012 L-1139253 1012 L-1139225 1012 L-1139102 1012 L-1138523 1012 L-1138445 1012 L-1137732 1012 L-1137420 1012 L-1137207 1012 L-1137190 1012 L-1136804 1012 L-1136279 1012 L-1135832 1012 L-1135503 1012 L-1135350 1012 L-1135024 1012 L-1134846 1012 L-1134764 1012 L-1134558 1012 L-1134383 1012 L-1133454 1012 L-1132564 1012 L-1132525 1012 L-1132297 1012 L-1131918 1012 L-1131130 1012 L-1130896 1012 L-1130820 1012 L-1130463 1012 L-1129891 1012 L-1129624 1012 L-1129237 1012 L-1129134 1012 L-1128964 1012 L-1128345 1012 L-1128134 1012 L-1127826 1012 L-1127773 1012 L-1127646 1012 L-1127593 1012 L-1127473 1012 L-1127137 1012 L-1126178 1012 L-1126047 1012 L-1125845 1012 L-1125214 1012 L-1124902 1012 L-1124488 1012 L-1124461 1012 L-1124316 1012 L-1123895 1012 L-1122563 1012 L-1122516 1012 L-1122387 1012 L-1122371 1012 L-1121793 1012 L-1121587 1012 L-1121557 1012 L-1121516 1012 L-1121459 1012 L-1121421 1012 L-1121343 1012 L-1121200 1012 L-1120746 1012 L-1120628 1012 L-1120342 1012 L-1119970 1012 L-1119874 1012 L-1119547 1012 L-1119192 1012 L-1119022 1012 L-1118975 1012 L-1118866 1012 L-1118777 1012 L-1118749 1012 L-1118673 1012 L-1118369 1012 L-1118335 1012 L-1118264 1012 L-1117896 1012 L-1117560 1012 L-1117480 1012 L-1117260 1012 L-1117088 1012 L-1117061 1012 L-1116564 1012 L-1116015 1012 L-1115134 1012 L-1115036 1012 L-1114959 1012 L-1114684 1012 L-1114437 1012 L-1114363 1012 L-1114301 1012 L-1114182 1012 L-1114140 1012 L-1114030 1012 L-1113953 1012 L-1113252 1012 L-1113007 1012 L-1112967 1011 L-1112811 1011 L-1112212 1011 L-1111985 1011 L-1111893 1011 L-1111418 1011 L-1110820 1011 L-1110300 1011 L-1110279 1011 L-1110134 1011 L-1109814 1011 L-1109272 1011 L-1109040 1011 L-1108870 1011 L-1108383 1011 L-1108156 1011 L-1108071 1011 L-1107725 1011 L-1107399 1011 L-1106876 1011 L-1106548 1011 L-1105948 1011 L-1105750 1011 L-1105698 1011 L-1105658 1011 L-1105376 1011 L-1104692 1011 L-1104382 1011 L-1104357 1011 L-1104166 1011 L-1103943 1011 L-1103857 1011 L-1103193 1011 L-1103169 1011 L-1102947 1011 L-1102617 1011 L-1102265 1011 L-1102060 1011 L-1101828 1011 L-1101570 1011 L-1101380 1011 L-1101333 1011 L-1101106 1011 L-1101071 1011 L-1100915 1011 L-1100700 1011 L-1100527 1011 L-1100436 1011 L-1100159 1011 L-1099915 1011 L-1099600 1011 L-1099174 1011 L-1099136 1011 L-1098653 1011 L-1098420 1011 L-1098208 1011 L-1097982 1011 L-1097432 1011 L-1097184 1011 L-1096350 1011 L-1096295 1011 L-1096273 1011 L-1096115 1011 L-1095654 1011 L-1095613 1011 L-1095273 1011 L-1095140 1011 L-1094917 1011 L-1094345 1011 L-1093873 1011 L-1093678 1011 L-1093486 1011 L-1093296 1011 L-1093194 1011 L-1092826 1011 L-1092780 1011 L-1092698 1011 L-1091405 1011 L-1091356 1011 L-1091088 1011 L-1090943 1011 L-1090392 1011 L-1090275 1011 L-1090194 1011 L-1089834 1011 L-1089611 1011 L-1089329 1011 L-1089000 1011 L-1088492 1011 L-1088380 1011 L-1088301 1011 L-1088136 1011 L-1087842 1011 L-1087373 1011 L-1087177 1011 L-1087126 1011 L-1086476 1011 L-1086355 1011 L-1085901 1011 L-1085865 1011 L-1085396 1011 L-1085286 1011 L-1085270 1011 L-1085053 1011 L-1084873 1011 L-1084341 1011 L-1083311 1011 L-1083112 1011 L-1082654 1011 L-1081705 1011 L-1081606 1011 L-1081253 1011 L-1081192 1011 L-1081178 1011 L-1081142 1011 L-1080773 1011 L-1080653 1011 L-1080411 1011 L-1080247 1011 L-1080060 1011 L-1079939 1011 L-1078868 1011 L-1078010 1011 L-1077798 1011 L-1077701 1011 L-1077526 1011 L-1077193 1011 L-1077121 1011 L-1077064 1011 L-1076888 1011 L-1076499 1011 L-1076264 1011 L-1076153 1011 L-1076036 1011 L-1075055 1011 L-1075029 1011 L-1074435 1011 L-1074403 1011 L-1074254 1011 L-1073970 1011 L-1073058 1011 L-1072112 1011 L-1071959 1011 L-1071856 1011 L-1071725 1011 L-1071582 1011 L-1071555 1011 L-1071441 1011 L-1071223 1011 L-1070541 1011 L-1070412 1011 L-1070109 1011 L-1069869 1011 L-1069536 1011 L-1068897 1011 L-1068555 1011 L-1068493 1011 L-1068337 1011 L-1067416 1011 L-1066945 1011 L-1066902 1011 L-1066889 1011 L-1066848 1011 L-1066826 1011 L-1066799 1011 L-1066655 1011 L-1066232 1011 L-1065897 1011 L-1065706 1011 L-1065277 1011 L-1065089 1011 L-1064701 1011 L-1064166 1011 L-1063794 1011 L-1063772 1011 L-1063522 1011 L-1063404 1011 L-1063328 1011 L-1063192 1011 L-1063153 1011 L-1063073 1011 L-1062679 1011 L-1062183 1011 L-1062071 1011 L-1061898 1011 L-1061590 1011 L-1061142 1011 L-1060819 1011 L-1060677 1011 L-1060250 1011 L-1060096 1011 L-1060041 1011 L-1059227 1011 L-1059208 1011 L-1058836 1011 L-1058779 1011 L-1057650 1011 L-1057582 1011 L-1057024 1011 L-1056829 1011 L-1056692 1011 L-1056459 1011 L-1056112 1011 L-1056077 1011 L-1056042 1011 L-1055974 1011 L-1055625 1011 L-1055453 1011 L-1054968 1011 L-1054952 1011 L-1054627 1011 L-1054469 1011 L-1053328 1011 L-1053304 1011 L-1053112 1011 L-1052918 1011 L-1052668 1011 L-1052651 1011 L-1051631 1011 L-1051333 1011 L-1051258 1011 L-1051121 1011 L-1050946 1011 L-1050369 1011 L-1050153 1011 L-1050090 1011 L-1049959 1010 L-1049922 1010 L-1049399 1010 L-1049261 1012 L-1049246 1012 L-1049224 1012 L-1049203 1012 L-1048976 1010 L-1048200 1010 L-1048159 1010 L-1047791 1010 L-1047713 1010 L-1047661 1010 L-1046987 1010 L-1046245 1010 L-1045820 1010 L-1045373 1010 L-1044311 1010 L-1043999 1010 L-1043589 1010 L-1043517 1010 L-1042993 1010 L-1042898 1010 L-1042880 1010 L-1042436 1010 L-1042250 1010 L-1041470 1010 L-1040797 1010 L-1040385 1010 L-1040153 1010 L-1040013 1010 L-1039931 1010 L-1039911 1010 L-1039835 1010 L-1039707 1010 L-1039390 1010 L-1039166 1010 L-1038841 1010 L-1038779 1010 L-1038408 1010 L-1038375 1010 L-1038167 1010 L-1037499 1010 L-1037422 1010 L-1037264 1010 L-1037153 1010 L-1036827 1010 L-1036672 1010 L-1036331 1010 L-1036274 1010 L-1035936 1010 L-1035732 1010 L-1035679 1010 L-1034303 1010 L-1034173 1010 L-1033740 1010 L-1033419 1010 L-1032592 1010 L-1032468 1010 L-1031737 1010 L-1031581 1010 L-1031541 1010 L-1031487 1010 L-1031464 1010 L-1031350 1010 L-1031053 1010 L-1030764 1010 L-1030709 1010 L-1030589 1010 L-1030558 1010 L-1030459 1010 L-1030015 1010 L-1029863 1010 L-1029028 1010 L-1028486 1010 L-1028151 1010 L-1028135 1010 L-1028060 1010 L-1027944 1010 L-1027749 1010 L-1027485 1010 L-1026650 1010 L-1026554 1010 L-1026032 1010 L-1025991 1010 L-1025891 1010 L-1025063 1010 L-1024928 1010 L-1024589 1010 L-1024035 1010 L-1023656 1010 L-1023493 1010 L-1023183 1010 L-1022370 1010 L-1022064 1010 L-1021796 1010 L-1021474 1010 L-1021153 1010 L-1020878 1010 L-1020049 1010 L-1019954 1010 L-1019861 1010 L-1019757 1010 L-1019370 1010 L-1018890 1010 L-1018874 1010 L-1018755 1010 L-1018387 1010 L-1018292 1010 L-1017458 1010 L-1017381 1010 L-1017082 1010 L-1016991 1010 L-1016584 1010 L-1016474 1010 L-1015774 1010 L-1015301 1010 L-1015241 1010 L-1015022 1010 L-1014748 1010 L-1014635 1010 L-1013608 1010 L-1013222 1010 L-1013202 1010 L-1012869 1010 L-1012624 1010 L-1012191 1010 L-1012081 1010 L-1011963 1010 L-1011511 1010 L-1010921 1010 L-1010584 1010 L-1008691 1010 L-1008578 1010 L-1008366 1010 L-1007048 1010 L-1006941 1009 L-1006875 1008 L-1006839 1007 L-1006777 1007 L-1006278 1008 L-1005603 1009 L-1005581 1010 L-1005310 1010 L-1004342 1010 L-1003653 1010 L-1003491 1010 L-1002950 1010 L-1002860 1010 L-1001841 1010 L-1000893 1010 L-1000528 1010 L-1000425 1010 L-999837 1010 L-999777 1010 L-999677 1010 L-999237 1010 L-999129 1010 L-998688 1010 L-997688 1010 L-997431 1010 L-997328 1010 L-997198 1010 L-996832 1010 L-996251 1010 L-996220 1010 L-995904 1010 L-993921 1010 L-993806 1010 L-993738 1010 L-993379 1010 L-991761 1010 L-991583 1010 L-991439 1010 L-990616 1010 L-990563 1010 L-990509 1010 L-990075 1010 L-989094 1010 L-989021 1010 L-987936 1010 L-987723 1010 L-987007 1010 L-986618 1010 L-986400 1010 L-986080 1010 L-985586 1010 L-985458 1010 L-985230 1010 L-984997 1010 L-984938 1010 L-984649 1010 L-984376 1010 L-983347 1010 L-981682 1010 L-981262 1010 L-981125 1010 L-980969 1010 L-980664 1010 L-980436 1010 L-980277 1010 L-980118 1010 L-979949 1010 L-979901 1010 L-979848 1010 L-979826 1010 L-979440 1010 L-979190 1010 L-978920 1010 L-978759 1010 L-978669 1010 L-977011 1010 L-976846 1010 L-976466 1010 L-976006 1010 L-975396 1010 L-974303 1010 L-973872 1010 L-973840 1010 L-973778 1010 L-973761 1010 L-972057 1010 L-972015 1010 L-971549 1010 L-971362 1010 L-971329 1010 L-970734 1010 L-970684 1009 L-970362 1009 L-970311 1009 L-970101 1009 L-970082 1009 L-969816 1009 L-969763 1009 L-969294 1009 L-968784 1009 L-968706 1009 L-968411 1009 L-968395 1009 L-968356 1009 L-968285 1009 L-968128 1009 L-967182 1009 L-967125 1009 L-966604 1009 L-966412 1009 L-966311 1009 L-966085 1009 L-965575 1009 L-965187 1010 L-965118 1010 L-964770 1010 L-964413 1010 L-963284 1009 L-963232 1009 L-963006 1009 L-962972 1009 L-962847 1009 L-962749 1009 L-962484 1009 L-961744 1009 L-961165 1009 L-960872 1009 L-960166 1009 L-959987 1009 L-959964 1009 L-959328 1009 L-959017 1009 L-958620 1009 L-958591 1009 L-958570 1009 L-958416 1009 L-957731 1009 L-957714 1009 L-957374 1009 L-957102 1009 L-957064 1009 L-957008 1009 L-956986 1009 L-956914 1009 L-956582 1009 L-956476 1009 L-956448 1009 L-956250 1009 L-956097 1009 L-955229 1009 L-954666 1009 L-954650 1009 L-954549 1009 L-954447 1009 L-954300 1009 L-954222 1009 L-954184 1009 L-954129 1009 L-954055 1009 L-953910 1009 L-953429 1009 L-953024 1009 L-952158 1009 L-952138 1009 L-951880 1009 L-951804 1009 L-951774 1009 L-951764 1009 L-951747 1009 L-951454 1009 L-951414 1009 L-951342 1009 L-951269 1009 L-951064 1009 L-950904 1009 L-950603 1009 L-950525 1009 L-950508 1009 L-950292 1009 L-950061 1009 L-949951 1009 L-949581 1009 L-949423 1009 L-949191 1009 L-949023 1009 L-948878 1009 L-948746 1009 L-947470 1009 L-947066 1009 L-947006 1009 L-946889 1009 L-946464 1009 L-946448 1009 L-946386 1009 L-946113 1009 L-946000 1009 L-945718 1009 L-945441 1009 L-945016 1009 L-944993 1009 L-944915 1009 L-944790 1009 L-944203 1009 L-943812 1009 L-943476 1009 L-942887 1009 L-942785 1009 L-942615 1009 L-942478 1009 L-941651 1009 L-940465 1009 L-940429 1009 L-940374 1009 L-940153 1009 L-939948 1009 L-939794 1009 L-939537 1009 L-939460 1009 L-938918 1009 L-938881 1009 L-938632 1009 L-938245 1009 L-937419 1009 L-937061 1009 L-936751 1009 L-936493 1009 L-936269 1009 L-935863 1009 L-935746 1009 L-935563 1009 L-935510 1009 L-935321 1009 L-935150 1009 L-935122 1009 L-934841 1009 L-934531 1009 L-934393 1009 L-934083 1009 L-933889 1009 L-933874 1009 L-933154 1009 L-933021 1009 L-932723 1009 L-932633 1009 L-932032 1009 L-931994 1009 L-931915 1009 L-931295 1009 L-931143 1009 L-931103 1009 L-930792 1009 L-930600 1009 L-930407 1009 L-930352 1009 L-930043 1009 L-929991 1009 L-929936 1009 L-929911 1009 L-929786 1009 L-928975 1009 L-928899 1009 L-928358 1009 L-928089 1009 L-927430 1009 L-926522 1009 L-926281 1009 L-925749 1009 L-925531 1009 L-924424 1009 L-924374 1009 L-923598 1009 L-923050 1009 L-922939 1009 L-922786 1009 L-922731 1009 L-922566 1009 L-922188 1009 L-921741 1009 L-921686 1009 L-921532 1009 L-920852 1009 L-920632 1009 L-920114 1009 L-919265 1009 L-919249 1009 L-917458 1009 L-916904 1009 L-916786 1009 L-915781 1009 L-915744 1009 L-915511 1009 L-915419 1009 L-915379 1009 L-915047 1009 L-914695 1009 L-914430 1009 L-914143 1009 L-913832 1009 L-913578 1009 L-913484 1009 L-912994 1009 L-912787 1009 L-912221 1009 L-912107 1009 L-911756 1009 L-911704 1009 L-911664 1009 L-911061 1009 L-910327 1009 L-909746 1009 L-909510 1009 L-908970 1009 L-908817 1009 L-908316 1009 L-908106 1009 L-908083 1009 L-908024 1009 L-907061 1009 L-906884 1009 L-906442 1009 L-906418 1009 L-906263 1009 L-906181 1009 L-906031 1009 L-905384 1009 L-905334 1009 L-904214 1009 L-903230 1009 L-903169 1009 L-902448 1009 L-901583 1009 L-901204 1009 L-900985 1009 L-900226 1008 L-900174 1008 L-899865 1008 L-899013 1008 L-898820 1008 L-898644 1008 L-898419 1008 L-898292 1008 L-898100 1008 L-897868 1008 L-897698 1008 L-897412 1008 L-897132 1008 L-897049 1008 L-896879 1008 L-896862 1008 L-896708 1008 L-896669 1008 L-895894 1008 L-895817 1008 L-895585 1008 L-895158 1008 L-894813 1008 L-894229 1008 L-893961 1008 L-893702 1008 L-893572 1008 L-893556 1008 L-893442 1008 L-893418 1008 L-893184 1008 L-893148 1008 L-891832 1008 L-891776 1008 L-891098 1008 L-890525 1008 L-890400 1008 L-890247 1008 L-890169 1008 L-889858 1008 L-889585 1008 L-889495 1008 L-889394 1008 L-888466 1008 L-888390 1008 L-888026 1008 L-888001 1008 L-887965 1008 L-887189 1008 L-887097 1008 L-886957 1008 L-886556 1008 L-886294 1008 L-886050 1008 L-885836 1008 L-885756 1008 L-885679 1008 L-885603 1008 L-885416 1008 L-885350 1008 L-885100 1008 L-885045 1008 L-884908 1008 L-884828 1008 L-884715 1008 L-884491 1008 L-884327 1008 L-884286 1008 L-884117 1008 L-883746 1008 L-883731 1008 L-883615 1008 L-882894 1008 L-882858 1008 L-882725 1008 L-882377 1008 L-881966 1008 L-881930 1008 L-881851 1008 L-881813 1008 L-881448 1008 L-881244 1008 L-881229 1008 L-880884 1008 L-880535 1008 L-880209 1008 L-880108 1008 L-879955 1008 L-879761 1008 L-879529 1008 L-879436 1008 L-879281 1008 L-879204 1008 L-879163 1008 L-879049 1008 L-879026 1008 L-878775 1008 L-878637 1008 L-878059 1008 L-877231 1008 L-876743 1008 L-876621 1008 L-876583 1008 L-876570 1008 L-876418 1008 L-876317 1008 L-876084 1008 L-875694 1008 L-875389 1008 L-875374 1008 L-875203 1008 L-874964 1008 L-874368 1008 L-873764 1008 L-873725 1008 L-873684 1008 L-873531 1008 L-873478 1008 L-873415 1008 L-873347 1008 L-873293 1008 L-873267 1008 L-873221 1008 L-873126 1008 L-872989 1008 L-872836 1008 L-872704 1008 L-872663 1008 L-872627 1008 L-872565 1008 L-872292 1008 L-871977 1008 L-871936 1008 L-871851 1008 L-871674 1008 L-871437 1008 L-871079 1008 L-871049 1008 L-870480 1008 L-870357 1008 L-870121 1008 L-870098 1008 L-869817 1008 L-869532 1008 L-869276 1008 L-868704 1008 L-868408 1008 L-868331 1008 L-867632 1008 L-867555 1008 L-867520 1008 L-867493 1008 L-867442 1008 L-867248 1008 L-867108 1008 L-867072 1008 L-867032 1008 L-866436 1008 L-866204 1008 L-865920 1008 L-865866 1008 L-865792 1008 L-865714 1008 L-865478 1008 L-865234 1008 L-865098 1008 L-864992 1008 L-864912 1008 L-864525 1008 L-864398 1008 L-864245 1008 L-864208 1008 L-864062 1008 L-863840 1008 L-863667 1008 L-863598 1008 L-862776 1008 L-862760 1008 L-862465 1008 L-861678 1008 L-861368 1008 L-861221 1008 L-860993 1008 L-860792 1008 L-859855 1008 L-859819 1008 L-859796 1008 L-859755 1008 L-859487 1008 L-858890 1008 L-858826 1008 L-858791 1008 L-858774 1008 L-858079 1008 L-857878 1008 L-857846 1008 L-857512 1008 L-857405 1008 L-856780 1008 L-856276 1008 L-856239 1008 L-855796 1008 L-855700 1008 L-855541 1008 L-855228 1008 L-855216 1008 L-854776 1008 L-854294 1008 L-854165 1008 L-853845 1008 L-853776 1008 L-853472 1008 L-853296 1008 L-853103 1008 L-852860 1008 L-852662 1008 L-852637 1008 L-852058 1008 L-851989 1008 L-851579 1008 L-851525 1008 L-851478 1008 L-851114 1008 L-850968 1008 L-850763 1008 L-850666 1008 L-850511 1008 L-850450 1008 L-850302 1008 L-850202 1008 L-849645 1008 L-849622 1008 L-849450 1008 L-848909 1008 L-848848 1008 L-848794 1008 L-848765 1008 L-848694 1008 L-848678 1008 L-848614 1008 L-848578 1008 L-848423 1008 L-848097 1008 L-847531 1008 L-847517 1008 L-847455 1008 L-847353 1008 L-847307 1008 L-847064 1008 L-846642 1008 L-846487 1008 L-844746 1008 L-844204 1008 L-843261 1008 L-842851 1008 L-842310 1008 L-842114 1008 L-841945 1008 L-841649 1008 L-841535 1008 L-841520 1008 L-841365 1008 L-841225 1008 L-841148 1008 L-841017 1008 L-840669 1008 L-840298 1008 L-839700 1008 L-839524 1008 L-839368 1008 L-839099 1008 L-838948 1008 L-838656 1008 L-838633 1008 L-838550 1008 L-838322 1008 L-837623 1008 L-837496 1008 L-837065 1008 L-836971 1008 L-835766 1008 L-835717 1008 L-835423 1008 L-835020 1008 L-834744 1008 L-834725 1008 L-834607 1008 L-834531 1008 L-834349 1008 L-833869 1008 L-833418 1008 L-833008 1008 L-832977 1008 L-832559 1008 L-832445 1008 L-832327 1008 L-832312 1008 L-832117 1008 L-832096 1008 L-831863 1008 L-831420 1007 L-831101 1007 L-830636 1007 L-830471 1007 L-830316 1007 L-830160 1007 L-829706 1007 L-829387 1007 L-829332 1007 L-828961 1007 L-828924 1007 L-828597 1007 L-828480 1007 L-828382 1007 L-828056 1007 L-827669 1007 L-827408 1007 L-827050 1007 L-826793 1007 L-824623 1007 L-824573 1007 L-824551 1007 L-824139 1007 L-824078 1007 L-824008 1007 L-823777 1007 L-823466 1007 L-823163 1007 L-823119 1007 L-822811 1007 L-822678 1007 L-822461 1007 L-821749 1007 L-821594 1007 L-821455 1007 L-821307 1007 L-821286 1007 L-821091 1007 L-821066 1007 L-820975 1007 L-820953 1007 L-820937 1007 L-820836 1007 L-819908 1007 L-819450 1007 L-818358 1007 L-817935 1007 L-817532 1007 L-817493 1007 L-817239 1007 L-816465 1007 L-816449 1007 L-816424 1007 L-816231 1007 L-815495 1007 L-815225 1007 L-815185 1007 L-814786 1007 L-814761 1007 L-813972 1007 L-813292 1007 L-811921 1007 L-811651 1007 L-811602 1007 L-811065 1007 L-811032 1007 L-810930 1007 L-810606 1007 L-810527 1007 L-810258 1007 L-809345 1007 L-809207 1007 L-808958 1007 L-808412 1007 L-807990 1007 L-807797 1007 L-807782 1007 L-807644 1007 L-807550 1007 L-807423 1007 L-807163 1007 L-807138 1007 L-807047 1007 L-806736 1007 L-806676 1007 L-806559 1007 L-806209 1007 L-805399 1007 L-805167 1007 L-804338 1007 L-804106 1007 L-803890 1007 L-803371 1007 L-802733 1007 L-802317 1007 L-801995 1007 L-801514 1007 L-801088 1007 L-801027 1007 L-800678 1007 L-800638 1007 L-800624 1007 L-800525 1007 L-800479 1007 L-799994 1007 L-799192 1007 L-798858 1007 L-797777 1007 L-797297 1007 L-797274 1007 L-797134 1007 L-796578 1007 L-795881 1007 L-795572 1007 L-795351 1007 L-795246 1007 L-795143 1007 L-794472 1007 L-794378 1007 L-794356 1007 L-794279 1007 L-794101 1007 L-793929 1007 L-793748 1007 L-793735 1007 L-793658 1007 L-793494 1007 L-792979 1007 L-792963 1007 L-792823 1007 L-792460 1007 L-792436 1007 L-792306 1007 L-792281 1007 L-791919 1007 L-791393 1007 L-791300 1007 L-791084 1007 L-790990 1007 L-790966 1007 L-790502 1007 L-790424 1007 L-790023 1007 L-789572 1007 L-788320 1007 L-788282 1007 L-787850 1007 L-787817 1007 L-787098 1007 L-786922 1007 L-786786 1007 L-786480 1007 L-786425 1007 L-786400 1007 L-786384 1007 L-786209 1007 L-786019 1007 L-785512 1007 L-785138 1007 L-784800 1007 L-784761 1007 L-784042 1007 L-783948 1007 L-783910 1007 L-783368 1007 L-783345 1007 L-782943 1007 L-782517 1007 L-782246 1007 L-782066 1007 L-781820 1007 L-781797 1007 L-781741 1007 L-781124 1007 L-780621 1007 L-780234 1007 L-779615 1007 L-779399 1007 L-779244 1007 L-777951 1007 L-777852 1007 L-777410 1007 L-777079 1007 L-776778 1007 L-776536 1007 L-775801 1007 L-775222 1007 L-774392 1007 L-774292 1007 L-773734 1007 L-773596 1007 L-771954 1007 L-771893 1007 L-771800 1007 L-770833 1007 L-770655 1007 L-770368 1007 L-770150 1007 L-770072 1007 L-769801 1007 L-769685 1007 L-769532 1007 L-769222 1007 L-769144 1007 L-769053 1007 L-768975 1007 L-768859 1007 L-768680 1007 L-768588 1007 L-768550 1007 L-768047 1007 L-767828 1007 L-767699 1007 L-767544 1007 L-767489 1007 L-767364 1007 L-766980 1007 L-766471 1007 L-766399 1007 L-765919 1007 L-765842 1007 L-765741 1007 L-765508 1007 L-765043 1007 L-764813 1007 L-764797 1007 L-764565 1007 L-764410 1007 L-764348 1007 L-764155 1007 L-763884 1006 L-763133 1006 L-762180 1006 L-762144 1006 L-761919 1006 L-761479 1006 L-761198 1006 L-760850 1006 L-759781 1006 L-758853 1006 L-758722 1006 L-758676 1006 L-758606 1006 L-758452 1006 L-758374 1006 L-758201 1006 L-757766 1006 L-757562 1006 L-757501 1006 L-756919 1006 L-756765 1006 L-756649 1006 L-756608 1006 L-756439 1006 L-756302 1006 L-756091 1006 L-756014 1006 L-755991 1006 L-755782 1006 L-755372 1006 L-755347 1006 L-755124 1006 L-754979 1006 L-754944 1006 L-754931 1006 L-754908 1006 L-754675 1006 L-754489 1006 L-754272 1006 L-754247 1006 L-753558 1006 L-753454 1006 L-753418 1006 L-753398 1006 L-753204 1006 L-753151 1006 L-753034 1006 L-752952 1006 L-752841 1006 L-752527 1006 L-752067 1006 L-751812 1006 L-751578 1006 L-751448 1006 L-751096 1006 L-751036 1006 L-750884 1006 L-750312 1006 L-750225 1006 L-750072 1006 L-749776 1006 L-749406 1006 L-749103 1006 L-749026 1006 L-748621 1006 L-748453 1006 L-748309 1006 L-747769 1006 L-747708 1006 L-747693 1006 L-747526 1006 L-747321 1006 L-747246 1006 L-747153 1006 L-746743 1006 L-746728 1006 L-746704 1006 L-746511 1006 L-746434 1006 L-746264 1006 L-746202 1006 L-746186 1006 L-745672 1006 L-745450 1006 L-744831 1006 L-744578 1006 L-744384 1006 L-744345 1006 L-744271 1006 L-744206 1006 L-743555 1006 L-743517 1006 L-743342 1006 L-743277 1006 L-742603 1006 L-742214 1006 L-741952 1006 L-741714 1006 L-741636 1006 L-741621 1006 L-741418 1006 L-741048 1006 L-740822 1006 L-740187 1006 L-740167 1006 L-739780 1006 L-739686 1006 L-739628 1006 L-739352 1006 L-739042 1006 L-738965 1006 L-738114 1006 L-737771 1006 L-737334 1006 L-736901 1006 L-736406 1006 L-736256 1006 L-735988 1006 L-734750 1006 L-734693 1006 L-732929 1006 L-732739 1006 L-731729 1006 L-731578 1006 L-731202 1006 L-730881 1006 L-730276 1006 L-730206 1006 L-730029 1006 L-729200 1006 L-729062 1006 L-728675 1006 L-728491 1006 L-728447 1006 L-728327 1006 L-728117 1006 L-727670 1006 L-727322 1006 L-727189 1006 L-726780 1006 L-726430 1006 L-726145 1006 L-725951 1006 L-725797 1006 L-725633 1006 L-725565 1006 L-725465 1006 L-725231 1006 L-725115 1006 L-725062 1006 L-724520 1006 L-724055 1006 L-722873 1006 L-722740 1006 L-722715 1006 L-722663 1006 L-721995 1006 L-720960 1006 L-720767 1006 L-720587 1006 L-720435 1006 L-720395 1006 L-720380 1006 L-720318 1006 L-719993 1006 L-718833 1006 L-718639 1006 L-718462 1006 L-717348 1006 L-716488 1006 L-716382 1006 L-715908 1006 L-715715 1006 L-713394 1006 L-713316 1006 L-713195 1006 L-713161 1006 L-713123 1006 L-713029 1006 L-712813 1006 L-712232 1006 L-711846 1006 L-711073 1006 L-710995 1006 L-710297 1006 L-709756 1006 L-709715 1006 L-709585 1006 L-709121 1006 L-709082 1006 L-708948 1006 L-708579 1006 L-708550 1006 L-708400 1006 L-707999 1006 L-706175 1006 L-705368 1006 L-704650 1006 L-704633 1006 L-704319 1006 L-703757 1006 L-703256 1006 L-702737 1006 L-702716 1006 L-700972 1006 L-700803 1006 L-700607 1006 L-699713 1006 L-699195 1006 L-698984 1006 L-698726 1006 L-698017 1006 L-697066 1006 L-696408 1006 L-696369 1006 L-696082 1006 L-696000 1006 L-695905 1006 L-695773 1006 L-695696 1006 L-694960 1006 L-694623 1006 L-694574 1006 L-694318 1006 L-694032 1006 L-693606 1006 L-693026 1006 L-692767 1006 L-692615 1006 L-692368 1006 L-692330 1006 L-691532 1006 L-691495 1006 L-691318 1006 L-690908 1006 L-690680 1006 L-690604 1006 L-690472 1006 L-690356 1006 L-690008 1006 L-689945 1006 L-689792 1006 L-689051 1006 L-688940 1006 L-688770 1006 L-688731 1006 L-688436 1006 L-688035 1006 L-687858 1006 L-687764 1006 L-687455 1006 L-686653 1006 L-686195 1006 L-685675 1006 L-685186 1006 L-684491 1006 L-683444 1006 L-683175 1006 L-683121 1006 L-682961 1006 L-682709 1006 L-682463 1006 L-682384 1006 L-682170 1006 L-681858 1006 L-681394 1006 L-681380 1006 L-681084 1006 L-681070 1006 L-680079 1006 L-679407 1006 L-679072 1006 L-678456 1006 L-678319 1006 L-677680 1006 L-677550 1006 L-676599 1006 L-676500 1006 L-675940 1006 L-675531 1006 L-675103 1006 L-675012 1006 L-674177 1006 L-673814 1006 L-673774 1006 L-673642 1006 L-673465 1006 L-673248 1006 L-673195 1006 L-673038 1006 L-672785 1006 L-671685 1006 L-671607 1006 L-671388 1006 L-671257 1006 L-671221 1006 L-671027 1006 L-670928 1006 L-670444 1006 L-670160 1006 L-669999 1006 L-669905 1006 L-669633 1006 L-669363 1006 L-669347 1006 L-669209 1006 L-669070 1006 L-668744 1006 L-668435 1006 L-668394 1006 L-668318 1006 L-668203 1006 L-667352 1006 L-667026 1006 L-666695 1006 L-666562 1006 L-666346 1006 L-666329 1006 L-665649 1006 L-665556 1006 L-665532 1006 L-665517 1006 L-665478 1006 L-665066 1006 L-664797 1006 L-664757 1006 L-664388 1006 L-664179 1006 L-663096 1006 L-663080 1005 L-663051 1005 L-663031 1005 L-662654 1005 L-662399 1005 L-662151 1005 L-662011 1005 L-661879 1005 L-661547 1005 L-661455 1005 L-661394 1005 L-660836 1005 L-660774 1005 L-660618 1005 L-660424 1005 L-660232 1005 L-660216 1005 L-660178 1005 L-660139 1005 L-659868 1005 L-659745 1005 L-659713 1005 L-659613 1005 L-659458 1005 L-659316 1005 L-659032 1005 L-658707 1005 L-658011 1005 L-657988 1005 L-657479 1005 L-656633 1005 L-656270 1005 L-656115 1005 L-655511 1005 L-655341 1005 L-655280 1005 L-655225 1005 L-654170 1005 L-654151 1005 L-653245 1005 L-653224 1005 L-653057 1005 L-652815 1005 L-652765 1005 L-652710 1005 L-652572 1005 L-652533 1005 L-651605 1005 L-651550 1005 L-651428 1005 L-651356 1005 L-651240 1005 L-651062 1005 L-650079 1005 L-649940 1005 L-649822 1005 L-649528 1005 L-649280 1005 L-649244 1005 L-649189 1005 L-649167 1005 L-649034 1005 L-648955 1005 L-648818 1005 L-648195 1005 L-648028 1005 L-647564 1005 L-647388 1005 L-647371 1005 L-647311 1005 L-647194 1005 L-646712 1005 L-646016 1005 L-645643 1005 L-645474 1005 L-644508 1005 L-644353 1005 L-644175 1005 L-644083 1005 L-643827 1005 L-643657 1005 L-643010 1005 L-642999 1005 L-642419 1005 L-642280 1005 L-642225 1005 L-641490 1005 L-641451 1005 L-641374 1005 L-640732 1005 L-639958 1005 L-639865 1005 L-639816 1005 L-639801 1005 L-639765 1005 L-639749 1005 L-639686 1005 L-639670 1005 L-639650 1005 L-639495 1005 L-639456 1005 L-639440 1005 L-639401 1005 L-639261 1005 L-639185 1005 L-638820 1005 L-638472 1005 L-637699 1005 L-637096 1005 L-636900 1005 L-636670 1005 L-636532 1005 L-635894 1005 L-635605 1005 L-635583 1005 L-635123 1005 L-634890 1005 L-634835 1005 L-634797 1005 L-634294 1005 L-633744 1005 L-632956 1005 L-631833 1005 L-630938 1005 L-630850 1005 L-630551 1005 L-630479 1005 L-630363 1005 L-629187 1005 L-628838 1005 L-628816 1005 L-628297 1005 L-628150 1005 L-628042 1005 L-627832 1005 L-627678 1005 L-627655 1005 L-627461 1005 L-627384 1005 L-627241 1005 L-626440 1005 L-626294 1005 L-626014 1005 L-625837 1005 L-625527 1005 L-624715 1005 L-623787 1005 L-622195 1005 L-621952 1005 L-621311 1005 L-621115 1005 L-621037 1005 L-620520 1005 L-620288 1005 L-620265 1005 L-620133 1005 L-619794 1005 L-619783 1005 L-619566 1005 L-619529 1005 L-618988 1005 L-618459 1005 L-618391 1005 L-618098 1005 L-617550 1005 L-617515 1005 L-617462 1005 L-617363 1005 L-617131 1005 L-616551 1005 L-616453 1005 L-616379 1005 L-616047 1005 L-615297 1005 L-615258 1005 L-614578 1005 L-614423 1005 L-614097 1005 L-613881 1005 L-613650 1005 L-613353 1005 L-613107 1005 L-612756 1005 L-612703 1005 L-611943 1005 L-611250 1005 L-610900 1005 L-610436 1005 L-609802 1005 L-609394 1005 L-609316 1005 L-608890 1005 L-608247 1005 L-608078 1005 L-607336 1005 L-607149 1005 L-606853 1005 L-606281 1005 L-606256 1005 L-605237 1005 L-604750 1005 L-604657 1005 L-604596 1005 L-604308 1005 L-604022 1005 L-603960 1005 L-603780 1005 L-603069 1005 L-602893 1005 L-602695 1005 L-602543 1005 L-602451 1005 L-602390 1005 L-601848 1005 L-601537 1005 L-601445 1005 L-601368 1005 L-600801 1005 L-600710 1005 L-600455 1005 L-600128 1005 L-600091 1005 L-599936 1005 L-599704 1005 L-599382 1005 L-598250 1005 L-598051 1005 L-597525 1005 L-597280 1005 L-597034 1005 L-596955 1005 L-596935 1005 L-596858 1005 L-596802 1005 L-596725 1005 L-596686 1005 L-596507 1005 L-596470 1005 L-596239 1005 L-595001 1005 L-594674 1005 L-594635 1005 L-593853 1005 L-593706 1005 L-592715 1005 L-592508 1005 L-592082 1005 L-591955 1005 L-591551 1005 L-591463 1005 L-590806 1005 L-590098 1005 L-589490 1005 L-589297 1005 L-589064 1005 L-588445 1005 L-588150 1005 L-587710 1005 L-587556 1005 L-587400 1004 L-586644 1004 L-586294 1004 L-585892 1004 L-585853 1004 L-584847 1004 L-584527 1004 L-584281 1004 L-583581 1004 L-583507 1004 L-583195 1004 L-582115 1004 L-581923 1004 L-581690 1004 L-581495 1004 L-580995 1004 L-580241 1004 L-580127 1004 L-579927 1004 L-579886 1004 L-579793 1004 L-579480 1004 L-579392 1004 L-579276 1004 L-578958 1004 L-578889 1004 L-578864 1004 L-578502 1004 L-578463 1004 L-578247 1004 L-577744 1004 L-577141 1004 L-576930 1004 L-576777 1004 L-576739 1004 L-576695 1004 L-576660 1004 L-576527 1004 L-576118 1004 L-575747 1004 L-575694 1004 L-575678 1004 L-575599 1004 L-575189 1004 L-575036 1004 L-575020 1004 L-574980 1004 L-574802 1004 L-574726 1004 L-574494 1004 L-573705 1004 L-573627 1004 L-572892 1004 L-572736 1004 L-572497 1004 L-572435 1004 L-572350 1004 L-572327 1004 L-572209 1004 L-572195 1004 L-572133 1004 L-572096 1004 L-572001 1004 L-571979 1004 L-571863 1004 L-571630 1004 L-571460 1004 L-570640 1004 L-570239 1004 L-570084 1004 L-569579 1004 L-569465 1004 L-568868 1004 L-568494 1004 L-568442 1004 L-568248 1004 L-567552 1004 L-567513 1004 L-567369 1004 L-567143 1004 L-566882 1004 L-566508 1004 L-566082 1004 L-565953 1004 L-565933 1004 L-565440 1004 L-564743 1004 L-564512 1004 L-564358 1004 L-563389 1004 L-563165 1004 L-562887 1004 L-562871 1004 L-562345 1004 L-561816 1004 L-561668 1004 L-561649 1004 L-561107 1004 L-560797 1004 L-560679 1004 L-560488 1004 L-560351 1004 L-560024 1004 L-559907 1004 L-559598 1004 L-559172 1004 L-559116 1004 L-558883 1004 L-558787 1004 L-558654 1004 L-558357 1004 L-558243 1004 L-557879 1004 L-557566 1004 L-557083 1004 L-556913 1004 L-556665 1004 L-556449 1004 L-555923 1004 L-555736 1004 L-555381 1004 L-554746 1004 L-554591 1004 L-553850 1004 L-553431 1004 L-553251 1004 L-553174 1004 L-553043 1004 L-552750 1004 L-552709 1004 L-552479 1004 L-552286 1004 L-552031 1004 L-551605 1004 L-551496 1004 L-550877 1004 L-550696 1004 L-549484 1004 L-548837 1004 L-548686 1004 L-548649 1004 L-548517 1004 L-548416 1004 L-548400 1004 L-548318 1004 L-548107 1004 L-547990 1004 L-547627 1004 L-547255 1004 L-546559 1004 L-546156 1004 L-546052 1004 L-546034 1004 L-545089 1004 L-544894 1004 L-544742 1004 L-544686 1004 L-543930 1004 L-543913 1004 L-543424 1004 L-543293 1004 L-543100 1004 L-542210 1004 L-542171 1004 L-542133 1004 L-542056 1004 L-542017 1004 L-541940 1004 L-541856 1004 L-541592 1004 L-541359 1004 L-541297 1004 L-540817 1004 L-540480 1004 L-540369 1004 L-540175 1004 L-539999 1004 L-539940 1004 L-539903 1004 L-539634 1004 L-538936 1004 L-538883 1004 L-538589 1004 L-538187 1004 L-537623 1004 L-536749 1004 L-536445 1004 L-536407 1004 L-536284 1004 L-535686 1004 L-535556 1004 L-535356 1004 L-535318 1004 L-534704 1004 L-534526 1004 L-534511 1004 L-534293 1004 L-534215 1004 L-533908 1004 L-533776 1004 L-533544 1004 L-533209 1004 L-533118 1004 L-533017 1004 L-532980 1004 L-532436 1004 L-532244 1004 L-531703 1004 L-531277 1004 L-531145 1004 L-531083 1004 L-530852 1004 L-530836 1004 L-530347 1004 L-530267 1004 L-530249 1004 L-528856 1004 L-528721 1004 L-528607 1004 L-527972 1004 L-527833 1004 L-527715 1004 L-527561 1004 L-527524 1004 L-527446 1004 L-527392 1004 L-526400 1004 L-526363 1004 L-526230 1004 L-526170 1004 L-526071 1004 L-525780 1004 L-525767 1004 L-525457 1004 L-525357 1004 L-524892 1004 L-524838 1004 L-524696 1005 L-524568 1005 L-524336 1006 L-523767 1006 L-523678 1006 L-523655 1006 L-523368 1006 L-522686 1006 L-522608 1006 L-522572 1006 L-522556 1006 L-522356 1006 L-521936 1006 L-521665 1006 L-520792 1006 L-520499 1006 L-520388 1006 L-519654 1006 L-519527 1006 L-519167 1006 L-518915 1006 L-518043 1006 L-517874 1006 L-517813 1006 L-517758 1006 L-517410 1006 L-517387 1006 L-517178 1006 L-517037 1006 L-516907 1006 L-516784 1006 L-516661 1006 L-516424 1006 L-516133 1006 L-515474 1006 L-515452 1006 L-515297 1006 L-515180 1006 L-514216 1006 L-514160 1006 L-513927 1005 L-513905 1005 L-513579 1005 L-513463 1005 L-513424 1005 L-512922 1005 L-512623 1005 L-512511 1005 L-511969 1005 L-510910 1005 L-510284 1005 L-510112 1005 L-509864 1005 L-509608 1005 L-509477 1005 L-509456 1005 L-508788 1005 L-507892 1005 L-507846 1005 L-507776 1005 L-507660 1005 L-507439 1005 L-507249 1005 L-507209 1005 L-507017 1005 L-506358 1005 L-505741 1005 L-505702 1005 L-505106 1005 L-505044 1005 L-503922 1006 L-503867 1006 L-503746 1005 L-503481 1005 L-503417 1005 L-503148 1005 L-503072 1005 L-502856 1005 L-502373 1005 L-502103 1005 L-501972 1005 L-501740 1005 L-501715 1005 L-501700 1005 L-501677 1005 L-501662 1005 L-501638 1005 L-501624 1005 L-501600 1005 L-501585 1005 L-501562 1005 L-501547 1005 L-501524 1005 L-501508 1005 L-501480 1005 L-501462 1005 L-501444 1005 L-501408 1005 L-501368 1005 L-501353 1005 L-501328 1005 L-501276 1005 L-501251 1005 L-501174 1005 L-501137 1005 L-501121 1005 L-501058 1005 L-501044 1005 L-500998 1005 L-500927 1005 L-500888 1005 L-500864 1005 L-500812 1005 L-500787 1005 L-500771 1005 L-500709 1005 L-500672 1005 L-500595 1005 L-500580 1005 L-500552 1005 L-500479 1005 L-500439 1005 L-500286 1005 L-500169 1005 L-500115 1005 L-500033 1005 L-499999 1005 L-499975 1005 L-499821 1005 L-499806 1005 L-499704 1005 L-499394 1005 L-499357 1005 L-499142 1005 L-499031 1005 L-499006 1005 L-498776 1005 L-498544 1005 L-498169 1005 L-498041 1005 L-498001 1005 L-497949 1005 L-497848 1005 L-497811 1005 L-497600 1005 L-497536 1005 L-497423 1005 L-497212 1005 L-497175 1005 L-496802 1005 L-496749 1005 L-496670 1005 L-496648 1005 L-496556 1005 L-496356 1005 L-496318 1005 L-496296 1005 L-496066 1005 L-496046 1005 L-495836 1005 L-495741 1005 L-495704 1005 L-495367 1005 L-495255 1005 L-495215 1005 L-495201 1005 L-495062 1005 L-495047 1005 L-494792 1005 L-494209 1005 L-494133 1005 L-494095 1005 L-494051 1005 L-494002 1005 L-493822 1005 L-493808 1005 L-493708 1005 L-493630 1005 L-493570 1005 L-493204 1005 L-493122 1005 L-493104 1005 L-493051 1005 L-492082 1005 L-491951 1005 L-491929 1005 L-491709 1005 L-491640 1005 L-491618 1005 L-491371 1005 L-491115 1005 L-490984 1005 L-490945 1005 L-490923 1005 L-490868 1005 L-490780 1005 L-490719 1005 L-490494 1005 L-490364 1005 L-490265 1005 L-490210 1005 L-490017 1005 L-489939 1005 L-489606 1005 L-489475 1005 L-489297 1005 L-489282 1005 L-489257 1005 L-488987 1005 L-487786 1005 L-487750 1005 L-487633 1005 L-487400 1005 L-487209 1005 L-487170 1005 L-487114 1005 L-487010 1005 L-486496 1005 L-486202 1005 L-485970 1005 L-485695 1005 L-485678 1005 L-485645 1005 L-485605 1005 L-485567 1005 L-485466 1005 L-485389 1005 L-485296 1005 L-485169 1005 L-485065 1005 L-484886 1005 L-484694 1005 L-483865 1005 L-483749 1005 L-483494 1005 L-483454 1005 L-483355 1004 L-483295 1004 L-483052 1004 L-483029 1004 L-482908 1004 L-482836 1004 L-482797 1004 L-482565 1004 L-482389 1004 L-481869 1004 L-481792 1004 L-481776 1004 L-481365 1004 L-481002 1004 L-480886 1004 L-480863 1004 L-480823 1004 L-480746 1004 L-480693 1004 L-480344 1004 L-480228 1004 L-480051 1004 L-479995 1004 L-479972 1004 L-479858 1004 L-479570 1004 L-479338 1004 L-479122 1004 L-478913 1004 L-478702 1004 L-477876 1004 L-477536 1004 L-476529 1004 L-476166 1004 L-475120 1004 L-475043 1004 L-474596 1004 L-474384 1004 L-474193 1004 L-473898 1004 L-473857 1004 L-473704 1004 L-473651 1004 L-473419 1004 L-472838 1004 L-472644 1004 L-472025 1004 L-471536 1004 L-471484 1004 L-470836 1004 L-470686 1004 L-470516 1004 L-470143 1004 L-470128 1004 L-470029 1004 L-469990 1004 L-469859 1004 L-469426 1004 L-469123 1004 L-468737 1004 L-468597 1004 L-468436 1004 L-468002 1004 L-467963 1004 L-467862 1004 L-467747 1004 L-467569 1004 L-467398 1004 L-467280 1004 L-466919 1004 L-466701 1004 L-466569 1004 L-466429 1004 L-465930 1004 L-465852 1004 L-465618 1004 L-465294 1004 L-464907 1004 L-464884 1004 L-464264 1004 L-463994 1004 L-463761 1004 L-463336 1004 L-463064 1004 L-462923 1004 L-462714 1004 L-462508 1004 L-461957 1004 L-461826 1004 L-461439 1004 L-461169 1004 L-461066 1004 L-460806 1004 L-460604 1004 L-460535 1004 L-460496 1004 L-459929 1004 L-459722 1004 L-459695 1004 L-459466 1004 L-459388 1004 L-458871 1004 L-458833 1004 L-458677 1004 L-458384 1004 L-458112 1004 L-457748 1004 L-457400 1004 L-457028 1004 L-456908 1004 L-456836 1004 L-456356 1004 L-456294 1004 L-455959 1004 L-455828 1004 L-455750 1004 L-455621 1004 L-455157 1004 L-454863 1004 L-454786 1004 L-454475 1004 L-454167 1004 L-454103 1004 L-454074 1004 L-453299 1004 L-453194 1004 L-453106 1004 L-453083 1004 L-452929 1004 L-452708 1004 L-452541 1004 L-452154 1004 L-452099 1004 L-452036 1004 L-451418 1004 L-451302 1004 L-450978 1004 L-450453 1004 L-450102 1004 L-450026 1004 L-449407 1004 L-448996 1004 L-448695 1004 L-448384 1004 L-448246 1004 L-447622 1004 L-447240 1004 L-446117 1004 L-445056 1004 L-444994 1004 L-444633 1004 L-444532 1004 L-444516 1004 L-444142 1004 L-443137 1004 L-442750 1004 L-442543 1004 L-442454 1004 L-442078 1004 L-441786 1004 L-441474 1004 L-440685 1004 L-440598 1004 L-440545 1004 L-440507 1004 L-439989 1004 L-439874 1004 L-439665 1004 L-439526 1004 L-438922 1004 L-438093 1004 L-437810 1004 L-437628 1004 L-437126 1004 L-436921 1004 L-436367 1004 L-435862 1004 L-435671 1004 L-435632 1004 L-435003 1004 L-434550 1004 L-434136 1004 L-433527 1004 L-432407 1004 L-431993 1004 L-431669 1004 L-431454 1004 L-431027 1004 L-430887 1004 L-430796 1004 L-430565 1004 L-429978 1004 L-429170 1004 L-427971 1004 L-427857 1004 L-427725 1004 L-427637 1004 L-427595 1004 L-427575 1004 L-427564 1004 L-427469 1004 L-426706 1004 L-426000 1004 L-425960 1004 L-425674 1004 L-425133 1004 L-425071 1004 L-425031 1004 L-425017 1004 L-424760 1004 L-424436 1004 L-424296 1004 L-424026 1004 L-423987 1004 L-423879 1004 L-423478 1004 L-423368 1004 L-423291 1004 L-422994 1004 L-422951 1004 L-422733 1004 L-422549 1004 L-422439 1004 L-422425 1004 L-422398 1004 L-421974 1004 L-421728 1004 L-421392 1004 L-421357 1004 L-421223 1004 L-420969 1004 L-420815 1004 L-419908 1004 L-419809 1004 L-419614 1004 L-418607 1004 L-418106 1004 L-418028 1004 L-417990 1004 L-417782 1004 L-417663 1004 L-417565 1004 L-417379 1004 L-417213 1004 L-416978 1004 L-416558 1004 L-416543 1004 L-416234 1004 L-415188 1004 L-414971 1004 L-414955 1004 L-414933 1004 L-414724 1004 L-414565 1004 L-414507 1004 L-413062 1004 L-412736 1004 L-412534 1004 L-412335 1004 L-412185 1004 L-411914 1004 L-411474 1004 L-411256 1004 L-410561 1004 L-410059 1004 L-409734 1004 L-409463 1004 L-408742 1004 L-408587 1004 L-407389 1004 L-407000 1004 L-406884 1004 L-406731 1004 L-406577 1004 L-405607 1003 L-405555 1003 L-405307 1003 L-405285 1003 L-405065 1003 L-404627 1003 L-404487 1003 L-404380 1003 L-404178 1003 L-404060 1003 L-403958 1003 L-403944 1003 L-403811 1003 L-403557 1003 L-402939 1003 L-402280 1003 L-402034 1003 L-401841 1003 L-401082 1003 L-401043 1003 L-400965 1003 L-400913 1003 L-400873 1003 L-400835 1003 L-400796 1003 L-400705 1003 L-400661 1003 L-400602 1003 L-400578 1003 L-400463 1003 L-400154 1003 L-400099 1003 L-400077 1003 L-399735 1003 L-399570 1003 L-399534 1003 L-399494 1003 L-399479 1003 L-399247 1003 L-399107 1003 L-398939 1003 L-398489 1003 L-398256 1003 L-398163 1003 L-398143 1003 L-397662 1003 L-397585 1003 L-397458 1003 L-397328 1003 L-396949 1003 L-396708 1003 L-396670 1003 L-396617 1003 L-396478 1003 L-396439 1003 L-396399 1003 L-396169 1003 L-396129 1003 L-395999 1003 L-395820 1003 L-395779 1003 L-395765 1003 L-395601 1003 L-395586 1003 L-395433 1003 L-395418 1003 L-395392 1003 L-395358 1003 L-395136 1003 L-394913 1003 L-394659 1003 L-394527 1003 L-393885 1003 L-393278 1003 L-392258 1003 L-392065 1003 L-392014 1003 L-391889 1003 L-391564 1003 L-390791 1003 L-390734 1003 L-390620 1003 L-390208 1003 L-389883 1003 L-389745 1003 L-389521 1003 L-388995 1003 L-388594 1003 L-388562 1003 L-388276 1003 L-387990 1003 L-387602 1003 L-387386 1003 L-386959 1003 L-386777 1003 L-386441 1003 L-386334 1003 L-386148 1003 L-386031 1003 L-386017 1003 L-385296 1003 L-385126 1003 L-384878 1003 L-384778 1003 L-384135 1003 L-383847 1003 L-383657 1003 L-383382 1003 L-383065 1003 L-382780 1003 L-382666 1003 L-382621 1003 L-382419 1003 L-380810 1003 L-380598 1003 L-379917 1003 L-379835 1003 L-379606 1003 L-379416 1003 L-379277 1003 L-379258 1003 L-379065 1003 L-378835 1003 L-378643 1003 L-377559 1003 L-377363 1003 L-377310 1003 L-377157 1003 L-377049 1003 L-376883 1003 L-376730 1003 L-376615 1003 L-376491 1003 L-376074 1003 L-375817 1003 L-375724 1003 L-375531 1003 L-375470 1003 L-375144 1003 L-375083 1003 L-375026 1003 L-374757 1003 L-374409 1003 L-374230 1003 L-374036 1003 L-374000 1003 L-373287 1003 L-373248 1003 L-372938 1003 L-372641 1003 L-372591 1003 L-372335 1003 L-372065 1003 L-372009 1003 L-370918 1003 L-370888 1003 L-370847 1003 L-370671 1003 L-370478 1003 L-369620 1003 L-368567 1003 L-368506 1003 L-368157 1003 L-367344 1003 L-366531 1003 L-366516 1003 L-366141 1003 L-365972 1003 L-365704 1003 L-365376 1003 L-365254 1003 L-365198 1003 L-365162 1003 L-365085 1003 L-364868 1003 L-364809 1003 L-364493 1003 L-364326 1003 L-363962 1003 L-363769 1003 L-363745 1003 L-363668 1003 L-363187 1003 L-363050 1003 L-362636 1003 L-362337 1003 L-362238 1003 L-362222 1003 L-362193 1003 L-361834 1003 L-361484 1003 L-361347 1003 L-361310 1003 L-360493 1003 L-360287 1003 L-360263 1003 L-360106 1003 L-360017 1003 L-359775 1003 L-359451 1003 L-359359 1003 L-359163 1003 L-358877 1003 L-358121 1003 L-357992 1003 L-357918 1003 L-357305 1003 L-357130 1003 L-357019 1003 L-356919 1003 L-356840 1003 L-356703 1003 L-356549 1003 L-356470 1003 L-356279 1003 L-355606 1003 L-355567 1003 L-355464 1003 L-354521 1003 L-354500 1003 L-354148 1003 L-353683 1003 L-353648 1003 L-353219 1003 L-353167 1003 L-352756 1003 L-352739 1003 L-352643 1003 L-352588 1003 L-352549 1003 L-352254 1003 L-350516 1003 L-349006 1003 L-348498 1003 L-348000 1003 L-347866 1003 L-347776 1003 L-347648 1003 L-347569 1003 L-347264 1003 L-346993 1003 L-346759 1003 L-345560 1003 L-345455 1003 L-345390 1003 L-344548 1003 L-344362 1003 L-343451 1003 L-342582 1003 L-342294 1003 L-342202 1003 L-341653 1003 L-341133 1003 L-340064 1003 L-339796 1003 L-339642 1003 L-339549 1003 L-339419 1003 L-339372 1003 L-339212 1003 L-338346 1003 L-338012 1003 L-337628 1003 L-336876 1003 L-336816 1003 L-336427 1003 L-336105 1003 L-335948 1003 L-335216 1003 L-335154 1003 L-334866 1003 L-334492 1003 L-334311 1003 L-334055 1003 L-333794 1003 L-333641 1003 L-333238 1003 L-331941 1003 L-331825 1003 L-331362 1003 L-330030 1003 L-329605 1003 L-329581 1003 L-329448 1003 L-329273 1003 L-329139 1003 L-328809 1003 L-328422 1003 L-328382 1003 L-328366 1003 L-327976 1003 L-327684 1003 L-327415 1003 L-327242 1003 L-325748 1003 L-325698 1003 L-325620 1003 L-324380 1003 L-324305 1003 L-324278 1003 L-324032 1003 L-323874 1003 L-323816 1003 L-322928 1003 L-322700 1003 L-322176 1003 L-322035 1003 L-321959 1003 L-321263 1003 L-321015 1003 L-320335 1003 L-320317 1003 L-320063 1003 L-319695 1003 L-319560 1003 L-318938 1003 L-318595 1002 L-318547 1002 L-318060 1002 L-317726 1002 L-317509 1002 L-317375 1002 L-317054 1002 L-316989 1002 L-316737 1002 L-316448 1002 L-316138 1002 L-315998 1002 L-315459 1002 L-315183 1002 L-314453 1002 L-314400 1002 L-314293 1002 L-314027 1002 L-313603 1002 L-313338 1002 L-313119 1002 L-313098 1002 L-312867 1002 L-312580 1002 L-312557 1002 L-312542 1002 L-312170 1002 L-311998 1002 L-311922 1002 L-311861 1002 L-311560 1002 L-311319 1002 L-311227 1002 L-310970 1002 L-310917 1002 L-310721 1002 L-310505 1002 L-310082 1002 L-309989 1002 L-309849 1002 L-308984 1002 L-308611 1002 L-308283 1002 L-308130 1002 L-307703 1002 L-306985 1002 L-306791 1002 L-306436 1002 L-306290 1002 L-305783 1002 L-305547 1002 L-304580 1002 L-304570 1002 L-303505 1002 L-303272 1002 L-302870 1002 L-302676 1002 L-302596 1002 L-302500 1002 L-301763 1002 L-301631 1002 L-301241 1002 L-301219 1002 L-301124 1002 L-300988 1002 L-300971 1002 L-300951 1002 L-299266 1002 L-299248 1002 L-299131 1002 L-299047 1002 L-298922 1002 L-298898 1002 L-298614 1002 L-298508 1002 L-298319 1002 L-298049 1002 L-297377 1002 L-297005 1002 L-296153 1002 L-296096 1002 L-296076 1002 L-295843 1002 L-295568 1002 L-295263 1002 L-295223 1002 L-294992 1002 L-294755 1002 L-294142 1002 L-294101 1002 L-294064 1002 L-293542 1002 L-293351 1002 L-293290 1002 L-293248 1002 L-292925 1002 L-292897 1002 L-292883 1002 L-292398 1002 L-292344 1002 L-292206 1002 L-292168 1002 L-292151 1002 L-292056 1002 L-291391 1002 L-290775 1002 L-290505 1002 L-290097 1002 L-290077 1002 L-290061 1002 L-289948 1002 L-289560 1002 L-289094 1002 L-289033 1002 L-288955 1002 L-288940 1002 L-288454 1002 L-288414 1002 L-288269 1002 L-288219 1002 L-288141 1002 L-287508 1002 L-287418 1002 L-287177 1002 L-287060 1002 L-286732 1002 L-285978 1002 L-285961 1002 L-285010 1002 L-284700 1002 L-284275 1002 L-283562 1002 L-283243 1002 L-283228 1002 L-283077 1002 L-282774 1002 L-282696 1002 L-282569 1002 L-282132 1002 L-282071 1002 L-281548 1002 L-281280 1002 L-281142 1002 L-281064 1002 L-281025 1002 L-280214 1002 L-280173 1002 L-279733 1002 L-279655 1002 L-279397 1002 L-279207 1002 L-278578 1002 L-278391 1002 L-278356 1002 L-278200 1002 L-277799 1002 L-277722 1002 L-277541 1002 L-277350 1002 L-276421 1002 L-276271 1002 L-275063 1002 L-274254 1002 L-273850 1002 L-273248 1002 L-273046 1002 L-272977 1002 L-272819 1002 L-272557 1002 L-272184 1006 L-272166 1006 L-272009 1006 L-270811 1006 L-269707 1002 L-268779 1002 L-268665 1002 L-268380 1002 L-268278 1002 L-268254 1002 L-268064 1002 L-267986 1002 L-267790 1002 L-267078 1002 L-266921 1002 L-265864 1002 L-265439 1002 L-265029 1002 L-264742 1002 L-264568 1002 L-264336 1002 L-264082 1002 L-263640 1002 L-262979 1002 L-262803 1002 L-262498 1002 L-262111 1002 L-262091 1002 L-262072 1002 L-262050 1002 L-261917 1002 L-261724 1002 L-260081 1002 L-258784 1002 L-258745 1002 L-258687 1002 L-258586 1002 L-258027 1002 L-257043 1002 L-256500 1002 L-256037 1002 L-255391 1002 L-254842 1002 L-253792 1002 L-252864 1002 L-252516 1002 L-252322 1002 L-251820 1002 L-251374 1002 L-251232 1002 L-251211 1002 L-250639 1002 L-250254 1002 L-249421 1002 L-249072 1002 L-249050 1002 L-248663 1002 L-248240 1002 L-247641 1002 L-247622 1002 L-247116 1002 L-246884 1002 L-246771 1002 L-246152 1002 L-245590 1002 L-245550 1002 L-244991 1002 L-244658 1002 L-244546 1002 L-244507 1002 L-244082 1002 L-244022 1002 L-243947 1002 L-243656 1002 L-243443 1002 L-242959 1002 L-242745 1002 L-241605 1002 L-241546 1002 L-241528 1002 L-241122 1002 L-240483 1002 L-240348 1002 L-240290 1002 L-239748 1002 L-239439 1002 L-239188 1002 L-239112 1002 L-238993 1002 L-238259 1002 L-237814 1002 L-237600 1002 L-236866 1002 L-236691 1002 L-236326 1002 L-236111 1002 L-234873 1002 L-234564 1002 L-234447 1002 L-234194 1002 L-233983 1002 L-233441 1002 L-233209 1001 L-233152 1001 L-233055 1001 L-232725 1001 L-232493 1001 L-230831 1001 L-230480 1001 L-230076 1001 L-229921 1001 L-229128 1001 L-227638 1001 L-227251 1001 L-227212 1001 L-226959 1001 L-226864 1001 L-226671 1001 L-226322 1001 L-225626 1001 L-225375 1001 L-224659 1001 L-223247 1001 L-223015 1001 L-222685 1001 L-221469 1001 L-221117 1001 L-220925 1001 L-220807 1001 L-218372 1001 L-217403 1001 L-216572 1001 L-216263 1001 L-214921 1001 L-214348 1001 L-214232 1001 L-213903 1001 L-213807 1001 L-213399 1001 L-213284 1001 L-213093 1001 L-212337 1001 L-212211 1001 L-211930 1001 L-211427 1001 L-211350 1001 L-209763 1001 L-209705 1001 L-208963 1001 L-208583 1001 L-208254 1001 L-207591 1001 L-207461 1001 L-207421 1001 L-207171 1001 L-207035 1001 L-206842 1001 L-206707 1001 L-206455 1001 L-206243 1001 L-205933 1001 L-205661 1001 L-205159 1001 L-205140 1001 L-204706 1001 L-204480 1001 L-204037 1001 L-204018 1001 L-203515 1001 L-203377 1001 L-203263 1001 L-203031 1001 L-202721 1001 L-202256 1001 L-202179 1001 L-201677 1001 L-201406 1001 L-201068 1001 L-200883 1001 L-200207 1001 L-200188 1001 L-200013 1001 L-199993 1001 L-199375 1001 L-198659 1001 L-198097 1001 L-197902 1001 L-197749 1001 L-197730 1001 L-197207 1001 L-197092 1001 L-196221 1001 L-196200 1001 L-196143 1001 L-195312 1001 L-195002 1001 L-194926 1001 L-194654 1001 L-194591 1001 L-194540 1001 L-194229 1001 L-193612 1001 L-192836 1001 L-192043 1001 L-192004 1001 L-191927 1001 L-191755 1001 L-190877 1001 L-189992 1001 L-189897 1001 L-189778 1001 L-189448 1001 L-189412 1001 L-189180 1001 L-188946 1001 L-188231 1001 L-187729 1001 L-187063 1001 L-186955 1001 L-186801 1001 L-186781 1001 L-186626 1001 L-186211 1001 L-185600 1001 L-185465 1001 L-184557 1001 L-184354 1001 L-183802 1001 L-181152 1001 L-180977 1001 L-180899 1001 L-180028 1001 L-179564 1001 L-179082 1001 L-179043 1001 L-178462 1001 L-178442 1001 L-177340 1001 L-175919 1001 L-175501 1001 L-175194 1001 L-175116 1001 L-175040 1001 L-174883 1001 L-174807 1001 L-174342 1001 L-173104 1001 L-172853 1001 L-172408 1001 L-171786 1001 L-171730 1001 L-171537 1001 L-171072 1001 L-170781 1001 L-170740 1001 L-170704 1001 L-170551 1001 L-170373 1001 L-169235 1001 L-168847 1001 L-168790 1001 L-168616 1001 L-166099 1001 L-164939 1001 L-164302 1001 L-164163 1001 L-164031 1001 L-163643 1001 L-163180 1001 L-162969 1001 L-162903 1001 L-162870 1001 L-162116 1001 L-161534 1001 L-161342 1001 L-160723 1001 L-160677 1001 L-160317 1001 L-160211 1001 L-160026 1001 L-159749 1001 L-158845 1001 L-157840 1001 L-157105 1001 L-156680 1001 L-156519 1001 L-156156 1001 L-156059 1001 L-155616 1001 L-155540 1001 L-155188 1001 L-154939 1001 L-154919 1001 L-154745 1001 L-153797 1001 L-153683 1001 L-153120 1001 L-152670 1001 L-152285 1001 L-151374 1001 L-151319 1001 L-150180 1001 L-149599 1001 L-149424 1001 L-148631 1001 L-148399 1001 L-148013 1001 L-147742 1001 L-147607 1001 L-147491 1001 L-146872 1001 L-146814 1001 L-146599 1001 L-146304 1001 L-145516 1001 L-145376 1001 L-143988 1001 L-143641 1001 L-143254 1001 L-143193 1001 L-143156 1001 L-143100 1001 L-142456 1001 L-141765 1001 L-141513 1001 L-141177 1001 L-141088 1001 L-140567 1001 L-140314 1001 L-140098 1001 L-139715 1001 L-139555 1001 L-139016 1001 L-138204 1001 L-138185 1001 L-138069 1001 L-137925 1001 L-137544 1001 L-137352 1001 L-137296 1001 L-136996 1001 L-136930 1001 L-136734 1001 L-136367 1001 L-136305 1001 L-136002 1001 L-135956 1001 L-135903 1001 L-135265 1001 L-135245 1001 L-134760 1001 L-134278 1001 L-133909 1001 L-133542 1001 L-133408 1001 L-133254 1001 L-133184 1001 L-132536 1001 L-132516 1001 L-132376 1001 L-131891 1001 L-131608 1001 L-131550 1001 L-131492 1001 L-131182 1001 L-131028 1001 L-130544 1001 L-129771 1001 L-129131 1001 L-129033 1001 L-127971 1001 L-127950 1001 L-127485 1006 L-127468 1006 L-127295 1006 L-126782 1006 L-124428 1001 L-123483 1001 L-122764 1000 L-122224 1000 L-121527 1000 L-121210 1000 L-120562 1000 L-120054 1000 L-120020 1000 L-119978 1000 L-119632 1000 L-118937 1000 L-118740 1000 L-118724 1000 L-118608 1000 L-118326 1000 L-117429 1000 L-117382 1000 L-117016 1000 L-116999 1000 L-116944 1000 L-116751 1000 L-116615 1000 L-116540 1000 L-116306 1000 L-115765 1000 L-115724 1000 L-115687 1000 L-115662 1000 L-115026 1000 L-114484 1000 L-113319 1000 L-112959 1000 L-111682 1000 L-111643 1000 L-111605 1000 L-111390 1000 L-111199 1000 L-111122 1000 L-110968 1000 L-110929 1000 L-109840 1000 L-109516 1000 L-109302 1000 L-109041 1000 L-108548 1000 L-108526 1000 L-108109 1000 L-107968 1000 L-107908 1000 L-107831 1000 L-107620 1000 L-106325 1000 L-106049 1000 L-105425 1000 L-104034 1000 L-103961 1000 L-103923 1000 L-103730 1000 L-103340 1000 L-103033 1000 L-102977 1000 L-102661 1000 L-102611 1000 L-102572 1000 L-102527 1000 L-101894 1000 L-101120 1000 L-100681 1000 L-100539 1006 L-100515 1006 L-100499 1012 L-100474 1012 L-100057 1006 L-99853 1006 L-99704 1000 L-99626 1000 L-99572 1000 L-98775 1000 L-98758 1000 L-97895 1000 L-97691 1000 L-97404 1000 L-97288 1000 L-96763 1000 L-96586 1000 L-96282 1000 L-95895 1000 L-95835 1000 L-95779 1000 L-95625 1000 L-94580 1000 L-94018 1000 L-93782 1000 L-93745 1000 L-93476 1000 L-93070 1000 L-91601 1000 L-89860 1000 L-89473 1000 L-89241 1000 L-89142 1000 L-89047 1000 L-88892 1000 L-88329 1000 L-88247 1000 L-88080 1000 L-87538 1000 L-86353 1000 L-86339 1000 L-86279 1000 L-86128 1000 L-85643 1000 L-84996 1000 L-84290 1000 L-84173 1000 L-83206 1000 L-83161 1000 L-82471 1000 L-82414 1000 L-82336 1000 L-82316 1000 L-82295 1000 L-82080 1000 L-81367 1000 L-80977 1000 L-80940 1000 L-80923 1000 L-80865 1000 L-80438 1000 L-80224 1000 L-80149 1000 L-80071 1000 L-79956 1000 L-79891 1000 L-79762 1000 L-79703 1000 L-79628 1000 L-79549 1000 L-79120 1000 L-78395 1000 L-78381 1000 L-78214 1000 L-77998 1000 L-77983 1000 L-77402 1000 L-77131 1000 L-76842 1000 L-76412 1000 L-76259 1000 L-76202 1000 L-76026 1000 L-74630 1000 L-74365 1000 L-73472 1000 L-72946 1000 L-71927 1000 L-71846 1000 L-71382 1000 L-70763 1000 L-70476 1000 L-70223 1000 L-70071 1000 L-69723 1000 L-69006 1000 L-68445 1000 L-67556 1000 L-67247 1000 L-66956 1000 L-66104 1000 L-66083 1000 L-65426 1000 L-64923 1000 L-64712 1000 L-64692 1000 L-64363 1000 L-64304 1000 L-63918 1000 L-62932 1000 L-62371 1000 L-62274 1000 L-61965 1000 L-61888 1000 L-60853 1000 L-60723 1000 L-60666 1000 L-60031 1000 L-59972 1000 L-59896 1000 L-58483 1000 L-58346 1000 L-58212 1000 L-57726 1000 L-57477 1000 L-57186 1000 L-56974 1000 L-56316 1000 L-55748 1000 L-55659 1000 L-55519 1000 L-55445 1000 L-54280 1000 L-54248 1000 L-53818 1000 L-53801 1000 L-53627 1000 L-52099 1000 L-52015 1000 L-51209 1000 L-51016 1000 L-50994 1000 L-50141 1000 L-49947 1000 L-49314 1000 L-49138 1000 L-49019 1000 L-48965 1000 L-48944 1000 L-48888 1000 L-48500 1000 L-48056 1000 L-47977 1000 L-47780 1000 L-47719 1000 L-47456 1000 L-47108 1000 L-46992 1000 L-45844 1000 L-45559 1000 L-45114 1000 L-43911 1000 L-43781 1000 L-43471 1000 L-43043 1000 L-41746 1000 L-41436 1005 L-41420 1005 L-41374 1005 L-41324 1005 L-40396 1000 L-40066 1000 L-39517 1000 L-39390 1000 L-38944 1000 L-37411 1000 L-37242 1000 L-36971 1000 L-36947 1000 L-36042 1000 L-35927 1000 L-35459 1000 L-35437 1000 L-35364 1000 L-35166 1000 L-35014 1000 L-34547 1000 L-33896 1000 L-33410 1000 L-32860 1000 L-31838 1000 L-31532 1000 L-31477 1000 L-30877 1000 L-30447 1000 L-30373 1000 L-30355 1000 L-30134 1000 L-29830 1000 L-29748 1000 L-29444 1000 L-28844 1000 L-28708 1000 L-28438 1000 L-28224 1000 L-28049 1000 L-27840 1000 L-27818 1000 L-27569 1000 L-27120 1000 L-27103 1000 L-26658 1000 L-25450 1000 L-25248 1000 L-24319 1000 L-24258 1000 L-24223 1000 L-23198 1000 L-23081 1000 L-23061 1000 L-22907 1000 L-22888 1000 L-22477 1000 L-22461 1000 L-22423 1000 L-22113 1000 L-21959 1000 L-21754 1000 L-21356 1000 L-20373 1000 L-19848 1000 L-19792 1000 L-19766 1000 L-19444 1000 L-18727 1000 L-17858 1000 L-17820 1000 L-17742 1000 L-17491 1000 L-17471 1000 L-16748 1000 L-16598 1000 L-16485 1000 L-16388 1000 L-15286 1000 L-14531 1000 L-14359 1000 L-14198 1000 L-14122 1000 L-13928 1000 L-12790 1000 L-12105 1000 L-11822 1000 L-10855 1000 L-10836 1000 L-9985 1000 L-9945 1000 L-9802 1000 L-9478 1000 L-9248 1000 L-9210 1000 L-9169 1000 L-9153 1000 L-9017 1000 L-8998 1000 L-8787 1000 L-8727 1000 L-8649 1000 L-8625 1000 L-8550 1000 L-8069 1000 L-7973 1000 L-7897 1000 L-7720 1000 L-7698 1000 L-7643 1000 L-7605 1000 L-7546 1000 L-7391 1000 L-6367 1000 L-6068 1000 L-5941 1000 L-5863 1000 L-4838 1000 L-4781 1000 L-4723 1000 L-4677 1000 L-4663 1000 L-4626 1000 L-4587 1000 L-3408 999 L-3349 999 L-2653 999 L-2033 999 L-1891 999 L-1448 999 L-1182 999 L-519 999 L-235 999 L1234 999 L2183 999 L2289 999 L2355 999 L2384 999 L2704 999 L2725 999 L3654 999 L3830 999 L4561 999 L5102 750 L5126 500 L5152 250 L5185 0 L5201 0 L5222 0 L5260 0 L5279 0 L5302 0 L5317 0 L5336 0 L5356 0 L5378 0 L5394 0 L5414 0 L5433 0 L5472 0 L5512 0 L5537 0 L5553 0 L5571 0 L5608 0 L5627 0 L5646 0 L5665 0 L5687 0 L5704 0 L5743 0 L5765 0 L5781 0 L5800 0 L5820 0 L5840 0 L5859 0 L5897 0 L5955 0 L6003 0 L6054 0 L6081 0 L6097 0 L6114 0 L6130 0 L6150 0 L6168 0 L6188 0 L6208 0 L6230 0 L6246 0 L6265 0 L6285 0 L6306 0 L6343 0 L6362 0 L6383 0 L6419 0 L6440 0 L6466 0 L6482 0 L6500 0" />
</svg>
