<svg xmlns="http://www.w3.org/2000/svg" version="1.1" viewBox="0 0 6500 1000">
	<path fill="none" stroke="gold" stroke-width="125" stroke-linecap="round" stroke-linejoin="round" d="M0 917  L-20117 917 L-19705 893 L-19480 905 L-19423 893 L-19385 869 L-19201 845 L-18711 822 L-18417 810 L-18106 798 L-17872 774 L-17818 750 L-17759 726 L-17606 714 L-17565 702 L-17433 691 L-17140 702 L-16599 691 L-15989 667 L-15941 691 L-15301 667 L-15268 679 L-14742 655 L-14610 643 L-14219 595 L-13891 571 L-13774 548 L-13563 571 L-12846 559 L-12276 548 L-12169 536 L-11994 512 L-11773 488 L-11371 476 L-11346 452 L-10418 428 L-10330 405 L-10248 381 L-10178 357 L-9881 345 L-9729 333 L-7839 405 L-7738 369 L-7475 345 L-7182 369 L-7040 345 L-6792 333 L-6756 321 L-6597 297 L-6134 286 L-5881 262 L-5669 250 L-5417 238 L-5069 214 L-4141 190 L-4048 166 L-3637 154 L-2466 143 L-1277 119 L-1185 95 L-1157 71 L-891 35 L-592 12 L-463 0 L-426 -23 L388 59 L772 47 L1832 23 L1893 12 L2159 976 L2630 964 L2822 941 L3086 929 L3423 917 L3558 929 L4014 893 L4757 881 L4774 857 L4940 845 L5008 869 L5524 857" />
</svg>
