<svg xmlns="http://www.w3.org/2000/svg" version="1.1" viewBox="0 0 6500 1000">
	<path fill="none" stroke="gold" stroke-width="125" stroke-linecap="round" stroke-linejoin="round" d="M0 309200  L-1311681 309200 L-1311497 309198 L-1311006 309196 L-1310713 309194 L-1310401 309191 L-1310167 309190 L-1310114 309187 L-1310054 309184 L-1309901 309183 L-1309861 309180 L-1309728 309179 L-1309436 309177 L-1308895 309177 L-1308285 309176 L-1308237 309176 L-1307597 309175 L-1307563 309175 L-1307038 309175 L-1306905 309173 L-1306515 309170 L-1306187 309168 L-1306070 309165 L-1305858 309162 L-1305141 309162 L-1304571 309161 L-1304464 309161 L-1304290 309159 L-1304068 309156 L-1303667 309155 L-1303641 309152 L-1302713 309149 L-1302626 309146 L-1302543 309144 L-1302473 309141 L-1302176 309139 L-1302024 309137 L-1300134 309138 L-1300033 309138 L-1299771 309138 L-1299477 309139 L-1299336 309137 L-1299087 309137 L-1299051 309135 L-1298893 309134 L-1298429 309131 L-1298176 309130 L-1297964 309127 L-1297713 309125 L-1297364 309124 L-1296437 309121 L-1296343 309118 L-1295932 309117 L-1294761 309114 L-1293572 309113 L-1293480 309110 L-1293453 309107 L-1293187 309104 L-1292888 309101 L-1292759 309099 L-1292721 309096 L-1291907 309096 L-1291523 309097 L-1290462 309099 L-1290401 309099 L-1290136 309127 L-1289665 309154 L-1289472 309180 L-1289209 309207 L-1288872 309206 L-1288736 309204 L-1288281 309203 L-1287537 309201 L-1287520 309200 L-1287355 309197 L-1287286 309197 L-1286770 309196 L-1285742 309196 L-1285545 309194 L-1285057 309193 L-1284695 309191 L-1284286 309191 L-1283901 309193 L-1282197 309193 L-1282099 309193 L-1282027 309193 L-1281966 309193 L-1281782 309191 L-1281445 309191 L-1280805 309190 L-1280728 309189 L-1280666 309189 L-1280480 309187 L-1280400 309187 L-1280223 309186 L-1280204 309184 L-1279974 309184 L-1279586 309183 L-1278697 309183 L-1278658 309182 L-1278570 309180 L-1278542 309177 L-1277534 309176 L-1277385 309173 L-1277360 309172 L-1277227 309170 L-1277188 309169 L-1275929 309168 L-1275872 309168 L-1275332 309166 L-1275279 309166 L-1275233 309166 L-1274838 309165 L-1274698 309163 L-1274498 309162 L-1274351 309162 L-1274187 309162 L-1273910 309163 L-1273551 309163 L-1272999 309162 L-1272354 309161 L-1272095 309158 L-1271942 309156 L-1271541 309155 L-1271500 309154 L-1271380 309152 L-1271318 309154 L-1271304 309154 L-1271210 309154 L-1270917 309152 L-1270766 309146 L-1270435 309144 L-1270358 309141 L-1270282 309139 L-1270055 309135 L-1269989 309132 L-1269761 309130 L-1269709 309127 L-1269544 309125 L-1268538 309124 L-1268355 309123 L-1267804 309121 L-1267411 309118 L-1267013 309117 L-1266163 309114 L-1266085 309113 L-1265506 309111 L-1265064 309111 L-1264824 309110 L-1264666 309110 L-1264266 309107 L-1264245 309107 L-1263800 309106 L-1263395 309104 L-1263259 309101 L-1263083 309099 L-1262947 309096 L-1262697 309093 L-1261697 309092 L-1261615 309090 L-1261479 309089 L-1261441 309087 L-1260551 309086 L-1260335 309085 L-1259892 309083 L-1259775 309082 L-1259718 309080 L-1259042 309080 L-1258941 309079 L-1258912 309079 L-1257571 309078 L-1257165 309076 L-1257125 309075 L-1256197 309073 L-1256099 309072 L-1255966 309071 L-1255562 309069 L-1255535 309068 L-1255443 309066 L-1255226 309065 L-1254815 309062 L-1253661 309059 L-1253370 309056 L-1253341 309054 L-1252733 309052 L-1252483 309049 L-1252463 309048 L-1251534 309047 L-1251483 309044 L-1251360 309042 L-1251343 309040 L-1251187 309038 L-1251011 309035 L-1250875 309034 L-1250818 309033 L-1250710 309031 L-1250625 309030 L-1250392 309028 L-1250317 309027 L-1250009 309026 L-1249891 309024 L-1249721 309023 L-1249630 309021 L-1249527 309021 L-1249504 309020 L-1249427 309020 L-1249329 309017 L-1248962 309016 L-1248857 309014 L-1248354 309013 L-1247902 309012 L-1247864 309010 L-1247840 309009 L-1247799 309007 L-1247670 309006 L-1247570 309004 L-1247128 309003 L-1246846 309002 L-1246253 309000 L-1246123 308999 L-1245849 308996 L-1245696 308995 L-1245543 308993 L-1245458 308990 L-1245380 308989 L-1245194 308988 L-1245143 308988 L-1245116 308986 L-1245036 308985 L-1245013 308983 L-1244730 308981 L-1244126 308978 L-1243130 308976 L-1242833 308975 L-1242099 308974 L-1241854 308972 L-1241764 308971 L-1241187 308969 L-1240489 308968 L-1239736 308967 L-1239418 308965 L-1239035 308962 L-1238958 308961 L-1238323 308959 L-1238138 308958 L-1238050 308958 L-1237921 308958 L-1237608 308957 L-1237558 308955 L-1237416 308954 L-1237395 308952 L-1236427 308951 L-1235882 308950 L-1235403 308950 L-1235342 308950 L-1235019 308950 L-1234997 308948 L-1234935 308948 L-1234725 308947 L-1234648 308945 L-1234593 308944 L-1234571 308943 L-1234531 308941 L-1234516 308940 L-1233759 308938 L-1233742 308937 L-1232943 308936 L-1232790 308934 L-1231885 308933 L-1231379 308931 L-1231149 308929 L-1231108 308929 L-1230993 308927 L-1230816 308926 L-1230062 308927 L-1229927 308926 L-1229763 308924 L-1229445 308923 L-1229269 308920 L-1228247 308917 L-1228224 308914 L-1227972 308913 L-1227759 308910 L-1227125 308909 L-1226888 308906 L-1226855 308903 L-1226677 308900 L-1226597 308898 L-1226507 308896 L-1226442 308893 L-1226002 308891 L-1225979 308889 L-1225438 308888 L-1225182 308886 L-1224687 308885 L-1223810 308884 L-1223773 308882 L-1223720 308881 L-1223679 308879 L-1223562 308878 L-1223286 308877 L-1223078 308874 L-1222881 308871 L-1222858 308868 L-1222808 308865 L-1222769 308864 L-1222691 308862 L-1222093 308860 L-1222033 308858 L-1221930 308857 L-1221775 308855 L-1221143 308854 L-1220463 308853 L-1220160 308850 L-1219813 308848 L-1219616 308847 L-1219567 308844 L-1219247 308843 L-1218619 308841 L-1218473 308840 L-1218436 308839 L-1218378 308837 L-1218302 308834 L-1218061 308834 L-1217972 308833 L-1217878 308832 L-1217584 308830 L-1217450 308829 L-1217390 308827 L-1217353 308825 L-1217081 308825 L-1216075 308823 L-1215899 308822 L-1215849 308822 L-1215556 308820 L-1215364 308817 L-1215030 308816 L-1214524 308815 L-1213962 308812 L-1213947 308809 L-1213930 308808 L-1213830 308805 L-1213715 308802 L-1213676 308799 L-1213638 308798 L-1213573 308798 L-1213545 308796 L-1213406 308798 L-1213113 308798 L-1213063 308798 L-1212958 308798 L-1212693 308796 L-1212228 308795 L-1212084 308795 L-1212029 308792 L-1211972 308791 L-1211781 308789 L-1211416 308788 L-1211201 308788 L-1211007 308788 L-1210949 308788 L-1210890 308785 L-1210736 308784 L-1210466 308782 L-1210037 308789 L-1210021 308789 L-1209944 308788 L-1209880 308787 L-1209750 308777 L-1209727 308775 L-1209443 308774 L-1209395 308772 L-1209341 308771 L-1208878 308770 L-1208839 308770 L-1208799 308768 L-1208608 308767 L-1208128 308765 L-1207641 308764 L-1207624 308763 L-1207586 308761 L-1207330 308760 L-1207253 308757 L-1207023 308756 L-1207007 308753 L-1206712 308750 L-1206270 308749 L-1205823 308747 L-1205318 308746 L-1205165 308744 L-1204878 308743 L-1204838 308740 L-1204507 308739 L-1204285 308737 L-1203768 308735 L-1203692 308733 L-1203444 308730 L-1203250 308728 L-1203190 308726 L-1202413 308725 L-1202340 308725 L-1202109 308723 L-1202092 308723 L-1202030 308722 L-1201835 308720 L-1201371 308720 L-1201347 308719 L-1201218 308719 L-1199917 308719 L-1199900 308719 L-1199823 308718 L-1199730 308718 L-1199512 308718 L-1199360 308716 L-1199182 308718 L-1199128 308719 L-1198841 308720 L-1198801 308720 L-1198431 308720 L-1197991 308720 L-1197808 308720 L-1197487 308719 L-1197192 308719 L-1196746 308716 L-1196674 308715 L-1196212 308712 L-1195774 308711 L-1195592 308709 L-1194138 308706 L-1194006 308705 L-1193549 308702 L-1193323 308701 L-1192936 308698 L-1192420 308695 L-1191466 308692 L-1190672 308690 L-1189997 308688 L-1189572 308685 L-1189260 308684 L-1189030 308680 L-1188347 308675 L-1188334 308671 L-1188124 308666 L-1188102 308664 L-1187928 308661 L-1186978 308660 L-1186710 308657 L-1185894 308656 L-1185584 308653 L-1185546 308652 L-1185489 308649 L-1184872 308647 L-1184234 308645 L-1182608 308643 L-1181934 308642 L-1181292 308642 L-1181215 308642 L-1181158 308642 L-1181123 308642 L-1181094 308640 L-1180983 308638 L-1180965 308636 L-1180942 308635 L-1180789 308633 L-1180735 308630 L-1180657 308629 L-1180538 308628 L-1180440 308626 L-1180323 308625 L-1180053 308622 L-1179783 308621 L-1179766 308618 L-1179566 308616 L-1179419 308614 L-1179192 308612 L-1179058 308611 L-1178750 308609 L-1178690 308608 L-1178337 308605 L-1177988 308604 L-1177887 308602 L-1177823 308600 L-1177763 308598 L-1177378 308595 L-1176997 308594 L-1176893 308593 L-1176633 308591 L-1176362 308588 L-1176203 308587 L-1176170 308586 L-1176108 308584 L-1175967 308583 L-1175783 308581 L-1175739 308580 L-1175450 308580 L-1175434 308578 L-1175201 308578 L-1175140 308577 L-1175102 308577 L-1174522 308576 L-1174388 308574 L-1174365 308569 L-1174347 308559 L-1174329 308548 L-1174313 308536 L-1174289 308525 L-1174273 308517 L-1174251 308507 L-1174235 308497 L-1174212 308491 L-1174195 308486 L-1174173 308481 L-1174156 308479 L-1174108 308474 L-1174035 308470 L-1174001 308463 L-1173977 308458 L-1173941 308452 L-1173900 308446 L-1173863 308444 L-1173847 308438 L-1173823 308434 L-1173786 308431 L-1173769 308427 L-1173746 308424 L-1173728 308421 L-1173709 308418 L-1173693 308415 L-1173664 308411 L-1173638 308407 L-1173593 308406 L-1173576 308403 L-1173534 308401 L-1173486 308399 L-1173416 308396 L-1173400 308393 L-1173384 308390 L-1173322 308389 L-1173283 308387 L-1173244 308386 L-1173078 308384 L-1173013 308383 L-1172997 308382 L-1172953 308379 L-1172894 308377 L-1172681 308376 L-1172648 308375 L-1172606 308373 L-1172528 308372 L-1171990 308370 L-1171912 308369 L-1171808 308366 L-1171719 308365 L-1171543 308363 L-1171192 308362 L-1171036 308361 L-1170599 308359 L-1170442 308358 L-1170312 308356 L-1169608 308354 L-1169407 308352 L-1168447 308349 L-1167964 308348 L-1167865 308348 L-1167773 308346 L-1167528 308345 L-1167455 308344 L-1167012 308341 L-1166916 308339 L-1166901 308338 L-1166885 308337 L-1166860 308335 L-1166394 308334 L-1166177 308332 L-1166037 308331 L-1165743 308330 L-1165655 308328 L-1165613 308327 L-1165584 308325 L-1165411 308324 L-1165352 308323 L-1165276 308321 L-1165195 308320 L-1165126 308320 L-1164816 308318 L-1164731 308317 L-1164518 308316 L-1164482 308314 L-1163799 308313 L-1163700 308311 L-1163495 308310 L-1163449 308309 L-1163170 308307 L-1163108 308306 L-1163091 308303 L-1163013 308301 L-1162705 308299 L-1162681 308297 L-1162627 308294 L-1162604 308293 L-1162481 308292 L-1162346 308289 L-1162101 308287 L-1161976 308287 L-1161329 308286 L-1161313 308286 L-1161288 308286 L-1161108 308283 L-1161032 308282 L-1160940 308280 L-1160512 308279 L-1160096 308278 L-1159703 308275 L-1159625 308273 L-1159606 308272 L-1159242 308271 L-1159006 308269 L-1158778 308268 L-1158465 308266 L-1158387 308265 L-1158306 308262 L-1158128 308259 L-1158112 308258 L-1157847 308255 L-1157767 308254 L-1157537 308252 L-1157311 308251 L-1156995 308251 L-1156820 308249 L-1156459 308249 L-1156067 308248 L-1155998 308245 L-1155934 308244 L-1155793 308241 L-1155742 308240 L-1155640 308237 L-1155138 308235 L-1154941 308234 L-1154694 308233 L-1154509 308231 L-1154209 308230 L-1154133 308228 L-1153967 308226 L-1153083 308224 L-1153054 308221 L-1152931 308219 L-1152352 308217 L-1152274 308216 L-1151561 308216 L-1151249 308216 L-1151036 308216 L-1151019 308216 L-1150633 308216 L-1150108 308213 L-1149662 308212 L-1149332 308210 L-1149179 308209 L-1148853 308209 L-1148675 308207 L-1148593 308207 L-1148387 308204 L-1148212 308203 L-1147283 308202 L-1146393 308200 L-1146354 308199 L-1146126 308199 L-1145747 308197 L-1144960 308196 L-1144725 308195 L-1144649 308193 L-1144292 308192 L-1143720 308189 L-1143453 308188 L-1143067 308186 L-1142963 308186 L-1142793 308186 L-1142175 308186 L-1141963 308186 L-1141656 308186 L-1141602 308185 L-1141475 308183 L-1141422 308182 L-1141302 308181 L-1140966 308178 L-1140007 308176 L-1139876 308174 L-1139674 308172 L-1139043 308171 L-1138731 308169 L-1138318 308168 L-1138290 308167 L-1138145 308165 L-1137725 308164 L-1136392 308164 L-1136345 308162 L-1136217 308159 L-1136200 308158 L-1135622 308155 L-1135416 308154 L-1135387 308152 L-1135346 308151 L-1135288 308150 L-1135251 308148 L-1135173 308147 L-1135030 308145 L-1134575 308144 L-1134457 308143 L-1134172 308141 L-1133799 308140 L-1133703 308138 L-1133376 308137 L-1133022 308136 L-1132852 308134 L-1132804 308133 L-1132695 308131 L-1132606 308130 L-1132578 308129 L-1132502 308126 L-1132199 308124 L-1132165 308122 L-1132093 308120 L-1131725 308119 L-1131390 308117 L-1131309 308117 L-1131089 308116 L-1130918 308115 L-1130890 308113 L-1130393 308112 L-1129844 308109 L-1128963 308107 L-1128865 308105 L-1128788 308103 L-1128513 308102 L-1128266 308099 L-1128192 308098 L-1128130 308095 L-1128012 308093 L-1127969 308092 L-1127859 308091 L-1127782 308088 L-1127082 308086 L-1126836 308085 L-1126796 308084 L-1126640 308082 L-1126041 308082 L-1125814 308082 L-1125722 308082 L-1125247 308082 L-1124649 308079 L-1124130 308078 L-1124109 308077 L-1123963 308075 L-1123643 308075 L-1123101 308075 L-1122869 308075 L-1122699 308075 L-1122213 308074 L-1121985 308072 L-1121900 308071 L-1121554 308070 L-1121228 308070 L-1120705 308068 L-1120377 308067 L-1119777 308065 L-1119579 308062 L-1119527 308061 L-1119487 308060 L-1119206 308058 L-1118521 308055 L-1118211 308054 L-1118186 308051 L-1117995 308050 L-1117772 308048 L-1117686 308047 L-1117022 308044 L-1116998 308043 L-1116776 308040 L-1116446 308039 L-1116094 308036 L-1115890 308034 L-1115657 308032 L-1115399 308030 L-1115209 308027 L-1115162 308026 L-1114935 308025 L-1114901 308023 L-1114744 308022 L-1114530 308020 L-1114357 308019 L-1114265 308017 L-1113988 308016 L-1113744 308015 L-1113429 308013 L-1113003 308013 L-1112965 308013 L-1112482 308013 L-1112249 308013 L-1112037 308012 L-1111811 308010 L-1111261 308010 L-1111014 308009 L-1110180 308009 L-1110124 308008 L-1110102 308006 L-1109944 308005 L-1109483 308003 L-1109442 308002 L-1109102 307999 L-1108969 307998 L-1108746 307996 L-1108174 307995 L-1107702 307994 L-1107507 307992 L-1107315 307991 L-1107125 307989 L-1107023 307988 L-1106655 307987 L-1106609 307985 L-1106527 307984 L-1105234 307982 L-1105186 307981 L-1104917 307981 L-1104772 307981 L-1104221 307981 L-1104104 307980 L-1104023 307978 L-1103663 307977 L-1103440 307975 L-1103159 307974 L-1102829 307971 L-1102321 307970 L-1102209 307968 L-1102130 307967 L-1101966 307965 L-1101671 307965 L-1101203 307965 L-1101006 307967 L-1100956 307967 L-1100306 307965 L-1100184 307964 L-1099730 307964 L-1099694 307963 L-1099226 307961 L-1099115 307960 L-1099099 307958 L-1098883 307958 L-1098702 307957 L-1098170 307957 L-1097141 307957 L-1096941 307956 L-1096483 307954 L-1095535 307951 L-1095436 307950 L-1095082 307947 L-1095021 307946 L-1095007 307944 L-1094971 307943 L-1094602 307942 L-1094482 307940 L-1094240 307939 L-1094076 307937 L-1093889 307936 L-1093768 307935 L-1092697 307932 L-1091839 307930 L-1091627 307928 L-1091530 307926 L-1091356 307923 L-1091022 307922 L-1090951 307920 L-1090893 307919 L-1090718 307919 L-1090329 307918 L-1090093 307916 L-1089982 307915 L-1089865 307913 L-1088884 307912 L-1088859 307911 L-1088265 307908 L-1088232 307908 L-1088083 307906 L-1087799 307905 L-1086887 307905 L-1085941 307905 L-1085788 307904 L-1085686 307904 L-1085554 307902 L-1085411 307901 L-1085385 307899 L-1085270 307898 L-1085052 307897 L-1084371 307895 L-1084241 307894 L-1083938 307892 L-1083698 307890 L-1083365 307888 L-1082727 307887 L-1082384 307884 L-1082322 307883 L-1082167 307883 L-1081245 307883 L-1080775 307883 L-1080731 307883 L-1080718 307881 L-1080677 307880 L-1080655 307878 L-1080628 307877 L-1080484 307875 L-1080062 307874 L-1079726 307874 L-1079535 307873 L-1079107 307873 L-1078919 307871 L-1078530 307868 L-1077996 307867 L-1077623 307866 L-1077601 307866 L-1077352 307864 L-1077233 307863 L-1077157 307861 L-1077022 307860 L-1076982 307859 L-1076902 307857 L-1076508 307856 L-1076012 307854 L-1075900 307852 L-1075727 307850 L-1075419 307849 L-1074971 307847 L-1074648 307846 L-1074506 307843 L-1074079 307840 L-1073926 307838 L-1073870 307835 L-1073057 307833 L-1073037 307832 L-1072665 307831 L-1072608 307831 L-1071479 307829 L-1071411 307829 L-1070853 307828 L-1070658 307826 L-1070522 307825 L-1070288 307823 L-1069941 307822 L-1069907 307819 L-1069872 307818 L-1069803 307815 L-1069454 307814 L-1069282 307812 L-1068797 307811 L-1068781 307809 L-1068456 307808 L-1068298 307807 L-1067158 307804 L-1067133 307802 L-1066941 307800 L-1066747 307798 L-1066497 307797 L-1066480 307795 L-1065460 307794 L-1065162 307793 L-1065087 307791 L-1064951 307788 L-1064775 307787 L-1064198 307784 L-1063983 307783 L-1063919 307781 L-1063788 307780 L-1063751 307777 L-1063228 307776 L-1063090 308330 L-1063076 308330 L-1063053 308330 L-1063032 308330 L-1062805 307774 L-1062029 307774 L-1061988 307774 L-1061620 307774 L-1061542 307773 L-1061490 307771 L-1060817 307770 L-1060074 307769 L-1059650 307769 L-1059202 307767 L-1058140 307766 L-1057828 307763 L-1057418 307763 L-1057346 307762 L-1056822 307762 L-1056727 307762 L-1056710 307762 L-1056265 307760 L-1056079 307757 L-1055299 307755 L-1054627 307753 L-1054215 307749 L-1053983 307746 L-1053842 307745 L-1053761 307742 L-1053741 307741 L-1053665 307741 L-1053536 307739 L-1053219 307741 L-1052995 307741 L-1052670 307739 L-1052608 307739 L-1052238 307739 L-1052205 307739 L-1051996 307739 L-1051329 307739 L-1051251 307739 L-1051093 307736 L-1050983 307736 L-1050656 307735 L-1050501 307733 L-1050160 307733 L-1050103 307731 L-1049765 307728 L-1049561 307726 L-1049508 307724 L-1048132 307722 L-1048002 307721 L-1047569 307719 L-1047248 307718 L-1046421 307715 L-1046297 307714 L-1045567 307711 L-1045411 307708 L-1045370 307707 L-1045316 307705 L-1045293 307704 L-1045179 307703 L-1044883 307701 L-1044593 307700 L-1044538 307698 L-1044418 307697 L-1044388 307696 L-1044288 307694 L-1043844 307694 L-1043692 307693 L-1042857 307693 L-1042315 307691 L-1041980 307691 L-1041965 307690 L-1041889 307689 L-1041773 307687 L-1041578 307686 L-1041314 307684 L-1040479 307683 L-1040383 307681 L-1039862 307680 L-1039820 307679 L-1039720 307677 L-1038892 307677 L-1038757 307676 L-1038418 307676 L-1037864 307674 L-1037485 307673 L-1037322 307672 L-1037012 307670 L-1036199 307669 L-1035893 307667 L-1035625 307667 L-1035303 307667 L-1034982 307669 L-1034707 307669 L-1033878 307666 L-1033783 307665 L-1033691 307660 L-1033586 307656 L-1033199 307652 L-1032719 307649 L-1032703 307648 L-1032584 307646 L-1032216 307644 L-1032121 307642 L-1031287 307639 L-1031210 307638 L-1030911 307636 L-1030820 307635 L-1030413 307632 L-1030303 307629 L-1029603 307628 L-1029130 307627 L-1029070 307625 L-1028851 307622 L-1028578 307621 L-1028465 307620 L-1027437 307618 L-1027051 307617 L-1027031 307615 L-1026698 307614 L-1026453 307613 L-1026020 307611 L-1025910 307610 L-1025792 307608 L-1025341 307606 L-1024750 307604 L-1024414 307603 L-1022521 307601 L-1022407 307599 L-1022195 307597 L-1020877 307596 L-1020770 307279 L-1020705 306967 L-1020668 306679 L-1020607 306679 L-1020107 306993 L-1019432 307302 L-1019410 307587 L-1019140 307584 L-1018171 307584 L-1017482 307583 L-1017320 307582 L-1016779 307580 L-1016690 307579 L-1015670 307577 L-1014723 307575 L-1014357 307576 L-1014254 307577 L-1013666 307577 L-1013607 307577 L-1013506 307576 L-1013066 307573 L-1012958 307572 L-1012517 307570 L-1011517 307566 L-1011260 307562 L-1011158 307558 L-1011027 307555 L-1010661 307552 L-1010080 307549 L-1010049 307548 L-1009734 307547 L-1007751 307545 L-1007635 307544 L-1007567 307544 L-1007209 307542 L-1005590 307541 L-1005412 307541 L-1005268 307541 L-1004446 307542 L-1004393 307544 L-1004338 307544 L-1003904 307544 L-1002924 307545 L-1002850 307545 L-1001765 307544 L-1001552 307544 L-1000836 307541 L-1000448 307539 L-1000229 307537 L-999909 307534 L-999415 307531 L-999288 307530 L-999059 307527 L-998827 307524 L-998767 307523 L-998478 307521 L-998206 307518 L-997176 307517 L-995511 307516 L-995092 307514 L-994954 307513 L-994798 307513 L-994493 307511 L-994265 307509 L-994106 307507 L-993947 307504 L-993778 307502 L-993730 307500 L-993677 307499 L-993655 307499 L-993269 307497 L-993020 307497 L-992749 307497 L-992588 307497 L-992499 307497 L-990840 307497 L-990675 307499 L-990295 307497 L-989835 307497 L-989225 307494 L-988132 307493 L-987701 307492 L-987670 307490 L-987607 307489 L-987590 307487 L-985886 307486 L-985844 307485 L-985378 307483 L-985191 307482 L-985159 307479 L-984563 307478 L-984514 307476 L-984191 307475 L-984140 307473 L-983930 307472 L-983912 307471 L-983646 307468 L-983593 307466 L-983124 307465 L-982613 307462 L-982535 307462 L-982241 307461 L-982224 307459 L-982186 307458 L-982114 307457 L-981957 307455 L-981011 307455 L-980955 307455 L-980434 307455 L-980241 307454 L-980140 307454 L-979915 307452 L-979405 307452 L-979017 307490 L-978947 307490 L-978599 307489 L-978242 307487 L-977113 307447 L-977061 307444 L-976835 307442 L-976802 307441 L-976677 307438 L-976578 307438 L-976313 307438 L-975573 307440 L-974994 307440 L-974701 307440 L-973995 307440 L-973816 307438 L-973793 307438 L-973157 307437 L-972846 307435 L-972449 307435 L-972420 307434 L-972399 307433 L-972245 307431 L-971560 307431 L-971543 307431 L-971204 307431 L-970931 307430 L-970894 307428 L-970838 307426 L-970816 307424 L-970744 307423 L-970412 307421 L-970306 307420 L-970277 307417 L-970079 307416 L-969926 307414 L-969058 307413 L-968495 307410 L-968479 307410 L-968378 307409 L-968276 307410 L-968129 307410 L-968051 307410 L-968013 307409 L-967958 307407 L-967885 307406 L-967740 307404 L-967258 307404 L-966853 307403 L-965987 307404 L-965967 307404 L-965709 307404 L-965633 307404 L-965604 307403 L-965593 307400 L-965576 307399 L-965283 307397 L-965244 307396 L-965172 307395 L-965098 307393 L-964893 307392 L-964733 307388 L-964432 307383 L-964355 307378 L-964337 307374 L-964121 307371 L-963890 307371 L-963780 307372 L-963410 307374 L-963252 307374 L-963020 307374 L-962852 307374 L-962707 307372 L-962575 307371 L-961299 307368 L-960896 307365 L-960835 307364 L-960718 307361 L-960293 307360 L-960277 307357 L-960215 307355 L-959942 307352 L-959830 307351 L-959547 307348 L-959270 307347 L-958845 307344 L-958823 307343 L-958744 307341 L-958619 307340 L-958032 307338 L-957641 307337 L-957306 307336 L-956716 307334 L-956614 307334 L-956444 307333 L-956308 307333 L-955480 307331 L-954295 307330 L-954258 307329 L-954203 307329 L-953982 307327 L-953777 307327 L-953623 307327 L-953366 307326 L-953290 307324 L-952747 307323 L-952710 307322 L-952462 307320 L-952074 307319 L-951249 307317 L-950890 307316 L-950580 307316 L-950322 307315 L-950098 307313 L-949692 307312 L-949576 307310 L-949392 307309 L-949339 307309 L-949151 307307 L-948980 307306 L-948951 307305 L-948671 307303 L-948360 307302 L-948222 307300 L-947912 307299 L-947718 307299 L-947703 307298 L-946984 307298 L-946850 307295 L-946552 307293 L-946462 307292 L-945861 307292 L-945823 307291 L-945745 307289 L-945124 307288 L-944973 307285 L-944932 307284 L-944621 307282 L-944430 307281 L-944237 307278 L-944181 307275 L-943872 307274 L-943820 307272 L-943766 307274 L-943740 307274 L-943615 307274 L-942804 307272 L-942728 307271 L-942187 307270 L-941918 307268 L-941259 307267 L-940351 307265 L-940110 307264 L-939578 307262 L-939361 307261 L-938253 307262 L-938203 307262 L-937427 307262 L-936880 307261 L-936768 307260 L-936616 307257 L-936560 307255 L-936395 307254 L-936018 307253 L-935570 307251 L-935516 307250 L-935361 307248 L-934681 307247 L-934461 307246 L-933943 307244 L-933094 307241 L-933078 307240 L-931287 307239 L-930733 307237 L-930616 307236 L-929610 307234 L-929573 307233 L-929340 307233 L-929248 307233 L-929208 307233 L-928876 307232 L-928524 307230 L-928259 307227 L-927972 307226 L-927661 307223 L-927407 307220 L-927314 307219 L-926823 307218 L-926616 307216 L-926051 307215 L-925936 307216 L-925585 307215 L-925534 307215 L-925493 307215 L-924890 307212 L-924156 307209 L-923575 307206 L-923339 307203 L-922799 307199 L-922647 307196 L-922145 307195 L-921936 307192 L-921912 307192 L-921853 307191 L-920891 307191 L-920713 307189 L-920271 307188 L-920247 307185 L-920092 307184 L-920010 307184 L-919860 307185 L-919213 307185 L-919164 307184 L-918044 307182 L-917059 307181 L-916998 307180 L-916277 307178 L-915412 307177 L-915034 307175 L-914815 307175 L-914055 307174 L-914003 307173 L-913694 307170 L-912843 307170 L-912649 307168 L-912473 307167 L-912248 307167 L-912122 307165 L-911930 307165 L-911697 307164 L-911528 307165 L-911241 307164 L-910962 307164 L-910879 307163 L-910708 307161 L-910692 307158 L-910538 307157 L-910498 307156 L-909723 307154 L-909646 307154 L-909414 307151 L-908987 307150 L-908642 307149 L-908059 307147 L-907790 307147 L-907531 307147 L-907402 307144 L-907385 307143 L-907272 307142 L-907248 307140 L-907014 307139 L-906978 307137 L-905662 307137 L-905606 307136 L-904927 307133 L-904354 307133 L-904229 307133 L-904076 307133 L-903999 307133 L-903687 307130 L-903414 307129 L-903325 307126 L-903223 307126 L-902295 307125 L-902219 307125 L-901855 307125 L-901830 307123 L-901794 307122 L-901018 307119 L-900926 307118 L-900786 307116 L-900385 307115 L-900123 307115 L-899880 307116 L-899665 307115 L-899585 307115 L-899509 307115 L-899432 307115 L-899245 307116 L-899179 307116 L-898929 307116 L-898874 307115 L-898737 307113 L-898657 307111 L-898544 307109 L-898321 307108 L-898156 307106 L-898115 307105 L-897946 307104 L-897575 307102 L-897560 307101 L-897444 307099 L-896723 307098 L-896687 307097 L-896554 307097 L-896206 307095 L-895795 307095 L-895759 307095 L-895681 307094 L-895642 307092 L-895278 307091 L-895073 307090 L-895058 307088 L-894713 307087 L-894365 307087 L-894039 307087 L-893937 307085 L-893784 307085 L-893590 307084 L-893358 307084 L-893266 307084 L-893110 307084 L-893033 307084 L-892992 307083 L-892879 307081 L-892855 307080 L-892605 307080 L-892466 307077 L-891888 307073 L-891060 307070 L-890572 307067 L-890451 307066 L-890412 307064 L-890399 307063 L-890247 307060 L-890146 307057 L-889913 307056 L-889523 307053 L-889219 307052 L-889203 307050 L-889032 307049 L-888794 307046 L-888197 307046 L-887594 307045 L-887554 307045 L-887514 307045 L-887360 307043 L-887307 307042 L-887245 307040 L-887177 307039 L-887122 307036 L-887097 307035 L-887050 307033 L-886955 307031 L-886818 307029 L-886665 307028 L-886533 307026 L-886492 307026 L-886456 307025 L-886394 307023 L-886121 307021 L-885807 307019 L-885766 307016 L-885681 307015 L-885503 307014 L-885266 307012 L-884908 307011 L-884878 307009 L-884309 307008 L-884186 307007 L-883950 307005 L-883928 307005 L-883646 307004 L-883361 307004 L-883105 307004 L-882533 307002 L-882237 307001 L-882161 307000 L-881462 306998 L-881384 306997 L-881349 306995 L-881323 306994 L-881271 306991 L-881077 306990 L-880937 306987 L-880901 306986 L-880861 306984 L-880265 306983 L-880033 306981 L-879750 306991 L-879695 307000 L-879621 307009 L-879543 307018 L-879307 307015 L-879063 307014 L-878928 307012 L-878821 307011 L-878741 307009 L-878354 307007 L-878227 307005 L-878075 307004 L-878037 307002 L-877891 307001 L-877670 307000 L-877496 306998 L-877427 306997 L-876605 306994 L-876589 306994 L-876294 306993 L-875507 306991 L-875197 306991 L-875051 306990 L-874823 306988 L-874622 306986 L-873685 306984 L-873648 306983 L-873625 306981 L-873585 306978 L-873316 306977 L-872720 306976 L-872656 306974 L-872620 306973 L-872603 306971 L-871908 306971 L-871707 306971 L-871675 306971 L-871342 306971 L-871234 306970 L-870609 306967 L-870105 306966 L-870068 306963 L-869626 306963 L-869529 306962 L-869371 306962 L-869057 306962 L-869045 306962 L-868605 306963 L-868123 306964 L-867994 306964 L-867674 306964 L-867606 306963 L-867301 306963 L-867126 306962 L-866932 306960 L-866689 306957 L-866492 306955 L-866466 306952 L-865888 306950 L-865818 306949 L-865408 306948 L-865354 306946 L-865308 306945 L-864944 306943 L-864797 306942 L-864592 306941 L-864496 306941 L-864341 306939 L-864279 306938 L-864131 306935 L-864031 306934 L-863474 306934 L-863452 306936 L-863280 306938 L-862738 306939 L-862677 306939 L-862623 306936 L-862594 306934 L-862523 306932 L-862507 306929 L-862443 306928 L-862407 306925 L-862252 306924 L-861926 306922 L-861360 306921 L-861346 306919 L-861284 306917 L-861182 306914 L-861136 306914 L-860894 306912 L-860471 306912 L-860317 306912 L-858575 306910 L-858033 306908 L-857090 306907 L-856681 306905 L-856140 306903 L-855943 306901 L-855775 306900 L-855479 306898 L-855364 306897 L-855349 306897 L-855194 306896 L-855054 306894 L-854978 306891 L-854846 306891 L-854498 306891 L-854127 306893 L-853529 306893 L-853353 306893 L-853197 306891 L-852928 306890 L-852777 306890 L-852486 306894 L-852462 306897 L-852379 306900 L-852151 306903 L-851452 306901 L-851325 306900 L-850894 306898 L-850800 306897 L-849595 306897 L-849546 306896 L-849252 306896 L-848849 306894 L-848573 306891 L-848554 306890 L-848436 306889 L-848360 306887 L-848178 306886 L-847698 306884 L-847247 306881 L-846837 306880 L-846806 306879 L-846388 306877 L-846274 306877 L-846156 306877 L-846141 306877 L-845946 306876 L-845925 306873 L-845693 306872 L-845249 306870 L-844930 306867 L-844465 306867 L-844300 306866 L-844145 306865 L-843989 306865 L-843536 306865 L-843217 306865 L-843162 306866 L-842791 306866 L-842753 306867 L-842426 306867 L-842310 306866 L-842211 306865 L-841885 306862 L-841498 306860 L-841237 306859 L-840879 306856 L-840622 306855 L-838452 306853 L-838403 306852 L-838380 306851 L-837969 306851 L-837907 306851 L-837837 306852 L-837606 306852 L-837295 306851 L-836992 306848 L-836948 306846 L-836640 306845 L-836507 306844 L-836290 306842 L-835578 306841 L-835423 306841 L-835285 306839 L-835136 306839 L-835115 306839 L-834921 306838 L-834895 306836 L-834804 306835 L-834782 306834 L-834766 306832 L-834666 306831 L-833737 306829 L-833279 306829 L-832187 306827 L-831765 306827 L-831361 306825 L-831322 306824 L-831069 306822 L-830294 306820 L-830278 306818 L-830253 306817 L-830060 306815 L-829324 306814 L-829055 306813 L-829014 306811 L-828615 306808 L-828590 306807 L-827801 306806 L-827121 306804 L-825750 306803 L-825480 306801 L-825431 306800 L-824894 306797 L-824861 306796 L-824759 306793 L-824436 306792 L-824356 306790 L-824087 306790 L-823174 306789 L-823036 306789 L-822787 306786 L-822242 306786 L-821819 306784 L-821626 306783 L-821611 306783 L-821473 306780 L-821379 306779 L-821252 306777 L-820992 306776 L-820967 306773 L-820876 306772 L-820566 306770 L-820505 306769 L-820388 306769 L-820039 306769 L-819228 306769 L-818997 306766 L-818168 306766 L-817936 306763 L-817719 306762 L-817200 306762 L-816562 306761 L-816146 306759 L-815824 306758 L-815343 306756 L-814918 306756 L-814856 306755 L-814508 306755 L-814467 306754 L-814453 306752 L-814354 306749 L-814308 306749 L-813823 306748 L-813022 306748 L-812687 306748 L-811606 306747 L-811126 306745 L-811103 306744 L-810963 306742 L-810408 306741 L-809711 306739 L-809402 306738 L-809180 306737 L-809075 306735 L-808973 306732 L-808301 306731 L-808208 306730 L-808185 306730 L-808108 306728 L-807930 306728 L-807758 306728 L-807577 306727 L-807564 306725 L-807488 306724 L-807323 306723 L-806809 306721 L-806793 306720 L-806652 306720 L-806290 306718 L-806265 306718 L-806135 306717 L-806110 306716 L-805748 306714 L-805223 306711 L-805129 306710 L-804913 306707 L-804820 306706 L-804795 306704 L-804331 306703 L-804254 306703 L-803852 306702 L-803401 306702 L-802150 306700 L-802111 306699 L-801679 306697 L-801647 306696 L-800928 306694 L-800751 306693 L-800616 306692 L-800309 306690 L-800254 306689 L-800229 306686 L-800213 306683 L-800038 306682 L-799849 306680 L-799341 306680 L-798967 306669 L-798629 306657 L-798590 306645 L-797871 306635 L-797778 306634 L-797739 306633 L-797198 306633 L-797174 306631 L-796772 306630 L-796346 306628 L-796075 306628 L-795896 306627 L-795650 306624 L-795626 306623 L-795570 306620 L-794953 306619 L-794450 306617 L-794063 306617 L-793444 306619 L-793228 306619 L-793073 306620 L-791781 306617 L-791681 306616 L-791239 306613 L-790908 306612 L-790607 306609 L-790365 306607 L-789630 306605 L-789051 306603 L-788221 306602 L-788121 306600 L-787563 306599 L-787425 306597 L-785784 306596 L-785723 306596 L-785629 306596 L-784662 306596 L-784484 306595 L-784197 306595 L-783980 306595 L-783901 306593 L-783630 306593 L-783515 306592 L-783362 306590 L-783051 306589 L-782973 306588 L-782882 306588 L-782805 306586 L-782689 306586 L-782509 306585 L-782417 306583 L-782379 306582 L-781876 306582 L-781658 306581 L-781528 306581 L-781373 306579 L-781318 306578 L-781194 306578 L-780809 306576 L-780300 306575 L-780228 306574 L-779748 306572 L-779671 306571 L-779570 306571 L-779337 306569 L-778872 306569 L-778642 306569 L-778626 306569 L-778394 306569 L-778239 306569 L-778178 306569 L-777985 306568 L-777714 306565 L-776962 306564 L-776009 306564 L-775973 306562 L-775748 306562 L-775308 306562 L-775028 306560 L-774679 306558 L-773610 306557 L-772682 306557 L-772551 306557 L-772505 306557 L-772436 306555 L-772281 306555 L-772203 306552 L-772030 306550 L-771595 306547 L-771391 306545 L-771331 306543 L-770748 306541 L-770594 306538 L-770478 306537 L-770438 306536 L-770268 306534 L-770131 306533 L-769921 306530 L-769843 306529 L-769820 306527 L-769611 306524 L-769201 306523 L-769177 306522 L-768953 306520 L-768808 306519 L-768773 306517 L-768760 306516 L-768737 306515 L-768504 306513 L-768319 306512 L-768101 306510 L-768076 306509 L-767387 306507 L-767283 306506 L-767248 306505 L-767227 306503 L-767033 306502 L-766980 306500 L-766863 306498 L-766781 306498 L-766670 306496 L-766356 306495 L-765896 306493 L-765641 306492 L-765407 306489 L-765277 306488 L-764925 306486 L-764866 306485 L-764713 306484 L-764141 306481 L-764054 306479 L-763901 306477 L-763605 306474 L-763235 306471 L-762932 306468 L-762855 306467 L-762451 306465 L-762283 306465 L-762139 306465 L-761598 306465 L-761538 306465 L-761522 306463 L-761356 306461 L-761150 306460 L-761075 306460 L-760982 306458 L-760573 306457 L-760557 306455 L-760533 306455 L-760340 306454 L-760264 306467 L-760093 306479 L-760031 306491 L-760015 306503 L-759501 306502 L-759280 306500 L-758661 306498 L-758407 306496 L-758213 306495 L-758174 306493 L-758100 306493 L-758035 306493 L-757385 306493 L-757346 306495 L-757172 306495 L-757106 306495 L-756432 306495 L-756043 306492 L-755781 306491 L-755543 306489 L-755466 306486 L-755450 306484 L-755248 306482 L-754877 306479 L-754652 306478 L-754016 306477 L-753996 306477 L-753609 306475 L-753515 306475 L-753457 306474 L-753181 306472 L-752872 306472 L-752795 306471 L-751943 306472 L-751601 306479 L-751164 306488 L-750730 306495 L-750235 306502 L-750085 306500 L-749817 306502 L-748579 306503 L-748522 306506 L-746758 306507 L-746568 306506 L-745558 306505 L-745407 306503 L-745031 306506 L-744711 306509 L-744105 306512 L-744035 306515 L-743858 306513 L-743030 306512 L-742891 306510 L-742504 306509 L-742320 306507 L-742276 306506 L-742156 306505 L-741946 306503 L-741499 306500 L-741151 306499 L-741019 306498 L-740610 306496 L-740259 306496 L-739974 306495 L-739781 306493 L-739626 306493 L-739462 306492 L-739394 306491 L-739294 306491 L-739061 306489 L-738944 306489 L-738891 306488 L-738349 306488 L-737885 306486 L-736703 306486 L-736569 306486 L-736545 306486 L-736492 306486 L-735824 306486 L-734790 306484 L-734596 306482 L-734416 306481 L-734265 306481 L-734224 306479 L-734209 306479 L-734148 306478 L-733822 306477 L-732662 306475 L-732468 306474 L-732291 306472 L-731177 306471 L-730317 306470 L-730211 306470 L-729737 306468 L-729545 306468 L-727223 306467 L-727145 306465 L-727024 306463 L-726990 306461 L-726953 306458 L-726858 306454 L-726642 306451 L-726061 306448 L-725675 306447 L-724902 306446 L-724824 306444 L-724127 306444 L-723585 306444 L-723544 306443 L-723414 306443 L-722950 306441 L-722912 306440 L-722777 306439 L-722409 306437 L-722379 306436 L-722229 306436 L-721828 306434 L-720004 306436 L-719197 306434 L-718479 306434 L-718462 306434 L-718148 306432 L-717587 306430 L-717085 306429 L-716566 306427 L-716545 306426 L-714801 306425 L-714632 306423 L-714436 306422 L-713543 306420 L-713024 306418 L-712814 306416 L-712556 306415 L-711846 306413 L-710896 306412 L-710238 306410 L-710198 306408 L-709912 306406 L-709829 306405 L-709734 306405 L-709602 306403 L-709525 306403 L-708790 306403 L-708452 306402 L-708403 306403 L-708148 306403 L-707861 306402 L-707436 306402 L-706855 306401 L-706596 306401 L-706445 306399 L-706197 306399 L-706159 306399 L-705362 306398 L-705324 306396 L-705147 306396 L-704738 306394 L-704509 306394 L-704433 306394 L-704302 306394 L-704186 306392 L-703837 306391 L-703774 306389 L-703622 306388 L-702881 306387 L-702769 306385 L-702599 306384 L-702560 306382 L-702266 306382 L-701864 306382 L-701688 306382 L-701593 306382 L-701284 306381 L-700482 306380 L-700024 306377 L-699504 306375 L-699015 306374 L-698320 306373 L-697273 306371 L-697005 306371 L-696950 306370 L-696790 306370 L-696539 306370 L-696293 306368 L-696214 306367 L-695999 306364 L-695687 306363 L-695224 306360 L-695209 306358 L-694913 306358 L-694900 306357 L-693909 306356 L-693236 306354 L-692901 306351 L-692285 306351 L-692148 306350 L-691509 306349 L-691379 306347 L-690428 306344 L-690329 306342 L-689769 306340 L-689361 306340 L-688932 306340 L-688841 306339 L-688006 306339 L-687643 306339 L-687603 306340 L-687471 306342 L-687294 306342 L-687078 306342 L-687024 306340 L-686867 306337 L-686614 306336 L-685514 306335 L-685437 306333 L-685217 306332 L-685086 306329 L-685050 306328 L-684857 306326 L-684757 306325 L-684273 306323 L-683989 306322 L-683829 306321 L-683734 306318 L-683463 306316 L-683193 306315 L-683177 306309 L-683038 306305 L-682900 306301 L-682573 306295 L-682264 306292 L-682223 306291 L-682147 306288 L-682032 306287 L-681182 306284 L-680855 306283 L-680524 306281 L-680391 306281 L-680175 306281 L-680159 306281 L-679478 306281 L-679385 306278 L-679362 306277 L-679346 306274 L-679307 306273 L-678896 306270 L-678626 306268 L-678586 306267 L-678218 306267 L-678008 306266 L-676925 306266 L-676909 306264 L-676880 306263 L-676860 306263 L-676483 306260 L-676228 306259 L-675980 306256 L-675841 306253 L-675709 306252 L-675377 306250 L-675284 306249 L-675223 306247 L-674665 306246 L-674604 306245 L-674448 306243 L-674254 306242 L-674061 306240 L-674046 306239 L-674007 306238 L-673968 306236 L-673697 306235 L-673574 306233 L-673542 306232 L-673442 306232 L-673287 306232 L-673146 306232 L-672862 306231 L-672536 306231 L-671840 306229 L-671817 306229 L-671308 306229 L-670462 306229 L-670099 306228 L-669944 306226 L-669341 306226 L-669171 306226 L-669110 306226 L-669055 306225 L-667999 306223 L-667981 306223 L-667075 306223 L-667053 306223 L-666886 306222 L-666644 306222 L-666594 306221 L-666539 306218 L-666402 306216 L-666362 306215 L-665434 306214 L-665379 306214 L-665257 306214 L-665185 306214 L-665069 306214 L-664891 306215 L-663908 306214 L-663769 306214 L-663651 306211 L-663357 306208 L-663110 306207 L-663073 306205 L-663018 306207 L-662997 306207 L-662864 306207 L-662785 306207 L-662647 306205 L-662024 306205 L-661858 306204 L-661393 306204 L-661217 306201 L-661200 306200 L-661140 306198 L-661024 306197 L-660541 306195 L-659845 306194 L-659473 306193 L-659303 306191 L-658337 306190 L-658182 306188 L-658004 306188 L-657912 306187 L-657657 306187 L-657486 306187 L-656839 306186 L-656828 306186 L-656248 306184 L-656110 306184 L-656055 306181 L-655319 306180 L-655281 306179 L-655203 306179 L-654561 306177 L-653787 306177 L-653694 306176 L-653646 306176 L-653630 306174 L-653594 306174 L-653578 306171 L-653515 306170 L-653499 306169 L-653479 306169 L-653324 306167 L-653285 306166 L-653269 306164 L-653230 306163 L-653090 306162 L-653014 306160 L-652650 306159 L-652302 306157 L-651528 306156 L-650926 306155 L-650729 306153 L-650499 306153 L-650361 306152 L-649723 306152 L-649434 306150 L-649412 306150 L-648952 306149 L-648719 306149 L-648664 306148 L-648626 306146 L-648123 306145 L-647573 306143 L-646785 306142 L-645662 306142 L-644767 306141 L-644680 306141 L-644380 306139 L-644308 306138 L-644193 306136 L-643016 306135 L-642668 306134 L-642645 306132 L-642126 306131 L-641979 306129 L-641871 306128 L-641662 306126 L-641507 306125 L-641484 306124 L-641291 306122 L-641214 306121 L-641070 306119 L-640269 306118 L-640123 306117 L-639843 306115 L-639666 306114 L-639356 306112 L-638545 306111 L-637616 306111 L-636024 306110 L-635781 306108 L-635140 306107 L-634944 306105 L-634867 306104 L-634349 306103 L-634117 306103 L-634094 306101 L-633962 306101 L-633623 306100 L-633612 306098 L-633396 306097 L-633359 306096 L-632817 306094 L-632288 306091 L-632221 306090 L-631927 306089 L-631380 306086 L-631344 306084 L-631292 306083 L-631192 306080 L-630960 306080 L-630380 306080 L-630282 306081 L-630208 306081 L-629876 306080 L-629126 306079 L-629087 306077 L-628407 306077 L-628253 306077 L-627926 306076 L-627711 306074 L-627479 306074 L-627183 306073 L-626936 306072 L-626585 306070 L-626532 306069 L-625773 306067 L-625079 306065 L-624729 306062 L-624265 306060 L-623632 306059 L-623223 306058 L-623145 306059 L-622719 306059 L-622076 306058 L-621907 306058 L-621165 306056 L-620978 306055 L-620683 306053 L-620111 306052 L-620085 306051 L-619066 306051 L-618579 306049 L-618486 306049 L-618425 306048 L-618137 306046 L-617851 306045 L-617789 306044 L-617610 306044 L-616898 306042 L-616723 306041 L-616524 306039 L-616372 306038 L-616281 306037 L-616219 306035 L-615677 306035 L-615367 306034 L-615275 306031 L-615197 306028 L-614630 306027 L-614539 306027 L-614285 306024 L-613958 306021 L-613921 306017 L-613766 306013 L-613534 306011 L-613212 306010 L-612079 306008 L-611880 306007 L-611354 306006 L-611110 306006 L-610864 306004 L-610784 306003 L-610764 306000 L-610687 305999 L-610632 305996 L-610555 305994 L-610516 305993 L-610337 305990 L-610300 305989 L-610068 305987 L-608830 305986 L-608504 305984 L-608464 305982 L-607682 305980 L-607536 305979 L-606544 305977 L-606337 305977 L-605912 305977 L-605784 305977 L-605380 305979 L-605292 305977 L-604635 305976 L-603928 305975 L-603319 305973 L-603126 305972 L-602893 305969 L-602275 305968 L-601979 305965 L-601539 305963 L-601385 305962 L-601230 305961 L-600474 305958 L-600123 305956 L-599721 305956 L-599683 305955 L-598677 305955 L-598357 305955 L-598110 305954 L-597410 305951 L-597337 305949 L-597024 305948 L-595944 305947 L-595753 305945 L-595519 305945 L-595324 305944 L-594824 305942 L-594070 305942 L-593956 305942 L-593756 305942 L-593715 305941 L-593622 305939 L-593309 305938 L-593221 305937 L-593105 305935 L-592787 305935 L-592718 305934 L-592693 305932 L-592331 305931 L-592293 305930 L-592076 305928 L-591573 305930 L-590971 305931 L-590759 305934 L-590606 305935 L-590568 305935 L-590524 305932 L-590490 305931 L-590357 305930 L-589947 305928 L-589577 305927 L-589523 305925 L-589507 305924 L-589428 305923 L-589018 305921 L-588865 305920 L-588849 305917 L-588810 305916 L-588631 305913 L-588555 305911 L-588324 305910 L-587534 305909 L-587456 305909 L-586721 305906 L-586566 305904 L-586326 305902 L-586264 305899 L-586179 305897 L-586156 305895 L-586038 305892 L-586024 305889 L-585962 305886 L-585925 305885 L-585831 305883 L-585808 305883 L-585692 305882 L-585460 305880 L-585289 305878 L-584469 305878 L-584068 305876 L-583913 305876 L-583408 305876 L-583294 305876 L-582698 305876 L-582323 305875 L-582271 305875 L-582078 305873 L-581381 305873 L-581343 305872 L-581198 305872 L-580973 305871 L-580711 305869 L-580337 305868 L-579911 305866 L-579782 305865 L-579762 305862 L-579269 305862 L-578572 305861 L-578341 305862 L-578187 305862 L-577219 305862 L-576994 305864 L-576716 305864 L-576700 305862 L-576174 305861 L-575645 305859 L-575497 305858 L-575478 305857 L-574936 305855 L-574626 305854 L-574509 305851 L-574317 305848 L-574180 305845 L-573853 305844 L-573737 305842 L-573427 305842 L-573001 305841 L-572945 305841 L-572712 305842 L-572616 305842 L-572483 305842 L-572187 305842 L-572073 305841 L-571708 305840 L-571395 305840 L-570912 305838 L-570742 305837 L-570494 305835 L-570278 305834 L-569752 305833 L-569566 305830 L-569210 305828 L-568575 305827 L-568420 305824 L-567680 305823 L-567260 305821 L-567080 305820 L-567004 305820 L-566873 305819 L-566579 305817 L-566538 305816 L-566308 305816 L-566116 305814 L-565860 305814 L-565434 305813 L-565325 305812 L-564706 305812 L-564525 305812 L-563313 305812 L-562666 305813 L-562515 305813 L-562478 305813 L-562346 305813 L-562245 305812 L-562229 305810 L-562147 305809 L-561936 305807 L-561819 305806 L-561456 305805 L-561085 305803 L-560388 305802 L-559986 305800 L-559881 305799 L-559863 305797 L-558918 305796 L-558723 305793 L-558571 305792 L-558515 305789 L-557759 305789 L-557742 305792 L-557253 305793 L-557123 305796 L-556930 305796 L-556040 305795 L-556000 305793 L-555962 305792 L-555885 305790 L-555846 305790 L-555769 305789 L-555685 305788 L-555421 305786 L-555189 305785 L-555127 305783 L-554646 305782 L-554309 305782 L-554198 305781 L-554005 305779 L-553828 305778 L-553769 305778 L-553733 305776 L-553463 305775 L-552765 305772 L-552712 305769 L-552418 305767 L-552016 305764 L-551452 305762 L-550579 305761 L-550274 305760 L-550236 305758 L-550113 305757 L-549515 305755 L-549385 305754 L-549185 305753 L-549148 305751 L-548534 305750 L-548355 305748 L-548340 305745 L-548122 305744 L-548044 305741 L-547737 305741 L-547605 305740 L-547373 305740 L-547039 305740 L-546947 305738 L-546846 305737 L-546809 305736 L-546266 305736 L-546073 305734 L-545532 305733 L-545106 305731 L-544974 305731 L-544913 305731 L-544681 305731 L-544665 305731 L-544177 305733 L-544096 305733 L-544079 305733 L-542686 305734 L-542550 305734 L-542436 305733 L-541802 305731 L-541662 305730 L-541544 305729 L-541391 305726 L-541354 305724 L-541275 305723 L-541221 305724 L-540229 305724 L-540193 305723 L-540060 305723 L-539999 305720 L-539900 305719 L-539610 305717 L-539596 305716 L-539286 305716 L-539186 305717 L-538721 305716 L-538668 305865 L-538525 306013 L-538397 306162 L-538165 306311 L-537596 306309 L-537507 306308 L-537485 306308 L-537198 306306 L-536515 306305 L-536438 306304 L-536401 306302 L-536385 306301 L-536186 306299 L-535765 306297 L-535494 306297 L-534621 306295 L-534328 306295 L-534217 306295 L-533483 306294 L-533356 306292 L-532997 306291 L-532744 306291 L-531873 306290 L-531703 306290 L-531642 306288 L-531587 306287 L-531239 306285 L-531216 306284 L-531007 306283 L-530867 306281 L-530736 306280 L-530613 306278 L-530490 306277 L-530253 306276 L-529962 306274 L-529303 306273 L-529281 306271 L-529127 306270 L-529009 306268 L-528045 306267 L-527989 306266 L-527756 306264 L-527734 306263 L-527408 306261 L-527293 306261 L-527253 306260 L-526751 306260 L-526452 306259 L-526340 306257 L-525798 306256 L-524739 306254 L-524113 306253 L-523941 306252 L-523694 306250 L-523437 306249 L-523307 306247 L-523285 306246 L-522618 306245 L-521721 306243 L-521675 306242 L-521605 306240 L-521489 306240 L-521269 306239 L-521078 306239 L-521039 306238 L-520846 306236 L-520187 306236 L-519570 306235 L-519531 306243 L-518935 306252 L-518873 306259 L-517751 306266 L-517697 306266 L-517576 306264 L-517310 306263 L-517247 306263 L-516977 306263 L-516901 306261 L-516685 306261 L-516203 306260 L-515933 306259 L-515801 306259 L-515569 306256 L-515544 306252 L-515529 306246 L-515507 306239 L-515491 306232 L-515467 306225 L-515453 306216 L-515430 306208 L-515414 306200 L-515391 306193 L-515376 306186 L-515354 306179 L-515337 306174 L-515309 306170 L-515291 306164 L-515274 306162 L-515237 306157 L-515197 306155 L-515182 306152 L-515157 306148 L-515105 306145 L-515080 306142 L-515004 306139 L-514966 306138 L-514950 306135 L-514887 306132 L-514873 306129 L-514827 306125 L-514756 306122 L-514718 306121 L-514693 306118 L-514641 306115 L-514616 306114 L-514600 306112 L-514539 306111 L-514502 306110 L-514425 306108 L-514409 306107 L-514381 306104 L-514308 306103 L-514269 306101 L-514115 306098 L-513999 306097 L-513944 306096 L-513862 306094 L-513829 306093 L-513805 306091 L-513650 306090 L-513635 306089 L-513534 306087 L-513223 306086 L-513187 306084 L-512971 306083 L-512860 306083 L-512836 306083 L-512606 306084 L-512373 306084 L-511998 306083 L-511871 306081 L-511831 306080 L-511778 306079 L-511677 306077 L-511640 306076 L-511430 306076 L-511365 306074 L-511253 306074 L-511041 306073 L-511004 306072 L-510632 306070 L-510578 306069 L-510500 306067 L-510478 306066 L-510385 306065 L-510185 306063 L-510147 306063 L-510126 306063 L-509896 306063 L-509875 306062 L-509665 306062 L-509571 306060 L-509533 306059 L-509197 306058 L-509084 306056 L-509044 306055 L-509031 306055 L-508891 306053 L-508876 306053 L-508621 306053 L-508039 306052 L-507962 306051 L-507925 306049 L-507880 306048 L-507831 306046 L-507652 306045 L-507637 306044 L-507537 306042 L-507460 306041 L-507399 306039 L-507034 306037 L-506951 306035 L-506934 306034 L-506880 306032 L-505912 306031 L-505780 306029 L-505759 306028 L-505538 306027 L-505470 306025 L-505447 306024 L-505201 306022 L-504944 306021 L-504813 306020 L-504774 306018 L-504753 306015 L-504697 306013 L-504609 306011 L-504548 306008 L-504323 306007 L-504194 306006 L-504094 306004 L-504039 306003 L-503846 306001 L-503768 306000 L-503435 305999 L-503304 305997 L-503127 305996 L-503111 305994 L-503086 305993 L-502816 305993 L-501616 305992 L-501579 305992 L-501462 305990 L-501229 305989 L-501038 305987 L-500999 305987 L-500944 305986 L-500839 305986 L-500325 305984 L-500031 305983 L-499799 305982 L-499524 305980 L-499507 305979 L-499474 305977 L-499434 305976 L-499397 305975 L-499295 305973 L-499218 305972 L-499125 305970 L-498998 305969 L-498894 305968 L-498716 305968 L-498523 305966 L-497694 305966 L-497578 305965 L-497324 305963 L-497283 305962 L-497184 305961 L-497124 305961 L-496882 305959 L-496858 305959 L-496737 305958 L-496665 305956 L-496626 305955 L-496394 305954 L-496218 305952 L-495698 305951 L-495621 305949 L-495605 305948 L-495194 305948 L-494831 305948 L-494715 305947 L-494692 305947 L-494652 305945 L-494576 305944 L-494522 305942 L-494173 305941 L-494057 305939 L-493880 305939 L-493825 305938 L-493801 305938 L-493687 305937 L-493399 305935 L-493167 305934 L-492952 305932 L-492742 305931 L-492532 305928 L-491705 305927 L-491366 305925 L-490358 305924 L-489995 305923 L-488950 305921 L-488872 305920 L-488425 305918 L-488214 305917 L-488022 305916 L-487727 305914 L-487686 305913 L-487533 305911 L-487480 305909 L-487248 305907 L-486668 305906 L-486474 305904 L-485855 305904 L-485366 305903 L-485314 305902 L-484665 305900 L-484515 305899 L-484346 305897 L-483972 305896 L-483957 305896 L-483858 305895 L-483819 305895 L-483688 305893 L-483255 305893 L-482952 305893 L-482566 305893 L-482426 305892 L-482265 305892 L-481831 305892 L-481792 305890 L-481691 305890 L-481576 305889 L-481398 305889 L-481228 305887 L-481110 305886 L-480748 305883 L-480531 305882 L-480398 305880 L-480258 305880 L-479759 305880 L-479681 305880 L-479447 305879 L-479123 305879 L-478736 305878 L-478713 305876 L-478093 305876 L-477823 305875 L-477590 305875 L-477165 305873 L-476894 305872 L-476752 305871 L-476543 305869 L-476337 305868 L-475786 305866 L-475655 305866 L-475269 305865 L-474998 305865 L-474895 305864 L-474635 305862 L-474433 305861 L-474364 305859 L-474325 305858 L-473758 305857 L-473551 305855 L-473524 305854 L-473295 305852 L-473218 305851 L-472701 305850 L-472662 305848 L-472507 305847 L-472213 305845 L-471941 305844 L-471578 305842 L-471230 305842 L-470857 305841 L-470737 305841 L-470665 305840 L-470186 305838 L-470123 305837 L-469788 305835 L-469657 305834 L-469579 305833 L-469450 305831 L-468986 305831 L-468692 305830 L-468616 305830 L-468304 305828 L-467996 305827 L-467933 305826 L-467903 305824 L-467128 305823 L-467023 305820 L-466936 305819 L-466913 305817 L-466758 305816 L-466537 305814 L-466370 305813 L-465983 305812 L-465928 305810 L-465865 305810 L-465247 305809 L-465131 305807 L-464807 305806 L-464282 305805 L-463931 305803 L-463855 305802 L-463236 305800 L-462825 305799 L-462524 305797 L-462213 305796 L-462075 305795 L-461451 305795 L-461070 305793 L-459946 305793 L-458886 305792 L-458823 305790 L-458462 305789 L-458361 305789 L-458345 305788 L-457971 305788 L-456966 305785 L-456579 305783 L-456372 305781 L-456283 305779 L-455908 305778 L-455615 305776 L-455304 305775 L-454515 305774 L-454427 305772 L-454375 305771 L-454336 305769 L-453818 305768 L-453703 305767 L-453494 305765 L-453355 305764 L-452751 305762 L-451922 305761 L-451639 305760 L-451457 305760 L-450956 305758 L-450751 305758 L-450196 305758 L-449691 305757 L-449500 305755 L-449462 305754 L-448833 305753 L-448379 305751 L-447965 305750 L-447356 305748 L-446236 305748 L-445823 305747 L-445498 305747 L-445284 305745 L-444857 305744 L-444717 305743 L-444625 305741 L-444394 305740 L-443807 305740 L-443000 305738 L-441800 305738 L-441686 305738 L-441554 305737 L-441466 305736 L-441425 305737 L-441404 305738 L-441393 305741 L-441299 305744 L-440535 305744 L-439829 305744 L-439789 305743 L-439503 305741 L-438962 305740 L-438901 305738 L-438861 305737 L-438846 305736 L-438589 305734 L-438266 305733 L-438126 305731 L-437856 305730 L-437817 305729 L-437709 305727 L-437307 305726 L-437198 305724 L-437120 305723 L-436823 305722 L-436781 305720 L-436562 305720 L-436379 305720 L-436268 305720 L-436254 305719 L-436228 305719 L-435804 305717 L-435557 305716 L-435221 305715 L-435187 305713 L-435052 305712 L-434798 305712 L-434644 305710 L-433738 305710 L-433639 305709 L-433443 305706 L-432436 305705 L-431936 305703 L-431857 305702 L-431819 305700 L-431611 305699 L-431492 305698 L-431394 305696 L-431208 305695 L-431043 305693 L-430807 305692 L-430387 305691 L-430372 305689 L-430063 305688 L-429017 305686 L-428800 305685 L-428784 305684 L-428762 305682 L-428554 305681 L-428395 305679 L-428336 305678 L-426891 305677 L-426565 305677 L-426363 305677 L-426164 305677 L-426014 305677 L-425744 305675 L-425303 305674 L-425085 305674 L-424390 305672 L-423888 305671 L-423563 305670 L-423292 305670 L-422572 305668 L-422417 305668 L-421218 305665 L-420829 305664 L-420713 305661 L-420560 305660 L-420406 305658 L-419436 305657 L-419384 305655 L-419137 305654 L-419114 305653 L-418895 305651 L-418456 305648 L-418317 305646 L-418209 305643 L-418007 305641 L-417890 305640 L-417787 305639 L-417773 305639 L-417640 305637 L-417387 305636 L-416769 305634 L-416109 305633 L-415863 305633 L-415671 305632 L-414911 305632 L-414872 305632 L-414794 305630 L-414742 305627 L-414702 305626 L-414664 305625 L-414626 305623 L-414534 305622 L-414490 305620 L-414431 305618 L-414407 305616 L-414293 305615 L-413983 305612 L-413928 305611 L-413906 305609 L-413564 305608 L-413399 305606 L-413363 305603 L-413323 305602 L-413308 305601 L-413077 305599 L-412936 305598 L-412768 305596 L-412318 305596 L-412085 305596 L-411992 305596 L-411972 305598 L-411492 305596 L-411414 305596 L-411287 305595 L-411157 305592 L-410779 305591 L-410537 305588 L-410500 305587 L-410446 305585 L-410308 305582 L-410268 305581 L-410228 305580 L-409998 305578 L-409958 305577 L-409828 305575 L-409649 305574 L-409608 305573 L-409594 305571 L-409430 305570 L-409415 305568 L-409263 305567 L-409248 305566 L-409221 305564 L-409187 305563 L-408965 305560 L-408743 305560 L-408488 305558 L-408356 305560 L-407714 305560 L-407107 305558 L-406087 305558 L-405894 305557 L-405843 305556 L-405718 305554 L-405394 305553 L-404621 305551 L-404563 305550 L-404449 305549 L-404037 305547 L-403712 305546 L-403575 305544 L-403350 305543 L-402824 305542 L-402423 305542 L-402392 305540 L-402105 305540 L-401820 305539 L-401432 305537 L-401215 305536 L-400788 305533 L-400607 305532 L-400270 305530 L-400164 305529 L-399977 305529 L-399860 305528 L-399846 305528 L-399125 305526 L-398955 305525 L-398707 305523 L-398607 305522 L-397965 305521 L-397676 305519 L-397486 305518 L-397211 305516 L-396894 305515 L-396609 305513 L-396495 305511 L-396450 305509 L-396248 305508 L-394639 305506 L-394427 305505 L-393746 305504 L-393664 305502 L-393436 305501 L-393245 305501 L-393106 305499 L-393088 305499 L-392894 305499 L-392665 305499 L-392472 305499 L-391388 305498 L-391192 305498 L-391140 305498 L-390986 305498 L-390878 305498 L-390712 305498 L-390559 305497 L-390444 305495 L-390320 305492 L-389903 305491 L-389646 305488 L-389554 305487 L-389360 305487 L-389299 305485 L-388973 305485 L-388912 305485 L-388855 305484 L-388586 305483 L-388238 305481 L-388060 305480 L-387865 305478 L-387829 305480 L-387117 305480 L-387077 305483 L-386768 305484 L-386470 305485 L-386420 305487 L-386165 305488 L-385894 305490 L-385839 305490 L-384747 305490 L-384717 305488 L-384677 305488 L-384500 305488 L-384308 305487 L-383450 305487 L-382396 305485 L-382335 305484 L-381986 305483 L-381174 305483 L-380360 305483 L-380345 305483 L-379970 305483 L-379802 305483 L-379533 305483 L-379205 305481 L-379084 305480 L-379027 305480 L-378991 305478 L-378914 305478 L-378697 305477 L-378639 305476 L-378323 305474 L-378155 305473 L-377792 305473 L-377598 305473 L-377575 305473 L-377497 305471 L-377016 305471 L-376879 305471 L-376465 305470 L-376166 305470 L-376067 305468 L-376051 305467 L-376023 305466 L-375664 305464 L-375313 305463 L-375176 305461 L-375139 305461 L-374322 305460 L-374116 305459 L-374092 305457 L-373936 305457 L-373846 305456 L-373604 305456 L-373280 305454 L-373188 305454 L-372992 305453 L-372706 305453 L-371950 305452 L-371821 305450 L-371747 305449 L-371134 305447 L-370959 305446 L-370848 305445 L-370749 305443 L-370670 305442 L-370533 305440 L-370378 305440 L-370299 305440 L-370108 305440 L-369435 305440 L-369397 305439 L-369294 305438 L-368350 305436 L-368329 305435 L-367978 305433 L-367513 305432 L-367477 305431 L-367048 305429 L-366997 305429 L-366585 305428 L-366569 305428 L-366472 305428 L-366417 305428 L-366379 305428 L-366083 305426 L-364345 305425 L-362835 305424 L-362327 305422 L-361830 305421 L-361696 305419 L-361605 305418 L-361477 305416 L-361398 305414 L-361093 305412 L-360822 305411 L-360588 305411 L-359390 305409 L-359285 305409 L-359219 305408 L-358377 305407 L-358191 305405 L-357280 305404 L-356411 305401 L-356124 305400 L-356031 305397 L-355482 305395 L-354962 305394 L-353894 305393 L-353625 305391 L-353471 305391 L-353379 305391 L-353248 305393 L-353201 305394 L-353041 305394 L-352176 305394 L-351841 305394 L-351458 305393 L-350705 305391 L-350646 305390 L-350256 305390 L-349934 305390 L-349777 305388 L-349045 305388 L-348983 305388 L-348695 305388 L-348322 305388 L-348140 305388 L-347885 305387 L-347623 305384 L-347471 305383 L-347067 305381 L-345770 305380 L-345655 305379 L-345191 305377 L-343859 305376 L-343434 305374 L-343410 305373 L-343277 305371 L-343102 305370 L-342969 305370 L-342639 305369 L-342251 305367 L-342212 305366 L-342195 305363 L-341805 305362 L-341513 305360 L-341244 305360 L-341071 305360 L-339578 305360 L-339527 305359 L-339449 305360 L-338209 305362 L-338134 305362 L-338107 305364 L-337861 305363 L-337704 305363 L-337645 305362 L-336758 305362 L-336529 305360 L-336005 305360 L-335864 305362 L-335789 305362 L-335092 305363 L-334844 305363 L-334164 305362 L-334146 305362 L-333893 305360 L-333525 305360 L-333389 305359 L-332767 305356 L-332424 305355 L-332376 305353 L-331889 305352 L-331555 305349 L-331339 305349 L-331204 305348 L-330883 305346 L-330819 305346 L-330567 305345 L-330277 305343 L-329968 305342 L-329828 305341 L-329289 305339 L-329013 305338 L-328283 305336 L-328229 305336 L-328122 305336 L-327856 305336 L-327432 305336 L-327168 305335 L-326948 305334 L-326928 305332 L-326696 305331 L-326409 305329 L-326386 305329 L-326372 305328 L-325999 305328 L-325827 305326 L-325752 305324 L-325691 305322 L-325390 305319 L-325149 305317 L-325056 305315 L-324799 305314 L-324746 305312 L-324551 305311 L-324335 305312 L-323911 305312 L-323819 305314 L-323678 305312 L-322813 305311 L-322440 305310 L-322112 305307 L-321960 305305 L-321532 305305 L-320815 305304 L-320620 305304 L-320265 305303 L-320119 305301 L-319612 305298 L-319376 305297 L-318409 305296 L-318399 305294 L-317334 305293 L-317101 305291 L-316700 305290 L-316505 305289 L-316425 305287 L-316329 305286 L-315592 305286 L-315460 305286 L-315070 305286 L-315048 305284 L-314953 305284 L-314818 305283 L-314801 305282 L-314781 305280 L-313096 305279 L-313077 305279 L-312961 305277 L-312876 305277 L-312751 305277 L-312728 305276 L-312443 305274 L-312337 305273 L-312149 305270 L-311878 305269 L-311206 305267 L-310834 305266 L-309982 305266 L-309925 305265 L-309905 305265 L-309672 305265 L-309397 305263 L-309092 305263 L-309052 305260 L-308822 305260 L-308584 305259 L-307971 305258 L-307930 305256 L-307893 305253 L-307371 305252 L-307180 305251 L-307119 305249 L-307077 305248 L-306754 305248 L-306727 305246 L-306712 305246 L-306227 305245 L-306174 305244 L-306035 305242 L-305997 305241 L-305980 305239 L-305886 305238 L-305220 305238 L-304604 305237 L-304334 305237 L-303926 305237 L-303906 305235 L-303890 305235 L-303777 305234 L-303390 305232 L-302923 305232 L-302863 305231 L-302784 305229 L-302769 305228 L-302283 305225 L-302243 305224 L-302098 305224 L-302049 305222 L-301970 305224 L-301338 305222 L-301247 305222 L-301006 305222 L-300889 305221 L-300561 305221 L-299807 305220 L-299790 305220 L-298839 305220 L-298530 305218 L-298105 305217 L-297391 305215 L-297072 305214 L-297058 305213 L-296906 305210 L-296603 305208 L-296525 305207 L-296398 305206 L-295961 305206 L-295901 305206 L-295377 305206 L-295109 305206 L-294972 305204 L-294893 305203 L-294854 305201 L-294043 305201 L-294002 305201 L-293562 305201 L-293484 305201 L-293227 305200 L-293036 305199 L-292407 305197 L-292220 305196 L-292186 305193 L-292030 305192 L-291628 305189 L-291551 305187 L-291370 305186 L-291179 305184 L-290251 305182 L-290100 305180 L-288892 305179 L-288083 305177 L-287679 305176 L-287077 305175 L-286875 305173 L-286806 305172 L-286648 305170 L-286387 305169 L-286013 306429 L-285995 306427 L-285838 306427 L-284640 306427 L-283536 305166 L-282608 305165 L-282495 305163 L-282209 305162 L-282107 305161 L-282083 305161 L-281893 305158 L-281815 305156 L-281619 305156 L-280908 305156 L-280750 305158 L-279693 305158 L-279268 305158 L-278858 305156 L-278572 305154 L-278397 305152 L-278166 305151 L-277912 305149 L-277469 305148 L-276808 305147 L-276632 305145 L-276327 305144 L-275940 305142 L-275921 305141 L-275901 305140 L-275880 305138 L-275746 305137 L-275554 305135 L-273910 305134 L-272613 305132 L-272574 305131 L-272517 305130 L-272415 305128 L-271856 305127 L-270872 305125 L-270330 305123 L-269866 305121 L-269220 305120 L-268671 305118 L-267621 305117 L-266693 305116 L-266345 305114 L-266152 305113 L-265649 305111 L-265204 305111 L-265061 305110 L-265040 305110 L-264469 305110 L-264083 305107 L-263250 305106 L-262901 305104 L-262879 305103 L-262492 305103 L-262069 305102 L-261470 305100 L-261451 305099 L-260946 305099 L-260714 305097 L-260600 305097 L-259981 305095 L-259420 305093 L-259380 305092 L-258820 305090 L-258487 305089 L-258375 305089 L-258336 305087 L-257911 305087 L-257851 305087 L-257776 305086 L-257485 305086 L-257272 305085 L-256789 305082 L-256574 305080 L-255434 305079 L-255375 305078 L-255357 305076 L-254951 305075 L-254313 305073 L-254177 305072 L-254119 305071 L-253577 305069 L-253268 305068 L-253017 305068 L-252941 305066 L-252822 305065 L-252088 305062 L-251643 305061 L-251429 305059 L-250696 305058 L-250521 305057 L-250155 305057 L-249940 305057 L-248702 305057 L-248393 305057 L-248276 305057 L-248024 305055 L-247813 305054 L-247271 305052 L-247039 305051 L-246981 305051 L-246884 305050 L-246555 305050 L-246322 305048 L-244660 305047 L-244309 305045 L-243905 305042 L-243750 305041 L-242957 305040 L-241467 305038 L-241080 305037 L-241042 305035 L-240788 305034 L-240693 305033 L-240500 305031 L-240152 305031 L-239456 305030 L-239204 305030 L-238488 305028 L-237076 305027 L-236844 305026 L-236515 305026 L-235298 305026 L-234947 305027 L-234755 305028 L-234636 305030 L-232202 305030 L-231232 305028 L-230401 305027 L-230092 305026 L-228750 305024 L-228177 305023 L-228061 305021 L-227732 305021 L-227636 305020 L-227229 305020 L-227113 305019 L-226922 305017 L-226166 305016 L-226040 305014 L-225759 305013 L-225256 305012 L-225179 305010 L-223592 305017 L-223535 305024 L-222793 305033 L-222412 305040 L-222083 305038 L-221420 305037 L-221290 305035 L-221251 305035 L-221000 305035 L-220864 305035 L-220672 305034 L-220536 305034 L-220284 305031 L-220072 305031 L-219762 305030 L-219490 305030 L-218988 305030 L-218969 305030 L-218535 305028 L-218309 305027 L-217866 305026 L-217847 305024 L-217344 305023 L-217206 305021 L-217092 305020 L-216860 305019 L-216550 305017 L-216086 305016 L-216009 305014 L-215506 305013 L-215235 305012 L-214897 305010 L-214712 305009 L-214036 305007 L-214017 305007 L-213842 305006 L-213822 305005 L-213204 305003 L-212488 305002 L-211926 305000 L-211732 305000 L-211578 304999 L-211559 304999 L-211036 304996 L-210922 304995 L-210050 304993 L-210029 304992 L-209973 304990 L-209141 304989 L-208831 304988 L-208755 304986 L-208483 304985 L-208420 304985 L-208370 304982 L-208058 304979 L-207441 304976 L-206666 304975 L-205872 304974 L-205833 304972 L-205756 304971 L-205584 304969 L-204706 304968 L-203821 304967 L-203727 304965 L-203607 304964 L-203277 304962 L-203241 304962 L-203009 304961 L-202776 304961 L-202061 304958 L-201558 304957 L-200893 304955 L-200784 304954 L-200630 304953 L-200610 304951 L-200456 304950 L-200040 304948 L-199429 304947 L-199295 304945 L-198386 304944 L-198183 304943 L-197631 304941 L-194981 304940 L-194806 304938 L-194729 304936 L-193857 304934 L-193393 304933 L-192911 304931 L-192872 304929 L-192291 304927 L-192271 304926 L-191170 304924 L-189748 304923 L-189330 304922 L-189023 304920 L-188945 304919 L-188869 304917 L-188712 304916 L-188636 304915 L-188172 304913 L-186934 304912 L-186682 304910 L-186237 304909 L-185615 304908 L-185559 304906 L-185366 304906 L-184901 304905 L-184610 304902 L-184569 304899 L-184533 304896 L-184380 304893 L-184202 304892 L-183064 304889 L-182677 304888 L-182619 304886 L-182445 304885 L-179928 304882 L-178768 304881 L-178131 304879 L-177992 304878 L-177860 304875 L-177473 304874 L-177009 304872 L-176798 304870 L-176733 304868 L-176699 304867 L-175945 304865 L-175363 304864 L-175172 304863 L-174553 304861 L-174507 304860 L-174146 304858 L-174040 304857 L-173855 304856 L-173578 304854 L-172674 304853 L-171670 304851 L-170934 304850 L-170509 304848 L-170348 304847 L-169986 304846 L-169889 304844 L-169445 304843 L-169369 304841 L-169017 304841 L-168768 304839 L-168748 304836 L-168574 304833 L-167626 304829 L-167512 304827 L-166949 304826 L-166499 304825 L-166114 304823 L-165204 304822 L-165148 304820 L-164009 304819 L-163429 304816 L-163254 304815 L-162460 304812 L-162229 304811 L-161842 304809 L-161572 304808 L-161436 304806 L-161320 304805 L-160701 304805 L-160643 304805 L-160428 304805 L-160134 304805 L-159346 304803 L-159205 304803 L-157817 304802 L-157470 304802 L-157083 304801 L-157022 304798 L-156986 304796 L-156929 304795 L-156286 304794 L-155594 304792 L-155342 304792 L-155007 304791 L-154917 304791 L-154397 304789 L-154143 304788 L-153927 304785 L-153544 304784 L-153384 304782 L-152845 304780 L-152033 304778 L-152014 304777 L-151899 304777 L-151754 304775 L-151373 304775 L-151181 304775 L-151125 304774 L-150826 304773 L-150759 304771 L-150563 304770 L-150196 304768 L-150135 304767 L-149831 304766 L-149786 304766 L-149732 304764 L-149094 304764 L-149074 304763 L-148589 304761 L-148107 304763 L-147738 304763 L-147372 304764 L-147237 304764 L-147083 304763 L-147013 304761 L-146366 304761 L-146346 304760 L-146205 304760 L-145720 304758 L-145437 304758 L-145379 304757 L-145321 304757 L-145012 304756 L-144857 304754 L-144373 304754 L-143600 304754 L-142960 304754 L-142863 304753 L-141800 304753 L-141779 304751 L-141314 306448 L-141298 306448 L-141124 306448 L-140611 306448 L-138257 304750 L-137312 304749 L-136594 304747 L-136053 304744 L-135356 304743 L-135040 304742 L-134391 304740 L-133883 304739 L-133849 304737 L-133807 304736 L-133462 304735 L-132767 304733 L-132570 304732 L-132553 304729 L-132437 304728 L-132156 304726 L-131258 304723 L-131212 304722 L-130846 304719 L-130828 304718 L-130773 304716 L-130580 304715 L-130444 304714 L-130369 304712 L-130135 304711 L-129594 304709 L-129553 304708 L-129516 304706 L-129491 304705 L-128856 304702 L-128314 304701 L-127149 304699 L-126789 304698 L-125512 304698 L-125472 304697 L-125434 304697 L-125219 304695 L-125029 304694 L-124951 304692 L-124798 304691 L-124758 304690 L-123669 304688 L-123345 304688 L-123131 304687 L-122870 304687 L-122378 304687 L-122356 304692 L-121939 304698 L-121797 304702 L-121737 304708 L-121660 304708 L-121449 304706 L-120155 304706 L-119878 304705 L-119254 304704 L-117863 304702 L-117791 304701 L-117753 304698 L-117559 304697 L-117170 304695 L-116862 304694 L-116806 304692 L-116491 304692 L-116440 304692 L-116402 304691 L-116356 304690 L-115723 304688 L-114949 304687 L-114510 304685 L-114368 306398 L-114345 306396 L-114328 308109 L-114303 308109 L-113886 306396 L-113683 306395 L-113533 304681 L-113455 304680 L-113401 304678 L-112604 304678 L-112588 304678 L-111724 304678 L-111520 304678 L-111233 304677 L-111118 304676 L-110592 304674 L-110416 304673 L-110112 304671 L-109725 304670 L-109664 304667 L-109609 304666 L-109454 304664 L-108409 304663 L-107847 304663 L-107611 304661 L-107574 304661 L-107305 304661 L-106899 304660 L-105430 304659 L-103689 304657 L-103302 304656 L-103070 304654 L-102971 304653 L-102876 304652 L-102722 304649 L-102159 304649 L-102076 304647 L-101909 304647 L-101367 304649 L-100182 304649 L-100168 304649 L-100108 304649 L-99957 304647 L-99472 304646 L-98825 304645 L-98119 304642 L-98003 304640 L-97035 304639 L-96990 304638 L-96300 304638 L-96243 304636 L-96165 304636 L-96146 304635 L-96125 304633 L-95909 304632 L-95196 304632 L-94806 304631 L-94770 304629 L-94752 304628 L-94695 304626 L-94267 304625 L-94053 304624 L-93978 304621 L-93901 304619 L-93785 304618 L-93720 304618 L-93592 304616 L-93532 304616 L-93457 304614 L-93378 304612 L-92950 304611 L-92224 304609 L-92210 304607 L-92044 304605 L-91827 304602 L-91812 304600 L-91231 304598 L-90960 304597 L-90671 304595 L-90241 304594 L-90088 304593 L-90031 304591 L-89855 304590 L-88460 304588 L-88194 304586 L-87301 304583 L-86776 304581 L-85756 304579 L-85675 304577 L-85211 304576 L-84592 304576 L-84306 304574 L-84052 304574 L-83900 304573 L-83552 304571 L-82835 304570 L-82274 304569 L-81386 304567 L-81077 304567 L-80785 304567 L-79933 304567 L-79912 304567 L-79256 304567 L-78752 304564 L-78542 304563 L-78521 304562 L-78192 304560 L-78134 304560 L-77747 304560 L-76762 304560 L-76200 304560 L-76103 304560 L-75794 304559 L-75717 304559 L-74682 304557 L-74552 304556 L-74496 304555 L-73860 304553 L-73801 304552 L-73726 304550 L-72312 304549 L-72175 304548 L-72041 304546 L-71556 304545 L-71306 304543 L-71015 304542 L-70803 304541 L-70146 304539 L-69577 304536 L-69488 304535 L-69348 304534 L-69274 304532 L-68109 304532 L-68077 304531 L-67647 304531 L-67631 304529 L-67456 304528 L-65928 304527 L-65844 304528 L-65038 304528 L-64845 304528 L-64823 304528 L-63970 304527 L-63777 304525 L-63143 304524 L-62967 304522 L-62848 304521 L-62794 304521 L-62773 304521 L-62717 304521 L-62329 304521 L-61885 304521 L-61807 304519 L-61610 304519 L-61548 304518 L-61285 304517 L-60937 304517 L-60821 304515 L-59673 304515 L-59388 304514 L-58943 304512 L-57740 304511 L-57610 304510 L-57300 304508 L-56872 304507 L-55575 304505 L-55266 306156 L-55250 306156 L-55203 306188 L-55153 306188 L-54225 304535 L-53895 304535 L-53347 304501 L-53219 304500 L-52773 304498 L-51240 304497 L-51071 304496 L-50800 304494 L-50776 304491 L-49871 304490 L-49756 304489 L-49289 304487 L-49266 304486 L-49194 304484 L-48996 304483 L-48844 304482 L-48376 304480 L-47725 304479 L-47239 304477 L-46689 304477 L-45667 304477 L-45361 304477 L-45306 304477 L-44706 304476 L-44276 304474 L-44202 304474 L-44184 304473 L-43963 304473 L-43659 304472 L-43577 304470 L-43273 304470 L-42674 304469 L-42537 304467 L-42267 304466 L-42053 304465 L-41878 304465 L-41669 304465 L-41647 304465 L-41399 304482 L-40949 304498 L-40933 304515 L-40487 304532 L-39279 304532 L-39077 304531 L-38149 304531 L-38087 304529 L-38052 304528 L-37027 304527 L-36911 304527 L-36890 304525 L-36736 304525 L-36717 304525 L-36306 304524 L-36290 304524 L-36252 304522 L-35942 304521 L-35789 304519 L-35584 304519 L-35185 304518 L-34202 304518 L-33677 304518 L-33621 304517 L-33595 304517 L-33273 304515 L-32557 304515 L-31687 304515 L-31649 304515 L-31572 304515 L-31320 304514 L-31300 304512 L-30577 304512 L-30427 304511 L-30314 304511 L-30217 304510 L-29115 304508 L-28360 304507 L-28188 304505 L-28027 304504 L-27951 304503 L-27757 304503 L-26619 304501 L-25934 304501 L-25652 304500 L-24685 304498 L-24666 304497 L-23814 304496 L-23775 304494 L-23632 304493 L-23307 304491 L-23077 304490 L-23039 304489 L-22999 304487 L-22982 304484 L-22846 304483 L-22827 304482 L-22616 304480 L-22556 304479 L-22478 304477 L-22454 304476 L-22379 304474 L-21899 304473 L-21802 304472 L-21726 304470 L-21550 304469 L-21527 304467 L-21472 304466 L-21434 304465 L-21375 304463 L-21220 304462 L-20196 304460 L-19897 304459 L-19770 304458 L-19692 304456 L-18667 304455 L-18610 304453 L-18552 304452 L-18506 304451 L-18492 304449 L-18455 304448 L-18417 304446 L-17237 304445 L-17179 304444 L-16482 304444 L-15863 304442 L-15720 304442 L-15277 304441 L-15012 304439 L-14348 304439 L-14064 304438 L-12594 304438 L-11646 304437 L-11540 304435 L-11474 304435 L-11444 304434 L-11124 304432 L-11103 304432 L-10174 304432 L-9998 304434 L-9267 304435 L-8726 228708 L-8703 152979 L-8676 77250 L-8644 1521 L-8627 1519 L-8606 1516 L-8568 1514 L-8549 1514 L-8526 1516 L-8511 1518 L-8492 1519 L-8472 1519 L-8450 1516 L-8434 1515 L-8414 1514 L-8395 1514 L-8357 1514 L-8317 1511 L-8291 1508 L-8275 1504 L-8257 1501 L-8220 1498 L-8201 1497 L-8182 1495 L-8163 1494 L-8141 1491 L-8124 1490 L-8085 1485 L-8063 1481 L-8047 1480 L-8028 1477 L-8008 1476 L-7989 1474 L-7970 1471 L-7931 1470 L-7874 1469 L-7825 1466 L-7774 1464 L-7747 1462 L-7731 1459 L-7714 1457 L-7699 1456 L-7678 1454 L-7660 1454 L-7640 1452 L-7620 1450 L-7598 1447 L-7583 1443 L-7564 1440 L-7544 1439 L-7522 1436 L-7486 1433 L-7466 1431 L-7446 1428 L-7409 1425 L-7388 1424 L-7363 1422 L-7346 1421 L-7329 1418 L-7312 1411 L-7291 1404 L-7273 1395 L-7253 1390 L-7234 1386 L-7176 1383 L-7156 1379 L-7134 1376 L-7100 1372 L-7080 1367 L-7060 1365 L-7041 1362 L-7022 1360 L-6983 1359 L-6964 1356 L-6945 1353 L-6919 1352 L-6732 1349 L-6712 1346 L-6692 1345 L-6669 1342 L-6635 1339 L-6615 1336 L-6594 1332 L-6577 1328 L-6557 1324 L-6538 1320 L-6517 1317 L-6499 1314 L-6481 1311 L-6459 1308 L-6434 1305 L-6418 1303 L-6383 1300 L-6363 1298 L-6345 1296 L-6325 1294 L-6306 1291 L-6284 1289 L-6248 1286 L-6228 1283 L-6206 1280 L-6190 1277 L-6171 1275 L-6151 1272 L-6131 1270 L-6094 1268 L-6017 1266 L-5991 1263 L-5968 1260 L-5940 1256 L-5917 1253 L-5891 1251 L-5841 1248 L-5821 1246 L-5783 1242 L-5764 1239 L-5742 1238 L-5726 1235 L-5707 1234 L-5687 1232 L-5666 1231 L-5630 1228 L-5609 1227 L-5552 1225 L-5531 1224 L-5506 1224 L-5491 1223 L-5474 1223 L-5436 1221 L-5416 1218 L-5397 1215 L-5377 1213 L-5357 1210 L-5339 1207 L-5320 1203 L-5300 1200 L-5279 1197 L-5243 1194 L-5223 1193 L-5204 1192 L-5165 1190 L-5126 1189 L-5107 1187 L-5088 1186 L-5039 1185 L-5012 1183 L-4972 1180 L-4942 1179 L-4927 1176 L-4855 1173 L-4835 1170 L-4813 1169 L-4797 1168 L-4778 1166 L-4738 1166 L-4661 1163 L-4642 1162 L-4624 1159 L-4603 1158 L-4577 1156 L-4545 1155 L-4526 1155 L-4507 1152 L-4469 1149 L-4428 1145 L-4350 1141 L-4314 1138 L-4275 1135 L-4197 1134 L-4178 1133 L-4133 1131 L-4111 1133 L-4083 1133 L-4044 1130 L-4013 1128 L-3998 1126 L-3984 1123 L-3944 1120 L-3882 1118 L-3868 1116 L-3849 1113 L-3829 1110 L-3752 1106 L-3714 1103 L-3695 1100 L-3648 1099 L-3632 1097 L-3614 1096 L-3597 1095 L-3559 1090 L-3539 1088 L-3520 1083 L-3498 1081 L-3482 1078 L-3442 1075 L-3404 1072 L-3385 1069 L-3365 1065 L-3346 1059 L-3327 1054 L-3308 1048 L-3288 1045 L-3268 1044 L-3205 1043 L-3182 1041 L-3155 1040 L-3131 1036 L-3104 1031 L-3088 1026 L-3072 1020 L-3035 1017 L-3017 1014 L-2997 1013 L-2977 1012 L-2955 1009 L-2939 1007 L-2920 1006 L-2901 1002 L-2879 996 L-2862 992 L-2842 988 L-2824 985 L-2803 982 L-2785 981 L-2766 978 L-2720 976 L-2703 974 L-2685 971 L-2669 967 L-2648 962 L-2630 958 L-2610 954 L-2591 948 L-2553 947 L-2534 946 L-2491 944 L-2476 943 L-2457 939 L-2437 934 L-2398 931 L-2379 930 L-2360 927 L-2321 926 L-2302 923 L-2276 920 L-2226 919 L-2189 917 L-2173 916 L-2127 915 L-2089 912 L-2069 910 L-2049 908 L-2026 906 L-2011 903 L-1992 901 L-1950 899 L-1934 896 L-1895 892 L-1874 889 L-1857 885 L-1816 881 L-1791 878 L-1775 875 L-1741 872 L-1720 868 L-1702 863 L-1682 856 L-1641 849 L-1625 841 L-1547 837 L-1528 834 L-1489 833 L-1470 830 L-1451 827 L-1431 827 L-1412 826 L-1392 826 L-1297 827 L-1272 826 L-1245 825 L-1214 822 L-1199 819 L-1178 816 L-1140 813 L-1120 811 L-1097 808 L-1082 806 L-1063 805 L-1044 802 L-1022 799 L-1005 797 L-985 794 L-966 791 L-945 788 L-928 784 L-909 781 L-888 780 L-862 777 L-846 773 L-828 768 L-790 764 L-773 759 L-753 754 L-734 750 L-712 744 L-676 742 L-657 737 L-634 733 L-619 730 L-600 728 L-580 725 L-541 722 L-502 721 L-483 719 L-464 716 L-419 715 L-317 715 L-302 714 L-169 712 L-154 711 L-135 705 L-115 701 L-93 698 L-57 694 L-38 692 L-17 691 L40 688 L65 685 L81 683 L99 678 L115 676 L136 674 L154 673 L193 670 L215 669 L251 667 L271 666 L293 664 L348 664 L368 663 L425 662 L464 660 L531 659 L558 656 L582 653 L608 650 L641 647 L657 646 L678 643 L696 647 L715 650 L735 655 L756 659 L773 657 L869 656 L928 655 L968 653 L993 649 L1024 646 L1063 643 L1102 639 L1122 636 L1160 633 L1199 631 L1237 628 L1256 626 L1295 624 L1315 621 L1334 619 L1354 618 L1373 617 L1392 615 L1411 612 L1438 608 L1488 604 L1527 601 L1557 598 L1572 595 L1586 594 L1625 591 L1644 588 L1686 586 L1702 583 L1721 580 L1761 576 L1798 573 L1838 570 L1875 569 L1922 566 L1936 565 L2012 563 L2050 562 L2070 562 L2088 559 L2108 557 L2205 555 L2244 552 L2302 549 L2321 546 L2340 543 L2366 543 L2388 542 L2454 541 L2472 541 L2487 539 L2500 538 L2536 536 L2593 535 L2617 532 L2650 529 L2670 527 L2708 522 L2729 518 L2747 514 L2768 511 L2785 508 L2804 507 L2826 504 L2851 501 L2902 500 L2923 497 L2979 496 L2999 493 L3095 491 L3114 489 L3153 487 L3172 486 L3191 482 L3230 480 L3250 479 L3268 477 L3317 476 L3368 476 L3395 475 L3411 472 L3427 470 L3443 468 L3482 465 L3502 463 L3521 460 L3579 458 L3598 455 L3621 451 L3637 448 L3657 444 L3675 441 L3733 437 L3754 432 L3779 428 L3815 423 L3830 418 L3850 415 L3868 413 L3889 411 L3908 408 L3930 406 L3946 404 L3966 403 L3985 401 L4007 399 L4023 396 L4042 393 L4062 390 L4082 389 L4120 387 L4139 383 L4159 379 L4224 373 L4245 369 L4274 366 L4313 362 L4345 358 L4359 354 L4393 351 L4431 348 L4450 347 L4473 344 L4488 342 L4507 340 L4527 335 L4565 334 L4585 331 L4625 330 L4683 327 L4708 326 L4743 323 L4759 320 L4780 317 L4797 314 L4836 311 L4858 310 L4875 307 L4895 304 L4914 300 L4936 297 L4952 293 L4971 290 L5048 289 L5068 286 L5088 283 L5107 281 L5126 278 L5151 275 L5226 272 L5252 269 L5268 265 L5284 264 L5300 261 L5321 258 L5339 255 L5378 254 L5401 252 L5416 251 L5435 248 L5455 247 L5477 244 L5494 243 L5590 240 L5611 237 L5636 236 L5670 233 L5687 230 L5708 227 L5726 224 L5746 223 L5765 221 L5786 220 L5803 217 L5822 214 L5842 212 L5865 209 L5881 206 L5899 205 L5939 202 L5958 199 L5997 196 L6054 195 L6080 192 L6102 189 L6130 186 L6154 184 L6180 181 L6213 179 L6229 178 L6249 178 L6267 178 L6287 178 L6307 178 L6345 175 L6364 172 L6384 168 L6405 165 L6441 162 L6461 161 L6482 158 L6500 155" />
</svg>
