<svg xmlns="http://www.w3.org/2000/svg" version="1.1" viewBox="0 0 6500 1000">
	<path fill="none" stroke="gold" stroke-width="125" stroke-linecap="round" stroke-linejoin="round" d="M0 328606  L-1313345 328606 L-1313161 328605 L-1312670 328602 L-1312377 328600 L-1312066 328597 L-1311831 328596 L-1311778 328593 L-1311718 328590 L-1311565 328588 L-1311525 328585 L-1311392 328584 L-1311100 328582 L-1310559 328582 L-1309949 328581 L-1309901 328581 L-1309261 328579 L-1309227 328579 L-1308702 328579 L-1308569 328578 L-1308179 328575 L-1307851 328572 L-1307734 328569 L-1307522 328566 L-1306806 328566 L-1306236 328564 L-1306128 328564 L-1305954 328563 L-1305732 328560 L-1305331 328558 L-1305305 328555 L-1304377 328552 L-1304290 328549 L-1304208 328546 L-1304137 328543 L-1303840 328542 L-1303688 328539 L-1301798 328540 L-1301697 328540 L-1301435 328540 L-1301141 328542 L-1301000 328539 L-1300751 328539 L-1300715 328537 L-1300557 328536 L-1300094 328533 L-1299841 328531 L-1299628 328529 L-1299377 328527 L-1299028 328526 L-1298101 328523 L-1298007 328520 L-1297596 328518 L-1296425 328515 L-1295236 328514 L-1295144 328511 L-1295117 328508 L-1294851 328505 L-1294552 328502 L-1294423 328499 L-1294385 328496 L-1293571 328496 L-1293187 328497 L-1292126 328499 L-1292065 328499 L-1291800 328529 L-1291329 328557 L-1291136 328585 L-1290873 328614 L-1290536 328612 L-1290400 328611 L-1289945 328609 L-1289201 328608 L-1289184 328606 L-1289019 328603 L-1288951 328603 L-1288434 328602 L-1287406 328602 L-1287210 328600 L-1286721 328599 L-1286359 328597 L-1285950 328597 L-1285565 328599 L-1283861 328599 L-1283763 328599 L-1283691 328599 L-1283630 328599 L-1283446 328597 L-1283109 328597 L-1282469 328596 L-1282392 328594 L-1282330 328594 L-1282144 328593 L-1282064 328593 L-1281887 328591 L-1281868 328590 L-1281638 328590 L-1281250 328588 L-1280362 328588 L-1280322 328587 L-1280234 328585 L-1280207 328582 L-1279198 328581 L-1279049 328578 L-1279025 328576 L-1278892 328575 L-1278852 328573 L-1277594 328572 L-1277536 328572 L-1276996 328570 L-1276943 328570 L-1276897 328570 L-1276502 328569 L-1276362 328567 L-1276162 328566 L-1276016 328566 L-1275851 328566 L-1275574 328567 L-1275216 328567 L-1274663 328566 L-1274018 328564 L-1273759 328561 L-1273606 328560 L-1273205 328558 L-1273165 328557 L-1273044 328555 L-1272982 328557 L-1272968 328557 L-1272874 328557 L-1272581 328555 L-1272430 328549 L-1272100 328546 L-1272022 328543 L-1271946 328542 L-1271719 328537 L-1271653 328534 L-1271425 328531 L-1271373 328529 L-1271208 328527 L-1270202 328526 L-1270019 328524 L-1269468 328523 L-1269075 328520 L-1268677 328518 L-1267827 328515 L-1267749 328514 L-1267170 328512 L-1266729 328512 L-1266488 328511 L-1266330 328511 L-1265930 328508 L-1265909 328508 L-1265464 328506 L-1265059 328505 L-1264923 328502 L-1264748 328499 L-1264611 328496 L-1264361 328493 L-1263361 328491 L-1263279 328490 L-1263144 328488 L-1263105 328487 L-1262215 328485 L-1261999 328484 L-1261556 328482 L-1261439 328481 L-1261382 328479 L-1260706 328479 L-1260605 328478 L-1260576 328478 L-1259235 328476 L-1258829 328475 L-1258789 328473 L-1257861 328472 L-1257763 328470 L-1257630 328469 L-1257226 328467 L-1257200 328466 L-1257107 328464 L-1256890 328463 L-1256479 328460 L-1255326 328457 L-1255034 328454 L-1255005 328451 L-1254397 328449 L-1254147 328446 L-1254127 328445 L-1253198 328443 L-1253147 328440 L-1253024 328439 L-1253007 328436 L-1252851 328434 L-1252676 328431 L-1252539 328430 L-1252483 328428 L-1252375 328427 L-1252289 328425 L-1252056 328424 L-1251981 328422 L-1251673 328421 L-1251555 328419 L-1251385 328418 L-1251294 328416 L-1251191 328416 L-1251168 328415 L-1251091 328415 L-1250993 328412 L-1250626 328410 L-1250522 328409 L-1250018 328407 L-1249566 328406 L-1249528 328405 L-1249504 328403 L-1249463 328402 L-1249335 328400 L-1249234 328399 L-1248792 328397 L-1248510 328396 L-1247918 328394 L-1247787 328393 L-1247513 328390 L-1247360 328388 L-1247207 328387 L-1247122 328384 L-1247044 328382 L-1246858 328381 L-1246807 328381 L-1246780 328379 L-1246700 328378 L-1246677 328376 L-1246394 328373 L-1245790 328370 L-1244795 328369 L-1244497 328367 L-1243763 328366 L-1243518 328364 L-1243428 328363 L-1242851 328361 L-1242153 328360 L-1241400 328358 L-1241082 328357 L-1240699 328354 L-1240622 328352 L-1239988 328351 L-1239802 328349 L-1239714 328349 L-1239585 328349 L-1239272 328348 L-1239223 328346 L-1239080 328345 L-1239059 328343 L-1238091 328342 L-1237546 328340 L-1237067 328340 L-1237006 328340 L-1236683 328340 L-1236661 328339 L-1236599 328339 L-1236389 328337 L-1236312 328336 L-1236257 328334 L-1236235 328333 L-1236196 328331 L-1236180 328330 L-1235423 328328 L-1235406 328327 L-1234607 328325 L-1234454 328324 L-1233549 328322 L-1233043 328321 L-1232813 328318 L-1232772 328318 L-1232657 328316 L-1232481 328315 L-1231726 328316 L-1231591 328315 L-1231427 328313 L-1231109 328312 L-1230933 328309 L-1229911 328306 L-1229888 328303 L-1229636 328301 L-1229423 328298 L-1228789 328297 L-1228552 328294 L-1228519 328291 L-1228341 328288 L-1228261 328285 L-1228171 328283 L-1228106 328281 L-1227666 328278 L-1227643 328276 L-1227102 328275 L-1226846 328273 L-1226351 328272 L-1225474 328270 L-1225437 328269 L-1225385 328267 L-1225343 328266 L-1225226 328264 L-1224950 328263 L-1224743 328260 L-1224545 328257 L-1224522 328254 L-1224472 328251 L-1224433 328249 L-1224355 328248 L-1223757 328245 L-1223697 328243 L-1223594 328242 L-1223440 328240 L-1222808 328239 L-1222127 328237 L-1221824 328234 L-1221477 328233 L-1221280 328231 L-1221232 328228 L-1220911 328227 L-1220284 328225 L-1220137 328224 L-1220101 328222 L-1220043 328221 L-1219966 328218 L-1219725 328218 L-1219637 328216 L-1219542 328215 L-1219249 328213 L-1219114 328212 L-1219054 328210 L-1219017 328207 L-1218745 328207 L-1217739 328206 L-1217563 328204 L-1217513 328204 L-1217220 328203 L-1217028 328200 L-1216694 328198 L-1216188 328197 L-1215626 328194 L-1215611 328191 L-1215594 328189 L-1215494 328186 L-1215379 328183 L-1215340 328180 L-1215303 328179 L-1215237 328179 L-1215209 328177 L-1215070 328179 L-1214777 328179 L-1214727 328179 L-1214622 328179 L-1214357 328177 L-1213892 328176 L-1213748 328176 L-1213693 328173 L-1213636 328171 L-1213445 328170 L-1213080 328168 L-1212866 328168 L-1212671 328168 L-1212613 328168 L-1212554 328165 L-1212400 328164 L-1212131 328162 L-1211701 328170 L-1211685 328170 L-1211608 328168 L-1211544 328167 L-1211414 328157 L-1211391 328155 L-1211107 328154 L-1211059 328152 L-1211005 328151 L-1210542 328149 L-1210503 328149 L-1210463 328148 L-1210272 328146 L-1209792 328145 L-1209305 328143 L-1209289 328142 L-1209251 328140 L-1208994 328139 L-1208917 328136 L-1208687 328134 L-1208671 328131 L-1208376 328128 L-1207934 328127 L-1207487 328125 L-1206983 328124 L-1206829 328122 L-1206542 328121 L-1206502 328118 L-1206171 328116 L-1205949 328115 L-1205432 328112 L-1205356 328110 L-1205108 328107 L-1204914 328104 L-1204854 328103 L-1204078 328101 L-1204004 328101 L-1203773 328100 L-1203756 328100 L-1203695 328098 L-1203499 328097 L-1203035 328097 L-1203012 328095 L-1202882 328095 L-1201581 328095 L-1201564 328095 L-1201487 328094 L-1201394 328094 L-1201176 328094 L-1201024 328092 L-1200846 328094 L-1200792 328095 L-1200505 328097 L-1200465 328097 L-1200096 328097 L-1199655 328097 L-1199472 328097 L-1199151 328095 L-1198856 328095 L-1198410 328092 L-1198338 328091 L-1197876 328088 L-1197438 328086 L-1197256 328085 L-1195802 328082 L-1195670 328080 L-1195213 328077 L-1194987 328076 L-1194600 328073 L-1194084 328070 L-1193130 328067 L-1192336 328064 L-1191661 328062 L-1191236 328059 L-1190925 328058 L-1190695 328053 L-1190011 328049 L-1189998 328044 L-1189788 328038 L-1189766 328037 L-1189592 328034 L-1188642 328033 L-1188374 328030 L-1187559 328028 L-1187248 328025 L-1187210 328024 L-1187153 328021 L-1186536 328019 L-1185898 328016 L-1184272 328015 L-1183599 328013 L-1182957 328013 L-1182879 328013 L-1182823 328013 L-1182787 328013 L-1182759 328012 L-1182647 328009 L-1182629 328007 L-1182606 328006 L-1182453 328004 L-1182399 328001 L-1182321 328000 L-1182202 327998 L-1182104 327997 L-1181987 327995 L-1181717 327992 L-1181448 327991 L-1181430 327988 L-1181230 327986 L-1181083 327983 L-1180857 327982 L-1180723 327980 L-1180414 327979 L-1180354 327977 L-1180001 327974 L-1179652 327973 L-1179551 327971 L-1179487 327968 L-1179427 327967 L-1179043 327964 L-1178662 327962 L-1178557 327961 L-1178297 327959 L-1178026 327956 L-1177867 327955 L-1177834 327953 L-1177772 327952 L-1177631 327950 L-1177447 327949 L-1177403 327947 L-1177115 327947 L-1177098 327946 L-1176865 327946 L-1176804 327944 L-1176766 327944 L-1176186 327943 L-1176052 327941 L-1176029 327935 L-1176011 327925 L-1175993 327913 L-1175977 327901 L-1175953 327889 L-1175937 327880 L-1175916 327870 L-1175899 327859 L-1175876 327853 L-1175859 327847 L-1175837 327843 L-1175821 327840 L-1175772 327835 L-1175699 327831 L-1175665 327823 L-1175641 327817 L-1175605 327811 L-1175564 327805 L-1175527 327802 L-1175511 327796 L-1175487 327792 L-1175450 327789 L-1175433 327785 L-1175410 327782 L-1175392 327779 L-1175374 327776 L-1175358 327773 L-1175328 327768 L-1175302 327764 L-1175257 327762 L-1175241 327759 L-1175199 327758 L-1175151 327755 L-1175080 327752 L-1175065 327749 L-1175049 327746 L-1174986 327744 L-1174947 327743 L-1174908 327741 L-1174742 327740 L-1174677 327738 L-1174661 327737 L-1174617 327734 L-1174558 327732 L-1174346 327731 L-1174312 327729 L-1174270 327728 L-1174192 327726 L-1173654 327725 L-1173576 327723 L-1173472 327720 L-1173383 327719 L-1173207 327717 L-1172856 327716 L-1172701 327714 L-1172263 327713 L-1172106 327711 L-1171976 327710 L-1171272 327707 L-1171071 327705 L-1170111 327702 L-1169628 327701 L-1169529 327701 L-1169437 327699 L-1169192 327698 L-1169119 327696 L-1168676 327693 L-1168580 327692 L-1168565 327690 L-1168549 327689 L-1168524 327687 L-1168058 327686 L-1167841 327684 L-1167701 327683 L-1167408 327681 L-1167319 327680 L-1167278 327678 L-1167248 327677 L-1167075 327675 L-1167016 327674 L-1166940 327672 L-1166860 327671 L-1166790 327671 L-1166481 327669 L-1166395 327668 L-1166182 327666 L-1166147 327665 L-1165463 327663 L-1165364 327662 L-1165159 327660 L-1165113 327659 L-1164834 327658 L-1164772 327656 L-1164755 327653 L-1164677 327652 L-1164369 327649 L-1164345 327647 L-1164291 327644 L-1164268 327643 L-1164146 327641 L-1164010 327638 L-1163766 327637 L-1163640 327637 L-1162993 327635 L-1162977 327635 L-1162952 327635 L-1162772 327632 L-1162696 327631 L-1162604 327629 L-1162177 327628 L-1161760 327626 L-1161367 327623 L-1161289 327622 L-1161270 327620 L-1160907 327619 L-1160670 327617 L-1160442 327616 L-1160129 327614 L-1160051 327613 L-1159970 327610 L-1159792 327607 L-1159777 327605 L-1159511 327602 L-1159431 327601 L-1159201 327599 L-1158975 327598 L-1158659 327598 L-1158484 327596 L-1158123 327596 L-1157731 327595 L-1157662 327592 L-1157598 327590 L-1157458 327587 L-1157406 327586 L-1157304 327583 L-1156802 327581 L-1156605 327580 L-1156358 327578 L-1156173 327577 L-1155873 327575 L-1155797 327574 L-1155631 327571 L-1154747 327569 L-1154718 327566 L-1154595 327563 L-1154016 327562 L-1153939 327560 L-1153225 327560 L-1152913 327560 L-1152700 327560 L-1152683 327560 L-1152297 327560 L-1151772 327557 L-1151326 327556 L-1150996 327554 L-1150843 327553 L-1150517 327553 L-1150339 327551 L-1150258 327551 L-1150051 327548 L-1149876 327547 L-1148947 327545 L-1148058 327544 L-1148018 327542 L-1147790 327542 L-1147411 327541 L-1146624 327539 L-1146389 327538 L-1146313 327536 L-1145956 327535 L-1145384 327532 L-1145117 327531 L-1144731 327529 L-1144627 327529 L-1144457 327529 L-1143839 327529 L-1143628 327529 L-1143320 327529 L-1143267 327528 L-1143139 327526 L-1143086 327525 L-1142967 327523 L-1142631 327520 L-1141671 327519 L-1141540 327516 L-1141338 327514 L-1140707 327513 L-1140396 327511 L-1139982 327510 L-1139954 327508 L-1139809 327507 L-1139389 327505 L-1138056 327505 L-1138009 327504 L-1137881 327501 L-1137864 327499 L-1137286 327496 L-1137080 327495 L-1137051 327493 L-1137010 327492 L-1136953 327490 L-1136915 327489 L-1136837 327487 L-1136694 327486 L-1136239 327484 L-1136121 327483 L-1135836 327481 L-1135463 327480 L-1135367 327478 L-1135040 327477 L-1134686 327475 L-1134516 327474 L-1134468 327472 L-1134359 327471 L-1134270 327469 L-1134243 327468 L-1134166 327465 L-1133863 327463 L-1133829 327460 L-1133757 327459 L-1133389 327457 L-1133054 327456 L-1132973 327456 L-1132753 327454 L-1132582 327453 L-1132554 327451 L-1132057 327450 L-1131508 327447 L-1130627 327445 L-1130529 327442 L-1130452 327441 L-1130177 327439 L-1129930 327436 L-1129856 327435 L-1129795 327432 L-1129676 327430 L-1129633 327429 L-1129523 327427 L-1129446 327424 L-1128746 327423 L-1128500 327421 L-1128461 327420 L-1128304 327418 L-1127705 327418 L-1127478 327418 L-1127386 327418 L-1126911 327418 L-1126314 327415 L-1125794 327414 L-1125773 327412 L-1125627 327411 L-1125307 327411 L-1124766 327411 L-1124534 327411 L-1124363 327411 L-1123877 327410 L-1123649 327408 L-1123564 327407 L-1123218 327405 L-1122892 327405 L-1122369 327404 L-1122042 327402 L-1121441 327401 L-1121243 327398 L-1121192 327396 L-1121151 327395 L-1120870 327393 L-1120185 327390 L-1119875 327389 L-1119850 327386 L-1119659 327384 L-1119436 327383 L-1119350 327381 L-1118687 327378 L-1118662 327377 L-1118440 327374 L-1118110 327372 L-1117758 327369 L-1117554 327368 L-1117321 327365 L-1117063 327363 L-1116874 327360 L-1116827 327359 L-1116599 327357 L-1116565 327356 L-1116408 327354 L-1116194 327353 L-1116021 327351 L-1115930 327350 L-1115652 327348 L-1115409 327347 L-1115093 327345 L-1114667 327345 L-1114630 327345 L-1114146 327345 L-1113913 327345 L-1113701 327344 L-1113475 327342 L-1112925 327342 L-1112678 327341 L-1111844 327341 L-1111788 327339 L-1111766 327338 L-1111608 327336 L-1111147 327335 L-1111106 327333 L-1110766 327330 L-1110633 327329 L-1110410 327327 L-1109838 327326 L-1109366 327324 L-1109172 327323 L-1108979 327321 L-1108789 327320 L-1108687 327318 L-1108319 327317 L-1108273 327315 L-1108191 327314 L-1106898 327312 L-1106850 327311 L-1106581 327311 L-1106436 327311 L-1105885 327311 L-1105769 327309 L-1105687 327308 L-1105328 327306 L-1105104 327305 L-1104823 327303 L-1104493 327300 L-1103986 327299 L-1103873 327297 L-1103794 327296 L-1103630 327294 L-1103335 327294 L-1102867 327294 L-1102670 327296 L-1102620 327296 L-1101970 327294 L-1101848 327293 L-1101394 327293 L-1101358 327291 L-1100890 327290 L-1100779 327288 L-1100763 327287 L-1100547 327287 L-1100366 327286 L-1099834 327286 L-1098805 327286 L-1098605 327284 L-1098147 327283 L-1097199 327280 L-1097100 327278 L-1096746 327275 L-1096685 327274 L-1096671 327272 L-1096636 327271 L-1096266 327269 L-1096146 327268 L-1095904 327266 L-1095740 327265 L-1095553 327263 L-1095432 327262 L-1094362 327259 L-1093503 327257 L-1093291 327254 L-1093194 327253 L-1093020 327250 L-1092687 327248 L-1092615 327247 L-1092557 327245 L-1092382 327245 L-1091993 327244 L-1091758 327242 L-1091646 327241 L-1091529 327239 L-1090548 327238 L-1090523 327236 L-1089929 327233 L-1089896 327233 L-1089748 327232 L-1089463 327230 L-1088551 327230 L-1087605 327230 L-1087452 327229 L-1087350 327229 L-1087218 327227 L-1087075 327226 L-1087049 327224 L-1086934 327223 L-1086716 327221 L-1086035 327220 L-1085905 327218 L-1085602 327217 L-1085362 327214 L-1085029 327212 L-1084391 327211 L-1084048 327208 L-1083987 327206 L-1083831 327206 L-1082909 327206 L-1082439 327206 L-1082395 327206 L-1082383 327205 L-1082341 327203 L-1082319 327202 L-1082292 327200 L-1082148 327199 L-1081726 327197 L-1081390 327197 L-1081199 327196 L-1080771 327196 L-1080583 327194 L-1080194 327191 L-1079660 327190 L-1079287 327188 L-1079266 327188 L-1079016 327187 L-1078897 327185 L-1078822 327184 L-1078686 327182 L-1078646 327181 L-1078567 327179 L-1078172 327178 L-1077676 327176 L-1077564 327173 L-1077391 327172 L-1077083 327170 L-1076636 327169 L-1076313 327167 L-1076170 327164 L-1075743 327162 L-1075590 327159 L-1075534 327156 L-1074721 327154 L-1074701 327153 L-1074329 327151 L-1074272 327151 L-1073143 327150 L-1073075 327150 L-1072517 327148 L-1072322 327147 L-1072186 327145 L-1071953 327144 L-1071606 327142 L-1071571 327139 L-1071536 327138 L-1071467 327135 L-1071118 327133 L-1070946 327132 L-1070462 327130 L-1070445 327129 L-1070120 327127 L-1069963 327126 L-1068822 327123 L-1068797 327121 L-1068605 327118 L-1068412 327117 L-1068161 327115 L-1068144 327114 L-1067124 327112 L-1066826 327111 L-1066751 327109 L-1066615 327106 L-1066439 327105 L-1065862 327102 L-1065647 327100 L-1065583 327099 L-1065452 327097 L-1065415 327094 L-1064892 327093 L-1064754 327681 L-1064740 327681 L-1064717 327681 L-1064697 327681 L-1064469 327091 L-1063694 327091 L-1063652 327091 L-1063284 327091 L-1063206 327090 L-1063154 327088 L-1062481 327087 L-1061738 327085 L-1061314 327085 L-1060866 327084 L-1059804 327082 L-1059493 327079 L-1059083 327079 L-1059010 327078 L-1058486 327078 L-1058392 327078 L-1058374 327078 L-1057929 327076 L-1057744 327073 L-1056963 327070 L-1056291 327069 L-1055879 327064 L-1055647 327061 L-1055506 327060 L-1055425 327057 L-1055405 327055 L-1055329 327055 L-1055200 327054 L-1054883 327055 L-1054659 327055 L-1054334 327054 L-1054272 327054 L-1053902 327054 L-1053869 327054 L-1053660 327054 L-1052993 327054 L-1052915 327054 L-1052757 327051 L-1052647 327051 L-1052320 327049 L-1052165 327048 L-1051824 327048 L-1051767 327045 L-1051429 327042 L-1051226 327040 L-1051173 327038 L-1049796 327036 L-1049667 327035 L-1049233 327033 L-1048913 327032 L-1048085 327029 L-1047962 327027 L-1047231 327024 L-1047075 327021 L-1047034 327020 L-1046980 327018 L-1046957 327017 L-1046843 327015 L-1046547 327014 L-1046257 327012 L-1046203 327011 L-1046082 327009 L-1046052 327008 L-1045952 327006 L-1045508 327006 L-1045356 327005 L-1044521 327005 L-1043979 327003 L-1043644 327003 L-1043629 327002 L-1043553 327000 L-1043437 326999 L-1043242 326997 L-1042978 326996 L-1042144 326994 L-1042047 326993 L-1041526 326991 L-1041484 326990 L-1041385 326988 L-1040556 326988 L-1040421 326987 L-1040083 326987 L-1039529 326985 L-1039149 326984 L-1038986 326982 L-1038676 326981 L-1037863 326979 L-1037557 326978 L-1037289 326978 L-1036967 326978 L-1036646 326979 L-1036371 326979 L-1035542 326976 L-1035447 326975 L-1035355 326970 L-1035250 326966 L-1034863 326961 L-1034383 326958 L-1034367 326957 L-1034248 326955 L-1033880 326952 L-1033785 326951 L-1032952 326948 L-1032875 326946 L-1032575 326945 L-1032484 326943 L-1032077 326940 L-1031967 326937 L-1031268 326936 L-1030795 326934 L-1030734 326933 L-1030516 326930 L-1030242 326928 L-1030129 326927 L-1029102 326925 L-1028715 326924 L-1028695 326922 L-1028362 326921 L-1028117 326919 L-1027684 326918 L-1027574 326916 L-1027456 326915 L-1027005 326912 L-1026414 326911 L-1026078 326909 L-1024185 326908 L-1024071 326905 L-1023859 326903 L-1022541 326902 L-1022435 326565 L-1022369 326234 L-1022332 325927 L-1022271 325927 L-1021771 326261 L-1021096 326589 L-1021074 326893 L-1020804 326890 L-1019836 326890 L-1019146 326888 L-1018984 326887 L-1018444 326885 L-1018354 326884 L-1017335 326882 L-1016387 326879 L-1016021 326881 L-1015918 326882 L-1015330 326882 L-1015271 326882 L-1015170 326881 L-1014730 326878 L-1014623 326876 L-1014181 326875 L-1013181 326870 L-1012925 326866 L-1012822 326861 L-1012692 326858 L-1012325 326855 L-1011744 326852 L-1011713 326851 L-1011398 326849 L-1009415 326848 L-1009299 326846 L-1009231 326846 L-1008873 326845 L-1007254 326843 L-1007076 326843 L-1006932 326843 L-1006110 326845 L-1006057 326846 L-1006002 326846 L-1005568 326846 L-1004588 326848 L-1004514 326848 L-1003429 326846 L-1003216 326846 L-1002500 326843 L-1002112 326842 L-1001893 326839 L-1001573 326836 L-1001080 326833 L-1000952 326831 L-1000723 326828 L-1000491 326825 L-1000431 326824 L-1000142 326822 L-999870 326819 L-998840 326818 L-997175 326816 L-996756 326815 L-996619 326813 L-996462 326813 L-996157 326812 L-995929 326809 L-995771 326807 L-995611 326804 L-995442 326801 L-995395 326800 L-995341 326798 L-995320 326798 L-994934 326797 L-994684 326797 L-994413 326797 L-994253 326797 L-994163 326797 L-992504 326797 L-992339 326798 L-991959 326797 L-991499 326797 L-990889 326794 L-989796 326792 L-989365 326791 L-989334 326790 L-989271 326788 L-989254 326787 L-987550 326785 L-987508 326784 L-987042 326782 L-986855 326781 L-986823 326778 L-986228 326776 L-986178 326775 L-985855 326773 L-985804 326772 L-985594 326770 L-985576 326769 L-985310 326766 L-985257 326764 L-984788 326763 L-984278 326760 L-984199 326760 L-983905 326758 L-983888 326757 L-983850 326755 L-983779 326754 L-983621 326752 L-982675 326752 L-982619 326752 L-982098 326752 L-981906 326751 L-981805 326751 L-981579 326749 L-981069 326749 L-980681 326790 L-980611 326790 L-980263 326788 L-979906 326787 L-978777 326743 L-978726 326740 L-978500 326739 L-978466 326737 L-978341 326734 L-978242 326734 L-977977 326734 L-977237 326736 L-976659 326736 L-976365 326736 L-975659 326736 L-975480 326734 L-975457 326734 L-974821 326733 L-974510 326731 L-974113 326731 L-974084 326730 L-974063 326728 L-973909 326727 L-973224 326727 L-973208 326727 L-972868 326727 L-972595 326725 L-972558 326724 L-972502 326721 L-972480 326719 L-972408 326718 L-972076 326716 L-971970 326715 L-971941 326712 L-971743 326710 L-971590 326709 L-970722 326707 L-970159 326704 L-970144 326704 L-970042 326703 L-969940 326704 L-969794 326704 L-969715 326704 L-969678 326703 L-969622 326701 L-969549 326700 L-969404 326698 L-968922 326698 L-968518 326697 L-967651 326698 L-967631 326698 L-967374 326698 L-967297 326698 L-967268 326697 L-967257 326694 L-967240 326692 L-966947 326691 L-966908 326689 L-966836 326688 L-966762 326686 L-966557 326685 L-966397 326680 L-966096 326676 L-966019 326670 L-966001 326666 L-965785 326663 L-965554 326663 L-965444 326664 L-965074 326666 L-964916 326666 L-964684 326666 L-964516 326666 L-964371 326664 L-964239 326663 L-962963 326660 L-962560 326657 L-962499 326655 L-962382 326652 L-961957 326651 L-961941 326648 L-961880 326646 L-961606 326643 L-961494 326642 L-961212 326639 L-960934 326637 L-960509 326634 L-960487 326633 L-960409 326631 L-960283 326630 L-959697 326628 L-959305 326627 L-958970 326625 L-958381 326624 L-958278 326624 L-958108 326622 L-957972 326622 L-957144 326621 L-955959 326619 L-955923 326618 L-955867 326618 L-955647 326616 L-955442 326616 L-955287 326616 L-955030 326615 L-954954 326613 L-954411 326612 L-954375 326610 L-954126 326609 L-953738 326607 L-952913 326606 L-952554 326604 L-952244 326604 L-951986 326603 L-951762 326601 L-951356 326600 L-951240 326598 L-951056 326597 L-951003 326597 L-950815 326595 L-950644 326594 L-950615 326592 L-950335 326591 L-950024 326589 L-949886 326588 L-949576 326586 L-949383 326586 L-949367 326585 L-948648 326585 L-948514 326582 L-948216 326580 L-948126 326579 L-947525 326579 L-947487 326577 L-947409 326576 L-946788 326574 L-946637 326571 L-946596 326570 L-946285 326568 L-946094 326567 L-945901 326564 L-945845 326561 L-945536 326559 L-945484 326558 L-945430 326559 L-945404 326559 L-945279 326559 L-944468 326558 L-944392 326556 L-943851 326555 L-943583 326553 L-942923 326552 L-942016 326550 L-941774 326549 L-941242 326547 L-941025 326546 L-939917 326547 L-939867 326547 L-939091 326547 L-938544 326546 L-938433 326544 L-938280 326542 L-938224 326540 L-938059 326539 L-937682 326537 L-937234 326536 L-937180 326534 L-937025 326533 L-936345 326531 L-936125 326530 L-935607 326528 L-934758 326525 L-934742 326524 L-932951 326522 L-932397 326521 L-932280 326519 L-931274 326518 L-931237 326516 L-931005 326516 L-930912 326516 L-930872 326516 L-930540 326515 L-930188 326513 L-929923 326510 L-929636 326509 L-929326 326506 L-929071 326503 L-928978 326501 L-928488 326500 L-928280 326498 L-927715 326497 L-927600 326498 L-927249 326497 L-927198 326497 L-927158 326497 L-926554 326494 L-925820 326491 L-925239 326488 L-925004 326485 L-924463 326480 L-924311 326477 L-923809 326476 L-923600 326473 L-923576 326473 L-923518 326471 L-922555 326471 L-922377 326470 L-921936 326468 L-921911 326465 L-921756 326464 L-921675 326464 L-921524 326465 L-920877 326465 L-920828 326464 L-919708 326462 L-918724 326461 L-918662 326459 L-917941 326458 L-917077 326456 L-916698 326455 L-916479 326455 L-915719 326453 L-915667 326452 L-915358 326449 L-914507 326449 L-914314 326447 L-914137 326446 L-913913 326446 L-913786 326444 L-913594 326444 L-913361 326443 L-913192 326444 L-912905 326443 L-912626 326443 L-912543 326441 L-912372 326440 L-912356 326437 L-912202 326435 L-912163 326434 L-911387 326432 L-911311 326432 L-911078 326429 L-910652 326428 L-910306 326426 L-909723 326425 L-909454 326425 L-909195 326425 L-909066 326422 L-909049 326420 L-908936 326419 L-908912 326418 L-908678 326416 L-908642 326415 L-907326 326415 L-907270 326413 L-906591 326410 L-906019 326410 L-905893 326410 L-905740 326410 L-905663 326410 L-905351 326407 L-905078 326406 L-904989 326403 L-904887 326403 L-903959 326401 L-903883 326401 L-903519 326401 L-903494 326400 L-903458 326398 L-902683 326395 L-902591 326394 L-902451 326392 L-902049 326391 L-901787 326391 L-901544 326392 L-901330 326391 L-901249 326391 L-901173 326391 L-901096 326391 L-900910 326392 L-900843 326392 L-900593 326392 L-900538 326391 L-900401 326389 L-900321 326386 L-900208 326385 L-899985 326383 L-899820 326382 L-899779 326380 L-899610 326379 L-899239 326377 L-899224 326376 L-899108 326374 L-898387 326373 L-898351 326371 L-898218 326371 L-897871 326370 L-897459 326370 L-897423 326370 L-897345 326368 L-897306 326367 L-896942 326365 L-896738 326364 L-896723 326362 L-896377 326361 L-896029 326361 L-895703 326361 L-895601 326359 L-895448 326359 L-895254 326358 L-895022 326358 L-894930 326358 L-894774 326358 L-894697 326358 L-894656 326356 L-894543 326355 L-894519 326353 L-894269 326353 L-894130 326350 L-893552 326346 L-892724 326343 L-892236 326340 L-892115 326338 L-892076 326337 L-892064 326335 L-891911 326332 L-891811 326329 L-891578 326328 L-891187 326325 L-890883 326323 L-890867 326322 L-890697 326320 L-890458 326317 L-889862 326317 L-889258 326316 L-889218 326316 L-889178 326316 L-889025 326314 L-888971 326313 L-888909 326311 L-888841 326310 L-888786 326307 L-888761 326305 L-888714 326304 L-888620 326301 L-888482 326299 L-888329 326298 L-888197 326296 L-888156 326296 L-888120 326295 L-888059 326294 L-887785 326291 L-887471 326289 L-887430 326286 L-887345 326285 L-887167 326283 L-886930 326282 L-886572 326280 L-886543 326279 L-885973 326277 L-885851 326276 L-885614 326274 L-885592 326274 L-885310 326273 L-885025 326273 L-884769 326273 L-884198 326271 L-883901 326270 L-883825 326268 L-883126 326267 L-883048 326265 L-883013 326264 L-882987 326262 L-882935 326259 L-882741 326258 L-882601 326255 L-882565 326253 L-882525 326252 L-881930 326250 L-881697 326249 L-881414 326259 L-881359 326268 L-881285 326279 L-881207 326288 L-880971 326285 L-880727 326283 L-880592 326282 L-880485 326280 L-880406 326279 L-880018 326276 L-879892 326274 L-879739 326273 L-879701 326271 L-879555 326270 L-879334 326268 L-879160 326267 L-879091 326265 L-878269 326262 L-878253 326262 L-877959 326261 L-877171 326259 L-876861 326259 L-876715 326258 L-876487 326256 L-876286 326253 L-875349 326252 L-875312 326250 L-875290 326249 L-875249 326246 L-874980 326244 L-874384 326243 L-874320 326241 L-874285 326240 L-874268 326238 L-873572 326238 L-873371 326238 L-873339 326238 L-873006 326238 L-872898 326237 L-872273 326234 L-871769 326232 L-871732 326229 L-871290 326229 L-871194 326228 L-871035 326228 L-870722 326228 L-870709 326228 L-870269 326229 L-869787 326231 L-869658 326231 L-869338 326231 L-869270 326229 L-868965 326229 L-868790 326228 L-868596 326226 L-868353 326223 L-868156 326220 L-868130 326217 L-867552 326216 L-867482 326214 L-867072 326213 L-867018 326211 L-866972 326210 L-866608 326208 L-866461 326207 L-866256 326205 L-866160 326205 L-866005 326204 L-865943 326202 L-865796 326199 L-865695 326198 L-865138 326198 L-865116 326201 L-864944 326202 L-864402 326204 L-864341 326204 L-864287 326201 L-864259 326198 L-864187 326196 L-864171 326193 L-864107 326192 L-864071 326189 L-863916 326187 L-863591 326186 L-863025 326184 L-863010 326183 L-862948 326180 L-862847 326177 L-862800 326177 L-862558 326175 L-862135 326175 L-861981 326175 L-860239 326172 L-859697 326171 L-858754 326170 L-858345 326168 L-857804 326165 L-857607 326164 L-857439 326162 L-857143 326161 L-857028 326159 L-857013 326159 L-856858 326158 L-856718 326156 L-856642 326153 L-856510 326153 L-856162 326153 L-855791 326155 L-855193 326155 L-855018 326155 L-854861 326153 L-854592 326152 L-854441 326152 L-854150 326156 L-854126 326159 L-854043 326162 L-853816 326165 L-853116 326164 L-852989 326162 L-852558 326161 L-852464 326159 L-851259 326159 L-851210 326158 L-850917 326158 L-850513 326156 L-850237 326153 L-850218 326152 L-850100 326150 L-850024 326149 L-849842 326147 L-849362 326146 L-848911 326143 L-848501 326141 L-848471 326140 L-848052 326138 L-847938 326138 L-847820 326138 L-847805 326138 L-847610 326137 L-847589 326134 L-847357 326132 L-846913 326131 L-846594 326128 L-846129 326128 L-845964 326126 L-845809 326125 L-845653 326125 L-845200 326125 L-844881 326125 L-844826 326126 L-844455 326126 L-844417 326128 L-844091 326128 L-843974 326126 L-843875 326125 L-843549 326122 L-843162 326120 L-842901 326119 L-842543 326116 L-842286 326114 L-840116 326113 L-840067 326111 L-840044 326110 L-839633 326110 L-839571 326110 L-839501 326111 L-839270 326111 L-838960 326110 L-838656 326107 L-838612 326105 L-838304 326104 L-838171 326102 L-837954 326101 L-837242 326099 L-837087 326099 L-836949 326098 L-836800 326098 L-836779 326098 L-836585 326096 L-836559 326095 L-836468 326093 L-836446 326092 L-836430 326090 L-836330 326089 L-835401 326087 L-834943 326087 L-833851 326084 L-833429 326084 L-833025 326083 L-832986 326081 L-832733 326080 L-831958 326077 L-831942 326075 L-831918 326074 L-831725 326072 L-830988 326071 L-830719 326069 L-830678 326068 L-830279 326065 L-830255 326063 L-829465 326062 L-828785 326060 L-827414 326059 L-827144 326057 L-827096 326056 L-826558 326053 L-826525 326051 L-826423 326048 L-826100 326047 L-826020 326045 L-825751 326045 L-824839 326044 L-824700 326044 L-824451 326041 L-823906 326041 L-823484 326040 L-823290 326038 L-823275 326038 L-823137 326035 L-823043 326034 L-822916 326032 L-822656 326031 L-822631 326028 L-822540 326026 L-822230 326025 L-822169 326023 L-822053 326023 L-821703 326023 L-820892 326023 L-820661 326020 L-819832 326020 L-819600 326017 L-819383 326016 L-818865 326016 L-818227 326014 L-817810 326013 L-817488 326011 L-817007 326010 L-816582 326010 L-816520 326008 L-816172 326008 L-816131 326007 L-816118 326005 L-816018 326002 L-815973 326002 L-815487 326001 L-814686 326001 L-814351 326001 L-813270 325999 L-812790 325998 L-812767 325996 L-812627 325995 L-812072 325993 L-811375 325992 L-811066 325990 L-810844 325989 L-810739 325987 L-810637 325984 L-809966 325983 L-809872 325981 L-809850 325981 L-809772 325980 L-809594 325980 L-809422 325980 L-809241 325978 L-809228 325977 L-809152 325975 L-808988 325974 L-808473 325972 L-808457 325971 L-808316 325971 L-807954 325969 L-807930 325969 L-807799 325968 L-807774 325966 L-807412 325965 L-806887 325962 L-806793 325960 L-806577 325957 L-806484 325956 L-806459 325954 L-805995 325953 L-805918 325953 L-805516 325951 L-805066 325951 L-803814 325950 L-803775 325948 L-803343 325947 L-803311 325945 L-802592 325944 L-802415 325942 L-802280 325941 L-801973 325939 L-801918 325938 L-801893 325935 L-801877 325932 L-801702 325930 L-801513 325929 L-801005 325929 L-800631 325917 L-800293 325904 L-800255 325892 L-799536 325881 L-799442 325880 L-799403 325878 L-798862 325878 L-798839 325877 L-798436 325875 L-798010 325874 L-797739 325874 L-797560 325872 L-797314 325869 L-797290 325868 L-797234 325865 L-796617 325863 L-796115 325862 L-795727 325862 L-795108 325863 L-794892 325863 L-794737 325865 L-793445 325862 L-793346 325860 L-792903 325857 L-792572 325856 L-792271 325853 L-792029 325851 L-791294 325848 L-790715 325847 L-789885 325845 L-789785 325844 L-789228 325842 L-789089 325841 L-787448 325839 L-787387 325839 L-787293 325839 L-786326 325839 L-786149 325838 L-785862 325838 L-785644 325838 L-785566 325836 L-785294 325836 L-785179 325835 L-785026 325833 L-784715 325832 L-784637 325830 L-784546 325830 L-784469 325829 L-784353 325829 L-784174 325827 L-784082 325826 L-784043 325824 L-783540 325824 L-783322 325823 L-783192 325823 L-783037 325821 L-782982 325820 L-782858 325820 L-782473 325818 L-781965 325817 L-781892 325815 L-781412 325814 L-781335 325812 L-781235 325812 L-781001 325811 L-780537 325811 L-780307 325811 L-780290 325811 L-780058 325811 L-779903 325811 L-779842 325811 L-779649 325809 L-779378 325806 L-778626 325805 L-777673 325805 L-777637 325803 L-777412 325803 L-776972 325803 L-776692 325800 L-776343 325799 L-775274 325797 L-774346 325797 L-774216 325797 L-774169 325797 L-774100 325796 L-773945 325796 L-773867 325793 L-773694 325790 L-773259 325787 L-773055 325786 L-772995 325783 L-772412 325781 L-772258 325778 L-772143 325777 L-772102 325775 L-771932 325774 L-771796 325772 L-771585 325769 L-771507 325768 L-771484 325766 L-771275 325763 L-770865 325762 L-770841 325760 L-770618 325759 L-770472 325757 L-770437 325756 L-770424 325754 L-770402 325753 L-770168 325751 L-769983 325750 L-769765 325748 L-769740 325747 L-769051 325745 L-768947 325744 L-768912 325742 L-768891 325741 L-768697 325739 L-768644 325738 L-768527 325735 L-768446 325735 L-768335 325733 L-768020 325732 L-767561 325730 L-767306 325729 L-767071 325726 L-766941 325724 L-766589 325723 L-766530 325721 L-766377 325720 L-765805 325717 L-765718 325715 L-765565 325712 L-765269 325709 L-764899 325706 L-764596 325703 L-764520 325702 L-764115 325700 L-763947 325700 L-763803 325700 L-763263 325700 L-763202 325700 L-763186 325697 L-763020 325696 L-762814 325694 L-762739 325694 L-762646 325693 L-762237 325691 L-762221 325690 L-762198 325690 L-762005 325688 L-761928 325702 L-761757 325715 L-761695 325727 L-761680 325741 L-761165 325739 L-760944 325738 L-760325 325735 L-760071 325733 L-759877 325732 L-759838 325730 L-759764 325730 L-759699 325730 L-759049 325730 L-759010 325732 L-758836 325732 L-758770 325732 L-758096 325732 L-757707 325729 L-757445 325727 L-757208 325726 L-757130 325723 L-757114 325720 L-756912 325718 L-756541 325715 L-756316 325714 L-755680 325712 L-755660 325712 L-755273 325711 L-755180 325711 L-755121 325709 L-754845 325708 L-754536 325708 L-754459 325706 L-753607 325708 L-753265 325715 L-752828 325724 L-752394 325732 L-751899 325739 L-751749 325738 L-751481 325739 L-750243 325741 L-750186 325744 L-748423 325745 L-748232 325744 L-747222 325742 L-747071 325741 L-746695 325744 L-746375 325747 L-745769 325750 L-745700 325753 L-745522 325751 L-744694 325750 L-744555 325748 L-744168 325747 L-743984 325745 L-743941 325744 L-743821 325742 L-743611 325741 L-743163 325738 L-742815 325736 L-742683 325735 L-742274 325733 L-741924 325733 L-741638 325732 L-741445 325730 L-741290 325730 L-741126 325729 L-741058 325727 L-740958 325727 L-740725 325726 L-740608 325726 L-740555 325724 L-740013 325724 L-739549 325723 L-738367 325723 L-738234 325723 L-738209 325723 L-738156 325723 L-737489 325723 L-736454 325720 L-736260 325718 L-736080 325717 L-735929 325717 L-735888 325715 L-735873 325715 L-735812 325714 L-735487 325712 L-734326 325711 L-734132 325709 L-733955 325708 L-732841 325706 L-731982 325705 L-731875 325705 L-731402 325703 L-731209 325703 L-728887 325702 L-728810 325700 L-728688 325697 L-728654 325696 L-728617 325693 L-728522 325688 L-728307 325685 L-727725 325682 L-727339 325681 L-726566 325679 L-726488 325678 L-725791 325678 L-725249 325678 L-725209 325676 L-725078 325676 L-724614 325675 L-724576 325673 L-724441 325672 L-724073 325671 L-724043 325669 L-723893 325669 L-723492 325668 L-721668 325669 L-720862 325668 L-720143 325668 L-720126 325668 L-719813 325665 L-719251 325663 L-718750 325662 L-718231 325660 L-718209 325659 L-716465 325657 L-716296 325656 L-716101 325654 L-715207 325653 L-714688 325650 L-714478 325648 L-714220 325647 L-713510 325645 L-712560 325644 L-711902 325642 L-711863 325639 L-711576 325638 L-711494 325636 L-711398 325636 L-711266 325635 L-711189 325635 L-710454 325635 L-710117 325633 L-710067 325635 L-709812 325635 L-709525 325633 L-709100 325633 L-708519 325632 L-708260 325632 L-708109 325630 L-707862 325630 L-707823 325630 L-707026 325629 L-706988 325627 L-706811 325627 L-706402 325624 L-706173 325624 L-706097 325624 L-705966 325624 L-705850 325623 L-705501 325621 L-705438 325620 L-705286 325618 L-704545 325617 L-704434 325615 L-704263 325614 L-704224 325612 L-703930 325612 L-703528 325612 L-703352 325612 L-703257 325612 L-702948 325611 L-702147 325609 L-701688 325606 L-701168 325605 L-700679 325603 L-699984 325602 L-698938 325600 L-698669 325600 L-698614 325599 L-698454 325599 L-698203 325599 L-697957 325597 L-697878 325596 L-697663 325593 L-697351 325591 L-696888 325588 L-696873 325587 L-696577 325587 L-696564 325585 L-695573 325584 L-694900 325582 L-694565 325579 L-693949 325579 L-693812 325578 L-693173 325576 L-693043 325575 L-692092 325572 L-691993 325569 L-691433 325567 L-691025 325567 L-690596 325567 L-690505 325566 L-689670 325566 L-689307 325566 L-689268 325567 L-689135 325569 L-688958 325569 L-688742 325569 L-688688 325567 L-688531 325564 L-688278 325563 L-687178 325561 L-687101 325560 L-686881 325558 L-686750 325555 L-686714 325554 L-686521 325552 L-686421 325551 L-685937 325549 L-685653 325548 L-685493 325547 L-685398 325544 L-685127 325542 L-684857 325541 L-684841 325535 L-684702 325530 L-684564 325526 L-684237 325520 L-683928 325517 L-683887 325515 L-683812 325512 L-683696 325511 L-682846 325508 L-682519 325506 L-682188 325505 L-682055 325505 L-681839 325505 L-681823 325505 L-681143 325505 L-681049 325502 L-681026 325500 L-681010 325497 L-680971 325496 L-680560 325493 L-680290 325491 L-680250 325490 L-679882 325490 L-679672 325488 L-678589 325488 L-678573 325487 L-678544 325485 L-678524 325485 L-678147 325482 L-677892 325481 L-677644 325478 L-677505 325475 L-677373 325473 L-677041 325472 L-676948 325470 L-676887 325469 L-676329 325467 L-676268 325466 L-676112 325464 L-675918 325463 L-675725 325461 L-675710 325460 L-675671 325458 L-675632 325457 L-675362 325455 L-675238 325454 L-675206 325452 L-675107 325452 L-674951 325452 L-674810 325452 L-674526 325451 L-674200 325451 L-673504 325449 L-673482 325449 L-672972 325449 L-672126 325449 L-671763 325448 L-671609 325446 L-671005 325446 L-670835 325446 L-670774 325446 L-670719 325445 L-669663 325443 L-669645 325443 L-668739 325443 L-668718 325443 L-668551 325442 L-668308 325442 L-668258 325440 L-668204 325437 L-668066 325436 L-668026 325434 L-667098 325433 L-667043 325433 L-666921 325433 L-666849 325433 L-666734 325433 L-666555 325434 L-665573 325433 L-665433 325433 L-665316 325430 L-665021 325427 L-664774 325425 L-664737 325424 L-664682 325425 L-664661 325425 L-664528 325425 L-664449 325425 L-664311 325424 L-663688 325424 L-663522 325423 L-663057 325423 L-662881 325420 L-662865 325418 L-662804 325417 L-662688 325415 L-662205 325414 L-661510 325412 L-661137 325411 L-660967 325409 L-660001 325408 L-659846 325406 L-659669 325406 L-659576 325405 L-659321 325405 L-659150 325405 L-658503 325403 L-658492 325403 L-657912 325402 L-657774 325402 L-657719 325399 L-656983 325397 L-656945 325396 L-656867 325396 L-656225 325394 L-655451 325394 L-655358 325393 L-655310 325393 L-655294 325391 L-655258 325391 L-655242 325388 L-655179 325387 L-655163 325385 L-655143 325385 L-654988 325384 L-654949 325382 L-654933 325381 L-654894 325379 L-654754 325378 L-654678 325376 L-654314 325375 L-653966 325373 L-653192 325372 L-652590 325370 L-652393 325369 L-652163 325369 L-652026 325367 L-651388 325367 L-651098 325366 L-651077 325366 L-650616 325364 L-650383 325364 L-650329 325363 L-650290 325361 L-649787 325360 L-649237 325358 L-648449 325357 L-647326 325357 L-646432 325355 L-646344 325355 L-646044 325354 L-645973 325352 L-645857 325351 L-644680 325349 L-644332 325348 L-644309 325346 L-643790 325345 L-643643 325343 L-643535 325342 L-643326 325340 L-643171 325339 L-643149 325337 L-642955 325336 L-642878 325334 L-642734 325333 L-641933 325331 L-641787 325330 L-641507 325328 L-641330 325327 L-641020 325325 L-640209 325324 L-639280 325324 L-637688 325322 L-637445 325321 L-636804 325319 L-636608 325318 L-636531 325316 L-636013 325315 L-635781 325315 L-635758 325313 L-635626 325313 L-635287 325312 L-635276 325310 L-635060 325309 L-635023 325307 L-634481 325306 L-633952 325303 L-633885 325301 L-633592 325300 L-633044 325297 L-633009 325296 L-632956 325294 L-632857 325291 L-632624 325291 L-632044 325291 L-631946 325293 L-631872 325293 L-631540 325291 L-630790 325290 L-630751 325288 L-630071 325288 L-629917 325288 L-629591 325287 L-629375 325285 L-629143 325285 L-628847 325284 L-628600 325282 L-628249 325281 L-628196 325279 L-627437 325278 L-626743 325275 L-626393 325272 L-625929 325270 L-625296 325269 L-624887 325267 L-624809 325269 L-624383 325269 L-623741 325267 L-623571 325267 L-622829 325266 L-622642 325264 L-622347 325263 L-621775 325261 L-621750 325260 L-620730 325260 L-620243 325258 L-620150 325258 L-620089 325257 L-619801 325255 L-619515 325254 L-619454 325252 L-619274 325252 L-618563 325251 L-618387 325249 L-618188 325248 L-618037 325246 L-617945 325245 L-617883 325243 L-617341 325243 L-617031 325242 L-616939 325239 L-616862 325236 L-616294 325234 L-616203 325234 L-615949 325231 L-615622 325228 L-615585 325224 L-615430 325219 L-615198 325218 L-614876 325216 L-613743 325215 L-613544 325213 L-613018 325212 L-612774 325212 L-612528 325210 L-612448 325209 L-612428 325206 L-612351 325204 L-612296 325201 L-612219 325200 L-612180 325198 L-612001 325195 L-611964 325194 L-611732 325192 L-610495 325191 L-610168 325189 L-610128 325186 L-609347 325185 L-609200 325183 L-608208 325182 L-608001 325182 L-607576 325182 L-607448 325182 L-607044 325183 L-606956 325182 L-606299 325180 L-605592 325179 L-604983 325177 L-604790 325176 L-604557 325173 L-603939 325172 L-603643 325169 L-603203 325167 L-603049 325166 L-602894 325164 L-602138 325161 L-601788 325160 L-601385 325160 L-601347 325158 L-600341 325158 L-600021 325158 L-599774 325157 L-599074 325154 L-599001 325152 L-598688 325151 L-597608 325149 L-597417 325148 L-597183 325148 L-596988 325146 L-596488 325145 L-595734 325145 L-595621 325145 L-595420 325145 L-595379 325143 L-595286 325142 L-594973 325140 L-594885 325139 L-594769 325137 L-594451 325137 L-594382 325136 L-594357 325134 L-593995 325133 L-593957 325131 L-593740 325130 L-593237 325131 L-592635 325133 L-592423 325136 L-592270 325137 L-592232 325137 L-592188 325134 L-592154 325133 L-592021 325131 L-591612 325130 L-591241 325128 L-591187 325127 L-591171 325125 L-591092 325124 L-590683 325122 L-590529 325121 L-590513 325118 L-590474 325116 L-590295 325113 L-590219 325112 L-589988 325110 L-589198 325109 L-589120 325109 L-588385 325106 L-588230 325104 L-587990 325101 L-587928 325098 L-587843 325097 L-587820 325094 L-587702 325091 L-587688 325088 L-587626 325085 L-587589 325083 L-587495 325082 L-587473 325082 L-587356 325080 L-587124 325079 L-586954 325076 L-586134 325076 L-585732 325074 L-585577 325074 L-585072 325074 L-584958 325074 L-584362 325074 L-583987 325073 L-583936 325073 L-583742 325071 L-583045 325071 L-583007 325070 L-582862 325070 L-582637 325068 L-582375 325067 L-582001 325065 L-581576 325064 L-581446 325062 L-581426 325059 L-580933 325059 L-580237 325058 L-580005 325059 L-579851 325059 L-578883 325059 L-578658 325061 L-578380 325061 L-578364 325059 L-577838 325058 L-577309 325056 L-577161 325055 L-577142 325053 L-576600 325052 L-576290 325051 L-576173 325048 L-575981 325045 L-575845 325042 L-575517 325040 L-575401 325039 L-575091 325039 L-574665 325037 L-574609 325037 L-574377 325039 L-574280 325039 L-574147 325039 L-573851 325039 L-573737 325037 L-573372 325036 L-573060 325036 L-572577 325034 L-572406 325033 L-572158 325031 L-571942 325030 L-571416 325028 L-571230 325025 L-570874 325024 L-570239 325022 L-570085 325019 L-569344 325018 L-568924 325016 L-568744 325015 L-568668 325015 L-568537 325013 L-568243 325012 L-568202 325010 L-567972 325010 L-567780 325009 L-567525 325009 L-567098 325007 L-566989 325006 L-566371 325006 L-566189 325006 L-564977 325006 L-564330 325007 L-564180 325007 L-564142 325007 L-564010 325007 L-563909 325006 L-563893 325004 L-563811 325003 L-563600 325001 L-563483 325000 L-563121 324998 L-562749 324997 L-562052 324995 L-561650 324994 L-561545 324992 L-561527 324991 L-560582 324989 L-560387 324986 L-560235 324985 L-560180 324982 L-559423 324982 L-559406 324985 L-558917 324986 L-558787 324989 L-558594 324989 L-557704 324988 L-557664 324986 L-557626 324985 L-557549 324983 L-557510 324983 L-557433 324982 L-557349 324980 L-557085 324979 L-556853 324977 L-556791 324976 L-556310 324974 L-555974 324974 L-555862 324973 L-555669 324971 L-555492 324970 L-555433 324970 L-555397 324968 L-555127 324967 L-554429 324964 L-554376 324961 L-554082 324958 L-553680 324955 L-553116 324953 L-552243 324952 L-551938 324950 L-551900 324949 L-551777 324947 L-551179 324946 L-551049 324944 L-550849 324943 L-550812 324941 L-550198 324940 L-550019 324938 L-550004 324935 L-549786 324934 L-549708 324931 L-549401 324931 L-549269 324929 L-549037 324929 L-548703 324929 L-548611 324928 L-548511 324927 L-548473 324925 L-547930 324925 L-547737 324924 L-547196 324922 L-546770 324921 L-546638 324921 L-546577 324921 L-546346 324921 L-546329 324921 L-545841 324922 L-545760 324922 L-545743 324922 L-544350 324924 L-544214 324924 L-544100 324922 L-543466 324921 L-543326 324919 L-543208 324918 L-543055 324915 L-543018 324913 L-542939 324912 L-542885 324913 L-541893 324913 L-541857 324912 L-541724 324912 L-541663 324909 L-541564 324907 L-541274 324906 L-541260 324904 L-540950 324904 L-540850 324906 L-540385 324904 L-540332 325062 L-540189 325219 L-540061 325378 L-539829 325536 L-539260 325535 L-539171 325533 L-539149 325533 L-538862 325532 L-538179 325530 L-538102 325529 L-538066 325527 L-538049 325526 L-537850 325524 L-537429 325521 L-537158 325521 L-536285 325520 L-535992 325520 L-535882 325520 L-535147 325518 L-535020 325517 L-534661 325515 L-534408 325515 L-533537 325514 L-533368 325514 L-533306 325512 L-533251 325511 L-532903 325509 L-532880 325508 L-532671 325506 L-532531 325505 L-532400 325503 L-532277 325502 L-532154 325500 L-531917 325499 L-531627 325497 L-530968 325496 L-530946 325494 L-530791 325493 L-530673 325491 L-529709 325490 L-529653 325488 L-529421 325487 L-529398 325485 L-529072 325484 L-528957 325484 L-528917 325482 L-528415 325482 L-528116 325481 L-528005 325479 L-527462 325478 L-526403 325476 L-525777 325475 L-525605 325473 L-525358 325472 L-525102 325470 L-524971 325469 L-524949 325467 L-524282 325466 L-523385 325464 L-523339 325463 L-523269 325461 L-523153 325461 L-522933 325460 L-522742 325460 L-522703 325458 L-522510 325457 L-521851 325457 L-521234 325455 L-521195 325464 L-520599 325473 L-520537 325481 L-519415 325488 L-519361 325488 L-519240 325487 L-518974 325485 L-518911 325485 L-518642 325485 L-518565 325484 L-518349 325484 L-517867 325482 L-517597 325481 L-517465 325481 L-517233 325478 L-517208 325473 L-517193 325467 L-517171 325460 L-517155 325452 L-517131 325445 L-517117 325436 L-517094 325427 L-517078 325418 L-517055 325411 L-517040 325403 L-517018 325396 L-517001 325391 L-516973 325387 L-516956 325381 L-516938 325378 L-516901 325373 L-516861 325370 L-516846 325367 L-516821 325363 L-516769 325360 L-516745 325357 L-516668 325354 L-516630 325352 L-516615 325349 L-516552 325346 L-516537 325343 L-516491 325339 L-516420 325336 L-516382 325334 L-516358 325331 L-516305 325328 L-516280 325327 L-516265 325325 L-516203 325324 L-516166 325322 L-516089 325321 L-516073 325319 L-516045 325316 L-515972 325315 L-515933 325313 L-515779 325310 L-515663 325309 L-515609 325307 L-515526 325306 L-515493 325304 L-515469 325303 L-515314 325301 L-515299 325300 L-515198 325299 L-514887 325297 L-514851 325296 L-514636 325294 L-514525 325294 L-514500 325294 L-514270 325296 L-514037 325296 L-513662 325294 L-513535 325293 L-513495 325291 L-513442 325290 L-513341 325288 L-513304 325287 L-513094 325287 L-513029 325285 L-512917 325285 L-512705 325284 L-512668 325282 L-512296 325281 L-512243 325279 L-512164 325278 L-512142 325276 L-512049 325275 L-511849 325273 L-511811 325273 L-511790 325273 L-511560 325273 L-511539 325272 L-511329 325272 L-511235 325270 L-511197 325269 L-510861 325267 L-510748 325266 L-510708 325264 L-510695 325264 L-510555 325263 L-510540 325263 L-510286 325263 L-509703 325261 L-509627 325260 L-509589 325258 L-509544 325257 L-509496 325255 L-509316 325254 L-509301 325252 L-509201 325251 L-509124 325249 L-509063 325248 L-508698 325245 L-508616 325243 L-508598 325242 L-508544 325240 L-507576 325239 L-507444 325237 L-507423 325236 L-507202 325234 L-507134 325233 L-507111 325231 L-506865 325230 L-506609 325228 L-506478 325227 L-506438 325225 L-506417 325222 L-506361 325219 L-506273 325218 L-506212 325215 L-505987 325213 L-505858 325212 L-505758 325210 L-505704 325209 L-505510 325207 L-505432 325206 L-505099 325204 L-504968 325203 L-504791 325201 L-504775 325200 L-504750 325198 L-504480 325198 L-503280 325197 L-503243 325197 L-503127 325195 L-502893 325194 L-502702 325192 L-502663 325192 L-502608 325191 L-502503 325191 L-501989 325189 L-501695 325188 L-501463 325186 L-501188 325185 L-501171 325183 L-501138 325182 L-501098 325180 L-501061 325179 L-500959 325177 L-500882 325176 L-500789 325175 L-500663 325173 L-500558 325172 L-500380 325172 L-500187 325170 L-499358 325170 L-499242 325169 L-498988 325167 L-498948 325166 L-498849 325164 L-498788 325164 L-498546 325163 L-498522 325163 L-498401 325161 L-498330 325160 L-498290 325158 L-498059 325157 L-497882 325155 L-497362 325154 L-497286 325152 L-497269 325151 L-496858 325151 L-496495 325151 L-496379 325149 L-496356 325149 L-496316 325148 L-496240 325146 L-496186 325145 L-495837 325143 L-495721 325142 L-495544 325142 L-495489 325140 L-495465 325140 L-495351 325139 L-495063 325137 L-494831 325136 L-494616 325134 L-494406 325133 L-494196 325130 L-493369 325128 L-493030 325127 L-492022 325125 L-491659 325124 L-490614 325122 L-490536 325121 L-490089 325119 L-489878 325118 L-489686 325116 L-489392 325115 L-489351 325113 L-489197 325112 L-489144 325109 L-488912 325107 L-488332 325106 L-488138 325104 L-487519 325104 L-487030 325103 L-486978 325101 L-486329 325100 L-486179 325098 L-486010 325097 L-485637 325095 L-485621 325095 L-485522 325094 L-485484 325094 L-485353 325092 L-484919 325092 L-484616 325092 L-484231 325092 L-484091 325091 L-483929 325091 L-483495 325091 L-483457 325089 L-483355 325089 L-483240 325088 L-483062 325088 L-482892 325086 L-482774 325085 L-482412 325082 L-482195 325080 L-482062 325079 L-481922 325079 L-481423 325079 L-481345 325079 L-481111 325077 L-480787 325077 L-480400 325076 L-480378 325074 L-479757 325074 L-479487 325073 L-479254 325073 L-478829 325071 L-478558 325070 L-478416 325068 L-478207 325067 L-478002 325065 L-477450 325064 L-477319 325064 L-476933 325062 L-476662 325062 L-476559 325061 L-476299 325059 L-476097 325058 L-476028 325056 L-475990 325055 L-475422 325053 L-475215 325052 L-475188 325051 L-474959 325049 L-474882 325048 L-474365 325046 L-474326 325045 L-474171 325043 L-473877 325042 L-473605 325040 L-473242 325039 L-472894 325039 L-472522 325037 L-472401 325037 L-472329 325036 L-471850 325034 L-471787 325033 L-471452 325031 L-471321 325030 L-471243 325028 L-471114 325027 L-470650 325027 L-470356 325025 L-470280 325025 L-469968 325024 L-469660 325022 L-469597 325021 L-469567 325019 L-468792 325018 L-468688 325015 L-468600 325013 L-468577 325012 L-468423 325010 L-468201 325009 L-468034 325007 L-467647 325006 L-467592 325004 L-467529 325004 L-466912 325003 L-466795 325001 L-466472 325000 L-465946 324998 L-465596 324997 L-465520 324995 L-464900 324994 L-464489 324992 L-464188 324991 L-463877 324989 L-463739 324988 L-463115 324988 L-462734 324986 L-461610 324986 L-460550 324985 L-460487 324983 L-460126 324982 L-460025 324982 L-460009 324980 L-459635 324980 L-458630 324977 L-458243 324976 L-458036 324973 L-457947 324971 L-457572 324970 L-457279 324968 L-456968 324967 L-456179 324965 L-456091 324964 L-456039 324962 L-456000 324961 L-455483 324959 L-455367 324958 L-455158 324956 L-455019 324955 L-454416 324953 L-453586 324952 L-453303 324950 L-453121 324950 L-452620 324949 L-452415 324949 L-451861 324949 L-451355 324947 L-451164 324946 L-451126 324944 L-450497 324943 L-450043 324941 L-449629 324940 L-449021 324938 L-447900 324938 L-447487 324937 L-447163 324937 L-446948 324935 L-446521 324934 L-446381 324932 L-446290 324931 L-446058 324929 L-445472 324929 L-444664 324928 L-443464 324928 L-443351 324928 L-443218 324927 L-443131 324925 L-443089 324927 L-443068 324928 L-443057 324931 L-442963 324934 L-442199 324934 L-441493 324934 L-441453 324932 L-441167 324931 L-440627 324929 L-440565 324928 L-440525 324927 L-440510 324925 L-440253 324924 L-439930 324922 L-439790 324921 L-439520 324919 L-439481 324918 L-439373 324916 L-438971 324915 L-438862 324913 L-438785 324912 L-438488 324910 L-438445 324909 L-438226 324909 L-438043 324909 L-437932 324909 L-437918 324907 L-437892 324907 L-437468 324906 L-437221 324904 L-436886 324903 L-436851 324901 L-436716 324900 L-436462 324900 L-436308 324898 L-435402 324898 L-435303 324897 L-435108 324894 L-434100 324892 L-433600 324891 L-433521 324889 L-433483 324888 L-433275 324886 L-433157 324885 L-433058 324883 L-432873 324882 L-432707 324880 L-432471 324879 L-432052 324877 L-432036 324876 L-431727 324874 L-430681 324873 L-430464 324871 L-430449 324870 L-430426 324868 L-430218 324867 L-430059 324865 L-430000 324864 L-428555 324862 L-428229 324862 L-428027 324862 L-427828 324862 L-427678 324862 L-427408 324861 L-426967 324859 L-426749 324859 L-426054 324858 L-425552 324856 L-425227 324855 L-424956 324855 L-424236 324853 L-424081 324853 L-422882 324850 L-422493 324849 L-422378 324846 L-422224 324844 L-422070 324843 L-421100 324841 L-421048 324840 L-420801 324838 L-420778 324837 L-420559 324835 L-420120 324832 L-419981 324829 L-419873 324826 L-419671 324825 L-419554 324823 L-419452 324822 L-419437 324822 L-419305 324820 L-419051 324819 L-418433 324817 L-417773 324816 L-417527 324816 L-417335 324814 L-416575 324814 L-416536 324814 L-416458 324813 L-416406 324810 L-416367 324808 L-416329 324807 L-416290 324805 L-416198 324804 L-416154 324803 L-416096 324800 L-416072 324798 L-415957 324797 L-415647 324794 L-415592 324792 L-415570 324791 L-415228 324789 L-415063 324788 L-415028 324785 L-414987 324783 L-414972 324782 L-414741 324780 L-414600 324779 L-414432 324777 L-413983 324777 L-413749 324777 L-413657 324777 L-413637 324779 L-413156 324777 L-413078 324777 L-412951 324776 L-412821 324773 L-412443 324771 L-412202 324768 L-412164 324767 L-412110 324765 L-411972 324762 L-411932 324761 L-411893 324759 L-411662 324758 L-411622 324756 L-411492 324755 L-411313 324753 L-411272 324752 L-411258 324750 L-411094 324749 L-411080 324747 L-410927 324746 L-410912 324744 L-410886 324743 L-410851 324741 L-410629 324738 L-410407 324738 L-410152 324737 L-410020 324738 L-409378 324738 L-408771 324737 L-407751 324737 L-407558 324735 L-407507 324734 L-407382 324732 L-407058 324731 L-406285 324729 L-406227 324728 L-406113 324726 L-405701 324725 L-405376 324723 L-405239 324722 L-405014 324720 L-404488 324719 L-404087 324719 L-404056 324717 L-403769 324717 L-403484 324716 L-403096 324714 L-402879 324713 L-402452 324710 L-402271 324708 L-401934 324707 L-401828 324705 L-401641 324705 L-401524 324704 L-401510 324704 L-400789 324702 L-400619 324701 L-400371 324699 L-400271 324698 L-399629 324696 L-399341 324695 L-399150 324693 L-398875 324692 L-398558 324690 L-398273 324689 L-398159 324686 L-398114 324684 L-397912 324683 L-396303 324681 L-396091 324680 L-395410 324679 L-395328 324677 L-395100 324676 L-394909 324676 L-394770 324674 L-394752 324674 L-394558 324674 L-394329 324674 L-394136 324674 L-393052 324673 L-392856 324673 L-392804 324673 L-392650 324673 L-392542 324673 L-392376 324673 L-392223 324671 L-392108 324670 L-391984 324667 L-391567 324665 L-391310 324662 L-391218 324661 L-391025 324661 L-390963 324659 L-390637 324659 L-390576 324659 L-390519 324658 L-390250 324656 L-389902 324655 L-389724 324653 L-389529 324652 L-389493 324653 L-388781 324653 L-388741 324656 L-388432 324658 L-388134 324659 L-388084 324661 L-387829 324662 L-387558 324664 L-387503 324664 L-386412 324664 L-386381 324662 L-386341 324662 L-386164 324662 L-385972 324661 L-385114 324661 L-384060 324659 L-383999 324658 L-383651 324656 L-382838 324656 L-382024 324656 L-382009 324656 L-381634 324656 L-381466 324656 L-381197 324656 L-380869 324655 L-380748 324653 L-380691 324653 L-380655 324652 L-380578 324652 L-380361 324650 L-380303 324649 L-379987 324647 L-379819 324646 L-379456 324646 L-379263 324646 L-379239 324646 L-379162 324644 L-378680 324644 L-378543 324644 L-378130 324643 L-377831 324643 L-377731 324641 L-377716 324640 L-377687 324638 L-377328 324637 L-376978 324635 L-376840 324634 L-376803 324634 L-375986 324632 L-375780 324631 L-375756 324629 L-375600 324629 L-375510 324628 L-375269 324628 L-374944 324626 L-374852 324626 L-374656 324625 L-374370 324625 L-373614 324623 L-373485 324622 L-373411 324620 L-372799 324619 L-372623 324617 L-372512 324616 L-372413 324614 L-372334 324613 L-372197 324611 L-372042 324611 L-371963 324611 L-371772 324611 L-371099 324611 L-371061 324610 L-370958 324608 L-370015 324607 L-369993 324605 L-369642 324604 L-369177 324602 L-369141 324601 L-368712 324599 L-368661 324599 L-368249 324598 L-368233 324598 L-368136 324598 L-368081 324598 L-368043 324598 L-367748 324596 L-366009 324595 L-364499 324593 L-363991 324592 L-363494 324590 L-363360 324589 L-363269 324587 L-363142 324586 L-363062 324583 L-362757 324581 L-362487 324580 L-362252 324580 L-361054 324578 L-360949 324578 L-360883 324577 L-360041 324575 L-359856 324574 L-358945 324572 L-358075 324569 L-357788 324568 L-357695 324565 L-357146 324563 L-356626 324562 L-355558 324560 L-355289 324559 L-355135 324559 L-355043 324559 L-354912 324560 L-354865 324562 L-354705 324562 L-353840 324562 L-353505 324562 L-353122 324560 L-352369 324559 L-352310 324557 L-351920 324557 L-351599 324557 L-351442 324556 L-350709 324556 L-350647 324556 L-350360 324556 L-349986 324556 L-349804 324556 L-349549 324555 L-349287 324552 L-349135 324550 L-348731 324549 L-347434 324547 L-347319 324546 L-346855 324544 L-345523 324543 L-345099 324541 L-345074 324540 L-344941 324538 L-344766 324537 L-344633 324537 L-344303 324535 L-343915 324534 L-343876 324532 L-343860 324529 L-343469 324528 L-343177 324526 L-342908 324526 L-342735 324526 L-341242 324526 L-341191 324525 L-341113 324526 L-339873 324528 L-339798 324528 L-339772 324531 L-339525 324529 L-339368 324529 L-339309 324528 L-338422 324528 L-338193 324526 L-337669 324526 L-337528 324528 L-337453 324528 L-336756 324529 L-336509 324529 L-335828 324528 L-335811 324528 L-335557 324526 L-335189 324526 L-335053 324525 L-334431 324522 L-334088 324520 L-334040 324519 L-333553 324517 L-333219 324514 L-333003 324514 L-332868 324513 L-332547 324511 L-332483 324511 L-332231 324510 L-331941 324508 L-331632 324507 L-331492 324505 L-330953 324504 L-330677 324502 L-329947 324501 L-329893 324501 L-329786 324501 L-329520 324501 L-329096 324501 L-328832 324499 L-328612 324498 L-328592 324496 L-328360 324495 L-328073 324493 L-328050 324493 L-328036 324492 L-327663 324492 L-327492 324490 L-327416 324487 L-327355 324486 L-327054 324483 L-326813 324480 L-326720 324478 L-326463 324477 L-326410 324475 L-326215 324474 L-325999 324475 L-325575 324475 L-325483 324477 L-325342 324475 L-324477 324474 L-324104 324472 L-323776 324469 L-323624 324468 L-323197 324468 L-322479 324466 L-322284 324466 L-321930 324465 L-321783 324463 L-321276 324460 L-321040 324459 L-320073 324457 L-320063 324456 L-318998 324454 L-318766 324453 L-318364 324451 L-318169 324450 L-318089 324448 L-317993 324447 L-317256 324447 L-317124 324447 L-316734 324447 L-316712 324445 L-316617 324445 L-316482 324444 L-316465 324442 L-316445 324441 L-314760 324439 L-314741 324439 L-314625 324438 L-314540 324438 L-314415 324438 L-314392 324436 L-314108 324435 L-314001 324433 L-313813 324431 L-313542 324429 L-312870 324428 L-312498 324426 L-311647 324426 L-311589 324425 L-311569 324425 L-311336 324425 L-311062 324423 L-310756 324423 L-310717 324420 L-310486 324420 L-310248 324419 L-309635 324417 L-309594 324416 L-309557 324413 L-309035 324411 L-308844 324410 L-308784 324408 L-308741 324407 L-308419 324407 L-308391 324405 L-308376 324405 L-307891 324404 L-307838 324402 L-307699 324401 L-307661 324399 L-307644 324398 L-307550 324396 L-306884 324396 L-306268 324395 L-305999 324395 L-305590 324395 L-305570 324393 L-305555 324393 L-305441 324392 L-305054 324390 L-304588 324390 L-304527 324389 L-304448 324387 L-304433 324386 L-303947 324383 L-303908 324381 L-303762 324381 L-303713 324380 L-303634 324381 L-303002 324380 L-302911 324380 L-302670 324380 L-302553 324378 L-302226 324378 L-301471 324377 L-301455 324377 L-300503 324377 L-300194 324375 L-299769 324374 L-299055 324372 L-298737 324371 L-298722 324369 L-298570 324366 L-298267 324365 L-298189 324363 L-298062 324362 L-297625 324362 L-297565 324362 L-297042 324362 L-296773 324362 L-296636 324360 L-296558 324359 L-296519 324357 L-295707 324357 L-295666 324357 L-295227 324357 L-295148 324357 L-294891 324356 L-294700 324354 L-294071 324353 L-293884 324351 L-293850 324348 L-293694 324347 L-293292 324344 L-293215 324342 L-293034 324341 L-292844 324339 L-291915 324336 L-291764 324335 L-290556 324333 L-289747 324332 L-289343 324330 L-288741 324329 L-288539 324327 L-288470 324326 L-288312 324324 L-288051 324323 L-287677 325662 L-287659 325660 L-287502 325660 L-286304 325660 L-285200 324320 L-284273 324318 L-284159 324317 L-283873 324315 L-283771 324314 L-283747 324314 L-283557 324311 L-283479 324309 L-283284 324309 L-282572 324309 L-282414 324311 L-281357 324311 L-280932 324311 L-280522 324309 L-280236 324306 L-280062 324305 L-279830 324304 L-279576 324302 L-279133 324301 L-278472 324299 L-278297 324298 L-277992 324296 L-277605 324295 L-277585 324293 L-277565 324292 L-277544 324290 L-277410 324289 L-277218 324287 L-275574 324286 L-274277 324284 L-274239 324283 L-274181 324281 L-274079 324280 L-273520 324278 L-272536 324277 L-271994 324274 L-271530 324272 L-270884 324271 L-270335 324269 L-269286 324268 L-268357 324266 L-268009 324265 L-267816 324263 L-267313 324262 L-266868 324262 L-266726 324260 L-266704 324260 L-266133 324260 L-265747 324257 L-264914 324256 L-264565 324254 L-264543 324253 L-264156 324253 L-263733 324251 L-263135 324250 L-263116 324248 L-262610 324248 L-262378 324247 L-262264 324247 L-261645 324244 L-261084 324242 L-261044 324241 L-260484 324239 L-260152 324238 L-260039 324238 L-260000 324236 L-259575 324236 L-259515 324236 L-259440 324235 L-259149 324235 L-258936 324233 L-258453 324230 L-258238 324229 L-257099 324227 L-257039 324226 L-257022 324224 L-256616 324223 L-255977 324221 L-255842 324220 L-255783 324218 L-255241 324217 L-254932 324215 L-254681 324215 L-254605 324214 L-254486 324212 L-253753 324209 L-253307 324208 L-253093 324206 L-252360 324205 L-252185 324203 L-251819 324203 L-251604 324203 L-250367 324203 L-250057 324203 L-249940 324203 L-249688 324202 L-249477 324200 L-248935 324199 L-248703 324197 L-248645 324197 L-248548 324196 L-248219 324196 L-247986 324194 L-246324 324193 L-245973 324191 L-245569 324188 L-245414 324187 L-244622 324185 L-243131 324184 L-242744 324182 L-242706 324181 L-242452 324180 L-242357 324178 L-242164 324177 L-241816 324177 L-241120 324175 L-240868 324175 L-240152 324174 L-238740 324172 L-238508 324171 L-238179 324171 L-236962 324171 L-236611 324172 L-236419 324174 L-236301 324175 L-233866 324175 L-232896 324174 L-232065 324172 L-231756 324171 L-230414 324169 L-229841 324168 L-229725 324166 L-229396 324166 L-229300 324165 L-228893 324165 L-228777 324163 L-228586 324162 L-227830 324160 L-227704 324159 L-227423 324157 L-226920 324156 L-226843 324154 L-225256 324162 L-225199 324169 L-224457 324178 L-224076 324185 L-223748 324184 L-223084 324182 L-222954 324181 L-222915 324181 L-222664 324181 L-222528 324181 L-222336 324180 L-222200 324180 L-221949 324177 L-221736 324177 L-221426 324175 L-221154 324175 L-220652 324175 L-220633 324175 L-220200 324174 L-219974 324172 L-219530 324171 L-219511 324169 L-219008 324168 L-218870 324166 L-218756 324165 L-218524 324163 L-218214 324162 L-217750 324160 L-217673 324159 L-217170 324157 L-216899 324156 L-216561 324154 L-216376 324153 L-215700 324151 L-215681 324151 L-215506 324150 L-215486 324148 L-214869 324147 L-214152 324145 L-213590 324144 L-213396 324144 L-213242 324142 L-213224 324142 L-212700 324139 L-212586 324138 L-211714 324136 L-211693 324135 L-211637 324133 L-210805 324132 L-210495 324130 L-210419 324129 L-210147 324127 L-210084 324127 L-210034 324124 L-209722 324121 L-209105 324118 L-208330 324117 L-207536 324115 L-207498 324114 L-207420 324112 L-207248 324111 L-206370 324109 L-205486 324108 L-205391 324106 L-205271 324105 L-204942 324103 L-204905 324103 L-204673 324102 L-204440 324102 L-203725 324099 L-203222 324097 L-202557 324096 L-202448 324094 L-202294 324093 L-202274 324091 L-202120 324090 L-201704 324088 L-201093 324087 L-200959 324085 L-200050 324084 L-199847 324082 L-199295 324081 L-196645 324079 L-196470 324078 L-196393 324075 L-195521 324073 L-195057 324072 L-194575 324070 L-194536 324067 L-193956 324066 L-193935 324064 L-192834 324063 L-191412 324061 L-190994 324060 L-190687 324058 L-190610 324057 L-190533 324056 L-190376 324054 L-190300 324053 L-189836 324051 L-188598 324050 L-188346 324048 L-187901 324047 L-187279 324045 L-187223 324044 L-187030 324044 L-186565 324042 L-186275 324039 L-186234 324036 L-186197 324033 L-186044 324030 L-185867 324029 L-184729 324026 L-184341 324024 L-184283 324023 L-184109 324021 L-181592 324018 L-180432 324017 L-179795 324015 L-179656 324014 L-179524 324011 L-179137 324009 L-178673 324008 L-178462 324005 L-178397 324003 L-178363 324002 L-177609 324000 L-177027 323999 L-176836 323997 L-176217 323996 L-176171 323994 L-175810 323993 L-175704 323991 L-175519 323990 L-175242 323988 L-174338 323987 L-173334 323985 L-172598 323984 L-172173 323982 L-172013 323981 L-171650 323979 L-171553 323978 L-171109 323976 L-171033 323975 L-170681 323975 L-170432 323972 L-170412 323969 L-170239 323966 L-169290 323961 L-169176 323960 L-168614 323958 L-168164 323957 L-167779 323955 L-166868 323954 L-166812 323952 L-165673 323951 L-165093 323948 L-164918 323946 L-164124 323943 L-163893 323942 L-163506 323940 L-163236 323939 L-163100 323937 L-162984 323936 L-162365 323936 L-162307 323936 L-162092 323936 L-161798 323936 L-161010 323934 L-160870 323934 L-159481 323933 L-159134 323933 L-158747 323932 L-158687 323929 L-158650 323927 L-158593 323926 L-157950 323924 L-157258 323923 L-157006 323923 L-156671 323921 L-156581 323921 L-156061 323920 L-155807 323918 L-155591 323915 L-155208 323914 L-155048 323912 L-154509 323909 L-153697 323908 L-153678 323906 L-153563 323906 L-153418 323905 L-153038 323905 L-152845 323905 L-152789 323903 L-152490 323902 L-152423 323900 L-152228 323899 L-151860 323897 L-151799 323896 L-151495 323894 L-151450 323894 L-151396 323893 L-150758 323893 L-150738 323891 L-150253 323890 L-149771 323891 L-149402 323891 L-149036 323893 L-148901 323893 L-148747 323891 L-148677 323890 L-148030 323890 L-148010 323888 L-147869 323888 L-147384 323887 L-147101 323887 L-147044 323885 L-146985 323885 L-146676 323884 L-146521 323882 L-146038 323882 L-145264 323882 L-144624 323882 L-144527 323881 L-143464 323881 L-143443 323879 L-142978 325682 L-142962 325682 L-142788 325682 L-142275 325682 L-139921 323878 L-138976 323876 L-138258 323875 L-137717 323872 L-137020 323870 L-136704 323869 L-136055 323867 L-135548 323866 L-135513 323864 L-135471 323863 L-135126 323861 L-134431 323860 L-134234 323858 L-134217 323855 L-134101 323854 L-133820 323852 L-132922 323849 L-132876 323848 L-132510 323845 L-132493 323843 L-132438 323842 L-132244 323840 L-132108 323839 L-132033 323837 L-131799 323836 L-131258 323834 L-131218 323833 L-131181 323831 L-131155 323830 L-130520 323827 L-129978 323825 L-128813 323824 L-128453 323822 L-127176 323822 L-127136 323821 L-127098 323821 L-126883 323819 L-126693 323818 L-126615 323816 L-126462 323815 L-126422 323813 L-125333 323812 L-125009 323812 L-124795 323810 L-124535 323810 L-124042 323810 L-124020 323816 L-123603 323822 L-123462 323827 L-123402 323833 L-123324 323833 L-123113 323831 L-121819 323831 L-121542 323830 L-120918 323828 L-119527 323827 L-119455 323825 L-119417 323822 L-119223 323821 L-118834 323819 L-118526 323818 L-118470 323816 L-118155 323816 L-118105 323816 L-118066 323815 L-118020 323813 L-117387 323812 L-116613 323810 L-116174 323809 L-116032 325629 L-116009 325627 L-115992 327447 L-115967 327447 L-115550 325627 L-115347 325626 L-115197 323805 L-115119 323803 L-115065 323802 L-114268 323802 L-114252 323802 L-113388 323802 L-113184 323802 L-112897 323800 L-112782 323799 L-112256 323797 L-112080 323796 L-111776 323794 L-111389 323793 L-111328 323790 L-111273 323788 L-111118 323787 L-110074 323785 L-109511 323785 L-109275 323784 L-109239 323784 L-108969 323784 L-108564 323782 L-107094 323781 L-105353 323779 L-104966 323778 L-104734 323776 L-104635 323775 L-104541 323773 L-104386 323770 L-103823 323770 L-103740 323769 L-103573 323769 L-103031 323770 L-101846 323770 L-101832 323770 L-101773 323770 L-101621 323769 L-101136 323767 L-100489 323766 L-99783 323763 L-99667 323761 L-98699 323760 L-98655 323758 L-97964 323758 L-97907 323757 L-97829 323757 L-97810 323755 L-97789 323754 L-97573 323752 L-96860 323752 L-96470 323751 L-96434 323749 L-96417 323748 L-96359 323746 L-95931 323745 L-95717 323743 L-95642 323740 L-95565 323739 L-95449 323737 L-95384 323737 L-95256 323736 L-95196 323736 L-95121 323733 L-95042 323731 L-94614 323730 L-93888 323728 L-93874 323725 L-93708 323724 L-93491 323721 L-93476 323718 L-92896 323716 L-92624 323715 L-92336 323713 L-91905 323712 L-91752 323710 L-91696 323709 L-91519 323707 L-90124 323706 L-89858 323703 L-88965 323700 L-88440 323698 L-87421 323695 L-87339 323694 L-86876 323692 L-86256 323692 L-85970 323691 L-85716 323691 L-85564 323689 L-85216 323688 L-84500 323686 L-83938 323685 L-83050 323684 L-82741 323684 L-82450 323684 L-81597 323684 L-81577 323684 L-80920 323684 L-80416 323681 L-80206 323679 L-80186 323678 L-79856 323676 L-79798 323676 L-79411 323676 L-78426 323676 L-77864 323676 L-77767 323676 L-77458 323675 L-77381 323675 L-76347 323673 L-76216 323672 L-76160 323670 L-75524 323669 L-75465 323667 L-75390 323666 L-73976 323664 L-73839 323663 L-73706 323661 L-73220 323660 L-72970 323658 L-72679 323657 L-72467 323655 L-71810 323654 L-71241 323651 L-71152 323649 L-71013 323648 L-70938 323646 L-69773 323646 L-69741 323645 L-69311 323645 L-69295 323643 L-69120 323642 L-67592 323640 L-67508 323642 L-66702 323642 L-66509 323642 L-66488 323642 L-65634 323640 L-65441 323639 L-64807 323637 L-64631 323636 L-64512 323634 L-64458 323634 L-64437 323634 L-64381 323634 L-63993 323634 L-63549 323634 L-63471 323633 L-63274 323633 L-63212 323631 L-62950 323630 L-62601 323630 L-62485 323628 L-61337 323628 L-61052 323627 L-60607 323625 L-59404 323624 L-59274 323622 L-58964 323621 L-58536 323619 L-57239 323618 L-56930 325372 L-56914 325372 L-56867 325406 L-56817 325406 L-55890 323649 L-55559 323649 L-55011 323613 L-54883 323612 L-54437 323610 L-52904 323609 L-52736 323607 L-52464 323606 L-52440 323603 L-51535 323601 L-51420 323600 L-50953 323598 L-50930 323597 L-50858 323595 L-50660 323594 L-50508 323592 L-50040 323591 L-49389 323589 L-48903 323588 L-48353 323588 L-47331 323588 L-47025 323588 L-46970 323588 L-46370 323586 L-45940 323585 L-45866 323585 L-45849 323583 L-45628 323583 L-45323 323582 L-45241 323580 L-44938 323580 L-44338 323579 L-44202 323577 L-43931 323576 L-43717 323574 L-43542 323574 L-43333 323574 L-43312 323574 L-43063 323592 L-42613 323610 L-42597 323628 L-42152 323646 L-40943 323646 L-40741 323645 L-39813 323645 L-39751 323643 L-39717 323642 L-38691 323640 L-38575 323640 L-38554 323639 L-38400 323639 L-38381 323639 L-37970 323637 L-37954 323637 L-37917 323636 L-37607 323634 L-37453 323633 L-37248 323633 L-36849 323631 L-35866 323631 L-35341 323631 L-35285 323630 L-35259 323630 L-34937 323628 L-34221 323628 L-33351 323628 L-33313 323628 L-33236 323628 L-32984 323627 L-32964 323625 L-32242 323625 L-32092 323624 L-31979 323624 L-31881 323622 L-30779 323621 L-30024 323619 L-29852 323618 L-29691 323616 L-29615 323615 L-29421 323615 L-28283 323613 L-27599 323613 L-27316 323612 L-26349 323610 L-26330 323609 L-25479 323607 L-25439 323606 L-25296 323604 L-24971 323603 L-24741 323601 L-24703 323600 L-24663 323598 L-24646 323595 L-24510 323594 L-24492 323592 L-24280 323591 L-24220 323589 L-24142 323588 L-24118 323586 L-24043 323585 L-23563 323583 L-23467 323582 L-23391 323580 L-23214 323579 L-23192 323577 L-23137 323576 L-23098 323574 L-23039 323573 L-22884 323571 L-21860 323570 L-21561 323568 L-21435 323567 L-21357 323565 L-20331 323564 L-20274 323562 L-20217 323561 L-20170 323560 L-20157 323558 L-20119 323557 L-20081 323555 L-18901 323554 L-18843 323552 L-18146 323552 L-17527 323551 L-17384 323551 L-16941 323549 L-16676 323548 L-16012 323548 L-15728 323546 L-14258 323546 L-13310 323545 L-13204 323543 L-13138 323543 L-13108 323542 L-12788 323540 L-12767 323540 L-11838 323540 L-11663 323542 L-10931 323543 L-10390 243074 L-10367 162603 L-10340 82133 L-10308 1662 L-10291 1661 L-10271 1658 L-10233 1655 L-10213 1655 L-10190 1658 L-10175 1659 L-10157 1661 L-10136 1661 L-10115 1658 L-10098 1656 L-10078 1655 L-10059 1655 L-10021 1655 L-9981 1652 L-9955 1649 L-9939 1644 L-9921 1641 L-9884 1638 L-9866 1637 L-9846 1635 L-9827 1634 L-9805 1631 L-9788 1629 L-9749 1625 L-9727 1620 L-9711 1619 L-9692 1616 L-9672 1614 L-9653 1613 L-9634 1610 L-9595 1608 L-9538 1607 L-9489 1604 L-9438 1602 L-9411 1599 L-9395 1596 L-9379 1595 L-9363 1593 L-9342 1592 L-9324 1592 L-9304 1589 L-9285 1587 L-9262 1584 L-9247 1580 L-9228 1577 L-9208 1575 L-9186 1573 L-9150 1570 L-9131 1567 L-9110 1564 L-9073 1561 L-9052 1559 L-9027 1558 L-9011 1556 L-8993 1553 L-8976 1546 L-8955 1538 L-8937 1529 L-8917 1523 L-8898 1519 L-8841 1516 L-8821 1511 L-8798 1508 L-8764 1504 L-8744 1499 L-8724 1496 L-8705 1493 L-8686 1492 L-8647 1490 L-8628 1487 L-8609 1484 L-8583 1483 L-8396 1480 L-8376 1477 L-8356 1475 L-8334 1472 L-8299 1469 L-8279 1466 L-8258 1462 L-8241 1457 L-8221 1453 L-8202 1449 L-8181 1446 L-8164 1443 L-8145 1440 L-8124 1437 L-8098 1434 L-8082 1431 L-8047 1428 L-8027 1426 L-8009 1423 L-7989 1422 L-7970 1419 L-7949 1416 L-7912 1413 L-7892 1410 L-7870 1407 L-7854 1404 L-7835 1401 L-7815 1398 L-7796 1396 L-7758 1393 L-7681 1392 L-7655 1389 L-7632 1386 L-7604 1381 L-7582 1378 L-7555 1375 L-7506 1372 L-7485 1371 L-7447 1366 L-7428 1363 L-7406 1362 L-7390 1359 L-7371 1357 L-7351 1356 L-7330 1354 L-7294 1351 L-7274 1350 L-7216 1348 L-7195 1347 L-7170 1347 L-7155 1345 L-7138 1345 L-7100 1344 L-7080 1341 L-7062 1338 L-7042 1335 L-7021 1332 L-7003 1329 L-6984 1325 L-6964 1322 L-6943 1319 L-6907 1316 L-6887 1314 L-6868 1313 L-6829 1311 L-6790 1310 L-6771 1308 L-6752 1307 L-6704 1305 L-6676 1304 L-6636 1301 L-6606 1299 L-6591 1296 L-6519 1293 L-6500 1290 L-6477 1289 L-6461 1287 L-6443 1286 L-6402 1286 L-6325 1283 L-6307 1281 L-6288 1278 L-6267 1277 L-6241 1275 L-6210 1274 L-6190 1274 L-6171 1271 L-6133 1268 L-6092 1263 L-6014 1259 L-5978 1256 L-5939 1253 L-5861 1251 L-5842 1250 L-5797 1248 L-5775 1250 L-5747 1250 L-5708 1247 L-5677 1245 L-5662 1242 L-5648 1239 L-5608 1236 L-5547 1235 L-5532 1232 L-5513 1229 L-5493 1226 L-5416 1221 L-5378 1218 L-5359 1215 L-5312 1214 L-5296 1212 L-5278 1211 L-5261 1209 L-5223 1205 L-5203 1202 L-5184 1198 L-5162 1195 L-5146 1192 L-5107 1189 L-5068 1186 L-5050 1183 L-5029 1178 L-5010 1172 L-4991 1166 L-4972 1160 L-4952 1157 L-4932 1156 L-4869 1154 L-4847 1153 L-4819 1151 L-4795 1147 L-4768 1142 L-4752 1136 L-4736 1130 L-4699 1127 L-4681 1124 L-4661 1123 L-4642 1121 L-4619 1118 L-4604 1117 L-4584 1115 L-4565 1111 L-4543 1105 L-4526 1100 L-4506 1096 L-4488 1093 L-4467 1090 L-4449 1088 L-4430 1085 L-4384 1084 L-4368 1081 L-4349 1078 L-4333 1074 L-4312 1069 L-4294 1065 L-4274 1060 L-4255 1054 L-4217 1053 L-4198 1051 L-4155 1050 L-4140 1048 L-4121 1044 L-4101 1039 L-4063 1036 L-4044 1035 L-4024 1032 L-3985 1030 L-3966 1027 L-3940 1024 L-3890 1023 L-3853 1021 L-3837 1020 L-3791 1018 L-3753 1015 L-3733 1014 L-3713 1011 L-3690 1009 L-3675 1006 L-3656 1003 L-3614 1002 L-3598 999 L-3559 994 L-3538 991 L-3521 987 L-3481 982 L-3455 979 L-3439 976 L-3405 973 L-3384 969 L-3366 963 L-3346 955 L-3305 948 L-3289 941 L-3211 936 L-3192 933 L-3153 932 L-3134 929 L-3115 926 L-3095 926 L-3076 924 L-3056 924 L-2961 926 L-2936 924 L-2909 923 L-2878 920 L-2863 917 L-2842 914 L-2804 911 L-2785 908 L-2761 905 L-2747 903 L-2727 902 L-2708 899 L-2686 896 L-2669 893 L-2649 890 L-2631 887 L-2610 884 L-2592 879 L-2573 876 L-2552 875 L-2527 872 L-2510 867 L-2492 863 L-2454 858 L-2437 852 L-2417 848 L-2398 843 L-2377 837 L-2340 834 L-2321 830 L-2298 826 L-2283 823 L-2264 820 L-2244 817 L-2205 814 L-2167 812 L-2147 811 L-2128 808 L-2083 806 L-1981 806 L-1966 805 L-1833 803 L-1818 802 L-1799 796 L-1779 791 L-1757 788 L-1721 784 L-1702 782 L-1681 781 L-1624 778 L-1598 775 L-1582 772 L-1564 767 L-1548 764 L-1527 763 L-1509 761 L-1470 758 L-1448 757 L-1412 755 L-1392 754 L-1370 752 L-1315 752 L-1296 751 L-1238 749 L-1199 748 L-1132 746 L-1105 743 L-1082 740 L-1055 737 L-1022 734 L-1006 733 L-985 730 L-967 734 L-948 737 L-928 742 L-907 746 L-890 745 L-794 743 L-735 742 L-695 740 L-670 736 L-639 733 L-600 730 L-562 725 L-541 722 L-503 719 L-464 716 L-426 713 L-407 712 L-368 709 L-348 706 L-329 704 L-309 703 L-290 702 L-271 700 L-252 697 L-225 693 L-176 688 L-136 685 L-106 682 L-91 679 L-77 678 L-38 675 L-19 672 L22 669 L38 666 L56 663 L97 658 L134 655 L174 652 L211 651 L258 648 L272 646 L347 645 L386 643 L406 643 L424 640 L443 639 L541 636 L579 633 L638 630 L657 627 L675 624 L702 624 L724 622 L790 621 L807 621 L823 619 L836 618 L872 616 L929 615 L953 612 L986 609 L1006 606 L1044 601 L1065 597 L1083 592 L1104 589 L1121 586 L1140 585 L1161 582 L1187 579 L1237 578 L1258 575 L1315 573 L1335 570 L1431 569 L1449 566 L1489 564 L1508 563 L1527 558 L1565 557 L1586 555 L1604 554 L1653 552 L1704 552 L1731 551 L1747 548 L1763 546 L1779 543 L1818 540 L1838 539 L1857 536 L1915 533 L1934 530 L1957 525 L1973 522 L1993 518 L2011 515 L2069 510 L2090 506 L2115 501 L2150 495 L2166 491 L2186 488 L2204 485 L2224 483 L2244 480 L2265 477 L2282 476 L2302 474 L2321 473 L2343 470 L2359 467 L2378 464 L2398 461 L2418 459 L2456 458 L2475 454 L2495 449 L2560 443 L2581 439 L2609 436 L2649 431 L2681 427 L2695 422 L2729 419 L2767 416 L2786 415 L2809 412 L2824 410 L2843 407 L2863 403 L2901 401 L2921 398 L2961 397 L3018 394 L3044 392 L3079 389 L3095 386 L3116 383 L3133 380 L3172 377 L3194 376 L3210 373 L3230 370 L3250 365 L3272 362 L3287 358 L3307 355 L3384 353 L3404 350 L3424 347 L3443 344 L3461 341 L3487 338 L3561 335 L3588 332 L3604 328 L3620 327 L3636 324 L3657 321 L3675 318 L3714 316 L3737 315 L3752 313 L3771 310 L3791 309 L3813 306 L3830 304 L3926 301 L3947 298 L3972 297 L4006 294 L4023 291 L4044 288 L4062 285 L4082 283 L4100 282 L4122 280 L4139 277 L4158 274 L4178 271 L4200 268 L4216 265 L4235 264 L4275 261 L4294 258 L4333 255 L4390 253 L4416 250 L4438 247 L4466 244 L4490 241 L4516 238 L4549 237 L4565 235 L4585 235 L4603 235 L4623 235 L4643 235 L4681 232 L4700 229 L4720 225 L4741 222 L4777 219 L4797 217 L4817 214 L4835 211 L4854 210 L4875 207 L4901 204 L4916 201 L4934 198 L4952 194 L4972 191 L4990 186 L5009 182 L5029 179 L5087 174 L5107 173 L5129 170 L5222 167 L5261 165 L5280 176 L5300 186 L5318 203 L5416 219 L5443 223 L5476 228 L5493 226 L5593 225 L5609 222 L5628 220 L5648 217 L5668 214 L5687 210 L5705 206 L5725 201 L5745 197 L5783 194 L5804 192 L5861 191 L5880 195 L5899 217 L5919 240 L5937 261 L5957 277 L5978 277 L6035 277 L6056 279 L6092 277 L6112 276 L6170 274 L6190 273 L6228 277 L6247 280 L6274 283 L6323 286 L6363 283 L6422 280 L6442 277 L6461 276 L6500 274" />
</svg>
