<svg xmlns="http://www.w3.org/2000/svg" version="1.1" viewBox="0 0 6500 1000">
	<path fill="none" stroke="gold" stroke-width="125" stroke-linecap="round" stroke-linejoin="round" d="M0 294169  L-1326603 294169 L-1326419 294168 L-1325929 294165 L-1325635 294164 L-1325324 294161 L-1325089 294160 L-1325036 294157 L-1324977 294155 L-1324823 294153 L-1324783 294151 L-1324650 294149 L-1324358 294148 L-1323817 294148 L-1323207 294147 L-1323159 294147 L-1322519 294145 L-1322486 294145 L-1321960 294145 L-1321827 294144 L-1321437 294141 L-1321109 294139 L-1320992 294136 L-1320781 294133 L-1320064 294133 L-1319494 294132 L-1319387 294132 L-1319212 294131 L-1318991 294128 L-1318589 294127 L-1318563 294124 L-1317636 294121 L-1317548 294119 L-1317466 294116 L-1317396 294113 L-1317098 294112 L-1316946 294109 L-1315056 294111 L-1314955 294111 L-1314693 294111 L-1314399 294112 L-1314258 294109 L-1314009 294109 L-1313974 294108 L-1313815 294107 L-1313352 294104 L-1313099 294103 L-1312886 294100 L-1312635 294099 L-1312286 294097 L-1311359 294095 L-1311265 294092 L-1310854 294091 L-1309684 294088 L-1308495 294087 L-1308402 294084 L-1308375 294081 L-1308109 294079 L-1307810 294076 L-1307681 294073 L-1307644 294071 L-1306829 294071 L-1306445 294072 L-1305385 294073 L-1305323 294073 L-1305058 294100 L-1304587 294125 L-1304395 294151 L-1304131 294176 L-1303794 294175 L-1303659 294173 L-1303203 294172 L-1302460 294171 L-1302442 294169 L-1302277 294167 L-1302209 294167 L-1301693 294165 L-1300664 294165 L-1300468 294164 L-1299979 294163 L-1299617 294161 L-1299209 294161 L-1298823 294163 L-1297119 294163 L-1297021 294163 L-1296950 294163 L-1296888 294163 L-1296704 294161 L-1296367 294161 L-1295727 294160 L-1295650 294159 L-1295589 294159 L-1295402 294157 L-1295323 294157 L-1295145 294156 L-1295126 294155 L-1294896 294155 L-1294508 294153 L-1293620 294153 L-1293580 294152 L-1293492 294151 L-1293465 294148 L-1292457 294147 L-1292307 294144 L-1292283 294143 L-1292150 294141 L-1292110 294140 L-1290852 294139 L-1290794 294139 L-1290254 294137 L-1290202 294137 L-1290155 294137 L-1289760 294136 L-1289620 294135 L-1289421 294133 L-1289274 294133 L-1289109 294133 L-1288833 294135 L-1288474 294135 L-1287921 294133 L-1287276 294132 L-1287018 294129 L-1286864 294128 L-1286463 294127 L-1286423 294125 L-1286302 294124 L-1286240 294125 L-1286226 294125 L-1286133 294125 L-1285840 294124 L-1285688 294119 L-1285358 294116 L-1285280 294113 L-1285204 294112 L-1284977 294108 L-1284911 294105 L-1284683 294103 L-1284631 294100 L-1284466 294099 L-1283460 294097 L-1283277 294096 L-1282726 294095 L-1282333 294092 L-1281936 294091 L-1281085 294088 L-1281007 294087 L-1280428 294085 L-1279987 294085 L-1279746 294084 L-1279589 294084 L-1279188 294081 L-1279167 294081 L-1278722 294080 L-1278317 294079 L-1278181 294076 L-1278006 294073 L-1277869 294071 L-1277619 294068 L-1276619 294067 L-1276537 294065 L-1276402 294064 L-1276363 294063 L-1275473 294061 L-1275258 294060 L-1274814 294059 L-1274697 294057 L-1274640 294056 L-1273964 294056 L-1273864 294055 L-1273835 294055 L-1272493 294053 L-1272087 294052 L-1272048 294051 L-1271119 294049 L-1271021 294048 L-1270888 294047 L-1270484 294045 L-1270458 294044 L-1270365 294043 L-1270149 294041 L-1269738 294039 L-1268584 294036 L-1268292 294033 L-1268264 294031 L-1267655 294029 L-1267405 294027 L-1267386 294025 L-1266456 294024 L-1266405 294021 L-1266282 294020 L-1266265 294017 L-1266109 294016 L-1265934 294013 L-1265797 294012 L-1265741 294011 L-1265633 294009 L-1265548 294008 L-1265314 294007 L-1265239 294005 L-1264931 294004 L-1264813 294003 L-1264643 294001 L-1264552 294000 L-1264450 294000 L-1264426 293999 L-1264349 293999 L-1264251 293996 L-1263884 293995 L-1263780 293993 L-1263276 293992 L-1262824 293991 L-1262786 293989 L-1262762 293988 L-1262721 293987 L-1262593 293985 L-1262492 293984 L-1262050 293983 L-1261768 293981 L-1261176 293980 L-1261045 293979 L-1260771 293976 L-1260618 293975 L-1260465 293973 L-1260380 293971 L-1260302 293969 L-1260116 293968 L-1260066 293968 L-1260038 293967 L-1259959 293965 L-1259935 293964 L-1259652 293961 L-1259048 293959 L-1258053 293957 L-1257755 293956 L-1257021 293955 L-1256777 293953 L-1256687 293952 L-1256109 293951 L-1255411 293949 L-1254659 293948 L-1254340 293947 L-1253957 293944 L-1253880 293943 L-1253246 293941 L-1253060 293940 L-1252973 293940 L-1252843 293940 L-1252530 293939 L-1252481 293937 L-1252339 293936 L-1252317 293935 L-1251349 293933 L-1250804 293932 L-1250326 293932 L-1250265 293932 L-1249941 293932 L-1249920 293931 L-1249857 293931 L-1249647 293929 L-1249570 293928 L-1249516 293927 L-1249493 293925 L-1249454 293924 L-1249438 293923 L-1248681 293921 L-1248664 293920 L-1247865 293919 L-1247713 293917 L-1246807 293916 L-1246301 293915 L-1246072 293912 L-1246030 293912 L-1245915 293911 L-1245739 293909 L-1244984 293911 L-1244849 293909 L-1244685 293908 L-1244367 293907 L-1244191 293904 L-1243169 293901 L-1243146 293899 L-1242895 293897 L-1242682 293895 L-1242048 293893 L-1241810 293891 L-1241777 293888 L-1241599 293885 L-1241519 293883 L-1241429 293881 L-1241365 293879 L-1240924 293876 L-1240901 293875 L-1240360 293873 L-1240104 293872 L-1239609 293871 L-1238732 293869 L-1238695 293868 L-1238643 293867 L-1238602 293865 L-1238484 293864 L-1238208 293863 L-1238001 293860 L-1237804 293857 L-1237781 293855 L-1237730 293852 L-1237691 293851 L-1237613 293849 L-1237016 293847 L-1236955 293845 L-1236852 293844 L-1236698 293843 L-1236066 293841 L-1235385 293840 L-1235082 293837 L-1234736 293836 L-1234538 293835 L-1234490 293832 L-1234169 293831 L-1233542 293829 L-1233395 293828 L-1233359 293827 L-1233301 293825 L-1233224 293823 L-1232983 293823 L-1232895 293821 L-1232801 293820 L-1232507 293819 L-1232373 293817 L-1232312 293816 L-1232276 293813 L-1232003 293813 L-1230997 293812 L-1230822 293811 L-1230771 293811 L-1230478 293809 L-1230286 293807 L-1229953 293805 L-1229446 293804 L-1228884 293801 L-1228869 293799 L-1228853 293797 L-1228752 293795 L-1228638 293792 L-1228599 293789 L-1228561 293788 L-1228495 293788 L-1228467 293787 L-1228328 293788 L-1228035 293788 L-1227985 293788 L-1227880 293788 L-1227616 293787 L-1227151 293785 L-1227006 293785 L-1226952 293783 L-1226895 293781 L-1226704 293780 L-1226338 293779 L-1226124 293779 L-1225929 293779 L-1225871 293779 L-1225812 293776 L-1225658 293775 L-1225389 293773 L-1224959 293780 L-1224943 293780 L-1224867 293779 L-1224802 293777 L-1224673 293768 L-1224649 293767 L-1224365 293765 L-1224317 293764 L-1224263 293763 L-1223800 293761 L-1223762 293761 L-1223721 293760 L-1223531 293759 L-1223050 293757 L-1222563 293756 L-1222547 293755 L-1222509 293753 L-1222252 293752 L-1222175 293749 L-1221945 293748 L-1221929 293745 L-1221635 293743 L-1221192 293742 L-1220745 293740 L-1220241 293739 L-1220087 293738 L-1219800 293736 L-1219760 293734 L-1219429 293732 L-1219207 293731 L-1218690 293728 L-1218614 293727 L-1218367 293724 L-1218172 293722 L-1218112 293720 L-1217336 293719 L-1217262 293719 L-1217031 293718 L-1217015 293718 L-1216953 293716 L-1216757 293715 L-1216293 293715 L-1216270 293714 L-1216140 293714 L-1214839 293714 L-1214823 293714 L-1214745 293712 L-1214652 293712 L-1214435 293712 L-1214282 293711 L-1214104 293712 L-1214050 293714 L-1213763 293715 L-1213723 293715 L-1213354 293715 L-1212914 293715 L-1212731 293715 L-1212410 293714 L-1212114 293714 L-1211668 293711 L-1211597 293710 L-1211134 293707 L-1210696 293706 L-1210514 293704 L-1209060 293702 L-1208928 293700 L-1208471 293698 L-1208245 293696 L-1207859 293694 L-1207342 293691 L-1206388 293688 L-1205594 293686 L-1204919 293684 L-1204494 293682 L-1204183 293680 L-1203953 293676 L-1203269 293672 L-1203256 293668 L-1203047 293663 L-1203024 293662 L-1202850 293659 L-1201900 293658 L-1201632 293655 L-1200817 293654 L-1200506 293651 L-1200469 293650 L-1200411 293647 L-1199795 293646 L-1199157 293643 L-1197531 293642 L-1196857 293640 L-1196215 293640 L-1196137 293640 L-1196081 293640 L-1196045 293640 L-1196017 293639 L-1195905 293636 L-1195887 293635 L-1195864 293634 L-1195711 293632 L-1195657 293630 L-1195579 293628 L-1195460 293627 L-1195362 293626 L-1195245 293624 L-1194976 293622 L-1194706 293620 L-1194688 293618 L-1194489 293616 L-1194342 293614 L-1194115 293612 L-1193981 293611 L-1193672 293610 L-1193612 293608 L-1193259 293606 L-1192910 293604 L-1192809 293603 L-1192745 293600 L-1192685 293599 L-1192301 293596 L-1191920 293595 L-1191816 293594 L-1191555 293592 L-1191284 293590 L-1191125 293588 L-1191093 293587 L-1191031 293586 L-1190889 293584 L-1190705 293583 L-1190661 293582 L-1190373 293582 L-1190357 293580 L-1190123 293580 L-1190063 293579 L-1190024 293579 L-1189444 293578 L-1189311 293576 L-1189287 293571 L-1189269 293562 L-1189252 293551 L-1189235 293540 L-1189211 293530 L-1189195 293522 L-1189174 293512 L-1189157 293503 L-1189134 293498 L-1189117 293492 L-1189096 293488 L-1189079 293486 L-1189030 293482 L-1188958 293478 L-1188923 293471 L-1188899 293466 L-1188864 293460 L-1188822 293455 L-1188785 293452 L-1188769 293447 L-1188745 293443 L-1188708 293440 L-1188691 293436 L-1188668 293434 L-1188650 293431 L-1188632 293428 L-1188616 293426 L-1188587 293422 L-1188561 293418 L-1188515 293416 L-1188499 293414 L-1188457 293412 L-1188409 293410 L-1188338 293407 L-1188323 293404 L-1188307 293402 L-1188245 293400 L-1188205 293399 L-1188166 293398 L-1188000 293396 L-1187935 293395 L-1187919 293394 L-1187875 293391 L-1187816 293390 L-1187604 293388 L-1187570 293387 L-1187528 293386 L-1187450 293384 L-1186913 293383 L-1186834 293382 L-1186730 293379 L-1186642 293378 L-1186465 293376 L-1186115 293375 L-1185959 293374 L-1185521 293372 L-1185364 293371 L-1185234 293370 L-1184531 293367 L-1184329 293366 L-1183369 293363 L-1182887 293362 L-1182787 293362 L-1182695 293360 L-1182450 293359 L-1182377 293358 L-1181934 293355 L-1181838 293354 L-1181823 293352 L-1181807 293351 L-1181782 293350 L-1181316 293348 L-1181099 293347 L-1180960 293346 L-1180666 293344 L-1180577 293343 L-1180536 293342 L-1180506 293340 L-1180334 293339 L-1180275 293338 L-1180198 293336 L-1180118 293335 L-1180048 293335 L-1179739 293334 L-1179654 293332 L-1179440 293331 L-1179405 293330 L-1178721 293328 L-1178623 293327 L-1178417 293326 L-1178371 293324 L-1178093 293323 L-1178030 293322 L-1178013 293319 L-1177935 293318 L-1177627 293315 L-1177603 293314 L-1177549 293311 L-1177526 293310 L-1177404 293308 L-1177268 293306 L-1177024 293304 L-1176898 293304 L-1176251 293303 L-1176235 293303 L-1176211 293303 L-1176030 293300 L-1175954 293299 L-1175862 293298 L-1175435 293296 L-1175019 293295 L-1174626 293292 L-1174547 293291 L-1174528 293290 L-1174165 293288 L-1173928 293287 L-1173700 293286 L-1173387 293284 L-1173309 293283 L-1173228 293280 L-1173050 293278 L-1173035 293276 L-1172769 293274 L-1172689 293272 L-1172459 293271 L-1172233 293270 L-1171917 293270 L-1171742 293268 L-1171381 293268 L-1170989 293267 L-1170920 293264 L-1170856 293263 L-1170716 293260 L-1170664 293259 L-1170562 293256 L-1170061 293255 L-1169863 293254 L-1169617 293253 L-1169431 293251 L-1169132 293250 L-1169055 293249 L-1168889 293246 L-1168005 293245 L-1167976 293242 L-1167853 293239 L-1167275 293238 L-1167197 293237 L-1166483 293237 L-1166172 293237 L-1165958 293237 L-1165942 293237 L-1165555 293237 L-1165030 293234 L-1164584 293233 L-1164254 293231 L-1164102 293230 L-1163776 293230 L-1163597 293229 L-1163516 293229 L-1163310 293226 L-1163134 293225 L-1162205 293223 L-1161316 293222 L-1161277 293221 L-1161049 293221 L-1160670 293219 L-1159882 293218 L-1159648 293217 L-1159572 293215 L-1159214 293214 L-1158643 293211 L-1158376 293210 L-1157989 293209 L-1157885 293209 L-1157715 293209 L-1157097 293209 L-1156886 293209 L-1156578 293209 L-1156525 293207 L-1156397 293206 L-1156344 293205 L-1156225 293203 L-1155889 293201 L-1154929 293199 L-1154798 293197 L-1154596 293195 L-1153965 293194 L-1153654 293193 L-1153240 293191 L-1153212 293190 L-1153067 293189 L-1152647 293187 L-1151314 293187 L-1151267 293186 L-1151139 293183 L-1151122 293182 L-1150544 293179 L-1150339 293178 L-1150309 293177 L-1150268 293175 L-1150211 293174 L-1150173 293173 L-1150095 293171 L-1149952 293170 L-1149498 293169 L-1149379 293167 L-1149094 293166 L-1148721 293165 L-1148625 293163 L-1148298 293162 L-1147944 293161 L-1147774 293159 L-1147727 293158 L-1147618 293157 L-1147529 293155 L-1147501 293154 L-1147424 293151 L-1147121 293150 L-1147087 293147 L-1147016 293146 L-1146648 293145 L-1146312 293143 L-1146231 293143 L-1146012 293142 L-1145840 293141 L-1145812 293139 L-1145315 293138 L-1144766 293135 L-1143886 293134 L-1143787 293131 L-1143710 293130 L-1143436 293129 L-1143188 293126 L-1143115 293125 L-1143053 293122 L-1142934 293121 L-1142892 293119 L-1142782 293118 L-1142705 293115 L-1142004 293114 L-1141759 293113 L-1141719 293111 L-1141563 293110 L-1140963 293110 L-1140736 293110 L-1140644 293110 L-1140169 293110 L-1139572 293107 L-1139052 293106 L-1139031 293105 L-1138886 293103 L-1138566 293103 L-1138024 293103 L-1137792 293103 L-1137621 293103 L-1137135 293102 L-1136907 293101 L-1136822 293099 L-1136476 293098 L-1136150 293098 L-1135627 293097 L-1135300 293095 L-1134699 293094 L-1134502 293091 L-1134450 293090 L-1134409 293089 L-1134128 293087 L-1133444 293085 L-1133133 293083 L-1133108 293081 L-1132917 293079 L-1132694 293078 L-1132608 293077 L-1131945 293074 L-1131920 293073 L-1131699 293070 L-1131369 293069 L-1131017 293066 L-1130812 293065 L-1130579 293062 L-1130322 293061 L-1130132 293058 L-1130085 293057 L-1129858 293055 L-1129823 293054 L-1129667 293053 L-1129452 293051 L-1129279 293050 L-1129188 293049 L-1128910 293047 L-1128667 293046 L-1128351 293045 L-1127925 293045 L-1127888 293045 L-1127404 293045 L-1127171 293045 L-1126959 293043 L-1126733 293042 L-1126183 293042 L-1125936 293041 L-1125102 293041 L-1125046 293039 L-1125025 293038 L-1124867 293037 L-1124405 293035 L-1124364 293034 L-1124024 293031 L-1123891 293030 L-1123668 293029 L-1123096 293027 L-1122624 293026 L-1122430 293025 L-1122237 293023 L-1122047 293022 L-1121946 293021 L-1121577 293019 L-1121531 293018 L-1121450 293017 L-1120156 293015 L-1120108 293014 L-1119840 293014 L-1119694 293014 L-1119144 293014 L-1119027 293013 L-1118945 293011 L-1118586 293010 L-1118362 293009 L-1118081 293007 L-1117752 293005 L-1117244 293003 L-1117131 293002 L-1117052 293001 L-1116888 292999 L-1116594 292999 L-1116125 292999 L-1115928 293001 L-1115878 293001 L-1115228 292999 L-1115106 292998 L-1114652 292998 L-1114616 292997 L-1114148 292995 L-1114037 292994 L-1114021 292993 L-1113805 292993 L-1113624 292991 L-1113093 292991 L-1112063 292991 L-1111863 292990 L-1111405 292989 L-1110457 292986 L-1110358 292985 L-1110004 292982 L-1109944 292981 L-1109929 292979 L-1109894 292978 L-1109524 292977 L-1109404 292975 L-1109162 292974 L-1108999 292973 L-1108811 292971 L-1108690 292970 L-1107620 292967 L-1106762 292966 L-1106549 292963 L-1106452 292962 L-1106278 292959 L-1105945 292958 L-1105873 292957 L-1105815 292955 L-1105640 292955 L-1105251 292954 L-1105016 292953 L-1104905 292951 L-1104788 292950 L-1103807 292949 L-1103781 292947 L-1103187 292945 L-1103154 292945 L-1103006 292943 L-1102721 292942 L-1101810 292942 L-1100863 292942 L-1100710 292941 L-1100608 292941 L-1100476 292939 L-1100333 292938 L-1100307 292937 L-1100193 292935 L-1099974 292934 L-1099293 292933 L-1099164 292931 L-1098860 292930 L-1098620 292927 L-1098288 292926 L-1097649 292925 L-1097307 292922 L-1097245 292921 L-1097089 292921 L-1096168 292921 L-1095697 292921 L-1095654 292921 L-1095641 292919 L-1095599 292918 L-1095577 292917 L-1095551 292915 L-1095407 292914 L-1094984 292913 L-1094649 292913 L-1094458 292911 L-1094029 292911 L-1093841 292910 L-1093452 292907 L-1092918 292906 L-1092545 292905 L-1092524 292905 L-1092274 292903 L-1092156 292902 L-1092080 292901 L-1091944 292899 L-1091905 292898 L-1091825 292897 L-1091430 292895 L-1090934 292894 L-1090823 292891 L-1090649 292890 L-1090341 292889 L-1089894 292887 L-1089571 292886 L-1089428 292883 L-1089001 292881 L-1088848 292878 L-1088793 292875 L-1087979 292874 L-1087959 292873 L-1087587 292871 L-1087530 292871 L-1086401 292870 L-1086334 292870 L-1085775 292869 L-1085581 292867 L-1085444 292866 L-1085211 292865 L-1084864 292863 L-1084829 292861 L-1084794 292859 L-1084726 292857 L-1084377 292855 L-1084205 292854 L-1083720 292853 L-1083703 292851 L-1083378 292850 L-1083221 292849 L-1082080 292846 L-1082055 292845 L-1081863 292842 L-1081670 292841 L-1081420 292839 L-1081402 292838 L-1080382 292837 L-1080085 292835 L-1080009 292834 L-1079873 292831 L-1079697 292830 L-1079120 292827 L-1078905 292826 L-1078841 292825 L-1078710 292823 L-1078674 292821 L-1078150 292819 L-1078012 293344 L-1077998 293344 L-1077975 293344 L-1077955 293344 L-1077728 292818 L-1076952 292818 L-1076910 292818 L-1076543 292818 L-1076464 292817 L-1076412 292815 L-1075739 292814 L-1074997 292813 L-1074572 292813 L-1074124 292811 L-1073063 292810 L-1072751 292807 L-1072341 292807 L-1072269 292806 L-1071745 292806 L-1071650 292806 L-1071632 292806 L-1071187 292805 L-1071002 292802 L-1070222 292799 L-1069549 292798 L-1069137 292794 L-1068905 292791 L-1068765 292790 L-1068683 292787 L-1068663 292786 L-1068587 292786 L-1068459 292785 L-1068142 292786 L-1067917 292786 L-1067592 292785 L-1067530 292785 L-1067160 292785 L-1067127 292785 L-1066918 292785 L-1066251 292785 L-1066174 292785 L-1066016 292782 L-1065905 292782 L-1065578 292781 L-1065424 292779 L-1065083 292779 L-1065026 292777 L-1064687 292774 L-1064484 292773 L-1064431 292770 L-1063054 292769 L-1062925 292767 L-1062491 292766 L-1062171 292765 L-1061343 292762 L-1061220 292761 L-1060489 292758 L-1060333 292756 L-1060292 292754 L-1060239 292753 L-1060215 292752 L-1060101 292750 L-1059805 292749 L-1059515 292748 L-1059461 292746 L-1059340 292745 L-1059310 292744 L-1059210 292742 L-1058766 292742 L-1058615 292741 L-1057779 292741 L-1057237 292740 L-1056903 292740 L-1056887 292738 L-1056811 292737 L-1056695 292736 L-1056501 292734 L-1056236 292733 L-1055402 292732 L-1055305 292730 L-1054784 292729 L-1054742 292728 L-1054643 292726 L-1053815 292726 L-1053680 292725 L-1053341 292725 L-1052787 292724 L-1052407 292722 L-1052244 292721 L-1051934 292720 L-1051122 292718 L-1050816 292717 L-1050547 292717 L-1050226 292717 L-1049905 292718 L-1049629 292718 L-1048801 292716 L-1048705 292714 L-1048613 292710 L-1048508 292706 L-1048122 292702 L-1047642 292700 L-1047625 292698 L-1047507 292697 L-1047139 292694 L-1047044 292693 L-1046210 292690 L-1046133 292689 L-1045833 292688 L-1045743 292686 L-1045335 292684 L-1045225 292681 L-1044526 292680 L-1044053 292678 L-1043993 292677 L-1043774 292674 L-1043500 292673 L-1043387 292672 L-1042360 292670 L-1041973 292669 L-1041953 292668 L-1041620 292666 L-1041376 292665 L-1040942 292664 L-1040832 292662 L-1040715 292661 L-1040263 292658 L-1039673 292657 L-1039336 292656 L-1037443 292654 L-1037330 292652 L-1037118 292650 L-1035799 292649 L-1035693 292349 L-1035627 292053 L-1035591 291780 L-1035529 291780 L-1035029 292077 L-1034354 292370 L-1034332 292641 L-1034062 292638 L-1033094 292638 L-1032405 292637 L-1032243 292636 L-1031702 292634 L-1031612 292633 L-1030593 292632 L-1029645 292629 L-1029279 292630 L-1029177 292632 L-1028588 292632 L-1028529 292632 L-1028429 292630 L-1027988 292628 L-1027881 292626 L-1027439 292625 L-1026439 292621 L-1026183 292617 L-1026080 292613 L-1025950 292610 L-1025583 292608 L-1025002 292605 L-1024971 292604 L-1024656 292602 L-1022673 292601 L-1022557 292600 L-1022490 292600 L-1022131 292598 L-1020512 292597 L-1020335 292597 L-1020190 292597 L-1019368 292598 L-1019315 292600 L-1019261 292600 L-1018826 292600 L-1017846 292601 L-1017772 292601 L-1016687 292600 L-1016474 292600 L-1015758 292597 L-1015370 292596 L-1015151 292593 L-1014832 292590 L-1014338 292588 L-1014210 292586 L-1013981 292584 L-1013749 292581 L-1013690 292580 L-1013400 292578 L-1013128 292576 L-1012098 292574 L-1010433 292573 L-1010014 292572 L-1009877 292570 L-1009720 292570 L-1009415 292569 L-1009187 292566 L-1009029 292565 L-1008869 292562 L-1008700 292560 L-1008653 292558 L-1008600 292557 L-1008578 292557 L-1008192 292556 L-1007942 292556 L-1007672 292556 L-1007511 292556 L-1007421 292556 L-1005762 292556 L-1005597 292557 L-1005217 292556 L-1004757 292556 L-1004148 292553 L-1003055 292552 L-1002623 292550 L-1002592 292549 L-1002530 292548 L-1002512 292546 L-1000808 292545 L-1000766 292544 L-1000300 292542 L-1000113 292541 L-1000081 292538 L-999486 292537 L-999436 292536 L-999113 292534 L-999063 292533 L-998852 292532 L-998834 292530 L-998568 292528 L-998515 292526 L-998046 292525 L-997536 292522 L-997457 292522 L-997163 292521 L-997146 292520 L-997108 292518 L-997037 292517 L-996880 292516 L-995933 292516 L-995877 292516 L-995356 292516 L-995164 292514 L-995063 292514 L-994837 292513 L-994327 292513 L-993939 292549 L-993870 292549 L-993521 292548 L-993164 292546 L-992035 292508 L-991984 292505 L-991758 292504 L-991724 292502 L-991599 292500 L-991500 292500 L-991236 292500 L-990495 292501 L-989917 292501 L-989623 292501 L-988918 292501 L-988739 292500 L-988716 292500 L-988080 292498 L-987768 292497 L-987372 292497 L-987342 292496 L-987321 292494 L-987168 292493 L-986482 292493 L-986466 292493 L-986126 292493 L-985853 292492 L-985816 292490 L-985760 292488 L-985738 292486 L-985666 292485 L-985334 292484 L-985228 292482 L-985199 292480 L-985001 292478 L-984848 292477 L-983980 292476 L-983418 292473 L-983402 292473 L-983301 292472 L-983198 292473 L-983052 292473 L-982974 292473 L-982936 292472 L-982880 292470 L-982807 292469 L-982662 292468 L-982180 292468 L-981776 292466 L-980909 292468 L-980889 292468 L-980632 292468 L-980555 292468 L-980526 292466 L-980516 292464 L-980498 292462 L-980205 292461 L-980166 292460 L-980094 292458 L-980020 292457 L-979815 292456 L-979656 292452 L-979354 292448 L-979277 292442 L-979260 292438 L-979043 292436 L-978812 292436 L-978702 292437 L-978332 292438 L-978174 292438 L-977943 292438 L-977774 292438 L-977629 292437 L-977497 292436 L-976221 292433 L-975818 292430 L-975757 292429 L-975640 292426 L-975215 292425 L-975200 292422 L-975138 292421 L-974865 292418 L-974752 292417 L-974470 292414 L-974192 292413 L-973767 292410 L-973745 292409 L-973667 292408 L-973541 292406 L-972955 292405 L-972563 292404 L-972228 292402 L-971639 292401 L-971537 292401 L-971366 292400 L-971230 292400 L-970402 292398 L-969217 292397 L-969181 292396 L-969125 292396 L-968905 292394 L-968700 292394 L-968545 292394 L-968288 292393 L-968212 292392 L-967669 292390 L-967633 292389 L-967384 292388 L-966997 292386 L-966171 292385 L-965813 292384 L-965502 292384 L-965244 292382 L-965021 292381 L-964614 292380 L-964498 292378 L-964315 292377 L-964261 292377 L-964073 292376 L-963902 292374 L-963873 292373 L-963593 292372 L-963283 292370 L-963144 292369 L-962835 292368 L-962641 292368 L-962625 292366 L-961906 292366 L-961772 292364 L-961475 292362 L-961384 292361 L-960784 292361 L-960745 292360 L-960667 292358 L-960046 292357 L-959895 292354 L-959854 292353 L-959544 292352 L-959352 292350 L-959159 292348 L-959103 292345 L-958795 292344 L-958742 292342 L-958688 292344 L-958662 292344 L-958537 292344 L-957727 292342 L-957650 292341 L-957110 292340 L-956841 292338 L-956181 292337 L-955274 292336 L-955032 292334 L-954500 292333 L-954283 292332 L-953175 292333 L-953125 292333 L-952350 292333 L-951802 292332 L-951691 292330 L-951538 292328 L-951483 292326 L-951317 292325 L-950940 292324 L-950493 292322 L-950438 292321 L-950283 292320 L-949604 292318 L-949383 292317 L-948865 292316 L-948017 292313 L-948001 292312 L-946210 292310 L-945655 292309 L-945538 292308 L-944532 292306 L-944496 292305 L-944263 292305 L-944170 292305 L-944130 292305 L-943798 292304 L-943446 292302 L-943181 292300 L-942895 292298 L-942584 292296 L-942330 292293 L-942236 292292 L-941746 292290 L-941539 292289 L-940973 292288 L-940859 292289 L-940507 292288 L-940456 292288 L-940416 292288 L-939812 292285 L-939079 292282 L-938497 292280 L-938262 292277 L-937722 292273 L-937569 292271 L-937067 292269 L-936858 292267 L-936835 292267 L-936776 292265 L-935813 292265 L-935636 292264 L-935194 292263 L-935169 292260 L-935014 292259 L-934933 292259 L-934782 292260 L-934136 292260 L-934086 292259 L-932966 292257 L-931982 292256 L-931920 292255 L-931200 292253 L-930335 292252 L-929956 292251 L-929737 292251 L-928978 292249 L-928926 292248 L-928616 292245 L-927765 292245 L-927572 292244 L-927395 292243 L-927171 292243 L-927044 292241 L-926852 292241 L-926620 292240 L-926450 292241 L-926164 292240 L-925884 292240 L-925801 292239 L-925630 292237 L-925614 292235 L-925460 292233 L-925421 292232 L-924645 292231 L-924569 292231 L-924337 292228 L-923910 292227 L-923564 292225 L-922981 292224 L-922712 292224 L-922453 292224 L-922324 292221 L-922308 292220 L-922194 292219 L-922170 292217 L-921936 292216 L-921900 292215 L-920584 292215 L-920528 292213 L-919849 292211 L-919277 292211 L-919151 292211 L-918998 292211 L-918921 292211 L-918609 292208 L-918336 292207 L-918247 292204 L-918145 292204 L-917217 292203 L-917141 292203 L-916777 292203 L-916753 292201 L-916716 292200 L-915941 292197 L-915849 292196 L-915709 292195 L-915307 292193 L-915045 292193 L-914802 292195 L-914588 292193 L-914507 292193 L-914431 292193 L-914355 292193 L-914168 292195 L-914101 292195 L-913852 292195 L-913797 292193 L-913659 292192 L-913579 292189 L-913466 292188 L-913243 292187 L-913079 292185 L-913038 292184 L-912868 292183 L-912497 292181 L-912483 292180 L-912367 292179 L-911645 292177 L-911609 292176 L-911476 292176 L-911129 292175 L-910717 292175 L-910681 292175 L-910603 292173 L-910564 292172 L-910200 292171 L-909996 292169 L-909981 292168 L-909635 292167 L-909287 292167 L-908961 292167 L-908859 292165 L-908707 292165 L-908512 292164 L-908281 292164 L-908188 292164 L-908032 292164 L-907955 292164 L-907915 292163 L-907801 292161 L-907778 292160 L-907527 292160 L-907388 292157 L-906810 292153 L-905982 292151 L-905494 292148 L-905373 292147 L-905335 292145 L-905322 292144 L-905170 292141 L-905069 292139 L-904836 292137 L-904445 292135 L-904141 292133 L-904125 292132 L-903955 292131 L-903716 292128 L-903120 292128 L-902516 292127 L-902476 292127 L-902436 292127 L-902283 292125 L-902230 292124 L-902167 292123 L-902099 292121 L-902044 292119 L-902019 292117 L-901972 292116 L-901878 292113 L-901741 292112 L-901587 292111 L-901455 292109 L-901414 292109 L-901379 292108 L-901317 292107 L-901044 292104 L-900729 292103 L-900688 292100 L-900603 292099 L-900426 292097 L-900188 292096 L-899831 292095 L-899801 292093 L-899232 292092 L-899109 292091 L-898873 292089 L-898850 292089 L-898569 292088 L-898283 292088 L-898028 292088 L-897456 292087 L-897159 292085 L-897083 292084 L-896384 292083 L-896306 292081 L-896271 292080 L-896245 292079 L-896193 292076 L-896000 292075 L-895859 292072 L-895824 292071 L-895783 292069 L-895188 292068 L-894956 292067 L-894672 292076 L-894617 292084 L-894544 292093 L-894466 292101 L-894229 292099 L-893985 292097 L-893850 292096 L-893743 292095 L-893664 292093 L-893277 292091 L-893150 292089 L-892997 292088 L-892959 292087 L-892814 292085 L-892592 292084 L-892418 292083 L-892349 292081 L-891528 292079 L-891511 292079 L-891217 292077 L-890429 292076 L-890119 292076 L-889973 292075 L-889745 292073 L-889544 292071 L-888607 292069 L-888571 292068 L-888548 292067 L-888507 292064 L-888238 292063 L-887642 292061 L-887578 292060 L-887543 292059 L-887526 292057 L-886831 292057 L-886629 292057 L-886597 292057 L-886264 292057 L-886156 292056 L-885532 292053 L-885027 292052 L-884990 292049 L-884548 292049 L-884452 292048 L-884293 292048 L-883980 292048 L-883968 292048 L-883527 292049 L-883045 292051 L-882916 292051 L-882596 292051 L-882528 292049 L-882224 292049 L-882048 292048 L-881854 292047 L-881611 292044 L-881414 292041 L-881388 292039 L-880810 292037 L-880740 292036 L-880331 292035 L-880276 292033 L-880230 292032 L-879866 292031 L-879720 292029 L-879514 292028 L-879418 292028 L-879263 292027 L-879202 292025 L-879054 292023 L-878953 292021 L-878396 292021 L-878374 292024 L-878202 292025 L-877660 292027 L-877599 292027 L-877545 292024 L-877517 292021 L-877445 292020 L-877429 292017 L-877366 292016 L-877329 292013 L-877175 292012 L-876849 292011 L-876283 292009 L-876268 292008 L-876206 292005 L-876105 292003 L-876058 292003 L-875816 292001 L-875394 292001 L-875239 292001 L-873497 291999 L-872956 291997 L-872012 291996 L-871603 291995 L-871062 291992 L-870866 291991 L-870697 291989 L-870401 291988 L-870286 291987 L-870271 291987 L-870116 291985 L-869977 291984 L-869900 291981 L-869768 291981 L-869420 291981 L-869050 291983 L-868452 291983 L-868276 291983 L-868120 291981 L-867851 291980 L-867699 291980 L-867408 291984 L-867384 291987 L-867301 291989 L-867074 291992 L-866374 291991 L-866247 291989 L-865816 291988 L-865722 291987 L-864517 291987 L-864468 291985 L-864175 291985 L-863771 291984 L-863496 291981 L-863476 291980 L-863359 291979 L-863282 291977 L-863101 291976 L-862621 291975 L-862170 291972 L-861759 291971 L-861729 291969 L-861310 291968 L-861196 291968 L-861078 291968 L-861063 291968 L-860869 291967 L-860847 291964 L-860615 291963 L-860172 291961 L-859852 291959 L-859388 291959 L-859222 291957 L-859067 291956 L-858911 291956 L-858458 291956 L-858139 291956 L-858084 291957 L-857713 291957 L-857675 291959 L-857349 291959 L-857232 291957 L-857133 291956 L-856807 291953 L-856420 291952 L-856159 291951 L-855801 291948 L-855545 291947 L-853374 291945 L-853325 291944 L-853303 291943 L-852891 291943 L-852829 291943 L-852759 291944 L-852529 291944 L-852218 291943 L-851914 291940 L-851870 291939 L-851562 291937 L-851429 291936 L-851213 291935 L-850501 291933 L-850345 291933 L-850207 291932 L-850058 291932 L-850037 291932 L-849843 291931 L-849818 291929 L-849726 291928 L-849705 291927 L-849688 291925 L-849588 291924 L-848659 291923 L-848201 291923 L-847109 291920 L-846687 291920 L-846283 291919 L-846244 291917 L-845991 291916 L-845216 291913 L-845200 291912 L-845176 291911 L-844983 291909 L-844246 291908 L-843977 291907 L-843937 291905 L-843538 291903 L-843513 291901 L-842724 291900 L-842044 291899 L-840672 291897 L-840402 291896 L-840354 291895 L-839816 291892 L-839783 291891 L-839681 291888 L-839358 291887 L-839278 291885 L-839009 291885 L-838097 291884 L-837958 291884 L-837709 291881 L-837164 291881 L-836742 291880 L-836549 291879 L-836533 291879 L-836395 291876 L-836301 291875 L-836174 291873 L-835914 291872 L-835889 291869 L-835798 291868 L-835488 291867 L-835428 291865 L-835311 291865 L-834961 291865 L-834150 291865 L-833919 291863 L-833090 291863 L-832858 291860 L-832641 291859 L-832123 291859 L-831485 291857 L-831069 291856 L-830746 291855 L-830265 291853 L-829840 291853 L-829779 291852 L-829430 291852 L-829390 291851 L-829376 291849 L-829276 291847 L-829231 291847 L-828746 291845 L-827944 291845 L-827610 291845 L-826528 291844 L-826048 291843 L-826025 291841 L-825885 291840 L-825330 291839 L-824633 291837 L-824324 291836 L-824102 291835 L-823998 291833 L-823895 291831 L-823224 291829 L-823130 291828 L-823108 291828 L-823030 291827 L-822852 291827 L-822680 291827 L-822500 291825 L-822486 291824 L-822410 291823 L-822246 291821 L-821731 291820 L-821715 291819 L-821575 291819 L-821212 291817 L-821188 291817 L-821057 291816 L-821033 291815 L-820670 291813 L-820145 291811 L-820051 291809 L-819835 291807 L-819742 291805 L-819717 291804 L-819253 291803 L-819176 291803 L-818774 291801 L-818324 291801 L-817072 291800 L-817033 291799 L-816602 291797 L-816569 291796 L-815850 291795 L-815674 291793 L-815538 291792 L-815231 291791 L-815176 291789 L-815152 291787 L-815135 291784 L-814960 291783 L-814771 291782 L-814263 291782 L-813890 291771 L-813551 291759 L-813513 291748 L-812794 291739 L-812700 291738 L-812661 291736 L-812120 291736 L-812097 291735 L-811694 291734 L-811268 291732 L-810998 291732 L-810818 291731 L-810572 291728 L-810549 291727 L-810492 291724 L-809876 291723 L-809373 291722 L-808986 291722 L-808367 291723 L-808151 291723 L-807996 291724 L-806703 291722 L-806604 291720 L-806161 291718 L-805830 291716 L-805530 291714 L-805287 291712 L-804552 291710 L-803973 291708 L-803144 291707 L-803043 291706 L-802486 291704 L-802348 291703 L-800706 291702 L-800645 291702 L-800551 291702 L-799584 291702 L-799407 291700 L-799120 291700 L-798902 291700 L-798824 291699 L-798552 291699 L-798437 291698 L-798284 291696 L-797974 291695 L-797895 291694 L-797804 291694 L-797727 291692 L-797611 291692 L-797432 291691 L-797340 291690 L-797301 291688 L-796798 291688 L-796580 291687 L-796450 291687 L-796295 291686 L-796241 291684 L-796116 291684 L-795731 291683 L-795223 291682 L-795150 291680 L-794670 291679 L-794593 291678 L-794493 291678 L-794260 291676 L-793795 291676 L-793565 291676 L-793548 291676 L-793316 291676 L-793161 291676 L-793100 291676 L-792907 291675 L-792636 291672 L-791885 291671 L-790931 291671 L-790895 291670 L-790671 291670 L-790231 291670 L-789950 291667 L-789602 291666 L-788533 291664 L-787605 291664 L-787474 291664 L-787427 291664 L-787358 291663 L-787203 291663 L-787126 291660 L-786952 291658 L-786517 291655 L-786313 291654 L-786253 291651 L-785670 291650 L-785516 291647 L-785401 291646 L-785360 291644 L-785191 291643 L-785054 291642 L-784843 291639 L-784765 291638 L-784742 291636 L-784533 291634 L-784123 291632 L-784099 291631 L-783876 291630 L-783730 291628 L-783696 291627 L-783682 291626 L-783660 291624 L-783426 291623 L-783241 291622 L-783024 291620 L-782998 291619 L-782309 291618 L-782206 291616 L-782170 291615 L-782150 291614 L-781955 291612 L-781902 291611 L-781785 291608 L-781704 291608 L-781593 291607 L-781278 291606 L-780819 291604 L-780564 291603 L-780330 291600 L-780200 291599 L-779847 291598 L-779788 291596 L-779635 291595 L-779063 291592 L-778977 291591 L-778823 291588 L-778527 291586 L-778157 291583 L-777854 291580 L-777778 291579 L-777373 291578 L-777205 291578 L-777061 291578 L-776521 291578 L-776460 291578 L-776444 291575 L-776278 291574 L-776072 291572 L-775998 291572 L-775905 291571 L-775495 291570 L-775480 291568 L-775456 291568 L-775263 291567 L-775186 291579 L-775015 291591 L-774953 291602 L-774938 291614 L-774423 291612 L-774202 291611 L-773583 291608 L-773329 291607 L-773135 291606 L-773096 291604 L-773023 291604 L-772958 291604 L-772307 291604 L-772268 291606 L-772094 291606 L-772028 291606 L-771354 291606 L-770965 291603 L-770703 291602 L-770466 291600 L-770388 291598 L-770372 291595 L-770170 291594 L-769800 291591 L-769574 291590 L-768939 291588 L-768919 291588 L-768531 291587 L-768438 291587 L-768380 291586 L-768104 291584 L-767794 291584 L-767717 291583 L-766866 291584 L-766523 291591 L-766086 291599 L-765652 291606 L-765157 291612 L-765008 291611 L-764739 291612 L-763501 291614 L-763445 291616 L-761681 291618 L-761490 291616 L-760480 291615 L-760329 291614 L-759954 291616 L-759633 291619 L-759027 291622 L-758958 291624 L-758781 291623 L-757952 291622 L-757813 291620 L-757427 291619 L-757242 291618 L-757199 291616 L-757079 291615 L-756869 291614 L-756422 291611 L-756073 291610 L-755941 291608 L-755532 291607 L-755182 291607 L-754897 291606 L-754703 291604 L-754548 291604 L-754385 291603 L-754316 291602 L-754216 291602 L-753983 291600 L-753867 291600 L-753813 291599 L-753272 291599 L-752807 291598 L-751625 291598 L-751492 291598 L-751467 291598 L-751414 291598 L-750747 291598 L-749712 291595 L-749518 291594 L-749339 291592 L-749187 291592 L-749146 291591 L-749131 291591 L-749070 291590 L-748745 291588 L-747584 291587 L-747391 291586 L-747213 291584 L-746099 291583 L-745240 291582 L-745133 291582 L-744660 291580 L-744467 291580 L-742145 291579 L-742068 291578 L-741947 291575 L-741912 291574 L-741875 291571 L-741780 291567 L-741565 291564 L-740983 291562 L-740597 291560 L-739824 291559 L-739746 291558 L-739049 291558 L-738508 291558 L-738467 291556 L-738337 291556 L-737872 291555 L-737834 291554 L-737699 291552 L-737331 291551 L-737301 291550 L-737151 291550 L-736751 291548 L-734927 291550 L-734120 291548 L-733401 291548 L-733384 291548 L-733071 291546 L-732509 291544 L-732008 291543 L-731489 291542 L-731467 291540 L-729723 291539 L-729554 291538 L-729359 291536 L-728465 291535 L-727946 291532 L-727736 291531 L-727478 291530 L-726769 291528 L-725818 291527 L-725160 291526 L-725121 291523 L-724834 291522 L-724752 291520 L-724656 291520 L-724524 291519 L-724447 291519 L-723712 291519 L-723375 291518 L-723325 291519 L-723070 291519 L-722784 291518 L-722358 291518 L-721777 291516 L-721519 291516 L-721367 291515 L-721120 291515 L-721081 291515 L-720284 291514 L-720247 291512 L-720069 291512 L-719660 291510 L-719432 291510 L-719355 291510 L-719224 291510 L-719108 291508 L-718760 291507 L-718696 291506 L-718544 291504 L-717803 291503 L-717692 291502 L-717522 291500 L-717483 291499 L-717188 291499 L-716786 291499 L-716610 291499 L-716516 291499 L-716206 291498 L-715405 291496 L-714946 291494 L-714426 291492 L-713938 291491 L-713242 291490 L-712196 291488 L-711927 291488 L-711873 291487 L-711712 291487 L-711461 291487 L-711215 291486 L-711136 291484 L-710922 291482 L-710610 291480 L-710146 291478 L-710132 291476 L-709835 291476 L-709822 291475 L-708831 291474 L-708159 291472 L-707824 291470 L-707207 291470 L-707070 291468 L-706432 291467 L-706301 291466 L-705350 291463 L-705251 291460 L-704691 291459 L-704283 291459 L-703855 291459 L-703763 291458 L-702929 291458 L-702565 291458 L-702526 291459 L-702394 291460 L-702217 291460 L-702000 291460 L-701946 291459 L-701789 291456 L-701537 291455 L-700436 291454 L-700359 291452 L-700139 291451 L-700008 291448 L-699972 291447 L-699779 291446 L-699679 291444 L-699196 291443 L-698911 291442 L-698751 291440 L-698656 291438 L-698385 291436 L-698115 291435 L-698099 291430 L-697960 291426 L-697822 291422 L-697495 291416 L-697187 291414 L-697146 291412 L-697070 291410 L-696954 291408 L-696104 291406 L-695778 291404 L-695446 291403 L-695313 291403 L-695097 291403 L-695081 291403 L-694401 291403 L-694307 291400 L-694284 291399 L-694268 291396 L-694230 291395 L-693818 291392 L-693549 291391 L-693509 291390 L-693140 291390 L-692930 291388 L-691848 291388 L-691831 291387 L-691803 291386 L-691782 291386 L-691405 291383 L-691150 291382 L-690902 291379 L-690763 291376 L-690631 291375 L-690299 291374 L-690206 291372 L-690145 291371 L-689587 291370 L-689526 291368 L-689370 291367 L-689176 291366 L-688984 291364 L-688968 291363 L-688929 291362 L-688891 291360 L-688620 291359 L-688497 291358 L-688464 291356 L-688365 291356 L-688209 291356 L-688068 291356 L-687784 291355 L-687459 291355 L-686763 291354 L-686740 291354 L-686230 291354 L-685385 291354 L-685021 291352 L-684867 291351 L-684263 291351 L-684093 291351 L-684032 291351 L-683977 291350 L-682921 291348 L-682903 291348 L-681997 291348 L-681976 291348 L-681809 291347 L-681566 291347 L-681516 291346 L-681462 291343 L-681324 291342 L-681285 291340 L-680357 291339 L-680301 291339 L-680179 291339 L-680108 291339 L-679992 291339 L-679813 291340 L-678831 291339 L-678692 291339 L-678574 291336 L-678279 291334 L-678032 291332 L-677995 291331 L-677941 291332 L-677919 291332 L-677786 291332 L-677707 291332 L-677569 291331 L-676947 291331 L-676780 291330 L-676316 291330 L-676139 291327 L-676123 291326 L-676062 291324 L-675946 291323 L-675463 291322 L-674768 291320 L-674395 291319 L-674226 291318 L-673260 291316 L-673105 291315 L-672927 291315 L-672834 291314 L-672579 291314 L-672408 291314 L-671761 291312 L-671750 291312 L-671170 291311 L-671032 291311 L-670977 291308 L-670242 291307 L-670203 291306 L-670126 291306 L-669484 291304 L-668709 291304 L-668617 291303 L-668568 291303 L-668553 291302 L-668516 291302 L-668500 291299 L-668437 291298 L-668421 291296 L-668401 291296 L-668246 291295 L-668207 291294 L-668191 291293 L-668152 291291 L-668013 291290 L-667936 291289 L-667572 291287 L-667224 291286 L-666450 291285 L-665848 291283 L-665652 291282 L-665422 291282 L-665284 291281 L-664646 291281 L-664356 291279 L-664335 291279 L-663875 291278 L-663642 291278 L-663587 291277 L-663548 291275 L-663045 291274 L-662495 291273 L-661707 291271 L-660584 291271 L-659690 291270 L-659602 291270 L-659303 291269 L-659231 291267 L-659115 291266 L-657938 291265 L-657590 291263 L-657568 291262 L-657048 291261 L-656902 291259 L-656793 291258 L-656584 291257 L-656429 291255 L-656407 291254 L-656213 291253 L-656136 291251 L-655992 291250 L-655191 291249 L-655045 291247 L-654765 291246 L-654588 291245 L-654279 291243 L-653467 291242 L-652538 291242 L-650947 291241 L-650703 291239 L-650062 291238 L-649867 291237 L-649789 291235 L-649272 291234 L-649039 291234 L-649016 291233 L-648884 291233 L-648545 291231 L-648534 291230 L-648318 291229 L-648281 291227 L-647739 291226 L-647211 291223 L-647143 291222 L-646850 291221 L-646302 291218 L-646267 291217 L-646214 291215 L-646115 291213 L-645882 291213 L-645302 291213 L-645205 291214 L-645130 291214 L-644799 291213 L-644049 291211 L-644009 291210 L-643330 291210 L-643175 291210 L-642849 291209 L-642633 291207 L-642401 291207 L-642105 291206 L-641859 291205 L-641508 291203 L-641455 291202 L-640695 291201 L-640002 291198 L-639651 291195 L-639188 291194 L-638554 291193 L-638145 291191 L-638067 291193 L-637641 291193 L-636999 291191 L-636830 291191 L-636088 291190 L-635900 291189 L-635605 291187 L-635033 291186 L-635008 291185 L-633988 291185 L-633502 291183 L-633408 291183 L-633347 291182 L-633059 291181 L-632773 291179 L-632712 291178 L-632532 291178 L-631821 291177 L-631645 291175 L-631447 291174 L-631295 291173 L-631203 291171 L-631141 291170 L-630599 291170 L-630289 291169 L-630197 291166 L-630120 291163 L-629552 291162 L-629462 291162 L-629207 291159 L-628880 291157 L-628843 291153 L-628688 291149 L-628456 291147 L-628134 291146 L-627001 291145 L-626802 291143 L-626277 291142 L-626032 291142 L-625786 291141 L-625706 291139 L-625686 291137 L-625610 291135 L-625554 291133 L-625477 291131 L-625438 291130 L-625259 291127 L-625222 291126 L-624991 291125 L-623753 291123 L-623426 291122 L-623386 291119 L-622605 291118 L-622458 291117 L-621466 291115 L-621260 291115 L-620834 291115 L-620707 291115 L-620302 291117 L-620214 291115 L-619557 291114 L-618850 291113 L-618242 291111 L-618049 291110 L-617816 291107 L-617197 291106 L-616901 291103 L-616462 291102 L-616307 291101 L-616152 291099 L-615396 291097 L-615046 291095 L-614644 291095 L-614605 291094 L-613599 291094 L-613279 291094 L-613032 291093 L-612332 291090 L-612259 291089 L-611947 291087 L-610866 291086 L-610675 291085 L-610441 291085 L-610246 291083 L-609746 291082 L-608992 291082 L-608879 291082 L-608678 291082 L-608637 291081 L-608545 291079 L-608232 291078 L-608143 291077 L-608027 291075 L-607709 291075 L-607640 291074 L-607616 291073 L-607254 291071 L-607215 291070 L-606998 291069 L-606495 291070 L-605893 291071 L-605682 291074 L-605528 291075 L-605491 291075 L-605446 291073 L-605412 291071 L-605279 291070 L-604870 291069 L-604499 291067 L-604446 291066 L-604429 291065 L-604350 291063 L-603941 291062 L-603787 291061 L-603772 291058 L-603732 291057 L-603554 291054 L-603478 291053 L-603246 291051 L-602456 291050 L-602379 291050 L-601644 291047 L-601488 291046 L-601248 291043 L-601187 291041 L-601101 291039 L-601079 291037 L-600961 291034 L-600946 291031 L-600885 291029 L-600847 291027 L-600753 291026 L-600731 291026 L-600615 291025 L-600382 291023 L-600212 291021 L-599392 291021 L-598991 291019 L-598835 291019 L-598330 291019 L-598216 291019 L-597620 291019 L-597245 291018 L-597194 291018 L-597000 291017 L-596303 291017 L-596265 291015 L-596120 291015 L-595895 291014 L-595633 291013 L-595260 291011 L-594834 291010 L-594705 291009 L-594685 291006 L-594191 291006 L-593495 291005 L-593263 291006 L-593109 291006 L-592141 291006 L-591916 291007 L-591638 291007 L-591623 291006 L-591097 291005 L-590568 291003 L-590420 291002 L-590400 291001 L-589858 290999 L-589548 290998 L-589431 290995 L-589239 290993 L-589103 290990 L-588776 290989 L-588659 290987 L-588349 290987 L-587923 290986 L-587868 290986 L-587635 290987 L-587538 290987 L-587405 290987 L-587109 290987 L-586995 290986 L-586630 290985 L-586318 290985 L-585835 290983 L-585664 290982 L-585416 290981 L-585200 290979 L-584675 290978 L-584488 290975 L-584133 290974 L-583497 290973 L-583343 290970 L-582602 290969 L-582182 290967 L-582002 290966 L-581926 290966 L-581795 290965 L-581501 290963 L-581460 290962 L-581230 290962 L-581038 290961 L-580783 290961 L-580356 290959 L-580247 290958 L-579629 290958 L-579447 290958 L-578236 290958 L-577589 290959 L-577438 290959 L-577400 290959 L-577269 290959 L-577167 290958 L-577152 290957 L-577070 290955 L-576858 290954 L-576742 290953 L-576379 290951 L-576007 290950 L-575311 290949 L-574908 290947 L-574803 290946 L-574785 290945 L-573841 290943 L-573645 290941 L-573493 290939 L-573438 290937 L-572682 290937 L-572664 290939 L-572175 290941 L-572045 290943 L-571852 290943 L-570962 290942 L-570922 290941 L-570884 290939 L-570807 290938 L-570768 290938 L-570691 290937 L-570608 290935 L-570343 290934 L-570111 290933 L-570049 290931 L-569568 290930 L-569232 290930 L-569121 290929 L-568927 290927 L-568751 290926 L-568691 290926 L-568655 290925 L-568385 290923 L-567687 290921 L-567634 290918 L-567340 290915 L-566938 290913 L-566374 290911 L-565501 290910 L-565196 290909 L-565158 290907 L-565036 290906 L-564437 290905 L-564307 290903 L-564107 290902 L-564070 290901 L-563456 290899 L-563277 290898 L-563263 290895 L-563044 290894 L-562966 290891 L-562659 290891 L-562527 290890 L-562295 290890 L-561961 290890 L-561869 290889 L-561769 290887 L-561731 290886 L-561188 290886 L-560995 290885 L-560454 290883 L-560028 290882 L-559897 290882 L-559835 290882 L-559604 290882 L-559587 290882 L-559099 290883 L-559018 290883 L-559001 290883 L-557608 290885 L-557472 290885 L-557358 290883 L-556724 290882 L-556584 290881 L-556467 290879 L-556313 290877 L-556276 290875 L-556197 290874 L-556143 290875 L-555152 290875 L-555115 290874 L-554982 290874 L-554921 290871 L-554822 290870 L-554532 290869 L-554519 290867 L-554208 290867 L-554109 290869 L-553643 290867 L-553590 291009 L-553447 291149 L-553319 291290 L-553087 291431 L-552518 291430 L-552429 291428 L-552407 291428 L-552120 291427 L-551437 291426 L-551360 291424 L-551324 291423 L-551307 291422 L-551108 291420 L-550688 291418 L-550416 291418 L-549543 291416 L-549251 291416 L-549140 291416 L-548406 291415 L-548278 291414 L-547919 291412 L-547666 291412 L-546795 291411 L-546626 291411 L-546564 291410 L-546510 291408 L-546162 291407 L-546138 291406 L-545929 291404 L-545789 291403 L-545659 291402 L-545536 291400 L-545412 291399 L-545175 291398 L-544885 291396 L-544226 291395 L-544204 291394 L-544049 291392 L-543931 291391 L-542967 291390 L-542911 291388 L-542679 291387 L-542656 291386 L-542330 291384 L-542215 291384 L-542175 291383 L-541673 291383 L-541374 291382 L-541263 291380 L-540720 291379 L-539661 291378 L-539035 291376 L-538864 291375 L-538616 291374 L-538360 291372 L-538229 291371 L-538207 291370 L-537540 291368 L-536644 291367 L-536597 291366 L-536527 291364 L-536411 291364 L-536191 291363 L-536000 291363 L-535961 291362 L-535768 291360 L-535109 291360 L-534492 291359 L-534454 291367 L-533857 291375 L-533796 291382 L-532674 291388 L-532619 291388 L-532498 291387 L-532233 291386 L-532169 291386 L-531900 291386 L-531824 291384 L-531608 291384 L-531125 291383 L-530855 291382 L-530724 291382 L-530492 291379 L-530467 291375 L-530452 291370 L-530429 291363 L-530413 291356 L-530389 291350 L-530376 291342 L-530352 291334 L-530336 291326 L-530313 291319 L-530298 291312 L-530276 291306 L-530260 291302 L-530232 291298 L-530214 291293 L-530196 291290 L-530159 291286 L-530120 291283 L-530105 291281 L-530079 291277 L-530027 291274 L-530003 291271 L-529926 291269 L-529888 291267 L-529873 291265 L-529810 291262 L-529795 291259 L-529749 291255 L-529678 291253 L-529640 291251 L-529616 291249 L-529563 291246 L-529538 291245 L-529523 291243 L-529461 291242 L-529424 291241 L-529347 291239 L-529331 291238 L-529303 291235 L-529231 291234 L-529191 291233 L-529037 291230 L-528921 291229 L-528867 291227 L-528784 291226 L-528751 291225 L-528727 291223 L-528573 291222 L-528557 291221 L-528456 291219 L-528145 291218 L-528109 291217 L-527894 291215 L-527783 291215 L-527758 291215 L-527528 291217 L-527295 291217 L-526921 291215 L-526793 291214 L-526753 291213 L-526700 291211 L-526599 291210 L-526562 291209 L-526352 291209 L-526287 291207 L-526175 291207 L-525963 291206 L-525926 291205 L-525554 291203 L-525501 291202 L-525422 291201 L-525400 291199 L-525307 291198 L-525107 291197 L-525070 291197 L-525048 291197 L-524818 291197 L-524797 291195 L-524588 291195 L-524493 291194 L-524456 291193 L-524119 291191 L-524006 291190 L-523966 291189 L-523953 291189 L-523813 291187 L-523798 291187 L-523544 291187 L-522961 291186 L-522885 291185 L-522847 291183 L-522802 291182 L-522754 291181 L-522574 291179 L-522559 291178 L-522460 291177 L-522382 291175 L-522322 291174 L-521956 291171 L-521874 291170 L-521856 291169 L-521803 291167 L-520834 291166 L-520702 291165 L-520681 291163 L-520460 291162 L-520392 291161 L-520369 291159 L-520123 291158 L-519867 291157 L-519736 291155 L-519696 291154 L-519675 291151 L-519619 291149 L-519532 291147 L-519471 291145 L-519245 291143 L-519116 291142 L-519016 291141 L-518962 291139 L-518768 291138 L-518691 291137 L-518357 291135 L-518226 291134 L-518049 291133 L-518033 291131 L-518008 291130 L-517739 291130 L-516538 291129 L-516501 291129 L-516385 291127 L-516151 291126 L-515960 291125 L-515922 291125 L-515866 291123 L-515761 291123 L-515247 291122 L-514953 291121 L-514721 291119 L-514446 291118 L-514429 291117 L-514397 291115 L-514357 291114 L-514319 291113 L-514218 291111 L-514140 291110 L-514048 291109 L-513921 291107 L-513816 291106 L-513638 291106 L-513445 291105 L-512616 291105 L-512500 291103 L-512246 291102 L-512206 291101 L-512107 291099 L-512047 291099 L-511804 291098 L-511780 291098 L-511660 291097 L-511588 291095 L-511549 291094 L-511317 291093 L-511140 291091 L-510620 291090 L-510544 291089 L-510527 291087 L-510116 291087 L-509753 291087 L-509637 291086 L-509615 291086 L-509574 291085 L-509498 291083 L-509444 291082 L-509095 291081 L-508980 291079 L-508802 291079 L-508747 291078 L-508723 291078 L-508609 291077 L-508322 291075 L-508089 291074 L-507874 291073 L-507664 291071 L-507454 291069 L-506628 291067 L-506288 291066 L-505281 291065 L-504918 291063 L-503872 291062 L-503795 291061 L-503347 291059 L-503136 291058 L-502944 291057 L-502650 291055 L-502609 291054 L-502456 291053 L-502402 291050 L-502170 291049 L-501590 291047 L-501396 291046 L-500777 291046 L-500288 291045 L-500236 291043 L-499587 291042 L-499437 291041 L-499268 291039 L-498895 291038 L-498880 291038 L-498780 291037 L-498742 291037 L-498611 291035 L-498178 291035 L-497875 291035 L-497489 291035 L-497349 291034 L-497187 291034 L-496754 291034 L-496715 291033 L-496613 291033 L-496498 291031 L-496320 291031 L-496150 291030 L-496032 291029 L-495671 291026 L-495453 291025 L-495321 291023 L-495180 291023 L-494681 291023 L-494603 291023 L-494369 291022 L-494045 291022 L-493659 291021 L-493636 291019 L-493015 291019 L-492745 291018 L-492512 291018 L-492088 291017 L-491816 291015 L-491674 291014 L-491465 291013 L-491260 291011 L-490708 291010 L-490578 291010 L-490191 291009 L-489921 291009 L-489818 291007 L-489557 291006 L-489356 291005 L-489287 291003 L-489248 291002 L-488681 291001 L-488473 290999 L-488446 290998 L-488217 290997 L-488140 290995 L-487623 290994 L-487584 290993 L-487429 290991 L-487135 290990 L-486864 290989 L-486500 290987 L-486152 290987 L-485780 290986 L-485659 290986 L-485588 290985 L-485108 290983 L-485045 290982 L-484710 290981 L-484579 290979 L-484502 290978 L-484372 290977 L-483908 290977 L-483615 290975 L-483538 290975 L-483227 290974 L-482918 290973 L-482855 290971 L-482825 290970 L-482050 290969 L-481946 290966 L-481858 290965 L-481835 290963 L-481681 290962 L-481459 290961 L-481292 290959 L-480906 290958 L-480851 290957 L-480787 290957 L-480170 290955 L-480053 290954 L-479730 290953 L-479204 290951 L-478854 290950 L-478778 290949 L-478158 290947 L-477747 290946 L-477446 290945 L-477136 290943 L-476998 290942 L-476374 290942 L-475992 290941 L-474868 290941 L-473808 290939 L-473746 290938 L-473385 290937 L-473283 290937 L-473267 290935 L-472894 290935 L-471888 290933 L-471502 290931 L-471294 290929 L-471206 290927 L-470830 290926 L-470537 290925 L-470226 290923 L-469437 290922 L-469349 290921 L-469297 290919 L-469258 290918 L-468741 290917 L-468625 290915 L-468417 290914 L-468277 290913 L-467674 290911 L-466845 290910 L-466561 290909 L-466379 290909 L-465878 290907 L-465673 290907 L-465119 290907 L-464614 290906 L-464422 290905 L-464384 290903 L-463755 290902 L-463302 290901 L-462887 290899 L-462279 290898 L-461158 290898 L-460745 290897 L-460421 290897 L-460206 290895 L-459779 290894 L-459639 290893 L-459548 290891 L-459316 290890 L-458730 290890 L-457922 290889 L-456723 290889 L-456609 290889 L-456476 290887 L-456389 290886 L-456347 290887 L-456326 290889 L-456316 290891 L-456221 290894 L-455457 290894 L-454751 290894 L-454711 290893 L-454425 290891 L-453885 290890 L-453823 290889 L-453783 290887 L-453768 290886 L-453511 290885 L-453188 290883 L-453048 290882 L-452778 290881 L-452739 290879 L-452631 290878 L-452230 290877 L-452120 290875 L-452043 290874 L-451746 290873 L-451703 290871 L-451485 290871 L-451301 290871 L-451191 290871 L-451176 290870 L-451150 290870 L-450726 290869 L-450480 290867 L-450144 290866 L-450109 290865 L-449974 290863 L-449721 290863 L-449566 290862 L-448660 290862 L-448561 290861 L-448366 290858 L-447358 290857 L-446858 290855 L-446780 290854 L-446741 290853 L-446533 290851 L-446415 290850 L-446317 290849 L-446131 290847 L-445965 290846 L-445730 290845 L-445310 290843 L-445294 290842 L-444985 290841 L-443940 290839 L-443723 290838 L-443707 290837 L-443684 290835 L-443476 290834 L-443317 290833 L-443258 290831 L-441813 290830 L-441487 290830 L-441286 290830 L-441087 290830 L-440937 290830 L-440666 290829 L-440225 290827 L-440007 290827 L-439313 290826 L-438810 290825 L-438485 290823 L-438214 290823 L-437494 290822 L-437339 290822 L-436141 290819 L-435751 290818 L-435636 290815 L-435482 290814 L-435329 290813 L-434358 290811 L-434306 290810 L-434059 290809 L-434037 290807 L-433817 290806 L-433378 290803 L-433239 290801 L-433131 290798 L-432929 290797 L-432812 290796 L-432710 290794 L-432695 290794 L-432563 290793 L-432309 290792 L-431691 290790 L-431031 290789 L-430786 290789 L-430593 290788 L-429834 290788 L-429794 290788 L-429716 290786 L-429664 290784 L-429625 290782 L-429587 290781 L-429548 290780 L-429457 290778 L-429412 290777 L-429354 290774 L-429330 290773 L-429215 290772 L-428905 290769 L-428850 290768 L-428829 290766 L-428486 290765 L-428321 290764 L-428286 290761 L-428245 290760 L-428230 290758 L-427999 290757 L-427858 290756 L-427690 290754 L-427241 290754 L-427007 290754 L-426915 290754 L-426895 290756 L-426414 290754 L-426337 290754 L-426209 290753 L-426079 290750 L-425701 290749 L-425460 290746 L-425422 290745 L-425368 290744 L-425230 290741 L-425191 290740 L-425151 290738 L-424920 290737 L-424880 290736 L-424750 290734 L-424571 290733 L-424531 290732 L-424517 290730 L-424353 290729 L-424338 290728 L-424185 290726 L-424170 290725 L-424144 290724 L-424109 290722 L-423887 290720 L-423665 290720 L-423411 290718 L-423279 290720 L-422637 290720 L-422029 290718 L-421010 290718 L-420816 290717 L-420765 290716 L-420640 290714 L-420316 290713 L-419543 290712 L-419485 290710 L-419371 290709 L-418960 290708 L-418635 290706 L-418497 290705 L-418273 290704 L-417747 290702 L-417346 290702 L-417314 290701 L-417027 290701 L-416742 290700 L-416354 290698 L-416138 290697 L-415710 290694 L-415529 290693 L-415193 290692 L-415086 290690 L-414900 290690 L-414783 290689 L-414768 290689 L-414047 290688 L-413878 290686 L-413629 290685 L-413529 290684 L-412887 290682 L-412599 290681 L-412408 290680 L-412133 290678 L-411816 290677 L-411531 290676 L-411417 290673 L-411373 290672 L-411170 290670 L-409562 290669 L-409349 290668 L-408669 290666 L-408586 290665 L-408358 290664 L-408167 290664 L-408028 290662 L-408010 290662 L-407817 290662 L-407587 290662 L-407394 290662 L-406310 290661 L-406115 290661 L-406062 290661 L-405908 290661 L-405800 290661 L-405634 290661 L-405482 290660 L-405366 290658 L-405242 290656 L-404825 290654 L-404568 290652 L-404476 290650 L-404283 290650 L-404221 290649 L-403896 290649 L-403834 290649 L-403777 290648 L-403509 290646 L-403160 290645 L-402982 290644 L-402787 290642 L-402752 290644 L-402039 290644 L-401999 290646 L-401690 290648 L-401392 290649 L-401343 290650 L-401087 290652 L-400816 290653 L-400761 290653 L-399670 290653 L-399639 290652 L-399599 290652 L-399422 290652 L-399230 290650 L-398372 290650 L-397319 290649 L-397258 290648 L-396909 290646 L-396096 290646 L-395283 290646 L-395267 290646 L-394893 290646 L-394724 290646 L-394455 290646 L-394128 290645 L-394006 290644 L-393949 290644 L-393914 290642 L-393836 290642 L-393619 290641 L-393561 290640 L-393245 290638 L-393077 290637 L-392714 290637 L-392521 290637 L-392497 290637 L-392420 290636 L-391939 290636 L-391802 290636 L-391388 290634 L-391089 290634 L-390990 290633 L-390974 290632 L-390945 290630 L-390586 290629 L-390236 290628 L-390098 290626 L-390062 290626 L-389245 290625 L-389039 290624 L-389014 290622 L-388858 290622 L-388768 290621 L-388527 290621 L-388203 290620 L-388110 290620 L-387914 290618 L-387628 290618 L-386872 290617 L-386743 290616 L-386670 290614 L-386057 290613 L-385881 290612 L-385771 290610 L-385671 290609 L-385592 290608 L-385455 290606 L-385300 290606 L-385221 290606 L-385030 290606 L-384357 290606 L-384319 290605 L-384216 290604 L-383273 290602 L-383251 290601 L-382900 290600 L-382435 290598 L-382399 290597 L-381970 290596 L-381919 290596 L-381508 290594 L-381491 290594 L-381395 290594 L-381339 290594 L-381301 290594 L-381006 290593 L-379267 290592 L-377757 290590 L-377250 290589 L-376752 290588 L-376618 290586 L-376527 290585 L-376400 290584 L-376321 290581 L-376015 290580 L-375745 290578 L-375511 290578 L-374312 290577 L-374207 290577 L-374141 290576 L-373300 290574 L-373114 290573 L-372203 290572 L-371334 290569 L-371046 290568 L-370953 290565 L-370404 290564 L-369885 290562 L-368816 290561 L-368547 290560 L-368394 290560 L-368301 290560 L-368171 290561 L-368123 290562 L-367964 290562 L-367098 290562 L-366763 290562 L-366380 290561 L-365627 290560 L-365568 290558 L-365179 290558 L-364857 290558 L-364700 290557 L-363968 290557 L-363905 290557 L-363618 290557 L-363244 290557 L-363063 290557 L-362807 290556 L-362546 290553 L-362393 290552 L-361990 290550 L-360692 290549 L-360577 290548 L-360114 290546 L-358782 290545 L-358357 290544 L-358333 290542 L-358200 290541 L-358024 290540 L-357891 290540 L-357561 290538 L-357173 290537 L-357134 290536 L-357118 290533 L-356727 290532 L-356436 290530 L-356167 290530 L-355993 290530 L-354500 290530 L-354450 290529 L-354372 290530 L-353132 290532 L-353057 290532 L-353030 290534 L-352783 290533 L-352626 290533 L-352567 290532 L-351680 290532 L-351451 290530 L-350928 290530 L-350787 290532 L-350711 290532 L-350015 290533 L-349767 290533 L-349086 290532 L-349069 290532 L-348815 290530 L-348447 290530 L-348312 290529 L-347689 290526 L-347346 290525 L-347299 290524 L-346812 290522 L-346477 290520 L-346261 290520 L-346126 290518 L-345805 290517 L-345741 290517 L-345489 290516 L-345199 290514 L-344890 290513 L-344750 290512 L-344211 290510 L-343935 290509 L-343205 290508 L-343152 290508 L-343045 290508 L-342779 290508 L-342355 290508 L-342090 290506 L-341871 290505 L-341850 290504 L-341619 290502 L-341331 290501 L-341308 290501 L-341294 290500 L-340921 290500 L-340750 290498 L-340674 290496 L-340613 290494 L-340312 290492 L-340071 290489 L-339978 290488 L-339721 290486 L-339669 290485 L-339473 290484 L-339257 290485 L-338833 290485 L-338741 290486 L-338601 290485 L-337736 290484 L-337362 290482 L-337034 290480 L-336882 290478 L-336455 290478 L-335737 290477 L-335542 290477 L-335188 290476 L-335041 290474 L-334535 290472 L-334299 290470 L-333332 290469 L-333322 290468 L-332256 290466 L-332024 290465 L-331622 290464 L-331428 290462 L-331348 290461 L-331252 290460 L-330515 290460 L-330382 290460 L-329993 290460 L-329970 290458 L-329875 290458 L-329740 290457 L-329723 290456 L-329703 290454 L-328018 290453 L-328000 290453 L-327883 290452 L-327798 290452 L-327674 290452 L-327650 290450 L-327366 290449 L-327259 290448 L-327071 290445 L-326800 290444 L-326128 290442 L-325756 290441 L-324905 290441 L-324847 290440 L-324828 290440 L-324594 290440 L-324320 290438 L-324014 290438 L-323975 290436 L-323744 290436 L-323506 290434 L-322893 290433 L-322853 290432 L-322815 290429 L-322294 290428 L-322102 290426 L-322042 290425 L-321999 290424 L-321677 290424 L-321649 290422 L-321634 290422 L-321149 290421 L-321096 290420 L-320958 290418 L-320920 290417 L-320902 290416 L-320808 290414 L-320143 290414 L-319527 290413 L-319257 290413 L-318849 290413 L-318828 290412 L-318813 290412 L-318699 290410 L-318312 290409 L-317846 290409 L-317785 290408 L-317706 290406 L-317692 290405 L-317205 290402 L-317166 290401 L-317020 290401 L-316971 290400 L-316892 290401 L-316260 290400 L-316169 290400 L-315928 290400 L-315811 290398 L-315484 290398 L-314729 290397 L-314713 290397 L-313761 290397 L-313452 290396 L-313027 290394 L-312313 290393 L-311995 290392 L-311980 290390 L-311829 290388 L-311525 290386 L-311448 290385 L-311320 290384 L-310884 290384 L-310823 290384 L-310300 290384 L-310031 290384 L-309894 290382 L-309816 290381 L-309777 290380 L-308965 290380 L-308925 290380 L-308485 290380 L-308406 290380 L-308149 290378 L-307958 290377 L-307329 290376 L-307142 290374 L-307108 290372 L-306952 290370 L-306550 290368 L-306473 290366 L-306292 290365 L-306102 290364 L-305173 290361 L-305023 290360 L-303815 290358 L-303005 290357 L-302602 290356 L-301999 290354 L-301797 290353 L-301729 290352 L-301571 290350 L-301309 290349 L-300936 291543 L-300917 291542 L-300760 291542 L-299562 291542 L-298458 290346 L-297531 290345 L-297417 290344 L-297131 290342 L-297030 290341 L-297005 290341 L-296815 290338 L-296738 290337 L-296542 290337 L-295830 290337 L-295672 290338 L-294615 290338 L-294190 290338 L-293780 290337 L-293494 290334 L-293320 290333 L-293088 290332 L-292834 290330 L-292391 290329 L-291730 290328 L-291555 290326 L-291250 290325 L-290863 290324 L-290843 290322 L-290823 290321 L-290802 290320 L-290668 290318 L-290476 290317 L-288832 290316 L-287536 290314 L-287497 290313 L-287439 290312 L-287338 290311 L-286778 290309 L-285794 290308 L-285252 290305 L-284788 290304 L-284143 290303 L-283594 290301 L-282544 290300 L-281615 290299 L-281268 290297 L-281074 290296 L-280571 290295 L-280126 290295 L-279984 290293 L-279962 290293 L-279391 290293 L-279006 290291 L-278172 290289 L-277823 290288 L-277802 290287 L-277414 290287 L-276991 290285 L-276393 290284 L-276374 290283 L-275868 290283 L-275636 290281 L-275523 290281 L-274904 290279 L-274342 290277 L-274302 290276 L-273743 290275 L-273410 290273 L-273297 290273 L-273258 290272 L-272833 290272 L-272774 290272 L-272698 290271 L-272407 290271 L-272195 290269 L-271711 290267 L-271496 290265 L-270357 290264 L-270298 290263 L-270280 290261 L-269874 290260 L-269235 290259 L-269100 290257 L-269041 290256 L-268500 290255 L-268190 290253 L-267939 290253 L-267864 290252 L-267744 290251 L-267011 290248 L-266565 290247 L-266351 290245 L-265618 290244 L-265443 290243 L-265078 290243 L-264863 290243 L-263625 290243 L-263315 290243 L-263199 290243 L-262946 290241 L-262735 290240 L-262193 290239 L-261961 290237 L-261904 290237 L-261806 290236 L-261477 290236 L-261244 290235 L-259582 290233 L-259231 290232 L-258827 290229 L-258672 290228 L-257880 290227 L-256389 290225 L-256003 290224 L-255964 290223 L-255710 290221 L-255615 290220 L-255423 290219 L-255074 290219 L-254378 290217 L-254127 290217 L-253411 290216 L-251998 290215 L-251766 290213 L-251437 290213 L-250221 290213 L-249869 290215 L-249677 290216 L-249559 290217 L-247124 290217 L-246154 290216 L-245324 290215 L-245014 290213 L-243672 290212 L-243100 290211 L-242984 290209 L-242655 290209 L-242558 290208 L-242151 290208 L-242036 290207 L-241844 290205 L-241088 290204 L-240962 290203 L-240681 290201 L-240178 290200 L-240101 290199 L-238514 290205 L-238457 290212 L-237715 290220 L-237334 290227 L-237006 290225 L-236343 290224 L-236212 290223 L-236173 290223 L-235922 290223 L-235787 290223 L-235594 290221 L-235458 290221 L-235207 290219 L-234994 290219 L-234685 290217 L-234412 290217 L-233911 290217 L-233892 290217 L-233458 290216 L-233232 290215 L-232788 290213 L-232769 290212 L-232266 290211 L-232128 290209 L-232014 290208 L-231783 290207 L-231472 290205 L-231008 290204 L-230931 290203 L-230428 290201 L-230157 290200 L-229820 290199 L-229635 290197 L-228958 290196 L-228939 290196 L-228764 290195 L-228745 290193 L-228127 290192 L-227411 290191 L-226849 290189 L-226654 290189 L-226500 290188 L-226482 290188 L-225958 290185 L-225844 290184 L-224972 290183 L-224951 290181 L-224895 290180 L-224063 290179 L-223753 290177 L-223677 290176 L-223405 290175 L-223343 290175 L-223292 290172 L-222980 290169 L-222363 290167 L-221588 290165 L-220794 290164 L-220756 290163 L-220678 290161 L-220506 290160 L-219628 290159 L-218744 290157 L-218649 290156 L-218529 290155 L-218200 290153 L-218163 290153 L-217931 290152 L-217698 290152 L-216983 290149 L-216481 290148 L-215815 290147 L-215706 290145 L-215552 290144 L-215533 290143 L-215378 290141 L-214962 290140 L-214351 290139 L-214217 290137 L-213308 290136 L-213105 290135 L-212553 290133 L-209904 290132 L-209729 290131 L-209651 290128 L-208780 290127 L-208316 290125 L-207833 290124 L-207794 290121 L-207214 290120 L-207194 290119 L-206092 290117 L-204670 290116 L-204252 290115 L-203945 290113 L-203868 290112 L-203792 290111 L-203634 290109 L-203558 290108 L-203094 290107 L-201856 290105 L-201604 290104 L-201160 290103 L-200537 290101 L-200482 290100 L-200288 290100 L-199824 290099 L-199533 290096 L-199492 290093 L-199456 290091 L-199302 290088 L-199125 290087 L-197987 290084 L-197599 290083 L-197542 290081 L-197368 290080 L-194850 290077 L-193690 290076 L-193053 290075 L-192914 290073 L-192783 290071 L-192395 290069 L-191931 290068 L-191720 290065 L-191655 290064 L-191621 290063 L-190868 290061 L-190286 290060 L-190094 290059 L-189475 290057 L-189429 290056 L-189068 290055 L-188962 290053 L-188778 290052 L-188500 290051 L-187597 290049 L-186592 290048 L-185857 290047 L-185431 290045 L-185271 290044 L-184908 290043 L-184811 290041 L-184367 290040 L-184292 290039 L-183940 290039 L-183690 290036 L-183670 290033 L-183497 290031 L-182548 290027 L-182434 290025 L-181872 290024 L-181422 290023 L-181037 290021 L-180126 290020 L-180070 290019 L-178931 290017 L-178351 290015 L-178176 290013 L-177382 290011 L-177151 290009 L-176764 290008 L-176494 290007 L-176358 290005 L-176242 290004 L-175623 290004 L-175565 290004 L-175350 290004 L-175056 290004 L-174268 290003 L-174128 290003 L-172740 290001 L-172393 290001 L-172006 290000 L-171945 289997 L-171908 289996 L-171851 289995 L-171208 289993 L-170516 289992 L-170264 289992 L-169929 289991 L-169839 289991 L-169319 289989 L-169065 289988 L-168850 289985 L-168467 289984 L-168306 289983 L-167768 289980 L-166955 289979 L-166937 289977 L-166821 289977 L-166676 289976 L-166296 289976 L-166104 289976 L-166047 289975 L-165748 289973 L-165681 289972 L-165486 289971 L-165119 289969 L-165057 289968 L-164753 289967 L-164708 289967 L-164654 289965 L-164016 289965 L-163997 289964 L-163512 289963 L-163029 289964 L-162660 289964 L-162294 289965 L-162159 289965 L-162005 289964 L-161935 289963 L-161288 289963 L-161268 289961 L-161127 289961 L-160643 289960 L-160360 289960 L-160302 289959 L-160244 289959 L-159934 289957 L-159779 289956 L-159296 289956 L-158522 289956 L-157882 289956 L-157785 289955 L-156722 289955 L-156701 289953 L-156236 291562 L-156220 291562 L-156046 291562 L-155534 291562 L-153179 289952 L-152235 289951 L-151516 289949 L-150975 289947 L-150278 289945 L-149962 289944 L-149313 289943 L-148806 289941 L-148771 289940 L-148729 289939 L-148384 289937 L-147689 289936 L-147492 289935 L-147476 289932 L-147359 289931 L-147078 289929 L-146180 289927 L-146134 289925 L-145768 289923 L-145751 289921 L-145696 289920 L-145502 289919 L-145366 289917 L-145291 289916 L-145057 289915 L-144516 289913 L-144476 289912 L-144439 289911 L-144413 289909 L-143778 289907 L-143236 289905 L-142071 289904 L-141711 289903 L-140434 289903 L-140395 289901 L-140356 289901 L-140142 289900 L-139951 289899 L-139874 289897 L-139720 289896 L-139681 289895 L-138592 289893 L-138267 289893 L-138053 289892 L-137793 289892 L-137300 289892 L-137278 289897 L-136861 289903 L-136720 289907 L-136660 289912 L-136583 289912 L-136372 289911 L-135077 289911 L-134801 289909 L-134176 289908 L-132785 289907 L-132713 289905 L-132675 289903 L-132482 289901 L-132092 289900 L-131785 289899 L-131728 289897 L-131413 289897 L-131363 289897 L-131324 289896 L-131278 289895 L-130645 289893 L-129871 289892 L-129433 289891 L-129291 291514 L-129267 291512 L-129251 293135 L-129226 293135 L-128808 291512 L-128605 291511 L-128456 289887 L-128377 289885 L-128323 289884 L-127526 289884 L-127510 289884 L-126646 289884 L-126442 289884 L-126155 289883 L-126040 289881 L-125514 289880 L-125338 289879 L-125034 289877 L-124647 289876 L-124587 289873 L-124531 289872 L-124376 289871 L-123332 289869 L-122769 289869 L-122534 289868 L-122497 289868 L-122227 289868 L-121822 289867 L-120352 289865 L-118611 289864 L-118224 289863 L-117992 289861 L-117893 289860 L-117799 289859 L-117644 289856 L-117081 289856 L-116998 289855 L-116832 289855 L-116289 289856 L-115105 289856 L-115090 289856 L-115031 289856 L-114879 289855 L-114395 289853 L-113748 289852 L-113041 289849 L-112925 289848 L-111958 289847 L-111913 289845 L-111222 289845 L-111165 289844 L-111087 289844 L-111068 289843 L-111047 289841 L-110832 289840 L-110118 289840 L-109729 289839 L-109692 289837 L-109675 289836 L-109617 289835 L-109189 289833 L-108975 289832 L-108900 289829 L-108823 289828 L-108708 289827 L-108642 289827 L-108514 289825 L-108455 289825 L-108379 289823 L-108300 289822 L-107872 289820 L-107146 289819 L-107133 289816 L-106966 289815 L-106749 289812 L-106735 289810 L-106154 289808 L-105882 289807 L-105594 289806 L-105164 289804 L-105010 289803 L-104954 289802 L-104777 289800 L-103382 289799 L-103117 289796 L-102224 289794 L-101698 289792 L-100679 289790 L-100598 289788 L-100134 289787 L-99515 289787 L-99228 289786 L-98975 289786 L-98823 289784 L-98474 289783 L-97758 289782 L-97196 289780 L-96308 289779 L-95999 289779 L-95708 289779 L-94856 289779 L-94835 289779 L-94178 289779 L-93675 289776 L-93464 289775 L-93444 289774 L-93114 289772 L-93056 289772 L-92669 289772 L-91684 289772 L-91122 289772 L-91025 289772 L-90717 289771 L-90639 289771 L-89605 289770 L-89474 289768 L-89418 289767 L-88782 289766 L-88723 289764 L-88648 289763 L-87234 289762 L-87097 289760 L-86964 289759 L-86478 289758 L-86228 289756 L-85938 289755 L-85725 289754 L-85068 289752 L-84500 289750 L-84410 289748 L-84271 289747 L-84196 289746 L-83032 289746 L-82999 289744 L-82570 289744 L-82553 289743 L-82378 289742 L-80851 289740 L-80766 289742 L-79961 289742 L-79767 289742 L-79746 289742 L-78893 289740 L-78699 289739 L-78065 289738 L-77890 289736 L-77770 289735 L-77717 289735 L-77696 289735 L-77639 289735 L-77251 289735 L-76807 289735 L-76729 289734 L-76532 289734 L-76470 289732 L-76208 289731 L-75859 289731 L-75744 289730 L-74595 289730 L-74310 289728 L-73866 289727 L-72662 289726 L-72532 289724 L-72222 289723 L-71794 289722 L-70497 289720 L-70188 291285 L-70172 291285 L-70125 291315 L-70076 291315 L-69148 289748 L-68817 289748 L-68269 289716 L-68142 289715 L-67696 289714 L-66162 289712 L-65994 289711 L-65722 289710 L-65698 289707 L-64794 289706 L-64678 289704 L-64211 289703 L-64189 289702 L-64116 289700 L-63918 289699 L-63766 289698 L-63299 289696 L-62648 289695 L-62161 289694 L-61611 289694 L-60589 289694 L-60283 289694 L-60229 289694 L-59629 289692 L-59199 289691 L-59124 289691 L-59107 289690 L-58886 289690 L-58582 289688 L-58500 289687 L-58196 289687 L-57596 289686 L-57460 289684 L-57189 289683 L-56975 289682 L-56800 289682 L-56591 289682 L-56570 289682 L-56321 289698 L-55871 289714 L-55855 289730 L-55410 289746 L-54201 289746 L-53999 289744 L-53071 289744 L-53010 289743 L-52975 289742 L-51949 289740 L-51833 289740 L-51813 289739 L-51659 289739 L-51639 289739 L-51228 289738 L-51212 289738 L-51175 289736 L-50865 289735 L-50711 289734 L-50506 289734 L-50107 289732 L-49124 289732 L-48600 289732 L-48543 289731 L-48518 289731 L-48196 289730 L-47479 289730 L-46609 289730 L-46571 289730 L-46494 289730 L-46242 289728 L-46223 289727 L-45500 289727 L-45350 289726 L-45237 289726 L-45140 289724 L-44037 289723 L-43282 289722 L-43110 289720 L-42949 289719 L-42873 289718 L-42680 289718 L-41541 289716 L-40857 289716 L-40574 289715 L-39607 289714 L-39588 289712 L-38737 289711 L-38697 289710 L-38554 289708 L-38229 289707 L-38000 289706 L-37962 289704 L-37921 289703 L-37904 289700 L-37769 289699 L-37750 289698 L-37538 289696 L-37478 289695 L-37400 289694 L-37377 289692 L-37301 289691 L-36821 289690 L-36725 289688 L-36649 289687 L-36472 289686 L-36450 289684 L-36395 289683 L-36357 289682 L-36297 289680 L-36142 289679 L-35119 289678 L-34819 289676 L-34693 289675 L-34615 289674 L-33589 289672 L-33532 289671 L-33475 289670 L-33429 289668 L-33415 289667 L-33378 289666 L-33339 289664 L-32159 289663 L-32101 289662 L-31404 289662 L-30785 289660 L-30642 289660 L-30199 289659 L-29934 289658 L-29271 289658 L-28986 289656 L-27517 289656 L-26568 289655 L-26462 289654 L-26396 289654 L-26366 289652 L-26046 289651 L-26025 289651 L-25096 289651 L-24921 289652 L-24189 289654 L-23648 217886 L-23625 146118 L-23599 74349 L-23566 2581 L-23550 2579 L-23529 2577 L-23491 2574 L-23471 2574 L-23449 2577 L-23434 2578 L-23415 2579 L-23395 2579 L-23373 2577 L-23356 2575 L-23336 2574 L-23317 2574 L-23279 2574 L-23239 2571 L-23214 2569 L-23197 2565 L-23179 2562 L-23142 2560 L-23124 2558 L-23104 2557 L-23085 2556 L-23064 2553 L-23047 2552 L-23008 2548 L-22985 2544 L-22970 2542 L-22951 2540 L-22931 2538 L-22911 2537 L-22892 2534 L-22853 2533 L-22796 2532 L-22748 2529 L-22696 2528 L-22670 2525 L-22654 2522 L-22637 2521 L-22621 2520 L-22600 2518 L-22582 2518 L-22562 2516 L-22543 2514 L-22520 2512 L-22505 2508 L-22486 2505 L-22466 2504 L-22444 2501 L-22408 2498 L-22389 2496 L-22368 2493 L-22332 2490 L-22310 2489 L-22285 2488 L-22269 2486 L-22251 2484 L-22234 2477 L-22214 2470 L-22195 2462 L-22176 2457 L-22157 2453 L-22099 2450 L-22079 2446 L-22056 2444 L-22022 2440 L-22002 2436 L-21982 2433 L-21963 2430 L-21945 2429 L-21905 2428 L-21886 2425 L-21867 2422 L-21841 2421 L-21654 2418 L-21634 2416 L-21614 2414 L-21592 2412 L-21558 2409 L-21537 2406 L-21516 2402 L-21499 2398 L-21479 2394 L-21460 2390 L-21440 2388 L-21422 2385 L-21403 2382 L-21382 2380 L-21356 2377 L-21341 2374 L-21306 2372 L-21285 2370 L-21267 2368 L-21247 2366 L-21228 2364 L-21207 2361 L-21170 2358 L-21151 2356 L-21128 2353 L-21113 2350 L-21094 2348 L-21073 2345 L-21054 2344 L-21016 2341 L-20939 2340 L-20914 2337 L-20891 2334 L-20863 2330 L-20840 2328 L-20813 2325 L-20764 2322 L-20743 2321 L-20705 2317 L-20686 2314 L-20664 2313 L-20648 2310 L-20629 2309 L-20609 2308 L-20588 2306 L-20552 2304 L-20532 2302 L-20475 2301 L-20454 2300 L-20428 2300 L-20414 2298 L-20396 2298 L-20358 2297 L-20338 2294 L-20320 2292 L-20300 2289 L-20280 2286 L-20262 2284 L-20242 2280 L-20222 2277 L-20201 2274 L-20165 2272 L-20145 2270 L-20126 2269 L-20088 2268 L-20049 2266 L-20029 2265 L-20010 2264 L-19962 2262 L-19934 2261 L-19894 2258 L-19864 2257 L-19849 2254 L-19777 2252 L-19758 2249 L-19736 2248 L-19720 2246 L-19701 2245 L-19661 2245 L-19584 2242 L-19565 2241 L-19546 2238 L-19525 2237 L-19500 2236 L-19468 2234 L-19449 2234 L-19430 2232 L-19391 2229 L-19350 2225 L-19272 2221 L-19236 2218 L-19197 2216 L-19119 2214 L-19100 2213 L-19055 2212 L-19033 2213 L-19005 2213 L-18966 2210 L-18935 2209 L-18920 2206 L-18907 2204 L-18866 2201 L-18805 2200 L-18791 2197 L-18771 2194 L-18751 2192 L-18674 2188 L-18636 2185 L-18617 2182 L-18571 2181 L-18554 2180 L-18536 2178 L-18520 2177 L-18481 2173 L-18461 2170 L-18442 2166 L-18420 2164 L-18404 2161 L-18365 2158 L-18327 2156 L-18308 2153 L-18288 2149 L-18268 2144 L-18249 2138 L-18230 2133 L-18210 2130 L-18191 2129 L-18127 2128 L-18105 2126 L-18077 2125 L-18053 2121 L-18026 2117 L-18010 2112 L-17994 2106 L-17957 2104 L-17939 2101 L-17919 2100 L-17900 2098 L-17877 2096 L-17862 2094 L-17843 2093 L-17823 2089 L-17802 2084 L-17785 2080 L-17765 2076 L-17746 2073 L-17725 2071 L-17707 2069 L-17689 2067 L-17642 2065 L-17626 2063 L-17607 2060 L-17591 2056 L-17570 2052 L-17552 2048 L-17533 2044 L-17513 2039 L-17476 2037 L-17456 2036 L-17413 2035 L-17398 2033 L-17379 2029 L-17359 2025 L-17321 2023 L-17302 2021 L-17282 2019 L-17243 2017 L-17224 2015 L-17198 2012 L-17148 2011 L-17111 2009 L-17096 2008 L-17050 2007 L-17011 2004 L-16991 2003 L-16971 2000 L-16949 1999 L-16933 1996 L-16914 1993 L-16872 1992 L-16856 1989 L-16817 1985 L-16796 1983 L-16779 1979 L-16739 1975 L-16714 1972 L-16697 1969 L-16663 1967 L-16642 1963 L-16624 1957 L-16604 1951 L-16563 1944 L-16547 1937 L-16469 1933 L-16451 1931 L-16411 1929 L-16392 1927 L-16373 1924 L-16353 1924 L-16334 1923 L-16315 1923 L-16220 1924 L-16195 1923 L-16167 1921 L-16136 1919 L-16121 1916 L-16100 1913 L-16062 1911 L-16043 1908 L-16020 1905 L-16005 1904 L-15986 1903 L-15966 1900 L-15944 1897 L-15928 1895 L-15908 1892 L-15889 1889 L-15868 1887 L-15850 1883 L-15832 1880 L-15810 1879 L-15785 1876 L-15768 1872 L-15750 1868 L-15713 1864 L-15695 1859 L-15675 1855 L-15657 1851 L-15635 1845 L-15599 1843 L-15579 1839 L-15556 1835 L-15541 1832 L-15522 1829 L-15502 1827 L-15463 1824 L-15425 1823 L-15405 1821 L-15386 1819 L-15341 1817 L-15240 1817 L-15224 1816 L-15092 1815 L-15076 1813 L-15057 1808 L-15037 1804 L-15016 1801 L-14979 1797 L-14960 1796 L-14939 1795 L-14882 1792 L-14856 1789 L-14840 1787 L-14823 1783 L-14806 1780 L-14786 1779 L-14767 1777 L-14728 1775 L-14706 1773 L-14670 1772 L-14651 1771 L-14629 1769 L-14573 1769 L-14554 1768 L-14496 1767 L-14457 1765 L-14391 1764 L-14363 1761 L-14340 1759 L-14313 1756 L-14281 1753 L-14264 1752 L-14243 1749 L-14225 1753 L-14206 1756 L-14186 1760 L-14165 1764 L-14148 1763 L-14052 1761 L-13994 1760 L-13954 1759 L-13928 1755 L-13897 1752 L-13858 1749 L-13820 1745 L-13800 1743 L-13761 1740 L-13722 1737 L-13684 1735 L-13665 1733 L-13626 1731 L-13606 1728 L-13588 1727 L-13568 1725 L-13549 1724 L-13529 1723 L-13510 1720 L-13483 1716 L-13434 1712 L-13395 1709 L-13364 1707 L-13349 1704 L-13335 1703 L-13297 1700 L-13277 1697 L-13236 1695 L-13219 1692 L-13201 1689 L-13160 1685 L-13123 1683 L-13084 1680 L-13046 1679 L-13000 1676 L-12985 1675 L-12910 1673 L-12871 1672 L-12851 1672 L-12833 1669 L-12814 1668 L-12716 1665 L-12678 1663 L-12620 1660 L-12600 1657 L-12582 1655 L-12555 1655 L-12533 1653 L-12467 1652 L-12450 1652 L-12434 1651 L-12421 1649 L-12385 1648 L-12328 1647 L-12305 1644 L-12271 1641 L-12251 1639 L-12213 1635 L-12193 1631 L-12174 1627 L-12153 1624 L-12136 1621 L-12117 1620 L-12096 1617 L-12071 1615 L-12020 1613 L-11999 1611 L-11942 1609 L-11923 1607 L-11827 1605 L-11808 1603 L-11768 1601 L-11749 1600 L-11730 1596 L-11692 1595 L-11672 1593 L-11653 1592 L-11605 1591 L-11553 1591 L-11526 1589 L-11510 1587 L-11494 1586 L-11478 1583 L-11440 1580 L-11419 1579 L-11400 1576 L-11343 1574 L-11323 1571 L-11301 1567 L-11285 1564 L-11264 1560 L-11246 1558 L-11189 1554 L-11167 1550 L-11142 1546 L-11107 1540 L-11091 1536 L-11071 1534 L-11053 1531 L-11033 1530 L-11014 1527 L-10992 1524 L-10975 1523 L-10956 1522 L-10936 1520 L-10914 1518 L-10898 1515 L-10879 1512 L-10859 1510 L-10839 1508 L-10802 1507 L-10782 1503 L-10762 1499 L-10697 1494 L-10676 1490 L-10648 1487 L-10608 1483 L-10577 1479 L-10562 1475 L-10529 1472 L-10491 1470 L-10471 1468 L-10448 1466 L-10433 1464 L-10414 1462 L-10394 1458 L-10356 1456 L-10336 1454 L-10296 1452 L-10239 1450 L-10213 1448 L-10178 1446 L-10163 1443 L-10141 1440 L-10124 1438 L-10085 1435 L-10063 1434 L-10047 1431 L-10027 1428 L-10008 1424 L-9985 1422 L-9970 1418 L-9951 1415 L-9873 1414 L-9853 1411 L-9833 1408 L-9815 1406 L-9796 1403 L-9770 1400 L-9696 1398 L-9670 1395 L-9654 1391 L-9637 1390 L-9621 1387 L-9600 1384 L-9583 1382 L-9543 1380 L-9520 1379 L-9505 1378 L-9486 1375 L-9466 1374 L-9444 1371 L-9428 1370 L-9332 1367 L-9310 1364 L-9285 1363 L-9251 1360 L-9234 1358 L-9213 1355 L-9195 1352 L-9175 1351 L-9157 1350 L-9135 1348 L-9119 1346 L-9099 1343 L-9079 1340 L-9057 1338 L-9041 1335 L-9022 1334 L-8982 1331 L-8963 1328 L-8925 1326 L-8867 1324 L-8841 1322 L-8819 1319 L-8791 1316 L-8767 1314 L-8741 1311 L-8709 1310 L-8692 1308 L-8672 1308 L-8654 1308 L-8634 1308 L-8614 1308 L-8576 1306 L-8558 1303 L-8538 1299 L-8516 1296 L-8480 1294 L-8460 1292 L-8440 1290 L-8422 1287 L-8403 1286 L-8382 1283 L-8356 1280 L-8341 1278 L-8323 1275 L-8306 1271 L-8285 1268 L-8267 1264 L-8248 1260 L-8228 1258 L-8170 1254 L-8150 1252 L-8128 1250 L-8035 1247 L-7996 1246 L-7977 1255 L-7957 1264 L-7939 1279 L-7841 1294 L-7814 1298 L-7782 1302 L-7764 1300 L-7665 1299 L-7648 1296 L-7629 1295 L-7609 1292 L-7589 1290 L-7571 1286 L-7552 1282 L-7532 1278 L-7512 1274 L-7474 1271 L-7454 1270 L-7397 1268 L-7377 1272 L-7358 1292 L-7339 1312 L-7320 1331 L-7300 1346 L-7279 1346 L-7222 1346 L-7201 1347 L-7165 1346 L-7145 1344 L-7088 1343 L-7068 1342 L-7029 1346 L-7010 1348 L-6983 1351 L-6934 1354 L-6894 1351 L-6835 1348 L-6815 1346 L-6797 1344 L-6758 1343 L-6720 1342 L-6681 1340 L-6603 1339 L-6584 1338 L-6565 1336 L-6468 1335 L-6449 1335 L-6371 1334 L-6314 1332 L-6255 1330 L-6216 1327 L-6198 1326 L-6178 1323 L-6159 1319 L-6033 1315 L-5951 1311 L-5937 1307 L-5922 1303 L-5886 1300 L-5848 1298 L-5828 1296 L-5805 1294 L-5791 1292 L-5772 1290 L-5713 1287 L-5693 1271 L-5675 1252 L-5653 1234 L-5636 1214 L-5617 1208 L-5596 1206 L-5570 1203 L-5554 1200 L-5536 1198 L-5520 1195 L-5499 1188 L-5481 1182 L-5461 1175 L-5421 1168 L-5384 1164 L-5365 1162 L-5342 1159 L-5308 1155 L-5268 1154 L-5249 1151 L-5211 1148 L-5191 1146 L-5172 1144 L-5153 1143 L-5127 1140 L-5105 1138 L-5053 1134 L-5026 1131 L-5010 1130 L-4994 1127 L-4978 1126 L-4957 1123 L-4940 1122 L-4920 1120 L-4843 1119 L-4823 1118 L-4802 1115 L-4785 1110 L-4765 1106 L-4725 1102 L-4689 1098 L-4667 1095 L-4642 1093 L-4625 1091 L-4607 1089 L-4570 1087 L-4552 1086 L-4532 1083 L-4514 1082 L-4492 1079 L-4475 1075 L-4456 1073 L-4436 1070 L-4413 1069 L-4359 1067 L-4339 1065 L-4321 1063 L-4262 1061 L-4198 1058 L-4176 1054 L-4098 1051 L-4065 1047 L-4029 1045 L-4011 1043 L-3991 1041 L-3948 1039 L-3934 1037 L-3894 1033 L-3873 1029 L-3856 1025 L-3836 1019 L-3796 1015 L-3779 1011 L-3760 1009 L-3739 1005 L-3713 1002 L-3697 998 L-3678 994 L-3641 990 L-3604 987 L-3585 983 L-3563 981 L-3527 979 L-3484 977 L-3430 974 L-3392 971 L-3373 969 L-3353 965 L-3333 962 L-3270 959 L-3195 955 L-3152 954 L-3136 951 L-3121 949 L-3082 947 L-3062 946 L-3019 945 L-3005 945 L-2986 943 L-2966 942 L-2944 939 L-2927 937 L-2908 934 L-2867 930 L-2832 926 L-2810 922 L-2785 918 L-2768 915 L-2750 913 L-2734 910 L-2712 74784 L-2682 74778 L-2656 74773 L-2634 74768 L-2618 886 L-2598 885 L-2579 882 L-2541 878 L-2522 874 L-2502 870 L-2482 865 L-2425 861 L-2405 857 L-2386 853 L-2341 851 L-2319 849 L-2291 846 L-2266 843 L-2239 841 L-2208 838 L-2171 835 L-2154 834 L-2134 831 L-2057 830 L-2037 829 L-2016 829 L-1999 830 L-1979 830 L-1882 831 L-1856 829 L-1840 827 L-1822 825 L-1806 821 L-1767 818 L-1747 815 L-1706 813 L-1670 811 L-1650 809 L-1628 807 L-1612 805 L-1573 803 L-1516 802 L-1476 799 L-1390 795 L-1363 793 L-1340 789 L-1298 785 L-1225 783 L-1206 782 L-1148 782 L-1129 783 L-1109 781 L-1089 778 L-1052 775 L-1012 773 L-993 771 L-954 771 L-928 770 L-877 769 L-839 767 L-779 765 L-761 763 L-742 761 L-701 759 L-626 755 L-606 753 L-588 747 L-529 742 L-510 738 L-484 734 L-462 731 L-396 729 L-365 727 L-351 725 L-315 723 L-277 721 L-236 718 L-201 715 L-181 713 L-160 711 L-142 710 L-123 709 L-103 707 L-83 706 L-65 705 L14 703 L70 702 L89 699 L108 698 L149 698 L166 698 L227 698 L263 697 L283 694 L321 693 L360 690 L379 687 L417 685 L533 682 L565 681 L580 678 L614 675 L631 674 L651 671 L694 670 L728 667 L786 666 L807 663 L846 663 L903 662 L928 661 L945 658 L979 655 L1000 653 L1019 650 L1038 647 L1095 645 L1115 642 L1157 639 L1172 637 L1212 633 L1231 629 L1250 626 L1289 623 L1308 621 L1327 619 L1346 617 L1394 614 L1422 611 L1447 610 L1474 607 L1490 605 L1505 602 L1542 598 L1599 596 L1637 592 L1676 589 L1698 586 L1714 584 L1735 580 L1774 577 L1791 574 L1810 572 L1832 568 L1857 565 L1874 561 L1892 558 L1908 554 L1929 552 L1947 549 L1967 546 L1985 545 L2007 542 L2024 540 L2043 538 L2086 533 L2101 529 L2120 524 L2140 517 L2160 512 L2179 508 L2217 502 L2301 500 L2323 496 L2351 492 L2390 489 L2420 486 L2435 484 L2471 482 L2508 480 L2551 480 L2566 478 L2605 477 L2663 474 L2682 472 L2704 468 L2739 466 L2760 465 L2786 464 L2803 462 L2837 460 L2858 457 L2875 454 L2894 450 L2914 446 L2952 442 L2972 438 L2992 434 L3015 432 L3030 430 L3089 428 L3107 425 L3126 422 L3145 417 L3165 414 L3203 410 L3229 408 L3279 405 L3318 404 L3349 402 L3363 401 L3378 400 L3437 397 L3456 396 L3494 393 L3513 390 L3533 388 L3572 385 L3592 381 L3610 378 L3632 374 L3667 370 L3689 368 L3714 365 L3765 364 L3804 361 L3824 357 L3865 353 L3881 349 L3901 345 L3943 341 L3958 338 L3977 336 L3997 333 L4017 330 L4036 329 L4054 328 L4074 326 L4180 324 L4246 322 L4277 318 L4307 316 L4345 313 L4365 312 L4423 309 L4442 306 L4462 302 L4484 298 L4500 294 L4539 292 L4560 288 L4577 284 L4596 282 L4617 280 L4643 276 L4659 273 L4677 269 L4694 266 L4715 265 L4732 264 L4752 262 L4771 260 L4793 258 L4809 258 L4848 258 L4871 258 L4906 258 L4945 256 L4964 254 L4983 252 L5003 248 L5023 245 L5041 241 L5060 237 L5108 236 L5136 233 L5160 230 L5186 229 L5219 226 L5274 224 L5294 222 L5313 220 L5335 218 L5351 216 L5370 214 L5428 213 L5447 212 L5467 209 L5524 208 L5545 205 L5622 204 L5641 201 L5660 198 L5679 196 L5720 192 L5738 186 L5757 184 L5777 180 L5854 178 L5873 177 L5951 174 L6065 172 L6106 169 L6138 168 L6152 166 L6165 165 L6185 164 L6202 162 L6241 160 L6279 158 L6298 156 L6318 154 L6396 152 L6474 149 L6500 148" />
</svg>
