<svg xmlns="http://www.w3.org/2000/svg" version="1.1" viewBox="0 0 6500 1000">
	<path fill="none" stroke="gold" stroke-width="125" stroke-linecap="round" stroke-linejoin="round" d="M0 113176  L-1091144 113176 L-1090960 113138 L-1090470 113062 L-1090176 113024 L-1089865 112948 L-1089631 112910 L-1089577 112835 L-1089518 112759 L-1089365 112721 L-1089324 112645 L-1089192 112607 L-1088899 112569 L-1088359 112569 L-1087748 112531 L-1087700 112531 L-1087060 112493 L-1087027 112493 L-1086501 112493 L-1086369 112455 L-1085978 112379 L-1085650 112304 L-1085533 112228 L-1085322 112152 L-1084605 112152 L-1084035 112114 L-1083928 112114 L-1083753 112076 L-1083532 112000 L-1083131 111962 L-1083105 111886 L-1082177 111811 L-1082089 111735 L-1082007 111659 L-1081937 111583 L-1081640 111545 L-1081488 111469 L-1079598 111507 L-1079497 111507 L-1079234 111507 L-1078941 111545 L-1078799 111469 L-1078551 111469 L-1078515 111431 L-1078357 111394 L-1077893 111318 L-1077640 111280 L-1077428 111204 L-1077176 111166 L-1076828 111128 L-1075900 111052 L-1075807 110976 L-1075396 110938 L-1074225 110863 L-1073036 110825 L-1072944 110749 L-1072916 110673 L-1072650 110597 L-1072351 110521 L-1072222 110445 L-1072185 110370 L-1071370 110370 L-1070986 110408 L-1069926 110445 L-1069865 110445 L-1069600 111204 L-1069128 111924 L-1068936 112645 L-1068672 113365 L-1068335 113328 L-1068200 113290 L-1067744 113252 L-1067001 113214 L-1066984 113176 L-1066818 113100 L-1066750 113100 L-1066234 113062 L-1065205 113062 L-1065009 113024 L-1064521 112986 L-1064159 112948 L-1063750 112948 L-1063364 112986 L-1061661 112986 L-1061563 112986 L-1061491 112986 L-1061430 112986 L-1061245 112948 L-1060909 112948 L-1060268 112910 L-1060191 112872 L-1060130 112872 L-1059943 112835 L-1059864 112835 L-1059687 112797 L-1059668 112759 L-1059437 112759 L-1059050 112721 L-1058161 112721 L-1058122 112683 L-1058033 112645 L-1058006 112569 L-1056998 112531 L-1056848 112455 L-1056824 112417 L-1056691 112379 L-1056651 112342 L-1055393 112304 L-1055335 112304 L-1054796 112266 L-1054743 112266 L-1054696 112266 L-1054301 112228 L-1054162 112190 L-1053962 112152 L-1053815 112152 L-1053650 112152 L-1053374 112190 L-1053015 112190 L-1052463 112152 L-1051818 112114 L-1051559 112038 L-1051405 112000 L-1051004 111962 L-1050964 111924 L-1050843 111886 L-1050782 111924 L-1050768 111924 L-1050674 111924 L-1050381 111886 L-1050229 111735 L-1049899 111659 L-1049821 111583 L-1049745 111545 L-1049519 111431 L-1049452 111356 L-1049224 111280 L-1049172 111204 L-1049007 111166 L-1048002 111128 L-1047818 111090 L-1047267 111052 L-1046874 110976 L-1046477 110938 L-1045627 110863 L-1045548 110825 L-1044969 110787 L-1044528 110787 L-1044287 110749 L-1044130 110749 L-1043729 110673 L-1043709 110673 L-1043264 110635 L-1042858 110597 L-1042722 110521 L-1042547 110445 L-1042411 110370 L-1042160 110294 L-1041161 110256 L-1041079 110218 L-1040943 110180 L-1040904 110142 L-1040015 110104 L-1039799 110066 L-1039356 110028 L-1039238 109990 L-1039181 109952 L-1038505 109952 L-1038405 109915 L-1038376 109915 L-1037034 109877 L-1036628 109839 L-1036589 109801 L-1035661 109763 L-1035562 109725 L-1035430 109687 L-1035025 109649 L-1034999 109611 L-1034906 109573 L-1034690 109535 L-1034279 109459 L-1033125 109384 L-1032833 109308 L-1032805 109232 L-1032197 109194 L-1031947 109118 L-1031927 109080 L-1030998 109042 L-1030946 108967 L-1030824 108929 L-1030806 108853 L-1030650 108815 L-1030475 108739 L-1030339 108701 L-1030282 108663 L-1030174 108625 L-1030089 108587 L-1029856 108549 L-1029781 108511 L-1029472 108474 L-1029354 108436 L-1029185 108398 L-1029093 108360 L-1028991 108360 L-1028968 108322 L-1028890 108322 L-1028792 108246 L-1028426 108208 L-1028321 108170 L-1027818 108132 L-1027366 108094 L-1027328 108056 L-1027304 108018 L-1027263 107981 L-1027134 107943 L-1027033 107905 L-1026592 107867 L-1026309 107829 L-1025717 107791 L-1025587 107753 L-1025312 107677 L-1025160 107639 L-1025006 107601 L-1024921 107525 L-1024843 107488 L-1024658 107450 L-1024607 107450 L-1024579 107412 L-1024500 107374 L-1024477 107336 L-1024193 107260 L-1023590 107184 L-1022594 107146 L-1022296 107108 L-1021562 107070 L-1021318 107032 L-1021228 106995 L-1020651 106957 L-1019952 106919 L-1019200 106881 L-1018881 106843 L-1018499 106767 L-1018421 106729 L-1017787 106691 L-1017602 106653 L-1017514 106653 L-1017384 106653 L-1017071 106615 L-1017022 106577 L-1016880 106540 L-1016858 106502 L-1015891 106464 L-1015345 106426 L-1014867 106426 L-1014806 106426 L-1014482 106426 L-1014461 106388 L-1014398 106388 L-1014188 106350 L-1014111 106312 L-1014057 106274 L-1014034 106236 L-1013995 106198 L-1013979 106160 L-1013222 106122 L-1013206 106084 L-1012406 106047 L-1012254 106009 L-1011348 105971 L-1010842 105933 L-1010613 105857 L-1010572 105857 L-1010456 105819 L-1010280 105781 L-1009526 105819 L-1009391 105781 L-1009227 105743 L-1008909 105705 L-1008733 105629 L-1007711 105554 L-1007687 105478 L-1007436 105440 L-1007223 105364 L-1006589 105326 L-1006351 105250 L-1006319 105174 L-1006141 105098 L-1006060 105023 L-1005970 104985 L-1005906 104909 L-1005466 104833 L-1005442 104795 L-1004901 104757 L-1004646 104719 L-1004151 104681 L-1003274 104643 L-1003237 104605 L-1003184 104568 L-1003143 104530 L-1003026 104492 L-1002749 104454 L-1002542 104378 L-1002345 104302 L-1002322 104226 L-1002272 104150 L-1002232 104113 L-1002154 104075 L-1001557 103999 L-1001497 103961 L-1001393 103923 L-1001239 103885 L-1000607 103847 L-999926 103809 L-999624 103733 L-999277 103695 L-999079 103657 L-999031 103582 L-998711 103544 L-998083 103506 L-997936 103468 L-997900 103430 L-997842 103392 L-997765 103316 L-997524 103316 L-997436 103278 L-997342 103240 L-997048 103202 L-996914 103164 L-996854 103127 L-996817 103051 L-996545 103051 L-995539 103013 L-995363 102975 L-995312 102975 L-995020 102937 L-994827 102861 L-994494 102823 L-993987 102785 L-993425 102709 L-993411 102634 L-993394 102596 L-993294 102520 L-993179 102444 L-993140 102368 L-993102 102330 L-993037 102330 L-993008 102292 L-992869 102330 L-992577 102330 L-992527 102330 L-992421 102330 L-992157 102292 L-991692 102254 L-991548 102254 L-991493 102178 L-991436 102141 L-991245 102103 L-990880 102065 L-990665 102065 L-990470 102065 L-990413 102065 L-990354 101989 L-990200 101951 L-989930 101913 L-989500 102103 L-989485 102103 L-989408 102065 L-989343 102027 L-989214 101761 L-989190 101723 L-988906 101686 L-988859 101648 L-988804 101610 L-988342 101572 L-988303 101572 L-988262 101534 L-988072 101496 L-987592 101458 L-987105 101420 L-987088 101382 L-987050 101344 L-986793 101306 L-986716 101230 L-986486 101193 L-986470 101117 L-986176 101041 L-985733 101003 L-985287 100965 L-984782 100927 L-984628 100889 L-984342 100851 L-984302 100775 L-983970 100737 L-983749 100700 L-983232 100624 L-983156 100586 L-982908 100510 L-982714 100434 L-982654 100396 L-981877 100358 L-981803 100358 L-981572 100320 L-981556 100320 L-981494 100282 L-981298 100244 L-980834 100244 L-980811 100207 L-980681 100207 L-979380 100207 L-979364 100207 L-979287 100169 L-979193 100169 L-978976 100169 L-978824 100131 L-978645 100169 L-978591 100207 L-978305 100244 L-978265 100244 L-977895 100244 L-977455 100244 L-977272 100244 L-976951 100207 L-976656 100207 L-976210 100131 L-976138 100093 L-975676 100017 L-975238 99979 L-975056 99941 L-973602 99865 L-973470 99827 L-973013 99751 L-972786 99714 L-972400 99638 L-971884 99562 L-970929 99486 L-970135 99410 L-969461 99372 L-969035 99296 L-968724 99259 L-968494 99145 L-967811 99031 L-967798 98917 L-967588 98766 L-967566 98728 L-967392 98652 L-966442 98614 L-966173 98538 L-965358 98500 L-965048 98424 L-965010 98386 L-964953 98310 L-964336 98273 L-963698 98197 L-962072 98159 L-961398 98121 L-960756 98121 L-960678 98121 L-960622 98121 L-960586 98121 L-960558 98083 L-960446 98007 L-960428 97969 L-960406 97931 L-960252 97893 L-960199 97817 L-960121 97780 L-960001 97742 L-959904 97704 L-959786 97666 L-959517 97590 L-959247 97552 L-959230 97476 L-959030 97438 L-958883 97362 L-958656 97324 L-958522 97287 L-958213 97249 L-958153 97211 L-957800 97135 L-957452 97097 L-957351 97059 L-957286 96983 L-957226 96945 L-956842 96869 L-956461 96832 L-956357 96794 L-956097 96756 L-955825 96680 L-955666 96642 L-955634 96604 L-955572 96566 L-955431 96528 L-955247 96490 L-955202 96452 L-954914 96452 L-954898 96414 L-954665 96414 L-954604 96376 L-954566 96376 L-953986 96339 L-953852 96301 L-953829 96149 L-953810 95883 L-953793 95580 L-953777 95277 L-953753 94973 L-953736 94746 L-953715 94480 L-953698 94215 L-953675 94063 L-953658 93912 L-953637 93798 L-953620 93722 L-953571 93608 L-953499 93494 L-953464 93305 L-953441 93153 L-953405 93001 L-953363 92850 L-953327 92774 L-953311 92622 L-953286 92508 L-953249 92433 L-953232 92319 L-953209 92243 L-953192 92167 L-953173 92091 L-953157 92015 L-953128 91902 L-953102 91788 L-953056 91750 L-953040 91674 L-952998 91636 L-952950 91560 L-952879 91485 L-952864 91409 L-952848 91333 L-952786 91295 L-952747 91257 L-952707 91219 L-952541 91181 L-952476 91143 L-952460 91105 L-952416 91029 L-952358 90992 L-952145 90954 L-952112 90916 L-952069 90878 L-951991 90840 L-951454 90802 L-951376 90764 L-951271 90688 L-951183 90650 L-951007 90612 L-950656 90574 L-950500 90536 L-950062 90499 L-949906 90461 L-949776 90423 L-949072 90347 L-948871 90309 L-947910 90233 L-947428 90195 L-947329 90195 L-947236 90157 L-946991 90119 L-946918 90081 L-946475 90006 L-946379 89968 L-946364 89930 L-946348 89892 L-946323 89854 L-945857 89816 L-945641 89778 L-945501 89740 L-945207 89702 L-945119 89664 L-945077 89626 L-945047 89588 L-944875 89551 L-944816 89513 L-944740 89475 L-944659 89437 L-944589 89437 L-944280 89399 L-944195 89361 L-943981 89323 L-943946 89285 L-943263 89247 L-943164 89209 L-942959 89171 L-942912 89133 L-942634 89095 L-942572 89058 L-942555 88982 L-942477 88944 L-942169 88868 L-942144 88830 L-942090 88754 L-942067 88716 L-941945 88678 L-941809 88602 L-941565 88565 L-941439 88565 L-940793 88527 L-940777 88527 L-940752 88527 L-940572 88451 L-940496 88413 L-940404 88375 L-939976 88337 L-939560 88299 L-939167 88223 L-939088 88185 L-939069 88147 L-938706 88109 L-938470 88072 L-938242 88034 L-937928 87996 L-937851 87958 L-937770 87882 L-937592 87806 L-937576 87768 L-937311 87692 L-937231 87654 L-937000 87616 L-936774 87579 L-936459 87579 L-936283 87541 L-935922 87541 L-935531 87503 L-935461 87427 L-935397 87389 L-935257 87313 L-935205 87275 L-935104 87199 L-934602 87161 L-934405 87124 L-934158 87086 L-933972 87048 L-933673 87010 L-933597 86972 L-933431 86896 L-932546 86858 L-932518 86782 L-932395 86706 L-931816 86668 L-931738 86631 L-931025 86631 L-930713 86631 L-930500 86631 L-930483 86631 L-930097 86631 L-929571 86555 L-929125 86517 L-928796 86479 L-928643 86441 L-928317 86441 L-928139 86403 L-928057 86403 L-927851 86327 L-927675 86289 L-926746 86251 L-925857 86213 L-925818 86175 L-925590 86175 L-925211 86138 L-924423 86100 L-924189 86062 L-924113 86024 L-923756 85986 L-923184 85910 L-922917 85872 L-922530 85834 L-922427 85834 L-922257 85834 L-921638 85834 L-921427 85834 L-921119 85834 L-921066 85796 L-920939 85758 L-920885 85720 L-920766 85682 L-920430 85607 L-919471 85569 L-919339 85493 L-919138 85455 L-918506 85417 L-918195 85379 L-917781 85341 L-917754 85303 L-917608 85265 L-917188 85227 L-915856 85227 L-915809 85189 L-915680 85114 L-915663 85076 L-915085 85000 L-914880 84962 L-914850 84924 L-914809 84886 L-914752 84848 L-914714 84810 L-914636 84772 L-914493 84734 L-914039 84697 L-913921 84659 L-913635 84621 L-913263 84583 L-913166 84545 L-912840 84507 L-912485 84469 L-912315 84431 L-912268 84393 L-912159 84355 L-912070 84317 L-912042 84279 L-911966 84204 L-911662 84166 L-911628 84090 L-911557 84052 L-911189 84014 L-910853 83976 L-910772 83976 L-910553 83938 L-910381 83900 L-910354 83862 L-909857 83824 L-909307 83748 L-908427 83711 L-908328 83635 L-908252 83597 L-907977 83559 L-907730 83483 L-907656 83445 L-907594 83369 L-907475 83331 L-907433 83293 L-907323 83255 L-907246 83180 L-906545 83142 L-906300 83104 L-906260 83066 L-906104 83028 L-905505 83028 L-905278 83028 L-905186 83028 L-904710 83028 L-904113 82952 L-903593 82914 L-903572 82876 L-903427 82838 L-903107 82838 L-902565 82838 L-902333 82838 L-902163 82838 L-901676 82800 L-901449 82762 L-901364 82725 L-901017 82687 L-900691 82687 L-900168 82649 L-899841 82611 L-899241 82573 L-899043 82497 L-898991 82459 L-898950 82421 L-898669 82383 L-897985 82307 L-897675 82270 L-897650 82194 L-897459 82156 L-897236 82118 L-897150 82080 L-896486 82004 L-896462 81966 L-896240 81890 L-895910 81852 L-895558 81777 L-895353 81739 L-895121 81663 L-894863 81625 L-894673 81549 L-894626 81511 L-894399 81473 L-894364 81435 L-894208 81397 L-893993 81359 L-893820 81321 L-893729 81284 L-893452 81246 L-893208 81208 L-892893 81170 L-892466 81170 L-892429 81170 L-891946 81170 L-891712 81170 L-891501 81132 L-891274 81094 L-890725 81094 L-890477 81056 L-889643 81056 L-889588 81018 L-889566 80980 L-889408 80942 L-888946 80904 L-888906 80866 L-888566 80791 L-888433 80753 L-888210 80715 L-887638 80677 L-887166 80639 L-886971 80601 L-886779 80563 L-886589 80525 L-886487 80487 L-886119 80449 L-886072 80411 L-885991 80373 L-884697 80335 L-884649 80298 L-884381 80298 L-884236 80298 L-883685 80298 L-883568 80260 L-883486 80222 L-883127 80184 L-882904 80146 L-882622 80108 L-882293 80032 L-881785 79994 L-881673 79956 L-881594 79918 L-881429 79880 L-881135 79880 L-880666 79880 L-880470 79918 L-880419 79918 L-879769 79880 L-879648 79843 L-879194 79843 L-879158 79805 L-878689 79767 L-878579 79729 L-878562 79691 L-878346 79691 L-878165 79653 L-877634 79653 L-876604 79653 L-876405 79615 L-875946 79577 L-874998 79501 L-874899 79463 L-874546 79387 L-874485 79350 L-874470 79312 L-874435 79274 L-874066 79236 L-873946 79198 L-873704 79160 L-873540 79122 L-873352 79084 L-873232 79046 L-872161 78970 L-871303 78932 L-871091 78857 L-870993 78819 L-870819 78743 L-870486 78705 L-870414 78667 L-870357 78629 L-870181 78629 L-869792 78591 L-869557 78553 L-869446 78515 L-869329 78477 L-868348 78439 L-868322 78401 L-867728 78326 L-867696 78326 L-867547 78288 L-867263 78250 L-866351 78250 L-865405 78250 L-865252 78212 L-865149 78212 L-865018 78174 L-864874 78136 L-864848 78098 L-864734 78060 L-864515 78022 L-863834 77984 L-863705 77946 L-863401 77908 L-863162 77833 L-862829 77795 L-862190 77757 L-861848 77681 L-861786 77643 L-861630 77643 L-860709 77643 L-860238 77643 L-860195 77643 L-860182 77605 L-860141 77567 L-860119 77529 L-860092 77491 L-859948 77453 L-859525 77416 L-859190 77416 L-858999 77378 L-858570 77378 L-858382 77340 L-857993 77264 L-857459 77226 L-857087 77188 L-857065 77188 L-856815 77150 L-856697 77112 L-856621 77074 L-856485 77036 L-856446 76998 L-856366 76960 L-855972 76923 L-855476 76885 L-855364 76809 L-855191 76771 L-854882 76733 L-854435 76695 L-854112 76657 L-853970 76581 L-853542 76505 L-853389 76430 L-853334 76354 L-852520 76316 L-852500 76278 L-852129 76240 L-852072 76240 L-850943 76202 L-850875 76202 L-850316 76164 L-850122 76126 L-849985 76088 L-849752 76050 L-849405 76012 L-849370 75937 L-849335 75899 L-849267 75823 L-848918 75785 L-848746 75747 L-848261 75709 L-848245 75671 L-847919 75633 L-847762 75595 L-846621 75519 L-846596 75481 L-846405 75406 L-846211 75368 L-845961 75330 L-845944 75292 L-844924 75254 L-844626 75216 L-844550 75178 L-844414 75102 L-844239 75064 L-843662 74989 L-843446 74951 L-843382 74913 L-843252 74875 L-843215 74799 L-842692 74761 L-842554 89702 L-842539 89702 L-842517 89702 L-842496 89702 L-842269 74723 L-841493 74723 L-841452 74723 L-841084 74723 L-841006 74685 L-840953 74647 L-840280 74609 L-839538 74571 L-839113 74571 L-838665 74533 L-837604 74496 L-837292 74420 L-836882 74420 L-836810 74382 L-836286 74382 L-836191 74382 L-836173 74382 L-835729 74344 L-835543 74268 L-834763 74192 L-834090 74154 L-833678 74040 L-833446 73965 L-833306 73927 L-833224 73851 L-833204 73813 L-833128 73813 L-833000 73775 L-832683 73813 L-832459 73813 L-832134 73775 L-832071 73775 L-831701 73775 L-831668 73775 L-831460 73775 L-830792 73775 L-830715 73775 L-830557 73699 L-830446 73699 L-830120 73661 L-829965 73623 L-829624 73623 L-829567 73547 L-829229 73472 L-829025 73434 L-828972 73358 L-827596 73320 L-827466 73282 L-827033 73244 L-826712 73206 L-825884 73130 L-825761 73092 L-825030 73017 L-824874 72941 L-824834 72903 L-824780 72865 L-824757 72827 L-824643 72789 L-824346 72751 L-824057 72713 L-824002 72675 L-823881 72637 L-823851 72599 L-823752 72562 L-823308 72562 L-823156 72524 L-822321 72524 L-821779 72486 L-821444 72486 L-821428 72448 L-821353 72410 L-821237 72372 L-821042 72334 L-820778 72296 L-819943 72258 L-819847 72220 L-819325 72182 L-819284 72144 L-819184 72106 L-818356 72106 L-818221 72069 L-817882 72069 L-817328 72031 L-816948 71993 L-816785 71955 L-816476 71917 L-815663 71879 L-815357 71841 L-815088 71841 L-814767 71841 L-814446 71879 L-814171 71879 L-813342 71803 L-813247 71765 L-813154 71651 L-813050 71538 L-812663 71424 L-812183 71348 L-812166 71310 L-812048 71272 L-811680 71196 L-811585 71158 L-810751 71083 L-810674 71045 L-810375 71007 L-810284 70969 L-809877 70893 L-809766 70817 L-809067 70779 L-808594 70741 L-808534 70703 L-808315 70627 L-808041 70590 L-807928 70552 L-806901 70514 L-806515 70476 L-806494 70438 L-806162 70400 L-805917 70362 L-805484 70324 L-805374 70286 L-805256 70248 L-804804 70172 L-804214 70135 L-803877 70097 L-801984 70059 L-801871 69983 L-801659 69945 L-800341 69907 L-800234 61375 L-800168 52956 L-800132 45182 L-800070 45182 L-799571 53638 L-798896 61981 L-798874 69679 L-798603 69604 L-797635 69604 L-796946 69566 L-796784 69528 L-796243 69490 L-796153 69452 L-795134 69414 L-794186 69338 L-793821 69376 L-793718 69414 L-793130 69414 L-793070 69414 L-792970 69376 L-792529 69300 L-792422 69262 L-791980 69224 L-790981 69111 L-790724 68997 L-790621 68883 L-790491 68807 L-790125 68731 L-789544 68656 L-789513 68618 L-789197 68580 L-787214 68542 L-787098 68504 L-787031 68504 L-786672 68466 L-785054 68428 L-784876 68428 L-784732 68428 L-783909 68466 L-783856 68504 L-783802 68504 L-783368 68504 L-782387 68542 L-782314 68542 L-781229 68504 L-781016 68504 L-780300 68428 L-779911 68390 L-779692 68314 L-779373 68238 L-778879 68163 L-778751 68125 L-778523 68049 L-778290 67973 L-778231 67935 L-777941 67897 L-777669 67821 L-776639 67783 L-774974 67745 L-774555 67708 L-774418 67670 L-774262 67670 L-773957 67632 L-773728 67556 L-773570 67518 L-773411 67442 L-773241 67366 L-773194 67328 L-773141 67290 L-773119 67290 L-772733 67252 L-772483 67252 L-772213 67252 L-772052 67252 L-771962 67252 L-770304 67252 L-770138 67290 L-769759 67252 L-769299 67252 L-768689 67177 L-767596 67139 L-767165 67101 L-767133 67063 L-767071 67025 L-767053 66987 L-765350 66949 L-765308 66911 L-764841 66873 L-764655 66835 L-764622 66759 L-764027 66722 L-763977 66684 L-763655 66646 L-763604 66608 L-763393 66570 L-763375 66532 L-763109 66456 L-763056 66418 L-762587 66380 L-762077 66304 L-761999 66304 L-761704 66266 L-761688 66229 L-761649 66191 L-761578 66153 L-761421 66115 L-760475 66115 L-760418 66115 L-759897 66115 L-759705 66077 L-759604 66077 L-759378 66039 L-758868 66039 L-758480 67063 L-758411 67063 L-758062 67025 L-757705 66987 L-756577 65887 L-756525 65811 L-756299 65773 L-756265 65736 L-756140 65660 L-756042 65660 L-755777 65660 L-755037 65698 L-754458 65698 L-754165 65698 L-753459 65698 L-753280 65660 L-753257 65660 L-752621 65622 L-752310 65584 L-751913 65584 L-751884 65546 L-751863 65508 L-751709 65470 L-751024 65470 L-751007 65470 L-750667 65470 L-750395 65432 L-750357 65394 L-750301 65318 L-750279 65281 L-750207 65243 L-749875 65205 L-749769 65167 L-749741 65091 L-749542 65053 L-749390 65015 L-748522 64977 L-747959 64901 L-747943 64901 L-747842 64863 L-747740 64901 L-747593 64901 L-747515 64901 L-747477 64863 L-747422 64825 L-747348 64788 L-747203 64750 L-746721 64750 L-746317 64712 L-745451 64750 L-745431 64750 L-745173 64750 L-745096 64750 L-745067 64712 L-745057 64636 L-745040 64598 L-744747 64560 L-744707 64522 L-744635 64484 L-744562 64446 L-744357 64408 L-744197 64295 L-743895 64181 L-743818 64029 L-743801 63915 L-743585 63839 L-743353 63839 L-743243 63877 L-742874 63915 L-742715 63915 L-742484 63915 L-742316 63915 L-742170 63877 L-742038 63839 L-740763 63764 L-740359 63688 L-740298 63650 L-740182 63574 L-739756 63536 L-739741 63460 L-739679 63422 L-739406 63346 L-739293 63309 L-739011 63233 L-738734 63195 L-738309 63119 L-738286 63081 L-738208 63043 L-738083 63005 L-737496 62967 L-737105 62929 L-736769 62891 L-736180 62854 L-736078 62854 L-735907 62816 L-735771 62816 L-734943 62778 L-733758 62740 L-733722 62702 L-733667 62702 L-733446 62664 L-733241 62664 L-733086 62664 L-732830 62626 L-732753 62588 L-732211 62550 L-732174 62512 L-731925 62474 L-731538 62436 L-730712 62398 L-730354 62361 L-730044 62361 L-729786 62323 L-729562 62285 L-729156 62247 L-729039 62209 L-728856 62171 L-728803 62171 L-728614 62133 L-728443 62095 L-728415 62057 L-728134 62019 L-727824 61981 L-727686 61943 L-727376 61905 L-727182 61905 L-727167 61868 L-726447 61868 L-726314 61792 L-726016 61754 L-725926 61716 L-725325 61716 L-725287 61678 L-725208 61640 L-724588 61602 L-724436 61526 L-724396 61488 L-724085 61450 L-723893 61412 L-723700 61337 L-723645 61261 L-723336 61223 L-723284 61185 L-723229 61223 L-723203 61223 L-723079 61223 L-722268 61185 L-722192 61147 L-721651 61109 L-721382 61071 L-720723 61033 L-719815 60995 L-719574 60957 L-719041 60919 L-718824 60882 L-717717 60919 L-717667 60919 L-716891 60919 L-716343 60882 L-716232 60844 L-716079 60768 L-716024 60730 L-715859 60692 L-715481 60654 L-715034 60616 L-714979 60578 L-714825 60540 L-714145 60502 L-713925 60464 L-713407 60427 L-712558 60351 L-712542 60313 L-710751 60275 L-710196 60237 L-710079 60199 L-709073 60161 L-709037 60123 L-708804 60123 L-708712 60123 L-708672 60123 L-708340 60085 L-707988 60047 L-707723 59971 L-707436 59934 L-707125 59858 L-706871 59782 L-706777 59744 L-706287 59706 L-706080 59668 L-705514 59630 L-705400 59668 L-705049 59630 L-704997 59630 L-704957 59630 L-704354 59554 L-703620 59478 L-703039 59403 L-702803 59327 L-702263 59213 L-702110 59137 L-701608 59099 L-701399 59023 L-701376 59023 L-701317 58985 L-700354 58985 L-700177 58948 L-699735 58910 L-699711 58834 L-699556 58796 L-699474 58796 L-699324 58834 L-698677 58834 L-698627 58796 L-697507 58758 L-696523 58720 L-696462 58682 L-695741 58644 L-694876 58606 L-694497 58568 L-694278 58568 L-693519 58530 L-693467 58492 L-693158 58417 L-692306 58417 L-692113 58379 L-691936 58341 L-691712 58341 L-691585 58303 L-691393 58303 L-691161 58265 L-690991 58303 L-690705 58265 L-690425 58265 L-690342 58227 L-690172 58189 L-690155 58113 L-690001 58075 L-689962 58037 L-689187 58000 L-689110 58000 L-688878 57924 L-688451 57886 L-688106 57848 L-687522 57810 L-687254 57810 L-686995 57810 L-686865 57734 L-686849 57696 L-686735 57658 L-686711 57620 L-686477 57582 L-686441 57544 L-685125 57544 L-685069 57507 L-684390 57431 L-683818 57431 L-683692 57431 L-683539 57431 L-683462 57431 L-683150 57355 L-682877 57317 L-682788 57241 L-682687 57241 L-681759 57203 L-681683 57203 L-681319 57203 L-681294 57165 L-681258 57127 L-680482 57051 L-680390 57014 L-680250 56976 L-679848 56938 L-679587 56938 L-679343 56976 L-679129 56938 L-679049 56938 L-678972 56938 L-678896 56938 L-678709 56976 L-678643 56976 L-678393 56976 L-678338 56938 L-678200 56900 L-678121 56824 L-678007 56786 L-677784 56748 L-677620 56710 L-677579 56672 L-677410 56634 L-677039 56596 L-677024 56558 L-676908 56521 L-676187 56483 L-676151 56445 L-676018 56445 L-675670 56407 L-675259 56407 L-675222 56407 L-675144 56369 L-675106 56331 L-674741 56293 L-674537 56255 L-674522 56217 L-674177 56179 L-673828 56179 L-673502 56179 L-673401 56141 L-673248 56141 L-673053 56103 L-672822 56103 L-672729 56103 L-672574 56103 L-672496 56103 L-672456 56065 L-672342 56028 L-672319 55990 L-672068 55990 L-671929 55914 L-671352 55800 L-670524 55724 L-670036 55648 L-669914 55610 L-669876 55572 L-669863 55535 L-669711 55459 L-669610 55383 L-669377 55345 L-668987 55269 L-668682 55231 L-668667 55193 L-668496 55155 L-668257 55080 L-667661 55080 L-667057 55042 L-667018 55042 L-666977 55042 L-666824 55004 L-666771 54966 L-666708 54928 L-666640 54890 L-666586 54814 L-666560 54776 L-666514 54738 L-666419 54662 L-666282 54624 L-666129 54587 L-665997 54549 L-665956 54549 L-665920 54511 L-665858 54473 L-665585 54397 L-665270 54359 L-665229 54283 L-665144 54245 L-664967 54207 L-664730 54169 L-664372 54131 L-664342 54094 L-663773 54056 L-663650 54018 L-663414 53980 L-663391 53980 L-663110 53942 L-662824 53942 L-662569 53942 L-661997 53904 L-661700 53866 L-661624 53828 L-660925 53790 L-660848 53752 L-660813 53714 L-660786 53676 L-660735 53601 L-660541 53563 L-660401 53487 L-660365 53449 L-660324 53411 L-659729 53373 L-659497 53335 L-659213 53601 L-659159 53828 L-659085 54094 L-659007 54321 L-658771 54245 L-658527 54207 L-658391 54169 L-658285 54131 L-658205 54094 L-657818 54018 L-657691 53980 L-657538 53942 L-657501 53904 L-657355 53866 L-657133 53828 L-656959 53790 L-656890 53752 L-656069 53676 L-656053 53676 L-655758 53638 L-654970 53601 L-654660 53601 L-654514 53563 L-654286 53525 L-654085 53449 L-653148 53411 L-653112 53373 L-653089 53335 L-653048 53259 L-652780 53221 L-652183 53183 L-652119 53145 L-652084 53108 L-652067 53070 L-651372 53070 L-651171 53070 L-651139 53070 L-650805 53070 L-650698 53032 L-650073 52956 L-649569 52918 L-649531 52842 L-649089 52842 L-648993 52804 L-648834 52804 L-648521 52804 L-648509 52804 L-648069 52842 L-647587 52880 L-647458 52880 L-647137 52880 L-647069 52842 L-646765 52842 L-646589 52804 L-646395 52766 L-646153 52690 L-645955 52615 L-645929 52539 L-645351 52501 L-645281 52463 L-644872 52425 L-644817 52387 L-644771 52349 L-644407 52311 L-644261 52273 L-644056 52235 L-643959 52235 L-643804 52197 L-643743 52160 L-643595 52084 L-643495 52046 L-642938 52046 L-642915 52122 L-642743 52160 L-642201 52197 L-642140 52197 L-642087 52122 L-642058 52046 L-641987 52008 L-641970 51932 L-641907 51894 L-641870 51818 L-641716 51780 L-641390 51742 L-640824 51704 L-640810 51667 L-640748 51591 L-640646 51515 L-640600 51515 L-640357 51477 L-639935 51477 L-639780 51477 L-638039 51401 L-637497 51363 L-636554 51325 L-636144 51287 L-635603 51211 L-635407 51174 L-635238 51136 L-634942 51098 L-634828 51060 L-634812 51060 L-634658 51022 L-634518 50984 L-634441 50908 L-634309 50908 L-633962 50908 L-633591 50946 L-632993 50946 L-632817 50946 L-632661 50908 L-632392 50870 L-632240 50870 L-631949 50984 L-631926 51060 L-631843 51136 L-631615 51211 L-630916 51174 L-630789 51136 L-630358 51098 L-630263 51060 L-629059 51060 L-629009 51022 L-628716 51022 L-628313 50984 L-628037 50908 L-628018 50870 L-627900 50832 L-627824 50794 L-627642 50756 L-627162 50718 L-626711 50643 L-626301 50605 L-626270 50567 L-625852 50529 L-625738 50529 L-625620 50529 L-625604 50529 L-625410 50491 L-625389 50415 L-625156 50377 L-624713 50339 L-624394 50263 L-623929 50263 L-623764 50226 L-623609 50188 L-623453 50188 L-622999 50188 L-622680 50188 L-622625 50226 L-622254 50226 L-622216 50263 L-621890 50263 L-621773 50226 L-621675 50188 L-621349 50112 L-620962 50074 L-620701 50036 L-620342 49960 L-620086 49922 L-617916 49884 L-617866 49846 L-617844 49808 L-617432 49808 L-617371 49808 L-617301 49846 L-617070 49846 L-616759 49808 L-616456 49733 L-616411 49695 L-616104 49657 L-615971 49619 L-615754 49581 L-615042 49543 L-614887 49543 L-614748 49505 L-614600 49505 L-614579 49505 L-614384 49467 L-614359 49429 L-614268 49391 L-614246 49353 L-614230 49315 L-614129 49277 L-613201 49240 L-612743 49240 L-611651 49164 L-611228 49164 L-610824 49126 L-610786 49088 L-610532 49050 L-609758 48974 L-609741 48936 L-609717 48898 L-609524 48860 L-608788 48822 L-608518 48784 L-608478 48747 L-608079 48671 L-608054 48633 L-607265 48595 L-606585 48557 L-605214 48519 L-604944 48481 L-604895 48443 L-604358 48367 L-604325 48329 L-604223 48254 L-603899 48216 L-603820 48178 L-603551 48178 L-602638 48140 L-602499 48140 L-602251 48064 L-601705 48064 L-601283 48026 L-601090 47988 L-601075 47988 L-600937 47912 L-600843 47874 L-600716 47836 L-600456 47799 L-600431 47723 L-600339 47685 L-600029 47647 L-599969 47609 L-599852 47609 L-599502 47609 L-598692 47609 L-598460 47533 L-597631 47533 L-597399 47457 L-597183 47419 L-596664 47419 L-596026 47381 L-595610 47343 L-595287 47306 L-594807 47268 L-594381 47268 L-594320 47230 L-593971 47230 L-593931 47192 L-593917 47154 L-593818 47078 L-593772 47078 L-593287 47040 L-592485 47040 L-592151 47040 L-591070 47002 L-590590 46964 L-590567 46926 L-590427 46888 L-589871 46850 L-589174 46813 L-588865 46775 L-588643 46737 L-588539 46699 L-588436 46623 L-587765 46585 L-587671 46547 L-587649 46547 L-587572 46509 L-587394 46509 L-587222 46509 L-587041 46471 L-587028 46433 L-586951 46395 L-586787 46357 L-586272 46320 L-586256 46282 L-586116 46282 L-585753 46244 L-585729 46244 L-585599 46206 L-585574 46168 L-585212 46130 L-584686 46054 L-584593 46016 L-584377 45940 L-584283 45902 L-584259 45864 L-583794 45827 L-583717 45827 L-583316 45789 L-582865 45789 L-581613 45751 L-581575 45713 L-581143 45675 L-581110 45637 L-580391 45599 L-580215 45561 L-580079 45523 L-579772 45485 L-579718 45447 L-579693 45372 L-579677 45296 L-579502 45258 L-579312 45220 L-578805 45220 L-578431 44916 L-578093 44575 L-578054 44272 L-577335 44006 L-577241 43968 L-577203 43930 L-576661 43930 L-576638 43893 L-576235 43855 L-575810 43817 L-575539 43817 L-575359 43779 L-575113 43703 L-575090 43665 L-575033 43589 L-574417 43551 L-573914 43513 L-573527 43513 L-572908 43551 L-572692 43551 L-572537 43589 L-571244 43513 L-571145 43475 L-570703 43400 L-570371 43362 L-570071 43286 L-569828 43248 L-569094 43172 L-568515 43134 L-567685 43096 L-567585 43058 L-567027 43020 L-566889 42982 L-565247 42945 L-565186 42945 L-565093 42945 L-564126 42945 L-563948 42907 L-563661 42907 L-563443 42907 L-563365 42869 L-563094 42869 L-562978 42831 L-562825 42793 L-562515 42755 L-562437 42717 L-562346 42717 L-562268 42679 L-562152 42679 L-561973 42641 L-561881 42603 L-561843 42565 L-561340 42565 L-561121 42527 L-560992 42527 L-560837 42489 L-560782 42452 L-560657 42452 L-560272 42414 L-559764 42376 L-559692 42338 L-559211 42300 L-559134 42262 L-559034 42262 L-558801 42224 L-558336 42224 L-558106 42224 L-558090 42224 L-557857 42224 L-557703 42224 L-557641 42224 L-557448 42186 L-557177 42110 L-556426 42072 L-555473 42072 L-555437 42034 L-555212 42034 L-554772 42034 L-554491 41959 L-554143 41921 L-553074 41883 L-552146 41883 L-552015 41883 L-551968 41883 L-551899 41845 L-551744 41845 L-551667 41769 L-551493 41693 L-551059 41617 L-550855 41579 L-550794 41503 L-550212 41466 L-550058 41390 L-549942 41352 L-549901 41314 L-549732 41276 L-549595 41238 L-549384 41162 L-549307 41124 L-549283 41086 L-549075 41010 L-548665 40973 L-548640 40935 L-548417 40897 L-548272 40859 L-548237 40821 L-548224 40783 L-548201 40745 L-547968 40707 L-547782 40669 L-547565 40631 L-547540 40593 L-546851 40555 L-546747 40518 L-546711 40480 L-546691 40442 L-546497 40404 L-546443 40366 L-546326 40290 L-546245 40290 L-546134 40252 L-545820 40214 L-545360 40176 L-545105 40138 L-544871 40062 L-544741 40025 L-544389 39987 L-544329 39949 L-544177 39911 L-543604 39835 L-543518 39797 L-543365 39721 L-543069 39645 L-542699 39569 L-542396 39494 L-542319 39456 L-541914 39418 L-541746 39418 L-541602 39418 L-541062 39418 L-541001 39418 L-540985 39342 L-540819 39304 L-540614 39266 L-540539 39266 L-540446 39228 L-540036 39190 L-540021 39152 L-539997 39152 L-539804 39114 L-539727 39456 L-539557 39797 L-539495 40100 L-539479 40442 L-538965 40404 L-538743 40366 L-538124 40290 L-537871 40252 L-537677 40214 L-537638 40176 L-537564 40176 L-537499 40176 L-536848 40176 L-536810 40214 L-536635 40214 L-536569 40214 L-535895 40214 L-535506 40138 L-535245 40100 L-535007 40062 L-534929 39987 L-534914 39911 L-534711 39873 L-534341 39797 L-534115 39759 L-533480 39721 L-533460 39721 L-533073 39683 L-532979 39683 L-532921 39645 L-532645 39607 L-532335 39607 L-532258 39569 L-531407 39607 L-531064 39797 L-530627 40025 L-530193 40214 L-529698 40404 L-529549 40366 L-529280 40404 L-528042 40442 L-527986 40518 L-526222 40555 L-526032 40518 L-525022 40480 L-524871 40442 L-524495 40518 L-524174 40593 L-523569 40669 L-523499 40745 L-523322 40707 L-522493 40669 L-522355 40631 L-521968 40593 L-521784 40555 L-521740 40518 L-521620 40480 L-521410 40442 L-520963 40366 L-520614 40328 L-520482 40290 L-520073 40252 L-519723 40252 L-519438 40214 L-519244 40176 L-519090 40176 L-518926 40138 L-518858 40100 L-518758 40100 L-518524 40062 L-518408 40062 L-518355 40025 L-517813 40025 L-517348 39987 L-516166 39987 L-516033 39987 L-516008 39987 L-515956 39987 L-515288 39987 L-514253 39911 L-514059 39873 L-513880 39835 L-513728 39835 L-513688 39797 L-513673 39797 L-513611 39759 L-513286 39721 L-512125 39683 L-511932 39645 L-511754 39607 L-510641 39569 L-509781 39532 L-509675 39532 L-509201 39494 L-509008 39494 L-506687 39456 L-506609 39418 L-506488 39342 L-506453 39304 L-506416 39228 L-506322 39114 L-506106 39039 L-505525 38963 L-505138 38925 L-504366 38887 L-504288 38849 L-503590 38849 L-503049 38849 L-503008 38811 L-502878 38811 L-502414 38773 L-502375 38735 L-502241 38697 L-501872 38659 L-501843 38621 L-501693 38621 L-501292 38583 L-499468 38621 L-498661 38583 L-497942 38583 L-497926 38583 L-497612 38508 L-497050 38470 L-496549 38432 L-496030 38394 L-496009 38356 L-494265 38318 L-494096 38280 L-493900 38242 L-493006 38204 L-492488 38128 L-492277 38091 L-492019 38053 L-491310 38015 L-490359 37977 L-489701 37939 L-489662 37863 L-489375 37825 L-489293 37787 L-489197 37787 L-489066 37749 L-488988 37749 L-488253 37749 L-487916 37711 L-487866 37749 L-487611 37749 L-487325 37711 L-486899 37711 L-486319 37673 L-486060 37673 L-485908 37635 L-485661 37635 L-485623 37635 L-484825 37598 L-484788 37560 L-484611 37560 L-484201 37484 L-483973 37484 L-483896 37484 L-483765 37484 L-483649 37446 L-483301 37408 L-483238 37370 L-483085 37332 L-482344 37294 L-482233 37256 L-482063 37218 L-482024 37180 L-481729 37180 L-481328 37180 L-481151 37180 L-481057 37180 L-480747 37142 L-479946 37105 L-479487 37029 L-478968 36991 L-478479 36953 L-477783 36915 L-476737 36877 L-476468 36877 L-476414 36839 L-476254 36839 L-476002 36839 L-475756 36801 L-475677 36763 L-475463 36687 L-475151 36649 L-474687 36574 L-474673 36536 L-474377 36536 L-474363 36498 L-473372 36460 L-472700 36422 L-472365 36346 L-471749 36346 L-471612 36308 L-470973 36270 L-470843 36232 L-469892 36156 L-469792 36081 L-469233 36043 L-468824 36043 L-468396 36043 L-468305 36005 L-467470 36005 L-467106 36005 L-467067 36043 L-466935 36081 L-466758 36081 L-466541 36081 L-466488 36043 L-466331 35967 L-466078 35929 L-464977 35891 L-464900 35853 L-464681 35815 L-464550 35739 L-464514 35701 L-464320 35664 L-464221 35626 L-463737 35588 L-463452 35550 L-463292 35512 L-463197 35436 L-462926 35398 L-462656 35360 L-462640 35208 L-462502 35095 L-462363 34981 L-462037 34829 L-461728 34753 L-461687 34715 L-461611 34640 L-461496 34602 L-460645 34526 L-460319 34488 L-459987 34450 L-459855 34450 L-459639 34450 L-459622 34450 L-458942 34450 L-458849 34374 L-458825 34336 L-458810 34260 L-458771 34222 L-458359 34147 L-458090 34109 L-458050 34071 L-457681 34071 L-457472 34033 L-456389 34033 L-456372 33995 L-456344 33957 L-456324 33957 L-455947 33881 L-455692 33843 L-455444 33767 L-455304 33692 L-455172 33654 L-454840 33616 L-454747 33578 L-454687 33540 L-454128 33502 L-454067 33464 L-453911 33426 L-453717 33388 L-453525 33350 L-453509 33312 L-453471 33274 L-453432 33237 L-453161 33199 L-453038 33161 L-453006 33123 L-452906 33123 L-452750 33123 L-452609 33123 L-452325 33085 L-452000 33085 L-451304 33047 L-451281 33047 L-450772 33047 L-449926 33047 L-449563 33009 L-449408 32971 L-448804 32971 L-448634 32971 L-448573 32971 L-448518 32933 L-447463 32895 L-447444 32895 L-446538 32895 L-446517 32895 L-446350 32857 L-446108 32857 L-446058 32819 L-446003 32744 L-445865 32706 L-445826 32668 L-444898 32630 L-444842 32630 L-444720 32630 L-444649 32630 L-444533 32630 L-444355 32668 L-443372 32630 L-443233 32630 L-443115 32554 L-442820 32478 L-442573 32440 L-442537 32402 L-442482 32440 L-442460 32440 L-442327 32440 L-442248 32440 L-442111 32402 L-441488 32402 L-441321 32364 L-440857 32364 L-440680 32288 L-440664 32251 L-440604 32213 L-440487 32175 L-440005 32137 L-439309 32099 L-438936 32061 L-438767 32023 L-437801 31985 L-437646 31947 L-437468 31947 L-437375 31909 L-437120 31909 L-436950 31909 L-436303 31871 L-436292 31871 L-435712 31833 L-435573 31833 L-435518 31758 L-434783 31720 L-434744 31682 L-434667 31682 L-434025 31644 L-433250 31644 L-433158 31606 L-433109 31606 L-433094 31568 L-433058 31568 L-433041 31492 L-432979 31454 L-432962 31416 L-432942 31416 L-432788 31378 L-432749 31340 L-432733 31302 L-432694 31265 L-432554 31227 L-432478 31189 L-432113 31151 L-431765 31113 L-430992 31075 L-430389 31037 L-430193 30999 L-429963 30999 L-429825 30961 L-429187 30961 L-428898 30923 L-428876 30923 L-428416 30885 L-428183 30885 L-428128 30847 L-428090 30810 L-427587 30772 L-427037 30734 L-426248 30696 L-425125 30696 L-424231 30658 L-424143 30658 L-423844 30620 L-423772 30582 L-423656 30544 L-422479 30506 L-422131 30468 L-422109 30430 L-421590 30392 L-421443 30354 L-421335 30317 L-421125 30279 L-420971 30241 L-420948 30203 L-420754 30165 L-420677 30127 L-420534 30089 L-419733 30051 L-419587 30013 L-419307 29975 L-419129 29937 L-418820 29899 L-418008 29861 L-417080 29861 L-415488 29824 L-415244 29786 L-414604 29748 L-414408 29710 L-414330 29672 L-413813 29634 L-413581 29634 L-413558 29596 L-413426 29596 L-413087 29558 L-413076 29520 L-412859 29482 L-412822 29444 L-412281 29406 L-411752 29331 L-411684 29293 L-411391 29255 L-410843 29179 L-410808 29141 L-410755 29103 L-410656 29027 L-410424 29027 L-409843 29027 L-409746 29065 L-409672 29065 L-409340 29027 L-408590 28989 L-408551 28951 L-407871 28951 L-407716 28951 L-407390 28913 L-407174 28875 L-406943 28875 L-406646 28838 L-406400 28800 L-406049 28762 L-405996 28724 L-405236 28686 L-404543 28610 L-404193 28534 L-403729 28496 L-403095 28458 L-402686 28420 L-402609 28458 L-402183 28458 L-401540 28420 L-401371 28420 L-400629 28383 L-400442 28345 L-400146 28307 L-399574 28269 L-399549 28231 L-398530 28231 L-398043 28193 L-397950 28193 L-397889 28155 L-397600 28117 L-397314 28079 L-397253 28041 L-397073 28041 L-396362 28003 L-396186 27965 L-395988 27927 L-395836 27890 L-395744 27852 L-395683 27814 L-395141 27814 L-394830 27776 L-394738 27700 L-394661 27624 L-394094 27586 L-394003 27586 L-393748 27510 L-393421 27434 L-393384 27321 L-393229 27207 L-392997 27169 L-392675 27131 L-391543 27093 L-391343 27055 L-390818 27017 L-390573 27017 L-390327 26979 L-390247 26941 L-390228 26866 L-390151 26828 L-390095 26752 L-390018 26714 L-389979 26676 L-389800 26600 L-389763 26562 L-389532 26524 L-388294 26486 L-387967 26448 L-387928 26373 L-387146 26335 L-386999 26297 L-386008 26259 L-385801 26259 L-385375 26259 L-385248 26259 L-384843 26297 L-384756 26259 L-384099 26221 L-383391 26183 L-382783 26145 L-382590 26107 L-382357 26031 L-381738 25993 L-381443 25918 L-381003 25880 L-380848 25842 L-380693 25804 L-379937 25728 L-379587 25690 L-379185 25690 L-379146 25652 L-378140 25652 L-377820 25652 L-377574 25614 L-376874 25538 L-376800 25500 L-376488 25463 L-375408 25425 L-375216 25387 L-374983 25387 L-374788 25349 L-374287 25311 L-373534 25311 L-373420 25311 L-373220 25311 L-373179 25273 L-373086 25235 L-372773 25197 L-372685 25159 L-372569 25121 L-372251 25121 L-372182 25083 L-372157 25045 L-371795 25007 L-371756 24970 L-371540 24932 L-371037 24970 L-370434 25007 L-370223 25083 L-370070 25121 L-370032 25121 L-369988 25045 L-369953 25007 L-369820 24970 L-369411 24932 L-369040 24894 L-368987 24856 L-368971 24818 L-368892 24780 L-368482 24742 L-368328 24704 L-368313 24628 L-368273 24590 L-368095 24514 L-368019 24477 L-367787 24439 L-366997 24401 L-366920 24401 L-366185 24325 L-366029 24287 L-365790 24211 L-365728 24135 L-365643 24097 L-365620 24021 L-365502 23946 L-365488 23870 L-365426 23794 L-365388 23756 L-365294 23718 L-365272 23718 L-365156 23680 L-364923 23642 L-364753 23566 L-363933 23566 L-363532 23529 L-363376 23529 L-362872 23529 L-362757 23529 L-362161 23529 L-361787 23491 L-361735 23491 L-361541 23453 L-360844 23453 L-360806 23415 L-360662 23415 L-360436 23377 L-360175 23339 L-359801 23301 L-359375 23263 L-359246 23225 L-359226 23149 L-358733 23149 L-358036 23111 L-357805 23149 L-357651 23149 L-356682 23149 L-356458 23187 L-356180 23187 L-356164 23149 L-355638 23111 L-355109 23073 L-354961 23036 L-354941 22998 L-354400 22960 L-354090 22922 L-353972 22846 L-353781 22770 L-353644 22694 L-353317 22656 L-353200 22618 L-352891 22618 L-352465 22580 L-352409 22580 L-352176 22618 L-352079 22618 L-351946 22618 L-351650 22618 L-351536 22580 L-351172 22543 L-350859 22543 L-350376 22505 L-350206 22467 L-349957 22429 L-349742 22391 L-349216 22353 L-349029 22277 L-348674 22239 L-348039 22201 L-347884 22125 L-347143 22087 L-346724 22050 L-346544 22012 L-346467 22012 L-346336 21974 L-346043 21936 L-346002 21898 L-345772 21898 L-345579 21860 L-345324 21860 L-344898 21822 L-344789 21784 L-344170 21784 L-343989 21784 L-342777 21784 L-342130 21822 L-341979 21822 L-341942 21822 L-341810 21822 L-341709 21784 L-341693 21746 L-341611 21708 L-341400 21670 L-341283 21632 L-340920 21594 L-340548 21557 L-339852 21519 L-339449 21481 L-339344 21443 L-339326 21405 L-338382 21367 L-338187 21291 L-338035 21253 L-337979 21177 L-337223 21177 L-337206 21253 L-336717 21291 L-336586 21367 L-336393 21367 L-335503 21329 L-335464 21291 L-335425 21253 L-335349 21215 L-335310 21215 L-335233 21177 L-335149 21139 L-334884 21102 L-334652 21064 L-334590 21026 L-334109 20988 L-333773 20988 L-333662 20950 L-333468 20912 L-333292 20874 L-333233 20874 L-333196 20836 L-332927 20798 L-332229 20722 L-332176 20646 L-331882 20571 L-331480 20495 L-330915 20457 L-330042 20419 L-329738 20381 L-329700 20343 L-329577 20305 L-328978 20267 L-328849 20229 L-328649 20191 L-328611 20153 L-327997 20116 L-327819 20078 L-327804 20002 L-327586 19964 L-327508 19888 L-327200 19888 L-327068 19850 L-326837 19850 L-326502 19850 L-326411 19812 L-326310 19774 L-326272 19736 L-325729 19736 L-325537 19698 L-324995 19660 L-324570 19623 L-324438 19623 L-324376 19623 L-324145 19623 L-324129 19623 L-323640 19660 L-323560 19660 L-323542 19660 L-322149 19698 L-322014 19698 L-321900 19660 L-321265 19623 L-321126 19585 L-321008 19547 L-320854 19471 L-320817 19433 L-320739 19395 L-320685 19433 L-319693 19433 L-319656 19395 L-319523 19395 L-319463 19319 L-319364 19281 L-319073 19243 L-319060 19205 L-318750 19205 L-318650 19243 L-318185 19205 L-318131 23225 L-317988 27207 L-317861 31227 L-317629 35246 L-317060 35208 L-316971 35171 L-316948 35171 L-316661 35133 L-315978 35095 L-315901 35057 L-315865 35019 L-315849 34981 L-315649 34943 L-315229 34867 L-314958 34867 L-314084 34829 L-313792 34829 L-313681 34829 L-312947 34791 L-312820 34753 L-312460 34715 L-312208 34715 L-311336 34678 L-311167 34678 L-311106 34640 L-311051 34602 L-310703 34564 L-310680 34526 L-310471 34488 L-310330 34450 L-310200 34412 L-310077 34374 L-309954 34336 L-309717 34298 L-309426 34260 L-308767 34222 L-308745 34185 L-308590 34147 L-308473 34109 L-307509 34071 L-307453 34033 L-307220 33995 L-307198 33957 L-306872 33919 L-306756 33919 L-306717 33881 L-306215 33881 L-305916 33843 L-305804 33805 L-305262 33767 L-304203 33729 L-303577 33692 L-303405 33654 L-303157 33616 L-302901 33578 L-302770 33540 L-302748 33502 L-302081 33464 L-301185 33426 L-301139 33388 L-301069 33350 L-300953 33350 L-300732 33312 L-300541 33312 L-300502 33274 L-300310 33237 L-299651 33237 L-299034 33199 L-298995 33426 L-298399 33654 L-298337 33843 L-297215 34033 L-297160 34033 L-297039 33995 L-296774 33957 L-296710 33957 L-296441 33957 L-296365 33919 L-296149 33919 L-295666 33881 L-295396 33843 L-295265 33843 L-295033 33767 L-295008 33654 L-294993 33502 L-294970 33312 L-294955 33123 L-294931 32933 L-294917 32706 L-294893 32478 L-294878 32251 L-294855 32061 L-294840 31871 L-294817 31682 L-294801 31568 L-294773 31454 L-294755 31302 L-294737 31227 L-294701 31113 L-294661 31037 L-294646 30961 L-294621 30847 L-294569 30772 L-294544 30696 L-294467 30620 L-294429 30582 L-294414 30506 L-294351 30430 L-294336 30354 L-294290 30241 L-294219 30165 L-294181 30127 L-294157 30051 L-294105 29975 L-294079 29937 L-294064 29899 L-294002 29861 L-293965 29824 L-293888 29786 L-293872 29748 L-293844 29672 L-293772 29634 L-293732 29596 L-293579 29520 L-293462 29482 L-293408 29444 L-293326 29406 L-293292 29368 L-293268 29331 L-293114 29293 L-293099 29255 L-292997 29217 L-292687 29179 L-292650 29141 L-292435 29103 L-292324 29103 L-292299 29103 L-292069 29141 L-291837 29141 L-291462 29103 L-291334 29065 L-291294 29027 L-291242 28989 L-291140 28951 L-291104 28913 L-290893 28913 L-290829 28875 L-290716 28875 L-290505 28838 L-290468 28800 L-290095 28762 L-290042 28724 L-289963 28686 L-289941 28648 L-289849 28610 L-289649 28572 L-289611 28572 L-289589 28572 L-289359 28572 L-289338 28534 L-289129 28534 L-289034 28496 L-288997 28458 L-288660 28420 L-288548 28383 L-288508 28345 L-288494 28345 L-288355 28307 L-288340 28307 L-288085 28307 L-287502 28269 L-287426 28231 L-287388 28193 L-287343 28155 L-287295 28117 L-287115 28079 L-287101 28041 L-287001 28003 L-286923 27965 L-286863 27927 L-286497 27852 L-286415 27814 L-286397 27776 L-286344 27738 L-285375 27700 L-285244 27662 L-285222 27624 L-285002 27586 L-284933 27548 L-284911 27510 L-284664 27472 L-284408 27434 L-284277 27397 L-284238 27359 L-284216 27283 L-284161 27207 L-284073 27169 L-284012 27093 L-283787 27055 L-283657 27017 L-283558 26979 L-283503 26941 L-283310 26904 L-283232 26866 L-282899 26828 L-282768 26790 L-282590 26752 L-282575 26714 L-282549 26676 L-282280 26676 L-281079 26638 L-281042 26638 L-280926 26600 L-280693 26562 L-280502 26524 L-280463 26524 L-280407 26486 L-280303 26486 L-279789 26448 L-279495 26411 L-279263 26373 L-278988 26335 L-278971 26297 L-278938 26259 L-278898 26221 L-278860 26183 L-278759 26145 L-278682 26107 L-278589 26069 L-278462 26031 L-278358 25993 L-278179 25993 L-277987 25956 L-277158 25956 L-277042 25918 L-276787 25880 L-276747 25842 L-276648 25804 L-276588 25804 L-276345 25766 L-276322 25766 L-276201 25728 L-276129 25690 L-276090 25652 L-275858 25614 L-275682 25576 L-275161 25538 L-275085 25500 L-275069 25463 L-274657 25463 L-274295 25463 L-274179 25425 L-274156 25425 L-274115 25387 L-274039 25349 L-273985 25311 L-273637 25273 L-273521 25235 L-273343 25235 L-273288 25197 L-273264 25197 L-273151 25159 L-272863 25121 L-272631 25083 L-272415 25045 L-272206 25007 L-271995 24932 L-271169 24894 L-270829 24856 L-269822 24818 L-269459 24780 L-268413 24742 L-268336 24704 L-267889 24666 L-267677 24628 L-267486 24590 L-267191 24552 L-267150 24514 L-266997 24477 L-266943 24401 L-266712 24363 L-266131 24325 L-265937 24287 L-265318 24287 L-264829 24249 L-264777 24211 L-264129 24173 L-263978 24135 L-263809 24097 L-263436 24059 L-263421 24059 L-263322 24021 L-263283 24021 L-263152 23984 L-262719 23984 L-262416 23984 L-262030 23984 L-261890 23946 L-261729 23946 L-261295 23946 L-261256 23908 L-261155 23908 L-261039 23870 L-260861 23870 L-260691 23832 L-260573 23794 L-260212 23718 L-259994 23680 L-259862 23642 L-259722 23642 L-259223 23642 L-259145 23642 L-258911 23604 L-258587 23604 L-258200 23566 L-258177 23529 L-257557 23529 L-257287 23491 L-257054 23491 L-256629 23453 L-256357 23415 L-256216 23377 L-256007 23339 L-255801 23301 L-255250 23263 L-255119 23263 L-254732 23225 L-254462 23225 L-254359 23187 L-254099 23149 L-253897 23111 L-253828 23073 L-253789 23036 L-253222 22998 L-253015 22960 L-252988 22922 L-252759 22884 L-252681 22846 L-252164 22808 L-252126 22770 L-251970 22732 L-251677 22694 L-251405 22656 L-251041 22618 L-250693 22618 L-250321 22580 L-250201 22580 L-250129 22543 L-249649 22505 L-249586 22467 L-249252 22429 L-249121 22391 L-249043 22353 L-248914 22315 L-248450 22315 L-248156 22277 L-248079 22277 L-247768 22239 L-247460 22201 L-247396 22163 L-247367 22125 L-246592 22087 L-246487 22012 L-246399 21974 L-246376 21936 L-246222 21898 L-246001 21860 L-245834 21822 L-245447 21784 L-245392 21746 L-245329 21746 L-244711 21708 L-244594 21670 L-244271 21632 L-243746 21594 L-243395 21557 L-243319 21519 L-242700 21481 L-242289 21443 L-241988 21405 L-241677 21367 L-241539 21329 L-240915 21329 L-240533 21291 L-239410 21291 L-238349 21253 L-238287 21215 L-237926 21177 L-237825 21177 L-237809 21139 L-237435 21139 L-236430 21064 L-236043 21026 L-235836 20950 L-235747 20912 L-235371 20874 L-235079 20836 L-234767 20798 L-233978 20760 L-233890 20722 L-233838 20684 L-233800 20646 L-233282 20609 L-233167 20571 L-232958 20533 L-232819 20495 L-232215 20457 L-231386 20419 L-231102 20381 L-230921 20381 L-230419 20343 L-230214 20343 L-229660 20343 L-229155 20305 L-228964 20267 L-228925 20229 L-228296 20191 L-227843 20153 L-227429 20116 L-226820 20078 L-225700 20078 L-225286 20040 L-224962 20040 L-224747 20002 L-224320 19964 L-224180 19926 L-224089 19888 L-223858 19850 L-223271 19850 L-222463 19812 L-221264 19812 L-221150 19812 L-221018 19774 L-220930 19736 L-220888 19774 L-220868 19812 L-220857 19888 L-220762 19964 L-219999 19964 L-219293 19964 L-219253 19926 L-218967 19888 L-218426 19850 L-218364 19812 L-218324 19774 L-218310 19736 L-218053 19698 L-217729 19660 L-217589 19623 L-217319 19585 L-217280 19547 L-217172 19509 L-216771 19471 L-216661 19433 L-216584 19395 L-216287 19357 L-216244 19319 L-216026 19319 L-215842 19319 L-215732 19319 L-215717 19281 L-215691 19281 L-215267 19243 L-215021 19205 L-214685 19167 L-214650 19130 L-214516 19092 L-214262 19092 L-214107 19054 L-213201 19054 L-213102 19016 L-212907 18940 L-211900 18902 L-211399 18864 L-211321 18826 L-211283 18788 L-211075 18750 L-210956 18712 L-210858 18675 L-210672 18637 L-210506 18599 L-210271 18561 L-209851 18523 L-209836 18485 L-209527 18447 L-208481 18409 L-208264 18371 L-208248 18333 L-208226 18295 L-208017 18257 L-207858 18219 L-207800 18182 L-206355 18144 L-206029 18144 L-205827 18144 L-205628 18144 L-205478 18144 L-205207 18106 L-204766 18068 L-204549 18068 L-203854 18030 L-203352 17992 L-203027 17954 L-202756 17954 L-202035 17916 L-201880 17916 L-200682 17840 L-200293 17802 L-200177 17726 L-200024 17689 L-199870 17651 L-198900 17613 L-198847 17575 L-198600 17537 L-198578 17499 L-198358 17461 L-197920 17385 L-197780 17309 L-197672 17233 L-197470 17196 L-197353 17158 L-197251 17120 L-197237 17120 L-197104 17082 L-196850 17044 L-196232 17006 L-195573 16968 L-195327 16968 L-195134 16930 L-194375 16930 L-194336 16930 L-194258 16892 L-194206 16816 L-194166 16778 L-194128 16740 L-194089 16703 L-193998 16665 L-193953 16627 L-193895 16551 L-193871 16513 L-193756 16475 L-193446 16399 L-193392 16361 L-193370 16323 L-193028 16285 L-192863 16248 L-192827 16172 L-192787 16134 L-192772 16096 L-192540 16058 L-192400 16020 L-192232 15982 L-191782 15982 L-191549 15982 L-191456 15982 L-191436 16020 L-190955 15982 L-190878 15982 L-190751 15944 L-190621 15868 L-190242 15830 L-190001 15755 L-189963 15717 L-189909 15679 L-189771 15603 L-189732 15565 L-189692 15527 L-189462 15489 L-189422 15451 L-189292 15413 L-189113 15375 L-189072 15337 L-189058 15299 L-188894 15262 L-188879 15224 L-188726 15186 L-188711 15148 L-188685 15110 L-188651 15072 L-188429 14996 L-188206 14996 L-187952 14958 L-187820 14996 L-187178 14996 L-186571 14958 L-185551 14958 L-185358 14920 L-185307 14882 L-185182 14844 L-184857 14806 L-184084 14769 L-184027 14731 L-183913 14693 L-183501 14655 L-183176 14617 L-183038 14579 L-182814 14541 L-182288 14503 L-181887 14503 L-181855 14465 L-181568 14465 L-181283 14427 L-180895 14389 L-180679 14351 L-180252 14276 L-180070 14238 L-179734 14200 L-179627 14162 L-179441 14162 L-179324 14124 L-179310 14124 L-178588 14086 L-178419 14048 L-178170 14010 L-178070 13972 L-177428 13934 L-177140 13896 L-176950 13858 L-176675 13821 L-176357 13783 L-176073 13745 L-175959 13669 L-175914 13631 L-175711 13593 L-174103 13555 L-173891 13517 L-173210 13479 L-173127 13441 L-172899 13403 L-172709 13403 L-172570 13365 L-172551 13365 L-172358 13365 L-172128 13365 L-171935 13365 L-170851 13328 L-170656 13328 L-170603 13328 L-170450 13328 L-170342 13328 L-170175 13328 L-170023 13290 L-169908 13252 L-169784 13176 L-169367 13138 L-169109 13062 L-169017 13024 L-168824 13024 L-168762 12986 L-168437 12986 L-168376 12986 L-168319 12948 L-168050 12910 L-167701 12872 L-167523 12835 L-167329 12797 L-167293 12835 L-166580 12835 L-166541 12910 L-166231 12948 L-165934 12986 L-165884 13024 L-165628 13062 L-165357 13100 L-165302 13100 L-164211 13100 L-164181 13062 L-164140 13062 L-163964 13062 L-163771 13024 L-162913 13024 L-161860 12986 L-161799 12948 L-161450 12910 L-160637 12910 L-159824 12910 L-159809 12910 L-159434 12910 L-159265 12910 L-158997 12910 L-158669 12872 L-158547 12835 L-158490 12835 L-158455 12797 L-158378 12797 L-158160 12759 L-158102 12721 L-157786 12683 L-157619 12645 L-157255 12645 L-157062 12645 L-157038 12645 L-156961 12607 L-156480 12607 L-156343 12607 L-155929 12569 L-155630 12569 L-155531 12531 L-155515 12493 L-155486 12455 L-155127 12417 L-154777 12379 L-154639 12342 L-154603 12342 L-153786 12304 L-153580 12266 L-153556 12228 L-153399 12228 L-153309 12190 L-153068 12190 L-152744 12152 L-152652 12152 L-152455 12114 L-152169 12114 L-151414 12076 L-151284 12038 L-151211 12000 L-150598 11962 L-150423 11924 L-150312 11886 L-150212 11849 L-150133 11811 L-149996 11773 L-149842 11773 L-149763 11773 L-149572 11773 L-148898 11773 L-148860 11735 L-148757 11697 L-147814 11659 L-147792 11621 L-147441 11583 L-146976 11545 L-146941 11507 L-146512 11469 L-146460 11469 L-146049 11431 L-146032 11431 L-145936 11431 L-145881 11431 L-145842 11431 L-145547 11394 L-143808 11356 L-142299 11318 L-141791 11280 L-141293 11242 L-141159 11204 L-141068 11166 L-140941 11128 L-140862 11052 L-140557 11014 L-140286 10976 L-140052 10976 L-138853 10938 L-138748 10938 L-138683 10901 L-137841 10863 L-137655 10825 L-136744 10787 L-135875 10711 L-135587 10673 L-135495 10597 L-134946 10559 L-134426 10521 L-133357 10483 L-133089 10445 L-132935 10445 L-132842 10445 L-132712 10483 L-132665 10521 L-132505 10521 L-131639 10521 L-131304 10521 L-130921 10483 L-130169 10445 L-130109 10408 L-129720 10408 L-129398 10408 L-129241 10370 L-128509 10370 L-128446 10370 L-128159 10370 L-127785 10370 L-127604 10370 L-127348 10332 L-127087 10256 L-126934 10218 L-126531 10180 L-125234 10142 L-125118 10104 L-124655 10066 L-123323 10028 L-122898 9990 L-122874 9952 L-122741 9915 L-122566 9877 L-122432 9877 L-122102 9839 L-121715 9801 L-121675 9763 L-121659 9687 L-121268 9649 L-120977 9611 L-120708 9611 L-120534 9611 L-119041 9611 L-118991 9573 L-118913 9611 L-117673 9649 L-117598 9649 L-117571 9725 L-117325 9687 L-117167 9687 L-117109 9649 L-116221 9649 L-115993 9611 L-115469 9611 L-115328 9649 L-115252 9649 L-114556 9687 L-114308 9687 L-113628 9649 L-113610 9649 L-113356 9611 L-112988 9611 L-112853 9573 L-112231 9497 L-111887 9459 L-111840 9422 L-111353 9384 L-111019 9308 L-110802 9308 L-110668 9270 L-110347 9232 L-110282 9232 L-110030 9194 L-109741 9156 L-109431 9118 L-109291 9080 L-108752 9042 L-108476 9004 L-107746 8967 L-107693 8967 L-107586 8967 L-107320 8967 L-106896 8967 L-106631 8929 L-106412 8891 L-106391 8853 L-106160 8815 L-105873 8777 L-105850 8777 L-105835 8739 L-105463 8739 L-105291 8701 L-105215 8625 L-105154 8587 L-104853 8511 L-104612 8436 L-104520 8398 L-104262 8360 L-104210 8322 L-104014 8284 L-103798 8322 L-103375 8322 L-103282 8360 L-103142 8322 L-102277 8284 L-101904 8246 L-101576 8170 L-101423 8132 L-100996 8132 L-100278 8094 L-100083 8094 L-99729 8056 L-99583 8018 L-99076 7943 L-98840 7905 L-97873 7867 L-97863 7829 L-96798 7791 L-96565 7753 L-96163 7715 L-95969 7677 L-95889 7639 L-95793 7601 L-95056 7601 L-94924 7601 L-94534 7601 L-94512 7563 L-94417 7563 L-94281 7525 L-94264 7488 L-94244 7450 L-92559 7412 L-92541 7412 L-92424 7374 L-92340 7374 L-92215 7374 L-92191 7336 L-91907 7298 L-91801 7260 L-91612 7184 L-91342 7146 L-90670 7108 L-90298 7070 L-89446 7070 L-89388 7032 L-89369 7032 L-89136 7032 L-88861 6995 L-88556 6995 L-88516 6919 L-88285 6919 L-88048 6881 L-87435 6843 L-87394 6805 L-87357 6729 L-86835 6691 L-86644 6653 L-86583 6615 L-86541 6577 L-86218 6577 L-86190 6540 L-86176 6540 L-85691 6502 L-85637 6464 L-85499 6426 L-85461 6388 L-85444 6350 L-85349 6312 L-84684 6312 L-84068 6274 L-83798 6274 L-83390 6274 L-83370 6236 L-83354 6236 L-83240 6198 L-82853 6160 L-82387 6160 L-82326 6122 L-82248 6084 L-82233 6047 L-81747 5971 L-81707 5933 L-81562 5933 L-81512 5895 L-81433 5933 L-80801 5895 L-80710 5895 L-80470 5895 L-80353 5857 L-80025 5857 L-79271 5819 L-79254 5819 L-78303 5819 L-77993 5781 L-77568 5743 L-76855 5705 L-76536 5667 L-76521 5629 L-76370 5554 L-76067 5516 L-75989 5478 L-75862 5440 L-75425 5440 L-75364 5440 L-74841 5440 L-74573 5440 L-74435 5402 L-74357 5364 L-74318 5326 L-73507 5326 L-73466 5326 L-73026 5326 L-72948 5326 L-72690 5288 L-72500 5250 L-71871 5212 L-71684 5174 L-71649 5098 L-71493 5061 L-71092 4985 L-71015 4947 L-70834 4909 L-70643 4871 L-69714 4795 L-69564 4757 L-68356 4719 L-67546 4681 L-67143 4643 L-66541 4605 L-66339 4568 L-66270 4530 L-66112 4492 L-65850 4454 L-65477 38432 L-65458 38394 L-65302 38394 L-64104 38394 L-63000 4378 L-62072 4340 L-61958 4302 L-61673 4264 L-61571 4226 L-61547 4226 L-61356 4150 L-61279 4113 L-61083 4113 L-60371 4113 L-60213 4150 L-59157 4150 L-58732 4150 L-58321 4113 L-58035 4037 L-57861 3999 L-57629 3961 L-57375 3923 L-56932 3885 L-56272 3847 L-56096 3809 L-55791 3771 L-55404 3733 L-55384 3695 L-55365 3657 L-55343 3620 L-55210 3582 L-55017 3544 L-53373 3506 L-52077 3468 L-52038 3430 L-51980 3392 L-51879 3354 L-51320 3316 L-50336 3278 L-49793 3202 L-49329 3164 L-48684 3127 L-48135 3089 L-47085 3051 L-46156 3013 L-45809 2975 L-45615 2937 L-45112 2899 L-44667 2899 L-44525 2861 L-44503 2861 L-43932 2861 L-43547 2785 L-42714 2747 L-42365 2709 L-42343 2671 L-41955 2671 L-41533 2634 L-40934 2596 L-40915 2558 L-40409 2558 L-40177 2520 L-40064 2520 L-39445 2444 L-38883 2406 L-38843 2368 L-38284 2330 L-37951 2292 L-37839 2292 L-37800 2254 L-37375 2254 L-37315 2254 L-37240 2216 L-36948 2216 L-36736 2178 L-36252 2103 L-36038 2065 L-34898 2027 L-34839 1989 L-34821 1951 L-34415 1913 L-33776 1875 L-33641 1837 L-33583 1799 L-33041 1761 L-32732 1723 L-32481 1723 L-32405 1686 L-32286 1648 L-31552 1572 L-31107 1534 L-30892 1496 L-30159 1458 L-29984 1420 L-29619 1420 L-29404 1420 L-28166 1420 L-27856 1420 L-27740 1420 L-27487 1382 L-27276 1344 L-26734 1306 L-26502 1268 L-26445 1268 L-26348 1230 L-26018 1230 L-25786 1193 L-24123 1155 L-23773 1117 L-23369 1041 L-23214 1003 L-22421 965 L-20931 927 L-20544 889 L-20505 851 L-20252 813 L-20157 775 L-19964 737 L-19615 737 L-18919 700 L-18668 700 L-17952 662 L-16540 624 L-16308 586 L-15978 586 L-14762 586 L-14410 624 L-14218 662 L-14100 700 L-11665 700 L-10696 662 L-9865 624 L-9556 586 L-8214 548 L-7641 510 L-7525 472 L-7196 472 L-7100 434 L-6692 434 L-6577 396 L-6386 358 L-5629 320 L-5504 282 L-5223 244 L-4720 207 L-4642 169 L-3056 358 L-2998 548 L-2256 775 L-1876 965 L-1547 927 L-884 889 L-754 851 L-714 851 L-464 851 L-328 851 L-135 813 L0 813 L251 737 L464 737 L773 700 L1045 700 L1547 700 L1566 700 L2000 662 L2226 624 L2669 586 L2688 548 L3191 510 L3329 472 L3443 434 L3675 396 L3985 358 L4450 320 L4527 282 L5029 244 L5300 207 L5638 169 L5823 131 L6500 93" />
</svg>
