<svg xmlns="http://www.w3.org/2000/svg" version="1.1" viewBox="0 0 6500 1000">
	<path fill="none" stroke="gold" stroke-width="125" stroke-linecap="round" stroke-linejoin="round" d="M0 54045  L-631483 54045 L-631299 54020 L-630808 53969 L-630515 53943 L-630203 53892 L-629969 53866 L-629916 53815 L-629856 53764 L-629703 53738 L-629663 53687 L-629530 53661 L-629238 53636 L-628697 53636 L-628087 53610 L-628039 53610 L-627399 53584 L-627365 53584 L-626840 53584 L-626707 53559 L-626317 53508 L-625989 53456 L-625872 53405 L-625660 53354 L-624943 53354 L-624374 53328 L-624266 53328 L-624092 53303 L-623870 53252 L-623469 53226 L-623443 53175 L-622515 53124 L-622428 53072 L-622345 53021 L-622275 52970 L-621978 52944 L-621826 52893 L-619936 52919 L-619835 52919 L-619573 52919 L-619279 52944 L-619138 52893 L-618889 52893 L-618853 52868 L-618695 52842 L-618232 52791 L-617978 52765 L-617766 52714 L-617515 52688 L-617166 52663 L-616239 52612 L-616145 52560 L-615734 52535 L-614563 52484 L-613374 52458 L-613282 52407 L-613255 52356 L-612989 52304 L-612690 52253 L-612561 52202 L-612523 52151 L-611709 52151 L-611325 52176 L-610264 52202 L-610203 52202 L-609938 52714 L-609467 53200 L-609274 53687 L-609011 54173 L-608674 54148 L-608538 54122 L-608083 54097 L-607339 54071 L-607322 54045 L-607157 53994 L-607089 53994 L-606572 53969 L-605544 53969 L-605348 53943 L-604859 53917 L-604497 53892 L-604088 53892 L-603703 53917 L-601999 53917 L-601901 53917 L-601829 53917 L-601768 53917 L-601584 53892 L-601247 53892 L-600607 53866 L-600530 53841 L-600468 53841 L-600282 53815 L-600202 53815 L-600025 53789 L-600006 53764 L-599776 53764 L-599388 53738 L-598499 53738 L-598460 53713 L-598372 53687 L-598345 53636 L-597336 53610 L-597187 53559 L-597162 53533 L-597030 53508 L-596990 53482 L-595731 53456 L-595674 53456 L-595134 53431 L-595081 53431 L-595035 53431 L-594640 53405 L-594500 53380 L-594300 53354 L-594154 53354 L-593989 53354 L-593712 53380 L-593353 53380 L-592801 53354 L-592156 53328 L-591897 53277 L-591744 53252 L-591343 53226 L-591302 53200 L-591182 53175 L-591120 53200 L-591106 53200 L-591012 53200 L-590719 53175 L-590568 53072 L-590237 53021 L-590160 52970 L-590084 52944 L-589857 52868 L-589791 52816 L-589563 52765 L-589511 52714 L-589346 52688 L-588340 52663 L-588157 52637 L-587606 52612 L-587213 52560 L-586815 52535 L-585965 52484 L-585887 52458 L-585308 52432 L-584867 52432 L-584626 52407 L-584468 52407 L-584068 52356 L-584047 52356 L-583602 52330 L-583197 52304 L-583061 52253 L-582886 52202 L-582749 52151 L-582499 52100 L-581499 52074 L-581417 52048 L-581281 52023 L-581243 51997 L-580353 51972 L-580137 51946 L-579694 51920 L-579577 51895 L-579520 51869 L-578844 51869 L-578743 51844 L-578714 51844 L-577373 51818 L-576967 51792 L-576927 51767 L-575999 51741 L-575901 51716 L-575768 51690 L-575364 51664 L-575338 51639 L-575245 51613 L-575028 51588 L-574617 51536 L-573463 51485 L-573172 51434 L-573143 51383 L-572535 51357 L-572285 51306 L-572265 51280 L-571336 51255 L-571285 51204 L-571162 51178 L-571145 51127 L-570989 51101 L-570814 51050 L-570677 51024 L-570620 50999 L-570513 50973 L-570427 50948 L-570194 50922 L-570119 50896 L-569811 50871 L-569693 50845 L-569523 50820 L-569432 50794 L-569329 50794 L-569306 50768 L-569229 50768 L-569131 50717 L-568764 50692 L-568659 50666 L-568156 50640 L-567704 50615 L-567666 50589 L-567642 50564 L-567601 50538 L-567472 50512 L-567372 50487 L-566930 50461 L-566648 50435 L-566055 50410 L-565925 50384 L-565651 50333 L-565498 50307 L-565345 50282 L-565260 50231 L-565182 50205 L-564996 50179 L-564945 50179 L-564918 50154 L-564838 50128 L-564815 50103 L-564532 50051 L-563928 50000 L-562933 49975 L-562635 49949 L-561901 49923 L-561656 49898 L-561566 49872 L-560989 49847 L-560291 49821 L-559538 49795 L-559220 49770 L-558837 49719 L-558760 49693 L-558125 49667 L-557940 49642 L-557852 49642 L-557723 49642 L-557410 49616 L-557360 49591 L-557218 49565 L-557197 49539 L-556229 49514 L-555684 49488 L-555205 49488 L-555144 49488 L-554821 49488 L-554799 49463 L-554737 49463 L-554527 49437 L-554450 49411 L-554395 49386 L-554373 49360 L-554333 49335 L-554318 49309 L-553561 49283 L-553544 49258 L-552745 49232 L-552592 49207 L-551687 49181 L-551181 49155 L-550951 49104 L-550910 49104 L-550795 49079 L-550618 49053 L-549864 49079 L-549729 49053 L-549565 49027 L-549247 49002 L-549071 48951 L-548049 48899 L-548026 48848 L-547774 48823 L-547561 48771 L-546927 48746 L-546690 48695 L-546657 48643 L-546479 48592 L-546399 48541 L-546309 48515 L-546244 48464 L-545804 48413 L-545781 48387 L-545240 48362 L-544984 48336 L-544489 48311 L-543612 48285 L-543575 48259 L-543522 48234 L-543481 48208 L-543364 48183 L-543088 48157 L-542880 48106 L-542683 48055 L-542660 48003 L-542610 47952 L-542571 47927 L-542493 47901 L-541895 47850 L-541835 47824 L-541732 47799 L-541577 47773 L-540945 47747 L-540265 47722 L-539962 47671 L-539615 47645 L-539418 47619 L-539370 47568 L-539049 47543 L-538421 47517 L-538275 47491 L-538238 47466 L-538181 47440 L-538104 47389 L-537863 47389 L-537774 47363 L-537680 47338 L-537387 47312 L-537252 47286 L-537192 47261 L-537155 47210 L-536883 47210 L-535877 47184 L-535701 47158 L-535651 47158 L-535358 47133 L-535166 47082 L-534832 47056 L-534326 47030 L-533764 46979 L-533749 46928 L-533732 46902 L-533632 46851 L-533517 46800 L-533478 46749 L-533440 46723 L-533375 46723 L-533347 46698 L-533208 46723 L-532915 46723 L-532865 46723 L-532760 46723 L-532495 46698 L-532030 46672 L-531886 46672 L-531831 46621 L-531774 46595 L-531583 46570 L-531218 46544 L-531003 46544 L-530809 46544 L-530751 46544 L-530692 46493 L-530538 46467 L-530268 46442 L-529839 46570 L-529823 46570 L-529746 46544 L-529682 46518 L-529552 46339 L-529529 46314 L-529245 46288 L-529197 46262 L-529143 46237 L-528680 46211 L-528641 46211 L-528601 46186 L-528410 46160 L-527930 46134 L-527443 46109 L-527426 46083 L-527388 46058 L-527132 46032 L-527055 45981 L-526825 45955 L-526809 45904 L-526514 45853 L-526072 45827 L-525625 45802 L-525121 45776 L-524967 45750 L-524680 45725 L-524640 45674 L-524309 45648 L-524087 45622 L-523570 45571 L-523494 45546 L-523246 45494 L-523052 45443 L-522992 45418 L-522216 45392 L-522142 45392 L-521911 45366 L-521894 45366 L-521833 45341 L-521637 45315 L-521173 45315 L-521149 45290 L-521020 45290 L-519719 45290 L-519702 45290 L-519625 45264 L-519532 45264 L-519314 45264 L-519162 45238 L-518984 45264 L-518930 45290 L-518643 45315 L-518603 45315 L-518234 45315 L-517793 45315 L-517610 45315 L-517289 45290 L-516994 45290 L-516548 45238 L-516476 45213 L-516014 45162 L-515576 45136 L-515394 45110 L-513940 45059 L-513808 45034 L-513351 44982 L-513125 44957 L-512738 44906 L-512222 44854 L-511268 44803 L-510474 44752 L-509799 44726 L-509374 44675 L-509062 44650 L-508833 44573 L-508149 44496 L-508136 44419 L-507926 44317 L-507904 44291 L-507730 44240 L-506780 44214 L-506512 44163 L-505696 44137 L-505386 44086 L-505348 44061 L-505291 44009 L-504674 43984 L-504036 43933 L-502410 43907 L-501736 43881 L-501094 43881 L-501017 43881 L-500961 43881 L-500925 43881 L-500896 43856 L-500785 43805 L-500767 43779 L-500744 43753 L-500591 43728 L-500537 43677 L-500459 43651 L-500340 43625 L-500242 43600 L-500125 43574 L-499855 43523 L-499586 43497 L-499568 43446 L-499368 43421 L-499221 43369 L-498995 43344 L-498860 43318 L-498552 43293 L-498492 43267 L-498139 43216 L-497790 43190 L-497689 43165 L-497625 43113 L-497565 43088 L-497180 43037 L-496800 43011 L-496695 42985 L-496435 42960 L-496164 42909 L-496005 42883 L-495972 42857 L-495910 42832 L-495769 42806 L-495585 42781 L-495541 42755 L-495253 42755 L-495236 42729 L-495003 42729 L-494942 42704 L-494904 42704 L-494324 42678 L-494190 42653 L-494167 42550 L-494149 42371 L-494131 42166 L-494115 41961 L-494091 41757 L-494075 41603 L-494054 41424 L-494037 41245 L-494014 41142 L-493997 41040 L-493975 40963 L-493959 40912 L-493910 40835 L-493837 40758 L-493803 40630 L-493779 40528 L-493743 40425 L-493702 40323 L-493665 40272 L-493649 40169 L-493625 40092 L-493588 40041 L-493571 39964 L-493548 39913 L-493530 39862 L-493512 39811 L-493496 39760 L-493466 39683 L-493440 39606 L-493395 39580 L-493378 39529 L-493337 39504 L-493288 39452 L-493218 39401 L-493202 39350 L-493186 39299 L-493124 39273 L-493085 39248 L-493046 39222 L-492880 39196 L-492815 39171 L-492799 39145 L-492755 39094 L-492696 39068 L-492484 39043 L-492450 39017 L-492408 38992 L-492330 38966 L-491792 38940 L-491714 38915 L-491610 38864 L-491521 38838 L-491345 38812 L-490994 38787 L-490839 38761 L-490401 38736 L-490244 38710 L-490114 38684 L-489410 38633 L-489209 38608 L-488249 38556 L-487766 38531 L-487667 38531 L-487575 38505 L-487330 38480 L-487257 38454 L-486814 38403 L-486718 38377 L-486703 38352 L-486687 38326 L-486662 38300 L-486196 38275 L-485979 38249 L-485839 38224 L-485545 38198 L-485457 38172 L-485416 38147 L-485386 38121 L-485213 38096 L-485154 38070 L-485078 38044 L-484998 38019 L-484928 38019 L-484619 37993 L-484533 37967 L-484320 37942 L-484284 37916 L-483601 37891 L-483502 37865 L-483297 37839 L-483251 37814 L-482972 37788 L-482910 37763 L-482893 37711 L-482815 37686 L-482507 37635 L-482483 37609 L-482429 37558 L-482406 37532 L-482283 37507 L-482148 37455 L-481904 37430 L-481778 37430 L-481131 37404 L-481115 37404 L-481090 37404 L-480910 37353 L-480834 37327 L-480742 37302 L-480314 37276 L-479898 37251 L-479505 37199 L-479427 37174 L-479408 37148 L-479045 37123 L-478808 37097 L-478580 37071 L-478267 37046 L-478189 37020 L-478108 36969 L-477930 36918 L-477915 36892 L-477649 36841 L-477569 36815 L-477339 36790 L-477113 36764 L-476797 36764 L-476622 36739 L-476261 36739 L-475869 36713 L-475800 36662 L-475736 36636 L-475596 36585 L-475544 36559 L-475442 36508 L-474940 36483 L-474743 36457 L-474496 36431 L-474311 36406 L-474011 36380 L-473935 36355 L-473769 36303 L-472885 36278 L-472856 36227 L-472733 36175 L-472154 36150 L-472077 36124 L-471363 36124 L-471051 36124 L-470838 36124 L-470821 36124 L-470435 36124 L-469910 36073 L-469464 36047 L-469134 36022 L-468981 35996 L-468655 35996 L-468477 35971 L-468395 35971 L-468189 35919 L-468014 35894 L-467085 35868 L-466195 35843 L-466156 35817 L-465928 35817 L-465549 35791 L-464762 35766 L-464527 35740 L-464451 35715 L-464094 35689 L-463522 35638 L-463255 35612 L-462869 35587 L-462765 35587 L-462595 35587 L-461977 35587 L-461765 35587 L-461458 35587 L-461405 35561 L-461277 35535 L-461224 35510 L-461105 35484 L-460768 35433 L-459809 35407 L-459678 35356 L-459476 35331 L-458845 35305 L-458533 35279 L-458120 35254 L-458092 35228 L-457947 35203 L-457527 35177 L-456194 35177 L-456147 35151 L-456019 35100 L-456002 35075 L-455424 35023 L-455218 34998 L-455189 34972 L-455148 34947 L-455090 34921 L-455053 34895 L-454975 34870 L-454832 34844 L-454377 34818 L-454259 34793 L-453974 34767 L-453601 34742 L-453505 34716 L-453178 34690 L-452824 34665 L-452654 34639 L-452606 34614 L-452497 34588 L-452408 34562 L-452380 34537 L-452304 34486 L-452001 34460 L-451967 34409 L-451895 34383 L-451527 34358 L-451192 34332 L-451111 34332 L-450891 34306 L-450720 34281 L-450692 34255 L-450195 34230 L-449646 34178 L-448765 34153 L-448667 34102 L-448590 34076 L-448315 34050 L-448068 33999 L-447994 33974 L-447933 33922 L-447814 33897 L-447771 33871 L-447661 33846 L-447584 33794 L-446884 33769 L-446638 33743 L-446599 33718 L-446442 33692 L-445843 33692 L-445616 33692 L-445524 33692 L-445049 33692 L-444451 33641 L-443932 33615 L-443911 33590 L-443765 33564 L-443445 33564 L-442903 33564 L-442671 33564 L-442501 33564 L-442015 33538 L-441787 33513 L-441702 33487 L-441356 33462 L-441030 33462 L-440507 33436 L-440179 33410 L-439579 33385 L-439381 33334 L-439329 33308 L-439289 33282 L-439008 33257 L-438323 33206 L-438013 33180 L-437988 33129 L-437797 33103 L-437574 33078 L-437488 33052 L-436824 33001 L-436800 32975 L-436578 32924 L-436248 32898 L-435896 32847 L-435692 32822 L-435459 32770 L-435201 32745 L-435012 32694 L-434964 32668 L-434737 32642 L-434703 32617 L-434546 32591 L-434332 32566 L-434159 32540 L-434067 32514 L-433790 32489 L-433546 32463 L-433231 32438 L-432805 32438 L-432768 32438 L-432284 32438 L-432051 32438 L-431839 32412 L-431613 32386 L-431063 32386 L-430816 32361 L-429982 32361 L-429926 32335 L-429904 32310 L-429746 32284 L-429285 32258 L-429244 32233 L-428904 32182 L-428771 32156 L-428548 32130 L-427976 32105 L-427504 32079 L-427309 32054 L-427117 32028 L-426927 32002 L-426825 31977 L-426457 31951 L-426411 31926 L-426329 31900 L-425036 31874 L-424988 31849 L-424719 31849 L-424574 31849 L-424023 31849 L-423906 31823 L-423825 31798 L-423465 31772 L-423242 31746 L-422961 31721 L-422631 31669 L-422123 31644 L-422011 31618 L-421932 31593 L-421768 31567 L-421473 31567 L-421005 31567 L-420808 31593 L-420758 31593 L-420108 31567 L-419986 31541 L-419532 31541 L-419496 31516 L-419028 31490 L-418917 31465 L-418901 31439 L-418685 31439 L-418504 31413 L-417972 31413 L-416943 31413 L-416743 31388 L-416285 31362 L-415337 31311 L-415238 31285 L-414884 31234 L-414823 31209 L-414809 31183 L-414773 31157 L-414404 31132 L-414284 31106 L-414042 31081 L-413878 31055 L-413691 31029 L-413570 31004 L-412500 30953 L-411641 30927 L-411429 30876 L-411332 30850 L-411158 30799 L-410824 30773 L-410753 30748 L-410695 30722 L-410520 30722 L-410131 30697 L-409895 30671 L-409784 30645 L-409667 30620 L-408686 30594 L-408661 30569 L-408067 30517 L-408034 30517 L-407885 30492 L-407601 30466 L-406689 30466 L-405743 30466 L-405590 30441 L-405488 30441 L-405356 30415 L-405213 30389 L-405187 30364 L-405072 30338 L-404854 30313 L-404173 30287 L-404043 30261 L-403740 30236 L-403500 30185 L-403167 30159 L-402529 30133 L-402186 30082 L-402124 30057 L-401969 30057 L-401047 30057 L-400577 30057 L-400533 30057 L-400520 30031 L-400479 30005 L-400457 29980 L-400430 29954 L-400286 29929 L-399864 29903 L-399528 29903 L-399337 29877 L-398909 29877 L-398721 29852 L-398332 29801 L-397798 29775 L-397425 29749 L-397404 29749 L-397154 29724 L-397035 29698 L-396959 29673 L-396824 29647 L-396784 29621 L-396704 29596 L-396310 29570 L-395814 29545 L-395702 29493 L-395529 29468 L-395221 29442 L-394773 29417 L-394451 29391 L-394308 29340 L-393881 29289 L-393728 29237 L-393672 29186 L-392859 29161 L-392839 29135 L-392467 29109 L-392410 29109 L-391281 29084 L-391213 29084 L-390655 29058 L-390460 29033 L-390324 29007 L-390090 28981 L-389743 28956 L-389709 28905 L-389674 28879 L-389605 28828 L-389256 28802 L-389084 28777 L-388599 28751 L-388583 28725 L-388258 28700 L-388100 28674 L-386960 28623 L-386935 28597 L-386743 28546 L-386550 28520 L-386299 28495 L-386282 28469 L-385262 28444 L-384964 28418 L-384889 28392 L-384753 28341 L-384577 28316 L-384000 28264 L-383785 28239 L-383721 28213 L-383590 28188 L-383553 28136 L-383030 28111 L-382892 38198 L-382878 38198 L-382855 38198 L-382835 38198 L-382607 28085 L-381832 28085 L-381790 28085 L-381422 28085 L-381344 28060 L-381292 28034 L-380619 28008 L-379876 27983 L-379452 27983 L-379004 27957 L-377942 27932 L-377631 27880 L-377220 27880 L-377148 27855 L-376624 27855 L-376530 27855 L-376512 27855 L-376067 27829 L-375882 27778 L-375101 27727 L-374429 27701 L-374017 27624 L-373785 27573 L-373644 27548 L-373563 27496 L-373543 27471 L-373467 27471 L-373338 27445 L-373021 27471 L-372797 27471 L-372472 27445 L-372410 27445 L-372040 27445 L-372007 27445 L-371798 27445 L-371131 27445 L-371053 27445 L-370895 27394 L-370785 27394 L-370458 27368 L-370303 27343 L-369962 27343 L-369905 27292 L-369567 27240 L-369364 27215 L-369311 27164 L-367934 27138 L-367804 27112 L-367371 27087 L-367051 27061 L-366223 27010 L-366099 26984 L-365369 26933 L-365213 26882 L-365172 26856 L-365118 26831 L-365095 26805 L-364981 26780 L-364685 26754 L-364395 26728 L-364340 26703 L-364220 26677 L-364190 26652 L-364090 26626 L-363646 26626 L-363494 26600 L-362659 26600 L-362117 26575 L-361782 26575 L-361767 26549 L-361691 26524 L-361575 26498 L-361380 26472 L-361116 26447 L-360281 26421 L-360185 26396 L-359664 26370 L-359622 26344 L-359523 26319 L-358694 26319 L-358559 26293 L-358221 26293 L-357666 26268 L-357287 26242 L-357124 26216 L-356814 26191 L-356001 26165 L-355695 26140 L-355427 26140 L-355105 26140 L-354784 26165 L-354509 26165 L-353680 26114 L-353585 26088 L-353493 26012 L-353388 25935 L-353001 25858 L-352521 25807 L-352505 25781 L-352386 25756 L-352018 25704 L-351923 25679 L-351090 25628 L-351012 25602 L-350713 25576 L-350622 25551 L-350215 25500 L-350105 25448 L-349405 25423 L-348932 25397 L-348872 25371 L-348653 25320 L-348380 25295 L-348267 25269 L-347239 25243 L-346853 25218 L-346833 25192 L-346500 25167 L-346255 25141 L-345822 25115 L-345712 25090 L-345594 25064 L-345143 25013 L-344552 24987 L-344216 24962 L-342323 24936 L-342209 24885 L-341997 24859 L-340679 24834 L-340573 19073 L-340507 13390 L-340470 8142 L-340409 8142 L-339909 13851 L-339234 19483 L-339212 24680 L-338942 24629 L-337974 24629 L-337284 24603 L-337122 24578 L-336582 24552 L-336492 24527 L-335472 24501 L-334525 24450 L-334159 24475 L-334056 24501 L-333468 24501 L-333409 24501 L-333308 24475 L-332868 24424 L-332760 24399 L-332319 24373 L-331319 24296 L-331063 24219 L-330960 24143 L-330829 24091 L-330463 24040 L-329882 23989 L-329851 23963 L-329536 23938 L-327553 23912 L-327437 23887 L-327369 23887 L-327011 23861 L-325392 23835 L-325214 23835 L-325070 23835 L-324248 23861 L-324195 23887 L-324140 23887 L-323706 23887 L-322726 23912 L-322652 23912 L-321567 23887 L-321354 23887 L-320638 23835 L-320250 23810 L-320031 23759 L-319711 23707 L-319217 23656 L-319090 23631 L-318861 23579 L-318629 23528 L-318569 23503 L-318280 23477 L-318008 23426 L-316978 23400 L-315313 23375 L-314894 23349 L-314756 23323 L-314600 23323 L-314295 23298 L-314067 23247 L-313909 23221 L-313749 23170 L-313580 23119 L-313533 23093 L-313479 23067 L-313458 23067 L-313071 23042 L-312822 23042 L-312551 23042 L-312390 23042 L-312301 23042 L-310642 23042 L-310477 23067 L-310097 23042 L-309637 23042 L-309027 22991 L-307934 22965 L-307503 22939 L-307472 22914 L-307409 22888 L-307392 22863 L-305688 22837 L-305646 22811 L-305180 22786 L-304993 22760 L-304961 22709 L-304366 22683 L-304316 22658 L-303993 22632 L-303942 22607 L-303732 22581 L-303714 22555 L-303448 22504 L-303395 22479 L-302926 22453 L-302415 22402 L-302337 22402 L-302043 22376 L-302026 22350 L-301988 22325 L-301917 22299 L-301759 22274 L-300813 22274 L-300757 22274 L-300236 22274 L-300043 22248 L-299943 22248 L-299717 22222 L-299207 22222 L-298819 22914 L-298749 22914 L-298401 22888 L-298044 22863 L-296915 22120 L-296864 22069 L-296637 22043 L-296604 22018 L-296479 21966 L-296380 21966 L-296115 21966 L-295375 21992 L-294797 21992 L-294503 21992 L-293797 21992 L-293618 21966 L-293595 21966 L-292959 21941 L-292648 21915 L-292251 21915 L-292222 21890 L-292201 21864 L-292047 21838 L-291362 21838 L-291345 21838 L-291006 21838 L-290733 21813 L-290696 21787 L-290640 21736 L-290618 21710 L-290546 21685 L-290214 21659 L-290108 21634 L-290079 21582 L-289881 21557 L-289728 21531 L-288860 21506 L-288297 21454 L-288281 21454 L-288180 21429 L-288078 21454 L-287932 21454 L-287853 21454 L-287815 21429 L-287760 21403 L-287687 21378 L-287542 21352 L-287060 21352 L-286655 21326 L-285789 21352 L-285769 21352 L-285511 21352 L-285435 21352 L-285406 21326 L-285395 21275 L-285378 21250 L-285085 21224 L-285046 21198 L-284974 21173 L-284900 21147 L-284695 21122 L-284535 21045 L-284234 20968 L-284157 20866 L-284139 20789 L-283923 20738 L-283692 20738 L-283582 20763 L-283212 20789 L-283054 20789 L-282822 20789 L-282654 20789 L-282509 20763 L-282377 20738 L-281101 20686 L-280698 20635 L-280637 20610 L-280520 20558 L-280095 20533 L-280079 20482 L-280018 20456 L-279744 20405 L-279632 20379 L-279349 20328 L-279072 20302 L-278647 20251 L-278625 20226 L-278547 20200 L-278421 20174 L-277834 20149 L-277443 20123 L-277108 20098 L-276518 20072 L-276416 20072 L-276246 20046 L-276110 20046 L-275282 20021 L-274097 19995 L-274061 19970 L-274005 19970 L-273785 19944 L-273579 19944 L-273425 19944 L-273168 19918 L-273092 19893 L-272549 19867 L-272512 19842 L-272264 19816 L-271876 19790 L-271051 19765 L-270692 19739 L-270382 19739 L-270124 19714 L-269900 19688 L-269494 19662 L-269378 19637 L-269194 19611 L-269141 19611 L-268953 19586 L-268782 19560 L-268753 19534 L-268473 19509 L-268162 19483 L-268024 19458 L-267714 19432 L-267520 19432 L-267505 19406 L-266786 19406 L-266652 19355 L-266354 19330 L-266264 19304 L-265663 19304 L-265625 19278 L-265547 19253 L-264926 19227 L-264775 19176 L-264734 19150 L-264423 19125 L-264232 19099 L-264039 19048 L-263983 18997 L-263674 18971 L-263622 18945 L-263568 18971 L-263542 18971 L-263417 18971 L-262606 18945 L-262530 18920 L-261989 18894 L-261720 18869 L-261061 18843 L-260153 18817 L-259912 18792 L-259380 18766 L-259163 18741 L-258055 18766 L-258005 18766 L-257229 18766 L-256682 18741 L-256571 18715 L-256418 18664 L-256362 18638 L-256197 18613 L-255820 18587 L-255372 18561 L-255318 18536 L-255163 18510 L-254483 18485 L-254263 18459 L-253745 18433 L-252896 18382 L-252880 18357 L-251089 18331 L-250535 18305 L-250418 18280 L-249412 18254 L-249375 18229 L-249143 18229 L-249050 18229 L-249010 18229 L-248678 18203 L-248326 18177 L-248061 18126 L-247774 18101 L-247463 18049 L-247209 17998 L-247116 17973 L-246626 17947 L-246418 17921 L-245853 17896 L-245738 17921 L-245387 17896 L-245336 17896 L-245295 17896 L-244692 17845 L-243958 17793 L-243377 17742 L-243142 17691 L-242601 17614 L-242449 17563 L-241947 17537 L-241738 17486 L-241714 17486 L-241655 17461 L-240693 17461 L-240515 17435 L-240073 17409 L-240049 17358 L-239894 17333 L-239812 17333 L-239662 17358 L-239015 17358 L-238966 17333 L-237846 17307 L-236861 17281 L-236800 17256 L-236079 17230 L-235215 17205 L-234836 17179 L-234617 17179 L-233857 17153 L-233805 17128 L-233496 17077 L-232645 17077 L-232452 17051 L-232275 17025 L-232050 17025 L-231924 17000 L-231732 17000 L-231499 16974 L-231330 17000 L-231043 16974 L-230764 16974 L-230681 16949 L-230510 16923 L-230494 16872 L-230340 16846 L-230300 16821 L-229525 16795 L-229449 16795 L-229216 16744 L-228789 16718 L-228444 16693 L-227861 16667 L-227592 16667 L-227333 16667 L-227204 16616 L-227187 16590 L-227074 16565 L-227050 16539 L-226816 16513 L-226780 16488 L-225464 16488 L-225408 16462 L-224729 16411 L-224156 16411 L-224031 16411 L-223878 16411 L-223801 16411 L-223489 16360 L-223216 16334 L-223127 16283 L-223025 16283 L-222097 16257 L-222021 16257 L-221657 16257 L-221632 16232 L-221596 16206 L-220820 16155 L-220729 16129 L-220589 16104 L-220187 16078 L-219925 16078 L-219682 16104 L-219468 16078 L-219387 16078 L-219311 16078 L-219234 16078 L-219047 16104 L-218981 16104 L-218731 16104 L-218676 16078 L-218539 16052 L-218459 16001 L-218346 15976 L-218123 15950 L-217958 15924 L-217917 15899 L-217748 15873 L-217377 15848 L-217362 15822 L-217246 15796 L-216525 15771 L-216489 15745 L-216356 15745 L-216008 15720 L-215597 15720 L-215561 15720 L-215483 15694 L-215444 15668 L-215080 15643 L-214876 15617 L-214861 15592 L-214515 15566 L-214167 15566 L-213841 15566 L-213739 15540 L-213586 15540 L-213392 15515 L-213160 15515 L-213068 15515 L-212912 15515 L-212835 15515 L-212794 15489 L-212681 15464 L-212657 15438 L-212407 15438 L-212268 15387 L-211690 15310 L-210862 15259 L-210374 15208 L-210253 15182 L-210214 15156 L-210202 15131 L-210049 15080 L-209948 15028 L-209715 15003 L-209325 14952 L-209021 14926 L-209005 14900 L-208834 14875 L-208596 14824 L-208000 14824 L-207396 14798 L-207356 14798 L-207316 14798 L-207162 14772 L-207109 14747 L-207047 14721 L-206979 14696 L-206924 14644 L-206899 14619 L-206852 14593 L-206758 14542 L-206620 14516 L-206467 14491 L-206335 14465 L-206294 14465 L-206258 14440 L-206196 14414 L-205923 14363 L-205609 14337 L-205568 14286 L-205483 14260 L-205305 14235 L-205068 14209 L-204710 14184 L-204681 14158 L-204111 14132 L-203988 14107 L-203752 14081 L-203730 14081 L-203448 14056 L-203163 14056 L-202907 14056 L-202336 14030 L-202039 14004 L-201963 13979 L-201264 13953 L-201186 13928 L-201151 13902 L-201125 13876 L-201073 13825 L-200879 13800 L-200739 13748 L-200703 13723 L-200663 13697 L-200068 13672 L-199835 13646 L-199552 13825 L-199497 13979 L-199423 14158 L-199345 14312 L-199109 14260 L-198865 14235 L-198730 14209 L-198623 14184 L-198544 14158 L-198156 14107 L-198029 14081 L-197877 14056 L-197839 14030 L-197693 14004 L-197472 13979 L-197298 13953 L-197229 13928 L-196407 13876 L-196391 13876 L-196097 13851 L-195309 13825 L-194999 13825 L-194853 13800 L-194625 13774 L-194424 13723 L-193487 13697 L-193450 13672 L-193428 13646 L-193387 13595 L-193118 13569 L-192522 13544 L-192458 13518 L-192422 13492 L-192406 13467 L-191710 13467 L-191509 13467 L-191477 13467 L-191144 13467 L-191036 13441 L-190411 13390 L-189907 13364 L-189870 13313 L-189428 13313 L-189332 13288 L-189173 13288 L-188859 13288 L-188847 13288 L-188407 13313 L-187925 13339 L-187796 13339 L-187476 13339 L-187408 13313 L-187103 13313 L-186928 13288 L-186734 13262 L-186491 13211 L-186294 13160 L-186268 13108 L-185690 13083 L-185620 13057 L-185210 13032 L-185156 13006 L-185110 12980 L-184746 12955 L-184599 12929 L-184394 12903 L-184298 12903 L-184143 12878 L-184081 12852 L-183934 12801 L-183833 12775 L-183276 12775 L-183254 12827 L-183082 12852 L-182540 12878 L-182479 12878 L-182425 12827 L-182397 12775 L-182325 12750 L-182309 12699 L-182245 12673 L-182209 12622 L-182054 12596 L-181729 12571 L-181162 12545 L-181148 12519 L-181086 12468 L-180984 12417 L-180938 12417 L-180696 12391 L-180273 12391 L-180119 12391 L-178377 12340 L-177835 12315 L-176892 12289 L-176483 12263 L-175942 12212 L-175745 12187 L-175577 12161 L-175281 12135 L-175166 12110 L-175151 12110 L-174996 12084 L-174856 12059 L-174780 12007 L-174648 12007 L-174300 12007 L-173929 12033 L-173331 12033 L-173155 12033 L-172999 12007 L-172730 11982 L-172579 11982 L-172288 12059 L-172264 12110 L-172181 12161 L-171954 12212 L-171254 12187 L-171127 12161 L-170696 12135 L-170602 12110 L-169397 12110 L-169348 12084 L-169055 12084 L-168651 12059 L-168375 12007 L-168356 11982 L-168238 11956 L-168162 11931 L-167980 11905 L-167500 11879 L-167049 11828 L-166639 11803 L-166609 11777 L-166190 11751 L-166076 11751 L-165958 11751 L-165943 11751 L-165748 11726 L-165727 11675 L-165495 11649 L-165051 11623 L-164732 11572 L-164267 11572 L-164102 11547 L-163947 11521 L-163791 11521 L-163338 11521 L-163019 11521 L-162964 11547 L-162593 11547 L-162555 11572 L-162228 11572 L-162112 11547 L-162013 11521 L-161687 11470 L-161300 11444 L-161039 11419 L-160681 11367 L-160424 11342 L-158254 11316 L-158205 11291 L-158182 11265 L-157771 11265 L-157709 11265 L-157639 11291 L-157408 11291 L-157097 11265 L-156794 11214 L-156750 11188 L-156442 11163 L-156309 11137 L-156092 11111 L-155380 11086 L-155225 11086 L-155087 11060 L-154938 11060 L-154917 11060 L-154723 11035 L-154697 11009 L-154606 10983 L-154584 10958 L-154568 10932 L-154468 10907 L-153539 10881 L-153081 10881 L-151989 10830 L-151567 10830 L-151163 10804 L-151124 10779 L-150871 10753 L-150096 10702 L-150080 10676 L-150055 10651 L-149862 10625 L-149126 10599 L-148857 10574 L-148816 10548 L-148417 10497 L-148392 10471 L-147603 10446 L-146923 10420 L-145552 10395 L-145282 10369 L-145233 10343 L-144696 10292 L-144663 10267 L-144561 10215 L-144238 10190 L-144158 10164 L-143889 10164 L-142977 10139 L-142838 10139 L-142589 10087 L-142044 10087 L-141621 10062 L-141428 10036 L-141413 10036 L-141275 9985 L-141181 9959 L-141054 9934 L-140794 9908 L-140769 9857 L-140678 9831 L-140368 9806 L-140307 9780 L-140190 9780 L-139841 9780 L-139030 9780 L-138799 9729 L-137970 9729 L-137738 9678 L-137521 9652 L-137003 9652 L-136364 9626 L-135948 9601 L-135626 9575 L-135145 9550 L-134720 9550 L-134658 9524 L-134310 9524 L-134269 9498 L-134255 9473 L-134156 9422 L-134111 9422 L-133625 9396 L-132824 9396 L-132489 9396 L-131408 9370 L-130928 9345 L-130905 9319 L-130765 9294 L-130210 9268 L-129513 9242 L-129204 9217 L-128982 9191 L-128877 9166 L-128775 9114 L-128104 9089 L-128010 9063 L-127988 9063 L-127910 9038 L-127732 9038 L-127560 9038 L-127379 9012 L-127366 8986 L-127290 8961 L-127125 8935 L-126611 8910 L-126595 8884 L-126454 8884 L-126092 8858 L-126068 8858 L-125937 8833 L-125912 8807 L-125550 8782 L-125025 8730 L-124931 8705 L-124715 8654 L-124622 8628 L-124597 8602 L-124133 8577 L-124056 8577 L-123654 8551 L-123203 8551 L-121952 8526 L-121913 8500 L-121481 8474 L-121449 8449 L-120730 8423 L-120553 8398 L-120418 8372 L-120111 8346 L-120056 8321 L-120031 8270 L-120015 8218 L-119840 8193 L-119651 8167 L-119143 8167 L-118769 7962 L-118431 7732 L-118392 7527 L-117673 7348 L-117580 7322 L-117541 7297 L-117000 7297 L-116976 7271 L-116574 7246 L-116148 7220 L-115877 7220 L-115698 7194 L-115452 7143 L-115428 7118 L-115372 7066 L-114755 7041 L-114252 7015 L-113865 7015 L-113246 7041 L-113030 7041 L-112875 7066 L-111583 7015 L-111483 6990 L-111041 6938 L-110710 6913 L-110409 6862 L-110167 6836 L-109432 6785 L-108853 6759 L-108023 6733 L-107923 6708 L-107365 6682 L-107227 6657 L-105586 6631 L-105525 6631 L-105431 6631 L-104464 6631 L-104287 6605 L-103999 6605 L-103782 6605 L-103703 6580 L-103432 6580 L-103317 6554 L-103164 6529 L-102853 6503 L-102775 6477 L-102684 6477 L-102607 6452 L-102491 6452 L-102311 6426 L-102219 6401 L-102181 6375 L-101678 6375 L-101460 6349 L-101330 6349 L-101175 6324 L-101120 6298 L-100996 6298 L-100611 6273 L-100102 6247 L-100030 6221 L-99550 6196 L-99473 6170 L-99373 6170 L-99139 6145 L-98674 6145 L-98444 6145 L-98428 6145 L-98196 6145 L-98041 6145 L-97980 6145 L-97787 6119 L-97516 6068 L-96764 6042 L-95811 6042 L-95775 6017 L-95550 6017 L-95110 6017 L-94830 5965 L-94481 5940 L-93412 5914 L-92484 5914 L-92354 5914 L-92307 5914 L-92238 5889 L-92083 5889 L-92005 5837 L-91832 5786 L-91397 5735 L-91193 5709 L-91133 5658 L-90550 5633 L-90396 5581 L-90281 5556 L-90240 5530 L-90070 5505 L-89934 5479 L-89723 5428 L-89645 5402 L-89622 5377 L-89413 5325 L-89003 5300 L-88979 5274 L-88755 5249 L-88610 5223 L-88575 5197 L-88562 5172 L-88540 5146 L-88306 5121 L-88121 5095 L-87903 5069 L-87878 5044 L-87189 5018 L-87085 4993 L-87050 4967 L-87029 4941 L-86835 4916 L-86782 4890 L-86665 4839 L-86583 4839 L-86472 4813 L-86158 4788 L-85699 4762 L-85444 4737 L-85209 4685 L-85079 4660 L-84727 4634 L-84668 4609 L-84515 4583 L-83943 4532 L-83856 4506 L-83703 4455 L-83407 4404 L-83037 4353 L-82734 4301 L-82658 4276 L-82253 4250 L-82085 4250 L-81941 4250 L-81400 4250 L-81340 4250 L-81324 4199 L-81158 4173 L-80952 4148 L-80877 4148 L-80784 4122 L-80375 4097 L-80359 4071 L-80335 4071 L-80143 4045 L-80066 4276 L-79895 4506 L-79833 4711 L-79817 4941 L-79303 4916 L-79082 4890 L-78463 4839 L-78209 4813 L-78015 4788 L-77976 4762 L-77902 4762 L-77837 4762 L-77187 4762 L-77148 4788 L-76974 4788 L-76908 4788 L-76234 4788 L-75845 4737 L-75583 4711 L-75345 4685 L-75268 4634 L-75252 4583 L-75050 4557 L-74679 4506 L-74454 4481 L-73818 4455 L-73798 4455 L-73411 4429 L-73317 4429 L-73259 4404 L-72983 4378 L-72674 4378 L-72597 4353 L-71745 4378 L-71403 4506 L-70966 4660 L-70532 4788 L-70037 4916 L-69887 4890 L-69619 4916 L-68381 4941 L-68324 4993 L-66560 5018 L-66370 4993 L-65360 4967 L-65209 4941 L-64833 4993 L-64513 5044 L-63907 5095 L-63838 5146 L-63660 5121 L-62832 5095 L-62693 5069 L-62306 5044 L-62122 5018 L-62078 4993 L-61958 4967 L-61749 4941 L-61301 4890 L-60953 4865 L-60821 4839 L-60412 4813 L-60061 4813 L-59776 4788 L-59583 4762 L-59428 4762 L-59264 4737 L-59196 4711 L-59096 4711 L-58863 4685 L-58746 4685 L-58693 4660 L-58151 4660 L-57687 4634 L-56505 4634 L-56371 4634 L-56347 4634 L-56294 4634 L-55626 4634 L-54592 4583 L-54398 4557 L-54218 4532 L-54067 4532 L-54026 4506 L-54011 4506 L-53950 4481 L-53624 4455 L-52464 4429 L-52270 4404 L-52093 4378 L-50979 4353 L-50119 4327 L-50013 4327 L-49539 4301 L-49347 4301 L-47025 4276 L-46948 4250 L-46826 4199 L-46792 4173 L-46755 4122 L-46660 4045 L-46444 3994 L-45863 3943 L-45477 3917 L-44704 3892 L-44626 3866 L-43929 3866 L-43387 3866 L-43346 3841 L-43216 3841 L-42752 3815 L-42714 3789 L-42579 3764 L-42211 3738 L-42181 3713 L-42031 3713 L-41630 3687 L-39806 3713 L-39000 3687 L-38281 3687 L-38264 3687 L-37951 3636 L-37389 3610 L-36887 3584 L-36369 3559 L-36347 3533 L-34603 3508 L-34434 3482 L-34238 3456 L-33345 3431 L-32826 3380 L-32616 3354 L-32358 3328 L-31648 3303 L-30698 3277 L-30040 3252 L-30000 3200 L-29714 3175 L-29631 3149 L-29536 3149 L-29404 3124 L-29327 3124 L-28592 3124 L-28255 3098 L-28205 3124 L-27950 3124 L-27663 3098 L-27238 3098 L-26657 3072 L-26398 3072 L-26247 3047 L-26000 3047 L-25961 3047 L-25164 3021 L-25126 2996 L-24949 2996 L-24540 2944 L-24311 2944 L-24235 2944 L-24104 2944 L-23988 2919 L-23639 2893 L-23576 2868 L-23424 2842 L-22683 2816 L-22571 2791 L-22401 2765 L-22362 2740 L-22068 2740 L-21666 2740 L-21490 2740 L-21395 2740 L-21086 2714 L-20285 2688 L-19826 2637 L-19306 2612 L-18817 2586 L-18122 2560 L-17076 2535 L-16807 2535 L-16752 2509 L-16592 2509 L-16341 2509 L-16095 2484 L-16016 2458 L-15801 2407 L-15489 2381 L-15026 2330 L-15011 2304 L-14715 2304 L-14702 2279 L-13711 2253 L-13038 2228 L-12703 2176 L-12087 2176 L-11950 2151 L-11311 2125 L-11181 2100 L-10230 2048 L-10131 1997 L-9571 1972 L-9163 1972 L-8734 1972 L-8643 1946 L-7808 1946 L-7445 1946 L-7405 1972 L-7273 1997 L-7096 1997 L-6880 1997 L-6826 1972 L-6669 1920 L-6416 1895 L-5316 1869 L-5239 1844 L-5019 1818 L-4888 1767 L-4852 1741 L-4659 1716 L-4559 1690 L-4075 1664 L-3791 1639 L-3631 1613 L-3536 1562 L-3265 1536 L-2995 1511 L-2979 1408 L-2840 1332 L-2702 1255 L-2375 1152 L-2066 1101 L-2025 1076 L-1950 1024 L-1834 999 L-984 948 L-657 922 L-326 896 L-193 896 L22 896 L38 896 L719 896 L812 845 L835 820 L851 768 L890 743 L1301 692 L1571 666 L1611 640 L1979 640 L2189 615 L3272 615 L3288 589 L3317 564 L3337 564 L3714 512 L3969 487 L4217 435 L4356 384 L4488 359 L4820 333 L4913 307 L4974 282 L5532 256 L5593 231 L5749 205 L5943 179 L6136 154 L6151 128 L6190 103 L6229 77 L6500 51" />
</svg>
