<svg xmlns="http://www.w3.org/2000/svg" version="1.1" viewBox="0 0 6500 1000">
	<path fill="none" stroke="gold" stroke-width="125" stroke-linecap="round" stroke-linejoin="round" d="M0 920  L-18392 920 L-17980 897 L-17755 908 L-17698 897 L-17660 874 L-17476 851 L-16986 828 L-16692 816 L-16381 805 L-16147 782 L-16093 759 L-16034 736 L-15881 724 L-15840 713 L-15708 701 L-15415 713 L-14874 701 L-14264 678 L-14216 701 L-13576 678 L-13543 690 L-13017 667 L-12885 655 L-12494 609 L-12166 586 L-12049 563 L-11838 586 L-11121 575 L-10551 563 L-10444 552 L-10269 529 L-10048 506 L-9646 494 L-9621 471 L-8693 448 L-8605 425 L-8523 402 L-8453 379 L-8156 368 L-8004 356 L-6113 425 L-6013 391 L-5750 368 L-5457 391 L-5315 368 L-5067 356 L-5031 345 L-4872 322 L-4409 310 L-4156 287 L-3944 276 L-3692 264 L-3344 241 L-2416 218 L-2323 195 L-1912 184 L-741 172 L447 149 L539 126 L567 103 L833 69 L1132 46 L1261 34 L1298 11 L2113 92 L2497 80 L3557 57 L3618 46 L3884 977 L4355 966 L4547 943 L4811 931 L5148 920 L5283 931 L5739 897 L6482 885 L6500 862" />
</svg>
