<svg xmlns="http://www.w3.org/2000/svg" version="1.1" viewBox="0 0 6500 1000">
	<path fill="none" stroke="gold" stroke-width="125" stroke-linecap="round" stroke-linejoin="round" d="M0 181457  L-1068104 181457 L-1067920 181396 L-1067430 181274 L-1067136 181213 L-1066825 181091 L-1066591 181029 L-1066537 180907 L-1066478 180785 L-1066325 180724 L-1066284 180602 L-1066152 180541 L-1065859 180480 L-1065318 180480 L-1064708 180419 L-1064660 180419 L-1064020 180357 L-1063987 180357 L-1063461 180357 L-1063329 180296 L-1062938 180174 L-1062610 180052 L-1062493 179930 L-1062282 179808 L-1061565 179808 L-1060995 179747 L-1060888 179747 L-1060713 179686 L-1060492 179563 L-1060090 179502 L-1060065 179380 L-1059137 179258 L-1059049 179136 L-1058967 179014 L-1058897 178891 L-1058600 178830 L-1058448 178708 L-1056557 178769 L-1056457 178769 L-1056194 178769 L-1055901 178830 L-1055759 178708 L-1055511 178708 L-1055475 178647 L-1055316 178586 L-1054853 178464 L-1054600 178403 L-1054388 178281 L-1054136 178219 L-1053787 178158 L-1052860 178036 L-1052766 177914 L-1052356 177853 L-1051185 177731 L-1049996 177670 L-1049904 177547 L-1049876 177425 L-1049610 177303 L-1049311 177181 L-1049182 177059 L-1049145 176937 L-1048330 176937 L-1047946 176998 L-1046886 177059 L-1046825 177059 L-1046559 178281 L-1046088 179441 L-1045896 180602 L-1045632 181762 L-1045295 181701 L-1045160 181640 L-1044704 181579 L-1043961 181518 L-1043943 181457 L-1043778 181335 L-1043710 181335 L-1043194 181274 L-1042165 181274 L-1041969 181213 L-1041480 181152 L-1041118 181091 L-1040710 181091 L-1040324 181152 L-1038621 181152 L-1038523 181152 L-1038451 181152 L-1038389 181152 L-1038205 181091 L-1037869 181091 L-1037228 181029 L-1037151 180968 L-1037090 180968 L-1036903 180907 L-1036824 180907 L-1036647 180846 L-1036627 180785 L-1036397 180785 L-1036010 180724 L-1035121 180724 L-1035082 180663 L-1034993 180602 L-1034966 180480 L-1033958 180419 L-1033808 180296 L-1033784 180235 L-1033651 180174 L-1033611 180113 L-1032353 180052 L-1032295 180052 L-1031755 179991 L-1031703 179991 L-1031656 179991 L-1031261 179930 L-1031122 179869 L-1030922 179808 L-1030775 179808 L-1030610 179808 L-1030334 179869 L-1029975 179869 L-1029422 179808 L-1028778 179747 L-1028519 179624 L-1028365 179563 L-1027964 179502 L-1027924 179441 L-1027803 179380 L-1027742 179441 L-1027728 179441 L-1027634 179441 L-1027341 179380 L-1027189 179136 L-1026859 179014 L-1026781 178891 L-1026705 178830 L-1026479 178647 L-1026412 178525 L-1026184 178403 L-1026132 178281 L-1025967 178219 L-1024961 178158 L-1024778 178097 L-1024227 178036 L-1023834 177914 L-1023437 177853 L-1022587 177731 L-1022508 177670 L-1021929 177609 L-1021488 177609 L-1021247 177547 L-1021090 177547 L-1020689 177425 L-1020668 177425 L-1020224 177364 L-1019818 177303 L-1019682 177181 L-1019507 177059 L-1019371 176937 L-1019120 176814 L-1018121 176753 L-1018038 176692 L-1017903 176631 L-1017864 176570 L-1016974 176509 L-1016759 176448 L-1016316 176387 L-1016198 176326 L-1016141 176265 L-1015465 176265 L-1015365 176204 L-1015336 176204 L-1013994 176142 L-1013588 176081 L-1013549 176020 L-1012621 175959 L-1012522 175898 L-1012389 175837 L-1011985 175776 L-1011959 175715 L-1011866 175654 L-1011650 175593 L-1011239 175470 L-1010085 175348 L-1009793 175226 L-1009765 175104 L-1009157 175043 L-1008907 174921 L-1008887 174860 L-1007957 174799 L-1007906 174676 L-1007784 174615 L-1007766 174493 L-1007610 174432 L-1007435 174310 L-1007298 174249 L-1007242 174188 L-1007134 174127 L-1007049 174065 L-1006816 174004 L-1006741 173943 L-1006432 173882 L-1006314 173821 L-1006145 173760 L-1006053 173699 L-1005951 173699 L-1005927 173638 L-1005850 173638 L-1005752 173516 L-1005386 173455 L-1005281 173394 L-1004777 173332 L-1004326 173271 L-1004287 173210 L-1004264 173149 L-1004223 173088 L-1004094 173027 L-1003993 172966 L-1003552 172905 L-1003269 172844 L-1002677 172783 L-1002547 172722 L-1002272 172599 L-1002120 172538 L-1001966 172477 L-1001881 172355 L-1001803 172294 L-1001617 172233 L-1001567 172233 L-1001539 172172 L-1001460 172111 L-1001437 172050 L-1001153 171927 L-1000550 171805 L-999554 171744 L-999256 171683 L-998522 171622 L-998278 171561 L-998188 171500 L-997611 171439 L-996912 171378 L-996160 171317 L-995841 171255 L-995459 171133 L-995381 171072 L-994747 171011 L-994561 170950 L-994474 170950 L-994344 170950 L-994031 170889 L-993982 170828 L-993840 170767 L-993818 170706 L-992851 170645 L-992305 170583 L-991827 170583 L-991766 170583 L-991442 170583 L-991421 170522 L-991358 170522 L-991148 170461 L-991071 170400 L-991017 170339 L-990994 170278 L-990955 170217 L-990939 170156 L-990182 170095 L-990166 170034 L-989366 169973 L-989214 169912 L-988308 169850 L-987802 169789 L-987573 169667 L-987532 169667 L-987416 169606 L-987240 169545 L-986486 169606 L-986351 169545 L-986187 169484 L-985869 169423 L-985692 169301 L-984670 169178 L-984647 169056 L-984396 168995 L-984183 168873 L-983549 168812 L-983311 168690 L-983278 168568 L-983100 168445 L-983020 168323 L-982930 168262 L-982866 168140 L-982426 168018 L-982402 167957 L-981861 167896 L-981606 167835 L-981111 167773 L-980233 167712 L-980197 167651 L-980144 167590 L-980103 167529 L-979986 167468 L-979709 167407 L-979502 167285 L-979305 167163 L-979282 167040 L-979231 166918 L-979192 166857 L-979114 166796 L-978517 166674 L-978457 166613 L-978353 166552 L-978199 166491 L-977567 166430 L-976886 166368 L-976583 166246 L-976237 166185 L-976039 166124 L-975991 166002 L-975670 165941 L-975043 165880 L-974896 165819 L-974860 165758 L-974802 165697 L-974725 165574 L-974484 165574 L-974396 165513 L-974302 165452 L-974008 165391 L-973874 165330 L-973814 165269 L-973777 165147 L-973504 165147 L-972498 165086 L-972323 165025 L-972272 165025 L-971980 164963 L-971787 164841 L-971454 164780 L-970947 164719 L-970385 164597 L-970371 164475 L-970354 164414 L-970254 164291 L-970139 164169 L-970100 164047 L-970062 163986 L-969996 163986 L-969968 163925 L-969829 163986 L-969537 163986 L-969487 163986 L-969381 163986 L-969117 163925 L-968652 163864 L-968507 163864 L-968453 163742 L-968396 163681 L-968205 163620 L-967839 163558 L-967625 163558 L-967430 163558 L-967372 163558 L-967313 163436 L-967160 163375 L-966890 163314 L-966460 163620 L-966445 163620 L-966368 163558 L-966303 163497 L-966174 163070 L-966150 163009 L-965866 162948 L-965819 162886 L-965764 162825 L-965302 162764 L-965263 162764 L-965222 162703 L-965032 162642 L-964551 162581 L-964064 162520 L-964048 162459 L-964010 162398 L-963753 162337 L-963676 162215 L-963446 162153 L-963430 162031 L-963136 161909 L-962693 161848 L-962247 161787 L-961742 161726 L-961588 161665 L-961302 161604 L-961261 161481 L-960930 161420 L-960708 161359 L-960191 161237 L-960116 161176 L-959868 161054 L-959673 160932 L-959614 160871 L-958837 160810 L-958763 160810 L-958532 160748 L-958516 160748 L-958454 160687 L-958258 160626 L-957794 160626 L-957771 160565 L-957641 160565 L-956340 160565 L-956324 160565 L-956247 160504 L-956153 160504 L-955936 160504 L-955784 160443 L-955605 160504 L-955551 160565 L-955264 160626 L-955225 160626 L-954855 160626 L-954415 160626 L-954232 160626 L-953911 160565 L-953616 160565 L-953170 160443 L-953098 160382 L-952636 160260 L-952198 160199 L-952016 160138 L-950562 160015 L-950430 159954 L-949973 159832 L-949746 159771 L-949360 159649 L-948843 159527 L-947889 159405 L-947095 159282 L-946421 159221 L-945995 159099 L-945684 159038 L-945454 158855 L-944771 158671 L-944758 158488 L-944548 158244 L-944526 158183 L-944351 158061 L-943401 158000 L-943133 157877 L-942318 157816 L-942007 157694 L-941970 157633 L-941913 157511 L-941296 157450 L-940658 157328 L-939032 157266 L-938358 157205 L-937716 157205 L-937638 157205 L-937582 157205 L-937546 157205 L-937518 157144 L-937406 157022 L-937388 156961 L-937365 156900 L-937212 156839 L-937158 156717 L-937081 156656 L-936961 156594 L-936864 156533 L-936746 156472 L-936477 156350 L-936207 156289 L-936190 156167 L-935990 156106 L-935843 155984 L-935616 155923 L-935482 155861 L-935173 155800 L-935113 155739 L-934760 155617 L-934411 155556 L-934311 155495 L-934246 155373 L-934186 155312 L-933802 155189 L-933421 155128 L-933317 155067 L-933057 155006 L-932785 154884 L-932626 154823 L-932594 154762 L-932532 154701 L-932390 154640 L-932207 154579 L-932162 154518 L-931874 154518 L-931858 154456 L-931625 154456 L-931564 154395 L-931526 154395 L-930946 154334 L-930812 154273 L-930789 154029 L-930770 153601 L-930753 153113 L-930737 152624 L-930713 152135 L-930696 151769 L-930675 151341 L-930658 150913 L-930635 150669 L-930618 150425 L-930597 150241 L-930580 150119 L-930531 149936 L-930459 149753 L-930424 149447 L-930400 149203 L-930365 148959 L-930323 148714 L-930286 148592 L-930271 148348 L-930246 148164 L-930209 148042 L-930192 147859 L-930169 147737 L-930152 147615 L-930133 147492 L-930117 147370 L-930088 147187 L-930062 147004 L-930016 146943 L-930000 146821 L-929958 146759 L-929910 146637 L-929839 146515 L-929824 146393 L-929808 146271 L-929746 146210 L-929707 146149 L-929667 146087 L-929501 146026 L-929436 145965 L-929420 145904 L-929376 145782 L-929318 145721 L-929105 145660 L-929072 145599 L-929029 145538 L-928951 145477 L-928414 145416 L-928336 145354 L-928231 145232 L-928143 145171 L-927966 145110 L-927616 145049 L-927460 144988 L-927022 144927 L-926865 144866 L-926736 144805 L-926032 144682 L-925831 144621 L-924870 144499 L-924388 144438 L-924289 144438 L-924196 144377 L-923951 144316 L-923878 144255 L-923435 144133 L-923339 144072 L-923324 144010 L-923308 143949 L-923283 143888 L-922817 143827 L-922600 143766 L-922461 143705 L-922167 143644 L-922078 143583 L-922037 143522 L-922007 143461 L-921835 143400 L-921776 143339 L-921700 143277 L-921619 143216 L-921549 143216 L-921240 143155 L-921155 143094 L-920941 143033 L-920906 142972 L-920223 142911 L-920124 142850 L-919919 142789 L-919872 142728 L-919594 142667 L-919532 142605 L-919515 142483 L-919437 142422 L-919128 142300 L-919104 142239 L-919050 142117 L-919027 142056 L-918905 141995 L-918769 141872 L-918525 141811 L-918399 141811 L-917753 141750 L-917737 141750 L-917712 141750 L-917532 141628 L-917455 141567 L-917364 141506 L-916936 141445 L-916520 141384 L-916127 141262 L-916048 141200 L-916029 141139 L-915666 141078 L-915430 141017 L-915201 140956 L-914888 140895 L-914810 140834 L-914730 140712 L-914552 140590 L-914536 140529 L-914271 140406 L-914190 140345 L-913960 140284 L-913734 140223 L-913419 140223 L-913243 140162 L-912882 140162 L-912491 140101 L-912421 139979 L-912357 139918 L-912217 139795 L-912165 139734 L-912064 139612 L-911562 139551 L-911365 139490 L-911118 139429 L-910932 139368 L-910633 139307 L-910557 139246 L-910391 139124 L-909506 139062 L-909478 138940 L-909355 138818 L-908776 138757 L-908698 138696 L-907985 138696 L-907673 138696 L-907460 138696 L-907443 138696 L-907056 138696 L-906531 138574 L-906085 138513 L-905756 138452 L-905603 138390 L-905277 138390 L-905098 138329 L-905017 138329 L-904811 138207 L-904635 138146 L-903706 138085 L-902817 138024 L-902778 137963 L-902550 137963 L-902171 137902 L-901383 137841 L-901149 137780 L-901073 137718 L-900715 137657 L-900144 137535 L-899877 137474 L-899490 137413 L-899387 137413 L-899217 137413 L-898598 137413 L-898387 137413 L-898079 137413 L-898026 137352 L-897898 137291 L-897845 137230 L-897726 137169 L-897390 137047 L-896431 136985 L-896299 136863 L-896098 136802 L-895466 136741 L-895155 136680 L-894741 136619 L-894714 136558 L-894568 136497 L-894148 136436 L-892816 136436 L-892769 136375 L-892640 136252 L-892623 136191 L-892045 136069 L-891840 136008 L-891810 135947 L-891769 135886 L-891712 135825 L-891674 135764 L-891596 135703 L-891453 135642 L-890999 135580 L-890881 135519 L-890595 135458 L-890223 135397 L-890126 135336 L-889800 135275 L-889445 135214 L-889275 135153 L-889228 135092 L-889119 135031 L-889030 134970 L-889002 134908 L-888926 134786 L-888622 134725 L-888588 134603 L-888517 134542 L-888149 134481 L-887813 134420 L-887732 134420 L-887513 134359 L-887341 134298 L-887314 134237 L-886816 134175 L-886267 134053 L-885387 133992 L-885288 133870 L-885211 133809 L-884937 133748 L-884690 133626 L-884616 133565 L-884554 133442 L-884435 133381 L-884393 133320 L-884283 133259 L-884206 133137 L-883505 133076 L-883260 133015 L-883220 132954 L-883064 132893 L-882464 132893 L-882238 132893 L-882146 132893 L-881670 132893 L-881073 132770 L-880553 132709 L-880532 132648 L-880387 132587 L-880067 132587 L-879525 132587 L-879293 132587 L-879123 132587 L-878636 132526 L-878409 132465 L-878324 132404 L-877977 132343 L-877651 132343 L-877128 132282 L-876801 132221 L-876201 132160 L-876003 132037 L-875951 131976 L-875910 131915 L-875629 131854 L-874945 131732 L-874635 131671 L-874610 131549 L-874418 131488 L-874196 131427 L-874110 131365 L-873446 131243 L-873422 131182 L-873200 131060 L-872870 130999 L-872518 130877 L-872313 130816 L-872081 130693 L-871823 130632 L-871633 130510 L-871586 130449 L-871359 130388 L-871324 130327 L-871168 130266 L-870953 130205 L-870780 130144 L-870689 130083 L-870412 130021 L-870168 129960 L-869853 129899 L-869426 129899 L-869389 129899 L-868906 129899 L-868672 129899 L-868460 129838 L-868234 129777 L-867685 129777 L-867437 129716 L-866603 129716 L-866547 129655 L-866526 129594 L-866368 129533 L-865906 129472 L-865866 129411 L-865526 129288 L-865392 129227 L-865170 129166 L-864598 129105 L-864126 129044 L-863931 128983 L-863738 128922 L-863549 128861 L-863447 128800 L-863079 128739 L-863032 128678 L-862951 128616 L-861657 128555 L-861609 128494 L-861341 128494 L-861196 128494 L-860645 128494 L-860528 128433 L-860446 128372 L-860087 128311 L-859863 128250 L-859582 128189 L-859253 128067 L-858745 128006 L-858632 127945 L-858554 127883 L-858389 127822 L-858095 127822 L-857626 127822 L-857430 127883 L-857379 127883 L-856729 127822 L-856608 127761 L-856153 127761 L-856118 127700 L-855649 127639 L-855539 127578 L-855522 127517 L-855306 127517 L-855125 127456 L-854594 127456 L-853564 127456 L-853365 127395 L-852906 127334 L-851958 127211 L-851859 127150 L-851505 127028 L-851445 126967 L-851430 126906 L-851395 126845 L-851026 126784 L-850906 126723 L-850664 126662 L-850500 126601 L-850312 126540 L-850192 126478 L-849121 126356 L-848263 126295 L-848051 126173 L-847953 126112 L-847779 125990 L-847446 125929 L-847374 125868 L-847317 125806 L-847141 125806 L-846752 125745 L-846517 125684 L-846406 125623 L-846289 125562 L-845308 125501 L-845282 125440 L-844688 125318 L-844656 125318 L-844507 125257 L-844223 125196 L-843311 125196 L-842365 125196 L-842212 125135 L-842109 125135 L-841977 125073 L-841834 125012 L-841808 124951 L-841694 124890 L-841475 124829 L-840794 124768 L-840665 124707 L-840361 124646 L-840122 124524 L-839789 124463 L-839150 124401 L-838808 124279 L-838746 124218 L-838590 124218 L-837669 124218 L-837198 124218 L-837155 124218 L-837142 124157 L-837101 124096 L-837079 124035 L-837052 123974 L-836908 123913 L-836485 123852 L-836150 123852 L-835959 123791 L-835530 123791 L-835342 123729 L-834953 123607 L-834419 123546 L-834046 123485 L-834025 123485 L-833775 123424 L-833657 123363 L-833581 123302 L-833445 123241 L-833406 123180 L-833326 123119 L-832931 123058 L-832436 122996 L-832324 122874 L-832151 122813 L-831842 122752 L-831395 122691 L-831072 122630 L-830929 122508 L-830502 122386 L-830349 122263 L-830294 122141 L-829480 122080 L-829460 122019 L-829088 121958 L-829032 121958 L-827903 121897 L-827835 121897 L-827276 121836 L-827082 121775 L-826945 121714 L-826712 121653 L-826365 121591 L-826330 121469 L-826295 121408 L-826227 121286 L-825878 121225 L-825706 121164 L-825221 121103 L-825205 121042 L-824879 120981 L-824722 120919 L-823581 120797 L-823556 120736 L-823365 120614 L-823171 120553 L-822921 120492 L-822904 120431 L-821883 120370 L-821586 120309 L-821510 120248 L-821374 120125 L-821198 120064 L-820622 119942 L-820406 119881 L-820342 119820 L-820212 119759 L-820175 119637 L-819652 119576 L-819514 143644 L-819499 143644 L-819476 143644 L-819456 143644 L-819229 119514 L-818453 119514 L-818412 119514 L-818044 119514 L-817965 119453 L-817913 119392 L-817240 119331 L-816498 119270 L-816073 119270 L-815625 119209 L-814564 119148 L-814252 119026 L-813842 119026 L-813770 118965 L-813246 118965 L-813151 118965 L-813133 118965 L-812688 118904 L-812503 118781 L-811723 118659 L-811050 118598 L-810638 118415 L-810406 118293 L-810266 118232 L-810184 118109 L-810164 118048 L-810088 118048 L-809960 117987 L-809643 118048 L-809418 118048 L-809093 117987 L-809031 117987 L-808661 117987 L-808628 117987 L-808420 117987 L-807752 117987 L-807675 117987 L-807517 117865 L-807406 117865 L-807080 117804 L-806925 117743 L-806584 117743 L-806527 117621 L-806189 117499 L-805985 117437 L-805932 117315 L-804556 117254 L-804426 117193 L-803993 117132 L-803672 117071 L-802844 116949 L-802721 116888 L-801990 116766 L-801834 116643 L-801794 116582 L-801740 116521 L-801717 116460 L-801603 116399 L-801306 116338 L-801016 116277 L-800962 116216 L-800841 116155 L-800811 116094 L-800712 116032 L-800268 116032 L-800116 115971 L-799281 115971 L-798738 115910 L-798404 115910 L-798388 115849 L-798313 115788 L-798196 115727 L-798002 115666 L-797738 115605 L-796903 115544 L-796807 115483 L-796285 115422 L-796244 115361 L-796144 115299 L-795316 115299 L-795181 115238 L-794842 115238 L-794288 115177 L-793908 115116 L-793745 115055 L-793435 114994 L-792623 114933 L-792317 114872 L-792048 114872 L-791727 114872 L-791406 114933 L-791130 114933 L-790302 114811 L-790207 114750 L-790114 114566 L-790010 114383 L-789623 114200 L-789143 114078 L-789126 114017 L-789008 113956 L-788640 113833 L-788545 113772 L-787711 113650 L-787634 113589 L-787335 113528 L-787244 113467 L-786837 113345 L-786726 113222 L-786027 113161 L-785554 113100 L-785494 113039 L-785275 112917 L-785001 112856 L-784888 112795 L-783861 112734 L-783474 112673 L-783454 112612 L-783122 112551 L-782877 112489 L-782444 112428 L-782334 112367 L-782216 112306 L-781764 112184 L-781174 112123 L-780837 112062 L-778944 112001 L-778831 111879 L-778619 111817 L-777301 111756 L-777194 98012 L-777128 84450 L-777092 71927 L-777030 71927 L-776531 85550 L-775856 98989 L-775834 111390 L-775563 111268 L-774595 111268 L-773906 111207 L-773744 111145 L-773203 111084 L-773113 111023 L-772094 110962 L-771146 110840 L-770781 110901 L-770678 110962 L-770090 110962 L-770030 110962 L-769930 110901 L-769489 110779 L-769382 110718 L-768940 110657 L-767940 110474 L-767684 110290 L-767581 110107 L-767451 109985 L-767084 109863 L-766504 109740 L-766473 109679 L-766157 109618 L-764174 109557 L-764058 109496 L-763991 109496 L-763632 109435 L-762013 109374 L-761836 109374 L-761691 109374 L-760869 109435 L-760816 109496 L-760762 109496 L-760328 109496 L-759347 109557 L-759273 109557 L-758189 109496 L-757976 109496 L-757260 109374 L-756871 109313 L-756652 109191 L-756333 109069 L-755839 108946 L-755711 108885 L-755482 108763 L-755250 108641 L-755191 108580 L-754901 108519 L-754629 108397 L-753599 108335 L-751934 108274 L-751515 108213 L-751378 108152 L-751222 108152 L-750916 108091 L-750688 107969 L-750530 107908 L-750371 107786 L-750201 107664 L-750154 107602 L-750101 107541 L-750079 107541 L-749693 107480 L-749443 107480 L-749173 107480 L-749012 107480 L-748922 107480 L-747264 107480 L-747098 107541 L-746719 107480 L-746258 107480 L-745649 107358 L-744556 107297 L-744125 107236 L-744093 107175 L-744031 107114 L-744013 107053 L-742310 106992 L-742268 106930 L-741801 106869 L-741615 106808 L-741582 106686 L-740987 106625 L-740937 106564 L-740614 106503 L-740564 106442 L-740353 106381 L-740335 106320 L-740069 106197 L-740016 106136 L-739547 106075 L-739037 105953 L-738958 105953 L-738664 105892 L-738648 105831 L-738609 105770 L-738538 105709 L-738381 105648 L-737435 105648 L-737378 105648 L-736857 105648 L-736665 105587 L-736564 105587 L-736338 105525 L-735828 105525 L-735440 107175 L-735371 107175 L-735022 107114 L-734665 107053 L-733537 105281 L-733485 105159 L-733259 105098 L-733225 105037 L-733100 104915 L-733002 104915 L-732737 104915 L-731997 104976 L-731418 104976 L-731125 104976 L-730419 104976 L-730240 104915 L-730217 104915 L-729581 104854 L-729270 104792 L-728873 104792 L-728843 104731 L-728822 104670 L-728669 104609 L-727984 104609 L-727967 104609 L-727627 104609 L-727355 104548 L-727317 104487 L-727261 104365 L-727239 104304 L-727167 104243 L-726835 104182 L-726729 104120 L-726700 103998 L-726502 103937 L-726350 103876 L-725481 103815 L-724919 103693 L-724903 103693 L-724802 103632 L-724699 103693 L-724553 103693 L-724475 103693 L-724437 103632 L-724381 103571 L-724308 103510 L-724163 103448 L-723681 103448 L-723277 103387 L-722411 103448 L-722391 103448 L-722133 103448 L-722056 103448 L-722027 103387 L-722017 103265 L-722000 103204 L-721707 103143 L-721667 103082 L-721595 103021 L-721522 102960 L-721317 102899 L-721157 102715 L-720855 102532 L-720778 102288 L-720761 102105 L-720545 101982 L-720313 101982 L-720203 102043 L-719834 102105 L-719675 102105 L-719444 102105 L-719276 102105 L-719130 102043 L-718998 101982 L-717723 101860 L-717319 101738 L-717258 101677 L-717142 101555 L-716716 101494 L-716701 101372 L-716639 101310 L-716366 101188 L-716253 101127 L-715971 101005 L-715694 100944 L-715269 100822 L-715246 100761 L-715168 100700 L-715043 100638 L-714456 100577 L-714065 100516 L-713729 100455 L-713140 100394 L-713038 100394 L-712867 100333 L-712731 100333 L-711903 100272 L-710718 100211 L-710682 100150 L-710627 100150 L-710406 100089 L-710201 100089 L-710046 100089 L-709790 100028 L-709713 99967 L-709170 99905 L-709134 99844 L-708885 99783 L-708498 99722 L-707672 99661 L-707314 99600 L-707003 99600 L-706745 99539 L-706522 99478 L-706116 99417 L-705999 99356 L-705816 99295 L-705763 99295 L-705574 99233 L-705403 99172 L-705375 99111 L-705094 99050 L-704784 98989 L-704646 98928 L-704336 98867 L-704142 98867 L-704127 98806 L-703407 98806 L-703274 98684 L-702976 98623 L-702885 98562 L-702285 98562 L-702247 98500 L-702168 98439 L-701548 98378 L-701396 98256 L-701356 98195 L-701045 98134 L-700853 98073 L-700660 97951 L-700605 97828 L-700296 97767 L-700244 97706 L-700189 97767 L-700163 97767 L-700038 97767 L-699228 97706 L-699151 97645 L-698611 97584 L-698342 97523 L-697683 97462 L-696775 97401 L-696534 97340 L-696001 97279 L-695784 97218 L-694677 97279 L-694626 97279 L-693851 97279 L-693303 97218 L-693192 97156 L-693039 97034 L-692984 96973 L-692818 96912 L-692441 96851 L-691994 96790 L-691939 96729 L-691785 96668 L-691105 96607 L-690884 96546 L-690367 96485 L-689518 96362 L-689502 96301 L-687711 96240 L-687156 96179 L-687039 96118 L-686033 96057 L-685997 95996 L-685764 95996 L-685672 95996 L-685632 95996 L-685299 95935 L-684948 95874 L-684682 95751 L-684396 95690 L-684085 95568 L-683831 95446 L-683737 95385 L-683247 95324 L-683040 95263 L-682474 95202 L-682360 95263 L-682009 95202 L-681957 95202 L-681917 95202 L-681314 95080 L-680580 94957 L-679999 94835 L-679763 94713 L-679223 94530 L-679070 94408 L-678568 94346 L-678359 94224 L-678336 94224 L-678277 94163 L-677314 94163 L-677137 94102 L-676695 94041 L-676671 93919 L-676516 93858 L-676434 93858 L-676284 93919 L-675637 93919 L-675587 93858 L-674467 93797 L-673483 93736 L-673421 93675 L-672701 93613 L-671836 93552 L-671457 93491 L-671238 93491 L-670479 93430 L-670427 93369 L-670118 93247 L-669266 93247 L-669073 93186 L-668896 93125 L-668672 93125 L-668545 93064 L-668353 93064 L-668121 93003 L-667951 93064 L-667665 93003 L-667385 93003 L-667302 92941 L-667132 92880 L-667115 92758 L-666961 92697 L-666922 92636 L-666146 92575 L-666070 92575 L-665838 92453 L-665411 92392 L-665065 92331 L-664482 92270 L-664214 92270 L-663955 92270 L-663825 92147 L-663809 92086 L-663695 92025 L-663671 91964 L-663437 91903 L-663401 91842 L-662085 91842 L-662029 91781 L-661350 91659 L-660778 91659 L-660652 91659 L-660499 91659 L-660422 91659 L-660110 91536 L-659837 91475 L-659748 91353 L-659647 91353 L-658719 91292 L-658642 91292 L-658278 91292 L-658254 91231 L-658217 91170 L-657442 91048 L-657350 90987 L-657210 90926 L-656808 90864 L-656547 90864 L-656303 90926 L-656089 90864 L-656009 90864 L-655932 90864 L-655856 90864 L-655669 90926 L-655602 90926 L-655353 90926 L-655298 90864 L-655160 90803 L-655081 90681 L-654967 90620 L-654744 90559 L-654580 90498 L-654539 90437 L-654369 90376 L-653999 90315 L-653984 90254 L-653868 90193 L-653146 90131 L-653111 90070 L-652978 90070 L-652630 90009 L-652218 90009 L-652182 90009 L-652104 89948 L-652065 89887 L-651701 89826 L-651497 89765 L-651482 89704 L-651137 89643 L-650788 89643 L-650462 89643 L-650361 89582 L-650208 89582 L-650013 89521 L-649782 89521 L-649689 89521 L-649534 89521 L-649456 89521 L-649416 89459 L-649302 89398 L-649279 89337 L-649028 89337 L-648889 89215 L-648312 89032 L-647483 88910 L-646996 88788 L-646874 88726 L-646836 88665 L-646823 88604 L-646671 88482 L-646570 88360 L-646337 88299 L-645947 88177 L-645642 88116 L-645627 88054 L-645456 87993 L-645217 87871 L-644621 87871 L-644017 87810 L-643978 87810 L-643937 87810 L-643784 87749 L-643731 87688 L-643668 87627 L-643600 87566 L-643545 87444 L-643520 87383 L-643473 87321 L-643379 87199 L-643242 87138 L-643089 87077 L-642956 87016 L-642916 87016 L-642880 86955 L-642818 86894 L-642545 86772 L-642230 86711 L-642189 86588 L-642104 86527 L-641927 86466 L-641689 86405 L-641332 86344 L-641302 86283 L-640733 86222 L-640610 86161 L-640374 86100 L-640351 86100 L-640070 86039 L-639784 86039 L-639529 86039 L-638957 85978 L-638660 85916 L-638584 85855 L-637885 85794 L-637808 85733 L-637772 85672 L-637746 85611 L-637695 85489 L-637501 85428 L-637361 85306 L-637325 85244 L-637284 85183 L-636689 85122 L-636457 85061 L-636173 85489 L-636119 85855 L-636045 86283 L-635967 86649 L-635731 86527 L-635487 86466 L-635351 86405 L-635245 86344 L-635165 86283 L-634778 86161 L-634651 86100 L-634498 86039 L-634461 85978 L-634315 85916 L-634093 85855 L-633919 85794 L-633850 85733 L-633029 85611 L-633013 85611 L-632718 85550 L-631930 85489 L-631620 85489 L-631474 85428 L-631246 85367 L-631045 85244 L-630108 85183 L-630072 85122 L-630049 85061 L-630008 84939 L-629740 84878 L-629143 84817 L-629079 84756 L-629044 84695 L-629027 84634 L-628332 84634 L-628131 84634 L-628099 84634 L-627765 84634 L-627658 84572 L-627033 84450 L-626529 84389 L-626491 84267 L-626049 84267 L-625953 84206 L-625794 84206 L-625481 84206 L-625469 84206 L-625029 84267 L-624547 84328 L-624417 84328 L-624097 84328 L-624029 84267 L-623725 84267 L-623549 84206 L-623355 84145 L-623113 84023 L-622915 83901 L-622889 83778 L-622311 83717 L-622241 83656 L-621832 83595 L-621777 83534 L-621731 83473 L-621367 83412 L-621221 83351 L-621016 83290 L-620919 83290 L-620764 83229 L-620703 83167 L-620555 83045 L-620455 82984 L-619898 82984 L-619875 83106 L-619703 83167 L-619161 83229 L-619100 83229 L-619047 83106 L-619018 82984 L-618947 82923 L-618930 82801 L-618867 82740 L-618830 82618 L-618676 82557 L-618350 82496 L-617784 82434 L-617770 82373 L-617707 82251 L-617606 82129 L-617560 82129 L-617317 82068 L-616895 82068 L-616740 82068 L-614998 81946 L-614457 81885 L-613513 81824 L-613104 81762 L-612563 81640 L-612367 81579 L-612198 81518 L-611902 81457 L-611788 81396 L-611772 81396 L-611618 81335 L-611478 81274 L-611401 81152 L-611269 81152 L-610921 81152 L-610551 81213 L-609953 81213 L-609777 81213 L-609621 81152 L-609352 81091 L-609200 81091 L-608909 81274 L-608886 81396 L-608803 81518 L-608575 81640 L-607875 81579 L-607749 81518 L-607318 81457 L-607223 81396 L-606018 81396 L-605969 81335 L-605676 81335 L-605272 81274 L-604997 81152 L-604977 81091 L-604860 81029 L-604784 80968 L-604602 80907 L-604122 80846 L-603671 80724 L-603261 80663 L-603230 80602 L-602812 80541 L-602698 80541 L-602580 80541 L-602564 80541 L-602370 80480 L-602349 80357 L-602116 80296 L-601673 80235 L-601354 80113 L-600889 80113 L-600723 80052 L-600569 79991 L-600413 79991 L-599959 79991 L-599640 79991 L-599585 80052 L-599214 80052 L-599176 80113 L-598850 80113 L-598733 80052 L-598635 79991 L-598309 79869 L-597921 79808 L-597661 79747 L-597302 79624 L-597046 79563 L-594876 79502 L-594826 79441 L-594804 79380 L-594392 79380 L-594331 79380 L-594260 79441 L-594030 79441 L-593719 79380 L-593416 79258 L-593371 79197 L-593064 79136 L-592931 79075 L-592714 79014 L-592002 78952 L-591847 78952 L-591708 78891 L-591560 78891 L-591538 78891 L-591344 78830 L-591319 78769 L-591228 78708 L-591206 78647 L-591189 78586 L-591089 78525 L-590161 78464 L-589703 78464 L-588611 78342 L-588188 78342 L-587784 78281 L-587746 78219 L-587492 78158 L-586718 78036 L-586701 77975 L-586677 77914 L-586484 77853 L-585747 77792 L-585478 77731 L-585438 77670 L-585039 77547 L-585014 77486 L-584225 77425 L-583545 77364 L-582174 77303 L-581904 77242 L-581855 77181 L-581317 77059 L-581285 76998 L-581183 76875 L-580859 76814 L-580780 76753 L-580511 76753 L-579598 76692 L-579459 76692 L-579210 76570 L-578665 76570 L-578243 76509 L-578050 76448 L-578035 76448 L-577897 76326 L-577803 76265 L-577676 76204 L-577415 76142 L-577391 76020 L-577299 75959 L-576989 75898 L-576929 75837 L-576812 75837 L-576462 75837 L-575652 75837 L-575420 75715 L-574591 75715 L-574359 75593 L-574143 75532 L-573624 75532 L-572986 75470 L-572570 75409 L-572247 75348 L-571767 75287 L-571341 75287 L-571280 75226 L-570931 75226 L-570891 75165 L-570877 75104 L-570777 74982 L-570732 74982 L-570247 74921 L-569445 74921 L-569111 74921 L-568030 74860 L-567550 74799 L-567527 74737 L-567387 74676 L-566831 74615 L-566134 74554 L-565825 74493 L-565603 74432 L-565499 74371 L-565396 74249 L-564725 74188 L-564631 74127 L-564609 74127 L-564532 74065 L-564354 74065 L-564182 74065 L-564001 74004 L-563988 73943 L-563911 73882 L-563747 73821 L-563232 73760 L-563216 73699 L-563076 73699 L-562713 73638 L-562689 73638 L-562558 73577 L-562534 73516 L-562172 73455 L-561646 73332 L-561553 73271 L-561337 73149 L-561243 73088 L-561219 73027 L-560754 72966 L-560677 72966 L-560276 72905 L-559825 72905 L-558573 72844 L-558534 72783 L-558103 72722 L-558070 72660 L-557351 72599 L-557175 72538 L-557039 72477 L-556732 72416 L-556677 72355 L-556653 72233 L-556637 72111 L-556462 72050 L-556272 71989 L-555765 71989 L-555391 71500 L-555053 70950 L-555014 70461 L-554295 70034 L-554201 69973 L-554163 69912 L-553621 69912 L-553598 69850 L-553195 69789 L-552770 69728 L-552499 69728 L-552319 69667 L-552073 69545 L-552050 69484 L-551993 69362 L-551377 69301 L-550874 69240 L-550487 69240 L-549868 69301 L-549652 69301 L-549497 69362 L-548204 69240 L-548105 69178 L-547663 69056 L-547331 68995 L-547031 68873 L-546788 68812 L-546054 68690 L-545475 68629 L-544645 68568 L-544545 68507 L-543987 68445 L-543849 68384 L-542207 68323 L-542146 68323 L-542052 68323 L-541085 68323 L-540908 68262 L-540621 68262 L-540403 68262 L-540325 68201 L-540054 68201 L-539938 68140 L-539785 68079 L-539475 68018 L-539397 67957 L-539306 67957 L-539228 67896 L-539112 67896 L-538933 67835 L-538841 67773 L-538803 67712 L-538300 67712 L-538081 67651 L-537952 67651 L-537796 67590 L-537742 67529 L-537617 67529 L-537232 67468 L-536724 67407 L-536652 67346 L-536171 67285 L-536094 67224 L-535994 67224 L-535761 67163 L-535296 67163 L-535066 67163 L-535049 67163 L-534817 67163 L-534663 67163 L-534601 67163 L-534408 67102 L-534137 66979 L-533386 66918 L-532433 66918 L-532397 66857 L-532172 66857 L-531732 66857 L-531451 66735 L-531103 66674 L-530034 66613 L-529106 66613 L-528975 66613 L-528928 66613 L-528859 66552 L-528704 66552 L-528627 66430 L-528453 66307 L-528019 66185 L-527814 66124 L-527754 66002 L-527172 65941 L-527018 65819 L-526902 65758 L-526861 65697 L-526692 65635 L-526555 65574 L-526344 65452 L-526267 65391 L-526243 65330 L-526035 65208 L-525625 65147 L-525600 65086 L-525377 65025 L-525232 64963 L-525197 64902 L-525184 64841 L-525161 64780 L-524928 64719 L-524742 64658 L-524525 64597 L-524500 64536 L-523811 64475 L-523707 64414 L-523671 64353 L-523651 64291 L-523457 64230 L-523403 64169 L-523286 64047 L-523205 64047 L-523094 63986 L-522779 63925 L-522320 63864 L-522065 63803 L-521831 63681 L-521701 63620 L-521348 63558 L-521289 63497 L-521136 63436 L-520564 63314 L-520478 63253 L-520325 63131 L-520029 63009 L-519659 62886 L-519356 62764 L-519279 62703 L-518874 62642 L-518706 62642 L-518562 62642 L-518022 62642 L-517961 62642 L-517945 62520 L-517779 62459 L-517574 62398 L-517499 62398 L-517406 62337 L-516996 62276 L-516981 62215 L-516957 62215 L-516764 62153 L-516687 62703 L-516517 63253 L-516455 63742 L-516439 64291 L-515924 64230 L-515703 64169 L-515084 64047 L-514831 63986 L-514637 63925 L-514597 63864 L-514524 63864 L-514459 63864 L-513808 63864 L-513769 63925 L-513595 63925 L-513529 63925 L-512855 63925 L-512466 63803 L-512205 63742 L-511967 63681 L-511889 63558 L-511873 63436 L-511671 63375 L-511301 63253 L-511075 63192 L-510440 63131 L-510420 63131 L-510033 63070 L-509939 63070 L-509881 63009 L-509605 62948 L-509295 62948 L-509218 62886 L-508367 62948 L-508024 63253 L-507587 63620 L-507153 63925 L-506658 64230 L-506509 64169 L-506240 64230 L-505002 64291 L-504946 64414 L-503182 64475 L-502992 64414 L-501981 64353 L-501830 64291 L-501455 64414 L-501134 64536 L-500529 64658 L-500459 64780 L-500282 64719 L-499453 64658 L-499315 64597 L-498928 64536 L-498743 64475 L-498700 64414 L-498580 64353 L-498370 64291 L-497923 64169 L-497574 64108 L-497442 64047 L-497033 63986 L-496683 63986 L-496398 63925 L-496204 63864 L-496050 63864 L-495886 63803 L-495817 63742 L-495718 63742 L-495484 63681 L-495368 63681 L-495314 63620 L-494773 63620 L-494308 63558 L-493126 63558 L-492993 63558 L-492968 63558 L-492916 63558 L-492248 63558 L-491213 63436 L-491019 63375 L-490840 63314 L-490688 63314 L-490648 63253 L-490633 63253 L-490571 63192 L-490246 63131 L-489085 63070 L-488892 63009 L-488714 62948 L-487600 62886 L-486741 62825 L-486635 62825 L-486161 62764 L-485968 62764 L-483647 62703 L-483569 62642 L-483448 62520 L-483413 62459 L-483376 62337 L-483282 62153 L-483066 62031 L-482485 61909 L-482098 61848 L-481325 61787 L-481248 61726 L-480550 61726 L-480009 61726 L-479968 61665 L-479838 61665 L-479374 61604 L-479335 61543 L-479200 61481 L-478832 61420 L-478803 61359 L-478653 61359 L-478252 61298 L-476428 61359 L-475621 61298 L-474902 61298 L-474886 61298 L-474572 61176 L-474010 61115 L-473509 61054 L-472990 60993 L-472968 60932 L-471225 60871 L-471056 60810 L-470860 60748 L-469966 60687 L-469448 60565 L-469237 60504 L-468979 60443 L-468270 60382 L-467319 60321 L-466661 60260 L-466622 60138 L-466335 60076 L-466253 60015 L-466157 60015 L-466026 59954 L-465948 59954 L-465213 59954 L-464876 59893 L-464826 59954 L-464571 59954 L-464285 59893 L-463859 59893 L-463279 59832 L-463020 59832 L-462868 59771 L-462621 59771 L-462582 59771 L-461785 59710 L-461748 59649 L-461571 59649 L-461161 59527 L-460933 59527 L-460856 59527 L-460725 59527 L-460609 59466 L-460261 59405 L-460198 59343 L-460045 59282 L-459304 59221 L-459193 59160 L-459023 59099 L-458984 59038 L-458689 59038 L-458288 59038 L-458111 59038 L-458017 59038 L-457707 58977 L-456906 58916 L-456447 58794 L-455927 58733 L-455439 58671 L-454743 58610 L-453697 58549 L-453428 58549 L-453374 58488 L-453214 58488 L-452962 58488 L-452716 58427 L-452637 58366 L-452423 58244 L-452111 58183 L-451647 58061 L-451633 58000 L-451337 58000 L-451323 57938 L-450332 57877 L-449660 57816 L-449325 57694 L-448709 57694 L-448572 57633 L-447933 57572 L-447803 57511 L-446852 57389 L-446752 57266 L-446193 57205 L-445784 57205 L-445356 57205 L-445265 57144 L-444430 57144 L-444066 57144 L-444027 57205 L-443895 57266 L-443718 57266 L-443501 57266 L-443448 57205 L-443291 57083 L-443038 57022 L-441937 56961 L-441860 56900 L-441641 56839 L-441510 56717 L-441473 56656 L-441280 56594 L-441181 56533 L-440697 56472 L-440412 56411 L-440252 56350 L-440157 56228 L-439886 56167 L-439616 56106 L-439600 55861 L-439462 55678 L-439323 55495 L-438997 55251 L-438688 55128 L-438647 55067 L-438571 54945 L-438456 54884 L-437605 54762 L-437279 54701 L-436947 54640 L-436815 54640 L-436599 54640 L-436582 54640 L-435902 54640 L-435809 54518 L-435785 54456 L-435770 54334 L-435731 54273 L-435319 54151 L-435050 54090 L-435010 54029 L-434641 54029 L-434432 53968 L-433349 53968 L-433332 53907 L-433304 53846 L-433284 53846 L-432907 53723 L-432652 53662 L-432404 53540 L-432264 53418 L-432132 53357 L-431800 53296 L-431707 53235 L-431646 53174 L-431088 53113 L-431027 53051 L-430871 52990 L-430677 52929 L-430485 52868 L-430469 52807 L-430431 52746 L-430392 52685 L-430121 52624 L-429998 52563 L-429966 52502 L-429866 52502 L-429710 52502 L-429569 52502 L-429285 52441 L-428960 52441 L-428264 52379 L-428241 52379 L-427732 52379 L-426886 52379 L-426523 52318 L-426368 52257 L-425764 52257 L-425594 52257 L-425533 52257 L-425478 52196 L-424423 52135 L-424404 52135 L-423498 52135 L-423477 52135 L-423310 52074 L-423068 52074 L-423017 52013 L-422963 51891 L-422825 51830 L-422786 51769 L-421858 51708 L-421802 51708 L-421680 51708 L-421609 51708 L-421493 51708 L-421314 51769 L-420332 51708 L-420193 51708 L-420075 51585 L-419780 51463 L-419533 51402 L-419497 51341 L-419442 51402 L-419420 51402 L-419287 51402 L-419208 51402 L-419071 51341 L-418448 51341 L-418281 51280 L-417817 51280 L-417640 51158 L-417624 51097 L-417564 51036 L-417447 50974 L-416965 50913 L-416269 50852 L-415896 50791 L-415727 50730 L-414761 50669 L-414606 50608 L-414428 50608 L-414335 50547 L-414080 50547 L-413909 50547 L-413263 50486 L-413252 50486 L-412671 50425 L-412533 50425 L-412478 50302 L-411743 50241 L-411704 50180 L-411627 50180 L-410985 50119 L-410210 50119 L-410118 50058 L-410069 50058 L-410054 49997 L-410018 49997 L-410001 49875 L-409938 49814 L-409922 49753 L-409902 49753 L-409747 49692 L-409709 49631 L-409692 49569 L-409653 49508 L-409514 49447 L-409437 49386 L-409073 49325 L-408725 49264 L-407951 49203 L-407349 49142 L-407153 49081 L-406923 49081 L-406785 49020 L-406147 49020 L-405858 48959 L-405836 48959 L-405376 48897 L-405143 48897 L-405088 48836 L-405050 48775 L-404547 48714 L-403996 48653 L-403208 48592 L-402085 48592 L-401191 48531 L-401103 48531 L-400804 48470 L-400732 48409 L-400616 48348 L-399439 48287 L-399091 48226 L-399069 48164 L-398550 48103 L-398403 48042 L-398295 47981 L-398085 47920 L-397931 47859 L-397908 47798 L-397714 47737 L-397637 47676 L-397494 47615 L-396693 47554 L-396546 47492 L-396267 47431 L-396089 47370 L-395780 47309 L-394968 47248 L-394040 47248 L-392448 47187 L-392204 47126 L-391563 47065 L-391368 47004 L-391290 46943 L-390773 46882 L-390541 46882 L-390518 46821 L-390386 46821 L-390046 46759 L-390036 46698 L-389819 46637 L-389782 46576 L-389241 46515 L-388712 46393 L-388644 46332 L-388351 46271 L-387803 46149 L-387768 46087 L-387715 46026 L-387616 45904 L-387384 45904 L-386803 45904 L-386706 45965 L-386632 45965 L-386300 45904 L-385550 45843 L-385511 45782 L-384831 45782 L-384676 45782 L-384350 45721 L-384134 45660 L-383903 45660 L-383606 45599 L-383360 45538 L-383009 45477 L-382956 45416 L-382196 45354 L-381503 45232 L-381152 45110 L-380689 45049 L-380055 44988 L-379646 44927 L-379569 44988 L-379143 44988 L-378500 44927 L-378331 44927 L-377589 44866 L-377402 44805 L-377106 44744 L-376534 44682 L-376509 44621 L-375490 44621 L-375003 44560 L-374909 44560 L-374848 44499 L-374560 44438 L-374274 44377 L-374213 44316 L-374033 44316 L-373322 44255 L-373146 44194 L-372948 44133 L-372796 44072 L-372704 44010 L-372643 43949 L-372101 43949 L-371790 43888 L-371698 43766 L-371621 43644 L-371054 43583 L-370963 43583 L-370708 43461 L-370381 43339 L-370344 43155 L-370189 42972 L-369957 42911 L-369635 42850 L-368503 42789 L-368303 42728 L-367778 42667 L-367533 42667 L-367287 42605 L-367207 42544 L-367187 42422 L-367111 42361 L-367055 42239 L-366978 42178 L-366939 42117 L-366760 41995 L-366723 41934 L-366492 41872 L-365254 41811 L-364927 41750 L-364888 41628 L-364106 41567 L-363959 41506 L-362967 41445 L-362761 41445 L-362335 41445 L-362208 41445 L-361803 41506 L-361715 41445 L-361059 41384 L-360351 41323 L-359743 41262 L-359550 41200 L-359317 41078 L-358698 41017 L-358403 40895 L-357963 40834 L-357808 40773 L-357653 40712 L-356897 40590 L-356547 40529 L-356145 40529 L-356106 40467 L-355100 40467 L-354780 40467 L-354533 40406 L-353834 40284 L-353760 40223 L-353448 40162 L-352368 40101 L-352176 40040 L-351942 40040 L-351748 39979 L-351247 39918 L-350494 39918 L-350380 39918 L-350180 39918 L-350139 39857 L-350046 39795 L-349733 39734 L-349645 39673 L-349528 39612 L-349211 39612 L-349142 39551 L-349117 39490 L-348755 39429 L-348716 39368 L-348500 39307 L-347996 39368 L-347394 39429 L-347183 39551 L-347029 39612 L-346992 39612 L-346948 39490 L-346913 39429 L-346780 39368 L-346371 39307 L-346000 39246 L-345947 39185 L-345931 39124 L-345852 39062 L-345442 39001 L-345288 38940 L-345273 38818 L-345233 38757 L-345055 38635 L-344979 38574 L-344747 38513 L-343957 38452 L-343880 38452 L-343145 38329 L-342989 38268 L-342749 38146 L-342688 38024 L-342602 37963 L-342580 37841 L-342462 37718 L-342448 37596 L-342386 37474 L-342348 37413 L-342254 37352 L-342232 37352 L-342116 37291 L-341883 37230 L-341713 37108 L-340893 37108 L-340492 37047 L-340336 37047 L-339831 37047 L-339717 37047 L-339121 37047 L-338747 36985 L-338695 36985 L-338501 36924 L-337804 36924 L-337766 36863 L-337621 36863 L-337396 36802 L-337134 36741 L-336761 36680 L-336335 36619 L-336206 36558 L-336186 36436 L-335693 36436 L-334996 36375 L-334765 36436 L-334611 36436 L-333642 36436 L-333417 36497 L-333140 36497 L-333124 36436 L-332598 36375 L-332069 36313 L-331921 36252 L-331901 36191 L-331360 36130 L-331050 36069 L-330932 35947 L-330740 35825 L-330604 35703 L-330277 35642 L-330160 35580 L-329851 35580 L-329425 35519 L-329369 35519 L-329136 35580 L-329039 35580 L-328906 35580 L-328610 35580 L-328496 35519 L-328132 35458 L-327819 35458 L-327336 35397 L-327165 35336 L-326917 35275 L-326701 35214 L-326176 35153 L-325989 35031 L-325634 34970 L-324998 34908 L-324844 34786 L-324103 34725 L-323684 34664 L-323503 34603 L-323427 34603 L-323296 34542 L-323003 34481 L-322962 34420 L-322732 34420 L-322539 34359 L-322284 34359 L-321858 34298 L-321748 34237 L-321130 34237 L-320949 34237 L-319737 34237 L-319090 34298 L-318939 34298 L-318902 34298 L-318770 34298 L-318669 34237 L-318653 34175 L-318571 34114 L-318360 34053 L-318243 33992 L-317880 33931 L-317508 33870 L-316812 33809 L-316409 33748 L-316304 33687 L-316286 33626 L-315342 33565 L-315147 33442 L-314994 33381 L-314939 33259 L-314183 33259 L-314166 33381 L-313677 33442 L-313546 33565 L-313353 33565 L-312463 33503 L-312424 33442 L-312385 33381 L-312309 33320 L-312270 33320 L-312193 33259 L-312109 33198 L-311844 33137 L-311612 33076 L-311550 33015 L-311069 32954 L-310733 32954 L-310622 32893 L-310428 32832 L-310252 32770 L-310192 32770 L-310156 32709 L-309886 32648 L-309189 32526 L-309136 32404 L-308842 32282 L-308440 32160 L-307875 32098 L-307002 32037 L-306698 31976 L-306660 31915 L-306537 31854 L-305938 31793 L-305809 31732 L-305608 31671 L-305571 31610 L-304957 31549 L-304779 31488 L-304764 31365 L-304546 31304 L-304467 31182 L-304160 31182 L-304028 31121 L-303796 31121 L-303462 31121 L-303371 31060 L-303270 30999 L-303232 30938 L-302689 30938 L-302497 30877 L-301955 30816 L-301530 30755 L-301398 30755 L-301336 30755 L-301105 30755 L-301088 30755 L-300600 30816 L-300520 30816 L-300502 30816 L-299109 30877 L-298973 30877 L-298860 30816 L-298225 30755 L-298086 30693 L-297968 30632 L-297814 30510 L-297777 30449 L-297699 30388 L-297645 30449 L-296653 30449 L-296616 30388 L-296483 30388 L-296423 30266 L-296324 30205 L-296033 30144 L-296020 30083 L-295710 30083 L-295610 30144 L-295144 30083 L-295091 36558 L-294948 42972 L-294821 49447 L-294588 55923 L-294020 55861 L-293931 55800 L-293908 55800 L-293621 55739 L-292938 55678 L-292861 55617 L-292825 55556 L-292809 55495 L-292609 55434 L-292189 55312 L-291918 55312 L-291044 55251 L-290752 55251 L-290641 55251 L-289907 55189 L-289780 55128 L-289420 55067 L-289168 55067 L-288296 55006 L-288127 55006 L-288066 54945 L-288011 54884 L-287663 54823 L-287639 54762 L-287431 54701 L-287290 54640 L-287160 54579 L-287037 54518 L-286914 54456 L-286677 54395 L-286386 54334 L-285727 54273 L-285705 54212 L-285550 54151 L-285433 54090 L-284468 54029 L-284413 53968 L-284180 53907 L-284158 53846 L-283832 53784 L-283716 53784 L-283676 53723 L-283175 53723 L-282876 53662 L-282764 53601 L-282222 53540 L-281163 53479 L-280537 53418 L-280365 53357 L-280117 53296 L-279861 53235 L-279730 53174 L-279708 53113 L-279041 53051 L-278145 52990 L-278099 52929 L-278028 52868 L-277913 52868 L-277692 52807 L-277501 52807 L-277462 52746 L-277270 52685 L-276611 52685 L-275994 52624 L-275955 52990 L-275358 53357 L-275297 53662 L-274175 53968 L-274120 53968 L-273999 53907 L-273734 53846 L-273670 53846 L-273401 53846 L-273325 53784 L-273109 53784 L-272626 53723 L-272356 53662 L-272225 53662 L-271993 53540 L-271968 53357 L-271953 53113 L-271930 52807 L-271915 52502 L-271891 52196 L-271877 51830 L-271853 51463 L-271838 51097 L-271815 50791 L-271800 50486 L-271777 50180 L-271761 49997 L-271733 49814 L-271715 49569 L-271697 49447 L-271661 49264 L-271621 49142 L-271606 49020 L-271581 48836 L-271528 48714 L-271504 48592 L-271427 48470 L-271389 48409 L-271374 48287 L-271311 48164 L-271296 48042 L-271250 47859 L-271179 47737 L-271141 47676 L-271117 47554 L-271064 47431 L-271039 47370 L-271024 47309 L-270962 47248 L-270925 47187 L-270848 47126 L-270832 47065 L-270804 46943 L-270732 46882 L-270692 46821 L-270539 46698 L-270422 46637 L-270368 46576 L-270286 46515 L-270252 46454 L-270228 46393 L-270074 46332 L-270059 46271 L-269957 46210 L-269647 46149 L-269610 46087 L-269395 46026 L-269284 46026 L-269259 46026 L-269029 46087 L-268797 46087 L-268422 46026 L-268294 45965 L-268254 45904 L-268202 45843 L-268100 45782 L-268063 45721 L-267853 45721 L-267789 45660 L-267676 45660 L-267465 45599 L-267428 45538 L-267055 45477 L-267002 45416 L-266923 45354 L-266901 45293 L-266809 45232 L-266609 45171 L-266571 45171 L-266549 45171 L-266319 45171 L-266298 45110 L-266089 45110 L-265994 45049 L-265957 44988 L-265620 44927 L-265508 44866 L-265468 44805 L-265454 44805 L-265314 44744 L-265300 44744 L-265045 44744 L-264462 44682 L-264386 44621 L-264348 44560 L-264303 44499 L-264255 44438 L-264075 44377 L-264061 44316 L-263961 44255 L-263883 44194 L-263823 44133 L-263457 44010 L-263375 43949 L-263357 43888 L-263304 43827 L-262335 43766 L-262204 43705 L-262182 43644 L-261962 43583 L-261893 43522 L-261871 43461 L-261624 43400 L-261368 43339 L-261237 43277 L-261198 43216 L-261176 43094 L-261121 42972 L-261033 42911 L-260972 42789 L-260747 42728 L-260617 42667 L-260517 42605 L-260463 42544 L-260270 42483 L-260192 42422 L-259858 42361 L-259728 42300 L-259550 42239 L-259534 42178 L-259509 42117 L-259240 42117 L-258039 42056 L-258002 42056 L-257886 41995 L-257653 41934 L-257462 41872 L-257423 41872 L-257367 41811 L-257262 41811 L-256749 41750 L-256455 41689 L-256223 41628 L-255948 41567 L-255931 41506 L-255898 41445 L-255858 41384 L-255820 41323 L-255719 41262 L-255642 41200 L-255549 41139 L-255422 41078 L-255317 41017 L-255139 41017 L-254947 40956 L-254118 40956 L-254002 40895 L-253747 40834 L-253707 40773 L-253608 40712 L-253548 40712 L-253305 40651 L-253281 40651 L-253161 40590 L-253089 40529 L-253050 40467 L-252818 40406 L-252642 40345 L-252121 40284 L-252045 40223 L-252028 40162 L-251617 40162 L-251254 40162 L-251139 40101 L-251116 40101 L-251075 40040 L-250999 39979 L-250945 39918 L-250596 39857 L-250481 39795 L-250303 39795 L-250248 39734 L-250224 39734 L-250110 39673 L-249823 39612 L-249591 39551 L-249375 39490 L-249166 39429 L-248955 39307 L-248129 39246 L-247789 39185 L-246782 39124 L-246419 39062 L-245373 39001 L-245296 38940 L-244849 38879 L-244637 38818 L-244445 38757 L-244151 38696 L-244110 38635 L-243957 38574 L-243903 38452 L-243672 38390 L-243091 38329 L-242897 38268 L-242278 38268 L-241789 38207 L-241737 38146 L-241089 38085 L-240938 38024 L-240769 37963 L-240396 37902 L-240381 37902 L-240282 37841 L-240243 37841 L-240112 37780 L-239679 37780 L-239376 37780 L-238990 37780 L-238850 37718 L-238689 37718 L-238255 37718 L-238216 37657 L-238115 37657 L-237999 37596 L-237821 37596 L-237651 37535 L-237533 37474 L-237172 37352 L-236954 37291 L-236822 37230 L-236682 37230 L-236183 37230 L-236105 37230 L-235870 37169 L-235547 37169 L-235160 37108 L-235137 37047 L-234517 37047 L-234247 36985 L-234014 36985 L-233589 36924 L-233317 36863 L-233175 36802 L-232967 36741 L-232761 36680 L-232210 36619 L-232079 36619 L-231692 36558 L-231422 36558 L-231319 36497 L-231059 36436 L-230857 36375 L-230788 36313 L-230749 36252 L-230182 36191 L-229975 36130 L-229948 36069 L-229718 36008 L-229641 35947 L-229124 35886 L-229085 35825 L-228930 35764 L-228636 35703 L-228365 35642 L-228001 35580 L-227653 35580 L-227281 35519 L-227161 35519 L-227089 35458 L-226609 35397 L-226546 35336 L-226212 35275 L-226081 35214 L-226003 35153 L-225874 35092 L-225410 35092 L-225116 35031 L-225039 35031 L-224728 34970 L-224419 34908 L-224356 34847 L-224326 34786 L-223552 34725 L-223447 34603 L-223359 34542 L-223336 34481 L-223182 34420 L-222960 34359 L-222794 34298 L-222407 34237 L-222352 34175 L-222289 34175 L-221671 34114 L-221554 34053 L-221231 33992 L-220705 33931 L-220355 33870 L-220279 33809 L-219659 33748 L-219248 33687 L-218948 33626 L-218637 33565 L-218499 33503 L-217875 33503 L-217493 33442 L-216370 33442 L-215309 33381 L-215247 33320 L-214886 33259 L-214785 33259 L-214769 33198 L-214395 33198 L-213390 33076 L-213003 33015 L-212796 32893 L-212707 32832 L-212331 32770 L-212038 32709 L-211727 32648 L-210938 32587 L-210850 32526 L-210798 32465 L-210760 32404 L-210242 32343 L-210127 32282 L-209918 32221 L-209779 32160 L-209175 32098 L-208346 32037 L-208062 31976 L-207881 31976 L-207379 31915 L-207174 31915 L-206620 31915 L-206115 31854 L-205924 31793 L-205885 31732 L-205256 31671 L-204803 31610 L-204389 31549 L-203780 31488 L-202659 31488 L-202246 31427 L-201922 31427 L-201707 31365 L-201280 31304 L-201140 31243 L-201049 31182 L-200818 31121 L-200231 31121 L-199423 31060 L-198224 31060 L-198110 31060 L-197978 30999 L-197890 30938 L-197848 30999 L-197828 31060 L-197817 31182 L-197722 31304 L-196959 31304 L-196253 31304 L-196213 31243 L-195926 31182 L-195386 31121 L-195324 31060 L-195284 30999 L-195270 30938 L-195013 30877 L-194689 30816 L-194549 30755 L-194279 30693 L-194240 30632 L-194132 30571 L-193731 30510 L-193621 30449 L-193544 30388 L-193247 30327 L-193204 30266 L-192986 30266 L-192802 30266 L-192692 30266 L-192677 30205 L-192651 30205 L-192227 30144 L-191981 30083 L-191645 30021 L-191610 29960 L-191476 29899 L-191222 29899 L-191067 29838 L-190161 29838 L-190062 29777 L-189867 29655 L-188860 29594 L-188359 29533 L-188281 29472 L-188242 29411 L-188034 29350 L-187916 29288 L-187818 29227 L-187632 29166 L-187466 29105 L-187231 29044 L-186811 28983 L-186796 28922 L-186487 28861 L-185441 28800 L-185224 28739 L-185208 28678 L-185186 28616 L-184977 28555 L-184818 28494 L-184760 28433 L-183314 28372 L-182989 28372 L-182787 28372 L-182588 28372 L-182438 28372 L-182167 28311 L-181726 28250 L-181509 28250 L-180814 28189 L-180311 28128 L-179987 28067 L-179715 28067 L-178995 28006 L-178840 28006 L-177642 27883 L-177253 27822 L-177137 27700 L-176984 27639 L-176830 27578 L-175859 27517 L-175807 27456 L-175560 27395 L-175538 27334 L-175318 27273 L-174880 27150 L-174740 27028 L-174632 26906 L-174430 26845 L-174313 26784 L-174211 26723 L-174196 26723 L-174064 26662 L-173810 26601 L-173192 26540 L-172533 26478 L-172287 26478 L-172094 26417 L-171335 26417 L-171296 26417 L-171218 26356 L-171165 26234 L-171126 26173 L-171088 26112 L-171049 26051 L-170958 25990 L-170913 25929 L-170855 25806 L-170831 25745 L-170716 25684 L-170406 25562 L-170351 25501 L-170330 25440 L-169988 25379 L-169823 25318 L-169787 25196 L-169746 25135 L-169732 25073 L-169500 25012 L-169359 24951 L-169192 24890 L-168742 24890 L-168509 24890 L-168416 24890 L-168396 24951 L-167915 24890 L-167838 24890 L-167711 24829 L-167581 24707 L-167202 24646 L-166961 24524 L-166923 24463 L-166869 24401 L-166731 24279 L-166692 24218 L-166652 24157 L-166422 24096 L-166382 24035 L-166251 23974 L-166073 23913 L-166032 23852 L-166018 23791 L-165854 23729 L-165839 23668 L-165686 23607 L-165671 23546 L-165645 23485 L-165611 23424 L-165389 23302 L-165166 23302 L-164912 23241 L-164780 23302 L-164138 23302 L-163530 23241 L-162511 23241 L-162318 23180 L-162267 23119 L-162141 23058 L-161817 22996 L-161044 22935 L-160987 22874 L-160873 22813 L-160461 22752 L-160136 22691 L-159998 22630 L-159774 22569 L-159248 22508 L-158847 22508 L-158815 22447 L-158528 22447 L-158243 22386 L-157855 22324 L-157639 22263 L-157211 22141 L-157030 22080 L-156694 22019 L-156587 21958 L-156401 21958 L-156284 21897 L-156270 21897 L-155548 21836 L-155379 21775 L-155130 21714 L-155030 21653 L-154388 21591 L-154100 21530 L-153910 21469 L-153635 21408 L-153317 21347 L-153033 21286 L-152919 21164 L-152874 21103 L-152671 21042 L-151063 20981 L-150851 20919 L-150170 20858 L-150087 20797 L-149859 20736 L-149669 20736 L-149530 20675 L-149511 20675 L-149318 20675 L-149088 20675 L-148895 20675 L-147811 20614 L-147616 20614 L-147563 20614 L-147409 20614 L-147302 20614 L-147135 20614 L-146983 20553 L-146868 20492 L-146744 20370 L-146326 20309 L-146069 20186 L-145977 20125 L-145784 20125 L-145722 20064 L-145397 20064 L-145336 20064 L-145279 20003 L-145010 19942 L-144661 19881 L-144483 19820 L-144289 19759 L-144253 19820 L-143540 19820 L-143501 19942 L-143191 20003 L-142893 20064 L-142844 20125 L-142588 20186 L-142317 20248 L-142262 20248 L-141171 20248 L-141141 20186 L-141100 20186 L-140924 20186 L-140731 20125 L-139873 20125 L-138820 20064 L-138759 20003 L-138410 19942 L-137597 19942 L-136784 19942 L-136769 19942 L-136394 19942 L-136225 19942 L-135956 19942 L-135629 19881 L-135507 19820 L-135450 19820 L-135415 19759 L-135337 19759 L-135120 19698 L-135062 19637 L-134746 19576 L-134578 19514 L-134215 19514 L-134022 19514 L-133998 19514 L-133921 19453 L-133440 19453 L-133303 19453 L-132889 19392 L-132590 19392 L-132491 19331 L-132475 19270 L-132446 19209 L-132087 19148 L-131737 19087 L-131599 19026 L-131563 19026 L-130746 18965 L-130540 18904 L-130515 18843 L-130359 18843 L-130269 18781 L-130028 18781 L-129704 18720 L-129612 18720 L-129415 18659 L-129129 18659 L-128374 18598 L-128244 18537 L-128171 18476 L-127558 18415 L-127382 18354 L-127272 18293 L-127172 18232 L-127093 18171 L-126956 18109 L-126802 18109 L-126723 18109 L-126532 18109 L-125858 18109 L-125820 18048 L-125717 17987 L-124774 17926 L-124752 17865 L-124401 17804 L-123936 17743 L-123901 17682 L-123471 17621 L-123420 17621 L-123009 17560 L-122992 17560 L-122896 17560 L-122841 17560 L-122802 17560 L-122507 17499 L-120768 17437 L-119259 17376 L-118751 17315 L-118253 17254 L-118119 17193 L-118028 17132 L-117901 17071 L-117822 16949 L-117517 16888 L-117246 16827 L-117012 16827 L-115813 16766 L-115708 16766 L-115642 16704 L-114801 16643 L-114615 16582 L-113704 16521 L-112835 16399 L-112547 16338 L-112455 16216 L-111906 16155 L-111386 16094 L-110317 16032 L-110049 15971 L-109895 15971 L-109802 15971 L-109672 16032 L-109625 16094 L-109465 16094 L-108599 16094 L-108264 16094 L-107881 16032 L-107128 15971 L-107069 15910 L-106680 15910 L-106358 15910 L-106201 15849 L-105469 15849 L-105406 15849 L-105119 15849 L-104745 15849 L-104564 15849 L-104308 15788 L-104047 15666 L-103894 15605 L-103491 15544 L-102193 15483 L-102078 15422 L-101615 15361 L-100283 15299 L-99858 15238 L-99834 15177 L-99701 15116 L-99526 15055 L-99392 15055 L-99062 14994 L-98675 14933 L-98635 14872 L-98619 14750 L-98228 14689 L-97937 14627 L-97668 14627 L-97494 14627 L-96001 14627 L-95951 14566 L-95873 14627 L-94633 14689 L-94558 14689 L-94531 14811 L-94285 14750 L-94127 14750 L-94069 14689 L-93181 14689 L-92953 14627 L-92429 14627 L-92288 14689 L-92212 14689 L-91516 14750 L-91268 14750 L-90587 14689 L-90570 14689 L-90316 14627 L-89948 14627 L-89813 14566 L-89191 14444 L-88847 14383 L-88800 14322 L-88313 14261 L-87979 14139 L-87762 14139 L-87628 14078 L-87307 14017 L-87242 14017 L-86990 13956 L-86701 13894 L-86391 13833 L-86251 13772 L-85712 13711 L-85436 13650 L-84706 13589 L-84653 13589 L-84546 13589 L-84280 13589 L-83856 13589 L-83591 13528 L-83372 13467 L-83351 13406 L-83120 13345 L-82833 13284 L-82810 13284 L-82795 13222 L-82423 13222 L-82251 13161 L-82175 13039 L-82114 12978 L-81813 12856 L-81572 12734 L-81479 12673 L-81222 12612 L-81170 12551 L-80974 12489 L-80758 12551 L-80334 12551 L-80242 12612 L-80102 12551 L-79237 12489 L-78863 12428 L-78536 12306 L-78383 12245 L-77956 12245 L-77238 12184 L-77043 12184 L-76689 12123 L-76543 12062 L-76036 11940 L-75800 11879 L-74833 11817 L-74823 11756 L-73757 11695 L-73525 11634 L-73123 11573 L-72929 11512 L-72849 11451 L-72753 11390 L-72016 11390 L-71884 11390 L-71494 11390 L-71472 11329 L-71377 11329 L-71241 11268 L-71224 11207 L-71204 11145 L-69519 11084 L-69501 11084 L-69384 11023 L-69300 11023 L-69175 11023 L-69151 10962 L-68867 10901 L-68760 10840 L-68572 10718 L-68301 10657 L-67630 10596 L-67258 10535 L-66406 10535 L-66348 10474 L-66329 10474 L-66096 10474 L-65821 10412 L-65516 10412 L-65476 10290 L-65245 10290 L-65008 10229 L-64395 10168 L-64354 10107 L-64317 9985 L-63795 9924 L-63604 9863 L-63543 9802 L-63501 9740 L-63178 9740 L-63150 9679 L-63136 9679 L-62650 9618 L-62597 9557 L-62459 9496 L-62421 9435 L-62404 9374 L-62309 9313 L-61644 9313 L-61028 9252 L-60758 9252 L-60350 9252 L-60329 9191 L-60314 9191 L-60200 9130 L-59813 9069 L-59347 9069 L-59286 9007 L-59207 8946 L-59193 8885 L-58707 8763 L-58667 8702 L-58522 8702 L-58472 8641 L-58393 8702 L-57761 8641 L-57670 8641 L-57429 8641 L-57313 8580 L-56985 8580 L-56231 8519 L-56214 8519 L-55262 8519 L-54953 8458 L-54528 8397 L-53815 8335 L-53496 8274 L-53481 8213 L-53330 8091 L-53027 8030 L-52949 7969 L-52822 7908 L-52385 7908 L-52324 7908 L-51801 7908 L-51533 7908 L-51395 7847 L-51317 7786 L-51278 7725 L-50467 7725 L-50426 7725 L-49986 7725 L-49908 7725 L-49650 7664 L-49460 7602 L-48831 7541 L-48644 7480 L-48609 7358 L-48453 7297 L-48052 7175 L-47974 7114 L-47793 7053 L-47603 6992 L-46674 6869 L-46524 6808 L-45316 6747 L-44506 6686 L-44103 6625 L-43501 6564 L-43299 6503 L-43230 6442 L-43072 6381 L-42810 6320 L-42437 61054 L-42418 60993 L-42262 60993 L-41063 60993 L-39960 6197 L-39032 6136 L-38918 6075 L-38633 6014 L-38531 5953 L-38507 5953 L-38316 5831 L-38239 5770 L-38043 5770 L-37331 5770 L-37173 5831 L-36116 5831 L-35692 5831 L-35281 5770 L-34995 5648 L-34821 5587 L-34589 5525 L-34335 5464 L-33892 5403 L-33232 5342 L-33056 5281 L-32751 5220 L-32364 5159 L-32344 5098 L-32325 5037 L-32303 4976 L-32170 4915 L-31977 4854 L-30333 4792 L-29037 4731 L-28998 4670 L-28940 4609 L-28839 4548 L-28280 4487 L-27295 4426 L-26753 4304 L-26289 4243 L-25644 4182 L-25095 4120 L-24045 4059 L-23116 3998 L-22769 3937 L-22575 3876 L-22072 3815 L-21627 3815 L-21485 3754 L-21463 3754 L-20892 3754 L-20507 3632 L-19673 3571 L-19325 3510 L-19303 3448 L-18915 3448 L-18492 3387 L-17894 3326 L-17875 3265 L-17369 3265 L-17137 3204 L-17024 3204 L-16405 3082 L-15843 3021 L-15803 2960 L-15244 2899 L-14911 2838 L-14798 2838 L-14760 2777 L-14335 2777 L-14275 2777 L-14199 2715 L-13908 2715 L-13696 2654 L-13212 2532 L-12998 2471 L-11858 2410 L-11799 2349 L-11781 2288 L-11375 2227 L-10736 2166 L-10601 2105 L-10543 2043 L-10001 1982 L-9692 1921 L-9441 1921 L-9365 1860 L-9245 1799 L-8512 1677 L-8067 1616 L-7852 1555 L-7119 1494 L-6944 1433 L-6579 1433 L-6364 1433 L-5126 1433 L-4816 1433 L-4700 1433 L-4447 1372 L-4236 1310 L-3694 1249 L-3462 1188 L-3405 1188 L-3307 1127 L-2978 1127 L-2746 1066 L-1083 1005 L-733 944 L-329 822 L-174 761 L618 700 L2109 638 L2495 577 L2534 516 L2788 455 L2883 394 L3075 333 L3424 333 L4120 272 L4371 272 L5087 211 L6500 150" />
</svg>
