<svg xmlns="http://www.w3.org/2000/svg" version="1.1" viewBox="0 0 6500 1000">
	<path fill="none" stroke="gold" stroke-width="125" stroke-linecap="round" stroke-linejoin="round" d="M0 30178  L-346436 30178 L-346252 30155 L-345761 30110 L-345468 30087 L-345156 30041 L-344922 30018 L-344869 29973 L-344809 29927 L-344656 29904 L-344616 29859 L-344483 29836 L-344191 29813 L-343650 29813 L-343040 29790 L-342992 29790 L-342352 29768 L-342318 29768 L-341793 29768 L-341660 29745 L-341270 29699 L-340942 29654 L-340825 29608 L-340613 29562 L-339896 29562 L-339326 29540 L-339219 29540 L-339045 29517 L-338823 29471 L-338422 29448 L-338396 29403 L-337468 29357 L-337381 29312 L-337298 29266 L-337228 29220 L-336931 29198 L-336779 29152 L-334889 29175 L-334788 29175 L-334526 29175 L-334232 29198 L-334091 29152 L-333842 29152 L-333806 29129 L-333648 29106 L-333184 29061 L-332931 29038 L-332719 28992 L-332468 28970 L-332119 28947 L-331192 28901 L-331098 28856 L-330687 28833 L-329516 28787 L-328327 28764 L-328235 28719 L-328208 28673 L-327942 28628 L-327643 28582 L-327514 28536 L-327476 28491 L-326662 28491 L-326278 28514 L-325217 28536 L-325156 28536 L-324891 28992 L-324420 29426 L-324227 29859 L-323964 30292 L-323627 30269 L-323491 30246 L-323036 30224 L-322292 30201 L-322275 30178 L-322110 30132 L-322041 30132 L-321525 30110 L-320497 30110 L-320300 30087 L-319812 30064 L-319450 30041 L-319041 30041 L-318656 30064 L-316952 30064 L-316854 30064 L-316782 30064 L-316721 30064 L-316537 30041 L-316200 30041 L-315560 30018 L-315483 29996 L-315421 29996 L-315235 29973 L-315155 29973 L-314978 29950 L-314959 29927 L-314729 29927 L-314341 29904 L-313452 29904 L-313413 29882 L-313325 29859 L-313297 29813 L-312289 29790 L-312140 29745 L-312115 29722 L-311982 29699 L-311943 29676 L-310684 29654 L-310627 29654 L-310087 29631 L-310034 29631 L-309988 29631 L-309593 29608 L-309453 29585 L-309253 29562 L-309106 29562 L-308942 29562 L-308665 29585 L-308306 29585 L-307754 29562 L-307109 29540 L-306850 29494 L-306697 29471 L-306296 29448 L-306255 29426 L-306135 29403 L-306073 29426 L-306059 29426 L-305965 29426 L-305672 29403 L-305521 29312 L-305190 29266 L-305113 29220 L-305037 29198 L-304810 29129 L-304744 29084 L-304516 29038 L-304464 28992 L-304299 28970 L-303293 28947 L-303110 28924 L-302559 28901 L-302166 28856 L-301768 28833 L-300918 28787 L-300840 28764 L-300261 28742 L-299819 28742 L-299579 28719 L-299421 28719 L-299021 28673 L-299000 28673 L-298555 28650 L-298150 28628 L-298014 28582 L-297839 28536 L-297702 28491 L-297452 28445 L-296452 28422 L-296370 28400 L-296234 28377 L-296196 28354 L-295306 28331 L-295090 28308 L-294647 28286 L-294530 28263 L-294473 28240 L-293797 28240 L-293696 28217 L-293667 28217 L-292326 28194 L-291920 28172 L-291880 28149 L-290952 28126 L-290854 28103 L-290721 28080 L-290317 28058 L-290290 28035 L-290198 28012 L-289981 27989 L-289570 27944 L-288416 27898 L-288125 27852 L-288096 27807 L-287488 27784 L-287238 27738 L-287218 27716 L-286289 27693 L-286238 27647 L-286115 27624 L-286098 27579 L-285942 27556 L-285766 27510 L-285630 27488 L-285573 27465 L-285465 27442 L-285380 27419 L-285147 27396 L-285072 27374 L-284764 27351 L-284646 27328 L-284476 27305 L-284385 27282 L-284282 27282 L-284259 27260 L-284182 27260 L-284084 27214 L-283717 27191 L-283612 27168 L-283109 27146 L-282657 27123 L-282619 27100 L-282595 27077 L-282554 27054 L-282425 27032 L-282325 27009 L-281883 26986 L-281601 26963 L-281008 26940 L-280878 26918 L-280604 26872 L-280451 26849 L-280298 26826 L-280213 26781 L-280135 26758 L-279949 26735 L-279898 26735 L-279871 26712 L-279791 26690 L-279768 26667 L-279485 26621 L-278881 26576 L-277885 26553 L-277588 26530 L-276854 26507 L-276609 26484 L-276519 26462 L-275942 26439 L-275244 26416 L-274491 26393 L-274173 26370 L-273790 26325 L-273713 26302 L-273078 26279 L-272893 26256 L-272805 26256 L-272676 26256 L-272363 26234 L-272313 26211 L-272171 26188 L-272150 26165 L-271182 26142 L-270637 26120 L-270158 26120 L-270097 26120 L-269774 26120 L-269752 26097 L-269690 26097 L-269480 26074 L-269403 26051 L-269348 26028 L-269326 26006 L-269286 25983 L-269271 25960 L-268514 25937 L-268497 25914 L-267698 25892 L-267545 25869 L-266640 25846 L-266134 25823 L-265904 25778 L-265863 25778 L-265748 25755 L-265571 25732 L-264817 25755 L-264682 25732 L-264518 25709 L-264200 25686 L-264024 25641 L-263002 25595 L-262979 25550 L-262727 25527 L-262514 25481 L-261880 25458 L-261643 25413 L-261610 25367 L-261432 25322 L-261352 25276 L-261262 25253 L-261197 25208 L-260757 25162 L-260734 25139 L-260193 25116 L-259937 25094 L-259442 25071 L-258565 25048 L-258528 25025 L-258475 25002 L-258434 24980 L-258317 24957 L-258041 24934 L-257833 24888 L-257636 24843 L-257613 24797 L-257563 24752 L-257524 24729 L-257446 24706 L-256848 24660 L-256788 24638 L-256685 24615 L-256530 24592 L-255898 24569 L-255218 24546 L-254915 24501 L-254568 24478 L-254371 24455 L-254322 24410 L-254002 24387 L-253374 24364 L-253228 24341 L-253191 24318 L-253133 24296 L-253057 24250 L-252816 24250 L-252727 24227 L-252633 24204 L-252339 24182 L-252205 24159 L-252145 24136 L-252108 24090 L-251836 24090 L-250830 24068 L-250654 24045 L-250604 24045 L-250311 24022 L-250119 23976 L-249785 23954 L-249279 23931 L-248717 23885 L-248702 23840 L-248685 23817 L-248585 23771 L-248470 23726 L-248431 23680 L-248393 23657 L-248328 23657 L-248300 23634 L-248161 23657 L-247868 23657 L-247818 23657 L-247713 23657 L-247448 23634 L-246983 23612 L-246839 23612 L-246784 23566 L-246727 23543 L-246536 23520 L-246171 23498 L-245956 23498 L-245762 23498 L-245704 23498 L-245645 23452 L-245491 23429 L-245221 23406 L-244792 23520 L-244776 23520 L-244699 23498 L-244635 23475 L-244505 23315 L-244482 23292 L-244198 23270 L-244150 23247 L-244096 23224 L-243633 23201 L-243594 23201 L-243554 23178 L-243363 23156 L-242883 23133 L-242396 23110 L-242379 23087 L-242341 23064 L-242085 23042 L-242008 22996 L-241778 22973 L-241762 22928 L-241467 22882 L-241025 22859 L-240578 22836 L-240073 22814 L-239920 22791 L-239633 22768 L-239593 22722 L-239262 22700 L-239040 22677 L-238523 22631 L-238447 22608 L-238199 22563 L-238005 22517 L-237945 22494 L-237169 22472 L-237095 22472 L-236864 22449 L-236847 22449 L-236785 22426 L-236590 22403 L-236126 22403 L-236102 22380 L-235973 22380 L-234672 22380 L-234655 22380 L-234578 22358 L-234485 22358 L-234267 22358 L-234115 22335 L-233937 22358 L-233883 22380 L-233596 22403 L-233556 22403 L-233186 22403 L-232746 22403 L-232563 22403 L-232242 22380 L-231947 22380 L-231501 22335 L-231429 22312 L-230967 22266 L-230529 22244 L-230347 22221 L-228893 22175 L-228761 22152 L-228304 22107 L-228078 22084 L-227691 22038 L-227175 21993 L-226221 21947 L-225427 21902 L-224752 21879 L-224327 21833 L-224015 21810 L-223785 21742 L-223102 21674 L-223089 21605 L-222879 21514 L-222857 21491 L-222683 21446 L-221733 21423 L-221465 21377 L-220649 21354 L-220339 21309 L-220301 21286 L-220244 21240 L-219627 21218 L-218989 21172 L-217363 21149 L-216689 21126 L-216047 21126 L-215970 21126 L-215913 21126 L-215878 21126 L-215849 21104 L-215738 21058 L-215720 21035 L-215697 21012 L-215544 20990 L-215490 20944 L-215412 20921 L-215293 20898 L-215195 20876 L-215078 20853 L-214808 20807 L-214538 20784 L-214521 20739 L-214321 20716 L-214174 20670 L-213948 20648 L-213813 20625 L-213505 20602 L-213445 20579 L-213092 20534 L-212743 20511 L-212642 20488 L-212578 20443 L-212518 20420 L-212133 20374 L-211752 20351 L-211648 20329 L-211388 20306 L-211117 20260 L-210958 20237 L-210925 20215 L-210863 20192 L-210722 20169 L-210538 20146 L-210494 20123 L-210205 20123 L-210189 20101 L-209956 20101 L-209895 20078 L-209857 20078 L-209277 20055 L-209143 20032 L-209120 19941 L-209102 19781 L-209084 19599 L-209068 19417 L-209044 19234 L-209028 19097 L-209006 18938 L-208990 18778 L-208967 18687 L-208950 18596 L-208928 18527 L-208911 18482 L-208863 18413 L-208790 18345 L-208756 18231 L-208732 18140 L-208696 18049 L-208655 17957 L-208618 17912 L-208602 17821 L-208578 17752 L-208541 17707 L-208524 17638 L-208501 17593 L-208483 17547 L-208465 17501 L-208449 17456 L-208419 17387 L-208393 17319 L-208348 17296 L-208331 17251 L-208289 17228 L-208241 17182 L-208171 17137 L-208155 17091 L-208139 17045 L-208077 17023 L-208038 17000 L-207999 16977 L-207833 16954 L-207768 16931 L-207752 16909 L-207708 16863 L-207649 16840 L-207436 16817 L-207403 16795 L-207361 16772 L-207283 16749 L-206745 16726 L-206667 16703 L-206563 16658 L-206474 16635 L-206298 16612 L-205947 16589 L-205791 16567 L-205354 16544 L-205197 16521 L-205067 16498 L-204363 16453 L-204162 16430 L-203202 16384 L-202719 16361 L-202620 16361 L-202528 16339 L-202283 16316 L-202210 16293 L-201767 16247 L-201671 16225 L-201656 16202 L-201640 16179 L-201615 16156 L-201149 16133 L-200932 16111 L-200792 16088 L-200498 16065 L-200410 16042 L-200368 16019 L-200339 15997 L-200166 15974 L-200107 15951 L-200031 15928 L-199950 15905 L-199881 15905 L-199571 15883 L-199486 15860 L-199273 15837 L-199237 15814 L-198554 15791 L-198455 15769 L-198250 15746 L-198204 15723 L-197925 15700 L-197863 15677 L-197846 15632 L-197768 15609 L-197460 15563 L-197436 15541 L-197382 15495 L-197359 15472 L-197236 15449 L-197101 15404 L-196856 15381 L-196731 15381 L-196084 15358 L-196068 15358 L-196043 15358 L-195863 15313 L-195787 15290 L-195695 15267 L-195267 15244 L-194851 15221 L-194458 15176 L-194380 15153 L-194361 15130 L-193997 15107 L-193761 15085 L-193533 15062 L-193220 15039 L-193142 15016 L-193061 14971 L-192883 14925 L-192867 14902 L-192602 14857 L-192522 14834 L-192292 14811 L-192066 14788 L-191750 14788 L-191575 14765 L-191214 14765 L-190822 14743 L-190753 14697 L-190689 14674 L-190548 14629 L-190497 14606 L-190395 14560 L-189893 14537 L-189696 14515 L-189449 14492 L-189264 14469 L-188964 14446 L-188888 14423 L-188722 14378 L-187838 14355 L-187809 14309 L-187686 14264 L-187107 14241 L-187029 14218 L-186316 14218 L-186004 14218 L-185791 14218 L-185774 14218 L-185388 14218 L-184863 14173 L-184417 14150 L-184087 14127 L-183934 14104 L-183608 14104 L-183430 14081 L-183348 14081 L-183142 14036 L-182967 14013 L-182038 13990 L-181148 13967 L-181109 13945 L-180881 13945 L-180502 13922 L-179715 13899 L-179480 13876 L-179404 13853 L-179047 13831 L-178475 13785 L-178208 13762 L-177822 13739 L-177718 13739 L-177548 13739 L-176930 13739 L-176718 13739 L-176411 13739 L-176358 13717 L-176230 13694 L-176177 13671 L-176057 13648 L-175721 13603 L-174762 13580 L-174631 13534 L-174429 13511 L-173798 13489 L-173486 13466 L-173073 13443 L-173045 13420 L-172900 13397 L-172480 13375 L-171147 13375 L-171100 13352 L-170972 13306 L-170955 13283 L-170377 13238 L-170171 13215 L-170142 13192 L-170101 13169 L-170043 13147 L-170006 13124 L-169928 13101 L-169785 13078 L-169330 13055 L-169212 13033 L-168927 13010 L-168554 12987 L-168458 12964 L-168131 12941 L-167777 12919 L-167607 12896 L-167559 12873 L-167450 12850 L-167361 12827 L-167333 12805 L-167257 12759 L-166954 12736 L-166920 12691 L-166848 12668 L-166480 12645 L-166145 12622 L-166064 12622 L-165844 12599 L-165673 12577 L-165645 12554 L-165148 12531 L-164599 12485 L-163718 12463 L-163620 12417 L-163543 12394 L-163268 12371 L-163021 12326 L-162947 12303 L-162885 12257 L-162767 12235 L-162724 12212 L-162614 12189 L-162537 12143 L-161837 12121 L-161591 12098 L-161551 12075 L-161395 12052 L-160796 12052 L-160569 12052 L-160477 12052 L-160002 12052 L-159404 12007 L-158885 11984 L-158864 11961 L-158718 11938 L-158398 11938 L-157856 11938 L-157624 11938 L-157454 11938 L-156968 11915 L-156740 11893 L-156655 11870 L-156309 11847 L-155983 11847 L-155460 11824 L-155132 11801 L-154532 11779 L-154334 11733 L-154282 11710 L-154242 11687 L-153961 11665 L-153276 11619 L-152966 11596 L-152941 11551 L-152750 11528 L-152527 11505 L-152441 11482 L-151777 11437 L-151753 11414 L-151531 11368 L-151201 11345 L-150849 11300 L-150645 11277 L-150412 11231 L-150154 11209 L-149964 11163 L-149917 11140 L-149690 11117 L-149656 11095 L-149499 11072 L-149285 11049 L-149112 11026 L-149020 11003 L-148743 10981 L-148499 10958 L-148184 10935 L-147758 10935 L-147720 10935 L-147237 10935 L-147004 10935 L-146792 10912 L-146566 10889 L-146016 10889 L-145769 10867 L-144935 10867 L-144879 10844 L-144857 10821 L-144699 10798 L-144238 10775 L-144197 10753 L-143857 10707 L-143724 10684 L-143501 10661 L-142929 10639 L-142457 10616 L-142262 10593 L-142070 10570 L-141880 10547 L-141778 10525 L-141410 10502 L-141364 10479 L-141282 10456 L-139989 10433 L-139941 10411 L-139672 10411 L-139527 10411 L-138976 10411 L-138859 10388 L-138778 10365 L-138418 10342 L-138195 10319 L-137914 10297 L-137584 10251 L-137076 10228 L-136964 10205 L-136885 10183 L-136721 10160 L-136426 10160 L-135958 10160 L-135761 10183 L-135711 10183 L-135061 10160 L-134939 10137 L-134485 10137 L-134449 10114 L-133981 10091 L-133870 10069 L-133854 10046 L-133638 10046 L-133457 10023 L-132925 10023 L-131896 10023 L-131696 10000 L-131238 9977 L-130290 9932 L-130191 9909 L-129837 9863 L-129776 9841 L-129762 9818 L-129726 9795 L-129357 9772 L-129237 9749 L-128995 9727 L-128831 9704 L-128644 9681 L-128523 9658 L-127453 9613 L-126594 9590 L-126382 9544 L-126285 9521 L-126111 9476 L-125777 9453 L-125706 9430 L-125648 9407 L-125473 9407 L-125084 9385 L-124848 9362 L-124737 9339 L-124620 9316 L-123639 9293 L-123614 9271 L-123020 9225 L-122987 9225 L-122838 9202 L-122554 9179 L-121642 9179 L-120696 9179 L-120543 9157 L-120441 9157 L-120309 9134 L-120166 9111 L-120140 9088 L-120025 9065 L-119807 9043 L-119126 9020 L-118996 8997 L-118693 8974 L-118453 8929 L-118120 8906 L-117482 8883 L-117139 8837 L-117077 8815 L-116922 8815 L-116000 8815 L-115530 8815 L-115486 8815 L-115473 8792 L-115432 8769 L-115410 8746 L-115383 8723 L-115239 8701 L-114817 8678 L-114481 8678 L-114290 8655 L-113862 8655 L-113674 8632 L-113285 8587 L-112751 8564 L-112378 8541 L-112356 8541 L-112107 8518 L-111988 8495 L-111912 8473 L-111777 8450 L-111737 8427 L-111657 8404 L-111263 8381 L-110767 8359 L-110655 8313 L-110482 8290 L-110174 8267 L-109726 8245 L-109403 8222 L-109261 8176 L-108834 8131 L-108681 8085 L-108625 8039 L-107812 8017 L-107792 7994 L-107420 7971 L-107363 7971 L-106234 7948 L-106166 7948 L-105608 7925 L-105413 7903 L-105277 7880 L-105043 7857 L-104696 7834 L-104662 7789 L-104627 7766 L-104558 7720 L-104209 7697 L-104037 7675 L-103552 7652 L-103536 7629 L-103211 7606 L-103053 7583 L-101913 7538 L-101888 7515 L-101696 7469 L-101502 7447 L-101252 7424 L-101235 7401 L-100215 7378 L-99917 7355 L-99842 7333 L-99706 7287 L-99530 7264 L-98953 7219 L-98738 7196 L-98674 7173 L-98543 7150 L-98506 7105 L-97983 7082 L-97845 16065 L-97831 16065 L-97808 16065 L-97788 16065 L-97560 7059 L-96785 7059 L-96743 7059 L-96375 7059 L-96297 7036 L-96245 7013 L-95572 6991 L-94829 6968 L-94405 6968 L-93957 6945 L-92895 6922 L-92583 6877 L-92173 6877 L-92101 6854 L-91577 6854 L-91482 6854 L-91465 6854 L-91020 6831 L-90834 6785 L-90054 6740 L-89382 6717 L-88970 6649 L-88738 6603 L-88597 6580 L-88516 6535 L-88496 6512 L-88420 6512 L-88291 6489 L-87974 6512 L-87750 6512 L-87425 6489 L-87363 6489 L-86993 6489 L-86960 6489 L-86751 6489 L-86084 6489 L-86006 6489 L-85848 6443 L-85738 6443 L-85411 6421 L-85256 6398 L-84915 6398 L-84858 6352 L-84520 6307 L-84316 6284 L-84263 6238 L-82887 6215 L-82757 6193 L-82324 6170 L-82003 6147 L-81176 6101 L-81052 6079 L-80322 6033 L-80166 5987 L-80125 5965 L-80071 5942 L-80048 5919 L-79934 5896 L-79638 5873 L-79348 5851 L-79293 5828 L-79173 5805 L-79143 5782 L-79043 5759 L-78599 5759 L-78447 5737 L-77612 5737 L-77070 5714 L-76735 5714 L-76720 5691 L-76644 5668 L-76528 5645 L-76333 5623 L-76069 5600 L-75234 5577 L-75138 5554 L-74617 5531 L-74575 5509 L-74475 5486 L-73647 5486 L-73512 5463 L-73174 5463 L-72619 5440 L-72240 5417 L-72077 5395 L-71767 5372 L-70954 5349 L-70648 5326 L-70380 5326 L-70058 5326 L-69737 5349 L-69462 5349 L-68633 5303 L-68538 5281 L-68446 5212 L-68341 5144 L-67954 5075 L-67474 5030 L-67458 5007 L-67339 4984 L-66971 4939 L-66876 4916 L-66042 4870 L-65965 4847 L-65666 4825 L-65575 4802 L-65168 4756 L-65058 4711 L-64358 4688 L-63885 4665 L-63825 4642 L-63606 4597 L-63333 4574 L-63220 4551 L-62192 4528 L-61806 4505 L-61786 4483 L-61453 4460 L-61208 4437 L-60775 4414 L-60665 4391 L-60547 4369 L-60096 4323 L-59505 4300 L-59169 4277 L-57276 4255 L-57162 4209 L-56950 4186 L-55632 4163 L-55525 -966 L-55460 -6027 L-55423 -10701 L-55362 -10701 L-54862 -5617 L-54187 -601 L-54165 4027 L-53895 3981 L-52926 3981 L-52237 3958 L-52075 3935 L-51534 3913 L-51445 3890 L-50425 3867 L-49478 3821 L-49112 3844 L-49009 3867 L-48421 3867 L-48362 3867 L-48261 3844 L-47821 3799 L-47713 3776 L-47272 3753 L-46272 3685 L-46016 3616 L-45913 3548 L-45782 3502 L-45416 3457 L-44835 3411 L-44804 3388 L-44489 3365 L-42506 3343 L-42390 3320 L-42322 3320 L-41964 3297 L-40345 3274 L-40167 3274 L-40023 3274 L-39201 3297 L-39148 3320 L-39093 3320 L-38659 3320 L-37679 3343 L-37605 3343 L-36520 3320 L-36307 3320 L-35591 3274 L-35203 3251 L-34984 3206 L-34664 3160 L-34170 3115 L-34043 3092 L-33814 3046 L-33582 3001 L-33522 2978 L-33233 2955 L-32961 2909 L-31931 2887 L-30266 2864 L-29847 2841 L-29709 2818 L-29553 2818 L-29248 2795 L-29020 2750 L-28861 2727 L-28702 2681 L-28533 2636 L-28485 2613 L-28432 2590 L-28410 2590 L-28024 2567 L-27775 2567 L-27504 2567 L-27343 2567 L-27254 2567 L-25595 2567 L-25430 2590 L-25050 2567 L-24590 2567 L-23980 2522 L-22887 2499 L-22456 2476 L-22425 2453 L-22362 2431 L-22345 2408 L-20641 2385 L-20599 2362 L-20133 2339 L-19946 2317 L-19914 2271 L-19318 2248 L-19269 2225 L-18946 2203 L-18895 2180 L-18685 2157 L-18667 2134 L-18401 2089 L-18348 2066 L-17879 2043 L-17368 1997 L-17290 1997 L-16996 1975 L-16979 1952 L-16941 1929 L-16870 1906 L-16712 1883 L-15766 1883 L-15710 1883 L-15189 1883 L-14996 1861 L-14895 1861 L-14670 1838 L-14160 1838 L-13772 2453 L-13702 2453 L-13354 2431 L-12997 2408 L-11868 1747 L-11816 1701 L-11590 1678 L-11557 1655 L-11432 1610 L-11333 1610 L-11068 1610 L-10328 1633 L-9749 1633 L-9456 1633 L-8750 1633 L-8571 1610 L-8548 1610 L-7912 1587 L-7601 1564 L-7204 1564 L-7175 1541 L-7154 1519 L-7000 1496 L-6315 1496 L-6298 1496 L-5959 1496 L-5686 1473 L-5649 1450 L-5593 1405 L-5571 1382 L-5499 1359 L-5167 1336 L-5061 1313 L-5032 1268 L-4834 1245 L-4681 1222 L-3813 1199 L-3250 1154 L-3234 1154 L-3133 1131 L-3031 1154 L-2884 1154 L-2806 1154 L-2768 1131 L-2713 1108 L-2640 1085 L-2495 1063 L-2013 1063 L-1608 1040 L-742 1063 L-722 1063 L-464 1063 L-388 1063 L-359 1040 L-348 994 L-331 971 L-38 949 L0 926 L72 903 L146 880 L351 857 L511 789 L812 721 L889 629 L907 561 L1123 515 L1354 515 L1464 538 L1834 561 L1992 561 L2224 561 L2392 561 L2537 538 L2669 515 L3945 470 L4348 424 L4409 401 L4526 356 L4951 333 L4967 287 L5029 265 L5302 219 L5414 196 L5697 151 L5974 128 L6399 82 L6421 59 L6500 37" />
</svg>
