<svg xmlns="http://www.w3.org/2000/svg" version="1.1" viewBox="0 0 6500 1000">
	<path fill="none" stroke="gold" stroke-width="125" stroke-linecap="round" stroke-linejoin="round" d="M0 3429  L-132228 3429 L-132043 3423 L-131553 3412 L-131260 3406 L-130948 3394 L-130714 3388 L-130661 3377 L-130601 3365 L-130448 3359 L-130408 3347 L-130275 3341 L-129983 3336 L-129442 3336 L-128832 3330 L-128784 3330 L-128144 3324 L-128110 3324 L-127585 3324 L-127452 3318 L-127062 3306 L-126734 3295 L-126617 3283 L-126405 3271 L-125688 3271 L-125118 3265 L-125011 3265 L-124837 3259 L-124615 3248 L-124214 3242 L-124188 3230 L-123260 3218 L-123173 3207 L-123090 3195 L-123020 3183 L-122723 3177 L-122571 3166 L-120681 3171 L-120580 3171 L-120318 3171 L-120024 3177 L-119883 3166 L-119634 3166 L-119598 3160 L-119440 3154 L-118976 3142 L-118723 3136 L-118511 3125 L-118260 3119 L-117911 3113 L-116984 3101 L-116890 3089 L-116479 3084 L-115308 3072 L-114119 3066 L-114027 3054 L-114000 3043 L-113734 3031 L-113435 3019 L-113306 3007 L-113268 2996 L-112454 2996 L-112070 3002 L-111009 3007 L-110948 3007 L-110683 3125 L-110212 3236 L-110019 3347 L-109756 3459 L-109419 3453 L-109283 3447 L-108828 3441 L-108084 3435 L-108067 3429 L-107902 3418 L-107833 3418 L-107317 3412 L-106289 3412 L-106092 3406 L-105604 3400 L-105242 3394 L-104833 3394 L-104448 3400 L-102744 3400 L-102646 3400 L-102574 3400 L-102513 3400 L-102329 3394 L-101992 3394 L-101352 3388 L-101275 3382 L-101213 3382 L-101027 3377 L-100947 3377 L-100770 3371 L-100751 3365 L-100521 3365 L-100133 3359 L-99244 3359 L-99205 3353 L-99117 3347 L-99089 3336 L-98081 3330 L-97932 3318 L-97907 3312 L-97774 3306 L-97735 3300 L-96476 3295 L-96419 3295 L-95879 3289 L-95826 3289 L-95780 3289 L-95385 3283 L-95245 3277 L-95045 3271 L-94898 3271 L-94734 3271 L-94457 3277 L-94098 3277 L-93546 3271 L-92901 3265 L-92642 3254 L-92489 3248 L-92088 3242 L-92047 3236 L-91927 3230 L-91865 3236 L-91851 3236 L-91757 3236 L-91464 3230 L-91313 3207 L-90982 3195 L-90905 3183 L-90829 3177 L-90602 3160 L-90536 3148 L-90308 3136 L-90255 3125 L-90091 3119 L-89085 3113 L-88902 3107 L-88351 3101 L-87958 3089 L-87560 3084 L-86710 3072 L-86632 3066 L-86053 3060 L-85611 3060 L-85370 3054 L-85213 3054 L-84812 3043 L-84792 3043 L-84347 3037 L-83942 3031 L-83806 3019 L-83630 3007 L-83494 2996 L-83244 2984 L-82244 2978 L-82162 2972 L-82026 2966 L-81988 2961 L-81098 2955 L-80882 2949 L-80439 2943 L-80322 2937 L-80265 2931 L-79589 2931 L-79488 2925 L-79459 2925 L-78118 2920 L-77712 2914 L-77672 2908 L-76744 2902 L-76646 2896 L-76513 2890 L-76109 2884 L-76082 2878 L-75989 2873 L-75773 2867 L-75362 2855 L-74208 2843 L-73917 2832 L-73888 2820 L-73280 2814 L-73030 2802 L-73010 2796 L-72081 2791 L-72030 2779 L-71907 2773 L-71890 2761 L-71734 2755 L-71558 2744 L-71422 2738 L-71365 2732 L-71257 2726 L-71172 2720 L-70939 2714 L-70864 2709 L-70556 2703 L-70438 2697 L-70268 2691 L-70177 2685 L-70074 2685 L-70051 2679 L-69974 2679 L-69876 2668 L-69509 2662 L-69404 2656 L-68901 2650 L-68449 2644 L-68411 2638 L-68387 2632 L-68346 2626 L-68217 2621 L-68117 2615 L-67675 2609 L-67393 2603 L-66800 2597 L-66670 2591 L-66396 2580 L-66243 2574 L-66090 2568 L-66005 2556 L-65927 2550 L-65741 2544 L-65690 2544 L-65663 2539 L-65583 2533 L-65560 2527 L-65277 2515 L-64673 2503 L-63677 2498 L-63379 2492 L-62646 2486 L-62401 2480 L-62311 2474 L-61734 2468 L-61036 2462 L-60283 2457 L-59965 2451 L-59582 2439 L-59505 2433 L-58870 2427 L-58685 2421 L-58597 2421 L-58468 2421 L-58155 2416 L-58105 2410 L-57963 2404 L-57942 2398 L-56974 2392 L-56429 2386 L-55950 2386 L-55889 2386 L-55566 2386 L-55544 2380 L-55482 2380 L-55272 2375 L-55195 2369 L-55140 2363 L-55118 2357 L-55078 2351 L-55063 2345 L-54306 2339 L-54289 2333 L-53490 2328 L-53337 2322 L-52432 2316 L-51926 2310 L-51696 2298 L-51655 2298 L-51540 2292 L-51363 2287 L-50609 2292 L-50474 2287 L-50310 2281 L-49992 2275 L-49816 2263 L-48794 2251 L-48771 2240 L-48519 2234 L-48306 2222 L-47672 2216 L-47435 2205 L-47402 2193 L-47224 2181 L-47144 2169 L-47054 2164 L-46989 2152 L-46549 2140 L-46526 2134 L-45985 2128 L-45729 2123 L-45234 2117 L-44357 2111 L-44320 2105 L-44267 2099 L-44226 2093 L-44109 2087 L-43833 2081 L-43625 2070 L-43428 2058 L-43405 2046 L-43355 2035 L-43316 2029 L-43238 2023 L-42640 2011 L-42580 2005 L-42477 1999 L-42322 1994 L-41690 1988 L-41010 1982 L-40707 1970 L-40360 1964 L-40163 1958 L-40114 1947 L-39794 1941 L-39166 1935 L-39020 1929 L-38983 1923 L-38925 1917 L-38849 1906 L-38608 1906 L-38519 1900 L-38425 1894 L-38131 1888 L-37997 1882 L-37937 1876 L-37900 1865 L-37628 1865 L-36622 1859 L-36446 1853 L-36396 1853 L-36103 1847 L-35911 1835 L-35577 1829 L-35071 1824 L-34509 1812 L-34494 1800 L-34477 1794 L-34377 1783 L-34262 1771 L-34223 1759 L-34185 1753 L-34120 1753 L-34092 1747 L-33953 1753 L-33660 1753 L-33610 1753 L-33505 1753 L-33240 1747 L-32775 1742 L-32631 1742 L-32576 1730 L-32519 1724 L-32328 1718 L-31963 1712 L-31748 1712 L-31554 1712 L-31496 1712 L-31437 1701 L-31283 1695 L-31013 1689 L-30584 1718 L-30568 1718 L-30491 1712 L-30427 1706 L-30297 1665 L-30274 1660 L-29990 1654 L-29942 1648 L-29888 1642 L-29425 1636 L-29386 1636 L-29346 1630 L-29155 1624 L-28675 1619 L-28188 1613 L-28171 1607 L-28133 1601 L-27877 1595 L-27800 1583 L-27570 1578 L-27554 1566 L-27259 1554 L-26817 1548 L-26370 1542 L-25865 1536 L-25712 1531 L-25425 1525 L-25385 1513 L-25054 1507 L-24832 1501 L-24315 1490 L-24239 1484 L-23991 1472 L-23797 1460 L-23737 1454 L-22960 1449 L-22887 1449 L-22656 1443 L-22639 1443 L-22577 1437 L-22382 1431 L-21918 1431 L-21894 1425 L-21765 1425 L-20464 1425 L-20447 1425 L-20370 1419 L-20277 1419 L-20059 1419 L-19907 1413 L-19729 1419 L-19675 1425 L-19388 1431 L-19348 1431 L-18978 1431 L-18538 1431 L-18355 1431 L-18034 1425 L-17739 1425 L-17293 1413 L-17221 1408 L-16759 1396 L-16321 1390 L-16139 1384 L-14685 1372 L-14553 1367 L-14096 1355 L-13870 1349 L-13483 1337 L-12967 1326 L-12013 1314 L-11219 1302 L-10544 1296 L-10119 1284 L-9807 1279 L-9577 1261 L-8894 1243 L-8881 1226 L-8671 1202 L-8649 1197 L-8475 1185 L-7525 1179 L-7257 1167 L-6441 1161 L-6131 1150 L-6093 1144 L-6036 1132 L-5419 1126 L-4781 1115 L-3155 1109 L-2481 1103 L-1839 1103 L-1762 1103 L-1705 1103 L-1670 1103 L-1641 1097 L-1529 1085 L-1512 1079 L-1489 1074 L-1335 1068 L-1282 1056 L-1204 1050 L-1085 1044 L-987 1038 L-870 1032 L-600 1021 L-330 1015 L-313 1003 L-113 997 L33 986 L260 980 L394 974 L702 968 L762 962 L1115 950 L1464 945 L1565 939 L1629 927 L1689 921 L2074 909 L2455 904 L2559 898 L2819 892 L3090 880 L3249 874 L3282 868 L3344 863 L3485 857 L3669 851 L3713 845 L4002 845 L4018 839 L4251 839 L4312 833 L4350 833 L4930 827 L5064 822 L5087 798 L5105 757 L5123 710 L5139 663 L5163 616 L5179 581 L5201 540 L5217 499 L5240 476 L5257 452 L5279 435 L5296 423 L5344 405 L5417 388 L5451 359 L5475 335 L5511 312 L5552 288 L5589 277 L5605 253 L5629 235 L5666 224 L5683 206 L5706 194 L5724 183 L5743 171 L5759 159 L5788 142 L5814 124 L5859 118 L5876 107 L5918 101 L5966 89 L6036 77 L6052 66 L6068 54 L6130 48 L6169 42 L6208 36 L6374 30 L6439 25 L6455 19 L6500 7" />
</svg>
