<svg xmlns="http://www.w3.org/2000/svg" version="1.1" viewBox="0 0 6500 1000">
	<path fill="none" stroke="gold" stroke-width="125" stroke-linecap="round" stroke-linejoin="round" d="M0 166790  L-926483 166790 L-926299 166727 L-925809 166601 L-925516 166538 L-925204 166412 L-924970 166349 L-924916 166224 L-924857 166098 L-924704 166035 L-924664 165909 L-924531 165846 L-924238 165783 L-923698 165783 L-923087 165720 L-923039 165720 L-922399 165657 L-922366 165657 L-921841 165657 L-921708 165594 L-921318 165468 L-920990 165342 L-920872 165217 L-920661 165091 L-919944 165091 L-919374 165028 L-919267 165028 L-919092 164965 L-918871 164839 L-918470 164776 L-918444 164650 L-917516 164524 L-917428 164398 L-917346 164273 L-917276 164147 L-916979 164084 L-916827 163958 L-914937 164021 L-914836 164021 L-914574 164021 L-914280 164084 L-914138 163958 L-913890 163958 L-913854 163895 L-913696 163832 L-913232 163706 L-912979 163643 L-912767 163517 L-912516 163455 L-912167 163392 L-911239 163266 L-911146 163140 L-910735 163077 L-909564 162951 L-908375 162888 L-908283 162762 L-908255 162636 L-907989 162511 L-907690 162385 L-907562 162259 L-907524 162133 L-906710 162133 L-906326 162196 L-905265 162259 L-905204 162259 L-904939 163517 L-904467 164713 L-904275 165909 L-904011 167105 L-903674 167042 L-903539 166979 L-903083 166916 L-902340 166853 L-902323 166790 L-902157 166664 L-902089 166664 L-901573 166601 L-900544 166601 L-900348 166538 L-899860 166475 L-899498 166412 L-899089 166412 L-898703 166475 L-897000 166475 L-896902 166475 L-896830 166475 L-896769 166475 L-896584 166412 L-896248 166412 L-895607 166349 L-895530 166286 L-895469 166286 L-895283 166224 L-895203 166224 L-895026 166161 L-895007 166098 L-894777 166098 L-894389 166035 L-893500 166035 L-893461 165972 L-893373 165909 L-893345 165783 L-892337 165720 L-892187 165594 L-892163 165531 L-892030 165468 L-891990 165405 L-890732 165342 L-890674 165342 L-890135 165280 L-890082 165280 L-890035 165280 L-889640 165217 L-889501 165154 L-889301 165091 L-889154 165091 L-888989 165091 L-888713 165154 L-888354 165154 L-887802 165091 L-887157 165028 L-886898 164902 L-886744 164839 L-886343 164776 L-886303 164713 L-886183 164650 L-886121 164713 L-886107 164713 L-886013 164713 L-885720 164650 L-885568 164398 L-885238 164273 L-885160 164147 L-885084 164084 L-884858 163895 L-884791 163769 L-884564 163643 L-884511 163517 L-884347 163455 L-883341 163392 L-883157 163329 L-882606 163266 L-882213 163140 L-881816 163077 L-880966 162951 L-880887 162888 L-880309 162825 L-879867 162825 L-879626 162762 L-879469 162762 L-879068 162636 L-879048 162636 L-878603 162573 L-878197 162511 L-878061 162385 L-877886 162259 L-877750 162133 L-877500 162007 L-876500 161944 L-876418 161881 L-876282 161818 L-876244 161755 L-875354 161692 L-875138 161629 L-874695 161567 L-874577 161504 L-874521 161441 L-873844 161441 L-873744 161378 L-873715 161378 L-872373 161315 L-871967 161252 L-871928 161189 L-871000 161126 L-870902 161063 L-870769 161000 L-870364 160937 L-870338 160874 L-870245 160811 L-870029 160748 L-869618 160623 L-868464 160497 L-868172 160371 L-868144 160245 L-867536 160182 L-867286 160056 L-867266 159993 L-866337 159930 L-866285 159804 L-866163 159741 L-866145 159616 L-865989 159553 L-865814 159427 L-865678 159364 L-865621 159301 L-865513 159238 L-865428 159175 L-865195 159112 L-865120 159049 L-864811 158986 L-864694 158923 L-864524 158860 L-864432 158797 L-864330 158797 L-864307 158735 L-864229 158735 L-864131 158609 L-863765 158546 L-863660 158483 L-863157 158420 L-862705 158357 L-862667 158294 L-862643 158231 L-862602 158168 L-862473 158105 L-862372 158042 L-861931 157979 L-861649 157916 L-861056 157853 L-860926 157791 L-860651 157665 L-860499 157602 L-860346 157539 L-860260 157413 L-860182 157350 L-859997 157287 L-859946 157287 L-859918 157224 L-859839 157161 L-859816 157098 L-859532 156972 L-858929 156847 L-857933 156784 L-857635 156721 L-856901 156658 L-856657 156595 L-856567 156532 L-855990 156469 L-855291 156406 L-854539 156343 L-854221 156280 L-853838 156154 L-853761 156091 L-853126 156028 L-852941 155966 L-852853 155966 L-852723 155966 L-852411 155903 L-852361 155840 L-852219 155777 L-852197 155714 L-851230 155651 L-850684 155588 L-850206 155588 L-850145 155588 L-849821 155588 L-849800 155525 L-849737 155525 L-849527 155462 L-849450 155399 L-849396 155336 L-849373 155273 L-849334 155210 L-849318 155147 L-848561 155084 L-848545 155022 L-847745 154959 L-847593 154896 L-846688 154833 L-846181 154770 L-845952 154644 L-845911 154644 L-845796 154581 L-845619 154518 L-844865 154581 L-844730 154518 L-844566 154455 L-844248 154392 L-844072 154266 L-843050 154140 L-843026 154015 L-842775 153952 L-842562 153826 L-841928 153763 L-841690 153637 L-841658 153511 L-841480 153385 L-841399 153259 L-841310 153196 L-841245 153071 L-840805 152945 L-840781 152882 L-840240 152819 L-839985 152756 L-839490 152693 L-838613 152630 L-838576 152567 L-838523 152504 L-838482 152441 L-838365 152378 L-838088 152315 L-837881 152190 L-837684 152064 L-837661 151938 L-837611 151812 L-837571 151749 L-837493 151686 L-836896 151560 L-836836 151497 L-836732 151434 L-836578 151371 L-835946 151308 L-835265 151246 L-834963 151120 L-834616 151057 L-834418 150994 L-834370 150868 L-834050 150805 L-833422 150742 L-833275 150679 L-833239 150616 L-833181 150553 L-833105 150427 L-832863 150427 L-832775 150365 L-832681 150302 L-832387 150239 L-832253 150176 L-832193 150113 L-832156 149987 L-831884 149987 L-830878 149924 L-830702 149861 L-830651 149861 L-830359 149798 L-830166 149672 L-829833 149609 L-829327 149546 L-828764 149421 L-828750 149295 L-828733 149232 L-828633 149106 L-828518 148980 L-828479 148854 L-828441 148791 L-828376 148791 L-828348 148728 L-828209 148791 L-827916 148791 L-827866 148791 L-827761 148791 L-827496 148728 L-827031 148665 L-826887 148665 L-826832 148539 L-826775 148477 L-826584 148414 L-826219 148351 L-826004 148351 L-825810 148351 L-825752 148351 L-825693 148225 L-825539 148162 L-825269 148099 L-824839 148414 L-824824 148414 L-824747 148351 L-824682 148288 L-824553 147847 L-824530 147784 L-824245 147721 L-824198 147658 L-824143 147595 L-823681 147533 L-823642 147533 L-823601 147470 L-823411 147407 L-822931 147344 L-822444 147281 L-822427 147218 L-822389 147155 L-822133 147092 L-822055 146966 L-821825 146903 L-821809 146777 L-821515 146651 L-821073 146589 L-820626 146526 L-820121 146463 L-819967 146400 L-819681 146337 L-819641 146211 L-819310 146148 L-819088 146085 L-818571 145959 L-818495 145896 L-818247 145770 L-818053 145645 L-817993 145582 L-817216 145519 L-817142 145519 L-816912 145456 L-816895 145456 L-816833 145393 L-816638 145330 L-816173 145330 L-816150 145267 L-816020 145267 L-814720 145267 L-814703 145267 L-814626 145204 L-814532 145204 L-814315 145204 L-814163 145141 L-813984 145204 L-813930 145267 L-813644 145330 L-813604 145330 L-813234 145330 L-812794 145330 L-812611 145330 L-812290 145267 L-811995 145267 L-811549 145141 L-811477 145078 L-811015 144952 L-810577 144889 L-810395 144826 L-808941 144701 L-808809 144638 L-808352 144512 L-808126 144449 L-807739 144323 L-807223 144197 L-806268 144071 L-805474 143945 L-804800 143882 L-804374 143757 L-804063 143694 L-803833 143505 L-803150 143316 L-803137 143127 L-802927 142876 L-802905 142813 L-802731 142687 L-801781 142624 L-801512 142498 L-800697 142435 L-800387 142309 L-800349 142246 L-800292 142120 L-799675 142057 L-799037 141932 L-797411 141869 L-796737 141806 L-796095 141806 L-796018 141806 L-795961 141806 L-795925 141806 L-795897 141743 L-795785 141617 L-795767 141554 L-795745 141491 L-795591 141428 L-795538 141302 L-795460 141239 L-795340 141176 L-795243 141113 L-795125 141050 L-794856 140925 L-794586 140862 L-794569 140736 L-794369 140673 L-794222 140547 L-793995 140484 L-793861 140421 L-793552 140358 L-793492 140295 L-793139 140169 L-792791 140106 L-792690 140044 L-792625 139918 L-792566 139855 L-792181 139729 L-791800 139666 L-791696 139603 L-791436 139540 L-791164 139414 L-791005 139351 L-790973 139288 L-790911 139225 L-790770 139162 L-790586 139100 L-790541 139037 L-790253 139037 L-790237 138974 L-790004 138974 L-789943 138911 L-789905 138911 L-789325 138848 L-789191 138785 L-789168 138533 L-789149 138093 L-789132 137589 L-789116 137086 L-789092 136582 L-789075 136205 L-789054 135764 L-789038 135324 L-789014 135072 L-788998 134820 L-788976 134631 L-788959 134505 L-788910 134317 L-788838 134128 L-788803 133813 L-788780 133561 L-788744 133310 L-788703 133058 L-788666 132932 L-788650 132680 L-788625 132492 L-788588 132366 L-788572 132177 L-788548 132051 L-788531 131925 L-788512 131799 L-788496 131674 L-788467 131485 L-788441 131296 L-788396 131233 L-788379 131107 L-788337 131044 L-788289 130918 L-788219 130792 L-788203 130667 L-788187 130541 L-788125 130478 L-788086 130415 L-788046 130352 L-787880 130289 L-787815 130226 L-787799 130163 L-787755 130037 L-787697 129974 L-787484 129911 L-787451 129848 L-787408 129786 L-787330 129723 L-786793 129660 L-786715 129597 L-786610 129471 L-786522 129408 L-786346 129345 L-785995 129282 L-785839 129219 L-785401 129156 L-785245 129093 L-785115 129030 L-784411 128904 L-784210 128842 L-783249 128716 L-782767 128653 L-782668 128653 L-782575 128590 L-782330 128527 L-782257 128464 L-781814 128338 L-781718 128275 L-781703 128212 L-781687 128149 L-781662 128086 L-781197 128023 L-780980 127960 L-780840 127898 L-780546 127835 L-780458 127772 L-780416 127709 L-780386 127646 L-780214 127583 L-780155 127520 L-780079 127457 L-779998 127394 L-779928 127394 L-779619 127331 L-779534 127268 L-779320 127205 L-779285 127142 L-778602 127079 L-778503 127016 L-778298 126954 L-778251 126891 L-777973 126828 L-777911 126765 L-777894 126639 L-777816 126576 L-777508 126450 L-777483 126387 L-777429 126261 L-777407 126198 L-777284 126135 L-777148 126010 L-776904 125947 L-776778 125947 L-776132 125884 L-776116 125884 L-776091 125884 L-775911 125758 L-775835 125695 L-775743 125632 L-775315 125569 L-774899 125506 L-774506 125380 L-774427 125317 L-774409 125254 L-774045 125191 L-773809 125129 L-773581 125066 L-773267 125003 L-773190 124940 L-773109 124814 L-772931 124688 L-772915 124625 L-772650 124499 L-772570 124436 L-772340 124373 L-772113 124310 L-771798 124310 L-771623 124247 L-771261 124247 L-770870 124185 L-770800 124059 L-770737 123996 L-770596 123870 L-770544 123807 L-770443 123681 L-769941 123618 L-769744 123555 L-769497 123492 L-769312 123429 L-769012 123366 L-768936 123303 L-768770 123178 L-767885 123115 L-767857 122989 L-767734 122863 L-767155 122800 L-767077 122737 L-766364 122737 L-766052 122737 L-765839 122737 L-765822 122737 L-765436 122737 L-764911 122611 L-764464 122548 L-764135 122485 L-763982 122422 L-763656 122422 L-763478 122359 L-763396 122359 L-763190 122234 L-763015 122171 L-762086 122108 L-761196 122045 L-761157 121982 L-760929 121982 L-760550 121919 L-759762 121856 L-759528 121793 L-759452 121730 L-759095 121667 L-758523 121541 L-758256 121478 L-757869 121415 L-757766 121415 L-757596 121415 L-756977 121415 L-756766 121415 L-756458 121415 L-756405 121353 L-756278 121290 L-756225 121227 L-756105 121164 L-755769 121038 L-754810 120975 L-754679 120849 L-754477 120786 L-753846 120723 L-753534 120660 L-753120 120597 L-753093 120534 L-752948 120471 L-752527 120409 L-751195 120409 L-751148 120346 L-751019 120220 L-751003 120157 L-750425 120031 L-750219 119968 L-750189 119905 L-750148 119842 L-750091 119779 L-750053 119716 L-749975 119653 L-749832 119590 L-749378 119528 L-749260 119465 L-748974 119402 L-748602 119339 L-748506 119276 L-748179 119213 L-747824 119150 L-747654 119087 L-747607 119024 L-747498 118961 L-747409 118898 L-747381 118835 L-747305 118709 L-747001 118646 L-746967 118521 L-746896 118458 L-746528 118395 L-746192 118332 L-746112 118332 L-745892 118269 L-745720 118206 L-745693 118143 L-745196 118080 L-744647 117954 L-743766 117891 L-743668 117765 L-743591 117702 L-743316 117640 L-743069 117514 L-742995 117451 L-742933 117325 L-742814 117262 L-742772 117199 L-742662 117136 L-742585 117010 L-741884 116947 L-741639 116884 L-741599 116821 L-741443 116758 L-740844 116758 L-740617 116758 L-740525 116758 L-740050 116758 L-739452 116633 L-738932 116570 L-738911 116507 L-738766 116444 L-738446 116444 L-737904 116444 L-737672 116444 L-737502 116444 L-737015 116381 L-736788 116318 L-736703 116255 L-736357 116192 L-736031 116192 L-735508 116129 L-735180 116066 L-734580 116003 L-734382 115877 L-734330 115814 L-734290 115752 L-734008 115689 L-733324 115563 L-733014 115500 L-732989 115374 L-732798 115311 L-732575 115248 L-732489 115185 L-731825 115059 L-731801 114996 L-731579 114870 L-731249 114808 L-730897 114682 L-730692 114619 L-730460 114493 L-730202 114430 L-730012 114304 L-729965 114241 L-729738 114178 L-729703 114115 L-729547 114052 L-729332 113989 L-729159 113926 L-729068 113864 L-728791 113801 L-728547 113738 L-728232 113675 L-727806 113675 L-727768 113675 L-727285 113675 L-727051 113675 L-726840 113612 L-726614 113549 L-726064 113549 L-725816 113486 L-724982 113486 L-724927 113423 L-724905 113360 L-724747 113297 L-724286 113234 L-724245 113171 L-723905 113045 L-723772 112983 L-723549 112920 L-722977 112857 L-722505 112794 L-722310 112731 L-722118 112668 L-721928 112605 L-721826 112542 L-721458 112479 L-721412 112416 L-721330 112353 L-720037 112290 L-719988 112227 L-719720 112227 L-719575 112227 L-719024 112227 L-718907 112164 L-718826 112101 L-718466 112039 L-718243 111976 L-717961 111913 L-717632 111787 L-717124 111724 L-717012 111661 L-716933 111598 L-716768 111535 L-716474 111535 L-716005 111535 L-715809 111598 L-715758 111598 L-715108 111535 L-714987 111472 L-714533 111472 L-714497 111409 L-714028 111346 L-713918 111283 L-713902 111220 L-713685 111220 L-713505 111157 L-712973 111157 L-711943 111157 L-711744 111095 L-711286 111032 L-710337 110906 L-710238 110843 L-709885 110717 L-709824 110654 L-709809 110591 L-709774 110528 L-709405 110465 L-709285 110402 L-709043 110339 L-708879 110276 L-708692 110213 L-708571 110151 L-707500 110025 L-706642 109962 L-706430 109836 L-706333 109773 L-706158 109647 L-705825 109584 L-705753 109521 L-705696 109458 L-705520 109458 L-705131 109395 L-704896 109332 L-704785 109269 L-704668 109207 L-703687 109144 L-703661 109081 L-703067 108955 L-703035 108955 L-702886 108892 L-702602 108829 L-701690 108829 L-700744 108829 L-700591 108766 L-700488 108766 L-700357 108703 L-700214 108640 L-700187 108577 L-700073 108514 L-699855 108451 L-699173 108388 L-699044 108325 L-698741 108263 L-698501 108137 L-698168 108074 L-697529 108011 L-697187 107885 L-697125 107822 L-696969 107822 L-696048 107822 L-695577 107822 L-695534 107822 L-695521 107759 L-695480 107696 L-695458 107633 L-695431 107570 L-695287 107507 L-694864 107444 L-694529 107444 L-694338 107382 L-693909 107382 L-693721 107319 L-693333 107193 L-692798 107130 L-692426 107067 L-692404 107067 L-692154 107004 L-692036 106941 L-691960 106878 L-691824 106815 L-691785 106752 L-691705 106689 L-691311 106626 L-690815 106563 L-690703 106438 L-690530 106375 L-690222 106312 L-689774 106249 L-689451 106186 L-689309 106060 L-688882 105934 L-688728 105808 L-688673 105682 L-687859 105619 L-687840 105556 L-687468 105494 L-687411 105494 L-686282 105431 L-686214 105431 L-685655 105368 L-685461 105305 L-685324 105242 L-685091 105179 L-684744 105116 L-684709 104990 L-684674 104927 L-684606 104801 L-684257 104738 L-684085 104675 L-683600 104612 L-683584 104550 L-683259 104487 L-683101 104424 L-681960 104298 L-681936 104235 L-681744 104109 L-681550 104046 L-681300 103983 L-681283 103920 L-680263 103857 L-679965 103794 L-679890 103731 L-679753 103606 L-679578 103543 L-679001 103417 L-678785 103354 L-678722 103291 L-678591 103228 L-678554 103102 L-678031 103039 L-677893 127835 L-677878 127835 L-677856 127835 L-677835 127835 L-677608 102976 L-676832 102976 L-676791 102976 L-676423 102976 L-676345 102913 L-676293 102850 L-675619 102787 L-674877 102724 L-674452 102724 L-674005 102662 L-672943 102599 L-672631 102473 L-672221 102473 L-672149 102410 L-671625 102410 L-671530 102410 L-671512 102410 L-671068 102347 L-670882 102221 L-670102 102095 L-669429 102032 L-669017 101843 L-668785 101718 L-668645 101655 L-668563 101529 L-668543 101466 L-668467 101466 L-668339 101403 L-668022 101466 L-667798 101466 L-667473 101403 L-667411 101403 L-667040 101403 L-667007 101403 L-666799 101403 L-666131 101403 L-666054 101403 L-665896 101277 L-665785 101277 L-665459 101214 L-665304 101151 L-664963 101151 L-664906 101025 L-664568 100899 L-664364 100837 L-664311 100711 L-662935 100648 L-662805 100585 L-662372 100522 L-662051 100459 L-661224 100333 L-661100 100270 L-660369 100144 L-660213 100018 L-660173 99955 L-660119 99893 L-660096 99830 L-659982 99767 L-659685 99704 L-659396 99641 L-659341 99578 L-659221 99515 L-659190 99452 L-659091 99389 L-658647 99389 L-658495 99326 L-657660 99326 L-657118 99263 L-656783 99263 L-656767 99200 L-656692 99137 L-656576 99074 L-656381 99011 L-656117 98949 L-655282 98886 L-655186 98823 L-654664 98760 L-654623 98697 L-654523 98634 L-653695 98634 L-653560 98571 L-653221 98571 L-652667 98508 L-652288 98445 L-652125 98382 L-651815 98319 L-651002 98256 L-650696 98193 L-650427 98193 L-650106 98193 L-649785 98256 L-649510 98256 L-648681 98130 L-648586 98067 L-648493 97879 L-648389 97690 L-648002 97501 L-647522 97375 L-647506 97312 L-647387 97249 L-647019 97123 L-646924 97061 L-646090 96935 L-646013 96872 L-645714 96809 L-645623 96746 L-645216 96620 L-645106 96494 L-644406 96431 L-643933 96368 L-643873 96305 L-643654 96179 L-643380 96117 L-643267 96054 L-642240 95991 L-641854 95928 L-641834 95865 L-641501 95802 L-641256 95739 L-640823 95676 L-640713 95613 L-640595 95550 L-640143 95424 L-639553 95361 L-639216 95298 L-637323 95235 L-637210 95110 L-636998 95047 L-635680 94984 L-635573 80824 L-635507 66853 L-635471 53952 L-635409 53952 L-634910 67986 L-634235 81831 L-634213 94606 L-633942 94480 L-632974 94480 L-632285 94417 L-632123 94354 L-631582 94292 L-631492 94229 L-630473 94166 L-629525 94040 L-629160 94103 L-629057 94166 L-628469 94166 L-628409 94166 L-628309 94103 L-627869 93977 L-627761 93914 L-627320 93851 L-626320 93662 L-626063 93473 L-625960 93285 L-625830 93159 L-625464 93033 L-624883 92907 L-624852 92844 L-624536 92781 L-622553 92718 L-622438 92655 L-622370 92655 L-622011 92592 L-620393 92529 L-620215 92529 L-620071 92529 L-619248 92592 L-619195 92655 L-619141 92655 L-618707 92655 L-617726 92718 L-617653 92718 L-616568 92655 L-616355 92655 L-615639 92529 L-615250 92466 L-615032 92341 L-614712 92215 L-614218 92089 L-614090 92026 L-613862 91900 L-613629 91774 L-613570 91711 L-613281 91648 L-613008 91522 L-611979 91460 L-610314 91397 L-609894 91334 L-609757 91271 L-609601 91271 L-609296 91208 L-609068 91082 L-608909 91019 L-608750 90893 L-608581 90767 L-608533 90704 L-608480 90641 L-608458 90641 L-608072 90578 L-607822 90578 L-607552 90578 L-607391 90578 L-607301 90578 L-605643 90578 L-605478 90641 L-605098 90578 L-604638 90578 L-604028 90453 L-602935 90390 L-602504 90327 L-602472 90264 L-602410 90201 L-602393 90138 L-600689 90075 L-600647 90012 L-600180 89949 L-599994 89886 L-599961 89760 L-599366 89697 L-599316 89634 L-598994 89572 L-598943 89509 L-598733 89446 L-598714 89383 L-598448 89257 L-598395 89194 L-597926 89131 L-597416 89005 L-597338 89005 L-597043 88942 L-597027 88879 L-596988 88816 L-596917 88753 L-596760 88691 L-595814 88691 L-595757 88691 L-595236 88691 L-595044 88628 L-594943 88628 L-594717 88565 L-594207 88565 L-593819 90264 L-593750 90264 L-593402 90201 L-593045 90138 L-591916 88313 L-591864 88187 L-591638 88124 L-591604 88061 L-591479 87935 L-591381 87935 L-591116 87935 L-590376 87998 L-589797 87998 L-589504 87998 L-588798 87998 L-588619 87935 L-588596 87935 L-587960 87872 L-587649 87809 L-587252 87809 L-587223 87747 L-587202 87684 L-587048 87621 L-586363 87621 L-586346 87621 L-586006 87621 L-585734 87558 L-585696 87495 L-585640 87369 L-585618 87306 L-585546 87243 L-585214 87180 L-585108 87117 L-585080 86991 L-584882 86928 L-584729 86865 L-583861 86803 L-583298 86677 L-583282 86677 L-583181 86614 L-583079 86677 L-582932 86677 L-582854 86677 L-582816 86614 L-582761 86551 L-582687 86488 L-582542 86425 L-582061 86425 L-581656 86362 L-580790 86425 L-580770 86425 L-580512 86425 L-580436 86425 L-580406 86362 L-580396 86236 L-580379 86173 L-580086 86110 L-580046 86047 L-579974 85984 L-579901 85921 L-579696 85859 L-579536 85670 L-579235 85481 L-579157 85229 L-579140 85040 L-578924 84915 L-578692 84915 L-578583 84977 L-578213 85040 L-578055 85040 L-577823 85040 L-577655 85040 L-577510 84977 L-577378 84915 L-576102 84789 L-575698 84663 L-575638 84600 L-575521 84474 L-575096 84411 L-575080 84285 L-575018 84222 L-574745 84096 L-574632 84033 L-574350 83908 L-574073 83845 L-573648 83719 L-573625 83656 L-573547 83593 L-573422 83530 L-572835 83467 L-572444 83404 L-572108 83341 L-571519 83278 L-571417 83278 L-571247 83215 L-571110 83215 L-570283 83152 L-569097 83089 L-569061 83027 L-569006 83027 L-568785 82964 L-568580 82964 L-568426 82964 L-568169 82901 L-568092 82838 L-567550 82775 L-567513 82712 L-567264 82649 L-566877 82586 L-566051 82523 L-565693 82460 L-565383 82460 L-565125 82397 L-564901 82334 L-564495 82271 L-564378 82208 L-564195 82146 L-564142 82146 L-563953 82083 L-563782 82020 L-563754 81957 L-563473 81894 L-563163 81831 L-563025 81768 L-562715 81705 L-562521 81705 L-562506 81642 L-561786 81642 L-561653 81516 L-561355 81453 L-561265 81390 L-560664 81390 L-560626 81327 L-560547 81264 L-559927 81202 L-559775 81076 L-559735 81013 L-559424 80950 L-559232 80887 L-559039 80761 L-558984 80635 L-558675 80572 L-558623 80509 L-558568 80572 L-558543 80572 L-558418 80572 L-557607 80509 L-557531 80446 L-556990 80383 L-556721 80320 L-556062 80258 L-555154 80195 L-554913 80132 L-554380 80069 L-554163 80006 L-553056 80069 L-553006 80069 L-552230 80069 L-551682 80006 L-551571 79943 L-551418 79817 L-551363 79754 L-551198 79691 L-550820 79628 L-550373 79565 L-550318 79502 L-550164 79439 L-549484 79376 L-549264 79314 L-548746 79251 L-547897 79125 L-547881 79062 L-546090 78999 L-545535 78936 L-545418 78873 L-544413 78810 L-544376 78747 L-544143 78747 L-544051 78747 L-544011 78747 L-543679 78684 L-543327 78621 L-543062 78495 L-542775 78432 L-542464 78307 L-542210 78181 L-542116 78118 L-541626 78055 L-541419 77992 L-540853 77929 L-540739 77992 L-540388 77929 L-540336 77929 L-540296 77929 L-539693 77803 L-538959 77677 L-538378 77551 L-538142 77426 L-537602 77237 L-537449 77111 L-536948 77048 L-536738 76922 L-536715 76922 L-536656 76859 L-535693 76859 L-535516 76796 L-535074 76733 L-535050 76607 L-534895 76544 L-534813 76544 L-534663 76607 L-534016 76607 L-533966 76544 L-532846 76482 L-531862 76419 L-531801 76356 L-531080 76293 L-530215 76230 L-529836 76167 L-529617 76167 L-528858 76104 L-528806 76041 L-528497 75915 L-527645 75915 L-527452 75852 L-527276 75789 L-527051 75789 L-526924 75726 L-526732 75726 L-526500 75663 L-526330 75726 L-526044 75663 L-525764 75663 L-525681 75601 L-525511 75538 L-525494 75412 L-525340 75349 L-525301 75286 L-524526 75223 L-524449 75223 L-524217 75097 L-523790 75034 L-523445 74971 L-522861 74908 L-522593 74908 L-522334 74908 L-522204 74782 L-522188 74719 L-522074 74657 L-522050 74594 L-521816 74531 L-521780 74468 L-520464 74468 L-520408 74405 L-519730 74279 L-519157 74279 L-519032 74279 L-518879 74279 L-518801 74279 L-518490 74153 L-518217 74090 L-518127 73964 L-518026 73964 L-517098 73901 L-517022 73901 L-516658 73901 L-516633 73838 L-516597 73775 L-515821 73650 L-515729 73587 L-515589 73524 L-515188 73461 L-514926 73461 L-514682 73524 L-514468 73461 L-514388 73461 L-514311 73461 L-514235 73461 L-514048 73524 L-513982 73524 L-513732 73524 L-513677 73461 L-513540 73398 L-513460 73272 L-513347 73209 L-513123 73146 L-512959 73083 L-512918 73020 L-512749 72957 L-512378 72894 L-512363 72831 L-512247 72769 L-511526 72706 L-511490 72643 L-511357 72643 L-511009 72580 L-510598 72580 L-510562 72580 L-510483 72517 L-510445 72454 L-510080 72391 L-509876 72328 L-509861 72265 L-509516 72202 L-509167 72202 L-508841 72202 L-508740 72139 L-508587 72139 L-508393 72076 L-508161 72076 L-508068 72076 L-507913 72076 L-507836 72076 L-507795 72013 L-507681 71950 L-507658 71887 L-507407 71887 L-507269 71762 L-506691 71573 L-505863 71447 L-505375 71321 L-505253 71258 L-505215 71195 L-505202 71132 L-505050 71006 L-504949 70881 L-504716 70818 L-504326 70692 L-504021 70629 L-504006 70566 L-503835 70503 L-503596 70377 L-503000 70377 L-502396 70314 L-502357 70314 L-502316 70314 L-502163 70251 L-502110 70188 L-502047 70125 L-501979 70062 L-501925 69937 L-501899 69874 L-501853 69811 L-501758 69685 L-501621 69622 L-501468 69559 L-501336 69496 L-501295 69496 L-501259 69433 L-501197 69370 L-500924 69244 L-500609 69181 L-500568 69056 L-500483 68993 L-500306 68930 L-500069 68867 L-499711 68804 L-499681 68741 L-499112 68678 L-498989 68615 L-498753 68552 L-498730 68552 L-498449 68489 L-498164 68489 L-497908 68489 L-497336 68426 L-497040 68363 L-496963 68300 L-496264 68237 L-496187 68174 L-496152 68112 L-496125 68049 L-496074 67923 L-495880 67860 L-495740 67734 L-495704 67671 L-495664 67608 L-495068 67545 L-494836 67482 L-494552 67923 L-494498 68300 L-494424 68741 L-494346 69118 L-494110 68993 L-493866 68930 L-493730 68867 L-493624 68804 L-493544 68741 L-493157 68615 L-493030 68552 L-492877 68489 L-492840 68426 L-492694 68363 L-492472 68300 L-492298 68237 L-492229 68174 L-491408 68049 L-491392 68049 L-491097 67986 L-490309 67923 L-490000 67923 L-489853 67860 L-489625 67797 L-489424 67671 L-488487 67608 L-488451 67545 L-488428 67482 L-488387 67356 L-488119 67293 L-487522 67230 L-487458 67168 L-487423 67105 L-487406 67042 L-486711 67042 L-486510 67042 L-486478 67042 L-486144 67042 L-486037 66979 L-485412 66853 L-484908 66790 L-484871 66664 L-484428 66664 L-484332 66601 L-484173 66601 L-483860 66601 L-483848 66601 L-483408 66664 L-482926 66727 L-482797 66727 L-482477 66727 L-482408 66664 L-482104 66664 L-481928 66601 L-481735 66538 L-481492 66412 L-481294 66286 L-481269 66161 L-480690 66098 L-480621 66035 L-480211 65972 L-480157 65909 L-480110 65846 L-479746 65783 L-479600 65720 L-479395 65657 L-479298 65657 L-479143 65594 L-479082 65531 L-478934 65405 L-478834 65342 L-478277 65342 L-478254 65468 L-478082 65531 L-477541 65594 L-477480 65594 L-477426 65468 L-477397 65342 L-477326 65280 L-477310 65154 L-477246 65091 L-477210 64965 L-477055 64902 L-476729 64839 L-476163 64776 L-476149 64713 L-476087 64587 L-475985 64461 L-475939 64461 L-475696 64398 L-475274 64398 L-475119 64398 L-473378 64273 L-472836 64210 L-471893 64147 L-471483 64084 L-470942 63958 L-470746 63895 L-470577 63832 L-470281 63769 L-470167 63706 L-470152 63706 L-469997 63643 L-469857 63580 L-469780 63455 L-469649 63455 L-469301 63455 L-468930 63517 L-468332 63517 L-468156 63517 L-468000 63455 L-467731 63392 L-467580 63392 L-467288 63580 L-467265 63706 L-467182 63832 L-466954 63958 L-466255 63895 L-466128 63832 L-465697 63769 L-465603 63706 L-464398 63706 L-464348 63643 L-464055 63643 L-463652 63580 L-463376 63455 L-463357 63392 L-463239 63329 L-463163 63266 L-462981 63203 L-462501 63140 L-462050 63014 L-461640 62951 L-461609 62888 L-461191 62825 L-461077 62825 L-460959 62825 L-460944 62825 L-460749 62762 L-460728 62636 L-460495 62573 L-460052 62511 L-459733 62385 L-459268 62385 L-459103 62322 L-458948 62259 L-458792 62259 L-458338 62259 L-458019 62259 L-457964 62322 L-457593 62322 L-457556 62385 L-457229 62385 L-457112 62322 L-457014 62259 L-456688 62133 L-456301 62070 L-456040 62007 L-455682 61881 L-455425 61818 L-453255 61755 L-453205 61692 L-453183 61629 L-452771 61629 L-452710 61629 L-452640 61692 L-452409 61692 L-452098 61629 L-451795 61504 L-451751 61441 L-451443 61378 L-451310 61315 L-451093 61252 L-450381 61189 L-450226 61189 L-450087 61126 L-449939 61126 L-449918 61126 L-449723 61063 L-449698 61000 L-449607 60937 L-449585 60874 L-449569 60811 L-449468 60748 L-448540 60685 L-448082 60685 L-446990 60560 L-446567 60560 L-446164 60497 L-446125 60434 L-445871 60371 L-445097 60245 L-445081 60182 L-445056 60119 L-444863 60056 L-444127 59993 L-443857 59930 L-443817 59867 L-443418 59741 L-443393 59679 L-442604 59616 L-441924 59553 L-440553 59490 L-440283 59427 L-440234 59364 L-439697 59238 L-439664 59175 L-439562 59049 L-439238 58986 L-439159 58923 L-438890 58923 L-437977 58860 L-437839 58860 L-437590 58735 L-437044 58735 L-436622 58672 L-436429 58609 L-436414 58609 L-436276 58483 L-436182 58420 L-436055 58357 L-435795 58294 L-435770 58168 L-435679 58105 L-435368 58042 L-435308 57979 L-435191 57979 L-434841 57979 L-434031 57979 L-433799 57853 L-432970 57853 L-432738 57728 L-432522 57665 L-432003 57665 L-431365 57602 L-430949 57539 L-430627 57476 L-430146 57413 L-429720 57413 L-429659 57350 L-429310 57350 L-429270 57287 L-429256 57224 L-429157 57098 L-429111 57098 L-428626 57035 L-427824 57035 L-427490 57035 L-426409 56972 L-425929 56910 L-425906 56847 L-425766 56784 L-425210 56721 L-424513 56658 L-424204 56595 L-423983 56532 L-423878 56469 L-423775 56343 L-423104 56280 L-423010 56217 L-422988 56217 L-422911 56154 L-422733 56154 L-422561 56154 L-422380 56091 L-422367 56028 L-422290 55966 L-422126 55903 L-421611 55840 L-421595 55777 L-421455 55777 L-421092 55714 L-421068 55714 L-420938 55651 L-420913 55588 L-420551 55525 L-420025 55399 L-419932 55336 L-419716 55210 L-419622 55147 L-419598 55084 L-419134 55022 L-419056 55022 L-418655 54959 L-418204 54959 L-416952 54896 L-416914 54833 L-416482 54770 L-416449 54707 L-415730 54644 L-415554 54581 L-415418 54518 L-415112 54455 L-415057 54392 L-415032 54266 L-415016 54140 L-414841 54078 L-414651 54015 L-414144 54015 L-413770 53511 L-413432 52945 L-413393 52441 L-412674 52001 L-412580 51938 L-412542 51875 L-412000 51875 L-411977 51812 L-411575 51749 L-411149 51686 L-410878 51686 L-410698 51623 L-410452 51497 L-410429 51434 L-410373 51308 L-409756 51246 L-409253 51183 L-408866 51183 L-408247 51246 L-408031 51246 L-407876 51308 L-406583 51183 L-406484 51120 L-406042 50994 L-405711 50931 L-405410 50805 L-405168 50742 L-404433 50616 L-403854 50553 L-403024 50490 L-402924 50427 L-402366 50365 L-402228 50302 L-400586 50239 L-400525 50239 L-400432 50239 L-399465 50239 L-399287 50176 L-399000 50176 L-398782 50176 L-398704 50113 L-398433 50113 L-398317 50050 L-398164 49987 L-397854 49924 L-397776 49861 L-397685 49861 L-397607 49798 L-397491 49798 L-397312 49735 L-397220 49672 L-397182 49609 L-396679 49609 L-396460 49546 L-396331 49546 L-396176 49483 L-396121 49421 L-395996 49421 L-395612 49358 L-395103 49295 L-395031 49232 L-394551 49169 L-394473 49106 L-394373 49106 L-394140 49043 L-393675 49043 L-393445 49043 L-393429 49043 L-393197 49043 L-393042 49043 L-392980 49043 L-392787 48980 L-392516 48854 L-391765 48791 L-390812 48791 L-390776 48728 L-390551 48728 L-390111 48728 L-389830 48602 L-389482 48539 L-388413 48477 L-387485 48477 L-387354 48477 L-387308 48477 L-387238 48414 L-387083 48414 L-387006 48288 L-386832 48162 L-386398 48036 L-386194 47973 L-386133 47847 L-385551 47784 L-385397 47658 L-385281 47595 L-385240 47533 L-385071 47470 L-384934 47407 L-384723 47281 L-384646 47218 L-384623 47155 L-384414 47029 L-384004 46966 L-383979 46903 L-383756 46840 L-383611 46777 L-383576 46714 L-383563 46651 L-383540 46589 L-383307 46526 L-383121 46463 L-382904 46400 L-382879 46337 L-382190 46274 L-382086 46211 L-382050 46148 L-382030 46085 L-381836 46022 L-381783 45959 L-381666 45833 L-381584 45833 L-381473 45770 L-381159 45707 L-380699 45645 L-380444 45582 L-380210 45456 L-380080 45393 L-379728 45330 L-379668 45267 L-379516 45204 L-378944 45078 L-378857 45015 L-378704 44889 L-378408 44764 L-378038 44638 L-377735 44512 L-377658 44449 L-377253 44386 L-377085 44386 L-376941 44386 L-376401 44386 L-376340 44386 L-376325 44260 L-376158 44197 L-375953 44134 L-375878 44134 L-375785 44071 L-375375 44008 L-375360 43945 L-375336 43945 L-375143 43882 L-375066 44449 L-374896 45015 L-374834 45519 L-374818 46085 L-374304 46022 L-374082 45959 L-373463 45833 L-373210 45770 L-373016 45707 L-372977 45645 L-372903 45645 L-372838 45645 L-372187 45645 L-372149 45707 L-371974 45707 L-371909 45707 L-371235 45707 L-370846 45582 L-370584 45519 L-370346 45456 L-370268 45330 L-370253 45204 L-370050 45141 L-369680 45015 L-369454 44952 L-368819 44889 L-368799 44889 L-368412 44826 L-368318 44826 L-368260 44764 L-367984 44701 L-367674 44701 L-367597 44638 L-366746 44701 L-366403 45015 L-365966 45393 L-365533 45707 L-365038 46022 L-364888 45959 L-364620 46022 L-363381 46085 L-363325 46211 L-361561 46274 L-361371 46211 L-360361 46148 L-360210 46085 L-359834 46211 L-359513 46337 L-358908 46463 L-358838 46589 L-358661 46526 L-357832 46463 L-357694 46400 L-357307 46337 L-357123 46274 L-357079 46211 L-356959 46148 L-356749 46085 L-356302 45959 L-355954 45896 L-355821 45833 L-355412 45770 L-355062 45770 L-354777 45707 L-354583 45645 L-354429 45645 L-354265 45582 L-354197 45519 L-354097 45519 L-353863 45456 L-353747 45456 L-353694 45393 L-353152 45393 L-352687 45330 L-351505 45330 L-351372 45330 L-351347 45330 L-351295 45330 L-350627 45330 L-349592 45204 L-349399 45141 L-349219 45078 L-349067 45078 L-349027 45015 L-349012 45015 L-348950 44952 L-348625 44889 L-347465 44826 L-347271 44764 L-347094 44701 L-345980 44638 L-345120 44575 L-345014 44575 L-344540 44512 L-344347 44512 L-342026 44449 L-341948 44386 L-341827 44260 L-341793 44197 L-341755 44071 L-341661 43882 L-341445 43757 L-340864 43631 L-340478 43568 L-339705 43505 L-339627 43442 L-338929 43442 L-338388 43442 L-338347 43379 L-338217 43379 L-337753 43316 L-337714 43253 L-337580 43190 L-337211 43127 L-337182 43064 L-337032 43064 L-336631 43001 L-334807 43064 L-334000 43001 L-333282 43001 L-333265 43001 L-332951 42876 L-332389 42813 L-331888 42750 L-331369 42687 L-331348 42624 L-329604 42561 L-329435 42498 L-329239 42435 L-328345 42372 L-327827 42246 L-327616 42183 L-327358 42120 L-326649 42057 L-325698 41994 L-325040 41932 L-325001 41806 L-324714 41743 L-324632 41680 L-324537 41680 L-324405 41617 L-324328 41617 L-323592 41617 L-323255 41554 L-323206 41617 L-322950 41617 L-322664 41554 L-322238 41554 L-321658 41491 L-321399 41491 L-321247 41428 L-321000 41428 L-320962 41428 L-320164 41365 L-320127 41302 L-319950 41302 L-319540 41176 L-319312 41176 L-319236 41176 L-319104 41176 L-318988 41113 L-318640 41050 L-318577 40988 L-318424 40925 L-317683 40862 L-317572 40799 L-317402 40736 L-317363 40673 L-317068 40673 L-316667 40673 L-316490 40673 L-316396 40673 L-316087 40610 L-315285 40547 L-314827 40421 L-314307 40358 L-313818 40295 L-313123 40232 L-312076 40169 L-311807 40169 L-311753 40106 L-311593 40106 L-311341 40106 L-311095 40044 L-311016 39981 L-310802 39855 L-310490 39792 L-310026 39666 L-310012 39603 L-309716 39603 L-309702 39540 L-308711 39477 L-308039 39414 L-307704 39288 L-307088 39288 L-306951 39225 L-306312 39162 L-306182 39100 L-305231 38974 L-305132 38848 L-304572 38785 L-304163 38785 L-303735 38785 L-303644 38722 L-302809 38722 L-302446 38722 L-302406 38785 L-302274 38848 L-302097 38848 L-301880 38848 L-301827 38785 L-301670 38659 L-301417 38596 L-300317 38533 L-300239 38470 L-300020 38407 L-299889 38281 L-299853 38219 L-299659 38156 L-299560 38093 L-299076 38030 L-298792 37967 L-298631 37904 L-298537 37778 L-298265 37715 L-297995 37652 L-297979 37400 L-297841 37212 L-297702 37023 L-297376 36771 L-297067 36645 L-297026 36582 L-296950 36456 L-296835 36393 L-295984 36268 L-295658 36205 L-295327 36142 L-295194 36142 L-294978 36142 L-294961 36142 L-294281 36142 L-294188 36016 L-294164 35953 L-294149 35827 L-294110 35764 L-293698 35638 L-293429 35575 L-293389 35512 L-293020 35512 L-292811 35449 L-291728 35449 L-291712 35387 L-291683 35324 L-291663 35324 L-291286 35198 L-291031 35135 L-290783 35009 L-290643 34883 L-290511 34820 L-290179 34757 L-290087 34694 L-290026 34631 L-289468 34568 L-289406 34505 L-289250 34443 L-289056 34380 L-288864 34317 L-288848 34254 L-288810 34191 L-288771 34128 L-288500 34065 L-288377 34002 L-288345 33939 L-288245 33939 L-288090 33939 L-287948 33939 L-287664 33876 L-287339 33876 L-286643 33813 L-286620 33813 L-286111 33813 L-285265 33813 L-284902 33750 L-284747 33687 L-284143 33687 L-283973 33687 L-283912 33687 L-283857 33624 L-282802 33561 L-282783 33561 L-281877 33561 L-281856 33561 L-281689 33499 L-281447 33499 L-281397 33436 L-281342 33310 L-281204 33247 L-281165 33184 L-280237 33121 L-280182 33121 L-280060 33121 L-279988 33121 L-279872 33121 L-279694 33184 L-278711 33121 L-278572 33121 L-278454 32995 L-278160 32869 L-277912 32806 L-277876 32743 L-277821 32806 L-277799 32806 L-277666 32806 L-277587 32806 L-277450 32743 L-276827 32743 L-276660 32680 L-276196 32680 L-276019 32555 L-276003 32492 L-275943 32429 L-275826 32366 L-275344 32303 L-274648 32240 L-274275 32177 L-274106 32114 L-273140 32051 L-272985 31988 L-272807 31988 L-272715 31925 L-272459 31925 L-272289 31925 L-271642 31862 L-271631 31862 L-271051 31799 L-270912 31799 L-270857 31674 L-270122 31611 L-270083 31548 L-270006 31548 L-269364 31485 L-268590 31485 L-268497 31422 L-268448 31422 L-268433 31359 L-268397 31359 L-268381 31233 L-268318 31170 L-268301 31107 L-268282 31107 L-268127 31044 L-268088 30981 L-268072 30918 L-268033 30855 L-267893 30792 L-267817 30730 L-267452 30667 L-267104 30604 L-266331 30541 L-265728 30478 L-265532 30415 L-265302 30415 L-265164 30352 L-264526 30352 L-264237 30289 L-264215 30289 L-263755 30226 L-263522 30226 L-263467 30163 L-263429 30100 L-262926 30037 L-262376 29974 L-261588 29911 L-260465 29911 L-259570 29848 L-259482 29848 L-259183 29786 L-259111 29723 L-258995 29660 L-257818 29597 L-257470 29534 L-257448 29471 L-256929 29408 L-256782 29345 L-256674 29282 L-256464 29219 L-256310 29156 L-256287 29093 L-256093 29030 L-256016 28967 L-255873 28904 L-255072 28842 L-254926 28779 L-254646 28716 L-254469 28653 L-254159 28590 L-253347 28527 L-252419 28527 L-250827 28464 L-250584 28401 L-249943 28338 L-249747 28275 L-249669 28212 L-249152 28149 L-248920 28149 L-248897 28086 L-248765 28086 L-248426 28023 L-248415 27960 L-248198 27898 L-248161 27835 L-247620 27772 L-247091 27646 L-247023 27583 L-246730 27520 L-246182 27394 L-246147 27331 L-246094 27268 L-245995 27142 L-245763 27142 L-245183 27142 L-245085 27205 L-245011 27205 L-244679 27142 L-243929 27079 L-243890 27016 L-243210 27016 L-243055 27016 L-242729 26954 L-242513 26891 L-242282 26891 L-241985 26828 L-241739 26765 L-241388 26702 L-241335 26639 L-240575 26576 L-239882 26450 L-239532 26324 L-239068 26261 L-238434 26198 L-238026 26135 L-237948 26198 L-237522 26198 L-236879 26135 L-236710 26135 L-235968 26073 L-235781 26010 L-235485 25947 L-234913 25884 L-234888 25821 L-233869 25821 L-233382 25758 L-233289 25758 L-233228 25695 L-232940 25632 L-232654 25569 L-232592 25506 L-232412 25506 L-231701 25443 L-231525 25380 L-231327 25317 L-231175 25254 L-231083 25191 L-231022 25129 L-230480 25129 L-230169 25066 L-230077 24940 L-230000 24814 L-229433 24751 L-229342 24751 L-229087 24625 L-228760 24499 L-228723 24310 L-228568 24122 L-228336 24059 L-228014 23996 L-226882 23933 L-226683 23870 L-226157 23807 L-225912 23807 L-225666 23744 L-225587 23681 L-225567 23555 L-225490 23492 L-225434 23366 L-225357 23303 L-225318 23241 L-225139 23115 L-225102 23052 L-224871 22989 L-223633 22926 L-223306 22863 L-223267 22737 L-222485 22674 L-222338 22611 L-221347 22548 L-221140 22548 L-220714 22548 L-220587 22548 L-220183 22611 L-220095 22548 L-219438 22485 L-218730 22422 L-218122 22359 L-217929 22297 L-217696 22171 L-217077 22108 L-216782 21982 L-216342 21919 L-216188 21856 L-216032 21793 L-215276 21667 L-214926 21604 L-214524 21604 L-214485 21541 L-213479 21541 L-213159 21541 L-212913 21478 L-212213 21353 L-212139 21290 L-211827 21227 L-210747 21164 L-210555 21101 L-210322 21101 L-210127 21038 L-209627 20975 L-208873 20975 L-208759 20975 L-208559 20975 L-208518 20912 L-208425 20849 L-208112 20786 L-208024 20723 L-207908 20660 L-207590 20660 L-207521 20597 L-207496 20534 L-207134 20471 L-207095 20409 L-206879 20346 L-206376 20409 L-205773 20471 L-205562 20597 L-205409 20660 L-205371 20660 L-205327 20534 L-205292 20471 L-205159 20409 L-204750 20346 L-204379 20283 L-204326 20220 L-204310 20157 L-204231 20094 L-203821 20031 L-203668 19968 L-203652 19842 L-203612 19779 L-203434 19653 L-203358 19590 L-203126 19528 L-202337 19465 L-202259 19465 L-201524 19339 L-201368 19276 L-201129 19150 L-201067 19024 L-200982 18961 L-200959 18835 L-200841 18709 L-200827 18584 L-200765 18458 L-200728 18395 L-200633 18332 L-200611 18332 L-200495 18269 L-200262 18206 L-200092 18080 L-199272 18080 L-198871 18017 L-198716 18017 L-198211 18017 L-198097 18017 L-197500 18017 L-197126 17954 L-197074 17954 L-196880 17891 L-196184 17891 L-196145 17828 L-196001 17828 L-195775 17765 L-195514 17702 L-195140 17640 L-194714 17577 L-194585 17514 L-194565 17388 L-194072 17388 L-193375 17325 L-193144 17388 L-192990 17388 L-192021 17388 L-191797 17451 L-191519 17451 L-191503 17388 L-190977 17325 L-190448 17262 L-190300 17199 L-190281 17136 L-189739 17073 L-189429 17010 L-189311 16884 L-189120 16758 L-188983 16633 L-188656 16570 L-188539 16507 L-188230 16507 L-187804 16444 L-187748 16444 L-187515 16507 L-187419 16507 L-187286 16507 L-186989 16507 L-186875 16444 L-186511 16381 L-186198 16381 L-185715 16318 L-185545 16255 L-185297 16192 L-185081 16129 L-184555 16066 L-184368 15940 L-184013 15877 L-183378 15814 L-183223 15689 L-182482 15626 L-182063 15563 L-181883 15500 L-181806 15500 L-181675 15437 L-181382 15374 L-181341 15311 L-181111 15311 L-180918 15248 L-180663 15248 L-180237 15185 L-180128 15122 L-179509 15122 L-179328 15122 L-178116 15122 L-177469 15185 L-177318 15185 L-177281 15185 L-177149 15185 L-177048 15122 L-177032 15059 L-176950 14996 L-176739 14933 L-176622 14870 L-176259 14808 L-175887 14745 L-175191 14682 L-174788 14619 L-174684 14556 L-174666 14493 L-173721 14430 L-173526 14304 L-173374 14241 L-173318 14115 L-172562 14115 L-172545 14241 L-172056 14304 L-171925 14430 L-171732 14430 L-170842 14367 L-170803 14304 L-170765 14241 L-170688 14178 L-170649 14178 L-170572 14115 L-170488 14052 L-170224 13989 L-169991 13926 L-169929 13864 L-169449 13801 L-169112 13801 L-169001 13738 L-168807 13675 L-168631 13612 L-168572 13612 L-168535 13549 L-168266 13486 L-167568 13360 L-167515 13234 L-167221 13108 L-166819 12983 L-166255 12920 L-165381 12857 L-165077 12794 L-165039 12731 L-164916 12668 L-164317 12605 L-164188 12542 L-163988 12479 L-163950 12416 L-163336 12353 L-163158 12290 L-163143 12164 L-162925 12101 L-162847 11976 L-162540 11976 L-162408 11913 L-162176 11913 L-161841 11913 L-161750 11850 L-161649 11787 L-161611 11724 L-161068 11724 L-160876 11661 L-160335 11598 L-159909 11535 L-159777 11535 L-159715 11535 L-159484 11535 L-159468 11535 L-158979 11598 L-158899 11598 L-158881 11598 L-157488 11661 L-157353 11661 L-157239 11598 L-156604 11535 L-156465 11472 L-156347 11409 L-156193 11283 L-156156 11220 L-156078 11157 L-156024 11220 L-155032 11220 L-154995 11157 L-154862 11157 L-154802 11032 L-154703 10969 L-154412 10906 L-154399 10843 L-154089 10843 L-153989 10906 L-153524 10843 L-153470 17514 L-153328 24122 L-153200 30792 L-152968 37463 L-152399 37400 L-152310 37337 L-152287 37337 L-152000 37275 L-151318 37212 L-151240 37149 L-151204 37086 L-151188 37023 L-150988 36960 L-150568 36834 L-150297 36834 L-149424 36771 L-149131 36771 L-149020 36771 L-148286 36708 L-148159 36645 L-147799 36582 L-147547 36582 L-146675 36519 L-146506 36519 L-146445 36456 L-146390 36393 L-146042 36331 L-146019 36268 L-145810 36205 L-145669 36142 L-145539 36079 L-145416 36016 L-145293 35953 L-145056 35890 L-144765 35827 L-144106 35764 L-144084 35701 L-143929 35638 L-143812 35575 L-142848 35512 L-142792 35449 L-142559 35387 L-142537 35324 L-142211 35261 L-142095 35261 L-142056 35198 L-141554 35198 L-141255 35135 L-141143 35072 L-140601 35009 L-139542 34946 L-138916 34883 L-138744 34820 L-138496 34757 L-138240 34694 L-138109 34631 L-138088 34568 L-137420 34505 L-136524 34443 L-136478 34380 L-136408 34317 L-136292 34317 L-136071 34254 L-135881 34254 L-135841 34191 L-135649 34128 L-134990 34128 L-134373 34065 L-134334 34443 L-133738 34820 L-133676 35135 L-132554 35449 L-132499 35449 L-132378 35387 L-132113 35324 L-132049 35324 L-131780 35324 L-131704 35261 L-131488 35261 L-131005 35198 L-130735 35135 L-130604 35135 L-130372 35009 L-130347 34820 L-130332 34568 L-130309 34254 L-130294 33939 L-130270 33624 L-130256 33247 L-130232 32869 L-130217 32492 L-130194 32177 L-130179 31862 L-130156 31548 L-130140 31359 L-130112 31170 L-130094 30918 L-130076 30792 L-130040 30604 L-130000 30478 L-129985 30352 L-129960 30163 L-129908 30037 L-129883 29911 L-129806 29786 L-129769 29723 L-129753 29597 L-129690 29471 L-129676 29345 L-129630 29156 L-129559 29030 L-129520 28967 L-129496 28842 L-129444 28716 L-129418 28653 L-129403 28590 L-129341 28527 L-129304 28464 L-129227 28401 L-129212 28338 L-129184 28212 L-129111 28149 L-129071 28086 L-128918 27960 L-128801 27898 L-128747 27835 L-128665 27772 L-128631 27709 L-128607 27646 L-128453 27583 L-128438 27520 L-128336 27457 L-128026 27394 L-127989 27331 L-127774 27268 L-127663 27268 L-127638 27268 L-127408 27331 L-127176 27331 L-126801 27268 L-126673 27205 L-126633 27142 L-126581 27079 L-126480 27016 L-126443 26954 L-126232 26954 L-126168 26891 L-126055 26891 L-125844 26828 L-125807 26765 L-125434 26702 L-125381 26639 L-125302 26576 L-125280 26513 L-125188 26450 L-124988 26387 L-124950 26387 L-124928 26387 L-124698 26387 L-124678 26324 L-124468 26324 L-124373 26261 L-124336 26198 L-123999 26135 L-123887 26073 L-123847 26010 L-123833 26010 L-123694 25947 L-123679 25947 L-123424 25947 L-122841 25884 L-122765 25821 L-122727 25758 L-122682 25695 L-122634 25632 L-122454 25569 L-122440 25506 L-122340 25443 L-122262 25380 L-122202 25317 L-121836 25191 L-121754 25129 L-121736 25066 L-121683 25003 L-120714 24940 L-120583 24877 L-120561 24814 L-120341 24751 L-120272 24688 L-120250 24625 L-120003 24562 L-119747 24499 L-119616 24436 L-119577 24373 L-119555 24247 L-119500 24122 L-119412 24059 L-119351 23933 L-119126 23870 L-118996 23807 L-118897 23744 L-118842 23681 L-118649 23618 L-118571 23555 L-118238 23492 L-118107 23429 L-117929 23366 L-117914 23303 L-117889 23241 L-117619 23241 L-116418 23178 L-116382 23178 L-116265 23115 L-116032 23052 L-115841 22989 L-115802 22989 L-115746 22926 L-115642 22926 L-115128 22863 L-114834 22800 L-114602 22737 L-114327 22674 L-114310 22611 L-114277 22548 L-114237 22485 L-114199 22422 L-114098 22359 L-114021 22297 L-113928 22234 L-113801 22171 L-113697 22108 L-113518 22108 L-113326 22045 L-112497 22045 L-112381 21982 L-112126 21919 L-112086 21856 L-111987 21793 L-111927 21793 L-111684 21730 L-111661 21730 L-111540 21667 L-111468 21604 L-111429 21541 L-111197 21478 L-111021 21415 L-110501 21353 L-110424 21290 L-110408 21227 L-109997 21227 L-109634 21227 L-109518 21164 L-109495 21164 L-109455 21101 L-109378 21038 L-109325 20975 L-108976 20912 L-108860 20849 L-108683 20849 L-108627 20786 L-108604 20786 L-108490 20723 L-108202 20660 L-107970 20597 L-107754 20534 L-107545 20471 L-107334 20346 L-106508 20283 L-106168 20220 L-105161 20157 L-104798 20094 L-103752 20031 L-103675 19968 L-103228 19905 L-103016 19842 L-102825 19779 L-102530 19716 L-102489 19653 L-102336 19590 L-102283 19465 L-102051 19402 L-101470 19339 L-101276 19276 L-100657 19276 L-100168 19213 L-100116 19150 L-99468 19087 L-99318 19024 L-99148 18961 L-98775 18898 L-98760 18898 L-98661 18835 L-98622 18835 L-98491 18772 L-98058 18772 L-97755 18772 L-97369 18772 L-97229 18709 L-97068 18709 L-96634 18709 L-96595 18646 L-96494 18646 L-96379 18584 L-96201 18584 L-96030 18521 L-95912 18458 L-95551 18332 L-95333 18269 L-95201 18206 L-95061 18206 L-94562 18206 L-94484 18206 L-94250 18143 L-93926 18143 L-93539 18080 L-93516 18017 L-92896 18017 L-92626 17954 L-92393 17954 L-91968 17891 L-91696 17828 L-91555 17765 L-91346 17702 L-91140 17640 L-90589 17577 L-90458 17577 L-90071 17514 L-89801 17514 L-89698 17451 L-89438 17388 L-89236 17325 L-89167 17262 L-89128 17199 L-88561 17136 L-88354 17073 L-88327 17010 L-88098 16947 L-88020 16884 L-87503 16821 L-87465 16758 L-87309 16696 L-87016 16633 L-86744 16570 L-86380 16507 L-86032 16507 L-85660 16444 L-85540 16444 L-85468 16381 L-84988 16318 L-84926 16255 L-84591 16192 L-84460 16129 L-84382 16066 L-84253 16003 L-83789 16003 L-83495 15940 L-83418 15940 L-83107 15877 L-82799 15814 L-82735 15752 L-82706 15689 L-81931 15626 L-81826 15500 L-81738 15437 L-81715 15374 L-81561 15311 L-81340 15248 L-81173 15185 L-80786 15122 L-80731 15059 L-80668 15059 L-80050 14996 L-79933 14933 L-79610 14870 L-79085 14808 L-78734 14745 L-78658 14682 L-78039 14619 L-77628 14556 L-77327 14493 L-77016 14430 L-76878 14367 L-76254 14367 L-75872 14304 L-74749 14304 L-73688 14241 L-73626 14178 L-73265 14115 L-73164 14115 L-73148 14052 L-72774 14052 L-71769 13926 L-71382 13864 L-71175 13738 L-71086 13675 L-70710 13612 L-70418 13549 L-70106 13486 L-69317 13423 L-69230 13360 L-69177 13297 L-69139 13234 L-68621 13171 L-68506 13108 L-68297 13045 L-68158 12983 L-67554 12920 L-66725 12857 L-66442 12794 L-66260 12794 L-65758 12731 L-65553 12731 L-64999 12731 L-64494 12668 L-64303 12605 L-64264 12542 L-63635 12479 L-63182 12416 L-62768 12353 L-62159 12290 L-61039 12290 L-60625 12227 L-60301 12227 L-60086 12164 L-59659 12101 L-59519 12039 L-59428 11976 L-59197 11913 L-58610 11913 L-57802 11850 L-56603 11850 L-56489 11850 L-56357 11787 L-56269 11724 L-56227 11787 L-56207 11850 L-56196 11976 L-56101 12101 L-55338 12101 L-54632 12101 L-54592 12039 L-54306 11976 L-53765 11913 L-53703 11850 L-53663 11787 L-53649 11724 L-53392 11661 L-53068 11598 L-52928 11535 L-52658 11472 L-52619 11409 L-52511 11346 L-52110 11283 L-52000 11220 L-51923 11157 L-51626 11095 L-51583 11032 L-51365 11032 L-51181 11032 L-51071 11032 L-51057 10969 L-51030 10969 L-50606 10906 L-50360 10843 L-50024 10780 L-49989 10717 L-49855 10654 L-49601 10654 L-49447 10591 L-48540 10591 L-48441 10528 L-48246 10402 L-47239 10339 L-46738 10276 L-46660 10213 L-46622 10151 L-46414 10088 L-46295 10025 L-46197 9962 L-46011 9899 L-45845 9836 L-45610 9773 L-45190 9710 L-45175 9647 L-44866 9584 L-43820 9521 L-43603 9458 L-43587 9395 L-43565 9332 L-43356 9269 L-43197 9207 L-43139 9144 L-41694 9081 L-41368 9081 L-41166 9081 L-40967 9081 L-40817 9081 L-40546 9018 L-40106 8955 L-39888 8955 L-39193 8892 L-38691 8829 L-38366 8766 L-38095 8766 L-37374 8703 L-37219 8703 L-36021 8577 L-35632 8514 L-35516 8388 L-35363 8325 L-35209 8263 L-34239 8200 L-34187 8137 L-33939 8074 L-33917 8011 L-33697 7948 L-33259 7822 L-33119 7696 L-33012 7570 L-32810 7507 L-32692 7444 L-32590 7382 L-32576 7382 L-32443 7319 L-32189 7256 L-31571 7193 L-30912 7130 L-30666 7130 L-30473 7067 L-29714 7067 L-29675 7067 L-29597 7004 L-29545 6878 L-29505 6815 L-29467 6752 L-29428 6689 L-29337 6626 L-29293 6563 L-29234 6438 L-29210 6375 L-29095 6312 L-28786 6186 L-28731 6123 L-28709 6060 L-28367 5997 L-28202 5934 L-28166 5808 L-28126 5745 L-28111 5682 L-27879 5619 L-27739 5556 L-27571 5494 L-27121 5494 L-26888 5494 L-26795 5494 L-26775 5556 L-26294 5494 L-26217 5494 L-26090 5431 L-25960 5305 L-25581 5242 L-25340 5116 L-25302 5053 L-25248 4990 L-25110 4864 L-25071 4801 L-25031 4738 L-24801 4675 L-24761 4612 L-24631 4550 L-24452 4487 L-24411 4424 L-24397 4361 L-24233 4298 L-24218 4235 L-24065 4172 L-24050 4109 L-24024 4046 L-23990 3983 L-23768 3857 L-23545 3857 L-23291 3794 L-23159 3857 L-22517 3857 L-21910 3794 L-20890 3794 L-20697 3731 L-20646 3668 L-20521 3606 L-20196 3543 L-19423 3480 L-19366 3417 L-19252 3354 L-18840 3291 L-18515 3228 L-18377 3165 L-18153 3102 L-17627 3039 L-17226 3039 L-17194 2976 L-16908 2976 L-16622 2913 L-16234 2850 L-16018 2787 L-15591 2662 L-15409 2599 L-15073 2536 L-14966 2473 L-14780 2473 L-14663 2410 L-14649 2410 L-13928 2347 L-13758 2284 L-13510 2221 L-13410 2158 L-12767 2095 L-12479 2032 L-12289 1969 L-12014 1906 L-11696 1843 L-11412 1780 L-11298 1655 L-11253 1592 L-11050 1529 L-9442 1466 L-9230 1403 L-8549 1340 L-8466 1277 L-8238 1214 L-8048 1214 L-7909 1151 L-7890 1151 L-7697 1151 L-7467 1151 L-7275 1151 L-6191 1088 L-5995 1088 L-5942 1088 L-5789 1088 L-5681 1088 L-5515 1088 L-5362 1025 L-5247 962 L-5123 837 L-4706 774 L-4449 648 L-4356 585 L-4163 585 L-4102 522 L-3776 522 L-3715 522 L-3658 459 L-3389 396 L-3041 333 L-2862 270 L-2668 207 L-2632 270 L-1919 270 L-1880 396 L-1570 459 L-1273 522 L-1223 585 L-967 648 L-697 711 L-641 711 L449 711 L479 648 L520 648 L696 648 L889 585 L1747 585 L2800 522 L2861 459 L3210 396 L4023 396 L4836 396 L4851 396 L5226 396 L5395 396 L5663 396 L5991 333 L6113 270 L6170 270 L6205 207 L6282 207 L6500 144" />
</svg>
