<svg xmlns="http://www.w3.org/2000/svg" version="1.1" viewBox="0 0 6500 1000">
	<path fill="none" stroke="gold" stroke-width="125" stroke-linecap="round" stroke-linejoin="round" d="M0 115165  L-570764 115165 L-570580 115106 L-570089 114987 L-569796 114928 L-569485 114809 L-569250 114749 L-569197 114630 L-569138 114511 L-568984 114452 L-568944 114333 L-568811 114273 L-568519 114214 L-567978 114214 L-567368 114154 L-567320 114154 L-566680 114095 L-566646 114095 L-566121 114095 L-565988 114035 L-565598 113916 L-565270 113797 L-565153 113678 L-564942 113559 L-564225 113559 L-563655 113500 L-563547 113500 L-563373 113440 L-563152 113321 L-562750 113262 L-562724 113143 L-561796 113024 L-561709 112905 L-561627 112786 L-561557 112667 L-561259 112607 L-561107 112488 L-559217 112548 L-559116 112548 L-558854 112548 L-558560 112607 L-558419 112488 L-558170 112488 L-558135 112429 L-557976 112370 L-557513 112251 L-557260 112191 L-557047 112072 L-556796 112013 L-556447 111953 L-555520 111834 L-555426 111715 L-555015 111656 L-553844 111537 L-552655 111477 L-552563 111358 L-552536 111239 L-552270 111120 L-551971 111001 L-551842 110882 L-551805 110763 L-550990 110763 L-550606 110823 L-549545 110882 L-549484 110882 L-549219 112072 L-548748 113202 L-548555 114333 L-548292 115463 L-547955 115403 L-547819 115344 L-547364 115284 L-546621 115225 L-546603 115165 L-546438 115046 L-546370 115046 L-545853 114987 L-544825 114987 L-544629 114928 L-544140 114868 L-543778 114809 L-543369 114809 L-542984 114868 L-541280 114868 L-541182 114868 L-541111 114868 L-541049 114868 L-540865 114809 L-540528 114809 L-539888 114749 L-539811 114690 L-539750 114690 L-539563 114630 L-539483 114630 L-539306 114571 L-539287 114511 L-539057 114511 L-538669 114452 L-537781 114452 L-537741 114392 L-537653 114333 L-537626 114214 L-536618 114154 L-536468 114035 L-536444 113976 L-536311 113916 L-536271 113857 L-535013 113797 L-534955 113797 L-534415 113738 L-534363 113738 L-534316 113738 L-533921 113678 L-533781 113619 L-533581 113559 L-533435 113559 L-533270 113559 L-532993 113619 L-532635 113619 L-532082 113559 L-531437 113500 L-531179 113381 L-531025 113321 L-530624 113262 L-530584 113202 L-530463 113143 L-530401 113202 L-530387 113202 L-530293 113202 L-530000 113143 L-529849 112905 L-529519 112786 L-529441 112667 L-529365 112607 L-529138 112429 L-529072 112310 L-528844 112191 L-528792 112072 L-528627 112013 L-527621 111953 L-527438 111894 L-526887 111834 L-526494 111715 L-526096 111656 L-525246 111537 L-525168 111477 L-524589 111418 L-524148 111418 L-523907 111358 L-523749 111358 L-523349 111239 L-523328 111239 L-522883 111180 L-522478 111120 L-522342 111001 L-522167 110882 L-522030 110763 L-521780 110644 L-520780 110585 L-520698 110525 L-520563 110466 L-520524 110406 L-519634 110347 L-519418 110287 L-518975 110228 L-518858 110168 L-518801 110109 L-518125 110109 L-518024 110049 L-517996 110049 L-516654 109990 L-516248 109930 L-516209 109871 L-515280 109812 L-515182 109752 L-515049 109693 L-514645 109633 L-514619 109574 L-514526 109514 L-514309 109455 L-513898 109336 L-512745 109217 L-512453 109098 L-512424 108979 L-511816 108919 L-511566 108800 L-511546 108741 L-510617 108681 L-510566 108562 L-510443 108503 L-510426 108384 L-510270 108324 L-510095 108205 L-509958 108146 L-509902 108086 L-509794 108027 L-509709 107967 L-509475 107908 L-509400 107848 L-509092 107789 L-508974 107729 L-508804 107670 L-508713 107610 L-508610 107610 L-508587 107551 L-508510 107551 L-508412 107432 L-508045 107372 L-507941 107313 L-507437 107254 L-506985 107194 L-506947 107135 L-506923 107075 L-506882 107016 L-506754 106956 L-506653 106897 L-506211 106837 L-505929 106778 L-505337 106718 L-505206 106659 L-504932 106540 L-504779 106480 L-504626 106421 L-504541 106302 L-504463 106242 L-504277 106183 L-504227 106183 L-504199 106123 L-504119 106064 L-504096 106004 L-503813 105885 L-503209 105766 L-502214 105707 L-501916 105647 L-501182 105588 L-500937 105528 L-500848 105469 L-500270 105409 L-499572 105350 L-498819 105290 L-498501 105231 L-498118 105112 L-498041 105052 L-497407 104993 L-497221 104933 L-497133 104933 L-497004 104933 L-496691 104874 L-496642 104814 L-496500 104755 L-496478 104696 L-495510 104636 L-494965 104577 L-494487 104577 L-494426 104577 L-494102 104577 L-494080 104517 L-494018 104517 L-493808 104458 L-493731 104398 L-493676 104339 L-493654 104279 L-493615 104220 L-493599 104160 L-492842 104101 L-492825 104041 L-492026 103982 L-491873 103922 L-490968 103863 L-490462 103803 L-490233 103684 L-490191 103684 L-490076 103625 L-489900 103565 L-489145 103625 L-489010 103565 L-488846 103506 L-488528 103446 L-488352 103327 L-487330 103208 L-487307 103089 L-487056 103030 L-486843 102911 L-486209 102851 L-485971 102732 L-485938 102613 L-485760 102494 L-485680 102375 L-485590 102316 L-485526 102197 L-485085 102078 L-485062 102019 L-484521 101959 L-484265 101900 L-483770 101840 L-482893 101781 L-482856 101721 L-482804 101662 L-482762 101602 L-482645 101543 L-482369 101483 L-482162 101364 L-481965 101245 L-481941 101126 L-481891 101007 L-481852 100948 L-481774 100888 L-481176 100769 L-481116 100710 L-481013 100650 L-480859 100591 L-480227 100531 L-479546 100472 L-479243 100353 L-478896 100293 L-478699 100234 L-478651 100115 L-478330 100055 L-477703 99996 L-477556 99936 L-477520 99877 L-477462 99817 L-477385 99698 L-477144 99698 L-477056 99639 L-476962 99580 L-476668 99520 L-476533 99461 L-476473 99401 L-476436 99282 L-476164 99282 L-475158 99223 L-474983 99163 L-474932 99163 L-474639 99104 L-474447 98985 L-474114 98925 L-473607 98866 L-473045 98747 L-473030 98628 L-473013 98568 L-472913 98449 L-472798 98330 L-472759 98211 L-472722 98152 L-472656 98152 L-472628 98092 L-472489 98152 L-472196 98152 L-472146 98152 L-472041 98152 L-471776 98092 L-471312 98033 L-471167 98033 L-471112 97914 L-471055 97854 L-470864 97795 L-470499 97735 L-470285 97735 L-470090 97735 L-470032 97735 L-469973 97616 L-469819 97557 L-469550 97497 L-469120 97795 L-469104 97795 L-469027 97735 L-468963 97676 L-468834 97259 L-468810 97200 L-468526 97140 L-468478 97081 L-468424 97022 L-467961 96962 L-467923 96962 L-467882 96903 L-467692 96843 L-467211 96784 L-466724 96724 L-466708 96665 L-466670 96605 L-466413 96546 L-466336 96427 L-466106 96367 L-466090 96248 L-465795 96129 L-465353 96070 L-464906 96010 L-464402 95951 L-464248 95891 L-463961 95832 L-463921 95713 L-463590 95653 L-463368 95594 L-462851 95475 L-462775 95415 L-462528 95296 L-462333 95177 L-462273 95118 L-461497 95058 L-461423 95058 L-461192 94999 L-461176 94999 L-461114 94939 L-460918 94880 L-460454 94880 L-460431 94820 L-460301 94820 L-459000 94820 L-458984 94820 L-458906 94761 L-458813 94761 L-458596 94761 L-458443 94701 L-458265 94761 L-458211 94820 L-457924 94880 L-457884 94880 L-457515 94880 L-457074 94880 L-456891 94880 L-456570 94820 L-456275 94820 L-455829 94701 L-455757 94642 L-455295 94523 L-454857 94464 L-454675 94404 L-453221 94285 L-453089 94226 L-452632 94107 L-452406 94047 L-452020 93928 L-451503 93809 L-450549 93690 L-449755 93571 L-449080 93512 L-448655 93393 L-448344 93333 L-448114 93155 L-447430 92976 L-447417 92798 L-447207 92560 L-447185 92500 L-447011 92381 L-446061 92322 L-445793 92203 L-444978 92143 L-444667 92024 L-444630 91965 L-444572 91846 L-443955 91787 L-443318 91668 L-441692 91608 L-441018 91549 L-440376 91549 L-440298 91549 L-440242 91549 L-440206 91549 L-440178 91489 L-440066 91370 L-440048 91311 L-440025 91251 L-439872 91192 L-439818 91073 L-439740 91013 L-439621 90954 L-439523 90894 L-439406 90835 L-439136 90716 L-438867 90656 L-438849 90537 L-438649 90478 L-438502 90359 L-438276 90299 L-438142 90240 L-437833 90180 L-437773 90121 L-437420 90002 L-437071 89942 L-436970 89883 L-436906 89764 L-436846 89704 L-436462 89585 L-436081 89526 L-435976 89466 L-435716 89407 L-435445 89288 L-435286 89229 L-435253 89169 L-435192 89110 L-435050 89050 L-434866 88991 L-434822 88931 L-434534 88931 L-434518 88872 L-434284 88872 L-434223 88812 L-434185 88812 L-433605 88753 L-433472 88693 L-433448 88455 L-433430 88039 L-433412 87563 L-433396 87087 L-433372 86611 L-433356 86254 L-433335 85838 L-433318 85421 L-433295 85183 L-433278 84945 L-433256 84767 L-433240 84648 L-433191 84469 L-433118 84291 L-433084 83994 L-433060 83756 L-433024 83518 L-432983 83280 L-432946 83161 L-432930 82923 L-432906 82744 L-432869 82625 L-432852 82447 L-432829 82328 L-432811 82209 L-432793 82090 L-432777 81971 L-432748 81792 L-432722 81614 L-432676 81555 L-432660 81436 L-432618 81376 L-432570 81257 L-432499 81138 L-432484 81019 L-432468 80900 L-432405 80841 L-432366 80781 L-432327 80722 L-432161 80662 L-432096 80603 L-432080 80543 L-432036 80424 L-431977 80365 L-431765 80305 L-431731 80246 L-431689 80186 L-431611 80127 L-431073 80067 L-430995 80008 L-430891 79889 L-430802 79829 L-430626 79770 L-430276 79710 L-430120 79651 L-429682 79591 L-429525 79532 L-429395 79472 L-428691 79353 L-428490 79294 L-427530 79175 L-427047 79116 L-426948 79116 L-426856 79056 L-426611 78997 L-426538 78937 L-426095 78818 L-425999 78759 L-425984 78699 L-425968 78640 L-425943 78580 L-425477 78521 L-425260 78461 L-425121 78402 L-424827 78342 L-424738 78283 L-424697 78223 L-424667 78164 L-424494 78104 L-424436 78045 L-424359 77985 L-424279 77926 L-424209 77926 L-423900 77866 L-423815 77807 L-423601 77747 L-423566 77688 L-422882 77628 L-422783 77569 L-422578 77509 L-422532 77450 L-422253 77390 L-422191 77331 L-422174 77212 L-422096 77152 L-421788 77033 L-421764 76974 L-421710 76855 L-421687 76795 L-421565 76736 L-421429 76617 L-421185 76558 L-421059 76558 L-420412 76498 L-420396 76498 L-420372 76498 L-420191 76379 L-420115 76320 L-420023 76260 L-419596 76201 L-419180 76141 L-418787 76022 L-418708 75963 L-418689 75903 L-418326 75844 L-418089 75784 L-417861 75725 L-417548 75665 L-417470 75606 L-417389 75487 L-417211 75368 L-417196 75308 L-416930 75189 L-416850 75130 L-416620 75070 L-416394 75011 L-416078 75011 L-415903 74951 L-415542 74951 L-415150 74892 L-415081 74773 L-415017 74713 L-414877 74594 L-414825 74535 L-414723 74416 L-414222 74356 L-414024 74297 L-413778 74237 L-413592 74178 L-413292 74118 L-413216 74059 L-413050 73940 L-412166 73881 L-412137 73762 L-412014 73643 L-411436 73583 L-411358 73524 L-410644 73524 L-410332 73524 L-410119 73524 L-410102 73524 L-409716 73524 L-409191 73405 L-408745 73345 L-408415 73286 L-408262 73226 L-407936 73226 L-407758 73167 L-407677 73167 L-407470 73048 L-407295 72988 L-406366 72929 L-405477 72869 L-405437 72810 L-405210 72810 L-404830 72750 L-404043 72691 L-403809 72631 L-403733 72572 L-403375 72512 L-402803 72393 L-402536 72334 L-402150 72274 L-402046 72274 L-401876 72274 L-401258 72274 L-401047 72274 L-400739 72274 L-400686 72215 L-400558 72155 L-400505 72096 L-400386 72036 L-400050 71917 L-399090 71858 L-398959 71739 L-398757 71679 L-398126 71620 L-397815 71560 L-397401 71501 L-397373 71441 L-397228 71382 L-396808 71323 L-395475 71323 L-395428 71263 L-395300 71144 L-395283 71085 L-394705 70966 L-394500 70906 L-394470 70847 L-394429 70787 L-394372 70728 L-394334 70668 L-394256 70609 L-394113 70549 L-393659 70490 L-393540 70430 L-393255 70371 L-392882 70311 L-392786 70252 L-392459 70192 L-392105 70133 L-391935 70073 L-391888 70014 L-391778 69954 L-391689 69895 L-391662 69835 L-391585 69716 L-391282 69657 L-391248 69538 L-391176 69478 L-390809 69419 L-390473 69359 L-390392 69359 L-390172 69300 L-390001 69240 L-389973 69181 L-389476 69121 L-388927 69002 L-388046 68943 L-387948 68824 L-387871 68765 L-387597 68705 L-387349 68586 L-387275 68527 L-387214 68408 L-387095 68348 L-387052 68289 L-386942 68229 L-386866 68110 L-386165 68051 L-385919 67991 L-385880 67932 L-385723 67872 L-385124 67872 L-384897 67872 L-384805 67872 L-384330 67872 L-383733 67753 L-383213 67694 L-383192 67634 L-383047 67575 L-382727 67575 L-382185 67575 L-381953 67575 L-381782 67575 L-381296 67515 L-381068 67456 L-380983 67396 L-380637 67337 L-380311 67337 L-379788 67277 L-379461 67218 L-378860 67158 L-378663 67039 L-378611 66980 L-378570 66920 L-378289 66861 L-377604 66742 L-377294 66682 L-377269 66563 L-377078 66504 L-376855 66444 L-376769 66385 L-376106 66266 L-376081 66207 L-375860 66088 L-375530 66028 L-375178 65909 L-374973 65850 L-374740 65731 L-374482 65671 L-374293 65552 L-374246 65493 L-374018 65433 L-373984 65374 L-373827 65314 L-373613 65255 L-373440 65195 L-373349 65136 L-373071 65076 L-372828 65017 L-372512 64957 L-372086 64957 L-372049 64957 L-371565 64957 L-371332 64957 L-371120 64898 L-370894 64838 L-370344 64838 L-370097 64779 L-369263 64779 L-369207 64719 L-369185 64660 L-369027 64600 L-368566 64541 L-368525 64481 L-368185 64362 L-368052 64303 L-367829 64243 L-367257 64184 L-366785 64124 L-366591 64065 L-366398 64005 L-366208 63946 L-366107 63886 L-365738 63827 L-365692 63767 L-365611 63708 L-364317 63649 L-364269 63589 L-364000 63589 L-363855 63589 L-363304 63589 L-363188 63530 L-363106 63470 L-362747 63411 L-362523 63351 L-362242 63292 L-361913 63173 L-361405 63113 L-361292 63054 L-361213 62994 L-361049 62935 L-360755 62935 L-360286 62935 L-360089 62994 L-360039 62994 L-359389 62935 L-359267 62875 L-358813 62875 L-358777 62816 L-358309 62756 L-358198 62697 L-358182 62637 L-357966 62637 L-357785 62578 L-357253 62578 L-356224 62578 L-356024 62518 L-355566 62459 L-354618 62340 L-354519 62280 L-354165 62161 L-354105 62102 L-354090 62042 L-354055 61983 L-353685 61923 L-353565 61864 L-353323 61804 L-353160 61745 L-352972 61685 L-352851 61626 L-351781 61507 L-350923 61447 L-350710 61328 L-350613 61269 L-350439 61150 L-350106 61091 L-350034 61031 L-349976 60972 L-349801 60972 L-349412 60912 L-349177 60853 L-349065 60793 L-348948 60734 L-347968 60674 L-347942 60615 L-347348 60496 L-347315 60496 L-347167 60436 L-346882 60377 L-345970 60377 L-345024 60377 L-344871 60317 L-344769 60317 L-344637 60258 L-344494 60198 L-344468 60139 L-344353 60079 L-344135 60020 L-343454 59960 L-343324 59901 L-343021 59841 L-342781 59722 L-342449 59663 L-341810 59603 L-341467 59484 L-341406 59425 L-341250 59425 L-340328 59425 L-339858 59425 L-339814 59425 L-339802 59365 L-339760 59306 L-339738 59246 L-339711 59187 L-339567 59127 L-339145 59068 L-338810 59068 L-338618 59008 L-338190 59008 L-338002 58949 L-337613 58830 L-337079 58770 L-336706 58711 L-336685 58711 L-336435 58651 L-336316 58592 L-336241 58533 L-336105 58473 L-336065 58414 L-335986 58354 L-335591 58295 L-335095 58235 L-334983 58116 L-334810 58057 L-334502 57997 L-334055 57938 L-333732 57878 L-333589 57759 L-333162 57640 L-333009 57521 L-332954 57402 L-332140 57343 L-332120 57283 L-331748 57224 L-331691 57224 L-330562 57164 L-330494 57164 L-329936 57105 L-329741 57045 L-329605 56986 L-329372 56926 L-329025 56867 L-328990 56748 L-328955 56688 L-328887 56569 L-328538 56510 L-328365 56450 L-327881 56391 L-327864 56331 L-327539 56272 L-327382 56212 L-326241 56093 L-326216 56034 L-326024 55915 L-325831 55856 L-325581 55796 L-325563 55737 L-324543 55677 L-324245 55618 L-324170 55558 L-324034 55439 L-323858 55380 L-323281 55261 L-323066 55201 L-323002 55142 L-322871 55082 L-322834 54963 L-322311 54904 L-322173 78342 L-322159 78342 L-322136 78342 L-322116 78342 L-321889 54844 L-321113 54844 L-321071 54844 L-320703 54844 L-320625 54785 L-320573 54725 L-319900 54666 L-319157 54606 L-318733 54606 L-318285 54547 L-317223 54487 L-316912 54368 L-316502 54368 L-316430 54309 L-315905 54309 L-315811 54309 L-315793 54309 L-315348 54249 L-315163 54130 L-314383 54011 L-313710 53952 L-313298 53773 L-313066 53654 L-312925 53595 L-312844 53476 L-312824 53417 L-312748 53417 L-312619 53357 L-312303 53417 L-312078 53417 L-311753 53357 L-311691 53357 L-311321 53357 L-311288 53357 L-311079 53357 L-310412 53357 L-310334 53357 L-310176 53238 L-310066 53238 L-309739 53179 L-309584 53119 L-309244 53119 L-309187 53000 L-308848 52881 L-308645 52822 L-308592 52703 L-307215 52643 L-307086 52584 L-306652 52524 L-306332 52465 L-305504 52346 L-305381 52286 L-304650 52167 L-304494 52048 L-304453 51989 L-304399 51929 L-304376 51870 L-304262 51810 L-303966 51751 L-303676 51691 L-303622 51632 L-303501 51572 L-303471 51513 L-303371 51453 L-302927 51453 L-302776 51394 L-301940 51394 L-301398 51334 L-301063 51334 L-301048 51275 L-300972 51215 L-300856 51156 L-300661 51096 L-300397 51037 L-299563 50977 L-299466 50918 L-298945 50859 L-298903 50799 L-298804 50740 L-297976 50740 L-297840 50680 L-297502 50680 L-296948 50621 L-296568 50561 L-296405 50502 L-296095 50442 L-295282 50383 L-294976 50323 L-294708 50323 L-294386 50323 L-294065 50383 L-293790 50383 L-292961 50264 L-292866 50204 L-292774 50026 L-292669 49847 L-292283 49669 L-291802 49550 L-291786 49490 L-291667 49431 L-291300 49312 L-291205 49252 L-290371 49133 L-290294 49074 L-289994 49014 L-289904 48955 L-289496 48836 L-289386 48717 L-288687 48657 L-288214 48598 L-288154 48538 L-287935 48419 L-287661 48360 L-287548 48301 L-286521 48241 L-286134 48182 L-286114 48122 L-285781 48063 L-285537 48003 L-285103 47944 L-284993 47884 L-284876 47825 L-284424 47706 L-283833 47646 L-283497 47587 L-281604 47527 L-281490 47408 L-281279 47349 L-279960 47289 L-279854 33904 L-279788 20698 L-279752 8503 L-279690 8503 L-279190 21769 L-278515 34856 L-278493 46932 L-278223 46813 L-277255 46813 L-276565 46754 L-276403 46694 L-275863 46635 L-275773 46575 L-274754 46516 L-273806 46397 L-273440 46456 L-273338 46516 L-272749 46516 L-272690 46516 L-272589 46456 L-272149 46337 L-272042 46278 L-271600 46218 L-270600 46040 L-270344 45861 L-270241 45683 L-270111 45564 L-269744 45445 L-269163 45326 L-269132 45267 L-268817 45207 L-266834 45148 L-266718 45088 L-266650 45088 L-266292 45029 L-264673 44969 L-264495 44969 L-264351 44969 L-263529 45029 L-263476 45088 L-263421 45088 L-262987 45088 L-262007 45148 L-261933 45148 L-260848 45088 L-260635 45088 L-259919 44969 L-259531 44910 L-259312 44791 L-258992 44672 L-258499 44553 L-258371 44493 L-258142 44374 L-257910 44255 L-257851 44196 L-257561 44136 L-257289 44017 L-256259 43958 L-254594 43898 L-254175 43839 L-254038 43779 L-253881 43779 L-253576 43720 L-253348 43601 L-253190 43541 L-253030 43422 L-252861 43303 L-252814 43244 L-252760 43185 L-252739 43185 L-252353 43125 L-252103 43125 L-251832 43125 L-251672 43125 L-251582 43125 L-249923 43125 L-249758 43185 L-249378 43125 L-248918 43125 L-248309 43006 L-247215 42947 L-246784 42887 L-246753 42828 L-246691 42768 L-246673 42709 L-244969 42649 L-244927 42590 L-244461 42530 L-244274 42471 L-244242 42352 L-243647 42292 L-243597 42233 L-243274 42173 L-243223 42114 L-243013 42054 L-242995 41995 L-242729 41876 L-242676 41816 L-242207 41757 L-241697 41638 L-241618 41638 L-241324 41578 L-241307 41519 L-241269 41459 L-241198 41400 L-241040 41340 L-240094 41340 L-240038 41340 L-239517 41340 L-239325 41281 L-239224 41281 L-238998 41221 L-238488 41221 L-238100 42828 L-238030 42828 L-237682 42768 L-237325 42709 L-236196 40983 L-236145 40864 L-235919 40805 L-235885 40745 L-235760 40627 L-235661 40627 L-235396 40627 L-234656 40686 L-234078 40686 L-233784 40686 L-233078 40686 L-232900 40627 L-232876 40627 L-232240 40567 L-231929 40508 L-231533 40508 L-231503 40448 L-231482 40389 L-231328 40329 L-230643 40329 L-230627 40329 L-230287 40329 L-230014 40270 L-229977 40210 L-229921 40091 L-229899 40032 L-229827 39972 L-229495 39913 L-229389 39853 L-229360 39734 L-229162 39675 L-229009 39615 L-228141 39556 L-227579 39437 L-227563 39437 L-227461 39377 L-227359 39437 L-227213 39437 L-227134 39437 L-227097 39377 L-227041 39318 L-226968 39258 L-226823 39199 L-226341 39199 L-225937 39139 L-225070 39199 L-225050 39199 L-224793 39199 L-224716 39199 L-224687 39139 L-224676 39020 L-224659 38961 L-224366 38901 L-224327 38842 L-224255 38782 L-224181 38723 L-223976 38663 L-223816 38485 L-223515 38306 L-223438 38069 L-223421 37890 L-223204 37771 L-222973 37771 L-222863 37831 L-222493 37890 L-222335 37890 L-222104 37890 L-221935 37890 L-221790 37831 L-221658 37771 L-220382 37652 L-219979 37533 L-219918 37474 L-219801 37355 L-219376 37295 L-219361 37176 L-219299 37117 L-219025 36998 L-218913 36938 L-218631 36819 L-218353 36760 L-217928 36641 L-217906 36581 L-217828 36522 L-217702 36462 L-217116 36403 L-216724 36343 L-216389 36284 L-215800 36224 L-215697 36224 L-215527 36165 L-215391 36165 L-214563 36105 L-213378 36046 L-213342 35986 L-213286 35986 L-213066 35927 L-212861 35927 L-212706 35927 L-212449 35867 L-212373 35808 L-211830 35748 L-211794 35689 L-211545 35629 L-211157 35570 L-210332 35511 L-209974 35451 L-209663 35451 L-209405 35392 L-209181 35332 L-208775 35273 L-208659 35213 L-208475 35154 L-208422 35154 L-208234 35094 L-208063 35035 L-208034 34975 L-207754 34916 L-207443 34856 L-207305 34797 L-206995 34737 L-206802 34737 L-206786 34678 L-206067 34678 L-205933 34559 L-205636 34499 L-205545 34440 L-204945 34440 L-204906 34380 L-204828 34321 L-204207 34261 L-204056 34142 L-204015 34083 L-203705 34023 L-203513 33964 L-203320 33845 L-203264 33726 L-202956 33666 L-202903 33607 L-202849 33666 L-202823 33666 L-202698 33666 L-201887 33607 L-201811 33547 L-201270 33488 L-201002 33428 L-200342 33369 L-199435 33309 L-199193 33250 L-198661 33190 L-198444 33131 L-197336 33190 L-197286 33190 L-196511 33190 L-195963 33131 L-195852 33071 L-195699 32953 L-195644 32893 L-195478 32834 L-195101 32774 L-194653 32715 L-194599 32655 L-194444 32596 L-193764 32536 L-193544 32477 L-193026 32417 L-192177 32298 L-192161 32239 L-190370 32179 L-189816 32120 L-189699 32060 L-188693 32001 L-188656 31941 L-188424 31941 L-188331 31941 L-188291 31941 L-187959 31882 L-187607 31822 L-187342 31703 L-187055 31644 L-186745 31525 L-186490 31406 L-186397 31346 L-185907 31287 L-185699 31227 L-185134 31168 L-185020 31227 L-184668 31168 L-184617 31168 L-184577 31168 L-183973 31049 L-183239 30930 L-182658 30811 L-182423 30692 L-181882 30513 L-181730 30395 L-181228 30335 L-181019 30216 L-180996 30216 L-180937 30157 L-179974 30157 L-179797 30097 L-179355 30038 L-179330 29919 L-179175 29859 L-179094 29859 L-178943 29919 L-178296 29919 L-178247 29859 L-177127 29800 L-176143 29740 L-176081 29681 L-175361 29621 L-174496 29562 L-174117 29502 L-173898 29502 L-173138 29443 L-173087 29383 L-172777 29264 L-171926 29264 L-171733 29205 L-171556 29145 L-171332 29145 L-171205 29086 L-171013 29086 L-170780 29026 L-170611 29086 L-170324 29026 L-170045 29026 L-169962 28967 L-169791 28907 L-169775 28788 L-169621 28729 L-169582 28669 L-168806 28610 L-168730 28610 L-168498 28491 L-168071 28431 L-167725 28372 L-167142 28312 L-166873 28312 L-166614 28312 L-166485 28193 L-166469 28134 L-166355 28074 L-166331 28015 L-166097 27955 L-166061 27896 L-164745 27896 L-164689 27837 L-164010 27718 L-163438 27718 L-163312 27718 L-163159 27718 L-163082 27718 L-162770 27599 L-162497 27539 L-162408 27420 L-162306 27420 L-161378 27361 L-161302 27361 L-160938 27361 L-160914 27301 L-160877 27242 L-160102 27123 L-160010 27063 L-159870 27004 L-159468 26944 L-159206 26944 L-158963 27004 L-158749 26944 L-158668 26944 L-158592 26944 L-158515 26944 L-158329 27004 L-158262 27004 L-158013 27004 L-157958 26944 L-157820 26885 L-157740 26766 L-157627 26706 L-157404 26647 L-157240 26587 L-157198 26528 L-157029 26468 L-156658 26409 L-156643 26349 L-156527 26290 L-155806 26230 L-155770 26171 L-155637 26171 L-155290 26111 L-154878 26111 L-154842 26111 L-154764 26052 L-154725 25992 L-154361 25933 L-154157 25873 L-154142 25814 L-153796 25754 L-153448 25754 L-153122 25754 L-153020 25695 L-152867 25695 L-152673 25635 L-152441 25635 L-152349 25635 L-152193 25635 L-152116 25635 L-152075 25576 L-151962 25516 L-151939 25457 L-151688 25457 L-151549 25338 L-150971 25160 L-150143 25041 L-149655 24922 L-149534 24862 L-149495 24803 L-149483 24743 L-149331 24624 L-149230 24505 L-148997 24446 L-148606 24327 L-148302 24267 L-148286 24208 L-148116 24148 L-147877 24029 L-147281 24029 L-146677 23970 L-146637 23970 L-146597 23970 L-146444 23910 L-146390 23851 L-146328 23791 L-146260 23732 L-146205 23613 L-146180 23553 L-146133 23494 L-146039 23375 L-145902 23315 L-145748 23256 L-145616 23196 L-145575 23196 L-145539 23137 L-145478 23077 L-145204 22958 L-144890 22899 L-144849 22780 L-144764 22720 L-144586 22661 L-144349 22602 L-143992 22542 L-143962 22483 L-143392 22423 L-143270 22364 L-143034 22304 L-143011 22304 L-142730 22245 L-142444 22245 L-142189 22245 L-141617 22185 L-141320 22126 L-141244 22066 L-140545 22007 L-140467 21947 L-140432 21888 L-140406 21828 L-140354 21709 L-140160 21650 L-140020 21531 L-139984 21471 L-139944 21412 L-139349 21352 L-139116 21293 L-138833 21709 L-138778 22066 L-138704 22483 L-138626 22839 L-138390 22720 L-138146 22661 L-138011 22602 L-137904 22542 L-137825 22483 L-137438 22364 L-137311 22304 L-137158 22245 L-137120 22185 L-136974 22126 L-136753 22066 L-136579 22007 L-136510 21947 L-135688 21828 L-135672 21828 L-135378 21769 L-134590 21709 L-134280 21709 L-134134 21650 L-133906 21590 L-133705 21471 L-132768 21412 L-132731 21352 L-132709 21293 L-132668 21174 L-132399 21114 L-131803 21055 L-131739 20995 L-131704 20936 L-131687 20876 L-130992 20876 L-130790 20876 L-130758 20876 L-130425 20876 L-130317 20817 L-129692 20698 L-129188 20638 L-129151 20519 L-128709 20519 L-128613 20460 L-128454 20460 L-128141 20460 L-128128 20460 L-127688 20519 L-127206 20579 L-127077 20579 L-126757 20579 L-126689 20519 L-126385 20519 L-126209 20460 L-126015 20400 L-125772 20281 L-125575 20162 L-125549 20044 L-124971 19984 L-124901 19925 L-124491 19865 L-124437 19806 L-124391 19746 L-124027 19687 L-123881 19627 L-123675 19568 L-123579 19568 L-123424 19508 L-123362 19449 L-123215 19330 L-123114 19270 L-122557 19270 L-122535 19389 L-122363 19449 L-121821 19508 L-121760 19508 L-121706 19389 L-121678 19270 L-121606 19211 L-121590 19092 L-121527 19032 L-121490 18913 L-121335 18854 L-121010 18794 L-120444 18735 L-120429 18675 L-120367 18556 L-120266 18437 L-120219 18437 L-119977 18378 L-119555 18378 L-119400 18378 L-117658 18259 L-117116 18199 L-116173 18140 L-115764 18080 L-115223 17961 L-115026 17902 L-114858 17842 L-114562 17783 L-114447 17723 L-114432 17723 L-114277 17664 L-114137 17604 L-114061 17486 L-113929 17486 L-113581 17486 L-113210 17545 L-112612 17545 L-112437 17545 L-112280 17486 L-112012 17426 L-111860 17426 L-111569 17604 L-111545 17723 L-111462 17842 L-111235 17961 L-110535 17902 L-110408 17842 L-109977 17783 L-109883 17723 L-108678 17723 L-108629 17664 L-108336 17664 L-107932 17604 L-107656 17486 L-107637 17426 L-107519 17367 L-107443 17307 L-107262 17248 L-106782 17188 L-106330 17069 L-105920 17010 L-105890 16950 L-105471 16891 L-105357 16891 L-105239 16891 L-105224 16891 L-105030 16831 L-105008 16712 L-104776 16653 L-104333 16593 L-104013 16474 L-103548 16474 L-103383 16415 L-103228 16355 L-103072 16355 L-102619 16355 L-102300 16355 L-102245 16415 L-101874 16415 L-101836 16474 L-101510 16474 L-101393 16415 L-101294 16355 L-100968 16236 L-100581 16177 L-100320 16117 L-99962 15998 L-99706 15939 L-97535 15879 L-97486 15820 L-97464 15760 L-97052 15760 L-96990 15760 L-96920 15820 L-96689 15820 L-96379 15760 L-96075 15641 L-96031 15582 L-95723 15522 L-95590 15463 L-95374 15403 L-94661 15344 L-94506 15344 L-94368 15284 L-94219 15284 L-94198 15284 L-94004 15225 L-93979 15165 L-93887 15106 L-93865 15046 L-93849 14987 L-93749 14928 L-92820 14868 L-92362 14868 L-91270 14749 L-90848 14749 L-90444 14690 L-90405 14630 L-90152 14571 L-89377 14452 L-89361 14392 L-89337 14333 L-89144 14273 L-88407 14214 L-88138 14154 L-88098 14095 L-87699 13976 L-87674 13916 L-86884 13857 L-86204 13797 L-84833 13738 L-84563 13678 L-84515 13619 L-83977 13500 L-83944 13440 L-83842 13321 L-83519 13262 L-83439 13202 L-83170 13202 L-82258 13143 L-82119 13143 L-81870 13024 L-81325 13024 L-80903 12964 L-80710 12905 L-80694 12905 L-80556 12786 L-80462 12726 L-80335 12667 L-80075 12607 L-80050 12488 L-79959 12429 L-79649 12370 L-79589 12310 L-79472 12310 L-79122 12310 L-78311 12310 L-78080 12191 L-77251 12191 L-77019 12072 L-76802 12013 L-76284 12013 L-75646 11953 L-75229 11894 L-74907 11834 L-74426 11775 L-74001 11775 L-73940 11715 L-73591 11715 L-73550 11656 L-73537 11596 L-73437 11477 L-73392 11477 L-72906 11418 L-72105 11418 L-71770 11418 L-70689 11358 L-70209 11299 L-70186 11239 L-70046 11180 L-69491 11120 L-68794 11061 L-68485 11001 L-68263 10942 L-68158 10882 L-68056 10763 L-67385 10704 L-67291 10644 L-67269 10644 L-67191 10585 L-67013 10585 L-66841 10585 L-66661 10525 L-66647 10466 L-66571 10406 L-66407 10347 L-65892 10287 L-65876 10228 L-65735 10228 L-65373 10168 L-65349 10168 L-65218 10109 L-65194 10049 L-64831 9990 L-64306 9871 L-64212 9812 L-63996 9693 L-63903 9633 L-63878 9574 L-63414 9514 L-63337 9514 L-62935 9455 L-62485 9455 L-61233 9395 L-61194 9336 L-60763 9276 L-60730 9217 L-60011 9157 L-59834 9098 L-59699 9038 L-59392 8979 L-59337 8919 L-59312 8800 L-59296 8681 L-59121 8622 L-58932 8562 L-58424 8562 L-58051 8086 L-57712 7551 L-57674 7075 L-56955 6659 L-56861 6599 L-56822 6540 L-56281 6540 L-56258 6480 L-55855 6421 L-55429 6361 L-55158 6361 L-54979 6302 L-54733 6183 L-54709 6123 L-54653 6004 L-54036 5945 L-53534 5885 L-53147 5885 L-52528 5945 L-52311 5945 L-52156 6004 L-50864 5885 L-50765 5826 L-50322 5707 L-49991 5647 L-49690 5528 L-49448 5469 L-48713 5350 L-48134 5290 L-47304 5231 L-47204 5171 L-46647 5112 L-46509 5052 L-44867 4993 L-44806 4993 L-44712 4993 L-43745 4993 L-43568 4933 L-43281 4933 L-43063 4933 L-42985 4874 L-42713 4874 L-42598 4814 L-42445 4755 L-42134 4696 L-42056 4636 L-41965 4636 L-41888 4577 L-41772 4577 L-41593 4517 L-41501 4458 L-41462 4398 L-40959 4398 L-40741 4339 L-40611 4339 L-40456 4279 L-40402 4220 L-40277 4220 L-39892 4160 L-39384 4101 L-39311 4041 L-38831 3982 L-38754 3922 L-38654 3922 L-38420 3863 L-37956 3863 L-37726 3863 L-37709 3863 L-37477 3863 L-37322 3863 L-37261 3863 L-37068 3803 L-36797 3684 L-36045 3625 L-35092 3625 L-35056 3565 L-34831 3565 L-34392 3565 L-34111 3446 L-33762 3387 L-32693 3327 L-31765 3327 L-31635 3327 L-31588 3327 L-31519 3268 L-31364 3268 L-31287 3149 L-31113 3030 L-30678 2911 L-30474 2851 L-30414 2732 L-29831 2673 L-29677 2554 L-29562 2494 L-29521 2435 L-29351 2375 L-29215 2316 L-29004 2197 L-28926 2138 L-28903 2078 L-28694 1959 L-28284 1900 L-28260 1840 L-28037 1781 L-27891 1721 L-27857 1662 L-27843 1602 L-27821 1543 L-27587 1483 L-27402 1424 L-27185 1364 L-27159 1305 L-26470 1245 L-26366 1186 L-26331 1126 L-26310 1067 L-26116 1007 L-26063 948 L-25946 829 L-25865 829 L-25754 769 L-25439 710 L-24980 650 L-24725 591 L-24490 472 L-24361 412 L-24008 353 L-23949 293 L-23796 234 L-23224 115 L-23137 55 L-22984 -63 L-22688 -182 L-22318 -301 L-22015 -419 L-21939 -479 L-21534 -538 L-21366 -538 L-21222 -538 L-20682 -538 L-20621 -538 L-20605 -657 L-20439 -717 L-20233 -776 L-20158 -776 L-20066 -836 L-19656 -895 L-19640 -955 L-19617 -955 L-19424 -1014 L-19347 -479 L-19176 55 L-19114 531 L-19099 1067 L-18584 1007 L-18363 948 L-17744 829 L-17490 769 L-17296 710 L-17257 650 L-17184 650 L-17118 650 L-16468 650 L-16429 710 L-16255 710 L-16189 710 L-15515 710 L-15126 591 L-14864 531 L-14627 472 L-14549 353 L-14533 234 L-14331 174 L-13960 55 L-13735 -3 L-13099 -63 L-13079 -63 L-12692 -122 L-12599 -122 L-12540 -182 L-12264 -241 L-11955 -241 L-11878 -301 L-11026 -241 L-10684 55 L-10247 412 L-9813 710 L-9318 1007 L-9169 948 L-8900 1007 L-7662 1067 L-7605 1186 L-5842 1245 L-5651 1186 L-4641 1126 L-4490 1067 L-4115 1186 L-3794 1305 L-3188 1424 L-3119 1543 L-2941 1483 L-2113 1424 L-1974 1364 L-1588 1305 L-1403 1245 L-1360 1186 L-1240 1126 L-1030 1067 L-582 948 L-234 888 L-102 829 L306 769 L656 769 L941 710 L1135 650 L1290 650 L1454 591 L1522 531 L1622 531 L1855 472 L1972 472 L2025 412 L2567 412 L3031 353 L4213 353 L4346 353 L4371 353 L4424 353 L5091 353 L6126 234 L6320 174 L6500 115" />
</svg>
