<svg xmlns="http://www.w3.org/2000/svg" version="1.1" viewBox="0 0 6500 1000">
	<path fill="none" stroke="gold" stroke-width="125" stroke-linecap="round" stroke-linejoin="round" d="M0 113204  L-1091976 113204 L-1091792 113166 L-1091301 113090 L-1091008 113053 L-1090696 112977 L-1090462 112939 L-1090409 112863 L-1090349 112787 L-1090196 112749 L-1090156 112674 L-1090023 112636 L-1089731 112598 L-1089190 112598 L-1088580 112560 L-1088532 112560 L-1087892 112522 L-1087858 112522 L-1087333 112522 L-1087200 112484 L-1086810 112408 L-1086482 112333 L-1086365 112257 L-1086153 112181 L-1085436 112181 L-1084867 112143 L-1084759 112143 L-1084585 112105 L-1084363 112029 L-1083962 111992 L-1083936 111916 L-1083008 111840 L-1082921 111764 L-1082838 111688 L-1082768 111613 L-1082471 111575 L-1082319 111499 L-1080429 111537 L-1080328 111537 L-1080066 111537 L-1079772 111575 L-1079631 111499 L-1079382 111499 L-1079346 111461 L-1079188 111423 L-1078725 111347 L-1078471 111309 L-1078259 111234 L-1078008 111196 L-1077659 111158 L-1076732 111082 L-1076638 111006 L-1076227 110968 L-1075056 110893 L-1073867 110855 L-1073775 110779 L-1073748 110703 L-1073482 110627 L-1073183 110552 L-1073054 110476 L-1073016 110400 L-1072202 110400 L-1071818 110438 L-1070757 110476 L-1070696 110476 L-1070431 111234 L-1069960 111954 L-1069767 112674 L-1069504 113394 L-1069167 113356 L-1069031 113318 L-1068576 113280 L-1067832 113242 L-1067815 113204 L-1067650 113128 L-1067582 113128 L-1067065 113090 L-1066037 113090 L-1065841 113053 L-1065352 113015 L-1064990 112977 L-1064581 112977 L-1064196 113015 L-1062492 113015 L-1062394 113015 L-1062322 113015 L-1062261 113015 L-1062077 112977 L-1061740 112977 L-1061100 112939 L-1061023 112901 L-1060961 112901 L-1060775 112863 L-1060695 112863 L-1060518 112825 L-1060499 112787 L-1060269 112787 L-1059881 112749 L-1058992 112749 L-1058953 112712 L-1058865 112674 L-1058838 112598 L-1057829 112560 L-1057680 112484 L-1057655 112446 L-1057523 112408 L-1057483 112370 L-1056224 112333 L-1056167 112333 L-1055627 112295 L-1055574 112295 L-1055528 112295 L-1055133 112257 L-1054993 112219 L-1054793 112181 L-1054647 112181 L-1054482 112181 L-1054205 112219 L-1053846 112219 L-1053294 112181 L-1052649 112143 L-1052390 112067 L-1052237 112029 L-1051836 111992 L-1051795 111954 L-1051675 111916 L-1051613 111954 L-1051599 111954 L-1051505 111954 L-1051212 111916 L-1051061 111764 L-1050730 111688 L-1050653 111613 L-1050577 111575 L-1050350 111461 L-1050284 111385 L-1050056 111309 L-1050004 111234 L-1049839 111196 L-1048833 111158 L-1048650 111120 L-1048099 111082 L-1047706 111006 L-1047308 110968 L-1046458 110893 L-1046380 110855 L-1045801 110817 L-1045360 110817 L-1045119 110779 L-1044961 110779 L-1044561 110703 L-1044540 110703 L-1044095 110665 L-1043690 110627 L-1043554 110552 L-1043379 110476 L-1043242 110400 L-1042992 110324 L-1041992 110286 L-1041910 110248 L-1041774 110211 L-1041736 110173 L-1040846 110135 L-1040630 110097 L-1040187 110059 L-1040070 110021 L-1040013 109983 L-1039337 109983 L-1039236 109945 L-1039207 109945 L-1037866 109907 L-1037460 109870 L-1037420 109832 L-1036492 109794 L-1036394 109756 L-1036261 109718 L-1035857 109680 L-1035831 109642 L-1035738 109604 L-1035521 109566 L-1035110 109491 L-1033956 109415 L-1033665 109339 L-1033636 109263 L-1033028 109225 L-1032778 109150 L-1032758 109112 L-1031829 109074 L-1031778 108998 L-1031655 108960 L-1031638 108884 L-1031482 108846 L-1031307 108771 L-1031170 108733 L-1031113 108695 L-1031006 108657 L-1030920 108619 L-1030687 108581 L-1030612 108543 L-1030304 108505 L-1030186 108467 L-1030016 108430 L-1029925 108392 L-1029822 108392 L-1029799 108354 L-1029722 108354 L-1029624 108278 L-1029257 108240 L-1029152 108202 L-1028649 108164 L-1028197 108126 L-1028159 108089 L-1028135 108051 L-1028094 108013 L-1027965 107975 L-1027865 107937 L-1027423 107899 L-1027141 107861 L-1026548 107823 L-1026418 107785 L-1026144 107710 L-1025991 107672 L-1025838 107634 L-1025753 107558 L-1025675 107520 L-1025489 107482 L-1025438 107482 L-1025411 107444 L-1025331 107406 L-1025308 107369 L-1025025 107293 L-1024421 107217 L-1023425 107179 L-1023128 107141 L-1022394 107103 L-1022149 107065 L-1022059 107028 L-1021482 106990 L-1020784 106952 L-1020031 106914 L-1019713 106876 L-1019330 106800 L-1019253 106762 L-1018618 106724 L-1018433 106687 L-1018345 106687 L-1018216 106687 L-1017903 106649 L-1017853 106611 L-1017711 106573 L-1017690 106535 L-1016722 106497 L-1016177 106459 L-1015698 106459 L-1015637 106459 L-1015314 106459 L-1015292 106421 L-1015230 106421 L-1015020 106383 L-1014943 106345 L-1014888 106308 L-1014866 106270 L-1014826 106232 L-1014811 106194 L-1014054 106156 L-1014037 106118 L-1013238 106080 L-1013085 106042 L-1012180 106004 L-1011674 105967 L-1011444 105891 L-1011403 105891 L-1011288 105853 L-1011111 105815 L-1010357 105853 L-1010222 105815 L-1010058 105777 L-1009740 105739 L-1009564 105663 L-1008542 105588 L-1008519 105512 L-1008267 105474 L-1008054 105398 L-1007420 105360 L-1007183 105284 L-1007150 105209 L-1006972 105133 L-1006892 105057 L-1006802 105019 L-1006737 104943 L-1006297 104868 L-1006274 104830 L-1005733 104792 L-1005477 104754 L-1004982 104716 L-1004105 104678 L-1004068 104640 L-1004015 104602 L-1003974 104564 L-1003857 104527 L-1003581 104489 L-1003373 104413 L-1003176 104337 L-1003153 104261 L-1003103 104186 L-1003064 104148 L-1002986 104110 L-1002388 104034 L-1002328 103996 L-1002225 103958 L-1002070 103920 L-1001438 103882 L-1000758 103845 L-1000455 103769 L-1000108 103731 L-999911 103693 L-999863 103617 L-999542 103579 L-998914 103541 L-998768 103503 L-998731 103466 L-998674 103428 L-998597 103352 L-998356 103352 L-998267 103314 L-998173 103276 L-997880 103238 L-997745 103200 L-997685 103162 L-997648 103087 L-997376 103087 L-996370 103049 L-996194 103011 L-996144 103011 L-995851 102973 L-995659 102897 L-995325 102859 L-994819 102821 L-994257 102746 L-994242 102670 L-994225 102632 L-994125 102556 L-994010 102480 L-993971 102405 L-993933 102367 L-993868 102367 L-993840 102329 L-993701 102367 L-993408 102367 L-993358 102367 L-993253 102367 L-992988 102329 L-992523 102291 L-992379 102291 L-992324 102215 L-992267 102177 L-992076 102139 L-991711 102101 L-991496 102101 L-991302 102101 L-991244 102101 L-991185 102026 L-991031 101988 L-990761 101950 L-990332 102139 L-990316 102139 L-990239 102101 L-990175 102064 L-990045 101798 L-990022 101760 L-989738 101723 L-989690 101685 L-989636 101647 L-989173 101609 L-989134 101609 L-989094 101571 L-988903 101533 L-988423 101495 L-987936 101457 L-987919 101419 L-987881 101381 L-987625 101344 L-987548 101268 L-987318 101230 L-987302 101154 L-987007 101078 L-986565 101040 L-986118 101003 L-985614 100965 L-985460 100927 L-985173 100889 L-985133 100813 L-984802 100775 L-984580 100737 L-984063 100661 L-983987 100624 L-983739 100548 L-983545 100472 L-983485 100434 L-982709 100396 L-982635 100396 L-982404 100358 L-982387 100358 L-982326 100320 L-982130 100283 L-981666 100283 L-981642 100245 L-981513 100245 L-980212 100245 L-980195 100245 L-980118 100207 L-980025 100207 L-979807 100207 L-979655 100169 L-979477 100207 L-979423 100245 L-979136 100283 L-979096 100283 L-978727 100283 L-978286 100283 L-978103 100283 L-977782 100245 L-977487 100245 L-977041 100169 L-976969 100131 L-976507 100055 L-976069 100017 L-975887 99979 L-974433 99904 L-974301 99866 L-973844 99790 L-973618 99752 L-973231 99676 L-972715 99600 L-971761 99525 L-970967 99449 L-970292 99411 L-969867 99335 L-969555 99297 L-969326 99184 L-968642 99070 L-968629 98956 L-968419 98805 L-968397 98767 L-968223 98691 L-967273 98653 L-967005 98577 L-966189 98539 L-965879 98464 L-965841 98426 L-965784 98350 L-965167 98312 L-964529 98236 L-962903 98198 L-962229 98161 L-961587 98161 L-961510 98161 L-961454 98161 L-961418 98161 L-961389 98123 L-961278 98047 L-961260 98009 L-961237 97971 L-961084 97933 L-961030 97857 L-960952 97820 L-960833 97782 L-960735 97744 L-960618 97706 L-960348 97630 L-960079 97592 L-960061 97516 L-959861 97478 L-959714 97403 L-959488 97365 L-959353 97327 L-959045 97289 L-958985 97251 L-958632 97175 L-958283 97137 L-958182 97100 L-958118 97024 L-958058 96986 L-957673 96910 L-957293 96872 L-957188 96834 L-956928 96796 L-956657 96721 L-956498 96683 L-956465 96645 L-956403 96607 L-956262 96569 L-956078 96531 L-956034 96493 L-955745 96493 L-955729 96455 L-955496 96455 L-955435 96417 L-955397 96417 L-954817 96380 L-954683 96342 L-954660 96190 L-954642 95925 L-954624 95622 L-954608 95319 L-954584 95015 L-954568 94788 L-954547 94523 L-954530 94258 L-954507 94106 L-954490 93954 L-954468 93841 L-954452 93765 L-954403 93651 L-954330 93538 L-954296 93348 L-954272 93197 L-954236 93045 L-954195 92893 L-954158 92818 L-954142 92666 L-954118 92552 L-954081 92477 L-954064 92363 L-954041 92287 L-954023 92211 L-954005 92136 L-953989 92060 L-953959 91946 L-953933 91832 L-953888 91794 L-953871 91719 L-953830 91681 L-953781 91605 L-953711 91529 L-953695 91453 L-953679 91378 L-953617 91340 L-953578 91302 L-953539 91264 L-953373 91226 L-953308 91188 L-953292 91150 L-953248 91075 L-953189 91037 L-952977 90999 L-952943 90961 L-952901 90923 L-952823 90885 L-952285 90847 L-952207 90809 L-952103 90733 L-952014 90696 L-951838 90658 L-951487 90620 L-951332 90582 L-950894 90544 L-950737 90506 L-950607 90468 L-949903 90392 L-949702 90355 L-948742 90279 L-948259 90241 L-948160 90241 L-948068 90203 L-947823 90165 L-947750 90127 L-947307 90051 L-947211 90014 L-947196 89976 L-947180 89938 L-947155 89900 L-946689 89862 L-946472 89824 L-946332 89786 L-946038 89748 L-945950 89710 L-945909 89672 L-945879 89635 L-945706 89597 L-945647 89559 L-945571 89521 L-945491 89483 L-945421 89483 L-945112 89445 L-945026 89407 L-944813 89369 L-944777 89331 L-944094 89294 L-943995 89256 L-943790 89218 L-943744 89180 L-943465 89142 L-943403 89104 L-943386 89028 L-943308 88990 L-943000 88915 L-942976 88877 L-942922 88801 L-942899 88763 L-942776 88725 L-942641 88649 L-942397 88611 L-942271 88611 L-941624 88574 L-941608 88574 L-941583 88574 L-941403 88498 L-941327 88460 L-941235 88422 L-940807 88384 L-940391 88346 L-939998 88270 L-939920 88233 L-939901 88195 L-939537 88157 L-939301 88119 L-939073 88081 L-938760 88043 L-938682 88005 L-938601 87929 L-938423 87854 L-938407 87816 L-938142 87740 L-938062 87702 L-937832 87664 L-937606 87626 L-937290 87626 L-937115 87588 L-936754 87588 L-936362 87550 L-936293 87475 L-936229 87437 L-936089 87361 L-936037 87323 L-935935 87247 L-935433 87209 L-935236 87172 L-934989 87134 L-934804 87096 L-934504 87058 L-934428 87020 L-934262 86944 L-933378 86906 L-933349 86830 L-933226 86755 L-932647 86717 L-932570 86679 L-931856 86679 L-931544 86679 L-931331 86679 L-931314 86679 L-930928 86679 L-930403 86603 L-929957 86565 L-929627 86527 L-929474 86489 L-929148 86489 L-928970 86452 L-928888 86452 L-928682 86376 L-928507 86338 L-927578 86300 L-926688 86262 L-926649 86224 L-926421 86224 L-926042 86186 L-925255 86148 L-925020 86111 L-924944 86073 L-924587 86035 L-924015 85959 L-923748 85921 L-923362 85883 L-923258 85883 L-923088 85883 L-922470 85883 L-922258 85883 L-921951 85883 L-921898 85845 L-921770 85807 L-921717 85769 L-921598 85732 L-921261 85656 L-920302 85618 L-920171 85542 L-919969 85504 L-919338 85466 L-919026 85428 L-918613 85391 L-918585 85353 L-918440 85315 L-918020 85277 L-916687 85277 L-916640 85239 L-916512 85163 L-916495 85125 L-915917 85050 L-915711 85012 L-915682 84974 L-915641 84936 L-915583 84898 L-915546 84860 L-915468 84822 L-915325 84784 L-914870 84746 L-914752 84708 L-914467 84671 L-914094 84633 L-913998 84595 L-913671 84557 L-913317 84519 L-913147 84481 L-913099 84443 L-912990 84405 L-912901 84367 L-912873 84330 L-912797 84254 L-912494 84216 L-912460 84140 L-912388 84102 L-912020 84064 L-911685 84026 L-911604 84026 L-911384 83989 L-911213 83951 L-911185 83913 L-910688 83875 L-910139 83799 L-909258 83761 L-909160 83685 L-909083 83647 L-908808 83610 L-908561 83534 L-908487 83496 L-908425 83420 L-908307 83382 L-908264 83344 L-908154 83306 L-908077 83231 L-907377 83193 L-907131 83155 L-907092 83117 L-906935 83079 L-906336 83079 L-906109 83079 L-906017 83079 L-905542 83079 L-904944 83003 L-904425 82965 L-904404 82928 L-904258 82890 L-903938 82890 L-903396 82890 L-903164 82890 L-902994 82890 L-902508 82852 L-902280 82814 L-902195 82776 L-901849 82738 L-901523 82738 L-901000 82700 L-900672 82662 L-900072 82624 L-899874 82549 L-899822 82511 L-899782 82473 L-899501 82435 L-898816 82359 L-898506 82321 L-898481 82245 L-898290 82208 L-898067 82170 L-897981 82132 L-897317 82056 L-897293 82018 L-897071 81942 L-896741 81904 L-896389 81829 L-896185 81791 L-895952 81715 L-895694 81677 L-895505 81601 L-895457 81563 L-895230 81525 L-895196 81488 L-895039 81450 L-894825 81412 L-894652 81374 L-894560 81336 L-894283 81298 L-894039 81260 L-893724 81222 L-893298 81222 L-893261 81222 L-892777 81222 L-892544 81222 L-892332 81184 L-892106 81147 L-891556 81147 L-891309 81109 L-890475 81109 L-890419 81071 L-890397 81033 L-890239 80995 L-889778 80957 L-889737 80919 L-889397 80843 L-889264 80805 L-889041 80768 L-888469 80730 L-887997 80692 L-887802 80654 L-887610 80616 L-887420 80578 L-887318 80540 L-886950 80502 L-886904 80464 L-886822 80427 L-885529 80389 L-885481 80351 L-885212 80351 L-885067 80351 L-884516 80351 L-884399 80313 L-884318 80275 L-883958 80237 L-883735 80199 L-883454 80161 L-883124 80086 L-882616 80048 L-882504 80010 L-882425 79972 L-882261 79934 L-881966 79934 L-881498 79934 L-881301 79972 L-881251 79972 L-880601 79934 L-880479 79896 L-880025 79896 L-879989 79858 L-879521 79820 L-879410 79782 L-879394 79744 L-879178 79744 L-878997 79707 L-878465 79707 L-877436 79707 L-877236 79669 L-876778 79631 L-875830 79555 L-875731 79517 L-875377 79441 L-875316 79403 L-875302 79366 L-875266 79328 L-874897 79290 L-874777 79252 L-874535 79214 L-874371 79176 L-874184 79138 L-874063 79100 L-872993 79025 L-872134 78987 L-871922 78911 L-871825 78873 L-871651 78797 L-871317 78759 L-871246 78721 L-871188 78683 L-871013 78683 L-870624 78646 L-870388 78608 L-870277 78570 L-870160 78532 L-869179 78494 L-869154 78456 L-868560 78380 L-868527 78380 L-868378 78342 L-868094 78305 L-867182 78305 L-866236 78305 L-866083 78267 L-865981 78267 L-865849 78229 L-865706 78191 L-865680 78153 L-865565 78115 L-865347 78077 L-864666 78039 L-864536 78001 L-864233 77964 L-863993 77888 L-863660 77850 L-863022 77812 L-862679 77736 L-862617 77698 L-862462 77698 L-861540 77698 L-861070 77698 L-861026 77698 L-861013 77660 L-860972 77622 L-860950 77585 L-860923 77547 L-860779 77509 L-860357 77471 L-860021 77471 L-859830 77433 L-859402 77433 L-859214 77395 L-858825 77319 L-858291 77281 L-857918 77244 L-857897 77244 L-857647 77206 L-857528 77168 L-857452 77130 L-857317 77092 L-857277 77054 L-857197 77016 L-856803 76978 L-856307 76940 L-856195 76865 L-856022 76827 L-855714 76789 L-855266 76751 L-854944 76713 L-854801 76637 L-854374 76561 L-854221 76486 L-854165 76410 L-853352 76372 L-853332 76334 L-852960 76296 L-852903 76296 L-851774 76258 L-851706 76258 L-851148 76220 L-850953 76183 L-850817 76145 L-850583 76107 L-850236 76069 L-850202 75993 L-850167 75955 L-850098 75879 L-849749 75841 L-849577 75804 L-849092 75766 L-849076 75728 L-848751 75690 L-848593 75652 L-847453 75576 L-847428 75538 L-847236 75463 L-847043 75425 L-846792 75387 L-846775 75349 L-845755 75311 L-845457 75273 L-845382 75235 L-845246 75159 L-845070 75122 L-844493 75046 L-844278 75008 L-844214 74970 L-844083 74932 L-844046 74856 L-843523 74818 L-843385 89748 L-843371 89748 L-843348 89748 L-843328 89748 L-843100 74780 L-842325 74780 L-842283 74780 L-841915 74780 L-841837 74743 L-841785 74705 L-841112 74667 L-840369 74629 L-839945 74629 L-839497 74591 L-838435 74553 L-838124 74477 L-837713 74477 L-837641 74439 L-837117 74439 L-837023 74439 L-837005 74439 L-836560 74402 L-836375 74326 L-835594 74250 L-834922 74212 L-834510 74098 L-834278 74023 L-834137 73985 L-834056 73909 L-834036 73871 L-833960 73871 L-833831 73833 L-833514 73871 L-833290 73871 L-832965 73833 L-832903 73833 L-832533 73833 L-832500 73833 L-832291 73833 L-831624 73833 L-831546 73833 L-831388 73757 L-831278 73757 L-830951 73719 L-830796 73682 L-830455 73682 L-830398 73606 L-830060 73530 L-829856 73492 L-829804 73416 L-828427 73378 L-828297 73341 L-827864 73303 L-827543 73265 L-826716 73189 L-826592 73151 L-825862 73075 L-825706 73000 L-825665 72962 L-825611 72924 L-825588 72886 L-825474 72848 L-825178 72810 L-824888 72772 L-824833 72734 L-824713 72696 L-824683 72658 L-824583 72621 L-824139 72621 L-823987 72583 L-823152 72583 L-822610 72545 L-822275 72545 L-822260 72507 L-822184 72469 L-822068 72431 L-821873 72393 L-821609 72355 L-820774 72317 L-820678 72280 L-820157 72242 L-820115 72204 L-820016 72166 L-819187 72166 L-819052 72128 L-818714 72128 L-818159 72090 L-817780 72052 L-817617 72014 L-817307 71976 L-816494 71938 L-816188 71901 L-815920 71901 L-815598 71901 L-815277 71938 L-815002 71938 L-814173 71863 L-814078 71825 L-813986 71711 L-813881 71597 L-813494 71484 L-813014 71408 L-812998 71370 L-812879 71332 L-812511 71256 L-812416 71219 L-811583 71143 L-811505 71105 L-811206 71067 L-811115 71029 L-810708 70953 L-810598 70877 L-809898 70840 L-809425 70802 L-809365 70764 L-809146 70688 L-808873 70650 L-808760 70612 L-807732 70574 L-807346 70536 L-807326 70499 L-806993 70461 L-806748 70423 L-806315 70385 L-806205 70347 L-806087 70309 L-805636 70233 L-805045 70195 L-804709 70158 L-802816 70120 L-802702 70044 L-802490 70006 L-801172 69968 L-801066 61442 L-801000 53030 L-800963 45262 L-800902 45262 L-800402 53712 L-799727 62048 L-799705 69741 L-799435 69665 L-798467 69665 L-797777 69627 L-797615 69589 L-797075 69551 L-796985 69513 L-795965 69475 L-795018 69400 L-794652 69438 L-794549 69475 L-793961 69475 L-793902 69475 L-793801 69438 L-793361 69362 L-793253 69324 L-792812 69286 L-791812 69172 L-791556 69059 L-791453 68945 L-791322 68869 L-790956 68793 L-790375 68718 L-790344 68680 L-790029 68642 L-788046 68604 L-787930 68566 L-787862 68566 L-787504 68528 L-785885 68490 L-785707 68490 L-785563 68490 L-784741 68528 L-784688 68566 L-784633 68566 L-784199 68566 L-783219 68604 L-783145 68604 L-782060 68566 L-781847 68566 L-781131 68490 L-780743 68452 L-780524 68377 L-780204 68301 L-779710 68225 L-779583 68187 L-779354 68111 L-779122 68035 L-779062 67998 L-778773 67960 L-778501 67884 L-777471 67846 L-775806 67808 L-775387 67770 L-775249 67732 L-775093 67732 L-774788 67694 L-774560 67619 L-774402 67581 L-774242 67505 L-774073 67429 L-774026 67391 L-773972 67353 L-773951 67353 L-773564 67316 L-773315 67316 L-773044 67316 L-772883 67316 L-772794 67316 L-771135 67316 L-770970 67353 L-770590 67316 L-770130 67316 L-769520 67240 L-768427 67202 L-767996 67164 L-767965 67126 L-767902 67088 L-767885 67050 L-766181 67012 L-766139 66974 L-765673 66937 L-765486 66899 L-765454 66823 L-764858 66785 L-764809 66747 L-764486 66709 L-764435 66671 L-764225 66633 L-764207 66596 L-763941 66520 L-763888 66482 L-763419 66444 L-762908 66368 L-762830 66368 L-762536 66330 L-762519 66292 L-762481 66255 L-762410 66217 L-762252 66179 L-761306 66179 L-761250 66179 L-760729 66179 L-760536 66141 L-760436 66141 L-760210 66103 L-759700 66103 L-759312 67126 L-759242 67126 L-758894 67088 L-758537 67050 L-757408 65951 L-757357 65876 L-757130 65838 L-757097 65800 L-756972 65724 L-756873 65724 L-756608 65724 L-755868 65762 L-755290 65762 L-754996 65762 L-754290 65762 L-754111 65724 L-754088 65724 L-753452 65686 L-753141 65648 L-752744 65648 L-752715 65610 L-752694 65572 L-752540 65535 L-751855 65535 L-751838 65535 L-751499 65535 L-751226 65497 L-751189 65459 L-751133 65383 L-751111 65345 L-751039 65307 L-750707 65269 L-750601 65231 L-750572 65156 L-750374 65118 L-750221 65080 L-749353 65042 L-748790 64966 L-748774 64966 L-748673 64928 L-748571 64966 L-748425 64966 L-748346 64966 L-748308 64928 L-748253 64890 L-748180 64852 L-748035 64815 L-747553 64815 L-747148 64777 L-746282 64815 L-746262 64815 L-746004 64815 L-745928 64815 L-745899 64777 L-745888 64701 L-745871 64663 L-745578 64625 L-745539 64587 L-745467 64549 L-745393 64511 L-745188 64474 L-745028 64360 L-744727 64246 L-744650 64095 L-744632 63981 L-744416 63905 L-744185 63905 L-744075 63943 L-743705 63981 L-743547 63981 L-743315 63981 L-743147 63981 L-743002 63943 L-742870 63905 L-741594 63829 L-741191 63754 L-741130 63716 L-741013 63640 L-740588 63602 L-740572 63526 L-740511 63488 L-740237 63413 L-740125 63375 L-739842 63299 L-739565 63261 L-739140 63185 L-739118 63147 L-739040 63109 L-738914 63071 L-738327 63034 L-737936 62996 L-737601 62958 L-737011 62920 L-736909 62920 L-736739 62882 L-736603 62882 L-735775 62844 L-734590 62806 L-734554 62768 L-734498 62768 L-734278 62730 L-734072 62730 L-733918 62730 L-733661 62693 L-733585 62655 L-733042 62617 L-733005 62579 L-732757 62541 L-732369 62503 L-731544 62465 L-731185 62427 L-730875 62427 L-730617 62389 L-730393 62352 L-729987 62314 L-729871 62276 L-729687 62238 L-729634 62238 L-729446 62200 L-729275 62162 L-729246 62124 L-728966 62086 L-728655 62048 L-728517 62010 L-728207 61973 L-728013 61973 L-727998 61935 L-727279 61935 L-727145 61859 L-726847 61821 L-726757 61783 L-726156 61783 L-726118 61745 L-726040 61707 L-725419 61669 L-725268 61594 L-725227 61556 L-724916 61518 L-724725 61480 L-724532 61404 L-724476 61328 L-724167 61291 L-724115 61253 L-724061 61291 L-724035 61291 L-723910 61291 L-723099 61253 L-723023 61215 L-722482 61177 L-722213 61139 L-721554 61101 L-720646 61063 L-720405 61025 L-719873 60987 L-719656 60949 L-718548 60987 L-718498 60987 L-717722 60987 L-717175 60949 L-717063 60912 L-716911 60836 L-716855 60798 L-716690 60760 L-716313 60722 L-715865 60684 L-715811 60646 L-715656 60608 L-714976 60571 L-714756 60533 L-714238 60495 L-713389 60419 L-713373 60381 L-711582 60343 L-711028 60305 L-710911 60267 L-709905 60230 L-709868 60192 L-709636 60192 L-709543 60192 L-709503 60192 L-709171 60154 L-708819 60116 L-708554 60040 L-708267 60002 L-707956 59926 L-707702 59851 L-707609 59813 L-707119 59775 L-706911 59737 L-706346 59699 L-706231 59737 L-705880 59699 L-705829 59699 L-705788 59699 L-705185 59623 L-704451 59547 L-703870 59472 L-703635 59396 L-703094 59282 L-702942 59206 L-702440 59169 L-702231 59093 L-702207 59093 L-702148 59055 L-701186 59055 L-701008 59017 L-700566 58979 L-700542 58903 L-700387 58865 L-700305 58865 L-700155 58903 L-699508 58903 L-699459 58865 L-698339 58827 L-697354 58790 L-697293 58752 L-696572 58714 L-695708 58676 L-695329 58638 L-695110 58638 L-694350 58600 L-694298 58562 L-693989 58486 L-693138 58486 L-692945 58449 L-692768 58411 L-692543 58411 L-692417 58373 L-692225 58373 L-691992 58335 L-691823 58373 L-691536 58335 L-691257 58335 L-691174 58297 L-691003 58259 L-690987 58183 L-690833 58145 L-690793 58107 L-690018 58070 L-689942 58070 L-689709 57994 L-689282 57956 L-688937 57918 L-688354 57880 L-688085 57880 L-687826 57880 L-687697 57804 L-687680 57766 L-687567 57729 L-687543 57691 L-687309 57653 L-687273 57615 L-685957 57615 L-685901 57577 L-685222 57501 L-684649 57501 L-684524 57501 L-684371 57501 L-684294 57501 L-683982 57425 L-683709 57388 L-683620 57312 L-683518 57312 L-682590 57274 L-682514 57274 L-682150 57274 L-682125 57236 L-682089 57198 L-681313 57122 L-681222 57084 L-681082 57046 L-680680 57009 L-680418 57009 L-680175 57046 L-679961 57009 L-679880 57009 L-679804 57009 L-679727 57009 L-679540 57046 L-679474 57046 L-679224 57046 L-679169 57009 L-679032 56971 L-678952 56895 L-678839 56857 L-678616 56819 L-678451 56781 L-678410 56743 L-678241 56705 L-677870 56668 L-677855 56630 L-677739 56592 L-677018 56554 L-676982 56516 L-676849 56516 L-676501 56478 L-676090 56478 L-676054 56478 L-675976 56440 L-675937 56402 L-675573 56364 L-675369 56327 L-675354 56289 L-675008 56251 L-674660 56251 L-674334 56251 L-674232 56213 L-674079 56213 L-673885 56175 L-673653 56175 L-673561 56175 L-673405 56175 L-673328 56175 L-673287 56137 L-673174 56099 L-673150 56061 L-672900 56061 L-672761 55985 L-672183 55872 L-671355 55796 L-670867 55720 L-670746 55682 L-670707 55644 L-670695 55607 L-670542 55531 L-670441 55455 L-670208 55417 L-669818 55341 L-669514 55303 L-669498 55266 L-669327 55228 L-669089 55152 L-668492 55152 L-667889 55114 L-667849 55114 L-667809 55114 L-667655 55076 L-667602 55038 L-667540 55000 L-667472 54962 L-667417 54887 L-667392 54849 L-667345 54811 L-667251 54735 L-667113 54697 L-666960 54659 L-666828 54621 L-666787 54621 L-666751 54583 L-666689 54546 L-666416 54470 L-666102 54432 L-666061 54356 L-665976 54318 L-665798 54280 L-665561 54242 L-665203 54205 L-665174 54167 L-664604 54129 L-664481 54091 L-664245 54053 L-664223 54053 L-663941 54015 L-663656 54015 L-663400 54015 L-662828 53977 L-662532 53939 L-662456 53901 L-661757 53863 L-661679 53826 L-661644 53788 L-661618 53750 L-661566 53674 L-661372 53636 L-661232 53560 L-661196 53522 L-661156 53485 L-660561 53447 L-660328 53409 L-660045 53674 L-659990 53901 L-659916 54167 L-659838 54394 L-659602 54318 L-659358 54280 L-659223 54242 L-659116 54205 L-659037 54167 L-658649 54091 L-658522 54053 L-658370 54015 L-658332 53977 L-658186 53939 L-657965 53901 L-657791 53863 L-657722 53826 L-656900 53750 L-656884 53750 L-656590 53712 L-655802 53674 L-655492 53674 L-655346 53636 L-655118 53598 L-654917 53522 L-653980 53485 L-653943 53447 L-653921 53409 L-653880 53333 L-653611 53295 L-653015 53257 L-652951 53219 L-652915 53181 L-652899 53143 L-652203 53143 L-652002 53143 L-651970 53143 L-651637 53143 L-651529 53106 L-650904 53030 L-650400 52992 L-650363 52916 L-649921 52916 L-649825 52878 L-649666 52878 L-649352 52878 L-649340 52878 L-648900 52916 L-648418 52954 L-648289 52954 L-647969 52954 L-647901 52916 L-647596 52916 L-647421 52878 L-647227 52840 L-646984 52765 L-646787 52689 L-646761 52613 L-646183 52575 L-646113 52537 L-645703 52499 L-645649 52461 L-645603 52424 L-645239 52386 L-645092 52348 L-644887 52310 L-644791 52310 L-644636 52272 L-644574 52234 L-644427 52158 L-644326 52120 L-643769 52120 L-643747 52196 L-643575 52234 L-643033 52272 L-642972 52272 L-642918 52196 L-642890 52120 L-642818 52082 L-642802 52007 L-642738 51969 L-642702 51893 L-642547 51855 L-642222 51817 L-641655 51779 L-641641 51741 L-641579 51666 L-641477 51590 L-641431 51590 L-641189 51552 L-640766 51552 L-640612 51552 L-638870 51476 L-638328 51438 L-637385 51400 L-636976 51363 L-636435 51287 L-636238 51249 L-636070 51211 L-635774 51173 L-635659 51135 L-635644 51135 L-635489 51097 L-635349 51059 L-635273 50984 L-635141 50984 L-634793 50984 L-634422 51021 L-633824 51021 L-633648 51021 L-633492 50984 L-633223 50946 L-633072 50946 L-632781 51059 L-632757 51135 L-632674 51211 L-632447 51287 L-631747 51249 L-631620 51211 L-631189 51173 L-631095 51135 L-629890 51135 L-629841 51097 L-629548 51097 L-629144 51059 L-628868 50984 L-628849 50946 L-628731 50908 L-628655 50870 L-628473 50832 L-627993 50794 L-627542 50718 L-627132 50680 L-627102 50643 L-626683 50605 L-626569 50605 L-626451 50605 L-626436 50605 L-626241 50567 L-626220 50491 L-625988 50453 L-625544 50415 L-625225 50339 L-624760 50339 L-624595 50302 L-624440 50264 L-624284 50264 L-623831 50264 L-623512 50264 L-623457 50302 L-623086 50302 L-623048 50339 L-622721 50339 L-622605 50302 L-622506 50264 L-622180 50188 L-621793 50150 L-621532 50112 L-621174 50036 L-620917 49998 L-618747 49960 L-618698 49923 L-618675 49885 L-618264 49885 L-618202 49885 L-618132 49923 L-617901 49923 L-617590 49885 L-617287 49809 L-617243 49771 L-616935 49733 L-616802 49695 L-616585 49657 L-615873 49619 L-615718 49619 L-615580 49582 L-615431 49582 L-615410 49582 L-615216 49544 L-615190 49506 L-615099 49468 L-615077 49430 L-615061 49392 L-614961 49354 L-614032 49316 L-613574 49316 L-612482 49241 L-612060 49241 L-611656 49203 L-611617 49165 L-611364 49127 L-610589 49051 L-610573 49013 L-610548 48975 L-610355 48937 L-609619 48899 L-609350 48862 L-609309 48824 L-608910 48748 L-608885 48710 L-608096 48672 L-607416 48634 L-606045 48596 L-605775 48558 L-605726 48521 L-605189 48445 L-605156 48407 L-605054 48331 L-604731 48293 L-604651 48255 L-604382 48255 L-603470 48217 L-603331 48217 L-603082 48142 L-602537 48142 L-602114 48104 L-601921 48066 L-601906 48066 L-601768 47990 L-601674 47952 L-601547 47914 L-601287 47876 L-601262 47801 L-601171 47763 L-600861 47725 L-600800 47687 L-600683 47687 L-600334 47687 L-599523 47687 L-599292 47611 L-598463 47611 L-598231 47535 L-598014 47497 L-597496 47497 L-596857 47460 L-596441 47422 L-596119 47384 L-595638 47346 L-595213 47346 L-595151 47308 L-594803 47308 L-594762 47270 L-594748 47232 L-594649 47156 L-594604 47156 L-594118 47118 L-593317 47118 L-592982 47118 L-591901 47081 L-591421 47043 L-591398 47005 L-591258 46967 L-590703 46929 L-590006 46891 L-589697 46853 L-589475 46815 L-589370 46777 L-589268 46702 L-588597 46664 L-588503 46626 L-588481 46626 L-588403 46588 L-588225 46588 L-588053 46588 L-587872 46550 L-587859 46512 L-587783 46474 L-587618 46436 L-587104 46399 L-587088 46361 L-586947 46361 L-586585 46323 L-586561 46323 L-586430 46285 L-586405 46247 L-586043 46209 L-585518 46133 L-585424 46095 L-585208 46020 L-585115 45982 L-585090 45944 L-584626 45906 L-584549 45906 L-584147 45868 L-583696 45868 L-582445 45830 L-582406 45792 L-581974 45754 L-581942 45716 L-581223 45679 L-581046 45641 L-580911 45603 L-580604 45565 L-580549 45527 L-580524 45451 L-580508 45375 L-580333 45338 L-580144 45300 L-579636 45300 L-579262 44996 L-578924 44655 L-578885 44352 L-578166 44087 L-578073 44049 L-578034 44011 L-577493 44011 L-577469 43973 L-577067 43935 L-576641 43898 L-576370 43898 L-576191 43860 L-575945 43784 L-575921 43746 L-575865 43670 L-575248 43632 L-574745 43594 L-574358 43594 L-573739 43632 L-573523 43632 L-573368 43670 L-572076 43594 L-571976 43557 L-571534 43481 L-571203 43443 L-570902 43367 L-570660 43329 L-569925 43253 L-569346 43215 L-568516 43178 L-568416 43140 L-567858 43102 L-567720 43064 L-566079 43026 L-566018 43026 L-565924 43026 L-564957 43026 L-564780 42988 L-564492 42988 L-564275 42988 L-564196 42950 L-563925 42950 L-563810 42912 L-563657 42874 L-563346 42837 L-563268 42799 L-563177 42799 L-563100 42761 L-562984 42761 L-562804 42723 L-562712 42685 L-562674 42647 L-562171 42647 L-561953 42609 L-561823 42609 L-561668 42571 L-561613 42533 L-561489 42533 L-561104 42496 L-560595 42458 L-560523 42420 L-560043 42382 L-559966 42344 L-559866 42344 L-559632 42306 L-559167 42306 L-558937 42306 L-558921 42306 L-558689 42306 L-558534 42306 L-558473 42306 L-558280 42268 L-558009 42192 L-557257 42154 L-556304 42154 L-556268 42117 L-556043 42117 L-555603 42117 L-555323 42041 L-554974 42003 L-553905 41965 L-552977 41965 L-552847 41965 L-552800 41965 L-552731 41927 L-552576 41927 L-552498 41851 L-552325 41776 L-551890 41700 L-551686 41662 L-551626 41586 L-551043 41548 L-550889 41472 L-550774 41435 L-550733 41397 L-550563 41359 L-550426 41321 L-550216 41245 L-550138 41207 L-550115 41169 L-549906 41093 L-549496 41056 L-549472 41018 L-549248 40980 L-549103 40942 L-549068 40904 L-549055 40866 L-549033 40828 L-548799 40790 L-548614 40752 L-548396 40715 L-548371 40677 L-547682 40639 L-547578 40601 L-547543 40563 L-547522 40525 L-547328 40487 L-547275 40449 L-547158 40374 L-547076 40374 L-546965 40336 L-546651 40298 L-546192 40260 L-545936 40222 L-545702 40146 L-545572 40108 L-545220 40070 L-545161 40032 L-545008 39995 L-544436 39919 L-544349 39881 L-544196 39805 L-543900 39729 L-543530 39654 L-543227 39578 L-543151 39540 L-542746 39502 L-542578 39502 L-542434 39502 L-541893 39502 L-541833 39502 L-541817 39426 L-541651 39388 L-541445 39350 L-541370 39350 L-541277 39312 L-540868 39275 L-540852 39237 L-540828 39237 L-540635 39199 L-540559 39540 L-540388 39881 L-540326 40184 L-540310 40525 L-539796 40487 L-539575 40449 L-538956 40374 L-538702 40336 L-538508 40298 L-538469 40260 L-538395 40260 L-538330 40260 L-537680 40260 L-537641 40298 L-537467 40298 L-537401 40298 L-536727 40298 L-536338 40222 L-536076 40184 L-535838 40146 L-535761 40070 L-535745 39995 L-535543 39957 L-535172 39881 L-534947 39843 L-534311 39805 L-534291 39805 L-533904 39767 L-533810 39767 L-533752 39729 L-533476 39691 L-533167 39691 L-533090 39654 L-532238 39691 L-531896 39881 L-531459 40108 L-531025 40298 L-530530 40487 L-530380 40449 L-530112 40487 L-528874 40525 L-528817 40601 L-527053 40639 L-526863 40601 L-525853 40563 L-525702 40525 L-525326 40601 L-525006 40677 L-524400 40752 L-524331 40828 L-524153 40790 L-523325 40752 L-523186 40715 L-522799 40677 L-522615 40639 L-522571 40601 L-522451 40563 L-522242 40525 L-521794 40449 L-521446 40411 L-521314 40374 L-520905 40336 L-520554 40336 L-520269 40298 L-520076 40260 L-519921 40260 L-519757 40222 L-519689 40184 L-519589 40184 L-519356 40146 L-519239 40146 L-519186 40108 L-518644 40108 L-518180 40070 L-516998 40070 L-516864 40070 L-516840 40070 L-516787 40070 L-516119 40070 L-515085 39995 L-514891 39957 L-514711 39919 L-514560 39919 L-514519 39881 L-514504 39881 L-514443 39843 L-514117 39805 L-512957 39767 L-512763 39729 L-512586 39691 L-511472 39654 L-510612 39616 L-510506 39616 L-510032 39578 L-509840 39578 L-507518 39540 L-507441 39502 L-507319 39426 L-507285 39388 L-507248 39312 L-507153 39199 L-506937 39123 L-506356 39047 L-505970 39009 L-505197 38971 L-505119 38934 L-504422 38934 L-503880 38934 L-503839 38896 L-503709 38896 L-503245 38858 L-503207 38820 L-503072 38782 L-502704 38744 L-502674 38706 L-502524 38706 L-502123 38668 L-500299 38706 L-499493 38668 L-498774 38668 L-498757 38668 L-498443 38593 L-497882 38555 L-497380 38517 L-496862 38479 L-496840 38441 L-495096 38403 L-494927 38365 L-494731 38327 L-493838 38289 L-493319 38214 L-493109 38176 L-492851 38138 L-492141 38100 L-491191 38062 L-490533 38024 L-490493 37948 L-490207 37910 L-490124 37873 L-490029 37873 L-489897 37835 L-489820 37835 L-489085 37835 L-488748 37797 L-488698 37835 L-488443 37835 L-488156 37797 L-487731 37797 L-487150 37759 L-486891 37759 L-486740 37721 L-486492 37721 L-486454 37721 L-485657 37683 L-485619 37645 L-485442 37645 L-485033 37569 L-484804 37569 L-484728 37569 L-484597 37569 L-484481 37532 L-484132 37494 L-484069 37456 L-483917 37418 L-483176 37380 L-483064 37342 L-482894 37304 L-482855 37266 L-482561 37266 L-482159 37266 L-481983 37266 L-481888 37266 L-481579 37228 L-480778 37190 L-480319 37115 L-479799 37077 L-479310 37039 L-478615 37001 L-477569 36963 L-477300 36963 L-477245 36925 L-477085 36925 L-476834 36925 L-476588 36887 L-476509 36849 L-476294 36774 L-475982 36736 L-475519 36660 L-475504 36622 L-475208 36622 L-475195 36584 L-474204 36546 L-473531 36508 L-473196 36433 L-472580 36433 L-472443 36395 L-471804 36357 L-471674 36319 L-470723 36243 L-470624 36167 L-470064 36129 L-469656 36129 L-469227 36129 L-469136 36092 L-468301 36092 L-467938 36092 L-467898 36129 L-467766 36167 L-467589 36167 L-467373 36167 L-467319 36129 L-467162 36054 L-466909 36016 L-465809 35978 L-465732 35940 L-465512 35902 L-465381 35826 L-465345 35788 L-465152 35751 L-465052 35713 L-464568 35675 L-464284 35637 L-464124 35599 L-464029 35523 L-463758 35485 L-463488 35447 L-463472 35296 L-463333 35182 L-463195 35068 L-462868 34917 L-462559 34841 L-462518 34803 L-462443 34727 L-462327 34690 L-461477 34614 L-461150 34576 L-460819 34538 L-460686 34538 L-460470 34538 L-460454 34538 L-459773 34538 L-459680 34462 L-459657 34424 L-459641 34348 L-459602 34311 L-459191 34235 L-458921 34197 L-458881 34159 L-458513 34159 L-458303 34121 L-457220 34121 L-457204 34083 L-457175 34045 L-457155 34045 L-456778 33970 L-456523 33932 L-456275 33856 L-456136 33780 L-456004 33742 L-455672 33704 L-455579 33666 L-455518 33629 L-454960 33591 L-454899 33553 L-454743 33515 L-454549 33477 L-454356 33439 L-454341 33401 L-454302 33363 L-454263 33325 L-453992 33287 L-453869 33250 L-453837 33212 L-453737 33212 L-453582 33212 L-453441 33212 L-453157 33174 L-452831 33174 L-452135 33136 L-452113 33136 L-451603 33136 L-450757 33136 L-450394 33098 L-450239 33060 L-449636 33060 L-449466 33060 L-449405 33060 L-449350 33022 L-448294 32984 L-448276 32984 L-447370 32984 L-447348 32984 L-447181 32946 L-446939 32946 L-446889 32909 L-446834 32833 L-446697 32795 L-446657 32757 L-445729 32719 L-445674 32719 L-445552 32719 L-445480 32719 L-445364 32719 L-445186 32757 L-444204 32719 L-444064 32719 L-443946 32643 L-443652 32568 L-443405 32530 L-443368 32492 L-443313 32530 L-443292 32530 L-443159 32530 L-443080 32530 L-442942 32492 L-442319 32492 L-442153 32454 L-441688 32454 L-441512 32378 L-441495 32340 L-441435 32302 L-441319 32264 L-440836 32226 L-440140 32189 L-439768 32151 L-439598 32113 L-438632 32075 L-438477 32037 L-438299 32037 L-438207 31999 L-437952 31999 L-437781 31999 L-437134 31961 L-437123 31961 L-436543 31923 L-436405 31923 L-436350 31848 L-435614 31810 L-435576 31772 L-435498 31772 L-434856 31734 L-434082 31734 L-433989 31696 L-433941 31696 L-433925 31658 L-433889 31658 L-433873 31582 L-433810 31544 L-433794 31507 L-433774 31507 L-433619 31469 L-433580 31431 L-433564 31393 L-433525 31355 L-433385 31317 L-433309 31279 L-432945 31241 L-432597 31203 L-431823 31165 L-431221 31128 L-431024 31090 L-430794 31090 L-430656 31052 L-430018 31052 L-429729 31014 L-429708 31014 L-429247 30976 L-429014 30976 L-428960 30938 L-428921 30900 L-428418 30862 L-427868 30824 L-427080 30787 L-425957 30787 L-425063 30749 L-424975 30749 L-424675 30711 L-424604 30673 L-424488 30635 L-423311 30597 L-422963 30559 L-422940 30521 L-422421 30483 L-422274 30446 L-422166 30408 L-421957 30370 L-421802 30332 L-421779 30294 L-421586 30256 L-421509 30218 L-421365 30180 L-420564 30142 L-420418 30104 L-420138 30067 L-419961 30029 L-419651 29991 L-418840 29953 L-417911 29953 L-416319 29915 L-416076 29877 L-415435 29839 L-415239 29801 L-415162 29763 L-414644 29726 L-414412 29726 L-414389 29688 L-414257 29688 L-413918 29650 L-413907 29612 L-413691 29574 L-413654 29536 L-413112 29498 L-412583 29422 L-412516 29384 L-412222 29347 L-411675 29271 L-411639 29233 L-411587 29195 L-411487 29119 L-411255 29119 L-410675 29119 L-410577 29157 L-410503 29157 L-410171 29119 L-409421 29081 L-409382 29043 L-408702 29043 L-408548 29043 L-408221 29006 L-408006 28968 L-407774 28968 L-407478 28930 L-407231 28892 L-406880 28854 L-406827 28816 L-406068 28778 L-405374 28702 L-405024 28627 L-404560 28589 L-403927 28551 L-403518 28513 L-403440 28551 L-403014 28551 L-402371 28513 L-402202 28513 L-401460 28475 L-401273 28437 L-400978 28399 L-400406 28361 L-400380 28323 L-399361 28323 L-398874 28286 L-398781 28286 L-398720 28248 L-398432 28210 L-398146 28172 L-398084 28134 L-397905 28134 L-397193 28096 L-397018 28058 L-396819 28020 L-396668 27982 L-396576 27945 L-396514 27907 L-395972 27907 L-395662 27869 L-395570 27793 L-395493 27717 L-394925 27679 L-394834 27679 L-394580 27604 L-394253 27528 L-394216 27414 L-394061 27300 L-393829 27262 L-393507 27225 L-392374 27187 L-392175 27149 L-391649 27111 L-391405 27111 L-391159 27073 L-391079 27035 L-391059 26959 L-390982 26921 L-390927 26846 L-390850 26808 L-390811 26770 L-390632 26694 L-390595 26656 L-390363 26618 L-389125 26580 L-388799 26543 L-388759 26467 L-387977 26429 L-387831 26391 L-386839 26353 L-386632 26353 L-386207 26353 L-386079 26353 L-385675 26391 L-385587 26353 L-384930 26315 L-384223 26277 L-383614 26239 L-383421 26201 L-383188 26126 L-382570 26088 L-382274 26012 L-381834 25974 L-381680 25936 L-381525 25898 L-380769 25823 L-380419 25785 L-380016 25785 L-379978 25747 L-378972 25747 L-378652 25747 L-378405 25709 L-377705 25633 L-377632 25595 L-377319 25557 L-376239 25519 L-376048 25482 L-375814 25482 L-375619 25444 L-375119 25406 L-374365 25406 L-374251 25406 L-374051 25406 L-374010 25368 L-373917 25330 L-373604 25292 L-373516 25254 L-373400 25216 L-373082 25216 L-373013 25178 L-372988 25140 L-372626 25103 L-372588 25065 L-372371 25027 L-371868 25065 L-371266 25103 L-371054 25178 L-370901 25216 L-370863 25216 L-370819 25140 L-370785 25103 L-370652 25065 L-370242 25027 L-369872 24989 L-369818 24951 L-369802 24913 L-369723 24875 L-369314 24837 L-369160 24799 L-369144 24724 L-369105 24686 L-368926 24610 L-368850 24572 L-368619 24534 L-367829 24496 L-367751 24496 L-367016 24420 L-366861 24383 L-366621 24307 L-366559 24231 L-366474 24193 L-366451 24117 L-366333 24042 L-366319 23966 L-366257 23890 L-366220 23852 L-366126 23814 L-366104 23814 L-365987 23776 L-365755 23738 L-365584 23663 L-364764 23663 L-364363 23625 L-364208 23625 L-363703 23625 L-363589 23625 L-362993 23625 L-362618 23587 L-362566 23587 L-362373 23549 L-361676 23549 L-361638 23511 L-361493 23511 L-361268 23473 L-361006 23435 L-360632 23397 L-360206 23359 L-360077 23322 L-360057 23246 L-359564 23246 L-358867 23208 L-358636 23246 L-358482 23246 L-357514 23246 L-357289 23284 L-357011 23284 L-356995 23246 L-356469 23208 L-355940 23170 L-355792 23132 L-355773 23094 L-355231 23056 L-354921 23018 L-354804 22943 L-354612 22867 L-354475 22791 L-354148 22753 L-354032 22715 L-353722 22715 L-353296 22677 L-353240 22677 L-353007 22715 L-352911 22715 L-352778 22715 L-352482 22715 L-352368 22677 L-352003 22640 L-351690 22640 L-351208 22602 L-351037 22564 L-350789 22526 L-350573 22488 L-350047 22450 L-349861 22374 L-349505 22336 L-348870 22298 L-348715 22223 L-347975 22185 L-347555 22147 L-347375 22109 L-347299 22109 L-347168 22071 L-346874 22033 L-346833 21995 L-346603 21995 L-346411 21957 L-346156 21957 L-345729 21920 L-345620 21882 L-345001 21882 L-344820 21882 L-343608 21882 L-342961 21920 L-342810 21920 L-342773 21920 L-342641 21920 L-342540 21882 L-342524 21844 L-342442 21806 L-342231 21768 L-342114 21730 L-341751 21692 L-341380 21654 L-340683 21616 L-340281 21579 L-340176 21541 L-340158 21503 L-339213 21465 L-339018 21389 L-338866 21351 L-338810 21275 L-338054 21275 L-338037 21351 L-337548 21389 L-337418 21465 L-337225 21465 L-336335 21427 L-336295 21389 L-336257 21351 L-336180 21313 L-336141 21313 L-336064 21275 L-335980 21237 L-335716 21200 L-335484 21162 L-335422 21124 L-334941 21086 L-334605 21086 L-334493 21048 L-334300 21010 L-334123 20972 L-334064 20972 L-334028 20934 L-333758 20896 L-333060 20821 L-333007 20745 L-332713 20669 L-332311 20593 L-331747 20555 L-330874 20517 L-330569 20480 L-330531 20442 L-330408 20404 L-329810 20366 L-329680 20328 L-329480 20290 L-329443 20252 L-328829 20214 L-328650 20176 L-328635 20101 L-328417 20063 L-328339 19987 L-328032 19987 L-327900 19949 L-327668 19949 L-327334 19949 L-327242 19911 L-327141 19873 L-327104 19835 L-326561 19835 L-326368 19798 L-325827 19760 L-325401 19722 L-325269 19722 L-325208 19722 L-324976 19722 L-324960 19722 L-324472 19760 L-324391 19760 L-324374 19760 L-322981 19798 L-322845 19798 L-322731 19760 L-322097 19722 L-321957 19684 L-321839 19646 L-321686 19570 L-321649 19532 L-321570 19494 L-321516 19532 L-320524 19532 L-320488 19494 L-320355 19494 L-320294 19419 L-320195 19381 L-319905 19343 L-319891 19305 L-319581 19305 L-319481 19343 L-319016 19305 L-318963 23322 L-318820 27300 L-318692 31317 L-318460 35334 L-317891 35296 L-317802 35258 L-317780 35258 L-317493 35220 L-316810 35182 L-316733 35144 L-316697 35106 L-316680 35068 L-316481 35031 L-316060 34955 L-315789 34955 L-314916 34917 L-314623 34917 L-314512 34917 L-313778 34879 L-313651 34841 L-313292 34803 L-313039 34803 L-312168 34765 L-311998 34765 L-311937 34727 L-311882 34690 L-311534 34652 L-311511 34614 L-311302 34576 L-311162 34538 L-311031 34500 L-310908 34462 L-310785 34424 L-310548 34386 L-310258 34348 L-309598 34311 L-309576 34273 L-309422 34235 L-309304 34197 L-308340 34159 L-308284 34121 L-308051 34083 L-308029 34045 L-307703 34007 L-307588 34007 L-307548 33970 L-307046 33970 L-306747 33932 L-306635 33894 L-306093 33856 L-305034 33818 L-304408 33780 L-304236 33742 L-303989 33704 L-303732 33666 L-303602 33629 L-303580 33591 L-302913 33553 L-302016 33515 L-301970 33477 L-301900 33439 L-301784 33439 L-301564 33401 L-301373 33401 L-301334 33363 L-301141 33325 L-300482 33325 L-299865 33287 L-299826 33515 L-299230 33742 L-299168 33932 L-298046 34121 L-297992 34121 L-297871 34083 L-297605 34045 L-297542 34045 L-297273 34045 L-297196 34007 L-296980 34007 L-296498 33970 L-296228 33932 L-296096 33932 L-295864 33856 L-295839 33742 L-295824 33591 L-295802 33401 L-295786 33212 L-295762 33022 L-295748 32795 L-295725 32568 L-295709 32340 L-295686 32151 L-295671 31961 L-295649 31772 L-295632 31658 L-295604 31544 L-295587 31393 L-295569 31317 L-295532 31203 L-295492 31128 L-295477 31052 L-295452 30938 L-295400 30862 L-295375 30787 L-295299 30711 L-295261 30673 L-295246 30597 L-295183 30521 L-295168 30446 L-295122 30332 L-295051 30256 L-295013 30218 L-294988 30142 L-294936 30067 L-294911 30029 L-294895 29991 L-294834 29953 L-294797 29915 L-294720 29877 L-294704 29839 L-294676 29763 L-294603 29726 L-294564 29688 L-294410 29612 L-294294 29574 L-294240 29536 L-294157 29498 L-294124 29460 L-294100 29422 L-293945 29384 L-293930 29347 L-293829 29309 L-293518 29271 L-293482 29233 L-293266 29195 L-293155 29195 L-293131 29195 L-292901 29233 L-292668 29233 L-292293 29195 L-292166 29157 L-292126 29119 L-292073 29081 L-291972 29043 L-291935 29006 L-291725 29006 L-291660 28968 L-291548 28968 L-291336 28930 L-291299 28892 L-290927 28854 L-290873 28816 L-290795 28778 L-290773 28740 L-290680 28702 L-290480 28665 L-290442 28665 L-290421 28665 L-290191 28665 L-290170 28627 L-289960 28627 L-289866 28589 L-289828 28551 L-289492 28513 L-289379 28475 L-289339 28437 L-289326 28437 L-289186 28399 L-289171 28399 L-288916 28399 L-288334 28361 L-288257 28323 L-288220 28286 L-288175 28248 L-288126 28210 L-287947 28172 L-287932 28134 L-287832 28096 L-287755 28058 L-287694 28020 L-287329 27945 L-287246 27907 L-287229 27869 L-287175 27831 L-286207 27793 L-286075 27755 L-286054 27717 L-285833 27679 L-285765 27641 L-285742 27604 L-285496 27566 L-285240 27528 L-285109 27490 L-285069 27452 L-285048 27376 L-284992 27300 L-284904 27262 L-284843 27187 L-284618 27149 L-284489 27111 L-284389 27073 L-284335 27035 L-284141 26997 L-284063 26959 L-283730 26921 L-283599 26884 L-283422 26846 L-283406 26808 L-283381 26770 L-283111 26770 L-281911 26732 L-281874 26732 L-281758 26694 L-281524 26656 L-281333 26618 L-281294 26618 L-281239 26580 L-281134 26580 L-280620 26543 L-280326 26505 L-280094 26467 L-279819 26429 L-279802 26391 L-279769 26353 L-279729 26315 L-279692 26277 L-279590 26239 L-279513 26201 L-279420 26164 L-279293 26126 L-279189 26088 L-279011 26088 L-278818 26050 L-277989 26050 L-277873 26012 L-277619 25974 L-277578 25936 L-277480 25898 L-277419 25898 L-277177 25860 L-277153 25860 L-277032 25823 L-276961 25785 L-276921 25747 L-276689 25709 L-276513 25671 L-275993 25633 L-275916 25595 L-275900 25557 L-275489 25557 L-275126 25557 L-275010 25519 L-274987 25519 L-274947 25482 L-274871 25444 L-274817 25406 L-274468 25368 L-274352 25330 L-274175 25330 L-274120 25292 L-274096 25292 L-273982 25254 L-273694 25216 L-273462 25178 L-273247 25140 L-273037 25103 L-272827 25027 L-272000 24989 L-271661 24951 L-270653 24913 L-270290 24875 L-269245 24837 L-269167 24799 L-268720 24762 L-268509 24724 L-268317 24686 L-268022 24648 L-267982 24610 L-267828 24572 L-267775 24496 L-267543 24458 L-266963 24420 L-266769 24383 L-266150 24383 L-265661 24345 L-265609 24307 L-264960 24269 L-264810 24231 L-264641 24193 L-264267 24155 L-264252 24155 L-264153 24117 L-264114 24117 L-263983 24079 L-263550 24079 L-263247 24079 L-262861 24079 L-262721 24042 L-262560 24042 L-262126 24042 L-262087 24004 L-261986 24004 L-261871 23966 L-261693 23966 L-261523 23928 L-261405 23890 L-261043 23814 L-260826 23776 L-260693 23738 L-260553 23738 L-260054 23738 L-259976 23738 L-259742 23701 L-259418 23701 L-259031 23663 L-259008 23625 L-258388 23625 L-258118 23587 L-257885 23587 L-257460 23549 L-257189 23511 L-257047 23473 L-256838 23435 L-256632 23397 L-256081 23359 L-255950 23359 L-255564 23322 L-255293 23322 L-255190 23284 L-254930 23246 L-254728 23208 L-254659 23170 L-254620 23132 L-254053 23094 L-253846 23056 L-253819 23018 L-253590 22981 L-253513 22943 L-252996 22905 L-252957 22867 L-252802 22829 L-252508 22791 L-252236 22753 L-251873 22715 L-251525 22715 L-251152 22677 L-251032 22677 L-250960 22640 L-250481 22602 L-250418 22564 L-250083 22526 L-249952 22488 L-249874 22450 L-249745 22412 L-249281 22412 L-248987 22374 L-248911 22374 L-248599 22336 L-248291 22298 L-248228 22261 L-248198 22223 L-247423 22185 L-247319 22109 L-247231 22071 L-247208 22033 L-247053 21995 L-246832 21957 L-246665 21920 L-246278 21882 L-246223 21844 L-246160 21844 L-245542 21806 L-245426 21768 L-245102 21730 L-244577 21692 L-244226 21654 L-244150 21616 L-243531 21579 L-243120 21541 L-242819 21503 L-242508 21465 L-242370 21427 L-241746 21427 L-241365 21389 L-240241 21389 L-239181 21351 L-239118 21313 L-238757 21275 L-238656 21275 L-238640 21237 L-238266 21237 L-237261 21162 L-236874 21124 L-236667 21048 L-236578 21010 L-236203 20972 L-235910 20934 L-235599 20896 L-234810 20859 L-234722 20821 L-234670 20783 L-234631 20745 L-234113 20707 L-233998 20669 L-233789 20631 L-233650 20593 L-233046 20555 L-232217 20517 L-231934 20480 L-231752 20480 L-231251 20442 L-231046 20442 L-230491 20442 L-229986 20404 L-229795 20366 L-229757 20328 L-229128 20290 L-228674 20252 L-228260 20214 L-227651 20176 L-226531 20176 L-226118 20139 L-225793 20139 L-225579 20101 L-225152 20063 L-225012 20025 L-224920 19987 L-224689 19949 L-224102 19949 L-223295 19911 L-222095 19911 L-221981 19911 L-221849 19873 L-221762 19835 L-221720 19873 L-221699 19911 L-221688 19987 L-221594 20063 L-220830 20063 L-220124 20063 L-220084 20025 L-219798 19987 L-219257 19949 L-219196 19911 L-219156 19873 L-219141 19835 L-218884 19798 L-218561 19760 L-218421 19722 L-218151 19684 L-218112 19646 L-218004 19608 L-217602 19570 L-217493 19532 L-217416 19494 L-217119 19456 L-217076 19419 L-216857 19419 L-216674 19419 L-216563 19419 L-216549 19381 L-216523 19381 L-216099 19343 L-215852 19305 L-215516 19267 L-215482 19229 L-215347 19191 L-215093 19191 L-214939 19153 L-214033 19153 L-213934 19115 L-213739 19040 L-212731 19002 L-212231 18964 L-212152 18926 L-212114 18888 L-211906 18850 L-211787 18812 L-211689 18774 L-211503 18737 L-211338 18699 L-211102 18661 L-210683 18623 L-210667 18585 L-210358 18547 L-209312 18509 L-209095 18471 L-209079 18433 L-209057 18395 L-208849 18358 L-208690 18320 L-208631 18282 L-207186 18244 L-206860 18244 L-206658 18244 L-206459 18244 L-206309 18244 L-206039 18206 L-205598 18168 L-205380 18168 L-204685 18130 L-204183 18092 L-203858 18054 L-203587 18054 L-202867 18017 L-202712 18017 L-201513 17941 L-201124 17903 L-201009 17827 L-200855 17789 L-200701 17751 L-199731 17713 L-199679 17676 L-199432 17638 L-199409 17600 L-199190 17562 L-198751 17486 L-198612 17410 L-198504 17334 L-198302 17297 L-198185 17259 L-198082 17221 L-198068 17221 L-197935 17183 L-197682 17145 L-197064 17107 L-196404 17069 L-196158 17069 L-195966 17031 L-195206 17031 L-195167 17031 L-195089 16993 L-195037 16918 L-194997 16880 L-194960 16842 L-194921 16804 L-194829 16766 L-194785 16728 L-194727 16652 L-194702 16615 L-194588 16577 L-194278 16501 L-194223 16463 L-194201 16425 L-193859 16387 L-193694 16349 L-193658 16273 L-193618 16236 L-193603 16198 L-193372 16160 L-193231 16122 L-193063 16084 L-192614 16084 L-192380 16084 L-192287 16084 L-192268 16122 L-191787 16084 L-191709 16084 L-191582 16046 L-191452 15970 L-191074 15932 L-190833 15857 L-190795 15819 L-190741 15781 L-190603 15705 L-190563 15667 L-190523 15629 L-190293 15591 L-190253 15553 L-190123 15516 L-189944 15478 L-189903 15440 L-189889 15402 L-189725 15364 L-189711 15326 L-189558 15288 L-189543 15250 L-189516 15212 L-189482 15175 L-189260 15099 L-189038 15099 L-188783 15061 L-188651 15099 L-188009 15099 L-187402 15061 L-186382 15061 L-186189 15023 L-186138 14985 L-186013 14947 L-185689 14909 L-184916 14871 L-184858 14834 L-184744 14796 L-184332 14758 L-184007 14720 L-183870 14682 L-183645 14644 L-183119 14606 L-182718 14606 L-182687 14568 L-182400 14568 L-182115 14530 L-181727 14492 L-181510 14455 L-181083 14379 L-180902 14341 L-180565 14303 L-180459 14265 L-180272 14265 L-180155 14227 L-180141 14227 L-179420 14189 L-179250 14151 L-179002 14114 L-178902 14076 L-178260 14038 L-177972 14000 L-177781 13962 L-177506 13924 L-177189 13886 L-176904 13848 L-176790 13773 L-176745 13735 L-176543 13697 L-174934 13659 L-174722 13621 L-174041 13583 L-173959 13545 L-173731 13507 L-173540 13507 L-173401 13469 L-173383 13469 L-173189 13469 L-172960 13469 L-172767 13469 L-171683 13431 L-171487 13431 L-171435 13431 L-171281 13431 L-171173 13431 L-171007 13431 L-170854 13394 L-170739 13356 L-170615 13280 L-170198 13242 L-169941 13166 L-169849 13128 L-169656 13128 L-169594 13090 L-169268 13090 L-169207 13090 L-169150 13053 L-168881 13015 L-168533 12977 L-168355 12939 L-168160 12901 L-168124 12939 L-167412 12939 L-167372 13015 L-167063 13053 L-166765 13090 L-166715 13128 L-166460 13166 L-166189 13204 L-166134 13204 L-165042 13204 L-165012 13166 L-164972 13166 L-164795 13166 L-164603 13128 L-163745 13128 L-162691 13090 L-162630 13053 L-162282 13015 L-161469 13015 L-160655 13015 L-160640 13015 L-160265 13015 L-160097 13015 L-159828 13015 L-159500 12977 L-159379 12939 L-159322 12939 L-159286 12901 L-159209 12901 L-158992 12863 L-158934 12825 L-158618 12787 L-158450 12749 L-158087 12749 L-157894 12749 L-157870 12749 L-157792 12712 L-157311 12712 L-157174 12712 L-156760 12674 L-156461 12674 L-156362 12636 L-156346 12598 L-156318 12560 L-155959 12522 L-155608 12484 L-155471 12446 L-155434 12446 L-154617 12408 L-154411 12370 L-154387 12333 L-154231 12333 L-154141 12295 L-153900 12295 L-153575 12257 L-153483 12257 L-153287 12219 L-153001 12219 L-152245 12181 L-152116 12143 L-152042 12105 L-151430 12067 L-151254 12029 L-151143 11992 L-151044 11954 L-150965 11916 L-150828 11878 L-150673 11878 L-150594 11878 L-150403 11878 L-149730 11878 L-149692 11840 L-149589 11802 L-148645 11764 L-148624 11726 L-148273 11688 L-147808 11651 L-147772 11613 L-147343 11575 L-147292 11575 L-146880 11537 L-146864 11537 L-146767 11537 L-146712 11537 L-146674 11537 L-146379 11499 L-144640 11461 L-143130 11423 L-142622 11385 L-142125 11347 L-141991 11309 L-141900 11272 L-141772 11234 L-141693 11158 L-141388 11120 L-141117 11082 L-140883 11082 L-139685 11044 L-139580 11044 L-139514 11006 L-138672 10968 L-138486 10931 L-137576 10893 L-136706 10817 L-136419 10779 L-136326 10703 L-135777 10665 L-135257 10627 L-134189 10589 L-133920 10552 L-133766 10552 L-133674 10552 L-133543 10589 L-133496 10627 L-133336 10627 L-132471 10627 L-132136 10627 L-131753 10589 L-131000 10552 L-130941 10514 L-130551 10514 L-130230 10514 L-130072 10476 L-129340 10476 L-129278 10476 L-128990 10476 L-128617 10476 L-128435 10476 L-128180 10438 L-127918 10362 L-127766 10324 L-127362 10286 L-126065 10248 L-125950 10211 L-125486 10173 L-124154 10135 L-123729 10097 L-123705 10059 L-123572 10021 L-123397 9983 L-123264 9983 L-122934 9945 L-122546 9907 L-122507 9870 L-122490 9794 L-122100 9756 L-121808 9718 L-121539 9718 L-121366 9718 L-119873 9718 L-119822 9680 L-119744 9718 L-118504 9756 L-118429 9756 L-118402 9832 L-118156 9794 L-117999 9794 L-117940 9756 L-117053 9756 L-116824 9718 L-116300 9718 L-116159 9756 L-116084 9756 L-115387 9794 L-115139 9794 L-114459 9756 L-114441 9756 L-114188 9718 L-113820 9718 L-113684 9680 L-113062 9604 L-112719 9566 L-112671 9528 L-112184 9491 L-111850 9415 L-111634 9415 L-111499 9377 L-111178 9339 L-111114 9339 L-110862 9301 L-110572 9263 L-110263 9225 L-110123 9187 L-109584 9150 L-109308 9112 L-108578 9074 L-108524 9074 L-108417 9074 L-108151 9074 L-107727 9074 L-107463 9036 L-107243 8998 L-107223 8960 L-106991 8922 L-106704 8884 L-106681 8884 L-106667 8846 L-106294 8846 L-106123 8809 L-106047 8733 L-105986 8695 L-105685 8619 L-105444 8543 L-105351 8505 L-105094 8467 L-105041 8430 L-104846 8392 L-104630 8430 L-104206 8430 L-104114 8467 L-103973 8430 L-103108 8392 L-102735 8354 L-102407 8278 L-102255 8240 L-101827 8240 L-101110 8202 L-100915 8202 L-100561 8164 L-100414 8126 L-99907 8051 L-99671 8013 L-98704 7975 L-98694 7937 L-97629 7899 L-97396 7861 L-96995 7823 L-96800 7785 L-96720 7748 L-96624 7710 L-95887 7710 L-95755 7710 L-95365 7710 L-95343 7672 L-95248 7672 L-95113 7634 L-95096 7596 L-95076 7558 L-93391 7520 L-93372 7520 L-93256 7482 L-93171 7482 L-93046 7482 L-93023 7444 L-92738 7406 L-92632 7369 L-92444 7293 L-92173 7255 L-91501 7217 L-91129 7179 L-90278 7179 L-90220 7141 L-90200 7141 L-89967 7141 L-89693 7103 L-89387 7103 L-89347 7028 L-89117 7028 L-88879 6990 L-88266 6952 L-88225 6914 L-88188 6838 L-87666 6800 L-87475 6762 L-87415 6724 L-87372 6687 L-87050 6687 L-87022 6649 L-87007 6649 L-86522 6611 L-86469 6573 L-86330 6535 L-86292 6497 L-86275 6459 L-86181 6421 L-85515 6421 L-84899 6383 L-84630 6383 L-84221 6383 L-84201 6345 L-84185 6345 L-84072 6308 L-83685 6270 L-83218 6270 L-83158 6232 L-83079 6194 L-83064 6156 L-82578 6080 L-82539 6042 L-82393 6042 L-82344 6004 L-82265 6042 L-81633 6004 L-81542 6004 L-81301 6004 L-81184 5967 L-80856 5967 L-80102 5929 L-80085 5929 L-79134 5929 L-78825 5891 L-78400 5853 L-77686 5815 L-77367 5777 L-77353 5739 L-77201 5663 L-76898 5625 L-76820 5588 L-76693 5550 L-76256 5550 L-76196 5550 L-75672 5550 L-75404 5550 L-75267 5512 L-75188 5474 L-75150 5436 L-74338 5436 L-74297 5436 L-73857 5436 L-73779 5436 L-73522 5398 L-73331 5360 L-72702 5322 L-72515 5284 L-72481 5209 L-72325 5171 L-71923 5095 L-71846 5057 L-71665 5019 L-71474 4981 L-70546 4906 L-70395 4868 L-69187 4830 L-68378 4792 L-67974 4754 L-67372 4716 L-67170 4678 L-67101 4640 L-66943 4602 L-66682 4564 L-66308 38517 L-66290 38479 L-66133 38479 L-64935 38479 L-63831 4489 L-62903 4451 L-62790 4413 L-62504 4375 L-62402 4337 L-62378 4337 L-62188 4261 L-62110 4223 L-61914 4223 L-61203 4223 L-61045 4261 L-59988 4261 L-59563 4261 L-59153 4223 L-58867 4148 L-58693 4110 L-58461 4072 L-58207 4034 L-57764 3996 L-57103 3958 L-56927 3920 L-56623 3882 L-56235 3845 L-56216 3807 L-56196 3769 L-56175 3731 L-56041 3693 L-55849 3655 L-54205 3617 L-52908 3579 L-52869 3541 L-52812 3503 L-52710 3466 L-52151 3428 L-51167 3390 L-50625 3314 L-50161 3276 L-49515 3238 L-48966 3200 L-47916 3162 L-46988 3125 L-46640 3087 L-46447 3049 L-45944 3011 L-45499 3011 L-45357 2973 L-45335 2973 L-44764 2973 L-44378 2897 L-43545 2859 L-43196 2821 L-43174 2784 L-42787 2784 L-42364 2746 L-41766 2708 L-41746 2670 L-41241 2670 L-41009 2632 L-40895 2632 L-40276 2556 L-39715 2518 L-39675 2480 L-39115 2442 L-38782 2405 L-38670 2405 L-38631 2367 L-38206 2367 L-38146 2367 L-38071 2329 L-37780 2329 L-37567 2291 L-37084 2215 L-36869 2177 L-35730 2139 L-35670 2101 L-35652 2064 L-35246 2026 L-34608 1988 L-34473 1950 L-34414 1912 L-33872 1874 L-33563 1836 L-33312 1836 L-33236 1798 L-33117 1760 L-32383 1685 L-31938 1647 L-31724 1609 L-30991 1571 L-30816 1533 L-30450 1533 L-30235 1533 L-28997 1533 L-28688 1533 L-28571 1533 L-28319 1495 L-28108 1457 L-27566 1419 L-27334 1381 L-27276 1381 L-27179 1344 L-26850 1344 L-26617 1306 L-24955 1268 L-24604 1230 L-24200 1154 L-24045 1116 L-23252 1078 L-21762 1040 L-21375 1003 L-21337 965 L-21083 927 L-20988 889 L-20795 851 L-20447 851 L-19751 813 L-19499 813 L-18783 775 L-17371 737 L-17139 699 L-16810 699 L-15593 699 L-15242 737 L-15050 775 L-14931 813 L-12497 813 L-11527 775 L-10696 737 L-10387 699 L-9045 661 L-8472 624 L-8356 586 L-8027 586 L-7931 548 L-7524 548 L-7408 510 L-7217 472 L-6461 434 L-6335 396 L-6054 358 L-5551 320 L-5474 283 L-3887 472 L-3830 661 L-3088 889 L-2707 1078 L-2378 1040 L-1715 1003 L-1585 965 L-1546 965 L-1295 965 L-1159 965 L-967 927 L-831 927 L-579 851 L-367 851 L-57 813 L214 813 L716 813 L735 813 L1169 775 L1395 737 L1838 699 L1857 661 L2360 624 L2498 586 L2612 548 L2844 510 L3154 472 L3618 434 L3695 396 L4198 358 L4469 320 L4807 283 L4992 245 L5668 207 L5687 207 L5862 169 L5882 131 L6500 93" />
</svg>
