<svg xmlns="http://www.w3.org/2000/svg" version="1.1" viewBox="0 0 6500 1000">
	<path fill="none" stroke="gold" stroke-width="125" stroke-linecap="round" stroke-linejoin="round" d="M0 137602  L-742665 137602 L-742481 137545 L-741990 137431 L-741697 137374 L-741386 137260 L-741151 137203 L-741098 137089 L-741038 136975 L-740885 136918 L-740845 136804 L-740712 136747 L-740420 136690 L-739879 136690 L-739269 136633 L-739221 136633 L-738581 136576 L-738547 136576 L-738022 136576 L-737889 136519 L-737499 136405 L-737171 136290 L-737054 136176 L-736842 136062 L-736125 136062 L-735556 136005 L-735448 136005 L-735274 135948 L-735052 135834 L-734651 135777 L-734625 135663 L-733697 135549 L-733610 135435 L-733527 135321 L-733457 135207 L-733160 135150 L-733008 135035 L-731118 135092 L-731017 135092 L-730755 135092 L-730461 135150 L-730320 135035 L-730071 135035 L-730035 134978 L-729877 134921 L-729414 134807 L-729161 134750 L-728948 134636 L-728697 134579 L-728348 134522 L-727421 134408 L-727327 134294 L-726916 134237 L-725745 134123 L-724556 134066 L-724464 133952 L-724437 133837 L-724171 133723 L-723872 133609 L-723743 133495 L-723705 133381 L-722891 133381 L-722507 133438 L-721446 133495 L-721385 133495 L-721120 134636 L-720649 135720 L-720456 136804 L-720193 137888 L-719856 137831 L-719720 137774 L-719265 137717 L-718521 137660 L-718504 137602 L-718339 137488 L-718271 137488 L-717754 137431 L-716726 137431 L-716530 137374 L-716041 137317 L-715679 137260 L-715270 137260 L-714885 137317 L-713181 137317 L-713083 137317 L-713011 137317 L-712950 137317 L-712766 137260 L-712429 137260 L-711789 137203 L-711712 137146 L-711650 137146 L-711464 137089 L-711384 137089 L-711207 137032 L-711188 136975 L-710958 136975 L-710570 136918 L-709681 136918 L-709642 136861 L-709554 136804 L-709527 136690 L-708518 136633 L-708369 136519 L-708344 136462 L-708212 136405 L-708172 136347 L-706913 136290 L-706856 136290 L-706316 136233 L-706263 136233 L-706217 136233 L-705822 136176 L-705682 136119 L-705482 136062 L-705336 136062 L-705171 136062 L-704894 136119 L-704536 136119 L-703983 136062 L-703338 136005 L-703079 135891 L-702926 135834 L-702525 135777 L-702484 135720 L-702364 135663 L-702302 135720 L-702288 135720 L-702194 135720 L-701901 135663 L-701750 135435 L-701419 135321 L-701342 135207 L-701266 135150 L-701039 134978 L-700973 134864 L-700745 134750 L-700693 134636 L-700528 134579 L-699522 134522 L-699339 134465 L-698788 134408 L-698395 134294 L-697997 134237 L-697147 134123 L-697069 134066 L-696490 134009 L-696049 134009 L-695808 133952 L-695650 133952 L-695250 133837 L-695229 133837 L-694784 133780 L-694379 133723 L-694243 133609 L-694068 133495 L-693931 133381 L-693681 133267 L-692681 133210 L-692599 133153 L-692463 133096 L-692425 133039 L-691535 132982 L-691319 132925 L-690876 132868 L-690759 132811 L-690702 132754 L-690026 132754 L-689925 132697 L-689896 132697 L-688555 132640 L-688149 132583 L-688109 132525 L-687181 132468 L-687083 132411 L-686950 132354 L-686546 132297 L-686520 132240 L-686427 132183 L-686210 132126 L-685799 132012 L-684646 131898 L-684354 131784 L-684325 131670 L-683717 131613 L-683467 131499 L-683447 131442 L-682518 131385 L-682467 131270 L-682344 131213 L-682327 131099 L-682171 131042 L-681996 130928 L-681859 130871 L-681802 130814 L-681695 130757 L-681609 130700 L-681376 130643 L-681301 130586 L-680993 130529 L-680875 130472 L-680705 130415 L-680614 130358 L-680511 130358 L-680488 130301 L-680411 130301 L-680313 130187 L-679946 130130 L-679841 130073 L-679338 130015 L-678886 129958 L-678848 129901 L-678824 129844 L-678783 129787 L-678655 129730 L-678554 129673 L-678112 129616 L-677830 129559 L-677237 129502 L-677107 129445 L-676833 129331 L-676680 129274 L-676527 129217 L-676442 129103 L-676364 129046 L-676178 128989 L-676127 128989 L-676100 128932 L-676020 128875 L-675997 128818 L-675714 128703 L-675110 128589 L-674115 128532 L-673817 128475 L-673083 128418 L-672838 128361 L-672748 128304 L-672171 128247 L-671473 128190 L-670720 128133 L-670402 128076 L-670019 127962 L-669942 127905 L-669307 127848 L-669122 127791 L-669034 127791 L-668905 127791 L-668592 127734 L-668543 127677 L-668400 127620 L-668379 127563 L-667411 127505 L-666866 127448 L-666387 127448 L-666326 127448 L-666003 127448 L-665981 127391 L-665919 127391 L-665709 127334 L-665632 127277 L-665577 127220 L-665555 127163 L-665515 127106 L-665500 127049 L-664743 126992 L-664726 126935 L-663927 126878 L-663774 126821 L-662869 126764 L-662363 126707 L-662133 126593 L-662092 126593 L-661977 126536 L-661800 126479 L-661046 126536 L-660911 126479 L-660747 126422 L-660429 126365 L-660253 126250 L-659231 126136 L-659208 126022 L-658956 125965 L-658743 125851 L-658109 125794 L-657872 125680 L-657839 125566 L-657661 125452 L-657581 125338 L-657491 125281 L-657426 125167 L-656986 125053 L-656963 124996 L-656422 124938 L-656166 124881 L-655671 124824 L-654794 124767 L-654757 124710 L-654704 124653 L-654663 124596 L-654546 124539 L-654270 124482 L-654063 124368 L-653865 124254 L-653842 124140 L-653792 124026 L-653753 123969 L-653675 123912 L-653077 123798 L-653017 123741 L-652914 123683 L-652759 123626 L-652127 123569 L-651447 123512 L-651144 123398 L-650797 123341 L-650600 123284 L-650552 123170 L-650231 123113 L-649603 123056 L-649457 122999 L-649420 122942 L-649363 122885 L-649286 122771 L-649045 122771 L-648956 122714 L-648862 122657 L-648569 122600 L-648434 122543 L-648374 122486 L-648337 122371 L-648065 122371 L-647059 122314 L-646883 122257 L-646833 122257 L-646540 122200 L-646348 122086 L-646014 122029 L-645508 121972 L-644946 121858 L-644931 121744 L-644914 121687 L-644814 121573 L-644699 121459 L-644660 121345 L-644622 121288 L-644557 121288 L-644529 121231 L-644390 121288 L-644097 121288 L-644047 121288 L-643942 121288 L-643677 121231 L-643212 121173 L-643068 121173 L-643013 121059 L-642956 121002 L-642765 120945 L-642400 120888 L-642185 120888 L-641991 120888 L-641933 120888 L-641874 120774 L-641720 120717 L-641451 120660 L-641021 120945 L-641005 120945 L-640928 120888 L-640864 120831 L-640734 120432 L-640711 120375 L-640427 120318 L-640379 120261 L-640325 120204 L-639862 120147 L-639823 120147 L-639783 120090 L-639592 120033 L-639112 119976 L-638625 119918 L-638608 119861 L-638570 119804 L-638314 119747 L-638237 119633 L-638007 119576 L-637991 119462 L-637696 119348 L-637254 119291 L-636807 119234 L-636303 119177 L-636149 119120 L-635862 119063 L-635822 118949 L-635491 118892 L-635269 118835 L-634752 118721 L-634676 118664 L-634428 118549 L-634234 118435 L-634174 118378 L-633398 118321 L-633324 118321 L-633093 118264 L-633076 118264 L-633015 118207 L-632819 118150 L-632355 118150 L-632331 118093 L-632202 118093 L-630901 118093 L-630884 118093 L-630807 118036 L-630714 118036 L-630496 118036 L-630344 117979 L-630166 118036 L-630112 118093 L-629825 118150 L-629785 118150 L-629416 118150 L-628975 118150 L-628792 118150 L-628471 118093 L-628176 118093 L-627730 117979 L-627658 117922 L-627196 117808 L-626758 117751 L-626576 117694 L-625122 117580 L-624990 117523 L-624533 117409 L-624307 117351 L-623920 117237 L-623404 117123 L-622450 117009 L-621656 116895 L-620981 116838 L-620556 116724 L-620244 116667 L-620015 116496 L-619331 116325 L-619318 116154 L-619108 115925 L-619086 115868 L-618912 115754 L-617962 115697 L-617694 115583 L-616878 115526 L-616568 115412 L-616530 115355 L-616473 115241 L-615856 115184 L-615218 115070 L-613592 115013 L-612919 114956 L-612276 114956 L-612199 114956 L-612143 114956 L-612107 114956 L-612078 114899 L-611967 114784 L-611949 114727 L-611926 114670 L-611773 114613 L-611719 114499 L-611641 114442 L-611522 114385 L-611424 114328 L-611307 114271 L-611037 114157 L-610768 114100 L-610750 113986 L-610550 113929 L-610403 113815 L-610177 113758 L-610043 113701 L-609734 113644 L-609674 113586 L-609321 113472 L-608972 113415 L-608871 113358 L-608807 113244 L-608747 113187 L-608362 113073 L-607982 113016 L-607877 112959 L-607617 112902 L-607346 112788 L-607187 112731 L-607154 112674 L-607092 112617 L-606951 112560 L-606767 112503 L-606723 112446 L-606435 112446 L-606418 112389 L-606185 112389 L-606124 112332 L-606086 112332 L-605506 112274 L-605372 112217 L-605349 111989 L-605331 111590 L-605313 111134 L-605297 110677 L-605273 110221 L-605257 109879 L-605236 109479 L-605219 109080 L-605196 108852 L-605179 108624 L-605157 108452 L-605141 108338 L-605092 108167 L-605019 107996 L-604985 107711 L-604961 107483 L-604925 107254 L-604884 107026 L-604847 106912 L-604831 106684 L-604807 106513 L-604770 106399 L-604753 106228 L-604730 106114 L-604712 106000 L-604694 105885 L-604678 105771 L-604648 105600 L-604622 105429 L-604577 105372 L-604561 105258 L-604519 105201 L-604471 105087 L-604400 104973 L-604384 104859 L-604368 104745 L-604306 104687 L-604267 104630 L-604228 104573 L-604062 104516 L-603997 104459 L-603981 104402 L-603937 104288 L-603878 104231 L-603666 104174 L-603632 104117 L-603590 104060 L-603512 104003 L-602974 103946 L-602896 103889 L-602792 103775 L-602703 103718 L-602527 103661 L-602176 103604 L-602021 103547 L-601583 103490 L-601426 103432 L-601296 103375 L-600592 103261 L-600391 103204 L-599431 103090 L-598948 103033 L-598849 103033 L-598757 102976 L-598512 102919 L-598439 102862 L-597996 102748 L-597900 102691 L-597885 102634 L-597869 102577 L-597844 102520 L-597378 102463 L-597161 102406 L-597021 102349 L-596727 102292 L-596639 102235 L-596598 102177 L-596568 102120 L-596395 102063 L-596336 102006 L-596260 101949 L-596180 101892 L-596110 101892 L-595801 101835 L-595715 101778 L-595502 101721 L-595466 101664 L-594783 101607 L-594684 101550 L-594479 101493 L-594433 101436 L-594154 101379 L-594092 101322 L-594075 101208 L-593997 101151 L-593689 101037 L-593665 100980 L-593611 100865 L-593588 100808 L-593466 100751 L-593330 100637 L-593086 100580 L-592960 100580 L-592313 100523 L-592297 100523 L-592272 100523 L-592092 100409 L-592016 100352 L-591924 100295 L-591497 100238 L-591080 100181 L-590687 100067 L-590609 100010 L-590590 99953 L-590227 99896 L-589990 99839 L-589762 99782 L-589449 99725 L-589371 99667 L-589290 99553 L-589112 99439 L-589097 99382 L-588831 99268 L-588751 99211 L-588521 99154 L-588295 99097 L-587979 99097 L-587804 99040 L-587443 99040 L-587051 98983 L-586982 98869 L-586918 98812 L-586778 98698 L-586726 98641 L-586624 98527 L-586122 98470 L-585925 98413 L-585678 98355 L-585493 98298 L-585193 98241 L-585117 98184 L-584951 98070 L-584067 98013 L-584038 97899 L-583915 97785 L-583336 97728 L-583259 97671 L-582545 97671 L-582233 97671 L-582020 97671 L-582003 97671 L-581617 97671 L-581092 97557 L-580646 97500 L-580316 97443 L-580163 97386 L-579837 97386 L-579659 97329 L-579578 97329 L-579371 97215 L-579196 97158 L-578267 97100 L-577377 97043 L-577338 96986 L-577110 96986 L-576731 96929 L-575944 96872 L-575709 96815 L-575633 96758 L-575276 96701 L-574704 96587 L-574437 96530 L-574051 96473 L-573947 96473 L-573777 96473 L-573159 96473 L-572947 96473 L-572640 96473 L-572587 96416 L-572459 96359 L-572406 96302 L-572287 96245 L-571950 96131 L-570991 96074 L-570860 95960 L-570658 95903 L-570027 95845 L-569715 95788 L-569302 95731 L-569274 95674 L-569129 95617 L-568709 95560 L-567376 95560 L-567329 95503 L-567201 95389 L-567184 95332 L-566606 95218 L-566400 95161 L-566371 95104 L-566330 95047 L-566272 94990 L-566235 94933 L-566157 94876 L-566014 94819 L-565559 94762 L-565441 94705 L-565156 94648 L-564783 94590 L-564687 94533 L-564360 94476 L-564006 94419 L-563836 94362 L-563788 94305 L-563679 94248 L-563590 94191 L-563562 94134 L-563486 94020 L-563183 93963 L-563149 93849 L-563077 93792 L-562709 93735 L-562374 93678 L-562293 93678 L-562073 93621 L-561902 93564 L-561874 93507 L-561377 93450 L-560828 93335 L-559947 93278 L-559849 93164 L-559772 93107 L-559497 93050 L-559250 92936 L-559176 92879 L-559115 92765 L-558996 92708 L-558953 92651 L-558843 92594 L-558766 92480 L-558066 92423 L-557820 92366 L-557781 92309 L-557624 92252 L-557025 92252 L-556798 92252 L-556706 92252 L-556231 92252 L-555633 92138 L-555114 92081 L-555093 92023 L-554947 91966 L-554627 91966 L-554086 91966 L-553853 91966 L-553683 91966 L-553197 91909 L-552969 91852 L-552884 91795 L-552538 91738 L-552212 91738 L-551689 91681 L-551361 91624 L-550761 91567 L-550563 91453 L-550511 91396 L-550471 91339 L-550190 91282 L-549505 91168 L-549195 91111 L-549170 90997 L-548979 90940 L-548756 90883 L-548670 90826 L-548006 90711 L-547982 90654 L-547760 90540 L-547430 90483 L-547078 90369 L-546874 90312 L-546641 90198 L-546383 90141 L-546194 90027 L-546147 89970 L-545919 89913 L-545885 89856 L-545728 89799 L-545514 89742 L-545341 89685 L-545249 89628 L-544972 89571 L-544728 89513 L-544413 89456 L-543987 89456 L-543950 89456 L-543466 89456 L-543233 89456 L-543021 89399 L-542795 89342 L-542245 89342 L-541998 89285 L-541164 89285 L-541108 89228 L-541086 89171 L-540928 89114 L-540467 89057 L-540426 89000 L-540086 88886 L-539953 88829 L-539730 88772 L-539158 88715 L-538686 88658 L-538492 88601 L-538299 88544 L-538109 88487 L-538007 88430 L-537639 88373 L-537593 88316 L-537511 88258 L-536218 88201 L-536170 88144 L-535901 88144 L-535756 88144 L-535205 88144 L-535088 88087 L-535007 88030 L-534647 87973 L-534424 87916 L-534143 87859 L-533813 87745 L-533305 87688 L-533193 87631 L-533114 87574 L-532950 87517 L-532655 87517 L-532187 87517 L-531990 87574 L-531940 87574 L-531290 87517 L-531168 87460 L-530714 87460 L-530678 87403 L-530210 87346 L-530099 87289 L-530083 87232 L-529867 87232 L-529686 87175 L-529154 87175 L-528125 87175 L-527925 87118 L-527467 87061 L-526519 86946 L-526420 86889 L-526066 86775 L-526005 86718 L-525991 86661 L-525955 86604 L-525586 86547 L-525466 86490 L-525224 86433 L-525060 86376 L-524873 86319 L-524752 86262 L-523682 86148 L-522823 86091 L-522611 85977 L-522514 85920 L-522340 85806 L-522007 85749 L-521935 85691 L-521877 85634 L-521702 85634 L-521313 85577 L-521077 85520 L-520966 85463 L-520849 85406 L-519868 85349 L-519843 85292 L-519249 85178 L-519216 85178 L-519068 85121 L-518783 85064 L-517871 85064 L-516925 85064 L-516772 85007 L-516670 85007 L-516538 84950 L-516395 84893 L-516369 84836 L-516254 84779 L-516036 84722 L-515355 84665 L-515225 84608 L-514922 84551 L-514682 84436 L-514349 84379 L-513711 84322 L-513368 84208 L-513306 84151 L-513151 84151 L-512229 84151 L-511759 84151 L-511715 84151 L-511702 84094 L-511661 84037 L-511639 83980 L-511612 83923 L-511468 83866 L-511046 83809 L-510710 83809 L-510519 83752 L-510091 83752 L-509903 83695 L-509514 83581 L-508980 83524 L-508607 83467 L-508586 83467 L-508336 83410 L-508217 83353 L-508141 83296 L-508006 83239 L-507966 83181 L-507887 83124 L-507492 83067 L-506996 83010 L-506884 82896 L-506711 82839 L-506403 82782 L-505956 82725 L-505633 82668 L-505490 82554 L-505063 82440 L-504910 82326 L-504854 82212 L-504041 82155 L-504021 82098 L-503649 82041 L-503592 82041 L-502463 81984 L-502395 81984 L-501837 81926 L-501642 81869 L-501506 81812 L-501272 81755 L-500926 81698 L-500891 81584 L-500856 81527 L-500787 81413 L-500438 81356 L-500266 81299 L-499781 81242 L-499765 81185 L-499440 81128 L-499283 81071 L-498142 80957 L-498117 80900 L-497925 80786 L-497732 80729 L-497481 80671 L-497464 80614 L-496444 80557 L-496146 80500 L-496071 80443 L-495935 80329 L-495759 80272 L-495182 80158 L-494967 80101 L-494903 80044 L-494772 79987 L-494735 79873 L-494212 79816 L-494074 102292 L-494060 102292 L-494037 102292 L-494017 102292 L-493789 79759 L-493014 79759 L-492972 79759 L-492604 79759 L-492526 79702 L-492474 79645 L-491801 79588 L-491058 79531 L-490634 79531 L-490186 79474 L-489124 79416 L-488813 79302 L-488402 79302 L-488330 79245 L-487806 79245 L-487712 79245 L-487694 79245 L-487249 79188 L-487064 79074 L-486283 78960 L-485611 78903 L-485199 78732 L-484967 78618 L-484826 78561 L-484745 78447 L-484725 78390 L-484649 78390 L-484520 78333 L-484203 78390 L-483979 78390 L-483654 78333 L-483592 78333 L-483222 78333 L-483189 78333 L-482980 78333 L-482313 78333 L-482235 78333 L-482077 78219 L-481967 78219 L-481640 78162 L-481485 78104 L-481144 78104 L-481087 77990 L-480749 77876 L-480546 77819 L-480493 77705 L-479116 77648 L-478986 77591 L-478553 77534 L-478233 77477 L-477405 77363 L-477281 77306 L-476551 77192 L-476395 77078 L-476354 77021 L-476300 76964 L-476277 76907 L-476163 76849 L-475867 76792 L-475577 76735 L-475522 76678 L-475402 76621 L-475372 76564 L-475272 76507 L-474828 76507 L-474676 76450 L-473841 76450 L-473299 76393 L-472964 76393 L-472949 76336 L-472873 76279 L-472757 76222 L-472562 76165 L-472298 76108 L-471463 76051 L-471367 75994 L-470846 75937 L-470804 75880 L-470705 75823 L-469876 75823 L-469741 75766 L-469403 75766 L-468848 75709 L-468469 75652 L-468306 75594 L-467996 75537 L-467183 75480 L-466877 75423 L-466609 75423 L-466287 75423 L-465966 75480 L-465691 75480 L-464862 75366 L-464767 75309 L-464675 75138 L-464570 74967 L-464183 74796 L-463703 74682 L-463687 74625 L-463568 74568 L-463200 74454 L-463105 74397 L-462272 74282 L-462194 74225 L-461895 74168 L-461804 74111 L-461397 73997 L-461287 73883 L-460588 73826 L-460114 73769 L-460054 73712 L-459835 73598 L-459562 73541 L-459449 73484 L-458422 73427 L-458035 73370 L-458015 73313 L-457682 73256 L-457437 73199 L-457004 73142 L-456894 73084 L-456776 73027 L-456325 72913 L-455734 72856 L-455398 72799 L-453505 72742 L-453391 72628 L-453179 72571 L-451861 72514 L-451755 59679 L-451689 47015 L-451652 35321 L-451591 35321 L-451091 48042 L-450416 60592 L-450394 72172 L-450124 72058 L-449156 72058 L-448466 72001 L-448304 71944 L-447764 71887 L-447674 71830 L-446655 71772 L-445707 71658 L-445341 71715 L-445238 71772 L-444650 71772 L-444591 71772 L-444490 71715 L-444050 71601 L-443942 71544 L-443501 71487 L-442501 71316 L-442245 71145 L-442142 70974 L-442012 70860 L-441645 70746 L-441064 70632 L-441033 70575 L-440718 70517 L-438735 70460 L-438619 70403 L-438551 70403 L-438193 70346 L-436574 70289 L-436396 70289 L-436252 70289 L-435430 70346 L-435377 70403 L-435322 70403 L-434888 70403 L-433908 70460 L-433834 70460 L-432749 70403 L-432536 70403 L-431820 70289 L-431432 70232 L-431213 70118 L-430893 70004 L-430400 69890 L-430272 69833 L-430043 69719 L-429811 69605 L-429751 69548 L-429462 69491 L-429190 69377 L-428160 69320 L-426495 69262 L-426076 69205 L-425939 69148 L-425782 69148 L-425477 69091 L-425249 68977 L-425091 68920 L-424931 68806 L-424762 68692 L-424715 68635 L-424661 68578 L-424640 68578 L-424254 68521 L-424004 68521 L-423733 68521 L-423573 68521 L-423483 68521 L-421824 68521 L-421659 68578 L-421279 68521 L-420819 68521 L-420209 68407 L-419116 68350 L-418685 68293 L-418654 68236 L-418591 68179 L-418574 68122 L-416870 68065 L-416828 68007 L-416362 67950 L-416175 67893 L-416143 67779 L-415548 67722 L-415498 67665 L-415175 67608 L-415124 67551 L-414914 67494 L-414896 67437 L-414630 67323 L-414577 67266 L-414108 67209 L-413597 67095 L-413519 67095 L-413225 67038 L-413208 66981 L-413170 66924 L-413099 66867 L-412941 66810 L-411995 66810 L-411939 66810 L-411418 66810 L-411226 66752 L-411125 66752 L-410899 66695 L-410389 66695 L-410001 68236 L-409931 68236 L-409583 68179 L-409226 68122 L-408097 66467 L-408046 66353 L-407820 66296 L-407786 66239 L-407661 66125 L-407562 66125 L-407297 66125 L-406557 66182 L-405979 66182 L-405685 66182 L-404979 66182 L-404800 66125 L-404777 66125 L-404141 66068 L-403830 66011 L-403433 66011 L-403404 65954 L-403383 65897 L-403229 65840 L-402544 65840 L-402527 65840 L-402188 65840 L-401915 65783 L-401878 65726 L-401822 65612 L-401800 65555 L-401728 65498 L-401396 65440 L-401290 65383 L-401261 65269 L-401063 65212 L-400910 65155 L-400042 65098 L-399479 64984 L-399464 64984 L-399362 64927 L-399260 64984 L-399114 64984 L-399035 64984 L-398997 64927 L-398942 64870 L-398869 64813 L-398724 64756 L-398242 64756 L-397837 64699 L-396971 64756 L-396951 64756 L-396694 64756 L-396617 64756 L-396588 64699 L-396577 64585 L-396560 64528 L-396267 64471 L-396228 64414 L-396156 64357 L-396082 64300 L-395877 64243 L-395717 64071 L-395416 63900 L-395339 63672 L-395321 63501 L-395105 63387 L-394874 63387 L-394764 63444 L-394394 63501 L-394236 63501 L-394004 63501 L-393836 63501 L-393691 63444 L-393559 63387 L-392283 63273 L-391880 63159 L-391819 63102 L-391702 62988 L-391277 62930 L-391261 62816 L-391200 62759 L-390926 62645 L-390814 62588 L-390531 62474 L-390254 62417 L-389829 62303 L-389807 62246 L-389729 62189 L-389603 62132 L-389016 62075 L-388625 62018 L-388290 61961 L-387700 61904 L-387598 61904 L-387428 61847 L-387292 61847 L-386464 61790 L-385279 61733 L-385243 61675 L-385187 61675 L-384967 61618 L-384761 61618 L-384607 61618 L-384350 61561 L-384274 61504 L-383731 61447 L-383695 61390 L-383446 61333 L-383058 61276 L-382233 61219 L-381874 61162 L-381564 61162 L-381306 61105 L-381082 61048 L-380676 60991 L-380560 60934 L-380376 60877 L-380323 60877 L-380135 60820 L-379964 60763 L-379935 60706 L-379655 60649 L-379344 60592 L-379206 60535 L-378896 60478 L-378702 60478 L-378687 60420 L-377968 60420 L-377834 60306 L-377536 60249 L-377446 60192 L-376845 60192 L-376807 60135 L-376729 60078 L-376108 60021 L-375957 59907 L-375916 59850 L-375605 59793 L-375414 59736 L-375221 59622 L-375165 59508 L-374856 59451 L-374804 59394 L-374750 59451 L-374724 59451 L-374599 59451 L-373788 59394 L-373712 59337 L-373171 59280 L-372903 59223 L-372243 59166 L-371335 59108 L-371094 59051 L-370562 58994 L-370345 58937 L-369237 58994 L-369187 58994 L-368411 58994 L-367864 58937 L-367753 58880 L-367600 58766 L-367544 58709 L-367379 58652 L-367002 58595 L-366554 58538 L-366500 58481 L-366345 58424 L-365665 58367 L-365445 58310 L-364927 58253 L-364078 58139 L-364062 58082 L-362271 58025 L-361717 57968 L-361600 57911 L-360594 57853 L-360557 57796 L-360325 57796 L-360232 57796 L-360192 57796 L-359860 57739 L-359508 57682 L-359243 57568 L-358956 57511 L-358645 57397 L-358391 57283 L-358298 57226 L-357808 57169 L-357600 57112 L-357035 57055 L-356920 57112 L-356569 57055 L-356518 57055 L-356477 57055 L-355874 56941 L-355140 56827 L-354559 56713 L-354324 56598 L-353783 56427 L-353631 56313 L-353129 56256 L-352920 56142 L-352896 56142 L-352838 56085 L-351875 56085 L-351697 56028 L-351255 55971 L-351231 55857 L-351076 55800 L-350994 55800 L-350844 55857 L-350197 55857 L-350148 55800 L-349028 55743 L-348044 55686 L-347982 55629 L-347261 55572 L-346397 55515 L-346018 55458 L-345799 55458 L-345039 55401 L-344987 55343 L-344678 55229 L-343827 55229 L-343634 55172 L-343457 55115 L-343233 55115 L-343106 55058 L-342914 55058 L-342681 55001 L-342512 55058 L-342225 55001 L-341946 55001 L-341863 54944 L-341692 54887 L-341676 54773 L-341522 54716 L-341483 54659 L-340707 54602 L-340631 54602 L-340398 54488 L-339971 54431 L-339626 54374 L-339043 54317 L-338774 54317 L-338515 54317 L-338386 54203 L-338369 54146 L-338256 54088 L-338232 54031 L-337998 53974 L-337962 53917 L-336646 53917 L-336590 53860 L-335911 53746 L-335338 53746 L-335213 53746 L-335060 53746 L-334983 53746 L-334671 53632 L-334398 53575 L-334309 53461 L-334207 53461 L-333279 53404 L-333203 53404 L-332839 53404 L-332814 53347 L-332778 53290 L-332002 53176 L-331911 53119 L-331771 53062 L-331369 53005 L-331107 53005 L-330864 53062 L-330650 53005 L-330569 53005 L-330493 53005 L-330416 53005 L-330230 53062 L-330163 53062 L-329913 53062 L-329858 53005 L-329721 52948 L-329641 52833 L-329528 52776 L-329305 52719 L-329140 52662 L-329099 52605 L-328930 52548 L-328559 52491 L-328544 52434 L-328428 52377 L-327707 52320 L-327671 52263 L-327538 52263 L-327190 52206 L-326779 52206 L-326743 52206 L-326665 52149 L-326626 52092 L-326262 52035 L-326058 51978 L-326043 51921 L-325697 51864 L-325349 51864 L-325023 51864 L-324921 51807 L-324768 51807 L-324574 51750 L-324342 51750 L-324250 51750 L-324094 51750 L-324017 51750 L-323976 51693 L-323863 51636 L-323839 51579 L-323589 51579 L-323450 51464 L-322872 51293 L-322044 51179 L-321556 51065 L-321435 51008 L-321396 50951 L-321384 50894 L-321231 50780 L-321130 50666 L-320897 50609 L-320507 50495 L-320203 50438 L-320187 50381 L-320016 50324 L-319778 50209 L-319182 50209 L-318578 50152 L-318538 50152 L-318498 50152 L-318344 50095 L-318291 50038 L-318229 49981 L-318161 49924 L-318106 49810 L-318081 49753 L-318034 49696 L-317940 49582 L-317802 49525 L-317649 49468 L-317517 49411 L-317476 49411 L-317440 49354 L-317378 49297 L-317105 49183 L-316791 49126 L-316750 49011 L-316665 48954 L-316487 48897 L-316250 48840 L-315892 48783 L-315863 48726 L-315293 48669 L-315170 48612 L-314934 48555 L-314912 48555 L-314630 48498 L-314345 48498 L-314089 48498 L-313518 48441 L-313221 48384 L-313145 48327 L-312446 48270 L-312368 48213 L-312333 48156 L-312307 48099 L-312255 47985 L-312061 47928 L-311921 47814 L-311885 47756 L-311845 47699 L-311250 47642 L-311017 47585 L-310734 47985 L-310679 48327 L-310605 48726 L-310527 49069 L-310291 48954 L-310047 48897 L-309912 48840 L-309805 48783 L-309726 48726 L-309338 48612 L-309211 48555 L-309059 48498 L-309021 48441 L-308875 48384 L-308654 48327 L-308480 48270 L-308411 48213 L-307589 48099 L-307573 48099 L-307279 48042 L-306491 47985 L-306181 47985 L-306035 47928 L-305807 47871 L-305606 47756 L-304669 47699 L-304632 47642 L-304610 47585 L-304569 47471 L-304300 47414 L-303704 47357 L-303640 47300 L-303604 47243 L-303588 47186 L-302892 47186 L-302691 47186 L-302659 47186 L-302326 47186 L-302218 47129 L-301593 47015 L-301089 46958 L-301052 46844 L-300610 46844 L-300514 46787 L-300355 46787 L-300041 46787 L-300029 46787 L-299589 46844 L-299107 46901 L-298978 46901 L-298658 46901 L-298590 46844 L-298285 46844 L-298110 46787 L-297916 46730 L-297673 46616 L-297476 46501 L-297450 46387 L-296872 46330 L-296802 46273 L-296392 46216 L-296338 46159 L-296292 46102 L-295928 46045 L-295781 45988 L-295576 45931 L-295480 45931 L-295325 45874 L-295263 45817 L-295116 45703 L-295015 45646 L-294458 45646 L-294436 45760 L-294264 45817 L-293722 45874 L-293661 45874 L-293607 45760 L-293579 45646 L-293507 45589 L-293491 45475 L-293427 45418 L-293391 45304 L-293236 45247 L-292911 45189 L-292345 45132 L-292330 45075 L-292268 44961 L-292166 44847 L-292120 44847 L-291878 44790 L-291455 44790 L-291301 44790 L-289559 44676 L-289017 44619 L-288074 44562 L-287665 44505 L-287124 44391 L-286927 44334 L-286759 44277 L-286463 44220 L-286348 44163 L-286333 44163 L-286178 44106 L-286038 44049 L-285962 43934 L-285830 43934 L-285482 43934 L-285111 43992 L-284513 43992 L-284338 43992 L-284181 43934 L-283912 43877 L-283761 43877 L-283470 44049 L-283446 44163 L-283363 44277 L-283136 44391 L-282436 44334 L-282309 44277 L-281878 44220 L-281784 44163 L-280579 44163 L-280530 44106 L-280237 44106 L-279833 44049 L-279557 43934 L-279538 43877 L-279420 43820 L-279344 43763 L-279162 43706 L-278682 43649 L-278231 43535 L-277821 43478 L-277791 43421 L-277372 43364 L-277258 43364 L-277140 43364 L-277125 43364 L-276930 43307 L-276909 43193 L-276677 43136 L-276233 43079 L-275914 42965 L-275449 42965 L-275284 42908 L-275129 42851 L-274973 42851 L-274520 42851 L-274201 42851 L-274146 42908 L-273775 42908 L-273737 42965 L-273411 42965 L-273294 42908 L-273195 42851 L-272869 42737 L-272482 42679 L-272221 42622 L-271863 42508 L-271606 42451 L-269436 42394 L-269387 42337 L-269364 42280 L-268953 42280 L-268891 42280 L-268821 42337 L-268590 42337 L-268279 42280 L-267976 42166 L-267932 42109 L-267624 42052 L-267491 41995 L-267274 41938 L-266562 41881 L-266407 41881 L-266269 41824 L-266120 41824 L-266099 41824 L-265905 41767 L-265879 41710 L-265788 41653 L-265766 41596 L-265750 41539 L-265650 41482 L-264721 41424 L-264263 41424 L-263171 41310 L-262749 41310 L-262345 41253 L-262306 41196 L-262053 41139 L-261278 41025 L-261262 40968 L-261238 40911 L-261044 40854 L-260308 40797 L-260039 40740 L-259998 40683 L-259599 40569 L-259575 40512 L-258785 40455 L-258105 40398 L-256734 40341 L-256464 40284 L-256416 40227 L-255878 40112 L-255845 40055 L-255743 39941 L-255420 39884 L-255340 39827 L-255071 39827 L-254159 39770 L-254020 39770 L-253771 39656 L-253226 39656 L-252804 39599 L-252610 39542 L-252595 39542 L-252457 39428 L-252363 39371 L-252236 39314 L-251976 39257 L-251951 39143 L-251860 39086 L-251550 39029 L-251489 38972 L-251372 38972 L-251023 38972 L-250212 38972 L-249981 38857 L-249152 38857 L-248920 38743 L-248703 38686 L-248185 38686 L-247546 38629 L-247130 38572 L-246808 38515 L-246327 38458 L-245902 38458 L-245840 38401 L-245492 38401 L-245451 38344 L-245437 38287 L-245338 38173 L-245293 38173 L-244807 38116 L-244006 38116 L-243671 38116 L-242590 38059 L-242110 38002 L-242087 37945 L-241947 37888 L-241392 37831 L-240695 37774 L-240386 37717 L-240164 37660 L-240059 37602 L-239957 37488 L-239286 37431 L-239192 37374 L-239170 37374 L-239092 37317 L-238914 37317 L-238742 37317 L-238561 37260 L-238548 37203 L-238472 37146 L-238307 37089 L-237793 37032 L-237777 36975 L-237636 36975 L-237274 36918 L-237250 36918 L-237119 36861 L-237094 36804 L-236732 36747 L-236207 36633 L-236113 36576 L-235897 36462 L-235804 36405 L-235779 36347 L-235315 36290 L-235238 36290 L-234836 36233 L-234385 36233 L-233134 36176 L-233095 36119 L-232663 36062 L-232631 36005 L-231912 35948 L-231735 35891 L-231600 35834 L-231293 35777 L-231238 35720 L-231213 35606 L-231197 35492 L-231022 35435 L-230833 35378 L-230325 35378 L-229951 34921 L-229613 34408 L-229574 33952 L-228856 33552 L-228762 33495 L-228723 33438 L-228182 33438 L-228158 33381 L-227756 33324 L-227330 33267 L-227059 33267 L-226880 33210 L-226634 33096 L-226610 33039 L-226554 32925 L-225937 32868 L-225434 32811 L-225047 32811 L-224428 32868 L-224212 32868 L-224057 32925 L-222765 32811 L-222666 32754 L-222223 32640 L-221892 32583 L-221591 32468 L-221349 32411 L-220614 32297 L-220035 32240 L-219205 32183 L-219105 32126 L-218547 32069 L-218409 32012 L-216768 31955 L-216707 31955 L-216613 31955 L-215646 31955 L-215469 31898 L-215181 31898 L-214964 31898 L-214885 31841 L-214614 31841 L-214499 31784 L-214346 31727 L-214035 31670 L-213957 31613 L-213866 31613 L-213789 31556 L-213673 31556 L-213493 31499 L-213401 31442 L-213363 31385 L-212860 31385 L-212642 31328 L-212512 31328 L-212357 31270 L-212302 31213 L-212178 31213 L-211793 31156 L-211284 31099 L-211212 31042 L-210732 30985 L-210655 30928 L-210555 30928 L-210321 30871 L-209856 30871 L-209626 30871 L-209610 30871 L-209378 30871 L-209223 30871 L-209162 30871 L-208969 30814 L-208698 30700 L-207946 30643 L-206993 30643 L-206957 30586 L-206732 30586 L-206292 30586 L-206012 30472 L-205663 30415 L-204594 30358 L-203666 30358 L-203536 30358 L-203489 30358 L-203420 30301 L-203265 30301 L-203187 30187 L-203014 30073 L-202579 29958 L-202375 29901 L-202315 29787 L-201732 29730 L-201578 29616 L-201463 29559 L-201422 29502 L-201252 29445 L-201116 29388 L-200905 29274 L-200827 29217 L-200804 29160 L-200595 29046 L-200185 28989 L-200161 28932 L-199938 28875 L-199792 28818 L-199757 28760 L-199744 28703 L-199722 28646 L-199488 28589 L-199303 28532 L-199085 28475 L-199060 28418 L-198371 28361 L-198267 28304 L-198232 28247 L-198211 28190 L-198017 28133 L-197964 28076 L-197847 27962 L-197765 27962 L-197655 27905 L-197340 27848 L-196881 27791 L-196626 27734 L-196391 27620 L-196261 27563 L-195909 27505 L-195850 27448 L-195697 27391 L-195125 27277 L-195038 27220 L-194885 27106 L-194589 26992 L-194219 26878 L-193916 26764 L-193840 26707 L-193435 26650 L-193267 26650 L-193123 26650 L-192583 26650 L-192522 26650 L-192506 26536 L-192340 26479 L-192134 26422 L-192059 26422 L-191966 26365 L-191557 26308 L-191541 26250 L-191517 26250 L-191325 26193 L-191248 26707 L-191077 27220 L-191015 27677 L-190999 28190 L-190485 28133 L-190264 28076 L-189645 27962 L-189391 27905 L-189197 27848 L-189158 27791 L-189084 27791 L-189019 27791 L-188369 27791 L-188330 27848 L-188156 27848 L-188090 27848 L-187416 27848 L-187027 27734 L-186765 27677 L-186527 27620 L-186450 27505 L-186434 27391 L-186232 27334 L-185861 27220 L-185636 27163 L-185000 27106 L-184980 27106 L-184593 27049 L-184499 27049 L-184441 26992 L-184165 26935 L-183856 26935 L-183779 26878 L-182927 26935 L-182585 27220 L-182148 27563 L-181714 27848 L-181219 28133 L-181069 28076 L-180801 28133 L-179563 28190 L-179506 28304 L-177742 28361 L-177552 28304 L-176542 28247 L-176391 28190 L-176015 28304 L-175695 28418 L-175089 28532 L-175020 28646 L-174842 28589 L-174014 28532 L-173875 28475 L-173488 28418 L-173304 28361 L-173260 28304 L-173141 28247 L-172931 28190 L-172483 28076 L-172135 28019 L-172003 27962 L-171594 27905 L-171243 27905 L-170958 27848 L-170765 27791 L-170610 27791 L-170446 27734 L-170378 27677 L-170278 27677 L-170045 27620 L-169928 27620 L-169875 27563 L-169333 27563 L-168869 27505 L-167687 27505 L-167554 27505 L-167529 27505 L-167476 27505 L-166808 27505 L-165774 27391 L-165580 27334 L-165400 27277 L-165249 27277 L-165208 27220 L-165193 27220 L-165132 27163 L-164807 27106 L-163646 27049 L-163452 26992 L-163275 26935 L-162161 26878 L-161301 26821 L-161195 26821 L-160721 26764 L-160529 26764 L-158207 26707 L-158130 26650 L-158008 26536 L-157974 26479 L-157937 26365 L-157842 26193 L-157626 26079 L-157045 25965 L-156659 25908 L-155886 25851 L-155808 25794 L-155111 25794 L-154569 25794 L-154528 25737 L-154398 25737 L-153934 25680 L-153896 25623 L-153761 25566 L-153393 25509 L-153363 25452 L-153213 25452 L-152812 25395 L-150988 25452 L-150182 25395 L-149463 25395 L-149446 25395 L-149133 25281 L-148571 25224 L-148070 25167 L-147551 25110 L-147529 25053 L-145785 24996 L-145616 24938 L-145420 24881 L-144527 24824 L-144008 24710 L-143798 24653 L-143540 24596 L-142830 24539 L-141880 24482 L-141222 24425 L-141182 24311 L-140896 24254 L-140814 24197 L-140718 24197 L-140586 24140 L-140509 24140 L-139774 24140 L-139437 24083 L-139387 24140 L-139132 24140 L-138845 24083 L-138420 24083 L-137839 24026 L-137580 24026 L-137429 23969 L-137182 23969 L-137143 23969 L-136346 23912 L-136308 23855 L-136131 23855 L-135722 23741 L-135493 23741 L-135417 23741 L-135286 23741 L-135170 23683 L-134821 23626 L-134758 23569 L-134606 23512 L-133865 23455 L-133754 23398 L-133583 23341 L-133544 23284 L-133250 23284 L-132848 23284 L-132672 23284 L-132577 23284 L-132268 23227 L-131467 23170 L-131008 23056 L-130488 22999 L-129999 22942 L-129304 22885 L-128258 22828 L-127989 22828 L-127934 22771 L-127774 22771 L-127523 22771 L-127277 22714 L-127198 22657 L-126983 22543 L-126671 22486 L-126208 22371 L-126193 22314 L-125897 22314 L-125884 22257 L-124893 22200 L-124220 22143 L-123885 22029 L-123269 22029 L-123132 21972 L-122493 21915 L-122363 21858 L-121412 21744 L-121313 21630 L-120753 21573 L-120345 21573 L-119916 21573 L-119825 21516 L-118990 21516 L-118627 21516 L-118588 21573 L-118455 21630 L-118278 21630 L-118062 21630 L-118008 21573 L-117851 21459 L-117598 21402 L-116498 21345 L-116421 21288 L-116201 21231 L-116070 21116 L-116034 21059 L-115841 21002 L-115741 20945 L-115257 20888 L-114973 20831 L-114813 20774 L-114718 20660 L-114447 20603 L-114177 20546 L-114161 20318 L-114022 20147 L-113884 19976 L-113557 19747 L-113248 19633 L-113207 19576 L-113132 19462 L-113016 19405 L-112166 19291 L-111839 19234 L-111508 19177 L-111375 19177 L-111159 19177 L-111143 19177 L-110462 19177 L-110369 19063 L-110346 19006 L-110330 18892 L-110291 18835 L-109880 18721 L-109610 18664 L-109570 18606 L-109202 18606 L-108992 18549 L-107909 18549 L-107893 18492 L-107864 18435 L-107844 18435 L-107467 18321 L-107212 18264 L-106964 18150 L-106825 18036 L-106693 17979 L-106361 17922 L-106268 17865 L-106207 17808 L-105649 17751 L-105588 17694 L-105432 17637 L-105238 17580 L-105045 17523 L-105030 17466 L-104991 17409 L-104952 17351 L-104682 17294 L-104558 17237 L-104526 17180 L-104426 17180 L-104271 17180 L-104130 17180 L-103846 17123 L-103520 17123 L-102824 17066 L-102802 17066 L-102292 17066 L-101446 17066 L-101083 17009 L-100928 16952 L-100325 16952 L-100155 16952 L-100094 16952 L-100039 16895 L-98983 16838 L-98965 16838 L-98059 16838 L-98037 16838 L-97871 16781 L-97628 16781 L-97578 16724 L-97523 16610 L-97386 16553 L-97346 16496 L-96418 16439 L-96363 16439 L-96241 16439 L-96169 16439 L-96054 16439 L-95875 16496 L-94893 16439 L-94753 16439 L-94635 16325 L-94341 16211 L-94094 16154 L-94057 16096 L-94002 16154 L-93981 16154 L-93848 16154 L-93769 16154 L-93631 16096 L-93008 16096 L-92842 16039 L-92377 16039 L-92201 15925 L-92185 15868 L-92124 15811 L-92008 15754 L-91525 15697 L-90830 15640 L-90457 15583 L-90287 15526 L-89321 15469 L-89166 15412 L-88989 15412 L-88896 15355 L-88641 15355 L-88470 15355 L-87823 15298 L-87812 15298 L-87232 15241 L-87094 15241 L-87039 15127 L-86303 15070 L-86265 15013 L-86187 15013 L-85545 14956 L-84771 14956 L-84678 14899 L-84630 14899 L-84614 14841 L-84578 14841 L-84562 14727 L-84499 14670 L-84483 14613 L-84463 14613 L-84308 14556 L-84269 14499 L-84253 14442 L-84214 14385 L-84074 14328 L-83998 14271 L-83634 14214 L-83286 14157 L-82512 14100 L-81910 14043 L-81713 13986 L-81483 13986 L-81345 13929 L-80708 13929 L-80418 13872 L-80397 13872 L-79936 13815 L-79703 13815 L-79649 13758 L-79610 13701 L-79107 13644 L-78557 13586 L-77769 13529 L-76646 13529 L-75752 13472 L-75664 13472 L-75364 13415 L-75293 13358 L-75177 13301 L-74000 13244 L-73652 13187 L-73629 13130 L-73110 13073 L-72963 13016 L-72855 12959 L-72646 12902 L-72491 12845 L-72468 12788 L-72275 12731 L-72198 12674 L-72054 12617 L-71253 12560 L-71107 12503 L-70827 12446 L-70650 12389 L-70340 12332 L-69529 12274 L-68600 12274 L-67008 12217 L-66765 12160 L-66124 12103 L-65928 12046 L-65851 11989 L-65333 11932 L-65101 11932 L-65078 11875 L-64946 11875 L-64607 11818 L-64596 11761 L-64380 11704 L-64343 11647 L-63801 11590 L-63272 11476 L-63205 11419 L-62912 11362 L-62364 11248 L-62329 11191 L-62276 11134 L-62177 11019 L-61944 11019 L-61364 11019 L-61266 11077 L-61192 11077 L-60860 11019 L-60110 10962 L-60071 10905 L-59391 10905 L-59237 10905 L-58910 10848 L-58695 10791 L-58463 10791 L-58167 10734 L-57920 10677 L-57569 10620 L-57516 10563 L-56757 10506 L-56063 10392 L-55713 10278 L-55249 10221 L-54616 10164 L-54207 10107 L-54129 10164 L-53703 10164 L-53060 10107 L-52891 10107 L-52149 10050 L-51962 9993 L-51667 9936 L-51095 9879 L-51070 9822 L-50050 9822 L-49563 9764 L-49470 9764 L-49409 9707 L-49121 9650 L-48835 9593 L-48773 9536 L-48594 9536 L-47882 9479 L-47707 9422 L-47508 9365 L-47357 9308 L-47265 9251 L-47203 9194 L-46661 9194 L-46351 9137 L-46259 9023 L-46182 8909 L-45614 8852 L-45523 8852 L-45269 8738 L-44942 8624 L-44905 8452 L-44750 8281 L-44518 8224 L-44196 8167 L-43063 8110 L-42864 8053 L-42338 7996 L-42094 7996 L-41848 7939 L-41768 7882 L-41748 7768 L-41671 7711 L-41616 7597 L-41539 7540 L-41500 7483 L-41321 7369 L-41284 7312 L-41052 7254 L-39815 7197 L-39488 7140 L-39448 7026 L-38667 6969 L-38520 6912 L-37528 6855 L-37321 6855 L-36896 6855 L-36768 6855 L-36364 6912 L-36276 6855 L-35619 6798 L-34912 6741 L-34303 6684 L-34110 6627 L-33877 6513 L-33259 6456 L-32963 6342 L-32523 6285 L-32369 6228 L-32214 6171 L-31458 6057 L-31108 6000 L-30705 6000 L-30667 5942 L-29661 5942 L-29341 5942 L-29094 5885 L-28394 5771 L-28321 5714 L-28008 5657 L-26928 5600 L-26737 5543 L-26503 5543 L-26308 5486 L-25808 5429 L-25054 5429 L-24940 5429 L-24740 5429 L-24699 5372 L-24606 5315 L-24293 5258 L-24205 5201 L-24089 5144 L-23771 5144 L-23702 5087 L-23677 5030 L-23315 4973 L-23277 4916 L-23060 4859 L-22557 4916 L-21955 4973 L-21743 5087 L-21590 5144 L-21552 5144 L-21508 5030 L-21474 4973 L-21341 4916 L-20932 4859 L-20561 4802 L-20507 4745 L-20491 4687 L-20412 4630 L-20003 4573 L-19849 4516 L-19833 4402 L-19794 4345 L-19615 4231 L-19539 4174 L-19308 4117 L-18518 4060 L-18440 4060 L-17705 3946 L-17550 3889 L-17310 3775 L-17248 3661 L-17163 3604 L-17140 3490 L-17022 3375 L-17008 3261 L-16946 3147 L-16909 3090 L-16815 3033 L-16793 3033 L-16676 2976 L-16444 2919 L-16273 2805 L-15453 2805 L-15052 2748 L-14897 2748 L-14392 2748 L-14278 2748 L-13682 2748 L-13307 2691 L-13255 2691 L-13062 2634 L-12365 2634 L-12327 2577 L-12182 2577 L-11957 2520 L-11695 2463 L-11321 2406 L-10895 2349 L-10766 2292 L-10746 2177 L-10253 2177 L-9557 2120 L-9325 2177 L-9171 2177 L-8203 2177 L-7978 2235 L-7700 2235 L-7684 2177 L-7158 2120 L-6629 2063 L-6481 2006 L-6462 1949 L-5920 1892 L-5610 1835 L-5493 1721 L-5301 1607 L-5164 1493 L-4837 1436 L-4721 1379 L-4411 1379 L-3985 1322 L-3929 1322 L-3696 1379 L-3600 1379 L-3467 1379 L-3171 1379 L-3057 1322 L-2692 1265 L-2379 1265 L-1897 1208 L-1726 1151 L-1478 1094 L-1262 1037 L-736 980 L-550 865 L-194 808 L440 751 L595 637 L1335 580 L1755 523 L1935 466 L2011 466 L2142 409 L2436 352 L2477 295 L2707 295 L2899 238 L3154 238 L3581 181 L3690 124 L4309 124 L4490 124 L5702 124 L6349 181 L6500 181" />
</svg>
