<svg xmlns="http://www.w3.org/2000/svg" version="1.1" viewBox="0 0 6500 1000">
	<path fill="none" stroke="gold" stroke-width="125" stroke-linecap="round" stroke-linejoin="round" d="M0 2155  L-7889 2155 L-7477 2078 L-7252 2117 L-7195 2078 L-7157 2001 L-6973 1924 L-6483 1847 L-6190 1809 L-5878 1770 L-5644 1693 L-5590 1616 L-5531 1539 L-5378 1501 L-5338 1462 L-5205 1424 L-4912 1462 L-4372 1424 L-3761 1347 L-3713 1424 L-3073 1347 L-3040 1385 L-2515 1308 L-2382 1270 L-1992 1116 L-1664 1039 L-1546 962 L-1335 1039 L-618 1000 L-48 962 L58 923 L233 846 L454 769 L855 731 L881 654 L1809 577 L1897 500 L1979 423 L2049 346 L2346 307 L2498 269 L4388 500 L4489 384 L4751 307 L5045 384 L5187 307 L5435 269 L5471 230 L5629 153 L6093 115 L6346 38" />
</svg>
