<svg xmlns="http://www.w3.org/2000/svg" version="1.1" viewBox="0 0 6500 1000">
	<path fill="none" stroke="gold" stroke-width="125" stroke-linecap="round" stroke-linejoin="round" d="M0 326257  L-1315414 326257 L-1315229 326256 L-1314739 326253 L-1314446 326251 L-1314134 326248 L-1313900 326247 L-1313847 326244 L-1313787 326241 L-1313634 326239 L-1313594 326236 L-1313461 326235 L-1313169 326233 L-1312628 326233 L-1312018 326232 L-1311970 326232 L-1311330 326230 L-1311296 326230 L-1310771 326230 L-1310638 326229 L-1310248 326226 L-1309920 326223 L-1309803 326220 L-1309591 326217 L-1308874 326217 L-1308304 326215 L-1308197 326215 L-1308023 326214 L-1307801 326211 L-1307400 326210 L-1307374 326207 L-1306446 326204 L-1306359 326201 L-1306276 326198 L-1306206 326195 L-1305909 326193 L-1305757 326190 L-1303867 326192 L-1303766 326192 L-1303504 326192 L-1303210 326193 L-1303069 326190 L-1302820 326190 L-1302784 326189 L-1302626 326187 L-1302162 326184 L-1301909 326183 L-1301697 326180 L-1301446 326178 L-1301097 326177 L-1300170 326174 L-1300076 326171 L-1299665 326170 L-1298494 326167 L-1297305 326165 L-1297213 326162 L-1297186 326159 L-1296920 326156 L-1296621 326153 L-1296492 326150 L-1296454 326147 L-1295640 326147 L-1295256 326149 L-1294195 326150 L-1294134 326150 L-1293869 326180 L-1293398 326208 L-1293205 326236 L-1292942 326264 L-1292605 326263 L-1292469 326261 L-1292014 326260 L-1291270 326258 L-1291253 326257 L-1291088 326254 L-1291019 326254 L-1290503 326253 L-1289475 326253 L-1289278 326251 L-1288790 326250 L-1288428 326248 L-1288019 326248 L-1287634 326250 L-1285930 326250 L-1285832 326250 L-1285760 326250 L-1285699 326250 L-1285515 326248 L-1285178 326248 L-1284538 326247 L-1284461 326245 L-1284399 326245 L-1284213 326244 L-1284133 326244 L-1283956 326242 L-1283937 326241 L-1283707 326241 L-1283319 326239 L-1282430 326239 L-1282391 326238 L-1282303 326236 L-1282275 326233 L-1281267 326232 L-1281118 326229 L-1281093 326227 L-1280960 326226 L-1280921 326224 L-1279662 326223 L-1279605 326223 L-1279065 326221 L-1279012 326221 L-1278966 326221 L-1278571 326220 L-1278431 326218 L-1278231 326217 L-1278084 326217 L-1277920 326217 L-1277643 326218 L-1277284 326218 L-1276732 326217 L-1276087 326215 L-1275828 326213 L-1275675 326211 L-1275274 326210 L-1275233 326208 L-1275113 326207 L-1275051 326208 L-1275037 326208 L-1274943 326208 L-1274650 326207 L-1274499 326201 L-1274168 326198 L-1274091 326195 L-1274015 326193 L-1273788 326189 L-1273722 326186 L-1273494 326183 L-1273441 326180 L-1273277 326178 L-1272271 326177 L-1272088 326175 L-1271537 326174 L-1271144 326171 L-1270746 326170 L-1269896 326167 L-1269818 326165 L-1269239 326164 L-1268797 326164 L-1268556 326162 L-1268399 326162 L-1267998 326159 L-1267978 326159 L-1267533 326158 L-1267128 326156 L-1266992 326153 L-1266816 326150 L-1266680 326147 L-1266430 326144 L-1265430 326143 L-1265348 326141 L-1265212 326140 L-1265174 326138 L-1264284 326137 L-1264068 326135 L-1263625 326134 L-1263508 326132 L-1263451 326131 L-1262775 326131 L-1262674 326130 L-1262645 326130 L-1261304 326128 L-1260898 326127 L-1260858 326125 L-1259930 326124 L-1259832 326122 L-1259699 326121 L-1259295 326119 L-1259268 326118 L-1259175 326116 L-1258959 326115 L-1258548 326112 L-1257394 326109 L-1257103 326106 L-1257074 326103 L-1256466 326101 L-1256216 326098 L-1256196 326097 L-1255267 326095 L-1255216 326092 L-1255093 326091 L-1255076 326088 L-1254920 326087 L-1254744 326084 L-1254608 326082 L-1254551 326081 L-1254443 326079 L-1254358 326078 L-1254125 326076 L-1254050 326075 L-1253742 326073 L-1253624 326072 L-1253454 326070 L-1253363 326069 L-1253260 326069 L-1253237 326067 L-1253160 326067 L-1253062 326064 L-1252695 326063 L-1252590 326061 L-1252087 326060 L-1251635 326058 L-1251597 326057 L-1251573 326055 L-1251532 326054 L-1251403 326052 L-1251303 326051 L-1250861 326049 L-1250579 326048 L-1249986 326046 L-1249856 326045 L-1249582 326042 L-1249429 326041 L-1249276 326039 L-1249191 326036 L-1249113 326035 L-1248927 326033 L-1248876 326033 L-1248849 326032 L-1248769 326030 L-1248746 326029 L-1248463 326026 L-1247859 326023 L-1246863 326021 L-1246565 326020 L-1245832 326018 L-1245587 326017 L-1245497 326015 L-1244920 326014 L-1244222 326012 L-1243469 326011 L-1243151 326009 L-1242768 326006 L-1242691 326005 L-1242056 326003 L-1241871 326002 L-1241783 326002 L-1241654 326002 L-1241341 326001 L-1241291 325999 L-1241149 325998 L-1241128 325996 L-1240160 325995 L-1239615 325993 L-1239136 325993 L-1239075 325993 L-1238752 325993 L-1238730 325992 L-1238668 325992 L-1238458 325990 L-1238381 325989 L-1238326 325987 L-1238304 325986 L-1238264 325984 L-1238249 325983 L-1237492 325981 L-1237475 325980 L-1236676 325978 L-1236523 325977 L-1235618 325975 L-1235112 325974 L-1234882 325971 L-1234841 325971 L-1234726 325969 L-1234549 325968 L-1233795 325969 L-1233660 325968 L-1233496 325966 L-1233178 325965 L-1233002 325962 L-1231980 325959 L-1231957 325956 L-1231705 325955 L-1231492 325952 L-1230858 325950 L-1230621 325947 L-1230588 325944 L-1230410 325941 L-1230330 325938 L-1230240 325937 L-1230175 325934 L-1229735 325931 L-1229712 325929 L-1229171 325928 L-1228915 325926 L-1228420 325925 L-1227543 325923 L-1227506 325922 L-1227453 325920 L-1227412 325919 L-1227295 325917 L-1227019 325916 L-1226811 325913 L-1226614 325910 L-1226591 325907 L-1226541 325904 L-1226502 325903 L-1226424 325901 L-1225826 325898 L-1225766 325897 L-1225663 325895 L-1225508 325894 L-1224876 325892 L-1224196 325891 L-1223893 325888 L-1223546 325886 L-1223349 325885 L-1223300 325882 L-1222980 325880 L-1222352 325879 L-1222206 325877 L-1222169 325876 L-1222111 325875 L-1222035 325872 L-1221794 325872 L-1221705 325870 L-1221611 325869 L-1221317 325867 L-1221183 325866 L-1221123 325864 L-1221086 325861 L-1220814 325861 L-1219808 325860 L-1219632 325858 L-1219582 325858 L-1219289 325857 L-1219096 325854 L-1218763 325852 L-1218257 325851 L-1217695 325848 L-1217680 325845 L-1217663 325843 L-1217563 325840 L-1217448 325837 L-1217409 325834 L-1217371 325833 L-1217306 325833 L-1217278 325832 L-1217139 325833 L-1216846 325833 L-1216796 325833 L-1216691 325833 L-1216426 325832 L-1215961 325830 L-1215817 325830 L-1215762 325827 L-1215705 325826 L-1215514 325824 L-1215149 325823 L-1214934 325823 L-1214740 325823 L-1214682 325823 L-1214623 325820 L-1214469 325818 L-1214199 325817 L-1213770 325824 L-1213754 325824 L-1213677 325823 L-1213613 325821 L-1213483 325811 L-1213460 325809 L-1213176 325808 L-1213128 325806 L-1213073 325805 L-1212611 325803 L-1212572 325803 L-1212532 325802 L-1212341 325800 L-1211861 325799 L-1211374 325797 L-1211357 325796 L-1211319 325794 L-1211063 325793 L-1210986 325790 L-1210756 325789 L-1210740 325786 L-1210445 325783 L-1210003 325781 L-1209556 325780 L-1209051 325778 L-1208898 325777 L-1208611 325775 L-1208571 325772 L-1208240 325771 L-1208018 325769 L-1207501 325766 L-1207425 325765 L-1207177 325762 L-1206983 325759 L-1206923 325757 L-1206146 325756 L-1206073 325756 L-1205842 325754 L-1205825 325754 L-1205763 325753 L-1205568 325751 L-1205104 325751 L-1205080 325750 L-1204951 325750 L-1203650 325750 L-1203633 325750 L-1203556 325748 L-1203463 325748 L-1203245 325748 L-1203093 325747 L-1202915 325748 L-1202861 325750 L-1202574 325751 L-1202534 325751 L-1202164 325751 L-1201724 325751 L-1201541 325751 L-1201220 325750 L-1200925 325750 L-1200479 325747 L-1200407 325746 L-1199945 325743 L-1199507 325741 L-1199325 325740 L-1197871 325737 L-1197739 325735 L-1197282 325732 L-1197056 325731 L-1196669 325728 L-1196153 325725 L-1195199 325722 L-1194405 325719 L-1193730 325717 L-1193305 325714 L-1192993 325713 L-1192763 325708 L-1192080 325704 L-1192067 325700 L-1191857 325694 L-1191835 325692 L-1191661 325689 L-1190711 325688 L-1190443 325685 L-1189627 325683 L-1189317 325680 L-1189279 325679 L-1189222 325676 L-1188605 325674 L-1187967 325671 L-1186341 325670 L-1185667 325668 L-1185025 325668 L-1184948 325668 L-1184891 325668 L-1184856 325668 L-1184827 325667 L-1184715 325664 L-1184698 325662 L-1184675 325661 L-1184521 325660 L-1184468 325657 L-1184390 325655 L-1184271 325654 L-1184173 325652 L-1184056 325651 L-1183786 325648 L-1183516 325646 L-1183499 325643 L-1183299 325642 L-1183152 325639 L-1182925 325637 L-1182791 325636 L-1182483 325634 L-1182423 325633 L-1182070 325630 L-1181721 325628 L-1181620 325627 L-1181556 325624 L-1181496 325622 L-1181111 325620 L-1180730 325618 L-1180626 325617 L-1180366 325615 L-1180095 325612 L-1179936 325611 L-1179903 325609 L-1179841 325608 L-1179700 325606 L-1179516 325605 L-1179472 325603 L-1179183 325603 L-1179167 325602 L-1178934 325602 L-1178873 325600 L-1178835 325600 L-1178255 325599 L-1178121 325597 L-1178098 325591 L-1178080 325581 L-1178062 325569 L-1178046 325557 L-1178022 325545 L-1178006 325536 L-1177984 325526 L-1177968 325516 L-1177945 325510 L-1177928 325504 L-1177906 325499 L-1177889 325496 L-1177841 325492 L-1177768 325488 L-1177734 325480 L-1177710 325474 L-1177674 325468 L-1177633 325462 L-1177596 325459 L-1177580 325453 L-1177556 325449 L-1177519 325446 L-1177502 325442 L-1177479 325439 L-1177461 325436 L-1177442 325433 L-1177426 325430 L-1177397 325425 L-1177371 325421 L-1177326 325419 L-1177309 325416 L-1177267 325415 L-1177219 325412 L-1177149 325409 L-1177133 325406 L-1177117 325403 L-1177055 325402 L-1177016 325400 L-1176977 325399 L-1176811 325397 L-1176746 325396 L-1176730 325394 L-1176685 325391 L-1176627 325390 L-1176414 325388 L-1176381 325387 L-1176339 325385 L-1176261 325384 L-1175723 325382 L-1175645 325381 L-1175541 325378 L-1175452 325376 L-1175276 325375 L-1174925 325373 L-1174769 325372 L-1174332 325370 L-1174175 325369 L-1174045 325367 L-1173341 325365 L-1173140 325363 L-1172180 325360 L-1171697 325359 L-1171598 325359 L-1171506 325357 L-1171261 325356 L-1171188 325354 L-1170745 325351 L-1170649 325350 L-1170634 325348 L-1170618 325347 L-1170593 325345 L-1170127 325344 L-1169910 325342 L-1169770 325341 L-1169476 325339 L-1169388 325338 L-1169346 325336 L-1169317 325335 L-1169144 325333 L-1169085 325332 L-1169009 325330 L-1168928 325329 L-1168859 325329 L-1168549 325327 L-1168464 325326 L-1168250 325324 L-1168215 325323 L-1167532 325322 L-1167433 325320 L-1167228 325319 L-1167182 325317 L-1166903 325316 L-1166841 325314 L-1166824 325311 L-1166746 325310 L-1166438 325307 L-1166414 325305 L-1166360 325302 L-1166337 325301 L-1166214 325299 L-1166079 325296 L-1165834 325295 L-1165709 325295 L-1165062 325293 L-1165046 325293 L-1165021 325293 L-1164841 325290 L-1164765 325289 L-1164673 325287 L-1164245 325286 L-1163829 325284 L-1163436 325281 L-1163358 325280 L-1163339 325279 L-1162975 325277 L-1162739 325276 L-1162511 325274 L-1162198 325273 L-1162120 325271 L-1162039 325268 L-1161861 325265 L-1161845 325264 L-1161580 325261 L-1161500 325259 L-1161270 325258 L-1161044 325256 L-1160728 325256 L-1160553 325255 L-1160192 325255 L-1159800 325253 L-1159731 325250 L-1159667 325249 L-1159526 325246 L-1159475 325244 L-1159373 325241 L-1158871 325240 L-1158674 325238 L-1158427 325237 L-1158242 325236 L-1157942 325234 L-1157866 325233 L-1157700 325230 L-1156816 325228 L-1156787 325225 L-1156664 325222 L-1156085 325221 L-1156007 325219 L-1155294 325219 L-1154982 325219 L-1154769 325219 L-1154752 325219 L-1154366 325219 L-1153841 325216 L-1153395 325215 L-1153065 325213 L-1152912 325212 L-1152586 325212 L-1152408 325210 L-1152326 325210 L-1152120 325207 L-1151945 325206 L-1151016 325204 L-1150126 325203 L-1150087 325201 L-1149859 325201 L-1149480 325200 L-1148693 325198 L-1148458 325197 L-1148382 325195 L-1148025 325194 L-1147453 325191 L-1147186 325190 L-1146800 325188 L-1146696 325188 L-1146526 325188 L-1145908 325188 L-1145696 325188 L-1145388 325188 L-1145335 325187 L-1145208 325185 L-1145155 325184 L-1145035 325182 L-1144699 325179 L-1143740 325178 L-1143609 325175 L-1143407 325173 L-1142776 325172 L-1142464 325170 L-1142051 325169 L-1142023 325167 L-1141878 325166 L-1141458 325164 L-1140125 325164 L-1140078 325163 L-1139950 325160 L-1139933 325158 L-1139355 325155 L-1139149 325154 L-1139120 325152 L-1139079 325151 L-1139021 325150 L-1138984 325148 L-1138905 325147 L-1138763 325145 L-1138308 325144 L-1138190 325142 L-1137905 325141 L-1137532 325139 L-1137436 325138 L-1137109 325136 L-1136755 325135 L-1136585 325133 L-1136537 325132 L-1136428 325130 L-1136339 325129 L-1136311 325127 L-1136235 325124 L-1135932 325123 L-1135898 325120 L-1135826 325118 L-1135458 325117 L-1135123 325115 L-1135042 325115 L-1134822 325114 L-1134651 325112 L-1134623 325111 L-1134126 325110 L-1133577 325107 L-1132696 325105 L-1132598 325102 L-1132521 325101 L-1132246 325099 L-1131999 325096 L-1131925 325095 L-1131863 325092 L-1131745 325090 L-1131702 325089 L-1131592 325087 L-1131515 325084 L-1130815 325083 L-1130569 325081 L-1130529 325080 L-1130373 325078 L-1129774 325078 L-1129547 325078 L-1129455 325078 L-1128980 325078 L-1128382 325075 L-1127863 325074 L-1127842 325072 L-1127696 325071 L-1127376 325071 L-1126834 325071 L-1126602 325071 L-1126432 325071 L-1125945 325069 L-1125718 325068 L-1125633 325067 L-1125287 325065 L-1124961 325065 L-1124438 325064 L-1124110 325062 L-1123510 325061 L-1123312 325058 L-1123260 325056 L-1123220 325055 L-1122939 325053 L-1122254 325050 L-1121944 325049 L-1121919 325046 L-1121728 325044 L-1121505 325043 L-1121419 325041 L-1120755 325038 L-1120731 325037 L-1120509 325034 L-1120179 325032 L-1119827 325029 L-1119623 325028 L-1119390 325025 L-1119132 325024 L-1118942 325021 L-1118895 325019 L-1118668 325018 L-1118634 325016 L-1118477 325015 L-1118263 325013 L-1118090 325012 L-1117998 325010 L-1117721 325009 L-1117477 325007 L-1117162 325006 L-1116736 325006 L-1116698 325006 L-1116215 325006 L-1115982 325006 L-1115770 325004 L-1115544 325003 L-1114994 325003 L-1114747 325001 L-1113913 325001 L-1113857 325000 L-1113835 324998 L-1113677 324997 L-1113216 324995 L-1113175 324994 L-1112835 324991 L-1112702 324989 L-1112479 324988 L-1111907 324986 L-1111435 324985 L-1111240 324983 L-1111048 324982 L-1110858 324981 L-1110756 324979 L-1110388 324978 L-1110342 324976 L-1110260 324975 L-1108967 324973 L-1108919 324972 L-1108650 324972 L-1108505 324972 L-1107954 324972 L-1107837 324970 L-1107756 324969 L-1107396 324967 L-1107173 324966 L-1106892 324964 L-1106562 324961 L-1106054 324960 L-1105942 324958 L-1105863 324957 L-1105699 324955 L-1105404 324955 L-1104936 324955 L-1104739 324957 L-1104689 324957 L-1104039 324955 L-1103917 324954 L-1103463 324954 L-1103427 324952 L-1102959 324951 L-1102848 324949 L-1102832 324948 L-1102616 324948 L-1102435 324946 L-1101903 324946 L-1100874 324946 L-1100674 324945 L-1100216 324943 L-1099268 324940 L-1099169 324939 L-1098815 324936 L-1098754 324935 L-1098740 324933 L-1098704 324932 L-1098335 324930 L-1098215 324929 L-1097973 324927 L-1097809 324926 L-1097622 324924 L-1097501 324923 L-1096430 324920 L-1095572 324918 L-1095360 324915 L-1095263 324914 L-1095089 324911 L-1094755 324909 L-1094684 324908 L-1094626 324906 L-1094451 324906 L-1094062 324905 L-1093826 324903 L-1093715 324902 L-1093598 324900 L-1092617 324899 L-1092592 324898 L-1091998 324895 L-1091965 324895 L-1091816 324893 L-1091532 324892 L-1090620 324892 L-1089674 324892 L-1089521 324890 L-1089419 324890 L-1089287 324889 L-1089144 324887 L-1089118 324886 L-1089003 324884 L-1088785 324883 L-1088104 324881 L-1087974 324880 L-1087671 324878 L-1087431 324875 L-1087098 324874 L-1086460 324872 L-1086117 324869 L-1086055 324868 L-1085900 324868 L-1084978 324868 L-1084508 324868 L-1084464 324868 L-1084451 324866 L-1084410 324865 L-1084388 324863 L-1084361 324862 L-1084217 324860 L-1083795 324859 L-1083459 324859 L-1083268 324857 L-1082840 324857 L-1082652 324856 L-1082263 324853 L-1081729 324852 L-1081356 324850 L-1081334 324850 L-1081085 324849 L-1080966 324847 L-1080890 324846 L-1080755 324844 L-1080715 324843 L-1080635 324841 L-1080241 324840 L-1079745 324838 L-1079633 324835 L-1079460 324834 L-1079152 324832 L-1078704 324831 L-1078381 324829 L-1078239 324826 L-1077812 324823 L-1077659 324820 L-1077603 324817 L-1076789 324816 L-1076770 324814 L-1076398 324813 L-1076341 324813 L-1075212 324812 L-1075144 324812 L-1074586 324810 L-1074391 324809 L-1074255 324807 L-1074021 324806 L-1073674 324804 L-1073640 324801 L-1073605 324800 L-1073536 324797 L-1073187 324795 L-1073015 324794 L-1072530 324792 L-1072514 324791 L-1072189 324789 L-1072031 324788 L-1070891 324785 L-1070866 324783 L-1070674 324780 L-1070480 324779 L-1070230 324777 L-1070213 324776 L-1069193 324774 L-1068895 324773 L-1068820 324771 L-1068684 324769 L-1068508 324767 L-1067931 324764 L-1067716 324763 L-1067652 324761 L-1067521 324760 L-1067484 324757 L-1066961 324755 L-1066823 325339 L-1066809 325339 L-1066786 325339 L-1066765 325339 L-1066538 324754 L-1065762 324754 L-1065721 324754 L-1065353 324754 L-1065275 324752 L-1065223 324751 L-1064550 324749 L-1063807 324748 L-1063383 324748 L-1062935 324746 L-1061873 324745 L-1061561 324742 L-1061151 324742 L-1061079 324740 L-1060555 324740 L-1060460 324740 L-1060443 324740 L-1059998 324739 L-1059812 324736 L-1059032 324733 L-1058360 324731 L-1057948 324727 L-1057716 324724 L-1057575 324723 L-1057494 324720 L-1057474 324718 L-1057397 324718 L-1057269 324717 L-1056952 324718 L-1056728 324718 L-1056403 324717 L-1056341 324717 L-1055971 324717 L-1055938 324717 L-1055729 324717 L-1055062 324717 L-1054984 324717 L-1054826 324714 L-1054716 324714 L-1054389 324712 L-1054234 324711 L-1053893 324711 L-1053836 324708 L-1053498 324705 L-1053294 324703 L-1053241 324700 L-1051865 324699 L-1051735 324697 L-1051302 324696 L-1050981 324694 L-1050154 324691 L-1050030 324690 L-1049300 324687 L-1049144 324684 L-1049103 324683 L-1049049 324681 L-1049026 324680 L-1048912 324678 L-1048616 324677 L-1048326 324675 L-1048271 324674 L-1048151 324672 L-1048120 324671 L-1048021 324669 L-1047577 324669 L-1047425 324668 L-1046590 324668 L-1046048 324666 L-1045713 324666 L-1045698 324665 L-1045622 324663 L-1045506 324662 L-1045311 324660 L-1045047 324659 L-1044212 324657 L-1044116 324656 L-1043595 324654 L-1043553 324653 L-1043453 324651 L-1042625 324651 L-1042490 324650 L-1042151 324650 L-1041597 324648 L-1041218 324647 L-1041055 324645 L-1040745 324644 L-1039932 324643 L-1039626 324641 L-1039358 324641 L-1039036 324641 L-1038715 324643 L-1038440 324643 L-1037611 324640 L-1037516 324638 L-1037424 324634 L-1037319 324629 L-1036932 324625 L-1036452 324622 L-1036436 324620 L-1036317 324619 L-1035949 324616 L-1035854 324614 L-1035020 324611 L-1034943 324610 L-1034644 324608 L-1034553 324607 L-1034146 324604 L-1034036 324601 L-1033336 324600 L-1032863 324598 L-1032803 324597 L-1032584 324594 L-1032311 324592 L-1032198 324591 L-1031170 324589 L-1030784 324588 L-1030764 324586 L-1030431 324585 L-1030186 324583 L-1029753 324582 L-1029643 324580 L-1029525 324579 L-1029074 324576 L-1028483 324574 L-1028147 324573 L-1026254 324571 L-1026140 324568 L-1025928 324567 L-1024610 324565 L-1024503 324232 L-1024438 323903 L-1024401 323599 L-1024340 323599 L-1023840 323929 L-1023165 324256 L-1023143 324557 L-1022873 324554 L-1021904 324554 L-1021215 324552 L-1021053 324551 L-1020512 324549 L-1020423 324548 L-1019403 324546 L-1018456 324543 L-1018090 324545 L-1017987 324546 L-1017399 324546 L-1017340 324546 L-1017239 324545 L-1016799 324542 L-1016691 324540 L-1016250 324539 L-1015250 324534 L-1014993 324530 L-1014891 324525 L-1014760 324522 L-1014394 324519 L-1013813 324516 L-1013782 324515 L-1013467 324514 L-1011484 324512 L-1011368 324511 L-1011300 324511 L-1010942 324509 L-1009323 324508 L-1009145 324508 L-1009001 324508 L-1008179 324509 L-1008126 324511 L-1008071 324511 L-1007637 324511 L-1006657 324512 L-1006583 324512 L-1005498 324511 L-1005285 324511 L-1004569 324508 L-1004181 324506 L-1003962 324503 L-1003642 324500 L-1003148 324497 L-1003021 324496 L-1002792 324493 L-1002560 324490 L-1002500 324488 L-1002211 324487 L-1001939 324484 L-1000909 324482 L-999244 324481 L-998825 324479 L-998687 324478 L-998531 324478 L-998226 324476 L-997998 324473 L-997839 324472 L-997680 324469 L-997511 324466 L-997463 324465 L-997410 324463 L-997388 324463 L-997002 324462 L-996753 324462 L-996482 324462 L-996321 324462 L-996232 324462 L-994573 324462 L-994408 324463 L-994028 324462 L-993568 324462 L-992958 324459 L-991865 324457 L-991434 324456 L-991403 324454 L-991340 324453 L-991323 324451 L-989619 324450 L-989577 324448 L-989111 324447 L-988924 324445 L-988892 324442 L-988296 324441 L-988247 324439 L-987924 324438 L-987873 324436 L-987663 324435 L-987645 324433 L-987379 324430 L-987326 324429 L-986857 324428 L-986346 324425 L-986268 324425 L-985974 324423 L-985957 324422 L-985919 324420 L-985847 324419 L-985690 324417 L-984744 324417 L-984688 324417 L-984167 324417 L-983974 324416 L-983873 324416 L-983648 324414 L-983138 324414 L-982750 324454 L-982680 324454 L-982332 324453 L-981975 324451 L-980846 324408 L-980794 324405 L-980568 324404 L-980535 324402 L-980410 324399 L-980311 324399 L-980046 324399 L-979306 324401 L-978727 324401 L-978434 324401 L-977728 324401 L-977549 324399 L-977526 324399 L-976890 324398 L-976579 324396 L-976182 324396 L-976153 324395 L-976132 324393 L-975978 324392 L-975293 324392 L-975276 324392 L-974937 324392 L-974664 324390 L-974627 324389 L-974571 324386 L-974549 324385 L-974477 324383 L-974145 324382 L-974039 324380 L-974010 324377 L-973812 324376 L-973659 324374 L-972791 324373 L-972228 324370 L-972212 324370 L-972111 324368 L-972009 324370 L-971862 324370 L-971784 324370 L-971746 324368 L-971691 324367 L-971617 324365 L-971473 324364 L-970991 324364 L-970586 324362 L-969720 324364 L-969700 324364 L-969442 324364 L-969366 324364 L-969337 324362 L-969326 324359 L-969309 324358 L-969016 324356 L-968977 324355 L-968905 324353 L-968831 324352 L-968626 324350 L-968466 324346 L-968165 324342 L-968088 324336 L-968070 324331 L-967854 324328 L-967623 324328 L-967513 324330 L-967143 324331 L-966985 324331 L-966753 324331 L-966585 324331 L-966440 324330 L-966308 324328 L-965032 324325 L-964628 324322 L-964568 324321 L-964451 324318 L-964026 324316 L-964010 324313 L-963948 324312 L-963675 324309 L-963563 324307 L-963280 324304 L-963003 324303 L-962578 324300 L-962556 324299 L-962477 324297 L-962352 324296 L-961765 324294 L-961374 324293 L-961039 324291 L-960449 324290 L-960347 324290 L-960177 324288 L-960041 324288 L-959213 324287 L-958028 324285 L-957991 324284 L-957936 324284 L-957715 324282 L-957510 324282 L-957356 324282 L-957099 324281 L-957023 324279 L-956480 324278 L-956443 324276 L-956195 324275 L-955807 324273 L-954982 324272 L-954623 324270 L-954313 324270 L-954055 324269 L-953831 324267 L-953425 324266 L-953308 324264 L-953125 324263 L-953072 324263 L-952883 324261 L-952713 324260 L-952684 324259 L-952404 324257 L-952093 324256 L-951955 324254 L-951645 324253 L-951451 324253 L-951436 324251 L-950717 324251 L-950583 324248 L-950285 324247 L-950195 324245 L-949594 324245 L-949556 324244 L-949478 324242 L-948857 324241 L-948706 324238 L-948665 324236 L-948354 324235 L-948163 324233 L-947970 324230 L-947914 324227 L-947605 324226 L-947553 324224 L-947499 324226 L-947473 324226 L-947348 324226 L-946537 324224 L-946461 324223 L-945920 324221 L-945651 324220 L-944992 324218 L-944084 324217 L-943843 324216 L-943311 324214 L-943094 324213 L-941986 324214 L-941936 324214 L-941160 324214 L-940613 324213 L-940501 324211 L-940349 324208 L-940293 324207 L-940128 324205 L-939751 324204 L-939303 324202 L-939248 324201 L-939094 324199 L-938414 324198 L-938194 324196 L-937676 324195 L-936827 324192 L-936811 324190 L-935020 324189 L-934466 324187 L-934349 324186 L-933343 324184 L-933306 324183 L-933073 324183 L-932981 324183 L-932941 324183 L-932609 324181 L-932257 324180 L-931992 324177 L-931705 324175 L-931394 324173 L-931140 324170 L-931047 324168 L-930556 324167 L-930349 324165 L-929784 324164 L-929669 324165 L-929318 324164 L-929267 324164 L-929226 324164 L-928623 324161 L-927889 324158 L-927308 324155 L-927072 324152 L-926532 324147 L-926380 324144 L-925878 324143 L-925668 324140 L-925645 324140 L-925586 324138 L-924624 324138 L-924446 324137 L-924004 324135 L-923980 324133 L-923825 324131 L-923743 324131 L-923593 324133 L-922946 324133 L-922896 324131 L-921777 324130 L-920792 324128 L-920731 324127 L-920010 324125 L-919145 324124 L-918767 324122 L-918548 324122 L-917788 324121 L-917736 324119 L-917427 324116 L-916576 324116 L-916382 324115 L-916206 324113 L-915981 324113 L-915855 324112 L-915663 324112 L-915430 324110 L-915261 324112 L-914974 324110 L-914695 324110 L-914612 324109 L-914441 324107 L-914425 324104 L-914271 324103 L-914231 324101 L-913456 324100 L-913379 324100 L-913147 324097 L-912720 324095 L-912375 324094 L-911792 324092 L-911523 324092 L-911264 324092 L-911135 324090 L-911118 324088 L-911005 324087 L-910981 324085 L-910747 324084 L-910711 324082 L-909395 324082 L-909339 324081 L-908660 324078 L-908087 324078 L-907962 324078 L-907809 324078 L-907732 324078 L-907420 324075 L-907147 324073 L-907058 324070 L-906956 324070 L-906028 324069 L-905952 324069 L-905588 324069 L-905563 324067 L-905527 324066 L-904751 324063 L-904659 324061 L-904519 324060 L-904118 324058 L-903856 324058 L-903613 324060 L-903398 324058 L-903318 324058 L-903242 324058 L-903165 324058 L-902978 324060 L-902912 324060 L-902662 324060 L-902607 324058 L-902470 324057 L-902390 324054 L-902277 324052 L-902054 324051 L-901889 324049 L-901848 324048 L-901679 324047 L-901308 324045 L-901293 324044 L-901177 324042 L-900456 324041 L-900420 324039 L-900287 324039 L-899939 324038 L-899528 324038 L-899492 324038 L-899414 324036 L-899375 324035 L-899011 324033 L-898806 324032 L-898791 324030 L-898446 324029 L-898098 324029 L-897772 324029 L-897670 324027 L-897517 324027 L-897323 324026 L-897091 324026 L-896999 324026 L-896843 324026 L-896766 324026 L-896725 324024 L-896612 324023 L-896588 324021 L-896338 324021 L-896199 324018 L-895621 324014 L-894793 324011 L-894305 324008 L-894184 324006 L-894145 324005 L-894132 324004 L-893980 324001 L-893879 323998 L-893646 323996 L-893256 323993 L-892952 323992 L-892936 323990 L-892765 323989 L-892527 323986 L-891930 323986 L-891327 323984 L-891287 323984 L-891246 323984 L-891093 323983 L-891040 323981 L-890978 323980 L-890910 323978 L-890855 323975 L-890830 323974 L-890783 323972 L-890688 323969 L-890551 323968 L-890398 323966 L-890266 323965 L-890225 323965 L-890189 323963 L-890127 323962 L-889854 323959 L-889540 323958 L-889499 323955 L-889414 323953 L-889236 323952 L-888999 323950 L-888641 323949 L-888611 323947 L-888042 323946 L-887919 323944 L-887683 323943 L-887661 323943 L-887379 323941 L-887094 323941 L-886838 323941 L-886266 323940 L-885970 323938 L-885894 323937 L-885195 323935 L-885117 323934 L-885082 323932 L-885056 323931 L-885004 323928 L-884810 323926 L-884670 323923 L-884634 323922 L-884594 323920 L-883998 323919 L-883766 323918 L-883483 323928 L-883428 323937 L-883354 323947 L-883276 323956 L-883040 323953 L-882796 323952 L-882661 323950 L-882554 323949 L-882474 323947 L-882087 323944 L-881960 323943 L-881808 323941 L-881770 323940 L-881624 323938 L-881403 323937 L-881229 323935 L-881160 323934 L-880338 323931 L-880322 323931 L-880027 323929 L-879240 323928 L-878930 323928 L-878784 323926 L-878556 323925 L-878355 323922 L-877418 323920 L-877381 323919 L-877358 323918 L-877318 323915 L-877049 323913 L-876452 323912 L-876389 323910 L-876353 323909 L-876336 323907 L-875641 323907 L-875440 323907 L-875408 323907 L-875075 323907 L-874967 323906 L-874342 323903 L-873838 323901 L-873801 323898 L-873359 323898 L-873262 323897 L-873104 323897 L-872790 323897 L-872778 323897 L-872338 323898 L-871856 323900 L-871727 323900 L-871407 323900 L-871339 323898 L-871034 323898 L-870859 323897 L-870665 323895 L-870422 323892 L-870224 323889 L-870199 323886 L-869621 323885 L-869551 323883 L-869141 323882 L-869087 323880 L-869041 323879 L-868677 323878 L-868530 323876 L-868325 323875 L-868229 323875 L-868074 323873 L-868012 323872 L-867864 323869 L-867764 323867 L-867207 323867 L-867185 323870 L-867013 323872 L-866471 323873 L-866410 323873 L-866356 323870 L-866327 323867 L-866256 323866 L-866240 323863 L-866176 323861 L-866140 323858 L-865985 323857 L-865659 323855 L-865093 323854 L-865079 323852 L-865017 323849 L-864915 323846 L-864869 323846 L-864627 323845 L-864204 323845 L-864050 323845 L-862308 323842 L-861766 323840 L-860823 323839 L-860414 323837 L-859873 323835 L-859676 323833 L-859508 323832 L-859212 323830 L-859097 323829 L-859082 323829 L-858927 323827 L-858787 323826 L-858711 323823 L-858579 323823 L-858231 323823 L-857860 323824 L-857262 323824 L-857086 323824 L-856930 323823 L-856661 323821 L-856510 323821 L-856219 323826 L-856195 323829 L-856112 323832 L-855884 323835 L-855185 323833 L-855058 323832 L-854627 323830 L-854533 323829 L-853328 323829 L-853279 323827 L-852985 323827 L-852582 323826 L-852306 323823 L-852287 323821 L-852169 323820 L-852093 323818 L-851911 323817 L-851431 323815 L-850980 323812 L-850570 323811 L-850539 323809 L-850121 323808 L-850007 323808 L-849889 323808 L-849874 323808 L-849679 323806 L-849658 323803 L-849426 323802 L-848982 323800 L-848663 323797 L-848198 323797 L-848033 323796 L-847878 323794 L-847722 323794 L-847269 323794 L-846950 323794 L-846895 323796 L-846524 323796 L-846486 323797 L-846159 323797 L-846043 323796 L-845944 323794 L-845618 323792 L-845231 323790 L-844970 323789 L-844612 323786 L-844355 323784 L-842185 323783 L-842136 323781 L-842113 323780 L-841702 323780 L-841640 323780 L-841570 323781 L-841339 323781 L-841028 323780 L-840725 323777 L-840681 323775 L-840373 323774 L-840240 323772 L-840023 323771 L-839311 323769 L-839156 323769 L-839018 323768 L-838869 323768 L-838848 323768 L-838654 323766 L-838628 323765 L-838537 323763 L-838515 323762 L-838499 323760 L-838399 323759 L-837470 323757 L-837012 323757 L-835920 323754 L-835498 323754 L-835094 323753 L-835055 323751 L-834802 323750 L-834027 323747 L-834011 323746 L-833986 323744 L-833793 323743 L-833057 323741 L-832788 323740 L-832747 323738 L-832348 323735 L-832323 323734 L-831534 323732 L-830854 323731 L-829483 323729 L-829213 323728 L-829164 323726 L-828627 323723 L-828594 323722 L-828492 323719 L-828169 323717 L-828089 323716 L-827820 323716 L-826907 323714 L-826769 323714 L-826520 323711 L-825975 323711 L-825552 323710 L-825359 323708 L-825344 323708 L-825206 323706 L-825112 323704 L-824985 323703 L-824725 323701 L-824700 323698 L-824609 323697 L-824299 323695 L-824238 323694 L-824121 323694 L-823772 323694 L-822961 323694 L-822730 323691 L-821901 323691 L-821669 323688 L-821452 323686 L-820933 323686 L-820295 323685 L-819879 323683 L-819557 323682 L-819076 323680 L-818650 323680 L-818589 323679 L-818241 323679 L-818200 323677 L-818186 323676 L-818087 323673 L-818041 323673 L-817556 323671 L-816755 323671 L-816420 323671 L-815339 323670 L-814859 323668 L-814836 323667 L-814696 323665 L-814141 323664 L-813444 323663 L-813135 323661 L-812913 323660 L-812808 323658 L-812706 323655 L-812034 323654 L-811940 323652 L-811918 323652 L-811841 323651 L-811663 323651 L-811491 323651 L-811310 323649 L-811297 323648 L-811221 323646 L-811056 323645 L-810542 323643 L-810526 323642 L-810385 323642 L-810023 323640 L-809998 323640 L-809868 323639 L-809843 323637 L-809481 323636 L-808956 323633 L-808862 323631 L-808646 323628 L-808553 323627 L-808528 323625 L-808064 323624 L-807987 323624 L-807585 323623 L-807134 323623 L-805883 323621 L-805844 323620 L-805412 323618 L-805380 323617 L-804660 323615 L-804484 323614 L-804349 323612 L-804042 323611 L-803987 323609 L-803962 323606 L-803946 323603 L-803771 323602 L-803582 323600 L-803074 323600 L-802700 323588 L-802362 323575 L-802323 323563 L-801604 323553 L-801511 323551 L-801472 323550 L-800931 323550 L-800907 323548 L-800505 323547 L-800079 323545 L-799808 323545 L-799629 323544 L-799383 323541 L-799359 323539 L-799303 323537 L-798686 323535 L-798183 323534 L-797796 323534 L-797177 323535 L-796961 323535 L-796806 323537 L-795514 323534 L-795414 323532 L-794972 323529 L-794641 323528 L-794340 323525 L-794098 323523 L-793363 323520 L-792784 323519 L-791954 323517 L-791854 323516 L-791296 323514 L-791158 323513 L-789517 323511 L-789456 323511 L-789362 323511 L-788395 323511 L-788217 323510 L-787930 323510 L-787713 323510 L-787634 323508 L-787363 323508 L-787248 323507 L-787095 323505 L-786784 323504 L-786706 323502 L-786615 323502 L-786538 323501 L-786422 323501 L-786242 323499 L-786150 323498 L-786112 323496 L-785609 323496 L-785391 323495 L-785261 323495 L-785106 323494 L-785051 323492 L-784927 323492 L-784542 323491 L-784033 323489 L-783961 323488 L-783481 323486 L-783404 323485 L-783303 323485 L-783070 323483 L-782605 323483 L-782375 323483 L-782359 323483 L-782127 323483 L-781972 323483 L-781911 323483 L-781718 323482 L-781447 323479 L-780695 323477 L-779742 323477 L-779706 323476 L-779481 323476 L-779041 323476 L-778761 323473 L-778412 323471 L-777343 323470 L-776415 323470 L-776284 323470 L-776238 323470 L-776168 323468 L-776014 323468 L-775936 323465 L-775763 323462 L-775328 323459 L-775124 323458 L-775064 323455 L-774481 323453 L-774327 323451 L-774211 323449 L-774171 323448 L-774001 323446 L-773864 323445 L-773654 323442 L-773576 323440 L-773553 323439 L-773344 323436 L-772934 323434 L-772910 323433 L-772686 323431 L-772541 323430 L-772506 323428 L-772493 323427 L-772470 323425 L-772237 323424 L-772052 323422 L-771834 323421 L-771809 323419 L-771120 323418 L-771016 323416 L-770981 323415 L-770960 323413 L-770766 323412 L-770713 323410 L-770596 323408 L-770514 323408 L-770403 323406 L-770089 323405 L-769629 323403 L-769374 323402 L-769140 323399 L-769010 323397 L-768658 323396 L-768599 323394 L-768446 323393 L-767874 323390 L-767787 323388 L-767634 323385 L-767338 323382 L-766968 323379 L-766665 323376 L-766588 323375 L-766184 323373 L-766016 323373 L-765872 323373 L-765331 323373 L-765271 323373 L-765255 323370 L-765089 323369 L-764883 323368 L-764808 323368 L-764715 323366 L-764306 323365 L-764290 323363 L-764266 323363 L-764073 323362 L-763997 323375 L-763826 323388 L-763764 323400 L-763748 323413 L-763234 323412 L-763013 323410 L-762394 323408 L-762140 323406 L-761946 323405 L-761907 323403 L-761833 323403 L-761768 323403 L-761118 323403 L-761079 323405 L-760905 323405 L-760839 323405 L-760165 323405 L-759776 323402 L-759514 323400 L-759276 323399 L-759199 323396 L-759183 323393 L-758981 323391 L-758610 323388 L-758385 323387 L-757749 323385 L-757729 323385 L-757342 323384 L-757248 323384 L-757190 323382 L-756914 323381 L-756605 323381 L-756528 323379 L-755676 323381 L-755334 323388 L-754897 323397 L-754463 323405 L-753968 323412 L-753818 323410 L-753550 323412 L-752312 323413 L-752255 323416 L-750491 323418 L-750301 323416 L-749291 323415 L-749140 323413 L-748764 323416 L-748444 323419 L-747838 323422 L-747768 323425 L-747591 323424 L-746763 323422 L-746624 323421 L-746237 323419 L-746053 323418 L-746009 323416 L-745889 323415 L-745679 323413 L-745232 323410 L-744884 323409 L-744752 323408 L-744343 323406 L-743992 323406 L-743707 323405 L-743514 323403 L-743359 323403 L-743195 323402 L-743127 323400 L-743027 323400 L-742794 323399 L-742677 323399 L-742624 323397 L-742082 323397 L-741618 323396 L-740436 323396 L-740302 323396 L-740278 323396 L-740225 323396 L-739557 323396 L-738523 323393 L-738329 323391 L-738149 323390 L-737998 323390 L-737957 323388 L-737942 323388 L-737880 323387 L-737555 323385 L-736395 323384 L-736201 323382 L-736024 323381 L-734910 323379 L-734050 323378 L-733944 323378 L-733470 323376 L-733278 323376 L-730956 323375 L-730878 323373 L-730757 323370 L-730723 323369 L-730685 323366 L-730591 323362 L-730375 323359 L-729794 323356 L-729408 323354 L-728635 323353 L-728557 323351 L-727860 323351 L-727318 323351 L-727277 323350 L-727147 323350 L-726683 323348 L-726645 323347 L-726510 323345 L-726142 323344 L-726112 323342 L-725962 323342 L-725561 323341 L-723737 323342 L-722930 323341 L-722212 323341 L-722195 323341 L-721881 323338 L-721320 323336 L-720818 323335 L-720299 323333 L-720278 323332 L-718534 323330 L-718365 323329 L-718169 323327 L-717276 323326 L-716757 323323 L-716547 323322 L-716289 323320 L-715579 323319 L-714629 323317 L-713971 323316 L-713931 323313 L-713645 323311 L-713562 323310 L-713467 323310 L-713335 323308 L-713258 323308 L-712523 323308 L-712185 323307 L-712136 323308 L-711881 323308 L-711594 323307 L-711168 323307 L-710588 323305 L-710329 323305 L-710178 323304 L-709930 323304 L-709892 323304 L-709095 323302 L-709057 323301 L-708880 323301 L-708471 323298 L-708242 323298 L-708166 323298 L-708035 323298 L-707919 323296 L-707570 323295 L-707507 323293 L-707355 323292 L-706614 323290 L-706502 323289 L-706332 323287 L-706293 323286 L-705999 323286 L-705597 323286 L-705421 323286 L-705326 323286 L-705017 323284 L-704215 323283 L-703757 323280 L-703237 323279 L-702748 323277 L-702053 323276 L-701006 323274 L-700738 323274 L-700683 323273 L-700523 323273 L-700271 323273 L-700025 323271 L-699947 323270 L-699732 323267 L-699420 323265 L-698957 323262 L-698942 323261 L-698646 323261 L-698633 323259 L-697642 323258 L-696969 323256 L-696634 323253 L-696018 323253 L-695881 323252 L-695242 323250 L-695112 323249 L-694161 323246 L-694062 323243 L-693502 323241 L-693094 323241 L-692665 323241 L-692574 323240 L-691739 323240 L-691376 323240 L-691336 323241 L-691204 323243 L-691027 323243 L-690811 323243 L-690757 323241 L-690600 323239 L-690347 323237 L-689247 323236 L-689170 323234 L-688950 323233 L-688819 323230 L-688783 323228 L-688589 323227 L-688490 323225 L-688006 323224 L-687722 323222 L-687562 323221 L-687467 323218 L-687196 323216 L-686926 323215 L-686910 323209 L-686771 323204 L-686633 323200 L-686306 323194 L-685997 323191 L-685956 323190 L-685880 323187 L-685765 323185 L-684915 323182 L-684588 323181 L-684257 323179 L-684124 323179 L-683908 323179 L-683892 323179 L-683211 323179 L-683118 323176 L-683095 323175 L-683079 323172 L-683040 323170 L-682629 323167 L-682359 323166 L-682319 323164 L-681951 323164 L-681741 323163 L-680658 323163 L-680642 323161 L-680613 323160 L-680593 323160 L-680216 323157 L-679961 323155 L-679713 323153 L-679574 323150 L-679442 323148 L-679110 323147 L-679017 323145 L-678956 323144 L-678398 323142 L-678337 323141 L-678181 323139 L-677987 323138 L-677794 323136 L-677779 323135 L-677740 323133 L-677701 323132 L-677430 323130 L-677307 323129 L-677275 323127 L-677175 323127 L-677020 323127 L-676879 323127 L-676594 323126 L-676269 323126 L-675573 323124 L-675550 323124 L-675041 323124 L-674195 323124 L-673832 323123 L-673677 323121 L-673074 323121 L-672904 323121 L-672843 323121 L-672788 323120 L-671732 323118 L-671714 323118 L-670808 323118 L-670786 323118 L-670619 323117 L-670377 323117 L-670327 323115 L-670272 323113 L-670135 323111 L-670095 323110 L-669167 323108 L-669112 323108 L-668990 323108 L-668918 323108 L-668802 323108 L-668624 323110 L-667641 323108 L-667502 323108 L-667384 323105 L-667090 323102 L-666843 323101 L-666806 323099 L-666751 323101 L-666730 323101 L-666597 323101 L-666518 323101 L-666380 323099 L-665757 323099 L-665591 323098 L-665126 323098 L-664950 323095 L-664933 323093 L-664873 323092 L-664757 323090 L-664274 323089 L-663578 323087 L-663205 323086 L-663036 323084 L-662070 323083 L-661915 323081 L-661737 323081 L-661645 323080 L-661390 323080 L-661219 323080 L-660572 323078 L-660561 323078 L-659981 323077 L-659843 323077 L-659788 323074 L-659052 323072 L-659014 323071 L-658936 323071 L-658294 323070 L-657520 323070 L-657427 323068 L-657379 323068 L-657363 323067 L-657327 323067 L-657311 323064 L-657248 323062 L-657232 323061 L-657212 323061 L-657057 323059 L-657018 323058 L-657002 323056 L-656963 323055 L-656823 323053 L-656747 323052 L-656383 323050 L-656035 323049 L-655261 323047 L-654658 323046 L-654462 323044 L-654232 323044 L-654094 323043 L-653456 323043 L-653167 323041 L-653145 323041 L-652685 323040 L-652452 323040 L-652397 323038 L-652359 323037 L-651856 323035 L-651306 323034 L-650518 323032 L-649395 323032 L-648500 323031 L-648413 323031 L-648113 323029 L-648041 323028 L-647925 323027 L-646749 323025 L-646401 323024 L-646378 323022 L-645859 323021 L-645712 323019 L-645604 323018 L-645395 323016 L-645240 323015 L-645217 323013 L-645023 323012 L-644947 323010 L-644803 323009 L-644002 323007 L-643856 323006 L-643576 323004 L-643399 323003 L-643089 323001 L-642278 323000 L-641349 323000 L-639757 322998 L-639514 322997 L-638873 322995 L-638677 322994 L-638600 322992 L-638082 322991 L-637850 322991 L-637827 322989 L-637695 322989 L-637356 322988 L-637345 322986 L-637129 322985 L-637092 322984 L-636550 322982 L-636021 322979 L-635954 322978 L-635660 322976 L-635113 322973 L-635077 322972 L-635025 322970 L-634925 322967 L-634693 322967 L-634113 322967 L-634015 322969 L-633941 322969 L-633609 322967 L-632859 322966 L-632820 322964 L-632140 322964 L-631986 322964 L-631659 322963 L-631444 322961 L-631212 322961 L-630916 322960 L-630669 322958 L-630318 322957 L-630265 322955 L-629506 322954 L-628812 322951 L-628462 322948 L-627998 322946 L-627365 322945 L-626956 322943 L-626878 322945 L-626452 322945 L-625809 322943 L-625640 322943 L-624898 322942 L-624711 322941 L-624416 322939 L-623844 322938 L-623818 322936 L-622799 322936 L-622312 322935 L-622219 322935 L-622158 322933 L-621870 322932 L-621584 322930 L-621522 322929 L-621343 322929 L-620631 322927 L-620456 322926 L-620257 322924 L-620105 322923 L-620014 322921 L-619952 322920 L-619410 322920 L-619100 322918 L-619008 322915 L-618930 322912 L-618363 322911 L-618272 322911 L-618018 322908 L-617691 322905 L-617654 322900 L-617499 322896 L-617267 322895 L-616945 322893 L-615812 322892 L-615613 322890 L-615087 322889 L-614843 322889 L-614597 322887 L-614517 322886 L-614497 322883 L-614420 322881 L-614365 322878 L-614288 322877 L-614249 322875 L-614070 322872 L-614033 322871 L-613801 322869 L-612563 322868 L-612237 322866 L-612197 322863 L-611415 322862 L-611269 322860 L-610277 322859 L-610070 322859 L-609645 322859 L-609517 322859 L-609113 322860 L-609025 322859 L-608368 322858 L-607661 322856 L-607052 322855 L-606859 322853 L-606626 322850 L-606008 322849 L-605712 322846 L-605272 322844 L-605118 322843 L-604963 322841 L-604207 322838 L-603856 322837 L-603454 322837 L-603416 322835 L-602410 322835 L-602090 322835 L-601843 322834 L-601143 322831 L-601070 322829 L-600757 322828 L-599677 322826 L-599486 322825 L-599252 322825 L-599057 322823 L-598557 322822 L-597803 322822 L-597689 322822 L-597489 322822 L-597448 322820 L-597355 322819 L-597042 322817 L-596954 322816 L-596838 322815 L-596520 322815 L-596451 322813 L-596426 322812 L-596064 322810 L-596026 322809 L-595809 322807 L-595306 322809 L-594704 322810 L-594492 322813 L-594339 322815 L-594301 322815 L-594257 322812 L-594223 322810 L-594090 322809 L-593680 322807 L-593310 322806 L-593256 322804 L-593240 322803 L-593161 322801 L-592751 322800 L-592598 322798 L-592582 322795 L-592543 322794 L-592364 322791 L-592288 322789 L-592057 322788 L-591267 322786 L-591189 322786 L-590454 322783 L-590299 322782 L-590059 322779 L-589997 322776 L-589912 322774 L-589889 322772 L-589771 322769 L-589757 322766 L-589695 322763 L-589658 322761 L-589564 322760 L-589541 322760 L-589425 322758 L-589192 322757 L-589022 322754 L-588202 322754 L-587801 322752 L-587646 322752 L-587141 322752 L-587027 322752 L-586431 322752 L-586056 322751 L-586004 322751 L-585811 322749 L-585114 322749 L-585076 322748 L-584931 322748 L-584706 322746 L-584444 322745 L-584070 322743 L-583644 322742 L-583515 322740 L-583495 322737 L-583002 322737 L-582305 322736 L-582074 322737 L-581920 322737 L-580952 322737 L-580727 322739 L-580449 322739 L-580433 322737 L-579907 322736 L-579378 322734 L-579230 322733 L-579211 322731 L-578669 322730 L-578359 322729 L-578242 322726 L-578050 322723 L-577913 322720 L-577586 322718 L-577470 322717 L-577160 322717 L-576734 322715 L-576678 322715 L-576445 322717 L-576349 322717 L-576216 322717 L-575920 322717 L-575805 322715 L-575441 322714 L-575128 322714 L-574645 322712 L-574475 322711 L-574227 322709 L-574011 322708 L-573485 322706 L-573299 322703 L-572943 322702 L-572308 322700 L-572153 322697 L-571413 322696 L-570993 322694 L-570813 322693 L-570737 322693 L-570606 322691 L-570312 322690 L-570271 322688 L-570041 322688 L-569849 322687 L-569593 322687 L-569167 322686 L-569058 322684 L-568439 322684 L-568258 322684 L-567046 322684 L-566399 322686 L-566248 322686 L-566211 322686 L-566079 322686 L-565978 322684 L-565962 322683 L-565880 322681 L-565669 322680 L-565552 322678 L-565189 322677 L-564818 322675 L-564121 322674 L-563719 322672 L-563614 322671 L-563596 322669 L-562651 322668 L-562456 322665 L-562304 322663 L-562248 322660 L-561492 322660 L-561475 322663 L-560986 322665 L-560856 322668 L-560663 322668 L-559773 322666 L-559733 322665 L-559695 322663 L-559618 322662 L-559579 322662 L-559502 322660 L-559418 322659 L-559154 322657 L-558922 322656 L-558860 322654 L-558379 322653 L-558042 322653 L-557931 322651 L-557738 322650 L-557561 322648 L-557502 322648 L-557466 322647 L-557196 322645 L-556498 322643 L-556445 322640 L-556151 322637 L-555749 322634 L-555185 322632 L-554312 322631 L-554007 322629 L-553969 322628 L-553846 322626 L-553248 322625 L-553118 322623 L-552918 322622 L-552881 322620 L-552267 322619 L-552088 322617 L-552073 322614 L-551855 322613 L-551777 322610 L-551470 322610 L-551338 322608 L-551106 322608 L-550772 322608 L-550680 322607 L-550579 322605 L-550542 322604 L-549999 322604 L-549806 322603 L-549265 322601 L-548839 322600 L-548707 322600 L-548646 322600 L-548414 322600 L-548398 322600 L-547910 322601 L-547829 322601 L-547811 322601 L-546419 322603 L-546283 322603 L-546169 322601 L-545535 322600 L-545395 322598 L-545277 322597 L-545123 322594 L-545087 322592 L-545008 322591 L-544954 322592 L-543962 322592 L-543926 322591 L-543793 322591 L-543732 322588 L-543633 322586 L-543343 322585 L-543329 322583 L-543019 322583 L-542919 322585 L-542454 322583 L-542401 322740 L-542258 322896 L-542130 323053 L-541898 323210 L-541329 323209 L-541240 323207 L-541218 323207 L-540931 323206 L-540248 323204 L-540171 323203 L-540134 323201 L-540118 323200 L-539919 323198 L-539498 323196 L-539227 323196 L-538354 323194 L-538061 323194 L-537950 323194 L-537216 323193 L-537089 323191 L-536730 323190 L-536477 323190 L-535606 323188 L-535436 323188 L-535375 323187 L-535320 323185 L-534972 323184 L-534949 323182 L-534740 323181 L-534600 323179 L-534469 323178 L-534346 323176 L-534223 323175 L-533986 323173 L-533695 323172 L-533036 323170 L-533014 323169 L-532860 323167 L-532742 323166 L-531778 323164 L-531722 323163 L-531489 323161 L-531467 323160 L-531141 323158 L-531026 323158 L-530986 323157 L-530484 323157 L-530185 323155 L-530073 323154 L-529531 323153 L-528472 323151 L-527846 323150 L-527674 323148 L-527427 323147 L-527170 323145 L-527040 323144 L-527018 323142 L-526350 323141 L-525454 323139 L-525408 323138 L-525338 323136 L-525222 323136 L-525002 323135 L-524811 323135 L-524772 323133 L-524579 323132 L-523920 323132 L-523303 323130 L-523264 323139 L-522668 323148 L-522606 323155 L-521484 323163 L-521430 323163 L-521309 323161 L-521043 323160 L-520979 323160 L-520710 323160 L-520634 323158 L-520418 323158 L-519936 323157 L-519666 323155 L-519534 323155 L-519302 323153 L-519277 323148 L-519262 323142 L-519240 323135 L-519224 323127 L-519200 323120 L-519186 323111 L-519163 323102 L-519147 323093 L-519124 323086 L-519109 323078 L-519087 323071 L-519070 323067 L-519042 323062 L-519024 323056 L-519007 323053 L-518970 323049 L-518930 323046 L-518915 323043 L-518890 323038 L-518838 323035 L-518813 323032 L-518737 323029 L-518699 323028 L-518683 323025 L-518620 323022 L-518606 323019 L-518560 323015 L-518489 323012 L-518451 323010 L-518426 323007 L-518374 323004 L-518349 323003 L-518333 323001 L-518272 323000 L-518235 322998 L-518158 322997 L-518142 322995 L-518114 322992 L-518041 322991 L-518002 322989 L-517848 322986 L-517732 322985 L-517677 322984 L-517595 322982 L-517562 322981 L-517538 322979 L-517383 322978 L-517368 322976 L-517267 322975 L-516956 322973 L-516920 322972 L-516704 322970 L-516593 322970 L-516569 322970 L-516339 322972 L-516106 322972 L-515731 322970 L-515604 322969 L-515564 322967 L-515511 322966 L-515410 322964 L-515373 322963 L-515163 322963 L-515098 322961 L-514986 322961 L-514774 322960 L-514737 322958 L-514365 322957 L-514311 322955 L-514233 322954 L-514211 322952 L-514118 322951 L-513918 322949 L-513880 322949 L-513859 322949 L-513629 322949 L-513608 322948 L-513398 322948 L-513304 322946 L-513266 322945 L-512930 322943 L-512817 322942 L-512777 322941 L-512764 322941 L-512624 322939 L-512609 322939 L-512354 322939 L-511772 322938 L-511695 322936 L-511658 322935 L-511613 322933 L-511564 322932 L-511385 322930 L-511370 322929 L-511270 322927 L-511193 322926 L-511132 322924 L-510767 322921 L-510684 322920 L-510667 322918 L-510613 322917 L-509645 322915 L-509513 322914 L-509492 322912 L-509271 322911 L-509203 322909 L-509180 322908 L-508934 322906 L-508677 322905 L-508546 322903 L-508507 322902 L-508486 322899 L-508430 322896 L-508342 322895 L-508281 322892 L-508056 322890 L-507927 322889 L-507827 322887 L-507772 322886 L-507579 322884 L-507501 322883 L-507168 322881 L-507037 322880 L-506860 322878 L-506844 322877 L-506819 322875 L-506549 322875 L-505349 322874 L-505312 322874 L-505195 322872 L-504962 322871 L-504771 322869 L-504732 322869 L-504677 322868 L-504572 322868 L-504058 322866 L-503764 322865 L-503532 322863 L-503257 322862 L-503240 322860 L-503207 322859 L-503167 322858 L-503130 322856 L-503028 322855 L-502951 322853 L-502858 322852 L-502731 322850 L-502627 322849 L-502449 322849 L-502256 322847 L-501427 322847 L-501311 322846 L-501057 322844 L-501016 322843 L-500917 322841 L-500857 322841 L-500615 322840 L-500591 322840 L-500470 322838 L-500398 322837 L-500359 322835 L-500127 322834 L-499951 322832 L-499431 322831 L-499354 322829 L-499338 322828 L-498927 322828 L-498564 322828 L-498448 322826 L-498425 322826 L-498385 322825 L-498309 322823 L-498255 322822 L-497906 322820 L-497790 322819 L-497613 322819 L-497558 322817 L-497534 322817 L-497420 322816 L-497132 322815 L-496900 322813 L-496685 322812 L-496475 322810 L-496265 322807 L-495438 322806 L-495099 322804 L-494091 322803 L-493728 322801 L-492683 322800 L-492605 322798 L-492158 322797 L-491947 322795 L-491755 322794 L-491460 322792 L-491419 322791 L-491266 322789 L-491213 322786 L-490981 322785 L-490401 322783 L-490207 322782 L-489588 322782 L-489098 322780 L-489047 322779 L-488398 322777 L-488248 322776 L-488079 322774 L-487705 322773 L-487690 322773 L-487591 322772 L-487552 322772 L-487421 322770 L-486988 322770 L-486685 322770 L-486299 322770 L-486159 322769 L-485998 322769 L-485564 322769 L-485525 322767 L-485424 322767 L-485309 322766 L-485131 322766 L-484961 322764 L-484843 322763 L-484481 322760 L-484264 322758 L-484131 322757 L-483991 322757 L-483492 322757 L-483414 322757 L-483180 322755 L-482856 322755 L-482469 322754 L-482446 322752 L-481826 322752 L-481556 322751 L-481323 322751 L-480898 322749 L-480627 322748 L-480485 322746 L-480276 322745 L-480070 322743 L-479519 322742 L-479388 322742 L-479002 322740 L-478731 322740 L-478628 322739 L-478368 322737 L-478166 322736 L-478097 322734 L-478058 322733 L-477491 322731 L-477284 322730 L-477257 322729 L-477028 322727 L-476951 322726 L-476434 322724 L-476395 322723 L-476240 322721 L-475946 322720 L-475674 322718 L-475311 322717 L-474963 322717 L-474590 322715 L-474470 322715 L-474398 322714 L-473919 322712 L-473856 322711 L-473521 322709 L-473390 322708 L-473312 322706 L-473183 322705 L-472719 322705 L-472425 322703 L-472349 322703 L-472037 322702 L-471729 322700 L-471666 322699 L-471636 322697 L-470861 322696 L-470756 322693 L-470669 322691 L-470646 322690 L-470491 322688 L-470270 322687 L-470103 322686 L-469716 322684 L-469661 322683 L-469598 322683 L-468980 322681 L-468864 322680 L-468540 322678 L-468015 322677 L-467664 322675 L-467588 322674 L-466969 322672 L-466558 322671 L-466257 322669 L-465946 322668 L-465808 322666 L-465184 322666 L-464803 322665 L-463679 322665 L-462619 322663 L-462556 322662 L-462195 322660 L-462094 322660 L-462078 322659 L-461704 322659 L-460699 322656 L-460312 322654 L-460105 322651 L-460016 322650 L-459641 322648 L-459348 322647 L-459037 322645 L-458248 322644 L-458160 322643 L-458108 322641 L-458069 322640 L-457551 322638 L-457436 322637 L-457227 322635 L-457088 322634 L-456484 322632 L-455655 322631 L-455372 322629 L-455190 322629 L-454689 322628 L-454484 322628 L-453929 322628 L-453424 322626 L-453233 322625 L-453194 322623 L-452566 322622 L-452112 322620 L-451698 322619 L-451089 322617 L-449969 322617 L-449556 322616 L-449231 322616 L-449017 322614 L-448590 322613 L-448450 322611 L-448358 322610 L-448127 322608 L-447540 322608 L-446733 322607 L-445533 322607 L-445419 322607 L-445287 322605 L-445199 322604 L-445158 322605 L-445137 322607 L-445126 322610 L-445032 322613 L-444268 322613 L-443562 322613 L-443522 322611 L-443236 322610 L-442695 322608 L-442634 322607 L-442594 322605 L-442579 322604 L-442322 322603 L-441999 322601 L-441859 322600 L-441589 322598 L-441550 322597 L-441442 322595 L-441040 322594 L-440931 322592 L-440853 322591 L-440556 322589 L-440514 322588 L-440295 322588 L-440112 322588 L-440001 322588 L-439987 322586 L-439961 322586 L-439537 322585 L-439290 322583 L-438954 322582 L-438920 322580 L-438785 322579 L-438531 322579 L-438377 322577 L-437471 322577 L-437372 322576 L-437176 322573 L-436169 322571 L-435669 322570 L-435590 322568 L-435552 322567 L-435344 322565 L-435225 322564 L-435127 322562 L-434941 322561 L-434776 322560 L-434540 322558 L-434120 322557 L-434105 322555 L-433796 322554 L-432750 322552 L-432533 322551 L-432517 322549 L-432495 322548 L-432287 322546 L-432128 322545 L-432069 322543 L-430624 322542 L-430298 322542 L-430096 322542 L-429897 322542 L-429747 322542 L-429477 322540 L-429036 322539 L-428818 322539 L-428123 322537 L-427621 322536 L-427296 322534 L-427025 322534 L-426305 322533 L-426150 322533 L-424951 322530 L-424562 322528 L-424446 322525 L-424293 322524 L-424139 322522 L-423169 322521 L-423117 322519 L-422870 322518 L-422847 322517 L-422628 322515 L-422189 322512 L-422050 322509 L-421942 322506 L-421740 322505 L-421623 322503 L-421520 322502 L-421506 322502 L-421373 322500 L-421119 322499 L-420502 322497 L-419842 322496 L-419596 322496 L-419404 322494 L-418644 322494 L-418605 322494 L-418527 322493 L-418475 322490 L-418435 322488 L-418397 322487 L-418359 322485 L-418267 322484 L-418223 322482 L-418164 322479 L-418140 322478 L-418026 322476 L-417716 322474 L-417661 322472 L-417639 322471 L-417297 322469 L-417132 322468 L-417096 322465 L-417056 322463 L-417041 322462 L-416810 322460 L-416669 322459 L-416501 322457 L-416051 322457 L-415818 322457 L-415725 322457 L-415705 322459 L-415225 322457 L-415147 322457 L-415020 322456 L-414890 322453 L-414512 322451 L-414270 322448 L-414233 322447 L-414179 322445 L-414041 322442 L-414001 322441 L-413961 322439 L-413731 322438 L-413691 322436 L-413561 322435 L-413382 322433 L-413341 322432 L-413327 322431 L-413163 322429 L-413148 322428 L-412996 322426 L-412981 322425 L-412954 322423 L-412920 322422 L-412698 322419 L-412476 322419 L-412221 322417 L-412089 322419 L-411447 322419 L-410840 322417 L-409820 322417 L-409627 322416 L-409576 322414 L-409451 322413 L-409127 322411 L-408354 322410 L-408296 322408 L-408182 322407 L-407770 322405 L-407445 322404 L-407308 322402 L-407083 322401 L-406557 322399 L-406156 322399 L-406125 322398 L-405838 322398 L-405553 322396 L-405165 322395 L-404948 322393 L-404521 322390 L-404340 322389 L-404003 322388 L-403897 322386 L-403710 322386 L-403593 322385 L-403579 322385 L-402858 322383 L-402688 322382 L-402440 322380 L-402340 322379 L-401698 322377 L-401409 322376 L-401219 322374 L-400944 322373 L-400627 322371 L-400342 322370 L-400228 322367 L-400183 322365 L-399981 322364 L-398372 322362 L-398160 322361 L-397479 322359 L-397397 322358 L-397169 322356 L-396978 322356 L-396839 322355 L-396821 322355 L-396627 322355 L-396398 322355 L-396205 322355 L-395121 322353 L-394925 322353 L-394873 322353 L-394719 322353 L-394611 322353 L-394445 322353 L-394292 322352 L-394177 322350 L-394053 322348 L-393636 322346 L-393379 322343 L-393287 322342 L-393093 322342 L-393032 322340 L-392706 322340 L-392645 322340 L-392588 322339 L-392319 322337 L-391971 322336 L-391792 322334 L-391598 322333 L-391562 322334 L-390849 322334 L-390810 322337 L-390501 322339 L-390203 322340 L-390153 322342 L-389898 322343 L-389627 322345 L-389572 322345 L-388480 322345 L-388450 322343 L-388410 322343 L-388233 322343 L-388041 322342 L-387183 322342 L-386129 322340 L-386068 322339 L-385719 322337 L-384907 322337 L-384093 322337 L-384078 322337 L-383703 322337 L-383535 322337 L-383266 322337 L-382938 322336 L-382817 322334 L-382760 322334 L-382724 322333 L-382647 322333 L-382430 322331 L-382371 322330 L-382056 322328 L-381888 322327 L-381525 322327 L-381331 322327 L-381308 322327 L-381230 322325 L-380749 322325 L-380612 322325 L-380198 322324 L-379899 322324 L-379800 322322 L-379784 322321 L-379756 322319 L-379397 322318 L-379046 322316 L-378909 322315 L-378872 322315 L-378055 322313 L-377849 322312 L-377825 322310 L-377669 322310 L-377579 322309 L-377337 322309 L-377013 322307 L-376921 322307 L-376725 322306 L-376439 322306 L-375683 322305 L-375554 322303 L-375480 322302 L-374867 322300 L-374692 322299 L-374581 322297 L-374482 322296 L-374403 322294 L-374266 322293 L-374111 322293 L-374032 322293 L-373841 322293 L-373168 322293 L-373130 322291 L-373027 322290 L-372083 322288 L-372062 322287 L-371711 322285 L-371246 322284 L-371210 322282 L-370781 322281 L-370730 322281 L-370318 322279 L-370302 322279 L-370205 322279 L-370150 322279 L-370112 322279 L-369816 322278 L-368078 322276 L-366568 322275 L-366060 322273 L-365563 322272 L-365429 322270 L-365338 322269 L-365210 322267 L-365131 322264 L-364826 322263 L-364555 322262 L-364321 322262 L-363123 322260 L-363018 322260 L-362952 322259 L-362110 322257 L-361924 322256 L-361013 322254 L-360144 322251 L-359857 322250 L-359764 322247 L-359215 322245 L-358695 322244 L-357627 322242 L-357358 322241 L-357204 322241 L-357112 322241 L-356981 322242 L-356934 322244 L-356774 322244 L-355909 322244 L-355574 322244 L-355191 322242 L-354438 322241 L-354379 322239 L-353989 322239 L-353667 322239 L-353510 322238 L-352778 322238 L-352716 322238 L-352428 322238 L-352055 322238 L-351873 322238 L-351618 322236 L-351356 322233 L-351204 322232 L-350800 322230 L-349503 322229 L-349388 322227 L-348924 322226 L-347592 322224 L-347167 322223 L-347143 322221 L-347010 322220 L-346835 322219 L-346702 322219 L-346372 322217 L-345984 322216 L-345945 322214 L-345928 322211 L-345538 322210 L-345246 322208 L-344977 322208 L-344804 322208 L-343311 322208 L-343260 322207 L-343182 322208 L-341942 322210 L-341867 322210 L-341840 322213 L-341594 322211 L-341437 322211 L-341378 322210 L-340490 322210 L-340262 322208 L-339738 322208 L-339597 322210 L-339521 322210 L-338825 322211 L-338577 322211 L-337897 322210 L-337879 322210 L-337626 322208 L-337258 322208 L-337122 322207 L-336500 322204 L-336157 322202 L-336109 322201 L-335622 322199 L-335288 322196 L-335072 322196 L-334937 322195 L-334616 322193 L-334552 322193 L-334300 322192 L-334010 322190 L-333700 322189 L-333561 322187 L-333022 322186 L-332746 322184 L-332016 322183 L-331962 322183 L-331855 322183 L-331589 322183 L-331165 322183 L-330901 322181 L-330681 322180 L-330661 322178 L-330429 322177 L-330142 322176 L-330119 322176 L-330105 322174 L-329732 322174 L-329560 322173 L-329485 322170 L-329424 322168 L-329122 322165 L-328882 322162 L-328789 322161 L-328532 322159 L-328479 322158 L-328284 322156 L-328068 322158 L-327644 322158 L-327552 322159 L-327411 322158 L-326546 322156 L-326173 322155 L-325845 322152 L-325693 322150 L-325265 322150 L-324548 322149 L-324353 322149 L-323998 322147 L-323852 322146 L-323345 322143 L-323109 322141 L-322142 322140 L-322132 322138 L-321067 322137 L-320834 322135 L-320433 322134 L-320238 322133 L-320158 322131 L-320062 322130 L-319325 322130 L-319193 322130 L-318803 322130 L-318781 322128 L-318686 322128 L-318551 322127 L-318534 322125 L-318514 322124 L-316829 322122 L-316810 322122 L-316694 322121 L-316609 322121 L-316484 322121 L-316461 322119 L-316176 322118 L-316070 322116 L-315882 322113 L-315611 322112 L-314939 322110 L-314567 322109 L-313715 322109 L-313658 322107 L-313638 322107 L-313405 322107 L-313130 322106 L-312825 322106 L-312785 322103 L-312555 322103 L-312317 322101 L-311704 322100 L-311663 322098 L-311626 322095 L-311104 322094 L-310913 322093 L-310852 322091 L-310810 322090 L-310487 322090 L-310460 322088 L-310445 322088 L-309960 322087 L-309907 322085 L-309768 322084 L-309730 322082 L-309713 322081 L-309619 322079 L-308953 322079 L-308337 322078 L-308067 322078 L-307659 322078 L-307639 322076 L-307623 322076 L-307510 322075 L-307123 322073 L-306656 322073 L-306595 322072 L-306517 322070 L-306502 322069 L-306016 322066 L-305976 322064 L-305831 322064 L-305781 322063 L-305703 322064 L-305071 322063 L-304980 322063 L-304739 322063 L-304622 322061 L-304294 322061 L-303540 322060 L-303523 322060 L-302572 322060 L-302263 322058 L-301838 322057 L-301124 322055 L-300805 322054 L-300791 322052 L-300639 322050 L-300336 322048 L-300258 322047 L-300131 322045 L-299694 322045 L-299634 322045 L-299110 322045 L-298842 322045 L-298705 322044 L-298626 322042 L-298587 322041 L-297776 322041 L-297735 322041 L-297295 322041 L-297217 322041 L-296960 322039 L-296769 322038 L-296140 322036 L-295953 322035 L-295919 322032 L-295763 322030 L-295361 322027 L-295284 322026 L-295103 322024 L-294912 322023 L-293984 322020 L-293833 322018 L-292625 322017 L-291816 322015 L-291412 322014 L-290810 322012 L-290608 322011 L-290539 322009 L-290381 322008 L-290120 322007 L-289746 323335 L-289728 323333 L-289571 323333 L-288373 323333 L-287269 322004 L-286341 322002 L-286228 322001 L-285942 321999 L-285840 321998 L-285816 321998 L-285626 321995 L-285548 321993 L-285352 321993 L-284641 321993 L-284483 321995 L-283426 321995 L-283001 321995 L-282591 321993 L-282305 321990 L-282130 321989 L-281899 321987 L-281645 321986 L-281202 321984 L-280541 321983 L-280365 321981 L-280060 321980 L-279673 321978 L-279654 321977 L-279634 321975 L-279613 321974 L-279479 321972 L-279287 321971 L-277643 321969 L-276346 321968 L-276307 321966 L-276250 321965 L-276148 321964 L-275589 321962 L-274605 321961 L-274063 321958 L-273599 321956 L-272953 321955 L-272404 321953 L-271354 321952 L-270426 321950 L-270078 321949 L-269885 321947 L-269382 321946 L-268937 321946 L-268794 321944 L-268773 321944 L-268202 321944 L-267816 321941 L-266983 321940 L-266634 321938 L-266612 321937 L-266225 321937 L-265802 321935 L-265203 321934 L-265184 321932 L-264679 321932 L-264447 321931 L-264333 321931 L-263714 321928 L-263153 321926 L-263113 321925 L-262553 321923 L-262220 321922 L-262108 321922 L-262069 321921 L-261644 321921 L-261584 321921 L-261509 321919 L-261218 321919 L-261005 321918 L-260522 321915 L-260307 321913 L-259167 321912 L-259108 321910 L-259090 321909 L-258684 321907 L-258046 321906 L-257910 321904 L-257852 321903 L-257310 321901 L-257001 321900 L-256750 321900 L-256674 321898 L-256555 321897 L-255821 321894 L-255376 321892 L-255162 321891 L-254428 321889 L-254254 321888 L-253888 321888 L-253673 321888 L-252435 321888 L-252126 321888 L-252009 321888 L-251757 321886 L-251546 321885 L-251004 321883 L-250772 321882 L-250714 321882 L-250617 321880 L-250288 321880 L-250055 321879 L-248393 321878 L-248042 321876 L-247638 321873 L-247483 321872 L-246690 321870 L-245200 321869 L-244813 321867 L-244775 321866 L-244521 321864 L-244426 321863 L-244233 321861 L-243885 321861 L-243189 321860 L-242937 321860 L-242221 321858 L-240809 321857 L-240577 321855 L-240248 321855 L-239031 321855 L-238680 321857 L-238488 321858 L-238369 321860 L-235935 321860 L-234965 321858 L-234134 321857 L-233825 321855 L-232483 321854 L-231910 321852 L-231794 321851 L-231465 321851 L-231369 321849 L-230962 321849 L-230846 321848 L-230655 321846 L-229899 321845 L-229773 321843 L-229492 321842 L-228989 321840 L-228912 321839 L-227325 321846 L-227268 321854 L-226526 321863 L-226145 321870 L-225816 321869 L-225153 321867 L-225023 321866 L-224983 321866 L-224733 321866 L-224597 321866 L-224405 321864 L-224269 321864 L-224017 321861 L-223805 321861 L-223495 321860 L-223223 321860 L-222721 321860 L-222702 321860 L-222268 321858 L-222042 321857 L-221599 321855 L-221580 321854 L-221077 321852 L-220939 321851 L-220825 321849 L-220593 321848 L-220283 321846 L-219819 321845 L-219742 321843 L-219239 321842 L-218968 321840 L-218630 321839 L-218445 321838 L-217769 321836 L-217750 321836 L-217575 321835 L-217555 321833 L-216937 321832 L-216221 321830 L-215659 321829 L-215465 321829 L-215311 321827 L-215292 321827 L-214769 321824 L-214655 321823 L-213783 321821 L-213762 321820 L-213706 321818 L-212874 321817 L-212564 321815 L-212488 321814 L-212216 321812 L-212153 321812 L-212103 321809 L-211791 321806 L-211174 321803 L-210399 321802 L-209605 321800 L-209566 321799 L-209489 321797 L-209317 321796 L-208439 321795 L-207554 321793 L-207460 321792 L-207340 321790 L-207010 321789 L-206974 321789 L-206742 321787 L-206509 321787 L-205794 321784 L-205291 321783 L-204626 321781 L-204517 321780 L-204363 321778 L-204343 321777 L-204188 321775 L-203773 321774 L-203162 321772 L-203028 321771 L-202119 321769 L-201916 321768 L-201364 321766 L-198714 321765 L-198539 321763 L-198462 321760 L-197590 321759 L-197126 321757 L-196644 321756 L-196605 321753 L-196024 321752 L-196004 321750 L-194903 321749 L-193481 321747 L-193063 321746 L-192756 321744 L-192678 321743 L-192602 321741 L-192445 321740 L-192369 321738 L-191905 321737 L-190667 321735 L-190415 321734 L-189970 321732 L-189348 321731 L-189292 321729 L-189099 321729 L-188634 321728 L-188343 321725 L-188302 321722 L-188266 321719 L-188113 321716 L-187935 321714 L-186797 321711 L-186410 321710 L-186352 321709 L-186178 321707 L-183661 321704 L-182501 321703 L-181864 321701 L-181725 321700 L-181593 321697 L-181206 321695 L-180742 321694 L-180531 321691 L-180466 321689 L-180432 321688 L-179678 321686 L-179096 321685 L-178905 321683 L-178286 321682 L-178240 321680 L-177879 321679 L-177773 321677 L-177588 321676 L-177311 321674 L-176407 321673 L-175403 321671 L-174667 321670 L-174242 321668 L-174081 321667 L-173719 321666 L-173622 321664 L-173178 321663 L-173102 321661 L-172750 321661 L-172501 321658 L-172481 321655 L-172307 321652 L-171359 321648 L-171245 321646 L-170682 321645 L-170232 321643 L-169847 321642 L-168937 321640 L-168881 321639 L-167742 321637 L-167162 321634 L-166987 321633 L-166193 321630 L-165962 321628 L-165575 321627 L-165305 321625 L-165169 321624 L-165053 321623 L-164434 321623 L-164376 321623 L-164161 321623 L-163867 321623 L-163079 321621 L-162938 321621 L-161550 321620 L-161203 321620 L-160816 321618 L-160755 321615 L-160719 321614 L-160662 321612 L-160019 321611 L-159327 321609 L-159075 321609 L-158739 321608 L-158650 321608 L-158130 321606 L-157876 321605 L-157660 321602 L-157277 321600 L-157117 321599 L-156578 321596 L-155766 321594 L-155747 321593 L-155632 321593 L-155487 321591 L-155106 321591 L-154914 321591 L-154858 321590 L-154559 321588 L-154492 321587 L-154296 321585 L-153929 321584 L-153868 321583 L-153564 321581 L-153519 321581 L-153465 321580 L-152827 321580 L-152807 321578 L-152322 321577 L-151840 321578 L-151471 321578 L-151105 321580 L-150970 321580 L-150816 321578 L-150746 321577 L-150099 321577 L-150079 321575 L-149938 321575 L-149453 321574 L-149170 321574 L-149112 321572 L-149054 321572 L-148745 321571 L-148590 321569 L-148106 321569 L-147333 321569 L-146693 321569 L-146596 321568 L-145533 321568 L-145512 321566 L-145047 323356 L-145031 323356 L-144857 323356 L-144344 323356 L-141990 321565 L-141045 321563 L-140327 321562 L-139786 321559 L-139089 321557 L-138773 321556 L-138124 321554 L-137616 321553 L-137582 321551 L-137540 321550 L-137195 321548 L-136500 321547 L-136303 321545 L-136286 321542 L-136170 321541 L-135889 321540 L-134991 321537 L-134945 321535 L-134579 321532 L-134561 321531 L-134506 321529 L-134313 321528 L-134177 321526 L-134102 321525 L-133868 321523 L-133327 321522 L-133286 321520 L-133249 321519 L-133224 321517 L-132589 321514 L-132047 321513 L-130882 321511 L-130522 321510 L-129245 321510 L-129205 321508 L-129167 321508 L-128952 321507 L-128762 321505 L-128684 321504 L-128531 321502 L-128491 321501 L-127402 321499 L-127078 321499 L-126864 321498 L-126603 321498 L-126111 321498 L-126089 321504 L-125672 321510 L-125530 321514 L-125470 321520 L-125393 321520 L-125182 321519 L-123888 321519 L-123611 321517 L-122987 321516 L-121596 321514 L-121524 321513 L-121486 321510 L-121292 321508 L-120902 321507 L-120595 321505 L-120539 321504 L-120224 321504 L-120173 321504 L-120135 321502 L-120089 321501 L-119456 321499 L-118682 321498 L-118243 321497 L-118101 323302 L-118078 323301 L-118061 325107 L-118036 325107 L-117619 323301 L-117416 323299 L-117266 321492 L-117188 321491 L-117134 321489 L-116337 321489 L-116321 321489 L-115457 321489 L-115253 321489 L-114966 321488 L-114851 321486 L-114325 321485 L-114149 321483 L-113845 321482 L-113458 321480 L-113397 321477 L-113342 321476 L-113187 321474 L-112142 321473 L-111580 321473 L-111344 321471 L-111307 321471 L-111038 321471 L-110632 321470 L-109163 321468 L-107422 321467 L-107035 321465 L-106803 321464 L-106704 321462 L-106609 321461 L-106455 321458 L-105892 321458 L-105809 321456 L-105642 321456 L-105100 321458 L-103915 321458 L-103901 321458 L-103841 321458 L-103690 321456 L-103205 321455 L-102558 321454 L-101852 321451 L-101736 321449 L-100768 321448 L-100723 321446 L-100033 321446 L-99976 321445 L-99898 321445 L-99879 321443 L-99858 321442 L-99642 321440 L-98929 321440 L-98539 321439 L-98502 321437 L-98485 321436 L-98427 321434 L-98000 321433 L-97786 321431 L-97711 321428 L-97634 321427 L-97518 321425 L-97453 321425 L-97325 321424 L-97265 321424 L-97190 321421 L-97111 321419 L-96683 321418 L-95957 321416 L-95943 321413 L-95777 321412 L-95560 321409 L-95545 321406 L-94964 321405 L-94693 321403 L-94404 321402 L-93974 321400 L-93821 321399 L-93764 321397 L-93588 321396 L-92193 321394 L-91927 321391 L-91034 321388 L-90509 321387 L-89489 321384 L-89408 321382 L-88944 321381 L-88325 321381 L-88039 321379 L-87785 321379 L-87633 321378 L-87285 321376 L-86568 321375 L-86007 321373 L-85119 321372 L-84810 321372 L-84518 321372 L-83666 321372 L-83645 321372 L-82989 321372 L-82485 321369 L-82274 321368 L-82254 321366 L-81925 321365 L-81867 321365 L-81480 321365 L-80495 321365 L-79933 321365 L-79836 321365 L-79527 321363 L-79450 321363 L-78415 321362 L-78285 321360 L-78229 321359 L-77593 321357 L-77534 321356 L-77459 321354 L-76045 321353 L-75908 321351 L-75774 321350 L-75289 321348 L-75039 321347 L-74748 321345 L-74536 321344 L-73879 321342 L-73310 321339 L-73221 321338 L-73081 321336 L-73007 321335 L-71842 321335 L-71810 321333 L-71380 321333 L-71364 321332 L-71189 321330 L-69661 321329 L-69577 321330 L-68771 321330 L-68578 321330 L-68556 321330 L-67703 321329 L-67509 321328 L-66876 321326 L-66700 321325 L-66581 321323 L-66527 321323 L-66506 321323 L-66450 321323 L-66062 321323 L-65618 321323 L-65540 321322 L-65343 321322 L-65281 321320 L-65018 321319 L-64670 321319 L-64554 321317 L-63406 321317 L-63121 321316 L-62676 321314 L-61473 321313 L-61343 321311 L-61033 321310 L-60605 321308 L-59308 321307 L-58999 323047 L-58983 323047 L-58936 323081 L-58886 323081 L-57958 321338 L-57628 321338 L-57080 321302 L-56952 321301 L-56506 321299 L-54973 321298 L-54804 321296 L-54533 321295 L-54509 321292 L-53604 321290 L-53489 321289 L-53022 321287 L-52999 321286 L-52927 321285 L-52729 321283 L-52577 321282 L-52109 321280 L-51458 321279 L-50972 321277 L-50422 321277 L-49400 321277 L-49094 321277 L-49039 321277 L-48439 321276 L-48009 321274 L-47935 321274 L-47917 321273 L-47696 321273 L-47392 321271 L-47310 321270 L-47006 321270 L-46407 321268 L-46270 321267 L-46000 321265 L-45786 321264 L-45611 321264 L-45402 321264 L-45380 321264 L-45131 321282 L-44682 321299 L-44666 321317 L-44220 321335 L-43012 321335 L-42810 321333 L-41882 321333 L-41820 321332 L-41785 321330 L-40760 321329 L-40644 321329 L-40623 321328 L-40469 321328 L-40450 321328 L-40039 321326 L-40023 321326 L-39985 321325 L-39675 321323 L-39522 321322 L-39317 321322 L-38918 321320 L-37935 321320 L-37410 321320 L-37354 321319 L-37328 321319 L-37006 321317 L-36290 321317 L-35420 321317 L-35382 321317 L-35305 321317 L-35053 321316 L-35033 321314 L-34310 321314 L-34160 321313 L-34047 321313 L-33950 321311 L-32848 321310 L-32093 321308 L-31921 321307 L-31760 321305 L-31684 321304 L-31490 321304 L-30352 321302 L-29667 321302 L-29385 321301 L-28418 321299 L-28399 321298 L-27547 321296 L-27508 321295 L-27365 321293 L-27040 321292 L-26810 321290 L-26772 321289 L-26732 321287 L-26715 321285 L-26579 321283 L-26560 321282 L-26349 321280 L-26289 321279 L-26211 321277 L-26187 321276 L-26112 321274 L-25632 321273 L-25535 321271 L-25459 321270 L-25283 321268 L-25260 321267 L-25205 321265 L-25167 321264 L-25108 321262 L-24953 321261 L-23929 321259 L-23630 321258 L-23503 321256 L-23425 321255 L-22400 321253 L-22343 321252 L-22285 321250 L-22239 321249 L-22225 321247 L-22188 321246 L-22150 321244 L-20970 321243 L-20912 321242 L-20215 321242 L-19596 321240 L-19453 321240 L-19010 321239 L-18744 321237 L-18081 321237 L-17797 321236 L-16327 321236 L-15379 321234 L-15273 321233 L-15207 321233 L-15177 321231 L-14857 321230 L-14836 321230 L-13907 321230 L-13731 321231 L-13000 321233 L-12459 241379 L-12436 161524 L-12409 81669 L-12377 1814 L-12360 1813 L-12339 1810 L-12301 1807 L-12282 1807 L-12259 1810 L-12244 1811 L-12225 1813 L-12205 1813 L-12183 1810 L-12167 1808 L-12147 1807 L-12128 1807 L-12090 1807 L-12050 1804 L-12024 1801 L-12008 1796 L-11990 1793 L-11953 1790 L-11934 1789 L-11915 1787 L-11896 1786 L-11874 1783 L-11857 1781 L-11818 1777 L-11796 1773 L-11780 1771 L-11761 1768 L-11741 1767 L-11722 1765 L-11703 1762 L-11664 1761 L-11607 1759 L-11558 1756 L-11507 1755 L-11480 1752 L-11464 1749 L-11447 1747 L-11432 1746 L-11411 1744 L-11393 1744 L-11373 1741 L-11353 1740 L-11331 1737 L-11316 1733 L-11297 1730 L-11277 1728 L-11255 1725 L-11219 1722 L-11199 1719 L-11179 1716 L-11142 1713 L-11121 1712 L-11096 1710 L-11079 1709 L-11062 1706 L-11045 1698 L-11024 1691 L-11006 1682 L-10986 1676 L-10967 1672 L-10909 1669 L-10889 1664 L-10867 1661 L-10833 1657 L-10812 1652 L-10793 1650 L-10774 1647 L-10755 1645 L-10716 1644 L-10697 1641 L-10678 1638 L-10652 1636 L-10465 1633 L-10445 1630 L-10425 1629 L-10402 1626 L-10368 1623 L-10348 1620 L-10327 1615 L-10309 1611 L-10290 1607 L-10271 1602 L-10250 1599 L-10232 1596 L-10214 1593 L-10192 1590 L-10167 1587 L-10151 1584 L-10116 1581 L-10096 1580 L-10078 1577 L-10058 1575 L-10039 1572 L-10017 1569 L-9981 1566 L-9961 1564 L-9939 1561 L-9923 1558 L-9904 1555 L-9884 1552 L-9864 1550 L-9827 1547 L-9750 1546 L-9724 1543 L-9701 1540 L-9673 1535 L-9650 1532 L-9624 1529 L-9574 1526 L-9554 1525 L-9516 1521 L-9497 1518 L-9475 1516 L-9459 1513 L-9440 1512 L-9420 1510 L-9399 1509 L-9363 1506 L-9342 1504 L-9285 1503 L-9264 1501 L-9239 1501 L-9224 1500 L-9207 1500 L-9169 1498 L-9149 1495 L-9130 1492 L-9110 1489 L-9090 1486 L-9072 1483 L-9053 1479 L-9033 1476 L-9012 1473 L-8976 1470 L-8956 1469 L-8937 1467 L-8898 1466 L-8859 1464 L-8840 1463 L-8821 1461 L-8772 1460 L-8744 1458 L-8705 1455 L-8675 1454 L-8660 1451 L-8588 1448 L-8568 1445 L-8546 1443 L-8530 1442 L-8511 1440 L-8471 1440 L-8394 1438 L-8375 1436 L-8357 1433 L-8336 1432 L-8310 1430 L-8278 1429 L-8259 1429 L-8240 1426 L-8202 1423 L-8161 1418 L-8083 1414 L-8047 1411 L-8008 1408 L-7930 1406 L-7911 1405 L-7866 1403 L-7844 1405 L-7816 1405 L-7777 1402 L-7746 1400 L-7731 1397 L-7717 1395 L-7677 1392 L-7615 1390 L-7601 1387 L-7582 1384 L-7562 1381 L-7485 1377 L-7447 1374 L-7428 1371 L-7381 1369 L-7365 1368 L-7346 1366 L-7330 1365 L-7292 1360 L-7272 1357 L-7253 1353 L-7231 1350 L-7215 1347 L-7175 1344 L-7137 1341 L-7118 1338 L-7098 1334 L-7079 1328 L-7060 1322 L-7041 1316 L-7021 1313 L-7001 1311 L-6938 1310 L-6915 1309 L-6888 1307 L-6864 1303 L-6837 1298 L-6821 1292 L-6805 1286 L-6768 1283 L-6750 1280 L-6730 1279 L-6710 1277 L-6688 1274 L-6672 1273 L-6653 1271 L-6634 1267 L-6612 1261 L-6595 1257 L-6575 1252 L-6557 1249 L-6536 1246 L-6518 1245 L-6499 1242 L-6453 1240 L-6436 1237 L-6418 1234 L-6402 1230 L-6381 1226 L-6363 1221 L-6343 1217 L-6324 1211 L-6286 1209 L-6267 1208 L-6224 1206 L-6209 1205 L-6190 1200 L-6170 1196 L-6131 1193 L-6112 1191 L-6093 1188 L-6054 1187 L-6035 1184 L-6009 1181 L-5959 1180 L-5922 1178 L-5906 1177 L-5860 1175 L-5822 1172 L-5802 1171 L-5782 1168 L-5759 1166 L-5744 1163 L-5725 1160 L-5683 1159 L-5667 1156 L-5628 1151 L-5607 1148 L-5590 1144 L-5549 1140 L-5524 1137 L-5508 1134 L-5474 1131 L-5453 1126 L-5435 1120 L-5415 1113 L-5374 1105 L-5358 1098 L-5280 1094 L-5261 1091 L-5222 1089 L-5203 1086 L-5184 1083 L-5164 1083 L-5145 1082 L-5125 1082 L-5030 1083 L-5005 1082 L-4978 1080 L-4947 1077 L-4932 1074 L-4911 1071 L-4873 1068 L-4853 1065 L-4830 1062 L-4815 1061 L-4796 1059 L-4777 1056 L-4755 1054 L-4738 1051 L-4718 1048 L-4699 1045 L-4678 1042 L-4661 1037 L-4642 1034 L-4621 1033 L-4595 1030 L-4579 1025 L-4561 1021 L-4523 1016 L-4506 1011 L-4486 1006 L-4467 1002 L-4445 996 L-4409 993 L-4390 988 L-4367 984 L-4352 981 L-4333 978 L-4313 975 L-4274 972 L-4235 971 L-4216 969 L-4197 966 L-4152 965 L-4050 965 L-4034 963 L-3902 962 L-3887 960 L-3868 954 L-3848 950 L-3826 947 L-3790 942 L-3771 941 L-3750 939 L-3692 936 L-3667 933 L-3651 930 L-3633 926 L-3617 923 L-3596 922 L-3578 920 L-3539 917 L-3517 916 L-3481 914 L-3461 913 L-3439 911 L-3384 911 L-3364 910 L-3307 908 L-3268 907 L-3201 905 L-3174 902 L-3150 899 L-3124 896 L-3091 893 L-3075 892 L-3054 889 L-3036 893 L-3016 896 L-2997 901 L-2976 905 L-2959 904 L-2863 902 L-2804 901 L-2764 899 L-2739 895 L-2708 892 L-2669 889 L-2630 885 L-2610 882 L-2572 879 L-2533 876 L-2495 873 L-2476 871 L-2437 868 L-2417 865 L-2398 864 L-2378 862 L-2359 861 L-2340 859 L-2321 856 L-2294 852 L-2244 847 L-2205 844 L-2175 842 L-2160 839 L-2146 837 L-2107 834 L-2088 831 L-2046 828 L-2030 825 L-2011 822 L-1971 818 L-1934 815 L-1894 812 L-1857 810 L-1810 807 L-1796 806 L-1720 804 L-1682 803 L-1662 803 L-1644 800 L-1624 799 L-1527 796 L-1488 793 L-1430 790 L-1411 787 L-1392 784 L-1366 784 L-1344 782 L-1278 781 L-1260 781 L-1245 779 L-1232 778 L-1196 776 L-1139 775 L-1115 772 L-1082 769 L-1062 766 L-1024 761 L-1003 757 L-985 753 L-964 750 L-947 747 L-928 745 L-906 742 L-881 739 L-830 738 L-809 735 L-753 733 L-733 730 L-637 729 L-618 726 L-579 724 L-560 723 L-541 718 L-502 717 L-482 716 L-464 714 L-415 713 L-364 713 L-337 711 L-321 708 L-304 707 L-289 704 L-250 701 L-230 699 L-211 696 L-153 693 L-134 690 L-111 686 L-95 683 L-75 678 L-57 675 L0 671 L21 667 L46 662 L82 656 L97 652 L117 649 L136 646 L156 644 L175 641 L197 638 L213 637 L233 635 L252 634 L274 631 L290 628 L309 625 L329 622 L349 621 L387 619 L406 615 L426 610 L491 604 L512 600 L541 597 L580 592 L612 588 L626 584 L660 581 L698 578 L717 576 L740 573 L755 572 L774 569 L794 564 L832 563 L852 560 L892 558 L950 555 L975 554 L1010 551 L1026 548 L1047 545 L1064 542 L1103 539 L1125 538 L1142 535 L1162 532 L1181 527 L1203 524 L1219 520 L1238 517 L1315 515 L1335 512 L1355 509 L1374 506 L1393 503 L1418 501 L1493 498 L1519 495 L1535 490 L1551 489 L1567 486 L1588 483 L1606 480 L1645 478 L1668 477 L1683 475 L1702 472 L1722 471 L1744 468 L1761 466 L1857 463 L1878 461 L1903 459 L1937 456 L1954 453 L1975 450 L1993 447 L2013 446 L2032 444 L2053 443 L2070 440 L2089 437 L2109 434 L2132 431 L2148 428 L2166 426 L2206 423 L2225 420 L2264 418 L2321 416 L2347 413 L2369 410 L2397 407 L2421 404 L2447 401 L2480 400 L2496 398 L2516 398 L2534 398 L2555 398 L2574 398 L2612 395 L2631 392 L2651 388 L2672 385 L2708 382 L2728 380 L2749 377 L2767 375 L2785 373 L2806 370 L2832 367 L2847 364 L2865 361 L2883 357 L2903 354 L2922 349 L2941 345 L2960 342 L3018 337 L3038 336 L3060 333 L3153 330 L3192 329 L3211 339 L3231 349 L3250 366 L3347 382 L3375 386 L3407 391 L3424 389 L3524 388 L3540 385 L3559 383 L3579 380 L3599 377 L3618 373 L3636 369 L3656 364 L3676 360 L3714 357 L3735 355 L3792 354 L3811 358 L3830 380 L3850 403 L3869 423 L3889 440 L3909 440 L3966 440 L3988 441 L4023 440 L4043 438 L4101 437 L4121 435 L4159 440 L4178 443 L4205 446 L4255 449 L4294 446 L4353 443 L4373 440 L4392 438 L4431 437 L4469 435 L4508 434 L4585 432 L4605 431 L4624 429 L4720 428 L4740 428 L4817 426 L4874 425 L4933 422 L4972 419 L4991 418 L5010 415 L5029 410 L5155 406 L5237 401 L5252 397 L5267 392 L5303 389 L5340 386 L5360 385 L5383 382 L5398 380 L5417 377 L5475 375 L5496 357 L5514 336 L5535 315 L5552 293 L5571 287 L5592 284 L5618 281 L5634 278 L5653 275 L5669 272 L5689 265 L5707 257 L5727 250 L5768 243 L5804 238 L5824 235 L5847 232 L5881 228 L5921 226 L5939 223 L5978 220 L5997 217 L6017 216 L6035 214 L6061 211 L6084 208 L6136 204 L6162 201 L6178 200 L6195 197 L6210 195 L6231 192 L6249 191 L6269 189 L6345 188 L6365 186 L6387 183 L6404 177 L6424 173 L6463 168 L6500 164" />
</svg>
