<svg xmlns="http://www.w3.org/2000/svg" version="1.1" viewBox="0 0 6500 1000">
	<path fill="none" stroke="gold" stroke-width="125" stroke-linecap="round" stroke-linejoin="round" d="M0 118128  L-1096760 118128 L-1096576 118089 L-1096085 118010 L-1095792 117971 L-1095481 117892 L-1095246 117853 L-1095193 117774 L-1095134 117695 L-1094980 117656 L-1094940 117577 L-1094807 117538 L-1094515 117498 L-1093974 117498 L-1093364 117459 L-1093316 117459 L-1092676 117420 L-1092642 117420 L-1092117 117420 L-1091984 117380 L-1091594 117301 L-1091266 117223 L-1091149 117144 L-1090938 117065 L-1090221 117065 L-1089651 117026 L-1089543 117026 L-1089369 116987 L-1089148 116908 L-1088746 116868 L-1088720 116790 L-1087792 116711 L-1087705 116632 L-1087623 116553 L-1087553 116475 L-1087255 116435 L-1087103 116357 L-1085213 116396 L-1085112 116396 L-1084850 116396 L-1084556 116435 L-1084415 116357 L-1084166 116357 L-1084131 116317 L-1083972 116278 L-1083509 116199 L-1083256 116160 L-1083043 116081 L-1082792 116042 L-1082443 116002 L-1081516 115924 L-1081422 115845 L-1081011 115805 L-1079841 115727 L-1078651 115687 L-1078559 115609 L-1078532 115530 L-1078266 115451 L-1077967 115372 L-1077838 115294 L-1077801 115215 L-1076986 115215 L-1076602 115254 L-1075541 115294 L-1075480 115294 L-1075215 116081 L-1074744 116829 L-1074551 117577 L-1074288 118325 L-1073951 118286 L-1073815 118246 L-1073360 118207 L-1072617 118168 L-1072599 118128 L-1072434 118050 L-1072366 118050 L-1071849 118010 L-1070821 118010 L-1070625 117971 L-1070136 117931 L-1069774 117892 L-1069365 117892 L-1068980 117931 L-1067276 117931 L-1067178 117931 L-1067107 117931 L-1067045 117931 L-1066861 117892 L-1066524 117892 L-1065884 117853 L-1065807 117813 L-1065746 117813 L-1065559 117774 L-1065479 117774 L-1065302 117735 L-1065283 117695 L-1065053 117695 L-1064665 117656 L-1063777 117656 L-1063737 117616 L-1063649 117577 L-1063622 117498 L-1062614 117459 L-1062464 117380 L-1062440 117341 L-1062307 117301 L-1062267 117262 L-1061009 117223 L-1060951 117223 L-1060411 117183 L-1060359 117183 L-1060312 117183 L-1059917 117144 L-1059777 117105 L-1059577 117065 L-1059431 117065 L-1059266 117065 L-1058989 117105 L-1058631 117105 L-1058078 117065 L-1057433 117026 L-1057175 116947 L-1057021 116908 L-1056620 116868 L-1056580 116829 L-1056459 116790 L-1056397 116829 L-1056383 116829 L-1056289 116829 L-1055996 116790 L-1055845 116632 L-1055515 116553 L-1055437 116475 L-1055361 116435 L-1055134 116317 L-1055068 116238 L-1054840 116160 L-1054788 116081 L-1054623 116042 L-1053617 116002 L-1053434 115963 L-1052883 115924 L-1052490 115845 L-1052092 115805 L-1051242 115727 L-1051164 115687 L-1050585 115648 L-1050144 115648 L-1049903 115609 L-1049745 115609 L-1049345 115530 L-1049324 115530 L-1048879 115490 L-1048474 115451 L-1048338 115372 L-1048163 115294 L-1048026 115215 L-1047776 115136 L-1046776 115097 L-1046694 115057 L-1046559 115018 L-1046520 114979 L-1045630 114939 L-1045414 114900 L-1044971 114861 L-1044854 114821 L-1044797 114782 L-1044121 114782 L-1044020 114742 L-1043992 114742 L-1042650 114703 L-1042244 114664 L-1042205 114624 L-1041276 114585 L-1041178 114546 L-1041045 114506 L-1040641 114467 L-1040615 114427 L-1040522 114388 L-1040305 114349 L-1039894 114270 L-1038741 114191 L-1038449 114112 L-1038420 114034 L-1037812 113994 L-1037562 113916 L-1037542 113876 L-1036613 113837 L-1036562 113758 L-1036439 113719 L-1036422 113640 L-1036266 113601 L-1036091 113522 L-1035954 113483 L-1035898 113443 L-1035790 113404 L-1035705 113364 L-1035471 113325 L-1035396 113286 L-1035088 113246 L-1034970 113207 L-1034800 113168 L-1034709 113128 L-1034606 113128 L-1034583 113089 L-1034506 113089 L-1034408 113010 L-1034041 112971 L-1033937 112931 L-1033433 112892 L-1032981 112853 L-1032943 112813 L-1032919 112774 L-1032878 112735 L-1032750 112695 L-1032649 112656 L-1032207 112616 L-1031925 112577 L-1031333 112538 L-1031202 112498 L-1030928 112420 L-1030775 112380 L-1030622 112341 L-1030537 112262 L-1030459 112223 L-1030273 112183 L-1030223 112183 L-1030195 112144 L-1030115 112105 L-1030092 112065 L-1029809 111987 L-1029205 111908 L-1028210 111868 L-1027912 111829 L-1027178 111790 L-1026933 111750 L-1026844 111711 L-1026266 111672 L-1025568 111632 L-1024815 111593 L-1024497 111553 L-1024114 111475 L-1024037 111435 L-1023403 111396 L-1023217 111357 L-1023129 111357 L-1023000 111357 L-1022687 111317 L-1022638 111278 L-1022496 111238 L-1022474 111199 L-1021506 111160 L-1020961 111120 L-1020483 111120 L-1020422 111120 L-1020098 111120 L-1020076 111081 L-1020014 111081 L-1019804 111042 L-1019727 111002 L-1019672 110963 L-1019650 110924 L-1019611 110884 L-1019595 110845 L-1018838 110805 L-1018821 110766 L-1018022 110727 L-1017869 110687 L-1016964 110648 L-1016458 110609 L-1016229 110530 L-1016187 110530 L-1016072 110490 L-1015896 110451 L-1015141 110490 L-1015006 110451 L-1014842 110412 L-1014524 110372 L-1014348 110294 L-1013326 110215 L-1013303 110136 L-1013052 110097 L-1012839 110018 L-1012205 109979 L-1011967 109900 L-1011934 109821 L-1011756 109742 L-1011676 109664 L-1011586 109624 L-1011522 109546 L-1011081 109467 L-1011058 109427 L-1010517 109388 L-1010261 109349 L-1009766 109309 L-1008889 109270 L-1008852 109231 L-1008800 109191 L-1008758 109152 L-1008641 109112 L-1008365 109073 L-1008158 108994 L-1007961 108916 L-1007937 108837 L-1007887 108758 L-1007848 108719 L-1007770 108679 L-1007172 108601 L-1007112 108561 L-1007009 108522 L-1006855 108483 L-1006223 108443 L-1005542 108404 L-1005239 108325 L-1004892 108286 L-1004695 108246 L-1004647 108168 L-1004326 108128 L-1003699 108089 L-1003552 108050 L-1003516 108010 L-1003458 107971 L-1003381 107892 L-1003140 107892 L-1003052 107853 L-1002958 107813 L-1002664 107774 L-1002529 107735 L-1002469 107695 L-1002432 107616 L-1002160 107616 L-1001154 107577 L-1000979 107538 L-1000928 107538 L-1000635 107498 L-1000443 107420 L-1000110 107380 L-999603 107341 L-999041 107262 L-999026 107183 L-999009 107144 L-998909 107065 L-998794 106987 L-998755 106908 L-998718 106868 L-998652 106868 L-998624 106829 L-998485 106868 L-998192 106868 L-998142 106868 L-998037 106868 L-997772 106829 L-997308 106790 L-997163 106790 L-997108 106711 L-997051 106672 L-996860 106632 L-996495 106593 L-996281 106593 L-996086 106593 L-996028 106593 L-995969 106514 L-995815 106475 L-995546 106435 L-995116 106632 L-995100 106632 L-995023 106593 L-994959 106553 L-994830 106278 L-994806 106238 L-994522 106199 L-994474 106160 L-994420 106120 L-993957 106081 L-993919 106081 L-993878 106042 L-993688 106002 L-993207 105963 L-992720 105924 L-992704 105884 L-992666 105845 L-992409 105805 L-992332 105727 L-992102 105687 L-992086 105609 L-991791 105530 L-991349 105490 L-990902 105451 L-990398 105412 L-990244 105372 L-989957 105333 L-989917 105254 L-989586 105215 L-989364 105175 L-988847 105097 L-988771 105057 L-988524 104979 L-988329 104900 L-988269 104861 L-987493 104821 L-987419 104821 L-987188 104782 L-987172 104782 L-987110 104742 L-986914 104703 L-986450 104703 L-986427 104664 L-986297 104664 L-984996 104664 L-984980 104664 L-984902 104624 L-984809 104624 L-984592 104624 L-984439 104585 L-984261 104624 L-984207 104664 L-983920 104703 L-983880 104703 L-983511 104703 L-983070 104703 L-982887 104703 L-982566 104664 L-982271 104664 L-981825 104585 L-981753 104546 L-981291 104467 L-980853 104427 L-980671 104388 L-979217 104309 L-979085 104270 L-978628 104191 L-978402 104152 L-978016 104073 L-977499 103994 L-976545 103916 L-975751 103837 L-975076 103798 L-974651 103719 L-974340 103679 L-974110 103561 L-973426 103443 L-973413 103325 L-973203 103168 L-973181 103128 L-973007 103050 L-972057 103010 L-971789 102931 L-970974 102892 L-970663 102813 L-970626 102774 L-970568 102695 L-969951 102656 L-969314 102577 L-967688 102538 L-967014 102498 L-966372 102498 L-966294 102498 L-966238 102498 L-966202 102498 L-966174 102459 L-966062 102380 L-966044 102341 L-966021 102301 L-965868 102262 L-965814 102183 L-965736 102144 L-965617 102105 L-965519 102065 L-965402 102026 L-965132 101947 L-964863 101908 L-964845 101829 L-964645 101790 L-964498 101711 L-964272 101672 L-964138 101632 L-963829 101593 L-963769 101553 L-963416 101475 L-963067 101435 L-962966 101396 L-962902 101317 L-962842 101278 L-962458 101199 L-962077 101160 L-961972 101120 L-961712 101081 L-961441 101002 L-961282 100963 L-961249 100924 L-961188 100884 L-961046 100845 L-960862 100805 L-960818 100766 L-960530 100766 L-960514 100727 L-960280 100727 L-960219 100687 L-960181 100687 L-959601 100648 L-959468 100609 L-959444 100451 L-959426 100175 L-959408 99861 L-959392 99546 L-959368 99231 L-959352 98994 L-959331 98719 L-959314 98443 L-959291 98286 L-959274 98128 L-959252 98010 L-959236 97931 L-959187 97813 L-959114 97695 L-959080 97498 L-959056 97341 L-959020 97183 L-958979 97026 L-958942 96947 L-958926 96790 L-958902 96672 L-958865 96593 L-958848 96475 L-958825 96396 L-958807 96317 L-958789 96238 L-958773 96160 L-958744 96042 L-958718 95924 L-958672 95884 L-958656 95805 L-958614 95766 L-958566 95687 L-958495 95609 L-958480 95530 L-958464 95451 L-958401 95412 L-958362 95372 L-958323 95333 L-958157 95294 L-958092 95254 L-958076 95215 L-958032 95136 L-957973 95097 L-957761 95057 L-957727 95018 L-957685 94979 L-957607 94939 L-957069 94900 L-956991 94861 L-956887 94782 L-956798 94742 L-956622 94703 L-956272 94664 L-956116 94624 L-955678 94585 L-955521 94546 L-955391 94506 L-954687 94427 L-954486 94388 L-953526 94309 L-953043 94270 L-952944 94270 L-952852 94231 L-952607 94191 L-952534 94152 L-952091 94073 L-951995 94034 L-951980 93994 L-951964 93955 L-951939 93916 L-951473 93876 L-951256 93837 L-951117 93798 L-950823 93758 L-950734 93719 L-950693 93679 L-950663 93640 L-950490 93601 L-950432 93561 L-950355 93522 L-950275 93483 L-950205 93483 L-949896 93443 L-949811 93404 L-949597 93364 L-949562 93325 L-948878 93286 L-948779 93246 L-948574 93207 L-948528 93168 L-948249 93128 L-948187 93089 L-948170 93010 L-948092 92971 L-947784 92892 L-947760 92853 L-947706 92774 L-947683 92735 L-947561 92695 L-947425 92616 L-947181 92577 L-947055 92577 L-946408 92538 L-946392 92538 L-946368 92538 L-946187 92459 L-946111 92420 L-946019 92380 L-945592 92341 L-945176 92301 L-944783 92223 L-944704 92183 L-944685 92144 L-944322 92105 L-944085 92065 L-943857 92026 L-943544 91987 L-943466 91947 L-943385 91868 L-943207 91790 L-943192 91750 L-942926 91672 L-942846 91632 L-942616 91593 L-942390 91553 L-942074 91553 L-941899 91514 L-941538 91514 L-941146 91475 L-941077 91396 L-941013 91357 L-940873 91278 L-940821 91238 L-940719 91160 L-940218 91120 L-940020 91081 L-939774 91042 L-939588 91002 L-939288 90963 L-939212 90924 L-939046 90845 L-938162 90805 L-938133 90727 L-938010 90648 L-937432 90609 L-937354 90569 L-936640 90569 L-936328 90569 L-936115 90569 L-936098 90569 L-935712 90569 L-935187 90490 L-934741 90451 L-934411 90412 L-934258 90372 L-933932 90372 L-933754 90333 L-933673 90333 L-933466 90254 L-933291 90215 L-932362 90175 L-931473 90136 L-931433 90097 L-931206 90097 L-930826 90057 L-930039 90018 L-929805 89979 L-929729 89939 L-929371 89900 L-928799 89821 L-928532 89782 L-928146 89742 L-928042 89742 L-927872 89742 L-927254 89742 L-927043 89742 L-926735 89742 L-926682 89703 L-926554 89664 L-926501 89624 L-926382 89585 L-926046 89506 L-925086 89467 L-924955 89388 L-924753 89349 L-924122 89309 L-923811 89270 L-923397 89231 L-923369 89191 L-923224 89152 L-922804 89112 L-921471 89112 L-921424 89073 L-921296 88994 L-921279 88955 L-920701 88876 L-920496 88837 L-920466 88798 L-920425 88758 L-920368 88719 L-920330 88679 L-920252 88640 L-920109 88601 L-919655 88561 L-919536 88522 L-919251 88483 L-918878 88443 L-918782 88404 L-918455 88364 L-918101 88325 L-917931 88286 L-917884 88246 L-917774 88207 L-917685 88168 L-917658 88128 L-917581 88050 L-917278 88010 L-917244 87931 L-917172 87892 L-916805 87853 L-916469 87813 L-916388 87813 L-916168 87774 L-915997 87735 L-915969 87695 L-915472 87656 L-914923 87577 L-914042 87538 L-913944 87459 L-913867 87420 L-913593 87380 L-913345 87301 L-913271 87262 L-913210 87183 L-913091 87144 L-913048 87105 L-912938 87065 L-912862 86987 L-912161 86947 L-911915 86908 L-911876 86868 L-911719 86829 L-911120 86829 L-910893 86829 L-910801 86829 L-910326 86829 L-909729 86750 L-909209 86711 L-909188 86672 L-909043 86632 L-908723 86632 L-908181 86632 L-907949 86632 L-907778 86632 L-907292 86593 L-907064 86553 L-906979 86514 L-906633 86475 L-906307 86475 L-905784 86435 L-905457 86396 L-904856 86357 L-904659 86278 L-904607 86238 L-904566 86199 L-904285 86160 L-903600 86081 L-903290 86042 L-903265 85963 L-903074 85924 L-902851 85884 L-902765 85845 L-902102 85766 L-902077 85727 L-901856 85648 L-901526 85609 L-901174 85530 L-900969 85490 L-900736 85412 L-900478 85372 L-900289 85294 L-900242 85254 L-900014 85215 L-899980 85175 L-899823 85136 L-899609 85097 L-899436 85057 L-899345 85018 L-899067 84979 L-898824 84939 L-898508 84900 L-898082 84900 L-898045 84900 L-897561 84900 L-897328 84900 L-897116 84861 L-896890 84821 L-896340 84821 L-896093 84782 L-895259 84782 L-895203 84742 L-895181 84703 L-895023 84664 L-894562 84624 L-894521 84585 L-894181 84506 L-894048 84467 L-893825 84427 L-893253 84388 L-892781 84349 L-892587 84309 L-892394 84270 L-892204 84231 L-892103 84191 L-891734 84152 L-891688 84112 L-891607 84073 L-890313 84034 L-890265 83994 L-889996 83994 L-889851 83994 L-889300 83994 L-889184 83955 L-889102 83916 L-888743 83876 L-888519 83837 L-888238 83798 L-887909 83719 L-887401 83679 L-887288 83640 L-887209 83601 L-887045 83561 L-886751 83561 L-886282 83561 L-886085 83601 L-886035 83601 L-885385 83561 L-885263 83522 L-884809 83522 L-884773 83483 L-884305 83443 L-884194 83404 L-884178 83364 L-883962 83364 L-883781 83325 L-883249 83325 L-882220 83325 L-882020 83286 L-881562 83246 L-880614 83168 L-880515 83128 L-880161 83050 L-880101 83010 L-880086 82971 L-880051 82931 L-879681 82892 L-879561 82853 L-879319 82813 L-879156 82774 L-878968 82735 L-878847 82695 L-877777 82616 L-876919 82577 L-876706 82498 L-876609 82459 L-876435 82380 L-876102 82341 L-876030 82301 L-875972 82262 L-875797 82262 L-875408 82223 L-875173 82183 L-875061 82144 L-874944 82105 L-873964 82065 L-873938 82026 L-873344 81947 L-873311 81947 L-873163 81908 L-872878 81868 L-871966 81868 L-871020 81868 L-870867 81829 L-870765 81829 L-870633 81790 L-870490 81750 L-870464 81711 L-870349 81672 L-870131 81632 L-869450 81593 L-869320 81553 L-869017 81514 L-868777 81435 L-868445 81396 L-867806 81357 L-867463 81278 L-867402 81238 L-867246 81238 L-866324 81238 L-865854 81238 L-865810 81238 L-865798 81199 L-865756 81160 L-865734 81120 L-865707 81081 L-865563 81042 L-865141 81002 L-864806 81002 L-864614 80963 L-864186 80963 L-863998 80924 L-863609 80845 L-863075 80805 L-862702 80766 L-862681 80766 L-862431 80727 L-862312 80687 L-862237 80648 L-862101 80609 L-862061 80569 L-861982 80530 L-861587 80490 L-861091 80451 L-860979 80372 L-860806 80333 L-860498 80294 L-860051 80254 L-859728 80215 L-859585 80136 L-859158 80057 L-859005 79979 L-858950 79900 L-858136 79861 L-858116 79821 L-857744 79782 L-857687 79782 L-856558 79742 L-856490 79742 L-855932 79703 L-855737 79664 L-855601 79624 L-855368 79585 L-855021 79546 L-854986 79467 L-854951 79427 L-854883 79349 L-854534 79309 L-854361 79270 L-853877 79231 L-853860 79191 L-853535 79152 L-853378 79112 L-852237 79034 L-852212 78994 L-852020 78916 L-851827 78876 L-851577 78837 L-851559 78798 L-850539 78758 L-850241 78719 L-850166 78679 L-850030 78601 L-849854 78561 L-849277 78483 L-849062 78443 L-848998 78404 L-848867 78364 L-848830 78286 L-848307 78246 L-848169 93758 L-848155 93758 L-848132 93758 L-848112 93758 L-847885 78207 L-847109 78207 L-847067 78207 L-846699 78207 L-846621 78168 L-846569 78128 L-845896 78089 L-845153 78050 L-844729 78050 L-844281 78010 L-843219 77971 L-842908 77892 L-842498 77892 L-842426 77853 L-841901 77853 L-841807 77853 L-841789 77853 L-841344 77813 L-841159 77735 L-840379 77656 L-839706 77616 L-839294 77498 L-839062 77420 L-838921 77380 L-838840 77301 L-838820 77262 L-838744 77262 L-838615 77223 L-838299 77262 L-838074 77262 L-837749 77223 L-837687 77223 L-837317 77223 L-837284 77223 L-837075 77223 L-836408 77223 L-836330 77223 L-836172 77144 L-836062 77144 L-835735 77105 L-835580 77065 L-835240 77065 L-835183 76987 L-834844 76908 L-834641 76868 L-834588 76790 L-833211 76750 L-833082 76711 L-832648 76672 L-832328 76632 L-831500 76553 L-831377 76514 L-830646 76435 L-830490 76357 L-830449 76317 L-830395 76278 L-830372 76238 L-830258 76199 L-829962 76160 L-829672 76120 L-829618 76081 L-829497 76042 L-829467 76002 L-829367 75963 L-828923 75963 L-828772 75924 L-827936 75924 L-827394 75884 L-827059 75884 L-827044 75845 L-826968 75805 L-826852 75766 L-826657 75727 L-826393 75687 L-825559 75648 L-825462 75609 L-824941 75569 L-824899 75530 L-824800 75490 L-823972 75490 L-823836 75451 L-823498 75451 L-822944 75412 L-822564 75372 L-822401 75333 L-822091 75294 L-821278 75254 L-820972 75215 L-820704 75215 L-820382 75215 L-820061 75254 L-819786 75254 L-818957 75175 L-818862 75136 L-818770 75018 L-818665 74900 L-818279 74782 L-817798 74703 L-817782 74664 L-817663 74624 L-817296 74546 L-817201 74506 L-816367 74427 L-816290 74388 L-815990 74349 L-815900 74309 L-815492 74231 L-815382 74152 L-814683 74112 L-814210 74073 L-814150 74034 L-813931 73955 L-813657 73916 L-813544 73876 L-812517 73837 L-812130 73798 L-812110 73758 L-811777 73719 L-811533 73679 L-811099 73640 L-810989 73601 L-810872 73561 L-810420 73483 L-809829 73443 L-809493 73404 L-807600 73364 L-807486 73286 L-807275 73246 L-805956 73207 L-805850 64349 L-805784 55609 L-805748 47538 L-805686 47538 L-805186 56317 L-804511 64979 L-804489 72971 L-804219 72892 L-803251 72892 L-802561 72853 L-802399 72813 L-801859 72774 L-801769 72735 L-800750 72695 L-799802 72616 L-799436 72656 L-799334 72695 L-798745 72695 L-798686 72695 L-798585 72656 L-798145 72577 L-798038 72538 L-797596 72498 L-796596 72380 L-796340 72262 L-796237 72144 L-796107 72065 L-795740 71987 L-795159 71908 L-795128 71868 L-794813 71829 L-792830 71790 L-792714 71750 L-792646 71750 L-792288 71711 L-790669 71672 L-790491 71672 L-790347 71672 L-789525 71711 L-789472 71750 L-789417 71750 L-788983 71750 L-788003 71790 L-787929 71790 L-786844 71750 L-786631 71750 L-785915 71672 L-785527 71632 L-785308 71553 L-784988 71475 L-784495 71396 L-784367 71357 L-784138 71278 L-783906 71199 L-783847 71160 L-783557 71120 L-783285 71042 L-782255 71002 L-780590 70963 L-780171 70924 L-780034 70884 L-779877 70884 L-779572 70845 L-779344 70766 L-779186 70727 L-779026 70648 L-778857 70569 L-778810 70530 L-778756 70490 L-778735 70490 L-778349 70451 L-778099 70451 L-777828 70451 L-777668 70451 L-777578 70451 L-775919 70451 L-775754 70490 L-775374 70451 L-774914 70451 L-774305 70372 L-773211 70333 L-772780 70294 L-772749 70254 L-772687 70215 L-772669 70175 L-770965 70136 L-770923 70097 L-770457 70057 L-770270 70018 L-770238 69939 L-769643 69900 L-769593 69861 L-769270 69821 L-769219 69782 L-769009 69742 L-768991 69703 L-768725 69624 L-768672 69585 L-768203 69546 L-767693 69467 L-767614 69467 L-767320 69427 L-767303 69388 L-767265 69349 L-767194 69309 L-767036 69270 L-766090 69270 L-766034 69270 L-765513 69270 L-765321 69231 L-765220 69231 L-764994 69191 L-764484 69191 L-764096 70254 L-764026 70254 L-763678 70215 L-763321 70175 L-762192 69034 L-762141 68955 L-761915 68916 L-761881 68876 L-761756 68798 L-761657 68798 L-761392 68798 L-760652 68837 L-760074 68837 L-759780 68837 L-759074 68837 L-758896 68798 L-758872 68798 L-758236 68758 L-757925 68719 L-757529 68719 L-757499 68679 L-757478 68640 L-757324 68601 L-756639 68601 L-756623 68601 L-756283 68601 L-756010 68561 L-755973 68522 L-755917 68443 L-755895 68404 L-755823 68364 L-755491 68325 L-755385 68286 L-755356 68207 L-755158 68168 L-755005 68128 L-754137 68089 L-753575 68010 L-753559 68010 L-753457 67971 L-753355 68010 L-753209 68010 L-753130 68010 L-753093 67971 L-753037 67931 L-752964 67892 L-752819 67853 L-752337 67853 L-751933 67813 L-751066 67853 L-751046 67853 L-750789 67853 L-750712 67853 L-750683 67813 L-750672 67735 L-750655 67695 L-750362 67656 L-750323 67616 L-750251 67577 L-750177 67538 L-749972 67498 L-749812 67380 L-749511 67262 L-749434 67105 L-749417 66987 L-749200 66908 L-748969 66908 L-748859 66947 L-748489 66987 L-748331 66987 L-748100 66987 L-747931 66987 L-747786 66947 L-747654 66908 L-746378 66829 L-745975 66750 L-745914 66711 L-745797 66632 L-745372 66593 L-745357 66514 L-745295 66475 L-745021 66396 L-744909 66357 L-744627 66278 L-744349 66238 L-743924 66160 L-743902 66120 L-743824 66081 L-743698 66042 L-743112 66002 L-742720 65963 L-742385 65924 L-741796 65884 L-741693 65884 L-741523 65845 L-741387 65845 L-740559 65805 L-739374 65766 L-739338 65727 L-739282 65727 L-739062 65687 L-738857 65687 L-738702 65687 L-738445 65648 L-738369 65609 L-737826 65569 L-737790 65530 L-737541 65490 L-737153 65451 L-736328 65412 L-735970 65372 L-735659 65372 L-735401 65333 L-735177 65294 L-734771 65254 L-734655 65215 L-734471 65175 L-734418 65175 L-734230 65136 L-734059 65097 L-734030 65057 L-733750 65018 L-733439 64979 L-733301 64939 L-732991 64900 L-732798 64900 L-732782 64861 L-732063 64861 L-731929 64782 L-731632 64742 L-731541 64703 L-730941 64703 L-730902 64664 L-730824 64624 L-730203 64585 L-730052 64506 L-730011 64467 L-729701 64427 L-729509 64388 L-729316 64309 L-729260 64231 L-728952 64191 L-728899 64152 L-728845 64191 L-728819 64191 L-728694 64191 L-727883 64152 L-727807 64112 L-727266 64073 L-726998 64034 L-726338 63994 L-725431 63955 L-725189 63916 L-724657 63876 L-724440 63837 L-723332 63876 L-723282 63876 L-722507 63876 L-721959 63837 L-721848 63798 L-721695 63719 L-721640 63679 L-721474 63640 L-721097 63601 L-720649 63561 L-720595 63522 L-720440 63483 L-719760 63443 L-719540 63404 L-719022 63364 L-718173 63286 L-718157 63246 L-716366 63207 L-715812 63168 L-715695 63128 L-714689 63089 L-714652 63050 L-714420 63050 L-714327 63050 L-714287 63050 L-713955 63010 L-713603 62971 L-713338 62892 L-713051 62853 L-712741 62774 L-712486 62695 L-712393 62656 L-711903 62616 L-711695 62577 L-711130 62538 L-711016 62577 L-710664 62538 L-710613 62538 L-710573 62538 L-709969 62459 L-709235 62380 L-708654 62301 L-708419 62223 L-707878 62105 L-707726 62026 L-707224 61987 L-707015 61908 L-706992 61908 L-706933 61868 L-705970 61868 L-705793 61829 L-705351 61790 L-705326 61711 L-705171 61672 L-705090 61672 L-704939 61711 L-704292 61711 L-704243 61672 L-703123 61632 L-702139 61593 L-702077 61553 L-701357 61514 L-700492 61475 L-700113 61435 L-699894 61435 L-699134 61396 L-699083 61357 L-698773 61278 L-697922 61278 L-697729 61238 L-697552 61199 L-697328 61199 L-697201 61160 L-697009 61160 L-696776 61120 L-696607 61160 L-696320 61120 L-696041 61120 L-695958 61081 L-695787 61042 L-695771 60963 L-695617 60924 L-695578 60884 L-694802 60845 L-694726 60845 L-694494 60766 L-694067 60727 L-693721 60687 L-693138 60648 L-692869 60648 L-692610 60648 L-692481 60569 L-692465 60530 L-692351 60490 L-692327 60451 L-692093 60412 L-692057 60372 L-690741 60372 L-690685 60333 L-690006 60254 L-689434 60254 L-689308 60254 L-689155 60254 L-689078 60254 L-688766 60175 L-688493 60136 L-688404 60057 L-688302 60057 L-687374 60018 L-687298 60018 L-686934 60018 L-686910 59979 L-686873 59939 L-686098 59861 L-686006 59821 L-685866 59782 L-685464 59742 L-685202 59742 L-684959 59782 L-684745 59742 L-684664 59742 L-684588 59742 L-684511 59742 L-684325 59782 L-684258 59782 L-684009 59782 L-683954 59742 L-683816 59703 L-683736 59624 L-683623 59585 L-683400 59546 L-683236 59506 L-683194 59467 L-683025 59427 L-682654 59388 L-682639 59349 L-682523 59309 L-681802 59270 L-681766 59231 L-681633 59231 L-681286 59191 L-680874 59191 L-680838 59191 L-680760 59152 L-680721 59112 L-680357 59073 L-680153 59034 L-680138 58994 L-679792 58955 L-679444 58955 L-679118 58955 L-679016 58916 L-678863 58916 L-678669 58876 L-678437 58876 L-678345 58876 L-678189 58876 L-678112 58876 L-678071 58837 L-677958 58798 L-677935 58758 L-677684 58758 L-677545 58679 L-676967 58561 L-676139 58483 L-675651 58404 L-675530 58364 L-675491 58325 L-675479 58286 L-675327 58207 L-675226 58128 L-674993 58089 L-674602 58010 L-674298 57971 L-674282 57931 L-674112 57892 L-673873 57813 L-673277 57813 L-672673 57774 L-672633 57774 L-672593 57774 L-672440 57735 L-672386 57695 L-672324 57656 L-672256 57616 L-672201 57538 L-672176 57498 L-672129 57459 L-672035 57380 L-671898 57341 L-671744 57301 L-671612 57262 L-671571 57262 L-671535 57223 L-671474 57183 L-671200 57105 L-670886 57065 L-670845 56987 L-670760 56947 L-670582 56908 L-670345 56868 L-669988 56829 L-669958 56790 L-669388 56750 L-669266 56711 L-669030 56672 L-669007 56672 L-668726 56632 L-668440 56632 L-668185 56632 L-667613 56593 L-667316 56553 L-667240 56514 L-666541 56475 L-666463 56435 L-666428 56396 L-666402 56357 L-666350 56278 L-666156 56238 L-666016 56160 L-665980 56120 L-665940 56081 L-665345 56042 L-665112 56002 L-664829 56278 L-664774 56514 L-664700 56790 L-664622 57026 L-664386 56947 L-664142 56908 L-664007 56868 L-663900 56829 L-663821 56790 L-663434 56711 L-663307 56672 L-663154 56632 L-663116 56593 L-662970 56553 L-662749 56514 L-662575 56475 L-662506 56435 L-661684 56357 L-661668 56357 L-661374 56317 L-660586 56278 L-660276 56278 L-660130 56238 L-659902 56199 L-659701 56120 L-658764 56081 L-658727 56042 L-658705 56002 L-658664 55924 L-658395 55884 L-657799 55845 L-657735 55805 L-657700 55766 L-657683 55727 L-656988 55727 L-656786 55727 L-656754 55727 L-656421 55727 L-656313 55687 L-655688 55609 L-655184 55569 L-655147 55490 L-654705 55490 L-654609 55451 L-654450 55451 L-654137 55451 L-654124 55451 L-653684 55490 L-653202 55530 L-653073 55530 L-652753 55530 L-652685 55490 L-652381 55490 L-652205 55451 L-652011 55412 L-651768 55333 L-651571 55254 L-651545 55175 L-650967 55136 L-650897 55097 L-650487 55057 L-650433 55018 L-650387 54979 L-650023 54939 L-649877 54900 L-649671 54861 L-649575 54861 L-649420 54821 L-649358 54782 L-649211 54703 L-649110 54664 L-648553 54664 L-648531 54742 L-648359 54782 L-647817 54821 L-647756 54821 L-647702 54742 L-647674 54664 L-647602 54624 L-647586 54546 L-647523 54506 L-647486 54427 L-647331 54388 L-647006 54349 L-646440 54309 L-646425 54270 L-646363 54191 L-646262 54112 L-646215 54112 L-645973 54073 L-645551 54073 L-645396 54073 L-643654 53994 L-643112 53955 L-642169 53916 L-641760 53876 L-641219 53798 L-641022 53758 L-640854 53719 L-640558 53679 L-640443 53640 L-640428 53640 L-640273 53601 L-640133 53561 L-640057 53483 L-639925 53483 L-639577 53483 L-639206 53522 L-638608 53522 L-638433 53522 L-638276 53483 L-638008 53443 L-637856 53443 L-637565 53561 L-637541 53640 L-637458 53719 L-637231 53798 L-636531 53758 L-636404 53719 L-635973 53679 L-635879 53640 L-634674 53640 L-634625 53601 L-634332 53601 L-633928 53561 L-633652 53483 L-633633 53443 L-633515 53404 L-633439 53364 L-633258 53325 L-632778 53286 L-632326 53207 L-631916 53168 L-631886 53128 L-631467 53089 L-631353 53089 L-631235 53089 L-631220 53089 L-631026 53050 L-631004 52971 L-630772 52931 L-630329 52892 L-630009 52813 L-629544 52813 L-629379 52774 L-629224 52735 L-629068 52735 L-628615 52735 L-628296 52735 L-628241 52774 L-627870 52774 L-627832 52813 L-627506 52813 L-627389 52774 L-627290 52735 L-626964 52656 L-626577 52616 L-626316 52577 L-625958 52498 L-625702 52459 L-623531 52420 L-623482 52380 L-623460 52341 L-623048 52341 L-622986 52341 L-622916 52380 L-622685 52380 L-622375 52341 L-622071 52262 L-622027 52223 L-621719 52183 L-621586 52144 L-621370 52105 L-620657 52065 L-620502 52065 L-620364 52026 L-620215 52026 L-620194 52026 L-620000 51987 L-619975 51947 L-619883 51908 L-619861 51868 L-619845 51829 L-619745 51790 L-618816 51750 L-618358 51750 L-617266 51672 L-616844 51672 L-616440 51632 L-616401 51593 L-616148 51553 L-615373 51475 L-615357 51435 L-615333 51396 L-615140 51357 L-614403 51317 L-614134 51278 L-614094 51238 L-613695 51160 L-613670 51120 L-612880 51081 L-612200 51042 L-610829 51002 L-610559 50963 L-610511 50924 L-609973 50845 L-609940 50805 L-609838 50727 L-609515 50687 L-609435 50648 L-609166 50648 L-608254 50609 L-608115 50609 L-607866 50530 L-607321 50530 L-606899 50490 L-606706 50451 L-606690 50451 L-606552 50372 L-606458 50333 L-606331 50294 L-606071 50254 L-606046 50175 L-605955 50136 L-605645 50097 L-605585 50057 L-605468 50057 L-605118 50057 L-604307 50057 L-604076 49979 L-603247 49979 L-603015 49900 L-602798 49861 L-602280 49861 L-601642 49821 L-601225 49782 L-600903 49742 L-600422 49703 L-599997 49703 L-599936 49664 L-599587 49664 L-599546 49624 L-599533 49585 L-599433 49506 L-599388 49506 L-598902 49467 L-598101 49467 L-597766 49467 L-596685 49427 L-596205 49388 L-596182 49349 L-596042 49309 L-595487 49270 L-594790 49231 L-594481 49191 L-594259 49152 L-594154 49112 L-594052 49034 L-593381 48994 L-593287 48955 L-593265 48955 L-593187 48916 L-593009 48916 L-592837 48916 L-592657 48876 L-592643 48837 L-592567 48798 L-592403 48758 L-591888 48719 L-591872 48679 L-591731 48679 L-591369 48640 L-591345 48640 L-591214 48601 L-591190 48561 L-590827 48522 L-590302 48443 L-590208 48404 L-589992 48325 L-589899 48286 L-589874 48246 L-589410 48207 L-589333 48207 L-588931 48168 L-588481 48168 L-587229 48128 L-587190 48089 L-586759 48050 L-586726 48010 L-586007 47971 L-585830 47931 L-585695 47892 L-585388 47853 L-585333 47813 L-585308 47735 L-585292 47656 L-585117 47616 L-584928 47577 L-584420 47577 L-584047 47262 L-583708 46908 L-583670 46593 L-582951 46317 L-582857 46278 L-582818 46238 L-582277 46238 L-582254 46199 L-581851 46160 L-581425 46120 L-581154 46120 L-580975 46081 L-580729 46002 L-580705 45963 L-580649 45884 L-580032 45845 L-579530 45805 L-579143 45805 L-578524 45845 L-578307 45845 L-578152 45884 L-576860 45805 L-576761 45766 L-576318 45687 L-575987 45648 L-575686 45569 L-575444 45530 L-574709 45451 L-574130 45412 L-573300 45372 L-573200 45333 L-572643 45294 L-572505 45254 L-570863 45215 L-570802 45215 L-570708 45215 L-569741 45215 L-569564 45175 L-569277 45175 L-569059 45175 L-568981 45136 L-568709 45136 L-568594 45097 L-568441 45057 L-568130 45018 L-568052 44979 L-567961 44979 L-567884 44939 L-567768 44939 L-567589 44900 L-567497 44861 L-567458 44821 L-566955 44821 L-566737 44782 L-566607 44782 L-566452 44742 L-566398 44703 L-566273 44703 L-565888 44664 L-565380 44624 L-565307 44585 L-564827 44546 L-564750 44506 L-564650 44506 L-564416 44467 L-563952 44467 L-563722 44467 L-563705 44467 L-563473 44467 L-563318 44467 L-563257 44467 L-563064 44427 L-562793 44349 L-562041 44309 L-561088 44309 L-561052 44270 L-560827 44270 L-560388 44270 L-560107 44191 L-559758 44152 L-558689 44112 L-557761 44112 L-557631 44112 L-557584 44112 L-557515 44073 L-557360 44073 L-557283 43994 L-557109 43916 L-556674 43837 L-556470 43798 L-556410 43719 L-555827 43679 L-555673 43601 L-555558 43561 L-555517 43522 L-555347 43483 L-555211 43443 L-555000 43364 L-554922 43325 L-554899 43286 L-554690 43207 L-554280 43168 L-554256 43128 L-554033 43089 L-553887 43050 L-553853 43010 L-553839 42971 L-553817 42931 L-553583 42892 L-553398 42853 L-553181 42813 L-553155 42774 L-552466 42735 L-552362 42695 L-552327 42656 L-552306 42616 L-552112 42577 L-552059 42538 L-551942 42459 L-551861 42459 L-551750 42420 L-551435 42380 L-550976 42341 L-550721 42301 L-550486 42223 L-550357 42183 L-550004 42144 L-549945 42105 L-549792 42065 L-549220 41987 L-549133 41947 L-548980 41868 L-548684 41790 L-548314 41711 L-548011 41632 L-547935 41593 L-547530 41553 L-547362 41553 L-547218 41553 L-546678 41553 L-546617 41553 L-546601 41475 L-546435 41435 L-546229 41396 L-546154 41396 L-546062 41357 L-545652 41317 L-545636 41278 L-545613 41278 L-545420 41238 L-545343 41593 L-545172 41947 L-545110 42262 L-545095 42616 L-544580 42577 L-544359 42538 L-543740 42459 L-543486 42420 L-543292 42380 L-543253 42341 L-543180 42341 L-543114 42341 L-542464 42341 L-542425 42380 L-542251 42380 L-542185 42380 L-541511 42380 L-541122 42301 L-540860 42262 L-540623 42223 L-540545 42144 L-540529 42065 L-540327 42026 L-539956 41947 L-539731 41908 L-539095 41868 L-539075 41868 L-538688 41829 L-538595 41829 L-538536 41790 L-538260 41750 L-537951 41750 L-537874 41711 L-537022 41750 L-536680 41947 L-536243 42183 L-535809 42380 L-535314 42577 L-535165 42538 L-534896 42577 L-533658 42616 L-533601 42695 L-531838 42735 L-531647 42695 L-530637 42656 L-530486 42616 L-530111 42695 L-529790 42774 L-529184 42853 L-529115 42931 L-528937 42892 L-528109 42853 L-527970 42813 L-527584 42774 L-527399 42735 L-527356 42695 L-527236 42656 L-527026 42616 L-526578 42538 L-526230 42498 L-526098 42459 L-525689 42420 L-525339 42420 L-525054 42380 L-524860 42341 L-524705 42341 L-524541 42301 L-524473 42262 L-524373 42262 L-524140 42223 L-524023 42223 L-523970 42183 L-523428 42183 L-522964 42144 L-521782 42144 L-521649 42144 L-521624 42144 L-521571 42144 L-520904 42144 L-519869 42065 L-519675 42026 L-519496 41987 L-519344 41987 L-519303 41947 L-519288 41947 L-519227 41908 L-518902 41868 L-517741 41829 L-517548 41790 L-517370 41750 L-516256 41711 L-515397 41672 L-515290 41672 L-514817 41632 L-514624 41632 L-512302 41593 L-512225 41553 L-512103 41475 L-512069 41435 L-512032 41357 L-511937 41238 L-511722 41160 L-511140 41081 L-510754 41042 L-509981 41002 L-509903 40963 L-509206 40963 L-508665 40963 L-508624 40924 L-508493 40924 L-508029 40884 L-507991 40845 L-507856 40805 L-507488 40766 L-507458 40727 L-507308 40727 L-506908 40687 L-505084 40727 L-504277 40687 L-503558 40687 L-503541 40687 L-503228 40609 L-502666 40569 L-502165 40530 L-501646 40490 L-501624 40451 L-499880 40412 L-499711 40372 L-499516 40333 L-498622 40294 L-498103 40215 L-497893 40175 L-497635 40136 L-496925 40097 L-495975 40057 L-495317 40018 L-495278 39939 L-494991 39900 L-494909 39861 L-494813 39861 L-494681 39821 L-494604 39821 L-493869 39821 L-493532 39782 L-493482 39821 L-493227 39821 L-492940 39782 L-492515 39782 L-491934 39742 L-491676 39742 L-491524 39703 L-491277 39703 L-491238 39703 L-490441 39664 L-490403 39624 L-490226 39624 L-489817 39546 L-489589 39546 L-489512 39546 L-489381 39546 L-489265 39506 L-488917 39467 L-488853 39427 L-488701 39388 L-487960 39349 L-487849 39309 L-487678 39270 L-487639 39231 L-487345 39231 L-486943 39231 L-486767 39231 L-486673 39231 L-486363 39191 L-485562 39152 L-485103 39073 L-484583 39034 L-484095 38994 L-483399 38955 L-482353 38916 L-482084 38916 L-482029 38876 L-481869 38876 L-481618 38876 L-481372 38837 L-481293 38798 L-481079 38719 L-480766 38679 L-480303 38601 L-480289 38561 L-479992 38561 L-479979 38522 L-478988 38483 L-478315 38443 L-477981 38364 L-477364 38364 L-477227 38325 L-476588 38286 L-476458 38246 L-475507 38168 L-475408 38089 L-474848 38050 L-474440 38050 L-474011 38050 L-473920 38010 L-473086 38010 L-472722 38010 L-472683 38050 L-472551 38089 L-472374 38089 L-472157 38089 L-472103 38050 L-471946 37971 L-471693 37931 L-470593 37892 L-470516 37853 L-470296 37813 L-470165 37735 L-470129 37695 L-469936 37656 L-469836 37616 L-469352 37577 L-469068 37538 L-468908 37498 L-468813 37420 L-468542 37380 L-468272 37341 L-468256 37183 L-468117 37065 L-467979 36947 L-467652 36790 L-467343 36711 L-467302 36672 L-467227 36593 L-467111 36553 L-466261 36475 L-465934 36435 L-465603 36396 L-465470 36396 L-465254 36396 L-465238 36396 L-464558 36396 L-464464 36317 L-464441 36278 L-464425 36199 L-464387 36160 L-463975 36081 L-463706 36042 L-463665 36002 L-463297 36002 L-463087 35963 L-462004 35963 L-461988 35924 L-461959 35884 L-461939 35884 L-461562 35805 L-461307 35766 L-461059 35687 L-460920 35609 L-460788 35569 L-460456 35530 L-460363 35490 L-460302 35451 L-459744 35412 L-459683 35372 L-459527 35333 L-459333 35294 L-459140 35254 L-459125 35215 L-459086 35175 L-459047 35136 L-458777 35097 L-458653 35057 L-458621 35018 L-458522 35018 L-458366 35018 L-458225 35018 L-457941 34979 L-457615 34979 L-456920 34939 L-456897 34939 L-456387 34939 L-455541 34939 L-455178 34900 L-455024 34861 L-454420 34861 L-454250 34861 L-454189 34861 L-454134 34821 L-453078 34782 L-453060 34782 L-452154 34782 L-452133 34782 L-451966 34742 L-451723 34742 L-451673 34703 L-451619 34624 L-451481 34585 L-451442 34546 L-450513 34506 L-450458 34506 L-450336 34506 L-450264 34506 L-450149 34506 L-449970 34546 L-448988 34506 L-448848 34506 L-448731 34427 L-448436 34349 L-448189 34309 L-448152 34270 L-448097 34309 L-448076 34309 L-447943 34309 L-447864 34309 L-447726 34270 L-447103 34270 L-446937 34231 L-446472 34231 L-446296 34152 L-446280 34112 L-446219 34073 L-446103 34034 L-445620 33994 L-444925 33955 L-444552 33916 L-444383 33876 L-443416 33837 L-443261 33798 L-443084 33798 L-442991 33758 L-442736 33758 L-442565 33758 L-441918 33719 L-441907 33719 L-441327 33679 L-441189 33679 L-441134 33601 L-440399 33561 L-440360 33522 L-440282 33522 L-439640 33483 L-438866 33483 L-438773 33443 L-438725 33443 L-438710 33404 L-438673 33404 L-438657 33325 L-438594 33286 L-438578 33246 L-438558 33246 L-438403 33207 L-438364 33168 L-438348 33128 L-438309 33089 L-438170 33050 L-438093 33010 L-437729 32971 L-437381 32931 L-436607 32892 L-436005 32853 L-435809 32813 L-435578 32813 L-435441 32774 L-434803 32774 L-434513 32735 L-434492 32735 L-434032 32695 L-433799 32695 L-433744 32656 L-433705 32616 L-433202 32577 L-432652 32538 L-431864 32498 L-430741 32498 L-429847 32459 L-429759 32459 L-429460 32420 L-429388 32380 L-429272 32341 L-428095 32301 L-427747 32262 L-427725 32223 L-427205 32183 L-427059 32144 L-426950 32105 L-426741 32065 L-426586 32026 L-426564 31987 L-426370 31947 L-426293 31908 L-426149 31868 L-425348 31829 L-425202 31790 L-424922 31750 L-424745 31711 L-424435 31672 L-423624 31632 L-422695 31632 L-421103 31593 L-420860 31553 L-420219 31514 L-420024 31475 L-419946 31435 L-419428 31396 L-419196 31396 L-419173 31357 L-419041 31357 L-418702 31317 L-418691 31278 L-418475 31238 L-418438 31199 L-417896 31160 L-417367 31081 L-417300 31042 L-417007 31002 L-416459 30924 L-416424 30884 L-416371 30845 L-416272 30766 L-416039 30766 L-415459 30766 L-415361 30805 L-415287 30805 L-414955 30766 L-414205 30727 L-414166 30687 L-413486 30687 L-413332 30687 L-413006 30648 L-412790 30609 L-412558 30609 L-412262 30569 L-412016 30530 L-411665 30490 L-411611 30451 L-410852 30412 L-410159 30333 L-409808 30254 L-409344 30215 L-408711 30175 L-408302 30136 L-408224 30175 L-407798 30175 L-407156 30136 L-406986 30136 L-406245 30097 L-406057 30057 L-405762 30018 L-405190 29979 L-405165 29939 L-404145 29939 L-403658 29900 L-403565 29900 L-403504 29861 L-403216 29821 L-402930 29782 L-402869 29742 L-402689 29742 L-401978 29703 L-401802 29664 L-401603 29624 L-401452 29585 L-401360 29546 L-401298 29506 L-400756 29506 L-400446 29467 L-400354 29388 L-400277 29309 L-399709 29270 L-399618 29270 L-399364 29191 L-399037 29112 L-399000 28994 L-398845 28876 L-398613 28837 L-398291 28798 L-397158 28758 L-396959 28719 L-396434 28679 L-396189 28679 L-395943 28640 L-395863 28601 L-395843 28522 L-395766 28483 L-395711 28404 L-395634 28364 L-395595 28325 L-395416 28246 L-395379 28207 L-395147 28168 L-393910 28128 L-393583 28089 L-393543 28010 L-392762 27971 L-392615 27931 L-391623 27892 L-391417 27892 L-390991 27892 L-390863 27892 L-390459 27931 L-390371 27892 L-389714 27853 L-389007 27813 L-388399 27774 L-388205 27735 L-387972 27656 L-387354 27616 L-387058 27538 L-386619 27498 L-386464 27459 L-386309 27420 L-385553 27341 L-385203 27301 L-384800 27301 L-384762 27262 L-383756 27262 L-383436 27262 L-383189 27223 L-382489 27144 L-382416 27105 L-382104 27065 L-381023 27026 L-380832 26987 L-380598 26987 L-380403 26947 L-379903 26908 L-379149 26908 L-379036 26908 L-378835 26908 L-378794 26868 L-378701 26829 L-378388 26790 L-378300 26750 L-378184 26711 L-377866 26711 L-377797 26672 L-377772 26632 L-377410 26593 L-377372 26553 L-377155 26514 L-376652 26553 L-376050 26593 L-375838 26672 L-375685 26711 L-375647 26711 L-375603 26632 L-375569 26593 L-375436 26553 L-375027 26514 L-374656 26475 L-374602 26435 L-374586 26396 L-374507 26357 L-374098 26317 L-373944 26278 L-373928 26199 L-373889 26160 L-373710 26081 L-373634 26042 L-373403 26002 L-372613 25963 L-372536 25963 L-371801 25884 L-371645 25845 L-371405 25766 L-371343 25687 L-371258 25648 L-371235 25569 L-371118 25490 L-371103 25412 L-371042 25333 L-371004 25294 L-370910 25254 L-370888 25254 L-370772 25215 L-370539 25175 L-370369 25097 L-369549 25097 L-369147 25057 L-368992 25057 L-368487 25057 L-368373 25057 L-367777 25057 L-367402 25018 L-367351 25018 L-367157 24979 L-366460 24979 L-366422 24939 L-366277 24939 L-366052 24900 L-365790 24861 L-365416 24821 L-364991 24782 L-364862 24742 L-364841 24664 L-364348 24664 L-363652 24624 L-363420 24664 L-363266 24664 L-362298 24664 L-362073 24703 L-361795 24703 L-361779 24664 L-361254 24624 L-360725 24585 L-360576 24546 L-360557 24506 L-360015 24467 L-359705 24427 L-359588 24349 L-359396 24270 L-359260 24191 L-358933 24152 L-358816 24112 L-358506 24112 L-358080 24073 L-358024 24073 L-357792 24112 L-357695 24112 L-357562 24112 L-357266 24112 L-357152 24073 L-356787 24034 L-356475 24034 L-355992 23994 L-355821 23955 L-355573 23916 L-355357 23876 L-354831 23837 L-354645 23758 L-354289 23719 L-353654 23679 L-353500 23601 L-352759 23561 L-352339 23522 L-352159 23483 L-352083 23483 L-351952 23443 L-351658 23404 L-351617 23364 L-351387 23364 L-351195 23325 L-350940 23325 L-350513 23286 L-350404 23246 L-349786 23246 L-349604 23246 L-348393 23246 L-347746 23286 L-347595 23286 L-347557 23286 L-347425 23286 L-347324 23246 L-347309 23207 L-347227 23168 L-347015 23128 L-346898 23089 L-346536 23050 L-346164 23010 L-345467 22971 L-345065 22931 L-344960 22892 L-344942 22853 L-343997 22813 L-343802 22735 L-343650 22695 L-343595 22616 L-342838 22616 L-342821 22695 L-342332 22735 L-342202 22813 L-342009 22813 L-341119 22774 L-341079 22735 L-341041 22695 L-340964 22656 L-340925 22656 L-340848 22616 L-340765 22577 L-340500 22538 L-340268 22498 L-340206 22459 L-339725 22420 L-339389 22420 L-339278 22380 L-339084 22341 L-338908 22301 L-338848 22301 L-338812 22262 L-338542 22223 L-337844 22144 L-337791 22065 L-337497 21987 L-337095 21908 L-336531 21868 L-335658 21829 L-335353 21790 L-335315 21750 L-335193 21711 L-334594 21672 L-334464 21632 L-334264 21593 L-334227 21553 L-333613 21514 L-333434 21475 L-333419 21396 L-333201 21357 L-333123 21278 L-332816 21278 L-332684 21238 L-332452 21238 L-332118 21238 L-332026 21199 L-331926 21160 L-331888 21120 L-331345 21120 L-331152 21081 L-330611 21042 L-330185 21002 L-330053 21002 L-329992 21002 L-329761 21002 L-329744 21002 L-329256 21042 L-329175 21042 L-329158 21042 L-327765 21081 L-327629 21081 L-327515 21042 L-326881 21002 L-326741 20963 L-326624 20924 L-326470 20845 L-326433 20805 L-326354 20766 L-326300 20805 L-325308 20805 L-325272 20766 L-325139 20766 L-325078 20687 L-324979 20648 L-324689 20609 L-324675 20569 L-324365 20569 L-324266 20609 L-323800 20569 L-323747 24742 L-323604 28876 L-323476 33050 L-323244 37223 L-322675 37183 L-322586 37144 L-322564 37144 L-322277 37105 L-321594 37065 L-321517 37026 L-321481 36987 L-321464 36947 L-321265 36908 L-320844 36829 L-320573 36829 L-319700 36790 L-319408 36790 L-319297 36790 L-318562 36750 L-318435 36711 L-318076 36672 L-317823 36672 L-316952 36632 L-316783 36632 L-316721 36593 L-316666 36553 L-316318 36514 L-316295 36475 L-316086 36435 L-315946 36396 L-315816 36357 L-315693 36317 L-315569 36278 L-315332 36238 L-315042 36199 L-314383 36160 L-314361 36120 L-314206 36081 L-314088 36042 L-313124 36002 L-313068 35963 L-312836 35924 L-312813 35884 L-312487 35845 L-312372 35845 L-312332 35805 L-311830 35805 L-311531 35766 L-311420 35727 L-310877 35687 L-309818 35648 L-309192 35609 L-309021 35569 L-308773 35530 L-308517 35490 L-308386 35451 L-308364 35412 L-307697 35372 L-306800 35333 L-306754 35294 L-306684 35254 L-306568 35254 L-306348 35215 L-306157 35215 L-306118 35175 L-305925 35136 L-305266 35136 L-304649 35097 L-304610 35333 L-304014 35569 L-303952 35766 L-302830 35963 L-302776 35963 L-302655 35924 L-302389 35884 L-302326 35884 L-302057 35884 L-301980 35845 L-301764 35845 L-301282 35805 L-301012 35766 L-300881 35766 L-300649 35687 L-300624 35569 L-300609 35412 L-300586 35215 L-300570 35018 L-300546 34821 L-300532 34585 L-300509 34349 L-300493 34112 L-300470 33916 L-300455 33719 L-300433 33522 L-300417 33404 L-300388 33286 L-300371 33128 L-300353 33050 L-300316 32931 L-300277 32853 L-300261 32774 L-300236 32656 L-300184 32577 L-300160 32498 L-300083 32420 L-300045 32380 L-300030 32301 L-299967 32223 L-299952 32144 L-299906 32026 L-299835 31947 L-299797 31908 L-299773 31829 L-299720 31750 L-299695 31711 L-299680 31672 L-299618 31632 L-299581 31593 L-299504 31553 L-299488 31514 L-299460 31435 L-299387 31396 L-299348 31357 L-299194 31278 L-299078 31238 L-299024 31199 L-298941 31160 L-298908 31120 L-298884 31081 L-298729 31042 L-298714 31002 L-298613 30963 L-298302 30924 L-298266 30884 L-298051 30845 L-297940 30845 L-297915 30845 L-297685 30884 L-297452 30884 L-297077 30845 L-296950 30805 L-296910 30766 L-296857 30727 L-296756 30687 L-296719 30648 L-296509 30648 L-296444 30609 L-296332 30609 L-296120 30569 L-296083 30530 L-295711 30490 L-295658 30451 L-295579 30412 L-295557 30372 L-295464 30333 L-295264 30294 L-295227 30294 L-295205 30294 L-294975 30294 L-294954 30254 L-294745 30254 L-294650 30215 L-294612 30175 L-294276 30136 L-294163 30097 L-294123 30057 L-294110 30057 L-293970 30018 L-293955 30018 L-293701 30018 L-293118 29979 L-293042 29939 L-293004 29900 L-292959 29861 L-292911 29821 L-292731 29782 L-292716 29742 L-292617 29703 L-292539 29664 L-292478 29624 L-292113 29546 L-292031 29506 L-292013 29467 L-291959 29427 L-290991 29388 L-290859 29349 L-290838 29309 L-290617 29270 L-290549 29231 L-290526 29191 L-290280 29152 L-290024 29112 L-289893 29073 L-289853 29034 L-289832 28955 L-289776 28876 L-289689 28837 L-289627 28758 L-289402 28719 L-289273 28679 L-289173 28640 L-289119 28601 L-288925 28561 L-288848 28522 L-288514 28483 L-288383 28443 L-288206 28404 L-288190 28364 L-288165 28325 L-287896 28325 L-286695 28286 L-286658 28286 L-286542 28246 L-286308 28207 L-286117 28168 L-286078 28168 L-286023 28128 L-285918 28128 L-285404 28089 L-285110 28050 L-284878 28010 L-284603 27971 L-284586 27931 L-284554 27892 L-284513 27853 L-284476 27813 L-284374 27774 L-284297 27735 L-284204 27695 L-284078 27656 L-283973 27616 L-283795 27616 L-283602 27577 L-282773 27577 L-282657 27538 L-282403 27498 L-282363 27459 L-282264 27420 L-282203 27420 L-281961 27380 L-281937 27380 L-281816 27341 L-281745 27301 L-281705 27262 L-281474 27223 L-281297 27183 L-280777 27144 L-280701 27105 L-280684 27065 L-280273 27065 L-279910 27065 L-279794 27026 L-279772 27026 L-279731 26987 L-279655 26947 L-279601 26908 L-279252 26868 L-279136 26829 L-278959 26829 L-278904 26790 L-278880 26790 L-278766 26750 L-278479 26711 L-278246 26672 L-278031 26632 L-277821 26593 L-277611 26514 L-276785 26475 L-276445 26435 L-275437 26396 L-275074 26357 L-274029 26317 L-273951 26278 L-273504 26238 L-273293 26199 L-273101 26160 L-272807 26120 L-272766 26081 L-272612 26042 L-272559 25963 L-272327 25924 L-271747 25884 L-271553 25845 L-270934 25845 L-270445 25805 L-270393 25766 L-269744 25727 L-269594 25687 L-269425 25648 L-269052 25609 L-269036 25609 L-268937 25569 L-268899 25569 L-268768 25530 L-268335 25530 L-268032 25530 L-267646 25530 L-267506 25490 L-267344 25490 L-266911 25490 L-266872 25451 L-266770 25451 L-266655 25412 L-266477 25412 L-266307 25372 L-266189 25333 L-265827 25254 L-265610 25215 L-265477 25175 L-265337 25175 L-264838 25175 L-264760 25175 L-264526 25136 L-264202 25136 L-263815 25097 L-263793 25057 L-263172 25057 L-262902 25018 L-262669 25018 L-262245 24979 L-261973 24939 L-261831 24900 L-261622 24861 L-261417 24821 L-260865 24782 L-260734 24782 L-260348 24742 L-260078 24742 L-259975 24703 L-259714 24664 L-259513 24624 L-259443 24585 L-259405 24546 L-258837 24506 L-258630 24467 L-258603 24427 L-258374 24388 L-258297 24349 L-257780 24309 L-257741 24270 L-257586 24231 L-257292 24191 L-257021 24152 L-256657 24112 L-256309 24112 L-255937 24073 L-255816 24073 L-255745 24034 L-255265 23994 L-255202 23955 L-254867 23916 L-254736 23876 L-254659 23837 L-254529 23798 L-254065 23798 L-253771 23758 L-253695 23758 L-253383 23719 L-253075 23679 L-253012 23640 L-252982 23601 L-252207 23561 L-252103 23483 L-252015 23443 L-251992 23404 L-251838 23364 L-251616 23325 L-251449 23286 L-251062 23246 L-251008 23207 L-250944 23207 L-250327 23168 L-250210 23128 L-249887 23089 L-249361 23050 L-249011 23010 L-248935 22971 L-248315 22931 L-247904 22892 L-247603 22853 L-247293 22813 L-247155 22774 L-246530 22774 L-246149 22735 L-245025 22735 L-243965 22695 L-243902 22656 L-243542 22616 L-243440 22616 L-243424 22577 L-243051 22577 L-242045 22498 L-241658 22459 L-241451 22380 L-241363 22341 L-240987 22301 L-240694 22262 L-240383 22223 L-239594 22183 L-239506 22144 L-239454 22105 L-239415 22065 L-238898 22026 L-238782 21987 L-238573 21947 L-238434 21908 L-237831 21868 L-237001 21829 L-236718 21790 L-236536 21790 L-236035 21750 L-235830 21750 L-235276 21750 L-234770 21711 L-234579 21672 L-234541 21632 L-233912 21593 L-233459 21553 L-233044 21514 L-232436 21475 L-231315 21475 L-230902 21435 L-230578 21435 L-230363 21396 L-229936 21357 L-229796 21317 L-229705 21278 L-229473 21238 L-228887 21238 L-228079 21199 L-226879 21199 L-226766 21199 L-226633 21160 L-226546 21120 L-226504 21160 L-226483 21199 L-226473 21278 L-226378 21357 L-225614 21357 L-224908 21357 L-224868 21317 L-224582 21278 L-224042 21238 L-223980 21199 L-223940 21160 L-223925 21120 L-223668 21081 L-223345 21042 L-223205 21002 L-222935 20963 L-222896 20924 L-222788 20884 L-222387 20845 L-222277 20805 L-222200 20766 L-221903 20727 L-221860 20687 L-221642 20687 L-221458 20687 L-221347 20687 L-221333 20648 L-221307 20648 L-220883 20609 L-220636 20569 L-220301 20530 L-220266 20490 L-220131 20451 L-219878 20451 L-219723 20412 L-218817 20412 L-218718 20372 L-218523 20294 L-217515 20254 L-217015 20215 L-216936 20175 L-216898 20136 L-216690 20097 L-216572 20057 L-216473 20018 L-216288 19979 L-216122 19939 L-215886 19900 L-215467 19861 L-215451 19821 L-215142 19782 L-214096 19742 L-213879 19703 L-213864 19664 L-213841 19624 L-213633 19585 L-213474 19546 L-213415 19506 L-211970 19467 L-211644 19467 L-211442 19467 L-211243 19467 L-211093 19467 L-210823 19427 L-210382 19388 L-210164 19388 L-209470 19349 L-208967 19309 L-208642 19270 L-208371 19270 L-207651 19231 L-207496 19231 L-206297 19152 L-205908 19112 L-205793 19034 L-205639 18994 L-205486 18955 L-204515 18916 L-204463 18876 L-204216 18837 L-204194 18798 L-203974 18758 L-203535 18679 L-203396 18601 L-203288 18522 L-203086 18483 L-202969 18443 L-202867 18404 L-202852 18404 L-202720 18364 L-202466 18325 L-201848 18286 L-201188 18246 L-200943 18246 L-200750 18207 L-199991 18207 L-199951 18207 L-199873 18168 L-199821 18089 L-199782 18050 L-199744 18010 L-199705 17971 L-199613 17931 L-199569 17892 L-199511 17813 L-199487 17774 L-199372 17735 L-199062 17656 L-199007 17616 L-198985 17577 L-198643 17538 L-198478 17498 L-198443 17420 L-198402 17380 L-198387 17341 L-198156 17301 L-198015 17262 L-197847 17223 L-197398 17223 L-197164 17223 L-197072 17223 L-197052 17262 L-196571 17223 L-196493 17223 L-196366 17183 L-196236 17105 L-195858 17065 L-195617 16987 L-195579 16947 L-195525 16908 L-195387 16829 L-195348 16790 L-195308 16750 L-195077 16711 L-195037 16672 L-194907 16632 L-194728 16593 L-194687 16553 L-194673 16514 L-194509 16475 L-194495 16435 L-194342 16396 L-194327 16357 L-194301 16317 L-194266 16278 L-194044 16199 L-193822 16199 L-193567 16160 L-193436 16199 L-192793 16199 L-192186 16160 L-191166 16160 L-190973 16120 L-190922 16081 L-190797 16042 L-190473 16002 L-189700 15963 L-189642 15924 L-189528 15884 L-189116 15845 L-188792 15805 L-188654 15766 L-188429 15727 L-187904 15687 L-187502 15687 L-187471 15648 L-187184 15648 L-186899 15609 L-186511 15569 L-186295 15530 L-185867 15451 L-185686 15412 L-185349 15372 L-185243 15333 L-185056 15333 L-184939 15294 L-184925 15294 L-184204 15254 L-184035 15215 L-183786 15175 L-183686 15136 L-183044 15097 L-182756 15057 L-182565 15018 L-182290 14979 L-181973 14939 L-181688 14900 L-181574 14821 L-181529 14782 L-181327 14742 L-179719 14703 L-179506 14664 L-178825 14624 L-178743 14585 L-178515 14546 L-178324 14546 L-178185 14506 L-178167 14506 L-177974 14506 L-177744 14506 L-177551 14506 L-176467 14467 L-176272 14467 L-176219 14467 L-176065 14467 L-175957 14467 L-175791 14467 L-175638 14427 L-175523 14388 L-175399 14309 L-174982 14270 L-174725 14191 L-174633 14152 L-174440 14152 L-174378 14112 L-174053 14112 L-173991 14112 L-173934 14073 L-173665 14034 L-173317 13994 L-173139 13955 L-172944 13916 L-172909 13955 L-172196 13955 L-172156 14034 L-171847 14073 L-171549 14112 L-171499 14152 L-171244 14191 L-170973 14231 L-170918 14231 L-169827 14231 L-169796 14191 L-169756 14191 L-169579 14191 L-169387 14152 L-168529 14152 L-167475 14112 L-167414 14073 L-167066 14034 L-166253 14034 L-165439 14034 L-165424 14034 L-165049 14034 L-164881 14034 L-164612 14034 L-164284 13994 L-164163 13955 L-164106 13955 L-164070 13916 L-163993 13916 L-163776 13876 L-163718 13837 L-163402 13798 L-163234 13758 L-162871 13758 L-162678 13758 L-162654 13758 L-162577 13719 L-162096 13719 L-161958 13719 L-161545 13679 L-161246 13679 L-161146 13640 L-161131 13601 L-161102 13561 L-160743 13522 L-160393 13483 L-160255 13443 L-160218 13443 L-159402 13404 L-159195 13364 L-159171 13325 L-159015 13325 L-158925 13286 L-158684 13286 L-158360 13246 L-158267 13246 L-158071 13207 L-157785 13207 L-157029 13168 L-156900 13128 L-156826 13089 L-156214 13050 L-156038 13010 L-155927 12971 L-155828 12931 L-155749 12892 L-155612 12853 L-155457 12853 L-155378 12853 L-155187 12853 L-154514 12853 L-154476 12813 L-154373 12774 L-153430 12735 L-153408 12695 L-153057 12656 L-152592 12616 L-152556 12577 L-152127 12538 L-152076 12538 L-151664 12498 L-151648 12498 L-151552 12498 L-151496 12498 L-151458 12498 L-151163 12459 L-149424 12420 L-147914 12380 L-147406 12341 L-146909 12301 L-146775 12262 L-146684 12223 L-146557 12183 L-146478 12105 L-146172 12065 L-145902 12026 L-145668 12026 L-144469 11987 L-144364 11987 L-144298 11947 L-143457 11908 L-143271 11868 L-142360 11829 L-141490 11750 L-141203 11711 L-141110 11632 L-140561 11593 L-140041 11553 L-138973 11514 L-138704 11475 L-138550 11475 L-138458 11475 L-138327 11514 L-138280 11553 L-138121 11553 L-137255 11553 L-136920 11553 L-136537 11514 L-135784 11475 L-135725 11435 L-135336 11435 L-135014 11435 L-134857 11396 L-134125 11396 L-134062 11396 L-133775 11396 L-133401 11396 L-133220 11396 L-132964 11357 L-132702 11278 L-132550 11238 L-132146 11199 L-130849 11160 L-130734 11120 L-130270 11081 L-128938 11042 L-128514 11002 L-128489 10963 L-128356 10924 L-128181 10884 L-128048 10884 L-127718 10845 L-127330 10805 L-127291 10766 L-127275 10687 L-126884 10648 L-126592 10609 L-126324 10609 L-126150 10609 L-124657 10609 L-124606 10569 L-124529 10609 L-123289 10648 L-123213 10648 L-123187 10727 L-122940 10687 L-122783 10687 L-122724 10648 L-121837 10648 L-121608 10609 L-121085 10609 L-120943 10648 L-120868 10648 L-120171 10687 L-119924 10687 L-119243 10648 L-119226 10648 L-118972 10609 L-118604 10609 L-118468 10569 L-117846 10490 L-117503 10451 L-117456 10412 L-116969 10372 L-116634 10294 L-116418 10294 L-116283 10254 L-115962 10215 L-115898 10215 L-115646 10175 L-115356 10136 L-115047 10097 L-114907 10057 L-114368 10018 L-114092 9979 L-113362 9939 L-113309 9939 L-113201 9939 L-112936 9939 L-112511 9939 L-112247 9900 L-112027 9861 L-112007 9821 L-111776 9782 L-111488 9742 L-111465 9742 L-111451 9703 L-111078 9703 L-110907 9664 L-110831 9585 L-110770 9546 L-110469 9467 L-110228 9388 L-110135 9349 L-109878 9309 L-109825 9270 L-109630 9231 L-109414 9270 L-108990 9270 L-108898 9309 L-108757 9270 L-107893 9231 L-107519 9191 L-107191 9112 L-107039 9073 L-106612 9073 L-105894 9034 L-105699 9034 L-105345 8994 L-105198 8955 L-104692 8876 L-104455 8837 L-103488 8798 L-103478 8758 L-102413 8719 L-102181 8679 L-101779 8640 L-101585 8601 L-101504 8561 L-101408 8522 L-100671 8522 L-100539 8522 L-100149 8522 L-100127 8483 L-100032 8483 L-99897 8443 L-99880 8404 L-99860 8364 L-98175 8325 L-98156 8325 L-98040 8286 L-97955 8286 L-97831 8286 L-97807 8246 L-97523 8207 L-97416 8168 L-97228 8089 L-96957 8050 L-96285 8010 L-95913 7971 L-95062 7971 L-95004 7931 L-94984 7931 L-94751 7931 L-94477 7892 L-94171 7892 L-94132 7813 L-93901 7813 L-93663 7774 L-93050 7735 L-93010 7695 L-92972 7616 L-92451 7577 L-92259 7538 L-92199 7498 L-92156 7459 L-91834 7459 L-91806 7420 L-91791 7420 L-91306 7380 L-91253 7341 L-91114 7301 L-91076 7262 L-91059 7223 L-90965 7183 L-90299 7183 L-89683 7144 L-89414 7144 L-89006 7144 L-88985 7105 L-88970 7105 L-88856 7065 L-88469 7026 L-88003 7026 L-87942 6987 L-87863 6947 L-87848 6908 L-87362 6829 L-87323 6790 L-87177 6790 L-87128 6750 L-87049 6790 L-86417 6750 L-86326 6750 L-86085 6750 L-85968 6711 L-85641 6711 L-84886 6672 L-84870 6672 L-83918 6672 L-83609 6632 L-83184 6593 L-82470 6553 L-82152 6514 L-82137 6475 L-81986 6396 L-81682 6357 L-81604 6317 L-81477 6278 L-81040 6278 L-80980 6278 L-80457 6278 L-80188 6278 L-80051 6238 L-79973 6199 L-79934 6160 L-79122 6160 L-79081 6160 L-78642 6160 L-78563 6160 L-78306 6120 L-78115 6081 L-77486 6042 L-77299 6002 L-77265 5924 L-77109 5884 L-76707 5805 L-76630 5766 L-76449 5727 L-76259 5687 L-75330 5609 L-75179 5569 L-73972 5530 L-73162 5490 L-72759 5451 L-72156 5412 L-71954 5372 L-71885 5333 L-71727 5294 L-71466 5254 L-71093 40530 L-71074 40490 L-70917 40490 L-69719 40490 L-68615 5175 L-67688 5136 L-67574 5097 L-67288 5057 L-67186 5018 L-67162 5018 L-66972 4939 L-66894 4900 L-66699 4900 L-65987 4900 L-65829 4939 L-64772 4939 L-64347 4939 L-63937 4900 L-63651 4821 L-63477 4782 L-63245 4742 L-62991 4703 L-62548 4664 L-61887 4624 L-61712 4585 L-61407 4546 L-61020 4506 L-61000 4467 L-60980 4427 L-60959 4388 L-60825 4349 L-60633 4309 L-58989 4270 L-57693 4231 L-57654 4191 L-57596 4152 L-57495 4112 L-56935 4073 L-55951 4034 L-55409 3955 L-54945 3916 L-54300 3876 L-53750 3837 L-52701 3798 L-51772 3758 L-51424 3719 L-51231 3679 L-50728 3640 L-50283 3640 L-50141 3601 L-50119 3601 L-49548 3601 L-49163 3522 L-48329 3483 L-47980 3443 L-47959 3404 L-47571 3404 L-47148 3364 L-46550 3325 L-46531 3286 L-46025 3286 L-45793 3246 L-45679 3246 L-45060 3168 L-44499 3128 L-44459 3089 L-43900 3050 L-43567 3010 L-43454 3010 L-43415 2971 L-42990 2971 L-42931 2971 L-42855 2931 L-42564 2931 L-42351 2892 L-41868 2813 L-41653 2774 L-40514 2735 L-40455 2695 L-40437 2656 L-40031 2616 L-39392 2577 L-39257 2538 L-39198 2498 L-38657 2459 L-38347 2420 L-38096 2420 L-38020 2380 L-37901 2341 L-37168 2262 L-36722 2223 L-36508 2183 L-35775 2144 L-35600 2105 L-35235 2105 L-35020 2105 L-33782 2105 L-33472 2105 L-33355 2105 L-33103 2065 L-32892 2026 L-32350 1987 L-32118 1947 L-32060 1947 L-31963 1908 L-31634 1908 L-31401 1868 L-29739 1829 L-29388 1790 L-28984 1711 L-28829 1672 L-28037 1632 L-26546 1593 L-26159 1553 L-26121 1514 L-25867 1475 L-25772 1435 L-25579 1396 L-25231 1396 L-24535 1357 L-24283 1357 L-23568 1317 L-22155 1278 L-21923 1238 L-21594 1238 L-20377 1238 L-20026 1278 L-19834 1317 L-19716 1357 L-17281 1357 L-16311 1317 L-15481 1278 L-15171 1238 L-13829 1199 L-13256 1160 L-13140 1120 L-12811 1120 L-12715 1081 L-12308 1081 L-12192 1042 L-12001 1002 L-11245 963 L-11119 924 L-10838 884 L-10335 845 L-10258 805 L-8671 1002 L-8614 1199 L-7872 1435 L-7491 1632 L-7163 1593 L-6500 1553 L-6369 1514 L-6330 1514 L-6079 1514 L-5943 1514 L-5751 1475 L-5615 1475 L-5364 1396 L-5151 1396 L-4841 1357 L-4569 1357 L-4067 1357 L-4048 1357 L-3615 1317 L-3389 1278 L-2945 1238 L-2926 1199 L-2423 1160 L-2285 1120 L-2171 1081 L-1939 1042 L-1629 1002 L-1165 963 L-1088 924 L-585 884 L-314 845 L22 805 L208 766 L884 727 L903 727 L1078 687 L1098 648 L1715 609 L2431 569 L2993 530 L3188 530 L3342 490 L3360 490 L3884 412 L3998 372 L4870 333 L4891 294 L4947 254 L5779 215 L6089 175 L6165 136 L6437 97 L6500 97" />
</svg>
