<svg xmlns="http://www.w3.org/2000/svg" version="1.1" viewBox="0 0 6500 1000">
	<path fill="none" stroke="gold" stroke-width="125" stroke-linecap="round" stroke-linejoin="round" d="M0 298987  L-1336230 298987 L-1336045 298986 L-1335555 298983 L-1335262 298982 L-1334950 298979 L-1334716 298978 L-1334663 298975 L-1334603 298973 L-1334450 298971 L-1334410 298968 L-1334277 298967 L-1333985 298966 L-1333444 298966 L-1332834 298964 L-1332786 298964 L-1332146 298963 L-1332112 298963 L-1331587 298963 L-1331454 298962 L-1331064 298959 L-1330736 298956 L-1330619 298954 L-1330407 298951 L-1329690 298951 L-1329120 298950 L-1329013 298950 L-1328839 298948 L-1328617 298946 L-1328216 298944 L-1328190 298941 L-1327262 298939 L-1327175 298936 L-1327092 298933 L-1327022 298931 L-1326725 298929 L-1326573 298927 L-1324683 298928 L-1324582 298928 L-1324320 298928 L-1324026 298929 L-1323885 298927 L-1323636 298927 L-1323600 298925 L-1323442 298924 L-1322978 298921 L-1322725 298920 L-1322513 298917 L-1322262 298916 L-1321913 298914 L-1320986 298912 L-1320892 298909 L-1320481 298908 L-1319310 298905 L-1318121 298904 L-1318029 298901 L-1318002 298898 L-1317736 298896 L-1317437 298893 L-1317308 298890 L-1317270 298887 L-1316456 298887 L-1316072 298889 L-1315011 298890 L-1314950 298890 L-1314685 298917 L-1314214 298943 L-1314021 298968 L-1313758 298994 L-1313421 298993 L-1313285 298991 L-1312830 298990 L-1312086 298989 L-1312069 298987 L-1311904 298985 L-1311835 298985 L-1311319 298983 L-1310291 298983 L-1310094 298982 L-1309606 298981 L-1309244 298979 L-1308835 298979 L-1308450 298981 L-1306746 298981 L-1306648 298981 L-1306576 298981 L-1306515 298981 L-1306331 298979 L-1305994 298979 L-1305354 298978 L-1305277 298977 L-1305215 298977 L-1305029 298975 L-1304949 298975 L-1304772 298974 L-1304753 298973 L-1304523 298973 L-1304135 298971 L-1303246 298971 L-1303207 298970 L-1303119 298968 L-1303091 298966 L-1302083 298964 L-1301934 298962 L-1301909 298960 L-1301776 298959 L-1301737 298958 L-1300478 298956 L-1300421 298956 L-1299881 298955 L-1299828 298955 L-1299782 298955 L-1299386 298954 L-1299247 298952 L-1299047 298951 L-1298900 298951 L-1298736 298951 L-1298459 298952 L-1298100 298952 L-1297548 298951 L-1296903 298950 L-1296644 298947 L-1296491 298946 L-1296090 298944 L-1296049 298943 L-1295929 298941 L-1295867 298943 L-1295853 298943 L-1295759 298943 L-1295466 298941 L-1295315 298936 L-1294984 298933 L-1294907 298931 L-1294831 298929 L-1294604 298925 L-1294538 298923 L-1294310 298920 L-1294257 298917 L-1294093 298916 L-1293087 298914 L-1292904 298913 L-1292353 298912 L-1291960 298909 L-1291562 298908 L-1290712 298905 L-1290634 298904 L-1290055 298902 L-1289613 298902 L-1289372 298901 L-1289215 298901 L-1288814 298898 L-1288794 298898 L-1288349 298897 L-1287944 298896 L-1287808 298893 L-1287632 298890 L-1287496 298887 L-1287246 298885 L-1286246 298883 L-1286164 298882 L-1286028 298881 L-1285990 298879 L-1285100 298878 L-1284884 298877 L-1284441 298875 L-1284323 298874 L-1284267 298873 L-1283590 298873 L-1283490 298871 L-1283461 298871 L-1282120 298870 L-1281714 298869 L-1281674 298867 L-1280746 298866 L-1280648 298864 L-1280515 298863 L-1280111 298862 L-1280084 298860 L-1279991 298859 L-1279775 298858 L-1279364 298855 L-1278210 298852 L-1277919 298850 L-1277890 298847 L-1277282 298846 L-1277032 298843 L-1277012 298842 L-1276083 298840 L-1276032 298837 L-1275909 298836 L-1275892 298833 L-1275736 298832 L-1275560 298829 L-1275424 298828 L-1275367 298827 L-1275259 298825 L-1275174 298824 L-1274941 298823 L-1274866 298821 L-1274557 298820 L-1274440 298819 L-1274270 298817 L-1274179 298816 L-1274076 298816 L-1274053 298815 L-1273976 298815 L-1273878 298812 L-1273511 298810 L-1273406 298809 L-1272903 298808 L-1272451 298806 L-1272413 298805 L-1272389 298804 L-1272348 298802 L-1272219 298801 L-1272118 298800 L-1271677 298798 L-1271395 298797 L-1270802 298796 L-1270672 298794 L-1270398 298792 L-1270245 298790 L-1270092 298789 L-1270007 298786 L-1269929 298785 L-1269743 298783 L-1269692 298783 L-1269665 298782 L-1269585 298781 L-1269562 298779 L-1269279 298777 L-1268675 298774 L-1267679 298773 L-1267381 298771 L-1266648 298770 L-1266403 298769 L-1266313 298767 L-1265736 298766 L-1265038 298765 L-1264285 298763 L-1263967 298762 L-1263584 298759 L-1263507 298758 L-1262872 298756 L-1262687 298755 L-1262599 298755 L-1262470 298755 L-1262157 298754 L-1262107 298752 L-1261965 298751 L-1261944 298750 L-1260976 298748 L-1260431 298747 L-1259952 298747 L-1259891 298747 L-1259568 298747 L-1259546 298746 L-1259484 298746 L-1259274 298744 L-1259197 298743 L-1259142 298742 L-1259120 298740 L-1259080 298739 L-1259065 298738 L-1258307 298736 L-1258291 298735 L-1257492 298733 L-1257339 298732 L-1256434 298731 L-1255928 298729 L-1255698 298727 L-1255657 298727 L-1255542 298725 L-1255365 298724 L-1254611 298725 L-1254476 298724 L-1254312 298723 L-1253994 298721 L-1253818 298719 L-1252796 298716 L-1252773 298713 L-1252521 298712 L-1252308 298709 L-1251674 298708 L-1251436 298705 L-1251404 298702 L-1251226 298700 L-1251146 298697 L-1251056 298696 L-1250991 298693 L-1250551 298690 L-1250528 298689 L-1249987 298688 L-1249731 298686 L-1249236 298685 L-1248359 298684 L-1248322 298682 L-1248269 298681 L-1248228 298679 L-1248111 298678 L-1247835 298677 L-1247627 298674 L-1247430 298671 L-1247407 298669 L-1247357 298666 L-1247317 298665 L-1247240 298663 L-1246642 298661 L-1246582 298659 L-1246479 298658 L-1246324 298656 L-1245692 298655 L-1245012 298654 L-1244709 298651 L-1244362 298650 L-1244165 298648 L-1244116 298646 L-1243796 298644 L-1243168 298643 L-1243022 298642 L-1242985 298640 L-1242927 298639 L-1242851 298636 L-1242609 298636 L-1242521 298635 L-1242427 298634 L-1242133 298632 L-1241999 298631 L-1241939 298629 L-1241902 298627 L-1241630 298627 L-1240624 298625 L-1240448 298624 L-1240398 298624 L-1240105 298623 L-1239912 298620 L-1239579 298619 L-1239073 298617 L-1238511 298615 L-1238496 298612 L-1238479 298611 L-1238379 298608 L-1238264 298605 L-1238225 298602 L-1238187 298601 L-1238122 298601 L-1238094 298600 L-1237955 298601 L-1237662 298601 L-1237612 298601 L-1237507 298601 L-1237242 298600 L-1236777 298598 L-1236633 298598 L-1236578 298596 L-1236521 298594 L-1236330 298593 L-1235965 298592 L-1235750 298592 L-1235556 298592 L-1235498 298592 L-1235439 298589 L-1235285 298588 L-1235015 298586 L-1234586 298593 L-1234570 298593 L-1234493 298592 L-1234429 298590 L-1234299 298581 L-1234276 298580 L-1233992 298578 L-1233944 298577 L-1233889 298575 L-1233427 298574 L-1233388 298574 L-1233348 298573 L-1233157 298571 L-1232677 298570 L-1232190 298569 L-1232173 298567 L-1232135 298566 L-1231879 298565 L-1231802 298562 L-1231572 298561 L-1231556 298558 L-1231261 298555 L-1230819 298554 L-1230372 298552 L-1229867 298551 L-1229714 298550 L-1229427 298548 L-1229387 298546 L-1229056 298544 L-1228834 298543 L-1228317 298540 L-1228241 298539 L-1227993 298536 L-1227799 298534 L-1227739 298532 L-1226962 298531 L-1226888 298531 L-1226658 298530 L-1226641 298530 L-1226579 298528 L-1226384 298527 L-1225920 298527 L-1225896 298525 L-1225767 298525 L-1224466 298525 L-1224449 298525 L-1224372 298524 L-1224278 298524 L-1224061 298524 L-1223909 298523 L-1223731 298524 L-1223677 298525 L-1223390 298527 L-1223350 298527 L-1222980 298527 L-1222540 298527 L-1222357 298527 L-1222036 298525 L-1221741 298525 L-1221295 298523 L-1221223 298521 L-1220761 298519 L-1220323 298517 L-1220141 298516 L-1218687 298513 L-1218555 298512 L-1218098 298509 L-1217872 298508 L-1217485 298505 L-1216969 298503 L-1216015 298500 L-1215221 298497 L-1214546 298496 L-1214120 298493 L-1213809 298492 L-1213579 298488 L-1212896 298484 L-1212883 298480 L-1212673 298474 L-1212651 298473 L-1212477 298470 L-1211527 298469 L-1211259 298466 L-1210443 298465 L-1210133 298462 L-1210095 298461 L-1210038 298458 L-1209421 298457 L-1208783 298454 L-1207157 298453 L-1206483 298451 L-1205841 298451 L-1205764 298451 L-1205707 298451 L-1205672 298451 L-1205643 298450 L-1205531 298447 L-1205514 298446 L-1205491 298444 L-1205337 298443 L-1205284 298440 L-1205206 298439 L-1205087 298438 L-1204989 298436 L-1204872 298435 L-1204602 298432 L-1204332 298431 L-1204315 298428 L-1204115 298427 L-1203968 298424 L-1203741 298423 L-1203607 298421 L-1203299 298420 L-1203239 298419 L-1202886 298416 L-1202537 298415 L-1202436 298413 L-1202372 298411 L-1202312 298409 L-1201927 298407 L-1201546 298405 L-1201442 298404 L-1201182 298403 L-1200911 298400 L-1200752 298399 L-1200719 298397 L-1200657 298396 L-1200516 298394 L-1200332 298393 L-1200288 298392 L-1199999 298392 L-1199983 298390 L-1199750 298390 L-1199689 298389 L-1199651 298389 L-1199071 298388 L-1198937 298386 L-1198914 298381 L-1198896 298372 L-1198878 298361 L-1198862 298350 L-1198838 298339 L-1198822 298331 L-1198800 298322 L-1198784 298312 L-1198761 298307 L-1198744 298301 L-1198722 298297 L-1198705 298295 L-1198656 298290 L-1198584 298286 L-1198550 298280 L-1198526 298274 L-1198490 298269 L-1198449 298263 L-1198412 298261 L-1198396 298255 L-1198372 298251 L-1198335 298249 L-1198318 298245 L-1198295 298242 L-1198277 298239 L-1198258 298236 L-1198242 298234 L-1198213 298230 L-1198187 298226 L-1198142 298224 L-1198125 298222 L-1198083 298220 L-1198035 298218 L-1197965 298215 L-1197949 298212 L-1197933 298209 L-1197871 298208 L-1197832 298207 L-1197793 298205 L-1197627 298204 L-1197562 298203 L-1197546 298201 L-1197501 298199 L-1197443 298197 L-1197230 298196 L-1197197 298195 L-1197155 298193 L-1197077 298192 L-1196539 298191 L-1196461 298189 L-1196357 298186 L-1196268 298185 L-1196092 298184 L-1195741 298182 L-1195585 298181 L-1195148 298180 L-1194991 298178 L-1194861 298177 L-1194157 298174 L-1193956 298173 L-1192996 298170 L-1192513 298169 L-1192414 298169 L-1192322 298168 L-1192077 298166 L-1192004 298165 L-1191561 298162 L-1191465 298161 L-1191450 298159 L-1191433 298158 L-1191409 298157 L-1190943 298155 L-1190726 298154 L-1190586 298153 L-1190292 298151 L-1190204 298150 L-1190162 298149 L-1190133 298147 L-1189960 298146 L-1189901 298145 L-1189825 298143 L-1189744 298142 L-1189675 298142 L-1189365 298141 L-1189280 298139 L-1189066 298138 L-1189031 298137 L-1188348 298135 L-1188249 298134 L-1188044 298132 L-1187998 298131 L-1187719 298130 L-1187657 298128 L-1187640 298126 L-1187562 298124 L-1187254 298122 L-1187229 298120 L-1187176 298118 L-1187153 298116 L-1187030 298115 L-1186895 298112 L-1186650 298111 L-1186525 298111 L-1185878 298110 L-1185862 298110 L-1185837 298110 L-1185657 298107 L-1185581 298105 L-1185489 298104 L-1185061 298103 L-1184645 298101 L-1184252 298099 L-1184174 298097 L-1184155 298096 L-1183791 298095 L-1183555 298093 L-1183327 298092 L-1183014 298091 L-1182936 298089 L-1182855 298087 L-1182677 298084 L-1182661 298082 L-1182396 298080 L-1182316 298078 L-1182086 298077 L-1181860 298076 L-1181544 298076 L-1181369 298074 L-1181008 298074 L-1180616 298073 L-1180547 298070 L-1180483 298069 L-1180342 298066 L-1180291 298065 L-1180189 298062 L-1179687 298061 L-1179490 298060 L-1179243 298058 L-1179058 298057 L-1178758 298055 L-1178682 298054 L-1178516 298051 L-1177632 298050 L-1177603 298047 L-1177480 298045 L-1176901 298043 L-1176823 298042 L-1176110 298042 L-1175798 298042 L-1175585 298042 L-1175568 298042 L-1175182 298042 L-1174657 298039 L-1174210 298038 L-1173881 298037 L-1173728 298035 L-1173402 298035 L-1173224 298034 L-1173142 298034 L-1172936 298031 L-1172761 298030 L-1171832 298028 L-1170942 298027 L-1170903 298026 L-1170675 298026 L-1170296 298024 L-1169509 298023 L-1169274 298022 L-1169198 298020 L-1168841 298019 L-1168269 298016 L-1168002 298015 L-1167616 298014 L-1167512 298014 L-1167342 298014 L-1166724 298014 L-1166512 298014 L-1166204 298014 L-1166151 298012 L-1166024 298011 L-1165971 298010 L-1165851 298008 L-1165515 298006 L-1164556 298004 L-1164425 298001 L-1164223 298000 L-1163592 297999 L-1163280 297997 L-1162867 297996 L-1162839 297995 L-1162694 297993 L-1162274 297992 L-1160941 297992 L-1160894 297991 L-1160766 297988 L-1160749 297987 L-1160171 297984 L-1159965 297983 L-1159936 297981 L-1159895 297980 L-1159837 297978 L-1159800 297977 L-1159721 297976 L-1159579 297974 L-1159124 297973 L-1159006 297972 L-1158721 297970 L-1158348 297969 L-1158252 297968 L-1157925 297966 L-1157571 297965 L-1157401 297964 L-1157353 297962 L-1157244 297961 L-1157155 297960 L-1157127 297958 L-1157051 297956 L-1156748 297954 L-1156714 297951 L-1156642 297950 L-1156274 297949 L-1155939 297947 L-1155858 297947 L-1155638 297946 L-1155467 297945 L-1155439 297943 L-1154942 297942 L-1154393 297939 L-1153512 297938 L-1153414 297935 L-1153337 297934 L-1153062 297933 L-1152815 297930 L-1152741 297929 L-1152679 297926 L-1152561 297924 L-1152518 297923 L-1152408 297922 L-1152331 297919 L-1151631 297918 L-1151385 297916 L-1151345 297915 L-1151189 297914 L-1150590 297914 L-1150363 297914 L-1150271 297914 L-1149796 297914 L-1149198 297911 L-1148679 297910 L-1148658 297908 L-1148512 297907 L-1148192 297907 L-1147650 297907 L-1147418 297907 L-1147248 297907 L-1146761 297906 L-1146534 297904 L-1146449 297903 L-1146103 297902 L-1145777 297902 L-1145254 297900 L-1144926 297899 L-1144326 297897 L-1144128 297895 L-1144076 297893 L-1144036 297892 L-1143755 297891 L-1143070 297888 L-1142760 297887 L-1142735 297884 L-1142544 297883 L-1142321 297881 L-1142235 297880 L-1141571 297877 L-1141547 297876 L-1141325 297873 L-1140995 297872 L-1140643 297869 L-1140439 297868 L-1140206 297865 L-1139948 297864 L-1139758 297861 L-1139711 297860 L-1139484 297858 L-1139449 297857 L-1139293 297856 L-1139079 297854 L-1138906 297853 L-1138814 297852 L-1138537 297850 L-1138293 297849 L-1137978 297847 L-1137552 297847 L-1137514 297847 L-1137031 297847 L-1136798 297847 L-1136586 297846 L-1136360 297845 L-1135810 297845 L-1135563 297843 L-1134729 297843 L-1134673 297842 L-1134651 297841 L-1134493 297839 L-1134032 297838 L-1133991 297837 L-1133651 297834 L-1133518 297833 L-1133295 297831 L-1132723 297830 L-1132251 297829 L-1132056 297827 L-1131864 297826 L-1131674 297825 L-1131572 297823 L-1131204 297822 L-1131158 297820 L-1131076 297819 L-1129783 297818 L-1129735 297816 L-1129466 297816 L-1129321 297816 L-1128770 297816 L-1128653 297815 L-1128572 297814 L-1128212 297812 L-1127989 297811 L-1127707 297810 L-1127378 297807 L-1126870 297806 L-1126758 297804 L-1126679 297803 L-1126515 297802 L-1126220 297802 L-1125752 297802 L-1125555 297803 L-1125505 297803 L-1124855 297802 L-1124733 297800 L-1124279 297800 L-1124243 297799 L-1123775 297798 L-1123664 297796 L-1123648 297795 L-1123432 297795 L-1123251 297793 L-1122719 297793 L-1121690 297793 L-1121490 297792 L-1121032 297791 L-1120084 297788 L-1119985 297787 L-1119631 297784 L-1119570 297783 L-1119556 297781 L-1119520 297780 L-1119151 297779 L-1119031 297777 L-1118789 297776 L-1118625 297775 L-1118438 297773 L-1118317 297772 L-1117246 297769 L-1116388 297768 L-1116176 297765 L-1116079 297764 L-1115905 297761 L-1115571 297760 L-1115500 297758 L-1115442 297757 L-1115266 297757 L-1114878 297756 L-1114642 297754 L-1114531 297753 L-1114414 297752 L-1113433 297750 L-1113408 297749 L-1112813 297746 L-1112781 297746 L-1112632 297745 L-1112348 297743 L-1111436 297743 L-1110490 297743 L-1110337 297742 L-1110235 297742 L-1110103 297741 L-1109960 297739 L-1109934 297738 L-1109819 297737 L-1109601 297735 L-1108919 297734 L-1108790 297733 L-1108487 297731 L-1108247 297729 L-1107914 297727 L-1107276 297726 L-1106933 297723 L-1106871 297722 L-1106716 297722 L-1105794 297722 L-1105324 297722 L-1105280 297722 L-1105267 297721 L-1105226 297719 L-1105204 297718 L-1105177 297716 L-1105033 297715 L-1104611 297714 L-1104275 297714 L-1104084 297712 L-1103656 297712 L-1103468 297711 L-1103079 297708 L-1102545 297707 L-1102172 297706 L-1102150 297706 L-1101901 297704 L-1101782 297703 L-1101706 297702 L-1101571 297700 L-1101531 297699 L-1101451 297698 L-1101057 297696 L-1100561 297695 L-1100449 297692 L-1100276 297691 L-1099968 297689 L-1099520 297688 L-1099197 297687 L-1099055 297684 L-1098628 297681 L-1098475 297679 L-1098419 297676 L-1097605 297675 L-1097586 297673 L-1097214 297672 L-1097157 297672 L-1096028 297671 L-1095960 297671 L-1095402 297669 L-1095207 297668 L-1095071 297667 L-1094837 297665 L-1094490 297664 L-1094456 297661 L-1094421 297660 L-1094352 297657 L-1094003 297656 L-1093831 297654 L-1093346 297653 L-1093330 297652 L-1093005 297650 L-1092847 297649 L-1091707 297646 L-1091682 297645 L-1091490 297642 L-1091296 297641 L-1091046 297640 L-1091029 297638 L-1090009 297637 L-1089711 297635 L-1089636 297634 L-1089500 297631 L-1089324 297630 L-1088747 297627 L-1088532 297626 L-1088468 297625 L-1088337 297623 L-1088300 297621 L-1087777 297619 L-1087639 298151 L-1087625 298151 L-1087602 298151 L-1087581 298151 L-1087354 297618 L-1086578 297618 L-1086537 297618 L-1086169 297618 L-1086091 297617 L-1086039 297615 L-1085366 297614 L-1084623 297612 L-1084199 297612 L-1083751 297611 L-1082689 297610 L-1082377 297607 L-1081967 297607 L-1081895 297606 L-1081371 297606 L-1081276 297606 L-1081259 297606 L-1080814 297604 L-1080628 297602 L-1079848 297599 L-1079176 297598 L-1078764 297594 L-1078532 297591 L-1078391 297590 L-1078310 297587 L-1078290 297585 L-1078213 297585 L-1078085 297584 L-1077768 297585 L-1077544 297585 L-1077219 297584 L-1077157 297584 L-1076787 297584 L-1076754 297584 L-1076545 297584 L-1075878 297584 L-1075800 297584 L-1075642 297581 L-1075531 297581 L-1075205 297580 L-1075050 297579 L-1074709 297579 L-1074652 297576 L-1074314 297573 L-1074110 297572 L-1074057 297569 L-1072681 297568 L-1072551 297567 L-1072118 297565 L-1071797 297564 L-1070970 297561 L-1070846 297560 L-1070116 297557 L-1069960 297554 L-1069919 297553 L-1069865 297552 L-1069842 297550 L-1069728 297549 L-1069432 297548 L-1069142 297546 L-1069087 297545 L-1068967 297544 L-1068936 297542 L-1068837 297541 L-1068393 297541 L-1068241 297540 L-1067406 297540 L-1066864 297538 L-1066529 297538 L-1066514 297537 L-1066438 297536 L-1066322 297534 L-1066127 297533 L-1065863 297531 L-1065028 297530 L-1064932 297529 L-1064411 297527 L-1064369 297526 L-1064269 297525 L-1063441 297525 L-1063306 297523 L-1062967 297523 L-1062413 297522 L-1062034 297521 L-1061871 297519 L-1061561 297518 L-1060748 297517 L-1060442 297515 L-1060174 297515 L-1059852 297515 L-1059531 297517 L-1059256 297517 L-1058427 297514 L-1058332 297513 L-1058240 297508 L-1058135 297504 L-1057748 297500 L-1057268 297498 L-1057252 297496 L-1057133 297495 L-1056765 297492 L-1056670 297491 L-1055836 297488 L-1055759 297487 L-1055460 297486 L-1055369 297484 L-1054962 297481 L-1054852 297479 L-1054152 297477 L-1053679 297476 L-1053619 297475 L-1053400 297472 L-1053127 297471 L-1053014 297469 L-1051986 297468 L-1051600 297467 L-1051580 297465 L-1051247 297464 L-1051002 297463 L-1050569 297461 L-1050459 297460 L-1050341 297459 L-1049890 297456 L-1049299 297454 L-1048963 297453 L-1047070 297452 L-1046956 297449 L-1046744 297448 L-1045426 297446 L-1045319 297142 L-1045254 296843 L-1045217 296566 L-1045156 296566 L-1044656 296867 L-1043981 297164 L-1043959 297438 L-1043689 297436 L-1042720 297436 L-1042031 297434 L-1041869 297433 L-1041328 297432 L-1041239 297430 L-1040219 297429 L-1039272 297426 L-1038906 297427 L-1038803 297429 L-1038215 297429 L-1038156 297429 L-1038055 297427 L-1037615 297425 L-1037507 297423 L-1037066 297422 L-1036066 297418 L-1035809 297414 L-1035707 297410 L-1035576 297407 L-1035210 297404 L-1034629 297402 L-1034598 297400 L-1034282 297399 L-1032300 297398 L-1032184 297396 L-1032116 297396 L-1031757 297395 L-1030139 297394 L-1029961 297394 L-1029817 297394 L-1028995 297395 L-1028942 297396 L-1028887 297396 L-1028453 297396 L-1027473 297398 L-1027399 297398 L-1026314 297396 L-1026101 297396 L-1025385 297394 L-1024996 297392 L-1024778 297390 L-1024458 297387 L-1023964 297384 L-1023837 297383 L-1023608 297380 L-1023375 297377 L-1023316 297376 L-1023027 297375 L-1022755 297372 L-1021725 297371 L-1020060 297369 L-1019640 297368 L-1019503 297367 L-1019347 297367 L-1019042 297365 L-1018814 297363 L-1018655 297361 L-1018496 297359 L-1018327 297356 L-1018279 297355 L-1018226 297353 L-1018204 297353 L-1017818 297352 L-1017569 297352 L-1017298 297352 L-1017137 297352 L-1017048 297352 L-1015389 297352 L-1015224 297353 L-1014844 297352 L-1014384 297352 L-1013774 297349 L-1012681 297348 L-1012250 297346 L-1012219 297345 L-1012156 297344 L-1012139 297342 L-1010435 297341 L-1010393 297340 L-1009927 297338 L-1009740 297337 L-1009708 297334 L-1009112 297333 L-1009063 297332 L-1008740 297330 L-1008689 297329 L-1008479 297328 L-1008461 297326 L-1008195 297323 L-1008142 297322 L-1007673 297321 L-1007162 297318 L-1007084 297318 L-1006790 297317 L-1006773 297315 L-1006735 297314 L-1006663 297313 L-1006506 297311 L-1005560 297311 L-1005504 297311 L-1004983 297311 L-1004790 297310 L-1004689 297310 L-1004464 297309 L-1003954 297309 L-1003566 297345 L-1003496 297345 L-1003148 297344 L-1002791 297342 L-1001662 297303 L-1001610 297301 L-1001384 297299 L-1001351 297298 L-1001226 297295 L-1001127 297295 L-1000862 297295 L-1000122 297296 L-999543 297296 L-999250 297296 L-998544 297296 L-998365 297295 L-998342 297295 L-997706 297294 L-997395 297292 L-996998 297292 L-996969 297291 L-996948 297290 L-996794 297288 L-996109 297288 L-996092 297288 L-995753 297288 L-995480 297287 L-995443 297286 L-995387 297283 L-995365 297282 L-995293 297280 L-994961 297279 L-994855 297278 L-994826 297275 L-994628 297273 L-994475 297272 L-993607 297271 L-993044 297268 L-993028 297268 L-992927 297267 L-992825 297268 L-992678 297268 L-992600 297268 L-992562 297267 L-992507 297265 L-992433 297264 L-992289 297263 L-991807 297263 L-991402 297261 L-990536 297263 L-990516 297263 L-990258 297263 L-990182 297263 L-990153 297261 L-990142 297259 L-990125 297257 L-989832 297256 L-989793 297255 L-989721 297253 L-989647 297252 L-989442 297251 L-989282 297246 L-988981 297242 L-988903 297237 L-988886 297233 L-988670 297230 L-988439 297230 L-988329 297232 L-987959 297233 L-987801 297233 L-987569 297233 L-987401 297233 L-987256 297232 L-987124 297230 L-985848 297228 L-985444 297225 L-985384 297224 L-985267 297221 L-984842 297219 L-984826 297217 L-984764 297215 L-984491 297213 L-984379 297211 L-984096 297209 L-983819 297207 L-983394 297205 L-983372 297203 L-983293 297202 L-983168 297201 L-982581 297199 L-982190 297198 L-981855 297197 L-981265 297195 L-981163 297195 L-980993 297194 L-980857 297194 L-980029 297192 L-978843 297191 L-978807 297190 L-978752 297190 L-978531 297188 L-978326 297188 L-978172 297188 L-977915 297187 L-977839 297186 L-977296 297184 L-977259 297183 L-977011 297182 L-976623 297180 L-975798 297179 L-975439 297178 L-975129 297178 L-974871 297176 L-974647 297175 L-974241 297174 L-974124 297172 L-973941 297171 L-973888 297171 L-973699 297169 L-973529 297168 L-973500 297167 L-973220 297165 L-972909 297164 L-972771 297163 L-972461 297161 L-972267 297161 L-972252 297160 L-971533 297160 L-971399 297157 L-971101 297156 L-971011 297155 L-970410 297155 L-970372 297153 L-970294 297152 L-969673 297151 L-969522 297148 L-969481 297147 L-969170 297145 L-968979 297144 L-968786 297141 L-968730 297138 L-968421 297137 L-968369 297136 L-968314 297137 L-968289 297137 L-968164 297137 L-967353 297136 L-967277 297134 L-966736 297133 L-966467 297132 L-965808 297130 L-964900 297129 L-964659 297128 L-964127 297126 L-963910 297125 L-962802 297126 L-962752 297126 L-961976 297126 L-961429 297125 L-961317 297124 L-961165 297121 L-961109 297120 L-960944 297118 L-960567 297117 L-960119 297115 L-960064 297114 L-959910 297113 L-959230 297111 L-959010 297110 L-958492 297109 L-957643 297106 L-957627 297105 L-955836 297103 L-955282 297102 L-955165 297101 L-954159 297099 L-954122 297098 L-953889 297098 L-953797 297098 L-953757 297098 L-953425 297097 L-953073 297095 L-952808 297093 L-952521 297091 L-952210 297088 L-951956 297086 L-951863 297084 L-951372 297083 L-951165 297082 L-950600 297080 L-950485 297082 L-950134 297080 L-950083 297080 L-950042 297080 L-949439 297078 L-948705 297075 L-948124 297072 L-947888 297070 L-947348 297066 L-947196 297063 L-946694 297061 L-946484 297059 L-946461 297059 L-946402 297057 L-945440 297057 L-945262 297056 L-944820 297055 L-944796 297052 L-944641 297051 L-944559 297051 L-944409 297052 L-943762 297052 L-943712 297051 L-942592 297049 L-941608 297048 L-941547 297047 L-940826 297045 L-939961 297044 L-939582 297043 L-939364 297043 L-938604 297041 L-938552 297040 L-938243 297037 L-937392 297037 L-937198 297036 L-937022 297034 L-936797 297034 L-936671 297033 L-936479 297033 L-936246 297032 L-936077 297033 L-935790 297032 L-935511 297032 L-935428 297030 L-935257 297029 L-935241 297026 L-935087 297025 L-935047 297024 L-934272 297022 L-934195 297022 L-933963 297020 L-933536 297018 L-933191 297017 L-932608 297016 L-932339 297016 L-932080 297016 L-931951 297013 L-931934 297011 L-931820 297010 L-931797 297009 L-931563 297007 L-931527 297006 L-930211 297006 L-930155 297005 L-929476 297002 L-928903 297002 L-928778 297002 L-928625 297002 L-928548 297002 L-928236 296999 L-927963 296998 L-927874 296995 L-927772 296995 L-926844 296994 L-926768 296994 L-926404 296994 L-926379 296993 L-926343 296991 L-925567 296989 L-925475 296987 L-925335 296986 L-924934 296984 L-924672 296984 L-924429 296986 L-924214 296984 L-924134 296984 L-924058 296984 L-923981 296984 L-923794 296986 L-923728 296986 L-923478 296986 L-923423 296984 L-923286 296983 L-923206 296980 L-923093 296979 L-922870 296978 L-922705 296976 L-922664 296975 L-922495 296974 L-922124 296972 L-922109 296971 L-921993 296970 L-921272 296968 L-921236 296967 L-921103 296967 L-920755 296966 L-920344 296966 L-920308 296966 L-920230 296964 L-920191 296963 L-919827 296962 L-919622 296960 L-919607 296959 L-919262 296957 L-918914 296957 L-918588 296957 L-918486 296956 L-918333 296956 L-918139 296955 L-917907 296955 L-917815 296955 L-917659 296955 L-917582 296955 L-917541 296953 L-917428 296952 L-917404 296951 L-917154 296951 L-917015 296948 L-916437 296944 L-915609 296941 L-915121 296939 L-915000 296937 L-914961 296936 L-914948 296934 L-914796 296932 L-914695 296929 L-914462 296928 L-914072 296925 L-913768 296924 L-913752 296922 L-913581 296921 L-913343 296918 L-912746 296918 L-912143 296917 L-912103 296917 L-912062 296917 L-911909 296916 L-911856 296914 L-911794 296913 L-911725 296912 L-911671 296909 L-911646 296907 L-911599 296906 L-911504 296903 L-911367 296902 L-911214 296901 L-911082 296899 L-911041 296899 L-911005 296898 L-910943 296897 L-910670 296894 L-910356 296893 L-910315 296890 L-910230 296889 L-910052 296887 L-909815 296886 L-909457 296885 L-909427 296883 L-908858 296882 L-908735 296880 L-908499 296879 L-908477 296879 L-908195 296878 L-907910 296878 L-907654 296878 L-907082 296876 L-906786 296875 L-906710 296874 L-906011 296872 L-905933 296871 L-905898 296870 L-905872 296868 L-905820 296866 L-905626 296864 L-905486 296862 L-905450 296860 L-905410 296859 L-904814 296858 L-904582 296856 L-904299 296866 L-904244 296874 L-904170 296883 L-904092 296891 L-903856 296889 L-903612 296887 L-903477 296886 L-903370 296885 L-903290 296883 L-902903 296880 L-902776 296879 L-902624 296878 L-902586 296876 L-902440 296875 L-902219 296874 L-902045 296872 L-901976 296871 L-901154 296868 L-901138 296868 L-900843 296867 L-900056 296866 L-899746 296866 L-899600 296864 L-899372 296863 L-899171 296860 L-898234 296859 L-898197 296858 L-898174 296856 L-898134 296853 L-897865 296852 L-897268 296851 L-897205 296849 L-897169 296848 L-897152 296847 L-896457 296847 L-896256 296847 L-896224 296847 L-895891 296847 L-895783 296845 L-895158 296843 L-894654 296841 L-894617 296839 L-894175 296839 L-894078 296837 L-893920 296837 L-893606 296837 L-893594 296837 L-893154 296839 L-892672 296840 L-892543 296840 L-892223 296840 L-892155 296839 L-891850 296839 L-891675 296837 L-891481 296836 L-891238 296833 L-891040 296831 L-891015 296828 L-890437 296826 L-890367 296825 L-889957 296824 L-889903 296822 L-889857 296821 L-889493 296820 L-889346 296818 L-889141 296817 L-889045 296817 L-888890 296816 L-888828 296814 L-888680 296812 L-888580 296810 L-888023 296810 L-888001 296813 L-887829 296814 L-887287 296816 L-887226 296816 L-887172 296813 L-887143 296810 L-887072 296809 L-887056 296806 L-886992 296805 L-886956 296802 L-886801 296801 L-886475 296799 L-885909 296798 L-885895 296797 L-885833 296794 L-885731 296791 L-885685 296791 L-885443 296790 L-885020 296790 L-884866 296790 L-883124 296787 L-882582 296786 L-881639 296785 L-881230 296783 L-880688 296781 L-880492 296779 L-880323 296778 L-880028 296776 L-879913 296775 L-879898 296775 L-879743 296774 L-879603 296772 L-879527 296770 L-879395 296770 L-879047 296770 L-878676 296771 L-878078 296771 L-877902 296771 L-877746 296770 L-877477 296768 L-877326 296768 L-877035 296772 L-877011 296775 L-876928 296778 L-876700 296781 L-876001 296779 L-875874 296778 L-875443 296776 L-875349 296775 L-874144 296775 L-874095 296774 L-873801 296774 L-873398 296772 L-873122 296770 L-873103 296768 L-872985 296767 L-872909 296766 L-872727 296764 L-872247 296763 L-871796 296760 L-871386 296759 L-871355 296758 L-870937 296756 L-870823 296756 L-870705 296756 L-870690 296756 L-870495 296755 L-870474 296752 L-870242 296751 L-869798 296749 L-869479 296747 L-869014 296747 L-868849 296745 L-868694 296744 L-868538 296744 L-868085 296744 L-867766 296744 L-867711 296745 L-867340 296745 L-867302 296747 L-866975 296747 L-866859 296745 L-866760 296744 L-866434 296741 L-866047 296740 L-865786 296739 L-865428 296736 L-865171 296735 L-863001 296733 L-862952 296732 L-862929 296731 L-862518 296731 L-862456 296731 L-862386 296732 L-862155 296732 L-861844 296731 L-861541 296728 L-861497 296727 L-861189 296725 L-861056 296724 L-860839 296722 L-860127 296721 L-859972 296721 L-859834 296720 L-859685 296720 L-859664 296720 L-859470 296718 L-859444 296717 L-859353 296716 L-859331 296714 L-859315 296713 L-859215 296712 L-858286 296710 L-857828 296710 L-856736 296708 L-856314 296708 L-855910 296706 L-855871 296705 L-855618 296704 L-854843 296701 L-854827 296699 L-854802 296698 L-854609 296697 L-853873 296695 L-853604 296694 L-853563 296693 L-853164 296690 L-853139 296689 L-852350 296687 L-851670 296686 L-850299 296685 L-850029 296683 L-849980 296682 L-849443 296679 L-849410 296678 L-849308 296675 L-848985 296674 L-848905 296672 L-848636 296672 L-847723 296671 L-847585 296671 L-847336 296668 L-846790 296668 L-846368 296667 L-846175 296666 L-846160 296666 L-846022 296663 L-845928 296662 L-845801 296660 L-845541 296659 L-845516 296656 L-845425 296655 L-845115 296654 L-845054 296652 L-844937 296652 L-844588 296652 L-843777 296652 L-843546 296650 L-842717 296650 L-842485 296647 L-842268 296645 L-841749 296645 L-841111 296644 L-840695 296643 L-840373 296641 L-839892 296640 L-839466 296640 L-839405 296639 L-839057 296639 L-839016 296637 L-839002 296636 L-838903 296633 L-838857 296633 L-838372 296632 L-837571 296632 L-837236 296632 L-836155 296631 L-835675 296629 L-835652 296628 L-835512 296627 L-834957 296625 L-834260 296624 L-833951 296623 L-833729 296621 L-833624 296620 L-833522 296617 L-832850 296616 L-832756 296614 L-832734 296614 L-832657 296613 L-832479 296613 L-832307 296613 L-832126 296612 L-832113 296610 L-832037 296609 L-831872 296608 L-831358 296606 L-831342 296605 L-831201 296605 L-830839 296604 L-830814 296604 L-830684 296602 L-830659 296601 L-830297 296600 L-829772 296597 L-829678 296595 L-829462 296593 L-829369 296591 L-829344 296590 L-828880 296589 L-828803 296589 L-828401 296587 L-827950 296587 L-826699 296586 L-826660 296585 L-826228 296583 L-826195 296582 L-825476 296581 L-825300 296579 L-825165 296578 L-824858 296577 L-824803 296575 L-824778 296573 L-824762 296570 L-824587 296568 L-824398 296567 L-823890 296567 L-823516 296556 L-823178 296544 L-823139 296533 L-822420 296524 L-822327 296523 L-822288 296521 L-821747 296521 L-821723 296520 L-821321 296519 L-820895 296517 L-820624 296517 L-820445 296516 L-820199 296513 L-820175 296512 L-820119 296509 L-819502 296508 L-818999 296506 L-818612 296506 L-817993 296508 L-817777 296508 L-817622 296509 L-816330 296506 L-816230 296505 L-815788 296502 L-815457 296501 L-815156 296498 L-814914 296497 L-814179 296494 L-813600 296493 L-812770 296492 L-812670 296490 L-812112 296489 L-811974 296487 L-810333 296486 L-810272 296486 L-810178 296486 L-809211 296486 L-809033 296485 L-808746 296485 L-808529 296485 L-808450 296483 L-808179 296483 L-808064 296482 L-807911 296481 L-807600 296479 L-807522 296478 L-807431 296478 L-807354 296477 L-807237 296477 L-807058 296475 L-806966 296474 L-806928 296473 L-806425 296473 L-806207 296471 L-806077 296471 L-805922 296470 L-805867 296469 L-805743 296469 L-805358 296467 L-804849 296466 L-804777 296464 L-804297 296463 L-804220 296462 L-804119 296462 L-803886 296460 L-803421 296460 L-803191 296460 L-803175 296460 L-802943 296460 L-802788 296460 L-802727 296460 L-802534 296459 L-802263 296456 L-801511 296455 L-800558 296455 L-800522 296454 L-800297 296454 L-799857 296454 L-799577 296451 L-799228 296450 L-798159 296448 L-797231 296448 L-797100 296448 L-797054 296448 L-796984 296447 L-796830 296447 L-796752 296444 L-796579 296442 L-796144 296439 L-795940 296437 L-795879 296435 L-795297 296433 L-795143 296431 L-795027 296429 L-794987 296428 L-794817 296427 L-794680 296425 L-794470 296423 L-794392 296421 L-794369 296420 L-794160 296417 L-793750 296416 L-793726 296415 L-793502 296413 L-793357 296412 L-793322 296410 L-793309 296409 L-793286 296408 L-793053 296406 L-792868 296405 L-792650 296404 L-792625 296402 L-791936 296401 L-791832 296400 L-791797 296398 L-791776 296397 L-791582 296396 L-791529 296394 L-791412 296392 L-791330 296392 L-791219 296390 L-790905 296389 L-790445 296388 L-790190 296386 L-789956 296383 L-789826 296382 L-789474 296381 L-789415 296379 L-789262 296378 L-788690 296375 L-788603 296374 L-788450 296371 L-788154 296369 L-787784 296366 L-787481 296363 L-787404 296362 L-787000 296360 L-786831 296360 L-786687 296360 L-786147 296360 L-786087 296360 L-786071 296358 L-785905 296356 L-785699 296355 L-785624 296355 L-785531 296354 L-785122 296352 L-785106 296351 L-785082 296351 L-784889 296350 L-784813 296362 L-784642 296374 L-784580 296385 L-784564 296397 L-784050 296396 L-783829 296394 L-783210 296392 L-782956 296390 L-782762 296389 L-782723 296388 L-782649 296388 L-782584 296388 L-781934 296388 L-781895 296389 L-781721 296389 L-781655 296389 L-780981 296389 L-780592 296386 L-780330 296385 L-780092 296383 L-780015 296381 L-779999 296378 L-779797 296377 L-779426 296374 L-779201 296373 L-778565 296371 L-778545 296371 L-778158 296370 L-778064 296370 L-778006 296369 L-777730 296367 L-777421 296367 L-777344 296366 L-776492 296367 L-776150 296374 L-775713 296382 L-775279 296389 L-774784 296396 L-774634 296394 L-774366 296396 L-773128 296397 L-773071 296400 L-771307 296401 L-771117 296400 L-770107 296398 L-769956 296397 L-769580 296400 L-769259 296402 L-768654 296405 L-768584 296408 L-768407 296406 L-767579 296405 L-767440 296404 L-767053 296402 L-766869 296401 L-766825 296400 L-766705 296398 L-766495 296397 L-766048 296394 L-765700 296393 L-765568 296392 L-765159 296390 L-764808 296390 L-764523 296389 L-764330 296388 L-764175 296388 L-764011 296386 L-763943 296385 L-763843 296385 L-763609 296383 L-763493 296383 L-763440 296382 L-762898 296382 L-762434 296381 L-761252 296381 L-761118 296381 L-761094 296381 L-761041 296381 L-760373 296381 L-759339 296378 L-759145 296377 L-758965 296375 L-758814 296375 L-758773 296374 L-758758 296374 L-758696 296373 L-758371 296371 L-757211 296370 L-757017 296369 L-756840 296367 L-755726 296366 L-754866 296365 L-754760 296365 L-754286 296363 L-754094 296363 L-751772 296362 L-751694 296360 L-751573 296358 L-751539 296356 L-751501 296354 L-751407 296350 L-751191 296347 L-750610 296344 L-750224 296343 L-749451 296342 L-749373 296340 L-748676 296340 L-748134 296340 L-748093 296339 L-747963 296339 L-747499 296338 L-747461 296336 L-747326 296335 L-746958 296333 L-746928 296332 L-746778 296332 L-746377 296331 L-744553 296332 L-743746 296331 L-743028 296331 L-743011 296331 L-742697 296328 L-742136 296327 L-741634 296325 L-741115 296324 L-741094 296323 L-739350 296321 L-739181 296320 L-738985 296319 L-738092 296317 L-737573 296315 L-737362 296313 L-737105 296312 L-736395 296311 L-735445 296309 L-734787 296308 L-734747 296305 L-734461 296304 L-734378 296302 L-734283 296302 L-734151 296301 L-734074 296301 L-733339 296301 L-733001 296300 L-732952 296301 L-732697 296301 L-732410 296300 L-731984 296300 L-731404 296298 L-731145 296298 L-730994 296297 L-730746 296297 L-730708 296297 L-729911 296296 L-729873 296294 L-729696 296294 L-729287 296292 L-729058 296292 L-728982 296292 L-728851 296292 L-728735 296290 L-728386 296289 L-728323 296288 L-728171 296286 L-727430 296285 L-727318 296284 L-727148 296282 L-727109 296281 L-726815 296281 L-726413 296281 L-726237 296281 L-726142 296281 L-725833 296279 L-725031 296278 L-724573 296275 L-724053 296274 L-723564 296273 L-722869 296271 L-721822 296270 L-721554 296270 L-721499 296269 L-721339 296269 L-721087 296269 L-720841 296267 L-720763 296266 L-720548 296263 L-720236 296262 L-719773 296259 L-719758 296258 L-719462 296258 L-719449 296257 L-718458 296255 L-717785 296254 L-717450 296251 L-716834 296251 L-716697 296250 L-716058 296248 L-715928 296247 L-714977 296244 L-714878 296242 L-714318 296240 L-713910 296240 L-713481 296240 L-713390 296239 L-712555 296239 L-712192 296239 L-712152 296240 L-712020 296242 L-711843 296242 L-711627 296242 L-711573 296240 L-711416 296238 L-711163 296236 L-710063 296235 L-709986 296234 L-709766 296232 L-709635 296229 L-709599 296228 L-709405 296227 L-709306 296225 L-708822 296224 L-708538 296223 L-708378 296221 L-708283 296219 L-708011 296217 L-707742 296216 L-707726 296211 L-707587 296207 L-707449 296202 L-707122 296197 L-706813 296194 L-706772 296193 L-706696 296190 L-706581 296189 L-705731 296186 L-705404 296185 L-705073 296184 L-704940 296184 L-704724 296184 L-704708 296184 L-704027 296184 L-703934 296181 L-703911 296180 L-703895 296177 L-703856 296175 L-703445 296173 L-703175 296171 L-703135 296170 L-702767 296170 L-702557 296169 L-701474 296169 L-701458 296167 L-701429 296166 L-701409 296166 L-701032 296163 L-700777 296162 L-700529 296159 L-700390 296157 L-700258 296155 L-699926 296154 L-699833 296153 L-699772 296151 L-699214 296150 L-699153 296148 L-698997 296147 L-698803 296146 L-698610 296144 L-698595 296143 L-698556 296142 L-698517 296140 L-698246 296139 L-698123 296138 L-698091 296136 L-697991 296136 L-697836 296136 L-697695 296136 L-697410 296135 L-697085 296135 L-696389 296134 L-696366 296134 L-695857 296134 L-695011 296134 L-694648 296132 L-694493 296131 L-693890 296131 L-693720 296131 L-693659 296131 L-693604 296130 L-692548 296128 L-692530 296128 L-691624 296128 L-691602 296128 L-691435 296127 L-691193 296127 L-691143 296125 L-691088 296123 L-690951 296121 L-690911 296120 L-689983 296119 L-689928 296119 L-689806 296119 L-689734 296119 L-689618 296119 L-689440 296120 L-688457 296119 L-688318 296119 L-688200 296116 L-687906 296113 L-687659 296112 L-687622 296111 L-687567 296112 L-687546 296112 L-687413 296112 L-687334 296112 L-687196 296111 L-686573 296111 L-686407 296109 L-685942 296109 L-685766 296107 L-685749 296105 L-685689 296104 L-685573 296103 L-685090 296101 L-684394 296100 L-684021 296098 L-683852 296097 L-682886 296096 L-682731 296094 L-682553 296094 L-682461 296093 L-682206 296093 L-682035 296093 L-681388 296092 L-681377 296092 L-680797 296090 L-680659 296090 L-680604 296088 L-679868 296086 L-679830 296085 L-679752 296085 L-679110 296084 L-678336 296084 L-678243 296082 L-678194 296082 L-678179 296081 L-678143 296081 L-678127 296078 L-678064 296077 L-678048 296076 L-678028 296076 L-677873 296074 L-677834 296073 L-677818 296071 L-677779 296070 L-677639 296069 L-677563 296067 L-677198 296066 L-676851 296065 L-676077 296063 L-675474 296062 L-675278 296061 L-675048 296061 L-674910 296059 L-674272 296059 L-673983 296058 L-673961 296058 L-673501 296057 L-673268 296057 L-673213 296055 L-673175 296054 L-672672 296053 L-672122 296051 L-671334 296050 L-670211 296050 L-669316 296049 L-669229 296049 L-668929 296047 L-668857 296046 L-668741 296044 L-667565 296043 L-667217 296042 L-667194 296040 L-666675 296039 L-666528 296038 L-666420 296036 L-666211 296035 L-666056 296034 L-666033 296032 L-665839 296031 L-665763 296030 L-665619 296028 L-664818 296027 L-664672 296026 L-664392 296024 L-664215 296023 L-663905 296022 L-663093 296020 L-662165 296020 L-660573 296019 L-660330 296017 L-659689 296016 L-659493 296015 L-659416 296013 L-658898 296012 L-658666 296012 L-658643 296011 L-658511 296011 L-658172 296009 L-658161 296008 L-657945 296007 L-657908 296005 L-657366 296004 L-656837 296001 L-656769 296000 L-656476 295999 L-655929 295996 L-655893 295994 L-655841 295993 L-655741 295990 L-655509 295990 L-654929 295990 L-654831 295992 L-654757 295992 L-654425 295990 L-653675 295989 L-653636 295988 L-652956 295988 L-652802 295988 L-652475 295986 L-652259 295985 L-652028 295985 L-651731 295984 L-651485 295982 L-651134 295981 L-651081 295980 L-650322 295978 L-649628 295976 L-649278 295973 L-648814 295972 L-648181 295970 L-647772 295969 L-647694 295970 L-647268 295970 L-646625 295969 L-646456 295969 L-645714 295967 L-645527 295966 L-645232 295965 L-644660 295963 L-644634 295962 L-643615 295962 L-643128 295961 L-643035 295961 L-642974 295959 L-642686 295958 L-642400 295957 L-642338 295955 L-642159 295955 L-641447 295954 L-641272 295953 L-641073 295951 L-640921 295950 L-640830 295949 L-640768 295947 L-640226 295947 L-639916 295946 L-639824 295943 L-639746 295940 L-639179 295939 L-639088 295939 L-638834 295936 L-638507 295934 L-638470 295930 L-638315 295926 L-638083 295924 L-637761 295923 L-636628 295922 L-636429 295920 L-635903 295919 L-635659 295919 L-635413 295918 L-635333 295916 L-635313 295913 L-635236 295912 L-635181 295909 L-635103 295908 L-635065 295907 L-634886 295904 L-634849 295903 L-634617 295901 L-633379 295900 L-633053 295899 L-633013 295896 L-632231 295895 L-632085 295893 L-631093 295892 L-630886 295892 L-630461 295892 L-630333 295892 L-629929 295893 L-629841 295892 L-629184 295890 L-628477 295889 L-627868 295888 L-627675 295886 L-627442 295884 L-626824 295882 L-626528 295880 L-626088 295878 L-625934 295877 L-625779 295876 L-625023 295873 L-624672 295872 L-624270 295872 L-624232 295870 L-623226 295870 L-622906 295870 L-622659 295869 L-621959 295866 L-621886 295865 L-621573 295863 L-620493 295862 L-620302 295861 L-620068 295861 L-619873 295859 L-619373 295858 L-618619 295858 L-618505 295858 L-618305 295858 L-618264 295857 L-618171 295855 L-617858 295854 L-617770 295853 L-617654 295851 L-617336 295851 L-617267 295850 L-617242 295849 L-616880 295847 L-616842 295846 L-616625 295845 L-616122 295846 L-615519 295847 L-615308 295850 L-615155 295851 L-615117 295851 L-615073 295849 L-615039 295847 L-614906 295846 L-614496 295845 L-614126 295843 L-614072 295842 L-614056 295841 L-613977 295839 L-613567 295838 L-613414 295836 L-613398 295834 L-613359 295832 L-613180 295830 L-613104 295828 L-612873 295827 L-612083 295826 L-612005 295826 L-611270 295823 L-611115 295822 L-610875 295819 L-610813 295816 L-610728 295815 L-610705 295812 L-610587 295809 L-610573 295807 L-610511 295804 L-610474 295803 L-610380 295801 L-610357 295801 L-610241 295800 L-610008 295799 L-609838 295796 L-609018 295796 L-608617 295795 L-608462 295795 L-607957 295795 L-607843 295795 L-607247 295795 L-606872 295793 L-606820 295793 L-606627 295792 L-605930 295792 L-605892 295791 L-605747 295791 L-605522 295789 L-605260 295788 L-604886 295786 L-604460 295785 L-604331 295784 L-604311 295781 L-603818 295781 L-603121 295780 L-602890 295781 L-602736 295781 L-601768 295781 L-601543 295782 L-601265 295782 L-601249 295781 L-600723 295780 L-600194 295778 L-600046 295777 L-600027 295776 L-599485 295774 L-599175 295773 L-599058 295770 L-598866 295768 L-598729 295765 L-598402 295764 L-598286 295762 L-597976 295762 L-597550 295761 L-597494 295761 L-597261 295762 L-597165 295762 L-597032 295762 L-596736 295762 L-596621 295761 L-596257 295759 L-595944 295759 L-595461 295758 L-595291 295757 L-595043 295755 L-594827 295754 L-594301 295753 L-594115 295750 L-593759 295749 L-593124 295747 L-592969 295745 L-592229 295743 L-591809 295742 L-591629 295741 L-591553 295741 L-591422 295739 L-591128 295738 L-591087 295737 L-590857 295737 L-590665 295735 L-590409 295735 L-589983 295734 L-589874 295732 L-589255 295732 L-589074 295732 L-587862 295732 L-587215 295734 L-587064 295734 L-587027 295734 L-586895 295734 L-586794 295732 L-586778 295731 L-586696 295730 L-586485 295728 L-586368 295727 L-586005 295726 L-585634 295724 L-584937 295723 L-584535 295722 L-584430 295720 L-584412 295719 L-583467 295718 L-583272 295715 L-583120 295714 L-583064 295711 L-582308 295711 L-582291 295714 L-581802 295715 L-581672 295718 L-581479 295718 L-580589 295716 L-580549 295715 L-580511 295714 L-580434 295712 L-580395 295712 L-580318 295711 L-580234 295710 L-579970 295708 L-579738 295707 L-579675 295705 L-579195 295704 L-578858 295704 L-578747 295703 L-578554 295701 L-578377 295700 L-578318 295700 L-578282 295699 L-578012 295697 L-577314 295695 L-577261 295692 L-576967 295689 L-576565 295687 L-576001 295685 L-575128 295684 L-574823 295683 L-574785 295681 L-574662 295680 L-574064 295678 L-573934 295677 L-573734 295676 L-573696 295674 L-573083 295673 L-572904 295672 L-572889 295669 L-572671 295668 L-572593 295665 L-572286 295665 L-572154 295664 L-571922 295664 L-571588 295664 L-571496 295662 L-571395 295661 L-571358 295660 L-570814 295660 L-570622 295658 L-570081 295657 L-569655 295655 L-569523 295655 L-569462 295655 L-569230 295655 L-569214 295655 L-568726 295657 L-568645 295657 L-568627 295657 L-567235 295658 L-567099 295658 L-566985 295657 L-566351 295655 L-566211 295654 L-566093 295653 L-565939 295650 L-565903 295649 L-565824 295647 L-565770 295649 L-564778 295649 L-564742 295647 L-564609 295647 L-564548 295645 L-564449 295643 L-564159 295642 L-564145 295641 L-563835 295641 L-563735 295642 L-563270 295641 L-563217 295784 L-563074 295926 L-562946 296069 L-562714 296212 L-562145 296211 L-562056 296209 L-562034 296209 L-561747 296208 L-561064 296207 L-560987 296205 L-560950 296204 L-560934 296202 L-560734 296201 L-560314 296198 L-560043 296198 L-559170 296197 L-558877 296197 L-558766 296197 L-558032 296196 L-557905 296194 L-557545 296193 L-557293 296193 L-556422 296192 L-556252 296192 L-556191 296190 L-556136 296189 L-555788 296188 L-555765 296186 L-555556 296185 L-555416 296184 L-555285 296182 L-555162 296181 L-555039 296180 L-554802 296178 L-554511 296177 L-553852 296175 L-553830 296174 L-553676 296173 L-553558 296171 L-552594 296170 L-552538 296169 L-552305 296167 L-552283 296166 L-551957 296165 L-551842 296165 L-551802 296163 L-551300 296163 L-551001 296162 L-550889 296161 L-550347 296159 L-549288 296158 L-548662 296157 L-548490 296155 L-548243 296154 L-547986 296153 L-547855 296151 L-547834 296150 L-547166 296148 L-546270 296147 L-546224 296146 L-546154 296144 L-546038 296144 L-545818 296143 L-545627 296143 L-545587 296142 L-545395 296140 L-544736 296140 L-544119 296139 L-544080 296147 L-543484 296155 L-543422 296162 L-542300 296169 L-542246 296169 L-542125 296167 L-541859 296166 L-541795 296166 L-541526 296166 L-541450 296165 L-541234 296165 L-540751 296163 L-540482 296162 L-540350 296162 L-540118 296159 L-540093 296155 L-540078 296150 L-540056 296143 L-540040 296136 L-540016 296130 L-540002 296121 L-539978 296113 L-539963 296105 L-539940 296098 L-539925 296092 L-539903 296085 L-539886 296081 L-539858 296077 L-539840 296071 L-539823 296069 L-539786 296065 L-539746 296062 L-539731 296059 L-539706 296055 L-539654 296053 L-539629 296050 L-539553 296047 L-539515 296046 L-539499 296043 L-539436 296040 L-539422 296038 L-539376 296034 L-539305 296031 L-539267 296030 L-539242 296027 L-539190 296024 L-539165 296023 L-539149 296022 L-539088 296020 L-539050 296019 L-538974 296017 L-538958 296016 L-538930 296013 L-538857 296012 L-538818 296011 L-538664 296008 L-538548 296007 L-538493 296005 L-538411 296004 L-538378 296003 L-538354 296001 L-538199 296000 L-538184 295999 L-538082 295997 L-537772 295996 L-537736 295994 L-537520 295993 L-537409 295993 L-537385 295993 L-537155 295994 L-536922 295994 L-536547 295993 L-536420 295992 L-536380 295990 L-536327 295989 L-536226 295988 L-536189 295986 L-535979 295986 L-535914 295985 L-535802 295985 L-535590 295984 L-535553 295982 L-535181 295981 L-535127 295980 L-535049 295978 L-535027 295977 L-534934 295976 L-534734 295974 L-534696 295974 L-534675 295974 L-534444 295974 L-534424 295973 L-534214 295973 L-534120 295972 L-534082 295970 L-533746 295969 L-533633 295967 L-533593 295966 L-533580 295966 L-533440 295965 L-533425 295965 L-533170 295965 L-532588 295963 L-532511 295962 L-532474 295961 L-532429 295959 L-532380 295958 L-532201 295957 L-532186 295955 L-532086 295954 L-532009 295953 L-531948 295951 L-531583 295949 L-531500 295947 L-531483 295946 L-531429 295945 L-530461 295943 L-530329 295942 L-530308 295940 L-530087 295939 L-530019 295938 L-529996 295936 L-529750 295935 L-529493 295934 L-529362 295932 L-529323 295931 L-529302 295928 L-529246 295926 L-529158 295924 L-529097 295922 L-528872 295920 L-528743 295919 L-528643 295918 L-528588 295916 L-528395 295915 L-528317 295913 L-527984 295912 L-527853 295911 L-527676 295909 L-527660 295908 L-527635 295907 L-527365 295907 L-526165 295905 L-526128 295905 L-526011 295904 L-525778 295903 L-525587 295901 L-525548 295901 L-525493 295900 L-525388 295900 L-524874 295899 L-524580 295897 L-524348 295896 L-524073 295895 L-524056 295893 L-524023 295892 L-523983 295890 L-523946 295889 L-523844 295888 L-523767 295886 L-523674 295885 L-523547 295884 L-523443 295882 L-523265 295882 L-523072 295881 L-522243 295881 L-522127 295880 L-521873 295878 L-521832 295877 L-521733 295876 L-521673 295876 L-521431 295874 L-521407 295874 L-521286 295873 L-521214 295872 L-521175 295870 L-520943 295869 L-520767 295868 L-520247 295866 L-520170 295865 L-520154 295863 L-519743 295863 L-519380 295863 L-519264 295862 L-519241 295862 L-519201 295861 L-519125 295859 L-519071 295858 L-518722 295857 L-518606 295855 L-518429 295855 L-518374 295854 L-518350 295854 L-518236 295853 L-517948 295851 L-517716 295850 L-517501 295849 L-517291 295847 L-517081 295845 L-516254 295843 L-515915 295842 L-514907 295841 L-514544 295839 L-513499 295838 L-513421 295836 L-512974 295835 L-512763 295834 L-512571 295832 L-512276 295831 L-512235 295830 L-512082 295828 L-512029 295826 L-511797 295824 L-511217 295823 L-511023 295822 L-510404 295822 L-509914 295820 L-509863 295819 L-509214 295818 L-509064 295816 L-508895 295815 L-508521 295814 L-508506 295814 L-508407 295812 L-508368 295812 L-508237 295811 L-507804 295811 L-507501 295811 L-507115 295811 L-506975 295809 L-506814 295809 L-506380 295809 L-506341 295808 L-506240 295808 L-506125 295807 L-505947 295807 L-505777 295805 L-505659 295804 L-505297 295801 L-505080 295800 L-504947 295799 L-504807 295799 L-504308 295799 L-504230 295799 L-503996 295797 L-503672 295797 L-503285 295796 L-503262 295795 L-502642 295795 L-502372 295793 L-502139 295793 L-501714 295792 L-501443 295791 L-501301 295789 L-501092 295788 L-500886 295786 L-500335 295785 L-500204 295785 L-499818 295784 L-499547 295784 L-499444 295782 L-499184 295781 L-498982 295780 L-498913 295778 L-498874 295777 L-498307 295776 L-498100 295774 L-498073 295773 L-497844 295772 L-497767 295770 L-497249 295769 L-497211 295768 L-497056 295766 L-496762 295765 L-496490 295764 L-496127 295762 L-495779 295762 L-495406 295761 L-495286 295761 L-495214 295759 L-494735 295758 L-494672 295757 L-494337 295755 L-494206 295754 L-494128 295753 L-493999 295751 L-493535 295751 L-493241 295750 L-493165 295750 L-492853 295749 L-492545 295747 L-492482 295746 L-492452 295745 L-491677 295743 L-491572 295741 L-491485 295739 L-491461 295738 L-491307 295737 L-491086 295735 L-490919 295734 L-490532 295732 L-490477 295731 L-490414 295731 L-489796 295730 L-489680 295728 L-489356 295727 L-488831 295726 L-488480 295724 L-488404 295723 L-487785 295722 L-487374 295720 L-487073 295719 L-486762 295718 L-486624 295716 L-486000 295716 L-485619 295715 L-484495 295715 L-483435 295714 L-483372 295712 L-483011 295711 L-482910 295711 L-482894 295710 L-482520 295710 L-481515 295707 L-481128 295705 L-480921 295703 L-480832 295701 L-480457 295700 L-480164 295699 L-479853 295697 L-479064 295696 L-478976 295695 L-478924 295693 L-478885 295692 L-478367 295691 L-478252 295689 L-478043 295688 L-477904 295687 L-477300 295685 L-476471 295684 L-476188 295683 L-476006 295683 L-475504 295681 L-475300 295681 L-474745 295681 L-474240 295680 L-474049 295678 L-474010 295677 L-473382 295676 L-472928 295674 L-472514 295673 L-471905 295672 L-470785 295672 L-470372 295670 L-470047 295670 L-469833 295669 L-469406 295668 L-469266 295666 L-469174 295665 L-468943 295664 L-468356 295664 L-467549 295662 L-466349 295662 L-466235 295662 L-466103 295661 L-466015 295660 L-465974 295661 L-465953 295662 L-465942 295665 L-465848 295668 L-465084 295668 L-464378 295668 L-464338 295666 L-464052 295665 L-463511 295664 L-463450 295662 L-463410 295661 L-463395 295660 L-463138 295658 L-462815 295657 L-462675 295655 L-462404 295654 L-462366 295653 L-462258 295651 L-461856 295650 L-461747 295649 L-461669 295647 L-461372 295646 L-461330 295645 L-461111 295645 L-460928 295645 L-460817 295645 L-460803 295643 L-460777 295643 L-460353 295642 L-460106 295641 L-459770 295639 L-459736 295638 L-459601 295637 L-459347 295637 L-459193 295635 L-458287 295635 L-458188 295634 L-457992 295631 L-456985 295630 L-456484 295628 L-456406 295627 L-456368 295626 L-456160 295624 L-456041 295623 L-455943 295622 L-455757 295620 L-455592 295619 L-455356 295618 L-454936 295616 L-454921 295615 L-454612 295614 L-453566 295612 L-453349 295611 L-453333 295610 L-453311 295608 L-453103 295607 L-452944 295606 L-452885 295604 L-451440 295603 L-451114 295603 L-450912 295603 L-450713 295603 L-450563 295603 L-450293 295601 L-449852 295600 L-449634 295600 L-448939 295599 L-448437 295597 L-448112 295596 L-447841 295596 L-447121 295595 L-446966 295595 L-445767 295592 L-445378 295591 L-445262 295588 L-445109 295587 L-444955 295585 L-443985 295584 L-443933 295583 L-443686 295581 L-443663 295580 L-443444 295579 L-443005 295576 L-442866 295573 L-442758 295570 L-442556 295569 L-442439 295568 L-442336 295566 L-442322 295566 L-442189 295565 L-441935 295564 L-441318 295562 L-440658 295561 L-440412 295561 L-440220 295560 L-439460 295560 L-439421 295560 L-439343 295558 L-439291 295556 L-439251 295554 L-439213 295553 L-439175 295551 L-439083 295550 L-439039 295549 L-438980 295546 L-438956 295545 L-438842 295543 L-438532 295541 L-438477 295539 L-438455 295538 L-438113 295537 L-437948 295535 L-437912 295533 L-437872 295531 L-437857 295530 L-437626 295529 L-437485 295527 L-437317 295526 L-436867 295526 L-436634 295526 L-436541 295526 L-436521 295527 L-436041 295526 L-435963 295526 L-435836 295524 L-435706 295522 L-435328 295520 L-435086 295518 L-435049 295516 L-434995 295515 L-434857 295512 L-434817 295511 L-434777 295510 L-434547 295508 L-434507 295507 L-434377 295506 L-434198 295504 L-434157 295503 L-434143 295502 L-433979 295500 L-433964 295499 L-433812 295497 L-433797 295496 L-433770 295495 L-433736 295493 L-433514 295491 L-433291 295491 L-433037 295489 L-432905 295491 L-432263 295491 L-431656 295489 L-430636 295489 L-430443 295488 L-430392 295487 L-430267 295485 L-429942 295484 L-429170 295483 L-429112 295481 L-428998 295480 L-428586 295479 L-428261 295477 L-428124 295476 L-427899 295475 L-427373 295473 L-426972 295473 L-426941 295472 L-426654 295472 L-426369 295470 L-425981 295469 L-425764 295468 L-425337 295465 L-425156 295464 L-424819 295462 L-424713 295461 L-424526 295461 L-424409 295460 L-424395 295460 L-423674 295458 L-423504 295457 L-423256 295456 L-423156 295454 L-422514 295453 L-422225 295452 L-422035 295450 L-421760 295449 L-421443 295448 L-421158 295446 L-421044 295443 L-420999 295442 L-420797 295441 L-419188 295439 L-418976 295438 L-418295 295437 L-418213 295435 L-417985 295434 L-417794 295434 L-417655 295433 L-417637 295433 L-417443 295433 L-417214 295433 L-417021 295433 L-415937 295431 L-415741 295431 L-415689 295431 L-415535 295431 L-415427 295431 L-415261 295431 L-415108 295430 L-414993 295429 L-414869 295426 L-414452 295425 L-414195 295422 L-414103 295420 L-413909 295420 L-413848 295419 L-413522 295419 L-413461 295419 L-413404 295418 L-413135 295416 L-412787 295415 L-412608 295414 L-412414 295412 L-412378 295414 L-411665 295414 L-411626 295416 L-411317 295418 L-411019 295419 L-410969 295420 L-410714 295422 L-410443 295423 L-410388 295423 L-409296 295423 L-409266 295422 L-409226 295422 L-409049 295422 L-408856 295420 L-407999 295420 L-406945 295419 L-406884 295418 L-406535 295416 L-405723 295416 L-404909 295416 L-404894 295416 L-404519 295416 L-404351 295416 L-404082 295416 L-403754 295415 L-403633 295414 L-403576 295414 L-403540 295412 L-403463 295412 L-403246 295411 L-403187 295410 L-402872 295408 L-402704 295407 L-402341 295407 L-402147 295407 L-402124 295407 L-402046 295406 L-401565 295406 L-401428 295406 L-401014 295404 L-400715 295404 L-400616 295403 L-400600 295402 L-400572 295400 L-400213 295399 L-399862 295398 L-399725 295396 L-399688 295396 L-398871 295395 L-398665 295393 L-398641 295392 L-398485 295392 L-398395 295391 L-398153 295391 L-397829 295389 L-397737 295389 L-397541 295388 L-397255 295388 L-396499 295387 L-396370 295385 L-396296 295384 L-395683 295383 L-395508 295381 L-395397 295380 L-395298 295379 L-395219 295377 L-395082 295376 L-394927 295376 L-394848 295376 L-394657 295376 L-393984 295376 L-393946 295375 L-393843 295373 L-392899 295372 L-392878 295371 L-392527 295369 L-392062 295368 L-392026 295366 L-391597 295365 L-391546 295365 L-391134 295364 L-391118 295364 L-391021 295364 L-390966 295364 L-390928 295364 L-390632 295362 L-388894 295361 L-387384 295360 L-386876 295358 L-386379 295357 L-386244 295356 L-386154 295354 L-386026 295353 L-385947 295350 L-385642 295349 L-385371 295348 L-385137 295348 L-383939 295346 L-383834 295346 L-383768 295345 L-382926 295344 L-382740 295342 L-381829 295341 L-380960 295338 L-380673 295337 L-380580 295334 L-380031 295333 L-379511 295331 L-378443 295330 L-378174 295329 L-378020 295329 L-377928 295329 L-377797 295330 L-377750 295331 L-377590 295331 L-376725 295331 L-376390 295331 L-376007 295330 L-375254 295329 L-375194 295327 L-374805 295327 L-374483 295327 L-374326 295326 L-373594 295326 L-373532 295326 L-373244 295326 L-372871 295326 L-372689 295326 L-372434 295325 L-372172 295322 L-372020 295321 L-371616 295319 L-370319 295318 L-370204 295316 L-369740 295315 L-368408 295314 L-367983 295312 L-367959 295311 L-367826 295310 L-367651 295308 L-367517 295308 L-367188 295307 L-366800 295306 L-366761 295304 L-366744 295302 L-366354 295300 L-366062 295299 L-365793 295299 L-365620 295299 L-364127 295299 L-364076 295298 L-363998 295299 L-362758 295300 L-362683 295300 L-362656 295303 L-362410 295302 L-362253 295302 L-362194 295300 L-361306 295300 L-361078 295299 L-360554 295299 L-360413 295300 L-360337 295300 L-359641 295302 L-359393 295302 L-358713 295300 L-358695 295300 L-358442 295299 L-358074 295299 L-357938 295298 L-357316 295295 L-356973 295294 L-356925 295292 L-356438 295291 L-356104 295288 L-355888 295288 L-355753 295287 L-355432 295285 L-355368 295285 L-355116 295284 L-354826 295283 L-354516 295281 L-354377 295280 L-353838 295279 L-353562 295277 L-352832 295276 L-352778 295276 L-352671 295276 L-352405 295276 L-351981 295276 L-351717 295275 L-351497 295273 L-351477 295272 L-351245 295271 L-350958 295269 L-350935 295269 L-350921 295268 L-350548 295268 L-350376 295267 L-350301 295264 L-350240 295262 L-349938 295260 L-349698 295257 L-349605 295256 L-349348 295254 L-349295 295253 L-349100 295252 L-348884 295253 L-348460 295253 L-348368 295254 L-348227 295253 L-347362 295252 L-346989 295250 L-346661 295248 L-346509 295246 L-346081 295246 L-345364 295245 L-345169 295245 L-344814 295244 L-344668 295242 L-344161 295240 L-343925 295238 L-342958 295237 L-342948 295235 L-341883 295234 L-341650 295233 L-341249 295231 L-341054 295230 L-340974 295229 L-340878 295227 L-340141 295227 L-340009 295227 L-339619 295227 L-339597 295226 L-339502 295226 L-339367 295225 L-339350 295223 L-339330 295222 L-337645 295221 L-337626 295221 L-337510 295219 L-337425 295219 L-337300 295219 L-337277 295218 L-336992 295217 L-336886 295215 L-336698 295213 L-336427 295211 L-335755 295210 L-335383 295208 L-334531 295208 L-334474 295207 L-334454 295207 L-334221 295207 L-333946 295206 L-333641 295206 L-333601 295203 L-333371 295203 L-333133 295202 L-332520 295200 L-332479 295199 L-332442 295196 L-331920 295195 L-331729 295194 L-331668 295192 L-331626 295191 L-331303 295191 L-331276 295190 L-331261 295190 L-330776 295188 L-330723 295187 L-330584 295185 L-330546 295184 L-330529 295183 L-330435 295181 L-329769 295181 L-329153 295180 L-328883 295180 L-328475 295180 L-328455 295179 L-328439 295179 L-328326 295177 L-327939 295176 L-327472 295176 L-327411 295175 L-327333 295173 L-327318 295172 L-326832 295169 L-326792 295168 L-326647 295168 L-326597 295167 L-326519 295168 L-325887 295167 L-325796 295167 L-325555 295167 L-325438 295165 L-325110 295165 L-324356 295164 L-324339 295164 L-323388 295164 L-323079 295163 L-322654 295161 L-321940 295160 L-321621 295158 L-321606 295157 L-321455 295154 L-321152 295153 L-321074 295152 L-320947 295150 L-320510 295150 L-320450 295150 L-319926 295150 L-319658 295150 L-319521 295149 L-319442 295148 L-319403 295146 L-318592 295146 L-318551 295146 L-318111 295146 L-318033 295146 L-317776 295145 L-317585 295144 L-316956 295142 L-316769 295141 L-316735 295138 L-316579 295137 L-316177 295134 L-316100 295133 L-315919 295131 L-315728 295130 L-314800 295127 L-314649 295126 L-313441 295125 L-312632 295123 L-312228 295122 L-311626 295121 L-311424 295119 L-311355 295118 L-311197 295117 L-310936 295115 L-310562 296325 L-310544 296324 L-310387 296324 L-309189 296324 L-308085 295113 L-307157 295111 L-307044 295110 L-306758 295109 L-306656 295107 L-306632 295107 L-306442 295104 L-306364 295103 L-306168 295103 L-305457 295103 L-305299 295104 L-304242 295104 L-303817 295104 L-303407 295103 L-303121 295100 L-302946 295099 L-302715 295098 L-302460 295096 L-302018 295095 L-301357 295094 L-301181 295092 L-300876 295091 L-300489 295090 L-300470 295088 L-300450 295087 L-300429 295086 L-300295 295084 L-300103 295083 L-298459 295081 L-297162 295080 L-297123 295079 L-297066 295077 L-296964 295076 L-296405 295075 L-295421 295073 L-294879 295071 L-294415 295069 L-293769 295068 L-293220 295067 L-292170 295065 L-291242 295064 L-290894 295063 L-290701 295061 L-290198 295060 L-289753 295060 L-289610 295059 L-289589 295059 L-289018 295059 L-288632 295056 L-287799 295054 L-287450 295053 L-287428 295052 L-287041 295052 L-286618 295050 L-286019 295049 L-286000 295048 L-285494 295048 L-285263 295046 L-285149 295046 L-284530 295044 L-283969 295042 L-283929 295041 L-283369 295040 L-283036 295038 L-282924 295038 L-282885 295037 L-282460 295037 L-282400 295037 L-282325 295036 L-282034 295036 L-281821 295034 L-281338 295032 L-281123 295030 L-279983 295029 L-279924 295027 L-279906 295026 L-279500 295025 L-278862 295023 L-278726 295022 L-278668 295021 L-278126 295019 L-277817 295018 L-277566 295018 L-277490 295017 L-277371 295015 L-276637 295013 L-276192 295011 L-275978 295010 L-275244 295009 L-275070 295007 L-274704 295007 L-274489 295007 L-273251 295007 L-272942 295007 L-272825 295007 L-272573 295006 L-272362 295005 L-271820 295003 L-271588 295002 L-271530 295002 L-271433 295000 L-271104 295000 L-270871 294999 L-269209 294998 L-268858 294996 L-268454 294994 L-268299 294992 L-267506 294991 L-266016 294990 L-265629 294988 L-265591 294987 L-265337 294986 L-265242 294984 L-265049 294983 L-264701 294983 L-264005 294982 L-263753 294982 L-263037 294980 L-261625 294979 L-261393 294977 L-261064 294977 L-259847 294977 L-259496 294979 L-259304 294980 L-259185 294982 L-256750 294982 L-255781 294980 L-254950 294979 L-254641 294977 L-253299 294976 L-252726 294975 L-252610 294973 L-252281 294973 L-252185 294972 L-251778 294972 L-251662 294971 L-251471 294969 L-250715 294968 L-250589 294967 L-250308 294965 L-249805 294964 L-249728 294963 L-248141 294969 L-248084 294976 L-247342 294984 L-246961 294991 L-246632 294990 L-245969 294988 L-245839 294987 L-245799 294987 L-245549 294987 L-245413 294987 L-245221 294986 L-245085 294986 L-244833 294983 L-244621 294983 L-244311 294982 L-244039 294982 L-243537 294982 L-243518 294982 L-243084 294980 L-242858 294979 L-242415 294977 L-242396 294976 L-241893 294975 L-241755 294973 L-241641 294972 L-241409 294971 L-241099 294969 L-240635 294968 L-240558 294967 L-240055 294965 L-239784 294964 L-239446 294963 L-239261 294961 L-238585 294960 L-238566 294960 L-238391 294959 L-238371 294957 L-237753 294956 L-237037 294955 L-236475 294953 L-236281 294953 L-236127 294952 L-236108 294952 L-235585 294949 L-235471 294948 L-234599 294946 L-234578 294945 L-234522 294944 L-233690 294942 L-233380 294941 L-233304 294940 L-233032 294938 L-232969 294938 L-232919 294936 L-232607 294933 L-231990 294930 L-231215 294929 L-230421 294928 L-230382 294926 L-230305 294925 L-230133 294923 L-229255 294922 L-228370 294921 L-228276 294919 L-228156 294918 L-227826 294917 L-227790 294917 L-227558 294915 L-227325 294915 L-226610 294913 L-226107 294911 L-225442 294910 L-225333 294909 L-225179 294907 L-225159 294906 L-225004 294905 L-224589 294903 L-223978 294902 L-223844 294901 L-222935 294899 L-222732 294898 L-222180 294896 L-219530 294895 L-219355 294894 L-219278 294891 L-218406 294890 L-217942 294888 L-217460 294887 L-217421 294884 L-216840 294883 L-216820 294882 L-215719 294880 L-214297 294879 L-213879 294878 L-213572 294876 L-213494 294875 L-213418 294874 L-213261 294872 L-213185 294871 L-212721 294869 L-211483 294868 L-211231 294867 L-210786 294865 L-210164 294864 L-210108 294863 L-209915 294863 L-209450 294861 L-209159 294859 L-209118 294856 L-209082 294853 L-208929 294851 L-208751 294849 L-207613 294846 L-207226 294845 L-207168 294844 L-206994 294842 L-204477 294840 L-203317 294838 L-202680 294837 L-202541 294836 L-202409 294833 L-202022 294832 L-201558 294830 L-201347 294828 L-201282 294826 L-201248 294825 L-200494 294824 L-199912 294822 L-199721 294821 L-199102 294819 L-199056 294818 L-198695 294817 L-198589 294815 L-198404 294814 L-198127 294813 L-197223 294811 L-196218 294810 L-195483 294809 L-195058 294807 L-194897 294806 L-194535 294805 L-194438 294803 L-193994 294802 L-193918 294801 L-193566 294801 L-193317 294798 L-193297 294795 L-193123 294792 L-192175 294788 L-192061 294787 L-191498 294786 L-191048 294784 L-190663 294783 L-189753 294782 L-189697 294780 L-188558 294779 L-187978 294776 L-187803 294775 L-187009 294772 L-186778 294771 L-186391 294770 L-186121 294768 L-185985 294767 L-185869 294765 L-185250 294765 L-185192 294765 L-184977 294765 L-184683 294765 L-183895 294764 L-183754 294764 L-182366 294763 L-182019 294763 L-181632 294761 L-181571 294759 L-181535 294757 L-181478 294756 L-180835 294755 L-180143 294753 L-179891 294753 L-179555 294752 L-179466 294752 L-178946 294751 L-178692 294749 L-178476 294747 L-178093 294745 L-177933 294744 L-177394 294741 L-176582 294740 L-176563 294738 L-176448 294738 L-176303 294737 L-175922 294737 L-175730 294737 L-175674 294736 L-175375 294734 L-175308 294733 L-175112 294732 L-174745 294730 L-174684 294729 L-174380 294728 L-174334 294728 L-174281 294726 L-173643 294726 L-173623 294725 L-173138 294724 L-172656 294725 L-172287 294725 L-171921 294726 L-171786 294726 L-171632 294725 L-171562 294724 L-170915 294724 L-170895 294722 L-170754 294722 L-170269 294721 L-169986 294721 L-169928 294720 L-169870 294720 L-169561 294718 L-169406 294717 L-168922 294717 L-168149 294717 L-167509 294717 L-167412 294715 L-166349 294715 L-166328 294714 L-165863 296344 L-165847 296344 L-165673 296344 L-165160 296344 L-162806 294713 L-161861 294711 L-161143 294710 L-160602 294707 L-159905 294706 L-159589 294705 L-158940 294703 L-158432 294702 L-158398 294701 L-158356 294699 L-158011 294698 L-157316 294697 L-157119 294695 L-157102 294693 L-156986 294691 L-156705 294690 L-155807 294687 L-155761 294686 L-155395 294683 L-155377 294682 L-155322 294680 L-155129 294679 L-154993 294678 L-154918 294676 L-154684 294675 L-154143 294674 L-154102 294672 L-154065 294671 L-154040 294670 L-153405 294667 L-152863 294666 L-151698 294664 L-151338 294663 L-150061 294663 L-150021 294661 L-149983 294661 L-149768 294660 L-149578 294659 L-149500 294657 L-149347 294656 L-149307 294655 L-148218 294653 L-147894 294653 L-147680 294652 L-147419 294652 L-146927 294652 L-146905 294657 L-146488 294663 L-146346 294667 L-146286 294672 L-146209 294672 L-145998 294671 L-144704 294671 L-144427 294670 L-143803 294668 L-142412 294667 L-142340 294666 L-142302 294663 L-142108 294661 L-141718 294660 L-141411 294659 L-141355 294657 L-141040 294657 L-140989 294657 L-140951 294656 L-140905 294655 L-140272 294653 L-139498 294652 L-139059 294651 L-138917 296296 L-138894 296294 L-138877 297939 L-138852 297939 L-138435 296294 L-138232 296293 L-138082 294647 L-138004 294645 L-137950 294644 L-137153 294644 L-137137 294644 L-136273 294644 L-136069 294644 L-135782 294643 L-135667 294641 L-135141 294640 L-134965 294639 L-134661 294637 L-134274 294636 L-134213 294633 L-134158 294632 L-134003 294630 L-132958 294629 L-132396 294629 L-132160 294628 L-132123 294628 L-131854 294628 L-131448 294626 L-129979 294625 L-128238 294624 L-127851 294622 L-127619 294621 L-127520 294620 L-127425 294618 L-127271 294616 L-126708 294616 L-126625 294614 L-126458 294614 L-125916 294616 L-124731 294616 L-124717 294616 L-124657 294616 L-124506 294614 L-124021 294613 L-123374 294611 L-122668 294609 L-122552 294607 L-121584 294606 L-121539 294605 L-120849 294605 L-120792 294603 L-120714 294603 L-120695 294602 L-120674 294601 L-120458 294599 L-119745 294599 L-119355 294598 L-119318 294597 L-119301 294595 L-119243 294594 L-118816 294593 L-118602 294591 L-118527 294589 L-118450 294587 L-118334 294586 L-118269 294586 L-118141 294584 L-118081 294584 L-118006 294582 L-117927 294580 L-117499 294579 L-116773 294578 L-116759 294575 L-116593 294574 L-116376 294571 L-116361 294568 L-115780 294567 L-115509 294566 L-115220 294564 L-114790 294563 L-114637 294562 L-114580 294560 L-114404 294559 L-113009 294557 L-112743 294555 L-111850 294552 L-111325 294551 L-110305 294548 L-110224 294547 L-109760 294545 L-109141 294545 L-108855 294544 L-108601 294544 L-108449 294543 L-108101 294541 L-107384 294540 L-106823 294539 L-105935 294537 L-105626 294537 L-105334 294537 L-104482 294537 L-104461 294537 L-103805 294537 L-103301 294535 L-103090 294533 L-103070 294532 L-102741 294530 L-102683 294530 L-102296 294530 L-101311 294530 L-100749 294530 L-100652 294530 L-100343 294529 L-100266 294529 L-99231 294528 L-99101 294526 L-99045 294525 L-98409 294524 L-98350 294522 L-98275 294521 L-96861 294520 L-96724 294518 L-96590 294517 L-96105 294516 L-95855 294514 L-95564 294513 L-95352 294512 L-94695 294510 L-94126 294507 L-94037 294506 L-93897 294505 L-93823 294503 L-92658 294503 L-92626 294502 L-92196 294502 L-92179 294501 L-92005 294499 L-90477 294498 L-90393 294499 L-89587 294499 L-89394 294499 L-89372 294499 L-88519 294498 L-88325 294497 L-87692 294495 L-87516 294494 L-87397 294493 L-87343 294493 L-87322 294493 L-87266 294493 L-86878 294493 L-86434 294493 L-86356 294491 L-86159 294491 L-86097 294490 L-85834 294489 L-85486 294489 L-85370 294487 L-84222 294487 L-83937 294486 L-83492 294485 L-82289 294483 L-82159 294482 L-81849 294480 L-81421 294479 L-80124 294478 L-79815 296063 L-79799 296063 L-79752 296094 L-79702 296094 L-78774 294506 L-78444 294506 L-77896 294474 L-77768 294472 L-77322 294471 L-75789 294470 L-75620 294468 L-75349 294467 L-75325 294464 L-74420 294463 L-74305 294462 L-73838 294460 L-73815 294459 L-73743 294458 L-73545 294456 L-73393 294455 L-72925 294453 L-72274 294452 L-71788 294451 L-71238 294451 L-70216 294451 L-69910 294451 L-69855 294451 L-69255 294449 L-68825 294448 L-68751 294448 L-68733 294447 L-68512 294447 L-68208 294445 L-68126 294444 L-67822 294444 L-67223 294443 L-67086 294441 L-66816 294440 L-66602 294439 L-66427 294439 L-66218 294439 L-66196 294439 L-65947 294455 L-65498 294471 L-65482 294487 L-65036 294503 L-63828 294503 L-63626 294502 L-62698 294502 L-62636 294501 L-62601 294499 L-61576 294498 L-61460 294498 L-61439 294497 L-61285 294497 L-61266 294497 L-60855 294495 L-60839 294495 L-60801 294494 L-60491 294493 L-60338 294491 L-60133 294491 L-59734 294490 L-58751 294490 L-58226 294490 L-58170 294489 L-58144 294489 L-57822 294487 L-57106 294487 L-56236 294487 L-56198 294487 L-56121 294487 L-55869 294486 L-55849 294485 L-55126 294485 L-54976 294483 L-54863 294483 L-54766 294482 L-53664 294480 L-52909 294479 L-52737 294478 L-52576 294476 L-52500 294475 L-52306 294475 L-51168 294474 L-50483 294474 L-50201 294472 L-49234 294471 L-49215 294470 L-48363 294468 L-48324 294467 L-48181 294466 L-47856 294464 L-47626 294463 L-47588 294462 L-47548 294460 L-47531 294458 L-47395 294456 L-47376 294455 L-47165 294453 L-47105 294452 L-47027 294451 L-47003 294449 L-46928 294448 L-46448 294447 L-46351 294445 L-46275 294444 L-46099 294443 L-46076 294441 L-46021 294440 L-45983 294439 L-45924 294437 L-45769 294436 L-44745 294435 L-44446 294433 L-44319 294432 L-44241 294431 L-43216 294429 L-43159 294428 L-43101 294426 L-43055 294425 L-43041 294424 L-43004 294422 L-42966 294421 L-41786 294420 L-41727 294418 L-41031 294418 L-40412 294417 L-40269 294417 L-39826 294416 L-39560 294414 L-38897 294414 L-38613 294413 L-37143 294413 L-36195 294412 L-36089 294410 L-36023 294410 L-35993 294409 L-35673 294408 L-35652 294408 L-34723 294408 L-34547 294409 L-33816 294410 L-33275 221665 L-33252 148919 L-33225 76172 L-33193 3425 L-33176 3424 L-33155 3421 L-33117 3419 L-33098 3419 L-33075 3421 L-33060 3423 L-33041 3424 L-33021 3424 L-32999 3421 L-32983 3420 L-32963 3419 L-32944 3419 L-32906 3419 L-32866 3416 L-32840 3413 L-32824 3409 L-32806 3406 L-32769 3404 L-32750 3402 L-32731 3401 L-32712 3400 L-32690 3397 L-32673 3396 L-32634 3392 L-32612 3388 L-32596 3386 L-32577 3384 L-32557 3382 L-32538 3381 L-32519 3378 L-32480 3377 L-32423 3375 L-32374 3373 L-32323 3371 L-32296 3369 L-32280 3366 L-32263 3365 L-32248 3363 L-32227 3362 L-32209 3362 L-32189 3359 L-32169 3358 L-32147 3355 L-32132 3351 L-32113 3348 L-32093 3347 L-32071 3344 L-32035 3342 L-32015 3339 L-31995 3336 L-31958 3334 L-31937 3332 L-31912 3331 L-31895 3330 L-31878 3327 L-31861 3320 L-31840 3313 L-31822 3305 L-31802 3300 L-31783 3296 L-31725 3293 L-31705 3289 L-31683 3286 L-31649 3282 L-31628 3278 L-31609 3275 L-31590 3273 L-31571 3271 L-31532 3270 L-31513 3267 L-31494 3265 L-31468 3263 L-31281 3261 L-31261 3258 L-31241 3257 L-31218 3254 L-31184 3251 L-31164 3248 L-31143 3244 L-31125 3240 L-31106 3236 L-31087 3232 L-31066 3230 L-31048 3227 L-31030 3224 L-31008 3221 L-30983 3219 L-30967 3216 L-30932 3213 L-30912 3212 L-30894 3209 L-30874 3208 L-30855 3205 L-30833 3203 L-30797 3200 L-30777 3197 L-30755 3194 L-30739 3192 L-30720 3189 L-30700 3186 L-30680 3185 L-30643 3182 L-30565 3181 L-30540 3178 L-30517 3176 L-30489 3171 L-30466 3169 L-30440 3166 L-30390 3163 L-30370 3162 L-30332 3158 L-30313 3155 L-30291 3154 L-30275 3151 L-30256 3150 L-30236 3149 L-30215 3147 L-30179 3144 L-30158 3143 L-30101 3142 L-30080 3140 L-30055 3140 L-30040 3139 L-30023 3139 L-29985 3138 L-29965 3135 L-29946 3132 L-29926 3130 L-29906 3127 L-29888 3124 L-29869 3120 L-29849 3117 L-29828 3115 L-29792 3112 L-29772 3111 L-29753 3109 L-29714 3108 L-29675 3107 L-29656 3105 L-29637 3104 L-29588 3103 L-29560 3101 L-29521 3099 L-29491 3097 L-29476 3095 L-29404 3092 L-29384 3089 L-29362 3088 L-29346 3086 L-29327 3085 L-29287 3085 L-29210 3082 L-29191 3081 L-29173 3078 L-29152 3077 L-29126 3076 L-29094 3074 L-29075 3074 L-29056 3072 L-29018 3069 L-28977 3065 L-28899 3061 L-28863 3058 L-28824 3055 L-28746 3054 L-28727 3053 L-28682 3051 L-28660 3053 L-28632 3053 L-28593 3050 L-28562 3049 L-28547 3046 L-28533 3043 L-28493 3040 L-28431 3039 L-28417 3036 L-28398 3034 L-28378 3031 L-28301 3027 L-28263 3024 L-28244 3022 L-28197 3020 L-28181 3019 L-28162 3018 L-28146 3016 L-28108 3012 L-28088 3009 L-28069 3005 L-28047 3003 L-28031 3000 L-27991 2997 L-27953 2995 L-27934 2992 L-27914 2988 L-27895 2982 L-27876 2977 L-27857 2972 L-27837 2969 L-27817 2968 L-27754 2966 L-27731 2965 L-27704 2964 L-27680 2959 L-27653 2955 L-27637 2950 L-27621 2945 L-27584 2942 L-27566 2939 L-27546 2938 L-27526 2936 L-27504 2934 L-27488 2932 L-27469 2931 L-27450 2927 L-27428 2922 L-27411 2918 L-27391 2914 L-27373 2911 L-27352 2908 L-27334 2907 L-27315 2904 L-27269 2903 L-27252 2900 L-27234 2897 L-27218 2893 L-27197 2889 L-27179 2885 L-27159 2881 L-27140 2876 L-27102 2874 L-27083 2873 L-27040 2872 L-27025 2870 L-27006 2866 L-26986 2862 L-26947 2860 L-26928 2858 L-26909 2855 L-26870 2854 L-26851 2851 L-26825 2849 L-26775 2847 L-26738 2846 L-26722 2845 L-26676 2843 L-26638 2841 L-26618 2839 L-26598 2837 L-26575 2835 L-26560 2833 L-26541 2830 L-26499 2828 L-26483 2826 L-26444 2822 L-26423 2819 L-26406 2815 L-26365 2811 L-26340 2808 L-26324 2805 L-26290 2803 L-26269 2799 L-26251 2793 L-26231 2787 L-26190 2780 L-26174 2773 L-26096 2769 L-26077 2766 L-26038 2765 L-26019 2762 L-26000 2760 L-25980 2760 L-25961 2758 L-25941 2758 L-25846 2760 L-25821 2758 L-25794 2757 L-25763 2754 L-25748 2751 L-25727 2749 L-25689 2746 L-25669 2743 L-25646 2741 L-25631 2739 L-25612 2738 L-25593 2735 L-25571 2733 L-25554 2730 L-25534 2727 L-25515 2724 L-25494 2722 L-25477 2718 L-25458 2715 L-25437 2714 L-25411 2711 L-25395 2707 L-25377 2703 L-25339 2699 L-25322 2693 L-25302 2689 L-25283 2685 L-25261 2680 L-25225 2677 L-25206 2673 L-25183 2669 L-25168 2666 L-25149 2664 L-25129 2661 L-25090 2658 L-25051 2657 L-25032 2656 L-25013 2653 L-24968 2652 L-24866 2652 L-24850 2650 L-24718 2649 L-24703 2647 L-24684 2642 L-24664 2638 L-24642 2635 L-24606 2631 L-24587 2630 L-24566 2629 L-24508 2626 L-24483 2623 L-24467 2620 L-24449 2616 L-24432 2614 L-24412 2612 L-24394 2611 L-24355 2608 L-24333 2607 L-24297 2606 L-24277 2604 L-24255 2603 L-24200 2603 L-24180 2602 L-24123 2600 L-24084 2599 L-24017 2597 L-23990 2595 L-23966 2592 L-23940 2589 L-23907 2587 L-23891 2585 L-23870 2583 L-23852 2587 L-23832 2589 L-23813 2593 L-23792 2597 L-23775 2596 L-23679 2595 L-23620 2593 L-23580 2592 L-23555 2588 L-23524 2585 L-23485 2583 L-23446 2579 L-23426 2576 L-23388 2573 L-23349 2570 L-23311 2568 L-23292 2566 L-23253 2564 L-23233 2561 L-23214 2560 L-23194 2558 L-23175 2557 L-23156 2556 L-23137 2553 L-23110 2549 L-23060 2545 L-23021 2542 L-22991 2539 L-22976 2537 L-22962 2535 L-22923 2533 L-22904 2530 L-22862 2527 L-22846 2525 L-22827 2522 L-22787 2518 L-22750 2515 L-22710 2512 L-22672 2511 L-22626 2508 L-22612 2507 L-22536 2506 L-22498 2504 L-22478 2504 L-22459 2502 L-22440 2500 L-22343 2498 L-22304 2495 L-22246 2492 L-22227 2489 L-22208 2487 L-22182 2487 L-22160 2485 L-22094 2484 L-22076 2484 L-22061 2483 L-22048 2481 L-22012 2480 L-21955 2479 L-21931 2476 L-21898 2473 L-21878 2471 L-21840 2466 L-21819 2462 L-21801 2458 L-21780 2456 L-21763 2453 L-21744 2452 L-21722 2449 L-21697 2446 L-21646 2445 L-21625 2442 L-21569 2441 L-21549 2438 L-21453 2437 L-21434 2434 L-21395 2433 L-21376 2431 L-21357 2427 L-21318 2426 L-21298 2425 L-21280 2423 L-21231 2422 L-21180 2422 L-21153 2421 L-21137 2418 L-21120 2417 L-21105 2414 L-21066 2411 L-21046 2410 L-21026 2407 L-20969 2404 L-20950 2402 L-20927 2398 L-20911 2395 L-20891 2391 L-20873 2388 L-20815 2384 L-20794 2380 L-20769 2376 L-20733 2371 L-20718 2367 L-20698 2364 L-20679 2361 L-20659 2360 L-20640 2357 L-20618 2354 L-20602 2353 L-20582 2352 L-20563 2350 L-20541 2348 L-20525 2345 L-20506 2342 L-20486 2340 L-20466 2338 L-20428 2337 L-20409 2333 L-20389 2329 L-20324 2323 L-20303 2319 L-20274 2317 L-20235 2313 L-20203 2308 L-20189 2304 L-20155 2302 L-20117 2299 L-20098 2298 L-20075 2295 L-20060 2294 L-20041 2291 L-20021 2287 L-19983 2286 L-19963 2283 L-19923 2281 L-19865 2279 L-19840 2277 L-19805 2275 L-19789 2272 L-19768 2269 L-19751 2267 L-19712 2264 L-19690 2263 L-19673 2260 L-19653 2257 L-19634 2253 L-19611 2250 L-19596 2246 L-19577 2244 L-19500 2242 L-19480 2240 L-19460 2237 L-19441 2234 L-19422 2231 L-19397 2229 L-19322 2226 L-19296 2223 L-19280 2219 L-19264 2218 L-19248 2215 L-19227 2213 L-19209 2210 L-19170 2209 L-19147 2207 L-19132 2206 L-19113 2203 L-19093 2202 L-19071 2199 L-19054 2198 L-18958 2195 L-18937 2192 L-18912 2191 L-18878 2188 L-18861 2186 L-18840 2183 L-18822 2180 L-18802 2179 L-18783 2177 L-18762 2176 L-18745 2173 L-18726 2171 L-18706 2168 L-18683 2165 L-18667 2163 L-18649 2161 L-18609 2159 L-18590 2156 L-18551 2153 L-18494 2152 L-18468 2149 L-18446 2146 L-18418 2144 L-18394 2141 L-18368 2138 L-18335 2137 L-18319 2136 L-18299 2136 L-18281 2136 L-18260 2136 L-18241 2136 L-18203 2133 L-18184 2130 L-18164 2126 L-18143 2123 L-18107 2121 L-18087 2119 L-18066 2117 L-18048 2114 L-18030 2113 L-18009 2110 L-17983 2107 L-17968 2105 L-17950 2102 L-17932 2098 L-17912 2095 L-17893 2091 L-17874 2087 L-17855 2084 L-17797 2080 L-17777 2079 L-17755 2076 L-17662 2073 L-17623 2072 L-17604 2082 L-17584 2091 L-17565 2106 L-17468 2121 L-17440 2125 L-17408 2129 L-17391 2127 L-17291 2126 L-17275 2123 L-17256 2122 L-17236 2119 L-17216 2117 L-17197 2113 L-17179 2109 L-17159 2105 L-17139 2100 L-17101 2098 L-17080 2096 L-17023 2095 L-17004 2099 L-16985 2119 L-16965 2140 L-16946 2159 L-16926 2173 L-16906 2173 L-16849 2173 L-16827 2175 L-16792 2173 L-16771 2172 L-16714 2171 L-16694 2169 L-16656 2173 L-16637 2176 L-16610 2179 L-16560 2182 L-16521 2179 L-16462 2176 L-16442 2173 L-16423 2172 L-16384 2171 L-16346 2169 L-16307 2168 L-16230 2167 L-16210 2165 L-16191 2164 L-16095 2163 L-16075 2163 L-15998 2161 L-15941 2160 L-15882 2157 L-15843 2155 L-15824 2153 L-15805 2150 L-15786 2146 L-15660 2142 L-15578 2138 L-15563 2134 L-15548 2130 L-15512 2127 L-15475 2125 L-15455 2123 L-15432 2121 L-15417 2119 L-15398 2117 L-15340 2114 L-15319 2098 L-15301 2079 L-15280 2060 L-15263 2040 L-15244 2034 L-15223 2032 L-15197 2029 L-15181 2026 L-15162 2023 L-15146 2021 L-15126 2014 L-15108 2007 L-15088 2001 L-15047 1994 L-15011 1990 L-14991 1987 L-14968 1984 L-14934 1980 L-14894 1979 L-14876 1976 L-14837 1974 L-14818 1971 L-14798 1969 L-14780 1968 L-14754 1965 L-14731 1963 L-14679 1959 L-14653 1956 L-14637 1955 L-14620 1952 L-14605 1951 L-14584 1948 L-14566 1947 L-14546 1945 L-14470 1944 L-14450 1942 L-14428 1940 L-14411 1934 L-14391 1930 L-14352 1926 L-14315 1922 L-14294 1920 L-14269 1917 L-14252 1915 L-14234 1913 L-14197 1911 L-14179 1910 L-14159 1907 L-14140 1906 L-14119 1903 L-14102 1899 L-14082 1897 L-14063 1894 L-14040 1892 L-13986 1891 L-13966 1888 L-13947 1887 L-13889 1884 L-13825 1882 L-13803 1878 L-13724 1875 L-13692 1871 L-13655 1868 L-13638 1867 L-13618 1864 L-13575 1863 L-13560 1860 L-13521 1856 L-13499 1852 L-13483 1848 L-13463 1843 L-13423 1838 L-13406 1834 L-13387 1832 L-13365 1828 L-13340 1825 L-13323 1821 L-13305 1817 L-13268 1813 L-13230 1810 L-13212 1806 L-13190 1803 L-13154 1802 L-13111 1799 L-13057 1797 L-13019 1794 L-13000 1791 L-12980 1787 L-12960 1784 L-12897 1782 L-12822 1778 L-12779 1776 L-12763 1774 L-12748 1771 L-12709 1770 L-12689 1768 L-12646 1767 L-12631 1767 L-12613 1766 L-12593 1764 L-12571 1761 L-12554 1759 L-12534 1756 L-12494 1752 L-12458 1748 L-12437 1744 L-12412 1740 L-12395 1737 L-12376 1734 L-12361 1732 L-12339 76612 L-12308 76607 L-12283 76601 L-12260 76596 L-12245 1707 L-12225 1706 L-12206 1703 L-12168 1699 L-12149 1695 L-12129 1691 L-12108 1686 L-12051 1682 L-12032 1678 L-12013 1674 L-11968 1672 L-11946 1670 L-11918 1667 L-11893 1664 L-11866 1662 L-11835 1659 L-11798 1656 L-11780 1655 L-11760 1652 L-11684 1651 L-11664 1649 L-11642 1649 L-11626 1651 L-11606 1651 L-11508 1652 L-11483 1649 L-11467 1648 L-11449 1645 L-11432 1641 L-11394 1639 L-11374 1636 L-11333 1633 L-11297 1632 L-11277 1629 L-11255 1628 L-11239 1625 L-11200 1624 L-11143 1622 L-11103 1620 L-11017 1616 L-10989 1613 L-10966 1609 L-10925 1605 L-10852 1603 L-10833 1602 L-10775 1602 L-10756 1603 L-10736 1601 L-10715 1598 L-10678 1595 L-10638 1593 L-10620 1591 L-10580 1591 L-10555 1590 L-10504 1589 L-10465 1587 L-10406 1585 L-10388 1583 L-10369 1581 L-10328 1579 L-10253 1575 L-10233 1572 L-10214 1567 L-10156 1562 L-10137 1558 L-10110 1553 L-10088 1551 L-10022 1548 L-9992 1547 L-9978 1544 L-9942 1543 L-9904 1540 L-9863 1537 L-9827 1535 L-9807 1532 L-9787 1531 L-9769 1529 L-9750 1528 L-9730 1526 L-9710 1525 L-9691 1524 L-9612 1522 L-9556 1521 L-9537 1518 L-9518 1517 L-9477 1517 L-9459 1517 L-9399 1517 L-9363 1516 L-9343 1513 L-9304 1512 L-9266 1509 L-9246 1506 L-9208 1504 L-9092 1501 L-9061 1499 L-9046 1497 L-9012 1494 L-8995 1493 L-8974 1490 L-8931 1489 L-8898 1486 L-8840 1485 L-8819 1482 L-8779 1482 L-8723 1481 L-8697 1479 L-8680 1477 L-8646 1474 L-8625 1471 L-8607 1468 L-8588 1466 L-8531 1463 L-8511 1460 L-8469 1458 L-8453 1455 L-8414 1451 L-8395 1447 L-8376 1444 L-8337 1441 L-8317 1439 L-8298 1437 L-8280 1435 L-8231 1432 L-8204 1429 L-8178 1428 L-8151 1425 L-8135 1422 L-8120 1420 L-8084 1416 L-8026 1413 L-7989 1409 L-7950 1406 L-7928 1404 L-7911 1401 L-7891 1397 L-7851 1394 L-7834 1391 L-7815 1389 L-7794 1385 L-7768 1382 L-7751 1378 L-7733 1375 L-7718 1371 L-7696 1368 L-7679 1366 L-7659 1363 L-7640 1362 L-7618 1359 L-7602 1356 L-7583 1355 L-7540 1350 L-7525 1346 L-7506 1340 L-7486 1333 L-7466 1328 L-7447 1324 L-7408 1318 L-7325 1316 L-7303 1312 L-7275 1308 L-7236 1305 L-7206 1302 L-7191 1300 L-7155 1298 L-7117 1296 L-7075 1296 L-7060 1294 L-7021 1293 L-6962 1290 L-6944 1287 L-6922 1283 L-6887 1282 L-6865 1281 L-6840 1279 L-6823 1278 L-6789 1275 L-6768 1273 L-6751 1270 L-6731 1266 L-6712 1262 L-6673 1258 L-6653 1254 L-6634 1250 L-6611 1247 L-6596 1246 L-6537 1243 L-6519 1240 L-6500 1237 L-6480 1232 L-6460 1229 L-6423 1225 L-6396 1223 L-6346 1220 L-6308 1219 L-6276 1217 L-6262 1216 L-6248 1214 L-6189 1212 L-6169 1210 L-6131 1208 L-6112 1205 L-6092 1202 L-6054 1200 L-6034 1196 L-6015 1193 L-5994 1189 L-5958 1185 L-5937 1182 L-5911 1179 L-5861 1178 L-5822 1175 L-5802 1171 L-5761 1167 L-5745 1163 L-5725 1159 L-5683 1155 L-5668 1152 L-5649 1150 L-5629 1147 L-5608 1144 L-5590 1143 L-5571 1142 L-5552 1140 L-5446 1138 L-5380 1136 L-5349 1132 L-5319 1129 L-5280 1127 L-5260 1125 L-5203 1123 L-5184 1120 L-5164 1116 L-5142 1112 L-5126 1108 L-5087 1105 L-5066 1101 L-5048 1097 L-5030 1096 L-5008 1093 L-4983 1089 L-4967 1086 L-4949 1082 L-4932 1079 L-4911 1078 L-4893 1077 L-4873 1075 L-4855 1073 L-4833 1071 L-4816 1071 L-4777 1071 L-4755 1071 L-4720 1071 L-4680 1069 L-4662 1067 L-4643 1065 L-4623 1061 L-4603 1058 L-4584 1054 L-4566 1050 L-4517 1048 L-4489 1046 L-4466 1043 L-4440 1042 L-4407 1039 L-4352 1036 L-4332 1035 L-4313 1032 L-4291 1031 L-4275 1028 L-4256 1027 L-4197 1025 L-4178 1024 L-4159 1021 L-4101 1020 L-4080 1017 L-4004 1016 L-3985 1013 L-3965 1011 L-3946 1008 L-3905 1004 L-3888 998 L-3869 996 L-3849 992 L-3772 990 L-3752 989 L-3675 986 L-3560 984 L-3520 981 L-3488 979 L-3474 978 L-3461 977 L-3441 975 L-3423 974 L-3384 971 L-3346 970 L-3327 967 L-3307 966 L-3230 963 L-3151 961 L-3126 959 L-3112 958 L-3075 957 L-3056 957 L-3037 955 L-3018 954 L-2960 951 L-2940 950 L-2920 947 L-2898 946 L-2843 943 L-2823 940 L-2727 938 L-2708 935 L-2660 935 L-2632 934 L-2591 934 L-2531 931 L-2511 930 L-2495 927 L-2474 925 L-2455 924 L-2431 921 L-2417 920 L-2398 917 L-2378 915 L-2356 913 L-2319 911 L-2301 909 L-2279 907 L-2244 904 L-2223 903 L-2180 901 L-2162 898 L-2146 896 L-2126 892 L-2108 889 L-2088 886 L-2069 884 L-2047 881 L-2030 878 L-2011 876 L-1967 873 L-1934 870 L-1914 867 L-1893 863 L-1876 861 L-1857 858 L-1837 855 L-1817 854 L-1798 853 L-1780 851 L-1753 851 L-1664 850 L-1633 847 L-1619 844 L-1583 842 L-1546 839 L-1526 838 L-1504 835 L-1489 834 L-1469 831 L-1450 830 L-1411 827 L-1391 824 L-1372 827 L-1351 828 L-1328 828 L-1315 828 L-1294 824 L-1268 820 L-1232 816 L-1218 812 L-1198 808 L-1178 808 L-1159 808 L-1140 808 L-1118 807 L-1102 803 L-1082 800 L-1039 796 L-1025 794 L-1006 792 L-965 789 L-947 788 L-928 784 L-908 781 L-889 778 L-870 776 L-851 774 L-803 772 L-735 770 L-703 769 L-676 767 L-654 766 L-637 765 L-617 763 L-598 762 L-574 762 L-560 761 L-541 759 L-521 755 L-498 751 L-482 749 L-462 746 L-444 744 L-386 742 L-365 739 L-340 736 L-322 734 L-304 731 L-289 728 L-267 726 L-250 723 L-230 722 L-212 719 L-189 719 L-173 717 L-154 716 L-110 713 L-96 712 L-77 709 L-57 708 L-37 707 L-19 704 L0 701 L58 699 L153 697 L191 695 L208 693 L223 690 L236 689 L251 686 L272 685 L310 682 L330 681 L353 680 L368 678 L387 676 L407 673 L429 669 L446 663 L484 661 L505 657 L522 654 L588 651 L605 649 L623 647 L639 645 L660 643 L677 641 L697 638 L716 635 L738 631 L754 626 L774 622 L817 618 L832 615 L850 612 L871 608 L891 605 L928 601 L948 599 L968 596 L1030 593 L1081 591 L1106 589 L1133 586 L1149 582 L1219 580 L1239 577 L1258 573 L1281 572 L1296 569 L1374 566 L1393 562 L1412 559 L1434 557 L1452 553 L1470 550 L1491 547 L1516 545 L1533 543 L1552 541 L1567 538 L1588 537 L1606 534 L1626 534 L1644 532 L1667 531 L1703 528 L1722 526 L1744 523 L1760 522 L1779 519 L1799 518 L1820 515 L1838 514 L1856 511 L1876 507 L1934 504 L1982 501 L2079 500 L2109 497 L2147 496 L2167 495 L2243 493 L2263 492 L2302 491 L2321 489 L2361 487 L2379 484 L2398 481 L2419 480 L2444 478 L2459 477 L2476 474 L2495 473 L2534 472 L2553 469 L2573 468 L2594 465 L2630 464 L2650 462 L2766 462 L2785 461 L2805 460 L2862 458 L2939 458 L2978 458 L3024 458 L3037 458 L3076 457 L3096 455 L3138 454 L3153 451 L3172 450 L3192 447 L3269 446 L3289 446 L3326 445 L3347 443 L3405 442 L3443 439 L3463 438 L3482 435 L3523 433 L3540 431 L3579 431 L3601 431 L3617 433 L3636 434 L3695 433 L3713 433 L3754 431 L3772 431 L3791 431 L3818 428 L3839 427 L3868 426 L3943 423 L3956 422 L4004 419 L4025 416 L4069 415 L4082 414 L4121 412 L4144 411 L4160 410 L4180 408 L4198 407 L4220 405 L4255 403 L4276 401 L4302 399 L4319 397 L4338 395 L4353 393 L4373 391 L4391 388 L4411 385 L4430 384 L4453 383 L4488 381 L4508 380 L4531 376 L4546 372 L4565 366 L4585 362 L4604 360 L4623 357 L4662 354 L4682 350 L4701 347 L4796 345 L4835 341 L4866 337 L4881 333 L4916 329 L4933 326 L4954 324 L4973 320 L4997 318 L5010 314 L5030 308 L5049 306 L5072 303 L5088 299 L5108 296 L5126 292 L5148 291 L5165 288 L5184 285 L5266 283 L5303 280 L5320 276 L5341 272 L5397 268 L5436 264 L5474 260 L5493 258 L5513 256 L5534 253 L5552 249 L5571 245 L5591 242 L5611 241 L5696 239 L5724 237 L5765 234 L5797 231 L5811 229 L5846 227 L5882 225 L5901 223 L5925 220 L5959 219 L5978 216 L6001 214 L6016 210 L6055 207 L6113 202 L6159 196 L6177 191 L6195 185 L6210 181 L6231 177 L6249 175 L6287 172 L6311 170 L6326 169 L6346 166 L6365 164 L6389 161 L6403 158 L6422 156 L6480 153 L6500 150" />
</svg>
