<svg xmlns="http://www.w3.org/2000/svg" version="1.1" viewBox="0 0 6500 1000">
	<path fill="none" stroke="gold" stroke-width="125" stroke-linecap="round" stroke-linejoin="round" d="M0 68560  L-317048 68560 L-316864 68504 L-316374 68391 L-316080 68335 L-315769 68222 L-315534 68165 L-315481 68053 L-315422 67940 L-315268 67883 L-315228 67771 L-315095 67714 L-314803 67658 L-314262 67658 L-313652 67601 L-313604 67601 L-312964 67545 L-312931 67545 L-312405 67545 L-312272 67489 L-311882 67376 L-311554 67263 L-311437 67150 L-311226 67037 L-310509 67037 L-309939 66981 L-309832 66981 L-309657 66924 L-309436 66812 L-309034 66755 L-309008 66642 L-308080 66530 L-307993 66417 L-307911 66304 L-307841 66191 L-307543 66135 L-307391 66022 L-305501 66078 L-305400 66078 L-305138 66078 L-304844 66135 L-304703 66022 L-304454 66022 L-304419 65966 L-304260 65909 L-303797 65796 L-303544 65740 L-303331 65627 L-303080 65571 L-302731 65514 L-301804 65402 L-301710 65289 L-301299 65232 L-300129 65120 L-298940 65063 L-298847 64950 L-298820 64838 L-298554 64725 L-298255 64612 L-298126 64499 L-298089 64386 L-297274 64386 L-296890 64443 L-295830 64499 L-295768 64499 L-295503 65627 L-295032 66699 L-294839 67771 L-294576 68842 L-294239 68786 L-294103 68729 L-293648 68673 L-292905 68617 L-292887 68560 L-292722 68447 L-292654 68447 L-292138 68391 L-291109 68391 L-290913 68335 L-290424 68278 L-290062 68222 L-289653 68222 L-289268 68278 L-287564 68278 L-287466 68278 L-287395 68278 L-287333 68278 L-287149 68222 L-286812 68222 L-286172 68165 L-286095 68109 L-286034 68109 L-285847 68053 L-285767 68053 L-285590 67996 L-285571 67940 L-285341 67940 L-284953 67883 L-284065 67883 L-284025 67827 L-283937 67771 L-283910 67658 L-282902 67601 L-282752 67489 L-282728 67432 L-282595 67376 L-282555 67319 L-281297 67263 L-281239 67263 L-280699 67206 L-280647 67206 L-280600 67206 L-280205 67150 L-280065 67094 L-279865 67037 L-279719 67037 L-279554 67037 L-279277 67094 L-278919 67094 L-278366 67037 L-277721 66981 L-277463 66868 L-277309 66812 L-276908 66755 L-276868 66699 L-276747 66642 L-276685 66699 L-276671 66699 L-276578 66699 L-276284 66642 L-276133 66417 L-275803 66304 L-275725 66191 L-275649 66135 L-275422 65966 L-275356 65853 L-275128 65740 L-275076 65627 L-274911 65571 L-273905 65514 L-273722 65458 L-273171 65402 L-272778 65289 L-272380 65232 L-271530 65120 L-271452 65063 L-270873 65007 L-270432 65007 L-270191 64950 L-270033 64950 L-269633 64838 L-269612 64838 L-269167 64781 L-268762 64725 L-268626 64612 L-268451 64499 L-268314 64386 L-268064 64274 L-267064 64217 L-266982 64161 L-266847 64104 L-266808 64048 L-265918 63992 L-265702 63935 L-265259 63879 L-265142 63822 L-265085 63766 L-264409 63766 L-264308 63710 L-264280 63710 L-262938 63653 L-262532 63597 L-262493 63540 L-261564 63484 L-261466 63428 L-261333 63371 L-260929 63315 L-260903 63258 L-260810 63202 L-260594 63146 L-260182 63033 L-259029 62920 L-258737 62807 L-258708 62694 L-258100 62638 L-257850 62525 L-257831 62469 L-256901 62412 L-256850 62300 L-256727 62243 L-256710 62130 L-256554 62074 L-256379 61961 L-256242 61905 L-256186 61848 L-256078 61792 L-255993 61736 L-255759 61679 L-255684 61623 L-255376 61566 L-255258 61510 L-255088 61454 L-254997 61397 L-254894 61397 L-254871 61341 L-254794 61341 L-254696 61228 L-254329 61172 L-254225 61115 L-253721 61059 L-253269 61002 L-253231 60946 L-253207 60890 L-253166 60833 L-253038 60777 L-252937 60720 L-252495 60664 L-252213 60608 L-251621 60551 L-251490 60495 L-251216 60382 L-251063 60326 L-250910 60269 L-250825 60156 L-250747 60100 L-250561 60043 L-250511 60043 L-250483 59987 L-250404 59931 L-250380 59874 L-250097 59761 L-249493 59649 L-248498 59592 L-248200 59536 L-247466 59479 L-247221 59423 L-247132 59367 L-246554 59310 L-245856 59254 L-245104 59197 L-244785 59141 L-244402 59028 L-244325 58972 L-243691 58915 L-243505 58859 L-243417 58859 L-243288 58859 L-242975 58803 L-242926 58746 L-242784 58690 L-242762 58633 L-241794 58577 L-241249 58521 L-240771 58521 L-240710 58521 L-240386 58521 L-240365 58464 L-240302 58464 L-240092 58408 L-240015 58351 L-239961 58295 L-239938 58239 L-239899 58182 L-239883 58126 L-239126 58069 L-239109 58013 L-238310 57957 L-238157 57900 L-237252 57844 L-236746 57787 L-236517 57675 L-236475 57675 L-236360 57618 L-236184 57562 L-235429 57618 L-235294 57562 L-235130 57505 L-234812 57449 L-234636 57336 L-233614 57223 L-233591 57111 L-233340 57054 L-233127 56941 L-232493 56885 L-232255 56772 L-232222 56659 L-232044 56547 L-231964 56434 L-231874 56377 L-231810 56265 L-231369 56152 L-231346 56095 L-230805 56039 L-230549 55983 L-230054 55926 L-229177 55870 L-229140 55813 L-229088 55757 L-229047 55701 L-228929 55644 L-228653 55588 L-228446 55475 L-228249 55362 L-228225 55249 L-228175 55137 L-228136 55080 L-228058 55024 L-227461 54911 L-227400 54855 L-227297 54798 L-227143 54742 L-226511 54685 L-225830 54629 L-225527 54516 L-225181 54460 L-224983 54403 L-224935 54291 L-224614 54234 L-223987 54178 L-223840 54121 L-223804 54065 L-223746 54009 L-223669 53896 L-223428 53896 L-223340 53839 L-223246 53783 L-222952 53727 L-222818 53670 L-222757 53614 L-222720 53501 L-222448 53501 L-221442 53445 L-221267 53388 L-221216 53388 L-220923 53332 L-220731 53219 L-220398 53163 L-219891 53106 L-219329 52993 L-219314 52880 L-219298 52824 L-219197 52711 L-219083 52598 L-219043 52486 L-219006 52429 L-218940 52429 L-218912 52373 L-218773 52429 L-218480 52429 L-218430 52429 L-218325 52429 L-218061 52373 L-217596 52316 L-217451 52316 L-217397 52204 L-217339 52147 L-217148 52091 L-216783 52034 L-216569 52034 L-216374 52034 L-216316 52034 L-216257 51922 L-216103 51865 L-215834 51809 L-215404 52091 L-215388 52091 L-215311 52034 L-215247 51978 L-215118 51583 L-215094 51527 L-214810 51470 L-214762 51414 L-214708 51358 L-214245 51301 L-214207 51301 L-214166 51245 L-213976 51188 L-213495 51132 L-213008 51076 L-212992 51019 L-212954 50963 L-212697 50906 L-212620 50794 L-212390 50737 L-212374 50624 L-212080 50512 L-211637 50455 L-211190 50399 L-210686 50342 L-210532 50286 L-210245 50230 L-210205 50117 L-209874 50060 L-209652 50004 L-209135 49891 L-209059 49835 L-208812 49722 L-208617 49609 L-208557 49553 L-207781 49496 L-207707 49496 L-207476 49440 L-207460 49440 L-207398 49384 L-207202 49327 L-206738 49327 L-206715 49271 L-206585 49271 L-205284 49271 L-205268 49271 L-205190 49214 L-205097 49214 L-204880 49214 L-204727 49158 L-204549 49214 L-204495 49271 L-204208 49327 L-204168 49327 L-203799 49327 L-203359 49327 L-203175 49327 L-202854 49271 L-202559 49271 L-202113 49158 L-202041 49102 L-201579 48989 L-201141 48932 L-200959 48876 L-199505 48763 L-199373 48707 L-198916 48594 L-198690 48538 L-198304 48425 L-197787 48312 L-196833 48199 L-196039 48086 L-195364 48030 L-194939 47917 L-194628 47861 L-194398 47692 L-193714 47522 L-193701 47353 L-193491 47128 L-193469 47071 L-193295 46958 L-192345 46902 L-192077 46789 L-191262 46733 L-190951 46620 L-190914 46564 L-190856 46451 L-190240 46394 L-189602 46282 L-187976 46225 L-187302 46169 L-186660 46169 L-186582 46169 L-186526 46169 L-186490 46169 L-186462 46112 L-186350 46000 L-186332 45943 L-186309 45887 L-186156 45830 L-186102 45717 L-186024 45661 L-185905 45605 L-185807 45548 L-185690 45492 L-185420 45379 L-185151 45323 L-185133 45210 L-184933 45153 L-184787 45041 L-184560 44984 L-184426 44928 L-184117 44871 L-184057 44815 L-183704 44702 L-183355 44646 L-183254 44589 L-183190 44477 L-183130 44420 L-182746 44307 L-182365 44251 L-182261 44195 L-182000 44138 L-181729 44025 L-181570 43969 L-181537 43913 L-181476 43856 L-181334 43800 L-181150 43743 L-181106 43687 L-180818 43687 L-180802 43631 L-180568 43631 L-180507 43574 L-180469 43574 L-179889 43518 L-179756 43461 L-179732 43236 L-179714 42841 L-179697 42390 L-179680 41939 L-179656 41487 L-179640 41149 L-179619 40754 L-179602 40359 L-179579 40134 L-179562 39908 L-179540 39739 L-179524 39626 L-179475 39457 L-179403 39288 L-179368 39006 L-179344 38780 L-179308 38554 L-179267 38329 L-179230 38216 L-179214 37990 L-179190 37821 L-179153 37708 L-179136 37539 L-179113 37426 L-179095 37314 L-179077 37201 L-179061 37088 L-179032 36919 L-179006 36750 L-178960 36693 L-178944 36580 L-178902 36524 L-178854 36411 L-178783 36298 L-178768 36186 L-178752 36073 L-178689 36016 L-178650 35960 L-178611 35904 L-178445 35847 L-178380 35791 L-178364 35734 L-178320 35622 L-178261 35565 L-178049 35509 L-178015 35452 L-177973 35396 L-177895 35340 L-177358 35283 L-177279 35227 L-177175 35114 L-177086 35058 L-176910 35001 L-176560 34945 L-176404 34888 L-175966 34832 L-175809 34776 L-175679 34719 L-174976 34606 L-174774 34550 L-173814 34437 L-173331 34381 L-173232 34381 L-173140 34324 L-172895 34268 L-172822 34212 L-172379 34099 L-172283 34042 L-172268 33986 L-172252 33930 L-172227 33873 L-171761 33817 L-171544 33760 L-171405 33704 L-171111 33648 L-171022 33591 L-170981 33535 L-170951 33478 L-170779 33422 L-170720 33366 L-170643 33309 L-170563 33253 L-170493 33253 L-170184 33196 L-170099 33140 L-169885 33084 L-169850 33027 L-169166 32971 L-169068 32914 L-168862 32858 L-168816 32802 L-168537 32745 L-168475 32689 L-168458 32576 L-168380 32520 L-168072 32407 L-168048 32350 L-167994 32238 L-167971 32181 L-167849 32125 L-167713 32012 L-167469 31956 L-167343 31956 L-166696 31899 L-166680 31899 L-166656 31899 L-166475 31786 L-166399 31730 L-166307 31673 L-165880 31617 L-165464 31561 L-165071 31448 L-164992 31391 L-164973 31335 L-164610 31279 L-164373 31222 L-164145 31166 L-163832 31109 L-163754 31053 L-163673 30940 L-163495 30827 L-163480 30771 L-163214 30658 L-163134 30602 L-162904 30545 L-162678 30489 L-162362 30489 L-162187 30433 L-161826 30433 L-161434 30376 L-161365 30263 L-161301 30207 L-161161 30094 L-161109 30038 L-161007 29925 L-160506 29869 L-160308 29812 L-160062 29756 L-159876 29699 L-159577 29643 L-159500 29587 L-159334 29474 L-158450 29417 L-158421 29305 L-158298 29192 L-157720 29135 L-157642 29079 L-156928 29079 L-156616 29079 L-156403 29079 L-156387 29079 L-156000 29079 L-155475 28966 L-155029 28910 L-154699 28853 L-154547 28797 L-154221 28797 L-154042 28741 L-153961 28741 L-153754 28628 L-153579 28571 L-152650 28515 L-151761 28459 L-151722 28402 L-151494 28402 L-151114 28346 L-150327 28289 L-150093 28233 L-150017 28177 L-149659 28120 L-149087 28007 L-148821 27951 L-148434 27895 L-148330 27895 L-148160 27895 L-147542 27895 L-147331 27895 L-147023 27895 L-146970 27838 L-146842 27782 L-146789 27725 L-146670 27669 L-146334 27556 L-145374 27500 L-145243 27387 L-145041 27331 L-144410 27274 L-144099 27218 L-143685 27161 L-143657 27105 L-143512 27049 L-143092 26992 L-141759 26992 L-141712 26936 L-141584 26823 L-141567 26767 L-140989 26654 L-140784 26597 L-140754 26541 L-140713 26485 L-140656 26428 L-140618 26372 L-140540 26315 L-140397 26259 L-139943 26203 L-139824 26146 L-139539 26090 L-139166 26033 L-139070 25977 L-138743 25921 L-138389 25864 L-138219 25808 L-138172 25751 L-138063 25695 L-137974 25639 L-137946 25582 L-137869 25469 L-137566 25413 L-137532 25300 L-137460 25244 L-137093 25187 L-136757 25131 L-136676 25131 L-136456 25075 L-136285 25018 L-136257 24962 L-135760 24905 L-135211 24793 L-134330 24736 L-134232 24623 L-134155 24567 L-133881 24510 L-133633 24398 L-133559 24341 L-133498 24228 L-133379 24172 L-133336 24116 L-133226 24059 L-133150 23946 L-132449 23890 L-132204 23834 L-132164 23777 L-132007 23721 L-131408 23721 L-131181 23721 L-131089 23721 L-130614 23721 L-130017 23608 L-129497 23552 L-129476 23495 L-129331 23439 L-129011 23439 L-128469 23439 L-128237 23439 L-128066 23439 L-127580 23382 L-127352 23326 L-127267 23270 L-126921 23213 L-126595 23213 L-126072 23157 L-125745 23100 L-125144 23044 L-124947 22931 L-124895 22875 L-124854 22818 L-124573 22762 L-123888 22649 L-123578 22593 L-123553 22480 L-123362 22424 L-123139 22367 L-123053 22311 L-122390 22198 L-122365 22142 L-122144 22029 L-121814 21972 L-121462 21860 L-121257 21803 L-121024 21690 L-120766 21634 L-120577 21521 L-120530 21465 L-120303 21408 L-120268 21352 L-120112 21296 L-119897 21239 L-119724 21183 L-119633 21126 L-119355 21070 L-119112 21014 L-118796 20957 L-118370 20957 L-118333 20957 L-117849 20957 L-117616 20957 L-117404 20901 L-117178 20844 L-116628 20844 L-116381 20788 L-115547 20788 L-115491 20732 L-115469 20675 L-115312 20619 L-114850 20562 L-114809 20506 L-114469 20393 L-114336 20337 L-114113 20280 L-113541 20224 L-113069 20168 L-112875 20111 L-112682 20055 L-112492 19998 L-112391 19942 L-112022 19886 L-111976 19829 L-111895 19773 L-110601 19716 L-110553 19660 L-110284 19660 L-110139 19660 L-109588 19660 L-109472 19604 L-109390 19547 L-109031 19491 L-108807 19434 L-108526 19378 L-108197 19265 L-107689 19209 L-107576 19152 L-107497 19096 L-107333 19040 L-107039 19040 L-106570 19040 L-106373 19096 L-106323 19096 L-105673 19040 L-105551 18983 L-105097 18983 L-105061 18927 L-104593 18870 L-104482 18814 L-104466 18758 L-104250 18758 L-104069 18701 L-103537 18701 L-102508 18701 L-102308 18645 L-101850 18588 L-100902 18476 L-100803 18419 L-100449 18306 L-100389 18250 L-100374 18194 L-100339 18137 L-99969 18081 L-99849 18024 L-99607 17968 L-99444 17912 L-99256 17855 L-99135 17799 L-98065 17686 L-97207 17630 L-96994 17517 L-96897 17460 L-96723 17347 L-96390 17291 L-96318 17235 L-96260 17178 L-96085 17178 L-95696 17122 L-95461 17065 L-95350 17009 L-95232 16953 L-94252 16896 L-94226 16840 L-93632 16727 L-93599 16727 L-93451 16671 L-93166 16614 L-92255 16614 L-91308 16614 L-91155 16558 L-91053 16558 L-90921 16501 L-90778 16445 L-90752 16389 L-90638 16332 L-90419 16276 L-89738 16219 L-89608 16163 L-89305 16107 L-89065 15994 L-88733 15937 L-88094 15881 L-87751 15768 L-87690 15712 L-87534 15712 L-86612 15712 L-86142 15712 L-86098 15712 L-86086 15655 L-86044 15599 L-86022 15543 L-85995 15486 L-85852 15430 L-85429 15373 L-85094 15373 L-84903 15317 L-84474 15317 L-84286 15261 L-83897 15148 L-83363 15091 L-82990 15035 L-82969 15035 L-82719 14979 L-82601 14922 L-82525 14866 L-82389 14809 L-82349 14753 L-82270 14697 L-81875 14640 L-81379 14584 L-81267 14471 L-81094 14415 L-80786 14358 L-80339 14302 L-80016 14245 L-79873 14133 L-79446 14020 L-79293 13907 L-79238 13794 L-78424 13738 L-78404 13681 L-78032 13625 L-77975 13625 L-76846 13569 L-76779 13569 L-76220 13512 L-76025 13456 L-75889 13399 L-75656 13343 L-75309 13287 L-75274 13174 L-75239 13117 L-75171 13005 L-74822 12948 L-74650 12892 L-74165 12835 L-74148 12779 L-73823 12723 L-73666 12666 L-72525 12553 L-72500 12497 L-72308 12384 L-72115 12328 L-71865 12271 L-71847 12215 L-70827 12159 L-70530 12102 L-70454 12046 L-70318 11933 L-70142 11877 L-69565 11764 L-69350 11707 L-69286 11651 L-69155 11595 L-69119 11482 L-68595 11425 L-68457 33648 L-68443 33648 L-68420 33648 L-68400 33648 L-68173 11369 L-67397 11369 L-67355 11369 L-66988 11369 L-66909 11313 L-66857 11256 L-66184 11200 L-65442 11143 L-65017 11143 L-64569 11087 L-63507 11031 L-63196 10918 L-62786 10918 L-62714 10861 L-62189 10861 L-62095 10861 L-62077 10861 L-61632 10805 L-61447 10692 L-60667 10579 L-59994 10523 L-59582 10354 L-59350 10241 L-59210 10184 L-59128 10072 L-59108 10015 L-59032 10015 L-58903 9959 L-58587 10015 L-58362 10015 L-58037 9959 L-57975 9959 L-57605 9959 L-57572 9959 L-57363 9959 L-56696 9959 L-56618 9959 L-56461 9846 L-56350 9846 L-56023 9790 L-55868 9733 L-55528 9733 L-55471 9620 L-55132 9508 L-54929 9451 L-54876 9338 L-53499 9282 L-53370 9226 L-52936 9169 L-52616 9113 L-51788 9000 L-51665 8944 L-50934 8831 L-50778 8718 L-50737 8662 L-50684 8605 L-50660 8549 L-50546 8492 L-50250 8436 L-49960 8380 L-49906 8323 L-49785 8267 L-49755 8210 L-49655 8154 L-49211 8154 L-49060 8098 L-48224 8098 L-47682 8041 L-47347 8041 L-47332 7985 L-47256 7928 L-47140 7872 L-46945 7816 L-46681 7759 L-45847 7703 L-45750 7646 L-45229 7590 L-45187 7534 L-45088 7477 L-44260 7477 L-44125 7421 L-43786 7421 L-43232 7364 L-42852 7308 L-42689 7252 L-42379 7195 L-41567 7139 L-41260 7082 L-40992 7082 L-40670 7082 L-40350 7139 L-40074 7139 L-39245 7026 L-39150 6970 L-39058 6800 L-38953 6631 L-38567 6462 L-38087 6349 L-38070 6293 L-37952 6236 L-37584 6124 L-37489 6067 L-36655 5954 L-36578 5898 L-36278 5842 L-36188 5785 L-35780 5672 L-35670 5560 L-34971 5503 L-34498 5447 L-34438 5390 L-34219 5278 L-33945 5221 L-33832 5165 L-32805 5108 L-32418 5052 L-32398 4996 L-32065 4939 L-31821 4883 L-31387 4826 L-31277 4770 L-31160 4714 L-30708 4601 L-30117 4544 L-29781 4488 L-27888 4432 L-27774 4319 L-27563 4262 L-26244 4206 L-26138 -8483 L-26072 -21005 L-26036 -32567 L-25974 -32567 L-25474 -19989 L-24799 -7581 L-24777 3868 L-24507 3755 L-23539 3755 L-22850 3698 L-22688 3642 L-22147 3586 L-22057 3529 L-21038 3473 L-20090 3360 L-19724 3416 L-19622 3473 L-19033 3473 L-18974 3473 L-18873 3416 L-18433 3304 L-18326 3247 L-17884 3191 L-16884 3021 L-16628 2852 L-16525 2683 L-16395 2570 L-16028 2457 L-15447 2345 L-15416 2288 L-15101 2232 L-13118 2175 L-13002 2119 L-12934 2119 L-12576 2063 L-10957 2006 L-10780 2006 L-10635 2006 L-9813 2063 L-9760 2119 L-9705 2119 L-9271 2119 L-8291 2175 L-8217 2175 L-7132 2119 L-6919 2119 L-6203 2006 L-5815 1950 L-5596 1837 L-5276 1724 L-4783 1611 L-4655 1555 L-4426 1442 L-4194 1329 L-4135 1273 L-3845 1217 L-3573 1104 L-2543 1047 L-878 991 L-459 935 L-322 878 L-165 878 L139 822 L367 709 L525 653 L685 540 L854 427 L901 371 L955 314 L976 314 L1362 258 L1612 258 L1883 258 L2043 258 L2133 258 L3792 258 L3957 314 L4337 258 L4797 258 L5406 145 L6500 89" />
</svg>
