<svg xmlns="http://www.w3.org/2000/svg" version="1.1" viewBox="0 0 6500 1000">
	<path fill="none" stroke="gold" stroke-width="125" stroke-linecap="round" stroke-linejoin="round" d="M0 11406  L-766655 11406 L-766471 11402 L-765981 11393 L-765687 11388 L-765376 11379 L-765142 11374 L-765088 11365 L-765029 11356 L-764876 11351 L-764835 11342 L-764703 11337 L-764410 11333 L-763870 11333 L-763259 11328 L-763211 11328 L-762571 11324 L-762538 11324 L-762012 11324 L-761880 11319 L-761490 11310 L-761161 11301 L-761044 11291 L-760833 11282 L-760116 11282 L-759546 11278 L-759439 11278 L-759264 11273 L-759043 11264 L-758642 11259 L-758616 11250 L-757688 11241 L-757600 11232 L-757518 11222 L-757448 11213 L-757151 11209 L-756999 11199 L-755109 11204 L-755008 11204 L-754746 11204 L-754452 11209 L-754310 11199 L-754062 11199 L-754026 11195 L-753868 11190 L-753404 11181 L-753151 11176 L-752939 11167 L-752687 11163 L-752339 11158 L-751411 11149 L-751318 11140 L-750907 11135 L-749736 11126 L-748547 11121 L-748455 11112 L-748427 11103 L-748161 11094 L-747862 11084 L-747733 11075 L-747696 11066 L-746881 11066 L-746497 11071 L-745437 11075 L-745376 11075 L-745111 11167 L-744639 11255 L-744447 11342 L-744183 11429 L-743846 11425 L-743711 11420 L-743255 11416 L-742512 11411 L-742495 11406 L-742329 11397 L-742261 11397 L-741745 11393 L-740716 11393 L-740520 11388 L-740032 11383 L-739670 11379 L-739261 11379 L-738875 11383 L-737172 11383 L-737074 11383 L-737002 11383 L-736941 11383 L-736756 11379 L-736420 11379 L-735779 11374 L-735702 11370 L-735641 11370 L-735454 11365 L-735375 11365 L-735198 11360 L-735179 11356 L-734949 11356 L-734561 11351 L-733672 11351 L-733633 11347 L-733545 11342 L-733517 11333 L-732509 11328 L-732359 11319 L-732335 11314 L-732202 11310 L-732162 11305 L-730904 11301 L-730846 11301 L-730307 11296 L-730254 11296 L-730207 11296 L-729812 11291 L-729673 11287 L-729473 11282 L-729326 11282 L-729161 11282 L-728885 11287 L-728526 11287 L-727974 11282 L-727329 11278 L-727070 11268 L-726916 11264 L-726515 11259 L-726475 11255 L-726354 11250 L-726293 11255 L-726279 11255 L-726185 11255 L-725892 11250 L-725740 11232 L-725410 11222 L-725332 11213 L-725256 11209 L-725030 11195 L-724963 11186 L-724736 11176 L-724683 11167 L-724519 11163 L-723513 11158 L-723329 11153 L-722778 11149 L-722385 11140 L-721988 11135 L-721138 11126 L-721059 11121 L-720481 11117 L-720039 11117 L-719798 11112 L-719641 11112 L-719240 11103 L-719220 11103 L-718775 11098 L-718369 11094 L-718233 11084 L-718058 11075 L-717922 11066 L-717672 11057 L-716672 11052 L-716590 11048 L-716454 11043 L-716415 11039 L-715526 11034 L-715310 11029 L-714867 11025 L-714749 11020 L-714693 11016 L-714016 11016 L-713916 11011 L-713887 11011 L-712545 11006 L-712139 11002 L-712100 10997 L-711172 10993 L-711073 10988 L-710941 10983 L-710536 10979 L-710510 10974 L-710417 10970 L-710201 10965 L-709790 10956 L-708636 10947 L-708344 10937 L-708316 10928 L-707708 10924 L-707458 10914 L-707438 10910 L-706509 10905 L-706457 10896 L-706335 10891 L-706317 10882 L-706161 10878 L-705986 10868 L-705850 10864 L-705793 10859 L-705685 10855 L-705600 10850 L-705367 10845 L-705292 10841 L-704983 10836 L-704865 10832 L-704696 10827 L-704604 10822 L-704502 10822 L-704479 10818 L-704401 10818 L-704303 10809 L-703937 10804 L-703832 10799 L-703329 10795 L-702877 10790 L-702839 10786 L-702815 10781 L-702774 10776 L-702645 10772 L-702544 10767 L-702103 10763 L-701820 10758 L-701228 10753 L-701098 10749 L-700823 10740 L-700671 10735 L-700517 10730 L-700432 10721 L-700354 10717 L-700169 10712 L-700118 10712 L-700090 10707 L-700011 10703 L-699988 10698 L-699704 10689 L-699101 10680 L-698105 10675 L-697807 10671 L-697073 10666 L-696829 10661 L-696739 10657 L-696162 10652 L-695463 10648 L-694711 10643 L-694392 10638 L-694010 10629 L-693933 10625 L-693298 10620 L-693113 10615 L-693025 10615 L-692895 10615 L-692582 10611 L-692533 10606 L-692391 10602 L-692369 10597 L-691402 10592 L-690856 10588 L-690378 10588 L-690317 10588 L-689993 10588 L-689972 10583 L-689909 10583 L-689699 10579 L-689622 10574 L-689568 10569 L-689545 10565 L-689506 10560 L-689490 10556 L-688733 10551 L-688717 10546 L-687917 10542 L-687765 10537 L-686859 10533 L-686353 10528 L-686124 10519 L-686083 10519 L-685967 10514 L-685791 10510 L-685037 10514 L-684902 10510 L-684738 10505 L-684420 10500 L-684244 10491 L-683222 10482 L-683198 10473 L-682947 10468 L-682734 10459 L-682100 10454 L-681862 10445 L-681830 10436 L-681652 10427 L-681571 10418 L-681481 10413 L-681417 10404 L-680977 10395 L-680953 10390 L-680412 10385 L-680157 10381 L-679662 10376 L-678785 10372 L-678748 10367 L-678695 10362 L-678654 10358 L-678537 10353 L-678260 10349 L-678053 10339 L-677856 10330 L-677833 10321 L-677783 10312 L-677743 10307 L-677665 10303 L-677068 10293 L-677008 10289 L-676904 10284 L-676750 10280 L-676118 10275 L-675437 10270 L-675135 10261 L-674788 10257 L-674590 10252 L-674542 10243 L-674222 10238 L-673594 10234 L-673447 10229 L-673411 10224 L-673353 10220 L-673276 10211 L-673035 10211 L-672947 10206 L-672853 10201 L-672559 10197 L-672425 10192 L-672365 10188 L-672328 10178 L-672056 10178 L-671050 10174 L-670874 10169 L-670823 10169 L-670531 10165 L-670338 10155 L-670005 10151 L-669498 10146 L-668936 10137 L-668922 10128 L-668905 10123 L-668805 10114 L-668690 10105 L-668651 10096 L-668613 10091 L-668548 10091 L-668519 10086 L-668380 10091 L-668088 10091 L-668038 10091 L-667932 10091 L-667668 10086 L-667203 10082 L-667059 10082 L-667004 10073 L-666947 10068 L-666756 10063 L-666391 10059 L-666176 10059 L-665982 10059 L-665924 10059 L-665865 10050 L-665711 10045 L-665441 10040 L-665011 10063 L-664996 10063 L-664919 10059 L-664854 10054 L-664725 10022 L-664702 10017 L-664417 10013 L-664370 10008 L-664315 10004 L-663853 9999 L-663814 9999 L-663773 9994 L-663583 9990 L-663103 9985 L-662616 9981 L-662599 9976 L-662561 9971 L-662305 9967 L-662227 9958 L-661997 9953 L-661981 9944 L-661687 9935 L-661245 9930 L-660798 9925 L-660293 9921 L-660139 9916 L-659853 9912 L-659813 9903 L-659481 9898 L-659260 9893 L-658743 9884 L-658667 9880 L-658419 9870 L-658225 9861 L-658165 9857 L-657388 9852 L-657314 9852 L-657084 9847 L-657067 9847 L-657005 9843 L-656809 9838 L-656345 9838 L-656322 9834 L-656192 9834 L-654892 9834 L-654875 9834 L-654798 9829 L-654704 9829 L-654487 9829 L-654335 9824 L-654156 9829 L-654102 9834 L-653816 9838 L-653776 9838 L-653406 9838 L-652966 9838 L-652783 9838 L-652462 9834 L-652167 9834 L-651721 9824 L-651649 9820 L-651187 9811 L-650749 9806 L-650567 9801 L-649113 9792 L-648981 9788 L-648524 9778 L-648297 9774 L-647911 9765 L-647395 9755 L-646440 9746 L-645646 9737 L-644972 9732 L-644546 9723 L-644235 9719 L-644005 9705 L-643322 9691 L-643309 9677 L-643099 9659 L-643077 9654 L-642903 9645 L-641953 9640 L-641684 9631 L-640869 9627 L-640559 9617 L-640521 9613 L-640464 9604 L-639847 9599 L-639209 9590 L-637583 9585 L-636909 9581 L-636267 9581 L-636189 9581 L-636133 9581 L-636097 9581 L-636069 9576 L-635957 9567 L-635939 9562 L-635917 9558 L-635763 9553 L-635710 9544 L-635632 9539 L-635512 9535 L-635415 9530 L-635297 9525 L-635028 9516 L-634758 9512 L-634741 9502 L-634541 9498 L-634394 9489 L-634167 9484 L-634033 9479 L-633724 9475 L-633664 9470 L-633311 9461 L-632963 9456 L-632862 9452 L-632797 9443 L-632737 9438 L-632353 9429 L-631972 9424 L-631868 9420 L-631608 9415 L-631336 9406 L-631177 9401 L-631145 9397 L-631083 9392 L-630942 9387 L-630758 9383 L-630713 9378 L-630425 9378 L-630409 9374 L-630176 9374 L-630115 9369 L-630077 9369 L-629497 9364 L-629363 9360 L-629340 9341 L-629321 9309 L-629304 9272 L-629288 9236 L-629264 9199 L-629247 9171 L-629226 9139 L-629209 9107 L-629186 9088 L-629170 9070 L-629148 9056 L-629131 9047 L-629082 9033 L-629010 9019 L-628975 8996 L-628952 8978 L-628916 8960 L-628875 8941 L-628838 8932 L-628822 8914 L-628797 8900 L-628760 8891 L-628743 8877 L-628720 8868 L-628703 8858 L-628684 8849 L-628668 8840 L-628639 8826 L-628613 8812 L-628568 8808 L-628551 8799 L-628509 8794 L-628461 8785 L-628390 8776 L-628375 8767 L-628359 8757 L-628297 8753 L-628258 8748 L-628218 8744 L-628052 8739 L-627987 8734 L-627971 8730 L-627927 8721 L-627869 8716 L-627656 8711 L-627623 8707 L-627580 8702 L-627502 8698 L-626965 8693 L-626887 8688 L-626782 8679 L-626694 8675 L-626518 8670 L-626167 8665 L-626011 8661 L-625573 8656 L-625417 8652 L-625287 8647 L-624583 8638 L-624382 8633 L-623421 8624 L-622939 8619 L-622840 8619 L-622747 8615 L-622502 8610 L-622429 8606 L-621986 8596 L-621890 8592 L-621875 8587 L-621859 8583 L-621834 8578 L-621368 8573 L-621152 8569 L-621012 8564 L-620718 8560 L-620630 8555 L-620588 8550 L-620558 8546 L-620386 8541 L-620327 8537 L-620251 8532 L-620170 8527 L-620100 8527 L-619791 8523 L-619706 8518 L-619492 8514 L-619457 8509 L-618774 8504 L-618675 8500 L-618470 8495 L-618423 8491 L-618145 8486 L-618083 8481 L-618066 8472 L-617988 8468 L-617680 8458 L-617655 8454 L-617601 8445 L-617578 8440 L-617456 8435 L-617320 8426 L-617076 8422 L-616950 8422 L-616304 8417 L-616288 8417 L-616263 8417 L-616083 8408 L-616007 8403 L-615915 8399 L-615487 8394 L-615071 8389 L-614678 8380 L-614599 8376 L-614580 8371 L-614217 8366 L-613981 8362 L-613753 8357 L-613439 8353 L-613362 8348 L-613281 8339 L-613103 8330 L-613087 8325 L-612822 8316 L-612742 8311 L-612511 8307 L-612285 8302 L-611970 8302 L-611794 8297 L-611433 8297 L-611042 8293 L-610972 8284 L-610908 8279 L-610768 8270 L-610716 8265 L-610615 8256 L-610113 8251 L-609916 8247 L-609669 8242 L-609484 8238 L-609184 8233 L-609108 8228 L-608942 8219 L-608057 8215 L-608029 8205 L-607906 8196 L-607327 8192 L-607249 8187 L-606536 8187 L-606224 8187 L-606011 8187 L-605994 8187 L-605608 8187 L-605083 8178 L-604636 8173 L-604307 8169 L-604154 8164 L-603828 8164 L-603650 8159 L-603568 8159 L-603362 8150 L-603186 8146 L-602258 8141 L-601368 8136 L-601329 8132 L-601101 8132 L-600722 8127 L-599934 8123 L-599700 8118 L-599624 8113 L-599267 8109 L-598695 8100 L-598428 8095 L-598041 8090 L-597938 8090 L-597768 8090 L-597149 8090 L-596938 8090 L-596630 8090 L-596577 8086 L-596450 8081 L-596396 8077 L-596277 8072 L-595941 8063 L-594982 8058 L-594851 8049 L-594649 8044 L-594018 8040 L-593706 8035 L-593292 8031 L-593265 8026 L-593120 8021 L-592699 8017 L-591367 8017 L-591320 8012 L-591191 8003 L-591175 7998 L-590596 7989 L-590391 7985 L-590361 7980 L-590320 7975 L-590263 7971 L-590225 7966 L-590147 7962 L-590004 7957 L-589550 7952 L-589432 7948 L-589146 7943 L-588774 7939 L-588678 7934 L-588351 7929 L-587996 7925 L-587826 7920 L-587779 7916 L-587670 7911 L-587581 7906 L-587553 7902 L-587477 7893 L-587173 7888 L-587139 7879 L-587068 7874 L-586700 7870 L-586364 7865 L-586284 7865 L-586064 7860 L-585892 7856 L-585865 7851 L-585368 7847 L-584818 7837 L-583938 7833 L-583839 7824 L-583763 7819 L-583488 7814 L-583241 7805 L-583167 7801 L-583105 7791 L-582986 7787 L-582944 7782 L-582834 7778 L-582757 7768 L-582056 7764 L-581811 7759 L-581771 7755 L-581615 7750 L-581016 7750 L-580789 7750 L-580697 7750 L-580221 7750 L-579624 7741 L-579104 7736 L-579083 7732 L-578938 7727 L-578618 7727 L-578076 7727 L-577844 7727 L-577674 7727 L-577187 7722 L-576960 7718 L-576875 7713 L-576529 7709 L-576202 7709 L-575679 7704 L-575352 7699 L-574752 7695 L-574554 7686 L-574502 7681 L-574461 7676 L-574180 7672 L-573496 7663 L-573186 7658 L-573161 7649 L-572970 7644 L-572747 7640 L-572661 7635 L-571997 7626 L-571973 7621 L-571751 7612 L-571421 7608 L-571069 7598 L-570864 7594 L-570632 7585 L-570374 7580 L-570184 7571 L-570137 7566 L-569910 7562 L-569875 7557 L-569719 7552 L-569504 7548 L-569331 7543 L-569240 7539 L-568963 7534 L-568719 7529 L-568404 7525 L-567978 7525 L-567940 7525 L-567457 7525 L-567223 7525 L-567012 7520 L-566785 7516 L-566236 7516 L-565988 7511 L-565154 7511 L-565099 7506 L-565077 7502 L-564919 7497 L-564458 7493 L-564417 7488 L-564077 7479 L-563944 7474 L-563721 7470 L-563149 7465 L-562677 7460 L-562482 7456 L-562290 7451 L-562100 7447 L-561998 7442 L-561630 7437 L-561583 7433 L-561502 7428 L-560209 7424 L-560160 7419 L-559892 7419 L-559747 7419 L-559196 7419 L-559079 7414 L-558997 7410 L-558638 7405 L-558415 7401 L-558133 7396 L-557804 7387 L-557296 7382 L-557184 7378 L-557105 7373 L-556940 7368 L-556646 7368 L-556177 7368 L-555981 7373 L-555930 7373 L-555280 7368 L-555159 7364 L-554705 7364 L-554669 7359 L-554200 7355 L-554090 7350 L-554073 7345 L-553857 7345 L-553676 7341 L-553145 7341 L-552115 7341 L-551916 7336 L-551458 7332 L-550509 7322 L-550410 7318 L-550057 7309 L-549996 7304 L-549981 7299 L-549946 7295 L-549577 7290 L-549457 7286 L-549215 7281 L-549051 7276 L-548864 7272 L-548743 7267 L-547672 7258 L-546814 7253 L-546602 7244 L-546504 7240 L-546330 7230 L-545997 7226 L-545925 7221 L-545868 7217 L-545692 7217 L-545303 7212 L-545068 7207 L-544957 7203 L-544840 7198 L-543859 7194 L-543833 7189 L-543239 7180 L-543207 7180 L-543058 7175 L-542774 7171 L-541862 7171 L-540916 7171 L-540763 7166 L-540660 7166 L-540529 7161 L-540385 7157 L-540359 7152 L-540245 7148 L-540026 7143 L-539345 7138 L-539216 7134 L-538913 7129 L-538673 7120 L-538340 7115 L-537701 7111 L-537359 7102 L-537297 7097 L-537141 7097 L-536220 7097 L-535749 7097 L-535706 7097 L-535693 7092 L-535652 7088 L-535630 7083 L-535603 7079 L-535459 7074 L-535036 7069 L-534701 7069 L-534510 7065 L-534081 7065 L-533893 7060 L-533504 7051 L-532970 7046 L-532598 7042 L-532576 7042 L-532326 7037 L-532208 7033 L-532132 7028 L-531996 7023 L-531957 7019 L-531877 7014 L-531483 7010 L-530987 7005 L-530875 6996 L-530702 6991 L-530394 6987 L-529946 6982 L-529623 6977 L-529481 6968 L-529054 6959 L-528900 6950 L-528845 6941 L-528031 6936 L-528011 6931 L-527640 6927 L-527583 6927 L-526454 6922 L-526386 6922 L-525827 6918 L-525633 6913 L-525496 6908 L-525263 6904 L-524916 6899 L-524881 6890 L-524846 6885 L-524778 6876 L-524429 6872 L-524257 6867 L-523772 6862 L-523756 6858 L-523430 6853 L-523273 6849 L-522132 6839 L-522108 6835 L-521916 6826 L-521722 6821 L-521472 6816 L-521455 6812 L-520435 6807 L-520137 6803 L-520061 6798 L-519925 6789 L-519750 6784 L-519173 6775 L-518957 6770 L-518894 6766 L-518763 6761 L-518726 6752 L-518203 6747 L-518065 8560 L-518050 8560 L-518028 8560 L-518007 8560 L-517780 6743 L-517004 6743 L-516963 6743 L-516595 6743 L-516517 6738 L-516464 6734 L-515791 6729 L-515049 6724 L-514624 6724 L-514176 6720 L-513115 6715 L-512803 6706 L-512393 6706 L-512321 6701 L-511797 6701 L-511702 6701 L-511684 6701 L-511240 6697 L-511054 6688 L-510274 6678 L-509601 6674 L-509189 6660 L-508957 6651 L-508817 6646 L-508735 6637 L-508715 6632 L-508639 6632 L-508511 6628 L-508194 6632 L-507970 6632 L-507645 6628 L-507582 6628 L-507212 6628 L-507179 6628 L-506971 6628 L-506303 6628 L-506226 6628 L-506068 6619 L-505957 6619 L-505631 6614 L-505476 6609 L-505135 6609 L-505078 6600 L-504740 6591 L-504536 6586 L-504483 6577 L-503107 6573 L-502977 6568 L-502544 6563 L-502223 6559 L-501396 6550 L-501272 6545 L-500541 6536 L-500385 6527 L-500345 6522 L-500291 6518 L-500268 6513 L-500154 6508 L-499857 6504 L-499568 6499 L-499513 6495 L-499393 6490 L-499362 6485 L-499263 6481 L-498819 6481 L-498667 6476 L-497832 6476 L-497290 6472 L-496955 6472 L-496939 6467 L-496864 6462 L-496748 6458 L-496553 6453 L-496289 6449 L-495454 6444 L-495358 6439 L-494836 6435 L-494795 6430 L-494695 6426 L-493867 6426 L-493732 6421 L-493393 6421 L-492839 6416 L-492459 6412 L-492296 6407 L-491987 6403 L-491174 6398 L-490868 6393 L-490599 6393 L-490278 6393 L-489957 6398 L-489682 6398 L-488853 6389 L-488758 6384 L-488665 6370 L-488561 6357 L-488174 6343 L-487694 6334 L-487677 6329 L-487559 6324 L-487191 6315 L-487096 6311 L-486262 6301 L-486185 6297 L-485886 6292 L-485795 6288 L-485388 6278 L-485277 6269 L-484578 6265 L-484105 6260 L-484045 6255 L-483826 6246 L-483552 6242 L-483439 6237 L-482412 6232 L-482026 6228 L-482005 6223 L-481673 6219 L-481428 6214 L-480995 6209 L-480885 6205 L-480767 6200 L-480315 6191 L-479725 6186 L-479388 6182 L-477495 6177 L-477382 6168 L-477170 6163 L-475852 6159 L-475745 5124 L-475679 4103 L-475643 3160 L-475581 3160 L-475082 4186 L-474407 5198 L-474385 6131 L-474114 6122 L-473146 6122 L-472457 6117 L-472295 6113 L-471754 6108 L-471664 6104 L-470645 6099 L-469697 6090 L-469332 6094 L-469229 6099 L-468641 6099 L-468581 6099 L-468481 6094 L-468041 6085 L-467933 6081 L-467491 6076 L-466492 6062 L-466235 6048 L-466132 6035 L-466002 6025 L-465636 6016 L-465055 6007 L-465024 6002 L-464708 5998 L-462725 5993 L-462610 5989 L-462542 5989 L-462183 5984 L-460565 5979 L-460387 5979 L-460243 5979 L-459420 5984 L-459367 5989 L-459313 5989 L-458879 5989 L-457898 5993 L-457825 5993 L-456740 5989 L-456527 5989 L-455811 5979 L-455422 5975 L-455203 5966 L-454884 5956 L-454390 5947 L-454262 5943 L-454034 5933 L-453801 5924 L-453742 5920 L-453452 5915 L-453180 5906 L-452150 5901 L-450485 5897 L-450066 5892 L-449929 5887 L-449773 5887 L-449468 5883 L-449239 5874 L-449081 5869 L-448922 5860 L-448753 5851 L-448705 5846 L-448652 5841 L-448630 5841 L-448244 5837 L-447994 5837 L-447724 5837 L-447563 5837 L-447473 5837 L-445815 5837 L-445649 5841 L-445270 5837 L-444810 5837 L-444200 5828 L-443107 5823 L-442676 5818 L-442644 5814 L-442582 5809 L-442565 5805 L-440861 5800 L-440819 5795 L-440352 5791 L-440166 5786 L-440133 5777 L-439538 5772 L-439488 5768 L-439166 5763 L-439115 5759 L-438904 5754 L-438886 5749 L-438620 5740 L-438567 5736 L-438098 5731 L-437588 5722 L-437510 5722 L-437215 5717 L-437199 5713 L-437160 5708 L-437089 5703 L-436932 5699 L-435986 5699 L-435929 5699 L-435408 5699 L-435216 5694 L-435115 5694 L-434889 5690 L-434379 5690 L-433991 5814 L-433922 5814 L-433573 5809 L-433217 5805 L-432088 5671 L-432036 5662 L-431810 5657 L-431776 5653 L-431651 5644 L-431553 5644 L-431288 5644 L-430548 5648 L-429969 5648 L-429676 5648 L-428970 5648 L-428791 5644 L-428768 5644 L-428132 5639 L-427821 5634 L-427424 5634 L-427395 5630 L-427374 5625 L-427220 5621 L-426535 5621 L-426518 5621 L-426178 5621 L-425906 5616 L-425868 5611 L-425812 5602 L-425790 5598 L-425718 5593 L-425386 5588 L-425280 5584 L-425252 5575 L-425053 5570 L-424901 5565 L-424033 5561 L-423470 5552 L-423454 5552 L-423353 5547 L-423251 5552 L-423104 5552 L-423026 5552 L-422988 5547 L-422933 5542 L-422859 5538 L-422714 5533 L-422232 5533 L-421828 5529 L-420962 5533 L-420942 5533 L-420684 5533 L-420607 5533 L-420578 5529 L-420568 5519 L-420551 5515 L-420258 5510 L-420218 5506 L-420146 5501 L-420073 5496 L-419868 5492 L-419708 5478 L-419406 5464 L-419329 5446 L-419312 5432 L-419096 5423 L-418864 5423 L-418754 5427 L-418385 5432 L-418227 5432 L-417995 5432 L-417827 5432 L-417681 5427 L-417549 5423 L-416274 5414 L-415870 5405 L-415809 5400 L-415693 5391 L-415268 5386 L-415252 5377 L-415190 5372 L-414917 5363 L-414804 5359 L-414522 5349 L-414245 5345 L-413820 5336 L-413797 5331 L-413719 5326 L-413594 5322 L-413007 5317 L-412616 5313 L-412280 5308 L-411691 5303 L-411589 5303 L-411418 5299 L-411282 5299 L-410454 5294 L-409269 5290 L-409233 5285 L-409178 5285 L-408957 5280 L-408752 5280 L-408597 5280 L-408341 5276 L-408264 5271 L-407722 5267 L-407685 5262 L-407436 5257 L-407049 5253 L-406223 5248 L-405865 5244 L-405555 5244 L-405297 5239 L-405073 5234 L-404667 5230 L-404550 5225 L-404367 5221 L-404314 5221 L-404125 5216 L-403954 5211 L-403926 5207 L-403645 5202 L-403335 5198 L-403197 5193 L-402887 5188 L-402693 5188 L-402678 5184 L-401958 5184 L-401825 5175 L-401527 5170 L-401437 5165 L-400836 5165 L-400798 5161 L-400719 5156 L-400099 5152 L-399947 5142 L-399907 5138 L-399596 5133 L-399404 5129 L-399211 5119 L-399156 5110 L-398847 5106 L-398795 5101 L-398740 5106 L-398714 5106 L-398590 5106 L-397779 5101 L-397703 5096 L-397162 5092 L-396893 5087 L-396234 5083 L-395326 5078 L-395085 5073 L-394552 5069 L-394335 5064 L-393228 5069 L-393178 5069 L-392402 5069 L-391854 5064 L-391743 5060 L-391590 5050 L-391535 5046 L-391370 5041 L-390992 5037 L-390545 5032 L-390490 5027 L-390336 5023 L-389656 5018 L-389436 5014 L-388918 5009 L-388069 5000 L-388053 4995 L-386262 4991 L-385707 4986 L-385590 4981 L-384584 4977 L-384548 4972 L-384315 4972 L-384223 4972 L-384183 4972 L-383851 4968 L-383499 4963 L-383234 4954 L-382947 4949 L-382636 4940 L-382382 4931 L-382288 4926 L-381798 4922 L-381591 4917 L-381025 4912 L-380911 4917 L-380560 4912 L-380508 4912 L-380468 4912 L-379865 4903 L-379131 4894 L-378550 4885 L-378314 4876 L-377774 4862 L-377621 4853 L-377119 4848 L-376910 4839 L-376887 4839 L-376828 4834 L-375865 4834 L-375688 4830 L-375246 4825 L-375222 4816 L-375067 4811 L-374985 4811 L-374835 4816 L-374188 4816 L-374138 4811 L-373018 4807 L-372034 4802 L-371973 4797 L-371252 4793 L-370387 4788 L-370008 4784 L-369789 4784 L-369030 4779 L-368978 4774 L-368669 4765 L-367817 4765 L-367624 4761 L-367447 4756 L-367223 4756 L-367096 4751 L-366904 4751 L-366672 4747 L-366502 4751 L-366216 4747 L-365936 4747 L-365853 4742 L-365683 4738 L-365666 4728 L-365512 4724 L-365473 4719 L-364698 4715 L-364621 4715 L-364389 4705 L-363962 4701 L-363617 4696 L-363033 4692 L-362765 4692 L-362506 4692 L-362376 4682 L-362360 4678 L-362246 4673 L-362222 4669 L-361988 4664 L-361952 4659 L-360636 4659 L-360580 4655 L-359901 4646 L-359329 4646 L-359203 4646 L-359050 4646 L-358973 4646 L-358661 4636 L-358388 4632 L-358299 4623 L-358198 4623 L-357270 4618 L-357194 4618 L-356830 4618 L-356805 4613 L-356769 4609 L-355993 4600 L-355901 4595 L-355761 4590 L-355359 4586 L-355098 4586 L-354854 4590 L-354640 4586 L-354560 4586 L-354483 4586 L-354407 4586 L-354220 4590 L-354154 4590 L-353904 4590 L-353849 4586 L-353711 4581 L-353632 4572 L-353519 4567 L-353295 4563 L-353131 4558 L-353090 4554 L-352921 4549 L-352550 4544 L-352535 4540 L-352419 4535 L-351698 4531 L-351662 4526 L-351529 4526 L-351181 4521 L-350770 4521 L-350733 4521 L-350655 4517 L-350617 4512 L-350252 4508 L-350048 4503 L-350033 4498 L-349688 4494 L-349339 4494 L-349013 4494 L-348912 4489 L-348759 4489 L-348564 4485 L-348333 4485 L-348240 4485 L-348085 4485 L-348008 4485 L-347967 4480 L-347853 4475 L-347830 4471 L-347579 4471 L-347441 4462 L-346863 4448 L-346035 4439 L-345547 4429 L-345425 4425 L-345387 4420 L-345374 4416 L-345222 4406 L-345121 4397 L-344888 4393 L-344498 4383 L-344193 4379 L-344178 4374 L-344007 4370 L-343768 4360 L-343172 4360 L-342568 4356 L-342529 4356 L-342488 4356 L-342335 4351 L-342282 4347 L-342219 4342 L-342151 4337 L-342097 4328 L-342071 4324 L-342025 4319 L-341930 4310 L-341793 4305 L-341640 4301 L-341508 4296 L-341467 4296 L-341431 4292 L-341369 4287 L-341096 4278 L-340781 4273 L-340740 4264 L-340655 4259 L-340478 4255 L-340241 4250 L-339883 4246 L-339853 4241 L-339284 4236 L-339161 4232 L-338925 4227 L-338902 4227 L-338621 4223 L-338336 4223 L-338080 4223 L-337508 4218 L-337211 4213 L-337135 4209 L-336436 4204 L-336359 4200 L-336324 4195 L-336297 4190 L-336246 4181 L-336052 4177 L-335912 4167 L-335876 4163 L-335835 4158 L-335240 4154 L-335008 4149 L-334724 4181 L-334670 4209 L-334596 4241 L-334518 4269 L-334282 4259 L-334038 4255 L-333902 4250 L-333796 4246 L-333716 4241 L-333329 4232 L-333202 4227 L-333049 4223 L-333012 4218 L-332866 4213 L-332644 4209 L-332470 4204 L-332401 4200 L-331580 4190 L-331564 4190 L-331269 4186 L-330481 4181 L-330171 4181 L-330025 4177 L-329797 4172 L-329596 4163 L-328659 4158 L-328623 4154 L-328600 4149 L-328559 4140 L-328291 4135 L-327694 4131 L-327630 4126 L-327595 4121 L-327578 4117 L-326883 4117 L-326682 4117 L-326650 4117 L-326316 4117 L-326209 4112 L-325584 4103 L-325080 4098 L-325042 4089 L-324600 4089 L-324504 4085 L-324345 4085 L-324032 4085 L-324020 4085 L-323580 4089 L-323098 4094 L-322969 4094 L-322649 4094 L-322580 4089 L-322276 4089 L-322100 4085 L-321907 4080 L-321664 4071 L-321466 4062 L-321441 4052 L-320862 4048 L-320792 4043 L-320383 4039 L-320328 4034 L-320282 4029 L-319918 4025 L-319772 4020 L-319567 4016 L-319470 4016 L-319315 4011 L-319254 4006 L-319106 3997 L-319006 3993 L-318449 3993 L-318426 4002 L-318254 4006 L-317712 4011 L-317652 4011 L-317598 4002 L-317569 3993 L-317498 3988 L-317481 3979 L-317418 3974 L-317382 3965 L-317227 3960 L-316901 3956 L-316335 3951 L-316321 3947 L-316259 3937 L-316157 3928 L-316111 3928 L-315868 3924 L-315446 3924 L-315291 3924 L-313550 3914 L-313008 3910 L-312065 3905 L-311655 3901 L-311114 3891 L-310918 3887 L-310749 3882 L-310453 3878 L-310339 3873 L-310324 3873 L-310169 3868 L-310029 3864 L-309952 3855 L-309821 3855 L-309473 3855 L-309102 3859 L-308504 3859 L-308328 3859 L-308172 3855 L-307903 3850 L-307751 3850 L-307460 3864 L-307437 3873 L-307354 3882 L-307126 3891 L-306427 3887 L-306300 3882 L-305869 3878 L-305774 3873 L-304570 3873 L-304520 3868 L-304227 3868 L-303824 3864 L-303548 3855 L-303529 3850 L-303411 3845 L-303335 3841 L-303153 3836 L-302673 3832 L-302222 3822 L-301812 3818 L-301781 3813 L-301363 3809 L-301249 3809 L-301131 3809 L-301116 3809 L-300921 3804 L-300900 3795 L-300667 3790 L-300224 3786 L-299905 3776 L-299440 3776 L-299275 3772 L-299120 3767 L-298964 3767 L-298510 3767 L-298191 3767 L-298136 3772 L-297765 3772 L-297728 3776 L-297401 3776 L-297284 3772 L-297186 3767 L-296860 3758 L-296473 3753 L-296212 3749 L-295853 3740 L-295597 3735 L-293427 3730 L-293377 3726 L-293355 3721 L-292943 3721 L-292882 3721 L-292812 3726 L-292581 3726 L-292270 3721 L-291967 3712 L-291922 3707 L-291615 3703 L-291482 3698 L-291265 3694 L-290553 3689 L-290398 3689 L-290259 3684 L-290111 3684 L-290090 3684 L-289895 3680 L-289870 3675 L-289779 3671 L-289757 3666 L-289741 3661 L-289640 3657 L-288712 3652 L-288254 3652 L-287162 3643 L-286739 3643 L-286336 3638 L-286297 3634 L-286043 3629 L-285269 3620 L-285252 3615 L-285228 3611 L-285035 3606 L-284299 3602 L-284029 3597 L-283989 3592 L-283590 3583 L-283565 3579 L-282776 3574 L-282096 3569 L-280725 3565 L-280455 3560 L-280406 3556 L-279869 3546 L-279836 3542 L-279734 3533 L-279410 3528 L-279331 3523 L-279062 3523 L-278149 3519 L-278010 3519 L-277762 3510 L-277216 3510 L-276794 3505 L-276601 3500 L-276586 3500 L-276448 3491 L-276354 3487 L-276227 3482 L-275967 3477 L-275942 3468 L-275850 3464 L-275540 3459 L-275480 3454 L-275363 3454 L-275013 3454 L-274203 3454 L-273971 3445 L-273142 3445 L-272910 3436 L-272694 3431 L-272175 3431 L-271537 3427 L-271121 3422 L-270798 3418 L-270318 3413 L-269892 3413 L-269831 3408 L-269482 3408 L-269442 3404 L-269428 3399 L-269329 3390 L-269283 3390 L-268798 3385 L-267996 3385 L-267662 3385 L-266581 3381 L-266101 3376 L-266078 3372 L-265938 3367 L-265382 3362 L-264685 3358 L-264376 3353 L-264154 3349 L-264050 3344 L-263947 3335 L-263276 3330 L-263182 3326 L-263160 3326 L-263083 3321 L-262905 3321 L-262733 3321 L-262552 3316 L-262539 3312 L-262462 3307 L-262298 3303 L-261783 3298 L-261767 3293 L-261627 3293 L-261264 3289 L-261240 3289 L-261110 3284 L-261085 3280 L-260723 3275 L-260197 3266 L-260104 3261 L-259888 3252 L-259794 3247 L-259770 3243 L-259306 3238 L-259228 3238 L-258827 3234 L-258376 3234 L-257124 3229 L-257086 3224 L-256654 3220 L-256621 3215 L-255902 3211 L-255726 3206 L-255590 3201 L-255284 3197 L-255229 3192 L-255204 3183 L-255188 3174 L-255013 3169 L-254823 3165 L-254316 3165 L-253942 3128 L-253604 3087 L-253565 3050 L-252846 3018 L-252752 3013 L-252714 3008 L-252172 3008 L-252149 3004 L-251746 2999 L-251321 2995 L-251050 2995 L-250870 2990 L-250624 2981 L-250601 2976 L-250544 2967 L-249928 2962 L-249425 2958 L-249038 2958 L-248419 2962 L-248203 2962 L-248048 2967 L-246755 2958 L-246656 2953 L-246214 2944 L-245882 2939 L-245582 2930 L-245340 2926 L-244605 2916 L-244026 2912 L-243196 2907 L-243096 2903 L-242538 2898 L-242400 2893 L-240758 2889 L-240697 2889 L-240604 2889 L-239637 2889 L-239459 2884 L-239172 2884 L-238954 2884 L-238876 2880 L-238605 2880 L-238489 2875 L-238336 2870 L-238026 2866 L-237948 2861 L-237857 2861 L-237779 2857 L-237663 2857 L-237484 2852 L-237392 2847 L-237354 2843 L-236851 2843 L-236632 2838 L-236503 2838 L-236348 2834 L-236293 2829 L-236168 2829 L-235783 2824 L-235275 2820 L-235203 2815 L-234722 2811 L-234645 2806 L-234545 2806 L-234312 2801 L-233847 2801 L-233617 2801 L-233601 2801 L-233369 2801 L-233214 2801 L-233152 2801 L-232959 2797 L-232688 2788 L-231937 2783 L-230984 2783 L-230948 2778 L-230723 2778 L-230283 2778 L-230002 2769 L-229654 2765 L-228585 2760 L-227657 2760 L-227526 2760 L-227479 2760 L-227410 2755 L-227255 2755 L-227178 2746 L-227004 2737 L-226570 2728 L-226366 2723 L-226305 2714 L-225723 2709 L-225569 2700 L-225453 2696 L-225412 2691 L-225243 2686 L-225106 2682 L-224895 2673 L-224818 2668 L-224794 2663 L-224586 2654 L-224176 2650 L-224151 2645 L-223928 2640 L-223783 2636 L-223748 2631 L-223735 2627 L-223712 2622 L-223479 2617 L-223293 2613 L-223076 2608 L-223051 2604 L-222362 2599 L-222258 2594 L-222222 2590 L-222202 2585 L-222008 2581 L-221954 2576 L-221838 2567 L-221756 2567 L-221645 2562 L-221331 2558 L-220871 2553 L-220616 2548 L-220382 2539 L-220252 2535 L-219900 2530 L-219840 2525 L-219688 2521 L-219115 2512 L-219029 2507 L-218876 2498 L-218580 2489 L-218210 2479 L-217907 2470 L-217830 2466 L-217425 2461 L-217257 2461 L-217113 2461 L-216573 2461 L-216512 2461 L-216496 2452 L-216330 2447 L-216125 2443 L-216050 2443 L-215957 2438 L-215547 2433 L-215532 2429 L-215508 2429 L-215315 2424 L-215238 2466 L-215068 2507 L-215006 2544 L-214990 2585 L-214476 2581 L-214254 2576 L-213635 2567 L-213382 2562 L-213188 2558 L-213149 2553 L-213075 2553 L-213010 2553 L-212359 2553 L-212321 2558 L-212146 2558 L-212081 2558 L-211406 2558 L-211017 2548 L-210756 2544 L-210518 2539 L-210440 2530 L-210425 2521 L-210222 2516 L-209852 2507 L-209626 2502 L-208991 2498 L-208971 2498 L-208584 2493 L-208490 2493 L-208432 2489 L-208156 2484 L-207846 2484 L-207769 2479 L-206918 2484 L-206575 2507 L-206138 2535 L-205704 2558 L-205209 2581 L-205060 2576 L-204791 2581 L-203553 2585 L-203497 2594 L-201733 2599 L-201543 2594 L-200533 2590 L-200382 2585 L-200006 2594 L-199685 2604 L-199080 2613 L-199010 2622 L-198833 2617 L-198004 2613 L-197866 2608 L-197479 2604 L-197295 2599 L-197251 2594 L-197131 2590 L-196921 2585 L-196474 2576 L-196125 2571 L-195993 2567 L-195584 2562 L-195234 2562 L-194949 2558 L-194755 2553 L-194601 2553 L-194437 2548 L-194369 2544 L-194269 2544 L-194035 2539 L-193919 2539 L-193866 2535 L-193324 2535 L-192859 2530 L-191677 2530 L-191544 2530 L-191519 2530 L-191467 2530 L-190799 2530 L-189764 2521 L-189571 2516 L-189391 2512 L-189239 2512 L-189199 2507 L-189184 2507 L-189122 2502 L-188797 2498 L-187636 2493 L-187443 2489 L-187266 2484 L-186152 2479 L-185292 2475 L-185186 2475 L-184712 2470 L-184519 2470 L-182198 2466 L-182120 2461 L-181999 2452 L-181965 2447 L-181927 2438 L-181833 2424 L-181617 2415 L-181036 2406 L-180650 2401 L-179877 2397 L-179799 2392 L-179101 2392 L-178560 2392 L-178519 2387 L-178389 2387 L-177925 2383 L-177886 2378 L-177752 2374 L-177383 2369 L-177354 2364 L-177204 2364 L-176803 2360 L-174979 2364 L-174172 2360 L-173453 2360 L-173437 2360 L-173123 2351 L-172561 2346 L-172060 2341 L-171541 2337 L-171520 2332 L-169776 2328 L-169607 2323 L-169411 2318 L-168517 2314 L-167999 2305 L-167788 2300 L-167530 2295 L-166821 2291 L-165870 2286 L-165212 2282 L-165173 2272 L-164886 2268 L-164804 2263 L-164709 2263 L-164577 2259 L-164499 2259 L-163764 2259 L-163427 2254 L-163377 2259 L-163122 2259 L-162836 2254 L-162410 2254 L-161830 2249 L-161571 2249 L-161419 2245 L-161172 2245 L-161134 2245 L-160336 2240 L-160299 2236 L-160122 2236 L-159712 2226 L-159484 2226 L-159407 2226 L-159276 2226 L-159160 2222 L-158812 2217 L-158749 2213 L-158596 2208 L-157855 2203 L-157744 2199 L-157574 2194 L-157535 2190 L-157240 2190 L-156839 2190 L-156662 2190 L-156568 2190 L-156258 2185 L-155457 2180 L-154999 2171 L-154479 2167 L-153990 2162 L-153294 2157 L-152248 2153 L-151979 2153 L-151925 2148 L-151765 2148 L-151513 2148 L-151267 2144 L-151188 2139 L-150974 2130 L-150662 2125 L-150198 2116 L-150184 2111 L-149888 2111 L-149874 2107 L-148883 2102 L-148211 2098 L-147876 2088 L-147260 2088 L-147123 2084 L-146484 2079 L-146354 2075 L-145403 2065 L-145303 2056 L-144744 2052 L-144335 2052 L-143907 2052 L-143816 2047 L-142981 2047 L-142617 2047 L-142578 2052 L-142446 2056 L-142269 2056 L-142052 2056 L-141999 2052 L-141842 2043 L-141589 2038 L-140489 2033 L-140411 2029 L-140192 2024 L-140061 2015 L-140025 2010 L-139831 2006 L-139732 2001 L-139248 1997 L-138964 1992 L-138803 1987 L-138708 1978 L-138437 1974 L-138167 1969 L-138151 1951 L-138013 1937 L-137874 1923 L-137548 1905 L-137239 1895 L-137198 1891 L-137122 1882 L-137007 1877 L-136156 1868 L-135830 1863 L-135499 1859 L-135366 1859 L-135150 1859 L-135133 1859 L-134453 1859 L-134360 1849 L-134336 1845 L-134321 1836 L-134282 1831 L-133870 1822 L-133601 1817 L-133561 1813 L-133192 1813 L-132983 1808 L-131900 1808 L-131883 1803 L-131855 1799 L-131835 1799 L-131458 1790 L-131203 1785 L-130955 1776 L-130815 1767 L-130683 1762 L-130351 1757 L-130259 1753 L-130198 1748 L-129639 1744 L-129578 1739 L-129422 1734 L-129228 1730 L-129036 1725 L-129020 1721 L-128982 1716 L-128943 1711 L-128672 1707 L-128549 1702 L-128517 1698 L-128417 1698 L-128261 1698 L-128120 1698 L-127836 1693 L-127511 1693 L-126815 1688 L-126792 1688 L-126283 1688 L-125437 1688 L-125074 1684 L-124919 1679 L-124315 1679 L-124145 1679 L-124084 1679 L-124029 1675 L-122974 1670 L-122955 1670 L-122049 1670 L-122028 1670 L-121861 1665 L-121619 1665 L-121569 1661 L-121514 1652 L-121376 1647 L-121337 1642 L-120409 1638 L-120353 1638 L-120232 1638 L-120160 1638 L-120044 1638 L-119866 1642 L-118883 1638 L-118744 1638 L-118626 1629 L-118332 1619 L-118084 1615 L-118048 1610 L-117993 1615 L-117971 1615 L-117838 1615 L-117759 1615 L-117622 1610 L-116999 1610 L-116832 1606 L-116368 1606 L-116191 1596 L-116175 1592 L-116115 1587 L-115998 1583 L-115516 1578 L-114820 1573 L-114447 1569 L-114278 1564 L-113312 1560 L-113157 1555 L-112979 1555 L-112887 1550 L-112631 1550 L-112461 1550 L-111814 1546 L-111803 1546 L-111223 1541 L-111084 1541 L-111029 1532 L-110294 1527 L-110255 1523 L-110178 1523 L-109536 1518 L-108761 1518 L-108669 1514 L-108620 1514 L-108605 1509 L-108569 1509 L-108552 1500 L-108490 1495 L-108473 1491 L-108453 1491 L-108299 1486 L-108260 1481 L-108244 1477 L-108205 1472 L-108065 1468 L-107989 1463 L-107624 1458 L-107276 1454 L-106503 1449 L-105900 1445 L-105704 1440 L-105474 1440 L-105336 1435 L-104698 1435 L-104409 1431 L-104387 1431 L-103927 1426 L-103694 1426 L-103639 1422 L-103601 1417 L-103098 1412 L-102548 1408 L-101759 1403 L-100637 1403 L-99742 1399 L-99654 1399 L-99355 1394 L-99283 1389 L-99167 1385 L-97990 1380 L-97642 1376 L-97620 1371 L-97101 1366 L-96954 1362 L-96846 1357 L-96636 1353 L-96482 1348 L-96459 1343 L-96265 1339 L-96188 1334 L-96045 1330 L-95244 1325 L-95098 1320 L-94818 1316 L-94640 1311 L-94331 1307 L-93519 1302 L-92591 1302 L-90999 1297 L-90756 1293 L-90115 1288 L-89919 1284 L-89841 1279 L-89324 1274 L-89092 1274 L-89069 1270 L-88937 1270 L-88598 1265 L-88587 1261 L-88370 1256 L-88333 1251 L-87792 1247 L-87263 1238 L-87195 1233 L-86902 1228 L-86354 1219 L-86319 1215 L-86266 1210 L-86167 1201 L-85935 1201 L-85355 1201 L-85257 1205 L-85183 1205 L-84851 1201 L-84101 1196 L-84062 1192 L-83382 1192 L-83227 1192 L-82901 1187 L-82685 1182 L-82454 1182 L-82157 1178 L-81911 1173 L-81560 1169 L-81507 1164 L-80747 1159 L-80054 1150 L-79704 1141 L-79240 1136 L-78606 1132 L-78197 1127 L-78120 1132 L-77694 1132 L-77051 1127 L-76882 1127 L-76140 1123 L-75953 1118 L-75657 1113 L-75085 1109 L-75060 1104 L-74041 1104 L-73554 1100 L-73461 1100 L-73400 1095 L-73111 1090 L-72826 1086 L-72764 1081 L-72584 1081 L-71873 1077 L-71697 1072 L-71499 1067 L-71347 1063 L-71255 1058 L-71194 1054 L-70652 1054 L-70341 1049 L-70249 1040 L-70172 1031 L-69605 1026 L-69514 1026 L-69259 1017 L-68932 1008 L-68895 994 L-68740 980 L-68508 975 L-68186 971 L-67054 966 L-66854 962 L-66329 957 L-66084 957 L-65838 952 L-65758 948 L-65739 939 L-65662 934 L-65606 925 L-65529 920 L-65490 916 L-65311 907 L-65274 902 L-65043 897 L-63805 893 L-63478 888 L-63439 879 L-62657 874 L-62510 870 L-61519 865 L-61312 865 L-60886 865 L-60759 865 L-60354 870 L-60267 865 L-59610 861 L-58902 856 L-58294 851 L-58101 847 L-57868 838 L-57249 833 L-56954 824 L-56514 819 L-56359 815 L-56204 810 L-55448 801 L-55098 796 L-54696 796 L-54657 792 L-53651 792 L-53331 792 L-53085 787 L-52385 778 L-52311 773 L-51999 769 L-50919 764 L-50727 759 L-50494 759 L-50299 755 L-49799 750 L-49045 750 L-48931 750 L-48731 750 L-48690 746 L-48597 741 L-48284 736 L-48196 732 L-48080 727 L-47762 727 L-47693 723 L-47668 718 L-47306 713 L-47267 709 L-47051 704 L-46548 709 L-45945 713 L-45734 723 L-45581 727 L-45543 727 L-45499 718 L-45464 713 L-45331 709 L-44922 704 L-44551 700 L-44498 695 L-44482 690 L-44403 686 L-43993 681 L-43839 677 L-43824 667 L-43784 663 L-43606 654 L-43530 649 L-43298 644 L-42508 640 L-42431 640 L-41696 631 L-41540 626 L-41301 617 L-41239 608 L-41154 603 L-41131 594 L-41013 585 L-40999 575 L-40937 566 L-40900 562 L-40805 557 L-40783 557 L-40667 552 L-40434 548 L-40264 539 L-39444 539 L-39043 534 L-38887 534 L-38383 534 L-38268 534 L-37672 534 L-37298 529 L-37246 529 L-37052 525 L-36355 525 L-36317 520 L-36173 520 L-35947 516 L-35686 511 L-35312 506 L-34886 502 L-34757 497 L-34737 488 L-34244 488 L-33547 483 L-33316 488 L-33162 488 L-32193 488 L-31969 493 L-31691 493 L-31675 488 L-31149 483 L-30620 479 L-30472 474 L-30452 470 L-29911 465 L-29601 460 L-29483 451 L-29292 442 L-29155 433 L-28828 428 L-28711 424 L-28402 424 L-27976 419 L-27920 419 L-27687 424 L-27590 424 L-27457 424 L-27161 424 L-27047 419 L-26683 414 L-26370 414 L-25887 410 L-25717 405 L-25469 401 L-25253 396 L-24727 391 L-24540 382 L-24185 378 L-23550 373 L-23395 364 L-22654 359 L-22235 355 L-22055 350 L-21978 350 L-21847 345 L-21554 341 L-21513 336 L-21283 336 L-21090 332 L-20835 332 L-20409 327 L-20300 322 L-19681 322 L-19500 322 L-18288 322 L-17641 327 L-17490 327 L-17453 327 L-17321 327 L-17220 322 L-17204 318 L-17122 313 L-16911 309 L-16794 304 L-16431 299 L-16059 295 L-15363 290 L-14960 286 L-14855 281 L-14837 276 L-13893 272 L-13698 263 L-13546 258 L-13490 249 L-12734 249 L-12717 258 L-12228 263 L-12097 272 L-11904 272 L-11014 267 L-10975 263 L-10937 258 L-10860 253 L-10821 253 L-10744 249 L-10660 244 L-10395 240 L-10163 235 L-10101 230 L-9620 226 L-9284 226 L-9173 221 L-8979 217 L-8803 212 L-8744 212 L-8707 207 L-8438 203 L-7740 194 L-7687 184 L-7393 175 L-6991 166 L-6426 161 L-5553 157 L-5249 152 L-5211 148 L-5088 143 L-4489 138 L-4360 134 L-4160 129 L-4122 125 L-3508 120 L-3330 115 L-3315 106 L-3097 102 L-3019 92 L-2711 92 L-2579 88 L-2348 88 L-2013 88 L-1922 83 L-1821 79 L-1783 74 L-1240 74 L-1048 69 L-506 65 L-81 60 L50 60 L112 60 L343 60 L359 60 L848 65 L928 65 L946 65 L2339 69 L2474 69 L2588 65 L3223 60 L3362 56 L3480 51 L3634 42 L3671 37 L3749 33 L3803 37 L4795 37 L4832 33 L4965 33 L5025 23 L5124 19 L5415 14 L5428 10 L5738 10 L5838 14 L6303 10 L6357 497 L6500 980" />
</svg>
