<svg xmlns="http://www.w3.org/2000/svg" version="1.1" viewBox="0 0 6500 1000">
	<path fill="none" stroke="gold" stroke-width="125" stroke-linecap="round" stroke-linejoin="round" d="M0 135702  L-951555 135702 L-951371 135652 L-950881 135552 L-950587 135502 L-950276 135401 L-950041 135351 L-949988 135251 L-949929 135151 L-949776 135101 L-949735 135001 L-949602 134951 L-949310 134901 L-948769 134901 L-948159 134851 L-948111 134851 L-947471 134801 L-947438 134801 L-946912 134801 L-946780 134751 L-946389 134651 L-946061 134551 L-945944 134450 L-945733 134350 L-945016 134350 L-944446 134300 L-944339 134300 L-944164 134250 L-943943 134150 L-943541 134100 L-943516 134000 L-942588 133900 L-942500 133800 L-942418 133700 L-942348 133600 L-942050 133550 L-941898 133449 L-940008 133500 L-939908 133500 L-939645 133500 L-939352 133550 L-939210 133449 L-938961 133449 L-938926 133399 L-938767 133349 L-938304 133249 L-938051 133199 L-937839 133099 L-937587 133049 L-937238 132999 L-936311 132899 L-936217 132799 L-935807 132749 L-934636 132649 L-933447 132599 L-933354 132498 L-933327 132398 L-933061 132298 L-932762 132198 L-932633 132098 L-932596 131998 L-931781 131998 L-931397 132048 L-930337 132098 L-930275 132098 L-930010 133099 L-929539 134050 L-929347 135001 L-929083 135952 L-928746 135902 L-928611 135852 L-928155 135802 L-927412 135752 L-927394 135702 L-927229 135602 L-927161 135602 L-926645 135552 L-925616 135552 L-925420 135502 L-924931 135451 L-924569 135401 L-924161 135401 L-923775 135451 L-922071 135451 L-921973 135451 L-921902 135451 L-921840 135451 L-921656 135401 L-921319 135401 L-920679 135351 L-920602 135301 L-920541 135301 L-920354 135251 L-920275 135251 L-920097 135201 L-920078 135151 L-919848 135151 L-919460 135101 L-918572 135101 L-918532 135051 L-918444 135001 L-918417 134901 L-917409 134851 L-917259 134751 L-917235 134701 L-917102 134651 L-917062 134601 L-915804 134551 L-915746 134551 L-915206 134501 L-915154 134501 L-915107 134501 L-914712 134450 L-914572 134400 L-914373 134350 L-914226 134350 L-914061 134350 L-913785 134400 L-913426 134400 L-912873 134350 L-912228 134300 L-911970 134200 L-911816 134150 L-911415 134100 L-911375 134050 L-911254 134000 L-911192 134050 L-911179 134050 L-911085 134050 L-910792 134000 L-910640 133800 L-910310 133700 L-910232 133600 L-910156 133550 L-909930 133399 L-909863 133299 L-909635 133199 L-909583 133099 L-909418 133049 L-908412 132999 L-908229 132949 L-907678 132899 L-907285 132799 L-906888 132749 L-906037 132649 L-905959 132599 L-905380 132549 L-904939 132549 L-904698 132498 L-904541 132498 L-904140 132398 L-904119 132398 L-903674 132348 L-903269 132298 L-903133 132198 L-902958 132098 L-902822 131998 L-902571 131898 L-901571 131848 L-901489 131798 L-901354 131748 L-901315 131698 L-900425 131648 L-900210 131598 L-899766 131548 L-899649 131497 L-899592 131447 L-898916 131447 L-898816 131397 L-898787 131397 L-897445 131347 L-897039 131297 L-897000 131247 L-896071 131197 L-895973 131147 L-895840 131097 L-895436 131047 L-895410 130997 L-895317 130947 L-895101 130897 L-894690 130797 L-893536 130697 L-893244 130597 L-893216 130496 L-892608 130446 L-892357 130346 L-892338 130296 L-891408 130246 L-891357 130146 L-891235 130096 L-891217 129996 L-891061 129946 L-890886 129846 L-890749 129796 L-890693 129746 L-890585 129696 L-890500 129646 L-890266 129596 L-890192 129546 L-889883 129495 L-889765 129445 L-889595 129395 L-889504 129345 L-889402 129345 L-889378 129295 L-889301 129295 L-889203 129195 L-888837 129145 L-888732 129095 L-888228 129045 L-887777 128995 L-887738 128945 L-887714 128895 L-887674 128845 L-887545 128795 L-887444 128745 L-887002 128695 L-886720 128645 L-886128 128595 L-885997 128545 L-885723 128444 L-885571 128394 L-885417 128344 L-885332 128244 L-885254 128194 L-885068 128144 L-885018 128144 L-884990 128094 L-884911 128044 L-884888 127994 L-884604 127894 L-884000 127794 L-883005 127744 L-882707 127694 L-881973 127644 L-881729 127594 L-881639 127544 L-881061 127493 L-880363 127443 L-879611 127393 L-879292 127343 L-878909 127243 L-878832 127193 L-878198 127143 L-878012 127093 L-877925 127093 L-877795 127093 L-877482 127043 L-877433 126993 L-877291 126943 L-877269 126893 L-876302 126843 L-875756 126793 L-875278 126793 L-875217 126793 L-874893 126793 L-874872 126743 L-874809 126743 L-874599 126693 L-874522 126643 L-874468 126593 L-874445 126543 L-874406 126492 L-874390 126442 L-873633 126392 L-873616 126342 L-872817 126292 L-872665 126242 L-871759 126192 L-871253 126142 L-871024 126042 L-870982 126042 L-870867 125992 L-870691 125942 L-869936 125992 L-869802 125942 L-869638 125892 L-869319 125842 L-869143 125742 L-868121 125642 L-868098 125542 L-867847 125491 L-867634 125391 L-867000 125341 L-866762 125241 L-866729 125141 L-866551 125041 L-866471 124941 L-866381 124891 L-866317 124791 L-865877 124691 L-865853 124641 L-865312 124591 L-865056 124541 L-864562 124490 L-863684 124440 L-863648 124390 L-863595 124340 L-863554 124290 L-863437 124240 L-863160 124190 L-862953 124090 L-862756 123990 L-862733 123890 L-862682 123790 L-862643 123740 L-862565 123690 L-861968 123590 L-861907 123540 L-861804 123489 L-861650 123439 L-861018 123389 L-860337 123339 L-860034 123239 L-859688 123189 L-859490 123139 L-859442 123039 L-859121 122989 L-858494 122939 L-858347 122889 L-858311 122839 L-858253 122789 L-858176 122689 L-857935 122689 L-857847 122639 L-857753 122589 L-857459 122539 L-857325 122488 L-857265 122438 L-857228 122338 L-856955 122338 L-855949 122288 L-855774 122238 L-855723 122238 L-855430 122188 L-855238 122088 L-854905 122038 L-854398 121988 L-853836 121888 L-853821 121788 L-853805 121738 L-853704 121638 L-853590 121538 L-853551 121437 L-853513 121387 L-853447 121387 L-853419 121337 L-853280 121387 L-852988 121387 L-852937 121387 L-852832 121387 L-852568 121337 L-852103 121287 L-851958 121287 L-851904 121187 L-851847 121137 L-851656 121087 L-851290 121037 L-851076 121037 L-850881 121037 L-850823 121037 L-850764 120937 L-850610 120887 L-850341 120837 L-849911 121087 L-849896 121087 L-849819 121037 L-849754 120987 L-849625 120637 L-849601 120587 L-849317 120537 L-849270 120486 L-849215 120436 L-848752 120386 L-848714 120386 L-848673 120336 L-848483 120286 L-848002 120236 L-847515 120186 L-847499 120136 L-847461 120086 L-847204 120036 L-847127 119936 L-846897 119886 L-846881 119786 L-846587 119686 L-846144 119636 L-845697 119586 L-845193 119536 L-845039 119485 L-844752 119435 L-844712 119335 L-844381 119285 L-844159 119235 L-843642 119135 L-843566 119085 L-843319 118985 L-843124 118885 L-843064 118835 L-842288 118785 L-842214 118785 L-841983 118735 L-841967 118735 L-841905 118685 L-841709 118635 L-841245 118635 L-841222 118585 L-841092 118585 L-839791 118585 L-839775 118585 L-839698 118535 L-839604 118535 L-839387 118535 L-839234 118484 L-839056 118535 L-839002 118585 L-838715 118635 L-838675 118635 L-838306 118635 L-837866 118635 L-837683 118635 L-837362 118585 L-837066 118585 L-836620 118484 L-836549 118434 L-836086 118334 L-835649 118284 L-835466 118234 L-834012 118134 L-833881 118084 L-833423 117984 L-833197 117934 L-832811 117834 L-832294 117734 L-831340 117634 L-830546 117534 L-829872 117483 L-829446 117383 L-829135 117333 L-828905 117183 L-828222 117033 L-828208 116883 L-827999 116683 L-827977 116633 L-827802 116533 L-826852 116482 L-826584 116382 L-825769 116332 L-825458 116232 L-825421 116182 L-825364 116082 L-824747 116032 L-824109 115932 L-822483 115882 L-821809 115832 L-821167 115832 L-821089 115832 L-821033 115832 L-820997 115832 L-820969 115782 L-820857 115682 L-820839 115632 L-820816 115582 L-820663 115532 L-820609 115431 L-820531 115381 L-820412 115331 L-820315 115281 L-820197 115231 L-819928 115131 L-819658 115081 L-819640 114981 L-819441 114931 L-819294 114831 L-819067 114781 L-818933 114731 L-818624 114681 L-818564 114631 L-818211 114531 L-817862 114480 L-817761 114430 L-817697 114330 L-817637 114280 L-817253 114180 L-816872 114130 L-816768 114080 L-816507 114030 L-816236 113930 L-816077 113880 L-816045 113830 L-815983 113780 L-815841 113730 L-815657 113680 L-815613 113630 L-815325 113630 L-815309 113580 L-815075 113580 L-815015 113530 L-814976 113530 L-814397 113479 L-814263 113429 L-814240 113229 L-814221 112879 L-814204 112478 L-814187 112078 L-814164 111678 L-814147 111377 L-814126 111027 L-814109 110677 L-814086 110476 L-814069 110276 L-814048 110126 L-814031 110026 L-813982 109876 L-813910 109726 L-813875 109475 L-813851 109275 L-813816 109075 L-813774 108875 L-813737 108775 L-813721 108575 L-813697 108424 L-813660 108324 L-813643 108174 L-813620 108074 L-813602 107974 L-813584 107874 L-813568 107774 L-813539 107624 L-813513 107473 L-813467 107423 L-813451 107323 L-813409 107273 L-813361 107173 L-813290 107073 L-813275 106973 L-813259 106873 L-813197 106823 L-813158 106773 L-813118 106723 L-812952 106673 L-812887 106623 L-812871 106573 L-812827 106472 L-812769 106422 L-812556 106372 L-812522 106322 L-812480 106272 L-812402 106222 L-811865 106172 L-811786 106122 L-811682 106022 L-811594 105972 L-811417 105922 L-811067 105872 L-810911 105822 L-810473 105772 L-810316 105722 L-810187 105672 L-809483 105572 L-809282 105522 L-808321 105421 L-807839 105371 L-807739 105371 L-807647 105321 L-807402 105271 L-807329 105221 L-806886 105121 L-806790 105071 L-806775 105021 L-806759 104971 L-806734 104921 L-806268 104871 L-806051 104821 L-805912 104771 L-805618 104721 L-805529 104671 L-805488 104621 L-805458 104571 L-805286 104521 L-805227 104470 L-805151 104420 L-805070 104370 L-805000 104370 L-804691 104320 L-804606 104270 L-804392 104220 L-804357 104170 L-803673 104120 L-803575 104070 L-803370 104020 L-803323 103970 L-803045 103920 L-802983 103870 L-802966 103770 L-802887 103720 L-802579 103620 L-802555 103570 L-802501 103469 L-802478 103419 L-802356 103369 L-802220 103269 L-801976 103219 L-801850 103219 L-801203 103169 L-801188 103169 L-801163 103169 L-800982 103069 L-800906 103019 L-800815 102969 L-800387 102919 L-799971 102869 L-799578 102769 L-799499 102719 L-799480 102669 L-799117 102619 L-798881 102569 L-798652 102519 L-798339 102468 L-798261 102418 L-798181 102318 L-798002 102218 L-797987 102168 L-797721 102068 L-797641 102018 L-797411 101968 L-797185 101918 L-796870 101918 L-796694 101868 L-796333 101868 L-795941 101818 L-795872 101718 L-795808 101668 L-795668 101568 L-795616 101518 L-795515 101417 L-795013 101367 L-794815 101317 L-794569 101267 L-794383 101217 L-794084 101167 L-794007 101117 L-793841 101017 L-792957 100967 L-792928 100867 L-792806 100767 L-792227 100717 L-792149 100667 L-791436 100667 L-791124 100667 L-790910 100667 L-790894 100667 L-790507 100667 L-789982 100567 L-789536 100517 L-789206 100466 L-789054 100416 L-788728 100416 L-788549 100366 L-788468 100366 L-788262 100266 L-788086 100216 L-787157 100166 L-786268 100116 L-786229 100066 L-786001 100066 L-785622 100016 L-784834 99966 L-784600 99916 L-784524 99866 L-784166 99816 L-783595 99716 L-783328 99666 L-782941 99616 L-782837 99616 L-782667 99616 L-782049 99616 L-781838 99616 L-781530 99616 L-781477 99566 L-781349 99516 L-781296 99465 L-781177 99415 L-780841 99315 L-779882 99265 L-779750 99165 L-779548 99115 L-778917 99065 L-778606 99015 L-778192 98965 L-778165 98915 L-778019 98865 L-777599 98815 L-776266 98815 L-776220 98765 L-776091 98665 L-776074 98615 L-775496 98515 L-775291 98464 L-775261 98414 L-775220 98364 L-775163 98314 L-775125 98264 L-775047 98214 L-774904 98164 L-774450 98114 L-774331 98064 L-774046 98014 L-773674 97964 L-773577 97914 L-773251 97864 L-772896 97814 L-772726 97764 L-772679 97714 L-772570 97664 L-772481 97614 L-772453 97564 L-772377 97463 L-772073 97413 L-772039 97313 L-771968 97263 L-771600 97213 L-771264 97163 L-771183 97163 L-770964 97113 L-770792 97063 L-770765 97013 L-770267 96963 L-769718 96863 L-768838 96813 L-768739 96713 L-768662 96663 L-768388 96613 L-768141 96513 L-768067 96462 L-768005 96362 L-767886 96312 L-767844 96262 L-767734 96212 L-767657 96112 L-766956 96062 L-766711 96012 L-766671 95962 L-766515 95912 L-765915 95912 L-765689 95912 L-765596 95912 L-765121 95912 L-764524 95812 L-764004 95762 L-763983 95712 L-763838 95662 L-763518 95662 L-762976 95662 L-762744 95662 L-762573 95662 L-762087 95612 L-761859 95562 L-761774 95512 L-761428 95461 L-761102 95461 L-760579 95411 L-760252 95361 L-759651 95311 L-759454 95211 L-759402 95161 L-759361 95111 L-759080 95061 L-758396 94961 L-758085 94911 L-758061 94811 L-757869 94761 L-757647 94711 L-757561 94661 L-756897 94561 L-756873 94511 L-756651 94410 L-756321 94360 L-755969 94260 L-755764 94210 L-755531 94110 L-755274 94060 L-755084 93960 L-755037 93910 L-754810 93860 L-754775 93810 L-754619 93760 L-754404 93710 L-754231 93660 L-754140 93610 L-753863 93560 L-753619 93510 L-753303 93459 L-752877 93459 L-752840 93459 L-752356 93459 L-752123 93459 L-751911 93409 L-751685 93359 L-751135 93359 L-750888 93309 L-750054 93309 L-749998 93259 L-749977 93209 L-749819 93159 L-749357 93109 L-749316 93059 L-748977 92959 L-748843 92909 L-748620 92859 L-748048 92809 L-747576 92759 L-747382 92709 L-747189 92659 L-746999 92609 L-746898 92559 L-746530 92509 L-746483 92458 L-746402 92408 L-745108 92358 L-745060 92308 L-744792 92308 L-744646 92308 L-744096 92308 L-743979 92258 L-743897 92208 L-743538 92158 L-743314 92108 L-743033 92058 L-742704 91958 L-742196 91908 L-742083 91858 L-742005 91808 L-741840 91758 L-741546 91758 L-741077 91758 L-740881 91808 L-740830 91808 L-740180 91758 L-740058 91708 L-739604 91708 L-739568 91658 L-739100 91608 L-738989 91558 L-738973 91508 L-738757 91508 L-738576 91457 L-738045 91457 L-737015 91457 L-736816 91407 L-736357 91357 L-735409 91257 L-735310 91207 L-734956 91107 L-734896 91057 L-734881 91007 L-734846 90957 L-734477 90907 L-734357 90857 L-734114 90807 L-733951 90757 L-733763 90707 L-733643 90657 L-732572 90557 L-731714 90507 L-731502 90406 L-731404 90356 L-731230 90256 L-730897 90206 L-730825 90156 L-730768 90106 L-730592 90106 L-730203 90056 L-729968 90006 L-729857 89956 L-729740 89906 L-728759 89856 L-728733 89806 L-728139 89706 L-728106 89706 L-727958 89656 L-727673 89606 L-726762 89606 L-725815 89606 L-725662 89556 L-725560 89556 L-725428 89506 L-725285 89455 L-725259 89405 L-725145 89355 L-724926 89305 L-724245 89255 L-724116 89205 L-723812 89155 L-723572 89055 L-723240 89005 L-722601 88955 L-722259 88855 L-722197 88805 L-722041 88805 L-721120 88805 L-720649 88805 L-720606 88805 L-720593 88755 L-720552 88705 L-720529 88655 L-720503 88605 L-720359 88555 L-719936 88505 L-719601 88505 L-719410 88454 L-718981 88454 L-718793 88404 L-718404 88304 L-717870 88254 L-717497 88204 L-717476 88204 L-717226 88154 L-717108 88104 L-717032 88054 L-716896 88004 L-716857 87954 L-716777 87904 L-716382 87854 L-715886 87804 L-715775 87704 L-715602 87654 L-715293 87604 L-714846 87554 L-714523 87504 L-714380 87403 L-713953 87303 L-713800 87203 L-713745 87103 L-712931 87053 L-712911 87003 L-712539 86953 L-712483 86953 L-711353 86903 L-711286 86903 L-710727 86853 L-710533 86803 L-710396 86753 L-710163 86703 L-709816 86653 L-709781 86553 L-709746 86503 L-709678 86402 L-709329 86352 L-709157 86302 L-708672 86252 L-708655 86202 L-708330 86152 L-708173 86102 L-707032 86002 L-707007 85952 L-706815 85852 L-706622 85802 L-706372 85752 L-706355 85702 L-705334 85652 L-705037 85602 L-704961 85552 L-704825 85451 L-704649 85401 L-704073 85301 L-703857 85251 L-703793 85201 L-703663 85151 L-703626 85051 L-703102 85001 L-702964 104721 L-702950 104721 L-702927 104721 L-702907 104721 L-702680 84951 L-701904 84951 L-701862 84951 L-701495 84951 L-701416 84901 L-701364 84851 L-700691 84801 L-699949 84751 L-699524 84751 L-699076 84701 L-698015 84651 L-697703 84551 L-697293 84551 L-697221 84501 L-696697 84501 L-696602 84501 L-696584 84501 L-696139 84450 L-695954 84350 L-695174 84250 L-694501 84200 L-694089 84050 L-693857 83950 L-693717 83900 L-693635 83800 L-693615 83750 L-693539 83750 L-693411 83700 L-693094 83750 L-692869 83750 L-692544 83700 L-692482 83700 L-692112 83700 L-692079 83700 L-691871 83700 L-691203 83700 L-691126 83700 L-690968 83600 L-690857 83600 L-690531 83550 L-690376 83500 L-690035 83500 L-689978 83399 L-689639 83299 L-689436 83249 L-689383 83149 L-688007 83099 L-687877 83049 L-687443 82999 L-687123 82949 L-686295 82849 L-686172 82799 L-685441 82699 L-685285 82599 L-685245 82549 L-685191 82498 L-685168 82448 L-685054 82398 L-684757 82348 L-684467 82298 L-684413 82248 L-684292 82198 L-684262 82148 L-684162 82098 L-683719 82098 L-683567 82048 L-682731 82048 L-682189 81998 L-681855 81998 L-681839 81948 L-681763 81898 L-681647 81848 L-681453 81798 L-681188 81748 L-680354 81698 L-680257 81648 L-679736 81598 L-679694 81548 L-679595 81497 L-678767 81497 L-678632 81447 L-678293 81447 L-677739 81397 L-677359 81347 L-677196 81297 L-676886 81247 L-676074 81197 L-675768 81147 L-675499 81147 L-675178 81147 L-674857 81197 L-674581 81197 L-673753 81097 L-673658 81047 L-673565 80897 L-673461 80747 L-673074 80597 L-672594 80496 L-672577 80446 L-672459 80396 L-672091 80296 L-671996 80246 L-671162 80146 L-671085 80096 L-670785 80046 L-670695 79996 L-670287 79896 L-670177 79796 L-669478 79746 L-669005 79696 L-668945 79646 L-668726 79546 L-668452 79495 L-668339 79445 L-667312 79395 L-666925 79345 L-666905 79295 L-666572 79245 L-666328 79195 L-665894 79145 L-665784 79095 L-665667 79045 L-665215 78945 L-664625 78895 L-664288 78845 L-662395 78795 L-662282 78695 L-662070 78645 L-660752 78595 L-660645 67333 L-660579 56222 L-660543 45962 L-660481 45962 L-659981 57123 L-659306 68134 L-659285 78294 L-659014 78194 L-658046 78194 L-657357 78144 L-657195 78094 L-656654 78044 L-656564 77994 L-655545 77944 L-654597 77844 L-654232 77894 L-654129 77944 L-653540 77944 L-653481 77944 L-653381 77894 L-652940 77794 L-652833 77744 L-652391 77694 L-651391 77544 L-651135 77393 L-651032 77243 L-650902 77143 L-650535 77043 L-649954 76943 L-649924 76893 L-649608 76843 L-647625 76793 L-647509 76743 L-647442 76743 L-647083 76693 L-645464 76643 L-645287 76643 L-645142 76643 L-644320 76693 L-644267 76743 L-644213 76743 L-643779 76743 L-642798 76793 L-642724 76793 L-641640 76743 L-641427 76743 L-640710 76643 L-640322 76593 L-640103 76492 L-639784 76392 L-639290 76292 L-639162 76242 L-638933 76142 L-638701 76042 L-638642 75992 L-638352 75942 L-638080 75842 L-637050 75792 L-635385 75742 L-634966 75692 L-634829 75642 L-634672 75642 L-634367 75592 L-634139 75491 L-633981 75441 L-633821 75341 L-633652 75241 L-633605 75191 L-633552 75141 L-633530 75141 L-633144 75091 L-632894 75091 L-632624 75091 L-632463 75091 L-632373 75091 L-630714 75091 L-630549 75141 L-630169 75091 L-629709 75091 L-629100 74991 L-628007 74941 L-627575 74891 L-627544 74841 L-627482 74791 L-627464 74741 L-625761 74691 L-625719 74641 L-625252 74591 L-625065 74541 L-625033 74440 L-624438 74390 L-624388 74340 L-624065 74290 L-624015 74240 L-623804 74190 L-623786 74140 L-623520 74040 L-623467 73990 L-622998 73940 L-622488 73840 L-622409 73840 L-622115 73790 L-622099 73740 L-622060 73690 L-621989 73640 L-621832 73590 L-620886 73590 L-620829 73590 L-620308 73590 L-620116 73540 L-620015 73540 L-619789 73489 L-619279 73489 L-618891 74841 L-618822 74841 L-618473 74791 L-618116 74741 L-616988 73289 L-616936 73189 L-616710 73139 L-616676 73089 L-616551 72989 L-616453 72989 L-616188 72989 L-615447 73039 L-614869 73039 L-614575 73039 L-613870 73039 L-613691 72989 L-613668 72989 L-613032 72939 L-612720 72889 L-612324 72889 L-612294 72839 L-612273 72789 L-612120 72739 L-611434 72739 L-611418 72739 L-611078 72739 L-610806 72689 L-610768 72639 L-610712 72539 L-610690 72488 L-610618 72438 L-610286 72388 L-610180 72338 L-610151 72238 L-609953 72188 L-609800 72138 L-608932 72088 L-608370 71988 L-608354 71988 L-608253 71938 L-608150 71988 L-608004 71988 L-607926 71988 L-607888 71938 L-607832 71888 L-607759 71838 L-607614 71788 L-607132 71788 L-606728 71738 L-605861 71788 L-605841 71788 L-605584 71788 L-605507 71788 L-605478 71738 L-605468 71638 L-605451 71588 L-605158 71538 L-605118 71487 L-605046 71437 L-604973 71387 L-604768 71337 L-604608 71187 L-604306 71037 L-604229 70837 L-604212 70687 L-603995 70587 L-603764 70587 L-603654 70637 L-603284 70687 L-603126 70687 L-602895 70687 L-602726 70687 L-602581 70637 L-602449 70587 L-601173 70486 L-600770 70386 L-600709 70336 L-600592 70236 L-600167 70186 L-600152 70086 L-600090 70036 L-599817 69936 L-599704 69886 L-599422 69786 L-599145 69736 L-598719 69636 L-598697 69586 L-598619 69536 L-598493 69485 L-597907 69435 L-597516 69385 L-597180 69335 L-596591 69285 L-596489 69285 L-596318 69235 L-596182 69235 L-595354 69185 L-594169 69135 L-594133 69085 L-594077 69085 L-593857 69035 L-593652 69035 L-593497 69035 L-593241 68985 L-593164 68935 L-592621 68885 L-592585 68835 L-592336 68785 L-591949 68735 L-591123 68685 L-590765 68635 L-590454 68635 L-590196 68585 L-589973 68535 L-589566 68484 L-589450 68434 L-589267 68384 L-589214 68384 L-589025 68334 L-588854 68284 L-588825 68234 L-588545 68184 L-588235 68134 L-588097 68084 L-587787 68034 L-587593 68034 L-587578 67984 L-586858 67984 L-586725 67884 L-586427 67834 L-586336 67784 L-585736 67784 L-585697 67734 L-585619 67684 L-584999 67634 L-584847 67534 L-584806 67483 L-584496 67433 L-584304 67383 L-584111 67283 L-584055 67183 L-583747 67133 L-583694 67083 L-583640 67133 L-583614 67133 L-583489 67133 L-582679 67083 L-582602 67033 L-582062 66983 L-581793 66933 L-581133 66883 L-580226 66833 L-579985 66783 L-579452 66733 L-579235 66683 L-578128 66733 L-578077 66733 L-577302 66733 L-576754 66683 L-576643 66633 L-576490 66533 L-576435 66482 L-576269 66432 L-575892 66382 L-575445 66332 L-575390 66282 L-575235 66232 L-574556 66182 L-574335 66132 L-573817 66082 L-572969 65982 L-572953 65932 L-571162 65882 L-570607 65832 L-570490 65782 L-569484 65732 L-569448 65682 L-569215 65682 L-569122 65682 L-569082 65682 L-568750 65632 L-568398 65582 L-568133 65481 L-567847 65431 L-567536 65331 L-567282 65231 L-567188 65181 L-566698 65131 L-566491 65081 L-565925 65031 L-565811 65081 L-565459 65031 L-565408 65031 L-565368 65031 L-564765 64931 L-564031 64831 L-563449 64731 L-563214 64631 L-562674 64480 L-562521 64380 L-562019 64330 L-561810 64230 L-561787 64230 L-561728 64180 L-560765 64180 L-560588 64130 L-560146 64080 L-560121 63980 L-559966 63930 L-559885 63930 L-559735 63980 L-559088 63980 L-559038 63930 L-557918 63880 L-556934 63830 L-556872 63780 L-556152 63730 L-555287 63680 L-554908 63630 L-554689 63630 L-553930 63580 L-553878 63530 L-553569 63429 L-552717 63429 L-552524 63379 L-552347 63329 L-552123 63329 L-551996 63279 L-551804 63279 L-551572 63229 L-551402 63279 L-551116 63229 L-550836 63229 L-550753 63179 L-550583 63129 L-550566 63029 L-550412 62979 L-550373 62929 L-549597 62879 L-549521 62879 L-549289 62779 L-548862 62729 L-548516 62679 L-547933 62629 L-547664 62629 L-547405 62629 L-547276 62529 L-547260 62478 L-547146 62428 L-547122 62378 L-546888 62328 L-546852 62278 L-545536 62278 L-545480 62228 L-544801 62128 L-544229 62128 L-544103 62128 L-543950 62128 L-543873 62128 L-543561 62028 L-543288 61978 L-543199 61878 L-543097 61878 L-542170 61828 L-542093 61828 L-541729 61828 L-541705 61778 L-541668 61728 L-540893 61628 L-540801 61578 L-540661 61528 L-540259 61477 L-539998 61477 L-539754 61528 L-539540 61477 L-539459 61477 L-539383 61477 L-539307 61477 L-539120 61528 L-539053 61528 L-538804 61528 L-538749 61477 L-538611 61427 L-538532 61327 L-538418 61277 L-538195 61227 L-538031 61177 L-537990 61127 L-537820 61077 L-537449 61027 L-537435 60977 L-537319 60927 L-536597 60877 L-536561 60827 L-536429 60827 L-536081 60777 L-535669 60777 L-535633 60777 L-535555 60727 L-535516 60677 L-535152 60627 L-534948 60577 L-534933 60527 L-534587 60476 L-534239 60476 L-533913 60476 L-533811 60426 L-533659 60426 L-533464 60376 L-533233 60376 L-533140 60376 L-532985 60376 L-532907 60376 L-532867 60326 L-532753 60276 L-532730 60226 L-532479 60226 L-532340 60126 L-531762 59976 L-530934 59876 L-530446 59776 L-530325 59726 L-530287 59676 L-530274 59626 L-530122 59526 L-530021 59425 L-529788 59375 L-529398 59275 L-529093 59225 L-529078 59175 L-528907 59125 L-528668 59025 L-528072 59025 L-527468 58975 L-527428 58975 L-527388 58975 L-527235 58925 L-527182 58875 L-527119 58825 L-527051 58775 L-526996 58675 L-526971 58625 L-526924 58575 L-526830 58474 L-526693 58424 L-526539 58374 L-526407 58324 L-526366 58324 L-526331 58274 L-526269 58224 L-525996 58124 L-525681 58074 L-525640 57974 L-525555 57924 L-525378 57874 L-525140 57824 L-524783 57774 L-524753 57724 L-524184 57674 L-524061 57624 L-523825 57574 L-523802 57574 L-523521 57524 L-523235 57524 L-522980 57524 L-522408 57473 L-522111 57423 L-522035 57373 L-521336 57323 L-521258 57273 L-521223 57223 L-521197 57173 L-521146 57073 L-520952 57023 L-520811 56923 L-520776 56873 L-520735 56823 L-520140 56773 L-519908 56723 L-519624 57073 L-519570 57373 L-519496 57724 L-519418 58024 L-519181 57924 L-518938 57874 L-518802 57824 L-518696 57774 L-518616 57724 L-518229 57624 L-518102 57574 L-517949 57524 L-517911 57473 L-517766 57423 L-517544 57373 L-517370 57323 L-517301 57273 L-516480 57173 L-516464 57173 L-516169 57123 L-515381 57073 L-515071 57073 L-514925 57023 L-514697 56973 L-514496 56873 L-513559 56823 L-513523 56773 L-513500 56723 L-513459 56623 L-513191 56573 L-512594 56523 L-512530 56472 L-512495 56422 L-512478 56372 L-511783 56372 L-511581 56372 L-511550 56372 L-511216 56372 L-511108 56322 L-510484 56222 L-509979 56172 L-509942 56072 L-509500 56072 L-509404 56022 L-509245 56022 L-508932 56022 L-508920 56022 L-508479 56072 L-507998 56122 L-507868 56122 L-507548 56122 L-507480 56072 L-507176 56072 L-507000 56022 L-506806 55972 L-506564 55872 L-506366 55772 L-506340 55672 L-505762 55622 L-505692 55572 L-505283 55522 L-505228 55471 L-505182 55421 L-504818 55371 L-504672 55321 L-504467 55271 L-504370 55271 L-504215 55221 L-504154 55171 L-504006 55071 L-503905 55021 L-503349 55021 L-503326 55121 L-503154 55171 L-502612 55221 L-502551 55221 L-502497 55121 L-502469 55021 L-502398 54971 L-502381 54871 L-502318 54821 L-502281 54721 L-502127 54671 L-501801 54621 L-501235 54571 L-501220 54521 L-501158 54420 L-501057 54320 L-501011 54320 L-500768 54270 L-500346 54270 L-500191 54270 L-498449 54170 L-497908 54120 L-496964 54070 L-496555 54020 L-496014 53920 L-495818 53870 L-495649 53820 L-495353 53770 L-495239 53720 L-495223 53720 L-495069 53670 L-494929 53620 L-494852 53520 L-494720 53520 L-494372 53520 L-494002 53570 L-493404 53570 L-493228 53570 L-493072 53520 L-492803 53469 L-492651 53469 L-492360 53620 L-492336 53720 L-492253 53820 L-492026 53920 L-491326 53870 L-491200 53820 L-490768 53770 L-490674 53720 L-489469 53720 L-489420 53670 L-489127 53670 L-488723 53620 L-488448 53520 L-488428 53469 L-488311 53419 L-488234 53369 L-488053 53319 L-487573 53269 L-487122 53169 L-486712 53119 L-486681 53069 L-486263 53019 L-486149 53019 L-486031 53019 L-486015 53019 L-485821 52969 L-485799 52869 L-485567 52819 L-485124 52769 L-484804 52669 L-484340 52669 L-484174 52619 L-484019 52569 L-483864 52569 L-483410 52569 L-483091 52569 L-483036 52619 L-482665 52619 L-482627 52669 L-482301 52669 L-482184 52619 L-482085 52569 L-481759 52468 L-481372 52418 L-481112 52368 L-480753 52268 L-480497 52218 L-478326 52168 L-478277 52118 L-478255 52068 L-477843 52068 L-477782 52068 L-477711 52118 L-477481 52118 L-477170 52068 L-476867 51968 L-476822 51918 L-476514 51868 L-476381 51818 L-476165 51768 L-475453 51718 L-475298 51718 L-475159 51668 L-475010 51668 L-474989 51668 L-474795 51618 L-474770 51568 L-474679 51518 L-474657 51467 L-474640 51417 L-474540 51367 L-473612 51317 L-473154 51317 L-472062 51217 L-471639 51217 L-471235 51167 L-471196 51117 L-470943 51067 L-470168 50967 L-470152 50917 L-470128 50867 L-469935 50817 L-469198 50767 L-468929 50717 L-468889 50667 L-468490 50567 L-468465 50517 L-467676 50466 L-466996 50416 L-465625 50366 L-465355 50316 L-465306 50266 L-464768 50166 L-464735 50116 L-464634 50016 L-464310 49966 L-464230 49916 L-463962 49916 L-463049 49866 L-462910 49866 L-462661 49766 L-462116 49766 L-461694 49716 L-461501 49666 L-461485 49666 L-461347 49566 L-461254 49516 L-461126 49465 L-460866 49415 L-460841 49315 L-460750 49265 L-460440 49215 L-460380 49165 L-460263 49165 L-459913 49165 L-459102 49165 L-458871 49065 L-458042 49065 L-457810 48965 L-457593 48915 L-457075 48915 L-456437 48865 L-456021 48815 L-455698 48765 L-455218 48715 L-454792 48715 L-454731 48665 L-454382 48665 L-454342 48615 L-454328 48565 L-454228 48464 L-454183 48464 L-453698 48414 L-452896 48414 L-452562 48414 L-451480 48364 L-451000 48314 L-450978 48264 L-450837 48214 L-450282 48164 L-449585 48114 L-449276 48064 L-449054 48014 L-448950 47964 L-448847 47864 L-448176 47814 L-448082 47764 L-448060 47764 L-447982 47714 L-447805 47714 L-447633 47714 L-447452 47664 L-447438 47614 L-447362 47564 L-447198 47514 L-446683 47463 L-446667 47413 L-446527 47413 L-446164 47363 L-446140 47363 L-446009 47313 L-445985 47263 L-445622 47213 L-445097 47113 L-445003 47063 L-444788 46963 L-444694 46913 L-444670 46863 L-444205 46813 L-444128 46813 L-443726 46763 L-443276 46763 L-442024 46713 L-441985 46663 L-441554 46613 L-441521 46563 L-440802 46513 L-440626 46462 L-440490 46412 L-440183 46362 L-440128 46312 L-440104 46212 L-440087 46112 L-439912 46062 L-439723 46012 L-439216 46012 L-438842 45612 L-438504 45161 L-438465 44761 L-437746 44410 L-437652 44360 L-437614 44310 L-437072 44310 L-437049 44260 L-436646 44210 L-436220 44160 L-435950 44160 L-435770 44110 L-435524 44010 L-435501 43960 L-435444 43860 L-434828 43810 L-434325 43760 L-433938 43760 L-433319 43810 L-433103 43810 L-432948 43860 L-431655 43760 L-431556 43710 L-431114 43610 L-430782 43560 L-430482 43459 L-430239 43409 L-429504 43309 L-428925 43259 L-428096 43209 L-427996 43159 L-427438 43109 L-427300 43059 L-425658 43009 L-425597 43009 L-425503 43009 L-424536 43009 L-424359 42959 L-424072 42959 L-423854 42959 L-423776 42909 L-423504 42909 L-423389 42859 L-423236 42809 L-422926 42759 L-422847 42709 L-422756 42709 L-422679 42659 L-422563 42659 L-422384 42609 L-422292 42559 L-422253 42509 L-421750 42509 L-421532 42458 L-421402 42458 L-421247 42408 L-421193 42358 L-421068 42358 L-420683 42308 L-420175 42258 L-420102 42208 L-419622 42158 L-419545 42108 L-419445 42108 L-419212 42058 L-418747 42058 L-418517 42058 L-418500 42058 L-418268 42058 L-418114 42058 L-418052 42058 L-417859 42008 L-417588 41908 L-416837 41858 L-415884 41858 L-415847 41808 L-415623 41808 L-415183 41808 L-414902 41708 L-414554 41658 L-413485 41608 L-412557 41608 L-412426 41608 L-412379 41608 L-412310 41558 L-412155 41558 L-412078 41457 L-411904 41357 L-411469 41257 L-411265 41207 L-411205 41107 L-410623 41057 L-410468 40957 L-410353 40907 L-410312 40857 L-410143 40807 L-410006 40757 L-409795 40657 L-409717 40607 L-409694 40557 L-409485 40456 L-409076 40406 L-409051 40356 L-408828 40306 L-408683 40256 L-408648 40206 L-408634 40156 L-408612 40106 L-408379 40056 L-408193 40006 L-407976 39956 L-407951 39906 L-407261 39856 L-407158 39806 L-407122 39756 L-407102 39706 L-406907 39656 L-406854 39606 L-406737 39506 L-406656 39506 L-406545 39455 L-406230 39405 L-405771 39355 L-405516 39305 L-405282 39205 L-405152 39155 L-404799 39105 L-404740 39055 L-404587 39005 L-404015 38905 L-403929 38855 L-403775 38755 L-403480 38655 L-403109 38555 L-402806 38454 L-402730 38404 L-402325 38354 L-402157 38354 L-402013 38354 L-401473 38354 L-401412 38354 L-401396 38254 L-401230 38204 L-401024 38154 L-400950 38154 L-400857 38104 L-400447 38054 L-400432 38004 L-400408 38004 L-400215 37954 L-400138 38404 L-399968 38855 L-399905 39255 L-399890 39706 L-399375 39656 L-399154 39606 L-398535 39506 L-398281 39455 L-398088 39405 L-398048 39355 L-397975 39355 L-397910 39355 L-397259 39355 L-397220 39405 L-397046 39405 L-396980 39405 L-396306 39405 L-395917 39305 L-395656 39255 L-395418 39205 L-395340 39105 L-395324 39005 L-395122 38955 L-394752 38855 L-394526 38805 L-393891 38755 L-393871 38755 L-393483 38705 L-393390 38705 L-393332 38655 L-393056 38605 L-392746 38605 L-392669 38555 L-391818 38605 L-391475 38855 L-391038 39155 L-390604 39405 L-390109 39656 L-389960 39606 L-389691 39656 L-388453 39706 L-388397 39806 L-386633 39856 L-386442 39806 L-385432 39756 L-385281 39706 L-384906 39806 L-384585 39906 L-383980 40006 L-383910 40106 L-383733 40056 L-382904 40006 L-382766 39956 L-382379 39906 L-382194 39856 L-382151 39806 L-382031 39756 L-381821 39706 L-381374 39606 L-381025 39556 L-380893 39506 L-380484 39455 L-380134 39455 L-379849 39405 L-379655 39355 L-379500 39355 L-379337 39305 L-379268 39255 L-379168 39255 L-378935 39205 L-378819 39205 L-378765 39155 L-378224 39155 L-377759 39105 L-376577 39105 L-376444 39105 L-376419 39105 L-376367 39105 L-375699 39105 L-374664 39005 L-374470 38955 L-374291 38905 L-374139 38905 L-374098 38855 L-374084 38855 L-374022 38805 L-373697 38755 L-372536 38705 L-372343 38655 L-372165 38605 L-371051 38555 L-370192 38505 L-370085 38505 L-369612 38454 L-369419 38454 L-367097 38404 L-367020 38354 L-366899 38254 L-366864 38204 L-366827 38104 L-366732 37954 L-366517 37854 L-365935 37754 L-365549 37704 L-364776 37654 L-364698 37604 L-364001 37604 L-363460 37604 L-363419 37554 L-363289 37554 L-362825 37504 L-362786 37453 L-362651 37403 L-362283 37353 L-362254 37303 L-362104 37303 L-361703 37253 L-359879 37303 L-359072 37253 L-358353 37253 L-358337 37253 L-358023 37153 L-357461 37103 L-356960 37053 L-356441 37003 L-356419 36953 L-354676 36903 L-354506 36853 L-354311 36803 L-353417 36753 L-352898 36653 L-352688 36603 L-352430 36553 L-351721 36503 L-350770 36452 L-350112 36402 L-350073 36302 L-349786 36252 L-349704 36202 L-349608 36202 L-349476 36152 L-349399 36152 L-348664 36152 L-348327 36102 L-348277 36152 L-348022 36152 L-347736 36102 L-347310 36102 L-346730 36052 L-346471 36052 L-346319 36002 L-346072 36002 L-346033 36002 L-345236 35952 L-345199 35902 L-345021 35902 L-344612 35802 L-344384 35802 L-344307 35802 L-344176 35802 L-344060 35752 L-343712 35702 L-343648 35652 L-343496 35602 L-342755 35552 L-342644 35502 L-342474 35451 L-342435 35401 L-342140 35401 L-341739 35401 L-341562 35401 L-341468 35401 L-341158 35351 L-340357 35301 L-339898 35201 L-339378 35151 L-338890 35101 L-338194 35051 L-337148 35001 L-336879 35001 L-336825 34951 L-336664 34951 L-336413 34951 L-336167 34901 L-336088 34851 L-335874 34751 L-335562 34701 L-335098 34601 L-335084 34551 L-334788 34551 L-334774 34501 L-333783 34450 L-333111 34400 L-332776 34300 L-332159 34300 L-332023 34250 L-331384 34200 L-331253 34150 L-330302 34050 L-330203 33950 L-329644 33900 L-329235 33900 L-328807 33900 L-328715 33850 L-327881 33850 L-327517 33850 L-327478 33900 L-327346 33950 L-327169 33950 L-326952 33950 L-326898 33900 L-326741 33800 L-326489 33750 L-325388 33700 L-325311 33650 L-325091 33600 L-324961 33500 L-324924 33449 L-324731 33399 L-324631 33349 L-324148 33299 L-323863 33249 L-323703 33199 L-323608 33099 L-323337 33049 L-323067 32999 L-323051 32799 L-322912 32649 L-322774 32498 L-322448 32298 L-322139 32198 L-322098 32148 L-322022 32048 L-321907 31998 L-321056 31898 L-320730 31848 L-320398 31798 L-320265 31798 L-320049 31798 L-320033 31798 L-319353 31798 L-319259 31698 L-319236 31648 L-319220 31548 L-319182 31497 L-318770 31397 L-318501 31347 L-318461 31297 L-318092 31297 L-317883 31247 L-316800 31247 L-316783 31197 L-316755 31147 L-316734 31147 L-316358 31047 L-316102 30997 L-315855 30897 L-315715 30797 L-315583 30747 L-315251 30697 L-315158 30647 L-315097 30597 L-314539 30547 L-314478 30496 L-314322 30446 L-314128 30396 L-313936 30346 L-313920 30296 L-313882 30246 L-313843 30196 L-313572 30146 L-313449 30096 L-313416 30046 L-313317 30046 L-313161 30046 L-313020 30046 L-312736 29996 L-312411 29996 L-311715 29946 L-311692 29946 L-311182 29946 L-310337 29946 L-309974 29896 L-309819 29846 L-309215 29846 L-309045 29846 L-308984 29846 L-308929 29796 L-307873 29746 L-307855 29746 L-306949 29746 L-306928 29746 L-306761 29696 L-306519 29696 L-306468 29646 L-306414 29546 L-306276 29495 L-306237 29445 L-305309 29395 L-305253 29395 L-305131 29395 L-305060 29395 L-304944 29395 L-304765 29445 L-303783 29395 L-303644 29395 L-303526 29295 L-303231 29195 L-302984 29145 L-302947 29095 L-302893 29145 L-302871 29145 L-302738 29145 L-302659 29145 L-302521 29095 L-301899 29095 L-301732 29045 L-301268 29045 L-301091 28945 L-301075 28895 L-301015 28845 L-300898 28795 L-300415 28745 L-299720 28695 L-299347 28645 L-299178 28595 L-298212 28545 L-298057 28494 L-297879 28494 L-297786 28444 L-297531 28444 L-297360 28444 L-296714 28394 L-296703 28394 L-296122 28344 L-295984 28344 L-295929 28244 L-295194 28194 L-295155 28144 L-295078 28144 L-294436 28094 L-293661 28094 L-293569 28044 L-293520 28044 L-293505 27994 L-293469 27994 L-293452 27894 L-293389 27844 L-293373 27794 L-293353 27794 L-293198 27744 L-293159 27694 L-293143 27644 L-293104 27594 L-292965 27544 L-292888 27493 L-292524 27443 L-292176 27393 L-291402 27343 L-290800 27293 L-290604 27243 L-290374 27243 L-290236 27193 L-289598 27193 L-289308 27143 L-289287 27143 L-288827 27093 L-288594 27093 L-288539 27043 L-288500 26993 L-287998 26943 L-287447 26893 L-286659 26843 L-285536 26843 L-284642 26793 L-284554 26793 L-284255 26743 L-284183 26693 L-284067 26643 L-282890 26593 L-282542 26543 L-282520 26492 L-282000 26442 L-281854 26392 L-281745 26342 L-281536 26292 L-281381 26242 L-281359 26192 L-281165 26142 L-281088 26092 L-280944 26042 L-280144 25992 L-279997 25942 L-279717 25892 L-279540 25842 L-279231 25792 L-278419 25742 L-277490 25742 L-275899 25692 L-275655 25642 L-275014 25592 L-274819 25542 L-274741 25491 L-274224 25441 L-273992 25441 L-273968 25391 L-273836 25391 L-273497 25341 L-273486 25291 L-273270 25241 L-273233 25191 L-272691 25141 L-272163 25041 L-272095 24991 L-271802 24941 L-271254 24841 L-271219 24791 L-271166 24741 L-271067 24641 L-270835 24641 L-270254 24641 L-270157 24691 L-270082 24691 L-269751 24641 L-269001 24591 L-268961 24541 L-268282 24541 L-268127 24541 L-267801 24490 L-267585 24440 L-267353 24440 L-267057 24390 L-266811 24340 L-266460 24290 L-266407 24240 L-265647 24190 L-264954 24090 L-264603 23990 L-264140 23940 L-263506 23890 L-263097 23840 L-263019 23890 L-262593 23890 L-261951 23840 L-261782 23840 L-261040 23790 L-260852 23740 L-260557 23690 L-259985 23640 L-259960 23590 L-258941 23590 L-258454 23540 L-258360 23540 L-258299 23489 L-258011 23439 L-257725 23389 L-257664 23339 L-257484 23339 L-256773 23289 L-256597 23239 L-256399 23189 L-256247 23139 L-256155 23089 L-256093 23039 L-255552 23039 L-255241 22989 L-255149 22889 L-255072 22789 L-254505 22739 L-254414 22739 L-254159 22639 L-253832 22539 L-253795 22388 L-253640 22238 L-253408 22188 L-253086 22138 L-251953 22088 L-251754 22038 L-251229 21988 L-250984 21988 L-250738 21938 L-250658 21888 L-250638 21788 L-250562 21738 L-250506 21638 L-250429 21588 L-250390 21538 L-250211 21437 L-250174 21387 L-249943 21337 L-248705 21287 L-248378 21237 L-248338 21137 L-247557 21087 L-247410 21037 L-246418 20987 L-246212 20987 L-245786 20987 L-245659 20987 L-245254 21037 L-245166 20987 L-244509 20937 L-243802 20887 L-243194 20837 L-243001 20787 L-242768 20687 L-242149 20637 L-241853 20537 L-241414 20486 L-241259 20436 L-241104 20386 L-240348 20286 L-239998 20236 L-239596 20236 L-239557 20186 L-238551 20186 L-238231 20186 L-237984 20136 L-237284 20036 L-237211 19986 L-236899 19936 L-235819 19886 L-235627 19836 L-235393 19836 L-235198 19786 L-234698 19736 L-233945 19736 L-233831 19736 L-233631 19736 L-233589 19686 L-233497 19636 L-233184 19586 L-233095 19536 L-232979 19485 L-232661 19485 L-232592 19435 L-232568 19385 L-232206 19335 L-232167 19285 L-231951 19235 L-231447 19285 L-230845 19335 L-230634 19435 L-230480 19485 L-230443 19485 L-230399 19385 L-230364 19335 L-230231 19285 L-229822 19235 L-229451 19185 L-229398 19135 L-229381 19085 L-229303 19035 L-228893 18985 L-228739 18935 L-228724 18835 L-228684 18785 L-228506 18685 L-228430 18635 L-228198 18585 L-227408 18535 L-227331 18535 L-226596 18434 L-226440 18384 L-226200 18284 L-226139 18184 L-226053 18134 L-226031 18034 L-225913 17934 L-225898 17834 L-225837 17734 L-225799 17684 L-225705 17634 L-225683 17634 L-225567 17584 L-225334 17534 L-225164 17433 L-224344 17433 L-223943 17383 L-223787 17383 L-223282 17383 L-223168 17383 L-222572 17383 L-222198 17333 L-222146 17333 L-221952 17283 L-221255 17283 L-221217 17233 L-221072 17233 L-220847 17183 L-220585 17133 L-220212 17083 L-219786 17033 L-219657 16983 L-219637 16883 L-219143 16883 L-218447 16833 L-218215 16883 L-218061 16883 L-217093 16883 L-216868 16933 L-216591 16933 L-216575 16883 L-216049 16833 L-215520 16783 L-215372 16733 L-215352 16683 L-214810 16633 L-214501 16583 L-214383 16482 L-214191 16382 L-214055 16282 L-213728 16232 L-213611 16182 L-213302 16182 L-212875 16132 L-212820 16132 L-212587 16182 L-212490 16182 L-212357 16182 L-212061 16182 L-211947 16132 L-211582 16082 L-211270 16082 L-210787 16032 L-210616 15982 L-210368 15932 L-210152 15882 L-209627 15832 L-209440 15732 L-209085 15682 L-208449 15632 L-208295 15532 L-207554 15481 L-207134 15431 L-206954 15381 L-206878 15381 L-206747 15331 L-206453 15281 L-206412 15231 L-206182 15231 L-205990 15181 L-205735 15181 L-205308 15131 L-205199 15081 L-204581 15081 L-204399 15081 L-203188 15081 L-202541 15131 L-202390 15131 L-202353 15131 L-202221 15131 L-202120 15081 L-202104 15031 L-202022 14981 L-201810 14931 L-201694 14881 L-201331 14831 L-200959 14781 L-200263 14731 L-199860 14681 L-199755 14631 L-199737 14581 L-198793 14531 L-198597 14430 L-198445 14380 L-198390 14280 L-197634 14280 L-197616 14380 L-197128 14430 L-196997 14531 L-196804 14531 L-195914 14480 L-195875 14430 L-195836 14380 L-195760 14330 L-195721 14330 L-195644 14280 L-195560 14230 L-195295 14180 L-195063 14130 L-195001 14080 L-194520 14030 L-194184 14030 L-194073 13980 L-193879 13930 L-193703 13880 L-193643 13880 L-193607 13830 L-193337 13780 L-192640 13680 L-192587 13580 L-192292 13479 L-191890 13379 L-191326 13329 L-190453 13279 L-190149 13229 L-190110 13179 L-189988 13129 L-189389 13079 L-189259 13029 L-189059 12979 L-189022 12929 L-188408 12879 L-188230 12829 L-188215 12729 L-187997 12679 L-187918 12579 L-187611 12579 L-187479 12529 L-187247 12529 L-186913 12529 L-186821 12478 L-186721 12428 L-186683 12378 L-186140 12378 L-185947 12328 L-185406 12278 L-184980 12228 L-184849 12228 L-184787 12228 L-184556 12228 L-184539 12228 L-184051 12278 L-183970 12278 L-183953 12278 L-182560 12328 L-182424 12328 L-182310 12278 L-181676 12228 L-181536 12178 L-181419 12128 L-181265 12028 L-181228 11978 L-181149 11928 L-181095 11978 L-180104 11978 L-180067 11928 L-179934 11928 L-179873 11828 L-179774 11778 L-179484 11728 L-179471 11678 L-179160 11678 L-179061 11728 L-178595 11678 L-178542 16983 L-178399 22238 L-178271 27544 L-178039 32849 L-177470 32799 L-177382 32749 L-177359 32749 L-177072 32699 L-176389 32649 L-176312 32599 L-176276 32549 L-176260 32498 L-176060 32448 L-175640 32348 L-175368 32348 L-174495 32298 L-174203 32298 L-174092 32298 L-173358 32248 L-173231 32198 L-172871 32148 L-172619 32148 L-171747 32098 L-171578 32098 L-171516 32048 L-171462 31998 L-171114 31948 L-171090 31898 L-170881 31848 L-170741 31798 L-170611 31748 L-170488 31698 L-170364 31648 L-170128 31598 L-169837 31548 L-169178 31497 L-169156 31447 L-169001 31397 L-168884 31347 L-167919 31297 L-167863 31247 L-167631 31197 L-167609 31147 L-167282 31097 L-167167 31097 L-167127 31047 L-166626 31047 L-166327 30997 L-166215 30947 L-165673 30897 L-164613 30847 L-163988 30797 L-163816 30747 L-163568 30697 L-163312 30647 L-163181 30597 L-163159 30547 L-162492 30496 L-161596 30446 L-161550 30396 L-161479 30346 L-161363 30346 L-161143 30296 L-160952 30296 L-160913 30246 L-160721 30196 L-160062 30196 L-159444 30146 L-159406 30446 L-158809 30747 L-158748 30997 L-157626 31247 L-157571 31247 L-157450 31197 L-157185 31147 L-157121 31147 L-156852 31147 L-156776 31097 L-156560 31097 L-156077 31047 L-155807 30997 L-155676 30997 L-155444 30897 L-155419 30747 L-155404 30547 L-155381 30296 L-155365 30046 L-155342 29796 L-155328 29495 L-155304 29195 L-155288 28895 L-155265 28645 L-155250 28394 L-155228 28144 L-155212 27994 L-155184 27844 L-155166 27644 L-155148 27544 L-155111 27393 L-155072 27293 L-155057 27193 L-155031 27043 L-154979 26943 L-154955 26843 L-154878 26743 L-154840 26693 L-154825 26593 L-154762 26492 L-154747 26392 L-154701 26242 L-154630 26142 L-154592 26092 L-154568 25992 L-154515 25892 L-154490 25842 L-154475 25792 L-154413 25742 L-154376 25692 L-154299 25642 L-154283 25592 L-154255 25491 L-154183 25441 L-154143 25391 L-153990 25291 L-153873 25241 L-153819 25191 L-153737 25141 L-153703 25091 L-153679 25041 L-153525 24991 L-153509 24941 L-153408 24891 L-153097 24841 L-153061 24791 L-152846 24741 L-152735 24741 L-152710 24741 L-152480 24791 L-152248 24791 L-151873 24741 L-151745 24691 L-151705 24641 L-151652 24591 L-151551 24541 L-151514 24490 L-151304 24490 L-151240 24440 L-151127 24440 L-150916 24390 L-150878 24340 L-150506 24290 L-150453 24240 L-150374 24190 L-150352 24140 L-150259 24090 L-150059 24040 L-150022 24040 L-150000 24040 L-149770 24040 L-149749 23990 L-149540 23990 L-149445 23940 L-149408 23890 L-149071 23840 L-148959 23790 L-148919 23740 L-148905 23740 L-148765 23690 L-148750 23690 L-148496 23690 L-147913 23640 L-147837 23590 L-147799 23540 L-147754 23489 L-147706 23439 L-147526 23389 L-147511 23339 L-147412 23289 L-147334 23239 L-147274 23189 L-146908 23089 L-146826 23039 L-146808 22989 L-146755 22939 L-145786 22889 L-145655 22839 L-145633 22789 L-145412 22739 L-145344 22689 L-145322 22639 L-145075 22589 L-144819 22539 L-144688 22488 L-144648 22438 L-144627 22338 L-144572 22238 L-144484 22188 L-144423 22088 L-144197 22038 L-144068 21988 L-143968 21938 L-143914 21888 L-143720 21838 L-143643 21788 L-143309 21738 L-143179 21688 L-143001 21638 L-142985 21588 L-142960 21538 L-142691 21538 L-141490 21487 L-141453 21487 L-141337 21437 L-141103 21387 L-140912 21337 L-140874 21337 L-140818 21287 L-140713 21287 L-140200 21237 L-139906 21187 L-139673 21137 L-139398 21087 L-139381 21037 L-139349 20987 L-139309 20937 L-139271 20887 L-139170 20837 L-139092 20787 L-139000 20737 L-138873 20687 L-138768 20637 L-138590 20637 L-138397 20587 L-137569 20587 L-137453 20537 L-137198 20486 L-137158 20436 L-137059 20386 L-136999 20386 L-136756 20336 L-136732 20336 L-136612 20286 L-136540 20236 L-136501 20186 L-136269 20136 L-136092 20086 L-135572 20036 L-135496 19986 L-135479 19936 L-135068 19936 L-134705 19936 L-134589 19886 L-134567 19886 L-134526 19836 L-134450 19786 L-134396 19736 L-134047 19686 L-133932 19636 L-133754 19636 L-133699 19586 L-133675 19586 L-133561 19536 L-133274 19485 L-133042 19435 L-132826 19385 L-132617 19335 L-132406 19235 L-131580 19185 L-131240 19135 L-130233 19085 L-129870 19035 L-128824 18985 L-128747 18935 L-128300 18885 L-128088 18835 L-127896 18785 L-127602 18735 L-127561 18685 L-127408 18635 L-127354 18535 L-127122 18484 L-126542 18434 L-126348 18384 L-125729 18384 L-125240 18334 L-125188 18284 L-124539 18234 L-124389 18184 L-124220 18134 L-123847 18084 L-123832 18084 L-123733 18034 L-123694 18034 L-123563 17984 L-123130 17984 L-122827 17984 L-122441 17984 L-122301 17934 L-122139 17934 L-121706 17934 L-121667 17884 L-121565 17884 L-121450 17834 L-121272 17834 L-121102 17784 L-120984 17734 L-120623 17634 L-120405 17584 L-120273 17534 L-120132 17534 L-119633 17534 L-119555 17534 L-119321 17483 L-118998 17483 L-118611 17433 L-118588 17383 L-117968 17383 L-117698 17333 L-117464 17333 L-117040 17283 L-116768 17233 L-116626 17183 L-116418 17133 L-116212 17083 L-115661 17033 L-115530 17033 L-115143 16983 L-114873 16983 L-114770 16933 L-114510 16883 L-114308 16833 L-114239 16783 L-114200 16733 L-113633 16683 L-113426 16633 L-113398 16583 L-113169 16533 L-113092 16482 L-112575 16432 L-112536 16382 L-112381 16332 L-112087 16282 L-111816 16232 L-111452 16182 L-111104 16182 L-110732 16132 L-110611 16132 L-110540 16082 L-110060 16032 L-109997 15982 L-109662 15932 L-109531 15882 L-109454 15832 L-109324 15782 L-108860 15782 L-108567 15732 L-108490 15732 L-108179 15682 L-107870 15632 L-107807 15582 L-107777 15532 L-107003 15481 L-106898 15381 L-106810 15331 L-106787 15281 L-106633 15231 L-106411 15181 L-106244 15131 L-105858 15081 L-105803 15031 L-105739 15031 L-105122 14981 L-105005 14931 L-104682 14881 L-104156 14831 L-103806 14781 L-103730 14731 L-103110 14681 L-102699 14631 L-102399 14581 L-102088 14531 L-101950 14480 L-101326 14480 L-100944 14430 L-99820 14430 L-98760 14380 L-98698 14330 L-98337 14280 L-98235 14280 L-98220 14230 L-97846 14230 L-96840 14130 L-96454 14080 L-96246 13980 L-96158 13930 L-95782 13880 L-95489 13830 L-95178 13780 L-94389 13730 L-94301 13680 L-94249 13630 L-94210 13580 L-93693 13530 L-93577 13479 L-93369 13429 L-93229 13379 L-92626 13329 L-91797 13279 L-91513 13229 L-91331 13229 L-90830 13179 L-90625 13179 L-90071 13179 L-89566 13129 L-89374 13079 L-89336 13029 L-88707 12979 L-88254 12929 L-87839 12879 L-87231 12829 L-86110 12829 L-85697 12779 L-85373 12779 L-85158 12729 L-84731 12679 L-84591 12629 L-84500 12579 L-84269 12529 L-83682 12529 L-82874 12478 L-81675 12478 L-81561 12478 L-81428 12428 L-81341 12378 L-81299 12428 L-81278 12478 L-81268 12579 L-81173 12679 L-80409 12679 L-79704 12679 L-79663 12629 L-79377 12579 L-78837 12529 L-78775 12478 L-78735 12428 L-78720 12378 L-78464 12328 L-78140 12278 L-78000 12228 L-77730 12178 L-77691 12128 L-77583 12078 L-77182 12028 L-77072 11978 L-76995 11928 L-76698 11878 L-76655 11828 L-76437 11828 L-76253 11828 L-76143 11828 L-76128 11778 L-76102 11778 L-75678 11728 L-75432 11678 L-75096 11628 L-75061 11578 L-74926 11528 L-74673 11528 L-74518 11477 L-73612 11477 L-73513 11427 L-73318 11327 L-72311 11277 L-71810 11227 L-71732 11177 L-71693 11127 L-71485 11077 L-71367 11027 L-71269 10977 L-71083 10927 L-70917 10877 L-70682 10827 L-70262 10777 L-70246 10727 L-69938 10677 L-68892 10627 L-68675 10577 L-68659 10527 L-68636 10476 L-68428 10426 L-68269 10376 L-68210 10326 L-66765 10276 L-66439 10276 L-66238 10276 L-66039 10276 L-65889 10276 L-65618 10226 L-65177 10176 L-64960 10176 L-64265 10126 L-63762 10076 L-63437 10026 L-63166 10026 L-62446 9976 L-62291 9976 L-61093 9876 L-60703 9826 L-60588 9726 L-60435 9676 L-60281 9626 L-59310 9576 L-59258 9526 L-59011 9475 L-58989 9425 L-58769 9375 L-58331 9275 L-58191 9175 L-58083 9075 L-57881 9025 L-57764 8975 L-57662 8925 L-57647 8925 L-57515 8875 L-57261 8825 L-56643 8775 L-55983 8725 L-55738 8725 L-55545 8675 L-54786 8675 L-54747 8675 L-54668 8625 L-54616 8525 L-54577 8474 L-54539 8424 L-54500 8374 L-54409 8324 L-54364 8274 L-54306 8174 L-54282 8124 L-54167 8074 L-53857 7974 L-53802 7924 L-53781 7874 L-53438 7824 L-53273 7774 L-53238 7674 L-53197 7624 L-53183 7574 L-52951 7524 L-52810 7473 L-52643 7423 L-52193 7423 L-51959 7423 L-51867 7423 L-51847 7473 L-51366 7423 L-51289 7423 L-51161 7373 L-51031 7273 L-50653 7223 L-50412 7123 L-50374 7073 L-50320 7023 L-50182 6923 L-50143 6873 L-50103 6823 L-49872 6773 L-49832 6723 L-49702 6673 L-49524 6623 L-49483 6573 L-49469 6523 L-49305 6472 L-49290 6422 L-49137 6372 L-49122 6322 L-49096 6272 L-49061 6222 L-48840 6122 L-48617 6122 L-48363 6072 L-48231 6122 L-47589 6122 L-46981 6072 L-45962 6072 L-45768 6022 L-45717 5972 L-45592 5922 L-45268 5872 L-44495 5822 L-44438 5772 L-44324 5722 L-43912 5672 L-43587 5622 L-43449 5572 L-43225 5522 L-42699 5471 L-42298 5471 L-42266 5421 L-41979 5421 L-41694 5371 L-41306 5321 L-41090 5271 L-40662 5171 L-40481 5121 L-40145 5071 L-40038 5021 L-39852 5021 L-39735 4971 L-39720 4971 L-38999 4921 L-38830 4871 L-38581 4821 L-38481 4771 L-37839 4721 L-37551 4671 L-37360 4621 L-37086 4571 L-36768 4521 L-36483 4470 L-36369 4370 L-36325 4320 L-36122 4270 L-34514 4220 L-34301 4170 L-33621 4120 L-33538 4070 L-33310 4020 L-33119 4020 L-32981 3970 L-32962 3970 L-32769 3970 L-32539 3970 L-32346 3970 L-31262 3920 L-31067 3920 L-31014 3920 L-30860 3920 L-30753 3920 L-30586 3920 L-30434 3870 L-30318 3820 L-30195 3720 L-29777 3670 L-29520 3570 L-29428 3520 L-29235 3520 L-29173 3469 L-28848 3469 L-28786 3469 L-28729 3419 L-28461 3369 L-28112 3319 L-27934 3269 L-27740 3219 L-27704 3269 L-26991 3269 L-26951 3369 L-26642 3419 L-26344 3469 L-26295 3520 L-26039 3570 L-25768 3620 L-25713 3620 L-24622 3620 L-24591 3570 L-24551 3570 L-24374 3570 L-24182 3520 L-23324 3520 L-22271 3469 L-22210 3419 L-21861 3369 L-21048 3369 L-20235 3369 L-20219 3369 L-19845 3369 L-19676 3369 L-19407 3369 L-19080 3319 L-18958 3269 L-18901 3269 L-18866 3219 L-18788 3219 L-18571 3169 L-18513 3119 L-18197 3069 L-18029 3019 L-17666 3019 L-17473 3019 L-17449 3019 L-17372 2969 L-16891 2969 L-16754 2969 L-16340 2919 L-16041 2919 L-15942 2869 L-15926 2819 L-15897 2769 L-15538 2719 L-15188 2669 L-15050 2619 L-15014 2619 L-14197 2569 L-13991 2519 L-13966 2468 L-13810 2468 L-13720 2418 L-13479 2418 L-13155 2368 L-13063 2368 L-12866 2318 L-12580 2318 L-11824 2268 L-11695 2218 L-11622 2168 L-11009 2118 L-10833 2068 L-10723 2018 L-10623 1968 L-10544 1918 L-10407 1868 L-10252 1868 L-10173 1868 L-9982 1868 L-9309 1868 L-9271 1818 L-9168 1768 L-8225 1718 L-8203 1668 L-7852 1618 L-7387 1568 L-7352 1518 L-6922 1467 L-6871 1467 L-6460 1417 L-6443 1417 L-6347 1417 L-6291 1417 L-6253 1417 L-5958 1367 L-4219 1317 L-2709 1267 L-2202 1217 L-1704 1167 L-1570 1117 L-1479 1067 L-1352 1017 L-1273 917 L-967 867 L-697 817 L-463 817 L735 767 L840 767 L906 717 L1747 667 L1933 617 L2844 567 L3713 466 L4001 416 L4094 316 L4643 266 L5162 216 L6231 166 L6500 116" />
</svg>
