<svg xmlns="http://www.w3.org/2000/svg" version="1.1" viewBox="0 0 6500 1000">
	<path fill="none" stroke="gold" stroke-width="125" stroke-linecap="round" stroke-linejoin="round" d="M0 1526  L-32160 1526 L-31748 1431 L-31523 1479 L-31466 1431 L-31428 1336 L-31244 1240 L-30754 1145 L-30460 1097 L-30149 1049 L-29915 954 L-29861 858 L-29802 763 L-29649 715 L-29608 667 L-29476 620 L-29183 667 L-28642 620 L-28032 524 L-27984 620 L-27344 524 L-27311 572 L-26785 476 L-26653 429 L-26262 238 L-25934 142 L-25817 47 L-25606 142 L-24889 94 L-24319 47 L-24212 0 L-24037 -95 L-23816 -191 L-23414 -239 L-23389 -334 L-22461 -430 L-22373 -525 L-22291 -621 L-22221 -716 L-21924 -764 L-21772 -811 L-19881 -525 L-19781 -668 L-19518 -764 L-19225 -668 L-19083 -764 L-18834 -811 L-18799 -859 L-18640 -955 L-18177 -1002 L-17924 -1098 L-17712 -1146 L-17460 -1193 L-17111 -1289 L-16184 -1384 L-16090 -1480 L-15680 -1527 L-14509 -1575 L-13320 -1671 L-13227 -1766 L-13200 -1862 L-12934 -2005 L-12635 -2100 L-12506 -2148 L-12469 -2243 L-11654 -1909 L-11270 -1957 L-10210 -2052 L-10149 -2100 L-9883 1765 L-9412 1717 L-9220 1622 L-8956 1574 L-8619 1526 L-8484 1574 L-8028 1431 L-7285 1383 L-7267 1288 L-7102 1240 L-7034 1336 L-6518 1288 L-5489 1192 L-5293 1097 L-4804 1145 L-4442 1097 L-4034 1192 L-3648 1240 L-1945 1192 L-1847 1145 L-1775 1192 L-1713 1145 L-1529 1097 L-1193 1049 L-552 954 L-475 1049 L-414 1001 L-227 954 L-148 906 L28 858 L48 906 L278 858 L665 810 L1554 763 L1593 715 L1682 620 L1709 572 L2717 476 L2867 429 L2891 381 L3024 333 L3064 285 L4322 238 L4380 333 L4920 285 L4972 238 L5019 190 L5414 142 L5553 94 L5753 47 L5900 238 L6065 190 L6341 142" />
</svg>
