<svg xmlns="http://www.w3.org/2000/svg" version="1.1" viewBox="0 0 6500 1000">
	<path fill="none" stroke="gold" stroke-width="125" stroke-linecap="round" stroke-linejoin="round" d="M0 314523  L-1312880 314523 L-1312696 314522 L-1312206 314519 L-1311913 314518 L-1311601 314515 L-1311367 314513 L-1311313 314511 L-1311254 314508 L-1311101 314506 L-1311060 314503 L-1310928 314502 L-1310635 314501 L-1310095 314501 L-1309484 314499 L-1309436 314499 L-1308796 314498 L-1308763 314498 L-1308237 314498 L-1308105 314496 L-1307715 314493 L-1307386 314491 L-1307269 314488 L-1307058 314485 L-1306341 314485 L-1305771 314483 L-1305664 314483 L-1305489 314482 L-1305268 314479 L-1304867 314478 L-1304841 314475 L-1303913 314472 L-1303825 314469 L-1303743 314466 L-1303673 314463 L-1303376 314462 L-1303224 314459 L-1301334 314461 L-1301233 314461 L-1300971 314461 L-1300677 314462 L-1300535 314459 L-1300287 314459 L-1300251 314458 L-1300093 314456 L-1299629 314453 L-1299376 314452 L-1299164 314449 L-1298913 314448 L-1298564 314446 L-1297636 314443 L-1297543 314441 L-1297132 314439 L-1295961 314436 L-1294772 314435 L-1294680 314432 L-1294652 314429 L-1294386 314426 L-1294087 314423 L-1293959 314420 L-1293921 314418 L-1293107 314418 L-1292723 314419 L-1291662 314420 L-1291601 314420 L-1291336 314449 L-1290864 314476 L-1290672 314503 L-1290408 314531 L-1290071 314529 L-1289936 314528 L-1289480 314526 L-1288737 314525 L-1288720 314523 L-1288554 314521 L-1288486 314521 L-1287970 314519 L-1286941 314519 L-1286745 314518 L-1286257 314516 L-1285895 314515 L-1285486 314515 L-1285100 314516 L-1283397 314516 L-1283299 314516 L-1283227 314516 L-1283166 314516 L-1282981 314515 L-1282645 314515 L-1282004 314513 L-1281927 314512 L-1281866 314512 L-1281680 314511 L-1281600 314511 L-1281423 314509 L-1281404 314508 L-1281174 314508 L-1280786 314506 L-1279897 314506 L-1279858 314505 L-1279770 314503 L-1279742 314501 L-1278734 314499 L-1278584 314496 L-1278560 314495 L-1278427 314493 L-1278387 314492 L-1277129 314491 L-1277071 314491 L-1276532 314489 L-1276479 314489 L-1276432 314489 L-1276037 314488 L-1275898 314486 L-1275698 314485 L-1275551 314485 L-1275386 314485 L-1275110 314486 L-1274751 314486 L-1274199 314485 L-1273554 314483 L-1273295 314481 L-1273141 314479 L-1272740 314478 L-1272700 314476 L-1272580 314475 L-1272518 314476 L-1272504 314476 L-1272410 314476 L-1272117 314475 L-1271965 314469 L-1271635 314466 L-1271557 314463 L-1271481 314462 L-1271255 314458 L-1271188 314455 L-1270961 314452 L-1270908 314449 L-1270744 314448 L-1269738 314446 L-1269554 314445 L-1269003 314443 L-1268610 314441 L-1268213 314439 L-1267363 314436 L-1267284 314435 L-1266706 314433 L-1266264 314433 L-1266023 314432 L-1265866 314432 L-1265465 314429 L-1265445 314429 L-1265000 314428 L-1264594 314426 L-1264458 314423 L-1264283 314420 L-1264147 314418 L-1263897 314415 L-1262897 314413 L-1262815 314412 L-1262679 314410 L-1262641 314409 L-1261751 314408 L-1261535 314406 L-1261092 314405 L-1260974 314403 L-1260918 314402 L-1260241 314402 L-1260141 314400 L-1260112 314400 L-1258770 314399 L-1258364 314398 L-1258325 314396 L-1257397 314395 L-1257298 314393 L-1257166 314392 L-1256761 314390 L-1256735 314389 L-1256642 314388 L-1256426 314386 L-1256015 314383 L-1254861 314380 L-1254569 314378 L-1254541 314375 L-1253933 314373 L-1253683 314370 L-1253663 314369 L-1252734 314368 L-1252682 314365 L-1252560 314363 L-1252542 314360 L-1252386 314359 L-1252211 314356 L-1252075 314355 L-1252018 314353 L-1251910 314352 L-1251825 314350 L-1251592 314349 L-1251517 314348 L-1251208 314346 L-1251090 314345 L-1250921 314343 L-1250829 314342 L-1250727 314342 L-1250704 314340 L-1250626 314340 L-1250528 314338 L-1250162 314336 L-1250057 314335 L-1249554 314333 L-1249102 314332 L-1249064 314330 L-1249040 314329 L-1248999 314328 L-1248870 314326 L-1248769 314325 L-1248328 314323 L-1248045 314322 L-1247453 314320 L-1247323 314319 L-1247048 314316 L-1246896 314315 L-1246743 314313 L-1246657 314310 L-1246579 314309 L-1246394 314308 L-1246343 314308 L-1246315 314306 L-1246236 314305 L-1246213 314303 L-1245929 314300 L-1245326 314298 L-1244330 314296 L-1244032 314295 L-1243298 314293 L-1243054 314292 L-1242964 314290 L-1242387 314289 L-1241688 314288 L-1240936 314286 L-1240617 314285 L-1240235 314282 L-1240158 314280 L-1239523 314279 L-1239338 314277 L-1239250 314277 L-1239120 314277 L-1238807 314276 L-1238758 314275 L-1238616 314273 L-1238594 314272 L-1237627 314270 L-1237081 314269 L-1236603 314269 L-1236542 314269 L-1236218 314269 L-1236197 314267 L-1236134 314267 L-1235924 314266 L-1235847 314265 L-1235793 314263 L-1235770 314262 L-1235731 314260 L-1235715 314259 L-1234958 314257 L-1234942 314256 L-1234142 314255 L-1233990 314253 L-1233085 314252 L-1232578 314250 L-1232349 314247 L-1232308 314247 L-1232192 314246 L-1232016 314245 L-1231262 314246 L-1231127 314245 L-1230963 314243 L-1230645 314242 L-1230469 314239 L-1229447 314236 L-1229423 314233 L-1229172 314232 L-1228959 314229 L-1228325 314227 L-1228087 314225 L-1228055 314222 L-1227877 314219 L-1227796 314216 L-1227706 314215 L-1227642 314212 L-1227202 314209 L-1227178 314207 L-1226637 314206 L-1226382 314205 L-1225887 314203 L-1225010 314202 L-1224973 314200 L-1224920 314199 L-1224879 314197 L-1224762 314196 L-1224485 314195 L-1224278 314192 L-1224081 314189 L-1224058 314186 L-1224008 314183 L-1223968 314182 L-1223890 314180 L-1223293 314177 L-1223233 314176 L-1223129 314175 L-1222975 314173 L-1222343 314172 L-1221662 314170 L-1221360 314167 L-1221013 314166 L-1220815 314165 L-1220767 314162 L-1220447 314160 L-1219819 314159 L-1219672 314157 L-1219636 314156 L-1219578 314155 L-1219502 314152 L-1219260 314152 L-1219172 314150 L-1219078 314149 L-1218784 314147 L-1218650 314146 L-1218590 314145 L-1218553 314142 L-1218281 314142 L-1217275 314140 L-1217099 314139 L-1217048 314139 L-1216756 314137 L-1216563 314135 L-1216230 314133 L-1215724 314132 L-1215161 314129 L-1215147 314126 L-1215130 314124 L-1215030 314122 L-1214915 314119 L-1214876 314116 L-1214838 314114 L-1214773 314114 L-1214745 314113 L-1214606 314114 L-1214313 314114 L-1214263 314114 L-1214158 314114 L-1213893 314113 L-1213428 314112 L-1213284 314112 L-1213229 314109 L-1213172 314107 L-1212981 314106 L-1212616 314104 L-1212401 314104 L-1212207 314104 L-1212149 314104 L-1212090 314102 L-1211936 314100 L-1211666 314099 L-1211236 314106 L-1211221 314106 L-1211144 314104 L-1211079 314103 L-1210950 314093 L-1210927 314092 L-1210642 314090 L-1210595 314089 L-1210540 314087 L-1210078 314086 L-1210039 314086 L-1209998 314084 L-1209808 314083 L-1209328 314082 L-1208841 314080 L-1208824 314079 L-1208786 314077 L-1208530 314076 L-1208452 314073 L-1208222 314072 L-1208206 314069 L-1207912 314066 L-1207470 314064 L-1207023 314063 L-1206518 314062 L-1206364 314060 L-1206078 314059 L-1206038 314056 L-1205707 314054 L-1205485 314053 L-1204968 314050 L-1204892 314049 L-1204644 314046 L-1204450 314043 L-1204390 314042 L-1203613 314040 L-1203539 314040 L-1203309 314039 L-1203292 314039 L-1203230 314037 L-1203034 314036 L-1202570 314036 L-1202547 314034 L-1202417 314034 L-1201117 314034 L-1201100 314034 L-1201023 314033 L-1200929 314033 L-1200712 314033 L-1200560 314032 L-1200381 314033 L-1200327 314034 L-1200041 314036 L-1200001 314036 L-1199631 314036 L-1199191 314036 L-1199008 314036 L-1198687 314034 L-1198392 314034 L-1197946 314032 L-1197874 314030 L-1197412 314027 L-1196974 314026 L-1196792 314024 L-1195338 314022 L-1195206 314020 L-1194749 314017 L-1194523 314016 L-1194136 314013 L-1193620 314010 L-1192665 314007 L-1191871 314004 L-1191197 314003 L-1190771 314000 L-1190460 313999 L-1190230 313994 L-1189547 313990 L-1189534 313986 L-1189324 313980 L-1189302 313979 L-1189128 313976 L-1188178 313974 L-1187909 313971 L-1187094 313970 L-1186784 313967 L-1186746 313966 L-1186689 313963 L-1186072 313961 L-1185434 313959 L-1183808 313957 L-1183134 313956 L-1182492 313956 L-1182415 313956 L-1182358 313956 L-1182322 313956 L-1182294 313954 L-1182182 313951 L-1182164 313950 L-1182142 313949 L-1181988 313947 L-1181935 313944 L-1181857 313943 L-1181737 313941 L-1181640 313940 L-1181522 313939 L-1181253 313936 L-1180983 313934 L-1180966 313931 L-1180766 313930 L-1180619 313927 L-1180392 313926 L-1180258 313924 L-1179949 313923 L-1179889 313921 L-1179536 313919 L-1179188 313917 L-1179087 313916 L-1179022 313913 L-1178962 313911 L-1178578 313909 L-1178197 313907 L-1178093 313906 L-1177833 313904 L-1177561 313901 L-1177402 313900 L-1177370 313899 L-1177308 313897 L-1177167 313896 L-1176983 313894 L-1176938 313893 L-1176650 313893 L-1176634 313891 L-1176401 313891 L-1176340 313890 L-1176302 313890 L-1175722 313889 L-1175588 313887 L-1175565 313881 L-1175546 313871 L-1175529 313860 L-1175513 313849 L-1175489 313837 L-1175472 313828 L-1175451 313818 L-1175435 313808 L-1175411 313803 L-1175395 313797 L-1175373 313793 L-1175356 313790 L-1175307 313786 L-1175235 313781 L-1175200 313774 L-1175177 313768 L-1175141 313763 L-1175100 313757 L-1175063 313754 L-1175047 313748 L-1175022 313744 L-1174985 313741 L-1174968 313737 L-1174945 313734 L-1174928 313731 L-1174909 313728 L-1174893 313726 L-1174864 313721 L-1174838 313717 L-1174793 313716 L-1174776 313713 L-1174734 313711 L-1174686 313708 L-1174615 313706 L-1174600 313703 L-1174584 313700 L-1174522 313698 L-1174483 313697 L-1174443 313696 L-1174277 313694 L-1174212 313693 L-1174196 313691 L-1174152 313688 L-1174094 313687 L-1173881 313685 L-1173848 313684 L-1173805 313683 L-1173727 313681 L-1173190 313680 L-1173112 313678 L-1173007 313675 L-1172919 313674 L-1172743 313673 L-1172392 313671 L-1172236 313670 L-1171798 313668 L-1171642 313667 L-1171512 313665 L-1170808 313663 L-1170607 313661 L-1169646 313658 L-1169164 313657 L-1169065 313657 L-1168972 313655 L-1168727 313654 L-1168654 313653 L-1168211 313650 L-1168115 313648 L-1168100 313647 L-1168084 313645 L-1168059 313644 L-1167594 313643 L-1167377 313641 L-1167237 313640 L-1166943 313638 L-1166855 313637 L-1166813 313635 L-1166783 313634 L-1166611 313633 L-1166552 313631 L-1166476 313630 L-1166395 313628 L-1166325 313628 L-1166016 313627 L-1165931 313625 L-1165717 313624 L-1165682 313623 L-1164999 313621 L-1164900 313620 L-1164695 313618 L-1164648 313617 L-1164370 313615 L-1164308 313614 L-1164291 313611 L-1164213 313610 L-1163905 313607 L-1163880 313605 L-1163826 313603 L-1163803 313601 L-1163681 313600 L-1163545 313597 L-1163301 313595 L-1163175 313595 L-1162529 313594 L-1162513 313594 L-1162488 313594 L-1162308 313591 L-1162232 313590 L-1162140 313588 L-1161712 313587 L-1161296 313585 L-1160903 313583 L-1160824 313581 L-1160806 313580 L-1160442 313578 L-1160206 313577 L-1159978 313575 L-1159664 313574 L-1159587 313573 L-1159506 313570 L-1159328 313567 L-1159312 313565 L-1159047 313563 L-1158967 313561 L-1158736 313560 L-1158510 313558 L-1158195 313558 L-1158020 313557 L-1157658 313557 L-1157267 313555 L-1157197 313553 L-1157133 313551 L-1156993 313548 L-1156941 313547 L-1156840 313544 L-1156338 313542 L-1156141 313541 L-1155894 313540 L-1155709 313538 L-1155409 313537 L-1155333 313535 L-1155167 313532 L-1154282 313531 L-1154254 313528 L-1154131 313525 L-1153552 313524 L-1153474 313522 L-1152761 313522 L-1152449 313522 L-1152236 313522 L-1152219 313522 L-1151833 313522 L-1151308 313520 L-1150861 313518 L-1150532 313517 L-1150379 313515 L-1150053 313515 L-1149875 313514 L-1149793 313514 L-1149587 313511 L-1149412 313510 L-1148483 313508 L-1147593 313507 L-1147554 313505 L-1147326 313505 L-1146947 313504 L-1146159 313502 L-1145925 313501 L-1145849 313500 L-1145492 313498 L-1144920 313495 L-1144653 313494 L-1144266 313492 L-1144163 313492 L-1143993 313492 L-1143374 313492 L-1143163 313492 L-1142855 313492 L-1142802 313491 L-1142675 313490 L-1142621 313488 L-1142502 313487 L-1142166 313484 L-1141207 313482 L-1141076 313480 L-1140874 313478 L-1140243 313477 L-1139931 313475 L-1139517 313474 L-1139490 313472 L-1139345 313471 L-1138924 313470 L-1137592 313470 L-1137545 313468 L-1137416 313465 L-1137400 313464 L-1136822 313461 L-1136616 313460 L-1136586 313458 L-1136545 313457 L-1136488 313455 L-1136450 313454 L-1136372 313452 L-1136229 313451 L-1135775 313450 L-1135657 313448 L-1135371 313447 L-1134999 313445 L-1134903 313444 L-1134576 313442 L-1134221 313441 L-1134051 313440 L-1134004 313438 L-1133895 313437 L-1133806 313435 L-1133778 313434 L-1133702 313431 L-1133398 313430 L-1133364 313427 L-1133293 313425 L-1132925 313424 L-1132589 313422 L-1132509 313422 L-1132289 313421 L-1132117 313420 L-1132090 313418 L-1131593 313417 L-1131043 313414 L-1130163 313412 L-1130065 313410 L-1129988 313408 L-1129713 313407 L-1129466 313404 L-1129392 313402 L-1129330 313400 L-1129211 313398 L-1129169 313397 L-1129059 313395 L-1128982 313392 L-1128281 313391 L-1128036 313389 L-1127996 313388 L-1127840 313387 L-1127241 313387 L-1127014 313387 L-1126922 313387 L-1126446 313387 L-1125849 313384 L-1125329 313382 L-1125308 313381 L-1125163 313379 L-1124843 313379 L-1124301 313379 L-1124069 313379 L-1123899 313379 L-1123412 313378 L-1123185 313377 L-1123100 313375 L-1122754 313374 L-1122428 313374 L-1121904 313372 L-1121577 313371 L-1120977 313369 L-1120779 313367 L-1120727 313365 L-1120686 313364 L-1120405 313362 L-1119721 313359 L-1119411 313358 L-1119386 313355 L-1119195 313354 L-1118972 313352 L-1118886 313351 L-1118222 313348 L-1118198 313347 L-1117976 313344 L-1117646 313342 L-1117294 313339 L-1117089 313338 L-1116857 313335 L-1116599 313334 L-1116409 313331 L-1116362 313329 L-1116135 313328 L-1116100 313327 L-1115944 313325 L-1115729 313324 L-1115556 313322 L-1115465 313321 L-1115188 313319 L-1114944 313318 L-1114629 313317 L-1114203 313317 L-1114165 313317 L-1113682 313317 L-1113448 313317 L-1113237 313315 L-1113010 313314 L-1112461 313314 L-1112213 313312 L-1111379 313312 L-1111324 313311 L-1111302 313309 L-1111144 313308 L-1110683 313307 L-1110642 313305 L-1110302 313302 L-1110169 313301 L-1109946 313299 L-1109374 313298 L-1108902 313297 L-1108707 313295 L-1108515 313294 L-1108325 313292 L-1108223 313291 L-1107855 313289 L-1107809 313288 L-1107727 313287 L-1106434 313285 L-1106385 313284 L-1106117 313284 L-1105972 313284 L-1105421 313284 L-1105304 313282 L-1105223 313281 L-1104863 313279 L-1104640 313278 L-1104358 313277 L-1104029 313274 L-1103521 313272 L-1103409 313271 L-1103330 313269 L-1103165 313268 L-1102871 313268 L-1102402 313268 L-1102206 313269 L-1102155 313269 L-1101505 313268 L-1101384 313267 L-1100930 313267 L-1100894 313265 L-1100425 313264 L-1100315 313262 L-1100299 313261 L-1100082 313261 L-1099902 313259 L-1099370 313259 L-1098340 313259 L-1098141 313258 L-1097683 313257 L-1096734 313254 L-1096635 313252 L-1096282 313249 L-1096221 313248 L-1096206 313246 L-1096171 313245 L-1095802 313244 L-1095682 313242 L-1095440 313241 L-1095276 313239 L-1095089 313238 L-1094968 313236 L-1093897 313234 L-1093039 313232 L-1092827 313229 L-1092729 313228 L-1092555 313225 L-1092222 313224 L-1092150 313222 L-1092093 313221 L-1091917 313221 L-1091528 313219 L-1091293 313218 L-1091182 313216 L-1091065 313215 L-1090084 313214 L-1090058 313212 L-1089464 313209 L-1089432 313209 L-1089283 313208 L-1088999 313206 L-1088087 313206 L-1087141 313206 L-1086988 313205 L-1086885 313205 L-1086754 313204 L-1086611 313202 L-1086584 313201 L-1086470 313199 L-1086252 313198 L-1085570 313196 L-1085441 313195 L-1085138 313194 L-1084898 313191 L-1084565 313189 L-1083926 313188 L-1083584 313185 L-1083522 313184 L-1083366 313184 L-1082445 313184 L-1081974 313184 L-1081931 313184 L-1081918 313182 L-1081877 313181 L-1081855 313179 L-1081828 313178 L-1081684 313176 L-1081261 313175 L-1080926 313175 L-1080735 313174 L-1080306 313174 L-1080118 313172 L-1079730 313169 L-1079195 313168 L-1078823 313166 L-1078801 313166 L-1078551 313165 L-1078433 313164 L-1078357 313162 L-1078221 313161 L-1078182 313159 L-1078102 313158 L-1077708 313156 L-1077212 313155 L-1077100 313152 L-1076927 313151 L-1076619 313149 L-1076171 313148 L-1075848 313146 L-1075706 313144 L-1075279 313141 L-1075125 313138 L-1075070 313135 L-1074256 313134 L-1074237 313132 L-1073865 313131 L-1073808 313131 L-1072679 313129 L-1072611 313129 L-1072052 313128 L-1071858 313126 L-1071721 313125 L-1071488 313124 L-1071141 313122 L-1071106 313119 L-1071071 313118 L-1071003 313115 L-1070654 313114 L-1070482 313112 L-1069997 313111 L-1069981 313109 L-1069656 313108 L-1069498 313106 L-1068357 313104 L-1068333 313102 L-1068141 313099 L-1067947 313098 L-1067697 313096 L-1067680 313095 L-1066660 313093 L-1066362 313092 L-1066286 313091 L-1066150 313088 L-1065975 313086 L-1065398 313083 L-1065182 313082 L-1065119 313081 L-1064988 313079 L-1064951 313076 L-1064428 313075 L-1064290 313638 L-1064275 313638 L-1064253 313638 L-1064232 313638 L-1064005 313073 L-1063229 313073 L-1063188 313073 L-1062820 313073 L-1062742 313072 L-1062690 313071 L-1062016 313069 L-1061274 313068 L-1060849 313068 L-1060401 313066 L-1059340 313065 L-1059028 313062 L-1058618 313062 L-1058546 313061 L-1058022 313061 L-1057927 313061 L-1057909 313061 L-1057465 313059 L-1057279 313056 L-1056499 313053 L-1055826 313052 L-1055414 313048 L-1055182 313045 L-1055042 313043 L-1054960 313041 L-1054940 313039 L-1054864 313039 L-1054736 313038 L-1054419 313039 L-1054195 313039 L-1053870 313038 L-1053807 313038 L-1053437 313038 L-1053404 313038 L-1053196 313038 L-1052528 313038 L-1052451 313038 L-1052293 313035 L-1052182 313035 L-1051856 313033 L-1051701 313032 L-1051360 313032 L-1051303 313029 L-1050965 313026 L-1050761 313025 L-1050708 313022 L-1049332 313021 L-1049202 313019 L-1048769 313018 L-1048448 313016 L-1047621 313013 L-1047497 313012 L-1046766 313009 L-1046610 313006 L-1046570 313005 L-1046516 313003 L-1046493 313002 L-1046379 313001 L-1046082 312999 L-1045793 312998 L-1045738 312996 L-1045618 312995 L-1045587 312993 L-1045488 312992 L-1045044 312992 L-1044892 312991 L-1044057 312991 L-1043515 312989 L-1043180 312989 L-1043164 312988 L-1043089 312986 L-1042973 312985 L-1042778 312983 L-1042514 312982 L-1041679 312981 L-1041583 312979 L-1041061 312978 L-1041020 312976 L-1040920 312975 L-1040092 312975 L-1039957 312973 L-1039618 312973 L-1039064 312972 L-1038685 312971 L-1038522 312969 L-1038212 312968 L-1037399 312966 L-1037093 312965 L-1036824 312965 L-1036503 312965 L-1036182 312966 L-1035907 312966 L-1035078 312963 L-1034983 312962 L-1034890 312958 L-1034786 312953 L-1034399 312949 L-1033919 312946 L-1033902 312945 L-1033784 312943 L-1033416 312940 L-1033321 312939 L-1032487 312936 L-1032410 312935 L-1032111 312933 L-1032020 312932 L-1031613 312929 L-1031503 312926 L-1030803 312925 L-1030330 312923 L-1030270 312922 L-1030051 312919 L-1029777 312918 L-1029664 312916 L-1028637 312915 L-1028251 312913 L-1028231 312912 L-1027898 312910 L-1027653 312909 L-1027220 312908 L-1027110 312906 L-1026992 312905 L-1026540 312902 L-1025950 312900 L-1025613 312899 L-1023720 312898 L-1023607 312895 L-1023395 312893 L-1022077 312892 L-1021970 312570 L-1021904 312253 L-1021868 311960 L-1021806 311960 L-1021307 312278 L-1020632 312593 L-1020610 312883 L-1020339 312880 L-1019371 312880 L-1018682 312879 L-1018520 312878 L-1017979 312876 L-1017889 312875 L-1016870 312873 L-1015922 312870 L-1015557 312872 L-1015454 312873 L-1014866 312873 L-1014806 312873 L-1014706 312872 L-1014266 312869 L-1014158 312868 L-1013716 312866 L-1012717 312862 L-1012460 312858 L-1012357 312853 L-1012227 312850 L-1011861 312848 L-1011280 312845 L-1011249 312843 L-1010933 312842 L-1008950 312840 L-1008835 312839 L-1008767 312839 L-1008408 312838 L-1006790 312836 L-1006612 312836 L-1006468 312836 L-1005645 312838 L-1005592 312839 L-1005538 312839 L-1005104 312839 L-1004123 312840 L-1004050 312840 L-1002965 312839 L-1002752 312839 L-1002036 312836 L-1001647 312835 L-1001428 312832 L-1001109 312829 L-1000615 312826 L-1000487 312825 L-1000259 312822 L-1000026 312819 L-999967 312818 L-999677 312816 L-999405 312813 L-998376 312812 L-996710 312810 L-996291 312809 L-996154 312807 L-995998 312807 L-995693 312806 L-995464 312803 L-995306 312802 L-995147 312799 L-994978 312796 L-994930 312795 L-994877 312793 L-994855 312793 L-994469 312792 L-994219 312792 L-993949 312792 L-993788 312792 L-993698 312792 L-992040 312792 L-991875 312793 L-991495 312792 L-991035 312792 L-990425 312789 L-989332 312787 L-988901 312786 L-988869 312785 L-988807 312783 L-988790 312782 L-987086 312780 L-987044 312779 L-986577 312777 L-986391 312776 L-986358 312773 L-985763 312772 L-985713 312770 L-985391 312769 L-985340 312767 L-985129 312766 L-985111 312765 L-984845 312762 L-984792 312760 L-984323 312759 L-983813 312756 L-983735 312756 L-983440 312755 L-983424 312753 L-983385 312752 L-983314 312750 L-983157 312749 L-982211 312749 L-982154 312749 L-981633 312749 L-981441 312747 L-981340 312747 L-981114 312746 L-980604 312746 L-980216 312785 L-980147 312785 L-979798 312783 L-979442 312782 L-978313 312740 L-978261 312737 L-978035 312736 L-978001 312735 L-977876 312732 L-977778 312732 L-977513 312732 L-976773 312733 L-976194 312733 L-975901 312733 L-975195 312733 L-975016 312732 L-974993 312732 L-974357 312730 L-974046 312729 L-973649 312729 L-973620 312727 L-973599 312726 L-973445 312725 L-972760 312725 L-972743 312725 L-972403 312725 L-972131 312723 L-972093 312722 L-972037 312719 L-972015 312717 L-971943 312716 L-971611 312715 L-971505 312713 L-971477 312710 L-971278 312709 L-971126 312707 L-970258 312706 L-969695 312703 L-969679 312703 L-969578 312702 L-969476 312703 L-969329 312703 L-969251 312703 L-969213 312702 L-969158 312700 L-969084 312699 L-968939 312697 L-968458 312697 L-968053 312696 L-967187 312697 L-967167 312697 L-966909 312697 L-966832 312697 L-966803 312696 L-966793 312693 L-966776 312692 L-966483 312690 L-966443 312689 L-966371 312687 L-966298 312686 L-966093 312685 L-965933 312680 L-965631 312676 L-965554 312670 L-965537 312666 L-965321 312663 L-965089 312663 L-964980 312665 L-964610 312666 L-964452 312666 L-964220 312666 L-964052 312666 L-963906 312665 L-963775 312663 L-962499 312660 L-962095 312657 L-962035 312656 L-961918 312653 L-961493 312652 L-961477 312649 L-961415 312647 L-961142 312644 L-961029 312643 L-960747 312640 L-960470 312639 L-960045 312636 L-960022 312634 L-959944 312633 L-959819 312632 L-959232 312630 L-958841 312629 L-958505 312627 L-957916 312626 L-957814 312626 L-957644 312624 L-957507 312624 L-956680 312623 L-955494 312622 L-955458 312620 L-955403 312620 L-955182 312619 L-954977 312619 L-954822 312619 L-954566 312617 L-954489 312616 L-953947 312614 L-953910 312613 L-953661 312612 L-953274 312610 L-952448 312609 L-952090 312607 L-951780 312607 L-951522 312606 L-951298 312604 L-950892 312603 L-950775 312602 L-950592 312600 L-950539 312600 L-950350 312599 L-950179 312597 L-950151 312596 L-949870 312594 L-949560 312593 L-949422 312592 L-949112 312590 L-948918 312590 L-948903 312589 L-948183 312589 L-948050 312586 L-947752 312584 L-947662 312583 L-947061 312583 L-947023 312582 L-946944 312580 L-946324 312579 L-946172 312576 L-946132 312574 L-945821 312573 L-945629 312572 L-945436 312569 L-945381 312566 L-945072 312564 L-945020 312563 L-944965 312564 L-944940 312564 L-944815 312564 L-944004 312563 L-943928 312562 L-943387 312560 L-943118 312559 L-942459 312557 L-941551 312556 L-941310 312554 L-940777 312553 L-940560 312552 L-939453 312553 L-939403 312553 L-938627 312553 L-938079 312552 L-937968 312550 L-937815 312547 L-937760 312546 L-937595 312544 L-937217 312543 L-936770 312542 L-936715 312540 L-936561 312539 L-935881 312537 L-935661 312536 L-935143 312534 L-934294 312532 L-934278 312530 L-932487 312529 L-931932 312527 L-931815 312526 L-930810 312524 L-930773 312523 L-930540 312523 L-930448 312523 L-930408 312523 L-930076 312522 L-929724 312520 L-929459 312517 L-929172 312516 L-928861 312513 L-928607 312510 L-928513 312509 L-928023 312507 L-927816 312506 L-927250 312504 L-927136 312506 L-926785 312504 L-926733 312504 L-926693 312504 L-926090 312501 L-925356 312499 L-924775 312496 L-924539 312493 L-923999 312489 L-923846 312486 L-923345 312484 L-923135 312481 L-923112 312481 L-923053 312480 L-922090 312480 L-921913 312479 L-921471 312477 L-921447 312474 L-921292 312473 L-921210 312473 L-921060 312474 L-920413 312474 L-920363 312473 L-919243 312471 L-918259 312470 L-918198 312469 L-917477 312467 L-916612 312466 L-916233 312464 L-916014 312464 L-915255 312463 L-915203 312461 L-914894 312459 L-914042 312459 L-913849 312457 L-913672 312456 L-913448 312456 L-913321 312454 L-913129 312454 L-912897 312453 L-912727 312454 L-912441 312453 L-912161 312453 L-912078 312451 L-911908 312450 L-911891 312447 L-911737 312446 L-911698 312444 L-910923 312443 L-910846 312443 L-910614 312440 L-910187 312439 L-909842 312437 L-909258 312436 L-908990 312436 L-908731 312436 L-908601 312433 L-908585 312431 L-908471 312430 L-908447 312429 L-908213 312427 L-908177 312426 L-906861 312426 L-906805 312424 L-906126 312421 L-905554 312421 L-905428 312421 L-905275 312421 L-905198 312421 L-904886 312419 L-904614 312417 L-904524 312414 L-904423 312414 L-903495 312413 L-903419 312413 L-903055 312413 L-903030 312411 L-902994 312410 L-902218 312407 L-902126 312406 L-901986 312404 L-901584 312403 L-901323 312403 L-901079 312404 L-900865 312403 L-900785 312403 L-900708 312403 L-900632 312403 L-900445 312404 L-900379 312404 L-900129 312404 L-900074 312403 L-899937 312401 L-899857 312399 L-899744 312397 L-899520 312396 L-899356 312394 L-899315 312393 L-899146 312391 L-898775 312390 L-898760 312389 L-898644 312387 L-897923 312386 L-897887 312384 L-897754 312384 L-897406 312383 L-896995 312383 L-896958 312383 L-896880 312381 L-896842 312380 L-896477 312379 L-896273 312377 L-896258 312376 L-895913 312374 L-895564 312374 L-895238 312374 L-895137 312373 L-894984 312373 L-894789 312371 L-894558 312371 L-894465 312371 L-894310 312371 L-894233 312371 L-894192 312370 L-894078 312369 L-894055 312367 L-893804 312367 L-893666 312364 L-893088 312360 L-892260 312357 L-891772 312354 L-891650 312353 L-891612 312351 L-891599 312350 L-891447 312347 L-891346 312344 L-891113 312343 L-890723 312340 L-890418 312338 L-890403 312337 L-890232 312336 L-889993 312333 L-889397 312333 L-888793 312331 L-888754 312331 L-888713 312331 L-888560 312330 L-888507 312328 L-888444 312327 L-888376 312326 L-888322 312323 L-888296 312321 L-888250 312320 L-888155 312317 L-888018 312316 L-887865 312314 L-887733 312313 L-887692 312313 L-887656 312311 L-887594 312310 L-887321 312307 L-887006 312306 L-886965 312303 L-886880 312301 L-886703 312300 L-886466 312298 L-886108 312297 L-886078 312296 L-885509 312294 L-885386 312293 L-885150 312291 L-885127 312291 L-884846 312290 L-884561 312290 L-884305 312290 L-883733 312288 L-883437 312287 L-883360 312286 L-882661 312284 L-882584 312283 L-882549 312281 L-882522 312280 L-882471 312277 L-882277 312276 L-882137 312273 L-882101 312271 L-882061 312270 L-881465 312268 L-881233 312267 L-880949 312277 L-880895 312286 L-880821 312296 L-880743 312304 L-880507 312301 L-880263 312300 L-880127 312298 L-880021 312297 L-879941 312296 L-879554 312293 L-879427 312291 L-879274 312290 L-879237 312288 L-879091 312287 L-878869 312286 L-878695 312284 L-878626 312283 L-877805 312280 L-877789 312280 L-877494 312278 L-876706 312277 L-876396 312277 L-876250 312276 L-876022 312274 L-875821 312271 L-874884 312270 L-874848 312268 L-874825 312267 L-874784 312264 L-874516 312263 L-873919 312261 L-873855 312260 L-873820 312258 L-873803 312257 L-873108 312257 L-872907 312257 L-872875 312257 L-872541 312257 L-872434 312256 L-871809 312253 L-871305 312251 L-871267 312248 L-870825 312248 L-870729 312247 L-870570 312247 L-870257 312247 L-870245 312247 L-869805 312248 L-869323 312250 L-869194 312250 L-868874 312250 L-868805 312248 L-868501 312248 L-868325 312247 L-868132 312246 L-867889 312243 L-867691 312240 L-867666 312237 L-867087 312236 L-867017 312234 L-866608 312233 L-866553 312231 L-866507 312230 L-866143 312228 L-865997 312227 L-865792 312226 L-865695 312226 L-865540 312224 L-865479 312223 L-865331 312220 L-865231 312218 L-864674 312218 L-864651 312221 L-864479 312223 L-863938 312224 L-863877 312224 L-863823 312221 L-863794 312218 L-863723 312217 L-863706 312214 L-863643 312213 L-863607 312210 L-863452 312208 L-863126 312207 L-862560 312205 L-862546 312204 L-862484 312201 L-862382 312198 L-862336 312198 L-862093 312197 L-861671 312197 L-861516 312197 L-859775 312194 L-859233 312193 L-858290 312191 L-857880 312190 L-857339 312187 L-857143 312185 L-856974 312184 L-856678 312183 L-856564 312181 L-856549 312181 L-856394 312180 L-856254 312178 L-856177 312175 L-856046 312175 L-855698 312175 L-855327 312177 L-854729 312177 L-854553 312177 L-854397 312175 L-854128 312174 L-853976 312174 L-853685 312178 L-853662 312181 L-853579 312184 L-853351 312187 L-852652 312185 L-852525 312184 L-852094 312183 L-852000 312181 L-850795 312181 L-850745 312180 L-850452 312180 L-850049 312178 L-849773 312175 L-849754 312174 L-849636 312173 L-849560 312171 L-849378 312170 L-848898 312168 L-848447 312165 L-848037 312164 L-848006 312163 L-847588 312161 L-847474 312161 L-847356 312161 L-847341 312161 L-847146 312160 L-847125 312157 L-846892 312155 L-846449 312154 L-846130 312151 L-845665 312151 L-845500 312150 L-845345 312148 L-845189 312148 L-844735 312148 L-844416 312148 L-844361 312150 L-843990 312150 L-843953 312151 L-843626 312151 L-843509 312150 L-843411 312148 L-843085 312145 L-842698 312144 L-842437 312143 L-842078 312140 L-841822 312138 L-839652 312137 L-839602 312135 L-839580 312134 L-839168 312134 L-839107 312134 L-839037 312135 L-838806 312135 L-838495 312134 L-838192 312131 L-838148 312130 L-837840 312128 L-837707 312127 L-837490 312125 L-836778 312124 L-836623 312124 L-836484 312123 L-836336 312123 L-836315 312123 L-836120 312121 L-836095 312120 L-836004 312118 L-835982 312117 L-835966 312115 L-835865 312114 L-834937 312113 L-834479 312113 L-833387 312110 L-832964 312110 L-832561 312108 L-832522 312107 L-832268 312105 L-831494 312103 L-831478 312101 L-831453 312100 L-831260 312098 L-830524 312097 L-830254 312095 L-830214 312094 L-829815 312091 L-829790 312090 L-829001 312088 L-828321 312087 L-826950 312085 L-826680 312084 L-826631 312083 L-826094 312080 L-826061 312078 L-825959 312075 L-825635 312074 L-825556 312072 L-825287 312072 L-824374 312071 L-824235 312071 L-823987 312068 L-823441 312068 L-823019 312067 L-822826 312065 L-822811 312065 L-822673 312062 L-822579 312061 L-822452 312060 L-822192 312058 L-822167 312055 L-822075 312054 L-821765 312052 L-821705 312051 L-821588 312051 L-821238 312051 L-820428 312051 L-820196 312048 L-819367 312048 L-819135 312045 L-818919 312044 L-818400 312044 L-817762 312042 L-817346 312041 L-817023 312040 L-816543 312038 L-816117 312038 L-816056 312037 L-815707 312037 L-815667 312035 L-815653 312034 L-815554 312031 L-815508 312031 L-815023 312030 L-814221 312030 L-813887 312030 L-812806 312028 L-812326 312027 L-812303 312025 L-812163 312024 L-811607 312022 L-810910 312021 L-810601 312020 L-810379 312018 L-810275 312017 L-810172 312014 L-809501 312012 L-809407 312011 L-809385 312011 L-809308 312010 L-809130 312010 L-808958 312010 L-808777 312008 L-808764 312007 L-808687 312005 L-808523 312004 L-808008 312002 L-807992 312001 L-807852 312001 L-807489 312000 L-807465 312000 L-807335 311998 L-807310 311997 L-806948 311995 L-806422 311992 L-806329 311991 L-806113 311988 L-806019 311987 L-805995 311985 L-805531 311984 L-805453 311984 L-805052 311982 L-804601 311982 L-803349 311981 L-803311 311980 L-802879 311978 L-802846 311977 L-802127 311975 L-801951 311974 L-801815 311972 L-801509 311971 L-801454 311970 L-801429 311967 L-801413 311964 L-801238 311962 L-801048 311961 L-800541 311961 L-800167 311950 L-799829 311937 L-799790 311925 L-799071 311915 L-798977 311914 L-798939 311912 L-798397 311912 L-798374 311911 L-797971 311909 L-797546 311908 L-797275 311908 L-797095 311907 L-796849 311904 L-796826 311902 L-796770 311899 L-796153 311898 L-795650 311897 L-795263 311897 L-794644 311898 L-794428 311898 L-794273 311899 L-792980 311897 L-792881 311895 L-792439 311892 L-792107 311891 L-791807 311888 L-791565 311887 L-790830 311884 L-790251 311882 L-789421 311881 L-789321 311879 L-788763 311878 L-788625 311877 L-786983 311875 L-786922 311875 L-786829 311875 L-785862 311875 L-785684 311874 L-785397 311874 L-785179 311874 L-785101 311872 L-784830 311872 L-784714 311871 L-784561 311869 L-784251 311868 L-784173 311867 L-784082 311867 L-784004 311865 L-783888 311865 L-783709 311864 L-783617 311862 L-783579 311861 L-783076 311861 L-782857 311859 L-782728 311859 L-782573 311858 L-782518 311857 L-782393 311857 L-782008 311855 L-781500 311854 L-781428 311852 L-780948 311851 L-780870 311849 L-780770 311849 L-780537 311848 L-780072 311848 L-779842 311848 L-779826 311848 L-779594 311848 L-779439 311848 L-779377 311848 L-779184 311847 L-778913 311844 L-778162 311842 L-777209 311842 L-777173 311841 L-776948 311841 L-776508 311841 L-776227 311838 L-775879 311837 L-774810 311835 L-773882 311835 L-773751 311835 L-773705 311835 L-773635 311834 L-773480 311834 L-773403 311831 L-773229 311828 L-772795 311825 L-772591 311824 L-772530 311821 L-771948 311819 L-771794 311817 L-771678 311815 L-771637 311814 L-771468 311812 L-771331 311811 L-771120 311808 L-771043 311807 L-771020 311805 L-770811 311802 L-770401 311801 L-770376 311799 L-770153 311798 L-770008 311797 L-769973 311795 L-769960 311794 L-769937 311792 L-769704 311791 L-769518 311789 L-769301 311788 L-769276 311787 L-768587 311785 L-768483 311784 L-768447 311782 L-768427 311781 L-768233 311779 L-768179 311778 L-768063 311775 L-767981 311775 L-767870 311774 L-767556 311772 L-767096 311771 L-766841 311769 L-766607 311766 L-766477 311765 L-766125 311764 L-766065 311762 L-765913 311761 L-765341 311758 L-765254 311756 L-765101 311754 L-764805 311751 L-764435 311748 L-764132 311745 L-764055 311744 L-763650 311742 L-763482 311742 L-763338 311742 L-762798 311742 L-762737 311742 L-762722 311739 L-762555 311738 L-762350 311736 L-762275 311736 L-762182 311735 L-761772 311734 L-761757 311732 L-761733 311732 L-761540 311731 L-761463 311744 L-761293 311756 L-761231 311768 L-761215 311781 L-760701 311779 L-760479 311778 L-759860 311775 L-759607 311774 L-759413 311772 L-759374 311771 L-759300 311771 L-759235 311771 L-758584 311771 L-758546 311772 L-758371 311772 L-758306 311772 L-757632 311772 L-757242 311769 L-756981 311768 L-756743 311766 L-756665 311764 L-756650 311761 L-756447 311759 L-756077 311756 L-755851 311755 L-755216 311754 L-755196 311754 L-754809 311752 L-754715 311752 L-754657 311751 L-754381 311749 L-754071 311749 L-753994 311748 L-753143 311749 L-752800 311756 L-752363 311765 L-751929 311772 L-751435 311779 L-751285 311778 L-751016 311779 L-749778 311781 L-749722 311784 L-747958 311785 L-747768 311784 L-746758 311782 L-746607 311781 L-746231 311784 L-745910 311787 L-745305 311789 L-745235 311792 L-745058 311791 L-744229 311789 L-744091 311788 L-743704 311787 L-743520 311785 L-743476 311784 L-743356 311782 L-743146 311781 L-742699 311778 L-742350 311776 L-742218 311775 L-741809 311774 L-741459 311774 L-741174 311772 L-740980 311771 L-740826 311771 L-740662 311769 L-740594 311768 L-740494 311768 L-740260 311766 L-740144 311766 L-740091 311765 L-739549 311765 L-739084 311764 L-737902 311764 L-737769 311764 L-737744 311764 L-737692 311764 L-737024 311764 L-735989 311761 L-735796 311759 L-735616 311758 L-735464 311758 L-735424 311756 L-735409 311756 L-735347 311755 L-735022 311754 L-733862 311752 L-733668 311751 L-733491 311749 L-732377 311748 L-731517 311746 L-731411 311746 L-730937 311745 L-730744 311745 L-728423 311744 L-728345 311742 L-728224 311739 L-728190 311738 L-728152 311735 L-728058 311731 L-727842 311728 L-727261 311725 L-726875 311724 L-726102 311722 L-726024 311721 L-725326 311721 L-724785 311721 L-724744 311719 L-724614 311719 L-724150 311718 L-724111 311716 L-723977 311715 L-723608 311714 L-723579 311712 L-723429 311712 L-723028 311711 L-721204 311712 L-720397 311711 L-719679 311711 L-719662 311711 L-719348 311708 L-718786 311706 L-718285 311705 L-717766 311704 L-717745 311702 L-716001 311701 L-715832 311699 L-715636 311698 L-714742 311696 L-714224 311694 L-714013 311692 L-713755 311691 L-713046 311689 L-712095 311688 L-711437 311686 L-711398 311684 L-711111 311682 L-711029 311681 L-710934 311681 L-710802 311679 L-710724 311679 L-709989 311679 L-709652 311678 L-709603 311679 L-709347 311679 L-709061 311678 L-708635 311678 L-708055 311676 L-707796 311676 L-707644 311675 L-707397 311675 L-707359 311675 L-706561 311674 L-706524 311672 L-706347 311672 L-705937 311669 L-705709 311669 L-705632 311669 L-705501 311669 L-705385 311668 L-705037 311666 L-704974 311665 L-704821 311664 L-704080 311662 L-703969 311661 L-703799 311659 L-703760 311658 L-703465 311658 L-703064 311658 L-702887 311658 L-702793 311658 L-702483 311656 L-701682 311655 L-701224 311652 L-700704 311651 L-700215 311649 L-699520 311648 L-698473 311646 L-698204 311646 L-698150 311645 L-697990 311645 L-697738 311645 L-697492 311644 L-697413 311642 L-697199 311639 L-696887 311638 L-696423 311635 L-696409 311634 L-696113 311634 L-696099 311632 L-695108 311631 L-694436 311629 L-694101 311626 L-693485 311626 L-693348 311625 L-692709 311623 L-692579 311622 L-691628 311619 L-691528 311616 L-690969 311615 L-690560 311615 L-690132 311615 L-690041 311613 L-689206 311613 L-688842 311613 L-688803 311615 L-688671 311616 L-688494 311616 L-688277 311616 L-688224 311615 L-688067 311612 L-687814 311611 L-686714 311609 L-686636 311608 L-686417 311606 L-686286 311603 L-686250 311602 L-686056 311601 L-685957 311599 L-685473 311598 L-685189 311596 L-685028 311595 L-684934 311592 L-684662 311591 L-684392 311589 L-684376 311583 L-684238 311579 L-684099 311575 L-683773 311569 L-683464 311566 L-683423 311565 L-683347 311562 L-683232 311561 L-682381 311558 L-682055 311556 L-681724 311555 L-681591 311555 L-681375 311555 L-681358 311555 L-680678 311555 L-680585 311552 L-680561 311551 L-680546 311548 L-680507 311546 L-680095 311543 L-679826 311542 L-679786 311541 L-679417 311541 L-679208 311539 L-678125 311539 L-678109 311538 L-678080 311536 L-678060 311536 L-677683 311533 L-677428 311532 L-677180 311529 L-677040 311526 L-676908 311525 L-676576 311523 L-676484 311522 L-676423 311521 L-675865 311519 L-675803 311518 L-675647 311516 L-675453 311515 L-675261 311513 L-675245 311512 L-675207 311511 L-675168 311509 L-674897 311508 L-674774 311506 L-674742 311505 L-674642 311505 L-674486 311505 L-674345 311505 L-674061 311503 L-673736 311503 L-673040 311502 L-673017 311502 L-672508 311502 L-671662 311502 L-671299 311501 L-671144 311499 L-670540 311499 L-670370 311499 L-670309 311499 L-670254 311498 L-669199 311496 L-669180 311496 L-668274 311496 L-668253 311496 L-668086 311495 L-667844 311495 L-667794 311493 L-667739 311491 L-667601 311489 L-667562 311488 L-666634 311486 L-666578 311486 L-666457 311486 L-666385 311486 L-666269 311486 L-666091 311488 L-665108 311486 L-664969 311486 L-664851 311483 L-664557 311480 L-664309 311479 L-664273 311478 L-664218 311479 L-664196 311479 L-664063 311479 L-663984 311479 L-663847 311478 L-663224 311478 L-663057 311476 L-662593 311476 L-662416 311473 L-662400 311472 L-662340 311470 L-662223 311469 L-661741 311468 L-661045 311466 L-660672 311465 L-660503 311463 L-659537 311462 L-659382 311460 L-659204 311460 L-659112 311459 L-658856 311459 L-658686 311459 L-658039 311458 L-658028 311458 L-657448 311456 L-657309 311456 L-657254 311453 L-656519 311452 L-656480 311450 L-656403 311450 L-655761 311449 L-654986 311449 L-654894 311448 L-654845 311448 L-654830 311446 L-654794 311446 L-654778 311443 L-654715 311442 L-654698 311440 L-654678 311440 L-654524 311439 L-654485 311438 L-654469 311436 L-654430 311435 L-654290 311433 L-654214 311432 L-653849 311430 L-653501 311429 L-652728 311428 L-652125 311426 L-651929 311425 L-651699 311425 L-651561 311423 L-650923 311423 L-650634 311422 L-650612 311422 L-650152 311420 L-649919 311420 L-649864 311419 L-649826 311418 L-649323 311416 L-648773 311415 L-647985 311413 L-646862 311413 L-645967 311412 L-645879 311412 L-645580 311410 L-645508 311409 L-645392 311408 L-644215 311406 L-643867 311405 L-643845 311403 L-643326 311402 L-643179 311400 L-643071 311399 L-642861 311398 L-642707 311396 L-642684 311395 L-642490 311393 L-642413 311392 L-642270 311390 L-641469 311389 L-641323 311388 L-641043 311386 L-640866 311385 L-640556 311383 L-639744 311382 L-638816 311382 L-637224 311380 L-636981 311379 L-636340 311378 L-636144 311376 L-636066 311375 L-635549 311373 L-635317 311373 L-635294 311372 L-635162 311372 L-634823 311370 L-634812 311369 L-634595 311368 L-634558 311366 L-634017 311365 L-633488 311362 L-633420 311360 L-633127 311359 L-632579 311356 L-632544 311355 L-632491 311353 L-632392 311350 L-632160 311350 L-631580 311350 L-631482 311352 L-631408 311352 L-631076 311350 L-630326 311349 L-630287 311348 L-629607 311348 L-629452 311348 L-629126 311346 L-628910 311345 L-628679 311345 L-628382 311343 L-628136 311342 L-627785 311340 L-627732 311339 L-626972 311337 L-626279 311335 L-625929 311332 L-625465 311330 L-624831 311329 L-624422 311327 L-624345 311329 L-623919 311329 L-623276 311327 L-623107 311327 L-622365 311326 L-622178 311325 L-621882 311323 L-621310 311322 L-621285 311320 L-620266 311320 L-619779 311319 L-619686 311319 L-619625 311317 L-619336 311316 L-619051 311315 L-618989 311313 L-618809 311313 L-618098 311312 L-617922 311310 L-617724 311309 L-617572 311307 L-617480 311306 L-617419 311305 L-616877 311305 L-616566 311303 L-616474 311300 L-616397 311297 L-615830 311296 L-615739 311296 L-615484 311293 L-615157 311290 L-615120 311286 L-614965 311282 L-614733 311280 L-614411 311279 L-613279 311277 L-613080 311276 L-612554 311275 L-612309 311275 L-612063 311273 L-611983 311272 L-611964 311269 L-611887 311267 L-611831 311265 L-611754 311263 L-611715 311262 L-611536 311259 L-611499 311257 L-611268 311256 L-610030 311255 L-609703 311253 L-609664 311250 L-608882 311249 L-608735 311247 L-607744 311246 L-607537 311246 L-607111 311246 L-606984 311246 L-606580 311247 L-606492 311246 L-605835 311245 L-605127 311243 L-604519 311242 L-604326 311240 L-604093 311237 L-603474 311236 L-603179 311233 L-602739 311232 L-602584 311230 L-602429 311229 L-601673 311226 L-601323 311225 L-600921 311225 L-600882 311223 L-599876 311223 L-599556 311223 L-599310 311222 L-598610 311219 L-598536 311217 L-598224 311216 L-597144 311215 L-596952 311213 L-596719 311213 L-596524 311212 L-596024 311210 L-595270 311210 L-595156 311210 L-594956 311210 L-594915 311209 L-594822 311207 L-594509 311206 L-594421 311205 L-594305 311203 L-593987 311203 L-593918 311202 L-593893 311200 L-593531 311199 L-593492 311197 L-593276 311196 L-592773 311197 L-592170 311199 L-591959 311202 L-591806 311203 L-591768 311203 L-591724 311200 L-591689 311199 L-591556 311197 L-591147 311196 L-590776 311195 L-590723 311193 L-590707 311192 L-590628 311190 L-590218 311189 L-590065 311187 L-590049 311184 L-590009 311183 L-589831 311180 L-589755 311179 L-589523 311177 L-588733 311176 L-588656 311176 L-587921 311173 L-587765 311172 L-587526 311169 L-587464 311166 L-587379 311164 L-587356 311162 L-587238 311159 L-587224 311156 L-587162 311153 L-587125 311152 L-587030 311150 L-587008 311150 L-586892 311149 L-586659 311147 L-586489 311144 L-585669 311144 L-585268 311143 L-585112 311143 L-584608 311143 L-584493 311143 L-583897 311143 L-583523 311142 L-583471 311142 L-583277 311140 L-582581 311140 L-582542 311139 L-582398 311139 L-582172 311137 L-581911 311136 L-581537 311134 L-581111 311133 L-580982 311132 L-580962 311129 L-580469 311129 L-579772 311127 L-579541 311129 L-579387 311129 L-578418 311129 L-578194 311130 L-577916 311130 L-577900 311129 L-577374 311127 L-576845 311126 L-576697 311124 L-576678 311123 L-576136 311122 L-575826 311120 L-575708 311117 L-575517 311114 L-575380 311112 L-575053 311110 L-574936 311109 L-574627 311109 L-574201 311107 L-574145 311107 L-573912 311109 L-573816 311109 L-573682 311109 L-573386 311109 L-573272 311107 L-572908 311106 L-572595 311106 L-572112 311104 L-571942 311103 L-571694 311102 L-571478 311100 L-570952 311099 L-570765 311096 L-570410 311094 L-569775 311093 L-569620 311090 L-568879 311089 L-568460 311087 L-568280 311086 L-568203 311086 L-568072 311084 L-567779 311083 L-567738 311082 L-567508 311082 L-567315 311080 L-567060 311080 L-566634 311079 L-566525 311077 L-565906 311077 L-565725 311077 L-564513 311077 L-563866 311079 L-563715 311079 L-563678 311079 L-563546 311079 L-563445 311077 L-563429 311076 L-563347 311074 L-563136 311073 L-563019 311072 L-562656 311070 L-562284 311069 L-561588 311067 L-561185 311066 L-561080 311064 L-561062 311063 L-560118 311062 L-559923 311059 L-559771 311057 L-559715 311054 L-558959 311054 L-558942 311057 L-558453 311059 L-558322 311062 L-558129 311062 L-557239 311060 L-557200 311059 L-557162 311057 L-557085 311056 L-557046 311056 L-556969 311054 L-556885 311053 L-556620 311052 L-556388 311050 L-556326 311049 L-555846 311047 L-555509 311047 L-555398 311046 L-555204 311044 L-555028 311043 L-554969 311043 L-554932 311041 L-554663 311040 L-553965 311037 L-553912 311034 L-553618 311031 L-553216 311029 L-552651 311027 L-551778 311026 L-551474 311024 L-551436 311023 L-551313 311021 L-550714 311020 L-550585 311019 L-550385 311017 L-550347 311016 L-549733 311014 L-549555 311013 L-549540 311010 L-549322 311009 L-549244 311006 L-548936 311006 L-548805 311004 L-548573 311004 L-548238 311004 L-548147 311003 L-548046 311001 L-548008 311000 L-547465 311000 L-547273 310999 L-546732 310997 L-546306 310996 L-546174 310996 L-546112 310996 L-545881 310996 L-545865 310996 L-545376 310997 L-545296 310997 L-545278 310997 L-543885 310999 L-543750 310999 L-543636 310997 L-543001 310996 L-542862 310994 L-542744 310993 L-542590 310990 L-542553 310989 L-542475 310987 L-542421 310989 L-541429 310989 L-541392 310987 L-541259 310987 L-541199 310984 L-541100 310983 L-540809 310981 L-540796 310980 L-540486 310980 L-540386 310981 L-539921 310980 L-539867 311132 L-539725 311282 L-539597 311433 L-539365 311585 L-538796 311583 L-538707 311582 L-538684 311582 L-538397 311581 L-537714 311579 L-537637 311578 L-537601 311576 L-537585 311575 L-537385 311573 L-536965 311571 L-536694 311571 L-535821 311569 L-535528 311569 L-535417 311569 L-534683 311568 L-534556 311566 L-534196 311565 L-533944 311565 L-533072 311563 L-532903 311563 L-532842 311562 L-532787 311561 L-532439 311559 L-532416 311558 L-532207 311556 L-532066 311555 L-531936 311553 L-531813 311552 L-531690 311551 L-531453 311549 L-531162 311548 L-530503 311546 L-530481 311545 L-530326 311543 L-530209 311542 L-529245 311541 L-529189 311539 L-528956 311538 L-528934 311536 L-528608 311535 L-528492 311535 L-528453 311533 L-527951 311533 L-527652 311532 L-527540 311531 L-526998 311529 L-525939 311528 L-525313 311526 L-525141 311525 L-524893 311523 L-524637 311522 L-524506 311521 L-524485 311519 L-523817 311518 L-522921 311516 L-522875 311515 L-522805 311513 L-522689 311513 L-522468 311512 L-522278 311512 L-522238 311511 L-522046 311509 L-521387 311509 L-520770 311508 L-520731 311516 L-520135 311525 L-520073 311532 L-518951 311539 L-518896 311539 L-518775 311538 L-518510 311536 L-518446 311536 L-518177 311536 L-518101 311535 L-517885 311535 L-517402 311533 L-517132 311532 L-517001 311532 L-516769 311529 L-516744 311525 L-516729 311519 L-516706 311512 L-516691 311505 L-516667 311498 L-516653 311489 L-516629 311480 L-516614 311472 L-516591 311465 L-516576 311458 L-516553 311450 L-516537 311446 L-516509 311442 L-516491 311436 L-516473 311433 L-516437 311429 L-516397 311426 L-516382 311423 L-516357 311419 L-516305 311416 L-516280 311413 L-516203 311410 L-516166 311409 L-516150 311406 L-516087 311403 L-516073 311400 L-516027 311396 L-515956 311393 L-515917 311392 L-515893 311389 L-515841 311386 L-515815 311385 L-515800 311383 L-515738 311382 L-515701 311380 L-515624 311379 L-515609 311378 L-515581 311375 L-515508 311373 L-515468 311372 L-515315 311369 L-515198 311368 L-515144 311366 L-515062 311365 L-515028 311363 L-515004 311362 L-514850 311360 L-514835 311359 L-514733 311358 L-514423 311356 L-514386 311355 L-514171 311353 L-514060 311353 L-514035 311353 L-513805 311355 L-513573 311355 L-513198 311353 L-513070 311352 L-513030 311350 L-512978 311349 L-512877 311348 L-512840 311346 L-512629 311346 L-512565 311345 L-512452 311345 L-512241 311343 L-512204 311342 L-511831 311340 L-511778 311339 L-511699 311337 L-511677 311336 L-511585 311335 L-511385 311333 L-511347 311333 L-511325 311333 L-511095 311333 L-511075 311332 L-510865 311332 L-510770 311330 L-510733 311329 L-510396 311327 L-510284 311326 L-510244 311325 L-510230 311325 L-510091 311323 L-510076 311323 L-509821 311323 L-509238 311322 L-509162 311320 L-509124 311319 L-509079 311317 L-509031 311316 L-508851 311315 L-508837 311313 L-508737 311312 L-508659 311310 L-508599 311309 L-508233 311306 L-508151 311305 L-508133 311303 L-508080 311302 L-507111 311300 L-506980 311299 L-506958 311297 L-506738 311296 L-506669 311295 L-506647 311293 L-506400 311292 L-506144 311290 L-506013 311289 L-505974 311287 L-505952 311285 L-505897 311282 L-505809 311280 L-505748 311277 L-505523 311276 L-505393 311275 L-505294 311273 L-505239 311272 L-505046 311270 L-504968 311269 L-504635 311267 L-504504 311266 L-504326 311265 L-504311 311263 L-504286 311262 L-504016 311262 L-502815 311260 L-502779 311260 L-502662 311259 L-502429 311257 L-502238 311256 L-502199 311256 L-502143 311255 L-502039 311255 L-501525 311253 L-501231 311252 L-500999 311250 L-500724 311249 L-500707 311247 L-500674 311246 L-500634 311245 L-500596 311243 L-500495 311242 L-500418 311240 L-500325 311239 L-500198 311237 L-500094 311236 L-499915 311236 L-499723 311235 L-498894 311235 L-498778 311233 L-498523 311232 L-498483 311230 L-498384 311229 L-498324 311229 L-498081 311227 L-498058 311227 L-497937 311226 L-497865 311225 L-497826 311223 L-497594 311222 L-497418 311220 L-496898 311219 L-496821 311217 L-496805 311216 L-496393 311216 L-496031 311216 L-495915 311215 L-495892 311215 L-495851 311213 L-495775 311212 L-495722 311210 L-495373 311209 L-495257 311207 L-495079 311207 L-495024 311206 L-495001 311206 L-494887 311205 L-494599 311203 L-494367 311202 L-494151 311200 L-493942 311199 L-493731 311196 L-492905 311195 L-492565 311193 L-491558 311192 L-491195 311190 L-490149 311189 L-490072 311187 L-489625 311186 L-489413 311184 L-489222 311183 L-488927 311182 L-488886 311180 L-488733 311179 L-488679 311176 L-488448 311174 L-487867 311173 L-487673 311172 L-487054 311172 L-486565 311170 L-486513 311169 L-485865 311167 L-485715 311166 L-485545 311164 L-485172 311163 L-485157 311163 L-485058 311162 L-485019 311162 L-484888 311160 L-484455 311160 L-484152 311160 L-483766 311160 L-483626 311159 L-483465 311159 L-483031 311159 L-482992 311157 L-482891 311157 L-482776 311156 L-482598 311156 L-482427 311154 L-482309 311153 L-481948 311150 L-481730 311149 L-481598 311147 L-481458 311147 L-480959 311147 L-480881 311147 L-480647 311146 L-480323 311146 L-479936 311144 L-479913 311143 L-479293 311143 L-479023 311142 L-478790 311142 L-478365 311140 L-478093 311139 L-477952 311137 L-477743 311136 L-477537 311134 L-476986 311133 L-476855 311133 L-476468 311132 L-476198 311132 L-476095 311130 L-475835 311129 L-475633 311127 L-475564 311126 L-475525 311124 L-474958 311123 L-474751 311122 L-474724 311120 L-474495 311119 L-474417 311117 L-473900 311116 L-473862 311114 L-473706 311113 L-473413 311112 L-473141 311110 L-472777 311109 L-472429 311109 L-472057 311107 L-471937 311107 L-471865 311106 L-471385 311104 L-471323 311103 L-470988 311102 L-470857 311100 L-470779 311099 L-470650 311097 L-470186 311097 L-469892 311096 L-469815 311096 L-469504 311094 L-469196 311093 L-469132 311092 L-469103 311090 L-468328 311089 L-468223 311086 L-468135 311084 L-468112 311083 L-467958 311082 L-467737 311080 L-467570 311079 L-467183 311077 L-467128 311076 L-467065 311076 L-466447 311074 L-466330 311073 L-466007 311072 L-465482 311070 L-465131 311069 L-465055 311067 L-464436 311066 L-464025 311064 L-463724 311063 L-463413 311062 L-463275 311060 L-462651 311060 L-462269 311059 L-461146 311059 L-460085 311057 L-460023 311056 L-459662 311054 L-459561 311054 L-459545 311053 L-459171 311053 L-458166 311050 L-457779 311049 L-457572 311046 L-457483 311044 L-457107 311043 L-456815 311041 L-456503 311040 L-455714 311039 L-455627 311037 L-455574 311036 L-455536 311034 L-455018 311033 L-454903 311031 L-454694 311030 L-454555 311029 L-453951 311027 L-453122 311026 L-452839 311024 L-452657 311024 L-452155 311023 L-451950 311023 L-451396 311023 L-450891 311021 L-450700 311020 L-450661 311019 L-450032 311017 L-449579 311016 L-449165 311014 L-448556 311013 L-447436 311013 L-447022 311011 L-446698 311011 L-446483 311010 L-446056 311009 L-445916 311007 L-445825 311006 L-445594 311004 L-445007 311004 L-444199 311003 L-443000 311003 L-442886 311003 L-442754 311001 L-442666 311000 L-442624 311001 L-442604 311003 L-442593 311006 L-442498 311009 L-441735 311009 L-441029 311009 L-440989 311007 L-440703 311006 L-440162 311004 L-440100 311003 L-440060 311001 L-440046 311000 L-439789 310999 L-439465 310997 L-439325 310996 L-439055 310994 L-439016 310993 L-438908 310991 L-438507 310990 L-438397 310989 L-438320 310987 L-438023 310986 L-437980 310984 L-437762 310984 L-437578 310984 L-437468 310984 L-437454 310983 L-437427 310983 L-437003 310981 L-436757 310980 L-436421 310979 L-436386 310977 L-436252 310976 L-435998 310976 L-435843 310974 L-434937 310974 L-434838 310973 L-434643 310970 L-433636 310969 L-433135 310967 L-433057 310966 L-433019 310964 L-432811 310963 L-432692 310961 L-432594 310960 L-432408 310959 L-432242 310957 L-432007 310956 L-431587 310954 L-431572 310953 L-431263 310951 L-430217 310950 L-430000 310949 L-429984 310947 L-429962 310946 L-429753 310944 L-429594 310943 L-429536 310941 L-428091 310940 L-427765 310940 L-427563 310940 L-427364 310940 L-427214 310940 L-426943 310939 L-426503 310937 L-426285 310937 L-425590 310936 L-425088 310934 L-424763 310933 L-424492 310933 L-423771 310931 L-423616 310931 L-422418 310929 L-422029 310927 L-421913 310924 L-421760 310923 L-421606 310921 L-420636 310920 L-420584 310919 L-420336 310917 L-420314 310916 L-420094 310914 L-419656 310911 L-419516 310909 L-419409 310906 L-419207 310904 L-419089 310903 L-418987 310901 L-418973 310901 L-418840 310900 L-418586 310899 L-417968 310897 L-417309 310896 L-417063 310896 L-416870 310894 L-416111 310894 L-416072 310894 L-415994 310893 L-415942 310890 L-415902 310888 L-415864 310887 L-415825 310886 L-415734 310884 L-415690 310883 L-415631 310880 L-415607 310878 L-415492 310877 L-415183 310874 L-415128 310873 L-415106 310871 L-414764 310870 L-414599 310868 L-414563 310866 L-414523 310864 L-414508 310863 L-414276 310861 L-414136 310860 L-413968 310858 L-413518 310858 L-413285 310858 L-413192 310858 L-413172 310860 L-412691 310858 L-412614 310858 L-412487 310857 L-412357 310854 L-411978 310853 L-411737 310850 L-411699 310848 L-411645 310847 L-411507 310844 L-411468 310843 L-411428 310841 L-411198 310840 L-411158 310838 L-411028 310837 L-410849 310836 L-410808 310834 L-410794 310833 L-410630 310831 L-410615 310830 L-410462 310828 L-410447 310827 L-410421 310826 L-410387 310824 L-410165 310821 L-409942 310821 L-409688 310820 L-409556 310821 L-408914 310821 L-408307 310820 L-407287 310820 L-407094 310818 L-407043 310817 L-406918 310816 L-406593 310814 L-405820 310813 L-405763 310811 L-405649 310810 L-405237 310808 L-404912 310807 L-404774 310806 L-404550 310804 L-404024 310803 L-403623 310803 L-403591 310801 L-403305 310801 L-403019 310800 L-402631 310798 L-402415 310797 L-401988 310794 L-401806 310793 L-401470 310791 L-401363 310790 L-401177 310790 L-401060 310788 L-401046 310788 L-400325 310787 L-400155 310786 L-399906 310784 L-399807 310783 L-399164 310781 L-398876 310780 L-398686 310778 L-398411 310777 L-398093 310776 L-397809 310774 L-397695 310771 L-397650 310770 L-397447 310768 L-395839 310767 L-395627 310766 L-394946 310764 L-394863 310763 L-394635 310761 L-394445 310761 L-394306 310760 L-394287 310760 L-394094 310760 L-393864 310760 L-393672 310760 L-392588 310758 L-392392 310758 L-392339 310758 L-392186 310758 L-392078 310758 L-391912 310758 L-391759 310757 L-391644 310756 L-391520 310753 L-391103 310751 L-390845 310748 L-390753 310747 L-390560 310747 L-390498 310745 L-390173 310745 L-390112 310745 L-390055 310744 L-389786 310743 L-389438 310741 L-389259 310740 L-389065 310738 L-389029 310740 L-388316 310740 L-388277 310743 L-387967 310744 L-387670 310745 L-387620 310747 L-387364 310748 L-387094 310750 L-387038 310750 L-385947 310750 L-385917 310748 L-385876 310748 L-385700 310748 L-385507 310747 L-384649 310747 L-383596 310745 L-383535 310744 L-383186 310743 L-382373 310743 L-381560 310743 L-381545 310743 L-381170 310743 L-381001 310743 L-380733 310743 L-380405 310741 L-380283 310740 L-380226 310740 L-380191 310738 L-380114 310738 L-379896 310737 L-379838 310735 L-379522 310734 L-379355 310733 L-378991 310733 L-378798 310733 L-378774 310733 L-378697 310731 L-378216 310731 L-378079 310731 L-377665 310730 L-377366 310730 L-377267 310728 L-377251 310727 L-377222 310725 L-376863 310724 L-376513 310723 L-376375 310721 L-376339 310721 L-375522 310720 L-375316 310718 L-375292 310717 L-375135 310717 L-375045 310715 L-374804 310715 L-374480 310714 L-374388 310714 L-374192 310713 L-373906 310713 L-373150 310711 L-373020 310710 L-372947 310708 L-372334 310707 L-372159 310705 L-372048 310704 L-371948 310703 L-371869 310701 L-371732 310700 L-371578 310700 L-371499 310700 L-371308 310700 L-370635 310700 L-370596 310698 L-370493 310697 L-369550 310695 L-369529 310694 L-369177 310693 L-368712 310691 L-368677 310690 L-368248 310688 L-368196 310688 L-367785 310687 L-367768 310687 L-367672 310687 L-367617 310687 L-367578 310687 L-367283 310685 L-365545 310684 L-364035 310683 L-363527 310681 L-363029 310680 L-362895 310678 L-362805 310677 L-362677 310675 L-362598 310673 L-362293 310671 L-362022 310670 L-361788 310670 L-360589 310668 L-360484 310668 L-360419 310667 L-359577 310665 L-359391 310664 L-358480 310663 L-357611 310660 L-357323 310658 L-357231 310655 L-356682 310654 L-356162 310653 L-355093 310651 L-354825 310650 L-354671 310650 L-354578 310650 L-354448 310651 L-354401 310653 L-354241 310653 L-353375 310653 L-353041 310653 L-352657 310651 L-351905 310650 L-351845 310648 L-351456 310648 L-351134 310648 L-350977 310647 L-350245 310647 L-350183 310647 L-349895 310647 L-349521 310647 L-349340 310647 L-349084 310645 L-348823 310643 L-348670 310641 L-348267 310640 L-346970 310638 L-346854 310637 L-346391 310635 L-345059 310634 L-344634 310633 L-344610 310631 L-344477 310630 L-344302 310628 L-344168 310628 L-343838 310627 L-343451 310625 L-343411 310624 L-343395 310621 L-343005 310620 L-342713 310618 L-342444 310618 L-342270 310618 L-340777 310618 L-340727 310617 L-340649 310618 L-339409 310620 L-339334 310620 L-339307 310623 L-339061 310621 L-338903 310621 L-338845 310620 L-337957 310620 L-337729 310618 L-337205 310618 L-337064 310620 L-336988 310620 L-336292 310621 L-336044 310621 L-335364 310620 L-335346 310620 L-335092 310618 L-334724 310618 L-334589 310617 L-333967 310614 L-333623 310613 L-333576 310611 L-333089 310610 L-332755 310607 L-332538 310607 L-332404 310605 L-332083 310604 L-332018 310604 L-331766 310603 L-331477 310601 L-331167 310600 L-331027 310598 L-330488 310597 L-330212 310595 L-329482 310594 L-329429 310594 L-329322 310594 L-329056 310594 L-328632 310594 L-328367 310592 L-328148 310591 L-328127 310590 L-327896 310588 L-327609 310587 L-327586 310587 L-327571 310585 L-327199 310585 L-327027 310584 L-326951 310581 L-326890 310580 L-326589 310577 L-326348 310574 L-326256 310572 L-325999 310571 L-325946 310570 L-325750 310568 L-325534 310570 L-325111 310570 L-325018 310571 L-324878 310570 L-324013 310568 L-323640 310567 L-323312 310564 L-323159 310562 L-322732 310562 L-322014 310561 L-321820 310561 L-321465 310560 L-321319 310558 L-320812 310555 L-320576 310554 L-319609 310552 L-319599 310551 L-318534 310550 L-318301 310548 L-317899 310547 L-317705 310545 L-317625 310544 L-317529 310542 L-316792 310542 L-316660 310542 L-316270 310542 L-316248 310541 L-316153 310541 L-316017 310540 L-316000 310538 L-315980 310537 L-314295 310535 L-314277 310535 L-314160 310534 L-314076 310534 L-313951 310534 L-313927 310532 L-313643 310531 L-313537 310530 L-313348 310527 L-313078 310525 L-312406 310524 L-312034 310522 L-311182 310522 L-311124 310521 L-311105 310521 L-310872 310521 L-310597 310520 L-310292 310520 L-310252 310517 L-310021 310517 L-309784 310515 L-309171 310514 L-309130 310512 L-309093 310510 L-308571 310508 L-308380 310507 L-308319 310505 L-308277 310504 L-307954 310504 L-307926 310502 L-307912 310502 L-307427 310501 L-307373 310500 L-307235 310498 L-307197 310497 L-307180 310495 L-307085 310494 L-306420 310494 L-305804 310492 L-305534 310492 L-305126 310492 L-305106 310491 L-305090 310491 L-304977 310490 L-304589 310488 L-304123 310488 L-304062 310487 L-303984 310485 L-303969 310484 L-303483 310481 L-303443 310480 L-303298 310480 L-303248 310478 L-303170 310480 L-302537 310478 L-302447 310478 L-302206 310478 L-302089 310477 L-301761 310477 L-301007 310475 L-300990 310475 L-300039 310475 L-299729 310474 L-299304 310472 L-298591 310471 L-298272 310470 L-298257 310468 L-298106 310465 L-297803 310464 L-297725 310462 L-297598 310461 L-297161 310461 L-297100 310461 L-296577 310461 L-296309 310461 L-296171 310460 L-296093 310458 L-296054 310457 L-295243 310457 L-295202 310457 L-294762 310457 L-294684 310457 L-294426 310455 L-294236 310454 L-293607 310452 L-293420 310451 L-293385 310448 L-293229 310447 L-292828 310444 L-292751 310442 L-292570 310441 L-292379 310439 L-291450 310437 L-291300 310435 L-290092 310434 L-289282 310432 L-288879 310431 L-288277 310429 L-288075 310428 L-288006 310427 L-287848 310425 L-287586 310424 L-287213 311705 L-287194 311704 L-287038 311704 L-285840 311704 L-284736 310421 L-283808 310419 L-283694 310418 L-283409 310417 L-283307 310415 L-283283 310415 L-283093 310412 L-283015 310411 L-282819 310411 L-282107 310411 L-281950 310412 L-280893 310412 L-280468 310412 L-280057 310411 L-279771 310408 L-279597 310407 L-279365 310405 L-279111 310404 L-278668 310402 L-278008 310401 L-277832 310399 L-277527 310398 L-277140 310397 L-277120 310395 L-277101 310394 L-277079 310392 L-276946 310391 L-276753 310389 L-275109 310388 L-273813 310387 L-273774 310385 L-273716 310384 L-273615 310382 L-273056 310381 L-272072 310379 L-271529 310377 L-271066 310375 L-270420 310374 L-269871 310372 L-268821 310371 L-267893 310369 L-267545 310368 L-267351 310367 L-266849 310365 L-266403 310365 L-266261 310364 L-266240 310364 L-265668 310364 L-265283 310361 L-264450 310359 L-264101 310358 L-264079 310357 L-263692 310357 L-263269 310355 L-262670 310354 L-262651 310352 L-262145 310352 L-261913 310351 L-261800 310351 L-261181 310348 L-260619 310347 L-260579 310345 L-260020 310344 L-259687 310342 L-259575 310342 L-259536 310341 L-259111 310341 L-259051 310341 L-258976 310339 L-258685 310339 L-258472 310338 L-257988 310335 L-257774 310334 L-256634 310332 L-256575 310331 L-256557 310329 L-256151 310328 L-255512 310327 L-255377 310325 L-255319 310324 L-254777 310322 L-254468 310321 L-254217 310321 L-254141 310319 L-254022 310318 L-253288 310315 L-252843 310314 L-252629 310312 L-251895 310311 L-251720 310309 L-251355 310309 L-251140 310309 L-249902 310309 L-249593 310309 L-249476 310309 L-249223 310308 L-249012 310306 L-248470 310305 L-248238 310304 L-248181 310304 L-248084 310302 L-247754 310302 L-247522 310301 L-245859 310299 L-245509 310298 L-245105 310295 L-244950 310294 L-244157 310292 L-242667 310291 L-242280 310289 L-242241 310288 L-241988 310286 L-241893 310285 L-241700 310284 L-241351 310284 L-240655 310282 L-240404 310282 L-239688 310281 L-238276 310279 L-238044 310278 L-237714 310278 L-236498 310278 L-236146 310279 L-235954 310281 L-235836 310282 L-233401 310282 L-232432 310281 L-231601 310279 L-231292 310278 L-229950 310276 L-229377 310275 L-229261 310274 L-228932 310274 L-228836 310272 L-228428 310272 L-228313 310271 L-228122 310269 L-227366 310268 L-227240 310266 L-226959 310265 L-226456 310264 L-226378 310262 L-224792 310269 L-224734 310276 L-223992 310285 L-223612 310292 L-223283 310291 L-222620 310289 L-222490 310288 L-222450 310288 L-222200 310288 L-222064 310288 L-221871 310286 L-221735 310286 L-221484 310284 L-221271 310284 L-220962 310282 L-220690 310282 L-220188 310282 L-220169 310282 L-219735 310281 L-219509 310279 L-219066 310278 L-219047 310276 L-218544 310275 L-218406 310274 L-218292 310272 L-218060 310271 L-217750 310269 L-217285 310268 L-217208 310266 L-216706 310265 L-216435 310264 L-216097 310262 L-215912 310261 L-215236 310259 L-215217 310259 L-215042 310258 L-215022 310256 L-214404 310255 L-213688 310254 L-213126 310252 L-212931 310252 L-212778 310251 L-212759 310251 L-212236 310248 L-212121 310246 L-211250 310245 L-211228 310244 L-211172 310242 L-210341 310241 L-210031 310239 L-209954 310238 L-209683 310236 L-209620 310236 L-209569 310234 L-209258 310231 L-208641 310228 L-207865 310226 L-207072 310225 L-207033 310224 L-206956 310222 L-206783 310221 L-205906 310219 L-205021 310218 L-204926 310216 L-204807 310215 L-204477 310214 L-204441 310214 L-204209 310212 L-203975 310212 L-203260 310209 L-202758 310208 L-202092 310206 L-201984 310205 L-201830 310204 L-201810 310202 L-201655 310201 L-201240 310199 L-200629 310198 L-200494 310196 L-199586 310195 L-199383 310194 L-198830 310192 L-196181 310191 L-196006 310189 L-195928 310186 L-195057 310185 L-194593 310184 L-194110 310182 L-194072 310179 L-193491 310178 L-193471 310176 L-192369 310175 L-190948 310174 L-190530 310172 L-190222 310171 L-190145 310169 L-190069 310168 L-189912 310166 L-189836 310165 L-189371 310164 L-188133 310162 L-187881 310161 L-187437 310159 L-186815 310158 L-186759 310156 L-186566 310156 L-186101 310155 L-185810 310152 L-185769 310149 L-185733 310146 L-185580 310143 L-185402 310142 L-184264 310139 L-183876 310138 L-183819 310136 L-183645 310135 L-181128 310132 L-179968 310131 L-179331 310129 L-179192 310128 L-179060 310125 L-178672 310123 L-178208 310122 L-177998 310119 L-177932 310118 L-177899 310116 L-177145 310115 L-176563 310113 L-176371 310112 L-175752 310111 L-175706 310109 L-175346 310108 L-175240 310106 L-175055 310105 L-174778 310103 L-173874 310102 L-172869 310101 L-172134 310099 L-171709 310098 L-171548 310096 L-171185 310095 L-171088 310093 L-170645 310092 L-170569 310091 L-170217 310091 L-169968 310088 L-169948 310085 L-169774 310082 L-168826 310078 L-168712 310076 L-168149 310075 L-167699 310073 L-167314 310072 L-166403 310071 L-166348 310069 L-165208 310068 L-164628 310065 L-164453 310063 L-163660 310061 L-163428 310059 L-163042 310058 L-162771 310056 L-162635 310055 L-162520 310053 L-161901 310053 L-161843 310053 L-161628 310053 L-161333 310053 L-160545 310052 L-160405 310052 L-159017 310051 L-158670 310051 L-158283 310049 L-158222 310046 L-158185 310045 L-158128 310043 L-157485 310042 L-156794 310041 L-156542 310041 L-156206 310039 L-156117 310039 L-155596 310038 L-155343 310036 L-155127 310033 L-154744 310032 L-154584 310031 L-154045 310028 L-153233 310026 L-153214 310025 L-153098 310025 L-152954 310023 L-152573 310023 L-152381 310023 L-152325 310022 L-152025 310021 L-151959 310019 L-151763 310018 L-151396 310016 L-151334 310015 L-151031 310013 L-150985 310013 L-150932 310012 L-150294 310012 L-150274 310010 L-149789 310009 L-149307 310010 L-148938 310010 L-148571 310012 L-148437 310012 L-148283 310010 L-148213 310009 L-147565 310009 L-147545 310008 L-147405 310008 L-146920 310006 L-146637 310006 L-146579 310005 L-146521 310005 L-146211 310003 L-146057 310002 L-145573 310002 L-144800 310002 L-144160 310002 L-144062 310000 L-143000 310000 L-142978 309999 L-142514 311725 L-142497 311725 L-142324 311725 L-141811 311725 L-139457 309998 L-138512 309996 L-137793 309995 L-137253 309992 L-136556 309990 L-136239 309989 L-135591 309988 L-135083 309986 L-135049 309985 L-135007 309983 L-134661 309982 L-133966 309980 L-133769 309979 L-133753 309976 L-133637 309975 L-133355 309973 L-132457 309970 L-132411 309969 L-132045 309966 L-132028 309965 L-131973 309963 L-131780 309962 L-131644 309960 L-131569 309959 L-131335 309958 L-130793 309956 L-130753 309955 L-130716 309953 L-130691 309952 L-130055 309949 L-129513 309948 L-128348 309946 L-127988 309945 L-126711 309945 L-126672 309943 L-126634 309943 L-126419 309942 L-126228 309940 L-126151 309939 L-125997 309938 L-125958 309936 L-124869 309935 L-124545 309935 L-124331 309933 L-124070 309933 L-123577 309933 L-123555 309939 L-123138 309945 L-122997 309949 L-122937 309955 L-122860 309955 L-122649 309953 L-121354 309953 L-121078 309952 L-120454 309950 L-119063 309949 L-118990 309948 L-118952 309945 L-118759 309943 L-118369 309942 L-118062 309940 L-118006 309939 L-117690 309939 L-117640 309939 L-117601 309938 L-117556 309936 L-116923 309935 L-116149 309933 L-115710 309932 L-115568 311674 L-115544 311672 L-115528 313414 L-115503 313414 L-115086 311672 L-114882 311671 L-114733 309928 L-114655 309926 L-114601 309925 L-113804 309925 L-113787 309925 L-112924 309925 L-112720 309925 L-112433 309923 L-112317 309922 L-111792 309920 L-111615 309919 L-111311 309918 L-110924 309916 L-110864 309913 L-110808 309912 L-110654 309910 L-109609 309909 L-109047 309909 L-108811 309908 L-108774 309908 L-108505 309908 L-108099 309906 L-106630 309905 L-104889 309903 L-104502 309902 L-104270 309900 L-104171 309899 L-104076 309898 L-103921 309895 L-103358 309895 L-103276 309893 L-103109 309893 L-102567 309895 L-101382 309895 L-101368 309895 L-101308 309895 L-101157 309893 L-100672 309892 L-100025 309890 L-99319 309888 L-99202 309886 L-98235 309885 L-98190 309883 L-97500 309883 L-97443 309882 L-97365 309882 L-97345 309880 L-97324 309879 L-97109 309878 L-96396 309878 L-96006 309876 L-95969 309875 L-95952 309873 L-95894 309872 L-95467 309870 L-95253 309869 L-95178 309866 L-95100 309865 L-94985 309863 L-94920 309863 L-94791 309862 L-94732 309862 L-94657 309859 L-94578 309857 L-94149 309856 L-93424 309855 L-93410 309852 L-93243 309850 L-93027 309847 L-93012 309845 L-92431 309843 L-92159 309842 L-91871 309840 L-91441 309839 L-91288 309837 L-91231 309836 L-91055 309835 L-89659 309833 L-89394 309830 L-88501 309827 L-87975 309826 L-86956 309823 L-86875 309822 L-86411 309820 L-85792 309820 L-85505 309819 L-85252 309819 L-85100 309817 L-84752 309816 L-84035 309815 L-83474 309813 L-82585 309812 L-82276 309812 L-81985 309812 L-81133 309812 L-81112 309812 L-80455 309812 L-79952 309809 L-79741 309807 L-79721 309806 L-79392 309805 L-79333 309805 L-78947 309805 L-77961 309805 L-77400 309805 L-77303 309805 L-76994 309803 L-76917 309803 L-75882 309802 L-75752 309800 L-75695 309799 L-75060 309797 L-75001 309796 L-74925 309795 L-73512 309793 L-73375 309792 L-73241 309790 L-72755 309789 L-72506 309787 L-72215 309786 L-72003 309785 L-71345 309783 L-70777 309780 L-70688 309779 L-70548 309777 L-70474 309776 L-69309 309776 L-69277 309775 L-68847 309775 L-68830 309773 L-68656 309772 L-67128 309770 L-67043 309772 L-66238 309772 L-66045 309772 L-66023 309772 L-65170 309770 L-64976 309769 L-64343 309767 L-64167 309766 L-64048 309765 L-63994 309765 L-63973 309765 L-63917 309765 L-63529 309765 L-63085 309765 L-63006 309763 L-62809 309763 L-62748 309762 L-62485 309760 L-62137 309760 L-62021 309759 L-60872 309759 L-60588 309757 L-60143 309756 L-58940 309755 L-58810 309753 L-58500 309752 L-58072 309750 L-56775 309749 L-56465 311428 L-56449 311428 L-56403 311460 L-56353 311460 L-55425 309779 L-55095 309779 L-54546 309745 L-54419 309743 L-53973 309742 L-52440 309740 L-52271 309739 L-52000 309737 L-51976 309735 L-51071 309733 L-50956 309732 L-50488 309730 L-50466 309729 L-50393 309727 L-50195 309726 L-50043 309725 L-49576 309723 L-48925 309722 L-48439 309720 L-47889 309720 L-46867 309720 L-46561 309720 L-46506 309720 L-45906 309719 L-45476 309717 L-45402 309717 L-45384 309716 L-45163 309716 L-44859 309714 L-44777 309713 L-44473 309713 L-43873 309712 L-43737 309710 L-43467 309709 L-43253 309707 L-43078 309707 L-42869 309707 L-42847 309707 L-42598 309725 L-42149 309742 L-42132 309759 L-41687 309776 L-40479 309776 L-40277 309775 L-39348 309775 L-39287 309773 L-39252 309772 L-38227 309770 L-38110 309770 L-38090 309769 L-37936 309769 L-37917 309769 L-37506 309767 L-37490 309767 L-37452 309766 L-37142 309765 L-36988 309763 L-36783 309763 L-36385 309762 L-35402 309762 L-34877 309762 L-34820 309760 L-34795 309760 L-34473 309759 L-33756 309759 L-32887 309759 L-32848 309759 L-32771 309759 L-32520 309757 L-32500 309756 L-31777 309756 L-31627 309755 L-31514 309755 L-31417 309753 L-30315 309752 L-29560 309750 L-29388 309749 L-29226 309747 L-29151 309746 L-28957 309746 L-27819 309745 L-27134 309745 L-26851 309743 L-25884 309742 L-25865 309740 L-25014 309739 L-24974 309737 L-24831 309736 L-24507 309735 L-24277 309733 L-24239 309732 L-24198 309730 L-24182 309727 L-24046 309726 L-24027 309725 L-23815 309723 L-23756 309722 L-23678 309720 L-23654 309719 L-23579 309717 L-23098 309716 L-23002 309714 L-22926 309713 L-22749 309712 L-22727 309710 L-22672 309709 L-22634 309707 L-22575 309706 L-22420 309704 L-21396 309703 L-21097 309702 L-20970 309700 L-20892 309699 L-19867 309697 L-19810 309696 L-19752 309694 L-19706 309693 L-19692 309692 L-19655 309690 L-19616 309689 L-18437 309687 L-18378 309686 L-17681 309686 L-17062 309684 L-16920 309684 L-16477 309683 L-16211 309682 L-15548 309682 L-15264 309680 L-13794 309680 L-12845 309679 L-12739 309677 L-12673 309677 L-12643 309676 L-12324 309674 L-12303 309674 L-11374 309674 L-11198 309676 L-10466 309677 L-9926 232657 L-9902 155635 L-9876 78613 L-9843 1591 L-9827 1589 L-9806 1587 L-9768 1584 L-9749 1584 L-9726 1587 L-9711 1588 L-9692 1589 L-9672 1589 L-9650 1587 L-9634 1585 L-9614 1584 L-9595 1584 L-9556 1584 L-9516 1581 L-9491 1578 L-9475 1574 L-9457 1571 L-9420 1568 L-9401 1567 L-9382 1565 L-9363 1564 L-9341 1561 L-9324 1559 L-9285 1555 L-9262 1551 L-9247 1549 L-9228 1547 L-9208 1545 L-9188 1544 L-9169 1541 L-9131 1539 L-9073 1538 L-9025 1535 L-8973 1534 L-8947 1531 L-8931 1528 L-8914 1527 L-8898 1525 L-8878 1524 L-8860 1524 L-8840 1521 L-8820 1519 L-8798 1517 L-8782 1512 L-8763 1509 L-8743 1508 L-8722 1505 L-8685 1502 L-8666 1499 L-8645 1497 L-8609 1494 L-8588 1492 L-8562 1491 L-8546 1489 L-8528 1487 L-8511 1479 L-8491 1472 L-8473 1464 L-8453 1458 L-8434 1454 L-8376 1451 L-8356 1446 L-8334 1444 L-8299 1439 L-8279 1435 L-8259 1432 L-8241 1429 L-8222 1428 L-8183 1426 L-8164 1424 L-8145 1421 L-8119 1419 L-7931 1416 L-7911 1414 L-7892 1412 L-7869 1409 L-7835 1406 L-7815 1404 L-7793 1399 L-7776 1395 L-7757 1391 L-7737 1386 L-7717 1384 L-7699 1381 L-7680 1378 L-7659 1375 L-7634 1372 L-7618 1369 L-7583 1366 L-7562 1365 L-7544 1362 L-7525 1361 L-7505 1358 L-7484 1355 L-7448 1352 L-7428 1349 L-7406 1346 L-7390 1344 L-7371 1341 L-7351 1338 L-7331 1336 L-7294 1333 L-7216 1332 L-7191 1329 L-7168 1326 L-7140 1322 L-7117 1319 L-7091 1316 L-7041 1313 L-7021 1312 L-6983 1308 L-6964 1305 L-6942 1303 L-6926 1301 L-6907 1299 L-6886 1298 L-6866 1296 L-6829 1293 L-6809 1292 L-6752 1291 L-6731 1289 L-6705 1289 L-6691 1288 L-6673 1288 L-6635 1286 L-6616 1283 L-6597 1281 L-6577 1278 L-6557 1275 L-6539 1272 L-6520 1268 L-6500 1265 L-6479 1262 L-6442 1259 L-6422 1258 L-6404 1256 L-6365 1255 L-6326 1253 L-6306 1252 L-6288 1251 L-6239 1249 L-6211 1248 L-6172 1245 L-6141 1243 L-6127 1241 L-6054 1238 L-6035 1235 L-6013 1233 L-5997 1232 L-5978 1231 L-5938 1231 L-5861 1228 L-5842 1226 L-5823 1223 L-5802 1222 L-5777 1221 L-5745 1219 L-5726 1219 L-5707 1216 L-5668 1213 L-5628 1209 L-5549 1205 L-5514 1202 L-5474 1199 L-5397 1198 L-5378 1196 L-5332 1195 L-5311 1196 L-5282 1196 L-5243 1193 L-5213 1192 L-5198 1189 L-5184 1186 L-5143 1183 L-5082 1182 L-5068 1179 L-5049 1176 L-5028 1173 L-4952 1169 L-4913 1166 L-4895 1163 L-4848 1162 L-4831 1160 L-4813 1159 L-4797 1158 L-4758 1153 L-4738 1150 L-4720 1146 L-4698 1143 L-4682 1140 L-4642 1138 L-4604 1135 L-4585 1132 L-4565 1128 L-4545 1122 L-4527 1116 L-4508 1110 L-4488 1108 L-4468 1106 L-4404 1105 L-4382 1103 L-4354 1102 L-4330 1098 L-4304 1093 L-4288 1088 L-4271 1082 L-4235 1079 L-4217 1076 L-4197 1075 L-4177 1073 L-4154 1070 L-4139 1069 L-4120 1068 L-4101 1063 L-4079 1058 L-4062 1053 L-4042 1049 L-4023 1046 L-4002 1043 L-3985 1042 L-3966 1039 L-3919 1037 L-3903 1035 L-3885 1032 L-3869 1027 L-3848 1023 L-3830 1019 L-3810 1015 L-3791 1009 L-3753 1007 L-3734 1006 L-3691 1005 L-3676 1003 L-3657 999 L-3637 995 L-3598 992 L-3579 990 L-3559 987 L-3521 986 L-3502 983 L-3476 980 L-3426 979 L-3388 977 L-3373 976 L-3327 975 L-3288 972 L-3268 970 L-3249 967 L-3226 966 L-3211 963 L-3192 960 L-3150 959 L-3133 956 L-3095 952 L-3074 949 L-3057 945 L-3016 940 L-2991 937 L-2974 935 L-2940 932 L-2920 927 L-2901 922 L-2881 915 L-2840 907 L-2824 900 L-2747 896 L-2728 893 L-2688 892 L-2669 889 L-2651 886 L-2631 886 L-2612 884 L-2592 884 L-2497 886 L-2472 884 L-2445 883 L-2414 880 L-2398 877 L-2377 874 L-2340 872 L-2320 869 L-2297 866 L-2282 864 L-2263 863 L-2243 860 L-2221 857 L-2205 854 L-2185 852 L-2166 849 L-2145 846 L-2128 842 L-2109 839 L-2088 837 L-2062 834 L-2045 830 L-2027 826 L-1990 822 L-1973 816 L-1952 812 L-1934 807 L-1912 802 L-1876 799 L-1856 794 L-1833 790 L-1819 787 L-1799 784 L-1779 782 L-1741 779 L-1702 777 L-1683 776 L-1663 773 L-1619 772 L-1517 772 L-1501 770 L-1369 769 L-1354 767 L-1335 762 L-1315 757 L-1293 754 L-1256 750 L-1238 749 L-1217 747 L-1159 744 L-1134 741 L-1118 739 L-1100 734 L-1083 731 L-1063 730 L-1044 729 L-1005 726 L-983 724 L-948 723 L-928 721 L-906 720 L-851 720 L-831 719 L-774 717 L-735 716 L-668 714 L-640 711 L-617 709 L-591 706 L-558 703 L-541 701 L-521 699 L-503 703 L-483 706 L-464 710 L-442 714 L-425 713 L-329 711 L-271 710 L-231 709 L-206 704 L-174 701 L-136 699 L-97 694 L-77 691 L-39 689 L0 686 L38 683 L57 681 L96 679 L115 676 L134 674 L154 673 L173 671 L193 670 L211 667 L238 663 L288 659 L327 656 L357 653 L373 650 L386 649 L425 646 L444 643 L486 640 L502 637 L521 634 L561 630 L598 627 L638 624 L676 623 L722 620 L736 619 L812 617 L850 616 L871 616 L889 613 L908 611 L1005 609 L1044 606 L1102 603 L1121 600 L1140 597 L1166 597 L1188 596 L1255 594 L1272 594 L1287 593 L1300 591 L1336 590 L1393 588 L1417 586 L1450 583 L1470 580 L1509 576 L1529 571 L1547 567 L1569 564 L1586 561 L1604 560 L1626 557 L1651 554 L1702 553 L1723 550 L1779 548 L1799 546 L1895 544 L1914 541 L1953 540 L1972 538 L1991 534 L2030 533 L2050 531 L2068 530 L2117 528 L2169 528 L2195 527 L2211 524 L2228 523 L2243 520 L2282 517 L2302 516 L2322 513 L2379 510 L2399 507 L2421 503 L2437 500 L2457 496 L2476 493 L2533 488 L2554 484 L2580 480 L2615 474 L2631 470 L2651 467 L2669 464 L2689 463 L2708 460 L2730 457 L2746 456 L2766 454 L2786 453 L2808 450 L2823 447 L2842 444 L2863 441 L2882 440 L2920 438 L2940 434 L2959 430 L3024 424 L3046 420 L3074 417 L3113 413 L3145 408 L3159 404 L3193 401 L3231 398 L3250 397 L3273 394 L3288 393 L3307 390 L3327 385 L3366 384 L3386 381 L3425 380 L3483 377 L3508 375 L3543 373 L3559 370 L3580 367 L3598 364 L3637 361 L3658 360 L3675 357 L3695 354 L3714 350 L3737 347 L3752 343 L3771 340 L3848 338 L3868 335 L3888 333 L3907 330 L3926 327 L3951 324 L4026 321 L4052 318 L4068 314 L4085 313 L4101 310 L4121 307 L4139 304 L4179 302 L4201 301 L4217 300 L4235 297 L4255 295 L4277 292 L4294 291 L4390 288 L4411 285 L4437 284 L4470 281 L4488 278 L4508 275 L4526 272 L4546 271 L4565 270 L4587 268 L4603 265 L4623 262 L4642 260 L4665 257 L4681 254 L4700 252 L4740 250 L4758 247 L4797 244 L4854 242 L4880 240 L4903 237 L4930 234 L4954 231 L4980 228 L5013 227 L5029 225 L5049 225 L5068 225 L5088 225 L5107 225 L5145 222 L5164 220 L5184 215 L5206 212 L5242 210 L5261 208 L5282 205 L5300 202 L5319 201 L5340 198 L5365 195 L5380 192 L5399 190 L5416 185 L5436 182 L5455 178 L5474 174 L5493 171 L5551 167 L5571 165 L5593 162 L5687 159 L5725 158 L5745 168 L5764 178 L5783 194 L5880 210 L5908 214 L5940 218 L5958 217 L6057 215 L6074 212 L6092 211 L6112 208 L6133 205 L6151 201 L6170 197 L6190 192 L6209 188 L6247 185 L6268 184 L6325 182 L6344 187 L6364 208 L6383 230 L6402 250 L6422 265 L6442 265 L6500 265" />
</svg>
