<svg xmlns="http://www.w3.org/2000/svg" version="1.1" viewBox="0 0 6500 1000">
	<path fill="none" stroke="gold" stroke-width="125" stroke-linecap="round" stroke-linejoin="round" d="M0 1369  L-26286 1369 L-25874 1186 L-25649 1277 L-25592 1186 L-25554 1003 L-25370 820 L-24880 638 L-24586 546 L-24275 455 L-24040 272 L-23987 89 L-23928 -93 L-23774 -184 L-23734 -276 L-23601 -367 L-23309 -276 L-22768 -367 L-22158 -550 L-22110 -367 L-21470 -550 L-21437 -458 L-20911 -641 L-20778 -733 L-20388 -1098 L-20060 -1281 L-19943 -1464 L-19732 -1281 L-19015 -1372 L-18445 -1464 L-18338 -1555 L-18163 -1738 L-17942 -1921 L-17540 -2012 L-17514 -2195 L-16586 -2378 L-16499 -2561 L-16417 -2744 L-16347 -2926 L-16049 -3018 L-15897 -3109 L-14007 -2561 L-13906 -2835 L-13644 -3018 L-13350 -2835 L-13209 -3018 L-12960 -3109 L-12925 -3201 L-12766 -3383 L-12303 -3475 L-12050 -3658 L-11837 -3749 L-11586 -3840 L-11237 -4023 L-10310 -4206 L-10216 -4389 L-9805 -4480 L-8635 -4572 L-7446 -4755 L-7353 -4937 L-7326 -5120 L-7060 -5394 L-6761 -5577 L-6632 -5669 L-6595 -5851 L-5780 -5212 L-5396 -5303 L-4336 -5486 L-4274 -5577 L-4009 1826 L-3538 1734 L-3345 1552 L-3082 1460 L-2745 1369 L-2609 1460 L-2154 1186 L-1411 1095 L-1393 912 L-1228 820 L-1160 1003 L-644 912 L384 729 L580 546 L1069 638 L1431 546 L1840 729 L2225 820 L3929 729 L4027 638 L4098 729 L4160 638 L4344 546 L4681 455 L5321 272 L5398 455 L5459 363 L5646 272 L5726 180 L5903 89 L5922 180 L6152 89" />
</svg>
