<svg xmlns="http://www.w3.org/2000/svg" version="1.1" viewBox="0 0 6500 1000">
	<path fill="none" stroke="gold" stroke-width="125" stroke-linecap="round" stroke-linejoin="round" d="M0 1229  L-29072 1229 L-28660 1138 L-28435 1184 L-28378 1138 L-28340 1047 L-28156 956 L-27666 865 L-27372 819 L-27061 774 L-26827 682 L-26773 591 L-26714 500 L-26561 455 L-26520 409 L-26388 364 L-26095 409 L-25555 364 L-24944 272 L-24896 364 L-24256 272 L-24223 318 L-23697 227 L-23565 181 L-23175 0 L-22846 -91 L-22729 -182 L-22518 -91 L-21801 -137 L-21231 -182 L-21124 -228 L-20949 -319 L-20728 -410 L-20327 -456 L-20301 -547 L-19373 -638 L-19285 -729 L-19203 -820 L-19133 -911 L-18836 -957 L-18684 -1002 L-16794 -729 L-16693 -866 L-16431 -957 L-16137 -866 L-15995 -957 L-15747 -1002 L-15711 -1048 L-15553 -1139 L-15089 -1184 L-14836 -1276 L-14624 -1321 L-14373 -1367 L-14024 -1458 L-13096 -1549 L-13003 -1640 L-12592 -1686 L-11421 -1731 L-10232 -1822 L-10140 -1913 L-10112 -2005 L-9846 -2141 L-9547 -2232 L-9419 -2278 L-9381 -2369 L-8566 -2050 L-8182 -2096 L-7122 -2187 L-7061 -2232 L-6796 1457 L-6324 1411 L-6132 1320 L-5868 1275 L-5531 1229 L-5396 1275 L-4940 1138 L-4197 1092 L-4180 1001 L-4014 956 L-3946 1047 L-3430 1001 L-2401 910 L-2205 819 L-1717 865 L-1355 819 L-946 910 L-560 956 L1142 910 L1240 865 L1312 910 L1373 865 L1558 819 L1894 774 L2535 682 L2612 774 L2673 728 L2860 682 L2939 637 L3116 591 L3135 637 L3365 591 L3753 546 L4642 500 L4681 455 L4769 364 L4797 318 L5805 227 L5955 181 L5979 136 L6112 90 L6152 45" />
</svg>
