<svg xmlns="http://www.w3.org/2000/svg" version="1.1" viewBox="0 0 6500 1000">
	<path fill="none" stroke="gold" stroke-width="125" stroke-linecap="round" stroke-linejoin="round" d="M0 5778  L-768743 5778 L-768558 5776 L-768068 5771 L-767775 5769 L-767463 5764 L-767229 5762 L-767175 5757 L-767116 5752 L-766963 5750 L-766923 5745 L-766790 5743 L-766497 5741 L-765957 5741 L-765346 5738 L-765299 5738 L-764658 5736 L-764625 5736 L-764100 5736 L-763967 5734 L-763577 5729 L-763249 5724 L-763131 5720 L-762920 5715 L-762203 5715 L-761633 5713 L-761526 5713 L-761352 5710 L-761130 5706 L-760729 5703 L-760703 5699 L-759775 5694 L-759687 5689 L-759605 5685 L-759535 5680 L-759238 5678 L-759086 5673 L-757196 5675 L-757095 5675 L-756833 5675 L-756539 5678 L-756398 5673 L-756149 5673 L-756113 5671 L-755955 5668 L-755491 5664 L-755238 5661 L-755026 5657 L-754775 5654 L-754426 5652 L-753498 5647 L-753405 5643 L-752994 5640 L-751823 5636 L-750634 5633 L-750542 5629 L-750514 5624 L-750248 5619 L-749949 5615 L-749821 5610 L-749783 5606 L-748969 5606 L-748585 5608 L-747524 5610 L-747463 5610 L-747198 5657 L-746726 5701 L-746534 5745 L-746270 5790 L-745934 5787 L-745798 5785 L-745343 5783 L-744599 5780 L-744582 5778 L-744416 5773 L-744348 5773 L-743832 5771 L-742804 5771 L-742607 5769 L-742119 5766 L-741757 5764 L-741348 5764 L-740963 5766 L-739259 5766 L-739161 5766 L-739089 5766 L-739028 5766 L-738843 5764 L-738507 5764 L-737866 5762 L-737790 5759 L-737728 5759 L-737542 5757 L-737462 5757 L-737285 5755 L-737266 5752 L-737036 5752 L-736648 5750 L-735759 5750 L-735720 5748 L-735632 5745 L-735604 5741 L-734596 5738 L-734446 5734 L-734422 5731 L-734289 5729 L-734250 5727 L-732991 5724 L-732933 5724 L-732394 5722 L-732341 5722 L-732294 5722 L-731899 5720 L-731760 5717 L-731560 5715 L-731413 5715 L-731249 5715 L-730972 5717 L-730613 5717 L-730061 5715 L-729416 5713 L-729157 5708 L-729003 5706 L-728602 5703 L-728562 5701 L-728442 5699 L-728380 5701 L-728366 5701 L-728272 5701 L-727979 5699 L-727828 5689 L-727497 5685 L-727419 5680 L-727344 5678 L-727117 5671 L-727051 5666 L-726823 5661 L-726770 5657 L-726606 5654 L-725600 5652 L-725417 5650 L-724866 5647 L-724472 5643 L-724075 5640 L-723225 5636 L-723147 5633 L-722568 5631 L-722126 5631 L-721885 5629 L-721728 5629 L-721327 5624 L-721307 5624 L-720862 5622 L-720456 5619 L-720321 5615 L-720145 5610 L-720009 5606 L-719759 5601 L-718759 5599 L-718677 5596 L-718541 5594 L-718503 5592 L-717613 5589 L-717397 5587 L-716954 5585 L-716836 5582 L-716780 5580 L-716103 5580 L-716003 5578 L-715974 5578 L-714632 5575 L-714227 5573 L-714187 5571 L-713259 5568 L-713161 5566 L-713028 5564 L-712623 5561 L-712597 5559 L-712504 5557 L-712288 5554 L-711877 5550 L-710723 5545 L-710432 5540 L-710403 5536 L-709795 5533 L-709545 5529 L-709525 5526 L-708596 5524 L-708544 5519 L-708422 5517 L-708404 5512 L-708249 5510 L-708073 5505 L-707937 5503 L-707880 5501 L-707772 5498 L-707687 5496 L-707454 5494 L-707379 5491 L-707070 5489 L-706953 5487 L-706783 5484 L-706692 5482 L-706589 5482 L-706566 5480 L-706489 5480 L-706391 5475 L-706024 5473 L-705919 5470 L-705416 5468 L-704964 5466 L-704926 5463 L-704902 5461 L-704861 5459 L-704732 5456 L-704631 5454 L-704190 5452 L-703908 5449 L-703315 5447 L-703185 5445 L-702910 5440 L-702758 5438 L-702605 5435 L-702520 5431 L-702441 5428 L-702256 5426 L-702205 5426 L-702177 5424 L-702098 5421 L-702075 5419 L-701791 5414 L-701188 5410 L-700192 5407 L-699894 5405 L-699161 5403 L-698916 5400 L-698826 5398 L-698249 5396 L-697550 5393 L-696798 5391 L-696480 5389 L-696097 5384 L-696020 5382 L-695385 5380 L-695200 5377 L-695112 5377 L-694982 5377 L-694670 5375 L-694620 5373 L-694478 5370 L-694457 5368 L-693489 5366 L-692943 5363 L-692465 5363 L-692404 5363 L-692080 5363 L-692059 5361 L-691997 5361 L-691786 5359 L-691710 5356 L-691655 5354 L-691632 5352 L-691593 5349 L-691578 5347 L-690820 5345 L-690804 5342 L-690004 5340 L-689852 5338 L-688947 5335 L-688441 5333 L-688211 5328 L-688170 5328 L-688055 5326 L-687878 5324 L-687124 5326 L-686989 5324 L-686825 5321 L-686507 5319 L-686331 5314 L-685309 5310 L-685285 5305 L-685034 5303 L-684821 5298 L-684187 5296 L-683949 5291 L-683917 5286 L-683739 5282 L-683658 5277 L-683569 5275 L-683504 5270 L-683064 5265 L-683041 5263 L-682500 5261 L-682244 5258 L-681749 5256 L-680872 5254 L-680835 5251 L-680782 5249 L-680741 5247 L-680624 5244 L-680347 5242 L-680140 5237 L-679943 5233 L-679920 5228 L-679870 5223 L-679830 5221 L-679752 5219 L-679155 5214 L-679095 5212 L-678991 5209 L-678837 5207 L-678205 5205 L-677525 5202 L-677222 5198 L-676875 5195 L-676677 5193 L-676629 5188 L-676309 5186 L-675681 5184 L-675534 5181 L-675498 5179 L-675440 5177 L-675364 5172 L-675122 5172 L-675034 5170 L-674940 5168 L-674646 5165 L-674512 5163 L-674452 5161 L-674415 5156 L-674143 5156 L-673137 5154 L-672961 5151 L-672910 5151 L-672618 5149 L-672425 5144 L-672092 5142 L-671586 5140 L-671024 5135 L-671009 5130 L-670992 5128 L-670892 5123 L-670777 5119 L-670738 5114 L-670700 5112 L-670635 5112 L-670607 5109 L-670468 5112 L-670175 5112 L-670125 5112 L-670020 5112 L-669755 5109 L-669290 5107 L-669146 5107 L-669091 5102 L-669034 5100 L-668843 5098 L-668478 5095 L-668263 5095 L-668069 5095 L-668011 5095 L-667952 5091 L-667798 5088 L-667528 5086 L-667098 5098 L-667083 5098 L-667006 5095 L-666941 5093 L-666812 5077 L-666789 5074 L-666505 5072 L-666457 5070 L-666402 5067 L-665940 5065 L-665901 5065 L-665860 5063 L-665670 5060 L-665190 5058 L-664703 5056 L-664686 5053 L-664648 5051 L-664392 5049 L-664314 5044 L-664084 5042 L-664068 5037 L-663774 5032 L-663332 5030 L-662885 5028 L-662380 5025 L-662226 5023 L-661940 5021 L-661900 5016 L-661569 5014 L-661347 5011 L-660830 5007 L-660754 5004 L-660506 5000 L-660312 4995 L-660252 4993 L-659475 4990 L-659401 4990 L-659171 4988 L-659154 4988 L-659092 4986 L-658897 4983 L-658432 4983 L-658409 4981 L-658279 4981 L-656979 4981 L-656962 4981 L-656885 4979 L-656791 4979 L-656574 4979 L-656422 4976 L-656244 4979 L-656189 4981 L-655903 4983 L-655863 4983 L-655493 4983 L-655053 4983 L-654870 4983 L-654549 4981 L-654254 4981 L-653808 4976 L-653736 4974 L-653274 4969 L-652836 4967 L-652654 4965 L-651200 4960 L-651068 4958 L-650611 4953 L-650385 4951 L-649998 4946 L-649482 4942 L-648528 4937 L-647733 4932 L-647059 4930 L-646633 4925 L-646322 4923 L-646092 4916 L-645409 4909 L-645396 4902 L-645186 4893 L-645164 4890 L-644990 4886 L-644040 4883 L-643771 4879 L-642956 4876 L-642646 4872 L-642608 4869 L-642551 4865 L-641934 4862 L-641296 4858 L-639670 4855 L-638996 4853 L-638354 4853 L-638277 4853 L-638220 4853 L-638185 4853 L-638156 4851 L-638044 4846 L-638027 4844 L-638004 4841 L-637850 4839 L-637797 4834 L-637719 4832 L-637600 4830 L-637502 4827 L-637385 4825 L-637115 4820 L-636845 4818 L-636828 4813 L-636628 4811 L-636481 4806 L-636254 4804 L-636120 4802 L-635811 4799 L-635752 4797 L-635398 4792 L-635050 4790 L-634949 4788 L-634885 4783 L-634825 4781 L-634440 4776 L-634059 4774 L-633955 4771 L-633695 4769 L-633424 4764 L-633264 4762 L-633232 4760 L-633170 4757 L-633029 4755 L-632845 4753 L-632800 4750 L-632512 4750 L-632496 4748 L-632263 4748 L-632202 4746 L-632164 4746 L-631584 4743 L-631450 4741 L-631427 4732 L-631409 4716 L-631391 4697 L-631375 4678 L-631351 4660 L-631335 4646 L-631313 4629 L-631297 4613 L-631273 4604 L-631257 4594 L-631235 4587 L-631218 4583 L-631169 4576 L-631097 4569 L-631062 4557 L-631039 4548 L-631003 4538 L-630962 4529 L-630925 4524 L-630909 4515 L-630885 4508 L-630848 4504 L-630831 4497 L-630807 4492 L-630790 4487 L-630771 4483 L-630755 4478 L-630726 4471 L-630700 4464 L-630655 4462 L-630638 4457 L-630596 4455 L-630548 4450 L-630478 4445 L-630462 4441 L-630446 4436 L-630384 4434 L-630345 4431 L-630306 4429 L-630140 4427 L-630075 4424 L-630059 4422 L-630014 4417 L-629956 4415 L-629743 4413 L-629710 4410 L-629668 4408 L-629589 4406 L-629052 4403 L-628974 4401 L-628870 4396 L-628781 4394 L-628605 4392 L-628254 4389 L-628098 4387 L-627661 4385 L-627504 4382 L-627374 4380 L-626670 4375 L-626469 4373 L-625508 4368 L-625026 4366 L-624927 4366 L-624835 4364 L-624590 4361 L-624516 4359 L-624074 4354 L-623978 4352 L-623962 4350 L-623946 4347 L-623922 4345 L-623456 4343 L-623239 4340 L-623099 4338 L-622805 4336 L-622717 4333 L-622675 4331 L-622646 4329 L-622473 4326 L-622414 4324 L-622338 4322 L-622257 4319 L-622187 4319 L-621878 4317 L-621793 4315 L-621579 4312 L-621544 4310 L-620861 4308 L-620762 4305 L-620557 4303 L-620510 4301 L-620232 4298 L-620170 4296 L-620153 4291 L-620075 4289 L-619767 4285 L-619742 4282 L-619688 4278 L-619666 4275 L-619543 4273 L-619407 4268 L-619163 4266 L-619038 4266 L-618391 4264 L-618375 4264 L-618350 4264 L-618170 4259 L-618094 4257 L-618002 4254 L-617574 4252 L-617158 4250 L-616765 4245 L-616687 4243 L-616668 4240 L-616304 4238 L-616068 4236 L-615840 4233 L-615527 4231 L-615449 4229 L-615368 4224 L-615190 4219 L-615174 4217 L-614909 4212 L-614829 4210 L-614599 4208 L-614373 4205 L-614057 4205 L-613882 4203 L-613521 4203 L-613129 4201 L-613059 4196 L-612996 4194 L-612855 4189 L-612804 4187 L-612702 4182 L-612200 4180 L-612003 4177 L-611756 4175 L-611571 4173 L-611271 4170 L-611195 4168 L-611029 4163 L-610145 4161 L-610116 4156 L-609993 4152 L-609414 4149 L-609336 4147 L-608623 4147 L-608311 4147 L-608098 4147 L-608081 4147 L-607695 4147 L-607170 4142 L-606723 4140 L-606394 4138 L-606241 4135 L-605915 4135 L-605737 4133 L-605655 4133 L-605449 4128 L-605274 4126 L-604345 4124 L-603455 4121 L-603416 4119 L-603188 4119 L-602809 4117 L-602021 4114 L-601787 4112 L-601711 4110 L-601354 4107 L-600782 4103 L-600515 4100 L-600128 4098 L-600025 4098 L-599855 4098 L-599236 4098 L-599025 4098 L-598717 4098 L-598664 4096 L-598537 4093 L-598484 4091 L-598364 4089 L-598028 4084 L-597069 4082 L-596938 4077 L-596736 4075 L-596105 4072 L-595793 4070 L-595379 4068 L-595352 4066 L-595207 4063 L-594787 4061 L-593454 4061 L-593407 4059 L-593279 4054 L-593262 4052 L-592684 4047 L-592478 4045 L-592448 4042 L-592408 4040 L-592350 4038 L-592313 4035 L-592234 4033 L-592091 4031 L-591637 4028 L-591519 4026 L-591234 4024 L-590861 4021 L-590765 4019 L-590438 4017 L-590083 4014 L-589913 4012 L-589866 4010 L-589757 4007 L-589668 4005 L-589640 4003 L-589564 3998 L-589260 3996 L-589227 3991 L-589155 3989 L-588787 3986 L-588451 3984 L-588371 3984 L-588151 3982 L-587980 3979 L-587952 3977 L-587455 3975 L-586906 3970 L-586025 3968 L-585927 3963 L-585850 3961 L-585575 3958 L-585328 3954 L-585254 3951 L-585192 3947 L-585074 3944 L-585031 3942 L-584921 3940 L-584844 3935 L-584144 3933 L-583898 3930 L-583858 3928 L-583702 3926 L-583103 3926 L-582876 3926 L-582784 3926 L-582309 3926 L-581711 3921 L-581192 3919 L-581171 3916 L-581025 3914 L-580705 3914 L-580163 3914 L-579931 3914 L-579761 3914 L-579274 3912 L-579047 3909 L-578962 3907 L-578616 3905 L-578290 3905 L-577767 3902 L-577439 3900 L-576839 3898 L-576641 3893 L-576589 3891 L-576549 3888 L-576267 3886 L-575583 3881 L-575273 3879 L-575248 3874 L-575057 3872 L-574834 3870 L-574748 3867 L-574084 3863 L-574060 3860 L-573838 3856 L-573508 3853 L-573156 3849 L-572951 3847 L-572719 3842 L-572461 3840 L-572271 3835 L-572224 3833 L-571997 3830 L-571962 3828 L-571806 3826 L-571591 3823 L-571418 3821 L-571327 3819 L-571050 3816 L-570806 3814 L-570491 3812 L-570065 3812 L-570027 3812 L-569544 3812 L-569311 3812 L-569099 3809 L-568873 3807 L-568323 3807 L-568076 3805 L-567242 3805 L-567186 3802 L-567164 3800 L-567006 3798 L-566545 3795 L-566504 3793 L-566164 3788 L-566031 3786 L-565808 3784 L-565236 3781 L-564764 3779 L-564569 3777 L-564377 3774 L-564187 3772 L-564085 3770 L-563717 3767 L-563671 3765 L-563589 3763 L-562296 3760 L-562247 3758 L-561979 3758 L-561834 3758 L-561283 3758 L-561166 3756 L-561085 3753 L-560725 3751 L-560502 3749 L-560220 3746 L-559891 3742 L-559383 3739 L-559271 3737 L-559192 3735 L-559028 3732 L-558733 3732 L-558264 3732 L-558068 3735 L-558017 3735 L-557368 3732 L-557246 3730 L-556792 3730 L-556756 3728 L-556288 3725 L-556177 3723 L-556161 3721 L-555944 3721 L-555764 3718 L-555232 3718 L-554202 3718 L-554003 3716 L-553545 3714 L-552596 3709 L-552498 3707 L-552144 3702 L-552083 3700 L-552069 3697 L-552033 3695 L-551664 3693 L-551544 3690 L-551302 3688 L-551138 3686 L-550951 3683 L-550830 3681 L-549759 3676 L-548901 3674 L-548689 3669 L-548592 3667 L-548417 3662 L-548084 3660 L-548012 3658 L-547955 3655 L-547779 3655 L-547391 3653 L-547155 3651 L-547044 3648 L-546927 3646 L-545946 3644 L-545921 3641 L-545326 3637 L-545294 3637 L-545145 3634 L-544861 3632 L-543949 3632 L-543003 3632 L-542850 3630 L-542747 3630 L-542616 3627 L-542473 3625 L-542446 3623 L-542332 3621 L-542114 3618 L-541432 3616 L-541303 3614 L-541000 3611 L-540760 3607 L-540427 3604 L-539788 3602 L-539446 3597 L-539384 3595 L-539228 3595 L-538307 3595 L-537836 3595 L-537793 3595 L-537780 3593 L-537739 3590 L-537717 3588 L-537690 3586 L-537546 3583 L-537123 3581 L-536788 3581 L-536597 3579 L-536168 3579 L-535981 3576 L-535592 3572 L-535057 3569 L-534685 3567 L-534663 3567 L-534413 3565 L-534295 3562 L-534219 3560 L-534083 3558 L-534044 3555 L-533964 3553 L-533570 3551 L-533074 3548 L-532962 3544 L-532789 3541 L-532481 3539 L-532033 3537 L-531710 3534 L-531568 3530 L-531141 3525 L-530987 3520 L-530932 3516 L-530118 3513 L-530099 3511 L-529727 3509 L-529670 3509 L-528541 3506 L-528473 3506 L-527915 3504 L-527720 3502 L-527584 3499 L-527350 3497 L-527003 3495 L-526969 3490 L-526933 3488 L-526865 3483 L-526516 3481 L-526344 3478 L-525859 3476 L-525843 3474 L-525518 3471 L-525360 3469 L-524219 3464 L-524195 3462 L-524003 3457 L-523809 3455 L-523559 3453 L-523542 3450 L-522522 3448 L-522224 3446 L-522149 3443 L-522012 3439 L-521837 3436 L-521260 3432 L-521044 3429 L-520981 3427 L-520850 3425 L-520813 3420 L-520290 3418 L-520152 4336 L-520138 4336 L-520115 4336 L-520094 4336 L-519867 3415 L-519091 3415 L-519050 3415 L-518682 3415 L-518604 3413 L-518552 3411 L-517879 3408 L-517136 3406 L-516711 3406 L-516264 3404 L-515202 3402 L-514890 3397 L-514480 3397 L-514408 3395 L-513884 3395 L-513789 3395 L-513771 3395 L-513327 3392 L-513141 3388 L-512361 3383 L-511689 3381 L-511276 3374 L-511045 3369 L-510904 3367 L-510822 3362 L-510802 3360 L-510726 3360 L-510598 3357 L-510281 3360 L-510057 3360 L-509732 3357 L-509670 3357 L-509300 3357 L-509267 3357 L-509058 3357 L-508390 3357 L-508313 3357 L-508155 3353 L-508044 3353 L-507718 3350 L-507563 3348 L-507222 3348 L-507165 3343 L-506827 3339 L-506623 3336 L-506570 3332 L-505194 3329 L-505064 3327 L-504631 3325 L-504310 3322 L-503483 3318 L-503359 3315 L-502628 3311 L-502473 3306 L-502432 3304 L-502378 3301 L-502355 3299 L-502241 3297 L-501944 3294 L-501655 3292 L-501600 3290 L-501480 3287 L-501449 3285 L-501350 3283 L-500906 3283 L-500754 3280 L-499919 3280 L-499377 3278 L-499042 3278 L-499027 3276 L-498951 3273 L-498835 3271 L-498640 3269 L-498376 3266 L-497541 3264 L-497445 3262 L-496923 3259 L-496882 3257 L-496782 3255 L-495954 3255 L-495819 3252 L-495480 3252 L-494926 3250 L-494547 3248 L-494384 3245 L-494074 3243 L-493261 3241 L-492955 3238 L-492687 3238 L-492365 3238 L-492044 3241 L-491769 3241 L-490940 3236 L-490845 3234 L-490752 3227 L-490648 3220 L-490261 3213 L-489781 3208 L-489765 3206 L-489646 3203 L-489278 3199 L-489183 3196 L-488349 3192 L-488272 3189 L-487973 3187 L-487882 3185 L-487475 3180 L-487365 3176 L-486665 3173 L-486192 3171 L-486132 3169 L-485913 3164 L-485639 3162 L-485527 3159 L-484499 3157 L-484113 3155 L-484093 3152 L-483760 3150 L-483515 3148 L-483082 3145 L-482972 3143 L-482854 3141 L-482402 3136 L-481812 3134 L-481475 3131 L-479583 3129 L-479469 3124 L-479257 3122 L-477939 3120 L-477832 2595 L-477766 2078 L-477730 1601 L-477668 1601 L-477169 2120 L-476494 2633 L-476472 3106 L-476201 3101 L-475233 3101 L-474544 3099 L-474382 3096 L-473841 3094 L-473752 3092 L-472732 3089 L-471785 3085 L-471419 3087 L-471316 3089 L-470728 3089 L-470668 3089 L-470568 3087 L-470128 3082 L-470020 3080 L-469579 3078 L-468579 3071 L-468322 3064 L-468219 3057 L-468089 3052 L-467723 3047 L-467142 3043 L-467111 3040 L-466795 3038 L-464812 3036 L-464697 3033 L-464629 3033 L-464270 3031 L-462652 3029 L-462474 3029 L-462330 3029 L-461507 3031 L-461455 3033 L-461400 3033 L-460966 3033 L-459985 3036 L-459912 3036 L-458827 3033 L-458614 3033 L-457898 3029 L-457509 3026 L-457291 3022 L-456971 3017 L-456477 3012 L-456350 3010 L-456121 3005 L-455888 3001 L-455829 2998 L-455540 2996 L-455268 2991 L-454238 2989 L-452573 2987 L-452153 2984 L-452016 2982 L-451860 2982 L-451555 2980 L-451327 2975 L-451168 2973 L-451009 2968 L-450840 2964 L-450792 2961 L-450739 2959 L-450717 2959 L-450331 2957 L-450081 2957 L-449811 2957 L-449650 2957 L-449561 2957 L-447902 2957 L-447737 2959 L-447357 2957 L-446897 2957 L-446287 2952 L-445194 2950 L-444763 2947 L-444731 2945 L-444669 2943 L-444652 2940 L-442948 2938 L-442906 2936 L-442440 2933 L-442253 2931 L-442221 2926 L-441625 2924 L-441576 2922 L-441253 2919 L-441202 2917 L-440992 2915 L-440974 2912 L-440707 2908 L-440655 2905 L-440186 2903 L-439675 2898 L-439597 2898 L-439302 2896 L-439286 2894 L-439247 2891 L-439176 2889 L-439019 2887 L-438073 2887 L-438017 2887 L-437496 2887 L-437303 2884 L-437202 2884 L-436976 2882 L-436467 2882 L-436079 2945 L-436009 2945 L-435661 2943 L-435304 2940 L-434175 2873 L-434123 2868 L-433897 2866 L-433863 2863 L-433738 2859 L-433640 2859 L-433375 2859 L-432635 2861 L-432056 2861 L-431763 2861 L-431057 2861 L-430878 2859 L-430855 2859 L-430219 2856 L-429908 2854 L-429511 2854 L-429482 2852 L-429461 2849 L-429307 2847 L-428622 2847 L-428605 2847 L-428265 2847 L-427993 2845 L-427955 2842 L-427899 2838 L-427877 2835 L-427806 2833 L-427474 2831 L-427367 2828 L-427339 2824 L-427141 2821 L-426988 2819 L-426120 2817 L-425557 2812 L-425541 2812 L-425440 2810 L-425338 2812 L-425191 2812 L-425113 2812 L-425075 2810 L-425020 2807 L-424946 2805 L-424801 2803 L-424320 2803 L-423915 2800 L-423049 2803 L-423029 2803 L-422771 2803 L-422695 2803 L-422666 2800 L-422655 2796 L-422638 2793 L-422345 2791 L-422305 2789 L-422234 2786 L-422160 2784 L-421955 2782 L-421795 2775 L-421494 2768 L-421416 2758 L-421399 2751 L-421183 2747 L-420952 2747 L-420842 2749 L-420472 2751 L-420314 2751 L-420082 2751 L-419914 2751 L-419769 2749 L-419637 2747 L-418361 2742 L-417957 2738 L-417897 2735 L-417780 2731 L-417355 2728 L-417339 2724 L-417277 2721 L-417004 2717 L-416892 2714 L-416609 2710 L-416332 2707 L-415907 2703 L-415884 2700 L-415806 2698 L-415681 2696 L-415094 2693 L-414703 2691 L-414367 2689 L-413778 2686 L-413676 2686 L-413506 2684 L-413369 2684 L-412542 2682 L-411356 2679 L-411320 2677 L-411265 2677 L-411044 2675 L-410839 2675 L-410685 2675 L-410428 2672 L-410351 2670 L-409809 2668 L-409772 2665 L-409523 2663 L-409136 2661 L-408310 2658 L-407952 2656 L-407642 2656 L-407384 2654 L-407160 2651 L-406754 2649 L-406637 2647 L-406454 2644 L-406401 2644 L-406212 2642 L-406042 2640 L-406013 2637 L-405732 2635 L-405422 2633 L-405284 2630 L-404974 2628 L-404780 2628 L-404765 2626 L-404045 2626 L-403912 2621 L-403614 2619 L-403524 2616 L-402923 2616 L-402885 2614 L-402806 2612 L-402186 2609 L-402035 2605 L-401994 2602 L-401683 2600 L-401491 2598 L-401299 2593 L-401243 2588 L-400934 2586 L-400882 2584 L-400827 2586 L-400802 2586 L-400677 2586 L-399866 2584 L-399790 2581 L-399249 2579 L-398980 2577 L-398321 2574 L-397413 2572 L-397172 2570 L-396640 2567 L-396423 2565 L-395315 2567 L-395265 2567 L-394489 2567 L-393941 2565 L-393830 2563 L-393677 2558 L-393622 2556 L-393457 2553 L-393080 2551 L-392632 2549 L-392577 2546 L-392423 2544 L-391743 2542 L-391523 2539 L-391005 2537 L-390156 2532 L-390140 2530 L-388349 2528 L-387795 2526 L-387677 2523 L-386672 2521 L-386635 2519 L-386402 2519 L-386310 2519 L-386270 2519 L-385938 2516 L-385586 2514 L-385321 2509 L-385034 2507 L-384723 2502 L-384469 2498 L-384375 2495 L-383885 2493 L-383678 2491 L-383112 2488 L-382998 2491 L-382647 2488 L-382595 2488 L-382555 2488 L-381952 2484 L-381218 2479 L-380637 2474 L-380401 2470 L-379861 2463 L-379708 2458 L-379207 2456 L-378997 2451 L-378974 2451 L-378915 2449 L-377953 2449 L-377775 2446 L-377333 2444 L-377309 2439 L-377154 2437 L-377072 2437 L-376922 2439 L-376275 2439 L-376225 2437 L-375105 2435 L-374121 2432 L-374060 2430 L-373339 2428 L-372474 2425 L-372095 2423 L-371877 2423 L-371117 2421 L-371065 2418 L-370756 2414 L-369904 2414 L-369711 2411 L-369535 2409 L-369310 2409 L-369184 2407 L-368991 2407 L-368759 2404 L-368589 2407 L-368303 2404 L-368024 2404 L-367941 2402 L-367770 2400 L-367753 2395 L-367599 2393 L-367560 2390 L-366785 2388 L-366708 2388 L-366476 2383 L-366049 2381 L-365704 2379 L-365120 2376 L-364852 2376 L-364593 2376 L-364463 2372 L-364447 2369 L-364333 2367 L-364309 2365 L-364075 2362 L-364039 2360 L-362723 2360 L-362668 2358 L-361989 2353 L-361416 2353 L-361291 2353 L-361138 2353 L-361061 2353 L-360749 2348 L-360476 2346 L-360387 2341 L-360285 2341 L-359357 2339 L-359281 2339 L-358917 2339 L-358892 2337 L-358856 2334 L-358080 2330 L-357988 2327 L-357848 2325 L-357447 2323 L-357185 2323 L-356941 2325 L-356727 2323 L-356647 2323 L-356571 2323 L-356494 2323 L-356307 2325 L-356241 2325 L-355991 2325 L-355936 2323 L-355799 2320 L-355719 2316 L-355606 2313 L-355382 2311 L-355218 2309 L-355177 2306 L-355008 2304 L-354637 2302 L-354622 2300 L-354506 2297 L-353785 2295 L-353749 2293 L-353616 2293 L-353268 2290 L-352857 2290 L-352821 2290 L-352743 2288 L-352704 2286 L-352340 2283 L-352135 2281 L-352120 2279 L-351775 2276 L-351426 2276 L-351101 2276 L-350999 2274 L-350846 2274 L-350652 2272 L-350420 2272 L-350328 2272 L-350172 2272 L-350095 2272 L-350054 2269 L-349941 2267 L-349917 2265 L-349667 2265 L-349528 2260 L-348950 2253 L-348122 2248 L-347634 2244 L-347512 2241 L-347474 2239 L-347461 2237 L-347309 2232 L-347208 2227 L-346975 2225 L-346585 2220 L-346280 2218 L-346265 2216 L-346094 2213 L-345856 2209 L-345259 2209 L-344655 2206 L-344616 2206 L-344575 2206 L-344422 2204 L-344369 2202 L-344306 2199 L-344238 2197 L-344184 2192 L-344159 2190 L-344112 2188 L-344017 2183 L-343880 2181 L-343727 2178 L-343595 2176 L-343554 2176 L-343518 2174 L-343456 2171 L-343183 2167 L-342869 2164 L-342828 2160 L-342743 2157 L-342565 2155 L-342328 2153 L-341970 2150 L-341940 2148 L-341371 2146 L-341248 2143 L-341012 2141 L-340989 2141 L-340708 2139 L-340423 2139 L-340167 2139 L-339595 2136 L-339299 2134 L-339223 2132 L-338524 2129 L-338446 2127 L-338411 2125 L-338385 2122 L-338333 2118 L-338139 2115 L-337999 2111 L-337963 2108 L-337923 2106 L-337327 2104 L-337095 2101 L-336812 2118 L-336757 2132 L-336683 2148 L-336605 2162 L-336369 2157 L-336125 2155 L-335989 2153 L-335883 2150 L-335803 2148 L-335416 2143 L-335289 2141 L-335137 2139 L-335099 2136 L-334953 2134 L-334731 2132 L-334558 2129 L-334489 2127 L-333667 2122 L-333651 2122 L-333356 2120 L-332569 2118 L-332259 2118 L-332112 2115 L-331884 2113 L-331684 2108 L-330747 2106 L-330710 2104 L-330687 2101 L-330646 2097 L-330378 2094 L-329781 2092 L-329718 2090 L-329682 2087 L-329665 2085 L-328970 2085 L-328769 2085 L-328737 2085 L-328403 2085 L-328296 2083 L-327671 2078 L-327167 2076 L-327130 2071 L-326688 2071 L-326591 2069 L-326433 2069 L-326119 2069 L-326107 2069 L-325667 2071 L-325185 2074 L-325056 2074 L-324736 2074 L-324667 2071 L-324363 2071 L-324187 2069 L-323994 2067 L-323751 2062 L-323553 2057 L-323528 2053 L-322950 2050 L-322880 2048 L-322470 2046 L-322416 2043 L-322369 2041 L-322005 2039 L-321859 2036 L-321654 2034 L-321558 2034 L-321402 2032 L-321341 2029 L-321193 2025 L-321093 2022 L-320536 2022 L-320514 2027 L-320342 2029 L-319800 2032 L-319739 2032 L-319685 2027 L-319656 2022 L-319585 2020 L-319569 2015 L-319505 2013 L-319469 2008 L-319314 2006 L-318988 2004 L-318422 2001 L-318408 1999 L-318346 1994 L-318244 1990 L-318198 1990 L-317955 1987 L-317533 1987 L-317378 1987 L-315637 1983 L-315095 1980 L-314152 1978 L-313743 1976 L-313201 1971 L-313005 1969 L-312836 1966 L-312541 1964 L-312426 1962 L-312411 1962 L-312256 1959 L-312116 1957 L-312039 1952 L-311908 1952 L-311560 1952 L-311189 1955 L-310591 1955 L-310415 1955 L-310259 1952 L-309990 1950 L-309839 1950 L-309548 1957 L-309524 1962 L-309441 1966 L-309213 1971 L-308514 1969 L-308387 1966 L-307956 1964 L-307862 1962 L-306657 1962 L-306608 1959 L-306314 1959 L-305911 1957 L-305635 1952 L-305616 1950 L-305498 1948 L-305422 1945 L-305240 1943 L-304760 1941 L-304309 1936 L-303899 1934 L-303868 1931 L-303450 1929 L-303336 1929 L-303218 1929 L-303203 1929 L-303008 1927 L-302987 1922 L-302754 1920 L-302311 1917 L-301992 1913 L-301527 1913 L-301362 1910 L-301207 1908 L-301051 1908 L-300598 1908 L-300278 1908 L-300224 1910 L-299852 1910 L-299815 1913 L-299488 1913 L-299372 1910 L-299273 1908 L-298947 1903 L-298560 1901 L-298299 1899 L-297941 1894 L-297684 1892 L-295514 1889 L-295465 1887 L-295442 1885 L-295031 1885 L-294969 1885 L-294899 1887 L-294668 1887 L-294357 1885 L-294054 1880 L-294010 1878 L-293702 1875 L-293569 1873 L-293352 1871 L-292640 1868 L-292485 1868 L-292347 1866 L-292198 1866 L-292177 1866 L-291982 1864 L-291957 1862 L-291866 1859 L-291844 1857 L-291828 1855 L-291728 1852 L-290799 1850 L-290341 1850 L-289249 1845 L-288826 1845 L-288423 1843 L-288384 1841 L-288130 1838 L-287356 1834 L-287340 1831 L-287315 1829 L-287122 1827 L-286386 1824 L-286117 1822 L-286076 1820 L-285677 1815 L-285652 1813 L-284863 1810 L-284183 1808 L-282812 1806 L-282542 1803 L-282493 1801 L-281956 1796 L-281923 1794 L-281821 1789 L-281497 1787 L-281418 1785 L-281149 1785 L-280236 1782 L-280098 1782 L-279849 1778 L-279303 1778 L-278881 1775 L-278688 1773 L-278673 1773 L-278535 1768 L-278441 1766 L-278314 1764 L-278054 1761 L-278029 1757 L-277938 1754 L-277628 1752 L-277567 1750 L-277450 1750 L-277101 1750 L-276290 1750 L-276059 1745 L-275230 1745 L-274997 1740 L-274781 1738 L-274262 1738 L-273624 1736 L-273208 1733 L-272886 1731 L-272405 1729 L-271979 1729 L-271918 1726 L-271570 1726 L-271529 1724 L-271515 1722 L-271416 1717 L-271370 1717 L-270885 1715 L-270084 1715 L-269749 1715 L-268668 1712 L-268188 1710 L-268165 1708 L-268025 1705 L-267469 1703 L-266772 1701 L-266463 1698 L-266242 1696 L-266137 1694 L-266034 1689 L-265363 1687 L-265269 1684 L-265247 1684 L-265170 1682 L-264992 1682 L-264820 1682 L-264639 1680 L-264626 1677 L-264550 1675 L-264385 1673 L-263870 1670 L-263854 1668 L-263714 1668 L-263351 1666 L-263327 1666 L-263197 1663 L-263172 1661 L-262810 1659 L-262284 1654 L-262191 1652 L-261975 1647 L-261881 1645 L-261857 1643 L-261393 1640 L-261316 1640 L-260914 1638 L-260463 1638 L-259211 1636 L-259173 1633 L-258741 1631 L-258708 1629 L-257989 1626 L-257813 1624 L-257677 1622 L-257371 1619 L-257316 1617 L-257291 1612 L-257275 1608 L-257100 1605 L-256910 1603 L-256403 1603 L-256029 1584 L-255691 1563 L-255652 1545 L-254933 1528 L-254840 1526 L-254801 1524 L-254259 1524 L-254236 1521 L-253834 1519 L-253408 1517 L-253137 1517 L-252957 1514 L-252712 1510 L-252688 1507 L-252632 1503 L-252015 1500 L-251512 1498 L-251125 1498 L-250506 1500 L-250290 1500 L-250135 1503 L-248843 1498 L-248743 1496 L-248301 1491 L-247970 1489 L-247669 1484 L-247427 1482 L-246692 1477 L-246113 1475 L-245283 1472 L-245183 1470 L-244625 1468 L-244487 1465 L-242845 1463 L-242785 1463 L-242691 1463 L-241724 1463 L-241546 1461 L-241259 1461 L-241041 1461 L-240963 1458 L-240692 1458 L-240577 1456 L-240423 1454 L-240113 1451 L-240035 1449 L-239944 1449 L-239867 1447 L-239750 1447 L-239571 1444 L-239479 1442 L-239441 1440 L-238938 1440 L-238719 1437 L-238590 1437 L-238435 1435 L-238380 1433 L-238256 1433 L-237871 1430 L-237362 1428 L-237290 1426 L-236810 1424 L-236733 1421 L-236632 1421 L-236399 1419 L-235934 1419 L-235704 1419 L-235688 1419 L-235456 1419 L-235301 1419 L-235239 1419 L-235046 1417 L-234775 1412 L-234024 1410 L-233071 1410 L-233035 1407 L-232810 1407 L-232370 1407 L-232089 1403 L-231741 1400 L-230672 1398 L-229744 1398 L-229613 1398 L-229567 1398 L-229497 1396 L-229343 1396 L-229265 1391 L-229092 1386 L-228657 1382 L-228453 1379 L-228392 1375 L-227810 1372 L-227656 1368 L-227540 1365 L-227500 1363 L-227330 1361 L-227193 1358 L-226982 1354 L-226905 1351 L-226882 1349 L-226673 1344 L-226263 1342 L-226238 1340 L-226015 1337 L-225870 1335 L-225835 1333 L-225822 1330 L-225799 1328 L-225566 1326 L-225381 1323 L-225163 1321 L-225138 1319 L-224449 1316 L-224345 1314 L-224310 1312 L-224289 1309 L-224095 1307 L-224042 1305 L-223925 1300 L-223843 1300 L-223732 1298 L-223418 1295 L-222958 1293 L-222703 1291 L-222469 1286 L-222339 1284 L-221987 1281 L-221928 1279 L-221775 1277 L-221203 1272 L-221116 1270 L-220963 1265 L-220667 1260 L-220297 1256 L-219994 1251 L-219917 1249 L-219512 1246 L-219344 1246 L-219200 1246 L-218660 1246 L-218599 1246 L-218584 1242 L-218418 1239 L-218212 1237 L-218137 1237 L-218044 1235 L-217634 1232 L-217619 1230 L-217595 1230 L-217402 1228 L-217326 1249 L-217155 1270 L-217093 1288 L-217077 1309 L-216563 1307 L-216341 1305 L-215722 1300 L-215469 1298 L-215275 1295 L-215236 1293 L-215162 1293 L-215097 1293 L-214446 1293 L-214408 1295 L-214234 1295 L-214168 1295 L-213494 1295 L-213105 1291 L-212843 1288 L-212605 1286 L-212527 1281 L-212512 1277 L-212310 1274 L-211939 1270 L-211713 1267 L-211078 1265 L-211058 1265 L-210671 1263 L-210577 1263 L-210519 1260 L-210243 1258 L-209934 1258 L-209856 1256 L-209005 1258 L-208662 1270 L-208225 1284 L-207792 1295 L-207297 1307 L-207147 1305 L-206879 1307 L-205641 1309 L-205584 1314 L-203820 1316 L-203630 1314 L-202620 1312 L-202469 1309 L-202093 1314 L-201772 1319 L-201167 1323 L-201097 1328 L-200920 1326 L-200092 1323 L-199953 1321 L-199566 1319 L-199382 1316 L-199338 1314 L-199218 1312 L-199008 1309 L-198561 1305 L-198213 1302 L-198080 1300 L-197671 1298 L-197321 1298 L-197036 1295 L-196842 1293 L-196688 1293 L-196524 1291 L-196456 1288 L-196356 1288 L-196122 1286 L-196006 1286 L-195953 1284 L-195411 1284 L-194947 1281 L-193765 1281 L-193631 1281 L-193607 1281 L-193554 1281 L-192886 1281 L-191851 1277 L-191658 1274 L-191478 1272 L-191326 1272 L-191286 1270 L-191271 1270 L-191209 1267 L-190884 1265 L-189724 1263 L-189530 1260 L-189353 1258 L-188239 1256 L-187379 1253 L-187273 1253 L-186799 1251 L-186607 1251 L-184285 1249 L-184207 1246 L-184086 1242 L-184052 1239 L-184014 1235 L-183920 1228 L-183704 1223 L-183123 1218 L-182737 1216 L-181964 1214 L-181886 1211 L-181189 1211 L-180647 1211 L-180606 1209 L-180476 1209 L-180012 1207 L-179973 1204 L-179839 1202 L-179471 1200 L-179441 1198 L-179291 1198 L-178890 1195 L-177066 1198 L-176259 1195 L-175541 1195 L-175524 1195 L-175210 1191 L-174649 1188 L-174147 1186 L-173628 1184 L-173607 1181 L-171863 1179 L-171694 1177 L-171498 1174 L-170604 1172 L-170086 1167 L-169875 1165 L-169617 1163 L-168908 1160 L-167958 1158 L-167299 1156 L-167260 1151 L-166974 1149 L-166891 1146 L-166796 1146 L-166664 1144 L-166587 1144 L-165851 1144 L-165514 1142 L-165465 1144 L-165209 1144 L-164923 1142 L-164497 1142 L-163917 1139 L-163658 1139 L-163507 1137 L-163259 1137 L-163221 1137 L-162424 1135 L-162386 1132 L-162209 1132 L-161800 1128 L-161571 1128 L-161495 1128 L-161363 1128 L-161247 1125 L-160899 1123 L-160836 1121 L-160683 1118 L-159943 1116 L-159831 1114 L-159661 1111 L-159622 1109 L-159327 1109 L-158926 1109 L-158750 1109 L-158655 1109 L-158346 1107 L-157544 1104 L-157086 1100 L-156566 1097 L-156077 1095 L-155382 1093 L-154335 1090 L-154066 1090 L-154012 1088 L-153852 1088 L-153600 1088 L-153354 1086 L-153275 1083 L-153061 1079 L-152749 1076 L-152285 1072 L-152271 1069 L-151975 1069 L-151961 1067 L-150970 1065 L-150298 1062 L-149963 1058 L-149347 1058 L-149210 1055 L-148571 1053 L-148441 1051 L-147490 1046 L-147391 1041 L-146831 1039 L-146422 1039 L-145994 1039 L-145903 1037 L-145068 1037 L-144705 1037 L-144665 1039 L-144533 1041 L-144356 1041 L-144139 1041 L-144086 1039 L-143929 1034 L-143676 1032 L-142576 1030 L-142498 1027 L-142279 1025 L-142148 1020 L-142112 1018 L-141918 1016 L-141819 1013 L-141335 1011 L-141051 1009 L-140891 1006 L-140796 1002 L-140524 999 L-140254 997 L-140238 988 L-140100 981 L-139962 974 L-139635 965 L-139326 960 L-139285 958 L-139209 953 L-139094 951 L-138243 946 L-137917 944 L-137586 941 L-137453 941 L-137237 941 L-137221 941 L-136540 941 L-136447 937 L-136423 934 L-136408 930 L-136369 927 L-135957 923 L-135688 920 L-135648 918 L-135280 918 L-135070 916 L-133987 916 L-133971 913 L-133942 911 L-133922 911 L-133545 906 L-133290 904 L-133042 899 L-132903 895 L-132770 892 L-132439 890 L-132346 888 L-132285 885 L-131727 883 L-131665 881 L-131510 878 L-131315 876 L-131123 874 L-131107 871 L-131069 869 L-131030 867 L-130759 864 L-130636 862 L-130604 860 L-130504 860 L-130349 860 L-130207 860 L-129923 857 L-129598 857 L-128902 855 L-128879 855 L-128370 855 L-127524 855 L-127161 853 L-127006 850 L-126402 850 L-126232 850 L-126172 850 L-126116 848 L-125061 846 L-125042 846 L-124137 846 L-124115 846 L-123948 843 L-123706 843 L-123656 841 L-123601 836 L-123464 834 L-123424 832 L-122496 829 L-122441 829 L-122319 829 L-122247 829 L-122131 829 L-121953 832 L-120970 829 L-120831 829 L-120713 825 L-120419 820 L-120171 818 L-120135 815 L-120080 818 L-120059 818 L-119926 818 L-119846 818 L-119709 815 L-119086 815 L-118920 813 L-118455 813 L-118279 808 L-118262 806 L-118202 804 L-118085 801 L-117603 799 L-116907 797 L-116534 794 L-116365 792 L-115399 790 L-115244 787 L-115066 787 L-114974 785 L-114718 785 L-114548 785 L-113901 783 L-113890 783 L-113310 780 L-113172 780 L-113116 776 L-112381 773 L-112342 771 L-112265 771 L-111623 769 L-110849 769 L-110756 766 L-110707 766 L-110692 764 L-110656 764 L-110640 760 L-110577 757 L-110561 755 L-110541 755 L-110386 753 L-110347 750 L-110331 748 L-110292 746 L-110152 743 L-110076 741 L-109711 739 L-109363 736 L-108590 734 L-107987 732 L-107791 729 L-107561 729 L-107423 727 L-106785 727 L-106496 725 L-106474 725 L-106014 722 L-105781 722 L-105726 720 L-105688 718 L-105185 715 L-104635 713 L-103847 711 L-102724 711 L-101829 708 L-101741 708 L-101442 706 L-101370 704 L-101254 701 L-100078 699 L-99730 697 L-99707 694 L-99188 692 L-99041 690 L-98933 687 L-98724 685 L-98569 683 L-98546 680 L-98352 678 L-98276 676 L-98132 673 L-97331 671 L-97185 669 L-96905 666 L-96728 664 L-96418 662 L-95606 659 L-94678 659 L-93086 657 L-92843 655 L-92202 652 L-92006 650 L-91928 648 L-91411 645 L-91179 645 L-91156 643 L-91024 643 L-90685 641 L-90674 638 L-90458 636 L-90420 634 L-89879 631 L-89350 627 L-89282 624 L-88989 622 L-88442 617 L-88406 615 L-88354 613 L-88254 608 L-88022 608 L-87442 608 L-87344 610 L-87270 610 L-86938 608 L-86188 606 L-86149 603 L-85469 603 L-85314 603 L-84988 601 L-84772 599 L-84541 599 L-84244 596 L-83998 594 L-83647 592 L-83594 589 L-82834 587 L-82141 582 L-81791 578 L-81327 575 L-80694 573 L-80285 571 L-80207 573 L-79781 573 L-79138 571 L-78969 571 L-78227 568 L-78040 566 L-77745 564 L-77173 561 L-77147 559 L-76128 559 L-75641 557 L-75548 557 L-75487 554 L-75199 552 L-74913 550 L-74851 547 L-74671 547 L-73960 545 L-73784 543 L-73586 541 L-73434 538 L-73343 536 L-73281 534 L-72739 534 L-72428 531 L-72337 527 L-72259 522 L-71692 520 L-71601 520 L-71346 515 L-71020 510 L-70982 503 L-70828 496 L-70596 494 L-70273 492 L-69141 489 L-68942 487 L-68416 485 L-68171 485 L-67926 482 L-67846 480 L-67826 475 L-67749 473 L-67693 468 L-67616 466 L-67577 464 L-67398 459 L-67361 457 L-67130 454 L-65892 452 L-65565 450 L-65526 445 L-64744 443 L-64597 440 L-63606 438 L-63399 438 L-62973 438 L-62846 438 L-62442 440 L-62354 438 L-61697 436 L-60990 433 L-60381 431 L-60188 429 L-59955 424 L-59336 422 L-59041 417 L-58601 415 L-58447 412 L-58292 410 L-57536 405 L-57185 403 L-56783 403 L-56744 401 L-55738 401 L-55419 401 L-55172 398 L-54472 394 L-54398 391 L-54086 389 L-53006 387 L-52814 384 L-52581 384 L-52386 382 L-51886 380 L-51132 380 L-51018 380 L-50818 380 L-50777 377 L-50684 375 L-50371 373 L-50283 370 L-50167 368 L-49849 368 L-49780 366 L-49755 363 L-49393 361 L-49355 359 L-49138 356 L-48635 359 L-48032 361 L-47821 366 L-47668 368 L-47630 368 L-47586 363 L-47551 361 L-47419 359 L-47009 356 L-46639 354 L-46585 352 L-46569 349 L-46490 347 L-46080 345 L-45927 342 L-45911 338 L-45872 335 L-45693 331 L-45617 328 L-45386 326 L-44596 324 L-44518 324 L-43783 319 L-43628 317 L-43388 312 L-43326 308 L-43241 305 L-43218 301 L-43100 296 L-43086 291 L-43024 287 L-42987 284 L-42892 282 L-42870 282 L-42754 280 L-42521 277 L-42351 273 L-41531 273 L-41130 270 L-40975 270 L-40470 270 L-40356 270 L-39759 270 L-39385 268 L-39333 268 L-39139 266 L-38443 266 L-38405 263 L-38260 263 L-38035 261 L-37773 259 L-37399 256 L-36973 254 L-36844 252 L-36824 247 L-36331 247 L-35634 245 L-35403 247 L-35249 247 L-34281 247 L-34056 249 L-33778 249 L-33762 247 L-33236 245 L-32707 242 L-32559 240 L-32540 238 L-31998 235 L-31688 233 L-31570 228 L-31379 224 L-31242 219 L-30915 217 L-30798 214 L-30489 214 L-30063 212 L-30007 212 L-29774 214 L-29678 214 L-29545 214 L-29248 214 L-29134 212 L-28770 210 L-28457 210 L-27974 207 L-27804 205 L-27556 203 L-27340 200 L-26814 198 L-26627 193 L-26272 191 L-25637 189 L-25482 184 L-24741 182 L-24322 179 L-24142 177 L-24065 177 L-23934 175 L-23641 172 L-23600 170 L-23370 170 L-23177 168 L-22922 168 L-22496 165 L-22387 163 L-21768 163 L-21587 163 L-20375 163 L-19728 165 L-19577 165 L-19540 165 L-19408 165 L-19307 163 L-19291 161 L-19209 158 L-18998 156 L-18881 154 L-18518 151 L-18146 149 L-17450 147 L-17048 144 L-16943 142 L-16925 140 L-15980 137 L-15785 133 L-15633 130 L-15577 126 L-14821 126 L-14804 130 L-14315 133 L-14185 137 L-13992 137 L-13101 135 L-13062 133 L-13024 130 L-12947 128 L-12908 128 L-12831 126 L-12747 123 L-12483 121 L-12250 119 L-12188 116 L-11708 114 L-11371 114 L-11260 112 L-11067 109 L-10890 107 L-10831 107 L-10795 105 L-10525 103 L-9827 98 L-9774 93 L-9480 89 L-9078 84 L-8514 82 L-7641 79 L-7336 77 L-7298 75 L-7175 72 L-6577 70 L-6447 68 L-6247 65 L-6209 63 L-5596 61 L-5417 58 L-5402 54 L-5184 51 L-5106 47 L-4799 47 L-4667 44 L-4435 44 L-4100 44 L-4009 42 L-3908 40 L-3871 37 L-3327 37 L-3135 35 L-2594 33 L-2168 30 L-2036 30 L-1974 30 L-1743 30 L-1727 30 L-1239 33 L-1158 33 L-1140 33 L251 35 L387 35 L501 33 L1136 30 L1275 28 L1393 26 L1547 21 L1584 19 L1662 16 L1716 19 L2708 19 L2745 16 L2878 16 L2938 12 L3037 9 L3327 7 L3341 5 L3651 5 L3751 7 L4216 5 L4270 252 L4412 496 L4540 743 L4772 990 L5341 988 L5430 985 L5453 985 L5740 983 L6422 981 L6500 979" />
</svg>
