<svg xmlns="http://www.w3.org/2000/svg" version="1.1" viewBox="0 0 6500 1000">
	<path fill="none" stroke="gold" stroke-width="125" stroke-linecap="round" stroke-linejoin="round" d="M0 118221  L-520983 118221 L-520799 118158 L-520308 118030 L-520015 117966 L-519704 117839 L-519469 117775 L-519416 117648 L-519356 117520 L-519203 117456 L-519163 117329 L-519030 117265 L-518738 117202 L-518197 117202 L-517587 117138 L-517539 117138 L-516899 117074 L-516865 117074 L-516340 117074 L-516207 117010 L-515817 116883 L-515489 116755 L-515372 116628 L-515160 116500 L-514443 116500 L-513874 116437 L-513766 116437 L-513592 116373 L-513370 116246 L-512969 116182 L-512943 116054 L-512015 115927 L-511928 115799 L-511846 115672 L-511775 115544 L-511478 115481 L-511326 115353 L-509436 115417 L-509335 115417 L-509073 115417 L-508779 115481 L-508638 115353 L-508389 115353 L-508353 115289 L-508195 115226 L-507732 115098 L-507479 115035 L-507266 114907 L-507015 114843 L-506666 114780 L-505739 114652 L-505645 114525 L-505234 114461 L-504063 114333 L-502874 114270 L-502782 114142 L-502755 114015 L-502489 113887 L-502190 113760 L-502061 113632 L-502023 113505 L-501209 113505 L-500825 113569 L-499764 113632 L-499703 113632 L-499438 114907 L-498967 116118 L-498774 117329 L-498511 118540 L-498174 118476 L-498038 118413 L-497583 118349 L-496839 118285 L-496822 118221 L-496657 118094 L-496589 118094 L-496072 118030 L-495044 118030 L-494848 117966 L-494359 117903 L-493997 117839 L-493588 117839 L-493203 117903 L-491499 117903 L-491401 117903 L-491329 117903 L-491268 117903 L-491084 117839 L-490747 117839 L-490107 117775 L-490030 117711 L-489968 117711 L-489782 117648 L-489702 117648 L-489525 117584 L-489506 117520 L-489276 117520 L-488888 117456 L-487999 117456 L-487960 117393 L-487872 117329 L-487845 117202 L-486836 117138 L-486687 117010 L-486662 116947 L-486530 116883 L-486490 116819 L-485231 116755 L-485174 116755 L-484634 116692 L-484581 116692 L-484535 116692 L-484140 116628 L-484000 116564 L-483800 116500 L-483654 116500 L-483489 116500 L-483212 116564 L-482854 116564 L-482301 116500 L-481656 116437 L-481397 116309 L-481244 116246 L-480843 116182 L-480803 116118 L-480682 116054 L-480620 116118 L-480606 116118 L-480512 116118 L-480219 116054 L-480068 115799 L-479737 115672 L-479660 115544 L-479584 115481 L-479357 115289 L-479291 115162 L-479063 115035 L-479011 114907 L-478846 114843 L-477840 114780 L-477657 114716 L-477106 114652 L-476713 114525 L-476315 114461 L-475465 114333 L-475387 114270 L-474808 114206 L-474367 114206 L-474126 114142 L-473968 114142 L-473568 114015 L-473547 114015 L-473102 113951 L-472697 113887 L-472561 113760 L-472386 113632 L-472249 113505 L-471999 113377 L-470999 113314 L-470917 113250 L-470781 113186 L-470743 113123 L-469853 113059 L-469637 112995 L-469194 112931 L-469077 112868 L-469020 112804 L-468344 112804 L-468243 112740 L-468214 112740 L-466873 112676 L-466467 112613 L-466427 112549 L-465499 112485 L-465401 112421 L-465268 112358 L-464864 112294 L-464838 112230 L-464745 112166 L-464528 112103 L-464117 111975 L-462964 111848 L-462672 111720 L-462643 111593 L-462035 111529 L-461785 111402 L-461765 111338 L-460836 111274 L-460785 111147 L-460662 111083 L-460645 110956 L-460489 110892 L-460314 110764 L-460177 110701 L-460121 110637 L-460013 110573 L-459927 110509 L-459694 110446 L-459619 110382 L-459311 110318 L-459193 110254 L-459023 110191 L-458932 110127 L-458829 110127 L-458806 110063 L-458729 110063 L-458631 109936 L-458264 109872 L-458160 109808 L-457656 109745 L-457204 109681 L-457166 109617 L-457142 109553 L-457101 109490 L-456973 109426 L-456872 109362 L-456430 109298 L-456148 109235 L-455556 109171 L-455425 109107 L-455151 108980 L-454998 108916 L-454845 108852 L-454760 108725 L-454682 108661 L-454496 108597 L-454445 108597 L-454418 108534 L-454338 108470 L-454315 108406 L-454032 108279 L-453428 108151 L-452433 108087 L-452135 108024 L-451401 107960 L-451156 107896 L-451066 107833 L-450489 107769 L-449791 107705 L-449038 107641 L-448720 107578 L-448337 107450 L-448260 107386 L-447625 107323 L-447440 107259 L-447352 107259 L-447223 107259 L-446910 107195 L-446861 107131 L-446718 107068 L-446697 107004 L-445729 106940 L-445184 106876 L-444705 106876 L-444644 106876 L-444321 106876 L-444299 106813 L-444237 106813 L-444027 106749 L-443950 106685 L-443895 106622 L-443873 106558 L-443834 106494 L-443818 106430 L-443061 106367 L-443044 106303 L-442245 106239 L-442092 106175 L-441187 106112 L-440681 106048 L-440451 105920 L-440410 105920 L-440295 105857 L-440119 105793 L-439364 105857 L-439229 105793 L-439065 105729 L-438747 105666 L-438571 105538 L-437549 105411 L-437526 105283 L-437274 105219 L-437061 105092 L-436427 105028 L-436190 104901 L-436157 104773 L-435979 104646 L-435899 104518 L-435809 104455 L-435744 104327 L-435304 104200 L-435281 104136 L-434740 104072 L-434484 104008 L-433989 103945 L-433112 103881 L-433075 103817 L-433022 103753 L-432981 103690 L-432864 103626 L-432588 103562 L-432381 103435 L-432183 103307 L-432160 103180 L-432110 103052 L-432071 102989 L-431993 102925 L-431395 102797 L-431335 102734 L-431232 102670 L-431078 102606 L-430445 102543 L-429765 102479 L-429462 102351 L-429115 102288 L-428918 102224 L-428870 102096 L-428549 102033 L-427922 101969 L-427775 101905 L-427739 101841 L-427681 101778 L-427604 101650 L-427363 101650 L-427274 101586 L-427180 101523 L-426887 101459 L-426752 101395 L-426692 101332 L-426655 101204 L-426383 101204 L-425377 101140 L-425201 101077 L-425151 101077 L-424858 101013 L-424666 100885 L-424332 100822 L-423826 100758 L-423264 100630 L-423249 100503 L-423232 100439 L-423132 100312 L-423017 100184 L-422978 100057 L-422941 99993 L-422875 99993 L-422847 99929 L-422708 99993 L-422415 99993 L-422365 99993 L-422260 99993 L-421995 99929 L-421530 99866 L-421386 99866 L-421331 99738 L-421274 99674 L-421083 99611 L-420718 99547 L-420504 99547 L-420309 99547 L-420251 99547 L-420192 99420 L-420038 99356 L-419769 99292 L-419339 99611 L-419323 99611 L-419246 99547 L-419182 99483 L-419052 99037 L-419029 98973 L-418745 98910 L-418697 98846 L-418643 98782 L-418180 98718 L-418141 98718 L-418101 98655 L-417910 98591 L-417430 98527 L-416943 98463 L-416927 98400 L-416888 98336 L-416632 98272 L-416555 98145 L-416325 98081 L-416309 97954 L-416014 97826 L-415572 97762 L-415125 97699 L-414621 97635 L-414467 97571 L-414180 97507 L-414140 97380 L-413809 97316 L-413587 97253 L-413070 97125 L-412994 97061 L-412746 96934 L-412552 96806 L-412492 96743 L-411716 96679 L-411642 96679 L-411411 96615 L-411394 96615 L-411333 96551 L-411137 96488 L-410673 96488 L-410649 96424 L-410520 96424 L-409219 96424 L-409202 96424 L-409125 96360 L-409032 96360 L-408814 96360 L-408662 96297 L-408484 96360 L-408430 96424 L-408143 96488 L-408103 96488 L-407734 96488 L-407293 96488 L-407110 96488 L-406789 96424 L-406494 96424 L-406048 96297 L-405976 96233 L-405514 96105 L-405076 96042 L-404894 95978 L-403440 95850 L-403308 95787 L-402851 95659 L-402625 95595 L-402238 95468 L-401722 95340 L-400768 95213 L-399974 95086 L-399299 95022 L-398874 94894 L-398562 94831 L-398333 94639 L-397649 94448 L-397636 94257 L-397426 94002 L-397404 93938 L-397230 93811 L-396280 93747 L-396012 93620 L-395197 93556 L-394886 93428 L-394848 93365 L-394791 93237 L-394174 93173 L-393536 93046 L-391910 92982 L-391237 92919 L-390594 92919 L-390517 92919 L-390461 92919 L-390425 92919 L-390396 92855 L-390285 92727 L-390267 92664 L-390244 92600 L-390091 92536 L-390037 92409 L-389959 92345 L-389840 92281 L-389742 92217 L-389625 92154 L-389355 92026 L-389086 91963 L-389068 91835 L-388868 91771 L-388721 91644 L-388495 91580 L-388361 91516 L-388052 91453 L-387992 91389 L-387639 91261 L-387290 91198 L-387189 91134 L-387125 91007 L-387065 90943 L-386681 90815 L-386300 90752 L-386195 90688 L-385935 90624 L-385664 90497 L-385505 90433 L-385472 90369 L-385410 90305 L-385269 90242 L-385085 90178 L-385041 90114 L-384753 90114 L-384736 90050 L-384503 90050 L-384442 89987 L-384404 89987 L-383824 89923 L-383690 89859 L-383667 89604 L-383649 89158 L-383631 88648 L-383615 88138 L-383591 87629 L-383575 87246 L-383554 86800 L-383537 86354 L-383514 86099 L-383497 85844 L-383475 85653 L-383459 85525 L-383410 85334 L-383337 85143 L-383303 84824 L-383279 84569 L-383243 84314 L-383202 84059 L-383165 83932 L-383149 83677 L-383125 83486 L-383088 83358 L-383071 83167 L-383048 83040 L-383030 82912 L-383012 82785 L-382996 82657 L-382966 82466 L-382940 82275 L-382895 82211 L-382879 82084 L-382837 82020 L-382789 81892 L-382718 81765 L-382703 81637 L-382687 81510 L-382624 81446 L-382585 81383 L-382546 81319 L-382380 81255 L-382315 81191 L-382299 81128 L-382255 81000 L-382196 80936 L-381984 80873 L-381950 80809 L-381908 80745 L-381830 80681 L-381292 80618 L-381214 80554 L-381110 80427 L-381021 80363 L-380845 80299 L-380494 80235 L-380339 80172 L-379901 80108 L-379744 80044 L-379614 79980 L-378910 79853 L-378709 79789 L-377749 79662 L-377266 79598 L-377167 79598 L-377075 79534 L-376830 79471 L-376757 79407 L-376314 79279 L-376218 79216 L-376203 79152 L-376187 79088 L-376162 79024 L-375696 78961 L-375479 78897 L-375339 78833 L-375046 78769 L-374957 78706 L-374916 78642 L-374886 78578 L-374713 78514 L-374654 78451 L-374578 78387 L-374498 78323 L-374428 78323 L-374119 78260 L-374033 78196 L-373820 78132 L-373785 78068 L-373101 78005 L-373002 77941 L-372797 77877 L-372751 77813 L-372472 77750 L-372410 77686 L-372393 77558 L-372315 77495 L-372007 77367 L-371983 77304 L-371929 77176 L-371906 77112 L-371784 77049 L-371648 76921 L-371404 76857 L-371278 76857 L-370631 76794 L-370615 76794 L-370590 76794 L-370410 76666 L-370334 76602 L-370242 76539 L-369815 76475 L-369398 76411 L-369005 76284 L-368927 76220 L-368908 76156 L-368545 76093 L-368308 76029 L-368080 75965 L-367767 75901 L-367689 75838 L-367608 75710 L-367430 75583 L-367415 75519 L-367149 75391 L-367069 75328 L-366839 75264 L-366613 75200 L-366297 75200 L-366122 75137 L-365761 75137 L-365369 75073 L-365300 74945 L-365236 74882 L-365096 74754 L-365044 74690 L-364942 74563 L-364440 74499 L-364243 74435 L-363996 74372 L-363811 74308 L-363511 74244 L-363435 74181 L-363269 74053 L-362385 73989 L-362356 73862 L-362233 73734 L-361654 73671 L-361577 73607 L-360863 73607 L-360551 73607 L-360338 73607 L-360321 73607 L-359935 73607 L-359410 73479 L-358964 73416 L-358634 73352 L-358481 73288 L-358155 73288 L-357977 73224 L-357896 73224 L-357689 73097 L-357514 73033 L-356585 72970 L-355695 72906 L-355656 72842 L-355428 72842 L-355049 72778 L-354262 72715 L-354027 72651 L-353951 72587 L-353594 72523 L-353022 72396 L-352755 72332 L-352369 72268 L-352265 72268 L-352095 72268 L-351477 72268 L-351265 72268 L-350958 72268 L-350905 72205 L-350777 72141 L-350724 72077 L-350605 72014 L-350268 71886 L-349309 71822 L-349178 71695 L-348976 71631 L-348345 71567 L-348034 71504 L-347620 71440 L-347592 71376 L-347447 71312 L-347027 71249 L-345694 71249 L-345647 71185 L-345519 71057 L-345502 70994 L-344924 70866 L-344718 70803 L-344689 70739 L-344648 70675 L-344590 70611 L-344553 70548 L-344475 70484 L-344332 70420 L-343877 70356 L-343759 70293 L-343474 70229 L-343101 70165 L-343005 70101 L-342678 70038 L-342324 69974 L-342154 69910 L-342106 69847 L-341997 69783 L-341908 69719 L-341881 69655 L-341804 69528 L-341501 69464 L-341467 69337 L-341395 69273 L-341027 69209 L-340692 69145 L-340611 69145 L-340391 69082 L-340220 69018 L-340192 68954 L-339695 68891 L-339146 68763 L-338265 68699 L-338167 68572 L-338090 68508 L-337815 68444 L-337568 68317 L-337494 68253 L-337433 68126 L-337314 68062 L-337271 67998 L-337161 67934 L-337084 67807 L-336384 67743 L-336138 67680 L-336099 67616 L-335942 67552 L-335343 67552 L-335116 67552 L-335024 67552 L-334549 67552 L-333951 67425 L-333432 67361 L-333411 67297 L-333265 67233 L-332945 67233 L-332404 67233 L-332171 67233 L-332001 67233 L-331515 67170 L-331287 67106 L-331202 67042 L-330856 66978 L-330530 66978 L-330007 66915 L-329679 66851 L-329079 66787 L-328881 66660 L-328829 66596 L-328789 66532 L-328508 66469 L-327823 66341 L-327513 66277 L-327488 66150 L-327297 66086 L-327074 66022 L-326988 65959 L-326325 65831 L-326300 65768 L-326078 65640 L-325748 65576 L-325396 65449 L-325192 65385 L-324959 65258 L-324701 65194 L-324512 65066 L-324465 65003 L-324237 64939 L-324203 64875 L-324046 64811 L-323832 64748 L-323659 64684 L-323568 64620 L-323290 64557 L-323046 64493 L-322731 64429 L-322305 64429 L-322268 64429 L-321784 64429 L-321551 64429 L-321339 64365 L-321113 64302 L-320563 64302 L-320316 64238 L-319482 64238 L-319426 64174 L-319404 64110 L-319246 64047 L-318785 63983 L-318744 63919 L-318404 63792 L-318271 63728 L-318048 63664 L-317476 63601 L-317004 63537 L-316810 63473 L-316617 63409 L-316427 63346 L-316325 63282 L-315957 63218 L-315911 63154 L-315829 63091 L-314536 63027 L-314488 62963 L-314219 62963 L-314074 62963 L-313523 62963 L-313407 62899 L-313325 62836 L-312965 62772 L-312742 62708 L-312461 62644 L-312131 62517 L-311624 62453 L-311511 62390 L-311432 62326 L-311268 62262 L-310973 62262 L-310505 62262 L-310308 62326 L-310258 62326 L-309608 62262 L-309486 62198 L-309032 62198 L-308996 62135 L-308528 62071 L-308417 62007 L-308401 61943 L-308185 61943 L-308004 61880 L-307472 61880 L-306443 61880 L-306243 61816 L-305785 61752 L-304837 61625 L-304738 61561 L-304384 61434 L-304323 61370 L-304309 61306 L-304274 61242 L-303904 61179 L-303784 61115 L-303542 61051 L-303378 60987 L-303191 60924 L-303070 60860 L-302000 60732 L-301141 60669 L-300929 60541 L-300832 60478 L-300658 60350 L-300325 60286 L-300253 60223 L-300195 60159 L-300020 60159 L-299631 60095 L-299396 60031 L-299284 59968 L-299167 59904 L-298186 59840 L-298161 59776 L-297567 59649 L-297534 59649 L-297386 59585 L-297101 59521 L-296189 59521 L-295243 59521 L-295090 59458 L-294988 59458 L-294856 59394 L-294713 59330 L-294687 59267 L-294572 59203 L-294354 59139 L-293673 59075 L-293543 59012 L-293240 58948 L-293000 58820 L-292667 58757 L-292029 58693 L-291686 58565 L-291625 58502 L-291469 58502 L-290547 58502 L-290077 58502 L-290033 58502 L-290020 58438 L-289979 58374 L-289957 58311 L-289930 58247 L-289786 58183 L-289364 58119 L-289028 58119 L-288837 58056 L-288409 58056 L-288221 57992 L-287832 57864 L-287298 57801 L-286925 57737 L-286904 57737 L-286654 57673 L-286535 57609 L-286459 57546 L-286324 57482 L-286284 57418 L-286205 57355 L-285810 57291 L-285314 57227 L-285202 57100 L-285029 57036 L-284721 56972 L-284274 56908 L-283951 56845 L-283808 56717 L-283381 56590 L-283228 56462 L-283172 56335 L-282359 56271 L-282339 56207 L-281967 56144 L-281910 56144 L-280781 56080 L-280713 56080 L-280155 56016 L-279960 55952 L-279824 55889 L-279591 55825 L-279244 55761 L-279209 55634 L-279174 55570 L-279105 55442 L-278756 55379 L-278584 55315 L-278099 55251 L-278083 55188 L-277758 55124 L-277601 55060 L-276460 54933 L-276435 54869 L-276243 54741 L-276050 54678 L-275799 54614 L-275782 54550 L-274762 54486 L-274464 54423 L-274389 54359 L-274253 54231 L-274077 54168 L-273500 54040 L-273285 53977 L-273221 53913 L-273090 53849 L-273053 53722 L-272530 53658 L-272392 78769 L-272378 78769 L-272355 78769 L-272335 78769 L-272107 53594 L-271332 53594 L-271290 53594 L-270922 53594 L-270844 53530 L-270792 53467 L-270119 53403 L-269376 53339 L-268952 53339 L-268504 53275 L-267442 53212 L-267131 53084 L-266721 53084 L-266648 53021 L-266124 53021 L-266030 53021 L-266012 53021 L-265567 52957 L-265382 52829 L-264601 52702 L-263929 52638 L-263517 52447 L-263285 52319 L-263144 52256 L-263063 52128 L-263043 52065 L-262967 52065 L-262838 52001 L-262521 52065 L-262297 52065 L-261972 52001 L-261910 52001 L-261540 52001 L-261507 52001 L-261298 52001 L-260631 52001 L-260553 52001 L-260395 51873 L-260285 51873 L-259958 51810 L-259803 51746 L-259462 51746 L-259405 51618 L-259067 51491 L-258864 51427 L-258811 51300 L-257434 51236 L-257304 51172 L-256871 51108 L-256551 51045 L-255723 50917 L-255599 50854 L-254869 50726 L-254713 50599 L-254672 50535 L-254618 50471 L-254595 50407 L-254481 50344 L-254185 50280 L-253895 50216 L-253840 50152 L-253720 50089 L-253690 50025 L-253590 49961 L-253146 49961 L-252994 49898 L-252159 49898 L-251617 49834 L-251282 49834 L-251267 49770 L-251191 49706 L-251075 49643 L-250880 49579 L-250616 49515 L-249781 49451 L-249685 49388 L-249164 49324 L-249122 49260 L-249023 49196 L-248194 49196 L-248059 49133 L-247721 49133 L-247166 49069 L-246787 49005 L-246624 48942 L-246314 48878 L-245501 48814 L-245195 48750 L-244927 48750 L-244605 48750 L-244284 48814 L-244009 48814 L-243180 48687 L-243085 48623 L-242993 48432 L-242888 48240 L-242501 48049 L-242021 47922 L-242005 47858 L-241886 47794 L-241518 47667 L-241423 47603 L-240590 47476 L-240513 47412 L-240213 47348 L-240122 47284 L-239715 47157 L-239605 47029 L-238906 46966 L-238433 46902 L-238372 46838 L-238154 46711 L-237880 46647 L-237767 46583 L-236740 46520 L-236353 46456 L-236333 46392 L-236000 46328 L-235755 46265 L-235322 46201 L-235212 46137 L-235094 46073 L-234643 45946 L-234052 45882 L-233716 45818 L-231823 45755 L-231709 45627 L-231497 45564 L-230179 45500 L-230073 31159 L-230007 17010 L-229970 3945 L-229909 3945 L-229409 18158 L-228734 32179 L-228712 45117 L-228442 44990 L-227474 44990 L-226784 44926 L-226622 44862 L-226082 44799 L-225992 44735 L-224973 44671 L-224025 44544 L-223659 44608 L-223556 44671 L-222968 44671 L-222909 44671 L-222808 44608 L-222368 44480 L-222260 44416 L-221819 44353 L-220819 44161 L-220563 43970 L-220460 43779 L-220330 43652 L-219963 43524 L-219382 43397 L-219351 43333 L-219036 43269 L-217053 43205 L-216937 43142 L-216869 43142 L-216511 43078 L-214892 43014 L-214714 43014 L-214570 43014 L-213748 43078 L-213695 43142 L-213640 43142 L-213206 43142 L-212226 43205 L-212152 43205 L-211067 43142 L-210854 43142 L-210138 43014 L-209750 42950 L-209531 42823 L-209211 42695 L-208718 42568 L-208590 42504 L-208361 42377 L-208129 42249 L-208069 42186 L-207780 42122 L-207508 41994 L-206478 41931 L-204813 41867 L-204394 41803 L-204257 41739 L-204100 41739 L-203795 41676 L-203567 41548 L-203409 41485 L-203249 41357 L-203080 41230 L-203033 41166 L-202979 41102 L-202958 41102 L-202572 41038 L-202322 41038 L-202051 41038 L-201891 41038 L-201801 41038 L-200142 41038 L-199977 41102 L-199597 41038 L-199137 41038 L-198527 40911 L-197434 40847 L-197003 40783 L-196972 40720 L-196909 40656 L-196892 40592 L-195188 40528 L-195146 40465 L-194680 40401 L-194493 40337 L-194461 40210 L-193866 40146 L-193816 40082 L-193493 40019 L-193442 39955 L-193232 39891 L-193214 39827 L-192948 39700 L-192895 39636 L-192426 39572 L-191916 39445 L-191837 39445 L-191543 39381 L-191526 39318 L-191488 39254 L-191417 39190 L-191259 39126 L-190313 39126 L-190257 39126 L-189736 39126 L-189544 39063 L-189443 39063 L-189217 38999 L-188707 38999 L-188319 40720 L-188249 40720 L-187901 40656 L-187544 40592 L-186415 38744 L-186364 38616 L-186138 38553 L-186104 38489 L-185979 38362 L-185880 38362 L-185615 38362 L-184875 38425 L-184297 38425 L-184003 38425 L-183297 38425 L-183118 38362 L-183095 38362 L-182459 38298 L-182148 38234 L-181751 38234 L-181722 38170 L-181701 38107 L-181547 38043 L-180862 38043 L-180846 38043 L-180506 38043 L-180233 37979 L-180196 37915 L-180140 37788 L-180118 37724 L-180046 37660 L-179714 37597 L-179608 37533 L-179579 37405 L-179381 37342 L-179228 37278 L-178360 37214 L-177797 37087 L-177782 37087 L-177680 37023 L-177578 37087 L-177432 37087 L-177353 37087 L-177315 37023 L-177260 36959 L-177187 36896 L-177042 36832 L-176560 36832 L-176156 36768 L-175289 36832 L-175269 36832 L-175012 36832 L-174935 36832 L-174906 36768 L-174895 36641 L-174878 36577 L-174585 36513 L-174546 36449 L-174474 36386 L-174400 36322 L-174195 36258 L-174035 36067 L-173734 35876 L-173657 35621 L-173639 35430 L-173423 35302 L-173192 35302 L-173082 35366 L-172712 35430 L-172554 35430 L-172322 35430 L-172154 35430 L-172009 35366 L-171877 35302 L-170601 35175 L-170198 35047 L-170137 34984 L-170020 34856 L-169595 34792 L-169579 34665 L-169518 34601 L-169244 34474 L-169132 34410 L-168849 34282 L-168572 34219 L-168147 34091 L-168125 34028 L-168047 33964 L-167921 33900 L-167335 33836 L-166943 33773 L-166608 33709 L-166018 33645 L-165916 33645 L-165746 33581 L-165610 33581 L-164782 33518 L-163597 33454 L-163561 33390 L-163505 33390 L-163285 33326 L-163079 33326 L-162925 33326 L-162668 33263 L-162592 33199 L-162049 33135 L-162013 33072 L-161764 33008 L-161376 32944 L-160551 32880 L-160192 32817 L-159882 32817 L-159624 32753 L-159400 32689 L-158994 32625 L-158878 32562 L-158694 32498 L-158641 32498 L-158453 32434 L-158282 32370 L-158253 32307 L-157973 32243 L-157662 32179 L-157524 32115 L-157214 32052 L-157020 32052 L-157005 31988 L-156286 31988 L-156152 31861 L-155854 31797 L-155764 31733 L-155163 31733 L-155125 31669 L-155047 31606 L-154426 31542 L-154275 31414 L-154234 31351 L-153923 31287 L-153732 31223 L-153539 31096 L-153483 30968 L-153174 30905 L-153122 30841 L-153068 30905 L-153042 30905 L-152917 30905 L-152106 30841 L-152030 30777 L-151489 30713 L-151221 30650 L-150561 30586 L-149653 30522 L-149412 30458 L-148880 30395 L-148663 30331 L-147555 30395 L-147505 30395 L-146729 30395 L-146182 30331 L-146071 30267 L-145918 30140 L-145862 30076 L-145697 30012 L-145320 29949 L-144872 29885 L-144818 29821 L-144663 29757 L-143983 29694 L-143763 29630 L-143245 29566 L-142396 29439 L-142380 29375 L-140589 29311 L-140035 29247 L-139918 29184 L-138912 29120 L-138875 29056 L-138643 29056 L-138550 29056 L-138510 29056 L-138178 28992 L-137826 28929 L-137561 28801 L-137274 28738 L-136964 28610 L-136709 28483 L-136616 28419 L-136126 28355 L-135918 28291 L-135353 28228 L-135238 28291 L-134887 28228 L-134836 28228 L-134795 28228 L-134192 28100 L-133458 27973 L-132877 27845 L-132642 27718 L-132101 27527 L-131949 27399 L-131447 27335 L-131238 27208 L-131214 27208 L-131156 27144 L-130193 27144 L-130015 27080 L-129574 27017 L-129549 26889 L-129394 26826 L-129312 26826 L-129162 26889 L-128515 26889 L-128466 26826 L-127346 26762 L-126362 26698 L-126300 26634 L-125579 26571 L-124715 26507 L-124336 26443 L-124117 26443 L-123357 26379 L-123305 26316 L-122996 26188 L-122145 26188 L-121952 26124 L-121775 26061 L-121551 26061 L-121424 25997 L-121232 25997 L-120999 25933 L-120830 25997 L-120543 25933 L-120264 25933 L-120181 25869 L-120010 25806 L-119994 25678 L-119840 25615 L-119801 25551 L-119025 25487 L-118949 25487 L-118716 25360 L-118289 25296 L-117944 25232 L-117361 25168 L-117092 25168 L-116833 25168 L-116704 25041 L-116687 24977 L-116574 24913 L-116550 24850 L-116316 24786 L-116280 24722 L-114964 24722 L-114908 24659 L-114229 24531 L-113657 24531 L-113531 24531 L-113378 24531 L-113301 24531 L-112989 24404 L-112716 24340 L-112627 24212 L-112525 24212 L-111597 24149 L-111521 24149 L-111157 24149 L-111132 24085 L-111096 24021 L-110321 23894 L-110229 23830 L-110089 23766 L-109687 23702 L-109425 23702 L-109182 23766 L-108968 23702 L-108887 23702 L-108811 23702 L-108734 23702 L-108548 23766 L-108481 23766 L-108231 23766 L-108176 23702 L-108039 23639 L-107959 23511 L-107846 23448 L-107623 23384 L-107458 23320 L-107417 23256 L-107248 23193 L-106877 23129 L-106862 23065 L-106746 23001 L-106025 22938 L-105989 22874 L-105856 22874 L-105509 22810 L-105097 22810 L-105061 22810 L-104983 22746 L-104944 22683 L-104580 22619 L-104376 22555 L-104361 22492 L-104015 22428 L-103667 22428 L-103341 22428 L-103239 22364 L-103086 22364 L-102892 22300 L-102660 22300 L-102568 22300 L-102412 22300 L-102335 22300 L-102294 22237 L-102181 22173 L-102157 22109 L-101907 22109 L-101768 21982 L-101190 21790 L-100362 21663 L-99874 21536 L-99753 21472 L-99714 21408 L-99702 21344 L-99549 21217 L-99449 21089 L-99215 21026 L-98825 20898 L-98521 20834 L-98505 20771 L-98334 20707 L-98096 20579 L-97500 20579 L-96896 20516 L-96856 20516 L-96816 20516 L-96663 20452 L-96609 20388 L-96547 20325 L-96479 20261 L-96424 20133 L-96399 20070 L-96352 20006 L-96258 19878 L-96120 19815 L-95967 19751 L-95835 19687 L-95794 19687 L-95758 19623 L-95696 19560 L-95423 19432 L-95109 19369 L-95068 19241 L-94983 19177 L-94805 19114 L-94568 19050 L-94210 18986 L-94181 18922 L-93611 18859 L-93488 18795 L-93252 18731 L-93230 18731 L-92948 18667 L-92663 18667 L-92407 18667 L-91836 18604 L-91539 18540 L-91463 18476 L-90764 18413 L-90686 18349 L-90651 18285 L-90625 18221 L-90573 18094 L-90379 18030 L-90239 17903 L-90203 17839 L-90163 17775 L-89568 17711 L-89335 17648 L-89052 18094 L-88997 18476 L-88923 18922 L-88845 19305 L-88609 19177 L-88365 19114 L-88230 19050 L-88123 18986 L-88044 18922 L-87656 18795 L-87529 18731 L-87377 18667 L-87339 18604 L-87193 18540 L-86972 18476 L-86798 18413 L-86729 18349 L-85907 18221 L-85891 18221 L-85597 18158 L-84809 18094 L-84499 18094 L-84353 18030 L-84125 17966 L-83924 17839 L-82987 17775 L-82950 17711 L-82928 17648 L-82887 17520 L-82618 17456 L-82022 17393 L-81958 17329 L-81922 17265 L-81906 17202 L-81210 17202 L-81009 17202 L-80977 17202 L-80644 17202 L-80536 17138 L-79911 17010 L-79407 16947 L-79370 16819 L-78928 16819 L-78832 16755 L-78673 16755 L-78359 16755 L-78347 16755 L-77907 16819 L-77425 16883 L-77296 16883 L-76976 16883 L-76908 16819 L-76603 16819 L-76428 16755 L-76234 16692 L-75991 16564 L-75794 16437 L-75768 16309 L-75190 16246 L-75120 16182 L-74710 16118 L-74656 16054 L-74610 15991 L-74246 15927 L-74099 15863 L-73894 15799 L-73798 15799 L-73643 15736 L-73581 15672 L-73434 15544 L-73333 15481 L-72776 15481 L-72754 15608 L-72582 15672 L-72040 15736 L-71979 15736 L-71925 15608 L-71897 15481 L-71825 15417 L-71809 15289 L-71745 15226 L-71709 15098 L-71554 15035 L-71229 14971 L-70663 14907 L-70648 14843 L-70586 14716 L-70485 14588 L-70438 14588 L-70196 14525 L-69773 14525 L-69619 14525 L-67877 14397 L-67335 14333 L-66392 14270 L-65983 14206 L-65442 14079 L-65245 14015 L-65077 13951 L-64781 13887 L-64666 13824 L-64651 13824 L-64496 13760 L-64356 13696 L-64280 13569 L-64148 13569 L-63800 13569 L-63429 13632 L-62831 13632 L-62656 13632 L-62499 13569 L-62230 13505 L-62079 13505 L-61788 13696 L-61764 13824 L-61681 13951 L-61454 14079 L-60754 14015 L-60627 13951 L-60196 13887 L-60102 13824 L-58897 13824 L-58848 13760 L-58555 13760 L-58151 13696 L-57875 13569 L-57856 13505 L-57738 13441 L-57662 13377 L-57480 13314 L-57000 13250 L-56549 13123 L-56139 13059 L-56109 12995 L-55690 12931 L-55576 12931 L-55458 12931 L-55443 12931 L-55248 12868 L-55227 12740 L-54995 12676 L-54551 12613 L-54232 12485 L-53767 12485 L-53602 12421 L-53447 12358 L-53291 12358 L-52838 12358 L-52519 12358 L-52464 12421 L-52093 12421 L-52055 12485 L-51729 12485 L-51612 12421 L-51513 12358 L-51187 12230 L-50800 12166 L-50539 12103 L-50181 11975 L-49924 11912 L-47754 11848 L-47705 11784 L-47682 11720 L-47271 11720 L-47209 11720 L-47139 11784 L-46908 11784 L-46598 11720 L-46294 11593 L-46250 11529 L-45942 11465 L-45809 11402 L-45592 11338 L-44880 11274 L-44725 11274 L-44587 11210 L-44438 11210 L-44417 11210 L-44223 11147 L-44197 11083 L-44106 11019 L-44084 10956 L-44068 10892 L-43968 10828 L-43039 10764 L-42581 10764 L-41489 10637 L-41067 10637 L-40663 10573 L-40624 10509 L-40371 10446 L-39596 10318 L-39580 10254 L-39556 10191 L-39362 10127 L-38626 10063 L-38357 10000 L-38316 9936 L-37917 9808 L-37893 9745 L-37103 9681 L-36423 9617 L-35052 9553 L-34782 9490 L-34734 9426 L-34196 9298 L-34163 9235 L-34061 9107 L-33738 9043 L-33658 8980 L-33389 8980 L-32477 8916 L-32338 8916 L-32089 8789 L-31544 8789 L-31122 8725 L-30928 8661 L-30913 8661 L-30775 8534 L-30681 8470 L-30554 8406 L-30294 8342 L-30269 8215 L-30178 8151 L-29868 8087 L-29807 8024 L-29690 8024 L-29341 8024 L-28530 8024 L-28299 7896 L-27470 7896 L-27238 7769 L-27021 7705 L-26503 7705 L-25865 7641 L-25448 7578 L-25126 7514 L-24645 7450 L-24220 7450 L-24158 7386 L-23810 7386 L-23769 7323 L-23755 7259 L-23656 7131 L-23611 7131 L-23125 7068 L-22324 7068 L-21989 7068 L-20908 7004 L-20428 6940 L-20405 6876 L-20265 6813 L-19710 6749 L-19013 6685 L-18704 6622 L-18482 6558 L-18377 6494 L-18275 6367 L-17604 6303 L-17510 6239 L-17488 6239 L-17410 6175 L-17232 6175 L-17060 6175 L-16879 6112 L-16866 6048 L-16790 5984 L-16626 5920 L-16111 5857 L-16095 5793 L-15954 5793 L-15592 5729 L-15568 5729 L-15437 5666 L-15412 5602 L-15050 5538 L-14525 5411 L-14431 5347 L-14215 5219 L-14122 5156 L-14097 5092 L-13633 5028 L-13556 5028 L-13154 4964 L-12703 4964 L-11452 4901 L-11413 4837 L-10981 4773 L-10949 4710 L-10230 4646 L-10053 4582 L-9918 4518 L-9611 4455 L-9556 4391 L-9531 4263 L-9515 4136 L-9340 4072 L-9151 4008 L-8643 4008 L-8269 3499 L-7931 2925 L-7892 2415 L-7174 1969 L-7080 1905 L-7041 1841 L-6500 1841 L-6477 1778 L-6074 1714 L-5648 1650 L-5377 1650 L-5198 1586 L-4952 1459 L-4928 1395 L-4872 1268 L-4255 1204 L-3752 1140 L-3365 1140 L-2746 1204 L-2530 1204 L-2375 1268 L-1083 1140 L-984 1077 L-541 949 L-210 885 L90 758 L332 694 L1067 567 L1646 503 L2476 439 L2576 376 L3134 312 L3272 248 L4913 184 L4974 184 L5068 184 L6035 184 L6212 121 L6500 121" />
</svg>
