<svg xmlns="http://www.w3.org/2000/svg" version="1.1" viewBox="0 0 6500 1000">
	<path fill="none" stroke="gold" stroke-width="125" stroke-linecap="round" stroke-linejoin="round" d="M0 120750  L-1049823 120750 L-1049639 120709 L-1049148 120626 L-1048855 120585 L-1048544 120503 L-1048309 120462 L-1048256 120380 L-1048196 120297 L-1048043 120256 L-1048003 120174 L-1047870 120133 L-1047578 120092 L-1047037 120092 L-1046427 120051 L-1046379 120051 L-1045739 120009 L-1045705 120009 L-1045180 120009 L-1045047 119968 L-1044657 119886 L-1044329 119804 L-1044212 119721 L-1044000 119639 L-1043284 119639 L-1042714 119598 L-1042606 119598 L-1042432 119557 L-1042210 119475 L-1041809 119433 L-1041783 119351 L-1040855 119269 L-1040768 119187 L-1040686 119104 L-1040615 119022 L-1040318 118981 L-1040166 118899 L-1038276 118940 L-1038175 118940 L-1037913 118940 L-1037619 118981 L-1037478 118899 L-1037229 118899 L-1037193 118858 L-1037035 118816 L-1036572 118734 L-1036319 118693 L-1036106 118611 L-1035855 118570 L-1035506 118529 L-1034579 118446 L-1034485 118364 L-1034074 118323 L-1032903 118241 L-1031714 118199 L-1031622 118117 L-1031595 118035 L-1031329 117953 L-1031030 117870 L-1030901 117788 L-1030863 117706 L-1030049 117706 L-1029665 117747 L-1028604 117788 L-1028543 117788 L-1028278 118611 L-1027807 119392 L-1027614 120174 L-1027351 120955 L-1027014 120914 L-1026878 120873 L-1026423 120832 L-1025679 120791 L-1025662 120750 L-1025497 120668 L-1025429 120668 L-1024912 120626 L-1023884 120626 L-1023688 120585 L-1023199 120544 L-1022837 120503 L-1022428 120503 L-1022043 120544 L-1020339 120544 L-1020241 120544 L-1020169 120544 L-1020108 120544 L-1019924 120503 L-1019587 120503 L-1018947 120462 L-1018870 120421 L-1018808 120421 L-1018622 120380 L-1018542 120380 L-1018365 120338 L-1018346 120297 L-1018116 120297 L-1017728 120256 L-1016839 120256 L-1016800 120215 L-1016712 120174 L-1016685 120092 L-1015676 120051 L-1015527 119968 L-1015502 119927 L-1015370 119886 L-1015330 119845 L-1014072 119804 L-1014014 119804 L-1013474 119763 L-1013421 119763 L-1013375 119763 L-1012980 119721 L-1012840 119680 L-1012640 119639 L-1012494 119639 L-1012329 119639 L-1012052 119680 L-1011694 119680 L-1011141 119639 L-1010496 119598 L-1010237 119516 L-1010084 119475 L-1009683 119433 L-1009643 119392 L-1009522 119351 L-1009460 119392 L-1009446 119392 L-1009352 119392 L-1009059 119351 L-1008908 119187 L-1008577 119104 L-1008500 119022 L-1008424 118981 L-1008197 118858 L-1008131 118775 L-1007903 118693 L-1007851 118611 L-1007686 118570 L-1006680 118529 L-1006497 118487 L-1005946 118446 L-1005553 118364 L-1005155 118323 L-1004305 118241 L-1004227 118199 L-1003648 118158 L-1003207 118158 L-1002966 118117 L-1002808 118117 L-1002408 118035 L-1002387 118035 L-1001942 117994 L-1001537 117953 L-1001401 117870 L-1001226 117788 L-1001089 117706 L-1000839 117624 L-999839 117582 L-999757 117541 L-999622 117500 L-999583 117459 L-998693 117418 L-998477 117377 L-998034 117336 L-997917 117294 L-997860 117253 L-997184 117253 L-997083 117212 L-997054 117212 L-995713 117171 L-995307 117130 L-995267 117089 L-994339 117048 L-994241 117006 L-994108 116965 L-993704 116924 L-993678 116883 L-993585 116842 L-993368 116801 L-992957 116719 L-991804 116636 L-991512 116554 L-991483 116472 L-990875 116431 L-990625 116348 L-990605 116307 L-989676 116266 L-989625 116184 L-989502 116143 L-989485 116060 L-989329 116019 L-989154 115937 L-989017 115896 L-988961 115855 L-988853 115814 L-988767 115772 L-988534 115731 L-988459 115690 L-988151 115649 L-988033 115608 L-987863 115567 L-987772 115526 L-987669 115526 L-987646 115484 L-987569 115484 L-987471 115402 L-987104 115361 L-987000 115320 L-986496 115279 L-986044 115238 L-986006 115197 L-985982 115155 L-985941 115114 L-985813 115073 L-985712 115032 L-985270 114991 L-984988 114950 L-984396 114909 L-984265 114867 L-983991 114785 L-983838 114744 L-983685 114703 L-983600 114621 L-983522 114580 L-983336 114538 L-983285 114538 L-983258 114497 L-983178 114456 L-983155 114415 L-982872 114333 L-982268 114250 L-981273 114209 L-980975 114168 L-980241 114127 L-979996 114086 L-979906 114045 L-979329 114004 L-978631 113962 L-977878 113921 L-977560 113880 L-977177 113798 L-977100 113757 L-976466 113716 L-976280 113675 L-976192 113675 L-976063 113675 L-975750 113633 L-975701 113592 L-975558 113551 L-975537 113510 L-974569 113469 L-974024 113428 L-973545 113428 L-973484 113428 L-973161 113428 L-973139 113387 L-973077 113387 L-972867 113345 L-972790 113304 L-972735 113263 L-972713 113222 L-972674 113181 L-972658 113140 L-971901 113099 L-971884 113058 L-971085 113016 L-970932 112975 L-970027 112934 L-969521 112893 L-969291 112811 L-969250 112811 L-969135 112770 L-968959 112728 L-968204 112770 L-968069 112728 L-967905 112687 L-967587 112646 L-967411 112564 L-966389 112482 L-966366 112399 L-966114 112358 L-965901 112276 L-965267 112235 L-965030 112153 L-964997 112070 L-964819 111988 L-964739 111906 L-964649 111865 L-964584 111782 L-964144 111700 L-964121 111659 L-963580 111618 L-963324 111577 L-962829 111535 L-961952 111494 L-961915 111453 L-961863 111412 L-961821 111371 L-961704 111330 L-961428 111289 L-961221 111206 L-961023 111124 L-961000 111042 L-960950 110960 L-960911 110918 L-960833 110877 L-960235 110795 L-960175 110754 L-960072 110713 L-959918 110672 L-959286 110631 L-958605 110589 L-958302 110507 L-957955 110466 L-957758 110425 L-957710 110343 L-957389 110301 L-956762 110260 L-956615 110219 L-956579 110178 L-956521 110137 L-956444 110055 L-956203 110055 L-956114 110013 L-956020 109972 L-955727 109931 L-955592 109890 L-955532 109849 L-955495 109767 L-955223 109767 L-954217 109726 L-954041 109684 L-953991 109684 L-953698 109643 L-953506 109561 L-953172 109520 L-952666 109479 L-952104 109396 L-952089 109314 L-952072 109273 L-951972 109191 L-951857 109109 L-951818 109026 L-951781 108985 L-951715 108985 L-951687 108944 L-951548 108985 L-951255 108985 L-951205 108985 L-951100 108985 L-950835 108944 L-950370 108903 L-950226 108903 L-950171 108821 L-950114 108779 L-949923 108738 L-949558 108697 L-949344 108697 L-949149 108697 L-949091 108697 L-949032 108615 L-948878 108574 L-948609 108533 L-948179 108738 L-948163 108738 L-948086 108697 L-948022 108656 L-947892 108368 L-947869 108327 L-947585 108286 L-947537 108245 L-947483 108204 L-947020 108162 L-946981 108162 L-946941 108121 L-946750 108080 L-946270 108039 L-945783 107998 L-945767 107957 L-945728 107916 L-945472 107874 L-945395 107792 L-945165 107751 L-945149 107669 L-944854 107587 L-944412 107545 L-943965 107504 L-943461 107463 L-943307 107422 L-943020 107381 L-942980 107299 L-942649 107257 L-942427 107216 L-941910 107134 L-941834 107093 L-941586 107011 L-941392 106928 L-941332 106887 L-940556 106846 L-940482 106846 L-940251 106805 L-940234 106805 L-940173 106764 L-939977 106723 L-939513 106723 L-939489 106682 L-939360 106682 L-938059 106682 L-938042 106682 L-937965 106640 L-937872 106640 L-937654 106640 L-937502 106599 L-937324 106640 L-937270 106682 L-936983 106723 L-936943 106723 L-936574 106723 L-936133 106723 L-935950 106723 L-935629 106682 L-935334 106682 L-934888 106599 L-934816 106558 L-934354 106476 L-933916 106435 L-933734 106394 L-932280 106311 L-932148 106270 L-931691 106188 L-931465 106147 L-931078 106064 L-930562 105982 L-929608 105900 L-928814 105818 L-928139 105777 L-927714 105694 L-927402 105653 L-927173 105530 L-926489 105406 L-926476 105283 L-926266 105118 L-926244 105077 L-926070 104995 L-925120 104954 L-924852 104872 L-924037 104830 L-923726 104748 L-923688 104707 L-923631 104625 L-923014 104584 L-922376 104501 L-920750 104460 L-920077 104419 L-919435 104419 L-919357 104419 L-919301 104419 L-919265 104419 L-919236 104378 L-919125 104296 L-919107 104255 L-919084 104213 L-918931 104172 L-918877 104090 L-918799 104049 L-918680 104008 L-918582 103967 L-918465 103925 L-918195 103843 L-917926 103802 L-917908 103720 L-917708 103679 L-917561 103596 L-917335 103555 L-917201 103514 L-916892 103473 L-916832 103432 L-916479 103350 L-916130 103308 L-916029 103267 L-915965 103185 L-915905 103144 L-915521 103062 L-915140 103020 L-915035 102979 L-914775 102938 L-914504 102856 L-914345 102815 L-914312 102774 L-914250 102733 L-914109 102691 L-913925 102650 L-913881 102609 L-913593 102609 L-913576 102568 L-913343 102568 L-913282 102527 L-913244 102527 L-912664 102486 L-912530 102445 L-912507 102280 L-912489 101992 L-912471 101663 L-912455 101334 L-912431 101005 L-912415 100758 L-912394 100470 L-912377 100182 L-912354 100018 L-912337 99853 L-912315 99730 L-912299 99647 L-912250 99524 L-912177 99401 L-912143 99195 L-912119 99030 L-912083 98866 L-912042 98701 L-912005 98619 L-911989 98454 L-911965 98331 L-911928 98249 L-911911 98125 L-911888 98043 L-911870 97961 L-911852 97879 L-911836 97796 L-911806 97673 L-911780 97549 L-911735 97508 L-911719 97426 L-911677 97385 L-911629 97303 L-911558 97220 L-911543 97138 L-911527 97056 L-911464 97015 L-911425 96974 L-911386 96932 L-911220 96891 L-911155 96850 L-911139 96809 L-911095 96727 L-911036 96686 L-910824 96645 L-910790 96603 L-910748 96562 L-910670 96521 L-910132 96480 L-910054 96439 L-909950 96357 L-909861 96315 L-909685 96274 L-909334 96233 L-909179 96192 L-908741 96151 L-908584 96110 L-908454 96069 L-907750 95986 L-907549 95945 L-906589 95863 L-906106 95822 L-906007 95822 L-905915 95781 L-905670 95740 L-905597 95698 L-905154 95616 L-905058 95575 L-905043 95534 L-905027 95493 L-905002 95452 L-904536 95410 L-904319 95369 L-904179 95328 L-903886 95287 L-903797 95246 L-903756 95205 L-903726 95164 L-903553 95122 L-903494 95081 L-903418 95040 L-903338 94999 L-903268 94999 L-902959 94958 L-902873 94917 L-902660 94876 L-902625 94835 L-901941 94793 L-901842 94752 L-901637 94711 L-901591 94670 L-901312 94629 L-901250 94588 L-901233 94505 L-901155 94464 L-900847 94382 L-900823 94341 L-900769 94259 L-900746 94218 L-900624 94176 L-900488 94094 L-900244 94053 L-900118 94053 L-899471 94012 L-899455 94012 L-899430 94012 L-899250 93930 L-899174 93888 L-899082 93847 L-898655 93806 L-898238 93765 L-897845 93683 L-897767 93642 L-897748 93600 L-897385 93559 L-897148 93518 L-896920 93477 L-896607 93436 L-896529 93395 L-896448 93313 L-896270 93230 L-896255 93189 L-895989 93107 L-895909 93066 L-895679 93025 L-895453 92983 L-895137 92983 L-894962 92942 L-894601 92942 L-894209 92901 L-894140 92819 L-894076 92778 L-893936 92696 L-893884 92654 L-893782 92572 L-893280 92531 L-893083 92490 L-892836 92449 L-892651 92408 L-892351 92366 L-892275 92325 L-892109 92243 L-891225 92202 L-891196 92120 L-891073 92037 L-890494 91996 L-890417 91955 L-889703 91955 L-889391 91955 L-889178 91955 L-889161 91955 L-888775 91955 L-888250 91873 L-887804 91832 L-887474 91791 L-887321 91749 L-886995 91749 L-886817 91708 L-886736 91708 L-886529 91626 L-886354 91585 L-885425 91544 L-884536 91503 L-884496 91461 L-884268 91461 L-883889 91420 L-883102 91379 L-882867 91338 L-882791 91297 L-882434 91256 L-881862 91174 L-881595 91132 L-881209 91091 L-881105 91091 L-880935 91091 L-880317 91091 L-880105 91091 L-879798 91091 L-879745 91050 L-879617 91009 L-879564 90968 L-879445 90927 L-879108 90844 L-878149 90803 L-878018 90721 L-877816 90680 L-877185 90639 L-876874 90598 L-876460 90556 L-876432 90515 L-876287 90474 L-875867 90433 L-874534 90433 L-874487 90392 L-874359 90310 L-874342 90269 L-873764 90186 L-873558 90145 L-873529 90104 L-873488 90063 L-873430 90022 L-873393 89981 L-873315 89939 L-873172 89898 L-872717 89857 L-872599 89816 L-872314 89775 L-871941 89734 L-871845 89693 L-871518 89651 L-871164 89610 L-870994 89569 L-870946 89528 L-870837 89487 L-870748 89446 L-870721 89405 L-870644 89322 L-870341 89281 L-870307 89199 L-870235 89158 L-869867 89117 L-869532 89076 L-869451 89076 L-869231 89034 L-869060 88993 L-869032 88952 L-868535 88911 L-867986 88829 L-867105 88788 L-867007 88705 L-866930 88664 L-866655 88623 L-866408 88541 L-866334 88500 L-866273 88417 L-866154 88376 L-866111 88335 L-866001 88294 L-865924 88212 L-865224 88171 L-864978 88129 L-864939 88088 L-864782 88047 L-864183 88047 L-863956 88047 L-863864 88047 L-863389 88047 L-862791 87965 L-862272 87924 L-862251 87883 L-862105 87842 L-861785 87842 L-861244 87842 L-861011 87842 L-860841 87842 L-860355 87800 L-860127 87759 L-860042 87718 L-859696 87677 L-859370 87677 L-858847 87636 L-858519 87595 L-857919 87554 L-857721 87471 L-857669 87430 L-857629 87389 L-857348 87348 L-856663 87266 L-856353 87225 L-856328 87142 L-856137 87101 L-855914 87060 L-855828 87019 L-855165 86937 L-855140 86895 L-854918 86813 L-854588 86772 L-854236 86690 L-854032 86649 L-853799 86566 L-853541 86525 L-853352 86443 L-853305 86402 L-853077 86361 L-853043 86320 L-852886 86278 L-852672 86237 L-852499 86196 L-852408 86155 L-852130 86114 L-851886 86073 L-851571 86032 L-851145 86032 L-851108 86032 L-850624 86032 L-850391 86032 L-850179 85990 L-849953 85949 L-849403 85949 L-849156 85908 L-848322 85908 L-848266 85867 L-848244 85826 L-848086 85785 L-847625 85744 L-847584 85703 L-847244 85620 L-847111 85579 L-846888 85538 L-846316 85497 L-845844 85456 L-845650 85415 L-845457 85373 L-845267 85332 L-845165 85291 L-844797 85250 L-844751 85209 L-844669 85168 L-843376 85127 L-843328 85085 L-843059 85085 L-842914 85085 L-842363 85085 L-842247 85044 L-842165 85003 L-841805 84962 L-841582 84921 L-841301 84880 L-840971 84798 L-840464 84756 L-840351 84715 L-840272 84674 L-840108 84633 L-839813 84633 L-839345 84633 L-839148 84674 L-839098 84674 L-838448 84633 L-838326 84592 L-837872 84592 L-837836 84551 L-837368 84510 L-837257 84468 L-837241 84427 L-837025 84427 L-836844 84386 L-836312 84386 L-835283 84386 L-835083 84345 L-834625 84304 L-833677 84222 L-833578 84180 L-833224 84098 L-833163 84057 L-833149 84016 L-833114 83975 L-832744 83934 L-832624 83893 L-832382 83851 L-832218 83810 L-832031 83769 L-831910 83728 L-830840 83646 L-829981 83605 L-829769 83522 L-829672 83481 L-829498 83399 L-829165 83358 L-829093 83317 L-829035 83276 L-828860 83276 L-828471 83234 L-828236 83193 L-828124 83152 L-828007 83111 L-827026 83070 L-827001 83029 L-826407 82946 L-826374 82946 L-826226 82905 L-825941 82864 L-825029 82864 L-824083 82864 L-823930 82823 L-823828 82823 L-823696 82782 L-823553 82741 L-823527 82700 L-823412 82658 L-823194 82617 L-822513 82576 L-822383 82535 L-822080 82494 L-821840 82412 L-821507 82371 L-820869 82329 L-820526 82247 L-820465 82206 L-820309 82206 L-819387 82206 L-818917 82206 L-818873 82206 L-818861 82165 L-818819 82124 L-818797 82083 L-818770 82041 L-818626 82000 L-818204 81959 L-817868 81959 L-817677 81918 L-817249 81918 L-817061 81877 L-816672 81795 L-816138 81754 L-815765 81712 L-815744 81712 L-815494 81671 L-815375 81630 L-815299 81589 L-815164 81548 L-815124 81507 L-815045 81466 L-814650 81424 L-814154 81383 L-814042 81301 L-813869 81260 L-813561 81219 L-813114 81178 L-812791 81136 L-812648 81054 L-812221 80972 L-812068 80890 L-812012 80807 L-811199 80766 L-811179 80725 L-810807 80684 L-810750 80684 L-809621 80643 L-809553 80643 L-808995 80602 L-808800 80561 L-808664 80519 L-808431 80478 L-808084 80437 L-808049 80355 L-808014 80314 L-807945 80232 L-807596 80190 L-807424 80149 L-806940 80108 L-806923 80067 L-806598 80026 L-806441 79985 L-805300 79902 L-805275 79861 L-805083 79779 L-804890 79738 L-804639 79697 L-804622 79656 L-803602 79614 L-803304 79573 L-803229 79532 L-803093 79450 L-802917 79409 L-802340 79327 L-802125 79285 L-802061 79244 L-801930 79203 L-801893 79121 L-801370 79080 L-801232 95287 L-801218 95287 L-801195 95287 L-801175 95287 L-800947 79039 L-800172 79039 L-800130 79039 L-799762 79039 L-799684 78997 L-799632 78956 L-798959 78915 L-798216 78874 L-797792 78874 L-797344 78833 L-796282 78792 L-795971 78709 L-795561 78709 L-795488 78668 L-794964 78668 L-794870 78668 L-794852 78668 L-794407 78627 L-794222 78545 L-793441 78463 L-792769 78422 L-792357 78298 L-792125 78216 L-791984 78175 L-791903 78092 L-791883 78051 L-791807 78051 L-791678 78010 L-791361 78051 L-791137 78051 L-790812 78010 L-790750 78010 L-790380 78010 L-790347 78010 L-790138 78010 L-789471 78010 L-789393 78010 L-789235 77928 L-789125 77928 L-788798 77887 L-788643 77846 L-788302 77846 L-788245 77763 L-787907 77681 L-787704 77640 L-787651 77558 L-786274 77517 L-786145 77475 L-785711 77434 L-785391 77393 L-784563 77311 L-784440 77270 L-783709 77187 L-783553 77105 L-783512 77064 L-783458 77023 L-783435 76982 L-783321 76941 L-783025 76900 L-782735 76858 L-782680 76817 L-782560 76776 L-782530 76735 L-782430 76694 L-781986 76694 L-781834 76653 L-780999 76653 L-780457 76612 L-780122 76612 L-780107 76570 L-780031 76529 L-779915 76488 L-779720 76447 L-779456 76406 L-778621 76365 L-778525 76324 L-778004 76283 L-777962 76241 L-777863 76200 L-777034 76200 L-776899 76159 L-776561 76159 L-776007 76118 L-775627 76077 L-775464 76036 L-775154 75995 L-774341 75953 L-774035 75912 L-773767 75912 L-773445 75912 L-773124 75953 L-772849 75953 L-772020 75871 L-771925 75830 L-771833 75707 L-771728 75583 L-771341 75460 L-770861 75378 L-770845 75336 L-770726 75295 L-770358 75213 L-770263 75172 L-769430 75090 L-769353 75048 L-769053 75007 L-768962 74966 L-768555 74884 L-768445 74802 L-767746 74761 L-767273 74719 L-767212 74678 L-766994 74596 L-766720 74555 L-766607 74514 L-765580 74473 L-765193 74431 L-765173 74390 L-764840 74349 L-764595 74308 L-764162 74267 L-764052 74226 L-763934 74185 L-763483 74102 L-762892 74061 L-762556 74020 L-760663 73979 L-760549 73897 L-760337 73856 L-759019 73814 L-758913 64559 L-758847 55427 L-758810 46994 L-758749 46994 L-758249 56167 L-757574 65217 L-757552 73568 L-757282 73485 L-756314 73485 L-755624 73444 L-755462 73403 L-754922 73362 L-754832 73321 L-753813 73280 L-752865 73197 L-752499 73238 L-752396 73280 L-751808 73280 L-751749 73280 L-751648 73238 L-751208 73156 L-751100 73115 L-750659 73074 L-749659 72951 L-749403 72827 L-749300 72704 L-749170 72621 L-748803 72539 L-748222 72457 L-748191 72416 L-747876 72375 L-745893 72334 L-745777 72292 L-745709 72292 L-745351 72251 L-743732 72210 L-743554 72210 L-743410 72210 L-742588 72251 L-742535 72292 L-742480 72292 L-742046 72292 L-741066 72334 L-740992 72334 L-739907 72292 L-739694 72292 L-738978 72210 L-738590 72169 L-738371 72087 L-738051 72004 L-737558 71922 L-737430 71881 L-737201 71799 L-736969 71716 L-736909 71675 L-736620 71634 L-736348 71552 L-735318 71511 L-733653 71470 L-733234 71429 L-733097 71387 L-732940 71387 L-732635 71346 L-732407 71264 L-732249 71223 L-732089 71141 L-731920 71058 L-731873 71017 L-731819 70976 L-731798 70976 L-731412 70935 L-731162 70935 L-730891 70935 L-730731 70935 L-730641 70935 L-728982 70935 L-728817 70976 L-728437 70935 L-727977 70935 L-727367 70853 L-726274 70812 L-725843 70770 L-725812 70729 L-725749 70688 L-725732 70647 L-724028 70606 L-723986 70565 L-723520 70524 L-723333 70482 L-723301 70400 L-722706 70359 L-722656 70318 L-722333 70277 L-722282 70236 L-722072 70194 L-722054 70153 L-721788 70071 L-721735 70030 L-721266 69989 L-720756 69907 L-720677 69907 L-720383 69865 L-720366 69824 L-720328 69783 L-720257 69742 L-720099 69701 L-719153 69701 L-719097 69701 L-718576 69701 L-718384 69660 L-718283 69660 L-718057 69619 L-717547 69619 L-717159 70729 L-717089 70729 L-716741 70688 L-716384 70647 L-715255 69454 L-715204 69372 L-714978 69331 L-714944 69290 L-714819 69207 L-714720 69207 L-714455 69207 L-713715 69248 L-713137 69248 L-712843 69248 L-712137 69248 L-711958 69207 L-711935 69207 L-711299 69166 L-710988 69125 L-710591 69125 L-710562 69084 L-710541 69043 L-710387 69002 L-709702 69002 L-709686 69002 L-709346 69002 L-709073 68960 L-709036 68919 L-708980 68837 L-708958 68796 L-708886 68755 L-708554 68714 L-708448 68672 L-708419 68590 L-708221 68549 L-708068 68508 L-707200 68467 L-706637 68385 L-706622 68385 L-706520 68343 L-706418 68385 L-706272 68385 L-706193 68385 L-706156 68343 L-706100 68302 L-706027 68261 L-705882 68220 L-705400 68220 L-704996 68179 L-704129 68220 L-704109 68220 L-703852 68220 L-703775 68220 L-703746 68179 L-703735 68097 L-703718 68055 L-703425 68014 L-703386 67973 L-703314 67932 L-703240 67891 L-703035 67850 L-702875 67726 L-702574 67603 L-702497 67438 L-702479 67315 L-702263 67233 L-702032 67233 L-701922 67274 L-701552 67315 L-701394 67315 L-701162 67315 L-700994 67315 L-700849 67274 L-700717 67233 L-699441 67150 L-699038 67068 L-698977 67027 L-698860 66945 L-698435 66904 L-698419 66821 L-698358 66780 L-698084 66698 L-697972 66657 L-697689 66575 L-697412 66533 L-696987 66451 L-696965 66410 L-696887 66369 L-696761 66328 L-696175 66287 L-695783 66245 L-695448 66204 L-694858 66163 L-694756 66163 L-694586 66122 L-694450 66122 L-693622 66081 L-692437 66040 L-692401 65999 L-692345 65999 L-692125 65958 L-691919 65958 L-691765 65958 L-691508 65916 L-691432 65875 L-690889 65834 L-690853 65793 L-690604 65752 L-690216 65711 L-689391 65670 L-689032 65628 L-688722 65628 L-688464 65587 L-688240 65546 L-687834 65505 L-687718 65464 L-687534 65423 L-687481 65423 L-687293 65382 L-687122 65341 L-687093 65299 L-686813 65258 L-686502 65217 L-686364 65176 L-686054 65135 L-685860 65135 L-685845 65094 L-685126 65094 L-684992 65011 L-684694 64970 L-684604 64929 L-684003 64929 L-683965 64888 L-683887 64847 L-683266 64806 L-683115 64723 L-683074 64682 L-682763 64641 L-682572 64600 L-682379 64518 L-682323 64436 L-682014 64394 L-681962 64353 L-681908 64394 L-681882 64394 L-681757 64394 L-680946 64353 L-680870 64312 L-680329 64271 L-680061 64230 L-679401 64189 L-678493 64148 L-678252 64106 L-677720 64065 L-677503 64024 L-676395 64065 L-676345 64065 L-675569 64065 L-675022 64024 L-674911 63983 L-674758 63901 L-674702 63860 L-674537 63819 L-674160 63777 L-673712 63736 L-673658 63695 L-673503 63654 L-672823 63613 L-672603 63572 L-672085 63531 L-671236 63448 L-671220 63407 L-669429 63366 L-668875 63325 L-668758 63284 L-667752 63243 L-667715 63201 L-667483 63201 L-667390 63201 L-667350 63201 L-667018 63160 L-666666 63119 L-666401 63037 L-666114 62996 L-665804 62914 L-665549 62831 L-665456 62790 L-664966 62749 L-664758 62708 L-664193 62667 L-664078 62708 L-663727 62667 L-663676 62667 L-663636 62667 L-663032 62584 L-662298 62502 L-661717 62420 L-661482 62338 L-660941 62214 L-660789 62132 L-660287 62091 L-660078 62009 L-660054 62009 L-659996 61967 L-659033 61967 L-658855 61926 L-658414 61885 L-658389 61803 L-658234 61762 L-658152 61762 L-658002 61803 L-657355 61803 L-657306 61762 L-656186 61721 L-655202 61679 L-655140 61638 L-654419 61597 L-653555 61556 L-653176 61515 L-652957 61515 L-652197 61474 L-652145 61433 L-651836 61350 L-650985 61350 L-650792 61309 L-650615 61268 L-650391 61268 L-650264 61227 L-650072 61227 L-649839 61186 L-649670 61227 L-649383 61186 L-649104 61186 L-649021 61145 L-648850 61104 L-648834 61021 L-648680 60980 L-648641 60939 L-647865 60898 L-647789 60898 L-647556 60816 L-647129 60774 L-646784 60733 L-646201 60692 L-645932 60692 L-645673 60692 L-645544 60610 L-645527 60569 L-645414 60528 L-645390 60487 L-645156 60445 L-645120 60404 L-643804 60404 L-643748 60363 L-643069 60281 L-642497 60281 L-642371 60281 L-642218 60281 L-642141 60281 L-641829 60199 L-641556 60157 L-641467 60075 L-641365 60075 L-640437 60034 L-640361 60034 L-639997 60034 L-639972 59993 L-639936 59952 L-639161 59870 L-639069 59828 L-638929 59787 L-638527 59746 L-638265 59746 L-638022 59787 L-637808 59746 L-637727 59746 L-637651 59746 L-637574 59746 L-637388 59787 L-637321 59787 L-637071 59787 L-637016 59746 L-636879 59705 L-636799 59623 L-636686 59582 L-636463 59540 L-636298 59499 L-636257 59458 L-636088 59417 L-635717 59376 L-635702 59335 L-635586 59294 L-634865 59252 L-634829 59211 L-634696 59211 L-634349 59170 L-633937 59170 L-633901 59170 L-633823 59129 L-633784 59088 L-633420 59047 L-633216 59006 L-633201 58965 L-632855 58923 L-632507 58923 L-632181 58923 L-632079 58882 L-631926 58882 L-631732 58841 L-631500 58841 L-631408 58841 L-631252 58841 L-631175 58841 L-631134 58800 L-631021 58759 L-630997 58718 L-630747 58718 L-630608 58635 L-630030 58512 L-629202 58430 L-628714 58348 L-628593 58306 L-628554 58265 L-628542 58224 L-628389 58142 L-628289 58060 L-628055 58018 L-627665 57936 L-627361 57895 L-627345 57854 L-627174 57813 L-626936 57730 L-626340 57730 L-625736 57689 L-625696 57689 L-625656 57689 L-625503 57648 L-625449 57607 L-625387 57566 L-625319 57525 L-625264 57443 L-625239 57401 L-625192 57360 L-625098 57278 L-624960 57237 L-624807 57196 L-624675 57155 L-624634 57155 L-624598 57113 L-624537 57072 L-624263 56990 L-623949 56949 L-623908 56867 L-623823 56825 L-623645 56784 L-623408 56743 L-623050 56702 L-623021 56661 L-622451 56620 L-622329 56579 L-622092 56538 L-622070 56538 L-621788 56496 L-621503 56496 L-621247 56496 L-620676 56455 L-620379 56414 L-620303 56373 L-619604 56332 L-619526 56291 L-619491 56250 L-619465 56208 L-619413 56126 L-619219 56085 L-619079 56003 L-619043 55962 L-619003 55921 L-618408 55879 L-618175 55838 L-617892 56126 L-617837 56373 L-617763 56661 L-617685 56908 L-617449 56825 L-617205 56784 L-617070 56743 L-616963 56702 L-616884 56661 L-616496 56579 L-616370 56538 L-616217 56496 L-616179 56455 L-616033 56414 L-615812 56373 L-615638 56332 L-615569 56291 L-614747 56208 L-614731 56208 L-614437 56167 L-613649 56126 L-613339 56126 L-613193 56085 L-612965 56044 L-612764 55962 L-611827 55921 L-611790 55879 L-611768 55838 L-611727 55756 L-611458 55715 L-610862 55674 L-610798 55633 L-610763 55591 L-610746 55550 L-610050 55550 L-609849 55550 L-609817 55550 L-609484 55550 L-609376 55509 L-608751 55427 L-608247 55386 L-608210 55303 L-607768 55303 L-607672 55262 L-607513 55262 L-607200 55262 L-607187 55262 L-606747 55303 L-606265 55345 L-606136 55345 L-605816 55345 L-605748 55303 L-605443 55303 L-605268 55262 L-605074 55221 L-604831 55139 L-604634 55057 L-604608 54974 L-604030 54933 L-603960 54892 L-603550 54851 L-603496 54810 L-603450 54769 L-603086 54728 L-602939 54686 L-602734 54645 L-602638 54645 L-602483 54604 L-602421 54563 L-602274 54481 L-602173 54440 L-601616 54440 L-601594 54522 L-601422 54563 L-600880 54604 L-600819 54604 L-600765 54522 L-600737 54440 L-600665 54399 L-600649 54316 L-600585 54275 L-600549 54193 L-600394 54152 L-600069 54111 L-599503 54069 L-599488 54028 L-599426 53946 L-599325 53864 L-599278 53864 L-599036 53823 L-598613 53823 L-598459 53823 L-596717 53740 L-596175 53699 L-595232 53658 L-594823 53617 L-594282 53535 L-594085 53494 L-593917 53452 L-593621 53411 L-593506 53370 L-593491 53370 L-593336 53329 L-593196 53288 L-593120 53206 L-592988 53206 L-592640 53206 L-592269 53247 L-591671 53247 L-591496 53247 L-591339 53206 L-591070 53164 L-590919 53164 L-590628 53288 L-590604 53370 L-590521 53452 L-590294 53535 L-589594 53494 L-589467 53452 L-589036 53411 L-588942 53370 L-587737 53370 L-587688 53329 L-587395 53329 L-586991 53288 L-586715 53206 L-586696 53164 L-586578 53123 L-586502 53082 L-586320 53041 L-585840 53000 L-585389 52918 L-584979 52877 L-584949 52835 L-584530 52794 L-584416 52794 L-584298 52794 L-584283 52794 L-584088 52753 L-584067 52671 L-583835 52630 L-583391 52589 L-583072 52506 L-582607 52506 L-582442 52465 L-582287 52424 L-582131 52424 L-581678 52424 L-581359 52424 L-581304 52465 L-580933 52465 L-580895 52506 L-580569 52506 L-580452 52465 L-580353 52424 L-580027 52342 L-579640 52301 L-579379 52259 L-579021 52177 L-578764 52136 L-576594 52095 L-576545 52054 L-576522 52013 L-576111 52013 L-576049 52013 L-575979 52054 L-575748 52054 L-575438 52013 L-575134 51930 L-575090 51889 L-574782 51848 L-574649 51807 L-574432 51766 L-573720 51725 L-573565 51725 L-573427 51684 L-573278 51684 L-573257 51684 L-573063 51642 L-573037 51601 L-572946 51560 L-572924 51519 L-572908 51478 L-572808 51437 L-571879 51396 L-571421 51396 L-570329 51313 L-569907 51313 L-569503 51272 L-569464 51231 L-569211 51190 L-568436 51108 L-568420 51067 L-568396 51025 L-568203 50984 L-567466 50943 L-567197 50902 L-567156 50861 L-566757 50779 L-566733 50737 L-565943 50696 L-565263 50655 L-563892 50614 L-563622 50573 L-563574 50532 L-563036 50450 L-563003 50408 L-562901 50326 L-562578 50285 L-562498 50244 L-562229 50244 L-561317 50203 L-561178 50203 L-560929 50120 L-560384 50120 L-559962 50079 L-559768 50038 L-559753 50038 L-559615 49956 L-559521 49915 L-559394 49874 L-559134 49832 L-559109 49750 L-559018 49709 L-558708 49668 L-558647 49627 L-558531 49627 L-558181 49627 L-557370 49627 L-557139 49545 L-556310 49545 L-556078 49462 L-555861 49421 L-555343 49421 L-554705 49380 L-554288 49339 L-553966 49298 L-553485 49257 L-553060 49257 L-552998 49215 L-552650 49215 L-552609 49174 L-552595 49133 L-552496 49051 L-552451 49051 L-551965 49010 L-551164 49010 L-550829 49010 L-549748 48969 L-549268 48928 L-549245 48886 L-549105 48845 L-548550 48804 L-547853 48763 L-547544 48722 L-547322 48681 L-547217 48640 L-547115 48557 L-546444 48516 L-546350 48475 L-546328 48475 L-546250 48434 L-546072 48434 L-545900 48434 L-545719 48393 L-545706 48352 L-545630 48310 L-545466 48269 L-544951 48228 L-544935 48187 L-544794 48187 L-544432 48146 L-544408 48146 L-544277 48105 L-544252 48064 L-543890 48023 L-543365 47940 L-543271 47899 L-543055 47817 L-542962 47776 L-542937 47735 L-542473 47693 L-542396 47693 L-541994 47652 L-541543 47652 L-540292 47611 L-540253 47570 L-539821 47529 L-539789 47488 L-539070 47447 L-538893 47406 L-538758 47364 L-538451 47323 L-538396 47282 L-538371 47200 L-538355 47118 L-538180 47076 L-537991 47035 L-537483 47035 L-537109 46706 L-536771 46336 L-536732 46007 L-536014 45719 L-535920 45678 L-535881 45637 L-535340 45637 L-535317 45596 L-534914 45554 L-534488 45513 L-534217 45513 L-534038 45472 L-533792 45390 L-533768 45349 L-533712 45266 L-533095 45225 L-532592 45184 L-532205 45184 L-531586 45225 L-531370 45225 L-531215 45266 L-529923 45184 L-529824 45143 L-529381 45061 L-529050 45020 L-528749 44937 L-528507 44896 L-527772 44814 L-527193 44773 L-526363 44732 L-526263 44691 L-525705 44649 L-525567 44608 L-523926 44567 L-523865 44567 L-523771 44567 L-522804 44567 L-522627 44526 L-522340 44526 L-522122 44526 L-522044 44485 L-521772 44485 L-521657 44444 L-521504 44403 L-521193 44361 L-521115 44320 L-521024 44320 L-520947 44279 L-520831 44279 L-520652 44238 L-520560 44197 L-520521 44156 L-520018 44156 L-519800 44115 L-519670 44115 L-519515 44074 L-519460 44032 L-519336 44032 L-518951 43991 L-518443 43950 L-518370 43909 L-517890 43868 L-517813 43827 L-517713 43827 L-517479 43786 L-517015 43786 L-516784 43786 L-516768 43786 L-516536 43786 L-516381 43786 L-516320 43786 L-516127 43744 L-515856 43662 L-515104 43621 L-514151 43621 L-514115 43580 L-513890 43580 L-513450 43580 L-513170 43498 L-512821 43457 L-511752 43415 L-510824 43415 L-510694 43415 L-510647 43415 L-510578 43374 L-510423 43374 L-510345 43292 L-510172 43210 L-509737 43127 L-509533 43086 L-509473 43004 L-508890 42963 L-508736 42881 L-508621 42839 L-508580 42798 L-508410 42757 L-508274 42716 L-508063 42634 L-507985 42593 L-507962 42552 L-507753 42469 L-507343 42428 L-507319 42387 L-507096 42346 L-506950 42305 L-506915 42264 L-506902 42222 L-506880 42181 L-506646 42140 L-506461 42099 L-506243 42058 L-506218 42017 L-505529 41976 L-505425 41935 L-505390 41893 L-505369 41852 L-505175 41811 L-505122 41770 L-505005 41688 L-504924 41688 L-504813 41647 L-504498 41605 L-504039 41564 L-503784 41523 L-503549 41441 L-503419 41400 L-503067 41359 L-503008 41317 L-502855 41276 L-502283 41194 L-502196 41153 L-502043 41071 L-501747 40988 L-501377 40906 L-501074 40824 L-500998 40783 L-500593 40742 L-500425 40742 L-500281 40742 L-499741 40742 L-499680 40742 L-499664 40659 L-499498 40618 L-499292 40577 L-499217 40577 L-499124 40536 L-498715 40495 L-498699 40454 L-498676 40454 L-498483 40412 L-498406 40783 L-498235 41153 L-498173 41482 L-498157 41852 L-497643 41811 L-497422 41770 L-496803 41688 L-496549 41647 L-496355 41605 L-496316 41564 L-496242 41564 L-496177 41564 L-495527 41564 L-495488 41605 L-495314 41605 L-495248 41605 L-494574 41605 L-494185 41523 L-493923 41482 L-493686 41441 L-493608 41359 L-493592 41276 L-493390 41235 L-493019 41153 L-492794 41112 L-492158 41071 L-492138 41071 L-491751 41030 L-491657 41030 L-491599 40988 L-491323 40947 L-491014 40947 L-490937 40906 L-490085 40947 L-489743 41153 L-489306 41400 L-488872 41605 L-488377 41811 L-488227 41770 L-487959 41811 L-486721 41852 L-486664 41935 L-484900 41976 L-484710 41935 L-483700 41893 L-483549 41852 L-483173 41935 L-482853 42017 L-482247 42099 L-482178 42181 L-482000 42140 L-481172 42099 L-481033 42058 L-480646 42017 L-480462 41976 L-480418 41935 L-480299 41893 L-480089 41852 L-479641 41770 L-479293 41729 L-479161 41688 L-478752 41647 L-478401 41647 L-478116 41605 L-477923 41564 L-477768 41564 L-477604 41523 L-477536 41482 L-477436 41482 L-477203 41441 L-477086 41441 L-477033 41400 L-476491 41400 L-476027 41359 L-474845 41359 L-474712 41359 L-474687 41359 L-474634 41359 L-473967 41359 L-472932 41276 L-472738 41235 L-472558 41194 L-472407 41194 L-472366 41153 L-472351 41153 L-472290 41112 L-471965 41071 L-470804 41030 L-470610 40988 L-470433 40947 L-469319 40906 L-468459 40865 L-468353 40865 L-467880 40824 L-467687 40824 L-465365 40783 L-465288 40742 L-465166 40659 L-465132 40618 L-465095 40536 L-465000 40412 L-464785 40330 L-464203 40248 L-463817 40207 L-463044 40166 L-462966 40125 L-462269 40125 L-461727 40125 L-461687 40083 L-461556 40083 L-461092 40042 L-461054 40001 L-460919 39960 L-460551 39919 L-460521 39878 L-460371 39878 L-459970 39837 L-458146 39878 L-457340 39837 L-456621 39837 L-456604 39837 L-456291 39754 L-455729 39713 L-455228 39672 L-454709 39631 L-454687 39590 L-452943 39549 L-452774 39508 L-452579 39466 L-451685 39425 L-451166 39343 L-450956 39302 L-450698 39261 L-449988 39220 L-449038 39178 L-448380 39137 L-448341 39055 L-448054 39014 L-447972 38973 L-447876 38973 L-447744 38932 L-447667 38932 L-446932 38932 L-446595 38890 L-446545 38932 L-446290 38932 L-446003 38890 L-445578 38890 L-444997 38849 L-444738 38849 L-444587 38808 L-444340 38808 L-444301 38808 L-443504 38767 L-443466 38726 L-443289 38726 L-442880 38644 L-442651 38644 L-442575 38644 L-442444 38644 L-442328 38603 L-441979 38561 L-441916 38520 L-441764 38479 L-441023 38438 L-440912 38397 L-440741 38356 L-440702 38315 L-440408 38315 L-440006 38315 L-439830 38315 L-439735 38315 L-439426 38273 L-438625 38232 L-438166 38150 L-437646 38109 L-437157 38068 L-436462 38027 L-435416 37986 L-435147 37986 L-435092 37944 L-434932 37944 L-434681 37944 L-434435 37903 L-434356 37862 L-434141 37780 L-433829 37739 L-433366 37656 L-433351 37615 L-433055 37615 L-433042 37574 L-432051 37533 L-431378 37492 L-431043 37410 L-430427 37410 L-430290 37368 L-429651 37327 L-429521 37286 L-428570 37204 L-428471 37122 L-427911 37081 L-427503 37081 L-427074 37081 L-426983 37039 L-426148 37039 L-425785 37039 L-425746 37081 L-425613 37122 L-425436 37122 L-425220 37122 L-425166 37081 L-425009 36998 L-424756 36957 L-423656 36916 L-423579 36875 L-423359 36834 L-423228 36751 L-423192 36710 L-422999 36669 L-422899 36628 L-422415 36587 L-422131 36546 L-421971 36505 L-421876 36422 L-421605 36381 L-421335 36340 L-421319 36176 L-421180 36052 L-421042 35929 L-420715 35764 L-420406 35682 L-420365 35641 L-420290 35559 L-420174 35517 L-419324 35435 L-418997 35394 L-418666 35353 L-418533 35353 L-418317 35353 L-418301 35353 L-417620 35353 L-417527 35271 L-417504 35229 L-417488 35147 L-417449 35106 L-417038 35024 L-416768 34983 L-416728 34941 L-416360 34941 L-416150 34900 L-415067 34900 L-415051 34859 L-415022 34818 L-415002 34818 L-414625 34736 L-414370 34695 L-414122 34612 L-413983 34530 L-413851 34489 L-413519 34448 L-413426 34407 L-413365 34366 L-412807 34324 L-412746 34283 L-412590 34242 L-412396 34201 L-412203 34160 L-412188 34119 L-412149 34078 L-412110 34037 L-411840 33995 L-411716 33954 L-411684 33913 L-411585 33913 L-411429 33913 L-411288 33913 L-411004 33872 L-410678 33872 L-409982 33831 L-409960 33831 L-409450 33831 L-408604 33831 L-408241 33790 L-408086 33749 L-407483 33749 L-407313 33749 L-407252 33749 L-407197 33707 L-406141 33666 L-406123 33666 L-405217 33666 L-405196 33666 L-405029 33625 L-404786 33625 L-404736 33584 L-404681 33502 L-404544 33461 L-404504 33419 L-403576 33378 L-403521 33378 L-403399 33378 L-403327 33378 L-403212 33378 L-403033 33419 L-402051 33378 L-401911 33378 L-401794 33296 L-401499 33214 L-401252 33173 L-401215 33132 L-401160 33173 L-401139 33173 L-401006 33173 L-400927 33173 L-400789 33132 L-400166 33132 L-400000 33090 L-399535 33090 L-399359 33008 L-399343 32967 L-399282 32926 L-399166 32885 L-398683 32844 L-397988 32802 L-397615 32761 L-397445 32720 L-396479 32679 L-396324 32638 L-396147 32638 L-396054 32597 L-395799 32597 L-395628 32597 L-394981 32556 L-394970 32556 L-394390 32515 L-394252 32515 L-394197 32432 L-393461 32391 L-393423 32350 L-393345 32350 L-392703 32309 L-391929 32309 L-391836 32268 L-391788 32268 L-391772 32227 L-391736 32227 L-391720 32144 L-391657 32103 L-391641 32062 L-391621 32062 L-391466 32021 L-391427 31980 L-391411 31939 L-391372 31897 L-391232 31856 L-391156 31815 L-390792 31774 L-390444 31733 L-389670 31692 L-389068 31651 L-388871 31610 L-388641 31610 L-388504 31568 L-387866 31568 L-387576 31527 L-387555 31527 L-387094 31486 L-386861 31486 L-386807 31445 L-386768 31404 L-386265 31363 L-385715 31322 L-384927 31280 L-383804 31280 L-382910 31239 L-382822 31239 L-382522 31198 L-382451 31157 L-382335 31116 L-381158 31075 L-380810 31034 L-380787 30993 L-380268 30951 L-380121 30910 L-380013 30869 L-379804 30828 L-379649 30787 L-379627 30746 L-379433 30705 L-379356 30663 L-379212 30622 L-378411 30581 L-378265 30540 L-377985 30499 L-377808 30458 L-377498 30417 L-376687 30375 L-375758 30375 L-374166 30334 L-373923 30293 L-373282 30252 L-373086 30211 L-373009 30170 L-372491 30129 L-372259 30129 L-372236 30088 L-372104 30088 L-371765 30046 L-371754 30005 L-371538 29964 L-371501 29923 L-370959 29882 L-370430 29800 L-370363 29758 L-370070 29717 L-369522 29635 L-369487 29594 L-369434 29553 L-369335 29470 L-369102 29470 L-368522 29470 L-368424 29512 L-368350 29512 L-368018 29470 L-367268 29429 L-367229 29388 L-366549 29388 L-366395 29388 L-366068 29347 L-365853 29306 L-365621 29306 L-365325 29265 L-365078 29224 L-364727 29183 L-364674 29141 L-363915 29100 L-363221 29018 L-362871 28936 L-362407 28895 L-361774 28853 L-361365 28812 L-361287 28853 L-360861 28853 L-360219 28812 L-360049 28812 L-359307 28771 L-359120 28730 L-358825 28689 L-358253 28648 L-358228 28607 L-357208 28607 L-356721 28566 L-356628 28566 L-356567 28524 L-356279 28483 L-355993 28442 L-355931 28401 L-355752 28401 L-355041 28360 L-354865 28319 L-354666 28278 L-354515 28236 L-354423 28195 L-354361 28154 L-353819 28154 L-353509 28113 L-353417 28031 L-353340 27948 L-352772 27907 L-352681 27907 L-352427 27825 L-352100 27743 L-352063 27619 L-351908 27496 L-351676 27455 L-351354 27414 L-350221 27373 L-350022 27331 L-349496 27290 L-349252 27290 L-349006 27249 L-348926 27208 L-348906 27126 L-348829 27085 L-348774 27002 L-348697 26961 L-348658 26920 L-348479 26838 L-348442 26797 L-348210 26756 L-346973 26714 L-346646 26673 L-346606 26591 L-345825 26550 L-345678 26509 L-344686 26468 L-344479 26468 L-344054 26468 L-343926 26468 L-343522 26509 L-343434 26468 L-342777 26426 L-342070 26385 L-341461 26344 L-341268 26303 L-341035 26221 L-340417 26180 L-340121 26097 L-339681 26056 L-339527 26015 L-339372 25974 L-338616 25892 L-338266 25851 L-337863 25851 L-337825 25809 L-336819 25809 L-336499 25809 L-336252 25768 L-335552 25686 L-335479 25645 L-335166 25604 L-334086 25563 L-333895 25522 L-333661 25522 L-333466 25480 L-332966 25439 L-332212 25439 L-332099 25439 L-331898 25439 L-331857 25398 L-331764 25357 L-331451 25316 L-331363 25275 L-331247 25234 L-330929 25234 L-330860 25192 L-330835 25151 L-330473 25110 L-330435 25069 L-330218 25028 L-329715 25069 L-329113 25110 L-328901 25192 L-328748 25234 L-328710 25234 L-328666 25151 L-328632 25110 L-328499 25069 L-328090 25028 L-327719 24987 L-327665 24946 L-327649 24904 L-327570 24863 L-327161 24822 L-327007 24781 L-326991 24699 L-326952 24658 L-326773 24575 L-326697 24534 L-326466 24493 L-325676 24452 L-325598 24452 L-324863 24370 L-324708 24329 L-324468 24246 L-324406 24164 L-324321 24123 L-324298 24041 L-324180 23958 L-324166 23876 L-324104 23794 L-324067 23753 L-323973 23712 L-323951 23712 L-323834 23670 L-323602 23629 L-323431 23547 L-322612 23547 L-322210 23506 L-322055 23506 L-321550 23506 L-321436 23506 L-320840 23506 L-320465 23465 L-320414 23465 L-320220 23424 L-319523 23424 L-319485 23382 L-319340 23382 L-319115 23341 L-318853 23300 L-318479 23259 L-318054 23218 L-317924 23177 L-317904 23095 L-317411 23095 L-316715 23053 L-316483 23095 L-316329 23095 L-315361 23095 L-315136 23136 L-314858 23136 L-314842 23095 L-314316 23053 L-313787 23012 L-313639 22971 L-313620 22930 L-313078 22889 L-312768 22848 L-312651 22765 L-312459 22683 L-312323 22601 L-311995 22560 L-311879 22519 L-311569 22519 L-311143 22477 L-311087 22477 L-310855 22519 L-310758 22519 L-310625 22519 L-310329 22519 L-310215 22477 L-309850 22436 L-309538 22436 L-309055 22395 L-308884 22354 L-308636 22313 L-308420 22272 L-307894 22231 L-307708 22148 L-307352 22107 L-306717 22066 L-306563 21984 L-305822 21943 L-305402 21902 L-305222 21860 L-305146 21860 L-305015 21819 L-304721 21778 L-304680 21737 L-304450 21737 L-304258 21696 L-304003 21696 L-303576 21655 L-303467 21614 L-302849 21614 L-302667 21614 L-301455 21614 L-300808 21655 L-300658 21655 L-300620 21655 L-300488 21655 L-300387 21614 L-300371 21573 L-300289 21531 L-300078 21490 L-299961 21449 L-299599 21408 L-299227 21367 L-298530 21326 L-298128 21285 L-298023 21243 L-298005 21202 L-297060 21161 L-296865 21079 L-296713 21038 L-296658 20955 L-295901 20955 L-295884 21038 L-295395 21079 L-295265 21161 L-295072 21161 L-294182 21120 L-294142 21079 L-294104 21038 L-294027 20997 L-293988 20997 L-293911 20955 L-293827 20914 L-293563 20873 L-293331 20832 L-293269 20791 L-292788 20750 L-292452 20750 L-292340 20709 L-292147 20668 L-291970 20626 L-291911 20626 L-291875 20585 L-291605 20544 L-290907 20462 L-290854 20380 L-290560 20297 L-290158 20215 L-289594 20174 L-288721 20133 L-288416 20092 L-288378 20051 L-288255 20009 L-287657 19968 L-287527 19927 L-287327 19886 L-287290 19845 L-286676 19804 L-286497 19763 L-286482 19680 L-286264 19639 L-286186 19557 L-285879 19557 L-285747 19516 L-285515 19516 L-285181 19516 L-285089 19475 L-284989 19433 L-284951 19392 L-284408 19392 L-284215 19351 L-283674 19310 L-283248 19269 L-283116 19269 L-283055 19269 L-282824 19269 L-282807 19269 L-282319 19310 L-282238 19310 L-282221 19310 L-280828 19351 L-280692 19351 L-280578 19310 L-279944 19269 L-279804 19228 L-279686 19187 L-279533 19104 L-279496 19063 L-279417 19022 L-279363 19063 L-278371 19063 L-278335 19022 L-278202 19022 L-278141 18940 L-278042 18899 L-277752 18858 L-277738 18816 L-277428 18816 L-277328 18858 L-276863 18816 L-276810 23177 L-276667 27496 L-276539 31856 L-276307 36217 L-275738 36176 L-275649 36134 L-275627 36134 L-275340 36093 L-274657 36052 L-274580 36011 L-274544 35970 L-274527 35929 L-274328 35888 L-273907 35805 L-273636 35805 L-272763 35764 L-272470 35764 L-272360 35764 L-271625 35723 L-271498 35682 L-271139 35641 L-270886 35641 L-270015 35600 L-269846 35600 L-269784 35559 L-269729 35517 L-269381 35476 L-269358 35435 L-269149 35394 L-269009 35353 L-268878 35312 L-268755 35271 L-268632 35229 L-268395 35188 L-268105 35147 L-267446 35106 L-267424 35065 L-267269 35024 L-267151 34983 L-266187 34941 L-266131 34900 L-265899 34859 L-265876 34818 L-265550 34777 L-265435 34777 L-265395 34736 L-264893 34736 L-264594 34695 L-264482 34654 L-263940 34612 L-262881 34571 L-262255 34530 L-262083 34489 L-261836 34448 L-261580 34407 L-261449 34366 L-261427 34324 L-260760 34283 L-259863 34242 L-259817 34201 L-259747 34160 L-259631 34160 L-259411 34119 L-259220 34119 L-259181 34078 L-258988 34037 L-258329 34037 L-257712 33995 L-257673 34242 L-257077 34489 L-257015 34695 L-255893 34900 L-255839 34900 L-255718 34859 L-255452 34818 L-255389 34818 L-255120 34818 L-255043 34777 L-254827 34777 L-254345 34736 L-254075 34695 L-253943 34695 L-253711 34612 L-253686 34489 L-253671 34324 L-253649 34119 L-253633 33913 L-253609 33707 L-253595 33461 L-253572 33214 L-253556 32967 L-253533 32761 L-253518 32556 L-253496 32350 L-253479 32227 L-253451 32103 L-253434 31939 L-253416 31856 L-253379 31733 L-253339 31651 L-253324 31568 L-253299 31445 L-253247 31363 L-253223 31280 L-253146 31198 L-253108 31157 L-253093 31075 L-253030 30993 L-253015 30910 L-252969 30787 L-252898 30705 L-252860 30663 L-252835 30581 L-252783 30499 L-252758 30458 L-252742 30417 L-252681 30375 L-252644 30334 L-252567 30293 L-252551 30252 L-252523 30170 L-252450 30129 L-252411 30088 L-252257 30005 L-252141 29964 L-252087 29923 L-252004 29882 L-251971 29841 L-251947 29800 L-251792 29758 L-251777 29717 L-251676 29676 L-251365 29635 L-251329 29594 L-251114 29553 L-251002 29553 L-250978 29553 L-250748 29594 L-250515 29594 L-250140 29553 L-250013 29512 L-249973 29470 L-249920 29429 L-249819 29388 L-249782 29347 L-249572 29347 L-249507 29306 L-249395 29306 L-249183 29265 L-249146 29224 L-248774 29183 L-248720 29141 L-248642 29100 L-248620 29059 L-248527 29018 L-248327 28977 L-248289 28977 L-248268 28977 L-248038 28977 L-248017 28936 L-247807 28936 L-247713 28895 L-247675 28853 L-247339 28812 L-247226 28771 L-247186 28730 L-247173 28730 L-247033 28689 L-247018 28689 L-246764 28689 L-246181 28648 L-246105 28607 L-246067 28566 L-246022 28524 L-245974 28483 L-245794 28442 L-245779 28401 L-245679 28360 L-245602 28319 L-245541 28278 L-245176 28195 L-245094 28154 L-245076 28113 L-245022 28072 L-244054 28031 L-243922 27990 L-243901 27948 L-243680 27907 L-243612 27866 L-243589 27825 L-243343 27784 L-243087 27743 L-242956 27702 L-242916 27661 L-242895 27578 L-242839 27496 L-242751 27455 L-242690 27373 L-242465 27331 L-242336 27290 L-242236 27249 L-242182 27208 L-241988 27167 L-241910 27126 L-241577 27085 L-241446 27044 L-241269 27002 L-241253 26961 L-241228 26920 L-240958 26920 L-239758 26879 L-239721 26879 L-239605 26838 L-239371 26797 L-239180 26756 L-239141 26756 L-239086 26714 L-238981 26714 L-238467 26673 L-238173 26632 L-237941 26591 L-237666 26550 L-237649 26509 L-237616 26468 L-237576 26426 L-237539 26385 L-237437 26344 L-237360 26303 L-237267 26262 L-237140 26221 L-237036 26180 L-236858 26180 L-236665 26139 L-235836 26139 L-235720 26097 L-235466 26056 L-235426 26015 L-235327 25974 L-235266 25974 L-235024 25933 L-235000 25933 L-234879 25892 L-234808 25851 L-234768 25809 L-234537 25768 L-234360 25727 L-233840 25686 L-233764 25645 L-233747 25604 L-233336 25604 L-232973 25604 L-232857 25563 L-232834 25563 L-232794 25522 L-232718 25480 L-232664 25439 L-232315 25398 L-232199 25357 L-232022 25357 L-231967 25316 L-231943 25316 L-231829 25275 L-231541 25234 L-231309 25192 L-231094 25151 L-230884 25110 L-230674 25028 L-229847 24987 L-229508 24946 L-228500 24904 L-228137 24863 L-227092 24822 L-227014 24781 L-226567 24740 L-226356 24699 L-226164 24658 L-225870 24617 L-225829 24575 L-225675 24534 L-225622 24452 L-225390 24411 L-224810 24370 L-224616 24329 L-223997 24329 L-223508 24287 L-223456 24246 L-222807 24205 L-222657 24164 L-222488 24123 L-222115 24082 L-222099 24082 L-222000 24041 L-221962 24041 L-221831 24000 L-221397 24000 L-221094 24000 L-220709 24000 L-220569 23958 L-220407 23958 L-219973 23958 L-219935 23917 L-219833 23917 L-219718 23876 L-219540 23876 L-219370 23835 L-219252 23794 L-218890 23712 L-218673 23670 L-218540 23629 L-218400 23629 L-217901 23629 L-217823 23629 L-217589 23588 L-217265 23588 L-216878 23547 L-216856 23506 L-216235 23506 L-215965 23465 L-215732 23465 L-215307 23424 L-215036 23382 L-214894 23341 L-214685 23300 L-214480 23259 L-213928 23218 L-213797 23218 L-213411 23177 L-213140 23177 L-213037 23136 L-212777 23095 L-212575 23053 L-212506 23012 L-212468 22971 L-211900 22930 L-211693 22889 L-211666 22848 L-211437 22807 L-211360 22765 L-210843 22724 L-210804 22683 L-210649 22642 L-210355 22601 L-210083 22560 L-209720 22519 L-209372 22519 L-209000 22477 L-208879 22477 L-208807 22436 L-208328 22395 L-208265 22354 L-207930 22313 L-207799 22272 L-207721 22231 L-207592 22190 L-207128 22190 L-206834 22148 L-206758 22148 L-206446 22107 L-206138 22066 L-206075 22025 L-206045 21984 L-205270 21943 L-205166 21860 L-205078 21819 L-205055 21778 L-204901 21737 L-204679 21696 L-204512 21655 L-204125 21614 L-204070 21573 L-204007 21573 L-203390 21531 L-203273 21490 L-202950 21449 L-202424 21408 L-202073 21367 L-201997 21326 L-201378 21285 L-200967 21243 L-200666 21202 L-200355 21161 L-200217 21120 L-199593 21120 L-199212 21079 L-198088 21079 L-197028 21038 L-196965 20997 L-196604 20955 L-196503 20955 L-196487 20914 L-196113 20914 L-195108 20832 L-194721 20791 L-194514 20709 L-194425 20668 L-194050 20626 L-193757 20585 L-193446 20544 L-192657 20503 L-192569 20462 L-192517 20421 L-192478 20380 L-191961 20338 L-191845 20297 L-191636 20256 L-191497 20215 L-190894 20174 L-190064 20133 L-189781 20092 L-189599 20092 L-189098 20051 L-188893 20051 L-188339 20051 L-187833 20009 L-187642 19968 L-187604 19927 L-186975 19886 L-186521 19845 L-186107 19804 L-185499 19763 L-184378 19763 L-183965 19721 L-183641 19721 L-183426 19680 L-182999 19639 L-182859 19598 L-182768 19557 L-182536 19516 L-181950 19516 L-181142 19475 L-179942 19475 L-179829 19475 L-179696 19433 L-179609 19392 L-179567 19433 L-179546 19475 L-179535 19557 L-179441 19639 L-178677 19639 L-177971 19639 L-177931 19598 L-177645 19557 L-177105 19516 L-177043 19475 L-177003 19433 L-176988 19392 L-176731 19351 L-176408 19310 L-176268 19269 L-175998 19228 L-175959 19187 L-175851 19146 L-175449 19104 L-175340 19063 L-175263 19022 L-174966 18981 L-174923 18940 L-174704 18940 L-174521 18940 L-174410 18940 L-174396 18899 L-174370 18899 L-173946 18858 L-173699 18816 L-173364 18775 L-173329 18734 L-173194 18693 L-172940 18693 L-172786 18652 L-171880 18652 L-171781 18611 L-171586 18529 L-170578 18487 L-170078 18446 L-169999 18405 L-169961 18364 L-169753 18323 L-169635 18282 L-169536 18241 L-169351 18199 L-169185 18158 L-168949 18117 L-168530 18076 L-168514 18035 L-168205 17994 L-167159 17953 L-166942 17911 L-166927 17870 L-166904 17829 L-166696 17788 L-166537 17747 L-166478 17706 L-165033 17665 L-164707 17665 L-164505 17665 L-164306 17665 L-164156 17665 L-163886 17624 L-163445 17582 L-163227 17582 L-162532 17541 L-162030 17500 L-161705 17459 L-161434 17459 L-160714 17418 L-160559 17418 L-159360 17336 L-158971 17294 L-158856 17212 L-158702 17171 L-158548 17130 L-157578 17089 L-157526 17048 L-157279 17006 L-157256 16965 L-157037 16924 L-156598 16842 L-156459 16760 L-156351 16677 L-156149 16636 L-156032 16595 L-155929 16554 L-155915 16554 L-155783 16513 L-155529 16472 L-154911 16431 L-154251 16389 L-154005 16389 L-153813 16348 L-153053 16348 L-153014 16348 L-152936 16307 L-152884 16225 L-152844 16184 L-152807 16143 L-152768 16102 L-152676 16060 L-152632 16019 L-152574 15937 L-152550 15896 L-152435 15855 L-152125 15772 L-152070 15731 L-152048 15690 L-151706 15649 L-151541 15608 L-151506 15526 L-151465 15484 L-151450 15443 L-151219 15402 L-151078 15361 L-150910 15320 L-150461 15320 L-150227 15320 L-150135 15320 L-150115 15361 L-149634 15320 L-149556 15320 L-149429 15279 L-149299 15197 L-148921 15155 L-148680 15073 L-148642 15032 L-148588 14991 L-148450 14909 L-148410 14867 L-148371 14826 L-148140 14785 L-148100 14744 L-147970 14703 L-147791 14662 L-147750 14621 L-147736 14580 L-147572 14538 L-147558 14497 L-147405 14456 L-147390 14415 L-147364 14374 L-147329 14333 L-147107 14250 L-146885 14250 L-146630 14209 L-146498 14250 L-145856 14250 L-145249 14209 L-144229 14209 L-144036 14168 L-143985 14127 L-143860 14086 L-143536 14045 L-142763 14004 L-142705 13962 L-142591 13921 L-142179 13880 L-141854 13839 L-141717 13798 L-141492 13757 L-140966 13716 L-140565 13716 L-140534 13675 L-140247 13675 L-139962 13633 L-139574 13592 L-139357 13551 L-138930 13469 L-138749 13428 L-138412 13387 L-138306 13345 L-138119 13345 L-138002 13304 L-137988 13304 L-137267 13263 L-137097 13222 L-136849 13181 L-136749 13140 L-136107 13099 L-135819 13058 L-135628 13016 L-135353 12975 L-135036 12934 L-134751 12893 L-134637 12811 L-134592 12770 L-134390 12728 L-132781 12687 L-132569 12646 L-131888 12605 L-131806 12564 L-131578 12523 L-131387 12523 L-131248 12482 L-131230 12482 L-131036 12482 L-130807 12482 L-130614 12482 L-129530 12440 L-129334 12440 L-129282 12440 L-129128 12440 L-129020 12440 L-128854 12440 L-128701 12399 L-128586 12358 L-128462 12276 L-128045 12235 L-127788 12153 L-127696 12111 L-127503 12111 L-127441 12070 L-127115 12070 L-127054 12070 L-126997 12029 L-126728 11988 L-126380 11947 L-126202 11906 L-126007 11865 L-125971 11906 L-125259 11906 L-125219 11988 L-124910 12029 L-124612 12070 L-124562 12111 L-124307 12153 L-124036 12194 L-123981 12194 L-122890 12194 L-122859 12153 L-122819 12153 L-122642 12153 L-122450 12111 L-121592 12111 L-120538 12070 L-120477 12029 L-120129 11988 L-119316 11988 L-118502 11988 L-118487 11988 L-118112 11988 L-117944 11988 L-117675 11988 L-117347 11947 L-117226 11906 L-117169 11906 L-117133 11865 L-117056 11865 L-116839 11823 L-116781 11782 L-116465 11741 L-116297 11700 L-115934 11700 L-115741 11700 L-115717 11700 L-115640 11659 L-115158 11659 L-115021 11659 L-114608 11618 L-114308 11618 L-114209 11577 L-114194 11535 L-114165 11494 L-113806 11453 L-113456 11412 L-113318 11371 L-113281 11371 L-112464 11330 L-112258 11289 L-112234 11248 L-112078 11248 L-111988 11206 L-111747 11206 L-111422 11165 L-111330 11165 L-111134 11124 L-110848 11124 L-110092 11083 L-109963 11042 L-109889 11001 L-109277 10960 L-109101 10918 L-108990 10877 L-108891 10836 L-108812 10795 L-108675 10754 L-108520 10754 L-108441 10754 L-108250 10754 L-107577 10754 L-107539 10713 L-107436 10672 L-106493 10631 L-106471 10589 L-106120 10548 L-105655 10507 L-105619 10466 L-105190 10425 L-105139 10425 L-104727 10384 L-104711 10384 L-104614 10384 L-104559 10384 L-104521 10384 L-104226 10343 L-102487 10301 L-100977 10260 L-100469 10219 L-99972 10178 L-99838 10137 L-99747 10096 L-99620 10055 L-99540 9972 L-99235 9931 L-98965 9890 L-98730 9890 L-97532 9849 L-97427 9849 L-97361 9808 L-96519 9767 L-96334 9726 L-95423 9684 L-94553 9602 L-94266 9561 L-94173 9479 L-93624 9438 L-93104 9396 L-92036 9355 L-91767 9314 L-91613 9314 L-91521 9314 L-91390 9355 L-91343 9396 L-91183 9396 L-90318 9396 L-89983 9396 L-89600 9355 L-88847 9314 L-88788 9273 L-88398 9273 L-88077 9273 L-87919 9232 L-87187 9232 L-87125 9232 L-86837 9232 L-86464 9232 L-86282 9232 L-86027 9191 L-85765 9109 L-85613 9067 L-85209 9026 L-83912 8985 L-83797 8944 L-83333 8903 L-82001 8862 L-81576 8821 L-81552 8779 L-81419 8738 L-81244 8697 L-81111 8697 L-80781 8656 L-80393 8615 L-80354 8574 L-80337 8491 L-79947 8450 L-79655 8409 L-79386 8409 L-79213 8409 L-77720 8409 L-77669 8368 L-77591 8409 L-76351 8450 L-76276 8450 L-76250 8533 L-76003 8491 L-75846 8491 L-75787 8450 L-74900 8450 L-74671 8409 L-74147 8409 L-74006 8450 L-73931 8450 L-73234 8491 L-72987 8491 L-72306 8450 L-72289 8450 L-72035 8409 L-71667 8409 L-71531 8368 L-70909 8286 L-70566 8245 L-70518 8204 L-70031 8162 L-69697 8080 L-69481 8080 L-69346 8039 L-69025 7998 L-68961 7998 L-68709 7957 L-68419 7916 L-68110 7874 L-67970 7833 L-67431 7792 L-67155 7751 L-66425 7710 L-66371 7710 L-66264 7710 L-65998 7710 L-65574 7710 L-65310 7669 L-65090 7628 L-65070 7587 L-64838 7545 L-64551 7504 L-64528 7504 L-64514 7463 L-64141 7463 L-63970 7422 L-63894 7340 L-63833 7299 L-63532 7216 L-63291 7134 L-63198 7093 L-62941 7052 L-62888 7011 L-62693 6969 L-62477 7011 L-62053 7011 L-61961 7052 L-61820 7011 L-60955 6969 L-60582 6928 L-60254 6846 L-60102 6805 L-59674 6805 L-58957 6764 L-58762 6764 L-58408 6723 L-58261 6682 L-57754 6599 L-57518 6558 L-56551 6517 L-56541 6476 L-55476 6435 L-55243 6394 L-54842 6352 L-54647 6311 L-54567 6270 L-54471 6229 L-53734 6229 L-53602 6229 L-53212 6229 L-53190 6188 L-53095 6188 L-52960 6147 L-52943 6106 L-52923 6064 L-51238 6023 L-51219 6023 L-51103 5982 L-51018 5982 L-50893 5982 L-50870 5941 L-50586 5900 L-50479 5859 L-50291 5777 L-50020 5735 L-49348 5694 L-48976 5653 L-48125 5653 L-48067 5612 L-48047 5612 L-47814 5612 L-47540 5571 L-47234 5571 L-47195 5489 L-46964 5489 L-46726 5447 L-46113 5406 L-46072 5365 L-46035 5283 L-45513 5242 L-45322 5201 L-45262 5160 L-45219 5118 L-44897 5118 L-44869 5077 L-44854 5077 L-44369 5036 L-44316 4995 L-44177 4954 L-44139 4913 L-44122 4872 L-44028 4830 L-43362 4830 L-42746 4789 L-42477 4789 L-42068 4789 L-42048 4748 L-42033 4748 L-41919 4707 L-41532 4666 L-41066 4666 L-41005 4625 L-40926 4584 L-40911 4542 L-40425 4460 L-40386 4419 L-40240 4419 L-40191 4378 L-40112 4419 L-39480 4378 L-39389 4378 L-39148 4378 L-39031 4337 L-38704 4337 L-37949 4296 L-37933 4296 L-36981 4296 L-36672 4255 L-36247 4213 L-35533 4172 L-35215 4131 L-35200 4090 L-35048 4008 L-34745 3967 L-34667 3925 L-34540 3884 L-34103 3884 L-34043 3884 L-33519 3884 L-33251 3884 L-33114 3843 L-33036 3802 L-32997 3761 L-32185 3761 L-32144 3761 L-31704 3761 L-31626 3761 L-31369 3720 L-31178 3679 L-30549 3638 L-30362 3596 L-30328 3514 L-30172 3473 L-29770 3391 L-29693 3350 L-29512 3308 L-29322 3267 L-28393 3185 L-28242 3144 L-27034 3103 L-26225 3062 L-25821 3020 L-25219 2979 L-25017 2938 L-24948 2897 L-24790 2856 L-24529 2815 L-24155 39672 L-24137 39631 L-23980 39631 L-22782 39631 L-21678 2733 L-20750 2691 L-20637 2650 L-20351 2609 L-20249 2568 L-20225 2568 L-20035 2486 L-19957 2445 L-19761 2445 L-19050 2445 L-18892 2486 L-17835 2486 L-17410 2486 L-17000 2445 L-16714 2362 L-16540 2321 L-16308 2280 L-16054 2239 L-15611 2198 L-14950 2157 L-14775 2116 L-14470 2074 L-14083 2033 L-14063 1992 L-14043 1951 L-14022 1910 L-13888 1869 L-13696 1828 L-12052 1786 L-10755 1745 L-10717 1704 L-10659 1663 L-10557 1622 L-9998 1581 L-9014 1540 L-8472 1457 L-8008 1416 L-7362 1375 L-6813 1334 L-5763 1293 L-4835 1252 L-4487 1211 L-4294 1169 L-3791 1128 L-3346 1128 L-3204 1087 L-3182 1087 L-2611 1087 L-2225 1005 L-1392 964 L-1043 923 L-1021 881 L-634 881 L-211 840 L386 799 L405 758 L911 758 L1143 717 L1257 717 L1876 635 L2437 593 L2477 552 L3037 511 L3369 470 L3482 470 L3521 429 L3946 429 L4006 429 L4081 388 L4372 388 L4585 347 L5068 264 L5283 223 L6422 182 L6482 141 L6500 100" />
</svg>
