<svg xmlns="http://www.w3.org/2000/svg" version="1.1" viewBox="0 0 6500 1000">
	<path fill="none" stroke="gold" stroke-width="125" stroke-linecap="round" stroke-linejoin="round" d="M0 920  L-16921 920 L-16509 897 L-16285 908 L-16227 897 L-16190 874 L-16005 851 L-15515 828 L-15222 816 L-14910 805 L-14676 782 L-14623 759 L-14563 736 L-14410 724 L-14370 713 L-14237 701 L-13945 713 L-13404 701 L-12794 678 L-12746 701 L-12106 678 L-12072 690 L-11547 667 L-11414 655 L-11024 609 L-10696 586 L-10579 563 L-10367 586 L-9650 575 L-9080 563 L-8973 552 L-8799 529 L-8577 506 L-8176 494 L-8150 471 L-7222 448 L-7135 425 L-7052 402 L-6982 379 L-6685 368 L-6533 356 L-4643 425 L-4542 391 L-4280 368 L-3986 391 L-3845 368 L-3596 356 L-3560 345 L-3402 322 L-2938 310 L-2685 287 L-2473 276 L-2222 264 L-1873 241 L-946 218 L-852 195 L-441 184 L729 172 L1918 149 L2010 126 L2037 103 L2304 69 L2602 46 L2731 34 L2769 11 L3583 92 L3967 80 L5028 57 L5089 46 L5354 977 L5825 966 L6018 943 L6281 931" />
</svg>
