<svg xmlns="http://www.w3.org/2000/svg" version="1.1" viewBox="0 0 6500 1000">
	<path fill="none" stroke="gold" stroke-width="125" stroke-linecap="round" stroke-linejoin="round" d="M0 214155  L-1347050 214155 L-1346865 214154 L-1346375 214152 L-1346082 214151 L-1345770 214149 L-1345536 214148 L-1345482 214146 L-1345423 214144 L-1345270 214143 L-1345230 214141 L-1345097 214140 L-1344804 214139 L-1344264 214139 L-1343653 214138 L-1343605 214138 L-1342965 214137 L-1342932 214137 L-1342407 214137 L-1342274 214136 L-1341884 214134 L-1341556 214132 L-1341438 214130 L-1341227 214129 L-1340510 214129 L-1339940 214128 L-1339833 214128 L-1339659 214127 L-1339437 214125 L-1339036 214124 L-1339010 214122 L-1338082 214120 L-1337994 214118 L-1337912 214116 L-1337842 214114 L-1337545 214113 L-1337393 214111 L-1335503 214112 L-1335402 214112 L-1335140 214112 L-1334846 214113 L-1334704 214111 L-1334456 214111 L-1334420 214110 L-1334262 214109 L-1333798 214107 L-1333545 214106 L-1333333 214104 L-1333082 214104 L-1332733 214103 L-1331805 214101 L-1331712 214099 L-1331301 214098 L-1330130 214096 L-1328941 214095 L-1328849 214093 L-1328821 214091 L-1328555 214089 L-1328256 214087 L-1328128 214085 L-1328090 214083 L-1327276 214083 L-1326892 214084 L-1325831 214085 L-1325770 214085 L-1325505 214104 L-1325033 214123 L-1324841 214141 L-1324577 214159 L-1324241 214158 L-1324105 214157 L-1323650 214156 L-1322906 214156 L-1322889 214155 L-1322723 214153 L-1322655 214153 L-1322139 214152 L-1321111 214152 L-1320914 214151 L-1320426 214150 L-1320064 214149 L-1319655 214149 L-1319270 214150 L-1317566 214150 L-1317468 214150 L-1317396 214150 L-1317335 214150 L-1317150 214149 L-1316814 214149 L-1316173 214148 L-1316096 214147 L-1316035 214147 L-1315849 214146 L-1315769 214146 L-1315592 214145 L-1315573 214144 L-1315343 214144 L-1314955 214143 L-1314066 214143 L-1314027 214142 L-1313939 214141 L-1313911 214139 L-1312903 214138 L-1312753 214136 L-1312729 214135 L-1312596 214134 L-1312556 214133 L-1311298 214132 L-1311240 214132 L-1310701 214131 L-1310648 214131 L-1310601 214131 L-1310206 214130 L-1310067 214130 L-1309867 214129 L-1309720 214129 L-1309556 214129 L-1309279 214130 L-1308920 214130 L-1308368 214129 L-1307723 214128 L-1307464 214126 L-1307310 214125 L-1306909 214124 L-1306869 214123 L-1306749 214122 L-1306687 214123 L-1306673 214123 L-1306579 214123 L-1306286 214122 L-1306135 214118 L-1305804 214116 L-1305726 214114 L-1305651 214113 L-1305424 214110 L-1305357 214108 L-1305130 214106 L-1305077 214104 L-1304913 214104 L-1303907 214103 L-1303724 214102 L-1303172 214101 L-1302779 214099 L-1302382 214098 L-1301532 214096 L-1301454 214095 L-1300875 214094 L-1300433 214094 L-1300192 214093 L-1300035 214093 L-1299634 214091 L-1299614 214091 L-1299169 214090 L-1298763 214089 L-1298627 214087 L-1298452 214085 L-1298316 214083 L-1298066 214081 L-1297066 214080 L-1296984 214079 L-1296848 214079 L-1296810 214078 L-1295920 214077 L-1295704 214076 L-1295261 214075 L-1295143 214074 L-1295087 214073 L-1294410 214073 L-1294310 214072 L-1294281 214072 L-1292939 214071 L-1292534 214070 L-1292494 214069 L-1291566 214068 L-1291468 214067 L-1291335 214066 L-1290930 214065 L-1290904 214064 L-1290811 214063 L-1290595 214062 L-1290184 214060 L-1289030 214058 L-1288739 214056 L-1288710 214054 L-1288102 214053 L-1287852 214052 L-1287832 214051 L-1286903 214050 L-1286851 214048 L-1286729 214047 L-1286711 214045 L-1286556 214044 L-1286380 214042 L-1286244 214041 L-1286187 214040 L-1286079 214039 L-1285994 214038 L-1285761 214037 L-1285686 214036 L-1285377 214035 L-1285260 214034 L-1285090 214033 L-1284999 214032 L-1284896 214032 L-1284873 214031 L-1284796 214031 L-1284698 214029 L-1284331 214028 L-1284226 214027 L-1283723 214027 L-1283271 214026 L-1283233 214025 L-1283209 214024 L-1283168 214023 L-1283039 214022 L-1282938 214021 L-1282497 214020 L-1282215 214019 L-1281622 214018 L-1281492 214017 L-1281217 214015 L-1281065 214014 L-1280912 214013 L-1280826 214011 L-1280748 214010 L-1280563 214009 L-1280512 214009 L-1280484 214008 L-1280405 214007 L-1280382 214006 L-1280098 214004 L-1279495 214002 L-1278499 214001 L-1278201 214001 L-1277467 214000 L-1277223 213999 L-1277133 213998 L-1276556 213997 L-1275857 213996 L-1275105 213995 L-1274787 213994 L-1274404 213992 L-1274327 213991 L-1273692 213990 L-1273507 213989 L-1273419 213989 L-1273289 213989 L-1272977 213988 L-1272927 213987 L-1272785 213986 L-1272764 213985 L-1271796 213984 L-1271250 213983 L-1270772 213983 L-1270711 213983 L-1270387 213983 L-1270366 213982 L-1270304 213982 L-1270093 213981 L-1270017 213980 L-1269962 213979 L-1269939 213978 L-1269900 213977 L-1269884 213976 L-1269127 213975 L-1269111 213975 L-1268311 213974 L-1268159 213973 L-1267254 213972 L-1266747 213971 L-1266518 213969 L-1266477 213969 L-1266362 213968 L-1266185 213967 L-1265431 213968 L-1265296 213967 L-1265132 213966 L-1264814 213965 L-1264638 213963 L-1263616 213961 L-1263592 213959 L-1263341 213958 L-1263128 213956 L-1262494 213955 L-1262256 213953 L-1262224 213951 L-1262046 213949 L-1261965 213948 L-1261876 213947 L-1261811 213945 L-1261371 213943 L-1261347 213942 L-1260807 213941 L-1260551 213940 L-1260056 213939 L-1259179 213938 L-1259142 213937 L-1259089 213936 L-1259048 213935 L-1258931 213934 L-1258654 213933 L-1258447 213931 L-1258250 213929 L-1258227 213927 L-1258177 213925 L-1258137 213924 L-1258059 213924 L-1257462 213922 L-1257402 213921 L-1257298 213920 L-1257144 213919 L-1256512 213918 L-1255832 213917 L-1255529 213915 L-1255182 213914 L-1254984 213913 L-1254936 213911 L-1254616 213910 L-1253988 213909 L-1253841 213908 L-1253805 213907 L-1253747 213906 L-1253671 213904 L-1253429 213904 L-1253341 213903 L-1253247 213902 L-1252953 213901 L-1252819 213900 L-1252759 213899 L-1252722 213898 L-1252450 213898 L-1251444 213897 L-1251268 213896 L-1251217 213896 L-1250925 213895 L-1250732 213893 L-1250399 213892 L-1249893 213891 L-1249330 213889 L-1249316 213887 L-1249299 213886 L-1249199 213884 L-1249084 213882 L-1249045 213880 L-1249007 213879 L-1248942 213879 L-1248914 213878 L-1248775 213879 L-1248482 213879 L-1248432 213879 L-1248327 213879 L-1248062 213878 L-1247597 213877 L-1247453 213877 L-1247398 213875 L-1247341 213874 L-1247150 213873 L-1246785 213872 L-1246570 213872 L-1246376 213872 L-1246318 213872 L-1246259 213871 L-1246105 213870 L-1245835 213869 L-1245405 213873 L-1245390 213873 L-1245313 213872 L-1245248 213872 L-1245119 213865 L-1245096 213864 L-1244812 213863 L-1244764 213862 L-1244709 213861 L-1244247 213860 L-1244208 213860 L-1244167 213859 L-1243977 213858 L-1243497 213857 L-1243010 213856 L-1242993 213855 L-1242955 213854 L-1242699 213853 L-1242621 213851 L-1242391 213850 L-1242375 213848 L-1242081 213846 L-1241639 213846 L-1241192 213845 L-1240687 213844 L-1240533 213843 L-1240247 213842 L-1240207 213840 L-1239876 213839 L-1239654 213838 L-1239137 213836 L-1239061 213835 L-1238813 213833 L-1238619 213831 L-1238559 213830 L-1237782 213829 L-1237708 213829 L-1237478 213828 L-1237461 213828 L-1237399 213827 L-1237204 213826 L-1236739 213826 L-1236716 213825 L-1236586 213825 L-1235286 213825 L-1235269 213825 L-1235192 213824 L-1235098 213824 L-1234881 213824 L-1234729 213823 L-1234551 213824 L-1234496 213825 L-1234210 213826 L-1234170 213826 L-1233800 213826 L-1233360 213826 L-1233177 213826 L-1232856 213825 L-1232561 213825 L-1232115 213823 L-1232043 213822 L-1231581 213820 L-1231143 213820 L-1230961 213819 L-1229507 213817 L-1229375 213816 L-1228918 213814 L-1228692 213813 L-1228305 213811 L-1227789 213809 L-1226835 213807 L-1226040 213805 L-1225366 213804 L-1224940 213802 L-1224629 213801 L-1224399 213798 L-1223716 213795 L-1223703 213793 L-1223493 213789 L-1223471 213788 L-1223297 213786 L-1222347 213785 L-1222078 213783 L-1221263 213782 L-1220953 213780 L-1220915 213779 L-1220858 213777 L-1220241 213776 L-1219603 213774 L-1217977 213773 L-1217303 213772 L-1216661 213772 L-1216584 213772 L-1216527 213772 L-1216491 213772 L-1216463 213771 L-1216351 213769 L-1216333 213769 L-1216311 213768 L-1216157 213767 L-1216104 213765 L-1216026 213764 L-1215907 213763 L-1215809 213762 L-1215692 213761 L-1215422 213759 L-1215152 213758 L-1215135 213756 L-1214935 213755 L-1214788 213753 L-1214561 213752 L-1214427 213751 L-1214118 213750 L-1214058 213749 L-1213705 213747 L-1213357 213746 L-1213256 213745 L-1213192 213743 L-1213132 213743 L-1212747 213741 L-1212366 213740 L-1212262 213739 L-1212002 213738 L-1211731 213736 L-1211571 213735 L-1211539 213734 L-1211477 213733 L-1211336 213732 L-1211152 213731 L-1211107 213730 L-1210819 213730 L-1210803 213729 L-1210570 213729 L-1210509 213728 L-1210471 213728 L-1209891 213727 L-1209757 213726 L-1209734 213722 L-1209716 213716 L-1209698 213708 L-1209682 213700 L-1209658 213692 L-1209642 213687 L-1209620 213680 L-1209604 213673 L-1209580 213669 L-1209564 213665 L-1209542 213663 L-1209525 213661 L-1209476 213658 L-1209404 213655 L-1209369 213650 L-1209346 213646 L-1209310 213642 L-1209269 213639 L-1209232 213637 L-1209216 213633 L-1209192 213630 L-1209155 213628 L-1209138 213625 L-1209114 213623 L-1209097 213621 L-1209078 213619 L-1209062 213617 L-1209033 213614 L-1209007 213612 L-1208962 213611 L-1208945 213609 L-1208903 213608 L-1208855 213606 L-1208785 213604 L-1208769 213602 L-1208753 213600 L-1208691 213599 L-1208652 213598 L-1208613 213597 L-1208447 213596 L-1208382 213595 L-1208366 213594 L-1208321 213592 L-1208263 213591 L-1208050 213590 L-1208017 213589 L-1207974 213588 L-1207896 213588 L-1207359 213587 L-1207281 213586 L-1207177 213584 L-1207088 213583 L-1206912 213582 L-1206561 213581 L-1206405 213580 L-1205967 213579 L-1205811 213578 L-1205681 213577 L-1204977 213575 L-1204776 213574 L-1203815 213572 L-1203333 213571 L-1203234 213571 L-1203141 213570 L-1202896 213569 L-1202823 213568 L-1202381 213566 L-1202284 213565 L-1202269 213564 L-1202253 213563 L-1202228 213562 L-1201763 213562 L-1201546 213561 L-1201406 213560 L-1201112 213559 L-1201024 213558 L-1200982 213557 L-1200953 213556 L-1200780 213555 L-1200721 213554 L-1200645 213553 L-1200564 213552 L-1200494 213552 L-1200185 213551 L-1200100 213550 L-1199886 213549 L-1199851 213548 L-1199168 213547 L-1199069 213546 L-1198864 213545 L-1198817 213544 L-1198539 213543 L-1198477 213542 L-1198460 213540 L-1198382 213539 L-1198074 213537 L-1198049 213536 L-1197995 213535 L-1197973 213534 L-1197850 213533 L-1197714 213531 L-1197470 213530 L-1197345 213530 L-1196698 213529 L-1196682 213529 L-1196657 213529 L-1196477 213527 L-1196401 213526 L-1196309 213525 L-1195881 213524 L-1195465 213523 L-1195072 213521 L-1194993 213520 L-1194975 213519 L-1194611 213518 L-1194375 213517 L-1194147 213516 L-1193834 213515 L-1193756 213514 L-1193675 213512 L-1193497 213510 L-1193481 213510 L-1193216 213508 L-1193136 213507 L-1192906 213506 L-1192679 213505 L-1192364 213505 L-1192189 213504 L-1191827 213504 L-1191436 213503 L-1191366 213501 L-1191303 213500 L-1191162 213498 L-1191110 213497 L-1191009 213495 L-1190507 213494 L-1190310 213493 L-1190063 213492 L-1189878 213491 L-1189578 213490 L-1189502 213489 L-1189336 213487 L-1188451 213486 L-1188423 213485 L-1188300 213483 L-1187721 213482 L-1187643 213481 L-1186930 213481 L-1186618 213481 L-1186405 213481 L-1186388 213481 L-1186002 213481 L-1185477 213479 L-1185030 213478 L-1184701 213477 L-1184548 213476 L-1184222 213476 L-1184044 213475 L-1183962 213475 L-1183756 213473 L-1183581 213472 L-1182652 213471 L-1181762 213470 L-1181723 213469 L-1181495 213469 L-1181116 213468 L-1180328 213467 L-1180094 213466 L-1180018 213465 L-1179661 213464 L-1179089 213462 L-1178822 213461 L-1178435 213460 L-1178332 213460 L-1178162 213460 L-1177543 213460 L-1177332 213460 L-1177024 213460 L-1176971 213459 L-1176844 213459 L-1176791 213458 L-1176671 213457 L-1176335 213455 L-1175376 213454 L-1175245 213452 L-1175043 213451 L-1174412 213450 L-1174100 213449 L-1173686 213448 L-1173659 213447 L-1173514 213446 L-1173093 213445 L-1171761 213445 L-1171714 213444 L-1171585 213442 L-1171569 213441 L-1170991 213439 L-1170785 213438 L-1170755 213437 L-1170715 213436 L-1170657 213435 L-1170620 213434 L-1170541 213433 L-1170398 213433 L-1169944 213432 L-1169826 213431 L-1169541 213430 L-1169168 213429 L-1169072 213428 L-1168745 213427 L-1168390 213426 L-1168220 213425 L-1168173 213424 L-1168064 213423 L-1167975 213422 L-1167947 213421 L-1167871 213419 L-1167567 213418 L-1167534 213416 L-1167462 213415 L-1167094 213414 L-1166758 213413 L-1166678 213413 L-1166458 213412 L-1166287 213411 L-1166259 213410 L-1165762 213409 L-1165213 213407 L-1164332 213407 L-1164234 213405 L-1164157 213404 L-1163882 213403 L-1163635 213401 L-1163561 213400 L-1163499 213398 L-1163381 213397 L-1163338 213396 L-1163228 213395 L-1163151 213393 L-1162451 213392 L-1162205 213391 L-1162165 213390 L-1162009 213389 L-1161410 213389 L-1161183 213389 L-1161091 213389 L-1160616 213389 L-1160018 213387 L-1159498 213386 L-1159477 213385 L-1159332 213384 L-1159012 213384 L-1158470 213384 L-1158238 213384 L-1158068 213384 L-1157581 213383 L-1157354 213382 L-1157269 213381 L-1156923 213381 L-1156597 213381 L-1156074 213380 L-1155746 213379 L-1155146 213378 L-1154948 213376 L-1154896 213375 L-1154856 213374 L-1154574 213373 L-1153890 213371 L-1153580 213370 L-1153555 213368 L-1153364 213367 L-1153141 213366 L-1153055 213365 L-1152391 213363 L-1152367 213362 L-1152145 213360 L-1151815 213359 L-1151463 213357 L-1151258 213356 L-1151026 213355 L-1150768 213354 L-1150578 213352 L-1150531 213351 L-1150304 213350 L-1150269 213349 L-1150113 213348 L-1149898 213347 L-1149725 213346 L-1149634 213345 L-1149357 213344 L-1149113 213343 L-1148798 213342 L-1148372 213342 L-1148334 213342 L-1147851 213342 L-1147618 213342 L-1147406 213341 L-1147180 213340 L-1146630 213340 L-1146383 213339 L-1145549 213339 L-1145493 213338 L-1145471 213337 L-1145313 213336 L-1144852 213335 L-1144811 213334 L-1144471 213332 L-1144338 213331 L-1144115 213330 L-1143543 213330 L-1143071 213329 L-1142876 213328 L-1142684 213327 L-1142494 213326 L-1142392 213325 L-1142024 213324 L-1141978 213323 L-1141896 213322 L-1140603 213321 L-1140554 213320 L-1140286 213320 L-1140141 213320 L-1139590 213320 L-1139473 213319 L-1139392 213318 L-1139032 213317 L-1138809 213316 L-1138527 213315 L-1138198 213313 L-1137690 213312 L-1137578 213311 L-1137499 213310 L-1137335 213309 L-1137040 213309 L-1136571 213309 L-1136375 213310 L-1136324 213310 L-1135675 213309 L-1135553 213308 L-1135099 213308 L-1135063 213307 L-1134595 213306 L-1134484 213305 L-1134468 213304 L-1134251 213304 L-1134071 213304 L-1133539 213304 L-1132509 213304 L-1132310 213303 L-1131852 213302 L-1130903 213300 L-1130805 213299 L-1130451 213297 L-1130390 213296 L-1130376 213295 L-1130340 213294 L-1129971 213293 L-1129851 213292 L-1129609 213291 L-1129445 213290 L-1129258 213289 L-1129137 213288 L-1128066 213286 L-1127208 213285 L-1126996 213283 L-1126899 213282 L-1126724 213280 L-1126391 213279 L-1126319 213278 L-1126262 213278 L-1126086 213278 L-1125697 213277 L-1125462 213276 L-1125351 213275 L-1125234 213274 L-1124253 213273 L-1124228 213272 L-1123633 213270 L-1123601 213270 L-1123452 213269 L-1123168 213268 L-1122256 213268 L-1121310 213268 L-1121157 213267 L-1121054 213267 L-1120923 213266 L-1120780 213265 L-1120753 213264 L-1120639 213263 L-1120421 213262 L-1119739 213261 L-1119610 213260 L-1119307 213259 L-1119067 213257 L-1118734 213256 L-1118095 213255 L-1117753 213253 L-1117691 213252 L-1117535 213252 L-1116614 213252 L-1116143 213252 L-1116100 213252 L-1116087 213252 L-1116046 213251 L-1116024 213250 L-1115997 213249 L-1115853 213248 L-1115430 213247 L-1115095 213247 L-1114904 213246 L-1114475 213246 L-1114288 213245 L-1113899 213243 L-1113364 213242 L-1112992 213241 L-1112970 213241 L-1112720 213240 L-1112602 213239 L-1112526 213238 L-1112390 213237 L-1112351 213236 L-1112271 213235 L-1111877 213234 L-1111381 213233 L-1111269 213231 L-1111096 213230 L-1110788 213229 L-1110340 213228 L-1110017 213227 L-1109875 213226 L-1109448 213224 L-1109294 213222 L-1109239 213220 L-1108425 213219 L-1108406 213218 L-1108034 213217 L-1107977 213217 L-1106848 213216 L-1106780 213216 L-1106222 213215 L-1106027 213214 L-1105891 213213 L-1105657 213212 L-1105310 213211 L-1105275 213209 L-1105240 213208 L-1105172 213206 L-1104823 213205 L-1104651 213204 L-1104166 213203 L-1104150 213202 L-1103825 213201 L-1103667 213200 L-1102526 213199 L-1102502 213198 L-1102310 213196 L-1102116 213195 L-1101866 213194 L-1101849 213193 L-1100829 213192 L-1100531 213191 L-1100456 213190 L-1100319 213188 L-1100144 213187 L-1099567 213185 L-1099351 213184 L-1099288 213183 L-1099157 213182 L-1099120 213180 L-1098597 213179 L-1098459 213559 L-1098444 213559 L-1098422 213559 L-1098401 213559 L-1098174 213178 L-1097398 213178 L-1097357 213178 L-1096989 213178 L-1096911 213177 L-1096859 213176 L-1096186 213175 L-1095443 213175 L-1095018 213175 L-1094571 213174 L-1093509 213173 L-1093197 213171 L-1092787 213171 L-1092715 213170 L-1092191 213170 L-1092096 213170 L-1092078 213170 L-1091634 213169 L-1091448 213167 L-1090668 213165 L-1089996 213164 L-1089583 213161 L-1089352 213159 L-1089211 213158 L-1089129 213156 L-1089109 213155 L-1089033 213155 L-1088905 213154 L-1088588 213155 L-1088364 213155 L-1088039 213154 L-1087977 213154 L-1087607 213154 L-1087573 213154 L-1087365 213154 L-1086697 213154 L-1086620 213154 L-1086462 213152 L-1086351 213152 L-1086025 213151 L-1085870 213150 L-1085529 213150 L-1085472 213149 L-1085134 213147 L-1084930 213146 L-1084877 213144 L-1083501 213143 L-1083371 213142 L-1082938 213141 L-1082617 213140 L-1081790 213138 L-1081666 213137 L-1080935 213135 L-1080780 213133 L-1080739 213132 L-1080685 213131 L-1080662 213130 L-1080548 213129 L-1080251 213128 L-1079962 213127 L-1079907 213126 L-1079787 213125 L-1079756 213124 L-1079657 213123 L-1079213 213123 L-1079061 213123 L-1078226 213123 L-1077684 213122 L-1077349 213122 L-1077333 213121 L-1077258 213120 L-1077142 213119 L-1076947 213118 L-1076683 213117 L-1075848 213116 L-1075752 213115 L-1075230 213114 L-1075189 213113 L-1075089 213112 L-1074261 213112 L-1074126 213111 L-1073787 213111 L-1073233 213110 L-1072854 213109 L-1072691 213108 L-1072381 213107 L-1071568 213106 L-1071262 213105 L-1070994 213105 L-1070672 213105 L-1070351 213106 L-1070076 213106 L-1069247 213104 L-1069152 213103 L-1069059 213100 L-1068955 213097 L-1068568 213095 L-1068088 213093 L-1068072 213092 L-1067953 213091 L-1067585 213089 L-1067490 213088 L-1066656 213086 L-1066579 213085 L-1066280 213084 L-1066189 213083 L-1065782 213081 L-1065672 213079 L-1064972 213078 L-1064499 213077 L-1064439 213076 L-1064220 213074 L-1063946 213073 L-1063833 213072 L-1062806 213071 L-1062420 213071 L-1062400 213070 L-1062067 213069 L-1061822 213068 L-1061389 213067 L-1061279 213066 L-1061161 213065 L-1060709 213063 L-1060119 213062 L-1059782 213061 L-1057890 213060 L-1057776 213058 L-1057564 213057 L-1056246 213056 L-1056139 212839 L-1056073 212626 L-1056037 212428 L-1055975 212428 L-1055476 212643 L-1054801 212855 L-1054779 213050 L-1054508 213048 L-1053540 213048 L-1052851 213047 L-1052689 213046 L-1052148 213045 L-1052058 213045 L-1051039 213044 L-1050091 213042 L-1049726 213043 L-1049623 213044 L-1049035 213044 L-1048975 213044 L-1048875 213043 L-1048435 213041 L-1048327 213040 L-1047886 213039 L-1046886 213036 L-1046629 213033 L-1046526 213030 L-1046396 213028 L-1046030 213026 L-1045449 213024 L-1045418 213023 L-1045102 213022 L-1043119 213021 L-1043004 213020 L-1042936 213020 L-1042577 213020 L-1040959 213019 L-1040781 213019 L-1040637 213019 L-1039814 213020 L-1039762 213020 L-1039707 213020 L-1039273 213020 L-1038292 213021 L-1038219 213021 L-1037134 213020 L-1036921 213020 L-1036205 213019 L-1035816 213018 L-1035598 213016 L-1035278 213014 L-1034784 213012 L-1034657 213011 L-1034428 213009 L-1034195 213007 L-1034136 213006 L-1033847 213005 L-1033574 213003 L-1032545 213002 L-1030880 213001 L-1030460 213000 L-1030323 212999 L-1030167 212999 L-1029862 212998 L-1029634 212996 L-1029475 212995 L-1029316 212994 L-1029147 212992 L-1029099 212991 L-1029046 212990 L-1029024 212990 L-1028638 212989 L-1028388 212989 L-1028118 212989 L-1027957 212989 L-1027867 212989 L-1026209 212989 L-1026044 212990 L-1025664 212989 L-1025204 212989 L-1024594 212987 L-1023501 212986 L-1023070 212985 L-1023038 212984 L-1022976 212983 L-1022959 212982 L-1021255 212981 L-1021213 212980 L-1020747 212979 L-1020560 212978 L-1020528 212976 L-1019932 212975 L-1019882 212974 L-1019560 212973 L-1019509 212972 L-1019299 212971 L-1019281 212970 L-1019014 212968 L-1018962 212968 L-1018492 212967 L-1017982 212965 L-1017904 212965 L-1017609 212964 L-1017593 212963 L-1017554 212962 L-1017483 212961 L-1017326 212960 L-1016380 212960 L-1016323 212960 L-1015803 212960 L-1015610 212959 L-1015509 212959 L-1015283 212958 L-1014774 212958 L-1014386 212984 L-1014316 212984 L-1013968 212983 L-1013611 212982 L-1012482 212954 L-1012430 212952 L-1012204 212951 L-1012170 212950 L-1012045 212948 L-1011947 212948 L-1011682 212948 L-1010942 212949 L-1010363 212949 L-1010070 212949 L-1009364 212949 L-1009185 212948 L-1009162 212948 L-1008526 212947 L-1008215 212946 L-1007818 212946 L-1007789 212945 L-1007768 212944 L-1007614 212943 L-1006929 212943 L-1006912 212943 L-1006572 212943 L-1006300 212942 L-1006262 212942 L-1006206 212940 L-1006184 212939 L-1006112 212938 L-1005780 212937 L-1005674 212936 L-1005646 212934 L-1005448 212933 L-1005295 212932 L-1004427 212931 L-1003864 212929 L-1003848 212929 L-1003747 212928 L-1003645 212929 L-1003498 212929 L-1003420 212929 L-1003382 212928 L-1003327 212927 L-1003253 212926 L-1003108 212925 L-1002627 212925 L-1002222 212924 L-1001356 212925 L-1001336 212925 L-1001078 212925 L-1001002 212925 L-1000972 212924 L-1000962 212922 L-1000945 212921 L-1000652 212920 L-1000612 212919 L-1000541 212918 L-1000467 212917 L-1000262 212916 L-1000102 212914 L-999801 212911 L-999723 212907 L-999706 212904 L-999490 212902 L-999259 212902 L-999149 212903 L-998779 212904 L-998621 212904 L-998389 212904 L-998221 212904 L-998076 212903 L-997944 212902 L-996668 212900 L-996264 212898 L-996204 212897 L-996087 212895 L-995662 212894 L-995646 212892 L-995584 212891 L-995311 212890 L-995198 212889 L-994916 212887 L-994639 212886 L-994214 212884 L-994191 212883 L-994113 212882 L-993988 212881 L-993401 212880 L-993010 212879 L-992674 212878 L-992085 212877 L-991983 212877 L-991813 212876 L-991676 212876 L-990849 212875 L-989663 212874 L-989627 212873 L-989572 212873 L-989351 212872 L-989146 212872 L-988992 212872 L-988735 212871 L-988658 212870 L-988116 212869 L-988079 212868 L-987830 212867 L-987443 212866 L-986617 212865 L-986259 212865 L-985949 212865 L-985691 212864 L-985467 212863 L-985061 212862 L-984944 212861 L-984761 212860 L-984708 212860 L-984519 212859 L-984349 212858 L-984320 212857 L-984039 212856 L-983729 212855 L-983591 212854 L-983281 212853 L-983087 212853 L-983072 212852 L-982352 212852 L-982219 212850 L-981921 212849 L-981831 212848 L-981230 212848 L-981192 212847 L-981113 212846 L-980493 212845 L-980341 212843 L-980301 212842 L-979990 212841 L-979798 212840 L-979605 212839 L-979550 212837 L-979241 212836 L-979189 212835 L-979134 212836 L-979109 212836 L-978984 212836 L-978173 212835 L-978097 212834 L-977556 212833 L-977287 212832 L-976628 212831 L-975720 212830 L-975479 212829 L-974947 212828 L-974729 212827 L-973622 212828 L-973572 212828 L-972796 212828 L-972248 212827 L-972137 212826 L-971984 212824 L-971929 212823 L-971764 212822 L-971387 212821 L-970939 212820 L-970884 212819 L-970730 212818 L-970050 212817 L-969830 212816 L-969312 212815 L-968463 212813 L-968447 212813 L-966656 212812 L-966102 212811 L-965984 212810 L-964979 212809 L-964942 212808 L-964709 212808 L-964617 212808 L-964577 212808 L-964245 212807 L-963893 212806 L-963628 212804 L-963341 212803 L-963030 212801 L-962776 212799 L-962682 212798 L-962192 212797 L-961985 212796 L-961419 212795 L-961305 212796 L-960954 212795 L-960902 212795 L-960862 212795 L-960259 212793 L-959525 212791 L-958944 212789 L-958708 212787 L-958168 212785 L-958015 212783 L-957514 212782 L-957304 212780 L-957281 212780 L-957222 212779 L-956260 212779 L-956082 212778 L-955640 212777 L-955616 212775 L-955461 212774 L-955379 212774 L-955229 212775 L-954582 212775 L-954532 212774 L-953412 212773 L-952428 212772 L-952367 212771 L-951646 212770 L-950781 212769 L-950402 212768 L-950183 212768 L-949424 212767 L-949372 212766 L-949063 212764 L-948211 212764 L-948018 212763 L-947842 212762 L-947617 212762 L-947490 212761 L-947298 212761 L-947066 212761 L-946896 212761 L-946610 212761 L-946330 212761 L-946247 212760 L-946077 212759 L-946060 212757 L-945906 212756 L-945867 212755 L-945092 212754 L-945015 212754 L-944783 212752 L-944356 212751 L-944011 212750 L-943427 212749 L-943159 212749 L-942900 212749 L-942770 212747 L-942754 212746 L-942640 212745 L-942616 212744 L-942382 212743 L-942346 212742 L-941030 212742 L-940975 212741 L-940296 212739 L-939723 212739 L-939598 212739 L-939445 212739 L-939368 212739 L-939056 212737 L-938783 212736 L-938693 212735 L-938592 212735 L-937664 212734 L-937588 212734 L-937224 212734 L-937199 212733 L-937163 212732 L-936387 212730 L-936295 212729 L-936155 212728 L-935754 212727 L-935492 212727 L-935248 212728 L-935034 212727 L-934954 212727 L-934877 212727 L-934801 212727 L-934614 212728 L-934548 212728 L-934298 212728 L-934243 212727 L-934106 212726 L-934026 212724 L-933913 212723 L-933689 212722 L-933525 212721 L-933484 212720 L-933315 212719 L-932944 212718 L-932929 212717 L-932813 212716 L-932092 212715 L-932056 212714 L-931923 212714 L-931575 212713 L-931164 212713 L-931128 212713 L-931049 212712 L-931011 212711 L-930647 212710 L-930442 212710 L-930427 212709 L-930082 212708 L-929733 212708 L-929407 212708 L-929306 212707 L-929153 212707 L-928959 212706 L-928727 212706 L-928634 212706 L-928479 212706 L-928402 212706 L-928361 212705 L-928247 212704 L-928224 212703 L-927973 212703 L-927835 212701 L-927257 212698 L-926429 212696 L-925941 212694 L-925819 212693 L-925781 212692 L-925768 212691 L-925616 212689 L-925515 212687 L-925282 212686 L-924892 212684 L-924587 212684 L-924572 212683 L-924401 212682 L-924163 212680 L-923566 212680 L-922962 212679 L-922923 212679 L-922882 212679 L-922729 212678 L-922676 212677 L-922613 212676 L-922545 212675 L-922491 212673 L-922465 212672 L-922419 212671 L-922324 212669 L-922187 212668 L-922034 212667 L-921902 212666 L-921861 212666 L-921825 212665 L-921763 212664 L-921490 212662 L-921176 212661 L-921135 212659 L-921050 212658 L-920872 212658 L-920635 212657 L-920277 212656 L-920247 212655 L-919678 212654 L-919555 212653 L-919319 212652 L-919296 212652 L-919015 212651 L-918730 212651 L-918474 212651 L-917902 212650 L-917606 212649 L-917530 212648 L-916830 212647 L-916753 212646 L-916718 212645 L-916691 212644 L-916640 212642 L-916446 212641 L-916306 212639 L-916270 212638 L-916230 212637 L-915634 212636 L-915402 212635 L-915118 212642 L-915064 212648 L-914990 212655 L-914912 212660 L-914676 212658 L-914432 212658 L-914296 212657 L-914190 212656 L-914110 212655 L-913723 212653 L-913596 212652 L-913443 212651 L-913406 212650 L-913260 212649 L-913038 212648 L-912865 212647 L-912796 212646 L-911974 212644 L-911958 212644 L-911663 212643 L-910876 212642 L-910566 212642 L-910419 212641 L-910191 212640 L-909991 212638 L-909054 212637 L-909017 212636 L-908994 212635 L-908953 212633 L-908685 212632 L-908088 212632 L-908025 212631 L-907989 212630 L-907972 212629 L-907277 212629 L-907076 212629 L-907044 212629 L-906710 212629 L-906603 212628 L-905978 212626 L-905474 212625 L-905437 212623 L-904994 212623 L-904898 212622 L-904739 212622 L-904426 212622 L-904414 212622 L-903974 212623 L-903492 212624 L-903363 212624 L-903043 212624 L-902974 212623 L-902670 212623 L-902494 212622 L-902301 212621 L-902058 212619 L-901860 212617 L-901835 212615 L-901256 212614 L-901187 212613 L-900777 212612 L-900723 212611 L-900676 212610 L-900312 212609 L-900166 212608 L-899961 212607 L-899865 212607 L-899709 212606 L-899648 212606 L-899500 212604 L-899400 212603 L-898843 212603 L-898820 212605 L-898648 212606 L-898107 212606 L-898046 212606 L-897992 212605 L-897963 212603 L-897892 212602 L-897876 212600 L-897812 212599 L-897776 212597 L-897621 212596 L-897295 212595 L-896729 212594 L-896715 212593 L-896653 212591 L-896551 212589 L-896505 212589 L-896262 212588 L-895840 212588 L-895685 212588 L-893944 212586 L-893402 212585 L-892459 212584 L-892049 212583 L-891508 212581 L-891312 212581 L-891143 212580 L-890848 212579 L-890733 212578 L-890718 212578 L-890563 212577 L-890423 212576 L-890346 212574 L-890215 212574 L-889867 212574 L-889496 212575 L-888898 212575 L-888722 212575 L-888566 212574 L-888297 212573 L-888146 212573 L-887854 212576 L-887831 212578 L-887748 212580 L-887520 212581 L-886821 212581 L-886694 212580 L-886263 212579 L-886169 212578 L-884964 212578 L-884915 212577 L-884621 212577 L-884218 212576 L-883942 212574 L-883923 212573 L-883805 212572 L-883729 212571 L-883547 212570 L-883067 212569 L-882616 212567 L-882206 212566 L-882175 212565 L-881757 212564 L-881643 212564 L-881525 212564 L-881510 212564 L-881315 212563 L-881294 212561 L-881061 212560 L-880618 212559 L-880299 212557 L-879834 212557 L-879669 212556 L-879514 212555 L-879358 212555 L-878905 212555 L-878585 212555 L-878530 212556 L-878159 212556 L-878122 212557 L-877795 212557 L-877678 212556 L-877580 212555 L-877254 212554 L-876867 212553 L-876606 212552 L-876248 212550 L-875991 212549 L-873821 212548 L-873771 212547 L-873749 212546 L-873338 212546 L-873276 212546 L-873206 212547 L-872975 212547 L-872664 212546 L-872361 212544 L-872317 212543 L-872009 212542 L-871876 212541 L-871659 212540 L-870947 212539 L-870792 212539 L-870654 212538 L-870505 212538 L-870484 212538 L-870289 212537 L-870264 212536 L-870173 212535 L-870151 212534 L-870135 212533 L-870034 212532 L-869106 212531 L-868648 212531 L-867556 212529 L-867133 212529 L-866730 212529 L-866691 212528 L-866437 212527 L-865663 212525 L-865647 212524 L-865622 212523 L-865429 212522 L-864693 212521 L-864424 212520 L-864383 212519 L-863984 212517 L-863959 212516 L-863170 212515 L-862490 212514 L-861119 212513 L-860849 212512 L-860800 212511 L-860263 212509 L-860230 212508 L-860128 212506 L-859804 212505 L-859725 212504 L-859456 212504 L-858543 212503 L-858405 212503 L-858156 212502 L-857610 212502 L-857188 212501 L-856995 212500 L-856980 212500 L-856842 212498 L-856748 212497 L-856621 212496 L-856361 212495 L-856336 212493 L-856245 212492 L-855934 212491 L-855874 212490 L-855757 212490 L-855407 212490 L-854597 212490 L-854365 212488 L-853536 212488 L-853304 212486 L-853088 212485 L-852569 212485 L-851931 212484 L-851515 212483 L-851193 212482 L-850712 212481 L-850286 212481 L-850225 212480 L-849877 212480 L-849836 212479 L-849822 212478 L-849723 212477 L-849677 212477 L-849192 212476 L-848391 212476 L-848056 212476 L-846975 212475 L-846495 212474 L-846472 212473 L-846332 212472 L-845776 212471 L-845079 212470 L-844770 212469 L-844549 212468 L-844444 212467 L-844341 212465 L-843670 212464 L-843576 212463 L-843554 212463 L-843477 212462 L-843299 212462 L-843127 212462 L-842946 212461 L-842933 212460 L-842857 212459 L-842692 212458 L-842177 212457 L-842161 212456 L-842021 212456 L-841658 212455 L-841634 212455 L-841504 212454 L-841479 212453 L-841117 212452 L-840591 212451 L-840498 212450 L-840282 212448 L-840188 212447 L-840164 212446 L-839700 212445 L-839622 212445 L-839221 212444 L-838770 212444 L-837518 212443 L-837480 212442 L-837048 212441 L-837015 212440 L-836296 212439 L-836120 212438 L-835984 212437 L-835678 212436 L-835623 212435 L-835598 212433 L-835582 212431 L-835407 212430 L-835217 212429 L-834710 212429 L-834336 212422 L-833998 212413 L-833959 212405 L-833240 212399 L-833147 212398 L-833108 212397 L-832566 212397 L-832543 212396 L-832141 212395 L-831715 212394 L-831444 212394 L-831264 212393 L-831018 212391 L-830995 212390 L-830939 212388 L-830322 212387 L-829819 212386 L-829432 212386 L-828813 212387 L-828597 212387 L-828442 212388 L-827149 212386 L-827050 212385 L-826608 212383 L-826277 212382 L-825976 212380 L-825734 212379 L-824999 212377 L-824420 212376 L-823590 212375 L-823490 212374 L-822932 212374 L-822794 212373 L-821152 212372 L-821091 212372 L-820998 212372 L-820031 212372 L-819853 212371 L-819566 212371 L-819348 212371 L-819270 212370 L-818999 212370 L-818884 212369 L-818730 212368 L-818420 212367 L-818342 212366 L-818251 212366 L-818173 212365 L-818057 212365 L-817878 212364 L-817786 212363 L-817748 212362 L-817245 212362 L-817026 212361 L-816897 212361 L-816742 212360 L-816687 212359 L-816563 212359 L-816178 212358 L-815669 212357 L-815597 212356 L-815117 212355 L-815040 212354 L-814939 212354 L-814706 212353 L-814241 212353 L-814011 212353 L-813995 212353 L-813763 212353 L-813608 212353 L-813546 212353 L-813353 212352 L-813082 212350 L-812331 212349 L-811378 212349 L-811342 212348 L-811117 212348 L-810677 212348 L-810396 212347 L-810048 212346 L-808979 212345 L-808051 212345 L-807920 212345 L-807874 212345 L-807804 212344 L-807650 212344 L-807572 212342 L-807399 212340 L-806964 212338 L-806760 212337 L-806699 212335 L-806117 212334 L-805963 212332 L-805847 212331 L-805806 212330 L-805637 212329 L-805500 212328 L-805289 212326 L-805212 212325 L-805189 212324 L-804980 212322 L-804570 212322 L-804545 212321 L-804322 212320 L-804177 212319 L-804142 212318 L-804129 212317 L-804106 212316 L-803873 212315 L-803687 212314 L-803470 212313 L-803445 212312 L-802756 212311 L-802652 212310 L-802617 212309 L-802596 212308 L-802402 212307 L-802349 212306 L-802232 212304 L-802150 212304 L-802039 212303 L-801725 212302 L-801265 212301 L-801010 212300 L-800776 212298 L-800646 212297 L-800294 212297 L-800234 212296 L-800082 212295 L-799510 212293 L-799423 212292 L-799270 212290 L-798974 212288 L-798604 212286 L-798301 212284 L-798224 212283 L-797819 212282 L-797651 212282 L-797507 212282 L-796967 212282 L-796906 212282 L-796891 212280 L-796725 212279 L-796519 212278 L-796444 212278 L-796351 212277 L-795941 212276 L-795926 212275 L-795902 212275 L-795709 212274 L-795632 212283 L-795462 212292 L-795400 212299 L-795384 212308 L-794870 212307 L-794648 212306 L-794029 212304 L-793776 212303 L-793582 212302 L-793543 212301 L-793469 212301 L-793404 212301 L-792753 212301 L-792715 212302 L-792540 212302 L-792475 212302 L-791801 212302 L-791412 212300 L-791150 212299 L-790912 212298 L-790834 212297 L-790819 212295 L-790617 212294 L-790246 212292 L-790020 212291 L-789385 212290 L-789365 212290 L-788978 212289 L-788884 212289 L-788826 212288 L-788550 212287 L-788241 212287 L-788163 212286 L-787312 212287 L-786969 212292 L-786532 212297 L-786099 212302 L-785604 212307 L-785454 212306 L-785186 212307 L-783948 212308 L-783891 212310 L-782127 212311 L-781937 212310 L-780927 212309 L-780776 212308 L-780400 212310 L-780079 212312 L-779474 212314 L-779404 212316 L-779227 212315 L-778398 212314 L-778260 212313 L-777873 212312 L-777689 212311 L-777645 212310 L-777525 212309 L-777315 212308 L-776868 212306 L-776520 212305 L-776387 212304 L-775978 212303 L-775628 212303 L-775343 212302 L-775149 212301 L-774995 212301 L-774831 212300 L-774763 212299 L-774663 212299 L-774429 212298 L-774313 212298 L-774260 212297 L-773718 212297 L-773254 212297 L-772071 212297 L-771938 212297 L-771914 212297 L-771861 212297 L-771193 212297 L-770158 212295 L-769965 212294 L-769785 212293 L-769633 212293 L-769593 212292 L-769578 212292 L-769516 212291 L-769191 212290 L-768031 212289 L-767837 212288 L-767660 212287 L-766546 212286 L-765686 212285 L-765580 212285 L-765106 212284 L-764914 212284 L-762592 212283 L-762514 212282 L-762393 212280 L-762359 212279 L-762321 212277 L-762227 212274 L-762011 212272 L-761430 212271 L-761044 212270 L-760271 212269 L-760193 212268 L-759495 212268 L-758954 212268 L-758913 212267 L-758783 212267 L-758319 212266 L-758280 212265 L-758146 212264 L-757778 212263 L-757748 212262 L-757598 212262 L-757197 212261 L-755373 212262 L-754566 212261 L-753848 212261 L-753831 212261 L-753517 212259 L-752956 212258 L-752454 212257 L-751935 212256 L-751914 212255 L-750170 212254 L-750001 212253 L-749805 212252 L-748911 212251 L-748393 212249 L-748182 212248 L-747924 212247 L-747215 212246 L-746264 212245 L-745606 212245 L-745567 212243 L-745280 212242 L-745198 212241 L-745103 212241 L-744971 212240 L-744894 212240 L-744158 212240 L-743821 212239 L-743772 212240 L-743516 212240 L-743230 212239 L-742804 212239 L-742224 212238 L-741965 212238 L-741813 212237 L-741566 212237 L-741528 212237 L-740731 212236 L-740693 212235 L-740516 212235 L-740106 212233 L-739878 212233 L-739802 212233 L-739670 212233 L-739554 212232 L-739206 212231 L-739143 212230 L-738990 212229 L-738249 212228 L-738138 212227 L-737968 212226 L-737929 212225 L-737634 212225 L-737233 212225 L-737057 212225 L-736962 212225 L-736653 212224 L-735851 212223 L-735393 212221 L-734873 212220 L-734384 212219 L-733689 212219 L-732642 212218 L-732373 212218 L-732319 212217 L-732159 212217 L-731907 212217 L-731661 212216 L-731582 212215 L-731368 212213 L-731056 212212 L-730592 212210 L-730578 212209 L-730282 212209 L-730268 212208 L-729277 212207 L-728605 212206 L-728270 212204 L-727654 212204 L-727517 212203 L-726878 212202 L-726748 212201 L-725797 212199 L-725698 212197 L-725138 212196 L-724729 212196 L-724301 212196 L-724210 212195 L-723375 212195 L-723012 212195 L-722972 212196 L-722840 212197 L-722663 212197 L-722446 212197 L-722393 212196 L-722236 212194 L-721983 212193 L-720883 212193 L-720805 212192 L-720586 212191 L-720455 212189 L-720419 212188 L-720225 212187 L-720126 212186 L-719642 212185 L-719358 212184 L-719198 212183 L-719103 212181 L-718831 212180 L-718561 212179 L-718545 212175 L-718407 212172 L-718268 212169 L-717942 212166 L-717633 212164 L-717592 212163 L-717516 212161 L-717401 212160 L-716550 212158 L-716224 212157 L-715893 212156 L-715760 212156 L-715544 212156 L-715528 212156 L-714847 212156 L-714754 212154 L-714730 212153 L-714715 212151 L-714676 212150 L-714264 212148 L-713995 212147 L-713955 212146 L-713587 212146 L-713377 212145 L-712294 212145 L-712278 212144 L-712249 212143 L-712229 212143 L-711852 212142 L-711597 212141 L-711349 212139 L-711209 212137 L-711077 212136 L-710746 212135 L-710653 212134 L-710592 212133 L-710034 212132 L-709972 212131 L-709817 212130 L-709622 212129 L-709430 212128 L-709414 212127 L-709376 212126 L-709337 212125 L-709066 212124 L-708943 212123 L-708911 212122 L-708811 212122 L-708656 212122 L-708514 212122 L-708230 212121 L-707905 212121 L-707209 212120 L-707186 212120 L-706677 212120 L-705831 212120 L-705468 212119 L-705313 212118 L-704709 212118 L-704539 212118 L-704478 212118 L-704423 212117 L-703368 212116 L-703349 212116 L-702443 212116 L-702422 212116 L-702255 212116 L-702013 212116 L-701963 212115 L-701908 212113 L-701770 212112 L-701731 212111 L-700803 212110 L-700748 212110 L-700626 212110 L-700554 212110 L-700438 212110 L-700260 212111 L-699277 212110 L-699138 212110 L-699020 212108 L-698726 212106 L-698478 212105 L-698442 212104 L-698387 212105 L-698366 212105 L-698233 212105 L-698153 212105 L-698016 212104 L-697393 212104 L-697226 212103 L-696762 212103 L-696586 212101 L-696569 212100 L-696509 212099 L-696392 212098 L-695910 212097 L-695214 212096 L-694841 212095 L-694672 212094 L-693706 212093 L-693551 212092 L-693373 212092 L-693281 212091 L-693025 212091 L-692855 212091 L-692208 212090 L-692197 212090 L-691617 212090 L-691479 212090 L-691423 212088 L-690688 212087 L-690649 212086 L-690572 212086 L-689930 212085 L-689156 212085 L-689063 212084 L-689014 212084 L-688999 212083 L-688963 212083 L-688947 212081 L-688884 212080 L-688868 212079 L-688848 212079 L-688693 212078 L-688654 212077 L-688638 212076 L-688599 212075 L-688459 212074 L-688383 212073 L-688018 212072 L-687670 212071 L-686897 212070 L-686294 212069 L-686098 212068 L-685868 212068 L-685730 212067 L-685092 212067 L-684803 212066 L-684781 212066 L-684321 212065 L-684088 212065 L-684033 212064 L-683995 212064 L-683492 212063 L-682942 212062 L-682154 212061 L-681031 212061 L-680136 212060 L-680048 212060 L-679749 212059 L-679677 212058 L-679561 212057 L-678385 212056 L-678036 212055 L-678014 212054 L-677495 212053 L-677348 212052 L-677240 212051 L-677030 212050 L-676876 212049 L-676853 212048 L-676659 212047 L-676582 212046 L-676439 212045 L-675638 212044 L-675492 212043 L-675212 212042 L-675035 212041 L-674725 212040 L-673913 212039 L-672985 212039 L-671393 212038 L-671150 212038 L-670509 212037 L-670313 212036 L-670235 212035 L-669718 212034 L-669486 212034 L-669463 212033 L-669331 212033 L-668992 212032 L-668981 212031 L-668764 212030 L-668727 212029 L-668186 212028 L-667657 212026 L-667589 212025 L-667296 212024 L-666749 212022 L-666713 212021 L-666661 212020 L-666561 212018 L-666329 212018 L-665749 212018 L-665651 212019 L-665577 212019 L-665245 212018 L-664495 212017 L-664456 212016 L-663776 212016 L-663621 212016 L-663295 212015 L-663079 212014 L-662848 212014 L-662551 212013 L-662305 212012 L-661954 212012 L-661901 212011 L-661141 212010 L-660448 212008 L-660098 212006 L-659634 212005 L-659000 212004 L-658592 212003 L-658514 212004 L-658088 212004 L-657445 212003 L-657276 212003 L-656534 212002 L-656347 212001 L-656051 212000 L-655480 211999 L-655454 211998 L-654435 211998 L-653948 211997 L-653855 211997 L-653794 211996 L-653506 211995 L-653220 211994 L-653158 211993 L-652978 211993 L-652267 211992 L-652091 211991 L-651893 211990 L-651741 211989 L-651649 211988 L-651588 211987 L-651046 211987 L-650735 211987 L-650643 211985 L-650566 211983 L-649999 211982 L-649908 211982 L-649653 211980 L-649326 211978 L-649289 211975 L-649135 211972 L-648902 211971 L-648580 211970 L-647448 211969 L-647249 211968 L-646723 211967 L-646478 211967 L-646233 211966 L-646153 211965 L-646133 211963 L-646056 211962 L-646000 211961 L-645923 211960 L-645884 211959 L-645705 211957 L-645668 211956 L-645437 211955 L-644199 211954 L-643872 211953 L-643833 211951 L-643051 211950 L-642904 211949 L-641913 211948 L-641706 211948 L-641280 211948 L-641153 211948 L-640749 211949 L-640661 211948 L-640004 211947 L-639296 211946 L-638688 211945 L-638495 211944 L-638262 211942 L-637643 211941 L-637348 211939 L-636908 211938 L-636754 211937 L-636599 211936 L-635843 211935 L-635492 211934 L-635090 211934 L-635051 211933 L-634045 211933 L-633726 211933 L-633479 211932 L-632779 211930 L-632705 211929 L-632393 211928 L-631313 211927 L-631121 211926 L-630888 211926 L-630693 211925 L-630193 211924 L-629439 211924 L-629325 211924 L-629125 211924 L-629084 211923 L-628991 211922 L-628678 211921 L-628590 211920 L-628474 211919 L-628156 211919 L-628087 211918 L-628062 211917 L-627700 211916 L-627661 211915 L-627445 211914 L-626942 211915 L-626339 211916 L-626128 211918 L-625975 211919 L-625937 211919 L-625893 211917 L-625858 211916 L-625725 211915 L-625316 211914 L-624945 211913 L-624892 211912 L-624876 211911 L-624797 211910 L-624387 211909 L-624234 211909 L-624218 211907 L-624179 211906 L-624000 211904 L-623924 211903 L-623692 211902 L-622903 211901 L-622825 211901 L-622090 211899 L-621934 211898 L-621695 211896 L-621633 211894 L-621548 211893 L-621525 211891 L-621407 211889 L-621393 211887 L-621331 211885 L-621294 211884 L-621199 211883 L-621177 211883 L-621061 211883 L-620828 211882 L-620658 211880 L-619838 211880 L-619437 211879 L-619282 211879 L-618777 211879 L-618663 211879 L-618066 211879 L-617692 211878 L-617640 211878 L-617446 211877 L-616750 211877 L-616712 211876 L-616567 211876 L-616341 211875 L-616080 211874 L-615706 211873 L-615280 211872 L-615151 211871 L-615131 211869 L-614638 211869 L-613941 211868 L-613710 211869 L-613556 211869 L-612587 211869 L-612363 211870 L-612085 211870 L-612069 211869 L-611543 211868 L-611014 211867 L-610866 211866 L-610847 211865 L-610305 211864 L-609995 211863 L-609877 211861 L-609686 211859 L-609549 211857 L-609222 211857 L-609105 211856 L-608796 211856 L-608370 211855 L-608314 211855 L-608081 211856 L-607985 211856 L-607852 211856 L-607555 211856 L-607441 211855 L-607077 211854 L-606764 211854 L-606281 211853 L-606111 211852 L-605863 211851 L-605647 211850 L-605121 211849 L-604934 211847 L-604579 211846 L-603944 211845 L-603789 211843 L-603048 211842 L-602629 211841 L-602449 211840 L-602372 211840 L-602241 211839 L-601948 211838 L-601907 211837 L-601677 211837 L-601484 211836 L-601229 211836 L-600803 211835 L-600694 211834 L-600075 211834 L-599894 211834 L-598682 211834 L-598035 211835 L-597884 211835 L-597847 211835 L-597715 211835 L-597614 211834 L-597598 211833 L-597516 211832 L-597305 211832 L-597188 211831 L-596825 211830 L-596453 211829 L-595757 211828 L-595355 211827 L-595250 211826 L-595232 211825 L-594287 211824 L-594092 211822 L-593940 211821 L-593884 211819 L-593128 211819 L-593111 211821 L-592622 211822 L-592492 211824 L-592299 211824 L-591408 211823 L-591369 211822 L-591331 211821 L-591254 211820 L-591215 211820 L-591138 211819 L-591054 211818 L-590790 211817 L-590557 211816 L-590495 211815 L-590015 211814 L-589678 211814 L-589567 211813 L-589374 211812 L-589197 211811 L-589138 211811 L-589102 211810 L-588832 211809 L-588134 211807 L-588081 211806 L-587787 211804 L-587385 211802 L-586821 211801 L-585947 211800 L-585643 211799 L-585605 211798 L-585482 211797 L-584884 211796 L-584754 211795 L-584554 211794 L-584516 211793 L-583903 211792 L-583724 211791 L-583709 211789 L-583491 211788 L-583413 211786 L-583106 211786 L-582974 211785 L-582742 211785 L-582407 211785 L-582316 211784 L-582215 211783 L-582178 211782 L-581634 211782 L-581442 211781 L-580901 211780 L-580475 211780 L-580343 211780 L-580281 211780 L-580050 211780 L-580034 211780 L-579546 211780 L-579465 211780 L-579447 211780 L-578054 211781 L-577919 211781 L-577805 211780 L-577170 211780 L-577031 211779 L-576913 211778 L-576759 211776 L-576722 211775 L-576644 211774 L-576590 211775 L-575598 211775 L-575561 211774 L-575428 211774 L-575368 211772 L-575269 211771 L-574979 211770 L-574965 211769 L-574655 211769 L-574555 211770 L-574090 211769 L-574036 211871 L-573894 211972 L-573766 212074 L-573534 212176 L-572965 212175 L-572876 212174 L-572853 212174 L-572566 212173 L-571884 212172 L-571806 212171 L-571770 212170 L-571754 212169 L-571554 212168 L-571134 212167 L-570863 212167 L-569990 212166 L-569697 212166 L-569586 212166 L-568852 212165 L-568725 212164 L-568365 212163 L-568113 212163 L-567241 212162 L-567072 212162 L-567011 212161 L-566956 212160 L-566608 212159 L-566585 212158 L-566376 212157 L-566236 212156 L-566105 212155 L-565982 212154 L-565859 212153 L-565622 212152 L-565331 212151 L-564672 212150 L-564650 212149 L-564495 212148 L-564378 212147 L-563414 212146 L-563358 212145 L-563125 212144 L-563103 212143 L-562777 212142 L-562661 212142 L-562622 212142 L-562120 212142 L-561821 212141 L-561709 212140 L-561167 212139 L-560108 212138 L-559482 212137 L-559310 212136 L-559062 212135 L-558806 212134 L-558675 212133 L-558654 212132 L-557986 212131 L-557090 212130 L-557044 212129 L-556974 212128 L-556858 212128 L-556638 212127 L-556447 212127 L-556407 212126 L-556215 212125 L-555556 212125 L-554939 212124 L-554900 212130 L-554304 212136 L-554242 212141 L-553120 212145 L-553065 212145 L-552945 212144 L-552679 212143 L-552615 212143 L-552346 212143 L-552270 212142 L-552054 212142 L-551571 212142 L-551301 212141 L-551170 212141 L-550938 212139 L-550913 212136 L-550898 212132 L-550875 212127 L-550860 212122 L-550836 212117 L-550822 212112 L-550798 212106 L-550783 212100 L-550760 212095 L-550745 212090 L-550722 212086 L-550706 212083 L-550678 212080 L-550660 212076 L-550642 212074 L-550606 212071 L-550566 212069 L-550551 212067 L-550526 212064 L-550474 212063 L-550449 212061 L-550372 212059 L-550335 212058 L-550319 212056 L-550256 212054 L-550242 212052 L-550196 212049 L-550125 212047 L-550087 212046 L-550062 212044 L-550010 212042 L-549985 212041 L-549969 212040 L-549907 212039 L-549870 212038 L-549793 212038 L-549778 212037 L-549750 212035 L-549677 212034 L-549637 212033 L-549484 212031 L-549368 212030 L-549313 212029 L-549231 212028 L-549197 212027 L-549173 212026 L-549019 212025 L-549004 212024 L-548902 212023 L-548592 212022 L-548556 212021 L-548340 212020 L-548229 212020 L-548204 212020 L-547974 212021 L-547742 212021 L-547367 212020 L-547239 212019 L-547199 212018 L-547147 212017 L-547046 212016 L-547009 212015 L-546798 212015 L-546734 212014 L-546621 212014 L-546410 212013 L-546373 212012 L-546001 212012 L-545947 212011 L-545869 212010 L-545847 212009 L-545754 212008 L-545554 212007 L-545516 212007 L-545494 212007 L-545264 212007 L-545244 212006 L-545034 212006 L-544940 212005 L-544902 212004 L-544566 212003 L-544453 212002 L-544413 212001 L-544399 212001 L-544260 212000 L-544245 212000 L-543990 212000 L-543407 211999 L-543331 211998 L-543293 211997 L-543249 211996 L-543200 211995 L-543020 211994 L-543006 211993 L-542906 211992 L-542828 211991 L-542768 211990 L-542402 211988 L-542320 211987 L-542302 211987 L-542249 211986 L-541280 211985 L-541149 211984 L-541127 211983 L-540907 211982 L-540838 211981 L-540816 211980 L-540569 211979 L-540313 211978 L-540182 211977 L-540143 211976 L-540121 211974 L-540066 211972 L-539978 211971 L-539917 211969 L-539692 211968 L-539562 211967 L-539463 211966 L-539408 211965 L-539215 211964 L-539137 211963 L-538804 211962 L-538673 211961 L-538495 211961 L-538480 211960 L-538455 211959 L-538185 211959 L-536984 211958 L-536948 211958 L-536831 211957 L-536598 211956 L-536407 211955 L-536368 211955 L-536312 211954 L-536208 211954 L-535694 211953 L-535400 211952 L-535168 211951 L-534893 211950 L-534876 211949 L-534843 211948 L-534803 211947 L-534766 211946 L-534664 211945 L-534587 211944 L-534494 211943 L-534367 211942 L-534263 211941 L-534084 211941 L-533892 211940 L-533063 211940 L-532947 211939 L-532692 211938 L-532652 211937 L-532553 211936 L-532493 211936 L-532250 211935 L-532227 211935 L-532106 211935 L-532034 211934 L-531995 211933 L-531763 211932 L-531587 211931 L-531067 211930 L-530990 211929 L-530974 211928 L-530563 211928 L-530200 211928 L-530084 211927 L-530061 211927 L-530021 211926 L-529944 211925 L-529891 211924 L-529542 211923 L-529426 211922 L-529249 211922 L-529193 211921 L-529170 211921 L-529056 211920 L-528768 211919 L-528536 211918 L-528321 211917 L-528111 211916 L-527900 211914 L-527074 211913 L-526735 211912 L-525727 211911 L-525364 211910 L-524319 211909 L-524241 211909 L-523794 211908 L-523582 211907 L-523391 211906 L-523096 211905 L-523055 211904 L-522902 211903 L-522849 211901 L-522617 211900 L-522036 211899 L-521842 211898 L-521223 211898 L-520734 211897 L-520682 211896 L-520034 211895 L-519884 211894 L-519714 211893 L-519341 211892 L-519326 211892 L-519227 211891 L-519188 211891 L-519057 211890 L-518624 211890 L-518321 211890 L-517935 211890 L-517795 211889 L-517634 211889 L-517200 211889 L-517161 211888 L-517060 211888 L-516945 211887 L-516767 211887 L-516597 211886 L-516478 211885 L-516117 211883 L-515899 211883 L-515767 211882 L-515627 211882 L-515128 211882 L-515050 211882 L-514816 211881 L-514492 211881 L-514105 211880 L-514082 211879 L-513462 211879 L-513192 211878 L-512959 211878 L-512534 211877 L-512262 211876 L-512121 211875 L-511912 211874 L-511706 211873 L-511155 211872 L-511024 211872 L-510637 211871 L-510367 211871 L-510264 211870 L-510004 211869 L-509802 211868 L-509733 211867 L-509694 211866 L-509127 211865 L-508920 211864 L-508893 211863 L-508664 211862 L-508586 211861 L-508069 211860 L-508031 211859 L-507875 211858 L-507582 211857 L-507310 211857 L-506947 211856 L-506598 211856 L-506226 211855 L-506106 211855 L-506034 211854 L-505554 211853 L-505492 211852 L-505157 211851 L-505026 211850 L-504948 211849 L-504819 211848 L-504355 211848 L-504061 211847 L-503985 211847 L-503673 211846 L-503365 211845 L-503301 211844 L-503272 211843 L-502497 211842 L-502392 211840 L-502304 211839 L-502281 211838 L-502127 211837 L-501906 211836 L-501739 211835 L-501352 211834 L-501297 211833 L-501234 211833 L-500616 211832 L-500500 211832 L-500176 211831 L-499651 211830 L-499300 211829 L-499224 211828 L-498605 211827 L-498194 211826 L-497893 211825 L-497582 211824 L-497444 211823 L-496820 211823 L-496438 211822 L-495315 211822 L-494254 211821 L-494192 211820 L-493831 211819 L-493730 211819 L-493714 211818 L-493340 211818 L-492335 211816 L-491948 211815 L-491741 211813 L-491652 211812 L-491276 211811 L-490984 211810 L-490672 211809 L-489883 211808 L-489796 211807 L-489743 211806 L-489705 211806 L-489187 211805 L-489072 211804 L-488863 211803 L-488724 211802 L-488120 211801 L-487291 211800 L-487008 211799 L-486826 211799 L-486324 211798 L-486119 211798 L-485565 211798 L-485060 211797 L-484869 211796 L-484830 211795 L-484201 211794 L-483748 211793 L-483334 211792 L-482725 211791 L-481605 211791 L-481191 211790 L-480867 211790 L-480652 211789 L-480226 211788 L-480085 211787 L-479994 211786 L-479763 211785 L-479176 211785 L-478368 211784 L-477169 211784 L-477055 211784 L-476923 211783 L-476835 211782 L-476793 211783 L-476773 211784 L-476762 211786 L-476667 211788 L-475904 211788 L-475198 211788 L-475158 211787 L-474872 211786 L-474331 211785 L-474270 211784 L-474230 211783 L-474215 211782 L-473958 211781 L-473634 211780 L-473494 211780 L-473224 211779 L-473185 211778 L-473078 211777 L-472676 211776 L-472567 211775 L-472489 211774 L-472192 211773 L-472149 211772 L-471931 211772 L-471748 211772 L-471637 211772 L-471623 211771 L-471596 211771 L-471172 211770 L-470926 211769 L-470590 211768 L-470555 211767 L-470421 211766 L-470167 211766 L-470013 211765 L-469106 211765 L-469007 211764 L-468812 211762 L-467805 211761 L-467304 211760 L-467226 211759 L-467188 211758 L-466980 211757 L-466861 211756 L-466763 211755 L-466577 211754 L-466412 211754 L-466176 211753 L-465756 211752 L-465741 211751 L-465432 211750 L-464386 211749 L-464169 211748 L-464153 211747 L-464131 211746 L-463922 211745 L-463763 211744 L-463705 211743 L-462260 211742 L-461934 211742 L-461732 211742 L-461533 211742 L-461383 211742 L-461113 211741 L-460672 211740 L-460454 211740 L-459759 211739 L-459257 211738 L-458932 211737 L-458661 211737 L-457940 211736 L-457785 211736 L-456587 211734 L-456198 211733 L-456082 211731 L-455929 211730 L-455775 211729 L-454805 211728 L-454753 211728 L-454505 211727 L-454483 211726 L-454263 211725 L-453825 211723 L-453685 211721 L-453578 211719 L-453376 211718 L-453259 211717 L-453156 211716 L-453142 211716 L-453009 211715 L-452755 211714 L-452137 211713 L-451478 211712 L-451232 211712 L-451039 211711 L-450280 211711 L-450241 211711 L-450163 211710 L-450111 211708 L-450071 211707 L-450033 211706 L-449994 211705 L-449903 211704 L-449859 211703 L-449800 211702 L-449776 211701 L-449661 211700 L-449352 211698 L-449297 211697 L-449275 211696 L-448933 211695 L-448768 211694 L-448732 211692 L-448692 211691 L-448677 211690 L-448445 211689 L-448305 211688 L-448137 211687 L-447687 211687 L-447454 211687 L-447361 211687 L-447341 211688 L-446860 211687 L-446783 211687 L-446656 211686 L-446526 211684 L-446147 211683 L-445906 211681 L-445869 211680 L-445815 211679 L-445677 211677 L-445637 211677 L-445597 211676 L-445367 211675 L-445327 211674 L-445197 211673 L-445018 211672 L-444977 211671 L-444963 211670 L-444799 211669 L-444784 211668 L-444632 211667 L-444616 211666 L-444590 211665 L-444556 211664 L-444334 211662 L-444111 211662 L-443857 211661 L-443725 211662 L-443083 211662 L-442476 211661 L-441456 211661 L-441263 211660 L-441212 211659 L-441087 211658 L-440762 211657 L-439990 211656 L-439932 211655 L-439818 211654 L-439406 211653 L-439081 211652 L-438943 211651 L-438719 211651 L-438193 211650 L-437792 211650 L-437760 211649 L-437474 211649 L-437188 211648 L-436800 211647 L-436584 211646 L-436157 211644 L-435975 211643 L-435639 211642 L-435533 211641 L-435346 211641 L-435229 211640 L-435215 211640 L-434494 211639 L-434324 211638 L-434076 211637 L-433976 211636 L-433334 211635 L-433045 211634 L-432855 211633 L-432580 211632 L-432263 211631 L-431978 211630 L-431864 211628 L-431819 211627 L-431617 211626 L-430008 211625 L-429796 211625 L-429115 211624 L-429033 211623 L-428804 211622 L-428614 211622 L-428475 211621 L-428457 211621 L-428263 211621 L-428033 211621 L-427841 211621 L-426757 211620 L-426561 211620 L-426509 211620 L-426355 211620 L-426247 211620 L-426081 211620 L-425928 211619 L-425813 211618 L-425689 211616 L-425272 211615 L-425015 211613 L-424922 211612 L-424729 211612 L-424668 211611 L-424342 211611 L-424281 211611 L-424224 211610 L-423955 211609 L-423607 211608 L-423428 211607 L-423234 211606 L-423198 211607 L-422485 211607 L-422446 211609 L-422136 211610 L-421839 211611 L-421789 211612 L-421533 211613 L-421263 211614 L-421207 211614 L-420116 211614 L-420086 211613 L-420045 211613 L-419869 211613 L-419676 211612 L-418818 211612 L-417765 211611 L-417704 211610 L-417355 211609 L-416542 211609 L-415729 211609 L-415714 211609 L-415339 211609 L-415170 211609 L-414902 211609 L-414574 211608 L-414452 211607 L-414396 211607 L-414360 211606 L-414283 211606 L-414066 211605 L-414007 211604 L-413691 211603 L-413524 211602 L-413160 211602 L-412967 211602 L-412943 211602 L-412866 211601 L-412385 211601 L-412248 211601 L-411834 211600 L-411535 211600 L-411436 211599 L-411420 211599 L-411391 211598 L-411032 211597 L-410682 211596 L-410545 211595 L-410508 211595 L-409691 211594 L-409485 211593 L-409461 211592 L-409304 211592 L-409215 211591 L-408973 211591 L-408649 211590 L-408557 211590 L-408361 211589 L-408075 211589 L-407319 211588 L-407190 211587 L-407116 211586 L-406503 211585 L-406328 211584 L-406217 211583 L-406117 211582 L-406038 211581 L-405901 211580 L-405747 211580 L-405668 211580 L-405477 211580 L-404804 211580 L-404765 211579 L-404663 211578 L-403719 211577 L-403698 211576 L-403346 211575 L-402882 211574 L-402846 211573 L-402417 211573 L-402365 211573 L-401954 211572 L-401937 211572 L-401841 211572 L-401786 211572 L-401747 211572 L-401452 211571 L-399714 211570 L-398204 211569 L-397696 211568 L-397198 211567 L-397064 211566 L-396974 211565 L-396846 211564 L-396767 211562 L-396462 211561 L-396191 211560 L-395957 211560 L-394758 211559 L-394653 211559 L-394588 211558 L-393746 211557 L-393560 211556 L-392649 211555 L-391780 211553 L-391492 211552 L-391400 211550 L-390851 211549 L-390331 211548 L-389263 211548 L-388994 211547 L-388840 211547 L-388747 211547 L-388617 211548 L-388570 211548 L-388410 211548 L-387545 211548 L-387210 211548 L-386826 211548 L-386074 211547 L-386014 211546 L-385625 211546 L-385303 211546 L-385146 211545 L-384414 211545 L-384352 211545 L-384064 211545 L-383690 211545 L-383509 211545 L-383253 211544 L-382992 211542 L-382839 211541 L-382436 211540 L-381139 211539 L-381023 211538 L-380560 211537 L-379228 211536 L-378803 211535 L-378779 211534 L-378646 211533 L-378471 211532 L-378337 211532 L-378007 211531 L-377620 211530 L-377580 211529 L-377564 211527 L-377174 211526 L-376882 211525 L-376613 211525 L-376440 211525 L-374947 211525 L-374896 211524 L-374818 211525 L-373578 211526 L-373503 211526 L-373476 211528 L-373230 211527 L-373072 211527 L-373014 211526 L-372126 211526 L-371898 211525 L-371374 211525 L-371233 211526 L-371157 211526 L-370461 211527 L-370213 211527 L-369533 211526 L-369515 211526 L-369261 211525 L-368894 211525 L-368758 211524 L-368136 211522 L-367793 211522 L-367745 211521 L-367258 211520 L-366924 211518 L-366707 211518 L-366573 211517 L-366252 211516 L-366187 211516 L-365935 211515 L-365646 211514 L-365336 211513 L-365196 211512 L-364657 211511 L-364381 211510 L-363652 211509 L-363598 211509 L-363491 211509 L-363225 211509 L-362801 211509 L-362537 211508 L-362317 211507 L-362296 211506 L-362065 211505 L-361778 211504 L-361755 211504 L-361740 211503 L-361368 211503 L-361196 211502 L-361120 211500 L-361059 211499 L-360758 211497 L-360517 211496 L-360425 211495 L-360168 211494 L-360115 211493 L-359920 211492 L-359703 211493 L-359280 211493 L-359188 211494 L-359047 211493 L-358182 211492 L-357809 211491 L-357481 211489 L-357329 211488 L-356901 211488 L-356184 211487 L-355989 211487 L-355634 211486 L-355488 211485 L-354981 211483 L-354745 211482 L-353778 211481 L-353768 211480 L-352703 211479 L-352470 211478 L-352068 211477 L-351874 211476 L-351794 211475 L-351698 211474 L-350961 211474 L-350829 211474 L-350439 211474 L-350417 211473 L-350322 211473 L-350187 211472 L-350169 211471 L-350149 211470 L-348464 211470 L-348446 211470 L-348329 211469 L-348245 211469 L-348120 211469 L-348096 211468 L-347812 211467 L-347706 211466 L-347517 211464 L-347247 211463 L-346575 211462 L-346203 211461 L-345351 211461 L-345294 211460 L-345274 211460 L-345041 211460 L-344766 211459 L-344461 211459 L-344421 211457 L-344190 211457 L-343953 211456 L-343340 211455 L-343299 211454 L-343262 211452 L-342740 211451 L-342549 211450 L-342488 211449 L-342446 211448 L-342123 211448 L-342095 211447 L-342081 211447 L-341596 211446 L-341542 211445 L-341404 211444 L-341366 211444 L-341349 211443 L-341254 211442 L-340589 211442 L-339973 211441 L-339703 211441 L-339295 211441 L-339275 211440 L-339259 211440 L-339146 211439 L-338759 211438 L-338292 211438 L-338231 211437 L-338153 211436 L-338138 211435 L-337652 211433 L-337612 211432 L-337467 211432 L-337417 211431 L-337339 211432 L-336706 211431 L-336616 211431 L-336375 211431 L-336258 211430 L-335930 211430 L-335176 211429 L-335159 211429 L-334208 211429 L-333899 211428 L-333473 211427 L-332760 211426 L-332441 211425 L-332426 211424 L-332275 211422 L-331972 211421 L-331894 211420 L-331767 211419 L-331330 211419 L-331269 211419 L-330746 211419 L-330478 211419 L-330340 211418 L-330262 211418 L-330223 211417 L-329412 211417 L-329371 211417 L-328931 211417 L-328853 211417 L-328595 211416 L-328405 211415 L-327776 211414 L-327589 211413 L-327555 211411 L-327398 211410 L-326997 211408 L-326920 211407 L-326739 211406 L-326548 211405 L-325620 211403 L-325469 211402 L-324261 211401 L-323452 211400 L-323048 211399 L-322446 211398 L-322244 211397 L-322175 211396 L-322017 211395 L-321755 211394 L-321382 212257 L-321364 212256 L-321207 212256 L-320009 212256 L-318905 211393 L-317977 211392 L-317863 211391 L-317578 211390 L-317476 211389 L-317452 211389 L-317262 211387 L-317184 211386 L-316988 211386 L-316277 211386 L-316119 211387 L-315062 211387 L-314637 211387 L-314227 211386 L-313941 211384 L-313766 211383 L-313534 211382 L-313280 211381 L-312838 211380 L-312177 211379 L-312001 211378 L-311696 211377 L-311309 211376 L-311289 211375 L-311270 211374 L-311249 211373 L-311115 211372 L-310923 211371 L-309279 211370 L-307982 211369 L-307943 211368 L-307885 211367 L-307784 211367 L-307225 211366 L-306241 211365 L-305698 211363 L-305235 211362 L-304589 211361 L-304040 211360 L-302990 211359 L-302062 211358 L-301714 211357 L-301520 211356 L-301018 211355 L-300572 211355 L-300430 211354 L-300409 211354 L-299838 211354 L-299452 211352 L-298619 211351 L-298270 211350 L-298248 211349 L-297861 211349 L-297438 211348 L-296839 211347 L-296820 211346 L-296314 211346 L-296082 211345 L-295969 211345 L-295350 211343 L-294788 211342 L-294748 211341 L-294189 211341 L-293856 211340 L-293744 211340 L-293705 211339 L-293280 211339 L-293220 211339 L-293145 211338 L-292854 211338 L-292641 211337 L-292158 211335 L-291943 211334 L-290803 211333 L-290744 211332 L-290726 211331 L-290320 211330 L-289681 211329 L-289546 211328 L-289488 211327 L-288946 211326 L-288637 211325 L-288386 211325 L-288310 211324 L-288191 211323 L-287457 211321 L-287012 211320 L-286798 211319 L-286064 211318 L-285890 211317 L-285524 211317 L-285309 211317 L-284071 211317 L-283762 211317 L-283645 211317 L-283392 211316 L-283182 211315 L-282639 211315 L-282407 211314 L-282350 211314 L-282253 211313 L-281923 211313 L-281691 211312 L-280029 211311 L-279678 211310 L-279274 211308 L-279119 211307 L-278326 211306 L-276836 211305 L-276449 211304 L-276410 211303 L-276157 211302 L-276062 211301 L-275869 211300 L-275520 211300 L-274824 211299 L-274573 211299 L-273857 211298 L-272445 211297 L-272213 211296 L-271883 211296 L-270667 211296 L-270315 211297 L-270123 211298 L-270005 211299 L-267570 211299 L-266601 211298 L-265770 211297 L-265461 211296 L-264119 211295 L-263546 211294 L-263430 211293 L-263101 211293 L-263005 211292 L-262597 211292 L-262482 211291 L-262291 211290 L-261535 211289 L-261409 211289 L-261128 211288 L-260625 211287 L-260548 211286 L-258961 211290 L-258903 211295 L-258162 211301 L-257781 211306 L-257452 211305 L-256789 211304 L-256659 211303 L-256619 211303 L-256369 211303 L-256233 211303 L-256040 211302 L-255905 211302 L-255653 211300 L-255441 211300 L-255131 211299 L-254859 211299 L-254357 211299 L-254338 211299 L-253904 211298 L-253678 211297 L-253235 211296 L-253216 211295 L-252713 211294 L-252575 211293 L-252461 211292 L-252229 211291 L-251919 211290 L-251454 211289 L-251377 211289 L-250875 211288 L-250604 211287 L-250266 211286 L-250081 211285 L-249405 211284 L-249386 211284 L-249211 211283 L-249191 211282 L-248573 211281 L-247857 211280 L-247295 211279 L-247100 211279 L-246947 211278 L-246928 211278 L-246405 211276 L-246290 211275 L-245419 211274 L-245398 211273 L-245341 211272 L-244510 211271 L-244200 211270 L-244124 211269 L-243852 211268 L-243789 211268 L-243738 211266 L-243427 211264 L-242810 211263 L-242035 211262 L-241241 211261 L-241202 211260 L-241125 211259 L-240953 211258 L-240075 211257 L-239190 211256 L-239095 211255 L-238976 211254 L-238646 211253 L-238610 211253 L-238378 211252 L-238144 211252 L-237429 211250 L-236927 211249 L-236262 211248 L-236153 211247 L-235999 211246 L-235979 211245 L-235824 211244 L-235409 211243 L-234798 211242 L-234663 211241 L-233755 211240 L-233552 211239 L-233000 211238 L-230350 211238 L-230175 211237 L-230098 211235 L-229226 211234 L-228762 211233 L-228280 211232 L-228241 211230 L-227660 211229 L-227640 211228 L-226538 211227 L-225117 211226 L-224699 211225 L-224392 211224 L-224314 211223 L-224238 211222 L-224081 211221 L-224005 211220 L-223540 211219 L-222302 211218 L-222051 211217 L-221606 211216 L-220984 211215 L-220928 211214 L-220735 211214 L-220270 211213 L-219979 211212 L-219938 211210 L-219902 211208 L-219749 211206 L-219571 211205 L-218433 211203 L-218045 211202 L-217988 211201 L-217814 211200 L-215297 211198 L-214137 211197 L-213500 211196 L-213361 211195 L-213229 211193 L-212841 211192 L-212378 211191 L-212167 211189 L-212101 211188 L-212068 211187 L-211314 211186 L-210732 211186 L-210540 211185 L-209922 211184 L-209875 211183 L-209515 211182 L-209409 211181 L-209224 211180 L-208947 211179 L-208043 211178 L-207038 211177 L-206303 211176 L-205878 211175 L-205717 211174 L-205354 211173 L-205257 211172 L-204814 211171 L-204738 211170 L-204386 211170 L-204137 211168 L-204117 211166 L-203943 211164 L-202995 211161 L-202881 211160 L-202318 211160 L-201868 211159 L-201483 211158 L-200572 211157 L-200517 211156 L-199378 211155 L-198797 211153 L-198622 211152 L-197829 211150 L-197597 211149 L-197211 211148 L-196940 211147 L-196805 211146 L-196689 211145 L-196070 211145 L-196012 211145 L-195797 211145 L-195503 211145 L-194714 211144 L-194574 211144 L-193186 211143 L-192839 211143 L-192452 211142 L-192391 211140 L-192354 211139 L-192298 211138 L-191654 211137 L-190963 211136 L-190711 211136 L-190375 211135 L-190286 211135 L-189765 211134 L-189512 211134 L-189296 211132 L-188913 211131 L-188753 211130 L-188214 211128 L-187402 211127 L-187383 211126 L-187267 211126 L-187123 211125 L-186742 211125 L-186550 211125 L-186494 211124 L-186194 211123 L-186128 211122 L-185932 211121 L-185565 211120 L-185504 211119 L-185200 211118 L-185154 211118 L-185101 211117 L-184463 211117 L-184443 211116 L-183958 211115 L-183476 211116 L-183107 211116 L-182741 211117 L-182606 211117 L-182452 211116 L-182382 211115 L-181734 211115 L-181715 211114 L-181574 211114 L-181089 211113 L-180806 211113 L-180748 211112 L-180690 211112 L-180380 211111 L-180226 211110 L-179742 211110 L-178969 211110 L-178329 211110 L-178232 211109 L-177169 211109 L-177148 211108 L-176683 212271 L-176666 212271 L-176493 212271 L-175980 212271 L-173626 211108 L-172681 211107 L-171962 211106 L-171422 211104 L-170725 211103 L-170408 211102 L-169760 211101 L-169252 211100 L-169218 211099 L-169176 211098 L-168830 211097 L-168135 211096 L-167939 211095 L-167922 211093 L-167806 211092 L-167524 211091 L-166627 211089 L-166580 211088 L-166215 211086 L-166197 211085 L-166142 211084 L-165949 211083 L-165813 211083 L-165738 211082 L-165504 211081 L-164963 211080 L-164922 211079 L-164885 211078 L-164860 211077 L-164224 211075 L-163682 211074 L-162517 211073 L-162157 211072 L-160880 211072 L-160841 211071 L-160803 211071 L-160588 211070 L-160397 211069 L-160320 211068 L-160166 211067 L-160127 211066 L-159038 211065 L-158714 211065 L-158500 211064 L-158239 211064 L-157746 211064 L-157724 211068 L-157308 211072 L-157166 211075 L-157106 211079 L-157029 211079 L-156818 211078 L-155523 211078 L-155247 211077 L-154623 211076 L-153232 211075 L-153159 211074 L-153121 211072 L-152928 211071 L-152538 211070 L-152231 211069 L-152175 211068 L-151859 211068 L-151809 211068 L-151770 211067 L-151725 211066 L-151092 211065 L-150318 211064 L-149879 211063 L-149737 212236 L-149714 212235 L-149697 213407 L-149672 213407 L-149255 212235 L-149051 212234 L-148902 211060 L-148824 211059 L-148770 211058 L-147973 211058 L-147956 211058 L-147093 211058 L-146889 211058 L-146602 211057 L-146486 211057 L-145961 211056 L-145784 211055 L-145480 211054 L-145093 211053 L-145033 211051 L-144977 211050 L-144823 211049 L-143778 211048 L-143216 211048 L-142980 211047 L-142943 211047 L-142674 211047 L-142268 211046 L-140799 211045 L-139058 211044 L-138671 211043 L-138439 211042 L-138340 211041 L-138245 211040 L-138091 211038 L-137527 211038 L-137445 211037 L-137278 211037 L-136736 211038 L-135551 211038 L-135537 211038 L-135477 211038 L-135326 211037 L-134841 211036 L-134194 211035 L-133488 211033 L-133371 211032 L-132404 211031 L-132359 211031 L-131669 211031 L-131612 211030 L-131534 211030 L-131514 211029 L-131493 211028 L-131278 211027 L-130565 211027 L-130175 211026 L-130138 211025 L-130121 211024 L-130063 211023 L-129636 211022 L-129422 211021 L-129347 211019 L-129269 211018 L-129154 211017 L-129089 211017 L-128961 211016 L-128901 211016 L-128826 211014 L-128747 211013 L-128318 211012 L-127593 211011 L-127579 211009 L-127412 211008 L-127196 211006 L-127181 211005 L-126600 211004 L-126329 211003 L-126040 211002 L-125610 211001 L-125457 211000 L-125400 210999 L-125224 210998 L-123828 210997 L-123563 210995 L-122670 210993 L-122144 210992 L-121125 210990 L-121044 210989 L-120580 210988 L-119961 210988 L-119675 210987 L-119421 210987 L-119269 210986 L-118921 210985 L-118204 210984 L-117643 210983 L-116754 210982 L-116445 210982 L-116154 210982 L-115302 210982 L-115281 210982 L-114624 210982 L-114121 210980 L-113910 210979 L-113890 210979 L-113561 210978 L-113502 210978 L-113116 210978 L-112130 210978 L-111569 210978 L-111472 210978 L-111163 210977 L-111086 210977 L-110051 210976 L-109921 210975 L-109864 210974 L-109229 210973 L-109170 210972 L-109095 210971 L-107681 210970 L-107544 210969 L-107410 210968 L-106924 210967 L-106675 210966 L-106384 210965 L-106172 210964 L-105514 210963 L-104946 210961 L-104857 210960 L-104717 210959 L-104643 210958 L-103478 210958 L-103446 210957 L-103016 210957 L-102999 210956 L-102825 210955 L-101297 210954 L-101213 210955 L-100407 210955 L-100214 210955 L-100192 210955 L-99339 210954 L-99145 210954 L-98512 210953 L-98336 210952 L-98217 210951 L-98163 210951 L-98142 210951 L-98086 210951 L-97698 210951 L-97254 210951 L-97175 210950 L-96978 210950 L-96917 210949 L-96654 210948 L-96306 210948 L-96190 210947 L-95042 210947 L-94757 210946 L-94312 210945 L-93109 210944 L-92979 210943 L-92669 210942 L-92241 210941 L-90944 210940 L-90634 212070 L-90618 212070 L-90572 212092 L-90522 212092 L-89594 210960 L-89264 210960 L-88716 210937 L-88588 210936 L-88142 210935 L-86609 210934 L-86440 210933 L-86169 210932 L-86145 210930 L-85240 210929 L-85125 210928 L-84657 210928 L-84635 210927 L-84562 210926 L-84364 210925 L-84212 210924 L-83745 210923 L-83094 210922 L-82608 210921 L-82058 210921 L-81036 210921 L-80730 210921 L-80675 210921 L-80075 210920 L-79645 210919 L-79571 210919 L-79553 210918 L-79332 210918 L-79028 210917 L-78946 210916 L-78642 210916 L-78043 210915 L-77906 210914 L-77636 210913 L-77422 210912 L-77247 210912 L-77038 210912 L-77016 210912 L-76767 210924 L-76318 210935 L-76302 210947 L-75856 210958 L-74648 210958 L-74446 210957 L-73517 210957 L-73456 210956 L-73421 210955 L-72396 210954 L-72280 210954 L-72259 210954 L-72105 210954 L-72086 210954 L-71675 210953 L-71659 210953 L-71621 210952 L-71311 210951 L-71157 210950 L-70953 210950 L-70554 210949 L-69571 210949 L-69046 210949 L-68990 210948 L-68964 210948 L-68642 210947 L-67925 210947 L-67056 210947 L-67018 210947 L-66940 210947 L-66689 210946 L-66669 210945 L-65946 210945 L-65796 210944 L-65683 210944 L-65586 210943 L-64484 210942 L-63729 210941 L-63557 210940 L-63396 210939 L-63320 210938 L-63126 210938 L-61988 210937 L-61303 210937 L-61020 210936 L-60053 210935 L-60034 210934 L-59183 210933 L-59144 210932 L-59001 210931 L-58676 210930 L-58446 210929 L-58408 210928 L-58367 210928 L-58351 210926 L-58215 210925 L-58196 210924 L-57985 210923 L-57925 210922 L-57847 210921 L-57823 210920 L-57748 210919 L-57268 210918 L-57171 210917 L-57095 210916 L-56919 210915 L-56896 210914 L-56841 210913 L-56803 210912 L-56744 210911 L-56589 210910 L-55565 210909 L-55266 210908 L-55139 210907 L-55061 210906 L-54036 210905 L-53979 210904 L-53921 210903 L-53875 210902 L-53861 210902 L-53824 210901 L-53786 210900 L-52606 210899 L-52547 210898 L-51851 210898 L-51231 210897 L-51089 210897 L-50646 210896 L-50380 210895 L-49717 210895 L-49433 210894 L-47963 210894 L-47014 210893 L-46909 210892 L-46842 210892 L-46813 210891 L-46493 210890 L-46472 210890 L-45543 210890 L-45367 210891 L-44636 210892 L-44095 159038 L-44071 107183 L-44045 55327 L-44012 3472 L-43996 3471 L-43975 3469 L-43937 3467 L-43918 3467 L-43895 3469 L-43880 3470 L-43861 3471 L-43841 3471 L-43819 3469 L-43803 3468 L-43783 3467 L-43764 3467 L-43725 3467 L-43685 3465 L-43660 3464 L-43644 3461 L-43626 3459 L-43589 3457 L-43570 3456 L-43551 3455 L-43532 3454 L-43510 3452 L-43493 3451 L-43454 3448 L-43432 3445 L-43416 3444 L-43397 3442 L-43377 3441 L-43357 3440 L-43339 3438 L-43300 3438 L-43242 3437 L-43194 3435 L-43143 3434 L-43116 3432 L-43100 3430 L-43083 3429 L-43068 3428 L-43047 3427 L-43029 3427 L-43009 3425 L-42989 3424 L-42967 3422 L-42951 3419 L-42933 3417 L-42913 3416 L-42891 3414 L-42854 3412 L-42835 3411 L-42814 3409 L-42778 3407 L-42757 3406 L-42731 3405 L-42715 3404 L-42698 3402 L-42681 3397 L-42660 3392 L-42642 3386 L-42622 3383 L-42603 3380 L-42545 3378 L-42525 3375 L-42503 3373 L-42469 3370 L-42448 3367 L-42428 3365 L-42410 3363 L-42391 3362 L-42352 3361 L-42333 3360 L-42314 3358 L-42288 3357 L-42100 3355 L-42080 3353 L-42061 3352 L-42038 3350 L-42004 3348 L-41984 3346 L-41962 3343 L-41945 3340 L-41926 3337 L-41907 3335 L-41886 3333 L-41868 3331 L-41850 3329 L-41828 3327 L-41803 3325 L-41787 3323 L-41752 3321 L-41731 3320 L-41713 3318 L-41694 3317 L-41675 3315 L-41653 3313 L-41617 3311 L-41597 3309 L-41575 3308 L-41559 3306 L-41540 3304 L-41520 3302 L-41500 3301 L-41463 3299 L-41385 3298 L-41360 3296 L-41337 3294 L-41309 3291 L-41286 3289 L-41260 3287 L-41210 3285 L-41190 3284 L-41152 3282 L-41133 3280 L-41111 3279 L-41095 3277 L-41076 3276 L-41056 3275 L-41035 3274 L-40998 3272 L-40978 3271 L-40921 3270 L-40900 3269 L-40875 3269 L-40860 3268 L-40843 3268 L-40805 3267 L-40785 3265 L-40766 3263 L-40746 3261 L-40726 3259 L-40708 3257 L-40689 3255 L-40669 3253 L-40648 3251 L-40611 3249 L-40591 3248 L-40573 3247 L-40534 3246 L-40495 3245 L-40475 3244 L-40457 3243 L-40408 3242 L-40380 3241 L-40341 3239 L-40311 3238 L-40296 3236 L-40223 3234 L-40204 3232 L-40182 3231 L-40166 3231 L-40147 3230 L-40107 3230 L-40030 3228 L-40011 3227 L-39992 3225 L-39971 3224 L-39946 3223 L-39914 3222 L-39895 3222 L-39876 3220 L-39838 3218 L-39797 3215 L-39718 3212 L-39683 3210 L-39644 3208 L-39566 3207 L-39547 3206 L-39502 3206 L-39480 3206 L-39452 3206 L-39412 3205 L-39382 3204 L-39367 3202 L-39353 3200 L-39312 3198 L-39251 3197 L-39237 3195 L-39218 3193 L-39198 3191 L-39121 3188 L-39082 3186 L-39064 3184 L-39017 3183 L-39001 3182 L-38982 3181 L-38966 3180 L-38928 3178 L-38907 3176 L-38889 3173 L-38867 3171 L-38851 3169 L-38811 3167 L-38773 3165 L-38754 3163 L-38734 3160 L-38714 3156 L-38696 3153 L-38677 3149 L-38657 3147 L-38637 3146 L-38573 3145 L-38551 3144 L-38523 3143 L-38499 3140 L-38473 3137 L-38457 3133 L-38441 3129 L-38404 3128 L-38386 3126 L-38366 3125 L-38346 3124 L-38323 3122 L-38308 3121 L-38289 3120 L-38270 3117 L-38248 3113 L-38231 3110 L-38211 3107 L-38192 3105 L-38171 3103 L-38154 3102 L-38135 3101 L-38088 3100 L-38072 3098 L-38054 3096 L-38038 3093 L-38017 3090 L-37999 3087 L-37979 3084 L-37960 3080 L-37922 3079 L-37903 3078 L-37860 3077 L-37845 3076 L-37826 3074 L-37806 3071 L-37767 3069 L-37748 3068 L-37728 3066 L-37690 3065 L-37671 3063 L-37645 3061 L-37595 3060 L-37557 3059 L-37542 3058 L-37496 3057 L-37457 3055 L-37438 3054 L-37418 3052 L-37395 3051 L-37380 3050 L-37361 3048 L-37319 3047 L-37303 3045 L-37264 3042 L-37243 3040 L-37226 3037 L-37185 3034 L-37160 3032 L-37143 3030 L-37109 3028 L-37089 3025 L-37070 3022 L-37050 3017 L-37009 3012 L-36993 3007 L-36916 3004 L-36897 3002 L-36857 3001 L-36839 2999 L-36820 2998 L-36800 2998 L-36781 2997 L-36761 2997 L-36666 2998 L-36641 2997 L-36614 2996 L-36583 2994 L-36568 2992 L-36547 2990 L-36509 2988 L-36489 2986 L-36466 2984 L-36451 2983 L-36432 2982 L-36412 2980 L-36390 2978 L-36374 2976 L-36354 2974 L-36335 2973 L-36314 2971 L-36297 2968 L-36278 2966 L-36257 2965 L-36231 2963 L-36215 2960 L-36196 2957 L-36159 2954 L-36142 2950 L-36122 2947 L-36103 2945 L-36081 2941 L-36045 2939 L-36025 2936 L-36003 2933 L-35988 2931 L-35969 2929 L-35948 2927 L-35910 2925 L-35871 2924 L-35852 2923 L-35833 2922 L-35788 2921 L-35686 2921 L-35670 2920 L-35538 2919 L-35523 2918 L-35504 2914 L-35484 2911 L-35462 2909 L-35426 2906 L-35407 2905 L-35386 2904 L-35328 2902 L-35303 2900 L-35287 2898 L-35269 2896 L-35252 2894 L-35232 2893 L-35213 2892 L-35175 2890 L-35153 2889 L-35117 2888 L-35097 2887 L-35075 2886 L-35020 2886 L-35000 2885 L-34943 2884 L-34904 2883 L-34837 2882 L-34809 2880 L-34786 2878 L-34760 2876 L-34727 2874 L-34710 2873 L-34690 2871 L-34672 2874 L-34652 2876 L-34633 2879 L-34611 2882 L-34594 2881 L-34498 2880 L-34440 2879 L-34400 2878 L-34375 2875 L-34343 2873 L-34305 2871 L-34266 2869 L-34246 2867 L-34208 2865 L-34169 2863 L-34130 2861 L-34111 2860 L-34073 2858 L-34053 2856 L-34034 2855 L-34014 2854 L-33995 2853 L-33975 2852 L-33957 2850 L-33930 2847 L-33880 2844 L-33841 2843 L-33811 2841 L-33796 2839 L-33782 2838 L-33743 2836 L-33724 2834 L-33682 2832 L-33666 2830 L-33647 2828 L-33607 2825 L-33570 2823 L-33530 2821 L-33492 2820 L-33446 2818 L-33432 2818 L-33356 2817 L-33318 2816 L-33297 2816 L-33279 2814 L-33260 2813 L-33163 2811 L-33124 2809 L-33066 2807 L-33047 2805 L-33028 2803 L-33002 2803 L-32980 2802 L-32913 2801 L-32896 2801 L-32881 2800 L-32868 2799 L-32832 2798 L-32775 2797 L-32751 2795 L-32718 2793 L-32698 2792 L-32659 2789 L-32639 2786 L-32621 2783 L-32599 2781 L-32582 2779 L-32564 2778 L-32542 2776 L-32517 2774 L-32466 2773 L-32445 2771 L-32389 2770 L-32369 2768 L-32273 2767 L-32254 2766 L-32215 2765 L-32196 2764 L-32177 2761 L-32138 2760 L-32118 2759 L-32100 2758 L-32051 2757 L-31999 2757 L-31973 2756 L-31957 2754 L-31940 2753 L-31925 2751 L-31886 2749 L-31866 2748 L-31846 2746 L-31789 2744 L-31769 2742 L-31747 2740 L-31731 2738 L-31711 2735 L-31692 2733 L-31635 2730 L-31614 2727 L-31588 2724 L-31553 2720 L-31538 2717 L-31517 2715 L-31499 2714 L-31479 2713 L-31460 2711 L-31438 2709 L-31422 2708 L-31402 2707 L-31383 2706 L-31360 2704 L-31345 2702 L-31326 2700 L-31306 2698 L-31286 2697 L-31248 2696 L-31228 2693 L-31209 2690 L-31144 2687 L-31122 2684 L-31094 2682 L-31055 2679 L-31023 2676 L-31009 2673 L-30975 2671 L-30937 2669 L-30918 2668 L-30895 2666 L-30880 2665 L-30861 2663 L-30841 2661 L-30802 2660 L-30782 2658 L-30743 2657 L-30685 2655 L-30660 2654 L-30625 2652 L-30609 2650 L-30588 2648 L-30570 2646 L-30531 2644 L-30510 2643 L-30493 2641 L-30473 2639 L-30454 2637 L-30431 2635 L-30416 2632 L-30397 2630 L-30320 2629 L-30300 2627 L-30280 2625 L-30261 2623 L-30242 2621 L-30217 2619 L-30142 2617 L-30116 2615 L-30100 2612 L-30083 2612 L-30068 2610 L-30047 2608 L-30029 2606 L-29989 2605 L-29967 2604 L-29951 2603 L-29933 2601 L-29913 2600 L-29891 2598 L-29874 2597 L-29778 2595 L-29757 2593 L-29731 2592 L-29698 2590 L-29681 2588 L-29660 2586 L-29642 2585 L-29622 2584 L-29603 2583 L-29581 2582 L-29565 2580 L-29545 2578 L-29526 2576 L-29503 2574 L-29487 2572 L-29469 2571 L-29429 2569 L-29410 2567 L-29371 2565 L-29314 2564 L-29288 2562 L-29266 2560 L-29238 2559 L-29214 2557 L-29188 2555 L-29155 2554 L-29139 2553 L-29119 2553 L-29100 2553 L-29080 2553 L-29061 2553 L-29023 2551 L-29004 2549 L-28984 2546 L-28963 2544 L-28926 2542 L-28907 2541 L-28886 2539 L-28868 2537 L-28849 2536 L-28828 2534 L-28803 2533 L-28788 2531 L-28770 2529 L-28752 2526 L-28732 2524 L-28713 2521 L-28694 2518 L-28675 2516 L-28617 2513 L-28597 2512 L-28575 2510 L-28481 2508 L-28443 2508 L-28423 2514 L-28404 2521 L-28385 2532 L-28288 2542 L-28260 2545 L-28228 2548 L-28210 2547 L-28111 2546 L-28094 2544 L-28076 2543 L-28056 2541 L-28035 2539 L-28017 2536 L-27998 2534 L-27979 2531 L-27959 2528 L-27921 2526 L-27900 2525 L-27843 2524 L-27824 2527 L-27805 2541 L-27785 2556 L-27766 2569 L-27746 2580 L-27726 2580 L-27669 2580 L-27647 2581 L-27611 2580 L-27591 2579 L-27534 2578 L-27514 2577 L-27475 2580 L-27457 2582 L-27430 2584 L-27380 2586 L-27341 2584 L-27282 2582 L-27262 2580 L-27243 2579 L-27204 2578 L-27166 2577 L-27127 2576 L-27050 2575 L-27030 2574 L-27011 2573 L-26915 2572 L-26895 2572 L-26818 2571 L-26760 2570 L-26702 2568 L-26663 2566 L-26644 2565 L-26624 2563 L-26606 2560 L-26480 2558 L-26398 2555 L-26383 2552 L-26368 2549 L-26332 2547 L-26295 2545 L-26275 2544 L-26252 2542 L-26237 2541 L-26218 2539 L-26160 2537 L-26139 2526 L-26121 2512 L-26100 2499 L-26082 2484 L-26064 2481 L-26042 2479 L-26017 2477 L-26001 2475 L-25982 2473 L-25966 2471 L-25945 2466 L-25928 2461 L-25908 2457 L-25867 2452 L-25831 2449 L-25811 2447 L-25788 2445 L-25754 2442 L-25714 2441 L-25696 2439 L-25657 2437 L-25638 2435 L-25618 2434 L-25599 2433 L-25574 2431 L-25551 2430 L-25499 2427 L-25473 2425 L-25457 2424 L-25440 2422 L-25425 2421 L-25404 2419 L-25386 2418 L-25366 2417 L-25290 2416 L-25270 2415 L-25248 2413 L-25231 2409 L-25211 2406 L-25172 2404 L-25135 2401 L-25114 2399 L-25088 2397 L-25072 2396 L-25054 2394 L-25016 2393 L-24999 2392 L-24979 2390 L-24960 2389 L-24938 2387 L-24922 2384 L-24902 2382 L-24883 2380 L-24859 2379 L-24806 2379 L-24786 2377 L-24767 2376 L-24709 2374 L-24645 2372 L-24623 2369 L-24544 2367 L-24512 2364 L-24475 2362 L-24457 2361 L-24437 2359 L-24395 2358 L-24380 2356 L-24341 2353 L-24319 2351 L-24303 2348 L-24283 2344 L-24243 2341 L-24225 2338 L-24207 2336 L-24185 2333 L-24160 2331 L-24143 2328 L-24125 2326 L-24088 2323 L-24050 2321 L-24032 2318 L-24010 2316 L-23974 2315 L-23931 2313 L-23877 2311 L-23839 2309 L-23820 2307 L-23800 2304 L-23780 2302 L-23717 2301 L-23641 2298 L-23598 2297 L-23583 2295 L-23568 2293 L-23529 2292 L-23509 2291 L-23466 2290 L-23451 2290 L-23432 2289 L-23413 2288 L-23391 2286 L-23374 2284 L-23354 2282 L-23314 2279 L-23278 2276 L-23257 2274 L-23231 2271 L-23214 2269 L-23196 2267 L-23180 2265 L-23159 55641 L-23128 55637 L-23103 55633 L-23080 55630 L-23064 2248 L-23045 2247 L-23025 2245 L-22987 2242 L-22969 2239 L-22948 2236 L-22928 2232 L-22871 2229 L-22852 2226 L-22833 2224 L-22788 2223 L-22765 2221 L-22738 2219 L-22713 2217 L-22686 2215 L-22655 2213 L-22618 2211 L-22600 2210 L-22580 2208 L-22504 2207 L-22484 2206 L-22462 2206 L-22445 2207 L-22426 2207 L-22328 2208 L-22303 2206 L-22287 2205 L-22269 2203 L-22252 2200 L-22213 2198 L-22194 2197 L-22153 2195 L-22117 2194 L-22097 2192 L-22075 2191 L-22059 2189 L-22020 2188 L-21963 2187 L-21923 2185 L-21837 2182 L-21809 2180 L-21786 2177 L-21744 2174 L-21672 2173 L-21652 2173 L-21594 2173 L-21576 2173 L-21556 2172 L-21535 2170 L-21498 2168 L-21458 2166 L-21440 2165 L-21400 2165 L-21375 2164 L-21324 2163 L-21285 2162 L-21226 2160 L-21207 2159 L-21189 2157 L-21148 2156 L-21073 2153 L-21053 2151 L-21034 2147 L-20975 2144 L-20957 2141 L-20930 2138 L-20908 2136 L-20842 2134 L-20812 2133 L-20797 2131 L-20761 2130 L-20724 2128 L-20682 2126 L-20647 2124 L-20627 2122 L-20607 2121 L-20588 2121 L-20570 2120 L-20550 2119 L-20530 2118 L-20511 2117 L-20432 2116 L-20376 2115 L-20356 2113 L-20338 2112 L-20297 2112 L-20279 2112 L-20219 2112 L-20183 2111 L-20163 2109 L-20124 2108 L-20086 2106 L-20066 2104 L-20028 2102 L-19912 2100 L-19881 2099 L-19866 2097 L-19832 2095 L-19815 2095 L-19794 2093 L-19751 2092 L-19718 2090 L-19659 2089 L-19639 2087 L-19599 2087 L-19543 2086 L-19517 2085 L-19500 2083 L-19466 2081 L-19445 2079 L-19427 2077 L-19408 2075 L-19350 2073 L-19331 2071 L-19289 2069 L-19273 2068 L-19234 2065 L-19214 2062 L-19196 2060 L-19157 2058 L-19137 2056 L-19118 2055 L-19100 2053 L-19051 2051 L-19023 2049 L-18998 2048 L-18971 2046 L-18955 2044 L-18940 2043 L-18904 2040 L-18846 2038 L-18808 2035 L-18770 2033 L-18748 2031 L-18731 2029 L-18711 2026 L-18671 2024 L-18654 2022 L-18635 2020 L-18614 2018 L-18588 2016 L-18571 2013 L-18553 2011 L-18537 2008 L-18516 2006 L-18499 2004 L-18479 2002 L-18460 2001 L-18438 1999 L-18422 1997 L-18403 1996 L-18359 1992 L-18345 1990 L-18326 1986 L-18306 1981 L-18285 1977 L-18267 1974 L-18228 1970 L-18145 1968 L-18123 1966 L-18094 1963 L-18056 1961 L-18025 1959 L-18011 1957 L-17975 1956 L-17937 1954 L-17895 1954 L-17880 1953 L-17841 1952 L-17782 1950 L-17764 1948 L-17742 1945 L-17707 1944 L-17685 1943 L-17660 1942 L-17643 1941 L-17609 1940 L-17587 1938 L-17570 1936 L-17551 1933 L-17532 1930 L-17493 1927 L-17473 1924 L-17454 1921 L-17431 1919 L-17416 1918 L-17357 1916 L-17339 1914 L-17320 1913 L-17300 1909 L-17280 1907 L-17242 1904 L-17216 1902 L-17166 1900 L-17128 1899 L-17096 1898 L-17082 1897 L-17068 1896 L-17009 1894 L-16989 1893 L-16951 1891 L-16932 1889 L-16912 1888 L-16874 1886 L-16853 1883 L-16835 1881 L-16814 1878 L-16778 1875 L-16757 1873 L-16731 1871 L-16680 1870 L-16642 1868 L-16621 1865 L-16581 1863 L-16564 1860 L-16544 1857 L-16502 1854 L-16488 1852 L-16469 1850 L-16448 1848 L-16428 1846 L-16410 1845 L-16391 1844 L-16371 1843 L-16265 1841 L-16199 1840 L-16169 1837 L-16139 1836 L-16100 1834 L-16080 1833 L-16023 1831 L-16004 1829 L-15984 1826 L-15962 1823 L-15945 1820 L-15907 1818 L-15886 1815 L-15868 1812 L-15849 1811 L-15828 1810 L-15803 1807 L-15786 1805 L-15769 1802 L-15752 1800 L-15731 1799 L-15713 1798 L-15693 1797 L-15674 1795 L-15653 1794 L-15636 1794 L-15597 1794 L-15575 1794 L-15540 1794 L-15500 1792 L-15481 1791 L-15463 1789 L-15443 1786 L-15423 1785 L-15404 1782 L-15385 1779 L-15337 1778 L-15309 1776 L-15286 1774 L-15260 1773 L-15227 1771 L-15172 1769 L-15152 1768 L-15133 1766 L-15111 1765 L-15095 1763 L-15076 1762 L-15017 1761 L-14998 1760 L-14978 1759 L-14921 1758 L-14900 1756 L-14824 1755 L-14804 1753 L-14785 1751 L-14766 1749 L-14725 1746 L-14708 1742 L-14689 1740 L-14669 1737 L-14592 1736 L-14572 1735 L-14495 1733 L-14380 1732 L-14340 1730 L-14308 1729 L-14294 1728 L-14281 1727 L-14260 1726 L-14243 1725 L-14204 1723 L-14166 1722 L-14147 1720 L-14127 1719 L-14050 1717 L-13971 1715 L-13946 1714 L-13931 1713 L-13895 1712 L-13876 1712 L-13856 1711 L-13837 1710 L-13779 1708 L-13760 1708 L-13740 1706 L-13718 1705 L-13663 1703 L-13643 1701 L-13547 1699 L-13528 1697 L-13480 1697 L-13451 1696 L-13411 1696 L-13351 1694 L-13331 1693 L-13315 1691 L-13294 1690 L-13275 1689 L-13251 1687 L-13237 1686 L-13218 1684 L-13198 1682 L-13176 1682 L-13139 1680 L-13121 1679 L-13099 1677 L-13064 1675 L-13042 1674 L-13000 1673 L-12982 1671 L-12966 1669 L-12945 1666 L-12928 1664 L-12908 1662 L-12889 1660 L-12867 1658 L-12850 1656 L-12831 1655 L-12787 1653 L-12754 1651 L-12734 1649 L-12713 1646 L-12695 1644 L-12676 1642 L-12657 1640 L-12637 1639 L-12618 1638 L-12599 1637 L-12573 1637 L-12484 1636 L-12453 1634 L-12439 1632 L-12403 1630 L-12366 1629 L-12346 1628 L-12323 1626 L-12308 1625 L-12289 1623 L-12269 1622 L-12231 1620 L-12211 1618 L-12192 1620 L-12171 1621 L-12148 1621 L-12135 1621 L-12114 1618 L-12088 1615 L-12052 1612 L-12037 1609 L-12018 1606 L-11998 1606 L-11979 1606 L-11960 1606 L-11938 1605 L-11922 1603 L-11902 1601 L-11859 1598 L-11844 1597 L-11826 1595 L-11785 1593 L-11767 1592 L-11748 1589 L-11728 1587 L-11709 1585 L-11690 1583 L-11671 1582 L-11622 1580 L-11555 1579 L-11523 1579 L-11496 1578 L-11474 1577 L-11457 1576 L-11437 1575 L-11418 1574 L-11394 1574 L-11380 1573 L-11361 1572 L-11341 1569 L-11318 1566 L-11302 1564 L-11281 1562 L-11264 1561 L-11206 1559 L-11185 1557 L-11160 1555 L-11142 1553 L-11124 1552 L-11109 1550 L-11087 1548 L-11070 1546 L-11050 1545 L-11031 1543 L-11008 1543 L-10993 1542 L-10974 1541 L-10930 1539 L-10916 1538 L-10897 1536 L-10877 1535 L-10857 1534 L-10839 1532 L-10820 1530 L-10761 1528 L-10666 1527 L-10628 1526 L-10611 1525 L-10596 1523 L-10582 1522 L-10567 1520 L-10546 1519 L-10508 1517 L-10489 1516 L-10466 1515 L-10451 1514 L-10432 1512 L-10412 1510 L-10390 1507 L-10373 1503 L-10335 1501 L-10314 1499 L-10297 1497 L-10231 1495 L-10214 1493 L-10195 1492 L-10180 1490 L-10159 1489 L-10142 1487 L-10122 1485 L-10103 1483 L-10081 1480 L-10065 1476 L-10045 1474 L-10002 1471 L-9987 1469 L-9969 1467 L-9948 1464 L-9928 1462 L-9891 1459 L-9871 1457 L-9851 1455 L-9789 1453 L-9738 1451 L-9713 1450 L-9686 1449 L-9669 1446 L-9600 1444 L-9580 1442 L-9561 1439 L-9538 1438 L-9523 1436 L-9445 1434 L-9425 1431 L-9407 1429 L-9385 1427 L-9367 1424 L-9349 1423 L-9328 1421 L-9303 1419 L-9285 1418 L-9267 1416 L-9252 1414 L-9231 1413 L-9213 1411 L-9193 1411 L-9175 1410 L-9152 1409 L-9116 1407 L-9097 1405 L-9075 1403 L-9059 1402 L-9040 1400 L-9020 1399 L-8999 1398 L-8981 1397 L-8962 1395 L-8943 1392 L-8885 1390 L-8837 1388 L-8740 1387 L-8710 1385 L-8672 1384 L-8652 1383 L-8576 1382 L-8556 1381 L-8517 1380 L-8498 1379 L-8458 1377 L-8440 1375 L-8421 1373 L-8400 1372 L-8374 1372 L-8360 1371 L-8342 1369 L-8324 1368 L-8285 1367 L-8266 1365 L-8246 1364 L-8225 1362 L-8189 1361 L-8169 1360 L-8053 1360 L-8034 1359 L-8014 1358 L-7957 1357 L-7880 1357 L-7841 1357 L-7795 1357 L-7782 1357 L-7743 1356 L-7723 1355 L-7681 1354 L-7666 1352 L-7647 1351 L-7627 1349 L-7550 1348 L-7530 1348 L-7492 1347 L-7471 1346 L-7413 1346 L-7375 1344 L-7356 1343 L-7337 1341 L-7296 1339 L-7279 1338 L-7240 1338 L-7218 1338 L-7202 1339 L-7183 1340 L-7124 1339 L-7105 1339 L-7065 1338 L-7047 1338 L-7028 1338 L-7001 1336 L-6979 1335 L-6951 1334 L-6876 1332 L-6862 1331 L-6814 1329 L-6793 1327 L-6750 1326 L-6737 1325 L-6698 1324 L-6675 1323 L-6659 1322 L-6638 1321 L-6621 1320 L-6599 1320 L-6563 1318 L-6542 1317 L-6517 1315 L-6500 1314 L-6481 1312 L-6466 1311 L-6445 1309 L-6427 1307 L-6408 1305 L-6389 1304 L-6366 1303 L-6330 1302 L-6311 1301 L-6288 1298 L-6273 1295 L-6254 1292 L-6234 1289 L-6214 1287 L-6196 1285 L-6157 1283 L-6137 1280 L-6118 1278 L-6023 1276 L-5984 1273 L-5953 1270 L-5937 1268 L-5903 1265 L-5886 1263 L-5865 1262 L-5846 1259 L-5822 1257 L-5808 1254 L-5789 1250 L-5769 1248 L-5747 1246 L-5731 1243 L-5711 1242 L-5692 1239 L-5670 1238 L-5654 1236 L-5635 1234 L-5553 1232 L-5516 1230 L-5499 1227 L-5478 1224 L-5422 1221 L-5382 1218 L-5345 1216 L-5326 1215 L-5305 1213 L-5285 1211 L-5267 1208 L-5248 1205 L-5228 1203 L-5208 1202 L-5122 1201 L-5094 1199 L-5054 1197 L-5021 1195 L-5007 1193 L-4973 1192 L-4936 1191 L-4918 1190 L-4894 1188 L-4860 1187 L-4841 1185 L-4818 1183 L-4803 1180 L-4764 1178 L-4706 1174 L-4660 1170 L-4642 1166 L-4624 1163 L-4609 1160 L-4587 1157 L-4570 1155 L-4532 1153 L-4508 1152 L-4493 1151 L-4473 1149 L-4454 1147 L-4430 1145 L-4416 1143 L-4397 1141 L-4338 1139 L-4319 1138 L-4300 1136 L-4279 1134 L-4261 1132 L-4194 1130 L-4166 1127 L-4126 1125 L-4094 1122 L-4080 1120 L-4068 1118 L-4029 1116 L-4008 1115 L-3989 1114 L-3966 1114 L-3951 1112 L-3932 1111 L-3912 1108 L-3890 1106 L-3874 1103 L-3853 1101 L-3835 1099 L-3814 1097 L-3797 1096 L-3778 1093 L-3757 1088 L-3714 1084 L-3696 1078 L-3680 1072 L-3659 1070 L-3642 1068 L-3621 1066 L-3603 1064 L-3580 1062 L-3565 1061 L-3544 1057 L-3526 1054 L-3502 1048 L-3487 1043 L-3469 1040 L-3428 1036 L-3410 1036 L-3391 1035 L-3371 1035 L-3351 1034 L-3332 1032 L-3314 1030 L-3288 1029 L-3265 1028 L-3237 1027 L-3198 1025 L-3166 1021 L-3151 1018 L-3138 1014 L-3117 1012 L-3100 1010 L-3080 1008 L-3061 1006 L-3023 1004 L-3004 1002 L-2984 1000 L-2945 998 L-2925 996 L-2907 995 L-2868 993 L-2849 992 L-2828 990 L-2803 990 L-2786 990 L-2768 989 L-2752 989 L-2731 986 L-2713 985 L-2674 983 L-2652 981 L-2616 980 L-2573 977 L-2559 975 L-2540 972 L-2500 969 L-2481 968 L-2462 966 L-2404 965 L-2337 962 L-2269 959 L-2237 958 L-2190 955 L-2172 949 L-2152 942 L-2132 936 L-2110 920 L-2095 908 L-2076 898 L-2017 887 L-1998 885 L-1978 884 L-1958 881 L-1940 880 L-1921 878 L-1900 877 L-1875 876 L-1859 875 L-1839 873 L-1824 872 L-1804 871 L-1785 870 L-1766 869 L-1708 867 L-1668 865 L-1630 864 L-1612 862 L-1591 861 L-1553 860 L-1514 858 L-1494 856 L-1408 855 L-1340 853 L-1307 852 L-1294 851 L-1281 850 L-1260 850 L-1243 849 L-1204 847 L-1147 846 L-1127 844 L-1106 843 L-1070 842 L-1050 841 L-1011 839 L-946 838 L-914 836 L-857 833 L-838 830 L-796 829 L-779 827 L-760 826 L-683 824 L-663 822 L-624 820 L-606 819 L-586 818 L-566 817 L-528 815 L-501 813 L-451 811 L-411 809 L-377 807 L-364 806 L-330 804 L-294 804 L-251 804 L-218 802 L-197 800 L-175 797 L-138 794 L-98 792 L-83 790 L-64 789 L-42 787 L-17 786 L18 784 L33 783 L54 782 L92 779 L110 778 L132 775 L149 772 L169 769 L188 766 L210 764 L226 761 L245 759 L265 758 L323 757 L342 756 L363 755 L381 754 L400 752 L426 751 L476 750 L515 748 L562 747 L574 746 L596 744 L634 742 L653 739 L677 736 L710 735 L730 733 L752 732 L768 730 L789 727 L807 724 L829 721 L845 717 L865 716 L929 714 L947 713 L961 712 L983 710 L1000 708 L1021 705 L1039 703 L1077 701 L1097 700 L1116 697 L1140 694 L1155 690 L1173 687 L1215 684 L1232 682 L1251 679 L1291 678 L1376 676 L1405 675 L1444 673 L1476 671 L1491 670 L1525 669 L1542 668 L1563 668 L1581 668 L1605 666 L1658 663 L1697 659 L1735 656 L1774 654 L1793 651 L1814 648 L1839 642 L1857 635 L1875 630 L1890 626 L1911 623 L1929 620 L1949 616 L1968 612 L1991 609 L2026 607 L2045 603 L2069 600 L2083 597 L2102 595 L2122 592 L2143 590 L2161 587 L2179 584 L2199 580 L2220 576 L2238 571 L2257 566 L2283 560 L2305 554 L2333 547 L2373 539 L2406 531 L2420 524 L2455 519 L2470 515 L2491 512 L2510 508 L2534 504 L2548 500 L2567 495 L2587 492 L2609 488 L2625 485 L2646 482 L2664 478 L2686 473 L2702 469 L2721 467 L2742 464 L2768 461 L2803 458 L2819 454 L2840 450 L2879 447 L2896 444 L2919 442 L2935 440 L2955 436 L2974 433 L3011 431 L3051 429 L3072 427 L3089 424 L3108 422 L3128 420 L3149 419 L3185 418 L3212 416 L3234 415 L3301 413 L3333 410 L3348 407 L3361 405 L3382 404 L3399 403 L3420 401 L3438 399 L3462 396 L3495 394 L3515 392 L3538 391 L3554 390 L3574 390 L3592 389 L3614 389 L3631 388 L3650 386 L3671 383 L3696 380 L3713 377 L3731 374 L3747 372 L3768 369 L3786 367 L3806 365 L3825 363 L3846 360 L3863 358 L3883 354 L3902 349 L3925 345 L3940 340 L3959 337 L3979 335 L3999 332 L4017 330 L4036 328 L4056 326 L4077 324 L4095 322 L4114 320 L4162 317 L4190 314 L4228 310 L4244 307 L4259 303 L4289 300 L4310 299 L4327 297 L4347 296 L4367 294 L4404 292 L4423 291 L4443 289 L4482 287 L4501 284 L4521 281 L4541 279 L4559 276 L4578 272 L4599 269 L4624 265 L4640 261 L4657 260 L4675 258 L4695 256 L4714 254 L4733 252 L4753 250 L4774 249 L4791 248 L4831 246 L4853 244 L4869 242 L4907 239 L4927 239 L5005 238 L5024 237 L5042 236 L5069 234 L5091 231 L5159 227 L5191 224 L5238 223 L5256 221 L5295 220 L5318 218 L5352 217 L5372 215 L5410 213 L5429 211 L5469 210 L5488 209 L5507 207 L5528 200 L5553 192 L5568 184 L5604 175 L5623 170 L5643 167 L5681 165 L5702 163 L5739 162 L5759 162 L5781 160 L5797 159 L5816 158 L5836 157 L5856 155 L5875 154 L5913 153 L5934 152 L5952 152 L5971 152 L5998 150 L6019 148 L6048 145 L6088 142 L6122 140 L6149 137 L6169 135 L6185 132 L6205 131 L6224 129 L6248 127 L6282 126 L6301 124 L6339 122 L6378 121 L6401 119 L6417 117 L6436 116 L6457 114 L6482 111 L6500 107" />
</svg>
