<svg xmlns="http://www.w3.org/2000/svg" version="1.1" viewBox="0 0 6500 1000">
	<path fill="none" stroke="gold" stroke-width="125" stroke-linecap="round" stroke-linejoin="round" d="M0 2274  L-6730 2274 L-6318 2183 L-6094 2229 L-6036 2183 L-5999 2092 L-5814 2001 L-5324 1910 L-5031 1865 L-4719 1819 L-4485 1728 L-4432 1637 L-4372 1546 L-4219 1501 L-4179 1455 L-4046 1410 L-3754 1455 L-3213 1410 L-2603 1319 L-2555 1410 L-1915 1319 L-1881 1364 L-1356 1273 L-1223 1228 L-833 1046 L-505 955 L-388 864 L-176 955 L540 909 L1110 864 L1217 818 L1391 727 L1613 636 L2014 591 L2040 500 L2968 409 L3055 318 L3138 227 L3208 136 L3505 90 L3657 45 L5547 318 L5648 181 L5910 90 L6204 181 L6345 90" />
</svg>
