<svg xmlns="http://www.w3.org/2000/svg" version="1.1" viewBox="0 0 6500 1000">
	<path fill="none" stroke="gold" stroke-width="125" stroke-linecap="round" stroke-linejoin="round" d="M0 36957  L-278727 36957 L-278543 36925 L-278052 36859 L-277759 36827 L-277448 36761 L-277213 36728 L-277160 36663 L-277100 36598 L-276947 36565 L-276907 36500 L-276774 36467 L-276482 36434 L-275941 36434 L-275331 36402 L-275283 36402 L-274643 36369 L-274609 36369 L-274084 36369 L-273951 36336 L-273561 36271 L-273233 36205 L-273116 36140 L-272905 36075 L-272188 36075 L-271618 36042 L-271510 36042 L-271336 36009 L-271115 35944 L-270713 35911 L-270687 35846 L-269759 35780 L-269672 35715 L-269590 35650 L-269520 35584 L-269222 35552 L-269070 35486 L-267180 35519 L-267079 35519 L-266817 35519 L-266523 35552 L-266382 35486 L-266133 35486 L-266097 35454 L-265939 35421 L-265476 35355 L-265223 35323 L-265010 35257 L-264759 35225 L-264410 35192 L-263483 35127 L-263389 35061 L-262978 35029 L-261807 34963 L-260618 34931 L-260526 34865 L-260499 34800 L-260233 34734 L-259934 34669 L-259805 34604 L-259767 34538 L-258953 34538 L-258569 34571 L-257508 34604 L-257447 34604 L-257182 35257 L-256711 35879 L-256518 36500 L-256255 37121 L-255918 37088 L-255782 37055 L-255327 37023 L-254584 36990 L-254566 36957 L-254401 36892 L-254333 36892 L-253816 36859 L-252788 36859 L-252592 36827 L-252103 36794 L-251741 36761 L-251332 36761 L-250947 36794 L-249243 36794 L-249145 36794 L-249074 36794 L-249012 36794 L-248828 36761 L-248491 36761 L-247851 36728 L-247774 36696 L-247713 36696 L-247526 36663 L-247446 36663 L-247269 36630 L-247250 36598 L-247020 36598 L-246632 36565 L-245744 36565 L-245704 36532 L-245616 36500 L-245589 36434 L-244581 36402 L-244431 36336 L-244407 36304 L-244274 36271 L-244234 36238 L-242976 36205 L-242918 36205 L-242378 36173 L-242325 36173 L-242279 36173 L-241884 36140 L-241744 36107 L-241544 36075 L-241398 36075 L-241233 36075 L-240956 36107 L-240598 36107 L-240045 36075 L-239400 36042 L-239141 35977 L-238988 35944 L-238587 35911 L-238547 35879 L-238426 35846 L-238364 35879 L-238350 35879 L-238256 35879 L-237963 35846 L-237812 35715 L-237482 35650 L-237404 35584 L-237328 35552 L-237101 35454 L-237035 35388 L-236807 35323 L-236755 35257 L-236590 35225 L-235584 35192 L-235401 35159 L-234850 35127 L-234457 35061 L-234059 35029 L-233209 34963 L-233131 34931 L-232552 34898 L-232111 34898 L-231870 34865 L-231712 34865 L-231312 34800 L-231291 34800 L-230846 34767 L-230441 34734 L-230305 34669 L-230130 34604 L-229993 34538 L-229743 34473 L-228743 34440 L-228661 34407 L-228526 34375 L-228487 34342 L-227597 34309 L-227381 34277 L-226938 34244 L-226821 34211 L-226764 34179 L-226088 34179 L-225987 34146 L-225959 34146 L-224617 34113 L-224211 34081 L-224171 34048 L-223243 34015 L-223145 33983 L-223012 33950 L-222608 33917 L-222582 33884 L-222489 33852 L-222272 33819 L-221861 33754 L-220708 33688 L-220416 33623 L-220387 33558 L-219779 33525 L-219529 33459 L-219509 33427 L-218580 33394 L-218529 33329 L-218406 33296 L-218389 33231 L-218233 33198 L-218058 33133 L-217921 33100 L-217865 33067 L-217757 33034 L-217671 33002 L-217438 32969 L-217363 32936 L-217055 32904 L-216937 32871 L-216767 32838 L-216676 32806 L-216573 32806 L-216550 32773 L-216473 32773 L-216375 32708 L-216008 32675 L-215904 32642 L-215400 32610 L-214948 32577 L-214910 32544 L-214886 32511 L-214845 32479 L-214717 32446 L-214616 32413 L-214174 32381 L-213892 32348 L-213300 32315 L-213169 32283 L-212895 32217 L-212742 32185 L-212589 32152 L-212504 32086 L-212426 32054 L-212240 32021 L-212190 32021 L-212162 31988 L-212082 31956 L-212059 31923 L-211776 31858 L-211172 31792 L-210177 31760 L-209879 31727 L-209145 31694 L-208900 31661 L-208810 31629 L-208233 31596 L-207535 31563 L-206782 31531 L-206464 31498 L-206081 31433 L-206004 31400 L-205370 31367 L-205184 31335 L-205096 31335 L-204967 31335 L-204654 31302 L-204605 31269 L-204463 31237 L-204441 31204 L-203473 31171 L-202928 31138 L-202450 31138 L-202389 31138 L-202065 31138 L-202043 31106 L-201981 31106 L-201771 31073 L-201694 31040 L-201639 31008 L-201617 30975 L-201578 30942 L-201562 30910 L-200805 30877 L-200788 30844 L-199989 30812 L-199836 30779 L-198931 30746 L-198425 30713 L-198196 30648 L-198154 30648 L-198039 30615 L-197863 30583 L-197108 30615 L-196973 30583 L-196809 30550 L-196491 30517 L-196315 30452 L-195293 30387 L-195270 30321 L-195019 30288 L-194805 30223 L-194172 30190 L-193934 30125 L-193901 30060 L-193723 29994 L-193643 29929 L-193553 29896 L-193489 29831 L-193048 29765 L-193025 29733 L-192484 29700 L-192228 29667 L-191733 29635 L-190856 29602 L-190819 29569 L-190767 29537 L-190725 29504 L-190608 29471 L-190332 29439 L-190125 29373 L-189927 29308 L-189904 29242 L-189854 29177 L-189815 29144 L-189737 29112 L-189139 29046 L-189079 29014 L-188976 28981 L-188822 28948 L-188190 28915 L-187509 28883 L-187206 28817 L-186859 28785 L-186662 28752 L-186614 28687 L-186293 28654 L-185666 28621 L-185519 28589 L-185483 28556 L-185425 28523 L-185348 28458 L-185107 28458 L-185019 28425 L-184924 28392 L-184631 28360 L-184496 28327 L-184436 28294 L-184399 28229 L-184127 28229 L-183121 28196 L-182945 28164 L-182895 28164 L-182602 28131 L-182410 28066 L-182077 28033 L-181570 28000 L-181008 27935 L-180993 27869 L-180976 27837 L-180876 27771 L-180761 27706 L-180722 27641 L-180685 27608 L-180619 27608 L-180591 27575 L-180452 27608 L-180159 27608 L-180109 27608 L-180004 27608 L-179739 27575 L-179274 27542 L-179130 27542 L-179075 27477 L-179018 27444 L-178827 27412 L-178462 27379 L-178248 27379 L-178053 27379 L-177995 27379 L-177936 27314 L-177782 27281 L-177513 27248 L-177083 27412 L-177067 27412 L-176990 27379 L-176926 27346 L-176796 27118 L-176773 27085 L-176489 27052 L-176441 27019 L-176387 26987 L-175924 26954 L-175886 26954 L-175845 26921 L-175654 26889 L-175174 26856 L-174687 26823 L-174671 26791 L-174633 26758 L-174376 26725 L-174299 26660 L-174069 26627 L-174053 26562 L-173758 26496 L-173316 26464 L-172869 26431 L-172365 26398 L-172211 26366 L-171924 26333 L-171884 26268 L-171553 26235 L-171331 26202 L-170814 26137 L-170738 26104 L-170490 26039 L-170296 25973 L-170236 25941 L-169460 25908 L-169386 25908 L-169155 25875 L-169139 25875 L-169077 25843 L-168881 25810 L-168417 25810 L-168394 25777 L-168264 25777 L-166963 25777 L-166947 25777 L-166869 25745 L-166776 25745 L-166558 25745 L-166406 25712 L-166228 25745 L-166174 25777 L-165887 25810 L-165847 25810 L-165478 25810 L-165037 25810 L-164854 25810 L-164533 25777 L-164238 25777 L-163792 25712 L-163720 25679 L-163258 25614 L-162820 25581 L-162638 25548 L-161184 25483 L-161052 25450 L-160595 25385 L-160369 25352 L-159983 25287 L-159466 25221 L-158512 25156 L-157718 25091 L-157043 25058 L-156618 24993 L-156307 24960 L-156077 24862 L-155393 24764 L-155380 24666 L-155170 24535 L-155148 24502 L-154974 24437 L-154024 24404 L-153756 24339 L-152941 24306 L-152630 24241 L-152593 24208 L-152535 24143 L-151918 24110 L-151280 24045 L-149654 24012 L-148981 23979 L-148339 23979 L-148261 23979 L-148205 23979 L-148169 23979 L-148141 23947 L-148029 23881 L-148011 23848 L-147988 23816 L-147835 23783 L-147781 23718 L-147703 23685 L-147584 23652 L-147486 23620 L-147369 23587 L-147099 23522 L-146830 23489 L-146812 23423 L-146612 23391 L-146465 23325 L-146239 23293 L-146105 23260 L-145796 23227 L-145736 23195 L-145383 23129 L-145034 23097 L-144933 23064 L-144869 22999 L-144809 22966 L-144425 22900 L-144044 22868 L-143939 22835 L-143679 22802 L-143408 22737 L-143249 22704 L-143216 22672 L-143154 22639 L-143013 22606 L-142829 22574 L-142785 22541 L-142497 22541 L-142480 22508 L-142247 22508 L-142186 22475 L-142148 22475 L-141568 22443 L-141435 22410 L-141411 22279 L-141393 22050 L-141375 21789 L-141359 21527 L-141335 21266 L-141319 21070 L-141298 20841 L-141281 20612 L-141258 20481 L-141241 20351 L-141219 20253 L-141203 20187 L-141154 20089 L-141081 19991 L-141047 19828 L-141023 19697 L-140987 19566 L-140946 19435 L-140909 19370 L-140893 19239 L-140869 19141 L-140832 19076 L-140815 18978 L-140792 18912 L-140774 18847 L-140756 18781 L-140740 18716 L-140710 18618 L-140684 18520 L-140639 18487 L-140623 18422 L-140581 18389 L-140533 18324 L-140462 18258 L-140447 18193 L-140431 18128 L-140368 18095 L-140329 18062 L-140290 18030 L-140124 17997 L-140059 17964 L-140043 17932 L-139999 17866 L-139940 17833 L-139728 17801 L-139694 17768 L-139652 17735 L-139574 17703 L-139036 17670 L-138958 17637 L-138854 17572 L-138765 17539 L-138589 17507 L-138239 17474 L-138083 17441 L-137645 17408 L-137488 17376 L-137358 17343 L-136654 17278 L-136453 17245 L-135493 17180 L-135010 17147 L-134911 17147 L-134819 17114 L-134574 17082 L-134501 17049 L-134058 16983 L-133962 16951 L-133947 16918 L-133931 16885 L-133906 16853 L-133440 16820 L-133223 16787 L-133083 16755 L-132790 16722 L-132701 16689 L-132660 16657 L-132630 16624 L-132457 16591 L-132398 16559 L-132322 16526 L-132242 16493 L-132172 16493 L-131863 16460 L-131778 16428 L-131564 16395 L-131529 16362 L-130845 16330 L-130746 16297 L-130541 16264 L-130495 16232 L-130216 16199 L-130154 16166 L-130137 16101 L-130059 16068 L-129751 16003 L-129727 15970 L-129673 15905 L-129650 15872 L-129528 15839 L-129392 15774 L-129148 15741 L-129022 15741 L-128375 15709 L-128359 15709 L-128335 15709 L-128154 15643 L-128078 15610 L-127986 15578 L-127559 15545 L-127142 15512 L-126749 15447 L-126671 15414 L-126652 15382 L-126289 15349 L-126052 15316 L-125824 15284 L-125511 15251 L-125433 15218 L-125352 15153 L-125174 15087 L-125159 15055 L-124893 14989 L-124813 14957 L-124583 14924 L-124357 14891 L-124041 14891 L-123866 14859 L-123505 14859 L-123113 14826 L-123044 14761 L-122980 14728 L-122840 14662 L-122788 14630 L-122686 14564 L-122185 14532 L-121987 14499 L-121741 14466 L-121555 14434 L-121255 14401 L-121179 14368 L-121013 14303 L-120129 14270 L-120100 14205 L-119977 14139 L-119399 14107 L-119321 14074 L-118607 14074 L-118295 14074 L-118082 14074 L-118065 14074 L-117679 14074 L-117154 14009 L-116708 13976 L-116378 13943 L-116225 13911 L-115899 13911 L-115721 13878 L-115640 13878 L-115433 13813 L-115258 13780 L-114329 13747 L-113440 13714 L-113400 13682 L-113172 13682 L-112793 13649 L-112006 13616 L-111771 13584 L-111696 13551 L-111338 13518 L-110766 13453 L-110499 13420 L-110113 13388 L-110009 13388 L-109839 13388 L-109221 13388 L-109010 13388 L-108702 13388 L-108649 13355 L-108521 13322 L-108468 13289 L-108349 13257 L-108013 13191 L-107053 13159 L-106922 13093 L-106720 13061 L-106089 13028 L-105778 12995 L-105364 12963 L-105336 12930 L-105191 12897 L-104771 12864 L-103438 12864 L-103391 12832 L-103263 12766 L-103246 12734 L-102668 12668 L-102462 12636 L-102433 12603 L-102392 12570 L-102335 12538 L-102297 12505 L-102219 12472 L-102076 12440 L-101621 12407 L-101503 12374 L-101218 12341 L-100845 12309 L-100749 12276 L-100422 12243 L-100068 12211 L-99898 12178 L-99850 12145 L-99741 12113 L-99652 12080 L-99625 12047 L-99548 11982 L-99245 11949 L-99211 11884 L-99139 11851 L-98771 11818 L-98436 11786 L-98355 11786 L-98135 11753 L-97964 11720 L-97936 11688 L-97439 11655 L-96890 11590 L-96009 11557 L-95911 11491 L-95834 11459 L-95559 11426 L-95312 11361 L-95238 11328 L-95177 11263 L-95058 11230 L-95015 11197 L-94905 11165 L-94829 11099 L-94128 11067 L-93882 11034 L-93843 11001 L-93686 10968 L-93087 10968 L-92860 10968 L-92768 10968 L-92293 10968 L-91696 10903 L-91176 10870 L-91155 10838 L-91010 10805 L-90689 10805 L-90148 10805 L-89916 10805 L-89745 10805 L-89259 10772 L-89031 10740 L-88946 10707 L-88600 10674 L-88274 10674 L-87751 10642 L-87424 10609 L-86823 10576 L-86626 10511 L-86574 10478 L-86533 10445 L-86252 10413 L-85567 10347 L-85257 10315 L-85232 10249 L-85041 10217 L-84818 10184 L-84732 10151 L-84069 10086 L-84044 10053 L-83822 9988 L-83493 9955 L-83141 9890 L-82936 9857 L-82703 9792 L-82445 9759 L-82256 9694 L-82209 9661 L-81981 9628 L-81947 9595 L-81790 9563 L-81576 9530 L-81403 9497 L-81312 9465 L-81034 9432 L-80791 9399 L-80475 9367 L-80049 9367 L-80012 9367 L-79528 9367 L-79295 9367 L-79083 9334 L-78857 9301 L-78307 9301 L-78060 9269 L-77226 9269 L-77170 9236 L-77148 9203 L-76990 9170 L-76529 9138 L-76488 9105 L-76148 9040 L-76015 9007 L-75792 8974 L-75220 8942 L-74748 8909 L-74554 8876 L-74361 8844 L-74171 8811 L-74070 8778 L-73701 8745 L-73655 8713 L-73573 8680 L-72280 8647 L-72232 8615 L-71963 8615 L-71818 8615 L-71267 8615 L-71151 8582 L-71069 8549 L-70710 8517 L-70486 8484 L-70205 8451 L-69876 8386 L-69368 8353 L-69255 8321 L-69176 8288 L-69012 8255 L-68718 8255 L-68249 8255 L-68052 8288 L-68002 8288 L-67352 8255 L-67230 8222 L-66776 8222 L-66740 8190 L-66272 8157 L-66161 8124 L-66145 8092 L-65929 8092 L-65748 8059 L-65216 8059 L-64187 8059 L-63987 8026 L-63529 7994 L-62581 7928 L-62482 7896 L-62128 7830 L-62067 7797 L-62053 7765 L-62018 7732 L-61648 7699 L-61528 7667 L-61286 7634 L-61122 7601 L-60935 7569 L-60814 7536 L-59744 7471 L-58886 7438 L-58673 7372 L-58576 7340 L-58402 7274 L-58069 7242 L-57997 7209 L-57939 7176 L-57764 7176 L-57375 7144 L-57140 7111 L-57028 7078 L-56911 7046 L-55931 7013 L-55905 6980 L-55311 6915 L-55278 6915 L-55130 6882 L-54845 6849 L-53933 6849 L-52987 6849 L-52834 6817 L-52732 6817 L-52600 6784 L-52457 6751 L-52431 6719 L-52316 6686 L-52098 6653 L-51417 6621 L-51287 6588 L-50984 6555 L-50744 6490 L-50412 6457 L-49773 6424 L-49430 6359 L-49369 6326 L-49213 6326 L-48291 6326 L-47821 6326 L-47777 6326 L-47765 6294 L-47723 6261 L-47701 6228 L-47674 6196 L-47530 6163 L-47108 6130 L-46773 6130 L-46581 6098 L-46153 6098 L-45965 6065 L-45576 6000 L-45042 5967 L-44669 5934 L-44648 5934 L-44398 5901 L-44279 5869 L-44204 5836 L-44068 5803 L-44028 5771 L-43949 5738 L-43554 5705 L-43058 5673 L-42946 5607 L-42773 5575 L-42465 5542 L-42018 5509 L-41695 5476 L-41552 5411 L-41125 5346 L-40972 5280 L-40917 5215 L-40103 5182 L-40083 5150 L-39711 5117 L-39654 5117 L-38525 5084 L-38457 5084 L-37899 5051 L-37704 5019 L-37568 4986 L-37335 4953 L-36988 4921 L-36953 4855 L-36918 4823 L-36849 4757 L-36501 4725 L-36328 4692 L-35844 4659 L-35827 4627 L-35502 4594 L-35345 4561 L-34204 4496 L-34179 4463 L-33987 4398 L-33794 4365 L-33544 4332 L-33526 4300 L-32506 4267 L-32208 4234 L-32133 4202 L-31997 4136 L-31821 4103 L-31244 4038 L-31029 4005 L-30965 3973 L-30834 3940 L-30797 3875 L-30274 3842 L-30136 16722 L-30122 16722 L-30099 16722 L-30079 16722 L-29852 3809 L-29076 3809 L-29034 3809 L-28666 3809 L-28588 3777 L-28536 3744 L-27863 3711 L-27120 3678 L-26696 3678 L-26248 3646 L-25186 3613 L-24875 3548 L-24465 3548 L-24393 3515 L-23868 3515 L-23774 3515 L-23756 3515 L-23311 3482 L-23126 3417 L-22345 3352 L-21673 3319 L-21261 3221 L-21029 3155 L-20888 3123 L-20807 3057 L-20787 3025 L-20711 3025 L-20582 2992 L-20265 3025 L-20041 3025 L-19716 2992 L-19654 2992 L-19284 2992 L-19251 2992 L-19042 2992 L-18375 2992 L-18297 2992 L-18139 2927 L-18029 2927 L-17702 2894 L-17547 2861 L-17206 2861 L-17149 2796 L-16811 2730 L-16608 2698 L-16555 2632 L-15178 2600 L-15049 2567 L-14615 2534 L-14295 2502 L-13467 2436 L-13344 2404 L-12613 2338 L-12457 2273 L-12416 2240 L-12362 2207 L-12339 2175 L-12225 2142 L-11929 2109 L-11639 2077 L-11585 2044 L-11464 2011 L-11434 1979 L-11334 1946 L-10890 1946 L-10738 1913 L-9903 1913 L-9361 1881 L-9026 1881 L-9011 1848 L-8935 1815 L-8819 1782 L-8624 1750 L-8360 1717 L-7526 1684 L-7429 1652 L-6908 1619 L-6866 1586 L-6767 1554 L-5938 1554 L-5803 1521 L-5465 1521 L-4911 1488 L-4531 1456 L-4368 1423 L-4058 1390 L-3245 1357 L-2939 1325 L-2671 1325 L-2349 1325 L-2028 1357 L-1753 1357 L-924 1292 L-829 1259 L-737 1161 L-632 1063 L-245 965 L234 900 L250 867 L369 834 L737 769 L831 736 L1665 671 L1742 638 L2042 606 L2132 573 L2540 508 L2650 442 L3349 409 L3822 377 L3883 344 L4101 279 L4375 246 L4488 213 L5515 181 L5902 148 L5922 115 L6255 83 L6500 50" />
</svg>
