<svg xmlns="http://www.w3.org/2000/svg" version="1.1" viewBox="0 0 6500 1000">
	<path fill="none" stroke="gold" stroke-width="125" stroke-linecap="round" stroke-linejoin="round" d="M0 47124  L-623033 47124 L-622849 47101 L-622358 47056 L-622065 47033 L-621753 46988 L-621519 46965 L-621466 46919 L-621406 46874 L-621253 46851 L-621213 46806 L-621080 46783 L-620788 46760 L-620247 46760 L-619637 46738 L-619589 46738 L-618949 46715 L-618915 46715 L-618390 46715 L-618257 46692 L-617867 46647 L-617539 46601 L-617422 46556 L-617210 46510 L-616493 46510 L-615924 46488 L-615816 46488 L-615642 46465 L-615420 46419 L-615019 46397 L-614993 46351 L-614065 46306 L-613978 46260 L-613895 46215 L-613825 46169 L-613528 46147 L-613376 46101 L-611486 46124 L-611385 46124 L-611123 46124 L-610829 46147 L-610688 46101 L-610439 46101 L-610403 46078 L-610245 46056 L-609782 46010 L-609528 45987 L-609316 45942 L-609065 45919 L-608716 45897 L-607789 45851 L-607695 45806 L-607284 45783 L-606113 45737 L-604924 45715 L-604832 45669 L-604805 45624 L-604539 45578 L-604240 45533 L-604111 45487 L-604073 45442 L-603259 45442 L-602875 45465 L-601814 45487 L-601753 45487 L-601488 45942 L-601017 46374 L-600824 46806 L-600561 47238 L-600224 47215 L-600088 47192 L-599633 47170 L-598889 47147 L-598872 47124 L-598707 47079 L-598639 47079 L-598122 47056 L-597094 47056 L-596897 47033 L-596409 47010 L-596047 46988 L-595638 46988 L-595253 47010 L-593549 47010 L-593451 47010 L-593379 47010 L-593318 47010 L-593134 46988 L-592797 46988 L-592157 46965 L-592080 46942 L-592018 46942 L-591832 46919 L-591752 46919 L-591575 46897 L-591556 46874 L-591326 46874 L-590938 46851 L-590049 46851 L-590010 46829 L-589922 46806 L-589895 46760 L-588886 46738 L-588737 46692 L-588712 46669 L-588580 46647 L-588540 46624 L-587281 46601 L-587224 46601 L-586684 46578 L-586631 46578 L-586585 46578 L-586190 46556 L-586050 46533 L-585850 46510 L-585704 46510 L-585539 46510 L-585262 46533 L-584903 46533 L-584351 46510 L-583706 46488 L-583447 46442 L-583294 46419 L-582893 46397 L-582852 46374 L-582732 46351 L-582670 46374 L-582656 46374 L-582562 46374 L-582269 46351 L-582118 46260 L-581787 46215 L-581710 46169 L-581634 46147 L-581407 46078 L-581341 46033 L-581113 45987 L-581061 45942 L-580896 45919 L-579890 45897 L-579707 45874 L-579156 45851 L-578763 45806 L-578365 45783 L-577515 45737 L-577437 45715 L-576858 45692 L-576417 45692 L-576176 45669 L-576018 45669 L-575618 45624 L-575597 45624 L-575152 45601 L-574747 45578 L-574611 45533 L-574436 45487 L-574299 45442 L-574049 45396 L-573049 45374 L-572967 45351 L-572831 45328 L-572793 45305 L-571903 45283 L-571687 45260 L-571244 45237 L-571127 45215 L-571070 45192 L-570394 45192 L-570293 45169 L-570264 45169 L-568923 45146 L-568517 45124 L-568477 45101 L-567549 45078 L-567451 45055 L-567318 45033 L-566914 45010 L-566888 44987 L-566795 44964 L-566578 44942 L-566167 44896 L-565013 44851 L-564722 44805 L-564693 44760 L-564085 44737 L-563835 44692 L-563815 44669 L-562886 44646 L-562835 44601 L-562712 44578 L-562695 44533 L-562539 44510 L-562364 44464 L-562227 44442 L-562170 44419 L-562063 44396 L-561977 44373 L-561744 44351 L-561669 44328 L-561361 44305 L-561243 44283 L-561073 44260 L-560982 44237 L-560879 44237 L-560856 44214 L-560779 44214 L-560681 44169 L-560314 44146 L-560209 44123 L-559706 44101 L-559254 44078 L-559216 44055 L-559192 44032 L-559151 44010 L-559022 43987 L-558922 43964 L-558480 43942 L-558198 43919 L-557605 43896 L-557475 43873 L-557201 43828 L-557048 43805 L-556895 43782 L-556810 43737 L-556732 43714 L-556546 43691 L-556495 43691 L-556468 43669 L-556388 43646 L-556365 43623 L-556082 43578 L-555478 43532 L-554482 43510 L-554185 43487 L-553451 43464 L-553206 43441 L-553116 43419 L-552539 43396 L-551841 43373 L-551088 43350 L-550770 43328 L-550387 43282 L-550310 43260 L-549675 43237 L-549490 43214 L-549402 43214 L-549273 43214 L-548960 43191 L-548910 43169 L-548768 43146 L-548747 43123 L-547779 43100 L-547234 43078 L-546755 43078 L-546694 43078 L-546371 43078 L-546349 43055 L-546287 43055 L-546077 43032 L-546000 43010 L-545945 42987 L-545923 42964 L-545883 42941 L-545868 42919 L-545111 42896 L-545094 42873 L-544295 42850 L-544142 42828 L-543237 42805 L-542731 42782 L-542501 42737 L-542460 42737 L-542345 42714 L-542168 42691 L-541414 42714 L-541279 42691 L-541115 42669 L-540797 42646 L-540621 42600 L-539599 42555 L-539576 42509 L-539324 42487 L-539111 42441 L-538477 42418 L-538240 42373 L-538207 42328 L-538029 42282 L-537949 42237 L-537859 42214 L-537794 42168 L-537354 42123 L-537331 42100 L-536790 42077 L-536534 42055 L-536039 42032 L-535162 42009 L-535125 41987 L-535072 41964 L-535031 41941 L-534914 41918 L-534638 41896 L-534430 41850 L-534233 41805 L-534210 41759 L-534160 41714 L-534121 41691 L-534043 41668 L-533445 41623 L-533385 41600 L-533282 41577 L-533127 41555 L-532495 41532 L-531815 41509 L-531512 41464 L-531165 41441 L-530968 41418 L-530920 41373 L-530599 41350 L-529971 41327 L-529825 41305 L-529788 41282 L-529731 41259 L-529654 41214 L-529413 41214 L-529324 41191 L-529230 41168 L-528937 41145 L-528802 41123 L-528742 41100 L-528705 41055 L-528433 41055 L-527427 41032 L-527251 41009 L-527201 41009 L-526908 40986 L-526716 40941 L-526382 40918 L-525876 40895 L-525314 40850 L-525299 40804 L-525282 40782 L-525182 40736 L-525067 40691 L-525028 40645 L-524990 40623 L-524925 40623 L-524897 40600 L-524758 40623 L-524465 40623 L-524415 40623 L-524310 40623 L-524045 40600 L-523580 40577 L-523436 40577 L-523381 40532 L-523324 40509 L-523133 40486 L-522768 40463 L-522553 40463 L-522359 40463 L-522301 40463 L-522242 40418 L-522088 40395 L-521818 40373 L-521389 40486 L-521373 40486 L-521296 40463 L-521232 40441 L-521102 40282 L-521079 40259 L-520795 40236 L-520747 40213 L-520693 40191 L-520230 40168 L-520191 40168 L-520151 40145 L-519960 40122 L-519480 40100 L-518993 40077 L-518976 40054 L-518938 40032 L-518682 40009 L-518605 39963 L-518375 39941 L-518359 39895 L-518064 39850 L-517622 39827 L-517175 39804 L-516671 39781 L-516517 39759 L-516230 39736 L-516190 39691 L-515859 39668 L-515637 39645 L-515120 39600 L-515044 39577 L-514796 39531 L-514602 39486 L-514542 39463 L-513766 39441 L-513692 39441 L-513461 39418 L-513444 39418 L-513383 39395 L-513187 39372 L-512723 39372 L-512699 39350 L-512570 39350 L-511269 39350 L-511252 39350 L-511175 39327 L-511082 39327 L-510864 39327 L-510712 39304 L-510534 39327 L-510480 39350 L-510193 39372 L-510153 39372 L-509784 39372 L-509343 39372 L-509160 39372 L-508839 39350 L-508544 39350 L-508098 39304 L-508026 39281 L-507564 39236 L-507126 39213 L-506944 39190 L-505490 39145 L-505358 39122 L-504901 39077 L-504675 39054 L-504288 39009 L-503772 38963 L-502818 38918 L-502024 38872 L-501349 38849 L-500924 38804 L-500612 38781 L-500383 38713 L-499699 38645 L-499686 38577 L-499476 38486 L-499454 38463 L-499280 38418 L-498330 38395 L-498062 38349 L-497246 38327 L-496936 38281 L-496898 38258 L-496841 38213 L-496224 38190 L-495586 38145 L-493960 38122 L-493286 38099 L-492644 38099 L-492567 38099 L-492511 38099 L-492475 38099 L-492446 38077 L-492335 38031 L-492317 38008 L-492294 37986 L-492141 37963 L-492087 37917 L-492009 37895 L-491890 37872 L-491792 37849 L-491675 37827 L-491405 37781 L-491136 37758 L-491118 37713 L-490918 37690 L-490771 37645 L-490545 37622 L-490410 37599 L-490102 37576 L-490042 37554 L-489689 37508 L-489340 37486 L-489239 37463 L-489175 37417 L-489115 37395 L-488730 37349 L-488350 37326 L-488245 37304 L-487985 37281 L-487714 37235 L-487555 37213 L-487522 37190 L-487460 37167 L-487319 37145 L-487135 37122 L-487091 37099 L-486802 37099 L-486786 37076 L-486553 37076 L-486492 37054 L-486454 37054 L-485874 37031 L-485740 37008 L-485717 36917 L-485699 36758 L-485681 36576 L-485665 36394 L-485641 36213 L-485625 36076 L-485604 35917 L-485587 35758 L-485564 35667 L-485547 35576 L-485525 35508 L-485508 35462 L-485460 35394 L-485387 35326 L-485353 35212 L-485329 35121 L-485293 35030 L-485252 34939 L-485215 34894 L-485199 34803 L-485175 34735 L-485138 34689 L-485121 34621 L-485098 34576 L-485080 34530 L-485062 34485 L-485046 34439 L-485016 34371 L-484990 34303 L-484945 34280 L-484928 34235 L-484887 34212 L-484838 34167 L-484768 34121 L-484752 34076 L-484736 34030 L-484674 34007 L-484635 33985 L-484596 33962 L-484430 33939 L-484365 33917 L-484349 33894 L-484305 33848 L-484246 33826 L-484034 33803 L-484000 33780 L-483958 33757 L-483880 33735 L-483342 33712 L-483264 33689 L-483160 33644 L-483071 33621 L-482895 33598 L-482544 33576 L-482389 33553 L-481951 33530 L-481794 33507 L-481664 33485 L-480960 33439 L-480759 33416 L-479799 33371 L-479316 33348 L-479217 33348 L-479125 33325 L-478880 33303 L-478807 33280 L-478364 33235 L-478268 33212 L-478253 33189 L-478237 33166 L-478212 33144 L-477746 33121 L-477529 33098 L-477389 33075 L-477095 33053 L-477007 33030 L-476966 33007 L-476936 32984 L-476763 32962 L-476704 32939 L-476628 32916 L-476548 32894 L-476478 32894 L-476169 32871 L-476083 32848 L-475870 32825 L-475834 32803 L-475151 32780 L-475052 32757 L-474847 32734 L-474801 32712 L-474522 32689 L-474460 32666 L-474443 32621 L-474365 32598 L-474057 32553 L-474033 32530 L-473979 32484 L-473956 32462 L-473833 32439 L-473698 32393 L-473454 32371 L-473328 32371 L-472681 32348 L-472665 32348 L-472640 32348 L-472460 32303 L-472384 32280 L-472292 32257 L-471864 32234 L-471448 32212 L-471055 32166 L-470977 32143 L-470958 32121 L-470594 32098 L-470358 32075 L-470130 32052 L-469817 32030 L-469739 32007 L-469658 31962 L-469480 31916 L-469464 31893 L-469199 31848 L-469119 31825 L-468889 31802 L-468663 31780 L-468347 31780 L-468172 31757 L-467811 31757 L-467419 31734 L-467350 31689 L-467286 31666 L-467146 31621 L-467094 31598 L-466992 31552 L-466490 31530 L-466293 31507 L-466046 31484 L-465861 31461 L-465561 31439 L-465485 31416 L-465319 31370 L-464435 31348 L-464406 31302 L-464283 31257 L-463704 31234 L-463627 31211 L-462913 31211 L-462601 31211 L-462388 31211 L-462371 31211 L-461985 31211 L-461460 31166 L-461014 31143 L-460684 31120 L-460531 31098 L-460205 31098 L-460027 31075 L-459945 31075 L-459739 31030 L-459564 31007 L-458635 30984 L-457745 30961 L-457706 30939 L-457478 30939 L-457099 30916 L-456312 30893 L-456077 30870 L-456001 30848 L-455644 30825 L-455072 30779 L-454805 30757 L-454419 30734 L-454315 30734 L-454145 30734 L-453527 30734 L-453315 30734 L-453008 30734 L-452955 30711 L-452827 30689 L-452774 30666 L-452655 30643 L-452318 30598 L-451359 30575 L-451228 30529 L-451026 30507 L-450395 30484 L-450083 30461 L-449670 30438 L-449642 30416 L-449497 30393 L-449077 30370 L-447744 30370 L-447697 30348 L-447569 30302 L-447552 30279 L-446974 30234 L-446768 30211 L-446739 30188 L-446698 30166 L-446640 30143 L-446603 30120 L-446525 30097 L-446382 30075 L-445927 30052 L-445809 30029 L-445524 30007 L-445151 29984 L-445055 29961 L-444728 29938 L-444374 29916 L-444204 29893 L-444156 29870 L-444047 29847 L-443958 29825 L-443930 29802 L-443854 29756 L-443551 29734 L-443517 29688 L-443445 29666 L-443077 29643 L-442742 29620 L-442661 29620 L-442441 29597 L-442270 29575 L-442242 29552 L-441745 29529 L-441196 29484 L-440315 29461 L-440217 29416 L-440140 29393 L-439865 29370 L-439618 29325 L-439544 29302 L-439482 29256 L-439364 29234 L-439321 29211 L-439211 29188 L-439134 29143 L-438434 29120 L-438188 29097 L-438149 29075 L-437992 29052 L-437393 29052 L-437166 29052 L-437074 29052 L-436599 29052 L-436001 29006 L-435482 28984 L-435461 28961 L-435315 28938 L-434995 28938 L-434453 28938 L-434221 28938 L-434051 28938 L-433565 28915 L-433337 28893 L-433252 28870 L-432906 28847 L-432580 28847 L-432057 28824 L-431729 28802 L-431129 28779 L-430931 28734 L-430879 28711 L-430839 28688 L-430558 28665 L-429873 28620 L-429563 28597 L-429538 28552 L-429347 28529 L-429124 28506 L-429038 28483 L-428374 28438 L-428350 28415 L-428128 28370 L-427798 28347 L-427446 28302 L-427242 28279 L-427009 28233 L-426751 28211 L-426562 28165 L-426514 28142 L-426287 28120 L-426253 28097 L-426096 28074 L-425882 28052 L-425709 28029 L-425617 28006 L-425340 27983 L-425096 27961 L-424781 27938 L-424355 27938 L-424318 27938 L-423834 27938 L-423601 27938 L-423389 27915 L-423163 27892 L-422613 27892 L-422366 27870 L-421532 27870 L-421476 27847 L-421454 27824 L-421296 27802 L-420835 27779 L-420794 27756 L-420454 27711 L-420321 27688 L-420098 27665 L-419526 27642 L-419054 27620 L-418859 27597 L-418667 27574 L-418477 27551 L-418375 27529 L-418007 27506 L-417961 27483 L-417879 27461 L-416586 27438 L-416538 27415 L-416269 27415 L-416124 27415 L-415573 27415 L-415456 27392 L-415375 27370 L-415015 27347 L-414792 27324 L-414511 27301 L-414181 27256 L-413673 27233 L-413561 27210 L-413482 27188 L-413318 27165 L-413023 27165 L-412555 27165 L-412358 27188 L-412308 27188 L-411658 27165 L-411536 27142 L-411082 27142 L-411046 27120 L-410578 27097 L-410467 27074 L-410451 27051 L-410235 27051 L-410054 27029 L-409522 27029 L-408493 27029 L-408293 27006 L-407835 26983 L-406887 26938 L-406788 26915 L-406434 26869 L-406373 26847 L-406359 26824 L-406323 26801 L-405954 26779 L-405834 26756 L-405592 26733 L-405428 26710 L-405241 26688 L-405120 26665 L-404050 26619 L-403191 26597 L-402979 26551 L-402882 26528 L-402708 26483 L-402374 26460 L-402303 26438 L-402245 26415 L-402070 26415 L-401681 26392 L-401445 26369 L-401334 26347 L-401217 26324 L-400236 26301 L-400211 26278 L-399617 26233 L-399584 26233 L-399435 26210 L-399151 26187 L-398239 26187 L-397293 26187 L-397140 26165 L-397038 26165 L-396906 26142 L-396763 26119 L-396737 26097 L-396622 26074 L-396404 26051 L-395723 26028 L-395593 26006 L-395290 25983 L-395050 25937 L-394717 25915 L-394079 25892 L-393736 25847 L-393674 25824 L-393519 25824 L-392597 25824 L-392127 25824 L-392083 25824 L-392070 25801 L-392029 25778 L-392007 25756 L-391980 25733 L-391836 25710 L-391414 25687 L-391078 25687 L-390887 25665 L-390459 25665 L-390271 25642 L-389882 25596 L-389348 25574 L-388975 25551 L-388954 25551 L-388704 25528 L-388585 25506 L-388509 25483 L-388374 25460 L-388334 25437 L-388254 25415 L-387860 25392 L-387364 25369 L-387252 25324 L-387079 25301 L-386771 25278 L-386323 25255 L-386000 25233 L-385858 25187 L-385431 25142 L-385278 25096 L-385222 25051 L-384409 25028 L-384389 25005 L-384017 24983 L-383960 24983 L-382831 24960 L-382763 24960 L-382205 24937 L-382010 24914 L-381874 24892 L-381640 24869 L-381293 24846 L-381259 24801 L-381224 24778 L-381155 24733 L-380806 24710 L-380634 24687 L-380149 24664 L-380133 24642 L-379808 24619 L-379650 24596 L-378510 24551 L-378485 24528 L-378293 24483 L-378100 24460 L-377849 24437 L-377832 24414 L-376812 24392 L-376514 24369 L-376439 24346 L-376303 24301 L-376127 24278 L-375550 24233 L-375335 24210 L-375271 24187 L-375140 24164 L-375103 24119 L-374580 24096 L-374442 33053 L-374428 33053 L-374405 33053 L-374385 33053 L-374157 24073 L-373382 24073 L-373340 24073 L-372972 24073 L-372894 24051 L-372842 24028 L-372169 24005 L-371426 23982 L-371002 23982 L-370554 23960 L-369492 23937 L-369181 23892 L-368770 23892 L-368698 23869 L-368174 23869 L-368080 23869 L-368062 23869 L-367617 23846 L-367432 23801 L-366651 23755 L-365979 23732 L-365567 23664 L-365335 23619 L-365194 23596 L-365113 23551 L-365093 23528 L-365017 23528 L-364888 23505 L-364571 23528 L-364347 23528 L-364022 23505 L-363960 23505 L-363590 23505 L-363557 23505 L-363348 23505 L-362681 23505 L-362603 23505 L-362445 23460 L-362335 23460 L-362008 23437 L-361853 23414 L-361512 23414 L-361455 23369 L-361117 23323 L-360913 23300 L-360860 23255 L-359484 23232 L-359354 23210 L-358921 23187 L-358600 23164 L-357773 23119 L-357649 23096 L-356919 23050 L-356763 23005 L-356722 22982 L-356668 22959 L-356645 22937 L-356531 22914 L-356235 22891 L-355945 22869 L-355890 22846 L-355770 22823 L-355740 22800 L-355640 22778 L-355196 22778 L-355044 22755 L-354209 22755 L-353667 22732 L-353332 22732 L-353317 22709 L-353241 22687 L-353125 22664 L-352930 22641 L-352666 22619 L-351831 22596 L-351735 22573 L-351214 22550 L-351172 22528 L-351073 22505 L-350244 22505 L-350109 22482 L-349771 22482 L-349216 22459 L-348837 22437 L-348674 22414 L-348364 22391 L-347551 22368 L-347245 22346 L-346977 22346 L-346655 22346 L-346334 22368 L-346059 22368 L-345230 22323 L-345135 22300 L-345043 22232 L-344938 22164 L-344551 22096 L-344071 22050 L-344055 22027 L-343936 22005 L-343568 21959 L-343473 21937 L-342639 21891 L-342562 21868 L-342263 21846 L-342172 21823 L-341765 21777 L-341655 21732 L-340955 21709 L-340482 21686 L-340422 21664 L-340203 21618 L-339930 21596 L-339817 21573 L-338789 21550 L-338403 21527 L-338383 21505 L-338050 21482 L-337805 21459 L-337372 21436 L-337262 21414 L-337144 21391 L-336693 21345 L-336102 21323 L-335766 21300 L-333873 21277 L-333759 21232 L-333547 21209 L-332229 21186 L-332123 16072 L-332057 11025 L-332020 6365 L-331959 6365 L-331459 11434 L-330784 16435 L-330762 21050 L-330492 21005 L-329524 21005 L-328834 20982 L-328672 20959 L-328132 20936 L-328042 20914 L-327022 20891 L-326075 20845 L-325709 20868 L-325606 20891 L-325018 20891 L-324959 20891 L-324858 20868 L-324418 20823 L-324310 20800 L-323869 20777 L-322869 20709 L-322613 20641 L-322510 20573 L-322379 20527 L-322013 20482 L-321432 20436 L-321401 20413 L-321086 20391 L-319103 20368 L-318987 20345 L-318919 20345 L-318561 20323 L-316942 20300 L-316764 20300 L-316620 20300 L-315798 20323 L-315745 20345 L-315690 20345 L-315256 20345 L-314276 20368 L-314202 20368 L-313117 20345 L-312904 20345 L-312188 20300 L-311800 20277 L-311581 20232 L-311261 20186 L-310767 20141 L-310640 20118 L-310411 20072 L-310179 20027 L-310119 20004 L-309830 19982 L-309558 19936 L-308528 19913 L-306863 19891 L-306444 19868 L-306306 19845 L-306150 19845 L-305845 19822 L-305617 19777 L-305459 19754 L-305299 19709 L-305130 19663 L-305083 19641 L-305029 19618 L-305008 19618 L-304621 19595 L-304372 19595 L-304101 19595 L-303940 19595 L-303851 19595 L-302192 19595 L-302027 19618 L-301647 19595 L-301187 19595 L-300577 19550 L-299484 19527 L-299053 19504 L-299022 19481 L-298959 19459 L-298942 19436 L-297238 19413 L-297196 19390 L-296730 19368 L-296543 19345 L-296511 19300 L-295915 19277 L-295866 19254 L-295543 19231 L-295492 19209 L-295282 19186 L-295264 19163 L-294998 19118 L-294945 19095 L-294476 19072 L-293965 19027 L-293887 19027 L-293593 19004 L-293576 18981 L-293538 18959 L-293467 18936 L-293309 18913 L-292363 18913 L-292307 18913 L-291786 18913 L-291593 18890 L-291493 18890 L-291267 18868 L-290757 18868 L-290369 19481 L-290299 19481 L-289951 19459 L-289594 19436 L-288465 18777 L-288414 18731 L-288187 18709 L-288154 18686 L-288029 18640 L-287930 18640 L-287665 18640 L-286925 18663 L-286346 18663 L-286053 18663 L-285347 18663 L-285168 18640 L-285145 18640 L-284509 18618 L-284198 18595 L-283801 18595 L-283772 18572 L-283751 18549 L-283597 18527 L-282912 18527 L-282895 18527 L-282556 18527 L-282283 18504 L-282246 18481 L-282190 18436 L-282168 18413 L-282096 18390 L-281764 18368 L-281658 18345 L-281629 18299 L-281431 18277 L-281278 18254 L-280410 18231 L-279847 18186 L-279831 18186 L-279730 18163 L-279628 18186 L-279482 18186 L-279403 18186 L-279365 18163 L-279310 18140 L-279237 18117 L-279092 18095 L-278610 18095 L-278205 18072 L-277339 18095 L-277319 18095 L-277061 18095 L-276985 18095 L-276956 18072 L-276945 18027 L-276928 18004 L-276635 17981 L-276596 17958 L-276524 17936 L-276450 17913 L-276245 17890 L-276085 17822 L-275784 17754 L-275707 17663 L-275689 17595 L-275473 17549 L-275242 17549 L-275132 17572 L-274762 17595 L-274604 17595 L-274372 17595 L-274204 17595 L-274059 17572 L-273927 17549 L-272651 17504 L-272248 17458 L-272187 17436 L-272070 17390 L-271645 17367 L-271629 17322 L-271568 17299 L-271294 17254 L-271182 17231 L-270899 17185 L-270622 17163 L-270197 17117 L-270175 17095 L-270097 17072 L-269971 17049 L-269384 17026 L-268993 17004 L-268658 16981 L-268068 16958 L-267966 16958 L-267796 16935 L-267660 16935 L-266832 16913 L-265647 16890 L-265611 16867 L-265555 16867 L-265334 16844 L-265129 16844 L-264975 16844 L-264718 16822 L-264642 16799 L-264099 16776 L-264062 16754 L-263814 16731 L-263426 16708 L-262601 16685 L-262242 16663 L-261932 16663 L-261674 16640 L-261450 16617 L-261044 16594 L-260928 16572 L-260744 16549 L-260691 16549 L-260503 16526 L-260332 16503 L-260303 16481 L-260023 16458 L-259712 16435 L-259574 16413 L-259264 16390 L-259070 16390 L-259055 16367 L-258336 16367 L-258202 16322 L-257904 16299 L-257814 16276 L-257213 16276 L-257175 16253 L-257097 16231 L-256476 16208 L-256325 16162 L-256284 16140 L-255973 16117 L-255782 16094 L-255589 16049 L-255533 16003 L-255224 15981 L-255172 15958 L-255118 15981 L-255092 15981 L-254967 15981 L-254156 15958 L-254080 15935 L-253539 15912 L-253270 15890 L-252611 15867 L-251703 15844 L-251462 15822 L-250930 15799 L-250713 15776 L-249605 15799 L-249555 15799 L-248779 15799 L-248232 15776 L-248120 15753 L-247968 15708 L-247912 15685 L-247747 15662 L-247370 15640 L-246922 15617 L-246868 15594 L-246713 15571 L-246033 15549 L-245813 15526 L-245295 15503 L-244446 15458 L-244430 15435 L-242639 15412 L-242085 15390 L-241968 15367 L-240962 15344 L-240925 15321 L-240693 15321 L-240600 15321 L-240560 15321 L-240228 15299 L-239876 15276 L-239611 15230 L-239324 15208 L-239013 15162 L-238759 15117 L-238666 15094 L-238176 15071 L-237968 15049 L-237403 15026 L-237288 15049 L-236937 15026 L-236886 15026 L-236845 15026 L-236242 14980 L-235508 14935 L-234927 14889 L-234692 14844 L-234151 14776 L-233999 14730 L-233497 14708 L-233288 14662 L-233264 14662 L-233205 14639 L-232243 14639 L-232065 14617 L-231623 14594 L-231599 14548 L-231444 14526 L-231362 14526 L-231212 14548 L-230565 14548 L-230516 14526 L-229396 14503 L-228411 14480 L-228350 14458 L-227629 14435 L-226764 14412 L-226386 14389 L-226167 14389 L-225407 14367 L-225355 14344 L-225046 14298 L-224195 14298 L-224002 14276 L-223825 14253 L-223600 14253 L-223474 14230 L-223282 14230 L-223049 14208 L-222880 14230 L-222593 14208 L-222314 14208 L-222231 14185 L-222060 14162 L-222044 14117 L-221890 14094 L-221850 14071 L-221075 14048 L-220999 14048 L-220766 14003 L-220339 13980 L-219994 13957 L-219411 13935 L-219142 13935 L-218883 13935 L-218754 13889 L-218737 13867 L-218624 13844 L-218600 13821 L-218366 13798 L-218330 13776 L-217014 13776 L-216958 13753 L-216279 13707 L-215706 13707 L-215581 13707 L-215428 13707 L-215351 13707 L-215039 13662 L-214766 13639 L-214677 13594 L-214575 13594 L-213647 13571 L-213571 13571 L-213207 13571 L-213182 13548 L-213146 13526 L-212370 13480 L-212279 13457 L-212139 13435 L-211737 13412 L-211475 13412 L-211232 13435 L-211017 13412 L-210937 13412 L-210861 13412 L-210784 13412 L-210597 13435 L-210531 13435 L-210281 13435 L-210226 13412 L-210089 13389 L-210009 13344 L-209896 13321 L-209673 13298 L-209508 13275 L-209467 13253 L-209298 13230 L-208927 13207 L-208912 13185 L-208796 13162 L-208075 13139 L-208039 13116 L-207906 13116 L-207558 13094 L-207147 13094 L-207111 13094 L-207033 13071 L-206994 13048 L-206630 13025 L-206426 13003 L-206411 12980 L-206065 12957 L-205717 12957 L-205391 12957 L-205289 12934 L-205136 12934 L-204942 12912 L-204710 12912 L-204618 12912 L-204462 12912 L-204385 12912 L-204344 12889 L-204231 12866 L-204207 12844 L-203957 12844 L-203818 12798 L-203240 12730 L-202412 12684 L-201924 12639 L-201803 12616 L-201764 12593 L-201752 12571 L-201599 12525 L-201498 12480 L-201265 12457 L-200875 12412 L-200571 12389 L-200555 12366 L-200384 12343 L-200146 12298 L-199549 12298 L-198946 12275 L-198906 12275 L-198866 12275 L-198712 12253 L-198659 12230 L-198597 12207 L-198529 12184 L-198474 12139 L-198449 12116 L-198402 12093 L-198308 12048 L-198170 12025 L-198017 12002 L-197885 11980 L-197844 11980 L-197808 11957 L-197746 11934 L-197473 11889 L-197159 11866 L-197118 11821 L-197033 11798 L-196855 11775 L-196618 11752 L-196260 11730 L-196231 11707 L-195661 11684 L-195538 11661 L-195302 11639 L-195280 11639 L-194998 11616 L-194713 11616 L-194457 11616 L-193885 11593 L-193589 11571 L-193513 11548 L-192814 11525 L-192736 11502 L-192701 11480 L-192675 11457 L-192623 11411 L-192429 11389 L-192289 11343 L-192253 11320 L-192213 11298 L-191618 11275 L-191385 11252 L-191102 11411 L-191047 11548 L-190973 11707 L-190895 11843 L-190659 11798 L-190415 11775 L-190280 11752 L-190173 11730 L-190094 11707 L-189706 11661 L-189579 11639 L-189427 11616 L-189389 11593 L-189243 11571 L-189022 11548 L-188848 11525 L-188779 11502 L-187957 11457 L-187941 11457 L-187647 11434 L-186859 11411 L-186549 11411 L-186403 11389 L-186175 11366 L-185974 11320 L-185037 11298 L-185000 11275 L-184978 11252 L-184937 11207 L-184668 11184 L-184072 11161 L-184008 11139 L-183972 11116 L-183955 11093 L-183260 11093 L-183059 11093 L-183027 11093 L-182694 11093 L-182586 11070 L-181961 11025 L-181457 11002 L-181420 10957 L-180978 10957 L-180882 10934 L-180723 10934 L-180409 10934 L-180397 10934 L-179957 10957 L-179475 10979 L-179346 10979 L-179026 10979 L-178958 10957 L-178653 10957 L-178478 10934 L-178284 10911 L-178041 10866 L-177844 10820 L-177818 10775 L-177240 10752 L-177170 10729 L-176760 10707 L-176706 10684 L-176660 10661 L-176296 10639 L-176149 10616 L-175944 10593 L-175848 10593 L-175693 10570 L-175631 10548 L-175484 10502 L-175383 10479 L-174826 10479 L-174804 10525 L-174632 10548 L-174090 10570 L-174029 10570 L-173975 10525 L-173947 10479 L-173875 10457 L-173859 10411 L-173795 10388 L-173759 10343 L-173604 10320 L-173279 10298 L-172712 10275 L-172698 10252 L-172636 10207 L-172534 10161 L-172488 10161 L-172246 10138 L-171823 10138 L-171669 10138 L-169927 10093 L-169385 10070 L-168442 10047 L-168033 10025 L-167492 9979 L-167295 9957 L-167127 9934 L-166831 9911 L-166716 9888 L-166701 9888 L-166546 9866 L-166406 9843 L-166330 9797 L-166198 9797 L-165850 9797 L-165479 9820 L-164881 9820 L-164705 9820 L-164549 9797 L-164280 9775 L-164129 9775 L-163838 9843 L-163814 9888 L-163731 9934 L-163504 9979 L-162804 9957 L-162677 9934 L-162246 9911 L-162152 9888 L-160947 9888 L-160898 9866 L-160605 9866 L-160201 9843 L-159925 9797 L-159906 9775 L-159788 9752 L-159712 9729 L-159530 9706 L-159050 9684 L-158599 9638 L-158189 9616 L-158159 9593 L-157740 9570 L-157626 9570 L-157508 9570 L-157493 9570 L-157298 9547 L-157277 9502 L-157045 9479 L-156601 9456 L-156282 9411 L-155817 9411 L-155652 9388 L-155497 9365 L-155341 9365 L-154888 9365 L-154569 9365 L-154514 9388 L-154143 9388 L-154105 9411 L-153778 9411 L-153662 9388 L-153563 9365 L-153237 9320 L-152850 9297 L-152589 9275 L-152231 9229 L-151974 9206 L-149804 9184 L-149755 9161 L-149732 9138 L-149321 9138 L-149259 9138 L-149189 9161 L-148958 9161 L-148647 9138 L-148344 9093 L-148300 9070 L-147992 9047 L-147859 9025 L-147642 9002 L-146930 8979 L-146775 8979 L-146637 8956 L-146488 8956 L-146467 8956 L-146273 8934 L-146247 8911 L-146156 8888 L-146134 8865 L-146118 8843 L-146018 8820 L-145089 8797 L-144631 8797 L-143539 8752 L-143117 8752 L-142713 8729 L-142674 8706 L-142421 8684 L-141646 8638 L-141630 8615 L-141605 8593 L-141412 8570 L-140676 8547 L-140407 8524 L-140366 8502 L-139967 8456 L-139942 8433 L-139153 8411 L-138473 8388 L-137102 8365 L-136832 8343 L-136783 8320 L-136246 8274 L-136213 8252 L-136111 8206 L-135788 8183 L-135708 8161 L-135439 8161 L-134527 8138 L-134388 8138 L-134139 8092 L-133594 8092 L-133171 8070 L-132978 8047 L-132963 8047 L-132825 8002 L-132731 7979 L-132604 7956 L-132344 7933 L-132319 7888 L-132228 7865 L-131918 7842 L-131857 7820 L-131740 7820 L-131391 7820 L-130580 7820 L-130349 7774 L-129520 7774 L-129288 7729 L-129071 7706 L-128553 7706 L-127914 7683 L-127498 7661 L-127176 7638 L-126695 7615 L-126270 7615 L-126208 7592 L-125860 7592 L-125819 7570 L-125805 7547 L-125706 7501 L-125661 7501 L-125175 7479 L-124374 7479 L-124039 7479 L-122958 7456 L-122478 7433 L-122455 7411 L-122315 7388 L-121760 7365 L-121063 7342 L-120754 7320 L-120532 7297 L-120427 7274 L-120325 7229 L-119654 7206 L-119560 7183 L-119537 7183 L-119460 7160 L-119282 7160 L-119110 7160 L-118929 7138 L-118916 7115 L-118840 7092 L-118675 7070 L-118161 7047 L-118145 7024 L-118004 7024 L-117642 7001 L-117618 7001 L-117487 6979 L-117462 6956 L-117100 6933 L-116575 6888 L-116481 6865 L-116265 6819 L-116172 6797 L-116147 6774 L-115683 6751 L-115606 6751 L-115204 6729 L-114753 6729 L-113502 6706 L-113463 6683 L-113031 6660 L-112999 6638 L-112280 6615 L-112103 6592 L-111968 6569 L-111661 6547 L-111606 6524 L-111581 6478 L-111565 6433 L-111390 6410 L-111201 6388 L-110693 6388 L-110319 6206 L-109981 6001 L-109942 5819 L-109223 5660 L-109130 5637 L-109091 5615 L-108550 5615 L-108526 5592 L-108124 5569 L-107698 5546 L-107427 5546 L-107248 5524 L-107002 5478 L-106978 5456 L-106922 5410 L-106305 5387 L-105802 5365 L-105415 5365 L-104796 5387 L-104580 5387 L-104425 5410 L-103133 5365 L-103033 5342 L-102591 5296 L-102260 5274 L-101959 5228 L-101717 5205 L-100982 5160 L-100403 5137 L-99573 5115 L-99473 5092 L-98915 5069 L-98777 5046 L-97136 5024 L-97075 5024 L-96981 5024 L-96014 5024 L-95836 5001 L-95549 5001 L-95332 5001 L-95253 4978 L-94982 4978 L-94867 4955 L-94714 4933 L-94403 4910 L-94325 4887 L-94234 4887 L-94157 4864 L-94041 4864 L-93861 4842 L-93769 4819 L-93731 4796 L-93228 4796 L-93010 4774 L-92880 4774 L-92725 4751 L-92670 4728 L-92546 4728 L-92161 4705 L-91652 4683 L-91580 4660 L-91100 4637 L-91023 4614 L-90922 4614 L-90689 4592 L-90224 4592 L-89994 4592 L-89978 4592 L-89746 4592 L-89591 4592 L-89530 4592 L-89337 4569 L-89066 4523 L-88314 4501 L-87361 4501 L-87325 4478 L-87100 4478 L-86660 4478 L-86380 4433 L-86031 4410 L-84962 4387 L-84034 4387 L-83904 4387 L-83857 4387 L-83788 4364 L-83633 4364 L-83555 4319 L-83382 4273 L-82947 4228 L-82743 4205 L-82683 4160 L-82100 4137 L-81946 4092 L-81831 4069 L-81790 4046 L-81620 4023 L-81483 4001 L-81273 3955 L-81195 3932 L-81172 3910 L-80963 3864 L-80553 3842 L-80529 3819 L-80305 3796 L-80160 3773 L-80125 3751 L-80112 3728 L-80090 3705 L-79856 3682 L-79671 3660 L-79453 3637 L-79428 3614 L-78739 3591 L-78635 3569 L-78600 3546 L-78579 3523 L-78385 3501 L-78332 3478 L-78215 3432 L-78133 3432 L-78022 3410 L-77708 3387 L-77249 3364 L-76993 3341 L-76759 3296 L-76629 3273 L-76277 3250 L-76218 3228 L-76065 3205 L-75493 3160 L-75406 3137 L-75253 3091 L-74957 3046 L-74587 3000 L-74284 2955 L-74208 2932 L-73803 2909 L-73635 2909 L-73491 2909 L-72950 2909 L-72890 2909 L-72874 2864 L-72708 2841 L-72502 2819 L-72427 2819 L-72334 2796 L-71925 2773 L-71909 2750 L-71885 2750 L-71692 2728 L-71616 2932 L-71445 3137 L-71383 3319 L-71367 3523 L-70853 3501 L-70632 3478 L-70013 3432 L-69759 3410 L-69565 3387 L-69526 3364 L-69452 3364 L-69387 3364 L-68737 3364 L-68698 3387 L-68524 3387 L-68458 3387 L-67784 3387 L-67395 3341 L-67133 3319 L-66895 3296 L-66818 3250 L-66802 3205 L-66600 3182 L-66229 3137 L-66004 3114 L-65368 3091 L-65348 3091 L-64961 3069 L-64867 3069 L-64809 3046 L-64533 3023 L-64224 3023 L-64147 3000 L-63295 3023 L-62953 3137 L-62516 3273 L-62082 3387 L-61587 3501 L-61437 3478 L-61169 3501 L-59931 3523 L-59874 3569 L-58110 3591 L-57920 3569 L-56910 3546 L-56759 3523 L-56383 3569 L-56063 3614 L-55457 3660 L-55388 3705 L-55210 3682 L-54382 3660 L-54243 3637 L-53856 3614 L-53672 3591 L-53628 3569 L-53508 3546 L-53299 3523 L-52851 3478 L-52503 3455 L-52371 3432 L-51962 3410 L-51611 3410 L-51326 3387 L-51133 3364 L-50978 3364 L-50814 3341 L-50746 3319 L-50646 3319 L-50413 3296 L-50296 3296 L-50243 3273 L-49701 3273 L-49237 3250 L-48055 3250 L-47921 3250 L-47897 3250 L-47844 3250 L-47176 3250 L-46142 3205 L-45948 3182 L-45768 3160 L-45617 3160 L-45576 3137 L-45561 3137 L-45500 3114 L-45174 3091 L-44014 3069 L-43820 3046 L-43643 3023 L-42529 3000 L-41669 2978 L-41563 2978 L-41089 2955 L-40897 2955 L-38575 2932 L-38498 2909 L-38376 2864 L-38342 2841 L-38305 2796 L-38210 2728 L-37994 2682 L-37413 2637 L-37027 2614 L-36254 2591 L-36176 2568 L-35479 2568 L-34937 2568 L-34896 2546 L-34766 2546 L-34302 2523 L-34264 2500 L-34129 2478 L-33761 2455 L-33731 2432 L-33581 2432 L-33180 2409 L-31356 2432 L-30550 2409 L-29831 2409 L-29814 2409 L-29500 2364 L-28939 2341 L-28437 2318 L-27919 2296 L-27897 2273 L-26153 2250 L-25984 2228 L-25788 2205 L-24895 2182 L-24376 2137 L-24166 2114 L-23908 2091 L-23198 2068 L-22248 2046 L-21590 2023 L-21550 1977 L-21264 1955 L-21181 1932 L-21086 1932 L-20954 1909 L-20877 1909 L-20142 1909 L-19805 1887 L-19755 1909 L-19500 1909 L-19213 1887 L-18788 1887 L-18207 1864 L-17948 1864 L-17797 1841 L-17549 1841 L-17511 1841 L-16714 1818 L-16676 1796 L-16499 1796 L-16090 1750 L-15861 1750 L-15785 1750 L-15654 1750 L-15538 1727 L-15189 1705 L-15126 1682 L-14974 1659 L-14233 1636 L-14121 1614 L-13951 1591 L-13912 1568 L-13618 1568 L-13216 1568 L-13040 1568 L-12945 1568 L-12636 1546 L-11834 1523 L-11376 1477 L-10856 1455 L-10367 1432 L-9672 1409 L-8625 1386 L-8357 1386 L-8302 1364 L-8142 1364 L-7891 1364 L-7645 1341 L-7566 1318 L-7351 1273 L-7039 1250 L-6576 1205 L-6561 1182 L-6265 1182 L-6252 1159 L-5261 1136 L-4588 1114 L-4253 1068 L-3637 1068 L-3500 1045 L-2861 1023 L-2731 1000 L-1780 954 L-1681 909 L-1121 886 L-713 886 L-284 886 L-193 864 L641 864 L1004 864 L1044 886 L1176 909 L1353 909 L1569 909 L1623 886 L1780 841 L2033 818 L3133 795 L3210 773 L3430 750 L3561 704 L3597 682 L3790 659 L3890 636 L4374 614 L4658 591 L4818 568 L4913 523 L5184 500 L5454 477 L5470 386 L5609 318 L5747 250 L6074 159 L6383 113 L6424 91 L6500 45" />
</svg>
