<svg xmlns="http://www.w3.org/2000/svg" version="1.1" viewBox="0 0 6500 1000">
	<path fill="none" stroke="gold" stroke-width="125" stroke-linecap="round" stroke-linejoin="round" d="M0 293766  L-1326169 293766 L-1325985 293764 L-1325494 293762 L-1325201 293760 L-1324890 293758 L-1324655 293756 L-1324602 293754 L-1324542 293751 L-1324389 293750 L-1324349 293747 L-1324216 293746 L-1323924 293744 L-1323383 293744 L-1322773 293743 L-1322725 293743 L-1322085 293742 L-1322051 293742 L-1321526 293742 L-1321393 293740 L-1321003 293738 L-1320675 293735 L-1320558 293732 L-1320347 293730 L-1319630 293730 L-1319060 293728 L-1318952 293728 L-1318778 293727 L-1318557 293724 L-1318155 293723 L-1318129 293720 L-1317201 293718 L-1317114 293715 L-1317032 293712 L-1316962 293710 L-1316664 293708 L-1316512 293706 L-1314622 293707 L-1314521 293707 L-1314259 293707 L-1313965 293708 L-1313824 293706 L-1313575 293706 L-1313539 293704 L-1313381 293703 L-1312918 293700 L-1312665 293699 L-1312452 293696 L-1312201 293695 L-1311852 293694 L-1310925 293691 L-1310831 293688 L-1310420 293687 L-1309249 293684 L-1308060 293683 L-1307968 293680 L-1307941 293678 L-1307675 293675 L-1307376 293672 L-1307247 293670 L-1307209 293667 L-1306395 293667 L-1306011 293668 L-1304950 293670 L-1304889 293670 L-1304624 293696 L-1304153 293722 L-1303960 293747 L-1303697 293772 L-1303360 293771 L-1303224 293770 L-1302769 293768 L-1302026 293767 L-1302008 293766 L-1301843 293763 L-1301775 293763 L-1301258 293762 L-1300230 293762 L-1300034 293760 L-1299545 293759 L-1299183 293758 L-1298774 293758 L-1298389 293759 L-1296685 293759 L-1296587 293759 L-1296516 293759 L-1296454 293759 L-1296270 293758 L-1295933 293758 L-1295293 293756 L-1295216 293755 L-1295155 293755 L-1294968 293754 L-1294888 293754 L-1294711 293752 L-1294692 293751 L-1294462 293751 L-1294074 293750 L-1293186 293750 L-1293146 293748 L-1293058 293747 L-1293031 293744 L-1292023 293743 L-1291873 293740 L-1291849 293739 L-1291716 293738 L-1291676 293736 L-1290418 293735 L-1290360 293735 L-1289820 293734 L-1289768 293734 L-1289721 293734 L-1289326 293732 L-1289186 293731 L-1288986 293730 L-1288840 293730 L-1288675 293730 L-1288398 293731 L-1288040 293731 L-1287487 293730 L-1286842 293728 L-1286583 293726 L-1286430 293724 L-1286029 293723 L-1285989 293722 L-1285868 293720 L-1285806 293722 L-1285792 293722 L-1285698 293722 L-1285405 293720 L-1285254 293715 L-1284924 293712 L-1284846 293710 L-1284770 293708 L-1284543 293704 L-1284477 293702 L-1284249 293699 L-1284197 293696 L-1284032 293695 L-1283026 293694 L-1282843 293692 L-1282292 293691 L-1281899 293688 L-1281501 293687 L-1280651 293684 L-1280573 293683 L-1279994 293682 L-1279553 293682 L-1279312 293680 L-1279154 293680 L-1278754 293678 L-1278733 293678 L-1278288 293676 L-1277883 293675 L-1277747 293672 L-1277572 293670 L-1277435 293667 L-1277185 293664 L-1276185 293663 L-1276103 293662 L-1275968 293660 L-1275929 293659 L-1275039 293658 L-1274823 293656 L-1274380 293655 L-1274263 293654 L-1274206 293652 L-1273530 293652 L-1273429 293651 L-1273401 293651 L-1272059 293650 L-1271653 293648 L-1271613 293647 L-1270685 293646 L-1270587 293644 L-1270454 293643 L-1270050 293642 L-1270024 293640 L-1269931 293639 L-1269714 293638 L-1269303 293635 L-1268150 293632 L-1267858 293630 L-1267829 293627 L-1267221 293626 L-1266971 293623 L-1266951 293622 L-1266022 293620 L-1265971 293618 L-1265848 293616 L-1265831 293614 L-1265675 293613 L-1265500 293610 L-1265363 293609 L-1265307 293607 L-1265199 293606 L-1265113 293605 L-1264880 293603 L-1264805 293602 L-1264497 293601 L-1264379 293599 L-1264209 293598 L-1264118 293597 L-1264015 293597 L-1263992 293595 L-1263915 293595 L-1263817 293593 L-1263450 293591 L-1263346 293590 L-1262842 293589 L-1262390 293587 L-1262352 293586 L-1262328 293585 L-1262287 293583 L-1262159 293582 L-1262058 293581 L-1261616 293579 L-1261334 293578 L-1260742 293577 L-1260611 293575 L-1260337 293573 L-1260184 293571 L-1260031 293570 L-1259946 293567 L-1259868 293566 L-1259682 293565 L-1259632 293565 L-1259604 293563 L-1259524 293562 L-1259501 293561 L-1259218 293558 L-1258614 293555 L-1257619 293554 L-1257321 293553 L-1256587 293551 L-1256342 293550 L-1256252 293549 L-1255675 293547 L-1254977 293546 L-1254224 293545 L-1253906 293543 L-1253523 293541 L-1253446 293539 L-1252812 293538 L-1252626 293537 L-1252538 293537 L-1252409 293537 L-1252096 293535 L-1252047 293534 L-1251905 293533 L-1251883 293531 L-1250915 293530 L-1250370 293529 L-1249892 293529 L-1249831 293529 L-1249507 293529 L-1249485 293527 L-1249423 293527 L-1249213 293526 L-1249136 293525 L-1249081 293523 L-1249059 293522 L-1249020 293521 L-1249004 293519 L-1248247 293518 L-1248230 293517 L-1247431 293515 L-1247278 293514 L-1246373 293513 L-1245867 293511 L-1245638 293509 L-1245596 293509 L-1245481 293507 L-1245305 293506 L-1244550 293507 L-1244415 293506 L-1244251 293505 L-1243933 293503 L-1243757 293501 L-1242735 293498 L-1242712 293495 L-1242461 293494 L-1242248 293491 L-1241614 293490 L-1241376 293487 L-1241343 293485 L-1241165 293482 L-1241085 293479 L-1240995 293478 L-1240931 293475 L-1240490 293473 L-1240467 293471 L-1239926 293470 L-1239670 293469 L-1239175 293467 L-1238298 293466 L-1238261 293465 L-1238209 293463 L-1238167 293462 L-1238050 293461 L-1237774 293459 L-1237567 293457 L-1237369 293454 L-1237346 293451 L-1237296 293449 L-1237257 293447 L-1237179 293446 L-1236581 293444 L-1236521 293442 L-1236418 293441 L-1236264 293440 L-1235632 293438 L-1234951 293437 L-1234648 293434 L-1234301 293433 L-1234104 293432 L-1234056 293429 L-1233735 293428 L-1233108 293426 L-1232961 293425 L-1232925 293424 L-1232867 293422 L-1232790 293420 L-1232549 293420 L-1232461 293418 L-1232367 293417 L-1232073 293416 L-1231938 293414 L-1231878 293413 L-1231841 293410 L-1231569 293410 L-1230563 293409 L-1230387 293408 L-1230337 293408 L-1230044 293406 L-1229852 293404 L-1229519 293402 L-1229012 293401 L-1228450 293398 L-1228435 293396 L-1228418 293394 L-1228318 293392 L-1228203 293389 L-1228164 293386 L-1228127 293385 L-1228061 293385 L-1228033 293384 L-1227894 293385 L-1227601 293385 L-1227551 293385 L-1227446 293385 L-1227181 293384 L-1226716 293382 L-1226572 293382 L-1226517 293380 L-1226460 293378 L-1226269 293377 L-1225904 293376 L-1225690 293376 L-1225495 293376 L-1225437 293376 L-1225378 293373 L-1225224 293372 L-1224955 293370 L-1224525 293377 L-1224509 293377 L-1224432 293376 L-1224368 293374 L-1224239 293365 L-1224215 293364 L-1223931 293362 L-1223883 293361 L-1223829 293360 L-1223366 293358 L-1223328 293358 L-1223287 293357 L-1223097 293356 L-1222616 293354 L-1222129 293353 L-1222113 293352 L-1222075 293350 L-1221818 293349 L-1221741 293346 L-1221511 293345 L-1221495 293342 L-1221200 293340 L-1220758 293338 L-1220311 293337 L-1219807 293336 L-1219653 293334 L-1219366 293333 L-1219326 293330 L-1218995 293329 L-1218773 293328 L-1218256 293325 L-1218180 293324 L-1217932 293321 L-1217738 293318 L-1217678 293317 L-1216902 293316 L-1216828 293316 L-1216597 293314 L-1216581 293314 L-1216519 293313 L-1216323 293312 L-1215859 293312 L-1215836 293310 L-1215706 293310 L-1214405 293310 L-1214389 293310 L-1214311 293309 L-1214218 293309 L-1214001 293309 L-1213848 293308 L-1213670 293309 L-1213616 293310 L-1213329 293312 L-1213289 293312 L-1212920 293312 L-1212479 293312 L-1212296 293312 L-1211975 293310 L-1211680 293310 L-1211234 293308 L-1211162 293306 L-1210700 293304 L-1210262 293302 L-1210080 293301 L-1208626 293298 L-1208494 293297 L-1208037 293294 L-1207811 293293 L-1207425 293290 L-1206908 293288 L-1205954 293285 L-1205160 293282 L-1204485 293281 L-1204060 293278 L-1203749 293277 L-1203519 293273 L-1202835 293269 L-1202822 293265 L-1202612 293260 L-1202590 293259 L-1202416 293256 L-1201466 293255 L-1201198 293252 L-1200383 293251 L-1200072 293248 L-1200035 293247 L-1199977 293244 L-1199360 293243 L-1198723 293240 L-1197097 293239 L-1196423 293237 L-1195781 293237 L-1195703 293237 L-1195647 293237 L-1195611 293237 L-1195583 293236 L-1195471 293233 L-1195453 293232 L-1195430 293231 L-1195277 293229 L-1195223 293227 L-1195145 293225 L-1195026 293224 L-1194928 293223 L-1194811 293221 L-1194541 293219 L-1194272 293217 L-1194254 293215 L-1194054 293213 L-1193907 293211 L-1193681 293209 L-1193547 293208 L-1193238 293207 L-1193178 293205 L-1192825 293203 L-1192476 293201 L-1192375 293200 L-1192311 293197 L-1192251 293196 L-1191867 293193 L-1191486 293192 L-1191381 293191 L-1191121 293189 L-1190850 293187 L-1190691 293185 L-1190658 293184 L-1190596 293183 L-1190455 293181 L-1190271 293180 L-1190227 293179 L-1189939 293179 L-1189923 293177 L-1189689 293177 L-1189628 293176 L-1189590 293176 L-1189010 293175 L-1188877 293173 L-1188853 293168 L-1188835 293159 L-1188817 293148 L-1188801 293137 L-1188777 293127 L-1188761 293119 L-1188740 293109 L-1188723 293100 L-1188700 293095 L-1188683 293090 L-1188661 293086 L-1188645 293083 L-1188596 293079 L-1188523 293075 L-1188489 293068 L-1188465 293063 L-1188429 293058 L-1188388 293052 L-1188351 293050 L-1188335 293044 L-1188311 293040 L-1188274 293038 L-1188257 293034 L-1188234 293031 L-1188216 293028 L-1188198 293026 L-1188182 293023 L-1188152 293019 L-1188126 293015 L-1188081 293014 L-1188065 293011 L-1188023 293010 L-1187975 293007 L-1187904 293004 L-1187889 293002 L-1187873 292999 L-1187810 292998 L-1187771 292996 L-1187732 292995 L-1187566 292994 L-1187501 292992 L-1187485 292991 L-1187441 292988 L-1187382 292987 L-1187170 292986 L-1187136 292984 L-1187094 292983 L-1187016 292982 L-1186478 292980 L-1186400 292979 L-1186296 292976 L-1186207 292975 L-1186031 292974 L-1185681 292972 L-1185525 292971 L-1185087 292970 L-1184930 292968 L-1184800 292967 L-1184096 292964 L-1183895 292963 L-1182935 292960 L-1182452 292959 L-1182353 292959 L-1182261 292958 L-1182016 292956 L-1181943 292955 L-1181500 292952 L-1181404 292951 L-1181389 292950 L-1181373 292948 L-1181348 292947 L-1180882 292946 L-1180665 292944 L-1180526 292943 L-1180232 292942 L-1180143 292940 L-1180102 292939 L-1180072 292938 L-1179899 292937 L-1179840 292935 L-1179764 292934 L-1179684 292933 L-1179614 292933 L-1179305 292931 L-1179220 292930 L-1179006 292929 L-1178971 292927 L-1178287 292926 L-1178188 292925 L-1177983 292923 L-1177937 292922 L-1177658 292921 L-1177596 292919 L-1177579 292917 L-1177501 292915 L-1177193 292913 L-1177169 292911 L-1177115 292909 L-1177092 292907 L-1176970 292906 L-1176834 292903 L-1176590 292902 L-1176464 292902 L-1175817 292901 L-1175801 292901 L-1175777 292901 L-1175596 292898 L-1175520 292897 L-1175428 292895 L-1175001 292894 L-1174584 292893 L-1174192 292890 L-1174113 292889 L-1174094 292887 L-1173731 292886 L-1173494 292885 L-1173266 292883 L-1172953 292882 L-1172875 292881 L-1172794 292878 L-1172616 292875 L-1172601 292874 L-1172335 292871 L-1172255 292870 L-1172025 292869 L-1171799 292867 L-1171483 292867 L-1171308 292866 L-1170947 292866 L-1170555 292865 L-1170486 292862 L-1170422 292861 L-1170282 292858 L-1170230 292857 L-1170128 292854 L-1169627 292853 L-1169429 292851 L-1169183 292850 L-1168997 292849 L-1168697 292847 L-1168621 292846 L-1168455 292843 L-1167571 292842 L-1167542 292839 L-1167419 292837 L-1166841 292835 L-1166763 292834 L-1166049 292834 L-1165737 292834 L-1165524 292834 L-1165507 292834 L-1165121 292834 L-1164596 292831 L-1164150 292830 L-1163820 292829 L-1163667 292827 L-1163341 292827 L-1163163 292826 L-1163082 292826 L-1162875 292823 L-1162700 292822 L-1161771 292821 L-1160882 292819 L-1160842 292818 L-1160615 292818 L-1160235 292817 L-1159448 292815 L-1159213 292814 L-1159138 292813 L-1158780 292811 L-1158208 292809 L-1157941 292807 L-1157555 292806 L-1157451 292806 L-1157281 292806 L-1156663 292806 L-1156452 292806 L-1156144 292806 L-1156091 292805 L-1155963 292803 L-1155910 292802 L-1155791 292801 L-1155455 292798 L-1154495 292797 L-1154364 292794 L-1154162 292793 L-1153531 292791 L-1153220 292790 L-1152806 292789 L-1152778 292787 L-1152633 292786 L-1152213 292785 L-1150880 292785 L-1150833 292783 L-1150705 292781 L-1150688 292779 L-1150110 292777 L-1149904 292775 L-1149875 292774 L-1149834 292773 L-1149777 292771 L-1149739 292770 L-1149661 292769 L-1149518 292768 L-1149063 292766 L-1148945 292765 L-1148660 292764 L-1148287 292762 L-1148191 292761 L-1147864 292760 L-1147510 292758 L-1147340 292757 L-1147293 292756 L-1147183 292754 L-1147094 292753 L-1147067 292752 L-1146990 292749 L-1146687 292748 L-1146653 292745 L-1146581 292744 L-1146213 292742 L-1145878 292741 L-1145797 292741 L-1145577 292740 L-1145406 292738 L-1145378 292737 L-1144881 292736 L-1144332 292733 L-1143451 292732 L-1143353 292729 L-1143276 292728 L-1143002 292726 L-1142754 292724 L-1142680 292722 L-1142619 292720 L-1142500 292718 L-1142457 292717 L-1142347 292716 L-1142271 292713 L-1141570 292712 L-1141324 292710 L-1141285 292709 L-1141128 292708 L-1140529 292708 L-1140302 292708 L-1140210 292708 L-1139735 292708 L-1139138 292705 L-1138618 292704 L-1138597 292702 L-1138452 292701 L-1138132 292701 L-1137590 292701 L-1137358 292701 L-1137187 292701 L-1136701 292700 L-1136473 292698 L-1136388 292697 L-1136042 292696 L-1135716 292696 L-1135193 292694 L-1134866 292693 L-1134265 292692 L-1134068 292689 L-1134016 292688 L-1133975 292686 L-1133694 292685 L-1133009 292682 L-1132699 292681 L-1132674 292678 L-1132483 292677 L-1132260 292676 L-1132174 292674 L-1131511 292672 L-1131486 292670 L-1131265 292668 L-1130935 292666 L-1130583 292664 L-1130378 292662 L-1130145 292660 L-1129887 292658 L-1129698 292656 L-1129651 292654 L-1129423 292653 L-1129389 292652 L-1129232 292650 L-1129018 292649 L-1128845 292648 L-1128754 292646 L-1128476 292645 L-1128233 292644 L-1127917 292642 L-1127491 292642 L-1127454 292642 L-1126970 292642 L-1126737 292642 L-1126525 292641 L-1126299 292640 L-1125749 292640 L-1125502 292638 L-1124668 292638 L-1124612 292637 L-1124590 292636 L-1124432 292634 L-1123971 292633 L-1123930 292632 L-1123590 292629 L-1123457 292628 L-1123234 292626 L-1122662 292625 L-1122190 292624 L-1121996 292622 L-1121803 292621 L-1121613 292620 L-1121512 292618 L-1121143 292617 L-1121097 292616 L-1121015 292614 L-1119722 292613 L-1119674 292612 L-1119405 292612 L-1119260 292612 L-1118709 292612 L-1118593 292610 L-1118511 292609 L-1118152 292608 L-1117928 292606 L-1117647 292605 L-1117318 292602 L-1116810 292601 L-1116697 292600 L-1116618 292599 L-1116454 292597 L-1116160 292597 L-1115691 292597 L-1115494 292599 L-1115444 292599 L-1114794 292597 L-1114672 292596 L-1114218 292596 L-1114182 292595 L-1113714 292593 L-1113603 292592 L-1113587 292591 L-1113371 292591 L-1113190 292589 L-1112658 292589 L-1111629 292589 L-1111429 292588 L-1110971 292587 L-1110023 292584 L-1109924 292583 L-1109570 292580 L-1109509 292579 L-1109495 292577 L-1109460 292576 L-1109090 292575 L-1108970 292573 L-1108728 292572 L-1108565 292571 L-1108377 292569 L-1108256 292568 L-1107186 292565 L-1106328 292564 L-1106115 292561 L-1106018 292560 L-1105844 292557 L-1105511 292556 L-1105439 292555 L-1105381 292553 L-1105206 292553 L-1104817 292552 L-1104582 292551 L-1104470 292549 L-1104353 292548 L-1103373 292547 L-1103347 292545 L-1102753 292543 L-1102720 292543 L-1102572 292541 L-1102287 292540 L-1101375 292540 L-1100429 292540 L-1100276 292539 L-1100174 292539 L-1100042 292537 L-1099899 292536 L-1099873 292535 L-1099758 292533 L-1099540 292532 L-1098859 292531 L-1098729 292529 L-1098426 292528 L-1098186 292525 L-1097854 292524 L-1097215 292523 L-1096872 292520 L-1096811 292519 L-1096655 292519 L-1095733 292519 L-1095263 292519 L-1095219 292519 L-1095207 292517 L-1095165 292516 L-1095143 292515 L-1095116 292513 L-1094972 292512 L-1094550 292511 L-1094215 292511 L-1094023 292509 L-1093595 292509 L-1093407 292508 L-1093018 292505 L-1092484 292504 L-1092111 292503 L-1092090 292503 L-1091840 292501 L-1091721 292500 L-1091646 292499 L-1091510 292497 L-1091470 292496 L-1091391 292495 L-1090996 292493 L-1090500 292492 L-1090388 292489 L-1090215 292488 L-1089907 292487 L-1089460 292485 L-1089137 292484 L-1088994 292481 L-1088567 292479 L-1088414 292476 L-1088359 292473 L-1087545 292472 L-1087525 292471 L-1087153 292469 L-1087096 292469 L-1085967 292468 L-1085899 292468 L-1085341 292467 L-1085146 292465 L-1085010 292464 L-1084777 292463 L-1084430 292461 L-1084395 292459 L-1084360 292457 L-1084291 292455 L-1083943 292453 L-1083770 292452 L-1083286 292451 L-1083269 292449 L-1082944 292448 L-1082787 292447 L-1081646 292444 L-1081621 292443 L-1081429 292440 L-1081236 292439 L-1080986 292437 L-1080968 292436 L-1079948 292435 L-1079650 292433 L-1079575 292432 L-1079439 292430 L-1079263 292428 L-1078686 292426 L-1078471 292424 L-1078407 292423 L-1078276 292422 L-1078239 292419 L-1077716 292418 L-1077578 292942 L-1077564 292942 L-1077541 292942 L-1077521 292942 L-1077294 292416 L-1076518 292416 L-1076476 292416 L-1076108 292416 L-1076030 292415 L-1075978 292414 L-1075305 292412 L-1074562 292411 L-1074138 292411 L-1073690 292410 L-1072628 292408 L-1072317 292406 L-1071907 292406 L-1071835 292404 L-1071310 292404 L-1071216 292404 L-1071198 292404 L-1070753 292403 L-1070568 292400 L-1069787 292398 L-1069115 292396 L-1068703 292392 L-1068471 292390 L-1068330 292388 L-1068249 292386 L-1068229 292384 L-1068153 292384 L-1068024 292383 L-1067707 292384 L-1067483 292384 L-1067158 292383 L-1067096 292383 L-1066726 292383 L-1066693 292383 L-1066484 292383 L-1065817 292383 L-1065739 292383 L-1065581 292380 L-1065471 292380 L-1065144 292379 L-1064989 292378 L-1064649 292378 L-1064591 292375 L-1064253 292372 L-1064050 292371 L-1063997 292368 L-1062620 292367 L-1062491 292366 L-1062057 292364 L-1061737 292363 L-1060909 292360 L-1060786 292359 L-1060055 292356 L-1059899 292354 L-1059858 292352 L-1059804 292351 L-1059781 292350 L-1059667 292348 L-1059371 292347 L-1059081 292346 L-1059027 292344 L-1058906 292343 L-1058876 292342 L-1058776 292340 L-1058332 292340 L-1058180 292339 L-1057345 292339 L-1056803 292338 L-1056468 292338 L-1056453 292336 L-1056377 292335 L-1056261 292334 L-1056066 292332 L-1055802 292331 L-1054968 292330 L-1054871 292328 L-1054350 292327 L-1054308 292326 L-1054209 292324 L-1053380 292324 L-1053245 292323 L-1052907 292323 L-1052353 292322 L-1051973 292320 L-1051810 292319 L-1051500 292318 L-1050687 292316 L-1050381 292315 L-1050113 292315 L-1049791 292315 L-1049470 292316 L-1049195 292316 L-1048366 292314 L-1048271 292312 L-1048179 292308 L-1048074 292304 L-1047687 292300 L-1047207 292298 L-1047191 292296 L-1047072 292295 L-1046704 292292 L-1046610 292291 L-1045776 292288 L-1045699 292287 L-1045399 292286 L-1045309 292284 L-1044901 292282 L-1044791 292279 L-1044092 292278 L-1043619 292276 L-1043558 292275 L-1043340 292272 L-1043066 292271 L-1042953 292270 L-1041926 292268 L-1041539 292267 L-1041519 292266 L-1041186 292264 L-1040942 292263 L-1040508 292262 L-1040398 292261 L-1040281 292259 L-1039829 292257 L-1039238 292255 L-1038902 292254 L-1037009 292253 L-1036895 292250 L-1036684 292249 L-1035365 292247 L-1035259 291948 L-1035193 291652 L-1035157 291380 L-1035095 291380 L-1034595 291676 L-1033920 291969 L-1033898 292239 L-1033628 292237 L-1032660 292237 L-1031970 292235 L-1031808 292234 L-1031268 292233 L-1031178 292231 L-1030159 292230 L-1029211 292227 L-1028845 292229 L-1028742 292230 L-1028154 292230 L-1028095 292230 L-1027994 292229 L-1027554 292226 L-1027447 292225 L-1027005 292223 L-1026005 292219 L-1025749 292215 L-1025646 292211 L-1025516 292209 L-1025149 292206 L-1024568 292203 L-1024537 292202 L-1024222 292201 L-1022239 292199 L-1022123 292198 L-1022055 292198 L-1021697 292197 L-1020078 292195 L-1019900 292195 L-1019756 292195 L-1018934 292197 L-1018881 292198 L-1018826 292198 L-1018392 292198 L-1017412 292199 L-1017338 292199 L-1016253 292198 L-1016040 292198 L-1015324 292195 L-1014936 292194 L-1014717 292191 L-1014397 292189 L-1013904 292186 L-1013776 292185 L-1013547 292182 L-1013315 292179 L-1013256 292178 L-1012966 292177 L-1012694 292174 L-1011664 292173 L-1009999 292171 L-1009580 292170 L-1009443 292169 L-1009286 292169 L-1008981 292167 L-1008753 292165 L-1008595 292163 L-1008435 292161 L-1008266 292158 L-1008219 292157 L-1008165 292155 L-1008144 292155 L-1007758 292154 L-1007508 292154 L-1007237 292154 L-1007077 292154 L-1006987 292154 L-1005328 292154 L-1005163 292155 L-1004783 292154 L-1004323 292154 L-1003713 292151 L-1002620 292150 L-1002189 292149 L-1002158 292147 L-1002095 292146 L-1002078 292145 L-1000374 292143 L-1000332 292142 L-999866 292141 L-999679 292139 L-999647 292137 L-999052 292135 L-999002 292134 L-998679 292133 L-998628 292131 L-998418 292130 L-998400 292129 L-998134 292126 L-998081 292125 L-997612 292123 L-997102 292121 L-997023 292121 L-996729 292119 L-996712 292118 L-996674 292117 L-996603 292115 L-996445 292114 L-995499 292114 L-995443 292114 L-994922 292114 L-994730 292113 L-994629 292113 L-994403 292111 L-993893 292111 L-993505 292147 L-993435 292147 L-993087 292146 L-992730 292145 L-991601 292106 L-991550 292103 L-991324 292102 L-991290 292101 L-991165 292098 L-991066 292098 L-990801 292098 L-990061 292099 L-989483 292099 L-989189 292099 L-988483 292099 L-988305 292098 L-988281 292098 L-987645 292097 L-987334 292095 L-986938 292095 L-986908 292094 L-986887 292093 L-986733 292092 L-986048 292092 L-986032 292092 L-985692 292092 L-985419 292090 L-985382 292089 L-985326 292086 L-985304 292085 L-985232 292084 L-984900 292082 L-984794 292081 L-984765 292078 L-984567 292077 L-984414 292076 L-983546 292074 L-982984 292072 L-982968 292072 L-982866 292070 L-982764 292072 L-982618 292072 L-982539 292072 L-982502 292070 L-982446 292069 L-982373 292068 L-982228 292066 L-981746 292066 L-981342 292065 L-980475 292066 L-980455 292066 L-980198 292066 L-980121 292066 L-980092 292065 L-980081 292062 L-980064 292061 L-979771 292060 L-979732 292058 L-979660 292057 L-979586 292056 L-979381 292054 L-979221 292050 L-978920 292046 L-978843 292041 L-978826 292037 L-978609 292034 L-978378 292034 L-978268 292036 L-977898 292037 L-977740 292037 L-977508 292037 L-977340 292037 L-977195 292036 L-977063 292034 L-975787 292032 L-975384 292029 L-975323 292028 L-975206 292025 L-974781 292024 L-974766 292021 L-974704 292020 L-974430 292017 L-974318 292016 L-974036 292013 L-973758 292012 L-973333 292009 L-973311 292008 L-973233 292006 L-973107 292005 L-972521 292004 L-972129 292002 L-971794 292001 L-971205 292000 L-971102 292000 L-970932 291998 L-970796 291998 L-969968 291997 L-968783 291996 L-968747 291994 L-968691 291994 L-968471 291993 L-968266 291993 L-968111 291993 L-967854 291992 L-967778 291990 L-967235 291989 L-967199 291988 L-966950 291986 L-966562 291985 L-965737 291984 L-965379 291982 L-965068 291982 L-964810 291981 L-964586 291980 L-964180 291978 L-964064 291977 L-963880 291976 L-963827 291976 L-963639 291974 L-963468 291973 L-963439 291972 L-963159 291970 L-962848 291969 L-962710 291968 L-962400 291966 L-962207 291966 L-962191 291965 L-961472 291965 L-961338 291962 L-961041 291961 L-960950 291960 L-960350 291960 L-960311 291958 L-960233 291957 L-959612 291956 L-959461 291953 L-959420 291952 L-959110 291950 L-958918 291949 L-958725 291946 L-958669 291944 L-958360 291942 L-958308 291941 L-958254 291942 L-958228 291942 L-958103 291942 L-957292 291941 L-957216 291940 L-956675 291938 L-956407 291937 L-955747 291936 L-954840 291934 L-954598 291933 L-954066 291932 L-953849 291930 L-952741 291932 L-952691 291932 L-951915 291932 L-951368 291930 L-951257 291929 L-951104 291926 L-951049 291925 L-950883 291924 L-950506 291923 L-950058 291921 L-950004 291920 L-949849 291919 L-949169 291917 L-948949 291916 L-948431 291915 L-947582 291912 L-947566 291911 L-945775 291909 L-945221 291908 L-945104 291907 L-944098 291905 L-944061 291904 L-943829 291904 L-943736 291904 L-943696 291904 L-943364 291903 L-943012 291901 L-942747 291899 L-942460 291897 L-942150 291895 L-941895 291892 L-941802 291891 L-941312 291889 L-941104 291888 L-940539 291887 L-940424 291888 L-940073 291887 L-940022 291887 L-939982 291887 L-939378 291884 L-938644 291881 L-938063 291879 L-937828 291876 L-937287 291872 L-937135 291869 L-936633 291868 L-936424 291865 L-936401 291865 L-936342 291864 L-935379 291864 L-935201 291863 L-934760 291861 L-934735 291859 L-934580 291857 L-934499 291857 L-934348 291859 L-933701 291859 L-933652 291857 L-932532 291856 L-931548 291855 L-931486 291853 L-930766 291852 L-929901 291851 L-929522 291849 L-929303 291849 L-928543 291848 L-928492 291847 L-928182 291844 L-927331 291844 L-927138 291843 L-926961 291841 L-926737 291841 L-926610 291840 L-926418 291840 L-926185 291839 L-926016 291840 L-925729 291839 L-925450 291839 L-925367 291837 L-925196 291836 L-925180 291833 L-925026 291832 L-924987 291831 L-924211 291829 L-924135 291829 L-923903 291827 L-923476 291825 L-923130 291824 L-922547 291823 L-922278 291823 L-922019 291823 L-921890 291820 L-921874 291819 L-921760 291817 L-921736 291816 L-921502 291815 L-921466 291813 L-920150 291813 L-920094 291812 L-919415 291809 L-918843 291809 L-918717 291809 L-918564 291809 L-918487 291809 L-918175 291807 L-917902 291805 L-917813 291803 L-917711 291803 L-916783 291801 L-916707 291801 L-916343 291801 L-916319 291800 L-916282 291799 L-915507 291796 L-915415 291795 L-915275 291793 L-914873 291792 L-914611 291792 L-914368 291793 L-914154 291792 L-914073 291792 L-913997 291792 L-913920 291792 L-913734 291793 L-913667 291793 L-913417 291793 L-913362 291792 L-913225 291791 L-913145 291788 L-913032 291787 L-912809 291785 L-912644 291784 L-912603 291783 L-912434 291781 L-912063 291780 L-912048 291779 L-911932 291777 L-911211 291776 L-911175 291775 L-911042 291775 L-910695 291773 L-910283 291773 L-910247 291773 L-910169 291772 L-910130 291771 L-909766 291769 L-909562 291768 L-909547 291767 L-909201 291765 L-908853 291765 L-908527 291765 L-908425 291764 L-908272 291764 L-908078 291763 L-907846 291763 L-907754 291763 L-907598 291763 L-907521 291763 L-907480 291761 L-907367 291760 L-907344 291759 L-907093 291759 L-906954 291756 L-906376 291752 L-905548 291750 L-905060 291747 L-904939 291746 L-904900 291744 L-904888 291743 L-904736 291740 L-904635 291738 L-904402 291736 L-904011 291734 L-903707 291732 L-903691 291731 L-903521 291730 L-903282 291727 L-902686 291727 L-902082 291726 L-902042 291726 L-902002 291726 L-901849 291724 L-901795 291723 L-901733 291722 L-901665 291720 L-901610 291718 L-901585 291716 L-901538 291715 L-901444 291712 L-901307 291711 L-901153 291710 L-901021 291708 L-900980 291708 L-900944 291707 L-900883 291706 L-900609 291703 L-900295 291702 L-900254 291699 L-900169 291698 L-899991 291696 L-899754 291695 L-899397 291694 L-899367 291692 L-898797 291691 L-898675 291690 L-898439 291688 L-898416 291688 L-898135 291687 L-897849 291687 L-897594 291687 L-897022 291686 L-896725 291684 L-896649 291683 L-895950 291682 L-895872 291680 L-895837 291679 L-895811 291678 L-895759 291675 L-895565 291674 L-895425 291671 L-895389 291670 L-895349 291668 L-894754 291667 L-894521 291666 L-894238 291675 L-894183 291683 L-894109 291692 L-894031 291700 L-893795 291698 L-893551 291696 L-893416 291695 L-893309 291694 L-893230 291692 L-892843 291690 L-892716 291688 L-892563 291687 L-892525 291686 L-892379 291684 L-892158 291683 L-891984 291682 L-891915 291680 L-891093 291678 L-891077 291678 L-890783 291676 L-889995 291675 L-889685 291675 L-889539 291674 L-889311 291672 L-889110 291670 L-888173 291668 L-888136 291667 L-888114 291666 L-888073 291663 L-887804 291662 L-887208 291660 L-887144 291659 L-887109 291658 L-887092 291656 L-886397 291656 L-886195 291656 L-886163 291656 L-885830 291656 L-885722 291655 L-885097 291652 L-884593 291651 L-884556 291648 L-884114 291648 L-884018 291647 L-883859 291647 L-883546 291647 L-883533 291647 L-883093 291648 L-882611 291650 L-882482 291650 L-882162 291650 L-882094 291648 L-881790 291648 L-881614 291647 L-881420 291646 L-881177 291643 L-880980 291640 L-880954 291638 L-880376 291636 L-880306 291635 L-879896 291634 L-879842 291632 L-879796 291631 L-879432 291630 L-879286 291628 L-879080 291627 L-878984 291627 L-878829 291626 L-878767 291624 L-878620 291622 L-878519 291620 L-877962 291620 L-877940 291623 L-877768 291624 L-877226 291626 L-877165 291626 L-877111 291623 L-877083 291620 L-877011 291619 L-876995 291616 L-876932 291615 L-876895 291612 L-876740 291611 L-876415 291610 L-875849 291608 L-875834 291607 L-875772 291604 L-875671 291602 L-875624 291602 L-875382 291600 L-874960 291600 L-874805 291600 L-873063 291598 L-872521 291596 L-871578 291595 L-871169 291594 L-870628 291591 L-870431 291590 L-870263 291588 L-869967 291587 L-869852 291586 L-869837 291586 L-869682 291585 L-869542 291583 L-869466 291581 L-869334 291581 L-868986 291581 L-868615 291582 L-868017 291582 L-867842 291582 L-867685 291581 L-867417 291579 L-867265 291579 L-866974 291583 L-866950 291586 L-866867 291588 L-866640 291591 L-865940 291590 L-865813 291588 L-865382 291587 L-865288 291586 L-864083 291586 L-864034 291585 L-863741 291585 L-863337 291583 L-863061 291581 L-863042 291579 L-862924 291578 L-862848 291577 L-862667 291575 L-862187 291574 L-861735 291571 L-861325 291570 L-861295 291569 L-860876 291567 L-860762 291567 L-860644 291567 L-860629 291567 L-860435 291566 L-860413 291563 L-860181 291562 L-859738 291561 L-859418 291558 L-858953 291558 L-858788 291557 L-858633 291555 L-858477 291555 L-858024 291555 L-857705 291555 L-857650 291557 L-857279 291557 L-857241 291558 L-856915 291558 L-856798 291557 L-856699 291555 L-856373 291553 L-855986 291551 L-855725 291550 L-855367 291547 L-855111 291546 L-852940 291545 L-852891 291543 L-852868 291542 L-852457 291542 L-852395 291542 L-852325 291543 L-852094 291543 L-851784 291542 L-851480 291539 L-851436 291538 L-851128 291537 L-850995 291535 L-850779 291534 L-850066 291533 L-849911 291533 L-849773 291531 L-849624 291531 L-849603 291531 L-849409 291530 L-849384 291529 L-849292 291527 L-849270 291526 L-849254 291525 L-849154 291523 L-848225 291522 L-847767 291522 L-846675 291519 L-846253 291519 L-845849 291518 L-845810 291517 L-845557 291515 L-844782 291513 L-844766 291511 L-844742 291510 L-844549 291509 L-843812 291507 L-843543 291506 L-843503 291505 L-843104 291502 L-843079 291501 L-842289 291499 L-841609 291498 L-840238 291497 L-839968 291495 L-839920 291494 L-839382 291491 L-839349 291490 L-839247 291487 L-838924 291486 L-838844 291485 L-838575 291485 L-837663 291483 L-837524 291483 L-837275 291481 L-836730 291481 L-836308 291479 L-836115 291478 L-836099 291478 L-835961 291475 L-835867 291474 L-835740 291473 L-835480 291471 L-835455 291469 L-835364 291467 L-835054 291466 L-834994 291465 L-834877 291465 L-834527 291465 L-833716 291465 L-833485 291462 L-832656 291462 L-832424 291459 L-832207 291458 L-831689 291458 L-831051 291457 L-830634 291455 L-830312 291454 L-829831 291453 L-829406 291453 L-829344 291451 L-828996 291451 L-828955 291450 L-828942 291449 L-828842 291446 L-828797 291446 L-828311 291445 L-827510 291445 L-827175 291445 L-826094 291443 L-825614 291442 L-825591 291441 L-825451 291439 L-824896 291438 L-824199 291437 L-823890 291435 L-823668 291434 L-823563 291433 L-823461 291430 L-822790 291429 L-822696 291427 L-822674 291427 L-822596 291426 L-822418 291426 L-822246 291426 L-822066 291425 L-822052 291423 L-821976 291422 L-821812 291421 L-821297 291419 L-821281 291418 L-821140 291418 L-820778 291417 L-820754 291417 L-820623 291416 L-820599 291414 L-820236 291413 L-819711 291410 L-819617 291409 L-819401 291406 L-819308 291405 L-819283 291404 L-818819 291402 L-818742 291402 L-818340 291401 L-817890 291401 L-816638 291400 L-816599 291398 L-816168 291397 L-816135 291396 L-815416 291394 L-815239 291393 L-815104 291392 L-814797 291390 L-814742 291389 L-814717 291386 L-814701 291384 L-814526 291382 L-814337 291381 L-813829 291381 L-813456 291370 L-813117 291358 L-813079 291348 L-812360 291338 L-812266 291337 L-812227 291336 L-811686 291336 L-811663 291334 L-811260 291333 L-810834 291332 L-810563 291332 L-810384 291330 L-810138 291328 L-810114 291326 L-810058 291324 L-809441 291322 L-808939 291321 L-808551 291321 L-807933 291322 L-807716 291322 L-807561 291324 L-806269 291321 L-806170 291320 L-805727 291317 L-805396 291316 L-805095 291313 L-804853 291312 L-804118 291309 L-803539 291308 L-802709 291306 L-802609 291305 L-802052 291304 L-801914 291302 L-800272 291301 L-800211 291301 L-800117 291301 L-799150 291301 L-798973 291300 L-798686 291300 L-798468 291300 L-798390 291298 L-798118 291298 L-798003 291297 L-797850 291296 L-797539 291294 L-797461 291293 L-797370 291293 L-797293 291292 L-797177 291292 L-796998 291290 L-796906 291289 L-796867 291288 L-796364 291288 L-796146 291286 L-796016 291286 L-795861 291285 L-795807 291284 L-795682 291284 L-795297 291282 L-794789 291281 L-794716 291280 L-794236 291278 L-794159 291277 L-794059 291277 L-793825 291276 L-793361 291276 L-793131 291276 L-793114 291276 L-792882 291276 L-792727 291276 L-792666 291276 L-792473 291274 L-792202 291272 L-791450 291270 L-790497 291270 L-790461 291269 L-790236 291269 L-789797 291269 L-789516 291266 L-789167 291265 L-788098 291264 L-787170 291264 L-787040 291264 L-786993 291264 L-786924 291262 L-786769 291262 L-786692 291260 L-786518 291257 L-786083 291254 L-785879 291253 L-785819 291250 L-785236 291249 L-785082 291247 L-784967 291245 L-784926 291244 L-784756 291243 L-784620 291241 L-784409 291239 L-784331 291237 L-784308 291236 L-784099 291233 L-783689 291232 L-783665 291231 L-783442 291229 L-783296 291228 L-783262 291227 L-783248 291225 L-783226 291224 L-782992 291223 L-782807 291221 L-782590 291220 L-782564 291219 L-781875 291217 L-781771 291216 L-781736 291215 L-781715 291213 L-781521 291212 L-781468 291211 L-781351 291208 L-781270 291208 L-781159 291207 L-780844 291205 L-780385 291204 L-780130 291203 L-779895 291200 L-779766 291199 L-779413 291197 L-779354 291196 L-779201 291195 L-778629 291192 L-778542 291191 L-778389 291188 L-778093 291185 L-777723 291183 L-777420 291180 L-777344 291179 L-776939 291177 L-776771 291177 L-776627 291177 L-776087 291177 L-776026 291177 L-776010 291175 L-775844 291173 L-775638 291172 L-775563 291172 L-775471 291171 L-775061 291169 L-775045 291168 L-775022 291168 L-774829 291167 L-774752 291179 L-774581 291191 L-774519 291201 L-774504 291213 L-773989 291212 L-773768 291211 L-773149 291208 L-772895 291207 L-772701 291205 L-772662 291204 L-772589 291204 L-772523 291204 L-771873 291204 L-771834 291205 L-771660 291205 L-771594 291205 L-770920 291205 L-770531 291203 L-770269 291201 L-770032 291200 L-769954 291197 L-769938 291195 L-769736 291193 L-769365 291191 L-769140 291189 L-768504 291188 L-768484 291188 L-768097 291187 L-768004 291187 L-767945 291185 L-767669 291184 L-767360 291184 L-767283 291183 L-766431 291184 L-766089 291191 L-765652 291199 L-765218 291205 L-764723 291212 L-764573 291211 L-764305 291212 L-763067 291213 L-763010 291216 L-761247 291217 L-761056 291216 L-760046 291215 L-759895 291213 L-759520 291216 L-759199 291219 L-758593 291221 L-758524 291224 L-758346 291223 L-757518 291221 L-757379 291220 L-756993 291219 L-756808 291217 L-756765 291216 L-756645 291215 L-756435 291213 L-755987 291211 L-755639 291209 L-755507 291208 L-755098 291207 L-754748 291207 L-754462 291205 L-754269 291204 L-754114 291204 L-753950 291203 L-753882 291201 L-753782 291201 L-753549 291200 L-753432 291200 L-753379 291199 L-752837 291199 L-752373 291197 L-751191 291197 L-751058 291197 L-751033 291197 L-750980 291197 L-750313 291197 L-749278 291195 L-749084 291193 L-748904 291192 L-748753 291192 L-748712 291191 L-748697 291191 L-748636 291189 L-748311 291188 L-747150 291187 L-746957 291185 L-746779 291184 L-745665 291183 L-744806 291181 L-744699 291181 L-744226 291180 L-744033 291180 L-741711 291179 L-741634 291177 L-741512 291175 L-741478 291173 L-741441 291171 L-741346 291167 L-741131 291164 L-740549 291161 L-740163 291160 L-739390 291159 L-739312 291157 L-738615 291157 L-738074 291157 L-738033 291156 L-737902 291156 L-737438 291155 L-737400 291153 L-737265 291152 L-736897 291151 L-736867 291149 L-736717 291149 L-736317 291148 L-734493 291149 L-733686 291148 L-732967 291148 L-732950 291148 L-732637 291145 L-732075 291144 L-731574 291143 L-731055 291141 L-731033 291140 L-729289 291139 L-729120 291137 L-728925 291136 L-728031 291135 L-727512 291132 L-727302 291131 L-727044 291129 L-726334 291128 L-725384 291127 L-724726 291125 L-724687 291123 L-724400 291121 L-724318 291120 L-724222 291120 L-724090 291119 L-724013 291119 L-723278 291119 L-722941 291117 L-722891 291119 L-722636 291119 L-722349 291117 L-721924 291117 L-721343 291116 L-721085 291116 L-720933 291115 L-720686 291115 L-720647 291115 L-719850 291113 L-719812 291112 L-719635 291112 L-719226 291109 L-718998 291109 L-718921 291109 L-718790 291109 L-718674 291108 L-718326 291107 L-718262 291105 L-718110 291104 L-717369 291103 L-717258 291101 L-717087 291100 L-717048 291099 L-716754 291099 L-716352 291099 L-716176 291099 L-716081 291099 L-715772 291097 L-714971 291096 L-714512 291093 L-713992 291092 L-713504 291091 L-712808 291089 L-711762 291088 L-711493 291088 L-711438 291087 L-711278 291087 L-711027 291087 L-710781 291085 L-710702 291084 L-710488 291081 L-710175 291080 L-709712 291078 L-709697 291076 L-709401 291076 L-709388 291075 L-708397 291074 L-707724 291072 L-707390 291070 L-706773 291070 L-706636 291068 L-705997 291067 L-705867 291066 L-704916 291063 L-704817 291060 L-704257 291059 L-703849 291059 L-703420 291059 L-703329 291058 L-702494 291058 L-702131 291058 L-702092 291059 L-701959 291060 L-701783 291060 L-701566 291060 L-701512 291059 L-701355 291056 L-701102 291055 L-700002 291054 L-699925 291052 L-699705 291051 L-699574 291048 L-699538 291047 L-699345 291046 L-699245 291044 L-698761 291043 L-698477 291042 L-698317 291040 L-698222 291038 L-697951 291036 L-697681 291035 L-697665 291030 L-697526 291026 L-697388 291022 L-697061 291016 L-696752 291014 L-696711 291012 L-696636 291010 L-696520 291008 L-695670 291006 L-695343 291004 L-695012 291003 L-694879 291003 L-694663 291003 L-694647 291003 L-693967 291003 L-693873 291000 L-693850 290999 L-693834 290996 L-693796 290995 L-693384 290992 L-693114 290991 L-693074 290990 L-692706 290990 L-692496 290988 L-691413 290988 L-691397 290987 L-691368 290986 L-691348 290986 L-690971 290983 L-690716 290982 L-690468 290979 L-690329 290976 L-690197 290975 L-689865 290974 L-689772 290972 L-689711 290971 L-689153 290970 L-689092 290968 L-688936 290967 L-688742 290966 L-688549 290964 L-688534 290963 L-688495 290962 L-688456 290960 L-688186 290959 L-688062 290958 L-688030 290956 L-687931 290956 L-687775 290956 L-687634 290956 L-687350 290955 L-687024 290955 L-686328 290954 L-686306 290954 L-685796 290954 L-684950 290954 L-684587 290952 L-684433 290951 L-683829 290951 L-683659 290951 L-683598 290951 L-683543 290950 L-682487 290948 L-682469 290948 L-681563 290948 L-681542 290948 L-681375 290947 L-681132 290947 L-681082 290946 L-681028 290943 L-680890 290942 L-680851 290940 L-679922 290939 L-679867 290939 L-679745 290939 L-679673 290939 L-679558 290939 L-679379 290940 L-678397 290939 L-678257 290939 L-678140 290936 L-677845 290934 L-677598 290932 L-677561 290931 L-677506 290932 L-677485 290932 L-677352 290932 L-677273 290932 L-677135 290931 L-676512 290931 L-676346 290930 L-675881 290930 L-675705 290927 L-675689 290926 L-675628 290924 L-675512 290923 L-675029 290922 L-674334 290920 L-673961 290919 L-673791 290918 L-672825 290916 L-672670 290915 L-672493 290915 L-672400 290914 L-672145 290914 L-671974 290914 L-671327 290912 L-671316 290912 L-670736 290911 L-670598 290911 L-670543 290909 L-669808 290907 L-669769 290906 L-669691 290906 L-669049 290905 L-668275 290905 L-668182 290903 L-668134 290903 L-668118 290902 L-668082 290902 L-668066 290899 L-668003 290898 L-667987 290897 L-667967 290897 L-667812 290895 L-667773 290894 L-667757 290893 L-667718 290891 L-667579 290890 L-667502 290889 L-667138 290887 L-666790 290886 L-666016 290885 L-665414 290883 L-665218 290882 L-664987 290882 L-664850 290881 L-664212 290881 L-663922 290879 L-663901 290879 L-663440 290878 L-663208 290878 L-663153 290877 L-663114 290875 L-662611 290874 L-662061 290873 L-661273 290871 L-660150 290871 L-659256 290870 L-659168 290870 L-658868 290869 L-658797 290867 L-658681 290866 L-657504 290865 L-657156 290863 L-657133 290862 L-656614 290861 L-656468 290859 L-656359 290858 L-656150 290857 L-655995 290855 L-655973 290854 L-655779 290853 L-655702 290851 L-655558 290850 L-654757 290849 L-654611 290847 L-654331 290846 L-654154 290845 L-653844 290843 L-653033 290842 L-652104 290842 L-650512 290841 L-650269 290839 L-649628 290838 L-649433 290837 L-649355 290835 L-648837 290834 L-648605 290834 L-648582 290833 L-648450 290833 L-648111 290831 L-648100 290830 L-647884 290829 L-647847 290827 L-647305 290826 L-646776 290823 L-646709 290822 L-646416 290821 L-645868 290818 L-645833 290817 L-645780 290815 L-645681 290813 L-645448 290813 L-644868 290813 L-644770 290814 L-644696 290814 L-644364 290813 L-643614 290811 L-643575 290810 L-642895 290810 L-642741 290810 L-642415 290809 L-642199 290807 L-641967 290807 L-641671 290806 L-641425 290805 L-641073 290803 L-641020 290802 L-640261 290801 L-639568 290798 L-639217 290795 L-638753 290794 L-638120 290793 L-637711 290791 L-637633 290793 L-637207 290793 L-636565 290791 L-636395 290791 L-635654 290790 L-635466 290789 L-635171 290787 L-634599 290786 L-634574 290785 L-633554 290785 L-633067 290783 L-632974 290783 L-632913 290782 L-632625 290781 L-632339 290779 L-632278 290778 L-632098 290778 L-631387 290777 L-631211 290775 L-631012 290774 L-630861 290773 L-630769 290771 L-630707 290770 L-630165 290770 L-629855 290769 L-629763 290766 L-629686 290763 L-629118 290762 L-629027 290762 L-628773 290759 L-628446 290757 L-628409 290753 L-628254 290749 L-628022 290747 L-627700 290746 L-626567 290745 L-626368 290743 L-625843 290742 L-625598 290742 L-625352 290741 L-625272 290740 L-625252 290737 L-625175 290736 L-625120 290733 L-625043 290732 L-625004 290730 L-624825 290728 L-624788 290726 L-624556 290725 L-623319 290724 L-622992 290722 L-622952 290720 L-622171 290718 L-622024 290717 L-621032 290716 L-620826 290716 L-620400 290716 L-620272 290716 L-619868 290717 L-619780 290716 L-619123 290714 L-618416 290713 L-617807 290712 L-617614 290710 L-617381 290708 L-616763 290706 L-616467 290704 L-616028 290702 L-615873 290701 L-615718 290700 L-614962 290697 L-614612 290696 L-614209 290696 L-614171 290694 L-613165 290694 L-612845 290694 L-612598 290693 L-611898 290690 L-611825 290689 L-611513 290688 L-610432 290686 L-610241 290685 L-610007 290685 L-609812 290684 L-609312 290682 L-608558 290682 L-608445 290682 L-608244 290682 L-608203 290681 L-608110 290680 L-607797 290678 L-607709 290677 L-607593 290676 L-607275 290676 L-607206 290674 L-607181 290673 L-606819 290672 L-606781 290670 L-606564 290669 L-606061 290670 L-605459 290672 L-605247 290674 L-605094 290676 L-605056 290676 L-605012 290673 L-604978 290672 L-604845 290670 L-604436 290669 L-604065 290668 L-604011 290666 L-603995 290665 L-603916 290664 L-603507 290662 L-603353 290661 L-603337 290658 L-603298 290657 L-603119 290654 L-603043 290653 L-602812 290652 L-602022 290650 L-601945 290650 L-601210 290648 L-601054 290646 L-600814 290644 L-600752 290641 L-600667 290640 L-600644 290637 L-600527 290634 L-600512 290632 L-600450 290629 L-600413 290628 L-600319 290626 L-600297 290626 L-600181 290625 L-599948 290624 L-599778 290621 L-598958 290621 L-598556 290620 L-598401 290620 L-597896 290620 L-597782 290620 L-597186 290620 L-596811 290618 L-596760 290618 L-596566 290617 L-595869 290617 L-595831 290616 L-595686 290616 L-595461 290614 L-595199 290613 L-594825 290612 L-594400 290610 L-594271 290609 L-594250 290606 L-593757 290606 L-593061 290605 L-592829 290606 L-592675 290606 L-591707 290606 L-591482 290608 L-591204 290608 L-591188 290606 L-590663 290605 L-590134 290604 L-589985 290602 L-589966 290601 L-589424 290600 L-589114 290598 L-588997 290596 L-588805 290593 L-588669 290590 L-588342 290589 L-588225 290588 L-587915 290588 L-587489 290586 L-587433 290586 L-587201 290588 L-587104 290588 L-586971 290588 L-586675 290588 L-586561 290586 L-586196 290585 L-585884 290585 L-585401 290584 L-585230 290582 L-584982 290581 L-584766 290580 L-584240 290578 L-584054 290576 L-583698 290574 L-583063 290573 L-582909 290571 L-582168 290569 L-581748 290568 L-581568 290567 L-581492 290567 L-581361 290565 L-581067 290564 L-581026 290563 L-580796 290563 L-580604 290561 L-580349 290561 L-579922 290560 L-579813 290559 L-579195 290559 L-579013 290559 L-577802 290559 L-577155 290560 L-577004 290560 L-576966 290560 L-576834 290560 L-576733 290559 L-576718 290557 L-576636 290556 L-576424 290555 L-576307 290553 L-575945 290552 L-575573 290551 L-574876 290549 L-574474 290548 L-574369 290547 L-574351 290545 L-573406 290544 L-573211 290541 L-573059 290540 L-573004 290537 L-572247 290537 L-572230 290540 L-571741 290541 L-571611 290544 L-571418 290544 L-570528 290543 L-570488 290541 L-570450 290540 L-570373 290539 L-570334 290539 L-570257 290537 L-570174 290536 L-569909 290535 L-569677 290533 L-569615 290532 L-569134 290531 L-568798 290531 L-568686 290529 L-568493 290528 L-568317 290527 L-568257 290527 L-568221 290525 L-567951 290524 L-567253 290521 L-567200 290519 L-566906 290516 L-566504 290513 L-565940 290512 L-565067 290511 L-564762 290509 L-564724 290508 L-564601 290507 L-564003 290505 L-563873 290504 L-563673 290503 L-563636 290501 L-563022 290500 L-562843 290499 L-562828 290496 L-562610 290495 L-562532 290492 L-562225 290492 L-562093 290491 L-561861 290491 L-561527 290491 L-561435 290489 L-561335 290488 L-561297 290487 L-560754 290487 L-560561 290485 L-560020 290484 L-559594 290483 L-559462 290483 L-559401 290483 L-559170 290483 L-559153 290483 L-558665 290484 L-558584 290484 L-558567 290484 L-557174 290485 L-557038 290485 L-556924 290484 L-556290 290483 L-556150 290481 L-556032 290480 L-555879 290477 L-555842 290476 L-555763 290475 L-555709 290476 L-554717 290476 L-554681 290475 L-554548 290475 L-554487 290472 L-554388 290471 L-554098 290469 L-554084 290468 L-553774 290468 L-553675 290469 L-553209 290468 L-553156 290609 L-553013 290749 L-552885 290890 L-552653 291031 L-552084 291030 L-551995 291028 L-551973 291028 L-551686 291027 L-551003 291026 L-550926 291024 L-550890 291023 L-550873 291022 L-550674 291020 L-550253 291018 L-549982 291018 L-549109 291016 L-548817 291016 L-548706 291016 L-547971 291015 L-547844 291014 L-547485 291012 L-547232 291012 L-546361 291011 L-546192 291011 L-546130 291010 L-546075 291008 L-545727 291007 L-545704 291006 L-545495 291004 L-545355 291003 L-545225 291002 L-545102 291000 L-544978 290999 L-544741 290998 L-544451 290996 L-543792 290995 L-543770 290994 L-543615 290992 L-543497 290991 L-542533 290990 L-542477 290988 L-542245 290987 L-542222 290986 L-541896 290984 L-541781 290984 L-541741 290983 L-541239 290983 L-540940 290982 L-540829 290980 L-540286 290979 L-539227 290978 L-538601 290976 L-538430 290975 L-538182 290974 L-537926 290972 L-537795 290971 L-537773 290970 L-537106 290968 L-536209 290967 L-536163 290966 L-536093 290964 L-535977 290964 L-535757 290963 L-535566 290963 L-535527 290962 L-535334 290960 L-534675 290960 L-534058 290959 L-534019 290967 L-533423 290975 L-533361 290982 L-532239 290988 L-532185 290988 L-532064 290987 L-531798 290986 L-531735 290986 L-531466 290986 L-531389 290984 L-531173 290984 L-530691 290983 L-530421 290982 L-530290 290982 L-530057 290979 L-530033 290975 L-530018 290970 L-529995 290963 L-529979 290956 L-529955 290950 L-529941 290942 L-529918 290934 L-529902 290926 L-529879 290919 L-529864 290912 L-529842 290906 L-529826 290902 L-529797 290898 L-529780 290893 L-529762 290890 L-529725 290886 L-529686 290883 L-529670 290881 L-529645 290877 L-529593 290874 L-529569 290871 L-529492 290869 L-529454 290867 L-529439 290865 L-529376 290862 L-529361 290859 L-529315 290855 L-529244 290853 L-529206 290851 L-529182 290849 L-529129 290846 L-529104 290845 L-529089 290843 L-529027 290842 L-528990 290841 L-528913 290839 L-528897 290838 L-528869 290835 L-528796 290834 L-528757 290833 L-528603 290830 L-528487 290829 L-528433 290827 L-528350 290826 L-528317 290825 L-528293 290823 L-528138 290822 L-528123 290821 L-528022 290819 L-527711 290818 L-527675 290817 L-527460 290815 L-527349 290815 L-527324 290815 L-527094 290817 L-526861 290817 L-526486 290815 L-526359 290814 L-526319 290813 L-526266 290811 L-526165 290810 L-526128 290809 L-525918 290809 L-525853 290807 L-525741 290807 L-525529 290806 L-525492 290805 L-525120 290803 L-525067 290802 L-524988 290801 L-524966 290799 L-524873 290798 L-524673 290797 L-524636 290797 L-524614 290797 L-524384 290797 L-524363 290795 L-524154 290795 L-524059 290794 L-524021 290793 L-523685 290791 L-523572 290790 L-523532 290789 L-523519 290789 L-523379 290787 L-523364 290787 L-523110 290787 L-522527 290786 L-522451 290785 L-522413 290783 L-522368 290782 L-522320 290781 L-522140 290779 L-522125 290778 L-522026 290777 L-521948 290775 L-521887 290774 L-521522 290771 L-521440 290770 L-521422 290769 L-521368 290767 L-520400 290766 L-520268 290765 L-520247 290763 L-520026 290762 L-519958 290761 L-519935 290759 L-519689 290758 L-519433 290757 L-519302 290755 L-519262 290754 L-519241 290751 L-519185 290749 L-519098 290747 L-519036 290745 L-518811 290743 L-518682 290742 L-518582 290741 L-518528 290740 L-518334 290738 L-518257 290737 L-517923 290736 L-517792 290734 L-517615 290733 L-517599 290732 L-517574 290730 L-517305 290730 L-516104 290729 L-516067 290729 L-515951 290728 L-515717 290726 L-515526 290725 L-515487 290725 L-515432 290724 L-515327 290724 L-514813 290722 L-514519 290721 L-514287 290720 L-514012 290718 L-513995 290717 L-513962 290716 L-513922 290714 L-513885 290713 L-513783 290712 L-513706 290710 L-513613 290709 L-513487 290708 L-513382 290706 L-513204 290706 L-513011 290705 L-512182 290705 L-512066 290704 L-511812 290702 L-511772 290701 L-511673 290700 L-511612 290700 L-511370 290698 L-511346 290698 L-511225 290697 L-511154 290696 L-511114 290694 L-510883 290693 L-510706 290692 L-510186 290690 L-510110 290689 L-510093 290688 L-509682 290688 L-509319 290688 L-509203 290686 L-509181 290686 L-509140 290685 L-509064 290684 L-509010 290682 L-508661 290681 L-508545 290680 L-508368 290680 L-508313 290678 L-508289 290678 L-508175 290677 L-507887 290676 L-507655 290674 L-507440 290673 L-507230 290672 L-507020 290669 L-506194 290668 L-505854 290666 L-504846 290665 L-504483 290664 L-503438 290662 L-503360 290661 L-502913 290660 L-502702 290658 L-502510 290657 L-502216 290656 L-502175 290654 L-502021 290653 L-501968 290650 L-501736 290649 L-501156 290648 L-500962 290646 L-500343 290646 L-499854 290645 L-499802 290644 L-499153 290642 L-499003 290641 L-498834 290640 L-498461 290638 L-498445 290638 L-498346 290637 L-498308 290637 L-498177 290636 L-497743 290636 L-497440 290636 L-497055 290636 L-496915 290634 L-496753 290634 L-496319 290634 L-496281 290633 L-496179 290633 L-496064 290632 L-495886 290632 L-495716 290630 L-495598 290629 L-495236 290626 L-495019 290625 L-494886 290624 L-494746 290624 L-494247 290624 L-494169 290624 L-493935 290622 L-493611 290622 L-493224 290621 L-493202 290620 L-492581 290620 L-492311 290618 L-492078 290618 L-491653 290617 L-491382 290616 L-491240 290614 L-491031 290613 L-490826 290612 L-490274 290610 L-490143 290610 L-489757 290609 L-489486 290609 L-489384 290608 L-489123 290606 L-488922 290605 L-488852 290604 L-488814 290602 L-488246 290601 L-488039 290600 L-488012 290598 L-487783 290597 L-487706 290596 L-487189 290594 L-487150 290593 L-486995 290592 L-486701 290590 L-486430 290589 L-486066 290588 L-485718 290588 L-485346 290586 L-485225 290586 L-485154 290585 L-484674 290584 L-484611 290582 L-484276 290581 L-484145 290580 L-484067 290578 L-483938 290577 L-483474 290577 L-483180 290576 L-483104 290576 L-482792 290574 L-482484 290573 L-482421 290572 L-482391 290571 L-481616 290569 L-481512 290567 L-481424 290565 L-481401 290564 L-481247 290563 L-481025 290561 L-480858 290560 L-480471 290559 L-480417 290557 L-480353 290557 L-479736 290556 L-479619 290555 L-479296 290553 L-478770 290552 L-478420 290551 L-478344 290549 L-477724 290548 L-477313 290547 L-477012 290545 L-476702 290544 L-476563 290543 L-475939 290543 L-475558 290541 L-474434 290541 L-473374 290540 L-473311 290539 L-472951 290537 L-472849 290537 L-472833 290536 L-472460 290536 L-471454 290533 L-471067 290532 L-470860 290529 L-470772 290528 L-470396 290527 L-470103 290525 L-469792 290524 L-469003 290523 L-468915 290521 L-468863 290520 L-468824 290519 L-468307 290517 L-468191 290516 L-467982 290515 L-467843 290513 L-467240 290512 L-466410 290511 L-466127 290509 L-465945 290509 L-465444 290508 L-465239 290508 L-464685 290508 L-464179 290507 L-463988 290505 L-463950 290504 L-463321 290503 L-462868 290501 L-462453 290500 L-461845 290499 L-460724 290499 L-460311 290497 L-459987 290497 L-459772 290496 L-459345 290495 L-459205 290493 L-459114 290492 L-458882 290491 L-458296 290491 L-457488 290489 L-456288 290489 L-456175 290489 L-456042 290488 L-455955 290487 L-455913 290488 L-455892 290489 L-455882 290492 L-455787 290495 L-455023 290495 L-454317 290495 L-454277 290493 L-453991 290492 L-453451 290491 L-453389 290489 L-453349 290488 L-453334 290487 L-453077 290485 L-452754 290484 L-452614 290483 L-452344 290481 L-452305 290480 L-452197 290479 L-451796 290477 L-451686 290476 L-451609 290475 L-451312 290473 L-451269 290472 L-451050 290472 L-450867 290472 L-450756 290472 L-450742 290471 L-450716 290471 L-450292 290469 L-450045 290468 L-449710 290467 L-449675 290465 L-449540 290464 L-449287 290464 L-449132 290463 L-448226 290463 L-448127 290461 L-447932 290459 L-446924 290457 L-446424 290456 L-446345 290455 L-446307 290453 L-446099 290452 L-445981 290451 L-445882 290449 L-445697 290448 L-445531 290447 L-445295 290445 L-444876 290444 L-444860 290443 L-444551 290441 L-443505 290440 L-443288 290439 L-443273 290437 L-443250 290436 L-443042 290435 L-442883 290433 L-442824 290432 L-441379 290431 L-441053 290431 L-440851 290431 L-440652 290431 L-440502 290431 L-440232 290429 L-439791 290428 L-439573 290428 L-438879 290427 L-438376 290425 L-438051 290424 L-437780 290424 L-437060 290423 L-436905 290423 L-435706 290420 L-435317 290419 L-435202 290416 L-435048 290415 L-434895 290413 L-433924 290412 L-433872 290411 L-433625 290409 L-433602 290408 L-433383 290407 L-432944 290404 L-432805 290402 L-432697 290399 L-432495 290398 L-432378 290396 L-432276 290395 L-432261 290395 L-432129 290394 L-431875 290392 L-431257 290391 L-430597 290390 L-430352 290390 L-430159 290388 L-429400 290388 L-429360 290388 L-429282 290387 L-429230 290384 L-429191 290383 L-429153 290382 L-429114 290380 L-429022 290379 L-428978 290378 L-428920 290375 L-428896 290374 L-428781 290372 L-428471 290370 L-428416 290368 L-428394 290367 L-428052 290366 L-427887 290364 L-427852 290362 L-427811 290360 L-427796 290359 L-427565 290358 L-427424 290356 L-427256 290355 L-426807 290355 L-426573 290355 L-426481 290355 L-426461 290356 L-425980 290355 L-425902 290355 L-425775 290354 L-425645 290351 L-425267 290350 L-425026 290347 L-424988 290346 L-424934 290344 L-424796 290342 L-424757 290340 L-424717 290339 L-424486 290338 L-424446 290336 L-424316 290335 L-424137 290334 L-424096 290332 L-424082 290331 L-423918 290330 L-423904 290328 L-423751 290327 L-423736 290326 L-423710 290324 L-423675 290323 L-423453 290320 L-423231 290320 L-422976 290319 L-422844 290320 L-422202 290320 L-421595 290319 L-420575 290319 L-420382 290318 L-420331 290316 L-420206 290315 L-419882 290314 L-419109 290312 L-419051 290311 L-418937 290310 L-418525 290308 L-418200 290307 L-418063 290306 L-417838 290304 L-417313 290303 L-416911 290303 L-416880 290302 L-416593 290302 L-416308 290300 L-415920 290299 L-415703 290298 L-415276 290295 L-415095 290294 L-414758 290292 L-414652 290291 L-414465 290291 L-414348 290290 L-414334 290290 L-413613 290288 L-413443 290287 L-413195 290286 L-413095 290284 L-412453 290283 L-412165 290282 L-411974 290280 L-411699 290279 L-411382 290278 L-411097 290276 L-410983 290274 L-410938 290272 L-410736 290271 L-409127 290270 L-408915 290268 L-408234 290267 L-408152 290266 L-407924 290264 L-407733 290264 L-407594 290263 L-407576 290263 L-407382 290263 L-407153 290263 L-406960 290263 L-405876 290262 L-405680 290262 L-405628 290262 L-405474 290262 L-405366 290262 L-405200 290262 L-405047 290260 L-404932 290259 L-404808 290256 L-404391 290255 L-404134 290252 L-404042 290251 L-403849 290251 L-403787 290250 L-403462 290250 L-403400 290250 L-403343 290248 L-403074 290247 L-402726 290246 L-402548 290244 L-402353 290243 L-402317 290244 L-401605 290244 L-401565 290247 L-401256 290248 L-400958 290250 L-400908 290251 L-400653 290252 L-400382 290254 L-400327 290254 L-399236 290254 L-399205 290252 L-399165 290252 L-398988 290252 L-398796 290251 L-397938 290251 L-396884 290250 L-396823 290248 L-396475 290247 L-395662 290247 L-394848 290247 L-394833 290247 L-394458 290247 L-394290 290247 L-394021 290247 L-393693 290246 L-393572 290244 L-393515 290244 L-393479 290243 L-393402 290243 L-393185 290242 L-393127 290240 L-392811 290239 L-392643 290238 L-392280 290238 L-392087 290238 L-392063 290238 L-391986 290236 L-391505 290236 L-391367 290236 L-390954 290235 L-390655 290235 L-390555 290234 L-390540 290233 L-390511 290231 L-390152 290230 L-389802 290229 L-389664 290227 L-389627 290227 L-388810 290226 L-388604 290225 L-388580 290223 L-388424 290223 L-388334 290222 L-388093 290222 L-387769 290221 L-387676 290221 L-387480 290219 L-387194 290219 L-386438 290218 L-386309 290217 L-386235 290215 L-385623 290214 L-385447 290213 L-385336 290211 L-385237 290210 L-385158 290209 L-385021 290207 L-384866 290207 L-384787 290207 L-384596 290207 L-383923 290207 L-383885 290206 L-383782 290205 L-382839 290203 L-382817 290202 L-382466 290201 L-382001 290199 L-381965 290198 L-381536 290197 L-381485 290197 L-381073 290195 L-381057 290195 L-380961 290195 L-380905 290195 L-380867 290195 L-380572 290194 L-378833 290193 L-377323 290191 L-376815 290190 L-376318 290189 L-376184 290187 L-376093 290186 L-375966 290185 L-375887 290182 L-375581 290181 L-375311 290179 L-375077 290179 L-373878 290178 L-373773 290178 L-373707 290177 L-372866 290175 L-372680 290174 L-371769 290173 L-370899 290170 L-370612 290169 L-370519 290166 L-369970 290165 L-369450 290163 L-368382 290162 L-368113 290161 L-367959 290161 L-367867 290161 L-367736 290162 L-367689 290163 L-367530 290163 L-366664 290163 L-366329 290163 L-365946 290162 L-365193 290161 L-365134 290159 L-364745 290159 L-364423 290159 L-364266 290158 L-363533 290158 L-363471 290158 L-363184 290158 L-362810 290158 L-362629 290158 L-362373 290157 L-362111 290154 L-361959 290153 L-361555 290151 L-360258 290150 L-360143 290149 L-359679 290147 L-358347 290146 L-357923 290145 L-357898 290143 L-357765 290142 L-357590 290141 L-357457 290141 L-357127 290139 L-356739 290138 L-356700 290137 L-356684 290134 L-356293 290133 L-356001 290131 L-355733 290131 L-355559 290131 L-354066 290131 L-354015 290130 L-353937 290131 L-352697 290133 L-352622 290133 L-352596 290135 L-352349 290134 L-352192 290134 L-352133 290133 L-351246 290133 L-351017 290131 L-350494 290131 L-350352 290133 L-350277 290133 L-349580 290134 L-349333 290134 L-348652 290133 L-348635 290133 L-348381 290131 L-348013 290131 L-347877 290130 L-347255 290127 L-346912 290126 L-346865 290125 L-346378 290123 L-346043 290121 L-345827 290121 L-345692 290119 L-345371 290118 L-345307 290118 L-345055 290117 L-344765 290115 L-344456 290114 L-344316 290113 L-343777 290111 L-343501 290110 L-342771 290109 L-342718 290109 L-342610 290109 L-342345 290109 L-341920 290109 L-341656 290107 L-341436 290106 L-341416 290105 L-341184 290103 L-340897 290102 L-340874 290102 L-340860 290101 L-340487 290101 L-340316 290099 L-340240 290097 L-340179 290095 L-339878 290093 L-339637 290090 L-339544 290089 L-339287 290087 L-339234 290086 L-339039 290085 L-338823 290086 L-338399 290086 L-338307 290087 L-338166 290086 L-337301 290085 L-336928 290083 L-336600 290081 L-336448 290079 L-336021 290079 L-335303 290078 L-335108 290078 L-334754 290077 L-334607 290075 L-334101 290073 L-333864 290071 L-332897 290070 L-332887 290069 L-331822 290067 L-331590 290066 L-331188 290065 L-330994 290064 L-330913 290062 L-330817 290061 L-330080 290061 L-329948 290061 L-329558 290061 L-329536 290060 L-329441 290060 L-329306 290058 L-329289 290057 L-329269 290056 L-327584 290054 L-327565 290054 L-327449 290053 L-327364 290053 L-327240 290053 L-327216 290052 L-326932 290050 L-326825 290049 L-326637 290046 L-326366 290045 L-325694 290044 L-325322 290042 L-324471 290042 L-324413 290041 L-324393 290041 L-324160 290041 L-323886 290040 L-323580 290040 L-323541 290037 L-323310 290037 L-323072 290036 L-322459 290034 L-322419 290033 L-322381 290030 L-321860 290029 L-321668 290028 L-321608 290026 L-321565 290025 L-321243 290025 L-321215 290024 L-321200 290024 L-320715 290022 L-320662 290021 L-320523 290020 L-320485 290018 L-320468 290017 L-320374 290016 L-319708 290016 L-319092 290014 L-318823 290014 L-318414 290014 L-318394 290013 L-318379 290013 L-318265 290012 L-317878 290010 L-317412 290010 L-317351 290009 L-317272 290008 L-317257 290006 L-316771 290004 L-316732 290002 L-316586 290002 L-316537 290001 L-316458 290002 L-315826 290001 L-315735 290001 L-315494 290001 L-315377 290000 L-315050 290000 L-314295 289998 L-314279 289998 L-313327 289998 L-313018 289997 L-312593 289996 L-311879 289994 L-311561 289993 L-311546 289992 L-311395 289989 L-311091 289988 L-311013 289986 L-310886 289985 L-310449 289985 L-310389 289985 L-309866 289985 L-309597 289985 L-309460 289984 L-309382 289982 L-309343 289981 L-308531 289981 L-308490 289981 L-308051 289981 L-307972 289981 L-307715 289980 L-307524 289978 L-306895 289977 L-306708 289976 L-306674 289973 L-306518 289972 L-306116 289969 L-306039 289968 L-305858 289966 L-305668 289965 L-304739 289962 L-304588 289961 L-303381 289960 L-302571 289958 L-302168 289957 L-301565 289956 L-301363 289954 L-301294 289953 L-301136 289952 L-300875 289950 L-300502 291143 L-300483 291141 L-300326 291141 L-299128 291141 L-298024 289948 L-297097 289946 L-296983 289945 L-296697 289944 L-296595 289942 L-296571 289942 L-296381 289940 L-296303 289938 L-296108 289938 L-295396 289938 L-295238 289940 L-294181 289940 L-293756 289940 L-293346 289938 L-293060 289936 L-292886 289934 L-292654 289933 L-292400 289932 L-291957 289930 L-291296 289929 L-291121 289928 L-290816 289926 L-290429 289925 L-290409 289924 L-290389 289922 L-290368 289921 L-290234 289920 L-290042 289918 L-288398 289917 L-287102 289916 L-287063 289914 L-287005 289913 L-286904 289912 L-286344 289910 L-285360 289909 L-284818 289906 L-284354 289905 L-283708 289904 L-283159 289902 L-282110 289901 L-281181 289900 L-280833 289898 L-280640 289897 L-280137 289896 L-279692 289896 L-279550 289895 L-279528 289895 L-278957 289895 L-278572 289892 L-277738 289891 L-277389 289889 L-277368 289888 L-276980 289888 L-276557 289887 L-275959 289885 L-275940 289884 L-275434 289884 L-275202 289883 L-275088 289883 L-274469 289880 L-273908 289879 L-273868 289877 L-273309 289876 L-272976 289875 L-272863 289875 L-272824 289873 L-272399 289873 L-272340 289873 L-272264 289872 L-271973 289872 L-271760 289871 L-271277 289868 L-271062 289867 L-269923 289865 L-269864 289864 L-269846 289863 L-269440 289861 L-268801 289860 L-268666 289859 L-268607 289857 L-268065 289856 L-267756 289855 L-267505 289855 L-267429 289853 L-267310 289852 L-266577 289849 L-266131 289848 L-265917 289847 L-265184 289845 L-265009 289844 L-264644 289844 L-264429 289844 L-263191 289844 L-262881 289844 L-262764 289844 L-262512 289843 L-262301 289841 L-261759 289840 L-261527 289839 L-261469 289839 L-261372 289837 L-261043 289837 L-260810 289836 L-259148 289835 L-258797 289833 L-258393 289831 L-258238 289829 L-257446 289828 L-255955 289827 L-255568 289825 L-255530 289824 L-255276 289823 L-255181 289821 L-254988 289820 L-254640 289820 L-253944 289819 L-253692 289819 L-252977 289817 L-251564 289816 L-251332 289815 L-251003 289815 L-249786 289815 L-249435 289816 L-249243 289817 L-249125 289819 L-246690 289819 L-245720 289817 L-244890 289816 L-244580 289815 L-243238 289813 L-242665 289812 L-242549 289811 L-242220 289811 L-242124 289809 L-241717 289809 L-241601 289808 L-241410 289807 L-240654 289805 L-240528 289804 L-240247 289803 L-239744 289801 L-239667 289800 L-238080 289807 L-238023 289813 L-237281 289821 L-236900 289828 L-236572 289827 L-235908 289825 L-235778 289824 L-235739 289824 L-235488 289824 L-235352 289824 L-235160 289823 L-235024 289823 L-234773 289820 L-234560 289820 L-234250 289819 L-233978 289819 L-233476 289819 L-233457 289819 L-233024 289817 L-232798 289816 L-232354 289815 L-232335 289813 L-231832 289812 L-231694 289811 L-231580 289809 L-231348 289808 L-231038 289807 L-230574 289805 L-230497 289804 L-229994 289803 L-229723 289801 L-229385 289800 L-229200 289799 L-228524 289797 L-228505 289797 L-228330 289796 L-228310 289795 L-227693 289793 L-226976 289792 L-226415 289791 L-226220 289791 L-226066 289789 L-226048 289789 L-225524 289787 L-225410 289785 L-224538 289784 L-224517 289783 L-224461 289781 L-223629 289780 L-223319 289779 L-223243 289777 L-222971 289776 L-222908 289776 L-222858 289773 L-222546 289771 L-221929 289768 L-221154 289767 L-220360 289765 L-220322 289764 L-220244 289763 L-220072 289761 L-219194 289760 L-218310 289759 L-218215 289757 L-218095 289756 L-217766 289755 L-217729 289755 L-217497 289753 L-217264 289753 L-216549 289751 L-216046 289749 L-215381 289748 L-215272 289747 L-215118 289745 L-215098 289744 L-214944 289743 L-214528 289741 L-213917 289740 L-213783 289739 L-212874 289737 L-212671 289736 L-212119 289735 L-209469 289733 L-209295 289732 L-209217 289729 L-208345 289728 L-207882 289727 L-207399 289726 L-207360 289723 L-206780 289722 L-206760 289720 L-205658 289719 L-204236 289718 L-203818 289716 L-203511 289715 L-203434 289714 L-203358 289712 L-203200 289711 L-203124 289710 L-202660 289708 L-201422 289707 L-201170 289706 L-200725 289704 L-200103 289703 L-200048 289702 L-199854 289702 L-199389 289700 L-199099 289698 L-199058 289695 L-199021 289692 L-198868 289690 L-198691 289688 L-197553 289686 L-197165 289684 L-197107 289683 L-196934 289682 L-194416 289679 L-193256 289678 L-192619 289676 L-192480 289675 L-192348 289672 L-191961 289671 L-191497 289670 L-191286 289667 L-191221 289666 L-191187 289664 L-190433 289663 L-189851 289662 L-189660 289660 L-189041 289659 L-188995 289658 L-188634 289656 L-188528 289655 L-188343 289654 L-188066 289652 L-187162 289651 L-186158 289650 L-185423 289648 L-184997 289647 L-184837 289646 L-184474 289644 L-184377 289643 L-183933 289642 L-183858 289640 L-183505 289640 L-183256 289638 L-183236 289635 L-183063 289632 L-182114 289628 L-182000 289627 L-181438 289626 L-180988 289624 L-180603 289623 L-179692 289622 L-179636 289620 L-178497 289619 L-177917 289616 L-177742 289615 L-176948 289612 L-176717 289611 L-176330 289610 L-176060 289608 L-175924 289607 L-175808 289606 L-175189 289606 L-175131 289606 L-174916 289606 L-174622 289606 L-173834 289604 L-173694 289604 L-172305 289603 L-171959 289603 L-171572 289602 L-171511 289599 L-171474 289598 L-171417 289596 L-170774 289595 L-170082 289594 L-169830 289594 L-169495 289592 L-169405 289592 L-168885 289591 L-168631 289590 L-168415 289587 L-168032 289586 L-167872 289584 L-167334 289582 L-166521 289580 L-166502 289579 L-166387 289579 L-166242 289578 L-165862 289578 L-165669 289578 L-165613 289576 L-165314 289575 L-165247 289574 L-165052 289572 L-164685 289571 L-164623 289570 L-164319 289568 L-164274 289568 L-164220 289567 L-163582 289567 L-163562 289566 L-163077 289564 L-162595 289566 L-162226 289566 L-161860 289567 L-161725 289567 L-161571 289566 L-161501 289564 L-160854 289564 L-160834 289563 L-160693 289563 L-160208 289562 L-159925 289562 L-159868 289560 L-159810 289560 L-159500 289559 L-159345 289558 L-158862 289558 L-158088 289558 L-157448 289558 L-157351 289557 L-156288 289557 L-156267 289555 L-155802 291161 L-155786 291161 L-155612 291161 L-155099 291161 L-152745 289554 L-151801 289553 L-151082 289551 L-150541 289549 L-149844 289547 L-149528 289546 L-148879 289545 L-148372 289543 L-148337 289542 L-148295 289541 L-147950 289539 L-147255 289538 L-147058 289537 L-147042 289534 L-146925 289533 L-146644 289531 L-145746 289529 L-145700 289527 L-145334 289525 L-145317 289523 L-145262 289522 L-145068 289521 L-144932 289519 L-144857 289518 L-144623 289517 L-144082 289515 L-144042 289514 L-144005 289513 L-143979 289511 L-143344 289509 L-142802 289507 L-141637 289506 L-141277 289505 L-140000 289505 L-139961 289503 L-139922 289503 L-139707 289502 L-139517 289501 L-139440 289499 L-139286 289498 L-139246 289497 L-138157 289495 L-137833 289495 L-137619 289494 L-137359 289494 L-136866 289494 L-136844 289499 L-136427 289505 L-136286 289509 L-136226 289514 L-136148 289514 L-135937 289513 L-134643 289513 L-134367 289511 L-133742 289510 L-132351 289509 L-132279 289507 L-132241 289505 L-132048 289503 L-131658 289502 L-131350 289501 L-131294 289499 L-130979 289499 L-130929 289499 L-130890 289498 L-130844 289497 L-130211 289495 L-129437 289494 L-128999 289493 L-128857 291113 L-128833 291112 L-128817 292733 L-128791 292733 L-128374 291112 L-128171 291111 L-128021 289489 L-127943 289487 L-127889 289486 L-127092 289486 L-127076 289486 L-126212 289486 L-126008 289486 L-125721 289485 L-125606 289483 L-125080 289482 L-124904 289481 L-124600 289479 L-124213 289478 L-124152 289475 L-124097 289474 L-123942 289473 L-122898 289471 L-122335 289471 L-122099 289470 L-122063 289470 L-121793 289470 L-121388 289469 L-119918 289467 L-118177 289466 L-117790 289465 L-117558 289463 L-117459 289462 L-117365 289461 L-117210 289458 L-116647 289458 L-116564 289457 L-116397 289457 L-115855 289458 L-114670 289458 L-114656 289458 L-114597 289458 L-114445 289457 L-113960 289455 L-113314 289454 L-112607 289451 L-112491 289450 L-111524 289449 L-111479 289447 L-110788 289447 L-110731 289446 L-110653 289446 L-110634 289445 L-110613 289443 L-110397 289442 L-109684 289442 L-109294 289441 L-109258 289439 L-109241 289438 L-109183 289437 L-108755 289435 L-108541 289434 L-108466 289431 L-108389 289430 L-108274 289429 L-108208 289429 L-108080 289427 L-108020 289427 L-107945 289425 L-107866 289423 L-107438 289422 L-106712 289421 L-106698 289418 L-106532 289417 L-106315 289414 L-106300 289411 L-105720 289410 L-105448 289409 L-105160 289407 L-104729 289406 L-104576 289405 L-104520 289403 L-104343 289402 L-102948 289401 L-102682 289398 L-101789 289395 L-101264 289394 L-100245 289391 L-100163 289390 L-99700 289389 L-99080 289389 L-98794 289388 L-98541 289388 L-98389 289386 L-98040 289385 L-97324 289384 L-96762 289382 L-95874 289381 L-95565 289381 L-95274 289381 L-94421 289381 L-94401 289381 L-93744 289381 L-93240 289378 L-93030 289377 L-93010 289376 L-92680 289374 L-92622 289374 L-92235 289374 L-91250 289374 L-90688 289374 L-90591 289374 L-90282 289373 L-90205 289373 L-89171 289372 L-89040 289370 L-88984 289369 L-88348 289368 L-88289 289366 L-88214 289365 L-86800 289364 L-86663 289362 L-86530 289361 L-86044 289360 L-85794 289358 L-85503 289357 L-85291 289356 L-84634 289354 L-84065 289352 L-83976 289350 L-83837 289349 L-83762 289348 L-82597 289348 L-82565 289346 L-82136 289346 L-82119 289345 L-81944 289344 L-80416 289342 L-80332 289344 L-79527 289344 L-79333 289344 L-79312 289344 L-78459 289342 L-78265 289341 L-77631 289340 L-77455 289338 L-77336 289337 L-77283 289337 L-77261 289337 L-77205 289337 L-76817 289337 L-76373 289337 L-76295 289336 L-76098 289336 L-76036 289334 L-75774 289333 L-75425 289333 L-75309 289332 L-74161 289332 L-73876 289330 L-73432 289329 L-72228 289328 L-72098 289326 L-71788 289325 L-71360 289324 L-70063 289322 L-69754 290885 L-69738 290885 L-69691 290915 L-69642 290915 L-68714 289350 L-68383 289350 L-67835 289318 L-67707 289317 L-67261 289316 L-65728 289314 L-65560 289313 L-65288 289312 L-65264 289309 L-64359 289308 L-64244 289306 L-63777 289305 L-63754 289304 L-63682 289302 L-63484 289301 L-63332 289300 L-62865 289298 L-62213 289297 L-61727 289296 L-61177 289296 L-60155 289296 L-59849 289296 L-59794 289296 L-59194 289294 L-58764 289293 L-58690 289293 L-58673 289292 L-58452 289292 L-58147 289290 L-58065 289289 L-57762 289289 L-57162 289288 L-57026 289286 L-56755 289285 L-56541 289284 L-56366 289284 L-56157 289284 L-56136 289284 L-55887 289300 L-55437 289316 L-55421 289332 L-54976 289348 L-53767 289348 L-53565 289346 L-52637 289346 L-52575 289345 L-52541 289344 L-51515 289342 L-51399 289342 L-51378 289341 L-51224 289341 L-51205 289341 L-50794 289340 L-50778 289340 L-50741 289338 L-50431 289337 L-50277 289336 L-50072 289336 L-49673 289334 L-48690 289334 L-48165 289334 L-48109 289333 L-48083 289333 L-47761 289332 L-47045 289332 L-46175 289332 L-46137 289332 L-46060 289332 L-45808 289330 L-45788 289329 L-45066 289329 L-44916 289328 L-44803 289328 L-44705 289326 L-43603 289325 L-42848 289324 L-42676 289322 L-42515 289321 L-42439 289320 L-42245 289320 L-41107 289318 L-40423 289318 L-40140 289317 L-39173 289316 L-39154 289314 L-38303 289313 L-38263 289312 L-38120 289310 L-37795 289309 L-37565 289308 L-37528 289306 L-37487 289305 L-37470 289302 L-37334 289301 L-37316 289300 L-37104 289298 L-37044 289297 L-36966 289296 L-36942 289294 L-36867 289293 L-36387 289292 L-36291 289290 L-36215 289289 L-36038 289288 L-36016 289286 L-35961 289285 L-35922 289284 L-35863 289282 L-35708 289281 L-34684 289280 L-34385 289278 L-34259 289277 L-34181 289276 L-33155 289274 L-33098 289273 L-33041 289272 L-32994 289270 L-32981 289269 L-32943 289268 L-32905 289266 L-31725 289265 L-31667 289264 L-30970 289264 L-30351 289262 L-30208 289262 L-29765 289261 L-29500 289260 L-28836 289260 L-28552 289258 L-27082 289258 L-26134 289257 L-26028 289256 L-25962 289256 L-25932 289254 L-25612 289253 L-25591 289253 L-24662 289253 L-24487 289254 L-23755 289256 L-23214 217581 L-23191 145905 L-23164 74229 L-23132 2554 L-23115 2552 L-23095 2550 L-23057 2547 L-23037 2547 L-23014 2550 L-22999 2551 L-22981 2552 L-22960 2552 L-22939 2550 L-22922 2548 L-22902 2547 L-22883 2547 L-22845 2547 L-22805 2544 L-22779 2542 L-22763 2538 L-22745 2535 L-22708 2532 L-22690 2531 L-22670 2530 L-22651 2528 L-22629 2526 L-22613 2524 L-22574 2520 L-22551 2516 L-22535 2515 L-22516 2512 L-22496 2511 L-22477 2510 L-22458 2507 L-22419 2506 L-22362 2504 L-22313 2502 L-22262 2500 L-22235 2498 L-22219 2495 L-22203 2494 L-22187 2492 L-22166 2491 L-22148 2491 L-22128 2488 L-22109 2487 L-22086 2484 L-22071 2480 L-22052 2478 L-22032 2476 L-22010 2474 L-21974 2471 L-21955 2468 L-21934 2466 L-21897 2463 L-21876 2462 L-21851 2460 L-21835 2459 L-21817 2456 L-21800 2450 L-21779 2443 L-21761 2435 L-21741 2430 L-21722 2426 L-21665 2423 L-21645 2419 L-21622 2416 L-21588 2412 L-21568 2408 L-21548 2406 L-21529 2403 L-21510 2402 L-21471 2400 L-21452 2398 L-21433 2395 L-21407 2394 L-21220 2391 L-21200 2389 L-21180 2387 L-21158 2385 L-21124 2382 L-21103 2379 L-21082 2375 L-21065 2371 L-21045 2367 L-21026 2363 L-21005 2361 L-20988 2358 L-20969 2355 L-20948 2353 L-20922 2350 L-20906 2347 L-20871 2345 L-20851 2343 L-20833 2341 L-20813 2339 L-20794 2337 L-20773 2334 L-20736 2331 L-20716 2329 L-20694 2326 L-20678 2323 L-20659 2321 L-20639 2318 L-20620 2317 L-20582 2314 L-20505 2313 L-20479 2310 L-20456 2307 L-20429 2303 L-20406 2301 L-20379 2298 L-20330 2295 L-20309 2294 L-20271 2290 L-20252 2287 L-20230 2286 L-20214 2283 L-20195 2282 L-20175 2281 L-20154 2279 L-20118 2277 L-20098 2275 L-20040 2274 L-20019 2273 L-19994 2273 L-19979 2271 L-19962 2271 L-19924 2270 L-19904 2267 L-19886 2265 L-19866 2262 L-19845 2259 L-19827 2257 L-19808 2253 L-19788 2250 L-19767 2247 L-19731 2245 L-19711 2243 L-19692 2242 L-19653 2241 L-19614 2239 L-19595 2238 L-19576 2237 L-19528 2235 L-19500 2234 L-19460 2231 L-19430 2230 L-19415 2228 L-19343 2225 L-19324 2222 L-19301 2221 L-19285 2220 L-19267 2218 L-19226 2218 L-19150 2216 L-19131 2214 L-19112 2212 L-19091 2210 L-19065 2209 L-19034 2208 L-19014 2208 L-18995 2205 L-18957 2202 L-18916 2198 L-18838 2194 L-18802 2192 L-18763 2189 L-18685 2188 L-18666 2186 L-18621 2185 L-18599 2186 L-18571 2186 L-18532 2184 L-18501 2182 L-18486 2180 L-18472 2177 L-18432 2174 L-18371 2173 L-18356 2170 L-18337 2168 L-18317 2165 L-18240 2161 L-18202 2158 L-18183 2156 L-18136 2154 L-18120 2153 L-18102 2152 L-18085 2150 L-18047 2146 L-18027 2144 L-18008 2140 L-17986 2137 L-17970 2134 L-17931 2132 L-17893 2129 L-17874 2126 L-17853 2122 L-17834 2117 L-17815 2112 L-17796 2106 L-17776 2104 L-17757 2102 L-17693 2101 L-17671 2100 L-17643 2098 L-17619 2094 L-17592 2090 L-17576 2085 L-17560 2080 L-17523 2077 L-17505 2074 L-17485 2073 L-17466 2072 L-17443 2069 L-17428 2068 L-17408 2066 L-17389 2062 L-17367 2057 L-17351 2053 L-17331 2049 L-17312 2047 L-17291 2044 L-17273 2043 L-17255 2040 L-17208 2039 L-17192 2036 L-17173 2033 L-17157 2029 L-17136 2025 L-17118 2021 L-17098 2017 L-17079 2012 L-17041 2011 L-17022 2009 L-16979 2008 L-16964 2007 L-16945 2003 L-16925 1999 L-16887 1996 L-16868 1995 L-16848 1992 L-16809 1991 L-16790 1988 L-16764 1985 L-16714 1984 L-16677 1983 L-16661 1981 L-16616 1980 L-16577 1977 L-16557 1976 L-16537 1973 L-16514 1972 L-16499 1969 L-16480 1967 L-16438 1965 L-16422 1963 L-16383 1959 L-16362 1956 L-16345 1952 L-16305 1948 L-16279 1945 L-16263 1943 L-16229 1940 L-16208 1936 L-16190 1931 L-16170 1924 L-16129 1917 L-16113 1911 L-16035 1907 L-16017 1904 L-15977 1903 L-15958 1900 L-15939 1897 L-15919 1897 L-15900 1896 L-15880 1896 L-15785 1897 L-15760 1896 L-15733 1895 L-15702 1892 L-15687 1890 L-15666 1887 L-15628 1884 L-15609 1882 L-15586 1879 L-15571 1878 L-15552 1876 L-15532 1874 L-15510 1871 L-15493 1868 L-15473 1866 L-15455 1863 L-15434 1860 L-15416 1856 L-15397 1854 L-15376 1852 L-15351 1850 L-15334 1846 L-15316 1842 L-15279 1838 L-15261 1832 L-15241 1828 L-15222 1824 L-15201 1819 L-15164 1816 L-15145 1812 L-15122 1808 L-15107 1806 L-15088 1803 L-15068 1800 L-15029 1798 L-14991 1796 L-14971 1795 L-14952 1792 L-14907 1791 L-14805 1791 L-14790 1790 L-14658 1788 L-14642 1787 L-14623 1782 L-14603 1778 L-14581 1775 L-14545 1771 L-14526 1770 L-14505 1768 L-14448 1766 L-14422 1763 L-14406 1760 L-14388 1756 L-14372 1754 L-14351 1752 L-14333 1751 L-14294 1748 L-14272 1747 L-14236 1746 L-14216 1744 L-14194 1743 L-14139 1743 L-14120 1742 L-14062 1740 L-14023 1739 L-13956 1738 L-13929 1735 L-13906 1732 L-13879 1730 L-13846 1727 L-13830 1726 L-13809 1723 L-13791 1727 L-13772 1730 L-13752 1734 L-13731 1738 L-13714 1736 L-13618 1735 L-13559 1734 L-13519 1732 L-13494 1728 L-13463 1726 L-13424 1723 L-13386 1719 L-13366 1717 L-13327 1714 L-13288 1711 L-13250 1709 L-13231 1707 L-13192 1705 L-13172 1702 L-13153 1701 L-13133 1699 L-13114 1698 L-13095 1697 L-13076 1694 L-13049 1690 L-13000 1686 L-12960 1683 L-12930 1681 L-12915 1678 L-12901 1677 L-12863 1674 L-12843 1671 L-12801 1669 L-12785 1666 L-12767 1663 L-12726 1659 L-12689 1657 L-12650 1654 L-12612 1653 L-12565 1650 L-12551 1649 L-12476 1647 L-12437 1646 L-12417 1646 L-12399 1643 L-12380 1642 L-12282 1639 L-12244 1637 L-12185 1634 L-12166 1631 L-12148 1629 L-12121 1629 L-12099 1627 L-12033 1626 L-12016 1626 L-12000 1625 L-11987 1623 L-11951 1622 L-11894 1621 L-11870 1618 L-11837 1615 L-11817 1613 L-11779 1609 L-11758 1605 L-11740 1601 L-11719 1598 L-11702 1595 L-11683 1594 L-11662 1591 L-11636 1589 L-11586 1587 L-11565 1585 L-11508 1583 L-11489 1581 L-11392 1579 L-11374 1577 L-11334 1575 L-11315 1574 L-11296 1570 L-11258 1569 L-11238 1567 L-11219 1566 L-11171 1565 L-11119 1565 L-11092 1563 L-11076 1561 L-11060 1559 L-11044 1557 L-11005 1554 L-10985 1553 L-10966 1550 L-10908 1548 L-10889 1545 L-10866 1541 L-10850 1538 L-10830 1534 L-10812 1532 L-10755 1528 L-10733 1524 L-10708 1520 L-10673 1514 L-10657 1510 L-10637 1508 L-10619 1505 L-10599 1504 L-10580 1501 L-10558 1498 L-10541 1497 L-10521 1496 L-10502 1494 L-10480 1492 L-10464 1489 L-10445 1486 L-10425 1484 L-10405 1482 L-10368 1481 L-10348 1477 L-10328 1473 L-10263 1468 L-10242 1464 L-10214 1461 L-10174 1457 L-10143 1453 L-10128 1449 L-10094 1446 L-10056 1444 L-10037 1442 L-10014 1440 L-9999 1438 L-9980 1436 L-9960 1432 L-9922 1430 L-9902 1428 L-9862 1426 L-9805 1424 L-9779 1422 L-9744 1420 L-9729 1417 L-9707 1414 L-9690 1412 L-9651 1409 L-9629 1408 L-9613 1405 L-9593 1402 L-9573 1398 L-9551 1396 L-9536 1392 L-9517 1389 L-9439 1388 L-9419 1385 L-9399 1383 L-9380 1380 L-9362 1377 L-9336 1375 L-9262 1372 L-9236 1369 L-9219 1365 L-9203 1364 L-9187 1361 L-9166 1359 L-9148 1356 L-9109 1355 L-9086 1353 L-9071 1352 L-9052 1349 L-9032 1348 L-9010 1345 L-8993 1344 L-8898 1341 L-8876 1339 L-8851 1337 L-8817 1335 L-8800 1332 L-8779 1329 L-8761 1327 L-8741 1325 L-8723 1324 L-8701 1323 L-8684 1320 L-8665 1317 L-8645 1315 L-8623 1312 L-8607 1309 L-8588 1308 L-8548 1305 L-8529 1303 L-8491 1300 L-8433 1299 L-8407 1296 L-8385 1293 L-8357 1291 L-8333 1288 L-8307 1285 L-8275 1284 L-8258 1283 L-8238 1283 L-8220 1283 L-8200 1283 L-8180 1283 L-8142 1280 L-8123 1277 L-8103 1273 L-8082 1271 L-8046 1268 L-8026 1267 L-8006 1264 L-7988 1261 L-7969 1260 L-7948 1257 L-7922 1255 L-7907 1252 L-7889 1249 L-7871 1245 L-7851 1243 L-7833 1239 L-7814 1235 L-7794 1232 L-7736 1228 L-7716 1227 L-7694 1224 L-7601 1221 L-7562 1220 L-7543 1229 L-7523 1239 L-7505 1253 L-7407 1268 L-7380 1272 L-7347 1276 L-7330 1275 L-7230 1273 L-7214 1271 L-7195 1269 L-7175 1267 L-7155 1264 L-7136 1260 L-7118 1256 L-7098 1252 L-7078 1248 L-7040 1245 L-7019 1244 L-6962 1243 L-6943 1247 L-6924 1267 L-6904 1287 L-6886 1305 L-6866 1320 L-6845 1320 L-6788 1320 L-6767 1321 L-6731 1320 L-6711 1319 L-6654 1317 L-6634 1316 L-6595 1320 L-6576 1323 L-6549 1325 L-6500 1328 L-6460 1325 L-6401 1323 L-6381 1320 L-6362 1319 L-6324 1317 L-6285 1316 L-6247 1315 L-6169 1313 L-6150 1312 L-6131 1311 L-6034 1309 L-6015 1309 L-5937 1308 L-5880 1307 L-5821 1304 L-5782 1301 L-5763 1300 L-5744 1297 L-5725 1293 L-5599 1289 L-5517 1285 L-5503 1281 L-5488 1277 L-5451 1275 L-5414 1272 L-5394 1271 L-5371 1268 L-5356 1267 L-5337 1264 L-5279 1261 L-5259 1245 L-5240 1227 L-5219 1208 L-5202 1188 L-5183 1183 L-5162 1180 L-5136 1178 L-5120 1175 L-5102 1172 L-5086 1170 L-5065 1163 L-5047 1156 L-5027 1150 L-4986 1143 L-4950 1139 L-4931 1136 L-4908 1134 L-4874 1130 L-4834 1128 L-4815 1126 L-4776 1123 L-4757 1120 L-4738 1119 L-4719 1118 L-4693 1115 L-4671 1112 L-4619 1108 L-4592 1106 L-4576 1104 L-4560 1102 L-4544 1100 L-4523 1098 L-4505 1096 L-4485 1095 L-4409 1094 L-4389 1092 L-4367 1090 L-4350 1084 L-4331 1080 L-4291 1076 L-4255 1072 L-4233 1070 L-4208 1067 L-4191 1066 L-4173 1063 L-4136 1062 L-4118 1060 L-4098 1058 L-4080 1056 L-4058 1054 L-4041 1050 L-4021 1047 L-4002 1045 L-3979 1043 L-3925 1042 L-3905 1039 L-3886 1038 L-3828 1035 L-3764 1033 L-3742 1029 L-3663 1026 L-3631 1022 L-3595 1019 L-3577 1018 L-3557 1015 L-3514 1014 L-3500 1011 L-3460 1007 L-3439 1003 L-3422 999 L-3402 994 L-3362 990 L-3345 986 L-3326 983 L-3305 979 L-3279 977 L-3263 973 L-3244 969 L-3207 965 L-3170 962 L-3151 958 L-3129 955 L-3093 954 L-3050 951 L-2996 949 L-2958 946 L-2939 943 L-2919 939 L-2899 937 L-2836 934 L-2761 930 L-2718 929 L-2702 926 L-2687 923 L-2648 922 L-2628 921 L-2585 919 L-2571 919 L-2552 918 L-2532 917 L-2510 914 L-2493 911 L-2474 909 L-2433 905 L-2397 901 L-2376 897 L-2351 893 L-2334 890 L-2316 887 L-2300 885 L-2278 74663 L-2248 74658 L-2222 74653 L-2200 74647 L-2184 861 L-2164 860 L-2145 857 L-2107 853 L-2088 849 L-2068 845 L-2048 840 L-1991 836 L-1971 832 L-1952 828 L-1907 826 L-1885 824 L-1857 821 L-1832 818 L-1805 816 L-1774 813 L-1737 810 L-1720 809 L-1700 806 L-1623 805 L-1603 804 L-1582 804 L-1565 805 L-1545 805 L-1448 806 L-1422 804 L-1406 802 L-1388 800 L-1371 796 L-1333 793 L-1313 790 L-1272 788 L-1236 786 L-1216 784 L-1194 782 L-1178 780 L-1139 778 L-1082 777 L-1042 774 L-956 770 L-929 768 L-906 764 L-864 760 L-791 758 L-772 757 L-714 757 L-695 758 L-675 756 L-654 753 L-618 750 L-578 748 L-559 746 L-519 746 L-494 745 L-443 744 L-404 742 L-345 740 L-327 738 L-308 736 L-267 734 L-192 730 L-172 728 L-154 722 L-95 717 L-76 713 L-50 709 L-28 707 L38 704 L68 703 L82 700 L118 699 L156 696 L197 693 L232 691 L253 688 L273 687 L291 685 L310 684 L330 683 L350 681 L368 680 L448 679 L504 677 L523 675 L542 673 L583 673 L601 673 L661 673 L697 672 L717 669 L755 668 L794 665 L813 663 L851 660 L967 657 L999 656 L1014 653 L1048 651 L1065 649 L1085 647 L1128 645 L1162 643 L1220 641 L1241 639 L1280 639 L1337 637 L1363 636 L1380 633 L1413 631 L1435 628 L1453 625 L1472 623 L1529 620 L1549 617 L1591 615 L1607 612 L1646 608 L1665 604 L1684 601 L1723 599 L1742 596 L1761 595 L1780 592 L1828 589 L1856 587 L1881 585 L1908 583 L1924 580 L1940 577 L1976 573 L2033 571 L2071 567 L2110 564 L2132 561 L2149 559 L2169 555 L2208 552 L2226 549 L2244 547 L2266 543 L2291 540 L2309 536 L2327 534 L2342 530 L2364 527 L2381 524 L2401 522 L2419 520 L2442 518 L2458 515 L2477 514 L2520 508 L2535 504 L2554 499 L2574 492 L2594 487 L2613 483 L2651 478 L2735 475 L2757 471 L2785 467 L2824 464 L2854 462 L2869 459 L2905 458 L2942 455 L2985 455 L3000 454 L3039 452 L3097 450 L3116 447 L3138 443 L3173 442 L3194 440 L3220 439 L3237 438 L3271 435 L3292 432 L3309 430 L3329 426 L3348 422 L3387 418 L3407 414 L3426 410 L3449 407 L3464 406 L3523 403 L3541 400 L3560 398 L3580 392 L3599 390 L3637 386 L3663 383 L3714 380 L3752 379 L3783 378 L3797 376 L3812 375 L3871 372 L3891 371 L3928 369 L3947 366 L3967 363 L4006 361 L4026 357 L4045 354 L4066 350 L4102 346 L4123 343 L4148 341 L4199 339 L4238 337 L4258 333 L4299 329 L4315 325 L4335 321 L4377 317 L4392 314 L4411 311 L4431 309 L4451 306 L4470 305 L4489 303 L4508 302 L4614 299 L4680 298 L4711 294 L4741 291 L4779 289 L4799 287 L4857 285 L4876 282 L4896 278 L4918 274 L4934 270 L4973 267 L4994 263 L5011 259 L5030 258 L5051 255 L5077 251 L5093 249 L5111 245 L5128 242 L5149 241 L5166 239 L5186 238 L5205 235 L5227 234 L5243 234 L5283 234 L5305 234 L5340 234 L5380 231 L5398 230 L5417 227 L5437 223 L5457 221 L5476 217 L5494 213 L5543 211 L5570 209 L5594 206 L5620 205 L5653 202 L5708 200 L5728 198 L5747 196 L5769 194 L5785 192 L5804 190 L5862 189 L5882 188 L5901 185 L5959 184 L5980 181 L6056 180 L6075 177 L6095 174 L6113 172 L6154 168 L6172 162 L6191 160 L6211 156 L6288 154 L6307 153 L6385 150 L6500 148" />
</svg>
