<svg xmlns="http://www.w3.org/2000/svg" version="1.1" viewBox="0 0 6500 1000">
	<path fill="none" stroke="gold" stroke-width="125" stroke-linecap="round" stroke-linejoin="round" d="M0 85031  L-490872 85031 L-490688 84982 L-490197 84884 L-489904 84836 L-489592 84738 L-489358 84690 L-489305 84592 L-489245 84495 L-489092 84446 L-489052 84348 L-488919 84300 L-488627 84251 L-488086 84251 L-487476 84202 L-487428 84202 L-486788 84153 L-486754 84153 L-486229 84153 L-486096 84105 L-485706 84007 L-485378 83910 L-485261 83812 L-485049 83715 L-484332 83715 L-483763 83666 L-483655 83666 L-483481 83617 L-483259 83520 L-482858 83471 L-482832 83374 L-481904 83276 L-481817 83179 L-481734 83081 L-481664 82984 L-481367 82935 L-481215 82838 L-479325 82886 L-479224 82886 L-478962 82886 L-478668 82935 L-478527 82838 L-478278 82838 L-478242 82789 L-478084 82740 L-477620 82643 L-477367 82594 L-477155 82497 L-476904 82448 L-476555 82399 L-475628 82302 L-475534 82204 L-475123 82155 L-473952 82058 L-472763 82009 L-472671 81912 L-472644 81814 L-472378 81717 L-472079 81619 L-471950 81522 L-471912 81424 L-471098 81424 L-470714 81473 L-469653 81522 L-469592 81522 L-469327 82497 L-468856 83423 L-468663 84348 L-468400 85274 L-468063 85226 L-467927 85177 L-467472 85128 L-466728 85079 L-466711 85031 L-466546 84933 L-466477 84933 L-465961 84884 L-464933 84884 L-464736 84836 L-464248 84787 L-463886 84738 L-463477 84738 L-463092 84787 L-461388 84787 L-461290 84787 L-461218 84787 L-461157 84787 L-460973 84738 L-460636 84738 L-459996 84690 L-459919 84641 L-459857 84641 L-459671 84592 L-459591 84592 L-459414 84543 L-459395 84495 L-459165 84495 L-458777 84446 L-457888 84446 L-457849 84397 L-457761 84348 L-457733 84251 L-456725 84202 L-456576 84105 L-456551 84056 L-456418 84007 L-456379 83959 L-455120 83910 L-455063 83910 L-454523 83861 L-454470 83861 L-454424 83861 L-454029 83812 L-453889 83764 L-453689 83715 L-453543 83715 L-453378 83715 L-453101 83764 L-452742 83764 L-452190 83715 L-451545 83666 L-451286 83569 L-451133 83520 L-450732 83471 L-450691 83423 L-450571 83374 L-450509 83423 L-450495 83423 L-450401 83423 L-450108 83374 L-449957 83179 L-449626 83081 L-449549 82984 L-449473 82935 L-449246 82789 L-449180 82692 L-448952 82594 L-448900 82497 L-448735 82448 L-447729 82399 L-447546 82350 L-446995 82302 L-446602 82204 L-446204 82155 L-445354 82058 L-445276 82009 L-444697 81961 L-444255 81961 L-444015 81912 L-443857 81912 L-443457 81814 L-443436 81814 L-442991 81766 L-442586 81717 L-442450 81619 L-442275 81522 L-442138 81424 L-441888 81327 L-440888 81278 L-440806 81230 L-440670 81181 L-440632 81132 L-439742 81083 L-439526 81035 L-439083 80986 L-438966 80937 L-438909 80888 L-438233 80888 L-438132 80840 L-438103 80840 L-436762 80791 L-436356 80742 L-436316 80693 L-435388 80645 L-435290 80596 L-435157 80547 L-434753 80499 L-434727 80450 L-434634 80401 L-434417 80352 L-434006 80255 L-432852 80157 L-432561 80060 L-432532 79962 L-431924 79914 L-431674 79816 L-431654 79768 L-430725 79719 L-430674 79621 L-430551 79573 L-430534 79475 L-430378 79426 L-430203 79329 L-430066 79280 L-430009 79231 L-429902 79183 L-429816 79134 L-429583 79085 L-429508 79037 L-429200 78988 L-429082 78939 L-428912 78890 L-428821 78842 L-428718 78842 L-428695 78793 L-428618 78793 L-428520 78695 L-428153 78647 L-428048 78598 L-427545 78549 L-427093 78500 L-427055 78452 L-427031 78403 L-426990 78354 L-426861 78306 L-426761 78257 L-426319 78208 L-426037 78159 L-425444 78111 L-425314 78062 L-425040 77964 L-424887 77916 L-424734 77867 L-424649 77769 L-424571 77721 L-424385 77672 L-424334 77672 L-424307 77623 L-424227 77575 L-424204 77526 L-423921 77428 L-423317 77331 L-422321 77282 L-422024 77233 L-421290 77185 L-421045 77136 L-420955 77087 L-420378 77038 L-419680 76990 L-418927 76941 L-418609 76892 L-418226 76795 L-418149 76746 L-417514 76697 L-417329 76649 L-417241 76649 L-417112 76649 L-416799 76600 L-416749 76551 L-416607 76502 L-416586 76454 L-415618 76405 L-415073 76356 L-414594 76356 L-414533 76356 L-414210 76356 L-414188 76307 L-414126 76307 L-413916 76259 L-413839 76210 L-413784 76161 L-413762 76113 L-413722 76064 L-413707 76015 L-412950 75966 L-412933 75918 L-412134 75869 L-411981 75820 L-411076 75771 L-410570 75723 L-410340 75625 L-410299 75625 L-410184 75576 L-410007 75528 L-409253 75576 L-409118 75528 L-408954 75479 L-408636 75430 L-408460 75333 L-407438 75235 L-407415 75138 L-407163 75089 L-406950 74992 L-406316 74943 L-406079 74846 L-406046 74748 L-405868 74651 L-405788 74553 L-405698 74504 L-405633 74407 L-405193 74309 L-405170 74261 L-404629 74212 L-404373 74163 L-403878 74115 L-403001 74066 L-402964 74017 L-402911 73968 L-402870 73920 L-402753 73871 L-402477 73822 L-402269 73725 L-402072 73627 L-402049 73530 L-401999 73432 L-401960 73384 L-401882 73335 L-401284 73237 L-401224 73189 L-401121 73140 L-400966 73091 L-400334 73042 L-399654 72994 L-399351 72896 L-399004 72847 L-398807 72799 L-398758 72701 L-398438 72653 L-397810 72604 L-397664 72555 L-397627 72506 L-397570 72458 L-397493 72360 L-397252 72360 L-397163 72311 L-397069 72263 L-396775 72214 L-396641 72165 L-396581 72116 L-396544 72019 L-396272 72019 L-395266 71970 L-395090 71922 L-395040 71922 L-394747 71873 L-394555 71775 L-394221 71727 L-393715 71678 L-393153 71580 L-393138 71483 L-393121 71434 L-393021 71337 L-392906 71239 L-392867 71142 L-392829 71093 L-392764 71093 L-392736 71044 L-392597 71093 L-392304 71093 L-392254 71093 L-392149 71093 L-391884 71044 L-391419 70996 L-391275 70996 L-391220 70898 L-391163 70849 L-390972 70801 L-390607 70752 L-390392 70752 L-390198 70752 L-390140 70752 L-390081 70654 L-389927 70606 L-389657 70557 L-389228 70801 L-389212 70801 L-389135 70752 L-389071 70703 L-388941 70362 L-388918 70313 L-388634 70265 L-388586 70216 L-388532 70167 L-388069 70118 L-388030 70118 L-387990 70070 L-387799 70021 L-387319 69972 L-386832 69923 L-386815 69875 L-386777 69826 L-386521 69777 L-386444 69680 L-386214 69631 L-386198 69534 L-385903 69436 L-385461 69387 L-385014 69339 L-384509 69290 L-384356 69241 L-384069 69192 L-384029 69095 L-383698 69046 L-383476 68998 L-382959 68900 L-382883 68851 L-382635 68754 L-382441 68656 L-382381 68608 L-381605 68559 L-381531 68559 L-381300 68510 L-381283 68510 L-381221 68461 L-381026 68413 L-380562 68413 L-380538 68364 L-380409 68364 L-379108 68364 L-379091 68364 L-379014 68315 L-378921 68315 L-378703 68315 L-378551 68267 L-378373 68315 L-378319 68364 L-378032 68413 L-377992 68413 L-377623 68413 L-377182 68413 L-376999 68413 L-376678 68364 L-376383 68364 L-375937 68267 L-375865 68218 L-375403 68120 L-374965 68072 L-374783 68023 L-373329 67925 L-373197 67877 L-372740 67779 L-372514 67730 L-372127 67633 L-371611 67536 L-370657 67438 L-369863 67341 L-369188 67292 L-368763 67194 L-368451 67146 L-368221 67000 L-367538 66853 L-367525 66707 L-367315 66512 L-367293 66463 L-367119 66366 L-366169 66317 L-365901 66220 L-365085 66171 L-364775 66074 L-364737 66025 L-364680 65927 L-364063 65879 L-363425 65781 L-361799 65732 L-361125 65684 L-360483 65684 L-360406 65684 L-360349 65684 L-360314 65684 L-360285 65635 L-360174 65538 L-360156 65489 L-360133 65440 L-359980 65391 L-359926 65294 L-359848 65245 L-359729 65196 L-359631 65148 L-359514 65099 L-359244 65001 L-358974 64953 L-358957 64855 L-358757 64807 L-358610 64709 L-358384 64660 L-358249 64612 L-357941 64563 L-357881 64514 L-357528 64417 L-357179 64368 L-357078 64319 L-357014 64222 L-356954 64173 L-356569 64076 L-356189 64027 L-356084 63978 L-355824 63929 L-355553 63832 L-355394 63783 L-355361 63734 L-355299 63686 L-355158 63637 L-354974 63588 L-354930 63539 L-354641 63539 L-354625 63491 L-354392 63491 L-354331 63442 L-354293 63442 L-353713 63393 L-353579 63345 L-353556 63150 L-353538 62808 L-353520 62419 L-353504 62029 L-353480 61639 L-353464 61346 L-353442 61005 L-353426 60664 L-353403 60469 L-353386 60274 L-353364 60128 L-353347 60031 L-353299 59884 L-353226 59738 L-353192 59495 L-353168 59300 L-353132 59105 L-353091 58910 L-353054 58812 L-353038 58617 L-353014 58471 L-352977 58374 L-352960 58228 L-352937 58130 L-352919 58033 L-352901 57935 L-352885 57838 L-352855 57692 L-352829 57545 L-352784 57497 L-352767 57399 L-352725 57350 L-352677 57253 L-352607 57155 L-352591 57058 L-352575 56961 L-352513 56912 L-352474 56863 L-352435 56814 L-352269 56766 L-352204 56717 L-352188 56668 L-352144 56571 L-352085 56522 L-351872 56473 L-351839 56424 L-351797 56376 L-351719 56327 L-351181 56278 L-351103 56230 L-350999 56132 L-350910 56083 L-350734 56035 L-350383 55986 L-350227 55937 L-349790 55888 L-349633 55840 L-349503 55791 L-348799 55693 L-348598 55645 L-347638 55547 L-347155 55499 L-347056 55499 L-346964 55450 L-346719 55401 L-346646 55352 L-346203 55255 L-346107 55206 L-346092 55157 L-346076 55109 L-346051 55060 L-345585 55011 L-345368 54962 L-345228 54914 L-344934 54865 L-344846 54816 L-344804 54768 L-344775 54719 L-344602 54670 L-344543 54621 L-344467 54573 L-344386 54524 L-344317 54524 L-344007 54475 L-343922 54426 L-343709 54378 L-343673 54329 L-342990 54280 L-342891 54231 L-342686 54183 L-342640 54134 L-342361 54085 L-342299 54037 L-342282 53939 L-342204 53890 L-341896 53793 L-341872 53744 L-341818 53647 L-341795 53598 L-341672 53549 L-341537 53452 L-341292 53403 L-341167 53403 L-340520 53354 L-340504 53354 L-340479 53354 L-340299 53257 L-340223 53208 L-340131 53159 L-339703 53111 L-339287 53062 L-338894 52964 L-338816 52916 L-338797 52867 L-338433 52818 L-338197 52769 L-337969 52721 L-337656 52672 L-337578 52623 L-337497 52526 L-337319 52428 L-337303 52380 L-337038 52282 L-336958 52233 L-336728 52185 L-336502 52136 L-336186 52136 L-336011 52087 L-335650 52087 L-335258 52038 L-335189 51941 L-335125 51892 L-334984 51795 L-334933 51746 L-334831 51649 L-334329 51600 L-334132 51551 L-333885 51502 L-333700 51454 L-333400 51405 L-333324 51356 L-333158 51259 L-332274 51210 L-332245 51113 L-332122 51015 L-331543 50966 L-331466 50918 L-330752 50918 L-330440 50918 L-330227 50918 L-330210 50918 L-329824 50918 L-329299 50820 L-328853 50771 L-328523 50723 L-328370 50674 L-328044 50674 L-327866 50625 L-327784 50625 L-327578 50528 L-327403 50479 L-326474 50430 L-325584 50382 L-325545 50333 L-325317 50333 L-324938 50284 L-324151 50235 L-323916 50187 L-323840 50138 L-323483 50089 L-322911 49992 L-322644 49943 L-322258 49894 L-322154 49894 L-321984 49894 L-321366 49894 L-321154 49894 L-320847 49894 L-320794 49846 L-320666 49797 L-320613 49748 L-320493 49699 L-320157 49602 L-319198 49553 L-319067 49456 L-318865 49407 L-318234 49358 L-317922 49309 L-317509 49261 L-317481 49212 L-317336 49163 L-316916 49115 L-315583 49115 L-315536 49066 L-315408 48968 L-315391 48920 L-314813 48822 L-314607 48773 L-314578 48725 L-314537 48676 L-314479 48627 L-314442 48578 L-314364 48530 L-314221 48481 L-313766 48432 L-313648 48384 L-313363 48335 L-312990 48286 L-312894 48237 L-312567 48189 L-312213 48140 L-312043 48091 L-311995 48042 L-311886 47994 L-311797 47945 L-311769 47896 L-311693 47799 L-311390 47750 L-311356 47653 L-311284 47604 L-310916 47555 L-310581 47506 L-310500 47506 L-310280 47458 L-310109 47409 L-310081 47360 L-309584 47311 L-309035 47214 L-308154 47165 L-308056 47068 L-307979 47019 L-307704 46970 L-307457 46873 L-307383 46824 L-307321 46727 L-307203 46678 L-307160 46629 L-307050 46580 L-306973 46483 L-306273 46434 L-306027 46385 L-305987 46337 L-305831 46288 L-305232 46288 L-305005 46288 L-304913 46288 L-304438 46288 L-303840 46191 L-303321 46142 L-303300 46093 L-303154 46044 L-302834 46044 L-302292 46044 L-302060 46044 L-301890 46044 L-301404 45996 L-301176 45947 L-301091 45898 L-300745 45849 L-300419 45849 L-299896 45801 L-299568 45752 L-298968 45703 L-298770 45606 L-298718 45557 L-298678 45508 L-298397 45460 L-297712 45362 L-297402 45313 L-297377 45216 L-297186 45167 L-296963 45118 L-296877 45070 L-296213 44972 L-296189 44923 L-295967 44826 L-295637 44777 L-295285 44680 L-295081 44631 L-294848 44534 L-294590 44485 L-294400 44387 L-294353 44339 L-294126 44290 L-294092 44241 L-293935 44192 L-293721 44144 L-293548 44095 L-293456 44046 L-293179 43998 L-292935 43949 L-292620 43900 L-292194 43900 L-292156 43900 L-291673 43900 L-291440 43900 L-291228 43851 L-291002 43803 L-290452 43803 L-290205 43754 L-289371 43754 L-289315 43705 L-289293 43656 L-289135 43608 L-288674 43559 L-288633 43510 L-288293 43413 L-288160 43364 L-287937 43315 L-287365 43267 L-286893 43218 L-286698 43169 L-286506 43120 L-286316 43072 L-286214 43023 L-285846 42974 L-285800 42925 L-285718 42877 L-284425 42828 L-284377 42779 L-284108 42779 L-283963 42779 L-283412 42779 L-283295 42730 L-283214 42682 L-282854 42633 L-282631 42584 L-282350 42536 L-282020 42438 L-281512 42389 L-281400 42341 L-281321 42292 L-281157 42243 L-280862 42243 L-280394 42243 L-280197 42292 L-280147 42292 L-279497 42243 L-279375 42194 L-278921 42194 L-278885 42146 L-278417 42097 L-278306 42048 L-278290 42000 L-278074 42000 L-277893 41951 L-277361 41951 L-276332 41951 L-276132 41902 L-275674 41853 L-274726 41756 L-274627 41707 L-274273 41610 L-274212 41561 L-274198 41512 L-274162 41463 L-273793 41415 L-273673 41366 L-273431 41317 L-273267 41269 L-273080 41220 L-272959 41171 L-271889 41074 L-271030 41025 L-270818 40927 L-270721 40879 L-270547 40781 L-270213 40732 L-270142 40684 L-270084 40635 L-269909 40635 L-269520 40586 L-269284 40538 L-269173 40489 L-269056 40440 L-268075 40391 L-268050 40343 L-267456 40245 L-267423 40245 L-267274 40196 L-266990 40148 L-266078 40148 L-265132 40148 L-264979 40099 L-264877 40099 L-264745 40050 L-264602 40001 L-264576 39953 L-264461 39904 L-264243 39855 L-263562 39807 L-263432 39758 L-263129 39709 L-262889 39612 L-262556 39563 L-261918 39514 L-261575 39417 L-261513 39368 L-261358 39368 L-260436 39368 L-259966 39368 L-259922 39368 L-259909 39319 L-259868 39270 L-259846 39222 L-259819 39173 L-259675 39124 L-259253 39076 L-258917 39076 L-258726 39027 L-258298 39027 L-258110 38978 L-257721 38881 L-257187 38832 L-256814 38783 L-256793 38783 L-256543 38734 L-256424 38686 L-256348 38637 L-256213 38588 L-256173 38539 L-256093 38491 L-255699 38442 L-255203 38393 L-255091 38296 L-254918 38247 L-254610 38198 L-254162 38150 L-253839 38101 L-253697 38003 L-253270 37906 L-253117 37808 L-253061 37711 L-252248 37662 L-252228 37614 L-251856 37565 L-251799 37565 L-250670 37516 L-250602 37516 L-250044 37467 L-249849 37419 L-249713 37370 L-249479 37321 L-249132 37272 L-249098 37175 L-249063 37126 L-248994 37029 L-248645 36980 L-248473 36931 L-247988 36883 L-247972 36834 L-247647 36785 L-247489 36736 L-246349 36639 L-246324 36590 L-246132 36493 L-245938 36444 L-245688 36395 L-245671 36346 L-244651 36298 L-244353 36249 L-244278 36200 L-244142 36103 L-243966 36054 L-243389 35957 L-243174 35908 L-243110 35859 L-242979 35810 L-242942 35713 L-242419 35664 L-242281 54865 L-242267 54865 L-242244 54865 L-242224 54865 L-241996 35615 L-241221 35615 L-241179 35615 L-240811 35615 L-240733 35567 L-240681 35518 L-240008 35469 L-239265 35421 L-238841 35421 L-238393 35372 L-237331 35323 L-237019 35226 L-236609 35226 L-236537 35177 L-236013 35177 L-235918 35177 L-235901 35177 L-235456 35128 L-235270 35031 L-234490 34933 L-233818 34884 L-233406 34738 L-233174 34641 L-233033 34592 L-232952 34495 L-232932 34446 L-232856 34446 L-232727 34397 L-232410 34446 L-232186 34446 L-231861 34397 L-231799 34397 L-231429 34397 L-231396 34397 L-231187 34397 L-230520 34397 L-230442 34397 L-230284 34300 L-230174 34300 L-229847 34251 L-229692 34202 L-229351 34202 L-229294 34105 L-228956 34007 L-228752 33959 L-228699 33861 L-227323 33812 L-227193 33764 L-226760 33715 L-226439 33666 L-225612 33569 L-225488 33520 L-224758 33423 L-224602 33325 L-224561 33276 L-224507 33228 L-224484 33179 L-224370 33130 L-224074 33081 L-223784 33033 L-223729 32984 L-223609 32935 L-223579 32886 L-223479 32838 L-223035 32838 L-222883 32789 L-222048 32789 L-221506 32740 L-221171 32740 L-221156 32692 L-221080 32643 L-220964 32594 L-220769 32545 L-220505 32497 L-219670 32448 L-219574 32399 L-219053 32350 L-219011 32302 L-218911 32253 L-218083 32253 L-217948 32204 L-217610 32204 L-217055 32155 L-216676 32107 L-216513 32058 L-216203 32009 L-215390 31961 L-215084 31912 L-214816 31912 L-214494 31912 L-214173 31961 L-213898 31961 L-213069 31863 L-212974 31814 L-212882 31668 L-212777 31522 L-212390 31376 L-211910 31278 L-211894 31230 L-211775 31181 L-211407 31083 L-211312 31035 L-210478 30937 L-210401 30888 L-210102 30840 L-210011 30791 L-209604 30693 L-209494 30596 L-208794 30547 L-208321 30499 L-208261 30450 L-208042 30352 L-207769 30304 L-207656 30255 L-206628 30206 L-206242 30157 L-206222 30109 L-205889 30060 L-205644 30011 L-205211 29962 L-205101 29914 L-204983 29865 L-204532 29768 L-203941 29719 L-203605 29670 L-201712 29621 L-201598 29524 L-201386 29475 L-200068 29426 L-199961 18461 L-199896 7643 L-199859 -2346 L-199798 -2346 L-199298 8520 L-198623 19241 L-198601 29134 L-198331 29037 L-197362 29037 L-196673 28988 L-196511 28939 L-195970 28890 L-195881 28842 L-194861 28793 L-193914 28695 L-193548 28744 L-193445 28793 L-192857 28793 L-192798 28793 L-192697 28744 L-192257 28647 L-192149 28598 L-191708 28549 L-190708 28403 L-190452 28257 L-190349 28111 L-190218 28013 L-189852 27916 L-189271 27818 L-189240 27769 L-188925 27721 L-186942 27672 L-186826 27623 L-186758 27623 L-186400 27575 L-184781 27526 L-184603 27526 L-184459 27526 L-183637 27575 L-183584 27623 L-183529 27623 L-183095 27623 L-182115 27672 L-182041 27672 L-180956 27623 L-180743 27623 L-180027 27526 L-179639 27477 L-179420 27380 L-179100 27282 L-178606 27185 L-178479 27136 L-178250 27038 L-178018 26941 L-177958 26892 L-177669 26844 L-177397 26746 L-176367 26697 L-174702 26649 L-174283 26600 L-174145 26551 L-173989 26551 L-173684 26502 L-173456 26405 L-173297 26356 L-173138 26259 L-172969 26161 L-172921 26113 L-172868 26064 L-172846 26064 L-172460 26015 L-172211 26015 L-171940 26015 L-171779 26015 L-171690 26015 L-170031 26015 L-169866 26064 L-169486 26015 L-169026 26015 L-168416 25918 L-167323 25869 L-166892 25820 L-166861 25771 L-166798 25723 L-166781 25674 L-165077 25625 L-165035 25576 L-164569 25528 L-164382 25479 L-164350 25382 L-163754 25333 L-163705 25284 L-163382 25235 L-163331 25187 L-163121 25138 L-163103 25089 L-162837 24992 L-162784 24943 L-162315 24894 L-161804 24797 L-161726 24797 L-161432 24748 L-161415 24699 L-161377 24651 L-161306 24602 L-161148 24553 L-160202 24553 L-160146 24553 L-159625 24553 L-159432 24504 L-159332 24504 L-159106 24456 L-158596 24456 L-158208 25771 L-158138 25771 L-157790 25723 L-157433 25674 L-156304 24261 L-156252 24163 L-156026 24115 L-155993 24066 L-155868 23968 L-155769 23968 L-155504 23968 L-154764 24017 L-154185 24017 L-153892 24017 L-153186 24017 L-153007 23968 L-152984 23968 L-152348 23920 L-152037 23871 L-151640 23871 L-151611 23822 L-151590 23773 L-151436 23725 L-150751 23725 L-150734 23725 L-150395 23725 L-150122 23676 L-150085 23627 L-150029 23530 L-150007 23481 L-149935 23432 L-149603 23384 L-149497 23335 L-149468 23237 L-149270 23189 L-149117 23140 L-148249 23091 L-147686 22994 L-147670 22994 L-147569 22945 L-147467 22994 L-147320 22994 L-147242 22994 L-147204 22945 L-147149 22896 L-147076 22847 L-146931 22799 L-146449 22799 L-146044 22750 L-145178 22799 L-145158 22799 L-144900 22799 L-144824 22799 L-144795 22750 L-144784 22653 L-144767 22604 L-144474 22555 L-144435 22506 L-144363 22458 L-144289 22409 L-144084 22360 L-143924 22214 L-143623 22068 L-143546 21873 L-143528 21727 L-143312 21629 L-143081 21629 L-142971 21678 L-142601 21727 L-142443 21727 L-142211 21727 L-142043 21727 L-141898 21678 L-141766 21629 L-140490 21532 L-140087 21434 L-140026 21385 L-139909 21288 L-139484 21239 L-139468 21142 L-139406 21093 L-139133 20996 L-139021 20947 L-138738 20849 L-138461 20801 L-138036 20703 L-138014 20654 L-137936 20606 L-137810 20557 L-137223 20508 L-136832 20460 L-136497 20411 L-135907 20362 L-135805 20362 L-135635 20313 L-135499 20313 L-134671 20265 L-133486 20216 L-133449 20167 L-133394 20167 L-133173 20118 L-132968 20118 L-132814 20118 L-132557 20070 L-132481 20021 L-131938 19972 L-131901 19923 L-131653 19875 L-131265 19826 L-130440 19777 L-130081 19729 L-129771 19729 L-129513 19680 L-129289 19631 L-128883 19582 L-128767 19534 L-128583 19485 L-128530 19485 L-128342 19436 L-128171 19387 L-128142 19339 L-127862 19290 L-127551 19241 L-127413 19192 L-127103 19144 L-126909 19144 L-126894 19095 L-126175 19095 L-126041 18998 L-125743 18949 L-125653 18900 L-125052 18900 L-125014 18851 L-124936 18803 L-124315 18754 L-124164 18656 L-124123 18608 L-123812 18559 L-123621 18510 L-123428 18413 L-123372 18315 L-123063 18267 L-123011 18218 L-122957 18267 L-122931 18267 L-122806 18267 L-121995 18218 L-121919 18169 L-121378 18120 L-121109 18072 L-120450 18023 L-119542 17974 L-119301 17925 L-118769 17877 L-118552 17828 L-117444 17877 L-117394 17877 L-116618 17877 L-116071 17828 L-115959 17779 L-115807 17682 L-115751 17633 L-115586 17584 L-115209 17536 L-114761 17487 L-114707 17438 L-114552 17389 L-113872 17341 L-113652 17292 L-113134 17243 L-112285 17146 L-112269 17097 L-110478 17048 L-109924 17000 L-109807 16951 L-108801 16902 L-108764 16853 L-108531 16853 L-108439 16853 L-108399 16853 L-108067 16805 L-107715 16756 L-107450 16658 L-107163 16610 L-106852 16512 L-106598 16415 L-106505 16366 L-106015 16317 L-105807 16269 L-105242 16220 L-105127 16269 L-104776 16220 L-104725 16220 L-104684 16220 L-104081 16122 L-103347 16025 L-102766 15927 L-102530 15830 L-101990 15684 L-101838 15586 L-101336 15538 L-101127 15440 L-101103 15440 L-101044 15391 L-100082 15391 L-99904 15343 L-99462 15294 L-99438 15196 L-99283 15148 L-99201 15148 L-99051 15196 L-98404 15196 L-98355 15148 L-97235 15099 L-96250 15050 L-96189 15001 L-95468 14953 L-94603 14904 L-94225 14855 L-94006 14855 L-93246 14807 L-93194 14758 L-92885 14660 L-92034 14660 L-91841 14612 L-91664 14563 L-91439 14563 L-91313 14514 L-91121 14514 L-90888 14465 L-90719 14514 L-90432 14465 L-90153 14465 L-90070 14417 L-89899 14368 L-89883 14270 L-89729 14222 L-89689 14173 L-88914 14124 L-88837 14124 L-88605 14027 L-88178 13978 L-87833 13929 L-87250 13881 L-86981 13881 L-86722 13881 L-86593 13783 L-86576 13734 L-86463 13686 L-86439 13637 L-86205 13588 L-86169 13539 L-84853 13539 L-84797 13491 L-84118 13393 L-83545 13393 L-83420 13393 L-83267 13393 L-83190 13393 L-82878 13296 L-82605 13247 L-82516 13150 L-82414 13150 L-81486 13101 L-81410 13101 L-81046 13101 L-81021 13052 L-80985 13003 L-80209 12906 L-80117 12857 L-79978 12808 L-79576 12760 L-79314 12760 L-79071 12808 L-78856 12760 L-78776 12760 L-78700 12760 L-78623 12760 L-78436 12808 L-78370 12808 L-78120 12808 L-78065 12760 L-77928 12711 L-77848 12614 L-77735 12565 L-77512 12516 L-77347 12467 L-77306 12419 L-77137 12370 L-76766 12321 L-76751 12272 L-76635 12224 L-75914 12175 L-75878 12126 L-75745 12126 L-75397 12077 L-74986 12077 L-74950 12077 L-74872 12029 L-74833 11980 L-74469 11931 L-74264 11883 L-74250 11834 L-73904 11785 L-73556 11785 L-73230 11785 L-73128 11736 L-72975 11736 L-72781 11688 L-72549 11688 L-72457 11688 L-72301 11688 L-72224 11688 L-72183 11639 L-72070 11590 L-72046 11541 L-71796 11541 L-71657 11444 L-71079 11298 L-70251 11200 L-69763 11103 L-69642 11054 L-69603 11005 L-69591 10957 L-69438 10859 L-69337 10762 L-69104 10713 L-68714 10615 L-68410 10567 L-68394 10518 L-68223 10469 L-67985 10372 L-67388 10372 L-66785 10323 L-66745 10323 L-66705 10323 L-66551 10274 L-66498 10226 L-66436 10177 L-66368 10128 L-66313 10031 L-66288 9982 L-66241 9933 L-66147 9836 L-66009 9787 L-65856 9738 L-65724 9690 L-65683 9690 L-65647 9641 L-65585 9592 L-65312 9495 L-64998 9446 L-64957 9348 L-64872 9300 L-64694 9251 L-64457 9202 L-64099 9153 L-64070 9105 L-63500 9056 L-63377 9007 L-63141 8959 L-63119 8959 L-62837 8910 L-62552 8910 L-62296 8910 L-61724 8861 L-61428 8812 L-61352 8764 L-60653 8715 L-60575 8666 L-60540 8617 L-60514 8569 L-60462 8471 L-60268 8423 L-60128 8325 L-60092 8276 L-60052 8228 L-59457 8179 L-59224 8130 L-58941 8471 L-58886 8764 L-58812 9105 L-58734 9397 L-58498 9300 L-58254 9251 L-58119 9202 L-58012 9153 L-57932 9105 L-57545 9007 L-57418 8959 L-57266 8910 L-57228 8861 L-57082 8812 L-56861 8764 L-56687 8715 L-56618 8666 L-55796 8569 L-55780 8569 L-55485 8520 L-54698 8471 L-54388 8471 L-54242 8423 L-54014 8374 L-53813 8276 L-52876 8228 L-52839 8179 L-52816 8130 L-52776 8033 L-52507 7984 L-51911 7935 L-51847 7886 L-51811 7838 L-51794 7789 L-51099 7789 L-50898 7789 L-50866 7789 L-50533 7789 L-50425 7740 L-49800 7643 L-49296 7594 L-49259 7497 L-48817 7497 L-48721 7448 L-48562 7448 L-48248 7448 L-48236 7448 L-47796 7497 L-47314 7545 L-47185 7545 L-46865 7545 L-46797 7497 L-46492 7497 L-46317 7448 L-46123 7399 L-45880 7302 L-45683 7204 L-45657 7107 L-45079 7058 L-45009 7009 L-44599 6961 L-44545 6912 L-44499 6863 L-44135 6814 L-43988 6766 L-43783 6717 L-43687 6717 L-43532 6668 L-43470 6619 L-43323 6522 L-43222 6473 L-42665 6473 L-42643 6571 L-42471 6619 L-41929 6668 L-41868 6668 L-41814 6571 L-41785 6473 L-41714 6424 L-41698 6327 L-41634 6278 L-41598 6181 L-41443 6132 L-41118 6083 L-40551 6035 L-40537 5986 L-40475 5888 L-40373 5791 L-40327 5791 L-40085 5742 L-39662 5742 L-39508 5742 L-37766 5645 L-37224 5596 L-36281 5547 L-35872 5499 L-35331 5401 L-35134 5352 L-34966 5304 L-34670 5255 L-34555 5206 L-34540 5206 L-34385 5157 L-34245 5109 L-34169 5011 L-34037 5011 L-33689 5011 L-33318 5060 L-32720 5060 L-32544 5060 L-32388 5011 L-32119 4962 L-31968 4962 L-31677 5109 L-31653 5206 L-31570 5304 L-31342 5401 L-30643 5352 L-30516 5304 L-30085 5255 L-29991 5206 L-28786 5206 L-28737 5157 L-28443 5157 L-28040 5109 L-27764 5011 L-27745 4962 L-27627 4914 L-27551 4865 L-27369 4816 L-26889 4768 L-26438 4670 L-26028 4621 L-25997 4573 L-25579 4524 L-25465 4524 L-25347 4524 L-25332 4524 L-25137 4475 L-25116 4378 L-24884 4329 L-24440 4280 L-24121 4183 L-23656 4183 L-23491 4134 L-23336 4085 L-23180 4085 L-22727 4085 L-22408 4085 L-22353 4134 L-21982 4134 L-21944 4183 L-21617 4183 L-21501 4134 L-21402 4085 L-21076 3988 L-20689 3939 L-20428 3890 L-20070 3793 L-19813 3744 L-17643 3695 L-17594 3647 L-17571 3598 L-17160 3598 L-17098 3598 L-17028 3647 L-16797 3647 L-16486 3598 L-16183 3500 L-16139 3452 L-15831 3403 L-15698 3354 L-15481 3306 L-14769 3257 L-14614 3257 L-14476 3208 L-14327 3208 L-14306 3208 L-14112 3159 L-14086 3111 L-13995 3062 L-13973 3013 L-13957 2964 L-13857 2916 L-12928 2867 L-12470 2867 L-11378 2769 L-10956 2769 L-10552 2721 L-10513 2672 L-10260 2623 L-9485 2526 L-9469 2477 L-9444 2428 L-9251 2380 L-8515 2331 L-8246 2282 L-8205 2233 L-7806 2136 L-7781 2087 L-6992 2038 L-6312 1990 L-4941 1941 L-4671 1892 L-4622 1844 L-4085 1746 L-4052 1697 L-3950 1600 L-3627 1551 L-3547 1502 L-3278 1502 L-2366 1454 L-2227 1454 L-1978 1356 L-1433 1356 L-1010 1307 L-817 1259 L-802 1259 L-664 1161 L-570 1113 L-443 1064 L-183 1015 L-158 918 L-67 869 L242 820 L303 771 L420 771 L769 771 L1580 771 L1811 674 L2640 674 L2872 576 L3089 528 L3608 528 L4246 479 L4662 430 L4984 382 L5465 333 L5890 333 L5952 284 L6300 284 L6341 235 L6355 187 L6454 89 L6500 89" />
</svg>
