<svg xmlns="http://www.w3.org/2000/svg" version="1.1" viewBox="0 0 6500 1000">
	<path fill="none" stroke="gold" stroke-width="125" stroke-linecap="round" stroke-linejoin="round" d="M0 134676  L-660800 134676 L-660616 134614 L-660125 134490 L-659832 134428 L-659521 134305 L-659286 134243 L-659233 134119 L-659173 133996 L-659020 133934 L-658980 133810 L-658847 133749 L-658555 133687 L-658014 133687 L-657404 133625 L-657356 133625 L-656716 133563 L-656682 133563 L-656157 133563 L-656024 133501 L-655634 133378 L-655306 133254 L-655189 133131 L-654978 133007 L-654261 133007 L-653691 132945 L-653583 132945 L-653409 132883 L-653188 132760 L-652786 132698 L-652760 132574 L-651832 132451 L-651745 132327 L-651663 132203 L-651593 132080 L-651295 132018 L-651143 131894 L-649253 131956 L-649152 131956 L-648890 131956 L-648596 132018 L-648455 131894 L-648206 131894 L-648170 131833 L-648012 131771 L-647549 131647 L-647296 131585 L-647083 131462 L-646832 131400 L-646483 131338 L-645556 131215 L-645462 131091 L-645051 131029 L-643880 130906 L-642691 130844 L-642599 130720 L-642572 130597 L-642306 130473 L-642007 130349 L-641878 130226 L-641840 130102 L-641026 130102 L-640642 130164 L-639581 130226 L-639520 130226 L-639255 131462 L-638784 132636 L-638591 133810 L-638328 134985 L-637991 134923 L-637855 134861 L-637400 134799 L-636657 134737 L-636639 134676 L-636474 134552 L-636406 134552 L-635889 134490 L-634861 134490 L-634665 134428 L-634176 134367 L-633814 134305 L-633405 134305 L-633020 134367 L-631316 134367 L-631218 134367 L-631147 134367 L-631085 134367 L-630901 134305 L-630564 134305 L-629924 134243 L-629847 134181 L-629786 134181 L-629599 134119 L-629519 134119 L-629342 134058 L-629323 133996 L-629093 133996 L-628705 133934 L-627817 133934 L-627777 133872 L-627689 133810 L-627662 133687 L-626654 133625 L-626504 133501 L-626480 133440 L-626347 133378 L-626307 133316 L-625049 133254 L-624991 133254 L-624451 133192 L-624399 133192 L-624352 133192 L-623957 133131 L-623817 133069 L-623617 133007 L-623471 133007 L-623306 133007 L-623029 133069 L-622671 133069 L-622118 133007 L-621473 132945 L-621214 132822 L-621061 132760 L-620660 132698 L-620620 132636 L-620499 132574 L-620437 132636 L-620423 132636 L-620329 132636 L-620036 132574 L-619885 132327 L-619555 132203 L-619477 132080 L-619401 132018 L-619174 131833 L-619108 131709 L-618880 131585 L-618828 131462 L-618663 131400 L-617657 131338 L-617474 131276 L-616923 131215 L-616530 131091 L-616132 131029 L-615282 130906 L-615204 130844 L-614625 130782 L-614184 130782 L-613943 130720 L-613785 130720 L-613385 130597 L-613364 130597 L-612919 130535 L-612514 130473 L-612378 130349 L-612203 130226 L-612066 130102 L-611816 129978 L-610816 129917 L-610734 129855 L-610599 129793 L-610560 129731 L-609670 129669 L-609454 129608 L-609011 129546 L-608894 129484 L-608837 129422 L-608161 129422 L-608060 129360 L-608032 129360 L-606690 129299 L-606284 129237 L-606244 129175 L-605316 129113 L-605218 129051 L-605085 128990 L-604681 128928 L-604655 128866 L-604562 128804 L-604345 128742 L-603934 128619 L-602781 128495 L-602489 128372 L-602460 128248 L-601852 128186 L-601602 128063 L-601582 128001 L-600653 127939 L-600602 127815 L-600479 127754 L-600462 127630 L-600306 127568 L-600131 127444 L-599994 127383 L-599938 127321 L-599830 127259 L-599744 127197 L-599511 127135 L-599436 127074 L-599128 127012 L-599010 126950 L-598840 126888 L-598749 126826 L-598646 126826 L-598623 126765 L-598546 126765 L-598448 126641 L-598081 126579 L-597977 126517 L-597473 126456 L-597021 126394 L-596983 126332 L-596959 126270 L-596918 126208 L-596790 126147 L-596689 126085 L-596247 126023 L-595965 125961 L-595373 125899 L-595242 125838 L-594968 125714 L-594815 125652 L-594662 125590 L-594577 125467 L-594499 125405 L-594313 125343 L-594263 125343 L-594235 125281 L-594155 125220 L-594132 125158 L-593849 125034 L-593245 124911 L-592250 124849 L-591952 124787 L-591218 124725 L-590973 124663 L-590883 124601 L-590306 124540 L-589608 124478 L-588855 124416 L-588537 124354 L-588154 124231 L-588077 124169 L-587443 124107 L-587257 124045 L-587169 124045 L-587040 124045 L-586727 123983 L-586678 123922 L-586536 123860 L-586514 123798 L-585546 123736 L-585001 123674 L-584523 123674 L-584462 123674 L-584138 123674 L-584116 123613 L-584054 123613 L-583844 123551 L-583767 123489 L-583712 123427 L-583690 123365 L-583651 123304 L-583635 123242 L-582878 123180 L-582861 123118 L-582062 123056 L-581909 122995 L-581004 122933 L-580498 122871 L-580269 122747 L-580227 122747 L-580112 122686 L-579936 122624 L-579181 122686 L-579046 122624 L-578882 122562 L-578564 122500 L-578388 122377 L-577366 122253 L-577343 122129 L-577092 122067 L-576879 121944 L-576245 121882 L-576007 121758 L-575974 121635 L-575796 121511 L-575716 121388 L-575626 121326 L-575562 121202 L-575121 121079 L-575098 121017 L-574557 120955 L-574301 120893 L-573806 120831 L-572929 120770 L-572892 120708 L-572840 120646 L-572798 120584 L-572681 120522 L-572405 120461 L-572198 120337 L-572000 120213 L-571977 120090 L-571927 119966 L-571888 119904 L-571810 119843 L-571212 119719 L-571152 119657 L-571049 119595 L-570895 119533 L-570263 119472 L-569582 119410 L-569279 119286 L-568932 119224 L-568735 119163 L-568687 119039 L-568366 118977 L-567739 118915 L-567592 118854 L-567556 118792 L-567498 118730 L-567421 118606 L-567180 118606 L-567092 118545 L-566998 118483 L-566704 118421 L-566569 118359 L-566509 118297 L-566472 118174 L-566200 118174 L-565194 118112 L-565019 118050 L-564968 118050 L-564675 117988 L-564483 117865 L-564150 117803 L-563643 117741 L-563081 117618 L-563066 117494 L-563049 117432 L-562949 117309 L-562834 117185 L-562795 117061 L-562758 117000 L-562692 117000 L-562664 116938 L-562525 117000 L-562232 117000 L-562182 117000 L-562077 117000 L-561812 116938 L-561347 116876 L-561203 116876 L-561148 116752 L-561091 116690 L-560900 116629 L-560535 116567 L-560321 116567 L-560126 116567 L-560068 116567 L-560009 116443 L-559855 116381 L-559586 116320 L-559156 116629 L-559140 116629 L-559063 116567 L-558999 116505 L-558870 116072 L-558846 116011 L-558562 115949 L-558514 115887 L-558460 115825 L-557997 115763 L-557959 115763 L-557918 115702 L-557728 115640 L-557247 115578 L-556760 115516 L-556744 115454 L-556706 115393 L-556449 115331 L-556372 115207 L-556142 115145 L-556126 115022 L-555831 114898 L-555389 114836 L-554942 114775 L-554438 114713 L-554284 114651 L-553997 114589 L-553957 114466 L-553626 114404 L-553404 114342 L-552887 114218 L-552811 114156 L-552564 114033 L-552369 113909 L-552309 113847 L-551533 113786 L-551459 113786 L-551228 113724 L-551212 113724 L-551150 113662 L-550954 113600 L-550490 113600 L-550467 113538 L-550337 113538 L-549036 113538 L-549020 113538 L-548942 113477 L-548849 113477 L-548632 113477 L-548479 113415 L-548301 113477 L-548247 113538 L-547960 113600 L-547920 113600 L-547551 113600 L-547110 113600 L-546927 113600 L-546606 113538 L-546311 113538 L-545865 113415 L-545793 113353 L-545331 113229 L-544893 113168 L-544711 113106 L-543257 112982 L-543125 112920 L-542668 112797 L-542442 112735 L-542056 112611 L-541539 112488 L-540585 112364 L-539791 112241 L-539116 112179 L-538691 112055 L-538380 111993 L-538150 111808 L-537466 111622 L-537453 111437 L-537243 111190 L-537221 111128 L-537047 111004 L-536097 110943 L-535829 110819 L-535014 110757 L-534703 110634 L-534666 110572 L-534608 110448 L-533991 110386 L-533354 110263 L-531728 110201 L-531054 110139 L-530412 110139 L-530334 110139 L-530278 110139 L-530242 110139 L-530214 110077 L-530102 109954 L-530084 109892 L-530061 109830 L-529908 109768 L-529854 109645 L-529776 109583 L-529657 109521 L-529559 109459 L-529442 109398 L-529172 109274 L-528903 109212 L-528885 109088 L-528685 109027 L-528538 108903 L-528312 108841 L-528178 108779 L-527869 108718 L-527809 108656 L-527456 108532 L-527107 108470 L-527006 108409 L-526942 108285 L-526882 108223 L-526498 108100 L-526117 108038 L-526012 107976 L-525752 107914 L-525481 107791 L-525322 107729 L-525289 107667 L-525227 107605 L-525086 107543 L-524902 107482 L-524858 107420 L-524570 107420 L-524554 107358 L-524320 107358 L-524259 107296 L-524221 107296 L-523641 107234 L-523508 107173 L-523484 106925 L-523466 106493 L-523448 105998 L-523432 105504 L-523408 105009 L-523392 104639 L-523371 104206 L-523354 103773 L-523331 103526 L-523314 103279 L-523292 103093 L-523276 102970 L-523227 102784 L-523154 102599 L-523120 102290 L-523096 102043 L-523060 101796 L-523019 101548 L-522982 101425 L-522966 101177 L-522942 100992 L-522905 100868 L-522888 100683 L-522865 100559 L-522847 100436 L-522829 100312 L-522813 100189 L-522783 100003 L-522757 99818 L-522712 99756 L-522696 99632 L-522654 99571 L-522606 99447 L-522535 99323 L-522520 99200 L-522504 99076 L-522441 99014 L-522402 98953 L-522363 98891 L-522197 98829 L-522132 98767 L-522116 98705 L-522072 98582 L-522013 98520 L-521801 98458 L-521767 98396 L-521725 98334 L-521647 98273 L-521109 98211 L-521031 98149 L-520927 98025 L-520838 97964 L-520662 97902 L-520312 97840 L-520156 97778 L-519718 97716 L-519561 97655 L-519431 97593 L-518727 97469 L-518526 97407 L-517566 97284 L-517083 97222 L-516984 97222 L-516892 97160 L-516647 97098 L-516574 97037 L-516131 96913 L-516035 96851 L-516020 96789 L-516004 96728 L-515979 96666 L-515513 96604 L-515296 96542 L-515157 96480 L-514863 96419 L-514774 96357 L-514733 96295 L-514703 96233 L-514530 96171 L-514471 96110 L-514395 96048 L-514315 95986 L-514245 95986 L-513936 95924 L-513851 95862 L-513637 95800 L-513602 95739 L-512918 95677 L-512819 95615 L-512614 95553 L-512568 95491 L-512289 95430 L-512227 95368 L-512210 95244 L-512132 95182 L-511824 95059 L-511800 94997 L-511746 94873 L-511723 94812 L-511601 94750 L-511465 94626 L-511221 94564 L-511095 94564 L-510448 94503 L-510432 94503 L-510408 94503 L-510227 94379 L-510151 94317 L-510059 94255 L-509632 94194 L-509215 94132 L-508823 94008 L-508744 93946 L-508725 93885 L-508362 93823 L-508125 93761 L-507897 93699 L-507584 93637 L-507506 93576 L-507425 93452 L-507247 93328 L-507232 93266 L-506966 93143 L-506886 93081 L-506656 93019 L-506430 92957 L-506114 92957 L-505939 92896 L-505578 92896 L-505186 92834 L-505117 92710 L-505053 92648 L-504913 92525 L-504861 92463 L-504759 92339 L-504258 92278 L-504060 92216 L-503814 92154 L-503628 92092 L-503328 92030 L-503252 91969 L-503086 91845 L-502202 91783 L-502173 91660 L-502050 91536 L-501472 91474 L-501394 91412 L-500680 91412 L-500368 91412 L-500155 91412 L-500138 91412 L-499752 91412 L-499227 91289 L-498781 91227 L-498451 91165 L-498298 91103 L-497972 91103 L-497794 91042 L-497713 91042 L-497506 90918 L-497331 90856 L-496402 90794 L-495513 90733 L-495473 90671 L-495246 90671 L-494866 90609 L-494079 90547 L-493845 90485 L-493769 90423 L-493411 90362 L-492839 90238 L-492572 90176 L-492186 90114 L-492082 90114 L-491912 90114 L-491294 90114 L-491083 90114 L-490775 90114 L-490722 90053 L-490594 89991 L-490541 89929 L-490422 89867 L-490086 89744 L-489126 89682 L-488995 89558 L-488793 89496 L-488162 89435 L-487851 89373 L-487437 89311 L-487409 89249 L-487264 89187 L-486844 89126 L-485511 89126 L-485464 89064 L-485336 88940 L-485319 88878 L-484741 88755 L-484535 88693 L-484506 88631 L-484465 88569 L-484408 88508 L-484370 88446 L-484292 88384 L-484149 88322 L-483694 88260 L-483576 88199 L-483291 88137 L-482918 88075 L-482822 88013 L-482495 87951 L-482141 87889 L-481971 87828 L-481924 87766 L-481814 87704 L-481725 87642 L-481698 87580 L-481621 87457 L-481318 87395 L-481284 87271 L-481212 87210 L-480844 87148 L-480509 87086 L-480428 87086 L-480208 87024 L-480037 86962 L-480009 86901 L-479512 86839 L-478963 86715 L-478082 86653 L-477984 86530 L-477907 86468 L-477633 86406 L-477385 86283 L-477311 86221 L-477250 86097 L-477131 86035 L-477088 85974 L-476978 85912 L-476902 85788 L-476201 85726 L-475955 85665 L-475916 85603 L-475759 85541 L-475160 85541 L-474933 85541 L-474841 85541 L-474366 85541 L-473769 85417 L-473249 85355 L-473228 85294 L-473083 85232 L-472763 85232 L-472221 85232 L-471989 85232 L-471818 85232 L-471332 85170 L-471104 85108 L-471019 85046 L-470673 84985 L-470347 84985 L-469824 84923 L-469497 84861 L-468896 84799 L-468699 84676 L-468647 84614 L-468606 84552 L-468325 84490 L-467640 84367 L-467330 84305 L-467305 84181 L-467114 84119 L-466891 84058 L-466805 83996 L-466142 83872 L-466117 83810 L-465896 83687 L-465566 83625 L-465214 83501 L-465009 83440 L-464776 83316 L-464518 83254 L-464329 83131 L-464282 83069 L-464054 83007 L-464020 82945 L-463863 82883 L-463649 82822 L-463476 82760 L-463385 82698 L-463107 82636 L-462864 82574 L-462548 82512 L-462122 82512 L-462085 82512 L-461601 82512 L-461368 82512 L-461156 82451 L-460930 82389 L-460380 82389 L-460133 82327 L-459299 82327 L-459243 82265 L-459221 82203 L-459063 82142 L-458602 82080 L-458561 82018 L-458221 81894 L-458088 81833 L-457865 81771 L-457293 81709 L-456821 81647 L-456627 81585 L-456434 81524 L-456244 81462 L-456143 81400 L-455774 81338 L-455728 81276 L-455646 81215 L-454353 81153 L-454305 81091 L-454036 81091 L-453891 81091 L-453340 81091 L-453224 81029 L-453142 80967 L-452783 80906 L-452559 80844 L-452278 80782 L-451949 80658 L-451441 80597 L-451328 80535 L-451249 80473 L-451085 80411 L-450791 80411 L-450322 80411 L-450125 80473 L-450075 80473 L-449425 80411 L-449303 80349 L-448849 80349 L-448813 80288 L-448345 80226 L-448234 80164 L-448218 80102 L-448002 80102 L-447821 80040 L-447289 80040 L-446260 80040 L-446060 79978 L-445602 79917 L-444654 79793 L-444555 79731 L-444201 79608 L-444140 79546 L-444126 79484 L-444091 79422 L-443721 79360 L-443601 79299 L-443359 79237 L-443196 79175 L-443008 79113 L-442887 79051 L-441817 78928 L-440959 78866 L-440746 78742 L-440649 78681 L-440475 78557 L-440142 78495 L-440070 78433 L-440012 78372 L-439837 78372 L-439448 78310 L-439213 78248 L-439101 78186 L-438984 78124 L-438004 78063 L-437978 78001 L-437384 77877 L-437351 77877 L-437203 77815 L-436918 77754 L-436006 77754 L-435060 77754 L-434907 77692 L-434805 77692 L-434673 77630 L-434530 77568 L-434504 77506 L-434389 77444 L-434171 77383 L-433490 77321 L-433360 77259 L-433057 77197 L-432817 77074 L-432485 77012 L-431846 76950 L-431503 76826 L-431442 76765 L-431286 76765 L-430364 76765 L-429894 76765 L-429850 76765 L-429838 76703 L-429796 76641 L-429774 76579 L-429747 76517 L-429603 76456 L-429181 76394 L-428846 76394 L-428654 76332 L-428226 76332 L-428038 76270 L-427649 76147 L-427115 76085 L-426742 76023 L-426721 76023 L-426471 75961 L-426352 75899 L-426277 75838 L-426141 75776 L-426101 75714 L-426022 75652 L-425627 75590 L-425131 75529 L-425019 75405 L-424846 75343 L-424538 75281 L-424091 75220 L-423768 75158 L-423625 75034 L-423198 74911 L-423045 74787 L-422990 74663 L-422176 74601 L-422156 74540 L-421784 74478 L-421727 74478 L-420598 74416 L-420530 74416 L-419972 74354 L-419777 74292 L-419641 74231 L-419408 74169 L-419061 74107 L-419026 73983 L-418991 73922 L-418922 73798 L-418574 73736 L-418401 73674 L-417917 73613 L-417900 73551 L-417575 73489 L-417418 73427 L-416277 73304 L-416252 73242 L-416060 73118 L-415867 73056 L-415617 72995 L-415599 72933 L-414579 72871 L-414281 72809 L-414206 72747 L-414070 72624 L-413894 72562 L-413317 72438 L-413102 72377 L-413038 72315 L-412907 72253 L-412870 72129 L-412347 72067 L-412209 96419 L-412195 96419 L-412172 96419 L-412152 96419 L-411925 72006 L-411149 72006 L-411107 72006 L-410739 72006 L-410661 71944 L-410609 71882 L-409936 71820 L-409193 71758 L-408769 71758 L-408321 71697 L-407259 71635 L-406948 71511 L-406538 71511 L-406466 71449 L-405941 71449 L-405847 71449 L-405829 71449 L-405384 71388 L-405199 71264 L-404418 71140 L-403746 71079 L-403334 70893 L-403102 70770 L-402961 70708 L-402880 70584 L-402860 70522 L-402784 70522 L-402655 70461 L-402338 70522 L-402114 70522 L-401789 70461 L-401727 70461 L-401357 70461 L-401324 70461 L-401115 70461 L-400448 70461 L-400370 70461 L-400212 70337 L-400102 70337 L-399775 70275 L-399620 70213 L-399280 70213 L-399222 70090 L-398884 69966 L-398681 69904 L-398628 69781 L-397251 69719 L-397122 69657 L-396688 69595 L-396368 69533 L-395540 69410 L-395417 69348 L-394686 69224 L-394530 69101 L-394489 69039 L-394435 68977 L-394412 68915 L-394298 68854 L-394002 68792 L-393712 68730 L-393658 68668 L-393537 68606 L-393507 68545 L-393407 68483 L-392963 68483 L-392812 68421 L-391976 68421 L-391434 68359 L-391099 68359 L-391084 68297 L-391008 68236 L-390892 68174 L-390697 68112 L-390433 68050 L-389599 67988 L-389502 67927 L-388981 67865 L-388939 67803 L-388840 67741 L-388011 67741 L-387876 67679 L-387538 67679 L-386984 67618 L-386604 67556 L-386441 67494 L-386131 67432 L-385318 67370 L-385012 67309 L-384744 67309 L-384422 67309 L-384101 67370 L-383826 67370 L-382997 67247 L-382902 67185 L-382810 67000 L-382705 66814 L-382318 66629 L-381838 66505 L-381822 66443 L-381703 66381 L-381335 66258 L-381241 66196 L-380407 66072 L-380330 66011 L-380030 65949 L-379940 65887 L-379532 65763 L-379422 65640 L-378723 65578 L-378250 65516 L-378190 65454 L-377971 65331 L-377697 65269 L-377584 65207 L-376557 65145 L-376170 65084 L-376150 65022 L-375817 64960 L-375573 64898 L-375139 64836 L-375029 64775 L-374912 64713 L-374460 64589 L-373869 64527 L-373533 64466 L-371640 64404 L-371526 64280 L-371315 64218 L-369996 64156 L-369890 50250 L-369824 36530 L-369788 23860 L-369726 23860 L-369226 37642 L-368551 51239 L-368529 63786 L-368259 63662 L-367291 63662 L-366601 63600 L-366439 63538 L-365899 63477 L-365809 63415 L-364790 63353 L-363842 63229 L-363476 63291 L-363373 63353 L-362785 63353 L-362726 63353 L-362625 63291 L-362185 63168 L-362078 63106 L-361636 63044 L-360636 62859 L-360380 62673 L-360277 62488 L-360147 62364 L-359780 62241 L-359199 62117 L-359168 62055 L-358853 61993 L-356870 61932 L-356754 61870 L-356686 61870 L-356328 61808 L-354709 61746 L-354531 61746 L-354387 61746 L-353565 61808 L-353512 61870 L-353457 61870 L-353023 61870 L-352043 61932 L-351969 61932 L-350884 61870 L-350671 61870 L-349955 61746 L-349567 61684 L-349348 61561 L-349028 61437 L-348535 61313 L-348407 61252 L-348178 61128 L-347946 61004 L-347887 60943 L-347597 60881 L-347325 60757 L-346295 60695 L-344630 60634 L-344211 60572 L-344074 60510 L-343917 60510 L-343612 60448 L-343384 60325 L-343226 60263 L-343066 60139 L-342897 60016 L-342850 59954 L-342796 59892 L-342775 59892 L-342389 59830 L-342139 59830 L-341868 59830 L-341708 59830 L-341618 59830 L-339959 59830 L-339794 59892 L-339414 59830 L-338954 59830 L-338344 59707 L-337251 59645 L-336820 59583 L-336789 59521 L-336726 59459 L-336709 59398 L-335005 59336 L-334963 59274 L-334497 59212 L-334310 59150 L-334278 59027 L-333683 58965 L-333633 58903 L-333310 58841 L-333259 58779 L-333049 58718 L-333031 58656 L-332765 58532 L-332712 58470 L-332243 58409 L-331733 58285 L-331654 58285 L-331360 58223 L-331343 58161 L-331305 58100 L-331234 58038 L-331076 57976 L-330130 57976 L-330074 57976 L-329553 57976 L-329361 57914 L-329260 57914 L-329034 57852 L-328524 57852 L-328136 59521 L-328066 59521 L-327718 59459 L-327361 59398 L-326232 57605 L-326181 57482 L-325955 57420 L-325921 57358 L-325796 57234 L-325697 57234 L-325432 57234 L-324692 57296 L-324114 57296 L-323820 57296 L-323114 57296 L-322936 57234 L-322912 57234 L-322276 57173 L-321965 57111 L-321569 57111 L-321539 57049 L-321518 56987 L-321364 56925 L-320679 56925 L-320663 56925 L-320323 56925 L-320050 56864 L-320013 56802 L-319957 56678 L-319935 56616 L-319863 56555 L-319531 56493 L-319425 56431 L-319396 56307 L-319198 56245 L-319045 56184 L-318177 56122 L-317615 55998 L-317599 55998 L-317497 55936 L-317395 55998 L-317249 55998 L-317170 55998 L-317133 55936 L-317077 55875 L-317004 55813 L-316859 55751 L-316377 55751 L-315973 55689 L-315106 55751 L-315086 55751 L-314829 55751 L-314752 55751 L-314723 55689 L-314712 55566 L-314695 55504 L-314402 55442 L-314363 55380 L-314291 55318 L-314217 55257 L-314012 55195 L-313852 55009 L-313551 54824 L-313474 54577 L-313457 54391 L-313240 54268 L-313009 54268 L-312899 54330 L-312529 54391 L-312371 54391 L-312139 54391 L-311971 54391 L-311826 54330 L-311694 54268 L-310418 54144 L-310015 54021 L-309954 53959 L-309837 53835 L-309412 53773 L-309397 53650 L-309335 53588 L-309061 53464 L-308949 53402 L-308667 53279 L-308389 53217 L-307964 53093 L-307942 53032 L-307864 52970 L-307738 52908 L-307152 52846 L-306760 52784 L-306425 52723 L-305836 52661 L-305733 52661 L-305563 52599 L-305427 52599 L-304599 52537 L-303414 52475 L-303378 52414 L-303322 52414 L-303102 52352 L-302897 52352 L-302742 52352 L-302485 52290 L-302409 52228 L-301866 52166 L-301830 52105 L-301581 52043 L-301193 51981 L-300368 51919 L-300010 51857 L-299699 51857 L-299441 51796 L-299217 51734 L-298811 51672 L-298695 51610 L-298511 51548 L-298458 51548 L-298270 51487 L-298099 51425 L-298070 51363 L-297790 51301 L-297479 51239 L-297341 51177 L-297031 51116 L-296838 51116 L-296822 51054 L-296103 51054 L-295969 50930 L-295672 50868 L-295581 50807 L-294981 50807 L-294942 50745 L-294864 50683 L-294243 50621 L-294092 50498 L-294051 50436 L-293741 50374 L-293549 50312 L-293356 50189 L-293300 50065 L-292991 50003 L-292939 49941 L-292885 50003 L-292859 50003 L-292734 50003 L-291923 49941 L-291847 49880 L-291306 49818 L-291038 49756 L-290378 49694 L-289471 49632 L-289229 49571 L-288697 49509 L-288480 49447 L-287372 49509 L-287322 49509 L-286546 49509 L-285999 49447 L-285888 49385 L-285735 49262 L-285680 49200 L-285514 49138 L-285137 49076 L-284689 49014 L-284635 48953 L-284480 48891 L-283800 48829 L-283580 48767 L-283062 48705 L-282213 48582 L-282197 48520 L-280406 48458 L-279852 48396 L-279735 48334 L-278729 48273 L-278692 48211 L-278460 48211 L-278367 48211 L-278327 48211 L-277995 48149 L-277643 48087 L-277378 47964 L-277091 47902 L-276781 47778 L-276526 47655 L-276433 47593 L-275943 47531 L-275735 47469 L-275170 47407 L-275055 47469 L-274704 47407 L-274653 47407 L-274613 47407 L-274009 47284 L-273275 47160 L-272694 47037 L-272459 46913 L-271918 46728 L-271766 46604 L-271264 46542 L-271055 46419 L-271032 46419 L-270973 46357 L-270010 46357 L-269832 46295 L-269391 46233 L-269366 46110 L-269211 46048 L-269130 46048 L-268979 46110 L-268332 46110 L-268283 46048 L-267163 45986 L-266179 45924 L-266117 45862 L-265397 45800 L-264532 45739 L-264153 45677 L-263934 45677 L-263174 45615 L-263123 45553 L-262813 45430 L-261962 45430 L-261769 45368 L-261592 45306 L-261368 45306 L-261241 45244 L-261049 45244 L-260816 45182 L-260647 45244 L-260360 45182 L-260081 45182 L-259998 45121 L-259827 45059 L-259811 44935 L-259657 44873 L-259618 44812 L-258842 44750 L-258766 44750 L-258534 44626 L-258107 44564 L-257761 44503 L-257178 44441 L-256909 44441 L-256650 44441 L-256521 44317 L-256505 44255 L-256391 44194 L-256367 44132 L-256133 44070 L-256097 44008 L-254781 44008 L-254725 43946 L-254046 43823 L-253474 43823 L-253348 43823 L-253195 43823 L-253118 43823 L-252806 43699 L-252533 43637 L-252444 43514 L-252342 43514 L-251414 43452 L-251338 43452 L-250974 43452 L-250950 43390 L-250913 43328 L-250138 43205 L-250046 43143 L-249906 43081 L-249504 43019 L-249242 43019 L-248999 43081 L-248785 43019 L-248704 43019 L-248628 43019 L-248551 43019 L-248365 43081 L-248298 43081 L-248048 43081 L-247994 43019 L-247856 42957 L-247776 42834 L-247663 42772 L-247440 42710 L-247275 42648 L-247234 42587 L-247065 42525 L-246694 42463 L-246679 42401 L-246563 42339 L-245842 42278 L-245806 42216 L-245673 42216 L-245326 42154 L-244914 42154 L-244878 42154 L-244800 42092 L-244761 42030 L-244397 41969 L-244193 41907 L-244178 41845 L-243832 41783 L-243484 41783 L-243158 41783 L-243056 41721 L-242903 41721 L-242709 41660 L-242477 41660 L-242385 41660 L-242229 41660 L-242152 41660 L-242111 41598 L-241998 41536 L-241975 41474 L-241724 41474 L-241585 41351 L-241007 41165 L-240179 41042 L-239691 40918 L-239570 40856 L-239531 40794 L-239519 40733 L-239367 40609 L-239266 40485 L-239033 40423 L-238642 40300 L-238338 40238 L-238322 40176 L-238152 40114 L-237913 39991 L-237317 39991 L-236713 39929 L-236673 39929 L-236633 39929 L-236480 39867 L-236426 39805 L-236364 39744 L-236296 39682 L-236241 39558 L-236216 39496 L-236169 39435 L-236075 39311 L-235938 39249 L-235784 39187 L-235652 39126 L-235611 39126 L-235575 39064 L-235514 39002 L-235240 38878 L-234926 38817 L-234885 38693 L-234800 38631 L-234622 38569 L-234385 38508 L-234028 38446 L-233998 38384 L-233428 38322 L-233306 38260 L-233070 38199 L-233047 38199 L-232766 38137 L-232480 38137 L-232225 38137 L-231653 38075 L-231356 38013 L-231280 37951 L-230581 37889 L-230503 37828 L-230468 37766 L-230442 37704 L-230390 37580 L-230196 37519 L-230056 37395 L-230020 37333 L-229980 37271 L-229385 37210 L-229152 37148 L-228869 37580 L-228814 37951 L-228740 38384 L-228662 38755 L-228426 38631 L-228182 38569 L-228047 38508 L-227940 38446 L-227861 38384 L-227474 38260 L-227347 38199 L-227194 38137 L-227156 38075 L-227010 38013 L-226789 37951 L-226615 37889 L-226546 37828 L-225724 37704 L-225708 37704 L-225414 37642 L-224626 37580 L-224316 37580 L-224170 37519 L-223942 37457 L-223741 37333 L-222804 37271 L-222767 37210 L-222745 37148 L-222704 37024 L-222435 36962 L-221839 36901 L-221775 36839 L-221740 36777 L-221723 36715 L-221028 36715 L-220826 36715 L-220794 36715 L-220461 36715 L-220353 36653 L-219728 36530 L-219224 36468 L-219187 36344 L-218745 36344 L-218649 36283 L-218490 36283 L-218177 36283 L-218164 36283 L-217724 36344 L-217242 36406 L-217113 36406 L-216793 36406 L-216725 36344 L-216421 36344 L-216245 36283 L-216051 36221 L-215808 36097 L-215611 35974 L-215585 35850 L-215007 35788 L-214937 35726 L-214527 35665 L-214473 35603 L-214427 35541 L-214063 35479 L-213917 35417 L-213711 35355 L-213615 35355 L-213460 35294 L-213398 35232 L-213251 35108 L-213150 35046 L-212593 35046 L-212571 35170 L-212399 35232 L-211857 35294 L-211796 35294 L-211742 35170 L-211714 35046 L-211642 34985 L-211626 34861 L-211563 34799 L-211526 34676 L-211371 34614 L-211046 34552 L-210480 34490 L-210465 34428 L-210403 34305 L-210302 34181 L-210255 34181 L-210013 34119 L-209591 34119 L-209436 34119 L-207694 33996 L-207152 33934 L-206209 33872 L-205800 33810 L-205259 33687 L-205062 33625 L-204894 33563 L-204598 33501 L-204483 33440 L-204468 33440 L-204313 33378 L-204173 33316 L-204097 33192 L-203965 33192 L-203617 33192 L-203246 33254 L-202648 33254 L-202473 33254 L-202316 33192 L-202048 33131 L-201896 33131 L-201605 33316 L-201581 33440 L-201498 33563 L-201271 33687 L-200571 33625 L-200444 33563 L-200013 33501 L-199919 33440 L-198714 33440 L-198665 33378 L-198372 33378 L-197968 33316 L-197692 33192 L-197673 33131 L-197555 33069 L-197479 33007 L-197298 32945 L-196818 32883 L-196366 32760 L-195956 32698 L-195926 32636 L-195507 32574 L-195393 32574 L-195275 32574 L-195260 32574 L-195066 32512 L-195044 32389 L-194812 32327 L-194369 32265 L-194049 32142 L-193584 32142 L-193419 32080 L-193264 32018 L-193108 32018 L-192655 32018 L-192336 32018 L-192281 32080 L-191910 32080 L-191872 32142 L-191546 32142 L-191429 32080 L-191330 32018 L-191004 31894 L-190617 31833 L-190356 31771 L-189998 31647 L-189742 31585 L-187571 31524 L-187522 31462 L-187499 31400 L-187088 31400 L-187026 31400 L-186956 31462 L-186725 31462 L-186415 31400 L-186111 31276 L-186067 31215 L-185759 31153 L-185626 31091 L-185410 31029 L-184697 30967 L-184542 30967 L-184404 30906 L-184255 30906 L-184234 30906 L-184040 30844 L-184015 30782 L-183923 30720 L-183901 30658 L-183885 30597 L-183785 30535 L-182856 30473 L-182398 30473 L-181306 30349 L-180884 30349 L-180480 30288 L-180441 30226 L-180188 30164 L-179413 30040 L-179397 29978 L-179373 29917 L-179180 29855 L-178443 29793 L-178174 29731 L-178134 29669 L-177735 29546 L-177710 29484 L-176920 29422 L-176240 29360 L-174869 29299 L-174599 29237 L-174551 29175 L-174013 29051 L-173980 28990 L-173878 28866 L-173555 28804 L-173475 28742 L-173206 28742 L-172294 28681 L-172155 28681 L-171906 28557 L-171361 28557 L-170939 28495 L-170746 28433 L-170730 28433 L-170592 28310 L-170498 28248 L-170371 28186 L-170111 28124 L-170086 28001 L-169995 27939 L-169685 27877 L-169625 27815 L-169508 27815 L-169158 27815 L-168347 27815 L-168116 27692 L-167287 27692 L-167055 27568 L-166838 27506 L-166320 27506 L-165682 27444 L-165265 27383 L-164943 27321 L-164462 27259 L-164037 27259 L-163975 27197 L-163627 27197 L-163586 27135 L-163573 27074 L-163473 26950 L-163428 26950 L-162942 26888 L-162141 26888 L-161806 26888 L-160725 26826 L-160245 26765 L-160222 26703 L-160082 26641 L-159527 26579 L-158830 26517 L-158521 26456 L-158299 26394 L-158194 26332 L-158092 26208 L-157421 26147 L-157327 26085 L-157305 26085 L-157227 26023 L-157049 26023 L-156877 26023 L-156697 25961 L-156683 25899 L-156607 25838 L-156443 25776 L-155928 25714 L-155912 25652 L-155771 25652 L-155409 25590 L-155385 25590 L-155254 25529 L-155230 25467 L-154867 25405 L-154342 25281 L-154248 25220 L-154032 25096 L-153939 25034 L-153914 24972 L-153450 24911 L-153373 24911 L-152971 24849 L-152521 24849 L-151269 24787 L-151230 24725 L-150799 24663 L-150766 24601 L-150047 24540 L-149870 24478 L-149735 24416 L-149428 24354 L-149373 24292 L-149348 24169 L-149332 24045 L-149157 23983 L-148968 23922 L-148460 23922 L-148087 23427 L-147748 22871 L-147710 22377 L-146991 21944 L-146897 21882 L-146858 21820 L-146317 21820 L-146294 21758 L-145891 21697 L-145465 21635 L-145194 21635 L-145015 21573 L-144769 21449 L-144745 21388 L-144689 21264 L-144072 21202 L-143570 21140 L-143182 21140 L-142564 21202 L-142347 21202 L-142192 21264 L-140900 21140 L-140801 21079 L-140358 20955 L-140027 20893 L-139726 20770 L-139484 20708 L-138749 20584 L-138170 20522 L-137340 20461 L-137240 20399 L-136683 20337 L-136545 20275 L-134903 20213 L-134842 20213 L-134748 20213 L-133781 20213 L-133604 20152 L-133317 20152 L-133099 20152 L-133021 20090 L-132749 20090 L-132634 20028 L-132481 19966 L-132170 19904 L-132092 19843 L-132001 19843 L-131924 19781 L-131808 19781 L-131629 19719 L-131537 19657 L-131498 19595 L-130995 19595 L-130777 19533 L-130647 19533 L-130492 19472 L-130438 19410 L-130313 19410 L-129928 19348 L-129420 19286 L-129347 19224 L-128867 19163 L-128790 19101 L-128690 19101 L-128456 19039 L-127992 19039 L-127762 19039 L-127745 19039 L-127513 19039 L-127358 19039 L-127297 19039 L-127104 18977 L-126833 18854 L-126081 18792 L-125128 18792 L-125092 18730 L-124867 18730 L-124428 18730 L-124147 18606 L-123798 18545 L-122729 18483 L-121801 18483 L-121671 18483 L-121624 18483 L-121555 18421 L-121400 18421 L-121323 18297 L-121149 18174 L-120714 18050 L-120510 17988 L-120450 17865 L-119867 17803 L-119713 17679 L-119598 17618 L-119557 17556 L-119387 17494 L-119251 17432 L-119040 17309 L-118962 17247 L-118939 17185 L-118730 17061 L-118320 17000 L-118296 16938 L-118073 16876 L-117927 16814 L-117893 16752 L-117879 16690 L-117857 16629 L-117623 16567 L-117438 16505 L-117221 16443 L-117195 16381 L-116506 16320 L-116402 16258 L-116367 16196 L-116346 16134 L-116152 16072 L-116099 16011 L-115982 15887 L-115901 15887 L-115790 15825 L-115475 15763 L-115016 15702 L-114761 15640 L-114526 15516 L-114397 15454 L-114044 15393 L-113985 15331 L-113832 15269 L-113260 15145 L-113173 15084 L-113020 14960 L-112724 14836 L-112354 14713 L-112051 14589 L-111975 14527 L-111570 14466 L-111402 14466 L-111258 14466 L-110718 14466 L-110657 14466 L-110641 14342 L-110475 14280 L-110269 14218 L-110194 14218 L-110102 14156 L-109692 14095 L-109676 14033 L-109653 14033 L-109460 13971 L-109383 14527 L-109212 15084 L-109150 15578 L-109135 16134 L-108620 16072 L-108399 16011 L-107780 15887 L-107526 15825 L-107332 15763 L-107293 15702 L-107220 15702 L-107154 15702 L-106504 15702 L-106465 15763 L-106291 15763 L-106225 15763 L-105551 15763 L-105162 15640 L-104900 15578 L-104663 15516 L-104585 15393 L-104569 15269 L-104367 15207 L-103996 15084 L-103771 15022 L-103135 14960 L-103115 14960 L-102728 14898 L-102635 14898 L-102576 14836 L-102300 14775 L-101991 14775 L-101914 14713 L-101062 14775 L-100720 15084 L-100283 15454 L-99849 15763 L-99354 16072 L-99204 16011 L-98936 16072 L-97698 16134 L-97641 16258 L-95878 16320 L-95687 16258 L-94677 16196 L-94526 16134 L-94151 16258 L-93830 16381 L-93224 16505 L-93155 16629 L-92977 16567 L-92149 16505 L-92010 16443 L-91624 16381 L-91439 16320 L-91396 16258 L-91276 16196 L-91066 16134 L-90618 16011 L-90270 15949 L-90138 15887 L-89729 15825 L-89379 15825 L-89093 15763 L-88900 15702 L-88745 15702 L-88581 15640 L-88513 15578 L-88413 15578 L-88180 15516 L-88063 15516 L-88010 15454 L-87468 15454 L-87004 15393 L-85822 15393 L-85689 15393 L-85664 15393 L-85611 15393 L-84944 15393 L-83909 15269 L-83715 15207 L-83535 15145 L-83384 15145 L-83343 15084 L-83328 15084 L-83267 15022 L-82942 14960 L-81781 14898 L-81588 14836 L-81410 14775 L-80296 14713 L-79437 14651 L-79330 14651 L-78857 14589 L-78664 14589 L-76342 14527 L-76265 14466 L-76143 14342 L-76109 14280 L-76072 14156 L-75977 13971 L-75762 13847 L-75180 13724 L-74794 13662 L-74021 13600 L-73943 13538 L-73246 13538 L-72705 13538 L-72664 13477 L-72533 13477 L-72069 13415 L-72031 13353 L-71896 13291 L-71528 13229 L-71498 13168 L-71348 13168 L-70948 13106 L-69124 13168 L-68317 13106 L-67598 13106 L-67581 13106 L-67268 12982 L-66706 12920 L-66205 12859 L-65686 12797 L-65664 12735 L-63920 12673 L-63751 12611 L-63556 12550 L-62662 12488 L-62143 12364 L-61933 12302 L-61675 12241 L-60965 12179 L-60015 12117 L-59357 12055 L-59318 11932 L-59031 11870 L-58949 11808 L-58853 11808 L-58721 11746 L-58644 11746 L-57909 11746 L-57572 11684 L-57522 11746 L-57267 11746 L-56980 11684 L-56555 11684 L-55974 11622 L-55716 11622 L-55564 11561 L-55317 11561 L-55278 11561 L-54481 11499 L-54443 11437 L-54266 11437 L-53857 11313 L-53629 11313 L-53552 11313 L-53421 11313 L-53305 11252 L-52957 11190 L-52893 11128 L-52741 11066 L-52000 11004 L-51889 10943 L-51718 10881 L-51679 10819 L-51385 10819 L-50983 10819 L-50807 10819 L-50712 10819 L-50403 10757 L-49602 10695 L-49143 10572 L-48623 10510 L-48135 10448 L-47439 10386 L-46393 10325 L-46124 10325 L-46069 10263 L-45909 10263 L-45658 10263 L-45412 10201 L-45333 10139 L-45119 10016 L-44806 9954 L-44343 9830 L-44328 9768 L-44032 9768 L-44019 9707 L-43028 9645 L-42355 9583 L-42021 9459 L-41404 9459 L-41267 9398 L-40628 9336 L-40498 9274 L-39547 9150 L-39448 9027 L-38888 8965 L-38480 8965 L-38051 8965 L-37960 8903 L-37125 8903 L-36762 8903 L-36723 8965 L-36590 9027 L-36414 9027 L-36197 9027 L-36143 8965 L-35986 8841 L-35733 8779 L-34633 8718 L-34556 8656 L-34336 8594 L-34205 8470 L-34169 8409 L-33976 8347 L-33876 8285 L-33392 8223 L-33108 8161 L-32948 8100 L-32853 7976 L-32582 7914 L-32312 7852 L-32296 7605 L-32157 7420 L-32019 7234 L-31692 6987 L-31383 6864 L-31342 6802 L-31267 6678 L-31151 6616 L-30301 6493 L-29974 6431 L-29643 6369 L-29510 6369 L-29294 6369 L-29278 6369 L-28598 6369 L-28504 6245 L-28481 6184 L-28465 6060 L-28427 5998 L-28015 5875 L-27745 5813 L-27705 5751 L-27337 5751 L-27127 5689 L-26044 5689 L-26028 5627 L-25999 5566 L-25979 5566 L-25602 5442 L-25347 5380 L-25099 5257 L-24960 5133 L-24828 5071 L-24496 5009 L-24403 4948 L-24342 4886 L-23784 4824 L-23723 4762 L-23567 4700 L-23373 4639 L-23180 4577 L-23165 4515 L-23126 4453 L-23087 4391 L-22817 4330 L-22693 4268 L-22661 4206 L-22562 4206 L-22406 4206 L-22265 4206 L-21981 4144 L-21655 4144 L-20959 4082 L-20937 4082 L-20427 4082 L-19581 4082 L-19218 4021 L-19064 3959 L-18460 3959 L-18290 3959 L-18229 3959 L-18174 3897 L-17118 3835 L-17100 3835 L-16194 3835 L-16173 3835 L-16006 3773 L-15763 3773 L-15713 3711 L-15659 3588 L-15521 3526 L-15482 3464 L-14553 3402 L-14498 3402 L-14376 3402 L-14304 3402 L-14189 3402 L-14010 3464 L-13028 3402 L-12888 3402 L-12771 3279 L-12476 3155 L-12229 3093 L-12192 3032 L-12137 3093 L-12116 3093 L-11983 3093 L-11904 3093 L-11766 3032 L-11143 3032 L-10977 2970 L-10512 2970 L-10336 2846 L-10320 2784 L-10259 2723 L-10143 2661 L-9660 2599 L-8965 2537 L-8592 2475 L-8423 2414 L-7456 2352 L-7301 2290 L-7124 2290 L-7031 2228 L-6776 2228 L-6605 2228 L-5958 2166 L-5947 2166 L-5367 2105 L-5229 2105 L-5174 1981 L-4439 1919 L-4400 1857 L-4322 1857 L-3680 1796 L-2906 1796 L-2813 1734 L-2765 1734 L-2750 1672 L-2713 1672 L-2697 1548 L-2634 1487 L-2618 1425 L-2598 1425 L-2443 1363 L-2404 1301 L-2388 1239 L-2349 1177 L-2210 1116 L-2133 1054 L-1769 992 L-1421 930 L-647 868 L-45 807 L150 745 L381 745 L518 683 L1156 683 L1446 621 L1467 621 L1928 559 L2160 559 L2215 498 L2254 436 L2757 374 L3307 312 L4095 250 L5218 250 L6112 189 L6200 189 L6500 127" />
</svg>
