<svg xmlns="http://www.w3.org/2000/svg" version="1.1" viewBox="0 0 6500 1000">
	<path fill="none" stroke="gold" stroke-width="125" stroke-linecap="round" stroke-linejoin="round" d="M0 1702  L-33558 1702 L-33146 1602 L-32921 1652 L-32864 1602 L-32826 1502 L-32642 1402 L-32152 1302 L-31858 1252 L-31547 1201 L-31312 1101 L-31259 1001 L-31200 901 L-31047 851 L-31006 801 L-30873 751 L-30581 801 L-30040 751 L-29430 650 L-29382 751 L-28742 650 L-28709 700 L-28183 600 L-28051 550 L-27660 350 L-27332 250 L-27215 149 L-27004 250 L-26287 199 L-25717 149 L-25610 99 L-25435 0 L-25214 -100 L-24812 -150 L-24787 -251 L-23859 -351 L-23771 -451 L-23689 -551 L-23619 -651 L-23322 -701 L-23170 -752 L-21279 -451 L-21179 -601 L-20916 -701 L-20623 -601 L-20481 -701 L-20232 -752 L-20197 -802 L-20038 -902 L-19575 -952 L-19322 -1052 L-19110 -1102 L-18858 -1152 L-18509 -1253 L-17582 -1353 L-17488 -1453 L-17078 -1503 L-15907 -1553 L-14718 -1653 L-14625 -1754 L-14598 -1854 L-14332 -2004 L-14033 -2104 L-13904 -2154 L-13867 -2255 L-13052 -1904 L-12668 -1954 L-11608 -2054 L-11546 -2104 L-11281 1953 L-10810 1903 L-10618 1803 L-10354 1753 L-10017 1702 L-9882 1753 L-9426 1602 L-8683 1552 L-8665 1452 L-8500 1402 L-8432 1502 L-7916 1452 L-6887 1352 L-6691 1252 L-6202 1302 L-5840 1252 L-5432 1352 L-5046 1402 L-3343 1352 L-3245 1302 L-3173 1352 L-3111 1302 L-2927 1252 L-2591 1201 L-1950 1101 L-1873 1201 L-1812 1151 L-1625 1101 L-1546 1051 L-1369 1001 L-1349 1051 L-1119 1001 L-731 951 L156 901 L196 851 L284 751 L311 700 L1319 600 L1469 550 L1493 500 L1626 450 L1666 400 L2924 350 L2982 450 L3522 400 L3574 350 L3621 300 L4016 250 L4155 199 L4355 149 L4502 350 L4667 300 L4943 250 L5302 199 L5855 149 L6500 49" />
</svg>
