<svg xmlns="http://www.w3.org/2000/svg" version="1.1" viewBox="0 0 6500 1000">
	<path fill="none" stroke="gold" stroke-width="125" stroke-linecap="round" stroke-linejoin="round" d="M0 2338  L-33906 2338 L-33494 2205 L-33270 2272 L-33212 2205 L-33175 2071 L-32990 1937 L-32500 1804 L-32207 1737 L-31895 1670 L-31661 1536 L-31607 1403 L-31548 1269 L-31395 1202 L-31355 1135 L-31222 1068 L-30929 1135 L-30389 1068 L-29778 935 L-29730 1068 L-29090 935 L-29057 1002 L-28532 868 L-28399 801 L-28009 534 L-27681 400 L-27563 266 L-27352 400 L-26635 333 L-26065 266 L-25958 199 L-25784 66 L-25562 -67 L-25161 -134 L-25135 -268 L-24207 -401 L-24119 -535 L-24037 -669 L-23967 -802 L-23670 -869 L-23518 -936 L-21628 -535 L-21527 -735 L-21265 -869 L-20971 -735 L-20829 -869 L-20581 -936 L-20545 -1003 L-20387 -1137 L-19923 -1203 L-19670 -1337 L-19458 -1404 L-19207 -1471 L-18858 -1604 L-17930 -1738 L-17837 -1872 L-17426 -1939 L-16255 -2006 L-15066 -2139 L-14974 -2273 L-14946 -2407 L-14680 -2607 L-14381 -2741 L-14253 -2808 L-14215 -2941 L-13401 -2473 L-13017 -2540 L-11956 -2674 L-11895 -2741 L-11630 2673 L-11158 2606 L-10966 2472 L-10702 2405 L-10366 2338 L-10230 2405 L-9775 2205 L-9031 2138 L-9014 2004 L-8848 1937 L-8780 2071 L-8264 2004 L-7236 1870 L-7039 1737 L-6551 1804 L-6189 1737 L-5780 1870 L-5395 1937 L-3691 1870 L-3593 1804 L-3521 1870 L-3460 1804 L-3275 1737 L-2939 1670 L-2298 1536 L-2221 1670 L-2160 1603 L-1974 1536 L-1894 1469 L-1717 1403 L-1698 1469 L-1468 1403 L-1080 1336 L-191 1269 L-152 1202 L-64 1068 L-36 1002 L971 868 L1121 801 L1145 734 L1278 667 L1318 600 L2576 534 L2634 667 L3173 600 L3226 534 L3273 467 L3668 400 L3807 333 L4007 266 L4154 534 L4318 467 L4595 400 L4954 333 L5506 266 L6151 133 L6410 66" />
</svg>
