<svg xmlns="http://www.w3.org/2000/svg" version="1.1" viewBox="0 0 6500 1000">
	<path fill="none" stroke="gold" stroke-width="125" stroke-linecap="round" stroke-linejoin="round" d="M0 1015  L-1296688 1015 L-1296504 1015 L-1296013 1015 L-1295720 1015 L-1295408 1015 L-1295174 1015 L-1295121 1015 L-1295061 1015 L-1294908 1015 L-1294868 1015 L-1294735 1015 L-1294443 1015 L-1293902 1015 L-1293292 1015 L-1293244 1015 L-1292604 1015 L-1292570 1015 L-1292045 1015 L-1291912 1015 L-1291522 1015 L-1291194 1015 L-1291077 1015 L-1290865 1015 L-1290148 1015 L-1289579 1015 L-1289471 1015 L-1289297 1015 L-1289075 1015 L-1288674 1015 L-1288648 1015 L-1287720 1015 L-1287633 1015 L-1287550 1015 L-1287480 1015 L-1287183 1015 L-1287031 1015 L-1285141 1015 L-1285040 1015 L-1284778 1015 L-1284484 1015 L-1284343 1015 L-1284094 1015 L-1284058 1015 L-1283900 1015 L-1283436 1015 L-1283183 1015 L-1282971 1015 L-1282720 1015 L-1282371 1015 L-1281444 1015 L-1281350 1015 L-1280939 1015 L-1279768 1015 L-1278579 1015 L-1278487 1015 L-1278460 1015 L-1278194 1015 L-1277895 1015 L-1277766 1015 L-1277728 1015 L-1276914 1015 L-1276530 1015 L-1275469 1015 L-1275408 1015 L-1275143 1015 L-1274672 1015 L-1274479 1015 L-1274216 1015 L-1273879 1015 L-1273743 1015 L-1273288 1015 L-1272544 1015 L-1272527 1015 L-1272362 1015 L-1272293 1015 L-1271777 1015 L-1270749 1015 L-1270552 1015 L-1270064 1015 L-1269702 1015 L-1269293 1015 L-1268908 1015 L-1267204 1015 L-1267106 1015 L-1267034 1015 L-1266973 1015 L-1266789 1015 L-1266452 1015 L-1265812 1015 L-1265735 1015 L-1265673 1015 L-1265487 1015 L-1265407 1015 L-1265230 1015 L-1265211 1015 L-1264981 1015 L-1264593 1015 L-1263704 1015 L-1263665 1015 L-1263577 1015 L-1263549 1015 L-1262541 1015 L-1262392 1015 L-1262367 1015 L-1262235 1015 L-1262195 1015 L-1260936 1015 L-1260879 1015 L-1260339 1015 L-1260286 1015 L-1260240 1015 L-1259845 1015 L-1259705 1015 L-1259505 1015 L-1259359 1015 L-1259194 1015 L-1258917 1015 L-1258558 1015 L-1258006 1015 L-1257361 1015 L-1257102 1015 L-1256949 1015 L-1256548 1015 L-1256507 1015 L-1256387 1015 L-1256325 1015 L-1256311 1015 L-1256217 1015 L-1255924 1015 L-1255773 1015 L-1255442 1015 L-1255365 1015 L-1255289 1015 L-1255062 1015 L-1254996 1015 L-1254768 1015 L-1254716 1015 L-1254551 1015 L-1253545 1015 L-1253362 1015 L-1252811 1015 L-1252418 1015 L-1252020 1015 L-1251170 1015 L-1251092 1015 L-1250513 1015 L-1250072 1015 L-1249831 1015 L-1249673 1015 L-1249273 1015 L-1249252 1015 L-1248807 1015 L-1248402 1015 L-1248266 1015 L-1248091 1015 L-1247954 1015 L-1247704 1015 L-1246704 1015 L-1246622 1015 L-1246486 1015 L-1246448 1015 L-1245558 1015 L-1245342 1015 L-1244899 1015 L-1244782 1015 L-1244725 1015 L-1244049 1015 L-1243948 1015 L-1243919 1015 L-1242578 1015 L-1242172 1015 L-1242132 1015 L-1241204 1015 L-1241106 1015 L-1240973 1015 L-1240569 1015 L-1240543 1015 L-1240450 1015 L-1240233 1015 L-1239822 1015 L-1238668 1015 L-1238377 1015 L-1238348 1015 L-1237740 1015 L-1237490 1015 L-1237470 1015 L-1236541 1015 L-1236490 1015 L-1236367 1015 L-1236350 1015 L-1236194 1015 L-1236019 1015 L-1235882 1015 L-1235825 1015 L-1235718 1015 L-1235632 1015 L-1235399 1015 L-1235324 1015 L-1235016 1015 L-1234898 1015 L-1234728 1015 L-1234637 1015 L-1234534 1015 L-1234511 1015 L-1234434 1015 L-1234336 1015 L-1233969 1015 L-1233864 1015 L-1233361 1015 L-1232909 1015 L-1232871 1015 L-1232847 1015 L-1232806 1015 L-1232677 1015 L-1232577 1015 L-1232135 1015 L-1231853 1015 L-1231260 1015 L-1231130 1015 L-1230856 1015 L-1230703 1015 L-1230550 1015 L-1230465 1014 L-1230387 1014 L-1230201 1014 L-1230150 1014 L-1230123 1014 L-1230043 1014 L-1230020 1014 L-1229737 1014 L-1229133 1014 L-1228137 1014 L-1227840 1014 L-1227106 1014 L-1226861 1014 L-1226771 1014 L-1226194 1014 L-1225496 1014 L-1224743 1014 L-1224425 1014 L-1224042 1014 L-1223965 1014 L-1223330 1014 L-1223145 1014 L-1223057 1014 L-1222928 1014 L-1222615 1014 L-1222565 1014 L-1222423 1014 L-1222402 1014 L-1221434 1014 L-1220889 1014 L-1220410 1014 L-1220349 1014 L-1220026 1014 L-1220004 1014 L-1219942 1014 L-1219732 1014 L-1219655 1014 L-1219600 1014 L-1219578 1014 L-1219538 1014 L-1219523 1014 L-1218766 1014 L-1218749 1014 L-1217950 1014 L-1217797 1014 L-1216892 1014 L-1216386 1014 L-1216156 1014 L-1216115 1014 L-1216000 1014 L-1215823 1014 L-1215069 1014 L-1214934 1014 L-1214770 1014 L-1214452 1014 L-1214276 1014 L-1213254 1014 L-1213231 1014 L-1212979 1014 L-1212766 1014 L-1212132 1014 L-1211895 1014 L-1211862 1014 L-1211684 1014 L-1211604 1014 L-1211514 1014 L-1211449 1014 L-1211009 1014 L-1210986 1014 L-1210445 1014 L-1210189 1014 L-1209694 1014 L-1208817 1014 L-1208780 1014 L-1208727 1014 L-1208686 1014 L-1208569 1014 L-1208293 1014 L-1208085 1014 L-1207888 1014 L-1207865 1014 L-1207815 1014 L-1207776 1014 L-1207698 1014 L-1207100 1014 L-1207040 1014 L-1206937 1014 L-1206782 1014 L-1206150 1014 L-1205470 1014 L-1205167 1014 L-1204820 1014 L-1204623 1014 L-1204574 1014 L-1204254 1014 L-1203626 1014 L-1203480 1014 L-1203443 1014 L-1203386 1014 L-1203309 1014 L-1203068 1014 L-1202979 1014 L-1202885 1014 L-1202591 1014 L-1202457 1014 L-1202397 1014 L-1202360 1014 L-1202088 1014 L-1201082 1014 L-1200906 1014 L-1200856 1014 L-1200563 1014 L-1200371 1014 L-1200037 1014 L-1199531 1014 L-1198969 1014 L-1198954 1014 L-1198937 1014 L-1198837 1014 L-1198722 1014 L-1198683 1014 L-1198645 1014 L-1198580 1014 L-1198552 1014 L-1198413 1014 L-1198120 1014 L-1198070 1014 L-1197965 1014 L-1197700 1014 L-1197235 1014 L-1197091 1014 L-1197036 1014 L-1196979 1014 L-1196788 1014 L-1196423 1014 L-1196208 1014 L-1196014 1014 L-1195956 1014 L-1195897 1014 L-1195743 1014 L-1195473 1014 L-1195044 1014 L-1195028 1014 L-1194951 1014 L-1194887 1014 L-1194757 1014 L-1194734 1014 L-1194450 1014 L-1194402 1014 L-1194348 1014 L-1193885 1014 L-1193846 1014 L-1193806 1014 L-1193615 1014 L-1193135 1014 L-1192648 1014 L-1192631 1014 L-1192593 1014 L-1192337 1014 L-1192260 1014 L-1192030 1014 L-1192014 1014 L-1191719 1014 L-1191277 1014 L-1190830 1014 L-1190325 1014 L-1190172 1014 L-1189885 1014 L-1189845 1014 L-1189514 1014 L-1189292 1014 L-1188775 1014 L-1188699 1014 L-1188451 1014 L-1188257 1014 L-1188197 1014 L-1187421 1014 L-1187347 1014 L-1187116 1014 L-1187099 1014 L-1187037 1014 L-1186842 1014 L-1186378 1014 L-1186354 1014 L-1186225 1014 L-1184924 1014 L-1184907 1014 L-1184830 1014 L-1184737 1014 L-1184519 1014 L-1184367 1014 L-1184189 1014 L-1184135 1014 L-1183848 1014 L-1183808 1014 L-1183439 1014 L-1182998 1014 L-1182815 1014 L-1182494 1014 L-1182199 1014 L-1181753 1014 L-1181681 1014 L-1181219 1014 L-1180781 1014 L-1180599 1014 L-1179145 1014 L-1179013 1014 L-1178556 1014 L-1178330 1014 L-1177943 1014 L-1177427 1014 L-1176473 1014 L-1175679 1013 L-1175004 1013 L-1174579 1013 L-1174267 1013 L-1174037 1013 L-1173354 1013 L-1173341 1013 L-1173131 1013 L-1173109 1013 L-1172935 1013 L-1171985 1013 L-1171717 1013 L-1170901 1013 L-1170591 1013 L-1170553 1013 L-1170496 1013 L-1169879 1013 L-1169241 1013 L-1167615 1013 L-1166941 1013 L-1166299 1013 L-1166222 1013 L-1166165 1013 L-1166130 1013 L-1166101 1013 L-1165990 1013 L-1165972 1013 L-1165949 1013 L-1165796 1013 L-1165742 1013 L-1165664 1013 L-1165545 1013 L-1165447 1013 L-1165330 1013 L-1165060 1013 L-1164790 1013 L-1164773 1013 L-1164573 1013 L-1164426 1013 L-1164200 1013 L-1164065 1013 L-1163757 1013 L-1163697 1013 L-1163344 1013 L-1162995 1013 L-1162894 1013 L-1162830 1013 L-1162770 1013 L-1162385 1013 L-1162005 1013 L-1161900 1013 L-1161640 1013 L-1161369 1013 L-1161210 1013 L-1161177 1013 L-1161115 1013 L-1160974 1013 L-1160790 1013 L-1160746 1013 L-1160457 1013 L-1160441 1013 L-1160208 1013 L-1160147 1013 L-1160109 1013 L-1159529 1013 L-1159395 1013 L-1159372 1013 L-1159354 1013 L-1159336 1013 L-1159320 1013 L-1159296 1013 L-1159280 1013 L-1159258 1013 L-1159242 1013 L-1159219 1013 L-1159202 1013 L-1159180 1013 L-1159163 1013 L-1159115 1013 L-1159042 1013 L-1159008 1013 L-1158984 1013 L-1158948 1013 L-1158907 1013 L-1158870 1013 L-1158854 1013 L-1158830 1013 L-1158793 1013 L-1158776 1013 L-1158753 1013 L-1158735 1013 L-1158717 1013 L-1158701 1013 L-1158671 1013 L-1158645 1013 L-1158600 1013 L-1158583 1013 L-1158541 1013 L-1158493 1013 L-1158423 1013 L-1158407 1013 L-1158391 1013 L-1158329 1013 L-1158290 1013 L-1158251 1012 L-1158085 1012 L-1158020 1012 L-1158004 1012 L-1157960 1012 L-1157901 1012 L-1157688 1012 L-1157655 1012 L-1157613 1012 L-1157535 1012 L-1156997 1012 L-1156919 1012 L-1156815 1012 L-1156726 1012 L-1156550 1012 L-1156199 1012 L-1156044 1012 L-1155606 1012 L-1155449 1012 L-1155319 1012 L-1154615 1012 L-1154414 1012 L-1153454 1012 L-1152971 1012 L-1152872 1012 L-1152780 1012 L-1152535 1012 L-1152462 1012 L-1152019 1012 L-1151923 1012 L-1151908 1012 L-1151892 1012 L-1151867 1012 L-1151401 1012 L-1151184 1012 L-1151044 1012 L-1150750 1012 L-1150662 1012 L-1150620 1012 L-1150591 1012 L-1150418 1012 L-1150359 1012 L-1150283 1012 L-1150202 1012 L-1150133 1012 L-1149824 1012 L-1149738 1012 L-1149525 1012 L-1149489 1012 L-1148806 1012 L-1148707 1012 L-1148502 1012 L-1148456 1012 L-1148177 1012 L-1148115 1012 L-1148098 1012 L-1148020 1012 L-1147712 1012 L-1147688 1012 L-1147634 1012 L-1147611 1012 L-1147488 1012 L-1147353 1012 L-1147108 1012 L-1146983 1012 L-1146336 1012 L-1146320 1012 L-1146295 1012 L-1146115 1012 L-1146039 1012 L-1145947 1012 L-1145519 1012 L-1145103 1012 L-1144710 1012 L-1144632 1012 L-1144613 1012 L-1144249 1012 L-1144013 1012 L-1143785 1012 L-1143472 1012 L-1143394 1012 L-1143313 1012 L-1143135 1012 L-1143119 1012 L-1142854 1012 L-1142774 1012 L-1142544 1012 L-1142318 1012 L-1142002 1012 L-1141827 1012 L-1141466 1012 L-1141074 1012 L-1141005 1012 L-1140941 1012 L-1140800 1012 L-1140749 1012 L-1140647 1012 L-1140145 1012 L-1139948 1012 L-1139701 1012 L-1139516 1012 L-1139216 1012 L-1139140 1012 L-1138974 1012 L-1138090 1012 L-1138061 1012 L-1137938 1012 L-1137359 1012 L-1137282 1012 L-1136568 1012 L-1136256 1012 L-1136043 1012 L-1136026 1012 L-1135640 1012 L-1135115 1012 L-1134669 1012 L-1134339 1012 L-1134186 1012 L-1133860 1012 L-1133682 1012 L-1133600 1012 L-1133394 1012 L-1133219 1012 L-1132290 1012 L-1131400 1012 L-1131361 1012 L-1131133 1012 L-1130754 1012 L-1129967 1012 L-1129732 1012 L-1129656 1012 L-1129299 1012 L-1128727 1012 L-1128460 1012 L-1128074 1012 L-1127970 1012 L-1127800 1012 L-1127182 1012 L-1126970 1012 L-1126663 1012 L-1126610 1012 L-1126482 1012 L-1126429 1012 L-1126310 1012 L-1125973 1012 L-1125014 1012 L-1124883 1012 L-1124681 1012 L-1124050 1012 L-1123738 1012 L-1123325 1012 L-1123297 1012 L-1123152 1012 L-1122732 1012 L-1121399 1012 L-1121352 1012 L-1121224 1012 L-1121207 1012 L-1120629 1012 L-1120423 1012 L-1120394 1012 L-1120353 1012 L-1120295 1012 L-1120258 1012 L-1120180 1012 L-1120037 1012 L-1119582 1012 L-1119464 1012 L-1119179 1012 L-1118806 1012 L-1118710 1012 L-1118383 1012 L-1118029 1012 L-1117859 1012 L-1117811 1012 L-1117702 1012 L-1117613 1012 L-1117585 1012 L-1117509 1012 L-1117206 1012 L-1117172 1012 L-1117100 1012 L-1116732 1012 L-1116397 1012 L-1116316 1012 L-1116096 1012 L-1115925 1012 L-1115897 1012 L-1115400 1012 L-1114851 1012 L-1113970 1012 L-1113872 1012 L-1113795 1012 L-1113520 1012 L-1113273 1012 L-1113199 1012 L-1113137 1012 L-1113019 1012 L-1112976 1012 L-1112866 1012 L-1112789 1012 L-1112089 1012 L-1111843 1012 L-1111803 1011 L-1111647 1011 L-1111048 1011 L-1110821 1011 L-1110729 1011 L-1110254 1011 L-1109656 1011 L-1109137 1011 L-1109116 1011 L-1108970 1011 L-1108650 1011 L-1108108 1011 L-1107876 1011 L-1107706 1011 L-1107220 1011 L-1106992 1011 L-1106907 1011 L-1106561 1011 L-1106235 1011 L-1105712 1011 L-1105384 1011 L-1104784 1011 L-1104586 1011 L-1104534 1011 L-1104494 1011 L-1104213 1011 L-1103528 1011 L-1103218 1011 L-1103193 1011 L-1103002 1011 L-1102779 1011 L-1102693 1011 L-1102029 1011 L-1102005 1011 L-1101783 1011 L-1101453 1011 L-1101101 1011 L-1100897 1011 L-1100664 1011 L-1100406 1011 L-1100216 1011 L-1100169 1011 L-1099942 1011 L-1099908 1011 L-1099751 1011 L-1099537 1011 L-1099364 1011 L-1099272 1011 L-1098995 1011 L-1098751 1011 L-1098436 1011 L-1098010 1011 L-1097973 1011 L-1097489 1011 L-1097256 1011 L-1097044 1011 L-1096818 1011 L-1096268 1011 L-1096021 1011 L-1095187 1011 L-1095131 1011 L-1095109 1011 L-1094951 1011 L-1094490 1011 L-1094449 1011 L-1094109 1011 L-1093976 1011 L-1093753 1011 L-1093181 1011 L-1092709 1011 L-1092514 1011 L-1092322 1011 L-1092132 1011 L-1092030 1011 L-1091662 1011 L-1091616 1011 L-1091534 1011 L-1090241 1011 L-1090193 1011 L-1089924 1011 L-1089779 1011 L-1089228 1011 L-1089111 1011 L-1089030 1011 L-1088670 1011 L-1088447 1011 L-1088166 1011 L-1087836 1011 L-1087328 1011 L-1087216 1011 L-1087137 1011 L-1086973 1011 L-1086678 1011 L-1086210 1011 L-1086013 1011 L-1085963 1011 L-1085313 1011 L-1085191 1011 L-1084737 1011 L-1084701 1011 L-1084233 1011 L-1084122 1011 L-1084106 1011 L-1083890 1011 L-1083709 1011 L-1083177 1011 L-1082148 1011 L-1081948 1011 L-1081490 1011 L-1080542 1011 L-1080443 1011 L-1080089 1011 L-1080028 1011 L-1080014 1011 L-1079978 1011 L-1079609 1011 L-1079489 1011 L-1079247 1011 L-1079083 1011 L-1078896 1011 L-1078775 1011 L-1077705 1011 L-1076846 1011 L-1076634 1011 L-1076537 1011 L-1076363 1011 L-1076029 1011 L-1075958 1011 L-1075900 1011 L-1075725 1011 L-1075336 1011 L-1075100 1011 L-1074989 1011 L-1074872 1011 L-1073891 1011 L-1073866 1011 L-1073272 1011 L-1073239 1011 L-1073090 1011 L-1072806 1011 L-1071894 1011 L-1070948 1011 L-1070795 1011 L-1070693 1011 L-1070561 1011 L-1070418 1011 L-1070392 1011 L-1070277 1011 L-1070059 1011 L-1069378 1011 L-1069248 1011 L-1068945 1011 L-1068705 1011 L-1068372 1011 L-1067734 1011 L-1067391 1011 L-1067329 1011 L-1067174 1011 L-1066252 1011 L-1065782 1011 L-1065738 1011 L-1065725 1011 L-1065684 1011 L-1065662 1011 L-1065635 1011 L-1065491 1011 L-1065069 1011 L-1064733 1011 L-1064542 1011 L-1064114 1011 L-1063926 1011 L-1063537 1011 L-1063003 1011 L-1062630 1011 L-1062609 1011 L-1062359 1011 L-1062240 1011 L-1062164 1011 L-1062029 1011 L-1061989 1011 L-1061909 1011 L-1061515 1011 L-1061019 1011 L-1060907 1011 L-1060734 1011 L-1060426 1011 L-1059978 1011 L-1059655 1011 L-1059513 1011 L-1059086 1011 L-1058933 1011 L-1058877 1011 L-1058064 1011 L-1058044 1011 L-1057672 1011 L-1057615 1011 L-1056486 1011 L-1056418 1011 L-1055860 1011 L-1055665 1011 L-1055529 1011 L-1055295 1011 L-1054948 1011 L-1054914 1011 L-1054879 1011 L-1054810 1011 L-1054461 1011 L-1054289 1011 L-1053804 1011 L-1053788 1011 L-1053463 1011 L-1053305 1011 L-1052165 1011 L-1052140 1011 L-1051948 1011 L-1051755 1011 L-1051504 1011 L-1051487 1011 L-1050467 1011 L-1050169 1011 L-1050094 1011 L-1049958 1011 L-1049782 1011 L-1049205 1011 L-1048990 1011 L-1048926 1011 L-1048795 1010 L-1048758 1010 L-1048235 1010 L-1048097 1012 L-1048083 1012 L-1048060 1012 L-1048040 1012 L-1047812 1010 L-1047037 1010 L-1046995 1010 L-1046627 1010 L-1046549 1010 L-1046497 1010 L-1045824 1010 L-1045081 1010 L-1044657 1010 L-1044209 1010 L-1043147 1010 L-1042836 1010 L-1042425 1010 L-1042353 1010 L-1041829 1010 L-1041734 1010 L-1041717 1010 L-1041272 1010 L-1041086 1010 L-1040306 1010 L-1039634 1010 L-1039222 1010 L-1038990 1010 L-1038849 1010 L-1038768 1010 L-1038748 1010 L-1038672 1010 L-1038543 1010 L-1038226 1010 L-1038002 1010 L-1037677 1010 L-1037615 1010 L-1037245 1010 L-1037212 1010 L-1037003 1010 L-1036336 1010 L-1036258 1010 L-1036100 1010 L-1035990 1010 L-1035663 1010 L-1035508 1010 L-1035167 1010 L-1035110 1010 L-1034772 1010 L-1034568 1010 L-1034515 1010 L-1033139 1010 L-1033009 1010 L-1032576 1010 L-1032255 1010 L-1031428 1010 L-1031304 1010 L-1030574 1010 L-1030418 1010 L-1030377 1010 L-1030323 1010 L-1030300 1010 L-1030186 1010 L-1029890 1010 L-1029600 1010 L-1029545 1010 L-1029425 1010 L-1029395 1010 L-1029295 1010 L-1028851 1010 L-1028699 1010 L-1027864 1010 L-1027322 1010 L-1026987 1010 L-1026972 1010 L-1026896 1010 L-1026780 1010 L-1026585 1010 L-1026321 1010 L-1025486 1010 L-1025390 1010 L-1024869 1010 L-1024827 1010 L-1024727 1010 L-1023899 1010 L-1023764 1010 L-1023426 1010 L-1022871 1010 L-1022492 1010 L-1022329 1010 L-1022019 1010 L-1021206 1010 L-1020900 1010 L-1020632 1010 L-1020310 1010 L-1019989 1010 L-1019714 1010 L-1018885 1010 L-1018790 1010 L-1018698 1010 L-1018593 1010 L-1018206 1010 L-1017726 1010 L-1017710 1010 L-1017591 1010 L-1017223 1010 L-1017128 1010 L-1016294 1010 L-1016217 1010 L-1015918 1010 L-1015827 1010 L-1015420 1010 L-1015310 1010 L-1014610 1010 L-1014137 1010 L-1014077 1010 L-1013858 1010 L-1013585 1010 L-1013472 1010 L-1012444 1010 L-1012058 1010 L-1012038 1010 L-1011705 1010 L-1011460 1010 L-1011027 1010 L-1010917 1010 L-1010799 1010 L-1010348 1010 L-1009757 1010 L-1009421 1010 L-1007528 1010 L-1007414 1010 L-1007202 1010 L-1005884 1010 L-1005778 1009 L-1005712 1008 L-1005675 1007 L-1005614 1007 L-1005114 1008 L-1004439 1009 L-1004417 1010 L-1004147 1010 L-1003178 1010 L-1002489 1010 L-1002327 1010 L-1001786 1010 L-1001697 1010 L-1000677 1010 L-999730 1010 L-999364 1010 L-999261 1010 L-998673 1010 L-998614 1010 L-998513 1010 L-998073 1010 L-997965 1010 L-997524 1010 L-996524 1010 L-996268 1010 L-996165 1010 L-996034 1010 L-995668 1010 L-995087 1010 L-995056 1010 L-994741 1010 L-992758 1010 L-992642 1010 L-992574 1010 L-992216 1010 L-990597 1010 L-990419 1010 L-990275 1010 L-989453 1010 L-989400 1010 L-989345 1010 L-988911 1010 L-987931 1010 L-987857 1010 L-986772 1010 L-986559 1010 L-985843 1010 L-985455 1010 L-985236 1010 L-984916 1010 L-984422 1010 L-984295 1010 L-984066 1010 L-983834 1010 L-983774 1010 L-983485 1010 L-983213 1010 L-982183 1010 L-980518 1010 L-980099 1010 L-979961 1010 L-979805 1010 L-979500 1010 L-979272 1010 L-979113 1010 L-978954 1010 L-978785 1010 L-978737 1010 L-978684 1010 L-978662 1010 L-978276 1010 L-978027 1010 L-977756 1010 L-977595 1010 L-977506 1010 L-975847 1010 L-975682 1010 L-975302 1010 L-974842 1010 L-974232 1010 L-973139 1010 L-972708 1010 L-972677 1010 L-972614 1010 L-972597 1010 L-970893 1010 L-970851 1010 L-970385 1010 L-970198 1010 L-970166 1010 L-969570 1009 L-969521 1009 L-969198 1009 L-969147 1009 L-968937 1009 L-968919 1009 L-968653 1009 L-968600 1009 L-968131 1009 L-967620 1009 L-967542 1009 L-967248 1009 L-967231 1009 L-967193 1009 L-967122 1009 L-966964 1009 L-966018 1009 L-965962 1009 L-965441 1009 L-965248 1009 L-965148 1009 L-964922 1009 L-964412 1009 L-964024 1010 L-963954 1010 L-963606 1010 L-963249 1010 L-962120 1009 L-962068 1009 L-961842 1009 L-961809 1009 L-961684 1009 L-961585 1009 L-961320 1009 L-960580 1009 L-960001 1009 L-959708 1009 L-959002 1009 L-958823 1009 L-958800 1009 L-958164 1009 L-957853 1009 L-957456 1009 L-957427 1009 L-957406 1009 L-957252 1009 L-956567 1009 L-956550 1009 L-956211 1009 L-955938 1009 L-955901 1009 L-955845 1009 L-955823 1009 L-955751 1009 L-955419 1009 L-955313 1009 L-955284 1009 L-955086 1009 L-954933 1009 L-954065 1009 L-953502 1009 L-953486 1009 L-953385 1009 L-953283 1009 L-953136 1009 L-953058 1009 L-953020 1009 L-952965 1009 L-952892 1009 L-952747 1009 L-952265 1009 L-951860 1009 L-950994 1009 L-950974 1009 L-950716 1009 L-950640 1009 L-950611 1009 L-950600 1009 L-950583 1009 L-950290 1009 L-950251 1009 L-950179 1009 L-950105 1009 L-949900 1009 L-949740 1009 L-949439 1009 L-949362 1009 L-949344 1009 L-949128 1009 L-948897 1009 L-948787 1009 L-948417 1009 L-948259 1009 L-948027 1009 L-947859 1009 L-947714 1009 L-947582 1009 L-946306 1009 L-945903 1009 L-945842 1009 L-945725 1009 L-945300 1009 L-945284 1009 L-945222 1009 L-944949 1009 L-944837 1009 L-944554 1009 L-944277 1009 L-943852 1009 L-943830 1009 L-943752 1009 L-943626 1009 L-943039 1009 L-942648 1009 L-942313 1009 L-941723 1009 L-941621 1009 L-941451 1009 L-941315 1009 L-940487 1009 L-939302 1009 L-939265 1009 L-939210 1009 L-938989 1009 L-938784 1009 L-938630 1009 L-938373 1009 L-938297 1009 L-937754 1009 L-937717 1009 L-937469 1009 L-937081 1009 L-936256 1009 L-935897 1009 L-935587 1009 L-935329 1009 L-935105 1009 L-934699 1009 L-934583 1009 L-934399 1009 L-934346 1009 L-934158 1009 L-933987 1009 L-933958 1009 L-933678 1009 L-933367 1009 L-933229 1009 L-932919 1009 L-932725 1009 L-932710 1009 L-931991 1009 L-931857 1009 L-931559 1009 L-931469 1009 L-930868 1009 L-930830 1009 L-930752 1009 L-930131 1009 L-929980 1009 L-929939 1009 L-929628 1009 L-929437 1009 L-929244 1009 L-929188 1009 L-928879 1009 L-928827 1009 L-928773 1009 L-928747 1009 L-928622 1009 L-927811 1009 L-927735 1009 L-927194 1009 L-926925 1009 L-926266 1009 L-925358 1009 L-925117 1009 L-924585 1009 L-924368 1009 L-923260 1009 L-923210 1009 L-922434 1009 L-921887 1009 L-921775 1009 L-921623 1009 L-921567 1009 L-921402 1009 L-921025 1009 L-920577 1009 L-920523 1009 L-920368 1009 L-919688 1009 L-919468 1009 L-918950 1009 L-918101 1009 L-918085 1009 L-916294 1009 L-915740 1009 L-915623 1009 L-914617 1009 L-914580 1009 L-914348 1009 L-914255 1009 L-914215 1009 L-913883 1009 L-913531 1009 L-913266 1009 L-912979 1009 L-912668 1009 L-912414 1009 L-912321 1009 L-911831 1009 L-911623 1009 L-911058 1009 L-910943 1009 L-910592 1009 L-910541 1009 L-910500 1009 L-909897 1009 L-909163 1009 L-908582 1009 L-908346 1009 L-907806 1009 L-907654 1009 L-907152 1009 L-906943 1009 L-906919 1009 L-906860 1009 L-905898 1009 L-905720 1009 L-905278 1009 L-905254 1009 L-905099 1009 L-905017 1009 L-904867 1009 L-904220 1009 L-904171 1009 L-903051 1009 L-902066 1009 L-902005 1009 L-901284 1009 L-900419 1009 L-900041 1009 L-899822 1009 L-899062 1008 L-899010 1008 L-898701 1008 L-897850 1008 L-897657 1008 L-897480 1008 L-897255 1008 L-897129 1008 L-896937 1008 L-896704 1008 L-896535 1008 L-896248 1008 L-895969 1008 L-895886 1008 L-895715 1008 L-895699 1008 L-895545 1008 L-895505 1008 L-894730 1008 L-894653 1008 L-894421 1008 L-893994 1008 L-893649 1008 L-893066 1008 L-892797 1008 L-892538 1008 L-892409 1008 L-892392 1008 L-892279 1008 L-892255 1008 L-892021 1008 L-891985 1008 L-890669 1008 L-890613 1008 L-889934 1008 L-889361 1008 L-889236 1008 L-889083 1008 L-889006 1008 L-888694 1008 L-888421 1008 L-888332 1008 L-888230 1008 L-887302 1008 L-887226 1008 L-886862 1008 L-886837 1008 L-886801 1008 L-886025 1008 L-885933 1008 L-885794 1008 L-885392 1008 L-885130 1008 L-884887 1008 L-884672 1008 L-884592 1008 L-884516 1008 L-884439 1008 L-884252 1008 L-884186 1008 L-883936 1008 L-883881 1008 L-883744 1008 L-883664 1008 L-883551 1008 L-883328 1008 L-883163 1008 L-883122 1008 L-882953 1008 L-882582 1008 L-882567 1008 L-882451 1008 L-881730 1008 L-881694 1008 L-881561 1008 L-881213 1008 L-880802 1008 L-880766 1008 L-880688 1008 L-880649 1008 L-880285 1008 L-880080 1008 L-880066 1008 L-879720 1008 L-879372 1008 L-879046 1008 L-878944 1008 L-878791 1008 L-878597 1008 L-878365 1008 L-878273 1008 L-878117 1008 L-878040 1008 L-877999 1008 L-877886 1008 L-877862 1008 L-877612 1008 L-877473 1008 L-876895 1008 L-876067 1008 L-875579 1008 L-875458 1008 L-875419 1008 L-875407 1008 L-875254 1008 L-875153 1008 L-874920 1008 L-874530 1008 L-874226 1008 L-874210 1008 L-874039 1008 L-873801 1008 L-873204 1008 L-872601 1008 L-872561 1008 L-872521 1008 L-872367 1008 L-872314 1008 L-872252 1008 L-872184 1008 L-872129 1008 L-872104 1008 L-872057 1008 L-871963 1008 L-871825 1008 L-871672 1008 L-871540 1008 L-871499 1008 L-871463 1008 L-871401 1008 L-871128 1008 L-870814 1008 L-870773 1008 L-870688 1008 L-870510 1008 L-870273 1008 L-869915 1008 L-869886 1008 L-869316 1008 L-869193 1008 L-868957 1008 L-868935 1008 L-868653 1008 L-868368 1008 L-868112 1008 L-867540 1008 L-867244 1008 L-867168 1008 L-866469 1008 L-866391 1008 L-866356 1008 L-866330 1008 L-866278 1008 L-866084 1008 L-865944 1008 L-865908 1008 L-865868 1008 L-865273 1008 L-865040 1008 L-864757 1008 L-864702 1008 L-864628 1008 L-864550 1008 L-864314 1008 L-864070 1008 L-863935 1008 L-863828 1008 L-863748 1008 L-863361 1008 L-863234 1008 L-863082 1008 L-863044 1008 L-862898 1008 L-862677 1008 L-862503 1008 L-862434 1008 L-861612 1008 L-861596 1008 L-861301 1008 L-860514 1008 L-860204 1008 L-860058 1008 L-859830 1008 L-859629 1008 L-858692 1008 L-858655 1008 L-858632 1008 L-858592 1008 L-858323 1008 L-857727 1008 L-857663 1008 L-857627 1008 L-857610 1008 L-856915 1008 L-856714 1008 L-856682 1008 L-856349 1008 L-856241 1008 L-855616 1008 L-855112 1008 L-855075 1008 L-854633 1008 L-854537 1008 L-854378 1008 L-854064 1008 L-854052 1008 L-853612 1008 L-853130 1008 L-853001 1008 L-852681 1008 L-852613 1008 L-852308 1008 L-852133 1008 L-851939 1008 L-851696 1008 L-851499 1008 L-851473 1008 L-850895 1008 L-850825 1008 L-850415 1008 L-850361 1008 L-850315 1008 L-849951 1008 L-849804 1008 L-849599 1008 L-849503 1008 L-849348 1008 L-849286 1008 L-849139 1008 L-849038 1008 L-848481 1008 L-848459 1008 L-848287 1008 L-847745 1008 L-847684 1008 L-847630 1008 L-847601 1008 L-847530 1008 L-847514 1008 L-847450 1008 L-847414 1008 L-847259 1008 L-846934 1008 L-846367 1008 L-846353 1008 L-846291 1008 L-846189 1008 L-846143 1008 L-845901 1008 L-845478 1008 L-845324 1008 L-843582 1008 L-843040 1008 L-842097 1008 L-841688 1008 L-841147 1008 L-840950 1008 L-840782 1008 L-840486 1008 L-840371 1008 L-840356 1008 L-840201 1008 L-840061 1008 L-839985 1008 L-839853 1008 L-839505 1008 L-839134 1008 L-838536 1008 L-838360 1008 L-838204 1008 L-837935 1008 L-837784 1008 L-837493 1008 L-837469 1008 L-837386 1008 L-837158 1008 L-836459 1008 L-836332 1008 L-835901 1008 L-835807 1008 L-834602 1008 L-834553 1008 L-834259 1008 L-833856 1008 L-833580 1008 L-833561 1008 L-833443 1008 L-833367 1008 L-833185 1008 L-832705 1008 L-832254 1008 L-831844 1008 L-831813 1008 L-831395 1008 L-831281 1008 L-831163 1008 L-831148 1008 L-830953 1008 L-830932 1008 L-830700 1008 L-830256 1007 L-829937 1007 L-829472 1007 L-829307 1007 L-829152 1007 L-828996 1007 L-828543 1007 L-828224 1007 L-828169 1007 L-827798 1007 L-827760 1007 L-827433 1007 L-827317 1007 L-827218 1007 L-826892 1007 L-826505 1007 L-826244 1007 L-825886 1007 L-825629 1007 L-823459 1007 L-823410 1007 L-823387 1007 L-822976 1007 L-822914 1007 L-822844 1007 L-822613 1007 L-822302 1007 L-821999 1007 L-821955 1007 L-821647 1007 L-821514 1007 L-821297 1007 L-820585 1007 L-820430 1007 L-820292 1007 L-820143 1007 L-820122 1007 L-819928 1007 L-819902 1007 L-819811 1007 L-819789 1007 L-819773 1007 L-819673 1007 L-818744 1007 L-818286 1007 L-817194 1007 L-816772 1007 L-816368 1007 L-816329 1007 L-816076 1007 L-815301 1007 L-815285 1007 L-815260 1007 L-815067 1007 L-814331 1007 L-814062 1007 L-814021 1007 L-813622 1007 L-813597 1007 L-812808 1007 L-812128 1007 L-810757 1007 L-810487 1007 L-810438 1007 L-809901 1007 L-809868 1007 L-809766 1007 L-809443 1007 L-809363 1007 L-809094 1007 L-808182 1007 L-808043 1007 L-807794 1007 L-807249 1007 L-806826 1007 L-806633 1007 L-806618 1007 L-806480 1007 L-806386 1007 L-806259 1007 L-805999 1007 L-805974 1007 L-805883 1007 L-805573 1007 L-805512 1007 L-805395 1007 L-805046 1007 L-804235 1007 L-804004 1007 L-803175 1007 L-802943 1007 L-802726 1007 L-802207 1007 L-801569 1007 L-801153 1007 L-800831 1007 L-800350 1007 L-799925 1007 L-799863 1007 L-799515 1007 L-799474 1007 L-799460 1007 L-799361 1007 L-799316 1007 L-798830 1007 L-798029 1007 L-797694 1007 L-796613 1007 L-796133 1007 L-796110 1007 L-795970 1007 L-795415 1007 L-794718 1007 L-794409 1007 L-794187 1007 L-794082 1007 L-793980 1007 L-793309 1007 L-793215 1007 L-793192 1007 L-793115 1007 L-792937 1007 L-792765 1007 L-792584 1007 L-792571 1007 L-792495 1007 L-792330 1007 L-791816 1007 L-791800 1007 L-791659 1007 L-791297 1007 L-791273 1007 L-791142 1007 L-791117 1007 L-790755 1007 L-790230 1007 L-790136 1007 L-789920 1007 L-789827 1007 L-789802 1007 L-789338 1007 L-789261 1007 L-788859 1007 L-788408 1007 L-787157 1007 L-787118 1007 L-786686 1007 L-786654 1007 L-785935 1007 L-785758 1007 L-785623 1007 L-785316 1007 L-785261 1007 L-785236 1007 L-785220 1007 L-785045 1007 L-784856 1007 L-784348 1007 L-783974 1007 L-783636 1007 L-783597 1007 L-782878 1007 L-782785 1007 L-782746 1007 L-782205 1007 L-782181 1007 L-781779 1007 L-781353 1007 L-781082 1007 L-780903 1007 L-780657 1007 L-780633 1007 L-780577 1007 L-779960 1007 L-779457 1007 L-779070 1007 L-778451 1007 L-778235 1007 L-778080 1007 L-776788 1007 L-776688 1007 L-776246 1007 L-775915 1007 L-775614 1007 L-775372 1007 L-774637 1007 L-774058 1007 L-773228 1007 L-773128 1007 L-772570 1007 L-772432 1007 L-770791 1007 L-770730 1007 L-770636 1007 L-769669 1007 L-769491 1007 L-769204 1007 L-768987 1007 L-768908 1007 L-768637 1007 L-768522 1007 L-768369 1007 L-768058 1007 L-767980 1007 L-767889 1007 L-767812 1007 L-767696 1007 L-767516 1007 L-767424 1007 L-767386 1007 L-766883 1007 L-766665 1007 L-766535 1007 L-766380 1007 L-766325 1007 L-766201 1007 L-765816 1007 L-765307 1007 L-765235 1007 L-764755 1007 L-764678 1007 L-764577 1007 L-764344 1007 L-763879 1007 L-763649 1007 L-763633 1007 L-763401 1007 L-763246 1007 L-763185 1007 L-762992 1006 L-762721 1006 L-761969 1006 L-761016 1006 L-760980 1006 L-760755 1006 L-760315 1006 L-760035 1006 L-759686 1006 L-758617 1006 L-757689 1006 L-757558 1006 L-757512 1006 L-757443 1006 L-757288 1006 L-757210 1006 L-757037 1006 L-756602 1006 L-756398 1006 L-756338 1006 L-755755 1006 L-755601 1006 L-755486 1006 L-755445 1006 L-755275 1006 L-755138 1006 L-754928 1006 L-754850 1006 L-754827 1006 L-754618 1006 L-754208 1006 L-754184 1006 L-753960 1006 L-753815 1006 L-753780 1006 L-753767 1006 L-753744 1006 L-753511 1006 L-753326 1006 L-753108 1006 L-753083 1006 L-752394 1006 L-752290 1006 L-752255 1006 L-752234 1006 L-752040 1006 L-751987 1006 L-751870 1006 L-751788 1006 L-751677 1006 L-751363 1006 L-750903 1006 L-750648 1006 L-750414 1006 L-750284 1006 L-749932 1006 L-749873 1006 L-749720 1006 L-749148 1006 L-749061 1006 L-748908 1006 L-748612 1006 L-748242 1006 L-747939 1006 L-747862 1006 L-747458 1006 L-747290 1006 L-747146 1006 L-746605 1006 L-746545 1006 L-746529 1006 L-746363 1006 L-746157 1006 L-746082 1006 L-745989 1006 L-745580 1006 L-745564 1006 L-745540 1006 L-745347 1006 L-745271 1006 L-745100 1006 L-745038 1006 L-745022 1006 L-744508 1006 L-744287 1006 L-743668 1006 L-743414 1006 L-743220 1006 L-743181 1006 L-743107 1006 L-743042 1006 L-742392 1006 L-742353 1006 L-742179 1006 L-742113 1006 L-741439 1006 L-741050 1006 L-740788 1006 L-740550 1006 L-740473 1006 L-740457 1006 L-740255 1006 L-739884 1006 L-739659 1006 L-739023 1006 L-739003 1006 L-738616 1006 L-738522 1006 L-738464 1006 L-738188 1006 L-737879 1006 L-737802 1006 L-736950 1006 L-736608 1006 L-736171 1006 L-735737 1006 L-735242 1006 L-735092 1006 L-734824 1006 L-733586 1006 L-733529 1006 L-731765 1006 L-731575 1006 L-730565 1006 L-730414 1006 L-730038 1006 L-729718 1006 L-729112 1006 L-729042 1006 L-728865 1006 L-728037 1006 L-727898 1006 L-727511 1006 L-727327 1006 L-727283 1006 L-727163 1006 L-726953 1006 L-726506 1006 L-726158 1006 L-726026 1006 L-725617 1006 L-725266 1006 L-724981 1006 L-724788 1006 L-724633 1006 L-724469 1006 L-724401 1006 L-724301 1006 L-724068 1006 L-723951 1006 L-723898 1006 L-723356 1006 L-722892 1006 L-721710 1006 L-721576 1006 L-721552 1006 L-721499 1006 L-720831 1006 L-719797 1006 L-719603 1006 L-719423 1006 L-719272 1006 L-719231 1006 L-719216 1006 L-719155 1006 L-718829 1006 L-717669 1006 L-717475 1006 L-717298 1006 L-716184 1006 L-715324 1006 L-715218 1006 L-714744 1006 L-714552 1006 L-712230 1006 L-712153 1006 L-712031 1006 L-711997 1006 L-711960 1006 L-711865 1006 L-711649 1006 L-711068 1006 L-710682 1006 L-709909 1006 L-709831 1006 L-709134 1006 L-708592 1006 L-708551 1006 L-708421 1006 L-707957 1006 L-707919 1006 L-707784 1006 L-707416 1006 L-707386 1006 L-707236 1006 L-706835 1006 L-705011 1006 L-704204 1006 L-703486 1006 L-703469 1006 L-703155 1006 L-702594 1006 L-702092 1006 L-701573 1006 L-701552 1006 L-699808 1006 L-699639 1006 L-699443 1006 L-698550 1006 L-698031 1006 L-697821 1006 L-697563 1006 L-696853 1006 L-695903 1006 L-695245 1006 L-695205 1006 L-694919 1006 L-694836 1006 L-694741 1006 L-694609 1006 L-694532 1006 L-693797 1006 L-693460 1006 L-693410 1006 L-693155 1006 L-692868 1006 L-692443 1006 L-691862 1006 L-691603 1006 L-691452 1006 L-691204 1006 L-691166 1006 L-690369 1006 L-690331 1006 L-690154 1006 L-689745 1006 L-689516 1006 L-689440 1006 L-689309 1006 L-689193 1006 L-688844 1006 L-688781 1006 L-688629 1006 L-687888 1006 L-687776 1006 L-687606 1006 L-687567 1006 L-687273 1006 L-686871 1006 L-686695 1006 L-686600 1006 L-686291 1006 L-685489 1006 L-685031 1006 L-684511 1006 L-684022 1006 L-683327 1006 L-682280 1006 L-682012 1006 L-681957 1006 L-681797 1006 L-681546 1006 L-681300 1006 L-681221 1006 L-681006 1006 L-680694 1006 L-680231 1006 L-680216 1006 L-679920 1006 L-679907 1006 L-678916 1006 L-678243 1006 L-677908 1006 L-677292 1006 L-677155 1006 L-676516 1006 L-676386 1006 L-675435 1006 L-675336 1006 L-674776 1006 L-674368 1006 L-673939 1006 L-673848 1006 L-673013 1006 L-672650 1006 L-672610 1006 L-672478 1006 L-672301 1006 L-672085 1006 L-672031 1006 L-671874 1006 L-671621 1006 L-670521 1006 L-670444 1006 L-670224 1006 L-670093 1006 L-670057 1006 L-669864 1006 L-669764 1006 L-669280 1006 L-668996 1006 L-668836 1006 L-668741 1006 L-668470 1006 L-668200 1006 L-668184 1006 L-668045 1006 L-667907 1006 L-667580 1006 L-667271 1006 L-667230 1006 L-667154 1006 L-667039 1006 L-666189 1006 L-665862 1006 L-665531 1006 L-665398 1006 L-665182 1006 L-665166 1006 L-664485 1006 L-664392 1006 L-664369 1006 L-664353 1006 L-664314 1006 L-663903 1006 L-663633 1006 L-663593 1006 L-663225 1006 L-663015 1006 L-661932 1006 L-661916 1005 L-661887 1005 L-661867 1005 L-661490 1005 L-661235 1005 L-660987 1005 L-660848 1005 L-660716 1005 L-660384 1005 L-660291 1005 L-660230 1005 L-659672 1005 L-659611 1005 L-659455 1005 L-659261 1005 L-659068 1005 L-659053 1005 L-659014 1005 L-658975 1005 L-658704 1005 L-658581 1005 L-658549 1005 L-658449 1005 L-658294 1005 L-658153 1005 L-657869 1005 L-657543 1005 L-656847 1005 L-656825 1005 L-656315 1005 L-655469 1005 L-655106 1005 L-654951 1005 L-654348 1005 L-654178 1005 L-654117 1005 L-654062 1005 L-653006 1005 L-652988 1005 L-652082 1005 L-652060 1005 L-651893 1005 L-651651 1005 L-651601 1005 L-651546 1005 L-651409 1005 L-651369 1005 L-650441 1005 L-650386 1005 L-650264 1005 L-650192 1005 L-650076 1005 L-649898 1005 L-648916 1005 L-648776 1005 L-648658 1005 L-648364 1005 L-648117 1005 L-648080 1005 L-648025 1005 L-648004 1005 L-647871 1005 L-647792 1005 L-647654 1005 L-647031 1005 L-646865 1005 L-646400 1005 L-646224 1005 L-646207 1005 L-646147 1005 L-646031 1005 L-645548 1005 L-644852 1005 L-644480 1005 L-644310 1005 L-643344 1005 L-643189 1005 L-643011 1005 L-642919 1005 L-642664 1005 L-642493 1005 L-641846 1005 L-641835 1005 L-641255 1005 L-641117 1005 L-641062 1005 L-640326 1005 L-640288 1005 L-640210 1005 L-639568 1005 L-638794 1005 L-638701 1005 L-638653 1005 L-638637 1005 L-638601 1005 L-638585 1005 L-638522 1005 L-638506 1005 L-638486 1005 L-638331 1005 L-638292 1005 L-638276 1005 L-638237 1005 L-638097 1005 L-638021 1005 L-637657 1005 L-637309 1005 L-636535 1005 L-635933 1005 L-635736 1005 L-635506 1005 L-635368 1005 L-634730 1005 L-634441 1005 L-634419 1005 L-633959 1005 L-633726 1005 L-633672 1005 L-633633 1005 L-633130 1005 L-632580 1005 L-631792 1005 L-630669 1005 L-629775 1005 L-629687 1005 L-629387 1005 L-629315 1005 L-629200 1005 L-628023 1005 L-627675 1005 L-627652 1005 L-627133 1005 L-626986 1005 L-626878 1005 L-626669 1005 L-626514 1005 L-626491 1005 L-626298 1005 L-626221 1005 L-626077 1005 L-625276 1005 L-625130 1005 L-624850 1005 L-624673 1005 L-624363 1005 L-623552 1005 L-622623 1005 L-621031 1005 L-620788 1005 L-620147 1005 L-619951 1005 L-619874 1005 L-619356 1005 L-619124 1005 L-619101 1005 L-618969 1005 L-618630 1005 L-618619 1005 L-618403 1005 L-618366 1005 L-617824 1005 L-617295 1005 L-617228 1005 L-616934 1005 L-616387 1005 L-616351 1005 L-616299 1005 L-616199 1005 L-615967 1005 L-615387 1005 L-615289 1005 L-615215 1005 L-614883 1005 L-614133 1005 L-614094 1005 L-613414 1005 L-613260 1005 L-612933 1005 L-612718 1005 L-612486 1005 L-612190 1005 L-611943 1005 L-611592 1005 L-611539 1005 L-610780 1005 L-610086 1005 L-609736 1005 L-609272 1005 L-608639 1005 L-608230 1005 L-608152 1005 L-607726 1005 L-607083 1005 L-606914 1005 L-606172 1005 L-605985 1005 L-605690 1005 L-605118 1005 L-605092 1005 L-604073 1005 L-603586 1005 L-603493 1005 L-603432 1005 L-603144 1005 L-602858 1005 L-602796 1005 L-602617 1005 L-601905 1005 L-601730 1005 L-601531 1005 L-601379 1005 L-601288 1005 L-601226 1005 L-600684 1005 L-600374 1005 L-600282 1005 L-600204 1005 L-599637 1005 L-599546 1005 L-599292 1005 L-598965 1005 L-598928 1005 L-598773 1005 L-598541 1005 L-598219 1005 L-597086 1005 L-596887 1005 L-596361 1005 L-596117 1005 L-595871 1005 L-595791 1005 L-595771 1005 L-595694 1005 L-595639 1005 L-595562 1005 L-595523 1005 L-595344 1005 L-595307 1005 L-595075 1005 L-593837 1005 L-593511 1005 L-593471 1005 L-592689 1005 L-592543 1005 L-591551 1005 L-591344 1005 L-590919 1005 L-590791 1005 L-590387 1005 L-590299 1005 L-589642 1005 L-588935 1005 L-588326 1005 L-588133 1005 L-587900 1005 L-587282 1005 L-586986 1005 L-586546 1005 L-586392 1004 L-586237 1004 L-585481 1004 L-585131 1004 L-584728 1004 L-584690 1004 L-583684 1004 L-583364 1004 L-583117 1004 L-582417 1004 L-582344 1004 L-582031 1004 L-580951 1004 L-580760 1004 L-580526 1004 L-580331 1004 L-579831 1004 L-579077 1004 L-578963 1004 L-578763 1004 L-578722 1004 L-578629 1004 L-578316 1004 L-578228 1004 L-578112 1004 L-577794 1004 L-577725 1004 L-577700 1004 L-577338 1004 L-577300 1004 L-577083 1004 L-576580 1004 L-575978 1004 L-575766 1004 L-575613 1004 L-575575 1004 L-575531 1004 L-575497 1004 L-575364 1004 L-574954 1004 L-574584 1004 L-574530 1004 L-574514 1004 L-574435 1004 L-574026 1004 L-573872 1004 L-573856 1004 L-573817 1004 L-573638 1004 L-573562 1004 L-573331 1004 L-572541 1004 L-572463 1004 L-571728 1004 L-571573 1004 L-571333 1004 L-571271 1004 L-571186 1004 L-571163 1004 L-571045 1004 L-571031 1004 L-570969 1004 L-570932 1004 L-570838 1004 L-570816 1004 L-570699 1004 L-570467 1004 L-570296 1004 L-569476 1004 L-569075 1004 L-568920 1004 L-568415 1004 L-568301 1004 L-567705 1004 L-567330 1004 L-567278 1004 L-567085 1004 L-566388 1004 L-566350 1004 L-566205 1004 L-565980 1004 L-565718 1004 L-565344 1004 L-564918 1004 L-564789 1004 L-564769 1004 L-564276 1004 L-563579 1004 L-563348 1004 L-563194 1004 L-562226 1004 L-562001 1004 L-561723 1004 L-561707 1004 L-561181 1004 L-560652 1004 L-560504 1004 L-560485 1004 L-559943 1004 L-559633 1004 L-559516 1004 L-559324 1004 L-559187 1004 L-558860 1004 L-558744 1004 L-558434 1004 L-558008 1004 L-557952 1004 L-557719 1004 L-557623 1004 L-557490 1004 L-557194 1004 L-557080 1004 L-556715 1004 L-556402 1004 L-555919 1004 L-555749 1004 L-555501 1004 L-555285 1004 L-554759 1004 L-554573 1004 L-554217 1004 L-553582 1004 L-553427 1004 L-552687 1004 L-552267 1004 L-552087 1004 L-552011 1004 L-551880 1004 L-551586 1004 L-551545 1004 L-551315 1004 L-551123 1004 L-550868 1004 L-550441 1004 L-550332 1004 L-549713 1004 L-549532 1004 L-548320 1004 L-547673 1004 L-547522 1004 L-547485 1004 L-547353 1004 L-547252 1004 L-547236 1004 L-547154 1004 L-546943 1004 L-546826 1004 L-546463 1004 L-546092 1004 L-545395 1004 L-544993 1004 L-544888 1004 L-544870 1004 L-543925 1004 L-543730 1004 L-543578 1004 L-543522 1004 L-542766 1004 L-542749 1004 L-542260 1004 L-542130 1004 L-541937 1004 L-541047 1004 L-541007 1004 L-540969 1004 L-540892 1004 L-540853 1004 L-540776 1004 L-540692 1004 L-540428 1004 L-540196 1004 L-540134 1004 L-539653 1004 L-539317 1004 L-539205 1004 L-539012 1004 L-538835 1004 L-538776 1004 L-538740 1004 L-538470 1004 L-537772 1004 L-537719 1004 L-537425 1004 L-537023 1004 L-536459 1004 L-535586 1004 L-535281 1004 L-535243 1004 L-535120 1004 L-534522 1004 L-534392 1004 L-534192 1004 L-534155 1004 L-533541 1004 L-533362 1004 L-533347 1004 L-533129 1004 L-533051 1004 L-532744 1004 L-532612 1004 L-532380 1004 L-532046 1004 L-531954 1004 L-531853 1004 L-531816 1004 L-531273 1004 L-531080 1004 L-530539 1004 L-530113 1004 L-529981 1004 L-529920 1004 L-529688 1004 L-529672 1004 L-529184 1004 L-529103 1004 L-529086 1004 L-527693 1004 L-527557 1004 L-527443 1004 L-526809 1004 L-526669 1004 L-526551 1004 L-526398 1004 L-526361 1004 L-526282 1004 L-526228 1004 L-525236 1004 L-525200 1004 L-525067 1004 L-525006 1004 L-524907 1004 L-524617 1004 L-524603 1004 L-524293 1004 L-524193 1004 L-523728 1004 L-523675 1004 L-523532 1005 L-523404 1005 L-523172 1006 L-522603 1006 L-522514 1006 L-522492 1006 L-522205 1006 L-521522 1006 L-521445 1006 L-521408 1006 L-521392 1006 L-521193 1006 L-520772 1006 L-520501 1006 L-519628 1006 L-519335 1006 L-519224 1006 L-518490 1006 L-518363 1006 L-518004 1006 L-517751 1006 L-516880 1006 L-516710 1006 L-516649 1006 L-516594 1006 L-516246 1006 L-516223 1006 L-516014 1006 L-515874 1006 L-515743 1006 L-515620 1006 L-515497 1006 L-515260 1006 L-514969 1006 L-514310 1006 L-514288 1006 L-514134 1006 L-514016 1006 L-513052 1006 L-512996 1006 L-512763 1005 L-512741 1005 L-512415 1005 L-512300 1005 L-512260 1005 L-511758 1005 L-511459 1005 L-511347 1005 L-510805 1005 L-509746 1005 L-509120 1005 L-508948 1005 L-508701 1005 L-508444 1005 L-508314 1005 L-508292 1005 L-507625 1005 L-506728 1005 L-506682 1005 L-506612 1005 L-506496 1005 L-506276 1005 L-506085 1005 L-506046 1005 L-505853 1005 L-505194 1005 L-504577 1005 L-504538 1005 L-503942 1005 L-503880 1005 L-502758 1006 L-502704 1006 L-502583 1005 L-502317 1005 L-502254 1005 L-501984 1005 L-501908 1005 L-501692 1005 L-501210 1005 L-500940 1005 L-500808 1005 L-500576 1005 L-500551 1005 L-500536 1005 L-500514 1005 L-500498 1005 L-500474 1005 L-500460 1005 L-500437 1005 L-500421 1005 L-500398 1005 L-500383 1005 L-500361 1005 L-500344 1005 L-500316 1005 L-500299 1005 L-500281 1005 L-500244 1005 L-500204 1005 L-500189 1005 L-500164 1005 L-500112 1005 L-500087 1005 L-500011 1005 L-499973 1005 L-499958 1005 L-499894 1005 L-499880 1005 L-499834 1005 L-499763 1005 L-499725 1005 L-499700 1005 L-499648 1005 L-499623 1005 L-499607 1005 L-499546 1005 L-499509 1005 L-499432 1005 L-499416 1005 L-499388 1005 L-499315 1005 L-499276 1005 L-499122 1005 L-499006 1005 L-498951 1005 L-498869 1005 L-498836 1005 L-498812 1005 L-498657 1005 L-498642 1005 L-498541 1005 L-498230 1005 L-498194 1005 L-497978 1005 L-497867 1005 L-497843 1005 L-497613 1005 L-497380 1005 L-497005 1005 L-496878 1005 L-496838 1005 L-496785 1005 L-496684 1005 L-496647 1005 L-496437 1005 L-496372 1005 L-496260 1005 L-496048 1005 L-496011 1005 L-495639 1005 L-495585 1005 L-495507 1005 L-495485 1005 L-495392 1005 L-495192 1005 L-495154 1005 L-495133 1005 L-494903 1005 L-494882 1005 L-494672 1005 L-494578 1005 L-494540 1005 L-494204 1005 L-494091 1005 L-494051 1005 L-494038 1005 L-493898 1005 L-493883 1005 L-493628 1005 L-493046 1005 L-492969 1005 L-492932 1005 L-492887 1005 L-492838 1005 L-492659 1005 L-492644 1005 L-492544 1005 L-492467 1005 L-492406 1005 L-492041 1005 L-491958 1005 L-491941 1005 L-491887 1005 L-490919 1005 L-490787 1005 L-490766 1005 L-490545 1005 L-490477 1005 L-490454 1005 L-490208 1005 L-489951 1005 L-489821 1005 L-489781 1005 L-489760 1005 L-489704 1005 L-489616 1005 L-489555 1005 L-489330 1005 L-489201 1005 L-489101 1005 L-489047 1005 L-488853 1005 L-488775 1005 L-488442 1005 L-488311 1005 L-488134 1005 L-488118 1005 L-488093 1005 L-487823 1005 L-486623 1005 L-486586 1005 L-486469 1005 L-486236 1005 L-486045 1005 L-486006 1005 L-485951 1005 L-485846 1005 L-485332 1005 L-485038 1005 L-484806 1005 L-484531 1005 L-484514 1005 L-484481 1005 L-484441 1005 L-484404 1005 L-484302 1005 L-484225 1005 L-484132 1005 L-484005 1005 L-483901 1005 L-483723 1005 L-483530 1005 L-482701 1005 L-482585 1005 L-482331 1005 L-482290 1004 L-482191 1004 L-482131 1004 L-481889 1004 L-481865 1004 L-481744 1004 L-481673 1004 L-481633 1004 L-481401 1004 L-481225 1004 L-480705 1004 L-480628 1004 L-480612 1004 L-480201 1004 L-479838 1004 L-479722 1004 L-479699 1004 L-479659 1004 L-479583 1004 L-479529 1004 L-479180 1004 L-479064 1004 L-478887 1004 L-478832 1004 L-478808 1004 L-478694 1004 L-478406 1004 L-478174 1004 L-477959 1004 L-477749 1004 L-477539 1004 L-476712 1004 L-476373 1004 L-475365 1004 L-475002 1004 L-473957 1004 L-473879 1004 L-473432 1004 L-473221 1004 L-473029 1004 L-472734 1004 L-472693 1004 L-472540 1004 L-472487 1004 L-472255 1004 L-471675 1004 L-471481 1004 L-470862 1004 L-470373 1004 L-470321 1004 L-469672 1004 L-469522 1004 L-469353 1004 L-468979 1004 L-468964 1004 L-468865 1004 L-468826 1004 L-468695 1004 L-468262 1004 L-467959 1004 L-467573 1004 L-467433 1004 L-467272 1004 L-466838 1004 L-466799 1004 L-466698 1004 L-466583 1004 L-466405 1004 L-466235 1004 L-466117 1004 L-465755 1004 L-465538 1004 L-465405 1004 L-465265 1004 L-464766 1004 L-464688 1004 L-464454 1004 L-464130 1004 L-463743 1004 L-463720 1004 L-463100 1004 L-462830 1004 L-462597 1004 L-462172 1004 L-461901 1004 L-461759 1004 L-461550 1004 L-461344 1004 L-460793 1004 L-460662 1004 L-460276 1004 L-460005 1004 L-459902 1004 L-459642 1004 L-459440 1004 L-459371 1004 L-459332 1004 L-458765 1004 L-458558 1004 L-458531 1004 L-458302 1004 L-458225 1004 L-457708 1004 L-457669 1004 L-457514 1004 L-457220 1004 L-456948 1004 L-456585 1004 L-456237 1004 L-455864 1004 L-455744 1004 L-455672 1004 L-455193 1004 L-455130 1004 L-454795 1004 L-454664 1004 L-454586 1004 L-454457 1004 L-453993 1004 L-453699 1004 L-453623 1004 L-453311 1004 L-453003 1004 L-452940 1004 L-452910 1004 L-452135 1004 L-452030 1004 L-451943 1004 L-451920 1004 L-451765 1004 L-451544 1004 L-451377 1004 L-450990 1004 L-450935 1004 L-450872 1004 L-450254 1004 L-450138 1004 L-449814 1004 L-449289 1004 L-448938 1004 L-448862 1004 L-448243 1004 L-447832 1004 L-447531 1004 L-447220 1004 L-447082 1004 L-446458 1004 L-446077 1004 L-444953 1004 L-443893 1004 L-443830 1004 L-443469 1004 L-443368 1004 L-443352 1004 L-442978 1004 L-441973 1004 L-441586 1004 L-441379 1004 L-441290 1004 L-440915 1004 L-440622 1004 L-440311 1004 L-439522 1004 L-439434 1004 L-439382 1004 L-439343 1004 L-438825 1004 L-438710 1004 L-438501 1004 L-438362 1004 L-437758 1004 L-436929 1004 L-436646 1004 L-436464 1004 L-435963 1004 L-435758 1004 L-435203 1004 L-434698 1004 L-434507 1004 L-434469 1004 L-433840 1004 L-433386 1004 L-432972 1004 L-432363 1004 L-431243 1004 L-430830 1004 L-430505 1004 L-430291 1004 L-429864 1004 L-429724 1004 L-429632 1004 L-429401 1004 L-428814 1004 L-428007 1004 L-426807 1004 L-426693 1004 L-426561 1004 L-426474 1004 L-426432 1004 L-426411 1004 L-426400 1004 L-426306 1004 L-425542 1004 L-424836 1004 L-424796 1004 L-424510 1004 L-423969 1004 L-423908 1004 L-423868 1004 L-423853 1004 L-423596 1004 L-423273 1004 L-423133 1004 L-422863 1004 L-422824 1004 L-422716 1004 L-422314 1004 L-422205 1004 L-422128 1004 L-421831 1004 L-421788 1004 L-421569 1004 L-421386 1004 L-421275 1004 L-421261 1004 L-421235 1004 L-420811 1004 L-420564 1004 L-420228 1004 L-420194 1004 L-420059 1004 L-419805 1004 L-419651 1004 L-418745 1004 L-418646 1004 L-418450 1004 L-417443 1004 L-416943 1004 L-416864 1004 L-416826 1004 L-416618 1004 L-416499 1004 L-416401 1004 L-416215 1004 L-416050 1004 L-415814 1004 L-415395 1004 L-415379 1004 L-415070 1004 L-414024 1004 L-413807 1004 L-413791 1004 L-413769 1004 L-413561 1004 L-413402 1004 L-413343 1004 L-411898 1004 L-411572 1004 L-411370 1004 L-411171 1004 L-411021 1004 L-410751 1004 L-410310 1004 L-410092 1004 L-409397 1004 L-408895 1004 L-408570 1004 L-408299 1004 L-407579 1004 L-407424 1004 L-406225 1004 L-405836 1004 L-405720 1004 L-405567 1004 L-405413 1003 L-404443 1003 L-404391 1003 L-404144 1003 L-404121 1003 L-403902 1003 L-403463 1003 L-403324 1003 L-403216 1003 L-403014 1003 L-402897 1003 L-402794 1003 L-402780 1003 L-402647 1003 L-402394 1003 L-401776 1003 L-401116 1003 L-400870 1003 L-400678 1003 L-399918 1003 L-399879 1003 L-399801 1003 L-399749 1003 L-399709 1003 L-399672 1003 L-399633 1003 L-399541 1003 L-399497 1003 L-399438 1003 L-399414 1003 L-399300 1003 L-398990 1003 L-398935 1003 L-398913 1003 L-398571 1003 L-398406 1003 L-398370 1003 L-398330 1003 L-398315 1003 L-398084 1003 L-397943 1003 L-397775 1003 L-397326 1003 L-397092 1003 L-396999 1003 L-396980 1003 L-396499 1003 L-396421 1003 L-396294 1003 L-396164 1003 L-395786 1003 L-395545 1003 L-395507 1003 L-395453 1003 L-395315 1003 L-395275 1003 L-395235 1003 L-395005 1003 L-394965 1003 L-394835 1003 L-394656 1003 L-394615 1003 L-394601 1003 L-394437 1003 L-394422 1003 L-394270 1003 L-394255 1003 L-394228 1003 L-394194 1003 L-393972 1003 L-393750 1003 L-393495 1003 L-393363 1003 L-392721 1003 L-392114 1003 L-391094 1003 L-390901 1003 L-390850 1003 L-390725 1003 L-390401 1003 L-389628 1003 L-389570 1003 L-389456 1003 L-389044 1003 L-388719 1003 L-388582 1003 L-388357 1003 L-387831 1003 L-387430 1003 L-387399 1003 L-387112 1003 L-386827 1003 L-386439 1003 L-386222 1003 L-385795 1003 L-385614 1003 L-385277 1003 L-385171 1003 L-384984 1003 L-384867 1003 L-384853 1003 L-384132 1003 L-383962 1003 L-383714 1003 L-383614 1003 L-382972 1003 L-382683 1003 L-382493 1003 L-382218 1003 L-381901 1003 L-381616 1003 L-381502 1003 L-381457 1003 L-381255 1003 L-379646 1003 L-379434 1003 L-378753 1003 L-378671 1003 L-378443 1003 L-378252 1003 L-378113 1003 L-378095 1003 L-377901 1003 L-377672 1003 L-377479 1003 L-376395 1003 L-376199 1003 L-376147 1003 L-375993 1003 L-375885 1003 L-375719 1003 L-375566 1003 L-375451 1003 L-375327 1003 L-374910 1003 L-374653 1003 L-374561 1003 L-374368 1003 L-374306 1003 L-373980 1003 L-373919 1003 L-373862 1003 L-373593 1003 L-373245 1003 L-373067 1003 L-372872 1003 L-372836 1003 L-372124 1003 L-372084 1003 L-371775 1003 L-371477 1003 L-371427 1003 L-371172 1003 L-370901 1003 L-370846 1003 L-369754 1003 L-369724 1003 L-369684 1003 L-369507 1003 L-369315 1003 L-368457 1003 L-367403 1003 L-367342 1003 L-366994 1003 L-366181 1003 L-365367 1003 L-365352 1003 L-364977 1003 L-364809 1003 L-364540 1003 L-364212 1003 L-364091 1003 L-364034 1003 L-363998 1003 L-363921 1003 L-363704 1003 L-363646 1003 L-363330 1003 L-363162 1003 L-362799 1003 L-362605 1003 L-362582 1003 L-362504 1003 L-362023 1003 L-361886 1003 L-361472 1003 L-361173 1003 L-361074 1003 L-361058 1003 L-361030 1003 L-360671 1003 L-360320 1003 L-360183 1003 L-360146 1003 L-359329 1003 L-359123 1003 L-359099 1003 L-358943 1003 L-358853 1003 L-358611 1003 L-358287 1003 L-358195 1003 L-357999 1003 L-357713 1003 L-356957 1003 L-356828 1003 L-356754 1003 L-356141 1003 L-355966 1003 L-355855 1003 L-355756 1003 L-355677 1003 L-355540 1003 L-355385 1003 L-355306 1003 L-355115 1003 L-354442 1003 L-354404 1003 L-354301 1003 L-353357 1003 L-353336 1003 L-352985 1003 L-352520 1003 L-352484 1003 L-352055 1003 L-352004 1003 L-351592 1003 L-351576 1003 L-351479 1003 L-351424 1003 L-351386 1003 L-351090 1003 L-349352 1003 L-347842 1003 L-347334 1003 L-346837 1003 L-346703 1003 L-346612 1003 L-346484 1003 L-346405 1003 L-346100 1003 L-345829 1003 L-345595 1003 L-344397 1003 L-344292 1003 L-344226 1003 L-343384 1003 L-343198 1003 L-342287 1003 L-341418 1003 L-341131 1003 L-341038 1003 L-340489 1003 L-339969 1003 L-338901 1003 L-338632 1003 L-338478 1003 L-338386 1003 L-338255 1003 L-338208 1003 L-338048 1003 L-337183 1003 L-336848 1003 L-336465 1003 L-335712 1003 L-335653 1003 L-335263 1003 L-334942 1003 L-334784 1003 L-334052 1003 L-333990 1003 L-333702 1003 L-333329 1003 L-333147 1003 L-332892 1003 L-332630 1003 L-332478 1003 L-332074 1003 L-330777 1003 L-330662 1003 L-330198 1003 L-328866 1003 L-328441 1003 L-328417 1003 L-328284 1003 L-328109 1003 L-327976 1003 L-327646 1003 L-327258 1003 L-327219 1003 L-327202 1003 L-326812 1003 L-326520 1003 L-326251 1003 L-326078 1003 L-324585 1003 L-324534 1003 L-324456 1003 L-323216 1003 L-323141 1003 L-323114 1003 L-322868 1003 L-322711 1003 L-322652 1003 L-321765 1003 L-321536 1003 L-321012 1003 L-320871 1003 L-320796 1003 L-320099 1003 L-319851 1003 L-319171 1003 L-319153 1003 L-318900 1003 L-318532 1003 L-318396 1003 L-317774 1002 L-317431 1002 L-317383 1002 L-316896 1002 L-316562 1002 L-316346 1002 L-316211 1002 L-315890 1002 L-315826 1002 L-315574 1002 L-315284 1002 L-314975 1002 L-314835 1002 L-314296 1002 L-314020 1002 L-313290 1002 L-313236 1002 L-313129 1002 L-312863 1002 L-312439 1002 L-312175 1002 L-311955 1002 L-311935 1002 L-311703 1002 L-311416 1002 L-311393 1002 L-311379 1002 L-311006 1002 L-310834 1002 L-310759 1002 L-310698 1002 L-310397 1002 L-310156 1002 L-310063 1002 L-309806 1002 L-309753 1002 L-309558 1002 L-309342 1002 L-308918 1002 L-308826 1002 L-308685 1002 L-307820 1002 L-307447 1002 L-307119 1002 L-306967 1002 L-306539 1002 L-305822 1002 L-305627 1002 L-305273 1002 L-305126 1002 L-304619 1002 L-304383 1002 L-303416 1002 L-303406 1002 L-302341 1002 L-302108 1002 L-301707 1002 L-301512 1002 L-301432 1002 L-301336 1002 L-300599 1002 L-300467 1002 L-300077 1002 L-300055 1002 L-299960 1002 L-299825 1002 L-299808 1002 L-299788 1002 L-298103 1002 L-298084 1002 L-297968 1002 L-297883 1002 L-297758 1002 L-297735 1002 L-297450 1002 L-297344 1002 L-297156 1002 L-296885 1002 L-296213 1002 L-295841 1002 L-294989 1002 L-294932 1002 L-294912 1002 L-294679 1002 L-294405 1002 L-294099 1002 L-294059 1002 L-293829 1002 L-293591 1002 L-292978 1002 L-292937 1002 L-292900 1002 L-292378 1002 L-292187 1002 L-292127 1002 L-292084 1002 L-291762 1002 L-291734 1002 L-291719 1002 L-291234 1002 L-291181 1002 L-291042 1002 L-291004 1002 L-290987 1002 L-290893 1002 L-290227 1002 L-289611 1002 L-289342 1002 L-288933 1002 L-288913 1002 L-288897 1002 L-288784 1002 L-288397 1002 L-287930 1002 L-287870 1002 L-287791 1002 L-287776 1002 L-287290 1002 L-287250 1002 L-287105 1002 L-287056 1002 L-286977 1002 L-286345 1002 L-286254 1002 L-286013 1002 L-285896 1002 L-285568 1002 L-284814 1002 L-284797 1002 L-283846 1002 L-283537 1002 L-283112 1002 L-282398 1002 L-282079 1002 L-282065 1002 L-281913 1002 L-281610 1002 L-281532 1002 L-281405 1002 L-280968 1002 L-280908 1002 L-280384 1002 L-280116 1002 L-279979 1002 L-279900 1002 L-279861 1002 L-279050 1002 L-279009 1002 L-278569 1002 L-278491 1002 L-278234 1002 L-278043 1002 L-277414 1002 L-277227 1002 L-277193 1002 L-277037 1002 L-276635 1002 L-276558 1002 L-276377 1002 L-276186 1002 L-275258 1002 L-275107 1002 L-273899 1002 L-273090 1002 L-272686 1002 L-272084 1002 L-271882 1002 L-271813 1002 L-271655 1002 L-271394 1002 L-271020 1006 L-271002 1006 L-270845 1006 L-269647 1006 L-268543 1002 L-267615 1002 L-267502 1002 L-267216 1002 L-267114 1002 L-267090 1002 L-266900 1002 L-266822 1002 L-266626 1002 L-265915 1002 L-265757 1002 L-264700 1002 L-264275 1002 L-263865 1002 L-263579 1002 L-263404 1002 L-263173 1002 L-262919 1002 L-262476 1002 L-261815 1002 L-261639 1002 L-261335 1002 L-260947 1002 L-260928 1002 L-260908 1002 L-260887 1002 L-260753 1002 L-260561 1002 L-258917 1002 L-257620 1002 L-257581 1002 L-257524 1002 L-257422 1002 L-256863 1002 L-255879 1002 L-255337 1002 L-254873 1002 L-254227 1002 L-253678 1002 L-252628 1002 L-251700 1002 L-251352 1002 L-251159 1002 L-250656 1002 L-250211 1002 L-250068 1002 L-250047 1002 L-249476 1002 L-249090 1002 L-248257 1002 L-247908 1002 L-247886 1002 L-247499 1002 L-247076 1002 L-246477 1002 L-246458 1002 L-245953 1002 L-245721 1002 L-245607 1002 L-244988 1002 L-244427 1002 L-244387 1002 L-243827 1002 L-243494 1002 L-243382 1002 L-243343 1002 L-242918 1002 L-242858 1002 L-242783 1002 L-242492 1002 L-242279 1002 L-241796 1002 L-241581 1002 L-240442 1002 L-240382 1002 L-240364 1002 L-239958 1002 L-239320 1002 L-239185 1002 L-239126 1002 L-238584 1002 L-238275 1002 L-238024 1002 L-237948 1002 L-237829 1002 L-237095 1002 L-236650 1002 L-236436 1002 L-235703 1002 L-235528 1002 L-235162 1002 L-234947 1002 L-233709 1002 L-233400 1002 L-233283 1002 L-233031 1002 L-232820 1002 L-232278 1001 L-232046 1001 L-231988 1001 L-231891 1001 L-231562 1001 L-231329 1001 L-229667 1001 L-229316 1001 L-228912 1001 L-228757 1001 L-227964 1001 L-226474 1001 L-226087 1001 L-226049 1001 L-225795 1001 L-225700 1001 L-225507 1001 L-225159 1001 L-224463 1001 L-224211 1001 L-223495 1001 L-222083 1001 L-221851 1001 L-221522 1001 L-220305 1001 L-219954 1001 L-219762 1001 L-219643 1001 L-217209 1001 L-216239 1001 L-215408 1001 L-215099 1001 L-213757 1001 L-213184 1001 L-213068 1001 L-212739 1001 L-212643 1001 L-212236 1001 L-212120 1001 L-211929 1001 L-211173 1001 L-211047 1001 L-210766 1001 L-210263 1001 L-210186 1001 L-208599 1001 L-208542 1001 L-207800 1001 L-207419 1001 L-207090 1001 L-206427 1001 L-206297 1001 L-206258 1001 L-206007 1001 L-205871 1001 L-205679 1001 L-205543 1001 L-205291 1001 L-205079 1001 L-204769 1001 L-204497 1001 L-203995 1001 L-203976 1001 L-203542 1001 L-203316 1001 L-202873 1001 L-202854 1001 L-202351 1001 L-202213 1001 L-202099 1001 L-201867 1001 L-201557 1001 L-201093 1001 L-201016 1001 L-200513 1001 L-200242 1001 L-199904 1001 L-199719 1001 L-199043 1001 L-199024 1001 L-198849 1001 L-198829 1001 L-198211 1001 L-197495 1001 L-196933 1001 L-196739 1001 L-196585 1001 L-196566 1001 L-196043 1001 L-195929 1001 L-195057 1001 L-195036 1001 L-194980 1001 L-194148 1001 L-193838 1001 L-193762 1001 L-193490 1001 L-193427 1001 L-193377 1001 L-193065 1001 L-192448 1001 L-191673 1001 L-190879 1001 L-190840 1001 L-190763 1001 L-190591 1001 L-189713 1001 L-188828 1001 L-188734 1001 L-188614 1001 L-188285 1001 L-188248 1001 L-188016 1001 L-187783 1001 L-187068 1001 L-186565 1001 L-185900 1001 L-185791 1001 L-185637 1001 L-185617 1001 L-185463 1001 L-185047 1001 L-184436 1001 L-184302 1001 L-183393 1001 L-183190 1001 L-182638 1001 L-179988 1001 L-179813 1001 L-179736 1001 L-178864 1001 L-178400 1001 L-177918 1001 L-177879 1001 L-177298 1001 L-177278 1001 L-176177 1001 L-174755 1001 L-174337 1001 L-174030 1001 L-173952 1001 L-173876 1001 L-173719 1001 L-173643 1001 L-173179 1001 L-171941 1001 L-171689 1001 L-171244 1001 L-170622 1001 L-170566 1001 L-170373 1001 L-169908 1001 L-169617 1001 L-169576 1001 L-169540 1001 L-169387 1001 L-169210 1001 L-168071 1001 L-167684 1001 L-167626 1001 L-167452 1001 L-164935 1001 L-163775 1001 L-163138 1001 L-162999 1001 L-162867 1001 L-162480 1001 L-162016 1001 L-161805 1001 L-161740 1001 L-161706 1001 L-160952 1001 L-160370 1001 L-160179 1001 L-159560 1001 L-159514 1001 L-159153 1001 L-159047 1001 L-158862 1001 L-158585 1001 L-157681 1001 L-156677 1001 L-155941 1001 L-155516 1001 L-155355 1001 L-154993 1001 L-154896 1001 L-154452 1001 L-154376 1001 L-154024 1001 L-153775 1001 L-153755 1001 L-153581 1001 L-152633 1001 L-152519 1001 L-151956 1001 L-151506 1001 L-151121 1001 L-150211 1001 L-150155 1001 L-149016 1001 L-148436 1001 L-148261 1001 L-147467 1001 L-147236 1001 L-146849 1001 L-146579 1001 L-146443 1001 L-146327 1001 L-145708 1001 L-145650 1001 L-145435 1001 L-145141 1001 L-144353 1001 L-144212 1001 L-142824 1001 L-142477 1001 L-142090 1001 L-142029 1001 L-141993 1001 L-141936 1001 L-141293 1001 L-140601 1001 L-140349 1001 L-140014 1001 L-139924 1001 L-139404 1001 L-139150 1001 L-138934 1001 L-138551 1001 L-138391 1001 L-137852 1001 L-137040 1001 L-137021 1001 L-136906 1001 L-136761 1001 L-136381 1001 L-136188 1001 L-136132 1001 L-135833 1001 L-135766 1001 L-135570 1001 L-135203 1001 L-135142 1001 L-134838 1001 L-134793 1001 L-134739 1001 L-134101 1001 L-134081 1001 L-133596 1001 L-133114 1001 L-132745 1001 L-132379 1001 L-132244 1001 L-132090 1001 L-132020 1001 L-131373 1001 L-131353 1001 L-131212 1001 L-130727 1001 L-130444 1001 L-130386 1001 L-130328 1001 L-130019 1001 L-129864 1001 L-129380 1001 L-128607 1001 L-127967 1001 L-127870 1001 L-126807 1001 L-126786 1001 L-126321 1006 L-126305 1006 L-126131 1006 L-125618 1006 L-123264 1001 L-122319 1000 L-121601 1000 L-121060 1000 L-120363 1000 L-120047 1000 L-119398 1000 L-118890 1000 L-118856 1000 L-118814 1000 L-118469 1000 L-117774 1000 L-117577 1000 L-117560 1000 L-117444 1000 L-117163 1000 L-116265 1000 L-116219 1000 L-115853 1000 L-115835 1000 L-115780 1000 L-115587 1000 L-115451 1000 L-115376 1000 L-115142 1000 L-114601 1000 L-114560 1000 L-114524 1000 L-114498 1000 L-113863 1000 L-113321 1000 L-112156 1000 L-111796 1000 L-110519 1000 L-110479 1000 L-110441 1000 L-110226 1000 L-110036 1000 L-109958 1000 L-109805 1000 L-109765 1000 L-108676 1000 L-108352 1000 L-108138 1000 L-107877 1000 L-107385 1000 L-107363 1000 L-106946 1000 L-106804 1000 L-106744 1000 L-106667 1000 L-106456 1000 L-105162 1000 L-104885 1000 L-104261 1000 L-102870 1000 L-102798 1000 L-102760 1000 L-102566 1000 L-102177 1000 L-101869 1000 L-101813 1000 L-101498 1000 L-101447 1000 L-101409 1000 L-101363 1000 L-100730 1000 L-99956 1000 L-99517 1000 L-99375 1006 L-99352 1006 L-99335 1012 L-99310 1012 L-98893 1006 L-98690 1006 L-98540 1000 L-98462 1000 L-98408 1000 L-97611 1000 L-97595 1000 L-96731 1000 L-96527 1000 L-96240 1000 L-96125 1000 L-95599 1000 L-95423 1000 L-95119 1000 L-94732 1000 L-94671 1000 L-94616 1000 L-94461 1000 L-93416 1000 L-92854 1000 L-92618 1000 L-92582 1000 L-92312 1000 L-91906 1000 L-90437 1000 L-88696 1000 L-88309 1000 L-88077 1000 L-87978 1000 L-87883 1000 L-87729 1000 L-87166 1000 L-87083 1000 L-86916 1000 L-86374 1000 L-85189 1000 L-85175 1000 L-85115 1000 L-84964 1000 L-84479 1000 L-83832 1000 L-83126 1000 L-83010 1000 L-82042 1000 L-81997 1000 L-81307 1000 L-81250 1000 L-81172 1000 L-81153 1000 L-81132 1000 L-80916 1000 L-80203 1000 L-79813 1000 L-79777 1000 L-79759 1000 L-79702 1000 L-79274 1000 L-79060 1000 L-78985 1000 L-78908 1000 L-78792 1000 L-78727 1000 L-78599 1000 L-78539 1000 L-78464 1000 L-78385 1000 L-77957 1000 L-77231 1000 L-77217 1000 L-77051 1000 L-76834 1000 L-76819 1000 L-76238 1000 L-75967 1000 L-75678 1000 L-75248 1000 L-75095 1000 L-75039 1000 L-74862 1000 L-73467 1000 L-73201 1000 L-72308 1000 L-71783 1000 L-70763 1000 L-70682 1000 L-70219 1000 L-69599 1000 L-69313 1000 L-69059 1000 L-68907 1000 L-68559 1000 L-67842 1000 L-67281 1000 L-66393 1000 L-66084 1000 L-65792 1000 L-64940 1000 L-64919 1000 L-64263 1000 L-63759 1000 L-63549 1000 L-63528 1000 L-63199 1000 L-63141 1000 L-62754 1000 L-61769 1000 L-61207 1000 L-61110 1000 L-60801 1000 L-60724 1000 L-59689 1000 L-59559 1000 L-59503 1000 L-58867 1000 L-58808 1000 L-58733 1000 L-57319 1000 L-57182 1000 L-57048 1000 L-56563 1000 L-56313 1000 L-56022 1000 L-55810 1000 L-55153 1000 L-54584 1000 L-54495 1000 L-54355 1000 L-54281 1000 L-53116 1000 L-53084 1000 L-52654 1000 L-52638 1000 L-52463 1000 L-50935 1000 L-50851 1000 L-50045 1000 L-49852 1000 L-49830 1000 L-48977 1000 L-48784 1000 L-48150 1000 L-47974 1000 L-47855 1000 L-47801 1000 L-47780 1000 L-47724 1000 L-47336 1000 L-46892 1000 L-46814 1000 L-46617 1000 L-46555 1000 L-46293 1000 L-45944 1000 L-45828 1000 L-44680 1000 L-44395 1000 L-43950 1000 L-42747 1000 L-42617 1000 L-42307 1000 L-41879 1000 L-40582 1000 L-40273 1005 L-40257 1005 L-40210 1005 L-40160 1005 L-39232 1000 L-38902 1000 L-38354 1000 L-38226 1000 L-37780 1000 L-36247 1000 L-36078 1000 L-35807 1000 L-35783 1000 L-34878 1000 L-34763 1000 L-34296 1000 L-34273 1000 L-34201 1000 L-34003 1000 L-33851 1000 L-33383 1000 L-32732 1000 L-32246 1000 L-31696 1000 L-30674 1000 L-30368 1000 L-30313 1000 L-29713 1000 L-29283 1000 L-29209 1000 L-29192 1000 L-28970 1000 L-28666 1000 L-28584 1000 L-28281 1000 L-27681 1000 L-27544 1000 L-27274 1000 L-27060 1000 L-26885 1000 L-26676 1000 L-26654 1000 L-26406 1000 L-25956 1000 L-25940 1000 L-25494 1000 L-24286 1000 L-24084 1000 L-23156 1000 L-23094 1000 L-23059 1000 L-22034 1000 L-21918 1000 L-21897 1000 L-21743 1000 L-21724 1000 L-21313 1000 L-21297 1000 L-21260 1000 L-20950 1000 L-20796 1000 L-20591 1000 L-20192 1000 L-19209 1000 L-18684 1000 L-18628 1000 L-18602 1000 L-18280 1000 L-17564 1000 L-16694 1000 L-16656 1000 L-16579 1000 L-16327 1000 L-16307 1000 L-15584 1000 L-15434 1000 L-15321 1000 L-15224 1000 L-14122 1000 L-13367 1000 L-13195 1000 L-13034 1000 L-12958 1000 L-12764 1000 L-11626 1000 L-10942 1000 L-10659 1000 L-9692 1000 L-9673 1000 L-8821 1000 L-8782 1000 L-8639 1000 L-8314 1000 L-8084 1000 L-8046 1000 L-8006 1000 L-7989 1000 L-7853 1000 L-7834 1000 L-7623 1000 L-7563 1000 L-7485 1000 L-7461 1000 L-7386 1000 L-6906 1000 L-6809 1000 L-6733 1000 L-6557 1000 L-6534 1000 L-6479 1000 L-6441 1000 L-6382 1000 L-6227 1000 L-5203 1000 L-4904 1000 L-4777 1000 L-4699 1000 L-3674 1000 L-3617 1000 L-3559 1000 L-3513 1000 L-3499 1000 L-3462 1000 L-3424 999 L-2244 999 L-2186 999 L-1489 999 L-870 999 L-727 999 L-284 999 L-19 999 L644 999 L928 999 L2398 999 L3346 999 L3452 999 L3518 999 L3548 999 L3868 999 L3889 999 L4818 999 L4993 999 L5725 999 L6266 750 L6289 500 L6316 250 L6348 0 L6365 0 L6386 0 L6424 0 L6443 0 L6466 0 L6481 0 L6500 0" />
</svg>
