<svg xmlns="http://www.w3.org/2000/svg" version="1.1" viewBox="0 0 6500 1000">
	<path fill="none" stroke="gold" stroke-width="125" stroke-linecap="round" stroke-linejoin="round" d="M0 294102  L-1307231 294102 L-1307047 294101 L-1306557 294098 L-1306263 294097 L-1305952 294094 L-1305718 294093 L-1305664 294090 L-1305605 294087 L-1305452 294086 L-1305411 294083 L-1305279 294082 L-1304986 294080 L-1304446 294080 L-1303835 294079 L-1303787 294079 L-1303147 294078 L-1303114 294078 L-1302588 294078 L-1302456 294076 L-1302066 294074 L-1301737 294071 L-1301620 294068 L-1301409 294066 L-1300692 294066 L-1300122 294064 L-1300015 294064 L-1299840 294063 L-1299619 294060 L-1299218 294059 L-1299192 294056 L-1298264 294054 L-1298176 294051 L-1298094 294048 L-1298024 294046 L-1297727 294044 L-1297575 294042 L-1295685 294043 L-1295584 294043 L-1295321 294043 L-1295028 294044 L-1294886 294042 L-1294638 294042 L-1294602 294040 L-1294444 294039 L-1293980 294036 L-1293727 294035 L-1293515 294032 L-1293263 294031 L-1292915 294030 L-1291987 294027 L-1291894 294024 L-1291483 294023 L-1290312 294020 L-1289123 294019 L-1289031 294016 L-1289003 294014 L-1288737 294011 L-1288438 294008 L-1288309 294005 L-1288272 294003 L-1287457 294003 L-1287073 294004 L-1286013 294005 L-1285952 294005 L-1285687 294032 L-1285215 294058 L-1285023 294083 L-1284759 294109 L-1284422 294107 L-1284287 294106 L-1283831 294105 L-1283088 294103 L-1283071 294102 L-1282905 294099 L-1282837 294099 L-1282321 294098 L-1281292 294098 L-1281096 294097 L-1280608 294095 L-1280246 294094 L-1279837 294094 L-1279451 294095 L-1277748 294095 L-1277650 294095 L-1277578 294095 L-1277517 294095 L-1277332 294094 L-1276996 294094 L-1276355 294093 L-1276278 294091 L-1276217 294091 L-1276030 294090 L-1275951 294090 L-1275774 294089 L-1275755 294087 L-1275525 294087 L-1275137 294086 L-1274248 294086 L-1274209 294084 L-1274121 294083 L-1274093 294080 L-1273085 294079 L-1272935 294076 L-1272911 294075 L-1272778 294074 L-1272738 294072 L-1271480 294071 L-1271422 294071 L-1270883 294070 L-1270830 294070 L-1270783 294070 L-1270388 294068 L-1270249 294067 L-1270049 294066 L-1269902 294066 L-1269737 294066 L-1269461 294067 L-1269102 294067 L-1268550 294066 L-1267905 294064 L-1267646 294062 L-1267492 294060 L-1267091 294059 L-1267051 294058 L-1266930 294056 L-1266869 294058 L-1266855 294058 L-1266761 294058 L-1266468 294056 L-1266316 294051 L-1265986 294048 L-1265908 294046 L-1265832 294044 L-1265606 294040 L-1265539 294038 L-1265311 294035 L-1265259 294032 L-1265094 294031 L-1264089 294030 L-1263905 294028 L-1263354 294027 L-1262961 294024 L-1262564 294023 L-1261714 294020 L-1261635 294019 L-1261057 294018 L-1260615 294018 L-1260374 294016 L-1260217 294016 L-1259816 294014 L-1259796 294014 L-1259351 294012 L-1258945 294011 L-1258809 294008 L-1258634 294005 L-1258498 294003 L-1258248 294000 L-1257248 293999 L-1257166 293997 L-1257030 293996 L-1256991 293995 L-1256102 293993 L-1255886 293992 L-1255443 293991 L-1255325 293989 L-1255268 293988 L-1254592 293988 L-1254492 293987 L-1254463 293987 L-1253121 293985 L-1252715 293984 L-1252676 293983 L-1251748 293981 L-1251649 293980 L-1251517 293979 L-1251112 293977 L-1251086 293976 L-1250993 293975 L-1250777 293973 L-1250366 293971 L-1249212 293968 L-1248920 293965 L-1248892 293963 L-1248284 293961 L-1248034 293959 L-1248014 293957 L-1247085 293956 L-1247033 293953 L-1246911 293952 L-1246893 293949 L-1246737 293948 L-1246562 293945 L-1246426 293944 L-1246369 293943 L-1246261 293941 L-1246176 293940 L-1245943 293939 L-1245868 293937 L-1245559 293936 L-1245441 293935 L-1245272 293933 L-1245180 293932 L-1245078 293932 L-1245055 293930 L-1244977 293930 L-1244879 293928 L-1244513 293926 L-1244408 293925 L-1243905 293924 L-1243453 293922 L-1243415 293921 L-1243391 293920 L-1243350 293918 L-1243221 293917 L-1243120 293916 L-1242679 293914 L-1242396 293913 L-1241804 293912 L-1241674 293910 L-1241399 293908 L-1241247 293906 L-1241093 293905 L-1241008 293902 L-1240930 293901 L-1240745 293900 L-1240694 293900 L-1240666 293898 L-1240587 293897 L-1240564 293896 L-1240280 293893 L-1239677 293890 L-1238681 293889 L-1238383 293888 L-1237649 293886 L-1237405 293885 L-1237315 293884 L-1236738 293882 L-1236039 293881 L-1235287 293880 L-1234968 293878 L-1234586 293876 L-1234508 293874 L-1233874 293873 L-1233689 293872 L-1233601 293872 L-1233471 293872 L-1233158 293870 L-1233109 293869 L-1232967 293868 L-1232945 293866 L-1231978 293865 L-1231432 293864 L-1230954 293864 L-1230893 293864 L-1230569 293864 L-1230548 293862 L-1230485 293862 L-1230275 293861 L-1230198 293860 L-1230144 293858 L-1230121 293857 L-1230082 293856 L-1230066 293854 L-1229309 293853 L-1229293 293851 L-1228493 293850 L-1228341 293849 L-1227435 293847 L-1226929 293846 L-1226700 293843 L-1226659 293843 L-1226543 293842 L-1226367 293841 L-1225613 293842 L-1225478 293841 L-1225314 293839 L-1224996 293838 L-1224820 293835 L-1223798 293833 L-1223774 293830 L-1223523 293829 L-1223310 293826 L-1222676 293825 L-1222438 293822 L-1222406 293819 L-1222228 293817 L-1222147 293814 L-1222057 293813 L-1221993 293810 L-1221553 293807 L-1221529 293806 L-1220988 293805 L-1220733 293803 L-1220238 293802 L-1219361 293801 L-1219324 293799 L-1219271 293798 L-1219230 293797 L-1219113 293795 L-1218836 293794 L-1218629 293791 L-1218432 293789 L-1218409 293786 L-1218359 293783 L-1218319 293782 L-1218241 293781 L-1217644 293778 L-1217584 293777 L-1217480 293775 L-1217326 293774 L-1216694 293772 L-1216013 293771 L-1215711 293768 L-1215364 293767 L-1215166 293766 L-1215118 293763 L-1214798 293762 L-1214170 293760 L-1214023 293759 L-1213987 293758 L-1213929 293756 L-1213852 293754 L-1213611 293754 L-1213523 293752 L-1213429 293751 L-1213135 293750 L-1213001 293748 L-1212941 293747 L-1212904 293744 L-1212632 293744 L-1211626 293743 L-1211450 293742 L-1211399 293742 L-1211107 293740 L-1210914 293738 L-1210581 293736 L-1210074 293735 L-1209512 293732 L-1209498 293730 L-1209481 293728 L-1209381 293726 L-1209266 293723 L-1209227 293720 L-1209189 293719 L-1209124 293719 L-1209095 293718 L-1208956 293719 L-1208664 293719 L-1208614 293719 L-1208508 293719 L-1208244 293718 L-1207779 293716 L-1207635 293716 L-1207580 293714 L-1207523 293712 L-1207332 293711 L-1206967 293710 L-1206752 293710 L-1206558 293710 L-1206500 293710 L-1206441 293707 L-1206287 293706 L-1206017 293704 L-1205587 293711 L-1205572 293711 L-1205495 293710 L-1205430 293708 L-1205301 293699 L-1205277 293698 L-1204993 293696 L-1204946 293695 L-1204891 293693 L-1204429 293692 L-1204390 293692 L-1204349 293691 L-1204159 293689 L-1203679 293688 L-1203192 293687 L-1203175 293685 L-1203137 293684 L-1202880 293683 L-1202803 293680 L-1202573 293679 L-1202557 293676 L-1202263 293673 L-1201820 293672 L-1201374 293671 L-1200869 293669 L-1200715 293668 L-1200429 293667 L-1200389 293664 L-1200057 293663 L-1199836 293661 L-1199319 293659 L-1199243 293657 L-1198995 293655 L-1198801 293652 L-1198741 293651 L-1197964 293649 L-1197890 293649 L-1197660 293648 L-1197643 293648 L-1197581 293647 L-1197385 293645 L-1196921 293645 L-1196898 293644 L-1196768 293644 L-1195467 293644 L-1195451 293644 L-1195374 293643 L-1195280 293643 L-1195063 293643 L-1194911 293641 L-1194732 293643 L-1194678 293644 L-1194392 293645 L-1194352 293645 L-1193982 293645 L-1193542 293645 L-1193359 293645 L-1193038 293644 L-1192743 293644 L-1192297 293641 L-1192225 293640 L-1191763 293637 L-1191325 293636 L-1191143 293635 L-1189689 293632 L-1189557 293631 L-1189100 293628 L-1188873 293627 L-1188487 293624 L-1187971 293621 L-1187016 293618 L-1186222 293616 L-1185548 293614 L-1185122 293612 L-1184811 293610 L-1184581 293606 L-1183898 293602 L-1183885 293598 L-1183675 293593 L-1183653 293592 L-1183479 293589 L-1182529 293588 L-1182260 293585 L-1181445 293584 L-1181135 293581 L-1181097 293580 L-1181040 293577 L-1180423 293576 L-1179785 293573 L-1178159 293572 L-1177485 293570 L-1176843 293570 L-1176765 293570 L-1176709 293570 L-1176673 293570 L-1176645 293569 L-1176533 293566 L-1176515 293565 L-1176493 293564 L-1176339 293562 L-1176286 293560 L-1176208 293558 L-1176088 293557 L-1175991 293556 L-1175873 293554 L-1175604 293552 L-1175334 293550 L-1175317 293548 L-1175117 293546 L-1174970 293544 L-1174743 293542 L-1174609 293541 L-1174300 293539 L-1174240 293538 L-1173887 293535 L-1173539 293534 L-1173438 293533 L-1173373 293530 L-1173313 293529 L-1172929 293526 L-1172548 293525 L-1172444 293523 L-1172184 293522 L-1171912 293519 L-1171753 293518 L-1171721 293517 L-1171659 293515 L-1171518 293514 L-1171334 293513 L-1171289 293511 L-1171001 293511 L-1170985 293510 L-1170752 293510 L-1170691 293509 L-1170653 293509 L-1170073 293507 L-1169939 293506 L-1169916 293501 L-1169897 293491 L-1169880 293481 L-1169864 293470 L-1169840 293459 L-1169823 293451 L-1169802 293442 L-1169785 293432 L-1169762 293427 L-1169745 293422 L-1169724 293418 L-1169707 293415 L-1169658 293411 L-1169586 293407 L-1169551 293400 L-1169528 293395 L-1169492 293390 L-1169451 293384 L-1169414 293381 L-1169398 293376 L-1169373 293372 L-1169336 293369 L-1169319 293365 L-1169296 293363 L-1169279 293360 L-1169260 293357 L-1169244 293355 L-1169215 293351 L-1169189 293347 L-1169144 293345 L-1169127 293343 L-1169085 293341 L-1169037 293339 L-1168966 293336 L-1168951 293333 L-1168935 293331 L-1168873 293329 L-1168834 293328 L-1168794 293327 L-1168628 293325 L-1168563 293324 L-1168547 293323 L-1168503 293320 L-1168445 293319 L-1168232 293317 L-1168199 293316 L-1168156 293315 L-1168078 293313 L-1167541 293312 L-1167463 293311 L-1167358 293308 L-1167270 293306 L-1167094 293305 L-1166743 293304 L-1166587 293302 L-1166149 293301 L-1165993 293300 L-1165863 293298 L-1165159 293296 L-1164958 293294 L-1163997 293292 L-1163515 293290 L-1163416 293290 L-1163323 293289 L-1163078 293288 L-1163005 293286 L-1162562 293284 L-1162466 293282 L-1162451 293281 L-1162435 293280 L-1162410 293278 L-1161944 293277 L-1161728 293276 L-1161588 293274 L-1161294 293273 L-1161206 293272 L-1161164 293270 L-1161134 293269 L-1160962 293268 L-1160903 293266 L-1160827 293265 L-1160746 293264 L-1160676 293264 L-1160367 293262 L-1160282 293261 L-1160068 293260 L-1160033 293258 L-1159350 293257 L-1159251 293256 L-1159046 293254 L-1158999 293253 L-1158721 293252 L-1158659 293250 L-1158642 293248 L-1158564 293246 L-1158256 293244 L-1158231 293242 L-1158177 293240 L-1158154 293238 L-1158032 293237 L-1157896 293234 L-1157652 293233 L-1157526 293233 L-1156880 293232 L-1156864 293232 L-1156839 293232 L-1156659 293229 L-1156583 293227 L-1156491 293226 L-1156063 293225 L-1155647 293223 L-1155254 293221 L-1155175 293219 L-1155156 293218 L-1154793 293217 L-1154557 293215 L-1154329 293214 L-1154015 293213 L-1153938 293211 L-1153857 293209 L-1153679 293206 L-1153663 293205 L-1153398 293202 L-1153318 293201 L-1153087 293199 L-1152861 293198 L-1152546 293198 L-1152370 293197 L-1152009 293197 L-1151618 293195 L-1151548 293193 L-1151484 293191 L-1151344 293189 L-1151292 293187 L-1151191 293185 L-1150689 293183 L-1150492 293182 L-1150245 293181 L-1150059 293179 L-1149760 293178 L-1149684 293177 L-1149518 293174 L-1148633 293173 L-1148605 293170 L-1148482 293167 L-1147903 293166 L-1147825 293165 L-1147112 293165 L-1146800 293165 L-1146587 293165 L-1146570 293165 L-1146184 293165 L-1145658 293162 L-1145212 293161 L-1144883 293159 L-1144730 293158 L-1144404 293158 L-1144226 293157 L-1144144 293157 L-1143938 293154 L-1143762 293153 L-1142833 293151 L-1141944 293150 L-1141905 293148 L-1141677 293148 L-1141298 293147 L-1140510 293146 L-1140276 293144 L-1140200 293143 L-1139843 293142 L-1139271 293139 L-1139004 293138 L-1138617 293136 L-1138514 293136 L-1138344 293136 L-1137725 293136 L-1137514 293136 L-1137206 293136 L-1137153 293135 L-1137026 293134 L-1136972 293132 L-1136853 293131 L-1136517 293128 L-1135558 293127 L-1135426 293124 L-1135225 293123 L-1134594 293122 L-1134282 293120 L-1133868 293119 L-1133841 293118 L-1133695 293116 L-1133275 293115 L-1131943 293115 L-1131896 293114 L-1131767 293111 L-1131751 293110 L-1131172 293107 L-1130967 293106 L-1130937 293104 L-1130896 293103 L-1130839 293102 L-1130801 293100 L-1130723 293099 L-1130580 293098 L-1130126 293096 L-1130008 293095 L-1129722 293094 L-1129350 293092 L-1129253 293091 L-1128927 293090 L-1128572 293088 L-1128402 293087 L-1128355 293086 L-1128246 293084 L-1128157 293083 L-1128129 293082 L-1128053 293079 L-1127749 293078 L-1127715 293075 L-1127644 293073 L-1127276 293072 L-1126940 293071 L-1126859 293071 L-1126640 293069 L-1126468 293068 L-1126441 293067 L-1125944 293065 L-1125394 293063 L-1124514 293061 L-1124415 293059 L-1124339 293057 L-1124064 293056 L-1123817 293053 L-1123743 293052 L-1123681 293049 L-1123562 293048 L-1123520 293047 L-1123410 293045 L-1123333 293043 L-1122632 293041 L-1122387 293040 L-1122347 293039 L-1122191 293037 L-1121592 293037 L-1121365 293037 L-1121273 293037 L-1120797 293037 L-1120200 293035 L-1119680 293033 L-1119659 293032 L-1119514 293031 L-1119194 293031 L-1118652 293031 L-1118420 293031 L-1118250 293031 L-1117763 293029 L-1117536 293028 L-1117451 293027 L-1117104 293025 L-1116778 293025 L-1116255 293024 L-1115928 293023 L-1115328 293021 L-1115130 293019 L-1115078 293017 L-1115037 293016 L-1114756 293015 L-1114072 293012 L-1113762 293011 L-1113737 293008 L-1113546 293007 L-1113323 293005 L-1113237 293004 L-1112573 293001 L-1112549 293000 L-1112327 292997 L-1111997 292996 L-1111645 292993 L-1111440 292992 L-1111208 292989 L-1110950 292988 L-1110760 292985 L-1110713 292984 L-1110486 292982 L-1110451 292981 L-1110295 292980 L-1110080 292978 L-1109907 292977 L-1109816 292976 L-1109539 292974 L-1109295 292973 L-1108980 292972 L-1108553 292972 L-1108516 292972 L-1108033 292972 L-1107799 292972 L-1107588 292970 L-1107361 292969 L-1106812 292969 L-1106564 292968 L-1105730 292968 L-1105675 292966 L-1105653 292965 L-1105495 292964 L-1105033 292962 L-1104993 292961 L-1104653 292958 L-1104520 292957 L-1104297 292956 L-1103725 292954 L-1103253 292953 L-1103058 292952 L-1102866 292950 L-1102676 292949 L-1102574 292948 L-1102206 292946 L-1102159 292945 L-1102078 292944 L-1100784 292942 L-1100736 292941 L-1100468 292941 L-1100323 292941 L-1099772 292941 L-1099655 292940 L-1099573 292938 L-1099214 292937 L-1098991 292936 L-1098709 292934 L-1098380 292932 L-1097872 292930 L-1097760 292929 L-1097681 292928 L-1097516 292926 L-1097222 292926 L-1096753 292926 L-1096557 292928 L-1096506 292928 L-1095856 292926 L-1095735 292925 L-1095281 292925 L-1095245 292924 L-1094776 292922 L-1094666 292921 L-1094649 292920 L-1094433 292920 L-1094252 292918 L-1093721 292918 L-1092691 292918 L-1092492 292917 L-1092033 292915 L-1091085 292913 L-1090986 292911 L-1090633 292909 L-1090572 292907 L-1090557 292906 L-1090522 292905 L-1090153 292903 L-1090033 292902 L-1089791 292901 L-1089627 292899 L-1089440 292898 L-1089319 292897 L-1088248 292894 L-1087390 292893 L-1087178 292890 L-1087080 292889 L-1086906 292886 L-1086573 292885 L-1086501 292883 L-1086444 292882 L-1086268 292882 L-1085879 292881 L-1085644 292879 L-1085533 292878 L-1085416 292877 L-1084435 292875 L-1084409 292874 L-1083815 292871 L-1083783 292871 L-1083634 292870 L-1083350 292869 L-1082438 292869 L-1081492 292869 L-1081339 292867 L-1081236 292867 L-1081105 292866 L-1080961 292865 L-1080935 292863 L-1080821 292862 L-1080602 292861 L-1079921 292859 L-1079792 292858 L-1079488 292857 L-1079249 292854 L-1078916 292853 L-1078277 292851 L-1077935 292849 L-1077873 292847 L-1077717 292847 L-1076796 292847 L-1076325 292847 L-1076282 292847 L-1076269 292846 L-1076228 292845 L-1076206 292843 L-1076179 292842 L-1076035 292840 L-1075612 292839 L-1075277 292839 L-1075086 292838 L-1074657 292838 L-1074469 292836 L-1074080 292834 L-1073546 292832 L-1073174 292831 L-1073152 292831 L-1072902 292830 L-1072784 292828 L-1072708 292827 L-1072572 292826 L-1072533 292824 L-1072453 292823 L-1072059 292822 L-1071563 292820 L-1071451 292818 L-1071278 292816 L-1070970 292815 L-1070522 292814 L-1070199 292812 L-1070057 292810 L-1069629 292807 L-1069476 292804 L-1069421 292802 L-1068607 292800 L-1068587 292799 L-1068216 292798 L-1068159 292798 L-1067030 292796 L-1066962 292796 L-1066403 292795 L-1066209 292794 L-1066072 292792 L-1065839 292791 L-1065492 292790 L-1065457 292787 L-1065422 292786 L-1065354 292783 L-1065005 292782 L-1064833 292780 L-1064348 292779 L-1064332 292778 L-1064006 292776 L-1063849 292775 L-1062708 292772 L-1062684 292771 L-1062492 292768 L-1062298 292767 L-1062048 292766 L-1062031 292764 L-1061011 292763 L-1060713 292761 L-1060637 292760 L-1060501 292757 L-1060326 292756 L-1059749 292753 L-1059533 292752 L-1059469 292751 L-1059339 292749 L-1059302 292747 L-1058779 292745 L-1058641 293273 L-1058626 293273 L-1058604 293273 L-1058583 293273 L-1058356 292744 L-1057580 292744 L-1057539 292744 L-1057171 292744 L-1057093 292743 L-1057040 292741 L-1056367 292740 L-1055625 292739 L-1055200 292739 L-1054752 292737 L-1053691 292736 L-1053379 292733 L-1052969 292733 L-1052897 292732 L-1052373 292732 L-1052278 292732 L-1052260 292732 L-1051816 292731 L-1051630 292728 L-1050850 292725 L-1050177 292724 L-1049765 292720 L-1049533 292717 L-1049393 292716 L-1049311 292713 L-1049291 292712 L-1049215 292712 L-1049087 292711 L-1048770 292712 L-1048546 292712 L-1048221 292711 L-1048158 292711 L-1047788 292711 L-1047755 292711 L-1047547 292711 L-1046879 292711 L-1046802 292711 L-1046644 292708 L-1046533 292708 L-1046207 292707 L-1046052 292705 L-1045711 292705 L-1045654 292703 L-1045316 292700 L-1045112 292699 L-1045059 292696 L-1043683 292695 L-1043553 292693 L-1043120 292692 L-1042799 292691 L-1041971 292688 L-1041848 292687 L-1041117 292684 L-1040961 292681 L-1040921 292680 L-1040867 292678 L-1040844 292677 L-1040730 292676 L-1040433 292674 L-1040144 292673 L-1040089 292672 L-1039969 292670 L-1039938 292669 L-1039839 292668 L-1039395 292668 L-1039243 292666 L-1038408 292666 L-1037866 292665 L-1037531 292665 L-1037515 292664 L-1037440 292662 L-1037324 292661 L-1037129 292660 L-1036865 292658 L-1036030 292657 L-1035934 292656 L-1035412 292654 L-1035371 292653 L-1035271 292652 L-1034443 292652 L-1034308 292650 L-1033969 292650 L-1033415 292649 L-1033035 292648 L-1032872 292646 L-1032563 292645 L-1031750 292644 L-1031444 292642 L-1031175 292642 L-1030854 292642 L-1030533 292644 L-1030258 292644 L-1029429 292641 L-1029334 292640 L-1029241 292636 L-1029137 292632 L-1028750 292628 L-1028270 292625 L-1028253 292624 L-1028135 292622 L-1027767 292620 L-1027672 292618 L-1026838 292616 L-1026761 292614 L-1026462 292613 L-1026371 292612 L-1025964 292609 L-1025853 292606 L-1025154 292605 L-1024681 292603 L-1024621 292602 L-1024402 292599 L-1024128 292598 L-1024015 292597 L-1022988 292595 L-1022602 292594 L-1022581 292593 L-1022249 292591 L-1022004 292590 L-1021571 292589 L-1021461 292587 L-1021343 292586 L-1020891 292583 L-1020301 292582 L-1019964 292581 L-1018071 292579 L-1017958 292577 L-1017746 292575 L-1016428 292574 L-1016321 292273 L-1016255 291975 L-1016219 291701 L-1016157 291701 L-1015658 292000 L-1014983 292294 L-1014961 292566 L-1014690 292563 L-1013722 292563 L-1013033 292562 L-1012871 292561 L-1012330 292559 L-1012240 292558 L-1011221 292557 L-1010273 292554 L-1009908 292555 L-1009805 292557 L-1009217 292557 L-1009157 292557 L-1009057 292555 L-1008617 292553 L-1008509 292551 L-1008067 292550 L-1007068 292546 L-1006811 292542 L-1006708 292538 L-1006578 292535 L-1006212 292533 L-1005631 292530 L-1005600 292528 L-1005284 292527 L-1003301 292526 L-1003185 292524 L-1003118 292524 L-1002759 292523 L-1001141 292522 L-1000963 292522 L-1000819 292522 L-999996 292523 L-999943 292524 L-999889 292524 L-999455 292524 L-998474 292526 L-998401 292526 L-997316 292524 L-997103 292524 L-996387 292522 L-995998 292520 L-995779 292518 L-995460 292515 L-994966 292512 L-994838 292511 L-994610 292508 L-994377 292506 L-994318 292504 L-994028 292503 L-993756 292500 L-992726 292499 L-991061 292498 L-990642 292496 L-990505 292495 L-990349 292495 L-990044 292494 L-989815 292491 L-989657 292490 L-989498 292487 L-989328 292484 L-989281 292483 L-989228 292482 L-989206 292482 L-988820 292480 L-988570 292480 L-988300 292480 L-988139 292480 L-988049 292480 L-986391 292480 L-986225 292482 L-985846 292480 L-985386 292480 L-984776 292478 L-983683 292476 L-983252 292475 L-983220 292474 L-983158 292472 L-983140 292471 L-981437 292470 L-981395 292468 L-980928 292467 L-980742 292466 L-980709 292463 L-980114 292462 L-980064 292460 L-979742 292459 L-979691 292458 L-979480 292456 L-979462 292455 L-979196 292452 L-979143 292451 L-978674 292449 L-978164 292447 L-978086 292447 L-977791 292445 L-977775 292444 L-977736 292443 L-977665 292441 L-977508 292440 L-976562 292440 L-976505 292440 L-975984 292440 L-975792 292439 L-975691 292439 L-975465 292437 L-974955 292437 L-974567 292474 L-974498 292474 L-974149 292472 L-973792 292471 L-972664 292432 L-972612 292429 L-972386 292428 L-972352 292427 L-972227 292424 L-972129 292424 L-971864 292424 L-971124 292425 L-970545 292425 L-970252 292425 L-969546 292425 L-969367 292424 L-969344 292424 L-968708 292423 L-968397 292421 L-968000 292421 L-967971 292420 L-967950 292419 L-967796 292417 L-967111 292417 L-967094 292417 L-966754 292417 L-966482 292416 L-966444 292415 L-966388 292412 L-966366 292411 L-966294 292409 L-965962 292408 L-965856 292407 L-965828 292404 L-965629 292403 L-965477 292401 L-964609 292400 L-964046 292397 L-964030 292397 L-963929 292396 L-963827 292397 L-963680 292397 L-963602 292397 L-963564 292396 L-963509 292395 L-963435 292393 L-963290 292392 L-962808 292392 L-962404 292391 L-961538 292392 L-961518 292392 L-961260 292392 L-961183 292392 L-961154 292391 L-961144 292388 L-961127 292387 L-960834 292385 L-960794 292384 L-960722 292383 L-960649 292381 L-960444 292380 L-960284 292376 L-959982 292372 L-959905 292366 L-959888 292362 L-959672 292360 L-959440 292360 L-959330 292361 L-958961 292362 L-958803 292362 L-958571 292362 L-958403 292362 L-958257 292361 L-958125 292360 L-956850 292357 L-956446 292354 L-956385 292353 L-956269 292350 L-955843 292349 L-955828 292346 L-955766 292345 L-955493 292342 L-955380 292341 L-955098 292338 L-954821 292337 L-954396 292334 L-954373 292333 L-954295 292332 L-954170 292330 L-953583 292329 L-953192 292328 L-952856 292326 L-952267 292325 L-952165 292325 L-951994 292324 L-951858 292324 L-951030 292322 L-949845 292321 L-949809 292320 L-949754 292320 L-949533 292318 L-949328 292318 L-949173 292318 L-948917 292317 L-948840 292316 L-948298 292314 L-948261 292313 L-948012 292312 L-947625 292310 L-946799 292309 L-946441 292308 L-946131 292308 L-945873 292306 L-945649 292305 L-945243 292304 L-945126 292302 L-944943 292301 L-944890 292301 L-944701 292300 L-944530 292298 L-944502 292297 L-944221 292296 L-943911 292294 L-943773 292293 L-943463 292291 L-943269 292291 L-943254 292290 L-942534 292290 L-942401 292287 L-942103 292286 L-942013 292285 L-941412 292285 L-941374 292283 L-941295 292282 L-940675 292281 L-940523 292278 L-940483 292277 L-940172 292275 L-939980 292274 L-939787 292271 L-939732 292269 L-939423 292267 L-939371 292266 L-939316 292267 L-939290 292267 L-939166 292267 L-938355 292266 L-938279 292265 L-937738 292263 L-937469 292262 L-936810 292261 L-935902 292259 L-935661 292258 L-935128 292257 L-934911 292255 L-933804 292257 L-933754 292257 L-932978 292257 L-932430 292255 L-932319 292254 L-932166 292251 L-932111 292250 L-931946 292249 L-931568 292247 L-931121 292246 L-931066 292245 L-930912 292243 L-930232 292242 L-930012 292241 L-929494 292239 L-928645 292237 L-928629 292235 L-926838 292234 L-926283 292233 L-926166 292231 L-925160 292230 L-925124 292229 L-924891 292229 L-924799 292229 L-924759 292229 L-924427 292227 L-924075 292226 L-923810 292223 L-923523 292222 L-923212 292219 L-922958 292216 L-922864 292215 L-922374 292214 L-922167 292212 L-921601 292211 L-921487 292212 L-921136 292211 L-921084 292211 L-921044 292211 L-920441 292208 L-919707 292206 L-919126 292203 L-918890 292200 L-918350 292196 L-918197 292194 L-917695 292192 L-917486 292190 L-917463 292190 L-917404 292188 L-916441 292188 L-916264 292187 L-915822 292186 L-915798 292183 L-915643 292182 L-915561 292182 L-915411 292183 L-914764 292183 L-914714 292182 L-913594 292180 L-912610 292179 L-912549 292178 L-911828 292176 L-910963 292175 L-910584 292174 L-910365 292174 L-909606 292172 L-909554 292171 L-909245 292168 L-908393 292168 L-908200 292167 L-908023 292166 L-907799 292166 L-907672 292164 L-907480 292164 L-907248 292163 L-907078 292164 L-906792 292163 L-906512 292163 L-906429 292162 L-906259 292160 L-906242 292158 L-906088 292156 L-906049 292155 L-905274 292154 L-905197 292154 L-904965 292151 L-904538 292150 L-904193 292148 L-903609 292147 L-903341 292147 L-903082 292147 L-902952 292144 L-902936 292143 L-902822 292142 L-902798 292140 L-902564 292139 L-902528 292137 L-901212 292137 L-901156 292136 L-900477 292133 L-899905 292133 L-899779 292133 L-899626 292133 L-899549 292133 L-899237 292131 L-898964 292129 L-898875 292127 L-898774 292127 L-897846 292125 L-897770 292125 L-897406 292125 L-897381 292124 L-897345 292123 L-896569 292120 L-896477 292119 L-896337 292117 L-895935 292116 L-895674 292116 L-895430 292117 L-895216 292116 L-895136 292116 L-895059 292116 L-894983 292116 L-894796 292117 L-894730 292117 L-894480 292117 L-894425 292116 L-894287 292115 L-894208 292112 L-894094 292111 L-893871 292109 L-893707 292108 L-893666 292107 L-893497 292105 L-893126 292104 L-893111 292103 L-892995 292101 L-892274 292100 L-892238 292099 L-892105 292099 L-891757 292097 L-891346 292097 L-891309 292097 L-891231 292096 L-891193 292095 L-890828 292093 L-890624 292092 L-890609 292091 L-890264 292089 L-889915 292089 L-889589 292089 L-889488 292088 L-889335 292088 L-889140 292087 L-888909 292087 L-888816 292087 L-888661 292087 L-888584 292087 L-888543 292085 L-888429 292084 L-888406 292083 L-888155 292083 L-888017 292080 L-887439 292076 L-886611 292073 L-886123 292071 L-886001 292069 L-885963 292068 L-885950 292067 L-885798 292064 L-885697 292061 L-885464 292060 L-885074 292057 L-884769 292056 L-884754 292054 L-884583 292053 L-884344 292050 L-883748 292050 L-883144 292049 L-883105 292049 L-883064 292049 L-882911 292048 L-882858 292046 L-882795 292045 L-882727 292044 L-882673 292041 L-882647 292040 L-882601 292038 L-882506 292036 L-882369 292034 L-882216 292033 L-882084 292032 L-882043 292032 L-882007 292030 L-881945 292029 L-881672 292026 L-881357 292025 L-881316 292022 L-881231 292021 L-881054 292020 L-880817 292018 L-880459 292017 L-880429 292016 L-879860 292014 L-879737 292013 L-879501 292012 L-879478 292012 L-879197 292010 L-878911 292010 L-878656 292010 L-878084 292009 L-877787 292008 L-877711 292006 L-877012 292005 L-876935 292004 L-876900 292002 L-876873 292001 L-876822 291998 L-876628 291997 L-876488 291994 L-876452 291993 L-876411 291992 L-875816 291990 L-875584 291989 L-875300 291998 L-875246 292006 L-875172 292016 L-875094 292024 L-874858 292021 L-874614 292020 L-874478 292018 L-874372 292017 L-874292 292016 L-873905 292013 L-873778 292012 L-873625 292010 L-873588 292009 L-873442 292008 L-873220 292006 L-873046 292005 L-872977 292004 L-872156 292001 L-872140 292001 L-871845 292000 L-871057 291998 L-870747 291998 L-870601 291997 L-870373 291996 L-870172 291993 L-869235 291992 L-869199 291990 L-869176 291989 L-869135 291986 L-868867 291985 L-868270 291983 L-868206 291982 L-868171 291981 L-868154 291979 L-867459 291979 L-867258 291979 L-867226 291979 L-866892 291979 L-866785 291978 L-866160 291975 L-865656 291974 L-865618 291971 L-865176 291971 L-865080 291970 L-864921 291970 L-864608 291970 L-864596 291970 L-864156 291971 L-863674 291973 L-863545 291973 L-863224 291973 L-863156 291971 L-862852 291971 L-862676 291970 L-862483 291969 L-862240 291966 L-862042 291963 L-862017 291961 L-861438 291959 L-861368 291958 L-860959 291957 L-860904 291955 L-860858 291954 L-860494 291953 L-860348 291951 L-860143 291950 L-860046 291950 L-859891 291949 L-859830 291947 L-859682 291945 L-859582 291943 L-859025 291943 L-859002 291946 L-858830 291947 L-858288 291949 L-858227 291949 L-858174 291946 L-858145 291943 L-858074 291942 L-858057 291939 L-857994 291938 L-857957 291935 L-857803 291934 L-857477 291933 L-856911 291931 L-856897 291930 L-856835 291927 L-856733 291925 L-856687 291925 L-856444 291923 L-856022 291923 L-855867 291923 L-854126 291921 L-853584 291919 L-852641 291918 L-852231 291917 L-851690 291914 L-851494 291913 L-851325 291911 L-851029 291910 L-850915 291909 L-850900 291909 L-850745 291907 L-850605 291906 L-850528 291903 L-850396 291903 L-850049 291903 L-849678 291904 L-849080 291904 L-848904 291904 L-848748 291903 L-848479 291902 L-848327 291902 L-848036 291906 L-848013 291909 L-847930 291911 L-847702 291914 L-847003 291913 L-846876 291911 L-846445 291910 L-846350 291909 L-845146 291909 L-845096 291907 L-844803 291907 L-844400 291906 L-844124 291903 L-844105 291902 L-843987 291900 L-843911 291899 L-843729 291898 L-843249 291896 L-842798 291894 L-842388 291892 L-842357 291891 L-841939 291890 L-841825 291890 L-841707 291890 L-841691 291890 L-841497 291888 L-841476 291886 L-841243 291884 L-840800 291883 L-840481 291880 L-840016 291880 L-839851 291879 L-839696 291878 L-839540 291878 L-839086 291878 L-838767 291878 L-838712 291879 L-838341 291879 L-838303 291880 L-837977 291880 L-837860 291879 L-837762 291878 L-837436 291875 L-837049 291874 L-836788 291872 L-836429 291870 L-836173 291868 L-834003 291867 L-833953 291866 L-833931 291864 L-833519 291864 L-833458 291864 L-833388 291866 L-833157 291866 L-832846 291864 L-832543 291862 L-832498 291860 L-832191 291859 L-832058 291858 L-831841 291856 L-831129 291855 L-830974 291855 L-830835 291854 L-830687 291854 L-830666 291854 L-830471 291852 L-830446 291851 L-830355 291850 L-830333 291848 L-830317 291847 L-830216 291846 L-829288 291844 L-828830 291844 L-827738 291842 L-827315 291842 L-826911 291840 L-826873 291839 L-826619 291838 L-825845 291835 L-825828 291834 L-825804 291832 L-825611 291831 L-824875 291830 L-824605 291828 L-824565 291827 L-824166 291824 L-824141 291823 L-823352 291821 L-822672 291820 L-821301 291819 L-821031 291817 L-820982 291816 L-820445 291813 L-820412 291812 L-820310 291809 L-819986 291808 L-819907 291807 L-819638 291807 L-818725 291805 L-818586 291805 L-818338 291803 L-817792 291803 L-817370 291801 L-817177 291800 L-817162 291800 L-817024 291797 L-816930 291796 L-816803 291795 L-816543 291793 L-816518 291791 L-816426 291789 L-816116 291788 L-816056 291787 L-815939 291787 L-815589 291787 L-814779 291787 L-814547 291784 L-813718 291784 L-813486 291781 L-813270 291780 L-812751 291780 L-812113 291779 L-811697 291777 L-811374 291776 L-810894 291775 L-810468 291775 L-810407 291773 L-810058 291773 L-810018 291772 L-810004 291771 L-809905 291768 L-809859 291768 L-809374 291767 L-808572 291767 L-808238 291767 L-807157 291765 L-806677 291764 L-806654 291763 L-806514 291761 L-805958 291760 L-805261 291759 L-804952 291757 L-804730 291756 L-804626 291755 L-804523 291752 L-803852 291751 L-803758 291749 L-803736 291749 L-803659 291748 L-803481 291748 L-803309 291748 L-803128 291746 L-803115 291745 L-803038 291744 L-802874 291742 L-802359 291741 L-802343 291740 L-802203 291740 L-801840 291738 L-801816 291738 L-801686 291737 L-801661 291736 L-801299 291734 L-800773 291732 L-800680 291730 L-800464 291728 L-800370 291726 L-800346 291725 L-799881 291724 L-799804 291724 L-799403 291722 L-798952 291722 L-797700 291721 L-797662 291720 L-797230 291718 L-797197 291717 L-796478 291716 L-796302 291714 L-796166 291713 L-795860 291712 L-795805 291710 L-795780 291708 L-795764 291705 L-795589 291704 L-795399 291702 L-794892 291702 L-794518 291692 L-794180 291680 L-794141 291669 L-793422 291659 L-793328 291658 L-793290 291657 L-792748 291657 L-792725 291655 L-792322 291654 L-791897 291653 L-791626 291653 L-791446 291651 L-791200 291649 L-791177 291647 L-791120 291645 L-790504 291643 L-790001 291642 L-789614 291642 L-788995 291643 L-788779 291643 L-788624 291645 L-787331 291642 L-787232 291641 L-786790 291638 L-786458 291637 L-786158 291634 L-785915 291633 L-785181 291630 L-784602 291629 L-783772 291627 L-783672 291626 L-783114 291625 L-782976 291623 L-781334 291622 L-781273 291622 L-781180 291622 L-780213 291622 L-780035 291621 L-779748 291621 L-779530 291621 L-779452 291619 L-779181 291619 L-779065 291618 L-778912 291617 L-778602 291615 L-778524 291614 L-778433 291614 L-778355 291613 L-778239 291613 L-778060 291611 L-777968 291610 L-777930 291609 L-777427 291609 L-777208 291607 L-777079 291607 L-776924 291606 L-776869 291605 L-776744 291605 L-776359 291603 L-775851 291602 L-775779 291601 L-775298 291599 L-775221 291598 L-775121 291598 L-774888 291597 L-774423 291597 L-774193 291597 L-774177 291597 L-773944 291597 L-773790 291597 L-773728 291597 L-773535 291595 L-773264 291592 L-772513 291591 L-771560 291591 L-771524 291590 L-771299 291590 L-770859 291590 L-770578 291587 L-770230 291586 L-769161 291584 L-768233 291584 L-768102 291584 L-768055 291584 L-767986 291583 L-767831 291583 L-767754 291580 L-767580 291578 L-767146 291575 L-766942 291574 L-766881 291571 L-766299 291570 L-766145 291567 L-766029 291566 L-765988 291564 L-765819 291563 L-765682 291562 L-765471 291559 L-765394 291558 L-765370 291556 L-765162 291554 L-764752 291552 L-764727 291551 L-764504 291550 L-764359 291548 L-764324 291547 L-764311 291546 L-764288 291544 L-764055 291543 L-763869 291542 L-763652 291540 L-763627 291539 L-762938 291538 L-762834 291536 L-762798 291535 L-762778 291534 L-762584 291532 L-762530 291531 L-762413 291528 L-762332 291528 L-762221 291527 L-761907 291526 L-761447 291524 L-761192 291523 L-760958 291520 L-760828 291519 L-760476 291518 L-760416 291516 L-760264 291515 L-759691 291512 L-759605 291511 L-759452 291508 L-759156 291505 L-758786 291503 L-758483 291500 L-758406 291499 L-758001 291497 L-757833 291497 L-757689 291497 L-757149 291497 L-757088 291497 L-757072 291495 L-756906 291493 L-756701 291492 L-756626 291492 L-756533 291491 L-756123 291489 L-756108 291488 L-756084 291488 L-755891 291487 L-755814 291499 L-755644 291511 L-755582 291522 L-755566 291534 L-755052 291532 L-754830 291531 L-754211 291528 L-753958 291527 L-753764 291526 L-753725 291524 L-753651 291524 L-753586 291524 L-752935 291524 L-752897 291526 L-752722 291526 L-752656 291526 L-751982 291526 L-751593 291523 L-751332 291522 L-751094 291520 L-751016 291518 L-751001 291515 L-750798 291513 L-750428 291511 L-750202 291509 L-749567 291508 L-749547 291508 L-749160 291507 L-749066 291507 L-749008 291505 L-748732 291504 L-748422 291504 L-748345 291503 L-747494 291504 L-747151 291511 L-746714 291519 L-746280 291526 L-745785 291532 L-745636 291531 L-745367 291532 L-744129 291534 L-744073 291536 L-742309 291538 L-742119 291536 L-741109 291535 L-740958 291534 L-740582 291536 L-740261 291539 L-739656 291542 L-739586 291544 L-739409 291543 L-738580 291542 L-738442 291540 L-738055 291539 L-737871 291538 L-737827 291536 L-737707 291535 L-737497 291534 L-737050 291531 L-736701 291530 L-736569 291528 L-736160 291527 L-735810 291527 L-735525 291526 L-735331 291524 L-735177 291524 L-735013 291523 L-734945 291522 L-734845 291522 L-734611 291520 L-734495 291520 L-734442 291519 L-733900 291519 L-733435 291518 L-732253 291518 L-732120 291518 L-732095 291518 L-732043 291518 L-731375 291518 L-730340 291515 L-730146 291513 L-729967 291512 L-729815 291512 L-729775 291511 L-729760 291511 L-729698 291509 L-729373 291508 L-728212 291507 L-728019 291505 L-727842 291504 L-726728 291503 L-725868 291501 L-725762 291501 L-725288 291500 L-725095 291500 L-722774 291499 L-722696 291497 L-722575 291495 L-722540 291493 L-722503 291491 L-722409 291487 L-722193 291484 L-721612 291481 L-721225 291480 L-720453 291479 L-720375 291477 L-719677 291477 L-719136 291477 L-719095 291476 L-718965 291476 L-718501 291475 L-718462 291473 L-718328 291472 L-717959 291471 L-717930 291469 L-717780 291469 L-717379 291468 L-715555 291469 L-714748 291468 L-714029 291468 L-714013 291468 L-713699 291465 L-713137 291464 L-712636 291463 L-712117 291461 L-712096 291460 L-710352 291459 L-710183 291457 L-709987 291456 L-709093 291455 L-708575 291452 L-708364 291451 L-708106 291449 L-707397 291448 L-706446 291447 L-705788 291445 L-705749 291443 L-705462 291441 L-705380 291440 L-705284 291440 L-705153 291438 L-705075 291438 L-704340 291438 L-704003 291437 L-703953 291438 L-703698 291438 L-703412 291437 L-702986 291437 L-702406 291436 L-702147 291436 L-701995 291434 L-701748 291434 L-701710 291434 L-700912 291433 L-700875 291432 L-700698 291432 L-700288 291429 L-700060 291429 L-699983 291429 L-699852 291429 L-699736 291428 L-699388 291426 L-699325 291425 L-699172 291424 L-698431 291422 L-698320 291421 L-698150 291420 L-698111 291418 L-697816 291418 L-697415 291418 L-697238 291418 L-697144 291418 L-696834 291417 L-696033 291416 L-695574 291413 L-695055 291412 L-694566 291410 L-693870 291409 L-692824 291408 L-692555 291408 L-692501 291406 L-692341 291406 L-692089 291406 L-691843 291405 L-691764 291404 L-691550 291401 L-691238 291400 L-690774 291397 L-690760 291396 L-690464 291396 L-690450 291394 L-689459 291393 L-688787 291392 L-688452 291389 L-687836 291389 L-687699 291388 L-687060 291386 L-686930 291385 L-685979 291382 L-685879 291380 L-685320 291378 L-684911 291378 L-684483 291378 L-684392 291377 L-683557 291377 L-683193 291377 L-683154 291378 L-683022 291380 L-682845 291380 L-682628 291380 L-682575 291378 L-682418 291376 L-682165 291374 L-681064 291373 L-680987 291372 L-680768 291370 L-680637 291368 L-680601 291366 L-680407 291365 L-680308 291364 L-679824 291362 L-679539 291361 L-679379 291359 L-679284 291357 L-679013 291355 L-678743 291354 L-678727 291349 L-678589 291345 L-678450 291341 L-678124 291335 L-677815 291333 L-677774 291331 L-677698 291329 L-677583 291327 L-676732 291325 L-676406 291323 L-676074 291322 L-675942 291322 L-675726 291322 L-675709 291322 L-675029 291322 L-674936 291319 L-674912 291318 L-674897 291315 L-674858 291314 L-674446 291311 L-674177 291310 L-674137 291309 L-673768 291309 L-673559 291307 L-672476 291307 L-672459 291306 L-672431 291305 L-672411 291305 L-672034 291302 L-671779 291301 L-671531 291298 L-671391 291295 L-671259 291294 L-670927 291293 L-670835 291291 L-670774 291290 L-670215 291289 L-670154 291287 L-669998 291286 L-669804 291285 L-669612 291283 L-669596 291282 L-669558 291280 L-669519 291279 L-669248 291278 L-669125 291276 L-669093 291275 L-668993 291275 L-668837 291275 L-668696 291275 L-668412 291274 L-668087 291274 L-667391 291272 L-667368 291272 L-666859 291272 L-666013 291272 L-665650 291271 L-665495 291270 L-664891 291270 L-664721 291270 L-664660 291270 L-664605 291268 L-663550 291267 L-663531 291267 L-662625 291267 L-662604 291267 L-662437 291266 L-662195 291266 L-662145 291264 L-662090 291262 L-661952 291260 L-661913 291259 L-660985 291258 L-660929 291258 L-660808 291258 L-660736 291258 L-660620 291258 L-660442 291259 L-659459 291258 L-659320 291258 L-659202 291255 L-658907 291252 L-658660 291251 L-658624 291250 L-658569 291251 L-658547 291251 L-658414 291251 L-658335 291251 L-658198 291250 L-657575 291250 L-657408 291248 L-656944 291248 L-656767 291246 L-656751 291244 L-656691 291243 L-656574 291242 L-656092 291240 L-655396 291239 L-655023 291238 L-654854 291236 L-653888 291235 L-653733 291234 L-653555 291234 L-653462 291232 L-653207 291232 L-653037 291232 L-652390 291231 L-652379 291231 L-651799 291230 L-651660 291230 L-651605 291227 L-650870 291226 L-650831 291224 L-650754 291224 L-650112 291223 L-649337 291223 L-649245 291222 L-649196 291222 L-649181 291220 L-649145 291220 L-649128 291218 L-649066 291216 L-649049 291215 L-649029 291215 L-648875 291214 L-648836 291212 L-648820 291211 L-648781 291210 L-648641 291208 L-648565 291207 L-648200 291206 L-647852 291204 L-647079 291203 L-646476 291201 L-646280 291200 L-646050 291200 L-645912 291199 L-645274 291199 L-644985 291197 L-644963 291197 L-644503 291196 L-644270 291196 L-644215 291195 L-644177 291193 L-643674 291192 L-643124 291191 L-642335 291189 L-641212 291189 L-640318 291188 L-640230 291188 L-639931 291187 L-639859 291185 L-639743 291184 L-638566 291183 L-638218 291181 L-638196 291180 L-637677 291179 L-637530 291177 L-637422 291176 L-637212 291175 L-637058 291173 L-637035 291172 L-636841 291171 L-636764 291169 L-636621 291168 L-635820 291167 L-635674 291165 L-635394 291164 L-635216 291163 L-634907 291161 L-634095 291160 L-633167 291160 L-631575 291159 L-631331 291157 L-630691 291156 L-630495 291155 L-630417 291153 L-629900 291152 L-629668 291152 L-629645 291151 L-629513 291151 L-629174 291149 L-629163 291148 L-628946 291147 L-628909 291145 L-628368 291144 L-627839 291141 L-627771 291140 L-627478 291139 L-626930 291136 L-626895 291135 L-626842 291133 L-626743 291131 L-626511 291131 L-625930 291131 L-625833 291132 L-625759 291132 L-625427 291131 L-624677 291129 L-624638 291128 L-623958 291128 L-623803 291128 L-623477 291126 L-623261 291125 L-623030 291125 L-622733 291124 L-622487 291122 L-622136 291121 L-622083 291120 L-621323 291118 L-620630 291116 L-620280 291113 L-619816 291112 L-619182 291110 L-618773 291109 L-618696 291110 L-618270 291110 L-617627 291109 L-617458 291109 L-616716 291108 L-616529 291106 L-616233 291105 L-615661 291104 L-615636 291102 L-614617 291102 L-614130 291101 L-614037 291101 L-613976 291100 L-613687 291098 L-613402 291097 L-613340 291096 L-613160 291096 L-612449 291094 L-612273 291093 L-612075 291092 L-611923 291090 L-611831 291089 L-611770 291088 L-611228 291088 L-610917 291086 L-610825 291084 L-610748 291081 L-610181 291080 L-610090 291080 L-609835 291077 L-609508 291074 L-609471 291070 L-609316 291066 L-609084 291065 L-608762 291064 L-607630 291062 L-607430 291061 L-606905 291060 L-606660 291060 L-606414 291058 L-606334 291057 L-606315 291054 L-606238 291053 L-606182 291050 L-606105 291049 L-606066 291047 L-605887 291045 L-605850 291043 L-605619 291042 L-604381 291041 L-604054 291039 L-604015 291037 L-603233 291035 L-603086 291034 L-602095 291033 L-601888 291033 L-601462 291033 L-601335 291033 L-600930 291034 L-600843 291033 L-600186 291031 L-599478 291030 L-598870 291029 L-598677 291027 L-598444 291025 L-597825 291023 L-597530 291021 L-597090 291019 L-596935 291018 L-596780 291017 L-596024 291014 L-595674 291013 L-595272 291013 L-595233 291011 L-594227 291011 L-593907 291011 L-593661 291010 L-592961 291007 L-592887 291006 L-592575 291005 L-591495 291003 L-591303 291002 L-591070 291002 L-590875 291001 L-590374 290999 L-589621 290999 L-589507 290999 L-589307 290999 L-589266 290998 L-589173 290997 L-588860 290995 L-588772 290994 L-588656 290993 L-588338 290993 L-588269 290991 L-588244 290990 L-587882 290989 L-587843 290987 L-587627 290986 L-587124 290987 L-586521 290989 L-586310 290991 L-586157 290993 L-586119 290993 L-586075 290990 L-586040 290989 L-585907 290987 L-585498 290986 L-585127 290985 L-585074 290983 L-585058 290982 L-584979 290981 L-584569 290979 L-584415 290978 L-584400 290975 L-584360 290974 L-584182 290971 L-584106 290970 L-583874 290968 L-583084 290967 L-583007 290967 L-582272 290964 L-582116 290963 L-581877 290960 L-581815 290958 L-581730 290956 L-581707 290954 L-581589 290951 L-581575 290948 L-581513 290946 L-581476 290944 L-581381 290943 L-581359 290943 L-581243 290942 L-581010 290940 L-580840 290938 L-580020 290938 L-579619 290936 L-579463 290936 L-578959 290936 L-578844 290936 L-578248 290936 L-577874 290935 L-577822 290935 L-577628 290934 L-576931 290934 L-576893 290932 L-576749 290932 L-576523 290931 L-576262 290930 L-575888 290928 L-575462 290927 L-575333 290926 L-575313 290923 L-574820 290923 L-574123 290922 L-573892 290923 L-573738 290923 L-572769 290923 L-572545 290924 L-572267 290924 L-572251 290923 L-571725 290922 L-571196 290920 L-571048 290919 L-571028 290918 L-570487 290916 L-570177 290915 L-570059 290912 L-569868 290910 L-569731 290907 L-569404 290906 L-569287 290904 L-568978 290904 L-568552 290903 L-568496 290903 L-568263 290904 L-568166 290904 L-568033 290904 L-567737 290904 L-567623 290903 L-567259 290902 L-566946 290902 L-566463 290900 L-566293 290899 L-566044 290898 L-565829 290896 L-565303 290895 L-565116 290892 L-564761 290891 L-564126 290889 L-563971 290887 L-563230 290885 L-562811 290884 L-562631 290883 L-562554 290883 L-562423 290881 L-562130 290880 L-562089 290879 L-561859 290879 L-561666 290877 L-561411 290877 L-560985 290876 L-560876 290875 L-560257 290875 L-560076 290875 L-558864 290875 L-558217 290876 L-558066 290876 L-558029 290876 L-557897 290876 L-557796 290875 L-557780 290873 L-557698 290872 L-557487 290871 L-557370 290869 L-557007 290868 L-556635 290867 L-555939 290865 L-555536 290864 L-555431 290863 L-555413 290861 L-554469 290860 L-554274 290857 L-554122 290856 L-554066 290853 L-553310 290853 L-553293 290856 L-552804 290857 L-552673 290860 L-552480 290860 L-551590 290859 L-551551 290857 L-551513 290856 L-551436 290855 L-551397 290855 L-551320 290853 L-551236 290852 L-550971 290851 L-550739 290849 L-550677 290848 L-550196 290847 L-549860 290847 L-549749 290845 L-549555 290844 L-549379 290843 L-549320 290843 L-549283 290841 L-549014 290840 L-548316 290837 L-548263 290835 L-547969 290832 L-547567 290829 L-547002 290828 L-546129 290827 L-545825 290825 L-545787 290824 L-545664 290823 L-545065 290821 L-544936 290820 L-544736 290819 L-544698 290817 L-544084 290816 L-543906 290814 L-543891 290812 L-543673 290810 L-543595 290808 L-543287 290808 L-543155 290806 L-542924 290806 L-542589 290806 L-542498 290805 L-542397 290804 L-542359 290802 L-541816 290802 L-541624 290801 L-541082 290800 L-540657 290798 L-540525 290798 L-540463 290798 L-540232 290798 L-540216 290798 L-539727 290800 L-539647 290800 L-539629 290800 L-538236 290801 L-538101 290801 L-537987 290800 L-537352 290798 L-537213 290797 L-537095 290796 L-536941 290793 L-536904 290792 L-536826 290790 L-536772 290792 L-535780 290792 L-535743 290790 L-535610 290790 L-535550 290788 L-535451 290786 L-535160 290785 L-535147 290784 L-534837 290784 L-534737 290785 L-534272 290784 L-534218 290926 L-534075 291066 L-533948 291208 L-533716 291350 L-533147 291349 L-533058 291347 L-533035 291347 L-532748 291346 L-532065 291345 L-531988 291343 L-531952 291342 L-531936 291341 L-531736 291339 L-531316 291337 L-531045 291337 L-530171 291335 L-529879 291335 L-529768 291335 L-529034 291334 L-528907 291333 L-528547 291331 L-528295 291331 L-527423 291330 L-527254 291330 L-527193 291329 L-527138 291327 L-526790 291326 L-526767 291325 L-526558 291323 L-526417 291322 L-526287 291321 L-526164 291319 L-526041 291318 L-525804 291317 L-525513 291315 L-524854 291314 L-524832 291313 L-524677 291311 L-524560 291310 L-523596 291309 L-523540 291307 L-523307 291306 L-523285 291305 L-522959 291303 L-522843 291303 L-522804 291302 L-522302 291302 L-522003 291301 L-521891 291299 L-521349 291298 L-520290 291297 L-519664 291295 L-519492 291294 L-519244 291293 L-518988 291291 L-518857 291290 L-518836 291289 L-518168 291287 L-517272 291286 L-517226 291285 L-517156 291283 L-517040 291283 L-516819 291282 L-516628 291282 L-516589 291280 L-516397 291279 L-515738 291279 L-515121 291278 L-515082 291286 L-514486 291294 L-514424 291301 L-513302 291307 L-513247 291307 L-513126 291306 L-512861 291305 L-512797 291305 L-512528 291305 L-512452 291303 L-512236 291303 L-511753 291302 L-511483 291301 L-511352 291301 L-511120 291298 L-511095 291294 L-511080 291289 L-511057 291282 L-511042 291275 L-511018 291268 L-511004 291260 L-510980 291252 L-510965 291244 L-510942 291238 L-510927 291231 L-510904 291224 L-510888 291220 L-510860 291216 L-510842 291211 L-510824 291208 L-510788 291204 L-510748 291201 L-510733 291199 L-510708 291195 L-510656 291192 L-510631 291189 L-510554 291187 L-510516 291185 L-510501 291183 L-510438 291180 L-510423 291177 L-510377 291173 L-510306 291171 L-510268 291169 L-510244 291167 L-510192 291164 L-510166 291163 L-510151 291161 L-510089 291160 L-510052 291159 L-509975 291157 L-509959 291156 L-509931 291153 L-509859 291152 L-509819 291151 L-509666 291148 L-509549 291147 L-509495 291145 L-509413 291144 L-509379 291143 L-509355 291141 L-509201 291140 L-509186 291139 L-509084 291137 L-508774 291136 L-508737 291135 L-508522 291133 L-508411 291133 L-508386 291133 L-508156 291135 L-507924 291135 L-507549 291133 L-507421 291132 L-507381 291131 L-507329 291129 L-507228 291128 L-507191 291126 L-506980 291126 L-506916 291125 L-506803 291125 L-506592 291124 L-506555 291122 L-506182 291121 L-506129 291120 L-506050 291118 L-506028 291117 L-505936 291116 L-505736 291114 L-505698 291114 L-505676 291114 L-505446 291114 L-505426 291113 L-505216 291113 L-505121 291112 L-505084 291110 L-504747 291109 L-504635 291108 L-504595 291106 L-504581 291106 L-504442 291105 L-504427 291105 L-504172 291105 L-503589 291104 L-503513 291102 L-503475 291101 L-503430 291100 L-503382 291098 L-503202 291097 L-503188 291096 L-503088 291094 L-503010 291093 L-502950 291092 L-502584 291089 L-502502 291088 L-502484 291086 L-502431 291085 L-501462 291084 L-501331 291082 L-501309 291081 L-501089 291080 L-501020 291078 L-500998 291077 L-500751 291076 L-500495 291074 L-500364 291073 L-500325 291072 L-500303 291069 L-500248 291066 L-500160 291065 L-500099 291062 L-499874 291061 L-499744 291060 L-499645 291058 L-499590 291057 L-499397 291056 L-499319 291054 L-498986 291053 L-498855 291052 L-498677 291050 L-498662 291049 L-498636 291047 L-498367 291047 L-497166 291046 L-497129 291046 L-497013 291045 L-496780 291043 L-496589 291042 L-496550 291042 L-496494 291041 L-496390 291041 L-495876 291039 L-495582 291038 L-495350 291037 L-495075 291035 L-495058 291034 L-495025 291033 L-494985 291031 L-494947 291030 L-494846 291029 L-494769 291027 L-494676 291026 L-494549 291025 L-494445 291023 L-494266 291023 L-494074 291022 L-493245 291022 L-493129 291021 L-492874 291019 L-492834 291018 L-492735 291017 L-492675 291017 L-492432 291015 L-492409 291015 L-492288 291014 L-492216 291013 L-492177 291011 L-491945 291010 L-491769 291009 L-491248 291007 L-491172 291006 L-491156 291005 L-490744 291005 L-490382 291005 L-490266 291003 L-490243 291003 L-490202 291002 L-490126 291001 L-490072 290999 L-489724 290998 L-489608 290997 L-489430 290997 L-489375 290995 L-489351 290995 L-489238 290994 L-488950 290993 L-488718 290991 L-488502 290990 L-488293 290989 L-488082 290986 L-487256 290985 L-486916 290983 L-485909 290982 L-485546 290981 L-484500 290979 L-484423 290978 L-483976 290977 L-483764 290975 L-483573 290974 L-483278 290973 L-483237 290971 L-483084 290970 L-483030 290967 L-482799 290966 L-482218 290964 L-482024 290963 L-481405 290963 L-480916 290962 L-480864 290960 L-480216 290959 L-480065 290958 L-479896 290956 L-479523 290955 L-479508 290955 L-479409 290954 L-479370 290954 L-479239 290952 L-478806 290952 L-478503 290952 L-478117 290952 L-477977 290951 L-477816 290951 L-477382 290951 L-477343 290950 L-477242 290950 L-477126 290948 L-476948 290948 L-476778 290947 L-476660 290946 L-476299 290943 L-476081 290942 L-475949 290940 L-475809 290940 L-475310 290940 L-475232 290940 L-474998 290939 L-474674 290939 L-474287 290938 L-474264 290936 L-473644 290936 L-473374 290935 L-473141 290935 L-472716 290934 L-472444 290932 L-472303 290931 L-472094 290930 L-471888 290928 L-471337 290927 L-471206 290927 L-470819 290926 L-470549 290926 L-470446 290924 L-470186 290923 L-469984 290922 L-469915 290920 L-469876 290919 L-469309 290918 L-469102 290916 L-469075 290915 L-468846 290914 L-468768 290912 L-468251 290911 L-468213 290910 L-468057 290908 L-467764 290907 L-467492 290906 L-467128 290904 L-466780 290904 L-466408 290903 L-466288 290903 L-466216 290902 L-465736 290900 L-465674 290899 L-465339 290898 L-465208 290896 L-465130 290895 L-465001 290893 L-464537 290893 L-464243 290892 L-464166 290892 L-463855 290891 L-463547 290889 L-463483 290888 L-463454 290887 L-462679 290885 L-462574 290883 L-462486 290881 L-462463 290880 L-462309 290879 L-462088 290877 L-461921 290876 L-461534 290875 L-461479 290873 L-461416 290873 L-460798 290872 L-460681 290871 L-460358 290869 L-459833 290868 L-459482 290867 L-459406 290865 L-458787 290864 L-458376 290863 L-458075 290861 L-457764 290860 L-457626 290859 L-457002 290859 L-456620 290857 L-455497 290857 L-454436 290856 L-454374 290855 L-454013 290853 L-453912 290853 L-453896 290852 L-453522 290852 L-452517 290849 L-452130 290848 L-451923 290845 L-451834 290844 L-451458 290843 L-451166 290841 L-450854 290840 L-450065 290839 L-449977 290837 L-449925 290836 L-449887 290835 L-449369 290833 L-449254 290832 L-449045 290831 L-448906 290829 L-448302 290828 L-447473 290827 L-447189 290825 L-447008 290825 L-446506 290824 L-446301 290824 L-445747 290824 L-445242 290823 L-445051 290821 L-445012 290820 L-444383 290819 L-443930 290817 L-443516 290816 L-442907 290814 L-441787 290814 L-441373 290813 L-441049 290813 L-440834 290812 L-440407 290810 L-440267 290809 L-440176 290808 L-439945 290806 L-439358 290806 L-438550 290805 L-437351 290805 L-437237 290805 L-437105 290804 L-437017 290802 L-436975 290804 L-436955 290805 L-436944 290808 L-436849 290810 L-436086 290810 L-435380 290810 L-435340 290809 L-435054 290808 L-434513 290806 L-434451 290805 L-434411 290804 L-434397 290802 L-434140 290801 L-433816 290800 L-433676 290798 L-433406 290797 L-433367 290796 L-433259 290794 L-432858 290793 L-432748 290792 L-432671 290790 L-432374 290789 L-432331 290788 L-432113 290788 L-431929 290788 L-431819 290788 L-431804 290786 L-431778 290786 L-431354 290785 L-431108 290784 L-430772 290782 L-430737 290781 L-430603 290780 L-430349 290780 L-430194 290778 L-429288 290778 L-429189 290777 L-428994 290774 L-427987 290773 L-427486 290772 L-427408 290770 L-427370 290769 L-427162 290768 L-427043 290766 L-426945 290765 L-426759 290764 L-426593 290762 L-426358 290761 L-425938 290760 L-425923 290758 L-425614 290757 L-424568 290756 L-424351 290754 L-424335 290753 L-424313 290752 L-424104 290750 L-423945 290749 L-423887 290748 L-422442 290746 L-422116 290746 L-421914 290746 L-421715 290746 L-421565 290746 L-421294 290745 L-420853 290744 L-420636 290744 L-419941 290742 L-419439 290741 L-419114 290740 L-418843 290740 L-418122 290738 L-417967 290738 L-416769 290735 L-416380 290734 L-416264 290731 L-416111 290730 L-415957 290729 L-414987 290727 L-414934 290726 L-414687 290725 L-414665 290723 L-414445 290722 L-414007 290719 L-413867 290717 L-413759 290714 L-413557 290713 L-413440 290711 L-413338 290710 L-413324 290710 L-413191 290709 L-412937 290707 L-412319 290706 L-411660 290705 L-411414 290705 L-411221 290703 L-410462 290703 L-410423 290703 L-410345 290702 L-410293 290699 L-410253 290698 L-410215 290697 L-410176 290695 L-410085 290694 L-410041 290693 L-409982 290690 L-409958 290689 L-409843 290687 L-409533 290685 L-409479 290683 L-409457 290682 L-409115 290681 L-408950 290679 L-408914 290677 L-408874 290675 L-408859 290674 L-408627 290673 L-408487 290671 L-408319 290670 L-407869 290670 L-407636 290670 L-407543 290670 L-407523 290671 L-407042 290670 L-406965 290670 L-406838 290669 L-406708 290666 L-406329 290665 L-406088 290662 L-406050 290661 L-405996 290659 L-405858 290656 L-405819 290655 L-405779 290654 L-405549 290652 L-405509 290651 L-405379 290650 L-405200 290648 L-405159 290647 L-405145 290646 L-404981 290644 L-404966 290643 L-404813 290642 L-404798 290640 L-404772 290639 L-404738 290638 L-404516 290635 L-404293 290635 L-404039 290634 L-403907 290635 L-403265 290635 L-402658 290634 L-401638 290634 L-401445 290632 L-401394 290631 L-401269 290630 L-400944 290628 L-400171 290627 L-400114 290626 L-400000 290624 L-399588 290623 L-399263 290622 L-399125 290620 L-398901 290619 L-398375 290618 L-397974 290618 L-397942 290616 L-397655 290616 L-397370 290615 L-396982 290614 L-396766 290612 L-396339 290610 L-396157 290608 L-395821 290607 L-395714 290606 L-395528 290606 L-395411 290604 L-395397 290604 L-394675 290603 L-394506 290602 L-394257 290600 L-394157 290599 L-393515 290598 L-393227 290596 L-393037 290595 L-392762 290594 L-392444 290592 L-392160 290591 L-392046 290588 L-392001 290587 L-391798 290586 L-390190 290584 L-389978 290583 L-389297 290581 L-389214 290580 L-388986 290579 L-388796 290579 L-388657 290577 L-388638 290577 L-388445 290577 L-388215 290577 L-388023 290577 L-386938 290576 L-386743 290576 L-386690 290576 L-386537 290576 L-386429 290576 L-386262 290576 L-386110 290575 L-385995 290573 L-385871 290571 L-385454 290569 L-385196 290567 L-385104 290565 L-384911 290565 L-384849 290564 L-384524 290564 L-384463 290564 L-384406 290563 L-384137 290561 L-383789 290560 L-383610 290559 L-383416 290557 L-383380 290559 L-382667 290559 L-382628 290561 L-382318 290563 L-382021 290564 L-381971 290565 L-381715 290567 L-381444 290568 L-381389 290568 L-380298 290568 L-380268 290567 L-380227 290567 L-380051 290567 L-379858 290565 L-379000 290565 L-377947 290564 L-377886 290563 L-377537 290561 L-376724 290561 L-375911 290561 L-375896 290561 L-375521 290561 L-375352 290561 L-375084 290561 L-374756 290560 L-374634 290559 L-374577 290559 L-374542 290557 L-374465 290557 L-374247 290556 L-374189 290555 L-373873 290553 L-373706 290552 L-373342 290552 L-373149 290552 L-373125 290552 L-373048 290551 L-372567 290551 L-372430 290551 L-372016 290549 L-371717 290549 L-371618 290548 L-371602 290547 L-371573 290545 L-371214 290544 L-370864 290543 L-370726 290541 L-370690 290541 L-369873 290540 L-369667 290539 L-369643 290537 L-369486 290537 L-369396 290536 L-369155 290536 L-368831 290535 L-368739 290535 L-368542 290533 L-368257 290533 L-367501 290532 L-367371 290531 L-367298 290529 L-366685 290528 L-366510 290527 L-366399 290525 L-366299 290524 L-366220 290523 L-366083 290521 L-365929 290521 L-365850 290521 L-365659 290521 L-364985 290521 L-364947 290520 L-364844 290519 L-363901 290517 L-363879 290516 L-363528 290515 L-363063 290513 L-363028 290512 L-362599 290511 L-362547 290511 L-362136 290509 L-362119 290509 L-362023 290509 L-361968 290509 L-361929 290509 L-361634 290508 L-359895 290507 L-358386 290505 L-357878 290504 L-357380 290502 L-357246 290501 L-357155 290500 L-357028 290498 L-356949 290496 L-356644 290494 L-356373 290493 L-356139 290493 L-354940 290492 L-354835 290492 L-354770 290490 L-353928 290489 L-353742 290488 L-352831 290486 L-351962 290484 L-351674 290482 L-351582 290480 L-351033 290478 L-350513 290477 L-349444 290476 L-349176 290474 L-349022 290474 L-348929 290474 L-348799 290476 L-348752 290477 L-348592 290477 L-347726 290477 L-347391 290477 L-347008 290476 L-346256 290474 L-346196 290473 L-345807 290473 L-345485 290473 L-345328 290472 L-344596 290472 L-344533 290472 L-344246 290472 L-343872 290472 L-343691 290472 L-343435 290470 L-343174 290468 L-343021 290466 L-342618 290465 L-341321 290464 L-341205 290462 L-340742 290461 L-339410 290460 L-338985 290458 L-338961 290457 L-338828 290456 L-338653 290454 L-338519 290454 L-338189 290453 L-337802 290452 L-337762 290450 L-337746 290448 L-337355 290446 L-337064 290445 L-336795 290445 L-336621 290445 L-335128 290445 L-335078 290444 L-335000 290445 L-333760 290446 L-333685 290446 L-333658 290449 L-333412 290448 L-333254 290448 L-333196 290446 L-332308 290446 L-332080 290445 L-331556 290445 L-331415 290446 L-331339 290446 L-330643 290448 L-330395 290448 L-329715 290446 L-329697 290446 L-329443 290445 L-329075 290445 L-328940 290444 L-328318 290441 L-327974 290440 L-327927 290438 L-327440 290437 L-327106 290434 L-326889 290434 L-326755 290433 L-326434 290432 L-326369 290432 L-326117 290430 L-325828 290429 L-325518 290428 L-325378 290426 L-324839 290425 L-324563 290423 L-323833 290422 L-323780 290422 L-323673 290422 L-323407 290422 L-322983 290422 L-322718 290421 L-322499 290419 L-322478 290418 L-322247 290417 L-321960 290415 L-321937 290415 L-321922 290414 L-321550 290414 L-321378 290413 L-321302 290410 L-321241 290409 L-320940 290406 L-320699 290403 L-320607 290402 L-320349 290401 L-320297 290399 L-320101 290398 L-319885 290399 L-319462 290399 L-319369 290401 L-319229 290399 L-318364 290398 L-317991 290397 L-317663 290394 L-317510 290393 L-317083 290393 L-316365 290391 L-316171 290391 L-315816 290390 L-315670 290389 L-315163 290386 L-314927 290385 L-313960 290383 L-313950 290382 L-312885 290381 L-312652 290379 L-312250 290378 L-312056 290377 L-311976 290375 L-311880 290374 L-311143 290374 L-311011 290374 L-310621 290374 L-310599 290373 L-310504 290373 L-310368 290371 L-310351 290370 L-310331 290369 L-308646 290367 L-308628 290367 L-308511 290366 L-308427 290366 L-308302 290366 L-308278 290365 L-307994 290363 L-307888 290362 L-307699 290359 L-307429 290358 L-306757 290357 L-306385 290355 L-305533 290355 L-305475 290354 L-305456 290354 L-305223 290354 L-304948 290353 L-304643 290353 L-304603 290350 L-304372 290350 L-304135 290349 L-303522 290347 L-303481 290346 L-303444 290343 L-302922 290342 L-302731 290340 L-302670 290339 L-302628 290338 L-302305 290338 L-302277 290336 L-302263 290336 L-301778 290335 L-301724 290334 L-301586 290332 L-301548 290331 L-301531 290330 L-301436 290328 L-300771 290328 L-300155 290327 L-299885 290327 L-299477 290327 L-299457 290326 L-299441 290326 L-299327 290324 L-298940 290323 L-298474 290323 L-298413 290322 L-298335 290320 L-298320 290319 L-297834 290316 L-297794 290315 L-297649 290315 L-297599 290314 L-297520 290315 L-296888 290314 L-296798 290314 L-296557 290314 L-296440 290312 L-296112 290312 L-295358 290311 L-295341 290311 L-294390 290311 L-294080 290310 L-293655 290308 L-292942 290307 L-292623 290306 L-292608 290304 L-292457 290302 L-292154 290300 L-292076 290299 L-291949 290298 L-291512 290298 L-291451 290298 L-290928 290298 L-290660 290298 L-290522 290296 L-290444 290295 L-290405 290294 L-289594 290294 L-289553 290294 L-289113 290294 L-289035 290294 L-288777 290292 L-288587 290291 L-287958 290290 L-287771 290288 L-287736 290286 L-287580 290284 L-287179 290282 L-287102 290280 L-286921 290279 L-286730 290278 L-285801 290275 L-285651 290274 L-284443 290272 L-283633 290271 L-283230 290269 L-282628 290268 L-282426 290267 L-282357 290265 L-282199 290264 L-281937 290263 L-281564 291463 L-281545 291461 L-281389 291461 L-280191 291461 L-279087 290260 L-278159 290259 L-278045 290257 L-277760 290256 L-277658 290255 L-277634 290255 L-277443 290252 L-277366 290251 L-277170 290251 L-276458 290251 L-276301 290252 L-275244 290252 L-274819 290252 L-274408 290251 L-274122 290248 L-273948 290247 L-273716 290245 L-273462 290244 L-273019 290243 L-272359 290241 L-272183 290240 L-271878 290239 L-271491 290237 L-271471 290236 L-271452 290235 L-271430 290233 L-271297 290232 L-271104 290231 L-269460 290229 L-268164 290228 L-268125 290227 L-268067 290225 L-267966 290224 L-267407 290223 L-266423 290221 L-265880 290219 L-265416 290217 L-264771 290216 L-264222 290215 L-263172 290213 L-262244 290212 L-261896 290211 L-261702 290209 L-261199 290208 L-260754 290208 L-260612 290207 L-260590 290207 L-260019 290207 L-259634 290204 L-258801 290203 L-258452 290201 L-258430 290200 L-258042 290200 L-257620 290199 L-257021 290197 L-257002 290196 L-256496 290196 L-256264 290195 L-256151 290195 L-255532 290192 L-254970 290190 L-254930 290189 L-254371 290188 L-254038 290186 L-253926 290186 L-253887 290185 L-253462 290185 L-253402 290185 L-253327 290184 L-253036 290184 L-252823 290182 L-252339 290180 L-252125 290178 L-250985 290177 L-250926 290176 L-250908 290174 L-250502 290173 L-249863 290172 L-249728 290170 L-249670 290169 L-249128 290168 L-248819 290166 L-248568 290166 L-248492 290165 L-248373 290164 L-247639 290161 L-247194 290160 L-246979 290158 L-246246 290157 L-246071 290156 L-245706 290156 L-245491 290156 L-244253 290156 L-243944 290156 L-243827 290156 L-243574 290154 L-243363 290153 L-242821 290152 L-242589 290150 L-242532 290150 L-242435 290149 L-242105 290149 L-241873 290148 L-240210 290146 L-239860 290145 L-239456 290142 L-239301 290141 L-238508 290140 L-237018 290138 L-236631 290137 L-236592 290136 L-236339 290134 L-236244 290133 L-236051 290132 L-235702 290132 L-235006 290130 L-234755 290130 L-234039 290129 L-232627 290128 L-232395 290126 L-232065 290126 L-230849 290126 L-230497 290128 L-230305 290129 L-230187 290130 L-227752 290130 L-226783 290129 L-225952 290128 L-225643 290126 L-224301 290125 L-223728 290124 L-223612 290122 L-223283 290122 L-223187 290121 L-222779 290121 L-222664 290120 L-222473 290118 L-221716 290117 L-221591 290116 L-221310 290114 L-220807 290113 L-220729 290111 L-219143 290118 L-219085 290125 L-218343 290133 L-217963 290140 L-217634 290138 L-216971 290137 L-216841 290136 L-216801 290136 L-216551 290136 L-216415 290136 L-216222 290134 L-216086 290134 L-215835 290132 L-215622 290132 L-215313 290130 L-215041 290130 L-214539 290130 L-214520 290130 L-214086 290129 L-213860 290128 L-213417 290126 L-213398 290125 L-212895 290124 L-212757 290122 L-212643 290121 L-212411 290120 L-212101 290118 L-211636 290117 L-211559 290116 L-211057 290114 L-210786 290113 L-210448 290111 L-210263 290110 L-209587 290109 L-209568 290109 L-209393 290107 L-209373 290106 L-208755 290105 L-208039 290103 L-207477 290102 L-207282 290102 L-207129 290101 L-207110 290101 L-206587 290098 L-206472 290097 L-205601 290095 L-205579 290094 L-205523 290093 L-204692 290091 L-204382 290090 L-204305 290089 L-204034 290087 L-203971 290087 L-203920 290085 L-203609 290082 L-202992 290079 L-202216 290078 L-201423 290077 L-201384 290075 L-201307 290074 L-201134 290073 L-200257 290071 L-199372 290070 L-199277 290069 L-199158 290067 L-198828 290066 L-198792 290066 L-198559 290065 L-198326 290065 L-197611 290062 L-197109 290061 L-196443 290059 L-196335 290058 L-196180 290057 L-196161 290055 L-196006 290054 L-195591 290053 L-194980 290051 L-194845 290050 L-193937 290049 L-193734 290047 L-193181 290046 L-190532 290045 L-190357 290043 L-190279 290041 L-189408 290039 L-188944 290038 L-188461 290036 L-188423 290034 L-187842 290032 L-187822 290031 L-186720 290030 L-185299 290028 L-184881 290027 L-184573 290026 L-184496 290024 L-184420 290023 L-184263 290022 L-184186 290020 L-183722 290019 L-182484 290018 L-182232 290016 L-181788 290015 L-181166 290014 L-181110 290012 L-180917 290012 L-180452 290011 L-180161 290008 L-180120 290006 L-180084 290003 L-179931 290000 L-179753 289999 L-178615 289996 L-178227 289995 L-178170 289994 L-177996 289992 L-175479 289990 L-174319 289988 L-173681 289987 L-173543 289986 L-173411 289983 L-173023 289982 L-172559 289980 L-172349 289978 L-172283 289976 L-172250 289975 L-171496 289974 L-170914 289972 L-170722 289971 L-170103 289970 L-170057 289968 L-169697 289967 L-169591 289966 L-169406 289964 L-169129 289963 L-168225 289962 L-167220 289960 L-166485 289959 L-166060 289957 L-165899 289956 L-165536 289955 L-165439 289953 L-164996 289952 L-164920 289951 L-164568 289951 L-164319 289948 L-164299 289945 L-164125 289943 L-163177 289939 L-163063 289937 L-162500 289936 L-162050 289935 L-161665 289933 L-160754 289932 L-160699 289931 L-159559 289929 L-158979 289927 L-158804 289925 L-158011 289923 L-157779 289921 L-157393 289920 L-157122 289919 L-156986 289917 L-156871 289916 L-156252 289916 L-156194 289916 L-155979 289916 L-155684 289916 L-154896 289915 L-154756 289915 L-153368 289913 L-153021 289913 L-152634 289912 L-152573 289909 L-152536 289908 L-152479 289907 L-151836 289905 L-151145 289904 L-150893 289904 L-150557 289903 L-150468 289903 L-149947 289901 L-149694 289900 L-149478 289897 L-149095 289896 L-148935 289895 L-148396 289892 L-147584 289891 L-147565 289889 L-147449 289889 L-147305 289888 L-146924 289888 L-146732 289888 L-146676 289887 L-146376 289885 L-146310 289884 L-146114 289883 L-145747 289881 L-145685 289880 L-145382 289878 L-145336 289878 L-145283 289877 L-144645 289877 L-144625 289876 L-144140 289874 L-143658 289876 L-143289 289876 L-142922 289877 L-142788 289877 L-142634 289876 L-142564 289874 L-141916 289874 L-141896 289873 L-141756 289873 L-141271 289872 L-140988 289872 L-140930 289870 L-140872 289870 L-140562 289869 L-140408 289868 L-139924 289868 L-139151 289868 L-138511 289868 L-138413 289866 L-137351 289866 L-137329 289865 L-136865 291481 L-136848 291481 L-136675 291481 L-136162 291481 L-133808 289864 L-132863 289862 L-132144 289861 L-131604 289858 L-130907 289857 L-130590 289856 L-129942 289854 L-129434 289853 L-129400 289852 L-129358 289850 L-129012 289849 L-128317 289848 L-128120 289846 L-128104 289844 L-127988 289842 L-127706 289841 L-126808 289838 L-126762 289837 L-126396 289834 L-126379 289833 L-126324 289832 L-126131 289830 L-125995 289829 L-125920 289828 L-125686 289826 L-125144 289825 L-125104 289824 L-125067 289822 L-125041 289821 L-124406 289818 L-123864 289817 L-122699 289816 L-122339 289814 L-121062 289814 L-121023 289813 L-120985 289813 L-120770 289812 L-120579 289810 L-120502 289809 L-120348 289808 L-120309 289806 L-119220 289805 L-118896 289805 L-118682 289804 L-118421 289804 L-117928 289804 L-117906 289809 L-117489 289814 L-117348 289818 L-117288 289824 L-117211 289824 L-117000 289822 L-115705 289822 L-115429 289821 L-114805 289820 L-113414 289818 L-113341 289817 L-113303 289814 L-113110 289813 L-112720 289812 L-112413 289810 L-112357 289809 L-112041 289809 L-111991 289809 L-111952 289808 L-111907 289806 L-111274 289805 L-110500 289804 L-110061 289802 L-109919 291433 L-109895 291432 L-109879 293063 L-109854 293063 L-109437 291432 L-109233 291430 L-109084 289798 L-109006 289797 L-108952 289795 L-108155 289795 L-108138 289795 L-107275 289795 L-107071 289795 L-106784 289794 L-106668 289793 L-106143 289791 L-105966 289790 L-105662 289789 L-105275 289787 L-105215 289785 L-105159 289783 L-105005 289782 L-103960 289781 L-103398 289781 L-103162 289779 L-103125 289779 L-102856 289779 L-102450 289778 L-100981 289777 L-99240 289775 L-98853 289774 L-98621 289773 L-98522 289771 L-98427 289770 L-98272 289767 L-97709 289767 L-97627 289766 L-97460 289766 L-96918 289767 L-95733 289767 L-95719 289767 L-95659 289767 L-95508 289766 L-95023 289765 L-94376 289763 L-93670 289761 L-93553 289759 L-92586 289758 L-92541 289757 L-91850 289757 L-91794 289755 L-91716 289755 L-91696 289754 L-91675 289753 L-91460 289751 L-90747 289751 L-90357 289750 L-90320 289749 L-90303 289747 L-90245 289746 L-89818 289745 L-89604 289743 L-89529 289741 L-89451 289739 L-89336 289738 L-89271 289738 L-89142 289737 L-89083 289737 L-89008 289734 L-88929 289733 L-88500 289731 L-87775 289730 L-87761 289727 L-87594 289726 L-87378 289723 L-87363 289720 L-86782 289719 L-86510 289718 L-86222 289716 L-85792 289715 L-85639 289714 L-85582 289712 L-85406 289711 L-84010 289710 L-83745 289707 L-82852 289704 L-82326 289703 L-81307 289700 L-81226 289699 L-80762 289698 L-80143 289698 L-79856 289696 L-79603 289696 L-79451 289695 L-79103 289694 L-78386 289692 L-77825 289691 L-76936 289690 L-76627 289690 L-76336 289690 L-75484 289690 L-75463 289690 L-74806 289690 L-74303 289687 L-74092 289686 L-74072 289684 L-73743 289683 L-73684 289683 L-73298 289683 L-72312 289683 L-71751 289683 L-71654 289683 L-71345 289682 L-71268 289682 L-70233 289680 L-70103 289679 L-70046 289678 L-69411 289676 L-69352 289675 L-69276 289674 L-67863 289672 L-67725 289671 L-67592 289670 L-67106 289668 L-66856 289667 L-66566 289666 L-66354 289664 L-65696 289663 L-65128 289660 L-65039 289659 L-64899 289658 L-64825 289656 L-63660 289656 L-63628 289655 L-63198 289655 L-63181 289654 L-63007 289652 L-61479 289651 L-61394 289652 L-60589 289652 L-60396 289652 L-60374 289652 L-59521 289651 L-59327 289650 L-58694 289648 L-58518 289647 L-58399 289645 L-58345 289645 L-58324 289645 L-58268 289645 L-57880 289645 L-57436 289645 L-57357 289644 L-57160 289644 L-57099 289643 L-56836 289641 L-56488 289641 L-56372 289640 L-55223 289640 L-54939 289639 L-54494 289637 L-53291 289636 L-53161 289635 L-52851 289633 L-52422 289632 L-51126 289631 L-50816 291203 L-50800 291203 L-50754 291234 L-50704 291234 L-49776 289659 L-49446 289659 L-48897 289627 L-48770 289625 L-48324 289624 L-46791 289623 L-46622 289621 L-46351 289620 L-46326 289617 L-45422 289616 L-45306 289615 L-44839 289613 L-44817 289612 L-44744 289611 L-44546 289609 L-44394 289608 L-43927 289607 L-43276 289605 L-42790 289604 L-42239 289604 L-41218 289604 L-40911 289604 L-40857 289604 L-40257 289603 L-39827 289601 L-39753 289601 L-39735 289600 L-39514 289600 L-39210 289599 L-39128 289597 L-38824 289597 L-38224 289596 L-38088 289595 L-37818 289593 L-37604 289592 L-37429 289592 L-37220 289592 L-37198 289592 L-36949 289608 L-36500 289624 L-36483 289640 L-36038 289656 L-34830 289656 L-34628 289655 L-33699 289655 L-33638 289654 L-33603 289652 L-32578 289651 L-32461 289651 L-32441 289650 L-32287 289650 L-32268 289650 L-31856 289648 L-31841 289648 L-31803 289647 L-31493 289645 L-31339 289644 L-31134 289644 L-30735 289643 L-29753 289643 L-29228 289643 L-29171 289641 L-29146 289641 L-28824 289640 L-28107 289640 L-27238 289640 L-27199 289640 L-27122 289640 L-26871 289639 L-26851 289637 L-26128 289637 L-25978 289636 L-25865 289636 L-25768 289635 L-24666 289633 L-23911 289632 L-23739 289631 L-23577 289629 L-23501 289628 L-23308 289628 L-22170 289627 L-21485 289627 L-21202 289625 L-20235 289624 L-20216 289623 L-19365 289621 L-19325 289620 L-19182 289619 L-18857 289617 L-18628 289616 L-18590 289615 L-18549 289613 L-18533 289611 L-18397 289609 L-18378 289608 L-18166 289607 L-18106 289605 L-18029 289604 L-18005 289603 L-17930 289601 L-17449 289600 L-17353 289599 L-17277 289597 L-17100 289596 L-17078 289595 L-17023 289593 L-16985 289592 L-16926 289591 L-16771 289589 L-15747 289588 L-15448 289587 L-15321 289585 L-15243 289584 L-14218 289583 L-14161 289581 L-14103 289580 L-14057 289579 L-14043 289577 L-14006 289576 L-13967 289575 L-12788 289573 L-12729 289572 L-12032 289572 L-11413 289571 L-11270 289571 L-10828 289569 L-10562 289568 L-9899 289568 L-9615 289566 L-8145 289566 L-7196 289565 L-7090 289564 L-7024 289564 L-6994 289562 L-6675 289561 L-6654 289561 L-5725 289561 L-5549 289562 L-4817 289564 L-4277 217439 L-4253 145313 L-4227 73187 L-4194 1061 L-4178 1060 L-4157 1057 L-4119 1054 L-4100 1054 L-4077 1057 L-4062 1058 L-4043 1060 L-4023 1060 L-4001 1057 L-3985 1056 L-3965 1054 L-3946 1054 L-3907 1054 L-3867 1052 L-3842 1049 L-3826 1045 L-3808 1042 L-3771 1040 L-3752 1038 L-3733 1037 L-3714 1036 L-3692 1033 L-3675 1032 L-3636 1028 L-3613 1024 L-3598 1022 L-3579 1020 L-3559 1018 L-3539 1017 L-3520 1014 L-3482 1013 L-3424 1011 L-3376 1009 L-3324 1007 L-3298 1005 L-3282 1002 L-3265 1001 L-3249 999 L-3228 998 L-3211 998 L-3191 995 L-3171 994 L-3148 991 L-3133 987 L-3114 985 L-3094 983 L-3073 981 L-3036 978 L-3017 975 L-2996 973 L-2960 970 L-2939 969 L-2913 967 L-2897 966 L-2879 963 L-2862 957 L-2842 950 L-2824 942 L-2804 936 L-2785 932 L-2727 930 L-2707 926 L-2685 923 L-2650 919 L-2630 915 L-2610 912 L-2592 910 L-2573 908 L-2534 907 L-2514 904 L-2496 902 L-2470 900 L-2282 898 L-2262 895 L-2243 894 L-2220 891 L-2186 888 L-2166 886 L-2144 882 L-2127 878 L-2107 874 L-2088 870 L-2068 867 L-2050 864 L-2031 861 L-2010 859 L-1985 856 L-1969 853 L-1934 851 L-1913 849 L-1895 847 L-1876 845 L-1856 843 L-1835 840 L-1799 837 L-1779 835 L-1757 832 L-1741 829 L-1722 827 L-1702 824 L-1682 823 L-1645 820 L-1567 819 L-1542 816 L-1519 813 L-1491 809 L-1468 807 L-1442 804 L-1392 801 L-1372 800 L-1334 796 L-1315 793 L-1293 792 L-1277 789 L-1258 788 L-1237 787 L-1217 785 L-1180 782 L-1160 781 L-1103 780 L-1082 778 L-1056 778 L-1042 777 L-1024 777 L-986 776 L-967 773 L-948 770 L-928 768 L-908 765 L-890 762 L-871 758 L-850 756 L-830 753 L-793 750 L-773 749 L-755 748 L-716 746 L-677 745 L-657 744 L-638 742 L-590 741 L-562 740 L-523 737 L-492 736 L-478 733 L-405 730 L-386 728 L-364 726 L-348 725 L-329 724 L-289 724 L-212 721 L-193 720 L-174 717 L-153 716 L-128 714 L-96 713 L-77 713 L-58 710 L-19 708 L20 703 L99 699 L134 697 L174 694 L251 693 L270 691 L316 690 L337 691 L366 691 L405 689 L435 687 L450 685 L464 682 L505 679 L566 678 L580 675 L599 673 L620 670 L696 666 L735 663 L753 661 L800 659 L817 658 L835 657 L851 655 L890 651 L910 649 L928 645 L950 642 L967 639 L1006 637 L1044 634 L1063 631 L1083 627 L1103 622 L1121 616 L1140 611 L1160 608 L1180 607 L1244 606 L1266 604 L1294 603 L1318 599 L1344 595 L1360 590 L1377 584 L1413 582 L1431 579 L1451 578 L1471 576 L1494 574 L1509 572 L1528 571 L1547 567 L1569 562 L1586 558 L1606 554 L1625 551 L1646 548 L1663 547 L1682 544 L1729 543 L1745 540 L1763 537 L1779 533 L1800 529 L1818 525 L1838 521 L1857 516 L1895 515 L1914 513 L1957 512 L1972 511 L1991 507 L2012 503 L2050 500 L2069 499 L2089 496 L2127 495 L2146 492 L2172 489 L2223 488 L2260 487 L2275 485 L2321 484 L2360 481 L2380 480 L2399 477 L2422 476 L2437 473 L2456 470 L2498 469 L2515 466 L2553 462 L2574 460 L2592 456 L2632 452 L2657 449 L2674 446 L2708 444 L2728 440 L2747 434 L2767 428 L2808 421 L2824 414 L2901 410 L2920 408 L2960 406 L2979 404 L2997 401 L3017 401 L3036 400 L3056 400 L3151 401 L3176 400 L3203 398 L3234 396 L3250 393 L3271 390 L3309 387 L3328 385 L3351 382 L3366 381 L3385 379 L3405 377 L3427 374 L3443 371 L3463 369 L3482 366 L3503 363 L3520 359 L3539 357 L3560 355 L3586 353 L3603 349 L3621 345 L3658 341 L3675 335 L3696 331 L3714 327 L3736 322 L3772 319 L3792 315 L3815 311 L3830 308 L3849 306 L3869 303 L3907 300 L3946 299 L3965 298 L3985 295 L4029 294 L4131 294 L4147 292 L4279 291 L4294 290 L4313 284 L4333 280 L4355 278 L4392 274 L4410 272 L4431 271 L4489 268 L4514 266 L4530 263 L4548 259 L4565 256 L4585 255 L4604 254 L4643 251 L4665 250 L4700 248 L4720 247 L4742 246 L4797 246 L4817 244 L4875 243 L4913 242 L4980 240 L5008 237 L5031 235 L5057 232 L5090 229 L5107 228 L5127 225 L5145 229 L5165 232 L5184 236 L5206 240 L5223 239 L5319 237 L5377 236 L5417 235 L5442 231 L5474 228 L5513 225 L5551 221 L5571 219 L5609 216 L5648 213 L5687 211 L5706 209 L5745 207 L5764 204 L5783 203 L5803 201 L5822 200 L5842 199 L5860 196 L5887 192 L5937 188 L5976 185 L6007 183 L6022 180 L6035 179 L6074 176 L6093 173 L6135 171 L6151 168 L6170 165 L6210 161 L6247 158 L6287 156 L6325 154 L6371 152 L6385 150 L6461 149 L6500 148" />
</svg>
