<svg xmlns="http://www.w3.org/2000/svg" version="1.1" viewBox="0 0 6500 1000">
	<path fill="none" stroke="gold" stroke-width="125" stroke-linecap="round" stroke-linejoin="round" d="M0 5778  L-770852 5778 L-770668 5776 L-770177 5771 L-769884 5769 L-769573 5764 L-769338 5762 L-769285 5757 L-769225 5752 L-769072 5750 L-769032 5745 L-768899 5743 L-768607 5741 L-768066 5741 L-767456 5738 L-767408 5738 L-766768 5736 L-766734 5736 L-766209 5736 L-766076 5734 L-765686 5729 L-765358 5724 L-765241 5720 L-765029 5715 L-764313 5715 L-763743 5713 L-763635 5713 L-763461 5710 L-763240 5706 L-762838 5703 L-762812 5699 L-761884 5694 L-761797 5689 L-761715 5685 L-761645 5680 L-761347 5678 L-761195 5673 L-759305 5675 L-759204 5675 L-758942 5675 L-758648 5678 L-758507 5673 L-758258 5673 L-758222 5671 L-758064 5668 L-757601 5664 L-757348 5661 L-757135 5657 L-756884 5654 L-756535 5652 L-755608 5647 L-755514 5643 L-755103 5640 L-753932 5636 L-752743 5633 L-752651 5629 L-752624 5624 L-752358 5619 L-752059 5615 L-751930 5610 L-751892 5606 L-751078 5606 L-750694 5608 L-749633 5610 L-749572 5610 L-749307 5657 L-748836 5701 L-748643 5745 L-748380 5790 L-748043 5787 L-747907 5785 L-747452 5783 L-746709 5780 L-746691 5778 L-746526 5773 L-746458 5773 L-745941 5771 L-744913 5771 L-744717 5769 L-744228 5766 L-743866 5764 L-743457 5764 L-743072 5766 L-741368 5766 L-741270 5766 L-741199 5766 L-741137 5766 L-740953 5764 L-740616 5764 L-739976 5762 L-739899 5759 L-739838 5759 L-739651 5757 L-739571 5757 L-739394 5755 L-739375 5752 L-739145 5752 L-738757 5750 L-737869 5750 L-737829 5748 L-737741 5745 L-737714 5741 L-736706 5738 L-736556 5734 L-736532 5731 L-736399 5729 L-736359 5727 L-735101 5724 L-735043 5724 L-734503 5722 L-734450 5722 L-734404 5722 L-734009 5720 L-733869 5717 L-733669 5715 L-733523 5715 L-733358 5715 L-733081 5717 L-732723 5717 L-732170 5715 L-731525 5713 L-731266 5708 L-731113 5706 L-730712 5703 L-730672 5701 L-730551 5699 L-730489 5701 L-730475 5701 L-730381 5701 L-730088 5699 L-729937 5689 L-729607 5685 L-729529 5680 L-729453 5678 L-729226 5671 L-729160 5666 L-728932 5661 L-728880 5657 L-728715 5654 L-727709 5652 L-727526 5650 L-726975 5647 L-726582 5643 L-726184 5640 L-725334 5636 L-725256 5633 L-724677 5631 L-724236 5631 L-723995 5629 L-723837 5629 L-723437 5624 L-723416 5624 L-722971 5622 L-722566 5619 L-722430 5615 L-722255 5610 L-722118 5606 L-721868 5601 L-720868 5599 L-720786 5596 L-720651 5594 L-720612 5592 L-719722 5589 L-719506 5587 L-719063 5585 L-718946 5582 L-718889 5580 L-718213 5580 L-718112 5578 L-718084 5578 L-716742 5575 L-716336 5573 L-716296 5571 L-715368 5568 L-715270 5566 L-715137 5564 L-714733 5561 L-714707 5559 L-714614 5557 L-714397 5554 L-713986 5550 L-712833 5545 L-712541 5540 L-712512 5536 L-711904 5533 L-711654 5529 L-711634 5526 L-710705 5524 L-710654 5519 L-710531 5517 L-710514 5512 L-710358 5510 L-710183 5505 L-710046 5503 L-709990 5501 L-709882 5498 L-709796 5496 L-709563 5494 L-709488 5491 L-709180 5489 L-709062 5487 L-708892 5484 L-708801 5482 L-708698 5482 L-708675 5480 L-708598 5480 L-708500 5475 L-708133 5473 L-708029 5470 L-707525 5468 L-707073 5466 L-707035 5463 L-707011 5461 L-706970 5459 L-706842 5456 L-706741 5454 L-706299 5452 L-706017 5449 L-705425 5447 L-705294 5445 L-705020 5440 L-704867 5438 L-704714 5435 L-704629 5431 L-704551 5428 L-704365 5426 L-704315 5426 L-704287 5424 L-704207 5421 L-704184 5419 L-703901 5414 L-703297 5410 L-702302 5407 L-702004 5405 L-701270 5403 L-701025 5400 L-700935 5398 L-700358 5396 L-699660 5393 L-698907 5391 L-698589 5389 L-698206 5384 L-698129 5382 L-697495 5380 L-697309 5377 L-697221 5377 L-697092 5377 L-696779 5375 L-696730 5373 L-696588 5370 L-696566 5368 L-695598 5366 L-695053 5363 L-694575 5363 L-694514 5363 L-694190 5363 L-694168 5361 L-694106 5361 L-693896 5359 L-693819 5356 L-693764 5354 L-693742 5352 L-693703 5349 L-693687 5347 L-692930 5345 L-692913 5342 L-692114 5340 L-691961 5338 L-691056 5335 L-690550 5333 L-690321 5328 L-690279 5328 L-690164 5326 L-689988 5324 L-689233 5326 L-689098 5324 L-688934 5321 L-688616 5319 L-688440 5314 L-687418 5310 L-687395 5305 L-687144 5303 L-686930 5298 L-686297 5296 L-686059 5291 L-686026 5286 L-685848 5282 L-685768 5277 L-685678 5275 L-685614 5270 L-685173 5265 L-685150 5263 L-684609 5261 L-684353 5258 L-683858 5256 L-682981 5254 L-682944 5251 L-682892 5249 L-682850 5247 L-682733 5244 L-682457 5242 L-682250 5237 L-682052 5233 L-682029 5228 L-681979 5223 L-681940 5221 L-681862 5219 L-681264 5214 L-681204 5212 L-681101 5209 L-680947 5207 L-680315 5205 L-679634 5202 L-679331 5198 L-678984 5195 L-678787 5193 L-678739 5188 L-678418 5186 L-677791 5184 L-677644 5181 L-677608 5179 L-677550 5177 L-677473 5172 L-677232 5172 L-677144 5170 L-677049 5168 L-676756 5165 L-676621 5163 L-676561 5161 L-676524 5156 L-676252 5156 L-675246 5154 L-675070 5151 L-675020 5151 L-674727 5149 L-674535 5144 L-674202 5142 L-673695 5140 L-673133 5135 L-673118 5130 L-673101 5128 L-673001 5123 L-672886 5119 L-672847 5114 L-672810 5112 L-672744 5112 L-672716 5109 L-672577 5112 L-672284 5112 L-672234 5112 L-672129 5112 L-671864 5109 L-671399 5107 L-671255 5107 L-671200 5102 L-671143 5100 L-670952 5098 L-670587 5095 L-670373 5095 L-670178 5095 L-670120 5095 L-670061 5091 L-669907 5088 L-669638 5086 L-669208 5098 L-669192 5098 L-669115 5095 L-669051 5093 L-668921 5077 L-668898 5074 L-668614 5072 L-668566 5070 L-668512 5067 L-668049 5065 L-668010 5065 L-667970 5063 L-667779 5060 L-667299 5058 L-666812 5056 L-666796 5053 L-666758 5051 L-666501 5049 L-666424 5044 L-666194 5042 L-666178 5037 L-665883 5032 L-665441 5030 L-664994 5028 L-664490 5025 L-664336 5023 L-664049 5021 L-664009 5016 L-663678 5014 L-663456 5011 L-662939 5007 L-662863 5004 L-662615 5000 L-662421 4995 L-662361 4993 L-661585 4990 L-661511 4990 L-661280 4988 L-661263 4988 L-661202 4986 L-661006 4983 L-660542 4983 L-660519 4981 L-660389 4981 L-659088 4981 L-659072 4981 L-658994 4979 L-658901 4979 L-658683 4979 L-658531 4976 L-658353 4979 L-658299 4981 L-658012 4983 L-657972 4983 L-657603 4983 L-657162 4983 L-656979 4983 L-656658 4981 L-656363 4981 L-655917 4976 L-655845 4974 L-655383 4969 L-654945 4967 L-654763 4965 L-653309 4960 L-653177 4958 L-652720 4953 L-652494 4951 L-652107 4946 L-651591 4942 L-650637 4937 L-649843 4932 L-649168 4930 L-648743 4925 L-648432 4923 L-648202 4916 L-647518 4909 L-647505 4902 L-647295 4893 L-647273 4890 L-647099 4886 L-646149 4883 L-645881 4879 L-645066 4876 L-644755 4872 L-644718 4869 L-644660 4865 L-644043 4862 L-643405 4858 L-641779 4855 L-641106 4853 L-640464 4853 L-640386 4853 L-640330 4853 L-640294 4853 L-640266 4851 L-640154 4846 L-640136 4844 L-640113 4841 L-639960 4839 L-639906 4834 L-639828 4832 L-639709 4830 L-639611 4827 L-639494 4825 L-639224 4820 L-638955 4818 L-638937 4813 L-638737 4811 L-638590 4806 L-638364 4804 L-638230 4802 L-637921 4799 L-637861 4797 L-637508 4792 L-637159 4790 L-637058 4788 L-636994 4783 L-636934 4781 L-636550 4776 L-636169 4774 L-636064 4771 L-635804 4769 L-635533 4764 L-635374 4762 L-635341 4760 L-635279 4757 L-635138 4755 L-634954 4753 L-634910 4750 L-634622 4750 L-634605 4748 L-634372 4748 L-634311 4746 L-634273 4746 L-633693 4743 L-633560 4741 L-633536 4732 L-633518 4716 L-633500 4697 L-633484 4678 L-633460 4660 L-633444 4646 L-633423 4629 L-633406 4613 L-633383 4604 L-633366 4594 L-633344 4587 L-633328 4583 L-633279 4576 L-633206 4569 L-633172 4557 L-633148 4548 L-633112 4538 L-633071 4529 L-633034 4524 L-633018 4515 L-632994 4508 L-632957 4504 L-632940 4497 L-632917 4492 L-632899 4487 L-632881 4483 L-632865 4478 L-632835 4471 L-632809 4464 L-632764 4462 L-632748 4457 L-632706 4455 L-632658 4450 L-632587 4445 L-632572 4441 L-632556 4436 L-632493 4434 L-632454 4431 L-632415 4429 L-632249 4427 L-632184 4424 L-632168 4422 L-632124 4417 L-632065 4415 L-631853 4413 L-631819 4410 L-631777 4408 L-631699 4406 L-631161 4403 L-631083 4401 L-630979 4396 L-630890 4394 L-630714 4392 L-630364 4389 L-630208 4387 L-629770 4385 L-629613 4382 L-629483 4380 L-628779 4375 L-628578 4373 L-627618 4368 L-627135 4366 L-627036 4366 L-626944 4364 L-626699 4361 L-626626 4359 L-626183 4354 L-626087 4352 L-626072 4350 L-626056 4347 L-626031 4345 L-625565 4343 L-625348 4340 L-625208 4338 L-624915 4336 L-624826 4333 L-624785 4331 L-624755 4329 L-624582 4326 L-624523 4324 L-624447 4322 L-624367 4319 L-624297 4319 L-623988 4317 L-623903 4315 L-623689 4312 L-623654 4310 L-622970 4308 L-622871 4305 L-622666 4303 L-622620 4301 L-622341 4298 L-622279 4296 L-622262 4291 L-622184 4289 L-621876 4285 L-621852 4282 L-621798 4278 L-621775 4275 L-621653 4273 L-621517 4268 L-621273 4266 L-621147 4266 L-620500 4264 L-620484 4264 L-620460 4264 L-620279 4259 L-620203 4257 L-620111 4254 L-619684 4252 L-619267 4250 L-618874 4245 L-618796 4243 L-618777 4240 L-618414 4238 L-618177 4236 L-617949 4233 L-617636 4231 L-617558 4229 L-617477 4224 L-617299 4219 L-617284 4217 L-617018 4212 L-616938 4210 L-616708 4208 L-616482 4205 L-616166 4205 L-615991 4203 L-615630 4203 L-615238 4201 L-615169 4196 L-615105 4194 L-614965 4189 L-614913 4187 L-614811 4182 L-614309 4180 L-614112 4177 L-613865 4175 L-613680 4173 L-613380 4170 L-613304 4168 L-613138 4163 L-612254 4161 L-612225 4156 L-612102 4152 L-611524 4149 L-611446 4147 L-610732 4147 L-610420 4147 L-610207 4147 L-610190 4147 L-609804 4147 L-609279 4142 L-608833 4140 L-608503 4138 L-608350 4135 L-608024 4135 L-607846 4133 L-607765 4133 L-607558 4128 L-607383 4126 L-606454 4124 L-605565 4121 L-605525 4119 L-605297 4119 L-604918 4117 L-604131 4114 L-603896 4112 L-603821 4110 L-603463 4107 L-602891 4103 L-602624 4100 L-602238 4098 L-602134 4098 L-601964 4098 L-601346 4098 L-601135 4098 L-600827 4098 L-600774 4096 L-600646 4093 L-600593 4091 L-600474 4089 L-600138 4084 L-599178 4082 L-599047 4077 L-598845 4075 L-598214 4072 L-597903 4070 L-597489 4068 L-597461 4066 L-597316 4063 L-596896 4061 L-595563 4061 L-595516 4059 L-595388 4054 L-595371 4052 L-594793 4047 L-594587 4045 L-594558 4042 L-594517 4040 L-594460 4038 L-594422 4035 L-594344 4033 L-594201 4031 L-593746 4028 L-593628 4026 L-593343 4024 L-592970 4021 L-592874 4019 L-592547 4017 L-592193 4014 L-592023 4012 L-591975 4010 L-591866 4007 L-591777 4005 L-591750 4003 L-591673 3998 L-591370 3996 L-591336 3991 L-591264 3989 L-590896 3986 L-590561 3984 L-590480 3984 L-590260 3982 L-590089 3979 L-590061 3977 L-589564 3975 L-589015 3970 L-588134 3968 L-588036 3963 L-587959 3961 L-587684 3958 L-587437 3954 L-587363 3951 L-587302 3947 L-587183 3944 L-587140 3942 L-587030 3940 L-586953 3935 L-586253 3933 L-586007 3930 L-585968 3928 L-585811 3926 L-585212 3926 L-584985 3926 L-584893 3926 L-584418 3926 L-583821 3921 L-583301 3919 L-583280 3916 L-583134 3914 L-582814 3914 L-582273 3914 L-582041 3914 L-581870 3914 L-581384 3912 L-581156 3909 L-581071 3907 L-580725 3905 L-580399 3905 L-579876 3902 L-579549 3900 L-578948 3898 L-578751 3893 L-578699 3891 L-578658 3888 L-578377 3886 L-577692 3881 L-577382 3879 L-577357 3874 L-577166 3872 L-576943 3870 L-576857 3867 L-576194 3863 L-576169 3860 L-575947 3856 L-575618 3853 L-575266 3849 L-575061 3847 L-574828 3842 L-574570 3840 L-574381 3835 L-574334 3833 L-574106 3830 L-574072 3828 L-573915 3826 L-573701 3823 L-573528 3821 L-573437 3819 L-573159 3816 L-572916 3814 L-572600 3812 L-572174 3812 L-572137 3812 L-571653 3812 L-571420 3812 L-571208 3809 L-570982 3807 L-570432 3807 L-570185 3805 L-569351 3805 L-569295 3802 L-569273 3800 L-569115 3798 L-568654 3795 L-568613 3793 L-568273 3788 L-568140 3786 L-567917 3784 L-567345 3781 L-566873 3779 L-566679 3777 L-566486 3774 L-566296 3772 L-566194 3770 L-565826 3767 L-565780 3765 L-565698 3763 L-564405 3760 L-564357 3758 L-564088 3758 L-563943 3758 L-563392 3758 L-563276 3756 L-563194 3753 L-562835 3751 L-562611 3749 L-562330 3746 L-562001 3742 L-561493 3739 L-561380 3737 L-561301 3735 L-561137 3732 L-560843 3732 L-560374 3732 L-560177 3735 L-560127 3735 L-559477 3732 L-559355 3730 L-558901 3730 L-558865 3728 L-558397 3725 L-558286 3723 L-558270 3721 L-558054 3721 L-557873 3718 L-557341 3718 L-556312 3718 L-556112 3716 L-555654 3714 L-554706 3709 L-554607 3707 L-554253 3702 L-554192 3700 L-554178 3697 L-554143 3695 L-553773 3693 L-553653 3690 L-553411 3688 L-553247 3686 L-553060 3683 L-552939 3681 L-551869 3676 L-551010 3674 L-550798 3669 L-550701 3667 L-550527 3662 L-550194 3660 L-550122 3658 L-550064 3655 L-549889 3655 L-549500 3653 L-549265 3651 L-549153 3648 L-549036 3646 L-548056 3644 L-548030 3641 L-547436 3637 L-547403 3637 L-547255 3634 L-546970 3632 L-546058 3632 L-545112 3632 L-544959 3630 L-544857 3630 L-544725 3627 L-544582 3625 L-544556 3623 L-544441 3621 L-544223 3618 L-543542 3616 L-543412 3614 L-543109 3611 L-542869 3607 L-542537 3604 L-541898 3602 L-541555 3597 L-541494 3595 L-541338 3595 L-540416 3595 L-539946 3595 L-539902 3595 L-539890 3593 L-539848 3590 L-539826 3588 L-539799 3586 L-539655 3583 L-539233 3581 L-538898 3581 L-538706 3579 L-538278 3579 L-538090 3576 L-537701 3572 L-537167 3569 L-536794 3567 L-536773 3567 L-536523 3565 L-536404 3562 L-536329 3560 L-536193 3558 L-536153 3555 L-536074 3553 L-535679 3551 L-535183 3548 L-535071 3544 L-534898 3541 L-534590 3539 L-534143 3537 L-533820 3534 L-533677 3530 L-533250 3525 L-533097 3520 L-533042 3516 L-532228 3513 L-532208 3511 L-531836 3509 L-531779 3509 L-530650 3506 L-530582 3506 L-530024 3504 L-529829 3502 L-529693 3499 L-529460 3497 L-529113 3495 L-529078 3490 L-529043 3488 L-528974 3483 L-528626 3481 L-528453 3478 L-527969 3476 L-527952 3474 L-527627 3471 L-527470 3469 L-526329 3464 L-526304 3462 L-526112 3457 L-525919 3455 L-525669 3453 L-525651 3450 L-524631 3448 L-524333 3446 L-524258 3443 L-524122 3439 L-523946 3436 L-523369 3432 L-523154 3429 L-523090 3427 L-522959 3425 L-522922 3420 L-522399 3418 L-522261 4336 L-522247 4336 L-522224 4336 L-522204 4336 L-521977 3415 L-521201 3415 L-521159 3415 L-520791 3415 L-520713 3413 L-520661 3411 L-519988 3408 L-519245 3406 L-518821 3406 L-518373 3404 L-517311 3402 L-517000 3397 L-516590 3397 L-516518 3395 L-515993 3395 L-515899 3395 L-515881 3395 L-515436 3392 L-515251 3388 L-514470 3383 L-513798 3381 L-513386 3374 L-513154 3369 L-513013 3367 L-512932 3362 L-512912 3360 L-512836 3360 L-512707 3357 L-512390 3360 L-512166 3360 L-511841 3357 L-511779 3357 L-511409 3357 L-511376 3357 L-511167 3357 L-510500 3357 L-510422 3357 L-510264 3353 L-510154 3353 L-509827 3350 L-509672 3348 L-509331 3348 L-509274 3343 L-508936 3339 L-508733 3336 L-508680 3332 L-507303 3329 L-507174 3327 L-506740 3325 L-506420 3322 L-505592 3318 L-505469 3315 L-504738 3311 L-504582 3306 L-504541 3304 L-504487 3301 L-504464 3299 L-504350 3297 L-504054 3294 L-503764 3292 L-503710 3290 L-503589 3287 L-503559 3285 L-503459 3283 L-503015 3283 L-502863 3280 L-502028 3280 L-501486 3278 L-501151 3278 L-501136 3276 L-501060 3273 L-500944 3271 L-500749 3269 L-500485 3266 L-499651 3264 L-499554 3262 L-499033 3259 L-498991 3257 L-498892 3255 L-498063 3255 L-497928 3252 L-497590 3252 L-497036 3250 L-496656 3248 L-496493 3245 L-496183 3243 L-495370 3241 L-495064 3238 L-494796 3238 L-494474 3238 L-494153 3241 L-493878 3241 L-493049 3236 L-492954 3234 L-492862 3227 L-492757 3220 L-492370 3213 L-491890 3208 L-491874 3206 L-491755 3203 L-491387 3199 L-491293 3196 L-490459 3192 L-490382 3189 L-490082 3187 L-489991 3185 L-489584 3180 L-489474 3176 L-488775 3173 L-488302 3171 L-488241 3169 L-488023 3164 L-487749 3162 L-487636 3159 L-486609 3157 L-486222 3155 L-486202 3152 L-485869 3150 L-485624 3148 L-485191 3145 L-485081 3143 L-484964 3141 L-484512 3136 L-483921 3134 L-483585 3131 L-481692 3129 L-481578 3124 L-481367 3122 L-480048 3120 L-479942 2595 L-479876 2078 L-479840 1601 L-479778 1601 L-479278 2120 L-478603 2633 L-478581 3106 L-478311 3101 L-477343 3101 L-476653 3099 L-476491 3096 L-475951 3094 L-475861 3092 L-474842 3089 L-473894 3085 L-473528 3087 L-473425 3089 L-472837 3089 L-472778 3089 L-472677 3087 L-472237 3082 L-472130 3080 L-471688 3078 L-470688 3071 L-470432 3064 L-470329 3057 L-470199 3052 L-469832 3047 L-469251 3043 L-469220 3040 L-468905 3038 L-466922 3036 L-466806 3033 L-466738 3033 L-466380 3031 L-464761 3029 L-464583 3029 L-464439 3029 L-463617 3031 L-463564 3033 L-463509 3033 L-463075 3033 L-462095 3036 L-462021 3036 L-460936 3033 L-460723 3033 L-460007 3029 L-459619 3026 L-459400 3022 L-459080 3017 L-458587 3012 L-458459 3010 L-458230 3005 L-457998 3001 L-457939 2998 L-457649 2996 L-457377 2991 L-456347 2989 L-454682 2987 L-454263 2984 L-454126 2982 L-453969 2982 L-453664 2980 L-453436 2975 L-453278 2973 L-453118 2968 L-452949 2964 L-452902 2961 L-452848 2959 L-452827 2959 L-452441 2957 L-452191 2957 L-451920 2957 L-451760 2957 L-451670 2957 L-450011 2957 L-449846 2959 L-449466 2957 L-449006 2957 L-448396 2952 L-447303 2950 L-446872 2947 L-446841 2945 L-446778 2943 L-446761 2940 L-445057 2938 L-445015 2936 L-444549 2933 L-444362 2931 L-444330 2926 L-443735 2924 L-443685 2922 L-443362 2919 L-443311 2917 L-443101 2915 L-443083 2912 L-442817 2908 L-442764 2905 L-442295 2903 L-441785 2898 L-441706 2898 L-441412 2896 L-441395 2894 L-441357 2891 L-441286 2889 L-441128 2887 L-440182 2887 L-440126 2887 L-439605 2887 L-439413 2884 L-439312 2884 L-439086 2882 L-438576 2882 L-438188 2945 L-438118 2945 L-437770 2943 L-437413 2940 L-436284 2873 L-436233 2868 L-436007 2866 L-435973 2863 L-435848 2859 L-435749 2859 L-435484 2859 L-434744 2861 L-434166 2861 L-433872 2861 L-433166 2861 L-432987 2859 L-432964 2859 L-432328 2856 L-432017 2854 L-431621 2854 L-431591 2852 L-431570 2849 L-431416 2847 L-430731 2847 L-430715 2847 L-430375 2847 L-430102 2845 L-430065 2842 L-430009 2838 L-429987 2835 L-429915 2833 L-429583 2831 L-429477 2828 L-429448 2824 L-429250 2821 L-429097 2819 L-428229 2817 L-427667 2812 L-427651 2812 L-427549 2810 L-427447 2812 L-427301 2812 L-427222 2812 L-427185 2810 L-427129 2807 L-427056 2805 L-426911 2803 L-426429 2803 L-426025 2800 L-425158 2803 L-425138 2803 L-424881 2803 L-424804 2803 L-424775 2800 L-424764 2796 L-424747 2793 L-424454 2791 L-424415 2789 L-424343 2786 L-424269 2784 L-424064 2782 L-423904 2775 L-423603 2768 L-423526 2758 L-423508 2751 L-423292 2747 L-423061 2747 L-422951 2749 L-422581 2751 L-422423 2751 L-422191 2751 L-422023 2751 L-421878 2749 L-421746 2747 L-420470 2742 L-420067 2738 L-420006 2735 L-419889 2731 L-419464 2728 L-419448 2724 L-419387 2721 L-419113 2717 L-419001 2714 L-418719 2710 L-418441 2707 L-418016 2703 L-417994 2700 L-417916 2698 L-417790 2696 L-417204 2693 L-416812 2691 L-416477 2689 L-415888 2686 L-415785 2686 L-415615 2684 L-415479 2684 L-414651 2682 L-413466 2679 L-413430 2677 L-413374 2677 L-413154 2675 L-412949 2675 L-412794 2675 L-412537 2672 L-412461 2670 L-411918 2668 L-411882 2665 L-411633 2663 L-411245 2661 L-410420 2658 L-410061 2656 L-409751 2656 L-409493 2654 L-409269 2651 L-408863 2649 L-408747 2647 L-408563 2644 L-408510 2644 L-408322 2642 L-408151 2640 L-408122 2637 L-407842 2635 L-407531 2633 L-407393 2630 L-407083 2628 L-406890 2628 L-406874 2626 L-406155 2626 L-406021 2621 L-405724 2619 L-405633 2616 L-405032 2616 L-404994 2614 L-404916 2612 L-404295 2609 L-404144 2605 L-404103 2602 L-403793 2600 L-403601 2598 L-403408 2593 L-403352 2588 L-403043 2586 L-402991 2584 L-402937 2586 L-402911 2586 L-402786 2586 L-401975 2584 L-401899 2581 L-401358 2579 L-401090 2577 L-400430 2574 L-399523 2572 L-399281 2570 L-398749 2567 L-398532 2565 L-397424 2567 L-397374 2567 L-396598 2567 L-396051 2565 L-395940 2563 L-395787 2558 L-395731 2556 L-395566 2553 L-395189 2551 L-394741 2549 L-394687 2546 L-394532 2544 L-393852 2542 L-393632 2539 L-393114 2537 L-392265 2532 L-392249 2530 L-390458 2528 L-389904 2526 L-389787 2523 L-388781 2521 L-388744 2519 L-388512 2519 L-388419 2519 L-388379 2519 L-388047 2516 L-387695 2514 L-387430 2509 L-387143 2507 L-386833 2502 L-386578 2498 L-386485 2495 L-385995 2493 L-385787 2491 L-385222 2488 L-385107 2491 L-384756 2488 L-384705 2488 L-384665 2488 L-384061 2484 L-383327 2479 L-382746 2474 L-382511 2470 L-381970 2463 L-381818 2458 L-381316 2456 L-381107 2451 L-381084 2451 L-381025 2449 L-380062 2449 L-379884 2446 L-379443 2444 L-379418 2439 L-379263 2437 L-379182 2437 L-379031 2439 L-378384 2439 L-378335 2437 L-377215 2435 L-376231 2432 L-376169 2430 L-375448 2428 L-374584 2425 L-374205 2423 L-373986 2423 L-373226 2421 L-373174 2418 L-372865 2414 L-372014 2414 L-371821 2411 L-371644 2409 L-371420 2409 L-371293 2407 L-371101 2407 L-370868 2404 L-370699 2407 L-370412 2404 L-370133 2404 L-370050 2402 L-369879 2400 L-369863 2395 L-369709 2393 L-369670 2390 L-368894 2388 L-368818 2388 L-368585 2383 L-368159 2381 L-367813 2379 L-367230 2376 L-366961 2376 L-366702 2376 L-366573 2372 L-366557 2369 L-366443 2367 L-366419 2365 L-366185 2362 L-366149 2360 L-364833 2360 L-364777 2358 L-364098 2353 L-363526 2353 L-363400 2353 L-363247 2353 L-363170 2353 L-362858 2348 L-362585 2346 L-362496 2341 L-362394 2341 L-361466 2339 L-361390 2339 L-361026 2339 L-361002 2337 L-360965 2334 L-360190 2330 L-360098 2327 L-359958 2325 L-359556 2323 L-359294 2323 L-359051 2325 L-358837 2323 L-358756 2323 L-358680 2323 L-358603 2323 L-358417 2325 L-358350 2325 L-358100 2325 L-358045 2323 L-357908 2320 L-357828 2316 L-357715 2313 L-357492 2311 L-357327 2309 L-357286 2306 L-357117 2304 L-356746 2302 L-356731 2300 L-356615 2297 L-355894 2295 L-355858 2293 L-355725 2293 L-355378 2290 L-354966 2290 L-354930 2290 L-354852 2288 L-354813 2286 L-354449 2283 L-354245 2281 L-354230 2279 L-353884 2276 L-353536 2276 L-353210 2276 L-353108 2274 L-352955 2274 L-352761 2272 L-352529 2272 L-352437 2272 L-352281 2272 L-352204 2272 L-352163 2269 L-352050 2267 L-352027 2265 L-351776 2265 L-351637 2260 L-351059 2253 L-350231 2248 L-349743 2244 L-349622 2241 L-349583 2239 L-349571 2237 L-349418 2232 L-349318 2227 L-349085 2225 L-348694 2220 L-348390 2218 L-348374 2216 L-348204 2213 L-347965 2209 L-347369 2209 L-346765 2206 L-346725 2206 L-346685 2206 L-346532 2204 L-346478 2202 L-346416 2199 L-346348 2197 L-346293 2192 L-346268 2190 L-346221 2188 L-346127 2183 L-345989 2181 L-345836 2178 L-345704 2176 L-345663 2176 L-345627 2174 L-345566 2171 L-345292 2167 L-344978 2164 L-344937 2160 L-344852 2157 L-344674 2155 L-344437 2153 L-344079 2150 L-344050 2148 L-343480 2146 L-343358 2143 L-343122 2141 L-343099 2141 L-342817 2139 L-342532 2139 L-342277 2139 L-341705 2136 L-341408 2134 L-341332 2132 L-340633 2129 L-340555 2127 L-340520 2125 L-340494 2122 L-340442 2118 L-340248 2115 L-340108 2111 L-340072 2108 L-340032 2106 L-339437 2104 L-339204 2101 L-338921 2118 L-338866 2132 L-338792 2148 L-338714 2162 L-338478 2157 L-338234 2155 L-338099 2153 L-337992 2150 L-337913 2148 L-337525 2143 L-337399 2141 L-337246 2139 L-337208 2136 L-337062 2134 L-336841 2132 L-336667 2129 L-336598 2127 L-335776 2122 L-335760 2122 L-335466 2120 L-334678 2118 L-334368 2118 L-334222 2115 L-333994 2113 L-333793 2108 L-332856 2106 L-332819 2104 L-332797 2101 L-332756 2097 L-332487 2094 L-331891 2092 L-331827 2090 L-331792 2087 L-331775 2085 L-331080 2085 L-330878 2085 L-330846 2085 L-330513 2085 L-330405 2083 L-329780 2078 L-329276 2076 L-329239 2071 L-328797 2071 L-328701 2069 L-328542 2069 L-328229 2069 L-328216 2069 L-327776 2071 L-327294 2074 L-327165 2074 L-326845 2074 L-326777 2071 L-326473 2071 L-326297 2069 L-326103 2067 L-325860 2062 L-325663 2057 L-325637 2053 L-325059 2050 L-324989 2048 L-324579 2046 L-324525 2043 L-324479 2041 L-324115 2039 L-323968 2036 L-323763 2034 L-323667 2034 L-323512 2032 L-323450 2029 L-323303 2025 L-323202 2022 L-322645 2022 L-322623 2027 L-322451 2029 L-321909 2032 L-321848 2032 L-321794 2027 L-321766 2022 L-321694 2020 L-321678 2015 L-321614 2013 L-321578 2008 L-321423 2006 L-321098 2004 L-320532 2001 L-320517 1999 L-320455 1994 L-320354 1990 L-320307 1990 L-320065 1987 L-319643 1987 L-319488 1987 L-317746 1983 L-317204 1980 L-316261 1978 L-315852 1976 L-315311 1971 L-315114 1969 L-314946 1966 L-314650 1964 L-314535 1962 L-314520 1962 L-314365 1959 L-314225 1957 L-314149 1952 L-314017 1952 L-313669 1952 L-313298 1955 L-312700 1955 L-312525 1955 L-312368 1952 L-312099 1950 L-311948 1950 L-311657 1957 L-311633 1962 L-311550 1966 L-311323 1971 L-310623 1969 L-310496 1966 L-310065 1964 L-309971 1962 L-308766 1962 L-308717 1959 L-308424 1959 L-308020 1957 L-307744 1952 L-307725 1950 L-307607 1948 L-307531 1945 L-307350 1943 L-306870 1941 L-306418 1936 L-306008 1934 L-305978 1931 L-305559 1929 L-305445 1929 L-305327 1929 L-305312 1929 L-305118 1927 L-305096 1922 L-304864 1920 L-304421 1917 L-304101 1913 L-303636 1913 L-303471 1910 L-303316 1908 L-303160 1908 L-302707 1908 L-302388 1908 L-302333 1910 L-301962 1910 L-301924 1913 L-301598 1913 L-301481 1910 L-301382 1908 L-301056 1903 L-300669 1901 L-300408 1899 L-300050 1894 L-299793 1892 L-297623 1889 L-297574 1887 L-297551 1885 L-297140 1885 L-297078 1885 L-297008 1887 L-296777 1887 L-296467 1885 L-296163 1880 L-296119 1878 L-295811 1875 L-295678 1873 L-295462 1871 L-294749 1868 L-294594 1868 L-294456 1866 L-294307 1866 L-294286 1866 L-294092 1864 L-294066 1862 L-293975 1859 L-293953 1857 L-293937 1855 L-293837 1852 L-292908 1850 L-292450 1850 L-291358 1845 L-290936 1845 L-290532 1843 L-290493 1841 L-290240 1838 L-289465 1834 L-289449 1831 L-289425 1829 L-289232 1827 L-288495 1824 L-288226 1822 L-288185 1820 L-287786 1815 L-287762 1813 L-286972 1810 L-286292 1808 L-284921 1806 L-284651 1803 L-284603 1801 L-284065 1796 L-284032 1794 L-283930 1789 L-283607 1787 L-283527 1785 L-283258 1785 L-282346 1782 L-282207 1782 L-281958 1778 L-281413 1778 L-280991 1775 L-280798 1773 L-280782 1773 L-280644 1768 L-280550 1766 L-280423 1764 L-280163 1761 L-280138 1757 L-280047 1754 L-279737 1752 L-279676 1750 L-279560 1750 L-279210 1750 L-278399 1750 L-278168 1745 L-277339 1745 L-277107 1740 L-276890 1738 L-276372 1738 L-275734 1736 L-275317 1733 L-274995 1731 L-274514 1729 L-274089 1729 L-274027 1726 L-273679 1726 L-273638 1724 L-273625 1722 L-273525 1717 L-273480 1717 L-272994 1715 L-272193 1715 L-271858 1715 L-270777 1712 L-270297 1710 L-270274 1708 L-270134 1705 L-269579 1703 L-268882 1701 L-268573 1698 L-268351 1696 L-268246 1694 L-268144 1689 L-267473 1687 L-267379 1684 L-267357 1684 L-267279 1682 L-267101 1682 L-266929 1682 L-266748 1680 L-266735 1677 L-266659 1675 L-266495 1673 L-265980 1670 L-265964 1668 L-265823 1668 L-265461 1666 L-265437 1666 L-265306 1663 L-265281 1661 L-264919 1659 L-264394 1654 L-264300 1652 L-264084 1647 L-263991 1645 L-263966 1643 L-263502 1640 L-263425 1640 L-263023 1638 L-262573 1638 L-261321 1636 L-261282 1633 L-260850 1631 L-260818 1629 L-260099 1626 L-259922 1624 L-259787 1622 L-259480 1619 L-259425 1617 L-259400 1612 L-259384 1608 L-259209 1605 L-259020 1603 L-258512 1603 L-258139 1584 L-257800 1563 L-257762 1545 L-257043 1528 L-256949 1526 L-256910 1524 L-256369 1524 L-256346 1521 L-255943 1519 L-255517 1517 L-255246 1517 L-255067 1514 L-254821 1510 L-254797 1507 L-254741 1503 L-254124 1500 L-253622 1498 L-253234 1498 L-252615 1500 L-252399 1500 L-252244 1503 L-250952 1498 L-250853 1496 L-250410 1491 L-250079 1489 L-249778 1484 L-249536 1482 L-248801 1477 L-248222 1475 L-247392 1472 L-247292 1470 L-246735 1468 L-246597 1465 L-244955 1463 L-244894 1463 L-244800 1463 L-243833 1463 L-243656 1461 L-243369 1461 L-243151 1461 L-243073 1458 L-242801 1458 L-242686 1456 L-242533 1454 L-242222 1451 L-242144 1449 L-242053 1449 L-241976 1447 L-241860 1447 L-241681 1444 L-241589 1442 L-241550 1440 L-241047 1440 L-240829 1437 L-240699 1437 L-240544 1435 L-240490 1433 L-240365 1433 L-239980 1430 L-239472 1428 L-239399 1426 L-238919 1424 L-238842 1421 L-238742 1421 L-238508 1419 L-238044 1419 L-237814 1419 L-237797 1419 L-237565 1419 L-237410 1419 L-237349 1419 L-237156 1417 L-236885 1412 L-236133 1410 L-235180 1410 L-235144 1407 L-234919 1407 L-234479 1407 L-234199 1403 L-233850 1400 L-232781 1398 L-231853 1398 L-231723 1398 L-231676 1398 L-231607 1396 L-231452 1396 L-231374 1391 L-231201 1386 L-230766 1382 L-230562 1379 L-230502 1375 L-229919 1372 L-229765 1368 L-229650 1365 L-229609 1363 L-229439 1361 L-229303 1358 L-229092 1354 L-229014 1351 L-228991 1349 L-228782 1344 L-228372 1342 L-228348 1340 L-228125 1337 L-227979 1335 L-227945 1333 L-227931 1330 L-227909 1328 L-227675 1326 L-227490 1323 L-227273 1321 L-227247 1319 L-226558 1316 L-226454 1314 L-226419 1312 L-226398 1309 L-226204 1307 L-226151 1305 L-226034 1300 L-225953 1300 L-225842 1298 L-225527 1295 L-225068 1293 L-224813 1291 L-224578 1286 L-224449 1284 L-224096 1281 L-224037 1279 L-223884 1277 L-223312 1272 L-223225 1270 L-223072 1265 L-222776 1260 L-222406 1256 L-222103 1251 L-222027 1249 L-221622 1246 L-221454 1246 L-221310 1246 L-220770 1246 L-220709 1246 L-220693 1242 L-220527 1239 L-220321 1237 L-220246 1237 L-220154 1235 L-219744 1232 L-219728 1230 L-219705 1230 L-219512 1228 L-219435 1249 L-219264 1270 L-219202 1288 L-219187 1309 L-218672 1307 L-218451 1305 L-217832 1300 L-217578 1298 L-217384 1295 L-217345 1293 L-217271 1293 L-217206 1293 L-216556 1293 L-216517 1295 L-216343 1295 L-216277 1295 L-215603 1295 L-215214 1291 L-214952 1288 L-214715 1286 L-214637 1281 L-214621 1277 L-214419 1274 L-214048 1270 L-213823 1267 L-213187 1265 L-213167 1265 L-212780 1263 L-212687 1263 L-212628 1260 L-212352 1258 L-212043 1258 L-211966 1256 L-211114 1258 L-210772 1270 L-210335 1284 L-209901 1295 L-209406 1307 L-209256 1305 L-208988 1307 L-207750 1309 L-207693 1314 L-205930 1316 L-205739 1314 L-204729 1312 L-204578 1309 L-204202 1314 L-203882 1319 L-203276 1323 L-203207 1328 L-203029 1326 L-202201 1323 L-202062 1321 L-201676 1319 L-201491 1316 L-201448 1314 L-201328 1312 L-201118 1309 L-200670 1305 L-200322 1302 L-200190 1300 L-199781 1298 L-199431 1298 L-199145 1295 L-198952 1293 L-198797 1293 L-198633 1291 L-198565 1288 L-198465 1288 L-198232 1286 L-198115 1286 L-198062 1284 L-197520 1284 L-197056 1281 L-195874 1281 L-195741 1281 L-195716 1281 L-195663 1281 L-194996 1281 L-193961 1277 L-193767 1274 L-193587 1272 L-193436 1272 L-193395 1270 L-193380 1270 L-193319 1267 L-192994 1265 L-191833 1263 L-191639 1260 L-191462 1258 L-190348 1256 L-189489 1253 L-189382 1253 L-188909 1251 L-188716 1251 L-186394 1249 L-186317 1246 L-186195 1242 L-186161 1239 L-186124 1235 L-186029 1228 L-185814 1223 L-185232 1218 L-184846 1216 L-184073 1214 L-183995 1211 L-183298 1211 L-182756 1211 L-182716 1209 L-182585 1209 L-182121 1207 L-182083 1204 L-181948 1202 L-181580 1200 L-181550 1198 L-181400 1198 L-181000 1195 L-179176 1198 L-178369 1195 L-177650 1195 L-177633 1195 L-177320 1191 L-176758 1188 L-176257 1186 L-175738 1184 L-175716 1181 L-173972 1179 L-173803 1177 L-173608 1174 L-172714 1172 L-172195 1167 L-171985 1165 L-171727 1163 L-171017 1160 L-170067 1158 L-169409 1156 L-169370 1151 L-169083 1149 L-169001 1146 L-168905 1146 L-168773 1144 L-168696 1144 L-167961 1144 L-167624 1142 L-167574 1144 L-167319 1144 L-167032 1142 L-166607 1142 L-166026 1139 L-165767 1139 L-165616 1137 L-165369 1137 L-165330 1137 L-164533 1135 L-164495 1132 L-164318 1132 L-163909 1128 L-163681 1128 L-163604 1128 L-163473 1128 L-163357 1125 L-163008 1123 L-162945 1121 L-162793 1118 L-162052 1116 L-161941 1114 L-161770 1111 L-161731 1109 L-161437 1109 L-161035 1109 L-160859 1109 L-160764 1109 L-160455 1107 L-159654 1104 L-159195 1100 L-158675 1097 L-158186 1095 L-157491 1093 L-156445 1090 L-156176 1090 L-156121 1088 L-155961 1088 L-155710 1088 L-155464 1086 L-155385 1083 L-155170 1079 L-154858 1076 L-154395 1072 L-154380 1069 L-154084 1069 L-154071 1067 L-153080 1065 L-152407 1062 L-152073 1058 L-151456 1058 L-151319 1055 L-150680 1053 L-150550 1051 L-149599 1046 L-149500 1041 L-148940 1039 L-148532 1039 L-148103 1039 L-148012 1037 L-147177 1037 L-146814 1037 L-146775 1039 L-146642 1041 L-146466 1041 L-146249 1041 L-146195 1039 L-146038 1034 L-145785 1032 L-144685 1030 L-144608 1027 L-144388 1025 L-144257 1020 L-144221 1018 L-144028 1016 L-143928 1013 L-143444 1011 L-143160 1009 L-143000 1006 L-142905 1002 L-142634 999 L-142364 997 L-142348 988 L-142209 981 L-142071 974 L-141744 965 L-141435 960 L-141394 958 L-141319 953 L-141203 951 L-140353 946 L-140026 944 L-139695 941 L-139562 941 L-139346 941 L-139330 941 L-138650 941 L-138556 937 L-138533 934 L-138517 930 L-138479 927 L-138067 923 L-137797 920 L-137757 918 L-137389 918 L-137179 916 L-136096 916 L-136080 913 L-136051 911 L-136031 911 L-135654 906 L-135399 904 L-135151 899 L-135012 895 L-134880 892 L-134548 890 L-134455 888 L-134394 885 L-133836 883 L-133775 881 L-133619 878 L-133425 876 L-133232 874 L-133217 871 L-133178 869 L-133139 867 L-132869 864 L-132745 862 L-132713 860 L-132614 860 L-132458 860 L-132317 860 L-132033 857 L-131707 857 L-131011 855 L-130989 855 L-130479 855 L-129633 855 L-129270 853 L-129116 850 L-128512 850 L-128342 850 L-128281 850 L-128226 848 L-127170 846 L-127152 846 L-126246 846 L-126225 846 L-126058 843 L-125815 843 L-125765 841 L-125711 836 L-125573 834 L-125534 832 L-124605 829 L-124550 829 L-124428 829 L-124356 829 L-124241 829 L-124062 832 L-123080 829 L-122940 829 L-122823 825 L-122528 820 L-122281 818 L-122244 815 L-122189 818 L-122168 818 L-122035 818 L-121956 818 L-121818 815 L-121195 815 L-121029 813 L-120564 813 L-120388 808 L-120372 806 L-120311 804 L-120195 801 L-119712 799 L-119017 797 L-118644 794 L-118474 792 L-117508 790 L-117353 787 L-117176 787 L-117083 785 L-116828 785 L-116657 785 L-116010 783 L-115999 783 L-115419 780 L-115281 780 L-115226 776 L-114491 773 L-114452 771 L-114374 771 L-113732 769 L-112958 769 L-112865 766 L-112817 766 L-112801 764 L-112765 764 L-112749 760 L-112686 757 L-112670 755 L-112650 755 L-112495 753 L-112456 750 L-112440 748 L-112401 746 L-112262 743 L-112185 741 L-111821 739 L-111473 736 L-110699 734 L-110097 732 L-109900 729 L-109670 729 L-109533 727 L-108895 727 L-108605 725 L-108584 725 L-108123 722 L-107891 722 L-107836 720 L-107797 718 L-107294 715 L-106744 713 L-105956 711 L-104833 711 L-103939 708 L-103851 708 L-103551 706 L-103480 704 L-103364 701 L-102187 699 L-101839 697 L-101816 694 L-101297 692 L-101151 690 L-101042 687 L-100833 685 L-100678 683 L-100656 680 L-100462 678 L-100385 676 L-100241 673 L-99440 671 L-99294 669 L-99014 666 L-98837 664 L-98527 662 L-97716 659 L-96787 659 L-95195 657 L-94952 655 L-94311 652 L-94116 650 L-94038 648 L-93520 645 L-93288 645 L-93265 643 L-93133 643 L-92794 641 L-92783 638 L-92567 636 L-92530 634 L-91988 631 L-91459 627 L-91392 624 L-91099 622 L-90551 617 L-90516 615 L-90463 613 L-90364 608 L-90131 608 L-89551 608 L-89453 610 L-89379 610 L-89047 608 L-88297 606 L-88258 603 L-87578 603 L-87424 603 L-87098 601 L-86882 599 L-86650 599 L-86354 596 L-86108 594 L-85756 592 L-85703 589 L-84944 587 L-84251 582 L-83900 578 L-83436 575 L-82803 573 L-82394 571 L-82316 573 L-81890 573 L-81248 571 L-81078 571 L-80336 568 L-80149 566 L-79854 564 L-79282 561 L-79257 559 L-78237 559 L-77750 557 L-77657 557 L-77596 554 L-77308 552 L-77022 550 L-76961 547 L-76781 547 L-76070 545 L-75894 543 L-75695 541 L-75544 538 L-75452 536 L-75390 534 L-74848 534 L-74538 531 L-74446 527 L-74369 522 L-73801 520 L-73710 520 L-73456 515 L-73129 510 L-73092 503 L-72937 496 L-72705 494 L-72383 492 L-71250 489 L-71051 487 L-70525 485 L-70281 485 L-70035 482 L-69955 480 L-69935 475 L-69858 473 L-69803 468 L-69726 466 L-69687 464 L-69508 459 L-69471 457 L-69239 454 L-68002 452 L-67675 450 L-67635 445 L-66854 443 L-66707 440 L-65715 438 L-65508 438 L-65083 438 L-64955 438 L-64551 440 L-64463 438 L-63806 436 L-63099 433 L-62490 431 L-62297 429 L-62064 424 L-61446 422 L-61150 417 L-60711 415 L-60556 412 L-60401 410 L-59645 405 L-59295 403 L-58892 403 L-58854 401 L-57848 401 L-57528 401 L-57281 398 L-56581 394 L-56508 391 L-56195 389 L-55115 387 L-54924 384 L-54690 384 L-54495 382 L-53995 380 L-53241 380 L-53128 380 L-52927 380 L-52886 377 L-52793 375 L-52480 373 L-52392 370 L-52276 368 L-51958 368 L-51889 366 L-51864 363 L-51502 361 L-51464 359 L-51247 356 L-50744 359 L-50142 361 L-49930 366 L-49777 368 L-49739 368 L-49695 363 L-49661 361 L-49528 359 L-49119 356 L-48748 354 L-48694 352 L-48678 349 L-48599 347 L-48190 345 L-48036 342 L-48020 338 L-47981 335 L-47802 331 L-47726 328 L-47495 326 L-46705 324 L-46628 324 L-45893 319 L-45737 317 L-45497 312 L-45435 308 L-45350 305 L-45327 301 L-45209 296 L-45195 291 L-45133 287 L-45096 284 L-45002 282 L-44980 282 L-44863 280 L-44631 277 L-44461 273 L-43641 273 L-43239 270 L-43084 270 L-42579 270 L-42465 270 L-41869 270 L-41494 268 L-41443 268 L-41249 266 L-40552 266 L-40514 263 L-40369 263 L-40144 261 L-39882 259 L-39508 256 L-39083 254 L-38953 252 L-38933 247 L-38440 247 L-37744 245 L-37512 247 L-37358 247 L-36390 247 L-36165 249 L-35887 249 L-35871 247 L-35345 245 L-34816 242 L-34668 240 L-34649 238 L-34107 235 L-33797 233 L-33680 228 L-33488 224 L-33352 219 L-33025 217 L-32908 214 L-32598 214 L-32172 212 L-32116 212 L-31884 214 L-31787 214 L-31654 214 L-31358 214 L-31244 212 L-30879 210 L-30567 210 L-30084 207 L-29913 205 L-29665 203 L-29449 200 L-28923 198 L-28737 193 L-28381 191 L-27746 189 L-27592 184 L-26851 182 L-26431 179 L-26251 177 L-26175 177 L-26044 175 L-25750 172 L-25709 170 L-25479 170 L-25287 168 L-25032 168 L-24605 165 L-24496 163 L-23878 163 L-23696 163 L-22485 163 L-21837 165 L-21687 165 L-21649 165 L-21517 165 L-21416 163 L-21400 161 L-21319 158 L-21107 156 L-20990 154 L-20628 151 L-20256 149 L-19559 147 L-19157 144 L-19052 142 L-19034 140 L-18089 137 L-17894 133 L-17742 130 L-17687 126 L-16930 126 L-16913 130 L-16424 133 L-16294 137 L-16101 137 L-15211 135 L-15171 133 L-15133 130 L-15056 128 L-15017 128 L-14940 126 L-14856 123 L-14592 121 L-14360 119 L-14298 116 L-13817 114 L-13481 114 L-13369 112 L-13176 109 L-12999 107 L-12940 107 L-12904 105 L-12634 103 L-11936 98 L-11883 93 L-11589 89 L-11187 84 L-10623 82 L-9750 79 L-9445 77 L-9407 75 L-9284 72 L-8686 70 L-8556 68 L-8356 65 L-8319 63 L-7705 61 L-7526 58 L-7511 54 L-7293 51 L-7215 47 L-6908 47 L-6776 44 L-6544 44 L-6210 44 L-6118 42 L-6018 40 L-5980 37 L-5437 37 L-5244 35 L-4703 33 L-4277 30 L-4145 30 L-4084 30 L-3853 30 L-3836 30 L-3348 33 L-3267 33 L-3250 33 L-1857 35 L-1721 35 L-1607 33 L-973 30 L-833 28 L-715 26 L-562 21 L-525 19 L-446 16 L-392 19 L599 19 L635 16 L768 16 L829 12 L928 9 L1218 7 L1232 5 L1542 5 L1641 7 L2107 5 L2160 252 L2303 496 L2431 743 L2663 990 L3232 988 L3321 985 L3343 985 L3630 983 L4313 981 L4390 979 L4426 976 L4443 974 L4642 972 L5063 967 L5334 967 L6207 965 L6500 965" />
</svg>
