<svg xmlns="http://www.w3.org/2000/svg" version="1.1" viewBox="0 0 6500 1000">
	<path fill="none" stroke="gold" stroke-width="125" stroke-linecap="round" stroke-linejoin="round" d="M0 213166  L-1347760 213166 L-1347576 213165 L-1347086 213163 L-1346792 213162 L-1346481 213160 L-1346247 213159 L-1346193 213157 L-1346134 213155 L-1345981 213154 L-1345940 213152 L-1345808 213151 L-1345515 213151 L-1344974 213151 L-1344364 213150 L-1344316 213150 L-1343676 213149 L-1343643 213149 L-1343117 213149 L-1342985 213148 L-1342594 213146 L-1342266 213144 L-1342149 213142 L-1341938 213140 L-1341221 213140 L-1340651 213139 L-1340544 213139 L-1340369 213138 L-1340148 213136 L-1339746 213135 L-1339721 213133 L-1338793 213131 L-1338705 213129 L-1338623 213128 L-1338553 213126 L-1338256 213125 L-1338104 213123 L-1336213 213124 L-1336113 213124 L-1335850 213124 L-1335557 213125 L-1335415 213123 L-1335167 213123 L-1335131 213122 L-1334972 213121 L-1334509 213119 L-1334256 213118 L-1334044 213116 L-1333792 213115 L-1333444 213114 L-1332516 213112 L-1332423 213110 L-1332012 213109 L-1330841 213107 L-1329652 213106 L-1329560 213105 L-1329532 213103 L-1329266 213101 L-1328967 213099 L-1328838 213097 L-1328801 213095 L-1327986 213095 L-1327602 213096 L-1326542 213097 L-1326481 213097 L-1326215 213116 L-1325744 213134 L-1325552 213152 L-1325288 213171 L-1324951 213170 L-1324816 213169 L-1324360 213168 L-1323617 213167 L-1323599 213166 L-1323434 213164 L-1323366 213164 L-1322850 213163 L-1321821 213163 L-1321625 213162 L-1321137 213161 L-1320775 213160 L-1320366 213160 L-1319980 213161 L-1318277 213161 L-1318179 213161 L-1318107 213161 L-1318045 213161 L-1317861 213160 L-1317525 213160 L-1316884 213159 L-1316807 213158 L-1316746 213158 L-1316559 213157 L-1316480 213157 L-1316303 213156 L-1316283 213155 L-1316053 213155 L-1315666 213154 L-1314777 213154 L-1314738 213153 L-1314649 213152 L-1314622 213151 L-1313614 213150 L-1313464 213148 L-1313440 213147 L-1313307 213146 L-1313267 213145 L-1312009 213144 L-1311951 213144 L-1311411 213143 L-1311359 213143 L-1311312 213143 L-1310917 213142 L-1310778 213141 L-1310578 213140 L-1310431 213140 L-1310266 213140 L-1309990 213141 L-1309631 213141 L-1309078 213140 L-1308434 213139 L-1308175 213137 L-1308021 213136 L-1307620 213135 L-1307580 213134 L-1307459 213133 L-1307398 213134 L-1307384 213134 L-1307290 213134 L-1306997 213133 L-1306845 213129 L-1306515 213128 L-1306437 213126 L-1306361 213125 L-1306135 213122 L-1306068 213120 L-1305840 213118 L-1305788 213116 L-1305623 213115 L-1304617 213114 L-1304434 213113 L-1303883 213112 L-1303490 213110 L-1303093 213109 L-1302243 213107 L-1302164 213106 L-1301585 213105 L-1301144 213105 L-1300903 213105 L-1300746 213105 L-1300345 213103 L-1300324 213103 L-1299880 213102 L-1299474 213101 L-1299338 213099 L-1299163 213097 L-1299027 213095 L-1298776 213093 L-1297777 213092 L-1297694 213091 L-1297559 213090 L-1297520 213089 L-1296630 213088 L-1296415 213087 L-1295972 213086 L-1295854 213085 L-1295797 213084 L-1295121 213084 L-1295021 213083 L-1294992 213083 L-1293650 213083 L-1293244 213082 L-1293205 213081 L-1292277 213080 L-1292178 213079 L-1292045 213078 L-1291641 213077 L-1291615 213076 L-1291522 213075 L-1291306 213074 L-1290895 213072 L-1289741 213070 L-1289449 213068 L-1289421 213066 L-1288813 213065 L-1288563 213063 L-1288543 213062 L-1287613 213061 L-1287562 213060 L-1287440 213059 L-1287422 213057 L-1287266 213056 L-1287091 213054 L-1286955 213053 L-1286898 213052 L-1286790 213051 L-1286705 213050 L-1286472 213049 L-1286397 213048 L-1286088 213047 L-1285970 213046 L-1285801 213045 L-1285709 213044 L-1285607 213044 L-1285583 213043 L-1285506 213043 L-1285408 213041 L-1285042 213040 L-1284937 213039 L-1284434 213038 L-1283982 213037 L-1283943 213037 L-1283920 213036 L-1283879 213035 L-1283750 213034 L-1283649 213033 L-1283208 213032 L-1282925 213031 L-1282333 213030 L-1282203 213029 L-1281928 213027 L-1281776 213026 L-1281622 213025 L-1281537 213023 L-1281459 213022 L-1281274 213021 L-1281223 213021 L-1281195 213020 L-1281116 213019 L-1281093 213018 L-1280809 213016 L-1280206 213014 L-1279210 213014 L-1278912 213013 L-1278178 213012 L-1277934 213011 L-1277844 213010 L-1277267 213009 L-1276568 213008 L-1275816 213007 L-1275497 213006 L-1275115 213004 L-1275037 213003 L-1274403 213002 L-1274217 213001 L-1274130 213001 L-1274000 213001 L-1273687 213000 L-1273638 212999 L-1273496 212998 L-1273474 212997 L-1272507 212996 L-1271961 212995 L-1271483 212995 L-1271422 212995 L-1271098 212995 L-1271077 212994 L-1271014 212994 L-1270804 212993 L-1270727 212992 L-1270673 212991 L-1270650 212991 L-1270611 212990 L-1270595 212989 L-1269838 212988 L-1269822 212987 L-1269022 212986 L-1268870 212985 L-1267964 212984 L-1267458 212983 L-1267229 212981 L-1267188 212981 L-1267072 212980 L-1266896 212979 L-1266142 212980 L-1266007 212979 L-1265843 212978 L-1265525 212977 L-1265348 212975 L-1264327 212973 L-1264303 212971 L-1264052 212970 L-1263839 212968 L-1263205 212968 L-1262967 212966 L-1262934 212964 L-1262756 212962 L-1262676 212960 L-1262586 212959 L-1262522 212957 L-1262082 212955 L-1262058 212954 L-1261517 212953 L-1261262 212952 L-1260767 212951 L-1259890 212950 L-1259853 212949 L-1259800 212948 L-1259759 212947 L-1259642 212946 L-1259365 212946 L-1259158 212944 L-1258961 212942 L-1258938 212940 L-1258887 212938 L-1258848 212937 L-1258770 212936 L-1258173 212934 L-1258113 212933 L-1258009 212932 L-1257855 212931 L-1257223 212930 L-1256542 212929 L-1256239 212927 L-1255893 212926 L-1255695 212925 L-1255647 212923 L-1255326 212923 L-1254699 212922 L-1254552 212921 L-1254516 212920 L-1254458 212919 L-1254381 212917 L-1254140 212917 L-1254052 212916 L-1253958 212915 L-1253664 212914 L-1253530 212913 L-1253470 212912 L-1253433 212910 L-1253160 212910 L-1252154 212909 L-1251979 212908 L-1251928 212908 L-1251636 212907 L-1251443 212905 L-1251110 212904 L-1250603 212903 L-1250041 212901 L-1250027 212900 L-1250010 212899 L-1249910 212897 L-1249795 212895 L-1249756 212893 L-1249718 212892 L-1249653 212892 L-1249624 212891 L-1249485 212892 L-1249193 212892 L-1249143 212892 L-1249037 212892 L-1248773 212891 L-1248308 212890 L-1248163 212890 L-1248109 212888 L-1248052 212887 L-1247861 212886 L-1247496 212885 L-1247281 212885 L-1247086 212885 L-1247028 212885 L-1246969 212883 L-1246816 212882 L-1246546 212881 L-1246116 212886 L-1246101 212886 L-1246024 212885 L-1245959 212884 L-1245830 212877 L-1245806 212877 L-1245522 212876 L-1245475 212875 L-1245420 212874 L-1244958 212873 L-1244919 212873 L-1244878 212872 L-1244688 212871 L-1244207 212870 L-1243720 212869 L-1243704 212868 L-1243666 212867 L-1243409 212866 L-1243332 212864 L-1243102 212863 L-1243086 212861 L-1242792 212859 L-1242349 212858 L-1241903 212857 L-1241398 212856 L-1241244 212855 L-1240958 212854 L-1240917 212853 L-1240586 212852 L-1240364 212851 L-1239847 212849 L-1239772 212848 L-1239524 212846 L-1239329 212844 L-1239270 212843 L-1238493 212842 L-1238419 212842 L-1238188 212841 L-1238172 212841 L-1238110 212840 L-1237914 212839 L-1237450 212839 L-1237427 212838 L-1237297 212838 L-1235996 212838 L-1235980 212838 L-1235903 212837 L-1235809 212837 L-1235592 212837 L-1235440 212836 L-1235261 212837 L-1235207 212838 L-1234920 212839 L-1234881 212839 L-1234511 212839 L-1234071 212839 L-1233888 212839 L-1233567 212838 L-1233272 212838 L-1232826 212836 L-1232754 212835 L-1232292 212833 L-1231854 212832 L-1231672 212832 L-1230218 212830 L-1230086 212829 L-1229629 212827 L-1229402 212826 L-1229016 212824 L-1228499 212822 L-1227545 212820 L-1226751 212818 L-1226077 212817 L-1225651 212815 L-1225340 212814 L-1225110 212811 L-1224427 212809 L-1224414 212806 L-1224204 212802 L-1224182 212801 L-1224007 212799 L-1223057 212798 L-1222789 212796 L-1221974 212795 L-1221663 212793 L-1221626 212792 L-1221569 212790 L-1220952 212789 L-1220314 212787 L-1218688 212786 L-1218014 212786 L-1217372 212786 L-1217294 212786 L-1217238 212786 L-1217202 212786 L-1217174 212785 L-1217062 212783 L-1217044 212782 L-1217021 212781 L-1216868 212780 L-1216814 212778 L-1216737 212777 L-1216617 212776 L-1216520 212775 L-1216402 212774 L-1216133 212772 L-1215863 212771 L-1215846 212769 L-1215646 212768 L-1215499 212766 L-1215272 212765 L-1215138 212764 L-1214829 212763 L-1214769 212763 L-1214416 212761 L-1214067 212760 L-1213967 212759 L-1213902 212757 L-1213842 212756 L-1213458 212754 L-1213077 212753 L-1212973 212752 L-1212713 212751 L-1212441 212749 L-1212282 212748 L-1212250 212747 L-1212188 212746 L-1212046 212745 L-1211863 212744 L-1211818 212743 L-1211530 212743 L-1211514 212742 L-1211281 212742 L-1211220 212741 L-1211182 212741 L-1210602 212740 L-1210468 212740 L-1210445 212736 L-1210426 212729 L-1210409 212721 L-1210393 212714 L-1210369 212706 L-1210352 212700 L-1210331 212694 L-1210314 212687 L-1210291 212683 L-1210274 212679 L-1210253 212676 L-1210236 212674 L-1210187 212672 L-1210115 212669 L-1210080 212664 L-1210056 212660 L-1210021 212656 L-1209979 212652 L-1209942 212650 L-1209927 212647 L-1209902 212644 L-1209865 212642 L-1209848 212639 L-1209825 212637 L-1209808 212635 L-1209789 212633 L-1209773 212631 L-1209744 212628 L-1209718 212626 L-1209672 212625 L-1209656 212623 L-1209614 212622 L-1209566 212620 L-1209495 212618 L-1209480 212616 L-1209464 212614 L-1209402 212613 L-1209363 212612 L-1209323 212611 L-1209157 212610 L-1209092 212609 L-1209076 212608 L-1209032 212606 L-1208974 212605 L-1208761 212604 L-1208728 212603 L-1208685 212603 L-1208607 212602 L-1208070 212601 L-1207992 212600 L-1207887 212598 L-1207799 212597 L-1207622 212596 L-1207272 212595 L-1207116 212594 L-1206678 212593 L-1206521 212592 L-1206392 212591 L-1205688 212589 L-1205487 212588 L-1204526 212586 L-1204044 212585 L-1203945 212585 L-1203852 212584 L-1203607 212583 L-1203534 212582 L-1203091 212580 L-1202995 212580 L-1202980 212579 L-1202964 212578 L-1202939 212577 L-1202473 212576 L-1202256 212575 L-1202117 212574 L-1201823 212573 L-1201735 212572 L-1201693 212571 L-1201663 212570 L-1201491 212569 L-1201432 212568 L-1201356 212567 L-1201275 212566 L-1201205 212566 L-1200896 212565 L-1200811 212564 L-1200597 212563 L-1200562 212562 L-1199879 212561 L-1199780 212560 L-1199575 212559 L-1199528 212558 L-1199250 212558 L-1199188 212557 L-1199171 212555 L-1199093 212554 L-1198785 212552 L-1198760 212551 L-1198706 212549 L-1198683 212548 L-1198561 212547 L-1198425 212545 L-1198181 212544 L-1198055 212544 L-1197409 212543 L-1197393 212543 L-1197368 212543 L-1197188 212541 L-1197111 212540 L-1197020 212539 L-1196592 212538 L-1196176 212537 L-1195783 212535 L-1195704 212535 L-1195685 212534 L-1195322 212533 L-1195086 212532 L-1194858 212531 L-1194544 212530 L-1194466 212529 L-1194386 212527 L-1194208 212525 L-1194192 212524 L-1193927 212522 L-1193846 212521 L-1193616 212520 L-1193390 212519 L-1193075 212519 L-1192899 212518 L-1192538 212518 L-1192147 212517 L-1192077 212515 L-1192013 212514 L-1191873 212512 L-1191821 212512 L-1191720 212510 L-1191218 212509 L-1191021 212508 L-1190774 212507 L-1190588 212506 L-1190289 212505 L-1190213 212504 L-1190047 212502 L-1189162 212501 L-1189134 212499 L-1189011 212497 L-1188432 212496 L-1188354 212495 L-1187641 212495 L-1187329 212495 L-1187116 212495 L-1187099 212495 L-1186712 212495 L-1186187 212493 L-1185741 212492 L-1185412 212491 L-1185259 212490 L-1184933 212490 L-1184755 212489 L-1184673 212489 L-1184467 212488 L-1184291 212487 L-1183362 212486 L-1182473 212485 L-1182434 212484 L-1182206 212484 L-1181827 212483 L-1181039 212482 L-1180805 212481 L-1180729 212480 L-1180371 212479 L-1179800 212477 L-1179533 212476 L-1179146 212475 L-1179043 212475 L-1178873 212475 L-1178254 212475 L-1178043 212475 L-1177735 212475 L-1177682 212474 L-1177555 212473 L-1177501 212472 L-1177382 212471 L-1177046 212469 L-1176087 212468 L-1175955 212466 L-1175754 212466 L-1175122 212465 L-1174811 212464 L-1174397 212463 L-1174370 212462 L-1174224 212461 L-1173804 212460 L-1172472 212460 L-1172425 212459 L-1172296 212457 L-1172279 212456 L-1171701 212454 L-1171496 212453 L-1171466 212452 L-1171425 212451 L-1171368 212450 L-1171330 212449 L-1171252 212448 L-1171109 212447 L-1170655 212446 L-1170537 212445 L-1170251 212444 L-1169879 212443 L-1169782 212443 L-1169456 212442 L-1169101 212441 L-1168931 212440 L-1168884 212439 L-1168775 212438 L-1168686 212437 L-1168658 212436 L-1168582 212434 L-1168278 212433 L-1168244 212431 L-1168173 212430 L-1167805 212429 L-1167469 212428 L-1167388 212428 L-1167169 212427 L-1166997 212426 L-1166970 212425 L-1166472 212424 L-1165923 212422 L-1165043 212421 L-1164944 212420 L-1164867 212419 L-1164593 212418 L-1164346 212416 L-1164272 212415 L-1164210 212413 L-1164091 212412 L-1164049 212411 L-1163939 212410 L-1163862 212408 L-1163161 212407 L-1162916 212406 L-1162876 212405 L-1162720 212404 L-1162121 212404 L-1161894 212404 L-1161802 212404 L-1161326 212404 L-1160729 212402 L-1160209 212401 L-1160188 212400 L-1160043 212399 L-1159723 212399 L-1159181 212399 L-1158949 212399 L-1158779 212399 L-1158292 212398 L-1158065 212398 L-1157980 212397 L-1157633 212396 L-1157307 212396 L-1156784 212395 L-1156457 212394 L-1155857 212393 L-1155659 212391 L-1155607 212390 L-1155566 212389 L-1155285 212388 L-1154601 212386 L-1154291 212385 L-1154266 212383 L-1154074 212382 L-1153852 212381 L-1153766 212380 L-1153102 212378 L-1153078 212377 L-1152856 212375 L-1152526 212375 L-1152174 212373 L-1151969 212372 L-1151737 212370 L-1151479 212369 L-1151289 212367 L-1151242 212366 L-1151015 212365 L-1150980 212364 L-1150824 212363 L-1150609 212362 L-1150436 212361 L-1150345 212360 L-1150068 212359 L-1149824 212358 L-1149509 212357 L-1149082 212357 L-1149045 212357 L-1148562 212357 L-1148328 212357 L-1148116 212356 L-1147890 212355 L-1147341 212355 L-1147093 212354 L-1146259 212354 L-1146203 212353 L-1146182 212352 L-1146024 212352 L-1145562 212351 L-1145522 212350 L-1145182 212348 L-1145048 212347 L-1144826 212346 L-1144254 212345 L-1143782 212344 L-1143587 212343 L-1143394 212342 L-1143205 212341 L-1143103 212340 L-1142735 212339 L-1142688 212338 L-1142607 212337 L-1141313 212336 L-1141265 212335 L-1140997 212335 L-1140852 212335 L-1140301 212335 L-1140184 212334 L-1140102 212333 L-1139743 212332 L-1139519 212331 L-1139238 212330 L-1138909 212329 L-1138401 212328 L-1138289 212327 L-1138210 212326 L-1138045 212325 L-1137751 212325 L-1137282 212325 L-1137086 212326 L-1137035 212326 L-1136385 212325 L-1136264 212324 L-1135809 212324 L-1135774 212323 L-1135305 212322 L-1135195 212321 L-1135178 212320 L-1134962 212320 L-1134781 212319 L-1134250 212319 L-1133220 212319 L-1133021 212318 L-1132562 212317 L-1131614 212315 L-1131515 212314 L-1131161 212312 L-1131101 212311 L-1131086 212310 L-1131051 212309 L-1130682 212308 L-1130562 212307 L-1130320 212307 L-1130156 212306 L-1129968 212305 L-1129848 212304 L-1128777 212302 L-1127919 212301 L-1127707 212299 L-1127609 212298 L-1127435 212296 L-1127102 212295 L-1127030 212294 L-1126973 212293 L-1126797 212293 L-1126408 212292 L-1126173 212291 L-1126062 212290 L-1125945 212289 L-1124964 212288 L-1124938 212287 L-1124344 212285 L-1124312 212285 L-1124163 212284 L-1123879 212284 L-1122967 212284 L-1122021 212284 L-1121868 212283 L-1121765 212283 L-1121633 212282 L-1121490 212281 L-1121464 212280 L-1121350 212279 L-1121131 212278 L-1120450 212277 L-1120321 212276 L-1120017 212275 L-1119778 212273 L-1119445 212272 L-1118806 212271 L-1118464 212269 L-1118402 212268 L-1118246 212268 L-1117325 212268 L-1116854 212268 L-1116811 212268 L-1116798 212267 L-1116757 212266 L-1116735 212265 L-1116708 212264 L-1116564 212263 L-1116141 212262 L-1115806 212262 L-1115615 212261 L-1115186 212261 L-1114998 212261 L-1114609 212259 L-1114075 212258 L-1113703 212257 L-1113681 212257 L-1113431 212256 L-1113313 212255 L-1113237 212254 L-1113101 212253 L-1113062 212252 L-1112982 212251 L-1112588 212250 L-1112092 212249 L-1111980 212247 L-1111807 212246 L-1111498 212245 L-1111051 212244 L-1110728 212243 L-1110585 212241 L-1110158 212239 L-1110005 212238 L-1109950 212236 L-1109136 212235 L-1109116 212234 L-1108744 212233 L-1108688 212233 L-1107559 212232 L-1107491 212232 L-1106932 212231 L-1106738 212230 L-1106601 212229 L-1106368 212228 L-1106021 212227 L-1105986 212225 L-1105951 212224 L-1105883 212222 L-1105534 212221 L-1105362 212220 L-1104877 212219 L-1104861 212218 L-1104535 212217 L-1104378 212216 L-1103237 212215 L-1103212 212214 L-1103021 212212 L-1102827 212211 L-1102577 212210 L-1102560 212209 L-1101540 212208 L-1101242 212207 L-1101166 212206 L-1101030 212204 L-1100854 212203 L-1100278 212201 L-1100062 212200 L-1099998 212199 L-1099868 212198 L-1099831 212196 L-1099308 212195 L-1099170 212573 L-1099155 212573 L-1099132 212573 L-1099112 212573 L-1098885 212194 L-1098109 212194 L-1098068 212194 L-1097700 212194 L-1097621 212193 L-1097569 212192 L-1096896 212192 L-1096154 212191 L-1095729 212191 L-1095281 212190 L-1094220 212189 L-1093908 212187 L-1093498 212187 L-1093426 212186 L-1092902 212186 L-1092807 212186 L-1092789 212186 L-1092344 212185 L-1092159 212183 L-1091379 212181 L-1090706 212180 L-1090294 212177 L-1090062 212175 L-1089922 212174 L-1089840 212172 L-1089820 212171 L-1089744 212171 L-1089616 212170 L-1089299 212171 L-1089074 212171 L-1088749 212170 L-1088687 212170 L-1088317 212170 L-1088284 212170 L-1088076 212170 L-1087408 212170 L-1087331 212170 L-1087173 212169 L-1087062 212169 L-1086736 212168 L-1086581 212167 L-1086240 212167 L-1086183 212165 L-1085845 212163 L-1085641 212162 L-1085588 212160 L-1084212 212159 L-1084082 212158 L-1083649 212157 L-1083328 212156 L-1082500 212154 L-1082377 212153 L-1081646 212151 L-1081490 212149 L-1081450 212148 L-1081396 212147 L-1081373 212147 L-1081259 212146 L-1080962 212145 L-1080672 212144 L-1080618 212143 L-1080497 212142 L-1080467 212141 L-1080368 212140 L-1079924 212140 L-1079772 212139 L-1078937 212139 L-1078394 212138 L-1078060 212138 L-1078044 212137 L-1077969 212136 L-1077852 212135 L-1077658 212134 L-1077394 212133 L-1076559 212132 L-1076463 212131 L-1075941 212130 L-1075900 212129 L-1075800 212128 L-1074972 212128 L-1074837 212127 L-1074498 212127 L-1073944 212126 L-1073564 212125 L-1073401 212124 L-1073091 212124 L-1072279 212123 L-1071973 212122 L-1071704 212122 L-1071383 212122 L-1071062 212123 L-1070787 212123 L-1069958 212121 L-1069863 212120 L-1069770 212117 L-1069666 212114 L-1069279 212111 L-1068799 212109 L-1068782 212108 L-1068664 212107 L-1068296 212105 L-1068201 212104 L-1067367 212102 L-1067290 212101 L-1066991 212101 L-1066900 212100 L-1066493 212098 L-1066382 212096 L-1065683 212095 L-1065210 212094 L-1065150 212093 L-1064931 212091 L-1064657 212090 L-1064544 212089 L-1063517 212088 L-1063130 212087 L-1063110 212086 L-1062778 212085 L-1062533 212084 L-1062100 212083 L-1061990 212082 L-1061872 212081 L-1061420 212079 L-1060830 212078 L-1060493 212078 L-1058600 212077 L-1058487 212075 L-1058275 212074 L-1056957 212073 L-1056850 211857 L-1056784 211645 L-1056748 211448 L-1056686 211448 L-1056187 211662 L-1055512 211873 L-1055490 212067 L-1055219 212065 L-1054251 212065 L-1053562 212064 L-1053400 212063 L-1052859 212062 L-1052769 212061 L-1051750 212060 L-1050802 212058 L-1050437 212059 L-1050334 212060 L-1049746 212060 L-1049686 212060 L-1049586 212059 L-1049145 212057 L-1049038 212056 L-1048596 212055 L-1047597 212053 L-1047340 212050 L-1047237 212047 L-1047107 212045 L-1046740 212043 L-1046160 212041 L-1046129 212040 L-1045813 212039 L-1043830 212038 L-1043714 212037 L-1043647 212037 L-1043288 212036 L-1041669 212035 L-1041492 212035 L-1041348 212035 L-1040525 212036 L-1040472 212037 L-1040418 212037 L-1039984 212037 L-1039003 212038 L-1038929 212038 L-1037845 212037 L-1037632 212037 L-1036916 212035 L-1036527 212034 L-1036308 212033 L-1035989 212031 L-1035495 212029 L-1035367 212028 L-1035138 212026 L-1034906 212024 L-1034847 212023 L-1034557 212022 L-1034285 212020 L-1033255 212019 L-1031590 212018 L-1031171 212017 L-1031034 212016 L-1030878 212016 L-1030572 212015 L-1030344 212013 L-1030186 212012 L-1030027 212010 L-1029857 212009 L-1029810 212008 L-1029757 212007 L-1029735 212007 L-1029349 212006 L-1029099 212006 L-1028829 212006 L-1028668 212006 L-1028578 212006 L-1026920 212006 L-1026754 212007 L-1026375 212006 L-1025915 212006 L-1025305 212004 L-1024212 212003 L-1023781 212002 L-1023749 212001 L-1023687 212000 L-1023669 211999 L-1021966 211998 L-1021924 211997 L-1021457 211996 L-1021271 211995 L-1021238 211993 L-1020643 211992 L-1020593 211991 L-1020270 211990 L-1020220 211989 L-1020009 211988 L-1019991 211987 L-1019725 211986 L-1019672 211985 L-1019203 211984 L-1018693 211982 L-1018614 211982 L-1018320 211981 L-1018304 211980 L-1018265 211979 L-1018194 211978 L-1018037 211977 L-1017091 211977 L-1017034 211977 L-1016513 211977 L-1016321 211976 L-1016220 211976 L-1015994 211975 L-1015484 211975 L-1015096 212001 L-1015027 212001 L-1014678 212000 L-1014321 211999 L-1013193 211971 L-1013141 211969 L-1012915 211968 L-1012881 211967 L-1012756 211965 L-1012658 211965 L-1012393 211965 L-1011653 211966 L-1011074 211966 L-1010781 211966 L-1010075 211966 L-1009896 211965 L-1009873 211965 L-1009237 211964 L-1008926 211964 L-1008529 211964 L-1008499 211963 L-1008478 211962 L-1008325 211961 L-1007640 211961 L-1007623 211961 L-1007283 211961 L-1007011 211960 L-1006973 211959 L-1006917 211957 L-1006895 211956 L-1006823 211955 L-1006491 211954 L-1006385 211953 L-1006356 211951 L-1006158 211950 L-1006006 211949 L-1005137 211948 L-1004575 211946 L-1004559 211946 L-1004458 211945 L-1004355 211946 L-1004209 211946 L-1004131 211946 L-1004093 211945 L-1004037 211944 L-1003964 211943 L-1003819 211942 L-1003337 211942 L-1002933 211941 L-1002067 211942 L-1002047 211942 L-1001789 211942 L-1001712 211942 L-1001683 211941 L-1001673 211940 L-1001656 211939 L-1001363 211938 L-1001323 211937 L-1001251 211936 L-1001178 211935 L-1000973 211934 L-1000813 211931 L-1000511 211928 L-1000434 211924 L-1000417 211921 L-1000201 211919 L-999969 211919 L-999859 211920 L-999490 211921 L-999331 211921 L-999100 211921 L-998932 211921 L-998786 211920 L-998654 211919 L-997379 211918 L-996975 211916 L-996914 211915 L-996798 211913 L-996372 211912 L-996357 211910 L-996295 211909 L-996022 211907 L-995909 211906 L-995627 211904 L-995350 211903 L-994925 211901 L-994902 211900 L-994824 211899 L-994699 211898 L-994112 211897 L-993721 211896 L-993385 211896 L-992796 211895 L-992694 211895 L-992523 211894 L-992387 211894 L-991559 211893 L-990374 211892 L-990338 211891 L-990283 211891 L-990062 211890 L-989857 211890 L-989702 211890 L-989446 211889 L-989369 211888 L-988826 211887 L-988790 211886 L-988541 211885 L-988154 211884 L-987328 211883 L-986970 211882 L-986659 211882 L-986401 211881 L-986178 211880 L-985772 211879 L-985655 211878 L-985472 211877 L-985419 211877 L-985230 211876 L-985059 211875 L-985031 211874 L-984750 211873 L-984440 211873 L-984302 211872 L-983992 211871 L-983798 211871 L-983783 211870 L-983063 211870 L-982930 211868 L-982632 211867 L-982541 211866 L-981941 211866 L-981903 211865 L-981824 211864 L-981204 211863 L-981052 211861 L-981012 211860 L-980701 211859 L-980509 211858 L-980316 211856 L-980261 211854 L-979952 211853 L-979900 211852 L-979845 211853 L-979819 211853 L-979695 211853 L-978884 211852 L-978807 211851 L-978267 211850 L-977998 211850 L-977339 211849 L-976431 211848 L-976190 211847 L-975657 211846 L-975440 211845 L-974333 211846 L-974282 211846 L-973507 211846 L-972959 211845 L-972848 211844 L-972695 211842 L-972640 211841 L-972474 211840 L-972097 211839 L-971650 211838 L-971595 211837 L-971441 211836 L-970761 211835 L-970540 211834 L-970023 211833 L-969174 211831 L-969158 211830 L-967367 211829 L-966812 211828 L-966695 211827 L-965689 211827 L-965653 211826 L-965420 211826 L-965328 211826 L-965288 211826 L-964955 211825 L-964604 211824 L-964338 211822 L-964052 211821 L-963741 211819 L-963487 211817 L-963393 211816 L-962903 211815 L-962696 211814 L-962130 211813 L-962016 211814 L-961665 211813 L-961613 211813 L-961573 211813 L-960970 211811 L-960236 211809 L-959655 211807 L-959419 211805 L-958879 211803 L-958726 211801 L-958224 211800 L-958015 211798 L-957992 211798 L-957933 211797 L-956970 211797 L-956793 211796 L-956351 211795 L-956327 211793 L-956172 211792 L-956090 211792 L-955940 211793 L-955293 211793 L-955243 211792 L-954123 211791 L-953139 211790 L-953077 211789 L-952357 211788 L-951492 211787 L-951113 211786 L-950894 211786 L-950135 211785 L-950083 211784 L-949774 211782 L-948922 211782 L-948729 211782 L-948552 211781 L-948328 211781 L-948201 211780 L-948009 211780 L-947777 211779 L-947607 211780 L-947321 211779 L-947041 211779 L-946958 211778 L-946788 211777 L-946771 211775 L-946617 211774 L-946578 211773 L-945802 211772 L-945726 211772 L-945494 211770 L-945067 211769 L-944721 211768 L-944138 211767 L-943870 211767 L-943611 211767 L-943481 211765 L-943465 211764 L-943351 211763 L-943327 211762 L-943093 211761 L-943057 211760 L-941741 211760 L-941685 211759 L-941006 211758 L-940434 211758 L-940308 211758 L-940155 211758 L-940078 211758 L-939766 211756 L-939493 211755 L-939404 211753 L-939303 211753 L-938375 211752 L-938298 211752 L-937934 211752 L-937910 211751 L-937873 211750 L-937098 211748 L-937006 211747 L-936866 211746 L-936464 211745 L-936203 211745 L-935959 211746 L-935745 211745 L-935665 211745 L-935588 211745 L-935512 211745 L-935325 211746 L-935258 211746 L-935009 211746 L-934954 211745 L-934816 211744 L-934737 211742 L-934623 211741 L-934400 211740 L-934236 211739 L-934195 211738 L-934025 211737 L-933655 211736 L-933640 211736 L-933524 211735 L-932803 211734 L-932767 211733 L-932634 211733 L-932286 211732 L-931875 211732 L-931838 211732 L-931760 211731 L-931721 211730 L-931357 211729 L-931153 211728 L-931138 211727 L-930793 211726 L-930444 211726 L-930118 211726 L-930017 211725 L-929864 211725 L-929669 211724 L-929438 211724 L-929345 211724 L-929190 211724 L-929112 211724 L-929072 211723 L-928958 211722 L-928935 211721 L-928684 211721 L-928545 211719 L-927968 211716 L-927139 211714 L-926652 211713 L-926530 211712 L-926492 211711 L-926479 211710 L-926327 211708 L-926226 211706 L-925993 211705 L-925603 211703 L-925298 211702 L-925283 211701 L-925112 211700 L-924873 211698 L-924277 211698 L-923673 211697 L-923634 211697 L-923593 211697 L-923440 211696 L-923387 211695 L-923324 211694 L-923256 211693 L-923201 211691 L-923176 211690 L-923129 211690 L-923035 211688 L-922898 211687 L-922745 211686 L-922612 211685 L-922572 211685 L-922536 211684 L-922474 211683 L-922201 211681 L-921886 211680 L-921845 211678 L-921760 211677 L-921583 211676 L-921345 211675 L-920988 211674 L-920958 211673 L-920389 211672 L-920266 211671 L-920030 211670 L-920007 211670 L-919726 211669 L-919440 211669 L-919185 211669 L-918613 211668 L-918316 211667 L-918240 211667 L-917541 211666 L-917464 211665 L-917429 211664 L-917402 211663 L-917351 211661 L-917157 211660 L-917017 211658 L-916981 211657 L-916940 211656 L-916345 211655 L-916113 211654 L-915829 211661 L-915775 211667 L-915701 211673 L-915623 211679 L-915387 211677 L-915143 211676 L-915007 211675 L-914901 211674 L-914821 211673 L-914434 211671 L-914307 211670 L-914154 211669 L-914117 211668 L-913971 211667 L-913749 211667 L-913575 211666 L-913506 211665 L-912685 211663 L-912669 211663 L-912374 211662 L-911586 211661 L-911276 211661 L-911130 211660 L-910902 211659 L-910701 211657 L-909764 211656 L-909728 211655 L-909705 211654 L-909664 211652 L-909396 211651 L-908799 211650 L-908735 211649 L-908700 211648 L-908683 211647 L-907988 211647 L-907787 211647 L-907755 211647 L-907421 211647 L-907314 211646 L-906689 211645 L-906185 211644 L-906147 211642 L-905705 211642 L-905609 211641 L-905450 211641 L-905137 211641 L-905125 211641 L-904685 211642 L-904203 211643 L-904073 211643 L-903753 211643 L-903685 211642 L-903381 211642 L-903205 211641 L-903011 211640 L-902769 211638 L-902571 211636 L-902545 211634 L-901967 211633 L-901897 211632 L-901488 211631 L-901433 211630 L-901387 211629 L-901023 211628 L-900877 211627 L-900672 211626 L-900575 211626 L-900420 211625 L-900359 211624 L-900211 211622 L-900111 211622 L-899554 211622 L-899531 211623 L-899359 211624 L-898817 211625 L-898756 211625 L-898703 211623 L-898674 211622 L-898603 211621 L-898586 211619 L-898523 211618 L-898486 211616 L-898332 211615 L-898006 211614 L-897440 211613 L-897426 211612 L-897364 211610 L-897262 211608 L-897216 211608 L-896973 211607 L-896551 211607 L-896396 211607 L-894655 211605 L-894113 211604 L-893169 211603 L-892760 211602 L-892219 211600 L-892023 211599 L-891854 211599 L-891558 211598 L-891444 211597 L-891428 211597 L-891274 211596 L-891134 211595 L-891057 211593 L-890925 211593 L-890577 211593 L-890207 211594 L-889609 211594 L-889433 211594 L-889277 211593 L-889008 211592 L-888856 211592 L-888565 211595 L-888542 211597 L-888459 211599 L-888231 211600 L-887531 211599 L-887405 211599 L-886974 211598 L-886879 211597 L-885674 211597 L-885625 211596 L-885332 211596 L-884929 211595 L-884653 211593 L-884634 211592 L-884516 211591 L-884440 211590 L-884258 211589 L-883778 211588 L-883327 211586 L-882917 211585 L-882886 211584 L-882468 211583 L-882354 211583 L-882236 211583 L-882220 211583 L-882026 211582 L-882005 211580 L-881772 211579 L-881329 211578 L-881010 211576 L-880545 211576 L-880379 211576 L-880225 211575 L-880069 211575 L-879615 211575 L-879296 211575 L-879241 211576 L-878870 211576 L-878832 211576 L-878506 211576 L-878389 211576 L-878291 211575 L-877965 211573 L-877578 211572 L-877317 211571 L-876958 211569 L-876702 211568 L-874532 211567 L-874482 211566 L-874460 211565 L-874048 211565 L-873987 211565 L-873916 211566 L-873686 211566 L-873375 211565 L-873072 211563 L-873027 211562 L-872720 211561 L-872587 211560 L-872370 211559 L-871658 211558 L-871503 211558 L-871364 211557 L-871216 211557 L-871195 211557 L-871000 211556 L-870975 211555 L-870884 211554 L-870862 211553 L-870845 211553 L-870745 211552 L-869817 211551 L-869359 211551 L-868267 211549 L-867844 211549 L-867440 211548 L-867402 211547 L-867148 211546 L-866374 211544 L-866357 211543 L-866333 211542 L-866140 211541 L-865403 211540 L-865134 211539 L-865094 211538 L-864695 211536 L-864670 211535 L-863881 211534 L-863201 211533 L-861830 211532 L-861560 211531 L-861511 211530 L-860974 211529 L-860941 211528 L-860839 211526 L-860515 211525 L-860436 211524 L-860167 211524 L-859254 211523 L-859115 211523 L-858866 211521 L-858321 211521 L-857899 211520 L-857706 211519 L-857691 211519 L-857553 211517 L-857459 211516 L-857332 211515 L-857072 211514 L-857047 211512 L-856955 211511 L-856645 211510 L-856585 211509 L-856468 211509 L-856118 211509 L-855308 211509 L-855076 211508 L-854247 211508 L-854015 211506 L-853799 211505 L-853280 211505 L-852642 211504 L-852226 211503 L-851903 211502 L-851423 211501 L-850997 211501 L-850936 211500 L-850587 211500 L-850547 211499 L-850533 211498 L-850433 211496 L-850388 211496 L-849903 211495 L-849101 211495 L-848767 211495 L-847686 211494 L-847206 211493 L-847183 211492 L-847043 211491 L-846487 211490 L-845790 211489 L-845481 211488 L-845259 211487 L-845155 211486 L-845052 211485 L-844381 211484 L-844287 211483 L-844265 211483 L-844188 211482 L-844010 211482 L-843838 211482 L-843657 211481 L-843644 211480 L-843567 211479 L-843403 211478 L-842888 211477 L-842872 211476 L-842732 211476 L-842369 211475 L-842345 211475 L-842215 211474 L-842190 211473 L-841828 211472 L-841302 211470 L-841209 211469 L-840993 211467 L-840899 211466 L-840875 211465 L-840410 211464 L-840333 211464 L-839932 211463 L-839481 211463 L-838229 211462 L-838190 211462 L-837759 211461 L-837726 211460 L-837007 211459 L-836831 211458 L-836695 211457 L-836388 211456 L-836333 211455 L-836309 211453 L-836293 211451 L-836118 211450 L-835928 211449 L-835421 211449 L-835047 211441 L-834709 211433 L-834670 211425 L-833951 211418 L-833857 211417 L-833819 211416 L-833277 211416 L-833254 211416 L-832851 211415 L-832426 211414 L-832155 211414 L-831975 211413 L-831729 211411 L-831706 211410 L-831649 211408 L-831033 211407 L-830530 211406 L-830143 211406 L-829524 211407 L-829308 211407 L-829153 211408 L-827860 211406 L-827761 211405 L-827319 211403 L-826987 211402 L-826687 211400 L-826444 211399 L-825710 211397 L-825131 211396 L-824301 211395 L-824201 211394 L-823643 211393 L-823505 211393 L-821863 211392 L-821802 211392 L-821708 211392 L-820741 211392 L-820564 211391 L-820277 211391 L-820059 211391 L-819981 211390 L-819710 211390 L-819594 211389 L-819441 211388 L-819131 211387 L-819053 211386 L-818962 211386 L-818884 211385 L-818768 211385 L-818589 211384 L-818497 211383 L-818459 211382 L-817956 211382 L-817737 211381 L-817608 211381 L-817452 211380 L-817398 211379 L-817273 211379 L-816888 211378 L-816380 211377 L-816308 211376 L-815827 211375 L-815750 211374 L-815650 211374 L-815417 211373 L-814952 211373 L-814722 211373 L-814706 211373 L-814473 211373 L-814319 211373 L-814257 211373 L-814064 211372 L-813793 211371 L-813042 211370 L-812089 211370 L-812053 211369 L-811828 211369 L-811388 211369 L-811107 211367 L-810759 211366 L-809690 211365 L-808762 211365 L-808631 211365 L-808584 211365 L-808515 211364 L-808360 211364 L-808283 211362 L-808109 211360 L-807675 211358 L-807470 211357 L-807410 211355 L-806828 211354 L-806674 211352 L-806558 211351 L-806517 211350 L-806348 211349 L-806211 211348 L-806000 211347 L-805923 211346 L-805899 211345 L-805691 211343 L-805281 211342 L-805256 211341 L-805033 211340 L-804888 211339 L-804853 211338 L-804840 211337 L-804817 211336 L-804584 211335 L-804398 211334 L-804181 211333 L-804156 211332 L-803467 211331 L-803363 211330 L-803327 211329 L-803307 211328 L-803113 211327 L-803059 211326 L-802942 211325 L-802861 211325 L-802750 211324 L-802435 211323 L-801976 211322 L-801721 211321 L-801487 211319 L-801357 211318 L-801004 211317 L-800945 211316 L-800792 211315 L-800220 211313 L-800134 211312 L-799981 211310 L-799685 211308 L-799315 211306 L-799012 211304 L-798935 211303 L-798530 211302 L-798362 211302 L-798218 211302 L-797678 211302 L-797617 211302 L-797601 211301 L-797435 211300 L-797230 211299 L-797155 211299 L-797062 211298 L-796652 211297 L-796637 211296 L-796613 211296 L-796420 211295 L-796343 211303 L-796173 211312 L-796111 211320 L-796095 211328 L-795580 211327 L-795359 211326 L-794740 211325 L-794487 211324 L-794293 211323 L-794253 211322 L-794180 211322 L-794115 211322 L-793464 211322 L-793425 211323 L-793251 211323 L-793185 211323 L-792511 211323 L-792122 211321 L-791861 211320 L-791623 211319 L-791545 211317 L-791529 211315 L-791327 211314 L-790957 211312 L-790731 211311 L-790096 211310 L-790076 211310 L-789689 211309 L-789595 211309 L-789537 211308 L-789261 211307 L-788951 211307 L-788874 211306 L-788023 211307 L-787680 211312 L-787243 211318 L-786809 211323 L-786314 211327 L-786165 211326 L-785896 211327 L-784658 211328 L-784602 211330 L-782838 211331 L-782648 211330 L-781637 211329 L-781486 211328 L-781111 211330 L-780790 211332 L-780185 211334 L-780115 211336 L-779938 211335 L-779109 211334 L-778971 211333 L-778584 211332 L-778400 211331 L-778356 211330 L-778236 211329 L-778026 211328 L-777579 211326 L-777230 211325 L-777098 211325 L-776689 211324 L-776339 211324 L-776054 211323 L-775860 211322 L-775706 211322 L-775542 211321 L-775473 211320 L-775374 211320 L-775140 211319 L-775024 211319 L-774970 211318 L-774429 211318 L-773964 211317 L-772782 211317 L-772649 211317 L-772624 211317 L-772572 211317 L-771904 211317 L-770869 211315 L-770675 211314 L-770496 211313 L-770344 211313 L-770304 211312 L-770289 211312 L-770227 211311 L-769902 211310 L-768741 211309 L-768548 211308 L-768370 211307 L-767256 211306 L-766397 211305 L-766291 211305 L-765817 211304 L-765624 211304 L-763303 211303 L-763225 211302 L-763104 211301 L-763069 211300 L-763032 211298 L-762938 211295 L-762722 211293 L-762141 211291 L-761754 211290 L-760981 211289 L-760904 211288 L-760206 211288 L-759665 211288 L-759624 211287 L-759494 211287 L-759030 211286 L-758991 211285 L-758856 211284 L-758488 211283 L-758459 211282 L-758309 211282 L-757908 211281 L-756084 211282 L-755277 211281 L-754558 211281 L-754542 211281 L-754228 211279 L-753666 211279 L-753165 211278 L-752646 211277 L-752624 211276 L-750881 211275 L-750712 211274 L-750516 211273 L-749622 211272 L-749104 211270 L-748893 211269 L-748635 211268 L-747926 211267 L-746975 211266 L-746317 211265 L-746278 211263 L-745991 211262 L-745909 211261 L-745813 211261 L-745682 211260 L-745604 211260 L-744869 211260 L-744532 211259 L-744482 211260 L-744227 211260 L-743941 211259 L-743515 211259 L-742935 211258 L-742676 211258 L-742524 211257 L-742277 211257 L-742238 211257 L-741441 211257 L-741404 211256 L-741227 211256 L-740817 211254 L-740589 211254 L-740512 211254 L-740381 211254 L-740265 211253 L-739917 211252 L-739854 211251 L-739701 211250 L-738960 211249 L-738849 211248 L-738679 211247 L-738640 211246 L-738345 211246 L-737944 211246 L-737767 211246 L-737673 211246 L-737363 211245 L-736562 211244 L-736103 211242 L-735584 211241 L-735095 211240 L-734399 211239 L-733353 211238 L-733084 211238 L-733030 211237 L-732870 211237 L-732618 211237 L-732372 211236 L-732293 211235 L-732079 211234 L-731767 211233 L-731303 211231 L-731289 211230 L-730993 211230 L-730979 211229 L-729988 211228 L-729316 211227 L-728981 211225 L-728365 211225 L-728228 211224 L-727589 211223 L-727459 211222 L-726508 211220 L-726408 211218 L-725849 211217 L-725440 211217 L-725012 211217 L-724921 211216 L-724086 211216 L-723722 211216 L-723683 211217 L-723551 211218 L-723374 211218 L-723157 211218 L-723104 211217 L-722947 211215 L-722694 211214 L-721593 211213 L-721516 211212 L-721297 211211 L-721166 211210 L-721129 211209 L-720936 211208 L-720837 211207 L-720353 211206 L-720068 211205 L-719908 211204 L-719813 211202 L-719542 211201 L-719272 211200 L-719256 211196 L-719118 211193 L-718979 211190 L-718653 211187 L-718344 211185 L-718303 211184 L-718227 211182 L-718112 211181 L-717261 211179 L-716935 211178 L-716603 211177 L-716471 211177 L-716255 211177 L-716238 211177 L-715558 211177 L-715465 211175 L-715441 211174 L-715426 211172 L-715387 211171 L-714975 211169 L-714706 211168 L-714666 211167 L-714297 211167 L-714088 211166 L-713005 211166 L-712988 211165 L-712960 211165 L-712940 211165 L-712563 211163 L-712308 211162 L-712060 211160 L-711920 211158 L-711788 211157 L-711456 211156 L-711363 211155 L-711302 211154 L-710744 211153 L-710683 211152 L-710527 211151 L-710333 211150 L-710141 211149 L-710125 211148 L-710087 211147 L-710048 211146 L-709777 211145 L-709654 211144 L-709622 211143 L-709522 211143 L-709366 211143 L-709225 211143 L-708941 211142 L-708616 211142 L-707920 211142 L-707897 211142 L-707388 211142 L-706542 211142 L-706179 211141 L-706024 211140 L-705420 211140 L-705250 211140 L-705189 211140 L-705134 211139 L-704079 211138 L-704060 211138 L-703154 211138 L-703133 211138 L-702966 211137 L-702724 211137 L-702673 211136 L-702619 211134 L-702481 211133 L-702442 211132 L-701514 211131 L-701458 211131 L-701336 211131 L-701265 211131 L-701149 211131 L-700970 211132 L-699988 211131 L-699849 211131 L-699731 211129 L-699436 211127 L-699189 211126 L-699153 211125 L-699098 211126 L-699076 211126 L-698943 211126 L-698864 211126 L-698727 211125 L-698104 211125 L-697937 211124 L-697473 211124 L-697296 211122 L-697280 211121 L-697220 211120 L-697103 211120 L-696621 211119 L-695925 211118 L-695552 211117 L-695383 211116 L-694417 211115 L-694262 211114 L-694084 211114 L-693991 211113 L-693736 211113 L-693565 211113 L-692919 211112 L-692908 211112 L-692327 211111 L-692189 211111 L-692134 211109 L-691399 211108 L-691360 211107 L-691283 211107 L-690641 211106 L-689866 211106 L-689774 211105 L-689725 211105 L-689710 211104 L-689674 211104 L-689657 211102 L-689594 211101 L-689578 211100 L-689558 211100 L-689403 211099 L-689365 211098 L-689349 211097 L-689309 211097 L-689170 211096 L-689094 211095 L-688729 211094 L-688381 211093 L-687607 211092 L-687005 211091 L-686809 211090 L-686579 211090 L-686441 211089 L-685803 211089 L-685514 211088 L-685492 211088 L-685032 211087 L-684799 211087 L-684744 211086 L-684706 211085 L-684203 211084 L-683652 211083 L-682864 211082 L-681741 211082 L-680847 211081 L-680759 211081 L-680460 211080 L-680388 211079 L-680272 211078 L-679095 211077 L-678747 211076 L-678725 211075 L-678206 211074 L-678059 211074 L-677951 211073 L-677741 211072 L-677587 211071 L-677564 211070 L-677370 211069 L-677293 211068 L-677150 211067 L-676349 211066 L-676203 211065 L-675923 211064 L-675745 211063 L-675436 211062 L-674624 211061 L-673696 211061 L-672104 211060 L-671860 211059 L-671219 211058 L-671024 211057 L-670946 211056 L-670429 211055 L-670197 211055 L-670174 211054 L-670042 211054 L-669702 211053 L-669692 211052 L-669475 211051 L-669438 211051 L-668897 211050 L-668368 211048 L-668300 211047 L-668007 211046 L-667459 211044 L-667424 211043 L-667371 211042 L-667272 211040 L-667040 211040 L-666459 211040 L-666362 211041 L-666288 211041 L-665956 211040 L-665206 211039 L-665167 211038 L-664487 211038 L-664332 211038 L-664006 211037 L-663790 211036 L-663559 211036 L-663262 211035 L-663016 211034 L-662665 211033 L-662612 211032 L-661852 211031 L-661159 211029 L-660808 211028 L-660345 211027 L-659711 211026 L-659302 211025 L-659225 211026 L-658799 211026 L-658156 211025 L-657987 211025 L-657245 211024 L-657058 211023 L-656762 211022 L-656190 211021 L-656165 211020 L-655146 211020 L-654659 211019 L-654566 211019 L-654504 211018 L-654216 211017 L-653930 211016 L-653869 211015 L-653689 211015 L-652978 211014 L-652802 211013 L-652604 211012 L-652452 211011 L-652360 211010 L-652299 211009 L-651757 211009 L-651446 211008 L-651354 211006 L-651277 211005 L-650710 211004 L-650619 211004 L-650364 211002 L-650037 211000 L-650000 210997 L-649845 210994 L-649613 210993 L-649291 210992 L-648159 210991 L-647959 210990 L-647434 210989 L-647189 210989 L-646943 210988 L-646863 210987 L-646843 210985 L-646767 210984 L-646711 210983 L-646634 210982 L-646595 210981 L-646416 210979 L-646379 210978 L-646148 210977 L-644910 210976 L-644583 210975 L-644544 210973 L-643762 210972 L-643615 210971 L-642623 210970 L-642417 210970 L-641991 210970 L-641864 210970 L-641459 210971 L-641371 210970 L-640715 210969 L-640007 210968 L-639399 210967 L-639206 210966 L-638973 210964 L-638354 210963 L-638059 210961 L-637619 210960 L-637464 210960 L-637309 210959 L-636553 210957 L-636203 210956 L-635801 210956 L-635762 210955 L-634756 210955 L-634436 210955 L-634189 210954 L-633490 210952 L-633416 210951 L-633104 210950 L-632024 210949 L-631832 210948 L-631598 210948 L-631404 210947 L-630903 210946 L-630150 210946 L-630036 210946 L-629836 210946 L-629795 210945 L-629702 210944 L-629389 210943 L-629301 210942 L-629184 210941 L-628867 210941 L-628798 210940 L-628773 210939 L-628411 210938 L-628372 210937 L-628156 210937 L-627652 210937 L-627050 210938 L-626839 210940 L-626685 210941 L-626648 210941 L-626604 210939 L-626569 210938 L-626436 210937 L-626027 210937 L-625656 210936 L-625603 210935 L-625587 210934 L-625508 210933 L-625098 210932 L-624944 210931 L-624929 210929 L-624889 210928 L-624711 210926 L-624635 210925 L-624403 210924 L-623613 210923 L-623536 210923 L-622801 210921 L-622645 210920 L-622405 210918 L-622344 210916 L-622258 210915 L-622236 210914 L-622118 210912 L-622104 210910 L-622042 210908 L-622004 210907 L-621910 210906 L-621888 210906 L-621772 210905 L-621539 210904 L-621369 210902 L-620549 210902 L-620148 210901 L-619992 210901 L-619487 210901 L-619373 210901 L-618777 210901 L-618403 210900 L-618351 210900 L-618157 210899 L-617460 210899 L-617422 210898 L-617277 210898 L-617052 210897 L-616790 210896 L-616417 210895 L-615991 210894 L-615862 210893 L-615842 210891 L-615349 210891 L-614652 210891 L-614421 210891 L-614267 210891 L-613298 210891 L-613073 210892 L-612796 210892 L-612780 210891 L-612254 210891 L-611725 210890 L-611577 210889 L-611557 210888 L-611016 210887 L-610706 210886 L-610588 210884 L-610396 210882 L-610260 210880 L-609933 210879 L-609816 210878 L-609507 210878 L-609081 210877 L-609025 210877 L-608792 210878 L-608695 210878 L-608562 210878 L-608266 210878 L-608152 210877 L-607788 210876 L-607475 210876 L-606992 210875 L-606822 210874 L-606573 210873 L-606358 210872 L-605832 210871 L-605645 210869 L-605290 210868 L-604654 210868 L-604500 210866 L-603759 210865 L-603340 210864 L-603159 210863 L-603083 210863 L-602952 210862 L-602659 210861 L-602618 210860 L-602388 210860 L-602195 210859 L-601940 210859 L-601514 210858 L-601404 210857 L-600786 210857 L-600605 210857 L-599393 210857 L-598746 210858 L-598595 210858 L-598558 210858 L-598426 210858 L-598325 210857 L-598309 210856 L-598227 210855 L-598016 210854 L-597899 210853 L-597536 210852 L-597164 210851 L-596468 210850 L-596065 210849 L-595960 210848 L-595942 210847 L-594998 210846 L-594803 210845 L-594650 210844 L-594595 210842 L-593839 210842 L-593822 210844 L-593333 210845 L-593202 210846 L-593009 210846 L-592119 210846 L-592080 210845 L-592041 210844 L-591965 210843 L-591926 210843 L-591849 210842 L-591765 210841 L-591500 210840 L-591268 210839 L-591206 210838 L-590725 210837 L-590389 210837 L-590278 210836 L-590084 210835 L-589908 210834 L-589848 210834 L-589812 210833 L-589542 210832 L-588845 210830 L-588792 210828 L-588498 210826 L-588096 210824 L-587531 210823 L-586658 210823 L-586354 210822 L-586316 210821 L-586193 210820 L-585594 210819 L-585465 210818 L-585264 210817 L-585227 210816 L-584613 210815 L-584435 210814 L-584420 210812 L-584202 210811 L-584123 210809 L-583816 210809 L-583684 210808 L-583452 210808 L-583118 210808 L-583027 210807 L-582926 210806 L-582888 210805 L-582345 210805 L-582153 210804 L-581611 210803 L-581186 210802 L-581054 210802 L-580992 210802 L-580761 210802 L-580744 210802 L-580256 210803 L-580176 210803 L-580158 210803 L-578765 210804 L-578629 210804 L-578516 210803 L-577881 210802 L-577742 210801 L-577624 210800 L-577470 210799 L-577433 210798 L-577355 210797 L-577301 210798 L-576309 210798 L-576272 210797 L-576139 210797 L-576079 210795 L-575980 210794 L-575689 210793 L-575676 210792 L-575366 210792 L-575266 210793 L-574800 210792 L-574747 210893 L-574604 210994 L-574477 211096 L-574244 211197 L-573676 211196 L-573587 211195 L-573564 211195 L-573277 211194 L-572594 211193 L-572517 211192 L-572481 211191 L-572465 211190 L-572265 211189 L-571845 211188 L-571574 211188 L-570700 211187 L-570408 211187 L-570297 211187 L-569563 211186 L-569436 211185 L-569076 211184 L-568824 211184 L-567952 211183 L-567783 211183 L-567722 211182 L-567667 211181 L-567319 211180 L-567295 211179 L-567087 211178 L-566946 211177 L-566816 211176 L-566693 211175 L-566570 211174 L-566333 211173 L-566042 211172 L-565383 211171 L-565361 211170 L-565206 211169 L-565089 211168 L-564124 211167 L-564069 211166 L-563836 211165 L-563814 211165 L-563488 211164 L-563372 211164 L-563332 211163 L-562831 211163 L-562532 211162 L-562420 211161 L-561878 211160 L-560819 211159 L-560193 211158 L-560021 211157 L-559773 211156 L-559517 211155 L-559386 211154 L-559364 211153 L-558697 211152 L-557801 211151 L-557755 211150 L-557684 211149 L-557569 211149 L-557348 211148 L-557157 211148 L-557118 211147 L-556926 211146 L-556267 211146 L-555650 211145 L-555611 211151 L-555014 211157 L-554953 211162 L-553831 211166 L-553776 211166 L-553655 211165 L-553390 211165 L-553326 211165 L-553057 211165 L-552981 211164 L-552765 211164 L-552282 211163 L-552012 211162 L-551881 211162 L-551649 211160 L-551624 211157 L-551609 211153 L-551586 211148 L-551571 211143 L-551547 211139 L-551533 211133 L-551509 211127 L-551494 211121 L-551471 211117 L-551456 211112 L-551433 211107 L-551417 211104 L-551389 211101 L-551371 211097 L-551353 211096 L-551317 211093 L-551277 211091 L-551262 211089 L-551237 211086 L-551184 211084 L-551160 211082 L-551083 211080 L-551045 211079 L-551030 211077 L-550967 211075 L-550952 211074 L-550906 211071 L-550835 211069 L-550797 211068 L-550773 211066 L-550721 211064 L-550695 211063 L-550680 211062 L-550618 211061 L-550581 211060 L-550504 211059 L-550488 211058 L-550460 211056 L-550388 211055 L-550348 211054 L-550195 211052 L-550078 211051 L-550024 211051 L-549942 211050 L-549908 211049 L-549884 211048 L-549730 211047 L-549715 211046 L-549613 211045 L-549303 211044 L-549266 211043 L-549051 211042 L-548940 211042 L-548915 211042 L-548685 211043 L-548453 211043 L-548078 211042 L-547950 211041 L-547910 211040 L-547858 211039 L-547756 211038 L-547720 211037 L-547509 211037 L-547445 211036 L-547332 211036 L-547121 211035 L-547084 211034 L-546711 211033 L-546658 211032 L-546579 211031 L-546557 211030 L-546465 211029 L-546265 211028 L-546227 211028 L-546205 211028 L-545975 211028 L-545954 211028 L-545745 211028 L-545650 211027 L-545613 211026 L-545276 211025 L-545164 211024 L-545124 211023 L-545110 211023 L-544970 211022 L-544956 211022 L-544701 211022 L-544118 211021 L-544042 211020 L-544004 211019 L-543959 211018 L-543911 211017 L-543731 211016 L-543717 211015 L-543617 211014 L-543539 211013 L-543479 211012 L-543113 211010 L-543031 211009 L-543013 211008 L-542960 211007 L-541991 211006 L-541860 211005 L-541838 211005 L-541618 211004 L-541549 211003 L-541527 211002 L-541280 211001 L-541024 211000 L-540893 210999 L-540854 210998 L-540832 210996 L-540777 210994 L-540689 210993 L-540628 210991 L-540403 210990 L-540273 210989 L-540173 210988 L-540119 210987 L-539926 210986 L-539848 210985 L-539514 210984 L-539384 210983 L-539206 210983 L-539190 210982 L-539165 210981 L-538896 210981 L-537695 210980 L-537658 210980 L-537542 210979 L-537309 210978 L-537118 210977 L-537079 210977 L-537023 210976 L-536919 210976 L-536405 210975 L-536111 210974 L-535879 210973 L-535604 210972 L-535587 210971 L-535554 210970 L-535514 210969 L-535476 210968 L-535375 210967 L-535298 210966 L-535205 210965 L-535078 210964 L-534973 210963 L-534795 210963 L-534603 210962 L-533774 210962 L-533658 210961 L-533403 210960 L-533363 210960 L-533264 210959 L-533204 210959 L-532961 210958 L-532937 210958 L-532817 210957 L-532745 210956 L-532706 210955 L-532474 210954 L-532298 210953 L-531777 210952 L-531701 210951 L-531684 210950 L-531273 210950 L-530910 210950 L-530795 210949 L-530772 210949 L-530731 210948 L-530655 210947 L-530601 210946 L-530252 210945 L-530137 210944 L-529959 210944 L-529904 210943 L-529880 210943 L-529766 210942 L-529479 210941 L-529247 210940 L-529031 210939 L-528822 210938 L-528611 210937 L-527785 210936 L-527445 210935 L-526438 210934 L-526075 210933 L-525029 210932 L-524952 210931 L-524505 210930 L-524293 210929 L-524101 210928 L-523807 210927 L-523766 210926 L-523613 210925 L-523559 210923 L-523328 210922 L-522747 210921 L-522553 210920 L-521934 210920 L-521445 210919 L-521393 210918 L-520745 210917 L-520594 210916 L-520425 210915 L-520052 210914 L-520037 210914 L-519938 210914 L-519899 210914 L-519768 210913 L-519335 210913 L-519032 210913 L-518646 210913 L-518506 210912 L-518345 210912 L-517911 210912 L-517872 210911 L-517771 210911 L-517655 210910 L-517477 210910 L-517307 210909 L-517189 210908 L-516828 210906 L-516610 210905 L-516478 210904 L-516338 210904 L-515839 210904 L-515761 210904 L-515526 210903 L-515203 210903 L-514816 210902 L-514793 210901 L-514173 210901 L-513903 210900 L-513670 210900 L-513245 210899 L-512973 210898 L-512831 210897 L-512623 210896 L-512417 210895 L-511866 210894 L-511735 210894 L-511348 210893 L-511078 210893 L-510975 210892 L-510715 210891 L-510513 210891 L-510444 210890 L-510405 210889 L-509838 210888 L-509631 210887 L-509604 210886 L-509374 210885 L-509297 210884 L-508780 210883 L-508742 210882 L-508586 210881 L-508292 210880 L-508021 210879 L-507657 210878 L-507309 210878 L-506937 210877 L-506817 210877 L-506745 210876 L-506265 210875 L-506202 210874 L-505868 210873 L-505737 210872 L-505659 210871 L-505530 210870 L-505066 210870 L-504772 210869 L-504695 210869 L-504384 210868 L-504075 210868 L-504012 210867 L-503982 210866 L-503208 210865 L-503103 210863 L-503015 210862 L-502992 210861 L-502838 210860 L-502616 210859 L-502450 210858 L-502063 210857 L-502008 210856 L-501945 210856 L-501327 210855 L-501210 210854 L-500887 210853 L-500362 210852 L-500011 210851 L-499935 210850 L-499315 210849 L-498904 210848 L-498604 210847 L-498293 210846 L-498155 210846 L-497531 210846 L-497149 210845 L-496026 210845 L-494965 210844 L-494903 210843 L-494542 210842 L-494441 210842 L-494425 210841 L-494051 210841 L-493046 210839 L-492659 210838 L-492452 210836 L-492363 210835 L-491987 210834 L-491695 210833 L-491383 210832 L-490594 210831 L-490506 210830 L-490454 210829 L-490416 210828 L-489898 210827 L-489783 210826 L-489574 210825 L-489435 210824 L-488831 210823 L-488002 210823 L-487718 210822 L-487537 210822 L-487035 210821 L-486830 210821 L-486276 210821 L-485771 210820 L-485580 210819 L-485541 210818 L-484912 210817 L-484459 210816 L-484045 210815 L-483436 210814 L-482315 210814 L-481902 210813 L-481578 210813 L-481363 210812 L-480936 210811 L-480796 210810 L-480705 210809 L-480474 210808 L-479887 210808 L-479079 210807 L-477880 210807 L-477766 210807 L-477634 210806 L-477546 210805 L-477504 210806 L-477484 210807 L-477473 210809 L-477378 210811 L-476615 210811 L-475909 210811 L-475869 210810 L-475582 210809 L-475042 210808 L-474980 210807 L-474940 210806 L-474926 210805 L-474669 210804 L-474345 210803 L-474205 210802 L-473935 210801 L-473896 210800 L-473788 210800 L-473387 210799 L-473277 210798 L-473200 210797 L-472903 210796 L-472860 210795 L-472642 210795 L-472458 210795 L-472348 210795 L-472333 210794 L-472307 210794 L-471883 210793 L-471637 210792 L-471301 210791 L-471266 210790 L-471132 210789 L-470878 210789 L-470723 210788 L-469817 210788 L-469718 210787 L-469523 210785 L-468516 210784 L-468015 210783 L-467937 210782 L-467898 210781 L-467690 210780 L-467572 210779 L-467474 210778 L-467288 210777 L-467122 210777 L-466887 210776 L-466467 210775 L-466452 210774 L-466143 210773 L-465097 210772 L-464880 210771 L-464864 210770 L-464842 210769 L-464633 210768 L-464474 210767 L-464416 210766 L-462970 210765 L-462645 210765 L-462443 210765 L-462244 210765 L-462094 210765 L-461823 210764 L-461382 210763 L-461165 210763 L-460470 210762 L-459968 210761 L-459643 210760 L-459372 210760 L-458651 210759 L-458496 210759 L-457298 210757 L-456909 210756 L-456793 210754 L-456640 210754 L-456486 210753 L-455515 210752 L-455463 210751 L-455216 210750 L-455194 210749 L-454974 210748 L-454536 210746 L-454396 210744 L-454288 210742 L-454086 210741 L-453969 210740 L-453867 210739 L-453852 210739 L-453720 210738 L-453466 210737 L-452848 210736 L-452189 210735 L-451943 210735 L-451750 210734 L-450991 210734 L-450952 210734 L-450874 210733 L-450821 210732 L-450782 210731 L-450744 210730 L-450705 210729 L-450614 210728 L-450569 210727 L-450511 210725 L-450487 210724 L-450372 210723 L-450062 210721 L-450007 210720 L-449986 210719 L-449644 210718 L-449479 210717 L-449443 210715 L-449402 210714 L-449388 210713 L-449156 210712 L-449015 210711 L-448848 210710 L-448398 210710 L-448165 210710 L-448072 210710 L-448052 210711 L-447571 210710 L-447494 210710 L-447367 210709 L-447237 210708 L-446858 210707 L-446617 210705 L-446579 210704 L-446525 210703 L-446387 210701 L-446348 210700 L-446308 210699 L-446078 210698 L-446038 210697 L-445907 210696 L-445729 210695 L-445688 210694 L-445674 210693 L-445510 210692 L-445495 210691 L-445342 210690 L-445327 210689 L-445301 210688 L-445267 210687 L-445045 210686 L-444822 210686 L-444568 210685 L-444436 210686 L-443794 210686 L-443186 210685 L-442167 210685 L-441974 210684 L-441923 210683 L-441798 210682 L-441473 210681 L-440700 210680 L-440643 210679 L-440529 210678 L-440117 210677 L-439792 210676 L-439654 210675 L-439430 210674 L-438904 210673 L-438503 210673 L-438471 210672 L-438184 210672 L-437899 210671 L-437511 210670 L-437295 210669 L-436867 210667 L-436686 210666 L-436350 210665 L-436243 210664 L-436057 210664 L-435940 210663 L-435926 210663 L-435204 210663 L-435035 210662 L-434786 210661 L-434686 210660 L-434044 210659 L-433756 210658 L-433566 210657 L-433291 210656 L-432973 210655 L-432689 210654 L-432575 210652 L-432530 210651 L-432327 210650 L-430719 210649 L-430507 210648 L-429826 210647 L-429743 210646 L-429515 210645 L-429325 210645 L-429186 210644 L-429167 210644 L-428974 210644 L-428744 210644 L-428551 210644 L-427467 210643 L-427272 210643 L-427219 210643 L-427065 210643 L-426958 210643 L-426791 210643 L-426639 210642 L-426524 210641 L-426400 210640 L-425982 210639 L-425725 210637 L-425633 210636 L-425440 210636 L-425378 210635 L-425053 210635 L-424992 210635 L-424935 210634 L-424666 210633 L-424317 210632 L-424139 210631 L-423945 210630 L-423909 210631 L-423196 210631 L-423157 210633 L-422847 210634 L-422549 210635 L-422500 210636 L-422244 210637 L-421973 210638 L-421918 210638 L-420827 210638 L-420797 210637 L-420756 210637 L-420580 210637 L-420387 210636 L-419529 210636 L-418476 210635 L-418415 210634 L-418066 210633 L-417253 210633 L-416440 210633 L-416425 210633 L-416050 210633 L-415881 210633 L-415612 210633 L-415285 210632 L-415163 210631 L-415106 210631 L-415071 210630 L-414993 210630 L-414776 210629 L-414718 210628 L-414402 210627 L-414234 210626 L-413871 210626 L-413678 210626 L-413654 210626 L-413577 210625 L-413096 210625 L-412959 210625 L-412545 210624 L-412246 210624 L-412147 210623 L-412131 210622 L-412102 210621 L-411743 210620 L-411393 210619 L-411255 210618 L-411219 210618 L-410402 210617 L-410196 210617 L-410171 210616 L-410015 210616 L-409925 210615 L-409684 210615 L-409360 210614 L-409268 210614 L-409071 210613 L-408785 210613 L-408030 210612 L-407900 210611 L-407827 210610 L-407214 210609 L-407038 210608 L-406928 210607 L-406828 210606 L-406749 210605 L-406612 210604 L-406458 210604 L-406379 210604 L-406188 210604 L-405514 210604 L-405476 210603 L-405373 210602 L-404430 210601 L-404408 210600 L-404057 210599 L-403592 210598 L-403557 210597 L-403127 210596 L-403076 210596 L-402665 210595 L-402648 210595 L-402552 210595 L-402497 210595 L-402458 210595 L-402163 210595 L-400424 210594 L-398915 210593 L-398407 210592 L-397909 210591 L-397775 210590 L-397684 210589 L-397557 210588 L-397478 210586 L-397173 210585 L-396902 210584 L-396668 210584 L-395469 210583 L-395364 210583 L-395298 210582 L-394457 210581 L-394271 210580 L-393360 210579 L-392491 210577 L-392203 210576 L-392111 210574 L-391562 210573 L-391042 210572 L-389973 210572 L-389705 210571 L-389551 210571 L-389458 210571 L-389328 210572 L-389281 210572 L-389121 210572 L-388255 210572 L-387920 210572 L-387537 210572 L-386784 210571 L-386725 210570 L-386336 210570 L-386014 210570 L-385857 210569 L-385125 210569 L-385062 210569 L-384775 210569 L-384401 210569 L-384220 210569 L-383964 210568 L-383703 210566 L-383550 210565 L-383147 210564 L-381850 210563 L-381734 210562 L-381271 210561 L-379939 210560 L-379514 210559 L-379490 210558 L-379357 210557 L-379182 210556 L-379048 210556 L-378718 210555 L-378331 210554 L-378291 210553 L-378275 210551 L-377884 210550 L-377593 210549 L-377324 210549 L-377150 210549 L-375657 210549 L-375607 210549 L-375529 210549 L-374289 210550 L-374214 210550 L-374187 210552 L-373941 210551 L-373783 210551 L-373725 210550 L-372837 210550 L-372609 210549 L-372085 210549 L-371944 210550 L-371868 210550 L-371172 210551 L-370924 210551 L-370243 210550 L-370226 210550 L-369972 210549 L-369604 210549 L-369469 210549 L-368847 210547 L-368503 210546 L-368456 210545 L-367969 210544 L-367635 210542 L-367418 210542 L-367284 210541 L-366963 210540 L-366898 210540 L-366646 210539 L-366357 210538 L-366047 210537 L-365907 210536 L-365368 210535 L-365092 210534 L-364362 210533 L-364309 210533 L-364202 210533 L-363936 210533 L-363512 210533 L-363247 210532 L-363028 210531 L-363007 210530 L-362776 210529 L-362489 210528 L-362466 210528 L-362451 210527 L-362079 210527 L-361907 210526 L-361831 210525 L-361770 210524 L-361469 210522 L-361228 210520 L-361135 210519 L-360878 210518 L-360826 210517 L-360630 210516 L-360414 210517 L-359990 210517 L-359898 210518 L-359758 210517 L-358893 210516 L-358519 210515 L-358192 210513 L-358039 210512 L-357612 210512 L-356894 210511 L-356699 210511 L-356345 210510 L-356199 210509 L-355692 210507 L-355456 210506 L-354489 210505 L-354479 210504 L-353413 210503 L-353181 210503 L-352779 210502 L-352585 210501 L-352505 210500 L-352409 210499 L-351672 210499 L-351540 210499 L-351150 210499 L-351128 210498 L-351033 210498 L-350897 210497 L-350880 210496 L-350860 210495 L-349175 210494 L-349157 210494 L-349040 210493 L-348956 210493 L-348831 210493 L-348807 210492 L-348523 210491 L-348416 210490 L-348228 210488 L-347958 210487 L-347286 210486 L-346914 210485 L-346062 210485 L-346004 210484 L-345985 210484 L-345752 210484 L-345477 210483 L-345172 210483 L-345132 210481 L-344901 210481 L-344664 210480 L-344051 210480 L-344010 210479 L-343973 210477 L-343451 210476 L-343260 210475 L-343199 210474 L-343157 210473 L-342834 210473 L-342806 210472 L-342792 210472 L-342306 210471 L-342253 210470 L-342115 210469 L-342077 210468 L-342060 210467 L-341965 210466 L-341300 210466 L-340684 210465 L-340414 210465 L-340006 210465 L-339986 210464 L-339970 210464 L-339856 210463 L-339469 210462 L-339003 210462 L-338942 210461 L-338863 210460 L-338849 210459 L-338363 210458 L-338323 210457 L-338178 210457 L-338128 210456 L-338049 210457 L-337417 210456 L-337326 210456 L-337085 210456 L-336969 210455 L-336641 210455 L-335887 210454 L-335870 210454 L-334918 210454 L-334609 210453 L-334184 210452 L-333471 210451 L-333152 210450 L-333137 210449 L-332986 210447 L-332683 210446 L-332605 210445 L-332478 210444 L-332041 210444 L-331980 210444 L-331457 210444 L-331189 210444 L-331051 210443 L-330973 210442 L-330934 210441 L-330123 210441 L-330082 210441 L-329642 210441 L-329564 210441 L-329306 210440 L-329116 210439 L-328487 210438 L-328300 210437 L-328265 210435 L-328109 210435 L-327708 210433 L-327630 210432 L-327449 210431 L-327259 210430 L-326330 210428 L-326180 210427 L-324972 210426 L-324162 210425 L-323759 210424 L-323157 210423 L-322955 210422 L-322886 210421 L-322728 210420 L-322466 210419 L-322093 211278 L-322074 211277 L-321918 211277 L-320719 211277 L-319616 210417 L-318688 210416 L-318574 210415 L-318289 210414 L-318187 210413 L-318163 210413 L-317972 210412 L-317895 210411 L-317699 210411 L-316987 210411 L-316829 210412 L-315772 210412 L-315348 210412 L-314937 210411 L-314651 210409 L-314477 210408 L-314245 210407 L-313991 210406 L-313548 210405 L-312888 210404 L-312712 210403 L-312407 210402 L-312020 210401 L-312000 210400 L-311981 210399 L-311959 210398 L-311826 210397 L-311633 210396 L-309989 210395 L-308693 210394 L-308654 210393 L-308596 210392 L-308495 210391 L-307936 210390 L-306952 210389 L-306409 210388 L-305945 210387 L-305300 210386 L-304751 210385 L-303701 210384 L-302772 210383 L-302425 210382 L-302231 210381 L-301728 210380 L-301283 210380 L-301141 210379 L-301119 210379 L-300548 210379 L-300163 210377 L-299330 210376 L-298981 210375 L-298959 210374 L-298571 210374 L-298149 210373 L-297550 210372 L-297531 210371 L-297025 210371 L-296793 210370 L-296680 210370 L-296061 210368 L-295499 210367 L-295459 210366 L-294900 210366 L-294567 210365 L-294455 210365 L-294416 210364 L-293991 210364 L-293931 210364 L-293855 210363 L-293564 210363 L-293352 210362 L-292868 210360 L-292654 210359 L-291514 210358 L-291455 210357 L-291437 210356 L-291031 210355 L-290392 210354 L-290257 210353 L-290199 210352 L-289657 210351 L-289348 210350 L-289097 210350 L-289021 210349 L-288901 210348 L-288168 210346 L-287723 210345 L-287508 210344 L-286775 210343 L-286600 210343 L-286235 210343 L-286020 210343 L-284782 210343 L-284472 210343 L-284356 210343 L-284103 210342 L-283892 210341 L-283350 210340 L-283118 210339 L-283061 210339 L-282963 210338 L-282634 210338 L-282402 210337 L-280739 210336 L-280389 210335 L-279985 210333 L-279830 210332 L-279037 210331 L-277547 210330 L-277160 210329 L-277121 210328 L-276867 210327 L-276772 210326 L-276580 210325 L-276231 210325 L-275535 210324 L-275284 210324 L-274568 210323 L-273156 210322 L-272924 210321 L-272594 210321 L-271378 210321 L-271026 210322 L-270834 210323 L-270716 210324 L-268281 210324 L-267312 210323 L-266481 210322 L-266172 210321 L-264830 210321 L-264257 210320 L-264141 210319 L-263812 210319 L-263716 210318 L-263308 210318 L-263193 210317 L-263002 210316 L-262245 210315 L-262120 210314 L-261838 210313 L-261336 210312 L-261258 210311 L-259672 210316 L-259614 210321 L-258872 210326 L-258491 210331 L-258163 210330 L-257500 210329 L-257370 210328 L-257330 210328 L-257080 210328 L-256944 210328 L-256751 210327 L-256615 210327 L-256364 210325 L-256151 210325 L-255842 210324 L-255569 210324 L-255068 210324 L-255049 210324 L-254615 210323 L-254389 210322 L-253946 210321 L-253927 210321 L-253424 210320 L-253286 210319 L-253172 210318 L-252940 210317 L-252630 210316 L-252165 210315 L-252088 210314 L-251585 210313 L-251315 210312 L-250977 210311 L-250792 210310 L-250115 210309 L-250097 210309 L-249922 210308 L-249902 210307 L-249284 210306 L-248568 210305 L-248006 210304 L-247811 210304 L-247658 210303 L-247639 210303 L-247116 210301 L-247001 210300 L-246130 210299 L-246108 210298 L-246052 210298 L-245221 210297 L-244911 210296 L-244834 210295 L-244563 210294 L-244500 210294 L-244449 210292 L-244138 210290 L-243521 210288 L-242745 210287 L-241951 210286 L-241913 210285 L-241836 210284 L-241663 210283 L-240785 210282 L-239901 210281 L-239806 210280 L-239687 210279 L-239357 210278 L-239321 210278 L-239088 210277 L-238855 210277 L-238140 210275 L-237638 210275 L-236972 210274 L-236864 210273 L-236709 210272 L-236690 210271 L-236535 210270 L-236120 210269 L-235509 210268 L-235374 210267 L-234466 210266 L-234263 210265 L-233710 210264 L-231061 210263 L-230886 210262 L-230808 210260 L-229937 210259 L-229473 210258 L-228990 210257 L-228952 210255 L-228371 210254 L-228351 210253 L-227249 210252 L-225827 210252 L-225410 210251 L-225102 210250 L-225025 210249 L-224949 210248 L-224791 210247 L-224715 210246 L-224251 210245 L-223013 210244 L-222761 210243 L-222317 210242 L-221695 210241 L-221639 210240 L-221446 210240 L-220981 210239 L-220690 210237 L-220649 210235 L-220613 210233 L-220460 210231 L-220282 210230 L-219144 210229 L-218756 210228 L-218699 210227 L-218525 210226 L-216008 210224 L-214848 210223 L-214210 210222 L-214072 210221 L-213940 210219 L-213552 210218 L-213088 210217 L-212878 210215 L-212812 210214 L-212779 210213 L-212025 210212 L-211443 210211 L-211251 210210 L-210632 210209 L-210586 210208 L-210226 210207 L-210119 210207 L-209935 210206 L-209657 210205 L-208754 210204 L-207749 210203 L-207014 210202 L-206588 210201 L-206428 210200 L-206065 210199 L-205968 210198 L-205525 210197 L-205449 210196 L-205097 210196 L-204847 210194 L-204828 210192 L-204654 210190 L-203706 210187 L-203592 210186 L-203029 210185 L-202579 210184 L-202194 210184 L-201283 210183 L-201228 210182 L-200088 210181 L-199508 210179 L-199333 210178 L-198540 210176 L-198308 210175 L-197922 210174 L-197651 210173 L-197515 210172 L-197400 210171 L-196780 210171 L-196723 210171 L-196508 210171 L-196213 210171 L-195425 210170 L-195285 210170 L-193897 210169 L-193550 210169 L-193163 210168 L-193102 210166 L-193065 210165 L-193008 210164 L-192365 210163 L-191674 210162 L-191422 210162 L-191086 210161 L-190997 210161 L-190476 210161 L-190223 210160 L-190007 210158 L-189624 210157 L-189463 210156 L-188925 210154 L-188113 210153 L-188094 210152 L-187978 210152 L-187834 210151 L-187453 210151 L-187261 210151 L-187205 210150 L-186905 210149 L-186839 210148 L-186643 210147 L-186276 210146 L-186214 210145 L-185911 210144 L-185865 210144 L-185811 210143 L-185173 210143 L-185154 210142 L-184669 210141 L-184187 210142 L-183818 210142 L-183451 210143 L-183317 210143 L-183163 210142 L-183093 210141 L-182445 210141 L-182425 210140 L-182285 210140 L-181800 210139 L-181517 210139 L-181459 210138 L-181401 210138 L-181091 210138 L-180937 210137 L-180453 210137 L-179680 210137 L-179040 210137 L-178942 210136 L-177880 210136 L-177858 210135 L-177393 211291 L-177377 211291 L-177204 211291 L-176691 211291 L-174337 210134 L-173392 210133 L-172673 210132 L-172133 210130 L-171436 210129 L-171119 210128 L-170471 210127 L-169963 210126 L-169929 210125 L-169887 210124 L-169541 210123 L-168846 210122 L-168649 210121 L-168633 210119 L-168517 210118 L-168235 210117 L-167337 210115 L-167291 210115 L-166925 210113 L-166908 210112 L-166853 210111 L-166660 210110 L-166524 210109 L-166449 210108 L-166215 210107 L-165673 210106 L-165633 210105 L-165596 210104 L-165570 210103 L-164935 210101 L-164393 210100 L-163228 210099 L-162868 210098 L-161591 210098 L-161552 210097 L-161514 210097 L-161299 210096 L-161108 210095 L-161031 210094 L-160877 210093 L-160838 210092 L-159749 210092 L-159425 210092 L-159210 210091 L-158950 210091 L-158457 210091 L-158435 210094 L-158018 210098 L-157877 210101 L-157817 210105 L-157740 210105 L-157529 210104 L-156234 210104 L-155958 210103 L-155334 210102 L-153942 210101 L-153870 210100 L-153832 210098 L-153639 210097 L-153249 210096 L-152942 210095 L-152886 210094 L-152570 210094 L-152520 210094 L-152481 210093 L-152436 210092 L-151803 210092 L-151029 210091 L-150590 210090 L-150448 211257 L-150424 211256 L-150408 212422 L-150383 212422 L-149965 211256 L-149762 211255 L-149613 210087 L-149535 210086 L-149480 210085 L-148683 210085 L-148667 210085 L-147804 210085 L-147600 210085 L-147313 210084 L-147197 210083 L-146672 210082 L-146495 210081 L-146191 210080 L-145804 210079 L-145744 210077 L-145688 210076 L-145534 210075 L-144489 210074 L-143927 210074 L-143691 210073 L-143654 210073 L-143385 210073 L-142979 210072 L-141510 210071 L-139769 210070 L-139382 210070 L-139150 210069 L-139051 210068 L-138956 210067 L-138801 210065 L-138238 210065 L-138156 210064 L-137989 210064 L-137446 210065 L-136262 210065 L-136248 210065 L-136188 210065 L-136037 210064 L-135552 210063 L-134905 210062 L-134199 210060 L-134082 210059 L-133115 210058 L-133070 210057 L-132379 210057 L-132323 210056 L-132245 210056 L-132225 210055 L-132204 210054 L-131989 210053 L-131276 210053 L-130886 210052 L-130849 210051 L-130832 210050 L-130774 210049 L-130347 210048 L-130132 210047 L-130058 210046 L-129980 210045 L-129865 210044 L-129799 210044 L-129671 210043 L-129612 210043 L-129536 210041 L-129457 210040 L-129029 210039 L-128303 210038 L-128290 210036 L-128123 210035 L-127907 210033 L-127892 210031 L-127311 210030 L-127039 210029 L-126751 210028 L-126321 210027 L-126168 210026 L-126111 210025 L-125935 210024 L-124539 210024 L-124274 210022 L-123381 210020 L-122855 210019 L-121836 210017 L-121755 210016 L-121291 210015 L-120672 210015 L-120385 210014 L-120132 210014 L-119980 210013 L-119632 210012 L-118915 210011 L-118353 210010 L-117465 210009 L-117156 210009 L-116865 210009 L-116013 210009 L-115992 210009 L-115335 210009 L-114832 210007 L-114621 210006 L-114601 210005 L-114272 210004 L-114213 210004 L-113827 210004 L-112841 210004 L-112280 210004 L-112182 210004 L-111874 210003 L-111797 210003 L-110762 210002 L-110632 210001 L-110575 210001 L-109940 210000 L-109881 209999 L-109805 209998 L-108391 209997 L-108254 209996 L-108121 209995 L-107635 209994 L-107385 209993 L-107095 209992 L-106882 209991 L-106225 209990 L-105657 209988 L-105568 209987 L-105428 209986 L-105353 209985 L-104189 209985 L-104157 209984 L-103727 209984 L-103710 209983 L-103536 209982 L-102008 209981 L-101923 209982 L-101118 209982 L-100924 209982 L-100903 209982 L-100050 209981 L-99856 209980 L-99223 209979 L-99047 209978 L-98928 209978 L-98874 209978 L-98853 209978 L-98797 209978 L-98408 209978 L-97964 209978 L-97886 209977 L-97689 209977 L-97628 209976 L-97365 209975 L-97017 209975 L-96901 209974 L-95752 209974 L-95468 209973 L-95023 209972 L-93819 209971 L-93689 209970 L-93379 209969 L-92951 209968 L-91655 209967 L-91345 211092 L-91329 211092 L-91283 211114 L-91233 211114 L-90305 209987 L-89975 209987 L-89426 209964 L-89299 209963 L-88853 209962 L-87319 209961 L-87151 209960 L-86879 209959 L-86855 209957 L-85951 209956 L-85835 209955 L-85368 209955 L-85346 209954 L-85273 209953 L-85075 209952 L-84923 209951 L-84456 209950 L-83805 209949 L-83319 209948 L-82768 209948 L-81747 209948 L-81440 209948 L-81386 209948 L-80786 209947 L-80356 209946 L-80282 209946 L-80264 209945 L-80043 209945 L-79739 209944 L-79657 209943 L-79353 209943 L-78753 209942 L-78617 209941 L-78347 209940 L-78133 209939 L-77958 209939 L-77749 209939 L-77727 209939 L-77478 209951 L-77029 209962 L-77012 209974 L-76567 209985 L-75359 209985 L-75157 209984 L-74228 209984 L-74167 209983 L-74132 209982 L-73106 209981 L-72990 209981 L-72970 209980 L-72816 209980 L-72797 209980 L-72385 209979 L-72370 209979 L-72332 209978 L-72022 209978 L-71868 209977 L-71663 209977 L-71264 209976 L-70282 209976 L-69757 209976 L-69700 209975 L-69675 209975 L-69353 209974 L-68636 209974 L-67767 209974 L-67728 209974 L-67651 209974 L-67400 209973 L-67380 209972 L-66657 209972 L-66507 209971 L-66394 209971 L-66297 209970 L-65195 209969 L-64440 209968 L-64268 209967 L-64106 209966 L-64030 209965 L-63837 209965 L-62698 209964 L-62014 209964 L-61731 209963 L-60764 209962 L-60745 209961 L-59894 209960 L-59854 209959 L-59711 209958 L-59386 209957 L-59157 209956 L-59119 209955 L-59078 209955 L-59062 209953 L-58926 209952 L-58907 209951 L-58695 209950 L-58635 209949 L-58558 209948 L-58534 209947 L-58459 209946 L-57978 209945 L-57882 209944 L-57806 209943 L-57629 209942 L-57607 209941 L-57552 209940 L-57514 209939 L-57455 209938 L-57300 209937 L-56276 209936 L-55977 209935 L-55850 209934 L-55772 209933 L-54746 209933 L-54690 209932 L-54632 209931 L-54586 209930 L-54572 209929 L-54535 209928 L-54496 209927 L-53317 209926 L-53258 209925 L-52561 209925 L-51942 209924 L-51799 209924 L-51357 209923 L-51091 209922 L-50428 209922 L-50144 209921 L-48674 209921 L-47725 209920 L-47619 209919 L-47553 209919 L-47523 209918 L-47204 209917 L-47183 209917 L-46254 209917 L-46078 209918 L-45346 209919 L-44806 158318 L-44782 106715 L-44756 55113 L-44723 3511 L-44707 3510 L-44686 3508 L-44648 3506 L-44629 3506 L-44606 3508 L-44591 3509 L-44572 3510 L-44552 3510 L-44530 3508 L-44513 3507 L-44494 3506 L-44475 3506 L-44436 3506 L-44396 3504 L-44371 3502 L-44355 3499 L-44337 3497 L-44300 3496 L-44281 3495 L-44261 3494 L-44243 3493 L-44221 3491 L-44204 3490 L-44165 3487 L-44142 3484 L-44127 3483 L-44108 3481 L-44088 3480 L-44068 3479 L-44049 3477 L-44011 3476 L-43953 3475 L-43905 3473 L-43853 3473 L-43827 3471 L-43811 3469 L-43794 3468 L-43778 3467 L-43757 3466 L-43740 3466 L-43720 3464 L-43700 3463 L-43677 3461 L-43662 3458 L-43643 3456 L-43623 3455 L-43602 3453 L-43565 3451 L-43546 3450 L-43525 3448 L-43489 3446 L-43468 3445 L-43442 3444 L-43426 3443 L-43408 3441 L-43391 3436 L-43371 3431 L-43353 3426 L-43333 3422 L-43314 3419 L-43256 3417 L-43236 3414 L-43214 3412 L-43179 3409 L-43159 3406 L-43139 3404 L-43121 3403 L-43102 3402 L-43063 3401 L-43043 3399 L-43025 3397 L-42998 3396 L-42811 3394 L-42791 3392 L-42772 3391 L-42749 3389 L-42715 3387 L-42695 3385 L-42673 3382 L-42656 3380 L-42636 3377 L-42617 3374 L-42597 3372 L-42579 3370 L-42560 3368 L-42539 3366 L-42514 3364 L-42498 3362 L-42463 3360 L-42442 3359 L-42424 3358 L-42404 3357 L-42385 3355 L-42364 3353 L-42328 3351 L-42308 3349 L-42286 3347 L-42270 3345 L-42251 3343 L-42231 3341 L-42211 3340 L-42173 3338 L-42096 3337 L-42071 3336 L-42048 3334 L-42020 3331 L-41997 3329 L-41971 3327 L-41921 3325 L-41901 3324 L-41863 3321 L-41844 3319 L-41822 3318 L-41806 3316 L-41786 3315 L-41766 3314 L-41746 3313 L-41709 3312 L-41689 3311 L-41632 3310 L-41611 3309 L-41585 3309 L-41571 3308 L-41553 3308 L-41515 3307 L-41496 3305 L-41477 3303 L-41457 3301 L-41437 3299 L-41419 3297 L-41400 3294 L-41379 3292 L-41359 3290 L-41322 3289 L-41302 3288 L-41283 3287 L-41245 3286 L-41206 3285 L-41186 3284 L-41167 3283 L-41119 3282 L-41091 3281 L-41052 3279 L-41021 3278 L-41007 3276 L-40934 3274 L-40915 3272 L-40893 3271 L-40877 3270 L-40858 3269 L-40818 3269 L-40741 3267 L-40722 3267 L-40703 3265 L-40682 3264 L-40657 3263 L-40625 3262 L-40606 3262 L-40587 3260 L-40548 3258 L-40508 3255 L-40429 3252 L-40394 3250 L-40354 3248 L-40277 3247 L-40258 3246 L-40212 3245 L-40190 3246 L-40162 3246 L-40123 3245 L-40093 3244 L-40078 3242 L-40064 3240 L-40023 3238 L-39962 3237 L-39948 3235 L-39929 3233 L-39908 3231 L-39832 3228 L-39793 3226 L-39775 3224 L-39728 3223 L-39711 3222 L-39693 3222 L-39677 3221 L-39638 3218 L-39618 3216 L-39600 3213 L-39578 3211 L-39561 3209 L-39522 3207 L-39484 3205 L-39465 3203 L-39445 3200 L-39425 3197 L-39407 3193 L-39388 3189 L-39368 3187 L-39348 3186 L-39284 3185 L-39262 3184 L-39234 3183 L-39210 3180 L-39184 3177 L-39168 3174 L-39151 3170 L-39115 3168 L-39097 3166 L-39077 3165 L-39057 3164 L-39034 3162 L-39019 3161 L-39000 3160 L-38980 3157 L-38959 3153 L-38942 3151 L-38922 3148 L-38903 3146 L-38882 3144 L-38865 3143 L-38846 3141 L-38799 3140 L-38783 3138 L-38765 3136 L-38748 3133 L-38728 3131 L-38710 3128 L-38690 3125 L-38671 3121 L-38633 3120 L-38613 3119 L-38571 3118 L-38556 3117 L-38537 3114 L-38516 3111 L-38478 3109 L-38459 3108 L-38439 3107 L-38400 3106 L-38382 3104 L-38356 3102 L-38305 3101 L-38268 3100 L-38253 3099 L-38207 3098 L-38168 3096 L-38148 3095 L-38129 3093 L-38106 3092 L-38091 3090 L-38072 3088 L-38030 3087 L-38013 3085 L-37975 3083 L-37954 3081 L-37936 3078 L-37896 3075 L-37871 3073 L-37854 3071 L-37820 3069 L-37800 3066 L-37781 3062 L-37761 3058 L-37720 3053 L-37704 3048 L-37627 3045 L-37608 3043 L-37568 3042 L-37549 3040 L-37530 3039 L-37511 3039 L-37492 3038 L-37472 3038 L-37377 3039 L-37352 3038 L-37324 3037 L-37293 3035 L-37278 3033 L-37257 3031 L-37219 3029 L-37200 3027 L-37177 3025 L-37162 3024 L-37143 3023 L-37123 3021 L-37101 3019 L-37085 3017 L-37065 3016 L-37046 3014 L-37025 3012 L-37007 3009 L-36989 3007 L-36968 3006 L-36942 3004 L-36925 3001 L-36907 2998 L-36870 2995 L-36852 2992 L-36832 2989 L-36814 2986 L-36792 2982 L-36756 2980 L-36736 2977 L-36713 2974 L-36698 2972 L-36679 2971 L-36659 2969 L-36621 2967 L-36582 2966 L-36562 2965 L-36543 2963 L-36499 2962 L-36397 2962 L-36381 2961 L-36249 2960 L-36234 2959 L-36215 2955 L-36195 2952 L-36173 2950 L-36136 2948 L-36117 2947 L-36097 2946 L-36039 2944 L-36014 2942 L-35998 2940 L-35980 2937 L-35963 2935 L-35943 2934 L-35924 2933 L-35885 2931 L-35863 2930 L-35828 2929 L-35808 2928 L-35786 2927 L-35731 2927 L-35711 2926 L-35653 2925 L-35615 2925 L-35548 2924 L-35520 2922 L-35497 2920 L-35471 2918 L-35438 2916 L-35421 2915 L-35401 2913 L-35383 2916 L-35363 2918 L-35344 2921 L-35322 2924 L-35305 2923 L-35209 2922 L-35151 2921 L-35111 2920 L-35086 2917 L-35054 2915 L-35015 2913 L-34977 2910 L-34957 2908 L-34919 2906 L-34879 2904 L-34841 2902 L-34822 2902 L-34783 2900 L-34764 2898 L-34745 2897 L-34725 2896 L-34706 2895 L-34686 2894 L-34668 2892 L-34641 2889 L-34591 2886 L-34552 2884 L-34521 2882 L-34506 2880 L-34493 2879 L-34454 2878 L-34434 2876 L-34393 2874 L-34377 2872 L-34358 2870 L-34317 2867 L-34281 2865 L-34241 2863 L-34203 2862 L-34157 2860 L-34143 2859 L-34067 2858 L-34028 2857 L-34008 2857 L-33990 2856 L-33971 2855 L-33874 2853 L-33835 2851 L-33777 2849 L-33758 2847 L-33739 2845 L-33713 2845 L-33690 2844 L-33624 2843 L-33607 2843 L-33592 2842 L-33578 2841 L-33542 2840 L-33486 2839 L-33462 2837 L-33429 2835 L-33409 2834 L-33370 2831 L-33350 2828 L-33332 2825 L-33310 2823 L-33293 2821 L-33274 2820 L-33253 2818 L-33228 2816 L-33177 2815 L-33156 2813 L-33100 2812 L-33080 2811 L-32984 2810 L-32965 2808 L-32926 2807 L-32906 2806 L-32888 2803 L-32849 2802 L-32829 2801 L-32810 2800 L-32762 2799 L-32710 2799 L-32683 2798 L-32667 2796 L-32651 2795 L-32635 2793 L-32597 2791 L-32576 2790 L-32557 2788 L-32500 2787 L-32480 2785 L-32458 2782 L-32442 2780 L-32422 2777 L-32403 2775 L-32346 2772 L-32325 2769 L-32299 2766 L-32264 2763 L-32248 2760 L-32228 2758 L-32210 2756 L-32190 2755 L-32171 2753 L-32149 2751 L-32132 2750 L-32113 2749 L-32093 2748 L-32071 2746 L-32055 2744 L-32037 2742 L-32016 2741 L-31996 2740 L-31959 2739 L-31939 2736 L-31919 2733 L-31855 2729 L-31833 2726 L-31805 2724 L-31766 2721 L-31734 2719 L-31719 2716 L-31686 2714 L-31648 2712 L-31629 2711 L-31606 2709 L-31591 2708 L-31572 2706 L-31552 2703 L-31513 2702 L-31493 2700 L-31454 2699 L-31396 2697 L-31371 2697 L-31336 2695 L-31320 2693 L-31299 2691 L-31281 2689 L-31242 2687 L-31221 2686 L-31204 2684 L-31184 2682 L-31165 2679 L-31142 2677 L-31127 2674 L-31108 2673 L-31030 2672 L-31011 2670 L-30991 2668 L-30972 2666 L-30953 2664 L-30927 2662 L-30853 2660 L-30827 2658 L-30811 2655 L-30794 2654 L-30778 2652 L-30758 2651 L-30740 2649 L-30700 2648 L-30678 2647 L-30662 2646 L-30643 2644 L-30623 2643 L-30602 2641 L-30585 2640 L-30489 2638 L-30468 2636 L-30442 2635 L-30409 2633 L-30391 2631 L-30371 2629 L-30353 2628 L-30333 2627 L-30314 2626 L-30292 2625 L-30276 2623 L-30256 2621 L-30236 2619 L-30214 2617 L-30198 2615 L-30179 2614 L-30139 2612 L-30121 2610 L-30082 2608 L-30025 2607 L-29999 2606 L-29976 2604 L-29948 2602 L-29925 2600 L-29899 2598 L-29866 2597 L-29850 2596 L-29829 2596 L-29811 2596 L-29791 2596 L-29772 2596 L-29734 2594 L-29715 2592 L-29695 2589 L-29673 2587 L-29637 2585 L-29617 2584 L-29597 2583 L-29579 2581 L-29560 2580 L-29539 2578 L-29514 2576 L-29498 2574 L-29480 2572 L-29463 2569 L-29443 2567 L-29424 2564 L-29405 2561 L-29385 2560 L-29328 2557 L-29308 2556 L-29286 2554 L-29192 2552 L-29154 2551 L-29134 2558 L-29115 2564 L-29096 2575 L-28998 2585 L-28971 2588 L-28939 2591 L-28921 2590 L-28822 2589 L-28805 2587 L-28787 2586 L-28766 2584 L-28746 2583 L-28728 2580 L-28709 2577 L-28689 2574 L-28670 2571 L-28632 2569 L-28611 2568 L-28554 2567 L-28534 2570 L-28515 2584 L-28496 2599 L-28477 2612 L-28457 2623 L-28436 2623 L-28379 2623 L-28358 2624 L-28322 2623 L-28302 2622 L-28245 2621 L-28225 2620 L-28186 2623 L-28168 2625 L-28141 2627 L-28091 2628 L-28052 2627 L-27993 2625 L-27973 2623 L-27954 2622 L-27915 2621 L-27877 2620 L-27838 2619 L-27761 2618 L-27741 2617 L-27722 2616 L-27625 2615 L-27606 2615 L-27528 2614 L-27471 2613 L-27413 2611 L-27374 2609 L-27355 2608 L-27335 2606 L-27316 2604 L-27191 2601 L-27109 2598 L-27094 2595 L-27079 2592 L-27043 2590 L-27005 2588 L-26986 2587 L-26963 2585 L-26948 2584 L-26929 2583 L-26870 2581 L-26850 2569 L-26832 2556 L-26810 2542 L-26793 2528 L-26774 2524 L-26753 2522 L-26728 2520 L-26711 2518 L-26693 2516 L-26677 2514 L-26656 2510 L-26638 2505 L-26618 2500 L-26578 2495 L-26542 2492 L-26522 2491 L-26499 2489 L-26465 2486 L-26425 2485 L-26406 2483 L-26368 2481 L-26348 2479 L-26329 2478 L-26310 2477 L-26284 2475 L-26262 2473 L-26210 2470 L-26184 2469 L-26168 2468 L-26151 2466 L-26135 2465 L-26115 2463 L-26097 2462 L-26077 2461 L-26000 2460 L-25980 2459 L-25959 2457 L-25942 2453 L-25922 2450 L-25882 2447 L-25846 2445 L-25824 2443 L-25799 2441 L-25783 2440 L-25764 2438 L-25727 2437 L-25710 2436 L-25689 2434 L-25671 2433 L-25649 2431 L-25633 2428 L-25613 2426 L-25593 2424 L-25570 2423 L-25516 2423 L-25496 2421 L-25478 2420 L-25420 2418 L-25356 2416 L-25333 2413 L-25255 2411 L-25223 2408 L-25186 2406 L-25168 2405 L-25148 2403 L-25106 2402 L-25091 2400 L-25052 2398 L-25030 2395 L-25013 2392 L-24993 2388 L-24954 2385 L-24936 2382 L-24917 2380 L-24896 2377 L-24871 2376 L-24854 2373 L-24836 2370 L-24799 2367 L-24761 2365 L-24742 2362 L-24720 2360 L-24684 2359 L-24641 2357 L-24588 2355 L-24549 2354 L-24531 2352 L-24511 2349 L-24490 2347 L-24427 2345 L-24352 2342 L-24309 2341 L-24294 2339 L-24278 2337 L-24240 2336 L-24219 2335 L-24177 2334 L-24162 2334 L-24143 2333 L-24123 2332 L-24101 2331 L-24085 2329 L-24065 2327 L-24025 2324 L-23989 2321 L-23968 2318 L-23942 2315 L-23925 2313 L-23907 2311 L-23891 2309 L-23870 55425 L-23839 55422 L-23813 55418 L-23791 55414 L-23775 2292 L-23755 2291 L-23736 2289 L-23698 2286 L-23679 2284 L-23659 2281 L-23639 2277 L-23582 2274 L-23562 2271 L-23543 2268 L-23498 2267 L-23476 2265 L-23448 2263 L-23423 2262 L-23396 2260 L-23365 2258 L-23329 2256 L-23311 2255 L-23291 2253 L-23215 2252 L-23194 2251 L-23173 2251 L-23156 2252 L-23136 2252 L-23039 2253 L-23014 2251 L-22997 2250 L-22979 2248 L-22963 2245 L-22924 2243 L-22905 2241 L-22864 2240 L-22828 2239 L-22808 2237 L-22785 2236 L-22770 2234 L-22731 2233 L-22673 2232 L-22634 2230 L-22548 2227 L-22520 2225 L-22497 2222 L-22455 2219 L-22383 2218 L-22363 2217 L-22305 2217 L-22286 2218 L-22266 2217 L-22246 2215 L-22209 2213 L-22169 2211 L-22151 2210 L-22111 2210 L-22085 2209 L-22034 2208 L-21996 2207 L-21937 2205 L-21918 2204 L-21900 2202 L-21859 2201 L-21783 2198 L-21764 2196 L-21745 2193 L-21686 2189 L-21667 2186 L-21641 2183 L-21619 2181 L-21553 2179 L-21523 2178 L-21508 2176 L-21472 2175 L-21435 2173 L-21393 2172 L-21358 2170 L-21338 2168 L-21317 2167 L-21299 2166 L-21281 2165 L-21260 2164 L-21241 2163 L-21222 2162 L-21142 2161 L-21087 2160 L-21067 2158 L-21048 2157 L-21008 2157 L-20990 2157 L-20929 2157 L-20894 2156 L-20874 2154 L-20835 2153 L-20796 2151 L-20777 2149 L-20739 2148 L-20623 2146 L-20591 2145 L-20577 2143 L-20543 2141 L-20525 2140 L-20505 2138 L-20462 2137 L-20428 2135 L-20370 2134 L-20349 2132 L-20310 2132 L-20253 2131 L-20228 2130 L-20211 2128 L-20177 2126 L-20156 2125 L-20137 2123 L-20118 2121 L-20061 2119 L-20042 2117 L-20000 2115 L-19984 2113 L-19945 2110 L-19925 2107 L-19906 2105 L-19868 2103 L-19848 2102 L-19829 2101 L-19810 2099 L-19762 2097 L-19734 2095 L-19709 2094 L-19682 2092 L-19666 2090 L-19651 2088 L-19614 2085 L-19557 2083 L-19519 2081 L-19480 2079 L-19459 2077 L-19442 2075 L-19422 2072 L-19382 2070 L-19365 2068 L-19346 2066 L-19325 2063 L-19299 2061 L-19282 2058 L-19264 2057 L-19248 2054 L-19227 2052 L-19209 2050 L-19190 2048 L-19171 2047 L-19149 2045 L-19133 2043 L-19114 2042 L-19070 2038 L-19055 2035 L-19037 2032 L-19016 2027 L-18996 2023 L-18978 2020 L-18939 2016 L-18856 2014 L-18833 2012 L-18805 2009 L-18767 2007 L-18736 2005 L-18722 2003 L-18686 2002 L-18648 2000 L-18605 2000 L-18591 1999 L-18552 1998 L-18493 1996 L-18475 1994 L-18453 1991 L-18417 1990 L-18396 1989 L-18371 1989 L-18353 1988 L-18320 1986 L-18298 1984 L-18281 1982 L-18262 1979 L-18242 1976 L-18204 1973 L-18184 1970 L-18165 1967 L-18141 1966 L-18127 1965 L-18067 1963 L-18049 1961 L-18030 1959 L-18011 1955 L-17991 1953 L-17953 1950 L-17927 1948 L-17877 1946 L-17838 1945 L-17807 1944 L-17793 1944 L-17778 1943 L-17719 1941 L-17700 1940 L-17662 1938 L-17643 1936 L-17623 1934 L-17584 1932 L-17564 1929 L-17546 1927 L-17524 1924 L-17489 1921 L-17467 1920 L-17442 1918 L-17391 1917 L-17352 1915 L-17332 1912 L-17292 1909 L-17275 1906 L-17255 1903 L-17213 1900 L-17198 1898 L-17179 1897 L-17159 1895 L-17139 1893 L-17121 1892 L-17102 1891 L-17082 1890 L-16976 1888 L-16910 1887 L-16880 1884 L-16850 1882 L-16811 1880 L-16791 1879 L-16734 1877 L-16715 1875 L-16695 1873 L-16673 1870 L-16656 1867 L-16618 1865 L-16596 1862 L-16579 1859 L-16560 1858 L-16539 1856 L-16514 1853 L-16497 1852 L-16479 1849 L-16463 1847 L-16442 1846 L-16424 1845 L-16404 1844 L-16385 1842 L-16364 1841 L-16347 1841 L-16308 1841 L-16286 1841 L-16251 1841 L-16211 1839 L-16192 1838 L-16173 1836 L-16153 1833 L-16134 1831 L-16115 1829 L-16096 1826 L-16048 1825 L-16020 1823 L-15997 1821 L-15970 1820 L-15937 1818 L-15883 1816 L-15863 1815 L-15844 1813 L-15821 1812 L-15805 1810 L-15787 1809 L-15728 1808 L-15709 1807 L-15689 1806 L-15632 1805 L-15611 1803 L-15535 1802 L-15515 1800 L-15496 1798 L-15477 1796 L-15436 1793 L-15419 1789 L-15400 1787 L-15379 1784 L-15302 1784 L-15283 1783 L-15205 1781 L-15091 1779 L-15051 1777 L-15018 1776 L-15004 1775 L-14992 1774 L-14971 1773 L-14954 1772 L-14915 1770 L-14877 1769 L-14858 1767 L-14838 1766 L-14761 1764 L-14682 1762 L-14657 1761 L-14642 1761 L-14606 1760 L-14587 1760 L-14567 1759 L-14548 1758 L-14490 1756 L-14471 1755 L-14451 1753 L-14429 1752 L-14374 1750 L-14354 1748 L-14258 1746 L-14239 1744 L-14190 1744 L-14162 1743 L-14122 1743 L-14062 1741 L-14042 1740 L-14025 1738 L-14005 1738 L-13986 1737 L-13962 1735 L-13948 1734 L-13928 1732 L-13909 1730 L-13887 1729 L-13850 1727 L-13832 1726 L-13810 1724 L-13775 1722 L-13753 1721 L-13711 1720 L-13693 1718 L-13677 1716 L-13656 1714 L-13638 1712 L-13618 1710 L-13599 1708 L-13578 1706 L-13561 1704 L-13541 1702 L-13498 1700 L-13465 1698 L-13445 1696 L-13424 1693 L-13406 1692 L-13387 1690 L-13368 1688 L-13348 1687 L-13329 1686 L-13310 1685 L-13284 1685 L-13195 1684 L-13164 1682 L-13150 1680 L-13114 1678 L-13076 1676 L-13057 1675 L-13034 1673 L-13019 1672 L-13000 1670 L-12980 1670 L-12942 1668 L-12921 1666 L-12903 1668 L-12882 1669 L-12859 1669 L-12846 1669 L-12824 1666 L-12799 1663 L-12763 1660 L-12748 1657 L-12728 1654 L-12709 1654 L-12690 1654 L-12671 1654 L-12649 1653 L-12633 1650 L-12613 1648 L-12570 1646 L-12555 1645 L-12536 1643 L-12495 1641 L-12478 1640 L-12459 1637 L-12439 1635 L-12419 1633 L-12400 1631 L-12381 1630 L-12333 1628 L-12266 1627 L-12234 1626 L-12207 1625 L-12185 1624 L-12168 1624 L-12147 1623 L-12128 1622 L-12105 1622 L-12091 1621 L-12071 1620 L-12052 1617 L-12029 1614 L-12013 1612 L-11992 1610 L-11974 1609 L-11917 1607 L-11896 1605 L-11871 1603 L-11853 1601 L-11834 1600 L-11820 1598 L-11798 1596 L-11781 1594 L-11760 1593 L-11742 1591 L-11719 1591 L-11704 1590 L-11685 1589 L-11641 1587 L-11627 1586 L-11608 1584 L-11588 1583 L-11567 1582 L-11550 1580 L-11531 1578 L-11472 1577 L-11377 1576 L-11338 1574 L-11322 1573 L-11306 1571 L-11293 1570 L-11278 1568 L-11257 1567 L-11219 1565 L-11200 1564 L-11177 1563 L-11162 1562 L-11143 1560 L-11123 1558 L-11100 1556 L-11084 1552 L-11046 1550 L-11024 1547 L-11007 1545 L-10942 1543 L-10924 1541 L-10906 1540 L-10891 1538 L-10870 1537 L-10853 1535 L-10832 1533 L-10814 1532 L-10792 1529 L-10775 1525 L-10755 1522 L-10713 1519 L-10698 1517 L-10679 1515 L-10659 1512 L-10639 1510 L-10602 1508 L-10582 1506 L-10562 1504 L-10500 1502 L-10448 1500 L-10424 1499 L-10397 1497 L-10380 1494 L-10311 1492 L-10291 1490 L-10271 1487 L-10249 1487 L-10234 1485 L-10156 1483 L-10136 1480 L-10117 1478 L-10096 1476 L-10078 1473 L-10060 1471 L-10039 1469 L-10013 1467 L-9996 1466 L-9978 1464 L-9963 1463 L-9941 1462 L-9924 1460 L-9904 1460 L-9885 1459 L-9863 1458 L-9827 1456 L-9808 1454 L-9785 1452 L-9770 1451 L-9751 1449 L-9731 1448 L-9710 1446 L-9692 1445 L-9673 1443 L-9653 1441 L-9596 1439 L-9548 1437 L-9451 1436 L-9421 1434 L-9382 1433 L-9362 1432 L-9287 1431 L-9266 1430 L-9228 1429 L-9209 1428 L-9169 1426 L-9151 1424 L-9132 1422 L-9111 1421 L-9085 1420 L-9071 1419 L-9053 1418 L-9035 1417 L-8996 1416 L-8977 1414 L-8957 1413 L-8936 1411 L-8899 1410 L-8879 1409 L-8764 1409 L-8745 1408 L-8725 1407 L-8667 1406 L-8591 1406 L-8551 1406 L-8505 1406 L-8493 1406 L-8454 1405 L-8434 1404 L-8392 1403 L-8377 1401 L-8358 1400 L-8338 1398 L-8260 1397 L-8240 1397 L-8203 1396 L-8182 1396 L-8124 1395 L-8086 1393 L-8067 1392 L-8048 1390 L-8007 1388 L-7990 1387 L-7951 1387 L-7929 1387 L-7913 1388 L-7894 1389 L-7835 1388 L-7816 1388 L-7776 1387 L-7758 1387 L-7739 1387 L-7712 1385 L-7690 1384 L-7662 1383 L-7587 1381 L-7573 1380 L-7525 1378 L-7504 1376 L-7461 1375 L-7448 1374 L-7409 1373 L-7386 1373 L-7370 1372 L-7349 1371 L-7332 1370 L-7310 1369 L-7274 1367 L-7253 1366 L-7228 1364 L-7210 1363 L-7192 1361 L-7177 1360 L-7156 1358 L-7138 1356 L-7119 1354 L-7100 1353 L-7077 1352 L-7041 1351 L-7022 1350 L-6999 1348 L-6984 1345 L-6965 1341 L-6945 1338 L-6925 1336 L-6907 1334 L-6868 1332 L-6848 1329 L-6829 1327 L-6734 1326 L-6695 1323 L-6663 1320 L-6648 1317 L-6614 1314 L-6597 1312 L-6576 1311 L-6557 1308 L-6533 1306 L-6519 1304 L-6500 1300 L-6480 1298 L-6458 1296 L-6442 1293 L-6421 1291 L-6403 1288 L-6381 1287 L-6365 1285 L-6346 1283 L-6264 1282 L-6227 1280 L-6210 1277 L-6189 1274 L-6133 1271 L-6093 1268 L-6055 1265 L-6037 1264 L-6016 1262 L-5995 1260 L-5978 1258 L-5959 1255 L-5939 1253 L-5918 1252 L-5833 1251 L-5805 1249 L-5765 1247 L-5732 1245 L-5718 1243 L-5684 1242 L-5647 1240 L-5628 1239 L-5605 1237 L-5571 1236 L-5552 1235 L-5529 1233 L-5513 1230 L-5474 1228 L-5417 1224 L-5370 1220 L-5353 1216 L-5334 1213 L-5320 1210 L-5298 1207 L-5281 1205 L-5242 1203 L-5219 1202 L-5204 1201 L-5183 1199 L-5165 1197 L-5141 1195 L-5127 1193 L-5108 1191 L-5049 1190 L-5030 1188 L-5010 1186 L-4990 1184 L-4972 1182 L-4905 1180 L-4877 1177 L-4837 1175 L-4805 1172 L-4791 1170 L-4778 1168 L-4740 1167 L-4719 1166 L-4700 1165 L-4677 1164 L-4662 1162 L-4643 1161 L-4623 1158 L-4601 1156 L-4585 1153 L-4564 1151 L-4546 1149 L-4524 1147 L-4508 1146 L-4489 1144 L-4468 1139 L-4425 1134 L-4407 1128 L-4391 1122 L-4370 1121 L-4353 1119 L-4332 1117 L-4314 1115 L-4291 1113 L-4276 1111 L-4255 1107 L-4236 1104 L-4213 1099 L-4198 1094 L-4179 1091 L-4139 1087 L-4120 1086 L-4101 1085 L-4082 1085 L-4062 1084 L-4043 1082 L-4024 1080 L-3998 1079 L-3976 1078 L-3948 1077 L-3909 1076 L-3877 1072 L-3862 1069 L-3849 1065 L-3828 1063 L-3811 1061 L-3790 1058 L-3771 1056 L-3734 1054 L-3715 1053 L-3695 1051 L-3656 1049 L-3636 1047 L-3617 1046 L-3579 1044 L-3560 1043 L-3539 1041 L-3514 1041 L-3497 1041 L-3478 1040 L-3463 1040 L-3441 1037 L-3424 1035 L-3385 1033 L-3363 1031 L-3327 1031 L-3284 1028 L-3270 1026 L-3251 1023 L-3210 1020 L-3192 1019 L-3173 1017 L-3115 1016 L-3048 1013 L-2980 1010 L-2948 1008 L-2901 1006 L-2883 1000 L-2863 993 L-2843 987 L-2821 971 L-2805 960 L-2787 949 L-2728 939 L-2709 937 L-2689 936 L-2669 933 L-2651 931 L-2632 929 L-2611 928 L-2585 927 L-2570 926 L-2550 924 L-2534 923 L-2515 922 L-2496 921 L-2477 920 L-2418 918 L-2379 916 L-2341 916 L-2322 914 L-2302 913 L-2264 912 L-2225 910 L-2205 908 L-2119 906 L-2050 904 L-2018 903 L-2004 902 L-1991 901 L-1971 901 L-1954 900 L-1915 898 L-1858 897 L-1838 895 L-1817 894 L-1781 894 L-1761 893 L-1722 891 L-1657 890 L-1625 888 L-1567 885 L-1548 882 L-1507 880 L-1490 878 L-1471 877 L-1394 875 L-1374 873 L-1335 871 L-1316 871 L-1296 870 L-1277 869 L-1239 867 L-1212 865 L-1162 863 L-1122 861 L-1088 859 L-1074 858 L-1041 856 L-1004 855 L-961 855 L-928 853 L-908 851 L-886 848 L-849 846 L-809 844 L-793 842 L-774 841 L-753 839 L-728 838 L-692 836 L-677 835 L-655 834 L-618 831 L-600 829 L-578 826 L-561 824 L-541 821 L-522 818 L-500 816 L-484 813 L-465 811 L-445 810 L-387 809 L-368 808 L-347 807 L-329 806 L-310 804 L-284 802 L-234 802 L-194 800 L-148 799 L-135 798 L-114 796 L-76 794 L-57 791 L-33 788 L0 787 L19 785 L42 784 L57 782 L78 779 L96 776 L118 773 L135 769 L154 768 L218 766 L236 765 L251 764 L272 762 L289 760 L310 757 L328 756 L366 754 L387 752 L406 749 L429 746 L444 742 L463 739 L504 736 L521 734 L540 732 L580 731 L666 729 L694 727 L734 725 L766 723 L780 722 L814 721 L831 720 L852 720 L870 720 L894 718 L947 715 L986 711 L1024 709 L1063 707 L1082 704 L1103 700 L1128 694 L1146 688 L1165 683 L1179 679 L1201 675 L1218 672 L1238 668 L1257 665 L1280 662 L1316 660 L1335 656 L1358 653 L1373 650 L1391 647 L1411 644 L1432 643 L1450 640 L1469 637 L1488 633 L1509 629 L1527 624 L1547 619 L1572 613 L1594 607 L1623 600 L1662 592 L1695 584 L1709 577 L1744 572 L1760 568 L1780 565 L1799 561 L1823 557 L1837 553 L1856 549 L1876 545 L1898 541 L1914 538 L1935 535 L1953 531 L1975 527 L1991 523 L2010 520 L2032 517 L2057 514 L2093 511 L2108 507 L2129 504 L2168 501 L2185 498 L2209 496 L2224 493 L2244 489 L2263 486 L2301 484 L2340 483 L2361 481 L2378 478 L2397 476 L2417 474 L2438 473 L2475 472 L2501 470 L2523 468 L2591 466 L2622 463 L2637 460 L2650 459 L2671 458 L2688 457 L2709 455 L2728 453 L2751 450 L2785 448 L2805 446 L2827 444 L2843 443 L2863 443 L2881 442 L2903 442 L2920 441 L2939 439 L2960 437 L2986 434 L3002 431 L3020 428 L3036 426 L3057 423 L3075 421 L3095 418 L3114 416 L3135 414 L3152 412 L3172 408 L3191 403 L3214 399 L3229 394 L3248 391 L3268 389 L3288 386 L3307 384 L3326 382 L3346 380 L3366 378 L3384 376 L3403 374 L3451 371 L3479 369 L3517 364 L3534 361 L3548 357 L3578 354 L3599 353 L3616 351 L3637 350 L3656 348 L3694 346 L3713 346 L3733 344 L3771 341 L3790 338 L3810 335 L3830 333 L3848 330 L3867 326 L3888 323 L3914 320 L3929 316 L3946 314 L3965 312 L3984 310 L4003 308 L4022 306 L4042 304 L4064 303 L4081 302 L4120 300 L4142 299 L4158 297 L4197 294 L4216 294 L4294 293 L4313 292 L4332 291 L4359 288 L4380 285 L4448 281 L4480 278 L4528 277 L4545 276 L4585 275 L4607 273 L4641 272 L4661 270 L4700 268 L4719 266 L4758 264 L4777 263 L4796 261 L4817 254 L4842 247 L4857 238 L4893 230 L4912 225 L4932 222 L4971 220 L4992 218 L5028 217 L5048 217 L5070 215 L5087 214 L5105 213 L5125 211 L5145 209 L5164 209 L5203 208 L5223 207 L5241 207 L5260 207 L5287 205 L5309 203 L5337 200 L5377 197 L5412 195 L5438 192 L5458 190 L5474 187 L5494 186 L5513 184 L5538 182 L5571 181 L5591 179 L5629 177 L5667 176 L5690 174 L5706 172 L5725 171 L5746 169 L5771 166 L5789 163 L5807 158 L5843 153 L5861 148 L5882 145 L5900 141 L5923 139 L5958 136 L5977 132 L6015 130 L6054 127 L6076 125 L6093 122 L6132 119 L6152 117 L6170 115 L6189 114 L6215 115 L6237 116 L6305 118 L6338 118 L6352 116 L6386 114 L6402 112 L6423 111 L6442 109 L6466 108 L6500 107" />
</svg>
