<svg xmlns="http://www.w3.org/2000/svg" version="1.1" viewBox="0 0 6500 1000">
	<path fill="none" stroke="gold" stroke-width="125" stroke-linecap="round" stroke-linejoin="round" d="M0 65585  L-629957 65585 L-629773 65554 L-629283 65492 L-628989 65460 L-628678 65398 L-628444 65367 L-628390 65304 L-628331 65242 L-628178 65211 L-628137 65148 L-628005 65117 L-627712 65086 L-627171 65086 L-626561 65055 L-626513 65055 L-625873 65024 L-625840 65024 L-625314 65024 L-625182 64992 L-624791 64930 L-624463 64868 L-624346 64805 L-624135 64743 L-623418 64743 L-622848 64712 L-622741 64712 L-622566 64680 L-622345 64618 L-621943 64587 L-621918 64524 L-620990 64462 L-620902 64400 L-620820 64337 L-620750 64275 L-620453 64243 L-620301 64181 L-618410 64212 L-618310 64212 L-618047 64212 L-617754 64243 L-617612 64181 L-617364 64181 L-617328 64150 L-617169 64119 L-616706 64056 L-616453 64025 L-616241 63963 L-615989 63931 L-615641 63900 L-614713 63838 L-614620 63775 L-614209 63744 L-613038 63682 L-611849 63651 L-611757 63588 L-611729 63526 L-611463 63463 L-611164 63401 L-611035 63339 L-610998 63276 L-610183 63276 L-609799 63307 L-608739 63339 L-608678 63339 L-608412 63963 L-607941 64556 L-607749 65148 L-607485 65741 L-607148 65710 L-607013 65679 L-606557 65648 L-605814 65616 L-605796 65585 L-605631 65523 L-605563 65523 L-605047 65492 L-604018 65492 L-603822 65460 L-603334 65429 L-602972 65398 L-602563 65398 L-602177 65429 L-600474 65429 L-600376 65429 L-600304 65429 L-600242 65429 L-600058 65398 L-599722 65398 L-599081 65367 L-599004 65336 L-598943 65336 L-598756 65304 L-598677 65304 L-598500 65273 L-598480 65242 L-598250 65242 L-597863 65211 L-596974 65211 L-596935 65180 L-596846 65148 L-596819 65086 L-595811 65055 L-595661 64992 L-595637 64961 L-595504 64930 L-595464 64899 L-594206 64868 L-594148 64868 L-593608 64836 L-593556 64836 L-593509 64836 L-593114 64805 L-592975 64774 L-592775 64743 L-592628 64743 L-592463 64743 L-592187 64774 L-591828 64774 L-591276 64743 L-590631 64712 L-590372 64649 L-590218 64618 L-589817 64587 L-589777 64556 L-589656 64524 L-589595 64556 L-589581 64556 L-589487 64556 L-589194 64524 L-589042 64400 L-588712 64337 L-588634 64275 L-588558 64243 L-588332 64150 L-588265 64087 L-588037 64025 L-587985 63963 L-587820 63931 L-586815 63900 L-586631 63869 L-586080 63838 L-585687 63775 L-585290 63744 L-584440 63682 L-584361 63651 L-583782 63619 L-583341 63619 L-583100 63588 L-582943 63588 L-582542 63526 L-582521 63526 L-582077 63495 L-581671 63463 L-581535 63401 L-581360 63339 L-581224 63276 L-580973 63214 L-579974 63183 L-579891 63151 L-579756 63120 L-579717 63089 L-578827 63058 L-578612 63027 L-578169 62995 L-578051 62964 L-577994 62933 L-577318 62933 L-577218 62902 L-577189 62902 L-575847 62871 L-575441 62839 L-575402 62808 L-574474 62777 L-574375 62746 L-574242 62715 L-573838 62683 L-573812 62652 L-573719 62621 L-573503 62590 L-573092 62527 L-571938 62465 L-571646 62403 L-571618 62340 L-571010 62309 L-570760 62247 L-570740 62215 L-569810 62184 L-569759 62122 L-569637 62091 L-569619 62028 L-569463 61997 L-569288 61935 L-569152 61903 L-569095 61872 L-568987 61841 L-568902 61810 L-568669 61779 L-568594 61747 L-568285 61716 L-568167 61685 L-567998 61654 L-567906 61623 L-567804 61623 L-567781 61591 L-567703 61591 L-567605 61529 L-567239 61498 L-567134 61467 L-566631 61435 L-566179 61404 L-566140 61373 L-566117 61342 L-566076 61311 L-565947 61279 L-565846 61248 L-565405 61217 L-565122 61186 L-564530 61155 L-564400 61123 L-564125 61061 L-563973 61030 L-563819 60999 L-563734 60936 L-563656 60905 L-563471 60874 L-563420 60874 L-563392 60843 L-563313 60811 L-563290 60780 L-563006 60718 L-562403 60655 L-561407 60624 L-561109 60593 L-560375 60562 L-560131 60531 L-560041 60499 L-559464 60468 L-558765 60437 L-558013 60406 L-557694 60375 L-557312 60312 L-557234 60281 L-556600 60250 L-556415 60219 L-556327 60219 L-556197 60219 L-555884 60187 L-555835 60156 L-555693 60125 L-555671 60094 L-554704 60063 L-554158 60031 L-553680 60031 L-553619 60031 L-553295 60031 L-553274 60000 L-553211 60000 L-553001 59969 L-552924 59938 L-552870 59907 L-552847 59875 L-552808 59844 L-552792 59813 L-552035 59782 L-552019 59751 L-551219 59719 L-551067 59688 L-550161 59657 L-549655 59626 L-549426 59563 L-549385 59563 L-549269 59532 L-549093 59501 L-548339 59532 L-548204 59501 L-548040 59470 L-547722 59439 L-547545 59376 L-546524 59314 L-546500 59251 L-546249 59220 L-546036 59158 L-545402 59126 L-545164 59064 L-545131 59002 L-544953 58939 L-544873 58877 L-544783 58846 L-544719 58783 L-544279 58721 L-544255 58690 L-543714 58658 L-543459 58627 L-542964 58596 L-542087 58565 L-542050 58534 L-541997 58502 L-541956 58471 L-541839 58440 L-541562 58409 L-541355 58346 L-541158 58284 L-541135 58222 L-541084 58159 L-541045 58128 L-540967 58097 L-540370 58034 L-540310 58003 L-540206 57972 L-540052 57941 L-539420 57910 L-538739 57878 L-538436 57816 L-538090 57785 L-537892 57754 L-537844 57691 L-537523 57660 L-536896 57629 L-536749 57598 L-536713 57566 L-536655 57535 L-536578 57473 L-536337 57473 L-536249 57442 L-536155 57410 L-535861 57379 L-535727 57348 L-535667 57317 L-535630 57254 L-535358 57254 L-534351 57223 L-534176 57192 L-534125 57192 L-533833 57161 L-533640 57098 L-533307 57067 L-532800 57036 L-532238 56974 L-532224 56911 L-532207 56880 L-532107 56818 L-531992 56755 L-531953 56693 L-531915 56662 L-531850 56662 L-531821 56630 L-531682 56662 L-531390 56662 L-531340 56662 L-531234 56662 L-530970 56630 L-530505 56599 L-530360 56599 L-530306 56537 L-530249 56506 L-530058 56474 L-529693 56443 L-529478 56443 L-529283 56443 L-529225 56443 L-529166 56381 L-529013 56350 L-528743 56318 L-528313 56474 L-528298 56474 L-528221 56443 L-528156 56412 L-528027 56194 L-528003 56162 L-527719 56131 L-527672 56100 L-527617 56069 L-527155 56038 L-527116 56038 L-527075 56006 L-526885 55975 L-526404 55944 L-525917 55913 L-525901 55882 L-525863 55850 L-525606 55819 L-525529 55757 L-525299 55726 L-525283 55663 L-524989 55601 L-524546 55570 L-524100 55538 L-523595 55507 L-523441 55476 L-523155 55445 L-523115 55382 L-522783 55351 L-522561 55320 L-522044 55258 L-521969 55226 L-521721 55164 L-521526 55102 L-521467 55070 L-520690 55039 L-520616 55039 L-520385 55008 L-520369 55008 L-520307 54977 L-520111 54946 L-519647 54946 L-519624 54914 L-519494 54914 L-518193 54914 L-518177 54914 L-518100 54883 L-518006 54883 L-517789 54883 L-517637 54852 L-517458 54883 L-517404 54914 L-517117 54946 L-517078 54946 L-516708 54946 L-516268 54946 L-516085 54946 L-515764 54914 L-515469 54914 L-515023 54852 L-514951 54821 L-514489 54758 L-514051 54727 L-513869 54696 L-512415 54634 L-512283 54602 L-511826 54540 L-511599 54509 L-511213 54446 L-510696 54384 L-509742 54321 L-508948 54259 L-508274 54228 L-507848 54165 L-507537 54134 L-507307 54041 L-506624 53947 L-506611 53853 L-506401 53729 L-506379 53697 L-506205 53635 L-505254 53604 L-504986 53541 L-504171 53510 L-503861 53448 L-503823 53417 L-503766 53354 L-503149 53323 L-502511 53261 L-500885 53229 L-500211 53198 L-499569 53198 L-499491 53198 L-499435 53198 L-499399 53198 L-499371 53167 L-499259 53105 L-499241 53073 L-499218 53042 L-499065 53011 L-499011 52949 L-498934 52917 L-498814 52886 L-498717 52855 L-498599 52824 L-498330 52761 L-498060 52730 L-498043 52668 L-497843 52637 L-497696 52574 L-497469 52543 L-497335 52512 L-497026 52481 L-496966 52449 L-496613 52387 L-496264 52356 L-496164 52325 L-496099 52262 L-496039 52231 L-495655 52169 L-495274 52137 L-495170 52106 L-494910 52075 L-494638 52013 L-494479 51981 L-494447 51950 L-494385 51919 L-494243 51888 L-494060 51857 L-494015 51825 L-493727 51825 L-493711 51794 L-493478 51794 L-493417 51763 L-493379 51763 L-492799 51732 L-492665 51701 L-492642 51576 L-492623 51357 L-492606 51108 L-492590 50858 L-492566 50609 L-492549 50421 L-492528 50203 L-492511 49985 L-492488 49860 L-492471 49735 L-492450 49641 L-492433 49579 L-492384 49485 L-492312 49392 L-492277 49236 L-492253 49111 L-492218 48986 L-492176 48861 L-492139 48799 L-492124 48674 L-492099 48580 L-492062 48518 L-492045 48424 L-492022 48362 L-492005 48300 L-491986 48237 L-491970 48175 L-491941 48081 L-491915 47988 L-491869 47956 L-491853 47894 L-491811 47863 L-491763 47800 L-491692 47738 L-491677 47676 L-491661 47613 L-491599 47582 L-491560 47551 L-491520 47520 L-491354 47488 L-491289 47457 L-491273 47426 L-491229 47364 L-491171 47332 L-490958 47301 L-490925 47270 L-490882 47239 L-490804 47208 L-490267 47176 L-490189 47145 L-490084 47083 L-489996 47052 L-489819 47020 L-489469 46989 L-489313 46958 L-488875 46927 L-488718 46896 L-488589 46864 L-487885 46802 L-487684 46771 L-486723 46708 L-486241 46677 L-486142 46677 L-486049 46646 L-485804 46615 L-485731 46584 L-485288 46521 L-485192 46490 L-485177 46459 L-485161 46428 L-485136 46396 L-484670 46365 L-484453 46334 L-484314 46303 L-484020 46272 L-483932 46240 L-483890 46209 L-483860 46178 L-483688 46147 L-483629 46116 L-483553 46084 L-483472 46053 L-483402 46053 L-483093 46022 L-483008 45991 L-482794 45960 L-482759 45928 L-482076 45897 L-481977 45866 L-481772 45835 L-481725 45804 L-481447 45772 L-481385 45741 L-481368 45679 L-481290 45648 L-480982 45585 L-480957 45554 L-480903 45492 L-480880 45460 L-480758 45429 L-480622 45367 L-480378 45336 L-480252 45336 L-479606 45304 L-479590 45304 L-479565 45304 L-479385 45242 L-479308 45211 L-479217 45180 L-478789 45148 L-478373 45117 L-477980 45055 L-477901 45024 L-477882 44992 L-477519 44961 L-477283 44930 L-477055 44899 L-476741 44868 L-476663 44836 L-476583 44774 L-476405 44712 L-476389 44680 L-476124 44618 L-476044 44587 L-475813 44556 L-475587 44524 L-475272 44524 L-475096 44493 L-474735 44493 L-474344 44462 L-474274 44400 L-474210 44368 L-474070 44306 L-474018 44275 L-473917 44212 L-473415 44181 L-473218 44150 L-472971 44119 L-472785 44087 L-472486 44056 L-472410 44025 L-472244 43963 L-471359 43931 L-471331 43869 L-471208 43807 L-470629 43775 L-470551 43744 L-469838 43744 L-469526 43744 L-469313 43744 L-469296 43744 L-468909 43744 L-468384 43682 L-467938 43651 L-467609 43619 L-467456 43588 L-467130 43588 L-466952 43557 L-466870 43557 L-466664 43495 L-466488 43463 L-465559 43432 L-464670 43401 L-464631 43370 L-464403 43370 L-464024 43339 L-463236 43307 L-463002 43276 L-462926 43245 L-462569 43214 L-461997 43151 L-461730 43120 L-461343 43089 L-461240 43089 L-461070 43089 L-460451 43089 L-460240 43089 L-459932 43089 L-459879 43058 L-459752 43027 L-459698 42995 L-459579 42964 L-459243 42902 L-458284 42871 L-458152 42808 L-457951 42777 L-457319 42746 L-457008 42715 L-456594 42683 L-456567 42652 L-456421 42621 L-456001 42590 L-454669 42590 L-454622 42559 L-454493 42496 L-454476 42465 L-453898 42403 L-453693 42371 L-453663 42340 L-453622 42309 L-453565 42278 L-453527 42247 L-453449 42215 L-453306 42184 L-452852 42153 L-452734 42122 L-452448 42091 L-452076 42059 L-451979 42028 L-451653 41997 L-451298 41966 L-451128 41935 L-451081 41903 L-450972 41872 L-450883 41841 L-450855 41810 L-450779 41747 L-450475 41716 L-450441 41654 L-450370 41623 L-450002 41591 L-449666 41560 L-449585 41560 L-449366 41529 L-449194 41498 L-449167 41467 L-448669 41435 L-448120 41373 L-447240 41342 L-447141 41279 L-447065 41248 L-446790 41217 L-446543 41155 L-446469 41123 L-446407 41061 L-446288 41030 L-446246 40999 L-446136 40967 L-446059 40905 L-445358 40874 L-445113 40843 L-445073 40811 L-444917 40780 L-444318 40780 L-444091 40780 L-443999 40780 L-443523 40780 L-442926 40718 L-442406 40687 L-442385 40655 L-442240 40624 L-441920 40624 L-441378 40624 L-441146 40624 L-440976 40624 L-440489 40593 L-440262 40562 L-440177 40531 L-439830 40499 L-439504 40499 L-438981 40468 L-438654 40437 L-438054 40406 L-437856 40343 L-437804 40312 L-437763 40281 L-437482 40250 L-436798 40187 L-436488 40156 L-436463 40094 L-436271 40063 L-436049 40031 L-435963 40000 L-435299 39938 L-435275 39907 L-435053 39844 L-434723 39813 L-434371 39751 L-434166 39719 L-433934 39657 L-433676 39626 L-433486 39563 L-433439 39532 L-433212 39501 L-433177 39470 L-433021 39439 L-432806 39407 L-432633 39376 L-432542 39345 L-432265 39314 L-432021 39282 L-431706 39251 L-431279 39251 L-431242 39251 L-430759 39251 L-430525 39251 L-430314 39220 L-430087 39189 L-429538 39189 L-429290 39158 L-428456 39158 L-428400 39126 L-428379 39095 L-428221 39064 L-427759 39033 L-427719 39002 L-427379 38939 L-427245 38908 L-427023 38877 L-426451 38846 L-425979 38814 L-425784 38783 L-425592 38752 L-425402 38721 L-425300 38690 L-424932 38658 L-424885 38627 L-424804 38596 L-423510 38565 L-423462 38534 L-423194 38534 L-423049 38534 L-422498 38534 L-422381 38502 L-422299 38471 L-421940 38440 L-421717 38409 L-421435 38378 L-421106 38315 L-420598 38284 L-420486 38253 L-420407 38222 L-420242 38190 L-419948 38190 L-419479 38190 L-419283 38222 L-419232 38222 L-418582 38190 L-418461 38159 L-418006 38159 L-417971 38128 L-417502 38097 L-417392 38066 L-417375 38034 L-417159 38034 L-416978 38003 L-416447 38003 L-415417 38003 L-415218 37972 L-414759 37941 L-413811 37878 L-413712 37847 L-413358 37785 L-413298 37754 L-413283 37722 L-413248 37691 L-412879 37660 L-412759 37629 L-412517 37598 L-412353 37566 L-412165 37535 L-412045 37504 L-410974 37442 L-410116 37410 L-409904 37348 L-409806 37317 L-409632 37254 L-409299 37223 L-409227 37192 L-409170 37161 L-408994 37161 L-408605 37130 L-408370 37098 L-408259 37067 L-408142 37036 L-407161 37005 L-407135 36974 L-406541 36911 L-406509 36911 L-406360 36880 L-406076 36849 L-405164 36849 L-404218 36849 L-404065 36818 L-403962 36818 L-403831 36786 L-403687 36755 L-403661 36724 L-403547 36693 L-403328 36662 L-402647 36630 L-402518 36599 L-402214 36568 L-401975 36506 L-401642 36474 L-401003 36443 L-400661 36381 L-400599 36350 L-400443 36350 L-399522 36350 L-399051 36350 L-399008 36350 L-398995 36318 L-398954 36287 L-398932 36256 L-398905 36225 L-398761 36194 L-398338 36162 L-398003 36162 L-397812 36131 L-397383 36131 L-397195 36100 L-396806 36038 L-396272 36006 L-395900 35975 L-395878 35975 L-395628 35944 L-395510 35913 L-395434 35882 L-395298 35850 L-395259 35819 L-395179 35788 L-394785 35757 L-394289 35726 L-394177 35663 L-394004 35632 L-393695 35601 L-393248 35570 L-392925 35538 L-392782 35476 L-392355 35414 L-392202 35351 L-392147 35289 L-391333 35258 L-391313 35226 L-390941 35195 L-390885 35195 L-389756 35164 L-389688 35164 L-389129 35133 L-388935 35102 L-388798 35070 L-388565 35039 L-388218 35008 L-388183 34946 L-388148 34914 L-388080 34852 L-387731 34821 L-387559 34790 L-387074 34758 L-387058 34727 L-386732 34696 L-386575 34665 L-385434 34602 L-385409 34571 L-385218 34509 L-385024 34478 L-384774 34446 L-384757 34415 L-383737 34384 L-383439 34353 L-383363 34321 L-383227 34259 L-383051 34228 L-382475 34165 L-382259 34134 L-382195 34103 L-382065 34072 L-382028 34009 L-381505 33978 L-381367 46272 L-381352 46272 L-381329 46272 L-381309 46272 L-381082 33947 L-380306 33947 L-380265 33947 L-379897 33947 L-379818 33916 L-379766 33885 L-379093 33853 L-378351 33822 L-377926 33822 L-377478 33791 L-376417 33760 L-376105 33697 L-375695 33697 L-375623 33666 L-375099 33666 L-375004 33666 L-374986 33666 L-374542 33635 L-374356 33573 L-373576 33510 L-372903 33479 L-372491 33385 L-372259 33323 L-372119 33292 L-372037 33229 L-372017 33198 L-371941 33198 L-371813 33167 L-371496 33198 L-371271 33198 L-370947 33167 L-370884 33167 L-370514 33167 L-370481 33167 L-370273 33167 L-369605 33167 L-369528 33167 L-369370 33105 L-369259 33105 L-368933 33073 L-368778 33042 L-368437 33042 L-368380 32980 L-368042 32917 L-367838 32886 L-367785 32824 L-366409 32793 L-366279 32761 L-365846 32730 L-365525 32699 L-364697 32637 L-364574 32605 L-363843 32543 L-363687 32481 L-363647 32449 L-363593 32418 L-363570 32387 L-363456 32356 L-363159 32325 L-362869 32293 L-362815 32262 L-362694 32231 L-362664 32200 L-362565 32169 L-362121 32169 L-361969 32137 L-361134 32137 L-360591 32106 L-360257 32106 L-360241 32075 L-360166 32044 L-360050 32013 L-359855 31981 L-359591 31950 L-358756 31919 L-358660 31888 L-358138 31857 L-358097 31825 L-357997 31794 L-357169 31794 L-357034 31763 L-356695 31763 L-356141 31732 L-355761 31701 L-355598 31669 L-355288 31638 L-354476 31607 L-354170 31576 L-353901 31576 L-353580 31576 L-353259 31607 L-352984 31607 L-352155 31545 L-352060 31513 L-351967 31420 L-351863 31326 L-351476 31233 L-350996 31170 L-350979 31139 L-350861 31108 L-350493 31045 L-350398 31014 L-349564 30952 L-349487 30921 L-349188 30889 L-349097 30858 L-348690 30796 L-348579 30733 L-347880 30702 L-347407 30671 L-347347 30640 L-347128 30577 L-346854 30546 L-346741 30515 L-345714 30484 L-345327 30453 L-345307 30421 L-344975 30390 L-344730 30359 L-344297 30328 L-344187 30297 L-344069 30265 L-343617 30203 L-343027 30172 L-342690 30141 L-340797 30109 L-340684 30047 L-340472 30016 L-339154 29985 L-339047 22964 L-338981 16038 L-338945 9641 L-338883 9641 L-338384 16599 L-337709 23463 L-337687 29797 L-337416 29735 L-336448 29735 L-335759 29704 L-335597 29673 L-335056 29641 L-334966 29610 L-333947 29579 L-332999 29517 L-332634 29548 L-332531 29579 L-331943 29579 L-331883 29579 L-331783 29548 L-331342 29485 L-331235 29454 L-330793 29423 L-329794 29329 L-329537 29236 L-329434 29142 L-329304 29080 L-328937 29017 L-328357 28955 L-328326 28924 L-328010 28892 L-326027 28861 L-325911 28830 L-325844 28830 L-325485 28799 L-323866 28768 L-323689 28768 L-323545 28768 L-322722 28799 L-322669 28830 L-322615 28830 L-322181 28830 L-321200 28861 L-321127 28861 L-320042 28830 L-319829 28830 L-319113 28768 L-318724 28736 L-318505 28674 L-318186 28612 L-317692 28549 L-317564 28518 L-317335 28456 L-317103 28393 L-317044 28362 L-316754 28331 L-316482 28268 L-315452 28237 L-313787 28206 L-313368 28175 L-313231 28144 L-313075 28144 L-312769 28112 L-312541 28050 L-312383 28019 L-312224 27956 L-312054 27894 L-312007 27863 L-311954 27832 L-311932 27832 L-311546 27800 L-311296 27800 L-311026 27800 L-310865 27800 L-310775 27800 L-309117 27800 L-308951 27832 L-308572 27800 L-308112 27800 L-307502 27738 L-306409 27707 L-305978 27676 L-305946 27644 L-305884 27613 L-305866 27582 L-304163 27551 L-304121 27520 L-303654 27488 L-303468 27457 L-303435 27395 L-302840 27364 L-302790 27332 L-302468 27301 L-302417 27270 L-302206 27239 L-302188 27208 L-301922 27145 L-301869 27114 L-301400 27083 L-300890 27020 L-300811 27020 L-300517 26989 L-300501 26958 L-300462 26927 L-300391 26896 L-300234 26864 L-299288 26864 L-299231 26864 L-298710 26864 L-298518 26833 L-298417 26833 L-298191 26802 L-297681 26802 L-297293 27644 L-297224 27644 L-296875 27613 L-296518 27582 L-295390 26677 L-295338 26615 L-295112 26584 L-295078 26552 L-294953 26490 L-294855 26490 L-294590 26490 L-293850 26521 L-293271 26521 L-292978 26521 L-292272 26521 L-292093 26490 L-292070 26490 L-291434 26459 L-291123 26428 L-290726 26428 L-290696 26396 L-290676 26365 L-290522 26334 L-289837 26334 L-289820 26334 L-289480 26334 L-289208 26303 L-289170 26272 L-289114 26209 L-289092 26178 L-289020 26147 L-288688 26116 L-288582 26084 L-288553 26022 L-288355 25991 L-288203 25960 L-287334 25928 L-286772 25866 L-286756 25866 L-286655 25835 L-286552 25866 L-286406 25866 L-286328 25866 L-286290 25835 L-286234 25804 L-286161 25772 L-286016 25741 L-285534 25741 L-285130 25710 L-284264 25741 L-284244 25741 L-283986 25741 L-283909 25741 L-283880 25710 L-283870 25648 L-283853 25616 L-283560 25585 L-283520 25554 L-283448 25523 L-283375 25492 L-283170 25460 L-283010 25367 L-282708 25273 L-282631 25148 L-282614 25055 L-282398 24992 L-282166 24992 L-282056 25024 L-281687 25055 L-281528 25055 L-281297 25055 L-281129 25055 L-280983 25024 L-280851 24992 L-279576 24930 L-279172 24868 L-279111 24836 L-278995 24774 L-278569 24743 L-278554 24680 L-278492 24649 L-278219 24587 L-278106 24556 L-277824 24493 L-277547 24462 L-277122 24400 L-277099 24368 L-277021 24337 L-276896 24306 L-276309 24275 L-275918 24243 L-275582 24212 L-274993 24181 L-274891 24181 L-274720 24150 L-274584 24150 L-273756 24119 L-272571 24087 L-272535 24056 L-272480 24056 L-272259 24025 L-272054 24025 L-271899 24025 L-271643 23994 L-271566 23963 L-271024 23931 L-270987 23900 L-270738 23869 L-270351 23838 L-269525 23807 L-269167 23775 L-268857 23775 L-268599 23744 L-268375 23713 L-267969 23682 L-267852 23651 L-267669 23619 L-267616 23619 L-267427 23588 L-267256 23557 L-267228 23526 L-266947 23495 L-266637 23463 L-266499 23432 L-266189 23401 L-265995 23401 L-265980 23370 L-265260 23370 L-265127 23307 L-264829 23276 L-264738 23245 L-264138 23245 L-264100 23214 L-264021 23183 L-263401 23151 L-263249 23089 L-263209 23058 L-262898 23027 L-262706 22995 L-262513 22933 L-262458 22871 L-262149 22839 L-262097 22808 L-262042 22839 L-262016 22839 L-261892 22839 L-261081 22808 L-261004 22777 L-260464 22746 L-260195 22715 L-259536 22683 L-258628 22652 L-258387 22621 L-257854 22590 L-257637 22559 L-256530 22590 L-256480 22590 L-255704 22590 L-255156 22559 L-255045 22527 L-254892 22465 L-254837 22434 L-254672 22403 L-254294 22371 L-253847 22340 L-253792 22309 L-253638 22278 L-252958 22247 L-252737 22215 L-252220 22184 L-251371 22122 L-251355 22091 L-249564 22059 L-249009 22028 L-248892 21997 L-247886 21966 L-247850 21935 L-247617 21935 L-247525 21935 L-247485 21935 L-247152 21903 L-246801 21872 L-246535 21810 L-246249 21779 L-245938 21716 L-245684 21654 L-245590 21623 L-245100 21591 L-244893 21560 L-244327 21529 L-244213 21560 L-243862 21529 L-243810 21529 L-243770 21529 L-243167 21467 L-242433 21404 L-241852 21342 L-241616 21279 L-241076 21186 L-240923 21123 L-240421 21092 L-240212 21030 L-240189 21030 L-240130 20999 L-239167 20999 L-238990 20967 L-238548 20936 L-238524 20874 L-238369 20843 L-238287 20843 L-238137 20874 L-237490 20874 L-237440 20843 L-236320 20811 L-235336 20780 L-235275 20749 L-234554 20718 L-233689 20687 L-233310 20655 L-233091 20655 L-232332 20624 L-232280 20593 L-231971 20531 L-231119 20531 L-230926 20499 L-230749 20468 L-230525 20468 L-230398 20437 L-230206 20437 L-229974 20406 L-229804 20437 L-229518 20406 L-229238 20406 L-229155 20375 L-228985 20343 L-228968 20281 L-228814 20250 L-228775 20219 L-227999 20187 L-227923 20187 L-227691 20125 L-227264 20094 L-226919 20063 L-226335 20031 L-226067 20031 L-225808 20031 L-225678 19969 L-225662 19938 L-225548 19907 L-225524 19875 L-225290 19844 L-225254 19813 L-223938 19813 L-223882 19782 L-223203 19719 L-222631 19719 L-222505 19719 L-222352 19719 L-222275 19719 L-221963 19657 L-221690 19626 L-221601 19563 L-221500 19563 L-220572 19532 L-220495 19532 L-220131 19532 L-220107 19501 L-220070 19470 L-219295 19407 L-219203 19376 L-219063 19345 L-218661 19314 L-218400 19314 L-218156 19345 L-217942 19314 L-217862 19314 L-217785 19314 L-217709 19314 L-217522 19345 L-217455 19345 L-217206 19345 L-217151 19314 L-217013 19282 L-216934 19220 L-216820 19189 L-216597 19158 L-216433 19126 L-216392 19095 L-216223 19064 L-215852 19033 L-215837 19002 L-215721 18970 L-215000 18939 L-214964 18908 L-214831 18908 L-214483 18877 L-214072 18877 L-214035 18877 L-213957 18846 L-213918 18814 L-213554 18783 L-213350 18752 L-213335 18721 L-212990 18690 L-212641 18690 L-212315 18690 L-212214 18658 L-212061 18658 L-211866 18627 L-211635 18627 L-211542 18627 L-211387 18627 L-211309 18627 L-211269 18596 L-211155 18565 L-211132 18534 L-210881 18534 L-210742 18471 L-210165 18378 L-209336 18315 L-208849 18253 L-208727 18222 L-208689 18190 L-208676 18159 L-208524 18097 L-208423 18034 L-208190 18003 L-207800 17941 L-207495 17910 L-207480 17878 L-207309 17847 L-207070 17785 L-206474 17785 L-205870 17754 L-205831 17754 L-205790 17754 L-205637 17722 L-205584 17691 L-205521 17660 L-205453 17629 L-205399 17566 L-205373 17535 L-205326 17504 L-205232 17442 L-205095 17410 L-204942 17379 L-204810 17348 L-204769 17348 L-204733 17317 L-204671 17286 L-204398 17223 L-204083 17192 L-204042 17130 L-203957 17098 L-203780 17067 L-203542 17036 L-203185 17005 L-203155 16974 L-202586 16942 L-202463 16911 L-202227 16880 L-202204 16880 L-201923 16849 L-201637 16849 L-201382 16849 L-200810 16818 L-200513 16786 L-200437 16755 L-199738 16724 L-199661 16693 L-199626 16662 L-199599 16630 L-199548 16568 L-199354 16537 L-199214 16474 L-199178 16443 L-199137 16412 L-198542 16381 L-198310 16350 L-198026 16568 L-197972 16755 L-197898 16974 L-197820 17161 L-197584 17098 L-197340 17067 L-197204 17036 L-197098 17005 L-197018 16974 L-196631 16911 L-196504 16880 L-196351 16849 L-196314 16818 L-196168 16786 L-195946 16755 L-195772 16724 L-195703 16693 L-194882 16630 L-194866 16630 L-194571 16599 L-193783 16568 L-193473 16568 L-193327 16537 L-193099 16506 L-192898 16443 L-191961 16412 L-191925 16381 L-191902 16350 L-191861 16287 L-191593 16256 L-190996 16225 L-190932 16194 L-190897 16162 L-190880 16131 L-190185 16131 L-189984 16131 L-189952 16131 L-189618 16131 L-189511 16100 L-188886 16038 L-188382 16006 L-188344 15944 L-187902 15944 L-187806 15913 L-187647 15913 L-187334 15913 L-187322 15913 L-186882 15944 L-186400 15975 L-186271 15975 L-185950 15975 L-185882 15944 L-185578 15944 L-185402 15913 L-185208 15882 L-184966 15819 L-184768 15757 L-184742 15694 L-184164 15663 L-184094 15632 L-183685 15601 L-183630 15570 L-183584 15538 L-183220 15507 L-183074 15476 L-182869 15445 L-182772 15445 L-182617 15414 L-182556 15382 L-182408 15320 L-182308 15289 L-181751 15289 L-181728 15351 L-181556 15382 L-181014 15414 L-180953 15414 L-180900 15351 L-180871 15289 L-180800 15258 L-180783 15195 L-180720 15164 L-180683 15102 L-180529 15070 L-180203 15039 L-179637 15008 L-179623 14977 L-179561 14914 L-179459 14852 L-179413 14852 L-179170 14821 L-178748 14821 L-178593 14821 L-176852 14758 L-176310 14727 L-175366 14696 L-174957 14665 L-174416 14602 L-174220 14571 L-174051 14540 L-173755 14509 L-173641 14478 L-173625 14478 L-173471 14446 L-173331 14415 L-173254 14353 L-173122 14353 L-172774 14353 L-172404 14384 L-171806 14384 L-171630 14384 L-171474 14353 L-171205 14321 L-171053 14321 L-170762 14415 L-170739 14478 L-170656 14540 L-170428 14602 L-169729 14571 L-169602 14540 L-169171 14509 L-169076 14478 L-167871 14478 L-167822 14446 L-167529 14446 L-167126 14415 L-166850 14353 L-166831 14321 L-166713 14290 L-166637 14259 L-166455 14228 L-165975 14197 L-165524 14134 L-165114 14103 L-165083 14072 L-164665 14041 L-164551 14041 L-164433 14041 L-164417 14041 L-164223 14009 L-164202 13947 L-163969 13916 L-163526 13885 L-163207 13822 L-162742 13822 L-162576 13791 L-162422 13760 L-162266 13760 L-161812 13760 L-161493 13760 L-161438 13791 L-161067 13791 L-161029 13822 L-160703 13822 L-160586 13791 L-160488 13760 L-160162 13697 L-159775 13666 L-159514 13635 L-159155 13573 L-158899 13541 L-156729 13510 L-156679 13479 L-156657 13448 L-156245 13448 L-156184 13448 L-156114 13479 L-155883 13479 L-155572 13448 L-155269 13385 L-155224 13354 L-154917 13323 L-154784 13292 L-154567 13261 L-153855 13229 L-153700 13229 L-153561 13198 L-153413 13198 L-153392 13198 L-153197 13167 L-153172 13136 L-153081 13105 L-153059 13073 L-153042 13042 L-152942 13011 L-152014 12980 L-151556 12980 L-150464 12917 L-150041 12917 L-149637 12886 L-149599 12855 L-149345 12824 L-148571 12761 L-148554 12730 L-148530 12699 L-148337 12668 L-147600 12637 L-147331 12605 L-147291 12574 L-146892 12512 L-146867 12481 L-146078 12449 L-145398 12418 L-144027 12387 L-143757 12356 L-143708 12325 L-143171 12262 L-143138 12231 L-143036 12169 L-142712 12137 L-142633 12106 L-142364 12106 L-141451 12075 L-141312 12075 L-141064 12013 L-140518 12013 L-140096 11981 L-139903 11950 L-139888 11950 L-139750 11888 L-139656 11857 L-139529 11825 L-139269 11794 L-139244 11732 L-139152 11701 L-138842 11669 L-138782 11638 L-138665 11638 L-138315 11638 L-137505 11638 L-137273 11576 L-136444 11576 L-136212 11513 L-135996 11482 L-135477 11482 L-134839 11451 L-134423 11420 L-134100 11389 L-133620 11357 L-133194 11357 L-133133 11326 L-132784 11326 L-132744 11295 L-132730 11264 L-132630 11201 L-132585 11201 L-132100 11170 L-131298 11170 L-130964 11170 L-129883 11139 L-129403 11108 L-129380 11077 L-129240 11045 L-128684 11014 L-127987 10983 L-127678 10952 L-127456 10921 L-127352 10889 L-127249 10827 L-126578 10796 L-126484 10765 L-126462 10765 L-126385 10733 L-126207 10733 L-126035 10733 L-125854 10702 L-125841 10671 L-125764 10640 L-125600 10609 L-125085 10577 L-125069 10546 L-124929 10546 L-124566 10515 L-124542 10515 L-124412 10484 L-124387 10453 L-124025 10421 L-123499 10359 L-123406 10328 L-123190 10265 L-123096 10234 L-123072 10203 L-122607 10172 L-122530 10172 L-122129 10141 L-121678 10141 L-120426 10109 L-120387 10078 L-119956 10047 L-119923 10016 L-119204 9985 L-119028 9953 L-118892 9922 L-118585 9891 L-118530 9860 L-118506 9797 L-118490 9735 L-118315 9704 L-118125 9673 L-117618 9673 L-117244 9423 L-116906 9142 L-116867 8892 L-116148 8674 L-116054 8643 L-116016 8612 L-115474 8612 L-115451 8580 L-115048 8549 L-114623 8518 L-114352 8518 L-114172 8487 L-113926 8424 L-113903 8393 L-113846 8331 L-113230 8300 L-112727 8268 L-112340 8268 L-111721 8300 L-111505 8300 L-111350 8331 L-110057 8268 L-109958 8237 L-109516 8175 L-109184 8144 L-108884 8081 L-108641 8050 L-107907 7988 L-107328 7956 L-106498 7925 L-106398 7894 L-105840 7863 L-105702 7832 L-104060 7800 L-103999 7800 L-103905 7800 L-102938 7800 L-102761 7769 L-102474 7769 L-102256 7769 L-102178 7738 L-101907 7738 L-101791 7707 L-101638 7676 L-101328 7644 L-101250 7613 L-101159 7613 L-101081 7582 L-100965 7582 L-100786 7551 L-100694 7520 L-100656 7488 L-100153 7488 L-99934 7457 L-99805 7457 L-99649 7426 L-99595 7395 L-99470 7395 L-99085 7364 L-98577 7332 L-98505 7301 L-98024 7270 L-97947 7239 L-97847 7239 L-97614 7208 L-97149 7208 L-96919 7208 L-96903 7208 L-96670 7208 L-96516 7208 L-96454 7208 L-96261 7176 L-95990 7114 L-95239 7083 L-94286 7083 L-94250 7052 L-94025 7052 L-93585 7052 L-93304 6989 L-92956 6958 L-91887 6927 L-90959 6927 L-90828 6927 L-90781 6927 L-90712 6896 L-90557 6896 L-90480 6833 L-90306 6771 L-89872 6708 L-89667 6677 L-89607 6615 L-89025 6584 L-88871 6521 L-88755 6490 L-88714 6459 L-88545 6428 L-88408 6396 L-88197 6334 L-88120 6303 L-88096 6272 L-87888 6209 L-87478 6178 L-87453 6147 L-87230 6116 L-87085 6084 L-87050 6053 L-87037 6022 L-87014 5991 L-86781 5960 L-86595 5928 L-86378 5897 L-86353 5866 L-85664 5835 L-85560 5804 L-85524 5772 L-85504 5741 L-85310 5710 L-85256 5679 L-85139 5616 L-85058 5616 L-84947 5585 L-84632 5554 L-84173 5523 L-83918 5492 L-83684 5429 L-83554 5398 L-83202 5367 L-83142 5336 L-82989 5304 L-82417 5242 L-82331 5211 L-82178 5148 L-81882 5086 L-81512 5024 L-81209 4961 L-81132 4930 L-80727 4899 L-80559 4899 L-80415 4899 L-79875 4899 L-79814 4899 L-79798 4836 L-79632 4805 L-79427 4774 L-79352 4774 L-79259 4743 L-78849 4712 L-78834 4680 L-78810 4680 L-78617 4649 L-78540 4930 L-78370 5211 L-78308 5460 L-78292 5741 L-77777 5710 L-77556 5679 L-76937 5616 L-76684 5585 L-76490 5554 L-76450 5523 L-76377 5523 L-76312 5523 L-75661 5523 L-75622 5554 L-75448 5554 L-75382 5554 L-74708 5554 L-74319 5492 L-74058 5460 L-73820 5429 L-73742 5367 L-73727 5304 L-73524 5273 L-73154 5211 L-72928 5180 L-72293 5148 L-72273 5148 L-71886 5117 L-71792 5117 L-71734 5086 L-71458 5055 L-71148 5055 L-71071 5024 L-70220 5055 L-69877 5211 L-69440 5398 L-69006 5554 L-68511 5710 L-68362 5679 L-68093 5710 L-66855 5741 L-66799 5804 L-65035 5835 L-64845 5804 L-63835 5772 L-63684 5741 L-63308 5804 L-62987 5866 L-62382 5928 L-62312 5991 L-62135 5960 L-61306 5928 L-61168 5897 L-60781 5866 L-60597 5835 L-60553 5804 L-60433 5772 L-60223 5741 L-59776 5679 L-59427 5648 L-59295 5616 L-58886 5585 L-58536 5585 L-58251 5554 L-58057 5523 L-57903 5523 L-57739 5492 L-57670 5460 L-57571 5460 L-57337 5429 L-57221 5429 L-57167 5398 L-56626 5398 L-56161 5367 L-54979 5367 L-54846 5367 L-54821 5367 L-54769 5367 L-54101 5367 L-53066 5304 L-52872 5273 L-52693 5242 L-52541 5242 L-52501 5211 L-52486 5211 L-52424 5180 L-52099 5148 L-50938 5117 L-50745 5086 L-50567 5055 L-49453 5024 L-48594 4992 L-48488 4992 L-48014 4961 L-47821 4961 L-45500 4930 L-45422 4899 L-45301 4836 L-45266 4805 L-45229 4743 L-45135 4649 L-44919 4587 L-44338 4524 L-43951 4493 L-43179 4462 L-43101 4431 L-42403 4431 L-41862 4431 L-41821 4400 L-41691 4400 L-41227 4368 L-41188 4337 L-41053 4306 L-40685 4275 L-40656 4243 L-40506 4243 L-40105 4212 L-38281 4243 L-37474 4212 L-36755 4212 L-36739 4212 L-36425 4150 L-35863 4119 L-35362 4087 L-34843 4056 L-34821 4025 L-33078 3994 L-32909 3963 L-32713 3931 L-31819 3900 L-31301 3838 L-31090 3807 L-30832 3775 L-30123 3744 L-29172 3713 L-28514 3682 L-28475 3619 L-28188 3588 L-28106 3557 L-28010 3557 L-27879 3526 L-27801 3526 L-27066 3526 L-26729 3495 L-26679 3526 L-26424 3526 L-26138 3495 L-25712 3495 L-25132 3463 L-24873 3463 L-24721 3432 L-24474 3432 L-24435 3432 L-23638 3401 L-23601 3370 L-23424 3370 L-23014 3307 L-22786 3307 L-22709 3307 L-22578 3307 L-22462 3276 L-22114 3245 L-22051 3214 L-21898 3183 L-21157 3151 L-21046 3120 L-20876 3089 L-20837 3058 L-20542 3058 L-20141 3058 L-19964 3058 L-19870 3058 L-19560 3027 L-18759 2995 L-18300 2933 L-17781 2902 L-17292 2871 L-16596 2839 L-15550 2808 L-15281 2808 L-15227 2777 L-15067 2777 L-14815 2777 L-14569 2746 L-14490 2715 L-14276 2652 L-13964 2621 L-13500 2559 L-13486 2527 L-13190 2527 L-13176 2496 L-12185 2465 L-11513 2434 L-11178 2371 L-10562 2371 L-10425 2340 L-9786 2309 L-9656 2278 L-8705 2215 L-8605 2153 L-8046 2122 L-7637 2122 L-7209 2122 L-7118 2091 L-6283 2091 L-5919 2091 L-5880 2122 L-5748 2153 L-5571 2153 L-5354 2153 L-5301 2122 L-5144 2059 L-4891 2028 L-3790 1997 L-3713 1966 L-3494 1935 L-3363 1872 L-3326 1841 L-3133 1810 L-3034 1779 L-2550 1747 L-2265 1716 L-2105 1685 L-2010 1623 L-1739 1591 L-1469 1560 L-1453 1435 L-1315 1342 L-1176 1248 L-850 1123 L-541 1061 L-500 1030 L-424 967 L-309 936 L541 874 L867 843 L1199 811 L1331 811 L1547 811 L1564 811 L2244 811 L2337 749 L2361 718 L2376 655 L2415 624 L2827 562 L3096 531 L3136 499 L3505 499 L3714 468 L4797 468 L4814 437 L4842 406 L4862 406 L5239 343 L5494 312 L5742 250 L5882 187 L6014 156 L6346 125 L6439 94 L6500 63" />
</svg>
