<svg xmlns="http://www.w3.org/2000/svg" version="1.1" viewBox="0 0 6500 1000">
	<path fill="none" stroke="gold" stroke-width="125" stroke-linecap="round" stroke-linejoin="round" d="M0 328180  L-1314975 328180 L-1314791 328179 L-1314301 328176 L-1314008 328174 L-1313696 328171 L-1313462 328170 L-1313408 328167 L-1313349 328164 L-1313196 328162 L-1313156 328159 L-1313023 328158 L-1312730 328156 L-1312190 328156 L-1311579 328155 L-1311531 328155 L-1310891 328153 L-1310858 328153 L-1310333 328153 L-1310200 328152 L-1309810 328149 L-1309482 328146 L-1309364 328143 L-1309153 328140 L-1308436 328140 L-1307866 328138 L-1307759 328138 L-1307584 328137 L-1307363 328134 L-1306962 328132 L-1306936 328129 L-1306008 328126 L-1305920 328123 L-1305838 328120 L-1305768 328117 L-1305471 328116 L-1305319 328113 L-1303429 328114 L-1303328 328114 L-1303066 328114 L-1302772 328116 L-1302630 328113 L-1302382 328113 L-1302346 328111 L-1302188 328110 L-1301724 328107 L-1301471 328105 L-1301259 328102 L-1301008 328101 L-1300659 328100 L-1299731 328097 L-1299638 328094 L-1299227 328092 L-1298056 328089 L-1296867 328088 L-1296775 328085 L-1296747 328082 L-1296481 328079 L-1296182 328076 L-1296054 328073 L-1296016 328070 L-1295202 328070 L-1294818 328071 L-1293757 328073 L-1293696 328073 L-1293431 328102 L-1292959 328131 L-1292767 328159 L-1292503 328188 L-1292167 328186 L-1292031 328185 L-1291575 328183 L-1290832 328182 L-1290815 328180 L-1290649 328177 L-1290581 328177 L-1290065 328176 L-1289036 328176 L-1288840 328174 L-1288352 328173 L-1287990 328171 L-1287581 328171 L-1287195 328173 L-1285492 328173 L-1285394 328173 L-1285322 328173 L-1285261 328173 L-1285076 328171 L-1284740 328171 L-1284099 328170 L-1284022 328168 L-1283961 328168 L-1283775 328167 L-1283695 328167 L-1283518 328165 L-1283499 328164 L-1283269 328164 L-1282881 328162 L-1281992 328162 L-1281953 328161 L-1281865 328159 L-1281837 328156 L-1280829 328155 L-1280679 328152 L-1280655 328150 L-1280522 328149 L-1280482 328147 L-1279224 328146 L-1279166 328146 L-1278627 328144 L-1278574 328144 L-1278527 328144 L-1278132 328143 L-1277993 328141 L-1277793 328140 L-1277646 328140 L-1277482 328140 L-1277205 328141 L-1276846 328141 L-1276294 328140 L-1275649 328138 L-1275390 328135 L-1275236 328134 L-1274835 328132 L-1274795 328131 L-1274675 328129 L-1274613 328131 L-1274599 328131 L-1274505 328131 L-1274212 328129 L-1274061 328123 L-1273730 328120 L-1273652 328117 L-1273576 328116 L-1273350 328111 L-1273283 328108 L-1273056 328105 L-1273003 328102 L-1272839 328101 L-1271833 328100 L-1271649 328098 L-1271098 328097 L-1270705 328094 L-1270308 328092 L-1269458 328089 L-1269379 328088 L-1268801 328086 L-1268359 328086 L-1268118 328085 L-1267961 328085 L-1267560 328082 L-1267540 328082 L-1267095 328080 L-1266689 328079 L-1266553 328076 L-1266378 328073 L-1266242 328070 L-1265992 328067 L-1264992 328065 L-1264910 328064 L-1264774 328062 L-1264736 328061 L-1263846 328059 L-1263630 328058 L-1263187 328056 L-1263069 328055 L-1263013 328053 L-1262336 328053 L-1262236 328052 L-1262207 328052 L-1260865 328050 L-1260459 328049 L-1260420 328047 L-1259492 328046 L-1259394 328044 L-1259261 328043 L-1258856 328041 L-1258830 328040 L-1258737 328038 L-1258521 328037 L-1258110 328034 L-1256956 328031 L-1256664 328028 L-1256636 328025 L-1256028 328023 L-1255778 328020 L-1255758 328019 L-1254829 328017 L-1254777 328014 L-1254655 328013 L-1254637 328010 L-1254481 328009 L-1254306 328006 L-1254170 328004 L-1254113 328003 L-1254005 328001 L-1253920 328000 L-1253687 327998 L-1253612 327997 L-1253303 327995 L-1253186 327994 L-1253016 327992 L-1252924 327991 L-1252822 327991 L-1252799 327989 L-1252722 327989 L-1252624 327986 L-1252257 327985 L-1252152 327983 L-1251649 327982 L-1251197 327980 L-1251159 327979 L-1251135 327977 L-1251094 327976 L-1250965 327974 L-1250864 327973 L-1250423 327971 L-1250141 327970 L-1249548 327968 L-1249418 327967 L-1249143 327964 L-1248991 327962 L-1248838 327961 L-1248752 327958 L-1248674 327956 L-1248489 327955 L-1248438 327955 L-1248410 327953 L-1248331 327952 L-1248308 327950 L-1248024 327947 L-1247421 327944 L-1246425 327943 L-1246127 327941 L-1245393 327940 L-1245149 327938 L-1245059 327937 L-1244482 327935 L-1243783 327934 L-1243031 327932 L-1242713 327931 L-1242330 327928 L-1242253 327926 L-1241618 327925 L-1241433 327924 L-1241345 327924 L-1241215 327924 L-1240903 327922 L-1240853 327921 L-1240711 327919 L-1240689 327918 L-1239722 327916 L-1239176 327915 L-1238698 327915 L-1238637 327915 L-1238313 327915 L-1238292 327913 L-1238229 327913 L-1238019 327912 L-1237943 327910 L-1237888 327909 L-1237865 327907 L-1237826 327906 L-1237810 327904 L-1237053 327903 L-1237037 327901 L-1236237 327900 L-1236085 327898 L-1235180 327897 L-1234673 327895 L-1234444 327892 L-1234403 327892 L-1234288 327891 L-1234111 327889 L-1233357 327891 L-1233222 327889 L-1233058 327888 L-1232740 327886 L-1232564 327883 L-1231542 327880 L-1231518 327877 L-1231267 327876 L-1231054 327873 L-1230420 327871 L-1230182 327868 L-1230150 327865 L-1229972 327862 L-1229891 327859 L-1229802 327858 L-1229737 327855 L-1229297 327852 L-1229273 327850 L-1228732 327849 L-1228477 327847 L-1227982 327846 L-1227105 327844 L-1227068 327843 L-1227015 327841 L-1226974 327840 L-1226857 327838 L-1226580 327837 L-1226373 327834 L-1226176 327831 L-1226153 327828 L-1226103 327825 L-1226063 327824 L-1225985 327822 L-1225388 327819 L-1225328 327818 L-1225224 327816 L-1225070 327815 L-1224438 327813 L-1223757 327812 L-1223455 327809 L-1223108 327807 L-1222910 327806 L-1222862 327803 L-1222542 327801 L-1221914 327800 L-1221767 327798 L-1221731 327797 L-1221673 327795 L-1221597 327792 L-1221355 327792 L-1221267 327791 L-1221173 327789 L-1220879 327788 L-1220745 327786 L-1220685 327785 L-1220648 327782 L-1220376 327782 L-1219370 327780 L-1219194 327779 L-1219143 327779 L-1218851 327777 L-1218658 327774 L-1218325 327773 L-1217819 327771 L-1217256 327768 L-1217242 327765 L-1217225 327764 L-1217125 327761 L-1217010 327758 L-1216971 327755 L-1216933 327753 L-1216868 327753 L-1216840 327752 L-1216701 327753 L-1216408 327753 L-1216358 327753 L-1216253 327753 L-1215988 327752 L-1215523 327750 L-1215379 327750 L-1215324 327748 L-1215267 327746 L-1215076 327745 L-1214711 327743 L-1214496 327743 L-1214302 327743 L-1214244 327743 L-1214185 327740 L-1214031 327739 L-1213761 327737 L-1213331 327745 L-1213316 327745 L-1213239 327743 L-1213174 327742 L-1213045 327731 L-1213022 327730 L-1212738 327728 L-1212690 327727 L-1212635 327725 L-1212173 327724 L-1212134 327724 L-1212093 327722 L-1211903 327721 L-1211423 327719 L-1210936 327718 L-1210919 327716 L-1210881 327715 L-1210625 327713 L-1210547 327710 L-1210317 327709 L-1210301 327706 L-1210007 327703 L-1209565 327701 L-1209118 327700 L-1208613 327698 L-1208459 327697 L-1208173 327695 L-1208133 327692 L-1207802 327691 L-1207580 327689 L-1207063 327686 L-1206987 327685 L-1206739 327682 L-1206545 327679 L-1206485 327677 L-1205708 327676 L-1205634 327676 L-1205404 327674 L-1205387 327674 L-1205325 327673 L-1205130 327671 L-1204665 327671 L-1204642 327670 L-1204512 327670 L-1203212 327670 L-1203195 327670 L-1203118 327668 L-1203024 327668 L-1202807 327668 L-1202655 327667 L-1202477 327668 L-1202422 327670 L-1202136 327671 L-1202096 327671 L-1201726 327671 L-1201286 327671 L-1201103 327671 L-1200782 327670 L-1200487 327670 L-1200041 327667 L-1199969 327665 L-1199507 327662 L-1199069 327661 L-1198887 327660 L-1197433 327657 L-1197301 327655 L-1196844 327652 L-1196618 327651 L-1196231 327648 L-1195715 327645 L-1194761 327642 L-1193966 327639 L-1193292 327637 L-1192866 327634 L-1192555 327633 L-1192325 327628 L-1191642 327624 L-1191629 327619 L-1191419 327613 L-1191397 327612 L-1191223 327609 L-1190273 327607 L-1190004 327604 L-1189189 327603 L-1188879 327600 L-1188841 327598 L-1188784 327595 L-1188167 327594 L-1187529 327591 L-1185903 327589 L-1185229 327588 L-1184587 327588 L-1184510 327588 L-1184453 327588 L-1184417 327588 L-1184389 327586 L-1184277 327583 L-1184259 327582 L-1184237 327580 L-1184083 327579 L-1184030 327576 L-1183952 327574 L-1183832 327573 L-1183735 327572 L-1183617 327570 L-1183348 327567 L-1183078 327566 L-1183061 327563 L-1182861 327561 L-1182714 327558 L-1182487 327557 L-1182353 327555 L-1182044 327554 L-1181984 327552 L-1181631 327549 L-1181283 327548 L-1181182 327546 L-1181117 327543 L-1181058 327542 L-1180673 327539 L-1180292 327537 L-1180188 327536 L-1179928 327534 L-1179657 327531 L-1179497 327530 L-1179465 327528 L-1179403 327527 L-1179262 327525 L-1179078 327524 L-1179033 327522 L-1178745 327522 L-1178729 327521 L-1178496 327521 L-1178435 327519 L-1178397 327519 L-1177817 327518 L-1177683 327516 L-1177660 327510 L-1177641 327500 L-1177624 327488 L-1177608 327476 L-1177584 327464 L-1177567 327455 L-1177546 327445 L-1177530 327434 L-1177506 327428 L-1177490 327422 L-1177468 327418 L-1177451 327415 L-1177402 327410 L-1177330 327406 L-1177295 327398 L-1177272 327393 L-1177236 327387 L-1177195 327381 L-1177158 327378 L-1177142 327372 L-1177118 327367 L-1177080 327364 L-1177064 327360 L-1177040 327357 L-1177023 327354 L-1177004 327351 L-1176988 327348 L-1176959 327343 L-1176933 327339 L-1176888 327337 L-1176871 327334 L-1176829 327333 L-1176781 327330 L-1176711 327327 L-1176695 327324 L-1176679 327321 L-1176617 327319 L-1176578 327318 L-1176539 327316 L-1176372 327315 L-1176307 327313 L-1176291 327312 L-1176247 327309 L-1176189 327308 L-1175976 327306 L-1175943 327305 L-1175900 327303 L-1175822 327302 L-1175285 327300 L-1175207 327299 L-1175102 327296 L-1175014 327294 L-1174838 327293 L-1174487 327291 L-1174331 327290 L-1173893 327288 L-1173737 327287 L-1173607 327285 L-1172903 327282 L-1172702 327281 L-1171741 327278 L-1171259 327276 L-1171160 327276 L-1171067 327275 L-1170822 327273 L-1170749 327272 L-1170306 327269 L-1170210 327267 L-1170195 327266 L-1170179 327264 L-1170154 327263 L-1169689 327261 L-1169472 327260 L-1169332 327258 L-1169038 327257 L-1168950 327255 L-1168908 327254 L-1168878 327252 L-1168706 327251 L-1168647 327249 L-1168571 327248 L-1168490 327246 L-1168420 327246 L-1168111 327245 L-1168026 327243 L-1167812 327242 L-1167777 327240 L-1167094 327239 L-1166995 327237 L-1166790 327236 L-1166743 327234 L-1166465 327233 L-1166403 327231 L-1166386 327228 L-1166308 327227 L-1166000 327224 L-1165975 327222 L-1165921 327220 L-1165899 327218 L-1165776 327217 L-1165640 327214 L-1165396 327212 L-1165270 327212 L-1164624 327211 L-1164608 327211 L-1164583 327211 L-1164403 327208 L-1164327 327206 L-1164235 327205 L-1163807 327203 L-1163391 327202 L-1162998 327199 L-1162919 327197 L-1162901 327196 L-1162537 327194 L-1162301 327193 L-1162073 327191 L-1161759 327190 L-1161682 327188 L-1161601 327185 L-1161423 327182 L-1161407 327181 L-1161142 327178 L-1161062 327176 L-1160832 327175 L-1160605 327173 L-1160290 327173 L-1160115 327172 L-1159753 327172 L-1159362 327170 L-1159292 327167 L-1159229 327166 L-1159088 327163 L-1159036 327161 L-1158935 327158 L-1158433 327157 L-1158236 327155 L-1157989 327154 L-1157804 327152 L-1157504 327151 L-1157428 327149 L-1157262 327146 L-1156377 327145 L-1156349 327142 L-1156226 327139 L-1155647 327137 L-1155569 327136 L-1154856 327136 L-1154544 327136 L-1154331 327136 L-1154314 327136 L-1153928 327136 L-1153403 327133 L-1152956 327132 L-1152627 327130 L-1152474 327129 L-1152148 327129 L-1151970 327127 L-1151888 327127 L-1151682 327124 L-1151507 327123 L-1150578 327121 L-1149688 327120 L-1149649 327118 L-1149421 327118 L-1149042 327117 L-1148254 327115 L-1148020 327114 L-1147944 327112 L-1147587 327111 L-1147015 327108 L-1146748 327106 L-1146361 327105 L-1146258 327105 L-1146088 327105 L-1145469 327105 L-1145258 327105 L-1144950 327105 L-1144897 327103 L-1144770 327102 L-1144717 327100 L-1144597 327099 L-1144261 327096 L-1143302 327094 L-1143171 327091 L-1142969 327090 L-1142338 327088 L-1142026 327087 L-1141612 327085 L-1141585 327084 L-1141440 327082 L-1141019 327081 L-1139687 327081 L-1139640 327079 L-1139511 327076 L-1139495 327075 L-1138917 327072 L-1138711 327070 L-1138681 327069 L-1138640 327067 L-1138583 327066 L-1138545 327064 L-1138467 327063 L-1138324 327061 L-1137870 327060 L-1137752 327058 L-1137466 327057 L-1137094 327055 L-1136998 327054 L-1136671 327052 L-1136316 327051 L-1136146 327049 L-1136099 327048 L-1135990 327046 L-1135901 327045 L-1135873 327044 L-1135797 327041 L-1135493 327039 L-1135460 327036 L-1135388 327035 L-1135020 327033 L-1134684 327032 L-1134604 327032 L-1134384 327030 L-1134212 327029 L-1134185 327027 L-1133688 327026 L-1133139 327023 L-1132258 327021 L-1132160 327018 L-1132083 327017 L-1131808 327015 L-1131561 327012 L-1131487 327011 L-1131425 327008 L-1131306 327006 L-1131264 327005 L-1131154 327003 L-1131077 327000 L-1130376 326999 L-1130131 326997 L-1130091 326996 L-1129935 326994 L-1129336 326994 L-1129109 326994 L-1129017 326994 L-1128542 326994 L-1127944 326991 L-1127424 326990 L-1127403 326988 L-1127258 326987 L-1126938 326987 L-1126396 326987 L-1126164 326987 L-1125994 326987 L-1125507 326985 L-1125280 326984 L-1125195 326982 L-1124849 326981 L-1124523 326981 L-1124000 326979 L-1123672 326978 L-1123072 326976 L-1122874 326973 L-1122822 326972 L-1122782 326970 L-1122500 326969 L-1121816 326966 L-1121506 326964 L-1121481 326961 L-1121290 326960 L-1121067 326958 L-1120981 326957 L-1120317 326954 L-1120293 326953 L-1120071 326950 L-1119741 326948 L-1119389 326945 L-1119184 326944 L-1118952 326941 L-1118694 326939 L-1118504 326936 L-1118457 326935 L-1118230 326933 L-1118195 326932 L-1118039 326930 L-1117824 326929 L-1117651 326927 L-1117560 326926 L-1117283 326924 L-1117039 326923 L-1116724 326921 L-1116298 326921 L-1116260 326921 L-1115777 326921 L-1115544 326921 L-1115332 326920 L-1115106 326918 L-1114556 326918 L-1114309 326917 L-1113474 326917 L-1113419 326915 L-1113397 326914 L-1113239 326912 L-1112778 326911 L-1112737 326909 L-1112397 326906 L-1112264 326905 L-1112041 326903 L-1111469 326902 L-1110997 326900 L-1110802 326899 L-1110610 326897 L-1110420 326896 L-1110318 326894 L-1109950 326893 L-1109904 326891 L-1109822 326890 L-1108529 326888 L-1108480 326887 L-1108212 326887 L-1108067 326887 L-1107516 326887 L-1107399 326885 L-1107318 326884 L-1106958 326882 L-1106735 326881 L-1106453 326879 L-1106124 326876 L-1105616 326875 L-1105504 326873 L-1105425 326872 L-1105260 326870 L-1104966 326870 L-1104497 326870 L-1104301 326872 L-1104250 326872 L-1103601 326870 L-1103479 326869 L-1103025 326869 L-1102989 326868 L-1102520 326866 L-1102410 326865 L-1102394 326863 L-1102177 326863 L-1101997 326862 L-1101465 326862 L-1100435 326862 L-1100236 326860 L-1099778 326859 L-1098829 326856 L-1098730 326854 L-1098377 326851 L-1098316 326850 L-1098302 326848 L-1098266 326847 L-1097897 326845 L-1097777 326844 L-1097535 326842 L-1097371 326841 L-1097184 326839 L-1097063 326838 L-1095992 326835 L-1095134 326833 L-1094922 326830 L-1094825 326829 L-1094650 326826 L-1094317 326824 L-1094245 326823 L-1094188 326821 L-1094012 326821 L-1093623 326820 L-1093388 326818 L-1093277 326817 L-1093160 326815 L-1092179 326814 L-1092153 326812 L-1091559 326809 L-1091527 326809 L-1091378 326808 L-1091094 326806 L-1090182 326806 L-1089236 326806 L-1089083 326805 L-1088980 326805 L-1088849 326803 L-1088706 326802 L-1088679 326800 L-1088565 326799 L-1088347 326797 L-1087665 326796 L-1087536 326794 L-1087233 326793 L-1086993 326790 L-1086660 326788 L-1086021 326787 L-1085679 326784 L-1085617 326782 L-1085461 326782 L-1084540 326782 L-1084069 326782 L-1084026 326782 L-1084013 326781 L-1083972 326780 L-1083950 326778 L-1083923 326777 L-1083779 326775 L-1083356 326774 L-1083021 326774 L-1082830 326772 L-1082401 326772 L-1082213 326771 L-1081825 326768 L-1081290 326766 L-1080918 326765 L-1080896 326765 L-1080646 326763 L-1080528 326762 L-1080452 326760 L-1080316 326759 L-1080277 326757 L-1080197 326756 L-1079803 326754 L-1079307 326753 L-1079195 326750 L-1079022 326748 L-1078714 326747 L-1078266 326745 L-1077943 326744 L-1077801 326741 L-1077374 326738 L-1077220 326735 L-1077165 326732 L-1076351 326730 L-1076332 326729 L-1075960 326727 L-1075903 326727 L-1074774 326726 L-1074706 326726 L-1074148 326724 L-1073953 326723 L-1073816 326721 L-1073583 326720 L-1073236 326718 L-1073201 326715 L-1073166 326714 L-1073098 326711 L-1072749 326709 L-1072577 326708 L-1072092 326706 L-1072076 326705 L-1071751 326703 L-1071593 326702 L-1070452 326699 L-1070428 326697 L-1070236 326695 L-1070042 326693 L-1069792 326692 L-1069775 326690 L-1068755 326689 L-1068457 326687 L-1068382 326686 L-1068245 326683 L-1068070 326681 L-1067493 326678 L-1067277 326677 L-1067214 326675 L-1067083 326674 L-1067046 326671 L-1066523 326669 L-1066385 327257 L-1066370 327257 L-1066348 327257 L-1066327 327257 L-1066100 326668 L-1065324 326668 L-1065283 326668 L-1064915 326668 L-1064837 326666 L-1064785 326665 L-1064111 326663 L-1063369 326662 L-1062944 326662 L-1062497 326660 L-1061435 326659 L-1061123 326656 L-1060713 326656 L-1060641 326654 L-1060117 326654 L-1060022 326654 L-1060004 326654 L-1059560 326653 L-1059374 326650 L-1058594 326647 L-1057921 326645 L-1057509 326641 L-1057277 326638 L-1057137 326636 L-1057055 326633 L-1057035 326632 L-1056959 326632 L-1056831 326630 L-1056514 326632 L-1056290 326632 L-1055965 326630 L-1055903 326630 L-1055532 326630 L-1055499 326630 L-1055291 326630 L-1054623 326630 L-1054546 326630 L-1054388 326627 L-1054277 326627 L-1053951 326626 L-1053796 326624 L-1053455 326624 L-1053398 326621 L-1053060 326618 L-1052856 326617 L-1052803 326614 L-1051427 326612 L-1051297 326611 L-1050864 326609 L-1050543 326608 L-1049716 326605 L-1049592 326604 L-1048861 326601 L-1048705 326598 L-1048665 326596 L-1048611 326595 L-1048588 326593 L-1048474 326592 L-1048177 326590 L-1047888 326589 L-1047833 326587 L-1047713 326586 L-1047682 326584 L-1047583 326583 L-1047139 326583 L-1046987 326581 L-1046152 326581 L-1045610 326580 L-1045275 326580 L-1045259 326578 L-1045184 326577 L-1045068 326575 L-1044873 326574 L-1044609 326572 L-1043774 326571 L-1043678 326569 L-1043156 326568 L-1043115 326566 L-1043015 326565 L-1042187 326565 L-1042052 326563 L-1041713 326563 L-1041159 326562 L-1040780 326560 L-1040617 326559 L-1040307 326557 L-1039494 326556 L-1039188 326554 L-1038920 326554 L-1038598 326554 L-1038277 326556 L-1038002 326556 L-1037173 326553 L-1037078 326551 L-1036985 326547 L-1036881 326542 L-1036494 326538 L-1036014 326535 L-1035998 326533 L-1035879 326532 L-1035511 326529 L-1035416 326527 L-1034582 326524 L-1034505 326523 L-1034206 326521 L-1034115 326520 L-1033708 326517 L-1033598 326514 L-1032898 326513 L-1032425 326511 L-1032365 326510 L-1032146 326507 L-1031872 326505 L-1031759 326504 L-1030732 326502 L-1030346 326501 L-1030326 326499 L-1029993 326498 L-1029748 326496 L-1029315 326495 L-1029205 326493 L-1029087 326492 L-1028635 326489 L-1028045 326487 L-1027708 326486 L-1025816 326484 L-1025702 326481 L-1025490 326480 L-1024172 326478 L-1024065 326143 L-1023999 325812 L-1023963 325506 L-1023901 325506 L-1023402 325838 L-1022727 326167 L-1022705 326469 L-1022434 326466 L-1021466 326466 L-1020777 326465 L-1020615 326463 L-1020074 326462 L-1019984 326460 L-1018965 326459 L-1018017 326456 L-1017652 326457 L-1017549 326459 L-1016961 326459 L-1016901 326459 L-1016801 326457 L-1016361 326454 L-1016253 326453 L-1015812 326451 L-1014812 326447 L-1014555 326442 L-1014452 326438 L-1014322 326435 L-1013956 326432 L-1013375 326429 L-1013344 326428 L-1013028 326426 L-1011045 326425 L-1010930 326423 L-1010862 326423 L-1010503 326422 L-1008885 326420 L-1008707 326420 L-1008563 326420 L-1007740 326422 L-1007687 326423 L-1007633 326423 L-1007199 326423 L-1006218 326425 L-1006145 326425 L-1005060 326423 L-1004847 326423 L-1004131 326420 L-1003742 326419 L-1003524 326416 L-1003204 326413 L-1002710 326410 L-1002582 326408 L-1002354 326405 L-1002121 326402 L-1002062 326401 L-1001773 326399 L-1001500 326396 L-1000471 326395 L-998806 326393 L-998386 326392 L-998249 326390 L-998093 326390 L-997788 326389 L-997560 326386 L-997401 326384 L-997242 326381 L-997073 326378 L-997025 326377 L-996972 326375 L-996950 326375 L-996564 326374 L-996314 326374 L-996044 326374 L-995883 326374 L-995793 326374 L-994135 326374 L-993970 326375 L-993590 326374 L-993130 326374 L-992520 326371 L-991427 326369 L-990996 326368 L-990964 326366 L-990902 326365 L-990885 326363 L-989181 326362 L-989139 326360 L-988673 326359 L-988486 326357 L-988453 326354 L-987858 326353 L-987808 326351 L-987486 326350 L-987435 326348 L-987225 326347 L-987207 326345 L-986940 326343 L-986887 326341 L-986418 326340 L-985908 326337 L-985830 326337 L-985535 326335 L-985519 326334 L-985480 326332 L-985409 326331 L-985252 326329 L-984306 326329 L-984249 326329 L-983729 326329 L-983536 326328 L-983435 326328 L-983209 326326 L-982699 326326 L-982311 326366 L-982242 326366 L-981894 326365 L-981537 326363 L-980408 326320 L-980356 326317 L-980130 326316 L-980096 326314 L-979971 326311 L-979873 326311 L-979608 326311 L-978868 326313 L-978289 326313 L-977996 326313 L-977290 326313 L-977111 326311 L-977088 326311 L-976452 326310 L-976141 326308 L-975744 326308 L-975715 326307 L-975694 326305 L-975540 326304 L-974855 326304 L-974838 326304 L-974498 326304 L-974226 326302 L-974188 326301 L-974132 326298 L-974110 326296 L-974038 326295 L-973706 326293 L-973600 326292 L-973572 326289 L-973374 326287 L-973221 326286 L-972353 326284 L-971790 326281 L-971774 326281 L-971673 326280 L-971571 326281 L-971424 326281 L-971346 326281 L-971308 326280 L-971253 326278 L-971179 326277 L-971034 326275 L-970553 326275 L-970148 326274 L-969282 326275 L-969262 326275 L-969004 326275 L-968928 326275 L-968898 326274 L-968888 326271 L-968871 326269 L-968578 326268 L-968538 326266 L-968466 326265 L-968393 326263 L-968188 326262 L-968028 326257 L-967727 326253 L-967649 326247 L-967632 326243 L-967416 326240 L-967185 326240 L-967075 326241 L-966705 326243 L-966547 326243 L-966315 326243 L-966147 326243 L-966002 326241 L-965870 326240 L-964594 326237 L-964190 326234 L-964130 326232 L-964013 326229 L-963588 326228 L-963572 326225 L-963510 326223 L-963237 326220 L-963124 326219 L-962842 326216 L-962565 326214 L-962140 326211 L-962117 326210 L-962039 326208 L-961914 326207 L-961327 326205 L-960936 326204 L-960600 326202 L-960011 326201 L-959909 326201 L-959739 326199 L-959602 326199 L-958775 326198 L-957589 326196 L-957553 326195 L-957498 326195 L-957277 326193 L-957072 326193 L-956918 326193 L-956661 326192 L-956584 326190 L-956042 326189 L-956005 326187 L-955756 326186 L-955369 326184 L-954543 326183 L-954185 326181 L-953875 326181 L-953617 326180 L-953393 326178 L-952987 326177 L-952870 326175 L-952687 326174 L-952634 326174 L-952445 326172 L-952274 326171 L-952246 326169 L-951965 326168 L-951655 326167 L-951517 326165 L-951207 326164 L-951013 326164 L-950998 326162 L-950278 326162 L-950145 326159 L-949847 326158 L-949757 326156 L-949156 326156 L-949118 326155 L-949039 326153 L-948419 326152 L-948267 326149 L-948227 326147 L-947916 326146 L-947724 326144 L-947531 326141 L-947476 326138 L-947167 326137 L-947115 326135 L-947060 326137 L-947035 326137 L-946910 326137 L-946099 326135 L-946023 326134 L-945482 326132 L-945213 326131 L-944554 326129 L-943646 326128 L-943405 326126 L-942873 326125 L-942655 326123 L-941548 326125 L-941498 326125 L-940722 326125 L-940174 326123 L-940063 326122 L-939910 326119 L-939855 326117 L-939690 326116 L-939312 326114 L-938865 326113 L-938810 326111 L-938656 326110 L-937976 326108 L-937756 326107 L-937238 326105 L-936389 326102 L-936373 326101 L-934582 326099 L-934028 326098 L-933910 326096 L-932905 326095 L-932868 326093 L-932635 326093 L-932543 326093 L-932503 326093 L-932171 326092 L-931819 326090 L-931554 326087 L-931267 326086 L-930956 326083 L-930702 326080 L-930608 326079 L-930118 326077 L-929911 326076 L-929345 326074 L-929231 326076 L-928880 326074 L-928828 326074 L-928788 326074 L-928185 326071 L-927451 326068 L-926870 326065 L-926634 326062 L-926094 326058 L-925941 326055 L-925440 326053 L-925230 326050 L-925207 326050 L-925148 326049 L-924185 326049 L-924008 326047 L-923566 326046 L-923542 326043 L-923387 326041 L-923305 326041 L-923155 326043 L-922508 326043 L-922458 326041 L-921338 326040 L-920354 326038 L-920293 326037 L-919572 326035 L-918707 326034 L-918328 326032 L-918109 326032 L-917350 326031 L-917298 326029 L-916989 326026 L-916137 326026 L-915944 326025 L-915768 326023 L-915543 326023 L-915416 326022 L-915224 326022 L-914992 326020 L-914822 326022 L-914536 326020 L-914256 326020 L-914173 326019 L-914003 326017 L-913986 326014 L-913832 326013 L-913793 326011 L-913018 326010 L-912941 326010 L-912709 326007 L-912282 326005 L-911937 326004 L-911353 326002 L-911085 326002 L-910826 326002 L-910696 325999 L-910680 325998 L-910566 325996 L-910542 325995 L-910308 325993 L-910272 325992 L-908956 325992 L-908900 325991 L-908222 325988 L-907649 325988 L-907524 325988 L-907371 325988 L-907293 325988 L-906982 325985 L-906709 325983 L-906619 325980 L-906518 325980 L-905590 325979 L-905514 325979 L-905150 325979 L-905125 325977 L-905089 325976 L-904313 325973 L-904221 325971 L-904081 325970 L-903680 325968 L-903418 325968 L-903174 325970 L-902960 325968 L-902880 325968 L-902803 325968 L-902727 325968 L-902540 325970 L-902474 325970 L-902224 325970 L-902169 325968 L-902032 325967 L-901952 325964 L-901839 325962 L-901615 325961 L-901451 325959 L-901410 325958 L-901241 325956 L-900870 325955 L-900855 325953 L-900739 325952 L-900018 325950 L-899982 325949 L-899849 325949 L-899501 325947 L-899090 325947 L-899054 325947 L-898975 325946 L-898937 325944 L-898572 325943 L-898368 325941 L-898353 325940 L-898008 325938 L-897659 325938 L-897333 325938 L-897232 325937 L-897079 325937 L-896885 325935 L-896653 325935 L-896560 325935 L-896405 325935 L-896328 325935 L-896287 325934 L-896173 325932 L-896150 325931 L-895899 325931 L-895761 325928 L-895183 325923 L-894355 325920 L-893867 325917 L-893745 325916 L-893707 325914 L-893694 325913 L-893542 325910 L-893441 325907 L-893208 325905 L-892818 325903 L-892513 325901 L-892498 325900 L-892327 325898 L-892088 325895 L-891492 325895 L-890888 325894 L-890849 325894 L-890808 325894 L-890655 325892 L-890602 325891 L-890539 325889 L-890471 325888 L-890417 325885 L-890391 325883 L-890345 325882 L-890250 325879 L-890113 325877 L-889960 325876 L-889828 325874 L-889787 325874 L-889751 325873 L-889689 325871 L-889416 325868 L-889101 325867 L-889061 325864 L-888975 325862 L-888798 325861 L-888561 325859 L-888203 325858 L-888173 325856 L-887604 325855 L-887481 325853 L-887245 325852 L-887222 325852 L-886941 325850 L-886656 325850 L-886400 325850 L-885828 325849 L-885532 325847 L-885455 325846 L-884756 325844 L-884679 325843 L-884644 325841 L-884617 325840 L-884566 325837 L-884372 325835 L-884232 325832 L-884196 325831 L-884156 325829 L-883560 325828 L-883328 325826 L-883044 325837 L-882990 325846 L-882916 325856 L-882838 325865 L-882602 325862 L-882358 325861 L-882222 325859 L-882116 325858 L-882036 325856 L-881649 325853 L-881522 325852 L-881369 325850 L-881332 325849 L-881186 325847 L-880964 325846 L-880791 325844 L-880722 325843 L-879900 325840 L-879884 325840 L-879589 325838 L-878802 325837 L-878492 325837 L-878345 325835 L-878117 325834 L-877916 325831 L-876980 325829 L-876943 325828 L-876920 325826 L-876879 325823 L-876611 325822 L-876014 325820 L-875951 325819 L-875915 325817 L-875898 325816 L-875203 325816 L-875002 325816 L-874970 325816 L-874636 325816 L-874529 325815 L-873904 325812 L-873400 325810 L-873363 325807 L-872920 325807 L-872824 325806 L-872665 325806 L-872352 325806 L-872340 325806 L-871900 325807 L-871418 325809 L-871289 325809 L-870969 325809 L-870900 325807 L-870596 325807 L-870420 325806 L-870227 325804 L-869984 325801 L-869786 325798 L-869761 325795 L-869182 325794 L-869113 325792 L-868703 325791 L-868649 325789 L-868602 325788 L-868238 325786 L-868092 325785 L-867887 325783 L-867790 325783 L-867635 325782 L-867574 325780 L-867426 325777 L-867326 325776 L-866769 325776 L-866746 325779 L-866574 325780 L-866033 325782 L-865972 325782 L-865918 325779 L-865889 325776 L-865818 325774 L-865802 325771 L-865738 325770 L-865702 325767 L-865547 325765 L-865221 325764 L-864655 325762 L-864641 325761 L-864579 325758 L-864477 325755 L-864431 325755 L-864188 325753 L-863766 325753 L-863611 325753 L-861870 325750 L-861328 325749 L-860385 325747 L-859975 325746 L-859434 325743 L-859238 325741 L-859069 325740 L-858773 325738 L-858659 325737 L-858644 325737 L-858489 325735 L-858349 325734 L-858272 325731 L-858141 325731 L-857793 325731 L-857422 325732 L-856824 325732 L-856648 325732 L-856492 325731 L-856223 325729 L-856072 325729 L-855780 325734 L-855757 325737 L-855674 325740 L-855446 325743 L-854747 325741 L-854620 325740 L-854189 325738 L-854095 325737 L-852890 325737 L-852841 325735 L-852547 325735 L-852144 325734 L-851868 325731 L-851849 325729 L-851731 325728 L-851655 325727 L-851473 325725 L-850993 325724 L-850542 325721 L-850132 325719 L-850101 325718 L-849683 325716 L-849569 325716 L-849451 325716 L-849436 325716 L-849241 325715 L-849220 325712 L-848987 325710 L-848544 325709 L-848225 325706 L-847760 325706 L-847595 325704 L-847440 325703 L-847284 325703 L-846830 325703 L-846511 325703 L-846456 325704 L-846085 325704 L-846048 325706 L-845721 325706 L-845604 325704 L-845506 325703 L-845180 325700 L-844793 325698 L-844532 325697 L-844174 325694 L-843917 325692 L-841747 325691 L-841697 325689 L-841675 325688 L-841263 325688 L-841202 325688 L-841132 325689 L-840901 325689 L-840590 325688 L-840287 325685 L-840243 325683 L-839935 325682 L-839802 325680 L-839585 325679 L-838873 325677 L-838718 325677 L-838579 325676 L-838431 325676 L-838410 325676 L-838215 325674 L-838190 325673 L-838099 325671 L-838077 325670 L-838061 325668 L-837960 325667 L-837032 325665 L-836574 325665 L-835482 325662 L-835059 325662 L-834656 325661 L-834617 325659 L-834363 325658 L-833589 325655 L-833573 325653 L-833548 325652 L-833355 325650 L-832619 325649 L-832349 325647 L-832309 325646 L-831910 325643 L-831885 325641 L-831096 325640 L-830416 325639 L-829045 325637 L-828775 325636 L-828726 325634 L-828189 325631 L-828156 325630 L-828054 325627 L-827730 325625 L-827651 325624 L-827382 325624 L-826469 325622 L-826331 325622 L-826082 325619 L-825536 325619 L-825114 325618 L-824921 325616 L-824906 325616 L-824768 325613 L-824674 325612 L-824547 325610 L-824287 325609 L-824262 325606 L-824171 325604 L-823860 325603 L-823800 325601 L-823683 325601 L-823333 325601 L-822523 325601 L-822291 325598 L-821462 325598 L-821230 325595 L-821014 325594 L-820495 325594 L-819857 325592 L-819441 325591 L-819119 325589 L-818638 325588 L-818212 325588 L-818151 325586 L-817802 325586 L-817762 325585 L-817748 325583 L-817649 325580 L-817603 325580 L-817118 325579 L-816316 325579 L-815982 325579 L-814901 325577 L-814421 325576 L-814398 325574 L-814258 325573 L-813702 325571 L-813005 325570 L-812696 325568 L-812475 325567 L-812370 325565 L-812267 325562 L-811596 325561 L-811502 325559 L-811480 325559 L-811403 325558 L-811225 325558 L-811053 325558 L-810872 325556 L-810859 325555 L-810783 325553 L-810618 325552 L-810103 325551 L-810087 325549 L-809947 325549 L-809584 325548 L-809560 325548 L-809430 325546 L-809405 325545 L-809043 325543 L-808517 325540 L-808424 325539 L-808208 325536 L-808114 325534 L-808090 325533 L-807626 325531 L-807548 325531 L-807147 325530 L-806696 325530 L-805444 325528 L-805406 325527 L-804974 325525 L-804941 325524 L-804222 325522 L-804046 325521 L-803910 325519 L-803604 325518 L-803549 325516 L-803524 325513 L-803508 325510 L-803333 325509 L-803143 325507 L-802636 325507 L-802262 325495 L-801924 325482 L-801885 325470 L-801166 325460 L-801072 325458 L-801034 325457 L-800492 325457 L-800469 325455 L-800067 325454 L-799641 325452 L-799370 325452 L-799190 325451 L-798944 325448 L-798921 325446 L-798865 325443 L-798248 325442 L-797745 325440 L-797358 325440 L-796739 325442 L-796523 325442 L-796368 325443 L-795075 325440 L-794976 325439 L-794534 325436 L-794203 325434 L-793902 325431 L-793660 325430 L-792925 325427 L-792346 325425 L-791516 325424 L-791416 325422 L-790858 325421 L-790720 325419 L-789078 325418 L-789017 325418 L-788924 325418 L-787957 325418 L-787779 325416 L-787492 325416 L-787274 325416 L-787196 325415 L-786925 325415 L-786809 325413 L-786656 325412 L-786346 325410 L-786268 325409 L-786177 325409 L-786099 325407 L-785983 325407 L-785804 325406 L-785712 325404 L-785674 325403 L-785171 325403 L-784952 325401 L-784823 325401 L-784668 325400 L-784613 325398 L-784488 325398 L-784104 325397 L-783595 325395 L-783523 325394 L-783043 325392 L-782966 325391 L-782865 325391 L-782632 325389 L-782167 325389 L-781937 325389 L-781921 325389 L-781689 325389 L-781534 325389 L-781472 325389 L-781279 325388 L-781008 325385 L-780257 325383 L-779304 325383 L-779268 325382 L-779043 325382 L-778603 325382 L-778322 325379 L-777974 325377 L-776905 325376 L-775977 325376 L-775846 325376 L-775800 325376 L-775730 325375 L-775576 325375 L-775498 325372 L-775325 325369 L-774890 325366 L-774686 325364 L-774625 325361 L-774043 325360 L-773889 325357 L-773773 325355 L-773732 325354 L-773563 325352 L-773426 325351 L-773215 325348 L-773138 325346 L-773115 325345 L-772906 325342 L-772496 325340 L-772471 325339 L-772248 325337 L-772103 325336 L-772068 325334 L-772055 325333 L-772032 325331 L-771799 325330 L-771613 325328 L-771396 325327 L-771371 325325 L-770682 325324 L-770578 325322 L-770542 325321 L-770522 325319 L-770328 325318 L-770275 325316 L-770158 325313 L-770076 325313 L-769965 325312 L-769651 325310 L-769191 325309 L-768936 325307 L-768702 325304 L-768572 325303 L-768220 325301 L-768160 325300 L-768008 325298 L-767436 325295 L-767349 325294 L-767196 325291 L-766900 325288 L-766530 325285 L-766227 325282 L-766150 325281 L-765745 325279 L-765577 325279 L-765433 325279 L-764893 325279 L-764832 325279 L-764817 325276 L-764651 325275 L-764445 325273 L-764370 325273 L-764277 325272 L-763867 325270 L-763852 325269 L-763828 325269 L-763635 325267 L-763558 325281 L-763388 325294 L-763326 325306 L-763310 325319 L-762796 325318 L-762574 325316 L-761955 325313 L-761702 325312 L-761508 325310 L-761469 325309 L-761395 325309 L-761330 325309 L-760679 325309 L-760641 325310 L-760466 325310 L-760401 325310 L-759727 325310 L-759338 325307 L-759076 325306 L-758838 325304 L-758760 325301 L-758745 325298 L-758542 325297 L-758172 325294 L-757946 325292 L-757311 325291 L-757291 325291 L-756904 325289 L-756810 325289 L-756752 325288 L-756476 325287 L-756166 325287 L-756089 325285 L-755238 325287 L-754895 325294 L-754458 325303 L-754025 325310 L-753530 325318 L-753380 325316 L-753112 325318 L-751874 325319 L-751817 325322 L-750053 325324 L-749863 325322 L-748853 325321 L-748702 325319 L-748326 325322 L-748005 325325 L-747400 325328 L-747330 325331 L-747153 325330 L-746324 325328 L-746186 325327 L-745799 325325 L-745615 325324 L-745571 325322 L-745451 325321 L-745241 325319 L-744794 325316 L-744446 325315 L-744313 325313 L-743904 325312 L-743554 325312 L-743269 325310 L-743075 325309 L-742921 325309 L-742757 325307 L-742689 325306 L-742589 325306 L-742355 325304 L-742239 325304 L-742186 325303 L-741644 325303 L-741179 325301 L-739997 325301 L-739864 325301 L-739839 325301 L-739787 325301 L-739119 325301 L-738084 325298 L-737891 325297 L-737711 325295 L-737559 325295 L-737519 325294 L-737504 325294 L-737442 325292 L-737117 325291 L-735957 325289 L-735763 325288 L-735586 325287 L-734472 325285 L-733612 325284 L-733506 325284 L-733032 325282 L-732840 325282 L-730518 325281 L-730440 325279 L-730319 325276 L-730285 325275 L-730247 325272 L-730153 325267 L-729937 325264 L-729356 325261 L-728970 325260 L-728197 325258 L-728119 325257 L-727421 325257 L-726880 325257 L-726839 325255 L-726709 325255 L-726245 325254 L-726206 325252 L-726072 325251 L-725703 325249 L-725674 325248 L-725524 325248 L-725123 325246 L-723299 325248 L-722492 325246 L-721774 325246 L-721757 325246 L-721443 325243 L-720882 325242 L-720380 325240 L-719861 325239 L-719840 325237 L-718096 325236 L-717927 325234 L-717731 325233 L-716837 325231 L-716319 325228 L-716108 325227 L-715850 325225 L-715141 325224 L-714190 325222 L-713532 325221 L-713493 325218 L-713206 325216 L-713124 325215 L-713029 325215 L-712897 325213 L-712820 325213 L-712084 325213 L-711747 325212 L-711698 325213 L-711442 325213 L-711156 325212 L-710730 325212 L-710150 325210 L-709891 325210 L-709739 325209 L-709492 325209 L-709454 325209 L-708656 325207 L-708619 325206 L-708442 325206 L-708032 325203 L-707804 325203 L-707728 325203 L-707596 325203 L-707480 325201 L-707132 325200 L-707069 325199 L-706916 325197 L-706175 325196 L-706064 325194 L-705894 325193 L-705855 325191 L-705560 325191 L-705159 325191 L-704982 325191 L-704888 325191 L-704579 325190 L-703777 325188 L-703319 325185 L-702799 325184 L-702310 325182 L-701615 325181 L-700568 325179 L-700299 325179 L-700245 325178 L-700085 325178 L-699833 325178 L-699587 325176 L-699508 325175 L-699294 325172 L-698982 325170 L-698518 325167 L-698504 325166 L-698208 325166 L-698194 325164 L-697203 325163 L-696531 325161 L-696196 325158 L-695580 325158 L-695443 325157 L-694804 325155 L-694674 325154 L-693723 325151 L-693624 325148 L-693064 325146 L-692655 325146 L-692227 325146 L-692136 325145 L-691301 325145 L-690938 325145 L-690898 325146 L-690766 325148 L-690589 325148 L-690372 325148 L-690319 325146 L-690162 325143 L-689909 325142 L-688809 325140 L-688731 325139 L-688512 325137 L-688381 325134 L-688345 325133 L-688151 325131 L-688052 325130 L-687568 325128 L-687284 325127 L-687123 325125 L-687029 325122 L-686757 325121 L-686487 325119 L-686471 325113 L-686333 325109 L-686194 325105 L-685868 325099 L-685559 325096 L-685518 325094 L-685442 325091 L-685327 325090 L-684476 325087 L-684150 325085 L-683819 325084 L-683686 325084 L-683470 325084 L-683453 325084 L-682773 325084 L-682680 325081 L-682656 325079 L-682641 325076 L-682602 325075 L-682190 325072 L-681921 325070 L-681881 325069 L-681513 325069 L-681303 325067 L-680220 325067 L-680204 325066 L-680175 325064 L-680155 325064 L-679778 325061 L-679523 325060 L-679275 325057 L-679135 325054 L-679003 325052 L-678671 325051 L-678579 325049 L-678518 325048 L-677960 325046 L-677898 325045 L-677742 325043 L-677548 325042 L-677356 325040 L-677340 325039 L-677302 325037 L-677263 325036 L-676992 325034 L-676869 325033 L-676837 325031 L-676737 325031 L-676582 325031 L-676440 325031 L-676156 325030 L-675831 325030 L-675135 325028 L-675112 325028 L-674603 325028 L-673757 325028 L-673394 325027 L-673239 325025 L-672635 325025 L-672465 325025 L-672404 325025 L-672349 325024 L-671294 325023 L-671275 325023 L-670369 325023 L-670348 325023 L-670181 325021 L-669939 325021 L-669889 325020 L-669834 325017 L-669696 325015 L-669657 325014 L-668729 325012 L-668674 325012 L-668552 325012 L-668480 325012 L-668364 325012 L-668186 325014 L-667203 325012 L-667064 325012 L-666946 325009 L-666652 325006 L-666404 325005 L-666368 325003 L-666313 325005 L-666291 325005 L-666158 325005 L-666079 325005 L-665942 325003 L-665319 325003 L-665152 325002 L-664688 325002 L-664512 324999 L-664495 324997 L-664435 324996 L-664318 324994 L-663836 324993 L-663140 324991 L-662767 324990 L-662598 324988 L-661632 324987 L-661477 324985 L-661299 324985 L-661207 324984 L-660951 324984 L-660781 324984 L-660134 324982 L-660123 324982 L-659543 324981 L-659404 324981 L-659349 324978 L-658614 324976 L-658575 324975 L-658498 324975 L-657856 324973 L-657082 324973 L-656989 324972 L-656940 324972 L-656925 324970 L-656889 324970 L-656873 324967 L-656810 324966 L-656794 324964 L-656774 324964 L-656619 324963 L-656580 324961 L-656564 324960 L-656525 324958 L-656385 324957 L-656309 324955 L-655944 324954 L-655596 324952 L-654823 324951 L-654220 324949 L-654024 324948 L-653794 324948 L-653656 324946 L-653018 324946 L-652729 324945 L-652707 324945 L-652247 324943 L-652014 324943 L-651959 324942 L-651921 324940 L-651418 324939 L-650868 324937 L-650080 324936 L-648957 324936 L-648062 324935 L-647974 324935 L-647675 324933 L-647603 324932 L-647487 324930 L-646311 324929 L-645962 324927 L-645940 324926 L-645421 324924 L-645274 324923 L-645166 324921 L-644956 324920 L-644802 324918 L-644779 324917 L-644585 324915 L-644508 324914 L-644365 324912 L-643564 324911 L-643418 324909 L-643138 324908 L-642961 324906 L-642651 324905 L-641839 324903 L-640911 324903 L-639319 324902 L-639076 324900 L-638435 324899 L-638239 324897 L-638161 324896 L-637644 324894 L-637412 324894 L-637389 324893 L-637257 324893 L-636918 324891 L-636907 324890 L-636690 324888 L-636653 324887 L-636112 324885 L-635583 324882 L-635515 324881 L-635222 324879 L-634674 324876 L-634639 324875 L-634586 324873 L-634487 324870 L-634255 324870 L-633675 324870 L-633577 324872 L-633503 324872 L-633171 324870 L-632421 324869 L-632382 324867 L-631702 324867 L-631547 324867 L-631221 324866 L-631005 324864 L-630774 324864 L-630477 324863 L-630231 324861 L-629880 324860 L-629827 324858 L-629067 324857 L-628374 324854 L-628024 324851 L-627560 324849 L-626926 324848 L-626518 324847 L-626440 324848 L-626014 324848 L-625371 324847 L-625202 324847 L-624460 324845 L-624273 324844 L-623977 324842 L-623406 324841 L-623380 324839 L-622361 324839 L-621874 324838 L-621781 324838 L-621720 324836 L-621432 324835 L-621146 324833 L-621084 324832 L-620904 324832 L-620193 324830 L-620017 324829 L-619819 324827 L-619667 324826 L-619575 324824 L-619514 324823 L-618972 324823 L-618661 324821 L-618569 324818 L-618492 324815 L-617925 324814 L-617834 324814 L-617579 324811 L-617252 324808 L-617215 324803 L-617060 324799 L-616828 324797 L-616506 324796 L-615374 324794 L-615175 324793 L-614649 324791 L-614404 324791 L-614159 324790 L-614079 324788 L-614059 324785 L-613982 324784 L-613926 324781 L-613849 324779 L-613810 324778 L-613631 324775 L-613594 324773 L-613363 324772 L-612125 324770 L-611798 324769 L-611759 324766 L-610977 324764 L-610830 324763 L-609839 324761 L-609632 324761 L-609206 324761 L-609079 324761 L-608675 324763 L-608587 324761 L-607930 324760 L-607222 324759 L-606614 324757 L-606421 324756 L-606188 324753 L-605569 324751 L-605274 324748 L-604834 324747 L-604680 324745 L-604524 324744 L-603768 324741 L-603418 324739 L-603016 324739 L-602977 324738 L-601971 324738 L-601651 324738 L-601405 324736 L-600705 324733 L-600631 324732 L-600319 324730 L-599239 324729 L-599047 324727 L-598814 324727 L-598619 324726 L-598119 324724 L-597365 324724 L-597251 324724 L-597051 324724 L-597010 324723 L-596917 324721 L-596604 324720 L-596516 324718 L-596400 324717 L-596082 324717 L-596013 324715 L-595988 324714 L-595626 324712 L-595587 324711 L-595371 324709 L-594868 324711 L-594265 324712 L-594054 324715 L-593901 324717 L-593863 324717 L-593819 324714 L-593784 324712 L-593651 324711 L-593242 324709 L-592871 324708 L-592818 324706 L-592802 324705 L-592723 324703 L-592313 324702 L-592160 324700 L-592144 324697 L-592104 324696 L-591926 324693 L-591850 324691 L-591618 324690 L-590829 324688 L-590751 324688 L-590016 324685 L-589860 324684 L-589621 324681 L-589559 324678 L-589474 324676 L-589451 324673 L-589333 324671 L-589319 324668 L-589257 324665 L-589220 324663 L-589125 324662 L-589103 324662 L-588987 324660 L-588754 324659 L-588584 324656 L-587764 324656 L-587363 324654 L-587208 324654 L-586703 324654 L-586589 324654 L-585992 324654 L-585618 324653 L-585566 324653 L-585372 324651 L-584676 324651 L-584637 324650 L-584493 324650 L-584267 324648 L-584006 324647 L-583632 324645 L-583206 324644 L-583077 324642 L-583057 324639 L-582564 324639 L-581867 324638 L-581636 324639 L-581482 324639 L-580513 324639 L-580289 324641 L-580011 324641 L-579995 324639 L-579469 324638 L-578940 324636 L-578792 324635 L-578773 324633 L-578231 324632 L-577921 324630 L-577803 324627 L-577612 324624 L-577475 324621 L-577148 324620 L-577031 324618 L-576722 324618 L-576296 324617 L-576240 324617 L-576007 324618 L-575911 324618 L-575778 324618 L-575481 324618 L-575367 324617 L-575003 324615 L-574690 324615 L-574207 324614 L-574037 324612 L-573789 324611 L-573573 324609 L-573047 324608 L-572860 324605 L-572505 324603 L-571870 324602 L-571715 324599 L-570974 324597 L-570555 324596 L-570375 324594 L-570298 324594 L-570167 324593 L-569874 324591 L-569833 324590 L-569603 324590 L-569410 324588 L-569155 324588 L-568729 324587 L-568620 324586 L-568001 324586 L-567820 324586 L-566608 324586 L-565961 324587 L-565810 324587 L-565773 324587 L-565641 324587 L-565540 324586 L-565524 324584 L-565442 324583 L-565231 324581 L-565114 324580 L-564751 324578 L-564379 324577 L-563683 324575 L-563280 324574 L-563176 324572 L-563158 324571 L-562213 324569 L-562018 324566 L-561866 324565 L-561810 324562 L-561054 324562 L-561037 324565 L-560548 324566 L-560418 324569 L-560225 324569 L-559334 324568 L-559295 324566 L-559257 324565 L-559180 324563 L-559141 324563 L-559064 324562 L-558980 324560 L-558716 324559 L-558483 324557 L-558421 324556 L-557941 324554 L-557604 324554 L-557493 324553 L-557299 324551 L-557123 324550 L-557064 324550 L-557027 324548 L-556758 324547 L-556060 324544 L-556007 324541 L-555713 324538 L-555311 324535 L-554747 324533 L-553873 324532 L-553569 324530 L-553531 324529 L-553408 324527 L-552810 324526 L-552680 324524 L-552480 324523 L-552442 324521 L-551828 324520 L-551650 324518 L-551635 324515 L-551417 324514 L-551339 324511 L-551032 324511 L-550900 324509 L-550668 324509 L-550333 324509 L-550242 324508 L-550141 324506 L-550104 324505 L-549560 324505 L-549368 324503 L-548827 324502 L-548401 324500 L-548269 324500 L-548207 324500 L-547976 324500 L-547960 324500 L-547471 324502 L-547391 324502 L-547373 324502 L-545980 324503 L-545845 324503 L-545731 324502 L-545096 324500 L-544957 324499 L-544839 324498 L-544685 324495 L-544648 324493 L-544570 324492 L-544516 324493 L-543524 324493 L-543487 324492 L-543354 324492 L-543294 324489 L-543195 324487 L-542904 324486 L-542891 324484 L-542581 324484 L-542481 324486 L-542016 324484 L-541962 324642 L-541820 324799 L-541692 324957 L-541460 325115 L-540891 325113 L-540802 325112 L-540779 325112 L-540492 325111 L-539810 325109 L-539732 325108 L-539696 325106 L-539680 325105 L-539480 325103 L-539060 325100 L-538789 325100 L-537916 325099 L-537623 325099 L-537512 325099 L-536778 325097 L-536651 325096 L-536291 325094 L-536039 325094 L-535167 325093 L-534998 325093 L-534937 325091 L-534882 325090 L-534534 325088 L-534511 325087 L-534302 325085 L-534161 325084 L-534031 325082 L-533908 325081 L-533785 325079 L-533548 325078 L-533257 325076 L-532598 325075 L-532576 325073 L-532421 325072 L-532304 325070 L-531340 325069 L-531284 325067 L-531051 325066 L-531029 325064 L-530703 325063 L-530587 325063 L-530548 325061 L-530046 325061 L-529747 325060 L-529635 325058 L-529093 325057 L-528034 325055 L-527408 325054 L-527236 325052 L-526988 325051 L-526732 325049 L-526601 325048 L-526580 325046 L-525912 325045 L-525016 325043 L-524970 325042 L-524900 325040 L-524784 325040 L-524564 325039 L-524373 325039 L-524333 325037 L-524141 325036 L-523482 325036 L-522865 325034 L-522826 325043 L-522230 325052 L-522168 325060 L-521046 325067 L-520991 325067 L-520870 325066 L-520605 325064 L-520541 325064 L-520272 325064 L-520196 325063 L-519980 325063 L-519497 325061 L-519227 325060 L-519096 325060 L-518864 325057 L-518839 325052 L-518824 325046 L-518801 325039 L-518786 325031 L-518762 325024 L-518748 325015 L-518724 325006 L-518709 324997 L-518686 324990 L-518671 324982 L-518648 324975 L-518632 324970 L-518604 324966 L-518586 324960 L-518568 324957 L-518532 324952 L-518492 324949 L-518477 324946 L-518452 324942 L-518400 324939 L-518375 324936 L-518298 324933 L-518261 324932 L-518245 324929 L-518182 324926 L-518168 324923 L-518122 324918 L-518051 324915 L-518012 324914 L-517988 324911 L-517936 324908 L-517911 324906 L-517895 324905 L-517833 324903 L-517796 324902 L-517719 324900 L-517704 324899 L-517676 324896 L-517603 324894 L-517563 324893 L-517410 324890 L-517293 324888 L-517239 324887 L-517157 324885 L-517123 324884 L-517099 324882 L-516945 324881 L-516930 324879 L-516828 324878 L-516518 324876 L-516481 324875 L-516266 324873 L-516155 324873 L-516130 324873 L-515900 324875 L-515668 324875 L-515293 324873 L-515165 324872 L-515125 324870 L-515073 324869 L-514972 324867 L-514935 324866 L-514724 324866 L-514660 324864 L-514547 324864 L-514336 324863 L-514299 324861 L-513927 324860 L-513873 324858 L-513794 324857 L-513773 324855 L-513680 324854 L-513480 324852 L-513442 324852 L-513420 324852 L-513190 324852 L-513170 324851 L-512960 324851 L-512865 324849 L-512828 324848 L-512491 324847 L-512379 324845 L-512339 324844 L-512325 324844 L-512186 324842 L-512171 324842 L-511916 324842 L-511333 324841 L-511257 324839 L-511219 324838 L-511175 324836 L-511126 324835 L-510946 324833 L-510932 324832 L-510832 324830 L-510754 324829 L-510694 324827 L-510328 324824 L-510246 324823 L-510228 324821 L-510175 324820 L-509206 324818 L-509075 324817 L-509053 324815 L-508833 324814 L-508764 324812 L-508742 324811 L-508495 324809 L-508239 324808 L-508108 324806 L-508069 324805 L-508047 324802 L-507992 324799 L-507904 324797 L-507843 324794 L-507618 324793 L-507488 324791 L-507389 324790 L-507334 324788 L-507141 324787 L-507063 324785 L-506730 324784 L-506599 324782 L-506421 324781 L-506406 324779 L-506381 324778 L-506111 324778 L-504910 324776 L-504874 324776 L-504757 324775 L-504524 324773 L-504333 324772 L-504294 324772 L-504238 324770 L-504134 324770 L-503620 324769 L-503326 324767 L-503094 324766 L-502819 324764 L-502802 324763 L-502769 324761 L-502729 324760 L-502691 324759 L-502590 324757 L-502513 324756 L-502420 324754 L-502293 324753 L-502189 324751 L-502010 324751 L-501818 324750 L-500989 324750 L-500873 324748 L-500618 324747 L-500578 324745 L-500479 324744 L-500419 324744 L-500176 324742 L-500153 324742 L-500032 324741 L-499960 324739 L-499921 324738 L-499689 324736 L-499513 324735 L-498993 324733 L-498916 324732 L-498900 324730 L-498489 324730 L-498126 324730 L-498010 324729 L-497987 324729 L-497947 324727 L-497870 324726 L-497817 324724 L-497468 324723 L-497352 324721 L-497175 324721 L-497119 324720 L-497096 324720 L-496982 324718 L-496694 324717 L-496462 324715 L-496247 324714 L-496037 324712 L-495826 324709 L-495000 324708 L-494660 324706 L-493653 324705 L-493290 324703 L-492244 324702 L-492167 324700 L-491720 324699 L-491508 324697 L-491317 324696 L-491022 324694 L-490981 324693 L-490828 324691 L-490775 324688 L-490543 324687 L-489962 324685 L-489768 324684 L-489149 324684 L-488660 324682 L-488608 324681 L-487960 324679 L-487810 324678 L-487640 324676 L-487267 324675 L-487252 324675 L-487153 324673 L-487114 324673 L-486983 324672 L-486550 324672 L-486247 324672 L-485861 324672 L-485721 324671 L-485560 324671 L-485126 324671 L-485087 324669 L-484986 324669 L-484871 324668 L-484693 324668 L-484522 324666 L-484404 324665 L-484043 324662 L-483825 324660 L-483693 324659 L-483553 324659 L-483054 324659 L-482976 324659 L-482742 324657 L-482418 324657 L-482031 324656 L-482008 324654 L-481388 324654 L-481118 324653 L-480885 324653 L-480460 324651 L-480188 324650 L-480047 324648 L-479838 324647 L-479632 324645 L-479081 324644 L-478950 324644 L-478563 324642 L-478293 324642 L-478190 324641 L-477930 324639 L-477728 324638 L-477659 324636 L-477620 324635 L-477053 324633 L-476846 324632 L-476819 324630 L-476590 324629 L-476512 324627 L-475995 324626 L-475957 324624 L-475801 324623 L-475508 324621 L-475236 324620 L-474872 324618 L-474524 324618 L-474152 324617 L-474032 324617 L-473960 324615 L-473480 324614 L-473418 324612 L-473083 324611 L-472952 324609 L-472874 324608 L-472745 324606 L-472281 324606 L-471987 324605 L-471910 324605 L-471599 324603 L-471291 324602 L-471227 324600 L-471198 324599 L-470423 324597 L-470318 324594 L-470230 324593 L-470207 324591 L-470053 324590 L-469832 324588 L-469665 324587 L-469278 324586 L-469223 324584 L-469160 324584 L-468542 324583 L-468426 324581 L-468102 324580 L-467577 324578 L-467226 324577 L-467150 324575 L-466531 324574 L-466120 324572 L-465819 324571 L-465508 324569 L-465370 324568 L-464746 324568 L-464364 324566 L-463241 324566 L-462180 324565 L-462118 324563 L-461757 324562 L-461656 324562 L-461640 324560 L-461266 324560 L-460261 324557 L-459874 324556 L-459667 324553 L-459578 324551 L-459202 324550 L-458910 324548 L-458598 324547 L-457809 324545 L-457722 324544 L-457669 324542 L-457631 324541 L-457113 324539 L-456998 324538 L-456789 324536 L-456650 324535 L-456046 324533 L-455217 324532 L-454934 324530 L-454752 324530 L-454250 324529 L-454045 324529 L-453491 324529 L-452986 324527 L-452795 324526 L-452756 324524 L-452127 324523 L-451674 324521 L-451260 324520 L-450651 324518 L-449531 324518 L-449117 324517 L-448793 324517 L-448578 324515 L-448151 324514 L-448011 324512 L-447920 324511 L-447689 324509 L-447102 324509 L-446294 324508 L-445095 324508 L-444981 324508 L-444849 324506 L-444761 324505 L-444719 324506 L-444699 324508 L-444688 324511 L-444593 324514 L-443830 324514 L-443124 324514 L-443084 324512 L-442798 324511 L-442257 324509 L-442195 324508 L-442155 324506 L-442141 324505 L-441884 324503 L-441560 324502 L-441420 324500 L-441150 324499 L-441111 324498 L-441003 324496 L-440602 324495 L-440492 324493 L-440415 324492 L-440118 324490 L-440075 324489 L-439857 324489 L-439674 324489 L-439563 324489 L-439549 324487 L-439522 324487 L-439098 324486 L-438852 324484 L-438516 324483 L-438481 324481 L-438347 324480 L-438093 324480 L-437939 324478 L-437032 324478 L-436933 324477 L-436738 324474 L-435731 324472 L-435230 324471 L-435152 324469 L-435114 324468 L-434906 324466 L-434787 324465 L-434689 324463 L-434503 324462 L-434338 324460 L-434102 324459 L-433682 324457 L-433667 324456 L-433358 324454 L-432312 324453 L-432095 324451 L-432079 324450 L-432057 324448 L-431848 324447 L-431689 324445 L-431631 324444 L-430186 324442 L-429860 324442 L-429658 324442 L-429459 324442 L-429309 324442 L-429038 324441 L-428598 324439 L-428380 324439 L-427685 324438 L-427183 324436 L-426858 324435 L-426587 324435 L-425866 324433 L-425711 324433 L-424513 324430 L-424124 324429 L-424008 324426 L-423855 324424 L-423701 324423 L-422731 324421 L-422679 324420 L-422431 324418 L-422409 324417 L-422189 324415 L-421751 324412 L-421611 324410 L-421504 324407 L-421302 324405 L-421184 324404 L-421082 324402 L-421068 324402 L-420935 324401 L-420681 324399 L-420063 324398 L-419404 324396 L-419158 324396 L-418965 324395 L-418206 324395 L-418167 324395 L-418089 324393 L-418037 324390 L-417997 324389 L-417959 324387 L-417920 324386 L-417829 324384 L-417785 324383 L-417726 324380 L-417702 324378 L-417587 324377 L-417278 324374 L-417223 324372 L-417201 324371 L-416859 324369 L-416694 324368 L-416658 324365 L-416618 324363 L-416603 324362 L-416371 324360 L-416231 324359 L-416063 324357 L-415613 324357 L-415380 324357 L-415287 324357 L-415267 324359 L-414786 324357 L-414709 324357 L-414582 324356 L-414452 324353 L-414073 324351 L-413832 324348 L-413794 324347 L-413741 324345 L-413602 324342 L-413563 324341 L-413523 324339 L-413293 324338 L-413253 324336 L-413123 324335 L-412944 324333 L-412903 324332 L-412889 324330 L-412725 324329 L-412710 324327 L-412557 324326 L-412542 324324 L-412516 324323 L-412482 324322 L-412260 324319 L-412037 324319 L-411783 324317 L-411651 324319 L-411009 324319 L-410402 324317 L-409382 324317 L-409189 324316 L-409138 324314 L-409013 324313 L-408688 324311 L-407915 324310 L-407858 324308 L-407744 324307 L-407332 324305 L-407007 324304 L-406869 324302 L-406645 324301 L-406119 324299 L-405718 324299 L-405686 324298 L-405400 324298 L-405114 324296 L-404726 324295 L-404510 324293 L-404083 324290 L-403901 324289 L-403565 324287 L-403458 324286 L-403272 324286 L-403155 324284 L-403141 324284 L-402420 324283 L-402250 324281 L-402002 324280 L-401902 324278 L-401259 324277 L-400971 324275 L-400781 324274 L-400506 324272 L-400189 324271 L-399904 324269 L-399790 324266 L-399745 324265 L-399543 324263 L-397934 324262 L-397722 324260 L-397041 324259 L-396959 324257 L-396730 324256 L-396540 324256 L-396401 324254 L-396382 324254 L-396189 324254 L-395959 324254 L-395767 324254 L-394683 324253 L-394487 324253 L-394434 324253 L-394281 324253 L-394173 324253 L-394007 324253 L-393854 324251 L-393739 324250 L-393615 324247 L-393198 324245 L-392941 324242 L-392848 324241 L-392655 324241 L-392594 324239 L-392268 324239 L-392207 324239 L-392150 324238 L-391881 324236 L-391533 324235 L-391354 324234 L-391160 324232 L-391124 324234 L-390411 324234 L-390372 324236 L-390062 324238 L-389765 324239 L-389715 324241 L-389459 324242 L-389189 324244 L-389133 324244 L-388042 324244 L-388012 324242 L-387971 324242 L-387795 324242 L-387602 324241 L-386744 324241 L-385691 324239 L-385630 324238 L-385281 324236 L-384468 324236 L-383655 324236 L-383640 324236 L-383265 324236 L-383096 324236 L-382828 324236 L-382500 324235 L-382378 324234 L-382322 324234 L-382286 324232 L-382209 324232 L-381992 324231 L-381933 324229 L-381617 324228 L-381450 324226 L-381086 324226 L-380893 324226 L-380869 324226 L-380792 324225 L-380311 324225 L-380174 324225 L-379760 324223 L-379461 324223 L-379362 324222 L-379346 324220 L-379317 324219 L-378958 324217 L-378608 324216 L-378471 324214 L-378434 324214 L-377617 324213 L-377411 324211 L-377387 324210 L-377230 324210 L-377141 324208 L-376899 324208 L-376575 324207 L-376483 324207 L-376287 324205 L-376001 324205 L-375245 324204 L-375116 324202 L-375042 324201 L-374429 324199 L-374254 324198 L-374143 324196 L-374043 324195 L-373964 324193 L-373827 324192 L-373673 324192 L-373594 324192 L-373403 324192 L-372730 324192 L-372691 324190 L-372588 324189 L-371645 324187 L-371624 324186 L-371272 324184 L-370807 324183 L-370772 324181 L-370343 324180 L-370291 324180 L-369880 324178 L-369863 324178 L-369767 324178 L-369712 324178 L-369673 324178 L-369378 324177 L-367640 324175 L-366130 324174 L-365622 324172 L-365124 324171 L-364990 324169 L-364900 324168 L-364772 324166 L-364693 324163 L-364388 324162 L-364117 324160 L-363883 324160 L-362684 324159 L-362579 324159 L-362514 324157 L-361672 324156 L-361486 324154 L-360575 324153 L-359706 324150 L-359418 324148 L-359326 324146 L-358777 324144 L-358257 324143 L-357188 324141 L-356920 324140 L-356766 324140 L-356673 324140 L-356543 324141 L-356496 324143 L-356336 324143 L-355470 324143 L-355136 324143 L-354752 324141 L-354000 324140 L-353940 324138 L-353551 324138 L-353229 324138 L-353072 324137 L-352340 324137 L-352278 324137 L-351990 324137 L-351616 324137 L-351435 324137 L-351179 324135 L-350918 324132 L-350765 324131 L-350362 324129 L-349065 324128 L-348949 324126 L-348486 324125 L-347154 324123 L-346729 324122 L-346705 324120 L-346572 324119 L-346397 324117 L-346263 324117 L-345933 324116 L-345546 324114 L-345506 324113 L-345490 324110 L-345100 324108 L-344808 324107 L-344539 324107 L-344366 324107 L-342872 324107 L-342822 324105 L-342744 324107 L-341504 324108 L-341429 324108 L-341402 324111 L-341156 324110 L-340998 324110 L-340940 324108 L-340052 324108 L-339824 324107 L-339300 324107 L-339159 324108 L-339083 324108 L-338387 324110 L-338139 324110 L-337459 324108 L-337441 324108 L-337187 324107 L-336819 324107 L-336684 324105 L-336062 324102 L-335719 324101 L-335671 324099 L-335184 324098 L-334850 324095 L-334633 324095 L-334499 324093 L-334178 324092 L-334113 324092 L-333861 324090 L-333572 324089 L-333262 324087 L-333122 324086 L-332583 324084 L-332307 324083 L-331577 324081 L-331524 324081 L-331417 324081 L-331151 324081 L-330727 324081 L-330462 324080 L-330243 324078 L-330222 324077 L-329991 324075 L-329704 324074 L-329681 324074 L-329666 324072 L-329294 324072 L-329122 324071 L-329046 324068 L-328985 324066 L-328684 324063 L-328443 324060 L-328351 324059 L-328094 324058 L-328041 324056 L-327845 324055 L-327629 324056 L-327206 324056 L-327113 324058 L-326973 324056 L-326108 324055 L-325735 324053 L-325407 324050 L-325254 324049 L-324827 324049 L-324109 324047 L-323915 324047 L-323560 324046 L-323414 324044 L-322907 324041 L-322671 324040 L-321704 324038 L-321694 324037 L-320629 324035 L-320396 324034 L-319994 324032 L-319800 324031 L-319720 324029 L-319624 324028 L-318887 324028 L-318755 324028 L-318365 324028 L-318343 324026 L-318248 324026 L-318112 324025 L-318095 324023 L-318075 324022 L-316390 324020 L-316372 324020 L-316255 324019 L-316171 324019 L-316046 324019 L-316022 324017 L-315738 324016 L-315632 324014 L-315443 324011 L-315173 324010 L-314501 324008 L-314129 324007 L-313277 324007 L-313220 324005 L-313200 324005 L-312967 324005 L-312692 324004 L-312387 324004 L-312347 324001 L-312116 324001 L-311879 323999 L-311266 323998 L-311225 323996 L-311188 323993 L-310666 323992 L-310475 323990 L-310414 323989 L-310372 323987 L-310049 323987 L-310021 323986 L-310007 323986 L-309522 323984 L-309468 323983 L-309330 323981 L-309292 323980 L-309275 323978 L-309180 323977 L-308515 323977 L-307899 323975 L-307629 323975 L-307221 323975 L-307201 323974 L-307185 323974 L-307072 323972 L-306685 323971 L-306218 323971 L-306157 323970 L-306079 323968 L-306064 323967 L-305578 323964 L-305538 323962 L-305393 323962 L-305343 323961 L-305265 323962 L-304632 323961 L-304542 323961 L-304301 323961 L-304184 323959 L-303856 323959 L-303102 323958 L-303085 323958 L-302134 323958 L-301824 323956 L-301399 323955 L-300686 323953 L-300367 323952 L-300352 323950 L-300201 323947 L-299898 323946 L-299820 323944 L-299693 323943 L-299256 323943 L-299195 323943 L-298672 323943 L-298404 323943 L-298266 323941 L-298188 323940 L-298149 323938 L-297338 323938 L-297297 323938 L-296857 323938 L-296779 323938 L-296521 323937 L-296331 323935 L-295702 323934 L-295515 323932 L-295480 323929 L-295324 323928 L-294923 323925 L-294846 323923 L-294665 323922 L-294474 323920 L-293545 323917 L-293395 323916 L-292187 323914 L-291378 323913 L-290974 323911 L-290372 323910 L-290170 323908 L-290101 323907 L-289943 323905 L-289681 323904 L-289308 325240 L-289290 325239 L-289133 325239 L-287935 325239 L-286831 323901 L-285903 323899 L-285789 323898 L-285504 323896 L-285402 323895 L-285378 323895 L-285188 323892 L-285110 323890 L-284914 323890 L-284202 323890 L-284045 323892 L-282988 323892 L-282563 323892 L-282153 323890 L-281866 323887 L-281692 323886 L-281460 323884 L-281206 323883 L-280764 323882 L-280103 323880 L-279927 323879 L-279622 323877 L-279235 323876 L-279215 323874 L-279196 323873 L-279174 323871 L-279041 323870 L-278848 323868 L-277205 323867 L-275908 323865 L-275869 323864 L-275811 323862 L-275710 323861 L-275151 323859 L-274167 323858 L-273624 323855 L-273161 323853 L-272515 323852 L-271966 323850 L-270916 323849 L-269988 323847 L-269640 323846 L-269446 323844 L-268944 323843 L-268498 323843 L-268356 323841 L-268335 323841 L-267763 323841 L-267378 323838 L-266545 323837 L-266196 323835 L-266174 323834 L-265787 323834 L-265364 323832 L-264765 323831 L-264746 323829 L-264240 323829 L-264008 323828 L-263895 323828 L-263276 323825 L-262714 323823 L-262674 323822 L-262115 323820 L-261782 323819 L-261670 323819 L-261631 323817 L-261206 323817 L-261146 323817 L-261071 323816 L-260780 323816 L-260567 323814 L-260083 323811 L-259869 323810 L-258729 323808 L-258670 323807 L-258652 323805 L-258246 323804 L-257607 323802 L-257472 323801 L-257414 323799 L-256872 323798 L-256563 323796 L-256312 323796 L-256236 323795 L-256117 323794 L-255383 323791 L-254938 323789 L-254724 323788 L-253990 323786 L-253815 323785 L-253450 323785 L-253235 323785 L-251997 323785 L-251688 323785 L-251571 323785 L-251318 323783 L-251107 323782 L-250565 323780 L-250333 323779 L-250276 323779 L-250179 323777 L-249849 323777 L-249617 323776 L-247955 323774 L-247604 323773 L-247200 323770 L-247045 323768 L-246252 323767 L-244762 323765 L-244375 323764 L-244336 323762 L-244083 323761 L-243988 323759 L-243795 323758 L-243446 323758 L-242750 323756 L-242499 323756 L-241783 323755 L-240371 323753 L-240139 323752 L-239809 323752 L-238593 323752 L-238241 323753 L-238049 323755 L-237931 323756 L-235496 323756 L-234527 323755 L-233696 323753 L-233387 323752 L-232045 323750 L-231472 323749 L-231356 323747 L-231027 323747 L-230931 323746 L-230523 323746 L-230408 323744 L-230217 323743 L-229461 323741 L-229335 323740 L-229054 323738 L-228551 323737 L-228474 323735 L-226887 323743 L-226829 323750 L-226087 323759 L-225707 323767 L-225378 323765 L-224715 323764 L-224585 323762 L-224545 323762 L-224295 323762 L-224159 323762 L-223966 323761 L-223831 323761 L-223579 323758 L-223367 323758 L-223057 323756 L-222785 323756 L-222283 323756 L-222264 323756 L-221830 323755 L-221604 323753 L-221161 323752 L-221142 323750 L-220639 323749 L-220501 323747 L-220387 323746 L-220155 323744 L-219845 323743 L-219380 323741 L-219303 323740 L-218801 323738 L-218530 323737 L-218192 323735 L-218007 323734 L-217331 323732 L-217312 323732 L-217137 323731 L-217117 323729 L-216499 323728 L-215783 323726 L-215221 323725 L-215026 323725 L-214873 323723 L-214854 323723 L-214331 323720 L-214216 323719 L-213345 323717 L-213324 323716 L-213267 323714 L-212436 323713 L-212126 323711 L-212050 323710 L-211778 323708 L-211715 323708 L-211664 323706 L-211353 323703 L-210736 323700 L-209960 323698 L-209167 323697 L-209128 323695 L-209051 323694 L-208879 323692 L-208001 323691 L-207116 323689 L-207021 323688 L-206902 323686 L-206572 323685 L-206536 323685 L-206304 323683 L-206070 323683 L-205355 323680 L-204853 323679 L-204187 323677 L-204079 323676 L-203925 323674 L-203905 323673 L-203750 323671 L-203335 323670 L-202724 323668 L-202589 323667 L-201681 323665 L-201478 323664 L-200926 323662 L-198276 323661 L-198101 323659 L-198023 323656 L-197152 323655 L-196688 323653 L-196206 323652 L-196167 323649 L-195586 323647 L-195566 323646 L-194464 323644 L-193043 323643 L-192625 323641 L-192318 323640 L-192240 323638 L-192164 323637 L-192007 323635 L-191931 323634 L-191466 323632 L-190228 323631 L-189977 323629 L-189532 323628 L-188910 323626 L-188854 323625 L-188661 323625 L-188196 323623 L-187905 323620 L-187864 323618 L-187828 323615 L-187675 323612 L-187497 323610 L-186359 323607 L-185971 323606 L-185914 323604 L-185740 323603 L-183223 323600 L-182063 323598 L-181426 323597 L-181287 323595 L-181155 323592 L-180767 323591 L-180304 323589 L-180093 323586 L-180027 323585 L-179994 323583 L-179240 323582 L-178658 323580 L-178466 323579 L-177847 323577 L-177801 323576 L-177441 323574 L-177335 323573 L-177150 323571 L-176873 323570 L-175969 323568 L-174964 323567 L-174229 323565 L-173804 323564 L-173643 323562 L-173280 323561 L-173183 323559 L-172740 323558 L-172664 323556 L-172312 323556 L-172063 323553 L-172043 323550 L-171869 323547 L-170921 323543 L-170807 323541 L-170244 323540 L-169794 323538 L-169409 323537 L-168498 323535 L-168443 323534 L-167304 323532 L-166723 323530 L-166548 323528 L-165755 323525 L-165523 323524 L-165137 323522 L-164866 323521 L-164731 323519 L-164615 323518 L-163996 323518 L-163938 323518 L-163723 323518 L-163428 323518 L-162640 323516 L-162500 323516 L-161112 323515 L-160765 323515 L-160378 323513 L-160317 323510 L-160280 323509 L-160224 323507 L-159580 323506 L-158889 323504 L-158637 323504 L-158301 323503 L-158212 323503 L-157691 323501 L-157438 323500 L-157222 323497 L-156839 323495 L-156679 323494 L-156140 323491 L-155328 323489 L-155309 323488 L-155193 323488 L-155049 323486 L-154668 323486 L-154476 323486 L-154420 323485 L-154120 323483 L-154054 323482 L-153858 323480 L-153491 323479 L-153429 323477 L-153126 323476 L-153080 323476 L-153027 323474 L-152389 323474 L-152369 323473 L-151884 323471 L-151402 323473 L-151033 323473 L-150666 323474 L-150532 323474 L-150378 323473 L-150308 323471 L-149660 323471 L-149640 323470 L-149500 323470 L-149015 323468 L-148732 323468 L-148674 323467 L-148616 323467 L-148306 323465 L-148152 323464 L-147668 323464 L-146895 323464 L-146255 323464 L-146157 323462 L-145095 323462 L-145074 323461 L-144609 325261 L-144592 325261 L-144419 325261 L-143906 325261 L-141552 323459 L-140607 323458 L-139888 323456 L-139348 323453 L-138651 323452 L-138334 323450 L-137686 323449 L-137178 323447 L-137144 323446 L-137102 323444 L-136756 323443 L-136061 323442 L-135864 323440 L-135848 323437 L-135732 323436 L-135450 323434 L-134553 323431 L-134506 323430 L-134140 323427 L-134123 323425 L-134068 323424 L-133875 323422 L-133739 323421 L-133664 323419 L-133430 323418 L-132889 323416 L-132848 323415 L-132811 323413 L-132786 323412 L-132150 323409 L-131608 323407 L-130443 323406 L-130083 323404 L-128806 323404 L-128767 323403 L-128729 323403 L-128514 323401 L-128323 323400 L-128246 323398 L-128092 323397 L-128053 323395 L-126964 323394 L-126640 323394 L-126426 323392 L-126165 323392 L-125672 323392 L-125650 323398 L-125233 323404 L-125092 323409 L-125032 323415 L-124955 323415 L-124744 323413 L-123449 323413 L-123173 323412 L-122549 323410 L-121158 323409 L-121085 323407 L-121047 323404 L-120854 323403 L-120464 323401 L-120157 323400 L-120101 323398 L-119785 323398 L-119735 323398 L-119696 323397 L-119651 323395 L-119018 323394 L-118244 323392 L-117805 323391 L-117663 325207 L-117640 325206 L-117623 327023 L-117598 327023 L-117181 325206 L-116977 325204 L-116828 323386 L-116750 323385 L-116696 323383 L-115899 323383 L-115882 323383 L-115019 323383 L-114815 323383 L-114528 323382 L-114412 323380 L-113887 323379 L-113710 323377 L-113406 323376 L-113019 323374 L-112959 323371 L-112903 323370 L-112749 323368 L-111704 323367 L-111142 323367 L-110906 323365 L-110869 323365 L-110600 323365 L-110194 323364 L-108725 323362 L-106984 323361 L-106597 323359 L-106365 323358 L-106266 323356 L-106171 323355 L-106016 323352 L-105453 323352 L-105371 323351 L-105204 323351 L-104662 323352 L-103477 323352 L-103463 323352 L-103403 323352 L-103252 323351 L-102767 323349 L-102120 323348 L-101414 323345 L-101297 323343 L-100330 323342 L-100285 323340 L-99595 323340 L-99538 323339 L-99460 323339 L-99440 323337 L-99419 323336 L-99204 323334 L-98491 323334 L-98101 323333 L-98064 323331 L-98047 323330 L-97989 323328 L-97562 323327 L-97348 323325 L-97273 323322 L-97195 323321 L-97080 323319 L-97015 323319 L-96886 323318 L-96827 323318 L-96752 323315 L-96673 323313 L-96244 323312 L-95519 323310 L-95505 323307 L-95338 323306 L-95122 323303 L-95107 323300 L-94526 323298 L-94255 323297 L-93966 323295 L-93536 323294 L-93383 323292 L-93326 323291 L-93150 323289 L-91754 323288 L-91489 323285 L-90596 323282 L-90070 323280 L-89051 323277 L-88970 323276 L-88506 323274 L-87887 323274 L-87600 323273 L-87347 323273 L-87195 323271 L-86847 323270 L-86130 323268 L-85569 323267 L-84680 323266 L-84371 323266 L-84080 323266 L-83228 323266 L-83207 323266 L-82550 323266 L-82047 323263 L-81836 323261 L-81816 323260 L-81487 323258 L-81428 323258 L-81042 323258 L-80056 323258 L-79495 323258 L-79398 323258 L-79089 323257 L-79012 323257 L-77977 323255 L-77847 323254 L-77790 323252 L-77155 323251 L-77096 323249 L-77020 323248 L-75607 323246 L-75470 323245 L-75336 323243 L-74850 323242 L-74601 323240 L-74310 323239 L-74098 323237 L-73440 323236 L-72872 323233 L-72783 323231 L-72643 323230 L-72569 323228 L-71404 323228 L-71372 323227 L-70942 323227 L-70925 323225 L-70751 323224 L-69223 323222 L-69139 323224 L-68333 323224 L-68140 323224 L-68118 323224 L-67265 323222 L-67071 323221 L-66438 323219 L-66262 323218 L-66143 323216 L-66089 323216 L-66068 323216 L-66012 323216 L-65624 323216 L-65180 323216 L-65101 323215 L-64904 323215 L-64843 323213 L-64580 323212 L-64232 323212 L-64116 323210 L-62968 323210 L-62683 323209 L-62238 323207 L-61035 323206 L-60905 323204 L-60595 323203 L-60167 323201 L-58870 323200 L-58560 324951 L-58544 324951 L-58498 324985 L-58448 324985 L-57520 323231 L-57190 323231 L-56641 323195 L-56514 323194 L-56068 323192 L-54535 323191 L-54366 323189 L-54095 323188 L-54071 323185 L-53166 323183 L-53051 323182 L-52583 323180 L-52561 323179 L-52488 323178 L-52290 323176 L-52138 323175 L-51671 323173 L-51020 323172 L-50534 323170 L-49984 323170 L-48962 323170 L-48656 323170 L-48601 323170 L-48001 323169 L-47571 323167 L-47497 323167 L-47479 323166 L-47258 323166 L-46954 323164 L-46872 323163 L-46568 323163 L-45968 323161 L-45832 323160 L-45562 323158 L-45348 323157 L-45173 323157 L-44964 323157 L-44942 323157 L-44693 323175 L-44244 323192 L-44227 323210 L-43782 323228 L-42574 323228 L-42372 323227 L-41443 323227 L-41382 323225 L-41347 323224 L-40322 323222 L-40205 323222 L-40185 323221 L-40031 323221 L-40012 323221 L-39601 323219 L-39585 323219 L-39547 323218 L-39237 323216 L-39083 323215 L-38878 323215 L-38480 323213 L-37497 323213 L-36972 323213 L-36916 323212 L-36890 323212 L-36568 323210 L-35851 323210 L-34982 323210 L-34944 323210 L-34866 323210 L-34615 323209 L-34595 323207 L-33872 323207 L-33722 323206 L-33609 323206 L-33512 323204 L-32410 323203 L-31655 323201 L-31483 323200 L-31322 323198 L-31246 323197 L-31052 323197 L-29914 323195 L-29229 323195 L-28946 323194 L-27979 323192 L-27960 323191 L-27109 323189 L-27070 323188 L-26926 323186 L-26602 323185 L-26372 323183 L-26334 323182 L-26293 323180 L-26277 323178 L-26141 323176 L-26122 323175 L-25911 323173 L-25851 323172 L-25773 323170 L-25749 323169 L-25674 323167 L-25194 323166 L-25097 323164 L-25021 323163 L-24844 323161 L-24822 323160 L-24767 323158 L-24729 323157 L-24670 323155 L-24515 323154 L-23491 323152 L-23192 323151 L-23065 323149 L-22987 323148 L-21962 323146 L-21905 323145 L-21847 323143 L-21801 323142 L-21787 323140 L-21750 323139 L-21711 323137 L-20532 323136 L-20473 323134 L-19777 323134 L-19157 323133 L-19015 323133 L-18572 323131 L-18306 323130 L-17643 323130 L-17359 323128 L-15889 323128 L-14940 323127 L-14834 323125 L-14768 323125 L-14739 323124 L-14419 323122 L-14398 323122 L-13469 323122 L-13293 323124 L-12562 323125 L-12021 242789 L-11997 162452 L-11971 82115 L-11938 1777 L-11922 1776 L-11901 1773 L-11863 1770 L-11844 1770 L-11821 1773 L-11806 1774 L-11787 1776 L-11767 1776 L-11745 1773 L-11729 1771 L-11709 1770 L-11690 1770 L-11651 1770 L-11611 1767 L-11586 1764 L-11570 1759 L-11552 1756 L-11515 1753 L-11496 1752 L-11477 1750 L-11458 1749 L-11436 1746 L-11419 1744 L-11380 1740 L-11358 1736 L-11342 1734 L-11323 1731 L-11303 1730 L-11283 1728 L-11265 1725 L-11226 1724 L-11168 1722 L-11120 1719 L-11069 1718 L-11042 1715 L-11026 1712 L-11009 1710 L-10993 1709 L-10973 1707 L-10955 1707 L-10935 1704 L-10915 1703 L-10893 1700 L-10877 1695 L-10858 1692 L-10838 1691 L-10817 1688 L-10780 1685 L-10761 1682 L-10740 1679 L-10704 1676 L-10683 1674 L-10657 1673 L-10641 1671 L-10624 1668 L-10606 1661 L-10586 1653 L-10568 1645 L-10548 1639 L-10529 1634 L-10471 1631 L-10451 1627 L-10429 1624 L-10395 1619 L-10374 1615 L-10354 1612 L-10336 1609 L-10317 1607 L-10278 1606 L-10259 1603 L-10240 1600 L-10214 1598 L-10026 1595 L-10006 1592 L-9987 1591 L-9964 1588 L-9930 1585 L-9910 1582 L-9888 1577 L-9871 1573 L-9852 1568 L-9833 1564 L-9812 1561 L-9794 1558 L-9775 1555 L-9754 1552 L-9729 1549 L-9713 1546 L-9678 1543 L-9657 1542 L-9639 1539 L-9620 1537 L-9601 1534 L-9579 1531 L-9543 1528 L-9523 1525 L-9501 1522 L-9485 1519 L-9466 1516 L-9446 1513 L-9426 1512 L-9389 1509 L-9311 1507 L-9286 1504 L-9263 1501 L-9235 1497 L-9212 1494 L-9186 1491 L-9136 1488 L-9116 1486 L-9078 1482 L-9059 1479 L-9037 1477 L-9021 1475 L-9002 1473 L-8982 1472 L-8961 1470 L-8924 1467 L-8904 1466 L-8847 1464 L-8826 1463 L-8801 1463 L-8786 1461 L-8769 1461 L-8731 1460 L-8711 1457 L-8692 1454 L-8672 1451 L-8652 1448 L-8634 1445 L-8615 1440 L-8595 1437 L-8574 1434 L-8537 1431 L-8517 1430 L-8499 1428 L-8460 1427 L-8421 1425 L-8401 1424 L-8383 1422 L-8334 1421 L-8306 1419 L-8267 1416 L-8236 1415 L-8222 1412 L-8149 1409 L-8130 1406 L-8108 1404 L-8092 1403 L-8073 1401 L-8033 1401 L-7956 1398 L-7937 1397 L-7918 1394 L-7897 1392 L-7872 1391 L-7840 1389 L-7821 1389 L-7802 1387 L-7763 1384 L-7723 1379 L-7644 1375 L-7609 1372 L-7569 1369 L-7492 1367 L-7473 1366 L-7428 1364 L-7406 1366 L-7377 1366 L-7338 1363 L-7308 1361 L-7293 1358 L-7279 1355 L-7238 1352 L-7177 1351 L-7163 1348 L-7144 1345 L-7124 1342 L-7047 1337 L-7008 1334 L-6990 1331 L-6943 1330 L-6926 1328 L-6908 1327 L-6892 1325 L-6854 1321 L-6833 1318 L-6815 1313 L-6793 1310 L-6777 1307 L-6737 1304 L-6699 1301 L-6680 1299 L-6660 1294 L-6640 1288 L-6622 1282 L-6603 1276 L-6583 1273 L-6563 1272 L-6499 1270 L-6477 1269 L-6449 1267 L-6425 1263 L-6399 1258 L-6383 1252 L-6366 1246 L-6330 1243 L-6312 1240 L-6292 1239 L-6272 1237 L-6249 1234 L-6234 1233 L-6215 1231 L-6196 1227 L-6174 1221 L-6157 1216 L-6137 1212 L-6118 1209 L-6097 1206 L-6080 1205 L-6061 1202 L-6014 1200 L-5998 1197 L-5980 1194 L-5964 1190 L-5943 1185 L-5925 1181 L-5905 1176 L-5886 1170 L-5848 1169 L-5829 1167 L-5786 1166 L-5771 1164 L-5752 1160 L-5732 1155 L-5693 1152 L-5674 1151 L-5654 1148 L-5616 1146 L-5597 1143 L-5571 1140 L-5521 1139 L-5483 1137 L-5468 1136 L-5422 1134 L-5383 1131 L-5364 1130 L-5344 1127 L-5321 1125 L-5306 1123 L-5287 1120 L-5245 1118 L-5228 1115 L-5190 1111 L-5169 1108 L-5152 1103 L-5111 1099 L-5086 1096 L-5069 1093 L-5035 1090 L-5015 1085 L-4996 1079 L-4976 1072 L-4935 1064 L-4919 1057 L-4842 1052 L-4823 1049 L-4783 1048 L-4765 1045 L-4746 1042 L-4726 1042 L-4707 1040 L-4687 1040 L-4592 1042 L-4567 1040 L-4540 1039 L-4509 1036 L-4493 1033 L-4473 1030 L-4435 1027 L-4415 1024 L-4392 1021 L-4377 1020 L-4358 1018 L-4338 1015 L-4316 1012 L-4300 1009 L-4280 1006 L-4261 1003 L-4240 1000 L-4223 996 L-4204 993 L-4183 991 L-4157 988 L-4140 984 L-4122 979 L-4085 975 L-4068 969 L-4047 964 L-4029 960 L-4007 954 L-3971 951 L-3951 947 L-3928 942 L-3914 939 L-3895 936 L-3874 933 L-3836 930 L-3797 929 L-3778 927 L-3758 924 L-3714 923 L-3612 923 L-3596 921 L-3464 920 L-3449 918 L-3430 912 L-3410 908 L-3388 905 L-3352 900 L-3333 899 L-3312 897 L-3254 894 L-3229 891 L-3213 888 L-3195 884 L-3178 881 L-3158 879 L-3139 878 L-3101 875 L-3078 873 L-3043 872 L-3023 870 L-3001 869 L-2946 869 L-2926 867 L-2869 866 L-2830 864 L-2763 863 L-2735 860 L-2712 857 L-2686 854 L-2653 851 L-2636 850 L-2616 847 L-2598 851 L-2578 854 L-2559 859 L-2537 863 L-2520 861 L-2424 860 L-2366 859 L-2326 857 L-2301 853 L-2269 850 L-2231 847 L-2192 842 L-2172 839 L-2134 836 L-2095 833 L-2056 830 L-2037 829 L-1998 826 L-1979 823 L-1960 821 L-1940 820 L-1921 818 L-1901 817 L-1883 814 L-1856 809 L-1806 805 L-1767 802 L-1737 799 L-1722 796 L-1708 794 L-1669 791 L-1650 788 L-1608 785 L-1592 782 L-1573 779 L-1533 775 L-1496 772 L-1456 769 L-1418 768 L-1372 765 L-1358 763 L-1282 762 L-1244 760 L-1223 760 L-1205 757 L-1186 756 L-1089 753 L-1050 750 L-992 747 L-973 744 L-954 741 L-928 741 L-906 739 L-839 738 L-822 738 L-807 736 L-794 735 L-758 733 L-701 732 L-677 729 L-644 726 L-624 723 L-585 718 L-565 714 L-547 709 L-525 706 L-508 703 L-490 702 L-468 699 L-443 696 L-392 694 L-371 691 L-315 690 L-295 687 L-199 685 L-180 683 L-141 681 L-122 680 L-103 675 L-64 674 L-44 672 L-26 671 L22 669 L74 669 L100 668 L116 665 L133 663 L148 660 L187 657 L207 656 L227 653 L284 650 L304 647 L326 642 L342 639 L362 635 L381 632 L438 627 L459 623 L485 618 L520 612 L535 608 L556 605 L574 602 L594 600 L613 597 L635 595 L651 593 L671 592 L690 590 L713 587 L728 584 L747 581 L768 578 L787 577 L825 575 L845 571 L864 566 L929 560 L951 556 L979 553 L1018 548 L1050 544 L1064 539 L1098 536 L1136 533 L1155 532 L1178 529 L1193 527 L1212 524 L1232 520 L1271 518 L1291 515 L1330 514 L1388 511 L1413 509 L1448 507 L1464 504 L1485 501 L1503 498 L1542 495 L1563 493 L1580 490 L1600 487 L1619 483 L1642 480 L1657 475 L1676 472 L1753 471 L1773 468 L1793 465 L1812 462 L1831 459 L1856 456 L1931 453 L1957 450 L1973 445 L1990 444 L2006 441 L2026 438 L2044 435 L2084 433 L2106 432 L2122 430 L2140 427 L2160 426 L2182 423 L2199 421 L2295 419 L2316 416 L2342 414 L2375 411 L2393 408 L2413 405 L2431 402 L2451 401 L2470 399 L2492 398 L2508 395 L2528 392 L2547 389 L2570 386 L2586 383 L2605 381 L2644 378 L2663 375 L2702 372 L2759 371 L2785 368 L2808 365 L2835 362 L2859 359 L2885 356 L2918 354 L2934 353 L2954 353 L2973 353 L2993 353 L3012 353 L3050 350 L3069 347 L3089 342 L3111 339 L3147 336 L3166 335 L3187 332 L3205 329 L3224 328 L3245 325 L3270 322 L3285 319 L3304 316 L3321 311 L3341 308 L3360 304 L3379 299 L3398 296 L3456 292 L3476 290 L3498 287 L3592 284 L3630 283 L3650 293 L3669 304 L3688 320 L3785 336 L3813 341 L3845 345 L3863 344 L3962 342 L3979 339 L3997 338 L4017 335 L4038 332 L4056 328 L4075 323 L4095 319 L4114 314 L4152 311 L4173 310 L4230 308 L4249 313 L4268 335 L4288 357 L4307 378 L4327 395 L4347 395 L4404 395 L4426 396 L4462 395 L4482 393 L4539 392 L4559 390 L4598 395 L4616 398 L4643 401 L4693 404 L4732 401 L4791 398 L4811 395 L4830 393 L4869 392 L4907 390 L4946 389 L5023 387 L5043 386 L5062 384 L5158 383 L5178 383 L5255 381 L5313 380 L5371 377 L5410 374 L5429 372 L5449 369 L5468 365 L5593 360 L5675 356 L5690 351 L5705 347 L5741 344 L5778 341 L5798 339 L5821 336 L5836 335 L5855 332 L5914 329 L5934 311 L5952 290 L5973 269 L5991 247 L6009 241 L6031 238 L6056 235 L6072 232 L6091 229 L6107 226 L6128 219 L6145 211 L6165 204 L6206 196 L6242 192 L6262 189 L6285 186 L6319 181 L6359 180 L6377 177 L6416 174 L6435 171 L6455 169 L6474 168 L6500 165" />
</svg>
