<svg xmlns="http://www.w3.org/2000/svg" version="1.1" viewBox="0 0 6500 1000">
	<path fill="none" stroke="gold" stroke-width="125" stroke-linecap="round" stroke-linejoin="round" d="M0 98452  L-886864 98452 L-886679 98414 L-886189 98336 L-885896 98297 L-885584 98219 L-885350 98180 L-885296 98102 L-885237 98024 L-885084 97985 L-885044 97908 L-884911 97869 L-884618 97830 L-884078 97830 L-883467 97791 L-883420 97791 L-882779 97752 L-882746 97752 L-882221 97752 L-882088 97713 L-881698 97635 L-881370 97557 L-881252 97480 L-881041 97402 L-880324 97402 L-879754 97363 L-879647 97363 L-879473 97324 L-879251 97246 L-878850 97207 L-878824 97129 L-877896 97052 L-877808 96974 L-877726 96896 L-877656 96818 L-877359 96779 L-877207 96701 L-875317 96740 L-875216 96740 L-874954 96740 L-874660 96779 L-874519 96701 L-874270 96701 L-874234 96663 L-874076 96624 L-873612 96546 L-873359 96507 L-873147 96429 L-872896 96390 L-872547 96351 L-871619 96273 L-871526 96196 L-871115 96157 L-869944 96079 L-868755 96040 L-868663 95962 L-868635 95884 L-868369 95807 L-868070 95729 L-867942 95651 L-867904 95573 L-867090 95573 L-866706 95612 L-865645 95651 L-865584 95651 L-865319 96429 L-864847 97168 L-864655 97908 L-864391 98647 L-864055 98608 L-863919 98569 L-863464 98530 L-862720 98491 L-862703 98452 L-862537 98375 L-862469 98375 L-861953 98336 L-860925 98336 L-860728 98297 L-860240 98258 L-859878 98219 L-859469 98219 L-859084 98258 L-857380 98258 L-857282 98258 L-857210 98258 L-857149 98258 L-856964 98219 L-856628 98219 L-855987 98180 L-855911 98141 L-855849 98141 L-855663 98102 L-855583 98102 L-855406 98063 L-855387 98024 L-855157 98024 L-854769 97985 L-853880 97985 L-853841 97947 L-853753 97908 L-853725 97830 L-852717 97791 L-852567 97713 L-852543 97674 L-852410 97635 L-852371 97596 L-851112 97557 L-851054 97557 L-850515 97519 L-850462 97519 L-850415 97519 L-850020 97480 L-849881 97441 L-849681 97402 L-849534 97402 L-849370 97402 L-849093 97441 L-848734 97441 L-848182 97402 L-847537 97363 L-847278 97285 L-847124 97246 L-846723 97207 L-846683 97168 L-846563 97129 L-846501 97168 L-846487 97168 L-846393 97168 L-846100 97129 L-845949 96974 L-845618 96896 L-845540 96818 L-845465 96779 L-845238 96663 L-845172 96585 L-844944 96507 L-844891 96429 L-844727 96390 L-843721 96351 L-843538 96312 L-842987 96273 L-842594 96196 L-842196 96157 L-841346 96079 L-841268 96040 L-840689 96001 L-840247 96001 L-840006 95962 L-839849 95962 L-839448 95884 L-839428 95884 L-838983 95845 L-838577 95807 L-838442 95729 L-838266 95651 L-838130 95573 L-837880 95495 L-836880 95456 L-836798 95417 L-836662 95378 L-836624 95340 L-835734 95301 L-835518 95262 L-835075 95223 L-834957 95184 L-834901 95145 L-834224 95145 L-834124 95106 L-834095 95106 L-832753 95067 L-832348 95028 L-832308 94989 L-831380 94950 L-831282 94912 L-831149 94873 L-830744 94834 L-830718 94795 L-830625 94756 L-830409 94717 L-829998 94639 L-828844 94561 L-828553 94484 L-828524 94406 L-827916 94367 L-827666 94289 L-827646 94250 L-826717 94211 L-826665 94133 L-826543 94094 L-826525 94017 L-826370 93978 L-826194 93900 L-826058 93861 L-826001 93822 L-825893 93783 L-825808 93744 L-825575 93705 L-825500 93666 L-825191 93628 L-825074 93589 L-824904 93550 L-824813 93511 L-824710 93511 L-824687 93472 L-824610 93472 L-824512 93394 L-824145 93355 L-824040 93316 L-823537 93277 L-823085 93238 L-823047 93200 L-823023 93161 L-822982 93122 L-822853 93083 L-822752 93044 L-822311 93005 L-822029 92966 L-821436 92927 L-821306 92888 L-821031 92810 L-820879 92771 L-820726 92733 L-820641 92655 L-820562 92616 L-820377 92577 L-820326 92577 L-820298 92538 L-820219 92499 L-820196 92460 L-819912 92382 L-819309 92305 L-818313 92266 L-818015 92227 L-817282 92188 L-817037 92149 L-816947 92110 L-816370 92071 L-815671 92032 L-814919 91993 L-814601 91954 L-814218 91877 L-814141 91838 L-813506 91799 L-813321 91760 L-813233 91760 L-813103 91760 L-812791 91721 L-812741 91682 L-812599 91643 L-812578 91604 L-811610 91565 L-811064 91526 L-810586 91526 L-810525 91526 L-810201 91526 L-810180 91487 L-810118 91487 L-809907 91449 L-809831 91410 L-809776 91371 L-809753 91332 L-809714 91293 L-809699 91254 L-808941 91215 L-808925 91176 L-808125 91137 L-807973 91098 L-807068 91059 L-806562 91021 L-806332 90943 L-806291 90943 L-806176 90904 L-805999 90865 L-805245 90904 L-805110 90865 L-804946 90826 L-804628 90787 L-804452 90709 L-803430 90631 L-803406 90554 L-803155 90515 L-802942 90437 L-802308 90398 L-802070 90320 L-802038 90242 L-801860 90164 L-801779 90087 L-801690 90048 L-801625 89970 L-801185 89892 L-801162 89853 L-800621 89814 L-800365 89775 L-799870 89736 L-798993 89698 L-798956 89659 L-798903 89620 L-798862 89581 L-798745 89542 L-798468 89503 L-798261 89425 L-798064 89347 L-798041 89270 L-797991 89192 L-797951 89153 L-797873 89114 L-797276 89036 L-797216 88997 L-797112 88958 L-796958 88919 L-796326 88880 L-795646 88842 L-795343 88764 L-794996 88725 L-794798 88686 L-794750 88608 L-794430 88569 L-793802 88530 L-793655 88491 L-793619 88452 L-793561 88414 L-793485 88336 L-793243 88336 L-793155 88297 L-793061 88258 L-792767 88219 L-792633 88180 L-792573 88141 L-792536 88063 L-792264 88063 L-791258 88024 L-791082 87985 L-791031 87985 L-790739 87947 L-790546 87869 L-790213 87830 L-789707 87791 L-789145 87713 L-789130 87635 L-789113 87596 L-789013 87519 L-788898 87441 L-788859 87363 L-788821 87324 L-788756 87324 L-788728 87285 L-788589 87324 L-788296 87324 L-788246 87324 L-788141 87324 L-787876 87285 L-787411 87246 L-787267 87246 L-787212 87168 L-787155 87129 L-786964 87091 L-786599 87052 L-786384 87052 L-786190 87052 L-786132 87052 L-786073 86974 L-785919 86935 L-785649 86896 L-785219 87091 L-785204 87091 L-785127 87052 L-785062 87013 L-784933 86740 L-784910 86701 L-784626 86663 L-784578 86624 L-784523 86585 L-784061 86546 L-784022 86546 L-783981 86507 L-783791 86468 L-783311 86429 L-782824 86390 L-782807 86351 L-782769 86312 L-782513 86273 L-782435 86196 L-782205 86157 L-782189 86079 L-781895 86001 L-781453 85962 L-781006 85923 L-780501 85884 L-780347 85845 L-780061 85807 L-780021 85729 L-779690 85690 L-779468 85651 L-778951 85573 L-778875 85534 L-778627 85456 L-778433 85378 L-778373 85340 L-777596 85301 L-777522 85301 L-777292 85262 L-777275 85262 L-777213 85223 L-777018 85184 L-776553 85184 L-776530 85145 L-776400 85145 L-775100 85145 L-775083 85145 L-775006 85106 L-774912 85106 L-774695 85106 L-774543 85067 L-774365 85106 L-774310 85145 L-774024 85184 L-773984 85184 L-773614 85184 L-773174 85184 L-772991 85184 L-772670 85145 L-772375 85145 L-771929 85067 L-771857 85028 L-771395 84950 L-770957 84912 L-770775 84873 L-769321 84795 L-769189 84756 L-768732 84678 L-768506 84639 L-768119 84561 L-767603 84484 L-766649 84406 L-765854 84328 L-765180 84289 L-764754 84211 L-764443 84172 L-764213 84056 L-763530 83939 L-763517 83822 L-763307 83666 L-763285 83628 L-763111 83550 L-762161 83511 L-761892 83433 L-761077 83394 L-760767 83316 L-760729 83277 L-760672 83200 L-760055 83161 L-759417 83083 L-757791 83044 L-757117 83005 L-756475 83005 L-756398 83005 L-756341 83005 L-756306 83005 L-756277 82966 L-756165 82888 L-756148 82849 L-756125 82810 L-755971 82771 L-755918 82694 L-755840 82655 L-755721 82616 L-755623 82577 L-755506 82538 L-755236 82460 L-754966 82421 L-754949 82343 L-754749 82305 L-754602 82227 L-754375 82188 L-754241 82149 L-753932 82110 L-753873 82071 L-753519 81993 L-753171 81954 L-753070 81915 L-753006 81838 L-752946 81799 L-752561 81721 L-752180 81682 L-752076 81643 L-751816 81604 L-751545 81526 L-751385 81487 L-751353 81449 L-751291 81410 L-751150 81371 L-750966 81332 L-750921 81293 L-750633 81293 L-750617 81254 L-750384 81254 L-750323 81215 L-750285 81215 L-749705 81176 L-749571 81137 L-749548 80982 L-749530 80709 L-749512 80398 L-749496 80087 L-749472 79775 L-749456 79542 L-749434 79270 L-749418 78997 L-749394 78842 L-749378 78686 L-749356 78569 L-749339 78491 L-749290 78375 L-749218 78258 L-749183 78063 L-749160 77908 L-749124 77752 L-749083 77596 L-749046 77519 L-749030 77363 L-749006 77246 L-748969 77168 L-748952 77052 L-748928 76974 L-748911 76896 L-748892 76818 L-748876 76740 L-748847 76624 L-748821 76507 L-748776 76468 L-748759 76390 L-748717 76351 L-748669 76273 L-748599 76196 L-748583 76118 L-748567 76040 L-748505 76001 L-748466 75962 L-748427 75923 L-748261 75884 L-748196 75845 L-748180 75807 L-748135 75729 L-748077 75690 L-747864 75651 L-747831 75612 L-747789 75573 L-747710 75534 L-747173 75495 L-747095 75456 L-746991 75378 L-746902 75340 L-746726 75301 L-746375 75262 L-746219 75223 L-745782 75184 L-745625 75145 L-745495 75106 L-744791 75028 L-744590 74989 L-743629 74912 L-743147 74873 L-743048 74873 L-742956 74834 L-742711 74795 L-742637 74756 L-742195 74678 L-742099 74639 L-742083 74600 L-742067 74561 L-742043 74522 L-741577 74484 L-741360 74445 L-741220 74406 L-740926 74367 L-740838 74328 L-740796 74289 L-740767 74250 L-740594 74211 L-740535 74172 L-740459 74133 L-740378 74094 L-740308 74094 L-739999 74056 L-739914 74017 L-739700 73978 L-739665 73939 L-738982 73900 L-738883 73861 L-738678 73822 L-738631 73783 L-738353 73744 L-738291 73705 L-738274 73628 L-738196 73589 L-737888 73511 L-737863 73472 L-737809 73394 L-737787 73355 L-737664 73316 L-737528 73238 L-737284 73200 L-737159 73200 L-736512 73161 L-736496 73161 L-736471 73161 L-736291 73083 L-736215 73044 L-736123 73005 L-735695 72966 L-735279 72927 L-734886 72849 L-734808 72810 L-734789 72771 L-734425 72733 L-734189 72694 L-733961 72655 L-733648 72616 L-733570 72577 L-733489 72499 L-733311 72421 L-733295 72382 L-733030 72305 L-732950 72266 L-732720 72227 L-732494 72188 L-732178 72188 L-732003 72149 L-731642 72149 L-731250 72110 L-731180 72032 L-731117 71993 L-730976 71915 L-730925 71877 L-730823 71799 L-730321 71760 L-730124 71721 L-729877 71682 L-729692 71643 L-729392 71604 L-729316 71565 L-729150 71487 L-728266 71449 L-728237 71371 L-728114 71293 L-727535 71254 L-727457 71215 L-726744 71215 L-726432 71215 L-726219 71215 L-726202 71215 L-725816 71215 L-725291 71137 L-724844 71098 L-724515 71059 L-724362 71021 L-724036 71021 L-723858 70982 L-723776 70982 L-723570 70904 L-723395 70865 L-722466 70826 L-721576 70787 L-721537 70748 L-721309 70748 L-720930 70709 L-720142 70670 L-719908 70631 L-719832 70592 L-719475 70554 L-718903 70476 L-718636 70437 L-718249 70398 L-718146 70398 L-717976 70398 L-717357 70398 L-717146 70398 L-716838 70398 L-716785 70359 L-716658 70320 L-716605 70281 L-716485 70242 L-716149 70164 L-715190 70126 L-715059 70048 L-714857 70009 L-714226 69970 L-713914 69931 L-713500 69892 L-713473 69853 L-713328 69814 L-712908 69775 L-711575 69775 L-711528 69736 L-711400 69659 L-711383 69620 L-710805 69542 L-710599 69503 L-710569 69464 L-710529 69425 L-710471 69386 L-710434 69347 L-710355 69308 L-710212 69270 L-709758 69231 L-709640 69192 L-709355 69153 L-708982 69114 L-708886 69075 L-708559 69036 L-708204 68997 L-708034 68958 L-707987 68919 L-707878 68880 L-707789 68842 L-707761 68803 L-707685 68725 L-707381 68686 L-707348 68608 L-707276 68569 L-706908 68530 L-706572 68491 L-706492 68491 L-706272 68452 L-706101 68414 L-706073 68375 L-705576 68336 L-705027 68258 L-704146 68219 L-704048 68141 L-703971 68102 L-703696 68063 L-703449 67985 L-703375 67947 L-703313 67869 L-703195 67830 L-703152 67791 L-703042 67752 L-702965 67674 L-702265 67635 L-702019 67596 L-701979 67557 L-701823 67519 L-701224 67519 L-700997 67519 L-700905 67519 L-700430 67519 L-699832 67441 L-699313 67402 L-699292 67363 L-699146 67324 L-698826 67324 L-698284 67324 L-698052 67324 L-697882 67324 L-697395 67285 L-697168 67246 L-697083 67207 L-696737 67168 L-696411 67168 L-695888 67129 L-695560 67091 L-694960 67052 L-694762 66974 L-694710 66935 L-694670 66896 L-694388 66857 L-693704 66779 L-693394 66740 L-693369 66663 L-693178 66624 L-692955 66585 L-692869 66546 L-692205 66468 L-692181 66429 L-691959 66351 L-691629 66312 L-691277 66235 L-691072 66196 L-690840 66118 L-690582 66079 L-690392 66001 L-690345 65962 L-690118 65923 L-690083 65884 L-689927 65845 L-689712 65807 L-689539 65768 L-689448 65729 L-689171 65690 L-688927 65651 L-688612 65612 L-688186 65612 L-688148 65612 L-687665 65612 L-687432 65612 L-687220 65573 L-686994 65534 L-686444 65534 L-686197 65495 L-685363 65495 L-685307 65456 L-685285 65417 L-685127 65378 L-684666 65340 L-684625 65301 L-684285 65223 L-684152 65184 L-683929 65145 L-683357 65106 L-682885 65067 L-682690 65028 L-682498 64989 L-682308 64950 L-682206 64912 L-681838 64873 L-681792 64834 L-681710 64795 L-680417 64756 L-680368 64717 L-680100 64717 L-679955 64717 L-679404 64717 L-679287 64678 L-679206 64639 L-678846 64600 L-678623 64561 L-678341 64522 L-678012 64445 L-677504 64406 L-677392 64367 L-677313 64328 L-677149 64289 L-676854 64289 L-676386 64289 L-676189 64328 L-676138 64328 L-675489 64289 L-675367 64250 L-674913 64250 L-674877 64211 L-674409 64172 L-674298 64133 L-674282 64094 L-674065 64094 L-673885 64056 L-673353 64056 L-672323 64056 L-672124 64017 L-671666 63978 L-670717 63900 L-670619 63861 L-670265 63783 L-670204 63744 L-670190 63705 L-670154 63666 L-669785 63628 L-669665 63589 L-669423 63550 L-669259 63511 L-669072 63472 L-668951 63433 L-667880 63355 L-667022 63316 L-666810 63238 L-666713 63200 L-666538 63122 L-666205 63083 L-666133 63044 L-666076 63005 L-665900 63005 L-665512 62966 L-665276 62927 L-665165 62888 L-665048 62849 L-664067 62810 L-664042 62771 L-663447 62694 L-663415 62694 L-663266 62655 L-662982 62616 L-662070 62616 L-661124 62616 L-660971 62577 L-660868 62577 L-660737 62538 L-660594 62499 L-660567 62460 L-660453 62421 L-660235 62382 L-659553 62343 L-659424 62305 L-659121 62266 L-658881 62188 L-658548 62149 L-657909 62110 L-657567 62032 L-657505 61993 L-657349 61993 L-656428 61993 L-655957 61993 L-655914 61993 L-655901 61954 L-655860 61915 L-655838 61877 L-655811 61838 L-655667 61799 L-655244 61760 L-654909 61760 L-654718 61721 L-654289 61721 L-654102 61682 L-653713 61604 L-653178 61565 L-652806 61526 L-652784 61526 L-652534 61487 L-652416 61449 L-652340 61410 L-652204 61371 L-652165 61332 L-652085 61293 L-651691 61254 L-651195 61215 L-651083 61137 L-650910 61098 L-650602 61059 L-650154 61021 L-649831 60982 L-649689 60904 L-649262 60826 L-649108 60748 L-649053 60670 L-648239 60631 L-648220 60592 L-647848 60554 L-647791 60554 L-646662 60515 L-646594 60515 L-646036 60476 L-645841 60437 L-645705 60398 L-645471 60359 L-645124 60320 L-645090 60242 L-645054 60203 L-644986 60126 L-644637 60087 L-644465 60048 L-643980 60009 L-643964 59970 L-643639 59931 L-643481 59892 L-642340 59814 L-642316 59775 L-642124 59698 L-641930 59659 L-641680 59620 L-641663 59581 L-640643 59542 L-640345 59503 L-640270 59464 L-640133 59386 L-639958 59347 L-639381 59270 L-639165 59231 L-639102 59192 L-638971 59153 L-638934 59075 L-638411 59036 L-638273 74367 L-638259 74367 L-638236 74367 L-638215 74367 L-637988 58997 L-637212 58997 L-637171 58997 L-636803 58997 L-636725 58958 L-636673 58919 L-636000 58880 L-635257 58842 L-634832 58842 L-634385 58803 L-633323 58764 L-633011 58686 L-632601 58686 L-632529 58647 L-632005 58647 L-631910 58647 L-631892 58647 L-631448 58608 L-631262 58530 L-630482 58452 L-629810 58414 L-629397 58297 L-629166 58219 L-629025 58180 L-628943 58102 L-628923 58063 L-628847 58063 L-628719 58024 L-628402 58063 L-628178 58063 L-627853 58024 L-627791 58024 L-627421 58024 L-627388 58024 L-627179 58024 L-626511 58024 L-626434 58024 L-626276 57947 L-626165 57947 L-625839 57908 L-625684 57869 L-625343 57869 L-625286 57791 L-624948 57713 L-624744 57674 L-624691 57596 L-623315 57557 L-623185 57519 L-622752 57480 L-622431 57441 L-621604 57363 L-621480 57324 L-620749 57246 L-620594 57168 L-620553 57129 L-620499 57091 L-620476 57052 L-620362 57013 L-620065 56974 L-619776 56935 L-619721 56896 L-619601 56857 L-619570 56818 L-619471 56779 L-619027 56779 L-618875 56740 L-618040 56740 L-617498 56701 L-617163 56701 L-617148 56663 L-617072 56624 L-616956 56585 L-616761 56546 L-616497 56507 L-615662 56468 L-615566 56429 L-615044 56390 L-615003 56351 L-614903 56312 L-614075 56312 L-613940 56273 L-613601 56273 L-613047 56235 L-612668 56196 L-612505 56157 L-612195 56118 L-611382 56079 L-611076 56040 L-610808 56040 L-610486 56040 L-610165 56079 L-609890 56079 L-609061 56001 L-608966 55962 L-608873 55845 L-608769 55729 L-608382 55612 L-607902 55534 L-607886 55495 L-607767 55456 L-607399 55378 L-607304 55340 L-606470 55262 L-606393 55223 L-606094 55184 L-606003 55145 L-605596 55067 L-605486 54989 L-604786 54950 L-604313 54912 L-604253 54873 L-604034 54795 L-603760 54756 L-603648 54717 L-602620 54678 L-602234 54639 L-602214 54600 L-601881 54561 L-601636 54522 L-601203 54484 L-601093 54445 L-600975 54406 L-600523 54328 L-599933 54289 L-599596 54250 L-597704 54211 L-597590 54133 L-597378 54094 L-596060 54056 L-595953 45301 L-595887 36663 L-595851 28686 L-595789 28686 L-595290 37363 L-594615 45923 L-594593 53822 L-594322 53744 L-593354 53744 L-592665 53705 L-592503 53666 L-591962 53628 L-591873 53589 L-590853 53550 L-589906 53472 L-589540 53511 L-589437 53550 L-588849 53550 L-588789 53550 L-588689 53511 L-588249 53433 L-588141 53394 L-587700 53355 L-586700 53238 L-586443 53122 L-586340 53005 L-586210 52927 L-585844 52849 L-585263 52771 L-585232 52733 L-584916 52694 L-582933 52655 L-582818 52616 L-582750 52616 L-582391 52577 L-580773 52538 L-580595 52538 L-580451 52538 L-579628 52577 L-579576 52616 L-579521 52616 L-579087 52616 L-578107 52655 L-578033 52655 L-576948 52616 L-576735 52616 L-576019 52538 L-575630 52499 L-575412 52421 L-575092 52343 L-574598 52266 L-574471 52227 L-574242 52149 L-574009 52071 L-573950 52032 L-573661 51993 L-573389 51915 L-572359 51877 L-570694 51838 L-570274 51799 L-570137 51760 L-569981 51760 L-569676 51721 L-569448 51643 L-569289 51604 L-569130 51526 L-568961 51449 L-568913 51410 L-568860 51371 L-568838 51371 L-568452 51332 L-568202 51332 L-567932 51332 L-567771 51332 L-567682 51332 L-566023 51332 L-565858 51371 L-565478 51332 L-565018 51332 L-564408 51254 L-563315 51215 L-562884 51176 L-562853 51137 L-562790 51098 L-562773 51059 L-561069 51021 L-561027 50982 L-560561 50943 L-560374 50904 L-560342 50826 L-559746 50787 L-559697 50748 L-559374 50709 L-559323 50670 L-559113 50631 L-559095 50592 L-558828 50515 L-558776 50476 L-558307 50437 L-557796 50359 L-557718 50359 L-557423 50320 L-557407 50281 L-557368 50242 L-557297 50203 L-557140 50164 L-556194 50164 L-556138 50164 L-555617 50164 L-555424 50126 L-555323 50126 L-555097 50087 L-554588 50087 L-554200 51137 L-554130 51137 L-553782 51098 L-553425 51059 L-552296 49931 L-552244 49853 L-552018 49814 L-551984 49775 L-551859 49698 L-551761 49698 L-551496 49698 L-550756 49736 L-550177 49736 L-549884 49736 L-549178 49736 L-548999 49698 L-548976 49698 L-548340 49659 L-548029 49620 L-547632 49620 L-547603 49581 L-547582 49542 L-547428 49503 L-546743 49503 L-546726 49503 L-546386 49503 L-546114 49464 L-546076 49425 L-546020 49347 L-545998 49308 L-545927 49270 L-545595 49231 L-545488 49192 L-545460 49114 L-545262 49075 L-545109 49036 L-544241 48997 L-543678 48919 L-543662 48919 L-543561 48880 L-543459 48919 L-543312 48919 L-543234 48919 L-543196 48880 L-543141 48842 L-543067 48803 L-542922 48764 L-542441 48764 L-542036 48725 L-541170 48764 L-541150 48764 L-540892 48764 L-540816 48764 L-540787 48725 L-540776 48647 L-540759 48608 L-540466 48569 L-540427 48530 L-540355 48491 L-540281 48452 L-540076 48414 L-539916 48297 L-539615 48180 L-539537 48024 L-539520 47908 L-539304 47830 L-539073 47830 L-538963 47869 L-538593 47908 L-538435 47908 L-538203 47908 L-538035 47908 L-537890 47869 L-537758 47830 L-536482 47752 L-536078 47674 L-536018 47635 L-535901 47557 L-535476 47519 L-535460 47441 L-535398 47402 L-535125 47324 L-535013 47285 L-534730 47207 L-534453 47168 L-534028 47091 L-534005 47052 L-533927 47013 L-533802 46974 L-533215 46935 L-532824 46896 L-532488 46857 L-531899 46818 L-531797 46818 L-531627 46779 L-531490 46779 L-530663 46740 L-529477 46701 L-529441 46663 L-529386 46663 L-529165 46624 L-528960 46624 L-528806 46624 L-528549 46585 L-528472 46546 L-527930 46507 L-527893 46468 L-527645 46429 L-527257 46390 L-526431 46351 L-526073 46312 L-525763 46312 L-525505 46273 L-525281 46235 L-524875 46196 L-524758 46157 L-524575 46118 L-524522 46118 L-524333 46079 L-524163 46040 L-524134 46001 L-523853 45962 L-523543 45923 L-523405 45884 L-523095 45845 L-522901 45845 L-522886 45807 L-522166 45807 L-522033 45729 L-521735 45690 L-521645 45651 L-521044 45651 L-521006 45612 L-520927 45573 L-520307 45534 L-520156 45456 L-520115 45417 L-519804 45378 L-519612 45340 L-519420 45262 L-519364 45184 L-519055 45145 L-519003 45106 L-518948 45145 L-518923 45145 L-518798 45145 L-517987 45106 L-517911 45067 L-517370 45028 L-517101 44989 L-516442 44950 L-515534 44912 L-515293 44873 L-514761 44834 L-514544 44795 L-513436 44834 L-513386 44834 L-512610 44834 L-512062 44795 L-511951 44756 L-511798 44678 L-511743 44639 L-511578 44600 L-511201 44561 L-510753 44522 L-510698 44484 L-510544 44445 L-509864 44406 L-509644 44367 L-509126 44328 L-508277 44250 L-508261 44211 L-506470 44172 L-505916 44133 L-505798 44094 L-504793 44056 L-504756 44017 L-504523 44017 L-504431 44017 L-504391 44017 L-504059 43978 L-503707 43939 L-503442 43861 L-503155 43822 L-502844 43744 L-502590 43666 L-502496 43628 L-502006 43589 L-501799 43550 L-501233 43511 L-501119 43550 L-500768 43511 L-500716 43511 L-500676 43511 L-500073 43433 L-499339 43355 L-498758 43277 L-498522 43200 L-497982 43083 L-497829 43005 L-497328 42966 L-497118 42888 L-497095 42888 L-497036 42849 L-496074 42849 L-495896 42810 L-495454 42771 L-495430 42694 L-495275 42655 L-495193 42655 L-495043 42694 L-494396 42694 L-494346 42655 L-493226 42616 L-492242 42577 L-492181 42538 L-491460 42499 L-490595 42460 L-490216 42421 L-489998 42421 L-489238 42382 L-489186 42343 L-488877 42266 L-488025 42266 L-487832 42227 L-487656 42188 L-487431 42188 L-487305 42149 L-487112 42149 L-486880 42110 L-486710 42149 L-486424 42110 L-486145 42110 L-486062 42071 L-485891 42032 L-485874 41954 L-485720 41915 L-485681 41877 L-484906 41838 L-484829 41838 L-484597 41760 L-484170 41721 L-483825 41682 L-483241 41643 L-482973 41643 L-482714 41643 L-482584 41565 L-482568 41526 L-482454 41487 L-482430 41449 L-482196 41410 L-482160 41371 L-480844 41371 L-480789 41332 L-480110 41254 L-479537 41254 L-479412 41254 L-479259 41254 L-479182 41254 L-478870 41176 L-478597 41137 L-478508 41059 L-478406 41059 L-477478 41021 L-477402 41021 L-477038 41021 L-477013 40982 L-476977 40943 L-476201 40865 L-476109 40826 L-475969 40787 L-475568 40748 L-475306 40748 L-475062 40787 L-474848 40748 L-474768 40748 L-474692 40748 L-474615 40748 L-474428 40787 L-474362 40787 L-474112 40787 L-474057 40748 L-473920 40709 L-473840 40631 L-473727 40592 L-473503 40554 L-473339 40515 L-473298 40476 L-473129 40437 L-472758 40398 L-472743 40359 L-472627 40320 L-471906 40281 L-471870 40242 L-471737 40242 L-471389 40203 L-470978 40203 L-470942 40203 L-470864 40164 L-470825 40126 L-470461 40087 L-470256 40048 L-470241 40009 L-469896 39970 L-469547 39970 L-469222 39970 L-469120 39931 L-468967 39931 L-468773 39892 L-468541 39892 L-468449 39892 L-468293 39892 L-468216 39892 L-468175 39853 L-468062 39814 L-468038 39775 L-467788 39775 L-467649 39698 L-467071 39581 L-466243 39503 L-465755 39425 L-465633 39386 L-465595 39347 L-465582 39308 L-465430 39231 L-465329 39153 L-465096 39114 L-464706 39036 L-464401 38997 L-464386 38958 L-464215 38919 L-463977 38842 L-463380 38842 L-462776 38803 L-462737 38803 L-462696 38803 L-462543 38764 L-462490 38725 L-462427 38686 L-462359 38647 L-462305 38569 L-462280 38530 L-462233 38491 L-462138 38414 L-462001 38375 L-461848 38336 L-461716 38297 L-461675 38297 L-461639 38258 L-461577 38219 L-461304 38141 L-460990 38102 L-460949 38024 L-460864 37985 L-460686 37947 L-460449 37908 L-460091 37869 L-460061 37830 L-459492 37791 L-459369 37752 L-459133 37713 L-459110 37713 L-458829 37674 L-458544 37674 L-458288 37674 L-457716 37635 L-457420 37596 L-457344 37557 L-456645 37519 L-456567 37480 L-456532 37441 L-456506 37402 L-456454 37324 L-456260 37285 L-456120 37207 L-456084 37168 L-456044 37129 L-455448 37091 L-455216 37052 L-454933 37324 L-454878 37557 L-454804 37830 L-454726 38063 L-454490 37985 L-454246 37947 L-454110 37908 L-454004 37869 L-453924 37830 L-453537 37752 L-453410 37713 L-453258 37674 L-453220 37635 L-453074 37596 L-452852 37557 L-452679 37519 L-452610 37480 L-451788 37402 L-451772 37402 L-451477 37363 L-450690 37324 L-450380 37324 L-450233 37285 L-450005 37246 L-449805 37168 L-448868 37129 L-448831 37091 L-448808 37052 L-448767 36974 L-448499 36935 L-447902 36896 L-447839 36857 L-447803 36818 L-447786 36779 L-447091 36779 L-446890 36779 L-446858 36779 L-446525 36779 L-446417 36740 L-445792 36663 L-445288 36624 L-445251 36546 L-444809 36546 L-444712 36507 L-444554 36507 L-444240 36507 L-444228 36507 L-443788 36546 L-443306 36585 L-443177 36585 L-442857 36585 L-442788 36546 L-442484 36546 L-442308 36507 L-442115 36468 L-441872 36390 L-441674 36312 L-441649 36235 L-441071 36196 L-441001 36157 L-440591 36118 L-440537 36079 L-440490 36040 L-440126 36001 L-439980 35962 L-439775 35923 L-439679 35923 L-439523 35884 L-439462 35845 L-439314 35768 L-439214 35729 L-438657 35729 L-438635 35807 L-438463 35845 L-437921 35884 L-437860 35884 L-437806 35807 L-437777 35729 L-437706 35690 L-437690 35612 L-437626 35573 L-437590 35495 L-437435 35456 L-437109 35417 L-436543 35378 L-436529 35340 L-436467 35262 L-436365 35184 L-436319 35184 L-436076 35145 L-435654 35145 L-435499 35145 L-433758 35067 L-433216 35028 L-432273 34989 L-431864 34950 L-431322 34873 L-431126 34834 L-430957 34795 L-430662 34756 L-430547 34717 L-430532 34717 L-430377 34678 L-430237 34639 L-430160 34561 L-430029 34561 L-429681 34561 L-429310 34600 L-428712 34600 L-428536 34600 L-428380 34561 L-428111 34522 L-427960 34522 L-427669 34639 L-427645 34717 L-427562 34795 L-427334 34873 L-426635 34834 L-426508 34795 L-426077 34756 L-425983 34717 L-424778 34717 L-424729 34678 L-424435 34678 L-424032 34639 L-423756 34561 L-423737 34522 L-423619 34484 L-423543 34445 L-423361 34406 L-422881 34367 L-422430 34289 L-422020 34250 L-421989 34211 L-421571 34172 L-421457 34172 L-421339 34172 L-421324 34172 L-421129 34133 L-421108 34056 L-420875 34017 L-420432 33978 L-420113 33900 L-419648 33900 L-419483 33861 L-419328 33822 L-419172 33822 L-418719 33822 L-418399 33822 L-418345 33861 L-417973 33861 L-417936 33900 L-417609 33900 L-417493 33861 L-417394 33822 L-417068 33744 L-416681 33705 L-416420 33666 L-416062 33589 L-415805 33550 L-413635 33511 L-413586 33472 L-413563 33433 L-413152 33433 L-413090 33433 L-413020 33472 L-412789 33472 L-412478 33433 L-412175 33355 L-412131 33316 L-411823 33277 L-411690 33238 L-411473 33200 L-410761 33161 L-410606 33161 L-410468 33122 L-410319 33122 L-410298 33122 L-410103 33083 L-410078 33044 L-409987 33005 L-409965 32966 L-409949 32927 L-409849 32888 L-408920 32849 L-408462 32849 L-407370 32771 L-406947 32771 L-406544 32733 L-406505 32694 L-406251 32655 L-405477 32577 L-405461 32538 L-405436 32499 L-405243 32460 L-404507 32421 L-404238 32382 L-404197 32343 L-403798 32266 L-403773 32227 L-402984 32188 L-402304 32149 L-400933 32110 L-400663 32071 L-400614 32032 L-400077 31954 L-400044 31915 L-399942 31838 L-399618 31799 L-399539 31760 L-399270 31760 L-398357 31721 L-398219 31721 L-397970 31643 L-397424 31643 L-397002 31604 L-396809 31565 L-396794 31565 L-396656 31487 L-396562 31449 L-396435 31410 L-396175 31371 L-396150 31293 L-396059 31254 L-395749 31215 L-395688 31176 L-395571 31176 L-395222 31176 L-394411 31176 L-394180 31098 L-393351 31098 L-393118 31021 L-392902 30982 L-392383 30982 L-391745 30943 L-391329 30904 L-391007 30865 L-390526 30826 L-390100 30826 L-390039 30787 L-389691 30787 L-389650 30748 L-389636 30709 L-389537 30631 L-389491 30631 L-389006 30592 L-388205 30592 L-387870 30592 L-386789 30554 L-386309 30515 L-386286 30476 L-386146 30437 L-385590 30398 L-384893 30359 L-384584 30320 L-384363 30281 L-384258 30242 L-384155 30164 L-383484 30126 L-383390 30087 L-383368 30087 L-383291 30048 L-383113 30048 L-382941 30048 L-382760 30009 L-382747 29970 L-382671 29931 L-382506 29892 L-381991 29853 L-381975 29814 L-381835 29814 L-381472 29775 L-381448 29775 L-381318 29736 L-381293 29698 L-380931 29659 L-380405 29581 L-380312 29542 L-380096 29464 L-380002 29425 L-379978 29386 L-379514 29347 L-379437 29347 L-379035 29308 L-378584 29308 L-377332 29270 L-377294 29231 L-376862 29192 L-376829 29153 L-376110 29114 L-375934 29075 L-375798 29036 L-375492 28997 L-375437 28958 L-375412 28880 L-375396 28803 L-375221 28764 L-375031 28725 L-374524 28725 L-374150 28414 L-373812 28063 L-373773 27752 L-373054 27480 L-372961 27441 L-372922 27402 L-372380 27402 L-372357 27363 L-371955 27324 L-371529 27285 L-371258 27285 L-371078 27246 L-370833 27168 L-370809 27129 L-370753 27052 L-370136 27013 L-369633 26974 L-369246 26974 L-368627 27013 L-368411 27013 L-368256 27052 L-366964 26974 L-366864 26935 L-366422 26857 L-366091 26818 L-365790 26740 L-365548 26701 L-364813 26624 L-364234 26585 L-363404 26546 L-363304 26507 L-362746 26468 L-362608 26429 L-360966 26390 L-360906 26390 L-360812 26390 L-359845 26390 L-359667 26351 L-359380 26351 L-359162 26351 L-359084 26312 L-358813 26312 L-358698 26273 L-358544 26235 L-358234 26196 L-358156 26157 L-358065 26157 L-357988 26118 L-357871 26118 L-357692 26079 L-357600 26040 L-357562 26001 L-357059 26001 L-356840 25962 L-356711 25962 L-356556 25923 L-356501 25884 L-356377 25884 L-355992 25845 L-355483 25807 L-355411 25768 L-354931 25729 L-354854 25690 L-354753 25690 L-354520 25651 L-354055 25651 L-353825 25651 L-353809 25651 L-353577 25651 L-353422 25651 L-353360 25651 L-353167 25612 L-352896 25534 L-352145 25495 L-351192 25495 L-351156 25456 L-350931 25456 L-350491 25456 L-350210 25378 L-349862 25340 L-348793 25301 L-347865 25301 L-347734 25301 L-347688 25301 L-347618 25262 L-347464 25262 L-347386 25184 L-347213 25106 L-346778 25028 L-346574 24989 L-346513 24912 L-345931 24873 L-345777 24795 L-345661 24756 L-345621 24717 L-345451 24678 L-345314 24639 L-345103 24561 L-345026 24522 L-345003 24484 L-344794 24406 L-344384 24367 L-344359 24328 L-344136 24289 L-343991 24250 L-343956 24211 L-343943 24172 L-343920 24133 L-343687 24094 L-343502 24056 L-343284 24017 L-343259 23978 L-342570 23939 L-342466 23900 L-342431 23861 L-342410 23822 L-342216 23783 L-342163 23744 L-342046 23666 L-341964 23666 L-341853 23628 L-341539 23589 L-341079 23550 L-340824 23511 L-340590 23433 L-340460 23394 L-340108 23355 L-340049 23316 L-339896 23277 L-339324 23200 L-339237 23161 L-339084 23083 L-338788 23005 L-338418 22927 L-338115 22849 L-338038 22810 L-337633 22771 L-337465 22771 L-337321 22771 L-336781 22771 L-336720 22771 L-336705 22694 L-336539 22655 L-336333 22616 L-336258 22616 L-336165 22577 L-335755 22538 L-335740 22499 L-335716 22499 L-335523 22460 L-335447 22810 L-335276 23161 L-335214 23472 L-335198 23822 L-334684 23783 L-334462 23744 L-333843 23666 L-333590 23628 L-333396 23589 L-333357 23550 L-333283 23550 L-333218 23550 L-332567 23550 L-332529 23589 L-332355 23589 L-332289 23589 L-331615 23589 L-331226 23511 L-330964 23472 L-330726 23433 L-330648 23355 L-330633 23277 L-330431 23238 L-330060 23161 L-329834 23122 L-329199 23083 L-329179 23083 L-328792 23044 L-328698 23044 L-328640 23005 L-328364 22966 L-328055 22966 L-327977 22927 L-327126 22966 L-326783 23161 L-326346 23394 L-325913 23589 L-325418 23783 L-325268 23744 L-325000 23783 L-323762 23822 L-323705 23900 L-321941 23939 L-321751 23900 L-320741 23861 L-320590 23822 L-320214 23900 L-319893 23978 L-319288 24056 L-319218 24133 L-319041 24094 L-318213 24056 L-318074 24017 L-317687 23978 L-317503 23939 L-317459 23900 L-317339 23861 L-317129 23822 L-316682 23744 L-316334 23705 L-316201 23666 L-315792 23628 L-315442 23628 L-315157 23589 L-314963 23550 L-314809 23550 L-314645 23511 L-314577 23472 L-314477 23472 L-314243 23433 L-314127 23433 L-314074 23394 L-313532 23394 L-313068 23355 L-311886 23355 L-311752 23355 L-311728 23355 L-311675 23355 L-311007 23355 L-309972 23277 L-309779 23238 L-309599 23200 L-309447 23200 L-309407 23161 L-309392 23161 L-309330 23122 L-309005 23083 L-307845 23044 L-307651 23005 L-307474 22966 L-306360 22927 L-305500 22888 L-305394 22888 L-304920 22849 L-304728 22849 L-302406 22810 L-302328 22771 L-302207 22694 L-302173 22655 L-302135 22577 L-302041 22460 L-301825 22382 L-301244 22305 L-300858 22266 L-300085 22227 L-300007 22188 L-299310 22188 L-298768 22188 L-298727 22149 L-298597 22149 L-298133 22110 L-298094 22071 L-297960 22032 L-297592 21993 L-297562 21954 L-297412 21954 L-297011 21915 L-295187 21954 L-294380 21915 L-293662 21915 L-293645 21915 L-293331 21838 L-292770 21799 L-292268 21760 L-291749 21721 L-291728 21682 L-289984 21643 L-289815 21604 L-289619 21565 L-288725 21526 L-288207 21449 L-287996 21410 L-287738 21371 L-287029 21332 L-286079 21293 L-285420 21254 L-285381 21176 L-285095 21137 L-285012 21098 L-284917 21098 L-284785 21059 L-284708 21059 L-283972 21059 L-283635 21021 L-283586 21059 L-283330 21059 L-283044 21021 L-282618 21021 L-282038 20982 L-281779 20982 L-281628 20943 L-281380 20943 L-281342 20943 L-280545 20904 L-280507 20865 L-280330 20865 L-279921 20787 L-279692 20787 L-279616 20787 L-279484 20787 L-279368 20748 L-279020 20709 L-278957 20670 L-278804 20631 L-278064 20592 L-277952 20554 L-277782 20515 L-277743 20476 L-277448 20476 L-277047 20476 L-276871 20476 L-276776 20476 L-276467 20437 L-275665 20398 L-275207 20320 L-274687 20281 L-274198 20242 L-273503 20203 L-272456 20164 L-272187 20164 L-272133 20126 L-271973 20126 L-271721 20126 L-271475 20087 L-271396 20048 L-271182 19970 L-270870 19931 L-270406 19853 L-270392 19814 L-270096 19814 L-270082 19775 L-269091 19736 L-268419 19698 L-268084 19620 L-267468 19620 L-267331 19581 L-266692 19542 L-266562 19503 L-265611 19425 L-265512 19347 L-264952 19308 L-264543 19308 L-264115 19308 L-264024 19270 L-263189 19270 L-262826 19270 L-262786 19308 L-262654 19347 L-262477 19347 L-262260 19347 L-262207 19308 L-262050 19231 L-261797 19192 L-260697 19153 L-260619 19114 L-260400 19075 L-260269 18997 L-260233 18958 L-260039 18919 L-259940 18880 L-259456 18842 L-259172 18803 L-259012 18764 L-258917 18686 L-258645 18647 L-258375 18608 L-258359 18452 L-258221 18336 L-258083 18219 L-257756 18063 L-257447 17985 L-257406 17947 L-257330 17869 L-257215 17830 L-256364 17752 L-256038 17713 L-255707 17674 L-255574 17674 L-255358 17674 L-255342 17674 L-254661 17674 L-254568 17596 L-254544 17557 L-254529 17480 L-254490 17441 L-254078 17363 L-253809 17324 L-253769 17285 L-253401 17285 L-253191 17246 L-252108 17246 L-252092 17207 L-252063 17168 L-252043 17168 L-251666 17091 L-251411 17052 L-251163 16974 L-251024 16896 L-250891 16857 L-250560 16818 L-250467 16779 L-250406 16740 L-249848 16701 L-249786 16663 L-249631 16624 L-249436 16585 L-249244 16546 L-249228 16507 L-249190 16468 L-249151 16429 L-248880 16390 L-248757 16351 L-248725 16312 L-248625 16312 L-248470 16312 L-248328 16312 L-248044 16273 L-247719 16273 L-247023 16235 L-247000 16235 L-246491 16235 L-245645 16235 L-245282 16196 L-245127 16157 L-244523 16157 L-244353 16157 L-244293 16157 L-244237 16118 L-243182 16079 L-243163 16079 L-242258 16079 L-242236 16079 L-242069 16040 L-241827 16040 L-241777 16001 L-241722 15923 L-241585 15884 L-241545 15845 L-240617 15807 L-240562 15807 L-240440 15807 L-240368 15807 L-240252 15807 L-240074 15845 L-239091 15807 L-238952 15807 L-238834 15729 L-238540 15651 L-238292 15612 L-238256 15573 L-238201 15612 L-238180 15612 L-238047 15612 L-237967 15612 L-237830 15573 L-237207 15573 L-237041 15534 L-236576 15534 L-236400 15456 L-236383 15417 L-236323 15378 L-236206 15340 L-235724 15301 L-235028 15262 L-234655 15223 L-234486 15184 L-233520 15145 L-233365 15106 L-233187 15106 L-233095 15067 L-232839 15067 L-232669 15067 L-232022 15028 L-232011 15028 L-231431 14989 L-231293 14989 L-231237 14912 L-230502 14873 L-230464 14834 L-230386 14834 L-229744 14795 L-228970 14795 L-228877 14756 L-228828 14756 L-228813 14717 L-228777 14717 L-228761 14639 L-228698 14600 L-228682 14561 L-228662 14561 L-228507 14522 L-228468 14484 L-228452 14445 L-228413 14406 L-228273 14367 L-228197 14328 L-227832 14289 L-227484 14250 L-226711 14211 L-226108 14172 L-225912 14133 L-225682 14133 L-225544 14094 L-224906 14094 L-224617 14056 L-224595 14056 L-224135 14017 L-223902 14017 L-223847 13978 L-223809 13939 L-223306 13900 L-222756 13861 L-221968 13822 L-220845 13822 L-219950 13783 L-219862 13783 L-219563 13744 L-219491 13705 L-219375 13666 L-218199 13628 L-217851 13589 L-217828 13550 L-217309 13511 L-217162 13472 L-217054 13433 L-216845 13394 L-216690 13355 L-216667 13316 L-216473 13277 L-216397 13238 L-216253 13200 L-215452 13161 L-215306 13122 L-215026 13083 L-214849 13044 L-214539 13005 L-213727 12966 L-212799 12966 L-211207 12927 L-210964 12888 L-210323 12849 L-210127 12810 L-210049 12771 L-209532 12733 L-209300 12733 L-209277 12694 L-209145 12694 L-208806 12655 L-208795 12616 L-208579 12577 L-208541 12538 L-208000 12499 L-207471 12421 L-207403 12382 L-207110 12343 L-206563 12266 L-206527 12227 L-206475 12188 L-206375 12110 L-206143 12110 L-205563 12110 L-205465 12149 L-205391 12149 L-205059 12110 L-204309 12071 L-204270 12032 L-203590 12032 L-203435 12032 L-203109 11993 L-202893 11954 L-202662 11954 L-202365 11915 L-202119 11877 L-201768 11838 L-201715 11799 L-200955 11760 L-200262 11682 L-199912 11604 L-199448 11565 L-198815 11526 L-198406 11487 L-198328 11526 L-197902 11526 L-197259 11487 L-197090 11487 L-196348 11449 L-196161 11410 L-195866 11371 L-195294 11332 L-195268 11293 L-194249 11293 L-193762 11254 L-193669 11254 L-193608 11215 L-193320 11176 L-193034 11137 L-192972 11098 L-192792 11098 L-192081 11059 L-191905 11021 L-191707 10982 L-191555 10943 L-191464 10904 L-191402 10865 L-190860 10865 L-190549 10826 L-190458 10748 L-190380 10670 L-189813 10631 L-189722 10631 L-189467 10554 L-189141 10476 L-189103 10359 L-188949 10242 L-188717 10203 L-188394 10164 L-187262 10126 L-187063 10087 L-186537 10048 L-186292 10048 L-186047 10009 L-185967 9970 L-185947 9892 L-185870 9853 L-185814 9775 L-185737 9736 L-185698 9698 L-185519 9620 L-185482 9581 L-185251 9542 L-184013 9503 L-183686 9464 L-183647 9386 L-182865 9347 L-182718 9308 L-181727 9270 L-181520 9270 L-181094 9270 L-180967 9270 L-180563 9308 L-180475 9270 L-179818 9231 L-179111 9192 L-178502 9153 L-178309 9114 L-178076 9036 L-177457 8997 L-177162 8919 L-176722 8880 L-176568 8842 L-176413 8803 L-175657 8725 L-175306 8686 L-174904 8686 L-174865 8647 L-173859 8647 L-173540 8647 L-173293 8608 L-172593 8530 L-172519 8491 L-172207 8452 L-171127 8414 L-170935 8375 L-170702 8375 L-170507 8336 L-170007 8297 L-169253 8297 L-169139 8297 L-168939 8297 L-168898 8258 L-168805 8219 L-168492 8180 L-168404 8141 L-168288 8102 L-167970 8102 L-167901 8063 L-167876 8024 L-167514 7985 L-167476 7947 L-167259 7908 L-166756 7947 L-166153 7985 L-165942 8063 L-165789 8102 L-165751 8102 L-165707 8024 L-165672 7985 L-165540 7947 L-165130 7908 L-164760 7869 L-164706 7830 L-164690 7791 L-164611 7752 L-164201 7713 L-164048 7674 L-164032 7596 L-163993 7557 L-163814 7480 L-163738 7441 L-163507 7402 L-162717 7363 L-162639 7363 L-161904 7285 L-161749 7246 L-161509 7168 L-161447 7091 L-161362 7052 L-161339 6974 L-161221 6896 L-161207 6818 L-161145 6740 L-161108 6701 L-161013 6663 L-160991 6663 L-160875 6624 L-160642 6585 L-160472 6507 L-159652 6507 L-159251 6468 L-159096 6468 L-158591 6468 L-158477 6468 L-157880 6468 L-157506 6429 L-157454 6429 L-157260 6390 L-156564 6390 L-156526 6351 L-156381 6351 L-156156 6312 L-155894 6273 L-155520 6235 L-155094 6196 L-154965 6157 L-154945 6079 L-154452 6079 L-153755 6040 L-153524 6079 L-153370 6079 L-152402 6079 L-152177 6118 L-151899 6118 L-151883 6079 L-151357 6040 L-150828 6001 L-150680 5962 L-150661 5923 L-150119 5884 L-149809 5845 L-149691 5768 L-149500 5690 L-149363 5612 L-149036 5573 L-148919 5534 L-148610 5534 L-148184 5495 L-148128 5495 L-147895 5534 L-147799 5534 L-147666 5534 L-147369 5534 L-147255 5495 L-146891 5456 L-146578 5456 L-146095 5417 L-145925 5378 L-145677 5340 L-145461 5301 L-144935 5262 L-144748 5184 L-144393 5145 L-143758 5106 L-143603 5028 L-142862 4989 L-142443 4950 L-142263 4912 L-142186 4912 L-142055 4873 L-141762 4834 L-141721 4795 L-141491 4795 L-141298 4756 L-141043 4756 L-140617 4717 L-140508 4678 L-139889 4678 L-139708 4678 L-138496 4678 L-137849 4717 L-137698 4717 L-137661 4717 L-137529 4717 L-137428 4678 L-137412 4639 L-137330 4600 L-137119 4561 L-137002 4522 L-136639 4484 L-136267 4445 L-135571 4406 L-135169 4367 L-135064 4328 L-135046 4289 L-134101 4250 L-133906 4172 L-133754 4133 L-133698 4056 L-132942 4056 L-132925 4133 L-132436 4172 L-132306 4250 L-132113 4250 L-131222 4211 L-131183 4172 L-131145 4133 L-131068 4094 L-131029 4094 L-130952 4056 L-130868 4017 L-130604 3978 L-130371 3939 L-130309 3900 L-129829 3861 L-129492 3861 L-129381 3822 L-129188 3783 L-129011 3744 L-128952 3744 L-128916 3705 L-128646 3666 L-127948 3589 L-127895 3511 L-127601 3433 L-127199 3355 L-126635 3316 L-125762 3277 L-125457 3238 L-125419 3200 L-125296 3161 L-124698 3122 L-124568 3083 L-124368 3044 L-124330 3005 L-123717 2966 L-123538 2927 L-123523 2849 L-123305 2810 L-123227 2733 L-122920 2733 L-122788 2694 L-122556 2694 L-122221 2694 L-122130 2655 L-122029 2616 L-121992 2577 L-121448 2577 L-121256 2538 L-120715 2499 L-120289 2460 L-120157 2460 L-120095 2460 L-119864 2460 L-119848 2460 L-119360 2499 L-119279 2499 L-119261 2499 L-117869 2538 L-117733 2538 L-117619 2499 L-116984 2460 L-116845 2421 L-116727 2382 L-116573 2305 L-116536 2266 L-116458 2227 L-116404 2266 L-115412 2266 L-115375 2227 L-115242 2227 L-115182 2149 L-115083 2110 L-114793 2071 L-114779 2032 L-114469 2032 L-114369 2071 L-113904 2032 L-113850 6157 L-113708 10242 L-113580 14367 L-113348 18491 L-112779 18452 L-112690 18414 L-112667 18414 L-112380 18375 L-111698 18336 L-111621 18297 L-111584 18258 L-111568 18219 L-111368 18180 L-110948 18102 L-110677 18102 L-109804 18063 L-109511 18063 L-109400 18063 L-108666 18024 L-108539 17985 L-108179 17947 L-107927 17947 L-107055 17908 L-106886 17908 L-106825 17869 L-106770 17830 L-106422 17791 L-106399 17752 L-106190 17713 L-106050 17674 L-105919 17635 L-105796 17596 L-105673 17557 L-105436 17519 L-105145 17480 L-104486 17441 L-104464 17402 L-104310 17363 L-104192 17324 L-103228 17285 L-103172 17246 L-102939 17207 L-102917 17168 L-102591 17129 L-102476 17129 L-102436 17091 L-101934 17091 L-101635 17052 L-101523 17013 L-100981 16974 L-99922 16935 L-99296 16896 L-99124 16857 L-98876 16818 L-98620 16779 L-98489 16740 L-98468 16701 L-97800 16663 L-96904 16624 L-96858 16585 L-96788 16546 L-96672 16546 L-96452 16507 L-96261 16507 L-96221 16468 L-96029 16429 L-95370 16429 L-94753 16390 L-94714 16624 L-94118 16857 L-94056 17052 L-92934 17246 L-92879 17246 L-92759 17207 L-92493 17168 L-92429 17168 L-92160 17168 L-92084 17129 L-91868 17129 L-91385 17091 L-91115 17052 L-90984 17052 L-90752 16974 L-90727 16857 L-90712 16701 L-90690 16507 L-90674 16312 L-90650 16118 L-90636 15884 L-90612 15651 L-90597 15417 L-90574 15223 L-90559 15028 L-90536 14834 L-90520 14717 L-90492 14600 L-90474 14445 L-90456 14367 L-90420 14250 L-90380 14172 L-90365 14094 L-90340 13978 L-90288 13900 L-90263 13822 L-90187 13744 L-90149 13705 L-90133 13628 L-90070 13550 L-90056 13472 L-90010 13355 L-89939 13277 L-89901 13238 L-89876 13161 L-89824 13083 L-89799 13044 L-89783 13005 L-89721 12966 L-89684 12927 L-89607 12888 L-89592 12849 L-89564 12771 L-89491 12733 L-89452 12694 L-89298 12616 L-89182 12577 L-89127 12538 L-89045 12499 L-89011 12460 L-88987 12421 L-88833 12382 L-88818 12343 L-88716 12305 L-88406 12266 L-88370 12227 L-88154 12188 L-88043 12188 L-88019 12188 L-87788 12227 L-87556 12227 L-87181 12188 L-87053 12149 L-87013 12110 L-86961 12071 L-86860 12032 L-86823 11993 L-86612 11993 L-86548 11954 L-86435 11954 L-86224 11915 L-86187 11877 L-85815 11838 L-85761 11799 L-85683 11760 L-85661 11721 L-85568 11682 L-85368 11643 L-85330 11643 L-85308 11643 L-85078 11643 L-85058 11604 L-84848 11604 L-84754 11565 L-84716 11526 L-84380 11487 L-84267 11449 L-84227 11410 L-84213 11410 L-84074 11371 L-84059 11371 L-83804 11371 L-83222 11332 L-83145 11293 L-83107 11254 L-83063 11215 L-83014 11176 L-82834 11137 L-82820 11098 L-82720 11059 L-82642 11021 L-82582 10982 L-82216 10904 L-82134 10865 L-82116 10826 L-82063 10787 L-81094 10748 L-80963 10709 L-80941 10670 L-80721 10631 L-80652 10592 L-80630 10554 L-80383 10515 L-80127 10476 L-79996 10437 L-79957 10398 L-79935 10320 L-79880 10242 L-79792 10203 L-79731 10126 L-79506 10087 L-79376 10048 L-79277 10009 L-79222 9970 L-79029 9931 L-78951 9892 L-78618 9853 L-78487 9814 L-78309 9775 L-78294 9736 L-78269 9698 L-77999 9698 L-76798 9659 L-76762 9659 L-76645 9620 L-76412 9581 L-76221 9542 L-76182 9542 L-76126 9503 L-76022 9503 L-75508 9464 L-75214 9425 L-74982 9386 L-74707 9347 L-74690 9308 L-74657 9270 L-74617 9231 L-74580 9192 L-74478 9153 L-74401 9114 L-74308 9075 L-74181 9036 L-74077 8997 L-73898 8997 L-73706 8958 L-72877 8958 L-72761 8919 L-72506 8880 L-72466 8842 L-72367 8803 L-72307 8803 L-72064 8764 L-72041 8764 L-71920 8725 L-71848 8686 L-71809 8647 L-71577 8608 L-71401 8569 L-70881 8530 L-70804 8491 L-70788 8452 L-70377 8452 L-70014 8452 L-69898 8414 L-69875 8414 L-69835 8375 L-69759 8336 L-69705 8297 L-69356 8258 L-69240 8219 L-69063 8219 L-69007 8180 L-68984 8180 L-68870 8141 L-68582 8102 L-68350 8063 L-68135 8024 L-67925 7985 L-67714 7908 L-66888 7869 L-66549 7830 L-65541 7791 L-65178 7752 L-64133 7713 L-64055 7674 L-63608 7635 L-63397 7596 L-63205 7557 L-62910 7519 L-62869 7480 L-62716 7441 L-62663 7363 L-62431 7324 L-61850 7285 L-61656 7246 L-61037 7246 L-60548 7207 L-60496 7168 L-59848 7129 L-59698 7091 L-59528 7052 L-59155 7013 L-59140 7013 L-59041 6974 L-59002 6974 L-58871 6935 L-58438 6935 L-58135 6935 L-57749 6935 L-57609 6896 L-57448 6896 L-57014 6896 L-56975 6857 L-56874 6857 L-56759 6818 L-56581 6818 L-56411 6779 L-56292 6740 L-55931 6663 L-55714 6624 L-55581 6585 L-55441 6585 L-54942 6585 L-54864 6585 L-54630 6546 L-54306 6546 L-53919 6507 L-53896 6468 L-53276 6468 L-53006 6429 L-52773 6429 L-52348 6390 L-52076 6351 L-51935 6312 L-51726 6273 L-51520 6235 L-50969 6196 L-50838 6196 L-50451 6157 L-50181 6157 L-50078 6118 L-49818 6079 L-49616 6040 L-49547 6001 L-49508 5962 L-48941 5923 L-48734 5884 L-48707 5845 L-48478 5807 L-48401 5768 L-47883 5729 L-47845 5690 L-47689 5651 L-47396 5612 L-47124 5573 L-46761 5534 L-46412 5534 L-46040 5495 L-45920 5495 L-45848 5456 L-45368 5417 L-45306 5378 L-44971 5340 L-44840 5301 L-44762 5262 L-44633 5223 L-44169 5223 L-43875 5184 L-43799 5184 L-43487 5145 L-43179 5106 L-43115 5067 L-43086 5028 L-42311 4989 L-42206 4912 L-42119 4873 L-42095 4834 L-41941 4795 L-41720 4756 L-41553 4717 L-41166 4678 L-41111 4639 L-41048 4639 L-40430 4600 L-40314 4561 L-39990 4522 L-39465 4484 L-39114 4445 L-39038 4406 L-38419 4367 L-38008 4328 L-37707 4289 L-37396 4250 L-37258 4211 L-36634 4211 L-36252 4172 L-35129 4172 L-34068 4133 L-34006 4094 L-33645 4056 L-33544 4056 L-33528 4017 L-33154 4017 L-32149 3939 L-31762 3900 L-31555 3822 L-31466 3783 L-31091 3744 L-30798 3705 L-30486 3666 L-29698 3628 L-29610 3589 L-29557 3550 L-29519 3511 L-29001 3472 L-28886 3433 L-28677 3394 L-28538 3355 L-27934 3316 L-27105 3277 L-26822 3238 L-26640 3238 L-26138 3200 L-25934 3200 L-25379 3200 L-24874 3161 L-24683 3122 L-24644 3083 L-24015 3044 L-23562 3005 L-23148 2966 L-22539 2927 L-21419 2927 L-21005 2888 L-20681 2888 L-20467 2849 L-20040 2810 L-19899 2771 L-19808 2733 L-19577 2694 L-18990 2694 L-18183 2655 L-16983 2655 L-16869 2655 L-16737 2616 L-16649 2577 L-16608 2616 L-16587 2655 L-16576 2733 L-16482 2810 L-15718 2810 L-15012 2810 L-14972 2771 L-14686 2733 L-14145 2694 L-14084 2655 L-14044 2616 L-14029 2577 L-13772 2538 L-13448 2499 L-13309 2460 L-13038 2421 L-12999 2382 L-12892 2343 L-12490 2305 L-12381 2266 L-12303 2227 L-12006 2188 L-11964 2149 L-11745 2149 L-11562 2149 L-11451 2149 L-11437 2110 L-11410 2110 L-10986 2071 L-10740 2032 L-10404 1993 L-10369 1954 L-10235 1915 L-9981 1915 L-9827 1877 L-8920 1877 L-8821 1838 L-8626 1760 L-7619 1721 L-7118 1682 L-7040 1643 L-7002 1604 L-6794 1565 L-6675 1526 L-6577 1487 L-6391 1449 L-6226 1410 L-5990 1371 L-5570 1332 L-5555 1293 L-5246 1254 L-4200 1215 L-3983 1176 L-3967 1137 L-3945 1098 L-3736 1059 L-3577 1021 L-3519 982 L-2074 943 L-1748 943 L-1546 943 L-1347 943 L-1197 943 L-927 904 L-486 865 L-268 865 L426 826 L928 787 L1253 748 L1524 748 L2245 709 L2400 709 L3598 631 L3987 592 L4103 515 L4256 476 L4410 437 L5380 398 L5432 359 L5680 320 L5702 281 L5922 242 L6360 164 L6500 87" />
</svg>
