<svg xmlns="http://www.w3.org/2000/svg" version="1.1" viewBox="0 0 6500 1000">
	<path fill="none" stroke="gold" stroke-width="125" stroke-linecap="round" stroke-linejoin="round" d="M0 50763  L-806286 50763 L-806102 50741 L-805612 50697 L-805318 50675 L-805007 50631 L-804773 50609 L-804719 50565 L-804660 50521 L-804507 50499 L-804466 50454 L-804334 50432 L-804041 50410 L-803500 50410 L-802890 50388 L-802842 50388 L-802202 50366 L-802169 50366 L-801643 50366 L-801511 50344 L-801120 50300 L-800792 50256 L-800675 50212 L-800464 50168 L-799747 50168 L-799177 50146 L-799070 50146 L-798895 50123 L-798674 50079 L-798272 50057 L-798247 50013 L-797319 49969 L-797231 49925 L-797149 49881 L-797079 49837 L-796782 49815 L-796630 49771 L-794739 49793 L-794639 49793 L-794376 49793 L-794083 49815 L-793941 49771 L-793693 49771 L-793657 49748 L-793498 49726 L-793035 49682 L-792782 49660 L-792570 49616 L-792318 49594 L-791970 49572 L-791042 49528 L-790949 49484 L-790538 49462 L-789367 49418 L-788178 49395 L-788086 49351 L-788058 49307 L-787792 49263 L-787493 49219 L-787364 49175 L-787327 49131 L-786512 49131 L-786128 49153 L-785068 49175 L-785007 49175 L-784741 49616 L-784270 50035 L-784078 50454 L-783814 50874 L-783477 50851 L-783342 50829 L-782886 50807 L-782143 50785 L-782125 50763 L-781960 50719 L-781892 50719 L-781376 50697 L-780347 50697 L-780151 50675 L-779663 50653 L-779301 50631 L-778892 50631 L-778506 50653 L-776803 50653 L-776705 50653 L-776633 50653 L-776571 50653 L-776387 50631 L-776051 50631 L-775410 50609 L-775333 50587 L-775272 50587 L-775085 50565 L-775006 50565 L-774829 50543 L-774809 50521 L-774579 50521 L-774192 50499 L-773303 50499 L-773264 50476 L-773175 50454 L-773148 50410 L-772140 50388 L-771990 50344 L-771966 50322 L-771833 50300 L-771793 50278 L-770535 50256 L-770477 50256 L-769937 50234 L-769885 50234 L-769838 50234 L-769443 50212 L-769304 50190 L-769104 50168 L-768957 50168 L-768792 50168 L-768516 50190 L-768157 50190 L-767605 50168 L-766960 50146 L-766701 50101 L-766547 50079 L-766146 50057 L-766106 50035 L-765985 50013 L-765924 50035 L-765910 50035 L-765816 50035 L-765523 50013 L-765371 49925 L-765041 49881 L-764963 49837 L-764887 49815 L-764661 49748 L-764594 49704 L-764366 49660 L-764314 49616 L-764149 49594 L-763143 49572 L-762960 49550 L-762409 49528 L-762016 49484 L-761619 49462 L-760769 49418 L-760690 49395 L-760111 49373 L-759670 49373 L-759429 49351 L-759272 49351 L-758871 49307 L-758850 49307 L-758406 49285 L-758000 49263 L-757864 49219 L-757689 49175 L-757553 49131 L-757302 49087 L-756303 49065 L-756220 49043 L-756085 49020 L-756046 48998 L-755156 48976 L-754941 48954 L-754498 48932 L-754380 48910 L-754323 48888 L-753647 48888 L-753547 48866 L-753518 48866 L-752176 48844 L-751770 48822 L-751731 48800 L-750803 48778 L-750704 48756 L-750571 48734 L-750167 48712 L-750141 48690 L-750048 48667 L-749832 48645 L-749421 48601 L-748267 48557 L-747975 48513 L-747947 48469 L-747339 48447 L-747089 48403 L-747069 48381 L-746139 48359 L-746088 48315 L-745966 48292 L-745948 48248 L-745792 48226 L-745617 48182 L-745481 48160 L-745424 48138 L-745316 48116 L-745231 48094 L-744998 48072 L-744923 48050 L-744614 48028 L-744496 48006 L-744327 47984 L-744235 47962 L-744133 47962 L-744109 47939 L-744032 47939 L-743934 47895 L-743568 47873 L-743463 47851 L-742960 47829 L-742508 47807 L-742469 47785 L-742446 47763 L-742405 47741 L-742276 47719 L-742175 47697 L-741734 47675 L-741451 47653 L-740859 47631 L-740729 47609 L-740454 47564 L-740302 47542 L-740148 47520 L-740063 47476 L-739985 47454 L-739800 47432 L-739749 47432 L-739721 47410 L-739642 47388 L-739619 47366 L-739335 47322 L-738732 47278 L-737736 47256 L-737438 47234 L-736704 47212 L-736460 47189 L-736370 47167 L-735793 47145 L-735094 47123 L-734342 47101 L-734023 47079 L-733641 47035 L-733563 47013 L-732929 46991 L-732744 46969 L-732656 46969 L-732526 46969 L-732213 46947 L-732164 46925 L-732022 46903 L-732000 46881 L-731033 46859 L-730487 46836 L-730009 46836 L-729948 46836 L-729624 46836 L-729603 46814 L-729540 46814 L-729330 46792 L-729253 46770 L-729199 46748 L-729176 46726 L-729137 46704 L-729121 46682 L-728364 46660 L-728348 46638 L-727548 46616 L-727396 46594 L-726490 46572 L-725984 46550 L-725755 46506 L-725714 46506 L-725598 46484 L-725422 46461 L-724668 46484 L-724533 46461 L-724369 46439 L-724051 46417 L-723874 46373 L-722853 46329 L-722829 46285 L-722578 46263 L-722365 46219 L-721731 46197 L-721493 46153 L-721460 46108 L-721282 46064 L-721202 46020 L-721112 45998 L-721048 45954 L-720608 45910 L-720584 45888 L-720043 45866 L-719788 45844 L-719293 45822 L-718416 45800 L-718379 45778 L-718326 45756 L-718285 45733 L-718168 45711 L-717891 45689 L-717684 45645 L-717487 45601 L-717464 45557 L-717413 45513 L-717374 45491 L-717296 45469 L-716699 45425 L-716639 45403 L-716535 45380 L-716381 45358 L-715749 45336 L-715068 45314 L-714765 45270 L-714419 45248 L-714221 45226 L-714173 45182 L-713852 45160 L-713225 45138 L-713078 45116 L-713042 45094 L-712984 45072 L-712907 45028 L-712666 45028 L-712578 45005 L-712484 44983 L-712190 44961 L-712056 44939 L-711996 44917 L-711959 44873 L-711686 44873 L-710680 44851 L-710505 44829 L-710454 44829 L-710162 44807 L-709969 44763 L-709636 44741 L-709129 44719 L-708567 44675 L-708553 44630 L-708536 44608 L-708436 44564 L-708321 44520 L-708282 44476 L-708244 44454 L-708179 44454 L-708150 44432 L-708011 44454 L-707719 44454 L-707669 44454 L-707563 44454 L-707299 44432 L-706834 44410 L-706689 44410 L-706635 44366 L-706578 44344 L-706387 44322 L-706022 44300 L-705807 44300 L-705612 44300 L-705554 44300 L-705495 44255 L-705342 44233 L-705072 44211 L-704642 44322 L-704627 44322 L-704550 44300 L-704485 44277 L-704356 44123 L-704332 44101 L-704048 44079 L-704001 44057 L-703946 44035 L-703484 44013 L-703445 44013 L-703404 43991 L-703214 43969 L-702733 43947 L-702246 43924 L-702230 43902 L-702192 43880 L-701935 43858 L-701858 43814 L-701628 43792 L-701612 43748 L-701318 43704 L-700875 43682 L-700429 43660 L-699924 43638 L-699770 43616 L-699484 43594 L-699443 43549 L-699112 43527 L-698890 43505 L-698373 43461 L-698298 43439 L-698050 43395 L-697855 43351 L-697796 43329 L-697019 43307 L-696945 43307 L-696714 43285 L-696698 43285 L-696636 43263 L-696440 43241 L-695976 43241 L-695953 43219 L-695823 43219 L-694522 43219 L-694506 43219 L-694429 43196 L-694335 43196 L-694118 43196 L-693966 43174 L-693787 43196 L-693733 43219 L-693446 43241 L-693407 43241 L-693037 43241 L-692597 43241 L-692414 43241 L-692093 43219 L-691798 43219 L-691352 43174 L-691280 43152 L-690818 43108 L-690380 43086 L-690198 43064 L-688744 43020 L-688612 42998 L-688155 42954 L-687928 42932 L-687542 42888 L-687025 42844 L-686071 42799 L-685277 42755 L-684603 42733 L-684177 42689 L-683866 42667 L-683636 42601 L-682953 42535 L-682940 42469 L-682730 42380 L-682708 42358 L-682533 42314 L-681583 42292 L-681315 42248 L-680500 42226 L-680189 42182 L-680152 42160 L-680095 42116 L-679478 42093 L-678840 42049 L-677214 42027 L-676540 42005 L-675898 42005 L-675820 42005 L-675764 42005 L-675728 42005 L-675700 41983 L-675588 41939 L-675570 41917 L-675547 41895 L-675394 41873 L-675340 41829 L-675263 41807 L-675143 41785 L-675046 41763 L-674928 41741 L-674659 41696 L-674389 41674 L-674372 41630 L-674172 41608 L-674025 41564 L-673798 41542 L-673664 41520 L-673355 41498 L-673295 41476 L-672942 41432 L-672593 41410 L-672493 41388 L-672428 41343 L-672368 41321 L-671984 41277 L-671603 41255 L-671499 41233 L-671239 41211 L-670967 41167 L-670808 41145 L-670776 41123 L-670714 41101 L-670572 41079 L-670389 41057 L-670344 41035 L-670056 41035 L-670040 41013 L-669807 41013 L-669746 40990 L-669708 40990 L-669128 40968 L-668994 40946 L-668971 40858 L-668952 40704 L-668935 40527 L-668919 40351 L-668895 40174 L-668878 40042 L-668857 39887 L-668840 39733 L-668817 39645 L-668800 39557 L-668779 39490 L-668762 39446 L-668713 39380 L-668641 39314 L-668606 39204 L-668582 39115 L-668547 39027 L-668505 38939 L-668468 38895 L-668453 38806 L-668428 38740 L-668391 38696 L-668374 38630 L-668351 38586 L-668334 38542 L-668315 38498 L-668299 38454 L-668270 38387 L-668244 38321 L-668198 38299 L-668182 38255 L-668140 38233 L-668092 38189 L-668021 38145 L-668006 38101 L-667990 38056 L-667928 38034 L-667889 38012 L-667849 37990 L-667683 37968 L-667618 37946 L-667602 37924 L-667558 37880 L-667500 37858 L-667287 37836 L-667254 37814 L-667211 37792 L-667133 37770 L-666596 37748 L-666518 37726 L-666413 37681 L-666325 37659 L-666148 37637 L-665798 37615 L-665642 37593 L-665204 37571 L-665047 37549 L-664918 37527 L-664214 37483 L-664013 37461 L-663052 37417 L-662570 37395 L-662471 37395 L-662378 37373 L-662133 37350 L-662060 37328 L-661617 37284 L-661521 37262 L-661506 37240 L-661490 37218 L-661465 37196 L-660999 37174 L-660782 37152 L-660643 37130 L-660349 37108 L-660261 37086 L-660219 37064 L-660189 37042 L-660017 37020 L-659958 36998 L-659882 36975 L-659801 36953 L-659731 36953 L-659422 36931 L-659337 36909 L-659123 36887 L-659088 36865 L-658405 36843 L-658306 36821 L-658101 36799 L-658054 36777 L-657776 36755 L-657714 36733 L-657697 36689 L-657619 36667 L-657311 36622 L-657286 36600 L-657232 36556 L-657209 36534 L-657087 36512 L-656951 36468 L-656707 36446 L-656581 36446 L-655935 36424 L-655919 36424 L-655894 36424 L-655714 36380 L-655637 36358 L-655546 36336 L-655118 36314 L-654702 36292 L-654309 36247 L-654230 36225 L-654211 36203 L-653848 36181 L-653612 36159 L-653384 36137 L-653070 36115 L-652992 36093 L-652912 36049 L-652734 36005 L-652718 35983 L-652453 35939 L-652372 35917 L-652142 35894 L-651916 35872 L-651601 35872 L-651425 35850 L-651064 35850 L-650673 35828 L-650603 35784 L-650539 35762 L-650399 35718 L-650347 35696 L-650246 35652 L-649744 35630 L-649547 35608 L-649300 35586 L-649114 35564 L-648815 35542 L-648739 35519 L-648573 35475 L-647688 35453 L-647660 35409 L-647537 35365 L-646958 35343 L-646880 35321 L-646167 35321 L-645855 35321 L-645642 35321 L-645625 35321 L-645238 35321 L-644713 35277 L-644267 35255 L-643938 35233 L-643785 35211 L-643459 35211 L-643281 35189 L-643199 35189 L-642993 35144 L-642817 35122 L-641888 35100 L-640999 35078 L-640960 35056 L-640732 35056 L-640353 35034 L-639565 35012 L-639331 34990 L-639255 34968 L-638897 34946 L-638326 34902 L-638059 34880 L-637672 34858 L-637569 34858 L-637399 34858 L-636780 34858 L-636569 34858 L-636261 34858 L-636208 34836 L-636081 34814 L-636027 34791 L-635908 34769 L-635572 34725 L-634613 34703 L-634481 34659 L-634280 34637 L-633648 34615 L-633337 34593 L-632923 34571 L-632896 34549 L-632750 34527 L-632330 34505 L-630998 34505 L-630951 34483 L-630822 34439 L-630805 34416 L-630227 34372 L-630022 34350 L-629992 34328 L-629951 34306 L-629894 34284 L-629856 34262 L-629778 34240 L-629635 34218 L-629181 34196 L-629063 34174 L-628777 34152 L-628405 34130 L-628308 34108 L-627982 34086 L-627627 34063 L-627457 34041 L-627410 34019 L-627301 33997 L-627212 33975 L-627184 33953 L-627108 33909 L-626804 33887 L-626770 33843 L-626699 33821 L-626331 33799 L-625995 33777 L-625914 33777 L-625695 33755 L-625523 33733 L-625496 33711 L-624998 33688 L-624449 33644 L-623569 33622 L-623470 33578 L-623393 33556 L-623119 33534 L-622872 33490 L-622798 33468 L-622736 33424 L-622617 33402 L-622575 33380 L-622465 33358 L-622388 33313 L-621687 33291 L-621442 33269 L-621402 33247 L-621246 33225 L-620647 33225 L-620420 33225 L-620328 33225 L-619852 33225 L-619255 33181 L-618735 33159 L-618714 33137 L-618569 33115 L-618249 33115 L-617707 33115 L-617475 33115 L-617305 33115 L-616818 33093 L-616591 33071 L-616506 33049 L-616159 33027 L-615833 33027 L-615310 33005 L-614983 32983 L-614383 32960 L-614185 32916 L-614133 32894 L-614092 32872 L-613811 32850 L-613127 32806 L-612817 32784 L-612792 32740 L-612600 32718 L-612378 32696 L-612292 32674 L-611628 32630 L-611604 32607 L-611382 32563 L-611052 32541 L-610700 32497 L-610495 32475 L-610263 32431 L-610005 32409 L-609815 32365 L-609768 32343 L-609541 32321 L-609506 32299 L-609350 32277 L-609135 32255 L-608962 32232 L-608871 32210 L-608594 32188 L-608350 32166 L-608035 32144 L-607608 32144 L-607571 32144 L-607088 32144 L-606854 32144 L-606642 32122 L-606416 32100 L-605867 32100 L-605619 32078 L-604785 32078 L-604729 32056 L-604708 32034 L-604550 32012 L-604088 31990 L-604048 31968 L-603708 31924 L-603574 31902 L-603352 31879 L-602780 31857 L-602308 31835 L-602113 31813 L-601920 31791 L-601731 31769 L-601629 31747 L-601261 31725 L-601214 31703 L-601133 31681 L-599839 31659 L-599791 31637 L-599523 31637 L-599378 31637 L-598827 31637 L-598710 31615 L-598628 31593 L-598269 31571 L-598045 31549 L-597764 31527 L-597435 31482 L-596927 31460 L-596815 31438 L-596736 31416 L-596571 31394 L-596277 31394 L-595808 31394 L-595612 31416 L-595561 31416 L-594911 31394 L-594790 31372 L-594335 31372 L-594300 31350 L-593831 31328 L-593721 31306 L-593704 31284 L-593488 31284 L-593307 31262 L-592776 31262 L-591746 31262 L-591547 31240 L-591088 31218 L-590140 31174 L-590041 31151 L-589687 31107 L-589627 31085 L-589612 31063 L-589577 31041 L-589208 31019 L-589088 30997 L-588846 30975 L-588682 30953 L-588494 30931 L-588374 30909 L-587303 30865 L-586445 30843 L-586233 30799 L-586135 30776 L-585961 30732 L-585628 30710 L-585556 30688 L-585499 30666 L-585323 30666 L-584934 30644 L-584699 30622 L-584588 30600 L-584471 30578 L-583490 30556 L-583464 30534 L-582870 30490 L-582838 30490 L-582689 30468 L-582405 30446 L-581493 30446 L-580547 30446 L-580394 30424 L-580291 30424 L-580159 30401 L-580016 30379 L-579990 30357 L-579876 30335 L-579657 30313 L-578976 30291 L-578847 30269 L-578543 30247 L-578304 30203 L-577971 30181 L-577332 30159 L-576990 30115 L-576928 30093 L-576772 30093 L-575851 30093 L-575380 30093 L-575337 30093 L-575324 30071 L-575283 30048 L-575261 30026 L-575234 30004 L-575090 29982 L-574667 29960 L-574332 29960 L-574141 29938 L-573712 29938 L-573524 29916 L-573135 29872 L-572601 29850 L-572229 29828 L-572207 29828 L-571957 29806 L-571839 29784 L-571763 29762 L-571627 29740 L-571588 29718 L-571508 29696 L-571114 29673 L-570618 29651 L-570506 29607 L-570333 29585 L-570024 29563 L-569577 29541 L-569254 29519 L-569111 29475 L-568684 29431 L-568531 29387 L-568476 29343 L-567662 29320 L-567642 29298 L-567270 29276 L-567214 29276 L-566085 29254 L-566017 29254 L-565458 29232 L-565264 29210 L-565127 29188 L-564894 29166 L-564547 29144 L-564512 29100 L-564477 29078 L-564409 29034 L-564060 29012 L-563888 28990 L-563403 28968 L-563387 28945 L-563061 28923 L-562904 28901 L-561763 28857 L-561738 28835 L-561547 28791 L-561353 28769 L-561103 28747 L-561086 28725 L-560066 28703 L-559768 28681 L-559692 28659 L-559556 28615 L-559380 28592 L-558804 28548 L-558588 28526 L-558524 28504 L-558394 28482 L-558357 28438 L-557834 28416 L-557696 37108 L-557681 37108 L-557658 37108 L-557638 37108 L-557411 28394 L-556635 28394 L-556594 28394 L-556226 28394 L-556147 28372 L-556095 28350 L-555422 28328 L-554680 28306 L-554255 28306 L-553807 28284 L-552746 28262 L-552434 28217 L-552024 28217 L-551952 28195 L-551428 28195 L-551333 28195 L-551315 28195 L-550870 28173 L-550685 28129 L-549905 28085 L-549232 28063 L-548820 27997 L-548588 27953 L-548448 27931 L-548366 27887 L-548346 27864 L-548270 27864 L-548142 27842 L-547825 27864 L-547600 27864 L-547275 27842 L-547213 27842 L-546843 27842 L-546810 27842 L-546602 27842 L-545934 27842 L-545857 27842 L-545699 27798 L-545588 27798 L-545262 27776 L-545107 27754 L-544766 27754 L-544709 27710 L-544371 27666 L-544167 27644 L-544114 27600 L-542738 27578 L-542608 27556 L-542175 27534 L-541854 27512 L-541026 27467 L-540903 27445 L-540172 27401 L-540016 27357 L-539976 27335 L-539922 27313 L-539899 27291 L-539785 27269 L-539488 27247 L-539198 27225 L-539144 27203 L-539023 27181 L-538993 27159 L-538894 27136 L-538450 27136 L-538298 27114 L-537463 27114 L-536920 27092 L-536586 27092 L-536570 27070 L-536495 27048 L-536379 27026 L-536184 27004 L-535920 26982 L-535085 26960 L-534989 26938 L-534467 26916 L-534426 26894 L-534326 26872 L-533498 26872 L-533363 26850 L-533024 26850 L-532470 26828 L-532090 26806 L-531927 26784 L-531617 26761 L-530805 26739 L-530499 26717 L-530230 26717 L-529909 26717 L-529588 26739 L-529313 26739 L-528484 26695 L-528389 26673 L-528296 26607 L-528192 26541 L-527805 26475 L-527325 26431 L-527308 26409 L-527190 26386 L-526822 26342 L-526727 26320 L-525893 26276 L-525816 26254 L-525517 26232 L-525426 26210 L-525019 26166 L-524908 26122 L-524209 26100 L-523736 26078 L-523676 26056 L-523457 26011 L-523183 25989 L-523070 25967 L-522043 25945 L-521656 25923 L-521636 25901 L-521304 25879 L-521059 25857 L-520626 25835 L-520516 25813 L-520398 25791 L-519946 25747 L-519356 25725 L-519019 25703 L-517126 25681 L-517013 25636 L-516801 25614 L-515483 25592 L-515376 20629 L-515310 15731 L-515274 11209 L-515212 11209 L-514713 16128 L-514038 20982 L-514016 25460 L-513745 25416 L-512777 25416 L-512088 25394 L-511926 25372 L-511385 25350 L-511295 25328 L-510276 25305 L-509328 25261 L-508963 25283 L-508860 25305 L-508272 25305 L-508212 25305 L-508112 25283 L-507671 25239 L-507564 25217 L-507122 25195 L-506123 25129 L-505866 25063 L-505763 24997 L-505633 24953 L-505266 24908 L-504686 24864 L-504655 24842 L-504339 24820 L-502356 24798 L-502240 24776 L-502173 24776 L-501814 24754 L-500195 24732 L-500018 24732 L-499874 24732 L-499051 24754 L-498998 24776 L-498944 24776 L-498510 24776 L-497529 24798 L-497455 24798 L-496371 24776 L-496158 24776 L-495442 24732 L-495053 24710 L-494834 24666 L-494515 24622 L-494021 24577 L-493893 24555 L-493664 24511 L-493432 24467 L-493373 24445 L-493083 24423 L-492811 24379 L-491781 24357 L-490116 24335 L-489697 24313 L-489560 24291 L-489404 24291 L-489098 24269 L-488870 24225 L-488712 24202 L-488553 24158 L-488383 24114 L-488336 24092 L-488283 24070 L-488261 24070 L-487875 24048 L-487625 24048 L-487355 24048 L-487194 24048 L-487104 24048 L-485446 24048 L-485280 24070 L-484901 24048 L-484441 24048 L-483831 24004 L-482738 23982 L-482307 23960 L-482275 23938 L-482213 23916 L-482195 23894 L-480492 23872 L-480450 23849 L-479983 23827 L-479797 23805 L-479764 23761 L-479169 23739 L-479119 23717 L-478796 23695 L-478746 23673 L-478535 23651 L-478517 23629 L-478251 23585 L-478198 23563 L-477729 23541 L-477219 23497 L-477140 23497 L-476846 23474 L-476830 23452 L-476791 23430 L-476720 23408 L-476563 23386 L-475617 23386 L-475560 23386 L-475039 23386 L-474847 23364 L-474746 23364 L-474520 23342 L-474010 23342 L-473622 23938 L-473553 23938 L-473204 23916 L-472847 23894 L-471719 23254 L-471667 23210 L-471441 23188 L-471407 23166 L-471282 23121 L-471184 23121 L-470919 23121 L-470179 23144 L-469600 23144 L-469307 23144 L-468601 23144 L-468422 23121 L-468399 23121 L-467763 23099 L-467452 23077 L-467055 23077 L-467025 23055 L-467004 23033 L-466851 23011 L-466166 23011 L-466149 23011 L-465809 23011 L-465537 22989 L-465499 22967 L-465443 22923 L-465421 22901 L-465349 22879 L-465017 22857 L-464911 22835 L-464882 22791 L-464684 22769 L-464532 22746 L-463663 22724 L-463101 22680 L-463085 22680 L-462984 22658 L-462881 22680 L-462735 22680 L-462657 22680 L-462619 22658 L-462563 22636 L-462490 22614 L-462345 22592 L-461863 22592 L-461459 22570 L-460593 22592 L-460573 22592 L-460315 22592 L-460238 22592 L-460209 22570 L-460199 22526 L-460182 22504 L-459889 22482 L-459849 22460 L-459777 22438 L-459704 22416 L-459499 22393 L-459339 22327 L-459037 22261 L-458960 22173 L-458943 22107 L-458727 22063 L-458495 22063 L-458385 22085 L-458016 22107 L-457857 22107 L-457626 22107 L-457458 22107 L-457312 22085 L-457180 22063 L-455905 22018 L-455501 21974 L-455440 21952 L-455324 21908 L-454898 21886 L-454883 21842 L-454821 21820 L-454548 21776 L-454435 21754 L-454153 21710 L-453876 21688 L-453451 21643 L-453428 21621 L-453350 21599 L-453225 21577 L-452638 21555 L-452247 21533 L-451911 21511 L-451322 21489 L-451220 21489 L-451049 21467 L-450913 21467 L-450085 21445 L-448900 21423 L-448864 21401 L-448809 21401 L-448588 21379 L-448383 21379 L-448228 21379 L-447972 21357 L-447895 21335 L-447352 21313 L-447316 21290 L-447067 21268 L-446680 21246 L-445854 21224 L-445496 21202 L-445185 21202 L-444927 21180 L-444704 21158 L-444298 21136 L-444181 21114 L-443998 21092 L-443945 21092 L-443756 21070 L-443585 21048 L-443557 21026 L-443276 21004 L-442966 20982 L-442828 20960 L-442518 20938 L-442324 20938 L-442309 20915 L-441589 20915 L-441456 20871 L-441158 20849 L-441067 20827 L-440467 20827 L-440429 20805 L-440350 20783 L-439730 20761 L-439578 20717 L-439538 20695 L-439227 20673 L-439035 20651 L-438842 20607 L-438787 20562 L-438478 20540 L-438426 20518 L-438371 20540 L-438345 20540 L-438221 20540 L-437410 20518 L-437333 20496 L-436793 20474 L-436524 20452 L-435865 20430 L-434957 20408 L-434716 20386 L-434183 20364 L-433966 20342 L-432859 20364 L-432808 20364 L-432033 20364 L-431485 20342 L-431374 20320 L-431221 20276 L-431166 20254 L-431000 20232 L-430623 20210 L-430176 20187 L-430121 20165 L-429967 20143 L-429287 20121 L-429066 20099 L-428549 20077 L-427700 20033 L-427684 20011 L-425893 19989 L-425338 19967 L-425221 19945 L-424215 19923 L-424179 19901 L-423946 19901 L-423854 19901 L-423814 19901 L-423481 19879 L-423130 19857 L-422864 19812 L-422578 19790 L-422267 19746 L-422013 19702 L-421919 19680 L-421429 19658 L-421222 19636 L-420656 19614 L-420542 19636 L-420191 19614 L-420139 19614 L-420099 19614 L-419496 19570 L-418762 19526 L-418181 19482 L-417945 19437 L-417405 19371 L-417252 19327 L-416750 19305 L-416541 19261 L-416518 19261 L-416459 19239 L-415496 19239 L-415319 19217 L-414877 19195 L-414853 19151 L-414698 19129 L-414616 19129 L-414466 19151 L-413819 19151 L-413769 19129 L-412649 19106 L-411665 19084 L-411603 19062 L-410883 19040 L-410018 19018 L-409639 18996 L-409420 18996 L-408661 18974 L-408609 18952 L-408300 18908 L-407448 18908 L-407255 18886 L-407078 18864 L-406854 18864 L-406727 18842 L-406535 18842 L-406303 18820 L-406133 18842 L-405847 18820 L-405567 18820 L-405484 18798 L-405314 18776 L-405297 18731 L-405143 18709 L-405104 18687 L-404328 18665 L-404252 18665 L-404020 18621 L-403593 18599 L-403247 18577 L-402664 18555 L-402396 18555 L-402137 18555 L-402007 18511 L-401991 18489 L-401877 18467 L-401853 18445 L-401619 18423 L-401583 18401 L-400267 18401 L-400211 18378 L-399532 18334 L-398960 18334 L-398834 18334 L-398681 18334 L-398604 18334 L-398292 18290 L-398019 18268 L-397930 18224 L-397829 18224 L-396901 18202 L-396824 18202 L-396460 18202 L-396436 18180 L-396399 18158 L-395624 18114 L-395532 18092 L-395392 18070 L-394990 18048 L-394729 18048 L-394485 18070 L-394271 18048 L-394191 18048 L-394114 18048 L-394038 18048 L-393851 18070 L-393784 18070 L-393535 18070 L-393480 18048 L-393342 18026 L-393263 17981 L-393149 17959 L-392926 17937 L-392762 17915 L-392721 17893 L-392551 17871 L-392181 17849 L-392166 17827 L-392050 17805 L-391329 17783 L-391293 17761 L-391160 17761 L-390812 17739 L-390401 17739 L-390364 17739 L-390286 17717 L-390247 17695 L-389883 17673 L-389679 17651 L-389664 17628 L-389319 17606 L-388970 17606 L-388644 17606 L-388543 17584 L-388390 17584 L-388195 17562 L-387964 17562 L-387871 17562 L-387716 17562 L-387638 17562 L-387598 17540 L-387484 17518 L-387461 17496 L-387210 17496 L-387071 17452 L-386494 17386 L-385665 17342 L-385178 17298 L-385056 17275 L-385018 17253 L-385005 17231 L-384853 17187 L-384752 17143 L-384519 17121 L-384129 17077 L-383824 17055 L-383809 17033 L-383638 17011 L-383399 16967 L-382803 16967 L-382199 16945 L-382160 16945 L-382119 16945 L-381966 16923 L-381913 16900 L-381850 16878 L-381782 16856 L-381727 16812 L-381702 16790 L-381655 16768 L-381561 16724 L-381424 16702 L-381271 16680 L-381138 16658 L-381098 16658 L-381062 16636 L-381000 16614 L-380727 16570 L-380412 16547 L-380371 16503 L-380286 16481 L-380109 16459 L-379871 16437 L-379514 16415 L-379484 16393 L-378915 16371 L-378792 16349 L-378556 16327 L-378533 16327 L-378252 16305 L-377966 16305 L-377711 16305 L-377139 16283 L-376842 16261 L-376766 16239 L-376067 16217 L-375990 16195 L-375955 16172 L-375928 16150 L-375877 16106 L-375683 16084 L-375543 16040 L-375507 16018 L-375466 15996 L-374871 15974 L-374639 15952 L-374355 16106 L-374301 16239 L-374227 16393 L-374149 16525 L-373913 16481 L-373669 16459 L-373533 16437 L-373427 16415 L-373347 16393 L-372960 16349 L-372833 16327 L-372680 16305 L-372643 16283 L-372497 16261 L-372275 16239 L-372101 16217 L-372032 16195 L-371211 16150 L-371195 16150 L-370900 16128 L-370112 16106 L-369802 16106 L-369656 16084 L-369428 16062 L-369227 16018 L-368290 15996 L-368254 15974 L-368231 15952 L-368190 15908 L-367922 15886 L-367325 15864 L-367261 15842 L-367226 15819 L-367209 15797 L-366514 15797 L-366313 15797 L-366281 15797 L-365947 15797 L-365840 15775 L-365215 15731 L-364711 15709 L-364673 15665 L-364231 15665 L-364135 15643 L-363976 15643 L-363663 15643 L-363651 15643 L-363211 15665 L-362729 15687 L-362599 15687 L-362279 15687 L-362211 15665 L-361907 15665 L-361731 15643 L-361537 15621 L-361295 15577 L-361097 15533 L-361071 15489 L-360493 15467 L-360423 15444 L-360014 15422 L-359959 15400 L-359913 15378 L-359549 15356 L-359403 15334 L-359198 15312 L-359101 15312 L-358946 15290 L-358885 15268 L-358737 15224 L-358637 15202 L-358080 15202 L-358057 15246 L-357885 15268 L-357343 15290 L-357282 15290 L-357229 15246 L-357200 15202 L-357129 15180 L-357112 15136 L-357049 15114 L-357012 15069 L-356858 15047 L-356532 15025 L-355966 15003 L-355952 14981 L-355890 14937 L-355788 14893 L-355742 14893 L-355499 14871 L-355077 14871 L-354922 14871 L-353181 14827 L-352639 14805 L-351695 14783 L-351286 14761 L-350745 14716 L-350549 14694 L-350380 14672 L-350084 14650 L-349970 14628 L-349954 14628 L-349800 14606 L-349660 14584 L-349583 14540 L-349451 14540 L-349103 14540 L-348733 14562 L-348135 14562 L-347959 14562 L-347803 14540 L-347534 14518 L-347382 14518 L-347091 14584 L-347068 14628 L-346985 14672 L-346757 14716 L-346057 14694 L-345931 14672 L-345500 14650 L-345405 14628 L-344200 14628 L-344151 14606 L-343858 14606 L-343455 14584 L-343179 14540 L-343160 14518 L-343042 14496 L-342966 14474 L-342784 14452 L-342304 14430 L-341853 14386 L-341443 14363 L-341412 14341 L-340994 14319 L-340880 14319 L-340762 14319 L-340746 14319 L-340552 14297 L-340531 14253 L-340298 14231 L-339855 14209 L-339536 14165 L-339071 14165 L-338905 14143 L-338751 14121 L-338595 14121 L-338141 14121 L-337822 14121 L-337767 14143 L-337396 14143 L-337358 14165 L-337032 14165 L-336915 14143 L-336817 14121 L-336491 14077 L-336104 14055 L-335843 14033 L-335484 13988 L-335228 13966 L-333058 13944 L-333008 13922 L-332986 13900 L-332574 13900 L-332513 13900 L-332442 13922 L-332212 13922 L-331901 13900 L-331598 13856 L-331553 13834 L-331246 13812 L-331113 13790 L-330896 13768 L-330184 13746 L-330029 13746 L-329890 13724 L-329742 13724 L-329721 13724 L-329526 13702 L-329501 13680 L-329410 13658 L-329388 13636 L-329371 13613 L-329271 13591 L-328343 13569 L-327885 13569 L-326793 13525 L-326370 13525 L-325966 13503 L-325928 13481 L-325674 13459 L-324900 13415 L-324883 13393 L-324859 13371 L-324666 13349 L-323929 13327 L-323660 13305 L-323620 13283 L-323221 13238 L-323196 13216 L-322407 13194 L-321727 13172 L-320356 13150 L-320086 13128 L-320037 13106 L-319500 13062 L-319467 13040 L-319365 12996 L-319041 12974 L-318962 12952 L-318693 12952 L-317780 12930 L-317641 12930 L-317392 12885 L-316847 12885 L-316425 12863 L-316232 12841 L-316217 12841 L-316079 12797 L-315985 12775 L-315858 12753 L-315598 12731 L-315573 12687 L-315481 12665 L-315171 12643 L-315111 12621 L-314994 12621 L-314644 12621 L-313834 12621 L-313602 12577 L-312773 12577 L-312541 12532 L-312325 12510 L-311806 12510 L-311168 12488 L-310752 12466 L-310429 12444 L-309949 12422 L-309523 12422 L-309462 12400 L-309113 12400 L-309073 12378 L-309059 12356 L-308959 12312 L-308914 12312 L-308429 12290 L-307627 12290 L-307293 12290 L-306212 12268 L-305732 12246 L-305709 12224 L-305569 12202 L-305013 12180 L-304316 12157 L-304007 12135 L-303785 12113 L-303681 12091 L-303578 12047 L-302907 12025 L-302813 12003 L-302791 12003 L-302714 11981 L-302536 11981 L-302364 11981 L-302183 11959 L-302170 11937 L-302093 11915 L-301929 11893 L-301414 11871 L-301398 11849 L-301258 11849 L-300895 11827 L-300871 11827 L-300741 11804 L-300716 11782 L-300354 11760 L-299828 11716 L-299735 11694 L-299519 11650 L-299425 11628 L-299401 11606 L-298936 11584 L-298859 11584 L-298458 11562 L-298007 11562 L-296755 11540 L-296716 11518 L-296285 11496 L-296252 11474 L-295533 11452 L-295357 11429 L-295221 11407 L-294914 11385 L-294859 11363 L-294835 11319 L-294819 11275 L-294644 11253 L-294454 11231 L-293947 11231 L-293573 11054 L-293235 10856 L-293196 10679 L-292477 10525 L-292383 10503 L-292345 10481 L-291803 10481 L-291780 10459 L-291377 10437 L-290952 10415 L-290681 10415 L-290501 10393 L-290255 10348 L-290232 10326 L-290175 10282 L-289559 10260 L-289056 10238 L-288669 10238 L-288050 10260 L-287834 10260 L-287679 10282 L-286386 10238 L-286287 10216 L-285845 10172 L-285513 10150 L-285213 10106 L-284970 10084 L-284236 10040 L-283657 10018 L-282827 9996 L-282727 9973 L-282169 9951 L-282031 9929 L-280389 9907 L-280328 9907 L-280234 9907 L-279267 9907 L-279090 9885 L-278803 9885 L-278585 9885 L-278507 9863 L-278236 9863 L-278120 9841 L-277967 9819 L-277657 9797 L-277579 9775 L-277488 9775 L-277410 9753 L-277294 9753 L-277115 9731 L-277023 9709 L-276985 9687 L-276482 9687 L-276263 9665 L-276134 9665 L-275978 9643 L-275924 9621 L-275799 9621 L-275414 9598 L-274906 9576 L-274834 9554 L-274353 9532 L-274276 9510 L-274176 9510 L-273943 9488 L-273478 9488 L-273248 9488 L-273232 9488 L-272999 9488 L-272845 9488 L-272783 9488 L-272590 9466 L-272319 9422 L-271568 9400 L-270615 9400 L-270579 9378 L-270354 9378 L-269914 9378 L-269633 9334 L-269285 9312 L-268216 9290 L-267288 9290 L-267157 9290 L-267110 9290 L-267041 9268 L-266886 9268 L-266809 9223 L-266635 9179 L-266201 9135 L-265996 9113 L-265936 9069 L-265354 9047 L-265200 9003 L-265084 8981 L-265043 8959 L-264874 8937 L-264737 8915 L-264526 8870 L-264449 8848 L-264425 8826 L-264217 8782 L-263807 8760 L-263782 8738 L-263559 8716 L-263414 8694 L-263379 8672 L-263366 8650 L-263343 8628 L-263110 8606 L-262924 8584 L-262707 8562 L-262682 8540 L-261993 8517 L-261889 8495 L-261853 8473 L-261833 8451 L-261639 8429 L-261585 8407 L-261468 8363 L-261387 8363 L-261276 8341 L-260961 8319 L-260502 8297 L-260247 8275 L-260013 8231 L-259883 8209 L-259530 8187 L-259471 8165 L-259318 8142 L-258746 8098 L-258660 8076 L-258507 8032 L-258211 7988 L-257841 7944 L-257538 7900 L-257461 7878 L-257056 7856 L-256888 7856 L-256744 7856 L-256204 7856 L-256143 7856 L-256127 7812 L-255961 7789 L-255756 7767 L-255681 7767 L-255588 7745 L-255178 7723 L-255163 7701 L-255139 7701 L-254946 7679 L-254869 7878 L-254699 8076 L-254637 8253 L-254621 8451 L-254106 8429 L-253885 8407 L-253266 8363 L-253013 8341 L-252819 8319 L-252779 8297 L-252706 8297 L-252641 8297 L-251990 8297 L-251951 8319 L-251777 8319 L-251711 8319 L-251037 8319 L-250648 8275 L-250387 8253 L-250149 8231 L-250071 8187 L-250055 8142 L-249853 8120 L-249483 8076 L-249257 8054 L-248622 8032 L-248602 8032 L-248215 8010 L-248121 8010 L-248063 7988 L-247787 7966 L-247477 7966 L-247400 7944 L-246549 7966 L-246206 8076 L-245769 8209 L-245335 8319 L-244840 8429 L-244691 8407 L-244422 8429 L-243184 8451 L-243128 8495 L-241364 8517 L-241174 8495 L-240163 8473 L-240012 8451 L-239637 8495 L-239316 8540 L-238711 8584 L-238641 8628 L-238464 8606 L-237635 8584 L-237497 8562 L-237110 8540 L-236926 8517 L-236882 8495 L-236762 8473 L-236552 8451 L-236105 8407 L-235756 8385 L-235624 8363 L-235215 8341 L-234865 8341 L-234580 8319 L-234386 8297 L-234232 8297 L-234068 8275 L-233999 8253 L-233900 8253 L-233666 8231 L-233550 8231 L-233496 8209 L-232955 8209 L-232490 8187 L-231308 8187 L-231175 8187 L-231150 8187 L-231098 8187 L-230430 8187 L-229395 8142 L-229201 8120 L-229022 8098 L-228870 8098 L-228830 8076 L-228815 8076 L-228753 8054 L-228428 8032 L-227267 8010 L-227074 7988 L-226896 7966 L-225782 7944 L-224923 7922 L-224817 7922 L-224343 7900 L-224150 7900 L-221829 7878 L-221751 7856 L-221630 7812 L-221595 7789 L-221558 7745 L-221464 7679 L-221248 7635 L-220667 7591 L-220280 7569 L-219507 7547 L-219430 7525 L-218732 7525 L-218191 7525 L-218150 7503 L-218020 7503 L-217556 7481 L-217517 7459 L-217382 7437 L-217014 7414 L-216985 7392 L-216835 7392 L-216434 7370 L-214610 7392 L-213803 7370 L-213084 7370 L-213068 7370 L-212754 7326 L-212192 7304 L-211691 7282 L-211172 7260 L-211150 7238 L-209407 7216 L-209238 7194 L-209042 7172 L-208148 7150 L-207630 7106 L-207419 7084 L-207161 7061 L-206452 7039 L-205501 7017 L-204843 6995 L-204804 6951 L-204517 6929 L-204435 6907 L-204339 6907 L-204208 6885 L-204130 6885 L-203395 6885 L-203058 6863 L-203008 6885 L-202753 6885 L-202467 6863 L-202041 6863 L-201461 6841 L-201202 6841 L-201050 6819 L-200803 6819 L-200764 6819 L-199967 6797 L-199930 6775 L-199753 6775 L-199343 6731 L-199115 6731 L-199038 6731 L-198907 6731 L-198791 6709 L-198443 6686 L-198380 6664 L-198227 6642 L-197486 6620 L-197375 6598 L-197205 6576 L-197166 6554 L-196871 6554 L-196470 6554 L-196293 6554 L-196199 6554 L-195889 6532 L-195088 6510 L-194629 6466 L-194110 6444 L-193621 6422 L-192925 6400 L-191879 6378 L-191610 6378 L-191556 6356 L-191396 6356 L-191144 6356 L-190898 6333 L-190819 6311 L-190605 6267 L-190293 6245 L-189829 6201 L-189815 6179 L-189519 6179 L-189505 6157 L-188514 6135 L-187842 6113 L-187507 6069 L-186891 6069 L-186754 6047 L-186115 6025 L-185985 6003 L-185034 5958 L-184934 5914 L-184375 5892 L-183966 5892 L-183538 5892 L-183447 5870 L-182612 5870 L-182248 5870 L-182209 5892 L-182077 5914 L-181900 5914 L-181683 5914 L-181630 5892 L-181473 5848 L-181220 5826 L-180119 5804 L-180042 5782 L-179823 5760 L-179692 5716 L-179655 5694 L-179462 5672 L-179363 5650 L-178879 5628 L-178594 5606 L-178434 5583 L-178339 5539 L-178068 5517 L-177798 5495 L-177782 5407 L-177644 5341 L-177505 5275 L-177179 5186 L-176870 5142 L-176829 5120 L-176753 5076 L-176638 5054 L-175787 5010 L-175461 4988 L-175129 4966 L-174997 4966 L-174781 4966 L-174764 4966 L-174084 4966 L-173991 4922 L-173967 4900 L-173952 4855 L-173913 4833 L-173501 4789 L-173232 4767 L-173192 4745 L-172823 4745 L-172614 4723 L-171531 4723 L-171514 4701 L-171486 4679 L-171466 4679 L-171089 4635 L-170834 4613 L-170586 4569 L-170446 4525 L-170314 4502 L-169982 4480 L-169889 4458 L-169828 4436 L-169270 4414 L-169209 4392 L-169053 4370 L-168859 4348 L-168667 4326 L-168651 4304 L-168613 4282 L-168574 4260 L-168303 4238 L-168180 4216 L-168148 4194 L-168048 4194 L-167892 4194 L-167751 4194 L-167467 4172 L-167142 4172 L-166446 4150 L-166423 4150 L-165914 4150 L-165068 4150 L-164705 4127 L-164550 4105 L-163946 4105 L-163776 4105 L-163715 4105 L-163660 4083 L-162605 4061 L-162586 4061 L-161680 4061 L-161659 4061 L-161492 4039 L-161250 4039 L-161199 4017 L-161145 3973 L-161007 3951 L-160968 3929 L-160040 3907 L-159984 3907 L-159862 3907 L-159791 3907 L-159675 3907 L-159496 3929 L-158514 3907 L-158375 3907 L-158257 3863 L-157962 3819 L-157715 3797 L-157679 3774 L-157624 3797 L-157602 3797 L-157469 3797 L-157390 3797 L-157253 3774 L-156630 3774 L-156463 3752 L-155999 3752 L-155822 3708 L-155806 3686 L-155746 3664 L-155629 3642 L-155147 3620 L-154451 3598 L-154078 3576 L-153909 3554 L-152943 3532 L-152788 3510 L-152610 3510 L-152517 3488 L-152262 3488 L-152091 3488 L-151445 3466 L-151434 3466 L-150853 3444 L-150715 3444 L-150660 3399 L-149925 3377 L-149886 3355 L-149809 3355 L-149167 3333 L-148392 3333 L-148300 3311 L-148251 3311 L-148236 3289 L-148200 3289 L-148183 3245 L-148120 3223 L-148104 3201 L-148084 3201 L-147929 3179 L-147891 3157 L-147875 3135 L-147835 3113 L-147696 3091 L-147620 3069 L-147255 3046 L-146907 3024 L-146133 3002 L-145531 2980 L-145335 2958 L-145105 2958 L-144967 2936 L-144329 2936 L-144040 2914 L-144018 2914 L-143558 2892 L-143325 2892 L-143270 2870 L-143232 2848 L-142729 2826 L-142178 2804 L-141390 2782 L-140267 2782 L-139373 2760 L-139285 2760 L-138986 2738 L-138914 2716 L-138798 2694 L-137621 2671 L-137273 2649 L-137251 2627 L-136732 2605 L-136585 2583 L-136477 2561 L-136267 2539 L-136113 2517 L-136090 2495 L-135896 2473 L-135819 2451 L-135676 2429 L-134875 2407 L-134729 2385 L-134449 2363 L-134271 2341 L-133962 2318 L-133150 2296 L-132222 2296 L-130630 2274 L-130386 2252 L-129745 2230 L-129550 2208 L-129472 2186 L-128955 2164 L-128723 2164 L-128700 2142 L-128568 2142 L-128228 2120 L-128218 2098 L-128001 2076 L-127964 2054 L-127423 2032 L-126894 1988 L-126826 1966 L-126533 1943 L-125985 1899 L-125950 1877 L-125897 1855 L-125798 1811 L-125566 1811 L-124985 1811 L-124888 1833 L-124814 1833 L-124482 1811 L-123732 1789 L-123693 1767 L-123013 1767 L-122858 1767 L-122532 1745 L-122316 1723 L-122085 1723 L-121788 1701 L-121542 1679 L-121191 1657 L-121138 1635 L-120378 1613 L-119685 1568 L-119334 1524 L-118871 1502 L-118237 1480 L-117828 1458 L-117751 1480 L-117325 1480 L-116682 1458 L-116513 1458 L-115771 1436 L-115584 1414 L-115288 1392 L-114716 1370 L-114691 1348 L-113672 1348 L-113185 1326 L-113092 1326 L-113030 1304 L-112742 1282 L-112456 1260 L-112395 1238 L-112215 1238 L-111504 1215 L-111328 1193 L-111130 1171 L-110978 1149 L-110886 1127 L-110825 1105 L-110283 1105 L-109972 1083 L-109880 1039 L-109803 995 L-109236 973 L-109145 973 L-108890 929 L-108563 885 L-108526 818 L-108371 752 L-108139 730 L-107817 708 L-106685 686 L-106485 664 L-105960 642 L-105715 642 L-105469 620 L-105389 598 L-105369 554 L-105293 532 L-105237 487 L-105160 465 L-105121 443 L-104942 399 L-104905 377 L-104674 355 L-103436 333 L-103109 311 L-103070 267 L-102288 245 L-102141 223 L-101149 201 L-100943 201 L-100517 201 L-100390 201 L-99985 223 L-99897 201 L-99241 179 L-98533 157 L-97925 135 L-97732 112 L-97499 68 L-96880 46 L-96585 2 L-96145 -19 L-95990 -41 L-95835 -63 L-95079 -107 L-94729 -129 L-94327 -129 L-94288 -151 L-93282 -151 L-92962 -151 L-92715 -173 L-92016 -217 L-91942 -240 L-91630 -262 L-90550 -284 L-90358 -306 L-90124 -306 L-89930 -328 L-89429 -350 L-88676 -350 L-88562 -350 L-88362 -350 L-88321 -372 L-88228 -394 L-87915 -416 L-87827 -438 L-87710 -460 L-87393 -460 L-87324 -482 L-87299 -504 L-86937 -526 L-86898 -548 L-86682 -570 L-86178 -548 L-85576 -526 L-85365 -482 L-85211 -460 L-85174 -460 L-85130 -504 L-85095 -526 L-84962 -548 L-84553 -570 L-84182 -592 L-84129 -615 L-84113 -637 L-84034 -659 L-83624 -681 L-83470 -703 L-83455 -747 L-83415 -769 L-83237 -813 L-83161 -835 L-82929 -857 L-82139 -879 L-82062 -879 L-81327 -923 L-81171 -945 L-80931 -990 L-80870 -1034 L-80784 -1056 L-80762 -1100 L-80644 -1144 L-80630 -1188 L-80568 -1232 L-80530 -1254 L-80436 -1276 L-80414 -1276 L-80298 -1298 L-80065 -1320 L-79895 -1365 L-79075 -1365 L-78674 -1387 L-78518 -1387 L-78013 -1387 L-77899 -1387 L-77303 -1387 L-76929 -1409 L-76877 -1409 L-76683 -1431 L-75986 -1431 L-75948 -1453 L-75803 -1453 L-75578 -1475 L-75316 -1497 L-74943 -1519 L-74517 -1541 L-74388 -1563 L-74368 -1607 L-73875 -1607 L-73178 -1629 L-72947 -1607 L-72793 -1607 L-71824 -1607 L-71599 -1585 L-71322 -1585 L-71306 -1607 L-70780 -1629 L-70251 -1651 L-70103 -1673 L-70083 -1696 L-69542 -1718 L-69232 -1740 L-69114 -1784 L-68922 -1828 L-68786 -1872 L-68459 -1894 L-68342 -1916 L-68033 -1916 L-67607 -1938 L-67551 -1938 L-67318 -1916 L-67221 -1916 L-67088 -1916 L-66792 -1916 L-66678 -1938 L-66314 -1960 L-66001 -1960 L-65518 -1982 L-65348 -2004 L-65099 -2026 L-64884 -2048 L-64358 -2071 L-64171 -2115 L-63816 -2137 L-63180 -2159 L-63026 -2203 L-62285 -2225 L-61866 -2247 L-61685 -2269 L-61609 -2269 L-61478 -2291 L-61185 -2313 L-61144 -2335 L-60914 -2335 L-60721 -2357 L-60466 -2357 L-60040 -2379 L-59930 -2401 L-59312 -2401 L-59131 -2401 L-57919 -2401 L-57272 -2379 L-57121 -2379 L-57084 -2379 L-56952 -2379 L-56851 -2401 L-56835 -2424 L-56753 -2446 L-56542 -2468 L-56425 -2490 L-56062 -2512 L-55690 -2534 L-54994 -2556 L-54591 -2578 L-54486 -2600 L-54468 -2622 L-53524 -2644 L-53329 -2688 L-53176 -2710 L-53121 -2754 L-52365 -2754 L-52348 -2710 L-51859 -2688 L-51728 -2644 L-51535 -2644 L-50645 -2666 L-50606 -2688 L-50567 -2710 L-50491 -2732 L-50452 -2732 L-50375 -2754 L-50291 -2776 L-50026 -2799 L-49794 -2821 L-49732 -2843 L-49251 -2865 L-48915 -2865 L-48804 -2887 L-48610 -2909 L-48434 -2931 L-48374 -2931 L-48338 -2953 L-48068 -2975 L-47371 -3019 L-47318 -3063 L-47024 -3107 L-46622 -3151 L-46057 -3174 L-45184 -3196 L-44880 -3218 L-44842 -3240 L-44719 -3262 L-44120 -3284 L-43991 -3306 L-43790 -3328 L-43753 -3350 L-43139 -3372 L-42961 -3394 L-42946 -3438 L-42728 -3460 L-42649 -3504 L-42342 -3504 L-42210 -3527 L-41978 -3527 L-41644 -3527 L-41553 -3549 L-41452 -3571 L-41414 -3593 L-40871 -3593 L-40679 -3615 L-40137 -3637 L-39712 -3659 L-39580 -3659 L-39518 -3659 L-39287 -3659 L-39270 -3659 L-38782 -3637 L-38702 -3637 L-38684 -3637 L-37291 -3615 L-37155 -3615 L-37042 -3637 L-36407 -3659 L-36268 -3681 L-36150 -3703 L-35996 -3747 L-35959 -3769 L-35881 -3791 L-35827 -3769 L-34835 -3769 L-34798 -3791 L-34665 -3791 L-34605 -3835 L-34506 -3857 L-34215 -3879 L-34202 -3902 L-33892 -3902 L-33792 -3879 L-33326 -3902 L-33273 -1563 L-33130 752 L-33003 3091 L-32770 5429 L-32202 5407 L-32113 5385 L-32090 5385 L-31803 5363 L-31120 5341 L-31043 5319 L-31007 5297 L-30991 5275 L-30791 5253 L-30371 5208 L-30100 5208 L-29226 5186 L-28934 5186 L-28823 5186 L-28089 5164 L-27962 5142 L-27602 5120 L-27350 5120 L-26478 5098 L-26309 5098 L-26248 5076 L-26193 5054 L-25845 5032 L-25821 5010 L-25613 4988 L-25472 4966 L-25342 4944 L-25219 4922 L-25096 4900 L-24859 4878 L-24568 4855 L-23909 4833 L-23887 4811 L-23732 4789 L-23615 4767 L-22650 4745 L-22595 4723 L-22362 4701 L-22340 4679 L-22014 4657 L-21898 4657 L-21858 4635 L-21357 4635 L-21058 4613 L-20946 4591 L-20404 4569 L-19345 4547 L-18719 4525 L-18547 4502 L-18299 4480 L-18043 4458 L-17912 4436 L-17890 4414 L-17223 4392 L-16327 4370 L-16281 4348 L-16210 4326 L-16095 4326 L-15874 4304 L-15683 4304 L-15644 4282 L-15452 4260 L-14793 4260 L-14176 4238 L-14137 4370 L-13540 4502 L-13479 4613 L-12357 4723 L-12302 4723 L-12181 4701 L-11916 4679 L-11852 4679 L-11583 4679 L-11507 4657 L-11291 4657 L-10808 4635 L-10538 4613 L-10407 4613 L-10175 4569 L-10150 4502 L-10135 4414 L-10112 4304 L-10097 4194 L-10073 4083 L-10059 3951 L-10035 3819 L-10020 3686 L-9997 3576 L-9982 3466 L-9959 3355 L-9943 3289 L-9915 3223 L-9897 3135 L-9879 3091 L-9843 3024 L-9803 2980 L-9788 2936 L-9763 2870 L-9710 2826 L-9686 2782 L-9609 2738 L-9571 2716 L-9556 2671 L-9493 2627 L-9478 2583 L-9432 2517 L-9361 2473 L-9323 2451 L-9299 2407 L-9247 2363 L-9221 2341 L-9206 2318 L-9144 2296 L-9107 2274 L-9030 2252 L-9014 2230 L-8986 2186 L-8914 2164 L-8874 2142 L-8721 2098 L-8604 2076 L-8550 2054 L-8468 2032 L-8434 2010 L-8410 1988 L-8256 1966 L-8241 1943 L-8139 1921 L-7829 1899 L-7792 1877 L-7577 1855 L-7466 1855 L-7441 1855 L-7211 1877 L-6979 1877 L-6604 1855 L-6476 1833 L-6436 1811 L-6384 1789 L-6282 1767 L-6246 1745 L-6035 1745 L-5971 1723 L-5858 1723 L-5647 1701 L-5610 1679 L-5237 1657 L-5184 1635 L-5105 1613 L-5083 1590 L-4991 1568 L-4791 1546 L-4753 1546 L-4731 1546 L-4501 1546 L-4480 1524 L-4271 1524 L-4176 1502 L-4139 1480 L-3802 1458 L-3690 1436 L-3650 1414 L-3636 1414 L-3496 1392 L-3482 1392 L-3227 1392 L-2644 1370 L-2568 1348 L-2530 1326 L-2485 1304 L-2437 1282 L-2257 1260 L-2243 1238 L-2143 1215 L-2065 1193 L-2005 1171 L-1639 1127 L-1557 1105 L-1539 1083 L-1486 1061 L-517 1039 L-386 1017 L-364 995 L-144 973 L-75 951 L-53 929 L193 907 L449 885 L580 863 L619 840 L641 796 L696 752 L784 730 L845 686 L1070 664 L1200 642 L1300 620 L1354 598 L1547 576 L1625 554 L1959 532 L2089 510 L2267 487 L2283 465 L2308 443 L2577 443 L3778 421 L3815 421 L3931 399 L4164 377 L4355 355 L4394 355 L4450 333 L4554 333 L5068 311 L5362 289 L5594 267 L5869 245 L5886 223 L5919 201 L5959 179 L5997 157 L6098 135 L6175 112 L6268 90 L6395 68 L6500 46" />
</svg>
