<svg xmlns="http://www.w3.org/2000/svg" version="1.1" viewBox="0 0 6500 1000">
	<path fill="none" stroke="gold" stroke-width="125" stroke-linecap="round" stroke-linejoin="round" d="M0 67  L-36314 67 L-35902 64 L-35678 66 L-35620 64 L-35583 62 L-35398 60 L-34908 57 L-34615 56 L-34303 55 L-34069 53 L-34015 50 L-33956 48 L-33803 47 L-33763 46 L-33630 44 L-33337 46 L-32797 44 L-32186 42 L-32139 44 L-31498 42 L-31465 43 L-30940 41 L-30807 40 L-30417 35 L-30089 33 L-29971 30 L-29760 33 L-29043 31 L-28473 30 L-28366 29 L-28192 27 L-27970 24 L-27569 23 L-27543 21 L-26615 18 L-26528 16 L-26445 14 L-26375 11 L-26078 10 L-25926 9 L-24036 16 L-23935 12 L-23673 10 L-23379 12 L-23238 10 L-22989 9 L-22953 8 L-22795 5 L-22331 4 L-22078 2 L-21866 1 L-21615 0 L-21266 -2 L-20339 -4 L-20245 -7 L-19834 -8 L-18663 -9 L-17474 -11 L-17382 -14 L-17354 -16 L-17088 -20 L-16789 -22 L-16661 -23 L-16623 -25 L-15809 -17 L-15425 -18 L-14364 -21 L-14303 -22 L-14038 73 L-13566 72 L-13374 69 L-13110 68 L-12774 67 L-12638 68 L-12183 64 L-11439 63 L-11422 61 L-11256 60 L-11188 62 L-10672 61 L-9644 59 L-9447 56 L-8959 57 L-8597 56 L-8188 59 L-7803 60 L-6099 59 L-6001 57 L-5929 59 L-5868 57 L-5683 56 L-5347 55 L-4706 53 L-4630 55 L-4568 54 L-4382 53 L-4302 51 L-4125 50 L-4106 51 L-3876 50 L-3488 49 L-2599 48 L-2560 47 L-2472 44 L-2444 43 L-1436 41 L-1286 40 L-1262 38 L-1129 37 L-1090 36 L168 35 L226 37 L765 36 L818 35 L865 34 L1260 33 L1399 31 L1599 30 L1746 35 L1910 34 L2187 33 L2546 31 L3098 30 L3743 28 L4002 27 L4156 25 L4557 24 L4597 23 L4700 998 L4717 23 L4779 31 L4793 23 L4887 21 L5180 18 L5331 16 L5662 14 L5740 11 L5815 10 L6042 3 L6108 4 L6336 3 L6389 1" />
</svg>
