<svg xmlns="http://www.w3.org/2000/svg" version="1.1" viewBox="0 0 6500 1000">
	<path fill="none" stroke="gold" stroke-width="125" stroke-linecap="round" stroke-linejoin="round" d="M0 243215  L-1352500 243215 L-1352315 243214 L-1351825 243211 L-1351532 243210 L-1351220 243208 L-1350986 243207 L-1350932 243205 L-1350873 243203 L-1350720 243202 L-1350680 243199 L-1350547 243198 L-1350254 243197 L-1349714 243197 L-1349103 243196 L-1349055 243196 L-1348415 243195 L-1348382 243195 L-1347857 243195 L-1347724 243194 L-1347334 243192 L-1347006 243190 L-1346888 243187 L-1346677 243185 L-1345960 243185 L-1345390 243184 L-1345283 243184 L-1345109 243183 L-1344887 243181 L-1344486 243180 L-1344460 243178 L-1343532 243175 L-1343444 243173 L-1343362 243171 L-1343292 243169 L-1342995 243168 L-1342843 243166 L-1340953 243167 L-1340852 243167 L-1340590 243167 L-1340296 243168 L-1340155 243166 L-1339906 243166 L-1339870 243165 L-1339712 243163 L-1339248 243161 L-1338995 243160 L-1338783 243158 L-1338532 243157 L-1338183 243156 L-1337255 243154 L-1337162 243151 L-1336751 243150 L-1335580 243148 L-1334391 243147 L-1334299 243145 L-1334271 243143 L-1334005 243141 L-1333706 243138 L-1333578 243136 L-1333540 243134 L-1332726 243134 L-1332342 243135 L-1331281 243136 L-1331220 243136 L-1330955 243158 L-1330483 243179 L-1330291 243199 L-1330027 243220 L-1329691 243219 L-1329555 243218 L-1329100 243217 L-1328356 243216 L-1328339 243215 L-1328173 243213 L-1328105 243213 L-1327589 243211 L-1326561 243211 L-1326364 243210 L-1325876 243209 L-1325514 243208 L-1325105 243208 L-1324720 243209 L-1323016 243209 L-1322918 243209 L-1322846 243209 L-1322785 243209 L-1322600 243208 L-1322264 243208 L-1321623 243207 L-1321546 243206 L-1321485 243206 L-1321299 243205 L-1321219 243205 L-1321042 243204 L-1321023 243203 L-1320793 243203 L-1320405 243202 L-1319516 243202 L-1319477 243201 L-1319389 243199 L-1319361 243197 L-1318353 243196 L-1318203 243194 L-1318179 243193 L-1318046 243192 L-1318007 243191 L-1316748 243190 L-1316690 243190 L-1316151 243189 L-1316098 243189 L-1316051 243189 L-1315656 243187 L-1315517 243186 L-1315317 243185 L-1315170 243185 L-1315006 243185 L-1314729 243186 L-1314370 243186 L-1313818 243185 L-1313173 243184 L-1312914 243182 L-1312760 243181 L-1312359 243180 L-1312319 243179 L-1312199 243178 L-1312137 243179 L-1312123 243179 L-1312029 243179 L-1311736 243178 L-1311585 243173 L-1311254 243171 L-1311176 243169 L-1311101 243168 L-1310874 243165 L-1310807 243162 L-1310580 243160 L-1310527 243158 L-1310363 243157 L-1309357 243156 L-1309174 243155 L-1308623 243154 L-1308229 243151 L-1307832 243150 L-1306982 243148 L-1306904 243147 L-1306325 243146 L-1305883 243146 L-1305642 243145 L-1305485 243145 L-1305084 243143 L-1305064 243143 L-1304619 243142 L-1304213 243141 L-1304077 243138 L-1303902 243136 L-1303766 243134 L-1303516 243132 L-1302516 243131 L-1302434 243130 L-1302298 243129 L-1302260 243127 L-1301370 243126 L-1301154 243125 L-1300711 243124 L-1300593 243123 L-1300537 243122 L-1299860 243122 L-1299760 243121 L-1299731 243121 L-1298389 243120 L-1297984 243119 L-1297944 243118 L-1297016 243117 L-1296918 243115 L-1296785 243114 L-1296380 243113 L-1296354 243112 L-1296261 243111 L-1296045 243110 L-1295634 243108 L-1294480 243106 L-1294189 243103 L-1294160 243101 L-1293552 243100 L-1293302 243098 L-1293282 243097 L-1292353 243096 L-1292301 243094 L-1292179 243093 L-1292161 243090 L-1292006 243089 L-1291830 243087 L-1291694 243086 L-1291637 243085 L-1291529 243084 L-1291444 243083 L-1291211 243082 L-1291136 243081 L-1290827 243079 L-1290710 243078 L-1290540 243077 L-1290449 243076 L-1290346 243076 L-1290323 243075 L-1290246 243075 L-1290148 243073 L-1289781 243072 L-1289676 243071 L-1289173 243070 L-1288721 243069 L-1288683 243067 L-1288659 243066 L-1288618 243065 L-1288489 243064 L-1288388 243063 L-1287947 243062 L-1287665 243061 L-1287072 243060 L-1286942 243059 L-1286667 243057 L-1286515 243055 L-1286362 243054 L-1286276 243052 L-1286198 243051 L-1286013 243050 L-1285962 243050 L-1285934 243049 L-1285855 243048 L-1285832 243047 L-1285548 243045 L-1284945 243042 L-1283949 243041 L-1283651 243040 L-1282917 243039 L-1282673 243038 L-1282583 243037 L-1282006 243036 L-1281307 243035 L-1280555 243034 L-1280237 243033 L-1279854 243030 L-1279777 243029 L-1279142 243028 L-1278957 243027 L-1278869 243027 L-1278739 243027 L-1278427 243026 L-1278377 243025 L-1278235 243024 L-1278214 243023 L-1277246 243022 L-1276700 243021 L-1276222 243021 L-1276161 243021 L-1275837 243021 L-1275816 243019 L-1275754 243019 L-1275543 243018 L-1275467 243017 L-1275412 243016 L-1275389 243015 L-1275350 243014 L-1275334 243013 L-1274577 243012 L-1274561 243011 L-1273761 243010 L-1273609 243009 L-1272704 243007 L-1272197 243006 L-1271968 243004 L-1271927 243004 L-1271812 243003 L-1271635 243002 L-1270881 243003 L-1270746 243002 L-1270582 243001 L-1270264 243000 L-1270088 242998 L-1269066 242995 L-1269042 242993 L-1268791 242992 L-1268578 242990 L-1267944 242989 L-1267706 242987 L-1267674 242985 L-1267496 242982 L-1267415 242980 L-1267326 242979 L-1267261 242977 L-1266821 242975 L-1266797 242974 L-1266257 242973 L-1266001 242971 L-1265506 242970 L-1264629 242969 L-1264592 242968 L-1264539 242967 L-1264498 242966 L-1264381 242965 L-1264104 242964 L-1263897 242962 L-1263700 242959 L-1263677 242957 L-1263627 242955 L-1263587 242954 L-1263509 242953 L-1262912 242951 L-1262852 242950 L-1262748 242949 L-1262594 242947 L-1261962 242946 L-1261282 242945 L-1260979 242943 L-1260632 242942 L-1260434 242941 L-1260386 242939 L-1260066 242938 L-1259438 242937 L-1259291 242935 L-1259255 242934 L-1259197 242933 L-1259121 242931 L-1258879 242931 L-1258791 242930 L-1258697 242929 L-1258403 242928 L-1258269 242927 L-1258209 242926 L-1258172 242923 L-1257900 242923 L-1256894 242922 L-1256718 242921 L-1256667 242921 L-1256375 242920 L-1256182 242918 L-1255849 242917 L-1255343 242916 L-1254781 242914 L-1254766 242911 L-1254749 242910 L-1254649 242908 L-1254534 242906 L-1254495 242904 L-1254457 242903 L-1254392 242903 L-1254364 242902 L-1254225 242903 L-1253932 242903 L-1253882 242903 L-1253777 242903 L-1253512 242902 L-1253047 242901 L-1252903 242901 L-1252848 242898 L-1252791 242897 L-1252600 242896 L-1252235 242895 L-1252020 242895 L-1251826 242895 L-1251768 242895 L-1251709 242893 L-1251555 242892 L-1251285 242891 L-1250855 242896 L-1250840 242896 L-1250763 242895 L-1250698 242894 L-1250569 242886 L-1250546 242885 L-1250262 242884 L-1250214 242883 L-1250159 242882 L-1249697 242881 L-1249658 242881 L-1249617 242880 L-1249427 242879 L-1248947 242878 L-1248460 242877 L-1248443 242875 L-1248405 242874 L-1248149 242873 L-1248071 242871 L-1247841 242870 L-1247825 242868 L-1247531 242866 L-1247089 242865 L-1246642 242863 L-1246137 242862 L-1245983 242861 L-1245697 242860 L-1245657 242858 L-1245326 242857 L-1245104 242856 L-1244587 242854 L-1244511 242853 L-1244263 242850 L-1244069 242848 L-1244009 242847 L-1243232 242846 L-1243158 242846 L-1242928 242845 L-1242911 242845 L-1242849 242844 L-1242654 242843 L-1242189 242843 L-1242166 242842 L-1242036 242842 L-1240736 242842 L-1240719 242842 L-1240642 242841 L-1240548 242841 L-1240331 242841 L-1240179 242839 L-1240001 242841 L-1239946 242842 L-1239660 242843 L-1239620 242843 L-1239250 242843 L-1238810 242843 L-1238627 242843 L-1238306 242842 L-1238011 242842 L-1237565 242839 L-1237493 242838 L-1237031 242836 L-1236593 242835 L-1236411 242834 L-1234957 242832 L-1234825 242831 L-1234368 242829 L-1234142 242827 L-1233755 242825 L-1233239 242823 L-1232285 242821 L-1231490 242819 L-1230816 242818 L-1230390 242815 L-1230079 242814 L-1229849 242811 L-1229166 242808 L-1229153 242805 L-1228943 242800 L-1228921 242799 L-1228747 242797 L-1227797 242796 L-1227528 242794 L-1226713 242793 L-1226403 242790 L-1226365 242789 L-1226308 242787 L-1225691 242786 L-1225053 242784 L-1223427 242783 L-1222753 242782 L-1222111 242782 L-1222034 242782 L-1221977 242782 L-1221941 242782 L-1221913 242781 L-1221801 242778 L-1221783 242777 L-1221761 242776 L-1221607 242775 L-1221554 242773 L-1221476 242772 L-1221357 242771 L-1221259 242770 L-1221142 242769 L-1220872 242766 L-1220602 242765 L-1220585 242763 L-1220385 242762 L-1220238 242760 L-1220011 242759 L-1219877 242758 L-1219568 242757 L-1219509 242755 L-1219155 242753 L-1218807 242752 L-1218706 242751 L-1218642 242749 L-1218582 242748 L-1218197 242746 L-1217816 242745 L-1217712 242743 L-1217452 242742 L-1217181 242740 L-1217021 242739 L-1216989 242738 L-1216927 242737 L-1216786 242736 L-1216602 242735 L-1216557 242734 L-1216269 242734 L-1216253 242733 L-1216020 242733 L-1215959 242731 L-1215921 242731 L-1215341 242730 L-1215207 242729 L-1215184 242725 L-1215166 242717 L-1215148 242709 L-1215132 242700 L-1215108 242691 L-1215092 242685 L-1215070 242677 L-1215054 242669 L-1215030 242665 L-1215014 242661 L-1214992 242657 L-1214975 242655 L-1214926 242652 L-1214854 242649 L-1214819 242643 L-1214796 242639 L-1214760 242634 L-1214719 242630 L-1214682 242628 L-1214666 242623 L-1214642 242620 L-1214605 242618 L-1214588 242615 L-1214564 242613 L-1214547 242610 L-1214528 242608 L-1214512 242606 L-1214483 242603 L-1214457 242599 L-1214412 242598 L-1214395 242596 L-1214353 242595 L-1214305 242593 L-1214235 242591 L-1214219 242589 L-1214203 242586 L-1214141 242585 L-1214102 242584 L-1214063 242583 L-1213897 242582 L-1213832 242581 L-1213816 242580 L-1213771 242578 L-1213713 242577 L-1213500 242575 L-1213467 242574 L-1213424 242573 L-1213346 242572 L-1212809 242571 L-1212731 242570 L-1212627 242568 L-1212538 242567 L-1212362 242566 L-1212011 242565 L-1211855 242563 L-1211417 242562 L-1211261 242561 L-1211131 242560 L-1210427 242558 L-1210226 242557 L-1209265 242555 L-1208783 242554 L-1208684 242554 L-1208592 242553 L-1208347 242551 L-1208273 242550 L-1207831 242548 L-1207734 242547 L-1207719 242546 L-1207703 242545 L-1207678 242544 L-1207213 242543 L-1206996 242542 L-1206856 242541 L-1206562 242539 L-1206474 242538 L-1206432 242537 L-1206403 242536 L-1206230 242535 L-1206171 242534 L-1206095 242533 L-1206014 242532 L-1205944 242532 L-1205635 242531 L-1205550 242530 L-1205336 242528 L-1205301 242527 L-1204618 242526 L-1204519 242525 L-1204314 242524 L-1204267 242523 L-1203989 242522 L-1203927 242521 L-1203910 242519 L-1203832 242518 L-1203524 242515 L-1203499 242514 L-1203445 242512 L-1203423 242511 L-1203300 242510 L-1203164 242508 L-1202920 242507 L-1202795 242507 L-1202148 242506 L-1202132 242506 L-1202107 242506 L-1201927 242503 L-1201851 242502 L-1201759 242501 L-1201331 242500 L-1200915 242499 L-1200522 242497 L-1200444 242496 L-1200425 242495 L-1200061 242494 L-1199825 242492 L-1199597 242491 L-1199284 242490 L-1199206 242489 L-1199125 242487 L-1198947 242485 L-1198931 242484 L-1198666 242482 L-1198586 242480 L-1198356 242479 L-1198129 242478 L-1197814 242478 L-1197639 242477 L-1197278 242477 L-1196886 242476 L-1196816 242474 L-1196753 242473 L-1196612 242471 L-1196561 242470 L-1196459 242467 L-1195957 242466 L-1195760 242465 L-1195513 242464 L-1195328 242463 L-1195028 242462 L-1194952 242461 L-1194786 242459 L-1193902 242458 L-1193873 242455 L-1193750 242453 L-1193171 242452 L-1193093 242451 L-1192380 242451 L-1192068 242451 L-1191855 242451 L-1191838 242451 L-1191452 242451 L-1190927 242449 L-1190480 242448 L-1190151 242447 L-1189998 242446 L-1189672 242446 L-1189494 242444 L-1189412 242444 L-1189206 242442 L-1189031 242441 L-1188102 242440 L-1187212 242439 L-1187173 242438 L-1186945 242438 L-1186566 242437 L-1185778 242436 L-1185544 242435 L-1185468 242434 L-1185111 242432 L-1184539 242430 L-1184272 242429 L-1183885 242428 L-1183782 242428 L-1183612 242428 L-1182993 242428 L-1182782 242428 L-1182474 242428 L-1182421 242427 L-1182294 242426 L-1182241 242425 L-1182121 242424 L-1181785 242422 L-1180826 242420 L-1180695 242418 L-1180493 242417 L-1179862 242416 L-1179550 242415 L-1179136 242414 L-1179109 242413 L-1178964 242412 L-1178544 242411 L-1177211 242411 L-1177164 242410 L-1177036 242407 L-1177019 242406 L-1176441 242404 L-1176235 242403 L-1176205 242402 L-1176165 242401 L-1176107 242400 L-1176070 242399 L-1175991 242398 L-1175848 242396 L-1175394 242395 L-1175276 242394 L-1174991 242393 L-1174618 242392 L-1174522 242391 L-1174195 242390 L-1173840 242389 L-1173670 242388 L-1173623 242387 L-1173514 242386 L-1173425 242384 L-1173397 242383 L-1173321 242381 L-1173017 242380 L-1172984 242378 L-1172912 242377 L-1172544 242376 L-1172208 242375 L-1172128 242375 L-1171908 242374 L-1171737 242372 L-1171709 242371 L-1171212 242370 L-1170663 242368 L-1169782 242367 L-1169684 242365 L-1169607 242364 L-1169332 242363 L-1169085 242360 L-1169011 242359 L-1168949 242357 L-1168831 242356 L-1168788 242355 L-1168678 242354 L-1168601 242352 L-1167901 242351 L-1167655 242350 L-1167615 242348 L-1167459 242347 L-1166860 242347 L-1166633 242347 L-1166541 242347 L-1166066 242347 L-1165468 242345 L-1164949 242344 L-1164928 242343 L-1164782 242342 L-1164462 242342 L-1163920 242342 L-1163688 242342 L-1163518 242342 L-1163031 242341 L-1162804 242340 L-1162719 242339 L-1162373 242338 L-1162047 242338 L-1161524 242336 L-1161196 242335 L-1160596 242334 L-1160398 242332 L-1160346 242331 L-1160306 242330 L-1160024 242329 L-1159340 242327 L-1159030 242326 L-1159005 242323 L-1158814 242322 L-1158591 242321 L-1158505 242320 L-1157841 242318 L-1157817 242317 L-1157595 242315 L-1157265 242314 L-1156913 242311 L-1156708 242310 L-1156476 242308 L-1156218 242307 L-1156028 242305 L-1155981 242304 L-1155754 242303 L-1155719 242302 L-1155563 242300 L-1155348 242299 L-1155175 242298 L-1155084 242297 L-1154807 242296 L-1154563 242295 L-1154248 242294 L-1153822 242294 L-1153784 242294 L-1153301 242294 L-1153068 242294 L-1152856 242293 L-1152630 242292 L-1152080 242292 L-1151833 242291 L-1150999 242291 L-1150943 242290 L-1150921 242288 L-1150763 242287 L-1150302 242286 L-1150261 242285 L-1149921 242283 L-1149788 242282 L-1149565 242281 L-1148993 242280 L-1148521 242279 L-1148326 242278 L-1148134 242276 L-1147944 242275 L-1147842 242274 L-1147474 242273 L-1147428 242272 L-1147346 242271 L-1146053 242270 L-1146004 242269 L-1145736 242269 L-1145591 242269 L-1145040 242269 L-1144923 242268 L-1144842 242267 L-1144482 242266 L-1144259 242264 L-1143977 242263 L-1143648 242261 L-1143140 242260 L-1143028 242259 L-1142949 242258 L-1142785 242257 L-1142490 242257 L-1142021 242257 L-1141825 242258 L-1141774 242258 L-1141125 242257 L-1141003 242256 L-1140549 242256 L-1140513 242255 L-1140045 242254 L-1139934 242252 L-1139918 242251 L-1139701 242251 L-1139521 242250 L-1138989 242250 L-1137959 242250 L-1137760 242249 L-1137302 242248 L-1136353 242246 L-1136255 242245 L-1135901 242243 L-1135840 242242 L-1135826 242240 L-1135790 242239 L-1135421 242238 L-1135301 242237 L-1135059 242236 L-1134895 242235 L-1134708 242234 L-1134587 242233 L-1133516 242231 L-1132658 242230 L-1132446 242227 L-1132349 242226 L-1132174 242224 L-1131841 242223 L-1131769 242222 L-1131712 242221 L-1131536 242221 L-1131148 242220 L-1130912 242219 L-1130801 242218 L-1130684 242216 L-1129703 242215 L-1129678 242214 L-1129083 242212 L-1129051 242212 L-1128902 242211 L-1128618 242210 L-1127706 242210 L-1126760 242210 L-1126607 242209 L-1126504 242209 L-1126373 242208 L-1126230 242207 L-1126203 242206 L-1126089 242204 L-1125871 242203 L-1125189 242202 L-1125060 242201 L-1124757 242200 L-1124517 242198 L-1124184 242197 L-1123545 242196 L-1123203 242194 L-1123141 242192 L-1122985 242192 L-1122064 242192 L-1121593 242192 L-1121550 242192 L-1121537 242191 L-1121496 242190 L-1121474 242189 L-1121447 242188 L-1121303 242187 L-1120880 242186 L-1120545 242186 L-1120354 242185 L-1119925 242185 L-1119738 242184 L-1119349 242182 L-1118814 242180 L-1118442 242179 L-1118420 242179 L-1118170 242178 L-1118052 242177 L-1117976 242176 L-1117840 242175 L-1117801 242174 L-1117721 242173 L-1117327 242172 L-1116831 242171 L-1116719 242168 L-1116546 242167 L-1116238 242166 L-1115790 242165 L-1115467 242164 L-1115325 242162 L-1114898 242160 L-1114744 242158 L-1114689 242155 L-1113875 242154 L-1113856 242153 L-1113484 242152 L-1113427 242152 L-1112298 242151 L-1112230 242151 L-1111672 242150 L-1111477 242149 L-1111341 242148 L-1111107 242147 L-1110760 242146 L-1110726 242143 L-1110690 242142 L-1110622 242140 L-1110273 242139 L-1110101 242138 L-1109616 242137 L-1109600 242136 L-1109275 242135 L-1109117 242134 L-1107976 242131 L-1107952 242130 L-1107760 242128 L-1107566 242127 L-1107316 242126 L-1107299 242125 L-1106279 242124 L-1105981 242123 L-1105906 242122 L-1105769 242119 L-1105594 242118 L-1105017 242116 L-1104801 242115 L-1104738 242114 L-1104607 242113 L-1104570 242111 L-1104047 242110 L-1103909 242539 L-1103895 242539 L-1103872 242539 L-1103851 242539 L-1103624 242108 L-1102848 242108 L-1102807 242108 L-1102439 242108 L-1102361 242107 L-1102309 242106 L-1101636 242105 L-1100893 242104 L-1100468 242104 L-1100021 242103 L-1098959 242102 L-1098647 242100 L-1098237 242100 L-1098165 242099 L-1097641 242099 L-1097546 242099 L-1097528 242099 L-1097084 242098 L-1096898 242095 L-1096118 242093 L-1095446 242092 L-1095033 242089 L-1094802 242087 L-1094661 242086 L-1094579 242083 L-1094559 242082 L-1094483 242082 L-1094355 242081 L-1094038 242082 L-1093814 242082 L-1093489 242081 L-1093427 242081 L-1093057 242081 L-1093023 242081 L-1092815 242081 L-1092147 242081 L-1092070 242081 L-1091912 242079 L-1091801 242079 L-1091475 242078 L-1091320 242077 L-1090979 242077 L-1090922 242075 L-1090584 242072 L-1090380 242071 L-1090327 242069 L-1088951 242068 L-1088821 242067 L-1088388 242066 L-1088067 242065 L-1087240 242063 L-1087116 242062 L-1086385 242059 L-1086230 242057 L-1086189 242056 L-1086135 242055 L-1086112 242054 L-1085998 242053 L-1085701 242052 L-1085412 242051 L-1085357 242050 L-1085237 242048 L-1085206 242047 L-1085107 242046 L-1084663 242046 L-1084511 242045 L-1083676 242045 L-1083134 242044 L-1082799 242044 L-1082784 242043 L-1082708 242042 L-1082592 242041 L-1082397 242040 L-1082133 242039 L-1081298 242038 L-1081202 242036 L-1080680 242035 L-1080639 242034 L-1080539 242033 L-1079711 242033 L-1079576 242032 L-1079237 242032 L-1078683 242031 L-1078304 242030 L-1078141 242029 L-1077831 242028 L-1077018 242027 L-1076712 242026 L-1076444 242026 L-1076122 242026 L-1075801 242027 L-1075526 242027 L-1074697 242024 L-1074602 242023 L-1074509 242020 L-1074405 242017 L-1074018 242014 L-1073538 242011 L-1073522 242010 L-1073403 242009 L-1073035 242007 L-1072940 242006 L-1072106 242004 L-1072029 242003 L-1071730 242002 L-1071639 242000 L-1071232 241998 L-1071122 241996 L-1070422 241995 L-1069949 241994 L-1069889 241993 L-1069670 241991 L-1069396 241990 L-1069283 241988 L-1068256 241987 L-1067870 241986 L-1067850 241985 L-1067517 241984 L-1067272 241983 L-1066839 241982 L-1066729 241981 L-1066611 241980 L-1066159 241978 L-1065569 241976 L-1065232 241975 L-1063340 241974 L-1063226 241972 L-1063014 241971 L-1061696 241970 L-1061589 241724 L-1061523 241482 L-1061487 241259 L-1061425 241259 L-1060926 241502 L-1060251 241742 L-1060229 241963 L-1059958 241961 L-1058990 241961 L-1058301 241960 L-1058139 241959 L-1057598 241958 L-1057508 241957 L-1056489 241956 L-1055541 241954 L-1055176 241955 L-1055073 241956 L-1054485 241956 L-1054425 241956 L-1054325 241955 L-1053885 241952 L-1053777 241951 L-1053336 241950 L-1052336 241947 L-1052079 241944 L-1051976 241940 L-1051846 241938 L-1051480 241936 L-1050899 241934 L-1050868 241933 L-1050552 241932 L-1048569 241931 L-1048454 241930 L-1048386 241930 L-1048027 241928 L-1046409 241927 L-1046231 241927 L-1046087 241927 L-1045264 241928 L-1045212 241930 L-1045157 241930 L-1044723 241930 L-1043742 241931 L-1043669 241931 L-1042584 241930 L-1042371 241930 L-1041655 241927 L-1041266 241926 L-1041048 241924 L-1040728 241922 L-1040234 241920 L-1040107 241919 L-1039878 241916 L-1039645 241914 L-1039586 241913 L-1039297 241912 L-1039024 241910 L-1037995 241909 L-1036330 241908 L-1035910 241907 L-1035773 241906 L-1035617 241906 L-1035312 241904 L-1035084 241902 L-1034925 241901 L-1034766 241899 L-1034597 241897 L-1034549 241896 L-1034496 241895 L-1034474 241895 L-1034088 241894 L-1033838 241894 L-1033568 241894 L-1033407 241894 L-1033318 241894 L-1031659 241894 L-1031494 241895 L-1031114 241894 L-1030654 241894 L-1030044 241891 L-1028951 241890 L-1028520 241889 L-1028488 241888 L-1028426 241887 L-1028409 241886 L-1026705 241885 L-1026663 241884 L-1026197 241883 L-1026010 241882 L-1025978 241879 L-1025382 241878 L-1025333 241877 L-1025010 241876 L-1024959 241875 L-1024749 241874 L-1024731 241873 L-1024464 241871 L-1024412 241870 L-1023943 241868 L-1023432 241866 L-1023354 241866 L-1023059 241865 L-1023043 241864 L-1023004 241863 L-1022933 241862 L-1022776 241861 L-1021830 241861 L-1021774 241861 L-1021253 241861 L-1021060 241860 L-1020959 241860 L-1020733 241859 L-1020224 241859 L-1019836 241888 L-1019766 241888 L-1019418 241887 L-1019061 241886 L-1017932 241854 L-1017880 241852 L-1017654 241851 L-1017620 241850 L-1017495 241848 L-1017397 241848 L-1017132 241848 L-1016392 241849 L-1015813 241849 L-1015520 241849 L-1014814 241849 L-1014635 241848 L-1014612 241848 L-1013976 241847 L-1013665 241846 L-1013268 241846 L-1013239 241844 L-1013218 241843 L-1013064 241842 L-1012379 241842 L-1012362 241842 L-1012022 241842 L-1011750 241841 L-1011712 241840 L-1011656 241838 L-1011634 241837 L-1011562 241836 L-1011230 241835 L-1011124 241834 L-1011096 241831 L-1010898 241830 L-1010745 241829 L-1009877 241828 L-1009314 241826 L-1009298 241826 L-1009197 241825 L-1009095 241826 L-1008948 241826 L-1008870 241826 L-1008832 241825 L-1008777 241824 L-1008703 241823 L-1008558 241822 L-1008077 241822 L-1007672 241820 L-1006806 241822 L-1006786 241822 L-1006528 241822 L-1006452 241822 L-1006423 241820 L-1006412 241818 L-1006395 241817 L-1006102 241816 L-1006062 241815 L-1005991 241814 L-1005917 241813 L-1005712 241812 L-1005552 241808 L-1005251 241805 L-1005173 241801 L-1005156 241798 L-1004940 241795 L-1004709 241795 L-1004599 241796 L-1004229 241798 L-1004071 241798 L-1003839 241798 L-1003671 241798 L-1003526 241796 L-1003394 241795 L-1002118 241793 L-1001714 241791 L-1001654 241790 L-1001537 241788 L-1001112 241787 L-1001096 241784 L-1001034 241783 L-1000761 241781 L-1000648 241780 L-1000366 241778 L-1000089 241777 L-999664 241775 L-999641 241774 L-999563 241772 L-999438 241771 L-998851 241770 L-998460 241769 L-998124 241768 L-997535 241767 L-997433 241767 L-997263 241766 L-997126 241766 L-996299 241765 L-995113 241764 L-995077 241763 L-995022 241763 L-994801 241762 L-994596 241762 L-994442 241762 L-994185 241760 L-994108 241759 L-993566 241758 L-993529 241757 L-993280 241756 L-992893 241755 L-992067 241754 L-991709 241753 L-991399 241753 L-991141 241752 L-990917 241751 L-990511 241750 L-990394 241748 L-990211 241747 L-990158 241747 L-989969 241746 L-989799 241745 L-989770 241744 L-989489 241743 L-989179 241742 L-989041 241741 L-988731 241740 L-988537 241740 L-988522 241739 L-987802 241739 L-987669 241736 L-987371 241735 L-987281 241734 L-986680 241734 L-986642 241733 L-986563 241732 L-985943 241731 L-985791 241729 L-985751 241728 L-985440 241727 L-985248 241725 L-985055 241723 L-985000 241721 L-984691 241720 L-984639 241719 L-984584 241720 L-984559 241720 L-984434 241720 L-983623 241719 L-983547 241718 L-983006 241717 L-982737 241716 L-982078 241715 L-981170 241713 L-980929 241712 L-980397 241711 L-980179 241710 L-979072 241711 L-979022 241711 L-978246 241711 L-977698 241710 L-977587 241709 L-977434 241707 L-977379 241706 L-977214 241705 L-976837 241704 L-976389 241703 L-976334 241701 L-976180 241700 L-975500 241699 L-975280 241698 L-974762 241697 L-973913 241695 L-973897 241694 L-972106 241693 L-971552 241692 L-971434 241691 L-970429 241689 L-970392 241688 L-970159 241688 L-970067 241688 L-970027 241688 L-969695 241687 L-969343 241686 L-969078 241684 L-968791 241683 L-968480 241681 L-968226 241679 L-968132 241677 L-967642 241676 L-967435 241675 L-966869 241674 L-966755 241675 L-966404 241674 L-966352 241674 L-966312 241674 L-965709 241672 L-964975 241670 L-964394 241668 L-964158 241665 L-963618 241662 L-963465 241660 L-962964 241659 L-962754 241657 L-962731 241657 L-962672 241656 L-961710 241656 L-961532 241655 L-961090 241653 L-961066 241651 L-960911 241650 L-960829 241650 L-960679 241651 L-960032 241651 L-959982 241650 L-958862 241649 L-957878 241648 L-957817 241647 L-957096 241646 L-956231 241645 L-955852 241644 L-955633 241644 L-954874 241643 L-954822 241641 L-954513 241639 L-953661 241639 L-953468 241638 L-953292 241637 L-953067 241637 L-952940 241636 L-952748 241636 L-952516 241635 L-952346 241636 L-952060 241635 L-951781 241635 L-951697 241634 L-951527 241633 L-951510 241631 L-951356 241629 L-951317 241628 L-950542 241627 L-950465 241627 L-950233 241625 L-949806 241624 L-949461 241623 L-948877 241622 L-948609 241622 L-948350 241622 L-948220 241620 L-948204 241619 L-948090 241617 L-948066 241616 L-947832 241615 L-947796 241614 L-946480 241614 L-946425 241613 L-945746 241611 L-945173 241611 L-945048 241611 L-944895 241611 L-944818 241611 L-944506 241609 L-944233 241608 L-944143 241605 L-944042 241605 L-943114 241604 L-943038 241604 L-942674 241604 L-942649 241603 L-942613 241602 L-941837 241600 L-941745 241599 L-941605 241598 L-941204 241597 L-940942 241597 L-940698 241598 L-940484 241597 L-940404 241597 L-940327 241597 L-940251 241597 L-940064 241598 L-939998 241598 L-939748 241598 L-939693 241597 L-939556 241596 L-939476 241593 L-939363 241592 L-939139 241591 L-938975 241590 L-938934 241589 L-938765 241588 L-938394 241587 L-938379 241586 L-938263 241585 L-937542 241584 L-937506 241583 L-937373 241583 L-937025 241581 L-936614 241581 L-936578 241581 L-936500 241580 L-936461 241579 L-936097 241578 L-935892 241577 L-935877 241576 L-935532 241575 L-935183 241575 L-934858 241575 L-934756 241574 L-934603 241574 L-934409 241573 L-934177 241573 L-934085 241573 L-933929 241573 L-933852 241573 L-933811 241572 L-933698 241571 L-933674 241569 L-933424 241569 L-933285 241567 L-932707 241564 L-931879 241562 L-931391 241560 L-931269 241559 L-931231 241557 L-931218 241556 L-931066 241554 L-930965 241552 L-930732 241551 L-930342 241549 L-930037 241548 L-930022 241547 L-929851 241545 L-929613 241543 L-929016 241543 L-928412 241542 L-928373 241542 L-928332 241542 L-928179 241541 L-928126 241540 L-928063 241539 L-927995 241538 L-927941 241536 L-927915 241535 L-927869 241533 L-927774 241531 L-927637 241530 L-927484 241529 L-927352 241528 L-927311 241528 L-927275 241527 L-927213 241526 L-926940 241524 L-926626 241523 L-926585 241520 L-926500 241519 L-926322 241518 L-926085 241517 L-925727 241516 L-925697 241515 L-925128 241514 L-925005 241513 L-924769 241512 L-924746 241512 L-924465 241511 L-924180 241511 L-923924 241511 L-923352 241509 L-923056 241508 L-922980 241507 L-922281 241506 L-922203 241505 L-922168 241504 L-922141 241503 L-922090 241501 L-921896 241500 L-921756 241497 L-921720 241496 L-921680 241495 L-921084 241494 L-920852 241493 L-920569 241501 L-920514 241507 L-920440 241515 L-920362 241521 L-920126 241519 L-919882 241518 L-919746 241517 L-919640 241516 L-919560 241515 L-919173 241513 L-919046 241512 L-918894 241511 L-918856 241509 L-918710 241508 L-918488 241507 L-918315 241506 L-918246 241505 L-917424 241503 L-917408 241503 L-917113 241502 L-916326 241501 L-916016 241501 L-915869 241500 L-915641 241499 L-915441 241496 L-914504 241495 L-914467 241494 L-914444 241493 L-914403 241491 L-914135 241490 L-913538 241489 L-913475 241488 L-913439 241487 L-913422 241485 L-912727 241485 L-912526 241485 L-912494 241485 L-912160 241485 L-912053 241484 L-911428 241482 L-910924 241481 L-910887 241479 L-910445 241479 L-910348 241478 L-910190 241478 L-909876 241478 L-909864 241478 L-909424 241479 L-908942 241480 L-908813 241480 L-908493 241480 L-908424 241479 L-908120 241479 L-907944 241478 L-907751 241477 L-907508 241475 L-907310 241472 L-907285 241470 L-906706 241469 L-906637 241468 L-906227 241467 L-906173 241466 L-906126 241465 L-905762 241464 L-905616 241463 L-905411 241461 L-905315 241461 L-905159 241460 L-905098 241459 L-904950 241457 L-904850 241456 L-904293 241456 L-904271 241458 L-904099 241459 L-903557 241460 L-903496 241460 L-903442 241458 L-903413 241456 L-903342 241455 L-903326 241453 L-903262 241452 L-903226 241449 L-903071 241448 L-902745 241447 L-902179 241446 L-902165 241445 L-902103 241443 L-902001 241441 L-901955 241441 L-901712 241440 L-901290 241440 L-901135 241440 L-899394 241437 L-898852 241436 L-897909 241435 L-897499 241434 L-896958 241432 L-896762 241431 L-896593 241430 L-896298 241429 L-896183 241428 L-896168 241428 L-896013 241427 L-895873 241425 L-895796 241423 L-895665 241423 L-895317 241423 L-894946 241424 L-894348 241424 L-894172 241424 L-894016 241423 L-893747 241422 L-893596 241422 L-893304 241425 L-893281 241428 L-893198 241430 L-892970 241432 L-892271 241431 L-892144 241430 L-891713 241429 L-891619 241428 L-890414 241428 L-890365 241427 L-890071 241427 L-889668 241425 L-889392 241423 L-889373 241422 L-889255 241421 L-889179 241420 L-888997 241419 L-888517 241418 L-888066 241416 L-887656 241415 L-887625 241413 L-887207 241412 L-887093 241412 L-886975 241412 L-886960 241412 L-886765 241411 L-886744 241409 L-886511 241408 L-886068 241407 L-885749 241405 L-885284 241405 L-885119 241404 L-884964 241403 L-884808 241403 L-884355 241403 L-884035 241403 L-883980 241404 L-883609 241404 L-883572 241405 L-883245 241405 L-883129 241404 L-883030 241403 L-882704 241400 L-882317 241399 L-882056 241398 L-881698 241396 L-881441 241395 L-879271 241394 L-879222 241393 L-879199 241392 L-878788 241392 L-878726 241392 L-878656 241393 L-878425 241393 L-878114 241392 L-877811 241389 L-877767 241388 L-877459 241387 L-877326 241386 L-877109 241385 L-876397 241384 L-876242 241384 L-876104 241383 L-875955 241383 L-875934 241383 L-875739 241382 L-875714 241381 L-875623 241380 L-875601 241379 L-875585 241377 L-875485 241376 L-874556 241375 L-874098 241375 L-873006 241373 L-872583 241373 L-872180 241372 L-872141 241371 L-871887 241370 L-871113 241368 L-871097 241367 L-871072 241365 L-870879 241364 L-870143 241363 L-869874 241362 L-869833 241361 L-869434 241359 L-869409 241358 L-868620 241357 L-867940 241356 L-866569 241355 L-866299 241353 L-866250 241352 L-865713 241350 L-865680 241349 L-865578 241347 L-865254 241346 L-865175 241345 L-864906 241345 L-863993 241344 L-863855 241344 L-863606 241341 L-863060 241341 L-862638 241340 L-862445 241339 L-862430 241339 L-862292 241337 L-862198 241336 L-862071 241335 L-861811 241334 L-861786 241332 L-861695 241331 L-861384 241329 L-861324 241328 L-861207 241328 L-860858 241328 L-860047 241328 L-859815 241326 L-858987 241326 L-858754 241324 L-858538 241323 L-858019 241323 L-857381 241322 L-856965 241321 L-856643 241320 L-856162 241319 L-855736 241319 L-855675 241317 L-855327 241317 L-855286 241316 L-855272 241315 L-855173 241313 L-855127 241313 L-854642 241312 L-853841 241312 L-853506 241312 L-852425 241311 L-851945 241310 L-851922 241309 L-851782 241308 L-851226 241307 L-850529 241305 L-850220 241304 L-849999 241303 L-849894 241302 L-849791 241300 L-849120 241299 L-849026 241298 L-849004 241298 L-848927 241297 L-848749 241297 L-848577 241297 L-848396 241296 L-848383 241295 L-848307 241293 L-848142 241292 L-847627 241291 L-847611 241290 L-847471 241290 L-847108 241289 L-847084 241289 L-846954 241288 L-846929 241287 L-846567 241286 L-846041 241284 L-845948 241283 L-845732 241280 L-845638 241279 L-845614 241278 L-845150 241277 L-845072 241277 L-844671 241276 L-844220 241276 L-842968 241275 L-842930 241274 L-842498 241273 L-842465 241272 L-841746 241271 L-841570 241269 L-841434 241268 L-841128 241267 L-841073 241266 L-841048 241264 L-841032 241262 L-840857 241261 L-840667 241260 L-840160 241260 L-839786 241251 L-839448 241241 L-839409 241232 L-838690 241225 L-838597 241224 L-838558 241223 L-838016 241223 L-837993 241221 L-837591 241220 L-837165 241219 L-836894 241219 L-836714 241218 L-836468 241216 L-836445 241215 L-836389 241213 L-835772 241212 L-835269 241211 L-834882 241211 L-834263 241212 L-834047 241212 L-833892 241213 L-832600 241211 L-832500 241209 L-832058 241207 L-831727 241206 L-831426 241204 L-831184 241203 L-830449 241201 L-829870 241200 L-829040 241199 L-828940 241197 L-828382 241196 L-828244 241195 L-826602 241194 L-826542 241194 L-826448 241194 L-825481 241194 L-825303 241193 L-825016 241193 L-824798 241193 L-824720 241192 L-824449 241192 L-824334 241191 L-824180 241190 L-823870 241189 L-823792 241188 L-823701 241188 L-823623 241187 L-823507 241187 L-823328 241185 L-823236 241184 L-823198 241183 L-822695 241183 L-822476 241182 L-822347 241182 L-822192 241181 L-822137 241180 L-822013 241180 L-821628 241179 L-821119 241178 L-821047 241177 L-820567 241176 L-820490 241175 L-820389 241175 L-820156 241173 L-819691 241173 L-819461 241173 L-819445 241173 L-819213 241173 L-819058 241173 L-818996 241173 L-818803 241172 L-818532 241170 L-817781 241169 L-816828 241169 L-816792 241168 L-816567 241168 L-816127 241168 L-815846 241166 L-815498 241165 L-814429 241164 L-813501 241164 L-813370 241164 L-813324 241164 L-813254 241163 L-813100 241163 L-813022 241160 L-812849 241158 L-812414 241156 L-812210 241155 L-812149 241153 L-811567 241152 L-811413 241149 L-811297 241148 L-811256 241147 L-811087 241146 L-810950 241145 L-810739 241143 L-810662 241142 L-810639 241141 L-810430 241139 L-810020 241137 L-809995 241136 L-809772 241135 L-809627 241134 L-809592 241133 L-809579 241132 L-809556 241131 L-809323 241130 L-809138 241129 L-808920 241128 L-808895 241127 L-808206 241125 L-808102 241124 L-808067 241123 L-808046 241122 L-807852 241121 L-807799 241120 L-807682 241118 L-807600 241118 L-807489 241117 L-807175 241116 L-806715 241115 L-806460 241113 L-806226 241111 L-806096 241110 L-805744 241109 L-805685 241108 L-805532 241107 L-804960 241105 L-804873 241104 L-804720 241101 L-804424 241099 L-804054 241097 L-803751 241095 L-803674 241094 L-803269 241093 L-803101 241093 L-802957 241093 L-802417 241093 L-802356 241093 L-802341 241091 L-802175 241089 L-801969 241088 L-801894 241088 L-801801 241087 L-801391 241086 L-801376 241085 L-801352 241085 L-801159 241084 L-801083 241094 L-800912 241104 L-800850 241112 L-800834 241122 L-800320 241121 L-800098 241120 L-799479 241118 L-799226 241117 L-799032 241116 L-798993 241115 L-798919 241115 L-798854 241115 L-798203 241115 L-798165 241116 L-797990 241116 L-797925 241116 L-797251 241116 L-796862 241113 L-796600 241112 L-796362 241111 L-796284 241109 L-796269 241107 L-796067 241106 L-795696 241104 L-795470 241103 L-794835 241101 L-794815 241101 L-794428 241100 L-794334 241100 L-794276 241099 L-794000 241098 L-793691 241098 L-793613 241097 L-792762 241098 L-792419 241104 L-791982 241110 L-791549 241116 L-791054 241121 L-790904 241120 L-790636 241121 L-789398 241122 L-789341 241124 L-787577 241125 L-787387 241124 L-786377 241123 L-786226 241122 L-785850 241124 L-785529 241127 L-784924 241129 L-784854 241131 L-784677 241130 L-783849 241129 L-783710 241128 L-783323 241127 L-783139 241125 L-783095 241124 L-782975 241123 L-782765 241122 L-782318 241120 L-781970 241119 L-781837 241118 L-781428 241117 L-781078 241117 L-780793 241116 L-780599 241115 L-780445 241115 L-780281 241113 L-780213 241112 L-780113 241112 L-779879 241111 L-779763 241111 L-779710 241110 L-779168 241110 L-778704 241109 L-777522 241109 L-777388 241109 L-777364 241109 L-777311 241109 L-776643 241109 L-775608 241107 L-775415 241106 L-775235 241105 L-775083 241105 L-775043 241104 L-775028 241104 L-774966 241103 L-774641 241101 L-773481 241100 L-773287 241099 L-773110 241098 L-771996 241097 L-771136 241096 L-771030 241096 L-770556 241095 L-770364 241095 L-768042 241094 L-767964 241093 L-767843 241091 L-767809 241089 L-767771 241087 L-767677 241084 L-767461 241082 L-766880 241080 L-766494 241079 L-765721 241077 L-765643 241076 L-764945 241076 L-764404 241076 L-764363 241075 L-764233 241075 L-763769 241074 L-763730 241073 L-763596 241072 L-763228 241071 L-763198 241070 L-763048 241070 L-762647 241069 L-760823 241070 L-760016 241069 L-759298 241069 L-759281 241069 L-758967 241067 L-758406 241065 L-757904 241064 L-757385 241063 L-757364 241062 L-755620 241061 L-755451 241060 L-755255 241059 L-754361 241058 L-753843 241056 L-753632 241055 L-753374 241053 L-752665 241052 L-751715 241051 L-751056 241050 L-751017 241048 L-750731 241047 L-750648 241046 L-750553 241046 L-750421 241045 L-750344 241045 L-749608 241045 L-749271 241044 L-749222 241045 L-748966 241045 L-748680 241044 L-748254 241044 L-747674 241043 L-747415 241043 L-747263 241041 L-747016 241041 L-746978 241041 L-746181 241040 L-746143 241039 L-745966 241039 L-745557 241037 L-745328 241037 L-745252 241037 L-745120 241037 L-745004 241036 L-744656 241035 L-744593 241034 L-744440 241033 L-743699 241032 L-743588 241031 L-743418 241029 L-743379 241028 L-743084 241028 L-742683 241028 L-742507 241028 L-742412 241028 L-742103 241027 L-741301 241026 L-740843 241024 L-740323 241023 L-739834 241022 L-739139 241021 L-738092 241020 L-737823 241020 L-737769 241019 L-737609 241019 L-737357 241019 L-737111 241017 L-737032 241016 L-736818 241014 L-736506 241013 L-736042 241011 L-736028 241010 L-735732 241010 L-735718 241009 L-734727 241008 L-734055 241007 L-733720 241004 L-733104 241004 L-732967 241003 L-732328 241002 L-732198 241001 L-731247 240999 L-731148 240997 L-730588 240996 L-730179 240996 L-729751 240996 L-729660 240995 L-728825 240995 L-728462 240995 L-728422 240996 L-728290 240997 L-728113 240997 L-727896 240997 L-727843 240996 L-727686 240993 L-727433 240992 L-726333 240991 L-726255 240990 L-726036 240989 L-725905 240987 L-725869 240986 L-725675 240985 L-725576 240984 L-725092 240983 L-724808 240981 L-724648 240980 L-724553 240978 L-724281 240977 L-724011 240976 L-723995 240972 L-723857 240968 L-723719 240965 L-723392 240961 L-723083 240958 L-723042 240957 L-722966 240955 L-722851 240954 L-722000 240952 L-721674 240951 L-721343 240950 L-721210 240950 L-720994 240950 L-720978 240950 L-720297 240950 L-720204 240948 L-720180 240946 L-720165 240944 L-720126 240943 L-719714 240941 L-719445 240940 L-719405 240939 L-719037 240939 L-718827 240938 L-717744 240938 L-717728 240937 L-717699 240936 L-717679 240936 L-717302 240933 L-717047 240932 L-716799 240930 L-716660 240928 L-716527 240927 L-716196 240926 L-716103 240925 L-716042 240924 L-715484 240922 L-715422 240921 L-715267 240920 L-715072 240919 L-714880 240918 L-714864 240917 L-714826 240916 L-714787 240915 L-714516 240914 L-714393 240913 L-714361 240912 L-714261 240912 L-714106 240912 L-713964 240912 L-713680 240910 L-713355 240910 L-712659 240909 L-712636 240909 L-712127 240909 L-711281 240909 L-710918 240908 L-710763 240907 L-710159 240907 L-709989 240907 L-709929 240907 L-709873 240906 L-708818 240905 L-708799 240905 L-707893 240905 L-707872 240905 L-707705 240904 L-707463 240904 L-707413 240903 L-707358 240901 L-707221 240900 L-707181 240898 L-706253 240897 L-706198 240897 L-706076 240897 L-706004 240897 L-705888 240897 L-705710 240898 L-704727 240897 L-704588 240897 L-704470 240895 L-704176 240893 L-703928 240892 L-703892 240891 L-703837 240892 L-703816 240892 L-703683 240892 L-703603 240892 L-703466 240891 L-702843 240891 L-702676 240890 L-702212 240890 L-702036 240888 L-702019 240886 L-701959 240885 L-701842 240884 L-701360 240883 L-700664 240882 L-700291 240881 L-700122 240880 L-699156 240879 L-699001 240878 L-698823 240878 L-698731 240877 L-698475 240877 L-698305 240877 L-697658 240876 L-697647 240876 L-697067 240874 L-696929 240874 L-696873 240872 L-696138 240871 L-696099 240870 L-696022 240870 L-695380 240869 L-694606 240869 L-694513 240868 L-694464 240868 L-694449 240867 L-694413 240867 L-694397 240865 L-694334 240864 L-694318 240862 L-694298 240862 L-694143 240861 L-694104 240860 L-694088 240859 L-694049 240858 L-693909 240857 L-693833 240856 L-693468 240855 L-693120 240854 L-692347 240853 L-691744 240852 L-691548 240850 L-691318 240850 L-691180 240849 L-690542 240849 L-690253 240848 L-690231 240848 L-689771 240847 L-689538 240847 L-689483 240846 L-689445 240845 L-688942 240844 L-688392 240843 L-687604 240842 L-686481 240842 L-685586 240841 L-685498 240841 L-685199 240840 L-685127 240838 L-685011 240837 L-683835 240836 L-683487 240835 L-683464 240834 L-682945 240833 L-682798 240832 L-682690 240831 L-682480 240830 L-682326 240829 L-682303 240828 L-682109 240826 L-682033 240825 L-681889 240824 L-681088 240823 L-680942 240822 L-680662 240821 L-680485 240820 L-680175 240819 L-679363 240818 L-678435 240818 L-676843 240817 L-676600 240816 L-675959 240814 L-675763 240813 L-675685 240812 L-675168 240811 L-674936 240811 L-674913 240810 L-674781 240810 L-674442 240809 L-674431 240808 L-674214 240807 L-674177 240806 L-673636 240805 L-673107 240802 L-673039 240801 L-672746 240800 L-672199 240798 L-672163 240797 L-672111 240796 L-672011 240794 L-671779 240794 L-671199 240794 L-671101 240795 L-671027 240795 L-670695 240794 L-669945 240793 L-669906 240792 L-669226 240792 L-669071 240792 L-668745 240790 L-668529 240789 L-668298 240789 L-668001 240788 L-667755 240787 L-667404 240786 L-667351 240785 L-666591 240784 L-665898 240782 L-665548 240780 L-665084 240778 L-664451 240777 L-664042 240776 L-663964 240777 L-663538 240777 L-662895 240776 L-662726 240776 L-661984 240775 L-661797 240774 L-661501 240773 L-660930 240772 L-660904 240771 L-659885 240771 L-659398 240770 L-659305 240770 L-659244 240769 L-658956 240768 L-658670 240766 L-658608 240765 L-658428 240765 L-657717 240764 L-657541 240763 L-657343 240762 L-657191 240761 L-657100 240760 L-657038 240759 L-656496 240759 L-656185 240758 L-656093 240756 L-656016 240753 L-655449 240752 L-655358 240752 L-655103 240750 L-654777 240748 L-654739 240745 L-654585 240741 L-654352 240740 L-654030 240739 L-652898 240738 L-652699 240737 L-652173 240736 L-651928 240736 L-651683 240735 L-651603 240734 L-651583 240732 L-651506 240730 L-651450 240728 L-651373 240727 L-651334 240726 L-651155 240724 L-651118 240723 L-650887 240722 L-649649 240721 L-649322 240720 L-649283 240717 L-648501 240716 L-648354 240715 L-647363 240714 L-647156 240714 L-646730 240714 L-646603 240714 L-646199 240715 L-646111 240714 L-645454 240713 L-644747 240712 L-644138 240711 L-643945 240710 L-643712 240708 L-643093 240706 L-642798 240704 L-642358 240703 L-642204 240702 L-642049 240701 L-641293 240699 L-640942 240698 L-640540 240698 L-640501 240697 L-639495 240697 L-639176 240697 L-638929 240696 L-638229 240693 L-638155 240692 L-637843 240691 L-636763 240690 L-636571 240689 L-636338 240689 L-636143 240688 L-635643 240687 L-634889 240687 L-634775 240687 L-634575 240687 L-634534 240686 L-634441 240685 L-634128 240684 L-634040 240682 L-633924 240681 L-633606 240681 L-633537 240680 L-633512 240679 L-633150 240678 L-633112 240677 L-632895 240676 L-632392 240677 L-631789 240678 L-631578 240680 L-631425 240681 L-631387 240681 L-631343 240679 L-631308 240678 L-631176 240677 L-630766 240676 L-630396 240675 L-630342 240674 L-630326 240673 L-630247 240672 L-629837 240670 L-629684 240669 L-629668 240667 L-629629 240666 L-629450 240664 L-629374 240663 L-629143 240662 L-628353 240661 L-628275 240661 L-627540 240658 L-627384 240657 L-627145 240655 L-627083 240653 L-626998 240652 L-626975 240650 L-626857 240648 L-626843 240645 L-626781 240643 L-626744 240642 L-626649 240641 L-626627 240641 L-626511 240640 L-626278 240639 L-626108 240637 L-625288 240637 L-624887 240636 L-624732 240636 L-624227 240636 L-624113 240636 L-623516 240636 L-623142 240634 L-623090 240634 L-622896 240633 L-622200 240633 L-622162 240632 L-622017 240632 L-621792 240631 L-621530 240630 L-621156 240629 L-620730 240628 L-620601 240627 L-620581 240625 L-620088 240625 L-619391 240624 L-619160 240625 L-619006 240625 L-618038 240625 L-617813 240626 L-617535 240626 L-617519 240625 L-616993 240624 L-616464 240622 L-616316 240621 L-616297 240620 L-615755 240619 L-615445 240618 L-615327 240616 L-615136 240614 L-614999 240612 L-614672 240610 L-614555 240609 L-614246 240609 L-613820 240608 L-613764 240608 L-613531 240609 L-613435 240609 L-613302 240609 L-613005 240609 L-612891 240608 L-612527 240607 L-612214 240607 L-611731 240606 L-611561 240605 L-611313 240604 L-611097 240603 L-610571 240602 L-610384 240600 L-610029 240598 L-609394 240597 L-609239 240595 L-608498 240594 L-608079 240593 L-607899 240592 L-607822 240592 L-607691 240591 L-607398 240590 L-607357 240589 L-607127 240589 L-606934 240588 L-606679 240588 L-606253 240586 L-606144 240585 L-605525 240585 L-605344 240585 L-604132 240585 L-603485 240586 L-603334 240586 L-603297 240586 L-603165 240586 L-603064 240585 L-603048 240584 L-602966 240583 L-602755 240582 L-602638 240581 L-602275 240580 L-601903 240579 L-601207 240578 L-600805 240577 L-600700 240576 L-600682 240574 L-599737 240573 L-599542 240571 L-599390 240570 L-599334 240568 L-598578 240568 L-598561 240570 L-598072 240571 L-597942 240573 L-597749 240573 L-596858 240572 L-596819 240571 L-596781 240570 L-596704 240569 L-596665 240569 L-596588 240568 L-596504 240567 L-596240 240566 L-596007 240565 L-595945 240564 L-595465 240562 L-595128 240562 L-595017 240561 L-594824 240560 L-594647 240559 L-594588 240559 L-594552 240558 L-594282 240557 L-593584 240555 L-593531 240553 L-593237 240550 L-592835 240548 L-592271 240547 L-591398 240546 L-591093 240545 L-591055 240544 L-590932 240543 L-590334 240542 L-590204 240541 L-590004 240540 L-589966 240538 L-589353 240537 L-589174 240536 L-589159 240534 L-588941 240533 L-588863 240531 L-588556 240531 L-588424 240530 L-588192 240530 L-587857 240530 L-587766 240529 L-587665 240528 L-587628 240526 L-587084 240526 L-586892 240525 L-586351 240524 L-585925 240523 L-585793 240523 L-585731 240523 L-585500 240523 L-585484 240523 L-584996 240524 L-584915 240524 L-584897 240524 L-583504 240525 L-583369 240525 L-583255 240524 L-582620 240523 L-582481 240522 L-582363 240521 L-582209 240519 L-582172 240518 L-582094 240517 L-582040 240518 L-581048 240518 L-581011 240517 L-580878 240517 L-580818 240514 L-580719 240513 L-580429 240512 L-580415 240511 L-580105 240511 L-580005 240512 L-579540 240511 L-579486 240627 L-579344 240741 L-579216 240857 L-578984 240973 L-578415 240972 L-578326 240971 L-578303 240971 L-578016 240969 L-577334 240968 L-577256 240967 L-577220 240966 L-577204 240965 L-577004 240964 L-576584 240962 L-576313 240962 L-575440 240961 L-575147 240961 L-575036 240961 L-574302 240960 L-574175 240958 L-573815 240957 L-573563 240957 L-572691 240956 L-572522 240956 L-572461 240955 L-572406 240954 L-572058 240953 L-572035 240952 L-571826 240951 L-571686 240950 L-571555 240949 L-571432 240948 L-571309 240946 L-571072 240945 L-570781 240944 L-570122 240943 L-570100 240942 L-569946 240941 L-569828 240940 L-568864 240939 L-568808 240938 L-568575 240937 L-568553 240936 L-568227 240934 L-568111 240934 L-568072 240933 L-567570 240933 L-567271 240932 L-567159 240931 L-566617 240930 L-565558 240929 L-564932 240928 L-564760 240927 L-564512 240926 L-564256 240925 L-564125 240924 L-564104 240922 L-563436 240921 L-562540 240920 L-562494 240919 L-562424 240918 L-562308 240918 L-562088 240917 L-561897 240917 L-561857 240916 L-561665 240915 L-561006 240915 L-560389 240914 L-560350 240920 L-559754 240927 L-559692 240932 L-558570 240938 L-558515 240938 L-558395 240937 L-558129 240936 L-558065 240936 L-557796 240936 L-557720 240934 L-557504 240934 L-557021 240933 L-556751 240932 L-556620 240932 L-556388 240930 L-556363 240927 L-556348 240922 L-556326 240917 L-556310 240912 L-556286 240906 L-556272 240900 L-556248 240893 L-556233 240886 L-556210 240881 L-556195 240876 L-556172 240870 L-556156 240867 L-556128 240864 L-556110 240859 L-556092 240857 L-556056 240854 L-556016 240852 L-556001 240849 L-555976 240846 L-555924 240844 L-555899 240842 L-555823 240840 L-555785 240838 L-555769 240836 L-555706 240834 L-555692 240832 L-555646 240829 L-555575 240826 L-555537 240825 L-555512 240823 L-555460 240821 L-555435 240820 L-555419 240819 L-555357 240818 L-555320 240817 L-555243 240816 L-555228 240814 L-555200 240812 L-555127 240811 L-555088 240810 L-554934 240808 L-554818 240807 L-554763 240806 L-554681 240805 L-554647 240804 L-554623 240802 L-554469 240801 L-554454 240800 L-554352 240799 L-554042 240798 L-554006 240797 L-553790 240796 L-553679 240796 L-553655 240796 L-553424 240797 L-553192 240797 L-552817 240796 L-552689 240795 L-552649 240794 L-552597 240793 L-552496 240792 L-552459 240790 L-552248 240790 L-552184 240789 L-552071 240789 L-551860 240788 L-551823 240787 L-551451 240786 L-551397 240785 L-551319 240784 L-551297 240783 L-551204 240782 L-551004 240781 L-550966 240781 L-550944 240781 L-550714 240781 L-550694 240780 L-550484 240780 L-550390 240778 L-550352 240777 L-550016 240776 L-549903 240775 L-549863 240774 L-549849 240774 L-549710 240773 L-549695 240773 L-549440 240773 L-548858 240772 L-548781 240771 L-548743 240770 L-548699 240769 L-548650 240768 L-548470 240766 L-548456 240765 L-548356 240764 L-548278 240763 L-548218 240762 L-547852 240760 L-547770 240759 L-547752 240758 L-547699 240757 L-546730 240756 L-546599 240754 L-546577 240753 L-546357 240752 L-546288 240751 L-546266 240750 L-546019 240749 L-545763 240748 L-545632 240747 L-545593 240746 L-545571 240744 L-545516 240741 L-545428 240740 L-545367 240738 L-545142 240737 L-545012 240736 L-544913 240735 L-544858 240734 L-544665 240733 L-544587 240732 L-544254 240730 L-544123 240729 L-543945 240728 L-543930 240727 L-543905 240726 L-543635 240726 L-542434 240725 L-542398 240725 L-542281 240724 L-542048 240723 L-541857 240722 L-541818 240722 L-541762 240721 L-541658 240721 L-541144 240720 L-540850 240718 L-540618 240717 L-540343 240716 L-540326 240715 L-540293 240714 L-540253 240713 L-540216 240712 L-540114 240711 L-540037 240710 L-539944 240709 L-539817 240708 L-539713 240706 L-539534 240706 L-539342 240705 L-538513 240705 L-538397 240704 L-538142 240703 L-538102 240702 L-538003 240701 L-537943 240701 L-537700 240700 L-537677 240700 L-537556 240699 L-537484 240698 L-537445 240697 L-537213 240696 L-537037 240694 L-536517 240693 L-536440 240692 L-536424 240691 L-536013 240691 L-535650 240691 L-535534 240690 L-535511 240690 L-535471 240689 L-535394 240688 L-535341 240687 L-534992 240686 L-534876 240685 L-534699 240685 L-534643 240684 L-534620 240684 L-534506 240682 L-534218 240681 L-533986 240680 L-533771 240679 L-533561 240678 L-533350 240676 L-532524 240675 L-532185 240674 L-531177 240673 L-530814 240672 L-529769 240670 L-529691 240669 L-529244 240668 L-529033 240667 L-528841 240666 L-528546 240665 L-528505 240664 L-528352 240663 L-528299 240661 L-528067 240660 L-527486 240658 L-527292 240657 L-526673 240657 L-526184 240656 L-526132 240655 L-525484 240654 L-525334 240653 L-525164 240652 L-524791 240651 L-524776 240651 L-524677 240650 L-524638 240650 L-524507 240649 L-524074 240649 L-523771 240649 L-523385 240649 L-523245 240648 L-523084 240648 L-522650 240648 L-522611 240646 L-522510 240646 L-522395 240645 L-522217 240645 L-522047 240644 L-521928 240643 L-521567 240641 L-521349 240640 L-521217 240639 L-521077 240639 L-520578 240639 L-520500 240639 L-520266 240638 L-519942 240638 L-519555 240637 L-519532 240636 L-518912 240636 L-518642 240634 L-518409 240634 L-517984 240633 L-517712 240632 L-517571 240631 L-517362 240630 L-517156 240629 L-516605 240628 L-516474 240628 L-516087 240627 L-515817 240627 L-515714 240626 L-515454 240625 L-515252 240624 L-515183 240622 L-515144 240621 L-514577 240620 L-514370 240619 L-514343 240618 L-514114 240617 L-514037 240616 L-513519 240615 L-513481 240614 L-513325 240613 L-513032 240612 L-512760 240610 L-512397 240609 L-512048 240609 L-511676 240608 L-511556 240608 L-511484 240607 L-511004 240606 L-510942 240605 L-510607 240604 L-510476 240603 L-510398 240602 L-510269 240601 L-509805 240601 L-509511 240600 L-509435 240600 L-509123 240598 L-508815 240597 L-508751 240596 L-508722 240595 L-507947 240594 L-507842 240592 L-507754 240591 L-507731 240590 L-507577 240589 L-507356 240588 L-507189 240586 L-506802 240585 L-506747 240584 L-506684 240584 L-506066 240583 L-505950 240582 L-505626 240581 L-505101 240580 L-504750 240579 L-504674 240578 L-504055 240577 L-503644 240576 L-503343 240574 L-503032 240573 L-502894 240572 L-502270 240572 L-501888 240571 L-500765 240571 L-499704 240570 L-499642 240569 L-499281 240568 L-499180 240568 L-499164 240567 L-498790 240567 L-497785 240565 L-497398 240564 L-497191 240561 L-497102 240560 L-496727 240559 L-496434 240558 L-496122 240557 L-495334 240556 L-495246 240555 L-495193 240554 L-495155 240553 L-494637 240552 L-494522 240550 L-494313 240549 L-494174 240548 L-493570 240547 L-492741 240546 L-492458 240545 L-492276 240545 L-491774 240544 L-491570 240544 L-491015 240544 L-490510 240543 L-490319 240542 L-490280 240541 L-489651 240540 L-489198 240538 L-488784 240537 L-488175 240536 L-487055 240536 L-486641 240535 L-486317 240535 L-486102 240534 L-485676 240533 L-485535 240532 L-485444 240531 L-485213 240530 L-484626 240530 L-483818 240529 L-482619 240529 L-482505 240529 L-482373 240528 L-482285 240526 L-482243 240528 L-482223 240529 L-482212 240531 L-482117 240533 L-481354 240533 L-480648 240533 L-480608 240532 L-480322 240531 L-479781 240530 L-479720 240529 L-479680 240528 L-479665 240526 L-479408 240525 L-479084 240524 L-478945 240523 L-478674 240522 L-478635 240521 L-478528 240520 L-478126 240519 L-478017 240518 L-477939 240517 L-477642 240516 L-477599 240514 L-477381 240514 L-477198 240514 L-477087 240514 L-477073 240513 L-477046 240513 L-476622 240512 L-476376 240511 L-476040 240510 L-476005 240509 L-475871 240508 L-475617 240508 L-475463 240507 L-474556 240507 L-474457 240506 L-474262 240504 L-473255 240502 L-472754 240501 L-472676 240500 L-472638 240499 L-472430 240498 L-472311 240497 L-472213 240496 L-472027 240495 L-471862 240494 L-471626 240493 L-471206 240492 L-471191 240490 L-470882 240489 L-469836 240488 L-469619 240487 L-469603 240486 L-469581 240485 L-469372 240484 L-469213 240483 L-469155 240482 L-467710 240481 L-467384 240481 L-467182 240481 L-466983 240481 L-466833 240481 L-466563 240480 L-466122 240478 L-465904 240478 L-465209 240477 L-464707 240476 L-464382 240475 L-464111 240475 L-463390 240474 L-463235 240474 L-462037 240472 L-461648 240471 L-461532 240469 L-461379 240468 L-461225 240466 L-460255 240465 L-460203 240464 L-459955 240463 L-459933 240462 L-459713 240461 L-459275 240459 L-459135 240457 L-459028 240454 L-458826 240453 L-458709 240452 L-458606 240451 L-458592 240451 L-458459 240450 L-458205 240449 L-457587 240448 L-456928 240447 L-456682 240447 L-456489 240446 L-455730 240446 L-455691 240446 L-455613 240445 L-455561 240442 L-455521 240441 L-455483 240440 L-455444 240439 L-455353 240438 L-455309 240437 L-455250 240435 L-455226 240434 L-455111 240433 L-454802 240430 L-454747 240429 L-454725 240428 L-454383 240427 L-454218 240426 L-454182 240424 L-454142 240423 L-454127 240422 L-453895 240421 L-453755 240420 L-453587 240418 L-453137 240418 L-452904 240418 L-452811 240418 L-452791 240420 L-452310 240418 L-452233 240418 L-452106 240417 L-451976 240415 L-451597 240414 L-451356 240412 L-451319 240411 L-451265 240410 L-451127 240408 L-451087 240406 L-451047 240405 L-450817 240404 L-450777 240403 L-450647 240402 L-450468 240401 L-450427 240400 L-450413 240399 L-450249 240398 L-450234 240397 L-450082 240396 L-450066 240394 L-450040 240393 L-450006 240392 L-449784 240390 L-449561 240390 L-449307 240389 L-449175 240390 L-448533 240390 L-447926 240389 L-446906 240389 L-446713 240388 L-446662 240387 L-446537 240386 L-446212 240385 L-445440 240384 L-445382 240382 L-445268 240381 L-444856 240380 L-444531 240379 L-444393 240378 L-444169 240377 L-443643 240376 L-443242 240376 L-443211 240375 L-442924 240375 L-442638 240374 L-442250 240373 L-442034 240372 L-441607 240369 L-441425 240368 L-441089 240367 L-440983 240366 L-440796 240366 L-440679 240365 L-440665 240365 L-439944 240364 L-439774 240363 L-439526 240362 L-439426 240361 L-438784 240360 L-438495 240358 L-438305 240357 L-438030 240356 L-437713 240355 L-437428 240354 L-437314 240352 L-437269 240351 L-437067 240350 L-435458 240349 L-435246 240348 L-434565 240346 L-434483 240345 L-434254 240344 L-434064 240344 L-433925 240343 L-433907 240343 L-433713 240343 L-433484 240343 L-433291 240343 L-432207 240342 L-432011 240342 L-431959 240342 L-431805 240342 L-431697 240342 L-431531 240342 L-431378 240341 L-431263 240340 L-431139 240338 L-430722 240337 L-430465 240334 L-430372 240333 L-430179 240333 L-430118 240332 L-429792 240332 L-429731 240332 L-429674 240331 L-429405 240330 L-429057 240329 L-428878 240328 L-428684 240327 L-428648 240328 L-427935 240328 L-427896 240330 L-427586 240331 L-427289 240332 L-427239 240333 L-426983 240334 L-426713 240336 L-426657 240336 L-425566 240336 L-425536 240334 L-425495 240334 L-425319 240334 L-425126 240333 L-424268 240333 L-423215 240332 L-423154 240331 L-422805 240330 L-421992 240330 L-421179 240330 L-421164 240330 L-420789 240330 L-420620 240330 L-420352 240330 L-420024 240329 L-419903 240328 L-419846 240328 L-419810 240327 L-419733 240327 L-419516 240326 L-419457 240325 L-419141 240324 L-418974 240322 L-418610 240322 L-418417 240322 L-418393 240322 L-418316 240321 L-417835 240321 L-417698 240321 L-417284 240320 L-416985 240320 L-416886 240319 L-416870 240318 L-416841 240317 L-416482 240316 L-416132 240315 L-415995 240314 L-415958 240314 L-415141 240313 L-414935 240312 L-414911 240310 L-414754 240310 L-414665 240309 L-414423 240309 L-414099 240308 L-414007 240308 L-413811 240307 L-413525 240307 L-412769 240306 L-412640 240305 L-412566 240304 L-411953 240303 L-411778 240302 L-411667 240301 L-411567 240300 L-411488 240298 L-411351 240297 L-411197 240297 L-411118 240297 L-410927 240297 L-410254 240297 L-410215 240296 L-410113 240295 L-409169 240294 L-409148 240293 L-408797 240292 L-408332 240291 L-408296 240290 L-407867 240289 L-407815 240289 L-407404 240288 L-407387 240288 L-407291 240288 L-407236 240288 L-407197 240288 L-406902 240286 L-405164 240285 L-403654 240284 L-403146 240283 L-402649 240282 L-402514 240281 L-402424 240280 L-402296 240279 L-402217 240277 L-401912 240276 L-401641 240274 L-401407 240274 L-400208 240273 L-400103 240273 L-400038 240272 L-399196 240271 L-399010 240270 L-398099 240269 L-397230 240267 L-396942 240266 L-396850 240264 L-396301 240262 L-395781 240261 L-394713 240260 L-394444 240259 L-394290 240259 L-394197 240259 L-394067 240260 L-394020 240261 L-393860 240261 L-392995 240261 L-392660 240261 L-392276 240260 L-391524 240259 L-391464 240258 L-391075 240258 L-390753 240258 L-390596 240257 L-389864 240257 L-389802 240257 L-389514 240257 L-389140 240257 L-388959 240257 L-388703 240256 L-388442 240254 L-388289 240253 L-387886 240252 L-386589 240250 L-386473 240249 L-386010 240248 L-384678 240247 L-384253 240246 L-384229 240245 L-384096 240244 L-383921 240243 L-383787 240243 L-383457 240242 L-383070 240241 L-383030 240240 L-383014 240237 L-382624 240236 L-382332 240235 L-382063 240235 L-381890 240235 L-380397 240235 L-380346 240234 L-380268 240235 L-379028 240236 L-378953 240236 L-378926 240238 L-378680 240237 L-378523 240237 L-378464 240236 L-377576 240236 L-377348 240235 L-376824 240235 L-376683 240236 L-376607 240236 L-375911 240237 L-375663 240237 L-374983 240236 L-374965 240236 L-374711 240235 L-374344 240235 L-374208 240234 L-373586 240232 L-373243 240231 L-373195 240230 L-372708 240229 L-372374 240226 L-372157 240226 L-372023 240225 L-371702 240224 L-371637 240224 L-371385 240223 L-371096 240222 L-370786 240221 L-370647 240220 L-370107 240219 L-369831 240218 L-369102 240217 L-369048 240217 L-368941 240217 L-368675 240217 L-368251 240217 L-367987 240216 L-367767 240214 L-367746 240213 L-367515 240212 L-367228 240211 L-367205 240211 L-367190 240210 L-366818 240210 L-366646 240209 L-366570 240207 L-366509 240206 L-366208 240204 L-365967 240201 L-365875 240200 L-365618 240199 L-365565 240198 L-365370 240197 L-365153 240198 L-364730 240198 L-364638 240199 L-364497 240198 L-363632 240197 L-363259 240196 L-362931 240194 L-362779 240193 L-362351 240193 L-361634 240192 L-361439 240192 L-361084 240190 L-360938 240189 L-360431 240187 L-360195 240186 L-359228 240185 L-359218 240184 L-358153 240183 L-357920 240182 L-357518 240181 L-357324 240179 L-357244 240178 L-357148 240177 L-356411 240177 L-356279 240177 L-355889 240177 L-355867 240176 L-355772 240176 L-355637 240175 L-355619 240174 L-355599 240173 L-353914 240172 L-353896 240172 L-353779 240171 L-353695 240171 L-353570 240171 L-353546 240170 L-353262 240169 L-353156 240167 L-352967 240165 L-352697 240164 L-352025 240163 L-351653 240162 L-350801 240162 L-350744 240161 L-350724 240161 L-350491 240161 L-350216 240160 L-349911 240160 L-349871 240158 L-349640 240158 L-349403 240157 L-348790 240155 L-348749 240154 L-348712 240152 L-348190 240151 L-347999 240150 L-347938 240149 L-347896 240148 L-347573 240148 L-347545 240147 L-347531 240147 L-347046 240146 L-346992 240145 L-346854 240143 L-346816 240142 L-346799 240141 L-346704 240140 L-346039 240140 L-345423 240139 L-345153 240139 L-344745 240139 L-344725 240138 L-344709 240138 L-344596 240137 L-344209 240136 L-343742 240136 L-343681 240135 L-343603 240134 L-343588 240133 L-343102 240130 L-343062 240129 L-342917 240129 L-342867 240128 L-342789 240129 L-342156 240128 L-342066 240128 L-341825 240128 L-341708 240127 L-341380 240127 L-340626 240126 L-340609 240126 L-339658 240126 L-339349 240125 L-338923 240124 L-338210 240123 L-337891 240122 L-337876 240121 L-337725 240118 L-337422 240117 L-337344 240116 L-337217 240115 L-336780 240115 L-336719 240115 L-336196 240115 L-335928 240115 L-335791 240114 L-335712 240113 L-335673 240112 L-334862 240112 L-334821 240112 L-334381 240112 L-334303 240112 L-334045 240111 L-333855 240110 L-333226 240109 L-333039 240107 L-333005 240105 L-332849 240104 L-332447 240102 L-332370 240101 L-332189 240100 L-331998 240099 L-331070 240097 L-330919 240095 L-329711 240094 L-328902 240093 L-328498 240092 L-327896 240091 L-327694 240090 L-327625 240089 L-327467 240088 L-327206 240087 L-326832 241064 L-326814 241063 L-326657 241063 L-325459 241063 L-324355 240085 L-323427 240083 L-323313 240082 L-323028 240081 L-322926 240080 L-322902 240080 L-322712 240078 L-322634 240077 L-322438 240077 L-321727 240077 L-321569 240078 L-320512 240078 L-320087 240078 L-319677 240077 L-319391 240075 L-319216 240074 L-318984 240073 L-318730 240071 L-318288 240070 L-317627 240069 L-317451 240068 L-317146 240067 L-316759 240066 L-316739 240065 L-316720 240064 L-316699 240063 L-316565 240062 L-316373 240061 L-314729 240059 L-313432 240058 L-313393 240057 L-313335 240056 L-313234 240055 L-312675 240054 L-311691 240053 L-311148 240051 L-310685 240050 L-310039 240049 L-309490 240047 L-308440 240046 L-307512 240045 L-307164 240044 L-306970 240043 L-306468 240042 L-306022 240042 L-305880 240041 L-305859 240041 L-305288 240041 L-304902 240039 L-304069 240038 L-303720 240037 L-303698 240035 L-303311 240035 L-302888 240034 L-302289 240033 L-302270 240032 L-301764 240032 L-301533 240031 L-301419 240031 L-300800 240029 L-300238 240028 L-300198 240027 L-299639 240026 L-299306 240025 L-299194 240025 L-299155 240023 L-298730 240023 L-298670 240023 L-298595 240022 L-298304 240022 L-298091 240021 L-297608 240019 L-297393 240018 L-296253 240017 L-296194 240016 L-296176 240015 L-295770 240014 L-295131 240013 L-294996 240011 L-294938 240010 L-294396 240009 L-294087 240008 L-293836 240008 L-293760 240007 L-293641 240006 L-292907 240004 L-292462 240003 L-292248 240002 L-291514 240001 L-291340 239999 L-290974 239999 L-290759 239999 L-289521 239999 L-289212 239999 L-289095 239999 L-288842 239998 L-288632 239997 L-288089 239996 L-287857 239995 L-287800 239995 L-287703 239994 L-287373 239994 L-287141 239993 L-285479 239992 L-285128 239991 L-284724 239989 L-284569 239987 L-283776 239986 L-282286 239985 L-281899 239984 L-281861 239983 L-281607 239982 L-281512 239981 L-281319 239980 L-280970 239980 L-280274 239979 L-280023 239979 L-279307 239978 L-277895 239977 L-277663 239975 L-277333 239975 L-276117 239975 L-275765 239977 L-275573 239978 L-275455 239979 L-273020 239979 L-272051 239978 L-271220 239977 L-270911 239975 L-269569 239974 L-268996 239973 L-268880 239972 L-268551 239972 L-268455 239971 L-268047 239971 L-267932 239970 L-267741 239969 L-266985 239968 L-266859 239967 L-266578 239966 L-266075 239965 L-265998 239963 L-264411 239969 L-264353 239974 L-263612 239981 L-263231 239986 L-262902 239985 L-262239 239984 L-262109 239983 L-262069 239983 L-261819 239983 L-261683 239983 L-261490 239982 L-261355 239982 L-261103 239980 L-260891 239980 L-260581 239979 L-260309 239979 L-259807 239979 L-259788 239979 L-259354 239978 L-259128 239977 L-258685 239975 L-258666 239974 L-258163 239973 L-258025 239972 L-257911 239971 L-257679 239970 L-257369 239969 L-256905 239968 L-256827 239967 L-256325 239966 L-256054 239965 L-255716 239963 L-255531 239962 L-254855 239961 L-254836 239961 L-254661 239960 L-254641 239959 L-254023 239958 L-253307 239957 L-252745 239956 L-252550 239956 L-252397 239955 L-252378 239955 L-251855 239953 L-251740 239951 L-250869 239950 L-250848 239949 L-250792 239948 L-249960 239947 L-249650 239946 L-249574 239945 L-249302 239944 L-249239 239944 L-249188 239942 L-248877 239939 L-248260 239937 L-247485 239936 L-246691 239935 L-246652 239934 L-246575 239933 L-246403 239932 L-245525 239931 L-244640 239930 L-244545 239929 L-244426 239927 L-244096 239926 L-244060 239926 L-243828 239925 L-243594 239925 L-242880 239923 L-242377 239922 L-241712 239921 L-241603 239920 L-241449 239919 L-241429 239918 L-241274 239917 L-240859 239915 L-240248 239914 L-240113 239913 L-239205 239912 L-239002 239911 L-238450 239910 L-235800 239909 L-235625 239908 L-235548 239906 L-234676 239905 L-234212 239903 L-233730 239902 L-233691 239900 L-233110 239899 L-233090 239898 L-231988 239897 L-230567 239896 L-230149 239895 L-229842 239894 L-229764 239893 L-229688 239891 L-229531 239890 L-229455 239889 L-228990 239888 L-227752 239887 L-227501 239886 L-227056 239885 L-226434 239884 L-226378 239883 L-226185 239883 L-225720 239882 L-225429 239879 L-225388 239877 L-225352 239875 L-225199 239873 L-225021 239872 L-223883 239870 L-223495 239869 L-223438 239867 L-223264 239866 L-220747 239864 L-219587 239863 L-218950 239862 L-218811 239861 L-218679 239859 L-218291 239858 L-217828 239857 L-217617 239854 L-217551 239853 L-217518 239852 L-216764 239851 L-216182 239850 L-215991 239849 L-215372 239848 L-215325 239847 L-214965 239846 L-214859 239845 L-214674 239843 L-214397 239842 L-213493 239841 L-212488 239840 L-211753 239839 L-211328 239838 L-211167 239837 L-210804 239836 L-210708 239835 L-210264 239834 L-210188 239833 L-209836 239833 L-209587 239830 L-209567 239828 L-209393 239826 L-208445 239823 L-208331 239822 L-207768 239821 L-207318 239819 L-206933 239818 L-206022 239817 L-205967 239816 L-204828 239815 L-204247 239813 L-204072 239812 L-203279 239810 L-203048 239809 L-202661 239807 L-202390 239806 L-202255 239805 L-202139 239804 L-201520 239804 L-201462 239804 L-201247 239804 L-200953 239804 L-200164 239803 L-200024 239803 L-198636 239802 L-198289 239802 L-197902 239801 L-197841 239799 L-197804 239798 L-197748 239797 L-197104 239795 L-196413 239794 L-196161 239794 L-195825 239793 L-195736 239793 L-195215 239792 L-194962 239791 L-194746 239789 L-194363 239788 L-194203 239787 L-193664 239785 L-192852 239783 L-192833 239782 L-192717 239782 L-192573 239781 L-192192 239781 L-192000 239781 L-191944 239780 L-191644 239779 L-191578 239778 L-191382 239777 L-191015 239776 L-190954 239775 L-190650 239774 L-190604 239774 L-190551 239773 L-189913 239773 L-189893 239771 L-189408 239770 L-188926 239771 L-188557 239771 L-188191 239773 L-188056 239773 L-187902 239771 L-187832 239770 L-187184 239770 L-187165 239769 L-187024 239769 L-186539 239768 L-186256 239768 L-186198 239767 L-186140 239767 L-185830 239766 L-185676 239765 L-185192 239765 L-184419 239765 L-183779 239765 L-183682 239764 L-182619 239764 L-182598 239763 L-182133 241080 L-182116 241080 L-181943 241080 L-181430 241080 L-179076 239762 L-178131 239761 L-177412 239759 L-176872 239757 L-176175 239756 L-175859 239755 L-175210 239754 L-174702 239753 L-174668 239752 L-174626 239751 L-174280 239750 L-173585 239749 L-173389 239747 L-173372 239745 L-173256 239744 L-172974 239743 L-172077 239741 L-172030 239740 L-171665 239738 L-171647 239737 L-171592 239735 L-171399 239734 L-171263 239733 L-171188 239732 L-170954 239731 L-170413 239730 L-170372 239729 L-170335 239728 L-170310 239727 L-169674 239725 L-169132 239723 L-167967 239722 L-167607 239721 L-166330 239721 L-166291 239720 L-166253 239720 L-166038 239719 L-165847 239718 L-165770 239717 L-165616 239716 L-165577 239715 L-164488 239714 L-164164 239714 L-163950 239713 L-163689 239713 L-163197 239713 L-163174 239717 L-162758 239721 L-162616 239725 L-162556 239729 L-162479 239729 L-162268 239728 L-160973 239728 L-160697 239727 L-160073 239726 L-158682 239725 L-158609 239723 L-158571 239721 L-158378 239720 L-157988 239719 L-157681 239718 L-157625 239717 L-157309 239717 L-157259 239717 L-157220 239716 L-157175 239715 L-156542 239714 L-155768 239713 L-155329 239711 L-155187 241040 L-155164 241039 L-155147 242368 L-155122 242368 L-154705 241039 L-154502 241038 L-154352 239708 L-154274 239707 L-154220 239706 L-153423 239706 L-153406 239706 L-152543 239706 L-152339 239706 L-152052 239705 L-151936 239704 L-151411 239703 L-151234 239702 L-150930 239701 L-150543 239699 L-150483 239697 L-150427 239696 L-150273 239695 L-149228 239694 L-148666 239694 L-148430 239693 L-148393 239693 L-148124 239693 L-147718 239692 L-146249 239691 L-144508 239690 L-144121 239689 L-143889 239687 L-143790 239686 L-143695 239685 L-143541 239683 L-142977 239683 L-142895 239682 L-142728 239682 L-142186 239683 L-141001 239683 L-140987 239683 L-140927 239683 L-140776 239682 L-140291 239681 L-139644 239680 L-138938 239678 L-138821 239677 L-137854 239675 L-137809 239674 L-137119 239674 L-137062 239673 L-136984 239673 L-136965 239672 L-136943 239671 L-136728 239670 L-136015 239670 L-135625 239669 L-135588 239668 L-135571 239667 L-135513 239666 L-135086 239665 L-134872 239663 L-134797 239661 L-134720 239660 L-134604 239659 L-134539 239659 L-134411 239658 L-134351 239658 L-134276 239656 L-134197 239655 L-133768 239654 L-133043 239653 L-133029 239650 L-132862 239649 L-132646 239647 L-132631 239645 L-132050 239644 L-131779 239643 L-131490 239642 L-131060 239641 L-130907 239639 L-130850 239638 L-130674 239637 L-129278 239636 L-129013 239634 L-128120 239632 L-127595 239631 L-126575 239629 L-126494 239627 L-126030 239626 L-125411 239626 L-125125 239625 L-124871 239625 L-124719 239624 L-124371 239623 L-123654 239622 L-123093 239621 L-122204 239620 L-121895 239620 L-121604 239620 L-120752 239620 L-120731 239620 L-120075 239620 L-119571 239618 L-119360 239617 L-119340 239615 L-119011 239614 L-118952 239614 L-118566 239614 L-117581 239614 L-117019 239614 L-116922 239614 L-116613 239613 L-116536 239613 L-115501 239612 L-115371 239611 L-115314 239610 L-114679 239609 L-114620 239608 L-114545 239607 L-113131 239606 L-112994 239605 L-112860 239603 L-112374 239602 L-112125 239601 L-111834 239600 L-111622 239599 L-110964 239598 L-110396 239596 L-110307 239595 L-110167 239594 L-110093 239593 L-108928 239593 L-108896 239591 L-108466 239591 L-108449 239590 L-108275 239589 L-106747 239588 L-106663 239589 L-105857 239589 L-105664 239589 L-105642 239589 L-104789 239588 L-104595 239587 L-103962 239586 L-103786 239585 L-103667 239584 L-103613 239584 L-103592 239584 L-103536 239584 L-103148 239584 L-102704 239584 L-102625 239583 L-102428 239583 L-102367 239582 L-102104 239581 L-101756 239581 L-101640 239579 L-100492 239579 L-100207 239578 L-99762 239577 L-98559 239576 L-98429 239575 L-98119 239574 L-97691 239573 L-96394 239572 L-96084 240853 L-96068 240853 L-96022 240878 L-95972 240878 L-95044 239595 L-94714 239595 L-94166 239569 L-94038 239567 L-93592 239566 L-92059 239565 L-91890 239564 L-91619 239563 L-91595 239561 L-90690 239560 L-90575 239559 L-90107 239558 L-90085 239557 L-90012 239555 L-89814 239554 L-89662 239553 L-89195 239552 L-88544 239551 L-88058 239550 L-87508 239550 L-86486 239550 L-86180 239550 L-86125 239550 L-85525 239549 L-85095 239548 L-85021 239548 L-85003 239547 L-84782 239547 L-84478 239546 L-84396 239545 L-84092 239545 L-83493 239543 L-83356 239542 L-83086 239541 L-82872 239540 L-82697 239540 L-82488 239540 L-82466 239540 L-82217 239553 L-81768 239566 L-81752 239579 L-81306 239593 L-80098 239593 L-79896 239591 L-78967 239591 L-78906 239590 L-78871 239589 L-77846 239588 L-77730 239588 L-77709 239587 L-77555 239587 L-77536 239587 L-77125 239586 L-77109 239586 L-77071 239585 L-76761 239584 L-76607 239583 L-76403 239583 L-76004 239582 L-75021 239582 L-74496 239582 L-74440 239581 L-74414 239581 L-74092 239579 L-73375 239579 L-72506 239579 L-72468 239579 L-72390 239579 L-72139 239578 L-72119 239577 L-71396 239577 L-71246 239576 L-71133 239576 L-71036 239575 L-69934 239574 L-69179 239573 L-69007 239572 L-68846 239571 L-68770 239570 L-68576 239570 L-67438 239569 L-66753 239569 L-66470 239567 L-65503 239566 L-65484 239565 L-64633 239564 L-64594 239563 L-64451 239562 L-64126 239561 L-63896 239560 L-63858 239559 L-63818 239558 L-63801 239555 L-63665 239554 L-63646 239553 L-63435 239552 L-63375 239551 L-63297 239550 L-63273 239549 L-63198 239548 L-62718 239547 L-62621 239546 L-62545 239545 L-62369 239543 L-62346 239542 L-62291 239541 L-62253 239540 L-62194 239539 L-62039 239538 L-61015 239537 L-60716 239536 L-60589 239535 L-60511 239534 L-59486 239533 L-59429 239531 L-59371 239530 L-59325 239529 L-59311 239528 L-59274 239527 L-59236 239526 L-58056 239525 L-57997 239524 L-57301 239524 L-56681 239523 L-56539 239523 L-56096 239522 L-55830 239521 L-55167 239521 L-54883 239519 L-53413 239519 L-52464 239518 L-52359 239517 L-52292 239517 L-52263 239516 L-51943 239515 L-51922 239515 L-50993 239515 L-50817 239516 L-50086 239517 L-49545 180752 L-49521 121985 L-49495 63219 L-49462 4452 L-49446 4451 L-49425 4449 L-49387 4447 L-49368 4447 L-49345 4449 L-49330 4450 L-49311 4451 L-49291 4451 L-49269 4449 L-49253 4448 L-49233 4447 L-49214 4447 L-49175 4447 L-49135 4445 L-49110 4443 L-49094 4439 L-49076 4437 L-49039 4435 L-49020 4434 L-49001 4433 L-48982 4432 L-48960 4430 L-48943 4428 L-48904 4425 L-48882 4422 L-48866 4421 L-48847 4419 L-48827 4418 L-48807 4416 L-48789 4414 L-48750 4413 L-48692 4412 L-48644 4410 L-48593 4409 L-48566 4407 L-48550 4404 L-48533 4403 L-48518 4402 L-48497 4401 L-48479 4401 L-48459 4399 L-48439 4398 L-48417 4396 L-48401 4392 L-48383 4390 L-48363 4389 L-48341 4387 L-48304 4385 L-48285 4383 L-48264 4380 L-48228 4378 L-48207 4377 L-48182 4376 L-48165 4375 L-48148 4373 L-48131 4367 L-48110 4362 L-48092 4355 L-48072 4351 L-48053 4348 L-47995 4346 L-47975 4342 L-47953 4340 L-47919 4337 L-47898 4334 L-47878 4331 L-47860 4329 L-47841 4328 L-47802 4327 L-47783 4325 L-47764 4323 L-47738 4322 L-47550 4319 L-47531 4317 L-47511 4316 L-47488 4314 L-47454 4312 L-47434 4310 L-47412 4306 L-47395 4303 L-47376 4300 L-47357 4296 L-47336 4294 L-47318 4292 L-47300 4290 L-47278 4288 L-47253 4286 L-47237 4283 L-47202 4281 L-47181 4280 L-47163 4278 L-47144 4277 L-47125 4275 L-47103 4272 L-47067 4270 L-47047 4268 L-47025 4266 L-47009 4264 L-46990 4262 L-46970 4259 L-46950 4258 L-46913 4256 L-46835 4255 L-46810 4253 L-46787 4251 L-46759 4247 L-46736 4245 L-46710 4243 L-46660 4241 L-46640 4240 L-46602 4236 L-46583 4234 L-46561 4233 L-46545 4231 L-46526 4230 L-46506 4229 L-46485 4228 L-46448 4225 L-46428 4224 L-46371 4223 L-46350 4222 L-46325 4222 L-46310 4221 L-46293 4221 L-46255 4220 L-46235 4218 L-46216 4216 L-46196 4213 L-46176 4211 L-46158 4209 L-46139 4206 L-46119 4204 L-46098 4201 L-46062 4199 L-46042 4198 L-46023 4197 L-45984 4196 L-45945 4195 L-45925 4194 L-45907 4193 L-45858 4192 L-45830 4191 L-45791 4188 L-45761 4187 L-45746 4185 L-45673 4183 L-45654 4181 L-45632 4180 L-45616 4179 L-45597 4177 L-45557 4177 L-45480 4175 L-45461 4174 L-45442 4172 L-45421 4171 L-45396 4170 L-45364 4169 L-45345 4169 L-45326 4167 L-45288 4164 L-45247 4161 L-45168 4158 L-45133 4156 L-45094 4153 L-45016 4152 L-44997 4151 L-44952 4150 L-44930 4151 L-44902 4151 L-44862 4149 L-44832 4148 L-44817 4146 L-44803 4144 L-44762 4141 L-44701 4140 L-44687 4138 L-44668 4136 L-44648 4134 L-44571 4131 L-44532 4128 L-44514 4126 L-44467 4125 L-44451 4124 L-44432 4123 L-44416 4122 L-44378 4119 L-44357 4116 L-44339 4113 L-44317 4111 L-44301 4109 L-44261 4107 L-44223 4104 L-44204 4102 L-44184 4099 L-44164 4095 L-44146 4090 L-44127 4086 L-44107 4084 L-44087 4083 L-44023 4081 L-44001 4080 L-43973 4079 L-43949 4076 L-43923 4073 L-43907 4068 L-43891 4064 L-43854 4062 L-43836 4060 L-43816 4059 L-43796 4057 L-43774 4055 L-43758 4054 L-43739 4053 L-43720 4050 L-43698 4045 L-43681 4042 L-43661 4039 L-43642 4037 L-43621 4035 L-43604 4033 L-43585 4031 L-43538 4030 L-43522 4028 L-43504 4026 L-43488 4023 L-43467 4019 L-43449 4016 L-43429 4013 L-43410 4008 L-43372 4007 L-43353 4006 L-43310 4005 L-43295 4004 L-43276 4001 L-43256 3997 L-43217 3995 L-43198 3994 L-43178 3992 L-43140 3991 L-43121 3989 L-43095 3987 L-43045 3985 L-43007 3984 L-42992 3983 L-42946 3982 L-42907 3980 L-42888 3979 L-42868 3977 L-42845 3976 L-42830 3973 L-42811 3971 L-42769 3970 L-42753 3968 L-42714 3965 L-42693 3963 L-42676 3959 L-42635 3956 L-42610 3954 L-42593 3952 L-42559 3949 L-42539 3946 L-42520 3942 L-42500 3936 L-42460 3931 L-42443 3925 L-42366 3922 L-42347 3920 L-42307 3919 L-42289 3917 L-42270 3915 L-42250 3915 L-42231 3913 L-42211 3913 L-42116 3915 L-42091 3913 L-42064 3912 L-42033 3910 L-42018 3908 L-41997 3906 L-41959 3904 L-41939 3901 L-41916 3899 L-41901 3898 L-41882 3897 L-41862 3895 L-41841 3893 L-41824 3891 L-41804 3888 L-41785 3886 L-41764 3884 L-41747 3881 L-41728 3879 L-41707 3877 L-41681 3875 L-41665 3872 L-41647 3869 L-41609 3865 L-41592 3861 L-41572 3858 L-41553 3855 L-41531 3850 L-41495 3848 L-41475 3845 L-41453 3841 L-41438 3839 L-41419 3837 L-41398 3835 L-41360 3833 L-41321 3832 L-41302 3831 L-41283 3828 L-41238 3827 L-41136 3827 L-41120 3826 L-40988 3825 L-40973 3824 L-40954 3820 L-40934 3816 L-40912 3814 L-40876 3811 L-40857 3810 L-40836 3809 L-40778 3807 L-40753 3804 L-40737 3802 L-40719 3799 L-40702 3797 L-40682 3796 L-40663 3795 L-40625 3792 L-40603 3791 L-40567 3790 L-40547 3789 L-40525 3788 L-40470 3788 L-40450 3787 L-40393 3786 L-40354 3785 L-40287 3784 L-40259 3781 L-40236 3779 L-40210 3777 L-40177 3775 L-40160 3774 L-40140 3772 L-40122 3775 L-40102 3777 L-40083 3780 L-40061 3784 L-40044 3783 L-39948 3781 L-39890 3780 L-39850 3779 L-39825 3776 L-39793 3774 L-39755 3772 L-39716 3768 L-39696 3766 L-39658 3764 L-39619 3762 L-39580 3760 L-39561 3759 L-39523 3756 L-39503 3754 L-39484 3753 L-39464 3752 L-39445 3751 L-39425 3750 L-39407 3748 L-39380 3744 L-39330 3741 L-39291 3739 L-39261 3737 L-39246 3735 L-39232 3733 L-39193 3731 L-39174 3729 L-39132 3727 L-39116 3725 L-39097 3723 L-39057 3719 L-39020 3717 L-38980 3715 L-38942 3714 L-38896 3712 L-38882 3711 L-38806 3709 L-38768 3708 L-38747 3708 L-38729 3706 L-38710 3705 L-38613 3703 L-38574 3701 L-38516 3699 L-38497 3696 L-38478 3694 L-38452 3694 L-38430 3693 L-38363 3692 L-38346 3692 L-38331 3691 L-38318 3690 L-38282 3689 L-38225 3688 L-38201 3685 L-38168 3683 L-38148 3681 L-38110 3678 L-38089 3675 L-38071 3671 L-38049 3669 L-38033 3667 L-38014 3666 L-37992 3664 L-37967 3661 L-37916 3660 L-37895 3658 L-37839 3657 L-37819 3655 L-37723 3654 L-37704 3652 L-37665 3651 L-37646 3649 L-37627 3646 L-37588 3645 L-37568 3644 L-37550 3643 L-37501 3642 L-37449 3642 L-37423 3641 L-37407 3639 L-37390 3637 L-37375 3635 L-37336 3633 L-37316 3632 L-37296 3630 L-37239 3628 L-37219 3625 L-37197 3622 L-37181 3620 L-37161 3617 L-37142 3615 L-37085 3611 L-37064 3608 L-37038 3605 L-37003 3600 L-36988 3597 L-36967 3595 L-36949 3593 L-36929 3592 L-36910 3589 L-36888 3587 L-36872 3586 L-36852 3585 L-36833 3584 L-36810 3582 L-36795 3580 L-36776 3577 L-36756 3575 L-36736 3574 L-36698 3573 L-36678 3570 L-36659 3567 L-36594 3562 L-36572 3559 L-36544 3557 L-36505 3553 L-36473 3550 L-36459 3547 L-36425 3545 L-36387 3543 L-36368 3541 L-36345 3539 L-36330 3538 L-36311 3536 L-36291 3533 L-36252 3532 L-36232 3529 L-36193 3528 L-36135 3526 L-36110 3525 L-36075 3523 L-36059 3521 L-36038 3519 L-36020 3516 L-35981 3514 L-35960 3513 L-35943 3511 L-35923 3509 L-35904 3505 L-35881 3503 L-35866 3500 L-35847 3498 L-35770 3497 L-35750 3495 L-35730 3492 L-35711 3490 L-35692 3488 L-35667 3486 L-35592 3484 L-35566 3481 L-35550 3478 L-35533 3477 L-35518 3475 L-35497 3473 L-35479 3471 L-35439 3469 L-35417 3468 L-35401 3467 L-35383 3465 L-35363 3464 L-35341 3462 L-35324 3461 L-35228 3458 L-35207 3456 L-35182 3455 L-35148 3453 L-35131 3451 L-35110 3449 L-35092 3446 L-35072 3445 L-35053 3444 L-35031 3443 L-35015 3441 L-34995 3439 L-34976 3437 L-34953 3434 L-34937 3432 L-34919 3431 L-34879 3429 L-34860 3427 L-34821 3425 L-34764 3424 L-34738 3421 L-34716 3419 L-34688 3417 L-34664 3415 L-34638 3413 L-34605 3412 L-34589 3410 L-34569 3410 L-34550 3410 L-34530 3410 L-34511 3410 L-34473 3408 L-34454 3406 L-34434 3403 L-34413 3401 L-34376 3398 L-34357 3397 L-34336 3395 L-34318 3393 L-34299 3392 L-34278 3390 L-34253 3388 L-34238 3385 L-34220 3383 L-34202 3380 L-34182 3378 L-34163 3374 L-34144 3371 L-34125 3369 L-34067 3366 L-34047 3365 L-34025 3362 L-33932 3360 L-33893 3359 L-33873 3367 L-33854 3374 L-33835 3386 L-33738 3398 L-33710 3402 L-33678 3405 L-33660 3404 L-33561 3403 L-33544 3401 L-33526 3400 L-33506 3397 L-33485 3395 L-33467 3392 L-33449 3389 L-33429 3385 L-33409 3382 L-33371 3380 L-33350 3379 L-33293 3378 L-33274 3381 L-33255 3397 L-33235 3414 L-33216 3429 L-33196 3441 L-33176 3441 L-33119 3441 L-33097 3442 L-33061 3441 L-33041 3440 L-32984 3439 L-32964 3438 L-32926 3441 L-32907 3443 L-32880 3445 L-32830 3448 L-32791 3445 L-32732 3443 L-32712 3441 L-32693 3440 L-32654 3439 L-32616 3438 L-32577 3437 L-32500 3436 L-32480 3434 L-32461 3433 L-32365 3432 L-32345 3432 L-32268 3431 L-32210 3430 L-32152 3428 L-32113 3426 L-32094 3425 L-32074 3422 L-32056 3419 L-31930 3416 L-31848 3413 L-31833 3409 L-31818 3406 L-31782 3404 L-31745 3402 L-31725 3401 L-31702 3398 L-31687 3397 L-31668 3395 L-31610 3393 L-31589 3380 L-31571 3365 L-31550 3349 L-31533 3333 L-31514 3329 L-31492 3326 L-31467 3324 L-31451 3322 L-31432 3320 L-31416 3318 L-31395 3312 L-31378 3307 L-31358 3301 L-31317 3296 L-31281 3293 L-31261 3290 L-31238 3288 L-31204 3285 L-31164 3284 L-31146 3282 L-31107 3280 L-31088 3277 L-31068 3276 L-31050 3275 L-31024 3273 L-31001 3271 L-30949 3268 L-30923 3265 L-30907 3264 L-30890 3262 L-30875 3261 L-30854 3259 L-30836 3258 L-30816 3257 L-30740 3256 L-30720 3254 L-30698 3252 L-30681 3248 L-30661 3245 L-30622 3241 L-30585 3238 L-30564 3236 L-30538 3234 L-30522 3233 L-30504 3230 L-30466 3229 L-30449 3228 L-30429 3226 L-30410 3225 L-30388 3223 L-30372 3220 L-30352 3217 L-30333 3215 L-30309 3214 L-30256 3213 L-30236 3211 L-30217 3210 L-30159 3208 L-30095 3205 L-30073 3202 L-29994 3200 L-29962 3197 L-29925 3194 L-29907 3193 L-29887 3191 L-29845 3190 L-29830 3188 L-29791 3185 L-29769 3181 L-29753 3178 L-29733 3174 L-29693 3170 L-29675 3167 L-29657 3165 L-29635 3162 L-29610 3160 L-29593 3156 L-29575 3153 L-29538 3150 L-29500 3148 L-29482 3144 L-29460 3142 L-29424 3141 L-29381 3139 L-29327 3137 L-29289 3134 L-29270 3132 L-29250 3129 L-29230 3127 L-29167 3125 L-29092 3121 L-29048 3120 L-29033 3118 L-29018 3116 L-28979 3115 L-28959 3114 L-28916 3113 L-28901 3113 L-28883 3112 L-28863 3110 L-28841 3108 L-28824 3106 L-28804 3104 L-28764 3101 L-28728 3097 L-28707 3094 L-28681 3091 L-28665 3089 L-28646 3086 L-28630 3084 L-28609 63575 L-28578 63570 L-28553 63566 L-28530 63561 L-28514 3065 L-28495 3064 L-28475 3061 L-28438 3058 L-28419 3055 L-28398 3052 L-28378 3047 L-28321 3044 L-28302 3041 L-28283 3037 L-28238 3036 L-28215 3034 L-28188 3032 L-28163 3030 L-28136 3028 L-28105 3025 L-28068 3023 L-28050 3022 L-28030 3020 L-27954 3019 L-27934 3018 L-27912 3018 L-27895 3019 L-27876 3019 L-27778 3020 L-27753 3018 L-27737 3017 L-27719 3014 L-27702 3011 L-27663 3009 L-27644 3007 L-27603 3005 L-27567 3004 L-27547 3001 L-27525 3000 L-27509 2998 L-27470 2997 L-27413 2996 L-27373 2994 L-27287 2990 L-27259 2988 L-27236 2985 L-27194 2982 L-27122 2981 L-27102 2980 L-27044 2980 L-27026 2981 L-27006 2978 L-26985 2976 L-26948 2974 L-26908 2972 L-26890 2971 L-26850 2971 L-26825 2970 L-26774 2969 L-26735 2968 L-26676 2965 L-26658 2964 L-26639 2962 L-26598 2961 L-26523 2958 L-26503 2956 L-26484 2951 L-26425 2947 L-26407 2944 L-26380 2940 L-26358 2938 L-26292 2936 L-26262 2935 L-26247 2933 L-26211 2932 L-26174 2929 L-26132 2927 L-26097 2925 L-26077 2923 L-26057 2922 L-26039 2921 L-26020 2920 L-26000 2918 L-25980 2917 L-25961 2916 L-25882 2915 L-25826 2914 L-25806 2912 L-25788 2911 L-25747 2911 L-25729 2911 L-25669 2911 L-25633 2910 L-25613 2908 L-25574 2906 L-25536 2904 L-25516 2902 L-25478 2900 L-25362 2898 L-25331 2897 L-25316 2894 L-25282 2892 L-25265 2891 L-25244 2889 L-25201 2888 L-25168 2886 L-25109 2885 L-25089 2882 L-25049 2882 L-24993 2881 L-24967 2880 L-24950 2878 L-24916 2876 L-24895 2874 L-24877 2872 L-24858 2869 L-24800 2867 L-24781 2865 L-24739 2863 L-24723 2861 L-24684 2857 L-24664 2854 L-24646 2852 L-24607 2850 L-24587 2848 L-24568 2846 L-24550 2844 L-24501 2842 L-24473 2840 L-24448 2839 L-24421 2837 L-24405 2834 L-24390 2832 L-24354 2829 L-24296 2827 L-24258 2824 L-24220 2821 L-24198 2819 L-24181 2817 L-24161 2814 L-24121 2812 L-24104 2809 L-24085 2807 L-24064 2804 L-24038 2802 L-24021 2798 L-24003 2796 L-23988 2793 L-23966 2791 L-23949 2789 L-23929 2786 L-23910 2785 L-23888 2783 L-23872 2781 L-23853 2780 L-23809 2776 L-23795 2772 L-23776 2768 L-23756 2762 L-23735 2758 L-23717 2755 L-23678 2750 L-23595 2748 L-23573 2745 L-23544 2742 L-23506 2740 L-23475 2737 L-23461 2735 L-23425 2734 L-23387 2732 L-23345 2732 L-23330 2731 L-23291 2730 L-23232 2728 L-23214 2725 L-23192 2722 L-23157 2721 L-23135 2720 L-23110 2719 L-23093 2718 L-23059 2716 L-23037 2713 L-23020 2711 L-23001 2708 L-22982 2705 L-22943 2701 L-22923 2698 L-22904 2695 L-22881 2693 L-22866 2692 L-22807 2689 L-22789 2687 L-22770 2685 L-22750 2681 L-22730 2678 L-22692 2675 L-22666 2673 L-22616 2671 L-22578 2670 L-22546 2669 L-22532 2667 L-22518 2666 L-22459 2664 L-22439 2663 L-22401 2661 L-22382 2659 L-22362 2657 L-22324 2654 L-22303 2651 L-22285 2649 L-22264 2646 L-22228 2642 L-22207 2640 L-22181 2638 L-22130 2637 L-22092 2635 L-22071 2631 L-22031 2628 L-22014 2625 L-21994 2622 L-21952 2618 L-21938 2616 L-21919 2614 L-21898 2612 L-21878 2610 L-21860 2609 L-21841 2607 L-21821 2606 L-21715 2604 L-21649 2603 L-21619 2600 L-21589 2598 L-21550 2595 L-21530 2594 L-21473 2592 L-21454 2590 L-21434 2587 L-21412 2583 L-21395 2580 L-21357 2578 L-21336 2575 L-21318 2571 L-21299 2570 L-21278 2568 L-21253 2565 L-21236 2563 L-21219 2559 L-21202 2557 L-21181 2556 L-21163 2555 L-21143 2554 L-21125 2552 L-21103 2551 L-21086 2551 L-21047 2551 L-21025 2551 L-20990 2551 L-20950 2549 L-20931 2547 L-20913 2545 L-20893 2542 L-20873 2540 L-20854 2537 L-20835 2533 L-20787 2532 L-20759 2530 L-20736 2528 L-20710 2527 L-20677 2525 L-20622 2522 L-20602 2521 L-20583 2519 L-20561 2518 L-20545 2516 L-20526 2515 L-20467 2514 L-20448 2513 L-20428 2510 L-20371 2509 L-20350 2507 L-20274 2506 L-20254 2504 L-20235 2502 L-20216 2499 L-20175 2496 L-20158 2492 L-20139 2490 L-20119 2486 L-20042 2485 L-20022 2484 L-19945 2482 L-19830 2480 L-19790 2478 L-19758 2477 L-19744 2475 L-19731 2474 L-19710 2473 L-19693 2472 L-19654 2470 L-19616 2469 L-19597 2467 L-19577 2466 L-19500 2463 L-19421 2461 L-19396 2460 L-19381 2459 L-19345 2458 L-19326 2458 L-19306 2457 L-19287 2456 L-19229 2454 L-19210 2453 L-19190 2450 L-19168 2449 L-19113 2447 L-19093 2445 L-18997 2443 L-18978 2441 L-18930 2441 L-18901 2439 L-18861 2439 L-18801 2437 L-18781 2436 L-18765 2434 L-18744 2433 L-18725 2432 L-18701 2430 L-18687 2429 L-18668 2426 L-18648 2424 L-18626 2423 L-18589 2421 L-18571 2420 L-18549 2418 L-18514 2415 L-18492 2414 L-18450 2413 L-18432 2411 L-18416 2409 L-18395 2406 L-18378 2403 L-18358 2401 L-18339 2399 L-18317 2397 L-18300 2395 L-18281 2393 L-18237 2390 L-18204 2388 L-18184 2386 L-18163 2383 L-18146 2381 L-18126 2378 L-18107 2376 L-18087 2375 L-18068 2374 L-18049 2373 L-18023 2373 L-17934 2372 L-17903 2370 L-17889 2367 L-17853 2365 L-17816 2363 L-17796 2362 L-17773 2360 L-17758 2359 L-17739 2357 L-17719 2355 L-17681 2353 L-17661 2351 L-17642 2353 L-17621 2354 L-17598 2354 L-17585 2354 L-17564 2351 L-17538 2348 L-17502 2345 L-17487 2341 L-17468 2338 L-17448 2338 L-17429 2338 L-17410 2338 L-17388 2337 L-17372 2334 L-17352 2331 L-17309 2328 L-17295 2327 L-17276 2325 L-17235 2323 L-17217 2322 L-17198 2318 L-17178 2316 L-17159 2314 L-17140 2312 L-17121 2311 L-17073 2309 L-17005 2307 L-16973 2306 L-16946 2305 L-16924 2304 L-16907 2303 L-16887 2302 L-16868 2301 L-16844 2301 L-16830 2300 L-16811 2299 L-16791 2295 L-16768 2292 L-16752 2290 L-16731 2288 L-16714 2287 L-16656 2285 L-16635 2282 L-16610 2280 L-16592 2278 L-16574 2276 L-16559 2274 L-16537 2271 L-16520 2269 L-16500 2268 L-16481 2266 L-16458 2266 L-16443 2265 L-16424 2264 L-16380 2262 L-16366 2261 L-16347 2258 L-16327 2257 L-16307 2256 L-16289 2254 L-16270 2252 L-16211 2250 L-16116 2249 L-16078 2246 L-16061 2245 L-16046 2243 L-16032 2242 L-16017 2240 L-15996 2239 L-15958 2237 L-15939 2235 L-15916 2234 L-15901 2233 L-15882 2231 L-15862 2229 L-15840 2226 L-15823 2221 L-15785 2219 L-15764 2216 L-15747 2214 L-15681 2211 L-15664 2209 L-15645 2208 L-15630 2206 L-15609 2205 L-15592 2203 L-15572 2201 L-15553 2198 L-15531 2195 L-15515 2191 L-15495 2187 L-15452 2184 L-15437 2182 L-15419 2180 L-15398 2177 L-15378 2174 L-15341 2171 L-15321 2169 L-15301 2167 L-15239 2165 L-15188 2162 L-15163 2161 L-15136 2159 L-15119 2156 L-15050 2154 L-15030 2151 L-15011 2148 L-14988 2147 L-14973 2145 L-14895 2143 L-14875 2139 L-14857 2137 L-14835 2135 L-14817 2132 L-14799 2130 L-14778 2127 L-14753 2125 L-14735 2124 L-14717 2122 L-14702 2120 L-14681 2119 L-14663 2117 L-14643 2117 L-14625 2115 L-14602 2114 L-14566 2112 L-14547 2110 L-14525 2108 L-14509 2107 L-14490 2105 L-14470 2103 L-14449 2101 L-14431 2100 L-14413 2098 L-14393 2095 L-14335 2093 L-14287 2090 L-14190 2089 L-14160 2087 L-14122 2086 L-14102 2085 L-14026 2084 L-14006 2083 L-13967 2082 L-13948 2081 L-13908 2078 L-13890 2076 L-13871 2074 L-13850 2073 L-13824 2072 L-13810 2071 L-13792 2069 L-13774 2067 L-13735 2066 L-13716 2064 L-13696 2063 L-13675 2061 L-13639 2060 L-13619 2059 L-13503 2059 L-13484 2058 L-13464 2057 L-13407 2055 L-13330 2055 L-13291 2055 L-13245 2055 L-13232 2055 L-13193 2054 L-13173 2053 L-13131 2052 L-13116 2050 L-13097 2049 L-13077 2047 L-13000 2046 L-12980 2046 L-12942 2045 L-12921 2043 L-12864 2042 L-12825 2040 L-12806 2039 L-12787 2037 L-12746 2035 L-12729 2034 L-12690 2034 L-12668 2034 L-12652 2035 L-12633 2036 L-12574 2035 L-12555 2035 L-12515 2034 L-12497 2034 L-12478 2034 L-12451 2031 L-12429 2030 L-12401 2029 L-12326 2027 L-12312 2026 L-12264 2024 L-12243 2022 L-12200 2021 L-12187 2019 L-12148 2018 L-12125 2017 L-12109 2016 L-12088 2015 L-12071 2014 L-12049 2013 L-12013 2011 L-11992 2010 L-11967 2007 L-11950 2006 L-11931 2004 L-11916 2003 L-11895 2001 L-11877 1999 L-11858 1997 L-11839 1995 L-11816 1994 L-11780 1993 L-11761 1992 L-11738 1989 L-11723 1986 L-11704 1981 L-11684 1978 L-11664 1976 L-11646 1974 L-11607 1971 L-11587 1968 L-11568 1966 L-11473 1964 L-11434 1961 L-11403 1957 L-11387 1954 L-11353 1951 L-11336 1949 L-11315 1947 L-11296 1944 L-11272 1942 L-11258 1939 L-11239 1934 L-11219 1932 L-11197 1930 L-11181 1927 L-11161 1925 L-11142 1921 L-11121 1920 L-11104 1918 L-11085 1916 L-11003 1914 L-10966 1911 L-10949 1908 L-10928 1905 L-10872 1902 L-10832 1898 L-10795 1895 L-10776 1894 L-10755 1892 L-10735 1890 L-10717 1886 L-10698 1883 L-10678 1881 L-10658 1880 L-10572 1879 L-10544 1876 L-10504 1874 L-10471 1872 L-10457 1870 L-10423 1869 L-10386 1867 L-10368 1866 L-10344 1863 L-10310 1862 L-10291 1860 L-10268 1858 L-10253 1855 L-10214 1852 L-10156 1848 L-10110 1844 L-10092 1839 L-10074 1835 L-10059 1832 L-10037 1828 L-10020 1826 L-9982 1824 L-9958 1823 L-9943 1822 L-9923 1820 L-9904 1818 L-9880 1815 L-9866 1813 L-9847 1811 L-9788 1809 L-9769 1807 L-9750 1804 L-9729 1802 L-9711 1800 L-9644 1798 L-9616 1795 L-9576 1792 L-9544 1789 L-9530 1787 L-9518 1785 L-9479 1783 L-9458 1782 L-9439 1780 L-9416 1779 L-9401 1777 L-9382 1776 L-9362 1773 L-9340 1771 L-9324 1767 L-9303 1765 L-9285 1763 L-9264 1761 L-9247 1760 L-9228 1756 L-9207 1751 L-9164 1746 L-9146 1739 L-9130 1732 L-9109 1730 L-9092 1728 L-9071 1726 L-9053 1724 L-9030 1722 L-9015 1719 L-8994 1715 L-8976 1712 L-8952 1705 L-8937 1700 L-8919 1696 L-8878 1692 L-8860 1691 L-8841 1690 L-8821 1690 L-8801 1689 L-8782 1687 L-8764 1684 L-8738 1683 L-8715 1682 L-8687 1681 L-8648 1679 L-8616 1675 L-8601 1671 L-8588 1667 L-8567 1665 L-8550 1663 L-8530 1659 L-8511 1657 L-8473 1655 L-8454 1653 L-8434 1651 L-8395 1648 L-8375 1646 L-8357 1645 L-8318 1643 L-8299 1642 L-8278 1640 L-8253 1640 L-8236 1640 L-8218 1639 L-8202 1639 L-8181 1635 L-8163 1633 L-8125 1631 L-8102 1629 L-8066 1628 L-8023 1624 L-8009 1622 L-7990 1619 L-7950 1616 L-7931 1615 L-7912 1612 L-7854 1611 L-7787 1608 L-7719 1605 L-7687 1603 L-7640 1599 L-7622 1593 L-7602 1585 L-7582 1579 L-7560 1560 L-7545 1547 L-7526 1535 L-7467 1523 L-7448 1521 L-7428 1520 L-7408 1516 L-7390 1514 L-7371 1512 L-7350 1511 L-7325 1510 L-7309 1509 L-7289 1507 L-7274 1506 L-7254 1504 L-7235 1503 L-7216 1502 L-7158 1500 L-7118 1498 L-7080 1497 L-7062 1495 L-7041 1494 L-7003 1492 L-6964 1490 L-6944 1488 L-6858 1486 L-6790 1484 L-6757 1483 L-6744 1482 L-6731 1480 L-6710 1480 L-6693 1479 L-6654 1477 L-6597 1476 L-6577 1474 L-6556 1473 L-6520 1472 L-6500 1471 L-6461 1468 L-6396 1467 L-6364 1465 L-6307 1462 L-6288 1459 L-6246 1456 L-6229 1454 L-6210 1453 L-6133 1451 L-6113 1449 L-6074 1447 L-6056 1446 L-6036 1444 L-6016 1443 L-5978 1441 L-5951 1439 L-5901 1437 L-5861 1435 L-5827 1432 L-5814 1431 L-5780 1429 L-5744 1428 L-5701 1428 L-5668 1426 L-5647 1424 L-5625 1420 L-5588 1417 L-5548 1415 L-5533 1413 L-5514 1412 L-5492 1410 L-5467 1408 L-5431 1406 L-5416 1405 L-5395 1404 L-5357 1401 L-5339 1399 L-5317 1395 L-5300 1392 L-5280 1389 L-5261 1386 L-5239 1383 L-5223 1380 L-5204 1378 L-5184 1377 L-5126 1376 L-5107 1375 L-5086 1374 L-5068 1372 L-5049 1370 L-5024 1368 L-4973 1367 L-4934 1365 L-4887 1364 L-4875 1363 L-4853 1360 L-4815 1358 L-4796 1355 L-4772 1352 L-4739 1351 L-4719 1348 L-4697 1347 L-4681 1345 L-4660 1342 L-4642 1338 L-4620 1334 L-4604 1330 L-4584 1329 L-4520 1327 L-4502 1326 L-4488 1324 L-4466 1322 L-4449 1320 L-4428 1317 L-4410 1315 L-4372 1312 L-4352 1310 L-4333 1307 L-4309 1304 L-4294 1299 L-4276 1296 L-4234 1293 L-4217 1291 L-4198 1287 L-4158 1286 L-4073 1284 L-4044 1282 L-4005 1280 L-3973 1278 L-3958 1276 L-3924 1275 L-3907 1274 L-3886 1274 L-3868 1274 L-3844 1272 L-3791 1269 L-3752 1264 L-3714 1261 L-3675 1259 L-3656 1256 L-3635 1251 L-3610 1245 L-3592 1237 L-3574 1232 L-3559 1227 L-3538 1223 L-3520 1220 L-3500 1215 L-3481 1211 L-3458 1208 L-3423 1206 L-3404 1201 L-3380 1198 L-3366 1195 L-3347 1191 L-3327 1188 L-3306 1186 L-3288 1183 L-3270 1179 L-3250 1175 L-3229 1171 L-3211 1165 L-3192 1159 L-3166 1152 L-3144 1146 L-3116 1138 L-3076 1128 L-3043 1119 L-3029 1112 L-2995 1105 L-2979 1101 L-2958 1097 L-2939 1093 L-2915 1089 L-2901 1084 L-2882 1079 L-2862 1075 L-2840 1070 L-2824 1067 L-2803 1064 L-2785 1059 L-2763 1054 L-2747 1049 L-2728 1046 L-2707 1043 L-2681 1040 L-2646 1036 L-2630 1032 L-2609 1028 L-2571 1024 L-2553 1021 L-2530 1019 L-2514 1016 L-2494 1011 L-2475 1008 L-2438 1006 L-2398 1004 L-2378 1001 L-2360 998 L-2341 996 L-2321 994 L-2300 993 L-2264 992 L-2237 989 L-2215 987 L-2148 985 L-2116 982 L-2101 979 L-2088 976 L-2067 975 L-2050 974 L-2029 972 L-2011 970 L-1987 967 L-1954 964 L-1934 962 L-1911 960 L-1895 959 L-1875 959 L-1857 958 L-1835 958 L-1818 957 L-1799 955 L-1778 951 L-1753 948 L-1736 945 L-1718 941 L-1702 939 L-1681 936 L-1663 934 L-1643 931 L-1624 928 L-1603 925 L-1586 923 L-1566 919 L-1547 913 L-1524 909 L-1509 903 L-1490 899 L-1470 897 L-1451 893 L-1432 891 L-1413 889 L-1393 887 L-1372 885 L-1354 883 L-1335 880 L-1287 877 L-1259 874 L-1221 868 L-1205 865 L-1190 861 L-1160 857 L-1139 856 L-1122 854 L-1102 853 L-1082 851 L-1045 849 L-1026 848 L-1006 845 L-967 842 L-948 839 L-928 836 L-908 833 L-890 830 L-871 826 L-850 823 L-825 818 L-810 814 L-792 812 L-774 809 L-754 807 L-735 805 L-716 803 L-696 801 L-675 800 L-658 799 L-618 796 L-596 794 L-580 792 L-542 789 L-522 789 L-445 788 L-425 787 L-407 785 L-380 782 L-358 779 L-290 775 L-258 771 L-211 770 L-193 768 L-154 767 L-131 765 L-97 764 L-77 761 L-39 759 L-20 757 L19 755 L38 754 L57 752 L78 744 L103 735 L118 725 L154 716 L173 710 L193 707 L231 705 L252 703 L289 701 L309 701 L331 699 L347 698 L366 697 L386 695 L406 693 L425 692 L463 691 L484 689 L502 689 L521 689 L548 687 L569 685 L598 682 L638 679 L672 676 L699 673 L719 671 L735 668 L755 665 L774 663 L798 661 L832 660 L851 658 L889 656 L928 655 L951 652 L967 650 L985 649 L1007 647 L1032 644 L1049 639 L1068 634 L1104 628 L1122 623 L1142 620 L1160 615 L1183 612 L1219 609 L1238 604 L1276 602 L1315 599 L1336 597 L1353 593 L1392 590 L1413 587 L1431 585 L1450 584 L1476 585 L1498 586 L1566 588 L1599 588 L1613 586 L1646 584 L1663 581 L1684 580 L1703 578 L1727 577 L1760 576 L1780 574 L1802 573 L1838 572 L1857 569 L1914 568 L1935 566 L1961 564 L1978 562 L1996 560 L2033 556 L2071 554 L2112 552 L2127 549 L2148 547 L2167 544 L2190 541 L2243 539 L2264 536 L2282 533 L2301 531 L2321 529 L2341 528 L2378 526 L2427 525 L2455 524 L2494 521 L2527 519 L2541 517 L2554 515 L2575 513 L2655 511 L2669 508 L2731 506 L2747 503 L2768 502 L2785 500 L2808 499 L2824 497 L2843 496 L2864 495 L2889 493 L2925 492 L2940 491 L2962 489 L2979 487 L3000 483 L3018 480 L3041 478 L3056 475 L3095 472 L3133 470 L3172 468 L3211 466 L3230 464 L3249 463 L3269 460 L3307 457 L3333 455 L3355 452 L3383 448 L3423 445 L3456 442 L3483 440 L3520 436 L3541 435 L3560 433 L3617 432 L3675 429 L3696 424 L3714 421 L3736 417 L3752 412 L3771 411 L3792 409 L3836 407 L3889 405 L3928 403 L3946 399 L3969 395 L4062 393 L4101 389 L4122 386 L4139 384 L4178 381 L4236 379 L4262 376 L4284 374 L4312 372 L4352 370 L4384 367 L4398 364 L4411 363 L4432 361 L4449 360 L4469 345 L4488 328 L4512 311 L4546 294 L4565 290 L4604 287 L4624 285 L4642 282 L4664 280 L4681 278 L4700 276 L4721 273 L4746 270 L4763 267 L4781 263 L4797 260 L4818 257 L4856 254 L4875 251 L4898 248 L4914 244 L4933 243 L4952 242 L4976 241 L4991 239 L5009 236 L5050 232 L5068 228 L5087 224 L5164 219 L5190 216 L5212 213 L5240 210 L5279 209 L5339 207 L5360 206 L5377 205 L5398 204 L5417 202 L5439 200 L5454 197 L5473 196 L5493 194 L5532 191 L5551 189 L5571 185 L5591 181 L5628 178 L5649 173 L5675 170 L5689 168 L5707 166 L5725 164 L5745 162 L5764 161 L5783 159 L5803 157 L5824 155 L5841 153 L5880 150 L5902 147 L5919 146 L5938 145 L5977 144 L5996 143 L6015 142 L6074 141 L6092 140 L6119 140 L6141 138 L6243 138 L6257 138 L6290 137 L6345 137 L6368 136 L6383 134 L6402 132 L6422 130 L6444 128 L6461 125 L6480 124 L6500 122" />
</svg>
