<svg xmlns="http://www.w3.org/2000/svg" version="1.1" viewBox="0 0 6500 1000">
	<path fill="none" stroke="gold" stroke-width="125" stroke-linecap="round" stroke-linejoin="round" d="M0 3948  L-1317949 3948 L-1317764 3948 L-1317274 3948 L-1316981 3948 L-1316669 3948 L-1316435 3948 L-1316382 3948 L-1316322 3948 L-1316169 3948 L-1316129 3948 L-1315996 3948 L-1315704 3948 L-1315163 3948 L-1314553 3948 L-1314505 3948 L-1313865 3948 L-1313831 3948 L-1313306 3948 L-1313173 3948 L-1312783 3948 L-1312455 3948 L-1312338 3948 L-1312126 3948 L-1311409 3948 L-1310839 3948 L-1310732 3948 L-1310558 3948 L-1310336 3948 L-1309935 3948 L-1309909 3948 L-1308981 3948 L-1308894 3948 L-1308811 3948 L-1308741 3948 L-1308444 3948 L-1308292 3948 L-1306402 3948 L-1306301 3948 L-1306039 3948 L-1305745 3948 L-1305604 3948 L-1305355 3948 L-1305319 3948 L-1305161 3948 L-1304697 3948 L-1304444 3948 L-1304232 3947 L-1303981 3947 L-1303632 3947 L-1302705 3947 L-1302611 3947 L-1302200 3947 L-1301029 3947 L-1299840 3947 L-1299748 3947 L-1299721 3947 L-1299455 3947 L-1299156 3947 L-1299027 3947 L-1298989 3947 L-1298175 3947 L-1297791 3947 L-1296730 3947 L-1296669 3947 L-1296404 3947 L-1295933 3948 L-1295740 3948 L-1295477 3949 L-1295140 3949 L-1295004 3948 L-1294549 3948 L-1293805 3948 L-1293788 3948 L-1293623 3948 L-1293554 3948 L-1293038 3948 L-1292010 3948 L-1291813 3948 L-1291325 3948 L-1290963 3948 L-1290554 3948 L-1290169 3948 L-1288465 3948 L-1288367 3948 L-1288295 3948 L-1288234 3948 L-1288050 3948 L-1287713 3948 L-1287073 3948 L-1286996 3948 L-1286934 3948 L-1286748 3948 L-1286668 3948 L-1286491 3948 L-1286472 3948 L-1286242 3948 L-1285854 3948 L-1284965 3948 L-1284926 3948 L-1284838 3948 L-1284810 3948 L-1283802 3948 L-1283653 3948 L-1283628 3948 L-1283495 3948 L-1283456 3948 L-1282197 3948 L-1282140 3948 L-1281600 3948 L-1281547 3948 L-1281501 3948 L-1281106 3948 L-1280966 3948 L-1280766 3948 L-1280619 3948 L-1280455 3948 L-1280178 3948 L-1279819 3948 L-1279267 3948 L-1278622 3948 L-1278363 3948 L-1278210 3948 L-1277809 3948 L-1277768 3948 L-1277648 3948 L-1277586 3948 L-1277572 3948 L-1277478 3948 L-1277185 3948 L-1277034 3948 L-1276703 3948 L-1276626 3948 L-1276550 3948 L-1276323 3948 L-1276257 3948 L-1276029 3948 L-1275976 3947 L-1275812 3947 L-1274806 3947 L-1274623 3947 L-1274072 3947 L-1273679 3947 L-1273281 3947 L-1272431 3947 L-1272353 3947 L-1271774 3947 L-1271332 3947 L-1271091 3947 L-1270934 3947 L-1270533 3947 L-1270513 3947 L-1270068 3947 L-1269663 3947 L-1269527 3947 L-1269351 3947 L-1269215 3947 L-1268965 3947 L-1267965 3947 L-1267883 3947 L-1267747 3947 L-1267709 3947 L-1266819 3947 L-1266603 3947 L-1266160 3947 L-1266043 3947 L-1265986 3947 L-1265309 3947 L-1265209 3947 L-1265180 3947 L-1263839 3947 L-1263433 3947 L-1263393 3947 L-1262465 3947 L-1262367 3947 L-1262234 3947 L-1261830 3947 L-1261803 3947 L-1261710 3947 L-1261494 3947 L-1261083 3947 L-1259929 3947 L-1259638 3947 L-1259609 3947 L-1259001 3947 L-1258751 3947 L-1258731 3946 L-1257802 3946 L-1257751 3946 L-1257628 3946 L-1257611 3946 L-1257455 3946 L-1257279 3946 L-1257143 3946 L-1257086 3946 L-1256978 3946 L-1256893 3946 L-1256660 3946 L-1256585 3946 L-1256276 3946 L-1256159 3946 L-1255989 3946 L-1255898 3946 L-1255795 3946 L-1255772 3946 L-1255695 3946 L-1255597 3946 L-1255230 3946 L-1255125 3946 L-1254622 3946 L-1254170 3946 L-1254132 3946 L-1254108 3946 L-1254067 3946 L-1253938 3946 L-1253838 3946 L-1253396 3946 L-1253114 3946 L-1252521 3946 L-1252391 3946 L-1252117 3946 L-1251964 3946 L-1251811 3946 L-1251726 3946 L-1251648 3946 L-1251462 3946 L-1251411 3946 L-1251384 3946 L-1251304 3946 L-1251281 3946 L-1250998 3946 L-1250394 3946 L-1249398 3946 L-1249100 3946 L-1248367 3946 L-1248122 3946 L-1248032 3946 L-1247455 3945 L-1246757 3945 L-1246004 3945 L-1245686 3945 L-1245303 3945 L-1245226 3945 L-1244591 3945 L-1244406 3945 L-1244318 3945 L-1244189 3945 L-1243876 3945 L-1243826 3945 L-1243684 3945 L-1243663 3945 L-1242695 3945 L-1242150 3945 L-1241671 3945 L-1241610 3945 L-1241287 3945 L-1241265 3945 L-1241203 3945 L-1240993 3945 L-1240916 3945 L-1240861 3945 L-1240839 3945 L-1240799 3945 L-1240784 3945 L-1240026 3945 L-1240010 3945 L-1239211 3945 L-1239058 3945 L-1238153 3945 L-1237647 3945 L-1237417 3945 L-1237376 3945 L-1237261 3945 L-1237084 3945 L-1236330 3945 L-1236195 3945 L-1236031 3945 L-1235713 3945 L-1235537 3945 L-1234515 3945 L-1234492 3945 L-1234240 3945 L-1234027 3945 L-1233393 3945 L-1233156 3945 L-1233123 3945 L-1232945 3945 L-1232865 3945 L-1232775 3945 L-1232710 3945 L-1232270 3944 L-1232247 3944 L-1231706 3944 L-1231450 3944 L-1230955 3944 L-1230078 3944 L-1230041 3944 L-1229988 3944 L-1229947 3944 L-1229830 3944 L-1229554 3944 L-1229346 3944 L-1229149 3944 L-1229126 3944 L-1229076 3944 L-1229036 3944 L-1228959 3944 L-1228361 3944 L-1228301 3944 L-1228198 3944 L-1228043 3944 L-1227411 3944 L-1226731 3944 L-1226428 3944 L-1226081 3944 L-1225884 3944 L-1225835 3944 L-1225515 3944 L-1224887 3944 L-1224741 3944 L-1224704 3944 L-1224646 3944 L-1224570 3944 L-1224329 3944 L-1224240 3944 L-1224146 3944 L-1223852 3944 L-1223718 3944 L-1223658 3944 L-1223621 3944 L-1223349 3944 L-1222343 3944 L-1222167 3944 L-1222117 3944 L-1221824 3944 L-1221631 3944 L-1221298 3944 L-1220792 3944 L-1220230 3943 L-1220215 3943 L-1220198 3943 L-1220098 3943 L-1219983 3943 L-1219944 3943 L-1219906 3943 L-1219841 3943 L-1219813 3943 L-1219674 3943 L-1219381 3943 L-1219331 3943 L-1219226 3943 L-1218961 3943 L-1218496 3943 L-1218352 3943 L-1218297 3943 L-1218240 3943 L-1218049 3943 L-1217684 3943 L-1217469 3943 L-1217275 3943 L-1217217 3943 L-1217158 3943 L-1217004 3943 L-1216734 3943 L-1216305 3943 L-1216289 3943 L-1216212 3943 L-1216148 3943 L-1216018 3943 L-1215995 3943 L-1215711 3943 L-1215663 3943 L-1215608 3943 L-1215146 3943 L-1215107 3943 L-1215067 3943 L-1214876 3943 L-1214396 3943 L-1213909 3943 L-1213892 3943 L-1213854 3943 L-1213598 3943 L-1213521 3943 L-1213291 3943 L-1213275 3943 L-1212980 3943 L-1212538 3943 L-1212091 3943 L-1211586 3943 L-1211433 3943 L-1211146 3943 L-1211106 3943 L-1210775 3943 L-1210553 3943 L-1210036 3942 L-1209960 3942 L-1209712 3942 L-1209518 3942 L-1209458 3942 L-1208681 3942 L-1208608 3942 L-1208377 3942 L-1208360 3942 L-1208298 3942 L-1208103 3942 L-1207639 3942 L-1207615 3942 L-1207486 3942 L-1206185 3942 L-1206168 3942 L-1206091 3942 L-1205997 3942 L-1205780 3942 L-1205628 3942 L-1205450 3942 L-1205396 3942 L-1205109 3942 L-1205069 3942 L-1204699 3942 L-1204259 3942 L-1204076 3942 L-1203755 3942 L-1203460 3942 L-1203014 3942 L-1202942 3942 L-1202480 3942 L-1202042 3942 L-1201860 3942 L-1200406 3942 L-1200274 3942 L-1199817 3942 L-1199591 3942 L-1199204 3942 L-1198688 3942 L-1197734 3942 L-1196940 3942 L-1196265 3942 L-1195840 3942 L-1195528 3942 L-1195298 3942 L-1194615 3942 L-1194602 3942 L-1194392 3942 L-1194370 3942 L-1194196 3942 L-1193246 3942 L-1192978 3942 L-1192162 3941 L-1191852 3941 L-1191814 3941 L-1191757 3941 L-1191140 3941 L-1190502 3941 L-1188876 3941 L-1188202 3941 L-1187560 3941 L-1187483 3941 L-1187426 3941 L-1187391 3941 L-1187362 3941 L-1187250 3941 L-1187233 3941 L-1187210 3941 L-1187056 3941 L-1187003 3941 L-1186925 3941 L-1186806 3941 L-1186708 3941 L-1186591 3941 L-1186321 3941 L-1186051 3941 L-1186034 3941 L-1185834 3941 L-1185687 3941 L-1185460 3941 L-1185326 3941 L-1185018 3941 L-1184958 3941 L-1184605 3941 L-1184256 3941 L-1184155 3941 L-1184091 3941 L-1184031 3941 L-1183646 3941 L-1183265 3941 L-1183161 3941 L-1182901 3941 L-1182630 3941 L-1182471 3941 L-1182438 3941 L-1182376 3941 L-1182235 3941 L-1182051 3941 L-1182007 3941 L-1181718 3941 L-1181702 3941 L-1181469 3941 L-1181408 3940 L-1181370 3940 L-1180790 3940 L-1180656 3940 L-1180633 3940 L-1180615 3940 L-1180597 3940 L-1180581 3940 L-1180557 3940 L-1180541 3940 L-1180519 3940 L-1180503 3939 L-1180480 3939 L-1180463 3939 L-1180441 3939 L-1180424 3939 L-1180376 3939 L-1180303 3939 L-1180269 3939 L-1180245 3939 L-1180209 3939 L-1180168 3939 L-1180131 3939 L-1180115 3939 L-1180091 3939 L-1180054 3939 L-1180037 3939 L-1180014 3939 L-1179996 3938 L-1179977 3938 L-1179961 3938 L-1179932 3938 L-1179906 3938 L-1179861 3938 L-1179844 3938 L-1179802 3938 L-1179754 3938 L-1179684 3938 L-1179668 3938 L-1179652 3938 L-1179590 3938 L-1179551 3938 L-1179512 3938 L-1179346 3938 L-1179281 3938 L-1179265 3938 L-1179220 3938 L-1179162 3938 L-1178949 3938 L-1178916 3938 L-1178874 3938 L-1178796 3938 L-1178258 3938 L-1178180 3938 L-1178076 3938 L-1177987 3938 L-1177811 3938 L-1177460 3938 L-1177304 3938 L-1176867 3938 L-1176710 3938 L-1176580 3938 L-1175876 3938 L-1175675 3938 L-1174715 3938 L-1174232 3938 L-1174133 3938 L-1174041 3938 L-1173796 3938 L-1173723 3938 L-1173280 3937 L-1173184 3937 L-1173169 3937 L-1173153 3937 L-1173128 3937 L-1172662 3937 L-1172445 3937 L-1172305 3937 L-1172011 3937 L-1171923 3937 L-1171881 3937 L-1171852 3937 L-1171679 3937 L-1171620 3937 L-1171544 3937 L-1171463 3937 L-1171394 3937 L-1171084 3937 L-1170999 3937 L-1170785 3937 L-1170750 3937 L-1170067 3937 L-1169968 3937 L-1169763 3937 L-1169717 3937 L-1169438 3937 L-1169376 3937 L-1169359 3937 L-1169281 3937 L-1168973 3937 L-1168948 3937 L-1168895 3937 L-1168872 3937 L-1168749 3937 L-1168614 3937 L-1168369 3937 L-1168244 3937 L-1167597 3937 L-1167581 3937 L-1167556 3937 L-1167376 3937 L-1167300 3937 L-1167208 3937 L-1166780 3937 L-1166364 3937 L-1165971 3937 L-1165893 3937 L-1165874 3937 L-1165510 3937 L-1165274 3937 L-1165046 3937 L-1164733 3937 L-1164655 3937 L-1164574 3936 L-1164396 3936 L-1164380 3936 L-1164115 3936 L-1164035 3936 L-1163805 3936 L-1163579 3936 L-1163263 3936 L-1163088 3936 L-1162727 3936 L-1162335 3936 L-1162266 3936 L-1162202 3936 L-1162061 3936 L-1162010 3936 L-1161908 3936 L-1161406 3936 L-1161209 3936 L-1160962 3936 L-1160777 3936 L-1160477 3936 L-1160401 3936 L-1160235 3936 L-1159351 3936 L-1159322 3936 L-1159199 3936 L-1158620 3936 L-1158542 3936 L-1157829 3936 L-1157517 3936 L-1157304 3936 L-1157287 3936 L-1156901 3936 L-1156376 3936 L-1155929 3936 L-1155600 3936 L-1155447 3936 L-1155121 3936 L-1154943 3936 L-1154861 3936 L-1154655 3936 L-1154480 3936 L-1153551 3936 L-1152661 3936 L-1152622 3936 L-1152394 3936 L-1152015 3936 L-1151228 3936 L-1150993 3936 L-1150917 3936 L-1150560 3936 L-1149988 3936 L-1149721 3936 L-1149335 3936 L-1149231 3936 L-1149061 3936 L-1148443 3936 L-1148231 3936 L-1147923 3936 L-1147870 3935 L-1147743 3935 L-1147690 3935 L-1147570 3935 L-1147234 3935 L-1146275 3935 L-1146144 3935 L-1145942 3935 L-1145311 3935 L-1144999 3935 L-1144586 3935 L-1144558 3935 L-1144413 3935 L-1143993 3935 L-1142660 3935 L-1142613 3935 L-1142485 3935 L-1142468 3935 L-1141890 3935 L-1141684 3935 L-1141655 3935 L-1141614 3935 L-1141556 3935 L-1141519 3935 L-1141440 3935 L-1141298 3935 L-1140843 3935 L-1140725 3935 L-1140440 3935 L-1140067 3935 L-1139971 3935 L-1139644 3935 L-1139290 3935 L-1139120 3935 L-1139072 3935 L-1138963 3935 L-1138874 3935 L-1138846 3935 L-1138770 3935 L-1138467 3935 L-1138433 3935 L-1138361 3935 L-1137993 3935 L-1137658 3935 L-1137577 3935 L-1137357 3935 L-1137186 3935 L-1137158 3935 L-1136661 3935 L-1136112 3935 L-1135231 3934 L-1135133 3934 L-1135056 3934 L-1134781 3934 L-1134534 3934 L-1134460 3934 L-1134398 3934 L-1134280 3934 L-1134237 3934 L-1134127 3934 L-1134050 3934 L-1133350 3934 L-1133104 3934 L-1133064 3934 L-1132908 3934 L-1132309 3934 L-1132082 3934 L-1131990 3934 L-1131515 3934 L-1130917 3934 L-1130398 3934 L-1130377 3934 L-1130231 3934 L-1129911 3934 L-1129369 3934 L-1129137 3934 L-1128967 3934 L-1128480 3934 L-1128253 3934 L-1128168 3934 L-1127822 3934 L-1127496 3934 L-1126973 3934 L-1126645 3934 L-1126045 3934 L-1125847 3934 L-1125795 3934 L-1125755 3934 L-1125474 3934 L-1124789 3934 L-1124479 3934 L-1124454 3934 L-1124263 3934 L-1124040 3934 L-1123954 3934 L-1123290 3934 L-1123266 3934 L-1123044 3934 L-1122714 3934 L-1122362 3934 L-1122158 3934 L-1121925 3934 L-1121667 3934 L-1121477 3933 L-1121430 3933 L-1121203 3933 L-1121168 3933 L-1121012 3933 L-1120798 3933 L-1120625 3933 L-1120533 3933 L-1120256 3933 L-1120012 3933 L-1119697 3933 L-1119271 3933 L-1119233 3933 L-1118750 3933 L-1118517 3933 L-1118305 3933 L-1118079 3933 L-1117529 3933 L-1117282 3933 L-1116448 3933 L-1116392 3933 L-1116370 3933 L-1116212 3933 L-1115751 3933 L-1115710 3933 L-1115370 3933 L-1115237 3933 L-1115014 3933 L-1114442 3933 L-1113970 3933 L-1113775 3933 L-1113583 3933 L-1113393 3933 L-1113291 3933 L-1112923 3933 L-1112877 3933 L-1112795 3933 L-1111502 3933 L-1111454 3933 L-1111185 3933 L-1111040 3933 L-1110489 3933 L-1110372 3933 L-1110291 3933 L-1109931 3933 L-1109708 3933 L-1109427 3933 L-1109097 3933 L-1108589 3933 L-1108477 3933 L-1108398 3933 L-1108234 3933 L-1107939 3933 L-1107471 3933 L-1107274 3933 L-1107224 3933 L-1106574 3933 L-1106452 3933 L-1105998 3933 L-1105962 3933 L-1105494 3933 L-1105383 3933 L-1105367 3933 L-1105151 3933 L-1104970 3933 L-1104438 3933 L-1103409 3933 L-1103209 3933 L-1102751 3933 L-1101803 3933 L-1101704 3932 L-1101350 3932 L-1101289 3932 L-1101275 3932 L-1101239 3932 L-1100870 3932 L-1100750 3932 L-1100508 3932 L-1100344 3932 L-1100157 3932 L-1100036 3932 L-1098965 3932 L-1098107 3932 L-1097895 3932 L-1097798 3932 L-1097624 3932 L-1097290 3932 L-1097219 3932 L-1097161 3932 L-1096985 3932 L-1096597 3932 L-1096361 3932 L-1096250 3932 L-1096133 3932 L-1095152 3932 L-1095127 3932 L-1094533 3932 L-1094500 3932 L-1094351 3932 L-1094067 3932 L-1093155 3932 L-1092209 3932 L-1092056 3932 L-1091954 3932 L-1091822 3932 L-1091679 3932 L-1091653 3932 L-1091538 3932 L-1091320 3932 L-1090638 3932 L-1090509 3932 L-1090206 3932 L-1089966 3932 L-1089633 3932 L-1088995 3932 L-1088652 3932 L-1088590 3932 L-1088435 3932 L-1087513 3932 L-1087043 3932 L-1086999 3932 L-1086986 3932 L-1086945 3932 L-1086923 3932 L-1086896 3932 L-1086752 3932 L-1086330 3932 L-1085994 3932 L-1085803 3932 L-1085375 3932 L-1085187 3931 L-1084798 3931 L-1084264 3931 L-1083891 3931 L-1083869 3931 L-1083620 3931 L-1083501 3931 L-1083425 3931 L-1083290 3931 L-1083250 3931 L-1083170 3931 L-1082776 3931 L-1082280 3931 L-1082168 3931 L-1081995 3931 L-1081687 3931 L-1081239 3931 L-1080916 3931 L-1080774 3931 L-1080347 3931 L-1080194 3931 L-1080138 3931 L-1079324 3931 L-1079305 3931 L-1078933 3931 L-1078876 3931 L-1077747 3931 L-1077679 3931 L-1077121 3931 L-1076926 3931 L-1076790 3931 L-1076556 3931 L-1076209 3931 L-1076175 3931 L-1076140 3931 L-1076071 3931 L-1075722 3931 L-1075550 3931 L-1075065 3931 L-1075049 3931 L-1074724 3931 L-1074566 3931 L-1073426 3931 L-1073401 3931 L-1073209 3931 L-1073015 3931 L-1072765 3931 L-1072748 3931 L-1071728 3931 L-1071430 3930 L-1071355 3930 L-1071219 3930 L-1071043 3930 L-1070466 3930 L-1070251 3930 L-1070187 3930 L-1070056 3930 L-1070019 3930 L-1069496 3930 L-1069358 3937 L-1069344 3937 L-1069321 3937 L-1069300 3937 L-1069073 3930 L-1068297 3930 L-1068256 3930 L-1067888 3930 L-1067810 3930 L-1067758 3930 L-1067085 3930 L-1066342 3930 L-1065918 3930 L-1065470 3930 L-1064408 3930 L-1064096 3930 L-1063686 3930 L-1063614 3930 L-1063090 3930 L-1062995 3930 L-1062978 3930 L-1062533 3930 L-1062347 3930 L-1061567 3930 L-1060895 3930 L-1060483 3930 L-1060251 3930 L-1060110 3930 L-1060029 3930 L-1060009 3930 L-1059932 3930 L-1059804 3930 L-1059487 3930 L-1059263 3930 L-1058938 3930 L-1058876 3930 L-1058506 3930 L-1058473 3930 L-1058264 3930 L-1057597 3930 L-1057519 3930 L-1057361 3930 L-1057250 3930 L-1056924 3930 L-1056769 3930 L-1056428 3930 L-1056371 3930 L-1056033 3930 L-1055829 3930 L-1055776 3930 L-1054400 3930 L-1054270 3930 L-1053837 3930 L-1053516 3930 L-1052689 3929 L-1052565 3929 L-1051835 3929 L-1051679 3929 L-1051638 3929 L-1051584 3929 L-1051561 3929 L-1051447 3929 L-1051151 3929 L-1050861 3929 L-1050806 3929 L-1050686 3929 L-1050655 3929 L-1050556 3929 L-1050112 3929 L-1049960 3929 L-1049125 3929 L-1048583 3929 L-1048248 3929 L-1048233 3929 L-1048157 3929 L-1048041 3929 L-1047846 3929 L-1047582 3929 L-1046747 3929 L-1046651 3929 L-1046130 3929 L-1046088 3929 L-1045988 3929 L-1045160 3929 L-1045025 3929 L-1044686 3929 L-1044132 3929 L-1043753 3929 L-1043590 3929 L-1043280 3929 L-1042467 3929 L-1042161 3929 L-1041893 3929 L-1041571 3929 L-1041250 3929 L-1040975 3929 L-1040146 3929 L-1040051 3929 L-1039959 3929 L-1039854 3929 L-1039467 3929 L-1038987 3929 L-1038971 3929 L-1038852 3929 L-1038484 3929 L-1038389 3929 L-1037555 3929 L-1037478 3929 L-1037179 3928 L-1037088 3928 L-1036681 3928 L-1036571 3928 L-1035871 3928 L-1035398 3928 L-1035338 3928 L-1035119 3928 L-1034846 3928 L-1034733 3928 L-1033705 3928 L-1033319 3928 L-1033299 3928 L-1032966 3928 L-1032721 3928 L-1032288 3928 L-1032178 3928 L-1032060 3928 L-1031609 3928 L-1031018 3928 L-1030682 3928 L-1028789 3928 L-1028675 3928 L-1028463 3928 L-1027145 3928 L-1027038 3924 L-1026973 3920 L-1026936 3916 L-1026875 3916 L-1026375 3920 L-1025700 3924 L-1025678 3928 L-1025408 3928 L-1024439 3928 L-1023750 3928 L-1023588 3928 L-1023047 3928 L-1022958 3928 L-1021938 3928 L-1020991 3928 L-1020625 3928 L-1020522 3928 L-1019934 3928 L-1019875 3928 L-1019774 3928 L-1019334 3928 L-1019226 3928 L-1018785 3928 L-1017785 3928 L-1017528 3928 L-1017426 3927 L-1017295 3927 L-1016929 3927 L-1016348 3927 L-1016317 3927 L-1016002 3927 L-1014019 3927 L-1013903 3927 L-1013835 3927 L-1013476 3927 L-1011858 3927 L-1011680 3927 L-1011536 3927 L-1010714 3927 L-1010661 3927 L-1010606 3927 L-1010172 3927 L-1009192 3927 L-1009118 3927 L-1008033 3927 L-1007820 3927 L-1007104 3927 L-1006716 3927 L-1006497 3927 L-1006177 3927 L-1005683 3927 L-1005556 3927 L-1005327 3927 L-1005094 3927 L-1005035 3927 L-1004746 3927 L-1004474 3927 L-1003444 3927 L-1001779 3927 L-1001359 3927 L-1001222 3927 L-1001066 3927 L-1000761 3927 L-1000533 3927 L-1000374 3927 L-1000215 3927 L-1000046 3927 L-999998 3927 L-999945 3927 L-999923 3927 L-999537 3927 L-999288 3927 L-999017 3927 L-998856 3927 L-998767 3927 L-997108 3927 L-996943 3927 L-996563 3927 L-996103 3927 L-995493 3927 L-994400 3927 L-993969 3927 L-993938 3927 L-993875 3927 L-993858 3927 L-992154 3927 L-992112 3927 L-991646 3927 L-991459 3927 L-991427 3926 L-990831 3926 L-990782 3926 L-990459 3926 L-990408 3926 L-990198 3926 L-990180 3926 L-989914 3926 L-989861 3926 L-989392 3926 L-988881 3926 L-988803 3926 L-988509 3926 L-988492 3926 L-988454 3926 L-988382 3926 L-988225 3926 L-987279 3926 L-987223 3926 L-986702 3926 L-986509 3926 L-986408 3926 L-986183 3926 L-985673 3926 L-985285 3927 L-985215 3927 L-984867 3927 L-984510 3927 L-983381 3926 L-983329 3926 L-983103 3926 L-983070 3926 L-982945 3926 L-982846 3926 L-982581 3926 L-981841 3926 L-981262 3926 L-980969 3926 L-980263 3926 L-980084 3926 L-980061 3926 L-979425 3926 L-979114 3926 L-978717 3926 L-978688 3926 L-978667 3926 L-978513 3926 L-977828 3926 L-977811 3926 L-977472 3926 L-977199 3926 L-977162 3926 L-977106 3926 L-977084 3926 L-977012 3926 L-976680 3926 L-976574 3926 L-976545 3926 L-976347 3926 L-976194 3926 L-975326 3926 L-974763 3926 L-974747 3926 L-974646 3926 L-974544 3926 L-974397 3926 L-974319 3926 L-974281 3926 L-974226 3926 L-974152 3926 L-974008 3926 L-973526 3926 L-973121 3926 L-972255 3926 L-972235 3926 L-971977 3926 L-971901 3926 L-971872 3926 L-971861 3925 L-971844 3925 L-971551 3925 L-971512 3925 L-971440 3925 L-971366 3925 L-971161 3925 L-971001 3925 L-970700 3925 L-970623 3925 L-970605 3925 L-970389 3925 L-970158 3925 L-970048 3925 L-969678 3925 L-969520 3925 L-969288 3925 L-969120 3925 L-968975 3925 L-968843 3925 L-967567 3925 L-967163 3925 L-967103 3925 L-966986 3925 L-966561 3925 L-966545 3925 L-966483 3925 L-966210 3925 L-966098 3925 L-965815 3925 L-965538 3925 L-965113 3925 L-965091 3925 L-965012 3925 L-964887 3925 L-964300 3925 L-963909 3925 L-963574 3925 L-962984 3925 L-962882 3925 L-962712 3925 L-962576 3925 L-961748 3925 L-960563 3925 L-960526 3925 L-960471 3925 L-960250 3925 L-960045 3925 L-959891 3925 L-959634 3925 L-959558 3925 L-959015 3924 L-958978 3924 L-958730 3924 L-958342 3924 L-957517 3924 L-957158 3924 L-956848 3924 L-956590 3924 L-956366 3924 L-955960 3924 L-955843 3924 L-955660 3924 L-955607 3924 L-955418 3924 L-955248 3924 L-955219 3924 L-954939 3924 L-954628 3924 L-954490 3924 L-954180 3924 L-953986 3924 L-953971 3924 L-953252 3924 L-953118 3924 L-952820 3924 L-952730 3924 L-952129 3924 L-952091 3924 L-952013 3924 L-951392 3924 L-951241 3924 L-951200 3924 L-950889 3924 L-950698 3924 L-950505 3924 L-950449 3924 L-950140 3924 L-950088 3924 L-950034 3924 L-950008 3924 L-949883 3924 L-949072 3924 L-948996 3924 L-948455 3924 L-948186 3924 L-947527 3924 L-946619 3924 L-946378 3924 L-945846 3924 L-945629 3924 L-944521 3924 L-944471 3924 L-943695 3924 L-943148 3924 L-943036 3924 L-942884 3924 L-942828 3924 L-942663 3924 L-942286 3924 L-941838 3924 L-941783 3924 L-941629 3924 L-940949 3924 L-940729 3924 L-940211 3923 L-939362 3923 L-939346 3923 L-937555 3923 L-937001 3923 L-936884 3923 L-935878 3923 L-935841 3923 L-935608 3923 L-935516 3923 L-935476 3923 L-935144 3923 L-934792 3923 L-934527 3923 L-934240 3923 L-933929 3923 L-933675 3923 L-933582 3923 L-933091 3923 L-932884 3923 L-932319 3923 L-932204 3923 L-931853 3923 L-931802 3923 L-931761 3923 L-931158 3923 L-930424 3923 L-929843 3923 L-929607 3923 L-929067 3923 L-928915 3923 L-928413 3923 L-928203 3923 L-928180 3923 L-928121 3923 L-927159 3923 L-926981 3923 L-926539 3923 L-926515 3923 L-926360 3923 L-926278 3923 L-926128 3923 L-925481 3923 L-925431 3923 L-924312 3923 L-923327 3923 L-923266 3923 L-922545 3923 L-921680 3923 L-921302 3923 L-921083 3923 L-920323 3923 L-920271 3923 L-919962 3923 L-919111 3923 L-918917 3923 L-918741 3923 L-918516 3923 L-918390 3922 L-918198 3922 L-917965 3922 L-917796 3922 L-917509 3922 L-917230 3922 L-917147 3922 L-916976 3922 L-916960 3922 L-916806 3922 L-916766 3922 L-915991 3922 L-915914 3922 L-915682 3922 L-915255 3922 L-914910 3922 L-914327 3922 L-914058 3922 L-913799 3922 L-913670 3922 L-913653 3922 L-913540 3922 L-913516 3922 L-913282 3922 L-913246 3922 L-911930 3922 L-911874 3922 L-911195 3922 L-910622 3922 L-910497 3922 L-910344 3922 L-910267 3922 L-909955 3922 L-909682 3922 L-909593 3922 L-909491 3922 L-908563 3922 L-908487 3922 L-908123 3922 L-908098 3922 L-908062 3922 L-907286 3922 L-907194 3922 L-907054 3922 L-906653 3922 L-906391 3922 L-906148 3922 L-905933 3922 L-905853 3922 L-905777 3922 L-905700 3922 L-905513 3922 L-905447 3922 L-905197 3922 L-905142 3922 L-905005 3922 L-904925 3922 L-904812 3922 L-904589 3922 L-904424 3922 L-904383 3922 L-904214 3922 L-903843 3922 L-903828 3922 L-903712 3922 L-902991 3922 L-902955 3922 L-902822 3922 L-902474 3922 L-902063 3922 L-902027 3922 L-901949 3922 L-901910 3922 L-901546 3922 L-901341 3922 L-901326 3922 L-900981 3921 L-900633 3921 L-900307 3921 L-900205 3921 L-900052 3921 L-899858 3921 L-899626 3921 L-899534 3921 L-899378 3921 L-899301 3921 L-899260 3921 L-899147 3921 L-899123 3921 L-898873 3921 L-898734 3921 L-898156 3921 L-897328 3921 L-896840 3921 L-896719 3921 L-896680 3921 L-896667 3921 L-896515 3921 L-896414 3921 L-896181 3921 L-895791 3921 L-895487 3921 L-895471 3921 L-895300 3921 L-895062 3921 L-894465 3921 L-893862 3921 L-893822 3921 L-893781 3921 L-893628 3921 L-893575 3921 L-893513 3921 L-893444 3921 L-893390 3921 L-893365 3921 L-893318 3921 L-893223 3921 L-893086 3921 L-892933 3921 L-892801 3921 L-892760 3921 L-892724 3921 L-892662 3921 L-892389 3921 L-892075 3921 L-892034 3921 L-891949 3921 L-891771 3921 L-891534 3921 L-891176 3921 L-891146 3920 L-890577 3920 L-890454 3920 L-890218 3920 L-890196 3920 L-889914 3920 L-889629 3920 L-889373 3920 L-888801 3920 L-888505 3920 L-888429 3920 L-887730 3920 L-887652 3920 L-887617 3920 L-887591 3920 L-887539 3920 L-887345 3920 L-887205 3920 L-887169 3920 L-887129 3920 L-886533 3920 L-886301 3920 L-886018 3920 L-885963 3920 L-885889 3920 L-885811 3921 L-885575 3921 L-885331 3921 L-885196 3921 L-885089 3921 L-885009 3920 L-884622 3920 L-884495 3920 L-884343 3920 L-884305 3920 L-884159 3920 L-883938 3920 L-883764 3920 L-883695 3920 L-882873 3920 L-882857 3920 L-882562 3920 L-881775 3920 L-881465 3920 L-881319 3920 L-881091 3920 L-880890 3920 L-879953 3920 L-879916 3920 L-879893 3920 L-879853 3920 L-879584 3920 L-878987 3920 L-878924 3920 L-878888 3920 L-878871 3920 L-878176 3920 L-877975 3920 L-877943 3920 L-877610 3920 L-877502 3920 L-876877 3920 L-876373 3920 L-876336 3920 L-875894 3920 L-875797 3920 L-875639 3920 L-875325 3920 L-875313 3920 L-874873 3920 L-874391 3920 L-874262 3920 L-873942 3920 L-873874 3920 L-873569 3920 L-873394 3920 L-873200 3920 L-872957 3920 L-872759 3920 L-872734 3920 L-872156 3920 L-872086 3920 L-871676 3920 L-871622 3920 L-871576 3920 L-871212 3920 L-871065 3920 L-870860 3920 L-870764 3920 L-870609 3920 L-870547 3920 L-870399 3920 L-870299 3920 L-869742 3920 L-869720 3920 L-869548 3920 L-869006 3920 L-868945 3920 L-868891 3920 L-868862 3920 L-868791 3920 L-868775 3919 L-868711 3919 L-868675 3919 L-868520 3919 L-868194 3919 L-867628 3919 L-867614 3919 L-867552 3919 L-867450 3919 L-867404 3919 L-867162 3919 L-866739 3919 L-866585 3919 L-864843 3919 L-864301 3919 L-863358 3919 L-862949 3919 L-862408 3919 L-862211 3919 L-862043 3919 L-861747 3919 L-861632 3919 L-861617 3919 L-861462 3919 L-861322 3919 L-861246 3919 L-861114 3919 L-860766 3919 L-860395 3919 L-859797 3919 L-859621 3919 L-859465 3919 L-859196 3919 L-859045 3919 L-858754 3919 L-858730 3919 L-858647 3919 L-858419 3919 L-857720 3919 L-857593 3919 L-857162 3919 L-857068 3919 L-855863 3919 L-855814 3919 L-855520 3919 L-855117 3919 L-854841 3919 L-854822 3919 L-854704 3919 L-854628 3919 L-854446 3919 L-853966 3919 L-853515 3919 L-853105 3919 L-853074 3919 L-852656 3919 L-852542 3919 L-852424 3919 L-852409 3919 L-852214 3919 L-852193 3919 L-851961 3919 L-851517 3919 L-851198 3919 L-850733 3919 L-850568 3919 L-850413 3919 L-850257 3919 L-849804 3919 L-849485 3919 L-849430 3919 L-849059 3919 L-849021 3919 L-848694 3919 L-848578 3919 L-848479 3919 L-848153 3919 L-847766 3919 L-847505 3919 L-847147 3919 L-846890 3919 L-844720 3919 L-844671 3918 L-844648 3918 L-844237 3918 L-844175 3918 L-844105 3918 L-843874 3918 L-843563 3918 L-843260 3918 L-843216 3918 L-842908 3918 L-842775 3918 L-842558 3918 L-841846 3918 L-841691 3918 L-841553 3918 L-841404 3918 L-841383 3918 L-841189 3918 L-841163 3918 L-841072 3918 L-841050 3918 L-841034 3918 L-840934 3918 L-840005 3918 L-839547 3918 L-838455 3918 L-838033 3918 L-837629 3918 L-837590 3918 L-837337 3918 L-836562 3918 L-836546 3918 L-836521 3918 L-836328 3918 L-835592 3918 L-835323 3918 L-835282 3918 L-834883 3918 L-834858 3918 L-834069 3918 L-833389 3918 L-832018 3918 L-831748 3918 L-831699 3918 L-831162 3918 L-831129 3918 L-831027 3918 L-830704 3918 L-830624 3918 L-830355 3918 L-829442 3918 L-829304 3918 L-829055 3918 L-828509 3918 L-828087 3918 L-827894 3918 L-827879 3918 L-827741 3918 L-827647 3918 L-827520 3918 L-827260 3918 L-827235 3917 L-827144 3917 L-826834 3917 L-826773 3917 L-826656 3917 L-826307 3917 L-825496 3917 L-825265 3917 L-824436 3917 L-824204 3917 L-823987 3917 L-823468 3917 L-822830 3917 L-822414 3917 L-822092 3917 L-821611 3917 L-821185 3917 L-821124 3917 L-820776 3917 L-820735 3917 L-820721 3917 L-820622 3917 L-820576 3917 L-820091 3917 L-819290 3917 L-818955 3917 L-817874 3917 L-817394 3917 L-817371 3917 L-817231 3917 L-816676 3917 L-815979 3917 L-815670 3917 L-815448 3917 L-815343 3917 L-815241 3917 L-814569 3917 L-814475 3917 L-814453 3917 L-814376 3917 L-814198 3917 L-814026 3917 L-813845 3917 L-813832 3917 L-813756 3917 L-813591 3917 L-813077 3917 L-813061 3917 L-812920 3917 L-812558 3917 L-812533 3917 L-812403 3917 L-812378 3917 L-812016 3917 L-811491 3917 L-811397 3917 L-811181 3917 L-811088 3917 L-811063 3917 L-810599 3917 L-810522 3917 L-810120 3917 L-809669 3917 L-808418 3917 L-808379 3917 L-807947 3917 L-807915 3916 L-807195 3916 L-807019 3916 L-806884 3916 L-806577 3916 L-806522 3916 L-806497 3916 L-806481 3916 L-806306 3916 L-806117 3916 L-805609 3916 L-805235 3916 L-804897 3916 L-804858 3916 L-804139 3916 L-804046 3916 L-804007 3916 L-803466 3916 L-803442 3916 L-803040 3916 L-802614 3916 L-802343 3916 L-802164 3916 L-801918 3916 L-801894 3916 L-801838 3916 L-801221 3916 L-800718 3915 L-800331 3915 L-799712 3916 L-799496 3916 L-799341 3916 L-798049 3915 L-797949 3915 L-797507 3915 L-797176 3915 L-796875 3915 L-796633 3915 L-795898 3915 L-795319 3915 L-794489 3915 L-794389 3915 L-793831 3915 L-793693 3915 L-792052 3915 L-791991 3915 L-791897 3915 L-790930 3915 L-790752 3915 L-790465 3915 L-790248 3915 L-790169 3915 L-789898 3915 L-789783 3915 L-789630 3915 L-789319 3915 L-789241 3915 L-789150 3915 L-789073 3915 L-788956 3915 L-788777 3915 L-788685 3915 L-788647 3915 L-788144 3915 L-787926 3915 L-787796 3915 L-787641 3915 L-787586 3915 L-787462 3915 L-787077 3915 L-786568 3915 L-786496 3915 L-786016 3915 L-785939 3915 L-785838 3915 L-785605 3915 L-785140 3915 L-784910 3915 L-784894 3915 L-784662 3915 L-784507 3915 L-784446 3915 L-784253 3915 L-783982 3915 L-783230 3915 L-782277 3915 L-782241 3915 L-782016 3915 L-781576 3915 L-781296 3915 L-780947 3915 L-779878 3915 L-778950 3915 L-778819 3915 L-778773 3915 L-778703 3915 L-778549 3915 L-778471 3915 L-778298 3915 L-777863 3915 L-777659 3915 L-777598 3915 L-777016 3915 L-776862 3914 L-776746 3914 L-776706 3914 L-776536 3914 L-776399 3914 L-776189 3914 L-776111 3914 L-776088 3914 L-775879 3914 L-775469 3914 L-775445 3914 L-775221 3914 L-775076 3914 L-775041 3914 L-775028 3914 L-775005 3914 L-774772 3914 L-774587 3914 L-774369 3914 L-774344 3914 L-773655 3914 L-773551 3914 L-773516 3914 L-773495 3914 L-773301 3914 L-773248 3914 L-773131 3914 L-773049 3914 L-772938 3914 L-772624 3914 L-772164 3914 L-771909 3914 L-771675 3914 L-771545 3914 L-771193 3914 L-771134 3914 L-770981 3914 L-770409 3914 L-770322 3914 L-770169 3914 L-769873 3914 L-769503 3914 L-769200 3914 L-769123 3914 L-768719 3914 L-768551 3914 L-768406 3914 L-767866 3914 L-767806 3914 L-767790 3914 L-767624 3914 L-767418 3913 L-767343 3913 L-767250 3913 L-766841 3913 L-766825 3913 L-766801 3913 L-766608 3913 L-766532 3914 L-766361 3914 L-766299 3914 L-766283 3914 L-765769 3914 L-765548 3914 L-764929 3914 L-764675 3914 L-764481 3914 L-764442 3914 L-764368 3914 L-764303 3914 L-763653 3914 L-763614 3914 L-763440 3914 L-763374 3914 L-762700 3914 L-762311 3914 L-762049 3914 L-761811 3914 L-761734 3914 L-761718 3914 L-761516 3914 L-761145 3914 L-760920 3914 L-760284 3914 L-760264 3914 L-759877 3914 L-759783 3914 L-759725 3914 L-759449 3914 L-759140 3914 L-759063 3914 L-758211 3914 L-757869 3914 L-757432 3914 L-756998 3914 L-756503 3914 L-756353 3914 L-756085 3914 L-754847 3914 L-754790 3914 L-753026 3914 L-752836 3914 L-751826 3914 L-751675 3914 L-751299 3914 L-750978 3914 L-750373 3914 L-750303 3914 L-750126 3914 L-749298 3914 L-749159 3914 L-748772 3914 L-748588 3914 L-748544 3914 L-748424 3914 L-748214 3914 L-747767 3914 L-747419 3914 L-747287 3914 L-746878 3914 L-746527 3914 L-746242 3914 L-746049 3914 L-745894 3914 L-745730 3914 L-745662 3914 L-745562 3914 L-745329 3914 L-745212 3914 L-745159 3914 L-744617 3914 L-744153 3914 L-742971 3914 L-742837 3914 L-742813 3914 L-742760 3914 L-742092 3914 L-741058 3914 L-740864 3914 L-740684 3914 L-740533 3914 L-740492 3914 L-740477 3914 L-740415 3914 L-740090 3914 L-738930 3914 L-738736 3914 L-738559 3914 L-737445 3914 L-736585 3914 L-736479 3914 L-736005 3914 L-735813 3914 L-733491 3914 L-733413 3914 L-733292 3914 L-733258 3914 L-733220 3913 L-733126 3913 L-732910 3913 L-732329 3913 L-731943 3913 L-731170 3913 L-731092 3913 L-730395 3913 L-729853 3913 L-729812 3913 L-729682 3913 L-729218 3913 L-729180 3913 L-729045 3913 L-728677 3913 L-728647 3913 L-728497 3913 L-728096 3913 L-726272 3913 L-725465 3913 L-724747 3913 L-724730 3913 L-724416 3913 L-723855 3913 L-723353 3913 L-722834 3913 L-722813 3913 L-721069 3913 L-720900 3913 L-720704 3913 L-719811 3913 L-719292 3913 L-719081 3913 L-718824 3913 L-718114 3913 L-717164 3913 L-716506 3913 L-716466 3913 L-716180 3913 L-716097 3913 L-716002 3913 L-715870 3913 L-715793 3913 L-715058 3913 L-714720 3913 L-714671 3913 L-714416 3913 L-714129 3913 L-713703 3913 L-713123 3913 L-712864 3913 L-712713 3913 L-712465 3913 L-712427 3913 L-711630 3913 L-711592 3913 L-711415 3913 L-711006 3913 L-710777 3913 L-710701 3913 L-710570 3913 L-710454 3913 L-710105 3913 L-710042 3913 L-709890 3913 L-709149 3913 L-709037 3913 L-708867 3913 L-708828 3913 L-708534 3913 L-708132 3913 L-707956 3913 L-707861 3913 L-707552 3912 L-706750 3912 L-706292 3912 L-705772 3912 L-705283 3912 L-704588 3912 L-703541 3912 L-703273 3912 L-703218 3912 L-703058 3912 L-702806 3912 L-702560 3912 L-702482 3912 L-702267 3912 L-701955 3912 L-701492 3912 L-701477 3912 L-701181 3912 L-701168 3912 L-700177 3912 L-699504 3912 L-699169 3912 L-698553 3912 L-698416 3912 L-697777 3912 L-697647 3912 L-696696 3912 L-696597 3912 L-696037 3912 L-695629 3912 L-695200 3912 L-695109 3912 L-694274 3912 L-693911 3912 L-693871 3912 L-693739 3912 L-693562 3912 L-693346 3912 L-693292 3912 L-693135 3912 L-692882 3912 L-691782 3912 L-691705 3912 L-691485 3912 L-691354 3912 L-691318 3912 L-691124 3912 L-691025 3912 L-690541 3912 L-690257 3912 L-690097 3912 L-690002 3912 L-689730 3912 L-689461 3912 L-689445 3912 L-689306 3912 L-689168 3911 L-688841 3911 L-688532 3911 L-688491 3911 L-688415 3911 L-688300 3911 L-687450 3911 L-687123 3911 L-686792 3911 L-686659 3911 L-686443 3911 L-686427 3911 L-685746 3911 L-685653 3911 L-685630 3911 L-685614 3911 L-685575 3911 L-685164 3911 L-684894 3911 L-684854 3911 L-684486 3911 L-684276 3911 L-683193 3911 L-683177 3911 L-683148 3911 L-683128 3911 L-682751 3911 L-682496 3911 L-682248 3911 L-682109 3911 L-681977 3911 L-681645 3911 L-681552 3911 L-681491 3911 L-680933 3911 L-680872 3911 L-680716 3911 L-680522 3911 L-680329 3911 L-680314 3911 L-680275 3911 L-680236 3911 L-679965 3911 L-679842 3911 L-679810 3911 L-679710 3911 L-679555 3911 L-679414 3911 L-679129 3911 L-678804 3911 L-678108 3911 L-678085 3911 L-677576 3911 L-676730 3911 L-676367 3911 L-676212 3911 L-675609 3911 L-675439 3911 L-675378 3911 L-675323 3910 L-674267 3910 L-674249 3910 L-673343 3910 L-673321 3910 L-673154 3910 L-672912 3910 L-672862 3910 L-672807 3910 L-672670 3910 L-672630 3910 L-671702 3910 L-671647 3910 L-671525 3910 L-671453 3910 L-671337 3910 L-671159 3910 L-670176 3910 L-670037 3910 L-669919 3910 L-669625 3910 L-669378 3910 L-669341 3910 L-669286 3910 L-669265 3910 L-669132 3910 L-669053 3910 L-668915 3910 L-668292 3910 L-668126 3910 L-667661 3910 L-667485 3910 L-667468 3910 L-667408 3910 L-667292 3910 L-666809 3910 L-666113 3910 L-665740 3910 L-665571 3910 L-664605 3910 L-664450 3910 L-664272 3910 L-664180 3910 L-663925 3910 L-663754 3910 L-663107 3910 L-663096 3910 L-662516 3910 L-662378 3910 L-662323 3910 L-661587 3910 L-661549 3910 L-661471 3910 L-660829 3910 L-660055 3910 L-659962 3910 L-659914 3910 L-659898 3910 L-659862 3910 L-659846 3910 L-659783 3910 L-659767 3910 L-659747 3910 L-659592 3910 L-659553 3910 L-659537 3910 L-659498 3910 L-659358 3910 L-659282 3910 L-658918 3910 L-658570 3910 L-657796 3910 L-657193 3910 L-656997 3910 L-656767 3910 L-656629 3910 L-655991 3910 L-655702 3910 L-655680 3910 L-655220 3910 L-654987 3910 L-654932 3910 L-654894 3909 L-654391 3909 L-653841 3909 L-653053 3909 L-651930 3909 L-651035 3909 L-650948 3909 L-650648 3909 L-650576 3909 L-650460 3909 L-649284 3909 L-648936 3909 L-648913 3909 L-648394 3909 L-648247 3909 L-648139 3909 L-647930 3909 L-647775 3909 L-647752 3909 L-647558 3909 L-647482 3909 L-647338 3909 L-646537 3909 L-646391 3909 L-646111 3909 L-645934 3909 L-645624 3909 L-644812 3909 L-643884 3909 L-642292 3909 L-642049 3909 L-641408 3909 L-641212 3909 L-641135 3909 L-640617 3909 L-640385 3909 L-640362 3909 L-640230 3909 L-639891 3909 L-639880 3909 L-639664 3909 L-639627 3909 L-639085 3909 L-638556 3909 L-638489 3909 L-638195 3909 L-637648 3909 L-637612 3909 L-637560 3909 L-637460 3909 L-637228 3909 L-636648 3909 L-636550 3909 L-636476 3909 L-636144 3909 L-635394 3909 L-635355 3909 L-634675 3909 L-634521 3909 L-634194 3909 L-633978 3909 L-633747 3909 L-633450 3909 L-633204 3909 L-632853 3909 L-632800 3909 L-632041 3908 L-631347 3908 L-630997 3908 L-630533 3908 L-629900 3908 L-629491 3908 L-629413 3908 L-628987 3908 L-628344 3908 L-628175 3908 L-627433 3908 L-627246 3908 L-626951 3908 L-626379 3908 L-626353 3908 L-625334 3908 L-624847 3908 L-624754 3908 L-624693 3908 L-624405 3908 L-624119 3908 L-624057 3908 L-623878 3908 L-623166 3908 L-622991 3908 L-622792 3908 L-622640 3908 L-622549 3908 L-622487 3908 L-621945 3908 L-621635 3908 L-621543 3908 L-621465 3908 L-620898 3908 L-620807 3908 L-620553 3908 L-620226 3908 L-620189 3908 L-620034 3908 L-619802 3908 L-619480 3908 L-618347 3908 L-618148 3908 L-617622 3908 L-617378 3908 L-617132 3908 L-617052 3908 L-617032 3908 L-616955 3908 L-616900 3908 L-616823 3908 L-616784 3908 L-616605 3907 L-616568 3907 L-616336 3907 L-615098 3907 L-614772 3907 L-614732 3907 L-613950 3907 L-613804 3907 L-612812 3907 L-612605 3907 L-612180 3907 L-612052 3907 L-611648 3907 L-611560 3907 L-610903 3907 L-610196 3907 L-609587 3907 L-609394 3907 L-609161 3907 L-608543 3907 L-608247 3907 L-607807 3907 L-607653 3907 L-607498 3907 L-606742 3907 L-606391 3907 L-605989 3907 L-605951 3907 L-604945 3907 L-604625 3907 L-604378 3907 L-603678 3907 L-603605 3907 L-603292 3907 L-602212 3907 L-602021 3907 L-601787 3907 L-601592 3907 L-601092 3907 L-600338 3907 L-600224 3907 L-600024 3907 L-599983 3907 L-599890 3907 L-599577 3907 L-599489 3907 L-599373 3907 L-599055 3907 L-598986 3907 L-598961 3907 L-598599 3907 L-598561 3907 L-598344 3907 L-597841 3907 L-597238 3907 L-597027 3907 L-596874 3907 L-596836 3907 L-596792 3907 L-596758 3907 L-596625 3907 L-596215 3907 L-595845 3907 L-595791 3907 L-595775 3907 L-595696 3907 L-595286 3907 L-595133 3907 L-595117 3907 L-595078 3907 L-594899 3907 L-594823 3906 L-594592 3906 L-593802 3906 L-593724 3906 L-592989 3906 L-592834 3906 L-592594 3906 L-592532 3906 L-592447 3906 L-592424 3906 L-592306 3906 L-592292 3906 L-592230 3906 L-592193 3906 L-592099 3906 L-592076 3906 L-591960 3906 L-591727 3906 L-591557 3906 L-590737 3906 L-590336 3906 L-590181 3906 L-589676 3906 L-589562 3906 L-588966 3906 L-588591 3906 L-588539 3906 L-588346 3906 L-587649 3906 L-587611 3906 L-587466 3906 L-587241 3906 L-586979 3906 L-586605 3906 L-586179 3906 L-586050 3906 L-586030 3906 L-585537 3906 L-584840 3906 L-584609 3906 L-584455 3906 L-583487 3906 L-583262 3906 L-582984 3906 L-582968 3906 L-582442 3906 L-581913 3906 L-581765 3906 L-581746 3906 L-581204 3906 L-580894 3906 L-580777 3906 L-580585 3906 L-580448 3906 L-580121 3906 L-580005 3906 L-579695 3906 L-579269 3906 L-579213 3906 L-578980 3906 L-578884 3906 L-578751 3906 L-578455 3906 L-578340 3906 L-577976 3906 L-577663 3906 L-577180 3906 L-577010 3906 L-576762 3906 L-576546 3906 L-576020 3905 L-575834 3905 L-575478 3905 L-574843 3905 L-574688 3905 L-573948 3905 L-573528 3905 L-573348 3905 L-573272 3905 L-573141 3905 L-572847 3905 L-572806 3905 L-572576 3905 L-572384 3905 L-572128 3905 L-571702 3905 L-571593 3905 L-570974 3905 L-570793 3905 L-569581 3905 L-568934 3905 L-568783 3905 L-568746 3905 L-568614 3905 L-568513 3905 L-568497 3905 L-568415 3905 L-568204 3905 L-568087 3905 L-567724 3905 L-567353 3905 L-566656 3905 L-566254 3905 L-566149 3905 L-566131 3905 L-565186 3905 L-564991 3905 L-564839 3905 L-564783 3905 L-564027 3905 L-564010 3905 L-563521 3905 L-563391 3905 L-563198 3905 L-562308 3905 L-562268 3905 L-562230 3905 L-562153 3905 L-562114 3905 L-562037 3905 L-561953 3905 L-561689 3905 L-561457 3905 L-561394 3905 L-560914 3905 L-560577 3905 L-560466 3905 L-560273 3905 L-560096 3905 L-560037 3905 L-560001 3905 L-559731 3905 L-559033 3905 L-558980 3905 L-558686 3905 L-558284 3905 L-557720 3905 L-556847 3905 L-556542 3905 L-556504 3905 L-556381 3905 L-555783 3905 L-555653 3904 L-555453 3904 L-555416 3904 L-554802 3904 L-554623 3904 L-554608 3904 L-554390 3904 L-554312 3904 L-554005 3904 L-553873 3904 L-553641 3904 L-553307 3904 L-553215 3904 L-553114 3904 L-553077 3904 L-552534 3904 L-552341 3904 L-551800 3904 L-551374 3904 L-551242 3904 L-551181 3904 L-550949 3904 L-550933 3904 L-550445 3904 L-550364 3904 L-550346 3904 L-548954 3904 L-548818 3904 L-548704 3904 L-548070 3904 L-547930 3904 L-547812 3904 L-547658 3904 L-547622 3904 L-547543 3904 L-547489 3904 L-546497 3904 L-546461 3904 L-546328 3904 L-546267 3904 L-546168 3904 L-545878 3904 L-545864 3904 L-545554 3904 L-545454 3904 L-544989 3904 L-544936 3906 L-544793 3908 L-544665 3910 L-544433 3912 L-543864 3912 L-543775 3912 L-543753 3912 L-543466 3912 L-542783 3912 L-542706 3911 L-542669 3911 L-542653 3911 L-542453 3911 L-542033 3911 L-541762 3911 L-540889 3911 L-540596 3911 L-540485 3911 L-539751 3911 L-539624 3911 L-539264 3911 L-539012 3911 L-538141 3911 L-537971 3911 L-537910 3911 L-537855 3911 L-537507 3911 L-537484 3911 L-537275 3911 L-537135 3911 L-537004 3911 L-536881 3911 L-536758 3911 L-536521 3911 L-536230 3911 L-535571 3911 L-535549 3911 L-535395 3911 L-535277 3911 L-534313 3911 L-534257 3911 L-534024 3911 L-534002 3911 L-533676 3911 L-533561 3911 L-533521 3911 L-533019 3911 L-532720 3911 L-532608 3911 L-532066 3911 L-531007 3911 L-530381 3911 L-530209 3911 L-529962 3911 L-529705 3911 L-529574 3911 L-529553 3911 L-528885 3911 L-527989 3911 L-527943 3911 L-527873 3911 L-527757 3911 L-527537 3911 L-527346 3911 L-527306 3911 L-527114 3911 L-526455 3911 L-525838 3911 L-525799 3911 L-525203 3911 L-525141 3911 L-524019 3911 L-523965 3911 L-523844 3911 L-523578 3911 L-523514 3911 L-523245 3911 L-523169 3911 L-522953 3911 L-522470 3911 L-522201 3911 L-522069 3911 L-521837 3911 L-521812 3911 L-521797 3911 L-521775 3911 L-521759 3911 L-521735 3910 L-521721 3910 L-521697 3910 L-521682 3910 L-521659 3910 L-521644 3910 L-521622 3910 L-521605 3910 L-521577 3910 L-521559 3910 L-521542 3910 L-521505 3910 L-521465 3910 L-521450 3910 L-521425 3910 L-521373 3909 L-521348 3909 L-521272 3909 L-521234 3909 L-521218 3909 L-521155 3909 L-521141 3909 L-521095 3909 L-521024 3909 L-520986 3909 L-520961 3909 L-520909 3909 L-520884 3909 L-520868 3909 L-520807 3909 L-520769 3909 L-520693 3909 L-520677 3909 L-520649 3909 L-520576 3909 L-520537 3909 L-520383 3909 L-520267 3909 L-520212 3909 L-520130 3909 L-520097 3909 L-520073 3909 L-519918 3909 L-519903 3909 L-519801 3909 L-519491 3909 L-519455 3909 L-519239 3909 L-519128 3909 L-519104 3909 L-518874 3909 L-518641 3909 L-518266 3909 L-518139 3909 L-518099 3909 L-518046 3909 L-517945 3909 L-517908 3909 L-517698 3909 L-517633 3909 L-517521 3909 L-517309 3909 L-517272 3909 L-516900 3909 L-516846 3909 L-516768 3908 L-516746 3908 L-516653 3908 L-516453 3908 L-516415 3908 L-516394 3908 L-516164 3908 L-516143 3908 L-515933 3908 L-515839 3908 L-515801 3908 L-515465 3908 L-515352 3908 L-515312 3908 L-515299 3908 L-515159 3908 L-515144 3908 L-514889 3908 L-514307 3908 L-514230 3908 L-514193 3908 L-514148 3908 L-514099 3908 L-513920 3908 L-513905 3908 L-513805 3908 L-513728 3908 L-513667 3908 L-513302 3908 L-513219 3908 L-513202 3908 L-513148 3908 L-512180 3908 L-512048 3908 L-512027 3908 L-511806 3908 L-511738 3908 L-511715 3908 L-511469 3908 L-511212 3908 L-511081 3908 L-511042 3908 L-511021 3908 L-510965 3908 L-510877 3908 L-510816 3908 L-510591 3908 L-510462 3908 L-510362 3908 L-510307 3908 L-510114 3908 L-510036 3908 L-509703 3908 L-509572 3908 L-509395 3908 L-509379 3908 L-509354 3908 L-509084 3908 L-507884 3908 L-507847 3908 L-507730 3907 L-507497 3907 L-507306 3907 L-507267 3907 L-507212 3907 L-507107 3907 L-506593 3907 L-506299 3907 L-506067 3907 L-505792 3907 L-505775 3907 L-505742 3907 L-505702 3907 L-505665 3907 L-505563 3907 L-505486 3907 L-505393 3907 L-505266 3907 L-505162 3907 L-504984 3907 L-504791 3907 L-503962 3907 L-503846 3907 L-503592 3907 L-503551 3907 L-503452 3907 L-503392 3907 L-503150 3907 L-503126 3907 L-503005 3907 L-502933 3907 L-502894 3907 L-502662 3907 L-502486 3907 L-501966 3907 L-501889 3907 L-501873 3907 L-501462 3907 L-501099 3907 L-500983 3907 L-500960 3907 L-500920 3907 L-500844 3907 L-500790 3907 L-500441 3907 L-500325 3907 L-500148 3907 L-500093 3907 L-500069 3907 L-499955 3907 L-499667 3907 L-499435 3907 L-499220 3907 L-499010 3907 L-498800 3907 L-497973 3907 L-497634 3907 L-496626 3907 L-496263 3907 L-495218 3907 L-495140 3907 L-494693 3907 L-494482 3907 L-494290 3907 L-493995 3907 L-493954 3907 L-493801 3906 L-493748 3906 L-493516 3906 L-492936 3906 L-492742 3906 L-492123 3906 L-491633 3906 L-491582 3906 L-490933 3906 L-490783 3906 L-490614 3906 L-490240 3906 L-490225 3906 L-490126 3906 L-490087 3906 L-489956 3906 L-489523 3906 L-489220 3906 L-488834 3906 L-488694 3906 L-488533 3906 L-488099 3906 L-488060 3906 L-487959 3906 L-487844 3906 L-487666 3906 L-487496 3906 L-487378 3906 L-487016 3906 L-486799 3906 L-486666 3906 L-486526 3906 L-486027 3906 L-485949 3906 L-485715 3906 L-485391 3906 L-485004 3906 L-484981 3906 L-484361 3906 L-484091 3906 L-483858 3906 L-483433 3906 L-483162 3906 L-483020 3906 L-482811 3906 L-482605 3906 L-482054 3906 L-481923 3906 L-481537 3906 L-481266 3906 L-481163 3906 L-480903 3906 L-480701 3906 L-480632 3906 L-480593 3906 L-480026 3906 L-479819 3906 L-479792 3906 L-479563 3906 L-479486 3906 L-478968 3906 L-478930 3906 L-478775 3906 L-478481 3906 L-478209 3906 L-477846 3906 L-477498 3906 L-477125 3906 L-477005 3906 L-476933 3906 L-476454 3906 L-476391 3906 L-476056 3906 L-475925 3906 L-475847 3905 L-475718 3905 L-475254 3905 L-474960 3905 L-474884 3905 L-474572 3905 L-474264 3905 L-474201 3905 L-474171 3905 L-473396 3905 L-473291 3905 L-473204 3905 L-473180 3905 L-473026 3905 L-472805 3905 L-472638 3905 L-472251 3905 L-472196 3905 L-472133 3905 L-471515 3905 L-471399 3905 L-471075 3905 L-470550 3905 L-470199 3905 L-470123 3905 L-469504 3905 L-469093 3905 L-468792 3905 L-468481 3905 L-468343 3905 L-467719 3905 L-467338 3905 L-466214 3905 L-465154 3905 L-465091 3905 L-464730 3905 L-464629 3905 L-464613 3905 L-464239 3905 L-463234 3905 L-462847 3905 L-462640 3905 L-462551 3905 L-462176 3905 L-461883 3905 L-461572 3905 L-460783 3905 L-460695 3905 L-460643 3905 L-460604 3905 L-460086 3905 L-459971 3905 L-459762 3905 L-459623 3905 L-459019 3905 L-458190 3905 L-457907 3905 L-457725 3905 L-457223 3905 L-457019 3905 L-456464 3905 L-455959 3905 L-455768 3905 L-455729 3904 L-455101 3904 L-454647 3904 L-454233 3904 L-453624 3904 L-452504 3904 L-452091 3904 L-451766 3904 L-451552 3904 L-451125 3904 L-450985 3904 L-450893 3904 L-450662 3904 L-450075 3904 L-449268 3904 L-448068 3904 L-447954 3904 L-447822 3904 L-447734 3904 L-447693 3904 L-447672 3904 L-447661 3904 L-447567 3904 L-446803 3904 L-446097 3904 L-446057 3904 L-445771 3904 L-445230 3904 L-445169 3904 L-445129 3904 L-445114 3904 L-444857 3904 L-444534 3904 L-444394 3904 L-444123 3904 L-444085 3904 L-443977 3904 L-443575 3904 L-443466 3904 L-443388 3904 L-443091 3904 L-443049 3904 L-442830 3904 L-442647 3904 L-442536 3904 L-442522 3904 L-442496 3904 L-442072 3904 L-441825 3904 L-441489 3904 L-441455 3904 L-441320 3904 L-441066 3904 L-440912 3904 L-440006 3904 L-439907 3904 L-439711 3904 L-438704 3904 L-438204 3904 L-438125 3904 L-438087 3904 L-437879 3904 L-437760 3904 L-437662 3904 L-437476 3904 L-437311 3904 L-437075 3904 L-436655 3904 L-436640 3904 L-436331 3904 L-435285 3904 L-435068 3904 L-435052 3904 L-435030 3904 L-434822 3904 L-434663 3904 L-434604 3904 L-433159 3904 L-432833 3904 L-432631 3904 L-432432 3904 L-432282 3904 L-432012 3903 L-431571 3903 L-431353 3903 L-430658 3903 L-430156 3903 L-429831 3903 L-429560 3903 L-428840 3903 L-428685 3903 L-427486 3903 L-427097 3903 L-426981 3903 L-426828 3903 L-426674 3903 L-425704 3903 L-425652 3903 L-425405 3903 L-425382 3903 L-425163 3903 L-424724 3903 L-424585 3903 L-424477 3903 L-424275 3903 L-424158 3903 L-424055 3903 L-424041 3903 L-423908 3903 L-423654 3903 L-423037 3903 L-422377 3903 L-422131 3903 L-421939 3903 L-421179 3903 L-421140 3903 L-421062 3903 L-421010 3903 L-420970 3903 L-420932 3903 L-420894 3903 L-420802 3903 L-420758 3903 L-420699 3903 L-420675 3903 L-420561 3903 L-420251 3903 L-420196 3903 L-420174 3903 L-419832 3903 L-419667 3903 L-419631 3903 L-419591 3903 L-419576 3903 L-419345 3903 L-419204 3902 L-419036 3902 L-418586 3902 L-418353 3902 L-418260 3902 L-418240 3902 L-417760 3902 L-417682 3902 L-417555 3902 L-417425 3902 L-417047 3902 L-416805 3902 L-416768 3902 L-416714 3902 L-416576 3902 L-416536 3902 L-416496 3902 L-416266 3902 L-416226 3902 L-416096 3902 L-415917 3902 L-415876 3902 L-415862 3902 L-415698 3902 L-415683 3902 L-415531 3902 L-415516 3902 L-415489 3902 L-415455 3902 L-415233 3902 L-415010 3902 L-414756 3902 L-414624 3902 L-413982 3902 L-413375 3902 L-412355 3902 L-412162 3902 L-412111 3902 L-411986 3902 L-411661 3902 L-410889 3902 L-410831 3902 L-410717 3902 L-410305 3902 L-409980 3902 L-409843 3902 L-409618 3902 L-409092 3902 L-408691 3902 L-408660 3902 L-408373 3902 L-408088 3902 L-407700 3902 L-407483 3902 L-407056 3902 L-406875 3902 L-406538 3902 L-406432 3902 L-406245 3902 L-406128 3902 L-406114 3902 L-405393 3902 L-405223 3902 L-404975 3902 L-404875 3902 L-404233 3902 L-403944 3901 L-403754 3901 L-403479 3901 L-403162 3901 L-402877 3901 L-402763 3901 L-402718 3901 L-402516 3901 L-400907 3901 L-400695 3901 L-400014 3901 L-399932 3901 L-399704 3901 L-399513 3901 L-399374 3901 L-399356 3901 L-399162 3901 L-398933 3901 L-398740 3901 L-397656 3901 L-397460 3901 L-397408 3901 L-397254 3901 L-397146 3901 L-396980 3901 L-396827 3901 L-396712 3901 L-396588 3901 L-396171 3901 L-395914 3901 L-395822 3901 L-395628 3901 L-395567 3901 L-395241 3901 L-395180 3901 L-395123 3901 L-394854 3901 L-394506 3901 L-394327 3901 L-394133 3901 L-394097 3901 L-393384 3901 L-393345 3901 L-393036 3901 L-392738 3901 L-392688 3901 L-392433 3901 L-392162 3901 L-392107 3901 L-391015 3901 L-390985 3901 L-390945 3901 L-390768 3901 L-390576 3901 L-389718 3901 L-388664 3901 L-388603 3901 L-388254 3901 L-387442 3901 L-386628 3901 L-386613 3901 L-386238 3901 L-386070 3901 L-385801 3901 L-385473 3901 L-385352 3901 L-385295 3901 L-385259 3901 L-385182 3901 L-384965 3901 L-384906 3901 L-384591 3901 L-384423 3901 L-384060 3901 L-383866 3901 L-383843 3901 L-383765 3901 L-383284 3901 L-383147 3901 L-382733 3901 L-382434 3901 L-382335 3901 L-382319 3901 L-382291 3901 L-381932 3901 L-381581 3901 L-381444 3901 L-381407 3901 L-380590 3901 L-380384 3901 L-380360 3901 L-380204 3901 L-380114 3901 L-379872 3901 L-379548 3901 L-379456 3901 L-379260 3901 L-378974 3901 L-378218 3901 L-378089 3901 L-378015 3901 L-377402 3901 L-377227 3901 L-377116 3901 L-377017 3901 L-376938 3901 L-376801 3900 L-376646 3900 L-376567 3900 L-376376 3900 L-375703 3900 L-375665 3900 L-375562 3900 L-374618 3900 L-374597 3900 L-374246 3900 L-373781 3900 L-373745 3900 L-373316 3900 L-373265 3900 L-372853 3900 L-372837 3900 L-372740 3900 L-372685 3900 L-372647 3900 L-372351 3900 L-370613 3900 L-369103 3900 L-368595 3900 L-368098 3900 L-367964 3900 L-367873 3900 L-367745 3900 L-367666 3900 L-367361 3900 L-367090 3900 L-366856 3900 L-365658 3900 L-365553 3900 L-365487 3900 L-364645 3900 L-364459 3900 L-363548 3900 L-362679 3900 L-362392 3900 L-362299 3900 L-361750 3900 L-361230 3900 L-360162 3900 L-359893 3900 L-359739 3900 L-359647 3900 L-359516 3900 L-359469 3900 L-359309 3900 L-358444 3900 L-358109 3900 L-357726 3900 L-356973 3900 L-356913 3900 L-356524 3900 L-356202 3900 L-356045 3900 L-355313 3900 L-355251 3900 L-354963 3900 L-354590 3900 L-354408 3900 L-354153 3900 L-353891 3900 L-353739 3900 L-353335 3900 L-352038 3900 L-351923 3900 L-351459 3900 L-350127 3900 L-349702 3900 L-349678 3900 L-349545 3900 L-349370 3900 L-349237 3900 L-348907 3900 L-348519 3900 L-348480 3900 L-348463 3900 L-348073 3899 L-347781 3899 L-347512 3899 L-347339 3899 L-345846 3899 L-345795 3899 L-345717 3899 L-344477 3899 L-344402 3899 L-344375 3900 L-344129 3900 L-343972 3900 L-343913 3899 L-343025 3899 L-342797 3899 L-342273 3899 L-342132 3899 L-342056 3899 L-341360 3900 L-341112 3900 L-340432 3899 L-340414 3899 L-340161 3899 L-339793 3899 L-339657 3899 L-339035 3899 L-338692 3899 L-338644 3899 L-338157 3899 L-337823 3899 L-337607 3899 L-337472 3899 L-337151 3899 L-337087 3899 L-336835 3899 L-336545 3899 L-336235 3899 L-336096 3899 L-335557 3899 L-335281 3899 L-334551 3899 L-334497 3899 L-334390 3899 L-334124 3899 L-333700 3899 L-333436 3899 L-333216 3899 L-333196 3899 L-332964 3899 L-332677 3899 L-332654 3899 L-332640 3899 L-332267 3899 L-332095 3899 L-332020 3899 L-331959 3899 L-331657 3899 L-331417 3899 L-331324 3899 L-331067 3899 L-331014 3899 L-330819 3899 L-330603 3899 L-330179 3899 L-330087 3899 L-329946 3899 L-329081 3899 L-328708 3899 L-328380 3899 L-328228 3899 L-327800 3899 L-327083 3899 L-326888 3899 L-326533 3899 L-326387 3899 L-325880 3899 L-325644 3899 L-324677 3899 L-324667 3899 L-323602 3899 L-323369 3899 L-322968 3899 L-322773 3899 L-322693 3899 L-322597 3899 L-321860 3899 L-321728 3899 L-321338 3899 L-321316 3898 L-321221 3898 L-321086 3898 L-321069 3898 L-321049 3898 L-319364 3898 L-319345 3898 L-319229 3898 L-319144 3898 L-319019 3898 L-318996 3898 L-318711 3898 L-318605 3898 L-318417 3898 L-318146 3898 L-317474 3898 L-317102 3898 L-316250 3898 L-316193 3898 L-316173 3898 L-315940 3898 L-315665 3898 L-315360 3898 L-315320 3898 L-315090 3898 L-314852 3898 L-314239 3898 L-314198 3898 L-314161 3898 L-313639 3898 L-313448 3898 L-313387 3898 L-313345 3898 L-313022 3898 L-312995 3898 L-312980 3898 L-312495 3898 L-312442 3898 L-312303 3898 L-312265 3898 L-312248 3898 L-312154 3898 L-311488 3898 L-310872 3898 L-310602 3898 L-310194 3898 L-310174 3898 L-310158 3898 L-310045 3898 L-309658 3898 L-309191 3898 L-309130 3898 L-309052 3898 L-309037 3898 L-308551 3898 L-308511 3898 L-308366 3898 L-308316 3898 L-308238 3898 L-307606 3898 L-307515 3898 L-307274 3898 L-307157 3898 L-306829 3898 L-306075 3898 L-306058 3898 L-305107 3898 L-304798 3898 L-304373 3898 L-303659 3898 L-303340 3898 L-303325 3898 L-303174 3898 L-302871 3898 L-302793 3898 L-302666 3897 L-302229 3897 L-302169 3897 L-301645 3897 L-301377 3897 L-301240 3897 L-301161 3897 L-301122 3897 L-300311 3897 L-300270 3897 L-299830 3897 L-299752 3897 L-299495 3897 L-299304 3897 L-298675 3897 L-298488 3897 L-298454 3897 L-298298 3897 L-297896 3897 L-297819 3897 L-297638 3897 L-297447 3897 L-296519 3897 L-296368 3897 L-295160 3897 L-294351 3897 L-293947 3897 L-293345 3897 L-293143 3897 L-293074 3897 L-292916 3897 L-292655 3897 L-292281 3913 L-292263 3913 L-292106 3913 L-290908 3913 L-289804 3897 L-288876 3897 L-288763 3897 L-288477 3897 L-288375 3897 L-288351 3897 L-288161 3897 L-288083 3897 L-287887 3897 L-287176 3897 L-287018 3897 L-285961 3897 L-285536 3897 L-285126 3897 L-284840 3897 L-284665 3897 L-284434 3897 L-284179 3897 L-283737 3897 L-283076 3897 L-282900 3897 L-282595 3897 L-282208 3897 L-282189 3897 L-282169 3897 L-282148 3897 L-282014 3897 L-281822 3897 L-280178 3897 L-278881 3897 L-278842 3897 L-278785 3897 L-278683 3897 L-278124 3896 L-277140 3896 L-276598 3896 L-276134 3896 L-275488 3896 L-274939 3896 L-273889 3896 L-272961 3896 L-272613 3896 L-272420 3896 L-271917 3896 L-271472 3896 L-271329 3896 L-271308 3896 L-270737 3896 L-270351 3896 L-269518 3896 L-269169 3896 L-269147 3896 L-268760 3896 L-268337 3896 L-267738 3896 L-267719 3896 L-267213 3896 L-266982 3896 L-266868 3896 L-266249 3896 L-265688 3896 L-265648 3896 L-265088 3896 L-264755 3896 L-264643 3896 L-264604 3896 L-264179 3896 L-264119 3896 L-264044 3896 L-263753 3896 L-263540 3896 L-263057 3896 L-262842 3896 L-261702 3896 L-261643 3896 L-261625 3896 L-261219 3896 L-260581 3896 L-260445 3896 L-260387 3896 L-259845 3896 L-259536 3896 L-259285 3896 L-259209 3896 L-259090 3896 L-258356 3896 L-257911 3896 L-257697 3896 L-256963 3896 L-256789 3896 L-256423 3896 L-256208 3896 L-254970 3896 L-254661 3896 L-254544 3896 L-254292 3896 L-254081 3896 L-253539 3896 L-253307 3896 L-253249 3896 L-253152 3896 L-252823 3896 L-252590 3895 L-250928 3895 L-250577 3895 L-250173 3895 L-250018 3895 L-249225 3895 L-247735 3895 L-247348 3895 L-247310 3895 L-247056 3895 L-246961 3895 L-246768 3895 L-246420 3895 L-245724 3895 L-245472 3895 L-244756 3895 L-243344 3895 L-243112 3895 L-242783 3895 L-241566 3895 L-241215 3895 L-241023 3895 L-240904 3895 L-238469 3895 L-237500 3895 L-236669 3895 L-236360 3895 L-235018 3895 L-234445 3895 L-234329 3895 L-234000 3895 L-233904 3895 L-233497 3895 L-233381 3895 L-233190 3895 L-232434 3895 L-232308 3895 L-232027 3895 L-231524 3895 L-231447 3895 L-229860 3895 L-229803 3895 L-229061 3895 L-228680 3895 L-228351 3895 L-227688 3895 L-227558 3895 L-227518 3895 L-227268 3895 L-227132 3895 L-226940 3895 L-226804 3895 L-226552 3895 L-226340 3895 L-226030 3895 L-225758 3895 L-225256 3895 L-225237 3895 L-224803 3895 L-224577 3895 L-224134 3895 L-224115 3895 L-223612 3895 L-223474 3895 L-223360 3895 L-223128 3895 L-222818 3895 L-222354 3895 L-222277 3895 L-221774 3895 L-221503 3895 L-221165 3895 L-220980 3895 L-220304 3895 L-220285 3895 L-220110 3895 L-220090 3895 L-219472 3895 L-218756 3895 L-218194 3895 L-218000 3895 L-217846 3895 L-217827 3895 L-217304 3895 L-217190 3895 L-216318 3895 L-216297 3895 L-216241 3895 L-215409 3895 L-215099 3895 L-215023 3895 L-214751 3895 L-214688 3895 L-214638 3895 L-214326 3895 L-213709 3895 L-212934 3895 L-212140 3895 L-212101 3895 L-212024 3895 L-211852 3894 L-210974 3894 L-210089 3894 L-209995 3894 L-209875 3894 L-209545 3894 L-209509 3894 L-209277 3894 L-209044 3894 L-208329 3894 L-207826 3894 L-207161 3894 L-207052 3894 L-206898 3894 L-206878 3894 L-206723 3894 L-206308 3894 L-205697 3894 L-205563 3894 L-204654 3894 L-204451 3894 L-203899 3894 L-201249 3894 L-201074 3894 L-200997 3894 L-200125 3894 L-199661 3894 L-199179 3894 L-199140 3894 L-198559 3894 L-198539 3894 L-197438 3894 L-196016 3894 L-195598 3894 L-195291 3894 L-195213 3894 L-195137 3894 L-194980 3894 L-194904 3894 L-194440 3894 L-193202 3894 L-192950 3894 L-192505 3894 L-191883 3894 L-191827 3894 L-191634 3894 L-191169 3894 L-190878 3894 L-190837 3894 L-190801 3894 L-190648 3894 L-190470 3893 L-189332 3893 L-188945 3893 L-188887 3893 L-188713 3893 L-186196 3893 L-185036 3893 L-184399 3893 L-184260 3893 L-184128 3893 L-183741 3893 L-183277 3893 L-183066 3893 L-183001 3893 L-182967 3893 L-182213 3893 L-181631 3893 L-181440 3893 L-180821 3893 L-180775 3893 L-180414 3893 L-180308 3893 L-180123 3893 L-179846 3893 L-178942 3893 L-177937 3893 L-177202 3893 L-176777 3893 L-176616 3893 L-176254 3893 L-176157 3893 L-175713 3893 L-175637 3893 L-175285 3893 L-175036 3893 L-175016 3893 L-174842 3893 L-173894 3893 L-173780 3893 L-173217 3893 L-172767 3893 L-172382 3893 L-171472 3893 L-171416 3893 L-170277 3893 L-169697 3893 L-169522 3893 L-168728 3892 L-168497 3892 L-168110 3892 L-167840 3892 L-167704 3892 L-167588 3892 L-166969 3892 L-166911 3892 L-166696 3892 L-166402 3892 L-165614 3892 L-165473 3892 L-164085 3892 L-163738 3892 L-163351 3892 L-163290 3892 L-163254 3892 L-163197 3892 L-162554 3892 L-161862 3892 L-161610 3892 L-161274 3892 L-161185 3892 L-160665 3892 L-160411 3892 L-160195 3892 L-159812 3892 L-159652 3892 L-159113 3892 L-158301 3892 L-158282 3892 L-158167 3892 L-158022 3892 L-157641 3892 L-157449 3892 L-157393 3892 L-157094 3892 L-157027 3892 L-156831 3892 L-156464 3892 L-156403 3892 L-156099 3892 L-156053 3892 L-156000 3892 L-155362 3892 L-155342 3892 L-154857 3892 L-154375 3892 L-154006 3892 L-153640 3892 L-153505 3892 L-153351 3892 L-153281 3892 L-152634 3892 L-152614 3892 L-152473 3892 L-151988 3892 L-151705 3892 L-151647 3892 L-151589 3892 L-151280 3892 L-151125 3892 L-150641 3892 L-149868 3892 L-149228 3892 L-149131 3892 L-148068 3892 L-148047 3892 L-147582 3913 L-147566 3913 L-147392 3913 L-146879 3913 L-144525 3892 L-143580 3892 L-142862 3892 L-142321 3892 L-141624 3892 L-141308 3892 L-140659 3892 L-140151 3892 L-140117 3892 L-140075 3892 L-139730 3891 L-139035 3891 L-138838 3891 L-138821 3891 L-138705 3891 L-138424 3891 L-137526 3891 L-137480 3891 L-137114 3891 L-137096 3891 L-137041 3891 L-136848 3891 L-136712 3891 L-136637 3891 L-136403 3891 L-135862 3891 L-135821 3891 L-135784 3891 L-135759 3891 L-135124 3891 L-134582 3891 L-133417 3891 L-133057 3891 L-131780 3891 L-131740 3891 L-131702 3891 L-131487 3891 L-131297 3891 L-131219 3891 L-131066 3891 L-131026 3891 L-129937 3891 L-129613 3891 L-129399 3891 L-129138 3891 L-128646 3891 L-128624 3891 L-128207 3891 L-128065 3891 L-128005 3891 L-127928 3891 L-127717 3891 L-126423 3891 L-126146 3891 L-125522 3891 L-124131 3891 L-124059 3891 L-124021 3891 L-123827 3891 L-123437 3891 L-123130 3891 L-123074 3891 L-122759 3891 L-122708 3891 L-122670 3891 L-122624 3891 L-121991 3891 L-121217 3891 L-120778 3891 L-120636 3913 L-120613 3913 L-120596 3935 L-120571 3935 L-120154 3913 L-119951 3913 L-119801 3891 L-119723 3891 L-119669 3891 L-118872 3891 L-118856 3891 L-117992 3891 L-117788 3891 L-117501 3891 L-117386 3891 L-116860 3891 L-116684 3891 L-116380 3891 L-115993 3891 L-115932 3891 L-115877 3891 L-115722 3891 L-114677 3891 L-114115 3891 L-113879 3891 L-113842 3891 L-113573 3891 L-113167 3891 L-111698 3891 L-109957 3891 L-109570 3890 L-109338 3890 L-109239 3890 L-109144 3890 L-108990 3890 L-108427 3890 L-108344 3890 L-108177 3890 L-107635 3890 L-106450 3890 L-106436 3890 L-106376 3890 L-106225 3890 L-105740 3890 L-105093 3890 L-104387 3890 L-104271 3890 L-103303 3890 L-103258 3890 L-102568 3890 L-102511 3890 L-102433 3890 L-102414 3890 L-102393 3890 L-102177 3890 L-101464 3890 L-101074 3890 L-101037 3890 L-101020 3890 L-100962 3890 L-100535 3890 L-100321 3890 L-100246 3890 L-100169 3890 L-100053 3890 L-99988 3890 L-99860 3890 L-99800 3890 L-99725 3890 L-99646 3890 L-99218 3890 L-98492 3890 L-98478 3890 L-98312 3890 L-98095 3890 L-98080 3890 L-97499 3890 L-97228 3890 L-96939 3890 L-96509 3890 L-96356 3890 L-96299 3890 L-96123 3890 L-94728 3890 L-94462 3890 L-93569 3890 L-93044 3890 L-92024 3889 L-91943 3889 L-91479 3889 L-90860 3889 L-90574 3889 L-90320 3889 L-90168 3889 L-89820 3889 L-89103 3889 L-88542 3889 L-87654 3889 L-87345 3889 L-87053 3889 L-86201 3889 L-86180 3889 L-85524 3889 L-85020 3889 L-84809 3889 L-84789 3889 L-84460 3889 L-84402 3889 L-84015 3889 L-83030 3889 L-82468 3889 L-82371 3889 L-82062 3889 L-81985 3889 L-80950 3889 L-80820 3889 L-80764 3889 L-80128 3889 L-80069 3889 L-79994 3889 L-78580 3889 L-78443 3889 L-78309 3889 L-77824 3889 L-77574 3889 L-77283 3889 L-77071 3889 L-76414 3889 L-75845 3889 L-75756 3889 L-75616 3889 L-75542 3889 L-74377 3889 L-74345 3889 L-73915 3889 L-73899 3889 L-73724 3889 L-72196 3889 L-72112 3889 L-71306 3889 L-71113 3889 L-71091 3889 L-70238 3889 L-70044 3889 L-69411 3889 L-69235 3889 L-69116 3889 L-69062 3889 L-69041 3889 L-68985 3889 L-68597 3889 L-68153 3889 L-68075 3889 L-67878 3889 L-67816 3889 L-67553 3889 L-67205 3889 L-67089 3889 L-65941 3889 L-65656 3889 L-65211 3889 L-64008 3889 L-63878 3889 L-63568 3889 L-63140 3889 L-61843 3889 L-61534 3910 L-61518 3910 L-61471 3910 L-61421 3910 L-60493 3889 L-60163 3889 L-59615 3889 L-59487 3888 L-59041 3888 L-57508 3888 L-57339 3888 L-57068 3888 L-57044 3888 L-56139 3888 L-56024 3888 L-55557 3888 L-55534 3888 L-55462 3888 L-55264 3888 L-55112 3888 L-54644 3888 L-53993 3888 L-53507 3888 L-52957 3888 L-51935 3888 L-51629 3888 L-51574 3888 L-50974 3888 L-50544 3888 L-50470 3888 L-50452 3888 L-50231 3888 L-49927 3888 L-49845 3888 L-49541 3888 L-48942 3888 L-48805 3888 L-48535 3888 L-48321 3888 L-48146 3888 L-47937 3888 L-47915 3888 L-47666 3888 L-47217 3888 L-47201 3889 L-46755 3889 L-45547 3889 L-45345 3889 L-44417 3889 L-44355 3889 L-44320 3889 L-43295 3889 L-43179 3889 L-43158 3889 L-43004 3889 L-42985 3889 L-42574 3889 L-42558 3889 L-42520 3889 L-42210 3889 L-42057 3889 L-41852 3889 L-41453 3889 L-40470 3889 L-39945 3889 L-39889 3889 L-39863 3889 L-39541 3889 L-38825 3889 L-37955 3889 L-37917 3889 L-37840 3889 L-37588 3889 L-37568 3889 L-36845 3889 L-36695 3889 L-36582 3889 L-36485 3889 L-35383 3889 L-34628 3889 L-34456 3889 L-34295 3889 L-34219 3889 L-34025 3889 L-32887 3889 L-32202 3889 L-31920 3888 L-30953 3888 L-30934 3888 L-30082 3888 L-30043 3888 L-29900 3888 L-29575 3888 L-29345 3888 L-29307 3888 L-29267 3888 L-29250 3888 L-29114 3888 L-29095 3888 L-28884 3888 L-28824 3888 L-28746 3888 L-28722 3888 L-28647 3888 L-28167 3888 L-28070 3888 L-27994 3888 L-27818 3888 L-27795 3888 L-27740 3888 L-27702 3888 L-27643 3888 L-27488 3888 L-26464 3888 L-26165 3888 L-26038 3888 L-25960 3888 L-24935 3888 L-24878 3888 L-24820 3888 L-24774 3888 L-24760 3888 L-24723 3888 L-24685 3888 L-23505 3888 L-23446 3888 L-22750 3888 L-22131 3888 L-21988 3888 L-21545 3888 L-21279 3888 L-20616 3888 L-20332 3888 L-18862 3888 L-17914 3888 L-17808 3888 L-17742 3888 L-17712 3888 L-17392 3888 L-17371 3888 L-16442 3888 L-16266 3888 L-15535 3888 L-14994 2922 L-14971 1956 L-14944 991 L-14912 25 L-14895 25 L-14874 25 L-14836 25 L-14817 25 L-14794 25 L-14779 25 L-14760 25 L-14740 25 L-14718 25 L-14702 25 L-14682 25 L-14663 25 L-14625 25 L-14585 25 L-14559 25 L-14543 25 L-14525 25 L-14488 25 L-14469 25 L-14450 25 L-14431 25 L-14409 25 L-14392 25 L-14353 25 L-14331 24 L-14315 24 L-14296 24 L-14276 24 L-14257 24 L-14238 24 L-14199 24 L-14142 24 L-14093 24 L-14042 24 L-14015 24 L-13999 24 L-13982 24 L-13967 24 L-13946 24 L-13928 24 L-13908 24 L-13888 24 L-13866 24 L-13851 24 L-13832 24 L-13812 24 L-13790 24 L-13754 24 L-13734 24 L-13714 24 L-13677 24 L-13656 24 L-13631 24 L-13614 24 L-13597 24 L-13580 24 L-13559 24 L-13541 23 L-13521 23 L-13502 23 L-13444 23 L-13424 23 L-13402 23 L-13368 23 L-13347 23 L-13328 23 L-13309 23 L-13290 23 L-13251 23 L-13232 23 L-13213 23 L-13187 23 L-13000 23 L-12980 23 L-12960 23 L-12937 23 L-12903 23 L-12883 23 L-12862 23 L-12844 23 L-12825 22 L-12806 22 L-12785 22 L-12767 22 L-12749 22 L-12727 22 L-12702 22 L-12686 22 L-12651 22 L-12631 22 L-12613 22 L-12593 22 L-12574 22 L-12552 22 L-12516 22 L-12496 22 L-12474 22 L-12458 22 L-12439 22 L-12419 22 L-12399 22 L-12362 22 L-12284 22 L-12259 22 L-12236 22 L-12208 22 L-12185 22 L-12159 22 L-12109 22 L-12089 21 L-12051 21 L-12032 21 L-12010 21 L-11994 21 L-11975 21 L-11955 21 L-11934 21 L-11898 21 L-11877 21 L-11820 21 L-11799 21 L-11774 21 L-11759 21 L-11742 21 L-11704 21 L-11684 21 L-11665 21 L-11645 21 L-11625 21 L-11607 21 L-11588 21 L-11568 21 L-11547 21 L-11511 21 L-11491 21 L-11472 21 L-11433 21 L-11394 21 L-11375 21 L-11356 21 L-11307 21 L-11279 21 L-11240 21 L-11210 21 L-11195 21 L-11123 21 L-11103 21 L-11081 21 L-11065 20 L-11046 20 L-11006 20 L-10929 20 L-10910 20 L-10892 20 L-10871 20 L-10845 20 L-10813 20 L-10794 20 L-10775 20 L-10737 20 L-10696 20 L-10618 20 L-10582 20 L-10543 20 L-10465 20 L-10446 20 L-10401 20 L-10379 20 L-10351 20 L-10312 20 L-10281 20 L-10266 20 L-10252 20 L-10212 20 L-10150 20 L-10136 20 L-10117 20 L-10097 20 L-10020 20 L-9982 20 L-9963 20 L-9916 20 L-9900 20 L-9881 20 L-9865 20 L-9827 20 L-9807 19 L-9788 19 L-9766 19 L-9750 19 L-9710 19 L-9672 19 L-9653 19 L-9633 19 L-9614 19 L-9595 19 L-9576 19 L-9556 19 L-9536 19 L-9473 19 L-9450 19 L-9423 19 L-9399 19 L-9372 19 L-9356 19 L-9340 19 L-9303 19 L-9285 19 L-9265 19 L-9245 19 L-9223 18 L-9207 18 L-9188 18 L-9169 18 L-9147 18 L-9130 18 L-9110 18 L-9092 18 L-9071 18 L-9053 18 L-9034 18 L-8988 18 L-8971 18 L-8953 18 L-8937 18 L-8916 18 L-8898 18 L-8878 18 L-8859 18 L-8821 18 L-8802 18 L-8759 18 L-8744 18 L-8725 18 L-8705 18 L-8666 17 L-8647 17 L-8628 17 L-8589 17 L-8570 17 L-8544 17 L-8494 17 L-8457 17 L-8441 17 L-8395 17 L-8357 17 L-8337 17 L-8317 17 L-8294 17 L-8279 17 L-8260 17 L-8218 17 L-8202 17 L-8163 17 L-8142 17 L-8125 17 L-8084 17 L-8059 17 L-8043 17 L-8009 17 L-7988 17 L-7970 17 L-7950 17 L-7909 16 L-7893 16 L-7815 16 L-7796 16 L-7757 16 L-7738 16 L-7719 16 L-7699 16 L-7680 16 L-7660 16 L-7565 16 L-7540 16 L-7513 16 L-7482 16 L-7467 16 L-7446 16 L-7408 16 L-7388 16 L-7365 16 L-7350 16 L-7331 16 L-7312 16 L-7290 16 L-7273 16 L-7253 16 L-7234 16 L-7213 16 L-7196 16 L-7177 16 L-7156 16 L-7130 16 L-7114 15 L-7096 15 L-7058 15 L-7041 15 L-7021 15 L-7002 15 L-6980 15 L-6944 15 L-6925 15 L-6902 15 L-6887 15 L-6868 15 L-6848 15 L-6809 15 L-6770 15 L-6751 15 L-6732 15 L-6687 15 L-6585 15 L-6569 15 L-6437 15 L-6422 15 L-6403 15 L-6383 15 L-6361 15 L-6325 14 L-6306 14 L-6285 14 L-6227 14 L-6202 14 L-6186 14 L-6168 14 L-6152 14 L-6131 14 L-6113 14 L-6074 14 L-6052 14 L-6016 14 L-5996 14 L-5974 14 L-5919 14 L-5899 14 L-5842 14 L-5803 14 L-5736 14 L-5709 14 L-5685 14 L-5659 14 L-5626 14 L-5610 14 L-5589 14 L-5571 14 L-5551 14 L-5532 14 L-5511 14 L-5494 14 L-5398 14 L-5339 14 L-5299 14 L-5274 14 L-5243 14 L-5204 14 L-5165 14 L-5145 14 L-5107 14 L-5068 14 L-5030 14 L-5011 14 L-4972 14 L-4952 14 L-4933 14 L-4913 13 L-4894 13 L-4875 13 L-4856 13 L-4829 13 L-4779 13 L-4740 13 L-4710 13 L-4695 13 L-4681 13 L-4642 13 L-4623 13 L-4581 13 L-4565 13 L-4546 13 L-4506 13 L-4469 13 L-4429 13 L-4392 13 L-4345 13 L-4331 13 L-4255 13 L-4217 13 L-4197 13 L-4179 13 L-4159 13 L-4062 13 L-4023 13 L-3965 13 L-3946 13 L-3927 13 L-3901 13 L-3879 13 L-3813 12 L-3795 12 L-3780 12 L-3767 12 L-3731 12 L-3674 12 L-3650 12 L-3617 12 L-3597 12 L-3559 12 L-3538 12 L-3520 12 L-3499 12 L-3482 12 L-3463 12 L-3441 12 L-3416 12 L-3365 12 L-3344 12 L-3288 12 L-3268 12 L-3172 12 L-3153 12 L-3114 12 L-3095 12 L-3076 12 L-3037 12 L-3017 12 L-2999 12 L-2950 12 L-2899 12 L-2872 12 L-2856 12 L-2839 12 L-2824 12 L-2785 12 L-2765 12 L-2745 11 L-2688 11 L-2669 11 L-2646 11 L-2630 11 L-2610 11 L-2592 11 L-2534 11 L-2513 11 L-2488 11 L-2452 11 L-2437 11 L-2417 11 L-2398 11 L-2378 11 L-2359 11 L-2337 11 L-2321 11 L-2301 11 L-2282 11 L-2260 11 L-2244 11 L-2225 11 L-2205 11 L-2185 11 L-2147 11 L-2128 10 L-2108 10 L-2043 10 L-2022 10 L-1993 10 L-1954 10 L-1922 10 L-1908 10 L-1874 10 L-1836 10 L-1817 10 L-1794 10 L-1779 10 L-1760 10 L-1740 10 L-1702 10 L-1682 10 L-1642 10 L-1584 10 L-1559 10 L-1524 10 L-1508 10 L-1487 10 L-1470 10 L-1431 10 L-1409 10 L-1392 10 L-1372 9 L-1353 9 L-1331 9 L-1315 9 L-1296 9 L-1219 9 L-1199 9 L-1179 9 L-1160 9 L-1141 9 L-1116 9 L-1041 9 L-1015 9 L-999 9 L-983 9 L-967 9 L-946 9 L-928 9 L-889 9 L-866 9 L-851 9 L-832 9 L-812 9 L-790 9 L-773 9 L-677 9 L-656 9 L-631 9 L-597 9 L-580 9 L-559 9 L-541 8 L-521 8 L-502 8 L-481 8 L-464 8 L-445 8 L-425 8 L-402 8 L-386 8 L-368 8 L-328 8 L-309 8 L-270 8 L-213 8 L-187 8 L-165 8 L-137 8 L-113 8 L-87 8 L-54 8 L-38 8 L-18 8 L0 8 L20 8 L39 8 L77 8 L96 8 L116 8 L137 8 L173 8 L193 8 L214 8 L232 8 L250 8 L271 8 L297 7 L312 7 L330 7 L348 7 L368 7 L387 7 L406 7 L425 7 L483 7 L503 7 L525 7 L618 7 L657 7 L676 7 L696 7 L715 7 L812 8 L840 8 L872 8 L889 8 L989 8 L1005 8 L1024 8 L1044 8 L1064 8 L1083 8 L1101 8 L1121 7 L1141 7 L1179 7 L1200 7 L1257 7 L1276 7 L1295 8 L1315 8 L1334 8 L1354 8 L1374 8 L1431 8 L1453 8 L1488 8 L1509 8 L1566 8 L1586 8 L1624 8 L1643 8 L1670 8 L1720 8 L1759 8 L1818 8 L1838 8 L1857 8 L1896 8 L1934 8 L1973 8 L2050 8 L2070 8 L2089 8 L2185 8 L2205 8 L2282 8 L2339 8 L2398 8 L2437 8 L2456 8 L2475 8 L2494 8 L2620 8 L2702 8 L2717 8 L2732 8 L2768 8 L2805 8 L2825 8 L2848 8 L2863 8 L2882 8 L2940 8 L2961 7 L2979 7 L3000 7 L3017 7 L3036 7 L3057 6 L3083 6 L3099 6 L3118 6 L3134 6 L3154 6 L3172 6 L3192 6 L3233 6 L3269 6 L3289 6 L3312 6 L3346 6 L3386 6 L3404 6 L3443 6 L3462 6 L3482 6 L3500 6 L3526 6 L3549 6 L3601 6 L3627 5 L3643 5 L3660 5 L3675 5 L3696 5 L3714 5 L3734 5 L3810 5 L3830 5 L3852 5 L3869 5 L3889 5 L3928 5 L3965 5 L3986 5 L4011 5 L4028 5 L4046 5 L4083 5 L4101 5 L4121 5 L4140 5 L4161 5 L4178 5 L4198 5 L4217 5 L4240 5 L4294 5 L4314 5 L4333 5 L4391 5 L4455 5 L4477 4 L4556 4 L4588 4 L4625 4 L4642 4 L4662 4 L4705 4 L4720 4 L4759 4 L4781 4 L4797 4 L4817 4 L4857 4 L4874 4 L4893 4 L4915 4 L4940 4 L4957 4 L4975 4 L5012 4 L5050 4 L5068 3 L5090 3 L5126 3 L5169 3 L5223 3 L5261 3 L5280 3 L5300 3 L5320 3 L5383 3 L5458 3 L5501 3 L5517 3 L5532 3 L5571 3 L5591 3 L5634 3 L5649 3 L5667 3 L5687 3 L5709 3 L5726 3 L5746 3 L5786 3 L5822 3 L5843 3 L5868 3 L5885 3 L5904 3 L5919 3 L5941 997 L5972 996 L5997 996 L6020 996 L6035 2 L6055 2 L6074 2 L6112 2 L6131 2 L6151 2 L6172 2 L6229 2 L6248 2 L6267 2 L6312 2 L6334 2 L6362 2 L6387 2 L6414 2 L6445 2 L6482 2 L6500 1" />
</svg>
