<svg xmlns="http://www.w3.org/2000/svg" version="1.1" viewBox="0 0 6500 1000">
	<path fill="none" stroke="gold" stroke-width="125" stroke-linecap="round" stroke-linejoin="round" d="M0 111078  L-520518 111078 L-520334 111018 L-519844 110898 L-519550 110838 L-519239 110718 L-519005 110659 L-518951 110539 L-518892 110419 L-518739 110359 L-518698 110239 L-518566 110179 L-518273 110119 L-517732 110119 L-517122 110059 L-517074 110059 L-516434 110000 L-516401 110000 L-515875 110000 L-515743 109940 L-515352 109820 L-515024 109700 L-514907 109580 L-514696 109460 L-513979 109460 L-513409 109400 L-513302 109400 L-513127 109340 L-512906 109221 L-512504 109161 L-512479 109041 L-511551 108921 L-511463 108801 L-511381 108681 L-511311 108562 L-511014 108502 L-510862 108382 L-508972 108442 L-508871 108442 L-508608 108442 L-508315 108502 L-508173 108382 L-507925 108382 L-507889 108322 L-507731 108262 L-507267 108142 L-507014 108082 L-506802 107962 L-506550 107902 L-506202 107843 L-505274 107723 L-505181 107603 L-504770 107543 L-503599 107423 L-502410 107363 L-502318 107243 L-502290 107124 L-502024 107004 L-501725 106884 L-501596 106764 L-501559 106644 L-500744 106644 L-500360 106704 L-499300 106764 L-499239 106764 L-498973 107962 L-498502 109101 L-498310 110239 L-498046 111378 L-497709 111318 L-497574 111258 L-497118 111198 L-496375 111138 L-496358 111078 L-496192 110958 L-496124 110958 L-495608 110898 L-494579 110898 L-494383 110838 L-493895 110778 L-493533 110718 L-493124 110718 L-492738 110778 L-491035 110778 L-490937 110778 L-490865 110778 L-490804 110778 L-490619 110718 L-490283 110718 L-489642 110659 L-489565 110599 L-489504 110599 L-489317 110539 L-489238 110539 L-489061 110479 L-489041 110419 L-488811 110419 L-488424 110359 L-487535 110359 L-487496 110299 L-487407 110239 L-487380 110119 L-486372 110059 L-486222 109940 L-486198 109880 L-486065 109820 L-486025 109760 L-484767 109700 L-484709 109700 L-484169 109640 L-484117 109640 L-484070 109640 L-483675 109580 L-483536 109520 L-483336 109460 L-483189 109460 L-483024 109460 L-482748 109520 L-482389 109520 L-481837 109460 L-481192 109400 L-480933 109281 L-480779 109221 L-480378 109161 L-480338 109101 L-480217 109041 L-480156 109101 L-480142 109101 L-480048 109101 L-479755 109041 L-479603 108801 L-479273 108681 L-479195 108562 L-479119 108502 L-478893 108322 L-478826 108202 L-478598 108082 L-478546 107962 L-478381 107902 L-477376 107843 L-477192 107783 L-476641 107723 L-476248 107603 L-475851 107543 L-475001 107423 L-474922 107363 L-474343 107303 L-473902 107303 L-473661 107243 L-473504 107243 L-473103 107124 L-473083 107124 L-472638 107064 L-472232 107004 L-472096 106884 L-471921 106764 L-471785 106644 L-471534 106524 L-470535 106464 L-470452 106405 L-470317 106345 L-470278 106285 L-469389 106225 L-469173 106165 L-468730 106105 L-468612 106045 L-468555 105985 L-467879 105985 L-467779 105925 L-467750 105925 L-466408 105865 L-466002 105805 L-465963 105745 L-465035 105686 L-464936 105626 L-464804 105566 L-464399 105506 L-464373 105446 L-464280 105386 L-464064 105326 L-463653 105206 L-462499 105086 L-462207 104967 L-462179 104847 L-461571 104787 L-461321 104667 L-461301 104607 L-460372 104547 L-460320 104427 L-460198 104367 L-460180 104248 L-460024 104188 L-459849 104068 L-459713 104008 L-459656 103948 L-459548 103888 L-459463 103828 L-459230 103768 L-459155 103708 L-458846 103648 L-458728 103588 L-458559 103529 L-458467 103469 L-458365 103469 L-458342 103409 L-458264 103409 L-458166 103289 L-457800 103229 L-457695 103169 L-457192 103109 L-456740 103049 L-456702 102989 L-456678 102929 L-456637 102869 L-456508 102810 L-456407 102750 L-455966 102690 L-455683 102630 L-455091 102570 L-454961 102510 L-454686 102390 L-454534 102330 L-454380 102270 L-454295 102150 L-454217 102091 L-454032 102031 L-453981 102031 L-453953 101971 L-453874 101911 L-453851 101851 L-453567 101731 L-452964 101611 L-451968 101551 L-451670 101491 L-450936 101431 L-450692 101372 L-450602 101312 L-450025 101252 L-449326 101192 L-448574 101132 L-448255 101072 L-447873 100952 L-447795 100892 L-447161 100832 L-446976 100772 L-446888 100772 L-446758 100772 L-446445 100713 L-446396 100653 L-446254 100593 L-446232 100533 L-445265 100473 L-444719 100413 L-444241 100413 L-444180 100413 L-443856 100413 L-443835 100353 L-443772 100353 L-443562 100293 L-443485 100233 L-443431 100173 L-443408 100113 L-443369 100053 L-443353 99994 L-442596 99934 L-442580 99874 L-441780 99814 L-441628 99754 L-440722 99694 L-440216 99634 L-439987 99514 L-439946 99514 L-439830 99454 L-439654 99394 L-438900 99454 L-438765 99394 L-438601 99334 L-438283 99275 L-438107 99155 L-437085 99035 L-437061 98915 L-436810 98855 L-436597 98735 L-435963 98675 L-435725 98556 L-435693 98436 L-435514 98316 L-435434 98196 L-435344 98136 L-435280 98016 L-434840 97896 L-434816 97837 L-434275 97777 L-434020 97717 L-433525 97657 L-432648 97597 L-432611 97537 L-432558 97477 L-432517 97417 L-432400 97357 L-432123 97297 L-431916 97177 L-431719 97058 L-431696 96938 L-431645 96818 L-431606 96758 L-431528 96698 L-430931 96578 L-430871 96518 L-430767 96458 L-430613 96399 L-429981 96339 L-429300 96279 L-428997 96159 L-428651 96099 L-428453 96039 L-428405 95919 L-428085 95859 L-427457 95799 L-427310 95739 L-427274 95680 L-427216 95620 L-427139 95500 L-426898 95500 L-426810 95440 L-426716 95380 L-426422 95320 L-426288 95260 L-426228 95200 L-426191 95080 L-425919 95080 L-424913 95020 L-424737 94961 L-424686 94961 L-424394 94901 L-424201 94781 L-423868 94721 L-423361 94661 L-422799 94541 L-422785 94421 L-422768 94361 L-422668 94242 L-422553 94122 L-422514 94002 L-422476 93942 L-422411 93942 L-422382 93882 L-422243 93942 L-421951 93942 L-421901 93942 L-421795 93942 L-421531 93882 L-421066 93822 L-420922 93822 L-420867 93702 L-420810 93642 L-420619 93582 L-420254 93523 L-420039 93523 L-419844 93523 L-419787 93523 L-419727 93403 L-419574 93343 L-419304 93283 L-418874 93582 L-418859 93582 L-418782 93523 L-418717 93463 L-418588 93043 L-418564 92983 L-418280 92923 L-418233 92863 L-418178 92804 L-417716 92744 L-417677 92744 L-417636 92684 L-417446 92624 L-416966 92564 L-416479 92504 L-416462 92444 L-416424 92384 L-416167 92324 L-416090 92204 L-415860 92144 L-415844 92025 L-415550 91905 L-415107 91845 L-414661 91785 L-414156 91725 L-414002 91665 L-413716 91605 L-413676 91485 L-413344 91426 L-413123 91366 L-412606 91246 L-412530 91186 L-412282 91066 L-412087 90946 L-412028 90886 L-411251 90826 L-411177 90826 L-410946 90766 L-410930 90766 L-410868 90707 L-410672 90647 L-410208 90647 L-410185 90587 L-410055 90587 L-408754 90587 L-408738 90587 L-408661 90527 L-408567 90527 L-408350 90527 L-408198 90467 L-408019 90527 L-407965 90587 L-407679 90647 L-407639 90647 L-407269 90647 L-406829 90647 L-406646 90647 L-406325 90587 L-406030 90587 L-405584 90467 L-405512 90407 L-405050 90287 L-404612 90227 L-404430 90167 L-402976 90047 L-402844 89988 L-402387 89868 L-402160 89808 L-401774 89688 L-401258 89568 L-400303 89448 L-399509 89328 L-398835 89269 L-398409 89149 L-398098 89089 L-397868 88909 L-397185 88729 L-397172 88550 L-396962 88310 L-396940 88250 L-396766 88130 L-395816 88070 L-395547 87950 L-394732 87890 L-394422 87771 L-394384 87711 L-394327 87591 L-393710 87531 L-393072 87411 L-391446 87351 L-390772 87291 L-390130 87291 L-390052 87291 L-389996 87291 L-389960 87291 L-389932 87231 L-389820 87112 L-389802 87052 L-389780 86992 L-389626 86932 L-389573 86812 L-389495 86752 L-389375 86692 L-389278 86632 L-389160 86572 L-388891 86452 L-388621 86393 L-388604 86273 L-388404 86213 L-388257 86093 L-388030 86033 L-387896 85973 L-387587 85913 L-387527 85853 L-387174 85733 L-386826 85674 L-386725 85614 L-386660 85494 L-386600 85434 L-386216 85314 L-385835 85254 L-385731 85194 L-385471 85134 L-385199 85014 L-385040 84955 L-385008 84895 L-384946 84835 L-384805 84775 L-384621 84715 L-384576 84655 L-384288 84655 L-384272 84595 L-384039 84595 L-383978 84535 L-383940 84535 L-383360 84475 L-383226 84415 L-383203 84176 L-383184 83756 L-383167 83277 L-383151 82798 L-383127 82318 L-383110 81959 L-383089 81539 L-383072 81120 L-383049 80880 L-383032 80641 L-383011 80461 L-382994 80341 L-382945 80161 L-382873 79982 L-382838 79682 L-382815 79442 L-382779 79203 L-382737 78963 L-382701 78843 L-382685 78603 L-382660 78424 L-382623 78304 L-382606 78124 L-382583 78004 L-382566 77884 L-382547 77765 L-382531 77645 L-382502 77465 L-382476 77285 L-382430 77225 L-382414 77106 L-382372 77046 L-382324 76926 L-382253 76806 L-382238 76686 L-382222 76566 L-382160 76506 L-382121 76446 L-382081 76387 L-381915 76327 L-381850 76267 L-381834 76207 L-381790 76087 L-381732 76027 L-381519 75967 L-381486 75907 L-381443 75847 L-381365 75787 L-380828 75727 L-380750 75668 L-380645 75548 L-380557 75488 L-380381 75428 L-380030 75368 L-379874 75308 L-379436 75248 L-379280 75188 L-379150 75128 L-378446 75008 L-378245 74949 L-377284 74829 L-376802 74769 L-376703 74769 L-376610 74709 L-376365 74649 L-376292 74589 L-375849 74469 L-375753 74409 L-375738 74349 L-375722 74289 L-375697 74230 L-375231 74170 L-375015 74110 L-374875 74050 L-374581 73990 L-374493 73930 L-374451 73870 L-374421 73810 L-374249 73750 L-374190 73690 L-374114 73630 L-374033 73571 L-373963 73571 L-373654 73511 L-373569 73451 L-373355 73391 L-373320 73331 L-372637 73271 L-372538 73211 L-372333 73151 L-372286 73091 L-372008 73031 L-371946 72971 L-371929 72852 L-371851 72792 L-371543 72672 L-371518 72612 L-371464 72492 L-371441 72432 L-371319 72372 L-371183 72252 L-370939 72192 L-370813 72192 L-370167 72133 L-370151 72133 L-370126 72133 L-369946 72013 L-369870 71953 L-369778 71893 L-369350 71833 L-368934 71773 L-368541 71653 L-368462 71593 L-368443 71533 L-368080 71473 L-367844 71414 L-367616 71354 L-367302 71294 L-367224 71234 L-367144 71114 L-366966 70994 L-366950 70934 L-366685 70814 L-366605 70754 L-366374 70695 L-366148 70635 L-365833 70635 L-365657 70575 L-365296 70575 L-364905 70515 L-364835 70395 L-364771 70335 L-364631 70215 L-364579 70155 L-364478 70035 L-363976 69976 L-363779 69916 L-363532 69856 L-363346 69796 L-363047 69736 L-362971 69676 L-362805 69556 L-361920 69496 L-361892 69376 L-361769 69257 L-361190 69197 L-361112 69137 L-360399 69137 L-360087 69137 L-359874 69137 L-359857 69137 L-359470 69137 L-358945 69017 L-358499 68957 L-358170 68897 L-358017 68837 L-357691 68837 L-357513 68777 L-357431 68777 L-357225 68657 L-357049 68597 L-356120 68538 L-355231 68478 L-355192 68418 L-354964 68418 L-354585 68358 L-353797 68298 L-353563 68238 L-353487 68178 L-353130 68118 L-352558 67998 L-352291 67938 L-351904 67878 L-351801 67878 L-351631 67878 L-351012 67878 L-350801 67878 L-350493 67878 L-350440 67819 L-350313 67759 L-350259 67699 L-350140 67639 L-349804 67519 L-348845 67459 L-348713 67339 L-348512 67279 L-347880 67219 L-347569 67159 L-347155 67100 L-347128 67040 L-346982 66980 L-346562 66920 L-345230 66920 L-345183 66860 L-345054 66740 L-345037 66680 L-344459 66560 L-344254 66500 L-344224 66440 L-344183 66381 L-344126 66321 L-344088 66261 L-344010 66201 L-343867 66141 L-343413 66081 L-343295 66021 L-343009 65961 L-342637 65901 L-342540 65841 L-342214 65781 L-341859 65721 L-341689 65662 L-341642 65602 L-341533 65542 L-341444 65482 L-341416 65422 L-341340 65302 L-341036 65242 L-341002 65122 L-340931 65062 L-340563 65002 L-340227 64943 L-340146 64943 L-339927 64883 L-339755 64823 L-339728 64763 L-339230 64703 L-338681 64583 L-337801 64523 L-337702 64403 L-337626 64343 L-337351 64284 L-337104 64164 L-337030 64104 L-336968 63984 L-336849 63924 L-336807 63864 L-336697 63804 L-336620 63684 L-335919 63624 L-335674 63565 L-335634 63505 L-335478 63445 L-334879 63445 L-334652 63445 L-334560 63445 L-334084 63445 L-333487 63325 L-332967 63265 L-332946 63205 L-332801 63145 L-332481 63145 L-331939 63145 L-331707 63145 L-331537 63145 L-331050 63085 L-330823 63025 L-330738 62965 L-330391 62905 L-330065 62905 L-329542 62846 L-329215 62786 L-328615 62726 L-328417 62606 L-328365 62546 L-328324 62486 L-328043 62426 L-327359 62306 L-327049 62246 L-327024 62127 L-326833 62067 L-326610 62007 L-326524 61947 L-325860 61827 L-325836 61767 L-325614 61647 L-325284 61587 L-324932 61467 L-324727 61408 L-324495 61288 L-324237 61228 L-324047 61108 L-324000 61048 L-323773 60988 L-323738 60928 L-323582 60868 L-323367 60808 L-323194 60748 L-323103 60689 L-322826 60629 L-322582 60569 L-322267 60509 L-321840 60509 L-321803 60509 L-321320 60509 L-321086 60509 L-320875 60449 L-320648 60389 L-320099 60389 L-319851 60329 L-319017 60329 L-318962 60269 L-318940 60209 L-318782 60149 L-318320 60089 L-318280 60029 L-317940 59910 L-317806 59850 L-317584 59790 L-317012 59730 L-316540 59670 L-316345 59610 L-316153 59550 L-315963 59490 L-315861 59430 L-315493 59370 L-315446 59310 L-315365 59251 L-314071 59191 L-314023 59131 L-313755 59131 L-313610 59131 L-313059 59131 L-312942 59071 L-312860 59011 L-312501 58951 L-312278 58891 L-311996 58831 L-311667 58711 L-311159 58651 L-311047 58591 L-310968 58532 L-310803 58472 L-310509 58472 L-310040 58472 L-309844 58532 L-309793 58532 L-309143 58472 L-309022 58412 L-308568 58412 L-308532 58352 L-308063 58292 L-307953 58232 L-307936 58172 L-307720 58172 L-307539 58112 L-307008 58112 L-305978 58112 L-305779 58052 L-305320 57992 L-304372 57872 L-304273 57813 L-303920 57693 L-303859 57633 L-303844 57573 L-303809 57513 L-303440 57453 L-303320 57393 L-303078 57333 L-302914 57273 L-302726 57213 L-302606 57153 L-301535 57034 L-300677 56974 L-300465 56854 L-300367 56794 L-300193 56674 L-299860 56614 L-299788 56554 L-299731 56494 L-299555 56494 L-299166 56434 L-298931 56375 L-298820 56315 L-298703 56255 L-297722 56195 L-297696 56135 L-297102 56015 L-297070 56015 L-296921 55955 L-296637 55895 L-295725 55895 L-294779 55895 L-294626 55835 L-294523 55835 L-294392 55775 L-294248 55715 L-294222 55656 L-294108 55596 L-293889 55536 L-293208 55476 L-293079 55416 L-292775 55356 L-292536 55236 L-292203 55176 L-291564 55116 L-291222 54997 L-291160 54937 L-291004 54937 L-290083 54937 L-289612 54937 L-289569 54937 L-289556 54877 L-289515 54817 L-289493 54757 L-289466 54697 L-289322 54637 L-288899 54577 L-288564 54577 L-288373 54517 L-287944 54517 L-287756 54457 L-287367 54337 L-286833 54278 L-286461 54218 L-286439 54218 L-286189 54158 L-286071 54098 L-285995 54038 L-285859 53978 L-285820 53918 L-285740 53858 L-285346 53798 L-284850 53738 L-284738 53618 L-284565 53559 L-284256 53499 L-283809 53439 L-283486 53379 L-283344 53259 L-282916 53139 L-282763 53019 L-282708 52899 L-281894 52840 L-281874 52780 L-281503 52720 L-281446 52720 L-280317 52660 L-280249 52660 L-279690 52600 L-279496 52540 L-279359 52480 L-279126 52420 L-278779 52360 L-278744 52240 L-278709 52180 L-278641 52061 L-278292 52001 L-278120 51941 L-277635 51881 L-277619 51821 L-277293 51761 L-277136 51701 L-275995 51581 L-275970 51521 L-275779 51402 L-275585 51342 L-275335 51282 L-275318 51222 L-274298 51162 L-274000 51102 L-273924 51042 L-273788 50922 L-273612 50862 L-273036 50742 L-272820 50683 L-272756 50623 L-272626 50563 L-272589 50443 L-272066 50383 L-271928 73990 L-271913 73990 L-271891 73990 L-271870 73990 L-271643 50323 L-270867 50323 L-270826 50323 L-270458 50323 L-270379 50263 L-270327 50203 L-269654 50143 L-268912 50083 L-268487 50083 L-268039 50023 L-266978 49964 L-266666 49844 L-266256 49844 L-266184 49784 L-265660 49784 L-265565 49784 L-265547 49784 L-265103 49724 L-264917 49604 L-264137 49484 L-263464 49424 L-263052 49245 L-262820 49125 L-262680 49065 L-262598 48945 L-262578 48885 L-262502 48885 L-262374 48825 L-262057 48885 L-261833 48885 L-261508 48825 L-261445 48825 L-261075 48825 L-261042 48825 L-260834 48825 L-260166 48825 L-260089 48825 L-259931 48705 L-259820 48705 L-259494 48645 L-259339 48585 L-258998 48585 L-258941 48466 L-258603 48346 L-258399 48286 L-258346 48166 L-256970 48106 L-256840 48046 L-256407 47986 L-256086 47926 L-255258 47807 L-255135 47747 L-254404 47627 L-254248 47507 L-254208 47447 L-254154 47387 L-254131 47327 L-254017 47267 L-253720 47207 L-253430 47147 L-253376 47088 L-253255 47028 L-253225 46968 L-253126 46908 L-252682 46908 L-252530 46848 L-251695 46848 L-251153 46788 L-250818 46788 L-250802 46728 L-250727 46668 L-250611 46608 L-250416 46548 L-250152 46488 L-249317 46428 L-249221 46369 L-248699 46309 L-248658 46249 L-248558 46189 L-247730 46189 L-247595 46129 L-247256 46129 L-246702 46069 L-246322 46009 L-246159 45949 L-245850 45889 L-245037 45829 L-244731 45769 L-244462 45769 L-244141 45769 L-243820 45829 L-243545 45829 L-242716 45710 L-242621 45650 L-242528 45470 L-242424 45290 L-242037 45110 L-241557 44991 L-241540 44931 L-241422 44871 L-241054 44751 L-240959 44691 L-240125 44571 L-240048 44511 L-239749 44451 L-239658 44391 L-239251 44272 L-239140 44152 L-238441 44092 L-237968 44032 L-237908 43972 L-237689 43852 L-237415 43792 L-237302 43732 L-236275 43672 L-235889 43612 L-235868 43553 L-235536 43493 L-235291 43433 L-234858 43373 L-234748 43313 L-234630 43253 L-234178 43133 L-233588 43073 L-233251 43013 L-231358 42953 L-231245 42834 L-231033 42774 L-229715 42714 L-229608 29233 L-229542 15931 L-229506 3648 L-229444 3648 L-228945 17010 L-228270 30191 L-228248 42354 L-227977 42234 L-227009 42234 L-226320 42174 L-226158 42115 L-225617 42055 L-225527 41995 L-224508 41935 L-223560 41815 L-223195 41875 L-223092 41935 L-222504 41935 L-222444 41935 L-222344 41875 L-221903 41755 L-221796 41695 L-221354 41635 L-220355 41455 L-220098 41276 L-219995 41096 L-219865 40976 L-219498 40856 L-218918 40736 L-218887 40677 L-218571 40617 L-216588 40557 L-216472 40497 L-216405 40497 L-216046 40437 L-214428 40377 L-214250 40377 L-214106 40377 L-213283 40437 L-213230 40497 L-213176 40497 L-212742 40497 L-211761 40557 L-211688 40557 L-210603 40497 L-210390 40497 L-209674 40377 L-209285 40317 L-209066 40197 L-208747 40077 L-208253 39958 L-208125 39898 L-207897 39778 L-207664 39658 L-207605 39598 L-207315 39538 L-207043 39418 L-206013 39358 L-204348 39298 L-203929 39239 L-203792 39179 L-203636 39179 L-203331 39119 L-203102 38999 L-202944 38939 L-202785 38819 L-202615 38699 L-202568 38639 L-202515 38579 L-202493 38579 L-202107 38520 L-201857 38520 L-201587 38520 L-201426 38520 L-201336 38520 L-199678 38520 L-199512 38579 L-199133 38520 L-198673 38520 L-198063 38400 L-196970 38340 L-196539 38280 L-196507 38220 L-196445 38160 L-196427 38100 L-194724 38040 L-194682 37980 L-194215 37920 L-194029 37860 L-193996 37741 L-193401 37681 L-193351 37621 L-193029 37561 L-192978 37501 L-192767 37441 L-192749 37381 L-192483 37261 L-192430 37201 L-191961 37142 L-191451 37022 L-191373 37022 L-191078 36962 L-191062 36902 L-191023 36842 L-190952 36782 L-190795 36722 L-189849 36722 L-189792 36722 L-189271 36722 L-189079 36662 L-188978 36662 L-188752 36602 L-188242 36602 L-187854 38220 L-187785 38220 L-187436 38160 L-187079 38100 L-185951 36363 L-185899 36243 L-185673 36183 L-185639 36123 L-185514 36003 L-185416 36003 L-185151 36003 L-184411 36063 L-183832 36063 L-183539 36063 L-182833 36063 L-182654 36003 L-182631 36003 L-181995 35943 L-181684 35883 L-181287 35883 L-181258 35823 L-181237 35763 L-181083 35704 L-180398 35704 L-180381 35704 L-180041 35704 L-179769 35644 L-179731 35584 L-179675 35464 L-179653 35404 L-179581 35344 L-179249 35284 L-179143 35224 L-179115 35104 L-178916 35044 L-178764 34985 L-177895 34925 L-177333 34805 L-177317 34805 L-177216 34745 L-177113 34805 L-176967 34805 L-176889 34805 L-176851 34745 L-176796 34685 L-176722 34625 L-176577 34565 L-176095 34565 L-175691 34505 L-174825 34565 L-174805 34565 L-174547 34565 L-174470 34565 L-174441 34505 L-174431 34385 L-174414 34325 L-174121 34266 L-174081 34206 L-174009 34146 L-173936 34086 L-173731 34026 L-173571 33846 L-173269 33666 L-173192 33427 L-173175 33247 L-172959 33127 L-172727 33127 L-172617 33187 L-172248 33247 L-172089 33247 L-171858 33247 L-171690 33247 L-171544 33187 L-171412 33127 L-170137 33007 L-169733 32887 L-169672 32828 L-169556 32708 L-169130 32648 L-169115 32528 L-169053 32468 L-168780 32348 L-168667 32288 L-168385 32168 L-168108 32109 L-167683 31989 L-167660 31929 L-167582 31869 L-167457 31809 L-166870 31749 L-166479 31689 L-166143 31629 L-165554 31569 L-165452 31569 L-165281 31509 L-165145 31509 L-164317 31449 L-163132 31390 L-163096 31330 L-163041 31330 L-162820 31270 L-162615 31270 L-162460 31270 L-162204 31210 L-162127 31150 L-161585 31090 L-161548 31030 L-161299 30970 L-160912 30910 L-160086 30850 L-159728 30790 L-159418 30790 L-159160 30730 L-158936 30671 L-158530 30611 L-158413 30551 L-158230 30491 L-158177 30491 L-157988 30431 L-157817 30371 L-157789 30311 L-157508 30251 L-157198 30191 L-157060 30131 L-156750 30071 L-156556 30071 L-156541 30011 L-155821 30011 L-155688 29892 L-155390 29832 L-155300 29772 L-154699 29772 L-154661 29712 L-154582 29652 L-153962 29592 L-153810 29472 L-153770 29412 L-153459 29352 L-153267 29292 L-153074 29173 L-153019 29053 L-152710 28993 L-152658 28933 L-152603 28993 L-152577 28993 L-152453 28993 L-151642 28933 L-151566 28873 L-151025 28813 L-150756 28753 L-150097 28693 L-149189 28633 L-148948 28573 L-148415 28514 L-148198 28454 L-147091 28514 L-147041 28514 L-146265 28514 L-145717 28454 L-145606 28394 L-145453 28274 L-145398 28214 L-145233 28154 L-144855 28094 L-144408 28034 L-144353 27974 L-144199 27914 L-143519 27855 L-143299 27795 L-142781 27735 L-141932 27615 L-141916 27555 L-140125 27495 L-139570 27435 L-139453 27375 L-138447 27315 L-138411 27255 L-138178 27255 L-138086 27255 L-138046 27255 L-137714 27195 L-137362 27136 L-137096 27016 L-136810 26956 L-136499 26836 L-136245 26716 L-136151 26656 L-135661 26596 L-135454 26536 L-134888 26476 L-134774 26536 L-134423 26476 L-134371 26476 L-134331 26476 L-133728 26357 L-132994 26237 L-132413 26117 L-132177 25997 L-131637 25817 L-131484 25698 L-130982 25638 L-130773 25518 L-130750 25518 L-130691 25458 L-129728 25458 L-129551 25398 L-129109 25338 L-129085 25218 L-128930 25158 L-128848 25158 L-128698 25218 L-128051 25218 L-128001 25158 L-126881 25098 L-125897 25038 L-125836 24979 L-125115 24919 L-124250 24859 L-123871 24799 L-123652 24799 L-122893 24739 L-122841 24679 L-122532 24559 L-121680 24559 L-121487 24499 L-121310 24439 L-121086 24439 L-120959 24379 L-120767 24379 L-120535 24319 L-120365 24379 L-120079 24319 L-119799 24319 L-119716 24260 L-119546 24200 L-119529 24080 L-119375 24020 L-119336 23960 L-118561 23900 L-118484 23900 L-118252 23780 L-117825 23720 L-117480 23660 L-116896 23600 L-116628 23600 L-116369 23600 L-116239 23481 L-116223 23421 L-116109 23361 L-116085 23301 L-115851 23241 L-115815 23181 L-114499 23181 L-114443 23121 L-113764 23001 L-113192 23001 L-113066 23001 L-112913 23001 L-112836 23001 L-112524 22881 L-112251 22822 L-112162 22702 L-112061 22702 L-111133 22642 L-111056 22642 L-110693 22642 L-110668 22582 L-110632 22522 L-109856 22402 L-109764 22342 L-109624 22282 L-109222 22222 L-108961 22222 L-108717 22282 L-108503 22222 L-108423 22222 L-108346 22222 L-108270 22222 L-108083 22282 L-108017 22282 L-107767 22282 L-107712 22222 L-107574 22162 L-107495 22043 L-107381 21983 L-107158 21923 L-106994 21863 L-106953 21803 L-106784 21743 L-106413 21683 L-106398 21623 L-106282 21563 L-105561 21503 L-105525 21443 L-105392 21443 L-105044 21384 L-104633 21384 L-104596 21384 L-104518 21324 L-104479 21264 L-104115 21204 L-103911 21144 L-103896 21084 L-103551 21024 L-103202 21024 L-102876 21024 L-102775 20964 L-102622 20964 L-102427 20904 L-102196 20904 L-102103 20904 L-101948 20904 L-101870 20904 L-101830 20844 L-101716 20784 L-101693 20724 L-101442 20724 L-101303 20605 L-100726 20425 L-99898 20305 L-99410 20185 L-99288 20125 L-99250 20065 L-99237 20005 L-99085 19886 L-98984 19766 L-98751 19706 L-98361 19586 L-98056 19526 L-98041 19466 L-97870 19406 L-97631 19286 L-97035 19286 L-96431 19227 L-96392 19227 L-96351 19227 L-96198 19167 L-96145 19107 L-96082 19047 L-96014 18987 L-95960 18867 L-95934 18807 L-95888 18747 L-95793 18627 L-95656 18568 L-95503 18508 L-95371 18448 L-95330 18448 L-95294 18388 L-95232 18328 L-94959 18208 L-94644 18148 L-94603 18028 L-94518 17968 L-94341 17908 L-94104 17849 L-93746 17789 L-93716 17729 L-93147 17669 L-93024 17609 L-92788 17549 L-92765 17549 L-92484 17489 L-92198 17489 L-91943 17489 L-91371 17429 L-91074 17369 L-90998 17309 L-90299 17249 L-90222 17189 L-90187 17130 L-90160 17070 L-90109 16950 L-89915 16890 L-89775 16770 L-89739 16710 L-89698 16650 L-89103 16590 L-88871 16530 L-88587 16950 L-88533 17309 L-88459 17729 L-88381 18088 L-88145 17968 L-87901 17908 L-87765 17849 L-87659 17789 L-87579 17729 L-87192 17609 L-87065 17549 L-86912 17489 L-86875 17429 L-86729 17369 L-86507 17309 L-86333 17249 L-86264 17189 L-85443 17070 L-85427 17070 L-85132 17010 L-84344 16950 L-84034 16950 L-83888 16890 L-83660 16830 L-83459 16710 L-82522 16650 L-82486 16590 L-82463 16530 L-82422 16411 L-82154 16351 L-81557 16291 L-81493 16231 L-81458 16171 L-81441 16111 L-80746 16111 L-80545 16111 L-80513 16111 L-80179 16111 L-80072 16051 L-79447 15931 L-78943 15871 L-78905 15751 L-78463 15751 L-78367 15692 L-78208 15692 L-77895 15692 L-77883 15692 L-77443 15751 L-76961 15811 L-76832 15811 L-76511 15811 L-76443 15751 L-76139 15751 L-75963 15692 L-75769 15632 L-75527 15512 L-75329 15392 L-75303 15272 L-74725 15212 L-74655 15152 L-74246 15092 L-74191 15032 L-74145 14973 L-73781 14913 L-73635 14853 L-73430 14793 L-73333 14793 L-73178 14733 L-73117 14673 L-72969 14553 L-72869 14493 L-72312 14493 L-72289 14613 L-72117 14673 L-71575 14733 L-71514 14733 L-71461 14613 L-71432 14493 L-71361 14433 L-71344 14313 L-71281 14254 L-71244 14134 L-71090 14074 L-70764 14014 L-70198 13954 L-70184 13894 L-70122 13774 L-70020 13654 L-69974 13654 L-69731 13594 L-69309 13594 L-69154 13594 L-67413 13475 L-66871 13415 L-65928 13355 L-65518 13295 L-64977 13175 L-64781 13115 L-64612 13055 L-64316 12995 L-64202 12935 L-64186 12935 L-64032 12875 L-63892 12816 L-63815 12696 L-63683 12696 L-63336 12696 L-62965 12756 L-62367 12756 L-62191 12756 L-62035 12696 L-61766 12636 L-61614 12636 L-61323 12816 L-61300 12935 L-61217 13055 L-60989 13175 L-60290 13115 L-60163 13055 L-59732 12995 L-59637 12935 L-58433 12935 L-58383 12875 L-58090 12875 L-57687 12816 L-57411 12696 L-57392 12636 L-57274 12576 L-57198 12516 L-57016 12456 L-56536 12396 L-56085 12276 L-55675 12216 L-55644 12156 L-55226 12097 L-55112 12097 L-54994 12097 L-54978 12097 L-54784 12037 L-54763 11917 L-54530 11857 L-54087 11797 L-53768 11677 L-53303 11677 L-53138 11617 L-52983 11557 L-52827 11557 L-52373 11557 L-52054 11557 L-51999 11617 L-51628 11617 L-51590 11677 L-51264 11677 L-51147 11617 L-51049 11557 L-50723 11437 L-50336 11378 L-50075 11318 L-49716 11198 L-49460 11138 L-47290 11078 L-47240 11018 L-47218 10958 L-46806 10958 L-46745 10958 L-46675 11018 L-46444 11018 L-46133 10958 L-45830 10838 L-45785 10778 L-45478 10718 L-45345 10659 L-45128 10599 L-44416 10539 L-44261 10539 L-44122 10479 L-43974 10479 L-43953 10479 L-43758 10419 L-43733 10359 L-43642 10299 L-43620 10239 L-43604 10179 L-43503 10119 L-42575 10059 L-42117 10059 L-41025 9940 L-40602 9940 L-40198 9880 L-40160 9820 L-39906 9760 L-39132 9640 L-39115 9580 L-39091 9520 L-38898 9460 L-38162 9400 L-37892 9340 L-37852 9281 L-37453 9161 L-37428 9101 L-36639 9041 L-35959 8981 L-34588 8921 L-34318 8861 L-34269 8801 L-33732 8681 L-33699 8621 L-33597 8502 L-33273 8442 L-33194 8382 L-32925 8382 L-32012 8322 L-31873 8322 L-31625 8202 L-31079 8202 L-30657 8142 L-30464 8082 L-30449 8082 L-30311 7962 L-30217 7902 L-30090 7843 L-29830 7783 L-29805 7663 L-29713 7603 L-29403 7543 L-29343 7483 L-29226 7483 L-28876 7483 L-28066 7483 L-27834 7363 L-27005 7363 L-26773 7243 L-26557 7183 L-26038 7183 L-25400 7124 L-24984 7064 L-24661 7004 L-24181 6944 L-23755 6944 L-23694 6884 L-23345 6884 L-23305 6824 L-23291 6764 L-23191 6644 L-23146 6644 L-22661 6584 L-21859 6584 L-21525 6584 L-20444 6524 L-19964 6464 L-19941 6405 L-19801 6345 L-19245 6285 L-18548 6225 L-18239 6165 L-18017 6105 L-17913 6045 L-17810 5925 L-17139 5865 L-17045 5805 L-17023 5805 L-16946 5745 L-16768 5745 L-16596 5745 L-16415 5686 L-16402 5626 L-16325 5566 L-16161 5506 L-15646 5446 L-15630 5386 L-15490 5386 L-15127 5326 L-15103 5326 L-14973 5266 L-14948 5206 L-14586 5146 L-14060 5026 L-13967 4967 L-13751 4847 L-13657 4787 L-13633 4727 L-13168 4667 L-13091 4667 L-12690 4607 L-12239 4607 L-10987 4547 L-10948 4487 L-10517 4427 L-10484 4367 L-9765 4307 L-9589 4248 L-9453 4188 L-9146 4128 L-9092 4068 L-9067 3948 L-9051 3828 L-8876 3768 L-8686 3708 L-8179 3708 L-7805 3229 L-7467 2690 L-7428 2210 L-6709 1791 L-6615 1731 L-6577 1671 L-6035 1671 L-6012 1611 L-5609 1551 L-5184 1491 L-4913 1491 L-4733 1431 L-4487 1312 L-4464 1252 L-4407 1132 L-3791 1072 L-3288 1012 L-2901 1012 L-2282 1072 L-2066 1072 L-1911 1132 L-618 1012 L-519 952 L-77 832 L254 772 L554 653 L797 593 L1531 473 L2110 413 L2940 353 L3040 293 L3598 233 L3736 173 L5378 113 L5439 113 L5532 113 L6500 113" />
</svg>
