<svg xmlns="http://www.w3.org/2000/svg" version="1.1" viewBox="0 0 6500 1000">
	<path fill="none" stroke="gold" stroke-width="125" stroke-linecap="round" stroke-linejoin="round" d="M0 1229  L-29769 1229 L-29357 1138 L-29132 1184 L-29075 1138 L-29037 1047 L-28853 956 L-28363 865 L-28069 819 L-27758 774 L-27524 682 L-27470 591 L-27411 500 L-27258 455 L-27217 409 L-27085 364 L-26792 409 L-26251 364 L-25641 272 L-25593 364 L-24953 272 L-24920 318 L-24394 227 L-24262 181 L-23871 0 L-23543 -91 L-23426 -182 L-23215 -91 L-22498 -137 L-21928 -182 L-21821 -228 L-21646 -319 L-21425 -410 L-21023 -456 L-20998 -547 L-20070 -638 L-19982 -729 L-19900 -820 L-19830 -911 L-19533 -957 L-19381 -1002 L-17490 -729 L-17390 -866 L-17127 -957 L-16834 -866 L-16692 -957 L-16443 -1002 L-16408 -1048 L-16249 -1139 L-15786 -1184 L-15533 -1276 L-15321 -1321 L-15069 -1367 L-14720 -1458 L-13793 -1549 L-13699 -1640 L-13289 -1686 L-12118 -1731 L-10929 -1822 L-10837 -1913 L-10809 -2005 L-10543 -2141 L-10244 -2232 L-10115 -2278 L-10078 -2369 L-9263 -2050 L-8879 -2096 L-7819 -2187 L-7758 -2232 L-7492 1457 L-7021 1411 L-6829 1320 L-6565 1275 L-6228 1229 L-6093 1275 L-5637 1138 L-4894 1092 L-4876 1001 L-4711 956 L-4643 1047 L-4127 1001 L-3098 910 L-2902 819 L-2413 865 L-2051 819 L-1643 910 L-1257 956 L445 910 L543 865 L615 910 L677 865 L861 819 L1197 774 L1838 682 L1915 774 L1976 728 L2163 682 L2242 637 L2419 591 L2439 637 L2669 591 L3056 546 L3945 500 L3984 455 L4073 364 L4100 318 L5108 227 L5258 181 L5282 136 L5415 90 L5455 45" />
</svg>
