<svg xmlns="http://www.w3.org/2000/svg" version="1.1" viewBox="0 0 6500 1000">
	<path fill="none" stroke="gold" stroke-width="125" stroke-linecap="round" stroke-linejoin="round" d="M0 124498  L-848897 124498 L-848713 124447 L-848222 124345 L-847929 124293 L-847618 124191 L-847383 124140 L-847330 124038 L-847270 123936 L-847117 123884 L-847077 123782 L-846944 123731 L-846652 123680 L-846111 123680 L-845501 123629 L-845453 123629 L-844813 123578 L-844779 123578 L-844254 123578 L-844121 123527 L-843731 123424 L-843403 123322 L-843286 123220 L-843074 123118 L-842358 123118 L-841788 123066 L-841680 123066 L-841506 123015 L-841285 122913 L-840883 122862 L-840857 122760 L-839929 122657 L-839842 122555 L-839760 122453 L-839690 122351 L-839392 122300 L-839240 122197 L-837350 122248 L-837249 122248 L-836987 122248 L-836693 122300 L-836552 122197 L-836303 122197 L-836267 122146 L-836109 122095 L-835646 121993 L-835393 121942 L-835180 121839 L-834929 121788 L-834580 121737 L-833653 121635 L-833559 121533 L-833148 121482 L-831977 121379 L-830788 121328 L-830696 121226 L-830669 121124 L-830403 121021 L-830104 120919 L-829975 120817 L-829937 120715 L-829123 120715 L-828739 120766 L-827678 120817 L-827617 120817 L-827352 121839 L-826881 122811 L-826688 123782 L-826425 124754 L-826088 124702 L-825952 124651 L-825497 124600 L-824754 124549 L-824736 124498 L-824571 124396 L-824503 124396 L-823986 124345 L-822958 124345 L-822762 124293 L-822273 124242 L-821911 124191 L-821502 124191 L-821117 124242 L-819413 124242 L-819315 124242 L-819244 124242 L-819182 124242 L-818998 124191 L-818661 124191 L-818021 124140 L-817944 124089 L-817883 124089 L-817696 124038 L-817616 124038 L-817439 123987 L-817420 123936 L-817190 123936 L-816802 123884 L-815914 123884 L-815874 123833 L-815786 123782 L-815759 123680 L-814751 123629 L-814601 123527 L-814577 123475 L-814444 123424 L-814404 123373 L-813146 123322 L-813088 123322 L-812548 123271 L-812495 123271 L-812449 123271 L-812054 123220 L-811914 123169 L-811714 123118 L-811568 123118 L-811403 123118 L-811126 123169 L-810768 123169 L-810215 123118 L-809570 123066 L-809311 122964 L-809158 122913 L-808757 122862 L-808717 122811 L-808596 122760 L-808534 122811 L-808520 122811 L-808426 122811 L-808133 122760 L-807982 122555 L-807652 122453 L-807574 122351 L-807498 122300 L-807271 122146 L-807205 122044 L-806977 121942 L-806925 121839 L-806760 121788 L-805754 121737 L-805571 121686 L-805020 121635 L-804627 121533 L-804229 121482 L-803379 121379 L-803301 121328 L-802722 121277 L-802281 121277 L-802040 121226 L-801882 121226 L-801482 121124 L-801461 121124 L-801016 121073 L-800611 121021 L-800475 120919 L-800300 120817 L-800163 120715 L-799913 120612 L-798913 120561 L-798831 120510 L-798696 120459 L-798657 120408 L-797767 120357 L-797551 120306 L-797108 120255 L-796991 120203 L-796934 120152 L-796258 120152 L-796157 120101 L-796129 120101 L-794787 120050 L-794381 119999 L-794341 119948 L-793413 119897 L-793315 119846 L-793182 119794 L-792778 119743 L-792752 119692 L-792659 119641 L-792442 119590 L-792031 119488 L-790878 119385 L-790586 119283 L-790557 119181 L-789949 119130 L-789699 119028 L-789679 118976 L-788750 118925 L-788699 118823 L-788576 118772 L-788559 118670 L-788403 118619 L-788228 118516 L-788091 118465 L-788035 118414 L-787927 118363 L-787841 118312 L-787608 118261 L-787533 118210 L-787225 118158 L-787107 118107 L-786937 118056 L-786846 118005 L-786743 118005 L-786720 117954 L-786643 117954 L-786545 117852 L-786178 117801 L-786074 117750 L-785570 117698 L-785118 117647 L-785080 117596 L-785056 117545 L-785015 117494 L-784887 117443 L-784786 117392 L-784344 117341 L-784062 117289 L-783470 117238 L-783339 117187 L-783065 117085 L-782912 117034 L-782759 116983 L-782674 116880 L-782596 116829 L-782410 116778 L-782360 116778 L-782332 116727 L-782252 116676 L-782229 116625 L-781946 116523 L-781342 116420 L-780347 116369 L-780049 116318 L-779315 116267 L-779070 116216 L-778980 116165 L-778403 116114 L-777705 116062 L-776952 116011 L-776634 115960 L-776251 115858 L-776174 115807 L-775540 115756 L-775354 115705 L-775266 115705 L-775137 115705 L-774824 115653 L-774775 115602 L-774633 115551 L-774611 115500 L-773643 115449 L-773098 115398 L-772620 115398 L-772559 115398 L-772235 115398 L-772213 115347 L-772151 115347 L-771941 115296 L-771864 115244 L-771809 115193 L-771787 115142 L-771748 115091 L-771732 115040 L-770975 114989 L-770958 114938 L-770159 114887 L-770006 114835 L-769101 114784 L-768595 114733 L-768366 114631 L-768324 114631 L-768209 114580 L-768033 114529 L-767278 114580 L-767143 114529 L-766979 114478 L-766661 114426 L-766485 114324 L-765463 114222 L-765440 114120 L-765189 114069 L-764975 113966 L-764342 113915 L-764104 113813 L-764071 113711 L-763893 113608 L-763813 113506 L-763723 113455 L-763659 113353 L-763218 113251 L-763195 113199 L-762654 113148 L-762398 113097 L-761903 113046 L-761026 112995 L-760989 112944 L-760937 112893 L-760895 112842 L-760778 112790 L-760502 112739 L-760295 112637 L-760097 112535 L-760074 112433 L-760024 112330 L-759985 112279 L-759907 112228 L-759309 112126 L-759249 112075 L-759146 112024 L-758992 111972 L-758360 111921 L-757679 111870 L-757376 111768 L-757029 111717 L-756832 111666 L-756784 111563 L-756463 111512 L-755836 111461 L-755689 111410 L-755653 111359 L-755595 111308 L-755518 111206 L-755277 111206 L-755189 111154 L-755094 111103 L-754801 111052 L-754666 111001 L-754606 110950 L-754569 110848 L-754297 110848 L-753291 110797 L-753115 110745 L-753065 110745 L-752772 110694 L-752580 110592 L-752247 110541 L-751740 110490 L-751178 110388 L-751163 110285 L-751146 110234 L-751046 110132 L-750931 110030 L-750892 109927 L-750855 109876 L-750789 109876 L-750761 109825 L-750622 109876 L-750329 109876 L-750279 109876 L-750174 109876 L-749909 109825 L-749444 109774 L-749300 109774 L-749245 109672 L-749188 109621 L-748997 109570 L-748632 109518 L-748418 109518 L-748223 109518 L-748165 109518 L-748106 109416 L-747952 109365 L-747683 109314 L-747253 109570 L-747237 109570 L-747160 109518 L-747096 109467 L-746966 109109 L-746943 109058 L-746659 109007 L-746611 108956 L-746557 108905 L-746094 108854 L-746055 108854 L-746015 108803 L-745824 108752 L-745344 108700 L-744857 108649 L-744841 108598 L-744803 108547 L-744546 108496 L-744469 108394 L-744239 108343 L-744223 108240 L-743928 108138 L-743486 108087 L-743039 108036 L-742535 107985 L-742381 107934 L-742094 107882 L-742054 107780 L-741723 107729 L-741501 107678 L-740984 107576 L-740908 107525 L-740660 107422 L-740466 107320 L-740406 107269 L-739630 107218 L-739556 107218 L-739325 107167 L-739308 107167 L-739247 107116 L-739051 107064 L-738587 107064 L-738564 107013 L-738434 107013 L-737133 107013 L-737117 107013 L-737039 106962 L-736946 106962 L-736728 106962 L-736576 106911 L-736398 106962 L-736344 107013 L-736057 107064 L-736017 107064 L-735648 107064 L-735207 107064 L-735024 107064 L-734703 107013 L-734408 107013 L-733962 106911 L-733890 106860 L-733428 106758 L-732990 106707 L-732808 106655 L-731354 106553 L-731222 106502 L-730765 106400 L-730539 106349 L-730152 106246 L-729636 106144 L-728682 106042 L-727888 105940 L-727213 105889 L-726788 105786 L-726477 105735 L-726247 105582 L-725563 105428 L-725550 105275 L-725340 105071 L-725318 105019 L-725144 104917 L-724194 104866 L-723926 104764 L-723111 104713 L-722800 104610 L-722763 104559 L-722705 104457 L-722088 104406 L-721450 104304 L-719824 104253 L-719151 104201 L-718509 104201 L-718431 104201 L-718375 104201 L-718339 104201 L-718311 104150 L-718199 104048 L-718181 103997 L-718158 103946 L-718005 103895 L-717951 103792 L-717873 103741 L-717754 103690 L-717656 103639 L-717539 103588 L-717269 103486 L-717000 103435 L-716982 103332 L-716782 103281 L-716635 103179 L-716409 103128 L-716275 103077 L-715966 103026 L-715906 102974 L-715553 102872 L-715204 102821 L-715103 102770 L-715039 102668 L-714979 102617 L-714595 102514 L-714214 102463 L-714109 102412 L-713849 102361 L-713578 102259 L-713419 102208 L-713386 102156 L-713324 102105 L-713183 102054 L-712999 102003 L-712955 101952 L-712667 101952 L-712650 101901 L-712417 101901 L-712356 101850 L-712318 101850 L-711738 101799 L-711605 101747 L-711581 101543 L-711563 101185 L-711545 100776 L-711529 100367 L-711505 99958 L-711489 99651 L-711468 99293 L-711451 98936 L-711428 98731 L-711411 98527 L-711389 98373 L-711373 98271 L-711324 98118 L-711251 97964 L-711217 97709 L-711193 97504 L-711157 97300 L-711116 97095 L-711079 96993 L-711063 96788 L-711039 96635 L-711002 96533 L-710985 96379 L-710962 96277 L-710944 96175 L-710926 96073 L-710910 95970 L-710880 95817 L-710854 95664 L-710809 95612 L-710793 95510 L-710751 95459 L-710703 95357 L-710632 95255 L-710617 95152 L-710601 95050 L-710538 94999 L-710499 94948 L-710460 94897 L-710294 94846 L-710229 94794 L-710213 94743 L-710169 94641 L-710110 94590 L-709898 94539 L-709864 94488 L-709822 94437 L-709744 94385 L-709206 94334 L-709128 94283 L-709024 94181 L-708935 94130 L-708759 94079 L-708409 94028 L-708253 93976 L-707815 93925 L-707658 93874 L-707528 93823 L-706824 93721 L-706623 93670 L-705663 93567 L-705180 93516 L-705081 93516 L-704989 93465 L-704744 93414 L-704671 93363 L-704228 93261 L-704132 93210 L-704117 93158 L-704101 93107 L-704076 93056 L-703610 93005 L-703393 92954 L-703253 92903 L-702960 92852 L-702871 92801 L-702830 92750 L-702800 92698 L-702627 92647 L-702568 92596 L-702492 92545 L-702412 92494 L-702342 92494 L-702033 92443 L-701948 92392 L-701734 92341 L-701699 92289 L-701015 92238 L-700916 92187 L-700711 92136 L-700665 92085 L-700386 92034 L-700324 91983 L-700307 91880 L-700229 91829 L-699921 91727 L-699897 91676 L-699843 91574 L-699820 91523 L-699698 91471 L-699562 91369 L-699318 91318 L-699192 91318 L-698545 91267 L-698529 91267 L-698505 91267 L-698324 91165 L-698248 91114 L-698156 91062 L-697729 91011 L-697312 90960 L-696919 90858 L-696841 90807 L-696822 90756 L-696459 90705 L-696222 90653 L-695994 90602 L-695681 90551 L-695603 90500 L-695522 90398 L-695344 90296 L-695329 90244 L-695063 90142 L-694983 90091 L-694753 90040 L-694527 89989 L-694211 89989 L-694036 89938 L-693675 89938 L-693283 89887 L-693214 89784 L-693150 89733 L-693010 89631 L-692958 89580 L-692856 89478 L-692354 89426 L-692157 89375 L-691910 89324 L-691725 89273 L-691425 89222 L-691349 89171 L-691183 89069 L-690299 89017 L-690270 88915 L-690147 88813 L-689569 88762 L-689491 88711 L-688777 88711 L-688465 88711 L-688252 88711 L-688235 88711 L-687849 88711 L-687324 88608 L-686878 88557 L-686548 88506 L-686395 88455 L-686069 88455 L-685891 88404 L-685810 88404 L-685603 88302 L-685428 88251 L-684499 88199 L-683610 88148 L-683570 88097 L-683342 88097 L-682963 88046 L-682176 87995 L-681941 87944 L-681866 87893 L-681508 87842 L-680936 87739 L-680669 87688 L-680283 87637 L-680179 87637 L-680009 87637 L-679391 87637 L-679180 87637 L-678872 87637 L-678819 87586 L-678691 87535 L-678638 87484 L-678519 87433 L-678183 87330 L-677223 87279 L-677092 87177 L-676890 87126 L-676259 87075 L-675948 87024 L-675534 86972 L-675506 86921 L-675361 86870 L-674941 86819 L-673608 86819 L-673561 86768 L-673433 86666 L-673416 86615 L-672838 86512 L-672632 86461 L-672603 86410 L-672562 86359 L-672505 86308 L-672467 86257 L-672389 86206 L-672246 86154 L-671791 86103 L-671673 86052 L-671388 86001 L-671015 85950 L-670919 85899 L-670592 85848 L-670238 85797 L-670068 85745 L-670020 85694 L-669911 85643 L-669822 85592 L-669795 85541 L-669718 85439 L-669415 85388 L-669381 85285 L-669309 85234 L-668941 85183 L-668606 85132 L-668525 85132 L-668305 85081 L-668134 85030 L-668106 84979 L-667609 84927 L-667060 84825 L-666179 84774 L-666081 84672 L-666004 84621 L-665729 84570 L-665482 84467 L-665408 84416 L-665347 84314 L-665228 84263 L-665185 84212 L-665075 84161 L-664998 84058 L-664298 84007 L-664052 83956 L-664013 83905 L-663856 83854 L-663257 83854 L-663030 83854 L-662938 83854 L-662463 83854 L-661866 83752 L-661346 83700 L-661325 83649 L-661179 83598 L-660859 83598 L-660318 83598 L-660086 83598 L-659915 83598 L-659429 83547 L-659201 83496 L-659116 83445 L-658770 83394 L-658444 83394 L-657921 83343 L-657594 83291 L-656993 83240 L-656796 83138 L-656744 83087 L-656703 83036 L-656422 82985 L-655737 82882 L-655427 82831 L-655402 82729 L-655211 82678 L-654988 82627 L-654902 82576 L-654239 82473 L-654214 82422 L-653992 82320 L-653662 82269 L-653311 82167 L-653106 82116 L-652873 82013 L-652615 81962 L-652426 81860 L-652379 81809 L-652151 81758 L-652117 81707 L-651960 81655 L-651746 81604 L-651573 81553 L-651482 81502 L-651204 81451 L-650961 81400 L-650645 81349 L-650219 81349 L-650182 81349 L-649698 81349 L-649465 81349 L-649253 81298 L-649027 81246 L-648477 81246 L-648230 81195 L-647396 81195 L-647340 81144 L-647318 81093 L-647160 81042 L-646699 80991 L-646658 80940 L-646318 80837 L-646185 80786 L-645962 80735 L-645390 80684 L-644918 80633 L-644724 80582 L-644531 80531 L-644341 80480 L-644239 80428 L-643871 80377 L-643825 80326 L-643743 80275 L-642450 80224 L-642402 80173 L-642133 80173 L-641988 80173 L-641437 80173 L-641321 80122 L-641239 80071 L-640880 80019 L-640656 79968 L-640375 79917 L-640046 79815 L-639538 79764 L-639425 79713 L-639346 79662 L-639182 79610 L-638888 79610 L-638419 79610 L-638222 79662 L-638172 79662 L-637522 79610 L-637400 79559 L-636946 79559 L-636910 79508 L-636442 79457 L-636331 79406 L-636315 79355 L-636099 79355 L-635918 79304 L-635386 79304 L-634357 79304 L-634157 79253 L-633699 79201 L-632751 79099 L-632652 79048 L-632298 78946 L-632237 78895 L-632223 78844 L-632188 78792 L-631818 78741 L-631698 78690 L-631456 78639 L-631292 78588 L-631105 78537 L-630984 78486 L-629914 78383 L-629055 78332 L-628843 78230 L-628746 78179 L-628572 78077 L-628239 78026 L-628167 77974 L-628109 77923 L-627934 77923 L-627545 77872 L-627310 77821 L-627198 77770 L-627081 77719 L-626101 77668 L-626075 77617 L-625481 77514 L-625448 77514 L-625300 77463 L-625015 77412 L-624103 77412 L-623157 77412 L-623004 77361 L-622902 77361 L-622770 77310 L-622627 77259 L-622601 77208 L-622486 77156 L-622268 77105 L-621587 77054 L-621457 77003 L-621154 76952 L-620914 76850 L-620582 76799 L-619943 76747 L-619600 76645 L-619539 76594 L-619383 76594 L-618461 76594 L-617991 76594 L-617947 76594 L-617935 76543 L-617893 76492 L-617871 76441 L-617844 76390 L-617700 76338 L-617278 76287 L-616943 76287 L-616751 76236 L-616323 76236 L-616135 76185 L-615746 76083 L-615212 76032 L-614839 75981 L-614818 75981 L-614568 75929 L-614449 75878 L-614374 75827 L-614238 75776 L-614198 75725 L-614119 75674 L-613724 75623 L-613228 75572 L-613116 75469 L-612943 75418 L-612635 75367 L-612188 75316 L-611865 75265 L-611722 75163 L-611295 75060 L-611142 74958 L-611087 74856 L-610273 74805 L-610253 74754 L-609881 74702 L-609824 74702 L-608695 74651 L-608627 74651 L-608069 74600 L-607874 74549 L-607738 74498 L-607505 74447 L-607158 74396 L-607123 74293 L-607088 74242 L-607019 74140 L-606671 74089 L-606498 74038 L-606014 73987 L-605997 73936 L-605672 73884 L-605515 73833 L-604374 73731 L-604349 73680 L-604157 73578 L-603964 73527 L-603714 73475 L-603696 73424 L-602676 73373 L-602378 73322 L-602303 73271 L-602167 73169 L-601991 73118 L-601414 73015 L-601199 72964 L-601135 72913 L-601004 72862 L-600967 72760 L-600444 72709 L-600306 92852 L-600292 92852 L-600269 92852 L-600249 92852 L-600022 72657 L-599246 72657 L-599204 72657 L-598836 72657 L-598758 72606 L-598706 72555 L-598033 72504 L-597290 72453 L-596866 72453 L-596418 72402 L-595356 72351 L-595045 72248 L-594635 72248 L-594563 72197 L-594038 72197 L-593944 72197 L-593926 72197 L-593481 72146 L-593296 72044 L-592515 71942 L-591843 71891 L-591431 71737 L-591199 71635 L-591058 71584 L-590977 71482 L-590957 71430 L-590881 71430 L-590752 71379 L-590435 71430 L-590211 71430 L-589886 71379 L-589824 71379 L-589454 71379 L-589421 71379 L-589212 71379 L-588545 71379 L-588467 71379 L-588309 71277 L-588199 71277 L-587872 71226 L-587717 71175 L-587376 71175 L-587319 71073 L-586981 70970 L-586778 70919 L-586725 70817 L-585348 70766 L-585219 70715 L-584785 70664 L-584465 70612 L-583637 70510 L-583514 70459 L-582783 70357 L-582627 70255 L-582586 70203 L-582532 70152 L-582509 70101 L-582395 70050 L-582099 69999 L-581809 69948 L-581755 69897 L-581634 69846 L-581604 69794 L-581504 69743 L-581060 69743 L-580908 69692 L-580073 69692 L-579531 69641 L-579196 69641 L-579181 69590 L-579105 69539 L-578989 69488 L-578794 69437 L-578530 69385 L-577696 69334 L-577599 69283 L-577078 69232 L-577036 69181 L-576937 69130 L-576108 69130 L-575973 69079 L-575635 69079 L-575081 69028 L-574701 68976 L-574538 68925 L-574228 68874 L-573415 68823 L-573109 68772 L-572841 68772 L-572519 68772 L-572198 68823 L-571923 68823 L-571094 68721 L-570999 68670 L-570907 68516 L-570802 68363 L-570415 68210 L-569935 68107 L-569919 68056 L-569800 68005 L-569432 67903 L-569338 67852 L-568504 67750 L-568427 67698 L-568127 67647 L-568036 67596 L-567629 67494 L-567519 67392 L-566820 67341 L-566347 67289 L-566286 67238 L-566068 67136 L-565794 67085 L-565681 67034 L-564654 66983 L-564267 66932 L-564247 66880 L-563914 66829 L-563669 66778 L-563236 66727 L-563126 66676 L-563009 66625 L-562557 66523 L-561966 66471 L-561630 66420 L-559737 66369 L-559623 66267 L-559412 66216 L-558093 66165 L-557987 54662 L-557921 43312 L-557885 32831 L-557823 32831 L-557323 44232 L-556648 55480 L-556626 65858 L-556356 65756 L-555388 65756 L-554698 65705 L-554536 65653 L-553996 65602 L-553906 65551 L-552887 65500 L-551939 65398 L-551573 65449 L-551470 65500 L-550882 65500 L-550823 65500 L-550722 65449 L-550282 65347 L-550175 65296 L-549733 65244 L-548733 65091 L-548477 64938 L-548374 64784 L-548244 64682 L-547877 64580 L-547296 64478 L-547265 64426 L-546950 64375 L-544967 64324 L-544851 64273 L-544783 64273 L-544425 64222 L-542806 64171 L-542628 64171 L-542484 64171 L-541662 64222 L-541609 64273 L-541554 64273 L-541120 64273 L-540140 64324 L-540066 64324 L-538981 64273 L-538768 64273 L-538052 64171 L-537664 64120 L-537445 64017 L-537125 63915 L-536632 63813 L-536504 63762 L-536275 63660 L-536043 63557 L-535984 63506 L-535694 63455 L-535422 63353 L-534392 63302 L-532727 63251 L-532308 63199 L-532171 63148 L-532014 63148 L-531709 63097 L-531481 62995 L-531323 62944 L-531163 62842 L-530994 62739 L-530947 62688 L-530893 62637 L-530872 62637 L-530486 62586 L-530236 62586 L-529965 62586 L-529805 62586 L-529715 62586 L-528056 62586 L-527891 62637 L-527511 62586 L-527051 62586 L-526441 62484 L-525348 62433 L-524917 62381 L-524886 62330 L-524823 62279 L-524806 62228 L-523102 62177 L-523060 62126 L-522594 62075 L-522407 62024 L-522375 61921 L-521780 61870 L-521730 61819 L-521407 61768 L-521356 61717 L-521146 61666 L-521128 61615 L-520862 61512 L-520809 61461 L-520340 61410 L-519830 61308 L-519751 61308 L-519457 61257 L-519440 61206 L-519402 61154 L-519331 61103 L-519173 61052 L-518227 61052 L-518171 61052 L-517650 61052 L-517458 61001 L-517357 61001 L-517131 60950 L-516621 60950 L-516233 62330 L-516163 62330 L-515815 62279 L-515458 62228 L-514329 60745 L-514278 60643 L-514052 60592 L-514018 60541 L-513893 60439 L-513794 60439 L-513529 60439 L-512789 60490 L-512211 60490 L-511917 60490 L-511211 60490 L-511032 60439 L-511009 60439 L-510373 60388 L-510062 60336 L-509666 60336 L-509636 60285 L-509615 60234 L-509461 60183 L-508776 60183 L-508760 60183 L-508420 60183 L-508147 60132 L-508110 60081 L-508054 59979 L-508032 59927 L-507960 59876 L-507628 59825 L-507522 59774 L-507493 59672 L-507295 59621 L-507142 59570 L-506274 59518 L-505712 59416 L-505696 59416 L-505594 59365 L-505492 59416 L-505346 59416 L-505267 59416 L-505230 59365 L-505174 59314 L-505101 59263 L-504956 59212 L-504474 59212 L-504070 59161 L-503203 59212 L-503183 59212 L-502926 59212 L-502849 59212 L-502820 59161 L-502809 59058 L-502792 59007 L-502499 58956 L-502460 58905 L-502388 58854 L-502314 58803 L-502109 58752 L-501949 58598 L-501648 58445 L-501571 58240 L-501553 58087 L-501337 57985 L-501106 57985 L-500996 58036 L-500626 58087 L-500468 58087 L-500236 58087 L-500068 58087 L-499923 58036 L-499791 57985 L-498515 57882 L-498112 57780 L-498051 57729 L-497934 57627 L-497509 57576 L-497493 57473 L-497432 57422 L-497158 57320 L-497046 57269 L-496764 57167 L-496486 57116 L-496061 57013 L-496039 56962 L-495961 56911 L-495835 56860 L-495249 56809 L-494857 56758 L-494522 56707 L-493933 56655 L-493830 56655 L-493660 56604 L-493524 56604 L-492696 56553 L-491511 56502 L-491475 56451 L-491419 56451 L-491199 56400 L-490994 56400 L-490839 56400 L-490582 56349 L-490506 56298 L-489963 56246 L-489927 56195 L-489678 56144 L-489290 56093 L-488465 56042 L-488106 55991 L-487796 55991 L-487538 55940 L-487314 55889 L-486908 55837 L-486792 55786 L-486608 55735 L-486555 55735 L-486367 55684 L-486196 55633 L-486167 55582 L-485887 55531 L-485576 55480 L-485438 55428 L-485128 55377 L-484935 55377 L-484919 55326 L-484200 55326 L-484066 55224 L-483769 55173 L-483678 55122 L-483077 55122 L-483039 55071 L-482961 55019 L-482340 54968 L-482189 54866 L-482148 54815 L-481838 54764 L-481646 54713 L-481453 54610 L-481397 54508 L-481088 54457 L-481036 54406 L-480982 54457 L-480956 54457 L-480831 54457 L-480020 54406 L-479944 54355 L-479403 54304 L-479135 54253 L-478475 54201 L-477568 54150 L-477326 54099 L-476794 54048 L-476577 53997 L-475469 54048 L-475419 54048 L-474643 54048 L-474096 53997 L-473985 53946 L-473832 53844 L-473776 53792 L-473611 53741 L-473234 53690 L-472786 53639 L-472732 53588 L-472577 53537 L-471897 53486 L-471677 53435 L-471159 53383 L-470310 53281 L-470294 53230 L-468503 53179 L-467949 53128 L-467832 53077 L-466826 53026 L-466789 52974 L-466557 52974 L-466464 52974 L-466424 52974 L-466092 52923 L-465740 52872 L-465475 52770 L-465188 52719 L-464878 52617 L-464623 52514 L-464530 52463 L-464040 52412 L-463832 52361 L-463267 52310 L-463152 52361 L-462801 52310 L-462750 52310 L-462710 52310 L-462106 52208 L-461372 52105 L-460791 52003 L-460556 51901 L-460015 51747 L-459863 51645 L-459361 51594 L-459152 51492 L-459129 51492 L-459070 51441 L-458107 51441 L-457929 51390 L-457488 51338 L-457463 51236 L-457308 51185 L-457227 51185 L-457076 51236 L-456429 51236 L-456380 51185 L-455260 51134 L-454276 51083 L-454214 51032 L-453493 50981 L-452629 50929 L-452250 50878 L-452031 50878 L-451271 50827 L-451219 50776 L-450910 50674 L-450059 50674 L-449866 50623 L-449689 50572 L-449465 50572 L-449338 50520 L-449146 50520 L-448913 50469 L-448744 50520 L-448457 50469 L-448178 50469 L-448095 50418 L-447924 50367 L-447908 50265 L-447754 50214 L-447715 50163 L-446939 50111 L-446863 50111 L-446630 50009 L-446204 49958 L-445858 49907 L-445275 49856 L-445006 49856 L-444747 49856 L-444618 49754 L-444602 49702 L-444488 49651 L-444464 49600 L-444230 49549 L-444194 49498 L-442878 49498 L-442822 49447 L-442143 49345 L-441571 49345 L-441445 49345 L-441292 49345 L-441215 49345 L-440903 49242 L-440630 49191 L-440541 49089 L-440439 49089 L-439511 49038 L-439435 49038 L-439071 49038 L-439047 48987 L-439010 48936 L-438235 48833 L-438143 48782 L-438003 48731 L-437601 48680 L-437339 48680 L-437096 48731 L-436882 48680 L-436801 48680 L-436725 48680 L-436648 48680 L-436462 48731 L-436395 48731 L-436145 48731 L-436090 48680 L-435953 48629 L-435873 48527 L-435760 48475 L-435537 48424 L-435372 48373 L-435331 48322 L-435162 48271 L-434791 48220 L-434776 48169 L-434660 48118 L-433939 48066 L-433903 48015 L-433770 48015 L-433423 47964 L-433011 47964 L-432975 47964 L-432897 47913 L-432858 47862 L-432494 47811 L-432290 47760 L-432275 47709 L-431929 47657 L-431581 47657 L-431255 47657 L-431153 47606 L-431000 47606 L-430806 47555 L-430574 47555 L-430482 47555 L-430326 47555 L-430249 47555 L-430208 47504 L-430095 47453 L-430072 47402 L-429821 47402 L-429682 47300 L-429104 47146 L-428276 47044 L-427788 46942 L-427667 46891 L-427628 46839 L-427616 46788 L-427463 46686 L-427363 46584 L-427130 46533 L-426739 46430 L-426435 46379 L-426419 46328 L-426249 46277 L-426010 46175 L-425414 46175 L-424810 46124 L-424770 46124 L-424730 46124 L-424577 46073 L-424523 46021 L-424461 45970 L-424393 45919 L-424338 45817 L-424313 45766 L-424266 45715 L-424172 45612 L-424034 45561 L-423881 45510 L-423749 45459 L-423708 45459 L-423672 45408 L-423611 45357 L-423337 45255 L-423023 45203 L-422982 45101 L-422897 45050 L-422719 44999 L-422482 44948 L-422124 44897 L-422095 44846 L-421525 44794 L-421403 44743 L-421167 44692 L-421144 44692 L-420862 44641 L-420577 44641 L-420322 44641 L-419750 44590 L-419453 44539 L-419377 44488 L-418678 44437 L-418600 44385 L-418565 44334 L-418539 44283 L-418487 44181 L-418293 44130 L-418153 44028 L-418117 43976 L-418077 43925 L-417482 43874 L-417249 43823 L-416966 44181 L-416911 44488 L-416837 44846 L-416759 45152 L-416523 45050 L-416279 44999 L-416144 44948 L-416037 44897 L-415958 44846 L-415570 44743 L-415444 44692 L-415291 44641 L-415253 44590 L-415107 44539 L-414886 44488 L-414712 44437 L-414643 44385 L-413821 44283 L-413805 44283 L-413511 44232 L-412723 44181 L-412413 44181 L-412267 44130 L-412039 44079 L-411838 43976 L-410901 43925 L-410864 43874 L-410842 43823 L-410801 43721 L-410532 43670 L-409936 43619 L-409872 43567 L-409837 43516 L-409820 43465 L-409125 43465 L-408923 43465 L-408891 43465 L-408558 43465 L-408450 43414 L-407825 43312 L-407321 43261 L-407284 43158 L-406842 43158 L-406746 43107 L-406587 43107 L-406274 43107 L-406261 43107 L-405821 43158 L-405339 43210 L-405210 43210 L-404890 43210 L-404822 43158 L-404518 43158 L-404342 43107 L-404148 43056 L-403905 42954 L-403708 42852 L-403682 42750 L-403104 42698 L-403034 42647 L-402624 42596 L-402570 42545 L-402524 42494 L-402160 42443 L-402013 42392 L-401808 42341 L-401712 42341 L-401557 42289 L-401495 42238 L-401348 42136 L-401247 42085 L-400690 42085 L-400668 42187 L-400496 42238 L-399954 42289 L-399893 42289 L-399839 42187 L-399811 42085 L-399739 42034 L-399723 41932 L-399659 41880 L-399623 41778 L-399468 41727 L-399143 41676 L-398577 41625 L-398562 41574 L-398500 41471 L-398399 41369 L-398352 41369 L-398110 41318 L-397688 41318 L-397533 41318 L-395791 41216 L-395249 41165 L-394306 41114 L-393897 41062 L-393356 40960 L-393159 40909 L-392991 40858 L-392695 40807 L-392580 40756 L-392565 40756 L-392410 40705 L-392270 40653 L-392194 40551 L-392062 40551 L-391714 40551 L-391343 40602 L-390745 40602 L-390570 40602 L-390413 40551 L-390144 40500 L-389993 40500 L-389702 40653 L-389678 40756 L-389595 40858 L-389368 40960 L-388668 40909 L-388541 40858 L-388110 40807 L-388016 40756 L-386811 40756 L-386762 40705 L-386469 40705 L-386065 40653 L-385789 40551 L-385770 40500 L-385652 40449 L-385576 40398 L-385395 40347 L-384915 40296 L-384463 40193 L-384053 40142 L-384023 40091 L-383604 40040 L-383490 40040 L-383372 40040 L-383357 40040 L-383163 39989 L-383141 39887 L-382909 39835 L-382466 39784 L-382146 39682 L-381681 39682 L-381516 39631 L-381361 39580 L-381205 39580 L-380752 39580 L-380433 39580 L-380378 39631 L-380007 39631 L-379969 39682 L-379643 39682 L-379526 39631 L-379427 39580 L-379101 39478 L-378714 39426 L-378453 39375 L-378095 39273 L-377838 39222 L-375668 39171 L-375619 39120 L-375596 39069 L-375185 39069 L-375123 39069 L-375053 39120 L-374822 39120 L-374512 39069 L-374208 38966 L-374164 38915 L-373856 38864 L-373723 38813 L-373507 38762 L-372794 38711 L-372639 38711 L-372501 38660 L-372352 38660 L-372331 38660 L-372137 38608 L-372111 38557 L-372020 38506 L-371998 38455 L-371982 38404 L-371882 38353 L-370953 38302 L-370495 38302 L-369403 38199 L-368981 38199 L-368577 38148 L-368538 38097 L-368285 38046 L-367510 37944 L-367494 37893 L-367470 37842 L-367277 37790 L-366540 37739 L-366271 37688 L-366230 37637 L-365831 37535 L-365807 37484 L-365017 37433 L-364337 37381 L-362966 37330 L-362696 37279 L-362648 37228 L-362110 37126 L-362077 37075 L-361975 36972 L-361652 36921 L-361572 36870 L-361303 36870 L-360391 36819 L-360252 36819 L-360003 36717 L-359458 36717 L-359036 36666 L-358843 36615 L-358827 36615 L-358689 36512 L-358595 36461 L-358468 36410 L-358208 36359 L-358183 36257 L-358092 36206 L-357782 36154 L-357721 36103 L-357605 36103 L-357255 36103 L-356444 36103 L-356213 36001 L-355384 36001 L-355152 35899 L-354935 35848 L-354417 35848 L-353779 35797 L-353362 35745 L-353040 35694 L-352559 35643 L-352134 35643 L-352072 35592 L-351724 35592 L-351683 35541 L-351670 35490 L-351570 35388 L-351525 35388 L-351039 35336 L-350238 35336 L-349903 35336 L-348822 35285 L-348342 35234 L-348319 35183 L-348179 35132 L-347624 35081 L-346927 35030 L-346618 34979 L-346396 34927 L-346291 34876 L-346189 34774 L-345518 34723 L-345424 34672 L-345402 34672 L-345324 34621 L-345146 34621 L-344974 34621 L-344793 34570 L-344780 34518 L-344704 34467 L-344540 34416 L-344025 34365 L-344009 34314 L-343868 34314 L-343506 34263 L-343482 34263 L-343351 34212 L-343326 34161 L-342964 34109 L-342439 34007 L-342345 33956 L-342129 33854 L-342036 33803 L-342011 33752 L-341547 33700 L-341470 33700 L-341068 33649 L-340618 33649 L-339366 33598 L-339327 33547 L-338895 33496 L-338863 33445 L-338144 33394 L-337967 33343 L-337832 33291 L-337525 33240 L-337470 33189 L-337445 33087 L-337429 32985 L-337254 32934 L-337065 32882 L-336557 32882 L-336184 32473 L-335845 32013 L-335807 31604 L-335088 31246 L-334994 31195 L-334955 31144 L-334414 31144 L-334391 31093 L-333988 31042 L-333562 30991 L-333291 30991 L-333112 30940 L-332866 30837 L-332842 30786 L-332786 30684 L-332169 30633 L-331667 30582 L-331279 30582 L-330660 30633 L-330444 30633 L-330289 30684 L-328997 30582 L-328898 30531 L-328455 30428 L-328124 30377 L-327823 30275 L-327581 30224 L-326846 30122 L-326267 30071 L-325437 30019 L-325337 29968 L-324780 29917 L-324642 29866 L-323000 29815 L-322939 29815 L-322845 29815 L-321878 29815 L-321701 29764 L-321414 29764 L-321196 29764 L-321118 29713 L-320846 29713 L-320731 29662 L-320578 29610 L-320267 29559 L-320189 29508 L-320098 29508 L-320021 29457 L-319905 29457 L-319726 29406 L-319634 29355 L-319595 29304 L-319092 29304 L-318874 29253 L-318744 29253 L-318589 29201 L-318535 29150 L-318410 29150 L-318025 29099 L-317517 29048 L-317444 28997 L-316964 28946 L-316887 28895 L-316787 28895 L-316553 28844 L-316089 28844 L-315859 28844 L-315842 28844 L-315610 28844 L-315455 28844 L-315394 28844 L-315201 28792 L-314930 28690 L-314178 28639 L-313225 28639 L-313189 28588 L-312964 28588 L-312524 28588 L-312244 28486 L-311895 28435 L-310826 28383 L-309898 28383 L-309768 28383 L-309721 28383 L-309652 28332 L-309497 28332 L-309419 28230 L-309246 28128 L-308811 28026 L-308607 27974 L-308547 27872 L-307964 27821 L-307810 27719 L-307695 27668 L-307654 27617 L-307484 27565 L-307348 27514 L-307137 27412 L-307059 27361 L-307036 27310 L-306827 27208 L-306417 27156 L-306393 27105 L-306170 27054 L-306024 27003 L-305990 26952 L-305976 26901 L-305954 26850 L-305720 26799 L-305535 26747 L-305318 26696 L-305292 26645 L-304603 26594 L-304499 26543 L-304464 26492 L-304443 26441 L-304249 26390 L-304196 26338 L-304079 26236 L-303998 26236 L-303887 26185 L-303572 26134 L-303113 26083 L-302858 26032 L-302623 25929 L-302494 25878 L-302141 25827 L-302082 25776 L-301929 25725 L-301357 25623 L-301270 25572 L-301117 25469 L-300821 25367 L-300451 25265 L-300148 25163 L-300072 25111 L-299667 25060 L-299499 25060 L-299355 25060 L-298815 25060 L-298754 25060 L-298738 24958 L-298572 24907 L-298366 24856 L-298291 24856 L-298199 24805 L-297789 24754 L-297773 24702 L-297750 24702 L-297557 24651 L-297480 25111 L-297309 25572 L-297247 25981 L-297232 26441 L-296717 26390 L-296496 26338 L-295877 26236 L-295623 26185 L-295429 26134 L-295390 26083 L-295316 26083 L-295251 26083 L-294601 26083 L-294562 26134 L-294388 26134 L-294322 26134 L-293648 26134 L-293259 26032 L-292997 25981 L-292760 25929 L-292682 25827 L-292666 25725 L-292464 25674 L-292093 25572 L-291868 25520 L-291232 25469 L-291212 25469 L-290825 25418 L-290732 25418 L-290673 25367 L-290397 25316 L-290088 25316 L-290011 25265 L-289159 25316 L-288817 25572 L-288380 25878 L-287946 26134 L-287451 26390 L-287301 26338 L-287033 26390 L-285795 26441 L-285738 26543 L-283975 26594 L-283784 26543 L-282774 26492 L-282623 26441 L-282247 26543 L-281927 26645 L-281321 26747 L-281252 26850 L-281074 26799 L-280246 26747 L-280107 26696 L-279721 26645 L-279536 26594 L-279493 26543 L-279373 26492 L-279163 26441 L-278715 26338 L-278367 26287 L-278235 26236 L-277826 26185 L-277476 26185 L-277190 26134 L-276997 26083 L-276842 26083 L-276678 26032 L-276610 25981 L-276510 25981 L-276277 25929 L-276160 25929 L-276107 25878 L-275565 25878 L-275101 25827 L-273919 25827 L-273786 25827 L-273761 25827 L-273708 25827 L-273041 25827 L-272006 25725 L-271812 25674 L-271632 25623 L-271481 25623 L-271440 25572 L-271425 25572 L-271364 25520 L-271039 25469 L-269878 25418 L-269684 25367 L-269507 25316 L-268393 25265 L-267534 25214 L-267427 25214 L-266954 25163 L-266761 25163 L-264439 25111 L-264362 25060 L-264240 24958 L-264206 24907 L-264169 24805 L-264074 24651 L-263859 24549 L-263277 24447 L-262891 24396 L-262118 24345 L-262040 24293 L-261343 24293 L-260801 24293 L-260761 24242 L-260630 24242 L-260166 24191 L-260128 24140 L-259993 24089 L-259625 24038 L-259595 23987 L-259445 23987 L-259045 23936 L-257221 23987 L-256414 23936 L-255695 23936 L-255678 23936 L-255365 23833 L-254803 23782 L-254302 23731 L-253783 23680 L-253761 23629 L-252017 23578 L-251848 23527 L-251653 23475 L-250759 23424 L-250240 23322 L-250030 23271 L-249772 23220 L-249062 23169 L-248112 23118 L-247454 23066 L-247415 22964 L-247128 22913 L-247046 22862 L-246950 22862 L-246818 22811 L-246741 22811 L-246006 22811 L-245669 22760 L-245619 22811 L-245364 22811 L-245077 22760 L-244652 22760 L-244071 22709 L-243812 22709 L-243661 22657 L-243414 22657 L-243375 22657 L-242578 22606 L-242540 22555 L-242363 22555 L-241954 22453 L-241726 22453 L-241649 22453 L-241518 22453 L-241402 22402 L-241053 22351 L-240990 22300 L-240838 22248 L-240097 22197 L-239986 22146 L-239815 22095 L-239776 22044 L-239482 22044 L-239080 22044 L-238904 22044 L-238809 22044 L-238500 21993 L-237699 21942 L-237240 21839 L-236720 21788 L-236231 21737 L-235536 21686 L-234490 21635 L-234221 21635 L-234166 21584 L-234006 21584 L-233755 21584 L-233509 21533 L-233430 21482 L-233215 21379 L-232903 21328 L-232440 21226 L-232425 21175 L-232129 21175 L-232116 21124 L-231125 21073 L-230452 21021 L-230118 20919 L-229501 20919 L-229364 20868 L-228725 20817 L-228595 20766 L-227644 20664 L-227545 20561 L-226985 20510 L-226577 20510 L-226148 20510 L-226057 20459 L-225222 20459 L-224859 20459 L-224820 20510 L-224687 20561 L-224511 20561 L-224294 20561 L-224240 20510 L-224083 20408 L-223830 20357 L-222730 20306 L-222653 20255 L-222433 20203 L-222302 20101 L-222266 20050 L-222073 19999 L-221973 19948 L-221489 19897 L-221205 19846 L-221045 19794 L-220950 19692 L-220679 19641 L-220409 19590 L-220393 19385 L-220254 19232 L-220116 19079 L-219789 18874 L-219480 18772 L-219439 18721 L-219364 18619 L-219248 18567 L-218398 18465 L-218071 18414 L-217740 18363 L-217607 18363 L-217391 18363 L-217375 18363 L-216695 18363 L-216601 18261 L-216578 18210 L-216562 18107 L-216524 18056 L-216112 17954 L-215842 17903 L-215802 17852 L-215434 17852 L-215224 17801 L-214141 17801 L-214125 17750 L-214096 17698 L-214076 17698 L-213699 17596 L-213444 17545 L-213196 17443 L-213057 17341 L-212925 17289 L-212593 17238 L-212500 17187 L-212439 17136 L-211881 17085 L-211820 17034 L-211664 16983 L-211470 16932 L-211277 16880 L-211262 16829 L-211223 16778 L-211184 16727 L-210914 16676 L-210790 16625 L-210758 16574 L-210659 16574 L-210503 16574 L-210362 16574 L-210078 16523 L-209752 16523 L-209056 16471 L-209034 16471 L-208524 16471 L-207678 16471 L-207315 16420 L-207161 16369 L-206557 16369 L-206387 16369 L-206326 16369 L-206271 16318 L-205215 16267 L-205197 16267 L-204291 16267 L-204270 16267 L-204103 16216 L-203860 16216 L-203810 16165 L-203756 16062 L-203618 16011 L-203579 15960 L-202650 15909 L-202595 15909 L-202473 15909 L-202401 15909 L-202286 15909 L-202107 15960 L-201125 15909 L-200985 15909 L-200868 15807 L-200573 15705 L-200326 15653 L-200289 15602 L-200234 15653 L-200213 15653 L-200080 15653 L-200001 15653 L-199863 15602 L-199240 15602 L-199074 15551 L-198609 15551 L-198433 15449 L-198417 15398 L-198356 15347 L-198240 15296 L-197757 15244 L-197062 15193 L-196689 15142 L-196519 15091 L-195553 15040 L-195398 14989 L-195221 14989 L-195128 14938 L-194873 14938 L-194702 14938 L-194055 14887 L-194044 14887 L-193464 14835 L-193326 14835 L-193271 14733 L-192536 14682 L-192497 14631 L-192419 14631 L-191777 14580 L-191003 14580 L-190910 14529 L-190862 14529 L-190846 14478 L-190810 14478 L-190794 14375 L-190731 14324 L-190715 14273 L-190695 14273 L-190540 14222 L-190501 14171 L-190485 14120 L-190446 14069 L-190307 14017 L-190230 13966 L-189866 13915 L-189518 13864 L-188744 13813 L-188142 13762 L-187945 13711 L-187715 13711 L-187578 13660 L-186940 13660 L-186650 13608 L-186629 13608 L-186168 13557 L-185936 13557 L-185881 13506 L-185842 13455 L-185339 13404 L-184789 13353 L-184001 13302 L-182878 13302 L-181984 13251 L-181896 13251 L-181596 13199 L-181525 13148 L-181409 13097 L-180232 13046 L-179884 12995 L-179861 12944 L-179342 12893 L-179196 12842 L-179087 12790 L-178878 12739 L-178723 12688 L-178701 12637 L-178507 12586 L-178430 12535 L-178286 12484 L-177485 12433 L-177339 12381 L-177059 12330 L-176882 12279 L-176572 12228 L-175761 12177 L-174832 12177 L-173240 12126 L-172997 12075 L-172356 12024 L-172161 11972 L-172083 11921 L-171565 11870 L-171333 11870 L-171310 11819 L-171178 11819 L-170839 11768 L-170828 11717 L-170612 11666 L-170575 11615 L-170033 11563 L-169504 11461 L-169437 11410 L-169144 11359 L-168596 11257 L-168561 11206 L-168508 11154 L-168409 11052 L-168176 11052 L-167596 11052 L-167498 11103 L-167424 11103 L-167092 11052 L-166342 11001 L-166303 10950 L-165623 10950 L-165469 10950 L-165143 10899 L-164927 10848 L-164695 10848 L-164399 10797 L-164153 10745 L-163801 10694 L-163748 10643 L-162989 10592 L-162296 10490 L-161945 10388 L-161481 10336 L-160848 10285 L-160439 10234 L-160361 10285 L-159935 10285 L-159293 10234 L-159123 10234 L-158381 10183 L-158194 10132 L-157899 10081 L-157327 10030 L-157302 9979 L-156282 9979 L-155795 9927 L-155702 9927 L-155641 9876 L-155353 9825 L-155067 9774 L-155006 9723 L-154826 9723 L-154115 9672 L-153939 9621 L-153740 9570 L-153589 9518 L-153497 9467 L-153435 9416 L-152893 9416 L-152583 9365 L-152491 9263 L-152414 9161 L-151846 9109 L-151755 9109 L-151501 9007 L-151174 8905 L-151137 8752 L-150982 8598 L-150750 8547 L-150428 8496 L-149295 8445 L-149096 8394 L-148570 8343 L-148326 8343 L-148080 8291 L-148000 8240 L-147980 8138 L-147903 8087 L-147848 7985 L-147771 7934 L-147732 7882 L-147553 7780 L-147516 7729 L-147284 7678 L-146047 7627 L-145720 7576 L-145680 7473 L-144899 7422 L-144752 7371 L-143760 7320 L-143553 7320 L-143128 7320 L-143000 7320 L-142596 7371 L-142508 7320 L-141851 7269 L-141144 7218 L-140535 7167 L-140342 7116 L-140109 7013 L-139491 6962 L-139195 6860 L-138756 6809 L-138601 6758 L-138446 6707 L-137690 6604 L-137340 6553 L-136937 6553 L-136899 6502 L-135893 6502 L-135573 6502 L-135326 6451 L-134626 6349 L-134553 6298 L-134240 6246 L-133160 6195 L-132969 6144 L-132735 6144 L-132540 6093 L-132040 6042 L-131286 6042 L-131173 6042 L-130972 6042 L-130931 5991 L-130838 5940 L-130525 5889 L-130437 5837 L-130321 5786 L-130003 5786 L-129934 5735 L-129909 5684 L-129547 5633 L-129509 5582 L-129292 5531 L-128789 5582 L-128187 5633 L-127975 5735 L-127822 5786 L-127784 5786 L-127740 5684 L-127706 5633 L-127573 5582 L-127164 5531 L-126793 5480 L-126739 5428 L-126723 5377 L-126644 5326 L-126235 5275 L-126081 5224 L-126065 5122 L-126026 5071 L-125847 4968 L-125771 4917 L-125540 4866 L-124750 4815 L-124673 4815 L-123938 4713 L-123782 4662 L-123542 4559 L-123480 4457 L-123395 4406 L-123372 4304 L-123254 4201 L-123240 4099 L-123178 3997 L-123141 3946 L-123047 3895 L-123025 3895 L-122908 3844 L-122676 3792 L-122506 3690 L-121686 3690 L-121284 3639 L-121129 3639 L-120624 3639 L-120510 3639 L-119914 3639 L-119539 3588 L-119488 3588 L-119294 3537 L-118597 3537 L-118559 3486 L-118414 3486 L-118189 3435 L-117927 3383 L-117553 3332 L-117128 3281 L-116998 3230 L-116978 3128 L-116485 3128 L-115789 3077 L-115557 3128 L-115403 3128 L-114435 3128 L-114210 3179 L-113932 3179 L-113916 3128 L-113390 3077 L-112861 3026 L-112713 2974 L-112694 2923 L-112152 2872 L-111842 2821 L-111725 2719 L-111533 2617 L-111397 2514 L-111070 2463 L-110953 2412 L-110643 2412 L-110217 2361 L-110161 2361 L-109929 2412 L-109832 2412 L-109699 2412 L-109403 2412 L-109289 2361 L-108924 2310 L-108612 2310 L-108129 2259 L-107958 2208 L-107710 2156 L-107494 2105 L-106968 2054 L-106782 1952 L-106426 1901 L-105791 1850 L-105637 1747 L-104896 1696 L-104476 1645 L-104296 1594 L-104220 1594 L-104089 1543 L-103795 1492 L-103754 1441 L-103524 1441 L-103332 1390 L-103077 1390 L-102650 1338 L-102541 1287 L-101923 1287 L-101741 1287 L-100530 1287 L-99882 1338 L-99732 1338 L-99694 1338 L-99562 1338 L-99461 1287 L-99445 1236 L-99364 1185 L-99152 1134 L-99035 1083 L-98673 1032 L-98301 981 L-97604 929 L-97202 878 L-97097 827 L-97079 776 L-96134 725 L-95939 623 L-95787 572 L-95732 469 L-94975 469 L-94958 572 L-94469 623 L-94339 725 L-94146 725 L-93256 674 L-93216 623 L-93178 572 L-93101 520 L-93062 520 L-92985 469 L-92901 418 L-92637 367 L-92405 316 L-92343 265 L-91862 214 L-91526 214 L-91414 163 L-91221 111 L-91044 60 L-90985 60 L-90949 9 L-90679 -41 L-89981 -143 L-89928 -245 L-89634 -348 L-89232 -450 L-88668 -501 L-87795 -552 L-87490 -603 L-87452 -654 L-87329 -706 L-86731 -757 L-86601 -808 L-86401 -859 L-86364 -910 L-85750 -961 L-85571 -1012 L-85556 -1115 L-85338 -1166 L-85260 -1268 L-84953 -1268 L-84821 -1319 L-84589 -1319 L-84255 -1319 L-84163 -1370 L-84063 -1421 L-84025 -1472 L-83482 -1472 L-83289 -1524 L-82748 -1575 L-82322 -1626 L-82190 -1626 L-82129 -1626 L-81898 -1626 L-81881 -1626 L-81393 -1575 L-81312 -1575 L-81295 -1575 L-79902 -1524 L-79766 -1524 L-79652 -1575 L-79018 -1626 L-78878 -1677 L-78760 -1728 L-78607 -1830 L-78570 -1881 L-78491 -1933 L-78437 -1881 L-77445 -1881 L-77409 -1933 L-77276 -1933 L-77215 -2035 L-77116 -2086 L-76826 -2137 L-76812 -2188 L-76502 -2188 L-76403 -2137 L-75937 -2188 L-75884 3230 L-75741 8598 L-75613 14017 L-75381 19437 L-74812 19385 L-74723 19334 L-74701 19334 L-74414 19283 L-73731 19232 L-73654 19181 L-73618 19130 L-73601 19079 L-73402 19028 L-72981 18925 L-72710 18925 L-71837 18874 L-71544 18874 L-71434 18874 L-70699 18823 L-70572 18772 L-70213 18721 L-69960 18721 L-69089 18670 L-68920 18670 L-68858 18619 L-68803 18567 L-68455 18516 L-68432 18465 L-68223 18414 L-68083 18363 L-67952 18312 L-67829 18261 L-67706 18210 L-67469 18158 L-67179 18107 L-66520 18056 L-66498 18005 L-66343 17954 L-66225 17903 L-65261 17852 L-65205 17801 L-64973 17750 L-64950 17698 L-64624 17647 L-64509 17647 L-64469 17596 L-63967 17596 L-63668 17545 L-63557 17494 L-63014 17443 L-61955 17392 L-61329 17341 L-61158 17289 L-60910 17238 L-60654 17187 L-60523 17136 L-60501 17085 L-59834 17034 L-58937 16983 L-58891 16932 L-58821 16880 L-58705 16880 L-58485 16829 L-58294 16829 L-58255 16778 L-58062 16727 L-57403 16727 L-56786 16676 L-56747 16983 L-56151 17289 L-56089 17545 L-54967 17801 L-54913 17801 L-54792 17750 L-54526 17698 L-54463 17698 L-54194 17698 L-54117 17647 L-53901 17647 L-53419 17596 L-53149 17545 L-53018 17545 L-52785 17443 L-52760 17289 L-52746 17085 L-52723 16829 L-52707 16574 L-52683 16318 L-52669 16011 L-52646 15705 L-52630 15398 L-52607 15142 L-52592 14887 L-52570 14631 L-52553 14478 L-52525 14324 L-52508 14120 L-52490 14017 L-52453 13864 L-52413 13762 L-52398 13660 L-52373 13506 L-52321 13404 L-52297 13302 L-52220 13199 L-52182 13148 L-52167 13046 L-52104 12944 L-52089 12842 L-52043 12688 L-51972 12586 L-51934 12535 L-51910 12433 L-51857 12330 L-51832 12279 L-51817 12228 L-51755 12177 L-51718 12126 L-51641 12075 L-51625 12024 L-51597 11921 L-51524 11870 L-51485 11819 L-51331 11717 L-51215 11666 L-51161 11615 L-51078 11563 L-51045 11512 L-51021 11461 L-50866 11410 L-50851 11359 L-50750 11308 L-50439 11257 L-50403 11206 L-50188 11154 L-50077 11154 L-50052 11154 L-49822 11206 L-49589 11206 L-49214 11154 L-49087 11103 L-49047 11052 L-48994 11001 L-48893 10950 L-48856 10899 L-48646 10899 L-48581 10848 L-48469 10848 L-48257 10797 L-48220 10745 L-47848 10694 L-47795 10643 L-47716 10592 L-47694 10541 L-47601 10490 L-47401 10439 L-47363 10439 L-47342 10439 L-47112 10439 L-47091 10388 L-46882 10388 L-46787 10336 L-46749 10285 L-46413 10234 L-46300 10183 L-46260 10132 L-46247 10132 L-46107 10081 L-46092 10081 L-45838 10081 L-45255 10030 L-45179 9979 L-45141 9927 L-45096 9876 L-45048 9825 L-44868 9774 L-44853 9723 L-44753 9672 L-44676 9621 L-44615 9570 L-44250 9467 L-44168 9416 L-44150 9365 L-44096 9314 L-43128 9263 L-42996 9212 L-42975 9161 L-42754 9109 L-42686 9058 L-42663 9007 L-42417 8956 L-42161 8905 L-42030 8854 L-41990 8803 L-41969 8700 L-41913 8598 L-41825 8547 L-41764 8445 L-41539 8394 L-41410 8343 L-41310 8291 L-41256 8240 L-41062 8189 L-40984 8138 L-40651 8087 L-40520 8036 L-40343 7985 L-40327 7934 L-40302 7882 L-40033 7882 L-38832 7831 L-38795 7831 L-38679 7780 L-38445 7729 L-38254 7678 L-38215 7678 L-38160 7627 L-38055 7627 L-37541 7576 L-37247 7525 L-37015 7473 L-36740 7422 L-36723 7371 L-36690 7320 L-36650 7269 L-36613 7218 L-36511 7167 L-36434 7116 L-36341 7064 L-36215 7013 L-36110 6962 L-35932 6962 L-35739 6911 L-34910 6911 L-34794 6860 L-34540 6809 L-34500 6758 L-34401 6707 L-34340 6707 L-34098 6655 L-34074 6655 L-33953 6604 L-33882 6553 L-33842 6502 L-33611 6451 L-33434 6400 L-32914 6349 L-32838 6298 L-32821 6246 L-32410 6246 L-32047 6246 L-31931 6195 L-31909 6195 L-31868 6144 L-31792 6093 L-31738 6042 L-31389 5991 L-31273 5940 L-31096 5940 L-31041 5889 L-31017 5889 L-30903 5837 L-30615 5786 L-30383 5735 L-30168 5684 L-29958 5633 L-29748 5531 L-28921 5480 L-28582 5428 L-27574 5377 L-27211 5326 L-26166 5275 L-26088 5224 L-25641 5173 L-25430 5122 L-25238 5071 L-24944 5019 L-24903 4968 L-24749 4917 L-24696 4815 L-24464 4764 L-23884 4713 L-23690 4662 L-23071 4662 L-22582 4610 L-22530 4559 L-21881 4508 L-21731 4457 L-21562 4406 L-21189 4355 L-21173 4355 L-21074 4304 L-21036 4304 L-20905 4253 L-20471 4253 L-20168 4253 L-19783 4253 L-19643 4201 L-19481 4201 L-19047 4201 L-19009 4150 L-18907 4150 L-18792 4099 L-18614 4099 L-18444 4048 L-18326 3997 L-17964 3895 L-17747 3844 L-17614 3792 L-17474 3792 L-16975 3792 L-16897 3792 L-16663 3741 L-16339 3741 L-15952 3690 L-15930 3639 L-15309 3639 L-15039 3588 L-14806 3588 L-14381 3537 L-14110 3486 L-13968 3435 L-13759 3383 L-13554 3332 L-13002 3281 L-12871 3281 L-12485 3230 L-12214 3230 L-12111 3179 L-11851 3128 L-11650 3077 L-11580 3026 L-11542 2974 L-10974 2923 L-10767 2872 L-10740 2821 L-10511 2770 L-10434 2719 L-9917 2668 L-9878 2617 L-9723 2565 L-9429 2514 L-9158 2463 L-8794 2412 L-8446 2412 L-8074 2361 L-7953 2361 L-7881 2310 L-7402 2259 L-7339 2208 L-7004 2156 L-6873 2105 L-6795 2054 L-6666 2003 L-6202 2003 L-5908 1952 L-5832 1952 L-5520 1901 L-5212 1850 L-5149 1799 L-5119 1747 L-4344 1696 L-4240 1594 L-4152 1543 L-4129 1492 L-3975 1441 L-3753 1390 L-3586 1338 L-3199 1287 L-3145 1236 L-3081 1236 L-2464 1185 L-2347 1134 L-2024 1083 L-1498 1032 L-1148 981 L-1072 929 L-452 878 L-41 827 L259 776 L570 725 L708 674 L1332 674 L1713 623 L2837 623 L3897 572 L3960 520 L4320 469 L4422 469 L4438 418 L4812 418 L5817 316 L6204 265 L6411 163 L6500 111" />
</svg>
