<svg xmlns="http://www.w3.org/2000/svg" version="1.1" viewBox="0 0 6500 1000">
	<path fill="none" stroke="gold" stroke-width="125" stroke-linecap="round" stroke-linejoin="round" d="M0 1338  L-27042 1338 L-26630 1170 L-26405 1254 L-26348 1170 L-26310 1003 L-26126 835 L-25636 668 L-25342 584 L-25031 500 L-24796 333 L-24743 165 L-24684 -1 L-24530 -85 L-24490 -169 L-24357 -252 L-24065 -169 L-23524 -252 L-22914 -420 L-22866 -252 L-22226 -420 L-22193 -336 L-21667 -504 L-21534 -587 L-21144 -922 L-20816 -1090 L-20699 -1257 L-20488 -1090 L-19771 -1174 L-19201 -1257 L-19094 -1341 L-18919 -1509 L-18698 -1676 L-18296 -1760 L-18270 -1927 L-17343 -2095 L-17255 -2262 L-17173 -2430 L-17103 -2597 L-16805 -2681 L-16653 -2765 L-14763 -2262 L-14662 -2514 L-14400 -2681 L-14107 -2514 L-13965 -2681 L-13716 -2765 L-13681 -2849 L-13522 -3016 L-13059 -3100 L-12806 -3268 L-12594 -3351 L-12342 -3435 L-11993 -3603 L-11066 -3770 L-10972 -3938 L-10561 -4021 L-9391 -4105 L-8202 -4273 L-8109 -4440 L-8082 -4608 L-7816 -4859 L-7517 -5026 L-7388 -5110 L-7351 -5278 L-6536 -4691 L-6152 -4775 L-5092 -4943 L-5030 -5026 L-4765 1757 L-4294 1673 L-4102 1505 L-3838 1422 L-3501 1338 L-3366 1422 L-2910 1170 L-2167 1087 L-2149 919 L-1984 835 L-1916 1003 L-1400 919 L-371 752 L-175 584 L313 668 L675 584 L1083 752 L1469 835 L3173 752 L3271 668 L3342 752 L3404 668 L3588 584 L3925 500 L4565 333 L4642 500 L4703 417 L4890 333 L4969 249 L5147 165 L5166 249 L5396 165 L5784 82" />
</svg>
