<svg xmlns="http://www.w3.org/2000/svg" version="1.1" viewBox="0 0 6500 1000">
	<path fill="none" stroke="gold" stroke-width="125" stroke-linecap="round" stroke-linejoin="round" d="M0 182071  L-1201491 182071 L-1201307 182015 L-1200817 181902 L-1200523 181846 L-1200212 181733 L-1199977 181677 L-1199924 181564 L-1199865 181452 L-1199712 181395 L-1199671 181283 L-1199538 181226 L-1199246 181170 L-1198705 181170 L-1198095 181114 L-1198047 181114 L-1197407 181057 L-1197374 181057 L-1196848 181057 L-1196715 181001 L-1196325 180889 L-1195997 180776 L-1195880 180663 L-1195669 180551 L-1194952 180551 L-1194382 180494 L-1194275 180494 L-1194100 180438 L-1193879 180326 L-1193477 180269 L-1193452 180157 L-1192524 180044 L-1192436 179931 L-1192354 179819 L-1192284 179706 L-1191986 179650 L-1191834 179537 L-1189944 179594 L-1189843 179594 L-1189581 179594 L-1189288 179650 L-1189146 179537 L-1188897 179537 L-1188862 179481 L-1188703 179425 L-1188240 179312 L-1187987 179256 L-1187775 179143 L-1187523 179087 L-1187174 179030 L-1186247 178918 L-1186153 178805 L-1185742 178749 L-1184572 178636 L-1183383 178580 L-1183290 178467 L-1183263 178355 L-1182997 178242 L-1182698 178130 L-1182569 178017 L-1182532 177904 L-1181717 177904 L-1181333 177961 L-1180273 178017 L-1180211 178017 L-1179946 179143 L-1179475 180213 L-1179283 181283 L-1179019 182353 L-1178682 182296 L-1178547 182240 L-1178091 182184 L-1177348 182127 L-1177330 182071 L-1177165 181958 L-1177097 181958 L-1176581 181902 L-1175552 181902 L-1175356 181846 L-1174867 181789 L-1174505 181733 L-1174097 181733 L-1173711 181789 L-1172007 181789 L-1171909 181789 L-1171838 181789 L-1171776 181789 L-1171592 181733 L-1171255 181733 L-1170615 181677 L-1170538 181621 L-1170477 181621 L-1170290 181564 L-1170211 181564 L-1170033 181508 L-1170014 181452 L-1169784 181452 L-1169396 181395 L-1168508 181395 L-1168468 181339 L-1168380 181283 L-1168353 181170 L-1167345 181114 L-1167195 181001 L-1167171 180945 L-1167038 180889 L-1166998 180832 L-1165740 180776 L-1165682 180776 L-1165142 180720 L-1165090 180720 L-1165043 180720 L-1164648 180663 L-1164508 180607 L-1164309 180551 L-1164162 180551 L-1163997 180551 L-1163721 180607 L-1163362 180607 L-1162809 180551 L-1162164 180494 L-1161906 180382 L-1161752 180326 L-1161351 180269 L-1161311 180213 L-1161190 180157 L-1161128 180213 L-1161114 180213 L-1161021 180213 L-1160728 180157 L-1160576 179931 L-1160246 179819 L-1160168 179706 L-1160092 179650 L-1159866 179481 L-1159799 179368 L-1159571 179256 L-1159519 179143 L-1159354 179087 L-1158348 179030 L-1158165 178974 L-1157614 178918 L-1157221 178805 L-1156824 178749 L-1155973 178636 L-1155895 178580 L-1155316 178524 L-1154875 178524 L-1154634 178467 L-1154477 178467 L-1154076 178355 L-1154055 178355 L-1153610 178298 L-1153205 178242 L-1153069 178130 L-1152894 178017 L-1152758 177904 L-1152507 177792 L-1151507 177735 L-1151425 177679 L-1151290 177623 L-1151251 177567 L-1150361 177510 L-1150146 177454 L-1149702 177398 L-1149585 177341 L-1149528 177285 L-1148852 177285 L-1148752 177229 L-1148723 177229 L-1147381 177172 L-1146975 177116 L-1146936 177060 L-1146007 177003 L-1145909 176947 L-1145776 176891 L-1145372 176835 L-1145346 176778 L-1145253 176722 L-1145037 176666 L-1144626 176553 L-1143472 176440 L-1143180 176328 L-1143152 176215 L-1142544 176159 L-1142293 176046 L-1142274 175990 L-1141344 175934 L-1141293 175821 L-1141171 175765 L-1141153 175652 L-1140997 175596 L-1140822 175483 L-1140685 175427 L-1140629 175371 L-1140521 175314 L-1140436 175258 L-1140202 175202 L-1140128 175145 L-1139819 175089 L-1139701 175033 L-1139531 174976 L-1139440 174920 L-1139338 174920 L-1139314 174864 L-1139237 174864 L-1139139 174751 L-1138773 174695 L-1138668 174639 L-1138164 174582 L-1137713 174526 L-1137674 174470 L-1137650 174413 L-1137610 174357 L-1137481 174301 L-1137380 174244 L-1136938 174188 L-1136656 174132 L-1136064 174076 L-1135933 174019 L-1135659 173907 L-1135506 173850 L-1135353 173794 L-1135268 173681 L-1135190 173625 L-1135004 173569 L-1134954 173569 L-1134926 173512 L-1134847 173456 L-1134823 173400 L-1134540 173287 L-1133936 173175 L-1132941 173118 L-1132643 173062 L-1131909 173006 L-1131665 172949 L-1131575 172893 L-1130997 172837 L-1130299 172780 L-1129547 172724 L-1129228 172668 L-1128845 172555 L-1128768 172499 L-1128134 172443 L-1127948 172386 L-1127861 172386 L-1127731 172386 L-1127418 172330 L-1127369 172274 L-1127227 172217 L-1127205 172161 L-1126238 172105 L-1125692 172048 L-1125214 172048 L-1125153 172048 L-1124829 172048 L-1124808 171992 L-1124745 171992 L-1124535 171936 L-1124458 171880 L-1124404 171823 L-1124381 171767 L-1124342 171711 L-1124326 171654 L-1123569 171598 L-1123552 171542 L-1122753 171485 L-1122601 171429 L-1121695 171373 L-1121189 171317 L-1120960 171204 L-1120918 171204 L-1120803 171148 L-1120627 171091 L-1119872 171148 L-1119738 171091 L-1119574 171035 L-1119255 170979 L-1119079 170866 L-1118057 170753 L-1118034 170641 L-1117783 170585 L-1117570 170472 L-1116936 170416 L-1116698 170303 L-1116665 170190 L-1116487 170078 L-1116407 169965 L-1116317 169909 L-1116253 169796 L-1115812 169684 L-1115789 169627 L-1115248 169571 L-1114992 169515 L-1114498 169458 L-1113620 169402 L-1113583 169346 L-1113531 169289 L-1113490 169233 L-1113372 169177 L-1113096 169121 L-1112889 169008 L-1112692 168895 L-1112669 168783 L-1112618 168670 L-1112579 168614 L-1112501 168557 L-1111904 168445 L-1111843 168389 L-1111740 168332 L-1111586 168276 L-1110954 168220 L-1110273 168163 L-1109970 168051 L-1109624 167994 L-1109426 167938 L-1109378 167826 L-1109057 167769 L-1108430 167713 L-1108283 167657 L-1108247 167600 L-1108189 167544 L-1108112 167431 L-1107871 167431 L-1107783 167375 L-1107689 167319 L-1107395 167262 L-1107261 167206 L-1107200 167150 L-1107164 167037 L-1106891 167037 L-1105885 166981 L-1105710 166925 L-1105659 166925 L-1105366 166868 L-1105174 166756 L-1104841 166699 L-1104334 166643 L-1103772 166530 L-1103757 166418 L-1103741 166362 L-1103640 166249 L-1103526 166136 L-1103487 166024 L-1103449 165967 L-1103383 165967 L-1103355 165911 L-1103216 165967 L-1102923 165967 L-1102873 165967 L-1102768 165967 L-1102504 165911 L-1102039 165855 L-1101894 165855 L-1101840 165742 L-1101783 165686 L-1101592 165630 L-1101226 165573 L-1101012 165573 L-1100817 165573 L-1100759 165573 L-1100700 165461 L-1100546 165404 L-1100277 165348 L-1099847 165630 L-1099832 165630 L-1099755 165573 L-1099690 165517 L-1099561 165123 L-1099537 165067 L-1099253 165010 L-1099205 164954 L-1099151 164898 L-1098688 164841 L-1098650 164841 L-1098609 164785 L-1098419 164729 L-1097938 164672 L-1097451 164616 L-1097435 164560 L-1097397 164503 L-1097140 164447 L-1097063 164335 L-1096833 164278 L-1096817 164166 L-1096523 164053 L-1096080 163997 L-1095633 163940 L-1095129 163884 L-1094975 163828 L-1094688 163771 L-1094648 163659 L-1094317 163603 L-1094095 163546 L-1093578 163434 L-1093502 163377 L-1093255 163265 L-1093060 163152 L-1093000 163096 L-1092224 163039 L-1092150 163039 L-1091919 162983 L-1091903 162983 L-1091841 162927 L-1091645 162871 L-1091181 162871 L-1091158 162814 L-1091028 162814 L-1089727 162814 L-1089711 162814 L-1089634 162758 L-1089540 162758 L-1089323 162758 L-1089170 162702 L-1088992 162758 L-1088938 162814 L-1088651 162871 L-1088611 162871 L-1088242 162871 L-1087802 162871 L-1087619 162871 L-1087298 162814 L-1087002 162814 L-1086556 162702 L-1086485 162645 L-1086022 162533 L-1085585 162476 L-1085402 162420 L-1083948 162307 L-1083816 162251 L-1083359 162139 L-1083133 162082 L-1082747 161970 L-1082230 161857 L-1081276 161744 L-1080482 161632 L-1079807 161576 L-1079382 161463 L-1079071 161407 L-1078841 161238 L-1078158 161069 L-1078144 160900 L-1077935 160675 L-1077913 160618 L-1077738 160506 L-1076788 160449 L-1076520 160337 L-1075705 160280 L-1075394 160168 L-1075357 160112 L-1075299 159999 L-1074683 159943 L-1074045 159830 L-1072419 159774 L-1071745 159717 L-1071103 159717 L-1071025 159717 L-1070969 159717 L-1070933 159717 L-1070905 159661 L-1070793 159548 L-1070775 159492 L-1070752 159436 L-1070599 159380 L-1070545 159267 L-1070467 159211 L-1070348 159154 L-1070250 159098 L-1070133 159042 L-1069864 158929 L-1069594 158873 L-1069576 158760 L-1069377 158704 L-1069230 158591 L-1069003 158535 L-1068869 158479 L-1068560 158422 L-1068500 158366 L-1068147 158253 L-1067798 158197 L-1067697 158141 L-1067633 158028 L-1067573 157972 L-1067189 157859 L-1066808 157803 L-1066704 157747 L-1066443 157690 L-1066172 157578 L-1066013 157521 L-1065981 157465 L-1065919 157409 L-1065777 157353 L-1065593 157296 L-1065549 157240 L-1065261 157240 L-1065245 157184 L-1065011 157184 L-1064951 157127 L-1064912 157127 L-1064332 157071 L-1064199 157015 L-1064175 156789 L-1064157 156395 L-1064140 155945 L-1064123 155494 L-1064099 155044 L-1064083 154706 L-1064062 154312 L-1064045 153918 L-1064022 153693 L-1064005 153467 L-1063984 153298 L-1063967 153186 L-1063918 153017 L-1063846 152848 L-1063811 152567 L-1063787 152341 L-1063752 152116 L-1063710 151891 L-1063673 151778 L-1063657 151553 L-1063633 151384 L-1063596 151271 L-1063579 151103 L-1063556 150990 L-1063538 150877 L-1063520 150765 L-1063504 150652 L-1063475 150483 L-1063449 150314 L-1063403 150258 L-1063387 150145 L-1063345 150089 L-1063297 149976 L-1063226 149864 L-1063211 149751 L-1063195 149639 L-1063133 149582 L-1063093 149526 L-1063054 149470 L-1062888 149413 L-1062823 149357 L-1062807 149301 L-1062763 149188 L-1062704 149132 L-1062492 149076 L-1062458 149019 L-1062416 148963 L-1062338 148907 L-1061801 148850 L-1061722 148794 L-1061618 148681 L-1061530 148625 L-1061353 148569 L-1061003 148512 L-1060847 148456 L-1060409 148400 L-1060252 148344 L-1060123 148287 L-1059419 148175 L-1059218 148118 L-1058257 148006 L-1057775 147949 L-1057675 147949 L-1057583 147893 L-1057338 147837 L-1057265 147780 L-1056822 147668 L-1056726 147612 L-1056711 147555 L-1056695 147499 L-1056670 147443 L-1056204 147386 L-1055987 147330 L-1055848 147274 L-1055554 147217 L-1055465 147161 L-1055424 147105 L-1055394 147048 L-1055222 146992 L-1055163 146936 L-1055087 146880 L-1055006 146823 L-1054936 146823 L-1054627 146767 L-1054542 146711 L-1054328 146654 L-1054293 146598 L-1053609 146542 L-1053511 146485 L-1053306 146429 L-1053259 146373 L-1052981 146317 L-1052918 146260 L-1052901 146148 L-1052823 146091 L-1052515 145979 L-1052491 145922 L-1052437 145810 L-1052414 145753 L-1052292 145697 L-1052156 145585 L-1051912 145528 L-1051786 145528 L-1051139 145472 L-1051123 145472 L-1051099 145472 L-1050918 145359 L-1050842 145303 L-1050751 145247 L-1050323 145190 L-1049907 145134 L-1049514 145021 L-1049435 144965 L-1049416 144909 L-1049053 144853 L-1048817 144796 L-1048588 144740 L-1048275 144684 L-1048197 144627 L-1048117 144515 L-1047938 144402 L-1047923 144346 L-1047657 144233 L-1047577 144177 L-1047347 144121 L-1047121 144064 L-1046805 144064 L-1046630 144008 L-1046269 144008 L-1045877 143952 L-1045808 143839 L-1045744 143783 L-1045604 143670 L-1045552 143614 L-1045451 143501 L-1044949 143445 L-1044751 143389 L-1044505 143332 L-1044319 143276 L-1044020 143220 L-1043943 143163 L-1043777 143051 L-1042893 142994 L-1042864 142882 L-1042741 142769 L-1042163 142713 L-1042085 142657 L-1041371 142657 L-1041060 142657 L-1040846 142657 L-1040830 142657 L-1040443 142657 L-1039918 142544 L-1039472 142488 L-1039142 142431 L-1038990 142375 L-1038664 142375 L-1038485 142319 L-1038404 142319 L-1038198 142206 L-1038022 142150 L-1037093 142094 L-1036204 142037 L-1036165 141981 L-1035937 141981 L-1035558 141925 L-1034770 141868 L-1034536 141812 L-1034460 141756 L-1034102 141699 L-1033531 141587 L-1033264 141530 L-1032877 141474 L-1032773 141474 L-1032603 141474 L-1031985 141474 L-1031774 141474 L-1031466 141474 L-1031413 141418 L-1031285 141362 L-1031232 141305 L-1031113 141249 L-1030777 141136 L-1029817 141080 L-1029686 140967 L-1029484 140911 L-1028853 140855 L-1028542 140798 L-1028128 140742 L-1028100 140686 L-1027955 140630 L-1027535 140573 L-1026202 140573 L-1026156 140517 L-1026027 140404 L-1026010 140348 L-1025432 140235 L-1025227 140179 L-1025197 140123 L-1025156 140067 L-1025099 140010 L-1025061 139954 L-1024983 139898 L-1024840 139841 L-1024386 139785 L-1024267 139729 L-1023982 139672 L-1023609 139616 L-1023513 139560 L-1023186 139503 L-1022832 139447 L-1022662 139391 L-1022615 139335 L-1022506 139278 L-1022417 139222 L-1022389 139166 L-1022312 139053 L-1022009 138997 L-1021975 138884 L-1021904 138828 L-1021536 138771 L-1021200 138715 L-1021119 138715 L-1020900 138659 L-1020728 138603 L-1020700 138546 L-1020203 138490 L-1019654 138377 L-1018774 138321 L-1018675 138208 L-1018598 138152 L-1018324 138096 L-1018076 137983 L-1018003 137927 L-1017941 137814 L-1017822 137758 L-1017780 137702 L-1017670 137645 L-1017593 137533 L-1016892 137476 L-1016647 137420 L-1016607 137364 L-1016451 137307 L-1015851 137307 L-1015624 137307 L-1015532 137307 L-1015057 137307 L-1014460 137195 L-1013940 137139 L-1013919 137082 L-1013774 137026 L-1013454 137026 L-1012912 137026 L-1012680 137026 L-1012509 137026 L-1012023 136970 L-1011795 136913 L-1011710 136857 L-1011364 136801 L-1011038 136801 L-1010515 136744 L-1010188 136688 L-1009587 136632 L-1009390 136519 L-1009338 136463 L-1009297 136407 L-1009016 136350 L-1008332 136238 L-1008021 136181 L-1007997 136069 L-1007805 136012 L-1007583 135956 L-1007497 135900 L-1006833 135787 L-1006809 135731 L-1006587 135618 L-1006257 135562 L-1005905 135449 L-1005700 135393 L-1005467 135280 L-1005210 135224 L-1005020 135112 L-1004973 135055 L-1004746 134999 L-1004711 134943 L-1004555 134886 L-1004340 134830 L-1004167 134774 L-1004076 134717 L-1003799 134661 L-1003555 134605 L-1003239 134548 L-1002813 134548 L-1002776 134548 L-1002292 134548 L-1002059 134548 L-1001847 134492 L-1001621 134436 L-1001071 134436 L-1000824 134380 L-999990 134380 L-999934 134323 L-999913 134267 L-999755 134211 L-999293 134154 L-999252 134098 L-998912 133985 L-998779 133929 L-998556 133873 L-997984 133817 L-997512 133760 L-997318 133704 L-997125 133648 L-996935 133591 L-996834 133535 L-996465 133479 L-996419 133422 L-996338 133366 L-995044 133310 L-994996 133253 L-994728 133253 L-994582 133253 L-994032 133253 L-993915 133197 L-993833 133141 L-993474 133085 L-993250 133028 L-992969 132972 L-992640 132859 L-992132 132803 L-992019 132747 L-991941 132690 L-991776 132634 L-991482 132634 L-991013 132634 L-990816 132690 L-990766 132690 L-990116 132634 L-989994 132578 L-989540 132578 L-989504 132521 L-989036 132465 L-988925 132409 L-988909 132353 L-988693 132353 L-988512 132296 L-987981 132296 L-986951 132296 L-986751 132240 L-986293 132184 L-985345 132071 L-985246 132015 L-984892 131902 L-984832 131846 L-984817 131789 L-984782 131733 L-984412 131677 L-984292 131621 L-984050 131564 L-983887 131508 L-983699 131452 L-983579 131395 L-982508 131283 L-981650 131226 L-981437 131114 L-981340 131057 L-981166 130945 L-980833 130889 L-980761 130832 L-980704 130776 L-980528 130776 L-980139 130720 L-979904 130663 L-979793 130607 L-979676 130551 L-978695 130494 L-978669 130438 L-978075 130326 L-978042 130326 L-977894 130269 L-977609 130213 L-976698 130213 L-975751 130213 L-975598 130157 L-975496 130157 L-975364 130100 L-975221 130044 L-975195 129988 L-975081 129931 L-974862 129875 L-974181 129819 L-974052 129762 L-973748 129706 L-973508 129594 L-973176 129537 L-972537 129481 L-972195 129368 L-972133 129312 L-971977 129312 L-971056 129312 L-970585 129312 L-970542 129312 L-970529 129256 L-970487 129199 L-970465 129143 L-970439 129087 L-970295 129030 L-969872 128974 L-969537 128974 L-969346 128918 L-968917 128918 L-968729 128862 L-968340 128749 L-967806 128693 L-967433 128636 L-967412 128636 L-967162 128580 L-967044 128524 L-966968 128467 L-966832 128411 L-966793 128355 L-966713 128298 L-966318 128242 L-965822 128186 L-965711 128073 L-965537 128017 L-965229 127961 L-964782 127904 L-964459 127848 L-964316 127735 L-963889 127623 L-963736 127510 L-963681 127398 L-962867 127341 L-962847 127285 L-962475 127229 L-962419 127229 L-961289 127172 L-961222 127172 L-960663 127116 L-960469 127060 L-960332 127003 L-960099 126947 L-959752 126891 L-959717 126778 L-959682 126722 L-959614 126609 L-959265 126553 L-959093 126497 L-958608 126440 L-958591 126384 L-958266 126328 L-958109 126271 L-956968 126159 L-956943 126103 L-956751 125990 L-956558 125934 L-956308 125877 L-956290 125821 L-955270 125765 L-954973 125708 L-954897 125652 L-954761 125539 L-954585 125483 L-954009 125371 L-953793 125314 L-953729 125258 L-953598 125202 L-953562 125089 L-953038 125033 L-952900 147217 L-952886 147217 L-952863 147217 L-952843 147217 L-952616 124976 L-951840 124976 L-951798 124976 L-951431 124976 L-951352 124920 L-951300 124864 L-950627 124807 L-949885 124751 L-949460 124751 L-949012 124695 L-947951 124639 L-947639 124526 L-947229 124526 L-947157 124470 L-946633 124470 L-946538 124470 L-946520 124470 L-946075 124413 L-945890 124301 L-945110 124188 L-944437 124132 L-944025 123963 L-943793 123850 L-943653 123794 L-943571 123681 L-943551 123625 L-943475 123625 L-943347 123569 L-943030 123625 L-942805 123625 L-942480 123569 L-942418 123569 L-942048 123569 L-942015 123569 L-941806 123569 L-941139 123569 L-941062 123569 L-940904 123456 L-940793 123456 L-940466 123400 L-940312 123344 L-939971 123344 L-939914 123231 L-939575 123118 L-939372 123062 L-939319 122949 L-937943 122893 L-937813 122837 L-937379 122780 L-937059 122724 L-936231 122612 L-936108 122555 L-935377 122443 L-935221 122330 L-935180 122274 L-935127 122217 L-935104 122161 L-934989 122105 L-934693 122048 L-934403 121992 L-934349 121936 L-934228 121880 L-934198 121823 L-934098 121767 L-933654 121767 L-933503 121711 L-932667 121711 L-932125 121654 L-931791 121654 L-931775 121598 L-931699 121542 L-931583 121485 L-931389 121429 L-931124 121373 L-930290 121317 L-930193 121260 L-929672 121204 L-929630 121148 L-929531 121091 L-928703 121091 L-928568 121035 L-928229 121035 L-927675 120979 L-927295 120922 L-927132 120866 L-926822 120810 L-926010 120753 L-925704 120697 L-925435 120697 L-925114 120697 L-924793 120753 L-924517 120753 L-923689 120641 L-923593 120585 L-923501 120416 L-923397 120247 L-923010 120078 L-922530 119965 L-922513 119909 L-922395 119853 L-922027 119740 L-921932 119684 L-921098 119571 L-921021 119515 L-920721 119458 L-920631 119402 L-920223 119289 L-920113 119177 L-919414 119121 L-918941 119064 L-918881 119008 L-918662 118895 L-918388 118839 L-918275 118783 L-917248 118726 L-916861 118670 L-916841 118614 L-916508 118557 L-916264 118501 L-915830 118445 L-915720 118389 L-915603 118332 L-915151 118220 L-914561 118163 L-914224 118107 L-912331 118051 L-912218 117938 L-912006 117882 L-910687 117826 L-910581 105157 L-910515 92657 L-910479 81114 L-910417 81114 L-909917 93670 L-909242 106057 L-909220 117488 L-908950 117375 L-907982 117375 L-907293 117319 L-907131 117262 L-906590 117206 L-906500 117150 L-905481 117094 L-904533 116981 L-904168 117037 L-904065 117094 L-903476 117094 L-903417 117094 L-903317 117037 L-902876 116925 L-902769 116868 L-902327 116812 L-901327 116643 L-901071 116474 L-900968 116305 L-900838 116193 L-900471 116080 L-899890 115967 L-899860 115911 L-899544 115855 L-897561 115798 L-897445 115742 L-897378 115742 L-897019 115686 L-895400 115630 L-895223 115630 L-895078 115630 L-894256 115686 L-894203 115742 L-894149 115742 L-893715 115742 L-892734 115798 L-892660 115798 L-891576 115742 L-891362 115742 L-890646 115630 L-890258 115573 L-890039 115461 L-889720 115348 L-889226 115235 L-889098 115179 L-888869 115067 L-888637 114954 L-888578 114898 L-888288 114841 L-888016 114729 L-886986 114672 L-885321 114616 L-884902 114560 L-884765 114503 L-884608 114503 L-884303 114447 L-884075 114335 L-883917 114278 L-883757 114166 L-883588 114053 L-883541 113997 L-883488 113940 L-883466 113940 L-883080 113884 L-882830 113884 L-882560 113884 L-882399 113884 L-882309 113884 L-880650 113884 L-880485 113940 L-880105 113884 L-879645 113884 L-879036 113771 L-877943 113715 L-877511 113659 L-877480 113603 L-877418 113546 L-877400 113490 L-875696 113434 L-875655 113377 L-875188 113321 L-875001 113265 L-874969 113152 L-874374 113096 L-874324 113039 L-874001 112983 L-873951 112927 L-873740 112871 L-873722 112814 L-873456 112702 L-873403 112645 L-872934 112589 L-872424 112476 L-872345 112476 L-872051 112420 L-872035 112364 L-871996 112307 L-871925 112251 L-871768 112195 L-870821 112195 L-870765 112195 L-870244 112195 L-870052 112139 L-869951 112139 L-869725 112082 L-869215 112082 L-868827 113603 L-868758 113603 L-868409 113546 L-868052 113490 L-866924 111857 L-866872 111744 L-866646 111688 L-866612 111632 L-866487 111519 L-866388 111519 L-866124 111519 L-865383 111576 L-864805 111576 L-864511 111576 L-863806 111576 L-863627 111519 L-863604 111519 L-862968 111463 L-862656 111407 L-862260 111407 L-862230 111350 L-862209 111294 L-862056 111238 L-861370 111238 L-861354 111238 L-861014 111238 L-860742 111181 L-860704 111125 L-860648 111012 L-860626 110956 L-860554 110900 L-860222 110844 L-860116 110787 L-860087 110675 L-859889 110618 L-859736 110562 L-858868 110506 L-858306 110393 L-858290 110393 L-858189 110337 L-858086 110393 L-857940 110393 L-857862 110393 L-857824 110337 L-857768 110280 L-857695 110224 L-857550 110168 L-857068 110168 L-856664 110112 L-855797 110168 L-855777 110168 L-855520 110168 L-855443 110168 L-855414 110112 L-855404 109999 L-855387 109943 L-855094 109886 L-855054 109830 L-854982 109774 L-854908 109717 L-854703 109661 L-854544 109492 L-854242 109323 L-854165 109098 L-854148 108929 L-853931 108817 L-853700 108817 L-853590 108873 L-853220 108929 L-853062 108929 L-852831 108929 L-852662 108929 L-852517 108873 L-852385 108817 L-851109 108704 L-850706 108591 L-850645 108535 L-850528 108422 L-850103 108366 L-850088 108253 L-850026 108197 L-849753 108085 L-849640 108028 L-849358 107916 L-849080 107859 L-848655 107747 L-848633 107690 L-848555 107634 L-848429 107578 L-847843 107521 L-847451 107465 L-847116 107409 L-846527 107353 L-846425 107353 L-846254 107296 L-846118 107296 L-845290 107240 L-844105 107184 L-844069 107127 L-844013 107127 L-843793 107071 L-843588 107071 L-843433 107071 L-843176 107015 L-843100 106958 L-842557 106902 L-842521 106846 L-842272 106789 L-841885 106733 L-841059 106677 L-840701 106621 L-840390 106621 L-840132 106564 L-839909 106508 L-839502 106452 L-839386 106395 L-839203 106339 L-839149 106339 L-838961 106283 L-838790 106226 L-838761 106170 L-838481 106114 L-838171 106057 L-838032 106001 L-837723 105945 L-837529 105945 L-837514 105889 L-836794 105889 L-836660 105776 L-836363 105720 L-836272 105663 L-835672 105663 L-835633 105607 L-835555 105551 L-834935 105494 L-834783 105382 L-834742 105326 L-834432 105269 L-834240 105213 L-834047 105100 L-833991 104988 L-833683 104931 L-833630 104875 L-833576 104931 L-833550 104931 L-833425 104931 L-832615 104875 L-832538 104819 L-831998 104762 L-831729 104706 L-831069 104650 L-830162 104594 L-829921 104537 L-829388 104481 L-829171 104425 L-828063 104481 L-828013 104481 L-827238 104481 L-826690 104425 L-826579 104368 L-826426 104256 L-826371 104199 L-826205 104143 L-825828 104087 L-825381 104030 L-825326 103974 L-825171 103918 L-824492 103862 L-824271 103805 L-823753 103749 L-822905 103636 L-822889 103580 L-821098 103524 L-820543 103467 L-820426 103411 L-819420 103355 L-819384 103298 L-819151 103298 L-819058 103298 L-819018 103298 L-818686 103242 L-818334 103186 L-818069 103073 L-817783 103017 L-817472 102904 L-817218 102792 L-817124 102735 L-816634 102679 L-816427 102623 L-815861 102567 L-815747 102623 L-815395 102567 L-815344 102567 L-815304 102567 L-814701 102454 L-813967 102341 L-813385 102229 L-813150 102116 L-812610 101947 L-812457 101835 L-811955 101778 L-811746 101666 L-811723 101666 L-811664 101609 L-810701 101609 L-810524 101553 L-810082 101497 L-810057 101384 L-809902 101328 L-809821 101328 L-809670 101384 L-809024 101384 L-808974 101328 L-807854 101271 L-806870 101215 L-806808 101159 L-806088 101103 L-805223 101046 L-804844 100990 L-804625 100990 L-803866 100934 L-803814 100877 L-803504 100765 L-802653 100765 L-802460 100708 L-802283 100652 L-802059 100652 L-801932 100596 L-801740 100596 L-801508 100539 L-801338 100596 L-801052 100539 L-800772 100539 L-800689 100483 L-800519 100427 L-800502 100314 L-800348 100258 L-800309 100202 L-799533 100145 L-799457 100145 L-799225 100033 L-798798 99976 L-798452 99920 L-797869 99864 L-797600 99864 L-797341 99864 L-797212 99751 L-797196 99695 L-797082 99639 L-797058 99582 L-796824 99526 L-796788 99470 L-795472 99470 L-795416 99413 L-794737 99301 L-794165 99301 L-794039 99301 L-793886 99301 L-793809 99301 L-793497 99188 L-793224 99132 L-793135 99019 L-793033 99019 L-792105 98963 L-792029 98963 L-791665 98963 L-791641 98907 L-791604 98850 L-790829 98738 L-790737 98681 L-790597 98625 L-790195 98569 L-789934 98569 L-789690 98625 L-789476 98569 L-789395 98569 L-789319 98569 L-789243 98569 L-789056 98625 L-788989 98625 L-788740 98625 L-788685 98569 L-788547 98512 L-788467 98400 L-788354 98344 L-788131 98287 L-787967 98231 L-787926 98175 L-787756 98118 L-787385 98062 L-787371 98006 L-787255 97949 L-786533 97893 L-786497 97837 L-786365 97837 L-786017 97780 L-785605 97780 L-785569 97780 L-785491 97724 L-785452 97668 L-785088 97612 L-784884 97555 L-784869 97499 L-784523 97443 L-784175 97443 L-783849 97443 L-783747 97386 L-783595 97386 L-783400 97330 L-783169 97330 L-783076 97330 L-782921 97330 L-782843 97330 L-782803 97274 L-782689 97217 L-782666 97161 L-782415 97161 L-782276 97048 L-781698 96880 L-780870 96767 L-780382 96654 L-780261 96598 L-780223 96542 L-780210 96485 L-780058 96373 L-779957 96260 L-779724 96204 L-779333 96091 L-779029 96035 L-779013 95979 L-778843 95922 L-778604 95810 L-778008 95810 L-777404 95753 L-777364 95753 L-777324 95753 L-777171 95697 L-777118 95641 L-777055 95585 L-776987 95528 L-776932 95416 L-776907 95359 L-776860 95303 L-776766 95190 L-776629 95134 L-776475 95078 L-776343 95021 L-776302 95021 L-776267 94965 L-776205 94909 L-775932 94796 L-775617 94740 L-775576 94627 L-775491 94571 L-775314 94515 L-775076 94458 L-774719 94402 L-774689 94346 L-774120 94289 L-773997 94233 L-773761 94177 L-773738 94177 L-773457 94121 L-773171 94121 L-772916 94121 L-772344 94064 L-772047 94008 L-771971 93952 L-771272 93895 L-771194 93839 L-771159 93783 L-771133 93726 L-771081 93614 L-770888 93557 L-770747 93445 L-770712 93389 L-770671 93332 L-770076 93276 L-769844 93220 L-769560 93614 L-769506 93952 L-769432 94346 L-769354 94684 L-769117 94571 L-768873 94515 L-768738 94458 L-768631 94402 L-768552 94346 L-768165 94233 L-768038 94177 L-767885 94121 L-767847 94064 L-767702 94008 L-767480 93952 L-767306 93895 L-767237 93839 L-766416 93726 L-766399 93726 L-766105 93670 L-765317 93614 L-765007 93614 L-764861 93557 L-764633 93501 L-764432 93389 L-763495 93332 L-763459 93276 L-763436 93220 L-763395 93107 L-763127 93051 L-762530 92994 L-762466 92938 L-762431 92882 L-762414 92826 L-761719 92826 L-761517 92826 L-761485 92826 L-761152 92826 L-761044 92769 L-760420 92657 L-759915 92600 L-759878 92488 L-759436 92488 L-759340 92431 L-759181 92431 L-758868 92431 L-758856 92431 L-758415 92488 L-757934 92544 L-757804 92544 L-757484 92544 L-757416 92488 L-757112 92488 L-756936 92431 L-756742 92375 L-756499 92262 L-756302 92150 L-756276 92037 L-755698 91981 L-755628 91925 L-755219 91868 L-755164 91812 L-755118 91756 L-754754 91699 L-754608 91643 L-754402 91587 L-754306 91587 L-754151 91530 L-754090 91474 L-753942 91362 L-753841 91305 L-753285 91305 L-753262 91418 L-753090 91474 L-752548 91530 L-752487 91530 L-752433 91418 L-752405 91305 L-752334 91249 L-752317 91136 L-752254 91080 L-752217 90967 L-752063 90911 L-751737 90855 L-751171 90798 L-751156 90742 L-751094 90630 L-750993 90517 L-750947 90517 L-750704 90461 L-750282 90461 L-750127 90461 L-748385 90348 L-747844 90292 L-746900 90235 L-746491 90179 L-745950 90067 L-745754 90010 L-745585 89954 L-745289 89898 L-745175 89841 L-745159 89841 L-745005 89785 L-744865 89729 L-744788 89616 L-744656 89616 L-744308 89616 L-743938 89672 L-743340 89672 L-743164 89672 L-743008 89616 L-742739 89560 L-742587 89560 L-742296 89729 L-742272 89841 L-742189 89954 L-741962 90067 L-741262 90010 L-741135 89954 L-740704 89898 L-740610 89841 L-739405 89841 L-739356 89785 L-739063 89785 L-738659 89729 L-738384 89616 L-738364 89560 L-738247 89503 L-738170 89447 L-737989 89391 L-737509 89335 L-737058 89222 L-736647 89166 L-736617 89109 L-736198 89053 L-736084 89053 L-735967 89053 L-735951 89053 L-735757 88997 L-735735 88884 L-735503 88828 L-735060 88771 L-734740 88659 L-734276 88659 L-734110 88603 L-733955 88546 L-733800 88546 L-733346 88546 L-733027 88546 L-732972 88603 L-732601 88603 L-732563 88659 L-732237 88659 L-732120 88603 L-732021 88546 L-731695 88434 L-731308 88377 L-731048 88321 L-730689 88208 L-730433 88152 L-728262 88096 L-728213 88039 L-728191 87983 L-727779 87983 L-727718 87983 L-727647 88039 L-727417 88039 L-727106 87983 L-726802 87871 L-726758 87814 L-726450 87758 L-726317 87702 L-726101 87645 L-725389 87589 L-725234 87589 L-725095 87533 L-724946 87533 L-724925 87533 L-724731 87476 L-724706 87420 L-724614 87364 L-724593 87307 L-724576 87251 L-724476 87195 L-723547 87139 L-723089 87139 L-721998 87026 L-721575 87026 L-721171 86970 L-721132 86913 L-720879 86857 L-720104 86744 L-720088 86688 L-720064 86632 L-719871 86576 L-719134 86519 L-718865 86463 L-718825 86407 L-718426 86294 L-718401 86238 L-717612 86181 L-716932 86125 L-715560 86069 L-715290 86012 L-715242 85956 L-714704 85844 L-714671 85787 L-714569 85675 L-714246 85618 L-714166 85562 L-713897 85562 L-712985 85506 L-712846 85506 L-712597 85393 L-712052 85393 L-711630 85337 L-711437 85280 L-711421 85280 L-711283 85168 L-711189 85112 L-711062 85055 L-710802 84999 L-710777 84886 L-710686 84830 L-710376 84774 L-710316 84717 L-710199 84717 L-709849 84717 L-709038 84717 L-708807 84605 L-707978 84605 L-707746 84492 L-707529 84436 L-707011 84436 L-706373 84380 L-705957 84323 L-705634 84267 L-705154 84211 L-704728 84211 L-704667 84154 L-704318 84154 L-704278 84098 L-704264 84042 L-704164 83929 L-704119 83929 L-703634 83873 L-702832 83873 L-702498 83873 L-701416 83817 L-700936 83760 L-700913 83704 L-700773 83648 L-700218 83591 L-699521 83535 L-699212 83479 L-698990 83422 L-698886 83366 L-698783 83253 L-698112 83197 L-698018 83141 L-697996 83141 L-697918 83085 L-697741 83085 L-697568 83085 L-697388 83028 L-697374 82972 L-697298 82916 L-697134 82859 L-696619 82803 L-696603 82747 L-696463 82747 L-696100 82690 L-696076 82690 L-695945 82634 L-695921 82578 L-695558 82521 L-695033 82409 L-694939 82353 L-694724 82240 L-694630 82184 L-694606 82127 L-694141 82071 L-694064 82071 L-693662 82015 L-693212 82015 L-691960 81958 L-691921 81902 L-691490 81846 L-691457 81789 L-690738 81733 L-690562 81677 L-690426 81621 L-690119 81564 L-690064 81508 L-690040 81395 L-690023 81283 L-689848 81226 L-689659 81170 L-689151 81170 L-688778 80720 L-688439 80213 L-688401 79762 L-687682 79368 L-687588 79312 L-687550 79256 L-687008 79256 L-686985 79199 L-686582 79143 L-686156 79087 L-685886 79087 L-685706 79030 L-685460 78918 L-685437 78862 L-685380 78749 L-684764 78693 L-684261 78636 L-683874 78636 L-683255 78693 L-683039 78693 L-682884 78749 L-681591 78636 L-681492 78580 L-681050 78467 L-680718 78411 L-680418 78298 L-680175 78242 L-679440 78130 L-678861 78073 L-678032 78017 L-677932 77961 L-677374 77904 L-677236 77848 L-675594 77792 L-675533 77792 L-675439 77792 L-674472 77792 L-674295 77735 L-674008 77735 L-673790 77735 L-673712 77679 L-673440 77679 L-673325 77623 L-673172 77567 L-672862 77510 L-672783 77454 L-672692 77454 L-672615 77398 L-672499 77398 L-672320 77341 L-672228 77285 L-672189 77229 L-671686 77229 L-671468 77172 L-671338 77172 L-671183 77116 L-671129 77060 L-671004 77060 L-670619 77003 L-670111 76947 L-670038 76891 L-669558 76835 L-669481 76778 L-669381 76778 L-669148 76722 L-668683 76722 L-668453 76722 L-668436 76722 L-668204 76722 L-668049 76722 L-667988 76722 L-667795 76666 L-667524 76553 L-666773 76497 L-665820 76497 L-665783 76440 L-665559 76440 L-665119 76440 L-664838 76328 L-664490 76271 L-663421 76215 L-662493 76215 L-662362 76215 L-662315 76215 L-662246 76159 L-662091 76159 L-662014 76046 L-661840 75934 L-661405 75821 L-661201 75765 L-661141 75652 L-660558 75596 L-660404 75483 L-660289 75427 L-660248 75371 L-660079 75314 L-659942 75258 L-659731 75145 L-659653 75089 L-659630 75033 L-659421 74920 L-659012 74864 L-658987 74807 L-658764 74751 L-658619 74695 L-658584 74639 L-658570 74582 L-658548 74526 L-658315 74470 L-658129 74413 L-657912 74357 L-657887 74301 L-657197 74244 L-657094 74188 L-657058 74132 L-657038 74076 L-656843 74019 L-656790 73963 L-656673 73850 L-656592 73850 L-656481 73794 L-656166 73738 L-655707 73681 L-655452 73625 L-655218 73512 L-655088 73456 L-654735 73400 L-654676 73344 L-654523 73287 L-653951 73175 L-653865 73118 L-653711 73006 L-653415 72893 L-653045 72780 L-652742 72668 L-652666 72612 L-652261 72555 L-652093 72555 L-651949 72555 L-651409 72555 L-651348 72555 L-651332 72443 L-651166 72386 L-650960 72330 L-650886 72330 L-650793 72274 L-650383 72217 L-650368 72161 L-650344 72161 L-650151 72105 L-650074 72612 L-649904 73118 L-649841 73569 L-649826 74076 L-649311 74019 L-649090 73963 L-648471 73850 L-648217 73794 L-648024 73738 L-647984 73681 L-647911 73681 L-647846 73681 L-647195 73681 L-647156 73738 L-646982 73738 L-646916 73738 L-646242 73738 L-645853 73625 L-645592 73569 L-645354 73512 L-645276 73400 L-645260 73287 L-645058 73231 L-644688 73118 L-644462 73062 L-643827 73006 L-643807 73006 L-643419 72949 L-643326 72949 L-643268 72893 L-642992 72837 L-642682 72837 L-642605 72780 L-641754 72837 L-641411 73118 L-640974 73456 L-640540 73738 L-640045 74019 L-639896 73963 L-639627 74019 L-638389 74076 L-638333 74188 L-636569 74244 L-636378 74188 L-635368 74132 L-635217 74076 L-634842 74188 L-634521 74301 L-633915 74413 L-633846 74526 L-633669 74470 L-632840 74413 L-632701 74357 L-632315 74301 L-632130 74244 L-632087 74188 L-631967 74132 L-631757 74076 L-631310 73963 L-630961 73907 L-630829 73850 L-630420 73794 L-630070 73794 L-629785 73738 L-629591 73681 L-629436 73681 L-629273 73625 L-629204 73569 L-629104 73569 L-628871 73512 L-628755 73512 L-628701 73456 L-628160 73456 L-627695 73400 L-626513 73400 L-626380 73400 L-626355 73400 L-626303 73400 L-625635 73400 L-624600 73287 L-624406 73231 L-624227 73175 L-624075 73175 L-624034 73118 L-624019 73118 L-623958 73062 L-623633 73006 L-622472 72949 L-622279 72893 L-622101 72837 L-620987 72780 L-620128 72724 L-620021 72724 L-619548 72668 L-619355 72668 L-617033 72612 L-616956 72555 L-616835 72443 L-616800 72386 L-616763 72274 L-616668 72105 L-616453 71992 L-615871 71880 L-615485 71823 L-614712 71767 L-614634 71711 L-613937 71711 L-613396 71711 L-613355 71654 L-613225 71654 L-612761 71598 L-612722 71542 L-612587 71485 L-612219 71429 L-612189 71373 L-612039 71373 L-611639 71317 L-609815 71373 L-609008 71317 L-608289 71317 L-608273 71317 L-607959 71204 L-607397 71148 L-606896 71091 L-606377 71035 L-606355 70979 L-604611 70922 L-604442 70866 L-604247 70810 L-603353 70753 L-602834 70641 L-602624 70585 L-602366 70528 L-601657 70472 L-600706 70416 L-600048 70359 L-600009 70247 L-599722 70190 L-599640 70134 L-599544 70134 L-599412 70078 L-599335 70078 L-598600 70078 L-598263 70021 L-598213 70078 L-597958 70078 L-597672 70021 L-597246 70021 L-596666 69965 L-596407 69965 L-596255 69909 L-596008 69909 L-595969 69909 L-595172 69853 L-595135 69796 L-594957 69796 L-594548 69684 L-594320 69684 L-594243 69684 L-594112 69684 L-593996 69627 L-593648 69571 L-593584 69515 L-593432 69458 L-592691 69402 L-592580 69346 L-592410 69289 L-592371 69233 L-592076 69233 L-591674 69233 L-591498 69233 L-591404 69233 L-591094 69177 L-590293 69121 L-589834 69008 L-589314 68952 L-588826 68895 L-588130 68839 L-587084 68783 L-586815 68783 L-586761 68726 L-586600 68726 L-586349 68726 L-586103 68670 L-586024 68614 L-585810 68501 L-585498 68445 L-585034 68332 L-585020 68276 L-584724 68276 L-584710 68220 L-583719 68163 L-583047 68107 L-582712 67994 L-582095 67994 L-581959 67938 L-581320 67882 L-581189 67826 L-580238 67713 L-580139 67600 L-579580 67544 L-579171 67544 L-578743 67544 L-578651 67488 L-577817 67488 L-577453 67488 L-577414 67544 L-577282 67600 L-577105 67600 L-576888 67600 L-576834 67544 L-576677 67431 L-576425 67375 L-575324 67319 L-575247 67262 L-575027 67206 L-574896 67094 L-574860 67037 L-574667 66981 L-574567 66925 L-574084 66868 L-573799 66812 L-573639 66756 L-573544 66643 L-573273 66587 L-573003 66530 L-572987 66305 L-572848 66136 L-572710 65967 L-572384 65742 L-572075 65630 L-572034 65573 L-571958 65461 L-571842 65404 L-570992 65292 L-570666 65235 L-570334 65179 L-570201 65179 L-569985 65179 L-569969 65179 L-569289 65179 L-569195 65067 L-569172 65010 L-569156 64898 L-569118 64841 L-568706 64729 L-568437 64672 L-568397 64616 L-568028 64616 L-567818 64560 L-566736 64560 L-566719 64503 L-566691 64447 L-566670 64447 L-566294 64335 L-566038 64278 L-565790 64166 L-565651 64053 L-565519 63997 L-565187 63940 L-565094 63884 L-565033 63828 L-564475 63771 L-564414 63715 L-564258 63659 L-564064 63603 L-563872 63546 L-563856 63490 L-563817 63434 L-563779 63377 L-563508 63321 L-563385 63265 L-563352 63208 L-563253 63208 L-563097 63208 L-562956 63208 L-562672 63152 L-562347 63152 L-561651 63096 L-561628 63096 L-561118 63096 L-560273 63096 L-559910 63039 L-559755 62983 L-559151 62983 L-558981 62983 L-558920 62983 L-558865 62927 L-557809 62871 L-557791 62871 L-556885 62871 L-556864 62871 L-556697 62814 L-556455 62814 L-556404 62758 L-556350 62645 L-556212 62589 L-556173 62533 L-555245 62476 L-555189 62476 L-555067 62476 L-554996 62476 L-554880 62476 L-554701 62533 L-553719 62476 L-553580 62476 L-553462 62364 L-553167 62251 L-552920 62195 L-552883 62139 L-552829 62195 L-552807 62195 L-552674 62195 L-552595 62195 L-552457 62139 L-551835 62139 L-551668 62082 L-551204 62082 L-551027 61970 L-551011 61913 L-550950 61857 L-550834 61801 L-550351 61744 L-549656 61688 L-549283 61632 L-549114 61576 L-548148 61519 L-547993 61463 L-547815 61463 L-547722 61407 L-547467 61407 L-547296 61407 L-546649 61350 L-546639 61350 L-546058 61294 L-545920 61294 L-545865 61181 L-545130 61125 L-545091 61069 L-545014 61069 L-544372 61012 L-543597 61012 L-543505 60956 L-543456 60956 L-543441 60900 L-543404 60900 L-543388 60787 L-543325 60731 L-543309 60675 L-543289 60675 L-543134 60618 L-543095 60562 L-543079 60506 L-543040 60449 L-542901 60393 L-542824 60337 L-542460 60280 L-542112 60224 L-541338 60168 L-540736 60112 L-540540 60055 L-540310 60055 L-540172 59999 L-539534 59999 L-539244 59943 L-539223 59943 L-538763 59886 L-538530 59886 L-538475 59830 L-538436 59774 L-537934 59717 L-537383 59661 L-536595 59605 L-535472 59605 L-534578 59548 L-534490 59548 L-534191 59492 L-534119 59436 L-534003 59380 L-532826 59323 L-532478 59267 L-532456 59211 L-531936 59154 L-531790 59098 L-531681 59042 L-531472 58985 L-531317 58929 L-531295 58873 L-531101 58817 L-531024 58760 L-530880 58704 L-530079 58648 L-529933 58591 L-529653 58535 L-529476 58479 L-529167 58422 L-528355 58366 L-527426 58366 L-525835 58310 L-525591 58253 L-524950 58197 L-524755 58141 L-524677 58085 L-524160 58028 L-523927 58028 L-523904 57972 L-523772 57972 L-523433 57916 L-523422 57859 L-523206 57803 L-523169 57747 L-522627 57690 L-522099 57578 L-522031 57521 L-521738 57465 L-521190 57353 L-521155 57296 L-521102 57240 L-521003 57127 L-520770 57127 L-520190 57127 L-520093 57184 L-520018 57184 L-519687 57127 L-518937 57071 L-518897 57015 L-518218 57015 L-518063 57015 L-517737 56958 L-517521 56902 L-517289 56902 L-516993 56846 L-516747 56789 L-516396 56733 L-516343 56677 L-515583 56621 L-514890 56508 L-514539 56395 L-514076 56339 L-513442 56283 L-513033 56226 L-512955 56283 L-512529 56283 L-511887 56226 L-511718 56226 L-510976 56170 L-510788 56114 L-510493 56057 L-509921 56001 L-509896 55945 L-508876 55945 L-508390 55889 L-508296 55889 L-508235 55832 L-507947 55776 L-507661 55720 L-507600 55663 L-507420 55663 L-506709 55607 L-506533 55551 L-506335 55494 L-506183 55438 L-506091 55382 L-506029 55326 L-505488 55326 L-505177 55269 L-505085 55157 L-505008 55044 L-504441 54988 L-504350 54988 L-504095 54875 L-503768 54762 L-503731 54594 L-503576 54425 L-503344 54368 L-503022 54312 L-501889 54256 L-501690 54199 L-501165 54143 L-500920 54143 L-500674 54087 L-500594 54030 L-500574 53918 L-500498 53862 L-500442 53749 L-500365 53693 L-500326 53636 L-500147 53524 L-500110 53467 L-499879 53411 L-498641 53355 L-498314 53298 L-498274 53186 L-497493 53130 L-497346 53073 L-496354 53017 L-496148 53017 L-495722 53017 L-495595 53017 L-495190 53073 L-495102 53017 L-494445 52961 L-493738 52904 L-493130 52848 L-492937 52792 L-492704 52679 L-492085 52623 L-491789 52510 L-491350 52454 L-491195 52398 L-491040 52341 L-490284 52229 L-489934 52172 L-489532 52172 L-489493 52116 L-488487 52116 L-488167 52116 L-487920 52060 L-487220 51947 L-487147 51891 L-486835 51835 L-485755 51778 L-485563 51722 L-485329 51722 L-485134 51666 L-484634 51609 L-483880 51609 L-483767 51609 L-483566 51609 L-483525 51553 L-483433 51497 L-483120 51440 L-483031 51384 L-482915 51328 L-482597 51328 L-482528 51271 L-482504 51215 L-482142 51159 L-482103 51103 L-481887 51046 L-481383 51103 L-480781 51159 L-480570 51271 L-480416 51328 L-480379 51328 L-480335 51215 L-480300 51159 L-480167 51103 L-479758 51046 L-479387 50990 L-479334 50934 L-479317 50877 L-479239 50821 L-478829 50765 L-478675 50708 L-478660 50596 L-478620 50539 L-478442 50427 L-478366 50371 L-478134 50314 L-477344 50258 L-477267 50258 L-476532 50145 L-476376 50089 L-476136 49976 L-476075 49864 L-475989 49807 L-475967 49695 L-475849 49582 L-475834 49470 L-475773 49357 L-475735 49301 L-475641 49244 L-475619 49244 L-475503 49188 L-475270 49132 L-475100 49019 L-474280 49019 L-473879 48963 L-473723 48963 L-473218 48963 L-473104 48963 L-472508 48963 L-472133 48907 L-472082 48907 L-471888 48850 L-471191 48850 L-471153 48794 L-471008 48794 L-470783 48738 L-470521 48681 L-470148 48625 L-469722 48569 L-469593 48512 L-469573 48400 L-469079 48400 L-468383 48344 L-468151 48400 L-467997 48400 L-467029 48400 L-466804 48456 L-466527 48456 L-466511 48400 L-465985 48344 L-465456 48287 L-465308 48231 L-465288 48175 L-464746 48118 L-464437 48062 L-464319 47949 L-464127 47837 L-463991 47724 L-463664 47668 L-463547 47612 L-463237 47612 L-462811 47555 L-462756 47555 L-462523 47612 L-462426 47612 L-462293 47612 L-461997 47612 L-461883 47555 L-461518 47499 L-461206 47499 L-460723 47443 L-460552 47386 L-460304 47330 L-460088 47274 L-459563 47217 L-459376 47105 L-459021 47048 L-458385 46992 L-458231 46880 L-457490 46823 L-457070 46767 L-456890 46711 L-456814 46711 L-456683 46654 L-456389 46598 L-456348 46542 L-456118 46542 L-455926 46485 L-455671 46485 L-455244 46429 L-455135 46373 L-454517 46373 L-454335 46373 L-453124 46373 L-452477 46429 L-452326 46429 L-452288 46429 L-452157 46429 L-452056 46373 L-452040 46317 L-451958 46260 L-451746 46204 L-451630 46148 L-451267 46091 L-450895 46035 L-450199 45979 L-449796 45922 L-449691 45866 L-449673 45810 L-448729 45753 L-448533 45641 L-448381 45585 L-448326 45472 L-447570 45472 L-447552 45585 L-447064 45641 L-446933 45753 L-446740 45753 L-445850 45697 L-445811 45641 L-445772 45585 L-445695 45528 L-445657 45528 L-445579 45472 L-445496 45416 L-445231 45359 L-444999 45303 L-444937 45247 L-444456 45190 L-444120 45190 L-444009 45134 L-443815 45078 L-443639 45021 L-443579 45021 L-443543 44965 L-443273 44909 L-442575 44796 L-442522 44684 L-442228 44571 L-441826 44458 L-441262 44402 L-440389 44346 L-440084 44289 L-440046 44233 L-439924 44177 L-439325 44121 L-439195 44064 L-438995 44008 L-438958 43952 L-438344 43895 L-438165 43839 L-438151 43726 L-437933 43670 L-437854 43557 L-437547 43557 L-437415 43501 L-437183 43501 L-436849 43501 L-436757 43445 L-436657 43389 L-436619 43332 L-436076 43332 L-435883 43276 L-435342 43220 L-434916 43163 L-434785 43163 L-434723 43163 L-434492 43163 L-434475 43163 L-433987 43220 L-433906 43220 L-433889 43220 L-432496 43276 L-432360 43276 L-432246 43220 L-431612 43163 L-431472 43107 L-431355 43051 L-431201 42938 L-431164 42882 L-431085 42826 L-431031 42882 L-430040 42882 L-430003 42826 L-429870 42826 L-429809 42713 L-429710 42657 L-429420 42600 L-429407 42544 L-429096 42544 L-428997 42600 L-428531 42544 L-428478 48512 L-428335 54425 L-428207 60393 L-427975 66362 L-427406 66305 L-427317 66249 L-427295 66249 L-427008 66193 L-426325 66136 L-426248 66080 L-426212 66024 L-426195 65967 L-425996 65911 L-425576 65798 L-425304 65798 L-424431 65742 L-424139 65742 L-424028 65742 L-423294 65686 L-423166 65630 L-422807 65573 L-422554 65573 L-421683 65517 L-421514 65517 L-421452 65461 L-421398 65404 L-421050 65348 L-421026 65292 L-420817 65235 L-420677 65179 L-420547 65123 L-420424 65067 L-420300 65010 L-420064 64954 L-419773 64898 L-419114 64841 L-419092 64785 L-418937 64729 L-418820 64672 L-417855 64616 L-417799 64560 L-417567 64503 L-417544 64447 L-417218 64391 L-417103 64391 L-417063 64335 L-416561 64335 L-416262 64278 L-416151 64222 L-415608 64166 L-414549 64109 L-413923 64053 L-413752 63997 L-413504 63940 L-413248 63884 L-413117 63828 L-413095 63771 L-412428 63715 L-411532 63659 L-411486 63603 L-411415 63546 L-411299 63546 L-411079 63490 L-410888 63490 L-410849 63434 L-410656 63377 L-409997 63377 L-409380 63321 L-409342 63659 L-408745 63997 L-408684 64278 L-407562 64560 L-407507 64560 L-407386 64503 L-407121 64447 L-407057 64447 L-406788 64447 L-406712 64391 L-406496 64391 L-406013 64335 L-405743 64278 L-405612 64278 L-405380 64166 L-405355 63997 L-405340 63771 L-405317 63490 L-405301 63208 L-405278 62927 L-405264 62589 L-405240 62251 L-405224 61913 L-405201 61632 L-405186 61350 L-405164 61069 L-405148 60900 L-405120 60731 L-405102 60506 L-405084 60393 L-405047 60224 L-405008 60112 L-404993 59999 L-404967 59830 L-404915 59717 L-404891 59605 L-404814 59492 L-404776 59436 L-404761 59323 L-404698 59211 L-404683 59098 L-404637 58929 L-404566 58817 L-404528 58760 L-404504 58648 L-404451 58535 L-404426 58479 L-404411 58422 L-404349 58366 L-404312 58310 L-404235 58253 L-404219 58197 L-404191 58085 L-404119 58028 L-404079 57972 L-403925 57859 L-403809 57803 L-403755 57747 L-403672 57690 L-403639 57634 L-403615 57578 L-403461 57521 L-403445 57465 L-403344 57409 L-403033 57353 L-402997 57296 L-402782 57240 L-402671 57240 L-402646 57240 L-402416 57296 L-402183 57296 L-401809 57240 L-401681 57184 L-401641 57127 L-401588 57071 L-401487 57015 L-401450 56958 L-401240 56958 L-401176 56902 L-401063 56902 L-400852 56846 L-400814 56789 L-400442 56733 L-400389 56677 L-400310 56621 L-400288 56564 L-400195 56508 L-399995 56452 L-399958 56452 L-399936 56452 L-399706 56452 L-399685 56395 L-399476 56395 L-399381 56339 L-399344 56283 L-399007 56226 L-398894 56170 L-398855 56114 L-398841 56114 L-398701 56057 L-398686 56057 L-398432 56057 L-397849 56001 L-397773 55945 L-397735 55889 L-397690 55832 L-397642 55776 L-397462 55720 L-397447 55663 L-397348 55607 L-397270 55551 L-397210 55494 L-396844 55382 L-396762 55326 L-396744 55269 L-396691 55213 L-395722 55157 L-395590 55100 L-395569 55044 L-395348 54988 L-395280 54931 L-395257 54875 L-395011 54819 L-394755 54762 L-394624 54706 L-394584 54650 L-394563 54537 L-394507 54425 L-394420 54368 L-394359 54256 L-394133 54199 L-394004 54143 L-393904 54087 L-393850 54030 L-393656 53974 L-393579 53918 L-393245 53862 L-393115 53805 L-392937 53749 L-392921 53693 L-392896 53636 L-392627 53636 L-391426 53580 L-391389 53580 L-391273 53524 L-391039 53467 L-390848 53411 L-390810 53411 L-390754 53355 L-390649 53355 L-390135 53298 L-389842 53242 L-389609 53186 L-389334 53130 L-389317 53073 L-389285 53017 L-389245 52961 L-389207 52904 L-389106 52848 L-389028 52792 L-388936 52735 L-388809 52679 L-388704 52623 L-388526 52623 L-388333 52567 L-387505 52567 L-387389 52510 L-387134 52454 L-387094 52398 L-386995 52341 L-386935 52341 L-386692 52285 L-386668 52285 L-386548 52229 L-386476 52172 L-386437 52116 L-386205 52060 L-386028 52003 L-385508 51947 L-385432 51891 L-385415 51835 L-385004 51835 L-384641 51835 L-384525 51778 L-384503 51778 L-384462 51722 L-384386 51666 L-384332 51609 L-383983 51553 L-383868 51497 L-383690 51497 L-383635 51440 L-383611 51440 L-383497 51384 L-383210 51328 L-382977 51271 L-382762 51215 L-382552 51159 L-382342 51046 L-381516 50990 L-381176 50934 L-380169 50877 L-379806 50821 L-378760 50765 L-378683 50708 L-378235 50652 L-378024 50596 L-377832 50539 L-377538 50483 L-377497 50427 L-377344 50371 L-377290 50258 L-377058 50202 L-376478 50145 L-376284 50089 L-375665 50089 L-375176 50033 L-375124 49976 L-374475 49920 L-374325 49864 L-374156 49807 L-373783 49751 L-373768 49751 L-373668 49695 L-373630 49695 L-373499 49639 L-373066 49639 L-372763 49639 L-372377 49639 L-372237 49582 L-372075 49582 L-371642 49582 L-371603 49526 L-371501 49526 L-371386 49470 L-371208 49470 L-371038 49413 L-370920 49357 L-370559 49244 L-370341 49188 L-370209 49132 L-370068 49132 L-369569 49132 L-369491 49132 L-369257 49076 L-368933 49076 L-368547 49019 L-368524 48963 L-367904 48963 L-367634 48907 L-367400 48907 L-366976 48850 L-366704 48794 L-366562 48738 L-366353 48681 L-366148 48625 L-365596 48569 L-365466 48569 L-365079 48512 L-364809 48512 L-364706 48456 L-364445 48400 L-364244 48344 L-364175 48287 L-364136 48231 L-363569 48175 L-363361 48118 L-363334 48062 L-363105 48006 L-363028 47949 L-362511 47893 L-362472 47837 L-362317 47780 L-362023 47724 L-361752 47668 L-361388 47612 L-361040 47612 L-360668 47555 L-360547 47555 L-360476 47499 L-359996 47443 L-359933 47386 L-359598 47330 L-359467 47274 L-359390 47217 L-359260 47161 L-358796 47161 L-358503 47105 L-358426 47105 L-358115 47048 L-357806 46992 L-357743 46936 L-357713 46880 L-356938 46823 L-356834 46711 L-356746 46654 L-356723 46598 L-356569 46542 L-356347 46485 L-356180 46429 L-355794 46373 L-355739 46317 L-355675 46317 L-355058 46260 L-354941 46204 L-354618 46148 L-354092 46091 L-353742 46035 L-353666 45979 L-353046 45922 L-352635 45866 L-352334 45810 L-352024 45753 L-351886 45697 L-351262 45697 L-350880 45641 L-349756 45641 L-348696 45585 L-348634 45528 L-348273 45472 L-348171 45472 L-348155 45416 L-347782 45416 L-346776 45303 L-346390 45247 L-346182 45134 L-346094 45078 L-345718 45021 L-345425 44965 L-345114 44909 L-344325 44853 L-344237 44796 L-344185 44740 L-344146 44684 L-343629 44627 L-343513 44571 L-343305 44515 L-343165 44458 L-342562 44402 L-341733 44346 L-341449 44289 L-341267 44289 L-340766 44233 L-340561 44233 L-340007 44233 L-339502 44177 L-339310 44121 L-339272 44064 L-338643 44008 L-338190 43952 L-337775 43895 L-337167 43839 L-336046 43839 L-335633 43783 L-335309 43783 L-335094 43726 L-334667 43670 L-334527 43614 L-334436 43557 L-334205 43501 L-333618 43501 L-332810 43445 L-331611 43445 L-331497 43445 L-331364 43389 L-331277 43332 L-331235 43389 L-331214 43445 L-331204 43557 L-331109 43670 L-330345 43670 L-329640 43670 L-329599 43614 L-329313 43557 L-328773 43501 L-328711 43445 L-328671 43389 L-328656 43332 L-328399 43276 L-328076 43220 L-327936 43163 L-327666 43107 L-327627 43051 L-327519 42994 L-327118 42938 L-327008 42882 L-326931 42826 L-326634 42769 L-326591 42713 L-326373 42713 L-326189 42713 L-326079 42713 L-326064 42657 L-326038 42657 L-325614 42600 L-325368 42544 L-325032 42488 L-324997 42431 L-324862 42375 L-324609 42375 L-324454 42319 L-323548 42319 L-323449 42262 L-323254 42150 L-322246 42094 L-321746 42037 L-321668 41981 L-321629 41925 L-321421 41868 L-321303 41812 L-321205 41756 L-321019 41699 L-320853 41643 L-320618 41587 L-320198 41530 L-320182 41474 L-319873 41418 L-318828 41362 L-318611 41305 L-318595 41249 L-318572 41193 L-318364 41136 L-318205 41080 L-318146 41024 L-316701 40967 L-316375 40967 L-316174 40967 L-315975 40967 L-315825 40967 L-315554 40911 L-315113 40855 L-314895 40855 L-314201 40798 L-313698 40742 L-313373 40686 L-313102 40686 L-312382 40630 L-312227 40630 L-311029 40517 L-310639 40461 L-310524 40348 L-310370 40292 L-310217 40235 L-309246 40179 L-309194 40123 L-308947 40067 L-308925 40010 L-308705 39954 L-308266 39841 L-308127 39729 L-308019 39616 L-307817 39560 L-307700 39503 L-307598 39447 L-307583 39447 L-307451 39391 L-307197 39335 L-306579 39278 L-305919 39222 L-305674 39222 L-305481 39166 L-304722 39166 L-304682 39166 L-304604 39109 L-304552 38997 L-304513 38940 L-304475 38884 L-304436 38828 L-304345 38771 L-304300 38715 L-304242 38603 L-304218 38546 L-304103 38490 L-303793 38377 L-303738 38321 L-303717 38265 L-303374 38208 L-303209 38152 L-303174 38039 L-303133 37983 L-303119 37927 L-302887 37871 L-302746 37814 L-302578 37758 L-302129 37758 L-301895 37758 L-301803 37758 L-301783 37814 L-301302 37758 L-301225 37758 L-301097 37702 L-300967 37589 L-300589 37533 L-300348 37420 L-300310 37364 L-300256 37307 L-300118 37195 L-300079 37139 L-300039 37082 L-299808 37026 L-299768 36970 L-299638 36913 L-299459 36857 L-299419 36801 L-299405 36744 L-299241 36688 L-299226 36632 L-299073 36576 L-299058 36519 L-299032 36463 L-298997 36407 L-298776 36294 L-298553 36294 L-298299 36238 L-298167 36294 L-297525 36294 L-296917 36238 L-295898 36238 L-295704 36181 L-295653 36125 L-295528 36069 L-295204 36012 L-294431 35956 L-294373 35900 L-294260 35844 L-293848 35787 L-293523 35731 L-293385 35675 L-293161 35618 L-292635 35562 L-292234 35562 L-292202 35506 L-291915 35506 L-291630 35449 L-291242 35393 L-291026 35337 L-290598 35224 L-290417 35168 L-290081 35112 L-289974 35055 L-289788 35055 L-289671 34999 L-289656 34999 L-288935 34943 L-288766 34886 L-288517 34830 L-288417 34774 L-287775 34717 L-287487 34661 L-287296 34605 L-287021 34548 L-286704 34492 L-286419 34436 L-286305 34323 L-286261 34267 L-286058 34211 L-284450 34154 L-284237 34098 L-283557 34042 L-283474 33985 L-283246 33929 L-283055 33929 L-282917 33873 L-282898 33873 L-282705 33873 L-282475 33873 L-282282 33873 L-281198 33817 L-281003 33817 L-280950 33817 L-280796 33817 L-280689 33817 L-280522 33817 L-280370 33760 L-280254 33704 L-280130 33591 L-279713 33535 L-279456 33422 L-279364 33366 L-279171 33366 L-279109 33310 L-278784 33310 L-278722 33310 L-278665 33253 L-278397 33197 L-278048 33141 L-277870 33085 L-277675 33028 L-277640 33085 L-276927 33085 L-276887 33197 L-276578 33253 L-276280 33310 L-276231 33366 L-275975 33422 L-275704 33479 L-275649 33479 L-274558 33479 L-274527 33422 L-274487 33422 L-274310 33422 L-274118 33366 L-273260 33366 L-272207 33310 L-272146 33253 L-271797 33197 L-270984 33197 L-270171 33197 L-270155 33197 L-269781 33197 L-269612 33197 L-269343 33197 L-269016 33141 L-268894 33085 L-268837 33085 L-268802 33028 L-268724 33028 L-268507 32972 L-268449 32916 L-268133 32859 L-267965 32803 L-267602 32803 L-267409 32803 L-267385 32803 L-267308 32747 L-266827 32747 L-266690 32747 L-266276 32690 L-265977 32690 L-265878 32634 L-265862 32578 L-265833 32521 L-265474 32465 L-265124 32409 L-264986 32353 L-264950 32353 L-264133 32296 L-263927 32240 L-263902 32184 L-263746 32184 L-263656 32127 L-263415 32127 L-263091 32071 L-262998 32071 L-262802 32015 L-262516 32015 L-261760 31958 L-261631 31902 L-261558 31846 L-260945 31789 L-260769 31733 L-260659 31677 L-260559 31621 L-260480 31564 L-260343 31508 L-260188 31508 L-260109 31508 L-259918 31508 L-259245 31508 L-259207 31452 L-259104 31395 L-258161 31339 L-258139 31283 L-257788 31226 L-257323 31170 L-257287 31114 L-256858 31057 L-256807 31057 L-256396 31001 L-256379 31001 L-256283 31001 L-256227 31001 L-256189 31001 L-255894 30945 L-254155 30889 L-252645 30832 L-252138 30776 L-251640 30720 L-251506 30663 L-251415 30607 L-251288 30551 L-251209 30438 L-250903 30382 L-250633 30326 L-250399 30326 L-249200 30269 L-249095 30269 L-249029 30213 L-248188 30157 L-248002 30100 L-247091 30044 L-246222 29931 L-245934 29875 L-245841 29762 L-245292 29706 L-244773 29650 L-243704 29594 L-243435 29537 L-243282 29537 L-243189 29537 L-243059 29594 L-243011 29650 L-242852 29650 L-241986 29650 L-241651 29650 L-241268 29594 L-240515 29537 L-240456 29481 L-240067 29481 L-239745 29481 L-239588 29425 L-238856 29425 L-238793 29425 L-238506 29425 L-238132 29425 L-237951 29425 L-237695 29368 L-237434 29256 L-237281 29199 L-236878 29143 L-235580 29087 L-235465 29030 L-235002 28974 L-233670 28918 L-233245 28862 L-233221 28805 L-233088 28749 L-232912 28693 L-232779 28693 L-232449 28636 L-232061 28580 L-232022 28524 L-232006 28411 L-231615 28355 L-231324 28298 L-231055 28298 L-230881 28298 L-229388 28298 L-229338 28242 L-229260 28298 L-228020 28355 L-227945 28355 L-227918 28467 L-227671 28411 L-227514 28411 L-227455 28355 L-226568 28355 L-226339 28298 L-225816 28298 L-225675 28355 L-225599 28355 L-224903 28411 L-224655 28411 L-223974 28355 L-223957 28355 L-223703 28298 L-223335 28298 L-223200 28242 L-222577 28130 L-222234 28073 L-222187 28017 L-221700 27961 L-221365 27848 L-221149 27848 L-221014 27792 L-220693 27735 L-220629 27735 L-220377 27679 L-220087 27623 L-219778 27567 L-219638 27510 L-219099 27454 L-218823 27398 L-218093 27341 L-218040 27341 L-217933 27341 L-217667 27341 L-217243 27341 L-216978 27285 L-216759 27229 L-216738 27172 L-216507 27116 L-216220 27060 L-216196 27060 L-216182 27003 L-215809 27003 L-215638 26947 L-215562 26835 L-215501 26778 L-215200 26666 L-214959 26553 L-214866 26497 L-214609 26440 L-214557 26384 L-214361 26328 L-214145 26384 L-213721 26384 L-213629 26440 L-213489 26384 L-212624 26328 L-212250 26271 L-211922 26159 L-211770 26103 L-211343 26103 L-210625 26046 L-210430 26046 L-210076 25990 L-209929 25934 L-209423 25821 L-209187 25765 L-208220 25708 L-208210 25652 L-207144 25596 L-206912 25539 L-206510 25483 L-206316 25427 L-206236 25371 L-206140 25314 L-205403 25314 L-205270 25314 L-204881 25314 L-204858 25258 L-204763 25258 L-204628 25202 L-204611 25145 L-204591 25089 L-202906 25033 L-202888 25033 L-202771 24976 L-202686 24976 L-202562 24976 L-202538 24920 L-202254 24864 L-202147 24807 L-201959 24695 L-201688 24639 L-201016 24582 L-200644 24526 L-199793 24526 L-199735 24470 L-199716 24470 L-199482 24470 L-199208 24413 L-198902 24413 L-198863 24301 L-198632 24301 L-198394 24244 L-197781 24188 L-197741 24132 L-197703 24019 L-197182 23963 L-196990 23907 L-196930 23850 L-196887 23794 L-196565 23794 L-196537 23738 L-196522 23738 L-196037 23681 L-195984 23625 L-195846 23569 L-195808 23512 L-195791 23456 L-195696 23400 L-195031 23400 L-194415 23344 L-194145 23344 L-193737 23344 L-193716 23287 L-193701 23287 L-193587 23231 L-193200 23175 L-192734 23175 L-192673 23118 L-192594 23062 L-192580 23006 L-192093 22893 L-192054 22837 L-191908 22837 L-191859 22780 L-191780 22837 L-191148 22780 L-191057 22780 L-190816 22780 L-190699 22724 L-190372 22724 L-189617 22668 L-189601 22668 L-188649 22668 L-188340 22612 L-187915 22555 L-187202 22499 L-186883 22443 L-186868 22386 L-186717 22274 L-186413 22217 L-186336 22161 L-186208 22105 L-185772 22105 L-185711 22105 L-185188 22105 L-184919 22105 L-184782 22048 L-184704 21992 L-184665 21936 L-183853 21936 L-183813 21936 L-183373 21936 L-183295 21936 L-183037 21880 L-182846 21823 L-182217 21767 L-182030 21711 L-181996 21598 L-181840 21542 L-181438 21429 L-181361 21373 L-181180 21317 L-180990 21260 L-180061 21148 L-179911 21091 L-178703 21035 L-177893 20979 L-177490 20922 L-176887 20866 L-176685 20810 L-176617 20753 L-176459 20697 L-176197 20641 L-175824 71091 L-175805 71035 L-175648 71035 L-174450 71035 L-173346 20528 L-172419 20472 L-172305 20416 L-172019 20359 L-171918 20303 L-171893 20303 L-171703 20190 L-171626 20134 L-171430 20134 L-170718 20134 L-170560 20190 L-169503 20190 L-169078 20190 L-168668 20134 L-168382 20021 L-168208 19965 L-167976 19909 L-167722 19853 L-167279 19796 L-166618 19740 L-166443 19684 L-166138 19627 L-165751 19571 L-165731 19515 L-165712 19458 L-165690 19402 L-165556 19346 L-165364 19289 L-163720 19233 L-162424 19177 L-162385 19121 L-162327 19064 L-162226 19008 L-161667 18952 L-160682 18895 L-160140 18783 L-159676 18726 L-159031 18670 L-158482 18614 L-157432 18557 L-156503 18501 L-156156 18445 L-155962 18389 L-155459 18332 L-155014 18332 L-154872 18276 L-154850 18276 L-154279 18276 L-153894 18163 L-153060 18107 L-152711 18051 L-152690 17994 L-152302 17994 L-151879 17938 L-151281 17882 L-151262 17826 L-150756 17826 L-150524 17769 L-150411 17769 L-149792 17657 L-149230 17600 L-149190 17544 L-148631 17488 L-148298 17431 L-148185 17431 L-148147 17375 L-147721 17375 L-147662 17375 L-147586 17319 L-147295 17319 L-147083 17262 L-146599 17150 L-146384 17094 L-145245 17037 L-145186 16981 L-145168 16925 L-144762 16868 L-144123 16812 L-143988 16756 L-143929 16699 L-143388 16643 L-143079 16587 L-142827 16587 L-142752 16530 L-142632 16474 L-141899 16362 L-141453 16305 L-141239 16249 L-140506 16193 L-140331 16136 L-139966 16136 L-139751 16136 L-138513 16136 L-138203 16136 L-138087 16136 L-137834 16080 L-137623 16024 L-137081 15967 L-136849 15911 L-136792 15911 L-136694 15855 L-136365 15855 L-136132 15798 L-134470 15742 L-134119 15686 L-133715 15573 L-133560 15517 L-132768 15461 L-131277 15404 L-130891 15348 L-130852 15292 L-130598 15235 L-130503 15179 L-130311 15123 L-129962 15123 L-129266 15067 L-129015 15067 L-128299 15010 L-126886 14954 L-126654 14898 L-126325 14898 L-125109 14898 L-124757 14954 L-124565 15010 L-124447 15067 L-122012 15067 L-121043 15010 L-120212 14954 L-119902 14898 L-118560 14841 L-117988 14785 L-117872 14729 L-117543 14729 L-117446 14672 L-117039 14672 L-116924 14616 L-116733 14560 L-115976 14503 L-115850 14447 L-115569 14391 L-115067 14335 L-114989 14278 L-113402 14560 L-113345 14841 L-112603 15179 L-112222 15461 L-111894 15404 L-111231 15348 L-111100 15292 L-111061 15292 L-110810 15292 L-110675 15292 L-110482 15235 L-110346 15235 L-110095 15123 L-109882 15123 L-109573 15067 L-109300 15067 L-108799 15067 L-108780 15067 L-108346 15010 L-108120 14954 L-107676 14898 L-107657 14841 L-107154 14785 L-107016 14729 L-106902 14672 L-106671 14616 L-106360 14560 L-105896 14503 L-105819 14447 L-105316 14391 L-105045 14335 L-104708 14278 L-104523 14222 L-103846 14166 L-103827 14166 L-103652 14109 L-103633 14053 L-103015 13997 L-102299 13940 L-101737 13884 L-101542 13884 L-101388 13828 L-101370 13828 L-100846 13715 L-100732 13659 L-99860 13603 L-99839 13546 L-99783 13490 L-98951 13434 L-98641 13377 L-98565 13321 L-98294 13265 L-98231 13265 L-98180 13152 L-97869 13039 L-97252 12927 L-96476 12871 L-95682 12814 L-95644 12758 L-95566 12702 L-95394 12645 L-94516 12589 L-93632 12533 L-93537 12476 L-93417 12420 L-93088 12364 L-93051 12364 L-92819 12307 L-92586 12307 L-91871 12195 L-91369 12139 L-90703 12082 L-90594 12026 L-90440 11970 L-90421 11913 L-90266 11857 L-89850 11801 L-89239 11744 L-89105 11688 L-88196 11632 L-87993 11576 L-87441 11519 L-84792 11463 L-84617 11407 L-84539 11294 L-83668 11238 L-83204 11181 L-82721 11125 L-82682 11012 L-82102 10956 L-82082 10900 L-80980 10844 L-79558 10787 L-79140 10731 L-78833 10675 L-78756 10618 L-78680 10562 L-78522 10506 L-78446 10449 L-77982 10393 L-76744 10337 L-76492 10280 L-76048 10224 L-75426 10168 L-75370 10112 L-75176 10112 L-74712 10055 L-74421 9943 L-74380 9830 L-74344 9717 L-74190 9605 L-74013 9548 L-72875 9436 L-72487 9380 L-72430 9323 L-72256 9267 L-69738 9154 L-68578 9098 L-67941 9042 L-67802 8985 L-67671 8873 L-67283 8817 L-66819 8760 L-66608 8648 L-66543 8591 L-66510 8535 L-65756 8479 L-65174 8422 L-64982 8366 L-64363 8310 L-64317 8253 L-63956 8197 L-63850 8141 L-63666 8085 L-63388 8028 L-62485 7972 L-61480 7916 L-60745 7859 L-60319 7803 L-60159 7747 L-59796 7690 L-59699 7634 L-59256 7578 L-59180 7521 L-58828 7521 L-58578 7409 L-58558 7296 L-58385 7184 L-57436 7015 L-57322 6958 L-56760 6902 L-56310 6846 L-55925 6789 L-55014 6733 L-54958 6677 L-53819 6621 L-53239 6508 L-53064 6452 L-52271 6339 L-52039 6283 L-51652 6226 L-51382 6170 L-51246 6114 L-51130 6057 L-50511 6057 L-50454 6057 L-50238 6057 L-49944 6057 L-49156 6001 L-49016 6001 L-47628 5945 L-47281 5945 L-46894 5889 L-46833 5776 L-46796 5720 L-46739 5663 L-46096 5607 L-45404 5551 L-45152 5551 L-44817 5494 L-44727 5494 L-44207 5438 L-43953 5382 L-43738 5269 L-43355 5213 L-43194 5157 L-42656 5044 L-41844 4988 L-41825 4931 L-41709 4931 L-41565 4875 L-41184 4875 L-40992 4875 L-40935 4819 L-40636 4762 L-40569 4706 L-40374 4650 L-40007 4594 L-39945 4537 L-39641 4481 L-39596 4481 L-39542 4425 L-38904 4425 L-38885 4368 L-38400 4312 L-37917 4368 L-37548 4368 L-37182 4425 L-37047 4425 L-36893 4368 L-36823 4312 L-36176 4312 L-36156 4256 L-36015 4256 L-35531 4199 L-35248 4199 L-35190 4143 L-35132 4143 L-34822 4087 L-34667 4030 L-34184 4030 L-33410 4030 L-32770 4030 L-32673 3974 L-31610 3974 L-31589 3918 L-31124 71880 L-31108 71880 L-30934 71880 L-30422 71880 L-28067 3862 L-27123 3805 L-26404 3749 L-25863 3636 L-25166 3580 L-24850 3524 L-24201 3467 L-23694 3411 L-23659 3355 L-23618 3298 L-23272 3242 L-22577 3186 L-22380 3130 L-22364 3017 L-22248 2961 L-21966 2904 L-21068 2792 L-21022 2735 L-20656 2623 L-20639 2567 L-20584 2510 L-20390 2454 L-20254 2398 L-20179 2341 L-19945 2285 L-19404 2229 L-19364 2172 L-19327 2116 L-19301 2060 L-18666 1947 L-18124 1891 L-16959 1835 L-16599 1778 L-15322 1778 L-15283 1722 L-15244 1722 L-15030 1666 L-14839 1609 L-14762 1553 L-14608 1497 L-14569 1440 L-13480 1384 L-13155 1384 L-12941 1328 L-12681 1328 L-12188 1328 L-12166 1553 L-11749 1778 L-11608 1947 L-11548 2172 L-11471 2172 L-11260 2116 L-9965 2116 L-9689 2060 L-9064 2003 L-7673 1947 L-7601 1891 L-7563 1778 L-7370 1722 L-6980 1666 L-6673 1609 L-6616 1553 L-6301 1553 L-6251 1553 L-6212 1497 L-6166 1440 L-5533 1384 L-4760 1328 L-4321 1271 L-4179 69853 L-4155 69796 L-4139 138377 L-4114 138377 L-3696 69796 L-3493 69740 L-3344 1103 L-3265 1046 L-3211 990 L-2414 990 L-2398 990 L-1534 990 L-1330 990 L-1044 934 L-928 877 L-402 821 L-226 765 L77 708 L464 652 L524 539 L580 483 L735 427 L1779 371 L2341 371 L2577 314 L2614 314 L2883 314 L3289 258 L4759 202 L6500 145" />
</svg>
