<svg xmlns="http://www.w3.org/2000/svg" version="1.1" viewBox="0 0 6500 1000">
	<path fill="none" stroke="gold" stroke-width="125" stroke-linecap="round" stroke-linejoin="round" d="M0 8947  L-89624 8947 L-89440 8914 L-88950 8848 L-88656 8815 L-88345 8749 L-88111 8716 L-88057 8650 L-87998 8584 L-87845 8551 L-87804 8485 L-87672 8452 L-87379 8419 L-86838 8419 L-86228 8386 L-86180 8386 L-85540 8353 L-85507 8353 L-84981 8353 L-84849 8320 L-84458 8254 L-84130 8188 L-84013 8122 L-83802 8056 L-83085 8056 L-82515 8023 L-82408 8023 L-82233 7990 L-82012 7924 L-81610 7891 L-81585 7825 L-80657 7759 L-80569 7693 L-80487 7627 L-80417 7561 L-80120 7528 L-79968 7462 L-78077 7495 L-77977 7495 L-77714 7495 L-77421 7528 L-77279 7462 L-77030 7462 L-76995 7429 L-76836 7396 L-76373 7330 L-76120 7297 L-75908 7231 L-75656 7198 L-75307 7165 L-74380 7099 L-74286 7033 L-73876 7000 L-72705 6934 L-71516 6901 L-71424 6835 L-71396 6769 L-71130 6703 L-70831 6637 L-70702 6571 L-70665 6505 L-69850 6505 L-69466 6538 L-68406 6571 L-68345 6571 L-68079 7231 L-67608 7858 L-67416 8485 L-67152 9112 L-66815 9079 L-66680 9046 L-66224 9013 L-65481 8980 L-65463 8947 L-65298 8881 L-65230 8881 L-64714 8848 L-63685 8848 L-63489 8815 L-63000 8782 L-62638 8749 L-62230 8749 L-61844 8782 L-60141 8782 L-60043 8782 L-59971 8782 L-59909 8782 L-59725 8749 L-59389 8749 L-58748 8716 L-58671 8683 L-58610 8683 L-58423 8650 L-58344 8650 L-58167 8617 L-58147 8584 L-57917 8584 L-57530 8551 L-56641 8551 L-56602 8518 L-56513 8485 L-56486 8419 L-55478 8386 L-55328 8320 L-55304 8287 L-55171 8254 L-55131 8221 L-53873 8188 L-53815 8188 L-53275 8155 L-53223 8155 L-53176 8155 L-52781 8122 L-52642 8089 L-52442 8056 L-52295 8056 L-52130 8056 L-51854 8089 L-51495 8089 L-50942 8056 L-50298 8023 L-50039 7957 L-49885 7924 L-49484 7891 L-49444 7858 L-49323 7825 L-49262 7858 L-49248 7858 L-49154 7858 L-48861 7825 L-48709 7693 L-48379 7627 L-48301 7561 L-48225 7528 L-47999 7429 L-47932 7363 L-47704 7297 L-47652 7231 L-47487 7198 L-46481 7165 L-46298 7132 L-45747 7099 L-45354 7033 L-44957 7000 L-44107 6934 L-44028 6901 L-43449 6868 L-43008 6868 L-42767 6835 L-42610 6835 L-42209 6769 L-42188 6769 L-41744 6736 L-41338 6703 L-41202 6637 L-41027 6571 L-40891 6505 L-40640 6439 L-39641 6406 L-39558 6373 L-39423 6340 L-39384 6307 L-38494 6274 L-38279 6241 L-37835 6208 L-37718 6175 L-37661 6142 L-36985 6142 L-36885 6109 L-36856 6109 L-35514 6076 L-35108 6043 L-35069 6010 L-34141 5977 L-34042 5944 L-33909 5911 L-33505 5878 L-33479 5845 L-33386 5812 L-33170 5779 L-32759 5713 L-31605 5647 L-31313 5581 L-31285 5515 L-30677 5482 L-30427 5416 L-30407 5383 L-29477 5350 L-29426 5284 L-29304 5251 L-29286 5185 L-29130 5152 L-28955 5086 L-28818 5053 L-28762 5020 L-28654 4987 L-28569 4954 L-28336 4921 L-28261 4888 L-27952 4855 L-27834 4822 L-27665 4789 L-27573 4756 L-27471 4756 L-27447 4723 L-27370 4723 L-27272 4657 L-26906 4624 L-26801 4591 L-26297 4558 L-25846 4525 L-25807 4492 L-25783 4459 L-25743 4426 L-25614 4393 L-25513 4360 L-25072 4327 L-24789 4294 L-24197 4261 L-24067 4228 L-23792 4162 L-23640 4129 L-23486 4096 L-23401 4030 L-23323 3997 L-23137 3964 L-23087 3964 L-23059 3931 L-22980 3898 L-22957 3865 L-22673 3799 L-22069 3733 L-21074 3700 L-20776 3666 L-20042 3633 L-19798 3600 L-19708 3567 L-19130 3534 L-18432 3501 L-17680 3468 L-17361 3435 L-16978 3369 L-16901 3336 L-16267 3303 L-16081 3270 L-15994 3270 L-15864 3270 L-15551 3237 L-15502 3204 L-15360 3171 L-15338 3138 L-14371 3105 L-13825 3072 L-13347 3072 L-13286 3072 L-12962 3072 L-12941 3039 L-12878 3039 L-12668 3006 L-12591 2973 L-12537 2940 L-12514 2907 L-12475 2874 L-12459 2841 L-11702 2808 L-11686 2775 L-10886 2742 L-10734 2709 L-9828 2676 L-9322 2643 L-9093 2577 L-9052 2577 L-8936 2544 L-8760 2511 L-8006 2544 L-7871 2511 L-7707 2478 L-7389 2445 L-7212 2379 L-6190 2313 L-6167 2247 L-5916 2214 L-5703 2148 L-5069 2115 L-4831 2049 L-4798 1983 L-4620 1917 L-4540 1851 L-4450 1818 L-4386 1752 L-3946 1686 L-3922 1653 L-3381 1620 L-3125 1587 L-2631 1554 L-1753 1521 L-1717 1488 L-1664 1455 L-1623 1422 L-1506 1389 L-1229 1356 L-1022 1290 L-825 1224 L-802 1158 L-751 1092 L-712 1059 L-634 1026 L-37 960 L22 927 L126 894 L280 861 L912 828 L1593 795 L1896 729 L2242 696 L2440 663 L2488 597 L2809 564 L3436 531 L3583 498 L3619 465 L3677 432 L3754 366 L3995 366 L4083 333 L4177 300 L4471 267 L4605 234 L4665 201 L4702 135 L4975 135 L5981 102 L6156 69 L6207 69 L6500 36" />
</svg>
