<svg xmlns="http://www.w3.org/2000/svg" version="1.1" viewBox="0 0 6500 1000">
	<path fill="none" stroke="gold" stroke-width="125" stroke-linecap="round" stroke-linejoin="round" d="M0 5778  L-771824 5778 L-771640 5776 L-771150 5771 L-770856 5769 L-770545 5764 L-770310 5762 L-770257 5757 L-770198 5752 L-770045 5750 L-770004 5745 L-769871 5743 L-769579 5741 L-769038 5741 L-768428 5738 L-768380 5738 L-767740 5736 L-767707 5736 L-767181 5736 L-767049 5734 L-766658 5729 L-766330 5724 L-766213 5720 L-766002 5715 L-765285 5715 L-764715 5713 L-764608 5713 L-764433 5710 L-764212 5706 L-763810 5703 L-763785 5699 L-762857 5694 L-762769 5689 L-762687 5685 L-762617 5680 L-762319 5678 L-762167 5673 L-760277 5675 L-760176 5675 L-759914 5675 L-759621 5678 L-759479 5673 L-759230 5673 L-759195 5671 L-759036 5668 L-758573 5664 L-758320 5661 L-758108 5657 L-757856 5654 L-757507 5652 L-756580 5647 L-756486 5643 L-756075 5640 L-754905 5636 L-753716 5633 L-753623 5629 L-753596 5624 L-753330 5619 L-753031 5615 L-752902 5610 L-752865 5606 L-752050 5606 L-751666 5608 L-750606 5610 L-750544 5610 L-750279 5657 L-749808 5701 L-749616 5745 L-749352 5790 L-749015 5787 L-748880 5785 L-748424 5783 L-747681 5780 L-747663 5778 L-747498 5773 L-747430 5773 L-746914 5771 L-745885 5771 L-745689 5769 L-745200 5766 L-744838 5764 L-744430 5764 L-744044 5766 L-742340 5766 L-742242 5766 L-742171 5766 L-742109 5766 L-741925 5764 L-741588 5764 L-740948 5762 L-740871 5759 L-740810 5759 L-740623 5757 L-740544 5757 L-740366 5755 L-740347 5752 L-740117 5752 L-739729 5750 L-738841 5750 L-738801 5748 L-738713 5745 L-738686 5741 L-737678 5738 L-737528 5734 L-737504 5731 L-737371 5729 L-737331 5727 L-736073 5724 L-736015 5724 L-735475 5722 L-735423 5722 L-735376 5722 L-734981 5720 L-734841 5717 L-734642 5715 L-734495 5715 L-734330 5715 L-734054 5717 L-733695 5717 L-733142 5715 L-732497 5713 L-732239 5708 L-732085 5706 L-731684 5703 L-731644 5701 L-731523 5699 L-731461 5701 L-731447 5701 L-731354 5701 L-731061 5699 L-730909 5689 L-730579 5685 L-730501 5680 L-730425 5678 L-730199 5671 L-730132 5666 L-729904 5661 L-729852 5657 L-729687 5654 L-728681 5652 L-728498 5650 L-727947 5647 L-727554 5643 L-727157 5640 L-726306 5636 L-726228 5633 L-725649 5631 L-725208 5631 L-724967 5629 L-724810 5629 L-724409 5624 L-724388 5624 L-723943 5622 L-723538 5619 L-723402 5615 L-723227 5610 L-723091 5606 L-722840 5601 L-721840 5599 L-721758 5596 L-721623 5594 L-721584 5592 L-720694 5589 L-720479 5587 L-720035 5585 L-719918 5582 L-719861 5580 L-719185 5580 L-719085 5578 L-719056 5578 L-717714 5575 L-717308 5573 L-717269 5571 L-716340 5568 L-716242 5566 L-716109 5564 L-715705 5561 L-715679 5559 L-715586 5557 L-715370 5554 L-714959 5550 L-713805 5545 L-713513 5540 L-713485 5536 L-712877 5533 L-712626 5529 L-712607 5526 L-711677 5524 L-711626 5519 L-711504 5517 L-711486 5512 L-711330 5510 L-711155 5505 L-711018 5503 L-710962 5501 L-710854 5498 L-710769 5496 L-710535 5494 L-710461 5491 L-710152 5489 L-710034 5487 L-709864 5484 L-709773 5482 L-709671 5482 L-709647 5480 L-709570 5480 L-709472 5475 L-709106 5473 L-709001 5470 L-708497 5468 L-708046 5466 L-708007 5463 L-707983 5461 L-707943 5459 L-707814 5456 L-707713 5454 L-707271 5452 L-706989 5449 L-706397 5447 L-706266 5445 L-705992 5440 L-705840 5438 L-705686 5435 L-705601 5431 L-705523 5428 L-705337 5426 L-705287 5426 L-705259 5424 L-705180 5421 L-705156 5419 L-704873 5414 L-704269 5410 L-703274 5407 L-702976 5405 L-702242 5403 L-701998 5400 L-701908 5398 L-701330 5396 L-700632 5393 L-699880 5391 L-699561 5389 L-699178 5384 L-699101 5382 L-698467 5380 L-698281 5377 L-698194 5377 L-698064 5377 L-697751 5375 L-697702 5373 L-697560 5370 L-697538 5368 L-696571 5366 L-696025 5363 L-695547 5363 L-695486 5363 L-695162 5363 L-695141 5361 L-695078 5361 L-694868 5359 L-694791 5356 L-694737 5354 L-694714 5352 L-694675 5349 L-694659 5347 L-693902 5345 L-693885 5342 L-693086 5340 L-692934 5338 L-692028 5335 L-691522 5333 L-691293 5328 L-691251 5328 L-691136 5326 L-690960 5324 L-690205 5326 L-690071 5324 L-689907 5321 L-689588 5319 L-689412 5314 L-688390 5310 L-688367 5305 L-688116 5303 L-687903 5298 L-687269 5296 L-687031 5291 L-686998 5286 L-686820 5282 L-686740 5277 L-686650 5275 L-686586 5270 L-686145 5265 L-686122 5263 L-685581 5261 L-685325 5258 L-684831 5256 L-683953 5254 L-683916 5251 L-683864 5249 L-683823 5247 L-683705 5244 L-683429 5242 L-683222 5237 L-683025 5233 L-683002 5228 L-682951 5223 L-682912 5221 L-682834 5219 L-682237 5214 L-682176 5212 L-682073 5209 L-681919 5207 L-681287 5205 L-680606 5202 L-680303 5198 L-679957 5195 L-679759 5193 L-679711 5188 L-679390 5186 L-678763 5184 L-678616 5181 L-678580 5179 L-678522 5177 L-678445 5172 L-678204 5172 L-678116 5170 L-678022 5168 L-677728 5165 L-677594 5163 L-677533 5161 L-677497 5156 L-677224 5156 L-676218 5154 L-676043 5151 L-675992 5151 L-675699 5149 L-675507 5144 L-675174 5142 L-674667 5140 L-674105 5135 L-674090 5130 L-674074 5128 L-673973 5123 L-673859 5119 L-673820 5114 L-673782 5112 L-673716 5112 L-673688 5109 L-673549 5112 L-673256 5112 L-673206 5112 L-673101 5112 L-672837 5109 L-672372 5107 L-672227 5107 L-672173 5102 L-672116 5100 L-671925 5098 L-671559 5095 L-671345 5095 L-671150 5095 L-671092 5095 L-671033 5091 L-670879 5088 L-670610 5086 L-670180 5098 L-670165 5098 L-670088 5095 L-670023 5093 L-669894 5077 L-669870 5074 L-669586 5072 L-669538 5070 L-669484 5067 L-669021 5065 L-668983 5065 L-668942 5063 L-668752 5060 L-668271 5058 L-667784 5056 L-667768 5053 L-667730 5051 L-667473 5049 L-667396 5044 L-667166 5042 L-667150 5037 L-666856 5032 L-666413 5030 L-665966 5028 L-665462 5025 L-665308 5023 L-665021 5021 L-664981 5016 L-664650 5014 L-664428 5011 L-663911 5007 L-663835 5004 L-663588 5000 L-663393 4995 L-663333 4993 L-662557 4990 L-662483 4990 L-662252 4988 L-662236 4988 L-662174 4986 L-661978 4983 L-661514 4983 L-661491 4981 L-661361 4981 L-660060 4981 L-660044 4981 L-659967 4979 L-659873 4979 L-659656 4979 L-659503 4976 L-659325 4979 L-659271 4981 L-658984 4983 L-658944 4983 L-658575 4983 L-658135 4983 L-657952 4983 L-657631 4981 L-657335 4981 L-656889 4976 L-656818 4974 L-656355 4969 L-655918 4967 L-655735 4965 L-654281 4960 L-654149 4958 L-653692 4953 L-653466 4951 L-653080 4946 L-652563 4942 L-651609 4937 L-650815 4932 L-650140 4930 L-649715 4925 L-649404 4923 L-649174 4916 L-648491 4909 L-648477 4902 L-648268 4893 L-648246 4890 L-648071 4886 L-647121 4883 L-646853 4879 L-646038 4876 L-645727 4872 L-645690 4869 L-645632 4865 L-645016 4862 L-644378 4858 L-642752 4855 L-642078 4853 L-641436 4853 L-641358 4853 L-641302 4853 L-641266 4853 L-641238 4851 L-641126 4846 L-641108 4844 L-641085 4841 L-640932 4839 L-640878 4834 L-640800 4832 L-640681 4830 L-640583 4827 L-640466 4825 L-640197 4820 L-639927 4818 L-639909 4813 L-639710 4811 L-639563 4806 L-639336 4804 L-639202 4802 L-638893 4799 L-638833 4797 L-638480 4792 L-638131 4790 L-638030 4788 L-637966 4783 L-637906 4781 L-637522 4776 L-637141 4774 L-637037 4771 L-636776 4769 L-636505 4764 L-636346 4762 L-636314 4760 L-636252 4757 L-636110 4755 L-635926 4753 L-635882 4750 L-635594 4750 L-635578 4748 L-635344 4748 L-635284 4746 L-635245 4746 L-634665 4743 L-634532 4741 L-634508 4732 L-634490 4716 L-634473 4697 L-634456 4678 L-634432 4660 L-634416 4646 L-634395 4629 L-634378 4613 L-634355 4604 L-634338 4594 L-634317 4587 L-634300 4583 L-634251 4576 L-634179 4569 L-634144 4557 L-634120 4548 L-634085 4538 L-634043 4529 L-634006 4524 L-633990 4515 L-633966 4508 L-633929 4504 L-633912 4497 L-633889 4492 L-633871 4487 L-633853 4483 L-633837 4478 L-633808 4471 L-633782 4464 L-633736 4462 L-633720 4457 L-633678 4455 L-633630 4450 L-633559 4445 L-633544 4441 L-633528 4436 L-633466 4434 L-633426 4431 L-633387 4429 L-633221 4427 L-633156 4424 L-633140 4422 L-633096 4417 L-633037 4415 L-632825 4413 L-632791 4410 L-632749 4408 L-632671 4406 L-632134 4403 L-632055 4401 L-631951 4396 L-631863 4394 L-631686 4392 L-631336 4389 L-631180 4387 L-630742 4385 L-630585 4382 L-630456 4380 L-629752 4375 L-629551 4373 L-628590 4368 L-628108 4366 L-628008 4366 L-627916 4364 L-627671 4361 L-627598 4359 L-627155 4354 L-627059 4352 L-627044 4350 L-627028 4347 L-627003 4345 L-626537 4343 L-626320 4340 L-626181 4338 L-625887 4336 L-625798 4333 L-625757 4331 L-625727 4329 L-625555 4326 L-625496 4324 L-625420 4322 L-625339 4319 L-625269 4319 L-624960 4317 L-624875 4315 L-624661 4312 L-624626 4310 L-623942 4308 L-623844 4305 L-623639 4303 L-623592 4301 L-623314 4298 L-623252 4296 L-623234 4291 L-623156 4289 L-622848 4285 L-622824 4282 L-622770 4278 L-622747 4275 L-622625 4273 L-622489 4268 L-622245 4266 L-622119 4266 L-621472 4264 L-621456 4264 L-621432 4264 L-621251 4259 L-621175 4257 L-621084 4254 L-620656 4252 L-620240 4250 L-619847 4245 L-619768 4243 L-619749 4240 L-619386 4238 L-619150 4236 L-618921 4233 L-618608 4231 L-618530 4229 L-618450 4224 L-618271 4219 L-618256 4217 L-617990 4212 L-617910 4210 L-617680 4208 L-617454 4205 L-617138 4205 L-616963 4203 L-616602 4203 L-616210 4201 L-616141 4196 L-616077 4194 L-615937 4189 L-615885 4187 L-615784 4182 L-615282 4180 L-615084 4177 L-614838 4175 L-614652 4173 L-614353 4170 L-614276 4168 L-614110 4163 L-613226 4161 L-613197 4156 L-613074 4152 L-612496 4149 L-612418 4147 L-611705 4147 L-611393 4147 L-611179 4147 L-611163 4147 L-610776 4147 L-610251 4142 L-609805 4140 L-609475 4138 L-609323 4135 L-608997 4135 L-608818 4133 L-608737 4133 L-608531 4128 L-608355 4126 L-607426 4124 L-606537 4121 L-606498 4119 L-606270 4119 L-605891 4117 L-605103 4114 L-604869 4112 L-604793 4110 L-604435 4107 L-603864 4103 L-603597 4100 L-603210 4098 L-603106 4098 L-602936 4098 L-602318 4098 L-602107 4098 L-601799 4098 L-601746 4096 L-601618 4093 L-601565 4091 L-601446 4089 L-601110 4084 L-600150 4082 L-600019 4077 L-599817 4075 L-599186 4072 L-598875 4070 L-598461 4068 L-598433 4066 L-598288 4063 L-597868 4061 L-596535 4061 L-596489 4059 L-596360 4054 L-596343 4052 L-595765 4047 L-595560 4045 L-595530 4042 L-595489 4040 L-595432 4038 L-595394 4035 L-595316 4033 L-595173 4031 L-594719 4028 L-594600 4026 L-594315 4024 L-593943 4021 L-593846 4019 L-593519 4017 L-593165 4014 L-592995 4012 L-592948 4010 L-592839 4007 L-592750 4005 L-592722 4003 L-592646 3998 L-592342 3996 L-592308 3991 L-592237 3989 L-591869 3986 L-591533 3984 L-591452 3984 L-591233 3982 L-591061 3979 L-591034 3977 L-590536 3975 L-589987 3970 L-589107 3968 L-589008 3963 L-588931 3961 L-588657 3958 L-588409 3954 L-588336 3951 L-588274 3947 L-588155 3944 L-588113 3942 L-588003 3940 L-587926 3935 L-587225 3933 L-586980 3930 L-586940 3928 L-586784 3926 L-586184 3926 L-585957 3926 L-585865 3926 L-585390 3926 L-584793 3921 L-584273 3919 L-584252 3916 L-584107 3914 L-583787 3914 L-583245 3914 L-583013 3914 L-582842 3914 L-582356 3912 L-582128 3909 L-582043 3907 L-581697 3905 L-581371 3905 L-580848 3902 L-580521 3900 L-579920 3898 L-579723 3893 L-579671 3891 L-579630 3888 L-579349 3886 L-578665 3881 L-578354 3879 L-578330 3874 L-578138 3872 L-577916 3870 L-577830 3867 L-577166 3863 L-577142 3860 L-576920 3856 L-576590 3853 L-576238 3849 L-576033 3847 L-575800 3842 L-575543 3840 L-575353 3835 L-575306 3833 L-575079 3830 L-575044 3828 L-574888 3826 L-574673 3823 L-574500 3821 L-574409 3819 L-574132 3816 L-573888 3814 L-573572 3812 L-573146 3812 L-573109 3812 L-572625 3812 L-572392 3812 L-572180 3809 L-571954 3807 L-571404 3807 L-571157 3805 L-570323 3805 L-570267 3802 L-570246 3800 L-570088 3798 L-569626 3795 L-569585 3793 L-569245 3788 L-569112 3786 L-568889 3784 L-568317 3781 L-567845 3779 L-567651 3777 L-567458 3774 L-567268 3772 L-567167 3770 L-566798 3767 L-566752 3765 L-566671 3763 L-565377 3760 L-565329 3758 L-565061 3758 L-564915 3758 L-564365 3758 L-564248 3756 L-564166 3753 L-563807 3751 L-563583 3749 L-563302 3746 L-562973 3742 L-562465 3739 L-562352 3737 L-562274 3735 L-562109 3732 L-561815 3732 L-561346 3732 L-561150 3735 L-561099 3735 L-560449 3732 L-560327 3730 L-559873 3730 L-559837 3728 L-559369 3725 L-559258 3723 L-559242 3721 L-559026 3721 L-558845 3718 L-558314 3718 L-557284 3718 L-557084 3716 L-556626 3714 L-555678 3709 L-555579 3707 L-555225 3702 L-555165 3700 L-555150 3697 L-555115 3695 L-554745 3693 L-554625 3690 L-554383 3688 L-554220 3686 L-554032 3683 L-553912 3681 L-552841 3676 L-551983 3674 L-551770 3669 L-551673 3667 L-551499 3662 L-551166 3660 L-551094 3658 L-551037 3655 L-550861 3655 L-550472 3653 L-550237 3651 L-550126 3648 L-550009 3646 L-549028 3644 L-549002 3641 L-548408 3637 L-548375 3637 L-548227 3634 L-547942 3632 L-547031 3632 L-546084 3632 L-545931 3630 L-545829 3630 L-545697 3627 L-545554 3625 L-545528 3623 L-545414 3621 L-545195 3618 L-544514 3616 L-544385 3614 L-544081 3611 L-543841 3607 L-543509 3604 L-542870 3602 L-542528 3597 L-542466 3595 L-542310 3595 L-541389 3595 L-540918 3595 L-540875 3595 L-540862 3593 L-540821 3590 L-540798 3588 L-540772 3586 L-540628 3583 L-540205 3581 L-539870 3581 L-539679 3579 L-539250 3579 L-539062 3576 L-538673 3572 L-538139 3569 L-537766 3567 L-537745 3567 L-537495 3565 L-537377 3562 L-537301 3560 L-537165 3558 L-537126 3555 L-537046 3553 L-536651 3551 L-536155 3548 L-536044 3544 L-535870 3541 L-535562 3539 L-535115 3537 L-534792 3534 L-534649 3530 L-534222 3525 L-534069 3520 L-534014 3516 L-533200 3513 L-533180 3511 L-532808 3509 L-532752 3509 L-531622 3506 L-531555 3506 L-530996 3504 L-530802 3502 L-530665 3499 L-530432 3497 L-530085 3495 L-530050 3490 L-530015 3488 L-529947 3483 L-529598 3481 L-529426 3478 L-528941 3476 L-528924 3474 L-528599 3471 L-528442 3469 L-527301 3464 L-527276 3462 L-527084 3457 L-526891 3455 L-526641 3453 L-526623 3450 L-525603 3448 L-525306 3446 L-525230 3443 L-525094 3439 L-524918 3436 L-524342 3432 L-524126 3429 L-524062 3427 L-523931 3425 L-523895 3420 L-523371 3418 L-523233 4336 L-523219 4336 L-523196 4336 L-523176 4336 L-522949 3415 L-522173 3415 L-522131 3415 L-521764 3415 L-521685 3413 L-521633 3411 L-520960 3408 L-520218 3406 L-519793 3406 L-519345 3404 L-518284 3402 L-517972 3397 L-517562 3397 L-517490 3395 L-516966 3395 L-516871 3395 L-516853 3395 L-516408 3392 L-516223 3388 L-515443 3383 L-514770 3381 L-514358 3374 L-514126 3369 L-513986 3367 L-513904 3362 L-513884 3360 L-513808 3360 L-513680 3357 L-513363 3360 L-513138 3360 L-512813 3357 L-512751 3357 L-512381 3357 L-512348 3357 L-512139 3357 L-511472 3357 L-511395 3357 L-511237 3353 L-511126 3353 L-510799 3350 L-510645 3348 L-510304 3348 L-510247 3343 L-509908 3339 L-509705 3336 L-509652 3332 L-508276 3329 L-508146 3327 L-507712 3325 L-507392 3322 L-506564 3318 L-506441 3315 L-505710 3311 L-505554 3306 L-505513 3304 L-505460 3301 L-505437 3299 L-505322 3297 L-505026 3294 L-504736 3292 L-504682 3290 L-504561 3287 L-504531 3285 L-504431 3283 L-503987 3283 L-503836 3280 L-503000 3280 L-502458 3278 L-502124 3278 L-502108 3276 L-502032 3273 L-501916 3271 L-501722 3269 L-501457 3266 L-500623 3264 L-500526 3262 L-500005 3259 L-499963 3257 L-499864 3255 L-499036 3255 L-498901 3252 L-498562 3252 L-498008 3250 L-497628 3248 L-497465 3245 L-497155 3243 L-496343 3241 L-496037 3238 L-495768 3238 L-495447 3238 L-495126 3241 L-494850 3241 L-494022 3236 L-493926 3234 L-493834 3227 L-493730 3220 L-493343 3213 L-492863 3208 L-492846 3206 L-492728 3203 L-492360 3199 L-492265 3196 L-491431 3192 L-491354 3189 L-491054 3187 L-490964 3185 L-490556 3180 L-490446 3176 L-489747 3173 L-489274 3171 L-489214 3169 L-488995 3164 L-488721 3162 L-488608 3159 L-487581 3157 L-487194 3155 L-487174 3152 L-486841 3150 L-486597 3148 L-486163 3145 L-486053 3143 L-485936 3141 L-485484 3136 L-484894 3134 L-484557 3131 L-482664 3129 L-482551 3124 L-482339 3122 L-481020 3120 L-480914 2595 L-480848 2078 L-480812 1601 L-480750 1601 L-480250 2120 L-479575 2633 L-479553 3106 L-479283 3101 L-478315 3101 L-477626 3099 L-477464 3096 L-476923 3094 L-476833 3092 L-475814 3089 L-474866 3085 L-474501 3087 L-474398 3089 L-473809 3089 L-473750 3089 L-473650 3087 L-473209 3082 L-473102 3080 L-472660 3078 L-471660 3071 L-471404 3064 L-471301 3057 L-471171 3052 L-470804 3047 L-470223 3043 L-470193 3040 L-469877 3038 L-467894 3036 L-467778 3033 L-467711 3033 L-467352 3031 L-465733 3029 L-465556 3029 L-465411 3029 L-464589 3031 L-464536 3033 L-464482 3033 L-464048 3033 L-463067 3036 L-462993 3036 L-461909 3033 L-461695 3033 L-460979 3029 L-460591 3026 L-460372 3022 L-460053 3017 L-459559 3012 L-459431 3010 L-459202 3005 L-458970 3001 L-458911 2998 L-458621 2996 L-458349 2991 L-457319 2989 L-455654 2987 L-455235 2984 L-455098 2982 L-454941 2982 L-454636 2980 L-454408 2975 L-454250 2973 L-454090 2968 L-453921 2964 L-453874 2961 L-453821 2959 L-453799 2959 L-453413 2957 L-453163 2957 L-452893 2957 L-452732 2957 L-452642 2957 L-450983 2957 L-450818 2959 L-450438 2957 L-449978 2957 L-449369 2952 L-448276 2950 L-447844 2947 L-447813 2945 L-447751 2943 L-447733 2940 L-446030 2938 L-445988 2936 L-445521 2933 L-445334 2931 L-445302 2926 L-444707 2924 L-444657 2922 L-444334 2919 L-444284 2917 L-444073 2915 L-444055 2912 L-443789 2908 L-443736 2905 L-443267 2903 L-442757 2898 L-442678 2898 L-442384 2896 L-442368 2894 L-442329 2891 L-442258 2889 L-442101 2887 L-441155 2887 L-441098 2887 L-440577 2887 L-440385 2884 L-440284 2884 L-440058 2882 L-439548 2882 L-439160 2945 L-439091 2945 L-438742 2943 L-438385 2940 L-437257 2873 L-437205 2868 L-436979 2866 L-436945 2863 L-436820 2859 L-436721 2859 L-436457 2859 L-435716 2861 L-435138 2861 L-434844 2861 L-434139 2861 L-433960 2859 L-433937 2859 L-433301 2856 L-432989 2854 L-432593 2854 L-432563 2852 L-432542 2849 L-432389 2847 L-431703 2847 L-431687 2847 L-431347 2847 L-431075 2845 L-431037 2842 L-430981 2838 L-430959 2835 L-430887 2833 L-430555 2831 L-430449 2828 L-430420 2824 L-430222 2821 L-430069 2819 L-429201 2817 L-428639 2812 L-428623 2812 L-428522 2810 L-428419 2812 L-428273 2812 L-428195 2812 L-428157 2810 L-428101 2807 L-428028 2805 L-427883 2803 L-427401 2803 L-426997 2800 L-426130 2803 L-426110 2803 L-425853 2803 L-425776 2803 L-425747 2800 L-425737 2796 L-425720 2793 L-425427 2791 L-425387 2789 L-425315 2786 L-425241 2784 L-425036 2782 L-424877 2775 L-424575 2768 L-424498 2758 L-424481 2751 L-424264 2747 L-424033 2747 L-423923 2749 L-423553 2751 L-423395 2751 L-423164 2751 L-422995 2751 L-422850 2749 L-422718 2747 L-421442 2742 L-421039 2738 L-420978 2735 L-420861 2731 L-420436 2728 L-420421 2724 L-420359 2721 L-420086 2717 L-419973 2714 L-419691 2710 L-419413 2707 L-418988 2703 L-418966 2700 L-418888 2698 L-418762 2696 L-418176 2693 L-417784 2691 L-417449 2689 L-416860 2686 L-416758 2686 L-416587 2684 L-416451 2684 L-415623 2682 L-414438 2679 L-414402 2677 L-414346 2677 L-414126 2675 L-413921 2675 L-413766 2675 L-413509 2672 L-413433 2670 L-412890 2668 L-412854 2665 L-412605 2663 L-412218 2661 L-411392 2658 L-411034 2656 L-410723 2656 L-410465 2654 L-410242 2651 L-409835 2649 L-409719 2647 L-409536 2644 L-409482 2644 L-409294 2642 L-409123 2640 L-409094 2637 L-408814 2635 L-408504 2633 L-408366 2630 L-408056 2628 L-407862 2628 L-407847 2626 L-407127 2626 L-406993 2621 L-406696 2619 L-406605 2616 L-406005 2616 L-405966 2614 L-405888 2612 L-405268 2609 L-405116 2605 L-405075 2602 L-404765 2600 L-404573 2598 L-404380 2593 L-404324 2588 L-404016 2586 L-403963 2584 L-403909 2586 L-403883 2586 L-403758 2586 L-402948 2584 L-402871 2581 L-402331 2579 L-402062 2577 L-401402 2574 L-400495 2572 L-400254 2570 L-399721 2567 L-399504 2565 L-398397 2567 L-398346 2567 L-397571 2567 L-397023 2565 L-396912 2563 L-396759 2558 L-396704 2556 L-396538 2553 L-396161 2551 L-395714 2549 L-395659 2546 L-395504 2544 L-394825 2542 L-394604 2539 L-394086 2537 L-393238 2532 L-393222 2530 L-391431 2528 L-390876 2526 L-390759 2523 L-389753 2521 L-389717 2519 L-389484 2519 L-389391 2519 L-389351 2519 L-389019 2516 L-388667 2514 L-388402 2509 L-388116 2507 L-387805 2502 L-387551 2498 L-387457 2495 L-386967 2493 L-386760 2491 L-386194 2488 L-386080 2491 L-385728 2488 L-385677 2488 L-385637 2488 L-385034 2484 L-384300 2479 L-383718 2474 L-383483 2470 L-382943 2463 L-382790 2458 L-382288 2456 L-382079 2451 L-382056 2451 L-381997 2449 L-381034 2449 L-380857 2446 L-380415 2444 L-380390 2439 L-380235 2437 L-380154 2437 L-380003 2439 L-379357 2439 L-379307 2437 L-378187 2435 L-377203 2432 L-377141 2430 L-376421 2428 L-375556 2425 L-375177 2423 L-374958 2423 L-374199 2421 L-374147 2418 L-373837 2414 L-372986 2414 L-372793 2411 L-372616 2409 L-372392 2409 L-372265 2407 L-372073 2407 L-371841 2404 L-371671 2407 L-371385 2404 L-371105 2404 L-371022 2402 L-370852 2400 L-370835 2395 L-370681 2393 L-370642 2390 L-369866 2388 L-369790 2388 L-369558 2383 L-369131 2381 L-368785 2379 L-368202 2376 L-367933 2376 L-367674 2376 L-367545 2372 L-367529 2369 L-367415 2367 L-367391 2365 L-367157 2362 L-367121 2360 L-365805 2360 L-365749 2358 L-365070 2353 L-364498 2353 L-364372 2353 L-364219 2353 L-364142 2353 L-363830 2348 L-363557 2346 L-363468 2341 L-363366 2341 L-362438 2339 L-362362 2339 L-361998 2339 L-361974 2337 L-361937 2334 L-361162 2330 L-361070 2327 L-360930 2325 L-360528 2323 L-360267 2323 L-360023 2325 L-359809 2323 L-359728 2323 L-359652 2323 L-359576 2323 L-359389 2325 L-359322 2325 L-359073 2325 L-359018 2323 L-358880 2320 L-358800 2316 L-358687 2313 L-358464 2311 L-358300 2309 L-358259 2306 L-358089 2304 L-357718 2302 L-357704 2300 L-357588 2297 L-356866 2295 L-356830 2293 L-356698 2293 L-356350 2290 L-355938 2290 L-355902 2290 L-355824 2288 L-355785 2286 L-355421 2283 L-355217 2281 L-355202 2279 L-354856 2276 L-354508 2276 L-354182 2276 L-354080 2274 L-353928 2274 L-353733 2272 L-353502 2272 L-353409 2272 L-353254 2272 L-353176 2272 L-353136 2269 L-353022 2267 L-352999 2265 L-352748 2265 L-352609 2260 L-352031 2253 L-351203 2248 L-350715 2244 L-350594 2241 L-350556 2239 L-350543 2237 L-350391 2232 L-350290 2227 L-350057 2225 L-349666 2220 L-349362 2218 L-349346 2216 L-349176 2213 L-348937 2209 L-348341 2209 L-347737 2206 L-347697 2206 L-347657 2206 L-347504 2204 L-347451 2202 L-347388 2199 L-347320 2197 L-347265 2192 L-347240 2190 L-347193 2188 L-347099 2183 L-346962 2181 L-346808 2178 L-346676 2176 L-346635 2176 L-346600 2174 L-346538 2171 L-346265 2167 L-345950 2164 L-345909 2160 L-345824 2157 L-345647 2155 L-345409 2153 L-345052 2150 L-345022 2148 L-344453 2146 L-344330 2143 L-344094 2141 L-344071 2141 L-343790 2139 L-343504 2139 L-343249 2139 L-342677 2136 L-342380 2134 L-342304 2132 L-341605 2129 L-341527 2127 L-341492 2125 L-341466 2122 L-341414 2118 L-341221 2115 L-341080 2111 L-341045 2108 L-341004 2106 L-340409 2104 L-340177 2101 L-339893 2118 L-339839 2132 L-339765 2148 L-339687 2162 L-339450 2157 L-339206 2155 L-339071 2153 L-338964 2150 L-338885 2148 L-338498 2143 L-338371 2141 L-338218 2139 L-338180 2136 L-338035 2134 L-337813 2132 L-337639 2129 L-337570 2127 L-336749 2122 L-336733 2122 L-336438 2120 L-335650 2118 L-335340 2118 L-335194 2115 L-334966 2113 L-334765 2108 L-333828 2106 L-333792 2104 L-333769 2101 L-333728 2097 L-333460 2094 L-332863 2092 L-332799 2090 L-332764 2087 L-332747 2085 L-332052 2085 L-331850 2085 L-331818 2085 L-331485 2085 L-331377 2083 L-330753 2078 L-330248 2076 L-330211 2071 L-329769 2071 L-329673 2069 L-329514 2069 L-329201 2069 L-329189 2069 L-328748 2071 L-328267 2074 L-328137 2074 L-327817 2074 L-327749 2071 L-327445 2071 L-327269 2069 L-327075 2067 L-326833 2062 L-326635 2057 L-326609 2053 L-326031 2050 L-325961 2048 L-325552 2046 L-325497 2043 L-325451 2041 L-325087 2039 L-324941 2036 L-324735 2034 L-324639 2034 L-324484 2032 L-324423 2029 L-324275 2025 L-324174 2022 L-323618 2022 L-323595 2027 L-323423 2029 L-322881 2032 L-322820 2032 L-322766 2027 L-322738 2022 L-322667 2020 L-322650 2015 L-322587 2013 L-322550 2008 L-322396 2006 L-322070 2004 L-321504 2001 L-321489 1999 L-321427 1994 L-321326 1990 L-321280 1990 L-321037 1987 L-320615 1987 L-320460 1987 L-318718 1983 L-318177 1980 L-317233 1978 L-316824 1976 L-316283 1971 L-316087 1969 L-315918 1966 L-315622 1964 L-315508 1962 L-315492 1962 L-315338 1959 L-315198 1957 L-315121 1952 L-314989 1952 L-314641 1952 L-314271 1955 L-313673 1955 L-313497 1955 L-313341 1952 L-313072 1950 L-312920 1950 L-312629 1957 L-312605 1962 L-312522 1966 L-312295 1971 L-311595 1969 L-311468 1966 L-311037 1964 L-310943 1962 L-309738 1962 L-309689 1959 L-309396 1959 L-308992 1957 L-308717 1952 L-308697 1950 L-308580 1948 L-308503 1945 L-308322 1943 L-307842 1941 L-307391 1936 L-306980 1934 L-306950 1931 L-306531 1929 L-306417 1929 L-306300 1929 L-306284 1929 L-306090 1927 L-306068 1922 L-305836 1920 L-305393 1917 L-305073 1913 L-304609 1913 L-304443 1910 L-304288 1908 L-304133 1908 L-303679 1908 L-303360 1908 L-303305 1910 L-302934 1910 L-302896 1913 L-302570 1913 L-302453 1910 L-302354 1908 L-302028 1903 L-301641 1901 L-301381 1899 L-301022 1894 L-300766 1892 L-298595 1889 L-298546 1887 L-298524 1885 L-298112 1885 L-298051 1885 L-297980 1887 L-297750 1887 L-297439 1885 L-297135 1880 L-297091 1878 L-296783 1875 L-296650 1873 L-296434 1871 L-295722 1868 L-295567 1868 L-295428 1866 L-295279 1866 L-295258 1866 L-295064 1864 L-295039 1862 L-294947 1859 L-294926 1857 L-294909 1855 L-294809 1852 L-293880 1850 L-293422 1850 L-292331 1845 L-291908 1845 L-291504 1843 L-291465 1841 L-291212 1838 L-290437 1834 L-290421 1831 L-290397 1829 L-290204 1827 L-289467 1824 L-289198 1822 L-289158 1820 L-288759 1815 L-288734 1813 L-287945 1810 L-287265 1808 L-285893 1806 L-285623 1803 L-285575 1801 L-285037 1796 L-285004 1794 L-284902 1789 L-284579 1787 L-284499 1785 L-284230 1785 L-283318 1782 L-283179 1782 L-282930 1778 L-282385 1778 L-281963 1775 L-281770 1773 L-281754 1773 L-281616 1768 L-281522 1766 L-281395 1764 L-281135 1761 L-281110 1757 L-281019 1754 L-280709 1752 L-280649 1750 L-280532 1750 L-280182 1750 L-279371 1750 L-279140 1745 L-278311 1745 L-278079 1740 L-277862 1738 L-277344 1738 L-276706 1736 L-276290 1733 L-275967 1731 L-275487 1729 L-275061 1729 L-275000 1726 L-274651 1726 L-274611 1724 L-274597 1722 L-274497 1717 L-274452 1717 L-273967 1715 L-273165 1715 L-272831 1715 L-271749 1712 L-271269 1710 L-271246 1708 L-271106 1705 L-270551 1703 L-269854 1701 L-269545 1698 L-269323 1696 L-269219 1694 L-269116 1689 L-268445 1687 L-268351 1684 L-268329 1684 L-268251 1682 L-268074 1682 L-267901 1682 L-267721 1680 L-267707 1677 L-267631 1675 L-267467 1673 L-266952 1670 L-266936 1668 L-266796 1668 L-266433 1666 L-266409 1666 L-266278 1663 L-266254 1661 L-265891 1659 L-265366 1654 L-265272 1652 L-265057 1647 L-264963 1645 L-264939 1643 L-264474 1640 L-264397 1640 L-263995 1638 L-263545 1638 L-262293 1636 L-262254 1633 L-261823 1631 L-261790 1629 L-261071 1626 L-260895 1624 L-260759 1622 L-260452 1619 L-260397 1617 L-260373 1612 L-260356 1608 L-260181 1605 L-259992 1603 L-259484 1603 L-259111 1584 L-258773 1563 L-258734 1545 L-258015 1528 L-257921 1526 L-257883 1524 L-257341 1524 L-257318 1521 L-256915 1519 L-256489 1517 L-256219 1517 L-256039 1514 L-255793 1510 L-255770 1507 L-255713 1503 L-255097 1500 L-254594 1498 L-254207 1498 L-253588 1500 L-253372 1500 L-253217 1503 L-251924 1498 L-251825 1496 L-251383 1491 L-251051 1489 L-250751 1484 L-250508 1482 L-249773 1477 L-249194 1475 L-248365 1472 L-248265 1470 L-247707 1468 L-247569 1465 L-245927 1463 L-245866 1463 L-245772 1463 L-244805 1463 L-244628 1461 L-244341 1461 L-244123 1461 L-244045 1458 L-243773 1458 L-243658 1456 L-243505 1454 L-243195 1451 L-243116 1449 L-243025 1449 L-242948 1447 L-242832 1447 L-242653 1444 L-242561 1442 L-242522 1440 L-242019 1440 L-241801 1437 L-241671 1437 L-241516 1435 L-241462 1433 L-241337 1433 L-240952 1430 L-240444 1428 L-240371 1426 L-239891 1424 L-239814 1421 L-239714 1421 L-239481 1419 L-239016 1419 L-238786 1419 L-238769 1419 L-238537 1419 L-238382 1419 L-238321 1419 L-238128 1417 L-237857 1412 L-237106 1410 L-236153 1410 L-236116 1407 L-235892 1407 L-235452 1407 L-235171 1403 L-234823 1400 L-233754 1398 L-232826 1398 L-232695 1398 L-232648 1398 L-232579 1396 L-232424 1396 L-232347 1391 L-232173 1386 L-231738 1382 L-231534 1379 L-231474 1375 L-230891 1372 L-230737 1368 L-230622 1365 L-230581 1363 L-230412 1361 L-230275 1358 L-230064 1354 L-229986 1351 L-229963 1349 L-229754 1344 L-229345 1342 L-229320 1340 L-229097 1337 L-228952 1335 L-228917 1333 L-228903 1330 L-228881 1328 L-228648 1326 L-228462 1323 L-228245 1321 L-228220 1319 L-227530 1316 L-227427 1314 L-227391 1312 L-227371 1309 L-227176 1307 L-227123 1305 L-227006 1300 L-226925 1300 L-226814 1298 L-226499 1295 L-226040 1293 L-225785 1291 L-225551 1286 L-225421 1284 L-225068 1281 L-225009 1279 L-224856 1277 L-224284 1272 L-224198 1270 L-224044 1265 L-223749 1260 L-223378 1256 L-223075 1251 L-222999 1249 L-222594 1246 L-222426 1246 L-222282 1246 L-221742 1246 L-221681 1246 L-221665 1242 L-221499 1239 L-221293 1237 L-221219 1237 L-221126 1235 L-220716 1232 L-220701 1230 L-220677 1230 L-220484 1228 L-220407 1249 L-220237 1270 L-220174 1288 L-220159 1309 L-219644 1307 L-219423 1305 L-218804 1300 L-218550 1298 L-218357 1295 L-218317 1293 L-218244 1293 L-218179 1293 L-217528 1293 L-217489 1295 L-217315 1295 L-217249 1295 L-216575 1295 L-216186 1291 L-215925 1288 L-215687 1286 L-215609 1281 L-215593 1277 L-215391 1274 L-215021 1270 L-214795 1267 L-214160 1265 L-214140 1265 L-213752 1263 L-213659 1263 L-213601 1260 L-213325 1258 L-213015 1258 L-212938 1256 L-212087 1258 L-211744 1270 L-211307 1284 L-210873 1295 L-210378 1307 L-210229 1305 L-209960 1307 L-208722 1309 L-208666 1314 L-206902 1316 L-206711 1314 L-205701 1312 L-205550 1309 L-205175 1314 L-204854 1319 L-204248 1323 L-204179 1328 L-204002 1326 L-203173 1323 L-203034 1321 L-202648 1319 L-202463 1316 L-202420 1314 L-202300 1312 L-202090 1309 L-201643 1305 L-201294 1302 L-201162 1300 L-200753 1298 L-200403 1298 L-200118 1295 L-199924 1293 L-199769 1293 L-199606 1291 L-199537 1288 L-199437 1288 L-199204 1286 L-199088 1286 L-199034 1284 L-198493 1284 L-198028 1281 L-196846 1281 L-196713 1281 L-196688 1281 L-196636 1281 L-195968 1281 L-194933 1277 L-194739 1274 L-194560 1272 L-194408 1272 L-194367 1270 L-194352 1270 L-194291 1267 L-193966 1265 L-192805 1263 L-192612 1260 L-192434 1258 L-191320 1256 L-190461 1253 L-190354 1253 L-189881 1251 L-189688 1251 L-187366 1249 L-187289 1246 L-187168 1242 L-187133 1239 L-187096 1235 L-187001 1228 L-186786 1223 L-186204 1218 L-185818 1216 L-185045 1214 L-184967 1211 L-184270 1211 L-183729 1211 L-183688 1209 L-183558 1209 L-183094 1207 L-183055 1204 L-182920 1202 L-182552 1200 L-182522 1198 L-182372 1198 L-181972 1195 L-180148 1198 L-179341 1195 L-178622 1195 L-178606 1195 L-178292 1191 L-177730 1188 L-177229 1186 L-176710 1184 L-176688 1181 L-174944 1179 L-174775 1177 L-174580 1174 L-173686 1172 L-173167 1167 L-172957 1165 L-172699 1163 L-171990 1160 L-171039 1158 L-170381 1156 L-170342 1151 L-170055 1149 L-169973 1146 L-169877 1146 L-169745 1144 L-169668 1144 L-168933 1144 L-168596 1142 L-168546 1144 L-168291 1144 L-168005 1142 L-167579 1142 L-166999 1139 L-166740 1139 L-166588 1137 L-166341 1137 L-166302 1137 L-165505 1135 L-165468 1132 L-165290 1132 L-164881 1128 L-164653 1128 L-164576 1128 L-164445 1128 L-164329 1125 L-163981 1123 L-163917 1121 L-163765 1118 L-163024 1116 L-162913 1114 L-162743 1111 L-162704 1109 L-162409 1109 L-162008 1109 L-161831 1109 L-161737 1109 L-161427 1107 L-160626 1104 L-160167 1100 L-159647 1097 L-159159 1095 L-158463 1093 L-157417 1090 L-157148 1090 L-157094 1088 L-156933 1088 L-156682 1088 L-156436 1086 L-156357 1083 L-156143 1079 L-155831 1076 L-155367 1072 L-155353 1069 L-155057 1069 L-155043 1067 L-154052 1065 L-153380 1062 L-153045 1058 L-152428 1058 L-152292 1055 L-151653 1053 L-151522 1051 L-150571 1046 L-150472 1041 L-149913 1039 L-149504 1039 L-149076 1039 L-148984 1037 L-148150 1037 L-147786 1037 L-147747 1039 L-147615 1041 L-147438 1041 L-147221 1041 L-147167 1039 L-147010 1034 L-146758 1032 L-145657 1030 L-145580 1027 L-145360 1025 L-145229 1020 L-145193 1018 L-145000 1016 L-144900 1013 L-144417 1011 L-144132 1009 L-143972 1006 L-143877 1002 L-143606 999 L-143336 997 L-143320 988 L-143181 981 L-143043 974 L-142717 965 L-142408 960 L-142367 958 L-142291 953 L-142175 951 L-141325 946 L-140999 944 L-140667 941 L-140534 941 L-140318 941 L-140302 941 L-139622 941 L-139528 937 L-139505 934 L-139489 930 L-139451 927 L-139039 923 L-138770 920 L-138730 918 L-138361 918 L-138151 916 L-137069 916 L-137052 913 L-137024 911 L-137003 911 L-136627 906 L-136371 904 L-136123 899 L-135984 895 L-135852 892 L-135520 890 L-135427 888 L-135366 885 L-134808 883 L-134747 881 L-134591 878 L-134397 876 L-134205 874 L-134189 871 L-134150 869 L-134112 867 L-133841 864 L-133718 862 L-133685 860 L-133586 860 L-133430 860 L-133289 860 L-133005 857 L-132680 857 L-131984 855 L-131961 855 L-131451 855 L-130606 855 L-130243 853 L-130088 850 L-129484 850 L-129314 850 L-129253 850 L-129198 848 L-128142 846 L-128124 846 L-127218 846 L-127197 846 L-127030 843 L-126788 843 L-126737 841 L-126683 836 L-126545 834 L-126506 832 L-125578 829 L-125522 829 L-125400 829 L-125329 829 L-125213 829 L-125034 832 L-124052 829 L-123913 829 L-123795 825 L-123500 820 L-123253 818 L-123216 815 L-123162 818 L-123140 818 L-123007 818 L-122928 818 L-122790 815 L-122168 815 L-122001 813 L-121537 813 L-121360 808 L-121344 806 L-121283 804 L-121167 801 L-120684 799 L-119989 797 L-119616 794 L-119447 792 L-118481 790 L-118326 787 L-118148 787 L-118055 785 L-117800 785 L-117629 785 L-116982 783 L-116972 783 L-116391 780 L-116253 780 L-116198 776 L-115463 773 L-115424 771 L-115347 771 L-114705 769 L-113930 769 L-113838 766 L-113789 766 L-113774 764 L-113737 764 L-113721 760 L-113658 757 L-113642 755 L-113622 755 L-113467 753 L-113428 750 L-113412 748 L-113373 746 L-113234 743 L-113157 741 L-112793 739 L-112445 736 L-111671 734 L-111069 732 L-110873 729 L-110643 729 L-110505 727 L-109867 727 L-109577 725 L-109556 725 L-109096 722 L-108863 722 L-108808 720 L-108769 718 L-108267 715 L-107716 713 L-106928 711 L-105805 711 L-104911 708 L-104823 708 L-104524 706 L-104452 704 L-104336 701 L-103159 699 L-102811 697 L-102789 694 L-102269 692 L-102123 690 L-102014 687 L-101805 685 L-101650 683 L-101628 680 L-101434 678 L-101357 676 L-101213 673 L-100412 671 L-100266 669 L-99986 666 L-99809 664 L-99500 662 L-98688 659 L-97759 659 L-96168 657 L-95924 655 L-95283 652 L-95088 650 L-95010 648 L-94493 645 L-94260 645 L-94237 643 L-94105 643 L-93766 641 L-93755 638 L-93539 636 L-93502 634 L-92960 631 L-92432 627 L-92364 624 L-92071 622 L-91523 617 L-91488 615 L-91435 613 L-91336 608 L-91103 608 L-90523 608 L-90426 610 L-90351 610 L-90020 608 L-89270 606 L-89230 603 L-88551 603 L-88396 603 L-88070 601 L-87854 599 L-87622 599 L-87326 596 L-87080 594 L-86729 592 L-86676 589 L-85916 587 L-85223 582 L-84872 578 L-84409 575 L-83775 573 L-83366 571 L-83288 573 L-82862 573 L-82220 571 L-82051 571 L-81309 568 L-81121 566 L-80826 564 L-80254 561 L-80229 559 L-79210 559 L-78723 557 L-78629 557 L-78568 554 L-78280 552 L-77994 550 L-77933 547 L-77753 547 L-77042 545 L-76866 543 L-76668 541 L-76516 538 L-76424 536 L-76362 534 L-75821 534 L-75510 531 L-75418 527 L-75341 522 L-74774 520 L-74683 520 L-74428 515 L-74101 510 L-74064 503 L-73909 496 L-73677 494 L-73355 492 L-72222 489 L-72023 487 L-71498 485 L-71253 485 L-71007 482 L-70927 480 L-70907 475 L-70831 473 L-70775 468 L-70698 466 L-70659 464 L-70480 459 L-70443 457 L-70212 454 L-68974 452 L-68647 450 L-68607 445 L-67826 443 L-67679 440 L-66687 438 L-66481 438 L-66055 438 L-65928 438 L-65523 440 L-65435 438 L-64778 436 L-64071 433 L-63463 431 L-63270 429 L-63037 424 L-62418 422 L-62122 417 L-61683 415 L-61528 412 L-61373 410 L-60617 405 L-60267 403 L-59865 403 L-59826 401 L-58820 401 L-58500 401 L-58253 398 L-57553 394 L-57480 391 L-57168 389 L-56088 387 L-55896 384 L-55662 384 L-55467 382 L-54967 380 L-54213 380 L-54100 380 L-53899 380 L-53858 377 L-53766 375 L-53453 373 L-53364 370 L-53248 368 L-52930 368 L-52861 366 L-52837 363 L-52475 361 L-52436 359 L-52220 356 L-51716 359 L-51114 361 L-50903 366 L-50749 368 L-50712 368 L-50668 363 L-50633 361 L-50500 359 L-50091 356 L-49720 354 L-49667 352 L-49650 349 L-49572 347 L-49162 345 L-49008 342 L-48993 338 L-48953 335 L-48775 331 L-48699 328 L-48467 326 L-47677 324 L-47600 324 L-46865 319 L-46709 317 L-46469 312 L-46408 308 L-46322 305 L-46300 301 L-46182 296 L-46167 291 L-46106 287 L-46068 284 L-45974 282 L-45952 282 L-45836 280 L-45603 277 L-45433 273 L-44613 273 L-44212 270 L-44056 270 L-43551 270 L-43437 270 L-42841 270 L-42466 268 L-42415 268 L-42221 266 L-41524 266 L-41486 263 L-41341 263 L-41116 261 L-40854 259 L-40481 256 L-40055 254 L-39926 252 L-39906 247 L-39412 247 L-38716 245 L-38484 247 L-38330 247 L-37362 247 L-37137 249 L-36860 249 L-36844 247 L-36318 245 L-35789 242 L-35641 240 L-35621 238 L-35079 235 L-34770 233 L-34652 228 L-34460 224 L-34324 219 L-33997 217 L-33880 214 L-33570 214 L-33144 212 L-33089 212 L-32856 214 L-32759 214 L-32626 214 L-32330 214 L-32216 212 L-31851 210 L-31539 210 L-31056 207 L-30885 205 L-30637 203 L-30421 200 L-29896 198 L-29709 193 L-29354 191 L-28718 189 L-28564 184 L-27823 182 L-27403 179 L-27223 177 L-27147 177 L-27016 175 L-26722 172 L-26681 170 L-26451 170 L-26259 168 L-26004 168 L-25577 165 L-25468 163 L-24850 163 L-24668 163 L-23457 163 L-22810 165 L-22659 165 L-22621 165 L-22490 165 L-22389 163 L-22373 161 L-22291 158 L-22079 156 L-21963 154 L-21600 151 L-21228 149 L-20532 147 L-20129 144 L-20024 142 L-20006 140 L-19062 137 L-18866 133 L-18714 130 L-18659 126 L-17903 126 L-17885 130 L-17397 133 L-17266 137 L-17073 137 L-16183 135 L-16144 133 L-16105 130 L-16028 128 L-15990 128 L-15912 126 L-15829 123 L-15564 121 L-15332 119 L-15270 116 L-14789 114 L-14453 114 L-14342 112 L-14148 109 L-13972 107 L-13912 107 L-13876 105 L-13606 103 L-12908 98 L-12856 93 L-12561 89 L-12159 84 L-11595 82 L-10722 79 L-10417 77 L-10379 75 L-10257 72 L-9658 70 L-9528 68 L-9328 65 L-9291 63 L-8677 61 L-8498 58 L-8484 54 L-8266 51 L-8187 47 L-7880 47 L-7748 44 L-7516 44 L-7182 44 L-7090 42 L-6990 40 L-6952 37 L-6409 37 L-6216 35 L-5675 33 L-5249 30 L-5118 30 L-5056 30 L-4825 30 L-4808 30 L-4320 33 L-4239 33 L-4222 33 L-2829 35 L-2693 35 L-2579 33 L-1945 30 L-1805 28 L-1688 26 L-1534 21 L-1497 19 L-1418 16 L-1364 19 L-373 19 L-336 16 L-203 16 L-142 12 L-43 9 L246 7 L259 5 L570 5 L669 7 L1135 5 L1188 252 L1331 496 L1459 743 L1691 990 L2260 988 L2349 985 L2371 985 L2658 983 L3341 981 L3418 979 L3454 976 L3471 974 L3670 972 L4090 967 L4362 967 L5235 965 L5527 965 L5638 965 L6372 962 L6500 960" />
</svg>
