<svg xmlns="http://www.w3.org/2000/svg" version="1.1" viewBox="0 0 6500 1000">
	<path fill="none" stroke="gold" stroke-width="125" stroke-linecap="round" stroke-linejoin="round" d="M0 100996  L-642317 100996 L-642132 100949 L-641642 100854 L-641349 100807 L-641037 100712 L-640803 100665 L-640749 100570 L-640690 100475 L-640537 100428 L-640497 100333 L-640364 100286 L-640071 100238 L-639531 100238 L-638920 100191 L-638872 100191 L-638232 100144 L-638199 100144 L-637674 100144 L-637541 100096 L-637151 100001 L-636823 99907 L-636705 99812 L-636494 99717 L-635777 99717 L-635207 99670 L-635100 99670 L-634925 99622 L-634704 99528 L-634303 99480 L-634277 99386 L-633349 99291 L-633261 99196 L-633179 99101 L-633109 99007 L-632812 98959 L-632660 98864 L-630770 98912 L-630669 98912 L-630407 98912 L-630113 98959 L-629971 98864 L-629723 98864 L-629687 98817 L-629529 98770 L-629065 98675 L-628812 98628 L-628600 98533 L-628349 98486 L-628000 98438 L-627072 98343 L-626979 98249 L-626568 98201 L-625397 98107 L-624208 98059 L-624116 97964 L-624088 97870 L-623822 97775 L-623523 97680 L-623395 97585 L-623357 97491 L-622543 97491 L-622159 97538 L-621098 97585 L-621037 97585 L-620772 98533 L-620300 99433 L-620108 100333 L-619844 101233 L-619508 101186 L-619372 101138 L-618916 101091 L-618173 101044 L-618156 100996 L-617990 100901 L-617922 100901 L-617406 100854 L-616378 100854 L-616181 100807 L-615693 100759 L-615331 100712 L-614922 100712 L-614536 100759 L-612833 100759 L-612735 100759 L-612663 100759 L-612602 100759 L-612417 100712 L-612081 100712 L-611440 100665 L-611363 100617 L-611302 100617 L-611116 100570 L-611036 100570 L-610859 100522 L-610840 100475 L-610610 100475 L-610222 100428 L-609333 100428 L-609294 100380 L-609206 100333 L-609178 100238 L-608170 100191 L-608020 100096 L-607996 100049 L-607863 100001 L-607823 99954 L-606565 99907 L-606507 99907 L-605968 99859 L-605915 99859 L-605868 99859 L-605473 99812 L-605334 99765 L-605134 99717 L-604987 99717 L-604823 99717 L-604546 99765 L-604187 99765 L-603635 99717 L-602990 99670 L-602731 99575 L-602577 99528 L-602176 99480 L-602136 99433 L-602016 99386 L-601954 99433 L-601940 99433 L-601846 99433 L-601553 99386 L-601402 99196 L-601071 99101 L-600993 99007 L-600918 98959 L-600691 98817 L-600624 98722 L-600397 98628 L-600344 98533 L-600180 98486 L-599174 98438 L-598991 98391 L-598439 98343 L-598046 98249 L-597649 98201 L-596799 98107 L-596721 98059 L-596142 98012 L-595700 98012 L-595459 97964 L-595302 97964 L-594901 97870 L-594881 97870 L-594436 97822 L-594030 97775 L-593894 97680 L-593719 97585 L-593583 97491 L-593333 97396 L-592333 97349 L-592251 97301 L-592115 97254 L-592077 97207 L-591187 97159 L-590971 97112 L-590528 97064 L-590410 97017 L-590354 96970 L-589677 96970 L-589577 96922 L-589548 96922 L-588206 96875 L-587800 96828 L-587761 96780 L-586833 96733 L-586735 96685 L-586602 96638 L-586197 96591 L-586171 96543 L-586078 96496 L-585862 96449 L-585451 96354 L-584297 96259 L-584006 96164 L-583977 96070 L-583369 96022 L-583119 95927 L-583099 95880 L-582170 95833 L-582118 95738 L-581996 95691 L-581978 95596 L-581822 95549 L-581647 95454 L-581511 95406 L-581454 95359 L-581346 95312 L-581261 95264 L-581028 95217 L-580953 95170 L-580644 95122 L-580527 95075 L-580357 95027 L-580265 94980 L-580163 94980 L-580140 94933 L-580063 94933 L-579965 94838 L-579598 94791 L-579493 94743 L-578990 94696 L-578538 94648 L-578500 94601 L-578476 94554 L-578435 94506 L-578306 94459 L-578205 94412 L-577764 94364 L-577482 94317 L-576889 94270 L-576759 94222 L-576484 94127 L-576332 94080 L-576179 94033 L-576093 93938 L-576015 93891 L-575830 93843 L-575779 93843 L-575751 93796 L-575672 93748 L-575649 93701 L-575365 93606 L-574762 93512 L-573766 93464 L-573468 93417 L-572734 93369 L-572490 93322 L-572400 93275 L-571823 93227 L-571124 93180 L-570372 93133 L-570054 93085 L-569671 92990 L-569594 92943 L-568959 92896 L-568774 92848 L-568686 92848 L-568556 92848 L-568244 92801 L-568194 92754 L-568052 92706 L-568031 92659 L-567063 92612 L-566517 92564 L-566039 92564 L-565978 92564 L-565654 92564 L-565633 92517 L-565570 92517 L-565360 92469 L-565284 92422 L-565229 92375 L-565206 92327 L-565167 92280 L-565151 92233 L-564394 92185 L-564378 92138 L-563578 92090 L-563426 92043 L-562521 91996 L-562014 91948 L-561785 91854 L-561744 91854 L-561629 91806 L-561452 91759 L-560698 91806 L-560563 91759 L-560399 91711 L-560081 91664 L-559905 91569 L-558883 91475 L-558859 91380 L-558608 91333 L-558395 91238 L-557761 91190 L-557523 91096 L-557491 91001 L-557313 90906 L-557232 90811 L-557143 90764 L-557078 90669 L-556638 90575 L-556614 90527 L-556074 90480 L-555818 90432 L-555323 90385 L-554446 90338 L-554409 90290 L-554356 90243 L-554315 90196 L-554198 90148 L-553921 90101 L-553714 90006 L-553517 89911 L-553494 89817 L-553444 89722 L-553404 89675 L-553326 89627 L-552729 89532 L-552669 89485 L-552565 89438 L-552411 89390 L-551779 89343 L-551098 89296 L-550796 89201 L-550449 89153 L-550251 89106 L-550203 89011 L-549883 88964 L-549255 88917 L-549108 88869 L-549072 88822 L-549014 88774 L-548938 88680 L-548696 88680 L-548608 88632 L-548514 88585 L-548220 88538 L-548086 88490 L-548026 88443 L-547989 88348 L-547717 88348 L-546711 88301 L-546535 88253 L-546484 88253 L-546192 88206 L-545999 88111 L-545666 88064 L-545160 88017 L-544597 87922 L-544583 87827 L-544566 87780 L-544466 87685 L-544351 87590 L-544312 87495 L-544274 87448 L-544209 87448 L-544181 87401 L-544042 87448 L-543749 87448 L-543699 87448 L-543594 87448 L-543329 87401 L-542864 87353 L-542720 87353 L-542665 87259 L-542608 87211 L-542417 87164 L-542052 87117 L-541837 87117 L-541643 87117 L-541585 87117 L-541526 87022 L-541372 86974 L-541102 86927 L-540672 87164 L-540657 87164 L-540580 87117 L-540515 87069 L-540386 86738 L-540363 86690 L-540079 86643 L-540031 86595 L-539976 86548 L-539514 86501 L-539475 86501 L-539434 86453 L-539244 86406 L-538764 86359 L-538277 86311 L-538260 86264 L-538222 86216 L-537966 86169 L-537888 86074 L-537658 86027 L-537642 85932 L-537348 85837 L-536906 85790 L-536459 85743 L-535954 85695 L-535800 85648 L-535514 85601 L-535474 85506 L-535143 85459 L-534921 85411 L-534404 85316 L-534328 85269 L-534080 85174 L-533886 85080 L-533826 85032 L-533049 84985 L-532975 84985 L-532745 84937 L-532728 84937 L-532666 84890 L-532471 84843 L-532006 84843 L-531983 84795 L-531853 84795 L-530553 84795 L-530536 84795 L-530459 84748 L-530365 84748 L-530148 84748 L-529996 84701 L-529818 84748 L-529763 84795 L-529477 84843 L-529437 84843 L-529067 84843 L-528627 84843 L-528444 84843 L-528123 84795 L-527828 84795 L-527382 84701 L-527310 84653 L-526848 84558 L-526410 84511 L-526228 84464 L-524774 84369 L-524642 84322 L-524185 84227 L-523959 84180 L-523572 84085 L-523056 83990 L-522102 83895 L-521307 83801 L-520633 83753 L-520207 83658 L-519896 83611 L-519666 83469 L-518983 83327 L-518970 83185 L-518760 82995 L-518738 82948 L-518564 82853 L-517614 82806 L-517345 82711 L-516530 82664 L-516220 82569 L-516182 82522 L-516125 82427 L-515508 82379 L-514870 82285 L-513244 82237 L-512570 82190 L-511928 82190 L-511851 82190 L-511794 82190 L-511758 82190 L-511730 82143 L-511618 82048 L-511600 82000 L-511578 81953 L-511424 81906 L-511371 81811 L-511293 81764 L-511173 81716 L-511076 81669 L-510958 81621 L-510689 81527 L-510419 81479 L-510402 81385 L-510202 81337 L-510055 81243 L-509828 81195 L-509694 81148 L-509385 81100 L-509325 81053 L-508972 80958 L-508624 80911 L-508523 80864 L-508458 80769 L-508399 80721 L-508014 80627 L-507633 80579 L-507529 80532 L-507269 80485 L-506998 80390 L-506838 80342 L-506806 80295 L-506744 80248 L-506603 80200 L-506419 80153 L-506374 80106 L-506086 80106 L-506070 80058 L-505837 80058 L-505776 80011 L-505738 80011 L-505158 79963 L-505024 79916 L-505001 79727 L-504983 79395 L-504965 79016 L-504949 78637 L-504925 78258 L-504908 77974 L-504887 77642 L-504871 77311 L-504847 77121 L-504831 76932 L-504809 76790 L-504792 76695 L-504743 76553 L-504671 76411 L-504636 76174 L-504613 75984 L-504577 75795 L-504536 75605 L-504499 75511 L-504483 75321 L-504459 75179 L-504422 75084 L-504405 74942 L-504381 74847 L-504364 74753 L-504345 74658 L-504329 74563 L-504300 74421 L-504274 74279 L-504229 74232 L-504212 74137 L-504170 74090 L-504122 73995 L-504052 73900 L-504036 73805 L-504020 73711 L-503958 73663 L-503919 73616 L-503880 73568 L-503713 73521 L-503649 73474 L-503633 73426 L-503588 73332 L-503530 73284 L-503317 73237 L-503284 73189 L-503241 73142 L-503163 73095 L-502626 73047 L-502548 73000 L-502444 72905 L-502355 72858 L-502179 72810 L-501828 72763 L-501672 72716 L-501234 72668 L-501078 72621 L-500948 72574 L-500244 72479 L-500043 72432 L-499082 72337 L-498600 72289 L-498501 72289 L-498408 72242 L-498163 72195 L-498090 72147 L-497647 72053 L-497551 72005 L-497536 71958 L-497520 71910 L-497495 71863 L-497030 71816 L-496813 71768 L-496673 71721 L-496379 71674 L-496291 71626 L-496249 71579 L-496219 71531 L-496047 71484 L-495988 71437 L-495912 71389 L-495831 71342 L-495761 71342 L-495452 71295 L-495367 71247 L-495153 71200 L-495118 71153 L-494435 71105 L-494336 71058 L-494131 71010 L-494084 70963 L-493806 70916 L-493744 70868 L-493727 70774 L-493649 70726 L-493341 70631 L-493316 70584 L-493262 70489 L-493240 70442 L-493117 70395 L-492981 70300 L-492737 70252 L-492612 70252 L-491965 70205 L-491949 70205 L-491924 70205 L-491744 70110 L-491668 70063 L-491576 70016 L-491148 69968 L-490732 69921 L-490339 69826 L-490260 69779 L-490242 69731 L-489878 69684 L-489642 69637 L-489414 69589 L-489100 69542 L-489023 69495 L-488942 69400 L-488764 69305 L-488748 69258 L-488483 69163 L-488403 69116 L-488173 69068 L-487946 69021 L-487631 69021 L-487456 68973 L-487094 68973 L-486703 68926 L-486633 68831 L-486570 68784 L-486429 68689 L-486377 68642 L-486276 68547 L-485774 68500 L-485577 68452 L-485330 68405 L-485145 68358 L-484845 68310 L-484769 68263 L-484603 68168 L-483718 68121 L-483690 68026 L-483567 67931 L-482988 67884 L-482910 67837 L-482197 67837 L-481885 67837 L-481672 67837 L-481655 67837 L-481269 67837 L-480744 67742 L-480297 67694 L-479968 67647 L-479815 67600 L-479489 67600 L-479311 67552 L-479229 67552 L-479023 67458 L-478848 67410 L-477919 67363 L-477029 67315 L-476990 67268 L-476762 67268 L-476383 67221 L-475595 67173 L-475361 67126 L-475285 67079 L-474928 67031 L-474356 66936 L-474089 66889 L-473702 66842 L-473599 66842 L-473429 66842 L-472810 66842 L-472599 66842 L-472291 66842 L-472238 66794 L-472111 66747 L-472058 66700 L-471938 66652 L-471602 66558 L-470643 66510 L-470512 66415 L-470310 66368 L-469679 66321 L-469367 66273 L-468953 66226 L-468926 66179 L-468781 66131 L-468360 66084 L-467028 66084 L-466981 66036 L-466852 65942 L-466836 65894 L-466258 65800 L-466052 65752 L-466022 65705 L-465981 65657 L-465924 65610 L-465886 65563 L-465808 65515 L-465665 65468 L-465211 65421 L-465093 65373 L-464807 65326 L-464435 65279 L-464339 65231 L-464012 65184 L-463657 65136 L-463487 65089 L-463440 65042 L-463331 64994 L-463242 64947 L-463214 64900 L-463138 64805 L-462834 64757 L-462801 64663 L-462729 64615 L-462361 64568 L-462025 64521 L-461945 64521 L-461725 64473 L-461553 64426 L-461526 64378 L-461029 64331 L-460480 64236 L-459599 64189 L-459501 64094 L-459424 64047 L-459149 64000 L-458902 63905 L-458828 63857 L-458766 63763 L-458647 63715 L-458605 63668 L-458495 63621 L-458418 63526 L-457718 63478 L-457472 63431 L-457432 63384 L-457276 63336 L-456677 63336 L-456450 63336 L-456358 63336 L-455883 63336 L-455285 63242 L-454765 63194 L-454744 63147 L-454599 63099 L-454279 63099 L-453737 63099 L-453505 63099 L-453335 63099 L-452848 63052 L-452621 63005 L-452536 62957 L-452190 62910 L-451864 62910 L-451341 62863 L-451013 62815 L-450413 62768 L-450215 62673 L-450163 62626 L-450123 62578 L-449841 62531 L-449157 62436 L-448847 62389 L-448822 62294 L-448631 62247 L-448408 62199 L-448322 62152 L-447658 62057 L-447634 62010 L-447412 61915 L-447082 61868 L-446730 61773 L-446525 61726 L-446293 61631 L-446035 61584 L-445845 61489 L-445798 61441 L-445571 61394 L-445536 61347 L-445380 61299 L-445165 61252 L-444992 61205 L-444901 61157 L-444624 61110 L-444380 61063 L-444065 61015 L-443639 61015 L-443601 61015 L-443118 61015 L-442885 61015 L-442673 60968 L-442447 60920 L-441897 60920 L-441650 60873 L-440816 60873 L-440760 60826 L-440738 60778 L-440580 60731 L-440119 60684 L-440078 60636 L-439738 60541 L-439605 60494 L-439382 60447 L-438810 60399 L-438338 60352 L-438143 60305 L-437951 60257 L-437761 60210 L-437659 60162 L-437291 60115 L-437245 60068 L-437163 60020 L-435870 59973 L-435821 59926 L-435553 59926 L-435408 59926 L-434857 59926 L-434740 59878 L-434659 59831 L-434299 59783 L-434076 59736 L-433794 59689 L-433465 59594 L-432957 59547 L-432845 59499 L-432766 59452 L-432602 59405 L-432307 59405 L-431838 59405 L-431642 59452 L-431591 59452 L-430942 59405 L-430820 59357 L-430366 59357 L-430330 59310 L-429861 59262 L-429751 59215 L-429735 59168 L-429518 59168 L-429338 59120 L-428806 59120 L-427776 59120 L-427577 59073 L-427119 59026 L-426170 58931 L-426072 58883 L-425718 58789 L-425657 58741 L-425643 58694 L-425607 58647 L-425238 58599 L-425118 58552 L-424876 58504 L-424712 58457 L-424525 58410 L-424404 58362 L-423333 58268 L-422475 58220 L-422263 58126 L-422166 58078 L-421991 57983 L-421658 57936 L-421586 57889 L-421529 57841 L-421353 57841 L-420964 57794 L-420729 57747 L-420618 57699 L-420501 57652 L-419520 57604 L-419494 57557 L-418900 57462 L-418868 57462 L-418719 57415 L-418435 57368 L-417523 57368 L-416577 57368 L-416424 57320 L-416321 57320 L-416190 57273 L-416047 57225 L-416020 57178 L-415906 57131 L-415688 57083 L-415006 57036 L-414877 56989 L-414574 56941 L-414334 56846 L-414001 56799 L-413362 56752 L-413020 56657 L-412958 56610 L-412802 56610 L-411881 56610 L-411410 56610 L-411367 56610 L-411354 56562 L-411313 56515 L-411291 56468 L-411264 56420 L-411120 56373 L-410697 56325 L-410362 56325 L-410171 56278 L-409742 56278 L-409555 56231 L-409166 56136 L-408631 56089 L-408259 56041 L-408237 56041 L-407987 55994 L-407869 55946 L-407793 55899 L-407657 55852 L-407618 55804 L-407538 55757 L-407144 55710 L-406648 55662 L-406536 55567 L-406363 55520 L-406055 55473 L-405607 55425 L-405284 55378 L-405142 55283 L-404715 55189 L-404561 55094 L-404506 54999 L-403692 54952 L-403673 54904 L-403301 54857 L-403244 54857 L-402115 54810 L-402047 54810 L-401489 54762 L-401294 54715 L-401158 54667 L-400924 54620 L-400577 54573 L-400542 54478 L-400507 54431 L-400439 54336 L-400090 54288 L-399918 54241 L-399433 54194 L-399417 54146 L-399092 54099 L-398934 54052 L-397793 53957 L-397769 53909 L-397577 53815 L-397383 53767 L-397133 53720 L-397116 53673 L-396096 53625 L-395798 53578 L-395723 53531 L-395586 53436 L-395411 53388 L-394834 53294 L-394618 53246 L-394555 53199 L-394424 53152 L-394387 53057 L-393864 53009 L-393726 71674 L-393711 71674 L-393689 71674 L-393668 71674 L-393441 52962 L-392665 52962 L-392624 52962 L-392256 52962 L-392178 52915 L-392126 52867 L-391452 52820 L-390710 52773 L-390285 52773 L-389838 52725 L-388776 52678 L-388464 52583 L-388054 52583 L-387982 52536 L-387458 52536 L-387363 52536 L-387345 52536 L-386901 52488 L-386715 52394 L-385935 52299 L-385262 52252 L-384850 52109 L-384618 52015 L-384478 51967 L-384396 51873 L-384376 51825 L-384300 51825 L-384172 51778 L-383855 51825 L-383631 51825 L-383306 51778 L-383244 51778 L-382874 51778 L-382840 51778 L-382632 51778 L-381964 51778 L-381887 51778 L-381729 51683 L-381618 51683 L-381292 51636 L-381137 51588 L-380796 51588 L-380739 51494 L-380401 51399 L-380197 51351 L-380144 51257 L-378768 51209 L-378638 51162 L-378205 51115 L-377884 51067 L-377057 50972 L-376933 50925 L-376202 50830 L-376046 50736 L-376006 50688 L-375952 50641 L-375929 50594 L-375815 50546 L-375518 50499 L-375229 50451 L-375174 50404 L-375054 50357 L-375023 50309 L-374924 50262 L-374480 50262 L-374328 50215 L-373493 50215 L-372951 50167 L-372616 50167 L-372600 50120 L-372525 50072 L-372409 50025 L-372214 49978 L-371950 49930 L-371115 49883 L-371019 49836 L-370497 49788 L-370456 49741 L-370356 49693 L-369528 49693 L-369393 49646 L-369054 49646 L-368500 49599 L-368121 49551 L-367958 49504 L-367648 49457 L-366835 49409 L-366529 49362 L-366261 49362 L-365939 49362 L-365618 49409 L-365343 49409 L-364514 49315 L-364419 49267 L-364326 49125 L-364222 48983 L-363835 48841 L-363355 48746 L-363339 48699 L-363220 48651 L-362852 48557 L-362757 48509 L-361923 48414 L-361846 48367 L-361547 48320 L-361456 48272 L-361049 48178 L-360939 48083 L-360239 48036 L-359766 47988 L-359706 47941 L-359487 47846 L-359213 47799 L-359100 47751 L-358073 47704 L-357687 47657 L-357667 47609 L-357334 47562 L-357089 47514 L-356656 47467 L-356546 47420 L-356428 47372 L-355976 47278 L-355386 47230 L-355049 47183 L-353157 47135 L-353043 47041 L-352831 46993 L-351513 46946 L-351406 36288 L-351340 25771 L-351304 16060 L-351242 16060 L-350743 26624 L-350068 37045 L-350046 46662 L-349775 46567 L-348807 46567 L-348118 46520 L-347956 46472 L-347415 46425 L-347325 46378 L-346306 46330 L-345358 46235 L-344993 46283 L-344890 46330 L-344302 46330 L-344242 46330 L-344142 46283 L-343702 46188 L-343594 46141 L-343153 46093 L-342153 45951 L-341896 45809 L-341793 45667 L-341663 45572 L-341297 45477 L-340716 45383 L-340685 45335 L-340369 45288 L-338386 45241 L-338271 45193 L-338203 45193 L-337844 45146 L-336226 45099 L-336048 45099 L-335904 45099 L-335081 45146 L-335029 45193 L-334974 45193 L-334540 45193 L-333559 45241 L-333486 45241 L-332401 45193 L-332188 45193 L-331472 45099 L-331083 45051 L-330865 44956 L-330545 44862 L-330051 44767 L-329923 44720 L-329695 44625 L-329462 44530 L-329403 44483 L-329114 44435 L-328841 44341 L-327812 44293 L-326147 44246 L-325727 44198 L-325590 44151 L-325434 44151 L-325129 44104 L-324901 44009 L-324742 43962 L-324583 43867 L-324414 43772 L-324366 43725 L-324313 43677 L-324291 43677 L-323905 43630 L-323655 43630 L-323385 43630 L-323224 43630 L-323134 43630 L-321476 43630 L-321311 43677 L-320931 43630 L-320471 43630 L-319861 43535 L-318768 43488 L-318337 43441 L-318305 43393 L-318243 43346 L-318226 43298 L-316522 43251 L-316480 43204 L-316014 43156 L-315827 43109 L-315795 43014 L-315199 42967 L-315149 42919 L-314827 42872 L-314776 42825 L-314566 42777 L-314548 42730 L-314281 42635 L-314229 42588 L-313759 42540 L-313249 42446 L-313171 42446 L-312876 42398 L-312860 42351 L-312821 42304 L-312750 42256 L-312593 42209 L-311647 42209 L-311590 42209 L-311070 42209 L-310877 42162 L-310776 42162 L-310550 42114 L-310040 42114 L-309652 43393 L-309583 43393 L-309235 43346 L-308878 43298 L-307749 41925 L-307697 41830 L-307471 41783 L-307437 41735 L-307312 41640 L-307214 41640 L-306949 41640 L-306209 41688 L-305630 41688 L-305337 41688 L-304631 41688 L-304452 41640 L-304429 41640 L-303793 41593 L-303482 41546 L-303085 41546 L-303056 41498 L-303035 41451 L-302881 41404 L-302196 41404 L-302179 41404 L-301839 41404 L-301567 41356 L-301529 41309 L-301473 41214 L-301451 41167 L-301379 41119 L-301047 41072 L-300941 41025 L-300913 40930 L-300715 40882 L-300562 40835 L-299694 40788 L-299131 40693 L-299115 40693 L-299014 40646 L-298912 40693 L-298765 40693 L-298687 40693 L-298649 40646 L-298594 40598 L-298520 40551 L-298375 40504 L-297894 40504 L-297489 40456 L-296623 40504 L-296603 40504 L-296345 40504 L-296269 40504 L-296239 40456 L-296229 40361 L-296212 40314 L-295919 40267 L-295879 40219 L-295808 40172 L-295734 40125 L-295529 40077 L-295369 39935 L-295068 39793 L-294990 39603 L-294973 39461 L-294757 39367 L-294526 39367 L-294416 39414 L-294046 39461 L-293888 39461 L-293656 39461 L-293488 39461 L-293343 39414 L-293211 39367 L-291935 39272 L-291531 39177 L-291471 39130 L-291354 39035 L-290929 38988 L-290913 38893 L-290851 38846 L-290578 38751 L-290465 38703 L-290183 38609 L-289906 38561 L-289481 38467 L-289458 38419 L-289380 38372 L-289255 38324 L-288668 38277 L-288277 38230 L-287941 38182 L-287352 38135 L-287250 38135 L-287080 38088 L-286943 38088 L-286116 38040 L-284930 37993 L-284894 37945 L-284839 37945 L-284618 37898 L-284413 37898 L-284259 37898 L-284002 37851 L-283925 37803 L-283383 37756 L-283346 37709 L-283097 37661 L-282710 37614 L-281884 37567 L-281526 37519 L-281216 37519 L-280958 37472 L-280734 37424 L-280328 37377 L-280211 37330 L-280028 37282 L-279975 37282 L-279786 37235 L-279616 37188 L-279587 37140 L-279306 37093 L-278996 37045 L-278858 36998 L-278548 36951 L-278354 36951 L-278339 36903 L-277619 36903 L-277486 36809 L-277188 36761 L-277098 36714 L-276497 36714 L-276459 36666 L-276380 36619 L-275760 36572 L-275608 36477 L-275568 36430 L-275257 36382 L-275065 36335 L-274872 36240 L-274817 36145 L-274508 36098 L-274456 36051 L-274401 36098 L-274376 36098 L-274251 36098 L-273440 36051 L-273364 36003 L-272823 35956 L-272554 35909 L-271895 35861 L-270987 35814 L-270746 35766 L-270214 35719 L-269996 35672 L-268889 35719 L-268839 35719 L-268063 35719 L-267515 35672 L-267404 35624 L-267251 35530 L-267196 35482 L-267031 35435 L-266653 35387 L-266206 35340 L-266151 35293 L-265997 35245 L-265317 35198 L-265097 35151 L-264579 35103 L-263730 35009 L-263714 34961 L-261923 34914 L-261369 34866 L-261251 34819 L-260246 34772 L-260209 34724 L-259976 34724 L-259884 34724 L-259844 34724 L-259512 34677 L-259160 34630 L-258895 34535 L-258608 34487 L-258297 34393 L-258043 34298 L-257949 34251 L-257459 34203 L-257252 34156 L-256686 34108 L-256572 34156 L-256221 34108 L-256169 34108 L-256129 34108 L-255526 34014 L-254792 33919 L-254211 33824 L-253975 33729 L-253435 33587 L-253282 33493 L-252781 33445 L-252571 33351 L-252548 33351 L-252489 33303 L-251527 33303 L-251349 33256 L-250907 33208 L-250883 33114 L-250728 33066 L-250646 33066 L-250496 33114 L-249849 33114 L-249799 33066 L-248679 33019 L-247695 32972 L-247634 32924 L-246913 32877 L-246048 32829 L-245669 32782 L-245450 32782 L-244691 32735 L-244639 32687 L-244330 32593 L-243478 32593 L-243285 32545 L-243109 32498 L-242884 32498 L-242757 32450 L-242565 32450 L-242333 32403 L-242163 32450 L-241877 32403 L-241597 32403 L-241514 32356 L-241344 32308 L-241327 32214 L-241173 32166 L-241134 32119 L-240359 32072 L-240282 32072 L-240050 31977 L-239623 31929 L-239278 31882 L-238694 31835 L-238426 31835 L-238167 31835 L-238037 31740 L-238021 31693 L-237907 31645 L-237883 31598 L-237649 31550 L-237613 31503 L-236297 31503 L-236242 31456 L-235563 31361 L-234990 31361 L-234865 31361 L-234712 31361 L-234634 31361 L-234323 31266 L-234050 31219 L-233960 31124 L-233859 31124 L-232931 31077 L-232855 31077 L-232491 31077 L-232466 31029 L-232430 30982 L-231654 30887 L-231562 30840 L-231422 30792 L-231021 30745 L-230759 30745 L-230515 30792 L-230301 30745 L-230221 30745 L-230144 30745 L-230068 30745 L-229881 30792 L-229815 30792 L-229565 30792 L-229510 30745 L-229373 30698 L-229293 30603 L-229180 30556 L-228956 30508 L-228792 30461 L-228751 30414 L-228582 30366 L-228211 30319 L-228196 30271 L-228080 30224 L-227359 30177 L-227323 30129 L-227190 30129 L-226842 30082 L-226431 30082 L-226395 30082 L-226316 30035 L-226278 29987 L-225914 29940 L-225709 29892 L-225694 29845 L-225349 29798 L-225000 29798 L-224674 29798 L-224573 29750 L-224420 29750 L-224226 29703 L-223994 29703 L-223901 29703 L-223746 29703 L-223669 29703 L-223628 29656 L-223514 29608 L-223491 29561 L-223240 29561 L-223102 29466 L-222524 29324 L-221696 29229 L-221208 29135 L-221086 29087 L-221048 29040 L-221035 28992 L-220883 28898 L-220782 28803 L-220549 28756 L-220159 28661 L-219854 28613 L-219839 28566 L-219668 28519 L-219429 28424 L-218833 28424 L-218229 28377 L-218190 28377 L-218149 28377 L-217996 28329 L-217943 28282 L-217880 28234 L-217812 28187 L-217758 28092 L-217732 28045 L-217686 27998 L-217591 27903 L-217454 27855 L-217301 27808 L-217169 27761 L-217128 27761 L-217092 27713 L-217030 27666 L-216757 27571 L-216442 27524 L-216402 27429 L-216317 27382 L-216139 27334 L-215902 27287 L-215544 27240 L-215514 27192 L-214945 27145 L-214822 27098 L-214586 27050 L-214563 27050 L-214282 27003 L-213997 27003 L-213741 27003 L-213169 26955 L-212873 26908 L-212796 26861 L-212097 26813 L-212020 26766 L-211985 26719 L-211958 26671 L-211907 26576 L-211713 26529 L-211573 26434 L-211537 26387 L-211497 26340 L-210901 26292 L-210669 26245 L-210385 26576 L-210331 26861 L-210257 27192 L-210179 27477 L-209943 27382 L-209699 27334 L-209563 27287 L-209457 27240 L-209377 27192 L-208990 27098 L-208863 27050 L-208710 27003 L-208673 26955 L-208527 26908 L-208305 26861 L-208132 26813 L-208063 26766 L-207241 26671 L-207225 26671 L-206930 26624 L-206143 26576 L-205833 26576 L-205686 26529 L-205458 26482 L-205257 26387 L-204321 26340 L-204284 26292 L-204261 26245 L-204220 26150 L-203952 26103 L-203355 26055 L-203292 26008 L-203256 25961 L-203239 25913 L-202544 25913 L-202343 25913 L-202311 25913 L-201977 25913 L-201870 25866 L-201245 25771 L-200741 25724 L-200704 25629 L-200261 25629 L-200165 25582 L-200006 25582 L-199693 25582 L-199681 25582 L-199241 25629 L-198759 25676 L-198630 25676 L-198310 25676 L-198241 25629 L-197937 25629 L-197761 25582 L-197568 25534 L-197325 25440 L-197127 25345 L-197102 25250 L-196523 25203 L-196454 25155 L-196044 25108 L-195990 25061 L-195943 25013 L-195579 24966 L-195433 24918 L-195228 24871 L-195131 24871 L-194976 24824 L-194915 24776 L-194767 24682 L-194667 24634 L-194110 24634 L-194087 24729 L-193915 24776 L-193374 24824 L-193313 24824 L-193259 24729 L-193230 24634 L-193159 24587 L-193143 24492 L-193079 24445 L-193043 24350 L-192888 24303 L-192562 24255 L-191996 24208 L-191982 24161 L-191920 24066 L-191818 23971 L-191772 23971 L-191529 23924 L-191107 23924 L-190952 23924 L-189211 23829 L-188669 23782 L-187726 23734 L-187316 23687 L-186775 23592 L-186579 23545 L-186410 23497 L-186114 23450 L-186000 23403 L-185985 23403 L-185830 23355 L-185690 23308 L-185613 23213 L-185482 23213 L-185134 23213 L-184763 23261 L-184165 23261 L-183989 23261 L-183833 23213 L-183564 23166 L-183413 23166 L-183121 23308 L-183098 23403 L-183015 23497 L-182787 23592 L-182088 23545 L-181961 23497 L-181530 23450 L-181436 23403 L-180231 23403 L-180182 23355 L-179888 23355 L-179485 23308 L-179209 23213 L-179190 23166 L-179072 23118 L-178996 23071 L-178814 23024 L-178334 22976 L-177883 22882 L-177473 22834 L-177442 22787 L-177024 22739 L-176910 22739 L-176792 22739 L-176777 22739 L-176582 22692 L-176561 22597 L-176328 22550 L-175885 22503 L-175566 22408 L-175101 22408 L-174936 22360 L-174781 22313 L-174625 22313 L-174171 22313 L-173852 22313 L-173797 22360 L-173426 22360 L-173389 22408 L-173062 22408 L-172945 22360 L-172847 22313 L-172521 22218 L-172134 22171 L-171873 22124 L-171515 22029 L-171258 21981 L-169088 21934 L-169038 21887 L-169016 21839 L-168605 21839 L-168543 21839 L-168473 21887 L-168242 21887 L-167931 21839 L-167628 21745 L-167584 21697 L-167276 21650 L-167143 21603 L-166926 21555 L-166214 21508 L-166059 21508 L-165920 21460 L-165772 21460 L-165751 21460 L-165556 21413 L-165531 21366 L-165440 21318 L-165418 21271 L-165402 21224 L-165301 21176 L-164373 21129 L-163915 21129 L-162823 21034 L-162400 21034 L-161997 20987 L-161958 20939 L-161704 20892 L-160930 20797 L-160914 20750 L-160889 20702 L-160696 20655 L-159960 20608 L-159691 20560 L-159650 20513 L-159251 20418 L-159226 20371 L-158437 20324 L-157757 20276 L-156386 20229 L-156116 20181 L-156067 20134 L-155530 20039 L-155497 19992 L-155395 19897 L-155071 19850 L-154992 19802 L-154723 19802 L-153810 19755 L-153672 19755 L-153423 19660 L-152877 19660 L-152455 19613 L-152262 19566 L-152247 19566 L-152109 19471 L-152015 19423 L-151888 19376 L-151628 19329 L-151603 19234 L-151512 19187 L-151201 19139 L-151141 19092 L-151024 19092 L-150674 19092 L-149864 19092 L-149632 18997 L-148803 18997 L-148571 18902 L-148355 18855 L-147836 18855 L-147198 18808 L-146782 18760 L-146460 18713 L-145979 18666 L-145553 18666 L-145492 18618 L-145144 18618 L-145103 18571 L-145089 18523 L-144990 18429 L-144944 18429 L-144459 18381 L-143658 18381 L-143323 18381 L-142242 18334 L-141762 18287 L-141739 18239 L-141599 18192 L-141043 18144 L-140346 18097 L-140037 18050 L-139816 18002 L-139711 17955 L-139608 17860 L-138937 17813 L-138843 17765 L-138821 17765 L-138744 17718 L-138566 17718 L-138394 17718 L-138213 17671 L-138200 17623 L-138124 17576 L-137959 17529 L-137444 17481 L-137428 17434 L-137288 17434 L-136925 17387 L-136901 17387 L-136771 17339 L-136746 17292 L-136384 17244 L-135858 17150 L-135765 17102 L-135549 17008 L-135455 16960 L-135431 16913 L-134967 16865 L-134889 16865 L-134488 16818 L-134037 16818 L-132785 16771 L-132747 16723 L-132315 16676 L-132282 16629 L-131563 16581 L-131387 16534 L-131251 16486 L-130945 16439 L-130890 16392 L-130865 16297 L-130849 16202 L-130674 16155 L-130484 16108 L-129977 16108 L-129603 15729 L-129265 15302 L-129226 14923 L-128507 14592 L-128414 14544 L-128375 14497 L-127833 14497 L-127810 14450 L-127408 14402 L-126982 14355 L-126711 14355 L-126531 14307 L-126285 14213 L-126262 14165 L-126206 14071 L-125589 14023 L-125086 13976 L-124699 13976 L-124080 14023 L-123864 14023 L-123709 14071 L-122416 13976 L-122317 13928 L-121875 13834 L-121544 13786 L-121243 13692 L-121001 13644 L-120266 13549 L-119687 13502 L-118857 13455 L-118757 13407 L-118199 13360 L-118061 13313 L-116419 13265 L-116358 13265 L-116265 13265 L-115298 13265 L-115120 13218 L-114833 13218 L-114615 13218 L-114537 13171 L-114266 13171 L-114150 13123 L-113997 13076 L-113687 13028 L-113609 12981 L-113518 12981 L-113440 12934 L-113324 12934 L-113145 12886 L-113053 12839 L-113015 12792 L-112512 12792 L-112293 12744 L-112164 12744 L-112009 12697 L-111954 12649 L-111829 12649 L-111445 12602 L-110936 12555 L-110864 12507 L-110384 12460 L-110307 12413 L-110206 12413 L-109973 12365 L-109508 12365 L-109278 12365 L-109262 12365 L-109030 12365 L-108875 12365 L-108813 12365 L-108620 12318 L-108349 12223 L-107598 12176 L-106645 12176 L-106609 12128 L-106384 12128 L-105944 12128 L-105663 12034 L-105315 11986 L-104246 11939 L-103318 11939 L-103187 11939 L-103141 11939 L-103071 11891 L-102917 11891 L-102839 11797 L-102666 11702 L-102231 11607 L-102027 11560 L-101966 11465 L-101384 11418 L-101230 11323 L-101114 11276 L-101073 11228 L-100904 11181 L-100767 11134 L-100556 11039 L-100479 10991 L-100456 10944 L-100247 10849 L-99837 10802 L-99812 10755 L-99589 10707 L-99444 10660 L-99409 10612 L-99396 10565 L-99373 10518 L-99140 10470 L-98954 10423 L-98737 10376 L-98712 10328 L-98023 10281 L-97919 10234 L-97884 10186 L-97863 10139 L-97669 10091 L-97616 10044 L-97499 9949 L-97417 9949 L-97306 9902 L-96992 9855 L-96532 9807 L-96277 9760 L-96043 9665 L-95913 9618 L-95561 9570 L-95501 9523 L-95349 9476 L-94777 9381 L-94690 9333 L-94537 9239 L-94241 9144 L-93871 9049 L-93568 8954 L-93491 8907 L-93086 8860 L-92918 8860 L-92774 8860 L-92234 8860 L-92173 8860 L-92158 8765 L-91992 8718 L-91786 8670 L-91711 8670 L-91618 8623 L-91208 8576 L-91193 8528 L-91169 8528 L-90976 8481 L-90899 8907 L-90729 9333 L-90667 9712 L-90651 10139 L-90137 10091 L-89915 10044 L-89296 9949 L-89043 9902 L-88849 9855 L-88810 9807 L-88736 9807 L-88671 9807 L-88020 9807 L-87982 9855 L-87807 9855 L-87742 9855 L-87068 9855 L-86679 9760 L-86417 9712 L-86179 9665 L-86101 9570 L-86086 9476 L-85884 9428 L-85513 9333 L-85287 9286 L-84652 9239 L-84632 9239 L-84245 9191 L-84151 9191 L-84093 9144 L-83817 9097 L-83508 9097 L-83430 9049 L-82579 9097 L-82236 9333 L-81799 9618 L-81366 9855 L-80871 10091 L-80721 10044 L-80453 10091 L-79215 10139 L-79158 10234 L-77394 10281 L-77204 10234 L-76194 10186 L-76043 10139 L-75667 10234 L-75346 10328 L-74741 10423 L-74671 10518 L-74494 10470 L-73665 10423 L-73527 10376 L-73140 10328 L-72956 10281 L-72912 10234 L-72792 10186 L-72582 10139 L-72135 10044 L-71787 9997 L-71654 9949 L-71245 9902 L-70895 9902 L-70610 9855 L-70416 9807 L-70262 9807 L-70098 9760 L-70030 9712 L-69930 9712 L-69696 9665 L-69580 9665 L-69527 9618 L-68985 9618 L-68520 9570 L-67338 9570 L-67205 9570 L-67181 9570 L-67128 9570 L-66460 9570 L-65425 9476 L-65232 9428 L-65052 9381 L-64900 9381 L-64860 9333 L-64845 9333 L-64783 9286 L-64458 9239 L-63298 9191 L-63104 9144 L-62927 9097 L-61813 9049 L-60953 9002 L-60847 9002 L-60373 8954 L-60181 8954 L-57859 8907 L-57781 8860 L-57660 8765 L-57626 8718 L-57588 8623 L-57494 8481 L-57278 8386 L-56697 8291 L-56311 8244 L-55538 8197 L-55460 8149 L-54762 8149 L-54221 8149 L-54180 8102 L-54050 8102 L-53586 8054 L-53547 8007 L-53413 7960 L-53045 7912 L-53015 7865 L-52865 7865 L-52464 7818 L-50640 7865 L-49833 7818 L-49115 7818 L-49098 7818 L-48784 7723 L-48223 7675 L-47721 7628 L-47202 7581 L-47181 7533 L-45437 7486 L-45268 7439 L-45072 7391 L-44178 7344 L-43660 7249 L-43449 7202 L-43191 7154 L-42482 7107 L-41531 7060 L-40873 7012 L-40834 6918 L-40547 6870 L-40465 6823 L-40370 6823 L-40238 6775 L-40161 6775 L-39425 6775 L-39088 6728 L-39039 6775 L-38783 6775 L-38497 6728 L-38071 6728 L-37491 6681 L-37232 6681 L-37080 6633 L-36833 6633 L-36795 6633 L-35998 6586 L-35960 6539 L-35783 6539 L-35373 6444 L-35145 6444 L-35069 6444 L-34937 6444 L-34821 6396 L-34473 6349 L-34410 6302 L-34257 6254 L-33516 6207 L-33405 6160 L-33235 6112 L-33196 6065 L-32901 6065 L-32500 6065 L-32324 6065 L-32229 6065 L-31920 6018 L-31118 5970 L-30660 5875 L-30140 5828 L-29651 5781 L-28956 5733 L-27909 5686 L-27640 5686 L-27586 5639 L-27426 5639 L-27174 5639 L-26928 5591 L-26849 5544 L-26635 5449 L-26323 5402 L-25859 5307 L-25845 5260 L-25549 5260 L-25535 5212 L-24544 5165 L-23872 5117 L-23537 5023 L-22921 5023 L-22784 4975 L-22145 4928 L-22015 4881 L-21064 4786 L-20965 4691 L-20405 4644 L-19996 4644 L-19568 4644 L-19477 4596 L-18642 4596 L-18279 4596 L-18239 4644 L-18107 4691 L-17930 4691 L-17713 4691 L-17660 4644 L-17503 4549 L-17250 4502 L-16150 4454 L-16072 4407 L-15853 4360 L-15722 4265 L-15686 4217 L-15492 4170 L-15393 4123 L-14909 4075 L-14625 4028 L-14464 3981 L-14370 3886 L-14098 3838 L-13828 3791 L-13812 3602 L-13674 3459 L-13535 3317 L-13209 3128 L-12900 3033 L-12859 2986 L-12783 2891 L-12668 2844 L-11817 2749 L-11491 2702 L-11160 2654 L-11027 2654 L-10811 2654 L-10794 2654 L-10114 2654 L-10021 2559 L-9997 2512 L-9982 2417 L-9943 2370 L-9531 2275 L-9262 2228 L-9222 2180 L-8854 2180 L-8644 2133 L-7561 2133 L-7545 2086 L-7516 2038 L-7496 2038 L-7119 1944 L-6864 1896 L-6616 1801 L-6476 1707 L-6344 1659 L-6012 1612 L-5920 1565 L-5859 1517 L-5301 1470 L-5239 1423 L-5084 1375 L-4889 1328 L-4697 1280 L-4681 1233 L-4643 1186 L-4604 1138 L-4333 1091 L-4210 1044 L-4178 996 L-4078 996 L-3923 996 L-3781 996 L-3497 949 L-3172 949 L-2476 901 L-2453 901 L-1944 901 L-1098 901 L-735 854 L-580 807 L23 807 L193 807 L254 807 L309 759 L1364 712 L1383 712 L2289 712 L2310 712 L2477 665 L2719 665 L2769 617 L2824 522 L2962 475 L3001 428 L3929 380 L3984 380 L4106 380 L4178 380 L4294 380 L4472 428 L5455 380 L5594 380 L5712 286 L6006 191 L6254 144 L6290 96 L6345 144 L6366 144 L6500 144" />
</svg>
