<svg xmlns="http://www.w3.org/2000/svg" version="1.1" viewBox="0 0 6500 1000">
	<path fill="none" stroke="gold" stroke-width="125" stroke-linecap="round" stroke-linejoin="round" d="M0 236190  L-1350976 236190 L-1350792 236189 L-1350301 236186 L-1350008 236185 L-1349696 236183 L-1349462 236182 L-1349409 236180 L-1349349 236178 L-1349196 236177 L-1349156 236175 L-1349023 236174 L-1348731 236173 L-1348190 236173 L-1347580 236172 L-1347532 236172 L-1346892 236171 L-1346858 236171 L-1346333 236171 L-1346200 236169 L-1345810 236167 L-1345482 236165 L-1345365 236163 L-1345153 236161 L-1344436 236161 L-1343867 236160 L-1343759 236160 L-1343585 236159 L-1343363 236157 L-1342962 236156 L-1342936 236154 L-1342008 236151 L-1341921 236149 L-1341838 236147 L-1341768 236145 L-1341471 236144 L-1341319 236142 L-1339429 236143 L-1339328 236143 L-1339066 236143 L-1338772 236144 L-1338631 236142 L-1338382 236142 L-1338346 236141 L-1338188 236140 L-1337724 236138 L-1337471 236137 L-1337259 236135 L-1337008 236133 L-1336659 236132 L-1335732 236130 L-1335638 236128 L-1335227 236127 L-1334056 236125 L-1332867 236124 L-1332775 236122 L-1332748 236120 L-1332482 236118 L-1332183 236115 L-1332054 236113 L-1332016 236111 L-1331202 236111 L-1330818 236112 L-1329757 236113 L-1329696 236113 L-1329431 236135 L-1328960 236155 L-1328767 236175 L-1328504 236195 L-1328167 236194 L-1328031 236193 L-1327576 236192 L-1326832 236191 L-1326815 236190 L-1326650 236188 L-1326581 236188 L-1326065 236186 L-1325037 236186 L-1324840 236185 L-1324352 236184 L-1323990 236183 L-1323581 236183 L-1323196 236184 L-1321492 236184 L-1321394 236184 L-1321322 236184 L-1321261 236184 L-1321077 236183 L-1320740 236183 L-1320100 236182 L-1320023 236181 L-1319961 236181 L-1319775 236180 L-1319695 236180 L-1319518 236179 L-1319499 236178 L-1319269 236178 L-1318881 236177 L-1317992 236177 L-1317953 236176 L-1317865 236175 L-1317837 236173 L-1316829 236172 L-1316680 236169 L-1316655 236168 L-1316523 236167 L-1316483 236166 L-1315224 236165 L-1315167 236165 L-1314627 236164 L-1314574 236164 L-1314528 236164 L-1314133 236163 L-1313993 236162 L-1313793 236161 L-1313647 236161 L-1313482 236161 L-1313205 236162 L-1312846 236162 L-1312294 236161 L-1311649 236160 L-1311390 236158 L-1311237 236157 L-1310836 236156 L-1310795 236155 L-1310675 236154 L-1310613 236155 L-1310599 236155 L-1310505 236155 L-1310212 236154 L-1310061 236149 L-1309730 236147 L-1309653 236145 L-1309577 236144 L-1309350 236141 L-1309284 236139 L-1309056 236137 L-1309004 236135 L-1308839 236133 L-1307833 236132 L-1307650 236131 L-1307099 236130 L-1306706 236128 L-1306308 236127 L-1305458 236125 L-1305380 236124 L-1304801 236123 L-1304360 236123 L-1304119 236122 L-1303961 236122 L-1303561 236120 L-1303540 236120 L-1303095 236119 L-1302690 236118 L-1302554 236115 L-1302379 236113 L-1302242 236111 L-1301992 236109 L-1300992 236108 L-1300910 236107 L-1300774 236106 L-1300736 236105 L-1299846 236104 L-1299630 236103 L-1299187 236102 L-1299070 236101 L-1299013 236100 L-1298337 236100 L-1298236 236098 L-1298207 236098 L-1296866 236097 L-1296460 236096 L-1296420 236095 L-1295492 236094 L-1295394 236093 L-1295261 236092 L-1294857 236091 L-1294831 236090 L-1294738 236089 L-1294521 236088 L-1294110 236086 L-1292956 236084 L-1292665 236082 L-1292636 236079 L-1292028 236078 L-1291778 236076 L-1291758 236075 L-1290829 236074 L-1290778 236072 L-1290655 236071 L-1290638 236069 L-1290482 236068 L-1290307 236066 L-1290170 236065 L-1290113 236063 L-1290006 236062 L-1289920 236061 L-1289687 236060 L-1289612 236059 L-1289304 236058 L-1289186 236057 L-1289016 236056 L-1288925 236055 L-1288822 236055 L-1288799 236054 L-1288722 236054 L-1288624 236052 L-1288257 236051 L-1288152 236050 L-1287649 236049 L-1287197 236048 L-1287159 236047 L-1287135 236045 L-1287094 236044 L-1286965 236043 L-1286865 236042 L-1286423 236041 L-1286141 236040 L-1285548 236039 L-1285418 236038 L-1285144 236036 L-1284991 236035 L-1284838 236034 L-1284753 236032 L-1284675 236031 L-1284489 236030 L-1284438 236030 L-1284411 236029 L-1284331 236027 L-1284308 236026 L-1284025 236024 L-1283421 236022 L-1282425 236021 L-1282128 236020 L-1281394 236019 L-1281149 236018 L-1281059 236017 L-1280482 236016 L-1279784 236015 L-1279031 236014 L-1278713 236013 L-1278330 236010 L-1278253 236009 L-1277618 236008 L-1277433 236007 L-1277345 236007 L-1277216 236007 L-1276903 236006 L-1276853 236005 L-1276711 236004 L-1276690 236003 L-1275722 236002 L-1275177 236001 L-1274698 236001 L-1274637 236001 L-1274314 236001 L-1274292 236000 L-1274230 236000 L-1274020 235999 L-1273943 235998 L-1273888 235997 L-1273866 235996 L-1273826 235995 L-1273811 235994 L-1273054 235992 L-1273037 235991 L-1272238 235990 L-1272085 235989 L-1271180 235988 L-1270674 235987 L-1270444 235985 L-1270403 235985 L-1270288 235984 L-1270111 235983 L-1269357 235984 L-1269222 235983 L-1269058 235982 L-1268740 235981 L-1268564 235979 L-1267542 235977 L-1267519 235974 L-1267267 235973 L-1267054 235971 L-1266420 235970 L-1266183 235968 L-1266150 235966 L-1265972 235964 L-1265892 235962 L-1265802 235961 L-1265737 235959 L-1265297 235956 L-1265274 235955 L-1264733 235954 L-1264477 235953 L-1263982 235952 L-1263105 235951 L-1263068 235950 L-1263015 235949 L-1262974 235948 L-1262857 235947 L-1262581 235946 L-1262373 235944 L-1262176 235942 L-1262153 235939 L-1262103 235937 L-1262064 235936 L-1261986 235935 L-1261388 235933 L-1261328 235932 L-1261225 235931 L-1261070 235930 L-1260438 235929 L-1259758 235928 L-1259455 235926 L-1259108 235925 L-1258911 235924 L-1258862 235921 L-1258542 235920 L-1257914 235919 L-1257768 235918 L-1257731 235917 L-1257674 235916 L-1257597 235914 L-1257356 235914 L-1257267 235913 L-1257173 235912 L-1256880 235911 L-1256745 235910 L-1256685 235909 L-1256648 235907 L-1256376 235907 L-1255370 235906 L-1255194 235904 L-1255144 235904 L-1254851 235903 L-1254659 235901 L-1254325 235900 L-1253819 235899 L-1253257 235897 L-1253242 235895 L-1253225 235894 L-1253125 235892 L-1253010 235890 L-1252971 235888 L-1252933 235886 L-1252868 235886 L-1252840 235885 L-1252701 235886 L-1252408 235886 L-1252358 235886 L-1252253 235886 L-1251988 235885 L-1251523 235884 L-1251379 235884 L-1251324 235882 L-1251267 235881 L-1251076 235880 L-1250711 235879 L-1250496 235879 L-1250302 235879 L-1250244 235879 L-1250185 235877 L-1250031 235876 L-1249761 235875 L-1249332 235880 L-1249316 235880 L-1249239 235879 L-1249175 235878 L-1249045 235871 L-1249022 235869 L-1248738 235868 L-1248690 235867 L-1248636 235866 L-1248173 235865 L-1248134 235865 L-1248094 235864 L-1247903 235863 L-1247423 235862 L-1246936 235861 L-1246919 235860 L-1246881 235859 L-1246625 235858 L-1246548 235856 L-1246318 235855 L-1246302 235853 L-1246007 235850 L-1245565 235849 L-1245118 235848 L-1244613 235847 L-1244460 235846 L-1244173 235845 L-1244133 235843 L-1243802 235842 L-1243580 235841 L-1243063 235839 L-1242987 235838 L-1242739 235836 L-1242545 235833 L-1242485 235832 L-1241709 235831 L-1241635 235831 L-1241404 235830 L-1241387 235830 L-1241326 235829 L-1241130 235828 L-1240666 235828 L-1240642 235827 L-1240513 235827 L-1239212 235827 L-1239195 235827 L-1239118 235826 L-1239025 235826 L-1238807 235826 L-1238655 235825 L-1238477 235826 L-1238423 235827 L-1238136 235828 L-1238096 235828 L-1237727 235828 L-1237286 235828 L-1237103 235828 L-1236782 235827 L-1236487 235827 L-1236041 235825 L-1235969 235824 L-1235507 235822 L-1235069 235821 L-1234887 235820 L-1233433 235818 L-1233301 235816 L-1232844 235814 L-1232618 235813 L-1232231 235811 L-1231715 235809 L-1230761 235807 L-1229967 235805 L-1229292 235804 L-1228867 235802 L-1228555 235801 L-1228325 235797 L-1227642 235794 L-1227629 235791 L-1227419 235787 L-1227397 235786 L-1227223 235784 L-1226273 235783 L-1226005 235780 L-1225189 235779 L-1224879 235777 L-1224841 235776 L-1224784 235774 L-1224167 235773 L-1223529 235771 L-1221903 235770 L-1221229 235769 L-1220587 235769 L-1220510 235769 L-1220453 235769 L-1220418 235769 L-1220389 235768 L-1220278 235766 L-1220260 235765 L-1220237 235763 L-1220084 235762 L-1220030 235760 L-1219952 235759 L-1219833 235758 L-1219735 235757 L-1219618 235756 L-1219348 235754 L-1219078 235753 L-1219061 235751 L-1218861 235750 L-1218714 235748 L-1218488 235747 L-1218353 235745 L-1218045 235744 L-1217985 235743 L-1217632 235741 L-1217283 235740 L-1217182 235739 L-1217118 235737 L-1217058 235736 L-1216673 235734 L-1216293 235733 L-1216188 235732 L-1215928 235731 L-1215657 235729 L-1215498 235727 L-1215465 235726 L-1215403 235725 L-1215262 235724 L-1215078 235723 L-1215034 235722 L-1214745 235722 L-1214729 235721 L-1214496 235721 L-1214435 235720 L-1214397 235720 L-1213817 235719 L-1213683 235718 L-1213660 235714 L-1213642 235706 L-1213624 235698 L-1213608 235689 L-1213584 235681 L-1213568 235674 L-1213546 235667 L-1213530 235660 L-1213507 235655 L-1213490 235651 L-1213468 235648 L-1213451 235646 L-1213403 235643 L-1213330 235639 L-1213296 235634 L-1213272 235630 L-1213236 235626 L-1213195 235621 L-1213158 235619 L-1213142 235615 L-1213118 235612 L-1213081 235610 L-1213064 235607 L-1213041 235604 L-1213023 235602 L-1213005 235600 L-1212989 235598 L-1212959 235595 L-1212933 235592 L-1212888 235591 L-1212871 235589 L-1212830 235588 L-1212781 235585 L-1212711 235583 L-1212695 235581 L-1212679 235579 L-1212617 235578 L-1212578 235577 L-1212539 235576 L-1212373 235575 L-1212308 235574 L-1212292 235573 L-1212248 235571 L-1212189 235570 L-1211976 235568 L-1211943 235567 L-1211901 235566 L-1211823 235565 L-1211285 235564 L-1211207 235563 L-1211103 235561 L-1211014 235560 L-1210838 235559 L-1210487 235558 L-1210332 235557 L-1209894 235556 L-1209737 235555 L-1209607 235554 L-1208903 235551 L-1208702 235550 L-1207742 235548 L-1207259 235547 L-1207160 235547 L-1207068 235546 L-1206823 235545 L-1206750 235544 L-1206307 235542 L-1206211 235541 L-1206196 235540 L-1206180 235539 L-1206155 235538 L-1205689 235537 L-1205472 235536 L-1205332 235535 L-1205038 235533 L-1204950 235532 L-1204908 235531 L-1204879 235530 L-1204706 235529 L-1204647 235528 L-1204571 235527 L-1204490 235526 L-1204421 235526 L-1204112 235525 L-1204026 235524 L-1203813 235523 L-1203777 235522 L-1203094 235521 L-1202995 235520 L-1202790 235519 L-1202744 235518 L-1202465 235517 L-1202403 235515 L-1202386 235513 L-1202308 235512 L-1202000 235510 L-1201976 235509 L-1201922 235507 L-1201899 235506 L-1201776 235505 L-1201641 235503 L-1201396 235502 L-1201271 235502 L-1200624 235501 L-1200608 235501 L-1200583 235501 L-1200403 235498 L-1200327 235497 L-1200235 235496 L-1199807 235495 L-1199391 235494 L-1198998 235492 L-1198920 235491 L-1198901 235490 L-1198537 235489 L-1198301 235488 L-1198073 235487 L-1197760 235486 L-1197682 235485 L-1197601 235483 L-1197423 235480 L-1197407 235479 L-1197142 235477 L-1197062 235476 L-1196832 235475 L-1196606 235474 L-1196290 235474 L-1196115 235473 L-1195754 235473 L-1195362 235472 L-1195293 235470 L-1195229 235469 L-1195089 235467 L-1195037 235466 L-1194935 235464 L-1194433 235462 L-1194236 235461 L-1193989 235460 L-1193804 235459 L-1193504 235458 L-1193428 235457 L-1193262 235455 L-1192378 235454 L-1192349 235452 L-1192226 235450 L-1191647 235449 L-1191570 235448 L-1190856 235448 L-1190544 235448 L-1190331 235448 L-1190314 235448 L-1189928 235448 L-1189403 235445 L-1188957 235444 L-1188627 235443 L-1188474 235442 L-1188148 235442 L-1187970 235441 L-1187888 235441 L-1187682 235439 L-1187507 235438 L-1186578 235437 L-1185688 235436 L-1185649 235435 L-1185421 235435 L-1185042 235434 L-1184255 235433 L-1184020 235432 L-1183944 235431 L-1183587 235430 L-1183015 235427 L-1182748 235426 L-1182362 235425 L-1182258 235425 L-1182088 235425 L-1181470 235425 L-1181258 235425 L-1180951 235425 L-1180898 235424 L-1180770 235423 L-1180717 235422 L-1180598 235421 L-1180261 235419 L-1179302 235418 L-1179171 235416 L-1178969 235415 L-1178338 235414 L-1178026 235413 L-1177613 235412 L-1177585 235410 L-1177440 235409 L-1177020 235408 L-1175687 235408 L-1175640 235407 L-1175512 235405 L-1175495 235404 L-1174917 235402 L-1174711 235401 L-1174682 235400 L-1174641 235399 L-1174583 235398 L-1174546 235397 L-1174468 235396 L-1174325 235395 L-1173870 235394 L-1173752 235392 L-1173467 235391 L-1173094 235390 L-1172998 235389 L-1172671 235388 L-1172317 235387 L-1172147 235386 L-1172099 235385 L-1171990 235384 L-1171901 235383 L-1171873 235382 L-1171797 235380 L-1171494 235379 L-1171460 235377 L-1171388 235376 L-1171020 235374 L-1170685 235373 L-1170604 235373 L-1170384 235372 L-1170213 235371 L-1170185 235370 L-1169688 235369 L-1169139 235367 L-1168258 235366 L-1168160 235364 L-1168083 235363 L-1167808 235362 L-1167561 235360 L-1167487 235359 L-1167425 235356 L-1167307 235355 L-1167264 235354 L-1167154 235353 L-1167077 235351 L-1166377 235350 L-1166131 235349 L-1166092 235348 L-1165935 235347 L-1165336 235347 L-1165109 235347 L-1165017 235347 L-1164542 235347 L-1163944 235345 L-1163425 235344 L-1163404 235343 L-1163258 235342 L-1162938 235342 L-1162396 235342 L-1162164 235342 L-1161994 235342 L-1161508 235341 L-1161280 235339 L-1161195 235338 L-1160849 235337 L-1160523 235337 L-1160000 235336 L-1159672 235335 L-1159072 235334 L-1158874 235332 L-1158822 235331 L-1158782 235330 L-1158501 235329 L-1157816 235327 L-1157506 235326 L-1157481 235324 L-1157290 235323 L-1157067 235321 L-1156981 235320 L-1156317 235318 L-1156293 235317 L-1156071 235315 L-1155741 235314 L-1155389 235312 L-1155185 235311 L-1154952 235309 L-1154694 235308 L-1154505 235306 L-1154457 235304 L-1154230 235303 L-1154196 235302 L-1154039 235301 L-1153825 235300 L-1153652 235299 L-1153560 235298 L-1153283 235297 L-1153039 235296 L-1152724 235295 L-1152298 235295 L-1152261 235295 L-1151777 235295 L-1151544 235295 L-1151332 235294 L-1151106 235293 L-1150556 235293 L-1150309 235292 L-1149475 235292 L-1149419 235291 L-1149397 235290 L-1149239 235289 L-1148778 235288 L-1148737 235286 L-1148397 235284 L-1148264 235283 L-1148041 235282 L-1147469 235281 L-1146997 235280 L-1146802 235279 L-1146610 235278 L-1146420 235277 L-1146318 235276 L-1145950 235275 L-1145904 235274 L-1145822 235273 L-1144529 235272 L-1144481 235271 L-1144212 235271 L-1144067 235271 L-1143516 235271 L-1143399 235270 L-1143318 235268 L-1142958 235267 L-1142735 235266 L-1142454 235265 L-1142124 235263 L-1141616 235262 L-1141504 235261 L-1141425 235260 L-1141261 235259 L-1140966 235259 L-1140498 235259 L-1140301 235260 L-1140251 235260 L-1139601 235259 L-1139479 235258 L-1139025 235258 L-1138989 235257 L-1138521 235256 L-1138410 235255 L-1138394 235254 L-1138178 235254 L-1137997 235253 L-1137465 235253 L-1136436 235253 L-1136236 235251 L-1135778 235250 L-1134830 235248 L-1134731 235247 L-1134377 235245 L-1134316 235244 L-1134302 235243 L-1134266 235242 L-1133897 235241 L-1133777 235240 L-1133535 235239 L-1133371 235238 L-1133184 235237 L-1133063 235236 L-1131993 235233 L-1131134 235232 L-1130922 235230 L-1130825 235229 L-1130651 235227 L-1130317 235226 L-1130246 235225 L-1130188 235224 L-1130013 235224 L-1129624 235223 L-1129388 235222 L-1129277 235221 L-1129160 235220 L-1128179 235219 L-1128154 235218 L-1127560 235215 L-1127527 235215 L-1127378 235214 L-1127094 235213 L-1126182 235213 L-1125236 235213 L-1125083 235212 L-1124981 235212 L-1124849 235211 L-1124706 235210 L-1124680 235209 L-1124565 235208 L-1124347 235207 L-1123666 235206 L-1123536 235205 L-1123233 235204 L-1122993 235202 L-1122660 235201 L-1122022 235200 L-1121679 235197 L-1121617 235196 L-1121462 235196 L-1120540 235196 L-1120070 235196 L-1120026 235196 L-1120013 235195 L-1119972 235194 L-1119950 235193 L-1119923 235192 L-1119779 235191 L-1119357 235190 L-1119021 235190 L-1118830 235189 L-1118402 235189 L-1118214 235188 L-1117825 235186 L-1117291 235185 L-1116918 235184 L-1116897 235184 L-1116647 235183 L-1116528 235182 L-1116452 235180 L-1116317 235179 L-1116277 235178 L-1116197 235177 L-1115803 235176 L-1115307 235175 L-1115195 235173 L-1115022 235172 L-1114714 235171 L-1114266 235170 L-1113943 235169 L-1113801 235167 L-1113374 235165 L-1113221 235162 L-1113165 235160 L-1112352 235159 L-1112332 235158 L-1111960 235157 L-1111903 235157 L-1110774 235156 L-1110706 235156 L-1110148 235155 L-1109953 235154 L-1109817 235153 L-1109583 235152 L-1109236 235151 L-1109202 235149 L-1109167 235148 L-1109098 235145 L-1108749 235144 L-1108577 235143 L-1108092 235142 L-1108076 235141 L-1107751 235140 L-1107593 235139 L-1106453 235137 L-1106428 235136 L-1106236 235134 L-1106043 235133 L-1105792 235132 L-1105775 235131 L-1104755 235130 L-1104457 235129 L-1104382 235127 L-1104246 235125 L-1104070 235124 L-1103493 235122 L-1103278 235121 L-1103214 235120 L-1103083 235119 L-1103046 235117 L-1102523 235116 L-1102385 235533 L-1102371 235533 L-1102348 235533 L-1102328 235533 L-1102100 235115 L-1101325 235115 L-1101283 235115 L-1100915 235115 L-1100837 235114 L-1100785 235113 L-1100112 235112 L-1099369 235111 L-1098945 235111 L-1098497 235109 L-1097435 235108 L-1097124 235106 L-1096713 235106 L-1096641 235105 L-1096117 235105 L-1096023 235105 L-1096005 235105 L-1095560 235104 L-1095375 235102 L-1094594 235100 L-1093922 235099 L-1093510 235096 L-1093278 235094 L-1093137 235092 L-1093056 235090 L-1093036 235089 L-1092960 235089 L-1092831 235088 L-1092514 235089 L-1092290 235089 L-1091965 235088 L-1091903 235088 L-1091533 235088 L-1091500 235088 L-1091291 235088 L-1090624 235088 L-1090546 235088 L-1090388 235086 L-1090278 235086 L-1089951 235085 L-1089796 235084 L-1089455 235084 L-1089398 235082 L-1089060 235080 L-1088856 235079 L-1088803 235077 L-1087427 235076 L-1087297 235074 L-1086864 235073 L-1086543 235072 L-1085716 235070 L-1085592 235069 L-1084862 235067 L-1084706 235065 L-1084665 235064 L-1084611 235063 L-1084588 235062 L-1084474 235061 L-1084178 235060 L-1083888 235059 L-1083833 235058 L-1083713 235056 L-1083683 235055 L-1083583 235054 L-1083139 235054 L-1082987 235053 L-1082152 235053 L-1081610 235052 L-1081275 235052 L-1081260 235051 L-1081184 235050 L-1081068 235049 L-1080873 235048 L-1080609 235047 L-1079774 235046 L-1079678 235045 L-1079157 235044 L-1079115 235043 L-1079016 235042 L-1078187 235042 L-1078052 235041 L-1077714 235041 L-1077159 235039 L-1076780 235038 L-1076617 235037 L-1076307 235036 L-1075494 235035 L-1075188 235034 L-1074920 235034 L-1074598 235034 L-1074277 235035 L-1074002 235035 L-1073173 235033 L-1073078 235032 L-1072986 235029 L-1072881 235026 L-1072494 235023 L-1072014 235020 L-1071998 235019 L-1071879 235018 L-1071511 235016 L-1071416 235015 L-1070582 235013 L-1070505 235012 L-1070206 235011 L-1070115 235010 L-1069708 235008 L-1069598 235006 L-1068898 235005 L-1068425 235003 L-1068365 235002 L-1068146 235000 L-1067873 234999 L-1067760 234998 L-1066732 234997 L-1066346 234996 L-1066326 234995 L-1065993 234994 L-1065748 234993 L-1065315 234992 L-1065205 234991 L-1065087 234990 L-1064636 234988 L-1064045 234986 L-1063709 234985 L-1061816 234984 L-1061702 234982 L-1061490 234981 L-1060172 234980 L-1060066 234742 L-1060000 234506 L-1059963 234289 L-1059902 234289 L-1059402 234525 L-1058727 234759 L-1058705 234974 L-1058435 234972 L-1057466 234972 L-1056777 234971 L-1056615 234970 L-1056075 234968 L-1055985 234967 L-1054965 234966 L-1054018 234964 L-1053652 234965 L-1053549 234966 L-1052961 234966 L-1052902 234966 L-1052801 234965 L-1052361 234963 L-1052253 234962 L-1051812 234961 L-1050812 234958 L-1050556 234955 L-1050453 234952 L-1050322 234949 L-1049956 234947 L-1049375 234945 L-1049344 234944 L-1049029 234943 L-1047046 234942 L-1046930 234941 L-1046862 234941 L-1046504 234940 L-1044885 234939 L-1044707 234939 L-1044563 234939 L-1043741 234940 L-1043688 234941 L-1043633 234941 L-1043199 234941 L-1042219 234942 L-1042145 234942 L-1041060 234941 L-1040847 234941 L-1040131 234939 L-1039743 234938 L-1039524 234936 L-1039204 234933 L-1038710 234931 L-1038583 234930 L-1038354 234928 L-1038122 234926 L-1038062 234925 L-1037773 234924 L-1037501 234922 L-1036471 234921 L-1034806 234920 L-1034387 234919 L-1034249 234918 L-1034093 234918 L-1033788 234917 L-1033560 234914 L-1033401 234913 L-1033242 234911 L-1033073 234909 L-1033025 234908 L-1032972 234907 L-1032950 234907 L-1032564 234906 L-1032315 234906 L-1032044 234906 L-1031883 234906 L-1031794 234906 L-1030135 234906 L-1029970 234907 L-1029590 234906 L-1029130 234906 L-1028520 234904 L-1027427 234903 L-1026996 234902 L-1026965 234901 L-1026902 234900 L-1026885 234898 L-1025181 234897 L-1025139 234896 L-1024673 234895 L-1024486 234894 L-1024454 234892 L-1023858 234891 L-1023809 234890 L-1023486 234889 L-1023435 234888 L-1023225 234887 L-1023207 234886 L-1022941 234884 L-1022888 234883 L-1022419 234882 L-1021908 234879 L-1021830 234879 L-1021536 234878 L-1021519 234877 L-1021481 234876 L-1021410 234875 L-1021252 234874 L-1020306 234874 L-1020250 234874 L-1019729 234874 L-1019536 234873 L-1019436 234873 L-1019210 234872 L-1018700 234872 L-1018312 234901 L-1018242 234901 L-1017894 234900 L-1017537 234898 L-1016408 234868 L-1016357 234866 L-1016130 234865 L-1016097 234864 L-1015972 234861 L-1015873 234861 L-1015608 234861 L-1014868 234862 L-1014289 234862 L-1013996 234862 L-1013290 234862 L-1013111 234861 L-1013088 234861 L-1012452 234860 L-1012141 234859 L-1011744 234859 L-1011715 234858 L-1011694 234857 L-1011540 234856 L-1010855 234856 L-1010838 234856 L-1010499 234856 L-1010226 234855 L-1010189 234854 L-1010133 234852 L-1010111 234851 L-1010039 234850 L-1009707 234849 L-1009601 234848 L-1009572 234845 L-1009374 234844 L-1009221 234843 L-1008353 234842 L-1007790 234840 L-1007774 234840 L-1007673 234839 L-1007571 234840 L-1007424 234840 L-1007346 234840 L-1007308 234839 L-1007253 234838 L-1007180 234837 L-1007035 234836 L-1006553 234836 L-1006148 234835 L-1005282 234836 L-1005262 234836 L-1005004 234836 L-1004928 234836 L-1004899 234835 L-1004888 234833 L-1004871 234832 L-1004578 234831 L-1004539 234830 L-1004467 234829 L-1004393 234827 L-1004188 234826 L-1004028 234823 L-1003727 234820 L-1003650 234816 L-1003632 234813 L-1003416 234811 L-1003185 234811 L-1003075 234812 L-1002705 234813 L-1002547 234813 L-1002315 234813 L-1002147 234813 L-1002002 234812 L-1001870 234811 L-1000594 234808 L-1000191 234806 L-1000130 234805 L-1000013 234803 L-999588 234802 L-999572 234800 L-999510 234799 L-999237 234797 L-999125 234796 L-998842 234794 L-998565 234792 L-998140 234790 L-998118 234789 L-998040 234788 L-997914 234787 L-997327 234786 L-996936 234785 L-996601 234784 L-996011 234783 L-995909 234783 L-995739 234782 L-995603 234782 L-994775 234781 L-993590 234780 L-993553 234779 L-993498 234779 L-993277 234778 L-993072 234778 L-992918 234778 L-992661 234777 L-992585 234776 L-992042 234774 L-992005 234773 L-991757 234772 L-991369 234771 L-990544 234770 L-990185 234769 L-989875 234769 L-989617 234768 L-989393 234767 L-988987 234766 L-988871 234765 L-988687 234764 L-988634 234764 L-988446 234763 L-988275 234762 L-988246 234761 L-987966 234760 L-987655 234759 L-987517 234758 L-987207 234756 L-987013 234756 L-986998 234755 L-986279 234755 L-986145 234753 L-985847 234752 L-985757 234751 L-985156 234751 L-985118 234750 L-985040 234749 L-984419 234748 L-984268 234746 L-984227 234745 L-983916 234744 L-983725 234743 L-983532 234741 L-983476 234738 L-983167 234737 L-983115 234736 L-983061 234737 L-983035 234737 L-982910 234737 L-982099 234736 L-982023 234735 L-981482 234734 L-981213 234733 L-980554 234732 L-979646 234731 L-979405 234730 L-978873 234729 L-978656 234728 L-977548 234729 L-977498 234729 L-976722 234729 L-976175 234728 L-976063 234727 L-975911 234725 L-975855 234724 L-975690 234723 L-975313 234721 L-974865 234720 L-974811 234719 L-974656 234718 L-973976 234717 L-973756 234716 L-973238 234715 L-972389 234713 L-972373 234712 L-970582 234711 L-970028 234710 L-969911 234709 L-968905 234708 L-968868 234707 L-968636 234707 L-968543 234707 L-968503 234707 L-968171 234706 L-967819 234705 L-967554 234702 L-967267 234701 L-966956 234699 L-966702 234697 L-966609 234696 L-966119 234695 L-965911 234694 L-965346 234693 L-965231 234694 L-964880 234693 L-964829 234693 L-964788 234693 L-964185 234691 L-963451 234689 L-962870 234686 L-962634 234684 L-962094 234681 L-961942 234679 L-961440 234678 L-961231 234676 L-961207 234676 L-961148 234675 L-960186 234675 L-960008 234674 L-959566 234673 L-959542 234671 L-959387 234670 L-959305 234670 L-959155 234671 L-958508 234671 L-958459 234670 L-957339 234668 L-956354 234667 L-956293 234666 L-955572 234665 L-954707 234664 L-954329 234663 L-954110 234663 L-953350 234662 L-953298 234661 L-952989 234659 L-952138 234659 L-951945 234658 L-951768 234657 L-951543 234657 L-951417 234656 L-951225 234656 L-950992 234655 L-950823 234656 L-950536 234655 L-950257 234655 L-950174 234654 L-950003 234653 L-949987 234650 L-949833 234649 L-949793 234648 L-949018 234647 L-948941 234647 L-948709 234645 L-948282 234644 L-947937 234643 L-947354 234642 L-947085 234642 L-946826 234642 L-946697 234640 L-946680 234639 L-946567 234638 L-946543 234637 L-946309 234636 L-946273 234635 L-944957 234635 L-944901 234633 L-944222 234631 L-943649 234631 L-943524 234631 L-943371 234631 L-943294 234631 L-942982 234629 L-942709 234628 L-942620 234626 L-942518 234626 L-941590 234625 L-941514 234625 L-941150 234625 L-941125 234624 L-941089 234623 L-940313 234621 L-940222 234620 L-940082 234619 L-939680 234618 L-939418 234618 L-939175 234619 L-938960 234618 L-938880 234618 L-938804 234618 L-938727 234618 L-938540 234619 L-938474 234619 L-938224 234619 L-938169 234618 L-938032 234617 L-937952 234614 L-937839 234613 L-937616 234612 L-937451 234611 L-937410 234610 L-937241 234609 L-936870 234608 L-936855 234607 L-936739 234606 L-936018 234605 L-935982 234604 L-935849 234604 L-935501 234603 L-935090 234603 L-935054 234603 L-934976 234602 L-934937 234601 L-934573 234600 L-934369 234599 L-934354 234597 L-934008 234596 L-933660 234596 L-933334 234596 L-933232 234595 L-933079 234595 L-932885 234594 L-932653 234594 L-932561 234594 L-932405 234594 L-932328 234594 L-932287 234593 L-932174 234592 L-932150 234591 L-931900 234591 L-931761 234589 L-931183 234586 L-930355 234584 L-929867 234582 L-929746 234580 L-929707 234579 L-929695 234578 L-929542 234576 L-929441 234574 L-929208 234573 L-928818 234571 L-928514 234570 L-928498 234569 L-928327 234568 L-928089 234566 L-927492 234566 L-926889 234565 L-926849 234565 L-926809 234565 L-926655 234564 L-926602 234562 L-926540 234561 L-926472 234560 L-926417 234558 L-926392 234557 L-926345 234556 L-926251 234554 L-926113 234553 L-925960 234552 L-925828 234551 L-925787 234551 L-925751 234550 L-925689 234549 L-925416 234547 L-925102 234546 L-925061 234543 L-924976 234542 L-924798 234541 L-924561 234540 L-924203 234539 L-924174 234538 L-923604 234537 L-923481 234536 L-923245 234535 L-923223 234535 L-922941 234534 L-922656 234534 L-922400 234534 L-921828 234533 L-921532 234532 L-921456 234531 L-920757 234530 L-920679 234529 L-920644 234527 L-920618 234526 L-920566 234524 L-920372 234523 L-920232 234521 L-920196 234520 L-920156 234519 L-919561 234518 L-919328 234517 L-919045 234524 L-918990 234531 L-918916 234538 L-918838 234544 L-918602 234542 L-918358 234541 L-918223 234540 L-918116 234539 L-918037 234538 L-917649 234536 L-917522 234535 L-917370 234534 L-917332 234533 L-917186 234532 L-916965 234531 L-916791 234530 L-916722 234529 L-915900 234526 L-915884 234526 L-915590 234525 L-914802 234524 L-914492 234524 L-914346 234523 L-914118 234522 L-913917 234520 L-912980 234519 L-912943 234518 L-912921 234517 L-912880 234515 L-912611 234514 L-912015 234513 L-911951 234512 L-911915 234511 L-911898 234509 L-911203 234509 L-911002 234509 L-910970 234509 L-910637 234509 L-910529 234508 L-909904 234506 L-909400 234505 L-909363 234503 L-908921 234503 L-908825 234502 L-908666 234502 L-908352 234502 L-908340 234502 L-907900 234503 L-907418 234504 L-907289 234504 L-906969 234504 L-906901 234503 L-906596 234503 L-906421 234502 L-906227 234501 L-905984 234499 L-905787 234497 L-905761 234495 L-905183 234494 L-905113 234493 L-904703 234491 L-904649 234490 L-904603 234489 L-904239 234488 L-904092 234487 L-903887 234486 L-903791 234486 L-903636 234485 L-903574 234484 L-903427 234482 L-903326 234481 L-902769 234481 L-902747 234483 L-902575 234484 L-902033 234485 L-901972 234485 L-901918 234483 L-901890 234481 L-901818 234480 L-901802 234478 L-901738 234477 L-901702 234474 L-901547 234473 L-901222 234472 L-900655 234471 L-900641 234470 L-900579 234468 L-900477 234466 L-900431 234466 L-900189 234465 L-899766 234465 L-899612 234465 L-897870 234463 L-897328 234462 L-896385 234461 L-895976 234460 L-895435 234458 L-895238 234456 L-895070 234455 L-894774 234454 L-894659 234453 L-894644 234453 L-894489 234452 L-894349 234451 L-894273 234449 L-894141 234449 L-893793 234449 L-893422 234450 L-892824 234450 L-892648 234450 L-892492 234449 L-892223 234448 L-892072 234448 L-891781 234451 L-891757 234453 L-891674 234455 L-891446 234458 L-890747 234456 L-890620 234455 L-890189 234454 L-890095 234453 L-888890 234453 L-888841 234452 L-888548 234452 L-888144 234451 L-887868 234449 L-887849 234448 L-887731 234447 L-887655 234446 L-887473 234445 L-886993 234444 L-886542 234442 L-886132 234441 L-886101 234440 L-885683 234438 L-885569 234438 L-885451 234438 L-885436 234438 L-885241 234437 L-885220 234435 L-884988 234434 L-884544 234433 L-884225 234431 L-883760 234431 L-883595 234430 L-883440 234429 L-883284 234429 L-882831 234429 L-882512 234429 L-882457 234430 L-882086 234430 L-882048 234431 L-881721 234431 L-881605 234430 L-881506 234429 L-881180 234427 L-880793 234426 L-880532 234425 L-880174 234423 L-879917 234421 L-877747 234420 L-877698 234419 L-877675 234418 L-877264 234418 L-877202 234418 L-877132 234419 L-876901 234419 L-876590 234418 L-876287 234416 L-876243 234415 L-875935 234414 L-875802 234413 L-875585 234412 L-874873 234411 L-874718 234411 L-874580 234410 L-874431 234410 L-874410 234410 L-874216 234409 L-874190 234408 L-874099 234407 L-874077 234406 L-874061 234405 L-873961 234403 L-873032 234402 L-872574 234402 L-871482 234400 L-871060 234400 L-870656 234399 L-870617 234398 L-870364 234397 L-869589 234395 L-869573 234394 L-869548 234393 L-869355 234392 L-868619 234391 L-868350 234390 L-868309 234389 L-867910 234386 L-867885 234385 L-867096 234384 L-866416 234383 L-865045 234382 L-864775 234381 L-864726 234380 L-864189 234378 L-864156 234377 L-864054 234375 L-863731 234374 L-863651 234373 L-863382 234373 L-862470 234372 L-862331 234372 L-862082 234370 L-861537 234370 L-861114 234368 L-860921 234367 L-860906 234367 L-860768 234365 L-860674 234364 L-860547 234363 L-860287 234362 L-860262 234360 L-860171 234359 L-859861 234358 L-859800 234357 L-859683 234357 L-859334 234357 L-858523 234357 L-858292 234355 L-857463 234355 L-857231 234353 L-857014 234352 L-856495 234352 L-855857 234350 L-855441 234349 L-855119 234348 L-854638 234347 L-854213 234347 L-854151 234346 L-853803 234346 L-853762 234345 L-853748 234344 L-853649 234342 L-853604 234342 L-853118 234341 L-852317 234341 L-851982 234341 L-850901 234340 L-850421 234339 L-850398 234338 L-850258 234337 L-849703 234336 L-849006 234335 L-848697 234333 L-848475 234332 L-848370 234331 L-848268 234329 L-847597 234328 L-847503 234327 L-847480 234327 L-847403 234326 L-847225 234326 L-847053 234326 L-846872 234325 L-846859 234324 L-846783 234323 L-846618 234322 L-846104 234321 L-846088 234320 L-845947 234320 L-845585 234319 L-845561 234319 L-845430 234318 L-845405 234317 L-845043 234315 L-844518 234313 L-844424 234312 L-844208 234310 L-844115 234309 L-844090 234308 L-843626 234307 L-843549 234307 L-843147 234306 L-842696 234306 L-841445 234305 L-841406 234304 L-840974 234303 L-840942 234302 L-840223 234301 L-840046 234300 L-839911 234299 L-839604 234297 L-839549 234296 L-839524 234294 L-839508 234292 L-839333 234291 L-839144 234290 L-838636 234290 L-838262 234282 L-837924 234272 L-837885 234264 L-837166 234256 L-837073 234255 L-837034 234254 L-836493 234254 L-836469 234253 L-836067 234252 L-835641 234251 L-835370 234251 L-835191 234250 L-834945 234248 L-834921 234247 L-834865 234244 L-834248 234243 L-833745 234242 L-833358 234242 L-832739 234243 L-832523 234243 L-832368 234244 L-831076 234242 L-830976 234241 L-830534 234239 L-830203 234238 L-829902 234236 L-829660 234235 L-828925 234233 L-828346 234232 L-827516 234231 L-827416 234230 L-826858 234229 L-826720 234227 L-825079 234226 L-825018 234226 L-824924 234226 L-823957 234226 L-823779 234225 L-823492 234225 L-823275 234225 L-823196 234224 L-822925 234224 L-822810 234223 L-822657 234222 L-822346 234221 L-822268 234220 L-822177 234220 L-822100 234219 L-821984 234219 L-821804 234218 L-821712 234217 L-821674 234216 L-821171 234216 L-820953 234215 L-820823 234215 L-820668 234214 L-820613 234213 L-820489 234213 L-820104 234212 L-819595 234211 L-819523 234209 L-819043 234208 L-818966 234207 L-818865 234207 L-818632 234206 L-818167 234206 L-817937 234206 L-817921 234206 L-817689 234206 L-817534 234206 L-817473 234206 L-817280 234205 L-817009 234203 L-816257 234202 L-815304 234202 L-815268 234201 L-815043 234201 L-814603 234201 L-814323 234199 L-813974 234198 L-812905 234197 L-811977 234197 L-811846 234197 L-811800 234197 L-811731 234196 L-811576 234196 L-811498 234194 L-811325 234191 L-810890 234189 L-810686 234188 L-810626 234186 L-810043 234185 L-809889 234183 L-809774 234182 L-809733 234181 L-809563 234180 L-809426 234179 L-809216 234177 L-809138 234176 L-809115 234174 L-808906 234172 L-808496 234171 L-808472 234170 L-808248 234169 L-808103 234168 L-808068 234167 L-808055 234166 L-808033 234165 L-807799 234164 L-807614 234163 L-807396 234162 L-807371 234161 L-806682 234160 L-806578 234159 L-806543 234158 L-806522 234156 L-806328 234155 L-806275 234154 L-806158 234152 L-806076 234152 L-805965 234151 L-805651 234150 L-805192 234149 L-804936 234148 L-804702 234146 L-804572 234145 L-804220 234144 L-804161 234143 L-804008 234142 L-803436 234140 L-803349 234138 L-803196 234136 L-802900 234134 L-802530 234132 L-802227 234130 L-802150 234129 L-801746 234128 L-801578 234128 L-801434 234128 L-800893 234128 L-800833 234128 L-800817 234126 L-800651 234125 L-800445 234124 L-800370 234124 L-800277 234123 L-799868 234121 L-799852 234120 L-799828 234120 L-799635 234119 L-799559 234129 L-799388 234138 L-799326 234147 L-799310 234156 L-798796 234155 L-798575 234154 L-797956 234152 L-797702 234151 L-797508 234150 L-797469 234149 L-797395 234149 L-797330 234149 L-796680 234149 L-796641 234150 L-796467 234150 L-796401 234150 L-795727 234150 L-795338 234148 L-795076 234147 L-794838 234146 L-794761 234144 L-794745 234142 L-794543 234141 L-794172 234138 L-793947 234137 L-793311 234136 L-793291 234136 L-792904 234135 L-792810 234135 L-792752 234134 L-792476 234133 L-792167 234133 L-792090 234132 L-791238 234133 L-790896 234138 L-790459 234145 L-790025 234150 L-789530 234155 L-789380 234154 L-789112 234155 L-787874 234156 L-787817 234159 L-786053 234160 L-785863 234159 L-784853 234158 L-784702 234156 L-784326 234159 L-784006 234161 L-783400 234163 L-783331 234165 L-783153 234164 L-782325 234163 L-782186 234162 L-781799 234161 L-781615 234160 L-781571 234159 L-781451 234158 L-781241 234156 L-780794 234154 L-780446 234153 L-780314 234152 L-779905 234151 L-779554 234151 L-779269 234150 L-779076 234149 L-778921 234149 L-778757 234148 L-778689 234147 L-778589 234147 L-778356 234146 L-778239 234146 L-778186 234145 L-777644 234145 L-777180 234144 L-775998 234144 L-775864 234144 L-775840 234144 L-775787 234144 L-775119 234144 L-774085 234142 L-773891 234141 L-773711 234140 L-773560 234140 L-773519 234138 L-773504 234138 L-773443 234137 L-773117 234136 L-771957 234135 L-771763 234134 L-771586 234133 L-770472 234132 L-769612 234131 L-769506 234131 L-769032 234130 L-768840 234130 L-766518 234129 L-766441 234128 L-766319 234126 L-766285 234125 L-766248 234123 L-766153 234119 L-765937 234117 L-765356 234115 L-764970 234114 L-764197 234113 L-764119 234112 L-763422 234112 L-762880 234112 L-762839 234111 L-762709 234111 L-762245 234110 L-762207 234109 L-762072 234108 L-761704 234107 L-761674 234106 L-761524 234106 L-761123 234105 L-759299 234106 L-758492 234105 L-757774 234105 L-757757 234105 L-757443 234102 L-756882 234101 L-756380 234100 L-755862 234099 L-755840 234098 L-754096 234097 L-753927 234096 L-753731 234095 L-752838 234094 L-752319 234092 L-752109 234091 L-751851 234090 L-751141 234089 L-750191 234088 L-749533 234087 L-749493 234084 L-749207 234083 L-749124 234082 L-749029 234082 L-748897 234081 L-748820 234081 L-748085 234081 L-747748 234080 L-747698 234081 L-747443 234081 L-747156 234080 L-746731 234080 L-746150 234079 L-745891 234079 L-745740 234078 L-745492 234078 L-745454 234078 L-744657 234077 L-744619 234076 L-744442 234076 L-744033 234074 L-743804 234074 L-743728 234074 L-743597 234074 L-743481 234073 L-743132 234072 L-743069 234071 L-742917 234070 L-742176 234068 L-742064 234067 L-741894 234066 L-741855 234065 L-741561 234065 L-741159 234065 L-740983 234065 L-740888 234065 L-740579 234064 L-739777 234063 L-739319 234061 L-738799 234060 L-738310 234059 L-737615 234058 L-736568 234057 L-736300 234057 L-736245 234056 L-736085 234056 L-735834 234056 L-735588 234055 L-735509 234054 L-735294 234052 L-734982 234050 L-734519 234048 L-734504 234047 L-734208 234047 L-734195 234046 L-733204 234045 L-732531 234044 L-732196 234042 L-731580 234042 L-731443 234041 L-730804 234040 L-730674 234039 L-729723 234037 L-729624 234035 L-729064 234034 L-728656 234034 L-728227 234034 L-728136 234032 L-727301 234032 L-726938 234032 L-726898 234034 L-726766 234035 L-726589 234035 L-726373 234035 L-726319 234034 L-726162 234031 L-725909 234030 L-724809 234029 L-724732 234028 L-724512 234027 L-724381 234025 L-724345 234024 L-724152 234023 L-724052 234022 L-723568 234021 L-723284 234020 L-723124 234019 L-723029 234017 L-722758 234015 L-722488 234014 L-722472 234010 L-722333 234007 L-722195 234004 L-721868 234000 L-721559 233997 L-721518 233996 L-721442 233994 L-721327 233993 L-720477 233991 L-720150 233990 L-719819 233989 L-719686 233989 L-719470 233989 L-719454 233989 L-718773 233989 L-718680 233987 L-718657 233986 L-718641 233984 L-718602 233983 L-718191 233981 L-717921 233979 L-717881 233978 L-717513 233978 L-717303 233977 L-716220 233977 L-716204 233976 L-716175 233975 L-716155 233975 L-715778 233973 L-715523 233972 L-715275 233970 L-715136 233968 L-715004 233967 L-714672 233966 L-714579 233965 L-714518 233964 L-713960 233962 L-713899 233961 L-713743 233960 L-713549 233959 L-713356 233958 L-713341 233957 L-713302 233956 L-713263 233955 L-712992 233954 L-712869 233953 L-712837 233952 L-712737 233952 L-712582 233952 L-712441 233952 L-712157 233951 L-711831 233951 L-711135 233950 L-711113 233950 L-710603 233950 L-709757 233950 L-709394 233949 L-709239 233948 L-708636 233948 L-708466 233948 L-708405 233948 L-708350 233947 L-707294 233946 L-707276 233946 L-706370 233946 L-706348 233946 L-706181 233944 L-705939 233944 L-705889 233943 L-705834 233941 L-705697 233940 L-705657 233939 L-704729 233938 L-704674 233938 L-704552 233938 L-704480 233938 L-704364 233938 L-704186 233939 L-703204 233938 L-703064 233938 L-702946 233936 L-702652 233934 L-702405 233933 L-702368 233932 L-702313 233933 L-702292 233933 L-702159 233933 L-702080 233933 L-701942 233932 L-701319 233932 L-701153 233931 L-700688 233931 L-700512 233929 L-700495 233928 L-700435 233926 L-700319 233925 L-699836 233924 L-699140 233923 L-698768 233922 L-698598 233921 L-697632 233920 L-697477 233919 L-697299 233919 L-697207 233918 L-696952 233918 L-696781 233918 L-696134 233917 L-696123 233917 L-695543 233916 L-695405 233916 L-695350 233914 L-694614 233913 L-694576 233912 L-694498 233912 L-693856 233911 L-693082 233911 L-692989 233909 L-692941 233909 L-692925 233908 L-692889 233908 L-692873 233906 L-692810 233905 L-692794 233904 L-692774 233904 L-692619 233903 L-692580 233902 L-692564 233901 L-692525 233900 L-692385 233899 L-692309 233898 L-691945 233897 L-691597 233896 L-690823 233895 L-690221 233894 L-690024 233893 L-689794 233893 L-689656 233891 L-689018 233891 L-688729 233890 L-688707 233890 L-688247 233889 L-688014 233889 L-687960 233888 L-687921 233887 L-687418 233886 L-686868 233885 L-686080 233884 L-684957 233884 L-684063 233883 L-683975 233883 L-683675 233882 L-683604 233881 L-683488 233880 L-682311 233879 L-681963 233878 L-681940 233877 L-681421 233876 L-681274 233875 L-681166 233873 L-680957 233872 L-680802 233871 L-680779 233870 L-680586 233869 L-680509 233868 L-680365 233867 L-679564 233866 L-679418 233865 L-679138 233864 L-678961 233863 L-678651 233862 L-677840 233861 L-676911 233861 L-675319 233860 L-675076 233859 L-674435 233858 L-674239 233856 L-674162 233855 L-673644 233854 L-673412 233854 L-673389 233853 L-673257 233853 L-672918 233852 L-672907 233851 L-672691 233850 L-672654 233849 L-672112 233848 L-671583 233846 L-671516 233845 L-671222 233844 L-670675 233842 L-670639 233841 L-670587 233840 L-670487 233837 L-670255 233837 L-669675 233837 L-669577 233838 L-669503 233838 L-669171 233837 L-668421 233836 L-668382 233835 L-667702 233835 L-667548 233835 L-667221 233834 L-667006 233833 L-666774 233833 L-666478 233832 L-666231 233831 L-665880 233830 L-665827 233829 L-665068 233828 L-664374 233826 L-664024 233824 L-663560 233823 L-662927 233821 L-662518 233820 L-662440 233821 L-662014 233821 L-661371 233820 L-661202 233820 L-660460 233819 L-660273 233818 L-659978 233817 L-659406 233816 L-659380 233815 L-658361 233815 L-657874 233814 L-657781 233814 L-657720 233813 L-657432 233812 L-657146 233811 L-657084 233810 L-656905 233810 L-656193 233809 L-656018 233808 L-655819 233807 L-655667 233806 L-655576 233805 L-655514 233803 L-654972 233803 L-654662 233802 L-654570 233800 L-654492 233798 L-653925 233797 L-653834 233797 L-653580 233795 L-653253 233793 L-653216 233790 L-653061 233787 L-652829 233785 L-652507 233784 L-651374 233783 L-651175 233782 L-650649 233781 L-650405 233781 L-650159 233780 L-650079 233779 L-650059 233777 L-649982 233776 L-649927 233774 L-649850 233773 L-649811 233772 L-649632 233770 L-649595 233768 L-649363 233767 L-648125 233766 L-647799 233765 L-647759 233763 L-646977 233762 L-646831 233761 L-645839 233760 L-645632 233760 L-645207 233760 L-645079 233760 L-644675 233761 L-644587 233760 L-643930 233759 L-643223 233758 L-642614 233757 L-642421 233756 L-642188 233754 L-641570 233753 L-641274 233750 L-640834 233749 L-640680 233748 L-640525 233747 L-639769 233745 L-639419 233744 L-639016 233744 L-638978 233743 L-637972 233743 L-637652 233743 L-637405 233742 L-636705 233740 L-636632 233739 L-636319 233738 L-635239 233737 L-635048 233736 L-634814 233736 L-634619 233735 L-634119 233734 L-633365 233734 L-633251 233734 L-633051 233734 L-633010 233732 L-632917 233731 L-632604 233730 L-632516 233729 L-632400 233728 L-632082 233728 L-632013 233727 L-631988 233726 L-631626 233725 L-631588 233724 L-631371 233723 L-630868 233724 L-630266 233725 L-630054 233727 L-629901 233728 L-629863 233728 L-629819 233726 L-629785 233725 L-629652 233724 L-629242 233723 L-628872 233722 L-628818 233721 L-628802 233720 L-628723 233719 L-628314 233718 L-628160 233717 L-628144 233714 L-628105 233713 L-627926 233711 L-627850 233710 L-627619 233709 L-626829 233708 L-626751 233708 L-626016 233706 L-625861 233705 L-625621 233703 L-625559 233701 L-625474 233700 L-625451 233697 L-625333 233695 L-625319 233693 L-625257 233691 L-625220 233690 L-625126 233689 L-625104 233689 L-624987 233688 L-624755 233687 L-624584 233685 L-623764 233685 L-623363 233684 L-623208 233684 L-622703 233684 L-622589 233684 L-621993 233684 L-621618 233683 L-621566 233683 L-621373 233682 L-620676 233682 L-620638 233681 L-620493 233681 L-620268 233679 L-620006 233678 L-619632 233677 L-619206 233676 L-619077 233675 L-619057 233673 L-618564 233673 L-617867 233672 L-617636 233673 L-617482 233673 L-616514 233673 L-616289 233674 L-616011 233674 L-615995 233673 L-615469 233672 L-614940 233671 L-614792 233670 L-614773 233669 L-614231 233668 L-613921 233667 L-613804 233665 L-613612 233662 L-613475 233660 L-613148 233659 L-613032 233658 L-612722 233658 L-612296 233657 L-612240 233657 L-612007 233658 L-611911 233658 L-611778 233658 L-611482 233658 L-611368 233657 L-611003 233656 L-610690 233656 L-610207 233655 L-610037 233654 L-609789 233653 L-609573 233652 L-609047 233651 L-608861 233649 L-608505 233648 L-607870 233647 L-607715 233644 L-606975 233643 L-606555 233642 L-606375 233641 L-606299 233641 L-606168 233640 L-605874 233639 L-605833 233638 L-605603 233638 L-605411 233637 L-605156 233637 L-604729 233636 L-604620 233635 L-604001 233635 L-603820 233635 L-602608 233635 L-601961 233636 L-601810 233636 L-601773 233636 L-601641 233636 L-601540 233635 L-601524 233634 L-601442 233633 L-601231 233632 L-601114 233631 L-600751 233630 L-600380 233629 L-599683 233628 L-599281 233626 L-599176 233625 L-599158 233624 L-598213 233623 L-598018 233621 L-597866 233620 L-597810 233618 L-597054 233618 L-597037 233620 L-596548 233621 L-596418 233623 L-596225 233623 L-595335 233622 L-595295 233621 L-595257 233620 L-595180 233619 L-595141 233619 L-595064 233618 L-594980 233617 L-594716 233616 L-594484 233615 L-594422 233614 L-593941 233613 L-593605 233613 L-593493 233612 L-593300 233611 L-593123 233609 L-593064 233609 L-593028 233608 L-592758 233607 L-592060 233605 L-592007 233603 L-591713 233601 L-591311 233599 L-590747 233598 L-589874 233597 L-589569 233596 L-589531 233595 L-589408 233594 L-588810 233593 L-588680 233591 L-588480 233590 L-588443 233589 L-587829 233588 L-587650 233587 L-587635 233585 L-587417 233584 L-587339 233582 L-587032 233582 L-586900 233581 L-586668 233581 L-586334 233581 L-586242 233580 L-586141 233579 L-586104 233578 L-585561 233578 L-585368 233577 L-584827 233576 L-584401 233575 L-584269 233575 L-584208 233575 L-583976 233575 L-583960 233575 L-583472 233576 L-583391 233576 L-583374 233576 L-581981 233577 L-581845 233577 L-581731 233576 L-581097 233575 L-580957 233573 L-580839 233572 L-580686 233570 L-580649 233569 L-580570 233568 L-580516 233569 L-579524 233569 L-579488 233568 L-579355 233568 L-579294 233566 L-579195 233565 L-578905 233564 L-578891 233563 L-578581 233563 L-578481 233564 L-578016 233563 L-577963 233675 L-577820 233787 L-577692 233899 L-577460 234011 L-576891 234010 L-576802 234009 L-576780 234009 L-576493 234008 L-575810 234007 L-575733 234006 L-575696 234005 L-575680 234004 L-575481 234003 L-575060 234001 L-574789 234001 L-573916 234000 L-573623 234000 L-573512 234000 L-572778 233999 L-572651 233997 L-572292 233996 L-572039 233996 L-571168 233995 L-570998 233995 L-570937 233994 L-570882 233993 L-570534 233992 L-570511 233991 L-570302 233990 L-570162 233989 L-570031 233988 L-569908 233987 L-569785 233986 L-569548 233985 L-569257 233984 L-568598 233983 L-568576 233982 L-568422 233981 L-568304 233979 L-567340 233978 L-567284 233977 L-567051 233976 L-567029 233975 L-566703 233974 L-566588 233974 L-566548 233973 L-566046 233973 L-565747 233972 L-565635 233971 L-565093 233970 L-564034 233969 L-563408 233968 L-563236 233967 L-562989 233966 L-562732 233965 L-562602 233964 L-562580 233962 L-561913 233961 L-561016 233960 L-560970 233959 L-560900 233958 L-560784 233958 L-560564 233957 L-560373 233957 L-560334 233956 L-560141 233955 L-559482 233955 L-558865 233954 L-558826 233960 L-558230 233967 L-558168 233972 L-557046 233977 L-556992 233977 L-556871 233976 L-556605 233975 L-556542 233975 L-556272 233975 L-556196 233974 L-555980 233974 L-555498 233973 L-555228 233972 L-555096 233972 L-554864 233970 L-554839 233967 L-554824 233962 L-554802 233957 L-554786 233952 L-554762 233947 L-554748 233940 L-554725 233934 L-554709 233928 L-554686 233922 L-554671 233917 L-554649 233912 L-554632 233908 L-554604 233905 L-554587 233901 L-554569 233899 L-554532 233896 L-554492 233894 L-554477 233891 L-554452 233888 L-554400 233886 L-554375 233884 L-554299 233882 L-554261 233881 L-554246 233879 L-554182 233877 L-554168 233875 L-554122 233871 L-554051 233869 L-554013 233868 L-553988 233866 L-553936 233864 L-553911 233863 L-553895 233862 L-553834 233861 L-553797 233860 L-553720 233859 L-553704 233858 L-553676 233855 L-553603 233854 L-553564 233853 L-553410 233851 L-553294 233850 L-553239 233849 L-553157 233848 L-553124 233847 L-553100 233846 L-552945 233845 L-552930 233844 L-552829 233843 L-552518 233842 L-552482 233841 L-552266 233840 L-552155 233840 L-552131 233840 L-551901 233841 L-551668 233841 L-551293 233840 L-551166 233838 L-551126 233837 L-551073 233836 L-550972 233835 L-550935 233834 L-550725 233834 L-550660 233833 L-550548 233833 L-550336 233832 L-550299 233831 L-549927 233830 L-549873 233829 L-549795 233828 L-549773 233827 L-549680 233826 L-549480 233825 L-549442 233825 L-549421 233825 L-549191 233825 L-549170 233824 L-548960 233824 L-548866 233823 L-548828 233821 L-548492 233820 L-548379 233819 L-548339 233818 L-548326 233818 L-548186 233817 L-548171 233817 L-547916 233817 L-547334 233816 L-547257 233815 L-547220 233814 L-547175 233813 L-547126 233812 L-546947 233811 L-546932 233810 L-546832 233809 L-546755 233808 L-546694 233807 L-546329 233805 L-546246 233803 L-546229 233802 L-546175 233801 L-545207 233800 L-545075 233799 L-545054 233798 L-544833 233797 L-544765 233796 L-544742 233795 L-544496 233794 L-544240 233793 L-544109 233792 L-544069 233791 L-544048 233789 L-543992 233787 L-543904 233785 L-543843 233783 L-543618 233782 L-543489 233781 L-543389 233780 L-543335 233779 L-543141 233778 L-543063 233777 L-542730 233776 L-542599 233775 L-542422 233774 L-542406 233773 L-542381 233772 L-542111 233772 L-540911 233771 L-540874 233771 L-540757 233770 L-540524 233768 L-540333 233767 L-540294 233767 L-540239 233766 L-540134 233766 L-539620 233765 L-539326 233764 L-539094 233763 L-538819 233762 L-538802 233761 L-538769 233760 L-538729 233759 L-538692 233758 L-538590 233757 L-538513 233756 L-538420 233755 L-538293 233754 L-538189 233753 L-538011 233753 L-537818 233752 L-536989 233752 L-536873 233750 L-536619 233749 L-536578 233748 L-536479 233747 L-536419 233747 L-536177 233746 L-536153 233746 L-536032 233745 L-535961 233744 L-535921 233743 L-535689 233742 L-535513 233741 L-534993 233740 L-534916 233739 L-534900 233738 L-534489 233738 L-534126 233738 L-534010 233737 L-533987 233737 L-533947 233736 L-533871 233735 L-533817 233734 L-533468 233732 L-533352 233731 L-533175 233731 L-533120 233730 L-533096 233730 L-532982 233729 L-532694 233728 L-532462 233727 L-532247 233726 L-532037 233725 L-531827 233723 L-531000 233722 L-530661 233721 L-529653 233720 L-529290 233719 L-528245 233718 L-528167 233717 L-527720 233715 L-527509 233714 L-527317 233713 L-527022 233712 L-526981 233711 L-526828 233710 L-526775 233708 L-526543 233707 L-525963 233706 L-525769 233705 L-525150 233705 L-524661 233704 L-524609 233703 L-523960 233702 L-523810 233701 L-523641 233700 L-523267 233699 L-523252 233699 L-523153 233697 L-523114 233697 L-522983 233696 L-522550 233696 L-522247 233696 L-521861 233696 L-521721 233695 L-521560 233695 L-521126 233695 L-521087 233694 L-520986 233694 L-520871 233693 L-520693 233693 L-520523 233692 L-520405 233691 L-520043 233689 L-519826 233688 L-519693 233687 L-519553 233687 L-519054 233687 L-518976 233687 L-518742 233686 L-518418 233686 L-518031 233685 L-518008 233684 L-517388 233684 L-517118 233683 L-516885 233683 L-516460 233682 L-516189 233681 L-516047 233679 L-515838 233678 L-515632 233677 L-515081 233676 L-514950 233676 L-514564 233675 L-514293 233675 L-514190 233674 L-513930 233673 L-513728 233672 L-513659 233671 L-513620 233670 L-513053 233669 L-512846 233668 L-512819 233667 L-512590 233666 L-512513 233665 L-511996 233664 L-511957 233662 L-511802 233661 L-511508 233660 L-511236 233659 L-510873 233658 L-510525 233658 L-510152 233657 L-510032 233657 L-509960 233656 L-509481 233655 L-509418 233654 L-509083 233653 L-508952 233652 L-508874 233651 L-508745 233650 L-508281 233650 L-507987 233649 L-507911 233649 L-507599 233648 L-507291 233647 L-507228 233646 L-507198 233644 L-506423 233643 L-506318 233641 L-506231 233640 L-506208 233639 L-506053 233638 L-505832 233637 L-505665 233636 L-505278 233635 L-505223 233634 L-505160 233634 L-504542 233633 L-504426 233632 L-504102 233631 L-503577 233630 L-503226 233629 L-503150 233628 L-502531 233626 L-502120 233625 L-501819 233624 L-501508 233623 L-501370 233622 L-500746 233622 L-500365 233621 L-499241 233621 L-498181 233620 L-498118 233619 L-497757 233618 L-497656 233618 L-497640 233617 L-497266 233617 L-496261 233615 L-495874 233614 L-495667 233612 L-495578 233611 L-495203 233609 L-494910 233608 L-494599 233607 L-493810 233606 L-493722 233605 L-493670 233604 L-493631 233603 L-493113 233602 L-492998 233601 L-492789 233600 L-492650 233599 L-492046 233598 L-491217 233597 L-490934 233596 L-490752 233596 L-490251 233595 L-490046 233595 L-489491 233595 L-488986 233594 L-488795 233593 L-488757 233591 L-488128 233590 L-487674 233589 L-487260 233588 L-486651 233587 L-485531 233587 L-485118 233586 L-484793 233586 L-484579 233585 L-484152 233584 L-484012 233583 L-483920 233582 L-483689 233581 L-483102 233581 L-482295 233580 L-481095 233580 L-480981 233580 L-480849 233579 L-480762 233578 L-480720 233579 L-480699 233580 L-480688 233582 L-480594 233584 L-479830 233584 L-479124 233584 L-479084 233583 L-478798 233582 L-478257 233581 L-478196 233580 L-478156 233579 L-478141 233578 L-477884 233577 L-477561 233576 L-477421 233575 L-477151 233573 L-477112 233572 L-477004 233571 L-476602 233570 L-476493 233569 L-476416 233568 L-476119 233567 L-476076 233566 L-475857 233566 L-475674 233566 L-475563 233566 L-475549 233565 L-475523 233565 L-475099 233564 L-474852 233563 L-474516 233562 L-474482 233561 L-474347 233560 L-474093 233560 L-473939 233559 L-473033 233559 L-472934 233558 L-472738 233555 L-471731 233554 L-471231 233553 L-471152 233552 L-471114 233551 L-470906 233550 L-470787 233549 L-470689 233548 L-470503 233547 L-470338 233546 L-470102 233545 L-469683 233544 L-469667 233543 L-469358 233542 L-468312 233541 L-468095 233540 L-468079 233538 L-468057 233537 L-467849 233536 L-467690 233535 L-467631 233534 L-466186 233533 L-465860 233533 L-465658 233533 L-465459 233533 L-465309 233533 L-465039 233532 L-464598 233531 L-464380 233531 L-463685 233530 L-463183 233529 L-462858 233528 L-462587 233528 L-461867 233527 L-461712 233527 L-460513 233525 L-460124 233524 L-460008 233522 L-459855 233520 L-459701 233519 L-458731 233518 L-458679 233517 L-458432 233516 L-458409 233515 L-458190 233514 L-457751 233512 L-457612 233510 L-457504 233508 L-457302 233507 L-457185 233506 L-457082 233505 L-457068 233505 L-456935 233503 L-456682 233502 L-456064 233501 L-455404 233500 L-455158 233500 L-454966 233499 L-454206 233499 L-454167 233499 L-454089 233498 L-454037 233496 L-453997 233495 L-453960 233494 L-453921 233493 L-453829 233492 L-453785 233491 L-453726 233489 L-453702 233488 L-453588 233487 L-453278 233484 L-453223 233483 L-453201 233482 L-452859 233481 L-452694 233480 L-452658 233478 L-452618 233477 L-452603 233476 L-452372 233475 L-452231 233474 L-452063 233473 L-451614 233473 L-451380 233473 L-451287 233473 L-451268 233474 L-450787 233473 L-450709 233473 L-450582 233472 L-450452 233470 L-450074 233469 L-449833 233466 L-449795 233465 L-449741 233464 L-449603 233462 L-449563 233461 L-449523 233460 L-449293 233459 L-449253 233458 L-449123 233457 L-448944 233456 L-448903 233455 L-448889 233454 L-448725 233453 L-448710 233452 L-448558 233450 L-448543 233449 L-448516 233448 L-448482 233447 L-448260 233445 L-448038 233445 L-447783 233444 L-447651 233445 L-447009 233445 L-446402 233444 L-445382 233444 L-445189 233443 L-445138 233442 L-445013 233441 L-444689 233440 L-443916 233439 L-443858 233438 L-443744 233437 L-443332 233436 L-443007 233435 L-442870 233434 L-442645 233432 L-442119 233431 L-441718 233431 L-441687 233430 L-441400 233430 L-441115 233429 L-440727 233428 L-440510 233427 L-440083 233425 L-439902 233424 L-439565 233423 L-439459 233422 L-439272 233422 L-439155 233421 L-439141 233421 L-438420 233420 L-438250 233419 L-438002 233418 L-437902 233417 L-437260 233416 L-436972 233414 L-436781 233413 L-436506 233412 L-436189 233411 L-435904 233410 L-435790 233408 L-435745 233407 L-435543 233406 L-433934 233405 L-433722 233404 L-433041 233403 L-432959 233402 L-432731 233401 L-432540 233401 L-432401 233400 L-432383 233400 L-432189 233400 L-431960 233400 L-431767 233400 L-430683 233399 L-430487 233399 L-430435 233399 L-430281 233399 L-430173 233399 L-430007 233399 L-429854 233397 L-429739 233396 L-429615 233394 L-429198 233393 L-428941 233391 L-428849 233390 L-428656 233390 L-428594 233389 L-428268 233389 L-428207 233389 L-428150 233388 L-427881 233387 L-427533 233386 L-427355 233385 L-427160 233384 L-427124 233385 L-426412 233385 L-426372 233387 L-426063 233388 L-425765 233389 L-425715 233390 L-425460 233391 L-425189 233392 L-425134 233392 L-424042 233392 L-424012 233391 L-423972 233391 L-423795 233391 L-423603 233390 L-422745 233390 L-421691 233389 L-421630 233388 L-421282 233387 L-420469 233387 L-419655 233387 L-419640 233387 L-419265 233387 L-419097 233387 L-418828 233387 L-418500 233386 L-418379 233385 L-418322 233385 L-418286 233384 L-418209 233384 L-417992 233383 L-417934 233382 L-417618 233381 L-417450 233379 L-417087 233379 L-416893 233379 L-416870 233379 L-416792 233378 L-416311 233378 L-416174 233378 L-415760 233377 L-415461 233377 L-415362 233376 L-415346 233375 L-415318 233374 L-414959 233373 L-414608 233372 L-414471 233371 L-414434 233371 L-413617 233370 L-413411 233369 L-413387 233368 L-413231 233368 L-413141 233367 L-412900 233367 L-412575 233366 L-412483 233366 L-412287 233365 L-412001 233365 L-411245 233364 L-411116 233363 L-411042 233361 L-410429 233360 L-410254 233359 L-410143 233358 L-410044 233357 L-409965 233356 L-409828 233355 L-409673 233355 L-409594 233355 L-409403 233355 L-408730 233355 L-408692 233354 L-408589 233353 L-407645 233352 L-407624 233351 L-407273 233350 L-406808 233349 L-406772 233348 L-406343 233347 L-406292 233347 L-405880 233346 L-405864 233346 L-405767 233346 L-405712 233346 L-405674 233346 L-405379 233344 L-403640 233343 L-402130 233342 L-401622 233341 L-401125 233340 L-400991 233339 L-400900 233338 L-400772 233337 L-400693 233335 L-400388 233334 L-400117 233333 L-399883 233333 L-398685 233332 L-398580 233332 L-398514 233331 L-397672 233330 L-397486 233329 L-396575 233328 L-395706 233325 L-395419 233324 L-395326 233322 L-394777 233321 L-394257 233320 L-393189 233319 L-392920 233318 L-392766 233318 L-392674 233318 L-392543 233319 L-392496 233320 L-392336 233320 L-391471 233320 L-391136 233320 L-390753 233319 L-390000 233318 L-389941 233317 L-389551 233317 L-389230 233317 L-389072 233316 L-388340 233316 L-388278 233316 L-387990 233316 L-387617 233316 L-387435 233316 L-387180 233315 L-386918 233313 L-386766 233312 L-386362 233311 L-385065 233309 L-384950 233308 L-384486 233307 L-383154 233306 L-382729 233305 L-382705 233304 L-382572 233303 L-382397 233302 L-382264 233302 L-381934 233301 L-381546 233300 L-381507 233299 L-381490 233297 L-381100 233296 L-380808 233295 L-380539 233295 L-380366 233295 L-378873 233295 L-378822 233294 L-378744 233295 L-377504 233296 L-377429 233296 L-377402 233298 L-377156 233297 L-376999 233297 L-376940 233296 L-376053 233296 L-375824 233295 L-375300 233295 L-375159 233296 L-375084 233296 L-374387 233297 L-374139 233297 L-373459 233296 L-373441 233296 L-373188 233295 L-372820 233295 L-372684 233294 L-372062 233291 L-371719 233290 L-371671 233289 L-371184 233288 L-370850 233286 L-370634 233286 L-370499 233285 L-370178 233284 L-370114 233284 L-369862 233283 L-369572 233282 L-369263 233281 L-369123 233280 L-368584 233279 L-368308 233278 L-367578 233277 L-367524 233277 L-367417 233277 L-367151 233277 L-366727 233277 L-366463 233276 L-366243 233275 L-366223 233273 L-365991 233272 L-365704 233271 L-365681 233271 L-365667 233270 L-365294 233270 L-365123 233269 L-365047 233267 L-364986 233266 L-364685 233264 L-364444 233262 L-364351 233261 L-364094 233260 L-364041 233259 L-363846 233258 L-363630 233259 L-363206 233259 L-363114 233260 L-362973 233259 L-362108 233258 L-361735 233256 L-361407 233254 L-361255 233253 L-360827 233253 L-360110 233252 L-359915 233252 L-359561 233251 L-359414 233250 L-358907 233248 L-358671 233247 L-357704 233246 L-357694 233245 L-356629 233244 L-356396 233243 L-355995 233242 L-355800 233241 L-355720 233240 L-355624 233238 L-354887 233238 L-354755 233238 L-354365 233238 L-354343 233237 L-354248 233237 L-354113 233236 L-354096 233235 L-354076 233234 L-352391 233233 L-352372 233233 L-352256 233232 L-352171 233232 L-352046 233232 L-352023 233231 L-351738 233230 L-351632 233229 L-351444 233227 L-351173 233226 L-350501 233225 L-350129 233224 L-349277 233224 L-349220 233223 L-349200 233223 L-348967 233223 L-348693 233222 L-348387 233222 L-348347 233219 L-348117 233219 L-347879 233218 L-347266 233217 L-347225 233216 L-347188 233214 L-346666 233213 L-346475 233212 L-346415 233211 L-346372 233210 L-346050 233210 L-346022 233209 L-346007 233209 L-345522 233208 L-345469 233207 L-345330 233206 L-345292 233205 L-345275 233203 L-345181 233202 L-344515 233202 L-343899 233201 L-343630 233201 L-343221 233201 L-343201 233200 L-343185 233200 L-343072 233199 L-342685 233198 L-342218 233198 L-342158 233197 L-342079 233196 L-342064 233195 L-341578 233193 L-341538 233192 L-341393 233192 L-341344 233191 L-341265 233192 L-340633 233191 L-340542 233191 L-340301 233191 L-340184 233190 L-339856 233190 L-339102 233189 L-339085 233189 L-338134 233189 L-337825 233188 L-337400 233187 L-336686 233185 L-336367 233184 L-336353 233183 L-336201 233181 L-335898 233180 L-335820 233179 L-335693 233178 L-335256 233178 L-335196 233178 L-334672 233178 L-334404 233178 L-334267 233177 L-334188 233176 L-334149 233175 L-333338 233175 L-333297 233175 L-332857 233175 L-332779 233175 L-332522 233174 L-332331 233173 L-331702 233172 L-331515 233171 L-331481 233169 L-331325 233167 L-330923 233165 L-330846 233164 L-330665 233163 L-330474 233162 L-329546 233160 L-329395 233159 L-328187 233158 L-327378 233157 L-326974 233156 L-326372 233155 L-326170 233154 L-326101 233153 L-325943 233152 L-325682 233150 L-325308 234100 L-325290 234099 L-325133 234099 L-323935 234099 L-322831 233148 L-321903 233147 L-321790 233146 L-321504 233145 L-321402 233144 L-321378 233144 L-321188 233142 L-321110 233141 L-320914 233141 L-320203 233141 L-320045 233142 L-318988 233142 L-318563 233142 L-318153 233141 L-317867 233139 L-317692 233138 L-317461 233137 L-317207 233136 L-316764 233135 L-316103 233134 L-315927 233132 L-315623 233131 L-315235 233130 L-315216 233129 L-315196 233128 L-315175 233127 L-315041 233126 L-314849 233125 L-313205 233124 L-311908 233123 L-311869 233122 L-311812 233121 L-311710 233120 L-311151 233119 L-310167 233118 L-309625 233116 L-309161 233114 L-308515 233113 L-307966 233112 L-306916 233111 L-305988 233110 L-305640 233109 L-305447 233108 L-304944 233107 L-304499 233107 L-304356 233106 L-304335 233106 L-303764 233106 L-303378 233104 L-302545 233103 L-302196 233102 L-302174 233101 L-301787 233101 L-301364 233100 L-300765 233099 L-300746 233097 L-300241 233097 L-300009 233096 L-299895 233096 L-299276 233094 L-298715 233093 L-298675 233092 L-298115 233091 L-297782 233090 L-297670 233090 L-297631 233089 L-297206 233089 L-297146 233089 L-297071 233088 L-296780 233088 L-296567 233087 L-296084 233085 L-295869 233084 L-294730 233083 L-294670 233082 L-294652 233081 L-294246 233079 L-293608 233078 L-293473 233077 L-293414 233076 L-292872 233075 L-292563 233074 L-292312 233074 L-292236 233073 L-292117 233072 L-291383 233070 L-290938 233069 L-290724 233068 L-289991 233067 L-289816 233066 L-289450 233066 L-289235 233066 L-287997 233066 L-287688 233066 L-287571 233066 L-287319 233065 L-287108 233064 L-286566 233063 L-286334 233061 L-286276 233061 L-286179 233060 L-285850 233060 L-285617 233059 L-283955 233058 L-283604 233057 L-283200 233055 L-283045 233054 L-282252 233053 L-280762 233052 L-280375 233051 L-280337 233050 L-280083 233049 L-279988 233048 L-279795 233047 L-279447 233047 L-278751 233046 L-278499 233046 L-277783 233044 L-276371 233043 L-276139 233042 L-275810 233042 L-274593 233042 L-274242 233043 L-274050 233044 L-273931 233046 L-271497 233046 L-270527 233044 L-269696 233043 L-269387 233042 L-268045 233041 L-267472 233040 L-267356 233039 L-267027 233039 L-266931 233038 L-266524 233038 L-266408 233037 L-266217 233036 L-265461 233035 L-265335 233034 L-265054 233033 L-264551 233032 L-264474 233031 L-262887 233036 L-262830 233041 L-262088 233048 L-261707 233053 L-261378 233052 L-260715 233051 L-260585 233050 L-260546 233050 L-260295 233050 L-260159 233050 L-259967 233049 L-259831 233049 L-259579 233047 L-259367 233047 L-259057 233046 L-258785 233046 L-258283 233046 L-258264 233046 L-257830 233044 L-257604 233043 L-257161 233042 L-257142 233041 L-256639 233040 L-256501 233039 L-256387 233038 L-256155 233037 L-255845 233036 L-255381 233035 L-255304 233034 L-254801 233033 L-254530 233032 L-254192 233031 L-254007 233030 L-253331 233029 L-253312 233029 L-253137 233028 L-253117 233026 L-252499 233025 L-251783 233024 L-251221 233023 L-251027 233023 L-250873 233022 L-250854 233022 L-250331 233020 L-250217 233019 L-249345 233018 L-249324 233017 L-249268 233016 L-248436 233015 L-248126 233014 L-248050 233013 L-247778 233012 L-247715 233012 L-247665 233010 L-247353 233007 L-246736 233005 L-245961 233004 L-245167 233003 L-245128 233002 L-245051 233001 L-244879 233000 L-244001 232999 L-243116 232998 L-243022 232997 L-242902 232996 L-242573 232995 L-242536 232995 L-242304 232994 L-242071 232994 L-241356 232991 L-240853 232990 L-240188 232989 L-240079 232988 L-239925 232987 L-239905 232986 L-239751 232985 L-239335 232984 L-238724 232983 L-238590 232982 L-237681 232981 L-237478 232980 L-236926 232979 L-234276 232978 L-234101 232977 L-234024 232975 L-233152 232973 L-232688 232972 L-232206 232971 L-232167 232969 L-231586 232968 L-231566 232967 L-230465 232966 L-229043 232965 L-228625 232964 L-228318 232963 L-228240 232962 L-228164 232961 L-228007 232960 L-227931 232959 L-227467 232958 L-226229 232957 L-225977 232955 L-225532 232954 L-224910 232953 L-224854 232952 L-224661 232952 L-224196 232951 L-223905 232949 L-223864 232947 L-223828 232945 L-223675 232943 L-223498 232942 L-222359 232940 L-221972 232938 L-221914 232937 L-221740 232936 L-219223 232934 L-218063 232933 L-217426 232932 L-217287 232931 L-217155 232929 L-216768 232928 L-216304 232927 L-216093 232925 L-216028 232924 L-215994 232923 L-215240 232922 L-214658 232920 L-214467 232919 L-213848 232918 L-213802 232917 L-213441 232916 L-213335 232915 L-213150 232914 L-212873 232913 L-211969 232912 L-210965 232911 L-210229 232910 L-209804 232909 L-209643 232908 L-209281 232907 L-209184 232906 L-208740 232905 L-208664 232904 L-208312 232904 L-208063 232901 L-208043 232899 L-207869 232897 L-206921 232894 L-206807 232893 L-206244 232892 L-205794 232891 L-205409 232890 L-204499 232889 L-204443 232888 L-203304 232887 L-202724 232884 L-202549 232883 L-201755 232881 L-201524 232880 L-201137 232879 L-200867 232878 L-200731 232877 L-200615 232876 L-199996 232876 L-199938 232876 L-199723 232876 L-199429 232876 L-198641 232875 L-198500 232875 L-197112 232874 L-196765 232874 L-196378 232873 L-196317 232871 L-196281 232870 L-196224 232869 L-195581 232867 L-194889 232866 L-194637 232866 L-194302 232865 L-194212 232865 L-193692 232864 L-193438 232863 L-193222 232861 L-192839 232860 L-192679 232859 L-192140 232857 L-191328 232856 L-191309 232855 L-191194 232855 L-191049 232854 L-190669 232854 L-190476 232854 L-190420 232853 L-190121 232852 L-190054 232851 L-189858 232849 L-189491 232848 L-189430 232847 L-189126 232846 L-189081 232846 L-189027 232845 L-188389 232845 L-188369 232844 L-187884 232843 L-187402 232844 L-187033 232844 L-186667 232845 L-186532 232845 L-186378 232844 L-186308 232843 L-185661 232843 L-185641 232842 L-185500 232842 L-185015 232841 L-184732 232841 L-184674 232840 L-184616 232840 L-184307 232839 L-184152 232838 L-183668 232838 L-182895 232838 L-182255 232838 L-182158 232837 L-181095 232837 L-181074 232836 L-180609 234115 L-180593 234115 L-180419 234115 L-179906 234115 L-177552 232835 L-176607 232834 L-175889 232832 L-175348 232830 L-174651 232829 L-174335 232828 L-173686 232827 L-173178 232826 L-173144 232825 L-173102 232824 L-172757 232823 L-172062 232822 L-171865 232821 L-171848 232819 L-171732 232818 L-171451 232817 L-170553 232814 L-170507 232813 L-170141 232811 L-170123 232810 L-170068 232809 L-169875 232808 L-169739 232807 L-169664 232806 L-169430 232805 L-168889 232804 L-168848 232803 L-168812 232802 L-168786 232801 L-168151 232799 L-167609 232797 L-166444 232796 L-166084 232795 L-164807 232795 L-164767 232794 L-164729 232794 L-164514 232793 L-164324 232792 L-164246 232791 L-164093 232790 L-164053 232789 L-162964 232788 L-162640 232788 L-162426 232787 L-162165 232787 L-161673 232787 L-161651 232791 L-161234 232795 L-161092 232799 L-161032 232803 L-160955 232803 L-160744 232802 L-159450 232802 L-159173 232801 L-158549 232800 L-157158 232799 L-157086 232797 L-157048 232795 L-156854 232794 L-156465 232793 L-156157 232792 L-156101 232791 L-155786 232791 L-155735 232791 L-155697 232790 L-155651 232789 L-155018 232788 L-154244 232787 L-153805 232786 L-153663 234077 L-153640 234076 L-153623 235367 L-153598 235367 L-153181 234076 L-152978 234075 L-152828 232783 L-152750 232782 L-152696 232781 L-151899 232781 L-151883 232781 L-151019 232781 L-150815 232781 L-150528 232779 L-150413 232778 L-149887 232777 L-149711 232776 L-149407 232775 L-149020 232774 L-148959 232772 L-148904 232771 L-148749 232770 L-147704 232769 L-147142 232769 L-146906 232768 L-146870 232768 L-146600 232768 L-146194 232767 L-144725 232766 L-142984 232765 L-142597 232764 L-142365 232763 L-142266 232761 L-142171 232760 L-142017 232758 L-141454 232758 L-141371 232757 L-141204 232757 L-140662 232758 L-139477 232758 L-139463 232758 L-139403 232758 L-139252 232757 L-138767 232756 L-138120 232755 L-137414 232753 L-137298 232752 L-136330 232751 L-136285 232750 L-135595 232750 L-135538 232749 L-135460 232749 L-135441 232748 L-135420 232747 L-135204 232746 L-134491 232746 L-134101 232744 L-134065 232743 L-134047 232742 L-133990 232741 L-133562 232740 L-133348 232739 L-133273 232737 L-133196 232736 L-133080 232735 L-133015 232735 L-132887 232734 L-132827 232734 L-132752 232732 L-132673 232731 L-132245 232730 L-131519 232729 L-131505 232726 L-131339 232725 L-131122 232723 L-131107 232721 L-130526 232720 L-130255 232719 L-129966 232718 L-129536 232717 L-129383 232716 L-129327 232715 L-129150 232714 L-127755 232713 L-127489 232711 L-126596 232708 L-126071 232707 L-125051 232705 L-124970 232704 L-124507 232703 L-123887 232703 L-123601 232702 L-123347 232702 L-123195 232701 L-122847 232700 L-122130 232699 L-121569 232698 L-120681 232697 L-120372 232697 L-120080 232697 L-119228 232697 L-119207 232697 L-118551 232697 L-118047 232695 L-117837 232694 L-117816 232693 L-117487 232691 L-117429 232691 L-117042 232691 L-116057 232691 L-115495 232691 L-115398 232691 L-115089 232690 L-115012 232690 L-113977 232689 L-113847 232688 L-113791 232687 L-113155 232686 L-113096 232685 L-113021 232684 L-111607 232683 L-111470 232682 L-111336 232681 L-110851 232680 L-110601 232679 L-110310 232678 L-110098 232677 L-109441 232676 L-108872 232673 L-108783 232672 L-108643 232671 L-108569 232670 L-107404 232670 L-107372 232669 L-106942 232669 L-106926 232668 L-106751 232667 L-105223 232666 L-105139 232667 L-104333 232667 L-104140 232667 L-104118 232667 L-103265 232666 L-103072 232665 L-102438 232664 L-102262 232663 L-102143 232662 L-102089 232662 L-102068 232662 L-102012 232662 L-101624 232662 L-101180 232662 L-101102 232661 L-100905 232661 L-100843 232660 L-100581 232659 L-100232 232659 L-100116 232658 L-98968 232658 L-98683 232657 L-98238 232655 L-97035 232654 L-96905 232653 L-96595 232652 L-96167 232651 L-94870 232650 L-94561 233895 L-94545 233895 L-94498 233919 L-94448 233919 L-93520 232672 L-93190 232672 L-92642 232647 L-92514 232646 L-92068 232645 L-90535 232644 L-90366 232643 L-90095 232642 L-90071 232640 L-89166 232638 L-89051 232637 L-88584 232636 L-88561 232635 L-88489 232634 L-88291 232633 L-88139 232632 L-87671 232631 L-87020 232630 L-86534 232629 L-85984 232629 L-84962 232629 L-84656 232629 L-84601 232629 L-84001 232628 L-83571 232627 L-83497 232627 L-83480 232626 L-83259 232626 L-82954 232625 L-82872 232624 L-82569 232624 L-81969 232623 L-81833 232622 L-81562 232620 L-81348 232619 L-81173 232619 L-80964 232619 L-80942 232619 L-80694 232632 L-80244 232645 L-80228 232658 L-79782 232670 L-78574 232670 L-78372 232669 L-77444 232669 L-77382 232668 L-77348 232667 L-76322 232666 L-76206 232666 L-76185 232665 L-76031 232665 L-76012 232665 L-75601 232664 L-75585 232664 L-75548 232663 L-75238 232662 L-75084 232661 L-74879 232661 L-74480 232660 L-73497 232660 L-72972 232660 L-72916 232659 L-72890 232659 L-72568 232658 L-71852 232658 L-70982 232658 L-70944 232658 L-70867 232658 L-70615 232657 L-70595 232655 L-69872 232655 L-69722 232654 L-69609 232654 L-69512 232653 L-68410 232652 L-67655 232651 L-67483 232650 L-67322 232649 L-67246 232648 L-67052 232648 L-65914 232647 L-65230 232647 L-64947 232646 L-63980 232645 L-63961 232644 L-63109 232643 L-63070 232642 L-62927 232641 L-62602 232640 L-62372 232638 L-62334 232637 L-62294 232636 L-62277 232634 L-62141 232633 L-62122 232632 L-61911 232631 L-61851 232630 L-61773 232629 L-61749 232628 L-61674 232627 L-61194 232626 L-61097 232625 L-61021 232624 L-60845 232623 L-60822 232622 L-60767 232620 L-60729 232619 L-60670 232618 L-60515 232617 L-59491 232616 L-59192 232615 L-59065 232614 L-58987 232613 L-57962 232612 L-57905 232611 L-57848 232610 L-57801 232609 L-57787 232608 L-57750 232607 L-57712 232606 L-56532 232605 L-56474 232604 L-55777 232604 L-55158 232602 L-55015 232602 L-54572 232601 L-54307 232600 L-53643 232600 L-53359 232599 L-51889 232599 L-50941 232598 L-50835 232597 L-50769 232597 L-50739 232596 L-50419 232595 L-50398 232595 L-49469 232595 L-49294 232596 L-48562 232597 L-48021 175501 L-47998 118404 L-47971 61307 L-47939 4210 L-47922 4209 L-47901 4207 L-47863 4205 L-47844 4205 L-47821 4207 L-47806 4208 L-47788 4209 L-47767 4209 L-47745 4207 L-47729 4206 L-47709 4205 L-47690 4205 L-47652 4205 L-47612 4203 L-47586 4201 L-47570 4198 L-47552 4195 L-47515 4193 L-47496 4192 L-47477 4191 L-47458 4190 L-47436 4188 L-47419 4187 L-47380 4184 L-47358 4181 L-47342 4180 L-47323 4177 L-47303 4176 L-47284 4175 L-47265 4173 L-47226 4172 L-47169 4171 L-47120 4169 L-47069 4168 L-47042 4166 L-47026 4164 L-47009 4163 L-46994 4162 L-46973 4160 L-46955 4160 L-46935 4158 L-46916 4157 L-46893 4155 L-46878 4152 L-46859 4150 L-46839 4149 L-46817 4147 L-46781 4145 L-46761 4142 L-46741 4140 L-46704 4138 L-46683 4137 L-46658 4136 L-46642 4135 L-46624 4133 L-46607 4128 L-46586 4122 L-46568 4116 L-46548 4112 L-46529 4109 L-46471 4106 L-46451 4103 L-46429 4101 L-46395 4098 L-46375 4095 L-46355 4093 L-46336 4091 L-46317 4089 L-46278 4088 L-46259 4086 L-46240 4084 L-46214 4083 L-46027 4081 L-46007 4079 L-45987 4078 L-45964 4076 L-45930 4074 L-45910 4071 L-45889 4068 L-45872 4065 L-45852 4062 L-45833 4059 L-45812 4057 L-45794 4054 L-45776 4052 L-45755 4050 L-45729 4048 L-45713 4046 L-45678 4044 L-45658 4043 L-45640 4041 L-45620 4040 L-45601 4038 L-45579 4035 L-45543 4033 L-45523 4031 L-45501 4029 L-45485 4027 L-45466 4025 L-45446 4023 L-45426 4022 L-45389 4020 L-45312 4018 L-45286 4016 L-45263 4014 L-45235 4011 L-45212 4009 L-45186 4007 L-45137 4005 L-45116 4004 L-45078 4000 L-45059 3998 L-45037 3997 L-45021 3995 L-45002 3994 L-44982 3993 L-44961 3992 L-44925 3990 L-44904 3989 L-44847 3988 L-44826 3987 L-44801 3987 L-44786 3986 L-44769 3986 L-44731 3985 L-44711 3982 L-44692 3980 L-44672 3978 L-44652 3976 L-44634 3974 L-44615 3971 L-44595 3969 L-44574 3967 L-44538 3964 L-44518 3963 L-44499 3962 L-44460 3961 L-44421 3960 L-44402 3959 L-44383 3958 L-44334 3957 L-44307 3956 L-44267 3954 L-44237 3953 L-44222 3951 L-44150 3948 L-44130 3946 L-44108 3945 L-44092 3944 L-44074 3943 L-44033 3943 L-43956 3941 L-43937 3940 L-43919 3938 L-43898 3937 L-43872 3936 L-43841 3935 L-43821 3935 L-43802 3933 L-43764 3930 L-43723 3927 L-43645 3924 L-43609 3922 L-43570 3920 L-43492 3919 L-43473 3918 L-43428 3917 L-43406 3918 L-43378 3918 L-43339 3916 L-43308 3915 L-43293 3912 L-43279 3910 L-43239 3908 L-43178 3907 L-43163 3905 L-43144 3903 L-43124 3901 L-43047 3898 L-43009 3895 L-42990 3893 L-42943 3892 L-42927 3891 L-42909 3890 L-42892 3889 L-42854 3886 L-42834 3884 L-42815 3881 L-42793 3879 L-42777 3876 L-42737 3874 L-42699 3872 L-42680 3870 L-42660 3867 L-42641 3863 L-42622 3858 L-42603 3854 L-42583 3852 L-42563 3851 L-42500 3850 L-42477 3849 L-42450 3848 L-42426 3845 L-42399 3841 L-42383 3837 L-42367 3833 L-42330 3831 L-42312 3829 L-42292 3828 L-42272 3827 L-42250 3824 L-42235 3823 L-42215 3822 L-42196 3819 L-42174 3815 L-42157 3812 L-42137 3809 L-42119 3806 L-42098 3804 L-42080 3803 L-42061 3801 L-42015 3800 L-41998 3798 L-41980 3796 L-41964 3793 L-41943 3789 L-41925 3786 L-41905 3783 L-41886 3779 L-41848 3778 L-41829 3777 L-41786 3776 L-41771 3775 L-41752 3771 L-41732 3768 L-41693 3766 L-41674 3765 L-41655 3763 L-41616 3762 L-41597 3760 L-41571 3758 L-41521 3757 L-41484 3756 L-41468 3755 L-41422 3753 L-41384 3751 L-41364 3750 L-41344 3748 L-41321 3747 L-41306 3745 L-41287 3743 L-41245 3742 L-41229 3740 L-41190 3736 L-41169 3734 L-41152 3731 L-41111 3728 L-41086 3726 L-41070 3724 L-41036 3722 L-41015 3718 L-40997 3714 L-40977 3709 L-40936 3704 L-40920 3698 L-40842 3695 L-40823 3693 L-40784 3692 L-40765 3690 L-40746 3688 L-40726 3688 L-40707 3687 L-40687 3687 L-40592 3688 L-40567 3687 L-40540 3686 L-40509 3683 L-40494 3681 L-40473 3679 L-40435 3677 L-40415 3675 L-40392 3673 L-40377 3672 L-40358 3671 L-40339 3669 L-40317 3667 L-40300 3664 L-40280 3662 L-40262 3660 L-40240 3658 L-40223 3655 L-40204 3653 L-40183 3652 L-40157 3650 L-40141 3646 L-40123 3643 L-40085 3640 L-40068 3636 L-40048 3633 L-40029 3629 L-40007 3625 L-39971 3623 L-39952 3620 L-39929 3617 L-39914 3615 L-39895 3612 L-39875 3610 L-39836 3608 L-39797 3607 L-39778 3606 L-39759 3604 L-39714 3603 L-39612 3603 L-39597 3602 L-39464 3601 L-39449 3600 L-39430 3595 L-39410 3592 L-39388 3590 L-39352 3587 L-39333 3586 L-39312 3585 L-39254 3583 L-39229 3581 L-39213 3579 L-39195 3575 L-39179 3573 L-39158 3572 L-39140 3571 L-39101 3569 L-39079 3568 L-39043 3567 L-39023 3566 L-39001 3565 L-38946 3565 L-38926 3564 L-38869 3563 L-38830 3562 L-38763 3561 L-38736 3558 L-38713 3556 L-38686 3554 L-38653 3552 L-38637 3551 L-38616 3549 L-38598 3552 L-38579 3554 L-38559 3557 L-38538 3561 L-38521 3559 L-38425 3558 L-38366 3557 L-38326 3556 L-38301 3553 L-38270 3551 L-38231 3549 L-38192 3546 L-38172 3544 L-38134 3541 L-38095 3539 L-38057 3537 L-38038 3536 L-37999 3534 L-37979 3532 L-37960 3531 L-37940 3530 L-37921 3529 L-37902 3528 L-37883 3526 L-37856 3522 L-37807 3519 L-37767 3517 L-37737 3515 L-37722 3513 L-37708 3512 L-37669 3510 L-37650 3508 L-37608 3505 L-37592 3503 L-37573 3501 L-37533 3498 L-37496 3496 L-37456 3494 L-37419 3493 L-37372 3491 L-37358 3489 L-37283 3488 L-37244 3487 L-37224 3487 L-37206 3485 L-37186 3484 L-37089 3482 L-37050 3480 L-36992 3478 L-36973 3476 L-36954 3474 L-36928 3474 L-36906 3473 L-36840 3471 L-36823 3471 L-36807 3470 L-36794 3469 L-36758 3468 L-36701 3467 L-36677 3465 L-36644 3463 L-36624 3461 L-36586 3458 L-36565 3455 L-36547 3451 L-36526 3449 L-36509 3447 L-36490 3446 L-36469 3444 L-36443 3442 L-36393 3441 L-36371 3439 L-36315 3438 L-36295 3435 L-36199 3434 L-36181 3432 L-36141 3431 L-36122 3430 L-36103 3427 L-36064 3426 L-36044 3425 L-36026 3424 L-35977 3423 L-35926 3423 L-35899 3422 L-35883 3420 L-35867 3418 L-35851 3416 L-35812 3414 L-35792 3413 L-35773 3411 L-35715 3409 L-35696 3407 L-35673 3404 L-35657 3402 L-35637 3398 L-35619 3396 L-35561 3393 L-35540 3390 L-35515 3387 L-35480 3382 L-35464 3379 L-35444 3377 L-35426 3375 L-35405 3374 L-35386 3372 L-35364 3370 L-35348 3369 L-35328 3368 L-35309 3367 L-35287 3364 L-35271 3362 L-35252 3360 L-35232 3358 L-35212 3357 L-35174 3356 L-35155 3353 L-35135 3350 L-35070 3345 L-35049 3342 L-35020 3340 L-34981 3337 L-34949 3334 L-34935 3330 L-34901 3328 L-34863 3326 L-34844 3325 L-34821 3323 L-34806 3322 L-34787 3320 L-34767 3317 L-34729 3316 L-34709 3314 L-34669 3312 L-34611 3310 L-34586 3309 L-34551 3307 L-34535 3305 L-34514 3303 L-34497 3301 L-34458 3299 L-34436 3298 L-34419 3296 L-34399 3293 L-34380 3290 L-34358 3288 L-34342 3285 L-34323 3283 L-34246 3282 L-34226 3280 L-34206 3277 L-34187 3275 L-34168 3273 L-34143 3271 L-34068 3269 L-34042 3267 L-34026 3264 L-34010 3263 L-33994 3261 L-33973 3258 L-33955 3256 L-33916 3255 L-33893 3254 L-33878 3253 L-33859 3251 L-33839 3250 L-33817 3248 L-33800 3247 L-33704 3245 L-33683 3243 L-33658 3241 L-33624 3239 L-33607 3237 L-33586 3235 L-33568 3233 L-33548 3232 L-33529 3231 L-33508 3230 L-33491 3228 L-33472 3226 L-33452 3223 L-33429 3221 L-33413 3219 L-33395 3218 L-33355 3216 L-33336 3214 L-33297 3212 L-33240 3211 L-33214 3209 L-33192 3206 L-33164 3204 L-33140 3202 L-33114 3200 L-33081 3199 L-33065 3198 L-33045 3198 L-33027 3198 L-33007 3198 L-32987 3198 L-32949 3196 L-32930 3194 L-32910 3191 L-32889 3188 L-32853 3186 L-32833 3185 L-32812 3183 L-32795 3181 L-32776 3180 L-32755 3178 L-32729 3176 L-32714 3174 L-32696 3171 L-32678 3168 L-32658 3166 L-32639 3163 L-32620 3160 L-32601 3158 L-32543 3155 L-32523 3153 L-32501 3151 L-32408 3149 L-32369 3148 L-32350 3156 L-32330 3163 L-32312 3175 L-32214 3186 L-32186 3190 L-32154 3193 L-32137 3192 L-32037 3191 L-32021 3188 L-32002 3187 L-31982 3185 L-31962 3183 L-31943 3180 L-31925 3177 L-31905 3174 L-31885 3170 L-31847 3168 L-31826 3167 L-31769 3166 L-31750 3169 L-31731 3185 L-31711 3201 L-31693 3216 L-31672 3228 L-31652 3228 L-31595 3228 L-31573 3229 L-31538 3228 L-31518 3227 L-31460 3226 L-31440 3224 L-31402 3228 L-31383 3230 L-31356 3232 L-31307 3234 L-31267 3232 L-31208 3230 L-31188 3228 L-31169 3227 L-31130 3226 L-31092 3224 L-31053 3223 L-30976 3222 L-30956 3221 L-30937 3220 L-30841 3219 L-30821 3219 L-30744 3218 L-30687 3217 L-30628 3215 L-30589 3213 L-30570 3212 L-30551 3210 L-30532 3206 L-30406 3203 L-30324 3200 L-30309 3197 L-30295 3194 L-30258 3192 L-30221 3190 L-30201 3188 L-30178 3186 L-30163 3185 L-30144 3183 L-30086 3181 L-30065 3168 L-30047 3153 L-30026 3139 L-30009 3123 L-29990 3118 L-29969 3116 L-29943 3114 L-29927 3112 L-29908 3110 L-29892 3108 L-29872 3103 L-29854 3097 L-29834 3092 L-29793 3087 L-29757 3083 L-29737 3081 L-29714 3079 L-29680 3076 L-29640 3075 L-29622 3073 L-29583 3071 L-29564 3069 L-29544 3068 L-29526 3067 L-29500 3064 L-29477 3062 L-29425 3059 L-29399 3057 L-29383 3056 L-29367 3054 L-29351 3053 L-29330 3051 L-29312 3050 L-29292 3049 L-29216 3047 L-29196 3046 L-29174 3044 L-29157 3040 L-29137 3037 L-29098 3034 L-29062 3030 L-29040 3028 L-29015 3026 L-28998 3025 L-28980 3023 L-28943 3022 L-28925 3021 L-28905 3019 L-28886 3018 L-28865 3016 L-28848 3012 L-28828 3010 L-28809 3008 L-28786 3007 L-28732 3006 L-28712 3004 L-28693 3003 L-28635 3001 L-28571 2999 L-28549 2996 L-28470 2993 L-28438 2990 L-28401 2988 L-28384 2987 L-28364 2985 L-28321 2984 L-28306 2982 L-28267 2979 L-28245 2975 L-28229 2972 L-28209 2968 L-28169 2965 L-28152 2962 L-28133 2959 L-28111 2956 L-28086 2954 L-28069 2951 L-28051 2948 L-28014 2945 L-27976 2943 L-27958 2939 L-27936 2937 L-27900 2936 L-27857 2934 L-27803 2932 L-27765 2930 L-27746 2928 L-27726 2924 L-27706 2922 L-27643 2920 L-27568 2917 L-27525 2916 L-27509 2914 L-27494 2912 L-27455 2911 L-27435 2910 L-27392 2909 L-27378 2909 L-27359 2908 L-27339 2906 L-27317 2904 L-27300 2902 L-27280 2900 L-27240 2897 L-27204 2894 L-27183 2891 L-27158 2887 L-27141 2885 L-27122 2883 L-27107 2881 L-27085 61653 L-27054 61649 L-27029 61644 L-27007 61640 L-26991 2862 L-26971 2861 L-26952 2859 L-26914 2856 L-26895 2852 L-26875 2849 L-26855 2845 L-26797 2842 L-26778 2839 L-26759 2835 L-26714 2834 L-26692 2832 L-26664 2830 L-26639 2828 L-26612 2826 L-26581 2824 L-26544 2822 L-26527 2821 L-26506 2818 L-26430 2817 L-26410 2816 L-26388 2816 L-26372 2817 L-26352 2817 L-26254 2818 L-26229 2816 L-26213 2815 L-26195 2813 L-26178 2810 L-26140 2808 L-26120 2806 L-26079 2804 L-26043 2803 L-26023 2800 L-26001 2799 L-25985 2797 L-25946 2796 L-25889 2795 L-25849 2793 L-25763 2790 L-25735 2788 L-25712 2785 L-25671 2781 L-25598 2780 L-25579 2779 L-25521 2779 L-25502 2780 L-25482 2778 L-25461 2776 L-25425 2774 L-25385 2772 L-25366 2771 L-25326 2771 L-25301 2770 L-25250 2769 L-25211 2768 L-25152 2765 L-25134 2764 L-25115 2762 L-25074 2761 L-24999 2758 L-24979 2756 L-24960 2752 L-24902 2747 L-24883 2744 L-24856 2741 L-24835 2739 L-24768 2737 L-24738 2736 L-24724 2734 L-24688 2733 L-24650 2731 L-24609 2728 L-24573 2726 L-24553 2724 L-24533 2723 L-24515 2722 L-24496 2721 L-24476 2720 L-24456 2719 L-24437 2718 L-24358 2717 L-24302 2716 L-24283 2714 L-24264 2712 L-24223 2712 L-24205 2712 L-24145 2712 L-24109 2711 L-24089 2709 L-24051 2708 L-24012 2706 L-23992 2704 L-23954 2702 L-23838 2700 L-23807 2699 L-23792 2697 L-23758 2694 L-23741 2693 L-23720 2691 L-23677 2690 L-23644 2688 L-23586 2687 L-23565 2685 L-23525 2685 L-23469 2684 L-23443 2683 L-23426 2681 L-23393 2679 L-23371 2676 L-23353 2674 L-23334 2672 L-23277 2670 L-23257 2668 L-23215 2666 L-23199 2664 L-23160 2661 L-23141 2657 L-23122 2655 L-23083 2653 L-23063 2651 L-23045 2650 L-23026 2648 L-22977 2646 L-22950 2644 L-22925 2643 L-22898 2640 L-22881 2638 L-22866 2636 L-22830 2633 L-22773 2631 L-22735 2628 L-22696 2626 L-22674 2623 L-22657 2621 L-22637 2618 L-22597 2616 L-22580 2614 L-22561 2612 L-22540 2609 L-22515 2606 L-22497 2603 L-22479 2601 L-22464 2598 L-22442 2596 L-22425 2594 L-22405 2592 L-22386 2591 L-22364 2588 L-22348 2586 L-22329 2585 L-22286 2581 L-22271 2578 L-22252 2574 L-22232 2568 L-22212 2564 L-22193 2561 L-22154 2557 L-22071 2555 L-22049 2551 L-22021 2548 L-21982 2546 L-21952 2544 L-21937 2542 L-21901 2541 L-21863 2539 L-21821 2539 L-21806 2538 L-21767 2537 L-21708 2534 L-21690 2532 L-21668 2529 L-21633 2528 L-21612 2527 L-21586 2526 L-21569 2525 L-21535 2523 L-21514 2521 L-21497 2518 L-21477 2515 L-21458 2512 L-21419 2509 L-21399 2506 L-21380 2503 L-21357 2500 L-21342 2499 L-21283 2497 L-21265 2495 L-21246 2493 L-21226 2489 L-21207 2487 L-21169 2484 L-21142 2481 L-21092 2479 L-21054 2478 L-21022 2477 L-21008 2476 L-20994 2475 L-20935 2473 L-20915 2472 L-20877 2470 L-20858 2468 L-20839 2465 L-20800 2463 L-20780 2460 L-20761 2458 L-20740 2455 L-20704 2452 L-20683 2450 L-20657 2447 L-20607 2446 L-20568 2444 L-20548 2441 L-20507 2438 L-20491 2435 L-20471 2432 L-20429 2428 L-20414 2426 L-20395 2424 L-20375 2422 L-20355 2420 L-20336 2419 L-20317 2418 L-20298 2417 L-20192 2415 L-20126 2414 L-20095 2410 L-20065 2408 L-20026 2406 L-20006 2405 L-19949 2403 L-19930 2401 L-19910 2398 L-19888 2394 L-19872 2391 L-19833 2389 L-19812 2386 L-19794 2383 L-19776 2382 L-19755 2380 L-19729 2376 L-19713 2374 L-19695 2371 L-19678 2369 L-19657 2368 L-19640 2367 L-19620 2366 L-19601 2364 L-19579 2363 L-19562 2363 L-19523 2363 L-19501 2363 L-19466 2363 L-19426 2361 L-19408 2359 L-19389 2357 L-19369 2354 L-19349 2352 L-19330 2349 L-19312 2346 L-19263 2345 L-19235 2343 L-19212 2340 L-19186 2339 L-19153 2337 L-19098 2335 L-19078 2334 L-19059 2332 L-19037 2331 L-19021 2329 L-19002 2328 L-18943 2327 L-18924 2326 L-18905 2323 L-18847 2322 L-18826 2320 L-18750 2319 L-18731 2317 L-18711 2315 L-18692 2313 L-18652 2310 L-18634 2305 L-18615 2303 L-18595 2300 L-18518 2299 L-18498 2298 L-18421 2296 L-18306 2294 L-18266 2292 L-18234 2291 L-18220 2290 L-18207 2288 L-18187 2287 L-18169 2286 L-18130 2284 L-18092 2283 L-18073 2281 L-18053 2280 L-17976 2278 L-17898 2276 L-17872 2275 L-17858 2274 L-17821 2273 L-17802 2273 L-17783 2272 L-17764 2270 L-17706 2268 L-17686 2267 L-17666 2265 L-17644 2264 L-17589 2262 L-17570 2260 L-17473 2258 L-17454 2256 L-17406 2256 L-17378 2255 L-17338 2255 L-17277 2252 L-17257 2251 L-17241 2249 L-17221 2248 L-17201 2247 L-17178 2245 L-17163 2244 L-17144 2242 L-17124 2240 L-17102 2239 L-17065 2237 L-17047 2235 L-17025 2233 L-16990 2231 L-16969 2230 L-16926 2229 L-16908 2227 L-16892 2225 L-16872 2222 L-16854 2220 L-16834 2217 L-16815 2215 L-16793 2213 L-16776 2211 L-16757 2209 L-16713 2207 L-16680 2205 L-16660 2203 L-16640 2199 L-16622 2197 L-16603 2195 L-16583 2193 L-16563 2192 L-16544 2191 L-16526 2190 L-16500 2190 L-16410 2189 L-16379 2187 L-16365 2185 L-16329 2182 L-16292 2180 L-16272 2179 L-16250 2177 L-16235 2176 L-16215 2174 L-16196 2173 L-16157 2171 L-16137 2169 L-16119 2171 L-16097 2172 L-16074 2172 L-16061 2172 L-16040 2169 L-16014 2166 L-15978 2162 L-15964 2159 L-15944 2156 L-15924 2156 L-15905 2156 L-15886 2156 L-15865 2155 L-15848 2152 L-15828 2150 L-15785 2146 L-15771 2145 L-15752 2143 L-15711 2141 L-15693 2140 L-15675 2137 L-15654 2135 L-15635 2133 L-15616 2131 L-15597 2129 L-15549 2127 L-15481 2126 L-15449 2125 L-15422 2124 L-15400 2123 L-15383 2122 L-15363 2121 L-15344 2120 L-15320 2120 L-15306 2119 L-15287 2118 L-15267 2115 L-15244 2111 L-15228 2109 L-15208 2107 L-15190 2106 L-15133 2104 L-15111 2102 L-15086 2100 L-15068 2098 L-15050 2096 L-15035 2093 L-15013 2091 L-14997 2089 L-14976 2088 L-14958 2086 L-14935 2086 L-14919 2085 L-14900 2084 L-14856 2082 L-14842 2081 L-14823 2079 L-14803 2078 L-14783 2076 L-14765 2074 L-14746 2072 L-14687 2070 L-14592 2069 L-14554 2067 L-14537 2066 L-14522 2064 L-14509 2063 L-14494 2061 L-14473 2059 L-14435 2057 L-14415 2056 L-14392 2055 L-14378 2054 L-14358 2052 L-14339 2050 L-14316 2047 L-14299 2043 L-14261 2040 L-14240 2037 L-14223 2035 L-14157 2033 L-14140 2031 L-14122 2030 L-14106 2028 L-14085 2027 L-14068 2025 L-14048 2022 L-14029 2020 L-14007 2017 L-13991 2013 L-13971 2010 L-13928 2006 L-13913 2004 L-13895 2002 L-13874 1999 L-13855 1997 L-13817 1994 L-13797 1992 L-13777 1990 L-13715 1987 L-13664 1985 L-13639 1984 L-13612 1982 L-13596 1979 L-13526 1977 L-13506 1975 L-13487 1972 L-13464 1970 L-13449 1968 L-13372 1966 L-13352 1963 L-13333 1961 L-13311 1959 L-13293 1956 L-13275 1953 L-13254 1951 L-13229 1949 L-13212 1948 L-13194 1946 L-13178 1944 L-13157 1943 L-13139 1941 L-13119 1941 L-13101 1940 L-13079 1939 L-13042 1937 L-13023 1934 L-13001 1932 L-12985 1931 L-12966 1929 L-12946 1928 L-12926 1926 L-12908 1925 L-12889 1923 L-12869 1920 L-12811 1917 L-12763 1915 L-12666 1914 L-12637 1912 L-12598 1911 L-12578 1910 L-12502 1909 L-12482 1908 L-12443 1907 L-12424 1906 L-12384 1904 L-12366 1902 L-12347 1899 L-12326 1898 L-12301 1897 L-12286 1896 L-12269 1894 L-12250 1893 L-12211 1892 L-12192 1890 L-12172 1889 L-12151 1887 L-12115 1886 L-12095 1885 L-11979 1885 L-11960 1884 L-11940 1882 L-11883 1881 L-11806 1881 L-11767 1881 L-11721 1881 L-11708 1881 L-11669 1880 L-11649 1879 L-11608 1878 L-11592 1876 L-11573 1875 L-11553 1873 L-11476 1872 L-11456 1872 L-11419 1871 L-11398 1870 L-11340 1869 L-11302 1867 L-11282 1866 L-11263 1863 L-11222 1861 L-11205 1860 L-11166 1860 L-11144 1860 L-11128 1861 L-11109 1862 L-11050 1861 L-11032 1861 L-10992 1860 L-10973 1860 L-10954 1860 L-10927 1858 L-10906 1857 L-10877 1856 L-10802 1854 L-10789 1853 L-10741 1851 L-10720 1849 L-10676 1847 L-10663 1846 L-10624 1845 L-10601 1844 L-10585 1843 L-10565 1842 L-10547 1841 L-10525 1840 L-10490 1838 L-10469 1837 L-10443 1835 L-10426 1834 L-10407 1832 L-10392 1831 L-10372 1828 L-10354 1826 L-10334 1824 L-10315 1823 L-10292 1822 L-10257 1821 L-10237 1820 L-10214 1817 L-10199 1814 L-10181 1809 L-10160 1806 L-10141 1804 L-10122 1802 L-10083 1800 L-10063 1797 L-10045 1794 L-9949 1792 L-9910 1789 L-9879 1786 L-9864 1783 L-9829 1780 L-9812 1778 L-9791 1776 L-9773 1773 L-9749 1771 L-9735 1768 L-9715 1764 L-9696 1762 L-9673 1760 L-9657 1756 L-9637 1754 L-9619 1751 L-9597 1750 L-9580 1748 L-9561 1746 L-9479 1744 L-9442 1741 L-9425 1738 L-9404 1735 L-9348 1732 L-9309 1729 L-9271 1726 L-9252 1725 L-9232 1722 L-9211 1720 L-9193 1717 L-9174 1714 L-9154 1712 L-9134 1711 L-9049 1710 L-9021 1708 L-8980 1705 L-8948 1703 L-8934 1701 L-8899 1700 L-8863 1698 L-8844 1697 L-8820 1695 L-8786 1694 L-8767 1692 L-8744 1690 L-8729 1686 L-8690 1684 L-8632 1680 L-8586 1676 L-8568 1672 L-8550 1667 L-8535 1664 L-8514 1661 L-8496 1659 L-8458 1657 L-8435 1656 L-8419 1655 L-8399 1652 L-8380 1650 L-8356 1648 L-8342 1646 L-8323 1644 L-8265 1642 L-8246 1640 L-8226 1638 L-8205 1635 L-8187 1633 L-8120 1631 L-8092 1628 L-8052 1626 L-8021 1623 L-8006 1621 L-7994 1619 L-7955 1616 L-7934 1615 L-7916 1614 L-7892 1613 L-7878 1611 L-7859 1610 L-7839 1607 L-7816 1605 L-7800 1602 L-7780 1599 L-7761 1597 L-7740 1595 L-7723 1594 L-7704 1591 L-7683 1586 L-7640 1580 L-7622 1574 L-7607 1568 L-7585 1566 L-7568 1563 L-7547 1561 L-7529 1559 L-7506 1557 L-7491 1555 L-7470 1551 L-7452 1547 L-7428 1541 L-7413 1536 L-7395 1533 L-7354 1528 L-7336 1527 L-7317 1526 L-7297 1526 L-7277 1525 L-7259 1523 L-7240 1521 L-7214 1520 L-7192 1519 L-7164 1518 L-7124 1516 L-7092 1511 L-7077 1508 L-7065 1504 L-7043 1502 L-7026 1500 L-7006 1497 L-6987 1494 L-6949 1492 L-6930 1490 L-6910 1488 L-6872 1486 L-6851 1484 L-6833 1483 L-6794 1481 L-6776 1480 L-6754 1478 L-6729 1478 L-6712 1478 L-6694 1476 L-6678 1476 L-6657 1473 L-6639 1471 L-6601 1469 L-6578 1467 L-6542 1466 L-6500 1463 L-6485 1461 L-6466 1457 L-6426 1454 L-6407 1453 L-6389 1451 L-6330 1450 L-6263 1447 L-6195 1444 L-6163 1441 L-6116 1438 L-6098 1432 L-6078 1425 L-6059 1418 L-6037 1400 L-6021 1387 L-6002 1376 L-5943 1364 L-5924 1362 L-5904 1361 L-5884 1358 L-5866 1356 L-5847 1354 L-5826 1352 L-5801 1351 L-5786 1350 L-5765 1348 L-5750 1347 L-5730 1346 L-5711 1345 L-5693 1344 L-5634 1342 L-5595 1340 L-5557 1339 L-5538 1337 L-5518 1335 L-5479 1334 L-5440 1332 L-5421 1330 L-5334 1328 L-5266 1326 L-5234 1325 L-5220 1324 L-5207 1323 L-5187 1323 L-5169 1322 L-5130 1320 L-5073 1319 L-5053 1316 L-5033 1315 L-4996 1314 L-4976 1313 L-4938 1311 L-4872 1310 L-4840 1308 L-4783 1305 L-4764 1302 L-4723 1299 L-4705 1297 L-4686 1296 L-4609 1294 L-4589 1292 L-4551 1290 L-4532 1289 L-4512 1288 L-4492 1287 L-4454 1285 L-4427 1282 L-4378 1280 L-4337 1278 L-4304 1276 L-4290 1275 L-4256 1273 L-4220 1272 L-4177 1272 L-4144 1270 L-4124 1268 L-4101 1264 L-4064 1261 L-4025 1259 L-4009 1257 L-3990 1256 L-3969 1254 L-3943 1253 L-3908 1251 L-3892 1250 L-3871 1249 L-3833 1245 L-3815 1243 L-3793 1240 L-3776 1237 L-3756 1234 L-3737 1231 L-3715 1228 L-3699 1225 L-3680 1223 L-3660 1222 L-3603 1221 L-3583 1220 L-3563 1219 L-3544 1218 L-3525 1216 L-3500 1214 L-3449 1213 L-3410 1210 L-3363 1209 L-3351 1208 L-3329 1206 L-3291 1204 L-3273 1201 L-3249 1198 L-3215 1197 L-3196 1195 L-3173 1193 L-3157 1191 L-3136 1188 L-3118 1184 L-3096 1181 L-3080 1176 L-3060 1175 L-2996 1173 L-2978 1172 L-2964 1171 L-2942 1169 L-2925 1167 L-2904 1164 L-2886 1162 L-2848 1160 L-2828 1157 L-2809 1154 L-2785 1151 L-2771 1147 L-2752 1144 L-2711 1140 L-2693 1138 L-2674 1135 L-2634 1134 L-2549 1132 L-2521 1130 L-2481 1128 L-2449 1126 L-2434 1125 L-2401 1123 L-2384 1122 L-2363 1122 L-2344 1122 L-2320 1120 L-2267 1117 L-2229 1113 L-2190 1110 L-2151 1108 L-2132 1104 L-2111 1100 L-2086 1094 L-2068 1086 L-2050 1081 L-2035 1077 L-2014 1073 L-1996 1069 L-1976 1065 L-1958 1061 L-1935 1058 L-1899 1056 L-1880 1051 L-1857 1048 L-1842 1045 L-1823 1042 L-1803 1039 L-1782 1037 L-1765 1033 L-1746 1030 L-1726 1026 L-1705 1022 L-1687 1016 L-1668 1010 L-1642 1004 L-1620 997 L-1592 990 L-1552 980 L-1519 972 L-1505 964 L-1471 958 L-1455 954 L-1434 951 L-1415 946 L-1391 942 L-1378 938 L-1358 933 L-1339 928 L-1316 924 L-1300 921 L-1279 918 L-1261 914 L-1239 908 L-1223 904 L-1204 901 L-1183 898 L-1157 895 L-1122 891 L-1106 887 L-1085 883 L-1047 880 L-1029 876 L-1006 874 L-990 871 L-970 867 L-952 864 L-914 862 L-875 860 L-854 857 L-836 854 L-817 852 L-797 850 L-777 849 L-740 848 L-713 846 L-692 844 L-624 842 L-592 838 L-577 835 L-565 833 L-544 832 L-526 831 L-506 829 L-487 827 L-463 823 L-430 821 L-410 819 L-387 817 L-372 816 L-351 816 L-333 815 L-311 815 L-294 814 L-276 812 L-255 809 L-229 805 L-212 802 L-195 799 L-178 797 L-157 794 L-140 792 L-119 789 L-101 786 L-79 783 L-62 781 L-42 777 L-23 772 L-1 767 L14 762 L33 758 L53 756 L72 752 L91 750 L110 748 L130 746 L150 744 L169 742 L188 740 L236 737 L264 733 L302 728 L318 725 L333 721 L362 717 L384 716 L401 714 L421 713 L440 711 L478 709 L497 708 L517 706 L556 703 L575 699 L594 696 L615 694 L633 691 L652 687 L673 684 L698 679 L713 675 L731 673 L749 671 L769 669 L788 667 L807 664 L827 662 L848 661 L865 660 L904 658 L926 656 L943 654 L981 651 L1001 651 L1078 650 L1097 649 L1116 648 L1143 644 L1165 641 L1233 637 L1265 634 L1312 633 L1330 631 L1369 630 L1392 627 L1426 626 L1446 624 L1484 622 L1503 620 L1543 618 L1561 617 L1580 615 L1601 607 L1627 599 L1642 589 L1678 580 L1697 574 L1716 571 L1755 569 L1776 567 L1813 566 L1833 566 L1854 564 L1871 563 L1890 562 L1910 560 L1929 557 L1948 556 L1987 555 L2007 554 L2026 554 L2045 554 L2072 552 L2093 550 L2121 547 L2162 544 L2196 542 L2223 538 L2242 536 L2259 533 L2279 531 L2298 529 L2322 527 L2355 526 L2375 523 L2413 521 L2452 520 L2474 518 L2490 516 L2509 515 L2530 513 L2556 510 L2573 505 L2592 500 L2628 495 L2645 490 L2666 486 L2684 482 L2707 479 L2742 476 L2762 472 L2800 469 L2839 466 L2860 464 L2877 461 L2916 458 L2937 455 L2955 452 L2974 451 L3000 452 L3022 454 L3090 456 L3122 456 L3136 454 L3170 451 L3187 449 L3208 448 L3227 446 L3250 445 L3284 444 L3303 442 L3326 441 L3362 440 L3380 438 L3438 437 L3459 434 L3485 432 L3502 430 L3520 428 L3557 425 L3595 423 L3636 421 L3651 417 L3672 415 L3690 413 L3714 410 L3767 408 L3788 405 L3806 403 L3825 401 L3845 398 L3865 397 L3902 395 L3951 394 L3978 393 L4018 391 L4050 389 L4065 387 L4078 385 L4099 383 L4179 380 L4193 378 L4255 376 L4271 373 L4291 372 L4309 370 L4331 369 L4347 368 L4367 367 L4387 366 L4413 363 L4449 362 L4464 361 L4485 359 L4503 357 L4524 354 L4542 351 L4565 349 L4580 345 L4619 343 L4657 341 L4696 339 L4734 337 L4754 335 L4773 334 L4793 332 L4831 328 L4857 326 L4879 323 L4907 320 L4947 317 L4980 314 L5007 311 L5044 308 L5065 307 L5084 305 L5141 304 L5199 301 L5220 297 L5238 293 L5260 289 L5276 285 L5295 284 L5316 282 L5359 280 L5412 278 L5451 275 L5470 272 L5492 268 L5585 266 L5625 263 L5646 260 L5663 257 L5702 254 L5759 252 L5785 250 L5807 248 L5836 246 L5875 244 L5908 240 L5922 238 L5935 237 L5956 235 L5973 234 L5993 219 L6012 203 L6036 186 L6069 171 L6089 166 L6127 163 L6148 161 L6166 159 L6188 157 L6205 155 L6223 152 L6245 149 L6270 147 L6287 144 L6305 140 L6321 137 L6342 134 L6379 131 L6398 128 L6421 125 L6437 122 L6457 121 L6476 120 L6500 119" />
</svg>
