<svg xmlns="http://www.w3.org/2000/svg" version="1.1" viewBox="0 0 6500 1000">
	<path fill="none" stroke="gold" stroke-width="125" stroke-linecap="round" stroke-linejoin="round" d="M0 110896  L-688656 110896 L-688472 110847 L-687982 110749 L-687688 110699 L-687377 110601 L-687142 110551 L-687089 110453 L-687030 110354 L-686876 110305 L-686836 110206 L-686703 110157 L-686411 110108 L-685870 110108 L-685260 110059 L-685212 110059 L-684572 110009 L-684539 110009 L-684013 110009 L-683880 109960 L-683490 109862 L-683162 109763 L-683045 109664 L-682834 109566 L-682117 109566 L-681547 109517 L-681440 109517 L-681265 109467 L-681044 109369 L-680642 109319 L-680616 109221 L-679689 109122 L-679601 109024 L-679519 108925 L-679449 108827 L-679151 108777 L-678999 108679 L-677109 108728 L-677008 108728 L-676746 108728 L-676452 108777 L-676311 108679 L-676062 108679 L-676027 108629 L-675868 108580 L-675405 108482 L-675152 108432 L-674939 108334 L-674688 108284 L-674339 108235 L-673412 108137 L-673318 108038 L-672907 107989 L-671737 107890 L-670548 107841 L-670455 107742 L-670428 107644 L-670162 107545 L-669863 107447 L-669734 107348 L-669697 107249 L-668882 107249 L-668498 107299 L-667438 107348 L-667376 107348 L-667111 108334 L-666640 109270 L-666448 110206 L-666184 111143 L-665847 111094 L-665711 111044 L-665256 110995 L-664513 110946 L-664495 110896 L-664330 110798 L-664262 110798 L-663746 110749 L-662717 110749 L-662521 110699 L-662032 110650 L-661670 110601 L-661262 110601 L-660876 110650 L-659172 110650 L-659074 110650 L-659003 110650 L-658941 110650 L-658757 110601 L-658420 110601 L-657780 110551 L-657703 110502 L-657642 110502 L-657455 110453 L-657375 110453 L-657198 110404 L-657179 110354 L-656949 110354 L-656561 110305 L-655673 110305 L-655633 110256 L-655545 110206 L-655518 110108 L-654510 110059 L-654360 109960 L-654336 109911 L-654203 109862 L-654163 109812 L-652905 109763 L-652847 109763 L-652307 109714 L-652255 109714 L-652208 109714 L-651813 109664 L-651673 109615 L-651473 109566 L-651327 109566 L-651162 109566 L-650886 109615 L-650527 109615 L-649974 109566 L-649329 109517 L-649071 109418 L-648917 109369 L-648516 109319 L-648476 109270 L-648355 109221 L-648293 109270 L-648279 109270 L-648186 109270 L-647893 109221 L-647741 109024 L-647411 108925 L-647333 108827 L-647257 108777 L-647030 108629 L-646964 108531 L-646736 108432 L-646684 108334 L-646519 108284 L-645513 108235 L-645330 108186 L-644779 108137 L-644386 108038 L-643989 107989 L-643138 107890 L-643060 107841 L-642481 107792 L-642040 107792 L-641799 107742 L-641641 107742 L-641241 107644 L-641220 107644 L-640775 107594 L-640370 107545 L-640234 107447 L-640059 107348 L-639922 107249 L-639672 107151 L-638672 107102 L-638590 107052 L-638455 107003 L-638416 106954 L-637526 106904 L-637311 106855 L-636867 106806 L-636750 106757 L-636693 106707 L-636017 106707 L-635916 106658 L-635888 106658 L-634546 106609 L-634140 106559 L-634101 106510 L-633172 106461 L-633074 106412 L-632941 106362 L-632537 106313 L-632511 106264 L-632418 106214 L-632202 106165 L-631790 106067 L-630637 105968 L-630345 105869 L-630317 105771 L-629708 105722 L-629458 105623 L-629439 105574 L-628509 105524 L-628458 105426 L-628335 105377 L-628318 105278 L-628162 105229 L-627987 105130 L-627850 105081 L-627794 105032 L-627686 104982 L-627601 104933 L-627367 104884 L-627292 104834 L-626984 104785 L-626866 104736 L-626696 104687 L-626605 104637 L-626502 104637 L-626479 104588 L-626402 104588 L-626304 104489 L-625937 104440 L-625833 104391 L-625329 104342 L-624877 104292 L-624839 104243 L-624815 104194 L-624774 104144 L-624646 104095 L-624545 104046 L-624103 103997 L-623821 103947 L-623229 103898 L-623098 103849 L-622824 103750 L-622671 103701 L-622518 103652 L-622433 103553 L-622355 103504 L-622169 103454 L-622119 103454 L-622091 103405 L-622012 103356 L-621988 103307 L-621705 103208 L-621101 103109 L-620106 103060 L-619808 103011 L-619074 102962 L-618829 102912 L-618740 102863 L-618162 102814 L-617464 102764 L-616712 102715 L-616393 102666 L-616010 102567 L-615933 102518 L-615299 102469 L-615113 102419 L-615025 102419 L-614896 102419 L-614583 102370 L-614534 102321 L-614392 102272 L-614370 102222 L-613402 102173 L-612857 102124 L-612379 102124 L-612318 102124 L-611994 102124 L-611973 102074 L-611910 102074 L-611700 102025 L-611623 101976 L-611569 101927 L-611546 101877 L-611507 101828 L-611491 101779 L-610734 101729 L-610717 101680 L-609918 101631 L-609765 101582 L-608860 101532 L-608354 101483 L-608125 101384 L-608083 101384 L-607968 101335 L-607792 101286 L-607037 101335 L-606902 101286 L-606738 101237 L-606420 101187 L-606244 101089 L-605222 100990 L-605199 100892 L-604948 100842 L-604735 100744 L-604101 100694 L-603863 100596 L-603830 100497 L-603652 100399 L-603572 100300 L-603482 100251 L-603418 100152 L-602977 100054 L-602954 100004 L-602413 99955 L-602157 99906 L-601662 99857 L-600785 99807 L-600748 99758 L-600696 99709 L-600655 99659 L-600537 99610 L-600261 99561 L-600054 99462 L-599857 99364 L-599833 99265 L-599783 99167 L-599744 99117 L-599666 99068 L-599069 98969 L-599008 98920 L-598905 98871 L-598751 98822 L-598119 98772 L-597438 98723 L-597135 98624 L-596789 98575 L-596591 98526 L-596543 98427 L-596222 98378 L-595595 98329 L-595448 98279 L-595412 98230 L-595354 98181 L-595277 98082 L-595036 98082 L-594948 98033 L-594854 97984 L-594560 97934 L-594426 97885 L-594365 97836 L-594328 97737 L-594056 97737 L-593050 97688 L-592875 97639 L-592824 97639 L-592531 97589 L-592339 97491 L-592006 97442 L-591499 97392 L-590937 97294 L-590922 97195 L-590906 97146 L-590805 97047 L-590691 96949 L-590651 96850 L-590614 96801 L-590548 96801 L-590520 96752 L-590381 96801 L-590088 96801 L-590038 96801 L-589933 96801 L-589669 96752 L-589204 96702 L-589059 96702 L-589005 96604 L-588948 96554 L-588757 96505 L-588391 96456 L-588177 96456 L-587982 96456 L-587924 96456 L-587865 96357 L-587711 96308 L-587442 96259 L-587012 96505 L-586996 96505 L-586919 96456 L-586855 96407 L-586726 96062 L-586702 96012 L-586418 95963 L-586370 95914 L-586316 95864 L-585853 95815 L-585815 95815 L-585774 95766 L-585584 95717 L-585103 95667 L-584616 95618 L-584600 95569 L-584562 95519 L-584305 95470 L-584228 95372 L-583998 95322 L-583982 95224 L-583688 95125 L-583245 95076 L-582798 95027 L-582294 94977 L-582140 94928 L-581853 94879 L-581813 94780 L-581482 94731 L-581260 94682 L-580743 94583 L-580667 94534 L-580420 94435 L-580225 94337 L-580165 94287 L-579389 94238 L-579315 94238 L-579084 94189 L-579068 94189 L-579006 94139 L-578810 94090 L-578346 94090 L-578323 94041 L-578193 94041 L-576892 94041 L-576876 94041 L-576798 93992 L-576705 93992 L-576488 93992 L-576335 93942 L-576157 93992 L-576103 94041 L-575816 94090 L-575776 94090 L-575407 94090 L-574967 94090 L-574784 94090 L-574462 94041 L-574167 94041 L-573721 93942 L-573650 93893 L-573187 93794 L-572749 93745 L-572567 93696 L-571113 93597 L-570981 93548 L-570524 93449 L-570298 93400 L-569912 93302 L-569395 93203 L-568441 93104 L-567647 93006 L-566972 92957 L-566547 92858 L-566236 92809 L-566006 92661 L-565322 92513 L-565309 92365 L-565099 92168 L-565077 92119 L-564903 92020 L-563953 91971 L-563685 91872 L-562870 91823 L-562559 91724 L-562522 91675 L-562464 91577 L-561848 91527 L-561210 91429 L-559584 91379 L-558910 91330 L-558268 91330 L-558190 91330 L-558134 91330 L-558098 91330 L-558070 91281 L-557958 91182 L-557940 91133 L-557917 91084 L-557764 91034 L-557710 90936 L-557632 90887 L-557513 90837 L-557415 90788 L-557298 90739 L-557028 90640 L-556759 90591 L-556741 90492 L-556541 90443 L-556395 90344 L-556168 90295 L-556034 90246 L-555725 90197 L-555665 90147 L-555312 90049 L-554963 90000 L-554862 89950 L-554798 89852 L-554738 89802 L-554354 89704 L-553973 89655 L-553869 89605 L-553608 89556 L-553337 89457 L-553178 89408 L-553145 89359 L-553084 89310 L-552942 89260 L-552758 89211 L-552714 89162 L-552426 89162 L-552410 89112 L-552176 89112 L-552115 89063 L-552077 89063 L-551497 89014 L-551364 88965 L-551340 88767 L-551322 88422 L-551305 88028 L-551288 87634 L-551264 87240 L-551248 86944 L-551227 86599 L-551210 86254 L-551187 86057 L-551170 85860 L-551149 85712 L-551132 85613 L-551083 85465 L-551011 85317 L-550976 85071 L-550952 84874 L-550916 84677 L-550875 84480 L-550838 84381 L-550822 84184 L-550798 84036 L-550761 83937 L-550744 83790 L-550721 83691 L-550703 83592 L-550685 83494 L-550669 83395 L-550640 83247 L-550614 83100 L-550568 83050 L-550552 82952 L-550510 82902 L-550462 82804 L-550391 82705 L-550376 82607 L-550360 82508 L-550298 82459 L-550258 82410 L-550219 82360 L-550053 82311 L-549988 82262 L-549972 82212 L-549928 82114 L-549869 82065 L-549657 82015 L-549623 81966 L-549581 81917 L-549503 81867 L-548966 81818 L-548887 81769 L-548783 81670 L-548694 81621 L-548518 81572 L-548168 81522 L-548012 81473 L-547574 81424 L-547417 81375 L-547287 81325 L-546584 81227 L-546382 81177 L-545422 81079 L-544939 81030 L-544840 81030 L-544748 80980 L-544503 80931 L-544430 80882 L-543987 80783 L-543891 80734 L-543876 80685 L-543860 80635 L-543835 80586 L-543369 80537 L-543152 80487 L-543013 80438 L-542719 80389 L-542630 80340 L-542589 80290 L-542559 80241 L-542387 80192 L-542328 80142 L-542251 80093 L-542171 80044 L-542101 80044 L-541792 79995 L-541707 79945 L-541493 79896 L-541458 79847 L-540774 79797 L-540676 79748 L-540470 79699 L-540424 79650 L-540146 79600 L-540083 79551 L-540066 79452 L-539988 79403 L-539680 79305 L-539656 79255 L-539602 79157 L-539579 79107 L-539457 79058 L-539321 78960 L-539077 78910 L-538951 78910 L-538304 78861 L-538288 78861 L-538264 78861 L-538083 78762 L-538007 78713 L-537915 78664 L-537488 78615 L-537072 78565 L-536679 78467 L-536600 78417 L-536581 78368 L-536218 78319 L-535981 78270 L-535753 78220 L-535440 78171 L-535362 78122 L-535281 78023 L-535103 77925 L-535088 77875 L-534822 77777 L-534742 77727 L-534512 77678 L-534286 77629 L-533970 77629 L-533795 77580 L-533434 77580 L-533042 77530 L-532973 77432 L-532909 77382 L-532769 77284 L-532717 77235 L-532615 77136 L-532114 77087 L-531916 77037 L-531670 76988 L-531484 76939 L-531185 76890 L-531108 76840 L-530942 76742 L-530058 76692 L-530029 76594 L-529906 76495 L-529328 76446 L-529250 76397 L-528536 76397 L-528224 76397 L-528011 76397 L-527995 76397 L-527608 76397 L-527083 76298 L-526637 76249 L-526307 76200 L-526155 76150 L-525829 76150 L-525650 76101 L-525569 76101 L-525362 76002 L-525187 75953 L-524258 75904 L-523369 75855 L-523330 75805 L-523102 75805 L-522723 75756 L-521935 75707 L-521701 75657 L-521625 75608 L-521267 75559 L-520696 75460 L-520429 75411 L-520042 75362 L-519938 75362 L-519768 75362 L-519150 75362 L-518939 75362 L-518631 75362 L-518578 75312 L-518450 75263 L-518397 75214 L-518278 75165 L-517942 75066 L-516982 75017 L-516851 74918 L-516649 74869 L-516018 74820 L-515707 74770 L-515293 74721 L-515265 74672 L-515120 74622 L-514700 74573 L-513367 74573 L-513320 74524 L-513192 74425 L-513175 74376 L-512597 74277 L-512392 74228 L-512362 74179 L-512321 74130 L-512264 74080 L-512226 74031 L-512148 73982 L-512005 73932 L-511551 73883 L-511432 73834 L-511147 73785 L-510774 73735 L-510678 73686 L-510351 73637 L-509997 73587 L-509827 73538 L-509780 73489 L-509671 73440 L-509582 73390 L-509554 73341 L-509477 73242 L-509174 73193 L-509140 73095 L-509068 73045 L-508701 72996 L-508365 72947 L-508284 72947 L-508064 72897 L-507893 72848 L-507865 72799 L-507368 72750 L-506819 72651 L-505938 72602 L-505840 72503 L-505763 72454 L-505489 72405 L-505241 72306 L-505167 72257 L-505106 72158 L-504987 72109 L-504944 72060 L-504835 72010 L-504758 71912 L-504057 71862 L-503812 71813 L-503772 71764 L-503616 71715 L-503016 71715 L-502789 71715 L-502697 71715 L-502222 71715 L-501625 71616 L-501105 71567 L-501084 71517 L-500939 71468 L-500619 71468 L-500077 71468 L-499845 71468 L-499674 71468 L-499188 71419 L-498960 71370 L-498875 71320 L-498529 71271 L-498203 71271 L-497680 71222 L-497353 71172 L-496752 71123 L-496555 71025 L-496503 70975 L-496462 70926 L-496181 70877 L-495496 70778 L-495186 70729 L-495161 70630 L-494970 70581 L-494747 70532 L-494661 70482 L-493998 70384 L-493973 70335 L-493752 70236 L-493422 70187 L-493070 70088 L-492865 70039 L-492632 69940 L-492374 69891 L-492185 69793 L-492138 69743 L-491911 69694 L-491876 69645 L-491720 69595 L-491505 69546 L-491332 69497 L-491241 69448 L-490963 69398 L-490720 69349 L-490404 69300 L-489978 69300 L-489941 69300 L-489457 69300 L-489224 69300 L-489012 69250 L-488786 69201 L-488236 69201 L-487989 69152 L-487155 69152 L-487099 69103 L-487077 69053 L-486920 69004 L-486458 68955 L-486417 68905 L-486077 68807 L-485944 68758 L-485721 68708 L-485149 68659 L-484677 68610 L-484483 68560 L-484290 68511 L-484100 68462 L-483999 68413 L-483630 68363 L-483584 68314 L-483503 68265 L-482209 68215 L-482161 68166 L-481893 68166 L-481747 68166 L-481196 68166 L-481080 68117 L-480998 68068 L-480639 68018 L-480415 67969 L-480134 67920 L-479805 67821 L-479297 67772 L-479184 67723 L-479105 67673 L-478941 67624 L-478647 67624 L-478178 67624 L-477981 67673 L-477931 67673 L-477281 67624 L-477159 67575 L-476705 67575 L-476669 67525 L-476201 67476 L-476090 67427 L-476074 67378 L-475858 67378 L-475677 67328 L-475146 67328 L-474116 67328 L-473916 67279 L-473458 67230 L-472510 67131 L-472411 67082 L-472057 66983 L-471997 66934 L-471982 66885 L-471947 66835 L-471577 66786 L-471457 66737 L-471215 66688 L-471052 66638 L-470864 66589 L-470743 66540 L-469673 66441 L-468815 66392 L-468602 66293 L-468505 66244 L-468331 66145 L-467998 66096 L-467926 66047 L-467868 65998 L-467693 65998 L-467304 65948 L-467069 65899 L-466958 65850 L-466841 65800 L-465860 65751 L-465834 65702 L-465240 65603 L-465207 65603 L-465059 65554 L-464774 65505 L-463863 65505 L-462916 65505 L-462763 65455 L-462661 65455 L-462529 65406 L-462386 65357 L-462360 65308 L-462246 65258 L-462027 65209 L-461346 65160 L-461217 65110 L-460913 65061 L-460673 64963 L-460341 64913 L-459702 64864 L-459360 64765 L-459298 64716 L-459142 64716 L-458221 64716 L-457750 64716 L-457707 64716 L-457694 64667 L-457652 64618 L-457630 64568 L-457603 64519 L-457460 64470 L-457037 64420 L-456702 64420 L-456511 64371 L-456082 64371 L-455894 64322 L-455505 64223 L-454971 64174 L-454598 64125 L-454577 64125 L-454327 64075 L-454209 64026 L-454133 63977 L-453997 63928 L-453957 63878 L-453878 63829 L-453483 63780 L-452987 63730 L-452875 63632 L-452702 63583 L-452394 63533 L-451947 63484 L-451624 63435 L-451481 63336 L-451054 63238 L-450901 63139 L-450846 63040 L-450032 62991 L-450012 62942 L-449640 62893 L-449583 62893 L-448454 62843 L-448387 62843 L-447828 62794 L-447633 62745 L-447497 62695 L-447264 62646 L-446917 62597 L-446882 62498 L-446847 62449 L-446779 62350 L-446430 62301 L-446258 62252 L-445773 62203 L-445756 62153 L-445431 62104 L-445274 62055 L-444133 61956 L-444108 61907 L-443916 61808 L-443723 61759 L-443473 61710 L-443455 61660 L-442435 61611 L-442138 61562 L-442062 61513 L-441926 61414 L-441750 61365 L-441173 61266 L-440958 61217 L-440894 61168 L-440763 61118 L-440727 61020 L-440203 60970 L-440065 80389 L-440051 80389 L-440028 80389 L-440008 80389 L-439781 60921 L-439005 60921 L-438963 60921 L-438596 60921 L-438517 60872 L-438465 60823 L-437792 60773 L-437050 60724 L-436625 60724 L-436177 60675 L-435115 60625 L-434804 60527 L-434394 60527 L-434322 60478 L-433797 60478 L-433703 60478 L-433685 60478 L-433240 60428 L-433055 60330 L-432275 60231 L-431602 60182 L-431190 60034 L-430958 59935 L-430818 59886 L-430736 59788 L-430716 59738 L-430640 59738 L-430511 59689 L-430195 59738 L-429970 59738 L-429645 59689 L-429583 59689 L-429213 59689 L-429180 59689 L-428971 59689 L-428304 59689 L-428226 59689 L-428069 59590 L-427958 59590 L-427631 59541 L-427477 59492 L-427136 59492 L-427079 59393 L-426740 59295 L-426537 59245 L-426484 59147 L-425107 59098 L-424978 59048 L-424544 58999 L-424224 58950 L-423396 58851 L-423273 58802 L-422542 58703 L-422386 58605 L-422345 58555 L-422292 58506 L-422268 58457 L-422154 58408 L-421858 58358 L-421568 58309 L-421514 58260 L-421393 58210 L-421363 58161 L-421263 58112 L-420819 58112 L-420668 58063 L-419832 58063 L-419290 58013 L-418956 58013 L-418940 57964 L-418864 57915 L-418748 57865 L-418553 57816 L-418289 57767 L-417455 57718 L-417358 57668 L-416837 57619 L-416795 57570 L-416696 57520 L-415868 57520 L-415733 57471 L-415394 57471 L-414840 57422 L-414460 57373 L-414297 57323 L-413987 57274 L-413175 57225 L-412869 57175 L-412600 57175 L-412278 57175 L-411958 57225 L-411682 57225 L-410854 57126 L-410758 57077 L-410666 56929 L-410561 56781 L-410175 56633 L-409695 56535 L-409678 56485 L-409560 56436 L-409192 56338 L-409097 56288 L-408263 56190 L-408186 56140 L-407886 56091 L-407796 56042 L-407388 55943 L-407278 55845 L-406579 55795 L-406106 55746 L-406046 55697 L-405827 55598 L-405553 55549 L-405440 55500 L-404413 55450 L-404026 55401 L-404006 55352 L-403673 55303 L-403429 55253 L-402995 55204 L-402885 55155 L-402768 55105 L-402316 55007 L-401726 54958 L-401389 54908 L-399496 54859 L-399382 54760 L-399171 54711 L-397852 54662 L-397746 43573 L-397680 32631 L-397644 22528 L-397582 22528 L-397082 33518 L-396407 44361 L-396385 54366 L-396115 54268 L-395147 54268 L-394458 54218 L-394296 54169 L-393755 54120 L-393665 54070 L-392646 54021 L-391698 53923 L-391332 53972 L-391230 54021 L-390641 54021 L-390582 54021 L-390481 53972 L-390041 53873 L-389934 53824 L-389492 53775 L-388492 53627 L-388236 53479 L-388133 53331 L-388003 53233 L-387636 53134 L-387055 53035 L-387024 52986 L-386709 52937 L-384726 52888 L-384610 52838 L-384542 52838 L-384184 52789 L-382565 52740 L-382388 52740 L-382243 52740 L-381421 52789 L-381368 52838 L-381314 52838 L-380879 52838 L-379899 52888 L-379825 52888 L-378740 52838 L-378527 52838 L-377811 52740 L-377423 52690 L-377204 52592 L-376885 52493 L-376391 52395 L-376263 52345 L-376034 52247 L-375802 52148 L-375743 52099 L-375453 52050 L-375181 51951 L-374151 51902 L-372486 51853 L-372067 51803 L-371930 51754 L-371773 51754 L-371468 51705 L-371240 51606 L-371082 51557 L-370922 51458 L-370753 51360 L-370706 51310 L-370653 51261 L-370631 51261 L-370245 51212 L-369995 51212 L-369724 51212 L-369564 51212 L-369474 51212 L-367815 51212 L-367650 51261 L-367270 51212 L-366810 51212 L-366201 51113 L-365108 51064 L-364676 51015 L-364645 50965 L-364583 50916 L-364565 50867 L-362861 50818 L-362819 50768 L-362353 50719 L-362166 50670 L-362134 50571 L-361539 50522 L-361489 50473 L-361166 50423 L-361116 50374 L-360905 50325 L-360887 50275 L-360621 50177 L-360568 50128 L-360099 50078 L-359589 49980 L-359510 49980 L-359216 49931 L-359199 49881 L-359161 49832 L-359090 49783 L-358933 49733 L-357986 49733 L-357930 49733 L-357409 49733 L-357217 49684 L-357116 49684 L-356890 49635 L-356380 49635 L-355992 50965 L-355922 50965 L-355574 50916 L-355217 50867 L-354088 49438 L-354037 49339 L-353811 49290 L-353777 49241 L-353652 49142 L-353553 49142 L-353289 49142 L-352548 49191 L-351970 49191 L-351676 49191 L-350970 49191 L-350792 49142 L-350768 49142 L-350133 49093 L-349821 49043 L-349425 49043 L-349395 48994 L-349374 48945 L-349220 48896 L-348535 48896 L-348519 48896 L-348179 48896 L-347906 48846 L-347869 48797 L-347813 48698 L-347791 48649 L-347719 48600 L-347387 48551 L-347281 48501 L-347252 48403 L-347054 48353 L-346901 48304 L-346033 48255 L-345471 48156 L-345455 48156 L-345353 48107 L-345251 48156 L-345105 48156 L-345026 48156 L-344989 48107 L-344933 48058 L-344860 48008 L-344715 47959 L-344233 47959 L-343829 47910 L-342962 47959 L-342942 47959 L-342685 47959 L-342608 47959 L-342579 47910 L-342568 47811 L-342551 47762 L-342258 47713 L-342219 47663 L-342147 47614 L-342073 47565 L-341868 47516 L-341709 47368 L-341407 47220 L-341330 47023 L-341313 46875 L-341096 46776 L-340865 46776 L-340755 46826 L-340385 46875 L-340227 46875 L-339996 46875 L-339827 46875 L-339682 46826 L-339550 46776 L-338274 46678 L-337871 46579 L-337810 46530 L-337693 46431 L-337268 46382 L-337253 46283 L-337191 46234 L-336917 46136 L-336805 46086 L-336523 45988 L-336245 45938 L-335820 45840 L-335798 45791 L-335720 45741 L-335594 45692 L-335008 45643 L-334616 45593 L-334281 45544 L-333692 45495 L-333589 45495 L-333419 45446 L-333283 45446 L-332455 45396 L-331270 45347 L-331234 45298 L-331178 45298 L-330958 45248 L-330753 45248 L-330598 45248 L-330341 45199 L-330265 45150 L-329722 45101 L-329686 45051 L-329437 45002 L-329050 44953 L-328224 44903 L-327866 44854 L-327555 44854 L-327297 44805 L-327074 44756 L-326667 44706 L-326551 44657 L-326367 44608 L-326314 44608 L-326126 44558 L-325955 44509 L-325926 44460 L-325646 44411 L-325335 44361 L-325197 44312 L-324888 44263 L-324694 44263 L-324678 44213 L-323959 44213 L-323825 44115 L-323528 44066 L-323437 44016 L-322837 44016 L-322798 43967 L-322720 43918 L-322099 43868 L-321948 43770 L-321907 43721 L-321597 43671 L-321405 43622 L-321212 43523 L-321156 43425 L-320848 43376 L-320795 43326 L-320741 43376 L-320715 43376 L-320590 43376 L-319780 43326 L-319703 43277 L-319163 43228 L-318894 43178 L-318234 43129 L-317327 43080 L-317085 43031 L-316553 42981 L-316336 42932 L-315228 42981 L-315178 42981 L-314403 42981 L-313855 42932 L-313744 42883 L-313591 42784 L-313536 42735 L-313370 42686 L-312993 42636 L-312546 42587 L-312491 42538 L-312336 42488 L-311656 42439 L-311436 42390 L-310918 42341 L-310069 42242 L-310053 42193 L-308262 42143 L-307708 42094 L-307591 42045 L-306585 41996 L-306549 41946 L-306316 41946 L-306223 41946 L-306183 41946 L-305851 41897 L-305499 41848 L-305234 41749 L-304947 41700 L-304637 41601 L-304383 41503 L-304289 41453 L-303799 41404 L-303592 41355 L-303026 41306 L-302912 41355 L-302560 41306 L-302509 41306 L-302469 41306 L-301865 41207 L-301132 41108 L-300550 41010 L-300315 40911 L-299775 40763 L-299622 40665 L-299120 40616 L-298911 40517 L-298888 40517 L-298829 40468 L-297866 40468 L-297689 40418 L-297247 40369 L-297222 40271 L-297067 40221 L-296986 40221 L-296835 40271 L-296189 40271 L-296139 40221 L-295019 40172 L-294035 40123 L-293973 40073 L-293253 40024 L-292388 39975 L-292009 39926 L-291790 39926 L-291031 39876 L-290979 39827 L-290669 39728 L-289818 39728 L-289625 39679 L-289448 39630 L-289224 39630 L-289097 39581 L-288905 39581 L-288673 39531 L-288503 39581 L-288216 39531 L-287937 39531 L-287854 39482 L-287683 39433 L-287667 39334 L-287513 39285 L-287474 39236 L-286698 39186 L-286622 39186 L-286390 39088 L-285963 39038 L-285617 38989 L-285034 38940 L-284765 38940 L-284506 38940 L-284377 38841 L-284361 38792 L-284247 38743 L-284223 38693 L-283989 38644 L-283953 38595 L-282637 38595 L-282581 38546 L-281902 38447 L-281330 38447 L-281204 38447 L-281051 38447 L-280974 38447 L-280662 38348 L-280389 38299 L-280300 38201 L-280198 38201 L-279270 38151 L-279194 38151 L-278830 38151 L-278806 38102 L-278769 38053 L-277994 37954 L-277902 37905 L-277762 37856 L-277360 37806 L-277098 37806 L-276855 37856 L-276641 37806 L-276560 37806 L-276484 37806 L-276407 37806 L-276221 37856 L-276154 37856 L-275905 37856 L-275850 37806 L-275712 37757 L-275632 37658 L-275519 37609 L-275296 37560 L-275132 37511 L-275091 37461 L-274921 37412 L-274550 37363 L-274536 37313 L-274420 37264 L-273698 37215 L-273662 37166 L-273529 37166 L-273182 37116 L-272770 37116 L-272734 37116 L-272656 37067 L-272617 37018 L-272253 36968 L-272049 36919 L-272034 36870 L-271688 36821 L-271340 36821 L-271014 36821 L-270912 36771 L-270760 36771 L-270565 36722 L-270334 36722 L-270241 36722 L-270085 36722 L-270008 36722 L-269968 36673 L-269854 36623 L-269831 36574 L-269580 36574 L-269441 36476 L-268863 36328 L-268035 36229 L-267547 36131 L-267426 36081 L-267387 36032 L-267375 35983 L-267223 35884 L-267122 35786 L-266889 35736 L-266498 35638 L-266194 35588 L-266178 35539 L-266008 35490 L-265769 35391 L-265173 35391 L-264569 35342 L-264529 35342 L-264489 35342 L-264336 35293 L-264283 35243 L-264220 35194 L-264152 35145 L-264097 35046 L-264072 34997 L-264025 34948 L-263931 34849 L-263794 34800 L-263640 34751 L-263508 34701 L-263467 34701 L-263432 34652 L-263370 34603 L-263097 34504 L-262782 34455 L-262741 34356 L-262656 34307 L-262479 34258 L-262241 34208 L-261884 34159 L-261854 34110 L-261285 34061 L-261162 34011 L-260926 33962 L-260903 33962 L-260622 33913 L-260336 33913 L-260081 33913 L-259509 33863 L-259212 33814 L-259136 33765 L-258437 33716 L-258359 33666 L-258324 33617 L-258298 33568 L-258246 33469 L-258053 33420 L-257912 33321 L-257876 33272 L-257836 33223 L-257241 33173 L-257008 33124 L-256725 33469 L-256670 33765 L-256597 34110 L-256518 34406 L-256282 34307 L-256038 34258 L-255903 34208 L-255796 34159 L-255717 34110 L-255330 34011 L-255203 33962 L-255050 33913 L-255012 33863 L-254867 33814 L-254645 33765 L-254471 33716 L-254402 33666 L-253581 33568 L-253564 33568 L-253270 33518 L-252482 33469 L-252172 33469 L-252026 33420 L-251798 33371 L-251597 33272 L-250660 33223 L-250623 33173 L-250601 33124 L-250560 33026 L-250291 32976 L-249695 32927 L-249631 32878 L-249596 32828 L-249579 32779 L-248884 32779 L-248682 32779 L-248650 32779 L-248317 32779 L-248209 32730 L-247585 32631 L-247080 32582 L-247043 32483 L-246601 32483 L-246505 32434 L-246346 32434 L-246033 32434 L-246021 32434 L-245580 32483 L-245098 32533 L-244969 32533 L-244649 32533 L-244581 32483 L-244277 32483 L-244101 32434 L-243907 32385 L-243664 32286 L-243467 32188 L-243441 32089 L-242863 32040 L-242793 31991 L-242384 31941 L-242329 31892 L-242283 31843 L-241919 31793 L-241773 31744 L-241567 31695 L-241471 31695 L-241316 31646 L-241255 31596 L-241107 31498 L-241006 31448 L-240449 31448 L-240427 31547 L-240255 31596 L-239713 31646 L-239652 31646 L-239598 31547 L-239570 31448 L-239498 31399 L-239482 31301 L-239419 31251 L-239382 31153 L-239228 31103 L-238902 31054 L-238336 31005 L-238321 30956 L-238259 30857 L-238158 30758 L-238111 30758 L-237869 30709 L-237447 30709 L-237292 30709 L-235550 30611 L-235009 30561 L-234065 30512 L-233656 30463 L-233115 30364 L-232918 30315 L-232750 30266 L-232454 30216 L-232339 30167 L-232324 30167 L-232169 30118 L-232029 30068 L-231953 29970 L-231821 29970 L-231473 29970 L-231102 30019 L-230505 30019 L-230329 30019 L-230173 29970 L-229904 29921 L-229752 29921 L-229461 30068 L-229437 30167 L-229354 30266 L-229127 30364 L-228427 30315 L-228300 30266 L-227869 30216 L-227775 30167 L-226570 30167 L-226521 30118 L-226228 30118 L-225824 30068 L-225548 29970 L-225529 29921 L-225411 29871 L-225335 29822 L-225154 29773 L-224674 29724 L-224222 29625 L-223812 29576 L-223782 29526 L-223363 29477 L-223249 29477 L-223131 29477 L-223116 29477 L-222922 29428 L-222900 29329 L-222668 29280 L-222225 29231 L-221905 29132 L-221441 29132 L-221275 29083 L-221120 29034 L-220964 29034 L-220511 29034 L-220192 29034 L-220137 29083 L-219766 29083 L-219728 29132 L-219402 29132 L-219285 29083 L-219186 29034 L-218860 28935 L-218473 28886 L-218212 28836 L-217854 28738 L-217598 28689 L-215427 28639 L-215378 28590 L-215356 28541 L-214944 28541 L-214882 28541 L-214812 28590 L-214581 28590 L-214271 28541 L-213967 28442 L-213923 28393 L-213615 28344 L-213482 28294 L-213266 28245 L-212554 28196 L-212398 28196 L-212260 28146 L-212111 28146 L-212090 28146 L-211896 28097 L-211871 28048 L-211779 27999 L-211758 27949 L-211741 27900 L-211641 27851 L-210712 27801 L-210254 27801 L-209162 27703 L-208740 27703 L-208336 27654 L-208297 27604 L-208044 27555 L-207269 27456 L-207253 27407 L-207229 27358 L-207036 27309 L-206299 27259 L-206030 27210 L-205990 27161 L-205591 27062 L-205566 27013 L-204776 26964 L-204096 26914 L-202725 26865 L-202455 26816 L-202407 26766 L-201869 26668 L-201836 26619 L-201734 26520 L-201411 26471 L-201331 26421 L-201062 26421 L-200150 26372 L-200011 26372 L-199762 26274 L-199217 26274 L-198795 26224 L-198602 26175 L-198586 26175 L-198448 26076 L-198354 26027 L-198227 25978 L-197967 25929 L-197942 25830 L-197851 25781 L-197541 25731 L-197481 25682 L-197364 25682 L-197014 25682 L-196203 25682 L-195972 25584 L-195143 25584 L-194911 25485 L-194694 25436 L-194176 25436 L-193538 25386 L-193121 25337 L-192799 25288 L-192318 25239 L-191893 25239 L-191832 25189 L-191483 25189 L-191443 25140 L-191429 25091 L-191329 24992 L-191284 24992 L-190798 24943 L-189997 24943 L-189663 24943 L-188581 24894 L-188101 24844 L-188078 24795 L-187938 24746 L-187383 24696 L-186686 24647 L-186377 24598 L-186155 24549 L-186050 24499 L-185948 24401 L-185277 24351 L-185183 24302 L-185161 24302 L-185083 24253 L-184905 24253 L-184733 24253 L-184553 24204 L-184539 24154 L-184463 24105 L-184299 24056 L-183784 24006 L-183768 23957 L-183628 23957 L-183265 23908 L-183241 23908 L-183110 23859 L-183086 23809 L-182723 23760 L-182198 23661 L-182104 23612 L-181888 23514 L-181795 23464 L-181770 23415 L-181306 23366 L-181229 23366 L-180827 23316 L-180377 23316 L-179125 23267 L-179086 23218 L-178655 23169 L-178622 23119 L-177903 23070 L-177727 23021 L-177591 22971 L-177284 22922 L-177229 22873 L-177205 22774 L-177188 22676 L-177013 22626 L-176824 22577 L-176316 22577 L-175943 22183 L-175604 21739 L-175566 21345 L-174847 21000 L-174753 20951 L-174714 20901 L-174173 20901 L-174150 20852 L-173747 20803 L-173321 20754 L-173050 20754 L-172871 20704 L-172625 20606 L-172602 20556 L-172545 20458 L-171928 20409 L-171426 20359 L-171039 20359 L-170420 20409 L-170204 20409 L-170048 20458 L-168756 20359 L-168657 20310 L-168214 20211 L-167883 20162 L-167583 20064 L-167340 20014 L-166605 19916 L-166026 19866 L-165197 19817 L-165096 19768 L-164539 19719 L-164401 19669 L-162759 19620 L-162698 19620 L-162604 19620 L-161637 19620 L-161460 19571 L-161173 19571 L-160955 19571 L-160877 19521 L-160605 19521 L-160490 19472 L-160337 19423 L-160027 19374 L-159948 19324 L-159857 19324 L-159780 19275 L-159664 19275 L-159485 19226 L-159393 19176 L-159354 19127 L-158851 19127 L-158633 19078 L-158503 19078 L-158348 19029 L-158294 18979 L-158169 18979 L-157784 18930 L-157276 18881 L-157203 18831 L-156723 18782 L-156646 18733 L-156546 18733 L-156313 18684 L-155848 18684 L-155618 18684 L-155601 18684 L-155369 18684 L-155214 18684 L-155153 18684 L-154960 18634 L-154689 18536 L-153938 18486 L-152984 18486 L-152948 18437 L-152723 18437 L-152284 18437 L-152003 18339 L-151655 18289 L-150585 18240 L-149658 18240 L-149527 18240 L-149480 18240 L-149411 18191 L-149256 18191 L-149179 18092 L-149005 17994 L-148570 17895 L-148366 17846 L-148306 17747 L-147723 17698 L-147569 17599 L-147454 17550 L-147413 17501 L-147244 17451 L-147107 17402 L-146896 17304 L-146818 17254 L-146795 17205 L-146586 17106 L-146176 17057 L-146152 17008 L-145929 16959 L-145783 16909 L-145749 16860 L-145735 16811 L-145713 16761 L-145479 16712 L-145294 16663 L-145077 16614 L-145051 16564 L-144362 16515 L-144259 16466 L-144223 16416 L-144202 16367 L-144008 16318 L-143955 16269 L-143838 16170 L-143757 16170 L-143646 16121 L-143331 16071 L-142872 16022 L-142617 15973 L-142383 15874 L-142253 15825 L-141900 15776 L-141841 15726 L-141688 15677 L-141116 15579 L-141030 15529 L-140876 15431 L-140580 15332 L-140210 15234 L-139907 15135 L-139831 15086 L-139426 15036 L-139258 15036 L-139114 15036 L-138574 15036 L-138513 15036 L-138497 14938 L-138331 14889 L-138125 14839 L-138051 14839 L-137958 14790 L-137548 14741 L-137532 14691 L-137509 14691 L-137316 14642 L-137239 15086 L-137068 15529 L-137006 15924 L-136991 16367 L-136476 16318 L-136255 16269 L-135636 16170 L-135382 16121 L-135188 16071 L-135149 16022 L-135076 16022 L-135011 16022 L-134360 16022 L-134321 16071 L-134147 16071 L-134081 16071 L-133407 16071 L-133018 15973 L-132756 15924 L-132519 15874 L-132441 15776 L-132425 15677 L-132223 15628 L-131853 15529 L-131627 15480 L-130992 15431 L-130971 15431 L-130584 15381 L-130491 15381 L-130433 15332 L-130157 15283 L-129847 15283 L-129770 15234 L-128919 15283 L-128576 15529 L-128139 15825 L-127705 16071 L-127210 16318 L-127061 16269 L-126792 16318 L-125554 16367 L-125498 16466 L-123734 16515 L-123543 16466 L-122533 16416 L-122382 16367 L-122007 16466 L-121686 16564 L-121080 16663 L-121011 16761 L-120834 16712 L-120005 16663 L-119866 16614 L-119480 16564 L-119295 16515 L-119252 16466 L-119132 16416 L-118922 16367 L-118474 16269 L-118126 16219 L-117994 16170 L-117585 16121 L-117235 16121 L-116950 16071 L-116756 16022 L-116601 16022 L-116438 15973 L-116369 15924 L-116269 15924 L-116036 15874 L-115920 15874 L-115866 15825 L-115324 15825 L-114860 15776 L-113678 15776 L-113545 15776 L-113520 15776 L-113467 15776 L-112800 15776 L-111765 15677 L-111571 15628 L-111392 15579 L-111240 15579 L-111199 15529 L-111184 15529 L-111123 15480 L-110798 15431 L-109637 15381 L-109444 15332 L-109266 15283 L-108152 15234 L-107293 15184 L-107186 15184 L-106713 15135 L-106520 15135 L-104198 15086 L-104121 15036 L-104000 14938 L-103965 14889 L-103928 14790 L-103833 14642 L-103618 14544 L-103036 14445 L-102650 14396 L-101877 14346 L-101799 14297 L-101102 14297 L-100561 14297 L-100520 14248 L-100390 14248 L-99925 14199 L-99887 14149 L-99752 14100 L-99384 14051 L-99354 14001 L-99204 14001 L-98804 13952 L-96980 14001 L-96173 13952 L-95454 13952 L-95437 13952 L-95124 13854 L-94562 13804 L-94061 13755 L-93542 13706 L-93520 13656 L-91776 13607 L-91607 13558 L-91412 13509 L-90518 13459 L-89999 13361 L-89789 13311 L-89531 13262 L-88822 13213 L-87871 13164 L-87213 13114 L-87174 13016 L-86887 12966 L-86805 12917 L-86709 12917 L-86577 12868 L-86500 12868 L-85765 12868 L-85428 12819 L-85378 12868 L-85123 12868 L-84837 12819 L-84411 12819 L-83830 12769 L-83572 12769 L-83420 12720 L-83173 12720 L-83134 12720 L-82337 12671 L-82299 12621 L-82122 12621 L-81713 12523 L-81485 12523 L-81408 12523 L-81277 12523 L-81161 12474 L-80813 12424 L-80749 12375 L-80597 12326 L-79856 12276 L-79745 12227 L-79575 12178 L-79536 12129 L-79241 12129 L-78839 12129 L-78663 12129 L-78569 12129 L-78259 12079 L-77458 12030 L-76999 11931 L-76479 11882 L-75991 11833 L-75295 11784 L-74249 11734 L-73980 11734 L-73926 11685 L-73765 11685 L-73514 11685 L-73268 11636 L-73189 11586 L-72975 11488 L-72663 11439 L-72199 11340 L-72185 11291 L-71888 11291 L-71875 11241 L-70884 11192 L-70212 11143 L-69877 11044 L-69260 11044 L-69123 10995 L-68485 10946 L-68354 10896 L-67403 10798 L-67304 10699 L-66744 10650 L-66336 10650 L-65907 10650 L-65816 10601 L-64982 10601 L-64618 10601 L-64579 10650 L-64447 10699 L-64270 10699 L-64053 10699 L-63999 10650 L-63842 10551 L-63589 10502 L-62489 10453 L-62412 10404 L-62192 10354 L-62061 10256 L-62025 10206 L-61832 10157 L-61732 10108 L-61249 10059 L-60964 10009 L-60804 9960 L-60709 9862 L-60438 9812 L-60168 9763 L-60152 9566 L-60013 9418 L-59875 9270 L-59548 9073 L-59239 8974 L-59199 8925 L-59123 8827 L-59007 8777 L-58157 8679 L-57830 8629 L-57499 8580 L-57366 8580 L-57150 8580 L-57134 8580 L-56454 8580 L-56360 8482 L-56337 8432 L-56321 8334 L-56283 8284 L-55871 8186 L-55602 8137 L-55562 8087 L-55193 8087 L-54983 8038 L-53901 8038 L-53884 7989 L-53856 7939 L-53835 7939 L-53458 7841 L-53203 7792 L-52955 7693 L-52816 7594 L-52684 7545 L-52352 7496 L-52259 7447 L-52198 7397 L-51640 7348 L-51579 7299 L-51423 7249 L-51229 7200 L-51037 7151 L-51021 7102 L-50982 7052 L-50944 7003 L-50673 6954 L-50550 6904 L-50517 6855 L-50418 6855 L-50262 6855 L-50121 6855 L-49837 6806 L-49512 6806 L-48816 6757 L-48793 6757 L-48283 6757 L-47438 6757 L-47074 6707 L-46920 6658 L-46316 6658 L-46146 6658 L-46085 6658 L-46030 6609 L-44974 6559 L-44956 6559 L-44050 6559 L-44029 6559 L-43862 6510 L-43619 6510 L-43569 6461 L-43515 6362 L-43377 6313 L-43338 6264 L-42409 6214 L-42354 6214 L-42232 6214 L-42161 6214 L-42045 6214 L-41866 6264 L-40884 6214 L-40745 6214 L-40627 6116 L-40332 6017 L-40085 5968 L-40048 5919 L-39994 5968 L-39972 5968 L-39839 5968 L-39760 5968 L-39622 5919 L-38999 5919 L-38833 5869 L-38369 5869 L-38192 5771 L-38176 5722 L-38115 5672 L-37999 5623 L-37516 5574 L-36821 5524 L-36448 5475 L-36279 5426 L-35313 5377 L-35158 5327 L-34980 5327 L-34887 5278 L-34632 5278 L-34461 5278 L-33814 5229 L-33803 5229 L-33223 5179 L-33085 5179 L-33030 5081 L-32295 5032 L-32256 4982 L-32179 4982 L-31537 4933 L-30762 4933 L-30670 4884 L-30621 4884 L-30606 4834 L-30569 4834 L-30553 4736 L-30490 4687 L-30474 4637 L-30454 4637 L-30299 4588 L-30260 4539 L-30244 4489 L-30205 4440 L-30066 4391 L-29989 4342 L-29625 4292 L-29277 4243 L-28503 4194 L-27901 4144 L-27705 4095 L-27474 4095 L-27337 4046 L-26699 4046 L-26409 3997 L-26388 3997 L-25928 3947 L-25695 3947 L-25640 3898 L-25601 3849 L-25098 3799 L-24548 3750 L-23760 3701 L-22637 3701 L-21743 3652 L-21655 3652 L-21356 3602 L-21284 3553 L-21168 3504 L-19991 3454 L-19643 3405 L-19621 3356 L-19101 3307 L-18955 3257 L-18846 3208 L-18637 3159 L-18482 3109 L-18460 3060 L-18266 3011 L-18189 2962 L-18045 2912 L-17244 2863 L-17098 2814 L-16818 2764 L-16641 2715 L-16331 2666 L-15520 2617 L-14591 2617 L-13000 2567 L-12756 2518 L-12115 2469 L-11920 2419 L-11842 2370 L-11324 2321 L-11092 2321 L-11069 2272 L-10937 2272 L-10598 2222 L-10587 2173 L-10371 2124 L-10334 2074 L-9792 2025 L-9263 1927 L-9196 1877 L-8903 1828 L-8355 1729 L-8320 1680 L-8267 1631 L-8168 1532 L-7935 1532 L-7355 1532 L-7258 1582 L-7183 1582 L-6851 1532 L-6101 1483 L-6062 1434 L-5383 1434 L-5228 1434 L-4902 1384 L-4686 1335 L-4454 1335 L-4158 1286 L-3912 1237 L-3561 1187 L-3508 1138 L-2748 1089 L-2055 990 L-1704 892 L-1240 842 L-607 793 L-198 744 L-120 793 L305 793 L947 744 L1116 744 L1858 694 L2046 645 L2341 596 L2913 547 L2938 497 L3958 497 L4445 448 L4538 448 L4599 399 L4887 349 L5173 300 L5234 251 L5414 251 L6125 202 L6301 152 L6500 103" />
</svg>
