<svg xmlns="http://www.w3.org/2000/svg" version="1.1" viewBox="0 0 6500 1000">
	<path fill="none" stroke="gold" stroke-width="125" stroke-linecap="round" stroke-linejoin="round" d="M0 917  L-20505 917 L-20093 893 L-19868 905 L-19811 893 L-19773 869 L-19589 845 L-19099 822 L-18805 810 L-18494 798 L-18259 774 L-18206 750 L-18147 726 L-17994 714 L-17953 702 L-17820 691 L-17528 702 L-16987 691 L-16377 667 L-16329 691 L-15689 667 L-15656 679 L-15130 655 L-14998 643 L-14607 595 L-14279 571 L-14162 548 L-13951 571 L-13234 559 L-12664 548 L-12557 536 L-12382 512 L-12161 488 L-11759 476 L-11734 452 L-10806 428 L-10718 405 L-10636 381 L-10566 357 L-10269 345 L-10117 333 L-8226 405 L-8126 369 L-7863 345 L-7570 369 L-7428 345 L-7179 333 L-7144 321 L-6985 297 L-6522 286 L-6269 262 L-6057 250 L-5805 238 L-5456 214 L-4529 190 L-4435 166 L-4025 154 L-2854 143 L-1665 119 L-1572 95 L-1545 71 L-1279 35 L-980 12 L-851 0 L-814 -23 L0 59 L384 47 L1444 23 L1506 12 L1771 976 L2242 964 L2434 941 L2698 929 L3035 917 L3170 929 L3626 893 L4369 881 L4387 857 L4552 845 L4620 869 L5136 857 L6165 833 L6361 810" />
</svg>
