<svg xmlns="http://www.w3.org/2000/svg" version="1.1" viewBox="0 0 6500 1000">
	<path fill="none" stroke="gold" stroke-width="125" stroke-linecap="round" stroke-linejoin="round" d="M0 42947  L-347539 42947 L-347355 42914 L-346865 42850 L-346571 42817 L-346260 42752 L-346025 42720 L-345972 42655 L-345913 42591 L-345760 42558 L-345719 42494 L-345586 42461 L-345294 42429 L-344753 42429 L-344143 42396 L-344095 42396 L-343455 42364 L-343422 42364 L-342896 42364 L-342764 42332 L-342373 42267 L-342045 42202 L-341928 42137 L-341717 42073 L-341000 42073 L-340430 42040 L-340323 42040 L-340148 42008 L-339927 41943 L-339525 41911 L-339500 41846 L-338572 41781 L-338484 41717 L-338402 41652 L-338332 41587 L-338034 41555 L-337882 41490 L-335992 41522 L-335892 41522 L-335629 41522 L-335336 41555 L-335194 41490 L-334945 41490 L-334910 41458 L-334751 41425 L-334288 41360 L-334035 41328 L-333823 41263 L-333571 41231 L-333222 41199 L-332295 41134 L-332201 41069 L-331791 41037 L-330620 40972 L-329431 40940 L-329338 40875 L-329311 40810 L-329045 40745 L-328746 40681 L-328617 40616 L-328580 40551 L-327765 40551 L-327381 40584 L-326321 40616 L-326259 40616 L-325994 41263 L-325523 41878 L-325331 42494 L-325067 43109 L-324730 43076 L-324595 43044 L-324139 43011 L-323396 42979 L-323378 42947 L-323213 42882 L-323145 42882 L-322629 42850 L-321600 42850 L-321404 42817 L-320915 42785 L-320553 42752 L-320145 42752 L-319759 42785 L-318055 42785 L-317957 42785 L-317886 42785 L-317824 42785 L-317640 42752 L-317303 42752 L-316663 42720 L-316586 42688 L-316525 42688 L-316338 42655 L-316259 42655 L-316081 42623 L-316062 42591 L-315832 42591 L-315444 42558 L-314556 42558 L-314516 42526 L-314428 42494 L-314401 42429 L-313393 42396 L-313243 42332 L-313219 42299 L-313086 42267 L-313046 42235 L-311788 42202 L-311730 42202 L-311190 42170 L-311138 42170 L-311091 42170 L-310696 42137 L-310556 42105 L-310357 42073 L-310210 42073 L-310045 42073 L-309769 42105 L-309410 42105 L-308857 42073 L-308212 42040 L-307954 41976 L-307800 41943 L-307399 41911 L-307359 41878 L-307238 41846 L-307176 41878 L-307162 41878 L-307069 41878 L-306776 41846 L-306624 41717 L-306294 41652 L-306216 41587 L-306140 41555 L-305914 41458 L-305847 41393 L-305619 41328 L-305567 41263 L-305402 41231 L-304396 41199 L-304213 41166 L-303662 41134 L-303269 41069 L-302872 41037 L-302021 40972 L-301943 40940 L-301364 40907 L-300923 40907 L-300682 40875 L-300525 40875 L-300124 40810 L-300103 40810 L-299658 40778 L-299253 40745 L-299117 40681 L-298942 40616 L-298806 40551 L-298555 40486 L-297555 40454 L-297473 40422 L-297338 40389 L-297299 40357 L-296409 40325 L-296194 40292 L-295750 40260 L-295633 40227 L-295576 40195 L-294900 40195 L-294800 40163 L-294771 40163 L-293429 40130 L-293023 40098 L-292984 40066 L-292055 40033 L-291957 40001 L-291824 39968 L-291420 39936 L-291394 39904 L-291301 39871 L-291085 39839 L-290674 39774 L-289520 39709 L-289228 39645 L-289200 39580 L-288592 39548 L-288341 39483 L-288322 39450 L-287392 39418 L-287341 39353 L-287219 39321 L-287201 39256 L-287045 39224 L-286870 39159 L-286733 39127 L-286677 39094 L-286569 39062 L-286484 39030 L-286250 38997 L-286176 38965 L-285867 38932 L-285749 38900 L-285579 38868 L-285488 38835 L-285386 38835 L-285362 38803 L-285285 38803 L-285187 38738 L-284821 38706 L-284716 38674 L-284212 38641 L-283761 38609 L-283722 38576 L-283698 38544 L-283658 38512 L-283529 38479 L-283428 38447 L-282986 38415 L-282704 38382 L-282112 38350 L-281981 38317 L-281707 38253 L-281555 38220 L-281401 38188 L-281316 38123 L-281238 38091 L-281052 38058 L-281002 38058 L-280974 38026 L-280895 37994 L-280871 37961 L-280588 37897 L-279984 37832 L-278989 37799 L-278691 37767 L-277957 37735 L-277713 37702 L-277623 37670 L-277045 37638 L-276347 37605 L-275595 37573 L-275276 37540 L-274893 37476 L-274816 37443 L-274182 37411 L-273996 37379 L-273909 37379 L-273779 37379 L-273466 37346 L-273417 37314 L-273275 37281 L-273253 37249 L-272286 37217 L-271740 37184 L-271262 37184 L-271201 37184 L-270877 37184 L-270856 37152 L-270793 37152 L-270583 37120 L-270506 37087 L-270452 37055 L-270429 37022 L-270390 36990 L-270374 36958 L-269617 36925 L-269600 36893 L-268801 36861 L-268649 36828 L-267743 36796 L-267237 36764 L-267008 36699 L-266966 36699 L-266851 36666 L-266675 36634 L-265920 36666 L-265786 36634 L-265622 36602 L-265303 36569 L-265127 36505 L-264105 36440 L-264082 36375 L-263831 36343 L-263618 36278 L-262984 36246 L-262746 36181 L-262713 36116 L-262535 36051 L-262455 35987 L-262365 35954 L-262301 35889 L-261861 35825 L-261837 35792 L-261296 35760 L-261040 35728 L-260546 35695 L-259668 35663 L-259632 35630 L-259579 35598 L-259538 35566 L-259420 35533 L-259144 35501 L-258937 35436 L-258740 35371 L-258717 35307 L-258666 35242 L-258627 35210 L-258549 35177 L-257952 35112 L-257891 35080 L-257788 35048 L-257634 35015 L-257002 34983 L-256321 34951 L-256018 34886 L-255672 34853 L-255474 34821 L-255426 34756 L-255105 34724 L-254478 34692 L-254331 34659 L-254295 34627 L-254237 34595 L-254160 34530 L-253919 34530 L-253831 34497 L-253737 34465 L-253443 34433 L-253309 34400 L-253248 34368 L-253212 34303 L-252939 34303 L-251933 34271 L-251758 34238 L-251707 34238 L-251414 34206 L-251222 34141 L-250889 34109 L-250382 34077 L-249820 34012 L-249805 33947 L-249789 33915 L-249688 33850 L-249574 33785 L-249535 33720 L-249497 33688 L-249431 33688 L-249403 33656 L-249264 33688 L-248971 33688 L-248921 33688 L-248816 33688 L-248552 33656 L-248087 33623 L-247942 33623 L-247888 33559 L-247831 33526 L-247640 33494 L-247274 33461 L-247060 33461 L-246865 33461 L-246807 33461 L-246748 33397 L-246594 33364 L-246325 33332 L-245895 33494 L-245880 33494 L-245803 33461 L-245738 33429 L-245609 33202 L-245585 33170 L-245301 33138 L-245253 33105 L-245199 33073 L-244736 33041 L-244698 33041 L-244657 33008 L-244467 32976 L-243986 32943 L-243499 32911 L-243483 32879 L-243445 32846 L-243188 32814 L-243111 32749 L-242881 32717 L-242865 32652 L-242571 32587 L-242128 32555 L-241681 32523 L-241177 32490 L-241023 32458 L-240736 32426 L-240696 32361 L-240365 32328 L-240143 32296 L-239626 32231 L-239550 32199 L-239303 32134 L-239108 32069 L-239048 32037 L-238272 32005 L-238198 32005 L-237967 31972 L-237951 31972 L-237889 31940 L-237693 31908 L-237229 31908 L-237206 31875 L-237076 31875 L-235775 31875 L-235759 31875 L-235682 31843 L-235588 31843 L-235371 31843 L-235218 31810 L-235040 31843 L-234986 31875 L-234699 31908 L-234659 31908 L-234290 31908 L-233850 31908 L-233667 31908 L-233346 31875 L-233050 31875 L-232604 31810 L-232533 31778 L-232070 31713 L-231633 31681 L-231450 31649 L-229996 31584 L-229864 31551 L-229407 31487 L-229181 31454 L-228795 31390 L-228278 31325 L-227324 31260 L-226530 31195 L-225855 31163 L-225430 31098 L-225119 31066 L-224889 30969 L-224206 30872 L-224192 30775 L-223983 30645 L-223961 30613 L-223786 30548 L-222836 30516 L-222568 30451 L-221753 30418 L-221442 30354 L-221405 30321 L-221347 30257 L-220731 30224 L-220093 30159 L-218467 30127 L-217793 30095 L-217151 30095 L-217073 30095 L-217017 30095 L-216981 30095 L-216953 30062 L-216841 29998 L-216823 29965 L-216800 29933 L-216647 29900 L-216593 29836 L-216515 29803 L-216396 29771 L-216298 29739 L-216181 29706 L-215912 29641 L-215642 29609 L-215624 29544 L-215425 29512 L-215278 29447 L-215051 29415 L-214917 29382 L-214608 29350 L-214548 29318 L-214195 29253 L-213846 29221 L-213745 29188 L-213681 29123 L-213621 29091 L-213237 29026 L-212856 28994 L-212752 28962 L-212491 28929 L-212220 28865 L-212061 28832 L-212029 28800 L-211967 28767 L-211825 28735 L-211641 28703 L-211597 28670 L-211309 28670 L-211293 28638 L-211059 28638 L-210999 28606 L-210960 28606 L-210381 28573 L-210247 28541 L-210223 28411 L-210205 28185 L-210188 27926 L-210171 27667 L-210148 27408 L-210131 27213 L-210110 26987 L-210093 26760 L-210070 26631 L-210053 26501 L-210032 26404 L-210015 26339 L-209966 26242 L-209894 26145 L-209859 25983 L-209835 25854 L-209800 25724 L-209758 25595 L-209721 25530 L-209705 25401 L-209681 25303 L-209644 25239 L-209627 25142 L-209604 25077 L-209586 25012 L-209568 24947 L-209552 24883 L-209523 24786 L-209497 24688 L-209451 24656 L-209435 24591 L-209393 24559 L-209345 24494 L-209274 24429 L-209259 24365 L-209243 24300 L-209181 24268 L-209142 24235 L-209102 24203 L-208936 24170 L-208871 24138 L-208855 24106 L-208811 24041 L-208753 24009 L-208540 23976 L-208506 23944 L-208464 23911 L-208386 23879 L-207849 23847 L-207770 23814 L-207666 23750 L-207578 23717 L-207401 23685 L-207051 23652 L-206895 23620 L-206457 23588 L-206300 23555 L-206171 23523 L-205467 23458 L-205266 23426 L-204305 23361 L-203823 23329 L-203723 23329 L-203631 23296 L-203386 23264 L-203313 23232 L-202870 23167 L-202774 23134 L-202759 23102 L-202743 23070 L-202718 23037 L-202252 23005 L-202035 22973 L-201896 22940 L-201602 22908 L-201513 22876 L-201472 22843 L-201442 22811 L-201270 22778 L-201211 22746 L-201135 22714 L-201054 22681 L-200984 22681 L-200675 22649 L-200590 22617 L-200376 22584 L-200341 22552 L-199657 22519 L-199559 22487 L-199354 22455 L-199307 22422 L-199029 22390 L-198967 22358 L-198949 22293 L-198871 22260 L-198563 22196 L-198539 22163 L-198485 22099 L-198462 22066 L-198340 22034 L-198204 21969 L-197960 21937 L-197834 21937 L-197187 21904 L-197171 21904 L-197147 21904 L-196966 21840 L-196890 21807 L-196799 21775 L-196371 21742 L-195955 21710 L-195562 21645 L-195483 21613 L-195464 21581 L-195101 21548 L-194865 21516 L-194636 21483 L-194323 21451 L-194245 21419 L-194165 21354 L-193986 21289 L-193971 21257 L-193705 21192 L-193625 21160 L-193395 21127 L-193169 21095 L-192854 21095 L-192678 21063 L-192317 21063 L-191925 21030 L-191856 20966 L-191792 20933 L-191652 20868 L-191600 20836 L-191499 20771 L-190997 20739 L-190799 20707 L-190553 20674 L-190367 20642 L-190068 20609 L-189991 20577 L-189825 20512 L-188941 20480 L-188912 20415 L-188789 20350 L-188211 20318 L-188133 20286 L-187420 20286 L-187108 20286 L-186894 20286 L-186878 20286 L-186491 20286 L-185966 20221 L-185520 20189 L-185190 20156 L-185038 20124 L-184712 20124 L-184533 20091 L-184452 20091 L-184246 20027 L-184070 19994 L-183141 19962 L-182252 19930 L-182213 19897 L-181985 19897 L-181606 19865 L-180818 19832 L-180584 19800 L-180508 19768 L-180150 19735 L-179579 19671 L-179312 19638 L-178925 19606 L-178821 19606 L-178651 19606 L-178033 19606 L-177822 19606 L-177514 19606 L-177461 19573 L-177333 19541 L-177280 19509 L-177161 19476 L-176825 19412 L-175866 19379 L-175734 19314 L-175532 19282 L-174901 19250 L-174590 19217 L-174176 19185 L-174149 19153 L-174003 19120 L-173583 19088 L-172250 19088 L-172204 19056 L-172075 18991 L-172058 18958 L-171480 18894 L-171275 18861 L-171245 18829 L-171204 18797 L-171147 18764 L-171109 18732 L-171031 18699 L-170888 18667 L-170434 18635 L-170315 18602 L-170030 18570 L-169658 18538 L-169561 18505 L-169234 18473 L-168880 18440 L-168710 18408 L-168663 18376 L-168554 18343 L-168465 18311 L-168437 18279 L-168361 18214 L-168057 18181 L-168023 18117 L-167952 18084 L-167584 18052 L-167248 18020 L-167167 18020 L-166948 17987 L-166776 17955 L-166749 17922 L-166251 17890 L-165702 17825 L-164822 17793 L-164723 17728 L-164646 17696 L-164372 17663 L-164125 17599 L-164051 17566 L-163989 17502 L-163870 17469 L-163828 17437 L-163718 17404 L-163641 17340 L-162940 17307 L-162695 17275 L-162655 17243 L-162499 17210 L-161899 17210 L-161673 17210 L-161580 17210 L-161105 17210 L-160508 17146 L-159988 17113 L-159967 17081 L-159822 17048 L-159502 17048 L-158960 17048 L-158728 17048 L-158557 17048 L-158071 17016 L-157843 16984 L-157758 16951 L-157412 16919 L-157086 16919 L-156563 16887 L-156236 16854 L-155635 16822 L-155438 16757 L-155386 16725 L-155345 16692 L-155064 16660 L-154380 16595 L-154069 16563 L-154045 16498 L-153853 16466 L-153631 16433 L-153545 16401 L-152881 16336 L-152857 16304 L-152635 16239 L-152305 16207 L-151953 16142 L-151748 16110 L-151515 16045 L-151258 16012 L-151068 15948 L-151021 15915 L-150794 15883 L-150759 15851 L-150603 15818 L-150388 15786 L-150215 15753 L-150124 15721 L-149847 15689 L-149603 15656 L-149287 15624 L-148861 15624 L-148824 15624 L-148340 15624 L-148107 15624 L-147895 15592 L-147669 15559 L-147119 15559 L-146872 15527 L-146038 15527 L-145982 15494 L-145961 15462 L-145803 15430 L-145341 15397 L-145300 15365 L-144960 15300 L-144827 15268 L-144604 15235 L-144032 15203 L-143560 15171 L-143366 15138 L-143173 15106 L-142983 15074 L-142882 15041 L-142514 15009 L-142467 14977 L-142386 14944 L-141092 14912 L-141044 14879 L-140776 14879 L-140630 14879 L-140080 14879 L-139963 14847 L-139881 14815 L-139522 14782 L-139298 14750 L-139017 14718 L-138688 14653 L-138180 14620 L-138067 14588 L-137989 14556 L-137824 14523 L-137530 14523 L-137061 14523 L-136865 14556 L-136814 14556 L-136164 14523 L-136042 14491 L-135588 14491 L-135552 14459 L-135084 14426 L-134973 14394 L-134957 14361 L-134741 14361 L-134560 14329 L-134029 14329 L-132999 14329 L-132799 14297 L-132341 14264 L-131393 14200 L-131294 14167 L-130940 14102 L-130880 14070 L-130865 14038 L-130830 14005 L-130461 13973 L-130340 13941 L-130098 13908 L-129935 13876 L-129747 13843 L-129627 13811 L-128556 13746 L-127698 13714 L-127486 13649 L-127388 13617 L-127214 13552 L-126881 13520 L-126809 13487 L-126752 13455 L-126576 13455 L-126187 13423 L-125952 13390 L-125841 13358 L-125724 13325 L-124743 13293 L-124717 13261 L-124123 13196 L-124090 13196 L-123942 13164 L-123657 13131 L-122746 13131 L-121799 13131 L-121646 13099 L-121544 13099 L-121412 13067 L-121269 13034 L-121243 13002 L-121129 12969 L-120910 12937 L-120229 12905 L-120100 12872 L-119796 12840 L-119556 12775 L-119224 12743 L-118585 12710 L-118243 12646 L-118181 12613 L-118025 12613 L-117104 12613 L-116633 12613 L-116590 12613 L-116577 12581 L-116536 12549 L-116513 12516 L-116487 12484 L-116343 12451 L-115920 12419 L-115585 12419 L-115394 12387 L-114965 12387 L-114777 12354 L-114388 12290 L-113854 12257 L-113481 12225 L-113460 12225 L-113210 12192 L-113092 12160 L-113016 12128 L-112880 12095 L-112841 12063 L-112761 12031 L-112366 11998 L-111870 11966 L-111759 11901 L-111585 11869 L-111277 11836 L-110830 11804 L-110507 11772 L-110364 11707 L-109937 11642 L-109784 11577 L-109729 11513 L-108915 11480 L-108895 11448 L-108523 11415 L-108467 11415 L-107337 11383 L-107270 11383 L-106711 11351 L-106517 11318 L-106380 11286 L-106147 11254 L-105800 11221 L-105765 11157 L-105730 11124 L-105662 11059 L-105313 11027 L-105141 10995 L-104656 10962 L-104639 10930 L-104314 10898 L-104157 10865 L-103016 10800 L-102991 10768 L-102799 10703 L-102606 10671 L-102356 10639 L-102338 10606 L-101318 10574 L-101021 10541 L-100945 10509 L-100809 10444 L-100633 10412 L-100057 10347 L-99841 10315 L-99777 10282 L-99646 10250 L-99610 10185 L-99086 10153 L-98948 22908 L-98934 22908 L-98911 22908 L-98891 22908 L-98664 10121 L-97888 10121 L-97846 10121 L-97479 10121 L-97400 10088 L-97348 10056 L-96675 10023 L-95933 9991 L-95508 9991 L-95060 9959 L-93999 9926 L-93687 9862 L-93277 9862 L-93205 9829 L-92681 9829 L-92586 9829 L-92568 9829 L-92123 9797 L-91938 9732 L-91158 9667 L-90485 9635 L-90073 9538 L-89841 9473 L-89701 9441 L-89619 9376 L-89599 9344 L-89523 9344 L-89395 9311 L-89078 9344 L-88853 9344 L-88528 9311 L-88466 9311 L-88096 9311 L-88063 9311 L-87855 9311 L-87187 9311 L-87110 9311 L-86952 9247 L-86841 9247 L-86514 9214 L-86360 9182 L-86019 9182 L-85962 9117 L-85623 9052 L-85420 9020 L-85367 8955 L-83991 8923 L-83861 8890 L-83427 8858 L-83107 8826 L-82279 8761 L-82156 8729 L-81425 8664 L-81269 8599 L-81228 8567 L-81175 8534 L-81152 8502 L-81038 8470 L-80741 8437 L-80451 8405 L-80397 8372 L-80276 8340 L-80246 8308 L-80146 8275 L-79703 8275 L-79551 8243 L-78715 8243 L-78173 8211 L-77839 8211 L-77823 8178 L-77747 8146 L-77631 8113 L-77437 8081 L-77172 8049 L-76338 8016 L-76241 7984 L-75720 7952 L-75678 7919 L-75579 7887 L-74751 7887 L-74616 7854 L-74277 7854 L-73723 7822 L-73343 7790 L-73180 7757 L-72870 7725 L-72058 7693 L-71752 7660 L-71483 7660 L-71162 7660 L-70841 7693 L-70565 7693 L-69737 7628 L-69641 7595 L-69549 7498 L-69445 7401 L-69058 7304 L-68578 7239 L-68561 7207 L-68443 7175 L-68075 7110 L-67980 7078 L-67146 7013 L-67069 6980 L-66769 6948 L-66679 6916 L-66271 6851 L-66161 6786 L-65462 6754 L-64989 6721 L-64929 6689 L-64710 6624 L-64436 6592 L-64323 6560 L-63296 6527 L-62909 6495 L-62889 6462 L-62556 6430 L-62312 6398 L-61878 6365 L-61768 6333 L-61651 6301 L-61199 6236 L-60609 6203 L-60272 6171 L-58379 6139 L-58266 6074 L-58054 6042 L-56735 6009 L-56629 -1274 L-56563 -8460 L-56527 -15097 L-56465 -15097 L-55965 -7878 L-55290 -756 L-55268 5815 L-54998 5750 L-54030 5750 L-53341 5718 L-53179 5685 L-52638 5653 L-52548 5621 L-51529 5588 L-50581 5524 L-50216 5556 L-50113 5588 L-49524 5588 L-49465 5588 L-49365 5556 L-48924 5491 L-48817 5459 L-48375 5426 L-47375 5329 L-47119 5232 L-47016 5135 L-46886 5070 L-46519 5006 L-45938 4941 L-45908 4909 L-45592 4876 L-43609 4844 L-43493 4811 L-43426 4811 L-43067 4779 L-41448 4747 L-41271 4747 L-41126 4747 L-40304 4779 L-40251 4811 L-40197 4811 L-39763 4811 L-38782 4844 L-38708 4844 L-37624 4811 L-37410 4811 L-36694 4747 L-36306 4714 L-36087 4650 L-35768 4585 L-35274 4520 L-35146 4488 L-34917 4423 L-34685 4358 L-34626 4326 L-34336 4293 L-34064 4229 L-33034 4196 L-31369 4164 L-30950 4132 L-30813 4099 L-30656 4099 L-30351 4067 L-30123 4002 L-29965 3970 L-29805 3905 L-29636 3840 L-29589 3808 L-29536 3775 L-29514 3775 L-29128 3743 L-28878 3743 L-28608 3743 L-28447 3743 L-28357 3743 L-26698 3743 L-26533 3775 L-26153 3743 L-25693 3743 L-25084 3678 L-23991 3646 L-23559 3614 L-23528 3581 L-23466 3549 L-23448 3516 L-21745 3484 L-21703 3452 L-21236 3419 L-21049 3387 L-21017 3322 L-20422 3290 L-20372 3258 L-20049 3225 L-19999 3193 L-19788 3160 L-19770 3128 L-19504 3063 L-19451 3031 L-18982 2999 L-18472 2934 L-18393 2934 L-18099 2901 L-18083 2869 L-18044 2837 L-17973 2804 L-17816 2772 L-16870 2772 L-16813 2772 L-16292 2772 L-16100 2740 L-15999 2740 L-15773 2707 L-15263 2707 L-14875 3581 L-14806 3581 L-14457 3549 L-14100 3516 L-12972 2578 L-12920 2513 L-12694 2481 L-12660 2448 L-12535 2383 L-12436 2383 L-12172 2383 L-11431 2416 L-10853 2416 L-10559 2416 L-9854 2416 L-9675 2383 L-9652 2383 L-9016 2351 L-8704 2319 L-8308 2319 L-8278 2286 L-8257 2254 L-8104 2222 L-7418 2222 L-7402 2222 L-7062 2222 L-6790 2189 L-6752 2157 L-6696 2092 L-6674 2060 L-6602 2027 L-6270 1995 L-6164 1963 L-6135 1898 L-5937 1865 L-5784 1833 L-4916 1801 L-4354 1736 L-4338 1736 L-4237 1704 L-4134 1736 L-3988 1736 L-3910 1736 L-3872 1704 L-3816 1671 L-3743 1639 L-3598 1606 L-3116 1606 L-2712 1574 L-1845 1606 L-1825 1606 L-1568 1606 L-1491 1606 L-1462 1574 L-1452 1509 L-1435 1477 L-1142 1445 L-1102 1412 L-1030 1380 L-956 1348 L-751 1315 L-592 1218 L-290 1121 L-213 991 L-196 894 L20 830 L251 830 L361 862 L731 894 L889 894 L1120 894 L1289 894 L1434 862 L1566 830 L2842 765 L3245 700 L3306 668 L3423 603 L3848 571 L3863 506 L3925 473 L4198 409 L4311 376 L4593 312 L4870 279 L5296 214 L5318 182 L5396 150 L5522 117 L6108 85 L6500 53" />
</svg>
