<svg xmlns="http://www.w3.org/2000/svg" version="1.1" viewBox="0 0 6500 1000">
	<path fill="none" stroke="gold" stroke-width="125" stroke-linecap="round" stroke-linejoin="round" d="M0 157152  L-928301 157152 L-928117 157092 L-927627 156974 L-927333 156915 L-927022 156796 L-926787 156737 L-926734 156619 L-926675 156500 L-926521 156441 L-926481 156323 L-926348 156264 L-926056 156204 L-925515 156204 L-924905 156145 L-924857 156145 L-924217 156086 L-924184 156086 L-923658 156086 L-923525 156027 L-923135 155908 L-922807 155790 L-922690 155671 L-922479 155553 L-921762 155553 L-921192 155494 L-921085 155494 L-920910 155435 L-920689 155316 L-920287 155257 L-920261 155139 L-919333 155020 L-919246 154902 L-919164 154783 L-919094 154665 L-918796 154606 L-918644 154487 L-916754 154547 L-916653 154547 L-916391 154547 L-916097 154606 L-915956 154487 L-915707 154487 L-915672 154428 L-915513 154369 L-915050 154251 L-914797 154191 L-914584 154073 L-914333 154014 L-913984 153955 L-913057 153836 L-912963 153718 L-912552 153658 L-911382 153540 L-910193 153481 L-910100 153362 L-910073 153244 L-909807 153126 L-909508 153007 L-909379 152889 L-909342 152770 L-908527 152770 L-908143 152830 L-907083 152889 L-907021 152889 L-906756 154073 L-906285 155198 L-906092 156323 L-905829 157448 L-905492 157388 L-905356 157329 L-904901 157270 L-904158 157211 L-904140 157152 L-903975 157033 L-903907 157033 L-903391 156974 L-902362 156974 L-902166 156915 L-901677 156856 L-901315 156796 L-900906 156796 L-900521 156856 L-898817 156856 L-898719 156856 L-898648 156856 L-898586 156856 L-898402 156796 L-898065 156796 L-897425 156737 L-897348 156678 L-897287 156678 L-897100 156619 L-897020 156619 L-896843 156560 L-896824 156500 L-896594 156500 L-896206 156441 L-895318 156441 L-895278 156382 L-895190 156323 L-895163 156204 L-894155 156145 L-894005 156027 L-893981 155968 L-893848 155908 L-893808 155849 L-892550 155790 L-892492 155790 L-891952 155731 L-891900 155731 L-891853 155731 L-891458 155671 L-891318 155612 L-891118 155553 L-890972 155553 L-890807 155553 L-890530 155612 L-890172 155612 L-889619 155553 L-888974 155494 L-888716 155375 L-888562 155316 L-888161 155257 L-888121 155198 L-888000 155139 L-887938 155198 L-887924 155198 L-887831 155198 L-887537 155139 L-887386 154902 L-887056 154783 L-886978 154665 L-886902 154606 L-886675 154428 L-886609 154310 L-886381 154191 L-886329 154073 L-886164 154014 L-885158 153955 L-884975 153895 L-884424 153836 L-884031 153718 L-883633 153658 L-882783 153540 L-882705 153481 L-882126 153422 L-881685 153422 L-881444 153362 L-881286 153362 L-880886 153244 L-880865 153244 L-880420 153185 L-880015 153126 L-879879 153007 L-879704 152889 L-879567 152770 L-879317 152652 L-878317 152593 L-878235 152534 L-878100 152474 L-878061 152415 L-877171 152356 L-876955 152297 L-876512 152238 L-876395 152178 L-876338 152119 L-875662 152119 L-875561 152060 L-875533 152060 L-874191 152001 L-873785 151941 L-873746 151882 L-872817 151823 L-872719 151764 L-872586 151705 L-872182 151645 L-872156 151586 L-872063 151527 L-871847 151468 L-871435 151349 L-870282 151231 L-869990 151113 L-869961 150994 L-869353 150935 L-869103 150817 L-869084 150757 L-868154 150698 L-868103 150580 L-867980 150521 L-867963 150402 L-867807 150343 L-867632 150224 L-867495 150165 L-867439 150106 L-867331 150047 L-867246 149988 L-867012 149928 L-866937 149869 L-866629 149810 L-866511 149751 L-866341 149692 L-866250 149632 L-866147 149632 L-866124 149573 L-866047 149573 L-865949 149455 L-865582 149396 L-865478 149336 L-864974 149277 L-864522 149218 L-864484 149159 L-864460 149100 L-864419 149040 L-864291 148981 L-864190 148922 L-863748 148863 L-863466 148804 L-862874 148744 L-862743 148685 L-862469 148567 L-862316 148507 L-862163 148448 L-862078 148330 L-862000 148271 L-861814 148211 L-861764 148211 L-861736 148152 L-861657 148093 L-861633 148034 L-861350 147915 L-860746 147797 L-859751 147738 L-859453 147679 L-858719 147619 L-858474 147560 L-858385 147501 L-857807 147442 L-857109 147383 L-856357 147323 L-856038 147264 L-855655 147146 L-855578 147087 L-854944 147027 L-854758 146968 L-854670 146968 L-854541 146968 L-854228 146909 L-854179 146850 L-854037 146791 L-854015 146731 L-853047 146672 L-852502 146613 L-852024 146613 L-851963 146613 L-851639 146613 L-851618 146554 L-851555 146554 L-851345 146494 L-851268 146435 L-851214 146376 L-851191 146317 L-851152 146258 L-851136 146198 L-850379 146139 L-850362 146080 L-849563 146021 L-849410 145962 L-848505 145902 L-847999 145843 L-847770 145725 L-847728 145725 L-847613 145666 L-847437 145606 L-846682 145666 L-846547 145606 L-846383 145547 L-846065 145488 L-845889 145370 L-844867 145251 L-844844 145133 L-844593 145074 L-844380 144955 L-843746 144896 L-843508 144777 L-843475 144659 L-843297 144541 L-843217 144422 L-843127 144363 L-843063 144245 L-842622 144126 L-842599 144067 L-842058 144008 L-841802 143949 L-841307 143889 L-840430 143830 L-840393 143771 L-840341 143712 L-840300 143653 L-840182 143593 L-839906 143534 L-839699 143416 L-839502 143297 L-839478 143179 L-839428 143060 L-839389 143001 L-839311 142942 L-838714 142824 L-838653 142764 L-838550 142705 L-838396 142646 L-837764 142587 L-837083 142528 L-836780 142409 L-836434 142350 L-836236 142291 L-836188 142172 L-835867 142113 L-835240 142054 L-835093 141995 L-835057 141936 L-834999 141876 L-834922 141758 L-834681 141758 L-834593 141699 L-834499 141640 L-834205 141580 L-834071 141521 L-834010 141462 L-833973 141343 L-833701 141343 L-832695 141284 L-832520 141225 L-832469 141225 L-832176 141166 L-831984 141047 L-831651 140988 L-831144 140929 L-830582 140811 L-830567 140692 L-830551 140633 L-830450 140515 L-830336 140396 L-830296 140278 L-830259 140219 L-830193 140219 L-830165 140159 L-830026 140219 L-829733 140219 L-829683 140219 L-829578 140219 L-829314 140159 L-828849 140100 L-828704 140100 L-828650 139982 L-828592 139923 L-828401 139863 L-828036 139804 L-827822 139804 L-827627 139804 L-827569 139804 L-827510 139686 L-827356 139626 L-827087 139567 L-826657 139863 L-826641 139863 L-826564 139804 L-826500 139745 L-826371 139330 L-826347 139271 L-826063 139212 L-826015 139153 L-825961 139094 L-825498 139034 L-825460 139034 L-825419 138975 L-825229 138916 L-824748 138857 L-824261 138798 L-824245 138738 L-824207 138679 L-823950 138620 L-823873 138502 L-823643 138442 L-823627 138324 L-823333 138206 L-822890 138146 L-822443 138087 L-821939 138028 L-821785 137969 L-821498 137910 L-821458 137791 L-821127 137732 L-820905 137673 L-820388 137554 L-820312 137495 L-820065 137377 L-819870 137258 L-819810 137199 L-819034 137140 L-818960 137140 L-818729 137081 L-818713 137081 L-818651 137021 L-818455 136962 L-817991 136962 L-817968 136903 L-817838 136903 L-816537 136903 L-816521 136903 L-816443 136844 L-816350 136844 L-816133 136844 L-815980 136785 L-815802 136844 L-815748 136903 L-815461 136962 L-815421 136962 L-815052 136962 L-814612 136962 L-814428 136962 L-814107 136903 L-813812 136903 L-813366 136785 L-813294 136725 L-812832 136607 L-812394 136548 L-812212 136489 L-810758 136370 L-810626 136311 L-810169 136193 L-809943 136133 L-809557 136015 L-809040 135896 L-808086 135778 L-807292 135660 L-806617 135600 L-806192 135482 L-805881 135423 L-805651 135245 L-804967 135068 L-804954 134890 L-804744 134653 L-804722 134594 L-804548 134476 L-803598 134416 L-803330 134298 L-802515 134239 L-802204 134120 L-802167 134061 L-802109 133943 L-801493 133883 L-800855 133765 L-799229 133706 L-798555 133647 L-797913 133647 L-797835 133647 L-797779 133647 L-797743 133647 L-797715 133587 L-797603 133469 L-797585 133410 L-797562 133351 L-797409 133291 L-797355 133173 L-797277 133114 L-797158 133055 L-797060 132995 L-796943 132936 L-796673 132818 L-796404 132759 L-796386 132640 L-796186 132581 L-796040 132462 L-795813 132403 L-795679 132344 L-795370 132285 L-795310 132226 L-794957 132107 L-794608 132048 L-794507 131989 L-794443 131870 L-794383 131811 L-793999 131693 L-793618 131634 L-793514 131574 L-793253 131515 L-792982 131397 L-792823 131338 L-792790 131278 L-792729 131219 L-792587 131160 L-792403 131101 L-792359 131042 L-792071 131042 L-792055 130982 L-791821 130982 L-791760 130923 L-791722 130923 L-791142 130864 L-791009 130805 L-790985 130568 L-790967 130153 L-790950 129680 L-790933 129206 L-790909 128732 L-790893 128377 L-790872 127963 L-790855 127548 L-790832 127312 L-790815 127075 L-790793 126897 L-790777 126779 L-790728 126601 L-790656 126423 L-790621 126127 L-790597 125891 L-790561 125654 L-790520 125417 L-790483 125298 L-790467 125062 L-790443 124884 L-790406 124766 L-790389 124588 L-790366 124470 L-790348 124351 L-790330 124233 L-790314 124114 L-790285 123937 L-790259 123759 L-790213 123700 L-790197 123582 L-790155 123522 L-790107 123404 L-790036 123285 L-790021 123167 L-790005 123049 L-789943 122989 L-789903 122930 L-789864 122871 L-789698 122812 L-789633 122753 L-789617 122693 L-789573 122575 L-789514 122516 L-789302 122457 L-789268 122397 L-789226 122338 L-789148 122279 L-788611 122220 L-788532 122161 L-788428 122042 L-788339 121983 L-788163 121924 L-787813 121865 L-787657 121805 L-787219 121746 L-787062 121687 L-786932 121628 L-786229 121509 L-786027 121450 L-785067 121332 L-784584 121272 L-784485 121272 L-784393 121213 L-784148 121154 L-784075 121095 L-783632 120976 L-783536 120917 L-783521 120858 L-783505 120799 L-783480 120740 L-783014 120680 L-782797 120621 L-782658 120562 L-782364 120503 L-782275 120444 L-782234 120384 L-782204 120325 L-782032 120266 L-781973 120207 L-781896 120148 L-781816 120088 L-781746 120088 L-781437 120029 L-781352 119970 L-781138 119911 L-781103 119851 L-780419 119792 L-780321 119733 L-780115 119674 L-780069 119615 L-779790 119555 L-779728 119496 L-779711 119378 L-779633 119319 L-779325 119200 L-779301 119141 L-779247 119023 L-779224 118963 L-779102 118904 L-778966 118786 L-778722 118727 L-778596 118727 L-777949 118667 L-777933 118667 L-777909 118667 L-777728 118549 L-777652 118490 L-777560 118431 L-777133 118371 L-776717 118312 L-776324 118194 L-776245 118134 L-776226 118075 L-775863 118016 L-775626 117957 L-775398 117898 L-775085 117838 L-775007 117779 L-774926 117661 L-774748 117542 L-774733 117483 L-774467 117365 L-774387 117306 L-774157 117246 L-773931 117187 L-773615 117187 L-773440 117128 L-773079 117128 L-772687 117069 L-772618 116950 L-772554 116891 L-772414 116773 L-772362 116714 L-772260 116595 L-771759 116536 L-771561 116477 L-771315 116417 L-771129 116358 L-770830 116299 L-770753 116240 L-770587 116121 L-769703 116062 L-769674 115944 L-769551 115825 L-768973 115766 L-768895 115707 L-768181 115707 L-767869 115707 L-767656 115707 L-767640 115707 L-767253 115707 L-766728 115589 L-766282 115529 L-765952 115470 L-765800 115411 L-765474 115411 L-765295 115352 L-765214 115352 L-765007 115233 L-764832 115174 L-763903 115115 L-763014 115056 L-762975 114997 L-762747 114997 L-762367 114937 L-761580 114878 L-761346 114819 L-761270 114760 L-760912 114701 L-760340 114582 L-760074 114523 L-759687 114464 L-759583 114464 L-759413 114464 L-758795 114464 L-758584 114464 L-758276 114464 L-758223 114404 L-758095 114345 L-758042 114286 L-757923 114227 L-757587 114108 L-756627 114049 L-756496 113931 L-756294 113872 L-755663 113812 L-755352 113753 L-754938 113694 L-754910 113635 L-754765 113576 L-754345 113516 L-753012 113516 L-752965 113457 L-752837 113339 L-752820 113280 L-752242 113161 L-752037 113102 L-752007 113043 L-751966 112984 L-751909 112924 L-751871 112865 L-751793 112806 L-751650 112747 L-751196 112687 L-751077 112628 L-750792 112569 L-750419 112510 L-750323 112451 L-749996 112391 L-749642 112332 L-749472 112273 L-749425 112214 L-749316 112155 L-749227 112095 L-749199 112036 L-749122 111918 L-748819 111859 L-748785 111740 L-748713 111681 L-748346 111622 L-748010 111563 L-747929 111563 L-747709 111503 L-747538 111444 L-747510 111385 L-747013 111326 L-746464 111207 L-745583 111148 L-745485 111030 L-745408 110970 L-745134 110911 L-744886 110793 L-744812 110734 L-744751 110615 L-744632 110556 L-744589 110497 L-744479 110438 L-744403 110319 L-743702 110260 L-743457 110201 L-743417 110142 L-743260 110082 L-742661 110082 L-742434 110082 L-742342 110082 L-741867 110082 L-741270 109964 L-740750 109905 L-740729 109846 L-740584 109786 L-740264 109786 L-739722 109786 L-739490 109786 L-739319 109786 L-738833 109727 L-738605 109668 L-738520 109609 L-738174 109550 L-737848 109550 L-737325 109490 L-736998 109431 L-736397 109372 L-736200 109253 L-736148 109194 L-736107 109135 L-735826 109076 L-735141 108957 L-734831 108898 L-734806 108780 L-734615 108721 L-734392 108661 L-734306 108602 L-733643 108484 L-733618 108425 L-733397 108306 L-733067 108247 L-732715 108129 L-732510 108069 L-732277 107951 L-732019 107892 L-731830 107773 L-731783 107714 L-731556 107655 L-731521 107596 L-731365 107537 L-731150 107477 L-730977 107418 L-730886 107359 L-730608 107300 L-730365 107240 L-730049 107181 L-729623 107181 L-729586 107181 L-729102 107181 L-728869 107181 L-728657 107122 L-728431 107063 L-727881 107063 L-727634 107004 L-726800 107004 L-726744 106944 L-726722 106885 L-726565 106826 L-726103 106767 L-726062 106708 L-725722 106589 L-725589 106530 L-725366 106471 L-724794 106412 L-724322 106352 L-724128 106293 L-723935 106234 L-723745 106175 L-723644 106116 L-723275 106056 L-723229 105997 L-723148 105938 L-721854 105879 L-721806 105820 L-721538 105820 L-721392 105820 L-720841 105820 L-720725 105760 L-720643 105701 L-720284 105642 L-720060 105583 L-719779 105523 L-719450 105405 L-718942 105346 L-718829 105287 L-718750 105227 L-718586 105168 L-718292 105168 L-717823 105168 L-717626 105227 L-717576 105227 L-716926 105168 L-716804 105109 L-716350 105109 L-716314 105050 L-715846 104991 L-715735 104931 L-715719 104872 L-715503 104872 L-715322 104813 L-714790 104813 L-713761 104813 L-713561 104754 L-713103 104695 L-712155 104576 L-712056 104517 L-711702 104399 L-711642 104339 L-711627 104280 L-711592 104221 L-711222 104162 L-711102 104103 L-710860 104043 L-710697 103984 L-710509 103925 L-710388 103866 L-709318 103747 L-708460 103688 L-708247 103570 L-708150 103510 L-707976 103392 L-707643 103333 L-707571 103274 L-707513 103214 L-707338 103214 L-706949 103155 L-706714 103096 L-706603 103037 L-706485 102978 L-705505 102918 L-705479 102859 L-704885 102741 L-704852 102741 L-704704 102682 L-704419 102622 L-703508 102622 L-702561 102622 L-702408 102563 L-702306 102563 L-702174 102504 L-702031 102445 L-702005 102386 L-701891 102326 L-701672 102267 L-700991 102208 L-700861 102149 L-700558 102089 L-700318 101971 L-699986 101912 L-699347 101853 L-699004 101734 L-698943 101675 L-698787 101675 L-697865 101675 L-697395 101675 L-697351 101675 L-697339 101616 L-697297 101557 L-697275 101497 L-697248 101438 L-697105 101379 L-696682 101320 L-696347 101320 L-696156 101261 L-695727 101261 L-695539 101201 L-695150 101083 L-694616 101024 L-694243 100965 L-694222 100965 L-693972 100905 L-693854 100846 L-693778 100787 L-693642 100728 L-693602 100669 L-693523 100609 L-693128 100550 L-692632 100491 L-692520 100373 L-692347 100313 L-692039 100254 L-691592 100195 L-691269 100136 L-691126 100017 L-690699 99899 L-690546 99780 L-690491 99662 L-689677 99603 L-689657 99544 L-689285 99484 L-689228 99484 L-688099 99425 L-688032 99425 L-687473 99366 L-687278 99307 L-687142 99248 L-686909 99188 L-686562 99129 L-686527 99011 L-686492 98952 L-686424 98833 L-686075 98774 L-685903 98715 L-685418 98656 L-685401 98596 L-685076 98537 L-684919 98478 L-683778 98359 L-683753 98300 L-683561 98182 L-683368 98123 L-683118 98063 L-683100 98004 L-682080 97945 L-681783 97886 L-681707 97827 L-681571 97708 L-681395 97649 L-680818 97531 L-680603 97471 L-680539 97412 L-680408 97353 L-680372 97235 L-679848 97175 L-679710 120503 L-679696 120503 L-679673 120503 L-679653 120503 L-679426 97116 L-678650 97116 L-678608 97116 L-678241 97116 L-678162 97057 L-678110 96998 L-677437 96939 L-676695 96879 L-676270 96879 L-675822 96820 L-674760 96761 L-674449 96642 L-674039 96642 L-673967 96583 L-673442 96583 L-673348 96583 L-673330 96583 L-672885 96524 L-672700 96406 L-671920 96287 L-671247 96228 L-670835 96050 L-670603 95932 L-670463 95873 L-670381 95754 L-670361 95695 L-670285 95695 L-670156 95636 L-669840 95695 L-669615 95695 L-669290 95636 L-669228 95636 L-668858 95636 L-668825 95636 L-668616 95636 L-667949 95636 L-667871 95636 L-667714 95518 L-667603 95518 L-667276 95458 L-667121 95399 L-666781 95399 L-666724 95281 L-666385 95162 L-666182 95103 L-666129 94985 L-664752 94925 L-664623 94866 L-664189 94807 L-663869 94748 L-663041 94629 L-662918 94570 L-662187 94452 L-662031 94333 L-661990 94274 L-661937 94215 L-661913 94156 L-661799 94097 L-661503 94037 L-661213 93978 L-661159 93919 L-661038 93860 L-661008 93801 L-660908 93741 L-660464 93741 L-660313 93682 L-659477 93682 L-658935 93623 L-658600 93623 L-658585 93564 L-658509 93505 L-658393 93445 L-658198 93386 L-657934 93327 L-657100 93268 L-657003 93208 L-656482 93149 L-656440 93090 L-656341 93031 L-655513 93031 L-655378 92972 L-655039 92972 L-654485 92912 L-654105 92853 L-653942 92794 L-653632 92735 L-652820 92676 L-652513 92616 L-652245 92616 L-651923 92616 L-651603 92676 L-651327 92676 L-650498 92557 L-650403 92498 L-650311 92320 L-650206 92143 L-649820 91965 L-649340 91847 L-649323 91788 L-649205 91728 L-648837 91610 L-648742 91551 L-647908 91432 L-647831 91373 L-647531 91314 L-647441 91255 L-647033 91136 L-646923 91018 L-646224 90959 L-645751 90899 L-645691 90840 L-645472 90722 L-645198 90663 L-645085 90603 L-644058 90544 L-643671 90485 L-643651 90426 L-643318 90367 L-643074 90307 L-642640 90248 L-642530 90189 L-642413 90130 L-641961 90011 L-641370 89952 L-641034 89893 L-639141 89834 L-639027 89715 L-638816 89656 L-637497 89597 L-637391 76275 L-637325 63132 L-637289 50994 L-637227 50994 L-636727 64197 L-636052 77223 L-636030 89242 L-635760 89123 L-634792 89123 L-634103 89064 L-633941 89005 L-633400 88946 L-633310 88886 L-632291 88827 L-631343 88709 L-630977 88768 L-630875 88827 L-630286 88827 L-630227 88827 L-630126 88768 L-629686 88650 L-629579 88590 L-629137 88531 L-628137 88354 L-627881 88176 L-627778 87998 L-627648 87880 L-627281 87761 L-626700 87643 L-626669 87584 L-626354 87525 L-624371 87465 L-624255 87406 L-624187 87406 L-623829 87347 L-622210 87288 L-622033 87288 L-621888 87288 L-621066 87347 L-621013 87406 L-620958 87406 L-620524 87406 L-619544 87465 L-619470 87465 L-618385 87406 L-618172 87406 L-617456 87288 L-617068 87229 L-616849 87110 L-616529 86992 L-616036 86873 L-615908 86814 L-615679 86696 L-615447 86577 L-615388 86518 L-615098 86459 L-614826 86341 L-613796 86281 L-612131 86222 L-611712 86163 L-611575 86104 L-611418 86104 L-611113 86044 L-610885 85926 L-610727 85867 L-610567 85748 L-610398 85630 L-610351 85571 L-610297 85512 L-610276 85512 L-609890 85452 L-609640 85452 L-609369 85452 L-609209 85452 L-609119 85452 L-607460 85452 L-607295 85512 L-606915 85452 L-606455 85452 L-605846 85334 L-604753 85275 L-604321 85216 L-604290 85156 L-604228 85097 L-604210 85038 L-602506 84979 L-602464 84920 L-601998 84860 L-601811 84801 L-601779 84683 L-601184 84624 L-601134 84564 L-600811 84505 L-600761 84446 L-600550 84387 L-600532 84328 L-600266 84209 L-600213 84150 L-599744 84091 L-599234 83972 L-599155 83972 L-598861 83913 L-598844 83854 L-598806 83795 L-598735 83735 L-598578 83676 L-597631 83676 L-597575 83676 L-597054 83676 L-596862 83617 L-596761 83617 L-596535 83558 L-596025 83558 L-595637 85156 L-595567 85156 L-595219 85097 L-594862 85038 L-593733 83321 L-593682 83203 L-593456 83143 L-593422 83084 L-593297 82966 L-593198 82966 L-592933 82966 L-592193 83025 L-591615 83025 L-591321 83025 L-590615 83025 L-590437 82966 L-590413 82966 L-589778 82907 L-589466 82847 L-589070 82847 L-589040 82788 L-589019 82729 L-588865 82670 L-588180 82670 L-588164 82670 L-587824 82670 L-587551 82611 L-587514 82551 L-587458 82433 L-587436 82374 L-587364 82314 L-587032 82255 L-586926 82196 L-586897 82078 L-586699 82018 L-586546 81959 L-585678 81900 L-585116 81782 L-585100 81782 L-584998 81722 L-584896 81782 L-584750 81782 L-584671 81782 L-584634 81722 L-584578 81663 L-584505 81604 L-584360 81545 L-583878 81545 L-583474 81486 L-582607 81545 L-582587 81545 L-582330 81545 L-582253 81545 L-582224 81486 L-582213 81367 L-582196 81308 L-581903 81249 L-581864 81190 L-581792 81130 L-581718 81071 L-581513 81012 L-581353 80834 L-581052 80657 L-580975 80420 L-580958 80242 L-580741 80124 L-580510 80124 L-580400 80183 L-580030 80242 L-579872 80242 L-579641 80242 L-579472 80242 L-579327 80183 L-579195 80124 L-577919 80005 L-577516 79887 L-577455 79828 L-577338 79709 L-576913 79650 L-576898 79532 L-576836 79473 L-576562 79354 L-576450 79295 L-576168 79177 L-575890 79117 L-575465 78999 L-575443 78940 L-575365 78880 L-575239 78821 L-574653 78762 L-574261 78703 L-573926 78644 L-573337 78584 L-573234 78584 L-573064 78525 L-572928 78525 L-572100 78466 L-570915 78407 L-570879 78348 L-570823 78348 L-570603 78288 L-570398 78288 L-570243 78288 L-569986 78229 L-569910 78170 L-569367 78111 L-569331 78052 L-569082 77992 L-568694 77933 L-567869 77874 L-567511 77815 L-567200 77815 L-566942 77756 L-566719 77696 L-566312 77637 L-566196 77578 L-566012 77519 L-565959 77519 L-565771 77460 L-565600 77400 L-565571 77341 L-565291 77282 L-564980 77223 L-564842 77164 L-564533 77104 L-564339 77104 L-564323 77045 L-563604 77045 L-563470 76927 L-563173 76867 L-563082 76808 L-562482 76808 L-562443 76749 L-562365 76690 L-561744 76631 L-561593 76512 L-561552 76453 L-561242 76394 L-561050 76335 L-560857 76216 L-560801 76098 L-560493 76039 L-560440 75979 L-560386 76039 L-560360 76039 L-560235 76039 L-559425 75979 L-559348 75920 L-558807 75861 L-558539 75802 L-557879 75743 L-556972 75683 L-556730 75624 L-556198 75565 L-555981 75506 L-554873 75565 L-554823 75565 L-554048 75565 L-553500 75506 L-553389 75447 L-553236 75328 L-553181 75269 L-553015 75210 L-552638 75150 L-552190 75091 L-552136 75032 L-551981 74973 L-551301 74914 L-551081 74854 L-550563 74795 L-549714 74677 L-549698 74618 L-547907 74558 L-547353 74499 L-547236 74440 L-546230 74381 L-546193 74322 L-545961 74322 L-545868 74322 L-545828 74322 L-545496 74262 L-545144 74203 L-544879 74085 L-544592 74026 L-544282 73907 L-544028 73789 L-543934 73730 L-543444 73670 L-543237 73611 L-542671 73552 L-542557 73611 L-542205 73552 L-542154 73552 L-542114 73552 L-541510 73433 L-540777 73315 L-540195 73197 L-539960 73078 L-539420 72901 L-539267 72782 L-538765 72723 L-538556 72605 L-538533 72605 L-538474 72545 L-537511 72545 L-537334 72486 L-536892 72427 L-536867 72309 L-536712 72249 L-536631 72249 L-536480 72309 L-535834 72309 L-535784 72249 L-534664 72190 L-533680 72131 L-533618 72072 L-532898 72013 L-532033 71953 L-531654 71894 L-531435 71894 L-530676 71835 L-530624 71776 L-530314 71657 L-529463 71657 L-529270 71598 L-529093 71539 L-528869 71539 L-528742 71480 L-528550 71480 L-528318 71420 L-528148 71480 L-527861 71420 L-527582 71420 L-527499 71361 L-527328 71302 L-527312 71184 L-527158 71124 L-527119 71065 L-526343 71006 L-526267 71006 L-526035 70888 L-525608 70828 L-525262 70769 L-524679 70710 L-524410 70710 L-524151 70710 L-524022 70592 L-524006 70532 L-523892 70473 L-523868 70414 L-523634 70355 L-523598 70296 L-522282 70296 L-522226 70236 L-521547 70118 L-520975 70118 L-520849 70118 L-520696 70118 L-520619 70118 L-520307 70000 L-520034 69940 L-519945 69822 L-519843 69822 L-518915 69763 L-518839 69763 L-518475 69763 L-518451 69703 L-518414 69644 L-517639 69526 L-517547 69467 L-517407 69407 L-517005 69348 L-516743 69348 L-516500 69407 L-516286 69348 L-516205 69348 L-516129 69348 L-516052 69348 L-515866 69407 L-515799 69407 L-515550 69407 L-515495 69348 L-515357 69289 L-515277 69171 L-515164 69111 L-514941 69052 L-514777 68993 L-514736 68934 L-514566 68875 L-514195 68815 L-514181 68756 L-514065 68697 L-513343 68638 L-513307 68579 L-513174 68579 L-512827 68519 L-512415 68519 L-512379 68519 L-512301 68460 L-512262 68401 L-511898 68342 L-511694 68283 L-511679 68223 L-511333 68164 L-510985 68164 L-510659 68164 L-510557 68105 L-510404 68105 L-510210 68046 L-509978 68046 L-509886 68046 L-509730 68046 L-509653 68046 L-509612 67986 L-509499 67927 L-509476 67868 L-509225 67868 L-509086 67750 L-508508 67572 L-507680 67454 L-507192 67335 L-507071 67276 L-507032 67217 L-507020 67158 L-506868 67039 L-506767 66921 L-506534 66862 L-506143 66743 L-505839 66684 L-505823 66625 L-505653 66566 L-505414 66447 L-504818 66447 L-504214 66388 L-504174 66388 L-504134 66388 L-503981 66329 L-503927 66269 L-503865 66210 L-503797 66151 L-503742 66033 L-503717 65973 L-503670 65914 L-503576 65796 L-503439 65737 L-503285 65677 L-503153 65618 L-503112 65618 L-503077 65559 L-503015 65500 L-502742 65381 L-502427 65322 L-502386 65204 L-502301 65145 L-502124 65085 L-501886 65026 L-501529 64967 L-501499 64908 L-500930 64849 L-500807 64789 L-500571 64730 L-500548 64730 L-500267 64671 L-499981 64671 L-499726 64671 L-499154 64612 L-498857 64552 L-498781 64493 L-498082 64434 L-498004 64375 L-497969 64316 L-497943 64256 L-497891 64138 L-497698 64079 L-497557 63960 L-497521 63901 L-497481 63842 L-496886 63783 L-496653 63724 L-496370 64138 L-496315 64493 L-496242 64908 L-496163 65263 L-495927 65145 L-495683 65085 L-495548 65026 L-495441 64967 L-495362 64908 L-494975 64789 L-494848 64730 L-494695 64671 L-494657 64612 L-494511 64552 L-494290 64493 L-494116 64434 L-494047 64375 L-493226 64256 L-493209 64256 L-492915 64197 L-492127 64138 L-491817 64138 L-491671 64079 L-491443 64020 L-491242 63901 L-490305 63842 L-490268 63783 L-490246 63724 L-490205 63605 L-489936 63546 L-489340 63487 L-489276 63428 L-489241 63368 L-489224 63309 L-488529 63309 L-488327 63309 L-488295 63309 L-487962 63309 L-487854 63250 L-487230 63132 L-486725 63072 L-486688 62954 L-486246 62954 L-486150 62895 L-485991 62895 L-485678 62895 L-485665 62895 L-485225 62954 L-484743 63013 L-484614 63013 L-484294 63013 L-484226 62954 L-483922 62954 L-483746 62895 L-483552 62835 L-483309 62717 L-483112 62599 L-483086 62480 L-482508 62421 L-482438 62362 L-482028 62303 L-481974 62243 L-481928 62184 L-481564 62125 L-481418 62066 L-481212 62007 L-481116 62007 L-480961 61947 L-480899 61888 L-480752 61770 L-480651 61711 L-480094 61711 L-480072 61829 L-479900 61888 L-479358 61947 L-479297 61947 L-479243 61829 L-479215 61711 L-479143 61651 L-479127 61533 L-479064 61474 L-479027 61355 L-478872 61296 L-478547 61237 L-477981 61178 L-477966 61119 L-477904 61000 L-477803 60882 L-477756 60882 L-477514 60822 L-477092 60822 L-476937 60822 L-475195 60704 L-474654 60645 L-473710 60586 L-473301 60526 L-472760 60408 L-472563 60349 L-472395 60290 L-472099 60230 L-471984 60171 L-471969 60171 L-471814 60112 L-471674 60053 L-471598 59934 L-471466 59934 L-471118 59934 L-470747 59994 L-470149 59994 L-469974 59994 L-469817 59934 L-469549 59875 L-469397 59875 L-469106 60053 L-469082 60171 L-468999 60290 L-468772 60408 L-468072 60349 L-467945 60290 L-467514 60230 L-467420 60171 L-466215 60171 L-466166 60112 L-465873 60112 L-465469 60053 L-465193 59934 L-465174 59875 L-465056 59816 L-464980 59757 L-464799 59698 L-464319 59638 L-463867 59520 L-463457 59461 L-463427 59402 L-463008 59342 L-462894 59342 L-462776 59342 L-462761 59342 L-462567 59283 L-462545 59165 L-462313 59105 L-461870 59046 L-461550 58928 L-461086 58928 L-460920 58869 L-460765 58809 L-460609 58809 L-460156 58809 L-459837 58809 L-459782 58869 L-459411 58869 L-459373 58928 L-459047 58928 L-458930 58869 L-458831 58809 L-458505 58691 L-458118 58632 L-457857 58573 L-457499 58454 L-457243 58395 L-455072 58336 L-455023 58277 L-455001 58217 L-454589 58217 L-454527 58217 L-454457 58277 L-454226 58277 L-453916 58217 L-453612 58099 L-453568 58040 L-453260 57981 L-453127 57921 L-452911 57862 L-452199 57803 L-452043 57803 L-451905 57744 L-451756 57744 L-451735 57744 L-451541 57685 L-451516 57625 L-451424 57566 L-451403 57507 L-451386 57448 L-451286 57388 L-450357 57329 L-449899 57329 L-448807 57211 L-448385 57211 L-447981 57152 L-447942 57092 L-447689 57033 L-446914 56915 L-446898 56856 L-446874 56796 L-446681 56737 L-445944 56678 L-445675 56619 L-445635 56560 L-445236 56441 L-445211 56382 L-444421 56323 L-443741 56264 L-442370 56204 L-442100 56145 L-442052 56086 L-441514 55968 L-441481 55908 L-441379 55790 L-441056 55731 L-440976 55671 L-440707 55671 L-439795 55612 L-439656 55612 L-439407 55494 L-438862 55494 L-438440 55435 L-438247 55375 L-438231 55375 L-438093 55257 L-437999 55198 L-437872 55139 L-437612 55079 L-437587 54961 L-437496 54902 L-437186 54843 L-437126 54783 L-437009 54783 L-436659 54783 L-435848 54783 L-435617 54665 L-434788 54665 L-434556 54547 L-434339 54487 L-433821 54487 L-433183 54428 L-432766 54369 L-432444 54310 L-431963 54251 L-431538 54251 L-431477 54191 L-431128 54191 L-431087 54132 L-431074 54073 L-430974 53955 L-430929 53955 L-430443 53895 L-429642 53895 L-429308 53895 L-428226 53836 L-427746 53777 L-427723 53718 L-427583 53658 L-427028 53599 L-426331 53540 L-426022 53481 L-425800 53422 L-425695 53362 L-425593 53244 L-424922 53185 L-424828 53126 L-424806 53126 L-424728 53066 L-424550 53066 L-424378 53066 L-424198 53007 L-424184 52948 L-424108 52889 L-423944 52830 L-423429 52770 L-423413 52711 L-423273 52711 L-422910 52652 L-422886 52652 L-422755 52593 L-422731 52534 L-422368 52474 L-421843 52356 L-421749 52297 L-421533 52178 L-421440 52119 L-421415 52060 L-420951 52001 L-420874 52001 L-420472 51941 L-420022 51941 L-418770 51882 L-418731 51823 L-418300 51764 L-418267 51705 L-417548 51645 L-417371 51586 L-417236 51527 L-416929 51468 L-416874 51409 L-416849 51290 L-416833 51172 L-416658 51113 L-416469 51053 L-415961 51053 L-415588 50580 L-415249 50047 L-415211 49573 L-414492 49159 L-414398 49100 L-414359 49040 L-413818 49040 L-413795 48981 L-413392 48922 L-412966 48863 L-412695 48863 L-412516 48804 L-412270 48685 L-412247 48626 L-412190 48507 L-411573 48448 L-411071 48389 L-410684 48389 L-410065 48448 L-409848 48448 L-409693 48507 L-408401 48389 L-408302 48330 L-407859 48211 L-407528 48152 L-407228 48034 L-406985 47975 L-406250 47856 L-405671 47797 L-404842 47738 L-404741 47679 L-404184 47619 L-404046 47560 L-402404 47501 L-402343 47501 L-402249 47501 L-401282 47501 L-401105 47442 L-400818 47442 L-400600 47442 L-400522 47383 L-400250 47383 L-400135 47323 L-399982 47264 L-399672 47205 L-399593 47146 L-399502 47146 L-399425 47087 L-399309 47087 L-399130 47027 L-399038 46968 L-398999 46909 L-398496 46909 L-398278 46850 L-398148 46850 L-397993 46791 L-397939 46731 L-397814 46731 L-397429 46672 L-396921 46613 L-396848 46554 L-396368 46494 L-396291 46435 L-396191 46435 L-395957 46376 L-395493 46376 L-395263 46376 L-395246 46376 L-395014 46376 L-394859 46376 L-394798 46376 L-394605 46317 L-394334 46198 L-393582 46139 L-392629 46139 L-392593 46080 L-392368 46080 L-391929 46080 L-391648 45962 L-391299 45902 L-390230 45843 L-389303 45843 L-389172 45843 L-389125 45843 L-389056 45784 L-388901 45784 L-388824 45666 L-388650 45547 L-388215 45429 L-388011 45370 L-387951 45251 L-387368 45192 L-387214 45074 L-387099 45014 L-387058 44955 L-386889 44896 L-386752 44837 L-386541 44718 L-386463 44659 L-386440 44600 L-386231 44481 L-385821 44422 L-385797 44363 L-385574 44304 L-385428 44245 L-385394 44185 L-385380 44126 L-385358 44067 L-385124 44008 L-384939 43949 L-384722 43889 L-384696 43830 L-384007 43771 L-383904 43712 L-383868 43653 L-383847 43593 L-383653 43534 L-383600 43475 L-383483 43357 L-383402 43357 L-383291 43297 L-382976 43238 L-382517 43179 L-382262 43120 L-382028 43001 L-381898 42942 L-381545 42883 L-381486 42824 L-381333 42764 L-380761 42646 L-380675 42587 L-380521 42468 L-380225 42350 L-379855 42232 L-379552 42113 L-379476 42054 L-379071 41995 L-378903 41995 L-378759 41995 L-378219 41995 L-378158 41995 L-378142 41876 L-377976 41817 L-377770 41758 L-377696 41758 L-377603 41699 L-377193 41640 L-377177 41580 L-377154 41580 L-376961 41521 L-376884 42054 L-376713 42587 L-376651 43060 L-376636 43593 L-376121 43534 L-375900 43475 L-375281 43357 L-375027 43297 L-374833 43238 L-374794 43179 L-374721 43179 L-374655 43179 L-374005 43179 L-373966 43238 L-373792 43238 L-373726 43238 L-373052 43238 L-372663 43120 L-372401 43060 L-372164 43001 L-372086 42883 L-372070 42764 L-371868 42705 L-371497 42587 L-371272 42528 L-370636 42468 L-370616 42468 L-370229 42409 L-370136 42409 L-370078 42350 L-369801 42291 L-369492 42291 L-369415 42232 L-368564 42291 L-368221 42587 L-367784 42942 L-367350 43238 L-366855 43534 L-366706 43475 L-366437 43534 L-365199 43593 L-365143 43712 L-363379 43771 L-363188 43712 L-362178 43653 L-362027 43593 L-361652 43712 L-361331 43830 L-360725 43949 L-360656 44067 L-360479 44008 L-359650 43949 L-359511 43889 L-359125 43830 L-358940 43771 L-358897 43712 L-358777 43653 L-358567 43593 L-358119 43475 L-357771 43416 L-357639 43357 L-357230 43297 L-356880 43297 L-356595 43238 L-356401 43179 L-356246 43179 L-356083 43120 L-356014 43060 L-355914 43060 L-355681 43001 L-355565 43001 L-355511 42942 L-354969 42942 L-354505 42883 L-353323 42883 L-353190 42883 L-353165 42883 L-353112 42883 L-352445 42883 L-351410 42764 L-351216 42705 L-351037 42646 L-350885 42646 L-350844 42587 L-350829 42587 L-350768 42528 L-350443 42468 L-349282 42409 L-349089 42350 L-348911 42291 L-347797 42232 L-346938 42172 L-346831 42172 L-346358 42113 L-346165 42113 L-343843 42054 L-343766 41995 L-343645 41876 L-343610 41817 L-343573 41699 L-343478 41521 L-343263 41403 L-342681 41284 L-342295 41225 L-341522 41166 L-341444 41107 L-340747 41107 L-340206 41107 L-340165 41047 L-340035 41047 L-339570 40988 L-339532 40929 L-339397 40870 L-339029 40811 L-338999 40751 L-338849 40751 L-338449 40692 L-336625 40751 L-335818 40692 L-335099 40692 L-335082 40692 L-334769 40574 L-334207 40515 L-333706 40455 L-333187 40396 L-333165 40337 L-331421 40278 L-331252 40219 L-331057 40159 L-330163 40100 L-329644 39982 L-329434 39923 L-329176 39863 L-328467 39804 L-327516 39745 L-326858 39686 L-326819 39567 L-326532 39508 L-326450 39449 L-326354 39449 L-326222 39390 L-326145 39390 L-325410 39390 L-325073 39330 L-325023 39390 L-324768 39390 L-324481 39330 L-324056 39330 L-323475 39271 L-323217 39271 L-323065 39212 L-322818 39212 L-322779 39212 L-321982 39153 L-321944 39094 L-321767 39094 L-321358 38975 L-321130 38975 L-321053 38975 L-320922 38975 L-320806 38916 L-320458 38857 L-320394 38798 L-320242 38738 L-319501 38679 L-319390 38620 L-319220 38561 L-319181 38502 L-318886 38502 L-318484 38502 L-318308 38502 L-318214 38502 L-317904 38442 L-317103 38383 L-316644 38265 L-316124 38206 L-315636 38146 L-314940 38087 L-313894 38028 L-313625 38028 L-313571 37969 L-313410 37969 L-313159 37969 L-312913 37910 L-312834 37850 L-312620 37732 L-312308 37673 L-311844 37554 L-311830 37495 L-311533 37495 L-311520 37436 L-310529 37377 L-309856 37317 L-309522 37199 L-308905 37199 L-308768 37140 L-308130 37081 L-307999 37021 L-307048 36903 L-306949 36785 L-306389 36725 L-305981 36725 L-305552 36725 L-305461 36666 L-304627 36666 L-304263 36666 L-304224 36725 L-304092 36785 L-303915 36785 L-303698 36785 L-303644 36725 L-303487 36607 L-303234 36548 L-302134 36489 L-302057 36429 L-301837 36370 L-301706 36252 L-301670 36193 L-301477 36133 L-301377 36074 L-300894 36015 L-300609 35956 L-300449 35896 L-300354 35778 L-300083 35719 L-299813 35660 L-299797 35423 L-299658 35245 L-299520 35068 L-299193 34831 L-298884 34712 L-298844 34653 L-298768 34535 L-298652 34476 L-297802 34357 L-297475 34298 L-297144 34239 L-297011 34239 L-296795 34239 L-296779 34239 L-296099 34239 L-296005 34120 L-295982 34061 L-295966 33943 L-295928 33883 L-295516 33765 L-295247 33706 L-295207 33647 L-294838 33647 L-294628 33587 L-293545 33587 L-293529 33528 L-293500 33469 L-293480 33469 L-293103 33351 L-292848 33291 L-292600 33173 L-292461 33055 L-292329 32995 L-291997 32936 L-291904 32877 L-291843 32818 L-291285 32759 L-291224 32699 L-291068 32640 L-290874 32581 L-290681 32522 L-290666 32462 L-290627 32403 L-290589 32344 L-290318 32285 L-290195 32226 L-290162 32166 L-290063 32166 L-289907 32166 L-289766 32166 L-289482 32107 L-289157 32107 L-288461 32048 L-288438 32048 L-287928 32048 L-287082 32048 L-286719 31989 L-286565 31930 L-285961 31930 L-285791 31930 L-285730 31930 L-285675 31870 L-284619 31811 L-284601 31811 L-283695 31811 L-283674 31811 L-283507 31752 L-283264 31752 L-283214 31693 L-283160 31574 L-283022 31515 L-282983 31456 L-282054 31397 L-281999 31397 L-281877 31397 L-281805 31397 L-281690 31397 L-281511 31456 L-280529 31397 L-280390 31397 L-280272 31278 L-279977 31160 L-279730 31101 L-279693 31042 L-279639 31101 L-279617 31101 L-279484 31101 L-279405 31101 L-279267 31042 L-278644 31042 L-278478 30982 L-278014 30982 L-277837 30864 L-277821 30805 L-277760 30746 L-277644 30686 L-277161 30627 L-276466 30568 L-276093 30509 L-275924 30449 L-274957 30390 L-274803 30331 L-274625 30331 L-274532 30272 L-274277 30272 L-274106 30272 L-273459 30213 L-273448 30213 L-272868 30153 L-272730 30153 L-272675 30035 L-271940 29976 L-271901 29917 L-271824 29917 L-271182 29857 L-270407 29857 L-270315 29798 L-270266 29798 L-270251 29739 L-270214 29739 L-270198 29621 L-270135 29561 L-270119 29502 L-270099 29502 L-269944 29443 L-269905 29384 L-269889 29325 L-269850 29265 L-269711 29206 L-269634 29147 L-269270 29088 L-268922 29029 L-268148 28969 L-267546 28910 L-267350 28851 L-267119 28851 L-266982 28792 L-266344 28792 L-266054 28732 L-266033 28732 L-265573 28673 L-265340 28673 L-265285 28614 L-265246 28555 L-264743 28496 L-264193 28436 L-263405 28377 L-262282 28377 L-261388 28318 L-261300 28318 L-261001 28259 L-260929 28200 L-260813 28140 L-259636 28081 L-259288 28022 L-259266 27963 L-258746 27904 L-258600 27844 L-258491 27785 L-258282 27726 L-258127 27667 L-258105 27608 L-257911 27548 L-257834 27489 L-257690 27430 L-256889 27371 L-256743 27312 L-256463 27252 L-256286 27193 L-255976 27134 L-255165 27075 L-254236 27075 L-252644 27015 L-252401 26956 L-251760 26897 L-251565 26838 L-251487 26779 L-250969 26719 L-250737 26719 L-250714 26660 L-250582 26660 L-250243 26601 L-250232 26542 L-250016 26483 L-249979 26423 L-249437 26364 L-248908 26246 L-248841 26187 L-248548 26127 L-248000 26009 L-247965 25950 L-247912 25891 L-247813 25772 L-247580 25772 L-247000 25772 L-246902 25831 L-246828 25831 L-246496 25772 L-245746 25713 L-245707 25654 L-245028 25654 L-244873 25654 L-244547 25595 L-244331 25535 L-244099 25535 L-243803 25476 L-243557 25417 L-243206 25358 L-243152 25298 L-242393 25239 L-241700 25121 L-241349 25002 L-240885 24943 L-240252 24884 L-239843 24825 L-239765 24884 L-239339 24884 L-238697 24825 L-238528 24825 L-237786 24766 L-237598 24706 L-237303 24647 L-236731 24588 L-236706 24529 L-235686 24529 L-235199 24470 L-235106 24470 L-235045 24410 L-234757 24351 L-234471 24292 L-234410 24233 L-234230 24233 L-233519 24174 L-233343 24114 L-233144 24055 L-232993 23996 L-232901 23937 L-232839 23878 L-232297 23878 L-231987 23818 L-231895 23700 L-231818 23582 L-231250 23522 L-231160 23522 L-230905 23404 L-230578 23285 L-230541 23108 L-230386 22930 L-230154 22871 L-229832 22812 L-228699 22753 L-228500 22693 L-227975 22634 L-227730 22634 L-227484 22575 L-227404 22516 L-227384 22397 L-227308 22338 L-227252 22220 L-227175 22161 L-227136 22101 L-226957 21983 L-226920 21924 L-226688 21865 L-225451 21805 L-225124 21746 L-225084 21628 L-224303 21568 L-224156 21509 L-223164 21450 L-222958 21450 L-222532 21450 L-222404 21450 L-222000 21509 L-221912 21450 L-221255 21391 L-220548 21332 L-219940 21272 L-219746 21213 L-219513 21095 L-218895 21036 L-218599 20917 L-218160 20858 L-218005 20799 L-217850 20740 L-217094 20621 L-216744 20562 L-216341 20562 L-216303 20503 L-215297 20503 L-214977 20503 L-214730 20444 L-214030 20325 L-213957 20266 L-213645 20207 L-212564 20148 L-212373 20088 L-212139 20088 L-211944 20029 L-211444 19970 L-210690 19970 L-210577 19970 L-210376 19970 L-210335 19911 L-210243 19851 L-209930 19792 L-209841 19733 L-209725 19674 L-209407 19674 L-209338 19615 L-209314 19555 L-208952 19496 L-208913 19437 L-208696 19378 L-208193 19437 L-207591 19496 L-207379 19615 L-207226 19674 L-207188 19674 L-207144 19555 L-207110 19496 L-206977 19437 L-206568 19378 L-206197 19319 L-206144 19259 L-206127 19200 L-206048 19141 L-205639 19082 L-205485 19023 L-205470 18904 L-205430 18845 L-205252 18727 L-205176 18667 L-204944 18608 L-204154 18549 L-204077 18549 L-203342 18431 L-203186 18371 L-202946 18253 L-202884 18134 L-202799 18075 L-202777 17957 L-202659 17838 L-202644 17720 L-202583 17602 L-202545 17542 L-202451 17483 L-202429 17483 L-202313 17424 L-202080 17365 L-201910 17246 L-201090 17246 L-200688 17187 L-200533 17187 L-200028 17187 L-199914 17187 L-199318 17187 L-198943 17128 L-198892 17128 L-198698 17069 L-198001 17069 L-197963 17010 L-197818 17010 L-197593 16950 L-197331 16891 L-196957 16832 L-196532 16773 L-196403 16714 L-196383 16595 L-195889 16595 L-195193 16536 L-194961 16595 L-194807 16595 L-193839 16595 L-193614 16654 L-193336 16654 L-193320 16595 L-192795 16536 L-192266 16477 L-192118 16417 L-192098 16358 L-191556 16299 L-191246 16240 L-191129 16121 L-190937 16003 L-190801 15885 L-190474 15825 L-190357 15766 L-190047 15766 L-189621 15707 L-189566 15707 L-189333 15766 L-189236 15766 L-189103 15766 L-188807 15766 L-188693 15707 L-188328 15648 L-188016 15648 L-187533 15589 L-187362 15529 L-187114 15470 L-186898 15411 L-186372 15352 L-186186 15233 L-185831 15174 L-185195 15115 L-185041 14997 L-184300 14937 L-183880 14878 L-183700 14819 L-183624 14819 L-183493 14760 L-183199 14701 L-183158 14641 L-182928 14641 L-182736 14582 L-182481 14582 L-182054 14523 L-181945 14464 L-181327 14464 L-181145 14464 L-179934 14464 L-179287 14523 L-179136 14523 L-179098 14523 L-178966 14523 L-178865 14464 L-178850 14404 L-178768 14345 L-178556 14286 L-178439 14227 L-178077 14168 L-177705 14108 L-177008 14049 L-176606 13990 L-176501 13931 L-176483 13872 L-175538 13812 L-175343 13694 L-175191 13635 L-175136 13516 L-174379 13516 L-174362 13635 L-173873 13694 L-173743 13812 L-173550 13812 L-172660 13753 L-172620 13694 L-172582 13635 L-172505 13576 L-172466 13576 L-172389 13516 L-172306 13457 L-172041 13398 L-171809 13339 L-171747 13280 L-171266 13220 L-170930 13220 L-170819 13161 L-170625 13102 L-170449 13043 L-170389 13043 L-170353 12984 L-170083 12924 L-169385 12806 L-169332 12687 L-169038 12569 L-168636 12451 L-168072 12391 L-167199 12332 L-166894 12273 L-166856 12214 L-166734 12155 L-166135 12095 L-166005 12036 L-165805 11977 L-165768 11918 L-165154 11859 L-164975 11799 L-164961 11681 L-164742 11622 L-164664 11503 L-164357 11503 L-164225 11444 L-163993 11444 L-163659 11444 L-163567 11385 L-163467 11326 L-163429 11267 L-162886 11267 L-162693 11207 L-162152 11148 L-161726 11089 L-161594 11089 L-161533 11089 L-161302 11089 L-161285 11089 L-160797 11148 L-160716 11148 L-160699 11148 L-159306 11207 L-159170 11207 L-159056 11148 L-158422 11089 L-158282 11030 L-158165 10970 L-158011 10852 L-157974 10793 L-157895 10734 L-157841 10793 L-156849 10793 L-156813 10734 L-156680 10734 L-156619 10615 L-156520 10556 L-156230 10497 L-156217 10438 L-155906 10438 L-155807 10497 L-155341 10438 L-155288 16714 L-155145 22930 L-155017 29206 L-154785 35482 L-154216 35423 L-154127 35364 L-154105 35364 L-153818 35304 L-153135 35245 L-153058 35186 L-153022 35127 L-153005 35068 L-152806 35008 L-152385 34890 L-152114 34890 L-151241 34831 L-150949 34831 L-150838 34831 L-150103 34772 L-149976 34712 L-149617 34653 L-149364 34653 L-148493 34594 L-148324 34594 L-148262 34535 L-148207 34476 L-147860 34416 L-147836 34357 L-147627 34298 L-147487 34239 L-147357 34179 L-147234 34120 L-147110 34061 L-146873 34002 L-146583 33943 L-145924 33883 L-145902 33824 L-145747 33765 L-145629 33706 L-144665 33647 L-144609 33587 L-144377 33528 L-144354 33469 L-144028 33410 L-143913 33410 L-143873 33351 L-143371 33351 L-143072 33291 L-142961 33232 L-142418 33173 L-141359 33114 L-140733 33055 L-140562 32995 L-140314 32936 L-140058 32877 L-139927 32818 L-139905 32759 L-139238 32699 L-138342 32640 L-138295 32581 L-138225 32522 L-138109 32522 L-137889 32462 L-137698 32462 L-137659 32403 L-137466 32344 L-136807 32344 L-136190 32285 L-136152 32640 L-135555 32995 L-135494 33291 L-134371 33587 L-134317 33587 L-134196 33528 L-133930 33469 L-133867 33469 L-133598 33469 L-133522 33410 L-133305 33410 L-132823 33351 L-132553 33291 L-132422 33291 L-132190 33173 L-132165 32995 L-132150 32759 L-132127 32462 L-132111 32166 L-132087 31870 L-132074 31515 L-132050 31160 L-132034 30805 L-132011 30509 L-131996 30213 L-131974 29917 L-131958 29739 L-131930 29561 L-131912 29325 L-131894 29206 L-131857 29029 L-131818 28910 L-131803 28792 L-131777 28614 L-131725 28496 L-131701 28377 L-131624 28259 L-131586 28200 L-131571 28081 L-131508 27963 L-131493 27844 L-131447 27667 L-131376 27548 L-131338 27489 L-131314 27371 L-131261 27252 L-131236 27193 L-131221 27134 L-131159 27075 L-131122 27015 L-131045 26956 L-131029 26897 L-131001 26779 L-130929 26719 L-130889 26660 L-130735 26542 L-130619 26483 L-130565 26423 L-130482 26364 L-130449 26305 L-130425 26246 L-130271 26187 L-130255 26127 L-130154 26068 L-129843 26009 L-129807 25950 L-129592 25891 L-129481 25891 L-129456 25891 L-129226 25950 L-128993 25950 L-128618 25891 L-128491 25831 L-128451 25772 L-128398 25713 L-128297 25654 L-128260 25595 L-128050 25595 L-127985 25535 L-127873 25535 L-127661 25476 L-127624 25417 L-127252 25358 L-127199 25298 L-127120 25239 L-127098 25180 L-127005 25121 L-126805 25062 L-126768 25062 L-126746 25062 L-126516 25062 L-126495 25002 L-126286 25002 L-126191 24943 L-126153 24884 L-125817 24825 L-125704 24766 L-125664 24706 L-125651 24706 L-125511 24647 L-125496 24647 L-125242 24647 L-124659 24588 L-124583 24529 L-124545 24470 L-124500 24410 L-124452 24351 L-124272 24292 L-124257 24233 L-124158 24174 L-124080 24114 L-124020 24055 L-123654 23937 L-123572 23878 L-123554 23818 L-123500 23759 L-122532 23700 L-122400 23641 L-122379 23582 L-122158 23522 L-122090 23463 L-122067 23404 L-121821 23345 L-121565 23285 L-121434 23226 L-121394 23167 L-121373 23049 L-121317 22930 L-121230 22871 L-121168 22753 L-120943 22693 L-120814 22634 L-120714 22575 L-120660 22516 L-120466 22457 L-120389 22397 L-120055 22338 L-119924 22279 L-119747 22220 L-119731 22161 L-119706 22101 L-119437 22101 L-118236 22042 L-118199 22042 L-118083 21983 L-117849 21924 L-117658 21865 L-117619 21865 L-117564 21805 L-117459 21805 L-116945 21746 L-116651 21687 L-116419 21628 L-116144 21568 L-116127 21509 L-116095 21450 L-116054 21391 L-116017 21332 L-115916 21272 L-115838 21213 L-115745 21154 L-115619 21095 L-115514 21036 L-115336 21036 L-115143 20976 L-114314 20976 L-114198 20917 L-113944 20858 L-113904 20799 L-113805 20740 L-113745 20740 L-113502 20680 L-113478 20680 L-113358 20621 L-113286 20562 L-113247 20503 L-113015 20444 L-112838 20384 L-112318 20325 L-112242 20266 L-112225 20207 L-111814 20207 L-111451 20207 L-111335 20148 L-111313 20148 L-111272 20088 L-111196 20029 L-111142 19970 L-110793 19911 L-110677 19851 L-110500 19851 L-110445 19792 L-110421 19792 L-110307 19733 L-110020 19674 L-109787 19615 L-109572 19555 L-109362 19496 L-109152 19378 L-108326 19319 L-107986 19259 L-106979 19200 L-106615 19141 L-105570 19082 L-105492 19023 L-105045 18963 L-104834 18904 L-104642 18845 L-104348 18786 L-104307 18727 L-104154 18667 L-104100 18549 L-103868 18490 L-103288 18431 L-103094 18371 L-102475 18371 L-101986 18312 L-101934 18253 L-101285 18194 L-101135 18134 L-100966 18075 L-100593 18016 L-100577 18016 L-100478 17957 L-100440 17957 L-100309 17898 L-99876 17898 L-99573 17898 L-99187 17898 L-99047 17838 L-98885 17838 L-98452 17838 L-98413 17779 L-98311 17779 L-98196 17720 L-98018 17720 L-97848 17661 L-97730 17602 L-97368 17483 L-97151 17424 L-97018 17365 L-96878 17365 L-96379 17365 L-96301 17365 L-96067 17306 L-95743 17306 L-95356 17246 L-95334 17187 L-94713 17187 L-94443 17128 L-94210 17128 L-93786 17069 L-93514 17010 L-93372 16950 L-93163 16891 L-92958 16832 L-92406 16773 L-92276 16773 L-91889 16714 L-91619 16714 L-91516 16654 L-91255 16595 L-91054 16536 L-90984 16477 L-90946 16417 L-90378 16358 L-90171 16299 L-90144 16240 L-89915 16181 L-89838 16121 L-89321 16062 L-89282 16003 L-89127 15944 L-88833 15885 L-88562 15825 L-88198 15766 L-87850 15766 L-87478 15707 L-87357 15707 L-87286 15648 L-86806 15589 L-86743 15529 L-86408 15470 L-86277 15411 L-86200 15352 L-86070 15293 L-85606 15293 L-85313 15233 L-85236 15233 L-84924 15174 L-84616 15115 L-84553 15056 L-84523 14997 L-83748 14937 L-83644 14819 L-83556 14760 L-83533 14701 L-83379 14641 L-83157 14582 L-82990 14523 L-82604 14464 L-82549 14404 L-82485 14404 L-81868 14345 L-81751 14286 L-81428 14227 L-80902 14168 L-80552 14108 L-80476 14049 L-79856 13990 L-79445 13931 L-79144 13872 L-78834 13812 L-78696 13753 L-78071 13753 L-77690 13694 L-76566 13694 L-75506 13635 L-75443 13576 L-75083 13516 L-74981 13516 L-74965 13457 L-74592 13457 L-73586 13339 L-73200 13280 L-72992 13161 L-72904 13102 L-72528 13043 L-72235 12984 L-71924 12924 L-71135 12865 L-71047 12806 L-70995 12747 L-70956 12687 L-70439 12628 L-70323 12569 L-70115 12510 L-69975 12451 L-69372 12391 L-68543 12332 L-68259 12273 L-68077 12273 L-67576 12214 L-67371 12214 L-66817 12214 L-66311 12155 L-66120 12095 L-66082 12036 L-65453 11977 L-65000 11918 L-64585 11859 L-63977 11799 L-62856 11799 L-62443 11740 L-62119 11740 L-61904 11681 L-61477 11622 L-61337 11563 L-61246 11503 L-61014 11444 L-60428 11444 L-59620 11385 L-58420 11385 L-58307 11385 L-58174 11326 L-58087 11267 L-58045 11326 L-58024 11385 L-58014 11503 L-57919 11622 L-57155 11622 L-56449 11622 L-56409 11563 L-56123 11503 L-55583 11444 L-55521 11385 L-55481 11326 L-55466 11267 L-55209 11207 L-54886 11148 L-54746 11089 L-54476 11030 L-54437 10970 L-54329 10911 L-53928 10852 L-53818 10793 L-53741 10734 L-53444 10674 L-53401 10615 L-53183 10615 L-52999 10615 L-52888 10615 L-52874 10556 L-52848 10556 L-52424 10497 L-52177 10438 L-51842 10378 L-51807 10319 L-51672 10260 L-51419 10260 L-51264 10201 L-50358 10201 L-50259 10142 L-50064 10023 L-49056 9964 L-48556 9905 L-48477 9846 L-48439 9786 L-48231 9727 L-48113 9668 L-48014 9609 L-47829 9550 L-47663 9490 L-47427 9431 L-47008 9372 L-46992 9313 L-46683 9253 L-45638 9194 L-45420 9135 L-45405 9076 L-45382 9017 L-45174 8957 L-45015 8898 L-44956 8839 L-43511 8780 L-43185 8780 L-42984 8780 L-42785 8780 L-42634 8780 L-42364 8721 L-41923 8661 L-41705 8661 L-41011 8602 L-40508 8543 L-40183 8484 L-39912 8484 L-39192 8425 L-39037 8425 L-37838 8306 L-37449 8247 L-37334 8129 L-37180 8069 L-37027 8010 L-36056 7951 L-36004 7892 L-35757 7833 L-35735 7773 L-35515 7714 L-35076 7596 L-34937 7477 L-34829 7359 L-34627 7300 L-34510 7240 L-34408 7181 L-34393 7181 L-34261 7122 L-34007 7063 L-33389 7004 L-32729 6944 L-32484 6944 L-32291 6885 L-31532 6885 L-31492 6885 L-31414 6826 L-31362 6708 L-31323 6648 L-31285 6589 L-31246 6530 L-31155 6471 L-31110 6412 L-31052 6293 L-31028 6234 L-30913 6175 L-30603 6056 L-30548 5997 L-30526 5938 L-30184 5879 L-30019 5820 L-29984 5701 L-29943 5642 L-29928 5583 L-29697 5523 L-29556 5464 L-29388 5405 L-28939 5405 L-28705 5405 L-28613 5405 L-28593 5464 L-28112 5405 L-28034 5405 L-27907 5346 L-27777 5227 L-27399 5168 L-27158 5050 L-27120 4991 L-27066 4931 L-26928 4813 L-26889 4754 L-26849 4695 L-26618 4635 L-26578 4576 L-26448 4517 L-26269 4458 L-26229 4399 L-26215 4339 L-26050 4280 L-26036 4221 L-25883 4162 L-25868 4103 L-25842 4043 L-25807 3984 L-25585 3866 L-25363 3866 L-25109 3806 L-24977 3866 L-24334 3866 L-23727 3806 L-22707 3806 L-22514 3747 L-22463 3688 L-22338 3629 L-22014 3570 L-21241 3510 L-21183 3451 L-21069 3392 L-20658 3333 L-20333 3274 L-20195 3214 L-19971 3155 L-19445 3096 L-19044 3096 L-19012 3037 L-18725 3037 L-18440 2978 L-18052 2918 L-17836 2859 L-17408 2741 L-17227 2682 L-16891 2622 L-16784 2563 L-16598 2563 L-16481 2504 L-16466 2504 L-15745 2445 L-15576 2386 L-15327 2326 L-15227 2267 L-14585 2208 L-14297 2149 L-14106 2089 L-13831 2030 L-13514 1971 L-13229 1912 L-13115 1793 L-13070 1734 L-12868 1675 L-11260 1616 L-11047 1557 L-10366 1497 L-10284 1438 L-10056 1379 L-9865 1379 L-9726 1320 L-9708 1320 L-9515 1320 L-9285 1320 L-9092 1320 L-8008 1261 L-7813 1261 L-7760 1261 L-7606 1261 L-7498 1261 L-7332 1261 L-7180 1201 L-7064 1142 L-6940 1024 L-6523 965 L-6266 846 L-6174 787 L-5981 787 L-5919 728 L-5594 728 L-5532 728 L-5475 669 L-5207 609 L-4858 550 L-4680 491 L-4485 432 L-4450 491 L-3737 491 L-3697 609 L-3388 669 L-3090 728 L-3041 787 L-2785 846 L-2514 905 L-2459 905 L-1368 905 L-1337 846 L-1297 846 L-1120 846 L-928 787 L-70 787 L983 728 L1043 669 L1392 609 L2205 609 L3018 609 L3034 609 L3409 609 L3577 609 L3846 609 L4173 550 L4295 491 L4352 491 L4388 432 L4465 432 L4682 373 L4740 313 L5056 254 L5224 195 L5587 195 L5780 195 L5804 195 L5881 136 L6362 136 L6500 136" />
</svg>
