<svg xmlns="http://www.w3.org/2000/svg" version="1.1" viewBox="0 0 6500 1000">
	<path fill="none" stroke="gold" stroke-width="125" stroke-linecap="round" stroke-linejoin="round" d="M0 60622  L-435651 60622 L-435467 60584 L-434976 60508 L-434683 60470 L-434371 60394 L-434137 60356 L-434084 60280 L-434024 60204 L-433871 60166 L-433831 60090 L-433698 60052 L-433406 60014 L-432865 60014 L-432255 59976 L-432207 59976 L-431567 59937 L-431533 59937 L-431008 59937 L-430875 59899 L-430485 59823 L-430157 59747 L-430040 59671 L-429828 59595 L-429111 59595 L-428541 59557 L-428434 59557 L-428260 59519 L-428038 59443 L-427637 59405 L-427611 59329 L-426683 59253 L-426596 59177 L-426513 59101 L-426443 59025 L-426146 58987 L-425994 58910 L-424104 58949 L-424003 58949 L-423741 58949 L-423447 58987 L-423306 58910 L-423057 58910 L-423021 58872 L-422863 58834 L-422399 58758 L-422146 58720 L-421934 58644 L-421683 58606 L-421334 58568 L-420407 58492 L-420313 58416 L-419902 58378 L-418731 58302 L-417542 58264 L-417450 58188 L-417423 58112 L-417157 58036 L-416858 57960 L-416729 57883 L-416691 57807 L-415877 57807 L-415493 57845 L-414432 57883 L-414371 57883 L-414106 58644 L-413635 59367 L-413442 60090 L-413179 60812 L-412842 60774 L-412706 60736 L-412251 60698 L-411507 60660 L-411490 60622 L-411325 60546 L-411256 60546 L-410740 60508 L-409712 60508 L-409515 60470 L-409027 60432 L-408665 60394 L-408256 60394 L-407871 60432 L-406167 60432 L-406069 60432 L-405997 60432 L-405936 60432 L-405752 60394 L-405415 60394 L-404775 60356 L-404698 60318 L-404636 60318 L-404450 60280 L-404370 60280 L-404193 60242 L-404174 60204 L-403944 60204 L-403556 60166 L-402667 60166 L-402628 60128 L-402540 60090 L-402512 60014 L-401504 59976 L-401355 59899 L-401330 59861 L-401197 59823 L-401158 59785 L-399899 59747 L-399842 59747 L-399302 59709 L-399249 59709 L-399203 59709 L-398808 59671 L-398668 59633 L-398468 59595 L-398321 59595 L-398157 59595 L-397880 59633 L-397521 59633 L-396969 59595 L-396324 59557 L-396065 59481 L-395912 59443 L-395511 59405 L-395470 59367 L-395350 59329 L-395288 59367 L-395274 59367 L-395180 59367 L-394887 59329 L-394736 59177 L-394405 59101 L-394328 59025 L-394252 58987 L-394025 58872 L-393959 58796 L-393731 58720 L-393679 58644 L-393514 58606 L-392508 58568 L-392325 58530 L-391774 58492 L-391381 58416 L-390983 58378 L-390133 58302 L-390055 58264 L-389476 58226 L-389034 58226 L-388794 58188 L-388636 58188 L-388236 58112 L-388215 58112 L-387770 58074 L-387365 58036 L-387229 57960 L-387053 57883 L-386917 57807 L-386667 57731 L-385667 57693 L-385585 57655 L-385449 57617 L-385411 57579 L-384521 57541 L-384305 57503 L-383862 57465 L-383745 57427 L-383688 57389 L-383012 57389 L-382911 57351 L-382882 57351 L-381541 57313 L-381135 57275 L-381095 57237 L-380167 57199 L-380069 57161 L-379936 57123 L-379532 57085 L-379505 57047 L-379413 57009 L-379196 56971 L-378785 56895 L-377631 56818 L-377340 56742 L-377311 56666 L-376703 56628 L-376453 56552 L-376433 56514 L-375504 56476 L-375453 56400 L-375330 56362 L-375313 56286 L-375157 56248 L-374981 56172 L-374845 56134 L-374788 56096 L-374680 56058 L-374595 56020 L-374362 55982 L-374287 55944 L-373979 55906 L-373861 55868 L-373691 55829 L-373600 55791 L-373497 55791 L-373474 55753 L-373397 55753 L-373299 55677 L-372932 55639 L-372827 55601 L-372324 55563 L-371872 55525 L-371834 55487 L-371810 55449 L-371769 55411 L-371640 55373 L-371540 55335 L-371098 55297 L-370816 55259 L-370223 55221 L-370093 55183 L-369819 55107 L-369666 55069 L-369513 55031 L-369428 54955 L-369350 54917 L-369164 54879 L-369113 54879 L-369086 54841 L-369006 54802 L-368983 54764 L-368700 54688 L-368096 54612 L-367100 54574 L-366803 54536 L-366069 54498 L-365824 54460 L-365734 54422 L-365157 54384 L-364459 54346 L-363706 54308 L-363388 54270 L-363005 54194 L-362928 54156 L-362293 54118 L-362108 54080 L-362020 54080 L-361891 54080 L-361578 54042 L-361528 54004 L-361386 53966 L-361365 53928 L-360397 53890 L-359852 53852 L-359373 53852 L-359312 53852 L-358989 53852 L-358967 53813 L-358905 53813 L-358695 53775 L-358618 53737 L-358563 53699 L-358541 53661 L-358501 53623 L-358486 53585 L-357729 53547 L-357712 53509 L-356913 53471 L-356760 53433 L-355855 53395 L-355349 53357 L-355119 53281 L-355078 53281 L-354963 53243 L-354786 53205 L-354032 53243 L-353897 53205 L-353733 53167 L-353415 53129 L-353239 53053 L-352217 52977 L-352194 52901 L-351942 52863 L-351729 52786 L-351095 52748 L-350858 52672 L-350825 52596 L-350647 52520 L-350567 52444 L-350477 52406 L-350412 52330 L-349972 52254 L-349949 52216 L-349408 52178 L-349152 52140 L-348657 52102 L-347780 52064 L-347743 52026 L-347690 51988 L-347649 51950 L-347532 51912 L-347256 51874 L-347048 51798 L-346851 51721 L-346828 51645 L-346778 51569 L-346739 51531 L-346661 51493 L-346063 51417 L-346003 51379 L-345900 51341 L-345745 51303 L-345113 51265 L-344433 51227 L-344130 51151 L-343783 51113 L-343586 51075 L-343537 50999 L-343217 50961 L-342589 50923 L-342443 50885 L-342406 50847 L-342348 50809 L-342272 50732 L-342031 50732 L-341942 50694 L-341848 50656 L-341554 50618 L-341420 50580 L-341360 50542 L-341323 50466 L-341051 50466 L-340045 50428 L-339869 50390 L-339819 50390 L-339526 50352 L-339334 50276 L-339000 50238 L-338494 50200 L-337932 50124 L-337917 50048 L-337900 50010 L-337800 49934 L-337685 49858 L-337646 49782 L-337608 49744 L-337543 49744 L-337515 49705 L-337376 49744 L-337083 49744 L-337033 49744 L-336928 49744 L-336663 49705 L-336198 49667 L-336054 49667 L-335999 49591 L-335942 49553 L-335751 49515 L-335386 49477 L-335171 49477 L-334977 49477 L-334919 49477 L-334860 49401 L-334706 49363 L-334436 49325 L-334007 49515 L-333991 49515 L-333914 49477 L-333850 49439 L-333720 49173 L-333697 49135 L-333413 49097 L-333365 49059 L-333311 49021 L-332848 48983 L-332809 48983 L-332769 48945 L-332578 48907 L-332098 48869 L-331611 48831 L-331594 48793 L-331556 48755 L-331300 48717 L-331223 48640 L-330993 48602 L-330977 48526 L-330682 48450 L-330240 48412 L-329793 48374 L-329288 48336 L-329135 48298 L-328848 48260 L-328808 48184 L-328477 48146 L-328255 48108 L-327738 48032 L-327662 47994 L-327414 47918 L-327220 47842 L-327160 47804 L-326384 47766 L-326310 47766 L-326079 47728 L-326062 47728 L-326000 47689 L-325805 47651 L-325341 47651 L-325317 47613 L-325188 47613 L-323887 47613 L-323870 47613 L-323793 47575 L-323700 47575 L-323482 47575 L-323330 47537 L-323152 47575 L-323098 47613 L-322811 47651 L-322771 47651 L-322401 47651 L-321961 47651 L-321778 47651 L-321457 47613 L-321162 47613 L-320716 47537 L-320644 47499 L-320182 47423 L-319744 47385 L-319562 47347 L-318108 47271 L-317976 47233 L-317519 47157 L-317293 47119 L-316906 47043 L-316390 46967 L-315436 46891 L-314642 46815 L-313967 46777 L-313542 46701 L-313230 46662 L-313000 46548 L-312317 46434 L-312304 46320 L-312094 46168 L-312072 46130 L-311898 46054 L-310948 46016 L-310680 45940 L-309864 45902 L-309554 45826 L-309516 45788 L-309459 45712 L-308842 45674 L-308204 45597 L-306578 45559 L-305904 45521 L-305262 45521 L-305185 45521 L-305128 45521 L-305093 45521 L-305064 45483 L-304953 45407 L-304935 45369 L-304912 45331 L-304759 45293 L-304705 45217 L-304627 45179 L-304508 45141 L-304410 45103 L-304293 45065 L-304023 44989 L-303753 44951 L-303736 44875 L-303536 44837 L-303389 44761 L-303162 44723 L-303028 44685 L-302720 44647 L-302660 44608 L-302307 44532 L-301958 44494 L-301857 44456 L-301793 44380 L-301733 44342 L-301348 44266 L-300967 44228 L-300863 44190 L-300603 44152 L-300332 44076 L-300173 44038 L-300140 44000 L-300078 43962 L-299937 43924 L-299753 43886 L-299709 43848 L-299420 43848 L-299404 43810 L-299171 43810 L-299110 43772 L-299072 43772 L-298492 43734 L-298358 43696 L-298335 43543 L-298317 43277 L-298299 42973 L-298283 42669 L-298259 42364 L-298243 42136 L-298221 41870 L-298205 41604 L-298182 41451 L-298165 41299 L-298143 41185 L-298126 41109 L-298078 40995 L-298005 40881 L-297971 40691 L-297947 40538 L-297911 40386 L-297870 40234 L-297833 40158 L-297817 40006 L-297793 39892 L-297756 39816 L-297739 39702 L-297716 39626 L-297698 39550 L-297679 39473 L-297663 39397 L-297634 39283 L-297608 39169 L-297563 39131 L-297546 39055 L-297504 39017 L-297456 38941 L-297386 38865 L-297370 38789 L-297354 38713 L-297292 38675 L-297253 38637 L-297214 38599 L-297048 38561 L-296983 38523 L-296967 38484 L-296923 38408 L-296864 38370 L-296651 38332 L-296618 38294 L-296576 38256 L-296498 38218 L-295960 38180 L-295882 38142 L-295778 38066 L-295689 38028 L-295513 37990 L-295162 37952 L-295006 37914 L-294569 37876 L-294412 37838 L-294282 37800 L-293578 37724 L-293377 37686 L-292417 37610 L-291934 37572 L-291835 37572 L-291743 37534 L-291498 37496 L-291425 37457 L-290982 37381 L-290886 37343 L-290871 37305 L-290855 37267 L-290830 37229 L-290364 37191 L-290147 37153 L-290007 37115 L-289713 37077 L-289625 37039 L-289583 37001 L-289554 36963 L-289381 36925 L-289322 36887 L-289246 36849 L-289165 36811 L-289096 36811 L-288786 36773 L-288701 36735 L-288488 36697 L-288452 36659 L-287769 36621 L-287670 36583 L-287465 36545 L-287419 36507 L-287140 36468 L-287078 36430 L-287061 36354 L-286983 36316 L-286675 36240 L-286651 36202 L-286597 36126 L-286574 36088 L-286451 36050 L-286316 35974 L-286071 35936 L-285946 35936 L-285299 35898 L-285283 35898 L-285258 35898 L-285078 35822 L-285002 35784 L-284910 35746 L-284482 35708 L-284066 35670 L-283673 35594 L-283595 35556 L-283576 35518 L-283212 35480 L-282976 35441 L-282748 35403 L-282435 35365 L-282357 35327 L-282276 35251 L-282098 35175 L-282082 35137 L-281817 35061 L-281737 35023 L-281507 34985 L-281281 34947 L-280965 34947 L-280790 34909 L-280429 34909 L-280037 34871 L-279968 34795 L-279904 34757 L-279763 34681 L-279712 34643 L-279610 34567 L-279108 34529 L-278911 34491 L-278664 34453 L-278479 34414 L-278179 34376 L-278103 34338 L-277937 34262 L-277053 34224 L-277024 34148 L-276901 34072 L-276322 34034 L-276244 33996 L-275531 33996 L-275219 33996 L-275006 33996 L-274989 33996 L-274603 33996 L-274078 33920 L-273632 33882 L-273302 33844 L-273149 33806 L-272823 33806 L-272645 33768 L-272563 33768 L-272357 33692 L-272182 33654 L-271253 33616 L-270363 33578 L-270324 33540 L-270096 33540 L-269717 33502 L-268930 33464 L-268695 33426 L-268619 33387 L-268262 33349 L-267690 33273 L-267423 33235 L-267037 33197 L-266933 33197 L-266763 33197 L-266145 33197 L-265933 33197 L-265626 33197 L-265572 33159 L-265445 33121 L-265392 33083 L-265272 33045 L-264936 32969 L-263977 32931 L-263846 32855 L-263644 32817 L-263013 32779 L-262701 32741 L-262288 32703 L-262260 32665 L-262115 32627 L-261695 32589 L-260362 32589 L-260315 32551 L-260187 32475 L-260170 32437 L-259592 32360 L-259386 32322 L-259357 32284 L-259316 32246 L-259258 32208 L-259221 32170 L-259143 32132 L-259000 32094 L-258545 32056 L-258427 32018 L-258142 31980 L-257769 31942 L-257673 31904 L-257346 31866 L-256992 31828 L-256822 31790 L-256774 31752 L-256665 31714 L-256576 31676 L-256548 31638 L-256472 31562 L-256169 31524 L-256135 31448 L-256063 31410 L-255695 31372 L-255360 31333 L-255279 31333 L-255059 31295 L-254888 31257 L-254860 31219 L-254363 31181 L-253814 31105 L-252933 31067 L-252835 30991 L-252758 30953 L-252483 30915 L-252236 30839 L-252162 30801 L-252100 30725 L-251982 30687 L-251939 30649 L-251829 30611 L-251752 30535 L-251052 30497 L-250806 30459 L-250766 30421 L-250610 30383 L-250011 30383 L-249784 30383 L-249692 30383 L-249217 30383 L-248619 30306 L-248100 30268 L-248079 30230 L-247933 30192 L-247613 30192 L-247071 30192 L-246839 30192 L-246669 30192 L-246183 30154 L-245955 30116 L-245870 30078 L-245524 30040 L-245198 30040 L-244675 30002 L-244347 29964 L-243747 29926 L-243549 29850 L-243497 29812 L-243457 29774 L-243176 29736 L-242491 29660 L-242181 29622 L-242156 29546 L-241965 29508 L-241742 29470 L-241656 29432 L-240992 29356 L-240968 29317 L-240746 29241 L-240416 29203 L-240064 29127 L-239860 29089 L-239627 29013 L-239369 28975 L-239179 28899 L-239132 28861 L-238905 28823 L-238871 28785 L-238714 28747 L-238500 28709 L-238327 28671 L-238235 28633 L-237958 28595 L-237714 28557 L-237399 28519 L-236973 28519 L-236935 28519 L-236452 28519 L-236219 28519 L-236007 28481 L-235781 28443 L-235231 28443 L-234984 28405 L-234150 28405 L-234094 28367 L-234072 28329 L-233914 28290 L-233453 28252 L-233412 28214 L-233072 28138 L-232939 28100 L-232716 28062 L-232144 28024 L-231672 27986 L-231477 27948 L-231285 27910 L-231095 27872 L-230993 27834 L-230625 27796 L-230579 27758 L-230497 27720 L-229204 27682 L-229156 27644 L-228887 27644 L-228742 27644 L-228191 27644 L-228074 27606 L-227993 27568 L-227633 27530 L-227410 27492 L-227129 27454 L-226799 27378 L-226291 27340 L-226179 27302 L-226100 27263 L-225936 27225 L-225641 27225 L-225173 27225 L-224976 27263 L-224926 27263 L-224276 27225 L-224154 27187 L-223700 27187 L-223664 27149 L-223196 27111 L-223085 27073 L-223069 27035 L-222853 27035 L-222672 26997 L-222140 26997 L-221111 26997 L-220911 26959 L-220453 26921 L-219505 26845 L-219406 26807 L-219052 26731 L-218991 26693 L-218977 26655 L-218941 26617 L-218572 26579 L-218452 26541 L-218210 26503 L-218046 26465 L-217859 26427 L-217738 26389 L-216667 26313 L-215809 26275 L-215597 26198 L-215500 26160 L-215326 26084 L-214992 26046 L-214921 26008 L-214863 25970 L-214688 25970 L-214299 25932 L-214063 25894 L-213952 25856 L-213835 25818 L-212854 25780 L-212829 25742 L-212235 25666 L-212202 25666 L-212053 25628 L-211769 25590 L-210857 25590 L-209911 25590 L-209758 25552 L-209656 25552 L-209524 25514 L-209381 25476 L-209355 25438 L-209240 25400 L-209022 25362 L-208341 25324 L-208211 25286 L-207908 25248 L-207668 25171 L-207335 25133 L-206697 25095 L-206354 25019 L-206292 24981 L-206137 24981 L-205215 24981 L-204745 24981 L-204701 24981 L-204688 24943 L-204647 24905 L-204625 24867 L-204598 24829 L-204454 24791 L-204032 24753 L-203696 24753 L-203505 24715 L-203077 24715 L-202889 24677 L-202500 24601 L-201966 24563 L-201593 24525 L-201571 24525 L-201322 24487 L-201203 24449 L-201127 24411 L-200992 24373 L-200952 24335 L-200872 24297 L-200478 24259 L-199982 24220 L-199870 24144 L-199697 24106 L-199389 24068 L-198941 24030 L-198618 23992 L-198476 23916 L-198049 23840 L-197896 23764 L-197840 23688 L-197027 23650 L-197007 23612 L-196635 23574 L-196578 23574 L-195449 23536 L-195381 23536 L-194823 23498 L-194628 23460 L-194492 23422 L-194258 23384 L-193911 23346 L-193877 23270 L-193842 23232 L-193773 23155 L-193424 23117 L-193252 23079 L-192767 23041 L-192751 23003 L-192426 22965 L-192268 22927 L-191128 22851 L-191103 22813 L-190911 22737 L-190717 22699 L-190467 22661 L-190450 22623 L-189430 22585 L-189132 22547 L-189057 22509 L-188921 22433 L-188745 22395 L-188168 22319 L-187953 22281 L-187889 22243 L-187758 22205 L-187721 22128 L-187198 22090 L-187060 37077 L-187046 37077 L-187023 37077 L-187003 37077 L-186775 22052 L-185999 22052 L-185958 22052 L-185590 22052 L-185512 22014 L-185460 21976 L-184787 21938 L-184044 21900 L-183620 21900 L-183172 21862 L-182110 21824 L-181798 21748 L-181388 21748 L-181316 21710 L-180792 21710 L-180697 21710 L-180680 21710 L-180235 21672 L-180049 21596 L-179269 21520 L-178597 21482 L-178185 21368 L-177953 21292 L-177812 21254 L-177731 21178 L-177711 21139 L-177635 21139 L-177506 21101 L-177189 21139 L-176965 21139 L-176640 21101 L-176578 21101 L-176208 21101 L-176175 21101 L-175966 21101 L-175299 21101 L-175221 21101 L-175063 21025 L-174953 21025 L-174626 20987 L-174471 20949 L-174130 20949 L-174073 20873 L-173735 20797 L-173531 20759 L-173478 20683 L-172102 20645 L-171972 20607 L-171539 20569 L-171218 20531 L-170391 20455 L-170267 20417 L-169537 20341 L-169381 20265 L-169340 20227 L-169286 20189 L-169263 20151 L-169149 20112 L-168853 20074 L-168563 20036 L-168508 19998 L-168388 19960 L-168358 19922 L-168258 19884 L-167814 19884 L-167662 19846 L-166827 19846 L-166285 19808 L-165950 19808 L-165935 19770 L-165859 19732 L-165743 19694 L-165548 19656 L-165284 19618 L-164449 19580 L-164353 19542 L-163832 19504 L-163790 19466 L-163690 19428 L-162862 19428 L-162727 19390 L-162389 19390 L-161834 19352 L-161455 19314 L-161292 19276 L-160982 19238 L-160169 19200 L-159863 19162 L-159595 19162 L-159273 19162 L-158952 19200 L-158677 19200 L-157848 19124 L-157753 19085 L-157661 18971 L-157556 18857 L-157169 18743 L-156689 18667 L-156673 18629 L-156554 18591 L-156186 18515 L-156091 18477 L-155257 18401 L-155180 18363 L-154881 18325 L-154790 18287 L-154383 18211 L-154273 18135 L-153573 18096 L-153100 18058 L-153040 18020 L-152821 17944 L-152548 17906 L-152435 17868 L-151407 17830 L-151021 17792 L-151001 17754 L-150668 17716 L-150423 17678 L-149990 17640 L-149880 17602 L-149762 17564 L-149311 17488 L-148720 17450 L-148384 17412 L-146491 17374 L-146377 17298 L-146165 17260 L-144847 17222 L-144740 8663 L-144675 219 L-144638 -7578 L-144577 -7578 L-144077 904 L-143402 9272 L-143380 16993 L-143110 16917 L-142141 16917 L-141452 16879 L-141290 16841 L-140749 16803 L-140660 16765 L-139640 16727 L-138693 16651 L-138327 16689 L-138224 16727 L-137636 16727 L-137577 16727 L-137476 16689 L-137036 16613 L-136928 16575 L-136487 16537 L-135487 16423 L-135230 16309 L-135128 16195 L-134997 16119 L-134631 16042 L-134050 15966 L-134019 15928 L-133704 15890 L-131721 15852 L-131605 15814 L-131537 15814 L-131179 15776 L-129560 15738 L-129382 15738 L-129238 15738 L-128416 15776 L-128363 15814 L-128308 15814 L-127874 15814 L-126894 15852 L-126820 15852 L-125735 15814 L-125522 15814 L-124806 15738 L-124418 15700 L-124199 15624 L-123879 15548 L-123385 15472 L-123258 15434 L-123029 15358 L-122797 15282 L-122737 15244 L-122448 15206 L-122176 15130 L-121146 15092 L-119481 15054 L-119062 15015 L-118924 14977 L-118768 14977 L-118463 14939 L-118235 14863 L-118076 14825 L-117917 14749 L-117748 14673 L-117700 14635 L-117647 14597 L-117625 14597 L-117239 14559 L-116990 14559 L-116719 14559 L-116558 14559 L-116469 14559 L-114810 14559 L-114645 14597 L-114265 14559 L-113805 14559 L-113195 14483 L-112102 14445 L-111671 14407 L-111640 14369 L-111577 14331 L-111560 14293 L-109856 14255 L-109814 14217 L-109348 14179 L-109161 14141 L-109129 14065 L-108533 14027 L-108484 13988 L-108161 13950 L-108110 13912 L-107900 13874 L-107882 13836 L-107616 13760 L-107563 13722 L-107094 13684 L-106583 13608 L-106505 13608 L-106211 13570 L-106194 13532 L-106156 13494 L-106084 13456 L-105927 13418 L-104981 13418 L-104925 13418 L-104404 13418 L-104211 13380 L-104110 13380 L-103885 13342 L-103375 13342 L-102987 14369 L-102917 14369 L-102569 14331 L-102212 14293 L-101083 13190 L-101031 13114 L-100805 13076 L-100772 13038 L-100647 12961 L-100548 12961 L-100283 12961 L-99543 13000 L-98964 13000 L-98671 13000 L-97965 13000 L-97786 12961 L-97763 12961 L-97127 12923 L-96816 12885 L-96419 12885 L-96390 12847 L-96369 12809 L-96215 12771 L-95530 12771 L-95513 12771 L-95174 12771 L-94901 12733 L-94864 12695 L-94808 12619 L-94786 12581 L-94714 12543 L-94382 12505 L-94276 12467 L-94247 12391 L-94049 12353 L-93896 12315 L-93028 12277 L-92465 12201 L-92449 12201 L-92348 12163 L-92246 12201 L-92099 12201 L-92021 12201 L-91983 12163 L-91928 12125 L-91855 12087 L-91710 12049 L-91228 12049 L-90823 12011 L-89957 12049 L-89937 12049 L-89679 12049 L-89603 12049 L-89574 12011 L-89563 11934 L-89546 11896 L-89253 11858 L-89214 11820 L-89142 11782 L-89068 11744 L-88863 11706 L-88703 11592 L-88402 11478 L-88325 11326 L-88307 11212 L-88091 11136 L-87860 11136 L-87750 11174 L-87380 11212 L-87222 11212 L-86990 11212 L-86822 11212 L-86677 11174 L-86545 11136 L-85269 11060 L-84866 10984 L-84805 10945 L-84688 10869 L-84263 10831 L-84247 10755 L-84185 10717 L-83912 10641 L-83800 10603 L-83517 10527 L-83240 10489 L-82815 10413 L-82793 10375 L-82714 10337 L-82589 10299 L-82002 10261 L-81611 10223 L-81276 10185 L-80686 10147 L-80584 10147 L-80414 10109 L-80278 10109 L-79450 10071 L-78265 10033 L-78228 9995 L-78173 9995 L-77952 9957 L-77747 9957 L-77593 9957 L-77336 9918 L-77260 9880 L-76717 9842 L-76680 9804 L-76432 9766 L-76044 9728 L-75219 9690 L-74860 9652 L-74550 9652 L-74292 9614 L-74068 9576 L-73662 9538 L-73546 9500 L-73362 9462 L-73309 9462 L-73121 9424 L-72950 9386 L-72921 9348 L-72641 9310 L-72330 9272 L-72192 9234 L-71882 9196 L-71688 9196 L-71673 9158 L-70954 9158 L-70820 9082 L-70522 9044 L-70432 9006 L-69831 9006 L-69793 8968 L-69715 8930 L-69094 8891 L-68943 8815 L-68902 8777 L-68591 8739 L-68400 8701 L-68207 8625 L-68151 8549 L-67842 8511 L-67790 8473 L-67736 8511 L-67710 8511 L-67585 8511 L-66774 8473 L-66698 8435 L-66157 8397 L-65888 8359 L-65229 8321 L-64321 8283 L-64080 8245 L-63548 8207 L-63331 8169 L-62223 8207 L-62173 8207 L-61397 8207 L-60850 8169 L-60738 8131 L-60586 8055 L-60530 8017 L-60365 7979 L-59988 7941 L-59540 7903 L-59486 7864 L-59331 7826 L-58651 7788 L-58431 7750 L-57913 7712 L-57064 7636 L-57048 7598 L-55257 7560 L-54703 7522 L-54586 7484 L-53580 7446 L-53543 7408 L-53310 7408 L-53218 7408 L-53178 7408 L-52846 7370 L-52494 7332 L-52229 7256 L-51942 7218 L-51631 7142 L-51377 7066 L-51284 7028 L-50793 6990 L-50586 6952 L-50021 6914 L-49906 6952 L-49555 6914 L-49504 6914 L-49463 6914 L-48860 6837 L-48126 6761 L-47545 6685 L-47309 6609 L-46769 6495 L-46617 6419 L-46115 6381 L-45906 6305 L-45882 6305 L-45823 6267 L-44861 6267 L-44683 6229 L-44241 6191 L-44217 6115 L-44062 6077 L-43980 6077 L-43830 6115 L-43183 6115 L-43134 6077 L-42014 6039 L-41029 6001 L-40968 5963 L-40247 5925 L-39382 5887 L-39004 5848 L-38785 5848 L-38025 5810 L-37973 5772 L-37664 5696 L-36813 5696 L-36619 5658 L-36443 5620 L-36218 5620 L-36092 5582 L-35900 5582 L-35667 5544 L-35498 5582 L-35211 5544 L-34932 5544 L-34849 5506 L-34678 5468 L-34662 5392 L-34508 5354 L-34468 5316 L-33693 5278 L-33616 5278 L-33384 5202 L-32957 5164 L-32612 5126 L-32029 5088 L-31760 5088 L-31501 5088 L-31372 5012 L-31355 4974 L-31242 4936 L-31218 4898 L-30984 4860 L-30948 4821 L-29632 4821 L-29576 4783 L-28897 4707 L-28324 4707 L-28199 4707 L-28046 4707 L-27969 4707 L-27657 4631 L-27384 4593 L-27295 4517 L-27193 4517 L-26265 4479 L-26189 4479 L-25825 4479 L-25800 4441 L-25764 4403 L-24988 4327 L-24896 4289 L-24756 4251 L-24355 4213 L-24093 4213 L-23850 4251 L-23635 4213 L-23555 4213 L-23479 4213 L-23402 4213 L-23215 4251 L-23149 4251 L-22899 4251 L-22844 4213 L-22707 4175 L-22627 4099 L-22514 4061 L-22291 4023 L-22126 3985 L-22085 3947 L-21916 3909 L-21545 3871 L-21530 3833 L-21414 3794 L-20693 3756 L-20657 3718 L-20524 3718 L-20176 3680 L-19765 3680 L-19729 3680 L-19651 3642 L-19612 3604 L-19248 3566 L-19043 3528 L-19028 3490 L-18683 3452 L-18335 3452 L-18009 3452 L-17907 3414 L-17754 3414 L-17560 3376 L-17328 3376 L-17236 3376 L-17080 3376 L-17003 3376 L-16962 3338 L-16849 3300 L-16825 3262 L-16575 3262 L-16436 3186 L-15858 3072 L-15030 2996 L-14542 2920 L-14421 2882 L-14382 2844 L-14369 2806 L-14217 2729 L-14116 2653 L-13883 2615 L-13493 2539 L-13189 2501 L-13173 2463 L-13002 2425 L-12764 2349 L-12167 2349 L-11564 2311 L-11524 2311 L-11484 2311 L-11330 2273 L-11277 2235 L-11215 2197 L-11147 2159 L-11092 2083 L-11067 2045 L-11020 2007 L-10925 1931 L-10788 1893 L-10635 1855 L-10503 1817 L-10462 1817 L-10426 1779 L-10364 1740 L-10091 1664 L-9777 1626 L-9736 1550 L-9651 1512 L-9473 1474 L-9236 1436 L-8878 1398 L-8848 1360 L-8279 1322 L-8156 1284 L-7920 1246 L-7898 1246 L-7616 1208 L-7331 1208 L-7075 1208 L-6503 1170 L-6207 1132 L-6131 1094 L-5432 1056 L-5354 1018 L-5319 980 L-5293 942 L-5241 866 L-5047 828 L-4907 751 L-4871 713 L-4831 675 L-4235 637 L-4003 599 L-3720 866 L-3665 1094 L-3591 1360 L-3513 1588 L-3277 1512 L-3033 1474 L-2898 1436 L-2791 1398 L-2711 1360 L-2324 1284 L-2197 1246 L-2045 1208 L-2007 1170 L-1861 1132 L-1640 1094 L-1466 1056 L-1397 1018 L-575 942 L-559 942 L-264 904 L522 866 L832 866 L978 828 L1206 790 L1407 713 L2344 675 L2381 637 L2404 599 L2444 523 L2713 485 L3309 447 L3373 409 L3409 371 L3426 333 L4121 333 L4322 333 L4354 333 L4687 333 L4795 295 L5420 219 L5924 181 L5961 105 L6403 105 L6500 67" />
</svg>
