<svg xmlns="http://www.w3.org/2000/svg" version="1.1" viewBox="0 0 6500 1000">
	<path fill="none" stroke="gold" stroke-width="125" stroke-linecap="round" stroke-linejoin="round" d="M0 917  L-19860 917 L-19448 893 L-19224 905 L-19167 893 L-19129 869 L-18945 845 L-18454 822 L-18161 810 L-17849 798 L-17615 774 L-17562 750 L-17502 726 L-17349 714 L-17309 702 L-17176 691 L-16884 702 L-16343 691 L-15733 667 L-15685 691 L-15045 667 L-15011 679 L-14486 655 L-14353 643 L-13963 595 L-13635 571 L-13518 548 L-13306 571 L-12589 559 L-12020 548 L-11912 536 L-11738 512 L-11516 488 L-11115 476 L-11089 452 L-10161 428 L-10074 405 L-9991 381 L-9921 357 L-9624 345 L-9472 333 L-7582 405 L-7481 369 L-7219 345 L-6925 369 L-6784 345 L-6535 333 L-6499 321 L-6341 297 L-5877 286 L-5624 262 L-5412 250 L-5161 238 L-4812 214 L-3885 190 L-3791 166 L-3380 154 L-2209 143 L-1020 119 L-928 95 L-901 71 L-635 35 L-336 12 L-207 0 L-169 -23 L644 59 L1028 47 L2089 23 L2150 12 L2415 976 L2886 964 L3079 941 L3342 929 L3679 917 L3815 929 L4270 893 L5014 881 L5031 857 L5196 845 L5265 869 L5781 857" />
</svg>
