<svg xmlns="http://www.w3.org/2000/svg" version="1.1" viewBox="0 0 6500 1000">
	<path fill="none" stroke="gold" stroke-width="125" stroke-linecap="round" stroke-linejoin="round" d="M0 3932  L-1323307 3932 L-1323122 3932 L-1322632 3932 L-1322339 3932 L-1322027 3932 L-1321793 3932 L-1321739 3932 L-1321680 3932 L-1321527 3931 L-1321487 3931 L-1321354 3931 L-1321061 3931 L-1320521 3931 L-1319910 3931 L-1319863 3931 L-1319222 3931 L-1319189 3931 L-1318664 3931 L-1318531 3931 L-1318141 3931 L-1317813 3931 L-1317695 3931 L-1317484 3931 L-1316767 3931 L-1316197 3931 L-1316090 3931 L-1315916 3931 L-1315694 3931 L-1315293 3931 L-1315267 3931 L-1314339 3931 L-1314252 3931 L-1314169 3931 L-1314099 3931 L-1313802 3931 L-1313650 3931 L-1311760 3931 L-1311659 3931 L-1311397 3931 L-1311103 3931 L-1310962 3931 L-1310713 3931 L-1310677 3931 L-1310519 3931 L-1310055 3931 L-1309802 3931 L-1309590 3931 L-1309339 3931 L-1308990 3931 L-1308062 3931 L-1307969 3931 L-1307558 3931 L-1306387 3931 L-1305198 3931 L-1305106 3931 L-1305078 3931 L-1304812 3930 L-1304513 3930 L-1304385 3930 L-1304347 3930 L-1303533 3930 L-1303149 3930 L-1302088 3930 L-1302027 3930 L-1301762 3931 L-1301290 3931 L-1301098 3931 L-1300834 3932 L-1300498 3932 L-1300362 3932 L-1299907 3932 L-1299163 3932 L-1299146 3932 L-1298980 3932 L-1298912 3932 L-1298396 3932 L-1297368 3932 L-1297171 3932 L-1296683 3932 L-1296321 3932 L-1295912 3932 L-1295527 3932 L-1293823 3932 L-1293725 3932 L-1293653 3932 L-1293592 3932 L-1293407 3932 L-1293071 3932 L-1292430 3932 L-1292354 3932 L-1292292 3932 L-1292106 3932 L-1292026 3932 L-1291849 3932 L-1291830 3932 L-1291600 3932 L-1291212 3931 L-1290323 3931 L-1290284 3931 L-1290196 3931 L-1290168 3931 L-1289160 3931 L-1289010 3931 L-1288986 3931 L-1288853 3931 L-1288814 3931 L-1287555 3931 L-1287497 3931 L-1286958 3931 L-1286905 3931 L-1286858 3931 L-1286463 3931 L-1286324 3931 L-1286124 3931 L-1285977 3931 L-1285813 3931 L-1285536 3931 L-1285177 3931 L-1284625 3931 L-1283980 3931 L-1283721 3931 L-1283567 3931 L-1283166 3931 L-1283126 3931 L-1283006 3931 L-1282944 3931 L-1282930 3931 L-1282836 3931 L-1282543 3931 L-1282392 3931 L-1282061 3931 L-1281983 3931 L-1281908 3931 L-1281681 3931 L-1281615 3931 L-1281387 3931 L-1281334 3931 L-1281170 3931 L-1280164 3931 L-1279981 3931 L-1279430 3931 L-1279037 3931 L-1278639 3931 L-1277789 3931 L-1277711 3931 L-1277132 3931 L-1276690 3931 L-1276449 3931 L-1276292 3931 L-1275891 3931 L-1275871 3931 L-1275426 3931 L-1275020 3930 L-1274885 3930 L-1274709 3930 L-1274573 3930 L-1274323 3930 L-1273323 3930 L-1273241 3930 L-1273105 3930 L-1273067 3930 L-1272177 3930 L-1271961 3930 L-1271518 3930 L-1271400 3930 L-1271344 3930 L-1270667 3930 L-1270567 3930 L-1270538 3930 L-1269196 3930 L-1268791 3930 L-1268751 3930 L-1267823 3930 L-1267725 3930 L-1267592 3930 L-1267187 3930 L-1267161 3930 L-1267068 3930 L-1266852 3930 L-1266441 3930 L-1265287 3930 L-1264996 3930 L-1264967 3930 L-1264359 3930 L-1264109 3930 L-1264089 3930 L-1263160 3930 L-1263108 3930 L-1262986 3930 L-1262968 3930 L-1262813 3930 L-1262637 3930 L-1262501 3930 L-1262444 3930 L-1262336 3930 L-1262251 3930 L-1262018 3930 L-1261943 3930 L-1261634 3929 L-1261517 3929 L-1261347 3929 L-1261256 3929 L-1261153 3929 L-1261130 3929 L-1261053 3929 L-1260955 3929 L-1260588 3929 L-1260483 3929 L-1259980 3929 L-1259528 3929 L-1259490 3929 L-1259466 3929 L-1259425 3929 L-1259296 3929 L-1259195 3929 L-1258754 3929 L-1258472 3929 L-1257879 3929 L-1257749 3929 L-1257474 3929 L-1257322 3929 L-1257169 3929 L-1257084 3929 L-1257006 3929 L-1256820 3929 L-1256769 3929 L-1256741 3929 L-1256662 3929 L-1256639 3929 L-1256355 3929 L-1255752 3929 L-1254756 3929 L-1254458 3929 L-1253725 3929 L-1253480 3929 L-1253390 3929 L-1252813 3929 L-1252114 3929 L-1251362 3929 L-1251044 3929 L-1250661 3929 L-1250584 3929 L-1249949 3929 L-1249764 3929 L-1249676 3929 L-1249546 3929 L-1249234 3929 L-1249184 3929 L-1249042 3929 L-1249021 3929 L-1248053 3929 L-1247507 3929 L-1247029 3929 L-1246968 3929 L-1246644 3929 L-1246623 3929 L-1246561 3929 L-1246350 3928 L-1246274 3928 L-1246219 3928 L-1246197 3928 L-1246157 3928 L-1246142 3928 L-1245384 3928 L-1245368 3928 L-1244568 3928 L-1244416 3928 L-1243511 3928 L-1243005 3928 L-1242775 3928 L-1242734 3928 L-1242619 3928 L-1242442 3928 L-1241688 3928 L-1241553 3928 L-1241389 3928 L-1241071 3928 L-1240895 3928 L-1239873 3928 L-1239849 3928 L-1239598 3928 L-1239385 3928 L-1238751 3928 L-1238513 3928 L-1238481 3928 L-1238303 3928 L-1238222 3928 L-1238133 3928 L-1238068 3928 L-1237628 3928 L-1237605 3928 L-1237064 3928 L-1236808 3928 L-1236313 3928 L-1235436 3928 L-1235399 3928 L-1235346 3928 L-1235305 3928 L-1235188 3928 L-1234911 3928 L-1234704 3928 L-1234507 3928 L-1234484 3927 L-1234434 3927 L-1234394 3927 L-1234316 3927 L-1233719 3927 L-1233659 3927 L-1233555 3927 L-1233401 3927 L-1232769 3927 L-1232089 3927 L-1231786 3927 L-1231439 3927 L-1231241 3927 L-1231193 3927 L-1230873 3927 L-1230245 3927 L-1230098 3927 L-1230062 3927 L-1230004 3927 L-1229928 3927 L-1229686 3927 L-1229598 3927 L-1229504 3927 L-1229210 3927 L-1229076 3927 L-1229016 3927 L-1228979 3927 L-1228707 3927 L-1227701 3927 L-1227525 3927 L-1227474 3927 L-1227182 3927 L-1226989 3927 L-1226656 3927 L-1226150 3927 L-1225588 3927 L-1225573 3927 L-1225556 3927 L-1225456 3927 L-1225341 3927 L-1225302 3927 L-1225264 3927 L-1225199 3927 L-1225171 3927 L-1225032 3927 L-1224739 3927 L-1224689 3927 L-1224584 3927 L-1224319 3927 L-1223854 3927 L-1223710 3927 L-1223655 3927 L-1223598 3927 L-1223407 3926 L-1223042 3926 L-1222827 3926 L-1222633 3926 L-1222575 3926 L-1222516 3926 L-1222362 3926 L-1222092 3926 L-1221662 3926 L-1221647 3926 L-1221570 3926 L-1221505 3926 L-1221376 3926 L-1221353 3926 L-1221069 3926 L-1221021 3926 L-1220966 3926 L-1220504 3926 L-1220465 3926 L-1220424 3926 L-1220234 3926 L-1219754 3926 L-1219267 3926 L-1219250 3926 L-1219212 3926 L-1218956 3926 L-1218878 3926 L-1218648 3926 L-1218632 3926 L-1218338 3926 L-1217896 3926 L-1217449 3926 L-1216944 3926 L-1216790 3926 L-1216504 3926 L-1216464 3926 L-1216133 3926 L-1215911 3926 L-1215394 3926 L-1215318 3926 L-1215070 3926 L-1214876 3926 L-1214816 3926 L-1214039 3926 L-1213965 3926 L-1213735 3926 L-1213718 3926 L-1213656 3926 L-1213461 3926 L-1212996 3926 L-1212973 3926 L-1212843 3926 L-1211543 3926 L-1211526 3926 L-1211449 3926 L-1211355 3926 L-1211138 3926 L-1210986 3926 L-1210808 3926 L-1210753 3926 L-1210467 3926 L-1210427 3926 L-1210057 3926 L-1209617 3926 L-1209434 3926 L-1209113 3926 L-1208818 3926 L-1208372 3926 L-1208300 3926 L-1207838 3926 L-1207400 3926 L-1207218 3925 L-1205764 3925 L-1205632 3925 L-1205175 3925 L-1204949 3925 L-1204562 3925 L-1204046 3925 L-1203092 3925 L-1202297 3925 L-1201623 3925 L-1201197 3925 L-1200886 3925 L-1200656 3925 L-1199973 3925 L-1199960 3925 L-1199750 3925 L-1199728 3925 L-1199554 3925 L-1198604 3925 L-1198335 3925 L-1197520 3925 L-1197210 3925 L-1197172 3925 L-1197115 3925 L-1196498 3925 L-1195860 3925 L-1194234 3925 L-1193560 3925 L-1192918 3925 L-1192841 3925 L-1192784 3925 L-1192749 3925 L-1192720 3925 L-1192608 3925 L-1192591 3925 L-1192568 3925 L-1192414 3925 L-1192361 3924 L-1192283 3924 L-1192164 3924 L-1192066 3924 L-1191949 3924 L-1191679 3924 L-1191409 3924 L-1191392 3924 L-1191192 3924 L-1191045 3924 L-1190818 3924 L-1190684 3924 L-1190375 3924 L-1190316 3924 L-1189962 3924 L-1189614 3924 L-1189513 3924 L-1189449 3924 L-1189389 3924 L-1189004 3924 L-1188623 3924 L-1188519 3924 L-1188259 3924 L-1187988 3924 L-1187828 3924 L-1187796 3924 L-1187734 3924 L-1187593 3924 L-1187409 3924 L-1187364 3924 L-1187076 3924 L-1187060 3924 L-1186827 3924 L-1186766 3924 L-1186728 3924 L-1186148 3924 L-1186014 3924 L-1185991 3924 L-1185973 3924 L-1185955 3923 L-1185939 3923 L-1185915 3923 L-1185899 3923 L-1185877 3923 L-1185861 3923 L-1185837 3923 L-1185821 3923 L-1185799 3923 L-1185782 3923 L-1185733 3923 L-1185661 3922 L-1185626 3922 L-1185603 3922 L-1185567 3922 L-1185526 3922 L-1185489 3922 L-1185473 3922 L-1185449 3922 L-1185412 3922 L-1185395 3922 L-1185371 3922 L-1185354 3922 L-1185335 3922 L-1185319 3922 L-1185290 3922 L-1185264 3922 L-1185219 3922 L-1185202 3922 L-1185160 3922 L-1185112 3922 L-1185042 3922 L-1185026 3921 L-1185010 3921 L-1184948 3921 L-1184909 3921 L-1184870 3921 L-1184704 3921 L-1184639 3921 L-1184623 3921 L-1184578 3921 L-1184520 3921 L-1184307 3921 L-1184274 3921 L-1184232 3921 L-1184153 3921 L-1183616 3921 L-1183538 3921 L-1183434 3921 L-1183345 3921 L-1183169 3921 L-1182818 3921 L-1182662 3921 L-1182225 3921 L-1182068 3921 L-1181938 3921 L-1181234 3921 L-1181033 3921 L-1180072 3921 L-1179590 3921 L-1179491 3921 L-1179399 3921 L-1179154 3921 L-1179080 3921 L-1178638 3921 L-1178542 3921 L-1178526 3921 L-1178510 3921 L-1178486 3921 L-1178020 3921 L-1177803 3921 L-1177663 3921 L-1177369 3921 L-1177281 3921 L-1177239 3921 L-1177210 3921 L-1177037 3921 L-1176978 3921 L-1176902 3921 L-1176821 3921 L-1176751 3921 L-1176442 3921 L-1176357 3921 L-1176143 3920 L-1176108 3920 L-1175425 3920 L-1175326 3920 L-1175121 3920 L-1175074 3920 L-1174796 3920 L-1174734 3920 L-1174717 3920 L-1174639 3920 L-1174331 3920 L-1174306 3920 L-1174252 3920 L-1174230 3920 L-1174107 3920 L-1173971 3920 L-1173727 3920 L-1173602 3920 L-1172955 3920 L-1172939 3920 L-1172914 3920 L-1172734 3920 L-1172658 3920 L-1172566 3920 L-1172138 3920 L-1171722 3920 L-1171329 3920 L-1171251 3920 L-1171232 3920 L-1170868 3920 L-1170632 3920 L-1170404 3920 L-1170091 3920 L-1170013 3920 L-1169932 3920 L-1169754 3920 L-1169738 3920 L-1169473 3920 L-1169393 3920 L-1169163 3920 L-1168937 3920 L-1168621 3920 L-1168446 3920 L-1168085 3920 L-1167693 3920 L-1167623 3920 L-1167560 3920 L-1167419 3920 L-1167368 3920 L-1167266 3919 L-1166764 3919 L-1166567 3919 L-1166320 3919 L-1166135 3919 L-1165835 3919 L-1165759 3919 L-1165593 3919 L-1164709 3919 L-1164680 3919 L-1164557 3919 L-1163978 3919 L-1163900 3919 L-1163187 3919 L-1162875 3919 L-1162662 3919 L-1162645 3919 L-1162259 3919 L-1161734 3919 L-1161287 3919 L-1160958 3919 L-1160805 3919 L-1160479 3919 L-1160301 3919 L-1160219 3919 L-1160013 3919 L-1159838 3919 L-1158909 3919 L-1158019 3919 L-1157980 3919 L-1157752 3919 L-1157373 3919 L-1156585 3919 L-1156351 3919 L-1156275 3919 L-1155918 3919 L-1155346 3919 L-1155079 3919 L-1154692 3919 L-1154589 3919 L-1154419 3919 L-1153800 3919 L-1153589 3919 L-1153281 3919 L-1153228 3919 L-1153101 3919 L-1153048 3919 L-1152928 3919 L-1152592 3919 L-1151633 3919 L-1151502 3919 L-1151300 3919 L-1150669 3919 L-1150357 3919 L-1149943 3919 L-1149916 3919 L-1149771 3919 L-1149351 3919 L-1148018 3919 L-1147971 3919 L-1147843 3919 L-1147826 3918 L-1147248 3918 L-1147042 3918 L-1147012 3918 L-1146972 3918 L-1146914 3918 L-1146877 3918 L-1146798 3918 L-1146655 3918 L-1146201 3918 L-1146083 3918 L-1145798 3918 L-1145425 3918 L-1145329 3918 L-1145002 3918 L-1144647 3918 L-1144477 3918 L-1144430 3918 L-1144321 3918 L-1144232 3918 L-1144204 3918 L-1144128 3918 L-1143824 3918 L-1143791 3918 L-1143719 3918 L-1143351 3918 L-1143016 3918 L-1142935 3918 L-1142715 3918 L-1142544 3918 L-1142516 3918 L-1142019 3918 L-1141470 3918 L-1140589 3918 L-1140491 3918 L-1140414 3918 L-1140139 3918 L-1139892 3918 L-1139818 3918 L-1139756 3918 L-1139638 3918 L-1139595 3918 L-1139485 3918 L-1139408 3918 L-1138708 3918 L-1138462 3918 L-1138422 3918 L-1138266 3918 L-1137667 3918 L-1137440 3918 L-1137348 3918 L-1136873 3918 L-1136275 3917 L-1135756 3917 L-1135735 3917 L-1135589 3917 L-1135269 3917 L-1134727 3917 L-1134495 3917 L-1134325 3917 L-1133838 3917 L-1133611 3917 L-1133526 3917 L-1133180 3917 L-1132854 3917 L-1132331 3917 L-1132003 3917 L-1131403 3917 L-1131205 3917 L-1131153 3917 L-1131113 3917 L-1130831 3917 L-1130147 3917 L-1129837 3917 L-1129812 3917 L-1129621 3917 L-1129398 3917 L-1129312 3917 L-1128648 3917 L-1128624 3917 L-1128402 3917 L-1128072 3917 L-1127720 3917 L-1127515 3917 L-1127283 3917 L-1127025 3917 L-1126835 3917 L-1126788 3917 L-1126561 3917 L-1126526 3917 L-1126370 3917 L-1126155 3917 L-1125982 3917 L-1125891 3917 L-1125614 3917 L-1125370 3917 L-1125055 3917 L-1124629 3917 L-1124591 3917 L-1124108 3917 L-1123875 3917 L-1123663 3917 L-1123437 3917 L-1122887 3917 L-1122640 3917 L-1121806 3917 L-1121750 3917 L-1121728 3917 L-1121570 3917 L-1121109 3917 L-1121068 3917 L-1120728 3916 L-1120595 3916 L-1120372 3916 L-1119800 3916 L-1119328 3916 L-1119133 3916 L-1118941 3916 L-1118751 3916 L-1118649 3916 L-1118281 3916 L-1118235 3916 L-1118153 3916 L-1116860 3916 L-1116811 3916 L-1116543 3916 L-1116398 3916 L-1115847 3916 L-1115730 3916 L-1115649 3916 L-1115289 3916 L-1115066 3916 L-1114784 3916 L-1114455 3916 L-1113947 3916 L-1113835 3916 L-1113756 3916 L-1113592 3916 L-1113297 3916 L-1112829 3916 L-1112632 3916 L-1112581 3916 L-1111932 3916 L-1111810 3916 L-1111356 3916 L-1111320 3916 L-1110852 3916 L-1110741 3916 L-1110725 3916 L-1110508 3916 L-1110328 3916 L-1109796 3916 L-1108766 3916 L-1108567 3916 L-1108109 3916 L-1107160 3916 L-1107062 3916 L-1106708 3916 L-1106647 3916 L-1106633 3916 L-1106597 3916 L-1106228 3916 L-1106108 3916 L-1105866 3916 L-1105702 3916 L-1105515 3916 L-1105394 3916 L-1104323 3916 L-1103465 3916 L-1103253 3916 L-1103156 3916 L-1102981 3916 L-1102648 3916 L-1102576 3915 L-1102519 3915 L-1102343 3915 L-1101955 3915 L-1101719 3915 L-1101608 3915 L-1101491 3915 L-1100510 3915 L-1100485 3915 L-1099890 3915 L-1099858 3915 L-1099709 3915 L-1099425 3915 L-1098513 3915 L-1097567 3915 L-1097414 3915 L-1097311 3915 L-1097180 3915 L-1097037 3915 L-1097010 3915 L-1096896 3915 L-1096678 3915 L-1095996 3915 L-1095867 3915 L-1095564 3915 L-1095324 3915 L-1094991 3915 L-1094352 3915 L-1094010 3915 L-1093948 3915 L-1093792 3915 L-1092871 3915 L-1092400 3915 L-1092357 3915 L-1092344 3915 L-1092303 3915 L-1092281 3915 L-1092254 3915 L-1092110 3915 L-1091687 3915 L-1091352 3915 L-1091161 3915 L-1090732 3915 L-1090545 3915 L-1090156 3915 L-1089621 3915 L-1089249 3915 L-1089227 3915 L-1088977 3915 L-1088859 3915 L-1088783 3915 L-1088647 3915 L-1088608 3915 L-1088528 3915 L-1088134 3915 L-1087638 3915 L-1087526 3915 L-1087353 3915 L-1087045 3915 L-1086597 3915 L-1086274 3915 L-1086132 3915 L-1085705 3914 L-1085551 3914 L-1085496 3914 L-1084682 3914 L-1084663 3914 L-1084291 3914 L-1084234 3914 L-1083105 3914 L-1083037 3914 L-1082479 3914 L-1082284 3914 L-1082148 3914 L-1081914 3914 L-1081567 3914 L-1081533 3914 L-1081497 3914 L-1081429 3914 L-1081080 3914 L-1080908 3914 L-1080423 3914 L-1080407 3914 L-1080082 3914 L-1079924 3914 L-1078783 3914 L-1078759 3914 L-1078567 3914 L-1078373 3914 L-1078123 3914 L-1078106 3914 L-1077086 3914 L-1076788 3914 L-1076713 3914 L-1076576 3914 L-1076401 3914 L-1075824 3914 L-1075608 3914 L-1075545 3914 L-1075414 3914 L-1075377 3914 L-1074854 3914 L-1074716 3921 L-1074702 3921 L-1074679 3921 L-1074658 3921 L-1074431 3914 L-1073655 3914 L-1073614 3914 L-1073246 3914 L-1073168 3914 L-1073116 3914 L-1072443 3914 L-1071700 3914 L-1071275 3914 L-1070828 3914 L-1069766 3914 L-1069454 3913 L-1069044 3913 L-1068972 3913 L-1068448 3913 L-1068353 3913 L-1068335 3913 L-1067891 3913 L-1067705 3913 L-1066925 3913 L-1066253 3913 L-1065840 3913 L-1065609 3913 L-1065468 3913 L-1065386 3913 L-1065366 3913 L-1065290 3913 L-1065162 3913 L-1064845 3913 L-1064621 3913 L-1064296 3913 L-1064234 3913 L-1063864 3913 L-1063831 3913 L-1063622 3913 L-1062954 3913 L-1062877 3913 L-1062719 3913 L-1062608 3913 L-1062282 3913 L-1062127 3913 L-1061786 3913 L-1061729 3913 L-1061391 3913 L-1061187 3913 L-1061134 3913 L-1059758 3913 L-1059628 3913 L-1059195 3913 L-1058874 3913 L-1058047 3913 L-1057923 3913 L-1057192 3913 L-1057037 3913 L-1056996 3913 L-1056942 3913 L-1056919 3913 L-1056805 3913 L-1056508 3913 L-1056219 3913 L-1056164 3913 L-1056044 3913 L-1056013 3913 L-1055914 3913 L-1055470 3913 L-1055318 3913 L-1054483 3913 L-1053941 3913 L-1053606 3913 L-1053591 3913 L-1053515 3913 L-1053399 3913 L-1053204 3913 L-1052940 3912 L-1052105 3912 L-1052009 3912 L-1051487 3912 L-1051446 3912 L-1051346 3912 L-1050518 3912 L-1050383 3912 L-1050044 3912 L-1049490 3912 L-1049111 3912 L-1048948 3912 L-1048638 3912 L-1047825 3912 L-1047519 3912 L-1047251 3912 L-1046929 3912 L-1046608 3912 L-1046333 3912 L-1045504 3912 L-1045409 3912 L-1045316 3912 L-1045212 3912 L-1044825 3912 L-1044345 3912 L-1044329 3912 L-1044210 3912 L-1043842 3912 L-1043747 3912 L-1042913 3912 L-1042836 3912 L-1042537 3912 L-1042446 3912 L-1042039 3912 L-1041929 3912 L-1041229 3912 L-1040756 3912 L-1040696 3912 L-1040477 3912 L-1040203 3912 L-1040091 3912 L-1039063 3912 L-1038677 3912 L-1038657 3912 L-1038324 3912 L-1038079 3912 L-1037646 3912 L-1037536 3912 L-1037418 3912 L-1036966 3911 L-1036376 3911 L-1036039 3911 L-1034147 3911 L-1034033 3911 L-1033821 3911 L-1032503 3911 L-1032396 3907 L-1032330 3903 L-1032294 3900 L-1032232 3900 L-1031733 3904 L-1031058 3908 L-1031036 3911 L-1030765 3911 L-1029797 3911 L-1029108 3911 L-1028946 3911 L-1028405 3911 L-1028316 3911 L-1027296 3911 L-1026349 3911 L-1025983 3911 L-1025880 3911 L-1025292 3911 L-1025232 3911 L-1025132 3911 L-1024692 3911 L-1024584 3911 L-1024143 3911 L-1023143 3911 L-1022886 3911 L-1022783 3911 L-1022653 3911 L-1022287 3911 L-1021706 3911 L-1021675 3911 L-1021359 3911 L-1019376 3911 L-1019261 3911 L-1019193 3911 L-1018834 3911 L-1017216 3911 L-1017038 3911 L-1016894 3911 L-1016071 3911 L-1016019 3911 L-1015964 3911 L-1015530 3911 L-1014550 3911 L-1014476 3911 L-1013391 3911 L-1013178 3911 L-1012462 3911 L-1012073 3911 L-1011855 3911 L-1011535 3911 L-1011041 3911 L-1010914 3911 L-1010685 3910 L-1010452 3910 L-1010393 3910 L-1010104 3910 L-1009832 3910 L-1008802 3910 L-1007137 3910 L-1006717 3910 L-1006580 3910 L-1006424 3910 L-1006119 3910 L-1005891 3910 L-1005732 3910 L-1005573 3910 L-1005404 3910 L-1005356 3910 L-1005303 3910 L-1005281 3910 L-1004895 3910 L-1004645 3910 L-1004375 3910 L-1004214 3910 L-1004125 3910 L-1002466 3910 L-1002301 3910 L-1001921 3910 L-1001461 3910 L-1000851 3910 L-999758 3910 L-999327 3910 L-999296 3910 L-999233 3910 L-999216 3910 L-997512 3910 L-997470 3910 L-997004 3910 L-996817 3910 L-996785 3910 L-996189 3910 L-996140 3910 L-995817 3910 L-995766 3910 L-995556 3910 L-995538 3910 L-995271 3910 L-995219 3910 L-994750 3910 L-994239 3910 L-994161 3910 L-993867 3910 L-993850 3910 L-993811 3910 L-993740 3910 L-993583 3910 L-992637 3910 L-992581 3910 L-992060 3910 L-991867 3910 L-991766 3910 L-991540 3910 L-991031 3910 L-990643 3910 L-990573 3910 L-990225 3910 L-989868 3910 L-988739 3909 L-988687 3909 L-988461 3909 L-988427 3909 L-988302 3909 L-988204 3909 L-987939 3909 L-987199 3909 L-986620 3909 L-986327 3909 L-985621 3909 L-985442 3909 L-985419 3909 L-984783 3909 L-984472 3909 L-984075 3909 L-984046 3909 L-984025 3909 L-983871 3909 L-983186 3909 L-983169 3909 L-982829 3909 L-982557 3909 L-982519 3909 L-982463 3909 L-982441 3909 L-982370 3909 L-982038 3909 L-981931 3909 L-981903 3909 L-981705 3909 L-981552 3909 L-980684 3909 L-980121 3909 L-980105 3909 L-980004 3909 L-979902 3909 L-979755 3909 L-979677 3909 L-979639 3909 L-979584 3909 L-979510 3909 L-979365 3909 L-978884 3909 L-978479 3909 L-977613 3909 L-977593 3909 L-977335 3909 L-977259 3909 L-977230 3909 L-977219 3909 L-977202 3909 L-976909 3909 L-976870 3909 L-976798 3909 L-976724 3909 L-976519 3909 L-976359 3909 L-976058 3909 L-975980 3909 L-975963 3909 L-975747 3909 L-975516 3909 L-975406 3909 L-975036 3909 L-974878 3909 L-974646 3909 L-974478 3909 L-974333 3909 L-974201 3909 L-972925 3908 L-972521 3908 L-972461 3908 L-972344 3908 L-971919 3908 L-971903 3908 L-971841 3908 L-971568 3908 L-971456 3908 L-971173 3908 L-970896 3908 L-970471 3908 L-970448 3908 L-970370 3908 L-970245 3908 L-969658 3908 L-969267 3908 L-968931 3908 L-968342 3908 L-968240 3908 L-968070 3908 L-967933 3908 L-967106 3908 L-965920 3908 L-965884 3908 L-965829 3908 L-965608 3908 L-965403 3908 L-965249 3908 L-964992 3908 L-964915 3908 L-964373 3908 L-964336 3908 L-964088 3908 L-963700 3908 L-962874 3908 L-962516 3908 L-962206 3908 L-961948 3908 L-961724 3908 L-961318 3908 L-961201 3908 L-961018 3908 L-960965 3908 L-960776 3908 L-960606 3908 L-960577 3908 L-960296 3908 L-959986 3908 L-959848 3908 L-959538 3908 L-959344 3908 L-959329 3908 L-958609 3908 L-958476 3908 L-958178 3908 L-958088 3908 L-957487 3908 L-957449 3907 L-957370 3907 L-956750 3907 L-956599 3907 L-956558 3907 L-956247 3907 L-956056 3907 L-955863 3907 L-955807 3907 L-955498 3907 L-955446 3907 L-955391 3907 L-955366 3907 L-955241 3907 L-954430 3907 L-954354 3907 L-953813 3907 L-953544 3907 L-952885 3907 L-951977 3907 L-951736 3907 L-951204 3907 L-950987 3907 L-949879 3907 L-949829 3907 L-949053 3907 L-948505 3907 L-948394 3907 L-948241 3907 L-948186 3907 L-948021 3907 L-947644 3907 L-947196 3907 L-947141 3907 L-946987 3907 L-946307 3907 L-946087 3907 L-945569 3907 L-944720 3907 L-944704 3907 L-942913 3907 L-942359 3907 L-942241 3907 L-941236 3907 L-941199 3907 L-940966 3907 L-940874 3907 L-940834 3907 L-940502 3907 L-940150 3907 L-939885 3907 L-939598 3907 L-939287 3907 L-939033 3907 L-938939 3907 L-938449 3907 L-938242 3907 L-937676 3907 L-937562 3907 L-937211 3907 L-937159 3907 L-937119 3907 L-936516 3906 L-935782 3906 L-935201 3906 L-934965 3906 L-934425 3906 L-934272 3906 L-933771 3906 L-933561 3906 L-933538 3906 L-933479 3906 L-932517 3906 L-932339 3906 L-931897 3906 L-931873 3906 L-931718 3906 L-931636 3906 L-931486 3906 L-930839 3906 L-930789 3906 L-929669 3906 L-928685 3906 L-928624 3906 L-927903 3906 L-927038 3906 L-926659 3906 L-926441 3906 L-925681 3906 L-925629 3906 L-925320 3906 L-924468 3906 L-924275 3906 L-924099 3906 L-923874 3906 L-923748 3906 L-923555 3906 L-923323 3906 L-923153 3906 L-922867 3906 L-922588 3906 L-922505 3906 L-922334 3906 L-922317 3906 L-922163 3906 L-922124 3906 L-921349 3906 L-921272 3906 L-921040 3906 L-920613 3906 L-920268 3906 L-919685 3906 L-919416 3906 L-919157 3906 L-919027 3906 L-919011 3906 L-918897 3906 L-918873 3906 L-918639 3906 L-918603 3906 L-917287 3906 L-917232 3906 L-916553 3905 L-915980 3905 L-915855 3905 L-915702 3905 L-915625 3905 L-915313 3905 L-915040 3905 L-914951 3905 L-914849 3905 L-913921 3905 L-913845 3905 L-913481 3905 L-913456 3905 L-913420 3905 L-912644 3905 L-912552 3905 L-912412 3905 L-912011 3905 L-911749 3905 L-911505 3905 L-911291 3905 L-911211 3905 L-911135 3905 L-911058 3905 L-910871 3905 L-910805 3905 L-910555 3905 L-910500 3905 L-910363 3905 L-910283 3905 L-910170 3905 L-909946 3905 L-909782 3905 L-909741 3905 L-909572 3905 L-909201 3905 L-909186 3905 L-909070 3905 L-908349 3905 L-908313 3905 L-908180 3905 L-907832 3905 L-907421 3905 L-907385 3905 L-907307 3905 L-907268 3905 L-906904 3905 L-906699 3905 L-906684 3905 L-906339 3905 L-905990 3905 L-905665 3905 L-905563 3905 L-905410 3905 L-905216 3905 L-904984 3905 L-904892 3905 L-904736 3905 L-904659 3905 L-904618 3905 L-904505 3905 L-904481 3905 L-904231 3905 L-904092 3905 L-903514 3905 L-902686 3905 L-902198 3905 L-902076 3905 L-902038 3905 L-902025 3905 L-901873 3905 L-901772 3905 L-901539 3905 L-901149 3904 L-900844 3904 L-900829 3904 L-900658 3904 L-900420 3904 L-899823 3904 L-899219 3904 L-899180 3904 L-899139 3904 L-898986 3904 L-898933 3904 L-898870 3904 L-898802 3904 L-898748 3904 L-898723 3904 L-898676 3904 L-898581 3904 L-898444 3904 L-898291 3904 L-898159 3904 L-898118 3904 L-898082 3904 L-898020 3904 L-897747 3904 L-897433 3904 L-897392 3904 L-897307 3904 L-897129 3904 L-896892 3904 L-896534 3904 L-896504 3904 L-895935 3904 L-895812 3904 L-895576 3904 L-895553 3904 L-895272 3904 L-894987 3904 L-894731 3904 L-894159 3904 L-893863 3904 L-893787 3904 L-893088 3904 L-893010 3904 L-892975 3904 L-892949 3904 L-892897 3904 L-892703 3904 L-892563 3904 L-892527 3904 L-892487 3904 L-891891 3904 L-891659 3904 L-891376 3904 L-891321 3904 L-891247 3904 L-891169 3904 L-890933 3904 L-890689 3904 L-890553 3904 L-890447 3904 L-890367 3904 L-889980 3904 L-889853 3904 L-889701 3904 L-889663 3904 L-889517 3904 L-889295 3904 L-889122 3904 L-889053 3904 L-888231 3904 L-888215 3904 L-887920 3904 L-887133 3904 L-886823 3904 L-886676 3904 L-886448 3904 L-886248 3904 L-885311 3904 L-885274 3904 L-885251 3904 L-885210 3904 L-884942 3904 L-884345 3904 L-884282 3903 L-884246 3903 L-884229 3903 L-883534 3903 L-883333 3903 L-883301 3903 L-882968 3903 L-882860 3903 L-882235 3903 L-881731 3903 L-881694 3903 L-881252 3903 L-881155 3903 L-880997 3903 L-880683 3903 L-880671 3903 L-880231 3903 L-879749 3903 L-879620 3903 L-879300 3903 L-879231 3903 L-878927 3903 L-878751 3903 L-878558 3903 L-878315 3903 L-878117 3903 L-878092 3903 L-877514 3903 L-877444 3903 L-877034 3903 L-876980 3903 L-876933 3903 L-876569 3903 L-876423 3903 L-876218 3903 L-876122 3903 L-875966 3903 L-875905 3903 L-875757 3903 L-875657 3903 L-875100 3903 L-875078 3903 L-874906 3903 L-874364 3903 L-874303 3903 L-874249 3903 L-874220 3903 L-874149 3903 L-874133 3903 L-874069 3903 L-874033 3903 L-873878 3903 L-873552 3903 L-872986 3903 L-872972 3903 L-872910 3903 L-872808 3903 L-872762 3903 L-872519 3903 L-872097 3903 L-871942 3903 L-870201 3903 L-869659 3903 L-868716 3903 L-868307 3903 L-867765 3903 L-867569 3903 L-867400 3903 L-867105 3903 L-866990 3903 L-866975 3903 L-866820 3902 L-866680 3902 L-866603 3902 L-866472 3902 L-866124 3902 L-865753 3902 L-865155 3902 L-864979 3902 L-864823 3902 L-864554 3902 L-864403 3902 L-864112 3902 L-864088 3903 L-864005 3903 L-863777 3903 L-863078 3903 L-862951 3903 L-862520 3903 L-862426 3903 L-861221 3903 L-861172 3902 L-860878 3902 L-860475 3902 L-860199 3902 L-860180 3902 L-860062 3902 L-859986 3902 L-859804 3902 L-859324 3902 L-858873 3902 L-858463 3902 L-858432 3902 L-858014 3902 L-857900 3902 L-857782 3902 L-857767 3902 L-857572 3902 L-857551 3902 L-857318 3902 L-856875 3902 L-856556 3902 L-856091 3902 L-855926 3902 L-855771 3902 L-855615 3902 L-855162 3902 L-854842 3902 L-854788 3902 L-854416 3902 L-854379 3902 L-854052 3902 L-853936 3902 L-853837 3902 L-853511 3902 L-853124 3902 L-852863 3902 L-852505 3902 L-852248 3902 L-850078 3902 L-850029 3902 L-850006 3902 L-849595 3902 L-849533 3902 L-849463 3902 L-849232 3902 L-848921 3902 L-848618 3902 L-848574 3902 L-848266 3902 L-848133 3902 L-847916 3902 L-847204 3902 L-847049 3902 L-846911 3902 L-846762 3902 L-846741 3902 L-846546 3902 L-846521 3902 L-846430 3902 L-846408 3902 L-846392 3902 L-846292 3902 L-845363 3902 L-844905 3902 L-843813 3902 L-843390 3902 L-842987 3902 L-842948 3902 L-842694 3902 L-841920 3902 L-841904 3902 L-841879 3901 L-841686 3901 L-840950 3901 L-840681 3901 L-840640 3901 L-840241 3901 L-840216 3901 L-839427 3901 L-838747 3901 L-837376 3901 L-837106 3901 L-837057 3901 L-836520 3901 L-836487 3901 L-836385 3901 L-836061 3901 L-835982 3901 L-835713 3901 L-834800 3901 L-834662 3901 L-834413 3901 L-833867 3901 L-833445 3901 L-833252 3901 L-833237 3901 L-833099 3901 L-833005 3901 L-832878 3901 L-832618 3901 L-832593 3901 L-832502 3901 L-832192 3901 L-832131 3901 L-832014 3901 L-831665 3901 L-830854 3901 L-830623 3901 L-829794 3901 L-829561 3901 L-829345 3901 L-828826 3901 L-828188 3901 L-827772 3901 L-827450 3901 L-826969 3901 L-826543 3901 L-826482 3901 L-826134 3901 L-826093 3901 L-826079 3901 L-825980 3901 L-825934 3901 L-825449 3901 L-824648 3901 L-824313 3901 L-823232 3901 L-822752 3901 L-822729 3901 L-822589 3901 L-822033 3901 L-821336 3901 L-821027 3900 L-820806 3900 L-820701 3900 L-820598 3900 L-819927 3900 L-819833 3900 L-819811 3900 L-819734 3900 L-819556 3900 L-819384 3900 L-819203 3900 L-819190 3900 L-819114 3900 L-818949 3900 L-818434 3900 L-818418 3900 L-818278 3900 L-817915 3900 L-817891 3900 L-817761 3900 L-817736 3900 L-817374 3900 L-816848 3900 L-816755 3900 L-816539 3900 L-816445 3900 L-816421 3900 L-815957 3900 L-815880 3900 L-815478 3900 L-815027 3900 L-813775 3900 L-813737 3900 L-813305 3900 L-813272 3900 L-812553 3900 L-812377 3900 L-812241 3900 L-811935 3900 L-811880 3900 L-811855 3900 L-811839 3900 L-811664 3900 L-811474 3900 L-810967 3900 L-810593 3900 L-810255 3899 L-810216 3899 L-809497 3899 L-809404 3899 L-809365 3899 L-808823 3899 L-808800 3899 L-808398 3899 L-807972 3899 L-807701 3899 L-807521 3899 L-807276 3899 L-807252 3899 L-807196 3899 L-806579 3899 L-806076 3899 L-805689 3899 L-805070 3899 L-804854 3899 L-804699 3899 L-803407 3899 L-803307 3899 L-802865 3899 L-802534 3899 L-802233 3899 L-801991 3899 L-801256 3899 L-800677 3899 L-799847 3899 L-799747 3899 L-799189 3899 L-799051 3899 L-797409 3899 L-797349 3899 L-797255 3899 L-796288 3899 L-796110 3899 L-795823 3899 L-795605 3899 L-795527 3899 L-795256 3899 L-795141 3899 L-794987 3899 L-794677 3899 L-794599 3899 L-794508 3899 L-794431 3899 L-794314 3899 L-794135 3899 L-794043 3899 L-794005 3899 L-793502 3899 L-793283 3898 L-793154 3898 L-792999 3898 L-792944 3898 L-792820 3898 L-792435 3898 L-791926 3898 L-791854 3898 L-791374 3898 L-791297 3898 L-791196 3898 L-790963 3898 L-790498 3898 L-790268 3898 L-790252 3898 L-790020 3898 L-789865 3898 L-789803 3898 L-789610 3898 L-789339 3898 L-788588 3898 L-787635 3898 L-787599 3898 L-787374 3898 L-786934 3898 L-786653 3898 L-786305 3898 L-785236 3898 L-784308 3898 L-784177 3898 L-784131 3898 L-784061 3898 L-783907 3898 L-783829 3898 L-783656 3898 L-783221 3898 L-783017 3898 L-782956 3898 L-782374 3898 L-782220 3898 L-782104 3898 L-782064 3898 L-781894 3898 L-781757 3898 L-781546 3898 L-781469 3898 L-781446 3898 L-781237 3898 L-780827 3898 L-780802 3898 L-780579 3898 L-780434 3898 L-780399 3898 L-780386 3898 L-780363 3898 L-780130 3898 L-779945 3898 L-779727 3898 L-779702 3898 L-779013 3898 L-778909 3898 L-778874 3898 L-778853 3898 L-778659 3897 L-778606 3897 L-778489 3897 L-778407 3897 L-778296 3897 L-777982 3897 L-777522 3897 L-777267 3897 L-777033 3897 L-776903 3897 L-776551 3897 L-776492 3897 L-776339 3897 L-775767 3897 L-775680 3897 L-775527 3897 L-775231 3897 L-774861 3897 L-774558 3897 L-774481 3897 L-774076 3897 L-773908 3897 L-773764 3897 L-773224 3897 L-773163 3897 L-773148 3897 L-772982 3897 L-772776 3897 L-772701 3897 L-772608 3897 L-772198 3897 L-772183 3897 L-772159 3897 L-771966 3897 L-771890 3897 L-771719 3897 L-771657 3897 L-771641 3898 L-771127 3897 L-770905 3897 L-770286 3897 L-770033 3897 L-769839 3897 L-769800 3897 L-769726 3897 L-769661 3897 L-769010 3897 L-768972 3897 L-768798 3897 L-768732 3897 L-768058 3897 L-767669 3897 L-767407 3897 L-767169 3897 L-767091 3897 L-767076 3897 L-766874 3897 L-766503 3897 L-766277 3897 L-765642 3897 L-765622 3897 L-765235 3897 L-765141 3897 L-765083 3897 L-764807 3897 L-764498 3897 L-764420 3897 L-763569 3897 L-763227 3897 L-762789 3897 L-762356 3897 L-761861 3897 L-761711 3897 L-761443 3897 L-760205 3898 L-760148 3898 L-758384 3898 L-758194 3898 L-757184 3898 L-757033 3898 L-756657 3898 L-756336 3898 L-755731 3898 L-755661 3898 L-755484 3898 L-754656 3898 L-754517 3898 L-754130 3898 L-753946 3898 L-753902 3898 L-753782 3898 L-753572 3898 L-753125 3897 L-752777 3897 L-752644 3897 L-752236 3897 L-751885 3897 L-751600 3897 L-751406 3897 L-751252 3897 L-751088 3897 L-751020 3897 L-750920 3897 L-750686 3897 L-750570 3897 L-750517 3897 L-749975 3897 L-749511 3897 L-748329 3897 L-748195 3897 L-748171 3897 L-748118 3897 L-747450 3897 L-746415 3897 L-746222 3897 L-746042 3897 L-745890 3897 L-745850 3897 L-745835 3897 L-745773 3897 L-745448 3897 L-744288 3897 L-744094 3897 L-743917 3897 L-742803 3897 L-741943 3897 L-741837 3897 L-741363 3897 L-741171 3897 L-738849 3897 L-738771 3897 L-738650 3897 L-738616 3897 L-738578 3897 L-738484 3897 L-738268 3897 L-737687 3897 L-737301 3897 L-736528 3897 L-736450 3897 L-735753 3897 L-735211 3897 L-735170 3897 L-735040 3897 L-734576 3897 L-734537 3897 L-734403 3897 L-734035 3897 L-734005 3897 L-733855 3897 L-733454 3897 L-731630 3897 L-730823 3897 L-730105 3897 L-730088 3897 L-729774 3897 L-729213 3897 L-728711 3897 L-728192 3897 L-728171 3897 L-726427 3897 L-726258 3896 L-726062 3896 L-725168 3896 L-724650 3896 L-724439 3896 L-724181 3896 L-723472 3896 L-722522 3896 L-721863 3896 L-721824 3896 L-721538 3896 L-721455 3896 L-721360 3896 L-721228 3896 L-721151 3896 L-720416 3896 L-720078 3896 L-720029 3896 L-719773 3896 L-719487 3896 L-719061 3896 L-718481 3896 L-718222 3896 L-718071 3896 L-717823 3896 L-717785 3896 L-716988 3896 L-716950 3896 L-716773 3896 L-716364 3896 L-716135 3896 L-716059 3896 L-715927 3896 L-715811 3896 L-715463 3896 L-715400 3896 L-715247 3896 L-714507 3896 L-714395 3896 L-714225 3896 L-714186 3896 L-713891 3896 L-713490 3896 L-713314 3896 L-713219 3896 L-712910 3896 L-712108 3896 L-711650 3896 L-711130 3896 L-710641 3896 L-709946 3896 L-708899 3896 L-708630 3896 L-708576 3896 L-708416 3896 L-708164 3896 L-707918 3896 L-707839 3896 L-707625 3896 L-707313 3896 L-706849 3896 L-706835 3896 L-706539 3896 L-706526 3896 L-705534 3896 L-704862 3896 L-704527 3896 L-703911 3896 L-703774 3896 L-703135 3896 L-703005 3896 L-702054 3895 L-701955 3895 L-701395 3895 L-700986 3895 L-700558 3895 L-700467 3895 L-699632 3895 L-699269 3895 L-699229 3895 L-699097 3895 L-698920 3895 L-698703 3895 L-698650 3895 L-698493 3895 L-698240 3895 L-697140 3895 L-697062 3895 L-696843 3895 L-696712 3895 L-696676 3895 L-696482 3895 L-696383 3895 L-695899 3895 L-695615 3895 L-695455 3895 L-695360 3895 L-695088 3895 L-694818 3895 L-694802 3895 L-694664 3895 L-694526 3895 L-694199 3895 L-693890 3895 L-693849 3895 L-693773 3895 L-693658 3895 L-692807 3895 L-692481 3895 L-692150 3895 L-692017 3895 L-691801 3895 L-691785 3895 L-691104 3895 L-691011 3895 L-690987 3895 L-690972 3895 L-690933 3895 L-690521 3895 L-690252 3895 L-690212 3895 L-689844 3895 L-689634 3895 L-688551 3895 L-688535 3894 L-688506 3894 L-688486 3894 L-688109 3894 L-687854 3894 L-687606 3894 L-687467 3894 L-687334 3894 L-687003 3894 L-686910 3894 L-686849 3894 L-686291 3894 L-686229 3894 L-686074 3894 L-685879 3894 L-685687 3894 L-685671 3894 L-685633 3894 L-685594 3894 L-685323 3894 L-685200 3894 L-685168 3894 L-685068 3894 L-684913 3894 L-684772 3894 L-684487 3894 L-684162 3894 L-683466 3894 L-683443 3894 L-682934 3894 L-682088 3894 L-681725 3894 L-681570 3894 L-680966 3894 L-680796 3894 L-680736 3894 L-680680 3894 L-679625 3894 L-679606 3894 L-678701 3894 L-678679 3894 L-678512 3894 L-678270 3894 L-678220 3894 L-678165 3894 L-678028 3894 L-677988 3894 L-677060 3894 L-677005 3894 L-676883 3894 L-676811 3894 L-676695 3894 L-676517 3894 L-675534 3894 L-675395 3894 L-675277 3894 L-674983 3894 L-674735 3894 L-674699 3894 L-674644 3894 L-674623 3894 L-674490 3894 L-674410 3894 L-674273 3894 L-673650 3894 L-673484 3894 L-673019 3894 L-672843 3894 L-672826 3894 L-672766 3894 L-672649 3894 L-672167 3894 L-671471 3894 L-671098 3894 L-670929 3894 L-669963 3894 L-669808 3894 L-669630 3894 L-669538 3894 L-669282 3894 L-669112 3894 L-668465 3893 L-668454 3893 L-667874 3893 L-667736 3893 L-667680 3893 L-666945 3893 L-666907 3893 L-666829 3893 L-666187 3893 L-665413 3893 L-665320 3893 L-665271 3893 L-665256 3893 L-665220 3893 L-665204 3893 L-665141 3893 L-665125 3893 L-665105 3893 L-664950 3893 L-664911 3893 L-664895 3893 L-664856 3893 L-664716 3893 L-664640 3893 L-664275 3893 L-663927 3893 L-663154 3893 L-662551 3893 L-662355 3893 L-662125 3893 L-661987 3893 L-661349 3893 L-661060 3893 L-661038 3893 L-660578 3893 L-660345 3893 L-660290 3893 L-660252 3893 L-659749 3893 L-659199 3893 L-658411 3893 L-657288 3893 L-656393 3893 L-656305 3893 L-656006 3893 L-655934 3893 L-655818 3893 L-654642 3893 L-654294 3893 L-654271 3893 L-653752 3893 L-653605 3893 L-653497 3893 L-653288 3893 L-653133 3893 L-653110 3893 L-652916 3893 L-652840 3893 L-652696 3893 L-651895 3893 L-651749 3893 L-651469 3893 L-651292 3893 L-650982 3893 L-650170 3893 L-649242 3893 L-647650 3893 L-647407 3893 L-646766 3892 L-646570 3892 L-646492 3892 L-645975 3892 L-645743 3892 L-645720 3892 L-645588 3892 L-645249 3892 L-645238 3892 L-645022 3892 L-644984 3892 L-644443 3892 L-643914 3892 L-643846 3892 L-643553 3892 L-643006 3892 L-642970 3892 L-642918 3892 L-642818 3892 L-642586 3892 L-642006 3892 L-641908 3892 L-641834 3892 L-641502 3892 L-640752 3892 L-640713 3892 L-640033 3892 L-639878 3892 L-639552 3892 L-639336 3892 L-639105 3892 L-638808 3892 L-638562 3892 L-638211 3892 L-638158 3892 L-637398 3892 L-636705 3892 L-636355 3892 L-635891 3892 L-635258 3892 L-634849 3892 L-634771 3892 L-634345 3892 L-633702 3892 L-633533 3892 L-632791 3892 L-632604 3892 L-632309 3892 L-631737 3892 L-631711 3892 L-630692 3892 L-630205 3892 L-630112 3892 L-630051 3892 L-629763 3892 L-629477 3892 L-629415 3892 L-629235 3892 L-628524 3892 L-628348 3892 L-628150 3892 L-627998 3892 L-627907 3892 L-627845 3892 L-627303 3892 L-626992 3892 L-626901 3892 L-626823 3891 L-626256 3891 L-626165 3891 L-625910 3891 L-625584 3891 L-625546 3891 L-625392 3891 L-625160 3891 L-624837 3891 L-623705 3891 L-623506 3891 L-622980 3891 L-622735 3891 L-622490 3891 L-622410 3891 L-622390 3891 L-622313 3891 L-622257 3891 L-622180 3891 L-622141 3891 L-621962 3891 L-621925 3891 L-621694 3891 L-620456 3891 L-620129 3891 L-620090 3891 L-619308 3891 L-619161 3891 L-618170 3891 L-617963 3891 L-617537 3891 L-617410 3891 L-617006 3891 L-616918 3891 L-616261 3891 L-615554 3891 L-614945 3891 L-614752 3891 L-614519 3891 L-613900 3891 L-613605 3891 L-613165 3891 L-613011 3891 L-612856 3891 L-612100 3891 L-611749 3891 L-611347 3891 L-611308 3891 L-610302 3891 L-609983 3891 L-609736 3891 L-609036 3891 L-608962 3890 L-608650 3890 L-607570 3890 L-607378 3890 L-607145 3890 L-606950 3890 L-606450 3890 L-605696 3890 L-605582 3890 L-605382 3890 L-605341 3890 L-605248 3890 L-604935 3890 L-604847 3890 L-604731 3890 L-604413 3890 L-604344 3890 L-604319 3890 L-603957 3890 L-603919 3890 L-603702 3890 L-603199 3890 L-602596 3890 L-602385 3890 L-602232 3890 L-602194 3890 L-602150 3890 L-602115 3890 L-601983 3890 L-601573 3890 L-601203 3890 L-601149 3890 L-601133 3890 L-601054 3890 L-600644 3890 L-600491 3890 L-600475 3890 L-600436 3890 L-600257 3890 L-600181 3890 L-599950 3890 L-599160 3890 L-599082 3890 L-598347 3890 L-598192 3890 L-597952 3890 L-597890 3890 L-597805 3890 L-597782 3890 L-597664 3890 L-597650 3890 L-597588 3890 L-597551 3890 L-597456 3890 L-597434 3890 L-597318 3890 L-597085 3890 L-596915 3890 L-596095 3890 L-595694 3890 L-595539 3890 L-595034 3890 L-594920 3890 L-594323 3890 L-593949 3890 L-593897 3890 L-593703 3890 L-593007 3890 L-592969 3890 L-592824 3890 L-592599 3889 L-592337 3889 L-591963 3889 L-591537 3889 L-591408 3889 L-591388 3889 L-590895 3889 L-590198 3889 L-589967 3889 L-589813 3889 L-588845 3889 L-588620 3889 L-588342 3889 L-588326 3889 L-587800 3889 L-587271 3889 L-587123 3889 L-587104 3889 L-586562 3889 L-586252 3889 L-586134 3889 L-585943 3889 L-585806 3889 L-585479 3889 L-585362 3889 L-585053 3889 L-584627 3889 L-584571 3889 L-584338 3889 L-584242 3889 L-584109 3889 L-583812 3889 L-583698 3889 L-583334 3889 L-583021 3889 L-582538 3889 L-582368 3889 L-582120 3889 L-581904 3889 L-581378 3889 L-581191 3889 L-580836 3889 L-580201 3889 L-580046 3889 L-579305 3889 L-578886 3889 L-578706 3889 L-578629 3889 L-578498 3889 L-578205 3889 L-578164 3889 L-577934 3889 L-577741 3889 L-577486 3889 L-577060 3889 L-576951 3889 L-576332 3889 L-576151 3889 L-574939 3889 L-574292 3889 L-574141 3889 L-574104 3889 L-573972 3889 L-573871 3889 L-573855 3889 L-573773 3889 L-573562 3889 L-573445 3889 L-573082 3889 L-572710 3889 L-572014 3889 L-571612 3889 L-571507 3889 L-571489 3889 L-570544 3889 L-570349 3889 L-570197 3888 L-570141 3888 L-569385 3888 L-569368 3888 L-568879 3889 L-568749 3889 L-568556 3889 L-567665 3889 L-567626 3889 L-567588 3888 L-567511 3888 L-567472 3888 L-567395 3888 L-567311 3888 L-567047 3888 L-566814 3888 L-566752 3888 L-566272 3888 L-565935 3888 L-565824 3888 L-565631 3888 L-565454 3888 L-565395 3888 L-565359 3888 L-565089 3888 L-564391 3888 L-564338 3888 L-564044 3888 L-563642 3888 L-563078 3888 L-562205 3888 L-561900 3888 L-561862 3888 L-561739 3888 L-561141 3888 L-561011 3888 L-560811 3888 L-560773 3888 L-560160 3888 L-559981 3888 L-559966 3888 L-559748 3888 L-559670 3888 L-559363 3888 L-559231 3888 L-558999 3888 L-558664 3888 L-558573 3888 L-558472 3888 L-558435 3888 L-557891 3888 L-557699 3888 L-557158 3888 L-556732 3888 L-556600 3888 L-556538 3888 L-556307 3888 L-556291 3888 L-555803 3888 L-555722 3888 L-555704 3888 L-554312 3888 L-554176 3888 L-554062 3888 L-553427 3888 L-553288 3888 L-553170 3888 L-553016 3888 L-552979 3888 L-552901 3888 L-552847 3888 L-551855 3888 L-551818 3888 L-551685 3888 L-551625 3888 L-551526 3888 L-551236 3888 L-551222 3888 L-550912 3888 L-550812 3888 L-550347 3888 L-550293 3889 L-550151 3891 L-550023 3893 L-549791 3895 L-549222 3895 L-549133 3895 L-549110 3895 L-548823 3895 L-548141 3895 L-548064 3895 L-548027 3895 L-548011 3895 L-547811 3895 L-547391 3895 L-547120 3895 L-546247 3895 L-545954 3895 L-545843 3895 L-545109 3895 L-544982 3895 L-544622 3895 L-544370 3895 L-543498 3895 L-543329 3895 L-543268 3895 L-543213 3895 L-542865 3895 L-542842 3895 L-542633 3895 L-542493 3895 L-542362 3895 L-542239 3895 L-542116 3895 L-541879 3895 L-541588 3895 L-540929 3895 L-540907 3895 L-540753 3895 L-540635 3895 L-539671 3895 L-539615 3895 L-539382 3894 L-539360 3894 L-539034 3894 L-538919 3894 L-538879 3894 L-538377 3894 L-538078 3894 L-537966 3894 L-537424 3894 L-536365 3894 L-535739 3894 L-535567 3894 L-535319 3894 L-535063 3894 L-534932 3894 L-534911 3894 L-534243 3894 L-533347 3894 L-533301 3894 L-533231 3894 L-533115 3894 L-532895 3894 L-532704 3894 L-532664 3894 L-532472 3894 L-531813 3894 L-531196 3894 L-531157 3894 L-530561 3894 L-530499 3894 L-529377 3895 L-529322 3895 L-529202 3894 L-528936 3894 L-528872 3894 L-528603 3894 L-528527 3894 L-528311 3894 L-527828 3894 L-527558 3894 L-527427 3894 L-527195 3894 L-527170 3894 L-527155 3894 L-527133 3894 L-527117 3894 L-527093 3894 L-527079 3894 L-527055 3894 L-527040 3894 L-527017 3894 L-527002 3893 L-526979 3893 L-526963 3893 L-526935 3893 L-526917 3893 L-526899 3893 L-526863 3893 L-526823 3893 L-526808 3893 L-526783 3893 L-526731 3893 L-526706 3893 L-526630 3893 L-526592 3893 L-526576 3893 L-526513 3893 L-526499 3893 L-526453 3893 L-526382 3893 L-526344 3893 L-526319 3893 L-526267 3893 L-526242 3893 L-526226 3893 L-526164 3893 L-526127 3893 L-526050 3893 L-526035 3892 L-526007 3892 L-525934 3892 L-525895 3892 L-525741 3892 L-525625 3892 L-525570 3892 L-525488 3892 L-525454 3892 L-525430 3892 L-525276 3892 L-525261 3892 L-525159 3892 L-524849 3892 L-524813 3892 L-524597 3892 L-524486 3892 L-524462 3892 L-524231 3892 L-523999 3892 L-523624 3892 L-523496 3892 L-523456 3892 L-523404 3892 L-523303 3892 L-523266 3892 L-523055 3892 L-522991 3892 L-522879 3892 L-522667 3892 L-522630 3892 L-522258 3892 L-522204 3892 L-522126 3892 L-522104 3892 L-522011 3892 L-521811 3892 L-521773 3892 L-521751 3892 L-521521 3892 L-521501 3892 L-521291 3892 L-521197 3892 L-521159 3892 L-520823 3892 L-520710 3892 L-520670 3892 L-520656 3892 L-520517 3892 L-520502 3892 L-520247 3892 L-519665 3892 L-519588 3892 L-519550 3892 L-519506 3892 L-519457 3892 L-519277 3892 L-519263 3892 L-519163 3892 L-519085 3892 L-519025 3892 L-518659 3892 L-518577 3892 L-518559 3892 L-518506 3892 L-517537 3892 L-517406 3892 L-517384 3891 L-517164 3891 L-517095 3891 L-517073 3891 L-516826 3891 L-516570 3891 L-516439 3891 L-516400 3891 L-516378 3891 L-516323 3891 L-516235 3891 L-516174 3891 L-515949 3891 L-515819 3891 L-515720 3891 L-515665 3891 L-515472 3891 L-515394 3891 L-515061 3891 L-514930 3891 L-514752 3891 L-514737 3891 L-514712 3891 L-514442 3891 L-513241 3891 L-513205 3891 L-513088 3891 L-512855 3891 L-512664 3891 L-512625 3891 L-512569 3891 L-512465 3891 L-511951 3891 L-511657 3891 L-511425 3891 L-511150 3891 L-511133 3891 L-511100 3891 L-511060 3891 L-511023 3891 L-510921 3891 L-510844 3891 L-510751 3891 L-510624 3891 L-510520 3891 L-510341 3891 L-510149 3891 L-509320 3891 L-509204 3891 L-508949 3891 L-508909 3891 L-508810 3891 L-508750 3891 L-508508 3891 L-508484 3891 L-508363 3891 L-508291 3891 L-508252 3891 L-508020 3891 L-507844 3891 L-507324 3891 L-507247 3890 L-507231 3890 L-506820 3890 L-506457 3890 L-506341 3890 L-506318 3890 L-506278 3890 L-506202 3890 L-506148 3890 L-505799 3890 L-505683 3890 L-505506 3890 L-505450 3890 L-505427 3890 L-505313 3890 L-505025 3890 L-504793 3890 L-504578 3890 L-504368 3890 L-504157 3890 L-503331 3890 L-502992 3890 L-501984 3890 L-501621 3890 L-500576 3890 L-500498 3890 L-500051 3890 L-499840 3890 L-499648 3890 L-499353 3890 L-499312 3890 L-499159 3890 L-499106 3890 L-498874 3890 L-498293 3890 L-498099 3890 L-497480 3890 L-496991 3890 L-496939 3890 L-496291 3890 L-496141 3890 L-495971 3890 L-495598 3890 L-495583 3890 L-495484 3890 L-495445 3890 L-495314 3890 L-494881 3890 L-494578 3890 L-494192 3890 L-494052 3890 L-493891 3890 L-493457 3890 L-493418 3890 L-493317 3890 L-493202 3890 L-493024 3890 L-492854 3890 L-492735 3890 L-492374 3890 L-492157 3890 L-492024 3890 L-491884 3890 L-491385 3890 L-491307 3890 L-491073 3890 L-490749 3890 L-490362 3890 L-490339 3890 L-489719 3890 L-489449 3890 L-489216 3890 L-488791 3890 L-488519 3890 L-488378 3889 L-488169 3889 L-487963 3889 L-487412 3889 L-487281 3889 L-486894 3889 L-486624 3889 L-486521 3889 L-486261 3889 L-486059 3889 L-485990 3889 L-485951 3889 L-485384 3889 L-485177 3889 L-485150 3889 L-484921 3889 L-484844 3889 L-484326 3889 L-484288 3889 L-484132 3889 L-483839 3889 L-483567 3889 L-483204 3889 L-482855 3889 L-482483 3889 L-482363 3889 L-482291 3889 L-481811 3889 L-481749 3889 L-481414 3889 L-481283 3889 L-481205 3889 L-481076 3889 L-480612 3889 L-480318 3889 L-480242 3889 L-479930 3889 L-479622 3889 L-479558 3889 L-479529 3889 L-478754 3889 L-478649 3889 L-478562 3889 L-478538 3889 L-478384 3889 L-478163 3889 L-477996 3889 L-477609 3889 L-477554 3889 L-477491 3889 L-476873 3889 L-476757 3889 L-476433 3889 L-475908 3889 L-475557 3889 L-475481 3889 L-474862 3889 L-474451 3889 L-474150 3889 L-473839 3889 L-473701 3889 L-473077 3889 L-472695 3889 L-471572 3889 L-470511 3888 L-470449 3888 L-470088 3888 L-469987 3888 L-469971 3888 L-469597 3888 L-468592 3888 L-468205 3888 L-467998 3888 L-467909 3888 L-467534 3888 L-467241 3888 L-466930 3888 L-466141 3888 L-466053 3888 L-466001 3888 L-465962 3888 L-465444 3888 L-465329 3888 L-465120 3888 L-464981 3888 L-464377 3888 L-463548 3888 L-463265 3888 L-463083 3888 L-462581 3888 L-462377 3888 L-461822 3888 L-461317 3888 L-461126 3888 L-461087 3888 L-460458 3888 L-460005 3888 L-459591 3888 L-458982 3888 L-457862 3888 L-457448 3888 L-457124 3888 L-456910 3888 L-456483 3888 L-456342 3888 L-456251 3888 L-456020 3888 L-455433 3888 L-454626 3888 L-453426 3888 L-453312 3888 L-453180 3888 L-453092 3888 L-453051 3888 L-453030 3888 L-453019 3888 L-452925 3888 L-452161 3888 L-451455 3888 L-451415 3888 L-451129 3888 L-450588 3888 L-450527 3888 L-450487 3888 L-450472 3888 L-450215 3888 L-449891 3888 L-449752 3888 L-449481 3888 L-449442 3888 L-449335 3888 L-448933 3888 L-448824 3888 L-448746 3888 L-448449 3888 L-448407 3888 L-448188 3888 L-448005 3888 L-447894 3888 L-447880 3888 L-447853 3888 L-447429 3888 L-447183 3888 L-446847 3888 L-446812 3887 L-446678 3887 L-446424 3887 L-446270 3887 L-445363 3887 L-445264 3887 L-445069 3887 L-444062 3887 L-443561 3887 L-443483 3887 L-443445 3887 L-443237 3887 L-443118 3887 L-443020 3887 L-442834 3887 L-442669 3887 L-442433 3887 L-442013 3887 L-441998 3887 L-441689 3887 L-440643 3887 L-440426 3887 L-440410 3887 L-440388 3887 L-440179 3887 L-440020 3887 L-439962 3887 L-438517 3887 L-438191 3887 L-437989 3887 L-437790 3887 L-437640 3887 L-437370 3887 L-436929 3887 L-436711 3887 L-436016 3887 L-435514 3887 L-435189 3887 L-434918 3887 L-434197 3887 L-434042 3887 L-432844 3887 L-432455 3887 L-432339 3887 L-432186 3887 L-432032 3887 L-431062 3887 L-431010 3887 L-430762 3887 L-430740 3887 L-430520 3887 L-430082 3887 L-429943 3887 L-429835 3887 L-429633 3887 L-429516 3887 L-429413 3887 L-429399 3887 L-429266 3887 L-429012 3887 L-428394 3886 L-427735 3886 L-427489 3886 L-427296 3886 L-426537 3886 L-426498 3886 L-426420 3886 L-426368 3886 L-426328 3886 L-426290 3886 L-426251 3886 L-426160 3886 L-426116 3886 L-426057 3886 L-426033 3886 L-425918 3886 L-425609 3886 L-425554 3886 L-425532 3886 L-425190 3886 L-425025 3886 L-424989 3886 L-424949 3886 L-424934 3886 L-424702 3886 L-424562 3886 L-424394 3886 L-423944 3886 L-423711 3886 L-423618 3886 L-423598 3886 L-423117 3886 L-423040 3886 L-422913 3886 L-422783 3886 L-422404 3886 L-422163 3886 L-422126 3886 L-422072 3886 L-421934 3886 L-421894 3886 L-421854 3886 L-421624 3886 L-421584 3886 L-421454 3886 L-421275 3886 L-421234 3886 L-421220 3886 L-421056 3886 L-421041 3886 L-420889 3886 L-420873 3886 L-420847 3886 L-420813 3886 L-420591 3886 L-420368 3886 L-420114 3886 L-419982 3886 L-419340 3886 L-418733 3886 L-417713 3886 L-417520 3886 L-417469 3885 L-417344 3885 L-417019 3885 L-416247 3885 L-416189 3885 L-416075 3885 L-415663 3885 L-415338 3885 L-415200 3885 L-414976 3885 L-414450 3885 L-414049 3885 L-414018 3885 L-413731 3885 L-413445 3885 L-413058 3885 L-412841 3885 L-412414 3885 L-412232 3885 L-411896 3885 L-411790 3885 L-411603 3885 L-411486 3885 L-411472 3885 L-410751 3885 L-410581 3885 L-410333 3885 L-410233 3885 L-409591 3885 L-409302 3885 L-409112 3885 L-408837 3885 L-408520 3885 L-408235 3885 L-408121 3885 L-408076 3885 L-407874 3885 L-406265 3885 L-406053 3885 L-405372 3885 L-405290 3885 L-405061 3885 L-404871 3885 L-404732 3885 L-404714 3885 L-404520 3885 L-404291 3885 L-404098 3885 L-403014 3885 L-402818 3885 L-402766 3885 L-402612 3885 L-402504 3885 L-402338 3885 L-402185 3885 L-402070 3885 L-401946 3885 L-401529 3885 L-401272 3885 L-401179 3885 L-400986 3885 L-400925 3885 L-400599 3885 L-400538 3885 L-400481 3885 L-400212 3885 L-399864 3885 L-399685 3885 L-399491 3885 L-399455 3885 L-398742 3885 L-398703 3885 L-398394 3885 L-398096 3885 L-398046 3885 L-397790 3885 L-397520 3885 L-397464 3885 L-396373 3885 L-396343 3885 L-396302 3885 L-396126 3885 L-395933 3885 L-395075 3885 L-394022 3885 L-393961 3885 L-393612 3885 L-392799 3885 L-391986 3885 L-391971 3885 L-391596 3885 L-391427 3885 L-391159 3885 L-390831 3885 L-390710 3885 L-390653 3885 L-390617 3885 L-390540 3885 L-390323 3884 L-390264 3884 L-389948 3884 L-389781 3884 L-389417 3884 L-389224 3884 L-389200 3884 L-389123 3884 L-388642 3884 L-388505 3884 L-388091 3884 L-387792 3884 L-387693 3884 L-387677 3884 L-387648 3884 L-387290 3884 L-386939 3884 L-386802 3884 L-386765 3884 L-385948 3884 L-385742 3884 L-385718 3884 L-385562 3884 L-385472 3884 L-385230 3884 L-384906 3884 L-384814 3884 L-384618 3884 L-384332 3884 L-383576 3884 L-383447 3884 L-383373 3884 L-382760 3884 L-382585 3884 L-382474 3884 L-382374 3884 L-382295 3884 L-382158 3884 L-382004 3884 L-381925 3884 L-381734 3884 L-381061 3884 L-381023 3884 L-380920 3884 L-379976 3884 L-379955 3884 L-379604 3884 L-379139 3884 L-379103 3884 L-378674 3884 L-378622 3884 L-378211 3884 L-378194 3884 L-378098 3884 L-378043 3884 L-378004 3884 L-377709 3884 L-375971 3884 L-374461 3884 L-373953 3884 L-373456 3884 L-373321 3884 L-373231 3884 L-373103 3884 L-373024 3884 L-372719 3884 L-372448 3884 L-372214 3884 L-371015 3884 L-370910 3884 L-370845 3884 L-370003 3884 L-369817 3884 L-368906 3884 L-368037 3884 L-367749 3884 L-367657 3883 L-367108 3883 L-366588 3883 L-365520 3883 L-365251 3883 L-365097 3883 L-365004 3883 L-364874 3883 L-364827 3883 L-364667 3883 L-363802 3883 L-363467 3883 L-363084 3883 L-362331 3883 L-362271 3883 L-361882 3883 L-361560 3883 L-361403 3883 L-360671 3883 L-360609 3883 L-360321 3883 L-359947 3883 L-359766 3883 L-359510 3883 L-359249 3883 L-359096 3883 L-358693 3883 L-357396 3883 L-357280 3883 L-356817 3883 L-355485 3883 L-355060 3883 L-355036 3883 L-354903 3883 L-354728 3883 L-354594 3883 L-354265 3883 L-353877 3883 L-353837 3883 L-353821 3883 L-353431 3883 L-353139 3883 L-352870 3883 L-352697 3883 L-351204 3883 L-351153 3883 L-351075 3883 L-349835 3883 L-349760 3883 L-349733 3883 L-349487 3883 L-349330 3883 L-349271 3883 L-348383 3883 L-348155 3883 L-347631 3883 L-347490 3883 L-347414 3883 L-346718 3883 L-346470 3883 L-345790 3883 L-345772 3883 L-345519 3883 L-345151 3883 L-345015 3883 L-344393 3883 L-344050 3883 L-344002 3883 L-343515 3883 L-343181 3883 L-342964 3883 L-342830 3883 L-342509 3883 L-342444 3883 L-342192 3883 L-341903 3883 L-341593 3883 L-341454 3883 L-340914 3883 L-340638 3883 L-339909 3883 L-339855 3883 L-339748 3883 L-339482 3883 L-339058 3883 L-338794 3883 L-338574 3883 L-338553 3883 L-338322 3883 L-338035 3883 L-338012 3883 L-337997 3883 L-337625 3883 L-337453 3883 L-337378 3883 L-337316 3883 L-337015 3883 L-336774 3882 L-336682 3882 L-336425 3882 L-336372 3882 L-336177 3882 L-335961 3882 L-335537 3882 L-335445 3882 L-335304 3882 L-334439 3882 L-334066 3882 L-333738 3882 L-333586 3882 L-333158 3882 L-332441 3882 L-332246 3882 L-331891 3882 L-331745 3882 L-331238 3882 L-331002 3882 L-330035 3882 L-330025 3882 L-328960 3882 L-328727 3882 L-328325 3882 L-328131 3882 L-328051 3882 L-327955 3882 L-327218 3882 L-327086 3882 L-326696 3882 L-326674 3882 L-326579 3882 L-326444 3882 L-326426 3882 L-326406 3882 L-324721 3882 L-324703 3882 L-324586 3882 L-324502 3882 L-324377 3882 L-324354 3882 L-324069 3882 L-323963 3882 L-323774 3882 L-323504 3882 L-322832 3882 L-322460 3882 L-321608 3882 L-321551 3882 L-321531 3882 L-321298 3882 L-321023 3882 L-320718 3882 L-320678 3882 L-320447 3882 L-320210 3882 L-319597 3882 L-319556 3882 L-319519 3882 L-318997 3882 L-318806 3882 L-318745 3882 L-318703 3882 L-318380 3882 L-318352 3882 L-318338 3882 L-317853 3882 L-317799 3882 L-317661 3882 L-317623 3882 L-317606 3881 L-317511 3881 L-316846 3881 L-316230 3881 L-315960 3881 L-315552 3881 L-315532 3881 L-315516 3881 L-315403 3881 L-315016 3881 L-314549 3881 L-314488 3881 L-314410 3881 L-314395 3881 L-313909 3881 L-313869 3881 L-313724 3881 L-313674 3881 L-313596 3881 L-312963 3881 L-312873 3881 L-312632 3881 L-312515 3881 L-312187 3881 L-311433 3881 L-311416 3881 L-310465 3881 L-310156 3881 L-309731 3881 L-309017 3881 L-308698 3881 L-308683 3881 L-308532 3881 L-308229 3881 L-308151 3881 L-308024 3881 L-307587 3881 L-307526 3881 L-307003 3881 L-306735 3881 L-306598 3881 L-306519 3881 L-306480 3881 L-305669 3881 L-305628 3881 L-305188 3881 L-305110 3881 L-304852 3881 L-304662 3881 L-304033 3881 L-303846 3881 L-303812 3881 L-303656 3881 L-303254 3881 L-303177 3881 L-302996 3881 L-302805 3881 L-301877 3881 L-301726 3881 L-300518 3881 L-299709 3881 L-299305 3881 L-298703 3881 L-298501 3881 L-298432 3881 L-298274 3881 L-298013 3881 L-297639 3897 L-297621 3897 L-297464 3897 L-296266 3897 L-295162 3881 L-294234 3881 L-294120 3881 L-293835 3881 L-293733 3880 L-293709 3880 L-293519 3880 L-293441 3880 L-293245 3880 L-292534 3880 L-292376 3880 L-291319 3880 L-290894 3880 L-290484 3880 L-290198 3880 L-290023 3880 L-289791 3880 L-289537 3880 L-289095 3880 L-288434 3880 L-288258 3880 L-287953 3880 L-287566 3880 L-287546 3880 L-287527 3880 L-287506 3880 L-287372 3880 L-287180 3880 L-285536 3880 L-284239 3880 L-284200 3880 L-284142 3880 L-284041 3880 L-283482 3880 L-282498 3880 L-281955 3880 L-281492 3880 L-280846 3880 L-280297 3880 L-279247 3880 L-278319 3880 L-277971 3880 L-277777 3880 L-277275 3880 L-276829 3880 L-276687 3880 L-276666 3880 L-276095 3880 L-275709 3880 L-274876 3880 L-274527 3880 L-274505 3880 L-274118 3880 L-273695 3880 L-273096 3880 L-273077 3880 L-272571 3880 L-272340 3880 L-272226 3880 L-271607 3880 L-271045 3880 L-271005 3880 L-270446 3880 L-270113 3880 L-270001 3880 L-269962 3880 L-269537 3880 L-269477 3880 L-269402 3880 L-269111 3880 L-268898 3880 L-268415 3879 L-268200 3879 L-267060 3879 L-267001 3879 L-266983 3879 L-266577 3879 L-265938 3879 L-265803 3879 L-265745 3879 L-265203 3879 L-264894 3879 L-264643 3879 L-264567 3879 L-264448 3879 L-263714 3879 L-263269 3879 L-263055 3879 L-262321 3879 L-262147 3879 L-261781 3879 L-261566 3879 L-260328 3879 L-260019 3879 L-259902 3879 L-259649 3879 L-259439 3879 L-258897 3879 L-258664 3879 L-258607 3879 L-258510 3879 L-258180 3879 L-257948 3879 L-256286 3879 L-255935 3879 L-255531 3879 L-255376 3879 L-254583 3879 L-253093 3879 L-252706 3879 L-252668 3879 L-252414 3879 L-252319 3879 L-252126 3879 L-251777 3879 L-251081 3879 L-250830 3879 L-250114 3879 L-248702 3879 L-248470 3879 L-248140 3879 L-246924 3879 L-246572 3879 L-246380 3879 L-246262 3879 L-243827 3879 L-242858 3879 L-242027 3879 L-241718 3879 L-240376 3879 L-239803 3879 L-239687 3879 L-239358 3879 L-239262 3879 L-238854 3879 L-238739 3879 L-238548 3879 L-237792 3879 L-237666 3879 L-237385 3879 L-236882 3879 L-236805 3879 L-235218 3879 L-235160 3879 L-234419 3879 L-234038 3879 L-233709 3879 L-233046 3879 L-232916 3879 L-232876 3879 L-232626 3879 L-232490 3879 L-232297 3879 L-232162 3879 L-231910 3879 L-231698 3879 L-231388 3879 L-231116 3879 L-230614 3879 L-230595 3879 L-230161 3879 L-229935 3879 L-229492 3879 L-229473 3879 L-228970 3879 L-228832 3879 L-228718 3879 L-228486 3879 L-228176 3879 L-227712 3879 L-227634 3879 L-227132 3879 L-226861 3879 L-226523 3879 L-226338 3879 L-225662 3879 L-225643 3879 L-225468 3879 L-225448 3879 L-224830 3878 L-224114 3878 L-223552 3878 L-223358 3878 L-223204 3878 L-223185 3878 L-222662 3878 L-222547 3878 L-221676 3878 L-221655 3878 L-221599 3878 L-220767 3878 L-220457 3878 L-220381 3878 L-220109 3878 L-220046 3878 L-219995 3878 L-219684 3878 L-219067 3878 L-218292 3878 L-217498 3878 L-217459 3878 L-217382 3878 L-217210 3878 L-216332 3878 L-215447 3878 L-215352 3878 L-215233 3878 L-214903 3878 L-214867 3878 L-214635 3878 L-214401 3878 L-213687 3878 L-213184 3878 L-212519 3878 L-212410 3878 L-212256 3878 L-212236 3878 L-212081 3878 L-211666 3878 L-211055 3878 L-210920 3878 L-210012 3878 L-209809 3878 L-209257 3878 L-206607 3878 L-206432 3878 L-206355 3878 L-205483 3878 L-205019 3878 L-204537 3878 L-204498 3878 L-203917 3878 L-203897 3878 L-202795 3877 L-201374 3877 L-200956 3877 L-200649 3877 L-200571 3877 L-200495 3877 L-200338 3877 L-200262 3877 L-199798 3877 L-198559 3877 L-198308 3877 L-197863 3877 L-197241 3877 L-197185 3877 L-196992 3877 L-196527 3877 L-196236 3877 L-196195 3877 L-196159 3877 L-196006 3877 L-195828 3877 L-194690 3877 L-194303 3877 L-194245 3877 L-194071 3877 L-191554 3877 L-190394 3877 L-189757 3877 L-189618 3877 L-189486 3877 L-189098 3877 L-188635 3877 L-188424 3877 L-188358 3877 L-188325 3877 L-187571 3877 L-186989 3877 L-186798 3877 L-186179 3877 L-186132 3877 L-185772 3877 L-185666 3877 L-185481 3877 L-185204 3877 L-184300 3877 L-183295 3877 L-182560 3877 L-182135 3877 L-181974 3877 L-181611 3876 L-181515 3876 L-181071 3876 L-180995 3876 L-180643 3876 L-180394 3876 L-180374 3876 L-180200 3876 L-179252 3876 L-179138 3876 L-178575 3876 L-178125 3876 L-177740 3876 L-176829 3876 L-176774 3876 L-175635 3876 L-175054 3876 L-174879 3876 L-174086 3876 L-173855 3876 L-173468 3876 L-173197 3876 L-173062 3876 L-172946 3876 L-172327 3876 L-172269 3876 L-172054 3876 L-171760 3876 L-170971 3876 L-170831 3876 L-169443 3876 L-169096 3876 L-168709 3876 L-168648 3876 L-168611 3876 L-168555 3876 L-167912 3876 L-167220 3876 L-166968 3876 L-166632 3876 L-166543 3876 L-166022 3876 L-165769 3876 L-165553 3876 L-165170 3876 L-165010 3876 L-164471 3876 L-163659 3876 L-163640 3876 L-163525 3876 L-163380 3876 L-162999 3876 L-162807 3876 L-162751 3876 L-162451 3876 L-162385 3876 L-162189 3876 L-161822 3876 L-161761 3875 L-161457 3875 L-161411 3875 L-161358 3875 L-160720 3875 L-160700 3875 L-160215 3875 L-159733 3875 L-159364 3875 L-158998 3875 L-158863 3875 L-158709 3875 L-158639 3875 L-157991 3875 L-157972 3875 L-157831 3875 L-157346 3875 L-157063 3875 L-157005 3875 L-156947 3875 L-156637 3875 L-156483 3875 L-155999 3875 L-155226 3875 L-154586 3875 L-154489 3875 L-153426 3875 L-153405 3875 L-152940 3897 L-152923 3897 L-152750 3897 L-152237 3897 L-149883 3875 L-148938 3875 L-148219 3875 L-147679 3875 L-146982 3875 L-146666 3875 L-146017 3875 L-145509 3875 L-145475 3875 L-145433 3875 L-145087 3875 L-144392 3875 L-144196 3875 L-144179 3875 L-144063 3875 L-143781 3875 L-142884 3875 L-142837 3875 L-142472 3875 L-142454 3875 L-142399 3875 L-142206 3875 L-142070 3875 L-141995 3875 L-141761 3875 L-141220 3875 L-141179 3875 L-141142 3875 L-141117 3875 L-140481 3875 L-139939 3875 L-138774 3875 L-138414 3875 L-137137 3875 L-137098 3875 L-137060 3875 L-136845 3875 L-136655 3875 L-136577 3875 L-136423 3875 L-136384 3875 L-135295 3874 L-134971 3874 L-134757 3874 L-134496 3874 L-134004 3874 L-133981 3875 L-133565 3875 L-133423 3875 L-133363 3875 L-133286 3875 L-133075 3875 L-131780 3875 L-131504 3875 L-130880 3875 L-129489 3875 L-129416 3875 L-129378 3875 L-129185 3875 L-128795 3875 L-128488 3875 L-128432 3875 L-128116 3875 L-128066 3875 L-128027 3875 L-127982 3875 L-127349 3874 L-126575 3874 L-126136 3874 L-125994 3896 L-125971 3896 L-125954 3918 L-125929 3918 L-125512 3896 L-125309 3896 L-125159 3874 L-125081 3874 L-125027 3874 L-124230 3874 L-124213 3874 L-123350 3874 L-123146 3874 L-122859 3874 L-122743 3874 L-122218 3874 L-122042 3874 L-121738 3874 L-121350 3874 L-121290 3874 L-121234 3874 L-121080 3874 L-120035 3874 L-119473 3874 L-119237 3874 L-119200 3874 L-118931 3874 L-118525 3874 L-117056 3874 L-115315 3874 L-114928 3874 L-114696 3874 L-114597 3874 L-114502 3874 L-114348 3874 L-113784 3874 L-113702 3874 L-113535 3874 L-112993 3874 L-111808 3874 L-111794 3874 L-111734 3874 L-111583 3874 L-111098 3874 L-110451 3874 L-109745 3874 L-109629 3874 L-108661 3874 L-108616 3874 L-107926 3874 L-107869 3874 L-107791 3874 L-107772 3874 L-107750 3874 L-107535 3874 L-106822 3874 L-106432 3874 L-106395 3874 L-106378 3874 L-106320 3874 L-105893 3874 L-105679 3874 L-105604 3874 L-105527 3874 L-105411 3874 L-105346 3874 L-105218 3874 L-105158 3874 L-105083 3874 L-105004 3874 L-104575 3874 L-103850 3874 L-103836 3873 L-103670 3873 L-103453 3873 L-103438 3873 L-102857 3873 L-102586 3873 L-102297 3873 L-101867 3873 L-101714 3873 L-101657 3873 L-101481 3873 L-100085 3873 L-99820 3873 L-98927 3873 L-98402 3873 L-97382 3873 L-97301 3873 L-96837 3873 L-96218 3873 L-95932 3873 L-95678 3873 L-95526 3873 L-95178 3873 L-94461 3873 L-93900 3873 L-93011 3873 L-92702 3873 L-92411 3873 L-91559 3873 L-91538 3873 L-90882 3873 L-90378 3873 L-90167 3873 L-90147 3873 L-89818 3873 L-89760 3873 L-89373 3873 L-88388 3873 L-87826 3873 L-87729 3873 L-87420 3873 L-87343 3873 L-86308 3873 L-86178 3873 L-86121 3873 L-85486 3873 L-85427 3873 L-85352 3873 L-83938 3873 L-83801 3873 L-83667 3873 L-83181 3873 L-82932 3873 L-82641 3873 L-82429 3873 L-81771 3873 L-81203 3873 L-81114 3873 L-80974 3873 L-80900 3873 L-79735 3873 L-79703 3873 L-79273 3873 L-79256 3872 L-79082 3872 L-77554 3872 L-77470 3872 L-76664 3872 L-76471 3872 L-76449 3872 L-75596 3872 L-75402 3872 L-74769 3872 L-74593 3872 L-74474 3872 L-74420 3872 L-74399 3872 L-74343 3872 L-73955 3872 L-73511 3872 L-73432 3872 L-73236 3872 L-73174 3872 L-72911 3872 L-72563 3872 L-72447 3872 L-71299 3872 L-71014 3872 L-70569 3872 L-69366 3872 L-69236 3872 L-68926 3872 L-68498 3872 L-67201 3872 L-66891 3893 L-66875 3893 L-66829 3894 L-66779 3894 L-65851 3873 L-65521 3873 L-64973 3872 L-64845 3872 L-64399 3872 L-62866 3872 L-62697 3872 L-62426 3872 L-62402 3872 L-61497 3872 L-61382 3872 L-60914 3872 L-60892 3872 L-60819 3872 L-60621 3872 L-60469 3872 L-60002 3872 L-59351 3872 L-58865 3872 L-58315 3872 L-57293 3872 L-56987 3872 L-56932 3872 L-56332 3872 L-55902 3872 L-55828 3872 L-55810 3872 L-55589 3872 L-55285 3872 L-55203 3872 L-54899 3872 L-54300 3872 L-54163 3872 L-53893 3872 L-53679 3872 L-53504 3872 L-53295 3872 L-53273 3872 L-53024 3872 L-52575 3872 L-52559 3872 L-52113 3873 L-50905 3873 L-50703 3873 L-49774 3873 L-49713 3872 L-49678 3872 L-48653 3872 L-48537 3872 L-48516 3872 L-48362 3872 L-48343 3872 L-47932 3872 L-47916 3872 L-47878 3872 L-47568 3872 L-47414 3872 L-47210 3872 L-46811 3872 L-45828 3872 L-45303 3872 L-45247 3872 L-45221 3872 L-44899 3872 L-44182 3872 L-43313 3872 L-43275 3872 L-43197 3872 L-42946 3872 L-42926 3872 L-42203 3872 L-42053 3872 L-41940 3872 L-41843 3872 L-40741 3872 L-39986 3872 L-39814 3872 L-39653 3872 L-39577 3872 L-39383 3872 L-38245 3872 L-37560 3872 L-37277 3872 L-36310 3872 L-36291 3872 L-35440 3872 L-35401 3872 L-35258 3872 L-34933 3872 L-34703 3872 L-34665 3872 L-34625 3872 L-34608 3872 L-34472 3872 L-34453 3872 L-34242 3872 L-34182 3872 L-34104 3872 L-34080 3872 L-34005 3872 L-33525 3872 L-33428 3872 L-33352 3872 L-33176 3872 L-33153 3872 L-33098 3872 L-33060 3872 L-33001 3872 L-32846 3872 L-31822 3872 L-31523 3872 L-31396 3872 L-31318 3872 L-30293 3872 L-30236 3872 L-30178 3872 L-30132 3871 L-30118 3871 L-30081 3871 L-30043 3871 L-28863 3871 L-28804 3871 L-28108 3871 L-27488 3871 L-27346 3871 L-26903 3871 L-26637 3871 L-25974 3871 L-25690 3871 L-24220 3871 L-23271 3871 L-23166 3871 L-23099 3871 L-23070 3871 L-22750 3871 L-22729 3871 L-21800 3871 L-21624 3871 L-20893 3871 L-20352 2911 L-20328 1951 L-20302 991 L-20269 31 L-20253 31 L-20232 30 L-20194 30 L-20175 30 L-20152 30 L-20137 30 L-20118 31 L-20098 31 L-20076 30 L-20060 30 L-20040 30 L-20021 30 L-19982 30 L-19943 30 L-19917 30 L-19901 30 L-19883 30 L-19846 30 L-19827 30 L-19808 30 L-19789 30 L-19767 30 L-19750 30 L-19711 30 L-19689 30 L-19673 30 L-19654 30 L-19634 30 L-19614 30 L-19596 30 L-19557 30 L-19500 30 L-19451 30 L-19400 30 L-19373 30 L-19357 30 L-19340 30 L-19325 30 L-19304 30 L-19286 30 L-19266 30 L-19246 30 L-19224 30 L-19208 30 L-19190 30 L-19170 29 L-19148 29 L-19111 29 L-19092 29 L-19071 29 L-19035 29 L-19014 29 L-18989 29 L-18972 29 L-18955 29 L-18938 29 L-18917 29 L-18899 29 L-18879 29 L-18860 29 L-18802 29 L-18782 29 L-18760 29 L-18726 29 L-18705 29 L-18685 29 L-18667 29 L-18648 28 L-18609 28 L-18590 28 L-18571 28 L-18545 28 L-18357 28 L-18338 28 L-18318 28 L-18295 28 L-18261 28 L-18241 28 L-18219 28 L-18202 28 L-18183 28 L-18164 28 L-18143 28 L-18125 28 L-18107 28 L-18085 28 L-18060 28 L-18044 28 L-18009 28 L-17988 28 L-17970 28 L-17951 28 L-17932 28 L-17910 28 L-17874 28 L-17854 28 L-17832 27 L-17816 27 L-17797 27 L-17777 27 L-17757 27 L-17720 27 L-17642 27 L-17617 27 L-17594 27 L-17566 27 L-17543 27 L-17517 27 L-17467 27 L-17447 27 L-17409 27 L-17390 27 L-17368 27 L-17352 27 L-17333 27 L-17313 27 L-17292 27 L-17255 27 L-17235 27 L-17178 27 L-17157 27 L-17132 27 L-17117 27 L-17100 27 L-17062 27 L-17042 27 L-17023 27 L-17003 27 L-16983 27 L-16965 27 L-16946 26 L-16926 26 L-16905 26 L-16869 26 L-16849 26 L-16830 26 L-16791 26 L-16752 26 L-16732 26 L-16714 26 L-16665 26 L-16637 26 L-16598 26 L-16568 26 L-16553 26 L-16480 26 L-16461 26 L-16439 26 L-16423 26 L-16404 26 L-16364 26 L-16287 26 L-16268 26 L-16249 26 L-16229 26 L-16203 26 L-16171 26 L-16152 26 L-16133 26 L-16095 26 L-16054 26 L-15975 26 L-15940 26 L-15901 26 L-15823 26 L-15804 26 L-15759 26 L-15737 26 L-15709 26 L-15669 26 L-15639 26 L-15624 26 L-15610 25 L-15569 25 L-15508 25 L-15494 25 L-15475 25 L-15455 25 L-15378 25 L-15340 25 L-15321 25 L-15274 25 L-15258 25 L-15239 25 L-15223 25 L-15185 25 L-15164 25 L-15146 25 L-15124 25 L-15108 25 L-15068 25 L-15030 25 L-15011 25 L-14991 25 L-14971 25 L-14953 25 L-14934 25 L-14914 24 L-14894 24 L-14830 24 L-14808 24 L-14780 24 L-14757 24 L-14730 24 L-14714 24 L-14698 24 L-14661 24 L-14643 24 L-14623 24 L-14603 24 L-14581 24 L-14565 24 L-14546 24 L-14527 24 L-14505 24 L-14488 24 L-14468 24 L-14450 24 L-14429 24 L-14411 24 L-14392 24 L-14346 24 L-14329 24 L-14311 24 L-14295 23 L-14274 23 L-14256 23 L-14236 23 L-14217 23 L-14179 23 L-14160 23 L-14117 23 L-14102 23 L-14083 23 L-14063 23 L-14024 23 L-14005 23 L-13985 23 L-13947 23 L-13928 23 L-13902 23 L-13852 23 L-13815 23 L-13799 23 L-13753 23 L-13714 23 L-13695 23 L-13675 23 L-13652 23 L-13637 23 L-13618 23 L-13576 23 L-13560 23 L-13521 23 L-13500 23 L-13483 22 L-13442 22 L-13417 22 L-13401 22 L-13366 22 L-13346 22 L-13327 22 L-13307 22 L-13267 22 L-13251 22 L-13173 22 L-13154 22 L-13114 22 L-13096 22 L-13077 22 L-13057 22 L-13038 22 L-13018 22 L-12923 22 L-12898 22 L-12871 22 L-12840 22 L-12825 22 L-12804 22 L-12766 22 L-12746 22 L-12723 21 L-12708 21 L-12689 21 L-12670 21 L-12648 21 L-12631 21 L-12611 21 L-12592 21 L-12571 21 L-12554 21 L-12535 21 L-12514 21 L-12488 21 L-12472 21 L-12454 21 L-12416 21 L-12399 21 L-12379 21 L-12360 21 L-12338 21 L-12302 21 L-12282 21 L-12260 21 L-12245 21 L-12226 20 L-12205 20 L-12167 20 L-12128 20 L-12109 20 L-12090 20 L-12045 20 L-11943 20 L-11927 20 L-11795 20 L-11780 20 L-11761 20 L-11741 20 L-11719 20 L-11683 20 L-11664 20 L-11643 20 L-11585 20 L-11560 20 L-11544 20 L-11526 20 L-11509 20 L-11489 20 L-11470 20 L-11432 20 L-11410 20 L-11374 20 L-11354 20 L-11332 20 L-11277 20 L-11257 20 L-11200 20 L-11161 20 L-11094 20 L-11066 20 L-11043 20 L-11017 19 L-10984 19 L-10967 19 L-10947 19 L-10929 19 L-10909 19 L-10890 20 L-10868 20 L-10852 20 L-10755 20 L-10697 20 L-10657 20 L-10632 19 L-10600 19 L-10562 19 L-10523 19 L-10503 19 L-10465 19 L-10426 19 L-10387 19 L-10368 19 L-10330 19 L-10310 19 L-10291 19 L-10271 19 L-10252 19 L-10232 19 L-10214 19 L-10187 19 L-10137 19 L-10098 19 L-10068 19 L-10053 19 L-10039 19 L-10000 19 L-9981 19 L-9939 19 L-9923 19 L-9904 19 L-9864 19 L-9827 19 L-9787 18 L-9749 18 L-9703 18 L-9689 18 L-9613 18 L-9575 18 L-9554 18 L-9536 18 L-9517 18 L-9420 18 L-9381 18 L-9323 18 L-9304 18 L-9285 18 L-9259 18 L-9237 18 L-9170 18 L-9153 18 L-9138 18 L-9125 18 L-9089 18 L-9032 18 L-9008 18 L-8975 18 L-8955 18 L-8917 18 L-8896 18 L-8878 18 L-8857 18 L-8840 18 L-8821 18 L-8799 18 L-8774 18 L-8723 18 L-8702 18 L-8646 18 L-8626 17 L-8530 17 L-8511 17 L-8472 17 L-8453 17 L-8434 17 L-8395 17 L-8375 17 L-8357 17 L-8308 17 L-8256 17 L-8230 17 L-8214 17 L-8197 17 L-8182 17 L-8143 17 L-8123 17 L-8103 17 L-8046 17 L-8026 17 L-8004 17 L-7988 17 L-7968 17 L-7950 17 L-7892 17 L-7871 17 L-7845 17 L-7810 17 L-7795 17 L-7775 17 L-7756 16 L-7736 16 L-7717 16 L-7695 16 L-7679 16 L-7659 16 L-7640 16 L-7618 16 L-7602 16 L-7583 16 L-7563 16 L-7543 16 L-7505 16 L-7485 16 L-7466 16 L-7401 16 L-7379 16 L-7351 16 L-7312 16 L-7280 16 L-7266 16 L-7232 16 L-7194 16 L-7175 16 L-7152 16 L-7137 16 L-7118 16 L-7098 15 L-7059 15 L-7040 15 L-7000 15 L-6942 15 L-6917 15 L-6882 15 L-6866 15 L-6845 15 L-6827 15 L-6788 15 L-6767 15 L-6750 15 L-6730 15 L-6711 15 L-6688 15 L-6673 15 L-6654 15 L-6577 15 L-6557 15 L-6537 15 L-6518 15 L-6499 15 L-6474 15 L-6399 15 L-6373 15 L-6357 15 L-6341 15 L-6325 15 L-6304 15 L-6286 14 L-6246 14 L-6224 14 L-6208 14 L-6190 14 L-6170 14 L-6148 14 L-6131 14 L-6035 14 L-6014 14 L-5989 14 L-5955 14 L-5938 14 L-5917 14 L-5899 14 L-5879 14 L-5860 14 L-5838 14 L-5822 14 L-5803 14 L-5783 14 L-5760 14 L-5744 14 L-5726 14 L-5686 14 L-5667 14 L-5628 14 L-5571 14 L-5545 14 L-5523 14 L-5495 14 L-5471 14 L-5445 14 L-5412 14 L-5396 13 L-5376 13 L-5357 13 L-5337 13 L-5318 13 L-5280 13 L-5261 13 L-5241 13 L-5220 13 L-5183 13 L-5164 13 L-5143 13 L-5125 13 L-5107 13 L-5085 13 L-5060 13 L-5045 13 L-5027 13 L-5009 13 L-4989 13 L-4970 13 L-4951 13 L-4932 13 L-4874 13 L-4854 13 L-4832 13 L-4739 13 L-4700 13 L-4680 13 L-4661 13 L-4642 13 L-4545 13 L-4517 13 L-4485 13 L-4467 13 L-4368 13 L-4352 13 L-4333 13 L-4313 13 L-4293 13 L-4274 13 L-4256 13 L-4236 13 L-4216 13 L-4178 13 L-4157 13 L-4100 13 L-4081 13 L-4062 13 L-4042 14 L-4023 14 L-4003 14 L-3983 14 L-3926 14 L-3904 14 L-3868 14 L-3848 14 L-3791 14 L-3771 14 L-3733 14 L-3714 14 L-3687 14 L-3637 14 L-3598 14 L-3539 14 L-3519 14 L-3500 14 L-3461 14 L-3423 14 L-3384 14 L-3307 14 L-3287 14 L-3268 14 L-3172 14 L-3152 14 L-3075 14 L-3017 14 L-2959 14 L-2920 14 L-2901 14 L-2881 14 L-2863 14 L-2737 14 L-2655 14 L-2640 13 L-2625 13 L-2589 13 L-2552 13 L-2532 13 L-2509 13 L-2494 13 L-2475 13 L-2417 13 L-2396 13 L-2378 13 L-2357 12 L-2340 12 L-2321 12 L-2300 12 L-2274 12 L-2258 12 L-2239 12 L-2223 12 L-2202 12 L-2185 12 L-2165 12 L-2124 12 L-2088 12 L-2068 12 L-2045 12 L-2011 11 L-1971 11 L-1953 11 L-1914 11 L-1895 11 L-1875 11 L-1857 11 L-1831 11 L-1808 11 L-1756 11 L-1730 11 L-1714 11 L-1697 11 L-1682 11 L-1661 11 L-1643 11 L-1623 11 L-1547 11 L-1527 11 L-1505 11 L-1488 11 L-1468 11 L-1429 11 L-1392 11 L-1371 11 L-1345 11 L-1329 11 L-1311 11 L-1274 11 L-1256 11 L-1236 10 L-1217 10 L-1195 10 L-1179 10 L-1159 10 L-1140 10 L-1116 10 L-1063 10 L-1043 10 L-1024 10 L-966 10 L-902 10 L-880 10 L-801 10 L-769 10 L-732 10 L-714 10 L-694 10 L-652 10 L-637 10 L-598 10 L-576 10 L-560 10 L-540 10 L-500 10 L-482 10 L-464 9 L-442 9 L-417 9 L-400 9 L-382 9 L-345 9 L-307 9 L-289 9 L-267 9 L-231 9 L-188 9 L-134 9 L-96 9 L-77 9 L-57 9 L-37 9 L25 9 L100 9 L144 9 L159 9 L174 9 L213 9 L233 9 L276 9 L291 9 L309 9 L329 9 L351 9 L368 9 L388 8 L428 8 L464 8 L485 8 L511 8 L527 8 L546 8 L561 8 L583 997 L614 996 L639 996 L662 996 L678 8 L697 8 L717 8 L754 8 L773 8 L794 8 L814 8 L871 8 L890 7 L909 7 L954 7 L977 7 L1004 7 L1029 7 L1056 7 L1087 7 L1124 7 L1142 7 L1162 7 L1238 7 L1258 7 L1280 7 L1297 7 L1316 7 L1414 7 L1439 7 L1455 7 L1473 7 L1490 7 L1529 7 L1548 7 L1589 7 L1625 7 L1645 7 L1667 7 L1683 7 L1722 7 L1779 7 L1819 7 L1905 7 L1933 7 L1956 7 L1998 6 L2070 6 L2090 6 L2148 6 L2166 6 L2186 6 L2207 6 L2244 6 L2284 6 L2302 6 L2342 6 L2367 6 L2418 6 L2457 6 L2516 6 L2534 6 L2553 6 L2594 6 L2669 6 L2689 6 L2708 6 L2766 6 L2785 6 L2812 6 L2834 6 L2900 6 L2930 6 L2945 6 L2981 6 L3018 6 L3060 6 L3095 6 L3115 6 L3135 6 L3153 5 L3172 5 L3192 5 L3212 5 L3231 5 L3310 5 L3366 5 L3386 5 L3404 5 L3445 5 L3463 5 L3523 5 L3559 5 L3579 5 L3618 5 L3656 5 L3676 5 L3714 5 L3830 5 L3861 5 L3876 5 L3910 5 L3927 5 L3948 5 L3991 5 L4024 5 L4083 5 L4103 5 L4143 5 L4199 5 L4225 5 L4242 5 L4276 5 L4297 5 L4315 5 L4334 5 L4392 5 L4411 5 L4453 5 L4469 5 L4508 4 L4528 4 L4546 4 L4585 4 L4605 4 L4624 4 L4642 4 L4691 4 L4719 4 L4744 4 L4771 4 L4787 4 L4802 4 L4838 4 L4896 4 L4934 4 L4972 4 L4994 4 L5011 4 L5031 4 L5071 4 L5088 4 L5107 4 L5128 4 L5154 4 L5171 3 L5189 3 L5204 3 L5226 3 L5243 3 L5263 3 L5282 3 L5304 3 L5320 3 L5339 3 L5383 3 L5397 3 L5416 3 L5436 3 L5457 3 L5475 3 L5514 3 L5597 3 L5619 3 L5648 3 L5686 3 L5717 2 L5731 2 L5767 2 L5805 2 L5847 2 L5862 2 L5901 2 L5960 2 L5978 2 L6000 2 L6035 2 L6057 2 L6082 2 L6099 2 L6133 2 L6155 2 L6172 2 L6191 2 L6210 2 L6249 2 L6269 2 L6288 2 L6311 2 L6326 2 L6385 2 L6403 2 L6422 2 L6442 2 L6462 2 L6500 1" />
</svg>
