<svg xmlns="http://www.w3.org/2000/svg" version="1.1" viewBox="0 0 6500 1000">
	<path fill="none" stroke="gold" stroke-width="125" stroke-linecap="round" stroke-linejoin="round" d="M0 328758  L-1316576 328758 L-1316391 328756 L-1315901 328753 L-1315608 328752 L-1315296 328749 L-1315062 328747 L-1315008 328744 L-1314949 328741 L-1314796 328740 L-1314756 328737 L-1314623 328735 L-1314330 328734 L-1313790 328734 L-1313179 328732 L-1313131 328732 L-1312491 328731 L-1312458 328731 L-1311933 328731 L-1311800 328729 L-1311410 328726 L-1311082 328723 L-1310964 328720 L-1310753 328717 L-1310036 328717 L-1309466 328716 L-1309359 328716 L-1309185 328714 L-1308963 328711 L-1308562 328710 L-1308536 328707 L-1307608 328704 L-1307520 328701 L-1307438 328698 L-1307368 328695 L-1307071 328694 L-1306919 328691 L-1305029 328692 L-1304928 328692 L-1304666 328692 L-1304372 328694 L-1304230 328691 L-1303982 328691 L-1303946 328689 L-1303788 328688 L-1303324 328685 L-1303071 328683 L-1302859 328680 L-1302608 328679 L-1302259 328677 L-1301331 328674 L-1301238 328671 L-1300827 328670 L-1299656 328667 L-1298467 328665 L-1298375 328662 L-1298347 328659 L-1298081 328656 L-1297782 328653 L-1297654 328650 L-1297616 328647 L-1296802 328647 L-1296418 328649 L-1295357 328650 L-1295296 328650 L-1295031 328680 L-1294559 328709 L-1294367 328737 L-1294103 328765 L-1293767 328764 L-1293631 328762 L-1293175 328761 L-1292432 328759 L-1292415 328758 L-1292249 328755 L-1292181 328755 L-1291665 328753 L-1290637 328753 L-1290440 328752 L-1289952 328750 L-1289590 328749 L-1289181 328749 L-1288796 328750 L-1287092 328750 L-1286994 328750 L-1286922 328750 L-1286861 328750 L-1286676 328749 L-1286340 328749 L-1285699 328747 L-1285622 328746 L-1285561 328746 L-1285375 328744 L-1285295 328744 L-1285118 328743 L-1285099 328741 L-1284869 328741 L-1284481 328740 L-1283592 328740 L-1283553 328738 L-1283465 328737 L-1283437 328734 L-1282429 328732 L-1282279 328729 L-1282255 328728 L-1282122 328726 L-1282082 328725 L-1280824 328723 L-1280766 328723 L-1280227 328722 L-1280174 328722 L-1280127 328722 L-1279732 328720 L-1279593 328719 L-1279393 328717 L-1279246 328717 L-1279082 328717 L-1278805 328719 L-1278446 328719 L-1277894 328717 L-1277249 328716 L-1276990 328713 L-1276836 328711 L-1276435 328710 L-1276395 328709 L-1276275 328707 L-1276213 328709 L-1276199 328709 L-1276105 328709 L-1275812 328707 L-1275661 328701 L-1275330 328698 L-1275252 328695 L-1275177 328694 L-1274950 328689 L-1274883 328686 L-1274656 328683 L-1274603 328680 L-1274439 328679 L-1273433 328677 L-1273250 328676 L-1272698 328674 L-1272305 328671 L-1271908 328670 L-1271058 328667 L-1270980 328665 L-1270401 328664 L-1269959 328664 L-1269718 328662 L-1269561 328662 L-1269160 328659 L-1269140 328659 L-1268695 328658 L-1268289 328656 L-1268153 328653 L-1267978 328650 L-1267842 328647 L-1267592 328644 L-1266592 328643 L-1266510 328641 L-1266374 328640 L-1266336 328638 L-1265446 328637 L-1265230 328635 L-1264787 328634 L-1264669 328632 L-1264613 328631 L-1263936 328631 L-1263836 328629 L-1263807 328629 L-1262465 328628 L-1262060 328626 L-1262020 328625 L-1261092 328623 L-1260994 328622 L-1260861 328620 L-1260456 328619 L-1260430 328617 L-1260337 328616 L-1260121 328614 L-1259710 328611 L-1258556 328608 L-1258265 328605 L-1258236 328602 L-1257628 328601 L-1257378 328598 L-1257358 328597 L-1256429 328595 L-1256377 328592 L-1256255 328591 L-1256237 328588 L-1256081 328586 L-1255906 328583 L-1255770 328582 L-1255713 328580 L-1255605 328579 L-1255520 328577 L-1255287 328576 L-1255212 328574 L-1254903 328573 L-1254786 328571 L-1254616 328570 L-1254524 328568 L-1254422 328568 L-1254399 328567 L-1254322 328567 L-1254224 328564 L-1253857 328562 L-1253752 328561 L-1253249 328559 L-1252797 328558 L-1252759 328556 L-1252735 328555 L-1252694 328553 L-1252565 328552 L-1252464 328550 L-1252023 328549 L-1251741 328547 L-1251148 328546 L-1251018 328544 L-1250743 328541 L-1250591 328540 L-1250438 328538 L-1250352 328535 L-1250274 328534 L-1250089 328532 L-1250038 328532 L-1250010 328531 L-1249931 328529 L-1249908 328528 L-1249624 328525 L-1249021 328522 L-1248025 328520 L-1247727 328519 L-1246993 328517 L-1246749 328516 L-1246659 328514 L-1246082 328513 L-1245383 328511 L-1244631 328510 L-1244313 328508 L-1243930 328505 L-1243853 328504 L-1243218 328502 L-1243033 328501 L-1242945 328501 L-1242815 328501 L-1242503 328499 L-1242453 328498 L-1242311 328496 L-1242290 328495 L-1241322 328493 L-1240776 328492 L-1240298 328492 L-1240237 328492 L-1239913 328492 L-1239892 328490 L-1239830 328490 L-1239619 328489 L-1239543 328488 L-1239488 328486 L-1239465 328485 L-1239426 328483 L-1239410 328482 L-1238653 328480 L-1238637 328479 L-1237837 328477 L-1237685 328476 L-1236780 328474 L-1236273 328473 L-1236044 328470 L-1236003 328470 L-1235888 328468 L-1235711 328467 L-1234957 328468 L-1234822 328467 L-1234658 328465 L-1234340 328464 L-1234164 328461 L-1233142 328458 L-1233118 328455 L-1232867 328453 L-1232654 328450 L-1232020 328449 L-1231782 328446 L-1231750 328443 L-1231572 328440 L-1231491 328437 L-1231402 328435 L-1231337 328432 L-1230897 328429 L-1230873 328428 L-1230333 328426 L-1230077 328425 L-1229582 328423 L-1228705 328422 L-1228668 328420 L-1228615 328419 L-1228574 328417 L-1228457 328416 L-1228180 328414 L-1227973 328411 L-1227776 328408 L-1227753 328405 L-1227703 328402 L-1227663 328401 L-1227585 328399 L-1226988 328396 L-1226928 328395 L-1226824 328393 L-1226670 328392 L-1226038 328390 L-1225357 328389 L-1225055 328386 L-1224708 328384 L-1224510 328383 L-1224462 328380 L-1224142 328378 L-1223514 328377 L-1223367 328376 L-1223331 328374 L-1223273 328373 L-1223197 328370 L-1222955 328370 L-1222867 328368 L-1222773 328367 L-1222479 328365 L-1222345 328364 L-1222285 328362 L-1222248 328359 L-1221976 328359 L-1220970 328358 L-1220794 328356 L-1220743 328356 L-1220451 328355 L-1220258 328352 L-1219925 328350 L-1219419 328349 L-1218856 328346 L-1218842 328343 L-1218825 328341 L-1218725 328338 L-1218610 328335 L-1218571 328332 L-1218533 328331 L-1218468 328331 L-1218440 328329 L-1218301 328331 L-1218008 328331 L-1217958 328331 L-1217853 328331 L-1217588 328329 L-1217123 328328 L-1216979 328328 L-1216924 328325 L-1216867 328323 L-1216676 328322 L-1216311 328320 L-1216096 328320 L-1215902 328320 L-1215844 328320 L-1215785 328317 L-1215631 328316 L-1215361 328314 L-1214931 328322 L-1214916 328322 L-1214839 328320 L-1214774 328319 L-1214645 328308 L-1214622 328307 L-1214338 328305 L-1214290 328304 L-1214235 328302 L-1213773 328301 L-1213734 328301 L-1213693 328299 L-1213503 328298 L-1213023 328296 L-1212536 328295 L-1212519 328293 L-1212481 328292 L-1212225 328290 L-1212147 328287 L-1211917 328286 L-1211901 328283 L-1211607 328280 L-1211165 328278 L-1210718 328277 L-1210213 328275 L-1210059 328274 L-1209773 328272 L-1209733 328269 L-1209402 328268 L-1209180 328266 L-1208663 328264 L-1208587 328262 L-1208339 328259 L-1208145 328256 L-1208085 328255 L-1207308 328253 L-1207234 328253 L-1207004 328252 L-1206987 328252 L-1206925 328250 L-1206730 328249 L-1206265 328249 L-1206242 328247 L-1206112 328247 L-1204812 328247 L-1204795 328247 L-1204718 328246 L-1204624 328246 L-1204407 328246 L-1204255 328244 L-1204077 328246 L-1204022 328247 L-1203736 328249 L-1203696 328249 L-1203326 328249 L-1202886 328249 L-1202703 328249 L-1202382 328247 L-1202087 328247 L-1201641 328244 L-1201569 328243 L-1201107 328240 L-1200669 328238 L-1200487 328237 L-1199033 328234 L-1198901 328232 L-1198444 328229 L-1198218 328228 L-1197831 328225 L-1197315 328222 L-1196361 328219 L-1195566 328216 L-1194892 328214 L-1194466 328211 L-1194155 328210 L-1193925 328205 L-1193242 328201 L-1193229 328196 L-1193019 328190 L-1192997 328189 L-1192823 328186 L-1191873 328184 L-1191604 328181 L-1190789 328180 L-1190479 328177 L-1190441 328175 L-1190384 328172 L-1189767 328171 L-1189129 328168 L-1187503 328166 L-1186829 328165 L-1186187 328165 L-1186110 328165 L-1186053 328165 L-1186017 328165 L-1185989 328163 L-1185877 328160 L-1185859 328159 L-1185837 328157 L-1185683 328156 L-1185630 328153 L-1185552 328152 L-1185432 328150 L-1185335 328149 L-1185217 328147 L-1184948 328144 L-1184678 328143 L-1184661 328140 L-1184461 328138 L-1184314 328135 L-1184087 328134 L-1183953 328132 L-1183644 328131 L-1183584 328129 L-1183231 328126 L-1182883 328125 L-1182782 328123 L-1182718 328120 L-1182658 328119 L-1182273 328116 L-1181892 328114 L-1181788 328113 L-1181528 328111 L-1181257 328108 L-1181097 328107 L-1181065 328105 L-1181003 328104 L-1180862 328102 L-1180678 328101 L-1180633 328099 L-1180345 328099 L-1180329 328098 L-1180096 328098 L-1180035 328096 L-1179997 328096 L-1179417 328095 L-1179283 328093 L-1179260 328087 L-1179242 328077 L-1179224 328065 L-1179208 328053 L-1179184 328041 L-1179167 328032 L-1179146 328022 L-1179130 328011 L-1179106 328005 L-1179090 327999 L-1179068 327995 L-1179051 327992 L-1179002 327987 L-1178930 327983 L-1178895 327975 L-1178872 327969 L-1178836 327963 L-1178795 327957 L-1178758 327954 L-1178742 327948 L-1178718 327944 L-1178681 327941 L-1178664 327936 L-1178640 327933 L-1178623 327930 L-1178604 327928 L-1178588 327925 L-1178559 327920 L-1178533 327916 L-1178488 327914 L-1178471 327911 L-1178429 327910 L-1178381 327907 L-1178311 327904 L-1178295 327901 L-1178279 327898 L-1178217 327896 L-1178178 327895 L-1178139 327893 L-1177972 327892 L-1177908 327890 L-1177892 327889 L-1177847 327886 L-1177789 327884 L-1177576 327883 L-1177543 327881 L-1177500 327880 L-1177422 327878 L-1176885 327877 L-1176807 327875 L-1176703 327872 L-1176614 327871 L-1176438 327869 L-1176087 327868 L-1175931 327866 L-1175493 327865 L-1175337 327863 L-1175207 327862 L-1174503 327859 L-1174302 327857 L-1173341 327854 L-1172859 327853 L-1172760 327853 L-1172667 327851 L-1172422 327850 L-1172349 327848 L-1171906 327845 L-1171810 327844 L-1171795 327842 L-1171779 327841 L-1171754 327839 L-1171289 327838 L-1171072 327836 L-1170932 327835 L-1170638 327833 L-1170550 327832 L-1170508 327830 L-1170478 327829 L-1170306 327827 L-1170247 327826 L-1170171 327824 L-1170090 327823 L-1170020 327823 L-1169711 327821 L-1169626 327820 L-1169412 327818 L-1169377 327817 L-1168694 327816 L-1168595 327814 L-1168390 327813 L-1168343 327811 L-1168065 327810 L-1168003 327808 L-1167986 327805 L-1167908 327804 L-1167600 327801 L-1167575 327799 L-1167521 327796 L-1167499 327795 L-1167376 327793 L-1167240 327790 L-1166996 327789 L-1166871 327789 L-1166224 327787 L-1166208 327787 L-1166183 327787 L-1166003 327784 L-1165927 327783 L-1165835 327781 L-1165407 327780 L-1164991 327778 L-1164598 327775 L-1164519 327774 L-1164501 327772 L-1164137 327771 L-1163901 327769 L-1163673 327768 L-1163359 327766 L-1163282 327765 L-1163201 327762 L-1163023 327759 L-1163007 327757 L-1162742 327754 L-1162662 327753 L-1162432 327751 L-1162205 327750 L-1161890 327750 L-1161715 327748 L-1161353 327748 L-1160962 327747 L-1160892 327744 L-1160829 327742 L-1160688 327739 L-1160636 327738 L-1160535 327735 L-1160033 327733 L-1159836 327732 L-1159589 327730 L-1159404 327729 L-1159104 327727 L-1159028 327726 L-1158862 327723 L-1157977 327721 L-1157949 327718 L-1157826 327715 L-1157247 327714 L-1157169 327712 L-1156456 327712 L-1156144 327712 L-1155931 327712 L-1155914 327712 L-1155528 327712 L-1155003 327709 L-1154556 327708 L-1154227 327706 L-1154074 327705 L-1153748 327705 L-1153570 327704 L-1153488 327704 L-1153282 327701 L-1153107 327699 L-1152178 327698 L-1151288 327696 L-1151249 327695 L-1151021 327695 L-1150642 327693 L-1149854 327692 L-1149620 327690 L-1149544 327689 L-1149187 327687 L-1148615 327684 L-1148348 327683 L-1147961 327681 L-1147858 327681 L-1147688 327681 L-1147069 327681 L-1146858 327681 L-1146550 327681 L-1146497 327680 L-1146370 327678 L-1146317 327677 L-1146197 327675 L-1145861 327672 L-1144902 327671 L-1144771 327668 L-1144569 327666 L-1143938 327665 L-1143626 327663 L-1143212 327662 L-1143185 327660 L-1143040 327659 L-1142619 327657 L-1141287 327657 L-1141240 327656 L-1141111 327653 L-1141095 327651 L-1140517 327648 L-1140311 327647 L-1140281 327645 L-1140240 327644 L-1140183 327642 L-1140145 327641 L-1140067 327639 L-1139924 327638 L-1139470 327636 L-1139352 327635 L-1139066 327633 L-1138694 327632 L-1138598 327630 L-1138271 327629 L-1137916 327627 L-1137746 327626 L-1137699 327624 L-1137590 327623 L-1137501 327621 L-1137473 327620 L-1137397 327617 L-1137093 327615 L-1137060 327612 L-1136988 327611 L-1136620 327609 L-1136284 327608 L-1136204 327608 L-1135984 327606 L-1135812 327605 L-1135785 327603 L-1135288 327602 L-1134739 327599 L-1133858 327597 L-1133760 327594 L-1133683 327593 L-1133408 327592 L-1133161 327589 L-1133087 327587 L-1133025 327584 L-1132906 327583 L-1132864 327581 L-1132754 327580 L-1132677 327577 L-1131977 327575 L-1131731 327574 L-1131691 327572 L-1131535 327571 L-1130936 327571 L-1130709 327571 L-1130617 327571 L-1130142 327571 L-1129544 327568 L-1129024 327566 L-1129003 327565 L-1128858 327563 L-1128538 327563 L-1127996 327563 L-1127764 327563 L-1127594 327563 L-1127107 327562 L-1126880 327560 L-1126795 327559 L-1126449 327557 L-1126123 327557 L-1125600 327556 L-1125272 327554 L-1124672 327553 L-1124474 327550 L-1124422 327548 L-1124382 327547 L-1124100 327545 L-1123416 327542 L-1123106 327541 L-1123081 327538 L-1122890 327536 L-1122667 327535 L-1122581 327533 L-1121917 327530 L-1121893 327529 L-1121671 327526 L-1121341 327524 L-1120989 327521 L-1120784 327520 L-1120552 327517 L-1120294 327515 L-1120104 327512 L-1120057 327511 L-1119830 327509 L-1119795 327508 L-1119639 327506 L-1119424 327505 L-1119251 327503 L-1119160 327502 L-1118883 327500 L-1118639 327499 L-1118324 327497 L-1117898 327497 L-1117860 327497 L-1117377 327497 L-1117144 327497 L-1116932 327496 L-1116706 327494 L-1116156 327494 L-1115909 327493 L-1115075 327493 L-1115019 327491 L-1114997 327490 L-1114839 327488 L-1114378 327487 L-1114337 327485 L-1113997 327482 L-1113864 327481 L-1113641 327480 L-1113069 327478 L-1112597 327477 L-1112402 327475 L-1112210 327474 L-1112020 327472 L-1111918 327471 L-1111550 327469 L-1111504 327468 L-1111422 327466 L-1110129 327465 L-1110080 327463 L-1109812 327463 L-1109667 327463 L-1109116 327463 L-1108999 327462 L-1108918 327460 L-1108558 327459 L-1108335 327457 L-1108053 327456 L-1107724 327453 L-1107216 327451 L-1107104 327450 L-1107025 327448 L-1106861 327447 L-1106566 327447 L-1106097 327447 L-1105901 327448 L-1105850 327448 L-1105201 327447 L-1105079 327445 L-1104625 327445 L-1104589 327444 L-1104120 327442 L-1104010 327441 L-1103994 327439 L-1103777 327439 L-1103597 327438 L-1103065 327438 L-1102035 327438 L-1101836 327436 L-1101378 327435 L-1100429 327432 L-1100331 327430 L-1099977 327427 L-1099916 327426 L-1099902 327424 L-1099866 327423 L-1099497 327421 L-1099377 327420 L-1099135 327418 L-1098971 327417 L-1098784 327415 L-1098663 327414 L-1097592 327411 L-1096734 327409 L-1096522 327406 L-1096425 327405 L-1096250 327402 L-1095917 327400 L-1095845 327399 L-1095788 327397 L-1095612 327397 L-1095223 327396 L-1094988 327394 L-1094877 327393 L-1094760 327391 L-1093779 327390 L-1093754 327388 L-1093159 327385 L-1093127 327385 L-1092978 327384 L-1092694 327382 L-1091782 327382 L-1090836 327382 L-1090683 327381 L-1090580 327381 L-1090449 327379 L-1090306 327378 L-1090279 327376 L-1090165 327375 L-1089947 327373 L-1089265 327372 L-1089136 327370 L-1088833 327369 L-1088593 327366 L-1088260 327365 L-1087621 327363 L-1087279 327360 L-1087217 327359 L-1087061 327359 L-1086140 327359 L-1085669 327359 L-1085626 327359 L-1085613 327357 L-1085572 327356 L-1085550 327354 L-1085523 327353 L-1085379 327351 L-1084956 327350 L-1084621 327350 L-1084430 327348 L-1084001 327348 L-1083814 327347 L-1083425 327344 L-1082890 327342 L-1082518 327341 L-1082496 327341 L-1082246 327339 L-1082128 327338 L-1082052 327336 L-1081916 327335 L-1081877 327333 L-1081797 327332 L-1081403 327330 L-1080907 327329 L-1080795 327326 L-1080622 327324 L-1080314 327323 L-1079866 327321 L-1079543 327320 L-1079401 327317 L-1078974 327314 L-1078820 327311 L-1078765 327308 L-1077951 327306 L-1077932 327305 L-1077560 327303 L-1077503 327303 L-1076374 327302 L-1076306 327302 L-1075748 327300 L-1075553 327299 L-1075417 327297 L-1075183 327296 L-1074836 327294 L-1074801 327291 L-1074766 327290 L-1074698 327287 L-1074349 327285 L-1074177 327284 L-1073692 327282 L-1073676 327281 L-1073351 327279 L-1073193 327278 L-1072052 327275 L-1072028 327273 L-1071836 327270 L-1071642 327269 L-1071392 327267 L-1071375 327266 L-1070355 327264 L-1070057 327263 L-1069982 327261 L-1069845 327259 L-1069670 327257 L-1069093 327254 L-1068877 327253 L-1068814 327251 L-1068683 327250 L-1068646 327247 L-1068123 327245 L-1067985 327833 L-1067970 327833 L-1067948 327833 L-1067927 327833 L-1067700 327244 L-1066924 327244 L-1066883 327244 L-1066515 327244 L-1066437 327242 L-1066385 327241 L-1065711 327239 L-1064969 327238 L-1064544 327238 L-1064097 327236 L-1063035 327235 L-1062723 327232 L-1062313 327232 L-1062241 327230 L-1061717 327230 L-1061622 327230 L-1061604 327230 L-1061160 327229 L-1060974 327226 L-1060194 327223 L-1059521 327221 L-1059109 327217 L-1058877 327214 L-1058737 327212 L-1058655 327209 L-1058635 327208 L-1058559 327208 L-1058431 327206 L-1058114 327208 L-1057890 327208 L-1057565 327206 L-1057503 327206 L-1057133 327206 L-1057099 327206 L-1056891 327206 L-1056223 327206 L-1056146 327206 L-1055988 327203 L-1055877 327203 L-1055551 327202 L-1055396 327200 L-1055055 327200 L-1054998 327197 L-1054660 327194 L-1054456 327193 L-1054403 327190 L-1053027 327188 L-1052897 327187 L-1052464 327185 L-1052143 327184 L-1051316 327181 L-1051192 327179 L-1050461 327176 L-1050305 327173 L-1050265 327172 L-1050211 327170 L-1050188 327169 L-1050074 327167 L-1049777 327166 L-1049488 327164 L-1049433 327163 L-1049313 327161 L-1049282 327160 L-1049183 327158 L-1048739 327158 L-1048587 327157 L-1047752 327157 L-1047210 327155 L-1046875 327155 L-1046859 327154 L-1046784 327152 L-1046668 327151 L-1046473 327149 L-1046209 327148 L-1045374 327147 L-1045278 327145 L-1044756 327144 L-1044715 327142 L-1044615 327141 L-1043787 327141 L-1043652 327139 L-1043313 327139 L-1042759 327138 L-1042380 327136 L-1042217 327135 L-1041907 327133 L-1041094 327132 L-1040788 327130 L-1040520 327130 L-1040198 327130 L-1039877 327132 L-1039602 327132 L-1038773 327129 L-1038678 327127 L-1038585 327123 L-1038481 327118 L-1038094 327114 L-1037614 327111 L-1037598 327109 L-1037479 327108 L-1037111 327105 L-1037016 327103 L-1036182 327100 L-1036105 327099 L-1035806 327097 L-1035715 327096 L-1035308 327093 L-1035198 327090 L-1034498 327088 L-1034025 327087 L-1033965 327085 L-1033746 327082 L-1033472 327081 L-1033359 327079 L-1032332 327078 L-1031946 327076 L-1031926 327075 L-1031593 327073 L-1031348 327072 L-1030915 327070 L-1030805 327069 L-1030687 327067 L-1030235 327064 L-1029645 327063 L-1029308 327061 L-1027416 327060 L-1027302 327057 L-1027090 327055 L-1025772 327054 L-1025665 326718 L-1025599 326386 L-1025563 326080 L-1025501 326080 L-1025002 326413 L-1024327 326742 L-1024305 327045 L-1024034 327042 L-1023066 327042 L-1022377 327040 L-1022215 327039 L-1021674 327037 L-1021584 327036 L-1020565 327035 L-1019617 327032 L-1019252 327033 L-1019149 327035 L-1018561 327035 L-1018501 327035 L-1018401 327033 L-1017961 327030 L-1017853 327029 L-1017412 327027 L-1016412 327023 L-1016155 327018 L-1016052 327014 L-1015922 327011 L-1015556 327008 L-1014975 327005 L-1014944 327003 L-1014628 327002 L-1012645 327000 L-1012530 326999 L-1012462 326999 L-1012103 326997 L-1010485 326996 L-1010307 326996 L-1010163 326996 L-1009340 326997 L-1009288 326999 L-1009233 326999 L-1008799 326999 L-1007818 327000 L-1007745 327000 L-1006660 326999 L-1006447 326999 L-1005731 326996 L-1005342 326994 L-1005124 326991 L-1004804 326988 L-1004310 326985 L-1004183 326984 L-1003954 326981 L-1003721 326978 L-1003662 326976 L-1003373 326975 L-1003100 326972 L-1002071 326970 L-1000406 326969 L-999986 326967 L-999849 326966 L-999693 326966 L-999388 326964 L-999160 326961 L-999001 326960 L-998842 326957 L-998673 326954 L-998625 326952 L-998572 326951 L-998550 326951 L-998164 326949 L-997914 326949 L-997644 326949 L-997483 326949 L-997393 326949 L-995735 326949 L-995570 326951 L-995190 326949 L-994730 326949 L-994120 326946 L-993027 326945 L-992596 326943 L-992564 326942 L-992502 326940 L-992485 326939 L-990781 326937 L-990739 326936 L-990273 326934 L-990086 326933 L-990054 326930 L-989458 326928 L-989408 326927 L-989086 326925 L-989035 326924 L-988825 326923 L-988807 326921 L-988540 326918 L-988488 326917 L-988018 326915 L-987508 326912 L-987430 326912 L-987135 326911 L-987119 326909 L-987080 326908 L-987009 326906 L-986852 326905 L-985906 326905 L-985849 326905 L-985329 326905 L-985136 326903 L-985035 326903 L-984809 326902 L-984299 326902 L-983911 326942 L-983842 326942 L-983494 326940 L-983137 326939 L-982008 326896 L-981956 326893 L-981730 326891 L-981696 326890 L-981571 326887 L-981473 326887 L-981208 326887 L-980468 326888 L-979889 326888 L-979596 326888 L-978890 326888 L-978711 326887 L-978688 326887 L-978052 326885 L-977741 326884 L-977344 326884 L-977315 326882 L-977294 326881 L-977140 326879 L-976455 326879 L-976438 326879 L-976098 326879 L-975826 326878 L-975788 326876 L-975732 326873 L-975710 326872 L-975638 326870 L-975306 326869 L-975200 326867 L-975172 326864 L-974974 326863 L-974821 326861 L-973953 326860 L-973390 326857 L-973374 326857 L-973273 326855 L-973171 326857 L-973024 326857 L-972946 326857 L-972908 326855 L-972853 326854 L-972779 326852 L-972634 326851 L-972153 326851 L-971748 326849 L-970882 326851 L-970862 326851 L-970604 326851 L-970528 326851 L-970498 326849 L-970488 326846 L-970471 326845 L-970178 326843 L-970138 326842 L-970067 326840 L-969993 326839 L-969788 326837 L-969628 326833 L-969327 326828 L-969249 326822 L-969232 326818 L-969016 326815 L-968785 326815 L-968675 326816 L-968305 326818 L-968147 326818 L-967915 326818 L-967747 326818 L-967602 326816 L-967470 326815 L-966194 326812 L-965790 326809 L-965730 326808 L-965613 326805 L-965188 326803 L-965172 326800 L-965110 326799 L-964837 326796 L-964724 326794 L-964442 326791 L-964165 326790 L-963740 326787 L-963717 326785 L-963639 326784 L-963514 326782 L-962927 326781 L-962536 326779 L-962200 326778 L-961611 326776 L-961509 326776 L-961339 326775 L-961202 326775 L-960375 326773 L-959189 326772 L-959153 326770 L-959098 326770 L-958877 326769 L-958672 326769 L-958518 326769 L-958261 326767 L-958184 326766 L-957642 326764 L-957605 326763 L-957356 326761 L-956969 326760 L-956143 326758 L-955785 326757 L-955475 326757 L-955217 326755 L-954993 326754 L-954587 326752 L-954470 326751 L-954287 326749 L-954234 326749 L-954045 326748 L-953875 326746 L-953846 326745 L-953565 326743 L-953255 326742 L-953117 326740 L-952807 326739 L-952613 326739 L-952598 326737 L-951878 326737 L-951745 326734 L-951447 326733 L-951357 326731 L-950756 326731 L-950718 326730 L-950639 326728 L-950019 326727 L-949867 326724 L-949827 326722 L-949516 326721 L-949324 326719 L-949131 326716 L-949076 326713 L-948767 326712 L-948715 326710 L-948660 326712 L-948635 326712 L-948510 326712 L-947699 326710 L-947623 326709 L-947082 326707 L-946813 326706 L-946154 326704 L-945246 326703 L-945005 326701 L-944473 326700 L-944255 326699 L-943148 326700 L-943098 326700 L-942322 326700 L-941774 326699 L-941663 326697 L-941510 326694 L-941455 326693 L-941290 326691 L-940912 326690 L-940465 326688 L-940410 326687 L-940256 326685 L-939576 326684 L-939356 326682 L-938838 326681 L-937989 326678 L-937973 326676 L-936182 326675 L-935628 326673 L-935510 326672 L-934505 326670 L-934468 326669 L-934235 326669 L-934143 326669 L-934103 326669 L-933771 326667 L-933419 326666 L-933154 326663 L-932867 326661 L-932556 326658 L-932302 326655 L-932208 326654 L-931718 326652 L-931511 326651 L-930945 326649 L-930831 326651 L-930480 326649 L-930428 326649 L-930388 326649 L-929785 326646 L-929051 326643 L-928470 326640 L-928234 326637 L-927694 326633 L-927541 326630 L-927040 326628 L-926830 326625 L-926807 326625 L-926748 326624 L-925786 326624 L-925608 326622 L-925166 326621 L-925142 326618 L-924987 326616 L-924905 326616 L-924755 326618 L-924108 326618 L-924058 326616 L-922938 326615 L-921954 326613 L-921893 326612 L-921172 326610 L-920307 326609 L-919928 326607 L-919709 326607 L-918950 326606 L-918898 326604 L-918589 326601 L-917737 326601 L-917544 326600 L-917368 326598 L-917143 326598 L-917016 326597 L-916824 326597 L-916592 326595 L-916422 326597 L-916136 326595 L-915856 326595 L-915773 326594 L-915603 326592 L-915586 326589 L-915432 326588 L-915393 326587 L-914618 326585 L-914541 326585 L-914309 326582 L-913882 326581 L-913537 326579 L-912953 326578 L-912685 326578 L-912426 326578 L-912296 326575 L-912280 326573 L-912166 326572 L-912142 326570 L-911908 326569 L-911872 326567 L-910556 326567 L-910501 326566 L-909822 326563 L-909249 326563 L-909124 326563 L-908971 326563 L-908894 326563 L-908582 326560 L-908309 326558 L-908219 326555 L-908118 326555 L-907190 326554 L-907114 326554 L-906750 326554 L-906725 326552 L-906689 326551 L-905913 326548 L-905821 326546 L-905681 326545 L-905280 326543 L-905018 326543 L-904774 326545 L-904560 326543 L-904480 326543 L-904403 326543 L-904327 326543 L-904140 326545 L-904074 326545 L-903824 326545 L-903769 326543 L-903632 326542 L-903552 326539 L-903439 326537 L-903215 326536 L-903051 326534 L-903010 326533 L-902841 326531 L-902470 326530 L-902455 326528 L-902339 326527 L-901618 326525 L-901582 326524 L-901449 326524 L-901101 326522 L-900690 326522 L-900654 326522 L-900575 326521 L-900537 326519 L-900173 326518 L-899968 326516 L-899953 326515 L-899608 326513 L-899259 326513 L-898933 326513 L-898832 326512 L-898679 326512 L-898485 326510 L-898253 326510 L-898160 326510 L-898005 326510 L-897928 326510 L-897887 326509 L-897773 326507 L-897750 326506 L-897499 326506 L-897361 326503 L-896783 326498 L-895955 326495 L-895467 326492 L-895345 326491 L-895307 326489 L-895294 326488 L-895142 326485 L-895041 326482 L-894808 326480 L-894418 326477 L-894113 326476 L-894098 326475 L-893927 326473 L-893688 326470 L-893092 326470 L-892488 326469 L-892449 326469 L-892408 326469 L-892255 326467 L-892202 326466 L-892139 326464 L-892071 326463 L-892017 326460 L-891991 326458 L-891945 326457 L-891850 326454 L-891713 326452 L-891560 326451 L-891428 326449 L-891387 326449 L-891351 326448 L-891289 326446 L-891016 326443 L-890701 326442 L-890661 326439 L-890576 326437 L-890398 326436 L-890161 326434 L-889803 326433 L-889773 326431 L-889204 326430 L-889081 326428 L-888845 326427 L-888822 326427 L-888541 326425 L-888256 326425 L-888000 326425 L-887428 326424 L-887132 326422 L-887055 326421 L-886356 326419 L-886279 326418 L-886244 326416 L-886217 326415 L-886166 326412 L-885972 326410 L-885832 326407 L-885796 326406 L-885756 326404 L-885160 326403 L-884928 326401 L-884644 326412 L-884590 326421 L-884516 326431 L-884438 326440 L-884202 326437 L-883958 326436 L-883822 326434 L-883716 326433 L-883636 326431 L-883249 326428 L-883122 326427 L-882969 326425 L-882932 326424 L-882786 326422 L-882564 326421 L-882391 326419 L-882322 326418 L-881500 326415 L-881484 326415 L-881189 326413 L-880402 326412 L-880092 326412 L-879945 326410 L-879717 326409 L-879516 326406 L-878580 326404 L-878543 326403 L-878520 326401 L-878479 326398 L-878211 326397 L-877614 326395 L-877551 326394 L-877515 326392 L-877498 326391 L-876803 326391 L-876602 326391 L-876570 326391 L-876236 326391 L-876129 326389 L-875504 326386 L-875000 326385 L-874963 326382 L-874520 326382 L-874424 326380 L-874265 326380 L-873952 326380 L-873940 326380 L-873500 326382 L-873018 326383 L-872889 326383 L-872569 326383 L-872500 326382 L-872196 326382 L-872020 326380 L-871827 326379 L-871584 326376 L-871386 326373 L-871361 326370 L-870782 326368 L-870713 326367 L-870303 326365 L-870249 326364 L-870202 326363 L-869838 326361 L-869692 326360 L-869487 326358 L-869391 326358 L-869235 326357 L-869174 326355 L-869026 326352 L-868926 326351 L-868369 326351 L-868346 326354 L-868174 326355 L-867633 326357 L-867572 326357 L-867518 326354 L-867489 326351 L-867418 326349 L-867402 326346 L-867338 326345 L-867302 326342 L-867147 326340 L-866821 326339 L-866255 326337 L-866241 326336 L-866179 326333 L-866077 326330 L-866031 326330 L-865788 326328 L-865366 326328 L-865211 326328 L-863470 326325 L-862928 326324 L-861985 326322 L-861575 326321 L-861034 326318 L-860838 326316 L-860669 326315 L-860373 326313 L-860259 326312 L-860244 326312 L-860089 326310 L-859949 326309 L-859872 326306 L-859741 326306 L-859393 326306 L-859022 326307 L-858424 326307 L-858248 326307 L-858092 326306 L-857823 326304 L-857672 326304 L-857380 326309 L-857357 326312 L-857274 326315 L-857046 326318 L-856347 326316 L-856220 326315 L-855789 326313 L-855695 326312 L-854490 326312 L-854441 326310 L-854147 326310 L-853744 326309 L-853468 326306 L-853449 326304 L-853331 326303 L-853255 326301 L-853073 326300 L-852593 326298 L-852142 326295 L-851732 326294 L-851701 326292 L-851283 326291 L-851169 326291 L-851051 326291 L-851036 326291 L-850841 326289 L-850820 326286 L-850587 326285 L-850144 326283 L-849825 326280 L-849360 326280 L-849195 326279 L-849040 326277 L-848884 326277 L-848430 326277 L-848111 326277 L-848056 326279 L-847685 326279 L-847648 326280 L-847321 326280 L-847204 326279 L-847106 326277 L-846780 326274 L-846393 326273 L-846132 326271 L-845774 326268 L-845517 326267 L-843347 326265 L-843297 326264 L-843275 326262 L-842864 326262 L-842802 326262 L-842732 326264 L-842501 326264 L-842190 326262 L-841887 326259 L-841843 326258 L-841535 326256 L-841402 326255 L-841185 326253 L-840473 326252 L-840318 326252 L-840179 326251 L-840031 326251 L-840010 326251 L-839815 326249 L-839790 326248 L-839699 326246 L-839677 326245 L-839661 326243 L-839560 326242 L-838632 326240 L-838174 326240 L-837082 326237 L-836659 326237 L-836256 326236 L-836217 326234 L-835963 326233 L-835189 326230 L-835173 326228 L-835148 326227 L-834955 326225 L-834219 326224 L-833950 326222 L-833909 326221 L-833510 326218 L-833485 326216 L-832696 326215 L-832016 326213 L-830645 326212 L-830375 326210 L-830326 326209 L-829789 326206 L-829756 326204 L-829654 326201 L-829330 326200 L-829251 326198 L-828982 326198 L-828069 326197 L-827931 326197 L-827682 326194 L-827136 326194 L-826714 326192 L-826521 326191 L-826506 326191 L-826368 326188 L-826274 326186 L-826147 326185 L-825887 326183 L-825862 326180 L-825771 326179 L-825460 326177 L-825400 326176 L-825283 326176 L-824933 326176 L-824123 326176 L-823891 326173 L-823062 326173 L-822830 326170 L-822614 326168 L-822095 326168 L-821457 326167 L-821041 326165 L-820719 326164 L-820238 326162 L-819812 326162 L-819751 326161 L-819403 326161 L-819362 326159 L-819348 326158 L-819249 326155 L-819203 326155 L-818718 326153 L-817917 326153 L-817582 326153 L-816501 326152 L-816021 326150 L-815998 326149 L-815858 326147 L-815302 326146 L-814605 326144 L-814296 326143 L-814075 326141 L-813970 326140 L-813867 326137 L-813196 326136 L-813102 326134 L-813080 326134 L-813003 326133 L-812825 326133 L-812653 326133 L-812472 326131 L-812459 326130 L-812383 326128 L-812218 326127 L-811703 326125 L-811687 326124 L-811547 326124 L-811184 326122 L-811160 326122 L-811030 326121 L-811005 326119 L-810643 326118 L-810117 326115 L-810024 326113 L-809808 326110 L-809714 326109 L-809690 326107 L-809226 326106 L-809148 326106 L-808747 326104 L-808296 326104 L-807044 326103 L-807006 326101 L-806574 326100 L-806541 326098 L-805822 326097 L-805646 326095 L-805510 326094 L-805204 326092 L-805149 326091 L-805124 326088 L-805108 326085 L-804933 326083 L-804743 326082 L-804236 326082 L-803862 326070 L-803524 326056 L-803485 326044 L-802766 326034 L-802673 326032 L-802634 326031 L-802092 326031 L-802069 326030 L-801667 326028 L-801241 326027 L-800970 326027 L-800790 326025 L-800544 326022 L-800521 326021 L-800465 326018 L-799848 326016 L-799345 326015 L-798958 326015 L-798339 326016 L-798123 326016 L-797968 326018 L-796675 326015 L-796576 326013 L-796134 326010 L-795803 326009 L-795502 326006 L-795260 326004 L-794525 326001 L-793946 326000 L-793116 325998 L-793016 325997 L-792458 325995 L-792320 325994 L-790678 325992 L-790617 325992 L-790524 325992 L-789557 325992 L-789379 325991 L-789092 325991 L-788874 325991 L-788796 325989 L-788525 325989 L-788409 325988 L-788256 325986 L-787946 325985 L-787868 325983 L-787777 325983 L-787699 325982 L-787583 325982 L-787404 325980 L-787312 325979 L-787274 325977 L-786771 325977 L-786552 325976 L-786423 325976 L-786268 325974 L-786213 325973 L-786088 325973 L-785704 325971 L-785195 325970 L-785123 325968 L-784643 325967 L-784566 325965 L-784465 325965 L-784232 325964 L-783767 325964 L-783537 325964 L-783521 325964 L-783289 325964 L-783134 325964 L-783072 325964 L-782879 325962 L-782608 325959 L-781857 325958 L-780904 325958 L-780868 325956 L-780643 325956 L-780203 325956 L-779922 325953 L-779574 325952 L-778505 325950 L-777577 325950 L-777446 325950 L-777400 325950 L-777330 325949 L-777176 325949 L-777098 325946 L-776925 325943 L-776490 325940 L-776286 325938 L-776225 325935 L-775643 325934 L-775489 325931 L-775373 325929 L-775332 325928 L-775163 325926 L-775026 325925 L-774815 325922 L-774738 325920 L-774715 325919 L-774506 325916 L-774096 325915 L-774071 325913 L-773848 325912 L-773703 325910 L-773668 325909 L-773655 325907 L-773632 325906 L-773399 325904 L-773213 325903 L-772996 325901 L-772971 325900 L-772282 325898 L-772178 325897 L-772143 325895 L-772122 325894 L-771928 325892 L-771875 325891 L-771758 325888 L-771676 325888 L-771565 325886 L-771251 325885 L-770791 325883 L-770536 325882 L-770302 325879 L-770172 325877 L-769820 325876 L-769760 325874 L-769608 325873 L-769036 325870 L-768949 325868 L-768796 325865 L-768500 325862 L-768130 325859 L-767827 325856 L-767750 325855 L-767345 325853 L-767177 325853 L-767033 325853 L-766493 325853 L-766432 325853 L-766417 325850 L-766251 325849 L-766045 325847 L-765970 325847 L-765877 325846 L-765467 325844 L-765452 325843 L-765428 325843 L-765235 325841 L-765158 325855 L-764988 325868 L-764926 325880 L-764910 325894 L-764396 325892 L-764174 325891 L-763555 325888 L-763302 325886 L-763108 325885 L-763069 325883 L-762995 325883 L-762930 325883 L-762279 325883 L-762241 325885 L-762066 325885 L-762001 325885 L-761327 325885 L-760938 325882 L-760676 325880 L-760438 325879 L-760360 325876 L-760345 325873 L-760143 325871 L-759772 325868 L-759546 325867 L-758911 325865 L-758891 325865 L-758504 325864 L-758410 325864 L-758352 325862 L-758076 325861 L-757767 325861 L-757689 325859 L-756838 325861 L-756495 325868 L-756058 325877 L-755625 325885 L-755130 325892 L-754980 325891 L-754712 325892 L-753474 325894 L-753417 325897 L-751653 325898 L-751463 325897 L-750453 325895 L-750302 325894 L-749926 325897 L-749605 325900 L-749000 325903 L-748930 325906 L-748753 325904 L-747924 325903 L-747786 325901 L-747399 325900 L-747215 325898 L-747171 325897 L-747051 325895 L-746841 325894 L-746394 325891 L-746046 325889 L-745913 325888 L-745504 325886 L-745154 325886 L-744869 325885 L-744675 325883 L-744521 325883 L-744357 325882 L-744289 325880 L-744189 325880 L-743955 325879 L-743839 325879 L-743786 325877 L-743244 325877 L-742779 325876 L-741597 325876 L-741464 325876 L-741440 325876 L-741387 325876 L-740719 325876 L-739684 325873 L-739491 325871 L-739311 325870 L-739159 325870 L-739119 325868 L-739104 325868 L-739042 325867 L-738717 325865 L-737557 325864 L-737363 325862 L-737186 325861 L-736072 325859 L-735212 325858 L-735106 325858 L-734632 325856 L-734440 325856 L-732118 325855 L-732040 325853 L-731919 325850 L-731885 325849 L-731847 325846 L-731753 325841 L-731537 325838 L-730956 325835 L-730570 325834 L-729797 325832 L-729719 325831 L-729021 325831 L-728480 325831 L-728439 325829 L-728309 325829 L-727845 325828 L-727806 325826 L-727672 325825 L-727304 325823 L-727274 325822 L-727124 325822 L-726723 325820 L-724899 325822 L-724092 325820 L-723374 325820 L-723357 325820 L-723043 325817 L-722482 325816 L-721980 325814 L-721461 325813 L-721440 325811 L-719696 325810 L-719527 325808 L-719331 325807 L-718437 325806 L-717919 325803 L-717708 325801 L-717450 325800 L-716741 325798 L-715790 325797 L-715132 325795 L-715093 325792 L-714806 325791 L-714724 325789 L-714629 325789 L-714497 325788 L-714420 325788 L-713684 325788 L-713347 325786 L-713298 325788 L-713042 325788 L-712756 325786 L-712330 325786 L-711750 325785 L-711491 325785 L-711339 325783 L-711092 325783 L-711054 325783 L-710257 325782 L-710219 325780 L-710042 325780 L-709632 325777 L-709404 325777 L-709328 325777 L-709196 325777 L-709080 325776 L-708732 325774 L-708669 325773 L-708516 325771 L-707775 325770 L-707664 325768 L-707494 325767 L-707455 325765 L-707160 325765 L-706759 325765 L-706583 325765 L-706488 325765 L-706179 325764 L-705377 325762 L-704919 325759 L-704399 325758 L-703910 325756 L-703215 325755 L-702168 325753 L-701899 325753 L-701845 325752 L-701685 325752 L-701433 325752 L-701187 325750 L-701108 325749 L-700894 325746 L-700582 325744 L-700118 325741 L-700104 325740 L-699808 325740 L-699794 325738 L-698803 325737 L-698131 325735 L-697796 325732 L-697180 325732 L-697043 325731 L-696404 325729 L-696274 325728 L-695323 325725 L-695224 325722 L-694664 325720 L-694255 325720 L-693827 325720 L-693736 325719 L-692901 325719 L-692538 325719 L-692498 325720 L-692366 325722 L-692189 325722 L-691972 325722 L-691919 325720 L-691762 325717 L-691509 325716 L-690409 325714 L-690331 325713 L-690112 325711 L-689981 325708 L-689945 325707 L-689751 325705 L-689652 325704 L-689168 325702 L-688884 325701 L-688723 325699 L-688629 325696 L-688357 325695 L-688087 325694 L-688071 325688 L-687933 325683 L-687794 325679 L-687468 325673 L-687159 325670 L-687118 325668 L-687042 325665 L-686927 325664 L-686076 325661 L-685750 325659 L-685419 325658 L-685286 325658 L-685070 325658 L-685053 325658 L-684373 325658 L-684280 325655 L-684256 325653 L-684241 325650 L-684202 325649 L-683790 325646 L-683521 325644 L-683481 325643 L-683113 325643 L-682903 325641 L-681820 325641 L-681804 325640 L-681775 325638 L-681755 325638 L-681378 325635 L-681123 325634 L-680875 325631 L-680735 325628 L-680603 325626 L-680271 325625 L-680179 325623 L-680118 325622 L-679560 325620 L-679498 325619 L-679343 325617 L-679148 325616 L-678956 325614 L-678940 325613 L-678902 325611 L-678863 325610 L-678592 325608 L-678469 325607 L-678437 325605 L-678337 325605 L-678182 325605 L-678040 325605 L-677756 325604 L-677431 325604 L-676735 325602 L-676712 325602 L-676203 325602 L-675357 325602 L-674994 325601 L-674839 325599 L-674235 325599 L-674065 325599 L-674004 325599 L-673949 325598 L-672894 325596 L-672875 325596 L-671969 325596 L-671948 325596 L-671781 325595 L-671539 325595 L-671489 325593 L-671434 325590 L-671296 325589 L-671257 325587 L-670329 325586 L-670274 325586 L-670152 325586 L-670080 325586 L-669964 325586 L-669786 325587 L-668803 325586 L-668664 325586 L-668546 325583 L-668252 325580 L-668004 325579 L-667968 325577 L-667913 325579 L-667892 325579 L-667759 325579 L-667679 325579 L-667542 325577 L-666919 325577 L-666752 325576 L-666288 325576 L-666112 325573 L-666095 325571 L-666035 325570 L-665918 325568 L-665436 325567 L-664740 325565 L-664367 325564 L-664198 325562 L-663232 325561 L-663077 325559 L-662899 325559 L-662807 325558 L-662551 325558 L-662381 325558 L-661734 325556 L-661723 325556 L-661143 325555 L-661004 325555 L-660949 325552 L-660214 325550 L-660175 325549 L-660098 325549 L-659456 325547 L-658682 325547 L-658589 325546 L-658540 325546 L-658525 325544 L-658489 325544 L-658473 325541 L-658410 325540 L-658394 325538 L-658374 325538 L-658219 325537 L-658180 325535 L-658164 325534 L-658125 325532 L-657985 325531 L-657909 325529 L-657544 325528 L-657196 325526 L-656423 325525 L-655820 325523 L-655624 325522 L-655394 325522 L-655256 325520 L-654618 325520 L-654329 325519 L-654307 325519 L-653847 325517 L-653614 325517 L-653559 325516 L-653521 325514 L-653018 325513 L-652468 325511 L-651680 325510 L-650557 325510 L-649662 325508 L-649574 325508 L-649275 325507 L-649203 325505 L-649087 325504 L-647911 325502 L-647562 325501 L-647540 325499 L-647021 325498 L-646874 325496 L-646766 325495 L-646556 325493 L-646402 325492 L-646379 325490 L-646185 325489 L-646108 325487 L-645965 325486 L-645164 325484 L-645018 325483 L-644738 325481 L-644561 325480 L-644251 325478 L-643439 325477 L-642511 325477 L-640919 325475 L-640676 325474 L-640035 325472 L-639839 325471 L-639761 325470 L-639244 325468 L-639012 325468 L-638989 325467 L-638857 325467 L-638518 325465 L-638507 325464 L-638290 325462 L-638253 325461 L-637712 325459 L-637183 325456 L-637115 325455 L-636822 325453 L-636275 325450 L-636239 325449 L-636187 325447 L-636087 325444 L-635855 325444 L-635275 325444 L-635177 325446 L-635103 325446 L-634771 325444 L-634021 325443 L-633982 325441 L-633302 325441 L-633147 325441 L-632821 325440 L-632605 325438 L-632374 325438 L-632077 325437 L-631831 325435 L-631480 325434 L-631427 325432 L-630667 325431 L-629974 325428 L-629624 325425 L-629160 325423 L-628526 325422 L-628118 325420 L-628040 325422 L-627614 325422 L-626971 325420 L-626802 325420 L-626060 325419 L-625873 325417 L-625577 325416 L-625006 325414 L-624980 325413 L-623961 325413 L-623474 325411 L-623381 325411 L-623320 325410 L-623032 325408 L-622746 325407 L-622684 325405 L-622504 325405 L-621793 325404 L-621617 325402 L-621419 325401 L-621267 325399 L-621175 325398 L-621114 325396 L-620572 325396 L-620261 325395 L-620169 325392 L-620092 325389 L-619525 325387 L-619434 325387 L-619179 325384 L-618852 325381 L-618815 325377 L-618661 325372 L-618428 325371 L-618106 325369 L-616974 325368 L-616775 325366 L-616249 325365 L-616004 325365 L-615759 325363 L-615679 325362 L-615659 325359 L-615582 325358 L-615526 325355 L-615449 325353 L-615410 325352 L-615231 325349 L-615194 325347 L-614963 325346 L-613725 325344 L-613398 325343 L-613359 325340 L-612577 325338 L-612430 325337 L-611439 325335 L-611232 325335 L-610806 325335 L-610679 325335 L-610275 325337 L-610187 325335 L-609530 325334 L-608822 325332 L-608214 325331 L-608021 325329 L-607788 325326 L-607169 325325 L-606874 325322 L-606434 325320 L-606280 325319 L-606125 325317 L-605369 325314 L-605018 325313 L-604616 325313 L-604577 325311 L-603571 325311 L-603252 325311 L-603005 325310 L-602305 325307 L-602231 325305 L-601919 325304 L-600839 325302 L-600647 325301 L-600414 325301 L-600219 325299 L-599719 325298 L-598965 325298 L-598851 325298 L-598651 325298 L-598610 325296 L-598517 325295 L-598204 325293 L-598116 325292 L-598000 325290 L-597682 325290 L-597613 325289 L-597588 325287 L-597226 325286 L-597187 325284 L-596971 325283 L-596468 325284 L-595865 325286 L-595654 325289 L-595501 325290 L-595463 325290 L-595419 325287 L-595384 325286 L-595251 325284 L-594842 325283 L-594471 325281 L-594418 325280 L-594402 325278 L-594323 325277 L-593913 325275 L-593760 325274 L-593744 325271 L-593705 325269 L-593526 325266 L-593450 325265 L-593218 325263 L-592429 325262 L-592351 325262 L-591616 325259 L-591460 325257 L-591221 325254 L-591159 325251 L-591074 325250 L-591051 325247 L-590933 325244 L-590919 325241 L-590857 325238 L-590820 325237 L-590725 325235 L-590703 325235 L-590587 325234 L-590354 325232 L-590184 325229 L-589364 325229 L-588963 325228 L-588808 325228 L-588303 325228 L-588189 325228 L-587592 325228 L-587218 325226 L-587166 325226 L-586972 325225 L-586276 325225 L-586237 325223 L-586093 325223 L-585867 325222 L-585606 325220 L-585232 325219 L-584806 325217 L-584677 325216 L-584657 325213 L-584164 325213 L-583467 325211 L-583236 325213 L-583082 325213 L-582113 325213 L-581889 325214 L-581611 325214 L-581595 325213 L-581069 325211 L-580540 325210 L-580392 325208 L-580373 325207 L-579831 325205 L-579521 325204 L-579403 325201 L-579212 325198 L-579075 325195 L-578748 325193 L-578631 325192 L-578322 325192 L-577896 325190 L-577840 325190 L-577607 325192 L-577511 325192 L-577378 325192 L-577081 325192 L-576967 325190 L-576603 325189 L-576290 325189 L-575807 325187 L-575637 325186 L-575389 325184 L-575173 325183 L-574647 325181 L-574460 325178 L-574105 325177 L-573470 325175 L-573315 325172 L-572574 325171 L-572155 325169 L-571975 325168 L-571898 325168 L-571767 325166 L-571474 325165 L-571433 325163 L-571203 325163 L-571010 325162 L-570755 325162 L-570329 325160 L-570220 325159 L-569601 325159 L-569420 325159 L-568208 325159 L-567561 325160 L-567410 325160 L-567373 325160 L-567241 325160 L-567140 325159 L-567124 325157 L-567042 325156 L-566831 325154 L-566714 325153 L-566351 325151 L-565979 325150 L-565283 325148 L-564880 325147 L-564776 325145 L-564758 325144 L-563813 325142 L-563618 325139 L-563466 325138 L-563410 325135 L-562654 325135 L-562637 325138 L-562148 325139 L-562018 325142 L-561825 325142 L-560934 325141 L-560895 325139 L-560857 325138 L-560780 325136 L-560741 325136 L-560664 325135 L-560580 325134 L-560316 325132 L-560083 325131 L-560021 325129 L-559541 325128 L-559204 325128 L-559093 325126 L-558899 325125 L-558723 325123 L-558664 325123 L-558628 325122 L-558358 325120 L-557660 325117 L-557607 325114 L-557313 325111 L-556911 325108 L-556347 325107 L-555473 325105 L-555169 325104 L-555131 325102 L-555008 325101 L-554410 325099 L-554280 325098 L-554080 325096 L-554042 325095 L-553429 325093 L-553250 325092 L-553235 325089 L-553017 325087 L-552939 325084 L-552632 325084 L-552500 325083 L-552268 325083 L-551933 325083 L-551842 325081 L-551741 325080 L-551704 325078 L-551160 325078 L-550968 325077 L-550427 325075 L-550001 325074 L-549869 325074 L-549807 325074 L-549576 325074 L-549560 325074 L-549072 325075 L-548991 325075 L-548973 325075 L-547580 325077 L-547445 325077 L-547331 325075 L-546696 325074 L-546557 325072 L-546439 325071 L-546285 325068 L-546248 325066 L-546170 325065 L-546116 325066 L-545124 325066 L-545087 325065 L-544954 325065 L-544894 325062 L-544795 325060 L-544505 325059 L-544491 325057 L-544181 325057 L-544081 325059 L-543616 325057 L-543562 325216 L-543420 325372 L-543292 325531 L-543060 325689 L-542491 325688 L-542402 325686 L-542379 325686 L-542092 325685 L-541410 325683 L-541332 325682 L-541296 325680 L-541280 325679 L-541080 325677 L-540660 325674 L-540389 325674 L-539516 325673 L-539223 325673 L-539112 325673 L-538378 325671 L-538251 325670 L-537891 325668 L-537639 325668 L-536767 325667 L-536598 325667 L-536537 325665 L-536482 325664 L-536134 325662 L-536111 325661 L-535902 325659 L-535761 325658 L-535631 325656 L-535508 325655 L-535385 325653 L-535148 325652 L-534857 325650 L-534198 325649 L-534176 325647 L-534021 325646 L-533904 325644 L-532940 325643 L-532884 325641 L-532651 325640 L-532629 325638 L-532303 325637 L-532187 325637 L-532148 325635 L-531646 325635 L-531347 325634 L-531235 325632 L-530693 325631 L-529634 325629 L-529008 325628 L-528836 325626 L-528588 325625 L-528332 325623 L-528201 325622 L-528180 325620 L-527512 325619 L-526616 325617 L-526570 325616 L-526500 325614 L-526384 325614 L-526164 325613 L-525973 325613 L-525933 325611 L-525741 325610 L-525082 325610 L-524465 325608 L-524426 325617 L-523830 325626 L-523768 325634 L-522646 325641 L-522591 325641 L-522470 325640 L-522205 325638 L-522141 325638 L-521872 325638 L-521796 325637 L-521580 325637 L-521097 325635 L-520827 325634 L-520696 325634 L-520464 325631 L-520439 325626 L-520424 325620 L-520401 325613 L-520386 325605 L-520362 325598 L-520348 325589 L-520324 325580 L-520309 325571 L-520286 325564 L-520271 325556 L-520248 325549 L-520232 325544 L-520204 325540 L-520186 325534 L-520168 325531 L-520132 325526 L-520092 325523 L-520077 325520 L-520052 325516 L-520000 325513 L-519975 325510 L-519898 325507 L-519861 325505 L-519845 325502 L-519782 325499 L-519768 325496 L-519722 325492 L-519651 325489 L-519612 325487 L-519588 325484 L-519536 325481 L-519511 325480 L-519495 325478 L-519433 325477 L-519396 325475 L-519319 325474 L-519304 325472 L-519276 325470 L-519203 325468 L-519163 325467 L-519010 325464 L-518894 325462 L-518839 325461 L-518757 325459 L-518723 325458 L-518699 325456 L-518545 325455 L-518530 325453 L-518428 325452 L-518118 325450 L-518081 325449 L-517866 325447 L-517755 325447 L-517730 325447 L-517500 325449 L-517268 325449 L-516893 325447 L-516765 325446 L-516725 325444 L-516673 325443 L-516572 325441 L-516535 325440 L-516324 325440 L-516260 325438 L-516147 325438 L-515936 325437 L-515899 325435 L-515527 325434 L-515473 325432 L-515395 325431 L-515373 325429 L-515280 325428 L-515080 325426 L-515042 325426 L-515020 325426 L-514790 325426 L-514770 325425 L-514560 325425 L-514465 325423 L-514428 325422 L-514092 325420 L-513979 325419 L-513939 325417 L-513925 325417 L-513786 325416 L-513771 325416 L-513516 325416 L-512933 325414 L-512857 325413 L-512819 325411 L-512775 325410 L-512726 325408 L-512546 325407 L-512532 325405 L-512432 325404 L-512354 325402 L-512294 325401 L-511928 325398 L-511846 325396 L-511828 325395 L-511775 325393 L-510806 325392 L-510675 325390 L-510653 325389 L-510433 325387 L-510364 325386 L-510342 325384 L-510095 325383 L-509839 325381 L-509708 325380 L-509669 325378 L-509647 325375 L-509592 325372 L-509504 325371 L-509443 325368 L-509218 325366 L-509088 325365 L-508989 325363 L-508934 325362 L-508741 325360 L-508663 325359 L-508330 325358 L-508199 325356 L-508021 325355 L-508006 325353 L-507981 325352 L-507711 325352 L-506510 325350 L-506474 325350 L-506357 325349 L-506124 325347 L-505933 325346 L-505894 325346 L-505838 325344 L-505734 325344 L-505220 325343 L-504926 325341 L-504694 325340 L-504419 325338 L-504402 325337 L-504369 325335 L-504329 325334 L-504292 325332 L-504190 325331 L-504113 325329 L-504020 325328 L-503893 325326 L-503789 325325 L-503610 325325 L-503418 325323 L-502589 325323 L-502473 325322 L-502218 325320 L-502178 325319 L-502079 325317 L-502019 325317 L-501776 325316 L-501753 325316 L-501632 325314 L-501560 325313 L-501521 325311 L-501289 325310 L-501113 325308 L-500593 325307 L-500516 325305 L-500500 325304 L-500089 325304 L-499726 325304 L-499610 325302 L-499587 325302 L-499547 325301 L-499470 325299 L-499417 325298 L-499068 325296 L-498952 325295 L-498775 325295 L-498719 325293 L-498696 325293 L-498582 325292 L-498294 325290 L-498062 325289 L-497847 325287 L-497637 325286 L-497426 325283 L-496600 325281 L-496260 325280 L-495253 325278 L-494890 325277 L-493844 325275 L-493767 325274 L-493320 325272 L-493108 325271 L-492917 325269 L-492622 325268 L-492581 325266 L-492428 325265 L-492375 325262 L-492143 325260 L-491562 325259 L-491368 325257 L-490749 325257 L-490260 325256 L-490208 325254 L-489560 325253 L-489410 325251 L-489240 325250 L-488867 325248 L-488852 325248 L-488753 325247 L-488714 325247 L-488583 325246 L-488150 325246 L-487847 325246 L-487461 325246 L-487321 325244 L-487160 325244 L-486726 325244 L-486687 325243 L-486586 325243 L-486471 325241 L-486293 325241 L-486122 325240 L-486004 325238 L-485643 325235 L-485425 325234 L-485293 325232 L-485153 325232 L-484654 325232 L-484576 325232 L-484342 325231 L-484018 325231 L-483631 325229 L-483608 325228 L-482988 325228 L-482718 325226 L-482485 325226 L-482060 325225 L-481788 325223 L-481647 325222 L-481438 325220 L-481232 325219 L-480681 325217 L-480550 325217 L-480163 325216 L-479893 325216 L-479790 325214 L-479530 325213 L-479328 325211 L-479259 325210 L-479220 325208 L-478653 325207 L-478446 325205 L-478419 325204 L-478190 325202 L-478112 325201 L-477595 325199 L-477557 325198 L-477401 325196 L-477108 325195 L-476836 325193 L-476473 325192 L-476124 325192 L-475752 325190 L-475632 325190 L-475560 325189 L-475080 325187 L-475018 325186 L-474683 325184 L-474552 325183 L-474474 325181 L-474345 325180 L-473881 325180 L-473587 325178 L-473511 325178 L-473199 325177 L-472891 325175 L-472827 325174 L-472798 325172 L-472023 325171 L-471918 325168 L-471830 325166 L-471807 325165 L-471653 325163 L-471432 325162 L-471265 325160 L-470878 325159 L-470823 325157 L-470760 325157 L-470142 325156 L-470026 325154 L-469702 325153 L-469177 325151 L-468826 325150 L-468750 325148 L-468131 325147 L-467720 325145 L-467419 325144 L-467108 325142 L-466970 325141 L-466346 325141 L-465964 325139 L-464841 325139 L-463780 325138 L-463718 325136 L-463357 325135 L-463256 325135 L-463240 325134 L-462866 325134 L-461861 325131 L-461474 325129 L-461267 325126 L-461178 325125 L-460802 325123 L-460510 325122 L-460198 325120 L-459409 325119 L-459322 325117 L-459269 325116 L-459231 325114 L-458713 325113 L-458598 325111 L-458389 325110 L-458250 325108 L-457646 325107 L-456817 325105 L-456534 325104 L-456352 325104 L-455850 325102 L-455645 325102 L-455091 325102 L-454586 325101 L-454395 325099 L-454356 325098 L-453727 325096 L-453274 325095 L-452860 325093 L-452251 325092 L-451131 325092 L-450717 325090 L-450393 325090 L-450178 325089 L-449752 325087 L-449611 325086 L-449520 325084 L-449289 325083 L-448702 325083 L-447894 325081 L-446695 325081 L-446581 325081 L-446449 325080 L-446361 325078 L-446319 325080 L-446299 325081 L-446288 325084 L-446193 325087 L-445430 325087 L-444724 325087 L-444684 325086 L-444398 325084 L-443857 325083 L-443796 325081 L-443756 325080 L-443741 325078 L-443484 325077 L-443160 325075 L-443020 325074 L-442750 325072 L-442711 325071 L-442604 325069 L-442202 325068 L-442093 325066 L-442015 325065 L-441718 325063 L-441675 325062 L-441457 325062 L-441274 325062 L-441163 325062 L-441149 325060 L-441122 325060 L-440698 325059 L-440452 325057 L-440116 325056 L-440081 325054 L-439947 325053 L-439693 325053 L-439539 325051 L-438632 325051 L-438533 325050 L-438338 325047 L-437331 325045 L-436830 325044 L-436752 325042 L-436714 325041 L-436506 325039 L-436387 325038 L-436289 325036 L-436103 325035 L-435938 325033 L-435702 325032 L-435282 325030 L-435267 325029 L-434958 325027 L-433912 325026 L-433695 325024 L-433679 325023 L-433657 325022 L-433448 325020 L-433289 325019 L-433231 325017 L-431786 325016 L-431460 325016 L-431258 325016 L-431059 325016 L-430909 325016 L-430638 325014 L-430198 325013 L-429980 325013 L-429285 325011 L-428783 325010 L-428458 325008 L-428187 325008 L-427466 325007 L-427311 325007 L-426113 325004 L-425724 325002 L-425608 324999 L-425455 324998 L-425301 324996 L-424331 324995 L-424279 324993 L-424031 324992 L-424009 324990 L-423789 324989 L-423351 324986 L-423211 324983 L-423104 324980 L-422902 324978 L-422784 324977 L-422682 324975 L-422668 324975 L-422535 324974 L-422281 324972 L-421663 324971 L-421004 324969 L-420758 324969 L-420565 324968 L-419806 324968 L-419767 324968 L-419689 324966 L-419637 324963 L-419597 324962 L-419559 324960 L-419520 324959 L-419429 324957 L-419385 324956 L-419326 324953 L-419302 324951 L-419187 324950 L-418878 324947 L-418823 324945 L-418801 324944 L-418459 324942 L-418294 324941 L-418258 324938 L-418218 324936 L-418203 324935 L-417971 324933 L-417831 324932 L-417663 324930 L-417213 324930 L-416980 324930 L-416887 324930 L-416867 324932 L-416386 324930 L-416309 324930 L-416182 324929 L-416052 324926 L-415673 324924 L-415432 324921 L-415394 324920 L-415341 324918 L-415203 324915 L-415163 324914 L-415123 324912 L-414893 324911 L-414853 324910 L-414723 324908 L-414544 324907 L-414503 324905 L-414489 324904 L-414325 324902 L-414310 324901 L-414157 324899 L-414142 324898 L-414116 324896 L-414082 324895 L-413860 324892 L-413637 324892 L-413383 324890 L-413251 324892 L-412609 324892 L-412002 324890 L-410982 324890 L-410789 324889 L-410738 324887 L-410613 324886 L-410288 324884 L-409516 324883 L-409458 324881 L-409344 324880 L-408932 324878 L-408607 324877 L-408469 324875 L-408245 324874 L-407719 324872 L-407318 324872 L-407286 324871 L-407000 324871 L-406714 324869 L-406326 324868 L-406110 324866 L-405683 324863 L-405501 324862 L-405165 324860 L-405058 324859 L-404872 324859 L-404755 324857 L-404741 324857 L-404020 324856 L-403850 324854 L-403602 324853 L-403502 324851 L-402860 324850 L-402571 324848 L-402381 324847 L-402106 324845 L-401789 324844 L-401504 324842 L-401390 324839 L-401345 324838 L-401143 324836 L-399534 324835 L-399322 324833 L-398641 324832 L-398559 324830 L-398330 324829 L-398140 324829 L-398001 324827 L-397983 324827 L-397789 324827 L-397559 324827 L-397367 324827 L-396283 324826 L-396087 324826 L-396035 324826 L-395881 324826 L-395773 324826 L-395607 324826 L-395454 324824 L-395339 324823 L-395215 324820 L-394798 324818 L-394541 324815 L-394448 324814 L-394255 324814 L-394194 324812 L-393868 324812 L-393807 324812 L-393750 324811 L-393481 324809 L-393133 324808 L-392954 324806 L-392760 324805 L-392724 324806 L-392011 324806 L-391972 324809 L-391662 324811 L-391365 324812 L-391315 324814 L-391059 324815 L-390789 324817 L-390733 324817 L-389642 324817 L-389612 324815 L-389571 324815 L-389395 324815 L-389202 324814 L-388344 324814 L-387291 324812 L-387230 324811 L-386881 324809 L-386068 324809 L-385255 324809 L-385240 324809 L-384865 324809 L-384696 324809 L-384428 324809 L-384100 324808 L-383978 324806 L-383922 324806 L-383886 324805 L-383809 324805 L-383592 324803 L-383533 324802 L-383217 324801 L-383050 324799 L-382686 324799 L-382493 324799 L-382469 324799 L-382392 324798 L-381911 324798 L-381774 324798 L-381360 324796 L-381061 324796 L-380962 324795 L-380946 324793 L-380917 324792 L-380558 324790 L-380208 324789 L-380071 324787 L-380034 324787 L-379217 324786 L-379011 324784 L-378987 324783 L-378830 324783 L-378741 324781 L-378499 324781 L-378175 324780 L-378083 324780 L-377887 324778 L-377601 324778 L-376845 324777 L-376716 324775 L-376642 324774 L-376029 324772 L-375854 324771 L-375743 324769 L-375643 324768 L-375564 324766 L-375427 324765 L-375273 324765 L-375194 324765 L-375003 324765 L-374330 324765 L-374291 324763 L-374189 324762 L-373245 324760 L-373224 324759 L-372872 324757 L-372408 324756 L-372372 324754 L-371943 324753 L-371891 324753 L-371480 324751 L-371463 324751 L-371367 324751 L-371312 324751 L-371273 324751 L-370978 324750 L-369240 324748 L-367730 324747 L-367222 324745 L-366724 324744 L-366590 324742 L-366500 324741 L-366372 324739 L-366293 324736 L-365988 324735 L-365717 324733 L-365483 324733 L-364284 324732 L-364179 324732 L-364114 324730 L-363272 324729 L-363086 324727 L-362175 324726 L-361306 324723 L-361018 324721 L-360926 324718 L-360377 324717 L-359857 324715 L-358789 324714 L-358520 324712 L-358366 324712 L-358273 324712 L-358143 324714 L-358096 324715 L-357936 324715 L-357070 324715 L-356736 324715 L-356352 324714 L-355600 324712 L-355540 324711 L-355151 324711 L-354829 324711 L-354672 324709 L-353940 324709 L-353878 324709 L-353590 324709 L-353216 324709 L-353035 324709 L-352779 324708 L-352518 324705 L-352365 324703 L-351962 324702 L-350665 324700 L-350549 324699 L-350086 324697 L-348754 324696 L-348329 324694 L-348305 324693 L-348172 324691 L-347997 324690 L-347863 324690 L-347533 324689 L-347146 324687 L-347106 324686 L-347090 324683 L-346700 324681 L-346408 324680 L-346139 324680 L-345966 324680 L-344473 324680 L-344422 324678 L-344344 324680 L-343104 324681 L-343029 324681 L-343002 324684 L-342756 324683 L-342598 324683 L-342540 324681 L-341652 324681 L-341424 324680 L-340900 324680 L-340759 324681 L-340683 324681 L-339987 324683 L-339739 324683 L-339059 324681 L-339041 324681 L-338787 324680 L-338420 324680 L-338284 324678 L-337662 324675 L-337319 324674 L-337271 324672 L-336784 324671 L-336450 324668 L-336233 324668 L-336099 324666 L-335778 324665 L-335713 324665 L-335461 324663 L-335172 324662 L-334862 324660 L-334722 324659 L-334183 324657 L-333907 324656 L-333178 324654 L-333124 324654 L-333017 324654 L-332751 324654 L-332327 324654 L-332063 324653 L-331843 324651 L-331822 324650 L-331591 324648 L-331304 324647 L-331281 324647 L-331266 324645 L-330894 324645 L-330722 324644 L-330646 324641 L-330585 324639 L-330284 324636 L-330043 324633 L-329951 324632 L-329694 324630 L-329641 324629 L-329445 324627 L-329229 324629 L-328806 324629 L-328713 324630 L-328573 324629 L-327708 324627 L-327335 324626 L-327007 324623 L-326855 324621 L-326427 324621 L-325710 324620 L-325515 324620 L-325160 324618 L-325014 324617 L-324507 324614 L-324271 324612 L-323304 324611 L-323294 324609 L-322229 324608 L-321996 324606 L-321594 324605 L-321400 324603 L-321320 324602 L-321224 324600 L-320487 324600 L-320355 324600 L-319965 324600 L-319943 324599 L-319848 324599 L-319713 324597 L-319695 324596 L-319675 324594 L-317990 324593 L-317972 324593 L-317855 324591 L-317771 324591 L-317646 324591 L-317622 324590 L-317338 324588 L-317232 324587 L-317043 324584 L-316773 324582 L-316101 324581 L-315729 324579 L-314877 324579 L-314820 324578 L-314800 324578 L-314567 324578 L-314292 324577 L-313987 324577 L-313947 324574 L-313716 324574 L-313479 324572 L-312866 324571 L-312825 324569 L-312788 324566 L-312266 324565 L-312075 324563 L-312014 324562 L-311972 324560 L-311649 324560 L-311621 324559 L-311607 324559 L-311122 324557 L-311068 324556 L-310930 324554 L-310892 324553 L-310875 324551 L-310780 324550 L-310115 324550 L-309499 324548 L-309229 324548 L-308821 324548 L-308801 324547 L-308785 324547 L-308672 324545 L-308285 324544 L-307818 324544 L-307757 324542 L-307679 324541 L-307664 324539 L-307178 324536 L-307138 324535 L-306993 324535 L-306943 324533 L-306865 324535 L-306232 324533 L-306142 324533 L-305901 324533 L-305784 324532 L-305456 324532 L-304702 324530 L-304685 324530 L-303734 324530 L-303424 324529 L-302999 324527 L-302286 324526 L-301967 324524 L-301952 324523 L-301801 324520 L-301498 324518 L-301420 324517 L-301293 324515 L-300856 324515 L-300795 324515 L-300272 324515 L-300004 324515 L-299866 324514 L-299788 324512 L-299749 324511 L-298938 324511 L-298897 324511 L-298457 324511 L-298379 324511 L-298121 324509 L-297931 324508 L-297302 324506 L-297115 324505 L-297080 324502 L-296924 324500 L-296523 324497 L-296446 324496 L-296265 324494 L-296074 324493 L-295145 324490 L-294995 324488 L-293787 324487 L-292978 324485 L-292574 324484 L-291972 324482 L-291770 324481 L-291701 324479 L-291543 324478 L-291281 324476 L-290908 325814 L-290890 325813 L-290733 325813 L-289535 325813 L-288431 324473 L-287503 324472 L-287389 324470 L-287104 324469 L-287002 324467 L-286978 324467 L-286788 324465 L-286710 324463 L-286514 324463 L-285803 324463 L-285645 324465 L-284588 324465 L-284163 324465 L-283753 324463 L-283466 324460 L-283292 324459 L-283060 324457 L-282806 324456 L-282364 324454 L-281703 324453 L-281527 324451 L-281222 324450 L-280835 324448 L-280815 324447 L-280796 324445 L-280775 324444 L-280641 324442 L-280448 324441 L-278805 324439 L-277508 324438 L-277469 324436 L-277411 324435 L-277310 324433 L-276751 324432 L-275767 324430 L-275224 324427 L-274761 324426 L-274115 324424 L-273566 324423 L-272516 324421 L-271588 324420 L-271240 324418 L-271046 324417 L-270544 324415 L-270098 324415 L-269956 324414 L-269935 324414 L-269364 324414 L-268978 324411 L-268145 324409 L-267796 324408 L-267774 324406 L-267387 324406 L-266964 324405 L-266365 324403 L-266346 324402 L-265840 324402 L-265608 324400 L-265495 324400 L-264876 324397 L-264314 324396 L-264274 324394 L-263715 324393 L-263382 324391 L-263270 324391 L-263231 324390 L-262806 324390 L-262746 324390 L-262671 324388 L-262380 324388 L-262167 324387 L-261684 324384 L-261469 324382 L-260329 324381 L-260270 324379 L-260252 324378 L-259846 324376 L-259207 324375 L-259072 324373 L-259014 324372 L-258472 324370 L-258163 324369 L-257912 324369 L-257836 324367 L-257717 324366 L-256983 324363 L-256538 324361 L-256324 324360 L-255590 324358 L-255416 324357 L-255050 324357 L-254835 324357 L-253597 324357 L-253288 324357 L-253171 324357 L-252918 324355 L-252707 324354 L-252165 324353 L-251933 324351 L-251876 324351 L-251779 324350 L-251449 324350 L-251217 324348 L-249555 324347 L-249204 324345 L-248800 324342 L-248645 324341 L-247852 324339 L-246362 324338 L-245975 324336 L-245936 324335 L-245683 324333 L-245588 324332 L-245395 324330 L-245046 324330 L-244350 324329 L-244099 324329 L-243383 324327 L-241971 324326 L-241739 324324 L-241409 324324 L-240193 324324 L-239841 324326 L-239649 324327 L-239531 324329 L-237096 324329 L-236127 324327 L-235296 324326 L-234987 324324 L-233645 324323 L-233072 324321 L-232956 324320 L-232627 324320 L-232531 324318 L-232123 324318 L-232008 324317 L-231817 324315 L-231061 324314 L-230935 324312 L-230654 324311 L-230151 324309 L-230074 324308 L-228487 324315 L-228429 324323 L-227687 324332 L-227307 324339 L-226978 324338 L-226315 324336 L-226185 324335 L-226145 324335 L-225895 324335 L-225759 324335 L-225566 324333 L-225431 324333 L-225179 324330 L-224967 324330 L-224657 324329 L-224385 324329 L-223883 324329 L-223864 324329 L-223430 324327 L-223204 324326 L-222761 324324 L-222742 324323 L-222239 324321 L-222101 324320 L-221987 324318 L-221755 324317 L-221445 324315 L-220980 324314 L-220903 324312 L-220401 324311 L-220130 324309 L-219792 324308 L-219607 324306 L-218931 324305 L-218912 324305 L-218737 324303 L-218717 324302 L-218099 324300 L-217383 324299 L-216821 324297 L-216626 324297 L-216473 324296 L-216454 324296 L-215931 324293 L-215816 324291 L-214945 324290 L-214924 324288 L-214867 324287 L-214036 324285 L-213726 324284 L-213650 324282 L-213378 324281 L-213315 324281 L-213264 324278 L-212953 324275 L-212336 324272 L-211561 324270 L-210767 324269 L-210728 324267 L-210651 324266 L-210479 324264 L-209601 324263 L-208716 324261 L-208621 324260 L-208502 324258 L-208172 324257 L-208136 324257 L-207904 324255 L-207670 324255 L-206955 324252 L-206453 324251 L-205788 324249 L-205679 324248 L-205525 324246 L-205505 324245 L-205350 324243 L-204935 324242 L-204324 324241 L-204189 324239 L-203281 324238 L-203078 324236 L-202526 324235 L-199876 324233 L-199701 324232 L-199623 324229 L-198752 324227 L-198288 324226 L-197806 324224 L-197767 324221 L-197186 324220 L-197166 324218 L-196064 324217 L-194643 324215 L-194225 324214 L-193918 324212 L-193840 324211 L-193764 324209 L-193607 324208 L-193531 324206 L-193066 324205 L-191828 324203 L-191577 324202 L-191132 324200 L-190510 324199 L-190454 324197 L-190261 324197 L-189796 324196 L-189505 324193 L-189464 324190 L-189428 324187 L-189275 324184 L-189097 324182 L-187959 324179 L-187571 324178 L-187514 324176 L-187340 324175 L-184823 324172 L-183663 324170 L-183026 324169 L-182887 324167 L-182755 324164 L-182367 324163 L-181904 324161 L-181693 324158 L-181627 324157 L-181594 324155 L-180840 324154 L-180258 324152 L-180066 324151 L-179447 324149 L-179401 324148 L-179041 324146 L-178935 324145 L-178750 324143 L-178473 324142 L-177569 324140 L-176564 324139 L-175829 324137 L-175404 324136 L-175243 324134 L-174880 324133 L-174783 324131 L-174340 324130 L-174264 324129 L-173912 324129 L-173663 324126 L-173643 324123 L-173469 324120 L-172521 324115 L-172407 324114 L-171844 324112 L-171394 324111 L-171009 324109 L-170098 324108 L-170043 324106 L-168904 324105 L-168323 324102 L-168148 324100 L-167355 324097 L-167123 324096 L-166737 324094 L-166466 324093 L-166331 324091 L-166215 324090 L-165596 324090 L-165538 324090 L-165323 324090 L-165028 324090 L-164240 324088 L-164100 324088 L-162712 324087 L-162365 324087 L-161978 324085 L-161917 324082 L-161880 324081 L-161824 324079 L-161180 324078 L-160489 324076 L-160237 324076 L-159901 324075 L-159812 324075 L-159291 324073 L-159038 324072 L-158822 324069 L-158439 324067 L-158279 324066 L-157740 324063 L-156928 324061 L-156909 324060 L-156793 324060 L-156649 324058 L-156268 324058 L-156076 324058 L-156020 324057 L-155720 324055 L-155654 324054 L-155458 324052 L-155091 324051 L-155029 324049 L-154726 324048 L-154680 324048 L-154627 324046 L-153989 324046 L-153969 324045 L-153484 324043 L-153002 324045 L-152633 324045 L-152267 324046 L-152132 324046 L-151978 324045 L-151908 324043 L-151260 324043 L-151240 324042 L-151100 324042 L-150615 324040 L-150332 324040 L-150274 324039 L-150216 324039 L-149906 324037 L-149752 324036 L-149268 324036 L-148495 324036 L-147855 324036 L-147757 324034 L-146695 324034 L-146674 324033 L-146209 325835 L-146192 325835 L-146019 325835 L-145506 325835 L-143152 324031 L-142207 324030 L-141488 324028 L-140948 324025 L-140251 324024 L-139934 324022 L-139286 324021 L-138778 324019 L-138744 324018 L-138702 324017 L-138356 324015 L-137661 324014 L-137465 324012 L-137448 324009 L-137332 324008 L-137050 324006 L-136153 324003 L-136106 324002 L-135741 323999 L-135723 323997 L-135668 323996 L-135475 323994 L-135339 323993 L-135264 323991 L-135030 323990 L-134489 323988 L-134448 323987 L-134411 323985 L-134386 323984 L-133750 323981 L-133208 323979 L-132043 323978 L-131683 323976 L-130406 323976 L-130367 323975 L-130329 323975 L-130114 323973 L-129923 323972 L-129846 323970 L-129692 323969 L-129653 323967 L-128564 323966 L-128240 323966 L-128026 323964 L-127765 323964 L-127272 323964 L-127250 323970 L-126833 323976 L-126692 323981 L-126632 323987 L-126555 323987 L-126344 323985 L-125049 323985 L-124773 323984 L-124149 323982 L-122758 323981 L-122685 323979 L-122647 323976 L-122454 323975 L-122064 323973 L-121757 323972 L-121701 323970 L-121385 323970 L-121335 323970 L-121296 323969 L-121251 323967 L-120618 323966 L-119844 323964 L-119405 323963 L-119263 325782 L-119240 325780 L-119223 327599 L-119198 327599 L-118781 325780 L-118577 325779 L-118428 323958 L-118350 323957 L-118296 323955 L-117499 323955 L-117482 323955 L-116619 323955 L-116415 323955 L-116128 323954 L-116012 323952 L-115487 323951 L-115310 323949 L-115006 323948 L-114619 323946 L-114559 323943 L-114503 323942 L-114349 323940 L-113304 323939 L-112742 323939 L-112506 323937 L-112469 323937 L-112200 323937 L-111794 323936 L-110325 323934 L-108584 323933 L-108197 323931 L-107965 323930 L-107866 323928 L-107771 323927 L-107616 323924 L-107053 323924 L-106971 323922 L-106804 323922 L-106262 323924 L-105077 323924 L-105063 323924 L-105003 323924 L-104852 323922 L-104367 323921 L-103720 323919 L-103014 323916 L-102897 323915 L-101930 323913 L-101885 323912 L-101195 323912 L-101138 323910 L-101060 323910 L-101040 323909 L-101019 323907 L-100804 323906 L-100091 323906 L-99701 323905 L-99664 323903 L-99647 323902 L-99589 323900 L-99162 323899 L-98948 323897 L-98873 323894 L-98795 323893 L-98680 323891 L-98615 323891 L-98486 323890 L-98427 323890 L-98352 323887 L-98273 323885 L-97844 323884 L-97119 323882 L-97105 323879 L-96938 323878 L-96722 323875 L-96707 323872 L-96126 323870 L-95855 323869 L-95566 323867 L-95136 323866 L-94983 323864 L-94926 323863 L-94750 323861 L-93354 323860 L-93089 323857 L-92196 323854 L-91670 323852 L-90651 323849 L-90570 323848 L-90106 323846 L-89487 323846 L-89201 323845 L-88947 323845 L-88795 323843 L-88447 323842 L-87730 323840 L-87169 323839 L-86280 323837 L-85971 323837 L-85680 323837 L-84828 323837 L-84807 323837 L-84150 323837 L-83647 323834 L-83436 323833 L-83416 323831 L-83087 323830 L-83028 323830 L-82642 323830 L-81656 323830 L-81095 323830 L-80998 323830 L-80689 323828 L-80612 323828 L-79577 323827 L-79447 323825 L-79390 323824 L-78755 323822 L-78696 323821 L-78620 323819 L-77207 323818 L-77070 323816 L-76936 323815 L-76450 323813 L-76201 323812 L-75910 323810 L-75698 323809 L-75040 323807 L-74472 323804 L-74383 323803 L-74243 323801 L-74169 323800 L-73004 323800 L-72972 323798 L-72542 323798 L-72525 323797 L-72351 323795 L-70823 323794 L-70739 323795 L-69933 323795 L-69740 323795 L-69718 323795 L-68865 323794 L-68671 323793 L-68038 323791 L-67862 323790 L-67743 323788 L-67689 323788 L-67668 323788 L-67612 323788 L-67224 323788 L-66780 323788 L-66701 323787 L-66504 323787 L-66443 323785 L-66180 323784 L-65832 323784 L-65716 323782 L-64568 323782 L-64283 323781 L-63838 323779 L-62635 323778 L-62505 323776 L-62195 323775 L-61767 323773 L-60470 323772 L-60160 325525 L-60144 325525 L-60098 325559 L-60048 325559 L-59120 323803 L-58790 323803 L-58242 323767 L-58114 323766 L-57668 323764 L-56135 323763 L-55966 323761 L-55695 323760 L-55671 323757 L-54766 323755 L-54651 323754 L-54183 323752 L-54161 323751 L-54088 323749 L-53890 323748 L-53738 323746 L-53271 323745 L-52620 323743 L-52134 323742 L-51584 323742 L-50562 323742 L-50256 323742 L-50201 323742 L-49601 323740 L-49171 323739 L-49097 323739 L-49079 323737 L-48858 323737 L-48554 323736 L-48472 323734 L-48168 323734 L-47569 323733 L-47432 323731 L-47162 323730 L-46948 323728 L-46773 323728 L-46564 323728 L-46542 323728 L-46293 323746 L-45844 323764 L-45827 323782 L-45382 323800 L-44174 323800 L-43972 323798 L-43043 323798 L-42982 323797 L-42947 323795 L-41922 323794 L-41805 323794 L-41785 323793 L-41631 323793 L-41612 323793 L-41201 323791 L-41185 323791 L-41147 323790 L-40837 323788 L-40683 323787 L-40479 323787 L-40080 323785 L-39097 323785 L-38572 323785 L-38516 323784 L-38490 323784 L-38168 323782 L-37451 323782 L-36582 323782 L-36544 323782 L-36466 323782 L-36215 323781 L-36195 323779 L-35472 323779 L-35322 323778 L-35209 323778 L-35112 323776 L-34010 323775 L-33255 323773 L-33083 323772 L-32922 323770 L-32846 323769 L-32652 323769 L-31514 323767 L-30829 323767 L-30546 323766 L-29579 323764 L-29560 323763 L-28709 323761 L-28670 323760 L-28526 323758 L-28202 323757 L-27972 323755 L-27934 323754 L-27893 323752 L-27877 323749 L-27741 323748 L-27722 323746 L-27511 323745 L-27451 323743 L-27373 323742 L-27349 323740 L-27274 323739 L-26794 323737 L-26697 323736 L-26621 323734 L-26445 323733 L-26422 323731 L-26367 323730 L-26329 323728 L-26270 323727 L-26115 323725 L-25091 323724 L-24792 323722 L-24665 323721 L-24587 323719 L-23562 323718 L-23505 323716 L-23447 323715 L-23401 323713 L-23387 323712 L-23350 323710 L-23311 323709 L-22132 323707 L-22073 323706 L-21377 323706 L-20757 323704 L-20615 323704 L-20172 323703 L-19906 323701 L-19243 323701 L-18959 323700 L-17489 323700 L-16540 323698 L-16434 323697 L-16368 323697 L-16339 323695 L-16019 323694 L-15998 323694 L-15069 323694 L-14893 323695 L-14162 323697 L-13621 243264 L-13597 162829 L-13571 82395 L-13538 1960 L-13522 1959 L-13501 1956 L-13463 1953 L-13444 1953 L-13421 1956 L-13406 1957 L-13387 1959 L-13367 1959 L-13345 1956 L-13329 1954 L-13309 1953 L-13290 1953 L-13251 1953 L-13211 1950 L-13186 1947 L-13170 1942 L-13152 1939 L-13115 1936 L-13096 1935 L-13077 1933 L-13058 1932 L-13036 1929 L-13019 1927 L-12980 1923 L-12958 1918 L-12942 1917 L-12923 1914 L-12903 1912 L-12883 1911 L-12865 1908 L-12826 1906 L-12768 1905 L-12720 1902 L-12669 1900 L-12642 1897 L-12626 1895 L-12609 1893 L-12593 1892 L-12573 1890 L-12555 1890 L-12535 1887 L-12515 1886 L-12493 1883 L-12477 1878 L-12458 1875 L-12438 1874 L-12417 1871 L-12380 1868 L-12361 1865 L-12340 1862 L-12304 1859 L-12283 1857 L-12257 1856 L-12241 1854 L-12224 1851 L-12206 1844 L-12186 1836 L-12168 1827 L-12148 1821 L-12129 1817 L-12071 1814 L-12051 1809 L-12029 1806 L-11995 1802 L-11974 1797 L-11954 1794 L-11936 1791 L-11917 1790 L-11878 1788 L-11859 1785 L-11840 1783 L-11814 1781 L-11626 1778 L-11606 1775 L-11587 1774 L-11564 1771 L-11530 1768 L-11510 1765 L-11488 1760 L-11471 1756 L-11452 1751 L-11433 1747 L-11412 1744 L-11394 1741 L-11375 1738 L-11354 1735 L-11329 1732 L-11313 1729 L-11278 1726 L-11257 1724 L-11239 1721 L-11220 1720 L-11201 1717 L-11179 1714 L-11143 1711 L-11123 1708 L-11101 1705 L-11085 1702 L-11066 1699 L-11046 1696 L-11026 1694 L-10989 1691 L-10911 1690 L-10886 1687 L-10863 1684 L-10835 1679 L-10812 1676 L-10786 1673 L-10736 1671 L-10716 1669 L-10678 1665 L-10659 1662 L-10637 1660 L-10621 1657 L-10602 1656 L-10582 1654 L-10561 1653 L-10524 1650 L-10504 1648 L-10447 1647 L-10426 1645 L-10401 1645 L-10386 1644 L-10369 1644 L-10331 1642 L-10311 1639 L-10292 1636 L-10272 1633 L-10252 1630 L-10234 1627 L-10215 1623 L-10195 1620 L-10174 1617 L-10137 1614 L-10117 1612 L-10099 1611 L-10060 1609 L-10021 1608 L-10001 1606 L-9983 1605 L-9934 1603 L-9906 1602 L-9867 1599 L-9836 1597 L-9822 1594 L-9749 1591 L-9730 1588 L-9708 1587 L-9692 1585 L-9673 1584 L-9633 1584 L-9556 1581 L-9537 1579 L-9518 1576 L-9497 1575 L-9472 1573 L-9440 1572 L-9421 1572 L-9402 1569 L-9364 1566 L-9323 1561 L-9244 1557 L-9209 1554 L-9170 1551 L-9092 1550 L-9073 1548 L-9028 1547 L-9006 1548 L-8977 1548 L-8938 1545 L-8908 1544 L-8893 1541 L-8879 1538 L-8838 1535 L-8777 1533 L-8763 1530 L-8744 1527 L-8724 1524 L-8647 1520 L-8608 1517 L-8590 1514 L-8543 1512 L-8527 1511 L-8508 1509 L-8492 1508 L-8454 1503 L-8433 1500 L-8415 1496 L-8393 1493 L-8377 1490 L-8337 1487 L-8299 1484 L-8280 1481 L-8260 1476 L-8240 1470 L-8222 1464 L-8203 1458 L-8183 1455 L-8163 1454 L-8099 1452 L-8077 1451 L-8049 1449 L-8025 1445 L-7999 1441 L-7983 1435 L-7966 1429 L-7930 1426 L-7912 1423 L-7892 1421 L-7872 1420 L-7849 1417 L-7834 1415 L-7815 1414 L-7796 1409 L-7774 1403 L-7757 1399 L-7737 1394 L-7718 1391 L-7697 1388 L-7680 1387 L-7661 1384 L-7614 1382 L-7598 1379 L-7580 1376 L-7564 1372 L-7543 1367 L-7525 1363 L-7505 1358 L-7486 1352 L-7448 1351 L-7429 1349 L-7386 1348 L-7371 1346 L-7352 1342 L-7332 1337 L-7293 1335 L-7274 1333 L-7254 1330 L-7216 1329 L-7197 1326 L-7171 1323 L-7121 1321 L-7083 1320 L-7068 1318 L-7022 1317 L-6983 1314 L-6964 1312 L-6944 1309 L-6921 1308 L-6906 1305 L-6887 1302 L-6845 1300 L-6829 1297 L-6790 1293 L-6769 1290 L-6752 1285 L-6711 1281 L-6686 1278 L-6669 1275 L-6635 1272 L-6615 1267 L-6596 1261 L-6576 1254 L-6535 1246 L-6519 1239 L-6442 1234 L-6423 1231 L-6383 1230 L-6365 1227 L-6346 1224 L-6326 1224 L-6307 1223 L-6287 1223 L-6192 1224 L-6167 1223 L-6140 1221 L-6109 1218 L-6093 1215 L-6073 1212 L-6035 1209 L-6015 1206 L-5992 1203 L-5977 1202 L-5958 1200 L-5938 1197 L-5916 1194 L-5900 1191 L-5880 1188 L-5861 1185 L-5840 1182 L-5823 1178 L-5804 1175 L-5783 1173 L-5757 1170 L-5741 1166 L-5722 1161 L-5685 1157 L-5668 1151 L-5648 1146 L-5629 1142 L-5607 1136 L-5571 1133 L-5551 1128 L-5529 1124 L-5514 1121 L-5495 1118 L-5474 1115 L-5436 1112 L-5397 1111 L-5378 1109 L-5359 1106 L-5314 1105 L-5212 1105 L-5196 1103 L-5064 1102 L-5049 1100 L-5030 1094 L-5010 1090 L-4988 1087 L-4952 1082 L-4933 1081 L-4912 1079 L-4854 1076 L-4829 1073 L-4813 1070 L-4795 1066 L-4778 1063 L-4758 1061 L-4739 1060 L-4701 1057 L-4679 1055 L-4643 1054 L-4623 1052 L-4601 1051 L-4546 1051 L-4526 1049 L-4469 1048 L-4430 1046 L-4363 1045 L-4335 1042 L-4312 1039 L-4286 1036 L-4253 1033 L-4236 1031 L-4216 1028 L-4198 1033 L-4178 1036 L-4159 1040 L-4137 1045 L-4120 1043 L-4024 1042 L-3966 1040 L-3926 1039 L-3901 1034 L-3869 1031 L-3831 1028 L-3792 1024 L-3772 1021 L-3734 1018 L-3695 1015 L-3656 1012 L-3637 1010 L-3598 1007 L-3579 1004 L-3560 1003 L-3540 1002 L-3521 1000 L-3501 999 L-3483 996 L-3456 991 L-3406 987 L-3367 984 L-3337 981 L-3322 978 L-3308 976 L-3269 973 L-3250 970 L-3208 967 L-3192 964 L-3173 961 L-3133 957 L-3096 954 L-3056 951 L-3018 949 L-2972 946 L-2958 945 L-2882 943 L-2844 942 L-2823 942 L-2805 939 L-2786 937 L-2689 934 L-2650 931 L-2592 928 L-2573 925 L-2554 922 L-2528 922 L-2506 921 L-2439 919 L-2422 919 L-2407 918 L-2394 916 L-2358 915 L-2301 913 L-2277 910 L-2244 907 L-2224 904 L-2185 900 L-2165 895 L-2147 891 L-2125 888 L-2108 885 L-2090 884 L-2068 881 L-2043 878 L-1992 876 L-1971 873 L-1915 872 L-1895 869 L-1799 867 L-1780 864 L-1741 863 L-1722 861 L-1703 857 L-1664 855 L-1644 854 L-1626 852 L-1577 851 L-1525 851 L-1499 849 L-1483 846 L-1466 845 L-1451 842 L-1412 839 L-1392 837 L-1372 834 L-1315 831 L-1295 828 L-1273 824 L-1257 821 L-1237 816 L-1218 813 L-1161 809 L-1140 804 L-1114 800 L-1079 794 L-1064 789 L-1043 786 L-1025 783 L-1005 782 L-986 779 L-964 776 L-948 775 L-928 773 L-909 772 L-886 769 L-871 766 L-852 763 L-831 760 L-812 758 L-774 757 L-754 752 L-735 748 L-670 742 L-648 737 L-620 734 L-581 730 L-549 725 L-535 721 L-501 718 L-463 715 L-444 713 L-421 710 L-406 709 L-387 706 L-367 701 L-328 700 L-308 697 L-269 695 L-211 692 L-186 691 L-151 688 L-135 685 L-114 682 L-96 679 L-57 676 L-36 674 L-19 671 L0 668 L19 664 L42 661 L57 657 L76 654 L153 652 L173 649 L193 646 L212 643 L231 640 L256 637 L331 634 L357 631 L373 627 L390 625 L405 622 L426 619 L444 616 L484 615 L506 613 L522 612 L540 609 L560 607 L582 604 L599 603 L695 600 L716 597 L742 595 L775 592 L792 589 L813 586 L831 583 L851 582 L870 580 L892 579 L908 576 L928 573 L947 570 L970 567 L986 564 L1004 562 L1044 559 L1063 556 L1102 554 L1159 552 L1185 549 L1208 546 L1235 543 L1259 540 L1285 537 L1318 536 L1334 534 L1354 534 L1373 534 L1393 534 L1412 534 L1450 531 L1469 528 L1489 524 L1510 521 L1547 518 L1566 516 L1587 513 L1605 510 L1624 509 L1645 506 L1670 503 L1685 500 L1703 497 L1721 492 L1741 489 L1760 485 L1779 480 L1798 477 L1856 473 L1876 471 L1898 468 L1992 465 L2030 464 L2050 474 L2069 485 L2088 501 L2185 518 L2213 522 L2245 527 L2263 525 L2362 524 L2379 521 L2397 519 L2417 516 L2438 513 L2456 509 L2475 504 L2494 500 L2514 495 L2552 492 L2573 491 L2630 489 L2649 494 L2668 516 L2688 539 L2707 559 L2727 576 L2747 576 L2804 576 L2826 577 L2862 576 L2882 574 L2939 573 L2959 571 L2998 576 L3016 579 L3043 582 L3093 585 L3132 582 L3191 579 L3211 576 L3230 574 L3269 573 L3307 571 L3346 570 L3423 568 L3443 567 L3462 565 L3558 564 L3578 564 L3655 562 L3713 561 L3771 558 L3810 555 L3829 554 L3849 551 L3867 546 L3993 542 L4075 537 L4090 533 L4105 528 L4141 525 L4178 522 L4198 521 L4221 518 L4236 516 L4255 513 L4313 510 L4334 492 L4352 471 L4373 450 L4391 428 L4409 422 L4431 419 L4456 416 L4472 413 L4491 410 L4507 407 L4528 400 L4545 392 L4565 385 L4606 377 L4642 373 L4662 370 L4685 367 L4719 362 L4759 361 L4777 358 L4816 355 L4835 352 L4855 350 L4874 349 L4899 346 L4922 343 L4974 338 L5000 335 L5016 334 L5033 331 L5048 330 L5069 327 L5087 325 L5107 324 L5183 322 L5203 321 L5225 318 L5242 312 L5262 307 L5302 303 L5338 298 L5359 295 L5385 292 L5401 291 L5419 288 L5457 286 L5474 285 L5494 282 L5513 280 L5535 277 L5551 273 L5571 270 L5590 267 L5614 265 L5667 264 L5687 261 L5706 259 L5764 256 L5828 253 L5850 249 L5929 246 L5961 241 L5998 238 L6016 237 L6036 234 L6078 232 L6093 229 L6132 225 L6154 220 L6170 216 L6191 210 L6230 206 L6248 201 L6266 198 L6288 194 L6313 191 L6330 186 L6348 182 L6385 177 L6423 174 L6441 170 L6463 167 L6500 165" />
</svg>
