<svg xmlns="http://www.w3.org/2000/svg" version="1.1" viewBox="0 0 6500 1000">
	<path fill="none" stroke="gold" stroke-width="125" stroke-linecap="round" stroke-linejoin="round" d="M0 58569  L-461964 58569 L-461779 58534 L-461289 58464 L-460996 58429 L-460684 58358 L-460450 58323 L-460397 58252 L-460337 58182 L-460184 58147 L-460144 58076 L-460011 58041 L-459718 58006 L-459178 58006 L-458567 57971 L-458520 57971 L-457879 57935 L-457846 57935 L-457321 57935 L-457188 57900 L-456798 57830 L-456470 57759 L-456352 57689 L-456141 57618 L-455424 57618 L-454854 57583 L-454747 57583 L-454573 57548 L-454351 57477 L-453950 57442 L-453924 57372 L-452996 57301 L-452909 57231 L-452826 57160 L-452756 57090 L-452459 57055 L-452307 56984 L-450417 57020 L-450316 57020 L-450054 57020 L-449760 57055 L-449619 56984 L-449370 56984 L-449334 56949 L-449176 56914 L-448712 56843 L-448459 56808 L-448247 56738 L-447996 56703 L-447647 56667 L-446720 56597 L-446626 56526 L-446215 56491 L-445044 56421 L-443855 56386 L-443763 56315 L-443735 56245 L-443469 56174 L-443170 56104 L-443042 56033 L-443004 55963 L-442190 55963 L-441806 55998 L-440745 56033 L-440684 56033 L-440419 56738 L-439948 57407 L-439755 58076 L-439491 58746 L-439155 58710 L-439019 58675 L-438564 58640 L-437820 58605 L-437803 58569 L-437638 58499 L-437569 58499 L-437053 58464 L-436025 58464 L-435828 58429 L-435340 58393 L-434978 58358 L-434569 58358 L-434184 58393 L-432480 58393 L-432382 58393 L-432310 58393 L-432249 58393 L-432065 58358 L-431728 58358 L-431087 58323 L-431011 58288 L-430949 58288 L-430763 58252 L-430683 58252 L-430506 58217 L-430487 58182 L-430257 58182 L-429869 58147 L-428980 58147 L-428941 58112 L-428853 58076 L-428825 58006 L-427817 57971 L-427667 57900 L-427643 57865 L-427510 57830 L-427471 57794 L-426212 57759 L-426154 57759 L-425615 57724 L-425562 57724 L-425515 57724 L-425120 57689 L-424981 57654 L-424781 57618 L-424634 57618 L-424470 57618 L-424193 57654 L-423834 57654 L-423282 57618 L-422637 57583 L-422378 57513 L-422224 57477 L-421823 57442 L-421783 57407 L-421663 57372 L-421601 57407 L-421587 57407 L-421493 57407 L-421200 57372 L-421049 57231 L-420718 57160 L-420640 57090 L-420565 57055 L-420338 56949 L-420272 56879 L-420044 56808 L-419991 56738 L-419827 56703 L-418821 56667 L-418638 56632 L-418087 56597 L-417694 56526 L-417296 56491 L-416446 56421 L-416368 56386 L-415789 56350 L-415347 56350 L-415106 56315 L-414949 56315 L-414548 56245 L-414528 56245 L-414083 56209 L-413677 56174 L-413542 56104 L-413366 56033 L-413230 55963 L-412980 55892 L-411980 55857 L-411898 55822 L-411762 55787 L-411724 55752 L-410834 55716 L-410618 55681 L-410175 55646 L-410057 55611 L-410001 55575 L-409324 55575 L-409224 55540 L-409195 55540 L-407853 55505 L-407448 55470 L-407408 55435 L-406480 55399 L-406382 55364 L-406249 55329 L-405844 55294 L-405818 55258 L-405725 55223 L-405509 55188 L-405098 55117 L-403944 55047 L-403653 54977 L-403624 54906 L-403016 54871 L-402766 54800 L-402746 54765 L-401817 54730 L-401765 54660 L-401643 54624 L-401625 54554 L-401470 54519 L-401294 54448 L-401158 54413 L-401101 54378 L-400993 54343 L-400908 54307 L-400675 54272 L-400600 54237 L-400291 54202 L-400174 54166 L-400004 54131 L-399913 54096 L-399810 54096 L-399787 54061 L-399710 54061 L-399612 53990 L-399245 53955 L-399140 53920 L-398637 53885 L-398185 53849 L-398147 53814 L-398123 53779 L-398082 53744 L-397953 53709 L-397852 53673 L-397411 53638 L-397129 53603 L-396536 53568 L-396406 53532 L-396131 53462 L-395979 53427 L-395826 53392 L-395741 53321 L-395663 53286 L-395477 53251 L-395426 53251 L-395399 53215 L-395319 53180 L-395296 53145 L-395012 53075 L-394409 53004 L-393413 52969 L-393115 52934 L-392382 52898 L-392137 52863 L-392047 52828 L-391470 52793 L-390771 52758 L-390019 52722 L-389701 52687 L-389318 52617 L-389241 52581 L-388606 52546 L-388421 52511 L-388333 52511 L-388203 52511 L-387891 52476 L-387841 52441 L-387699 52405 L-387678 52370 L-386710 52335 L-386164 52300 L-385686 52300 L-385625 52300 L-385301 52300 L-385280 52264 L-385218 52264 L-385008 52229 L-384931 52194 L-384876 52159 L-384854 52123 L-384814 52088 L-384799 52053 L-384041 52018 L-384025 51983 L-383225 51947 L-383073 51912 L-382168 51877 L-381662 51842 L-381432 51771 L-381391 51771 L-381276 51736 L-381099 51701 L-380345 51736 L-380210 51701 L-380046 51666 L-379728 51630 L-379552 51560 L-378530 51489 L-378506 51419 L-378255 51384 L-378042 51313 L-377408 51278 L-377170 51208 L-377138 51137 L-376960 51067 L-376879 50996 L-376790 50961 L-376725 50891 L-376285 50820 L-376262 50785 L-375721 50750 L-375465 50715 L-374970 50679 L-374093 50644 L-374056 50609 L-374003 50574 L-373962 50538 L-373845 50503 L-373568 50468 L-373361 50398 L-373164 50327 L-373141 50257 L-373091 50186 L-373051 50151 L-372974 50116 L-372376 50045 L-372316 50010 L-372212 49975 L-372058 49940 L-371426 49904 L-370746 49869 L-370443 49799 L-370096 49764 L-369898 49728 L-369850 49658 L-369530 49623 L-368902 49587 L-368755 49552 L-368719 49517 L-368661 49482 L-368585 49411 L-368343 49411 L-368255 49376 L-368161 49341 L-367867 49306 L-367733 49270 L-367673 49235 L-367636 49165 L-367364 49165 L-366358 49129 L-366182 49094 L-366131 49094 L-365839 49059 L-365646 48989 L-365313 48953 L-364807 48918 L-364245 48848 L-364230 48777 L-364213 48742 L-364113 48672 L-363998 48601 L-363959 48531 L-363921 48495 L-363856 48495 L-363828 48460 L-363689 48495 L-363396 48495 L-363346 48495 L-363241 48495 L-362976 48460 L-362511 48425 L-362367 48425 L-362312 48355 L-362255 48319 L-362064 48284 L-361699 48249 L-361484 48249 L-361290 48249 L-361232 48249 L-361173 48178 L-361019 48143 L-360749 48108 L-360319 48284 L-360304 48284 L-360227 48249 L-360163 48214 L-360033 47967 L-360010 47932 L-359726 47897 L-359678 47861 L-359623 47826 L-359161 47791 L-359122 47791 L-359081 47756 L-358891 47721 L-358411 47685 L-357924 47650 L-357907 47615 L-357869 47580 L-357613 47544 L-357535 47474 L-357306 47439 L-357290 47368 L-356995 47298 L-356553 47263 L-356106 47227 L-355601 47192 L-355447 47157 L-355161 47122 L-355121 47051 L-354790 47016 L-354568 46981 L-354051 46910 L-353975 46875 L-353727 46805 L-353533 46734 L-353473 46699 L-352696 46664 L-352622 46664 L-352392 46629 L-352375 46629 L-352313 46593 L-352118 46558 L-351653 46558 L-351630 46523 L-351500 46523 L-350200 46523 L-350183 46523 L-350106 46488 L-350012 46488 L-349795 46488 L-349643 46452 L-349465 46488 L-349411 46523 L-349124 46558 L-349084 46558 L-348714 46558 L-348274 46558 L-348091 46558 L-347770 46523 L-347475 46523 L-347029 46452 L-346957 46417 L-346495 46347 L-346057 46312 L-345875 46276 L-344421 46206 L-344289 46171 L-343832 46100 L-343606 46065 L-343219 45995 L-342703 45924 L-341749 45854 L-340954 45783 L-340280 45748 L-339854 45678 L-339543 45642 L-339313 45537 L-338630 45431 L-338617 45325 L-338407 45184 L-338385 45149 L-338211 45079 L-337261 45044 L-336992 44973 L-336177 44938 L-335867 44867 L-335829 44832 L-335772 44762 L-335155 44727 L-334517 44656 L-332891 44621 L-332217 44586 L-331575 44586 L-331498 44586 L-331441 44586 L-331406 44586 L-331377 44550 L-331265 44480 L-331248 44445 L-331225 44410 L-331071 44374 L-331018 44304 L-330940 44269 L-330821 44233 L-330723 44198 L-330606 44163 L-330336 44092 L-330066 44057 L-330049 43987 L-329849 43952 L-329702 43881 L-329475 43846 L-329341 43811 L-329033 43775 L-328973 43740 L-328619 43670 L-328271 43635 L-328170 43599 L-328106 43529 L-328046 43494 L-327661 43423 L-327280 43388 L-327176 43353 L-326916 43318 L-326645 43247 L-326486 43212 L-326453 43177 L-326391 43141 L-326250 43106 L-326066 43071 L-326021 43036 L-325733 43036 L-325717 43001 L-325484 43001 L-325423 42965 L-325385 42965 L-324805 42930 L-324671 42895 L-324648 42754 L-324630 42507 L-324612 42226 L-324596 41944 L-324572 41662 L-324556 41451 L-324534 41204 L-324518 40958 L-324494 40817 L-324478 40676 L-324456 40570 L-324439 40500 L-324390 40394 L-324318 40288 L-324283 40112 L-324260 39971 L-324224 39830 L-324183 39690 L-324146 39619 L-324130 39478 L-324106 39373 L-324069 39302 L-324052 39196 L-324028 39126 L-324011 39056 L-323992 38985 L-323976 38915 L-323947 38809 L-323921 38703 L-323876 38668 L-323859 38598 L-323817 38562 L-323769 38492 L-323699 38421 L-323683 38351 L-323667 38281 L-323605 38245 L-323566 38210 L-323527 38175 L-323361 38140 L-323296 38104 L-323280 38069 L-323235 37999 L-323177 37964 L-322964 37928 L-322931 37893 L-322889 37858 L-322810 37823 L-322273 37787 L-322195 37752 L-322091 37682 L-322002 37647 L-321826 37611 L-321475 37576 L-321319 37541 L-320882 37506 L-320725 37470 L-320595 37435 L-319891 37365 L-319690 37330 L-318729 37259 L-318247 37224 L-318148 37224 L-318056 37189 L-317811 37153 L-317737 37118 L-317295 37048 L-317199 37013 L-317183 36977 L-317167 36942 L-317143 36907 L-316677 36872 L-316460 36836 L-316320 36801 L-316026 36766 L-315938 36731 L-315896 36696 L-315867 36660 L-315694 36625 L-315635 36590 L-315559 36555 L-315478 36519 L-315408 36519 L-315099 36484 L-315014 36449 L-314800 36414 L-314765 36379 L-314082 36343 L-313983 36308 L-313778 36273 L-313731 36238 L-313453 36202 L-313391 36167 L-313374 36097 L-313296 36061 L-312988 35991 L-312963 35956 L-312910 35885 L-312887 35850 L-312764 35815 L-312629 35744 L-312384 35709 L-312259 35709 L-311612 35674 L-311596 35674 L-311571 35674 L-311391 35604 L-311315 35568 L-311223 35533 L-310795 35498 L-310379 35463 L-309986 35392 L-309908 35357 L-309889 35322 L-309525 35287 L-309289 35251 L-309061 35216 L-308748 35181 L-308670 35146 L-308589 35075 L-308411 35005 L-308395 34970 L-308130 34899 L-308050 34864 L-307820 34829 L-307594 34793 L-307278 34793 L-307103 34758 L-306742 34758 L-306350 34723 L-306280 34653 L-306217 34617 L-306076 34547 L-306025 34512 L-305923 34441 L-305421 34406 L-305224 34371 L-304977 34336 L-304792 34300 L-304492 34265 L-304416 34230 L-304250 34159 L-303366 34124 L-303337 34054 L-303214 33983 L-302635 33948 L-302557 33913 L-301844 33913 L-301532 33913 L-301319 33913 L-301302 33913 L-300916 33913 L-300391 33842 L-299944 33807 L-299615 33772 L-299462 33737 L-299136 33737 L-298958 33702 L-298876 33702 L-298670 33631 L-298495 33596 L-297566 33561 L-296676 33525 L-296637 33490 L-296409 33490 L-296030 33455 L-295242 33420 L-295008 33384 L-294932 33349 L-294575 33314 L-294003 33244 L-293736 33208 L-293349 33173 L-293246 33173 L-293076 33173 L-292457 33173 L-292246 33173 L-291938 33173 L-291885 33138 L-291758 33103 L-291705 33067 L-291585 33032 L-291249 32962 L-290290 32927 L-290159 32856 L-289957 32821 L-289326 32786 L-289014 32750 L-288600 32715 L-288573 32680 L-288428 32645 L-288008 32610 L-286675 32610 L-286628 32574 L-286500 32504 L-286483 32469 L-285905 32398 L-285699 32363 L-285669 32328 L-285629 32293 L-285571 32257 L-285534 32222 L-285455 32187 L-285312 32152 L-284858 32116 L-284740 32081 L-284455 32046 L-284082 32011 L-283986 31976 L-283659 31940 L-283304 31905 L-283134 31870 L-283087 31835 L-282978 31799 L-282889 31764 L-282861 31729 L-282785 31659 L-282482 31623 L-282448 31553 L-282376 31518 L-282008 31482 L-281673 31447 L-281592 31447 L-281372 31412 L-281201 31377 L-281173 31342 L-280676 31306 L-280127 31236 L-279246 31201 L-279148 31130 L-279071 31095 L-278796 31060 L-278549 30989 L-278475 30954 L-278413 30884 L-278295 30848 L-278252 30813 L-278142 30778 L-278065 30707 L-277365 30672 L-277119 30637 L-277079 30602 L-276923 30567 L-276324 30567 L-276097 30567 L-276005 30567 L-275530 30567 L-274932 30496 L-274413 30461 L-274392 30426 L-274246 30390 L-273926 30390 L-273384 30390 L-273152 30390 L-272982 30390 L-272495 30355 L-272268 30320 L-272183 30285 L-271837 30250 L-271511 30250 L-270988 30214 L-270660 30179 L-270060 30144 L-269862 30073 L-269810 30038 L-269770 30003 L-269488 29968 L-268804 29897 L-268494 29862 L-268469 29792 L-268278 29756 L-268055 29721 L-267969 29686 L-267305 29616 L-267281 29580 L-267059 29510 L-266729 29475 L-266377 29404 L-266172 29369 L-265940 29299 L-265682 29263 L-265492 29193 L-265445 29158 L-265218 29122 L-265183 29087 L-265027 29052 L-264813 29017 L-264639 28982 L-264548 28946 L-264271 28911 L-264027 28876 L-263712 28841 L-263286 28841 L-263248 28841 L-262765 28841 L-262532 28841 L-262320 28805 L-262094 28770 L-261544 28770 L-261297 28735 L-260463 28735 L-260407 28700 L-260385 28665 L-260227 28629 L-259766 28594 L-259725 28559 L-259385 28488 L-259252 28453 L-259029 28418 L-258457 28383 L-257985 28348 L-257790 28312 L-257598 28277 L-257408 28242 L-257306 28207 L-256938 28171 L-256892 28136 L-256810 28101 L-255517 28066 L-255468 28030 L-255200 28030 L-255055 28030 L-254504 28030 L-254387 27995 L-254306 27960 L-253946 27925 L-253723 27890 L-253441 27854 L-253112 27784 L-252604 27749 L-252492 27713 L-252413 27678 L-252249 27643 L-251954 27643 L-251486 27643 L-251289 27678 L-251238 27678 L-250589 27643 L-250467 27608 L-250013 27608 L-249977 27573 L-249509 27537 L-249398 27502 L-249382 27467 L-249166 27467 L-248985 27432 L-248453 27432 L-247423 27432 L-247224 27396 L-246766 27361 L-245817 27291 L-245719 27256 L-245365 27185 L-245304 27150 L-245290 27115 L-245254 27079 L-244885 27044 L-244765 27009 L-244523 26974 L-244359 26939 L-244172 26903 L-244051 26868 L-242980 26798 L-242122 26762 L-241910 26692 L-241813 26657 L-241639 26586 L-241305 26551 L-241233 26516 L-241176 26481 L-241000 26481 L-240612 26445 L-240376 26410 L-240265 26375 L-240148 26340 L-239167 26305 L-239142 26269 L-238547 26199 L-238515 26199 L-238366 26164 L-238082 26128 L-237170 26128 L-236224 26128 L-236071 26093 L-235968 26093 L-235837 26058 L-235694 26023 L-235667 25988 L-235553 25952 L-235335 25917 L-234653 25882 L-234524 25847 L-234221 25811 L-233981 25741 L-233648 25706 L-233009 25671 L-232667 25600 L-232605 25565 L-232450 25565 L-231528 25565 L-231058 25565 L-231014 25565 L-231001 25530 L-230960 25494 L-230938 25459 L-230911 25424 L-230767 25389 L-230344 25353 L-230009 25353 L-229818 25318 L-229390 25318 L-229202 25283 L-228813 25213 L-228278 25177 L-227906 25142 L-227884 25142 L-227634 25107 L-227516 25072 L-227440 25036 L-227305 25001 L-227265 24966 L-227185 24931 L-226791 24896 L-226295 24860 L-226183 24790 L-226010 24755 L-225702 24719 L-225254 24684 L-224931 24649 L-224789 24579 L-224362 24508 L-224208 24438 L-224153 24367 L-223339 24332 L-223320 24297 L-222948 24262 L-222891 24262 L-221762 24226 L-221694 24226 L-221136 24191 L-220941 24156 L-220805 24121 L-220571 24085 L-220224 24050 L-220190 23980 L-220154 23945 L-220086 23874 L-219737 23839 L-219565 23804 L-219080 23768 L-219064 23733 L-218739 23698 L-218581 23663 L-217440 23592 L-217416 23557 L-217224 23487 L-217030 23451 L-216780 23416 L-216763 23381 L-215743 23346 L-215445 23311 L-215370 23275 L-215233 23205 L-215058 23170 L-214481 23099 L-214265 23064 L-214202 23029 L-214071 22994 L-214034 22923 L-213511 22888 L-213373 36766 L-213359 36766 L-213336 36766 L-213315 36766 L-213088 22853 L-212312 22853 L-212271 22853 L-211903 22853 L-211825 22817 L-211773 22782 L-211100 22747 L-210357 22712 L-209932 22712 L-209485 22676 L-208423 22641 L-208111 22571 L-207701 22571 L-207629 22536 L-207105 22536 L-207010 22536 L-206992 22536 L-206548 22500 L-206362 22430 L-205582 22359 L-204910 22324 L-204497 22219 L-204266 22148 L-204125 22113 L-204043 22042 L-204023 22007 L-203947 22007 L-203819 21972 L-203502 22007 L-203278 22007 L-202953 21972 L-202891 21972 L-202521 21972 L-202488 21972 L-202279 21972 L-201611 21972 L-201534 21972 L-201376 21902 L-201265 21902 L-200939 21866 L-200784 21831 L-200443 21831 L-200386 21761 L-200048 21690 L-199844 21655 L-199791 21585 L-198415 21549 L-198285 21514 L-197852 21479 L-197531 21444 L-196704 21373 L-196580 21338 L-195849 21268 L-195694 21197 L-195653 21162 L-195599 21127 L-195576 21091 L-195462 21056 L-195166 21021 L-194876 20986 L-194821 20951 L-194701 20915 L-194670 20880 L-194571 20845 L-194127 20845 L-193975 20810 L-193140 20810 L-192598 20774 L-192263 20774 L-192248 20739 L-192172 20704 L-192056 20669 L-191861 20634 L-191597 20598 L-190762 20563 L-190666 20528 L-190144 20493 L-190103 20457 L-190003 20422 L-189175 20422 L-189040 20387 L-188701 20387 L-188147 20352 L-187768 20317 L-187605 20281 L-187295 20246 L-186482 20211 L-186176 20176 L-185908 20176 L-185586 20176 L-185265 20211 L-184990 20211 L-184161 20140 L-184066 20105 L-183973 20000 L-183869 19894 L-183482 19788 L-183002 19718 L-182986 19682 L-182867 19647 L-182499 19577 L-182404 19542 L-181570 19471 L-181493 19436 L-181194 19401 L-181103 19365 L-180696 19295 L-180586 19225 L-179886 19189 L-179413 19154 L-179353 19119 L-179134 19048 L-178861 19013 L-178748 18978 L-177720 18943 L-177334 18908 L-177314 18872 L-176981 18837 L-176736 18802 L-176303 18767 L-176193 18731 L-176075 18696 L-175623 18626 L-175033 18591 L-174696 18555 L-172804 18520 L-172690 18450 L-172478 18414 L-171160 18379 L-171053 10454 L-170987 2634 L-170951 -4586 L-170889 -4586 L-170390 3268 L-169715 11017 L-169693 18168 L-169422 18097 L-168454 18097 L-167765 18062 L-167603 18027 L-167062 17992 L-166973 17957 L-165953 17921 L-165006 17851 L-164640 17886 L-164537 17921 L-163949 17921 L-163889 17921 L-163789 17886 L-163349 17816 L-163241 17780 L-162800 17745 L-161800 17640 L-161543 17534 L-161441 17428 L-161310 17358 L-160944 17287 L-160363 17217 L-160332 17182 L-160016 17146 L-158033 17111 L-157918 17076 L-157850 17076 L-157491 17041 L-155873 17005 L-155695 17005 L-155551 17005 L-154728 17041 L-154676 17076 L-154621 17076 L-154187 17076 L-153207 17111 L-153133 17111 L-152048 17076 L-151835 17076 L-151119 17005 L-150730 16970 L-150512 16900 L-150192 16829 L-149698 16759 L-149571 16724 L-149342 16653 L-149109 16583 L-149050 16548 L-148761 16512 L-148489 16442 L-147459 16407 L-145794 16371 L-145374 16336 L-145237 16301 L-145081 16301 L-144776 16266 L-144548 16195 L-144389 16160 L-144230 16090 L-144061 16019 L-144013 15984 L-143960 15949 L-143938 15949 L-143552 15914 L-143303 15914 L-143032 15914 L-142871 15914 L-142782 15914 L-141123 15914 L-140958 15949 L-140578 15914 L-140118 15914 L-139508 15843 L-138415 15808 L-137984 15773 L-137953 15737 L-137890 15702 L-137873 15667 L-136169 15632 L-136127 15597 L-135661 15561 L-135474 15526 L-135442 15456 L-134846 15420 L-134797 15385 L-134474 15350 L-134423 15315 L-134213 15280 L-134195 15244 L-133928 15174 L-133876 15139 L-133407 15103 L-132896 15033 L-132818 15033 L-132524 14998 L-132507 14963 L-132468 14927 L-132397 14892 L-132240 14857 L-131294 14857 L-131238 14857 L-130717 14857 L-130524 14822 L-130423 14822 L-130197 14786 L-129688 14786 L-129300 15737 L-129230 15737 L-128882 15702 L-128525 15667 L-127396 14646 L-127344 14575 L-127118 14540 L-127084 14505 L-126959 14434 L-126861 14434 L-126596 14434 L-125856 14469 L-125277 14469 L-124984 14469 L-124278 14469 L-124099 14434 L-124076 14434 L-123440 14399 L-123129 14364 L-122732 14364 L-122703 14328 L-122682 14293 L-122528 14258 L-121843 14258 L-121826 14258 L-121486 14258 L-121214 14223 L-121177 14188 L-121120 14117 L-121098 14082 L-121027 14047 L-120695 14011 L-120588 13976 L-120560 13906 L-120362 13871 L-120209 13835 L-119341 13800 L-118778 13730 L-118762 13730 L-118661 13694 L-118559 13730 L-118412 13730 L-118334 13730 L-118296 13694 L-118241 13659 L-118167 13624 L-118022 13589 L-117541 13589 L-117136 13554 L-116270 13589 L-116250 13589 L-115992 13589 L-115916 13589 L-115887 13554 L-115876 13483 L-115859 13448 L-115566 13413 L-115527 13377 L-115455 13342 L-115381 13307 L-115176 13272 L-115016 13166 L-114715 13060 L-114637 12920 L-114620 12814 L-114404 12743 L-114173 12743 L-114063 12779 L-113693 12814 L-113535 12814 L-113303 12814 L-113135 12814 L-112990 12779 L-112858 12743 L-111582 12673 L-111178 12603 L-111118 12567 L-111001 12497 L-110576 12462 L-110560 12391 L-110498 12356 L-110225 12286 L-110113 12250 L-109830 12180 L-109553 12145 L-109128 12074 L-109106 12039 L-109027 12004 L-108902 11969 L-108315 11933 L-107924 11898 L-107588 11863 L-106999 11828 L-106897 11828 L-106727 11792 L-106590 11792 L-105763 11757 L-104577 11722 L-104541 11687 L-104486 11687 L-104265 11651 L-104060 11651 L-103906 11651 L-103649 11616 L-103572 11581 L-103030 11546 L-102993 11511 L-102745 11475 L-102357 11440 L-101531 11405 L-101173 11370 L-100863 11370 L-100605 11334 L-100381 11299 L-99975 11264 L-99858 11229 L-99675 11194 L-99622 11194 L-99433 11158 L-99263 11123 L-99234 11088 L-98953 11053 L-98643 11017 L-98505 10982 L-98195 10947 L-98001 10947 L-97986 10912 L-97267 10912 L-97133 10841 L-96835 10806 L-96745 10771 L-96144 10771 L-96106 10736 L-96027 10700 L-95407 10665 L-95256 10595 L-95215 10560 L-94904 10524 L-94713 10489 L-94520 10419 L-94464 10348 L-94155 10313 L-94103 10278 L-94048 10313 L-94023 10313 L-93898 10313 L-93087 10278 L-93011 10243 L-92470 10207 L-92201 10172 L-91542 10137 L-90634 10102 L-90393 10066 L-89861 10031 L-89644 9996 L-88536 10031 L-88486 10031 L-87710 10031 L-87162 9996 L-87051 9961 L-86899 9890 L-86843 9855 L-86678 9820 L-86301 9785 L-85853 9749 L-85798 9714 L-85644 9679 L-84964 9644 L-84744 9609 L-84226 9573 L-83377 9503 L-83361 9468 L-81570 9432 L-81016 9397 L-80898 9362 L-79893 9327 L-79856 9292 L-79623 9292 L-79531 9292 L-79491 9292 L-79159 9256 L-78807 9221 L-78542 9151 L-78255 9115 L-77944 9045 L-77690 8974 L-77596 8939 L-77106 8904 L-76899 8869 L-76333 8834 L-76219 8869 L-75868 8834 L-75817 8834 L-75776 8834 L-75173 8763 L-74439 8693 L-73858 8622 L-73622 8552 L-73082 8446 L-72929 8376 L-72428 8340 L-72218 8270 L-72195 8270 L-72136 8235 L-71174 8235 L-70996 8200 L-70554 8164 L-70530 8094 L-70375 8059 L-70293 8059 L-70143 8094 L-69496 8094 L-69446 8059 L-68326 8023 L-67342 7988 L-67281 7953 L-66560 7918 L-65695 7883 L-65316 7847 L-65098 7847 L-64338 7812 L-64286 7777 L-63977 7706 L-63125 7706 L-62932 7671 L-62756 7636 L-62531 7636 L-62405 7601 L-62212 7601 L-61980 7566 L-61810 7601 L-61524 7566 L-61245 7566 L-61162 7530 L-60991 7495 L-60975 7425 L-60820 7389 L-60781 7354 L-60006 7319 L-59929 7319 L-59697 7249 L-59270 7213 L-58925 7178 L-58342 7143 L-58073 7143 L-57814 7143 L-57684 7072 L-57668 7037 L-57554 7002 L-57531 6967 L-57297 6932 L-57260 6896 L-55944 6896 L-55889 6861 L-55210 6791 L-54637 6791 L-54512 6791 L-54359 6791 L-54282 6791 L-53970 6720 L-53697 6685 L-53608 6615 L-53506 6615 L-52578 6579 L-52502 6579 L-52138 6579 L-52113 6544 L-52077 6509 L-51301 6438 L-51209 6403 L-51069 6368 L-50668 6333 L-50406 6333 L-50162 6368 L-49948 6333 L-49868 6333 L-49792 6333 L-49715 6333 L-49528 6368 L-49462 6368 L-49212 6368 L-49157 6333 L-49020 6297 L-48940 6227 L-48827 6192 L-48603 6157 L-48439 6121 L-48398 6086 L-48229 6051 L-47858 6016 L-47843 5980 L-47727 5945 L-47006 5910 L-46970 5875 L-46837 5875 L-46489 5840 L-46078 5840 L-46042 5840 L-45964 5804 L-45925 5769 L-45561 5734 L-45356 5699 L-45341 5663 L-44996 5628 L-44647 5628 L-44322 5628 L-44220 5593 L-44067 5593 L-43873 5558 L-43641 5558 L-43549 5558 L-43393 5558 L-43316 5558 L-43275 5523 L-43162 5487 L-43138 5452 L-42888 5452 L-42749 5382 L-42171 5276 L-41343 5206 L-40855 5135 L-40734 5100 L-40695 5065 L-40682 5029 L-40530 4959 L-40429 4889 L-40196 4853 L-39806 4783 L-39501 4748 L-39486 4712 L-39315 4677 L-39077 4607 L-38480 4607 L-37876 4572 L-37837 4572 L-37796 4572 L-37643 4536 L-37590 4501 L-37527 4466 L-37459 4431 L-37405 4360 L-37380 4325 L-37333 4290 L-37238 4219 L-37101 4184 L-36948 4149 L-36816 4114 L-36775 4114 L-36739 4078 L-36677 4043 L-36404 3973 L-36090 3938 L-36049 3867 L-35964 3832 L-35786 3797 L-35549 3761 L-35191 3726 L-35161 3691 L-34592 3656 L-34469 3620 L-34233 3585 L-34210 3585 L-33929 3550 L-33644 3550 L-33388 3550 L-32816 3515 L-32520 3480 L-32444 3444 L-31745 3409 L-31667 3374 L-31632 3339 L-31606 3303 L-31554 3233 L-31360 3198 L-31220 3127 L-31184 3092 L-31144 3057 L-30548 3022 L-30316 2986 L-30033 3233 L-29978 3444 L-29904 3691 L-29826 3902 L-29590 3832 L-29346 3797 L-29211 3761 L-29104 3726 L-29024 3691 L-28637 3620 L-28510 3585 L-28358 3550 L-28320 3515 L-28174 3480 L-27952 3444 L-27779 3409 L-27710 3374 L-26888 3303 L-26872 3303 L-26577 3268 L-25790 3233 L-25480 3233 L-25334 3198 L-25105 3163 L-24905 3092 L-23968 3057 L-23931 3022 L-23908 2986 L-23868 2916 L-23599 2881 L-23002 2846 L-22939 2810 L-22903 2775 L-22886 2740 L-22191 2740 L-21990 2740 L-21958 2740 L-21625 2740 L-21517 2705 L-20892 2634 L-20388 2599 L-20351 2529 L-19909 2529 L-19812 2493 L-19654 2493 L-19340 2493 L-19328 2493 L-18888 2529 L-18406 2564 L-18277 2564 L-17957 2564 L-17888 2529 L-17584 2529 L-17408 2493 L-17215 2458 L-16972 2388 L-16774 2317 L-16749 2247 L-16171 2212 L-16101 2176 L-15691 2141 L-15637 2106 L-15590 2071 L-15227 2035 L-15080 2000 L-14875 1965 L-14779 1965 L-14624 1930 L-14562 1895 L-14414 1824 L-14314 1789 L-13757 1789 L-13735 1859 L-13563 1895 L-13021 1930 L-12960 1930 L-12906 1859 L-12877 1789 L-12806 1754 L-12790 1683 L-12726 1648 L-12690 1578 L-12535 1542 L-12209 1507 L-11643 1472 L-11629 1437 L-11567 1366 L-11465 1296 L-11419 1296 L-11176 1261 L-10754 1261 L-10599 1261 L-8858 1190 L-8316 1155 L-7373 1120 L-6964 1084 L-6422 1014 L-6226 979 L-6057 943 L-5762 908 L-5647 873 L-5632 873 L-5477 838 L-5337 803 L-5260 732 L-5129 732 L-4781 732 L-4410 767 L-3812 767 L-3636 767 L-3480 732 L-3211 697 L-3060 697 L-2769 803 L-2745 873 L-2662 943 L-2434 1014 L-1735 979 L-1608 943 L-1177 908 L-1083 873 L121 873 L170 838 L464 838 L867 803 L1143 732 L1162 697 L1280 662 L1356 626 L1538 591 L2018 556 L2469 486 L2879 450 L2910 415 L3328 380 L3442 380 L3560 380 L3575 380 L3770 345 L3791 274 L4023 239 L4467 204 L4786 133 L5251 133 L5416 98 L5571 63 L5727 63 L6180 63 L6500 63" />
</svg>
