<svg xmlns="http://www.w3.org/2000/svg" version="1.1" viewBox="0 0 6500 1000">
	<path fill="none" stroke="gold" stroke-width="125" stroke-linecap="round" stroke-linejoin="round" d="M0 288464  L-1327815 288464 L-1327631 288462 L-1327141 288460 L-1326847 288459 L-1326536 288456 L-1326301 288455 L-1326248 288452 L-1326189 288449 L-1326035 288448 L-1325995 288445 L-1325862 288444 L-1325570 288443 L-1325029 288443 L-1324419 288442 L-1324371 288442 L-1323731 288440 L-1323697 288440 L-1323172 288440 L-1323039 288439 L-1322649 288436 L-1322321 288434 L-1322204 288431 L-1321993 288428 L-1321276 288428 L-1320706 288427 L-1320599 288427 L-1320424 288426 L-1320203 288423 L-1319801 288422 L-1319775 288419 L-1318847 288417 L-1318760 288414 L-1318678 288411 L-1318608 288409 L-1318310 288408 L-1318158 288405 L-1316268 288406 L-1316167 288406 L-1315905 288406 L-1315611 288408 L-1315470 288405 L-1315221 288405 L-1315186 288404 L-1315027 288402 L-1314564 288400 L-1314311 288398 L-1314098 288396 L-1313847 288395 L-1313498 288393 L-1312571 288391 L-1312477 288388 L-1312066 288387 L-1310896 288384 L-1309706 288383 L-1309614 288380 L-1309587 288378 L-1309321 288375 L-1309022 288372 L-1308893 288370 L-1308856 288367 L-1308041 288367 L-1307657 288368 L-1306597 288370 L-1306535 288370 L-1306270 288396 L-1305799 288421 L-1305606 288445 L-1305343 288470 L-1305006 288469 L-1304870 288468 L-1304415 288466 L-1303672 288465 L-1303654 288464 L-1303489 288461 L-1303421 288461 L-1302905 288460 L-1301876 288460 L-1301680 288459 L-1301191 288457 L-1300829 288456 L-1300420 288456 L-1300035 288457 L-1298331 288457 L-1298233 288457 L-1298162 288457 L-1298100 288457 L-1297916 288456 L-1297579 288456 L-1296939 288455 L-1296862 288453 L-1296801 288453 L-1296614 288452 L-1296534 288452 L-1296357 288451 L-1296338 288449 L-1296108 288449 L-1295720 288448 L-1294832 288448 L-1294792 288447 L-1294704 288445 L-1294677 288443 L-1293669 288442 L-1293519 288439 L-1293495 288438 L-1293362 288436 L-1293322 288435 L-1292064 288434 L-1292006 288434 L-1291466 288432 L-1291414 288432 L-1291367 288432 L-1290972 288431 L-1290832 288430 L-1290632 288428 L-1290486 288428 L-1290321 288428 L-1290044 288430 L-1289686 288430 L-1289133 288428 L-1288488 288427 L-1288230 288425 L-1288076 288423 L-1287675 288422 L-1287635 288421 L-1287514 288419 L-1287452 288421 L-1287438 288421 L-1287345 288421 L-1287051 288419 L-1286900 288414 L-1286570 288411 L-1286492 288409 L-1286416 288408 L-1286189 288404 L-1286123 288401 L-1285895 288398 L-1285843 288396 L-1285678 288395 L-1284672 288393 L-1284489 288392 L-1283938 288391 L-1283545 288388 L-1283147 288387 L-1282297 288384 L-1282219 288383 L-1281640 288381 L-1281199 288381 L-1280958 288380 L-1280800 288380 L-1280400 288378 L-1280379 288378 L-1279934 288376 L-1279529 288375 L-1279393 288372 L-1279218 288370 L-1279081 288367 L-1278831 288364 L-1277831 288363 L-1277749 288362 L-1277614 288361 L-1277575 288359 L-1276685 288358 L-1276469 288357 L-1276026 288355 L-1275909 288354 L-1275852 288353 L-1275176 288353 L-1275075 288351 L-1275047 288351 L-1273705 288350 L-1273299 288349 L-1273260 288347 L-1272331 288346 L-1272233 288345 L-1272100 288344 L-1271696 288342 L-1271670 288341 L-1271577 288340 L-1271360 288338 L-1270949 288336 L-1269796 288333 L-1269504 288331 L-1269475 288328 L-1268867 288327 L-1268617 288324 L-1268598 288323 L-1267668 288321 L-1267617 288319 L-1267494 288317 L-1267477 288315 L-1267321 288314 L-1267146 288311 L-1267009 288310 L-1266953 288308 L-1266845 288307 L-1266760 288306 L-1266526 288304 L-1266451 288303 L-1266143 288302 L-1266025 288300 L-1265855 288299 L-1265764 288298 L-1265661 288298 L-1265638 288297 L-1265561 288297 L-1265463 288294 L-1265096 288293 L-1264992 288291 L-1264488 288290 L-1264036 288289 L-1263998 288287 L-1263974 288286 L-1263933 288285 L-1263805 288283 L-1263704 288282 L-1263262 288281 L-1262980 288280 L-1262388 288278 L-1262257 288277 L-1261983 288274 L-1261830 288273 L-1261677 288272 L-1261592 288269 L-1261514 288268 L-1261328 288267 L-1261278 288267 L-1261250 288265 L-1261171 288264 L-1261147 288263 L-1260864 288260 L-1260260 288257 L-1259265 288256 L-1258967 288255 L-1258233 288253 L-1257988 288252 L-1257899 288251 L-1257321 288250 L-1256623 288248 L-1255871 288247 L-1255552 288246 L-1255169 288243 L-1255092 288242 L-1254458 288240 L-1254272 288239 L-1254184 288239 L-1254055 288239 L-1253742 288238 L-1253693 288236 L-1253551 288235 L-1253529 288234 L-1252561 288233 L-1252016 288231 L-1251538 288231 L-1251477 288231 L-1251153 288231 L-1251132 288230 L-1251069 288230 L-1250859 288229 L-1250782 288227 L-1250728 288226 L-1250705 288225 L-1250666 288223 L-1250650 288222 L-1249893 288221 L-1249876 288219 L-1249077 288218 L-1248924 288217 L-1248019 288216 L-1247513 288214 L-1247284 288212 L-1247242 288212 L-1247127 288210 L-1246951 288209 L-1246196 288210 L-1246061 288209 L-1245897 288208 L-1245579 288206 L-1245403 288204 L-1244381 288201 L-1244358 288199 L-1244107 288197 L-1243894 288195 L-1243260 288193 L-1243022 288191 L-1242989 288188 L-1242811 288186 L-1242731 288183 L-1242641 288182 L-1242577 288179 L-1242136 288176 L-1242113 288175 L-1241572 288174 L-1241316 288172 L-1240821 288171 L-1239944 288170 L-1239907 288169 L-1239855 288167 L-1239814 288166 L-1239696 288165 L-1239420 288163 L-1239213 288161 L-1239016 288158 L-1238992 288155 L-1238942 288153 L-1238903 288152 L-1238825 288150 L-1238228 288148 L-1238167 288146 L-1238064 288145 L-1237910 288144 L-1237278 288142 L-1236597 288141 L-1236294 288139 L-1235948 288137 L-1235750 288136 L-1235702 288133 L-1235381 288132 L-1234754 288131 L-1234607 288129 L-1234571 288128 L-1234513 288127 L-1234436 288124 L-1234195 288124 L-1234107 288123 L-1234013 288122 L-1233719 288120 L-1233584 288119 L-1233524 288118 L-1233487 288115 L-1233215 288115 L-1232209 288114 L-1232034 288112 L-1231983 288112 L-1231690 288111 L-1231498 288108 L-1231165 288107 L-1230658 288106 L-1230096 288103 L-1230081 288101 L-1230065 288099 L-1229964 288097 L-1229850 288094 L-1229810 288091 L-1229773 288090 L-1229707 288090 L-1229679 288089 L-1229540 288090 L-1229247 288090 L-1229197 288090 L-1229092 288090 L-1228827 288089 L-1228363 288088 L-1228218 288088 L-1228164 288085 L-1228106 288084 L-1227915 288082 L-1227550 288081 L-1227336 288081 L-1227141 288081 L-1227083 288081 L-1227024 288078 L-1226870 288077 L-1226601 288076 L-1226171 288082 L-1226155 288082 L-1226078 288081 L-1226014 288080 L-1225885 288071 L-1225861 288069 L-1225577 288068 L-1225529 288067 L-1225475 288065 L-1225012 288064 L-1224974 288064 L-1224933 288063 L-1224743 288061 L-1224262 288060 L-1223775 288059 L-1223759 288058 L-1223721 288056 L-1223464 288055 L-1223387 288052 L-1223157 288051 L-1223141 288048 L-1222846 288046 L-1222404 288044 L-1221957 288043 L-1221453 288042 L-1221299 288041 L-1221012 288039 L-1220972 288037 L-1220641 288035 L-1220419 288034 L-1219902 288031 L-1219826 288030 L-1219579 288027 L-1219384 288025 L-1219324 288024 L-1218548 288022 L-1218474 288022 L-1218243 288021 L-1218227 288021 L-1218165 288020 L-1217969 288018 L-1217505 288018 L-1217482 288017 L-1217352 288017 L-1216051 288017 L-1216035 288017 L-1215957 288016 L-1215864 288016 L-1215647 288016 L-1215494 288014 L-1215316 288016 L-1215262 288017 L-1214975 288018 L-1214935 288018 L-1214566 288018 L-1214126 288018 L-1213942 288018 L-1213621 288017 L-1213326 288017 L-1212880 288014 L-1212808 288013 L-1212346 288010 L-1211908 288009 L-1211726 288008 L-1210272 288005 L-1210140 288004 L-1209683 288001 L-1209457 288000 L-1209071 287997 L-1208554 287995 L-1207600 287992 L-1206806 287990 L-1206131 287988 L-1205706 287986 L-1205395 287984 L-1205165 287980 L-1204481 287977 L-1204468 287973 L-1204258 287967 L-1204236 287966 L-1204062 287963 L-1203112 287962 L-1202844 287960 L-1202029 287958 L-1201718 287956 L-1201681 287954 L-1201623 287952 L-1201007 287950 L-1200369 287948 L-1198743 287946 L-1198069 287945 L-1197427 287945 L-1197349 287945 L-1197293 287945 L-1197257 287945 L-1197229 287944 L-1197117 287941 L-1197099 287940 L-1197076 287939 L-1196923 287937 L-1196869 287935 L-1196791 287933 L-1196672 287932 L-1196574 287931 L-1196457 287930 L-1196187 287927 L-1195918 287926 L-1195900 287923 L-1195700 287922 L-1195554 287919 L-1195327 287918 L-1195193 287916 L-1194884 287915 L-1194824 287914 L-1194471 287911 L-1194122 287910 L-1194021 287909 L-1193957 287906 L-1193897 287905 L-1193513 287902 L-1193132 287901 L-1193028 287899 L-1192767 287898 L-1192496 287896 L-1192337 287894 L-1192304 287893 L-1192243 287892 L-1192101 287890 L-1191917 287889 L-1191873 287888 L-1191585 287888 L-1191569 287886 L-1191335 287886 L-1191274 287885 L-1191236 287885 L-1190656 287884 L-1190523 287882 L-1190499 287877 L-1190481 287868 L-1190464 287858 L-1190447 287847 L-1190423 287837 L-1190407 287829 L-1190386 287820 L-1190369 287811 L-1190346 287805 L-1190329 287800 L-1190307 287796 L-1190291 287794 L-1190242 287790 L-1190170 287786 L-1190135 287779 L-1190111 287774 L-1190075 287769 L-1190034 287764 L-1189997 287761 L-1189981 287756 L-1189957 287752 L-1189920 287749 L-1189903 287745 L-1189880 287743 L-1189862 287740 L-1189844 287738 L-1189828 287735 L-1189799 287731 L-1189773 287727 L-1189727 287726 L-1189711 287723 L-1189669 287722 L-1189621 287719 L-1189550 287717 L-1189535 287714 L-1189519 287711 L-1189456 287710 L-1189417 287709 L-1189378 287707 L-1189212 287706 L-1189147 287705 L-1189131 287704 L-1189087 287701 L-1189028 287700 L-1188816 287698 L-1188782 287697 L-1188740 287696 L-1188662 287694 L-1188125 287693 L-1188046 287692 L-1187942 287689 L-1187853 287688 L-1187677 287687 L-1187327 287685 L-1187171 287684 L-1186733 287683 L-1186576 287681 L-1186446 287680 L-1185743 287677 L-1185541 287676 L-1184581 287674 L-1184098 287672 L-1183999 287672 L-1183907 287671 L-1183662 287670 L-1183589 287668 L-1183146 287666 L-1183050 287664 L-1183035 287663 L-1183019 287662 L-1182994 287660 L-1182528 287659 L-1182311 287658 L-1182172 287657 L-1181878 287655 L-1181789 287654 L-1181748 287653 L-1181718 287651 L-1181546 287650 L-1181487 287649 L-1181410 287647 L-1181330 287646 L-1181260 287646 L-1180951 287645 L-1180866 287643 L-1180652 287642 L-1180617 287641 L-1179933 287640 L-1179835 287638 L-1179629 287637 L-1179583 287636 L-1179304 287634 L-1179242 287633 L-1179225 287630 L-1179147 287629 L-1178839 287626 L-1178815 287625 L-1178761 287623 L-1178738 287621 L-1178616 287620 L-1178480 287617 L-1178236 287616 L-1178110 287616 L-1177463 287615 L-1177447 287615 L-1177423 287615 L-1177242 287612 L-1177166 287611 L-1177074 287610 L-1176647 287608 L-1176231 287607 L-1175838 287604 L-1175759 287603 L-1175740 287602 L-1175377 287600 L-1175140 287599 L-1174912 287598 L-1174599 287596 L-1174521 287595 L-1174440 287593 L-1174262 287590 L-1174247 287589 L-1173981 287586 L-1173901 287585 L-1173671 287583 L-1173445 287582 L-1173129 287582 L-1172954 287581 L-1172593 287581 L-1172201 287579 L-1172132 287577 L-1172068 287576 L-1171928 287573 L-1171876 287572 L-1171774 287569 L-1171273 287568 L-1171075 287566 L-1170829 287565 L-1170643 287564 L-1170344 287562 L-1170267 287561 L-1170101 287559 L-1169217 287557 L-1169188 287555 L-1169065 287552 L-1168487 287551 L-1168409 287549 L-1167695 287549 L-1167383 287549 L-1167170 287549 L-1167153 287549 L-1166767 287549 L-1166242 287547 L-1165796 287545 L-1165466 287544 L-1165313 287543 L-1164988 287543 L-1164809 287542 L-1164728 287542 L-1164521 287539 L-1164346 287538 L-1163417 287536 L-1162528 287535 L-1162489 287534 L-1162261 287534 L-1161881 287532 L-1161094 287531 L-1160860 287530 L-1160784 287529 L-1160426 287527 L-1159854 287525 L-1159587 287523 L-1159201 287522 L-1159097 287522 L-1158927 287522 L-1158309 287522 L-1158098 287522 L-1157790 287522 L-1157737 287521 L-1157609 287519 L-1157556 287518 L-1157437 287517 L-1157101 287514 L-1156141 287513 L-1156010 287510 L-1155808 287509 L-1155177 287508 L-1154866 287506 L-1154452 287505 L-1154424 287504 L-1154279 287502 L-1153859 287501 L-1152526 287501 L-1152479 287500 L-1152351 287497 L-1152334 287496 L-1151756 287493 L-1151551 287492 L-1151521 287491 L-1151480 287489 L-1151423 287488 L-1151385 287487 L-1151307 287485 L-1151164 287484 L-1150710 287483 L-1150591 287481 L-1150306 287480 L-1149933 287479 L-1149837 287478 L-1149510 287476 L-1149156 287475 L-1148986 287474 L-1148939 287472 L-1148830 287471 L-1148741 287470 L-1148713 287468 L-1148636 287466 L-1148333 287465 L-1148299 287462 L-1148227 287461 L-1147860 287459 L-1147524 287458 L-1147443 287458 L-1147223 287457 L-1147052 287455 L-1147024 287454 L-1146527 287453 L-1145978 287450 L-1145097 287449 L-1144999 287446 L-1144922 287445 L-1144648 287444 L-1144400 287441 L-1144326 287440 L-1144265 287437 L-1144146 287436 L-1144103 287434 L-1143993 287433 L-1143917 287431 L-1143216 287429 L-1142971 287428 L-1142931 287427 L-1142774 287425 L-1142175 287425 L-1141948 287425 L-1141856 287425 L-1141381 287425 L-1140784 287423 L-1140264 287421 L-1140243 287420 L-1140098 287419 L-1139778 287419 L-1139236 287419 L-1139004 287419 L-1138833 287419 L-1138347 287417 L-1138119 287416 L-1138034 287415 L-1137688 287414 L-1137362 287414 L-1136839 287412 L-1136512 287411 L-1135911 287410 L-1135714 287407 L-1135662 287406 L-1135621 287404 L-1135340 287403 L-1134655 287401 L-1134345 287399 L-1134320 287397 L-1134129 287395 L-1133906 287394 L-1133820 287393 L-1133157 287390 L-1133132 287389 L-1132911 287386 L-1132581 287385 L-1132229 287382 L-1132024 287381 L-1131791 287378 L-1131533 287377 L-1131344 287374 L-1131297 287373 L-1131070 287372 L-1131035 287370 L-1130879 287369 L-1130664 287368 L-1130491 287367 L-1130400 287365 L-1130122 287364 L-1129879 287363 L-1129563 287361 L-1129137 287361 L-1129100 287361 L-1128616 287361 L-1128383 287361 L-1128171 287360 L-1127945 287359 L-1127395 287359 L-1127148 287357 L-1126314 287357 L-1126258 287356 L-1126236 287355 L-1126079 287353 L-1125617 287352 L-1125576 287351 L-1125236 287348 L-1125103 287347 L-1124880 287346 L-1124308 287344 L-1123836 287343 L-1123642 287342 L-1123449 287340 L-1123259 287339 L-1123158 287338 L-1122789 287337 L-1122743 287335 L-1122662 287334 L-1121368 287333 L-1121320 287331 L-1121051 287331 L-1120906 287331 L-1120355 287331 L-1120239 287330 L-1120157 287329 L-1119798 287327 L-1119574 287326 L-1119293 287325 L-1118964 287322 L-1118456 287321 L-1118343 287320 L-1118264 287318 L-1118100 287317 L-1117806 287317 L-1117337 287317 L-1117140 287318 L-1117090 287318 L-1116440 287317 L-1116318 287316 L-1115864 287316 L-1115828 287314 L-1115360 287313 L-1115249 287312 L-1115233 287310 L-1115017 287310 L-1114836 287309 L-1114304 287309 L-1113275 287309 L-1113075 287308 L-1112617 287306 L-1111669 287304 L-1111570 287303 L-1111216 287300 L-1111156 287299 L-1111141 287297 L-1111106 287296 L-1110736 287295 L-1110616 287293 L-1110374 287292 L-1110211 287291 L-1110023 287289 L-1109902 287288 L-1108832 287286 L-1107974 287284 L-1107761 287282 L-1107664 287280 L-1107490 287278 L-1107157 287276 L-1107085 287275 L-1107027 287274 L-1106852 287274 L-1106463 287273 L-1106228 287271 L-1106117 287270 L-1105999 287269 L-1105019 287267 L-1104993 287266 L-1104399 287263 L-1104366 287263 L-1104218 287262 L-1103933 287261 L-1103022 287261 L-1102075 287261 L-1101922 287259 L-1101820 287259 L-1101688 287258 L-1101545 287257 L-1101519 287256 L-1101405 287254 L-1101186 287253 L-1100505 287252 L-1100375 287250 L-1100072 287249 L-1099832 287246 L-1099500 287245 L-1098861 287244 L-1098518 287241 L-1098457 287240 L-1098301 287240 L-1097379 287240 L-1096909 287240 L-1096865 287240 L-1096853 287239 L-1096811 287237 L-1096789 287236 L-1096762 287235 L-1096619 287233 L-1096196 287232 L-1095861 287232 L-1095670 287231 L-1095241 287231 L-1095053 287229 L-1094664 287227 L-1094130 287225 L-1093757 287224 L-1093736 287224 L-1093486 287223 L-1093368 287222 L-1093292 287220 L-1093156 287219 L-1093116 287218 L-1093037 287216 L-1092642 287215 L-1092146 287214 L-1092034 287211 L-1091861 287210 L-1091553 287209 L-1091106 287207 L-1090783 287206 L-1090640 287203 L-1090213 287201 L-1090060 287198 L-1090005 287195 L-1089191 287194 L-1089171 287193 L-1088799 287192 L-1088742 287192 L-1087613 287190 L-1087545 287190 L-1086987 287189 L-1086792 287188 L-1086656 287186 L-1086423 287185 L-1086076 287184 L-1086041 287181 L-1086006 287180 L-1085938 287177 L-1085589 287176 L-1085417 287175 L-1084932 287173 L-1084915 287172 L-1084590 287171 L-1084433 287169 L-1083292 287167 L-1083267 287165 L-1083075 287163 L-1082882 287161 L-1082632 287160 L-1082614 287159 L-1081594 287158 L-1081297 287156 L-1081221 287155 L-1081085 287152 L-1080909 287151 L-1080332 287148 L-1080117 287147 L-1080053 287146 L-1079922 287144 L-1079886 287142 L-1079362 287141 L-1079224 287655 L-1079210 287655 L-1079187 287655 L-1079167 287655 L-1078940 287139 L-1078164 287139 L-1078122 287139 L-1077755 287139 L-1077676 287138 L-1077624 287137 L-1076951 287135 L-1076208 287134 L-1075784 287134 L-1075336 287133 L-1074274 287131 L-1073963 287129 L-1073553 287129 L-1073481 287128 L-1072956 287128 L-1072862 287128 L-1072844 287128 L-1072399 287126 L-1072214 287124 L-1071434 287121 L-1070761 287120 L-1070349 287116 L-1070117 287113 L-1069977 287112 L-1069895 287109 L-1069875 287108 L-1069799 287108 L-1069670 287107 L-1069354 287108 L-1069129 287108 L-1068804 287107 L-1068742 287107 L-1068372 287107 L-1068339 287107 L-1068130 287107 L-1067463 287107 L-1067385 287107 L-1067227 287104 L-1067117 287104 L-1066790 287103 L-1066635 287101 L-1066295 287101 L-1066238 287099 L-1065899 287096 L-1065696 287095 L-1065643 287092 L-1064266 287091 L-1064137 287090 L-1063703 287088 L-1063383 287087 L-1062555 287084 L-1062432 287083 L-1061701 287080 L-1061545 287078 L-1061504 287077 L-1061451 287075 L-1061427 287074 L-1061313 287073 L-1061017 287071 L-1060727 287070 L-1060673 287069 L-1060552 287067 L-1060522 287066 L-1060422 287065 L-1059978 287065 L-1059827 287064 L-1058991 287064 L-1058449 287062 L-1058114 287062 L-1058099 287061 L-1058023 287060 L-1057907 287058 L-1057712 287057 L-1057448 287056 L-1056614 287054 L-1056517 287053 L-1055996 287052 L-1055954 287050 L-1055855 287049 L-1055027 287049 L-1054892 287048 L-1054553 287048 L-1053999 287047 L-1053619 287045 L-1053456 287044 L-1053146 287043 L-1052334 287041 L-1052027 287040 L-1051759 287040 L-1051437 287040 L-1051117 287041 L-1050841 287041 L-1050012 287039 L-1049917 287037 L-1049825 287033 L-1049720 287030 L-1049334 287026 L-1048854 287023 L-1048837 287022 L-1048718 287020 L-1048351 287018 L-1048256 287016 L-1047422 287014 L-1047345 287013 L-1047045 287011 L-1046955 287010 L-1046547 287007 L-1046437 287005 L-1045738 287003 L-1045265 287002 L-1045205 287001 L-1044986 286998 L-1044712 286997 L-1044599 286996 L-1043572 286994 L-1043185 286993 L-1043165 286992 L-1042832 286990 L-1042588 286989 L-1042154 286988 L-1042044 286986 L-1041927 286985 L-1041475 286983 L-1040884 286981 L-1040548 286980 L-1038655 286979 L-1038541 286976 L-1038330 286975 L-1037011 286973 L-1036905 286679 L-1036839 286390 L-1036803 286122 L-1036741 286122 L-1036241 286413 L-1035566 286700 L-1035544 286966 L-1035274 286963 L-1034306 286963 L-1033617 286962 L-1033455 286960 L-1032914 286959 L-1032824 286958 L-1031805 286956 L-1030857 286954 L-1030491 286955 L-1030389 286956 L-1029800 286956 L-1029741 286956 L-1029640 286955 L-1029200 286952 L-1029093 286951 L-1028651 286950 L-1027651 286946 L-1027395 286942 L-1027292 286938 L-1027162 286936 L-1026795 286933 L-1026214 286930 L-1026183 286929 L-1025868 286928 L-1023885 286926 L-1023769 286925 L-1023701 286925 L-1023343 286924 L-1021724 286922 L-1021547 286922 L-1021402 286922 L-1020580 286924 L-1020527 286925 L-1020472 286925 L-1020038 286925 L-1019058 286926 L-1018984 286926 L-1017899 286925 L-1017686 286925 L-1016970 286922 L-1016582 286921 L-1016363 286919 L-1016043 286916 L-1015550 286913 L-1015422 286912 L-1015193 286909 L-1014961 286907 L-1014902 286905 L-1014612 286904 L-1014340 286902 L-1013310 286900 L-1011645 286899 L-1011226 286898 L-1011089 286896 L-1010932 286896 L-1010627 286895 L-1010399 286892 L-1010241 286891 L-1010081 286888 L-1009912 286886 L-1009865 286885 L-1009811 286883 L-1009790 286883 L-1009404 286882 L-1009154 286882 L-1008883 286882 L-1008723 286882 L-1008633 286882 L-1006974 286882 L-1006809 286883 L-1006429 286882 L-1005969 286882 L-1005360 286879 L-1004266 286878 L-1003835 286877 L-1003804 286875 L-1003742 286874 L-1003724 286873 L-1002020 286872 L-1001978 286870 L-1001512 286869 L-1001325 286868 L-1001293 286865 L-1000698 286864 L-1000648 286862 L-1000325 286861 L-1000275 286860 L-1000064 286858 L-1000046 286857 L-999780 286855 L-999727 286853 L-999258 286852 L-998748 286849 L-998669 286849 L-998375 286848 L-998358 286847 L-998320 286845 L-998249 286844 L-998091 286843 L-997145 286843 L-997089 286843 L-996568 286843 L-996376 286841 L-996275 286841 L-996049 286840 L-995539 286840 L-995151 286875 L-995081 286875 L-994733 286874 L-994376 286873 L-993247 286835 L-993196 286832 L-992970 286831 L-992936 286830 L-992811 286827 L-992712 286827 L-992447 286827 L-991707 286828 L-991129 286828 L-990835 286828 L-990129 286828 L-989951 286827 L-989927 286827 L-989291 286826 L-988980 286824 L-988584 286824 L-988554 286823 L-988533 286822 L-988379 286821 L-987694 286821 L-987678 286821 L-987338 286821 L-987065 286819 L-987028 286818 L-986972 286815 L-986950 286814 L-986878 286813 L-986546 286811 L-986440 286810 L-986411 286808 L-986213 286806 L-986060 286805 L-985192 286804 L-984630 286801 L-984614 286801 L-984512 286800 L-984410 286801 L-984264 286801 L-984185 286801 L-984148 286800 L-984092 286798 L-984019 286797 L-983874 286796 L-983392 286796 L-982988 286794 L-982121 286796 L-982101 286796 L-981844 286796 L-981767 286796 L-981738 286794 L-981727 286792 L-981710 286791 L-981417 286789 L-981378 286788 L-981306 286787 L-981232 286785 L-981027 286784 L-980867 286780 L-980566 286776 L-980489 286771 L-980472 286767 L-980255 286764 L-980024 286764 L-979914 286766 L-979544 286767 L-979386 286767 L-979155 286767 L-978986 286767 L-978841 286766 L-978709 286764 L-977433 286762 L-977030 286759 L-976969 286758 L-976852 286755 L-976427 286754 L-976412 286751 L-976350 286750 L-976076 286747 L-975964 286746 L-975682 286744 L-975404 286742 L-974979 286740 L-974957 286738 L-974879 286737 L-974753 286736 L-974167 286734 L-973775 286733 L-973440 286732 L-972851 286730 L-972748 286730 L-972578 286729 L-972442 286729 L-971614 286728 L-970429 286727 L-970393 286725 L-970337 286725 L-970117 286724 L-969912 286724 L-969757 286724 L-969500 286723 L-969424 286721 L-968881 286720 L-968845 286719 L-968596 286717 L-968208 286716 L-967383 286715 L-967025 286713 L-966714 286713 L-966456 286712 L-966233 286711 L-965826 286710 L-965710 286708 L-965526 286707 L-965473 286707 L-965285 286706 L-965114 286704 L-965085 286703 L-964805 286702 L-964494 286700 L-964356 286699 L-964047 286698 L-963853 286698 L-963837 286696 L-963118 286696 L-962984 286694 L-962687 286693 L-962596 286691 L-961996 286691 L-961957 286690 L-961879 286689 L-961258 286687 L-961107 286685 L-961066 286683 L-960756 286682 L-960564 286681 L-960371 286678 L-960315 286676 L-960007 286674 L-959954 286673 L-959900 286674 L-959874 286674 L-959749 286674 L-958938 286673 L-958862 286672 L-958321 286670 L-958053 286669 L-957393 286668 L-956486 286666 L-956244 286665 L-955712 286664 L-955495 286663 L-954387 286664 L-954337 286664 L-953562 286664 L-953014 286663 L-952903 286661 L-952750 286659 L-952695 286657 L-952529 286656 L-952152 286655 L-951704 286653 L-951650 286652 L-951495 286651 L-950815 286649 L-950595 286648 L-950077 286647 L-949228 286644 L-949212 286643 L-947421 286642 L-946867 286640 L-946750 286639 L-945744 286638 L-945707 286636 L-945475 286636 L-945382 286636 L-945342 286636 L-945010 286635 L-944658 286634 L-944393 286631 L-944106 286630 L-943796 286627 L-943542 286625 L-943448 286623 L-942958 286622 L-942751 286621 L-942185 286619 L-942071 286621 L-941719 286619 L-941668 286619 L-941628 286619 L-941024 286617 L-940291 286614 L-939709 286612 L-939474 286609 L-938933 286605 L-938781 286602 L-938279 286601 L-938070 286599 L-938047 286599 L-937988 286597 L-937025 286597 L-936848 286596 L-936406 286595 L-936381 286592 L-936226 286591 L-936145 286591 L-935994 286592 L-935348 286592 L-935298 286591 L-934178 286589 L-933194 286588 L-933132 286587 L-932412 286585 L-931547 286584 L-931168 286583 L-930949 286583 L-930190 286582 L-930138 286580 L-929828 286578 L-928977 286578 L-928784 286576 L-928607 286575 L-928383 286575 L-928256 286574 L-928064 286574 L-927831 286572 L-927662 286574 L-927375 286572 L-927096 286572 L-927013 286571 L-926842 286570 L-926826 286567 L-926672 286566 L-926633 286565 L-925857 286563 L-925781 286563 L-925549 286561 L-925122 286559 L-924776 286558 L-924193 286557 L-923924 286557 L-923665 286557 L-923536 286554 L-923520 286553 L-923406 286551 L-923382 286550 L-923148 286549 L-923112 286548 L-921796 286548 L-921740 286546 L-921061 286544 L-920489 286544 L-920363 286544 L-920210 286544 L-920133 286544 L-919821 286541 L-919548 286540 L-919459 286537 L-919357 286537 L-918429 286536 L-918353 286536 L-917989 286536 L-917965 286535 L-917928 286533 L-917153 286531 L-917061 286529 L-916921 286528 L-916519 286527 L-916257 286527 L-916014 286528 L-915800 286527 L-915719 286527 L-915643 286527 L-915566 286527 L-915380 286528 L-915313 286528 L-915064 286528 L-915009 286527 L-914871 286525 L-914791 286523 L-914678 286521 L-914455 286520 L-914291 286519 L-914250 286518 L-914080 286516 L-913709 286515 L-913695 286514 L-913579 286512 L-912857 286511 L-912821 286510 L-912688 286510 L-912341 286508 L-911929 286508 L-911893 286508 L-911815 286507 L-911776 286506 L-911412 286504 L-911208 286503 L-911193 286502 L-910847 286501 L-910499 286501 L-910173 286501 L-910071 286499 L-909918 286499 L-909724 286498 L-909492 286498 L-909400 286498 L-909244 286498 L-909167 286498 L-909126 286497 L-909013 286495 L-908990 286494 L-908739 286494 L-908600 286491 L-908022 286487 L-907194 286485 L-906706 286482 L-906585 286481 L-906546 286480 L-906534 286478 L-906382 286476 L-906281 286473 L-906048 286472 L-905657 286469 L-905353 286468 L-905337 286467 L-905167 286465 L-904928 286463 L-904332 286463 L-903728 286461 L-903688 286461 L-903648 286461 L-903495 286460 L-903441 286459 L-903379 286457 L-903311 286456 L-903256 286454 L-903231 286452 L-903184 286451 L-903090 286448 L-902953 286447 L-902799 286446 L-902667 286444 L-902626 286444 L-902591 286443 L-902529 286442 L-902255 286439 L-901941 286438 L-901900 286435 L-901815 286434 L-901638 286433 L-901400 286431 L-901043 286430 L-901013 286429 L-900444 286427 L-900321 286426 L-900085 286425 L-900062 286425 L-899781 286423 L-899495 286423 L-899240 286423 L-898668 286422 L-898371 286421 L-898295 286420 L-897596 286418 L-897518 286417 L-897483 286416 L-897457 286414 L-897405 286412 L-897212 286410 L-897071 286408 L-897035 286407 L-896995 286405 L-896400 286404 L-896167 286403 L-895884 286412 L-895829 286420 L-895756 286429 L-895677 286437 L-895441 286434 L-895197 286433 L-895062 286431 L-894955 286430 L-894876 286429 L-894489 286426 L-894362 286425 L-894209 286423 L-894171 286422 L-894025 286421 L-893804 286420 L-893630 286418 L-893561 286417 L-892740 286414 L-892723 286414 L-892429 286413 L-891641 286412 L-891331 286412 L-891185 286410 L-890957 286409 L-890756 286407 L-889819 286405 L-889782 286404 L-889760 286403 L-889719 286400 L-889450 286399 L-888854 286397 L-888790 286396 L-888755 286395 L-888738 286393 L-888043 286393 L-887841 286393 L-887809 286393 L-887476 286393 L-887368 286392 L-886744 286390 L-886239 286388 L-886202 286386 L-885760 286386 L-885664 286384 L-885505 286384 L-885192 286384 L-885179 286384 L-884739 286386 L-884257 286387 L-884128 286387 L-883808 286387 L-883740 286386 L-883436 286386 L-883260 286384 L-883066 286383 L-882823 286380 L-882626 286378 L-882600 286375 L-882022 286374 L-881952 286373 L-881542 286371 L-881488 286370 L-881442 286369 L-881078 286367 L-880932 286366 L-880726 286365 L-880630 286365 L-880475 286363 L-880413 286362 L-880266 286359 L-880165 286358 L-879608 286358 L-879586 286361 L-879414 286362 L-878872 286363 L-878811 286363 L-878757 286361 L-878729 286358 L-878657 286357 L-878641 286354 L-878578 286353 L-878541 286350 L-878386 286349 L-878061 286348 L-877495 286346 L-877480 286345 L-877418 286343 L-877317 286340 L-877270 286340 L-877028 286339 L-876606 286339 L-876451 286339 L-874709 286336 L-874168 286335 L-873224 286333 L-872815 286332 L-872274 286329 L-872077 286328 L-871909 286327 L-871613 286326 L-871498 286324 L-871483 286324 L-871328 286323 L-871188 286322 L-871112 286319 L-870980 286319 L-870632 286319 L-870261 286320 L-869663 286320 L-869488 286320 L-869331 286319 L-869063 286318 L-868911 286318 L-868620 286322 L-868596 286324 L-868513 286327 L-868286 286329 L-867586 286328 L-867459 286327 L-867028 286326 L-866934 286324 L-865729 286324 L-865680 286323 L-865387 286323 L-864983 286322 L-864707 286319 L-864688 286318 L-864570 286316 L-864494 286315 L-864313 286314 L-863833 286312 L-863381 286310 L-862971 286309 L-862941 286307 L-862522 286306 L-862408 286306 L-862290 286306 L-862275 286306 L-862081 286305 L-862059 286302 L-861827 286301 L-861384 286299 L-861064 286297 L-860599 286297 L-860434 286295 L-860279 286294 L-860123 286294 L-859670 286294 L-859351 286294 L-859296 286295 L-858925 286295 L-858887 286297 L-858561 286297 L-858444 286295 L-858345 286294 L-858019 286292 L-857632 286290 L-857371 286289 L-857013 286286 L-856757 286285 L-854586 286284 L-854537 286282 L-854515 286281 L-854103 286281 L-854041 286281 L-853971 286282 L-853740 286282 L-853430 286281 L-853126 286279 L-853082 286277 L-852774 286276 L-852641 286275 L-852425 286273 L-851713 286272 L-851557 286272 L-851419 286271 L-851270 286271 L-851249 286271 L-851055 286269 L-851030 286268 L-850938 286267 L-850917 286265 L-850900 286264 L-850800 286263 L-849871 286262 L-849413 286262 L-848321 286259 L-847899 286259 L-847495 286258 L-847456 286256 L-847203 286255 L-846428 286252 L-846412 286251 L-846388 286250 L-846195 286248 L-845458 286247 L-845189 286246 L-845149 286245 L-844750 286242 L-844725 286241 L-843935 286239 L-843255 286238 L-841884 286237 L-841614 286235 L-841566 286234 L-841028 286231 L-840995 286230 L-840893 286228 L-840570 286226 L-840490 286225 L-840221 286225 L-839309 286224 L-839170 286224 L-838921 286221 L-838376 286221 L-837954 286220 L-837761 286218 L-837745 286218 L-837607 286216 L-837513 286214 L-837386 286213 L-837126 286212 L-837101 286209 L-837010 286208 L-836700 286207 L-836640 286205 L-836523 286205 L-836173 286205 L-835362 286205 L-835131 286203 L-834302 286203 L-834070 286200 L-833853 286199 L-833335 286199 L-832697 286198 L-832280 286196 L-831958 286195 L-831477 286194 L-831052 286194 L-830991 286192 L-830642 286192 L-830601 286191 L-830588 286190 L-830488 286187 L-830443 286187 L-829957 286186 L-829156 286186 L-828822 286186 L-827740 286184 L-827260 286183 L-827237 286182 L-827097 286181 L-826542 286179 L-825845 286178 L-825536 286177 L-825314 286175 L-825209 286174 L-825107 286171 L-824436 286170 L-824342 286169 L-824320 286169 L-824242 286167 L-824064 286167 L-823892 286167 L-823712 286166 L-823698 286165 L-823622 286164 L-823458 286162 L-822943 286161 L-822927 286160 L-822787 286160 L-822424 286158 L-822400 286158 L-822269 286157 L-822245 286156 L-821882 286154 L-821357 286152 L-821263 286150 L-821047 286148 L-820954 286147 L-820929 286145 L-820465 286144 L-820388 286144 L-819986 286143 L-819536 286143 L-818284 286141 L-818245 286140 L-817814 286139 L-817781 286137 L-817062 286136 L-816885 286135 L-816750 286134 L-816443 286132 L-816388 286131 L-816363 286128 L-816347 286126 L-816172 286124 L-815983 286123 L-815475 286123 L-815102 286113 L-814763 286101 L-814725 286090 L-814006 286081 L-813912 286080 L-813873 286079 L-813332 286079 L-813309 286077 L-812906 286076 L-812480 286075 L-812209 286075 L-812030 286073 L-811784 286071 L-811761 286070 L-811704 286067 L-811087 286066 L-810585 286064 L-810198 286064 L-809579 286066 L-809362 286066 L-809207 286067 L-807915 286064 L-807816 286063 L-807373 286060 L-807042 286059 L-806742 286056 L-806499 286055 L-805764 286053 L-805185 286051 L-804356 286050 L-804255 286049 L-803698 286047 L-803560 286046 L-801918 286045 L-801857 286045 L-801763 286045 L-800796 286045 L-800619 286043 L-800332 286043 L-800114 286043 L-800036 286042 L-799764 286042 L-799649 286041 L-799496 286039 L-799186 286038 L-799107 286037 L-799016 286037 L-798939 286036 L-798823 286036 L-798644 286034 L-798552 286033 L-798513 286032 L-798010 286032 L-797792 286030 L-797662 286030 L-797507 286029 L-797453 286028 L-797328 286028 L-796943 286026 L-796435 286025 L-796362 286024 L-795882 286022 L-795805 286021 L-795705 286021 L-795471 286020 L-795007 286020 L-794777 286020 L-794760 286020 L-794528 286020 L-794373 286020 L-794312 286020 L-794119 286019 L-793848 286016 L-793096 286015 L-792143 286015 L-792107 286013 L-791882 286013 L-791443 286013 L-791162 286011 L-790813 286009 L-789744 286008 L-788817 286008 L-788686 286008 L-788639 286008 L-788570 286007 L-788415 286007 L-788338 286004 L-788164 286002 L-787729 285999 L-787525 285998 L-787465 285995 L-786882 285994 L-786728 285991 L-786613 285990 L-786572 285989 L-786403 285987 L-786266 285986 L-786055 285983 L-785977 285982 L-785954 285981 L-785745 285978 L-785335 285977 L-785311 285975 L-785088 285974 L-784942 285973 L-784908 285972 L-784894 285970 L-784872 285969 L-784638 285968 L-784453 285966 L-784236 285965 L-784210 285964 L-783521 285962 L-783417 285961 L-783382 285960 L-783361 285958 L-783167 285957 L-783114 285956 L-782997 285953 L-782916 285953 L-782805 285952 L-782490 285951 L-782031 285949 L-781776 285948 L-781542 285945 L-781412 285944 L-781059 285943 L-781000 285942 L-780847 285940 L-780275 285938 L-780189 285936 L-780035 285934 L-779739 285931 L-779369 285928 L-779066 285926 L-778990 285925 L-778585 285923 L-778417 285923 L-778273 285923 L-777733 285923 L-777672 285923 L-777656 285921 L-777490 285919 L-777284 285918 L-777209 285918 L-777117 285917 L-776707 285915 L-776691 285914 L-776668 285914 L-776475 285913 L-776398 285925 L-776227 285936 L-776165 285947 L-776150 285958 L-775635 285957 L-775414 285956 L-774795 285953 L-774541 285952 L-774347 285951 L-774308 285949 L-774235 285949 L-774169 285949 L-773519 285949 L-773480 285951 L-773306 285951 L-773240 285951 L-772566 285951 L-772177 285948 L-771915 285947 L-771678 285945 L-771600 285943 L-771584 285940 L-771382 285939 L-771011 285936 L-770786 285935 L-770150 285934 L-770130 285934 L-769743 285932 L-769650 285932 L-769592 285931 L-769315 285930 L-769006 285930 L-768929 285928 L-768078 285930 L-767735 285936 L-767298 285944 L-766864 285951 L-766369 285957 L-766220 285956 L-765951 285957 L-764713 285958 L-764657 285961 L-762893 285962 L-762702 285961 L-761692 285960 L-761541 285958 L-761166 285961 L-760845 285964 L-760239 285966 L-760170 285969 L-759993 285968 L-759164 285966 L-759025 285965 L-758639 285964 L-758454 285962 L-758411 285961 L-758291 285960 L-758081 285958 L-757633 285956 L-757285 285955 L-757153 285953 L-756744 285952 L-756394 285952 L-756109 285951 L-755915 285949 L-755760 285949 L-755597 285948 L-755528 285947 L-755428 285947 L-755195 285945 L-755079 285945 L-755025 285944 L-754483 285944 L-754019 285943 L-752837 285943 L-752704 285943 L-752679 285943 L-752626 285943 L-751959 285943 L-750924 285940 L-750730 285939 L-750551 285938 L-750399 285938 L-750358 285936 L-750343 285936 L-750282 285935 L-749957 285934 L-748796 285932 L-748603 285931 L-748425 285930 L-747311 285928 L-746452 285927 L-746345 285927 L-745872 285926 L-745679 285926 L-743357 285925 L-743280 285923 L-743159 285921 L-743124 285919 L-743087 285917 L-742992 285913 L-742777 285910 L-742195 285908 L-741809 285906 L-741036 285905 L-740958 285904 L-740261 285904 L-739720 285904 L-739679 285902 L-739548 285902 L-739084 285901 L-739046 285900 L-738911 285898 L-738543 285897 L-738513 285896 L-738363 285896 L-737963 285894 L-736139 285896 L-735332 285894 L-734613 285894 L-734596 285894 L-734283 285892 L-733721 285891 L-733220 285889 L-732701 285888 L-732679 285887 L-730935 285885 L-730766 285884 L-730571 285883 L-729677 285881 L-729158 285879 L-728948 285878 L-728690 285876 L-727981 285875 L-727030 285874 L-726372 285872 L-726333 285870 L-726046 285868 L-725964 285867 L-725868 285867 L-725736 285866 L-725659 285866 L-724924 285866 L-724587 285864 L-724537 285866 L-724282 285866 L-723995 285864 L-723570 285864 L-722989 285863 L-722731 285863 L-722579 285862 L-722332 285862 L-722293 285862 L-721496 285861 L-721458 285859 L-721281 285859 L-720872 285857 L-720644 285857 L-720567 285857 L-720436 285857 L-720320 285855 L-719972 285854 L-719908 285853 L-719756 285851 L-719015 285850 L-718904 285849 L-718733 285847 L-718694 285846 L-718400 285846 L-717998 285846 L-717822 285846 L-717728 285846 L-717418 285845 L-716617 285844 L-716158 285841 L-715638 285840 L-715150 285838 L-714454 285837 L-713408 285836 L-713139 285836 L-713085 285834 L-712924 285834 L-712673 285834 L-712427 285833 L-712348 285832 L-712134 285829 L-711822 285828 L-711358 285825 L-711344 285824 L-711047 285824 L-711034 285823 L-710043 285821 L-709370 285820 L-709036 285817 L-708419 285817 L-708282 285816 L-707643 285815 L-707513 285813 L-706562 285811 L-706463 285808 L-705903 285807 L-705495 285807 L-705066 285807 L-704975 285806 L-704141 285806 L-703777 285806 L-703738 285807 L-703606 285808 L-703429 285808 L-703212 285808 L-703158 285807 L-703001 285804 L-702748 285803 L-701648 285802 L-701571 285800 L-701351 285799 L-701220 285797 L-701184 285795 L-700991 285794 L-700891 285793 L-700408 285791 L-700123 285790 L-699963 285789 L-699868 285786 L-699597 285785 L-699327 285783 L-699311 285778 L-699172 285774 L-699034 285770 L-698707 285765 L-698398 285763 L-698357 285761 L-698282 285759 L-698166 285757 L-697316 285755 L-696989 285753 L-696658 285752 L-696525 285752 L-696309 285752 L-696293 285752 L-695613 285752 L-695519 285749 L-695496 285748 L-695480 285746 L-695442 285744 L-695030 285742 L-694761 285740 L-694720 285739 L-694352 285739 L-694142 285738 L-693059 285738 L-693043 285736 L-693014 285735 L-692994 285735 L-692617 285733 L-692362 285731 L-692114 285729 L-691975 285726 L-691843 285725 L-691511 285723 L-691418 285722 L-691357 285721 L-690799 285719 L-690738 285718 L-690582 285717 L-690388 285716 L-690195 285714 L-690180 285713 L-690141 285712 L-690103 285710 L-689832 285709 L-689709 285708 L-689676 285706 L-689577 285706 L-689421 285706 L-689280 285706 L-688996 285705 L-688671 285705 L-687975 285704 L-687952 285704 L-687442 285704 L-686596 285704 L-686233 285702 L-686079 285701 L-685475 285701 L-685305 285701 L-685244 285701 L-685189 285700 L-684133 285699 L-684115 285699 L-683209 285699 L-683188 285699 L-683021 285697 L-682778 285697 L-682728 285696 L-682674 285693 L-682536 285692 L-682497 285691 L-681568 285689 L-681513 285689 L-681391 285689 L-681319 285689 L-681204 285689 L-681025 285691 L-680043 285689 L-679904 285689 L-679786 285687 L-679491 285684 L-679244 285683 L-679207 285682 L-679153 285683 L-679131 285683 L-678998 285683 L-678919 285683 L-678781 285682 L-678158 285682 L-677992 285680 L-677528 285680 L-677351 285678 L-677335 285676 L-677274 285675 L-677158 285674 L-676675 285672 L-675980 285671 L-675607 285670 L-675438 285669 L-674471 285667 L-674317 285666 L-674139 285666 L-674046 285665 L-673791 285665 L-673620 285665 L-672973 285663 L-672962 285663 L-672382 285662 L-672244 285662 L-672189 285659 L-671454 285658 L-671415 285657 L-671338 285657 L-670696 285655 L-669921 285655 L-669829 285654 L-669780 285654 L-669765 285653 L-669728 285653 L-669712 285650 L-669649 285649 L-669633 285648 L-669613 285648 L-669458 285646 L-669419 285645 L-669403 285644 L-669364 285642 L-669225 285641 L-669148 285640 L-668784 285638 L-668436 285637 L-667662 285636 L-667060 285635 L-666864 285633 L-666633 285633 L-666496 285632 L-665858 285632 L-665568 285631 L-665547 285631 L-665087 285629 L-664854 285629 L-664799 285628 L-664760 285627 L-664257 285625 L-663707 285624 L-662919 285623 L-661796 285623 L-660902 285621 L-660814 285621 L-660515 285620 L-660443 285619 L-660327 285618 L-659150 285616 L-658802 285615 L-658780 285614 L-658260 285612 L-658114 285611 L-658005 285610 L-657796 285608 L-657641 285607 L-657619 285606 L-657425 285605 L-657348 285603 L-657204 285602 L-656403 285601 L-656257 285599 L-655977 285598 L-655800 285597 L-655490 285595 L-654679 285594 L-653750 285594 L-652158 285593 L-651915 285591 L-651274 285590 L-651079 285589 L-651001 285588 L-650483 285586 L-650251 285586 L-650228 285585 L-650096 285585 L-649757 285584 L-649746 285582 L-649530 285581 L-649493 285580 L-648951 285578 L-648422 285576 L-648355 285574 L-648062 285573 L-647514 285571 L-647479 285569 L-647426 285568 L-647327 285565 L-647094 285565 L-646514 285565 L-646416 285567 L-646342 285567 L-646010 285565 L-645260 285564 L-645221 285563 L-644541 285563 L-644387 285563 L-644061 285561 L-643845 285560 L-643613 285560 L-643317 285559 L-643071 285557 L-642720 285556 L-642666 285555 L-641907 285554 L-641214 285551 L-640863 285548 L-640399 285547 L-639766 285546 L-639357 285544 L-639279 285546 L-638853 285546 L-638211 285544 L-638042 285544 L-637300 285543 L-637112 285542 L-636817 285541 L-636245 285539 L-636220 285538 L-635200 285538 L-634713 285537 L-634620 285537 L-634559 285535 L-634271 285534 L-633985 285533 L-633924 285531 L-633744 285531 L-633033 285530 L-632857 285529 L-632658 285527 L-632507 285526 L-632415 285525 L-632353 285524 L-631811 285524 L-631501 285522 L-631409 285520 L-631332 285517 L-630764 285516 L-630674 285516 L-630419 285513 L-630092 285510 L-630055 285507 L-629900 285503 L-629668 285501 L-629346 285500 L-628213 285499 L-628014 285497 L-627489 285496 L-627244 285496 L-626998 285495 L-626918 285493 L-626898 285491 L-626822 285490 L-626766 285487 L-626689 285486 L-626650 285484 L-626471 285482 L-626434 285480 L-626202 285479 L-624965 285478 L-624638 285477 L-624598 285474 L-623817 285473 L-623670 285471 L-622678 285470 L-622472 285470 L-622046 285470 L-621918 285470 L-621514 285471 L-621426 285470 L-620769 285469 L-620062 285467 L-619454 285466 L-619260 285465 L-619027 285462 L-618409 285461 L-618113 285458 L-617674 285457 L-617519 285456 L-617364 285454 L-616608 285452 L-616258 285450 L-615855 285450 L-615817 285449 L-614811 285449 L-614491 285449 L-614244 285448 L-613544 285445 L-613471 285444 L-613159 285443 L-612078 285441 L-611887 285440 L-611653 285440 L-611458 285439 L-610958 285437 L-610204 285437 L-610091 285437 L-609890 285437 L-609849 285436 L-609757 285435 L-609443 285433 L-609355 285432 L-609239 285431 L-608921 285431 L-608852 285429 L-608828 285428 L-608466 285427 L-608427 285426 L-608210 285424 L-607707 285426 L-607105 285427 L-606893 285429 L-606740 285431 L-606702 285431 L-606658 285428 L-606624 285427 L-606491 285426 L-606082 285424 L-605711 285423 L-605657 285422 L-605641 285420 L-605562 285419 L-605153 285418 L-604999 285416 L-604984 285414 L-604944 285413 L-604766 285410 L-604690 285409 L-604458 285407 L-603668 285406 L-603591 285406 L-602856 285403 L-602700 285402 L-602460 285399 L-602398 285397 L-602313 285396 L-602290 285393 L-602173 285390 L-602158 285388 L-602097 285385 L-602059 285384 L-601965 285382 L-601943 285382 L-601827 285381 L-601594 285380 L-601424 285377 L-600604 285377 L-600202 285376 L-600047 285376 L-599542 285376 L-599428 285376 L-598832 285376 L-598457 285375 L-598406 285375 L-598212 285373 L-597515 285373 L-597477 285372 L-597332 285372 L-597107 285371 L-596845 285369 L-596471 285368 L-596046 285367 L-595917 285365 L-595897 285363 L-595403 285363 L-594707 285362 L-594475 285363 L-594321 285363 L-593353 285363 L-593128 285364 L-592850 285364 L-592834 285363 L-592309 285362 L-591780 285360 L-591632 285359 L-591612 285358 L-591070 285356 L-590760 285355 L-590643 285352 L-590451 285350 L-590315 285347 L-589988 285346 L-589871 285345 L-589561 285345 L-589135 285343 L-589080 285343 L-588847 285345 L-588750 285345 L-588617 285345 L-588321 285345 L-588207 285343 L-587842 285342 L-587530 285342 L-587047 285341 L-586876 285339 L-586628 285338 L-586412 285337 L-585886 285335 L-585700 285333 L-585345 285332 L-584709 285330 L-584555 285328 L-583814 285326 L-583394 285325 L-583214 285324 L-583138 285324 L-583007 285322 L-582713 285321 L-582672 285320 L-582442 285320 L-582250 285318 L-581995 285318 L-581568 285317 L-581459 285316 L-580841 285316 L-580659 285316 L-579448 285316 L-578801 285317 L-578650 285317 L-578612 285317 L-578480 285317 L-578379 285316 L-578364 285315 L-578282 285313 L-578070 285312 L-577953 285311 L-577591 285309 L-577219 285308 L-576522 285307 L-576120 285305 L-576015 285304 L-575997 285303 L-575052 285301 L-574857 285299 L-574705 285298 L-574650 285295 L-573893 285295 L-573876 285298 L-573387 285299 L-573257 285301 L-573064 285301 L-572174 285300 L-572134 285299 L-572096 285298 L-572019 285296 L-571980 285296 L-571903 285295 L-571820 285294 L-571555 285292 L-571323 285291 L-571261 285290 L-570780 285288 L-570444 285288 L-570333 285287 L-570139 285286 L-569963 285284 L-569903 285284 L-569867 285283 L-569597 285282 L-568899 285279 L-568846 285277 L-568552 285274 L-568150 285271 L-567586 285270 L-566713 285269 L-566408 285268 L-566370 285266 L-566248 285265 L-565649 285264 L-565519 285262 L-565319 285261 L-565282 285260 L-564668 285258 L-564489 285257 L-564475 285254 L-564256 285253 L-564178 285251 L-563871 285251 L-563739 285249 L-563507 285249 L-563173 285249 L-563081 285248 L-562981 285247 L-562943 285245 L-562400 285245 L-562207 285244 L-561666 285243 L-561240 285241 L-561108 285241 L-561047 285241 L-560816 285241 L-560799 285241 L-560311 285243 L-560230 285243 L-560213 285243 L-558820 285244 L-558684 285244 L-558570 285243 L-557936 285241 L-557796 285240 L-557679 285239 L-557525 285236 L-557488 285235 L-557409 285234 L-557355 285235 L-556363 285235 L-556327 285234 L-556194 285234 L-556133 285231 L-556034 285230 L-555744 285228 L-555731 285227 L-555420 285227 L-555321 285228 L-554855 285227 L-554802 285365 L-554659 285503 L-554531 285641 L-554299 285780 L-553730 285778 L-553641 285777 L-553619 285777 L-553332 285776 L-552649 285774 L-552572 285773 L-552536 285772 L-552519 285770 L-552320 285769 L-551899 285766 L-551628 285766 L-550755 285765 L-550463 285765 L-550352 285765 L-549617 285764 L-549490 285763 L-549131 285761 L-548878 285761 L-548007 285760 L-547838 285760 L-547776 285759 L-547721 285757 L-547373 285756 L-547350 285755 L-547141 285753 L-547001 285752 L-546871 285751 L-546748 285749 L-546624 285748 L-546387 285747 L-546097 285746 L-545438 285744 L-545416 285743 L-545261 285742 L-545143 285740 L-544179 285739 L-544123 285738 L-543891 285736 L-543868 285735 L-543542 285734 L-543427 285734 L-543387 285733 L-542885 285733 L-542586 285731 L-542475 285730 L-541932 285729 L-540873 285727 L-540247 285726 L-540076 285725 L-539828 285723 L-539572 285722 L-539441 285721 L-539419 285719 L-538752 285718 L-537856 285717 L-537809 285716 L-537739 285714 L-537623 285714 L-537403 285713 L-537212 285713 L-537173 285712 L-536980 285710 L-536321 285710 L-535704 285709 L-535665 285717 L-535069 285725 L-535008 285731 L-533885 285738 L-533831 285738 L-533710 285736 L-533444 285735 L-533381 285735 L-533112 285735 L-533036 285734 L-532819 285734 L-532337 285733 L-532067 285731 L-531936 285731 L-531704 285729 L-531679 285725 L-531664 285719 L-531641 285713 L-531625 285706 L-531601 285700 L-531588 285692 L-531564 285684 L-531548 285676 L-531525 285670 L-531510 285663 L-531488 285657 L-531472 285653 L-531444 285649 L-531426 285644 L-531408 285641 L-531371 285637 L-531332 285635 L-531317 285632 L-531291 285628 L-531239 285625 L-531215 285623 L-531138 285620 L-531100 285619 L-531085 285616 L-531022 285614 L-531007 285611 L-530961 285607 L-530890 285605 L-530852 285603 L-530828 285601 L-530775 285598 L-530750 285597 L-530735 285595 L-530673 285594 L-530636 285593 L-530559 285591 L-530543 285590 L-530515 285588 L-530443 285586 L-530403 285585 L-530249 285582 L-530133 285581 L-530079 285580 L-529996 285578 L-529963 285577 L-529939 285576 L-529785 285574 L-529769 285573 L-529668 285572 L-529357 285571 L-529321 285569 L-529106 285568 L-528995 285568 L-528970 285568 L-528740 285569 L-528507 285569 L-528132 285568 L-528005 285567 L-527965 285565 L-527912 285564 L-527811 285563 L-527774 285561 L-527564 285561 L-527499 285560 L-527387 285560 L-527175 285559 L-527138 285557 L-526766 285556 L-526713 285555 L-526634 285554 L-526612 285552 L-526519 285551 L-526319 285550 L-526282 285550 L-526260 285550 L-526030 285550 L-526009 285548 L-525800 285548 L-525705 285547 L-525667 285546 L-525331 285544 L-525218 285543 L-525178 285542 L-525165 285542 L-525025 285541 L-525010 285541 L-524756 285541 L-524173 285539 L-524097 285538 L-524059 285537 L-524014 285535 L-523966 285534 L-523786 285533 L-523771 285531 L-523672 285530 L-523594 285529 L-523534 285527 L-523168 285525 L-523086 285524 L-523068 285522 L-523014 285521 L-522046 285520 L-521914 285518 L-521893 285517 L-521672 285516 L-521604 285514 L-521581 285513 L-521335 285512 L-521079 285510 L-520948 285509 L-520908 285508 L-520887 285505 L-520831 285503 L-520744 285501 L-520682 285499 L-520457 285497 L-520328 285496 L-520228 285495 L-520174 285493 L-519980 285492 L-519903 285491 L-519569 285490 L-519438 285488 L-519261 285487 L-519245 285486 L-519220 285484 L-518951 285484 L-517750 285483 L-517713 285483 L-517597 285482 L-517363 285480 L-517172 285479 L-517133 285479 L-517078 285478 L-516973 285478 L-516459 285477 L-516165 285475 L-515933 285474 L-515658 285473 L-515641 285471 L-515609 285470 L-515568 285469 L-515531 285467 L-515430 285466 L-515352 285465 L-515259 285463 L-515133 285462 L-515028 285461 L-514850 285461 L-514657 285460 L-513828 285460 L-513712 285458 L-513458 285457 L-513418 285456 L-513319 285454 L-513259 285454 L-513016 285453 L-512992 285453 L-512871 285452 L-512800 285450 L-512761 285449 L-512529 285448 L-512352 285446 L-511832 285445 L-511756 285444 L-511739 285443 L-511328 285443 L-510965 285443 L-510849 285441 L-510827 285441 L-510786 285440 L-510710 285439 L-510656 285437 L-510307 285436 L-510191 285435 L-510014 285435 L-509959 285433 L-509935 285433 L-509821 285432 L-509534 285431 L-509301 285429 L-509086 285428 L-508876 285427 L-508666 285424 L-507840 285423 L-507500 285422 L-506493 285420 L-506129 285419 L-505084 285418 L-505006 285416 L-504559 285415 L-504348 285414 L-504156 285413 L-503862 285411 L-503821 285410 L-503668 285409 L-503614 285406 L-503382 285405 L-502802 285403 L-502608 285402 L-501989 285402 L-501500 285401 L-501448 285399 L-500799 285398 L-500649 285397 L-500480 285396 L-500107 285394 L-500091 285394 L-499992 285393 L-499954 285393 L-499823 285392 L-499390 285392 L-499087 285392 L-498701 285392 L-498561 285390 L-498399 285390 L-497966 285390 L-497927 285389 L-497825 285389 L-497710 285388 L-497532 285388 L-497362 285386 L-497244 285385 L-496882 285382 L-496665 285381 L-496532 285380 L-496392 285380 L-495893 285380 L-495815 285380 L-495581 285379 L-495257 285379 L-494870 285377 L-494848 285376 L-494227 285376 L-493957 285375 L-493724 285375 L-493300 285373 L-493028 285372 L-492886 285371 L-492677 285369 L-492472 285368 L-491920 285367 L-491790 285367 L-491403 285365 L-491133 285365 L-491030 285364 L-490769 285363 L-490568 285362 L-490498 285360 L-490460 285359 L-489892 285358 L-489685 285356 L-489658 285355 L-489429 285354 L-489352 285352 L-488835 285351 L-488796 285350 L-488641 285348 L-488347 285347 L-488076 285346 L-487712 285345 L-487364 285345 L-486992 285343 L-486871 285343 L-486800 285342 L-486320 285341 L-486257 285339 L-485922 285338 L-485791 285337 L-485714 285335 L-485584 285334 L-485120 285334 L-484827 285333 L-484750 285333 L-484438 285332 L-484130 285330 L-484067 285329 L-484037 285328 L-483262 285326 L-483158 285324 L-483070 285322 L-483047 285321 L-482893 285320 L-482671 285318 L-482504 285317 L-482118 285316 L-482063 285315 L-481999 285315 L-481382 285313 L-481265 285312 L-480942 285311 L-480416 285309 L-480066 285308 L-479990 285307 L-479370 285305 L-478959 285304 L-478658 285303 L-478348 285301 L-478210 285300 L-477585 285300 L-477204 285299 L-476080 285299 L-475020 285298 L-474957 285296 L-474597 285295 L-474495 285295 L-474479 285294 L-474106 285294 L-473100 285291 L-472714 285290 L-472506 285287 L-472418 285286 L-472042 285284 L-471749 285283 L-471438 285282 L-470649 285281 L-470561 285279 L-470509 285278 L-470470 285277 L-469953 285275 L-469837 285274 L-469629 285273 L-469489 285271 L-468886 285270 L-468057 285269 L-467773 285268 L-467591 285268 L-467090 285266 L-466885 285266 L-466331 285266 L-465825 285265 L-465634 285264 L-465596 285262 L-464967 285261 L-464514 285260 L-464099 285258 L-463491 285257 L-462370 285257 L-461957 285256 L-461633 285256 L-461418 285254 L-460991 285253 L-460851 285252 L-460760 285251 L-460528 285249 L-459942 285249 L-459134 285248 L-457934 285248 L-457821 285248 L-457688 285247 L-457601 285245 L-457559 285247 L-457538 285248 L-457528 285251 L-457433 285253 L-456669 285253 L-455963 285253 L-455923 285252 L-455637 285251 L-455097 285249 L-455035 285248 L-454995 285247 L-454980 285245 L-454723 285244 L-454400 285243 L-454260 285241 L-453990 285240 L-453951 285239 L-453843 285237 L-453442 285236 L-453332 285235 L-453255 285234 L-452958 285232 L-452915 285231 L-452697 285231 L-452513 285231 L-452402 285231 L-452388 285230 L-452362 285230 L-451938 285228 L-451691 285227 L-451356 285226 L-451321 285224 L-451186 285223 L-450933 285223 L-450778 285222 L-449872 285222 L-449773 285220 L-449578 285218 L-448570 285217 L-448070 285215 L-447991 285214 L-447953 285213 L-447745 285211 L-447627 285210 L-447528 285209 L-447343 285207 L-447177 285206 L-446941 285205 L-446522 285204 L-446506 285202 L-446197 285201 L-445152 285200 L-444934 285198 L-444919 285197 L-444896 285196 L-444688 285194 L-444529 285193 L-444470 285192 L-443025 285190 L-442699 285190 L-442497 285190 L-442299 285190 L-442148 285190 L-441878 285189 L-441437 285188 L-441219 285188 L-440525 285187 L-440022 285185 L-439697 285184 L-439426 285184 L-438706 285183 L-438551 285183 L-437352 285180 L-436963 285179 L-436848 285176 L-436694 285175 L-436541 285173 L-435570 285172 L-435518 285171 L-435271 285170 L-435249 285168 L-435029 285167 L-434590 285164 L-434451 285162 L-434343 285159 L-434141 285158 L-434024 285156 L-433922 285155 L-433907 285155 L-433775 285154 L-433521 285153 L-432903 285151 L-432243 285150 L-431998 285150 L-431805 285149 L-431046 285149 L-431006 285149 L-430928 285147 L-430876 285145 L-430837 285143 L-430799 285142 L-430760 285141 L-430669 285140 L-430624 285138 L-430566 285136 L-430542 285134 L-430427 285133 L-430117 285130 L-430062 285129 L-430040 285128 L-429698 285126 L-429533 285125 L-429498 285123 L-429457 285121 L-429442 285120 L-429211 285119 L-429070 285117 L-428902 285116 L-428453 285116 L-428219 285116 L-428127 285116 L-428107 285117 L-427626 285116 L-427548 285116 L-427421 285115 L-427291 285112 L-426913 285111 L-426672 285108 L-426634 285107 L-426580 285106 L-426442 285103 L-426403 285102 L-426363 285100 L-426132 285099 L-426092 285098 L-425962 285096 L-425783 285095 L-425743 285094 L-425729 285092 L-425564 285091 L-425550 285090 L-425397 285089 L-425382 285087 L-425356 285086 L-425321 285085 L-425099 285082 L-424877 285082 L-424623 285081 L-424491 285082 L-423848 285082 L-423241 285081 L-422221 285081 L-422028 285079 L-421977 285078 L-421852 285077 L-421528 285076 L-420755 285074 L-420697 285073 L-420583 285072 L-420172 285070 L-419847 285069 L-419709 285068 L-419485 285066 L-418959 285065 L-418557 285065 L-418526 285064 L-418239 285064 L-417954 285062 L-417566 285061 L-417350 285060 L-416922 285057 L-416741 285056 L-416405 285055 L-416298 285053 L-416112 285053 L-415995 285052 L-415980 285052 L-415259 285051 L-415090 285049 L-414841 285048 L-414741 285047 L-414099 285045 L-413811 285044 L-413620 285043 L-413345 285042 L-413028 285040 L-412743 285039 L-412629 285036 L-412584 285035 L-412382 285034 L-410774 285032 L-410561 285031 L-409880 285030 L-409798 285028 L-409570 285027 L-409379 285027 L-409240 285026 L-409222 285026 L-409029 285026 L-408799 285026 L-408606 285026 L-407522 285025 L-407327 285025 L-407274 285025 L-407120 285025 L-407012 285025 L-406846 285025 L-406693 285023 L-406578 285022 L-406454 285019 L-406037 285018 L-405780 285015 L-405688 285014 L-405495 285014 L-405433 285013 L-405108 285013 L-405046 285013 L-404989 285012 L-404720 285010 L-404372 285009 L-404194 285008 L-403999 285006 L-403964 285008 L-403251 285008 L-403211 285010 L-402902 285012 L-402604 285013 L-402555 285014 L-402299 285015 L-402028 285017 L-401973 285017 L-400882 285017 L-400851 285015 L-400811 285015 L-400634 285015 L-400442 285014 L-399584 285014 L-398530 285013 L-398470 285012 L-398121 285010 L-397308 285010 L-396495 285010 L-396479 285010 L-396104 285010 L-395936 285010 L-395667 285010 L-395340 285009 L-395218 285008 L-395161 285008 L-395125 285006 L-395048 285006 L-394831 285005 L-394773 285004 L-394457 285002 L-394289 285001 L-393926 285001 L-393733 285001 L-393709 285001 L-393632 285000 L-393151 285000 L-393013 285000 L-392600 284998 L-392301 284998 L-392202 284997 L-392186 284996 L-392157 284995 L-391798 284993 L-391448 284992 L-391310 284991 L-391273 284991 L-390457 284989 L-390250 284988 L-390226 284987 L-390070 284987 L-389980 284985 L-389739 284985 L-389415 284984 L-389322 284984 L-389126 284983 L-388840 284983 L-388084 284981 L-387955 284980 L-387882 284979 L-387269 284978 L-387093 284976 L-386982 284975 L-386883 284974 L-386804 284972 L-386667 284971 L-386512 284971 L-386433 284971 L-386242 284971 L-385569 284971 L-385531 284970 L-385428 284968 L-384485 284967 L-384463 284966 L-384112 284964 L-383647 284963 L-383611 284962 L-383182 284961 L-383131 284961 L-382720 284959 L-382703 284959 L-382607 284959 L-382551 284959 L-382513 284959 L-382218 284958 L-380479 284957 L-378969 284955 L-378462 284954 L-377964 284953 L-377830 284951 L-377739 284950 L-377612 284949 L-377533 284946 L-377227 284945 L-376957 284944 L-376723 284944 L-375524 284942 L-375419 284942 L-375353 284941 L-374512 284940 L-374326 284938 L-373415 284937 L-372545 284934 L-372258 284933 L-372165 284931 L-371616 284929 L-371096 284928 L-370028 284927 L-369759 284925 L-369606 284925 L-369513 284925 L-369383 284927 L-369335 284928 L-369176 284928 L-368310 284928 L-367975 284928 L-367592 284927 L-366839 284925 L-366780 284924 L-366391 284924 L-366069 284924 L-365912 284923 L-365180 284923 L-365117 284923 L-364830 284923 L-364456 284923 L-364275 284923 L-364019 284921 L-363757 284919 L-363605 284917 L-363201 284916 L-361904 284915 L-361789 284914 L-361325 284912 L-359993 284911 L-359569 284910 L-359545 284908 L-359412 284907 L-359236 284906 L-359103 284906 L-358773 284904 L-358385 284903 L-358346 284902 L-358330 284899 L-357939 284898 L-357647 284897 L-357379 284897 L-357205 284897 L-355712 284897 L-355661 284895 L-355584 284897 L-354344 284898 L-354268 284898 L-354242 284900 L-353995 284899 L-353838 284899 L-353779 284898 L-352892 284898 L-352663 284897 L-352140 284897 L-351998 284898 L-351923 284898 L-351226 284899 L-350979 284899 L-350298 284898 L-350281 284898 L-350027 284897 L-349659 284897 L-349524 284895 L-348901 284893 L-348558 284891 L-348511 284890 L-348024 284889 L-347689 284886 L-347473 284886 L-347338 284885 L-347017 284883 L-346953 284883 L-346701 284882 L-346411 284881 L-346102 284880 L-345962 284878 L-345423 284877 L-345147 284876 L-344417 284874 L-344364 284874 L-344257 284874 L-343991 284874 L-343566 284874 L-343302 284873 L-343083 284872 L-343062 284870 L-342831 284869 L-342543 284868 L-342520 284868 L-342506 284867 L-342133 284867 L-341962 284865 L-341886 284863 L-341825 284861 L-341524 284859 L-341283 284856 L-341190 284855 L-340933 284853 L-340880 284852 L-340685 284851 L-340469 284852 L-340045 284852 L-339953 284853 L-339812 284852 L-338948 284851 L-338574 284850 L-338246 284847 L-338094 284846 L-337667 284846 L-336949 284844 L-336754 284844 L-336400 284843 L-336253 284842 L-335747 284839 L-335510 284838 L-334543 284836 L-334534 284835 L-333468 284834 L-333236 284833 L-332834 284831 L-332640 284830 L-332560 284829 L-332464 284827 L-331726 284827 L-331594 284827 L-331204 284827 L-331182 284826 L-331087 284826 L-330952 284825 L-330935 284823 L-330915 284822 L-329230 284821 L-329212 284821 L-329095 284819 L-329010 284819 L-328886 284819 L-328862 284818 L-328578 284817 L-328471 284816 L-328283 284813 L-328012 284812 L-327340 284810 L-326968 284809 L-326117 284809 L-326059 284808 L-326039 284808 L-325806 284808 L-325532 284806 L-325226 284806 L-325187 284804 L-324956 284804 L-324718 284803 L-324105 284801 L-324065 284800 L-324027 284797 L-323506 284796 L-323314 284795 L-323254 284793 L-323211 284792 L-322889 284792 L-322861 284791 L-322846 284791 L-322361 284789 L-322308 284788 L-322169 284787 L-322131 284786 L-322114 284784 L-322020 284783 L-321355 284783 L-320739 284782 L-320469 284782 L-320061 284782 L-320040 284780 L-320025 284780 L-319911 284779 L-319524 284778 L-319058 284778 L-318997 284776 L-318918 284775 L-318903 284774 L-318417 284771 L-318378 284770 L-318232 284770 L-318183 284769 L-318104 284770 L-317472 284769 L-317381 284769 L-317140 284769 L-317023 284767 L-316696 284767 L-315941 284766 L-315925 284766 L-314973 284766 L-314664 284765 L-314239 284763 L-313525 284762 L-313207 284761 L-313192 284759 L-313041 284757 L-312737 284755 L-312659 284754 L-312532 284753 L-312095 284753 L-312035 284753 L-311512 284753 L-311243 284753 L-311106 284752 L-311028 284750 L-310989 284749 L-310177 284749 L-310137 284749 L-309697 284749 L-309618 284749 L-309361 284748 L-309170 284746 L-308541 284745 L-308354 284744 L-308320 284741 L-308164 284740 L-307762 284737 L-307685 284736 L-307504 284735 L-307314 284733 L-306385 284731 L-306235 284729 L-305027 284728 L-304217 284727 L-303814 284725 L-303211 284724 L-303009 284723 L-302940 284722 L-302782 284720 L-302521 284719 L-302148 285889 L-302129 285888 L-301972 285888 L-300774 285888 L-299670 284716 L-298743 284715 L-298629 284714 L-298343 284712 L-298241 284711 L-298217 284711 L-298027 284708 L-297950 284707 L-297754 284707 L-297042 284707 L-296884 284708 L-295827 284708 L-295402 284708 L-294992 284707 L-294706 284705 L-294532 284703 L-294300 284702 L-294046 284701 L-293603 284699 L-292942 284698 L-292767 284697 L-292462 284695 L-292075 284694 L-292055 284693 L-292035 284691 L-292014 284690 L-291880 284689 L-291688 284688 L-290044 284686 L-288748 284685 L-288709 284684 L-288651 284682 L-288550 284681 L-287990 284680 L-287006 284678 L-286464 284676 L-286000 284675 L-285355 284673 L-284805 284672 L-283756 284671 L-282827 284669 L-282479 284668 L-282286 284667 L-281783 284665 L-281338 284665 L-281196 284664 L-281174 284664 L-280603 284664 L-280218 284661 L-279384 284660 L-279035 284659 L-279014 284658 L-278626 284658 L-278203 284656 L-277605 284655 L-277586 284654 L-277080 284654 L-276848 284652 L-276734 284652 L-276116 284650 L-275554 284648 L-275514 284647 L-274955 284646 L-274622 284644 L-274509 284644 L-274470 284643 L-274045 284643 L-273986 284643 L-273910 284642 L-273619 284642 L-273407 284641 L-272923 284638 L-272708 284637 L-271569 284635 L-271510 284634 L-271492 284633 L-271086 284631 L-270447 284630 L-270312 284629 L-270253 284627 L-269712 284626 L-269402 284625 L-269151 284625 L-269075 284624 L-268956 284622 L-268223 284620 L-267777 284618 L-267563 284617 L-266830 284616 L-266655 284614 L-266290 284614 L-266075 284614 L-264837 284614 L-264527 284614 L-264411 284614 L-264158 284613 L-263947 284612 L-263405 284611 L-263173 284609 L-263115 284609 L-263018 284608 L-262689 284608 L-262456 284607 L-260794 284605 L-260443 284604 L-260039 284601 L-259884 284600 L-259092 284599 L-257601 284597 L-257214 284596 L-257176 284595 L-256922 284594 L-256827 284592 L-256634 284591 L-256286 284591 L-255590 284590 L-255339 284590 L-254623 284588 L-253210 284587 L-252978 284586 L-252649 284586 L-251432 284586 L-251081 284587 L-250889 284588 L-250771 284590 L-248336 284590 L-247366 284588 L-246536 284587 L-246226 284586 L-244884 284584 L-244311 284583 L-244196 284582 L-243866 284582 L-243770 284580 L-243363 284580 L-243247 284579 L-243056 284578 L-242300 284577 L-242174 284575 L-241893 284574 L-241390 284573 L-241313 284571 L-239726 284578 L-239669 284584 L-238927 284592 L-238546 284599 L-238218 284597 L-237555 284596 L-237424 284595 L-237385 284595 L-237134 284595 L-236999 284595 L-236806 284594 L-236670 284594 L-236419 284591 L-236206 284591 L-235896 284590 L-235624 284590 L-235122 284590 L-235103 284590 L-234670 284588 L-234444 284587 L-234000 284586 L-233981 284584 L-233478 284583 L-233340 284582 L-233226 284580 L-232995 284579 L-232684 284578 L-232220 284577 L-232143 284575 L-231640 284574 L-231369 284573 L-231032 284571 L-230847 284570 L-230170 284569 L-230151 284569 L-229976 284567 L-229956 284566 L-229339 284565 L-228623 284563 L-228061 284562 L-227866 284562 L-227712 284561 L-227694 284561 L-227170 284558 L-227056 284557 L-226184 284556 L-226163 284554 L-226107 284553 L-225275 284552 L-224965 284550 L-224889 284549 L-224617 284548 L-224555 284548 L-224504 284545 L-224192 284543 L-223575 284540 L-222800 284539 L-222006 284537 L-221968 284536 L-221890 284535 L-221718 284533 L-220840 284532 L-219956 284531 L-219861 284530 L-219741 284528 L-219412 284527 L-219375 284527 L-219143 284526 L-218910 284526 L-218195 284523 L-217692 284522 L-217027 284520 L-216918 284519 L-216764 284518 L-216744 284516 L-216590 284515 L-216174 284514 L-215563 284513 L-215429 284511 L-214520 284510 L-214317 284509 L-213765 284507 L-211115 284506 L-210941 284505 L-210863 284502 L-209992 284501 L-209528 284499 L-209045 284498 L-209006 284496 L-208426 284494 L-208406 284493 L-207304 284492 L-205882 284490 L-205464 284489 L-205157 284488 L-205080 284486 L-205004 284485 L-204846 284484 L-204770 284483 L-204306 284481 L-203068 284480 L-202816 284479 L-202371 284477 L-201749 284476 L-201694 284475 L-201500 284475 L-201035 284473 L-200745 284471 L-200704 284468 L-200667 284466 L-200514 284463 L-200337 284462 L-199199 284459 L-198811 284458 L-198754 284456 L-198580 284455 L-196062 284452 L-194902 284451 L-194265 284450 L-194126 284449 L-193994 284446 L-193607 284445 L-193143 284443 L-192932 284441 L-192867 284439 L-192833 284438 L-192079 284437 L-191497 284435 L-191306 284434 L-190687 284433 L-190641 284432 L-190280 284430 L-190174 284429 L-189989 284428 L-189712 284426 L-188808 284425 L-187804 284424 L-187069 284422 L-186643 284421 L-186483 284420 L-186120 284418 L-186023 284417 L-185579 284416 L-185504 284415 L-185151 284415 L-184902 284412 L-184882 284409 L-184709 284407 L-183760 284403 L-183646 284402 L-183084 284400 L-182634 284399 L-182249 284398 L-181338 284396 L-181282 284395 L-180143 284394 L-179563 284391 L-179388 284390 L-178594 284387 L-178363 284386 L-177976 284385 L-177706 284383 L-177570 284382 L-177454 284381 L-176835 284381 L-176777 284381 L-176562 284381 L-176268 284381 L-175480 284379 L-175340 284379 L-173951 284378 L-173605 284378 L-173218 284377 L-173157 284374 L-173120 284373 L-173063 284371 L-172420 284370 L-171728 284369 L-171476 284369 L-171141 284368 L-171051 284368 L-170531 284366 L-170277 284365 L-170062 284362 L-169678 284361 L-169518 284360 L-168980 284357 L-168167 284356 L-168148 284354 L-168033 284354 L-167888 284353 L-167508 284353 L-167315 284353 L-167259 284352 L-166960 284351 L-166893 284349 L-166698 284348 L-166331 284347 L-166269 284345 L-165965 284344 L-165920 284344 L-165866 284343 L-165228 284343 L-165208 284341 L-164723 284340 L-164241 284341 L-163872 284341 L-163506 284343 L-163371 284343 L-163217 284341 L-163147 284340 L-162500 284340 L-162480 284339 L-162339 284339 L-161854 284338 L-161571 284338 L-161514 284336 L-161456 284336 L-161146 284335 L-160991 284334 L-160508 284334 L-159734 284334 L-159094 284334 L-158997 284332 L-157934 284332 L-157913 284331 L-157448 285908 L-157432 285908 L-157258 285908 L-156745 285908 L-154391 284330 L-153447 284328 L-152728 284327 L-152187 284324 L-151490 284323 L-151174 284322 L-150525 284321 L-150018 284319 L-149983 284318 L-149941 284317 L-149596 284315 L-148901 284314 L-148704 284313 L-148688 284310 L-148571 284309 L-148290 284307 L-147392 284305 L-147346 284304 L-146980 284301 L-146963 284300 L-146908 284298 L-146714 284297 L-146578 284296 L-146503 284294 L-146269 284293 L-145728 284292 L-145688 284290 L-145651 284289 L-145625 284288 L-144990 284285 L-144448 284284 L-143283 284283 L-142923 284281 L-141646 284281 L-141607 284280 L-141568 284280 L-141353 284279 L-141163 284277 L-141086 284276 L-140932 284275 L-140892 284274 L-139804 284272 L-139479 284272 L-139265 284271 L-139005 284271 L-138512 284271 L-138490 284276 L-138073 284281 L-137932 284285 L-137872 284290 L-137794 284290 L-137584 284289 L-136289 284289 L-136013 284288 L-135388 284287 L-133997 284285 L-133925 284284 L-133887 284281 L-133694 284280 L-133304 284279 L-132996 284277 L-132940 284276 L-132625 284276 L-132575 284276 L-132536 284275 L-132490 284274 L-131857 284272 L-131083 284271 L-130645 284270 L-130503 285861 L-130479 285859 L-130463 287450 L-130438 287450 L-130020 285859 L-129817 285858 L-129668 284266 L-129589 284264 L-129535 284263 L-128738 284263 L-128722 284263 L-127858 284263 L-127654 284263 L-127367 284262 L-127252 284260 L-126726 284259 L-126550 284258 L-126246 284257 L-125859 284255 L-125798 284253 L-125743 284251 L-125588 284250 L-124544 284249 L-123981 284249 L-123745 284247 L-123709 284247 L-123439 284247 L-123034 284246 L-121564 284245 L-119823 284243 L-119436 284242 L-119204 284241 L-119105 284240 L-119011 284238 L-118856 284236 L-118293 284236 L-118210 284234 L-118044 284234 L-117501 284236 L-116317 284236 L-116302 284236 L-116243 284236 L-116091 284234 L-115606 284233 L-114960 284232 L-114253 284229 L-114137 284228 L-113170 284226 L-113125 284225 L-112434 284225 L-112377 284224 L-112299 284224 L-112280 284223 L-112259 284221 L-112044 284220 L-111330 284220 L-110941 284219 L-110904 284217 L-110887 284216 L-110829 284215 L-110401 284213 L-110187 284212 L-110112 284210 L-110035 284208 L-109920 284207 L-109854 284207 L-109726 284206 L-109666 284206 L-109591 284203 L-109512 284202 L-109084 284200 L-108358 284199 L-108345 284196 L-108178 284195 L-107961 284193 L-107946 284190 L-107366 284189 L-107094 284187 L-106806 284186 L-106376 284185 L-106222 284183 L-106166 284182 L-105989 284181 L-104594 284179 L-104328 284177 L-103436 284174 L-102910 284173 L-101891 284170 L-101809 284169 L-101346 284168 L-100726 284168 L-100440 284166 L-100187 284166 L-100035 284165 L-99686 284164 L-98970 284162 L-98408 284161 L-97520 284160 L-97211 284160 L-96920 284160 L-96067 284160 L-96047 284160 L-95390 284160 L-94886 284157 L-94676 284156 L-94656 284155 L-94326 284153 L-94268 284153 L-93881 284153 L-92896 284153 L-92334 284153 L-92237 284153 L-91929 284152 L-91851 284152 L-90817 284151 L-90686 284149 L-90630 284148 L-89994 284147 L-89935 284146 L-89860 284144 L-88446 284143 L-88309 284142 L-88176 284140 L-87690 284139 L-87440 284138 L-87150 284136 L-86937 284135 L-86280 284134 L-85712 284131 L-85622 284130 L-85483 284129 L-85408 284127 L-84243 284127 L-84211 284126 L-83782 284126 L-83765 284125 L-83590 284123 L-82063 284122 L-81978 284123 L-81173 284123 L-80979 284123 L-80958 284123 L-80105 284122 L-79911 284121 L-79277 284119 L-79101 284118 L-78982 284117 L-78929 284117 L-78907 284117 L-78851 284117 L-78463 284117 L-78019 284117 L-77941 284115 L-77744 284115 L-77682 284114 L-77420 284113 L-77071 284113 L-76955 284112 L-75807 284112 L-75522 284110 L-75078 284109 L-73874 284108 L-73744 284106 L-73434 284105 L-73006 284104 L-71709 284102 L-71400 285636 L-71384 285636 L-71337 285666 L-71288 285666 L-70360 284130 L-70029 284130 L-69481 284098 L-69353 284097 L-68907 284096 L-67374 284095 L-67206 284093 L-66934 284092 L-66910 284089 L-66005 284088 L-65890 284087 L-65423 284085 L-65401 284084 L-65328 284083 L-65130 284082 L-64978 284080 L-64511 284079 L-63859 284078 L-63373 284076 L-62823 284076 L-61801 284076 L-61495 284076 L-61440 284076 L-60840 284075 L-60410 284074 L-60336 284074 L-60319 284072 L-60098 284072 L-59793 284071 L-59711 284070 L-59408 284070 L-58808 284068 L-58672 284067 L-58401 284066 L-58187 284065 L-58012 284065 L-57803 284065 L-57782 284065 L-57533 284080 L-57083 284096 L-57067 284112 L-56622 284127 L-55413 284127 L-55211 284126 L-54283 284126 L-54221 284125 L-54187 284123 L-53161 284122 L-53045 284122 L-53025 284121 L-52870 284121 L-52851 284121 L-52440 284119 L-52424 284119 L-52387 284118 L-52077 284117 L-51923 284115 L-51718 284115 L-51319 284114 L-50336 284114 L-49812 284114 L-49755 284113 L-49729 284113 L-49408 284112 L-48691 284112 L-47821 284112 L-47783 284112 L-47706 284112 L-47454 284110 L-47434 284109 L-46712 284109 L-46562 284108 L-46449 284108 L-46352 284106 L-45249 284105 L-44494 284104 L-44322 284102 L-44161 284101 L-44085 284100 L-43892 284100 L-42753 284098 L-42069 284098 L-41786 284097 L-40819 284096 L-40800 284095 L-39949 284093 L-39909 284092 L-39766 284091 L-39441 284089 L-39212 284088 L-39174 284087 L-39133 284085 L-39116 284083 L-38980 284082 L-38962 284080 L-38750 284079 L-38690 284078 L-38612 284076 L-38588 284075 L-38513 284074 L-38033 284072 L-37937 284071 L-37861 284070 L-37684 284068 L-37662 284067 L-37607 284066 L-37568 284065 L-37509 284063 L-37354 284062 L-36331 284061 L-36031 284059 L-35905 284058 L-35827 284057 L-34801 284055 L-34744 284054 L-34687 284053 L-34641 284051 L-34627 284050 L-34590 284049 L-34551 284048 L-33371 284046 L-33313 284045 L-32616 284045 L-31997 284044 L-31854 284044 L-31411 284042 L-31146 284041 L-30483 284041 L-30198 284040 L-28728 284040 L-27780 284038 L-27674 284037 L-27608 284037 L-27578 284036 L-27258 284034 L-27237 284034 L-26308 284034 L-26133 284036 L-25401 284037 L-24860 213684 L-24837 143329 L-24811 72974 L-24778 2619 L-24762 2618 L-24741 2615 L-24703 2612 L-24683 2612 L-24660 2615 L-24646 2616 L-24627 2618 L-24606 2618 L-24585 2615 L-24568 2614 L-24548 2612 L-24529 2612 L-24491 2612 L-24451 2610 L-24425 2607 L-24409 2603 L-24391 2601 L-24354 2598 L-24336 2597 L-24316 2595 L-24297 2594 L-24276 2591 L-24259 2590 L-24220 2586 L-24197 2582 L-24181 2581 L-24163 2578 L-24142 2577 L-24123 2576 L-24104 2573 L-24065 2572 L-24008 2571 L-23960 2568 L-23908 2567 L-23881 2564 L-23865 2561 L-23849 2560 L-23833 2559 L-23812 2557 L-23794 2557 L-23774 2555 L-23755 2554 L-23732 2551 L-23717 2547 L-23698 2544 L-23678 2543 L-23656 2540 L-23620 2538 L-23601 2535 L-23580 2533 L-23544 2530 L-23522 2529 L-23497 2527 L-23481 2526 L-23463 2523 L-23446 2517 L-23425 2510 L-23407 2503 L-23388 2497 L-23368 2493 L-23311 2491 L-23291 2487 L-23268 2484 L-23234 2480 L-23214 2476 L-23194 2474 L-23175 2471 L-23157 2470 L-23117 2469 L-23098 2466 L-23079 2463 L-23053 2462 L-22866 2459 L-22846 2457 L-22826 2456 L-22804 2453 L-22770 2450 L-22749 2448 L-22728 2444 L-22711 2440 L-22691 2436 L-22672 2432 L-22651 2429 L-22634 2427 L-22615 2424 L-22594 2422 L-22568 2419 L-22552 2416 L-22517 2414 L-22497 2412 L-22479 2410 L-22459 2409 L-22440 2406 L-22419 2403 L-22382 2401 L-22362 2398 L-22340 2395 L-22324 2393 L-22305 2390 L-22285 2388 L-22266 2386 L-22228 2384 L-22151 2382 L-22125 2380 L-22102 2377 L-22075 2373 L-22052 2371 L-22025 2368 L-21976 2365 L-21955 2364 L-21917 2360 L-21898 2358 L-21876 2356 L-21860 2354 L-21841 2352 L-21821 2351 L-21800 2350 L-21764 2347 L-21744 2346 L-21686 2345 L-21665 2343 L-21640 2343 L-21626 2342 L-21608 2342 L-21570 2341 L-21550 2338 L-21532 2335 L-21512 2333 L-21492 2330 L-21473 2328 L-21454 2324 L-21434 2321 L-21413 2318 L-21377 2316 L-21357 2314 L-21338 2313 L-21300 2312 L-21261 2311 L-21241 2309 L-21222 2308 L-21174 2307 L-21146 2305 L-21106 2303 L-21076 2301 L-21061 2299 L-20989 2296 L-20970 2294 L-20947 2292 L-20931 2291 L-20913 2290 L-20872 2290 L-20796 2287 L-20777 2286 L-20758 2283 L-20737 2282 L-20711 2281 L-20680 2279 L-20661 2279 L-20641 2277 L-20603 2274 L-20562 2270 L-20484 2266 L-20448 2264 L-20409 2261 L-20331 2260 L-20312 2258 L-20267 2257 L-20245 2258 L-20217 2258 L-20178 2256 L-20147 2254 L-20132 2252 L-20118 2249 L-20078 2247 L-20017 2245 L-20002 2243 L-19983 2240 L-19963 2237 L-19886 2234 L-19848 2231 L-19829 2228 L-19783 2227 L-19766 2226 L-19748 2224 L-19731 2223 L-19693 2219 L-19673 2217 L-19654 2213 L-19632 2210 L-19616 2207 L-19577 2205 L-19539 2202 L-19520 2200 L-19500 2196 L-19480 2190 L-19461 2185 L-19442 2180 L-19422 2177 L-19403 2176 L-19339 2175 L-19317 2173 L-19289 2172 L-19265 2168 L-19238 2164 L-19222 2159 L-19206 2154 L-19169 2151 L-19151 2149 L-19131 2147 L-19112 2146 L-19089 2143 L-19074 2142 L-19054 2141 L-19035 2137 L-19013 2132 L-18997 2128 L-18977 2124 L-18958 2121 L-18937 2119 L-18919 2117 L-18901 2115 L-18854 2113 L-18838 2111 L-18819 2108 L-18803 2104 L-18782 2100 L-18764 2096 L-18745 2092 L-18725 2087 L-18687 2086 L-18668 2085 L-18625 2083 L-18610 2082 L-18591 2078 L-18571 2074 L-18533 2072 L-18514 2070 L-18494 2068 L-18455 2066 L-18436 2064 L-18410 2061 L-18360 2060 L-18323 2058 L-18307 2057 L-18262 2056 L-18223 2053 L-18203 2052 L-18183 2049 L-18160 2048 L-18145 2045 L-18126 2043 L-18084 2042 L-18068 2039 L-18029 2035 L-18008 2032 L-17991 2028 L-17951 2025 L-17925 2022 L-17909 2019 L-17875 2017 L-17854 2013 L-17836 2008 L-17816 2001 L-17775 1994 L-17759 1988 L-17681 1984 L-17663 1981 L-17623 1980 L-17604 1978 L-17585 1975 L-17565 1975 L-17546 1974 L-17527 1974 L-17431 1975 L-17406 1974 L-17379 1972 L-17348 1970 L-17333 1967 L-17312 1964 L-17274 1962 L-17255 1959 L-17232 1957 L-17217 1955 L-17198 1954 L-17178 1951 L-17156 1949 L-17139 1946 L-17119 1944 L-17101 1941 L-17080 1938 L-17062 1934 L-17043 1932 L-17022 1930 L-16997 1928 L-16980 1924 L-16962 1920 L-16925 1916 L-16907 1911 L-16887 1907 L-16869 1903 L-16847 1898 L-16810 1895 L-16791 1891 L-16768 1887 L-16753 1885 L-16734 1882 L-16714 1880 L-16675 1877 L-16637 1876 L-16617 1874 L-16598 1872 L-16553 1870 L-16451 1870 L-16436 1869 L-16304 1868 L-16288 1866 L-16269 1861 L-16249 1857 L-16227 1855 L-16191 1851 L-16172 1849 L-16151 1848 L-16094 1846 L-16068 1843 L-16052 1840 L-16035 1836 L-16018 1834 L-15998 1833 L-15979 1831 L-15940 1829 L-15918 1827 L-15882 1826 L-15863 1825 L-15840 1823 L-15785 1823 L-15766 1822 L-15708 1821 L-15669 1819 L-15603 1818 L-15575 1816 L-15552 1813 L-15525 1810 L-15492 1808 L-15476 1806 L-15455 1804 L-15437 1808 L-15418 1810 L-15398 1814 L-15377 1818 L-15360 1817 L-15264 1816 L-15205 1814 L-15165 1813 L-15140 1809 L-15109 1806 L-15070 1804 L-15032 1800 L-15012 1797 L-14973 1795 L-14934 1792 L-14896 1789 L-14877 1788 L-14838 1785 L-14818 1783 L-14799 1782 L-14779 1780 L-14760 1779 L-14741 1778 L-14722 1775 L-14695 1771 L-14646 1767 L-14606 1765 L-14576 1762 L-14561 1759 L-14547 1758 L-14509 1755 L-14489 1753 L-14447 1750 L-14431 1748 L-14413 1745 L-14372 1741 L-14335 1738 L-14296 1736 L-14258 1735 L-14211 1732 L-14197 1731 L-14122 1729 L-14083 1728 L-14063 1728 L-14045 1725 L-14026 1724 L-13928 1721 L-13890 1719 L-13832 1716 L-13812 1714 L-13794 1711 L-13767 1711 L-13745 1710 L-13679 1708 L-13662 1708 L-13646 1707 L-13633 1706 L-13597 1705 L-13540 1703 L-13517 1701 L-13483 1698 L-13463 1695 L-13425 1691 L-13404 1688 L-13386 1684 L-13365 1681 L-13348 1678 L-13329 1677 L-13308 1674 L-13283 1672 L-13232 1671 L-13211 1668 L-13154 1667 L-13135 1664 L-13038 1663 L-13020 1660 L-12980 1659 L-12961 1657 L-12942 1654 L-12904 1652 L-12884 1651 L-12865 1650 L-12817 1648 L-12765 1648 L-12738 1647 L-12722 1644 L-12706 1643 L-12690 1641 L-12651 1638 L-12631 1637 L-12612 1634 L-12554 1631 L-12535 1629 L-12512 1625 L-12496 1622 L-12476 1618 L-12458 1616 L-12401 1612 L-12379 1608 L-12354 1604 L-12319 1599 L-12303 1595 L-12283 1592 L-12265 1590 L-12245 1588 L-12226 1586 L-12204 1583 L-12187 1582 L-12167 1580 L-12148 1579 L-12126 1577 L-12110 1574 L-12091 1571 L-12071 1569 L-12051 1567 L-12014 1566 L-11994 1562 L-11974 1558 L-11909 1553 L-11888 1549 L-11860 1546 L-11820 1543 L-11789 1539 L-11774 1535 L-11741 1532 L-11703 1529 L-11683 1528 L-11660 1526 L-11645 1524 L-11626 1522 L-11606 1518 L-11568 1516 L-11548 1514 L-11508 1513 L-11451 1510 L-11425 1509 L-11390 1506 L-11375 1503 L-11353 1501 L-11336 1498 L-11297 1496 L-11275 1494 L-11259 1492 L-11239 1489 L-11220 1485 L-11197 1482 L-11182 1479 L-11163 1476 L-11085 1475 L-11065 1472 L-11045 1469 L-11027 1467 L-11008 1464 L-10982 1462 L-10908 1459 L-10882 1456 L-10866 1452 L-10849 1451 L-10833 1449 L-10812 1446 L-10794 1443 L-10755 1442 L-10732 1441 L-10717 1439 L-10698 1437 L-10678 1435 L-10656 1433 L-10639 1432 L-10544 1429 L-10522 1426 L-10497 1425 L-10463 1422 L-10446 1420 L-10425 1417 L-10407 1415 L-10387 1413 L-10369 1412 L-10347 1411 L-10330 1408 L-10311 1405 L-10291 1403 L-10269 1400 L-10253 1398 L-10234 1396 L-10194 1394 L-10175 1391 L-10137 1388 L-10079 1387 L-10053 1384 L-10031 1382 L-10003 1379 L-9979 1377 L-9953 1374 L-9921 1373 L-9904 1371 L-9884 1371 L-9866 1371 L-9846 1371 L-9826 1371 L-9788 1369 L-9769 1366 L-9750 1362 L-9728 1360 L-9692 1357 L-9672 1356 L-9652 1353 L-9634 1351 L-9615 1349 L-9594 1347 L-9568 1344 L-9553 1341 L-9535 1339 L-9518 1335 L-9497 1332 L-9479 1328 L-9460 1324 L-9440 1322 L-9382 1318 L-9362 1317 L-9340 1314 L-9247 1311 L-9208 1310 L-9189 1319 L-9169 1328 L-9151 1343 L-9053 1357 L-9026 1361 L-8994 1365 L-8976 1364 L-8876 1362 L-8860 1360 L-8841 1358 L-8821 1356 L-8801 1353 L-8783 1349 L-8764 1345 L-8744 1341 L-8724 1337 L-8686 1335 L-8666 1334 L-8608 1332 L-8589 1336 L-8570 1356 L-8550 1375 L-8532 1394 L-8512 1408 L-8491 1408 L-8434 1408 L-8413 1409 L-8377 1408 L-8357 1407 L-8300 1405 L-8280 1404 L-8241 1408 L-8222 1411 L-8195 1413 L-8146 1416 L-8106 1413 L-8047 1411 L-8027 1408 L-8009 1407 L-7970 1405 L-7931 1404 L-7893 1403 L-7815 1401 L-7796 1400 L-7777 1399 L-7680 1398 L-7661 1398 L-7583 1396 L-7526 1395 L-7467 1392 L-7428 1390 L-7409 1388 L-7390 1386 L-7371 1382 L-7245 1378 L-7163 1374 L-7149 1370 L-7134 1366 L-7097 1364 L-7060 1361 L-7040 1360 L-7017 1357 L-7002 1356 L-6984 1353 L-6925 1351 L-6905 1335 L-6886 1317 L-6865 1298 L-6848 1279 L-6829 1273 L-6808 1271 L-6782 1268 L-6766 1266 L-6748 1263 L-6732 1260 L-6711 1254 L-6693 1247 L-6673 1241 L-6633 1234 L-6596 1230 L-6577 1228 L-6554 1225 L-6520 1221 L-6480 1220 L-6461 1217 L-6422 1215 L-6403 1212 L-6384 1211 L-6365 1209 L-6339 1207 L-6317 1204 L-6265 1200 L-6238 1198 L-6222 1196 L-6206 1194 L-6190 1192 L-6169 1190 L-6151 1189 L-6131 1187 L-6055 1186 L-6035 1185 L-6013 1182 L-5996 1177 L-5977 1173 L-5937 1169 L-5901 1165 L-5879 1162 L-5854 1160 L-5837 1159 L-5819 1156 L-5782 1155 L-5764 1153 L-5744 1151 L-5726 1149 L-5704 1147 L-5687 1143 L-5668 1140 L-5648 1138 L-5625 1136 L-5571 1135 L-5551 1132 L-5533 1131 L-5474 1128 L-5410 1126 L-5388 1122 L-5310 1119 L-5277 1115 L-5241 1113 L-5223 1112 L-5203 1109 L-5160 1108 L-5146 1105 L-5106 1101 L-5085 1097 L-5068 1093 L-5048 1088 L-5008 1084 L-4991 1080 L-4972 1078 L-4951 1074 L-4925 1071 L-4909 1067 L-4890 1063 L-4853 1059 L-4816 1057 L-4797 1053 L-4775 1050 L-4739 1049 L-4696 1046 L-4642 1044 L-4604 1041 L-4585 1038 L-4565 1034 L-4545 1032 L-4482 1029 L-4407 1025 L-4364 1024 L-4348 1021 L-4333 1019 L-4294 1017 L-4274 1016 L-4231 1015 L-4217 1015 L-4198 1014 L-4178 1012 L-4156 1010 L-4139 1007 L-4120 1004 L-4079 1000 L-4043 997 L-4022 993 L-3997 989 L-3980 986 L-3962 983 L-3946 981 L-3924 73400 L-3894 73394 L-3868 73389 L-3846 73384 L-3830 957 L-3810 956 L-3791 953 L-3753 950 L-3734 946 L-3714 942 L-3694 936 L-3637 933 L-3617 929 L-3598 925 L-3553 923 L-3531 921 L-3503 918 L-3478 916 L-3451 913 L-3420 910 L-3383 908 L-3366 906 L-3346 904 L-3269 903 L-3249 901 L-3228 901 L-3211 903 L-3191 903 L-3094 904 L-3068 901 L-3052 900 L-3034 897 L-3018 893 L-2979 891 L-2959 888 L-2918 886 L-2882 884 L-2862 882 L-2840 880 L-2824 878 L-2785 876 L-2728 875 L-2688 872 L-2602 869 L-2575 866 L-2552 862 L-2510 858 L-2437 857 L-2418 855 L-2360 855 L-2341 857 L-2321 854 L-2301 852 L-2264 849 L-2224 846 L-2205 845 L-2166 845 L-2140 844 L-2089 842 L-2051 841 L-1991 839 L-1973 837 L-1954 835 L-1913 833 L-1838 829 L-1818 827 L-1800 822 L-1741 816 L-1722 812 L-1696 808 L-1674 806 L-1607 803 L-1577 802 L-1563 799 L-1527 798 L-1489 795 L-1448 793 L-1413 790 L-1392 788 L-1372 786 L-1354 785 L-1335 784 L-1315 782 L-1295 781 L-1277 780 L-1197 778 L-1141 777 L-1122 775 L-1103 773 L-1062 773 L-1045 773 L-984 773 L-948 772 L-928 769 L-890 768 L-851 765 L-832 763 L-794 760 L-678 758 L-646 756 L-631 754 L-597 751 L-580 750 L-560 747 L-517 746 L-483 743 L-425 742 L-404 739 L-365 739 L-308 738 L-283 737 L-265 734 L-232 731 L-210 729 L-192 726 L-173 724 L-116 721 L-96 718 L-54 716 L-38 713 L0 709 L19 705 L38 703 L77 700 L96 697 L115 696 L134 694 L182 691 L210 688 L235 687 L262 684 L278 682 L293 679 L330 675 L387 673 L425 669 L464 666 L486 663 L502 661 L523 657 L562 654 L580 652 L598 649 L620 645 L645 643 L663 639 L680 636 L696 632 L717 630 L735 627 L755 624 L773 623 L796 620 L812 618 L831 616 L874 611 L889 607 L908 602 L928 596 L948 590 L967 586 L1005 581 L1089 579 L1111 575 L1139 571 L1178 568 L1208 566 L1223 563 L1259 562 L1296 559 L1339 559 L1354 558 L1393 556 L1451 554 L1470 551 L1492 547 L1527 546 L1548 545 L1574 543 L1591 542 L1625 539 L1646 537 L1663 534 L1682 530 L1702 526 L1740 522 L1760 518 L1780 515 L1803 512 L1818 511 L1877 508 L1895 505 L1914 503 L1933 498 L1953 495 L1991 491 L2017 488 L2068 486 L2106 485 L2137 483 L2151 482 L2166 481 L2225 478 L2245 477 L2282 474 L2301 471 L2321 469 L2360 466 L2380 462 L2399 460 L2420 456 L2455 452 L2477 449 L2502 447 L2553 445 L2592 443 L2612 439 L2653 435 L2669 431 L2689 427 L2731 423 L2746 421 L2765 418 L2785 415 L2805 413 L2824 411 L2843 410 L2862 409 L2968 406 L3034 405 L3065 401 L3095 398 L3133 396 L3153 394 L3211 392 L3230 389 L3250 385 L3272 381 L3288 377 L3327 375 L3348 371 L3365 367 L3384 366 L3405 363 L3431 359 L3447 357 L3465 353 L3482 350 L3503 349 L3520 347 L3540 346 L3559 343 L3581 342 L3597 342 L3636 342 L3659 342 L3694 342 L3734 340 L3752 338 L3771 336 L3791 332 L3811 329 L3829 325 L3848 321 L3896 320 L3924 317 L3948 315 L3974 313 L4007 311 L4062 308 L4082 307 L4101 304 L4123 303 L4139 300 L4158 299 L4216 298 L4235 296 L4255 294 L4313 293 L4333 290 L4410 289 L4429 286 L4449 283 L4467 281 L4508 277 L4526 272 L4545 269 L4565 265 L4642 264 L4661 262 L4739 260 L4853 257 L4894 255 L4926 253 L4940 252 L4953 251 L4973 249 L4990 248 L5029 246 L5068 244 L5086 242 L5106 240 L5184 238 L5262 235 L5288 234 L5302 232 L5338 231 L5358 231 L5377 230 L5396 229 L5454 226 L5473 225 L5493 222 L5515 221 L5571 218 L5590 215 L5687 213 L5705 210 L5754 210 L5782 209 L5822 209 L5883 206 L5902 205 L5919 202 L5939 201 L5959 200 L5982 197 L5997 196 L6016 193 L6036 191 L6058 189 L6094 187 L6113 185 L6134 183 L6170 180 L6191 179 L6233 178 L6252 175 L6267 172 L6288 168 L6306 166 L6326 163 L6345 161 L6367 158 L6383 155 L6403 153 L6446 150 L6479 148 L6500 145" />
</svg>
