<svg xmlns="http://www.w3.org/2000/svg" version="1.1" viewBox="0 0 6500 1000">
	<path fill="none" stroke="gold" stroke-width="125" stroke-linecap="round" stroke-linejoin="round" d="M0 1338  L-26542 1338 L-26130 1170 L-25905 1254 L-25848 1170 L-25810 1003 L-25626 835 L-25136 668 L-24842 584 L-24531 500 L-24296 333 L-24243 165 L-24184 -1 L-24030 -85 L-23990 -169 L-23857 -252 L-23565 -169 L-23024 -252 L-22414 -420 L-22366 -252 L-21726 -420 L-21692 -336 L-21167 -504 L-21034 -587 L-20644 -922 L-20316 -1090 L-20199 -1257 L-19988 -1090 L-19271 -1174 L-18701 -1257 L-18593 -1341 L-18419 -1509 L-18198 -1676 L-17796 -1760 L-17770 -1927 L-16842 -2095 L-16755 -2262 L-16673 -2430 L-16603 -2597 L-16305 -2681 L-16153 -2765 L-14263 -2262 L-14162 -2514 L-13900 -2681 L-13606 -2514 L-13465 -2681 L-13216 -2765 L-13181 -2849 L-13022 -3016 L-12559 -3100 L-12306 -3268 L-12093 -3351 L-11842 -3435 L-11493 -3603 L-10566 -3770 L-10472 -3938 L-10061 -4021 L-8891 -4105 L-7701 -4273 L-7609 -4440 L-7582 -4608 L-7316 -4859 L-7017 -5026 L-6888 -5110 L-6851 -5278 L-6036 -4691 L-5652 -4775 L-4592 -4943 L-4530 -5026 L-4265 1757 L-3794 1673 L-3601 1505 L-3338 1422 L-3001 1338 L-2865 1422 L-2410 1170 L-1667 1087 L-1649 919 L-1484 835 L-1416 1003 L-900 919 L128 752 L324 584 L813 668 L1175 584 L1584 752 L1969 835 L3673 752 L3771 668 L3842 752 L3904 668 L4088 584 L4425 500 L5065 333 L5142 500 L5203 417 L5390 333 L5470 249 L5647 165 L5666 249 L5896 165 L6284 82" />
</svg>
