<svg xmlns="http://www.w3.org/2000/svg" version="1.1" viewBox="0 0 6500 1000">
	<path fill="none" stroke="gold" stroke-width="125" stroke-linecap="round" stroke-linejoin="round" d="M0 40431  L-361440 40431 L-361256 40402 L-360766 40343 L-360472 40313 L-360161 40255 L-359927 40225 L-359873 40166 L-359814 40107 L-359661 40078 L-359620 40019 L-359488 39989 L-359195 39960 L-358655 39960 L-358044 39931 L-357996 39931 L-357356 39901 L-357323 39901 L-356797 39901 L-356665 39872 L-356275 39813 L-355946 39754 L-355829 39695 L-355618 39636 L-354901 39636 L-354331 39607 L-354224 39607 L-354049 39577 L-353828 39518 L-353427 39489 L-353401 39430 L-352473 39371 L-352385 39312 L-352303 39253 L-352233 39194 L-351936 39165 L-351784 39106 L-349894 39135 L-349793 39135 L-349531 39135 L-349237 39165 L-349095 39106 L-348847 39106 L-348811 39076 L-348653 39047 L-348189 38988 L-347936 38959 L-347724 38900 L-347473 38870 L-347124 38841 L-346196 38782 L-346103 38723 L-345692 38693 L-344521 38635 L-343332 38605 L-343240 38546 L-343212 38487 L-342946 38428 L-342647 38369 L-342519 38311 L-342481 38252 L-341666 38252 L-341282 38281 L-340222 38311 L-340161 38311 L-339896 38900 L-339424 39459 L-339232 40019 L-338968 40579 L-338631 40549 L-338496 40520 L-338040 40490 L-337297 40461 L-337280 40431 L-337114 40372 L-337046 40372 L-336530 40343 L-335501 40343 L-335305 40313 L-334817 40284 L-334455 40255 L-334046 40255 L-333660 40284 L-331957 40284 L-331859 40284 L-331787 40284 L-331726 40284 L-331541 40255 L-331205 40255 L-330564 40225 L-330487 40196 L-330426 40196 L-330239 40166 L-330160 40166 L-329983 40137 L-329964 40107 L-329734 40107 L-329346 40078 L-328457 40078 L-328418 40048 L-328330 40019 L-328302 39960 L-327294 39931 L-327144 39872 L-327120 39842 L-326987 39813 L-326947 39783 L-325689 39754 L-325631 39754 L-325092 39724 L-325039 39724 L-324992 39724 L-324597 39695 L-324458 39665 L-324258 39636 L-324111 39636 L-323946 39636 L-323670 39665 L-323311 39665 L-322759 39636 L-322114 39607 L-321855 39548 L-321701 39518 L-321300 39489 L-321260 39459 L-321140 39430 L-321078 39459 L-321064 39459 L-320970 39459 L-320677 39430 L-320525 39312 L-320195 39253 L-320117 39194 L-320041 39165 L-319815 39076 L-319748 39017 L-319521 38959 L-319468 38900 L-319304 38870 L-318298 38841 L-318114 38811 L-317563 38782 L-317170 38723 L-316773 38693 L-315923 38635 L-315844 38605 L-315266 38576 L-314824 38576 L-314583 38546 L-314426 38546 L-314025 38487 L-314005 38487 L-313560 38458 L-313154 38428 L-313018 38369 L-312843 38311 L-312707 38252 L-312457 38193 L-311457 38163 L-311375 38134 L-311239 38104 L-311200 38075 L-310311 38045 L-310095 38016 L-309652 37987 L-309534 37957 L-309478 37928 L-308801 37928 L-308701 37898 L-308672 37898 L-307330 37869 L-306924 37839 L-306885 37810 L-305957 37780 L-305858 37751 L-305726 37721 L-305321 37692 L-305295 37663 L-305202 37633 L-304986 37604 L-304575 37545 L-303421 37486 L-303129 37427 L-303101 37368 L-302493 37339 L-302243 37280 L-302223 37250 L-301294 37221 L-301242 37162 L-301120 37132 L-301102 37073 L-300946 37044 L-300771 36985 L-300635 36956 L-300578 36926 L-300470 36897 L-300385 36867 L-300152 36838 L-300077 36808 L-299768 36779 L-299650 36749 L-299481 36720 L-299389 36691 L-299287 36691 L-299264 36661 L-299186 36661 L-299088 36602 L-298722 36573 L-298617 36543 L-298114 36514 L-297662 36484 L-297624 36455 L-297600 36425 L-297559 36396 L-297430 36367 L-297329 36337 L-296888 36308 L-296605 36278 L-296013 36249 L-295883 36219 L-295608 36160 L-295456 36131 L-295302 36101 L-295217 36043 L-295139 36013 L-294954 35984 L-294903 35984 L-294875 35954 L-294796 35925 L-294773 35895 L-294489 35836 L-293886 35777 L-292890 35748 L-292592 35718 L-291858 35689 L-291614 35660 L-291524 35630 L-290947 35601 L-290248 35571 L-289496 35542 L-289177 35512 L-288795 35453 L-288718 35424 L-288083 35394 L-287898 35365 L-287810 35365 L-287680 35365 L-287367 35336 L-287318 35306 L-287176 35277 L-287154 35247 L-286187 35218 L-285641 35188 L-285163 35188 L-285102 35188 L-284778 35188 L-284757 35159 L-284694 35159 L-284484 35129 L-284407 35100 L-284353 35070 L-284330 35041 L-284291 35012 L-284275 34982 L-283518 34953 L-283502 34923 L-282702 34894 L-282550 34864 L-281645 34835 L-281138 34805 L-280909 34746 L-280868 34746 L-280752 34717 L-280576 34688 L-279822 34717 L-279687 34688 L-279523 34658 L-279205 34629 L-279029 34570 L-278007 34511 L-277983 34452 L-277732 34422 L-277519 34364 L-276885 34334 L-276647 34275 L-276615 34216 L-276437 34157 L-276356 34098 L-276266 34069 L-276202 34010 L-275762 33951 L-275738 33922 L-275197 33892 L-274942 33863 L-274447 33833 L-273570 33804 L-273533 33774 L-273480 33745 L-273439 33716 L-273322 33686 L-273045 33657 L-272838 33598 L-272641 33539 L-272618 33480 L-272568 33421 L-272528 33392 L-272450 33362 L-271853 33303 L-271793 33274 L-271689 33244 L-271535 33215 L-270903 33185 L-270222 33156 L-269920 33097 L-269573 33068 L-269375 33038 L-269327 32979 L-269007 32950 L-268379 32920 L-268232 32891 L-268196 32861 L-268138 32832 L-268061 32773 L-267820 32773 L-267732 32744 L-267638 32714 L-267344 32685 L-267210 32655 L-267150 32626 L-267113 32567 L-266841 32567 L-265835 32537 L-265659 32508 L-265608 32508 L-265316 32478 L-265123 32420 L-264790 32390 L-264283 32361 L-263721 32302 L-263707 32243 L-263690 32213 L-263590 32154 L-263475 32096 L-263436 32037 L-263398 32007 L-263333 32007 L-263304 31978 L-263165 32007 L-262873 32007 L-262823 32007 L-262718 32007 L-262453 31978 L-261988 31948 L-261844 31948 L-261789 31889 L-261732 31860 L-261541 31830 L-261176 31801 L-260961 31801 L-260767 31801 L-260709 31801 L-260650 31742 L-260496 31713 L-260226 31683 L-259796 31830 L-259781 31830 L-259704 31801 L-259639 31772 L-259510 31565 L-259487 31536 L-259202 31506 L-259155 31477 L-259100 31448 L-258638 31418 L-258599 31418 L-258558 31389 L-258368 31359 L-257888 31330 L-257401 31300 L-257384 31271 L-257346 31241 L-257090 31212 L-257012 31153 L-256782 31124 L-256766 31065 L-256472 31006 L-256030 30976 L-255583 30947 L-255078 30917 L-254924 30888 L-254638 30858 L-254598 30800 L-254266 30770 L-254045 30741 L-253528 30682 L-253452 30652 L-253204 30593 L-253010 30534 L-252950 30505 L-252173 30475 L-252099 30475 L-251869 30446 L-251852 30446 L-251790 30417 L-251594 30387 L-251130 30387 L-251107 30358 L-250977 30358 L-249677 30358 L-249660 30358 L-249583 30328 L-249489 30328 L-249272 30328 L-249120 30299 L-248941 30328 L-248887 30358 L-248601 30387 L-248561 30387 L-248191 30387 L-247751 30387 L-247568 30387 L-247247 30358 L-246952 30358 L-246506 30299 L-246434 30269 L-245972 30210 L-245534 30181 L-245352 30151 L-243898 30093 L-243766 30063 L-243309 30004 L-243082 29975 L-242696 29916 L-242180 29857 L-241225 29798 L-240431 29739 L-239757 29710 L-239331 29651 L-239020 29621 L-238790 29533 L-238107 29445 L-238094 29356 L-237884 29238 L-237862 29209 L-237688 29150 L-236738 29121 L-236469 29062 L-235654 29032 L-235344 28973 L-235306 28944 L-235249 28885 L-234632 28855 L-233994 28797 L-232368 28767 L-231694 28738 L-231052 28738 L-230974 28738 L-230918 28738 L-230882 28738 L-230854 28708 L-230742 28649 L-230724 28620 L-230702 28590 L-230548 28561 L-230495 28502 L-230417 28473 L-230297 28443 L-230200 28414 L-230082 28384 L-229813 28325 L-229543 28296 L-229526 28237 L-229326 28207 L-229179 28149 L-228952 28119 L-228818 28090 L-228509 28060 L-228449 28031 L-228096 27972 L-227748 27942 L-227647 27913 L-227582 27854 L-227522 27825 L-227138 27766 L-226757 27736 L-226653 27707 L-226393 27677 L-226121 27618 L-225962 27589 L-225930 27559 L-225868 27530 L-225727 27501 L-225543 27471 L-225498 27442 L-225210 27442 L-225194 27412 L-224961 27412 L-224900 27383 L-224862 27383 L-224282 27353 L-224148 27324 L-224125 27206 L-224106 27000 L-224089 26764 L-224073 26529 L-224049 26293 L-224032 26116 L-224011 25910 L-223994 25704 L-223971 25586 L-223955 25468 L-223933 25380 L-223916 25321 L-223867 25232 L-223795 25144 L-223760 24997 L-223737 24879 L-223701 24761 L-223660 24643 L-223623 24584 L-223607 24467 L-223582 24378 L-223545 24319 L-223528 24231 L-223505 24172 L-223488 24113 L-223469 24054 L-223453 23995 L-223424 23907 L-223398 23819 L-223353 23789 L-223336 23730 L-223294 23701 L-223246 23642 L-223175 23583 L-223160 23524 L-223144 23465 L-223082 23436 L-223043 23406 L-223003 23377 L-222837 23347 L-222772 23318 L-222756 23288 L-222712 23230 L-222654 23200 L-222441 23171 L-222408 23141 L-222365 23112 L-222287 23082 L-221750 23053 L-221672 23023 L-221567 22964 L-221479 22935 L-221303 22906 L-220952 22876 L-220796 22847 L-220358 22817 L-220202 22788 L-220072 22758 L-219368 22699 L-219167 22670 L-218206 22611 L-217724 22582 L-217625 22582 L-217532 22552 L-217287 22523 L-217214 22493 L-216771 22434 L-216675 22405 L-216660 22375 L-216644 22346 L-216619 22316 L-216154 22287 L-215937 22258 L-215797 22228 L-215503 22199 L-215415 22169 L-215373 22140 L-215343 22110 L-215171 22081 L-215112 22051 L-215036 22022 L-214955 21992 L-214885 21992 L-214576 21963 L-214491 21934 L-214277 21904 L-214242 21875 L-213559 21845 L-213460 21816 L-213255 21786 L-213208 21757 L-212930 21727 L-212868 21698 L-212851 21639 L-212773 21610 L-212465 21551 L-212440 21521 L-212386 21462 L-212363 21433 L-212241 21403 L-212105 21344 L-211861 21315 L-211735 21315 L-211089 21286 L-211073 21286 L-211048 21286 L-210868 21227 L-210792 21197 L-210700 21168 L-210272 21138 L-209856 21109 L-209463 21050 L-209384 21020 L-209365 20991 L-209002 20962 L-208766 20932 L-208538 20903 L-208224 20873 L-208147 20844 L-208066 20785 L-207888 20726 L-207872 20696 L-207607 20637 L-207527 20608 L-207296 20579 L-207070 20549 L-206755 20549 L-206579 20520 L-206218 20520 L-205827 20490 L-205757 20431 L-205693 20402 L-205553 20343 L-205501 20313 L-205400 20255 L-204898 20225 L-204701 20196 L-204454 20166 L-204269 20137 L-203969 20107 L-203893 20078 L-203727 20019 L-202842 19989 L-202814 19931 L-202691 19872 L-202112 19842 L-202034 19813 L-201321 19813 L-201009 19813 L-200796 19813 L-200779 19813 L-200393 19813 L-199868 19754 L-199421 19724 L-199092 19695 L-198939 19665 L-198613 19665 L-198435 19636 L-198353 19636 L-198147 19577 L-197971 19548 L-197043 19518 L-196153 19489 L-196114 19459 L-195886 19459 L-195507 19430 L-194719 19400 L-194485 19371 L-194409 19341 L-194052 19312 L-193480 19253 L-193213 19224 L-192826 19194 L-192723 19194 L-192553 19194 L-191934 19194 L-191723 19194 L-191415 19194 L-191362 19165 L-191235 19135 L-191181 19106 L-191062 19076 L-190726 19017 L-189767 18988 L-189636 18929 L-189434 18900 L-188803 18870 L-188491 18841 L-188077 18811 L-188050 18782 L-187905 18752 L-187484 18723 L-186152 18723 L-186105 18693 L-185976 18635 L-185960 18605 L-185381 18546 L-185176 18517 L-185146 18487 L-185105 18458 L-185048 18428 L-185010 18399 L-184932 18369 L-184789 18340 L-184335 18311 L-184217 18281 L-183931 18252 L-183559 18222 L-183463 18193 L-183136 18163 L-182781 18134 L-182611 18104 L-182564 18075 L-182455 18045 L-182366 18016 L-182338 17987 L-182262 17928 L-181958 17898 L-181924 17839 L-181853 17810 L-181485 17780 L-181149 17751 L-181069 17751 L-180849 17721 L-180677 17692 L-180650 17663 L-180153 17633 L-179603 17574 L-178723 17545 L-178625 17486 L-178548 17456 L-178273 17427 L-178026 17368 L-177952 17339 L-177890 17280 L-177771 17250 L-177729 17221 L-177619 17191 L-177542 17132 L-176841 17103 L-176596 17073 L-176556 17044 L-176400 17015 L-175801 17015 L-175574 17015 L-175482 17015 L-175006 17015 L-174409 16956 L-173889 16926 L-173868 16897 L-173723 16867 L-173403 16867 L-172861 16867 L-172629 16867 L-172459 16867 L-171972 16838 L-171745 16808 L-171660 16779 L-171314 16749 L-170988 16749 L-170464 16720 L-170137 16691 L-169537 16661 L-169339 16602 L-169287 16573 L-169246 16543 L-168965 16514 L-168281 16455 L-167971 16425 L-167946 16367 L-167755 16337 L-167532 16308 L-167446 16278 L-166782 16219 L-166758 16190 L-166536 16131 L-166206 16101 L-165854 16043 L-165649 16013 L-165417 15954 L-165159 15925 L-164969 15866 L-164922 15836 L-164695 15807 L-164660 15777 L-164504 15748 L-164289 15718 L-164116 15689 L-164025 15660 L-163748 15630 L-163504 15601 L-163189 15571 L-162763 15571 L-162725 15571 L-162242 15571 L-162008 15571 L-161797 15542 L-161570 15512 L-161021 15512 L-160773 15483 L-159939 15483 L-159884 15453 L-159862 15424 L-159704 15394 L-159243 15365 L-159202 15336 L-158862 15277 L-158729 15247 L-158506 15218 L-157934 15188 L-157462 15159 L-157267 15129 L-157075 15100 L-156885 15070 L-156783 15041 L-156415 15012 L-156368 14982 L-156287 14953 L-154994 14923 L-154945 14894 L-154677 14894 L-154532 14894 L-153981 14894 L-153864 14864 L-153783 14835 L-153423 14805 L-153200 14776 L-152918 14746 L-152589 14688 L-152081 14658 L-151969 14629 L-151890 14599 L-151725 14570 L-151431 14570 L-150962 14570 L-150766 14599 L-150715 14599 L-150065 14570 L-149944 14540 L-149490 14540 L-149454 14511 L-148985 14481 L-148875 14452 L-148858 14422 L-148642 14422 L-148461 14393 L-147930 14393 L-146900 14393 L-146701 14364 L-146243 14334 L-145294 14275 L-145195 14246 L-144842 14187 L-144781 14157 L-144766 14128 L-144731 14098 L-144362 14069 L-144242 14040 L-144000 14010 L-143836 13981 L-143649 13951 L-143528 13922 L-142457 13863 L-141599 13833 L-141387 13774 L-141289 13745 L-141115 13686 L-140782 13657 L-140710 13627 L-140653 13598 L-140477 13598 L-140088 13568 L-139853 13539 L-139742 13509 L-139625 13480 L-138644 13450 L-138618 13421 L-138024 13362 L-137992 13362 L-137843 13333 L-137559 13303 L-136647 13303 L-135701 13303 L-135548 13274 L-135445 13274 L-135314 13244 L-135171 13215 L-135144 13185 L-135030 13156 L-134811 13126 L-134130 13097 L-134001 13068 L-133698 13038 L-133458 12979 L-133125 12950 L-132486 12920 L-132144 12861 L-132082 12832 L-131926 12832 L-131005 12832 L-130534 12832 L-130491 12832 L-130478 12802 L-130437 12773 L-130415 12744 L-130388 12714 L-130244 12685 L-129821 12655 L-129486 12655 L-129295 12626 L-128866 12626 L-128678 12596 L-128289 12537 L-127755 12508 L-127383 12478 L-127361 12478 L-127111 12449 L-126993 12420 L-126917 12390 L-126781 12361 L-126742 12331 L-126662 12302 L-126268 12272 L-125772 12243 L-125660 12184 L-125487 12154 L-125179 12125 L-124731 12096 L-124408 12066 L-124266 12007 L-123839 11948 L-123685 11889 L-123630 11830 L-122816 11801 L-122796 11772 L-122425 11742 L-122368 11742 L-121239 11713 L-121171 11713 L-120612 11683 L-120418 11654 L-120281 11624 L-120048 11595 L-119701 11565 L-119666 11506 L-119631 11477 L-119563 11418 L-119214 11389 L-119042 11359 L-118557 11330 L-118541 11300 L-118215 11271 L-118058 11241 L-116917 11182 L-116893 11153 L-116701 11094 L-116507 11065 L-116257 11035 L-116240 11006 L-115220 10976 L-114922 10947 L-114846 10917 L-114710 10858 L-114535 10829 L-113958 10770 L-113742 10741 L-113679 10711 L-113548 10682 L-113511 10623 L-112988 10593 L-112850 22199 L-112835 22199 L-112813 22199 L-112792 22199 L-112565 10564 L-111789 10564 L-111748 10564 L-111380 10564 L-111302 10534 L-111250 10505 L-110576 10475 L-109834 10446 L-109409 10446 L-108961 10417 L-107900 10387 L-107588 10328 L-107178 10328 L-107106 10299 L-106582 10299 L-106487 10299 L-106469 10299 L-106025 10269 L-105839 10210 L-105059 10151 L-104386 10122 L-103974 10034 L-103742 9975 L-103602 9945 L-103520 9886 L-103500 9857 L-103424 9857 L-103296 9827 L-102979 9857 L-102755 9857 L-102430 9827 L-102367 9827 L-101997 9827 L-101964 9827 L-101756 9827 L-101088 9827 L-101011 9827 L-100853 9769 L-100742 9769 L-100416 9739 L-100261 9710 L-99920 9710 L-99863 9651 L-99525 9592 L-99321 9562 L-99268 9503 L-97892 9474 L-97762 9445 L-97329 9415 L-97008 9386 L-96181 9327 L-96057 9297 L-95326 9238 L-95170 9179 L-95130 9150 L-95076 9121 L-95053 9091 L-94939 9062 L-94642 9032 L-94353 9003 L-94298 8973 L-94178 8944 L-94147 8914 L-94048 8885 L-93604 8885 L-93452 8855 L-92617 8855 L-92075 8826 L-91740 8826 L-91724 8797 L-91649 8767 L-91533 8738 L-91338 8708 L-91074 8679 L-90239 8649 L-90143 8620 L-89621 8590 L-89580 8561 L-89480 8531 L-88652 8531 L-88517 8502 L-88178 8502 L-87624 8473 L-87244 8443 L-87082 8414 L-86772 8384 L-85959 8355 L-85653 8325 L-85384 8325 L-85063 8325 L-84742 8355 L-84467 8355 L-83638 8296 L-83543 8266 L-83450 8178 L-83346 8090 L-82959 8001 L-82479 7942 L-82462 7913 L-82344 7883 L-81976 7825 L-81881 7795 L-81047 7736 L-80970 7707 L-80671 7677 L-80580 7648 L-80173 7589 L-80062 7530 L-79363 7501 L-78890 7471 L-78830 7442 L-78611 7383 L-78337 7353 L-78224 7324 L-77197 7294 L-76811 7265 L-76790 7235 L-76458 7206 L-76213 7177 L-75780 7147 L-75670 7118 L-75552 7088 L-75100 7029 L-74510 7000 L-74173 6970 L-72280 6941 L-72167 6882 L-71955 6853 L-70637 6823 L-70530 196 L-70464 -6342 L-70428 -12381 L-70366 -12381 L-69867 -5812 L-69192 667 L-69170 6646 L-68899 6587 L-67931 6587 L-67242 6558 L-67080 6529 L-66539 6499 L-66449 6470 L-65430 6440 L-64482 6381 L-64117 6411 L-64014 6440 L-63426 6440 L-63366 6440 L-63266 6411 L-62826 6352 L-62718 6322 L-62276 6293 L-61277 6205 L-61020 6116 L-60917 6028 L-60787 5969 L-60421 5910 L-59840 5851 L-59809 5822 L-59493 5792 L-57510 5763 L-57395 5733 L-57327 5733 L-56968 5704 L-55350 5674 L-55172 5674 L-55028 5674 L-54205 5704 L-54152 5733 L-54098 5733 L-53664 5733 L-52683 5763 L-52610 5763 L-51525 5733 L-51312 5733 L-50596 5674 L-50207 5645 L-49988 5586 L-49669 5527 L-49175 5468 L-49047 5439 L-48819 5380 L-48586 5321 L-48527 5291 L-48237 5262 L-47965 5203 L-46935 5174 L-45270 5144 L-44851 5115 L-44714 5085 L-44558 5085 L-44253 5056 L-44024 4997 L-43866 4967 L-43707 4908 L-43538 4850 L-43490 4820 L-43437 4791 L-43415 4791 L-43029 4761 L-42779 4761 L-42509 4761 L-42348 4761 L-42258 4761 L-40600 4761 L-40434 4791 L-40055 4761 L-39595 4761 L-38985 4702 L-37892 4673 L-37461 4643 L-37429 4614 L-37367 4584 L-37350 4555 L-35646 4526 L-35604 4496 L-35137 4467 L-34951 4437 L-34918 4378 L-34323 4349 L-34273 4319 L-33951 4290 L-33900 4260 L-33689 4231 L-33671 4202 L-33405 4143 L-33352 4113 L-32883 4084 L-32373 4025 L-32295 4025 L-32000 3995 L-31984 3966 L-31945 3936 L-31874 3907 L-31717 3878 L-30771 3878 L-30714 3878 L-30193 3878 L-30001 3848 L-29900 3848 L-29674 3819 L-29164 3819 L-28776 4614 L-28707 4614 L-28358 4584 L-28002 4555 L-26873 3701 L-26821 3642 L-26595 3612 L-26561 3583 L-26436 3524 L-26338 3524 L-26073 3524 L-25333 3554 L-24754 3554 L-24461 3554 L-23755 3554 L-23576 3524 L-23553 3524 L-22917 3495 L-22606 3465 L-22209 3465 L-22180 3436 L-22159 3406 L-22005 3377 L-21320 3377 L-21303 3377 L-20963 3377 L-20691 3347 L-20653 3318 L-20597 3259 L-20575 3230 L-20503 3200 L-20171 3171 L-20065 3141 L-20037 3082 L-19838 3053 L-19686 3023 L-18818 2994 L-18255 2935 L-18239 2935 L-18138 2906 L-18036 2935 L-17889 2935 L-17811 2935 L-17773 2906 L-17718 2876 L-17644 2847 L-17499 2817 L-17018 2817 L-16613 2788 L-15747 2817 L-15727 2817 L-15469 2817 L-15392 2817 L-15363 2788 L-15353 2729 L-15336 2699 L-15043 2670 L-15003 2640 L-14931 2611 L-14858 2582 L-14653 2552 L-14493 2464 L-14191 2375 L-14114 2258 L-14097 2169 L-13881 2110 L-13649 2110 L-13540 2140 L-13170 2169 L-13012 2169 L-12780 2169 L-12612 2169 L-12466 2140 L-12334 2110 L-11059 2051 L-10655 1992 L-10595 1963 L-10478 1904 L-10053 1875 L-10037 1816 L-9975 1786 L-9702 1727 L-9589 1698 L-9307 1639 L-9030 1610 L-8605 1551 L-8582 1521 L-8504 1492 L-8379 1462 L-7792 1433 L-7401 1403 L-7065 1374 L-6476 1344 L-6374 1344 L-6203 1315 L-6067 1315 L-5240 1286 L-4054 1256 L-4018 1227 L-3963 1227 L-3742 1197 L-3537 1197 L-3382 1197 L-3126 1168 L-3049 1138 L-2507 1109 L-2470 1079 L-2221 1050 L-1834 1020 L-1008 991 L-650 962 L-340 962 L-82 932 L141 903 L547 873 L664 844 L847 814 L900 814 L1089 785 L1260 755 L1288 726 L1569 696 L1879 667 L2017 637 L2327 608 L2521 608 L2536 579 L3256 579 L3389 520 L3687 490 L3777 461 L4378 461 L4416 431 L4495 402 L5115 372 L5267 313 L5307 284 L5618 255 L5810 225 L6003 166 L6058 107 L6367 78 L6419 48 L6474 78 L6500 78" />
</svg>
