<svg xmlns="http://www.w3.org/2000/svg" version="1.1" viewBox="0 0 6500 1000">
	<path fill="none" stroke="gold" stroke-width="125" stroke-linecap="round" stroke-linejoin="round" d="M0 314124  L-1334160 314124 L-1333976 314123 L-1333486 314120 L-1333192 314119 L-1332881 314116 L-1332647 314114 L-1332593 314111 L-1332534 314109 L-1332381 314107 L-1332340 314104 L-1332208 314103 L-1331915 314102 L-1331374 314102 L-1330764 314100 L-1330716 314100 L-1330076 314099 L-1330043 314099 L-1329517 314099 L-1329385 314097 L-1328994 314094 L-1328666 314092 L-1328549 314089 L-1328338 314086 L-1327621 314086 L-1327051 314085 L-1326944 314085 L-1326769 314083 L-1326548 314080 L-1326146 314079 L-1326121 314076 L-1325193 314073 L-1325105 314070 L-1325023 314067 L-1324953 314065 L-1324656 314063 L-1324504 314060 L-1322613 314062 L-1322513 314062 L-1322250 314062 L-1321957 314063 L-1321815 314060 L-1321567 314060 L-1321531 314059 L-1321372 314058 L-1320909 314055 L-1320656 314053 L-1320444 314050 L-1320192 314049 L-1319844 314048 L-1318916 314045 L-1318823 314042 L-1318412 314040 L-1317241 314038 L-1316052 314036 L-1315960 314033 L-1315932 314031 L-1315666 314028 L-1315367 314025 L-1315238 314022 L-1315201 314019 L-1314386 314019 L-1314002 314021 L-1312942 314022 L-1312881 314022 L-1312615 314050 L-1312144 314077 L-1311952 314104 L-1311688 314131 L-1311351 314130 L-1311216 314129 L-1310760 314127 L-1310017 314126 L-1309999 314124 L-1309834 314121 L-1309766 314121 L-1309250 314120 L-1308221 314120 L-1308025 314119 L-1307537 314117 L-1307174 314116 L-1306766 314116 L-1306380 314117 L-1304677 314117 L-1304579 314117 L-1304507 314117 L-1304445 314117 L-1304261 314116 L-1303925 314116 L-1303284 314114 L-1303207 314113 L-1303146 314113 L-1302959 314111 L-1302880 314111 L-1302703 314110 L-1302683 314109 L-1302453 314109 L-1302066 314107 L-1301177 314107 L-1301138 314106 L-1301049 314104 L-1301022 314102 L-1300014 314100 L-1299864 314097 L-1299840 314096 L-1299707 314094 L-1299667 314093 L-1298409 314092 L-1298351 314092 L-1297811 314090 L-1297759 314090 L-1297712 314090 L-1297317 314089 L-1297178 314087 L-1296978 314086 L-1296831 314086 L-1296666 314086 L-1296390 314087 L-1296031 314087 L-1295478 314086 L-1294834 314085 L-1294575 314082 L-1294421 314080 L-1294020 314079 L-1293980 314077 L-1293859 314076 L-1293798 314077 L-1293784 314077 L-1293690 314077 L-1293397 314076 L-1293245 314070 L-1292915 314067 L-1292837 314065 L-1292761 314063 L-1292535 314059 L-1292468 314056 L-1292240 314053 L-1292188 314050 L-1292023 314049 L-1291017 314048 L-1290834 314046 L-1290283 314045 L-1289890 314042 L-1289493 314040 L-1288643 314038 L-1288564 314036 L-1287985 314035 L-1287544 314035 L-1287303 314033 L-1287146 314033 L-1286745 314031 L-1286724 314031 L-1286280 314029 L-1285874 314028 L-1285738 314025 L-1285563 314022 L-1285427 314019 L-1285176 314016 L-1284177 314015 L-1284094 314014 L-1283959 314012 L-1283920 314011 L-1283030 314009 L-1282815 314008 L-1282372 314006 L-1282254 314005 L-1282197 314004 L-1281521 314004 L-1281421 314002 L-1281392 314002 L-1280050 314001 L-1279644 313999 L-1279605 313998 L-1278677 313996 L-1278578 313995 L-1278445 313994 L-1278041 313992 L-1278015 313991 L-1277922 313989 L-1277706 313988 L-1277295 313985 L-1276141 313982 L-1275849 313979 L-1275821 313977 L-1275213 313975 L-1274963 313972 L-1274943 313971 L-1274013 313969 L-1273962 313967 L-1273840 313965 L-1273822 313962 L-1273666 313961 L-1273491 313958 L-1273354 313957 L-1273298 313955 L-1273190 313954 L-1273105 313952 L-1272872 313951 L-1272797 313950 L-1272488 313948 L-1272370 313947 L-1272201 313945 L-1272109 313944 L-1272007 313944 L-1271983 313942 L-1271906 313942 L-1271808 313940 L-1271442 313938 L-1271337 313937 L-1270833 313935 L-1270382 313934 L-1270343 313933 L-1270320 313931 L-1270279 313930 L-1270150 313928 L-1270049 313927 L-1269608 313925 L-1269325 313924 L-1268733 313923 L-1268603 313921 L-1268328 313918 L-1268176 313917 L-1268022 313916 L-1267937 313913 L-1267859 313911 L-1267673 313910 L-1267623 313910 L-1267595 313908 L-1267516 313907 L-1267493 313906 L-1267209 313903 L-1266606 313900 L-1265610 313898 L-1265312 313897 L-1264578 313896 L-1264334 313894 L-1264244 313893 L-1263667 313891 L-1262968 313890 L-1262216 313889 L-1261897 313887 L-1261515 313884 L-1261437 313883 L-1260803 313881 L-1260617 313880 L-1260530 313880 L-1260400 313880 L-1260087 313879 L-1260038 313877 L-1259896 313876 L-1259874 313874 L-1258907 313873 L-1258361 313871 L-1257883 313871 L-1257822 313871 L-1257498 313871 L-1257477 313870 L-1257414 313870 L-1257204 313869 L-1257127 313867 L-1257073 313866 L-1257050 313864 L-1257011 313863 L-1256995 313862 L-1256238 313860 L-1256222 313859 L-1255422 313857 L-1255270 313856 L-1254364 313854 L-1253858 313853 L-1253629 313850 L-1253588 313850 L-1253472 313849 L-1253296 313847 L-1252542 313849 L-1252407 313847 L-1252243 313846 L-1251925 313845 L-1251748 313842 L-1250726 313839 L-1250703 313836 L-1250452 313835 L-1250239 313832 L-1249605 313830 L-1249367 313827 L-1249334 313825 L-1249156 313822 L-1249076 313819 L-1248986 313818 L-1248922 313815 L-1248482 313812 L-1248458 313810 L-1247917 313809 L-1247662 313808 L-1247167 313806 L-1246289 313805 L-1246253 313803 L-1246200 313802 L-1246159 313800 L-1246042 313799 L-1245765 313798 L-1245558 313795 L-1245361 313792 L-1245338 313789 L-1245287 313786 L-1245248 313785 L-1245170 313783 L-1244573 313781 L-1244513 313779 L-1244409 313778 L-1244255 313776 L-1243623 313775 L-1242942 313774 L-1242639 313771 L-1242293 313769 L-1242095 313768 L-1242047 313765 L-1241726 313764 L-1241099 313762 L-1240952 313761 L-1240916 313759 L-1240858 313758 L-1240781 313755 L-1240540 313755 L-1240452 313754 L-1240358 313752 L-1240064 313751 L-1239930 313749 L-1239870 313748 L-1239833 313745 L-1239560 313745 L-1238554 313744 L-1238379 313742 L-1238328 313742 L-1238036 313741 L-1237843 313738 L-1237510 313737 L-1237003 313735 L-1236441 313732 L-1236427 313729 L-1236410 313728 L-1236310 313725 L-1236195 313722 L-1236156 313720 L-1236118 313718 L-1236053 313718 L-1236024 313717 L-1235885 313718 L-1235593 313718 L-1235543 313718 L-1235437 313718 L-1235173 313717 L-1234708 313715 L-1234563 313715 L-1234509 313712 L-1234452 313711 L-1234261 313710 L-1233895 313708 L-1233681 313708 L-1233486 313708 L-1233428 313708 L-1233369 313705 L-1233216 313704 L-1232946 313703 L-1232516 313710 L-1232501 313710 L-1232424 313708 L-1232359 313707 L-1232230 313697 L-1232206 313695 L-1231922 313694 L-1231875 313693 L-1231820 313691 L-1231358 313690 L-1231319 313690 L-1231278 313688 L-1231088 313687 L-1230607 313685 L-1230120 313684 L-1230104 313683 L-1230066 313681 L-1229809 313680 L-1229732 313677 L-1229502 313676 L-1229486 313673 L-1229192 313670 L-1228749 313668 L-1228303 313667 L-1227798 313666 L-1227644 313664 L-1227358 313663 L-1227317 313660 L-1226986 313658 L-1226764 313657 L-1226247 313654 L-1226172 313653 L-1225924 313650 L-1225729 313647 L-1225670 313646 L-1224893 313644 L-1224819 313644 L-1224588 313643 L-1224572 313643 L-1224510 313641 L-1224314 313640 L-1223850 313640 L-1223827 313639 L-1223697 313639 L-1222396 313639 L-1222380 313639 L-1222303 313637 L-1222209 313637 L-1221992 313637 L-1221840 313636 L-1221661 313637 L-1221607 313639 L-1221320 313640 L-1221281 313640 L-1220911 313640 L-1220471 313640 L-1220288 313640 L-1219967 313639 L-1219672 313639 L-1219226 313636 L-1219154 313634 L-1218692 313632 L-1218254 313630 L-1218072 313629 L-1216618 313626 L-1216486 313624 L-1216029 313622 L-1215802 313620 L-1215416 313617 L-1214899 313614 L-1213945 313612 L-1213151 313609 L-1212477 313607 L-1212051 313605 L-1211740 313603 L-1211510 313599 L-1210827 313595 L-1210814 313590 L-1210604 313585 L-1210582 313583 L-1210407 313580 L-1209457 313579 L-1209189 313576 L-1208374 313575 L-1208063 313572 L-1208026 313570 L-1207969 313568 L-1207352 313566 L-1206714 313563 L-1205088 313562 L-1204414 313560 L-1203772 313560 L-1203694 313560 L-1203638 313560 L-1203602 313560 L-1203574 313559 L-1203462 313556 L-1203444 313555 L-1203421 313553 L-1203268 313552 L-1203214 313549 L-1203137 313548 L-1203017 313546 L-1202920 313545 L-1202802 313543 L-1202533 313541 L-1202263 313539 L-1202246 313536 L-1202046 313535 L-1201899 313532 L-1201672 313531 L-1201538 313529 L-1201229 313528 L-1201169 313526 L-1200816 313524 L-1200467 313522 L-1200367 313521 L-1200302 313518 L-1200242 313516 L-1199858 313514 L-1199477 313512 L-1199373 313511 L-1199113 313509 L-1198841 313507 L-1198682 313505 L-1198650 313504 L-1198588 313502 L-1198446 313501 L-1198263 313499 L-1198218 313498 L-1197930 313498 L-1197914 313497 L-1197681 313497 L-1197620 313495 L-1197582 313495 L-1197002 313494 L-1196868 313492 L-1196845 313487 L-1196826 313477 L-1196809 313465 L-1196793 313454 L-1196769 313443 L-1196752 313434 L-1196731 313424 L-1196714 313414 L-1196691 313409 L-1196674 313403 L-1196653 313399 L-1196636 313396 L-1196587 313392 L-1196515 313387 L-1196480 313380 L-1196456 313374 L-1196421 313369 L-1196379 313363 L-1196342 313360 L-1196327 313355 L-1196302 313350 L-1196265 313347 L-1196248 313343 L-1196225 313340 L-1196208 313338 L-1196189 313335 L-1196173 313332 L-1196144 313328 L-1196118 313323 L-1196072 313322 L-1196056 313319 L-1196014 313318 L-1195966 313315 L-1195895 313312 L-1195880 313309 L-1195864 313306 L-1195802 313305 L-1195763 313303 L-1195723 313302 L-1195557 313301 L-1195492 313299 L-1195476 313298 L-1195432 313295 L-1195374 313294 L-1195161 313292 L-1195128 313291 L-1195085 313289 L-1195007 313288 L-1194470 313286 L-1194392 313285 L-1194287 313282 L-1194199 313281 L-1194022 313279 L-1193672 313278 L-1193516 313276 L-1193078 313275 L-1192921 313274 L-1192792 313272 L-1192088 313269 L-1191887 313268 L-1190926 313265 L-1190444 313264 L-1190345 313264 L-1190252 313262 L-1190007 313261 L-1189934 313259 L-1189491 313257 L-1189395 313255 L-1189380 313254 L-1189364 313252 L-1189339 313251 L-1188873 313250 L-1188656 313248 L-1188517 313247 L-1188223 313245 L-1188135 313244 L-1188093 313242 L-1188063 313241 L-1187891 313240 L-1187832 313238 L-1187756 313237 L-1187675 313235 L-1187605 313235 L-1187296 313234 L-1187211 313232 L-1186997 313231 L-1186962 313230 L-1186279 313228 L-1186180 313227 L-1185975 313225 L-1185928 313224 L-1185650 313223 L-1185588 313221 L-1185571 313218 L-1185493 313217 L-1185185 313214 L-1185160 313213 L-1185106 313210 L-1185083 313208 L-1184961 313207 L-1184825 313204 L-1184581 313203 L-1184455 313203 L-1183809 313201 L-1183793 313201 L-1183768 313201 L-1183588 313198 L-1183511 313197 L-1183420 313196 L-1182992 313194 L-1182576 313193 L-1182183 313190 L-1182104 313188 L-1182085 313187 L-1181722 313186 L-1181486 313184 L-1181257 313183 L-1180944 313181 L-1180866 313180 L-1180786 313177 L-1180608 313174 L-1180592 313173 L-1180327 313170 L-1180246 313169 L-1180016 313167 L-1179790 313166 L-1179475 313166 L-1179299 313164 L-1178938 313164 L-1178547 313163 L-1178477 313160 L-1178413 313159 L-1178273 313156 L-1178221 313154 L-1178120 313152 L-1177618 313150 L-1177421 313149 L-1177174 313147 L-1176988 313146 L-1176689 313144 L-1176613 313143 L-1176447 313140 L-1175562 313139 L-1175534 313136 L-1175411 313133 L-1174832 313132 L-1174754 313130 L-1174041 313130 L-1173729 313130 L-1173516 313130 L-1173499 313130 L-1173112 313130 L-1172587 313127 L-1172141 313126 L-1171812 313125 L-1171659 313123 L-1171333 313123 L-1171154 313122 L-1171073 313122 L-1170867 313119 L-1170691 313117 L-1169762 313116 L-1168873 313115 L-1168834 313113 L-1168606 313113 L-1168227 313112 L-1167439 313110 L-1167205 313109 L-1167129 313107 L-1166771 313106 L-1166200 313103 L-1165933 313102 L-1165546 313100 L-1165443 313100 L-1165273 313100 L-1164654 313100 L-1164443 313100 L-1164135 313100 L-1164082 313099 L-1163955 313098 L-1163901 313096 L-1163782 313095 L-1163446 313092 L-1162487 313090 L-1162355 313088 L-1162154 313086 L-1161522 313085 L-1161211 313083 L-1160797 313082 L-1160770 313081 L-1160624 313079 L-1160204 313078 L-1158872 313078 L-1158825 313076 L-1158696 313073 L-1158679 313072 L-1158101 313069 L-1157896 313068 L-1157866 313066 L-1157825 313065 L-1157768 313063 L-1157730 313062 L-1157652 313061 L-1157509 313059 L-1157055 313058 L-1156937 313056 L-1156651 313055 L-1156279 313054 L-1156182 313052 L-1155856 313051 L-1155501 313049 L-1155331 313048 L-1155284 313046 L-1155175 313045 L-1155086 313044 L-1155058 313042 L-1154982 313039 L-1154678 313038 L-1154644 313035 L-1154573 313034 L-1154205 313032 L-1153869 313031 L-1153788 313031 L-1153569 313029 L-1153397 313028 L-1153370 313027 L-1152872 313025 L-1152323 313022 L-1151443 313021 L-1151344 313018 L-1151267 313017 L-1150993 313015 L-1150746 313012 L-1150672 313011 L-1150610 313008 L-1150491 313007 L-1150449 313005 L-1150339 313004 L-1150262 313001 L-1149561 313000 L-1149316 312998 L-1149276 312997 L-1149120 312995 L-1148520 312995 L-1148294 312995 L-1148202 312995 L-1147726 312995 L-1147129 312992 L-1146609 312991 L-1146588 312990 L-1146443 312988 L-1146123 312988 L-1145581 312988 L-1145349 312988 L-1145179 312988 L-1144692 312987 L-1144465 312985 L-1144380 312984 L-1144033 312983 L-1143707 312983 L-1143184 312981 L-1142857 312980 L-1142257 312978 L-1142059 312975 L-1142007 312974 L-1141966 312973 L-1141685 312971 L-1141001 312968 L-1140691 312967 L-1140666 312964 L-1140474 312963 L-1140252 312961 L-1140166 312960 L-1139502 312957 L-1139478 312956 L-1139256 312953 L-1138926 312951 L-1138574 312948 L-1138369 312947 L-1138137 312944 L-1137879 312943 L-1137689 312940 L-1137642 312939 L-1137415 312937 L-1137380 312936 L-1137224 312934 L-1137009 312933 L-1136836 312931 L-1136745 312930 L-1136468 312929 L-1136224 312927 L-1135909 312926 L-1135482 312926 L-1135445 312926 L-1134962 312926 L-1134728 312926 L-1134516 312924 L-1134290 312923 L-1133741 312923 L-1133493 312921 L-1132659 312921 L-1132603 312920 L-1132582 312919 L-1132424 312917 L-1131962 312916 L-1131922 312914 L-1131582 312912 L-1131448 312910 L-1131226 312909 L-1130654 312907 L-1130182 312906 L-1129987 312904 L-1129794 312903 L-1129605 312902 L-1129503 312900 L-1129135 312899 L-1129088 312897 L-1129007 312896 L-1127713 312894 L-1127665 312893 L-1127397 312893 L-1127252 312893 L-1126701 312893 L-1126584 312892 L-1126502 312890 L-1126143 312889 L-1125919 312887 L-1125638 312886 L-1125309 312883 L-1124801 312882 L-1124689 312880 L-1124610 312879 L-1124445 312877 L-1124151 312877 L-1123682 312877 L-1123486 312879 L-1123435 312879 L-1122785 312877 L-1122664 312876 L-1122209 312876 L-1122174 312875 L-1121705 312873 L-1121595 312872 L-1121578 312870 L-1121362 312870 L-1121181 312869 L-1120650 312869 L-1119620 312869 L-1119421 312868 L-1118962 312866 L-1118014 312863 L-1117915 312862 L-1117561 312859 L-1117501 312858 L-1117486 312856 L-1117451 312855 L-1117082 312853 L-1116962 312852 L-1116720 312850 L-1116556 312849 L-1116368 312848 L-1116248 312846 L-1115177 312843 L-1114319 312842 L-1114107 312839 L-1114009 312838 L-1113835 312835 L-1113502 312833 L-1113430 312832 L-1113373 312831 L-1113197 312831 L-1112808 312829 L-1112573 312828 L-1112462 312826 L-1112345 312825 L-1111364 312823 L-1111338 312822 L-1110744 312819 L-1110712 312819 L-1110563 312818 L-1110279 312816 L-1109367 312816 L-1108421 312816 L-1108268 312815 L-1108165 312815 L-1108033 312814 L-1107890 312812 L-1107864 312811 L-1107750 312809 L-1107531 312808 L-1106850 312806 L-1106721 312805 L-1106417 312804 L-1106178 312801 L-1105845 312799 L-1105206 312798 L-1104864 312795 L-1104802 312794 L-1104646 312794 L-1103725 312794 L-1103254 312794 L-1103211 312794 L-1103198 312792 L-1103157 312791 L-1103135 312789 L-1103108 312788 L-1102964 312787 L-1102541 312785 L-1102206 312785 L-1102015 312784 L-1101586 312784 L-1101398 312782 L-1101009 312779 L-1100475 312778 L-1100103 312777 L-1100081 312777 L-1099831 312775 L-1099713 312774 L-1099637 312772 L-1099501 312771 L-1099462 312770 L-1099382 312768 L-1098988 312767 L-1098492 312765 L-1098380 312762 L-1098207 312761 L-1097898 312760 L-1097451 312758 L-1097128 312757 L-1096985 312754 L-1096558 312751 L-1096405 312748 L-1096350 312745 L-1095536 312744 L-1095516 312743 L-1095144 312741 L-1095088 312741 L-1093959 312740 L-1093891 312740 L-1093332 312738 L-1093138 312737 L-1093001 312735 L-1092768 312734 L-1092421 312733 L-1092386 312730 L-1092351 312728 L-1092283 312725 L-1091934 312724 L-1091762 312723 L-1091277 312721 L-1091261 312720 L-1090935 312718 L-1090778 312717 L-1089637 312714 L-1089612 312713 L-1089421 312710 L-1089227 312708 L-1088977 312707 L-1088960 312706 L-1087940 312704 L-1087642 312703 L-1087566 312701 L-1087430 312699 L-1087254 312697 L-1086678 312694 L-1086462 312693 L-1086398 312691 L-1086268 312690 L-1086231 312687 L-1085708 312686 L-1085570 313245 L-1085555 313245 L-1085532 313245 L-1085512 313245 L-1085285 312684 L-1084509 312684 L-1084468 312684 L-1084100 312684 L-1084021 312683 L-1083969 312681 L-1083296 312680 L-1082554 312679 L-1082129 312679 L-1081681 312677 L-1080620 312676 L-1080308 312673 L-1079898 312673 L-1079826 312672 L-1079302 312672 L-1079207 312672 L-1079189 312672 L-1078744 312670 L-1078559 312667 L-1077779 312664 L-1077106 312663 L-1076694 312659 L-1076462 312656 L-1076322 312654 L-1076240 312652 L-1076220 312650 L-1076144 312650 L-1076016 312649 L-1075699 312650 L-1075474 312650 L-1075149 312649 L-1075087 312649 L-1074717 312649 L-1074684 312649 L-1074476 312649 L-1073808 312649 L-1073731 312649 L-1073573 312646 L-1073462 312646 L-1073136 312645 L-1072981 312643 L-1072640 312643 L-1072583 312640 L-1072245 312637 L-1072041 312636 L-1071988 312633 L-1070612 312632 L-1070482 312630 L-1070049 312629 L-1069728 312628 L-1068900 312625 L-1068777 312623 L-1068046 312620 L-1067890 312618 L-1067850 312616 L-1067796 312615 L-1067773 312613 L-1067659 312612 L-1067362 312610 L-1067072 312609 L-1067018 312608 L-1066897 312606 L-1066867 312605 L-1066768 312603 L-1066324 312603 L-1066172 312602 L-1065337 312602 L-1064794 312601 L-1064460 312601 L-1064444 312599 L-1064369 312598 L-1064252 312596 L-1064058 312595 L-1063794 312593 L-1062959 312592 L-1062863 312591 L-1062341 312589 L-1062300 312588 L-1062200 312586 L-1061372 312586 L-1061237 312585 L-1060898 312585 L-1060344 312583 L-1059964 312582 L-1059801 312581 L-1059491 312579 L-1058679 312578 L-1058373 312576 L-1058104 312576 L-1057783 312576 L-1057462 312578 L-1057186 312578 L-1056358 312575 L-1056263 312574 L-1056170 312569 L-1056066 312565 L-1055679 312561 L-1055199 312558 L-1055182 312557 L-1055064 312555 L-1054696 312552 L-1054601 312551 L-1053767 312548 L-1053690 312547 L-1053391 312545 L-1053300 312544 L-1052893 312541 L-1052782 312538 L-1052083 312537 L-1051610 312535 L-1051550 312534 L-1051331 312531 L-1051057 312530 L-1050944 312528 L-1049917 312527 L-1049530 312525 L-1049510 312524 L-1049178 312522 L-1048933 312521 L-1048500 312520 L-1048390 312518 L-1048272 312517 L-1047820 312514 L-1047230 312512 L-1046893 312511 L-1045000 312510 L-1044887 312507 L-1044675 312505 L-1043357 312504 L-1043250 312184 L-1043184 311869 L-1043148 311578 L-1043086 311578 L-1042587 311895 L-1041912 312207 L-1041890 312495 L-1041619 312493 L-1040651 312493 L-1039962 312491 L-1039800 312490 L-1039259 312488 L-1039169 312487 L-1038150 312486 L-1037202 312483 L-1036837 312484 L-1036734 312486 L-1036146 312486 L-1036086 312486 L-1035986 312484 L-1035545 312481 L-1035438 312480 L-1034996 312478 L-1033996 312474 L-1033740 312470 L-1033637 312466 L-1033507 312463 L-1033140 312460 L-1032560 312457 L-1032529 312456 L-1032213 312454 L-1030230 312453 L-1030114 312451 L-1030047 312451 L-1029688 312450 L-1028069 312449 L-1027892 312449 L-1027748 312449 L-1026925 312450 L-1026872 312451 L-1026818 312451 L-1026384 312451 L-1025403 312453 L-1025329 312453 L-1024245 312451 L-1024032 312451 L-1023316 312449 L-1022927 312447 L-1022708 312444 L-1022389 312441 L-1021895 312439 L-1021767 312437 L-1021538 312434 L-1021306 312432 L-1021247 312430 L-1020957 312429 L-1020685 312426 L-1019655 312424 L-1017990 312423 L-1017571 312422 L-1017434 312420 L-1017278 312420 L-1016972 312419 L-1016744 312416 L-1016586 312415 L-1016427 312412 L-1016257 312409 L-1016210 312407 L-1016157 312406 L-1016135 312406 L-1015749 312405 L-1015499 312405 L-1015229 312405 L-1015068 312405 L-1014978 312405 L-1013320 312405 L-1013154 312406 L-1012775 312405 L-1012314 312405 L-1011705 312402 L-1010612 312400 L-1010181 312399 L-1010149 312397 L-1010087 312396 L-1010069 312395 L-1008366 312393 L-1008324 312392 L-1007857 312390 L-1007671 312389 L-1007638 312386 L-1007043 312385 L-1006993 312383 L-1006670 312382 L-1006620 312380 L-1006409 312379 L-1006391 312378 L-1006125 312375 L-1006072 312373 L-1005603 312372 L-1005093 312369 L-1005014 312369 L-1004720 312368 L-1004704 312366 L-1004665 312365 L-1004594 312363 L-1004437 312362 L-1003491 312362 L-1003434 312362 L-1002913 312362 L-1002721 312361 L-1002620 312361 L-1002394 312359 L-1001884 312359 L-1001496 312397 L-1001427 312397 L-1001078 312396 L-1000721 312395 L-999593 312353 L-999541 312351 L-999315 312349 L-999281 312348 L-999156 312345 L-999058 312345 L-998793 312345 L-998053 312346 L-997474 312346 L-997181 312346 L-996475 312346 L-996296 312345 L-996273 312345 L-995637 312343 L-995326 312342 L-994929 312342 L-994899 312341 L-994878 312339 L-994725 312338 L-994040 312338 L-994023 312338 L-993683 312338 L-993411 312336 L-993373 312335 L-993317 312332 L-993295 312331 L-993223 312329 L-992891 312328 L-992785 312326 L-992756 312324 L-992558 312322 L-992406 312321 L-991537 312319 L-990975 312317 L-990959 312317 L-990858 312315 L-990755 312317 L-990609 312317 L-990531 312317 L-990493 312315 L-990437 312314 L-990364 312312 L-990219 312311 L-989737 312311 L-989333 312309 L-988467 312311 L-988447 312311 L-988189 312311 L-988112 312311 L-988083 312309 L-988073 312307 L-988056 312305 L-987763 312304 L-987723 312302 L-987651 312301 L-987578 312299 L-987373 312298 L-987213 312294 L-986911 312290 L-986834 312284 L-986817 312280 L-986601 312277 L-986369 312277 L-986259 312278 L-985890 312280 L-985731 312280 L-985500 312280 L-985332 312280 L-985186 312278 L-985054 312277 L-983779 312274 L-983375 312271 L-983314 312270 L-983198 312267 L-982772 312265 L-982757 312263 L-982695 312261 L-982422 312258 L-982309 312257 L-982027 312254 L-981750 312253 L-981325 312250 L-981302 312248 L-981224 312247 L-981099 312246 L-980512 312244 L-980121 312243 L-979785 312241 L-979196 312240 L-979094 312240 L-978923 312238 L-978787 312238 L-977959 312237 L-976774 312236 L-976738 312234 L-976683 312234 L-976462 312233 L-976257 312233 L-976102 312233 L-975846 312231 L-975769 312230 L-975226 312228 L-975190 312227 L-974941 312226 L-974554 312224 L-973728 312223 L-973370 312221 L-973059 312221 L-972801 312220 L-972578 312219 L-972172 312217 L-972055 312216 L-971872 312214 L-971819 312214 L-971630 312213 L-971459 312211 L-971431 312210 L-971150 312209 L-970840 312207 L-970702 312206 L-970392 312204 L-970198 312204 L-970183 312203 L-969463 312203 L-969330 312200 L-969032 312199 L-968941 312197 L-968341 312197 L-968303 312196 L-968224 312194 L-967604 312193 L-967452 312190 L-967412 312189 L-967101 312187 L-966909 312186 L-966716 312183 L-966661 312180 L-966352 312179 L-966300 312177 L-966245 312179 L-966219 312179 L-966095 312179 L-965284 312177 L-965207 312176 L-964667 312175 L-964398 312173 L-963739 312172 L-962831 312170 L-962590 312169 L-962057 312167 L-961840 312166 L-960733 312167 L-960682 312167 L-959907 312167 L-959359 312166 L-959248 312165 L-959095 312162 L-959040 312160 L-958874 312159 L-958497 312157 L-958050 312156 L-957995 312155 L-957841 312153 L-957161 312152 L-956940 312150 L-956423 312149 L-955574 312146 L-955558 312145 L-953767 312143 L-953212 312142 L-953095 312140 L-952089 312139 L-952053 312138 L-951820 312138 L-951728 312138 L-951688 312138 L-951355 312136 L-951004 312135 L-950738 312132 L-950452 312130 L-950141 312128 L-949887 312125 L-949793 312123 L-949303 312122 L-949096 312121 L-948530 312119 L-948416 312121 L-948065 312119 L-948013 312119 L-947973 312119 L-947370 312116 L-946636 312113 L-946055 312111 L-945819 312108 L-945279 312104 L-945126 312101 L-944624 312099 L-944415 312096 L-944392 312096 L-944333 312095 L-943370 312095 L-943193 312094 L-942751 312092 L-942727 312089 L-942572 312088 L-942490 312088 L-942340 312089 L-941693 312089 L-941643 312088 L-940523 312086 L-939539 312085 L-939477 312084 L-938757 312082 L-937892 312081 L-937513 312079 L-937294 312079 L-936535 312078 L-936483 312077 L-936174 312074 L-935322 312074 L-935129 312072 L-934952 312071 L-934728 312071 L-934601 312069 L-934409 312069 L-934177 312068 L-934007 312069 L-933721 312068 L-933441 312068 L-933358 312067 L-933188 312065 L-933171 312062 L-933017 312061 L-932978 312059 L-932202 312058 L-932126 312058 L-931894 312055 L-931467 312054 L-931121 312052 L-930538 312051 L-930270 312051 L-930011 312051 L-929881 312048 L-929865 312047 L-929751 312045 L-929727 312044 L-929493 312042 L-929457 312041 L-928141 312041 L-928085 312040 L-927406 312037 L-926834 312037 L-926708 312037 L-926555 312037 L-926478 312037 L-926166 312034 L-925893 312033 L-925804 312030 L-925703 312030 L-924775 312028 L-924698 312028 L-924334 312028 L-924310 312027 L-924273 312025 L-923498 312023 L-923406 312021 L-923266 312020 L-922864 312018 L-922603 312018 L-922359 312020 L-922145 312018 L-922065 312018 L-921988 312018 L-921912 312018 L-921725 312020 L-921658 312020 L-921409 312020 L-921354 312018 L-921216 312017 L-921137 312014 L-921023 312013 L-920800 312011 L-920636 312010 L-920595 312008 L-920425 312007 L-920055 312006 L-920040 312004 L-919924 312003 L-919203 312001 L-919167 312000 L-919034 312000 L-918686 311998 L-918274 311998 L-918238 311998 L-918160 311997 L-918121 311996 L-917757 311994 L-917553 311993 L-917538 311991 L-917193 311990 L-916844 311990 L-916518 311990 L-916417 311988 L-916264 311988 L-916069 311987 L-915838 311987 L-915745 311987 L-915590 311987 L-915512 311987 L-915472 311986 L-915358 311984 L-915335 311983 L-915084 311983 L-914945 311980 L-914368 311976 L-913539 311973 L-913052 311970 L-912930 311969 L-912892 311967 L-912879 311966 L-912727 311963 L-912626 311960 L-912393 311959 L-912003 311956 L-911698 311954 L-911683 311953 L-911512 311952 L-911273 311949 L-910677 311949 L-910073 311947 L-910034 311947 L-909993 311947 L-909840 311946 L-909787 311944 L-909724 311943 L-909656 311942 L-909601 311939 L-909576 311937 L-909529 311936 L-909435 311933 L-909298 311932 L-909145 311930 L-909012 311929 L-908972 311929 L-908936 311927 L-908874 311926 L-908601 311923 L-908286 311922 L-908245 311919 L-908160 311917 L-907983 311916 L-907745 311915 L-907388 311913 L-907358 311912 L-906789 311910 L-906666 311909 L-906430 311908 L-906407 311908 L-906126 311906 L-905840 311906 L-905585 311906 L-905013 311905 L-904716 311903 L-904640 311902 L-903941 311900 L-903864 311899 L-903828 311898 L-903802 311896 L-903751 311893 L-903557 311892 L-903417 311889 L-903381 311888 L-903340 311886 L-902745 311885 L-902513 311883 L-902229 311893 L-902175 311902 L-902101 311912 L-902023 311920 L-901787 311917 L-901543 311916 L-901407 311915 L-901301 311913 L-901221 311912 L-900834 311909 L-900707 311908 L-900554 311906 L-900517 311905 L-900371 311903 L-900149 311902 L-899975 311900 L-899906 311899 L-899085 311896 L-899069 311896 L-898774 311895 L-897986 311893 L-897676 311893 L-897530 311892 L-897302 311890 L-897101 311888 L-896164 311886 L-896128 311885 L-896105 311883 L-896064 311881 L-895796 311879 L-895199 311878 L-895135 311876 L-895100 311875 L-895083 311873 L-894388 311873 L-894187 311873 L-894155 311873 L-893821 311873 L-893714 311872 L-893089 311869 L-892585 311868 L-892547 311865 L-892105 311865 L-892009 311864 L-891850 311864 L-891537 311864 L-891525 311864 L-891085 311865 L-890603 311866 L-890473 311866 L-890153 311866 L-890085 311865 L-889781 311865 L-889605 311864 L-889411 311862 L-889169 311859 L-888971 311856 L-888945 311854 L-888367 311852 L-888297 311851 L-887888 311849 L-887833 311848 L-887787 311846 L-887423 311845 L-887277 311844 L-887072 311842 L-886975 311842 L-886820 311841 L-886759 311839 L-886611 311837 L-886511 311835 L-885954 311835 L-885931 311838 L-885759 311839 L-885217 311841 L-885156 311841 L-885103 311838 L-885074 311835 L-885003 311834 L-884986 311831 L-884923 311829 L-884886 311827 L-884732 311825 L-884406 311824 L-883840 311822 L-883826 311821 L-883763 311818 L-883662 311815 L-883616 311815 L-883373 311814 L-882951 311814 L-882796 311814 L-881054 311811 L-880513 311810 L-879569 311808 L-879160 311807 L-878619 311804 L-878423 311802 L-878254 311801 L-877958 311800 L-877844 311798 L-877828 311798 L-877674 311797 L-877534 311795 L-877457 311793 L-877325 311793 L-876977 311793 L-876607 311794 L-876009 311794 L-875833 311794 L-875677 311793 L-875408 311791 L-875256 311791 L-874965 311795 L-874942 311798 L-874859 311801 L-874631 311804 L-873931 311802 L-873805 311801 L-873374 311800 L-873279 311798 L-872074 311798 L-872025 311797 L-871732 311797 L-871328 311795 L-871053 311793 L-871033 311791 L-870916 311790 L-870840 311788 L-870658 311787 L-870178 311785 L-869727 311783 L-869317 311781 L-869286 311780 L-868868 311778 L-868754 311778 L-868636 311778 L-868620 311778 L-868426 311777 L-868405 311774 L-868172 311773 L-867729 311771 L-867410 311768 L-866945 311768 L-866779 311767 L-866625 311766 L-866469 311766 L-866015 311766 L-865696 311766 L-865641 311767 L-865270 311767 L-865232 311768 L-864906 311768 L-864789 311767 L-864691 311766 L-864365 311763 L-863978 311761 L-863717 311760 L-863358 311757 L-863102 311756 L-860932 311754 L-860882 311753 L-860860 311751 L-860448 311751 L-860387 311751 L-860316 311753 L-860086 311753 L-859775 311751 L-859472 311748 L-859427 311747 L-859120 311746 L-858987 311744 L-858770 311743 L-858058 311741 L-857903 311741 L-857764 311740 L-857616 311740 L-857594 311740 L-857400 311739 L-857375 311737 L-857284 311736 L-857262 311734 L-857245 311733 L-857145 311731 L-856217 311730 L-855759 311730 L-854667 311727 L-854244 311727 L-853840 311726 L-853802 311724 L-853548 311723 L-852774 311720 L-852757 311719 L-852733 311717 L-852540 311716 L-851803 311714 L-851534 311713 L-851494 311712 L-851095 311709 L-851070 311707 L-850281 311706 L-849601 311704 L-848230 311703 L-847960 311702 L-847911 311700 L-847374 311697 L-847341 311696 L-847239 311693 L-846915 311692 L-846836 311690 L-846567 311690 L-845654 311689 L-845515 311689 L-845266 311686 L-844721 311686 L-844299 311685 L-844106 311683 L-844091 311683 L-843953 311680 L-843859 311679 L-843732 311677 L-843471 311676 L-843447 311673 L-843355 311672 L-843045 311670 L-842985 311669 L-842868 311669 L-842518 311669 L-841708 311669 L-841476 311666 L-840647 311666 L-840415 311663 L-840199 311662 L-839680 311662 L-839042 311660 L-838626 311659 L-838303 311658 L-837823 311656 L-837397 311656 L-837336 311655 L-836987 311655 L-836947 311653 L-836933 311652 L-836833 311649 L-836788 311649 L-836303 311648 L-835501 311648 L-835167 311648 L-834086 311646 L-833606 311645 L-833583 311643 L-833443 311642 L-832887 311641 L-832190 311639 L-831881 311638 L-831659 311636 L-831555 311635 L-831452 311632 L-830781 311631 L-830687 311629 L-830665 311629 L-830588 311628 L-830410 311628 L-830238 311628 L-830057 311626 L-830044 311625 L-829967 311624 L-829803 311622 L-829288 311621 L-829272 311619 L-829132 311619 L-828769 311618 L-828745 311618 L-828615 311616 L-828590 311615 L-828228 311614 L-827702 311611 L-827609 311609 L-827393 311606 L-827299 311605 L-827275 311604 L-826810 311602 L-826733 311602 L-826332 311601 L-825881 311601 L-824629 311599 L-824590 311598 L-824159 311597 L-824126 311595 L-823407 311594 L-823231 311592 L-823095 311591 L-822788 311589 L-822733 311588 L-822709 311585 L-822693 311582 L-822518 311581 L-822328 311579 L-821821 311579 L-821447 311568 L-821109 311555 L-821070 311544 L-820351 311534 L-820257 311533 L-820219 311531 L-819677 311531 L-819654 311530 L-819251 311528 L-818826 311527 L-818555 311527 L-818375 311526 L-818129 311523 L-818106 311521 L-818049 311518 L-817433 311517 L-816930 311516 L-816543 311516 L-815924 311517 L-815708 311517 L-815553 311518 L-814260 311516 L-814161 311514 L-813719 311511 L-813387 311510 L-813087 311507 L-812844 311506 L-812110 311503 L-811531 311501 L-810701 311500 L-810601 311499 L-810043 311497 L-809905 311496 L-808263 311494 L-808202 311494 L-808108 311494 L-807141 311494 L-806964 311493 L-806677 311493 L-806459 311493 L-806381 311491 L-806110 311491 L-805994 311490 L-805841 311489 L-805531 311487 L-805453 311486 L-805362 311486 L-805284 311484 L-805168 311484 L-804989 311483 L-804897 311482 L-804859 311480 L-804356 311480 L-804137 311479 L-804008 311479 L-803852 311477 L-803798 311476 L-803673 311476 L-803288 311474 L-802780 311473 L-802708 311472 L-802227 311470 L-802150 311469 L-802050 311469 L-801817 311467 L-801352 311467 L-801122 311467 L-801105 311467 L-800873 311467 L-800719 311467 L-800657 311467 L-800464 311466 L-800193 311463 L-799442 311462 L-798489 311462 L-798453 311460 L-798228 311460 L-797788 311460 L-797507 311457 L-797159 311456 L-796090 311455 L-795162 311455 L-795031 311455 L-794984 311455 L-794915 311453 L-794760 311453 L-794683 311450 L-794509 311447 L-794075 311445 L-793870 311443 L-793810 311440 L-793228 311439 L-793074 311436 L-792958 311435 L-792917 311433 L-792748 311432 L-792611 311430 L-792400 311428 L-792323 311426 L-792299 311425 L-792091 311422 L-791681 311420 L-791656 311419 L-791433 311418 L-791288 311416 L-791253 311415 L-791240 311413 L-791217 311412 L-790984 311411 L-790798 311409 L-790581 311408 L-790556 311406 L-789867 311405 L-789763 311403 L-789727 311402 L-789707 311401 L-789513 311399 L-789459 311398 L-789342 311395 L-789261 311395 L-789150 311393 L-788835 311392 L-788376 311391 L-788121 311389 L-787887 311386 L-787757 311385 L-787404 311384 L-787345 311382 L-787192 311381 L-786620 311378 L-786534 311376 L-786381 311374 L-786085 311371 L-785715 311368 L-785412 311365 L-785335 311364 L-784930 311362 L-784762 311362 L-784618 311362 L-784078 311362 L-784017 311362 L-784001 311359 L-783835 311358 L-783630 311357 L-783555 311357 L-783462 311355 L-783052 311354 L-783037 311352 L-783013 311352 L-782820 311351 L-782743 311364 L-782573 311376 L-782511 311388 L-782495 311401 L-781980 311399 L-781759 311398 L-781140 311395 L-780887 311393 L-780693 311392 L-780653 311391 L-780580 311391 L-780515 311391 L-779864 311391 L-779825 311392 L-779651 311392 L-779585 311392 L-778911 311392 L-778522 311389 L-778261 311388 L-778023 311386 L-777945 311384 L-777929 311381 L-777727 311379 L-777357 311376 L-777131 311375 L-776496 311374 L-776476 311374 L-776089 311372 L-775995 311372 L-775937 311371 L-775661 311369 L-775351 311369 L-775274 311368 L-774423 311369 L-774080 311376 L-773643 311385 L-773209 311392 L-772714 311399 L-772565 311398 L-772296 311399 L-771058 311401 L-771002 311403 L-769238 311405 L-769048 311403 L-768037 311402 L-767886 311401 L-767511 311403 L-767190 311406 L-766585 311409 L-766515 311412 L-766338 311411 L-765509 311409 L-765371 311408 L-764984 311406 L-764799 311405 L-764756 311403 L-764636 311402 L-764426 311401 L-763979 311398 L-763630 311396 L-763498 311395 L-763089 311393 L-762739 311393 L-762454 311392 L-762260 311391 L-762106 311391 L-761942 311389 L-761873 311388 L-761774 311388 L-761540 311386 L-761424 311386 L-761370 311385 L-760829 311385 L-760364 311384 L-759182 311384 L-759049 311384 L-759024 311384 L-758972 311384 L-758304 311384 L-757269 311381 L-757075 311379 L-756896 311378 L-756744 311378 L-756704 311376 L-756689 311376 L-756627 311375 L-756302 311374 L-755141 311372 L-754948 311371 L-754770 311369 L-753656 311368 L-752797 311366 L-752691 311366 L-752217 311365 L-752024 311365 L-749703 311364 L-749625 311362 L-749504 311359 L-749469 311358 L-749432 311355 L-749338 311351 L-749122 311348 L-748541 311345 L-748154 311344 L-747381 311342 L-747304 311341 L-746606 311341 L-746065 311341 L-746024 311340 L-745894 311340 L-745430 311338 L-745391 311337 L-745256 311335 L-744888 311334 L-744859 311332 L-744709 311332 L-744308 311331 L-742484 311332 L-741677 311331 L-740958 311331 L-740942 311331 L-740628 311328 L-740066 311327 L-739565 311325 L-739046 311324 L-739024 311322 L-737281 311321 L-737112 311320 L-736916 311318 L-736022 311317 L-735504 311314 L-735293 311313 L-735035 311311 L-734326 311310 L-733375 311308 L-732717 311307 L-732678 311304 L-732391 311303 L-732309 311301 L-732213 311301 L-732082 311300 L-732004 311300 L-731269 311300 L-730932 311298 L-730882 311300 L-730627 311300 L-730341 311298 L-729915 311298 L-729335 311297 L-729076 311297 L-728924 311295 L-728677 311295 L-728638 311295 L-727841 311294 L-727804 311293 L-727627 311293 L-727217 311290 L-726989 311290 L-726912 311290 L-726781 311290 L-726665 311288 L-726317 311287 L-726254 311286 L-726101 311284 L-725360 311283 L-725249 311281 L-725079 311280 L-725040 311278 L-724745 311278 L-724344 311278 L-724167 311278 L-724073 311278 L-723763 311277 L-722962 311276 L-722503 311273 L-721983 311271 L-721495 311270 L-720799 311269 L-719753 311267 L-719484 311267 L-719430 311266 L-719270 311266 L-719018 311266 L-718772 311264 L-718693 311263 L-718479 311260 L-718167 311259 L-717703 311256 L-717689 311254 L-717393 311254 L-717379 311253 L-716388 311251 L-715716 311250 L-715381 311247 L-714765 311247 L-714628 311246 L-713989 311244 L-713859 311243 L-712908 311240 L-712808 311237 L-712249 311236 L-711840 311236 L-711412 311236 L-711321 311234 L-710486 311234 L-710122 311234 L-710083 311236 L-709951 311237 L-709774 311237 L-709557 311237 L-709504 311236 L-709347 311233 L-709094 311232 L-707993 311230 L-707916 311229 L-707697 311227 L-707566 311224 L-707529 311223 L-707336 311222 L-707237 311220 L-706753 311219 L-706468 311217 L-706308 311216 L-706213 311213 L-705942 311212 L-705672 311210 L-705656 311205 L-705518 311200 L-705379 311196 L-705053 311190 L-704744 311188 L-704703 311186 L-704627 311183 L-704512 311182 L-703661 311179 L-703335 311178 L-703003 311176 L-702871 311176 L-702655 311176 L-702638 311176 L-701958 311176 L-701865 311173 L-701841 311172 L-701826 311169 L-701787 311168 L-701375 311165 L-701106 311163 L-701066 311162 L-700697 311162 L-700488 311161 L-699405 311161 L-699388 311159 L-699360 311158 L-699340 311158 L-698963 311155 L-698708 311153 L-698460 311151 L-698320 311148 L-698188 311146 L-697856 311145 L-697763 311144 L-697702 311142 L-697144 311141 L-697083 311139 L-696927 311138 L-696733 311136 L-696541 311135 L-696525 311134 L-696487 311132 L-696448 311131 L-696177 311129 L-696054 311128 L-696022 311126 L-695922 311126 L-695766 311126 L-695625 311126 L-695341 311125 L-695016 311125 L-694320 311124 L-694297 311124 L-693788 311124 L-692942 311124 L-692579 311122 L-692424 311121 L-691820 311121 L-691650 311121 L-691589 311121 L-691534 311119 L-690479 311118 L-690460 311118 L-689554 311118 L-689533 311118 L-689366 311117 L-689124 311117 L-689073 311115 L-689019 311112 L-688881 311111 L-688842 311109 L-687914 311108 L-687858 311108 L-687736 311108 L-687665 311108 L-687549 311108 L-687370 311109 L-686388 311108 L-686249 311108 L-686131 311105 L-685836 311102 L-685589 311101 L-685553 311100 L-685498 311101 L-685476 311101 L-685343 311101 L-685264 311101 L-685127 311100 L-684504 311100 L-684337 311098 L-683873 311098 L-683696 311095 L-683680 311094 L-683620 311092 L-683503 311091 L-683021 311090 L-682325 311088 L-681952 311087 L-681783 311085 L-680817 311084 L-680662 311082 L-680484 311082 L-680391 311081 L-680136 311081 L-679965 311081 L-679319 311080 L-679308 311080 L-678727 311078 L-678589 311078 L-678534 311075 L-677799 311074 L-677760 311073 L-677683 311073 L-677041 311071 L-676266 311071 L-676174 311070 L-676125 311070 L-676110 311068 L-676074 311068 L-676057 311065 L-675994 311064 L-675978 311063 L-675958 311063 L-675803 311061 L-675765 311060 L-675748 311058 L-675709 311057 L-675570 311055 L-675493 311054 L-675129 311053 L-674781 311051 L-674007 311050 L-673405 311048 L-673209 311047 L-672979 311047 L-672841 311046 L-672203 311046 L-671914 311044 L-671892 311044 L-671432 311043 L-671199 311043 L-671144 311041 L-671106 311040 L-670603 311038 L-670052 311037 L-669264 311036 L-668141 311036 L-667247 311034 L-667159 311034 L-666860 311033 L-666788 311031 L-666672 311030 L-665495 311029 L-665147 311027 L-665125 311026 L-664606 311024 L-664459 311023 L-664351 311021 L-664141 311020 L-663987 311019 L-663964 311017 L-663770 311016 L-663693 311014 L-663550 311013 L-662749 311011 L-662603 311010 L-662323 311009 L-662145 311007 L-661836 311006 L-661024 311004 L-660096 311004 L-658504 311003 L-658260 311002 L-657619 311000 L-657424 310999 L-657346 310997 L-656829 310996 L-656597 310996 L-656574 310994 L-656442 310994 L-656102 310993 L-656092 310992 L-655875 310990 L-655838 310989 L-655297 310987 L-654768 310984 L-654700 310983 L-654407 310982 L-653859 310979 L-653824 310977 L-653771 310976 L-653672 310973 L-653440 310973 L-652859 310973 L-652762 310975 L-652688 310975 L-652356 310973 L-651606 310972 L-651567 310970 L-650887 310970 L-650732 310970 L-650406 310969 L-650190 310967 L-649959 310967 L-649662 310966 L-649416 310965 L-649065 310963 L-649012 310962 L-648252 310960 L-647559 310958 L-647208 310955 L-646745 310953 L-646111 310952 L-645702 310950 L-645625 310952 L-645199 310952 L-644556 310950 L-644387 310950 L-643645 310949 L-643458 310948 L-643162 310946 L-642590 310945 L-642565 310943 L-641546 310943 L-641059 310942 L-640965 310942 L-640904 310940 L-640616 310939 L-640330 310938 L-640269 310936 L-640089 310936 L-639378 310935 L-639202 310933 L-639004 310932 L-638852 310931 L-638760 310929 L-638699 310928 L-638157 310928 L-637846 310926 L-637754 310923 L-637677 310921 L-637110 310919 L-637019 310919 L-636764 310916 L-636437 310913 L-636400 310909 L-636245 310905 L-636013 310904 L-635691 310902 L-634559 310901 L-634359 310899 L-633834 310898 L-633589 310898 L-633343 310896 L-633263 310895 L-633243 310892 L-633167 310891 L-633111 310888 L-633034 310887 L-632995 310885 L-632816 310882 L-632779 310881 L-632548 310879 L-631310 310878 L-630983 310877 L-630944 310874 L-630162 310872 L-630015 310871 L-629023 310869 L-628817 310869 L-628391 310869 L-628264 310869 L-627859 310871 L-627771 310869 L-627115 310868 L-626407 310867 L-625799 310865 L-625606 310864 L-625373 310861 L-624754 310860 L-624459 310857 L-624019 310855 L-623864 310854 L-623709 310852 L-622953 310850 L-622603 310848 L-622201 310848 L-622162 310847 L-621156 310847 L-620836 310847 L-620589 310845 L-619890 310842 L-619816 310841 L-619504 310840 L-618424 310838 L-618232 310837 L-617998 310837 L-617804 310835 L-617303 310834 L-616550 310834 L-616436 310834 L-616236 310834 L-616195 310833 L-616102 310831 L-615789 310830 L-615701 310828 L-615584 310827 L-615267 310827 L-615198 310825 L-615173 310824 L-614811 310823 L-614772 310821 L-614556 310820 L-614052 310821 L-613450 310823 L-613239 310825 L-613085 310827 L-613048 310827 L-613004 310824 L-612969 310823 L-612836 310821 L-612427 310820 L-612056 310818 L-612003 310817 L-611987 310816 L-611908 310814 L-611498 310813 L-611344 310811 L-611329 310808 L-611289 310807 L-611111 310804 L-611035 310803 L-610803 310801 L-610013 310800 L-609936 310800 L-609201 310797 L-609045 310796 L-608805 310793 L-608744 310790 L-608658 310789 L-608636 310786 L-608518 310783 L-608504 310780 L-608442 310777 L-608404 310776 L-608310 310774 L-608288 310774 L-608172 310773 L-607939 310771 L-607769 310769 L-606949 310769 L-606548 310767 L-606392 310767 L-605887 310767 L-605773 310767 L-605177 310767 L-604803 310766 L-604751 310766 L-604557 310764 L-603860 310764 L-603822 310763 L-603677 310763 L-603452 310762 L-603190 310760 L-602817 310759 L-602391 310757 L-602262 310756 L-602242 310753 L-601749 310753 L-601052 310752 L-600821 310753 L-600667 310753 L-599698 310753 L-599473 310754 L-599196 310754 L-599180 310753 L-598654 310752 L-598125 310750 L-597977 310749 L-597957 310747 L-597416 310746 L-597106 310744 L-596988 310742 L-596796 310739 L-596660 310736 L-596333 310735 L-596216 310733 L-595907 310733 L-595481 310732 L-595425 310732 L-595192 310733 L-595095 310733 L-594962 310733 L-594666 310733 L-594552 310732 L-594188 310730 L-593875 310730 L-593392 310729 L-593221 310727 L-592973 310726 L-592757 310725 L-592232 310723 L-592045 310720 L-591690 310719 L-591054 310718 L-590900 310715 L-590159 310713 L-589740 310712 L-589559 310710 L-589483 310710 L-589352 310709 L-589059 310708 L-589018 310706 L-588788 310706 L-588595 310705 L-588340 310705 L-587914 310703 L-587804 310702 L-587186 310702 L-587005 310702 L-585793 310702 L-585146 310703 L-584995 310703 L-584958 310703 L-584826 310703 L-584725 310702 L-584709 310700 L-584627 310699 L-584416 310698 L-584299 310696 L-583936 310695 L-583564 310693 L-582868 310692 L-582465 310691 L-582360 310689 L-582342 310688 L-581398 310686 L-581203 310683 L-581050 310682 L-580995 310679 L-580239 310679 L-580222 310682 L-579733 310683 L-579602 310686 L-579409 310686 L-578519 310685 L-578480 310683 L-578441 310682 L-578365 310681 L-578326 310681 L-578249 310679 L-578165 310678 L-577900 310676 L-577668 310675 L-577606 310673 L-577125 310672 L-576789 310672 L-576678 310671 L-576484 310669 L-576308 310668 L-576248 310668 L-576212 310666 L-575942 310665 L-575245 310662 L-575192 310659 L-574898 310656 L-574496 310654 L-573931 310652 L-573058 310651 L-572754 310649 L-572716 310648 L-572593 310647 L-571994 310645 L-571865 310644 L-571664 310642 L-571627 310641 L-571013 310639 L-570835 310638 L-570820 310635 L-570602 310634 L-570523 310631 L-570216 310631 L-570084 310629 L-569852 310629 L-569518 310629 L-569427 310628 L-569326 310627 L-569288 310625 L-568745 310625 L-568553 310624 L-568011 310622 L-567586 310621 L-567454 310621 L-567392 310621 L-567161 310621 L-567144 310621 L-566656 310622 L-566576 310622 L-566558 310622 L-565165 310624 L-565029 310624 L-564916 310622 L-564281 310621 L-564142 310620 L-564024 310618 L-563870 310615 L-563833 310614 L-563755 310612 L-563701 310614 L-562709 310614 L-562672 310612 L-562539 310612 L-562479 310610 L-562380 310608 L-562089 310607 L-562076 310605 L-561766 310605 L-561666 310607 L-561200 310605 L-561147 310756 L-561004 310905 L-560877 311055 L-560644 311206 L-560076 311205 L-559987 311203 L-559964 311203 L-559677 311202 L-558994 311200 L-558917 311199 L-558881 311198 L-558865 311196 L-558665 311195 L-558245 311192 L-557974 311192 L-557100 311190 L-556808 311190 L-556697 311190 L-555963 311189 L-555836 311188 L-555476 311186 L-555224 311186 L-554352 311185 L-554183 311185 L-554122 311183 L-554067 311182 L-553719 311180 L-553695 311179 L-553487 311178 L-553346 311176 L-553216 311175 L-553093 311173 L-552970 311172 L-552733 311171 L-552442 311169 L-551783 311168 L-551761 311166 L-551606 311165 L-551489 311163 L-550524 311162 L-550469 311161 L-550236 311159 L-550214 311158 L-549888 311156 L-549772 311156 L-549732 311155 L-549231 311155 L-548932 311153 L-548820 311152 L-548278 311151 L-547219 311149 L-546593 311148 L-546421 311146 L-546173 311145 L-545917 311144 L-545786 311142 L-545764 311141 L-545097 311139 L-544201 311138 L-544155 311136 L-544084 311135 L-543969 311135 L-543748 311134 L-543557 311134 L-543518 311132 L-543326 311131 L-542667 311131 L-542050 311129 L-542011 311138 L-541414 311146 L-541353 311153 L-540231 311161 L-540176 311161 L-540055 311159 L-539790 311158 L-539726 311158 L-539457 311158 L-539381 311156 L-539165 311156 L-538682 311155 L-538412 311153 L-538281 311153 L-538049 311151 L-538024 311146 L-538009 311141 L-537986 311134 L-537971 311126 L-537947 311119 L-537933 311111 L-537909 311102 L-537894 311094 L-537871 311087 L-537856 311080 L-537833 311073 L-537817 311068 L-537789 311064 L-537771 311058 L-537753 311055 L-537717 311051 L-537677 311048 L-537662 311046 L-537637 311041 L-537584 311038 L-537560 311036 L-537483 311033 L-537445 311031 L-537430 311029 L-537367 311026 L-537352 311023 L-537306 311019 L-537235 311016 L-537197 311014 L-537173 311011 L-537120 311009 L-537095 311007 L-537080 311006 L-537018 311004 L-536981 311003 L-536904 311002 L-536888 311000 L-536860 310997 L-536788 310996 L-536748 310994 L-536595 310992 L-536478 310990 L-536424 310989 L-536342 310987 L-536308 310986 L-536284 310984 L-536130 310983 L-536115 310982 L-536013 310980 L-535703 310979 L-535666 310977 L-535451 310976 L-535340 310976 L-535315 310976 L-535085 310977 L-534853 310977 L-534478 310976 L-534350 310975 L-534310 310973 L-534258 310972 L-534156 310970 L-534119 310969 L-533909 310969 L-533845 310967 L-533732 310967 L-533521 310966 L-533484 310965 L-533111 310963 L-533058 310962 L-532979 310960 L-532957 310959 L-532865 310958 L-532665 310956 L-532627 310956 L-532605 310956 L-532375 310956 L-532354 310955 L-532145 310955 L-532050 310953 L-532013 310952 L-531676 310950 L-531564 310949 L-531524 310948 L-531510 310948 L-531370 310946 L-531356 310946 L-531101 310946 L-530518 310945 L-530442 310943 L-530404 310942 L-530359 310940 L-530311 310939 L-530131 310938 L-530117 310936 L-530017 310935 L-529939 310933 L-529879 310932 L-529513 310929 L-529431 310928 L-529413 310926 L-529360 310925 L-528391 310923 L-528260 310922 L-528238 310921 L-528018 310919 L-527949 310918 L-527927 310916 L-527680 310915 L-527424 310913 L-527293 310912 L-527254 310911 L-527232 310908 L-527177 310905 L-527089 310904 L-527028 310901 L-526803 310899 L-526673 310898 L-526573 310896 L-526519 310895 L-526326 310894 L-526248 310892 L-525914 310891 L-525784 310889 L-525606 310888 L-525590 310887 L-525565 310885 L-525296 310885 L-524095 310884 L-524058 310884 L-523942 310882 L-523709 310881 L-523518 310879 L-523479 310879 L-523423 310878 L-523318 310878 L-522805 310877 L-522511 310875 L-522279 310874 L-522004 310872 L-521987 310871 L-521954 310869 L-521914 310868 L-521876 310867 L-521775 310865 L-521698 310864 L-521605 310862 L-521478 310861 L-521373 310860 L-521195 310860 L-521003 310858 L-520174 310858 L-520058 310857 L-519803 310855 L-519763 310854 L-519664 310852 L-519604 310852 L-519361 310851 L-519337 310851 L-519217 310850 L-519145 310848 L-519106 310847 L-518874 310845 L-518698 310844 L-518177 310842 L-518101 310841 L-518084 310840 L-517673 310840 L-517310 310840 L-517195 310838 L-517172 310838 L-517131 310837 L-517055 310835 L-517001 310834 L-516652 310833 L-516537 310831 L-516359 310831 L-516304 310830 L-516280 310830 L-516166 310828 L-515879 310827 L-515647 310825 L-515431 310824 L-515222 310823 L-515011 310820 L-514185 310818 L-513845 310817 L-512838 310816 L-512475 310814 L-511429 310813 L-511352 310811 L-510905 310810 L-510693 310808 L-510501 310807 L-510207 310806 L-510166 310804 L-510013 310803 L-509959 310800 L-509728 310798 L-509147 310797 L-508953 310796 L-508334 310796 L-507845 310794 L-507793 310793 L-507145 310791 L-506994 310790 L-506825 310789 L-506452 310787 L-506437 310787 L-506338 310786 L-506299 310786 L-506168 310784 L-505735 310784 L-505432 310784 L-505046 310784 L-504906 310783 L-504745 310783 L-504311 310783 L-504272 310781 L-504171 310781 L-504055 310780 L-503877 310780 L-503707 310779 L-503589 310777 L-503228 310774 L-503010 310773 L-502878 310771 L-502738 310771 L-502239 310771 L-502161 310771 L-501926 310770 L-501603 310770 L-501216 310769 L-501193 310767 L-500573 310767 L-500303 310766 L-500070 310766 L-499645 310764 L-499373 310763 L-499231 310762 L-499023 310760 L-498817 310759 L-498266 310757 L-498135 310757 L-497748 310756 L-497478 310756 L-497375 310754 L-497115 310753 L-496913 310752 L-496844 310750 L-496805 310749 L-496238 310747 L-496031 310746 L-496004 310744 L-495774 310743 L-495697 310742 L-495180 310740 L-495142 310739 L-494986 310737 L-494692 310736 L-494421 310735 L-494057 310733 L-493709 310733 L-493337 310732 L-493217 310732 L-493145 310730 L-492665 310729 L-492602 310727 L-492268 310726 L-492137 310725 L-492059 310723 L-491930 310722 L-491466 310722 L-491172 310720 L-491095 310720 L-490784 310719 L-490475 310718 L-490412 310716 L-490382 310715 L-489608 310713 L-489503 310710 L-489415 310709 L-489392 310708 L-489238 310706 L-489016 310705 L-488850 310703 L-488463 310702 L-488408 310700 L-488345 310700 L-487727 310699 L-487610 310698 L-487287 310696 L-486761 310695 L-486411 310693 L-486335 310692 L-485715 310691 L-485304 310689 L-485004 310688 L-484693 310686 L-484555 310685 L-483931 310685 L-483549 310683 L-482426 310683 L-481365 310682 L-481303 310681 L-480942 310679 L-480841 310679 L-480825 310678 L-480451 310678 L-479446 310675 L-479059 310673 L-478852 310671 L-478763 310669 L-478387 310668 L-478094 310666 L-477783 310665 L-476994 310664 L-476906 310662 L-476854 310661 L-476816 310659 L-476298 310658 L-476183 310656 L-475974 310655 L-475835 310654 L-475231 310652 L-474402 310651 L-474118 310649 L-473937 310649 L-473435 310648 L-473230 310648 L-472676 310648 L-472171 310647 L-471980 310645 L-471941 310644 L-471312 310642 L-470859 310641 L-470445 310639 L-469836 310638 L-468715 310638 L-468302 310637 L-467978 310637 L-467763 310635 L-467336 310634 L-467196 310632 L-467105 310631 L-466874 310629 L-466287 310629 L-465479 310628 L-464280 310628 L-464166 310628 L-464034 310627 L-463946 310625 L-463904 310627 L-463884 310628 L-463873 310631 L-463778 310634 L-463015 310634 L-462309 310634 L-462269 310632 L-461982 310631 L-461442 310629 L-461380 310628 L-461340 310627 L-461326 310625 L-461069 310624 L-460745 310622 L-460605 310621 L-460335 310620 L-460296 310618 L-460188 310617 L-459787 310615 L-459677 310614 L-459600 310612 L-459303 310611 L-459260 310610 L-459042 310610 L-458858 310610 L-458748 310610 L-458733 310608 L-458707 310608 L-458283 310607 L-458037 310605 L-457701 310604 L-457666 310602 L-457532 310601 L-457278 310601 L-457123 310600 L-456217 310600 L-456118 310598 L-455923 310595 L-454916 310594 L-454415 310593 L-454337 310591 L-454298 310590 L-454090 310588 L-453972 310587 L-453874 310585 L-453688 310584 L-453522 310583 L-453287 310581 L-452867 310580 L-452852 310578 L-452543 310577 L-451497 310576 L-451280 310574 L-451264 310573 L-451242 310571 L-451033 310570 L-450874 310568 L-450816 310567 L-449370 310566 L-449045 310566 L-448843 310566 L-448644 310566 L-448494 310566 L-448223 310564 L-447782 310563 L-447565 310563 L-446870 310561 L-446368 310560 L-446043 310558 L-445771 310558 L-445051 310557 L-444896 310557 L-443698 310554 L-443309 310553 L-443193 310550 L-443040 310549 L-442886 310547 L-441915 310546 L-441863 310544 L-441616 310543 L-441594 310541 L-441374 310540 L-440936 310537 L-440796 310534 L-440688 310531 L-440486 310530 L-440369 310529 L-440267 310527 L-440252 310527 L-440120 310526 L-439866 310524 L-439248 310523 L-438589 310522 L-438343 310522 L-438150 310520 L-437391 310520 L-437352 310520 L-437274 310519 L-437221 310516 L-437182 310514 L-437144 310513 L-437105 310512 L-437014 310510 L-436969 310509 L-436911 310506 L-436887 310505 L-436772 310503 L-436462 310500 L-436407 310499 L-436386 310497 L-436044 310496 L-435879 310495 L-435843 310492 L-435802 310490 L-435788 310489 L-435556 310487 L-435415 310486 L-435248 310485 L-434798 310485 L-434565 310485 L-434472 310485 L-434452 310486 L-433971 310485 L-433894 310485 L-433767 310483 L-433637 310480 L-433258 310479 L-433017 310476 L-432979 310475 L-432925 310473 L-432787 310470 L-432748 310469 L-432708 310468 L-432478 310466 L-432438 310465 L-432307 310463 L-432129 310462 L-432088 310460 L-432074 310459 L-431910 310458 L-431895 310456 L-431742 310455 L-431727 310453 L-431701 310452 L-431667 310451 L-431445 310448 L-431222 310448 L-430968 310446 L-430836 310448 L-430194 310448 L-429586 310446 L-428567 310446 L-428374 310445 L-428323 310443 L-428197 310442 L-427873 310441 L-427100 310439 L-427043 310438 L-426929 310436 L-426517 310435 L-426192 310434 L-426054 310432 L-425830 310431 L-425304 310429 L-424903 310429 L-424871 310428 L-424584 310428 L-424299 310426 L-423911 310425 L-423695 310424 L-423267 310421 L-423086 310419 L-422750 310418 L-422643 310416 L-422457 310416 L-422340 310415 L-422326 310415 L-421604 310414 L-421435 310412 L-421186 310411 L-421086 310409 L-420444 310408 L-420156 310407 L-419966 310405 L-419691 310404 L-419373 310402 L-419089 310401 L-418975 310398 L-418930 310397 L-418727 310395 L-417119 310394 L-416907 310392 L-416226 310391 L-416143 310389 L-415915 310388 L-415725 310388 L-415586 310387 L-415567 310387 L-415374 310387 L-415144 310387 L-414951 310387 L-413867 310385 L-413672 310385 L-413619 310385 L-413465 310385 L-413358 310385 L-413191 310385 L-413039 310384 L-412924 310382 L-412800 310380 L-412382 310378 L-412125 310375 L-412033 310374 L-411840 310374 L-411778 310372 L-411453 310372 L-411392 310372 L-411335 310371 L-411066 310370 L-410717 310368 L-410539 310367 L-410345 310365 L-410309 310367 L-409596 310367 L-409557 310370 L-409247 310371 L-408949 310372 L-408900 310374 L-408644 310375 L-408373 310377 L-408318 310377 L-407227 310377 L-407197 310375 L-407156 310375 L-406980 310375 L-406787 310374 L-405929 310374 L-404876 310372 L-404815 310371 L-404466 310370 L-403653 310370 L-402840 310370 L-402825 310370 L-402450 310370 L-402281 310370 L-402012 310370 L-401685 310368 L-401563 310367 L-401506 310367 L-401471 310365 L-401393 310365 L-401176 310364 L-401118 310362 L-400802 310361 L-400634 310360 L-400271 310360 L-400078 310360 L-400054 310360 L-399977 310358 L-399496 310358 L-399359 310358 L-398945 310357 L-398646 310357 L-398547 310355 L-398531 310354 L-398502 310353 L-398143 310351 L-397793 310350 L-397655 310348 L-397619 310348 L-396802 310347 L-396596 310345 L-396571 310344 L-396415 310344 L-396325 310343 L-396084 310343 L-395760 310341 L-395668 310341 L-395471 310340 L-395185 310340 L-394430 310338 L-394300 310337 L-394227 310336 L-393614 310334 L-393438 310333 L-393328 310331 L-393228 310330 L-393149 310328 L-393012 310327 L-392858 310327 L-392779 310327 L-392588 310327 L-391914 310327 L-391876 310326 L-391773 310324 L-390830 310323 L-390808 310321 L-390457 310320 L-389992 310318 L-389957 310317 L-389527 310316 L-389476 310316 L-389065 310314 L-389048 310314 L-388952 310314 L-388897 310314 L-388858 310314 L-388563 310313 L-386824 310311 L-385315 310310 L-384807 310309 L-384309 310307 L-384175 310306 L-384084 310304 L-383957 310303 L-383878 310300 L-383573 310299 L-383302 310297 L-383068 310297 L-381869 310296 L-381764 310296 L-381698 310294 L-380857 310293 L-380671 310291 L-379760 310290 L-378891 310287 L-378603 310286 L-378511 310283 L-377962 310282 L-377442 310280 L-376373 310279 L-376105 310277 L-375951 310277 L-375858 310277 L-375728 310279 L-375681 310280 L-375521 310280 L-374655 310280 L-374320 310280 L-373937 310279 L-373184 310277 L-373125 310276 L-372736 310276 L-372414 310276 L-372257 310274 L-371525 310274 L-371462 310274 L-371175 310274 L-370801 310274 L-370620 310274 L-370364 310273 L-370103 310270 L-369950 310269 L-369547 310267 L-368249 310266 L-368134 310265 L-367671 310263 L-366339 310262 L-365914 310260 L-365890 310259 L-365757 310257 L-365582 310256 L-365448 310256 L-365118 310255 L-364731 310253 L-364691 310252 L-364675 310249 L-364284 310247 L-363993 310246 L-363724 310246 L-363550 310246 L-362057 310246 L-362007 310245 L-361929 310246 L-360689 310247 L-360614 310247 L-360587 310250 L-360341 310249 L-360183 310249 L-360125 310247 L-359237 310247 L-359009 310246 L-358485 310246 L-358344 310247 L-358268 310247 L-357572 310249 L-357324 310249 L-356643 310247 L-356626 310247 L-356372 310246 L-356004 310246 L-355869 310245 L-355247 310242 L-354903 310240 L-354856 310239 L-354369 310238 L-354035 310235 L-353818 310235 L-353684 310233 L-353363 310232 L-353298 310232 L-353046 310230 L-352757 310229 L-352447 310228 L-352307 310226 L-351768 310225 L-351492 310223 L-350762 310222 L-350709 310222 L-350602 310222 L-350336 310222 L-349912 310222 L-349647 310220 L-349428 310219 L-349407 310218 L-349176 310216 L-348889 310215 L-348866 310215 L-348851 310213 L-348479 310213 L-348307 310212 L-348231 310209 L-348170 310208 L-347869 310205 L-347628 310202 L-347535 310201 L-347278 310199 L-347226 310198 L-347030 310196 L-346814 310198 L-346390 310198 L-346298 310199 L-346158 310198 L-345293 310196 L-344919 310195 L-344592 310192 L-344439 310191 L-344012 310191 L-343294 310189 L-343099 310189 L-342745 310188 L-342599 310186 L-342092 310184 L-341856 310182 L-340889 310181 L-340879 310179 L-339813 310178 L-339581 310176 L-339179 310175 L-338985 310174 L-338905 310172 L-338809 310171 L-338072 310171 L-337940 310171 L-337550 310171 L-337528 310169 L-337433 310169 L-337297 310168 L-337280 310167 L-337260 310165 L-335575 310164 L-335557 310164 L-335440 310162 L-335356 310162 L-335231 310162 L-335207 310161 L-334923 310159 L-334816 310158 L-334628 310155 L-334357 310154 L-333686 310152 L-333314 310151 L-332462 310151 L-332404 310149 L-332385 310149 L-332152 310149 L-331877 310148 L-331572 310148 L-331532 310145 L-331301 310145 L-331064 310144 L-330451 310142 L-330410 310141 L-330373 310138 L-329851 310137 L-329660 310135 L-329599 310134 L-329557 310132 L-329234 310132 L-329206 310131 L-329192 310131 L-328706 310130 L-328653 310128 L-328515 310127 L-328477 310125 L-328460 310124 L-328365 310123 L-327700 310123 L-327084 310121 L-326814 310121 L-326406 310121 L-326385 310120 L-326370 310120 L-326256 310118 L-325869 310117 L-325403 310117 L-325342 310115 L-325263 310114 L-325249 310113 L-324763 310110 L-324723 310108 L-324578 310108 L-324528 310107 L-324449 310108 L-323817 310107 L-323726 310107 L-323485 310107 L-323369 310105 L-323041 310105 L-322287 310104 L-322270 310104 L-321318 310104 L-321009 310103 L-320584 310101 L-319871 310100 L-319552 310098 L-319537 310097 L-319386 310094 L-319083 310093 L-319005 310091 L-318878 310090 L-318441 310090 L-318380 310090 L-317857 310090 L-317589 310090 L-317451 310088 L-317373 310087 L-317334 310086 L-316523 310086 L-316482 310086 L-316042 310086 L-315964 310086 L-315706 310084 L-315516 310083 L-314887 310081 L-314700 310080 L-314665 310077 L-314509 310076 L-314108 310073 L-314030 310071 L-313849 310070 L-313659 310069 L-312730 310066 L-312580 310064 L-311372 310063 L-310562 310061 L-310159 310060 L-309557 310059 L-309355 310057 L-309286 310056 L-309128 310054 L-308866 310053 L-308493 311325 L-308474 311324 L-308318 311324 L-307119 311324 L-306016 310050 L-305088 310049 L-304974 310047 L-304689 310046 L-304587 310044 L-304563 310044 L-304372 310042 L-304295 310040 L-304099 310040 L-303387 310040 L-303229 310042 L-302172 310042 L-301748 310042 L-301337 310040 L-301051 310037 L-300877 310036 L-300645 310034 L-300391 310033 L-299948 310032 L-299288 310030 L-299112 310029 L-298807 310027 L-298420 310026 L-298400 310025 L-298381 310023 L-298359 310022 L-298226 310020 L-298033 310019 L-296389 310017 L-295093 310016 L-295054 310015 L-294996 310013 L-294895 310012 L-294336 310010 L-293351 310009 L-292809 310006 L-292345 310005 L-291700 310003 L-291151 310002 L-290101 310000 L-289172 309999 L-288825 309998 L-288631 309996 L-288128 309995 L-287683 309995 L-287541 309993 L-287519 309993 L-286948 309993 L-286563 309990 L-285729 309989 L-285381 309988 L-285359 309986 L-284971 309986 L-284548 309985 L-283950 309983 L-283931 309982 L-283425 309982 L-283193 309980 L-283080 309980 L-282461 309978 L-281899 309976 L-281859 309975 L-281300 309973 L-280967 309972 L-280855 309972 L-280816 309971 L-280391 309971 L-280331 309971 L-280255 309969 L-279964 309969 L-279752 309968 L-279268 309965 L-279054 309963 L-277914 309962 L-277855 309961 L-277837 309959 L-277431 309958 L-276792 309956 L-276657 309955 L-276599 309954 L-276057 309952 L-275748 309951 L-275497 309951 L-275421 309949 L-275301 309948 L-274568 309945 L-274123 309944 L-273908 309942 L-273175 309941 L-273000 309939 L-272635 309939 L-272420 309939 L-271182 309939 L-270872 309939 L-270756 309939 L-270503 309938 L-270292 309936 L-269750 309935 L-269518 309934 L-269461 309934 L-269363 309932 L-269034 309932 L-268802 309931 L-267139 309929 L-266789 309928 L-266385 309925 L-266230 309924 L-265437 309922 L-263946 309921 L-263560 309919 L-263521 309918 L-263267 309917 L-263172 309915 L-262980 309914 L-262631 309914 L-261935 309912 L-261684 309912 L-260968 309911 L-259556 309909 L-259324 309908 L-258994 309908 L-257778 309908 L-257426 309909 L-257234 309911 L-257116 309912 L-254681 309912 L-253712 309911 L-252881 309909 L-252572 309908 L-251229 309907 L-250657 309905 L-250541 309904 L-250212 309904 L-250115 309902 L-249708 309902 L-249593 309901 L-249402 309900 L-248645 309898 L-248520 309897 L-248238 309895 L-247736 309894 L-247658 309892 L-246072 309900 L-246014 309907 L-245272 309915 L-244891 309922 L-244563 309921 L-243900 309919 L-243770 309918 L-243730 309918 L-243480 309918 L-243344 309918 L-243151 309917 L-243015 309917 L-242764 309914 L-242551 309914 L-242242 309912 L-241969 309912 L-241468 309912 L-241449 309912 L-241015 309911 L-240789 309909 L-240345 309908 L-240327 309907 L-239824 309905 L-239686 309904 L-239572 309902 L-239340 309901 L-239030 309900 L-238565 309898 L-238488 309897 L-237985 309895 L-237715 309894 L-237377 309892 L-237192 309891 L-236515 309890 L-236496 309890 L-236322 309888 L-236302 309887 L-235684 309885 L-234968 309884 L-234406 309883 L-234211 309883 L-234058 309881 L-234039 309881 L-233516 309878 L-233401 309877 L-232530 309875 L-232508 309874 L-232452 309873 L-231620 309871 L-231311 309870 L-231234 309868 L-230963 309867 L-230900 309867 L-230849 309864 L-230538 309861 L-229921 309858 L-229145 309857 L-228351 309856 L-228313 309854 L-228236 309853 L-228063 309851 L-227185 309850 L-226301 309848 L-226206 309847 L-226087 309846 L-225757 309844 L-225721 309844 L-225488 309843 L-225255 309843 L-224540 309840 L-224038 309838 L-223372 309837 L-223264 309836 L-223109 309834 L-223090 309833 L-222935 309831 L-222520 309830 L-221909 309829 L-221774 309827 L-220866 309826 L-220663 309824 L-220110 309823 L-217461 309821 L-217286 309820 L-217208 309817 L-216337 309816 L-215873 309814 L-215390 309813 L-215352 309810 L-214771 309809 L-214751 309807 L-213649 309806 L-212227 309804 L-211810 309803 L-211502 309802 L-211425 309800 L-211349 309799 L-211191 309797 L-211115 309796 L-210651 309794 L-209413 309793 L-209161 309792 L-208717 309790 L-208095 309789 L-208039 309787 L-207845 309787 L-207381 309786 L-207090 309783 L-207049 309780 L-207013 309777 L-206860 309775 L-206682 309773 L-205544 309770 L-205156 309769 L-205099 309767 L-204925 309766 L-202408 309763 L-201248 309762 L-200610 309760 L-200472 309759 L-200340 309756 L-199952 309755 L-199488 309753 L-199278 309750 L-199212 309749 L-199179 309748 L-198425 309746 L-197843 309745 L-197651 309743 L-197032 309742 L-196986 309741 L-196625 309739 L-196519 309738 L-196335 309736 L-196057 309735 L-195154 309733 L-194149 309732 L-193414 309731 L-192988 309729 L-192828 309728 L-192465 309726 L-192368 309725 L-191925 309723 L-191849 309722 L-191497 309722 L-191247 309719 L-191228 309716 L-191054 309714 L-190106 309709 L-189992 309708 L-189429 309706 L-188979 309705 L-188594 309704 L-187683 309702 L-187628 309701 L-186488 309699 L-185908 309696 L-185733 309695 L-184940 309692 L-184708 309691 L-184322 309689 L-184051 309688 L-183915 309687 L-183800 309685 L-183180 309685 L-183123 309685 L-182908 309685 L-182613 309685 L-181825 309684 L-181685 309684 L-180297 309682 L-179950 309682 L-179563 309681 L-179502 309678 L-179465 309677 L-179408 309675 L-178765 309674 L-178074 309672 L-177822 309672 L-177486 309671 L-177397 309671 L-176876 309670 L-176623 309668 L-176407 309665 L-176024 309664 L-175863 309662 L-175325 309660 L-174513 309658 L-174494 309657 L-174378 309657 L-174234 309655 L-173853 309655 L-173661 309655 L-173605 309654 L-173305 309652 L-173239 309651 L-173043 309650 L-172676 309648 L-172614 309647 L-172311 309645 L-172265 309645 L-172211 309644 L-171573 309644 L-171554 309643 L-171069 309641 L-170587 309643 L-170218 309643 L-169851 309644 L-169717 309644 L-169563 309643 L-169493 309641 L-168845 309641 L-168825 309640 L-168685 309640 L-168200 309638 L-167917 309638 L-167859 309637 L-167801 309637 L-167491 309635 L-167337 309634 L-166853 309634 L-166080 309634 L-165440 309634 L-165342 309633 L-164280 309633 L-164258 309631 L-163793 311345 L-163777 311345 L-163604 311345 L-163091 311345 L-160737 309630 L-159792 309628 L-159073 309627 L-158533 309624 L-157836 309623 L-157519 309621 L-156871 309620 L-156363 309618 L-156329 309617 L-156287 309616 L-155941 309614 L-155246 309613 L-155049 309611 L-155033 309608 L-154917 309607 L-154635 309606 L-153737 309603 L-153691 309601 L-153325 309599 L-153308 309597 L-153253 309596 L-153060 309594 L-152924 309593 L-152848 309591 L-152615 309590 L-152073 309589 L-152033 309587 L-151996 309586 L-151970 309584 L-151335 309581 L-150793 309580 L-149628 309579 L-149268 309577 L-147991 309577 L-147952 309576 L-147914 309576 L-147699 309574 L-147508 309573 L-147431 309572 L-147277 309570 L-147238 309569 L-146149 309567 L-145825 309567 L-145610 309566 L-145350 309566 L-144857 309566 L-144835 309572 L-144418 309577 L-144277 309581 L-144217 309587 L-144140 309587 L-143929 309586 L-142634 309586 L-142358 309584 L-141734 309583 L-140342 309581 L-140270 309580 L-140232 309577 L-140039 309576 L-139649 309574 L-139342 309573 L-139286 309572 L-138970 309572 L-138920 309572 L-138881 309570 L-138836 309569 L-138203 309567 L-137429 309566 L-136990 309564 L-136848 311294 L-136824 311293 L-136808 313022 L-136783 313022 L-136365 311293 L-136162 311291 L-136013 309560 L-135935 309559 L-135880 309557 L-135083 309557 L-135067 309557 L-134204 309557 L-134000 309557 L-133713 309556 L-133597 309554 L-133072 309553 L-132895 309552 L-132591 309550 L-132204 309549 L-132144 309546 L-132088 309545 L-131934 309543 L-130889 309542 L-130327 309542 L-130091 309540 L-130054 309540 L-129785 309540 L-129379 309539 L-127910 309537 L-126169 309536 L-125782 309535 L-125550 309533 L-125451 309532 L-125356 309530 L-125201 309527 L-124638 309527 L-124556 309526 L-124389 309526 L-123846 309527 L-122662 309527 L-122647 309527 L-122588 309527 L-122437 309526 L-121952 309525 L-121305 309523 L-120598 309520 L-120482 309519 L-119515 309518 L-119470 309516 L-118779 309516 L-118723 309515 L-118645 309515 L-118625 309513 L-118604 309512 L-118389 309510 L-117676 309510 L-117286 309509 L-117249 309508 L-117232 309506 L-117174 309505 L-116747 309503 L-116532 309502 L-116458 309499 L-116380 309498 L-116265 309496 L-116199 309496 L-116071 309495 L-116012 309495 L-115936 309492 L-115857 309491 L-115429 309489 L-114703 309488 L-114690 309485 L-114523 309483 L-114307 309481 L-114292 309478 L-113711 309476 L-113439 309475 L-113151 309474 L-112721 309472 L-112568 309471 L-112511 309469 L-112335 309468 L-110939 309466 L-110674 309464 L-109781 309461 L-109255 309459 L-108236 309456 L-108155 309455 L-107691 309454 L-107072 309454 L-106785 309452 L-106532 309452 L-106380 309451 L-106032 309449 L-105315 309448 L-104753 309447 L-103865 309445 L-103556 309445 L-103265 309445 L-102413 309445 L-102392 309445 L-101735 309445 L-101232 309442 L-101021 309441 L-101001 309439 L-100672 309438 L-100613 309438 L-100227 309438 L-99241 309438 L-98680 309438 L-98582 309438 L-98274 309437 L-98197 309437 L-97162 309435 L-97032 309434 L-96975 309432 L-96340 309431 L-96281 309430 L-96205 309428 L-94791 309427 L-94654 309425 L-94521 309424 L-94035 309422 L-93785 309421 L-93495 309420 L-93282 309418 L-92625 309417 L-92057 309414 L-91968 309412 L-91828 309411 L-91753 309410 L-90589 309410 L-90556 309408 L-90127 309408 L-90110 309407 L-89936 309405 L-88408 309404 L-88323 309405 L-87518 309405 L-87324 309405 L-87303 309405 L-86450 309404 L-86256 309403 L-85623 309401 L-85447 309400 L-85328 309398 L-85274 309398 L-85253 309398 L-85197 309398 L-84808 309398 L-84364 309398 L-84286 309397 L-84089 309397 L-84028 309395 L-83765 309394 L-83417 309394 L-83301 309393 L-82152 309393 L-81868 309391 L-81423 309390 L-80219 309388 L-80089 309387 L-79779 309385 L-79351 309384 L-78055 309383 L-77745 311050 L-77729 311050 L-77683 311082 L-77633 311082 L-76705 309412 L-76375 309412 L-75826 309378 L-75699 309377 L-75253 309376 L-73719 309374 L-73551 309373 L-73279 309371 L-73255 309368 L-72351 309367 L-72235 309366 L-71768 309364 L-71746 309363 L-71673 309361 L-71475 309360 L-71323 309359 L-70856 309357 L-70205 309356 L-69719 309354 L-69168 309354 L-68147 309354 L-67840 309354 L-67786 309354 L-67186 309353 L-66756 309351 L-66682 309351 L-66664 309350 L-66443 309350 L-66139 309349 L-66057 309347 L-65753 309347 L-65153 309346 L-65017 309344 L-64747 309343 L-64533 309341 L-64358 309341 L-64149 309341 L-64127 309341 L-63878 309359 L-63429 309376 L-63412 309393 L-62967 309410 L-61759 309410 L-61556 309408 L-60628 309408 L-60567 309407 L-60532 309405 L-59506 309404 L-59390 309404 L-59370 309403 L-59216 309403 L-59197 309403 L-58785 309401 L-58770 309401 L-58732 309400 L-58422 309398 L-58268 309397 L-58063 309397 L-57664 309395 L-56682 309395 L-56157 309395 L-56100 309394 L-56075 309394 L-55753 309393 L-55036 309393 L-54167 309393 L-54128 309393 L-54051 309393 L-53800 309391 L-53780 309390 L-53057 309390 L-52907 309388 L-52794 309388 L-52697 309387 L-51595 309385 L-50840 309384 L-50668 309383 L-50506 309381 L-50430 309380 L-50237 309380 L-49098 309378 L-48414 309378 L-48131 309377 L-47164 309376 L-47145 309374 L-46294 309373 L-46254 309371 L-46111 309370 L-45786 309368 L-45557 309367 L-45519 309366 L-45478 309364 L-45462 309361 L-45326 309360 L-45307 309359 L-45095 309357 L-45035 309356 L-44958 309354 L-44934 309353 L-44859 309351 L-44378 309350 L-44282 309349 L-44206 309347 L-44029 309346 L-44007 309344 L-43952 309343 L-43914 309341 L-43855 309340 L-43700 309339 L-42676 309337 L-42377 309336 L-42250 309334 L-42172 309333 L-41146 309332 L-41090 309330 L-41032 309329 L-40986 309327 L-40972 309326 L-40935 309324 L-40896 309323 L-39717 309322 L-39658 309320 L-38961 309320 L-38342 309319 L-38199 309319 L-37757 309317 L-37491 309316 L-36828 309316 L-36544 309314 L-35074 309314 L-34125 309313 L-34019 309312 L-33953 309312 L-33923 309310 L-33603 309309 L-33583 309309 L-32654 309309 L-32478 309310 L-31746 309312 L-31206 232824 L-31182 156334 L-31156 79845 L-31123 3356 L-31107 3354 L-31086 3352 L-31048 3349 L-31028 3349 L-31006 3352 L-30991 3353 L-30972 3354 L-30952 3354 L-30930 3352 L-30913 3350 L-30894 3349 L-30875 3349 L-30836 3349 L-30796 3346 L-30771 3343 L-30755 3339 L-30737 3336 L-30700 3333 L-30681 3332 L-30661 3330 L-30642 3329 L-30621 3326 L-30604 3325 L-30565 3320 L-30542 3316 L-30527 3315 L-30508 3312 L-30488 3310 L-30468 3309 L-30449 3306 L-30411 3305 L-30353 3303 L-30305 3300 L-30253 3299 L-30227 3296 L-30211 3293 L-30194 3292 L-30178 3291 L-30157 3289 L-30140 3289 L-30120 3286 L-30100 3285 L-30077 3282 L-30062 3278 L-30043 3275 L-30023 3274 L-30002 3271 L-29965 3268 L-29946 3265 L-29925 3262 L-29889 3259 L-29868 3258 L-29842 3256 L-29826 3255 L-29808 3252 L-29791 3245 L-29771 3238 L-29753 3229 L-29733 3224 L-29714 3220 L-29656 3217 L-29636 3212 L-29614 3210 L-29579 3205 L-29559 3201 L-29539 3198 L-29521 3195 L-29502 3194 L-29463 3193 L-29443 3190 L-29425 3187 L-29398 3185 L-29211 3183 L-29191 3180 L-29172 3178 L-29149 3176 L-29115 3173 L-29095 3170 L-29073 3166 L-29056 3161 L-29036 3157 L-29017 3153 L-28997 3150 L-28979 3147 L-28960 3144 L-28939 3141 L-28914 3139 L-28898 3136 L-28863 3133 L-28842 3131 L-28824 3129 L-28804 3127 L-28785 3124 L-28764 3122 L-28728 3119 L-28708 3116 L-28686 3113 L-28670 3110 L-28651 3107 L-28631 3105 L-28611 3103 L-28573 3100 L-28496 3099 L-28471 3096 L-28448 3093 L-28420 3089 L-28397 3086 L-28371 3083 L-28321 3080 L-28300 3079 L-28263 3075 L-28244 3072 L-28222 3070 L-28206 3068 L-28186 3066 L-28166 3065 L-28146 3063 L-28109 3060 L-28089 3059 L-28032 3058 L-28011 3056 L-27985 3056 L-27971 3055 L-27953 3055 L-27915 3053 L-27896 3051 L-27877 3048 L-27857 3045 L-27837 3042 L-27819 3039 L-27800 3035 L-27779 3032 L-27759 3029 L-27722 3026 L-27702 3025 L-27683 3024 L-27645 3022 L-27606 3021 L-27586 3019 L-27567 3018 L-27519 3016 L-27491 3015 L-27452 3012 L-27421 3011 L-27407 3008 L-27334 3005 L-27315 3002 L-27293 3001 L-27277 2999 L-27258 2998 L-27218 2998 L-27141 2995 L-27122 2994 L-27103 2991 L-27082 2989 L-27057 2988 L-27025 2987 L-27006 2987 L-26987 2984 L-26948 2981 L-26908 2977 L-26829 2972 L-26794 2970 L-26754 2967 L-26677 2965 L-26658 2964 L-26612 2963 L-26590 2964 L-26562 2964 L-26523 2961 L-26493 2960 L-26478 2957 L-26464 2954 L-26423 2951 L-26362 2950 L-26348 2947 L-26329 2944 L-26308 2941 L-26232 2937 L-26193 2934 L-26175 2931 L-26128 2930 L-26111 2928 L-26093 2927 L-26077 2926 L-26038 2921 L-26018 2918 L-26000 2914 L-25978 2911 L-25961 2909 L-25922 2906 L-25884 2903 L-25865 2900 L-25845 2896 L-25825 2890 L-25807 2884 L-25788 2879 L-25768 2876 L-25748 2874 L-25684 2873 L-25662 2872 L-25634 2870 L-25610 2866 L-25584 2862 L-25568 2856 L-25551 2850 L-25515 2847 L-25497 2845 L-25477 2843 L-25457 2842 L-25434 2839 L-25419 2838 L-25400 2836 L-25380 2832 L-25359 2826 L-25342 2822 L-25322 2818 L-25303 2815 L-25282 2812 L-25265 2811 L-25246 2808 L-25199 2806 L-25183 2803 L-25165 2801 L-25148 2796 L-25127 2792 L-25110 2788 L-25090 2784 L-25071 2778 L-25033 2776 L-25013 2775 L-24971 2774 L-24956 2772 L-24937 2768 L-24916 2764 L-24878 2761 L-24859 2759 L-24839 2757 L-24800 2755 L-24782 2752 L-24756 2749 L-24705 2748 L-24668 2747 L-24653 2745 L-24607 2744 L-24568 2741 L-24548 2740 L-24529 2737 L-24506 2735 L-24491 2732 L-24472 2730 L-24430 2728 L-24413 2725 L-24375 2721 L-24354 2718 L-24336 2714 L-24296 2710 L-24271 2707 L-24254 2704 L-24220 2701 L-24200 2697 L-24181 2691 L-24161 2684 L-24120 2677 L-24104 2670 L-24027 2666 L-24008 2663 L-23968 2661 L-23949 2659 L-23930 2656 L-23910 2656 L-23892 2654 L-23872 2654 L-23777 2656 L-23752 2654 L-23724 2653 L-23693 2650 L-23678 2647 L-23657 2644 L-23619 2642 L-23600 2639 L-23577 2636 L-23562 2634 L-23543 2633 L-23523 2630 L-23501 2627 L-23485 2625 L-23465 2622 L-23446 2619 L-23425 2616 L-23407 2612 L-23389 2609 L-23368 2607 L-23342 2605 L-23325 2600 L-23307 2596 L-23270 2592 L-23252 2586 L-23232 2582 L-23214 2578 L-23192 2572 L-23156 2569 L-23136 2565 L-23113 2561 L-23098 2558 L-23079 2555 L-23059 2552 L-23021 2549 L-22982 2548 L-22962 2546 L-22943 2544 L-22899 2542 L-22797 2542 L-22781 2541 L-22649 2539 L-22634 2538 L-22615 2532 L-22595 2528 L-22573 2525 L-22536 2521 L-22517 2519 L-22497 2518 L-22439 2515 L-22414 2512 L-22397 2510 L-22380 2505 L-22363 2502 L-22343 2501 L-22324 2500 L-22285 2497 L-22263 2495 L-22228 2494 L-22208 2492 L-22186 2491 L-22131 2491 L-22111 2490 L-22053 2488 L-22015 2487 L-21948 2485 L-21920 2483 L-21897 2480 L-21871 2477 L-21838 2474 L-21821 2473 L-21801 2470 L-21783 2474 L-21763 2477 L-21744 2481 L-21722 2485 L-21705 2484 L-21609 2483 L-21551 2481 L-21511 2480 L-21486 2475 L-21454 2473 L-21415 2470 L-21377 2465 L-21357 2463 L-21319 2460 L-21279 2457 L-21241 2454 L-21222 2453 L-21183 2450 L-21164 2447 L-21145 2446 L-21125 2444 L-21106 2443 L-21086 2441 L-21068 2439 L-21041 2434 L-20991 2430 L-20952 2427 L-20921 2424 L-20906 2421 L-20893 2420 L-20854 2417 L-20834 2414 L-20793 2412 L-20777 2409 L-20758 2406 L-20717 2402 L-20681 2399 L-20641 2396 L-20603 2394 L-20557 2392 L-20543 2390 L-20467 2389 L-20428 2387 L-20408 2387 L-20390 2385 L-20371 2383 L-20274 2380 L-20235 2377 L-20177 2375 L-20157 2372 L-20139 2369 L-20113 2369 L-20090 2367 L-20024 2366 L-20007 2366 L-19992 2365 L-19978 2363 L-19942 2362 L-19886 2360 L-19862 2358 L-19829 2355 L-19809 2352 L-19770 2348 L-19750 2343 L-19732 2339 L-19710 2336 L-19693 2333 L-19674 2332 L-19653 2329 L-19628 2326 L-19577 2325 L-19556 2322 L-19500 2321 L-19480 2318 L-19384 2316 L-19365 2314 L-19326 2312 L-19306 2311 L-19288 2306 L-19249 2305 L-19229 2304 L-19210 2302 L-19162 2301 L-19110 2301 L-19083 2299 L-19067 2296 L-19051 2295 L-19035 2292 L-18997 2289 L-18976 2288 L-18957 2285 L-18900 2282 L-18880 2279 L-18858 2275 L-18842 2272 L-18822 2268 L-18803 2265 L-18746 2261 L-18725 2257 L-18699 2252 L-18664 2247 L-18648 2243 L-18628 2240 L-18610 2237 L-18590 2235 L-18571 2233 L-18549 2230 L-18532 2228 L-18513 2227 L-18493 2225 L-18471 2223 L-18455 2220 L-18437 2217 L-18416 2214 L-18396 2213 L-18359 2211 L-18339 2207 L-18319 2203 L-18255 2197 L-18233 2193 L-18205 2190 L-18166 2186 L-18134 2181 L-18119 2177 L-18086 2174 L-18048 2172 L-18029 2170 L-18006 2167 L-17991 2166 L-17972 2163 L-17952 2159 L-17913 2157 L-17893 2154 L-17854 2153 L-17796 2150 L-17771 2149 L-17735 2146 L-17720 2143 L-17699 2140 L-17681 2137 L-17642 2135 L-17621 2133 L-17604 2130 L-17584 2128 L-17565 2123 L-17542 2120 L-17527 2116 L-17508 2113 L-17430 2112 L-17411 2109 L-17391 2106 L-17372 2103 L-17353 2101 L-17327 2098 L-17253 2095 L-17227 2092 L-17211 2088 L-17194 2086 L-17178 2083 L-17158 2081 L-17140 2078 L-17100 2076 L-17078 2075 L-17062 2074 L-17043 2071 L-17023 2069 L-17002 2066 L-16985 2065 L-16889 2062 L-16868 2059 L-16842 2058 L-16809 2055 L-16791 2052 L-16771 2049 L-16753 2047 L-16733 2045 L-16714 2044 L-16692 2042 L-16676 2039 L-16656 2037 L-16636 2034 L-16614 2031 L-16598 2028 L-16579 2027 L-16539 2024 L-16521 2021 L-16482 2018 L-16425 2017 L-16399 2014 L-16376 2011 L-16348 2008 L-16325 2005 L-16299 2003 L-16266 2001 L-16250 2000 L-16229 2000 L-16211 2000 L-16191 2000 L-16172 2000 L-16134 1997 L-16115 1994 L-16095 1990 L-16073 1987 L-16037 1984 L-16017 1983 L-15997 1980 L-15979 1977 L-15960 1976 L-15939 1973 L-15914 1970 L-15898 1967 L-15880 1964 L-15863 1960 L-15843 1957 L-15824 1953 L-15805 1949 L-15785 1946 L-15728 1941 L-15708 1940 L-15686 1937 L-15592 1934 L-15554 1933 L-15534 1943 L-15515 1953 L-15496 1968 L-15398 1984 L-15371 1988 L-15339 1993 L-15321 1991 L-15222 1990 L-15205 1987 L-15187 1985 L-15166 1983 L-15146 1980 L-15128 1976 L-15109 1971 L-15089 1967 L-15070 1963 L-15032 1960 L-15011 1959 L-14954 1957 L-14934 1961 L-14915 1983 L-14896 2004 L-14877 2024 L-14857 2039 L-14836 2039 L-14779 2039 L-14758 2041 L-14722 2039 L-14702 2038 L-14645 2037 L-14625 2035 L-14586 2039 L-14568 2042 L-14541 2045 L-14491 2048 L-14452 2045 L-14393 2042 L-14373 2039 L-14354 2038 L-14315 2037 L-14277 2035 L-14238 2034 L-14161 2032 L-14141 2031 L-14122 2030 L-14025 2028 L-14006 2028 L-13928 2027 L-13871 2025 L-13813 2022 L-13774 2020 L-13755 2018 L-13735 2015 L-13716 2011 L-13591 2007 L-13509 2003 L-13494 1998 L-13479 1994 L-13443 1991 L-13405 1988 L-13386 1987 L-13363 1984 L-13348 1983 L-13329 1980 L-13270 1977 L-13250 1960 L-13232 1940 L-13210 1920 L-13193 1899 L-13174 1893 L-13153 1890 L-13128 1888 L-13111 1885 L-13093 1882 L-13077 1879 L-13056 1872 L-13038 1865 L-13018 1858 L-12978 1851 L-12942 1846 L-12922 1843 L-12899 1841 L-12865 1836 L-12825 1835 L-12806 1832 L-12768 1829 L-12748 1826 L-12729 1825 L-12710 1824 L-12684 1821 L-12662 1818 L-12610 1814 L-12584 1811 L-12568 1809 L-12551 1807 L-12535 1805 L-12515 1802 L-12497 1801 L-12477 1799 L-12400 1798 L-12380 1797 L-12359 1794 L-12342 1788 L-12322 1784 L-12282 1780 L-12246 1775 L-12224 1772 L-12199 1770 L-12183 1768 L-12164 1765 L-12127 1764 L-12110 1763 L-12089 1760 L-12071 1758 L-12049 1755 L-12033 1751 L-12013 1748 L-11993 1746 L-11970 1744 L-11916 1743 L-11896 1740 L-11878 1738 L-11820 1736 L-11756 1733 L-11733 1728 L-11655 1726 L-11623 1721 L-11586 1719 L-11568 1717 L-11548 1714 L-11506 1713 L-11491 1710 L-11452 1706 L-11430 1701 L-11413 1697 L-11393 1692 L-11354 1687 L-11336 1683 L-11317 1680 L-11296 1676 L-11271 1673 L-11254 1669 L-11236 1665 L-11199 1660 L-11161 1657 L-11142 1653 L-11120 1650 L-11084 1649 L-11041 1646 L-10988 1643 L-10949 1640 L-10930 1638 L-10911 1633 L-10890 1630 L-10827 1628 L-10752 1623 L-10709 1622 L-10694 1619 L-10678 1616 L-10640 1615 L-10619 1613 L-10577 1612 L-10562 1612 L-10543 1611 L-10523 1609 L-10501 1606 L-10485 1603 L-10465 1601 L-10425 1596 L-10389 1592 L-10368 1588 L-10342 1584 L-10325 1581 L-10307 1578 L-10291 1575 L-10270 80308 L-10239 80302 L-10213 80297 L-10191 80291 L-10175 1550 L-10155 1548 L-10136 1545 L-10098 1541 L-10079 1537 L-10059 1532 L-10039 1527 L-9982 1523 L-9962 1518 L-9943 1514 L-9898 1513 L-9876 1510 L-9848 1507 L-9823 1504 L-9796 1501 L-9765 1498 L-9729 1496 L-9711 1494 L-9691 1491 L-9615 1490 L-9594 1488 L-9573 1488 L-9556 1490 L-9536 1490 L-9439 1491 L-9414 1488 L-9397 1487 L-9379 1484 L-9363 1480 L-9324 1477 L-9305 1474 L-9264 1471 L-9228 1470 L-9208 1467 L-9185 1466 L-9170 1463 L-9131 1461 L-9073 1460 L-9034 1457 L-8948 1453 L-8920 1450 L-8897 1446 L-8855 1442 L-8783 1440 L-8763 1439 L-8705 1439 L-8686 1440 L-8666 1437 L-8646 1435 L-8609 1432 L-8569 1429 L-8551 1427 L-8511 1427 L-8485 1426 L-8434 1425 L-8396 1423 L-8337 1420 L-8318 1419 L-8299 1416 L-8259 1415 L-8183 1410 L-8164 1408 L-8145 1402 L-8086 1396 L-8067 1392 L-8041 1388 L-8019 1385 L-7953 1382 L-7923 1381 L-7908 1378 L-7872 1376 L-7835 1373 L-7793 1371 L-7758 1368 L-7738 1365 L-7717 1364 L-7699 1362 L-7681 1361 L-7660 1359 L-7641 1358 L-7622 1356 L-7542 1355 L-7487 1354 L-7467 1351 L-7448 1349 L-7408 1349 L-7390 1349 L-7329 1349 L-7294 1348 L-7274 1345 L-7235 1344 L-7196 1341 L-7177 1338 L-7139 1335 L-7023 1332 L-6991 1331 L-6977 1328 L-6943 1325 L-6925 1324 L-6905 1321 L-6862 1319 L-6828 1317 L-6770 1315 L-6749 1312 L-6710 1312 L-6653 1311 L-6628 1310 L-6611 1307 L-6577 1304 L-6556 1301 L-6537 1298 L-6518 1295 L-6461 1293 L-6442 1290 L-6400 1287 L-6384 1284 L-6345 1280 L-6325 1275 L-6306 1273 L-6268 1270 L-6248 1267 L-6229 1266 L-6210 1263 L-6162 1260 L-6134 1257 L-6109 1256 L-6082 1253 L-6066 1250 L-6051 1247 L-6014 1243 L-5957 1240 L-5919 1236 L-5880 1233 L-5859 1230 L-5842 1227 L-5821 1223 L-5782 1220 L-5765 1217 L-5746 1214 L-5725 1210 L-5699 1207 L-5682 1203 L-5664 1200 L-5648 1196 L-5627 1193 L-5609 1190 L-5590 1187 L-5571 1186 L-5549 1183 L-5533 1180 L-5514 1179 L-5470 1173 L-5455 1169 L-5437 1163 L-5416 1156 L-5396 1150 L-5378 1146 L-5339 1141 L-5256 1138 L-5233 1133 L-5205 1129 L-5167 1126 L-5136 1124 L-5122 1121 L-5086 1119 L-5048 1116 L-5005 1116 L-4991 1115 L-4952 1114 L-4893 1111 L-4875 1108 L-4853 1104 L-4817 1102 L-4796 1101 L-4771 1099 L-4753 1098 L-4720 1095 L-4698 1092 L-4681 1089 L-4662 1085 L-4642 1081 L-4604 1077 L-4584 1072 L-4565 1068 L-4541 1065 L-4527 1064 L-4467 1061 L-4449 1058 L-4430 1055 L-4411 1050 L-4391 1047 L-4353 1043 L-4327 1040 L-4277 1037 L-4238 1035 L-4207 1034 L-4193 1033 L-4178 1031 L-4119 1028 L-4100 1027 L-4062 1024 L-4043 1021 L-4023 1018 L-3984 1016 L-3964 1011 L-3946 1008 L-3924 1004 L-3889 1000 L-3867 997 L-3842 994 L-3791 993 L-3752 990 L-3732 986 L-3692 982 L-3675 977 L-3655 973 L-3613 969 L-3598 966 L-3579 963 L-3559 960 L-3539 957 L-3521 956 L-3502 955 L-3482 953 L-3376 950 L-3310 949 L-3280 945 L-3250 942 L-3211 939 L-3191 937 L-3134 935 L-3115 932 L-3095 928 L-3073 923 L-3056 919 L-3018 916 L-2996 912 L-2979 908 L-2960 906 L-2939 903 L-2914 899 L-2897 896 L-2879 892 L-2863 889 L-2842 888 L-2824 886 L-2804 885 L-2785 882 L-2763 881 L-2747 881 L-2708 881 L-2686 881 L-2651 881 L-2611 878 L-2592 876 L-2573 874 L-2553 869 L-2534 866 L-2515 862 L-2496 858 L-2448 857 L-2420 854 L-2397 851 L-2370 849 L-2337 847 L-2283 844 L-2263 842 L-2244 840 L-2221 838 L-2205 835 L-2187 834 L-2128 832 L-2109 831 L-2089 828 L-2032 827 L-2011 824 L-1934 822 L-1915 820 L-1896 817 L-1877 814 L-1836 810 L-1819 804 L-1800 801 L-1779 797 L-1702 795 L-1683 794 L-1605 791 L-1491 788 L-1451 786 L-1418 784 L-1404 783 L-1392 781 L-1371 780 L-1354 778 L-1315 776 L-1277 774 L-1258 771 L-1238 770 L-1161 767 L-1082 764 L-1057 763 L-1042 761 L-1006 760 L-987 760 L-967 759 L-948 757 L-890 754 L-871 753 L-851 750 L-829 749 L-774 746 L-754 743 L-658 740 L-639 737 L-590 737 L-562 736 L-522 736 L-462 733 L-442 732 L-425 729 L-405 727 L-386 726 L-362 723 L-348 722 L-328 719 L-309 716 L-287 715 L-250 712 L-232 710 L-210 707 L-175 705 L-153 703 L-111 702 L-93 699 L-77 696 L-56 692 L-38 689 L-18 686 L0 683 L21 680 L38 678 L58 675 L101 672 L134 669 L154 666 L175 662 L193 659 L212 656 L231 653 L251 652 L270 651 L289 649 L315 649 L404 648 L435 645 L450 642 L485 639 L523 636 L542 635 L565 632 L580 631 L599 628 L619 626 L657 624 L678 621 L696 624 L717 625 L740 625 L753 625 L775 621 L800 617 L836 612 L851 608 L871 604 L890 604 L909 604 L928 604 L950 602 L966 598 L986 595 L1029 591 L1044 590 L1063 587 L1104 584 L1121 582 L1140 578 L1160 575 L1180 573 L1199 570 L1218 568 L1266 565 L1333 564 L1365 563 L1392 561 L1414 560 L1431 558 L1452 557 L1471 555 L1494 555 L1508 554 L1528 553 L1547 548 L1570 544 L1586 541 L1607 538 L1625 537 L1682 534 L1703 531 L1728 529 L1746 526 L1765 523 L1779 520 L1801 517 L1818 514 L1839 513 L1857 510 L1880 510 L1895 509 L1914 507 L1958 504 L1972 503 L1991 500 L2011 499 L2032 497 L2049 494 L2068 492 L2127 489 L2222 487 L2261 484 L2277 483 L2293 480 L2306 479 L2321 476 L2342 475 L2380 472 L2399 470 L2422 469 L2437 467 L2456 465 L2476 462 L2499 458 L2515 452 L2553 449 L2575 445 L2592 442 L2657 439 L2675 436 L2693 435 L2708 432 L2729 431 L2746 428 L2767 425 L2785 422 L2807 418 L2824 412 L2844 408 L2886 404 L2901 401 L2920 398 L2940 394 L2960 391 L2997 386 L3017 384 L3037 381 L3099 378 L3151 375 L3175 374 L3202 371 L3219 367 L3288 364 L3308 361 L3328 357 L3350 355 L3365 352 L3443 350 L3463 345 L3482 342 L3503 340 L3521 335 L3539 333 L3560 330 L3586 327 L3603 325 L3621 323 L3636 320 L3658 318 L3675 315 L3695 315 L3714 314 L3736 313 L3772 310 L3791 307 L3814 304 L3829 303 L3848 300 L3868 298 L3889 296 L3907 294 L3926 291 L3946 287 L4003 284 L4051 281 L4148 280 L4178 277 L4217 276 L4237 274 L4313 273 L4333 271 L4371 270 L4390 269 L4430 266 L4448 263 L4467 260 L4488 259 L4514 257 L4528 256 L4546 253 L4564 252 L4603 250 L4622 247 L4642 246 L4663 243 L4700 242 L4720 240 L4835 240 L4854 239 L4874 237 L4932 236 L5008 236 L5048 236 L5094 236 L5106 236 L5145 235 L5165 233 L5207 232 L5222 229 L5241 227 L5261 225 L5339 223 L5359 223 L5396 222 L5417 220 L5475 219 L5513 216 L5532 215 L5551 212 L5592 209 L5609 208 L5648 208 L5670 208 L5686 209 L5705 210 L5764 209 L5783 209 L5823 208 L5841 208 L5860 208 L5887 205 L5909 203 L5937 202 L6012 199 L6026 198 L6074 195 L6095 192 L6138 191 L6152 189 L6190 188 L6213 186 L6229 185 L6250 183 L6267 182 L6289 181 L6325 178 L6346 176 L6371 173 L6389 172 L6407 169 L6422 168 L6443 165 L6461 162 L6480 159 L6500 158" />
</svg>
