<svg xmlns="http://www.w3.org/2000/svg" version="1.1" viewBox="0 0 6500 1000">
	<path fill="none" stroke="gold" stroke-width="125" stroke-linecap="round" stroke-linejoin="round" d="M0 2962  L-14058 2962 L-13646 2888 L-13421 2925 L-13364 2888 L-13326 2814 L-13142 2740 L-12652 2666 L-12358 2629 L-12047 2592 L-11812 2517 L-11759 2443 L-11700 2369 L-11546 2332 L-11506 2295 L-11373 2258 L-11081 2295 L-10540 2258 L-9930 2184 L-9882 2258 L-9242 2184 L-9209 2221 L-8683 2147 L-8550 2110 L-8160 1962 L-7832 1888 L-7715 1814 L-7504 1888 L-6787 1851 L-6217 1814 L-6110 1777 L-5935 1703 L-5714 1629 L-5312 1592 L-5286 1518 L-4359 1444 L-4271 1370 L-4189 1296 L-4119 1222 L-3821 1185 L-3669 1148 L-1779 1370 L-1678 1259 L-1416 1185 L-1122 1259 L-981 1185 L-732 1148 L-697 1111 L-538 1037 L-75 1000 L177 925 L390 888 L641 851 L990 777 L1917 703 L2011 629 L2422 592 L3592 555 L4781 481 L4874 407 L4901 333 L5167 222 L5466 148 L5595 111 L5632 37 L6447 296" />
</svg>
