<svg xmlns="http://www.w3.org/2000/svg" version="1.1" viewBox="0 0 6500 1000">
	<path fill="none" stroke="gold" stroke-width="125" stroke-linecap="round" stroke-linejoin="round" d="M0 299958  L-1330760 299958 L-1330576 299957 L-1330086 299954 L-1329792 299953 L-1329481 299950 L-1329246 299949 L-1329193 299946 L-1329134 299943 L-1328980 299942 L-1328940 299939 L-1328807 299938 L-1328515 299936 L-1327974 299936 L-1327364 299935 L-1327316 299935 L-1326676 299934 L-1326643 299934 L-1326117 299934 L-1325984 299932 L-1325594 299930 L-1325266 299927 L-1325149 299924 L-1324938 299921 L-1324221 299921 L-1323651 299920 L-1323544 299920 L-1323369 299919 L-1323148 299916 L-1322746 299915 L-1322720 299912 L-1321793 299909 L-1321705 299906 L-1321623 299904 L-1321553 299901 L-1321255 299900 L-1321103 299897 L-1319213 299898 L-1319112 299898 L-1318850 299898 L-1318556 299900 L-1318415 299897 L-1318166 299897 L-1318131 299896 L-1317972 299894 L-1317509 299892 L-1317256 299890 L-1317043 299887 L-1316792 299886 L-1316443 299885 L-1315516 299882 L-1315422 299879 L-1315011 299878 L-1313841 299875 L-1312652 299874 L-1312559 299871 L-1312532 299868 L-1312266 299866 L-1311967 299863 L-1311838 299860 L-1311801 299858 L-1310986 299858 L-1310602 299859 L-1309542 299860 L-1309480 299860 L-1309215 299887 L-1308744 299913 L-1308552 299939 L-1308288 299965 L-1307951 299963 L-1307816 299962 L-1307360 299961 L-1306617 299959 L-1306599 299958 L-1306434 299955 L-1306366 299955 L-1305850 299954 L-1304821 299954 L-1304625 299953 L-1304136 299951 L-1303774 299950 L-1303366 299950 L-1302980 299951 L-1301276 299951 L-1301178 299951 L-1301107 299951 L-1301045 299951 L-1300861 299950 L-1300524 299950 L-1299884 299949 L-1299807 299947 L-1299746 299947 L-1299559 299946 L-1299480 299946 L-1299302 299944 L-1299283 299943 L-1299053 299943 L-1298665 299942 L-1297777 299942 L-1297737 299940 L-1297649 299939 L-1297622 299936 L-1296614 299935 L-1296464 299932 L-1296440 299931 L-1296307 299930 L-1296267 299928 L-1295009 299927 L-1294951 299927 L-1294411 299925 L-1294359 299925 L-1294312 299925 L-1293917 299924 L-1293777 299923 L-1293578 299921 L-1293431 299921 L-1293266 299921 L-1292990 299923 L-1292631 299923 L-1292078 299921 L-1291433 299920 L-1291175 299917 L-1291021 299916 L-1290620 299915 L-1290580 299913 L-1290459 299912 L-1290397 299913 L-1290383 299913 L-1290290 299913 L-1289997 299912 L-1289845 299906 L-1289515 299904 L-1289437 299901 L-1289361 299900 L-1289134 299896 L-1289068 299893 L-1288840 299890 L-1288788 299887 L-1288623 299886 L-1287617 299885 L-1287434 299883 L-1286883 299882 L-1286490 299879 L-1286093 299878 L-1285242 299875 L-1285164 299874 L-1284585 299873 L-1284144 299873 L-1283903 299871 L-1283746 299871 L-1283345 299868 L-1283324 299868 L-1282879 299867 L-1282474 299866 L-1282338 299863 L-1282163 299860 L-1282026 299858 L-1281776 299855 L-1280776 299854 L-1280694 299852 L-1280559 299851 L-1280520 299849 L-1279630 299848 L-1279415 299847 L-1278971 299845 L-1278854 299844 L-1278797 299843 L-1278121 299843 L-1278021 299841 L-1277992 299841 L-1276650 299840 L-1276244 299839 L-1276205 299837 L-1275276 299836 L-1275178 299835 L-1275045 299833 L-1274641 299832 L-1274615 299830 L-1274522 299829 L-1274306 299828 L-1273895 299825 L-1272741 299822 L-1272449 299820 L-1272421 299817 L-1271812 299816 L-1271562 299813 L-1271543 299811 L-1270613 299810 L-1270562 299807 L-1270439 299806 L-1270422 299803 L-1270266 299802 L-1270091 299799 L-1269954 299798 L-1269898 299797 L-1269790 299795 L-1269705 299794 L-1269471 299792 L-1269396 299791 L-1269088 299790 L-1268970 299788 L-1268800 299787 L-1268709 299786 L-1268607 299786 L-1268583 299784 L-1268506 299784 L-1268408 299782 L-1268041 299780 L-1267937 299779 L-1267433 299778 L-1266981 299776 L-1266943 299775 L-1266919 299773 L-1266878 299772 L-1266750 299771 L-1266649 299769 L-1266207 299768 L-1265925 299767 L-1265333 299765 L-1265202 299764 L-1264928 299761 L-1264775 299760 L-1264622 299759 L-1264537 299756 L-1264459 299754 L-1264273 299753 L-1264223 299753 L-1264195 299752 L-1264116 299750 L-1264092 299749 L-1263809 299746 L-1263205 299744 L-1262210 299742 L-1261912 299741 L-1261178 299740 L-1260934 299738 L-1260844 299737 L-1260266 299735 L-1259568 299734 L-1258816 299733 L-1258497 299731 L-1258114 299729 L-1258037 299727 L-1257403 299726 L-1257217 299725 L-1257130 299725 L-1257000 299725 L-1256687 299723 L-1256638 299722 L-1256496 299721 L-1256474 299719 L-1255506 299718 L-1254961 299716 L-1254483 299716 L-1254422 299716 L-1254098 299716 L-1254077 299715 L-1254014 299715 L-1253804 299714 L-1253727 299712 L-1253673 299711 L-1253650 299710 L-1253611 299708 L-1253595 299707 L-1252838 299706 L-1252821 299704 L-1252022 299703 L-1251870 299702 L-1250964 299700 L-1250458 299699 L-1250229 299696 L-1250187 299696 L-1250072 299695 L-1249896 299693 L-1249141 299695 L-1249006 299693 L-1248842 299692 L-1248524 299691 L-1248348 299688 L-1247326 299685 L-1247303 299683 L-1247052 299681 L-1246839 299678 L-1246205 299677 L-1245967 299674 L-1245934 299672 L-1245756 299669 L-1245676 299666 L-1245586 299665 L-1245522 299662 L-1245081 299659 L-1245058 299658 L-1244517 299657 L-1244261 299655 L-1243766 299654 L-1242889 299653 L-1242852 299651 L-1242800 299650 L-1242759 299649 L-1242641 299647 L-1242365 299646 L-1242158 299643 L-1241961 299640 L-1241938 299638 L-1241887 299635 L-1241848 299634 L-1241770 299632 L-1241173 299630 L-1241112 299628 L-1241009 299627 L-1240855 299626 L-1240223 299624 L-1239542 299623 L-1239239 299620 L-1238893 299619 L-1238695 299617 L-1238647 299615 L-1238326 299613 L-1237699 299612 L-1237552 299611 L-1237516 299609 L-1237458 299608 L-1237381 299605 L-1237140 299605 L-1237052 299604 L-1236958 299603 L-1236664 299601 L-1236530 299600 L-1236469 299598 L-1236433 299596 L-1236160 299596 L-1235154 299594 L-1234979 299593 L-1234928 299593 L-1234635 299592 L-1234443 299589 L-1234110 299588 L-1233603 299586 L-1233041 299584 L-1233026 299581 L-1233010 299579 L-1232909 299577 L-1232795 299574 L-1232756 299571 L-1232718 299570 L-1232652 299570 L-1232624 299569 L-1232485 299570 L-1232192 299570 L-1232142 299570 L-1232037 299570 L-1231773 299569 L-1231308 299567 L-1231163 299567 L-1231109 299565 L-1231052 299563 L-1230861 299562 L-1230495 299560 L-1230281 299560 L-1230086 299560 L-1230028 299560 L-1229969 299558 L-1229815 299556 L-1229546 299555 L-1229116 299562 L-1229100 299562 L-1229023 299560 L-1228959 299559 L-1228830 299550 L-1228806 299548 L-1228522 299547 L-1228474 299546 L-1228420 299544 L-1227957 299543 L-1227919 299543 L-1227878 299541 L-1227688 299540 L-1227207 299539 L-1226720 299537 L-1226704 299536 L-1226666 299535 L-1226409 299533 L-1226332 299531 L-1226102 299529 L-1226086 299527 L-1225792 299524 L-1225349 299522 L-1224902 299521 L-1224398 299520 L-1224244 299518 L-1223957 299517 L-1223917 299514 L-1223586 299513 L-1223364 299512 L-1222847 299509 L-1222771 299508 L-1222524 299505 L-1222329 299502 L-1222269 299501 L-1221493 299499 L-1221419 299499 L-1221188 299498 L-1221172 299498 L-1221110 299497 L-1220914 299495 L-1220450 299495 L-1220427 299494 L-1220297 299494 L-1218996 299494 L-1218980 299494 L-1218902 299493 L-1218809 299493 L-1218592 299493 L-1218439 299491 L-1218261 299493 L-1218207 299494 L-1217920 299495 L-1217880 299495 L-1217511 299495 L-1217071 299495 L-1216888 299495 L-1216566 299494 L-1216271 299494 L-1215825 299491 L-1215754 299490 L-1215291 299487 L-1214853 299486 L-1214671 299484 L-1213217 299482 L-1213085 299480 L-1212628 299478 L-1212402 299476 L-1212016 299474 L-1211499 299471 L-1210545 299468 L-1209751 299465 L-1209076 299464 L-1208651 299461 L-1208340 299460 L-1208110 299456 L-1207426 299452 L-1207413 299448 L-1207204 299442 L-1207181 299441 L-1207007 299438 L-1206057 299437 L-1205789 299434 L-1204974 299433 L-1204663 299430 L-1204626 299429 L-1204568 299426 L-1203952 299425 L-1203314 299422 L-1201688 299421 L-1201014 299419 L-1200372 299419 L-1200294 299419 L-1200238 299419 L-1200202 299419 L-1200174 299418 L-1200062 299415 L-1200044 299414 L-1200021 299413 L-1199868 299411 L-1199814 299408 L-1199736 299407 L-1199617 299406 L-1199519 299404 L-1199402 299403 L-1199132 299400 L-1198863 299399 L-1198845 299396 L-1198646 299395 L-1198499 299392 L-1198272 299391 L-1198138 299389 L-1197829 299388 L-1197769 299387 L-1197416 299384 L-1197067 299383 L-1196966 299381 L-1196902 299379 L-1196842 299377 L-1196458 299375 L-1196077 299373 L-1195973 299372 L-1195712 299370 L-1195441 299368 L-1195282 299366 L-1195250 299365 L-1195188 299364 L-1195046 299362 L-1194862 299361 L-1194818 299360 L-1194530 299360 L-1194514 299358 L-1194280 299358 L-1194220 299357 L-1194181 299357 L-1193601 299356 L-1193468 299354 L-1193444 299349 L-1193426 299339 L-1193409 299328 L-1193392 299318 L-1193368 299307 L-1193352 299299 L-1193331 299289 L-1193314 299280 L-1193291 299274 L-1193274 299269 L-1193253 299265 L-1193236 299262 L-1193187 299258 L-1193115 299254 L-1193080 299247 L-1193056 299242 L-1193020 299236 L-1192979 299231 L-1192942 299228 L-1192926 299223 L-1192902 299218 L-1192865 299216 L-1192848 299212 L-1192825 299209 L-1192807 299206 L-1192789 299204 L-1192773 299201 L-1192744 299197 L-1192718 299193 L-1192672 299191 L-1192656 299189 L-1192614 299187 L-1192566 299185 L-1192495 299182 L-1192480 299179 L-1192464 299176 L-1192402 299175 L-1192362 299174 L-1192323 299172 L-1192157 299171 L-1192092 299170 L-1192076 299168 L-1192032 299166 L-1191973 299164 L-1191761 299163 L-1191727 299161 L-1191685 299160 L-1191607 299159 L-1191070 299157 L-1190991 299156 L-1190887 299153 L-1190799 299152 L-1190622 299151 L-1190272 299149 L-1190116 299148 L-1189678 299147 L-1189521 299145 L-1189391 299144 L-1188688 299141 L-1188486 299140 L-1187526 299137 L-1187044 299136 L-1186944 299136 L-1186852 299134 L-1186607 299133 L-1186534 299132 L-1186091 299129 L-1185995 299128 L-1185980 299126 L-1185964 299125 L-1185939 299123 L-1185473 299122 L-1185256 299121 L-1185117 299119 L-1184823 299118 L-1184734 299117 L-1184693 299115 L-1184663 299114 L-1184491 299113 L-1184432 299111 L-1184355 299110 L-1184275 299109 L-1184205 299109 L-1183896 299107 L-1183811 299106 L-1183597 299104 L-1183562 299103 L-1182878 299102 L-1182780 299100 L-1182574 299099 L-1182528 299098 L-1182250 299096 L-1182187 299095 L-1182170 299092 L-1182092 299091 L-1181784 299088 L-1181760 299087 L-1181706 299084 L-1181683 299083 L-1181561 299081 L-1181425 299079 L-1181181 299077 L-1181055 299077 L-1180408 299076 L-1180392 299076 L-1180368 299076 L-1180187 299073 L-1180111 299072 L-1180019 299071 L-1179592 299069 L-1179176 299068 L-1178783 299065 L-1178704 299064 L-1178685 299062 L-1178322 299061 L-1178085 299060 L-1177857 299058 L-1177544 299057 L-1177466 299056 L-1177385 299053 L-1177207 299050 L-1177192 299049 L-1176926 299046 L-1176846 299045 L-1176616 299043 L-1176390 299042 L-1176074 299042 L-1175899 299041 L-1175538 299041 L-1175146 299039 L-1175077 299037 L-1175013 299035 L-1174873 299033 L-1174821 299031 L-1174719 299028 L-1174218 299027 L-1174020 299026 L-1173774 299024 L-1173588 299023 L-1173289 299022 L-1173212 299020 L-1173046 299018 L-1172162 299016 L-1172133 299014 L-1172010 299011 L-1171432 299010 L-1171354 299008 L-1170640 299008 L-1170329 299008 L-1170115 299008 L-1170099 299008 L-1169712 299008 L-1169187 299005 L-1168741 299004 L-1168411 299003 L-1168259 299001 L-1167933 299001 L-1167754 299000 L-1167673 299000 L-1167467 298997 L-1167291 298996 L-1166362 298995 L-1165473 298993 L-1165434 298992 L-1165206 298992 L-1164827 298991 L-1164039 298989 L-1163805 298988 L-1163729 298986 L-1163371 298985 L-1162800 298982 L-1162533 298981 L-1162146 298980 L-1162042 298980 L-1161872 298980 L-1161254 298980 L-1161043 298980 L-1160735 298980 L-1160682 298978 L-1160554 298977 L-1160501 298976 L-1160382 298974 L-1160046 298972 L-1159086 298970 L-1158955 298967 L-1158753 298966 L-1158122 298965 L-1157811 298963 L-1157397 298962 L-1157369 298961 L-1157224 298959 L-1156804 298958 L-1155471 298958 L-1155424 298957 L-1155296 298954 L-1155279 298953 L-1154701 298950 L-1154496 298948 L-1154466 298947 L-1154425 298946 L-1154368 298944 L-1154330 298943 L-1154252 298942 L-1154109 298940 L-1153655 298939 L-1153536 298938 L-1153251 298936 L-1152878 298935 L-1152782 298934 L-1152455 298932 L-1152101 298931 L-1151931 298929 L-1151884 298928 L-1151775 298927 L-1151686 298925 L-1151658 298924 L-1151581 298921 L-1151278 298920 L-1151244 298917 L-1151173 298916 L-1150805 298915 L-1150469 298913 L-1150388 298913 L-1150169 298912 L-1149997 298910 L-1149969 298909 L-1149472 298908 L-1148923 298905 L-1148042 298904 L-1147944 298901 L-1147867 298900 L-1147593 298898 L-1147345 298896 L-1147271 298894 L-1147210 298891 L-1147091 298890 L-1147049 298889 L-1146939 298887 L-1146862 298885 L-1146161 298883 L-1145916 298882 L-1145876 298881 L-1145720 298879 L-1145120 298879 L-1144893 298879 L-1144801 298879 L-1144326 298879 L-1143729 298877 L-1143209 298875 L-1143188 298874 L-1143043 298872 L-1142723 298872 L-1142181 298872 L-1141949 298872 L-1141778 298872 L-1141292 298871 L-1141064 298870 L-1140979 298868 L-1140633 298867 L-1140307 298867 L-1139784 298866 L-1139457 298864 L-1138856 298863 L-1138659 298860 L-1138607 298859 L-1138566 298858 L-1138285 298856 L-1137601 298853 L-1137290 298852 L-1137265 298849 L-1137074 298848 L-1136851 298847 L-1136765 298845 L-1136102 298843 L-1136077 298841 L-1135856 298839 L-1135526 298837 L-1135174 298834 L-1134969 298833 L-1134736 298830 L-1134479 298829 L-1134289 298826 L-1134242 298825 L-1134015 298824 L-1133980 298822 L-1133824 298821 L-1133609 298820 L-1133436 298818 L-1133345 298817 L-1133067 298815 L-1132824 298814 L-1132508 298813 L-1132082 298813 L-1132045 298813 L-1131561 298813 L-1131328 298813 L-1131116 298811 L-1130890 298810 L-1130340 298810 L-1130093 298809 L-1129259 298809 L-1129203 298807 L-1129182 298806 L-1129024 298805 L-1128562 298803 L-1128521 298802 L-1128181 298799 L-1128048 298798 L-1127825 298796 L-1127253 298795 L-1126781 298794 L-1126587 298792 L-1126394 298791 L-1126204 298790 L-1126103 298788 L-1125734 298787 L-1125688 298786 L-1125607 298784 L-1124313 298783 L-1124265 298782 L-1123997 298782 L-1123851 298782 L-1123300 298782 L-1123184 298780 L-1123102 298779 L-1122743 298777 L-1122519 298776 L-1122238 298775 L-1121909 298772 L-1121401 298771 L-1121288 298769 L-1121209 298768 L-1121045 298767 L-1120751 298767 L-1120282 298767 L-1120085 298768 L-1120035 298768 L-1119385 298767 L-1119263 298765 L-1118809 298765 L-1118773 298764 L-1118305 298763 L-1118194 298761 L-1118178 298760 L-1117962 298760 L-1117781 298758 L-1117250 298758 L-1116220 298758 L-1116020 298757 L-1115562 298756 L-1114614 298753 L-1114515 298752 L-1114161 298749 L-1114101 298748 L-1114086 298746 L-1114051 298745 L-1113681 298744 L-1113561 298742 L-1113319 298741 L-1113156 298739 L-1112968 298738 L-1112847 298737 L-1111777 298734 L-1110919 298733 L-1110706 298730 L-1110609 298729 L-1110435 298726 L-1110102 298725 L-1110030 298723 L-1109972 298722 L-1109797 298722 L-1109408 298720 L-1109173 298719 L-1109062 298718 L-1108945 298716 L-1107964 298715 L-1107938 298714 L-1107344 298711 L-1107311 298711 L-1107163 298710 L-1106878 298708 L-1105967 298708 L-1105020 298708 L-1104867 298707 L-1104765 298707 L-1104633 298706 L-1104490 298704 L-1104464 298703 L-1104350 298701 L-1104131 298700 L-1103450 298699 L-1103321 298697 L-1103017 298696 L-1102777 298693 L-1102445 298692 L-1101806 298691 L-1101464 298688 L-1101402 298687 L-1101246 298687 L-1100325 298687 L-1099854 298687 L-1099811 298687 L-1099798 298685 L-1099756 298684 L-1099734 298682 L-1099708 298681 L-1099564 298680 L-1099141 298678 L-1098806 298678 L-1098615 298677 L-1098186 298677 L-1097998 298676 L-1097609 298673 L-1097075 298672 L-1096702 298670 L-1096681 298670 L-1096431 298669 L-1096313 298668 L-1096237 298666 L-1096101 298665 L-1096062 298663 L-1095982 298662 L-1095587 298661 L-1095091 298659 L-1094979 298657 L-1094806 298655 L-1094498 298654 L-1094051 298653 L-1093728 298651 L-1093585 298649 L-1093158 298646 L-1093005 298643 L-1092950 298640 L-1092136 298639 L-1092116 298638 L-1091744 298636 L-1091687 298636 L-1090558 298635 L-1090491 298635 L-1089932 298634 L-1089738 298632 L-1089601 298631 L-1089368 298630 L-1089021 298628 L-1088986 298625 L-1088951 298624 L-1088883 298621 L-1088534 298620 L-1088362 298619 L-1087877 298617 L-1087860 298616 L-1087535 298615 L-1087378 298613 L-1086237 298611 L-1086212 298609 L-1086020 298606 L-1085827 298605 L-1085577 298604 L-1085559 298602 L-1084539 298601 L-1084242 298600 L-1084166 298598 L-1084030 298596 L-1083854 298594 L-1083277 298592 L-1083062 298590 L-1082998 298589 L-1082867 298587 L-1082831 298585 L-1082307 298583 L-1082169 299118 L-1082155 299118 L-1082132 299118 L-1082112 299118 L-1081885 298582 L-1081109 298582 L-1081067 298582 L-1080700 298582 L-1080621 298581 L-1080569 298579 L-1079896 298578 L-1079154 298577 L-1078729 298577 L-1078281 298575 L-1077220 298574 L-1076908 298571 L-1076498 298571 L-1076426 298570 L-1075902 298570 L-1075807 298570 L-1075789 298570 L-1075344 298568 L-1075159 298566 L-1074379 298563 L-1073706 298562 L-1073294 298558 L-1073062 298555 L-1072922 298554 L-1072840 298551 L-1072820 298549 L-1072744 298549 L-1072615 298548 L-1072299 298549 L-1072074 298549 L-1071749 298548 L-1071687 298548 L-1071317 298548 L-1071284 298548 L-1071075 298548 L-1070408 298548 L-1070331 298548 L-1070173 298545 L-1070062 298545 L-1069735 298544 L-1069581 298543 L-1069240 298543 L-1069183 298540 L-1068844 298537 L-1068641 298536 L-1068588 298533 L-1067211 298532 L-1067082 298530 L-1066648 298529 L-1066328 298528 L-1065500 298525 L-1065377 298524 L-1064646 298521 L-1064490 298518 L-1064449 298517 L-1064396 298516 L-1064372 298514 L-1064258 298513 L-1063962 298511 L-1063672 298510 L-1063618 298509 L-1063497 298507 L-1063467 298506 L-1063367 298505 L-1062923 298505 L-1062772 298503 L-1061936 298503 L-1061394 298502 L-1061060 298502 L-1061044 298501 L-1060968 298499 L-1060852 298498 L-1060658 298497 L-1060393 298495 L-1059559 298494 L-1059462 298492 L-1058941 298491 L-1058899 298490 L-1058800 298488 L-1057972 298488 L-1057837 298487 L-1057498 298487 L-1056944 298486 L-1056564 298484 L-1056401 298483 L-1056091 298482 L-1055279 298480 L-1054973 298479 L-1054704 298479 L-1054382 298479 L-1054062 298480 L-1053786 298480 L-1052958 298478 L-1052862 298476 L-1052770 298472 L-1052665 298468 L-1052279 298464 L-1051799 298461 L-1051782 298460 L-1051664 298459 L-1051296 298456 L-1051201 298454 L-1050367 298452 L-1050290 298450 L-1049990 298449 L-1049900 298448 L-1049492 298445 L-1049382 298442 L-1048683 298441 L-1048210 298440 L-1048150 298438 L-1047931 298435 L-1047657 298434 L-1047544 298433 L-1046517 298431 L-1046130 298430 L-1046110 298429 L-1045777 298427 L-1045533 298426 L-1045099 298425 L-1044989 298423 L-1044872 298422 L-1044420 298419 L-1043830 298418 L-1043493 298417 L-1041600 298415 L-1041487 298412 L-1041275 298411 L-1039956 298410 L-1039850 298104 L-1039784 297803 L-1039748 297525 L-1039686 297525 L-1039186 297828 L-1038511 298126 L-1038489 298402 L-1038219 298399 L-1037251 298399 L-1036562 298398 L-1036400 298396 L-1035859 298395 L-1035769 298393 L-1034750 298392 L-1033802 298389 L-1033436 298391 L-1033334 298392 L-1032745 298392 L-1032686 298392 L-1032586 298391 L-1032145 298388 L-1032038 298387 L-1031596 298385 L-1030596 298381 L-1030340 298377 L-1030237 298373 L-1030107 298370 L-1029740 298368 L-1029159 298365 L-1029128 298364 L-1028813 298362 L-1026830 298361 L-1026714 298360 L-1026647 298360 L-1026288 298358 L-1024669 298357 L-1024492 298357 L-1024347 298357 L-1023525 298358 L-1023472 298360 L-1023418 298360 L-1022983 298360 L-1022003 298361 L-1021929 298361 L-1020844 298360 L-1020631 298360 L-1019915 298357 L-1019527 298355 L-1019308 298353 L-1018989 298350 L-1018495 298347 L-1018367 298346 L-1018138 298343 L-1017906 298341 L-1017847 298339 L-1017557 298338 L-1017285 298335 L-1016255 298334 L-1014590 298332 L-1014171 298331 L-1014034 298330 L-1013877 298330 L-1013572 298328 L-1013344 298326 L-1013186 298324 L-1013026 298322 L-1012857 298319 L-1012810 298317 L-1012757 298316 L-1012735 298316 L-1012349 298315 L-1012099 298315 L-1011829 298315 L-1011668 298315 L-1011578 298315 L-1009919 298315 L-1009754 298316 L-1009374 298315 L-1008914 298315 L-1008305 298312 L-1007212 298311 L-1006780 298309 L-1006749 298308 L-1006687 298307 L-1006669 298305 L-1004965 298304 L-1004923 298303 L-1004457 298301 L-1004270 298300 L-1004238 298297 L-1003643 298296 L-1003593 298294 L-1003270 298293 L-1003220 298292 L-1003009 298290 L-1002991 298289 L-1002725 298286 L-1002672 298285 L-1002203 298284 L-1001693 298281 L-1001614 298281 L-1001320 298279 L-1001303 298278 L-1001265 298277 L-1001194 298275 L-1001037 298274 L-1000090 298274 L-1000034 298274 L-999513 298274 L-999321 298273 L-999220 298273 L-998994 298271 L-998484 298271 L-998096 298308 L-998027 298308 L-997678 298307 L-997321 298305 L-996192 298266 L-996141 298263 L-995915 298262 L-995881 298260 L-995756 298258 L-995657 298258 L-995393 298258 L-994652 298259 L-994074 298259 L-993780 298259 L-993075 298259 L-992896 298258 L-992873 298258 L-992237 298256 L-991925 298255 L-991529 298255 L-991499 298254 L-991478 298252 L-991325 298251 L-990639 298251 L-990623 298251 L-990283 298251 L-990010 298250 L-989973 298248 L-989917 298246 L-989895 298244 L-989823 298243 L-989491 298241 L-989385 298240 L-989356 298237 L-989158 298236 L-989005 298235 L-988137 298233 L-987575 298231 L-987559 298231 L-987458 298229 L-987355 298231 L-987209 298231 L-987131 298231 L-987093 298229 L-987037 298228 L-986964 298227 L-986819 298225 L-986337 298225 L-985933 298224 L-985066 298225 L-985046 298225 L-984789 298225 L-984712 298225 L-984683 298224 L-984673 298221 L-984655 298220 L-984362 298218 L-984323 298217 L-984251 298216 L-984177 298214 L-983972 298213 L-983813 298209 L-983511 298205 L-983434 298199 L-983417 298195 L-983200 298193 L-982969 298193 L-982859 298194 L-982489 298195 L-982331 298195 L-982100 298195 L-981931 298195 L-981786 298194 L-981654 298193 L-980378 298190 L-979975 298187 L-979914 298186 L-979797 298183 L-979372 298182 L-979357 298179 L-979295 298178 L-979022 298175 L-978909 298174 L-978627 298171 L-978349 298170 L-977924 298167 L-977902 298165 L-977824 298164 L-977698 298163 L-977112 298161 L-976720 298160 L-976385 298159 L-975796 298157 L-975694 298157 L-975523 298156 L-975387 298156 L-974559 298155 L-973374 298153 L-973338 298152 L-973282 298152 L-973062 298151 L-972857 298151 L-972702 298151 L-972445 298149 L-972369 298148 L-971826 298146 L-971790 298145 L-971541 298144 L-971154 298142 L-970328 298141 L-969970 298140 L-969659 298140 L-969401 298138 L-969178 298137 L-968771 298136 L-968655 298134 L-968472 298133 L-968418 298133 L-968230 298132 L-968059 298130 L-968030 298129 L-967750 298127 L-967439 298126 L-967301 298125 L-966992 298123 L-966798 298123 L-966782 298122 L-966063 298122 L-965929 298119 L-965632 298118 L-965541 298117 L-964941 298117 L-964902 298115 L-964824 298114 L-964203 298113 L-964052 298110 L-964011 298108 L-963701 298107 L-963509 298106 L-963316 298103 L-963260 298100 L-962952 298099 L-962899 298098 L-962845 298099 L-962819 298099 L-962694 298099 L-961884 298098 L-961807 298096 L-961267 298095 L-960998 298094 L-960338 298092 L-959431 298091 L-959189 298089 L-958657 298088 L-958440 298087 L-957332 298088 L-957282 298088 L-956507 298088 L-955959 298087 L-955848 298085 L-955695 298083 L-955640 298081 L-955474 298080 L-955097 298079 L-954650 298077 L-954595 298076 L-954440 298075 L-953760 298073 L-953540 298072 L-953022 298070 L-952174 298068 L-952157 298066 L-950367 298065 L-949812 298064 L-949695 298062 L-948689 298061 L-948653 298060 L-948420 298060 L-948327 298060 L-948287 298060 L-947955 298058 L-947603 298057 L-947338 298054 L-947052 298053 L-946741 298050 L-946487 298047 L-946393 298046 L-945903 298045 L-945696 298043 L-945130 298042 L-945016 298043 L-944664 298042 L-944613 298042 L-944573 298042 L-943969 298039 L-943236 298037 L-942654 298034 L-942419 298031 L-941879 298027 L-941726 298024 L-941224 298023 L-941015 298020 L-940992 298020 L-940933 298019 L-939970 298019 L-939793 298018 L-939351 298016 L-939326 298013 L-939171 298012 L-939090 298012 L-938939 298013 L-938293 298013 L-938243 298012 L-937123 298011 L-936139 298009 L-936077 298008 L-935357 298007 L-934492 298005 L-934113 298004 L-933894 298004 L-933135 298003 L-933083 298001 L-932773 297999 L-931922 297999 L-931729 297997 L-931552 297996 L-931328 297996 L-931201 297994 L-931009 297994 L-930777 297993 L-930607 297994 L-930321 297993 L-930041 297993 L-929958 297992 L-929787 297990 L-929771 297988 L-929617 297986 L-929578 297985 L-928802 297984 L-928726 297984 L-928494 297981 L-928067 297980 L-927721 297978 L-927138 297977 L-926869 297977 L-926610 297977 L-926481 297974 L-926465 297973 L-926351 297971 L-926327 297970 L-926093 297969 L-926057 297967 L-924741 297967 L-924685 297966 L-924006 297963 L-923434 297963 L-923308 297963 L-923155 297963 L-923078 297963 L-922766 297961 L-922493 297959 L-922404 297956 L-922302 297956 L-921374 297955 L-921298 297955 L-920934 297955 L-920910 297954 L-920873 297952 L-920098 297950 L-920006 297948 L-919866 297947 L-919464 297946 L-919202 297946 L-918959 297947 L-918745 297946 L-918664 297946 L-918588 297946 L-918512 297946 L-918325 297947 L-918258 297947 L-918009 297947 L-917954 297946 L-917816 297944 L-917736 297942 L-917623 297940 L-917400 297939 L-917236 297937 L-917195 297936 L-917025 297935 L-916654 297933 L-916640 297932 L-916524 297931 L-915802 297929 L-915766 297928 L-915633 297928 L-915286 297927 L-914874 297927 L-914838 297927 L-914760 297925 L-914721 297924 L-914357 297923 L-914153 297921 L-914138 297920 L-913792 297918 L-913444 297918 L-913118 297918 L-913016 297917 L-912864 297917 L-912669 297916 L-912438 297916 L-912345 297916 L-912189 297916 L-912112 297916 L-912072 297914 L-911958 297913 L-911935 297912 L-911684 297912 L-911545 297909 L-910967 297905 L-910139 297902 L-909651 297899 L-909530 297898 L-909491 297897 L-909479 297895 L-909327 297893 L-909226 297890 L-908993 297889 L-908602 297886 L-908298 297885 L-908282 297883 L-908112 297882 L-907873 297879 L-907277 297879 L-906673 297878 L-906633 297878 L-906593 297878 L-906440 297876 L-906387 297875 L-906324 297874 L-906256 297872 L-906201 297870 L-906176 297868 L-906129 297867 L-906035 297864 L-905898 297863 L-905744 297861 L-905612 297860 L-905571 297860 L-905536 297859 L-905474 297857 L-905201 297855 L-904886 297853 L-904845 297851 L-904760 297849 L-904583 297848 L-904345 297847 L-903988 297845 L-903958 297844 L-903389 297842 L-903266 297841 L-903030 297840 L-903007 297840 L-902726 297838 L-902440 297838 L-902185 297838 L-901613 297837 L-901316 297836 L-901240 297834 L-900541 297833 L-900463 297832 L-900428 297830 L-900402 297829 L-900350 297826 L-900157 297825 L-900016 297822 L-899981 297821 L-899940 297819 L-899345 297818 L-899112 297817 L-898829 297826 L-898774 297834 L-898701 297844 L-898623 297852 L-898386 297849 L-898142 297848 L-898007 297847 L-897900 297845 L-897821 297844 L-897434 297841 L-897307 297840 L-897154 297838 L-897116 297837 L-896971 297836 L-896749 297834 L-896575 297833 L-896506 297832 L-895685 297829 L-895668 297829 L-895374 297828 L-894586 297826 L-894276 297826 L-894130 297825 L-893902 297823 L-893701 297821 L-892764 297819 L-892727 297818 L-892705 297817 L-892664 297814 L-892395 297813 L-891799 297811 L-891735 297810 L-891700 297809 L-891683 297807 L-890988 297807 L-890786 297807 L-890754 297807 L-890421 297807 L-890313 297806 L-889689 297803 L-889184 297802 L-889147 297799 L-888705 297799 L-888609 297798 L-888450 297798 L-888137 297798 L-888125 297798 L-887684 297799 L-887202 297800 L-887073 297800 L-886753 297800 L-886685 297799 L-886381 297799 L-886205 297798 L-886011 297796 L-885768 297794 L-885571 297791 L-885545 297788 L-884967 297787 L-884897 297786 L-884488 297784 L-884433 297783 L-884387 297781 L-884023 297780 L-883877 297779 L-883671 297777 L-883575 297777 L-883420 297776 L-883359 297775 L-883211 297772 L-883110 297771 L-882553 297771 L-882531 297773 L-882359 297775 L-881817 297776 L-881756 297776 L-881702 297773 L-881674 297771 L-881602 297769 L-881586 297767 L-881523 297765 L-881486 297762 L-881332 297761 L-881006 297760 L-880440 297758 L-880425 297757 L-880363 297754 L-880262 297752 L-880215 297752 L-879973 297750 L-879551 297750 L-879396 297750 L-877654 297748 L-877113 297746 L-876169 297745 L-875760 297743 L-875219 297741 L-875022 297739 L-874854 297738 L-874558 297737 L-874443 297735 L-874428 297735 L-874273 297734 L-874134 297733 L-874057 297730 L-873925 297730 L-873577 297730 L-873207 297731 L-872609 297731 L-872433 297731 L-872277 297730 L-872008 297729 L-871856 297729 L-871565 297733 L-871541 297735 L-871458 297738 L-871231 297741 L-870531 297739 L-870404 297738 L-869973 297737 L-869879 297735 L-868674 297735 L-868625 297734 L-868332 297734 L-867928 297733 L-867653 297730 L-867633 297729 L-867516 297727 L-867439 297726 L-867258 297724 L-866778 297723 L-866327 297720 L-865916 297719 L-865886 297718 L-865467 297716 L-865353 297716 L-865235 297716 L-865220 297716 L-865026 297715 L-865004 297712 L-864772 297711 L-864329 297710 L-864009 297707 L-863545 297707 L-863379 297705 L-863224 297704 L-863068 297704 L-862615 297704 L-862296 297704 L-862241 297705 L-861870 297705 L-861832 297707 L-861506 297707 L-861389 297705 L-861290 297704 L-860964 297701 L-860577 297700 L-860316 297699 L-859958 297696 L-859702 297695 L-857531 297693 L-857482 297692 L-857460 297691 L-857048 297691 L-856986 297691 L-856916 297692 L-856686 297692 L-856375 297691 L-856071 297688 L-856027 297686 L-855719 297685 L-855586 297684 L-855370 297682 L-854658 297681 L-854502 297681 L-854364 297680 L-854215 297680 L-854194 297680 L-854000 297678 L-853975 297677 L-853883 297676 L-853862 297674 L-853845 297673 L-853745 297672 L-852816 297670 L-852358 297670 L-851266 297667 L-850844 297667 L-850440 297666 L-850401 297665 L-850148 297663 L-849373 297661 L-849357 297659 L-849333 297658 L-849140 297657 L-848403 297655 L-848134 297654 L-848094 297653 L-847695 297650 L-847670 297648 L-846881 297647 L-846201 297646 L-844829 297644 L-844559 297643 L-844511 297642 L-843973 297639 L-843940 297638 L-843838 297635 L-843515 297634 L-843435 297632 L-843166 297632 L-842254 297631 L-842115 297631 L-841866 297628 L-841321 297628 L-840899 297627 L-840706 297625 L-840690 297625 L-840552 297623 L-840458 297621 L-840331 297620 L-840071 297619 L-840046 297616 L-839955 297615 L-839645 297613 L-839585 297612 L-839468 297612 L-839118 297612 L-838307 297612 L-838076 297609 L-837247 297609 L-837015 297606 L-836798 297605 L-836280 297605 L-835642 297604 L-835226 297602 L-834903 297601 L-834422 297600 L-833997 297600 L-833936 297598 L-833587 297598 L-833547 297597 L-833533 297596 L-833433 297593 L-833388 297593 L-832903 297591 L-832101 297591 L-831767 297591 L-830685 297590 L-830205 297589 L-830182 297587 L-830042 297586 L-829487 297585 L-828790 297583 L-828481 297582 L-828259 297581 L-828155 297579 L-828052 297577 L-827381 297575 L-827287 297574 L-827265 297574 L-827187 297572 L-827009 297572 L-826837 297572 L-826657 297571 L-826643 297570 L-826567 297568 L-826403 297567 L-825888 297566 L-825872 297564 L-825732 297564 L-825369 297563 L-825345 297563 L-825214 297562 L-825190 297560 L-824827 297559 L-824302 297556 L-824208 297555 L-823992 297552 L-823899 297551 L-823874 297549 L-823410 297548 L-823333 297548 L-822931 297547 L-822481 297547 L-821229 297545 L-821190 297544 L-820759 297543 L-820726 297541 L-820007 297540 L-819831 297539 L-819695 297537 L-819388 297536 L-819333 297534 L-819309 297532 L-819292 297529 L-819117 297528 L-818928 297526 L-818420 297526 L-818047 297515 L-817708 297503 L-817670 297492 L-816951 297483 L-816857 297482 L-816818 297480 L-816277 297480 L-816254 297479 L-815851 297477 L-815425 297476 L-815155 297476 L-814975 297475 L-814729 297472 L-814706 297471 L-814649 297468 L-814032 297467 L-813530 297465 L-813143 297465 L-812524 297467 L-812308 297467 L-812153 297468 L-810860 297465 L-810761 297464 L-810318 297461 L-809987 297460 L-809687 297457 L-809444 297456 L-808709 297453 L-808130 297452 L-807301 297450 L-807200 297449 L-806643 297448 L-806505 297446 L-804863 297445 L-804802 297445 L-804708 297445 L-803741 297445 L-803564 297444 L-803277 297444 L-803059 297444 L-802981 297442 L-802709 297442 L-802594 297441 L-802441 297439 L-802131 297438 L-802052 297437 L-801961 297437 L-801884 297435 L-801768 297435 L-801589 297434 L-801497 297433 L-801458 297431 L-800955 297431 L-800737 297430 L-800607 297430 L-800452 297429 L-800398 297427 L-800273 297427 L-799888 297426 L-799380 297425 L-799307 297423 L-798827 297422 L-798750 297420 L-798650 297420 L-798417 297419 L-797952 297419 L-797722 297419 L-797705 297419 L-797473 297419 L-797318 297419 L-797257 297419 L-797064 297418 L-796793 297415 L-796042 297414 L-795088 297414 L-795052 297412 L-794827 297412 L-794388 297412 L-794107 297410 L-793759 297408 L-792689 297407 L-791762 297407 L-791631 297407 L-791584 297407 L-791515 297406 L-791360 297406 L-791283 297403 L-791109 297400 L-790674 297397 L-790470 297396 L-790410 297393 L-789827 297392 L-789673 297389 L-789558 297388 L-789517 297387 L-789348 297385 L-789211 297384 L-789000 297381 L-788922 297380 L-788899 297378 L-788690 297376 L-788280 297374 L-788256 297373 L-788033 297372 L-787887 297370 L-787853 297369 L-787839 297368 L-787817 297366 L-787583 297365 L-787398 297363 L-787181 297362 L-787155 297361 L-786466 297359 L-786363 297358 L-786327 297357 L-786306 297355 L-786112 297354 L-786059 297353 L-785942 297350 L-785861 297350 L-785750 297349 L-785435 297347 L-784976 297346 L-784721 297344 L-784487 297342 L-784357 297340 L-784004 297339 L-783945 297338 L-783792 297336 L-783220 297334 L-783134 297332 L-782980 297330 L-782684 297327 L-782314 297324 L-782011 297321 L-781935 297320 L-781530 297319 L-781362 297319 L-781218 297319 L-780678 297319 L-780617 297319 L-780601 297316 L-780435 297315 L-780229 297313 L-780155 297313 L-780062 297312 L-779652 297311 L-779637 297309 L-779613 297309 L-779420 297308 L-779343 297320 L-779172 297332 L-779110 297343 L-779095 297355 L-778580 297354 L-778359 297353 L-777740 297350 L-777486 297349 L-777292 297347 L-777253 297346 L-777180 297346 L-777115 297346 L-776464 297346 L-776425 297347 L-776251 297347 L-776185 297347 L-775511 297347 L-775122 297344 L-774860 297343 L-774623 297342 L-774545 297339 L-774529 297336 L-774327 297335 L-773957 297332 L-773731 297331 L-773096 297330 L-773076 297330 L-772688 297328 L-772595 297328 L-772537 297327 L-772261 297325 L-771951 297325 L-771874 297324 L-771023 297325 L-770680 297332 L-770243 297340 L-769809 297347 L-769314 297354 L-769165 297353 L-768896 297354 L-767658 297355 L-767602 297358 L-765838 297359 L-765647 297358 L-764637 297357 L-764486 297355 L-764111 297358 L-763790 297361 L-763184 297363 L-763115 297366 L-762938 297365 L-762109 297363 L-761970 297362 L-761584 297361 L-761399 297359 L-761356 297358 L-761236 297357 L-761026 297355 L-760579 297353 L-760230 297351 L-760098 297350 L-759689 297349 L-759339 297349 L-759054 297347 L-758860 297346 L-758705 297346 L-758542 297344 L-758473 297343 L-758373 297343 L-758140 297342 L-758024 297342 L-757970 297340 L-757429 297340 L-756964 297339 L-755782 297339 L-755649 297339 L-755624 297339 L-755571 297339 L-754904 297339 L-753869 297336 L-753675 297335 L-753496 297334 L-753344 297334 L-753303 297332 L-753288 297332 L-753227 297331 L-752902 297330 L-751741 297328 L-751548 297327 L-751370 297325 L-750256 297324 L-749397 297323 L-749290 297323 L-748817 297321 L-748624 297321 L-746302 297320 L-746225 297319 L-746104 297316 L-746069 297315 L-746032 297312 L-745937 297308 L-745722 297305 L-745140 297302 L-744754 297301 L-743981 297300 L-743903 297298 L-743206 297298 L-742665 297298 L-742624 297297 L-742494 297297 L-742029 297296 L-741991 297294 L-741856 297293 L-741488 297292 L-741458 297290 L-741308 297290 L-740908 297289 L-739084 297290 L-738277 297289 L-737558 297289 L-737541 297289 L-737228 297286 L-736666 297285 L-736165 297283 L-735646 297282 L-735624 297281 L-733880 297279 L-733711 297278 L-733516 297277 L-732622 297275 L-732103 297273 L-731893 297271 L-731635 297270 L-730926 297268 L-729975 297267 L-729317 297266 L-729278 297263 L-728991 297262 L-728909 297260 L-728813 297260 L-728681 297259 L-728604 297259 L-727869 297259 L-727532 297258 L-727482 297259 L-727227 297259 L-726941 297258 L-726515 297258 L-725934 297256 L-725676 297256 L-725524 297255 L-725277 297255 L-725238 297255 L-724441 297254 L-724403 297252 L-724226 297252 L-723817 297249 L-723589 297249 L-723512 297249 L-723381 297249 L-723265 297248 L-722917 297247 L-722853 297245 L-722701 297244 L-721960 297243 L-721849 297241 L-721679 297240 L-721640 297239 L-721345 297239 L-720943 297239 L-720767 297239 L-720673 297239 L-720363 297237 L-719562 297236 L-719103 297233 L-718583 297232 L-718095 297230 L-717399 297229 L-716353 297228 L-716084 297228 L-716030 297226 L-715869 297226 L-715618 297226 L-715372 297225 L-715293 297224 L-715079 297221 L-714767 297220 L-714303 297217 L-714289 297216 L-713992 297216 L-713979 297214 L-712988 297213 L-712316 297212 L-711981 297209 L-711364 297209 L-711227 297207 L-710589 297206 L-710458 297205 L-709507 297202 L-709408 297199 L-708848 297198 L-708440 297198 L-708012 297198 L-707920 297197 L-707086 297197 L-706722 297197 L-706683 297198 L-706551 297199 L-706374 297199 L-706157 297199 L-706103 297198 L-705946 297195 L-705693 297194 L-704593 297193 L-704516 297191 L-704296 297190 L-704165 297187 L-704129 297186 L-703936 297184 L-703836 297183 L-703353 297182 L-703068 297180 L-702908 297179 L-702813 297176 L-702542 297175 L-702272 297174 L-702256 297168 L-702117 297164 L-701979 297160 L-701652 297155 L-701344 297152 L-701303 297150 L-701227 297148 L-701111 297146 L-700261 297144 L-699934 297142 L-699603 297141 L-699470 297141 L-699254 297141 L-699238 297141 L-698558 297141 L-698464 297138 L-698441 297137 L-698425 297134 L-698387 297133 L-697975 297130 L-697706 297129 L-697666 297127 L-697297 297127 L-697087 297126 L-696005 297126 L-695988 297125 L-695960 297123 L-695939 297123 L-695562 297121 L-695307 297119 L-695059 297117 L-694920 297114 L-694788 297112 L-694456 297111 L-694363 297110 L-694302 297108 L-693744 297107 L-693683 297106 L-693527 297104 L-693333 297103 L-693141 297102 L-693125 297100 L-693086 297099 L-693048 297098 L-692777 297096 L-692654 297095 L-692621 297093 L-692522 297093 L-692366 297093 L-692225 297093 L-691941 297092 L-691616 297092 L-690920 297091 L-690897 297091 L-690387 297091 L-689542 297091 L-689178 297089 L-689024 297088 L-688420 297088 L-688250 297088 L-688189 297088 L-688134 297087 L-687078 297085 L-687060 297085 L-686154 297085 L-686133 297085 L-685966 297084 L-685723 297084 L-685673 297083 L-685619 297080 L-685481 297079 L-685442 297077 L-684514 297076 L-684458 297076 L-684336 297076 L-684265 297076 L-684149 297076 L-683970 297077 L-682988 297076 L-682849 297076 L-682731 297073 L-682436 297070 L-682189 297069 L-682152 297068 L-682098 297069 L-682076 297069 L-681943 297069 L-681864 297069 L-681726 297068 L-681103 297068 L-680937 297066 L-680473 297066 L-680296 297064 L-680280 297062 L-680219 297061 L-680103 297060 L-679620 297058 L-678925 297057 L-678552 297055 L-678383 297054 L-677417 297053 L-677262 297051 L-677084 297051 L-676991 297050 L-676736 297050 L-676565 297050 L-675918 297049 L-675907 297049 L-675327 297047 L-675189 297047 L-675134 297045 L-674399 297043 L-674360 297042 L-674283 297042 L-673641 297041 L-672866 297041 L-672774 297039 L-672725 297039 L-672710 297038 L-672673 297038 L-672657 297035 L-672594 297034 L-672578 297032 L-672558 297032 L-672403 297031 L-672364 297030 L-672348 297028 L-672309 297027 L-672170 297026 L-672093 297024 L-671729 297023 L-671381 297022 L-670607 297020 L-670005 297019 L-669809 297017 L-669579 297017 L-669441 297016 L-668803 297016 L-668513 297015 L-668492 297015 L-668032 297013 L-667799 297013 L-667744 297012 L-667705 297011 L-667202 297009 L-666652 297008 L-665864 297007 L-664741 297007 L-663847 297005 L-663759 297005 L-663460 297004 L-663388 297003 L-663272 297001 L-662095 297000 L-661747 296998 L-661725 296997 L-661205 296996 L-661059 296994 L-660950 296993 L-660741 296992 L-660586 296990 L-660564 296989 L-660370 296988 L-660293 296986 L-660149 296985 L-659348 296984 L-659202 296982 L-658922 296981 L-658745 296979 L-658436 296978 L-657624 296977 L-656695 296977 L-655104 296975 L-654860 296974 L-654219 296973 L-654024 296971 L-653946 296970 L-653429 296969 L-653196 296969 L-653173 296967 L-653041 296967 L-652702 296966 L-652691 296965 L-652475 296963 L-652438 296962 L-651896 296960 L-651368 296958 L-651300 296956 L-651007 296955 L-650459 296952 L-650424 296951 L-650371 296950 L-650272 296947 L-650039 296947 L-649459 296947 L-649362 296948 L-649287 296948 L-648955 296947 L-648205 296946 L-648166 296944 L-647487 296944 L-647332 296944 L-647006 296943 L-646790 296941 L-646558 296941 L-646262 296940 L-646016 296939 L-645665 296937 L-645612 296936 L-644852 296935 L-644159 296932 L-643808 296929 L-643344 296928 L-642711 296927 L-642302 296925 L-642224 296927 L-641798 296927 L-641156 296925 L-640987 296925 L-640245 296924 L-640057 296922 L-639762 296921 L-639190 296920 L-639165 296918 L-638145 296918 L-637659 296917 L-637565 296917 L-637504 296916 L-637216 296914 L-636930 296913 L-636869 296912 L-636689 296912 L-635978 296910 L-635802 296909 L-635604 296908 L-635452 296906 L-635360 296905 L-635298 296903 L-634756 296903 L-634446 296902 L-634354 296899 L-634277 296897 L-633709 296895 L-633619 296895 L-633364 296893 L-633037 296890 L-633000 296886 L-632845 296882 L-632613 296880 L-632291 296879 L-631158 296878 L-630959 296876 L-630434 296875 L-630189 296875 L-629943 296874 L-629863 296872 L-629843 296870 L-629767 296868 L-629711 296865 L-629634 296864 L-629595 296863 L-629416 296860 L-629379 296859 L-629148 296857 L-627910 296856 L-627583 296855 L-627543 296852 L-626762 296851 L-626615 296849 L-625623 296848 L-625417 296848 L-624991 296848 L-624864 296848 L-624459 296849 L-624371 296848 L-623714 296846 L-623007 296845 L-622399 296844 L-622205 296842 L-621972 296840 L-621354 296838 L-621058 296836 L-620619 296834 L-620464 296833 L-620309 296832 L-619553 296829 L-619203 296827 L-618801 296827 L-618762 296826 L-617756 296826 L-617436 296826 L-617189 296825 L-616489 296822 L-616416 296821 L-616104 296819 L-615023 296818 L-614832 296817 L-614598 296817 L-614403 296815 L-613903 296814 L-613149 296814 L-613036 296814 L-612835 296814 L-612794 296813 L-612702 296811 L-612389 296810 L-612300 296808 L-612184 296807 L-611866 296807 L-611797 296806 L-611773 296804 L-611411 296803 L-611372 296802 L-611155 296800 L-610652 296802 L-610050 296803 L-609839 296806 L-609685 296807 L-609648 296807 L-609603 296804 L-609569 296803 L-609436 296802 L-609027 296800 L-608656 296799 L-608603 296798 L-608586 296796 L-608507 296795 L-608098 296794 L-607944 296792 L-607929 296789 L-607889 296788 L-607711 296785 L-607635 296784 L-607403 296783 L-606613 296781 L-606536 296781 L-605801 296779 L-605645 296777 L-605405 296775 L-605344 296772 L-605258 296770 L-605236 296768 L-605118 296765 L-605103 296762 L-605042 296760 L-605004 296758 L-604910 296757 L-604888 296757 L-604772 296756 L-604539 296754 L-604369 296751 L-603549 296751 L-603148 296750 L-602992 296750 L-602487 296750 L-602373 296750 L-601777 296750 L-601402 296749 L-601351 296749 L-601157 296747 L-600460 296747 L-600422 296746 L-600277 296746 L-600052 296745 L-599790 296743 L-599417 296742 L-598991 296741 L-598862 296739 L-598842 296737 L-598348 296737 L-597652 296735 L-597420 296737 L-597266 296737 L-596298 296737 L-596073 296738 L-595795 296738 L-595780 296737 L-595254 296735 L-594725 296734 L-594577 296732 L-594557 296731 L-594015 296730 L-593705 296728 L-593588 296726 L-593396 296723 L-593260 296720 L-592933 296719 L-592816 296718 L-592506 296718 L-592080 296716 L-592025 296716 L-591792 296718 L-591695 296718 L-591562 296718 L-591266 296718 L-591152 296716 L-590787 296715 L-590475 296715 L-589992 296713 L-589821 296712 L-589573 296711 L-589357 296709 L-588832 296708 L-588645 296705 L-588290 296704 L-587654 296703 L-587500 296700 L-586759 296699 L-586339 296697 L-586159 296696 L-586083 296696 L-585952 296694 L-585658 296693 L-585617 296692 L-585387 296692 L-585195 296690 L-584940 296690 L-584513 296689 L-584404 296688 L-583786 296688 L-583604 296688 L-582393 296688 L-581746 296689 L-581595 296689 L-581557 296689 L-581426 296689 L-581324 296688 L-581309 296686 L-581227 296685 L-581015 296684 L-580899 296682 L-580536 296681 L-580164 296680 L-579468 296678 L-579065 296677 L-578960 296675 L-578942 296674 L-577998 296673 L-577802 296670 L-577650 296669 L-577595 296666 L-576839 296666 L-576821 296669 L-576332 296670 L-576202 296673 L-576009 296673 L-575119 296671 L-575079 296670 L-575041 296669 L-574964 296667 L-574925 296667 L-574848 296666 L-574765 296665 L-574500 296663 L-574268 296662 L-574206 296661 L-573725 296659 L-573389 296659 L-573278 296658 L-573084 296656 L-572908 296655 L-572848 296655 L-572812 296654 L-572542 296652 L-571844 296650 L-571791 296647 L-571497 296644 L-571095 296642 L-570531 296640 L-569658 296639 L-569353 296637 L-569315 296636 L-569193 296635 L-568594 296633 L-568464 296632 L-568264 296631 L-568227 296629 L-567613 296628 L-567434 296627 L-567420 296624 L-567201 296623 L-567123 296620 L-566816 296620 L-566684 296619 L-566452 296619 L-566118 296619 L-566026 296617 L-565926 296616 L-565888 296614 L-565345 296614 L-565152 296613 L-564611 296612 L-564185 296610 L-564054 296610 L-563992 296610 L-563761 296610 L-563744 296610 L-563256 296612 L-563175 296612 L-563158 296612 L-561765 296613 L-561629 296613 L-561515 296612 L-560881 296610 L-560741 296609 L-560624 296608 L-560470 296605 L-560433 296604 L-560354 296602 L-560300 296604 L-559309 296604 L-559272 296602 L-559139 296602 L-559078 296600 L-558979 296598 L-558689 296597 L-558676 296595 L-558365 296595 L-558266 296597 L-557800 296595 L-557747 296739 L-557604 296882 L-557476 297026 L-557244 297169 L-556675 297168 L-556586 297167 L-556564 297167 L-556277 297165 L-555594 297164 L-555517 297163 L-555481 297161 L-555464 297160 L-555265 297159 L-554844 297156 L-554573 297156 L-553700 297155 L-553408 297155 L-553297 297155 L-552563 297153 L-552435 297152 L-552076 297150 L-551823 297150 L-550952 297149 L-550783 297149 L-550721 297148 L-550667 297146 L-550319 297145 L-550295 297144 L-550086 297142 L-549946 297141 L-549816 297140 L-549693 297138 L-549569 297137 L-549332 297136 L-549042 297134 L-548383 297133 L-548361 297131 L-548206 297130 L-548088 297129 L-547124 297127 L-547068 297126 L-546836 297125 L-546813 297123 L-546487 297122 L-546372 297122 L-546332 297121 L-545830 297121 L-545531 297119 L-545420 297118 L-544877 297117 L-543818 297115 L-543192 297114 L-543021 297112 L-542773 297111 L-542517 297110 L-542386 297108 L-542364 297107 L-541697 297106 L-540801 297104 L-540754 297103 L-540684 297102 L-540568 297102 L-540348 297100 L-540157 297100 L-540118 297099 L-539925 297098 L-539266 297098 L-538649 297096 L-538611 297104 L-538014 297112 L-537953 297119 L-536831 297126 L-536776 297126 L-536655 297125 L-536390 297123 L-536326 297123 L-536057 297123 L-535981 297122 L-535765 297122 L-535282 297121 L-535012 297119 L-534881 297119 L-534649 297117 L-534624 297112 L-534609 297107 L-534586 297100 L-534570 297093 L-534546 297087 L-534533 297079 L-534509 297070 L-534493 297062 L-534470 297055 L-534455 297049 L-534433 297042 L-534417 297038 L-534389 297034 L-534371 297028 L-534353 297026 L-534316 297022 L-534277 297019 L-534262 297016 L-534236 297012 L-534184 297009 L-534160 297007 L-534083 297004 L-534045 297003 L-534030 297000 L-533967 296997 L-533952 296994 L-533906 296990 L-533835 296988 L-533797 296986 L-533773 296984 L-533720 296981 L-533695 296979 L-533680 296978 L-533618 296977 L-533581 296975 L-533504 296974 L-533488 296973 L-533460 296970 L-533388 296969 L-533348 296967 L-533194 296965 L-533078 296963 L-533024 296962 L-532941 296960 L-532908 296959 L-532884 296958 L-532730 296956 L-532714 296955 L-532613 296954 L-532302 296952 L-532266 296951 L-532051 296950 L-531940 296950 L-531915 296950 L-531685 296951 L-531452 296951 L-531078 296950 L-530950 296948 L-530910 296947 L-530857 296946 L-530756 296944 L-530719 296943 L-530509 296943 L-530444 296941 L-530332 296941 L-530120 296940 L-530083 296939 L-529711 296937 L-529658 296936 L-529579 296935 L-529557 296933 L-529464 296932 L-529264 296931 L-529227 296931 L-529205 296931 L-528975 296931 L-528954 296929 L-528745 296929 L-528650 296928 L-528613 296927 L-528276 296925 L-528163 296924 L-528123 296922 L-528110 296922 L-527970 296921 L-527955 296921 L-527701 296921 L-527118 296920 L-527042 296918 L-527004 296917 L-526959 296916 L-526911 296914 L-526731 296913 L-526716 296912 L-526617 296910 L-526539 296909 L-526479 296908 L-526113 296905 L-526031 296903 L-526013 296902 L-525960 296901 L-524991 296899 L-524859 296898 L-524838 296897 L-524617 296895 L-524549 296894 L-524526 296893 L-524280 296891 L-524024 296890 L-523893 296889 L-523853 296887 L-523832 296884 L-523776 296882 L-523689 296880 L-523627 296878 L-523402 296876 L-523273 296875 L-523173 296874 L-523119 296872 L-522925 296871 L-522848 296870 L-522514 296868 L-522383 296867 L-522206 296865 L-522190 296864 L-522165 296863 L-521896 296863 L-520695 296861 L-520658 296861 L-520542 296860 L-520308 296859 L-520117 296857 L-520079 296857 L-520023 296856 L-519918 296856 L-519404 296855 L-519110 296853 L-518878 296852 L-518603 296851 L-518586 296849 L-518554 296848 L-518514 296846 L-518476 296845 L-518375 296844 L-518297 296842 L-518205 296841 L-518078 296840 L-517973 296838 L-517795 296838 L-517602 296837 L-516773 296837 L-516657 296836 L-516403 296834 L-516363 296833 L-516264 296832 L-516204 296832 L-515961 296830 L-515937 296830 L-515817 296829 L-515745 296827 L-515706 296826 L-515474 296825 L-515297 296823 L-514777 296822 L-514701 296821 L-514684 296819 L-514273 296819 L-513910 296819 L-513794 296818 L-513772 296818 L-513731 296817 L-513655 296815 L-513601 296814 L-513252 296813 L-513137 296811 L-512959 296811 L-512904 296810 L-512880 296810 L-512766 296808 L-512479 296807 L-512246 296806 L-512031 296804 L-511821 296803 L-511611 296800 L-510785 296799 L-510445 296798 L-509438 296796 L-509075 296795 L-508029 296794 L-507952 296792 L-507504 296791 L-507293 296789 L-507101 296788 L-506807 296787 L-506766 296785 L-506613 296784 L-506559 296781 L-506327 296780 L-505747 296779 L-505553 296777 L-504934 296777 L-504445 296776 L-504393 296775 L-503744 296773 L-503594 296772 L-503425 296770 L-503052 296769 L-503037 296769 L-502937 296768 L-502899 296768 L-502768 296766 L-502335 296766 L-502032 296766 L-501646 296766 L-501506 296765 L-501344 296765 L-500911 296765 L-500872 296764 L-500770 296764 L-500655 296762 L-500477 296762 L-500307 296761 L-500189 296760 L-499828 296757 L-499610 296756 L-499478 296754 L-499337 296754 L-498838 296754 L-498760 296754 L-498526 296753 L-498202 296753 L-497816 296751 L-497793 296750 L-497172 296750 L-496902 296749 L-496669 296749 L-496245 296747 L-495973 296746 L-495831 296745 L-495622 296743 L-495417 296742 L-494865 296741 L-494735 296741 L-494348 296739 L-494078 296739 L-493975 296738 L-493714 296737 L-493513 296735 L-493443 296734 L-493405 296732 L-492838 296731 L-492630 296730 L-492603 296728 L-492374 296727 L-492297 296726 L-491780 296724 L-491741 296723 L-491586 296722 L-491292 296720 L-491021 296719 L-490657 296718 L-490309 296718 L-489937 296716 L-489816 296716 L-489745 296715 L-489265 296713 L-489202 296712 L-488867 296711 L-488736 296709 L-488659 296708 L-488529 296707 L-488065 296707 L-487772 296705 L-487695 296705 L-487384 296704 L-487075 296703 L-487012 296701 L-486982 296700 L-486207 296699 L-486103 296696 L-486015 296694 L-485992 296693 L-485838 296692 L-485616 296690 L-485449 296689 L-485063 296688 L-485008 296686 L-484944 296686 L-484327 296685 L-484210 296684 L-483887 296682 L-483361 296681 L-483011 296680 L-482935 296678 L-482315 296677 L-481904 296675 L-481603 296674 L-481293 296673 L-481155 296671 L-480531 296671 L-480149 296670 L-479025 296670 L-477965 296669 L-477903 296667 L-477542 296666 L-477440 296666 L-477424 296665 L-477051 296665 L-476045 296662 L-475659 296661 L-475451 296658 L-475363 296656 L-474987 296655 L-474694 296654 L-474383 296652 L-473594 296651 L-473506 296650 L-473454 296648 L-473415 296647 L-472898 296646 L-472782 296644 L-472574 296643 L-472434 296642 L-471831 296640 L-471002 296639 L-470718 296637 L-470536 296637 L-470035 296636 L-469830 296636 L-469276 296636 L-468771 296635 L-468579 296633 L-468541 296632 L-467912 296631 L-467459 296629 L-467044 296628 L-466436 296627 L-465315 296627 L-464902 296625 L-464578 296625 L-464363 296624 L-463936 296623 L-463796 296621 L-463705 296620 L-463473 296619 L-462887 296619 L-462079 296617 L-460879 296617 L-460766 296617 L-460633 296616 L-460546 296614 L-460504 296616 L-460483 296617 L-460473 296620 L-460378 296623 L-459614 296623 L-458908 296623 L-458868 296621 L-458582 296620 L-458042 296619 L-457980 296617 L-457940 296616 L-457925 296614 L-457668 296613 L-457345 296612 L-457205 296610 L-456935 296609 L-456896 296608 L-456788 296606 L-456387 296605 L-456277 296604 L-456200 296602 L-455903 296601 L-455860 296600 L-455642 296600 L-455458 296600 L-455348 296600 L-455333 296598 L-455307 296598 L-454883 296597 L-454636 296595 L-454301 296594 L-454266 296593 L-454131 296591 L-453878 296591 L-453723 296590 L-452817 296590 L-452718 296589 L-452523 296586 L-451515 296585 L-451015 296583 L-450937 296582 L-450898 296581 L-450690 296579 L-450572 296578 L-450474 296576 L-450288 296575 L-450122 296574 L-449887 296572 L-449467 296571 L-449451 296570 L-449142 296568 L-448097 296567 L-447880 296566 L-447864 296564 L-447841 296563 L-447633 296562 L-447474 296560 L-447415 296559 L-445970 296557 L-445644 296557 L-445443 296557 L-445244 296557 L-445094 296557 L-444823 296556 L-444382 296555 L-444164 296555 L-443470 296553 L-442967 296552 L-442642 296551 L-442371 296551 L-441651 296549 L-441496 296549 L-440298 296547 L-439908 296545 L-439793 296543 L-439639 296541 L-439486 296540 L-438515 296538 L-438463 296537 L-438216 296536 L-438194 296534 L-437974 296533 L-437535 296530 L-437396 296528 L-437288 296525 L-437086 296524 L-436969 296522 L-436867 296521 L-436852 296521 L-436720 296519 L-436466 296518 L-435848 296517 L-435188 296515 L-434943 296515 L-434750 296514 L-433991 296514 L-433951 296514 L-433873 296513 L-433821 296510 L-433782 296509 L-433744 296507 L-433705 296506 L-433614 296505 L-433569 296503 L-433511 296500 L-433487 296499 L-433372 296498 L-433062 296495 L-433007 296494 L-432986 296492 L-432643 296491 L-432478 296490 L-432443 296487 L-432402 296486 L-432387 296484 L-432156 296483 L-432015 296481 L-431847 296480 L-431398 296480 L-431164 296480 L-431072 296480 L-431052 296481 L-430571 296480 L-430494 296480 L-430366 296479 L-430236 296476 L-429858 296475 L-429617 296472 L-429579 296471 L-429525 296469 L-429387 296467 L-429348 296465 L-429308 296464 L-429077 296462 L-429037 296461 L-428907 296460 L-428728 296458 L-428688 296457 L-428674 296456 L-428510 296454 L-428495 296453 L-428342 296452 L-428327 296450 L-428301 296449 L-428266 296448 L-428044 296445 L-427822 296445 L-427568 296443 L-427436 296445 L-426793 296445 L-426186 296443 L-425167 296443 L-424973 296442 L-424922 296441 L-424797 296439 L-424473 296438 L-423700 296437 L-423642 296435 L-423528 296434 L-423117 296433 L-422792 296431 L-422654 296430 L-422430 296429 L-421904 296427 L-421503 296427 L-421471 296426 L-421184 296426 L-420899 296424 L-420511 296423 L-420295 296422 L-419867 296419 L-419686 296418 L-419350 296416 L-419243 296415 L-419057 296415 L-418940 296414 L-418925 296414 L-418204 296412 L-418035 296411 L-417786 296410 L-417686 296408 L-417044 296407 L-416756 296405 L-416565 296404 L-416290 296403 L-415973 296401 L-415688 296400 L-415574 296397 L-415530 296396 L-415327 296395 L-413719 296393 L-413506 296392 L-412826 296391 L-412743 296389 L-412515 296388 L-412324 296388 L-412185 296386 L-412167 296386 L-411974 296386 L-411744 296386 L-411551 296386 L-410467 296385 L-410272 296385 L-410219 296385 L-410065 296385 L-409957 296385 L-409791 296385 L-409639 296384 L-409523 296382 L-409399 296380 L-408982 296378 L-408725 296376 L-408633 296374 L-408440 296374 L-408378 296373 L-408053 296373 L-407991 296373 L-407934 296372 L-407666 296370 L-407317 296369 L-407139 296367 L-406944 296366 L-406909 296367 L-406196 296367 L-406156 296370 L-405847 296372 L-405549 296373 L-405500 296374 L-405244 296376 L-404973 296377 L-404918 296377 L-403827 296377 L-403796 296376 L-403756 296376 L-403579 296376 L-403387 296374 L-402529 296374 L-401475 296373 L-401415 296372 L-401066 296370 L-400253 296370 L-399440 296370 L-399424 296370 L-399050 296370 L-398881 296370 L-398612 296370 L-398285 296369 L-398163 296367 L-398106 296367 L-398071 296366 L-397993 296366 L-397776 296365 L-397718 296363 L-397402 296362 L-397234 296361 L-396871 296361 L-396678 296361 L-396654 296361 L-396577 296359 L-396096 296359 L-395959 296359 L-395545 296358 L-395246 296358 L-395147 296357 L-395131 296355 L-395102 296354 L-394743 296353 L-394393 296351 L-394255 296350 L-394219 296350 L-393402 296348 L-393196 296347 L-393171 296346 L-393015 296346 L-392925 296344 L-392684 296344 L-392360 296343 L-392267 296343 L-392071 296342 L-391785 296342 L-391029 296340 L-390900 296339 L-390827 296338 L-390214 296336 L-390038 296335 L-389928 296334 L-389828 296332 L-389749 296331 L-389612 296329 L-389457 296329 L-389378 296329 L-389187 296329 L-388514 296329 L-388476 296328 L-388373 296327 L-387430 296325 L-387408 296324 L-387057 296323 L-386592 296321 L-386556 296320 L-386127 296319 L-386076 296319 L-385665 296317 L-385648 296317 L-385552 296317 L-385496 296317 L-385458 296317 L-385163 296316 L-383424 296315 L-381914 296313 L-381407 296312 L-380909 296310 L-380775 296309 L-380684 296308 L-380557 296306 L-380478 296304 L-380172 296302 L-379902 296301 L-379668 296301 L-378469 296300 L-378364 296300 L-378298 296298 L-377457 296297 L-377271 296296 L-376360 296294 L-375491 296291 L-375203 296290 L-375110 296287 L-374561 296286 L-374042 296285 L-372973 296283 L-372704 296282 L-372551 296282 L-372458 296282 L-372328 296283 L-372280 296285 L-372121 296285 L-371255 296285 L-370920 296285 L-370537 296283 L-369784 296282 L-369725 296281 L-369336 296281 L-369014 296281 L-368857 296279 L-368125 296279 L-368062 296279 L-367775 296279 L-367401 296279 L-367220 296279 L-366964 296278 L-366703 296275 L-366550 296274 L-366147 296272 L-364849 296271 L-364734 296270 L-364270 296268 L-362939 296267 L-362514 296266 L-362490 296264 L-362357 296263 L-362181 296262 L-362048 296262 L-361718 296260 L-361330 296259 L-361291 296258 L-361275 296255 L-360884 296253 L-360592 296252 L-360324 296252 L-360150 296252 L-358657 296252 L-358607 296251 L-358529 296252 L-357289 296253 L-357214 296253 L-357187 296256 L-356940 296255 L-356783 296255 L-356724 296253 L-355837 296253 L-355608 296252 L-355085 296252 L-354944 296253 L-354868 296253 L-354172 296255 L-353924 296255 L-353243 296253 L-353226 296253 L-352972 296252 L-352604 296252 L-352469 296251 L-351846 296248 L-351503 296247 L-351456 296245 L-350969 296244 L-350634 296241 L-350418 296241 L-350283 296240 L-349962 296239 L-349898 296239 L-349646 296237 L-349356 296236 L-349047 296234 L-348907 296233 L-348368 296232 L-348092 296230 L-347362 296229 L-347309 296229 L-347202 296229 L-346936 296229 L-346512 296229 L-346247 296228 L-346028 296226 L-346007 296225 L-345776 296224 L-345488 296222 L-345465 296222 L-345451 296221 L-345078 296221 L-344907 296220 L-344831 296217 L-344770 296215 L-344469 296213 L-344228 296210 L-344135 296209 L-343878 296207 L-343826 296206 L-343630 296205 L-343414 296206 L-342990 296206 L-342898 296207 L-342758 296206 L-341893 296205 L-341519 296203 L-341191 296201 L-341039 296199 L-340612 296199 L-339894 296198 L-339699 296198 L-339345 296196 L-339198 296195 L-338692 296192 L-338456 296191 L-337488 296190 L-337479 296188 L-336413 296187 L-336181 296186 L-335779 296184 L-335585 296183 L-335505 296182 L-335409 296180 L-334672 296180 L-334539 296180 L-334150 296180 L-334127 296179 L-334032 296179 L-333897 296177 L-333880 296176 L-333860 296175 L-332175 296173 L-332157 296173 L-332040 296172 L-331955 296172 L-331831 296172 L-331807 296171 L-331523 296169 L-331416 296168 L-331228 296165 L-330957 296164 L-330285 296163 L-329913 296161 L-329062 296161 L-329004 296160 L-328985 296160 L-328751 296160 L-328477 296158 L-328171 296158 L-328132 296156 L-327901 296156 L-327663 296154 L-327050 296153 L-327010 296152 L-326972 296149 L-326451 296148 L-326259 296146 L-326199 296145 L-326156 296144 L-325834 296144 L-325806 296142 L-325791 296142 L-325306 296141 L-325253 296139 L-325115 296138 L-325077 296137 L-325059 296135 L-324965 296134 L-324300 296134 L-323684 296133 L-323414 296133 L-323006 296133 L-322985 296131 L-322970 296131 L-322856 296130 L-322469 296129 L-322003 296129 L-321942 296127 L-321863 296126 L-321849 296125 L-321362 296122 L-321323 296120 L-321177 296120 L-321128 296119 L-321049 296120 L-320417 296119 L-320326 296119 L-320085 296119 L-319968 296118 L-319641 296118 L-318886 296116 L-318870 296116 L-317918 296116 L-317609 296115 L-317184 296114 L-316470 296112 L-316152 296111 L-316137 296110 L-315986 296107 L-315682 296106 L-315605 296104 L-315477 296103 L-315041 296103 L-314980 296103 L-314457 296103 L-314188 296103 L-314051 296101 L-313973 296100 L-313934 296099 L-313122 296099 L-313082 296099 L-312642 296099 L-312563 296099 L-312306 296097 L-312115 296096 L-311486 296095 L-311299 296093 L-311265 296091 L-311109 296089 L-310707 296087 L-310630 296085 L-310449 296084 L-310259 296082 L-309330 296080 L-309180 296078 L-307972 296077 L-307162 296076 L-306759 296074 L-306156 296073 L-305954 296072 L-305886 296070 L-305727 296069 L-305466 296068 L-305093 297283 L-305074 297282 L-304917 297282 L-303719 297282 L-302615 296065 L-301688 296063 L-301574 296062 L-301288 296061 L-301187 296059 L-301162 296059 L-300972 296057 L-300895 296055 L-300699 296055 L-299987 296055 L-299829 296057 L-298772 296057 L-298347 296057 L-297937 296055 L-297651 296053 L-297477 296051 L-297245 296050 L-296991 296049 L-296548 296047 L-295887 296046 L-295712 296044 L-295407 296043 L-295020 296042 L-295000 296040 L-294980 296039 L-294959 296038 L-294825 296036 L-294633 296035 L-292989 296034 L-291693 296032 L-291654 296031 L-291596 296030 L-291495 296028 L-290935 296027 L-289951 296025 L-289409 296023 L-288945 296021 L-288300 296020 L-287751 296019 L-286701 296017 L-285772 296016 L-285425 296015 L-285231 296013 L-284728 296012 L-284283 296012 L-284141 296011 L-284119 296011 L-283548 296011 L-283163 296008 L-282329 296007 L-281980 296005 L-281959 296004 L-281571 296004 L-281148 296002 L-280550 296001 L-280531 296000 L-280025 296000 L-279793 295998 L-279680 295998 L-279061 295996 L-278499 295994 L-278459 295993 L-277900 295992 L-277567 295990 L-277454 295990 L-277415 295989 L-276990 295989 L-276931 295989 L-276855 295988 L-276564 295988 L-276352 295986 L-275868 295983 L-275653 295982 L-274514 295981 L-274455 295979 L-274437 295978 L-274031 295977 L-273392 295975 L-273257 295974 L-273198 295973 L-272657 295971 L-272347 295970 L-272096 295970 L-272021 295969 L-271901 295967 L-271168 295964 L-270722 295963 L-270508 295962 L-269775 295960 L-269600 295959 L-269235 295959 L-269020 295959 L-267782 295959 L-267472 295959 L-267356 295959 L-267103 295958 L-266892 295956 L-266350 295955 L-266118 295954 L-266061 295954 L-265963 295952 L-265634 295952 L-265401 295951 L-263739 295950 L-263388 295948 L-262984 295945 L-262829 295944 L-262037 295943 L-260546 295941 L-260160 295940 L-260121 295939 L-259867 295937 L-259772 295936 L-259580 295935 L-259231 295935 L-258535 295933 L-258284 295933 L-257568 295932 L-256155 295931 L-255923 295929 L-255594 295929 L-254378 295929 L-254026 295931 L-253834 295932 L-253716 295933 L-251281 295933 L-250311 295932 L-249481 295931 L-249171 295929 L-247829 295928 L-247256 295926 L-247141 295925 L-246812 295925 L-246715 295924 L-246308 295924 L-246192 295922 L-246001 295921 L-245245 295920 L-245119 295918 L-244838 295917 L-244335 295916 L-244258 295914 L-242671 295921 L-242614 295928 L-241872 295936 L-241491 295943 L-241163 295941 L-240500 295940 L-240369 295939 L-240330 295939 L-240079 295939 L-239944 295939 L-239751 295937 L-239615 295937 L-239364 295935 L-239151 295935 L-238842 295933 L-238569 295933 L-238068 295933 L-238049 295933 L-237615 295932 L-237389 295931 L-236945 295929 L-236926 295928 L-236423 295926 L-236285 295925 L-236171 295924 L-235940 295922 L-235629 295921 L-235165 295920 L-235088 295918 L-234585 295917 L-234314 295916 L-233977 295914 L-233792 295913 L-233115 295912 L-233096 295912 L-232921 295910 L-232902 295909 L-232284 295907 L-231568 295906 L-231006 295905 L-230811 295905 L-230657 295903 L-230639 295903 L-230115 295901 L-230001 295899 L-229129 295898 L-229108 295897 L-229052 295895 L-228220 295894 L-227910 295893 L-227834 295891 L-227562 295890 L-227500 295890 L-227449 295887 L-227137 295884 L-226520 295882 L-225745 295880 L-224951 295879 L-224913 295878 L-224835 295876 L-224663 295875 L-223785 295874 L-222901 295872 L-222806 295871 L-222686 295869 L-222357 295868 L-222320 295868 L-222088 295867 L-221855 295867 L-221140 295864 L-220637 295863 L-219972 295861 L-219863 295860 L-219709 295859 L-219689 295857 L-219535 295856 L-219119 295855 L-218508 295853 L-218374 295852 L-217465 295850 L-217262 295849 L-216710 295848 L-214061 295846 L-213886 295845 L-213808 295842 L-212937 295841 L-212473 295840 L-211990 295838 L-211951 295836 L-211371 295834 L-211351 295833 L-210249 295831 L-208827 295830 L-208409 295829 L-208102 295827 L-208025 295826 L-207949 295825 L-207791 295823 L-207715 295822 L-207251 295821 L-206013 295819 L-205761 295818 L-205317 295817 L-204694 295815 L-204639 295814 L-204445 295814 L-203980 295812 L-203690 295810 L-203649 295807 L-203613 295804 L-203459 295802 L-203282 295800 L-202144 295798 L-201756 295796 L-201699 295795 L-201525 295793 L-199007 295791 L-197847 295789 L-197210 295788 L-197071 295787 L-196940 295784 L-196552 295783 L-196088 295781 L-195877 295779 L-195812 295777 L-195778 295776 L-195025 295774 L-194443 295773 L-194251 295772 L-193632 295770 L-193586 295769 L-193225 295768 L-193119 295766 L-192935 295765 L-192657 295764 L-191754 295762 L-190749 295761 L-190014 295760 L-189588 295758 L-189428 295757 L-189065 295755 L-188968 295754 L-188524 295753 L-188449 295751 L-188097 295751 L-187847 295749 L-187827 295746 L-187654 295743 L-186705 295739 L-186591 295738 L-186029 295736 L-185579 295735 L-185194 295734 L-184283 295732 L-184227 295731 L-183088 295730 L-182508 295727 L-182333 295726 L-181539 295723 L-181308 295722 L-180921 295720 L-180651 295719 L-180515 295717 L-180399 295716 L-179780 295716 L-179722 295716 L-179507 295716 L-179213 295716 L-178425 295715 L-178285 295715 L-176897 295713 L-176550 295713 L-176163 295712 L-176102 295709 L-176065 295708 L-176008 295707 L-175365 295705 L-174673 295704 L-174421 295704 L-174086 295703 L-173996 295703 L-173476 295701 L-173222 295700 L-173007 295697 L-172624 295696 L-172463 295694 L-171925 295692 L-171112 295690 L-171094 295689 L-170978 295689 L-170833 295688 L-170453 295688 L-170261 295688 L-170204 295686 L-169905 295685 L-169838 295684 L-169643 295682 L-169276 295681 L-169214 295679 L-168910 295678 L-168865 295678 L-168811 295677 L-168173 295677 L-168154 295675 L-167669 295674 L-167186 295675 L-166817 295675 L-166451 295677 L-166316 295677 L-166162 295675 L-166092 295674 L-165445 295674 L-165425 295673 L-165284 295673 L-164799 295671 L-164517 295671 L-164459 295670 L-164401 295670 L-164091 295669 L-163936 295667 L-163453 295667 L-162679 295667 L-162039 295667 L-161942 295666 L-160879 295666 L-160858 295665 L-160393 297302 L-160377 297302 L-160203 297302 L-159691 297302 L-157336 295663 L-156392 295662 L-155673 295660 L-155132 295658 L-154435 295656 L-154119 295655 L-153470 295654 L-152963 295652 L-152928 295651 L-152886 295650 L-152541 295648 L-151846 295647 L-151649 295646 L-151633 295643 L-151516 295641 L-151235 295640 L-150337 295637 L-150291 295636 L-149925 295633 L-149908 295632 L-149853 295631 L-149659 295629 L-149523 295628 L-149448 295627 L-149214 295625 L-148673 295624 L-148633 295622 L-148596 295621 L-148570 295620 L-147935 295617 L-147393 295616 L-146228 295614 L-145868 295613 L-144591 295613 L-144552 295612 L-144513 295612 L-144299 295610 L-144108 295609 L-144031 295608 L-143877 295606 L-143837 295605 L-142749 295603 L-142424 295603 L-142210 295602 L-141950 295602 L-141457 295602 L-141435 295608 L-141018 295613 L-140877 295617 L-140817 295622 L-140740 295622 L-140529 295621 L-139234 295621 L-138958 295620 L-138333 295618 L-136942 295617 L-136870 295616 L-136832 295613 L-136639 295612 L-136249 295610 L-135942 295609 L-135885 295608 L-135570 295608 L-135520 295608 L-135481 295606 L-135435 295605 L-134802 295603 L-134028 295602 L-133590 295601 L-133448 297254 L-133424 297252 L-133408 298905 L-133383 298905 L-132965 297252 L-132762 297251 L-132613 295597 L-132534 295595 L-132480 295594 L-131683 295594 L-131667 295594 L-130803 295594 L-130599 295594 L-130312 295593 L-130197 295591 L-129671 295590 L-129495 295589 L-129191 295587 L-128804 295586 L-128744 295583 L-128688 295582 L-128533 295580 L-127489 295579 L-126926 295579 L-126691 295578 L-126654 295578 L-126384 295578 L-125979 295576 L-124509 295575 L-122768 295574 L-122381 295572 L-122149 295571 L-122050 295570 L-121956 295568 L-121801 295565 L-121238 295565 L-121155 295564 L-120989 295564 L-120446 295565 L-119262 295565 L-119247 295565 L-119188 295565 L-119036 295564 L-118552 295563 L-117905 295561 L-117198 295559 L-117082 295557 L-116115 295556 L-116070 295555 L-115379 295555 L-115322 295553 L-115244 295553 L-115225 295552 L-115204 295551 L-114989 295549 L-114275 295549 L-113886 295548 L-113849 295546 L-113832 295545 L-113774 295544 L-113346 295542 L-113132 295541 L-113057 295538 L-112980 295537 L-112865 295536 L-112799 295536 L-112671 295534 L-112612 295534 L-112536 295532 L-112457 295530 L-112029 295529 L-111303 295527 L-111290 295525 L-111123 295523 L-110906 295521 L-110892 295518 L-110311 295517 L-110039 295515 L-109751 295514 L-109321 295513 L-109167 295511 L-109111 295510 L-108934 295508 L-107539 295507 L-107274 295504 L-106381 295502 L-105855 295500 L-104836 295498 L-104755 295496 L-104291 295495 L-103672 295495 L-103385 295494 L-103132 295494 L-102980 295492 L-102631 295491 L-101915 295489 L-101353 295488 L-100465 295487 L-100156 295487 L-99865 295487 L-99013 295487 L-98992 295487 L-98335 295487 L-97832 295484 L-97621 295483 L-97601 295481 L-97271 295480 L-97213 295480 L-96826 295480 L-95841 295480 L-95279 295480 L-95182 295480 L-94874 295479 L-94796 295479 L-93762 295477 L-93631 295476 L-93575 295475 L-92939 295473 L-92880 295472 L-92805 295470 L-91391 295469 L-91254 295468 L-91121 295466 L-90635 295465 L-90385 295464 L-90095 295462 L-89882 295461 L-89225 295460 L-88657 295457 L-88567 295456 L-88428 295454 L-88353 295453 L-87189 295453 L-87156 295451 L-86727 295451 L-86710 295450 L-86535 295449 L-85008 295447 L-84923 295449 L-84118 295449 L-83924 295449 L-83903 295449 L-83050 295447 L-82856 295446 L-82222 295445 L-82047 295443 L-81927 295442 L-81874 295442 L-81853 295442 L-81796 295442 L-81408 295442 L-80964 295442 L-80886 295441 L-80689 295441 L-80627 295439 L-80365 295438 L-80016 295438 L-79901 295437 L-78752 295437 L-78467 295435 L-78023 295434 L-76819 295432 L-76689 295431 L-76379 295430 L-75951 295428 L-74654 295427 L-74345 297020 L-74329 297020 L-74282 297051 L-74233 297051 L-73305 295456 L-72974 295456 L-72426 295423 L-72299 295422 L-71853 295420 L-70319 295419 L-70151 295418 L-69879 295416 L-69855 295414 L-68951 295412 L-68835 295411 L-68368 295409 L-68346 295408 L-68273 295407 L-68075 295405 L-67923 295404 L-67456 295403 L-66805 295401 L-66318 295400 L-65768 295400 L-64746 295400 L-64440 295400 L-64386 295400 L-63786 295399 L-63356 295397 L-63281 295397 L-63264 295396 L-63043 295396 L-62739 295395 L-62657 295393 L-62353 295393 L-61753 295392 L-61617 295390 L-61346 295389 L-61132 295388 L-60957 295388 L-60748 295388 L-60727 295388 L-60478 295404 L-60028 295420 L-60012 295437 L-59567 295453 L-58358 295453 L-58156 295451 L-57228 295451 L-57167 295450 L-57132 295449 L-56106 295447 L-55990 295447 L-55970 295446 L-55816 295446 L-55796 295446 L-55385 295445 L-55369 295445 L-55332 295443 L-55022 295442 L-54868 295441 L-54663 295441 L-54264 295439 L-53281 295439 L-52757 295439 L-52700 295438 L-52675 295438 L-52353 295437 L-51636 295437 L-50766 295437 L-50728 295437 L-50651 295437 L-50399 295435 L-50380 295434 L-49657 295434 L-49507 295432 L-49394 295432 L-49297 295431 L-48194 295430 L-47439 295428 L-47267 295427 L-47106 295426 L-47030 295424 L-46837 295424 L-45698 295423 L-45014 295423 L-44731 295422 L-43764 295420 L-43745 295419 L-42894 295418 L-42854 295416 L-42711 295415 L-42386 295414 L-42157 295412 L-42119 295411 L-42078 295409 L-42061 295407 L-41926 295405 L-41907 295404 L-41695 295403 L-41635 295401 L-41557 295400 L-41534 295399 L-41458 295397 L-40978 295396 L-40882 295395 L-40806 295393 L-40629 295392 L-40607 295390 L-40552 295389 L-40514 295388 L-40454 295386 L-40299 295385 L-39276 295384 L-38976 295382 L-38850 295381 L-38772 295380 L-37746 295378 L-37689 295377 L-37632 295376 L-37586 295374 L-37572 295373 L-37535 295371 L-37496 295370 L-36316 295369 L-36258 295367 L-35561 295367 L-34942 295366 L-34799 295366 L-34356 295365 L-34091 295363 L-33428 295363 L-33143 295362 L-31674 295362 L-30725 295361 L-30619 295359 L-30553 295359 L-30523 295358 L-30203 295357 L-30182 295357 L-29253 295357 L-29078 295358 L-28346 295359 L-27805 222270 L-27782 149178 L-27756 76087 L-27723 2996 L-27707 2995 L-27686 2992 L-27648 2990 L-27628 2990 L-27606 2992 L-27591 2994 L-27572 2995 L-27552 2995 L-27530 2992 L-27513 2991 L-27493 2990 L-27474 2990 L-27436 2990 L-27396 2987 L-27371 2984 L-27354 2980 L-27336 2977 L-27299 2975 L-27281 2973 L-27261 2972 L-27242 2971 L-27221 2968 L-27204 2966 L-27165 2962 L-27142 2958 L-27126 2957 L-27108 2954 L-27088 2953 L-27068 2952 L-27049 2949 L-27010 2947 L-26953 2946 L-26905 2943 L-26853 2942 L-26827 2939 L-26811 2937 L-26794 2935 L-26778 2934 L-26757 2933 L-26739 2933 L-26719 2930 L-26700 2928 L-26677 2926 L-26662 2922 L-26643 2919 L-26623 2918 L-26601 2915 L-26565 2912 L-26546 2909 L-26525 2907 L-26489 2904 L-26467 2903 L-26442 2901 L-26426 2900 L-26408 2897 L-26391 2890 L-26370 2884 L-26352 2876 L-26333 2870 L-26314 2866 L-26256 2863 L-26236 2859 L-26213 2857 L-26179 2852 L-26159 2848 L-26139 2846 L-26120 2843 L-26102 2842 L-26062 2840 L-26043 2838 L-26024 2835 L-25998 2833 L-25811 2831 L-25791 2828 L-25771 2827 L-25749 2824 L-25715 2821 L-25694 2819 L-25673 2814 L-25656 2810 L-25636 2806 L-25617 2802 L-25597 2800 L-25579 2797 L-25560 2794 L-25539 2791 L-25513 2789 L-25498 2786 L-25463 2783 L-25442 2782 L-25424 2779 L-25404 2778 L-25385 2775 L-25364 2772 L-25327 2770 L-25308 2767 L-25285 2764 L-25270 2762 L-25251 2759 L-25230 2756 L-25211 2755 L-25173 2752 L-25096 2751 L-25071 2748 L-25048 2745 L-25020 2741 L-24997 2738 L-24970 2736 L-24921 2733 L-24900 2732 L-24862 2728 L-24843 2725 L-24821 2724 L-24805 2721 L-24786 2719 L-24766 2718 L-24745 2717 L-24709 2714 L-24689 2713 L-24632 2711 L-24611 2710 L-24585 2710 L-24571 2709 L-24553 2709 L-24515 2707 L-24495 2705 L-24477 2702 L-24457 2699 L-24437 2696 L-24419 2694 L-24399 2690 L-24379 2687 L-24358 2684 L-24322 2681 L-24302 2680 L-24283 2679 L-24245 2677 L-24206 2676 L-24186 2675 L-24167 2673 L-24119 2672 L-24091 2671 L-24051 2668 L-24021 2667 L-24006 2664 L-23934 2661 L-23915 2658 L-23893 2657 L-23877 2656 L-23858 2654 L-23817 2654 L-23741 2652 L-23722 2650 L-23703 2648 L-23682 2646 L-23657 2645 L-23625 2643 L-23606 2643 L-23587 2641 L-23548 2638 L-23507 2634 L-23429 2630 L-23393 2627 L-23354 2624 L-23276 2623 L-23257 2622 L-23212 2620 L-23190 2622 L-23162 2622 L-23123 2619 L-23092 2618 L-23077 2615 L-23063 2612 L-23023 2610 L-22962 2608 L-22948 2606 L-22928 2603 L-22908 2600 L-22831 2596 L-22793 2593 L-22774 2591 L-22728 2589 L-22711 2588 L-22693 2587 L-22677 2585 L-22638 2581 L-22618 2578 L-22599 2574 L-22577 2572 L-22561 2569 L-22522 2566 L-22484 2563 L-22465 2561 L-22445 2557 L-22425 2551 L-22406 2546 L-22387 2540 L-22367 2538 L-22348 2536 L-22284 2535 L-22262 2534 L-22234 2532 L-22210 2528 L-22183 2524 L-22167 2519 L-22151 2513 L-22114 2511 L-22096 2508 L-22076 2506 L-22057 2505 L-22034 2502 L-22019 2501 L-22000 2500 L-21980 2496 L-21959 2490 L-21942 2486 L-21922 2482 L-21903 2479 L-21882 2477 L-21864 2475 L-21846 2473 L-21799 2471 L-21783 2468 L-21764 2466 L-21748 2462 L-21727 2458 L-21709 2454 L-21690 2449 L-21670 2444 L-21633 2443 L-21613 2441 L-21570 2440 L-21555 2439 L-21536 2435 L-21516 2430 L-21478 2428 L-21459 2426 L-21439 2424 L-21400 2422 L-21381 2420 L-21355 2417 L-21305 2416 L-21268 2414 L-21253 2413 L-21207 2411 L-21168 2409 L-21148 2407 L-21128 2405 L-21106 2403 L-21090 2401 L-21071 2398 L-21029 2397 L-21013 2394 L-20974 2390 L-20953 2387 L-20936 2383 L-20896 2379 L-20871 2376 L-20854 2373 L-20820 2371 L-20799 2367 L-20781 2361 L-20761 2354 L-20720 2348 L-20704 2341 L-20626 2337 L-20608 2334 L-20568 2333 L-20549 2330 L-20530 2327 L-20510 2327 L-20491 2326 L-20472 2326 L-20377 2327 L-20352 2326 L-20324 2325 L-20293 2322 L-20278 2319 L-20257 2316 L-20219 2314 L-20200 2311 L-20177 2308 L-20162 2307 L-20143 2306 L-20123 2303 L-20101 2300 L-20085 2297 L-20064 2295 L-20046 2292 L-20025 2289 L-20007 2285 L-19989 2283 L-19967 2281 L-19942 2278 L-19925 2274 L-19907 2270 L-19870 2266 L-19852 2261 L-19832 2257 L-19814 2253 L-19792 2247 L-19756 2245 L-19736 2240 L-19713 2236 L-19698 2234 L-19679 2231 L-19659 2228 L-19620 2226 L-19582 2224 L-19562 2223 L-19543 2220 L-19498 2219 L-19397 2219 L-19381 2217 L-19249 2216 L-19233 2215 L-19214 2209 L-19194 2205 L-19173 2202 L-19136 2198 L-19117 2197 L-19096 2196 L-19039 2193 L-19013 2190 L-18997 2188 L-18980 2183 L-18963 2181 L-18943 2179 L-18924 2178 L-18885 2175 L-18863 2174 L-18827 2173 L-18808 2171 L-18785 2170 L-18730 2170 L-18711 2169 L-18653 2167 L-18614 2166 L-18548 2164 L-18520 2162 L-18497 2159 L-18470 2156 L-18438 2154 L-18421 2152 L-18400 2150 L-18382 2154 L-18363 2156 L-18343 2160 L-18322 2164 L-18305 2163 L-18209 2162 L-18151 2160 L-18111 2159 L-18085 2155 L-18054 2152 L-18015 2150 L-17977 2145 L-17957 2143 L-17918 2140 L-17879 2137 L-17841 2135 L-17822 2133 L-17783 2131 L-17763 2128 L-17745 2126 L-17725 2125 L-17706 2124 L-17686 2122 L-17667 2120 L-17640 2116 L-17591 2112 L-17551 2109 L-17521 2106 L-17506 2103 L-17492 2102 L-17454 2099 L-17434 2097 L-17393 2094 L-17376 2091 L-17358 2088 L-17317 2084 L-17280 2082 L-17241 2079 L-17203 2078 L-17157 2075 L-17142 2074 L-17067 2072 L-17028 2071 L-17008 2071 L-16990 2068 L-16971 2067 L-16873 2064 L-16835 2061 L-16777 2059 L-16757 2056 L-16739 2053 L-16712 2053 L-16690 2052 L-16624 2050 L-16607 2050 L-16591 2049 L-16578 2048 L-16542 2046 L-16485 2045 L-16462 2042 L-16428 2040 L-16408 2037 L-16370 2033 L-16350 2029 L-16331 2025 L-16310 2022 L-16293 2019 L-16274 2018 L-16253 2015 L-16228 2012 L-16177 2011 L-16156 2008 L-16099 2007 L-16080 2004 L-15984 2003 L-15965 2000 L-15925 1999 L-15906 1998 L-15887 1994 L-15849 1992 L-15829 1991 L-15810 1989 L-15762 1988 L-15710 1988 L-15683 1987 L-15667 1984 L-15651 1983 L-15635 1980 L-15597 1977 L-15576 1976 L-15557 1973 L-15499 1970 L-15480 1968 L-15458 1964 L-15442 1961 L-15421 1957 L-15403 1954 L-15346 1950 L-15324 1946 L-15299 1942 L-15264 1937 L-15248 1932 L-15228 1930 L-15210 1927 L-15190 1926 L-15171 1923 L-15149 1920 L-15132 1919 L-15113 1918 L-15093 1916 L-15071 1913 L-15055 1911 L-15036 1908 L-15016 1905 L-14996 1904 L-14959 1903 L-14939 1899 L-14919 1894 L-14854 1889 L-14833 1885 L-14805 1882 L-14765 1878 L-14734 1874 L-14719 1870 L-14686 1867 L-14648 1865 L-14628 1863 L-14605 1861 L-14590 1859 L-14571 1856 L-14551 1852 L-14513 1851 L-14493 1848 L-14453 1847 L-14396 1844 L-14370 1843 L-14335 1840 L-14320 1837 L-14298 1835 L-14281 1832 L-14242 1829 L-14220 1828 L-14204 1825 L-14184 1823 L-14165 1818 L-14142 1816 L-14127 1812 L-14108 1809 L-14030 1808 L-14010 1805 L-13990 1802 L-13972 1799 L-13953 1797 L-13927 1794 L-13853 1791 L-13827 1789 L-13811 1785 L-13794 1783 L-13778 1780 L-13757 1778 L-13740 1775 L-13700 1774 L-13677 1772 L-13662 1771 L-13643 1768 L-13623 1767 L-13601 1764 L-13585 1763 L-13489 1760 L-13467 1757 L-13442 1756 L-13408 1753 L-13391 1751 L-13370 1748 L-13352 1745 L-13332 1744 L-13314 1742 L-13292 1741 L-13276 1738 L-13256 1736 L-13236 1733 L-13214 1730 L-13198 1728 L-13179 1726 L-13139 1723 L-13120 1721 L-13082 1718 L-13024 1717 L-12998 1714 L-12976 1711 L-12948 1709 L-12924 1706 L-12898 1703 L-12866 1702 L-12849 1700 L-12829 1700 L-12811 1700 L-12791 1700 L-12771 1700 L-12733 1698 L-12715 1695 L-12695 1691 L-12673 1688 L-12637 1685 L-12617 1684 L-12597 1681 L-12579 1679 L-12560 1677 L-12539 1675 L-12513 1672 L-12498 1669 L-12480 1666 L-12463 1662 L-12442 1660 L-12424 1656 L-12405 1652 L-12385 1649 L-12327 1645 L-12307 1643 L-12285 1641 L-12192 1638 L-12153 1637 L-12134 1646 L-12114 1656 L-12096 1671 L-11998 1685 L-11971 1690 L-11939 1694 L-11921 1692 L-11821 1691 L-11805 1688 L-11786 1687 L-11766 1684 L-11746 1681 L-11728 1677 L-11709 1673 L-11689 1669 L-11669 1665 L-11631 1662 L-11611 1661 L-11554 1660 L-11534 1664 L-11515 1684 L-11496 1704 L-11477 1723 L-11457 1738 L-11436 1738 L-11379 1738 L-11358 1740 L-11322 1738 L-11302 1737 L-11245 1736 L-11225 1734 L-11186 1738 L-11167 1741 L-11140 1744 L-11091 1747 L-11051 1744 L-10992 1741 L-10972 1738 L-10954 1737 L-10915 1736 L-10877 1734 L-10838 1733 L-10760 1732 L-10741 1730 L-10722 1729 L-10625 1728 L-10606 1728 L-10528 1726 L-10471 1725 L-10412 1722 L-10373 1719 L-10355 1718 L-10335 1715 L-10316 1711 L-10190 1707 L-10108 1703 L-10094 1699 L-10079 1695 L-10043 1692 L-10005 1690 L-9985 1688 L-9962 1685 L-9948 1684 L-9929 1681 L-9870 1679 L-9850 1662 L-9832 1643 L-9810 1624 L-9793 1604 L-9774 1599 L-9753 1596 L-9727 1593 L-9711 1590 L-9693 1588 L-9677 1585 L-9656 1578 L-9638 1571 L-9618 1565 L-9578 1558 L-9541 1554 L-9522 1551 L-9499 1548 L-9465 1544 L-9425 1543 L-9406 1540 L-9368 1538 L-9348 1535 L-9329 1533 L-9310 1532 L-9284 1529 L-9262 1527 L-9210 1523 L-9183 1520 L-9167 1519 L-9151 1516 L-9135 1514 L-9114 1512 L-9097 1510 L-9077 1509 L-9000 1508 L-8980 1506 L-8958 1504 L-8942 1498 L-8922 1494 L-8882 1490 L-8846 1486 L-8824 1483 L-8799 1481 L-8782 1479 L-8764 1476 L-8727 1475 L-8709 1474 L-8689 1471 L-8671 1470 L-8649 1467 L-8632 1463 L-8613 1460 L-8593 1457 L-8570 1456 L-8516 1455 L-8496 1452 L-8478 1451 L-8419 1448 L-8355 1445 L-8333 1441 L-8255 1438 L-8222 1434 L-8186 1432 L-8168 1430 L-8148 1428 L-8105 1426 L-8091 1424 L-8051 1419 L-8030 1415 L-8013 1411 L-7993 1406 L-7953 1402 L-7936 1398 L-7917 1395 L-7896 1391 L-7870 1388 L-7854 1384 L-7835 1380 L-7798 1376 L-7761 1373 L-7742 1369 L-7720 1367 L-7684 1365 L-7641 1363 L-7587 1360 L-7549 1357 L-7530 1354 L-7510 1350 L-7490 1348 L-7427 1345 L-7352 1341 L-7309 1339 L-7293 1337 L-7278 1334 L-7239 1333 L-7219 1331 L-7176 1330 L-7162 1330 L-7143 1329 L-7123 1327 L-7101 1325 L-7084 1322 L-7065 1319 L-7024 1315 L-6989 1311 L-6967 1307 L-6942 1303 L-6925 1300 L-6907 1297 L-6891 1295 L-6869 76530 L-6839 76524 L-6813 76519 L-6791 76513 L-6775 1270 L-6755 1269 L-6736 1266 L-6698 1262 L-6679 1258 L-6659 1254 L-6639 1249 L-6582 1244 L-6562 1240 L-6543 1236 L-6498 1235 L-6476 1232 L-6448 1230 L-6423 1227 L-6396 1224 L-6365 1221 L-6328 1219 L-6311 1217 L-6291 1215 L-6214 1213 L-6194 1212 L-6173 1212 L-6156 1213 L-6136 1213 L-6039 1215 L-6013 1212 L-5997 1211 L-5979 1208 L-5963 1204 L-5924 1201 L-5904 1198 L-5863 1196 L-5827 1194 L-5807 1192 L-5785 1190 L-5769 1187 L-5730 1186 L-5673 1185 L-5633 1182 L-5547 1178 L-5520 1175 L-5497 1171 L-5455 1167 L-5382 1166 L-5363 1164 L-5305 1164 L-5286 1166 L-5266 1163 L-5246 1160 L-5209 1158 L-5169 1155 L-5150 1154 L-5111 1154 L-5085 1152 L-5034 1151 L-4996 1149 L-4936 1147 L-4918 1145 L-4899 1143 L-4858 1141 L-4783 1137 L-4763 1135 L-4745 1129 L-4686 1124 L-4667 1120 L-4641 1116 L-4619 1113 L-4553 1110 L-4522 1109 L-4508 1106 L-4472 1105 L-4434 1102 L-4393 1099 L-4358 1097 L-4338 1094 L-4317 1092 L-4299 1091 L-4280 1090 L-4260 1088 L-4240 1087 L-4222 1086 L-4142 1084 L-4086 1083 L-4067 1080 L-4048 1079 L-4007 1079 L-3990 1079 L-3929 1079 L-3893 1078 L-3873 1075 L-3835 1073 L-3796 1071 L-3777 1068 L-3739 1065 L-3623 1063 L-3591 1061 L-3576 1059 L-3542 1056 L-3525 1054 L-3505 1052 L-3462 1050 L-3428 1048 L-3370 1046 L-3349 1044 L-3310 1044 L-3253 1042 L-3228 1041 L-3211 1038 L-3177 1035 L-3156 1033 L-3137 1030 L-3118 1027 L-3061 1025 L-3041 1022 L-2999 1019 L-2984 1016 L-2944 1012 L-2925 1008 L-2906 1006 L-2867 1003 L-2848 1000 L-2829 999 L-2810 996 L-2762 993 L-2734 991 L-2709 989 L-2682 987 L-2666 984 L-2651 981 L-2614 977 L-2557 974 L-2519 970 L-2480 968 L-2458 965 L-2442 962 L-2421 958 L-2382 955 L-2364 953 L-2346 950 L-2324 946 L-2299 943 L-2282 939 L-2264 936 L-2248 932 L-2227 930 L-2209 927 L-2189 924 L-2171 923 L-2148 920 L-2132 917 L-2113 916 L-2070 911 L-2055 907 L-2036 901 L-2016 894 L-1996 889 L-1977 885 L-1939 879 L-1855 877 L-1833 873 L-1805 869 L-1766 866 L-1736 863 L-1721 860 L-1685 859 L-1648 856 L-1605 856 L-1590 855 L-1551 854 L-1493 851 L-1474 848 L-1452 844 L-1417 843 L-1396 841 L-1370 840 L-1353 839 L-1319 836 L-1298 833 L-1281 831 L-1262 826 L-1242 822 L-1204 818 L-1184 814 L-1164 810 L-1141 808 L-1126 806 L-1067 803 L-1049 801 L-1030 798 L-1011 793 L-991 790 L-953 786 L-927 783 L-877 780 L-838 779 L-807 778 L-793 776 L-778 775 L-719 772 L-700 771 L-662 768 L-643 765 L-623 763 L-584 760 L-564 756 L-546 753 L-524 749 L-489 745 L-467 742 L-442 740 L-391 738 L-352 736 L-332 732 L-291 727 L-275 723 L-255 719 L-213 715 L-198 713 L-179 710 L-159 707 L-139 704 L-120 703 L-102 702 L-82 700 L23 698 L89 696 L120 692 L150 689 L188 687 L208 685 L266 683 L285 680 L305 676 L327 672 L343 668 L382 665 L403 661 L420 657 L439 656 L460 653 L486 649 L502 646 L520 642 L537 639 L558 638 L575 637 L595 635 L614 632 L636 631 L652 631 L691 631 L714 631 L749 631 L788 628 L807 627 L826 624 L846 620 L866 618 L884 613 L903 609 L951 608 L979 605 L1003 603 L1029 601 L1062 599 L1117 596 L1137 594 L1156 592 L1178 590 L1194 588 L1213 586 L1271 585 L1290 584 L1310 581 L1367 580 L1388 577 L1465 575 L1484 573 L1503 570 L1522 567 L1563 563 L1581 558 L1600 555 L1620 551 L1697 550 L1716 548 L1794 546 L1908 543 L1949 540 L1981 539 L1995 537 L2008 536 L2028 535 L2045 533 L2084 531 L2122 529 L2141 527 L2161 525 L2239 523 L2317 520 L2343 518 L2357 517 L2393 516 L2413 516 L2432 514 L2451 513 L2509 510 L2528 509 L2548 506 L2570 505 L2626 502 L2645 499 L2742 497 L2760 494 L2809 494 L2837 493 L2877 493 L2938 490 L2957 489 L2974 486 L2994 485 L3014 483 L3037 480 L3051 479 L3071 476 L3090 474 L3113 472 L3149 470 L3168 468 L3189 466 L3225 463 L3246 461 L3288 460 L3307 457 L3322 455 L3343 451 L3361 448 L3381 445 L3400 442 L3422 440 L3438 437 L3458 434 L3501 432 L3534 429 L3554 426 L3575 422 L3593 419 L3612 417 L3632 414 L3652 413 L3670 411 L3689 410 L3715 410 L3804 409 L3835 406 L3850 403 L3885 400 L3923 398 L3942 396 L3965 394 L3980 392 L3999 390 L4019 388 L4058 385 L4078 383 L4096 385 L4118 387 L4140 387 L4153 387 L4175 383 L4200 379 L4237 375 L4251 371 L4271 366 L4291 366 L4310 366 L4329 366 L4350 365 L4367 361 L4386 358 L4429 354 L4444 353 L4463 350 L4504 347 L4521 346 L4540 342 L4560 339 L4580 337 L4599 334 L4618 333 L4666 330 L4733 328 L4765 327 L4793 326 L4814 324 L4831 323 L4852 322 L4871 320 L4895 320 L4909 319 L4928 318 L4948 314 L4971 309 L4986 307 L5007 304 L5025 303 L5082 300 L5103 297 L5129 295 L5147 292 L5165 289 L5180 286 L5202 284 L5218 281 L5239 280 L5257 277 L5280 277 L5295 276 L5315 274 L5359 271 L5372 270 L5391 267 L5412 266 L5432 265 L5450 262 L5469 259 L5527 257 L5623 255 L5661 252 L5678 251 L5693 248 L5706 247 L5721 244 L5742 243 L5780 240 L5799 239 L5823 238 L5837 236 L5856 233 L5876 231 L5899 227 L5915 221 L5953 219 L5975 215 L5992 212 L6057 209 L6075 206 L6093 205 L6108 202 L6130 201 L6147 198 L6167 196 L6185 193 L6208 189 L6224 183 L6244 179 L6286 175 L6301 172 L6320 170 L6340 166 L6360 163 L6397 159 L6417 156 L6437 153 L6500 151" />
</svg>
