<svg xmlns="http://www.w3.org/2000/svg" version="1.1" viewBox="0 0 6500 1000">
	<path fill="none" stroke="gold" stroke-width="125" stroke-linecap="round" stroke-linejoin="round" d="M0 19430  L-149113 19430 L-148929 19401 L-148439 19344 L-148145 19315 L-147834 19258 L-147599 19229 L-147546 19172 L-147487 19115 L-147334 19086 L-147293 19029 L-147160 19000 L-146868 18971 L-146327 18971 L-145717 18943 L-145669 18943 L-145029 18914 L-144996 18914 L-144470 18914 L-144338 18885 L-143947 18828 L-143619 18771 L-143502 18714 L-143291 18656 L-142574 18656 L-142004 18628 L-141897 18628 L-141722 18599 L-141501 18542 L-141099 18513 L-141074 18456 L-140146 18399 L-140058 18341 L-139976 18284 L-139906 18227 L-139609 18198 L-139457 18141 L-137566 18169 L-137466 18169 L-137203 18169 L-136910 18198 L-136768 18141 L-136519 18141 L-136484 18112 L-136325 18083 L-135862 18026 L-135609 17997 L-135397 17940 L-135145 17912 L-134796 17883 L-133869 17826 L-133775 17768 L-133365 17740 L-132194 17682 L-131005 17654 L-130912 17596 L-130885 17539 L-130619 17482 L-130320 17425 L-130191 17367 L-130154 17310 L-129339 17310 L-128955 17339 L-127895 17367 L-127833 17367 L-127568 17940 L-127097 18484 L-126905 19029 L-126641 19573 L-126304 19544 L-126169 19516 L-125713 19487 L-124970 19458 L-124952 19430 L-124787 19372 L-124719 19372 L-124203 19344 L-123174 19344 L-122978 19315 L-122489 19287 L-122127 19258 L-121719 19258 L-121333 19287 L-119630 19287 L-119532 19287 L-119460 19287 L-119398 19287 L-119214 19258 L-118878 19258 L-118237 19229 L-118160 19201 L-118099 19201 L-117912 19172 L-117833 19172 L-117656 19143 L-117636 19115 L-117406 19115 L-117018 19086 L-116130 19086 L-116090 19057 L-116002 19029 L-115975 18971 L-114967 18943 L-114817 18885 L-114793 18857 L-114660 18828 L-114620 18800 L-113362 18771 L-113304 18771 L-112764 18742 L-112712 18742 L-112665 18742 L-112270 18714 L-112131 18685 L-111931 18656 L-111784 18656 L-111619 18656 L-111343 18685 L-110984 18685 L-110431 18656 L-109786 18628 L-109528 18570 L-109374 18542 L-108973 18513 L-108933 18484 L-108812 18456 L-108751 18484 L-108737 18484 L-108643 18484 L-108350 18456 L-108198 18341 L-107868 18284 L-107790 18227 L-107714 18198 L-107488 18112 L-107421 18055 L-107193 17997 L-107141 17940 L-106976 17912 L-105970 17883 L-105787 17854 L-105236 17826 L-104843 17768 L-104446 17740 L-103596 17682 L-103517 17654 L-102938 17625 L-102497 17625 L-102256 17596 L-102099 17596 L-101698 17539 L-101677 17539 L-101232 17511 L-100827 17482 L-100691 17425 L-100516 17367 L-100380 17310 L-100129 17253 L-99129 17224 L-99047 17195 L-98912 17167 L-98873 17138 L-97983 17109 L-97768 17081 L-97324 17052 L-97207 17024 L-97150 16995 L-96474 16995 L-96374 16966 L-96345 16966 L-95003 16938 L-94597 16909 L-94558 16880 L-93630 16852 L-93531 16823 L-93398 16794 L-92994 16766 L-92968 16737 L-92875 16708 L-92659 16680 L-92248 16623 L-91094 16565 L-90802 16508 L-90774 16451 L-90166 16422 L-89915 16365 L-89896 16336 L-88966 16307 L-88915 16250 L-88793 16221 L-88775 16164 L-88619 16136 L-88444 16078 L-88307 16050 L-88251 16021 L-88143 15992 L-88058 15964 L-87825 15935 L-87750 15906 L-87441 15878 L-87323 15849 L-87154 15820 L-87062 15792 L-86960 15792 L-86936 15763 L-86859 15763 L-86761 15706 L-86395 15677 L-86290 15649 L-85786 15620 L-85335 15591 L-85296 15563 L-85272 15534 L-85232 15505 L-85103 15477 L-85002 15448 L-84561 15419 L-84278 15391 L-83686 15362 L-83555 15334 L-83281 15276 L-83129 15248 L-82975 15219 L-82890 15162 L-82812 15133 L-82626 15104 L-82576 15104 L-82548 15076 L-82469 15047 L-82446 15018 L-82162 14961 L-81558 14904 L-80563 14875 L-80265 14847 L-79531 14818 L-79287 14789 L-79197 14761 L-78619 14732 L-77921 14703 L-77169 14675 L-76850 14646 L-76467 14589 L-76390 14560 L-75756 14531 L-75570 14503 L-75483 14503 L-75353 14503 L-75040 14474 L-74991 14446 L-74849 14417 L-74827 14388 L-73860 14360 L-73314 14331 L-72836 14331 L-72775 14331 L-72451 14331 L-72430 14302 L-72367 14302 L-72157 14274 L-72080 14245 L-72026 14216 L-72003 14188 L-71964 14159 L-71948 14130 L-71191 14102 L-71175 14073 L-70375 14044 L-70223 14016 L-69317 13987 L-68811 13959 L-68582 13901 L-68540 13901 L-68425 13873 L-68249 13844 L-67494 13873 L-67360 13844 L-67196 13815 L-66878 13787 L-66701 13729 L-65679 13672 L-65656 13615 L-65405 13586 L-65192 13529 L-64558 13500 L-64320 13443 L-64287 13386 L-64109 13328 L-64029 13271 L-63939 13242 L-63875 13185 L-63435 13128 L-63411 13099 L-62870 13071 L-62614 13042 L-62120 13013 L-61242 12985 L-61206 12956 L-61153 12927 L-61112 12899 L-60995 12870 L-60718 12841 L-60511 12784 L-60314 12727 L-60291 12670 L-60240 12612 L-60201 12584 L-60123 12555 L-59526 12498 L-59465 12469 L-59362 12440 L-59208 12412 L-58576 12383 L-57895 12354 L-57592 12297 L-57246 12268 L-57048 12240 L-57000 12183 L-56679 12154 L-56052 12125 L-55905 12097 L-55869 12068 L-55811 12039 L-55734 11982 L-55493 11982 L-55405 11953 L-55311 11925 L-55017 11896 L-54883 11867 L-54823 11839 L-54786 11782 L-54513 11782 L-53507 11753 L-53332 11724 L-53281 11724 L-52988 11696 L-52796 11638 L-52463 11610 L-51956 11581 L-51394 11524 L-51379 11466 L-51363 11438 L-51262 11380 L-51148 11323 L-51109 11266 L-51071 11237 L-51005 11237 L-50977 11209 L-50838 11237 L-50546 11237 L-50495 11237 L-50390 11237 L-50126 11209 L-49661 11180 L-49516 11180 L-49462 11123 L-49405 11094 L-49214 11065 L-48848 11037 L-48634 11037 L-48439 11037 L-48381 11037 L-48322 10979 L-48168 10951 L-47899 10922 L-47469 11065 L-47454 11065 L-47377 11037 L-47312 11008 L-47183 10808 L-47159 10779 L-46875 10750 L-46828 10722 L-46773 10693 L-46311 10664 L-46272 10664 L-46231 10636 L-46041 10607 L-45560 10578 L-45073 10550 L-45057 10521 L-45019 10492 L-44762 10464 L-44685 10407 L-44455 10378 L-44439 10321 L-44145 10263 L-43702 10235 L-43255 10206 L-42751 10177 L-42597 10149 L-42311 10120 L-42270 10063 L-41939 10034 L-41717 10006 L-41200 9948 L-41125 9920 L-40877 9862 L-40682 9805 L-40622 9776 L-39846 9748 L-39772 9748 L-39541 9719 L-39525 9719 L-39463 9690 L-39267 9662 L-38803 9662 L-38780 9633 L-38650 9633 L-37349 9633 L-37333 9633 L-37256 9604 L-37162 9604 L-36945 9604 L-36792 9576 L-36614 9604 L-36560 9633 L-36273 9662 L-36234 9662 L-35864 9662 L-35424 9662 L-35241 9662 L-34920 9633 L-34625 9633 L-34179 9576 L-34107 9547 L-33644 9490 L-33207 9461 L-33025 9433 L-31570 9375 L-31439 9347 L-30981 9289 L-30755 9261 L-30369 9203 L-29852 9146 L-28898 9089 L-28104 9032 L-27430 9003 L-27004 8946 L-26693 8917 L-26463 8831 L-25780 8745 L-25766 8659 L-25557 8545 L-25535 8516 L-25360 8459 L-24410 8430 L-24142 8373 L-23327 8344 L-23016 8287 L-22979 8258 L-22922 8201 L-22305 8172 L-21667 8115 L-20041 8086 L-19367 8058 L-18725 8058 L-18647 8058 L-18591 8058 L-18555 8058 L-18527 8029 L-18415 7972 L-18397 7943 L-18374 7914 L-18221 7886 L-18167 7828 L-18089 7800 L-17970 7771 L-17873 7743 L-17755 7714 L-17486 7657 L-17216 7628 L-17199 7571 L-16999 7542 L-16852 7485 L-16625 7456 L-16491 7427 L-16182 7399 L-16122 7370 L-15769 7313 L-15420 7284 L-15319 7256 L-15255 7198 L-15195 7170 L-14811 7112 L-14430 7084 L-14326 7055 L-14065 7026 L-13794 6969 L-13635 6940 L-13603 6912 L-13541 6883 L-13399 6855 L-13215 6826 L-13171 6797 L-12883 6797 L-12867 6769 L-12634 6769 L-12573 6740 L-12534 6740 L-11955 6711 L-11821 6683 L-11798 6568 L-11779 6368 L-11762 6138 L-11745 5909 L-11722 5680 L-11705 5508 L-11684 5308 L-11667 5107 L-11644 4993 L-11627 4878 L-11606 4792 L-11589 4735 L-11540 4649 L-11468 4563 L-11433 4420 L-11409 4305 L-11374 4191 L-11332 4076 L-11295 4019 L-11280 3904 L-11255 3818 L-11218 3761 L-11201 3675 L-11178 3618 L-11161 3560 L-11142 3503 L-11126 3446 L-11097 3360 L-11071 3274 L-11025 3245 L-11009 3188 L-10967 3159 L-10919 3102 L-10848 3045 L-10833 2987 L-10817 2930 L-10755 2902 L-10716 2873 L-10676 2844 L-10510 2816 L-10445 2787 L-10429 2758 L-10385 2701 L-10327 2672 L-10114 2644 L-10081 2615 L-10038 2586 L-9960 2558 L-9423 2529 L-9345 2501 L-9240 2443 L-9152 2415 L-8975 2386 L-8625 2357 L-8469 2329 L-8031 2300 L-7874 2271 L-7745 2243 L-7041 2185 L-6840 2157 L-5879 2099 L-5397 2071 L-5298 2071 L-5205 2042 L-4960 2014 L-4887 1985 L-4444 1928 L-4348 1899 L-4333 1870 L-4317 1842 L-4292 1813 L-3826 1784 L-3609 1756 L-3470 1727 L-3176 1698 L-3087 1670 L-3046 1641 L-3016 1613 L-2844 1584 L-2785 1555 L-2709 1527 L-2628 1498 L-2558 1498 L-2249 1469 L-2164 1441 L-1950 1412 L-1915 1383 L-1232 1355 L-1133 1326 L-928 1297 L-881 1269 L-603 1240 L-541 1211 L-524 1154 L-446 1126 L-137 1068 L-113 1040 L-59 982 L-36 954 L85 925 L221 868 L465 839 L591 839 L1237 810 L1253 810 L1278 810 L1459 753 L1535 725 L1626 696 L2054 667 L2470 639 L2863 581 L2942 553 L2961 524 L3324 495 L3560 467 L3789 438 L4102 409 L4180 381 L4260 323 L4438 266 L4454 238 L4720 180 L4800 152 L5030 123 L5256 94 L5571 94 L5747 66 L6108 66 L6500 37" />
</svg>
