<svg xmlns="http://www.w3.org/2000/svg" version="1.1" viewBox="0 0 6500 1000">
	<path fill="none" stroke="gold" stroke-width="125" stroke-linecap="round" stroke-linejoin="round" d="M0 3934  L-1322708 3934 L-1322524 3934 L-1322034 3934 L-1321740 3934 L-1321429 3934 L-1321194 3934 L-1321141 3934 L-1321082 3934 L-1320929 3934 L-1320888 3934 L-1320755 3934 L-1320463 3934 L-1319922 3934 L-1319312 3934 L-1319264 3934 L-1318624 3934 L-1318591 3934 L-1318065 3934 L-1317933 3934 L-1317542 3934 L-1317214 3934 L-1317097 3934 L-1316886 3934 L-1316169 3934 L-1315599 3934 L-1315492 3934 L-1315317 3934 L-1315096 3934 L-1314694 3934 L-1314669 3934 L-1313741 3934 L-1313653 3934 L-1313571 3934 L-1313501 3934 L-1313203 3934 L-1313051 3934 L-1311161 3934 L-1311060 3934 L-1310798 3934 L-1310505 3934 L-1310363 3934 L-1310114 3934 L-1310079 3934 L-1309920 3933 L-1309457 3933 L-1309204 3933 L-1308992 3933 L-1308740 3933 L-1308391 3933 L-1307464 3933 L-1307370 3933 L-1306959 3933 L-1305789 3933 L-1304600 3933 L-1304507 3933 L-1304480 3933 L-1304214 3933 L-1303915 3933 L-1303786 3933 L-1303749 3933 L-1302934 3933 L-1302550 3933 L-1301490 3933 L-1301428 3933 L-1301163 3933 L-1300692 3934 L-1300500 3934 L-1300236 3934 L-1299899 3934 L-1299764 3934 L-1299308 3934 L-1298565 3934 L-1298547 3934 L-1298382 3934 L-1298314 3934 L-1297798 3934 L-1296769 3934 L-1296573 3934 L-1296084 3934 L-1295722 3934 L-1295314 3934 L-1294928 3934 L-1293224 3934 L-1293126 3934 L-1293055 3934 L-1292993 3934 L-1292809 3934 L-1292472 3934 L-1291832 3934 L-1291755 3934 L-1291694 3934 L-1291507 3934 L-1291428 3934 L-1291250 3934 L-1291231 3934 L-1291001 3934 L-1290613 3934 L-1289725 3934 L-1289685 3934 L-1289597 3934 L-1289570 3934 L-1288562 3934 L-1288412 3934 L-1288388 3934 L-1288255 3934 L-1288215 3934 L-1286957 3934 L-1286899 3934 L-1286359 3934 L-1286307 3934 L-1286260 3934 L-1285865 3934 L-1285725 3934 L-1285526 3934 L-1285379 3934 L-1285214 3934 L-1284938 3934 L-1284579 3934 L-1284026 3934 L-1283381 3934 L-1283123 3934 L-1282969 3934 L-1282568 3934 L-1282528 3934 L-1282407 3934 L-1282345 3934 L-1282331 3934 L-1282238 3934 L-1281945 3934 L-1281793 3934 L-1281463 3934 L-1281385 3934 L-1281309 3934 L-1281083 3934 L-1281016 3933 L-1280788 3933 L-1280736 3933 L-1280571 3933 L-1279565 3933 L-1279382 3933 L-1278831 3933 L-1278438 3933 L-1278041 3933 L-1277190 3933 L-1277112 3933 L-1276533 3933 L-1276092 3933 L-1275851 3933 L-1275694 3933 L-1275293 3933 L-1275272 3933 L-1274827 3933 L-1274422 3933 L-1274286 3933 L-1274111 3933 L-1273975 3933 L-1273724 3933 L-1272724 3933 L-1272642 3933 L-1272507 3933 L-1272468 3933 L-1271578 3933 L-1271363 3933 L-1270919 3933 L-1270802 3933 L-1270745 3933 L-1270069 3933 L-1269969 3933 L-1269940 3933 L-1268598 3933 L-1268192 3933 L-1268153 3933 L-1267224 3933 L-1267126 3933 L-1266993 3933 L-1266589 3933 L-1266563 3933 L-1266470 3933 L-1266254 3933 L-1265843 3933 L-1264689 3933 L-1264397 3933 L-1264369 3932 L-1263761 3932 L-1263510 3932 L-1263491 3932 L-1262561 3932 L-1262510 3932 L-1262388 3932 L-1262370 3932 L-1262214 3932 L-1262039 3932 L-1261902 3932 L-1261846 3932 L-1261738 3932 L-1261653 3932 L-1261419 3932 L-1261345 3932 L-1261036 3932 L-1260918 3932 L-1260748 3932 L-1260657 3932 L-1260555 3932 L-1260531 3932 L-1260454 3932 L-1260356 3932 L-1259990 3932 L-1259885 3932 L-1259381 3932 L-1258930 3932 L-1258891 3932 L-1258867 3932 L-1258827 3932 L-1258698 3932 L-1258597 3932 L-1258155 3932 L-1257873 3932 L-1257281 3932 L-1257150 3932 L-1256876 3932 L-1256724 3932 L-1256570 3932 L-1256485 3932 L-1256407 3932 L-1256221 3932 L-1256171 3932 L-1256143 3932 L-1256064 3932 L-1256040 3932 L-1255757 3932 L-1255153 3932 L-1254158 3931 L-1253860 3931 L-1253126 3931 L-1252882 3931 L-1252792 3931 L-1252214 3931 L-1251516 3931 L-1250764 3931 L-1250445 3931 L-1250062 3931 L-1249985 3931 L-1249351 3931 L-1249165 3931 L-1249078 3931 L-1248948 3931 L-1248635 3931 L-1248586 3931 L-1248444 3931 L-1248422 3931 L-1247455 3931 L-1246909 3931 L-1246431 3931 L-1246370 3931 L-1246046 3931 L-1246025 3931 L-1245962 3931 L-1245752 3931 L-1245675 3931 L-1245621 3931 L-1245598 3931 L-1245559 3931 L-1245543 3931 L-1244786 3931 L-1244769 3931 L-1243970 3931 L-1243818 3931 L-1242912 3931 L-1242406 3931 L-1242177 3931 L-1242135 3931 L-1242020 3931 L-1241844 3931 L-1241089 3931 L-1240955 3931 L-1240791 3931 L-1240472 3931 L-1240296 3931 L-1239274 3931 L-1239251 3931 L-1239000 3931 L-1238787 3931 L-1238153 3931 L-1237915 3931 L-1237882 3931 L-1237704 3931 L-1237624 3930 L-1237534 3930 L-1237470 3930 L-1237029 3930 L-1237006 3930 L-1236465 3930 L-1236209 3930 L-1235715 3930 L-1234837 3930 L-1234800 3930 L-1234748 3930 L-1234707 3930 L-1234589 3930 L-1234313 3930 L-1234106 3930 L-1233909 3930 L-1233886 3930 L-1233835 3930 L-1233796 3930 L-1233718 3930 L-1233121 3930 L-1233060 3930 L-1232957 3930 L-1232803 3930 L-1232171 3930 L-1231490 3930 L-1231187 3930 L-1230841 3930 L-1230643 3930 L-1230595 3930 L-1230274 3930 L-1229647 3930 L-1229500 3930 L-1229464 3930 L-1229406 3930 L-1229329 3930 L-1229088 3930 L-1229000 3930 L-1228906 3930 L-1228612 3930 L-1228478 3930 L-1228417 3930 L-1228381 3930 L-1228108 3930 L-1227102 3930 L-1226927 3930 L-1226876 3930 L-1226583 3930 L-1226391 3929 L-1226058 3929 L-1225551 3929 L-1224989 3929 L-1224974 3929 L-1224958 3929 L-1224857 3929 L-1224743 3929 L-1224704 3929 L-1224666 3929 L-1224600 3929 L-1224572 3929 L-1224433 3929 L-1224140 3929 L-1224090 3929 L-1223985 3929 L-1223721 3929 L-1223256 3929 L-1223111 3929 L-1223057 3929 L-1223000 3929 L-1222809 3929 L-1222443 3929 L-1222229 3929 L-1222034 3929 L-1221976 3929 L-1221917 3929 L-1221763 3929 L-1221494 3929 L-1221064 3929 L-1221049 3929 L-1220972 3929 L-1220907 3929 L-1220778 3929 L-1220754 3929 L-1220470 3929 L-1220422 3929 L-1220368 3929 L-1219905 3929 L-1219867 3929 L-1219826 3929 L-1219636 3929 L-1219155 3929 L-1218668 3929 L-1218652 3929 L-1218614 3929 L-1218357 3929 L-1218280 3929 L-1218050 3929 L-1218034 3929 L-1217740 3929 L-1217297 3929 L-1216850 3929 L-1216346 3929 L-1216192 3929 L-1215905 3929 L-1215865 3928 L-1215534 3928 L-1215312 3928 L-1214795 3928 L-1214719 3928 L-1214472 3928 L-1214277 3928 L-1214217 3928 L-1213441 3928 L-1213367 3928 L-1213136 3928 L-1213120 3928 L-1213058 3928 L-1212862 3928 L-1212398 3928 L-1212375 3928 L-1212245 3928 L-1210944 3928 L-1210928 3928 L-1210851 3928 L-1210757 3928 L-1210540 3928 L-1210387 3928 L-1210209 3928 L-1210155 3928 L-1209868 3928 L-1209828 3928 L-1209459 3928 L-1209019 3928 L-1208836 3928 L-1208515 3928 L-1208219 3928 L-1207773 3928 L-1207702 3928 L-1207239 3928 L-1206802 3928 L-1206619 3928 L-1205165 3928 L-1205033 3928 L-1204576 3928 L-1204350 3928 L-1203964 3928 L-1203447 3928 L-1202493 3928 L-1201699 3928 L-1201024 3928 L-1200599 3928 L-1200288 3928 L-1200058 3928 L-1199375 3928 L-1199361 3928 L-1199152 3928 L-1199130 3928 L-1198955 3927 L-1198005 3927 L-1197737 3927 L-1196922 3927 L-1196611 3927 L-1196574 3927 L-1196516 3927 L-1195900 3927 L-1195262 3927 L-1193636 3927 L-1192962 3927 L-1192320 3927 L-1192242 3927 L-1192186 3927 L-1192150 3927 L-1192122 3927 L-1192010 3927 L-1191992 3927 L-1191969 3927 L-1191816 3927 L-1191762 3927 L-1191684 3927 L-1191565 3927 L-1191467 3927 L-1191350 3927 L-1191081 3927 L-1190811 3927 L-1190793 3927 L-1190594 3927 L-1190447 3927 L-1190220 3927 L-1190086 3927 L-1189777 3927 L-1189717 3927 L-1189364 3927 L-1189015 3927 L-1188914 3927 L-1188850 3927 L-1188790 3927 L-1188406 3927 L-1188025 3927 L-1187921 3927 L-1187660 3927 L-1187389 3927 L-1187230 3927 L-1187198 3927 L-1187136 3927 L-1186994 3926 L-1186810 3926 L-1186766 3926 L-1186478 3926 L-1186462 3926 L-1186228 3926 L-1186168 3926 L-1186129 3926 L-1185549 3926 L-1185416 3926 L-1185392 3926 L-1185374 3926 L-1185357 3926 L-1185340 3926 L-1185316 3926 L-1185300 3926 L-1185279 3926 L-1185262 3925 L-1185239 3925 L-1185222 3925 L-1185201 3925 L-1185184 3925 L-1185135 3925 L-1185063 3925 L-1185028 3925 L-1185004 3925 L-1184969 3925 L-1184927 3925 L-1184890 3925 L-1184874 3925 L-1184850 3925 L-1184813 3925 L-1184796 3925 L-1184773 3924 L-1184755 3924 L-1184737 3924 L-1184721 3924 L-1184692 3924 L-1184666 3924 L-1184620 3924 L-1184604 3924 L-1184562 3924 L-1184514 3924 L-1184443 3924 L-1184428 3924 L-1184412 3924 L-1184350 3924 L-1184310 3924 L-1184271 3924 L-1184105 3924 L-1184040 3924 L-1184024 3924 L-1183980 3924 L-1183921 3924 L-1183709 3924 L-1183675 3924 L-1183633 3924 L-1183555 3924 L-1183018 3924 L-1182939 3924 L-1182835 3924 L-1182747 3924 L-1182570 3924 L-1182220 3924 L-1182064 3924 L-1181626 3924 L-1181469 3924 L-1181340 3924 L-1180636 3924 L-1180435 3924 L-1179474 3924 L-1178992 3924 L-1178892 3924 L-1178800 3923 L-1178555 3923 L-1178482 3923 L-1178039 3923 L-1177943 3923 L-1177928 3923 L-1177912 3923 L-1177887 3923 L-1177421 3923 L-1177204 3923 L-1177065 3923 L-1176771 3923 L-1176682 3923 L-1176641 3923 L-1176611 3923 L-1176439 3923 L-1176380 3923 L-1176304 3923 L-1176223 3923 L-1176153 3923 L-1175844 3923 L-1175759 3923 L-1175545 3923 L-1175510 3923 L-1174826 3923 L-1174728 3923 L-1174523 3923 L-1174476 3923 L-1174198 3923 L-1174136 3923 L-1174118 3923 L-1174040 3923 L-1173732 3923 L-1173708 3923 L-1173654 3923 L-1173631 3923 L-1173509 3923 L-1173373 3923 L-1173129 3923 L-1173003 3923 L-1172356 3923 L-1172340 3923 L-1172316 3923 L-1172135 3923 L-1172059 3923 L-1171968 3923 L-1171540 3923 L-1171124 3923 L-1170731 3923 L-1170652 3923 L-1170633 3923 L-1170270 3923 L-1170034 3923 L-1169805 3922 L-1169492 3922 L-1169414 3922 L-1169334 3922 L-1169155 3922 L-1169140 3922 L-1168874 3922 L-1168794 3922 L-1168564 3922 L-1168338 3922 L-1168022 3922 L-1167847 3922 L-1167486 3922 L-1167094 3922 L-1167025 3922 L-1166961 3922 L-1166821 3922 L-1166769 3922 L-1166668 3922 L-1166166 3922 L-1165968 3922 L-1165722 3922 L-1165536 3922 L-1165237 3922 L-1165160 3922 L-1164994 3922 L-1164110 3922 L-1164081 3922 L-1163958 3922 L-1163380 3922 L-1163302 3922 L-1162589 3922 L-1162277 3922 L-1162063 3922 L-1162047 3922 L-1161660 3922 L-1161135 3922 L-1160689 3922 L-1160359 3922 L-1160207 3922 L-1159881 3922 L-1159702 3922 L-1159621 3922 L-1159415 3922 L-1159239 3922 L-1158310 3922 L-1157421 3922 L-1157382 3922 L-1157154 3922 L-1156775 3922 L-1155987 3922 L-1155753 3922 L-1155677 3922 L-1155319 3922 L-1154748 3921 L-1154481 3921 L-1154094 3921 L-1153990 3921 L-1153820 3921 L-1153202 3921 L-1152991 3921 L-1152683 3921 L-1152630 3921 L-1152502 3921 L-1152449 3921 L-1152330 3921 L-1151994 3921 L-1151034 3921 L-1150903 3921 L-1150701 3921 L-1150070 3921 L-1149759 3921 L-1149345 3921 L-1149317 3921 L-1149172 3921 L-1148752 3921 L-1147419 3921 L-1147373 3921 L-1147244 3921 L-1147227 3921 L-1146649 3921 L-1146444 3921 L-1146414 3921 L-1146373 3921 L-1146316 3921 L-1146278 3921 L-1146200 3921 L-1146057 3921 L-1145603 3921 L-1145484 3921 L-1145199 3921 L-1144826 3921 L-1144730 3921 L-1144403 3921 L-1144049 3921 L-1143879 3921 L-1143832 3921 L-1143723 3921 L-1143634 3921 L-1143606 3921 L-1143529 3921 L-1143226 3921 L-1143192 3921 L-1143121 3921 L-1142753 3921 L-1142417 3921 L-1142336 3921 L-1142117 3921 L-1141945 3921 L-1141918 3921 L-1141420 3921 L-1140871 3920 L-1139991 3920 L-1139892 3920 L-1139815 3920 L-1139541 3920 L-1139293 3920 L-1139220 3920 L-1139158 3920 L-1139039 3920 L-1138997 3920 L-1138887 3920 L-1138810 3920 L-1138109 3920 L-1137864 3920 L-1137824 3920 L-1137668 3920 L-1137068 3920 L-1136841 3920 L-1136749 3920 L-1136274 3920 L-1135677 3920 L-1135157 3920 L-1135136 3920 L-1134991 3920 L-1134671 3920 L-1134129 3920 L-1133897 3920 L-1133726 3920 L-1133240 3920 L-1133012 3920 L-1132927 3920 L-1132581 3920 L-1132255 3920 L-1131732 3920 L-1131405 3920 L-1130804 3920 L-1130607 3920 L-1130555 3920 L-1130514 3920 L-1130233 3920 L-1129549 3920 L-1129238 3920 L-1129214 3920 L-1129022 3920 L-1128800 3920 L-1128714 3920 L-1128050 3920 L-1128026 3920 L-1127804 3920 L-1127474 3920 L-1127122 3920 L-1126917 3920 L-1126684 3919 L-1126427 3919 L-1126237 3919 L-1126190 3919 L-1125963 3919 L-1125928 3919 L-1125772 3919 L-1125557 3919 L-1125384 3919 L-1125293 3919 L-1125016 3919 L-1124772 3919 L-1124456 3919 L-1124030 3919 L-1123993 3919 L-1123509 3919 L-1123276 3919 L-1123064 3919 L-1122838 3919 L-1122288 3919 L-1122041 3919 L-1121207 3919 L-1121151 3919 L-1121130 3919 L-1120972 3919 L-1120510 3919 L-1120469 3919 L-1120129 3919 L-1119996 3919 L-1119773 3919 L-1119201 3919 L-1118729 3919 L-1118535 3919 L-1118342 3919 L-1118152 3919 L-1118051 3919 L-1117682 3919 L-1117636 3919 L-1117555 3919 L-1116261 3919 L-1116213 3919 L-1115945 3919 L-1115799 3919 L-1115249 3919 L-1115132 3919 L-1115050 3919 L-1114691 3919 L-1114467 3919 L-1114186 3919 L-1113857 3919 L-1113349 3919 L-1113236 3919 L-1113158 3919 L-1112993 3919 L-1112699 3919 L-1112230 3919 L-1112034 3919 L-1111983 3919 L-1111333 3919 L-1111211 3919 L-1110757 3919 L-1110721 3919 L-1110253 3919 L-1110142 3919 L-1110126 3919 L-1109910 3919 L-1109729 3919 L-1109198 3919 L-1108168 3919 L-1107968 3919 L-1107510 3919 L-1106562 3918 L-1106463 3918 L-1106109 3918 L-1106049 3918 L-1106034 3918 L-1105999 3918 L-1105629 3918 L-1105509 3918 L-1105267 3918 L-1105104 3918 L-1104916 3918 L-1104796 3918 L-1103725 3918 L-1102867 3918 L-1102654 3918 L-1102557 3918 L-1102383 3918 L-1102050 3918 L-1101978 3918 L-1101921 3918 L-1101745 3918 L-1101356 3918 L-1101121 3918 L-1101010 3918 L-1100893 3918 L-1099912 3918 L-1099886 3918 L-1099292 3918 L-1099259 3918 L-1099111 3918 L-1098826 3918 L-1097915 3918 L-1096968 3918 L-1096815 3918 L-1096713 3918 L-1096581 3918 L-1096438 3918 L-1096412 3918 L-1096298 3918 L-1096079 3918 L-1095398 3918 L-1095269 3918 L-1094965 3918 L-1094725 3918 L-1094393 3918 L-1093754 3918 L-1093412 3918 L-1093350 3918 L-1093194 3918 L-1092273 3918 L-1091802 3918 L-1091759 3918 L-1091746 3918 L-1091704 3918 L-1091682 3918 L-1091656 3918 L-1091512 3918 L-1091089 3917 L-1090754 3917 L-1090563 3917 L-1090134 3917 L-1089946 3917 L-1089557 3917 L-1089023 3917 L-1088650 3917 L-1088629 3917 L-1088379 3917 L-1088261 3917 L-1088185 3917 L-1088049 3917 L-1088010 3917 L-1087930 3917 L-1087535 3917 L-1087039 3917 L-1086928 3917 L-1086754 3917 L-1086446 3917 L-1085999 3917 L-1085676 3917 L-1085533 3917 L-1085106 3917 L-1084953 3917 L-1084898 3917 L-1084084 3917 L-1084064 3917 L-1083692 3917 L-1083636 3917 L-1082506 3917 L-1082439 3917 L-1081880 3917 L-1081686 3917 L-1081549 3917 L-1081316 3917 L-1080969 3917 L-1080934 3917 L-1080899 3917 L-1080831 3917 L-1080482 3917 L-1080310 3917 L-1079825 3917 L-1079808 3917 L-1079483 3917 L-1079326 3917 L-1078185 3917 L-1078160 3917 L-1077968 3917 L-1077775 3917 L-1077525 3917 L-1077507 3916 L-1076487 3916 L-1076190 3916 L-1076114 3916 L-1075978 3916 L-1075802 3916 L-1075226 3916 L-1075010 3916 L-1074946 3916 L-1074815 3916 L-1074779 3916 L-1074255 3916 L-1074117 3923 L-1074103 3923 L-1074080 3923 L-1074060 3923 L-1073833 3916 L-1073057 3916 L-1073015 3916 L-1072648 3916 L-1072569 3916 L-1072517 3916 L-1071844 3916 L-1071102 3916 L-1070677 3916 L-1070229 3916 L-1069168 3916 L-1068856 3916 L-1068446 3916 L-1068374 3916 L-1067850 3916 L-1067755 3916 L-1067737 3916 L-1067292 3916 L-1067107 3916 L-1066327 3916 L-1065654 3916 L-1065242 3916 L-1065010 3916 L-1064870 3916 L-1064788 3916 L-1064768 3916 L-1064692 3916 L-1064564 3916 L-1064247 3916 L-1064022 3916 L-1063697 3916 L-1063635 3916 L-1063265 3916 L-1063232 3916 L-1063023 3916 L-1062356 3916 L-1062279 3916 L-1062121 3916 L-1062010 3916 L-1061683 3916 L-1061529 3916 L-1061188 3916 L-1061131 3916 L-1060792 3916 L-1060589 3916 L-1060536 3916 L-1059160 3916 L-1059030 3916 L-1058596 3916 L-1058276 3916 L-1057448 3915 L-1057325 3915 L-1056594 3915 L-1056438 3915 L-1056397 3915 L-1056344 3915 L-1056321 3915 L-1056206 3915 L-1055910 3915 L-1055620 3915 L-1055566 3915 L-1055445 3915 L-1055415 3915 L-1055315 3915 L-1054871 3915 L-1054720 3915 L-1053884 3915 L-1053342 3915 L-1053008 3915 L-1052992 3915 L-1052916 3915 L-1052800 3915 L-1052606 3915 L-1052341 3915 L-1051507 3915 L-1051410 3915 L-1050889 3915 L-1050847 3915 L-1050748 3915 L-1049920 3915 L-1049785 3915 L-1049446 3915 L-1048892 3915 L-1048512 3915 L-1048349 3915 L-1048039 3915 L-1047227 3915 L-1046921 3915 L-1046652 3915 L-1046331 3915 L-1046010 3915 L-1045734 3915 L-1044906 3915 L-1044810 3915 L-1044718 3915 L-1044614 3915 L-1044227 3915 L-1043747 3915 L-1043730 3915 L-1043612 3915 L-1043244 3915 L-1043149 3915 L-1042315 3915 L-1042238 3914 L-1041938 3914 L-1041848 3914 L-1041440 3914 L-1041330 3914 L-1040631 3914 L-1040158 3914 L-1040098 3914 L-1039879 3914 L-1039605 3914 L-1039492 3914 L-1038465 3914 L-1038078 3914 L-1038058 3914 L-1037725 3914 L-1037481 3914 L-1037047 3914 L-1036937 3914 L-1036820 3914 L-1036368 3914 L-1035778 3914 L-1035441 3914 L-1033548 3914 L-1033435 3914 L-1033223 3914 L-1031904 3914 L-1031798 3910 L-1031732 3906 L-1031696 3902 L-1031634 3902 L-1031134 3906 L-1030459 3910 L-1030437 3914 L-1030167 3914 L-1029199 3914 L-1028510 3914 L-1028348 3914 L-1027807 3914 L-1027717 3914 L-1026698 3914 L-1025750 3914 L-1025385 3914 L-1025282 3914 L-1024693 3914 L-1024634 3914 L-1024534 3914 L-1024093 3914 L-1023986 3914 L-1023544 3914 L-1022544 3914 L-1022288 3914 L-1022185 3913 L-1022055 3913 L-1021688 3913 L-1021107 3913 L-1021077 3913 L-1020761 3913 L-1018778 3913 L-1018662 3913 L-1018595 3913 L-1018236 3913 L-1016617 3913 L-1016440 3913 L-1016295 3913 L-1015473 3913 L-1015420 3913 L-1015366 3913 L-1014932 3913 L-1013951 3913 L-1013877 3913 L-1012793 3913 L-1012579 3913 L-1011863 3913 L-1011475 3913 L-1011256 3913 L-1010937 3913 L-1010443 3913 L-1010315 3913 L-1010086 3913 L-1009854 3913 L-1009795 3913 L-1009505 3913 L-1009233 3913 L-1008203 3913 L-1006538 3913 L-1006119 3913 L-1005982 3913 L-1005825 3913 L-1005520 3913 L-1005292 3913 L-1005134 3913 L-1004974 3913 L-1004805 3913 L-1004758 3913 L-1004705 3913 L-1004683 3913 L-1004297 3913 L-1004047 3913 L-1003777 3913 L-1003616 3913 L-1003526 3913 L-1001867 3913 L-1001702 3913 L-1001322 3913 L-1000862 3913 L-1000253 3913 L-999160 3913 L-998728 3913 L-998697 3913 L-998635 3913 L-998617 3913 L-996913 3913 L-996872 3913 L-996405 3913 L-996218 3913 L-996186 3912 L-995591 3912 L-995541 3912 L-995218 3912 L-995168 3912 L-994957 3912 L-994939 3912 L-994673 3912 L-994620 3912 L-994151 3912 L-993641 3912 L-993562 3912 L-993268 3912 L-993252 3912 L-993213 3912 L-993142 3912 L-992985 3912 L-992038 3912 L-991982 3912 L-991461 3912 L-991269 3912 L-991168 3912 L-990942 3912 L-990432 3912 L-990044 3913 L-989975 3913 L-989626 3913 L-989269 3913 L-988141 3912 L-988089 3912 L-987863 3912 L-987829 3912 L-987704 3912 L-987605 3912 L-987341 3912 L-986600 3912 L-986022 3912 L-985728 3912 L-985023 3912 L-984844 3912 L-984821 3912 L-984185 3912 L-983873 3912 L-983477 3912 L-983447 3912 L-983426 3912 L-983273 3912 L-982587 3912 L-982571 3912 L-982231 3912 L-981959 3912 L-981921 3912 L-981865 3912 L-981843 3912 L-981771 3912 L-981439 3912 L-981333 3912 L-981304 3912 L-981106 3912 L-980953 3912 L-980085 3912 L-979523 3912 L-979507 3912 L-979406 3912 L-979303 3912 L-979157 3912 L-979079 3912 L-979041 3912 L-978985 3912 L-978912 3912 L-978767 3912 L-978285 3912 L-977881 3912 L-977014 3912 L-976994 3912 L-976737 3912 L-976660 3912 L-976631 3912 L-976621 3911 L-976604 3911 L-976311 3911 L-976271 3911 L-976199 3911 L-976125 3911 L-975920 3911 L-975761 3911 L-975459 3911 L-975382 3911 L-975365 3911 L-975148 3911 L-974917 3911 L-974807 3911 L-974437 3911 L-974279 3911 L-974048 3911 L-973879 3911 L-973734 3911 L-973602 3911 L-972326 3911 L-971923 3911 L-971862 3911 L-971745 3911 L-971320 3911 L-971305 3911 L-971243 3911 L-970970 3911 L-970857 3911 L-970575 3911 L-970297 3911 L-969872 3911 L-969850 3911 L-969772 3911 L-969646 3911 L-969060 3911 L-968668 3911 L-968333 3911 L-967744 3911 L-967642 3911 L-967471 3911 L-967335 3911 L-966507 3911 L-965322 3911 L-965286 3911 L-965230 3911 L-965010 3911 L-964805 3911 L-964650 3911 L-964393 3911 L-964317 3911 L-963774 3911 L-963738 3910 L-963489 3910 L-963102 3910 L-962276 3910 L-961918 3910 L-961607 3910 L-961349 3910 L-961126 3910 L-960719 3910 L-960603 3910 L-960420 3910 L-960366 3910 L-960178 3910 L-960007 3910 L-959978 3910 L-959698 3910 L-959388 3910 L-959249 3910 L-958940 3910 L-958746 3910 L-958731 3910 L-958011 3910 L-957877 3910 L-957580 3910 L-957489 3910 L-956889 3910 L-956850 3910 L-956772 3910 L-956152 3910 L-956000 3910 L-955959 3910 L-955649 3910 L-955457 3910 L-955264 3910 L-955208 3910 L-954900 3910 L-954847 3910 L-954793 3910 L-954767 3910 L-954642 3910 L-953832 3910 L-953755 3910 L-953215 3910 L-952946 3910 L-952286 3910 L-951379 3910 L-951138 3910 L-950605 3910 L-950388 3910 L-949281 3910 L-949230 3910 L-948455 3910 L-947907 3910 L-947796 3910 L-947643 3910 L-947588 3910 L-947422 3910 L-947045 3910 L-946598 3910 L-946543 3910 L-946388 3910 L-945709 3910 L-945488 3910 L-944970 3910 L-944122 3909 L-944106 3909 L-942315 3909 L-941760 3909 L-941643 3909 L-940637 3909 L-940601 3909 L-940368 3909 L-940275 3909 L-940235 3909 L-939903 3909 L-939551 3909 L-939286 3909 L-939000 3909 L-938689 3909 L-938435 3909 L-938341 3909 L-937851 3909 L-937644 3909 L-937078 3909 L-936964 3909 L-936612 3909 L-936561 3909 L-936521 3909 L-935918 3909 L-935184 3909 L-934602 3909 L-934367 3909 L-933827 3909 L-933674 3909 L-933172 3909 L-932963 3909 L-932940 3909 L-932881 3909 L-931918 3909 L-931741 3909 L-931299 3909 L-931274 3909 L-931119 3909 L-931038 3909 L-930887 3909 L-930241 3909 L-930191 3909 L-929071 3909 L-928087 3909 L-928025 3909 L-927305 3909 L-926440 3909 L-926061 3909 L-925842 3909 L-925083 3909 L-925031 3909 L-924721 3909 L-923870 3909 L-923677 3909 L-923500 3909 L-923276 3909 L-923149 3909 L-922957 3909 L-922725 3908 L-922555 3909 L-922269 3908 L-921989 3908 L-921906 3908 L-921736 3908 L-921719 3908 L-921565 3908 L-921526 3908 L-920750 3908 L-920674 3908 L-920442 3908 L-920015 3908 L-919669 3908 L-919086 3908 L-918817 3908 L-918558 3908 L-918429 3908 L-918413 3908 L-918299 3908 L-918275 3908 L-918041 3908 L-918005 3908 L-916689 3908 L-916633 3908 L-915954 3908 L-915382 3908 L-915256 3908 L-915103 3908 L-915026 3908 L-914714 3908 L-914441 3908 L-914352 3908 L-914250 3908 L-913322 3908 L-913246 3908 L-912882 3908 L-912858 3908 L-912821 3908 L-912046 3908 L-911954 3908 L-911814 3908 L-911412 3908 L-911151 3908 L-910907 3908 L-910693 3908 L-910612 3908 L-910536 3908 L-910460 3908 L-910273 3908 L-910206 3908 L-909957 3908 L-909902 3908 L-909764 3908 L-909684 3908 L-909571 3908 L-909348 3908 L-909184 3908 L-909143 3908 L-908973 3908 L-908602 3908 L-908588 3908 L-908472 3908 L-907750 3908 L-907714 3908 L-907582 3908 L-907234 3908 L-906822 3908 L-906786 3908 L-906708 3908 L-906669 3908 L-906305 3908 L-906101 3908 L-906086 3908 L-905740 3908 L-905392 3908 L-905066 3908 L-904964 3907 L-904812 3907 L-904617 3907 L-904386 3907 L-904293 3907 L-904138 3907 L-904060 3907 L-904020 3907 L-903906 3907 L-903883 3907 L-903632 3907 L-903493 3907 L-902915 3907 L-902087 3907 L-901599 3907 L-901478 3907 L-901440 3907 L-901427 3907 L-901275 3907 L-901174 3907 L-900941 3907 L-900550 3907 L-900246 3907 L-900230 3907 L-900060 3907 L-899821 3907 L-899225 3907 L-898621 3907 L-898581 3907 L-898541 3907 L-898388 3907 L-898335 3907 L-898272 3907 L-898204 3907 L-898149 3907 L-898124 3907 L-898077 3907 L-897983 3907 L-897846 3907 L-897692 3907 L-897560 3907 L-897519 3907 L-897484 3907 L-897422 3907 L-897149 3907 L-896834 3907 L-896793 3907 L-896708 3907 L-896531 3907 L-896293 3907 L-895936 3907 L-895906 3907 L-895337 3907 L-895214 3906 L-894978 3906 L-894955 3906 L-894674 3906 L-894388 3906 L-894133 3906 L-893561 3906 L-893264 3906 L-893188 3906 L-892489 3906 L-892411 3906 L-892376 3906 L-892350 3906 L-892298 3906 L-892105 3906 L-891964 3906 L-891929 3906 L-891888 3906 L-891293 3906 L-891061 3906 L-890777 3906 L-890723 3906 L-890649 3907 L-890571 3907 L-890334 3907 L-890090 3907 L-889955 3907 L-889848 3907 L-889769 3907 L-889382 3906 L-889255 3906 L-889102 3906 L-889064 3906 L-888919 3906 L-888697 3906 L-888523 3906 L-888454 3906 L-887633 3906 L-887617 3906 L-887322 3906 L-886534 3906 L-886224 3906 L-886078 3906 L-885850 3906 L-885649 3906 L-884712 3906 L-884676 3906 L-884653 3906 L-884612 3906 L-884344 3906 L-883747 3906 L-883683 3906 L-883648 3906 L-883631 3906 L-882936 3906 L-882734 3906 L-882702 3906 L-882369 3906 L-882261 3906 L-881637 3906 L-881132 3906 L-881095 3906 L-880653 3906 L-880557 3906 L-880398 3906 L-880085 3906 L-880073 3906 L-879632 3906 L-879151 3906 L-879021 3906 L-878701 3906 L-878633 3906 L-878329 3906 L-878153 3906 L-877959 3906 L-877716 3906 L-877519 3906 L-877493 3906 L-876915 3906 L-876845 3906 L-876436 3906 L-876381 3906 L-876335 3906 L-875971 3906 L-875825 3906 L-875619 3906 L-875523 3906 L-875368 3906 L-875307 3906 L-875159 3906 L-875058 3906 L-874502 3906 L-874479 3906 L-874307 3906 L-873765 3906 L-873704 3906 L-873650 3906 L-873622 3906 L-873551 3906 L-873534 3906 L-873471 3905 L-873434 3905 L-873280 3905 L-872954 3905 L-872388 3905 L-872373 3905 L-872311 3905 L-872210 3905 L-872164 3905 L-871921 3905 L-871499 3905 L-871344 3905 L-869602 3905 L-869061 3905 L-868117 3905 L-867708 3905 L-867167 3905 L-866971 3905 L-866802 3905 L-866506 3905 L-866392 3905 L-866376 3905 L-866222 3905 L-866082 3905 L-866005 3905 L-865873 3905 L-865525 3905 L-865155 3905 L-864557 3905 L-864381 3905 L-864225 3905 L-863956 3905 L-863804 3905 L-863513 3905 L-863489 3905 L-863406 3905 L-863179 3905 L-862479 3905 L-862352 3905 L-861921 3905 L-861827 3905 L-860622 3905 L-860573 3905 L-860280 3905 L-859876 3905 L-859601 3905 L-859581 3905 L-859464 3905 L-859387 3905 L-859206 3905 L-858726 3905 L-858275 3905 L-857864 3905 L-857834 3905 L-857415 3905 L-857301 3905 L-857184 3905 L-857168 3905 L-856974 3905 L-856952 3905 L-856720 3905 L-856277 3905 L-855957 3905 L-855493 3905 L-855327 3905 L-855172 3905 L-855017 3905 L-854563 3905 L-854244 3905 L-854189 3905 L-853818 3905 L-853780 3905 L-853454 3905 L-853337 3905 L-853238 3905 L-852912 3905 L-852525 3905 L-852265 3905 L-851906 3905 L-851650 3905 L-849479 3905 L-849430 3905 L-849408 3905 L-848996 3905 L-848935 3905 L-848864 3905 L-848634 3905 L-848323 3905 L-848019 3904 L-847975 3904 L-847667 3904 L-847534 3904 L-847318 3904 L-846606 3904 L-846451 3904 L-846312 3904 L-846163 3904 L-846142 3904 L-845948 3904 L-845923 3904 L-845831 3904 L-845810 3904 L-845793 3904 L-845693 3904 L-844764 3904 L-844306 3904 L-843215 3904 L-842792 3904 L-842388 3904 L-842349 3904 L-842096 3904 L-841321 3904 L-841305 3904 L-841281 3904 L-841088 3904 L-840351 3904 L-840082 3904 L-840042 3904 L-839643 3904 L-839618 3904 L-838829 3904 L-838149 3904 L-836777 3904 L-836507 3904 L-836459 3904 L-835921 3904 L-835888 3904 L-835786 3904 L-835463 3904 L-835383 3904 L-835114 3904 L-834202 3904 L-834063 3904 L-833814 3904 L-833269 3904 L-832847 3904 L-832654 3904 L-832638 3904 L-832500 3904 L-832406 3904 L-832279 3904 L-832019 3904 L-831994 3904 L-831903 3904 L-831593 3903 L-831533 3903 L-831416 3903 L-831066 3903 L-830255 3903 L-830024 3903 L-829195 3903 L-828963 3903 L-828746 3903 L-828228 3903 L-827590 3903 L-827174 3903 L-826851 3903 L-826371 3903 L-825945 3903 L-825884 3903 L-825535 3903 L-825495 3903 L-825481 3903 L-825381 3903 L-825336 3903 L-824851 3903 L-824049 3903 L-823715 3903 L-822633 3903 L-822153 3903 L-822130 3903 L-821990 3903 L-821435 3903 L-820738 3903 L-820429 3903 L-820207 3903 L-820103 3903 L-820000 3903 L-819329 3903 L-819235 3903 L-819213 3903 L-819135 3903 L-818958 3903 L-818785 3903 L-818605 3903 L-818591 3903 L-818515 3903 L-818351 3903 L-817836 3903 L-817820 3903 L-817680 3903 L-817317 3903 L-817293 3903 L-817162 3903 L-817138 3903 L-816775 3903 L-816250 3903 L-816156 3903 L-815941 3903 L-815847 3903 L-815823 3903 L-815358 3903 L-815281 3903 L-814879 3903 L-814429 3903 L-813177 3903 L-813138 3903 L-812707 3903 L-812674 3903 L-811955 3903 L-811779 3903 L-811643 3902 L-811336 3902 L-811281 3902 L-811257 3902 L-811240 3902 L-811065 3902 L-810876 3902 L-810368 3902 L-809995 3902 L-809657 3902 L-809618 3902 L-808899 3902 L-808805 3902 L-808767 3902 L-808225 3902 L-808202 3902 L-807799 3902 L-807373 3902 L-807103 3902 L-806923 3902 L-806677 3902 L-806654 3902 L-806597 3902 L-805981 3902 L-805478 3902 L-805091 3902 L-804472 3902 L-804256 3902 L-804101 3902 L-802808 3902 L-802709 3902 L-802267 3901 L-801935 3901 L-801635 3901 L-801392 3901 L-800657 3901 L-800078 3901 L-799249 3901 L-799149 3901 L-798591 3901 L-798453 3901 L-796811 3901 L-796750 3901 L-796656 3901 L-795689 3901 L-795512 3901 L-795225 3901 L-795007 3901 L-794929 3901 L-794657 3901 L-794542 3901 L-794389 3901 L-794079 3901 L-794000 3901 L-793909 3901 L-793832 3901 L-793716 3901 L-793537 3901 L-793445 3901 L-793406 3901 L-792903 3901 L-792685 3901 L-792555 3901 L-792400 3901 L-792346 3901 L-792221 3901 L-791836 3901 L-791328 3901 L-791255 3901 L-790775 3901 L-790698 3901 L-790598 3901 L-790365 3901 L-789900 3901 L-789670 3901 L-789653 3901 L-789421 3901 L-789266 3901 L-789205 3901 L-789012 3901 L-788741 3901 L-787990 3901 L-787037 3901 L-787000 3901 L-786776 3901 L-786336 3901 L-786055 3901 L-785707 3901 L-784638 3901 L-783710 3901 L-783579 3901 L-783532 3901 L-783463 3901 L-783308 3901 L-783231 3901 L-783057 3901 L-782622 3901 L-782418 3901 L-782358 3901 L-781775 3901 L-781621 3901 L-781506 3901 L-781465 3901 L-781296 3900 L-781159 3900 L-780948 3900 L-780870 3900 L-780847 3900 L-780638 3900 L-780229 3900 L-780204 3900 L-779981 3900 L-779836 3900 L-779801 3900 L-779787 3900 L-779765 3900 L-779532 3900 L-779346 3900 L-779129 3900 L-779104 3900 L-778414 3900 L-778311 3900 L-778275 3900 L-778255 3900 L-778060 3900 L-778007 3900 L-777890 3900 L-777809 3900 L-777698 3900 L-777383 3900 L-776924 3900 L-776669 3900 L-776435 3900 L-776305 3900 L-775952 3900 L-775893 3900 L-775740 3900 L-775168 3900 L-775082 3900 L-774928 3900 L-774632 3900 L-774262 3900 L-773959 3900 L-773883 3900 L-773478 3900 L-773310 3900 L-773166 3900 L-772626 3900 L-772565 3900 L-772549 3900 L-772383 3900 L-772177 3900 L-772103 3900 L-772010 3900 L-771600 3900 L-771585 3899 L-771561 3899 L-771368 3899 L-771291 3900 L-771121 3900 L-771058 3900 L-771043 3900 L-770528 3900 L-770307 3900 L-769688 3900 L-769434 3900 L-769241 3900 L-769201 3900 L-769128 3900 L-769063 3900 L-768412 3900 L-768373 3900 L-768199 3900 L-768133 3900 L-767459 3900 L-767070 3900 L-766809 3900 L-766571 3900 L-766493 3900 L-766477 3900 L-766275 3900 L-765905 3900 L-765679 3900 L-765044 3900 L-765024 3900 L-764636 3900 L-764543 3900 L-764485 3900 L-764209 3900 L-763899 3900 L-763822 3900 L-762971 3900 L-762628 3900 L-762191 3900 L-761757 3900 L-761262 3900 L-761113 3900 L-760844 3900 L-759606 3900 L-759550 3900 L-757786 3900 L-757595 3900 L-756585 3900 L-756434 3900 L-756059 3900 L-755738 3900 L-755132 3900 L-755063 3900 L-754886 3900 L-754057 3900 L-753918 3900 L-753532 3900 L-753347 3900 L-753304 3900 L-753184 3900 L-752974 3900 L-752527 3900 L-752178 3900 L-752046 3900 L-751637 3900 L-751287 3900 L-751002 3900 L-750808 3900 L-750653 3900 L-750490 3900 L-750421 3900 L-750321 3900 L-750088 3900 L-749972 3900 L-749918 3900 L-749377 3900 L-748912 3900 L-747730 3900 L-747597 3900 L-747572 3900 L-747520 3900 L-746852 3900 L-745817 3900 L-745623 3900 L-745444 3900 L-745292 3900 L-745251 3900 L-745236 3900 L-745175 3900 L-744850 3900 L-743689 3900 L-743496 3900 L-743318 3900 L-742204 3900 L-741345 3900 L-741238 3900 L-740765 3900 L-740572 3900 L-738250 3900 L-738173 3900 L-738052 3900 L-738017 3900 L-737980 3900 L-737885 3899 L-737670 3899 L-737088 3899 L-736702 3899 L-735929 3899 L-735851 3899 L-735154 3899 L-734613 3899 L-734572 3899 L-734442 3899 L-733978 3899 L-733939 3899 L-733804 3899 L-733436 3899 L-733406 3899 L-733256 3899 L-732856 3899 L-731032 3899 L-730225 3899 L-729506 3899 L-729490 3899 L-729176 3899 L-728614 3899 L-728113 3899 L-727594 3899 L-727572 3899 L-725828 3899 L-725659 3899 L-725464 3899 L-724570 3899 L-724051 3899 L-723841 3899 L-723583 3899 L-722874 3899 L-721923 3899 L-721265 3899 L-721226 3899 L-720939 3899 L-720857 3899 L-720761 3899 L-720629 3899 L-720552 3899 L-719817 3899 L-719480 3899 L-719430 3899 L-719175 3899 L-718889 3899 L-718463 3899 L-717883 3899 L-717624 3899 L-717472 3899 L-717225 3899 L-717186 3899 L-716389 3899 L-716352 3899 L-716174 3899 L-715765 3899 L-715537 3899 L-715460 3899 L-715329 3899 L-715213 3899 L-714865 3899 L-714801 3899 L-714649 3899 L-713908 3899 L-713797 3899 L-713627 3899 L-713588 3899 L-713293 3899 L-712892 3899 L-712715 3899 L-712621 3899 L-712311 3899 L-711510 3899 L-711051 3898 L-710531 3898 L-710043 3898 L-709347 3898 L-708301 3898 L-708032 3898 L-707978 3898 L-707817 3898 L-707566 3898 L-707320 3898 L-707241 3898 L-707027 3898 L-706715 3898 L-706251 3898 L-706237 3898 L-705941 3898 L-705927 3898 L-704936 3898 L-704264 3898 L-703929 3898 L-703312 3898 L-703176 3898 L-702537 3898 L-702406 3898 L-701455 3898 L-701356 3898 L-700797 3898 L-700388 3898 L-699960 3898 L-699868 3898 L-699034 3898 L-698670 3898 L-698631 3898 L-698499 3898 L-698322 3898 L-698105 3898 L-698051 3898 L-697894 3898 L-697642 3898 L-696541 3898 L-696464 3898 L-696244 3898 L-696113 3898 L-696077 3898 L-695884 3898 L-695784 3898 L-695301 3898 L-695016 3898 L-694856 3898 L-694761 3898 L-694490 3898 L-694220 3898 L-694204 3898 L-694065 3898 L-693927 3898 L-693601 3897 L-693292 3897 L-693251 3897 L-693175 3897 L-693059 3897 L-692209 3897 L-691883 3897 L-691551 3897 L-691418 3897 L-691202 3897 L-691186 3897 L-690506 3897 L-690412 3897 L-690389 3897 L-690373 3897 L-690335 3897 L-689923 3897 L-689654 3897 L-689614 3897 L-689245 3897 L-689035 3897 L-687953 3897 L-687936 3897 L-687908 3897 L-687887 3897 L-687511 3897 L-687255 3897 L-687007 3897 L-686868 3897 L-686736 3897 L-686404 3897 L-686311 3897 L-686250 3897 L-685692 3897 L-685631 3897 L-685475 3897 L-685281 3897 L-685089 3897 L-685073 3897 L-685034 3897 L-684996 3897 L-684725 3897 L-684602 3897 L-684569 3897 L-684470 3897 L-684314 3897 L-684173 3897 L-683889 3897 L-683564 3897 L-682868 3897 L-682845 3897 L-682335 3897 L-681490 3897 L-681127 3897 L-680972 3897 L-680368 3897 L-680198 3897 L-680137 3897 L-680082 3897 L-679026 3897 L-679008 3897 L-678102 3897 L-678081 3897 L-677914 3897 L-677672 3897 L-677621 3897 L-677567 3896 L-677429 3896 L-677390 3896 L-676462 3896 L-676406 3896 L-676284 3896 L-676213 3896 L-676097 3896 L-675918 3896 L-674936 3896 L-674797 3896 L-674679 3896 L-674384 3896 L-674137 3896 L-674100 3896 L-674046 3896 L-674024 3896 L-673891 3896 L-673812 3896 L-673674 3896 L-673052 3896 L-672885 3896 L-672421 3896 L-672244 3896 L-672228 3896 L-672167 3896 L-672051 3896 L-671568 3896 L-670873 3896 L-670500 3896 L-670331 3896 L-669365 3896 L-669210 3896 L-669032 3896 L-668939 3896 L-668684 3896 L-668513 3896 L-667866 3896 L-667856 3896 L-667275 3896 L-667137 3896 L-667082 3896 L-666347 3896 L-666308 3896 L-666231 3896 L-665589 3896 L-664814 3896 L-664722 3896 L-664673 3896 L-664658 3896 L-664621 3896 L-664605 3896 L-664542 3896 L-664526 3896 L-664506 3896 L-664351 3896 L-664312 3896 L-664296 3896 L-664257 3896 L-664118 3896 L-664041 3896 L-663677 3896 L-663329 3896 L-662555 3896 L-661953 3896 L-661757 3896 L-661527 3896 L-661389 3896 L-660751 3896 L-660461 3896 L-660440 3896 L-659980 3896 L-659747 3896 L-659692 3896 L-659653 3896 L-659151 3896 L-658600 3896 L-657812 3896 L-656689 3896 L-655795 3895 L-655707 3895 L-655408 3895 L-655336 3895 L-655220 3895 L-654043 3895 L-653695 3895 L-653673 3895 L-653153 3895 L-653007 3895 L-652898 3895 L-652689 3895 L-652534 3895 L-652512 3895 L-652318 3895 L-652241 3895 L-652097 3895 L-651296 3895 L-651150 3895 L-650870 3895 L-650693 3895 L-650384 3895 L-649572 3895 L-648643 3895 L-647052 3895 L-646808 3895 L-646167 3895 L-645972 3895 L-645894 3895 L-645377 3895 L-645144 3895 L-645121 3895 L-644989 3895 L-644650 3895 L-644639 3895 L-644423 3895 L-644386 3895 L-643844 3895 L-643316 3895 L-643248 3895 L-642955 3895 L-642407 3895 L-642372 3895 L-642319 3895 L-642220 3895 L-641987 3895 L-641407 3895 L-641310 3895 L-641235 3895 L-640904 3895 L-640154 3895 L-640114 3895 L-639435 3895 L-639280 3895 L-638954 3895 L-638738 3895 L-638506 3895 L-638210 3895 L-637964 3895 L-637613 3895 L-637560 3895 L-636800 3895 L-636107 3895 L-635756 3894 L-635293 3894 L-634659 3894 L-634250 3894 L-634172 3894 L-633746 3894 L-633104 3894 L-632935 3894 L-632193 3894 L-632005 3894 L-631710 3894 L-631138 3894 L-631113 3894 L-630093 3894 L-629607 3894 L-629513 3894 L-629452 3894 L-629164 3894 L-628878 3894 L-628817 3894 L-628637 3894 L-627926 3894 L-627750 3894 L-627552 3894 L-627400 3894 L-627308 3894 L-627246 3894 L-626705 3894 L-626394 3894 L-626302 3894 L-626225 3894 L-625658 3894 L-625567 3894 L-625312 3894 L-624985 3894 L-624948 3894 L-624793 3894 L-624561 3894 L-624239 3894 L-623106 3894 L-622907 3894 L-622382 3894 L-622137 3894 L-621891 3894 L-621811 3894 L-621791 3894 L-621715 3894 L-621659 3894 L-621582 3894 L-621543 3894 L-621364 3894 L-621327 3894 L-621096 3894 L-619858 3894 L-619531 3894 L-619491 3893 L-618710 3893 L-618563 3893 L-617571 3893 L-617365 3893 L-616939 3893 L-616812 3893 L-616407 3893 L-616319 3893 L-615662 3893 L-614955 3893 L-614347 3893 L-614154 3893 L-613921 3893 L-613302 3893 L-613006 3893 L-612567 3893 L-612412 3893 L-612257 3893 L-611501 3893 L-611151 3893 L-610749 3893 L-610710 3893 L-609704 3893 L-609384 3893 L-609137 3893 L-608437 3893 L-608364 3893 L-608052 3893 L-606972 3893 L-606780 3893 L-606546 3893 L-606351 3893 L-605851 3893 L-605097 3893 L-604984 3893 L-604783 3893 L-604742 3893 L-604650 3893 L-604337 3893 L-604248 3893 L-604132 3893 L-603814 3893 L-603745 3893 L-603721 3893 L-603359 3893 L-603320 3893 L-603104 3893 L-602600 3893 L-601998 3893 L-601787 3893 L-601633 3893 L-601596 3893 L-601552 3893 L-601517 3893 L-601384 3893 L-600975 3893 L-600604 3893 L-600551 3893 L-600534 3893 L-600456 3893 L-600046 3893 L-599892 3893 L-599877 3893 L-599837 3893 L-599659 3893 L-599583 3893 L-599351 3893 L-598561 3893 L-598484 3893 L-597749 3893 L-597593 3892 L-597353 3892 L-597292 3892 L-597206 3892 L-597184 3892 L-597066 3892 L-597051 3892 L-596990 3892 L-596952 3892 L-596858 3892 L-596836 3892 L-596720 3892 L-596487 3892 L-596317 3892 L-595497 3892 L-595096 3892 L-594940 3892 L-594435 3892 L-594321 3892 L-593725 3892 L-593350 3892 L-593299 3892 L-593105 3892 L-592408 3892 L-592370 3892 L-592225 3892 L-592000 3892 L-591738 3892 L-591365 3892 L-590939 3892 L-590810 3892 L-590790 3892 L-590296 3892 L-589600 3892 L-589368 3892 L-589214 3892 L-588246 3892 L-588021 3892 L-587744 3892 L-587728 3892 L-587202 3892 L-586673 3892 L-586525 3892 L-586505 3892 L-585963 3892 L-585654 3892 L-585536 3892 L-585344 3892 L-585208 3892 L-584881 3892 L-584764 3892 L-584454 3892 L-584028 3892 L-583973 3892 L-583740 3892 L-583643 3892 L-583510 3892 L-583214 3892 L-583100 3892 L-582735 3892 L-582423 3892 L-581940 3892 L-581769 3892 L-581521 3892 L-581305 3892 L-580780 3892 L-580593 3892 L-580238 3892 L-579602 3892 L-579448 3891 L-578707 3891 L-578287 3891 L-578107 3891 L-578031 3891 L-577900 3891 L-577606 3891 L-577565 3891 L-577335 3891 L-577143 3891 L-576888 3891 L-576461 3891 L-576352 3891 L-575734 3891 L-575552 3891 L-574341 3891 L-573694 3891 L-573543 3891 L-573505 3891 L-573374 3891 L-573273 3891 L-573257 3891 L-573175 3891 L-572963 3891 L-572847 3891 L-572484 3891 L-572112 3891 L-571416 3891 L-571013 3891 L-570908 3891 L-570890 3891 L-569946 3891 L-569750 3891 L-569598 3891 L-569543 3891 L-568787 3891 L-568769 3891 L-568281 3891 L-568150 3891 L-567957 3891 L-567067 3891 L-567028 3891 L-566989 3891 L-566912 3891 L-566874 3891 L-566796 3891 L-566713 3891 L-566448 3891 L-566216 3891 L-566154 3891 L-565673 3891 L-565337 3891 L-565226 3891 L-565032 3891 L-564856 3891 L-564796 3891 L-564760 3891 L-564490 3891 L-563792 3891 L-563740 3891 L-563445 3891 L-563043 3891 L-562479 3891 L-561606 3891 L-561301 3891 L-561263 3891 L-561141 3891 L-560542 3891 L-560412 3891 L-560212 3891 L-560175 3891 L-559561 3891 L-559382 3891 L-559368 3890 L-559150 3890 L-559071 3890 L-558764 3890 L-558632 3890 L-558400 3890 L-558066 3890 L-557974 3890 L-557874 3890 L-557836 3890 L-557293 3890 L-557100 3890 L-556559 3890 L-556133 3890 L-556002 3890 L-555940 3890 L-555709 3890 L-555692 3890 L-555204 3890 L-555123 3890 L-555106 3890 L-553713 3890 L-553577 3890 L-553463 3890 L-552829 3890 L-552689 3890 L-552572 3890 L-552418 3890 L-552381 3890 L-552302 3890 L-552248 3890 L-551257 3890 L-551220 3890 L-551087 3890 L-551026 3890 L-550927 3890 L-550637 3890 L-550624 3890 L-550313 3890 L-550214 3890 L-549748 3890 L-549695 3892 L-549552 3894 L-549424 3896 L-549192 3898 L-548623 3898 L-548534 3898 L-548512 3898 L-548225 3898 L-547542 3898 L-547465 3898 L-547429 3898 L-547412 3898 L-547213 3898 L-546793 3897 L-546521 3897 L-545648 3897 L-545356 3897 L-545245 3897 L-544511 3897 L-544383 3897 L-544024 3897 L-543771 3897 L-542900 3897 L-542731 3897 L-542669 3897 L-542615 3897 L-542267 3897 L-542243 3897 L-542034 3897 L-541894 3897 L-541764 3897 L-541641 3897 L-541517 3897 L-541281 3897 L-540990 3897 L-540331 3897 L-540309 3897 L-540154 3897 L-540037 3897 L-539072 3897 L-539016 3897 L-538784 3897 L-538761 3897 L-538435 3897 L-538320 3897 L-538280 3897 L-537778 3897 L-537479 3897 L-537368 3897 L-536825 3897 L-535766 3897 L-535140 3897 L-534969 3897 L-534721 3897 L-534465 3897 L-534334 3897 L-534312 3897 L-533645 3897 L-532749 3897 L-532703 3897 L-532632 3897 L-532516 3897 L-532296 3897 L-532105 3897 L-532066 3897 L-531873 3897 L-531214 3897 L-530597 3897 L-530559 3897 L-529962 3897 L-529901 3897 L-528779 3897 L-528724 3897 L-528603 3897 L-528338 3897 L-528274 3897 L-528005 3897 L-527929 3897 L-527713 3897 L-527230 3897 L-526960 3897 L-526829 3897 L-526597 3897 L-526572 3897 L-526557 3897 L-526534 3897 L-526518 3897 L-526495 3897 L-526481 3896 L-526457 3896 L-526441 3896 L-526418 3896 L-526403 3896 L-526381 3896 L-526365 3896 L-526337 3896 L-526319 3896 L-526301 3896 L-526264 3896 L-526225 3896 L-526210 3896 L-526184 3896 L-526132 3896 L-526108 3896 L-526031 3895 L-525993 3895 L-525978 3895 L-525915 3895 L-525900 3895 L-525854 3895 L-525783 3895 L-525745 3895 L-525721 3895 L-525668 3895 L-525643 3895 L-525628 3895 L-525566 3895 L-525529 3895 L-525452 3895 L-525436 3895 L-525408 3895 L-525336 3895 L-525296 3895 L-525142 3895 L-525026 3895 L-524972 3895 L-524889 3895 L-524856 3895 L-524832 3895 L-524678 3895 L-524662 3895 L-524561 3895 L-524250 3895 L-524214 3895 L-523999 3895 L-523888 3895 L-523863 3895 L-523633 3895 L-523400 3895 L-523026 3895 L-522898 3895 L-522858 3895 L-522805 3895 L-522704 3895 L-522667 3895 L-522457 3895 L-522393 3895 L-522280 3895 L-522069 3895 L-522031 3895 L-521659 3895 L-521606 3895 L-521527 3895 L-521505 3895 L-521412 3895 L-521212 3895 L-521175 3895 L-521153 3895 L-520923 3895 L-520902 3894 L-520693 3894 L-520598 3894 L-520561 3894 L-520224 3894 L-520111 3894 L-520072 3894 L-520058 3894 L-519918 3894 L-519903 3894 L-519649 3894 L-519066 3894 L-518990 3894 L-518952 3894 L-518907 3894 L-518859 3894 L-518679 3894 L-518664 3894 L-518565 3894 L-518487 3894 L-518427 3894 L-518061 3894 L-517979 3894 L-517961 3894 L-517908 3894 L-516939 3894 L-516807 3894 L-516786 3894 L-516565 3894 L-516497 3894 L-516474 3894 L-516228 3894 L-515972 3894 L-515841 3894 L-515801 3894 L-515780 3894 L-515724 3894 L-515637 3894 L-515576 3894 L-515350 3894 L-515221 3894 L-515121 3894 L-515067 3894 L-514873 3894 L-514796 3894 L-514462 3894 L-514332 3894 L-514154 3894 L-514138 3894 L-514113 3894 L-513844 3894 L-512643 3894 L-512606 3894 L-512490 3894 L-512256 3894 L-512065 3894 L-512027 3894 L-511971 3894 L-511866 3894 L-511353 3894 L-511059 3893 L-510826 3893 L-510551 3893 L-510534 3893 L-510502 3893 L-510462 3893 L-510424 3893 L-510323 3893 L-510245 3893 L-510153 3893 L-510026 3893 L-509921 3893 L-509743 3893 L-509550 3893 L-508722 3893 L-508606 3893 L-508351 3893 L-508311 3893 L-508212 3893 L-508152 3893 L-507909 3893 L-507885 3893 L-507765 3893 L-507693 3893 L-507654 3893 L-507422 3893 L-507245 3893 L-506725 3893 L-506649 3893 L-506632 3893 L-506221 3893 L-505858 3893 L-505742 3893 L-505720 3893 L-505679 3893 L-505603 3893 L-505549 3893 L-505200 3893 L-505085 3893 L-504907 3893 L-504852 3893 L-504828 3893 L-504714 3893 L-504427 3893 L-504194 3893 L-503979 3893 L-503769 3893 L-503559 3893 L-502733 3893 L-502393 3893 L-501386 3893 L-501023 3893 L-499977 3893 L-499900 3893 L-499452 3893 L-499241 3893 L-499049 3893 L-498755 3893 L-498714 3893 L-498561 3893 L-498507 3893 L-498275 3893 L-497695 3893 L-497501 3892 L-496882 3892 L-496393 3892 L-496341 3892 L-495692 3892 L-495542 3892 L-495373 3892 L-495000 3892 L-494985 3892 L-494886 3892 L-494847 3892 L-494716 3892 L-494283 3892 L-493980 3892 L-493594 3892 L-493454 3892 L-493292 3892 L-492859 3892 L-492820 3892 L-492718 3892 L-492603 3892 L-492425 3892 L-492255 3892 L-492137 3892 L-491776 3892 L-491558 3892 L-491426 3892 L-491285 3892 L-490786 3892 L-490708 3892 L-490474 3892 L-490150 3892 L-489764 3892 L-489741 3892 L-489121 3892 L-488851 3892 L-488617 3892 L-488193 3892 L-487921 3892 L-487779 3892 L-487570 3892 L-487365 3892 L-486813 3892 L-486683 3892 L-486296 3892 L-486026 3892 L-485923 3892 L-485662 3892 L-485461 3892 L-485392 3892 L-485353 3892 L-484786 3892 L-484578 3892 L-484551 3892 L-484322 3892 L-484245 3892 L-483728 3892 L-483689 3892 L-483534 3892 L-483240 3892 L-482969 3892 L-482605 3892 L-482257 3892 L-481885 3892 L-481764 3892 L-481693 3892 L-481213 3892 L-481150 3892 L-480815 3892 L-480684 3892 L-480607 3892 L-480477 3892 L-480013 3892 L-479720 3892 L-479643 3892 L-479332 3892 L-479023 3892 L-478960 3892 L-478930 3891 L-478156 3891 L-478051 3891 L-477963 3891 L-477940 3891 L-477786 3891 L-477564 3891 L-477397 3891 L-477011 3891 L-476956 3891 L-476892 3891 L-476275 3891 L-476158 3891 L-475835 3891 L-475309 3891 L-474959 3891 L-474883 3891 L-474263 3891 L-473852 3891 L-473551 3891 L-473241 3891 L-473103 3891 L-472479 3891 L-472097 3891 L-470973 3891 L-469913 3891 L-469851 3891 L-469490 3891 L-469388 3891 L-469372 3891 L-468999 3891 L-467993 3891 L-467607 3891 L-467399 3891 L-467311 3891 L-466935 3891 L-466642 3891 L-466331 3891 L-465542 3891 L-465454 3891 L-465402 3891 L-465363 3891 L-464846 3891 L-464730 3891 L-464522 3891 L-464382 3891 L-463779 3891 L-462950 3891 L-462666 3891 L-462484 3891 L-461983 3891 L-461778 3891 L-461224 3891 L-460719 3891 L-460527 3891 L-460489 3891 L-459860 3891 L-459407 3891 L-458992 3891 L-458384 3891 L-457263 3891 L-456850 3891 L-456526 3891 L-456311 3890 L-455884 3890 L-455744 3890 L-455653 3890 L-455422 3890 L-454835 3890 L-454027 3890 L-452828 3890 L-452714 3890 L-452581 3890 L-452494 3890 L-452452 3890 L-452431 3890 L-452421 3890 L-452326 3890 L-451562 3890 L-450857 3890 L-450816 3890 L-450530 3890 L-449990 3890 L-449928 3890 L-449888 3890 L-449873 3890 L-449616 3890 L-449293 3890 L-449153 3890 L-448883 3890 L-448844 3890 L-448736 3890 L-448335 3890 L-448225 3890 L-448148 3890 L-447851 3890 L-447808 3890 L-447590 3890 L-447406 3890 L-447296 3890 L-447281 3890 L-447255 3890 L-446831 3890 L-446585 3890 L-446249 3890 L-446214 3890 L-446079 3890 L-445826 3890 L-445671 3890 L-444765 3890 L-444666 3890 L-444471 3890 L-443463 3890 L-442963 3890 L-442885 3890 L-442846 3890 L-442638 3890 L-442520 3890 L-442422 3890 L-442236 3890 L-442070 3890 L-441835 3890 L-441415 3890 L-441399 3890 L-441090 3890 L-440045 3890 L-439828 3890 L-439812 3890 L-439789 3890 L-439581 3890 L-439422 3890 L-439363 3890 L-437918 3890 L-437592 3890 L-437391 3890 L-437192 3890 L-437042 3890 L-436771 3890 L-436330 3890 L-436112 3890 L-435418 3890 L-434915 3890 L-434590 3890 L-434319 3890 L-433599 3890 L-433444 3890 L-432246 3889 L-431856 3889 L-431741 3889 L-431587 3889 L-431434 3889 L-430463 3889 L-430411 3889 L-430164 3889 L-430142 3889 L-429922 3889 L-429483 3889 L-429344 3889 L-429236 3889 L-429034 3889 L-428917 3889 L-428815 3889 L-428800 3889 L-428668 3889 L-428414 3889 L-427796 3889 L-427136 3889 L-426891 3889 L-426698 3889 L-425939 3889 L-425899 3889 L-425821 3889 L-425769 3889 L-425730 3889 L-425692 3889 L-425653 3889 L-425562 3889 L-425517 3889 L-425459 3889 L-425435 3889 L-425320 3889 L-425010 3889 L-424955 3889 L-424934 3889 L-424591 3889 L-424426 3889 L-424391 3889 L-424350 3889 L-424336 3889 L-424104 3889 L-423963 3889 L-423796 3889 L-423346 3889 L-423112 3889 L-423020 3889 L-423000 3889 L-422519 3889 L-422442 3889 L-422314 3889 L-422184 3889 L-421806 3889 L-421565 3888 L-421527 3888 L-421473 3888 L-421335 3888 L-421296 3888 L-421256 3888 L-421025 3888 L-420985 3888 L-420855 3888 L-420677 3888 L-420636 3888 L-420622 3888 L-420458 3888 L-420443 3888 L-420290 3888 L-420275 3888 L-420249 3888 L-420214 3888 L-419993 3888 L-419770 3888 L-419516 3888 L-419384 3888 L-418742 3888 L-418134 3888 L-417115 3888 L-416921 3888 L-416870 3888 L-416745 3888 L-416421 3888 L-415648 3888 L-415590 3888 L-415477 3888 L-415065 3888 L-414740 3888 L-414602 3888 L-414378 3888 L-413852 3888 L-413451 3888 L-413419 3888 L-413132 3888 L-412847 3888 L-412459 3888 L-412243 3888 L-411815 3888 L-411634 3888 L-411298 3888 L-411191 3888 L-411005 3888 L-410888 3888 L-410873 3888 L-410152 3888 L-409983 3888 L-409734 3888 L-409634 3888 L-408992 3888 L-408704 3888 L-408513 3888 L-408238 3888 L-407921 3888 L-407636 3888 L-407522 3888 L-407478 3887 L-407275 3887 L-405667 3887 L-405454 3887 L-404774 3887 L-404691 3887 L-404463 3887 L-404272 3887 L-404134 3887 L-404115 3887 L-403922 3887 L-403692 3887 L-403499 3887 L-402415 3887 L-402220 3887 L-402167 3887 L-402013 3887 L-401906 3887 L-401739 3887 L-401587 3887 L-401471 3887 L-401348 3887 L-400930 3887 L-400673 3887 L-400581 3887 L-400388 3887 L-400326 3887 L-400001 3887 L-399939 3887 L-399882 3887 L-399614 3887 L-399265 3887 L-399087 3887 L-398892 3887 L-398857 3887 L-398144 3887 L-398104 3887 L-397795 3887 L-397497 3887 L-397448 3887 L-397192 3887 L-396921 3887 L-396866 3887 L-395775 3887 L-395744 3887 L-395704 3887 L-395527 3887 L-395335 3887 L-394477 3887 L-393424 3887 L-393363 3887 L-393014 3887 L-392201 3887 L-391388 3887 L-391372 3887 L-390998 3887 L-390829 3887 L-390560 3887 L-390233 3887 L-390111 3887 L-390054 3887 L-390019 3887 L-389941 3887 L-389724 3887 L-389666 3887 L-389350 3887 L-389182 3887 L-388819 3887 L-388626 3887 L-388602 3887 L-388525 3887 L-388044 3887 L-387907 3887 L-387493 3887 L-387194 3887 L-387095 3887 L-387079 3887 L-387050 3887 L-386691 3887 L-386341 3887 L-386203 3887 L-386167 3887 L-385350 3887 L-385144 3887 L-385119 3887 L-384963 3887 L-384873 3887 L-384632 3887 L-384308 3887 L-384215 3887 L-384019 3887 L-383733 3887 L-382977 3887 L-382848 3887 L-382775 3887 L-382162 3887 L-381986 3887 L-381876 3887 L-381776 3887 L-381697 3887 L-381560 3887 L-381405 3887 L-381326 3887 L-381135 3887 L-380462 3887 L-380424 3887 L-380321 3887 L-379378 3887 L-379356 3887 L-379005 3887 L-378540 3887 L-378504 3886 L-378075 3886 L-378024 3886 L-377613 3886 L-377596 3886 L-377500 3886 L-377444 3886 L-377406 3886 L-377111 3886 L-375372 3886 L-373862 3886 L-373355 3886 L-372857 3886 L-372723 3886 L-372632 3886 L-372505 3886 L-372426 3886 L-372120 3886 L-371850 3886 L-371616 3886 L-370417 3886 L-370312 3886 L-370246 3886 L-369405 3886 L-369219 3886 L-368308 3886 L-367439 3886 L-367151 3886 L-367058 3886 L-366509 3886 L-365990 3886 L-364921 3886 L-364652 3886 L-364499 3886 L-364406 3886 L-364276 3886 L-364228 3886 L-364069 3886 L-363203 3886 L-362868 3886 L-362485 3886 L-361732 3886 L-361673 3886 L-361284 3886 L-360962 3886 L-360805 3886 L-360073 3886 L-360010 3886 L-359723 3886 L-359349 3886 L-359168 3886 L-358912 3886 L-358651 3886 L-358498 3886 L-358095 3886 L-356797 3886 L-356682 3886 L-356219 3886 L-354887 3886 L-354462 3886 L-354438 3886 L-354305 3886 L-354129 3886 L-353996 3886 L-353666 3886 L-353278 3886 L-353239 3886 L-353223 3886 L-352832 3886 L-352541 3886 L-352272 3886 L-352098 3886 L-350605 3886 L-350555 3886 L-350477 3886 L-349237 3886 L-349162 3886 L-349135 3886 L-348888 3886 L-348731 3886 L-348672 3886 L-347785 3886 L-347556 3886 L-347033 3886 L-346892 3886 L-346816 3886 L-346120 3886 L-345872 3886 L-345191 3886 L-345174 3886 L-344920 3886 L-344552 3886 L-344417 3886 L-343794 3886 L-343451 3886 L-343404 3886 L-342917 3885 L-342582 3885 L-342366 3885 L-342231 3885 L-341910 3885 L-341846 3885 L-341594 3885 L-341304 3885 L-340995 3885 L-340855 3885 L-340316 3885 L-340040 3885 L-339310 3885 L-339257 3885 L-339150 3885 L-338884 3885 L-338460 3885 L-338195 3885 L-337976 3885 L-337955 3885 L-337724 3885 L-337437 3885 L-337413 3885 L-337399 3885 L-337026 3885 L-336855 3885 L-336779 3885 L-336718 3885 L-336417 3885 L-336176 3885 L-336083 3885 L-335826 3885 L-335774 3885 L-335578 3885 L-335362 3885 L-334938 3885 L-334846 3885 L-334706 3885 L-333841 3885 L-333467 3885 L-333139 3885 L-332987 3885 L-332560 3885 L-331842 3885 L-331647 3885 L-331293 3885 L-331146 3885 L-330640 3885 L-330404 3885 L-329437 3885 L-329427 3885 L-328361 3885 L-328129 3885 L-327727 3885 L-327533 3885 L-327453 3885 L-327357 3885 L-326620 3885 L-326487 3885 L-326098 3885 L-326075 3885 L-325980 3885 L-325845 3885 L-325828 3885 L-325808 3885 L-324123 3885 L-324105 3885 L-323988 3885 L-323903 3885 L-323779 3885 L-323755 3885 L-323471 3885 L-323364 3884 L-323176 3884 L-322905 3884 L-322233 3884 L-321861 3884 L-321010 3884 L-320952 3884 L-320933 3884 L-320699 3884 L-320425 3884 L-320119 3884 L-320080 3884 L-319849 3884 L-319611 3884 L-318998 3884 L-318958 3884 L-318920 3884 L-318399 3884 L-318207 3884 L-318147 3884 L-318104 3884 L-317782 3884 L-317754 3884 L-317739 3884 L-317254 3884 L-317201 3884 L-317063 3884 L-317025 3884 L-317008 3884 L-316913 3884 L-316248 3884 L-315632 3884 L-315362 3884 L-314954 3884 L-314933 3884 L-314918 3884 L-314804 3884 L-314417 3884 L-313951 3884 L-313890 3884 L-313811 3884 L-313797 3884 L-313310 3884 L-313271 3884 L-313125 3884 L-313076 3884 L-312997 3884 L-312365 3884 L-312274 3884 L-312033 3884 L-311916 3884 L-311589 3884 L-310834 3884 L-310818 3884 L-309866 3884 L-309557 3884 L-309132 3884 L-308419 3884 L-308100 3884 L-308085 3884 L-307934 3884 L-307630 3884 L-307553 3884 L-307425 3884 L-306989 3884 L-306928 3884 L-306405 3884 L-306136 3884 L-305999 3884 L-305921 3884 L-305882 3884 L-305070 3884 L-305030 3884 L-304590 3884 L-304512 3884 L-304254 3884 L-304063 3884 L-303434 3884 L-303247 3884 L-303213 3883 L-303057 3883 L-302655 3883 L-302578 3883 L-302397 3883 L-302207 3883 L-301278 3883 L-301128 3883 L-299920 3883 L-299110 3883 L-298707 3883 L-298104 3883 L-297902 3883 L-297834 3883 L-297676 3883 L-297414 3883 L-297041 3899 L-297022 3899 L-296865 3899 L-295667 3899 L-294563 3883 L-293636 3883 L-293522 3883 L-293236 3883 L-293135 3883 L-293110 3883 L-292920 3883 L-292843 3883 L-292647 3883 L-291935 3883 L-291777 3883 L-290720 3883 L-290295 3883 L-289885 3883 L-289599 3883 L-289425 3883 L-289193 3883 L-288939 3883 L-288496 3883 L-287835 3883 L-287660 3883 L-287355 3883 L-286968 3883 L-286948 3883 L-286929 3883 L-286907 3883 L-286773 3883 L-286581 3883 L-284937 3883 L-283641 3883 L-283602 3883 L-283544 3883 L-283443 3883 L-282884 3883 L-281899 3883 L-281357 3883 L-280893 3883 L-280248 3883 L-279699 3883 L-278649 3883 L-277720 3882 L-277373 3882 L-277179 3882 L-276676 3882 L-276231 3882 L-276089 3882 L-276067 3882 L-275496 3882 L-275111 3882 L-274277 3882 L-273928 3882 L-273907 3882 L-273519 3882 L-273096 3882 L-272498 3882 L-272479 3882 L-271973 3882 L-271741 3882 L-271628 3882 L-271009 3882 L-270447 3882 L-270407 3882 L-269848 3882 L-269515 3882 L-269402 3882 L-269364 3882 L-268938 3882 L-268879 3882 L-268803 3882 L-268512 3882 L-268300 3882 L-267816 3882 L-267601 3882 L-266462 3882 L-266403 3882 L-266385 3882 L-265979 3882 L-265340 3882 L-265205 3882 L-265146 3882 L-264605 3882 L-264296 3882 L-264044 3882 L-263969 3882 L-263849 3882 L-263116 3882 L-262670 3882 L-262456 3882 L-261723 3882 L-261548 3882 L-261183 3882 L-260968 3882 L-259730 3882 L-259420 3882 L-259304 3882 L-259051 3882 L-258840 3882 L-258298 3882 L-258066 3882 L-258009 3882 L-257911 3882 L-257582 3882 L-257349 3882 L-255687 3882 L-255336 3882 L-254932 3882 L-254777 3882 L-253985 3882 L-252494 3882 L-252108 3881 L-252069 3881 L-251815 3881 L-251720 3881 L-251528 3881 L-251179 3881 L-250483 3881 L-250232 3881 L-249516 3881 L-248103 3881 L-247871 3881 L-247542 3881 L-246326 3881 L-245974 3881 L-245782 3881 L-245664 3881 L-243229 3881 L-242260 3881 L-241429 3881 L-241119 3881 L-239777 3881 L-239205 3881 L-239089 3881 L-238760 3881 L-238663 3881 L-238256 3881 L-238141 3881 L-237950 3881 L-237193 3881 L-237067 3881 L-236786 3881 L-236284 3881 L-236206 3881 L-234619 3881 L-234562 3881 L-233820 3881 L-233439 3882 L-233111 3882 L-232448 3881 L-232317 3881 L-232278 3881 L-232028 3881 L-231892 3881 L-231699 3881 L-231563 3881 L-231312 3881 L-231099 3881 L-230790 3881 L-230517 3881 L-230016 3881 L-229997 3881 L-229563 3881 L-229337 3881 L-228893 3881 L-228874 3881 L-228371 3881 L-228233 3881 L-228119 3881 L-227888 3881 L-227577 3881 L-227113 3881 L-227036 3881 L-226533 3881 L-226262 3881 L-225925 3881 L-225740 3881 L-225063 3881 L-225044 3881 L-224869 3881 L-224850 3881 L-224232 3881 L-223516 3881 L-222954 3881 L-222759 3881 L-222605 3881 L-222587 3881 L-222063 3881 L-221949 3881 L-221077 3881 L-221056 3881 L-221000 3881 L-220168 3881 L-219858 3881 L-219782 3881 L-219511 3881 L-219448 3881 L-219397 3881 L-219086 3881 L-218469 3881 L-217693 3881 L-216899 3881 L-216861 3881 L-216783 3881 L-216611 3881 L-215733 3881 L-214849 3881 L-214754 3881 L-214634 3881 L-214305 3881 L-214268 3881 L-214036 3881 L-213803 3881 L-213088 3880 L-212586 3880 L-211920 3880 L-211811 3880 L-211657 3880 L-211638 3880 L-211483 3880 L-211067 3880 L-210456 3880 L-210322 3880 L-209413 3880 L-209210 3880 L-208658 3880 L-206009 3880 L-205834 3880 L-205756 3880 L-204885 3880 L-204421 3880 L-203938 3880 L-203899 3880 L-203319 3880 L-203299 3880 L-202197 3880 L-200775 3880 L-200357 3880 L-200050 3880 L-199973 3880 L-199897 3880 L-199739 3880 L-199663 3880 L-199199 3880 L-197961 3880 L-197709 3880 L-197265 3880 L-196643 3880 L-196587 3880 L-196393 3880 L-195929 3880 L-195638 3880 L-195597 3880 L-195561 3880 L-195407 3880 L-195230 3880 L-194092 3880 L-193704 3880 L-193647 3880 L-193473 3880 L-190955 3880 L-189795 3880 L-189158 3879 L-189019 3879 L-188888 3879 L-188500 3879 L-188036 3879 L-187825 3879 L-187760 3879 L-187727 3879 L-186973 3879 L-186391 3879 L-186199 3879 L-185580 3879 L-185534 3879 L-185173 3879 L-185067 3879 L-184883 3879 L-184605 3879 L-183702 3879 L-182697 3879 L-181962 3879 L-181536 3879 L-181376 3879 L-181013 3879 L-180916 3879 L-180473 3879 L-180397 3879 L-180045 3879 L-179795 3879 L-179775 3879 L-179602 3879 L-178653 3879 L-178539 3879 L-177977 3879 L-177527 3879 L-177142 3879 L-176231 3879 L-176175 3879 L-175036 3879 L-174456 3879 L-174281 3879 L-173488 3879 L-173256 3879 L-172869 3879 L-172599 3879 L-172463 3879 L-172347 3879 L-171728 3879 L-171671 3879 L-171455 3879 L-171161 3879 L-170373 3879 L-170233 3879 L-168845 3879 L-168498 3879 L-168111 3878 L-168050 3878 L-168013 3878 L-167956 3878 L-167313 3878 L-166621 3878 L-166369 3878 L-166034 3878 L-165944 3878 L-165424 3878 L-165170 3878 L-164955 3878 L-164572 3878 L-164411 3878 L-163873 3878 L-163061 3878 L-163042 3878 L-162926 3878 L-162782 3878 L-162401 3878 L-162209 3878 L-162152 3878 L-161853 3878 L-161786 3878 L-161591 3878 L-161224 3878 L-161162 3878 L-160858 3878 L-160813 3878 L-160759 3878 L-160121 3878 L-160102 3878 L-159617 3878 L-159135 3878 L-158765 3878 L-158399 3878 L-158264 3878 L-158110 3878 L-158040 3878 L-157393 3878 L-157373 3878 L-157232 3878 L-156748 3878 L-156465 3878 L-156407 3878 L-156349 3878 L-156039 3878 L-155884 3878 L-155401 3878 L-154627 3878 L-153987 3878 L-153890 3878 L-152827 3878 L-152806 3878 L-152341 3899 L-152325 3899 L-152151 3899 L-151639 3899 L-149284 3878 L-148340 3878 L-147621 3878 L-147080 3878 L-146383 3878 L-146067 3878 L-145419 3878 L-144911 3878 L-144876 3878 L-144835 3878 L-144489 3878 L-143794 3878 L-143597 3878 L-143581 3878 L-143465 3878 L-143183 3878 L-142285 3878 L-142239 3877 L-141873 3877 L-141856 3877 L-141801 3877 L-141607 3877 L-141471 3877 L-141396 3877 L-141162 3877 L-140621 3877 L-140581 3877 L-140544 3877 L-140518 3877 L-139883 3877 L-139341 3877 L-138176 3877 L-137816 3877 L-136539 3877 L-136500 3877 L-136461 3877 L-136247 3877 L-136056 3877 L-135979 3877 L-135825 3877 L-135786 3877 L-134697 3877 L-134372 3877 L-134158 3877 L-133898 3877 L-133405 3877 L-133383 3877 L-132966 3877 L-132825 3877 L-132765 3877 L-132688 3877 L-132477 3877 L-131182 3877 L-130906 3877 L-130281 3877 L-128890 3877 L-128818 3877 L-128780 3877 L-128587 3877 L-128197 3877 L-127890 3877 L-127833 3877 L-127518 3877 L-127468 3877 L-127429 3877 L-127383 3877 L-126750 3877 L-125977 3877 L-125538 3877 L-125396 3899 L-125372 3899 L-125356 3920 L-125331 3920 L-124913 3899 L-124710 3899 L-124561 3877 L-124482 3877 L-124428 3877 L-123631 3877 L-123615 3877 L-122751 3877 L-122547 3877 L-122261 3877 L-122145 3877 L-121619 3877 L-121443 3877 L-121139 3877 L-120752 3877 L-120692 3877 L-120636 3877 L-120481 3877 L-119437 3877 L-118875 3877 L-118639 3877 L-118602 3877 L-118333 3877 L-117927 3877 L-116457 3877 L-114717 3877 L-114329 3877 L-114097 3877 L-113998 3877 L-113904 3877 L-113749 3877 L-113186 3877 L-113103 3877 L-112937 3877 L-112394 3877 L-111210 3877 L-111195 3877 L-111136 3877 L-110984 3877 L-110500 3877 L-109853 3877 L-109146 3876 L-109030 3876 L-108063 3876 L-108018 3876 L-107327 3876 L-107270 3876 L-107192 3876 L-107173 3876 L-107152 3876 L-106937 3876 L-106223 3876 L-105834 3876 L-105797 3876 L-105780 3876 L-105722 3876 L-105294 3876 L-105080 3876 L-105005 3876 L-104928 3876 L-104813 3876 L-104747 3876 L-104619 3876 L-104560 3876 L-104484 3876 L-104405 3876 L-103977 3876 L-103251 3876 L-103238 3876 L-103071 3876 L-102854 3876 L-102840 3876 L-102259 3876 L-101987 3876 L-101699 3876 L-101269 3876 L-101115 3876 L-101059 3876 L-100882 3876 L-99487 3876 L-99222 3876 L-98329 3876 L-97803 3876 L-96784 3876 L-96703 3876 L-96239 3876 L-95620 3876 L-95333 3876 L-95080 3876 L-94928 3876 L-94580 3876 L-93863 3876 L-93301 3876 L-92413 3876 L-92104 3876 L-91813 3876 L-90961 3876 L-90940 3876 L-90283 3876 L-89780 3875 L-89569 3875 L-89549 3875 L-89220 3875 L-89161 3875 L-88775 3875 L-87789 3875 L-87227 3875 L-87130 3875 L-86822 3875 L-86744 3875 L-85710 3875 L-85579 3875 L-85523 3875 L-84887 3875 L-84828 3875 L-84753 3875 L-83339 3875 L-83202 3875 L-83069 3875 L-82583 3875 L-82333 3875 L-82043 3875 L-81830 3875 L-81173 3875 L-80605 3875 L-80515 3875 L-80376 3875 L-80301 3875 L-79137 3875 L-79104 3875 L-78675 3875 L-78658 3875 L-78483 3875 L-76956 3875 L-76871 3875 L-76066 3875 L-75872 3875 L-75851 3875 L-74998 3875 L-74804 3875 L-74170 3875 L-73995 3875 L-73875 3875 L-73822 3875 L-73801 3875 L-73744 3875 L-73356 3875 L-72912 3875 L-72834 3875 L-72637 3875 L-72575 3875 L-72313 3875 L-71965 3875 L-71849 3875 L-70700 3875 L-70415 3875 L-69971 3875 L-68767 3875 L-68637 3875 L-68327 3875 L-67899 3875 L-66602 3875 L-66293 3896 L-66277 3896 L-66230 3896 L-66181 3896 L-65253 3875 L-64922 3875 L-64374 3875 L-64247 3875 L-63801 3875 L-62267 3875 L-62099 3875 L-61827 3875 L-61803 3875 L-60899 3875 L-60783 3875 L-60316 3875 L-60294 3874 L-60221 3874 L-60023 3874 L-59871 3874 L-59404 3874 L-58753 3874 L-58266 3874 L-57716 3874 L-56694 3874 L-56388 3874 L-56334 3874 L-55734 3874 L-55304 3874 L-55229 3874 L-55212 3874 L-54991 3874 L-54687 3874 L-54605 3874 L-54301 3874 L-53701 3874 L-53565 3874 L-53294 3874 L-53080 3874 L-52905 3874 L-52696 3874 L-52675 3874 L-52426 3874 L-51976 3875 L-51960 3875 L-51515 3875 L-50306 3875 L-50104 3875 L-49176 3875 L-49115 3875 L-49080 3875 L-48054 3875 L-47938 3875 L-47918 3875 L-47764 3875 L-47744 3875 L-47333 3875 L-47317 3875 L-47280 3875 L-46970 3875 L-46816 3875 L-46611 3875 L-46212 3875 L-45229 3875 L-44705 3875 L-44648 3875 L-44623 3875 L-44301 3875 L-43584 3875 L-42714 3875 L-42676 3875 L-42599 3875 L-42347 3875 L-42328 3875 L-41605 3875 L-41455 3875 L-41342 3875 L-41245 3875 L-40142 3875 L-39387 3875 L-39215 3875 L-39054 3875 L-38978 3875 L-38785 3875 L-37646 3875 L-36962 3875 L-36679 3875 L-35712 3875 L-35693 3875 L-34842 3875 L-34802 3875 L-34659 3875 L-34334 3875 L-34105 3875 L-34067 3875 L-34026 3875 L-34010 3874 L-33874 3874 L-33855 3874 L-33643 3874 L-33583 3874 L-33505 3874 L-33482 3874 L-33406 3874 L-32926 3874 L-32830 3874 L-32754 3874 L-32577 3874 L-32555 3874 L-32500 3874 L-32462 3874 L-32402 3874 L-32248 3874 L-31224 3874 L-30924 3874 L-30798 3874 L-30720 3874 L-29694 3874 L-29638 3874 L-29580 3874 L-29534 3874 L-29520 3874 L-29483 3874 L-29444 3874 L-28264 3874 L-28206 3874 L-27509 3874 L-26890 3874 L-26747 3874 L-26304 3874 L-26039 3874 L-25376 3874 L-25091 3874 L-23622 3874 L-22673 3874 L-22567 3874 L-22501 3874 L-22471 3874 L-22151 3874 L-22130 3874 L-21201 3874 L-21026 3874 L-20294 3874 L-19754 2913 L-19730 1952 L-19704 991 L-19671 30 L-19655 30 L-19634 30 L-19596 30 L-19576 30 L-19554 30 L-19539 30 L-19520 30 L-19500 30 L-19478 30 L-19461 30 L-19441 30 L-19422 30 L-19384 30 L-19344 30 L-19319 29 L-19302 29 L-19285 29 L-19247 29 L-19229 29 L-19209 29 L-19190 29 L-19169 29 L-19152 29 L-19113 29 L-19090 29 L-19075 29 L-19056 29 L-19036 29 L-19016 29 L-18997 29 L-18958 29 L-18901 29 L-18853 29 L-18801 29 L-18775 29 L-18759 29 L-18742 29 L-18726 29 L-18705 29 L-18687 29 L-18668 29 L-18648 29 L-18625 29 L-18610 29 L-18591 29 L-18571 29 L-18549 29 L-18513 29 L-18494 29 L-18473 28 L-18437 28 L-18416 28 L-18390 28 L-18374 28 L-18356 28 L-18339 28 L-18319 28 L-18300 28 L-18281 28 L-18262 28 L-18204 28 L-18184 28 L-18161 28 L-18127 28 L-18107 28 L-18087 28 L-18068 28 L-18050 28 L-18010 28 L-17991 28 L-17972 28 L-17946 28 L-17759 27 L-17739 27 L-17719 27 L-17697 27 L-17663 27 L-17642 27 L-17621 27 L-17604 27 L-17584 27 L-17565 27 L-17545 27 L-17527 27 L-17508 27 L-17487 27 L-17462 27 L-17446 27 L-17411 27 L-17390 27 L-17372 27 L-17352 27 L-17333 27 L-17312 27 L-17276 27 L-17256 27 L-17234 27 L-17218 27 L-17199 27 L-17178 26 L-17159 26 L-17121 26 L-17044 26 L-17019 26 L-16996 26 L-16968 26 L-16945 26 L-16918 26 L-16869 26 L-16848 26 L-16810 26 L-16791 26 L-16769 26 L-16753 26 L-16734 26 L-16714 26 L-16693 26 L-16657 26 L-16637 26 L-16580 26 L-16559 26 L-16533 26 L-16519 26 L-16501 26 L-16463 26 L-16444 26 L-16425 26 L-16405 26 L-16385 26 L-16367 26 L-16347 26 L-16327 26 L-16306 26 L-16270 26 L-16250 25 L-16231 25 L-16193 25 L-16154 25 L-16134 25 L-16115 25 L-16067 25 L-16039 25 L-16000 25 L-15969 25 L-15954 25 L-15882 25 L-15863 25 L-15841 25 L-15825 25 L-15806 25 L-15766 25 L-15689 25 L-15670 25 L-15651 25 L-15630 25 L-15605 25 L-15573 25 L-15554 25 L-15535 25 L-15496 25 L-15455 25 L-15377 25 L-15341 25 L-15302 25 L-15225 25 L-15205 25 L-15160 25 L-15138 25 L-15110 25 L-15071 25 L-15040 25 L-15026 25 L-15012 25 L-14971 25 L-14910 25 L-14896 25 L-14876 24 L-14856 24 L-14779 24 L-14741 24 L-14722 24 L-14676 24 L-14659 24 L-14641 24 L-14625 24 L-14586 24 L-14566 24 L-14547 24 L-14525 24 L-14509 24 L-14470 24 L-14432 24 L-14413 24 L-14393 24 L-14373 24 L-14354 24 L-14335 24 L-14315 24 L-14296 24 L-14232 24 L-14210 24 L-14182 24 L-14158 24 L-14131 23 L-14115 23 L-14099 23 L-14063 23 L-14044 23 L-14024 23 L-14005 23 L-13982 23 L-13967 23 L-13948 23 L-13928 23 L-13907 23 L-13890 23 L-13870 23 L-13851 23 L-13830 23 L-13812 23 L-13794 23 L-13747 23 L-13731 23 L-13712 23 L-13696 23 L-13675 23 L-13657 23 L-13638 22 L-13618 22 L-13581 22 L-13561 22 L-13518 22 L-13503 22 L-13484 22 L-13464 22 L-13426 22 L-13407 22 L-13387 22 L-13348 22 L-13329 22 L-13303 22 L-13253 22 L-13216 22 L-13201 22 L-13155 22 L-13116 22 L-13096 22 L-13076 22 L-13054 22 L-13038 22 L-13019 22 L-12978 22 L-12961 22 L-12922 22 L-12901 22 L-12884 22 L-12844 22 L-12819 22 L-12802 21 L-12768 21 L-12747 21 L-12729 21 L-12709 21 L-12668 21 L-12652 21 L-12574 21 L-12556 21 L-12516 21 L-12497 21 L-12478 21 L-12458 21 L-12439 21 L-12420 21 L-12325 21 L-12300 21 L-12272 21 L-12241 21 L-12226 21 L-12205 21 L-12167 21 L-12148 21 L-12125 21 L-12110 21 L-12091 21 L-12071 21 L-12049 21 L-12033 20 L-12013 20 L-11994 20 L-11973 20 L-11955 20 L-11937 20 L-11915 20 L-11890 20 L-11873 20 L-11855 20 L-11818 20 L-11800 20 L-11780 20 L-11762 20 L-11740 20 L-11704 20 L-11684 20 L-11661 20 L-11646 20 L-11627 20 L-11607 20 L-11569 20 L-11530 20 L-11510 19 L-11491 19 L-11446 19 L-11345 19 L-11329 19 L-11197 19 L-11181 19 L-11163 19 L-11142 19 L-11121 19 L-11084 19 L-11065 19 L-11044 19 L-10987 19 L-10961 19 L-10945 19 L-10928 19 L-10911 19 L-10891 19 L-10872 19 L-10833 19 L-10811 19 L-10775 19 L-10756 19 L-10734 19 L-10678 19 L-10659 19 L-10601 19 L-10562 19 L-10496 19 L-10468 19 L-10445 19 L-10418 19 L-10386 19 L-10369 19 L-10348 19 L-10330 19 L-10311 19 L-10292 19 L-10270 19 L-10253 19 L-10157 19 L-10099 19 L-10059 19 L-10033 19 L-10002 19 L-9963 19 L-9925 18 L-9905 18 L-9866 18 L-9827 18 L-9789 18 L-9770 18 L-9731 18 L-9712 18 L-9693 18 L-9673 18 L-9654 18 L-9634 18 L-9615 18 L-9588 18 L-9539 18 L-9500 18 L-9469 18 L-9454 18 L-9440 18 L-9402 18 L-9382 18 L-9341 18 L-9324 18 L-9306 18 L-9265 18 L-9228 18 L-9189 18 L-9151 18 L-9105 18 L-9090 18 L-9015 18 L-8976 17 L-8956 17 L-8938 17 L-8919 17 L-8822 17 L-8783 17 L-8725 17 L-8705 17 L-8687 17 L-8660 17 L-8638 17 L-8572 17 L-8555 17 L-8539 17 L-8526 17 L-8490 17 L-8433 17 L-8410 17 L-8376 17 L-8357 17 L-8318 17 L-8298 17 L-8279 17 L-8258 17 L-8241 17 L-8222 17 L-8201 17 L-8176 17 L-8125 17 L-8104 17 L-8047 17 L-8028 17 L-7932 17 L-7913 17 L-7873 17 L-7854 17 L-7836 16 L-7797 16 L-7777 16 L-7758 16 L-7710 16 L-7658 16 L-7631 16 L-7615 16 L-7599 16 L-7583 16 L-7545 16 L-7524 16 L-7505 16 L-7448 16 L-7428 16 L-7406 16 L-7390 16 L-7369 16 L-7351 16 L-7294 16 L-7272 16 L-7247 16 L-7212 16 L-7196 16 L-7176 16 L-7158 16 L-7138 16 L-7119 16 L-7097 16 L-7080 15 L-7061 15 L-7041 15 L-7019 15 L-7003 15 L-6984 15 L-6964 15 L-6944 15 L-6907 15 L-6887 15 L-6867 15 L-6802 15 L-6781 15 L-6753 15 L-6713 15 L-6682 15 L-6667 15 L-6634 15 L-6596 15 L-6576 15 L-6553 15 L-6539 15 L-6519 15 L-6499 15 L-6461 15 L-6441 15 L-6401 15 L-6344 15 L-6318 14 L-6283 14 L-6268 14 L-6246 14 L-6229 14 L-6190 14 L-6168 14 L-6152 14 L-6132 14 L-6113 14 L-6090 14 L-6075 14 L-6056 14 L-5978 14 L-5958 14 L-5938 14 L-5920 14 L-5901 14 L-5875 14 L-5801 14 L-5775 14 L-5759 14 L-5742 14 L-5726 14 L-5706 14 L-5688 14 L-5648 14 L-5625 14 L-5610 14 L-5591 14 L-5571 13 L-5550 13 L-5533 13 L-5437 13 L-5415 13 L-5390 13 L-5356 13 L-5339 13 L-5318 13 L-5300 13 L-5280 13 L-5262 13 L-5240 13 L-5224 13 L-5204 13 L-5184 13 L-5162 13 L-5146 13 L-5127 13 L-5087 13 L-5068 13 L-5030 13 L-4972 13 L-4947 13 L-4924 13 L-4896 13 L-4872 13 L-4846 13 L-4814 13 L-4798 13 L-4777 13 L-4759 13 L-4739 13 L-4720 13 L-4681 13 L-4663 13 L-4643 12 L-4621 12 L-4585 12 L-4565 12 L-4545 12 L-4527 12 L-4508 12 L-4487 12 L-4462 12 L-4446 12 L-4428 12 L-4411 12 L-4390 12 L-4372 12 L-4353 12 L-4333 12 L-4276 12 L-4255 12 L-4233 12 L-4140 12 L-4101 12 L-4082 12 L-4062 12 L-4044 12 L-3946 12 L-3919 12 L-3887 13 L-3869 13 L-3770 12 L-3753 12 L-3734 12 L-3714 12 L-3694 12 L-3676 12 L-3657 12 L-3637 12 L-3617 12 L-3580 12 L-3559 12 L-3502 12 L-3482 12 L-3463 12 L-3444 13 L-3425 13 L-3405 13 L-3384 13 L-3327 13 L-3306 13 L-3270 13 L-3250 13 L-3193 13 L-3173 13 L-3134 13 L-3115 13 L-3088 13 L-3039 13 L-3000 13 L-2940 13 L-2920 13 L-2902 13 L-2863 13 L-2825 13 L-2786 13 L-2708 13 L-2689 13 L-2670 13 L-2573 13 L-2554 13 L-2476 13 L-2419 13 L-2360 13 L-2321 13 L-2303 13 L-2283 13 L-2264 13 L-2138 13 L-2056 13 L-2042 13 L-2027 13 L-1991 13 L-1953 12 L-1934 12 L-1910 12 L-1896 12 L-1877 12 L-1818 12 L-1798 12 L-1780 12 L-1758 12 L-1741 11 L-1722 11 L-1701 11 L-1676 11 L-1659 11 L-1641 11 L-1625 11 L-1604 11 L-1586 11 L-1566 11 L-1526 11 L-1489 11 L-1470 11 L-1447 11 L-1413 11 L-1373 11 L-1354 11 L-1316 10 L-1296 10 L-1277 10 L-1258 10 L-1232 10 L-1210 10 L-1158 10 L-1131 10 L-1115 10 L-1099 10 L-1083 10 L-1062 10 L-1045 10 L-1025 10 L-948 10 L-928 10 L-907 10 L-890 10 L-870 10 L-830 10 L-794 10 L-772 10 L-747 10 L-730 10 L-712 10 L-675 10 L-657 10 L-637 10 L-619 10 L-597 10 L-580 9 L-561 9 L-541 9 L-518 9 L-464 9 L-444 9 L-426 9 L-367 9 L-303 9 L-281 9 L-203 9 L-170 9 L-134 9 L-116 9 L-96 9 L-53 9 L-39 9 L0 9 L21 9 L38 9 L58 9 L98 9 L115 9 L134 9 L155 9 L181 9 L197 8 L216 8 L253 8 L290 8 L309 8 L331 8 L367 8 L410 8 L464 8 L502 8 L521 8 L541 8 L561 8 L624 8 L699 8 L742 8 L758 8 L773 8 L812 8 L832 8 L875 8 L889 8 L908 8 L928 8 L950 8 L966 8 L986 8 L1027 8 L1062 7 L1083 7 L1109 7 L1126 7 L1144 7 L1160 7 L1182 997 L1212 996 L1238 996 L1260 996 L1276 7 L1296 7 L1315 7 L1353 7 L1372 7 L1392 7 L1412 7 L1469 7 L1489 7 L1508 7 L1553 6 L1575 6 L1603 6 L1628 6 L1655 6 L1686 6 L1722 6 L1740 6 L1760 6 L1837 6 L1857 6 L1878 6 L1895 6 L1915 6 L2012 6 L2038 6 L2054 6 L2072 6 L2088 6 L2127 6 L2147 6 L2187 6 L2224 6 L2243 6 L2266 6 L2282 6 L2320 6 L2378 6 L2417 6 L2504 6 L2531 6 L2554 6 L2596 6 L2669 6 L2688 6 L2746 6 L2765 6 L2785 6 L2805 6 L2842 5 L2882 5 L2901 5 L2940 5 L2966 5 L3017 5 L3055 5 L3115 5 L3133 5 L3152 5 L3193 5 L3268 5 L3288 5 L3306 5 L3365 5 L3384 5 L3410 5 L3432 5 L3498 5 L3529 5 L3543 5 L3579 5 L3617 5 L3658 5 L3693 5 L3713 5 L3734 5 L3752 5 L3771 5 L3791 5 L3811 5 L3829 5 L3909 5 L3965 4 L3984 4 L4003 4 L4043 4 L4061 4 L4122 4 L4158 4 L4178 4 L4216 4 L4255 4 L4274 4 L4312 4 L4428 4 L4460 4 L4475 4 L4509 4 L4526 4 L4546 4 L4589 4 L4623 4 L4681 4 L4702 4 L4741 4 L4798 4 L4823 4 L4840 4 L4874 4 L4895 4 L4914 4 L4933 4 L4990 4 L5009 4 L5052 4 L5067 4 L5106 4 L5126 4 L5145 3 L5184 3 L5203 3 L5222 3 L5241 3 L5289 3 L5317 3 L5342 3 L5369 3 L5385 3 L5400 3 L5437 3 L5494 3 L5532 3 L5571 3 L5593 3 L5609 3 L5630 3 L5669 3 L5686 3 L5705 3 L5727 3 L5752 3 L5769 3 L5787 3 L5803 3 L5824 2 L5842 2 L5862 2 L5880 2 L5902 2 L5918 2 L5938 2 L5981 2 L5996 2 L6015 2 L6035 2 L6055 2 L6073 2 L6112 2 L6196 2 L6218 2 L6246 2 L6285 2 L6315 2 L6330 2 L6365 2 L6403 2 L6446 2 L6461 2 L6500 1" />
</svg>
