<svg xmlns="http://www.w3.org/2000/svg" version="1.1" viewBox="0 0 6500 1000">
	<path fill="none" stroke="gold" stroke-width="125" stroke-linecap="round" stroke-linejoin="round" d="M0 33973  L-238433 33973 L-238249 33939 L-237758 33871 L-237465 33837 L-237153 33768 L-236919 33734 L-236866 33666 L-236806 33598 L-236653 33564 L-236613 33496 L-236480 33462 L-236188 33428 L-235647 33428 L-235037 33394 L-234989 33394 L-234349 33360 L-234315 33360 L-233790 33360 L-233657 33326 L-233267 33258 L-232939 33190 L-232822 33122 L-232610 33054 L-231893 33054 L-231324 33020 L-231216 33020 L-231042 32986 L-230820 32918 L-230419 32884 L-230393 32816 L-229465 32748 L-229378 32680 L-229295 32612 L-229225 32544 L-228928 32510 L-228776 32441 L-226886 32476 L-226785 32476 L-226523 32476 L-226229 32510 L-226088 32441 L-225839 32441 L-225803 32407 L-225645 32373 L-225181 32305 L-224928 32271 L-224716 32203 L-224465 32169 L-224116 32135 L-223189 32067 L-223095 31999 L-222684 31965 L-221513 31897 L-220324 31863 L-220232 31795 L-220205 31727 L-219939 31659 L-219640 31591 L-219511 31523 L-219473 31455 L-218659 31455 L-218275 31489 L-217214 31523 L-217153 31523 L-216888 32203 L-216417 32850 L-216224 33496 L-215961 34143 L-215624 34109 L-215488 34075 L-215033 34041 L-214289 34007 L-214272 33973 L-214107 33905 L-214038 33905 L-213522 33871 L-212494 33871 L-212297 33837 L-211809 33802 L-211447 33768 L-211038 33768 L-210653 33802 L-208949 33802 L-208851 33802 L-208779 33802 L-208718 33802 L-208534 33768 L-208197 33768 L-207557 33734 L-207480 33700 L-207418 33700 L-207232 33666 L-207152 33666 L-206975 33632 L-206956 33598 L-206726 33598 L-206338 33564 L-205449 33564 L-205410 33530 L-205322 33496 L-205294 33428 L-204286 33394 L-204137 33326 L-204112 33292 L-203979 33258 L-203940 33224 L-202681 33190 L-202624 33190 L-202084 33156 L-202031 33156 L-201985 33156 L-201590 33122 L-201450 33088 L-201250 33054 L-201104 33054 L-200939 33054 L-200662 33088 L-200303 33088 L-199751 33054 L-199106 33020 L-198847 32952 L-198694 32918 L-198293 32884 L-198252 32850 L-198132 32816 L-198070 32850 L-198056 32850 L-197962 32850 L-197669 32816 L-197518 32680 L-197187 32612 L-197110 32544 L-197034 32510 L-196807 32407 L-196741 32339 L-196513 32271 L-196461 32203 L-196296 32169 L-195290 32135 L-195107 32101 L-194556 32067 L-194163 31999 L-193765 31965 L-192915 31897 L-192837 31863 L-192258 31829 L-191816 31829 L-191576 31795 L-191418 31795 L-191018 31727 L-190997 31727 L-190552 31693 L-190147 31659 L-190011 31591 L-189836 31523 L-189699 31455 L-189449 31387 L-188449 31353 L-188367 31319 L-188231 31285 L-188193 31251 L-187303 31217 L-187087 31183 L-186644 31149 L-186527 31115 L-186470 31080 L-185794 31080 L-185693 31046 L-185664 31046 L-184323 31012 L-183917 30978 L-183877 30944 L-182949 30910 L-182851 30876 L-182718 30842 L-182314 30808 L-182288 30774 L-182195 30740 L-181978 30706 L-181567 30638 L-180413 30570 L-180122 30502 L-180093 30434 L-179485 30400 L-179235 30332 L-179215 30298 L-178286 30264 L-178235 30196 L-178112 30162 L-178095 30094 L-177939 30060 L-177764 29992 L-177627 29958 L-177570 29924 L-177463 29890 L-177377 29856 L-177144 29822 L-177069 29788 L-176761 29753 L-176643 29719 L-176473 29685 L-176382 29651 L-176279 29651 L-176256 29617 L-176179 29617 L-176081 29549 L-175714 29515 L-175609 29481 L-175106 29447 L-174654 29413 L-174616 29379 L-174592 29345 L-174551 29311 L-174422 29277 L-174322 29243 L-173880 29209 L-173598 29175 L-173005 29141 L-172875 29107 L-172601 29039 L-172448 29005 L-172295 28971 L-172210 28903 L-172132 28869 L-171946 28835 L-171895 28835 L-171868 28801 L-171788 28767 L-171765 28733 L-171482 28665 L-170878 28597 L-169882 28563 L-169585 28529 L-168851 28495 L-168606 28461 L-168516 28427 L-167939 28392 L-167241 28358 L-166488 28324 L-166170 28290 L-165787 28222 L-165710 28188 L-165075 28154 L-164890 28120 L-164802 28120 L-164673 28120 L-164360 28086 L-164310 28052 L-164168 28018 L-164147 27984 L-163179 27950 L-162634 27916 L-162155 27916 L-162094 27916 L-161771 27916 L-161749 27882 L-161687 27882 L-161477 27848 L-161400 27814 L-161345 27780 L-161323 27746 L-161283 27712 L-161268 27678 L-160511 27644 L-160494 27610 L-159695 27576 L-159542 27542 L-158637 27508 L-158131 27474 L-157901 27406 L-157860 27406 L-157745 27372 L-157568 27338 L-156814 27372 L-156679 27338 L-156515 27304 L-156197 27270 L-156021 27202 L-154999 27134 L-154976 27066 L-154724 27031 L-154511 26963 L-153877 26929 L-153640 26861 L-153607 26793 L-153429 26725 L-153349 26657 L-153259 26623 L-153194 26555 L-152754 26487 L-152731 26453 L-152190 26419 L-151934 26385 L-151439 26351 L-150562 26317 L-150525 26283 L-150472 26249 L-150431 26215 L-150314 26181 L-150038 26147 L-149830 26079 L-149633 26011 L-149610 25943 L-149560 25875 L-149521 25841 L-149443 25807 L-148845 25739 L-148785 25705 L-148682 25670 L-148527 25636 L-147895 25602 L-147215 25568 L-146912 25500 L-146565 25466 L-146368 25432 L-146319 25364 L-145999 25330 L-145371 25296 L-145225 25262 L-145188 25228 L-145131 25194 L-145054 25126 L-144813 25126 L-144724 25092 L-144630 25058 L-144336 25024 L-144202 24990 L-144142 24956 L-144105 24888 L-143833 24888 L-142827 24854 L-142651 24820 L-142601 24820 L-142308 24786 L-142116 24718 L-141782 24684 L-141276 24650 L-140714 24582 L-140699 24514 L-140682 24480 L-140582 24412 L-140467 24343 L-140428 24275 L-140390 24241 L-140325 24241 L-140297 24207 L-140158 24241 L-139865 24241 L-139815 24241 L-139710 24241 L-139445 24207 L-138980 24173 L-138836 24173 L-138781 24105 L-138724 24071 L-138533 24037 L-138168 24003 L-137953 24003 L-137759 24003 L-137701 24003 L-137642 23935 L-137488 23901 L-137218 23867 L-136789 24037 L-136773 24037 L-136696 24003 L-136632 23969 L-136502 23731 L-136479 23697 L-136195 23663 L-136147 23629 L-136093 23595 L-135630 23561 L-135591 23561 L-135551 23527 L-135360 23493 L-134880 23459 L-134393 23425 L-134376 23391 L-134338 23357 L-134082 23323 L-134005 23255 L-133775 23221 L-133759 23153 L-133464 23085 L-133022 23051 L-132575 23017 L-132070 22982 L-131917 22948 L-131630 22914 L-131590 22846 L-131259 22812 L-131037 22778 L-130520 22710 L-130444 22676 L-130196 22608 L-130002 22540 L-129942 22506 L-129166 22472 L-129092 22472 L-128861 22438 L-128844 22438 L-128782 22404 L-128587 22370 L-128123 22370 L-128099 22336 L-127970 22336 L-126669 22336 L-126652 22336 L-126575 22302 L-126482 22302 L-126264 22302 L-126112 22268 L-125934 22302 L-125880 22336 L-125593 22370 L-125553 22370 L-125184 22370 L-124743 22370 L-124560 22370 L-124239 22336 L-123944 22336 L-123498 22268 L-123426 22234 L-122964 22166 L-122526 22132 L-122344 22098 L-120890 22030 L-120758 21996 L-120301 21928 L-120075 21894 L-119688 21826 L-119172 21758 L-118218 21690 L-117424 21621 L-116749 21587 L-116324 21519 L-116012 21485 L-115782 21383 L-115099 21281 L-115086 21179 L-114876 21043 L-114854 21009 L-114680 20941 L-113730 20907 L-113462 20839 L-112646 20805 L-112336 20737 L-112298 20703 L-112241 20635 L-111624 20601 L-110986 20533 L-109360 20499 L-108686 20465 L-108044 20465 L-107967 20465 L-107910 20465 L-107875 20465 L-107846 20431 L-107735 20363 L-107717 20329 L-107694 20294 L-107541 20260 L-107487 20192 L-107409 20158 L-107290 20124 L-107192 20090 L-107075 20056 L-106805 19988 L-106535 19954 L-106518 19886 L-106318 19852 L-106171 19784 L-105945 19750 L-105810 19716 L-105502 19682 L-105442 19648 L-105089 19580 L-104740 19546 L-104639 19512 L-104575 19444 L-104515 19410 L-104130 19342 L-103750 19308 L-103645 19274 L-103385 19240 L-103114 19172 L-102955 19138 L-102922 19104 L-102860 19070 L-102719 19036 L-102535 19002 L-102491 18968 L-102202 18968 L-102186 18933 L-101953 18933 L-101892 18899 L-101854 18899 L-101274 18865 L-101140 18831 L-101117 18695 L-101099 18457 L-101081 18185 L-101065 17913 L-101041 17641 L-101025 17436 L-101003 17198 L-100987 16960 L-100964 16824 L-100947 16688 L-100925 16586 L-100908 16518 L-100860 16416 L-100787 16314 L-100753 16143 L-100729 16007 L-100693 15871 L-100652 15735 L-100615 15667 L-100599 15531 L-100575 15429 L-100538 15361 L-100521 15259 L-100498 15191 L-100480 15123 L-100462 15055 L-100446 14987 L-100416 14884 L-100390 14782 L-100345 14748 L-100328 14680 L-100286 14646 L-100238 14578 L-100168 14510 L-100152 14442 L-100136 14374 L-100074 14340 L-100035 14306 L-99996 14272 L-99830 14238 L-99765 14204 L-99749 14170 L-99705 14102 L-99646 14068 L-99433 14034 L-99400 14000 L-99358 13966 L-99280 13932 L-98742 13898 L-98664 13864 L-98560 13796 L-98471 13762 L-98295 13728 L-97944 13694 L-97788 13660 L-97351 13626 L-97194 13592 L-97064 13558 L-96360 13489 L-96159 13455 L-95199 13387 L-94716 13353 L-94617 13353 L-94525 13319 L-94280 13285 L-94207 13251 L-93764 13183 L-93668 13149 L-93653 13115 L-93637 13081 L-93612 13047 L-93146 13013 L-92929 12979 L-92789 12945 L-92495 12911 L-92407 12877 L-92365 12843 L-92336 12809 L-92163 12775 L-92104 12741 L-92028 12707 L-91947 12673 L-91878 12673 L-91568 12639 L-91483 12605 L-91270 12571 L-91234 12537 L-90551 12503 L-90452 12469 L-90247 12435 L-90201 12401 L-89922 12367 L-89860 12333 L-89843 12265 L-89765 12231 L-89457 12162 L-89433 12128 L-89379 12060 L-89356 12026 L-89233 11992 L-89098 11924 L-88853 11890 L-88728 11890 L-88081 11856 L-88065 11856 L-88040 11856 L-87860 11788 L-87784 11754 L-87692 11720 L-87264 11686 L-86848 11652 L-86455 11584 L-86377 11550 L-86358 11516 L-85994 11482 L-85758 11448 L-85530 11414 L-85217 11380 L-85139 11346 L-85058 11278 L-84880 11210 L-84864 11176 L-84599 11108 L-84519 11074 L-84289 11040 L-84063 11006 L-83747 11006 L-83572 10972 L-83211 10972 L-82819 10938 L-82750 10870 L-82686 10835 L-82545 10767 L-82494 10733 L-82392 10665 L-81890 10631 L-81693 10597 L-81446 10563 L-81261 10529 L-80961 10495 L-80885 10461 L-80719 10393 L-79835 10359 L-79806 10291 L-79683 10223 L-79104 10189 L-79027 10155 L-78313 10155 L-78001 10155 L-77788 10155 L-77771 10155 L-77385 10155 L-76860 10087 L-76414 10053 L-76084 10019 L-75931 9985 L-75605 9985 L-75427 9951 L-75345 9951 L-75139 9883 L-74964 9849 L-74035 9815 L-73145 9781 L-73106 9747 L-72878 9747 L-72499 9713 L-71712 9679 L-71477 9645 L-71401 9611 L-71044 9577 L-70472 9509 L-70205 9474 L-69819 9440 L-69715 9440 L-69545 9440 L-68927 9440 L-68715 9440 L-68408 9440 L-68355 9406 L-68227 9372 L-68174 9338 L-68055 9304 L-67718 9236 L-66759 9202 L-66628 9134 L-66426 9100 L-65795 9066 L-65483 9032 L-65070 8998 L-65042 8964 L-64897 8930 L-64477 8896 L-63144 8896 L-63097 8862 L-62969 8794 L-62952 8760 L-62374 8692 L-62168 8658 L-62139 8624 L-62098 8590 L-62040 8556 L-62003 8522 L-61925 8488 L-61782 8454 L-61327 8420 L-61209 8386 L-60924 8352 L-60551 8318 L-60455 8284 L-60128 8250 L-59774 8216 L-59604 8182 L-59556 8148 L-59447 8113 L-59358 8079 L-59330 8045 L-59254 7977 L-58951 7943 L-58917 7875 L-58845 7841 L-58477 7807 L-58142 7773 L-58061 7773 L-57841 7739 L-57670 7705 L-57642 7671 L-57145 7637 L-56596 7569 L-55715 7535 L-55617 7467 L-55540 7433 L-55265 7399 L-55018 7331 L-54944 7297 L-54882 7229 L-54764 7195 L-54721 7161 L-54611 7127 L-54534 7059 L-53834 7025 L-53588 6991 L-53548 6957 L-53392 6923 L-52793 6923 L-52566 6923 L-52474 6923 L-51999 6923 L-51401 6855 L-50882 6821 L-50861 6787 L-50715 6752 L-50395 6752 L-49853 6752 L-49621 6752 L-49451 6752 L-48965 6718 L-48737 6684 L-48652 6650 L-48306 6616 L-47980 6616 L-47457 6582 L-47129 6548 L-46529 6514 L-46331 6446 L-46279 6412 L-46239 6378 L-45958 6344 L-45273 6276 L-44963 6242 L-44938 6174 L-44747 6140 L-44524 6106 L-44438 6072 L-43774 6004 L-43750 5970 L-43528 5902 L-43198 5868 L-42846 5800 L-42642 5766 L-42409 5698 L-42151 5664 L-41961 5596 L-41914 5562 L-41687 5528 L-41653 5494 L-41496 5460 L-41282 5425 L-41109 5391 L-41017 5357 L-40740 5323 L-40496 5289 L-40181 5255 L-39755 5255 L-39717 5255 L-39234 5255 L-39001 5255 L-38789 5221 L-38563 5187 L-38013 5187 L-37766 5153 L-36932 5153 L-36876 5119 L-36854 5085 L-36696 5051 L-36235 5017 L-36194 4983 L-35854 4915 L-35721 4881 L-35498 4847 L-34926 4813 L-34454 4779 L-34259 4745 L-34067 4711 L-33877 4677 L-33775 4643 L-33407 4609 L-33361 4575 L-33279 4541 L-31986 4507 L-31938 4473 L-31669 4473 L-31524 4473 L-30973 4473 L-30856 4439 L-30775 4405 L-30415 4371 L-30192 4337 L-29911 4303 L-29581 4235 L-29073 4201 L-28961 4167 L-28882 4133 L-28718 4099 L-28423 4099 L-27955 4099 L-27758 4133 L-27708 4133 L-27058 4099 L-26936 4064 L-26482 4064 L-26446 4030 L-25978 3996 L-25867 3962 L-25851 3928 L-25635 3928 L-25454 3894 L-24922 3894 L-23893 3894 L-23693 3860 L-23235 3826 L-22287 3758 L-22188 3724 L-21834 3656 L-21773 3622 L-21759 3588 L-21723 3554 L-21354 3520 L-21234 3486 L-20992 3452 L-20828 3418 L-20641 3384 L-20520 3350 L-19450 3282 L-18591 3248 L-18379 3180 L-18282 3146 L-18108 3078 L-17774 3044 L-17703 3010 L-17645 2976 L-17470 2976 L-17081 2942 L-16845 2908 L-16734 2874 L-16617 2840 L-15636 2806 L-15611 2772 L-15017 2703 L-14984 2703 L-14835 2669 L-14551 2635 L-13639 2635 L-12693 2635 L-12540 2601 L-12438 2601 L-12306 2567 L-12163 2533 L-12137 2499 L-12022 2465 L-11804 2431 L-11123 2397 L-10993 2363 L-10690 2329 L-10450 2261 L-10117 2227 L-9479 2193 L-9136 2125 L-9074 2091 L-8919 2091 L-7997 2091 L-7527 2091 L-7483 2091 L-7470 2057 L-7429 2023 L-7407 1989 L-7380 1955 L-7236 1921 L-6814 1887 L-6478 1887 L-6287 1853 L-5859 1853 L-5671 1819 L-5282 1751 L-4748 1717 L-4375 1683 L-4354 1683 L-4104 1649 L-3985 1615 L-3909 1581 L-3774 1547 L-3734 1513 L-3654 1479 L-3260 1445 L-2764 1411 L-2652 1342 L-2479 1308 L-2171 1274 L-1723 1240 L-1400 1206 L-1258 1138 L-831 1070 L-678 1002 L-622 934 L190 900 L210 866 L582 832 L639 832 L1768 798 L1836 798 L2394 764 L2589 730 L2725 696 L2959 662 L3306 628 L3340 560 L3375 526 L3444 458 L3793 424 L3965 390 L4450 356 L4466 322 L4791 288 L4949 254 L6089 186 L6114 152 L6306 84 L6500 50" />
</svg>
