<svg xmlns="http://www.w3.org/2000/svg" version="1.1" viewBox="0 0 6500 1000">
	<path fill="none" stroke="gold" stroke-width="125" stroke-linecap="round" stroke-linejoin="round" d="M0 8066  L-71422 8066 L-71237 8023 L-70747 7937 L-70454 7894 L-70142 7808 L-69908 7764 L-69855 7678 L-69795 7592 L-69642 7549 L-69602 7463 L-69469 7420 L-69177 7376 L-68636 7376 L-68026 7333 L-67978 7333 L-67338 7290 L-67304 7290 L-66779 7290 L-66646 7247 L-66256 7161 L-65928 7075 L-65811 6988 L-65599 6902 L-64882 6902 L-64312 6859 L-64205 6859 L-64031 6816 L-63809 6730 L-63408 6686 L-63382 6600 L-62454 6514 L-62367 6428 L-62284 6341 L-62214 6255 L-61917 6212 L-61765 6126 L-59875 6169 L-59774 6169 L-59512 6169 L-59218 6212 L-59077 6126 L-58828 6126 L-58792 6083 L-58634 6040 L-58170 5953 L-57917 5910 L-57705 5824 L-57454 5781 L-57105 5738 L-56178 5652 L-56084 5565 L-55673 5522 L-54502 5436 L-53313 5393 L-53221 5307 L-53194 5220 L-52928 5134 L-52629 5048 L-52500 4962 L-52462 4875 L-51648 4875 L-51264 4918 L-50203 4962 L-50142 4962 L-49877 5824 L-49406 6643 L-49213 7463 L-48950 8282 L-48613 8239 L-48477 8196 L-48022 8153 L-47278 8109 L-47261 8066 L-47096 7980 L-47027 7980 L-46511 7937 L-45483 7937 L-45286 7894 L-44798 7851 L-44436 7808 L-44027 7808 L-43642 7851 L-41938 7851 L-41840 7851 L-41768 7851 L-41707 7851 L-41523 7808 L-41186 7808 L-40546 7764 L-40469 7721 L-40407 7721 L-40221 7678 L-40141 7678 L-39964 7635 L-39945 7592 L-39715 7592 L-39327 7549 L-38438 7549 L-38399 7506 L-38311 7463 L-38283 7376 L-37275 7333 L-37126 7247 L-37101 7204 L-36968 7161 L-36929 7118 L-35670 7075 L-35613 7075 L-35073 7031 L-35020 7031 L-34974 7031 L-34579 6988 L-34439 6945 L-34239 6902 L-34092 6902 L-33928 6902 L-33651 6945 L-33292 6945 L-32740 6902 L-32095 6859 L-31836 6773 L-31683 6730 L-31282 6686 L-31241 6643 L-31121 6600 L-31059 6643 L-31045 6643 L-30951 6643 L-30658 6600 L-30507 6428 L-30176 6341 L-30099 6255 L-30023 6212 L-29796 6083 L-29730 5996 L-29502 5910 L-29449 5824 L-29285 5781 L-28279 5738 L-28096 5695 L-27545 5652 L-27152 5565 L-26754 5522 L-25904 5436 L-25826 5393 L-25247 5350 L-24805 5350 L-24564 5307 L-24407 5307 L-24006 5220 L-23986 5220 L-23541 5177 L-23136 5134 L-23000 5048 L-22824 4962 L-22688 4875 L-22438 4789 L-21438 4746 L-21356 4703 L-21220 4660 L-21182 4617 L-20292 4573 L-20076 4530 L-19633 4487 L-19516 4444 L-19459 4401 L-18782 4401 L-18682 4358 L-18653 4358 L-17312 4315 L-16906 4272 L-16866 4228 L-15938 4185 L-15840 4142 L-15707 4099 L-15303 4056 L-15276 4013 L-15183 3970 L-14967 3927 L-14556 3840 L-13402 3754 L-13111 3668 L-13082 3582 L-12474 3539 L-12224 3452 L-12204 3409 L-11275 3366 L-11224 3280 L-11101 3237 L-11084 3150 L-10928 3107 L-10752 3021 L-10616 2978 L-10559 2935 L-10451 2892 L-10366 2849 L-10133 2805 L-10058 2762 L-9750 2719 L-9632 2676 L-9462 2633 L-9371 2590 L-9268 2590 L-9245 2547 L-9168 2547 L-9070 2460 L-8703 2417 L-8598 2374 L-8095 2331 L-7643 2288 L-7605 2245 L-7581 2202 L-7540 2159 L-7411 2115 L-7311 2072 L-6869 2029 L-6587 1986 L-5994 1943 L-5864 1900 L-5590 1814 L-5437 1771 L-5284 1727 L-5199 1641 L-5121 1598 L-4935 1555 L-4884 1555 L-4857 1512 L-4777 1469 L-4754 1426 L-4471 1339 L-3867 1253 L-2871 1210 L-2573 1167 L-1840 1124 L-1595 1081 L-1505 1037 L-928 994 L-230 951 L522 908 L840 865 L1223 779 L1300 736 L1935 692 L2120 649 L2208 649 L2337 649 L2650 606 L2700 563 L2842 520 L2863 477 L3831 434 L4376 391 L4855 391 L4916 391 L5239 391 L5261 347 L5323 347 L5533 304 L5610 261 L5665 218 L5687 175 L5727 132 L5742 89 L6500 46" />
</svg>
