<svg xmlns="http://www.w3.org/2000/svg" version="1.1" viewBox="0 0 6500 1000">
	<path fill="none" stroke="gold" stroke-width="125" stroke-linecap="round" stroke-linejoin="round" d="M0 920  L-16844 920 L-16432 897 L-16207 908 L-16150 897 L-16112 874 L-15928 851 L-15438 828 L-15144 816 L-14833 805 L-14598 782 L-14545 759 L-14486 736 L-14332 724 L-14292 713 L-14159 701 L-13867 713 L-13326 701 L-12716 678 L-12668 701 L-12028 678 L-11995 690 L-11469 667 L-11336 655 L-10946 609 L-10618 586 L-10501 563 L-10290 586 L-9573 575 L-9003 563 L-8896 552 L-8721 529 L-8500 506 L-8098 494 L-8072 471 L-7145 448 L-7057 425 L-6975 402 L-6905 379 L-6607 368 L-6455 356 L-4565 425 L-4464 391 L-4202 368 L-3908 391 L-3767 368 L-3518 356 L-3483 345 L-3324 322 L-2861 310 L-2608 287 L-2395 276 L-2144 264 L-1795 241 L-868 218 L-774 195 L-363 184 L806 172 L1995 149 L2088 126 L2115 103 L2381 69 L2680 46 L2809 34 L2846 11 L3661 92 L4045 80 L5105 57 L5167 46 L5432 977 L5903 966 L6095 943 L6359 931" />
</svg>
