<svg xmlns="http://www.w3.org/2000/svg" version="1.1" viewBox="0 0 6500 1000">
	<path fill="none" stroke="gold" stroke-width="125" stroke-linecap="round" stroke-linejoin="round" d="M0 920  L-19283 920 L-18871 897 L-18646 908 L-18589 897 L-18551 874 L-18367 851 L-17876 828 L-17583 816 L-17272 805 L-17037 782 L-16984 759 L-16924 736 L-16771 724 L-16731 713 L-16598 701 L-16306 713 L-15765 701 L-15155 678 L-15107 701 L-14467 678 L-14433 690 L-13908 667 L-13775 655 L-13385 609 L-13057 586 L-12940 563 L-12729 586 L-12012 575 L-11442 563 L-11334 552 L-11160 529 L-10939 506 L-10537 494 L-10511 471 L-9583 448 L-9496 425 L-9414 402 L-9344 379 L-9046 368 L-8894 356 L-7004 425 L-6903 391 L-6641 368 L-6347 391 L-6206 368 L-5957 356 L-5921 345 L-5763 322 L-5300 310 L-5047 287 L-4834 276 L-4583 264 L-4234 241 L-3307 218 L-3213 195 L-2802 184 L-1631 172 L-442 149 L-350 126 L-323 103 L-57 69 L241 46 L370 34 L408 11 L1222 92 L1606 80 L2667 57 L2728 46 L2993 977 L3464 966 L3657 943 L3920 931 L4257 920 L4393 931 L4848 897 L5591 885 L5609 862 L5774 851 L5842 874 L6359 862" />
</svg>
