<svg xmlns="http://www.w3.org/2000/svg" version="1.1" viewBox="0 0 6500 1000">
	<path fill="none" stroke="gold" stroke-width="125" stroke-linecap="round" stroke-linejoin="round" d="M0 1229  L-29264 1229 L-28852 1138 L-28627 1184 L-28570 1138 L-28532 1047 L-28348 956 L-27858 865 L-27564 819 L-27253 774 L-27018 682 L-26965 591 L-26906 500 L-26752 455 L-26712 409 L-26579 364 L-26287 409 L-25746 364 L-25136 272 L-25088 364 L-24448 272 L-24415 318 L-23889 227 L-23756 181 L-23366 0 L-23038 -91 L-22921 -182 L-22710 -91 L-21993 -137 L-21423 -182 L-21316 -228 L-21141 -319 L-20920 -410 L-20518 -456 L-20492 -547 L-19565 -638 L-19477 -729 L-19395 -820 L-19325 -911 L-19027 -957 L-18875 -1002 L-16985 -729 L-16884 -866 L-16622 -957 L-16328 -866 L-16187 -957 L-15938 -1002 L-15903 -1048 L-15744 -1139 L-15281 -1184 L-15028 -1276 L-14815 -1321 L-14564 -1367 L-14215 -1458 L-13288 -1549 L-13194 -1640 L-12783 -1686 L-11613 -1731 L-10424 -1822 L-10331 -1913 L-10304 -2005 L-10038 -2141 L-9739 -2232 L-9610 -2278 L-9573 -2369 L-8758 -2050 L-8374 -2096 L-7314 -2187 L-7252 -2232 L-6987 1457 L-6516 1411 L-6324 1320 L-6060 1275 L-5723 1229 L-5587 1275 L-5132 1138 L-4389 1092 L-4371 1001 L-4206 956 L-4138 1047 L-3622 1001 L-2593 910 L-2397 819 L-1908 865 L-1546 819 L-1138 910 L-752 956 L951 910 L1049 865 L1120 910 L1182 865 L1366 819 L1703 774 L2343 682 L2420 774 L2481 728 L2668 682 L2748 637 L2925 591 L2944 637 L3174 591 L3562 546 L4450 500 L4490 455 L4578 364 L4605 318 L5613 227 L5763 181 L5787 136 L5920 90 L5960 45" />
</svg>
