<svg xmlns="http://www.w3.org/2000/svg" version="1.1" viewBox="0 0 6500 1000">
	<path fill="none" stroke="gold" stroke-width="125" stroke-linecap="round" stroke-linejoin="round" d="M0 3942  L-1320798 3942 L-1320614 3942 L-1320123 3942 L-1319830 3942 L-1319519 3942 L-1319284 3942 L-1319231 3942 L-1319171 3942 L-1319018 3942 L-1318978 3942 L-1318845 3942 L-1318553 3942 L-1318012 3942 L-1317402 3942 L-1317354 3942 L-1316714 3942 L-1316680 3942 L-1316155 3942 L-1316022 3942 L-1315632 3942 L-1315304 3942 L-1315187 3941 L-1314976 3941 L-1314259 3941 L-1313689 3941 L-1313581 3941 L-1313407 3941 L-1313186 3941 L-1312784 3941 L-1312758 3941 L-1311830 3941 L-1311743 3941 L-1311661 3941 L-1311591 3941 L-1311293 3941 L-1311141 3941 L-1309251 3941 L-1309150 3941 L-1308888 3941 L-1308594 3941 L-1308453 3941 L-1308204 3941 L-1308168 3941 L-1308010 3941 L-1307547 3941 L-1307294 3941 L-1307081 3941 L-1306830 3941 L-1306481 3941 L-1305554 3941 L-1305460 3941 L-1305049 3941 L-1303878 3941 L-1302689 3941 L-1302597 3941 L-1302570 3941 L-1302304 3941 L-1302005 3941 L-1301876 3941 L-1301838 3941 L-1301024 3941 L-1300640 3941 L-1299579 3941 L-1299518 3941 L-1299253 3941 L-1298782 3941 L-1298589 3942 L-1298326 3942 L-1297989 3942 L-1297853 3942 L-1297398 3942 L-1296655 3942 L-1296637 3942 L-1296472 3942 L-1296404 3942 L-1295887 3942 L-1294859 3942 L-1294663 3942 L-1294174 3942 L-1293812 3942 L-1293403 3942 L-1293018 3942 L-1291314 3942 L-1291216 3942 L-1291145 3942 L-1291083 3942 L-1290899 3942 L-1290562 3942 L-1289922 3942 L-1289845 3942 L-1289784 3942 L-1289597 3942 L-1289517 3942 L-1289340 3942 L-1289321 3942 L-1289091 3942 L-1288703 3942 L-1287815 3942 L-1287775 3942 L-1287687 3942 L-1287660 3942 L-1286652 3942 L-1286502 3942 L-1286478 3942 L-1286345 3942 L-1286305 3942 L-1285047 3942 L-1284989 3942 L-1284449 3942 L-1284397 3942 L-1284350 3942 L-1283955 3941 L-1283815 3941 L-1283615 3941 L-1283469 3941 L-1283304 3941 L-1283027 3941 L-1282669 3941 L-1282116 3941 L-1281471 3941 L-1281212 3941 L-1281059 3941 L-1280658 3941 L-1280618 3941 L-1280497 3941 L-1280435 3941 L-1280421 3941 L-1280327 3941 L-1280034 3941 L-1279883 3941 L-1279553 3941 L-1279475 3941 L-1279399 3941 L-1279172 3941 L-1279106 3941 L-1278878 3941 L-1278826 3941 L-1278661 3941 L-1277655 3941 L-1277472 3941 L-1276921 3941 L-1276528 3941 L-1276130 3941 L-1275280 3941 L-1275202 3941 L-1274623 3941 L-1274182 3941 L-1273941 3941 L-1273783 3941 L-1273383 3941 L-1273362 3941 L-1272917 3941 L-1272512 3941 L-1272376 3941 L-1272201 3941 L-1272064 3941 L-1271814 3941 L-1270814 3941 L-1270732 3941 L-1270597 3941 L-1270558 3941 L-1269668 3940 L-1269452 3940 L-1269009 3940 L-1268892 3940 L-1268835 3940 L-1268159 3940 L-1268058 3940 L-1268030 3940 L-1266688 3940 L-1266282 3940 L-1266242 3940 L-1265314 3940 L-1265216 3940 L-1265083 3940 L-1264679 3940 L-1264653 3940 L-1264560 3940 L-1264343 3940 L-1263932 3940 L-1262779 3940 L-1262487 3940 L-1262458 3940 L-1261850 3940 L-1261600 3940 L-1261580 3940 L-1260651 3940 L-1260600 3940 L-1260477 3940 L-1260460 3940 L-1260304 3940 L-1260129 3940 L-1259992 3940 L-1259936 3940 L-1259828 3940 L-1259742 3940 L-1259509 3940 L-1259434 3940 L-1259126 3940 L-1259008 3940 L-1258838 3940 L-1258747 3940 L-1258644 3940 L-1258621 3940 L-1258544 3940 L-1258446 3940 L-1258079 3940 L-1257975 3940 L-1257471 3940 L-1257019 3940 L-1256981 3940 L-1256957 3940 L-1256916 3939 L-1256788 3939 L-1256687 3939 L-1256245 3939 L-1255963 3939 L-1255371 3939 L-1255240 3939 L-1254966 3939 L-1254813 3939 L-1254660 3939 L-1254575 3939 L-1254497 3939 L-1254311 3939 L-1254261 3939 L-1254233 3939 L-1254153 3939 L-1254130 3939 L-1253847 3939 L-1253243 3939 L-1252248 3939 L-1251950 3939 L-1251216 3939 L-1250971 3939 L-1250881 3939 L-1250304 3939 L-1249606 3939 L-1248853 3939 L-1248535 3939 L-1248152 3939 L-1248075 3939 L-1247441 3939 L-1247255 3939 L-1247167 3939 L-1247038 3939 L-1246725 3939 L-1246676 3939 L-1246534 3939 L-1246512 3939 L-1245544 3939 L-1244999 3939 L-1244521 3939 L-1244460 3939 L-1244136 3939 L-1244114 3939 L-1244052 3939 L-1243842 3939 L-1243765 3939 L-1243710 3939 L-1243688 3939 L-1243649 3939 L-1243633 3939 L-1242876 3939 L-1242859 3939 L-1242060 3939 L-1241907 3939 L-1241002 3939 L-1240496 3939 L-1240267 3938 L-1240225 3938 L-1240110 3938 L-1239934 3938 L-1239179 3938 L-1239044 3938 L-1238880 3938 L-1238562 3938 L-1238386 3938 L-1237364 3938 L-1237341 3938 L-1237090 3938 L-1236876 3938 L-1236243 3938 L-1236005 3938 L-1235972 3938 L-1235794 3938 L-1235714 3938 L-1235624 3938 L-1235560 3938 L-1235119 3938 L-1235096 3938 L-1234555 3938 L-1234299 3938 L-1233804 3938 L-1232927 3938 L-1232890 3938 L-1232838 3938 L-1232796 3938 L-1232679 3938 L-1232403 3938 L-1232196 3938 L-1231998 3938 L-1231975 3938 L-1231925 3938 L-1231886 3938 L-1231808 3938 L-1231210 3938 L-1231150 3938 L-1231047 3938 L-1230893 3938 L-1230261 3938 L-1229580 3938 L-1229277 3937 L-1228930 3937 L-1228733 3937 L-1228685 3937 L-1228364 3937 L-1227737 3937 L-1227590 3937 L-1227554 3937 L-1227496 3937 L-1227419 3937 L-1227178 3937 L-1227090 3937 L-1226995 3937 L-1226702 3937 L-1226567 3937 L-1226507 3937 L-1226470 3937 L-1226198 3937 L-1225192 3937 L-1225016 3937 L-1224966 3937 L-1224673 3937 L-1224481 3937 L-1224148 3937 L-1223641 3937 L-1223079 3937 L-1223064 3937 L-1223047 3937 L-1222947 3937 L-1222832 3937 L-1222793 3937 L-1222756 3937 L-1222690 3937 L-1222662 3937 L-1222523 3937 L-1222230 3937 L-1222180 3937 L-1222075 3937 L-1221810 3937 L-1221345 3937 L-1221201 3937 L-1221146 3937 L-1221089 3937 L-1220898 3937 L-1220533 3937 L-1220319 3937 L-1220124 3937 L-1220066 3937 L-1220007 3937 L-1219853 3937 L-1219584 3937 L-1219154 3937 L-1219138 3937 L-1219061 3937 L-1218997 3937 L-1218867 3937 L-1218844 3937 L-1218560 3937 L-1218512 3937 L-1218458 3936 L-1217995 3936 L-1217957 3936 L-1217916 3936 L-1217726 3936 L-1217245 3936 L-1216758 3936 L-1216742 3936 L-1216704 3936 L-1216447 3936 L-1216370 3936 L-1216140 3936 L-1216124 3936 L-1215829 3936 L-1215387 3936 L-1214940 3936 L-1214436 3936 L-1214282 3936 L-1213995 3936 L-1213955 3936 L-1213624 3936 L-1213402 3936 L-1212885 3936 L-1212809 3936 L-1212561 3936 L-1212367 3936 L-1212307 3936 L-1211531 3936 L-1211457 3936 L-1211226 3936 L-1211210 3936 L-1211148 3936 L-1210952 3936 L-1210488 3936 L-1210465 3936 L-1210335 3936 L-1209034 3936 L-1209018 3936 L-1208940 3936 L-1208847 3936 L-1208629 3936 L-1208477 3936 L-1208299 3936 L-1208245 3936 L-1207958 3936 L-1207918 3936 L-1207549 3936 L-1207108 3936 L-1206925 3936 L-1206604 3936 L-1206309 3936 L-1205863 3936 L-1205791 3936 L-1205329 3936 L-1204891 3936 L-1204709 3936 L-1203255 3936 L-1203123 3936 L-1202666 3936 L-1202440 3936 L-1202054 3936 L-1201537 3936 L-1200583 3935 L-1199789 3935 L-1199114 3935 L-1198689 3935 L-1198378 3935 L-1198148 3935 L-1197464 3935 L-1197451 3935 L-1197241 3935 L-1197219 3935 L-1197045 3935 L-1196095 3935 L-1195827 3935 L-1195012 3935 L-1194701 3935 L-1194664 3935 L-1194606 3935 L-1193989 3935 L-1193352 3935 L-1191725 3935 L-1191052 3935 L-1190410 3935 L-1190332 3935 L-1190276 3935 L-1190240 3935 L-1190212 3935 L-1190100 3935 L-1190082 3935 L-1190059 3935 L-1189906 3935 L-1189852 3935 L-1189774 3935 L-1189655 3935 L-1189557 3935 L-1189440 3935 L-1189170 3935 L-1188901 3935 L-1188883 3935 L-1188683 3935 L-1188536 3934 L-1188310 3934 L-1188176 3934 L-1187867 3934 L-1187807 3934 L-1187454 3934 L-1187105 3934 L-1187004 3934 L-1186940 3934 L-1186880 3934 L-1186496 3934 L-1186115 3934 L-1186010 3934 L-1185750 3934 L-1185479 3934 L-1185320 3934 L-1185287 3934 L-1185225 3934 L-1185084 3934 L-1184900 3934 L-1184856 3934 L-1184568 3934 L-1184551 3934 L-1184318 3934 L-1184257 3934 L-1184219 3934 L-1183639 3934 L-1183506 3934 L-1183482 3934 L-1183464 3934 L-1183446 3934 L-1183430 3933 L-1183406 3933 L-1183390 3933 L-1183369 3933 L-1183352 3933 L-1183329 3933 L-1183312 3933 L-1183290 3933 L-1183274 3933 L-1183225 3933 L-1183152 3933 L-1183118 3933 L-1183094 3932 L-1183058 3932 L-1183017 3932 L-1182980 3932 L-1182964 3932 L-1182940 3932 L-1182903 3932 L-1182886 3932 L-1182863 3932 L-1182845 3932 L-1182827 3932 L-1182811 3932 L-1182781 3932 L-1182755 3932 L-1182710 3932 L-1182694 3932 L-1182652 3932 L-1182604 3932 L-1182533 3932 L-1182518 3932 L-1182502 3932 L-1182439 3932 L-1182400 3932 L-1182361 3932 L-1182195 3932 L-1182130 3932 L-1182114 3932 L-1182070 3931 L-1182011 3931 L-1181799 3931 L-1181765 3931 L-1181723 3931 L-1181645 3931 L-1181107 3931 L-1181029 3931 L-1180925 3931 L-1180836 3931 L-1180660 3931 L-1180310 3931 L-1180154 3931 L-1179716 3931 L-1179559 3931 L-1179429 3931 L-1178725 3931 L-1178524 3931 L-1177564 3931 L-1177081 3931 L-1176982 3931 L-1176890 3931 L-1176645 3931 L-1176572 3931 L-1176129 3931 L-1176033 3931 L-1176018 3931 L-1176002 3931 L-1175977 3931 L-1175511 3931 L-1175294 3931 L-1175154 3931 L-1174861 3931 L-1174772 3931 L-1174731 3931 L-1174701 3931 L-1174528 3931 L-1174469 3931 L-1174393 3931 L-1174313 3931 L-1174243 3931 L-1173934 3931 L-1173849 3931 L-1173635 3931 L-1173600 3931 L-1172916 3931 L-1172817 3931 L-1172612 3931 L-1172566 3931 L-1172287 3931 L-1172225 3931 L-1172208 3931 L-1172130 3931 L-1171822 3930 L-1171798 3930 L-1171744 3930 L-1171721 3930 L-1171599 3930 L-1171463 3930 L-1171219 3930 L-1171093 3930 L-1170446 3930 L-1170430 3930 L-1170406 3930 L-1170225 3930 L-1170149 3930 L-1170057 3930 L-1169630 3930 L-1169213 3930 L-1168820 3930 L-1168742 3930 L-1168723 3930 L-1168360 3930 L-1168123 3930 L-1167895 3930 L-1167582 3930 L-1167504 3930 L-1167423 3930 L-1167245 3930 L-1167230 3930 L-1166964 3930 L-1166884 3930 L-1166654 3930 L-1166428 3930 L-1166112 3930 L-1165937 3930 L-1165576 3930 L-1165184 3930 L-1165115 3930 L-1165051 3930 L-1164911 3930 L-1164859 3930 L-1164757 3930 L-1164256 3930 L-1164058 3930 L-1163812 3930 L-1163626 3930 L-1163326 3930 L-1163250 3930 L-1163084 3930 L-1162200 3930 L-1162171 3929 L-1162048 3929 L-1161470 3929 L-1161392 3929 L-1160678 3929 L-1160366 3929 L-1160153 3929 L-1160136 3929 L-1159750 3929 L-1159225 3929 L-1158779 3929 L-1158449 3929 L-1158296 3929 L-1157970 3929 L-1157792 3929 L-1157711 3929 L-1157504 3929 L-1157329 3929 L-1156400 3929 L-1155511 3929 L-1155471 3929 L-1155244 3929 L-1154864 3929 L-1154077 3929 L-1153842 3929 L-1153767 3929 L-1153409 3929 L-1152837 3929 L-1152570 3929 L-1152184 3929 L-1152080 3929 L-1151910 3929 L-1151292 3929 L-1151081 3929 L-1150773 3929 L-1150720 3929 L-1150592 3929 L-1150539 3929 L-1150420 3929 L-1150084 3929 L-1149124 3929 L-1148993 3929 L-1148791 3929 L-1148160 3929 L-1147849 3929 L-1147435 3929 L-1147407 3929 L-1147262 3929 L-1146842 3929 L-1145509 3929 L-1145462 3929 L-1145334 3929 L-1145317 3929 L-1144739 3929 L-1144533 3929 L-1144504 3929 L-1144463 3929 L-1144406 3929 L-1144368 3929 L-1144290 3929 L-1144147 3929 L-1143692 3929 L-1143574 3928 L-1143289 3928 L-1142916 3928 L-1142820 3928 L-1142493 3928 L-1142139 3928 L-1141969 3928 L-1141921 3928 L-1141812 3928 L-1141723 3928 L-1141696 3928 L-1141619 3928 L-1141316 3928 L-1141282 3928 L-1141210 3928 L-1140842 3928 L-1140507 3928 L-1140426 3928 L-1140206 3928 L-1140035 3928 L-1140007 3928 L-1139510 3928 L-1138961 3928 L-1138080 3928 L-1137982 3928 L-1137905 3928 L-1137630 3928 L-1137383 3928 L-1137309 3928 L-1137248 3928 L-1137129 3928 L-1137086 3928 L-1136976 3928 L-1136900 3928 L-1136199 3928 L-1135953 3928 L-1135914 3928 L-1135757 3928 L-1135158 3928 L-1134931 3928 L-1134839 3928 L-1134364 3928 L-1133767 3928 L-1133247 3928 L-1133226 3928 L-1133081 3928 L-1132760 3928 L-1132219 3928 L-1131987 3928 L-1131816 3928 L-1131330 3928 L-1131102 3928 L-1131017 3928 L-1130671 3928 L-1130345 3928 L-1129822 3928 L-1129495 3928 L-1128894 3928 L-1128697 3927 L-1128645 3927 L-1128604 3927 L-1128323 3927 L-1127638 3927 L-1127328 3927 L-1127303 3927 L-1127112 3927 L-1126889 3927 L-1126803 3927 L-1126140 3927 L-1126115 3927 L-1125893 3927 L-1125564 3927 L-1125212 3927 L-1125007 3927 L-1124774 3927 L-1124516 3927 L-1124327 3927 L-1124280 3927 L-1124052 3927 L-1124018 3927 L-1123861 3927 L-1123647 3927 L-1123474 3927 L-1123383 3927 L-1123105 3927 L-1122862 3927 L-1122546 3927 L-1122120 3927 L-1122083 3927 L-1121599 3927 L-1121366 3927 L-1121154 3927 L-1120928 3927 L-1120378 3927 L-1120131 3927 L-1119297 3927 L-1119241 3927 L-1119219 3927 L-1119061 3927 L-1118600 3927 L-1118559 3927 L-1118219 3927 L-1118086 3927 L-1117863 3927 L-1117291 3927 L-1116819 3927 L-1116625 3927 L-1116432 3927 L-1116242 3927 L-1116141 3927 L-1115772 3927 L-1115726 3926 L-1115644 3926 L-1114351 3926 L-1114303 3926 L-1114034 3926 L-1113889 3926 L-1113338 3926 L-1113222 3926 L-1113140 3926 L-1112781 3926 L-1112557 3926 L-1112276 3926 L-1111947 3926 L-1111439 3926 L-1111326 3926 L-1111247 3926 L-1111083 3926 L-1110789 3926 L-1110320 3926 L-1110123 3926 L-1110073 3926 L-1109423 3926 L-1109301 3926 L-1108847 3926 L-1108811 3926 L-1108343 3926 L-1108232 3926 L-1108216 3926 L-1108000 3926 L-1107819 3926 L-1107287 3926 L-1106258 3926 L-1106058 3926 L-1105600 3926 L-1104652 3926 L-1104553 3926 L-1104199 3926 L-1104138 3926 L-1104124 3926 L-1104089 3926 L-1103719 3926 L-1103599 3926 L-1103357 3926 L-1103193 3926 L-1103006 3926 L-1102885 3926 L-1101815 3926 L-1100957 3926 L-1100744 3926 L-1100647 3926 L-1100473 3926 L-1100140 3926 L-1100068 3926 L-1100010 3926 L-1099835 3926 L-1099446 3926 L-1099211 3926 L-1099099 3926 L-1098982 3926 L-1098002 3926 L-1097976 3926 L-1097382 3925 L-1097349 3925 L-1097201 3925 L-1096916 3925 L-1096004 3925 L-1095058 3925 L-1094905 3925 L-1094803 3925 L-1094671 3925 L-1094528 3925 L-1094502 3925 L-1094387 3925 L-1094169 3925 L-1093488 3925 L-1093358 3925 L-1093055 3925 L-1092815 3925 L-1092483 3925 L-1091844 3925 L-1091501 3925 L-1091440 3925 L-1091284 3925 L-1090362 3925 L-1089892 3925 L-1089848 3925 L-1089836 3925 L-1089794 3925 L-1089772 3925 L-1089745 3925 L-1089601 3925 L-1089179 3925 L-1088844 3925 L-1088652 3925 L-1088224 3925 L-1088036 3925 L-1087647 3925 L-1087113 3925 L-1086740 3925 L-1086719 3925 L-1086469 3925 L-1086350 3925 L-1086275 3925 L-1086139 3925 L-1086099 3925 L-1086020 3925 L-1085625 3925 L-1085129 3925 L-1085017 3925 L-1084844 3925 L-1084536 3925 L-1084089 3925 L-1083766 3925 L-1083623 3925 L-1083196 3925 L-1083043 3925 L-1082988 3925 L-1082174 3925 L-1082154 3925 L-1081782 3925 L-1081725 3925 L-1080596 3924 L-1080528 3924 L-1079970 3924 L-1079775 3924 L-1079639 3924 L-1079406 3924 L-1079059 3924 L-1079024 3924 L-1078989 3924 L-1078920 3924 L-1078572 3924 L-1078399 3924 L-1077915 3924 L-1077898 3924 L-1077573 3924 L-1077416 3924 L-1076275 3924 L-1076250 3924 L-1076058 3924 L-1075865 3924 L-1075615 3924 L-1075597 3924 L-1074577 3924 L-1074279 3924 L-1074204 3924 L-1074068 3924 L-1073892 3924 L-1073315 3924 L-1073100 3924 L-1073036 3924 L-1072905 3924 L-1072868 3924 L-1072345 3924 L-1072207 3931 L-1072193 3931 L-1072170 3931 L-1072150 3931 L-1071923 3924 L-1071147 3924 L-1071105 3924 L-1070737 3924 L-1070659 3924 L-1070607 3924 L-1069934 3924 L-1069191 3924 L-1068767 3924 L-1068319 3924 L-1067257 3924 L-1066946 3924 L-1066536 3924 L-1066464 3924 L-1065939 3924 L-1065845 3924 L-1065827 3924 L-1065382 3924 L-1065197 3924 L-1064416 3924 L-1063744 3924 L-1063332 3923 L-1063100 3923 L-1062959 3923 L-1062878 3923 L-1062858 3923 L-1062782 3923 L-1062653 3923 L-1062336 3923 L-1062112 3923 L-1061787 3923 L-1061725 3923 L-1061355 3923 L-1061322 3923 L-1061113 3923 L-1060446 3923 L-1060368 3923 L-1060210 3923 L-1060100 3923 L-1059773 3923 L-1059618 3923 L-1059277 3923 L-1059220 3923 L-1058882 3923 L-1058679 3923 L-1058626 3923 L-1057249 3923 L-1057120 3923 L-1056686 3923 L-1056366 3923 L-1055538 3923 L-1055415 3923 L-1054684 3923 L-1054528 3923 L-1054487 3923 L-1054433 3923 L-1054410 3923 L-1054296 3923 L-1054000 3923 L-1053710 3923 L-1053656 3923 L-1053535 3923 L-1053505 3923 L-1053405 3923 L-1052961 3923 L-1052809 3923 L-1051974 3923 L-1051432 3923 L-1051097 3923 L-1051082 3923 L-1051006 3923 L-1050890 3923 L-1050695 3923 L-1050431 3923 L-1049597 3923 L-1049500 3923 L-1048979 3923 L-1048937 3923 L-1048838 3923 L-1048009 3923 L-1047874 3923 L-1047536 3923 L-1046982 3923 L-1046602 3923 L-1046439 3922 L-1046129 3922 L-1045316 3922 L-1045010 3922 L-1044742 3922 L-1044420 3922 L-1044099 3922 L-1043824 3922 L-1042995 3922 L-1042900 3922 L-1042808 3922 L-1042703 3922 L-1042316 3922 L-1041836 3922 L-1041820 3922 L-1041701 3922 L-1041333 3922 L-1041239 3922 L-1040405 3922 L-1040328 3922 L-1040028 3922 L-1039938 3922 L-1039530 3922 L-1039420 3922 L-1038721 3922 L-1038248 3922 L-1038187 3922 L-1037969 3922 L-1037695 3922 L-1037582 3922 L-1036555 3922 L-1036168 3922 L-1036148 3922 L-1035815 3922 L-1035571 3922 L-1035137 3922 L-1035027 3922 L-1034910 3922 L-1034458 3922 L-1033867 3922 L-1033531 3922 L-1031638 3922 L-1031524 3922 L-1031313 3922 L-1029994 3922 L-1029888 3918 L-1029822 3914 L-1029786 3910 L-1029724 3910 L-1029224 3914 L-1028549 3918 L-1028527 3921 L-1028257 3921 L-1027289 3921 L-1026599 3921 L-1026437 3921 L-1025897 3921 L-1025807 3921 L-1024788 3921 L-1023840 3921 L-1023474 3921 L-1023371 3921 L-1022783 3921 L-1022724 3921 L-1022623 3921 L-1022183 3921 L-1022076 3921 L-1021634 3921 L-1020634 3921 L-1020378 3921 L-1020275 3921 L-1020145 3921 L-1019778 3921 L-1019197 3921 L-1019166 3921 L-1018851 3921 L-1016868 3921 L-1016752 3921 L-1016684 3921 L-1016326 3921 L-1014707 3921 L-1014529 3921 L-1014385 3921 L-1013563 3921 L-1013510 3921 L-1013455 3921 L-1013021 3921 L-1012041 3921 L-1011967 3921 L-1010882 3921 L-1010669 3921 L-1009953 3921 L-1009565 3921 L-1009346 3921 L-1009026 3921 L-1008533 3921 L-1008405 3921 L-1008176 3921 L-1007944 3921 L-1007885 3921 L-1007595 3921 L-1007323 3921 L-1006293 3921 L-1004628 3921 L-1004209 3920 L-1004072 3920 L-1003915 3920 L-1003610 3920 L-1003382 3920 L-1003224 3920 L-1003064 3920 L-1002895 3920 L-1002848 3920 L-1002794 3920 L-1002773 3920 L-1002387 3920 L-1002137 3920 L-1001866 3920 L-1001706 3920 L-1001616 3920 L-999957 3920 L-999792 3920 L-999412 3920 L-998952 3920 L-998342 3920 L-997249 3920 L-996818 3920 L-996787 3920 L-996724 3920 L-996707 3920 L-995003 3920 L-994961 3920 L-994495 3920 L-994308 3920 L-994276 3920 L-993681 3920 L-993631 3920 L-993308 3920 L-993257 3920 L-993047 3920 L-993029 3920 L-992763 3920 L-992710 3920 L-992241 3920 L-991731 3920 L-991652 3920 L-991358 3920 L-991341 3920 L-991303 3920 L-991232 3920 L-991074 3920 L-990128 3920 L-990072 3920 L-989551 3920 L-989359 3920 L-989258 3920 L-989032 3920 L-988522 3920 L-988134 3920 L-988064 3920 L-987716 3920 L-987359 3920 L-986230 3920 L-986179 3920 L-985953 3920 L-985919 3920 L-985794 3920 L-985695 3920 L-985430 3920 L-984690 3920 L-984112 3920 L-983818 3920 L-983112 3920 L-982934 3920 L-982910 3920 L-982274 3920 L-981963 3919 L-981567 3919 L-981537 3919 L-981516 3919 L-981362 3919 L-980677 3919 L-980661 3919 L-980321 3919 L-980048 3919 L-980011 3919 L-979955 3919 L-979933 3919 L-979861 3919 L-979529 3919 L-979423 3919 L-979394 3919 L-979196 3919 L-979043 3919 L-978175 3919 L-977613 3919 L-977597 3919 L-977495 3919 L-977393 3919 L-977247 3919 L-977168 3919 L-977131 3919 L-977075 3919 L-977002 3919 L-976857 3919 L-976375 3919 L-975971 3919 L-975104 3919 L-975084 3919 L-974827 3919 L-974750 3919 L-974721 3919 L-974710 3919 L-974693 3919 L-974400 3919 L-974361 3919 L-974289 3919 L-974215 3919 L-974010 3919 L-973850 3919 L-973549 3919 L-973472 3919 L-973454 3919 L-973238 3919 L-973007 3919 L-972897 3919 L-972527 3919 L-972369 3919 L-972137 3919 L-971969 3919 L-971824 3919 L-971692 3919 L-970416 3919 L-970013 3919 L-969952 3919 L-969835 3919 L-969410 3919 L-969395 3918 L-969333 3918 L-969059 3918 L-968947 3918 L-968665 3918 L-968387 3918 L-967962 3918 L-967940 3918 L-967862 3918 L-967736 3918 L-967150 3918 L-966758 3918 L-966423 3918 L-965834 3918 L-965731 3918 L-965561 3918 L-965425 3918 L-964597 3918 L-963412 3918 L-963376 3918 L-963320 3918 L-963100 3918 L-962895 3918 L-962740 3918 L-962483 3918 L-962407 3918 L-961864 3918 L-961828 3918 L-961579 3918 L-961191 3918 L-960366 3918 L-960007 3918 L-959697 3918 L-959439 3918 L-959215 3918 L-958809 3918 L-958693 3918 L-958509 3918 L-958456 3918 L-958268 3918 L-958097 3918 L-958068 3918 L-957788 3918 L-957477 3918 L-957339 3918 L-957029 3918 L-956836 3918 L-956820 3918 L-956101 3918 L-955967 3918 L-955670 3918 L-955579 3918 L-954978 3918 L-954940 3918 L-954862 3918 L-954241 3918 L-954090 3918 L-954049 3918 L-953739 3918 L-953547 3918 L-953354 3917 L-953298 3917 L-952989 3917 L-952937 3917 L-952883 3917 L-952857 3917 L-952732 3917 L-951921 3917 L-951845 3917 L-951304 3917 L-951036 3917 L-950376 3917 L-949469 3917 L-949227 3917 L-948695 3917 L-948478 3917 L-947370 3917 L-947320 3917 L-946544 3917 L-945997 3917 L-945886 3917 L-945733 3917 L-945678 3917 L-945512 3917 L-945135 3917 L-944687 3917 L-944633 3917 L-944478 3917 L-943798 3917 L-943578 3917 L-943060 3917 L-942211 3917 L-942195 3917 L-940404 3917 L-939850 3917 L-939733 3917 L-938727 3917 L-938690 3917 L-938458 3917 L-938365 3917 L-938325 3917 L-937993 3917 L-937641 3917 L-937376 3917 L-937089 3917 L-936779 3917 L-936524 3917 L-936431 3917 L-935941 3917 L-935733 3917 L-935168 3917 L-935053 3917 L-934702 3917 L-934651 3917 L-934611 3917 L-934007 3917 L-933273 3917 L-932692 3917 L-932457 3917 L-931916 3916 L-931764 3916 L-931262 3916 L-931053 3916 L-931030 3916 L-930971 3916 L-930008 3916 L-929830 3916 L-929389 3916 L-929364 3916 L-929209 3916 L-929128 3916 L-928977 3916 L-928330 3916 L-928281 3916 L-927161 3916 L-926177 3916 L-926115 3916 L-925395 3916 L-924530 3916 L-924151 3916 L-923932 3916 L-923172 3916 L-923120 3916 L-922811 3916 L-921960 3916 L-921767 3916 L-921590 3916 L-921366 3916 L-921239 3916 L-921047 3916 L-920814 3916 L-920645 3916 L-920358 3916 L-920079 3916 L-919996 3916 L-919825 3916 L-919809 3916 L-919655 3916 L-919616 3916 L-918840 3916 L-918764 3916 L-918532 3916 L-918105 3916 L-917759 3916 L-917176 3916 L-916907 3916 L-916648 3916 L-916519 3916 L-916503 3916 L-916389 3916 L-916365 3916 L-916131 3916 L-916095 3916 L-914779 3916 L-914723 3916 L-914044 3916 L-913472 3916 L-913346 3916 L-913193 3916 L-913116 3916 L-912804 3916 L-912531 3916 L-912442 3916 L-912340 3916 L-911412 3916 L-911336 3916 L-910972 3916 L-910948 3916 L-910911 3915 L-910136 3915 L-910044 3915 L-909904 3915 L-909502 3915 L-909240 3915 L-908997 3915 L-908783 3915 L-908702 3915 L-908626 3915 L-908549 3915 L-908363 3915 L-908296 3915 L-908046 3915 L-907991 3915 L-907854 3915 L-907774 3915 L-907661 3915 L-907438 3915 L-907273 3915 L-907232 3915 L-907063 3915 L-906692 3915 L-906677 3915 L-906561 3915 L-905840 3915 L-905804 3915 L-905671 3915 L-905324 3915 L-904912 3915 L-904876 3915 L-904798 3915 L-904759 3915 L-904395 3915 L-904191 3915 L-904176 3915 L-903830 3915 L-903482 3915 L-903156 3915 L-903054 3915 L-902901 3915 L-902707 3915 L-902475 3915 L-902383 3915 L-902227 3915 L-902150 3915 L-902109 3915 L-901996 3915 L-901973 3915 L-901722 3915 L-901583 3915 L-901005 3915 L-900177 3915 L-899689 3915 L-899568 3915 L-899529 3915 L-899517 3915 L-899364 3915 L-899264 3915 L-899031 3915 L-898640 3915 L-898336 3915 L-898320 3915 L-898150 3915 L-897911 3915 L-897315 3915 L-896711 3915 L-896671 3915 L-896631 3915 L-896478 3914 L-896424 3914 L-896362 3914 L-896294 3914 L-896239 3914 L-896214 3914 L-896167 3914 L-896073 3914 L-895936 3914 L-895782 3914 L-895650 3914 L-895609 3914 L-895573 3914 L-895512 3914 L-895238 3914 L-894924 3914 L-894883 3914 L-894798 3914 L-894620 3914 L-894383 3914 L-894026 3914 L-893996 3914 L-893426 3914 L-893304 3914 L-893068 3914 L-893045 3914 L-892763 3914 L-892478 3914 L-892223 3914 L-891651 3914 L-891354 3914 L-891278 3914 L-890579 3914 L-890501 3914 L-890466 3914 L-890440 3914 L-890388 3914 L-890194 3914 L-890054 3914 L-890018 3914 L-889978 3914 L-889383 3914 L-889150 3914 L-888867 3914 L-888812 3914 L-888738 3914 L-888660 3914 L-888424 3914 L-888180 3914 L-888045 3914 L-887938 3914 L-887859 3914 L-887472 3914 L-887345 3914 L-887192 3914 L-887154 3914 L-887008 3914 L-886787 3914 L-886613 3914 L-886544 3914 L-885722 3914 L-885706 3914 L-885412 3914 L-884624 3914 L-884314 3914 L-884168 3914 L-883940 3914 L-883739 3914 L-882802 3914 L-882765 3914 L-882743 3914 L-882702 3914 L-882433 3914 L-881837 3914 L-881773 3914 L-881738 3914 L-881721 3914 L-881026 3914 L-880824 3914 L-880792 3914 L-880459 3914 L-880351 3914 L-879726 3914 L-879222 3914 L-879185 3913 L-878743 3913 L-878647 3913 L-878488 3913 L-878175 3913 L-878162 3913 L-877722 3913 L-877240 3913 L-877111 3913 L-876791 3913 L-876723 3913 L-876419 3913 L-876243 3913 L-876049 3913 L-875806 3913 L-875609 3913 L-875583 3913 L-875005 3913 L-874935 3913 L-874525 3913 L-874471 3913 L-874425 3913 L-874061 3913 L-873914 3913 L-873709 3913 L-873613 3913 L-873458 3913 L-873396 3913 L-873249 3913 L-873148 3913 L-872591 3913 L-872569 3913 L-872397 3913 L-871855 3913 L-871794 3913 L-871740 3913 L-871712 3913 L-871640 3913 L-871624 3913 L-871560 3913 L-871524 3913 L-871369 3913 L-871044 3913 L-870478 3913 L-870463 3913 L-870401 3913 L-870300 3913 L-870253 3913 L-870011 3913 L-869589 3913 L-869434 3913 L-867692 3913 L-867150 3913 L-866207 3913 L-865798 3913 L-865257 3913 L-865060 3913 L-864892 3913 L-864596 3913 L-864481 3913 L-864466 3913 L-864311 3913 L-864171 3913 L-864095 3913 L-863963 3913 L-863615 3913 L-863244 3913 L-862646 3913 L-862471 3913 L-862314 3913 L-862046 3913 L-861894 3913 L-861603 3913 L-861579 3913 L-861496 3913 L-861269 3913 L-860569 3913 L-860442 3913 L-860011 3913 L-859917 3913 L-858712 3913 L-858663 3913 L-858370 3913 L-857966 3913 L-857690 3913 L-857671 3913 L-857553 3913 L-857477 3913 L-857296 3912 L-856816 3912 L-856364 3912 L-855954 3912 L-855924 3912 L-855505 3912 L-855391 3912 L-855273 3912 L-855258 3912 L-855064 3912 L-855042 3912 L-854810 3912 L-854367 3912 L-854047 3912 L-853582 3912 L-853417 3912 L-853262 3912 L-853106 3912 L-852653 3912 L-852334 3912 L-852279 3912 L-851908 3912 L-851870 3912 L-851544 3912 L-851427 3912 L-851328 3912 L-851002 3912 L-850615 3912 L-850354 3912 L-849996 3912 L-849740 3912 L-847569 3912 L-847520 3912 L-847497 3912 L-847086 3912 L-847024 3912 L-846954 3912 L-846723 3912 L-846413 3912 L-846109 3912 L-846065 3912 L-845757 3912 L-845624 3912 L-845408 3912 L-844695 3912 L-844540 3912 L-844402 3912 L-844253 3912 L-844232 3912 L-844038 3912 L-844013 3912 L-843921 3912 L-843899 3912 L-843883 3912 L-843783 3912 L-842854 3912 L-842396 3912 L-841304 3912 L-840882 3912 L-840478 3912 L-840439 3912 L-840186 3912 L-839411 3912 L-839395 3912 L-839371 3912 L-839178 3912 L-838441 3912 L-838172 3912 L-838131 3912 L-837733 3912 L-837708 3911 L-836918 3911 L-836238 3911 L-834867 3911 L-834597 3911 L-834549 3911 L-834011 3911 L-833978 3911 L-833876 3911 L-833553 3911 L-833473 3911 L-833204 3911 L-832292 3911 L-832153 3911 L-831904 3911 L-831359 3911 L-830937 3911 L-830744 3911 L-830728 3911 L-830590 3911 L-830496 3911 L-830369 3911 L-830109 3911 L-830084 3911 L-829993 3911 L-829683 3911 L-829622 3911 L-829506 3911 L-829156 3911 L-828345 3911 L-828114 3911 L-827285 3911 L-827053 3911 L-826836 3911 L-826318 3911 L-825680 3911 L-825263 3911 L-824941 3911 L-824460 3911 L-824035 3911 L-823973 3911 L-823625 3911 L-823584 3911 L-823571 3911 L-823471 3911 L-823426 3911 L-822940 3911 L-822139 3911 L-821804 3911 L-820723 3911 L-820243 3911 L-820220 3911 L-820080 3911 L-819525 3911 L-818828 3911 L-818519 3911 L-818297 3911 L-818192 3911 L-818090 3911 L-817419 3911 L-817325 3911 L-817303 3911 L-817225 3910 L-817047 3910 L-816875 3910 L-816695 3910 L-816681 3910 L-816605 3910 L-816441 3910 L-815926 3910 L-815910 3910 L-815769 3910 L-815407 3910 L-815383 3910 L-815252 3910 L-815228 3910 L-814865 3910 L-814340 3910 L-814246 3910 L-814030 3910 L-813937 3910 L-813912 3910 L-813448 3910 L-813371 3910 L-812969 3910 L-812519 3910 L-811267 3910 L-811228 3910 L-810796 3910 L-810764 3910 L-810045 3910 L-809868 3910 L-809733 3910 L-809426 3910 L-809371 3910 L-809346 3910 L-809330 3910 L-809155 3910 L-808966 3910 L-808458 3910 L-808085 3910 L-807746 3910 L-807708 3909 L-806989 3909 L-806895 3909 L-806856 3909 L-806315 3909 L-806292 3909 L-805889 3909 L-805463 3909 L-805192 3909 L-805013 3909 L-804767 3909 L-804743 3909 L-804687 3909 L-804070 3909 L-803568 3909 L-803180 3909 L-802562 3909 L-802345 3909 L-802190 3909 L-800898 3909 L-800799 3909 L-800356 3909 L-800025 3909 L-799724 3909 L-799482 3909 L-798747 3909 L-798168 3909 L-797338 3909 L-797238 3909 L-796681 3909 L-796543 3909 L-794901 3909 L-794840 3909 L-794746 3909 L-793779 3909 L-793602 3909 L-793315 3909 L-793097 3909 L-793019 3909 L-792747 3909 L-792632 3909 L-792479 3909 L-792168 3909 L-792090 3909 L-791999 3909 L-791922 3909 L-791806 3909 L-791627 3909 L-791535 3909 L-791496 3909 L-790993 3909 L-790775 3909 L-790645 3909 L-790490 3909 L-790436 3909 L-790311 3909 L-789926 3909 L-789418 3909 L-789345 3909 L-788865 3909 L-788788 3908 L-788688 3908 L-788454 3908 L-787990 3908 L-787760 3908 L-787743 3908 L-787511 3908 L-787356 3908 L-787295 3908 L-787102 3908 L-786831 3908 L-786079 3908 L-785126 3908 L-785090 3908 L-784865 3908 L-784426 3908 L-784145 3908 L-783796 3908 L-782727 3908 L-781799 3908 L-781669 3908 L-781622 3908 L-781553 3908 L-781398 3908 L-781321 3908 L-781147 3908 L-780712 3908 L-780508 3908 L-780448 3908 L-779865 3908 L-779711 3908 L-779596 3908 L-779555 3908 L-779385 3908 L-779249 3908 L-779038 3908 L-778960 3908 L-778937 3908 L-778728 3908 L-778318 3908 L-778294 3908 L-778071 3908 L-777925 3908 L-777891 3908 L-777877 3908 L-777855 3908 L-777621 3908 L-777436 3908 L-777219 3908 L-777193 3908 L-776504 3908 L-776400 3908 L-776365 3908 L-776344 3908 L-776150 3908 L-776097 3908 L-775980 3908 L-775899 3908 L-775788 3908 L-775473 3908 L-775014 3908 L-774759 3907 L-774524 3907 L-774395 3907 L-774042 3907 L-773983 3907 L-773830 3907 L-773258 3907 L-773171 3907 L-773018 3907 L-772722 3907 L-772352 3907 L-772049 3907 L-771973 3907 L-771568 3907 L-771400 3907 L-771256 3907 L-770716 3907 L-770655 3907 L-770639 3907 L-770473 3907 L-770267 3907 L-770192 3907 L-770100 3907 L-769690 3907 L-769674 3907 L-769651 3907 L-769458 3907 L-769381 3907 L-769210 3907 L-769148 3907 L-769133 3908 L-768618 3908 L-768397 3908 L-767778 3908 L-767524 3908 L-767330 3908 L-767291 3908 L-767217 3908 L-767152 3908 L-766502 3908 L-766463 3908 L-766289 3908 L-766223 3908 L-765549 3908 L-765160 3907 L-764898 3907 L-764661 3907 L-764583 3907 L-764567 3907 L-764365 3907 L-763994 3907 L-763769 3907 L-763133 3907 L-763113 3907 L-762726 3907 L-762633 3907 L-762574 3907 L-762298 3907 L-761989 3907 L-761912 3907 L-761060 3907 L-760718 3907 L-760281 3907 L-759847 3908 L-759352 3908 L-759202 3908 L-758934 3908 L-757696 3908 L-757639 3908 L-755876 3908 L-755685 3908 L-754675 3908 L-754524 3908 L-754149 3908 L-753828 3908 L-753222 3908 L-753153 3908 L-752975 3908 L-752147 3908 L-752008 3908 L-751622 3908 L-751437 3908 L-751394 3908 L-751274 3908 L-751064 3908 L-750616 3908 L-750268 3908 L-750136 3908 L-749727 3908 L-749377 3908 L-749091 3908 L-748898 3908 L-748743 3908 L-748579 3907 L-748511 3907 L-748411 3907 L-748178 3907 L-748061 3907 L-748008 3907 L-747466 3907 L-747002 3907 L-745820 3907 L-745687 3907 L-745662 3907 L-745609 3907 L-744942 3907 L-743907 3907 L-743713 3907 L-743533 3907 L-743382 3907 L-743341 3907 L-743326 3907 L-743265 3907 L-742940 3907 L-741779 3907 L-741586 3907 L-741408 3907 L-740294 3907 L-739435 3907 L-739328 3907 L-738855 3907 L-738662 3907 L-736340 3907 L-736263 3907 L-736141 3907 L-736107 3907 L-736070 3907 L-735975 3907 L-735760 3907 L-735178 3907 L-734792 3907 L-734019 3907 L-733941 3907 L-733244 3907 L-732703 3907 L-732662 3907 L-732531 3907 L-732067 3907 L-732029 3907 L-731894 3907 L-731526 3907 L-731496 3907 L-731346 3907 L-730946 3907 L-729122 3907 L-728315 3907 L-727596 3907 L-727579 3907 L-727266 3907 L-726704 3907 L-726203 3907 L-725684 3907 L-725662 3907 L-723918 3907 L-723749 3907 L-723554 3907 L-722660 3907 L-722141 3907 L-721931 3907 L-721673 3907 L-720963 3906 L-720013 3906 L-719355 3906 L-719316 3906 L-719029 3906 L-718947 3906 L-718851 3906 L-718719 3906 L-718642 3906 L-717907 3906 L-717570 3906 L-717520 3906 L-717265 3906 L-716978 3906 L-716553 3906 L-715972 3906 L-715713 3906 L-715562 3906 L-715315 3906 L-715276 3906 L-714479 3906 L-714441 3906 L-714264 3906 L-713855 3906 L-713627 3906 L-713550 3906 L-713419 3906 L-713303 3906 L-712954 3906 L-712891 3906 L-712739 3906 L-711998 3906 L-711887 3906 L-711716 3906 L-711677 3906 L-711383 3906 L-710981 3906 L-710805 3906 L-710710 3906 L-710401 3906 L-709600 3906 L-709141 3906 L-708621 3906 L-708132 3906 L-707437 3906 L-706391 3906 L-706122 3906 L-706067 3906 L-705907 3906 L-705656 3906 L-705410 3906 L-705331 3906 L-705116 3906 L-704804 3906 L-704341 3906 L-704326 3906 L-704030 3906 L-704017 3906 L-703026 3906 L-702353 3906 L-702019 3906 L-701402 3906 L-701265 3906 L-700626 3906 L-700496 3906 L-699545 3906 L-699446 3906 L-698886 3906 L-698478 3906 L-698049 3906 L-697958 3906 L-697123 3906 L-696760 3906 L-696721 3906 L-696588 3906 L-696412 3906 L-696195 3906 L-696141 3906 L-695984 3906 L-695731 3905 L-694631 3905 L-694554 3905 L-694334 3905 L-694203 3905 L-694167 3905 L-693974 3905 L-693874 3905 L-693390 3905 L-693106 3905 L-692946 3905 L-692851 3905 L-692580 3905 L-692310 3905 L-692294 3905 L-692155 3905 L-692017 3905 L-691690 3905 L-691381 3905 L-691340 3905 L-691265 3905 L-691149 3905 L-690299 3905 L-689972 3905 L-689641 3905 L-689508 3905 L-689292 3905 L-689276 3905 L-688596 3905 L-688502 3905 L-688479 3905 L-688463 3905 L-688425 3905 L-688013 3905 L-687743 3905 L-687703 3905 L-687335 3905 L-687125 3905 L-686042 3905 L-686026 3905 L-685997 3905 L-685977 3905 L-685600 3905 L-685345 3905 L-685097 3904 L-684958 3904 L-684826 3904 L-684494 3904 L-684401 3904 L-684340 3904 L-683782 3904 L-683721 3904 L-683565 3904 L-683371 3904 L-683178 3904 L-683163 3904 L-683124 3904 L-683085 3904 L-682815 3904 L-682691 3904 L-682659 3904 L-682560 3904 L-682404 3904 L-682263 3904 L-681979 3904 L-681653 3904 L-680957 3904 L-680935 3904 L-680425 3904 L-679579 3904 L-679216 3904 L-679062 3904 L-678458 3904 L-678288 3904 L-678227 3904 L-678172 3904 L-677116 3904 L-677098 3904 L-676192 3904 L-676171 3904 L-676004 3904 L-675761 3904 L-675711 3904 L-675657 3904 L-675519 3904 L-675480 3904 L-674551 3904 L-674496 3904 L-674374 3904 L-674302 3904 L-674187 3904 L-674008 3904 L-673026 3904 L-672886 3904 L-672769 3904 L-672474 3904 L-672227 3904 L-672190 3904 L-672135 3904 L-672114 3904 L-671981 3904 L-671902 3904 L-671764 3904 L-671141 3904 L-670975 3904 L-670510 3904 L-670334 3904 L-670318 3904 L-670257 3904 L-670141 3904 L-669658 3904 L-668963 3904 L-668590 3904 L-668420 3904 L-667454 3904 L-667299 3904 L-667122 3904 L-667029 3904 L-666774 3904 L-666603 3904 L-665956 3904 L-665945 3904 L-665365 3904 L-665227 3904 L-665172 3904 L-664437 3904 L-664398 3903 L-664320 3903 L-663678 3903 L-662904 3903 L-662811 3903 L-662763 3903 L-662747 3903 L-662711 3903 L-662695 3903 L-662632 3903 L-662616 3903 L-662596 3903 L-662441 3903 L-662402 3903 L-662386 3903 L-662347 3903 L-662208 3903 L-662131 3903 L-661767 3903 L-661419 3903 L-660645 3903 L-660043 3903 L-659846 3903 L-659616 3903 L-659479 3903 L-658841 3903 L-658551 3903 L-658530 3903 L-658069 3903 L-657837 3903 L-657782 3903 L-657743 3903 L-657240 3903 L-656690 3903 L-655902 3903 L-654779 3903 L-653885 3903 L-653797 3903 L-653497 3903 L-653426 3903 L-653310 3903 L-652133 3903 L-651785 3903 L-651762 3903 L-651243 3903 L-651097 3903 L-650988 3903 L-650779 3903 L-650624 3903 L-650602 3903 L-650408 3903 L-650331 3903 L-650187 3903 L-649386 3903 L-649240 3903 L-648960 3903 L-648783 3903 L-648473 3903 L-647662 3903 L-646733 3903 L-645141 3903 L-644898 3903 L-644257 3903 L-644062 3903 L-643984 3903 L-643466 3903 L-643234 3903 L-643211 3903 L-643079 3903 L-642740 3902 L-642729 3902 L-642513 3902 L-642476 3902 L-641934 3902 L-641405 3902 L-641338 3902 L-641045 3902 L-640497 3902 L-640462 3902 L-640409 3902 L-640310 3902 L-640077 3902 L-639497 3902 L-639399 3902 L-639325 3902 L-638993 3902 L-638243 3902 L-638204 3902 L-637524 3902 L-637370 3902 L-637044 3902 L-636828 3902 L-636596 3902 L-636300 3902 L-636054 3902 L-635702 3902 L-635649 3902 L-634890 3902 L-634197 3902 L-633846 3902 L-633382 3902 L-632749 3902 L-632340 3902 L-632262 3902 L-631836 3902 L-631194 3902 L-631024 3902 L-630282 3902 L-630095 3902 L-629800 3902 L-629228 3902 L-629203 3902 L-628183 3902 L-627696 3902 L-627603 3902 L-627542 3902 L-627254 3902 L-626968 3902 L-626907 3902 L-626727 3902 L-626016 3902 L-625840 3902 L-625641 3902 L-625490 3902 L-625398 3902 L-625336 3902 L-624794 3902 L-624484 3902 L-624392 3902 L-624315 3902 L-623747 3902 L-623656 3902 L-623402 3902 L-623075 3901 L-623038 3901 L-622883 3901 L-622651 3901 L-622329 3901 L-621196 3901 L-620997 3901 L-620472 3901 L-620227 3901 L-619981 3901 L-619901 3901 L-619881 3901 L-619804 3901 L-619749 3901 L-619672 3901 L-619633 3901 L-619454 3901 L-619417 3901 L-619185 3901 L-617948 3901 L-617621 3901 L-617581 3901 L-616800 3901 L-616653 3901 L-615661 3901 L-615455 3901 L-615029 3901 L-614901 3901 L-614497 3901 L-614409 3901 L-613752 3901 L-613045 3901 L-612436 3901 L-612243 3901 L-612010 3901 L-611392 3901 L-611096 3901 L-610657 3901 L-610502 3901 L-610347 3901 L-609591 3901 L-609241 3901 L-608838 3901 L-608800 3901 L-607794 3901 L-607474 3901 L-607227 3901 L-606527 3901 L-606454 3901 L-606141 3901 L-605061 3901 L-604870 3901 L-604636 3901 L-604441 3901 L-603941 3900 L-603187 3900 L-603074 3900 L-602873 3900 L-602832 3900 L-602739 3900 L-602426 3900 L-602338 3900 L-602222 3900 L-601904 3900 L-601835 3900 L-601810 3900 L-601448 3900 L-601410 3900 L-601193 3900 L-600690 3900 L-600088 3900 L-599876 3900 L-599723 3900 L-599685 3900 L-599641 3900 L-599607 3900 L-599474 3900 L-599065 3900 L-598694 3900 L-598640 3900 L-598624 3900 L-598545 3900 L-598136 3900 L-597982 3900 L-597966 3900 L-597927 3900 L-597748 3900 L-597672 3900 L-597441 3900 L-596651 3900 L-596574 3900 L-595839 3900 L-595683 3900 L-595443 3900 L-595381 3900 L-595296 3900 L-595273 3900 L-595156 3900 L-595141 3900 L-595079 3900 L-595042 3900 L-594948 3900 L-594926 3900 L-594810 3900 L-594577 3900 L-594407 3900 L-593587 3900 L-593185 3900 L-593030 3900 L-592525 3900 L-592411 3900 L-591815 3900 L-591440 3900 L-591389 3900 L-591195 3900 L-590498 3900 L-590460 3900 L-590315 3900 L-590090 3900 L-589828 3900 L-589454 3900 L-589029 3900 L-588900 3900 L-588879 3899 L-588386 3899 L-587690 3899 L-587458 3899 L-587304 3899 L-586336 3899 L-586111 3899 L-585833 3899 L-585817 3899 L-585291 3899 L-584763 3899 L-584614 3899 L-584595 3899 L-584053 3899 L-583743 3899 L-583626 3899 L-583434 3899 L-583298 3899 L-582971 3899 L-582854 3899 L-582544 3899 L-582118 3899 L-582062 3899 L-581830 3899 L-581733 3899 L-581600 3899 L-581304 3899 L-581190 3899 L-580825 3899 L-580513 3899 L-580030 3899 L-579859 3899 L-579611 3899 L-579395 3899 L-578869 3899 L-578683 3899 L-578327 3899 L-577692 3899 L-577538 3899 L-576797 3899 L-576377 3899 L-576197 3899 L-576121 3899 L-575990 3899 L-575696 3899 L-575655 3899 L-575425 3899 L-575233 3899 L-574978 3899 L-574551 3899 L-574442 3899 L-573824 3899 L-573642 3899 L-572431 3899 L-571783 3899 L-571633 3899 L-571595 3899 L-571463 3899 L-571362 3899 L-571347 3899 L-571265 3899 L-571053 3899 L-570936 3899 L-570574 3899 L-570202 3899 L-569505 3899 L-569103 3899 L-568998 3899 L-568980 3899 L-568035 3899 L-567840 3899 L-567688 3899 L-567633 3899 L-566876 3899 L-566859 3899 L-566370 3899 L-566240 3899 L-566047 3899 L-565157 3899 L-565117 3899 L-565079 3899 L-565002 3899 L-564963 3899 L-564886 3899 L-564802 3899 L-564538 3899 L-564306 3898 L-564244 3898 L-563763 3898 L-563427 3898 L-563315 3898 L-563122 3898 L-562946 3898 L-562886 3898 L-562850 3898 L-562580 3898 L-561882 3898 L-561829 3898 L-561535 3898 L-561133 3898 L-560569 3898 L-559696 3898 L-559391 3898 L-559353 3898 L-559230 3898 L-558632 3898 L-558502 3898 L-558302 3898 L-558265 3898 L-557651 3898 L-557472 3898 L-557457 3898 L-557239 3898 L-557161 3898 L-556854 3898 L-556722 3898 L-556490 3898 L-556156 3898 L-556064 3898 L-555964 3898 L-555926 3898 L-555383 3898 L-555190 3898 L-554649 3898 L-554223 3898 L-554091 3898 L-554030 3898 L-553799 3898 L-553782 3898 L-553294 3898 L-553213 3898 L-553196 3898 L-551803 3898 L-551667 3898 L-551553 3898 L-550919 3898 L-550779 3898 L-550661 3898 L-550508 3898 L-550471 3898 L-550392 3898 L-550338 3898 L-549346 3898 L-549310 3898 L-549177 3898 L-549116 3898 L-549017 3898 L-548727 3898 L-548713 3898 L-548403 3898 L-548304 3898 L-547838 3898 L-547785 3900 L-547642 3901 L-547514 3903 L-547282 3905 L-546713 3905 L-546624 3905 L-546602 3905 L-546315 3905 L-545632 3905 L-545555 3905 L-545519 3905 L-545502 3905 L-545303 3905 L-544882 3905 L-544611 3905 L-543738 3905 L-543446 3905 L-543335 3905 L-542600 3905 L-542473 3905 L-542114 3905 L-541861 3905 L-540990 3905 L-540821 3905 L-540759 3905 L-540704 3905 L-540356 3905 L-540333 3905 L-540124 3905 L-539984 3905 L-539853 3905 L-539731 3905 L-539607 3905 L-539370 3905 L-539080 3905 L-538421 3905 L-538399 3905 L-538244 3905 L-538126 3905 L-537162 3905 L-537106 3905 L-536874 3905 L-536851 3905 L-536525 3905 L-536410 3905 L-536370 3905 L-535868 3905 L-535569 3905 L-535458 3904 L-534915 3904 L-533856 3904 L-533230 3904 L-533059 3904 L-532811 3904 L-532555 3904 L-532424 3904 L-532402 3904 L-531735 3904 L-530838 3904 L-530792 3904 L-530722 3904 L-530606 3904 L-530386 3904 L-530195 3904 L-530156 3904 L-529963 3904 L-529304 3904 L-528687 3904 L-528648 3904 L-528052 3904 L-527990 3905 L-526868 3905 L-526814 3905 L-526693 3905 L-526427 3905 L-526364 3905 L-526095 3905 L-526018 3905 L-525802 3905 L-525320 3905 L-525050 3905 L-524919 3905 L-524686 3904 L-524662 3904 L-524647 3904 L-524624 3904 L-524608 3904 L-524584 3904 L-524570 3904 L-524547 3904 L-524531 3904 L-524508 3904 L-524493 3904 L-524471 3903 L-524455 3903 L-524426 3903 L-524409 3903 L-524391 3903 L-524354 3903 L-524315 3903 L-524299 3903 L-524274 3903 L-524222 3903 L-524198 3903 L-524121 3903 L-524083 3903 L-524068 3903 L-524005 3903 L-523990 3903 L-523944 3903 L-523873 3903 L-523835 3903 L-523811 3903 L-523758 3903 L-523733 3903 L-523718 3903 L-523656 3903 L-523619 3903 L-523542 3903 L-523526 3903 L-523498 3903 L-523425 3903 L-523386 3903 L-523232 3902 L-523116 3902 L-523062 3902 L-522979 3902 L-522946 3902 L-522922 3902 L-522767 3902 L-522752 3902 L-522651 3902 L-522340 3902 L-522304 3902 L-522089 3902 L-521978 3902 L-521953 3902 L-521723 3902 L-521490 3902 L-521115 3902 L-520988 3902 L-520948 3902 L-520895 3902 L-520794 3902 L-520757 3902 L-520547 3902 L-520482 3902 L-520370 3902 L-520158 3902 L-520121 3902 L-519749 3902 L-519696 3902 L-519617 3902 L-519595 3902 L-519502 3902 L-519302 3902 L-519265 3902 L-519243 3902 L-519013 3902 L-518992 3902 L-518783 3902 L-518688 3902 L-518650 3902 L-518314 3902 L-518201 3902 L-518161 3902 L-518148 3902 L-518008 3902 L-517993 3902 L-517739 3902 L-517156 3902 L-517080 3902 L-517042 3902 L-516997 3902 L-516949 3902 L-516769 3902 L-516754 3902 L-516655 3902 L-516577 3902 L-516516 3902 L-516151 3902 L-516069 3902 L-516051 3902 L-515997 3902 L-515029 3902 L-514897 3902 L-514876 3902 L-514655 3902 L-514587 3902 L-514564 3902 L-514318 3902 L-514062 3901 L-513931 3901 L-513891 3901 L-513870 3901 L-513814 3901 L-513727 3901 L-513665 3901 L-513440 3901 L-513311 3901 L-513211 3901 L-513157 3901 L-512963 3901 L-512885 3901 L-512552 3901 L-512421 3901 L-512244 3901 L-512228 3901 L-512203 3901 L-511934 3901 L-510733 3901 L-510696 3901 L-510580 3901 L-510346 3901 L-510155 3901 L-510116 3901 L-510061 3901 L-509956 3901 L-509442 3901 L-509148 3901 L-508916 3901 L-508641 3901 L-508624 3901 L-508591 3901 L-508551 3901 L-508514 3901 L-508412 3901 L-508335 3901 L-508242 3901 L-508116 3901 L-508011 3901 L-507833 3901 L-507640 3901 L-506811 3901 L-506695 3901 L-506441 3901 L-506401 3901 L-506302 3901 L-506241 3901 L-505999 3901 L-505975 3901 L-505854 3901 L-505783 3901 L-505743 3901 L-505512 3901 L-505335 3901 L-504815 3901 L-504739 3901 L-504722 3901 L-504311 3901 L-503948 3901 L-503832 3901 L-503810 3901 L-503769 3901 L-503693 3901 L-503639 3900 L-503290 3900 L-503174 3900 L-502997 3900 L-502942 3900 L-502918 3900 L-502804 3900 L-502516 3900 L-502284 3900 L-502069 3900 L-501859 3900 L-501649 3900 L-500823 3900 L-500483 3900 L-499475 3900 L-499112 3900 L-498067 3900 L-497989 3900 L-497542 3900 L-497331 3900 L-497139 3900 L-496845 3900 L-496804 3900 L-496650 3900 L-496597 3900 L-496365 3900 L-495785 3900 L-495591 3900 L-494972 3900 L-494483 3900 L-494431 3900 L-493782 3900 L-493632 3900 L-493463 3900 L-493090 3900 L-493074 3900 L-492975 3900 L-492937 3900 L-492806 3900 L-492372 3900 L-492069 3900 L-491684 3900 L-491544 3900 L-491382 3900 L-490948 3900 L-490910 3900 L-490808 3900 L-490693 3900 L-490515 3900 L-490345 3900 L-490227 3900 L-489865 3900 L-489648 3900 L-489515 3900 L-489375 3900 L-488876 3900 L-488798 3900 L-488564 3900 L-488240 3900 L-487853 3900 L-487831 3900 L-487210 3900 L-486940 3900 L-486707 3900 L-486282 3900 L-486011 3900 L-485869 3900 L-485660 3900 L-485455 3900 L-484903 3900 L-484772 3900 L-484386 3900 L-484115 3900 L-484013 3899 L-483752 3899 L-483551 3899 L-483481 3899 L-483443 3899 L-482875 3899 L-482668 3899 L-482641 3899 L-482412 3899 L-482335 3899 L-481818 3899 L-481779 3899 L-481624 3899 L-481330 3899 L-481059 3899 L-480695 3899 L-480347 3899 L-479975 3899 L-479854 3899 L-479783 3899 L-479303 3899 L-479240 3899 L-478905 3899 L-478774 3899 L-478696 3899 L-478567 3899 L-478103 3899 L-477809 3899 L-477733 3899 L-477421 3899 L-477113 3899 L-477050 3899 L-477020 3899 L-476245 3899 L-476141 3899 L-476053 3899 L-476030 3899 L-475876 3899 L-475654 3899 L-475487 3899 L-475100 3899 L-475046 3899 L-474982 3899 L-474365 3899 L-474248 3899 L-473925 3899 L-473399 3899 L-473049 3899 L-472973 3899 L-472353 3899 L-471942 3899 L-471641 3899 L-471331 3899 L-471192 3899 L-470568 3899 L-470187 3899 L-469063 3899 L-468003 3899 L-467940 3899 L-467580 3899 L-467478 3899 L-467462 3899 L-467089 3899 L-466083 3898 L-465696 3898 L-465489 3898 L-465401 3898 L-465025 3898 L-464732 3898 L-464421 3898 L-463632 3898 L-463544 3898 L-463492 3898 L-463453 3898 L-462936 3898 L-462820 3898 L-462611 3898 L-462472 3898 L-461869 3898 L-461039 3898 L-460756 3898 L-460574 3898 L-460073 3898 L-459868 3898 L-459314 3898 L-458808 3898 L-458617 3898 L-458579 3898 L-457950 3898 L-457497 3898 L-457082 3898 L-456474 3898 L-455353 3898 L-454940 3898 L-454616 3898 L-454401 3898 L-453974 3898 L-453834 3898 L-453743 3898 L-453511 3898 L-452925 3898 L-452117 3898 L-450917 3898 L-450804 3898 L-450671 3898 L-450584 3898 L-450542 3898 L-450521 3898 L-450510 3898 L-450416 3898 L-449652 3898 L-448946 3898 L-448906 3898 L-448620 3898 L-448080 3898 L-448018 3898 L-447978 3898 L-447963 3898 L-447706 3898 L-447383 3898 L-447243 3898 L-446973 3898 L-446934 3898 L-446826 3898 L-446425 3898 L-446315 3898 L-446238 3898 L-445941 3898 L-445898 3898 L-445679 3898 L-445496 3898 L-445385 3898 L-445371 3898 L-445345 3898 L-444921 3898 L-444674 3898 L-444339 3898 L-444304 3898 L-444169 3898 L-443915 3898 L-443761 3898 L-442855 3898 L-442756 3898 L-442561 3897 L-441553 3897 L-441053 3897 L-440974 3897 L-440936 3897 L-440728 3897 L-440610 3897 L-440511 3897 L-440326 3897 L-440160 3897 L-439924 3897 L-439505 3897 L-439489 3897 L-439180 3897 L-438134 3897 L-437917 3897 L-437902 3897 L-437879 3897 L-437671 3897 L-437512 3897 L-437453 3897 L-436008 3897 L-435682 3897 L-435480 3897 L-435281 3897 L-435131 3897 L-434861 3897 L-434420 3897 L-434202 3897 L-433508 3897 L-433005 3897 L-432680 3897 L-432409 3897 L-431689 3897 L-431534 3897 L-430335 3897 L-429946 3897 L-429831 3897 L-429677 3897 L-429524 3897 L-428553 3897 L-428501 3897 L-428254 3897 L-428231 3897 L-428012 3897 L-427573 3897 L-427434 3897 L-427326 3897 L-427124 3897 L-427007 3897 L-426905 3897 L-426890 3897 L-426758 3897 L-426504 3897 L-425886 3897 L-425226 3897 L-424981 3897 L-424788 3897 L-424029 3897 L-423989 3897 L-423911 3897 L-423859 3896 L-423820 3896 L-423782 3896 L-423743 3896 L-423651 3896 L-423607 3896 L-423549 3896 L-423525 3896 L-423410 3896 L-423100 3896 L-423045 3896 L-423023 3896 L-422681 3896 L-422516 3896 L-422481 3896 L-422440 3896 L-422425 3896 L-422194 3896 L-422053 3896 L-421885 3896 L-421436 3896 L-421202 3896 L-421110 3896 L-421090 3896 L-420609 3896 L-420531 3896 L-420404 3896 L-420274 3896 L-419896 3896 L-419655 3896 L-419617 3896 L-419563 3896 L-419425 3896 L-419386 3896 L-419346 3896 L-419115 3896 L-419075 3896 L-418945 3896 L-418766 3896 L-418725 3896 L-418711 3896 L-418547 3896 L-418533 3896 L-418380 3896 L-418365 3896 L-418339 3896 L-418304 3896 L-418082 3896 L-417860 3896 L-417605 3896 L-417473 3896 L-416831 3896 L-416224 3896 L-415204 3896 L-415011 3896 L-414960 3896 L-414835 3896 L-414511 3896 L-413738 3896 L-413680 3895 L-413566 3895 L-413154 3895 L-412829 3895 L-412692 3895 L-412467 3895 L-411942 3895 L-411540 3895 L-411509 3895 L-411222 3895 L-410937 3895 L-410549 3895 L-410332 3895 L-409905 3895 L-409724 3895 L-409387 3895 L-409281 3895 L-409094 3895 L-408977 3895 L-408963 3895 L-408242 3895 L-408072 3895 L-407824 3895 L-407724 3895 L-407082 3895 L-406794 3895 L-406603 3895 L-406328 3895 L-406011 3895 L-405726 3895 L-405612 3895 L-405567 3895 L-405365 3895 L-403756 3895 L-403544 3895 L-402863 3895 L-402781 3895 L-402553 3895 L-402362 3895 L-402223 3895 L-402205 3895 L-402011 3895 L-401782 3895 L-401589 3895 L-400505 3895 L-400309 3895 L-400257 3895 L-400103 3895 L-399995 3895 L-399829 3895 L-399676 3895 L-399561 3895 L-399437 3895 L-399020 3895 L-398763 3895 L-398671 3895 L-398478 3895 L-398416 3895 L-398091 3895 L-398029 3895 L-397972 3895 L-397703 3895 L-397355 3895 L-397177 3895 L-396982 3895 L-396946 3895 L-396234 3895 L-396194 3895 L-395885 3895 L-395587 3895 L-395537 3895 L-395282 3895 L-395011 3895 L-394956 3895 L-393865 3895 L-393834 3895 L-393794 3895 L-393617 3895 L-393425 3895 L-392567 3895 L-391513 3895 L-391452 3895 L-391104 3895 L-390291 3895 L-389477 3895 L-389462 3895 L-389087 3895 L-388919 3895 L-388650 3895 L-388322 3895 L-388201 3895 L-388144 3895 L-388108 3895 L-388031 3895 L-387814 3895 L-387756 3895 L-387440 3895 L-387272 3895 L-386909 3895 L-386716 3895 L-386692 3895 L-386615 3894 L-386134 3894 L-385996 3894 L-385583 3894 L-385284 3894 L-385184 3894 L-385169 3894 L-385140 3894 L-384781 3894 L-384431 3894 L-384293 3894 L-384256 3894 L-383439 3894 L-383233 3894 L-383209 3894 L-383053 3894 L-382963 3894 L-382722 3894 L-382398 3894 L-382305 3894 L-382109 3894 L-381823 3894 L-381067 3894 L-380938 3894 L-380864 3894 L-380252 3894 L-380076 3894 L-379965 3894 L-379866 3894 L-379787 3894 L-379650 3894 L-379495 3894 L-379416 3894 L-379225 3894 L-378552 3894 L-378514 3894 L-378411 3894 L-377468 3894 L-377446 3894 L-377095 3894 L-376630 3894 L-376594 3894 L-376165 3894 L-376114 3894 L-375702 3894 L-375686 3894 L-375590 3894 L-375534 3894 L-375496 3894 L-375201 3894 L-373462 3894 L-371952 3894 L-371444 3894 L-370947 3894 L-370813 3894 L-370722 3894 L-370595 3894 L-370516 3894 L-370210 3894 L-369940 3894 L-369706 3894 L-368507 3894 L-368402 3894 L-368336 3894 L-367495 3894 L-367309 3894 L-366398 3894 L-365528 3894 L-365241 3894 L-365148 3894 L-364599 3894 L-364079 3894 L-363011 3893 L-362742 3893 L-362588 3893 L-362496 3893 L-362365 3893 L-362318 3894 L-362159 3894 L-361293 3894 L-360958 3894 L-360575 3893 L-359822 3893 L-359763 3893 L-359374 3893 L-359052 3893 L-358895 3893 L-358162 3893 L-358100 3893 L-357813 3893 L-357439 3893 L-357258 3893 L-357002 3893 L-356740 3893 L-356588 3893 L-356184 3893 L-354887 3893 L-354772 3893 L-354308 3893 L-352976 3893 L-352552 3893 L-352527 3893 L-352394 3893 L-352219 3893 L-352086 3893 L-351756 3893 L-351368 3893 L-351329 3893 L-351313 3893 L-350922 3893 L-350630 3893 L-350361 3893 L-350188 3893 L-348695 3893 L-348644 3893 L-348566 3893 L-347326 3893 L-347251 3893 L-347225 3893 L-346978 3893 L-346821 3893 L-346762 3893 L-345875 3893 L-345646 3893 L-345123 3893 L-344981 3893 L-344906 3893 L-344209 3893 L-343962 3893 L-343281 3893 L-343264 3893 L-343010 3893 L-342642 3893 L-342506 3893 L-341884 3893 L-341541 3893 L-341494 3893 L-341006 3893 L-340672 3893 L-340456 3893 L-340321 3893 L-340000 3893 L-339936 3893 L-339684 3893 L-339394 3893 L-339085 3893 L-338945 3893 L-338406 3893 L-338130 3893 L-337400 3893 L-337347 3893 L-337239 3893 L-336974 3893 L-336549 3893 L-336285 3893 L-336065 3893 L-336045 3893 L-335813 3893 L-335526 3893 L-335503 3893 L-335489 3893 L-335116 3893 L-334945 3893 L-334869 3893 L-334808 3893 L-334507 3893 L-334266 3893 L-334173 3893 L-333916 3892 L-333863 3892 L-333668 3892 L-333452 3892 L-333028 3892 L-332936 3892 L-332795 3892 L-331930 3892 L-331557 3892 L-331229 3892 L-331077 3892 L-330650 3892 L-329932 3892 L-329737 3892 L-329383 3892 L-329236 3892 L-328730 3892 L-328493 3892 L-327526 3892 L-327516 3892 L-326451 3892 L-326219 3892 L-325817 3892 L-325623 3892 L-325542 3892 L-325446 3892 L-324709 3892 L-324577 3892 L-324187 3892 L-324165 3892 L-324070 3892 L-323935 3892 L-323918 3892 L-323898 3892 L-322213 3892 L-322194 3892 L-322078 3892 L-321993 3892 L-321869 3892 L-321845 3892 L-321561 3892 L-321454 3892 L-321266 3892 L-320995 3892 L-320323 3892 L-319951 3892 L-319100 3892 L-319042 3892 L-319022 3892 L-318789 3892 L-318515 3892 L-318209 3892 L-318170 3892 L-317939 3892 L-317701 3892 L-317088 3892 L-317048 3892 L-317010 3892 L-316488 3892 L-316297 3892 L-316237 3892 L-316194 3892 L-315872 3892 L-315844 3892 L-315829 3892 L-315344 3892 L-315291 3892 L-315152 3892 L-315114 3892 L-315097 3892 L-315003 3892 L-314337 3892 L-313721 3892 L-313452 3892 L-313043 3892 L-313023 3891 L-313008 3891 L-312894 3891 L-312507 3891 L-312041 3891 L-311980 3891 L-311901 3891 L-311886 3891 L-311400 3891 L-311361 3891 L-311215 3891 L-311166 3891 L-311087 3891 L-310455 3891 L-310364 3891 L-310123 3891 L-310006 3891 L-309679 3891 L-308924 3891 L-308908 3891 L-307956 3891 L-307647 3891 L-307222 3891 L-306508 3891 L-306190 3891 L-306175 3891 L-306024 3891 L-305720 3891 L-305642 3891 L-305515 3891 L-305078 3891 L-305018 3891 L-304495 3891 L-304226 3891 L-304089 3891 L-304011 3891 L-303972 3891 L-303160 3891 L-303119 3891 L-302680 3891 L-302601 3891 L-302344 3891 L-302153 3891 L-301524 3891 L-301337 3891 L-301303 3891 L-301147 3891 L-300745 3891 L-300668 3891 L-300487 3891 L-300297 3891 L-299368 3891 L-299217 3891 L-298010 3891 L-297200 3891 L-296797 3891 L-296194 3891 L-295992 3891 L-295923 3891 L-295765 3891 L-295504 3891 L-295131 3907 L-295112 3907 L-294955 3907 L-293757 3907 L-292653 3891 L-291726 3891 L-291612 3891 L-291326 3891 L-291224 3891 L-291200 3891 L-291010 3891 L-290932 3890 L-290737 3890 L-290025 3890 L-289867 3891 L-288810 3891 L-288385 3891 L-287975 3890 L-287689 3890 L-287515 3890 L-287283 3890 L-287029 3890 L-286586 3890 L-285925 3890 L-285750 3890 L-285445 3890 L-285058 3890 L-285038 3890 L-285018 3890 L-284997 3890 L-284863 3890 L-284671 3890 L-283027 3890 L-281731 3890 L-281692 3890 L-281634 3890 L-281533 3890 L-280973 3890 L-279989 3890 L-279447 3890 L-278983 3890 L-278337 3890 L-277788 3890 L-276739 3890 L-275810 3890 L-275462 3890 L-275269 3890 L-274766 3890 L-274321 3890 L-274179 3890 L-274157 3890 L-273586 3890 L-273200 3890 L-272367 3890 L-272018 3890 L-271997 3890 L-271609 3890 L-271186 3890 L-270588 3890 L-270569 3890 L-270063 3890 L-269831 3890 L-269717 3890 L-269098 3890 L-268537 3890 L-268497 3890 L-267937 3890 L-267605 3890 L-267492 3890 L-267453 3890 L-267028 3890 L-266968 3890 L-266893 3890 L-266602 3890 L-266389 3890 L-265906 3890 L-265691 3890 L-264552 3890 L-264493 3889 L-264475 3889 L-264069 3889 L-263430 3889 L-263295 3889 L-263236 3889 L-262694 3889 L-262385 3889 L-262134 3889 L-262058 3889 L-261939 3889 L-261206 3889 L-260760 3889 L-260546 3889 L-259813 3889 L-259638 3889 L-259272 3889 L-259058 3889 L-257820 3889 L-257510 3889 L-257393 3889 L-257141 3889 L-256930 3889 L-256388 3889 L-256156 3889 L-256098 3889 L-256001 3889 L-255672 3889 L-255439 3889 L-253777 3889 L-253426 3889 L-253022 3889 L-252867 3889 L-252075 3889 L-250584 3889 L-250197 3889 L-250159 3889 L-249905 3889 L-249810 3889 L-249617 3889 L-249269 3889 L-248573 3889 L-248321 3889 L-247605 3889 L-246193 3889 L-245961 3889 L-245632 3889 L-244415 3889 L-244064 3889 L-243872 3889 L-243754 3889 L-241319 3889 L-240349 3889 L-239518 3889 L-239209 3889 L-237867 3889 L-237294 3889 L-237178 3889 L-236849 3889 L-236753 3889 L-236346 3889 L-236230 3889 L-236039 3889 L-235283 3889 L-235157 3889 L-234876 3889 L-234373 3889 L-234296 3889 L-232709 3889 L-232652 3889 L-231910 3889 L-231529 3889 L-231201 3889 L-230537 3889 L-230407 3889 L-230368 3889 L-230117 3889 L-229981 3889 L-229789 3889 L-229653 3889 L-229402 3889 L-229189 3889 L-228879 3889 L-228607 3889 L-228105 3889 L-228086 3889 L-227653 3889 L-227427 3889 L-226983 3889 L-226964 3889 L-226461 3889 L-226323 3889 L-226209 3889 L-225977 3889 L-225667 3889 L-225203 3889 L-225126 3889 L-224623 3889 L-224352 3889 L-224014 3889 L-223829 3889 L-223153 3889 L-223134 3889 L-222959 3889 L-222939 3889 L-222322 3889 L-221605 3889 L-221044 3889 L-220849 3889 L-220695 3888 L-220677 3888 L-220153 3888 L-220039 3888 L-219167 3888 L-219146 3888 L-219090 3888 L-218258 3888 L-217948 3888 L-217872 3888 L-217600 3888 L-217537 3888 L-217487 3888 L-217175 3888 L-216558 3888 L-215783 3888 L-214989 3888 L-214951 3888 L-214873 3888 L-214701 3888 L-213823 3888 L-212939 3888 L-212844 3888 L-212724 3888 L-212395 3888 L-212358 3888 L-212126 3888 L-211893 3888 L-211178 3888 L-210675 3888 L-210010 3888 L-209901 3888 L-209747 3888 L-209727 3888 L-209573 3888 L-209157 3888 L-208546 3888 L-208412 3888 L-207503 3888 L-207300 3888 L-206748 3888 L-204098 3888 L-203924 3888 L-203846 3888 L-202974 3888 L-202511 3888 L-202028 3888 L-201989 3888 L-201409 3888 L-201389 3888 L-200287 3888 L-198865 3888 L-198447 3888 L-198140 3887 L-198063 3887 L-197987 3887 L-197829 3887 L-197753 3887 L-197289 3887 L-196051 3887 L-195799 3887 L-195354 3887 L-194732 3887 L-194677 3887 L-194483 3887 L-194018 3887 L-193728 3887 L-193687 3887 L-193650 3887 L-193497 3887 L-193320 3887 L-192182 3887 L-191794 3887 L-191736 3887 L-191563 3887 L-189045 3887 L-187885 3887 L-187248 3887 L-187109 3887 L-186977 3887 L-186590 3887 L-186126 3887 L-185915 3887 L-185850 3887 L-185816 3887 L-185062 3887 L-184480 3887 L-184289 3887 L-183670 3887 L-183624 3887 L-183263 3887 L-183157 3887 L-182972 3887 L-182695 3887 L-181791 3887 L-180787 3887 L-180051 3887 L-179626 3887 L-179466 3887 L-179103 3887 L-179006 3887 L-178562 3887 L-178487 3886 L-178134 3886 L-177885 3886 L-177865 3886 L-177692 3886 L-176743 3886 L-176629 3886 L-176067 3886 L-175617 3886 L-175232 3886 L-174321 3886 L-174265 3886 L-173126 3886 L-172546 3886 L-172371 3886 L-171577 3886 L-171346 3886 L-170959 3886 L-170689 3886 L-170553 3886 L-170437 3886 L-169818 3886 L-169760 3886 L-169545 3886 L-169251 3886 L-168463 3886 L-168323 3886 L-166934 3886 L-166588 3886 L-166201 3886 L-166140 3886 L-166103 3886 L-166046 3886 L-165403 3886 L-164711 3886 L-164459 3886 L-164124 3886 L-164034 3886 L-163514 3886 L-163260 3886 L-163044 3886 L-162661 3886 L-162501 3886 L-161963 3886 L-161150 3886 L-161131 3886 L-161016 3886 L-160871 3886 L-160491 3886 L-160298 3886 L-160242 3886 L-159943 3886 L-159876 3886 L-159681 3886 L-159313 3886 L-159252 3886 L-158948 3886 L-158903 3886 L-158849 3885 L-158211 3885 L-158191 3885 L-157706 3885 L-157224 3885 L-156855 3885 L-156489 3885 L-156354 3885 L-156200 3885 L-156130 3885 L-155483 3885 L-155463 3885 L-155322 3885 L-154837 3885 L-154554 3885 L-154497 3885 L-154439 3885 L-154129 3885 L-153974 3885 L-153491 3885 L-152717 3885 L-152077 3885 L-151980 3885 L-150917 3885 L-150896 3885 L-150431 3907 L-150415 3907 L-150241 3907 L-149728 3907 L-147374 3885 L-146430 3885 L-145711 3885 L-145170 3885 L-144473 3885 L-144157 3885 L-143508 3885 L-143001 3885 L-142966 3885 L-142924 3885 L-142579 3885 L-141884 3885 L-141687 3885 L-141671 3885 L-141554 3885 L-141273 3885 L-140375 3885 L-140329 3885 L-139963 3885 L-139946 3885 L-139891 3885 L-139697 3885 L-139561 3885 L-139486 3885 L-139252 3885 L-138711 3885 L-138671 3885 L-138634 3885 L-138608 3885 L-137973 3885 L-137431 3885 L-136266 3885 L-135906 3885 L-134629 3885 L-134590 3885 L-134551 3885 L-134336 3885 L-134146 3885 L-134069 3885 L-133915 3885 L-133875 3885 L-132786 3885 L-132462 3885 L-132248 3885 L-131988 3885 L-131495 3885 L-131473 3885 L-131056 3885 L-130915 3885 L-130855 3885 L-130777 3885 L-130566 3885 L-129272 3885 L-128996 3885 L-128371 3885 L-126980 3885 L-126908 3885 L-126870 3885 L-126676 3885 L-126287 3885 L-125979 3885 L-125923 3885 L-125608 3885 L-125558 3885 L-125519 3885 L-125473 3885 L-124840 3885 L-124066 3885 L-123627 3884 L-123485 3906 L-123462 3906 L-123446 3928 L-123420 3928 L-123003 3906 L-122800 3906 L-122650 3884 L-122572 3884 L-122518 3884 L-121721 3884 L-121705 3884 L-120841 3884 L-120637 3884 L-120350 3884 L-120235 3884 L-119709 3884 L-119533 3884 L-119229 3884 L-118842 3884 L-118781 3884 L-118726 3884 L-118571 3884 L-117527 3884 L-116964 3884 L-116728 3884 L-116692 3884 L-116422 3884 L-116017 3884 L-114547 3884 L-112806 3884 L-112419 3884 L-112187 3884 L-112088 3884 L-111994 3884 L-111839 3884 L-111276 3884 L-111193 3884 L-111026 3884 L-110484 3884 L-109299 3884 L-109285 3884 L-109226 3884 L-109074 3884 L-108589 3884 L-107943 3884 L-107236 3884 L-107120 3884 L-106153 3884 L-106108 3884 L-105417 3884 L-105360 3884 L-105282 3884 L-105263 3884 L-105242 3884 L-105026 3884 L-104313 3884 L-103923 3884 L-103887 3884 L-103870 3884 L-103812 3884 L-103384 3884 L-103170 3884 L-103095 3884 L-103018 3884 L-102903 3884 L-102837 3884 L-102709 3884 L-102649 3884 L-102574 3884 L-102495 3884 L-102067 3884 L-101341 3884 L-101327 3883 L-101161 3883 L-100944 3883 L-100929 3883 L-100349 3883 L-100077 3883 L-99789 3883 L-99358 3883 L-99205 3883 L-99149 3883 L-98972 3883 L-97577 3883 L-97311 3883 L-96418 3883 L-95893 3883 L-94874 3883 L-94792 3883 L-94329 3883 L-93709 3883 L-93423 3883 L-93169 3883 L-93018 3883 L-92669 3883 L-91953 3883 L-91391 3883 L-90503 3883 L-90194 3883 L-89903 3883 L-89050 3883 L-89030 3883 L-88373 3883 L-87869 3883 L-87659 3883 L-87639 3883 L-87309 3883 L-87251 3883 L-86864 3883 L-85879 3883 L-85317 3883 L-85220 3883 L-84911 3883 L-84834 3883 L-83800 3883 L-83669 3883 L-83613 3883 L-82977 3883 L-82918 3883 L-82843 3883 L-81429 3883 L-81292 3883 L-81159 3883 L-80673 3883 L-80423 3883 L-80132 3883 L-79920 3883 L-79263 3883 L-78694 3883 L-78605 3883 L-78466 3883 L-78391 3883 L-77226 3883 L-77194 3883 L-76765 3883 L-76748 3883 L-76573 3882 L-75045 3882 L-74961 3882 L-74156 3882 L-73962 3882 L-73941 3882 L-73088 3882 L-72894 3882 L-72260 3882 L-72084 3882 L-71965 3882 L-71912 3882 L-71890 3882 L-71834 3882 L-71446 3882 L-71002 3882 L-70924 3882 L-70727 3882 L-70665 3882 L-70403 3882 L-70054 3882 L-69938 3882 L-68790 3882 L-68505 3882 L-68061 3882 L-66857 3882 L-66727 3882 L-66417 3882 L-65989 3882 L-64692 3882 L-64383 3903 L-64367 3903 L-64320 3904 L-64271 3904 L-63343 3883 L-63012 3883 L-62464 3882 L-62336 3882 L-61890 3882 L-60357 3882 L-60189 3882 L-59917 3882 L-59893 3882 L-58988 3882 L-58873 3882 L-58406 3882 L-58383 3882 L-58311 3882 L-58113 3882 L-57961 3882 L-57494 3882 L-56842 3882 L-56356 3882 L-55806 3882 L-54784 3882 L-54478 3882 L-54423 3882 L-53823 3882 L-53393 3882 L-53319 3882 L-53302 3882 L-53081 3882 L-52776 3882 L-52694 3882 L-52391 3882 L-51791 3882 L-51655 3882 L-51384 3882 L-51170 3882 L-50995 3882 L-50786 3882 L-50765 3882 L-50516 3882 L-50066 3882 L-50050 3882 L-49605 3883 L-48396 3883 L-48194 3883 L-47266 3883 L-47204 3883 L-47170 3882 L-46144 3882 L-46028 3882 L-46007 3882 L-45853 3882 L-45834 3882 L-45423 3882 L-45407 3882 L-45370 3882 L-45060 3882 L-44906 3882 L-44701 3882 L-44302 3882 L-43319 3882 L-42794 3882 L-42738 3882 L-42712 3882 L-42390 3882 L-41674 3882 L-40804 3882 L-40766 3882 L-40689 3882 L-40437 3882 L-40417 3882 L-39695 3882 L-39545 3882 L-39432 3882 L-39334 3882 L-38232 3882 L-37477 3882 L-37305 3882 L-37144 3882 L-37068 3882 L-36874 3882 L-35736 3882 L-35052 3882 L-34769 3882 L-33802 3882 L-33783 3882 L-32932 3882 L-32892 3882 L-32749 3882 L-32424 3882 L-32194 3882 L-32157 3882 L-32116 3882 L-32099 3882 L-31963 3882 L-31945 3882 L-31733 3882 L-31673 3882 L-31595 3882 L-31571 3882 L-31496 3882 L-31016 3882 L-30920 3882 L-30844 3882 L-30667 3882 L-30645 3882 L-30590 3882 L-30551 3882 L-30492 3882 L-30337 3882 L-29313 3882 L-29014 3882 L-28888 3882 L-28810 3882 L-27784 3882 L-27727 3882 L-27670 3882 L-27623 3882 L-27610 3881 L-27572 3881 L-27534 3881 L-26354 3881 L-26296 3881 L-25599 3881 L-24980 3881 L-24837 3881 L-24394 3881 L-24129 3881 L-23465 3881 L-23181 3881 L-21711 3881 L-20763 3881 L-20657 3881 L-20591 3881 L-20561 3881 L-20241 3881 L-20220 3881 L-19291 3881 L-19116 3881 L-18384 3881 L-17843 2918 L-17820 1954 L-17793 991 L-17761 27 L-17744 27 L-17724 27 L-17686 27 L-17666 27 L-17643 27 L-17628 27 L-17610 27 L-17589 27 L-17568 27 L-17551 27 L-17531 27 L-17512 27 L-17474 27 L-17434 27 L-17408 27 L-17392 27 L-17374 27 L-17337 27 L-17319 27 L-17299 27 L-17280 27 L-17258 27 L-17242 27 L-17202 27 L-17180 27 L-17164 27 L-17145 27 L-17125 27 L-17106 27 L-17087 27 L-17048 26 L-16991 26 L-16942 26 L-16891 26 L-16864 26 L-16848 26 L-16832 26 L-16816 26 L-16795 26 L-16777 26 L-16757 26 L-16738 26 L-16715 26 L-16700 26 L-16681 26 L-16661 26 L-16639 26 L-16603 26 L-16584 26 L-16563 26 L-16526 26 L-16505 26 L-16480 26 L-16464 26 L-16446 26 L-16429 26 L-16408 26 L-16390 26 L-16370 25 L-16351 25 L-16294 25 L-16274 25 L-16251 25 L-16217 25 L-16197 25 L-16177 25 L-16158 25 L-16139 25 L-16100 25 L-16081 25 L-16062 25 L-16036 25 L-15849 25 L-15829 25 L-15809 25 L-15787 25 L-15753 25 L-15732 25 L-15711 25 L-15694 25 L-15674 25 L-15655 25 L-15634 25 L-15617 25 L-15598 24 L-15577 24 L-15551 24 L-15535 24 L-15500 24 L-15480 24 L-15462 24 L-15442 24 L-15423 24 L-15402 24 L-15365 24 L-15345 24 L-15323 24 L-15307 24 L-15288 24 L-15268 24 L-15249 24 L-15211 24 L-15134 24 L-15108 24 L-15085 24 L-15057 24 L-15035 24 L-15008 24 L-14959 24 L-14938 24 L-14900 24 L-14881 24 L-14859 24 L-14843 24 L-14824 23 L-14804 23 L-14783 23 L-14747 23 L-14727 23 L-14669 23 L-14648 23 L-14623 23 L-14608 23 L-14591 23 L-14553 23 L-14533 23 L-14515 23 L-14495 23 L-14474 23 L-14456 23 L-14437 23 L-14417 23 L-14396 23 L-14360 23 L-14340 23 L-14321 23 L-14282 23 L-14243 23 L-14224 23 L-14205 23 L-14157 23 L-14129 23 L-14089 23 L-14059 23 L-14044 23 L-13972 23 L-13953 23 L-13930 23 L-13914 23 L-13896 23 L-13855 23 L-13779 23 L-13760 23 L-13741 23 L-13720 23 L-13694 23 L-13663 22 L-13643 22 L-13624 22 L-13586 22 L-13545 22 L-13467 22 L-13431 22 L-13392 22 L-13314 22 L-13295 22 L-13250 22 L-13228 22 L-13200 22 L-13161 22 L-13130 22 L-13115 22 L-13101 22 L-13061 22 L-13000 22 L-12985 22 L-12966 22 L-12946 22 L-12869 22 L-12831 22 L-12812 22 L-12765 22 L-12749 22 L-12731 22 L-12714 22 L-12676 22 L-12656 22 L-12637 22 L-12615 22 L-12599 22 L-12560 21 L-12522 21 L-12503 21 L-12482 21 L-12463 21 L-12444 21 L-12425 21 L-12405 21 L-12386 21 L-12322 21 L-12300 21 L-12272 21 L-12248 21 L-12221 21 L-12205 21 L-12189 21 L-12152 21 L-12134 21 L-12114 21 L-12095 21 L-12072 21 L-12057 21 L-12037 21 L-12018 21 L-11996 20 L-11980 20 L-11960 20 L-11941 20 L-11920 20 L-11902 20 L-11883 20 L-11837 20 L-11821 20 L-11802 20 L-11786 20 L-11765 20 L-11747 20 L-11727 20 L-11708 20 L-11670 20 L-11651 20 L-11608 20 L-11593 20 L-11574 20 L-11554 20 L-11516 20 L-11497 20 L-11477 20 L-11438 20 L-11419 20 L-11393 20 L-11343 19 L-11306 19 L-11290 19 L-11244 19 L-11206 19 L-11186 19 L-11166 19 L-11143 19 L-11128 19 L-11109 19 L-11067 19 L-11051 19 L-11012 19 L-10991 19 L-10974 19 L-10934 19 L-10908 19 L-10892 19 L-10858 19 L-10837 19 L-10819 19 L-10799 19 L-10758 19 L-10742 18 L-10664 18 L-10646 18 L-10606 18 L-10587 18 L-10568 18 L-10548 18 L-10529 18 L-10509 18 L-10414 18 L-10389 18 L-10362 18 L-10331 18 L-10316 18 L-10295 18 L-10257 18 L-10238 18 L-10215 18 L-10200 18 L-10181 18 L-10161 18 L-10139 18 L-10122 18 L-10102 18 L-10084 18 L-10063 18 L-10045 18 L-10026 18 L-10005 18 L-9980 18 L-9963 18 L-9945 18 L-9907 18 L-9890 17 L-9870 17 L-9851 17 L-9830 17 L-9793 17 L-9774 17 L-9751 17 L-9736 17 L-9717 17 L-9697 17 L-9658 17 L-9620 17 L-9600 17 L-9581 17 L-9536 17 L-9434 17 L-9419 17 L-9287 17 L-9271 17 L-9252 17 L-9232 17 L-9210 17 L-9174 17 L-9155 17 L-9134 17 L-9077 17 L-9051 17 L-9035 16 L-9017 16 L-9001 16 L-8980 16 L-8962 16 L-8923 16 L-8901 16 L-8865 16 L-8845 16 L-8823 16 L-8768 16 L-8749 16 L-8691 16 L-8652 16 L-8585 16 L-8558 16 L-8535 16 L-8508 16 L-8475 16 L-8459 16 L-8438 16 L-8420 16 L-8401 16 L-8381 16 L-8360 16 L-8343 16 L-8247 16 L-8188 16 L-8148 16 L-8123 16 L-8092 16 L-8053 16 L-8015 16 L-7995 16 L-7956 16 L-7917 16 L-7879 16 L-7860 16 L-7821 16 L-7801 16 L-7782 16 L-7762 16 L-7743 16 L-7724 16 L-7705 16 L-7678 16 L-7629 15 L-7589 15 L-7559 15 L-7544 15 L-7530 15 L-7491 15 L-7472 15 L-7430 15 L-7414 15 L-7396 15 L-7355 15 L-7318 15 L-7279 15 L-7241 15 L-7194 15 L-7180 15 L-7105 15 L-7066 15 L-7046 15 L-7028 15 L-7009 15 L-6911 15 L-6873 15 L-6814 15 L-6795 15 L-6777 15 L-6750 15 L-6728 15 L-6662 15 L-6645 15 L-6629 15 L-6616 15 L-6580 15 L-6523 15 L-6499 15 L-6466 15 L-6446 14 L-6408 14 L-6387 14 L-6369 14 L-6348 14 L-6331 14 L-6312 14 L-6291 14 L-6265 14 L-6215 14 L-6194 14 L-6137 14 L-6118 14 L-6021 14 L-6003 14 L-5963 14 L-5944 14 L-5925 14 L-5887 14 L-5867 14 L-5848 14 L-5800 14 L-5748 14 L-5721 14 L-5705 14 L-5689 14 L-5673 14 L-5634 14 L-5614 14 L-5595 14 L-5537 14 L-5518 14 L-5495 14 L-5479 13 L-5459 13 L-5441 13 L-5383 13 L-5362 13 L-5337 13 L-5302 13 L-5286 13 L-5266 13 L-5248 13 L-5228 13 L-5209 13 L-5187 13 L-5170 13 L-5150 13 L-5131 13 L-5109 13 L-5093 13 L-5074 13 L-5054 13 L-5034 13 L-4997 13 L-4977 13 L-4957 13 L-4892 13 L-4871 12 L-4843 12 L-4803 12 L-4772 12 L-4757 12 L-4723 12 L-4685 12 L-4666 12 L-4643 12 L-4628 12 L-4609 12 L-4589 12 L-4551 12 L-4531 12 L-4491 12 L-4434 12 L-4408 12 L-4373 12 L-4357 12 L-4336 12 L-4319 12 L-4280 12 L-4258 12 L-4242 12 L-4222 12 L-4202 12 L-4180 12 L-4165 12 L-4146 11 L-4068 11 L-4048 11 L-4028 11 L-4009 11 L-3991 11 L-3965 11 L-3891 11 L-3865 11 L-3848 11 L-3832 11 L-3816 11 L-3795 11 L-3777 11 L-3738 11 L-3715 11 L-3700 11 L-3681 11 L-3661 11 L-3639 11 L-3622 11 L-3527 11 L-3505 11 L-3480 11 L-3446 11 L-3429 11 L-3408 11 L-3390 11 L-3370 11 L-3352 11 L-3330 11 L-3313 11 L-3294 11 L-3274 10 L-3252 10 L-3236 10 L-3217 10 L-3177 10 L-3158 10 L-3120 10 L-3062 10 L-3036 10 L-3014 10 L-2986 10 L-2962 10 L-2936 10 L-2904 10 L-2887 10 L-2867 10 L-2849 10 L-2829 10 L-2809 10 L-2771 10 L-2752 10 L-2732 10 L-2711 10 L-2675 10 L-2655 10 L-2635 10 L-2617 10 L-2598 10 L-2577 10 L-2551 10 L-2536 10 L-2518 10 L-2500 10 L-2480 10 L-2462 9 L-2443 9 L-2423 9 L-2365 9 L-2345 9 L-2323 9 L-2230 9 L-2191 9 L-2172 9 L-2152 9 L-2134 10 L-2036 10 L-2009 10 L-1976 10 L-1959 10 L-1859 10 L-1843 10 L-1824 10 L-1804 10 L-1784 10 L-1765 10 L-1747 10 L-1727 10 L-1707 10 L-1669 10 L-1648 10 L-1591 10 L-1572 10 L-1553 10 L-1533 10 L-1515 10 L-1495 11 L-1474 11 L-1417 11 L-1396 11 L-1360 11 L-1340 11 L-1283 11 L-1263 11 L-1224 11 L-1205 11 L-1178 11 L-1129 11 L-1089 11 L-1030 11 L-1010 11 L-991 11 L-953 11 L-914 11 L-875 10 L-798 10 L-779 10 L-760 10 L-663 10 L-644 10 L-566 10 L-509 10 L-450 10 L-411 10 L-392 10 L-373 10 L-354 10 L-228 10 L-146 10 L-132 10 L-117 10 L-80 10 L-43 10 L-23 10 L0 10 L14 10 L33 10 L91 10 L111 10 L130 9 L151 9 L168 9 L187 9 L208 9 L234 9 L250 9 L268 9 L284 9 L305 8 L323 8 L343 8 L384 8 L420 8 L439 8 L462 8 L496 8 L536 8 L555 8 L594 8 L613 8 L632 8 L651 8 L677 8 L699 8 L752 8 L778 8 L794 8 L810 8 L826 8 L847 8 L865 8 L885 8 L961 8 L981 7 L1003 7 L1020 7 L1039 7 L1079 7 L1115 7 L1137 7 L1162 7 L1179 7 L1197 7 L1234 7 L1252 7 L1272 7 L1290 7 L1312 7 L1329 7 L1349 7 L1368 7 L1391 7 L1445 7 L1465 7 L1484 7 L1542 7 L1606 7 L1628 7 L1707 7 L1739 7 L1775 7 L1793 6 L1813 6 L1856 6 L1871 6 L1910 6 L1931 6 L1948 6 L1968 6 L2008 6 L2025 6 L2044 6 L2065 6 L2091 6 L2108 6 L2126 6 L2163 6 L2200 6 L2219 6 L2241 6 L2277 6 L2320 6 L2374 6 L2412 6 L2431 5 L2451 5 L2471 5 L2534 5 L2609 5 L2652 5 L2668 5 L2683 5 L2722 5 L2742 5 L2785 5 L2799 5 L2818 5 L2838 5 L2860 5 L2877 5 L2896 5 L2937 5 L2973 5 L2994 5 L3019 5 L3036 5 L3054 5 L3070 5 L3092 997 L3122 996 L3148 996 L3170 996 L3186 4 L3206 4 L3225 4 L3263 4 L3282 4 L3302 4 L3322 4 L3379 4 L3399 4 L3418 4 L3463 4 L3485 4 L3513 4 L3538 4 L3565 4 L3596 4 L3633 4 L3650 4 L3670 4 L3747 4 L3767 4 L3788 4 L3805 4 L3825 4 L3922 4 L3948 4 L3964 4 L3982 4 L3999 4 L4037 3 L4057 3 L4098 3 L4134 3 L4154 3 L4176 3 L4192 3 L4231 3 L4288 3 L4328 3 L4414 3 L4441 3 L4464 3 L4506 3 L4579 3 L4598 3 L4656 3 L4675 3 L4695 3 L4716 3 L4752 3 L4792 3 L4811 3 L4851 3 L4876 3 L4927 3 L4966 3 L5025 3 L5043 3 L5062 3 L5103 3 L5178 3 L5198 3 L5216 3 L5275 2 L5294 2 L5320 2 L5342 2 L5409 2 L5439 2 L5453 2 L5489 2 L5527 2 L5568 2 L5603 2 L5624 2 L5644 2 L5662 2 L5681 2 L5701 2 L5721 2 L5739 2 L5819 2 L5875 2 L5894 2 L5913 2 L5954 2 L5972 2 L6032 2 L6068 2 L6088 2 L6126 2 L6165 2 L6184 2 L6222 2 L6338 2 L6370 2 L6385 2 L6419 2 L6436 2 L6456 2 L6500 1" />
</svg>
