<svg xmlns="http://www.w3.org/2000/svg" version="1.1" viewBox="0 0 6500 1000">
	<path fill="none" stroke="gold" stroke-width="125" stroke-linecap="round" stroke-linejoin="round" d="M0 300695  L-1329389 300695 L-1329205 300694 L-1328715 300691 L-1328421 300690 L-1328110 300687 L-1327876 300686 L-1327822 300683 L-1327763 300681 L-1327610 300679 L-1327569 300676 L-1327437 300675 L-1327144 300674 L-1326603 300674 L-1325993 300672 L-1325945 300672 L-1325305 300671 L-1325272 300671 L-1324746 300671 L-1324614 300670 L-1324223 300667 L-1323895 300664 L-1323778 300661 L-1323567 300659 L-1322850 300659 L-1322280 300657 L-1322173 300657 L-1321998 300656 L-1321777 300653 L-1321375 300652 L-1321350 300649 L-1320422 300646 L-1320334 300644 L-1320252 300641 L-1320182 300638 L-1319885 300637 L-1319733 300634 L-1317842 300636 L-1317742 300636 L-1317479 300636 L-1317186 300637 L-1317044 300634 L-1316795 300634 L-1316760 300633 L-1316601 300632 L-1316138 300629 L-1315885 300627 L-1315673 300625 L-1315421 300623 L-1315072 300622 L-1314145 300619 L-1314051 300617 L-1313641 300615 L-1312470 300612 L-1311281 300611 L-1311189 300608 L-1311161 300606 L-1310895 300603 L-1310596 300600 L-1310467 300597 L-1310430 300595 L-1309615 300595 L-1309231 300596 L-1308171 300597 L-1308110 300597 L-1307844 300625 L-1307373 300651 L-1307181 300676 L-1306917 300702 L-1306580 300701 L-1306445 300700 L-1305989 300698 L-1305246 300697 L-1305228 300695 L-1305063 300693 L-1304995 300693 L-1304479 300691 L-1303450 300691 L-1303254 300690 L-1302765 300689 L-1302403 300687 L-1301995 300687 L-1301609 300689 L-1299906 300689 L-1299808 300689 L-1299736 300689 L-1299674 300689 L-1299490 300687 L-1299154 300687 L-1298513 300686 L-1298436 300685 L-1298375 300685 L-1298188 300683 L-1298109 300683 L-1297932 300682 L-1297912 300681 L-1297682 300681 L-1297295 300679 L-1296406 300679 L-1296367 300678 L-1296278 300676 L-1296251 300674 L-1295243 300672 L-1295093 300670 L-1295069 300668 L-1294936 300667 L-1294896 300666 L-1293638 300664 L-1293580 300664 L-1293040 300663 L-1292988 300663 L-1292941 300663 L-1292546 300661 L-1292407 300660 L-1292207 300659 L-1292060 300659 L-1291895 300659 L-1291619 300660 L-1291260 300660 L-1290707 300659 L-1290063 300657 L-1289804 300655 L-1289650 300653 L-1289249 300652 L-1289209 300651 L-1289088 300649 L-1289027 300651 L-1289013 300651 L-1288919 300651 L-1288626 300649 L-1288474 300644 L-1288144 300641 L-1288066 300638 L-1287990 300637 L-1287764 300633 L-1287697 300630 L-1287469 300627 L-1287417 300625 L-1287252 300623 L-1286246 300622 L-1286063 300621 L-1285512 300619 L-1285119 300617 L-1284722 300615 L-1283872 300612 L-1283793 300611 L-1283214 300610 L-1282773 300610 L-1282532 300608 L-1282375 300608 L-1281974 300606 L-1281953 300606 L-1281509 300604 L-1281103 300603 L-1280967 300600 L-1280792 300597 L-1280656 300595 L-1280405 300592 L-1279406 300591 L-1279323 300589 L-1279188 300588 L-1279149 300587 L-1278259 300585 L-1278044 300584 L-1277600 300583 L-1277483 300581 L-1277426 300580 L-1276750 300580 L-1276650 300578 L-1276621 300578 L-1275279 300577 L-1274873 300576 L-1274834 300574 L-1273906 300573 L-1273807 300572 L-1273674 300570 L-1273270 300569 L-1273244 300568 L-1273151 300566 L-1272935 300565 L-1272524 300562 L-1271370 300559 L-1271078 300557 L-1271050 300554 L-1270442 300553 L-1270192 300550 L-1270172 300549 L-1269242 300547 L-1269191 300544 L-1269069 300543 L-1269051 300540 L-1268895 300539 L-1268720 300536 L-1268583 300535 L-1268527 300534 L-1268419 300532 L-1268334 300531 L-1268101 300529 L-1268026 300528 L-1267717 300527 L-1267599 300525 L-1267430 300524 L-1267338 300523 L-1267236 300523 L-1267212 300521 L-1267135 300521 L-1267037 300519 L-1266671 300517 L-1266566 300516 L-1266062 300514 L-1265611 300513 L-1265572 300512 L-1265548 300510 L-1265508 300509 L-1265379 300508 L-1265278 300506 L-1264837 300505 L-1264554 300504 L-1263962 300502 L-1263832 300501 L-1263557 300498 L-1263405 300497 L-1263251 300495 L-1263166 300493 L-1263088 300491 L-1262902 300490 L-1262852 300490 L-1262824 300489 L-1262745 300487 L-1262722 300486 L-1262438 300483 L-1261834 300480 L-1260839 300479 L-1260541 300478 L-1259807 300476 L-1259563 300475 L-1259473 300474 L-1258895 300472 L-1258197 300471 L-1257445 300470 L-1257126 300468 L-1256743 300465 L-1256666 300464 L-1256032 300463 L-1255846 300461 L-1255759 300461 L-1255629 300461 L-1255316 300460 L-1255267 300459 L-1255125 300457 L-1255103 300456 L-1254136 300455 L-1253590 300453 L-1253112 300453 L-1253051 300453 L-1252727 300453 L-1252706 300452 L-1252643 300452 L-1252433 300451 L-1252356 300449 L-1252302 300448 L-1252279 300446 L-1252240 300445 L-1252224 300444 L-1251467 300442 L-1251451 300441 L-1250651 300440 L-1250499 300438 L-1249593 300437 L-1249087 300436 L-1248858 300433 L-1248817 300433 L-1248701 300431 L-1248525 300430 L-1247771 300431 L-1247636 300430 L-1247472 300429 L-1247154 300427 L-1246977 300425 L-1245955 300422 L-1245932 300419 L-1245681 300418 L-1245468 300415 L-1244834 300414 L-1244596 300411 L-1244563 300408 L-1244385 300406 L-1244305 300403 L-1244215 300402 L-1244151 300399 L-1243711 300396 L-1243687 300395 L-1243146 300393 L-1242890 300392 L-1242396 300391 L-1241518 300389 L-1241482 300388 L-1241429 300387 L-1241388 300385 L-1241271 300384 L-1240994 300382 L-1240787 300380 L-1240590 300377 L-1240567 300374 L-1240516 300372 L-1240477 300370 L-1240399 300369 L-1239802 300366 L-1239742 300365 L-1239638 300363 L-1239484 300362 L-1238852 300361 L-1238171 300359 L-1237868 300357 L-1237522 300355 L-1237324 300354 L-1237276 300351 L-1236955 300350 L-1236328 300348 L-1236181 300347 L-1236145 300346 L-1236087 300344 L-1236010 300342 L-1235769 300342 L-1235681 300340 L-1235587 300339 L-1235293 300338 L-1235159 300336 L-1235099 300335 L-1235062 300332 L-1234789 300332 L-1233783 300331 L-1233608 300329 L-1233557 300329 L-1233265 300328 L-1233072 300325 L-1232739 300324 L-1232232 300323 L-1231670 300320 L-1231655 300317 L-1231639 300316 L-1231538 300313 L-1231424 300310 L-1231385 300308 L-1231347 300306 L-1231281 300306 L-1231253 300305 L-1231114 300306 L-1230822 300306 L-1230772 300306 L-1230666 300306 L-1230402 300305 L-1229937 300304 L-1229792 300304 L-1229738 300301 L-1229681 300299 L-1229490 300298 L-1229124 300297 L-1228910 300297 L-1228715 300297 L-1228657 300297 L-1228598 300294 L-1228444 300293 L-1228175 300291 L-1227745 300298 L-1227730 300298 L-1227653 300297 L-1227588 300295 L-1227459 300286 L-1227435 300284 L-1227151 300283 L-1227104 300282 L-1227049 300280 L-1226587 300279 L-1226548 300279 L-1226507 300278 L-1226317 300276 L-1225836 300275 L-1225349 300274 L-1225333 300272 L-1225295 300271 L-1225038 300270 L-1224961 300267 L-1224731 300265 L-1224715 300263 L-1224421 300260 L-1223978 300259 L-1223532 300257 L-1223027 300256 L-1222873 300255 L-1222587 300253 L-1222546 300250 L-1222215 300249 L-1221993 300248 L-1221476 300245 L-1221401 300244 L-1221153 300241 L-1220958 300238 L-1220899 300237 L-1220122 300235 L-1220048 300235 L-1219817 300234 L-1219801 300234 L-1219739 300233 L-1219543 300231 L-1219079 300231 L-1219056 300230 L-1218926 300230 L-1217625 300230 L-1217609 300230 L-1217532 300229 L-1217438 300229 L-1217221 300229 L-1217069 300227 L-1216890 300229 L-1216836 300230 L-1216549 300231 L-1216510 300231 L-1216140 300231 L-1215700 300231 L-1215517 300231 L-1215196 300230 L-1214901 300230 L-1214455 300227 L-1214383 300226 L-1213920 300223 L-1213483 300222 L-1213301 300221 L-1211847 300218 L-1211715 300216 L-1211257 300214 L-1211031 300212 L-1210645 300210 L-1210128 300207 L-1209174 300204 L-1208380 300201 L-1207706 300200 L-1207280 300197 L-1206969 300196 L-1206739 300192 L-1206056 300188 L-1206043 300184 L-1205833 300178 L-1205811 300177 L-1205636 300174 L-1204686 300173 L-1204418 300170 L-1203603 300169 L-1203292 300166 L-1203255 300165 L-1203198 300162 L-1202581 300161 L-1201943 300158 L-1200317 300157 L-1199643 300155 L-1199001 300155 L-1198923 300155 L-1198867 300155 L-1198831 300155 L-1198803 300154 L-1198691 300151 L-1198673 300150 L-1198650 300148 L-1198497 300147 L-1198443 300144 L-1198366 300143 L-1198246 300142 L-1198149 300140 L-1198031 300139 L-1197762 300136 L-1197492 300135 L-1197475 300132 L-1197275 300131 L-1197128 300128 L-1196901 300127 L-1196767 300125 L-1196458 300124 L-1196398 300123 L-1196045 300120 L-1195696 300118 L-1195596 300117 L-1195531 300114 L-1195471 300113 L-1195087 300110 L-1194706 300109 L-1194602 300108 L-1194342 300106 L-1194070 300103 L-1193911 300102 L-1193879 300101 L-1193817 300099 L-1193675 300098 L-1193491 300097 L-1193447 300095 L-1193159 300095 L-1193143 300094 L-1192910 300094 L-1192849 300093 L-1192810 300093 L-1192231 300091 L-1192097 300090 L-1192074 300084 L-1192055 300075 L-1192038 300064 L-1192022 300053 L-1191998 300042 L-1191981 300034 L-1191960 300025 L-1191943 300015 L-1191920 300010 L-1191903 300004 L-1191882 300000 L-1191865 299997 L-1191816 299993 L-1191744 299989 L-1191709 299982 L-1191685 299977 L-1191650 299971 L-1191608 299966 L-1191571 299963 L-1191556 299958 L-1191531 299954 L-1191494 299951 L-1191477 299947 L-1191454 299944 L-1191437 299942 L-1191418 299939 L-1191402 299936 L-1191373 299932 L-1191347 299928 L-1191301 299927 L-1191285 299924 L-1191243 299922 L-1191195 299920 L-1191124 299917 L-1191109 299914 L-1191093 299912 L-1191031 299910 L-1190992 299909 L-1190952 299907 L-1190786 299906 L-1190721 299905 L-1190705 299903 L-1190661 299901 L-1190603 299899 L-1190390 299898 L-1190357 299897 L-1190314 299895 L-1190236 299894 L-1189699 299893 L-1189621 299891 L-1189516 299888 L-1189428 299887 L-1189251 299886 L-1188901 299884 L-1188745 299883 L-1188307 299882 L-1188150 299880 L-1188021 299879 L-1187317 299876 L-1187116 299875 L-1186155 299872 L-1185673 299871 L-1185574 299871 L-1185481 299869 L-1185236 299868 L-1185163 299867 L-1184720 299864 L-1184624 299863 L-1184609 299861 L-1184593 299860 L-1184568 299858 L-1184102 299857 L-1183885 299856 L-1183746 299854 L-1183452 299853 L-1183363 299852 L-1183322 299850 L-1183292 299849 L-1183120 299848 L-1183061 299846 L-1182985 299845 L-1182904 299844 L-1182834 299844 L-1182525 299842 L-1182440 299841 L-1182226 299839 L-1182191 299838 L-1181508 299837 L-1181409 299835 L-1181204 299834 L-1181157 299833 L-1180879 299831 L-1180817 299830 L-1180800 299827 L-1180722 299826 L-1180413 299823 L-1180389 299822 L-1180335 299819 L-1180312 299818 L-1180190 299816 L-1180054 299814 L-1179810 299812 L-1179684 299812 L-1179038 299811 L-1179022 299811 L-1178997 299811 L-1178817 299808 L-1178740 299807 L-1178649 299805 L-1178221 299804 L-1177805 299803 L-1177412 299800 L-1177333 299799 L-1177314 299797 L-1176951 299796 L-1176715 299795 L-1176486 299793 L-1176173 299792 L-1176095 299790 L-1176015 299788 L-1175837 299785 L-1175821 299784 L-1175556 299781 L-1175475 299780 L-1175245 299778 L-1175019 299777 L-1174704 299777 L-1174528 299775 L-1174167 299775 L-1173776 299774 L-1173706 299771 L-1173642 299770 L-1173502 299767 L-1173450 299766 L-1173349 299763 L-1172847 299762 L-1172650 299761 L-1172403 299759 L-1172217 299758 L-1171918 299756 L-1171842 299755 L-1171676 299752 L-1170791 299751 L-1170763 299748 L-1170640 299746 L-1170061 299744 L-1169983 299743 L-1169270 299743 L-1168958 299743 L-1168745 299743 L-1168728 299743 L-1168341 299743 L-1167816 299740 L-1167370 299739 L-1167041 299737 L-1166888 299736 L-1166562 299736 L-1166383 299735 L-1166302 299735 L-1166096 299732 L-1165920 299731 L-1164991 299729 L-1164102 299728 L-1164063 299726 L-1163835 299726 L-1163456 299725 L-1162668 299724 L-1162434 299722 L-1162358 299721 L-1162000 299720 L-1161429 299717 L-1161162 299716 L-1160775 299714 L-1160672 299714 L-1160502 299714 L-1159883 299714 L-1159672 299714 L-1159364 299714 L-1159311 299713 L-1159183 299712 L-1159130 299710 L-1159011 299709 L-1158675 299706 L-1157716 299705 L-1157584 299702 L-1157383 299701 L-1156751 299699 L-1156440 299698 L-1156026 299697 L-1155999 299695 L-1155853 299694 L-1155433 299692 L-1154101 299692 L-1154054 299691 L-1153925 299688 L-1153908 299687 L-1153330 299684 L-1153125 299683 L-1153095 299682 L-1153054 299680 L-1152997 299679 L-1152959 299677 L-1152881 299676 L-1152738 299675 L-1152284 299673 L-1152166 299672 L-1151880 299671 L-1151508 299669 L-1151411 299668 L-1151085 299667 L-1150730 299665 L-1150560 299664 L-1150513 299663 L-1150404 299661 L-1150315 299660 L-1150287 299658 L-1150211 299656 L-1149907 299654 L-1149873 299652 L-1149802 299650 L-1149434 299649 L-1149098 299648 L-1149017 299648 L-1148798 299646 L-1148626 299645 L-1148599 299643 L-1148101 299642 L-1147552 299639 L-1146672 299638 L-1146573 299635 L-1146496 299634 L-1146222 299633 L-1145975 299630 L-1145901 299628 L-1145839 299626 L-1145720 299624 L-1145678 299623 L-1145568 299622 L-1145491 299619 L-1144790 299618 L-1144545 299616 L-1144505 299615 L-1144349 299614 L-1143749 299614 L-1143523 299614 L-1143431 299614 L-1142955 299614 L-1142358 299611 L-1141838 299609 L-1141817 299608 L-1141672 299607 L-1141352 299607 L-1140810 299607 L-1140578 299607 L-1140407 299607 L-1139921 299605 L-1139694 299604 L-1139609 299603 L-1139262 299601 L-1138936 299601 L-1138413 299600 L-1138086 299599 L-1137486 299597 L-1137288 299594 L-1137236 299593 L-1137195 299592 L-1136914 299590 L-1136230 299588 L-1135920 299586 L-1135895 299584 L-1135703 299582 L-1135481 299581 L-1135395 299579 L-1134731 299577 L-1134707 299575 L-1134485 299573 L-1134155 299571 L-1133803 299569 L-1133598 299567 L-1133366 299565 L-1133108 299563 L-1132918 299560 L-1132871 299559 L-1132644 299558 L-1132609 299556 L-1132453 299555 L-1132238 299554 L-1132065 299552 L-1131974 299551 L-1131697 299550 L-1131453 299548 L-1131137 299547 L-1130711 299547 L-1130674 299547 L-1130191 299547 L-1129957 299547 L-1129745 299545 L-1129519 299544 L-1128969 299544 L-1128722 299543 L-1127888 299543 L-1127832 299541 L-1127811 299540 L-1127653 299539 L-1127191 299537 L-1127151 299536 L-1126811 299533 L-1126677 299532 L-1126455 299530 L-1125882 299529 L-1125411 299528 L-1125216 299526 L-1125023 299525 L-1124834 299524 L-1124732 299522 L-1124364 299521 L-1124317 299520 L-1124236 299518 L-1122942 299517 L-1122894 299516 L-1122626 299516 L-1122481 299516 L-1121930 299516 L-1121813 299514 L-1121731 299513 L-1121372 299511 L-1121148 299510 L-1120867 299509 L-1120538 299506 L-1120030 299505 L-1119917 299503 L-1119839 299502 L-1119674 299501 L-1119380 299501 L-1118911 299501 L-1118715 299502 L-1118664 299502 L-1118014 299501 L-1117893 299499 L-1117438 299499 L-1117403 299498 L-1116934 299496 L-1116824 299495 L-1116807 299494 L-1116591 299494 L-1116410 299492 L-1115879 299492 L-1114849 299492 L-1114650 299491 L-1114191 299490 L-1113243 299487 L-1113144 299486 L-1112790 299483 L-1112730 299482 L-1112715 299480 L-1112680 299479 L-1112311 299477 L-1112191 299476 L-1111949 299475 L-1111785 299473 L-1111597 299472 L-1111477 299471 L-1110406 299468 L-1109548 299467 L-1109336 299464 L-1109238 299462 L-1109064 299460 L-1108731 299458 L-1108659 299457 L-1108602 299456 L-1108426 299456 L-1108037 299454 L-1107802 299453 L-1107691 299452 L-1107574 299450 L-1106593 299449 L-1106567 299447 L-1105973 299445 L-1105941 299445 L-1105792 299443 L-1105508 299442 L-1104596 299442 L-1103650 299442 L-1103497 299441 L-1103394 299441 L-1103262 299439 L-1103119 299438 L-1103093 299437 L-1102979 299435 L-1102760 299434 L-1102079 299433 L-1101950 299431 L-1101646 299430 L-1101407 299427 L-1101074 299426 L-1100435 299424 L-1100093 299422 L-1100031 299420 L-1099875 299420 L-1098954 299420 L-1098483 299420 L-1098440 299420 L-1098427 299419 L-1098386 299418 L-1098363 299416 L-1098337 299415 L-1098193 299413 L-1097770 299412 L-1097435 299412 L-1097244 299411 L-1096815 299411 L-1096627 299409 L-1096238 299407 L-1095704 299405 L-1095331 299404 L-1095310 299404 L-1095060 299403 L-1094942 299401 L-1094866 299400 L-1094730 299398 L-1094691 299397 L-1094611 299396 L-1094216 299394 L-1093721 299393 L-1093609 299390 L-1093436 299389 L-1093127 299388 L-1092680 299386 L-1092357 299385 L-1092214 299382 L-1091787 299379 L-1091634 299377 L-1091579 299374 L-1090765 299373 L-1090745 299371 L-1090373 299370 L-1090317 299370 L-1089188 299369 L-1089120 299369 L-1088561 299367 L-1088367 299366 L-1088230 299364 L-1087997 299363 L-1087650 299362 L-1087615 299359 L-1087580 299358 L-1087512 299355 L-1087163 299354 L-1086991 299352 L-1086506 299351 L-1086490 299349 L-1086164 299348 L-1086007 299347 L-1084866 299344 L-1084841 299343 L-1084650 299340 L-1084456 299339 L-1084206 299337 L-1084189 299336 L-1083168 299335 L-1082871 299333 L-1082795 299332 L-1082659 299329 L-1082483 299328 L-1081907 299325 L-1081691 299324 L-1081627 299322 L-1081497 299321 L-1081460 299318 L-1080937 299317 L-1080799 299853 L-1080784 299853 L-1080761 299853 L-1080741 299853 L-1080514 299315 L-1079738 299315 L-1079697 299315 L-1079329 299315 L-1079250 299314 L-1079198 299313 L-1078525 299311 L-1077783 299310 L-1077358 299310 L-1076910 299309 L-1075849 299307 L-1075537 299305 L-1075127 299305 L-1075055 299303 L-1074531 299303 L-1074436 299303 L-1074418 299303 L-1073973 299302 L-1073788 299299 L-1073008 299296 L-1072335 299295 L-1071923 299291 L-1071691 299288 L-1071551 299287 L-1071469 299284 L-1071449 299283 L-1071373 299283 L-1071245 299281 L-1070928 299283 L-1070703 299283 L-1070378 299281 L-1070316 299281 L-1069946 299281 L-1069913 299281 L-1069705 299281 L-1069037 299281 L-1068960 299281 L-1068802 299279 L-1068691 299279 L-1068365 299277 L-1068210 299276 L-1067869 299276 L-1067812 299273 L-1067474 299271 L-1067270 299269 L-1067217 299266 L-1065841 299265 L-1065711 299264 L-1065278 299262 L-1064957 299261 L-1064129 299258 L-1064006 299257 L-1063275 299254 L-1063119 299251 L-1063079 299250 L-1063025 299249 L-1063002 299247 L-1062888 299246 L-1062591 299245 L-1062301 299243 L-1062247 299242 L-1062126 299241 L-1062096 299239 L-1061997 299238 L-1061553 299238 L-1061401 299237 L-1060566 299237 L-1060023 299235 L-1059689 299235 L-1059673 299234 L-1059598 299232 L-1059481 299231 L-1059287 299230 L-1059023 299228 L-1058188 299227 L-1058092 299226 L-1057570 299224 L-1057529 299223 L-1057429 299222 L-1056601 299222 L-1056466 299220 L-1056127 299220 L-1055573 299219 L-1055193 299217 L-1055030 299216 L-1054720 299215 L-1053908 299213 L-1053602 299212 L-1053333 299212 L-1053012 299212 L-1052691 299213 L-1052415 299213 L-1051587 299211 L-1051492 299209 L-1051399 299205 L-1051295 299201 L-1050908 299197 L-1050428 299194 L-1050411 299193 L-1050293 299192 L-1049925 299189 L-1049830 299188 L-1048996 299185 L-1048919 299183 L-1048620 299182 L-1048529 299181 L-1048122 299178 L-1048011 299175 L-1047312 299174 L-1046839 299173 L-1046779 299171 L-1046560 299168 L-1046286 299167 L-1046173 299166 L-1045146 299164 L-1044759 299163 L-1044739 299162 L-1044406 299160 L-1044162 299159 L-1043729 299158 L-1043618 299156 L-1043501 299155 L-1043049 299152 L-1042459 299151 L-1042122 299149 L-1040229 299148 L-1040116 299145 L-1039904 299144 L-1038586 299143 L-1038479 298836 L-1038413 298534 L-1038377 298255 L-1038315 298255 L-1037816 298559 L-1037141 298858 L-1037119 299134 L-1036848 299132 L-1035880 299132 L-1035191 299130 L-1035029 299129 L-1034488 299128 L-1034398 299126 L-1033379 299125 L-1032431 299122 L-1032066 299124 L-1031963 299125 L-1031375 299125 L-1031315 299125 L-1031215 299124 L-1030774 299121 L-1030667 299119 L-1030225 299118 L-1029225 299114 L-1028969 299110 L-1028866 299106 L-1028736 299103 L-1028369 299100 L-1027789 299098 L-1027758 299096 L-1027442 299095 L-1025459 299094 L-1025343 299092 L-1025276 299092 L-1024917 299091 L-1023298 299090 L-1023121 299090 L-1022976 299090 L-1022154 299091 L-1022101 299092 L-1022047 299092 L-1021613 299092 L-1020632 299094 L-1020558 299094 L-1019474 299092 L-1019261 299092 L-1018545 299090 L-1018156 299088 L-1017937 299085 L-1017618 299083 L-1017124 299080 L-1016996 299079 L-1016767 299076 L-1016535 299073 L-1016476 299072 L-1016186 299070 L-1015914 299068 L-1014884 299066 L-1013219 299065 L-1012800 299064 L-1012663 299062 L-1012507 299062 L-1012201 299061 L-1011973 299058 L-1011815 299057 L-1011656 299054 L-1011486 299051 L-1011439 299050 L-1011386 299049 L-1011364 299049 L-1010978 299047 L-1010728 299047 L-1010458 299047 L-1010297 299047 L-1010207 299047 L-1008549 299047 L-1008383 299049 L-1008003 299047 L-1007543 299047 L-1006934 299045 L-1005841 299043 L-1005409 299042 L-1005378 299041 L-1005316 299039 L-1005298 299038 L-1003595 299036 L-1003553 299035 L-1003086 299034 L-1002900 299032 L-1002867 299030 L-1002272 299028 L-1002222 299027 L-1001899 299026 L-1001849 299024 L-1001638 299023 L-1001620 299021 L-1001354 299019 L-1001301 299017 L-1000832 299016 L-1000322 299013 L-1000243 299013 L-999949 299012 L-999933 299011 L-999894 299009 L-999823 299008 L-999666 299007 L-998720 299007 L-998663 299007 L-998142 299007 L-997950 299005 L-997849 299005 L-997623 299004 L-997113 299004 L-996725 299041 L-996656 299041 L-996307 299039 L-995950 299038 L-994822 298998 L-994770 298996 L-994544 298994 L-994510 298993 L-994385 298990 L-994287 298990 L-994022 298990 L-993282 298992 L-992703 298992 L-992410 298992 L-991704 298992 L-991525 298990 L-991502 298990 L-990866 298989 L-990554 298987 L-990158 298987 L-990128 298986 L-990107 298985 L-989954 298983 L-989269 298983 L-989252 298983 L-988912 298983 L-988640 298982 L-988602 298981 L-988546 298978 L-988524 298977 L-988452 298975 L-988120 298974 L-988014 298972 L-987985 298970 L-987787 298968 L-987635 298967 L-986766 298966 L-986204 298963 L-986188 298963 L-986087 298962 L-985984 298963 L-985838 298963 L-985760 298963 L-985722 298962 L-985666 298960 L-985593 298959 L-985448 298958 L-984966 298958 L-984562 298956 L-983695 298958 L-983676 298958 L-983418 298958 L-983341 298958 L-983312 298956 L-983302 298953 L-983285 298952 L-982992 298951 L-982952 298949 L-982880 298948 L-982807 298947 L-982602 298945 L-982442 298941 L-982140 298937 L-982063 298932 L-982046 298928 L-981829 298925 L-981598 298925 L-981488 298926 L-981119 298928 L-980960 298928 L-980729 298928 L-980560 298928 L-980415 298926 L-980283 298925 L-979008 298922 L-978604 298919 L-978543 298918 L-978427 298915 L-978001 298914 L-977986 298911 L-977924 298910 L-977651 298907 L-977538 298906 L-977256 298903 L-976979 298902 L-976554 298899 L-976531 298898 L-976453 298896 L-976328 298895 L-975741 298894 L-975350 298892 L-975014 298891 L-974425 298889 L-974323 298889 L-974152 298888 L-974016 298888 L-973188 298887 L-972003 298885 L-971967 298884 L-971912 298884 L-971691 298883 L-971486 298883 L-971331 298883 L-971075 298881 L-970998 298880 L-970455 298879 L-970419 298877 L-970170 298876 L-969783 298875 L-968957 298873 L-968599 298872 L-968288 298872 L-968030 298870 L-967807 298869 L-967401 298868 L-967284 298866 L-967101 298865 L-967048 298865 L-966859 298864 L-966688 298862 L-966660 298861 L-966379 298860 L-966069 298858 L-965931 298857 L-965621 298855 L-965427 298855 L-965412 298854 L-964692 298854 L-964559 298851 L-964261 298850 L-964170 298849 L-963570 298849 L-963532 298847 L-963453 298846 L-962833 298845 L-962681 298842 L-962641 298840 L-962330 298839 L-962138 298838 L-961945 298835 L-961889 298832 L-961581 298831 L-961529 298830 L-961474 298831 L-961448 298831 L-961323 298831 L-960513 298830 L-960436 298828 L-959896 298827 L-959627 298826 L-958968 298824 L-958060 298823 L-957819 298821 L-957286 298820 L-957069 298819 L-955962 298820 L-955911 298820 L-955136 298820 L-954588 298819 L-954477 298817 L-954324 298815 L-954269 298813 L-954103 298812 L-953726 298811 L-953279 298809 L-953224 298808 L-953070 298806 L-952390 298805 L-952169 298804 L-951652 298802 L-950803 298800 L-950787 298798 L-948996 298797 L-948441 298796 L-948324 298794 L-947318 298793 L-947282 298791 L-947049 298791 L-946956 298791 L-946916 298791 L-946584 298790 L-946232 298789 L-945967 298786 L-945681 298785 L-945370 298782 L-945116 298779 L-945022 298778 L-944532 298777 L-944325 298775 L-943759 298774 L-943645 298775 L-943294 298774 L-943242 298774 L-943202 298774 L-942599 298771 L-941865 298768 L-941284 298766 L-941048 298763 L-940508 298759 L-940355 298756 L-939853 298755 L-939644 298752 L-939621 298752 L-939562 298751 L-938599 298751 L-938422 298749 L-937980 298748 L-937956 298745 L-937801 298744 L-937719 298744 L-937569 298745 L-936922 298745 L-936872 298744 L-935752 298742 L-934768 298741 L-934706 298740 L-933986 298738 L-933121 298737 L-932742 298736 L-932523 298736 L-931764 298734 L-931712 298733 L-931403 298730 L-930551 298730 L-930358 298729 L-930181 298728 L-929957 298728 L-929830 298726 L-929638 298726 L-929406 298725 L-929236 298726 L-928950 298725 L-928670 298725 L-928587 298723 L-928417 298722 L-928400 298719 L-928246 298718 L-928207 298717 L-927431 298715 L-927355 298715 L-927123 298713 L-926696 298711 L-926350 298710 L-925767 298708 L-925499 298708 L-925240 298708 L-925110 298706 L-925094 298704 L-924980 298703 L-924956 298702 L-924722 298700 L-924686 298699 L-923370 298699 L-923314 298698 L-922635 298695 L-922063 298695 L-921937 298695 L-921784 298695 L-921707 298695 L-921395 298692 L-921122 298691 L-921033 298688 L-920932 298688 L-920004 298687 L-919927 298687 L-919563 298687 L-919539 298685 L-919502 298684 L-918727 298681 L-918635 298680 L-918495 298679 L-918093 298677 L-917832 298677 L-917588 298679 L-917374 298677 L-917294 298677 L-917217 298677 L-917141 298677 L-916954 298679 L-916887 298679 L-916638 298679 L-916583 298677 L-916445 298676 L-916366 298673 L-916252 298672 L-916029 298670 L-915865 298669 L-915824 298668 L-915654 298666 L-915284 298665 L-915269 298664 L-915153 298662 L-914431 298661 L-914396 298659 L-914263 298659 L-913915 298658 L-913503 298658 L-913467 298658 L-913389 298657 L-913350 298655 L-912986 298654 L-912782 298653 L-912767 298651 L-912422 298650 L-912073 298650 L-911747 298650 L-911646 298649 L-911493 298649 L-911298 298647 L-911067 298647 L-910974 298647 L-910819 298647 L-910741 298647 L-910701 298646 L-910587 298645 L-910564 298643 L-910313 298643 L-910174 298640 L-909596 298636 L-908768 298634 L-908281 298631 L-908159 298630 L-908121 298628 L-908108 298627 L-907956 298624 L-907855 298621 L-907622 298620 L-907232 298617 L-906927 298616 L-906912 298615 L-906741 298613 L-906502 298610 L-905906 298610 L-905302 298609 L-905263 298609 L-905222 298609 L-905069 298608 L-905016 298606 L-904953 298605 L-904885 298604 L-904830 298601 L-904805 298600 L-904758 298598 L-904664 298596 L-904527 298594 L-904373 298593 L-904241 298591 L-904201 298591 L-904165 298590 L-904103 298589 L-903830 298586 L-903515 298585 L-903474 298582 L-903389 298581 L-903212 298579 L-902974 298578 L-902617 298576 L-902587 298575 L-902018 298574 L-901895 298572 L-901659 298571 L-901636 298571 L-901355 298570 L-901069 298570 L-900814 298570 L-900242 298568 L-899945 298567 L-899869 298566 L-899170 298564 L-899092 298563 L-899057 298561 L-899031 298560 L-898980 298557 L-898786 298556 L-898645 298553 L-898610 298552 L-898569 298551 L-897974 298549 L-897742 298548 L-897458 298557 L-897404 298566 L-897330 298575 L-897252 298583 L-897016 298581 L-896772 298579 L-896636 298578 L-896530 298576 L-896450 298575 L-896063 298572 L-895936 298571 L-895783 298570 L-895746 298568 L-895600 298567 L-895378 298566 L-895204 298564 L-895135 298563 L-894314 298560 L-894298 298560 L-894003 298559 L-893215 298557 L-892905 298557 L-892759 298556 L-892531 298555 L-892330 298552 L-891393 298551 L-891357 298549 L-891334 298548 L-891293 298545 L-891025 298544 L-890428 298542 L-890364 298541 L-890329 298540 L-890312 298538 L-889617 298538 L-889416 298538 L-889384 298538 L-889050 298538 L-888942 298537 L-888318 298534 L-887814 298533 L-887776 298530 L-887334 298530 L-887238 298529 L-887079 298529 L-886766 298529 L-886754 298529 L-886313 298530 L-885832 298532 L-885702 298532 L-885382 298532 L-885314 298530 L-885010 298530 L-884834 298529 L-884640 298527 L-884398 298525 L-884200 298522 L-884174 298519 L-883596 298518 L-883526 298517 L-883117 298515 L-883062 298514 L-883016 298512 L-882652 298511 L-882506 298510 L-882301 298508 L-882204 298508 L-882049 298507 L-881988 298506 L-881840 298503 L-881739 298502 L-881183 298502 L-881160 298504 L-880988 298506 L-880446 298507 L-880385 298507 L-880332 298504 L-880303 298502 L-880232 298500 L-880215 298498 L-880152 298496 L-880115 298493 L-879961 298492 L-879635 298491 L-879069 298489 L-879054 298488 L-878992 298485 L-878891 298483 L-878845 298483 L-878602 298481 L-878180 298481 L-878025 298481 L-876283 298478 L-875742 298477 L-874798 298476 L-874389 298474 L-873848 298472 L-873652 298470 L-873483 298469 L-873187 298468 L-873073 298466 L-873057 298466 L-872903 298465 L-872763 298463 L-872686 298461 L-872554 298461 L-872206 298461 L-871836 298462 L-871238 298462 L-871062 298462 L-870906 298461 L-870637 298459 L-870485 298459 L-870194 298463 L-870171 298466 L-870088 298469 L-869860 298472 L-869160 298470 L-869034 298469 L-868603 298468 L-868508 298466 L-867303 298466 L-867254 298465 L-866961 298465 L-866557 298463 L-866282 298461 L-866262 298459 L-866145 298458 L-866069 298457 L-865887 298455 L-865407 298454 L-864956 298451 L-864546 298450 L-864515 298449 L-864097 298447 L-863983 298447 L-863865 298447 L-863849 298447 L-863655 298446 L-863634 298443 L-863401 298442 L-862958 298440 L-862639 298438 L-862174 298438 L-862008 298436 L-861854 298435 L-861698 298435 L-861244 298435 L-860925 298435 L-860870 298436 L-860499 298436 L-860461 298438 L-860135 298438 L-860018 298436 L-859920 298435 L-859594 298432 L-859206 298431 L-858946 298429 L-858587 298427 L-858331 298425 L-856161 298424 L-856111 298423 L-856089 298421 L-855677 298421 L-855616 298421 L-855545 298423 L-855315 298423 L-855004 298421 L-854701 298419 L-854656 298417 L-854348 298416 L-854216 298415 L-853999 298413 L-853287 298412 L-853132 298412 L-852993 298410 L-852845 298410 L-852823 298410 L-852629 298409 L-852604 298408 L-852513 298406 L-852491 298405 L-852474 298404 L-852374 298402 L-851446 298401 L-850988 298401 L-849896 298398 L-849473 298398 L-849069 298397 L-849031 298395 L-848777 298394 L-848003 298391 L-847986 298390 L-847962 298389 L-847769 298387 L-847032 298386 L-846763 298385 L-846723 298383 L-846324 298380 L-846299 298379 L-845510 298378 L-844830 298376 L-843459 298375 L-843189 298374 L-843140 298372 L-842602 298370 L-842569 298368 L-842468 298366 L-842144 298364 L-842064 298363 L-841796 298363 L-840883 298361 L-840744 298361 L-840495 298359 L-839950 298359 L-839528 298357 L-839335 298356 L-839319 298356 L-839182 298353 L-839088 298352 L-838960 298351 L-838700 298349 L-838676 298346 L-838584 298345 L-838274 298344 L-838214 298342 L-838097 298342 L-837747 298342 L-836937 298342 L-836705 298340 L-835876 298340 L-835644 298337 L-835428 298336 L-834909 298336 L-834271 298334 L-833855 298333 L-833532 298331 L-833052 298330 L-832626 298330 L-832565 298329 L-832216 298329 L-832176 298327 L-832162 298326 L-832062 298323 L-832017 298323 L-831532 298322 L-830730 298322 L-830396 298322 L-829315 298321 L-828835 298319 L-828812 298318 L-828672 298317 L-828116 298315 L-827419 298314 L-827110 298312 L-826888 298311 L-826784 298310 L-826681 298307 L-826010 298306 L-825916 298304 L-825894 298304 L-825817 298303 L-825639 298303 L-825467 298303 L-825286 298302 L-825273 298300 L-825196 298299 L-825032 298297 L-824517 298296 L-824501 298295 L-824361 298295 L-823998 298293 L-823974 298293 L-823843 298292 L-823819 298291 L-823457 298289 L-822931 298287 L-822838 298285 L-822622 298282 L-822528 298281 L-822504 298280 L-822039 298278 L-821962 298278 L-821561 298277 L-821110 298277 L-819858 298276 L-819819 298274 L-819388 298273 L-819355 298272 L-818636 298270 L-818460 298269 L-818324 298268 L-818017 298266 L-817962 298265 L-817938 298262 L-817922 298259 L-817747 298258 L-817557 298257 L-817050 298257 L-816676 298246 L-816338 298233 L-816299 298223 L-815580 298213 L-815486 298212 L-815448 298210 L-814906 298210 L-814883 298209 L-814480 298208 L-814055 298206 L-813784 298206 L-813604 298205 L-813358 298202 L-813335 298201 L-813278 298198 L-812662 298197 L-812159 298195 L-811772 298195 L-811153 298197 L-810937 298197 L-810782 298198 L-809489 298195 L-809390 298194 L-808948 298191 L-808616 298190 L-808316 298187 L-808073 298186 L-807339 298183 L-806759 298182 L-805930 298180 L-805830 298179 L-805272 298178 L-805134 298176 L-803492 298175 L-803431 298175 L-803337 298175 L-802370 298175 L-802193 298174 L-801906 298174 L-801688 298174 L-801610 298172 L-801339 298172 L-801223 298171 L-801070 298170 L-800760 298168 L-800682 298167 L-800591 298167 L-800513 298165 L-800397 298165 L-800218 298164 L-800126 298163 L-800088 298161 L-799585 298161 L-799366 298160 L-799237 298160 L-799081 298159 L-799027 298157 L-798902 298157 L-798517 298156 L-798009 298155 L-797937 298153 L-797456 298152 L-797379 298150 L-797279 298150 L-797046 298149 L-796581 298149 L-796351 298149 L-796334 298149 L-796102 298149 L-795948 298149 L-795886 298149 L-795693 298148 L-795422 298145 L-794671 298144 L-793718 298144 L-793681 298142 L-793457 298142 L-793017 298142 L-792736 298140 L-792388 298138 L-791319 298137 L-790391 298137 L-790260 298137 L-790213 298137 L-790144 298136 L-789989 298136 L-789912 298133 L-789738 298130 L-789304 298127 L-789099 298126 L-789039 298123 L-788457 298122 L-788303 298119 L-788187 298118 L-788146 298116 L-787977 298115 L-787840 298114 L-787629 298111 L-787552 298110 L-787528 298108 L-787320 298106 L-786910 298104 L-786885 298103 L-786662 298101 L-786517 298100 L-786482 298099 L-786469 298097 L-786446 298096 L-786213 298095 L-786027 298093 L-785810 298092 L-785785 298091 L-785095 298089 L-784992 298088 L-784956 298087 L-784936 298085 L-784742 298084 L-784688 298082 L-784571 298080 L-784490 298080 L-784379 298078 L-784064 298077 L-783605 298076 L-783350 298074 L-783116 298072 L-782986 298070 L-782633 298069 L-782574 298067 L-782421 298066 L-781849 298063 L-781763 298062 L-781610 298059 L-781314 298057 L-780943 298054 L-780641 298051 L-780564 298050 L-780159 298048 L-779991 298048 L-779847 298048 L-779307 298048 L-779246 298048 L-779230 298046 L-779064 298044 L-778858 298043 L-778784 298043 L-778691 298042 L-778281 298040 L-778266 298039 L-778242 298039 L-778049 298038 L-777972 298050 L-777802 298062 L-777740 298073 L-777724 298085 L-777209 298084 L-776988 298082 L-776369 298080 L-776116 298078 L-775922 298077 L-775882 298076 L-775809 298076 L-775744 298076 L-775093 298076 L-775054 298077 L-774880 298077 L-774814 298077 L-774140 298077 L-773751 298074 L-773490 298073 L-773252 298072 L-773174 298069 L-773158 298066 L-772956 298065 L-772586 298062 L-772360 298061 L-771725 298059 L-771705 298059 L-771318 298058 L-771224 298058 L-771166 298057 L-770890 298055 L-770580 298055 L-770503 298054 L-769652 298055 L-769309 298062 L-768872 298070 L-768438 298077 L-767943 298084 L-767794 298082 L-767525 298084 L-766287 298085 L-766231 298088 L-764467 298089 L-764277 298088 L-763266 298087 L-763115 298085 L-762740 298088 L-762419 298091 L-761814 298093 L-761744 298096 L-761567 298095 L-760738 298093 L-760600 298092 L-760213 298091 L-760028 298089 L-759985 298088 L-759865 298087 L-759655 298085 L-759208 298082 L-758859 298081 L-758727 298080 L-758318 298078 L-757968 298078 L-757683 298077 L-757489 298076 L-757335 298076 L-757171 298074 L-757102 298073 L-757003 298073 L-756769 298072 L-756653 298072 L-756599 298070 L-756058 298070 L-755593 298069 L-754411 298069 L-754278 298069 L-754253 298069 L-754201 298069 L-753533 298069 L-752498 298066 L-752304 298065 L-752125 298063 L-751973 298063 L-751933 298062 L-751918 298062 L-751856 298061 L-751531 298059 L-750370 298058 L-750177 298057 L-749999 298055 L-748885 298054 L-748026 298052 L-747920 298052 L-747446 298051 L-747253 298051 L-744932 298050 L-744854 298048 L-744733 298046 L-744698 298044 L-744661 298042 L-744566 298038 L-744351 298035 L-743770 298032 L-743383 298031 L-742610 298029 L-742533 298028 L-741835 298028 L-741294 298028 L-741253 298027 L-741123 298027 L-740659 298025 L-740620 298024 L-740485 298023 L-740117 298021 L-740088 298020 L-739938 298020 L-739537 298018 L-737713 298020 L-736906 298018 L-736187 298018 L-736171 298018 L-735857 298016 L-735295 298014 L-734794 298013 L-734275 298012 L-734253 298010 L-732510 298009 L-732341 298008 L-732145 298006 L-731251 298005 L-730733 298002 L-730522 298001 L-730264 297999 L-729555 297998 L-728604 297997 L-727946 297995 L-727907 297993 L-727620 297991 L-727538 297990 L-727442 297990 L-727310 297989 L-727233 297989 L-726498 297989 L-726161 297987 L-726111 297989 L-725856 297989 L-725570 297987 L-725144 297987 L-724564 297986 L-724305 297986 L-724153 297984 L-723906 297984 L-723867 297984 L-723070 297983 L-723033 297982 L-722856 297982 L-722446 297979 L-722218 297979 L-722141 297979 L-722010 297979 L-721894 297978 L-721546 297976 L-721482 297975 L-721330 297974 L-720589 297972 L-720478 297971 L-720308 297969 L-720269 297968 L-719974 297968 L-719573 297968 L-719396 297968 L-719302 297968 L-718992 297967 L-718191 297965 L-717732 297963 L-717212 297961 L-716724 297960 L-716028 297959 L-714982 297957 L-714713 297957 L-714659 297956 L-714499 297956 L-714247 297956 L-714001 297954 L-713922 297953 L-713708 297950 L-713396 297949 L-712932 297946 L-712918 297945 L-712622 297945 L-712608 297944 L-711617 297942 L-710945 297941 L-710610 297938 L-709994 297938 L-709857 297937 L-709218 297935 L-709088 297934 L-708137 297931 L-708037 297929 L-707478 297927 L-707069 297927 L-706641 297927 L-706550 297926 L-705715 297926 L-705351 297926 L-705312 297927 L-705180 297929 L-705003 297929 L-704786 297929 L-704732 297927 L-704576 297925 L-704323 297923 L-703222 297922 L-703145 297920 L-702926 297919 L-702795 297916 L-702758 297915 L-702565 297914 L-702466 297912 L-701982 297911 L-701697 297910 L-701537 297908 L-701442 297905 L-701171 297904 L-700901 297903 L-700885 297897 L-700747 297893 L-700608 297889 L-700282 297884 L-699973 297881 L-699932 297880 L-699856 297877 L-699741 297876 L-698890 297873 L-698564 297871 L-698232 297870 L-698100 297870 L-697884 297870 L-697867 297870 L-697187 297870 L-697094 297867 L-697070 297866 L-697054 297863 L-697016 297862 L-696604 297859 L-696335 297858 L-696295 297857 L-695926 297857 L-695717 297855 L-694634 297855 L-694617 297854 L-694589 297852 L-694569 297852 L-694192 297850 L-693937 297848 L-693689 297846 L-693549 297843 L-693417 297842 L-693085 297840 L-692992 297839 L-692931 297837 L-692373 297836 L-692312 297835 L-692156 297833 L-691962 297832 L-691770 297831 L-691754 297829 L-691716 297828 L-691677 297827 L-691406 297825 L-691283 297824 L-691251 297822 L-691151 297822 L-690995 297822 L-690854 297822 L-690570 297821 L-690245 297821 L-689549 297820 L-689526 297820 L-689017 297820 L-688171 297820 L-687808 297818 L-687653 297817 L-687049 297817 L-686879 297817 L-686818 297817 L-686763 297816 L-685708 297814 L-685689 297814 L-684783 297814 L-684762 297814 L-684595 297813 L-684353 297813 L-684302 297812 L-684248 297809 L-684110 297808 L-684071 297806 L-683143 297805 L-683087 297805 L-682965 297805 L-682894 297805 L-682778 297805 L-682599 297806 L-681617 297805 L-681478 297805 L-681360 297802 L-681065 297799 L-680818 297798 L-680781 297797 L-680727 297798 L-680705 297798 L-680572 297798 L-680493 297798 L-680356 297797 L-679733 297797 L-679566 297795 L-679102 297795 L-678925 297793 L-678909 297791 L-678849 297790 L-678732 297788 L-678250 297787 L-677554 297786 L-677181 297784 L-677012 297783 L-676046 297782 L-675891 297780 L-675713 297780 L-675620 297779 L-675365 297779 L-675194 297779 L-674548 297778 L-674537 297778 L-673956 297776 L-673818 297776 L-673763 297773 L-673028 297772 L-672989 297771 L-672912 297771 L-672270 297769 L-671495 297769 L-671403 297768 L-671354 297768 L-671339 297767 L-671303 297767 L-671286 297764 L-671223 297763 L-671207 297761 L-671187 297761 L-671032 297760 L-670994 297759 L-670977 297757 L-670938 297756 L-670799 297754 L-670722 297753 L-670358 297752 L-670010 297750 L-669236 297749 L-668634 297748 L-668438 297746 L-668208 297746 L-668070 297745 L-667432 297745 L-667143 297744 L-667121 297744 L-666661 297742 L-666428 297742 L-666373 297741 L-666335 297739 L-665832 297738 L-665281 297737 L-664493 297735 L-663370 297735 L-662476 297734 L-662388 297734 L-662089 297733 L-662017 297731 L-661901 297730 L-660724 297729 L-660376 297727 L-660354 297726 L-659835 297724 L-659688 297723 L-659580 297722 L-659370 297720 L-659215 297719 L-659193 297718 L-658999 297716 L-658922 297715 L-658779 297714 L-657978 297712 L-657831 297711 L-657552 297710 L-657374 297708 L-657065 297707 L-656253 297705 L-655325 297705 L-653733 297704 L-653489 297703 L-652848 297701 L-652653 297700 L-652575 297699 L-652058 297697 L-651826 297697 L-651803 297696 L-651671 297696 L-651331 297695 L-651321 297693 L-651104 297692 L-651067 297690 L-650526 297689 L-649997 297686 L-649929 297685 L-649636 297684 L-649088 297681 L-649053 297680 L-649000 297678 L-648901 297675 L-648669 297675 L-648088 297675 L-647991 297677 L-647917 297677 L-647585 297675 L-646835 297674 L-646796 297673 L-646116 297673 L-645961 297673 L-645635 297671 L-645419 297670 L-645188 297670 L-644891 297669 L-644645 297667 L-644294 297666 L-644241 297665 L-643481 297663 L-642788 297661 L-642437 297658 L-641974 297656 L-641340 297655 L-640931 297654 L-640854 297655 L-640428 297655 L-639785 297654 L-639616 297654 L-638874 297652 L-638687 297651 L-638391 297650 L-637819 297648 L-637794 297647 L-636775 297647 L-636288 297646 L-636194 297646 L-636133 297644 L-635845 297643 L-635559 297641 L-635498 297640 L-635318 297640 L-634607 297639 L-634431 297637 L-634233 297636 L-634081 297635 L-633989 297633 L-633928 297632 L-633386 297632 L-633075 297631 L-632983 297628 L-632906 297625 L-632339 297624 L-632248 297624 L-631993 297621 L-631666 297618 L-631629 297614 L-631474 297610 L-631242 297609 L-630920 297607 L-629788 297606 L-629588 297605 L-629063 297603 L-628818 297603 L-628572 297602 L-628492 297601 L-628472 297598 L-628396 297597 L-628340 297594 L-628263 297592 L-628224 297591 L-628045 297588 L-628008 297587 L-627777 297586 L-626539 297584 L-626212 297583 L-626173 297580 L-625391 297579 L-625244 297578 L-624252 297576 L-624046 297576 L-623620 297576 L-623493 297576 L-623088 297578 L-623000 297576 L-622344 297575 L-621636 297573 L-621028 297572 L-620835 297571 L-620602 297568 L-619983 297567 L-619688 297564 L-619248 297563 L-619093 297561 L-618938 297560 L-618182 297557 L-617832 297556 L-617430 297556 L-617391 297554 L-616385 297554 L-616065 297554 L-615818 297553 L-615119 297550 L-615045 297549 L-614733 297548 L-613653 297546 L-613461 297545 L-613227 297545 L-613033 297543 L-612532 297542 L-611779 297542 L-611665 297542 L-611465 297542 L-611424 297541 L-611331 297539 L-611018 297538 L-610930 297537 L-610813 297535 L-610496 297535 L-610427 297534 L-610402 297533 L-610040 297531 L-610001 297530 L-609785 297529 L-609281 297530 L-608679 297531 L-608468 297534 L-608314 297535 L-608277 297535 L-608233 297533 L-608198 297531 L-608065 297530 L-607656 297529 L-607285 297527 L-607232 297526 L-607216 297524 L-607137 297523 L-606727 297522 L-606573 297520 L-606558 297518 L-606518 297516 L-606340 297514 L-606264 297512 L-606032 297511 L-605242 297509 L-605165 297509 L-604430 297507 L-604274 297505 L-604034 297503 L-603973 297500 L-603887 297499 L-603865 297496 L-603747 297493 L-603733 297490 L-603671 297488 L-603633 297486 L-603539 297485 L-603517 297485 L-603401 297484 L-603168 297482 L-602998 297480 L-602178 297480 L-601777 297478 L-601621 297478 L-601116 297478 L-601002 297478 L-600406 297478 L-600032 297477 L-599980 297477 L-599786 297475 L-599089 297475 L-599051 297474 L-598906 297474 L-598681 297473 L-598419 297471 L-598046 297470 L-597620 297469 L-597491 297467 L-597471 297465 L-596978 297465 L-596281 297463 L-596050 297465 L-595896 297465 L-594927 297465 L-594702 297466 L-594425 297466 L-594409 297465 L-593883 297463 L-593354 297462 L-593206 297460 L-593186 297459 L-592645 297458 L-592335 297456 L-592217 297454 L-592025 297451 L-591889 297448 L-591562 297447 L-591445 297445 L-591136 297445 L-590710 297444 L-590654 297444 L-590421 297445 L-590324 297445 L-590191 297445 L-589895 297445 L-589781 297444 L-589417 297443 L-589104 297443 L-588621 297441 L-588450 297440 L-588202 297439 L-587986 297437 L-587461 297436 L-587274 297433 L-586919 297432 L-586283 297431 L-586129 297428 L-585388 297426 L-584969 297425 L-584788 297424 L-584712 297424 L-584581 297422 L-584287 297421 L-584247 297420 L-584017 297420 L-583824 297418 L-583569 297418 L-583143 297417 L-583033 297416 L-582415 297416 L-582234 297416 L-581022 297416 L-580375 297417 L-580224 297417 L-580187 297417 L-580055 297417 L-579954 297416 L-579938 297414 L-579856 297413 L-579645 297411 L-579528 297410 L-579165 297409 L-578793 297407 L-578097 297406 L-577694 297405 L-577589 297403 L-577571 297402 L-576627 297401 L-576432 297398 L-576279 297396 L-576224 297394 L-575468 297394 L-575451 297396 L-574962 297398 L-574831 297401 L-574638 297401 L-573748 297399 L-573709 297398 L-573670 297396 L-573594 297395 L-573555 297395 L-573478 297394 L-573394 297392 L-573129 297391 L-572897 297390 L-572835 297388 L-572354 297387 L-572018 297387 L-571907 297386 L-571713 297384 L-571537 297383 L-571477 297383 L-571441 297382 L-571171 297380 L-570474 297377 L-570421 297375 L-570127 297372 L-569725 297369 L-569160 297368 L-568287 297367 L-567983 297365 L-567945 297364 L-567822 297362 L-567223 297361 L-567094 297360 L-566893 297358 L-566856 297357 L-566242 297356 L-566064 297354 L-566049 297352 L-565831 297350 L-565752 297348 L-565445 297348 L-565313 297346 L-565081 297346 L-564747 297346 L-564656 297345 L-564555 297343 L-564517 297342 L-563974 297342 L-563782 297341 L-563240 297339 L-562815 297338 L-562683 297338 L-562621 297338 L-562390 297338 L-562373 297338 L-561885 297339 L-561805 297339 L-561787 297339 L-560394 297341 L-560258 297341 L-560145 297339 L-559510 297338 L-559371 297337 L-559253 297335 L-559099 297333 L-559062 297331 L-558983 297330 L-558930 297331 L-557938 297331 L-557901 297330 L-557768 297330 L-557708 297327 L-557609 297326 L-557318 297324 L-557305 297323 L-556995 297323 L-556895 297324 L-556429 297323 L-556376 297467 L-556233 297610 L-556106 297754 L-555873 297899 L-555305 297897 L-555216 297896 L-555193 297896 L-554906 297895 L-554223 297893 L-554146 297892 L-554110 297891 L-554094 297889 L-553894 297888 L-553474 297885 L-553203 297885 L-552329 297884 L-552037 297884 L-551926 297884 L-551192 297882 L-551065 297881 L-550705 297880 L-550453 297880 L-549581 297878 L-549412 297878 L-549351 297877 L-549296 297876 L-548948 297874 L-548924 297873 L-548716 297871 L-548575 297870 L-548445 297869 L-548322 297867 L-548199 297866 L-547962 297865 L-547671 297863 L-547012 297862 L-546990 297861 L-546835 297859 L-546718 297858 L-545753 297857 L-545698 297855 L-545465 297854 L-545443 297852 L-545117 297851 L-545001 297851 L-544961 297850 L-544460 297850 L-544161 297848 L-544049 297847 L-543507 297846 L-542448 297844 L-541822 297843 L-541650 297842 L-541402 297840 L-541146 297839 L-541015 297837 L-540993 297836 L-540326 297835 L-539430 297833 L-539384 297832 L-539313 297831 L-539198 297831 L-538977 297829 L-538786 297829 L-538747 297828 L-538555 297827 L-537896 297827 L-537279 297825 L-537240 297833 L-536643 297842 L-536582 297848 L-535460 297855 L-535405 297855 L-535284 297854 L-535019 297852 L-534955 297852 L-534686 297852 L-534610 297851 L-534394 297851 L-533911 297850 L-533641 297848 L-533510 297848 L-533278 297846 L-533253 297842 L-533238 297836 L-533215 297829 L-533199 297822 L-533176 297816 L-533162 297808 L-533138 297799 L-533123 297791 L-533100 297784 L-533084 297778 L-533062 297771 L-533046 297767 L-533018 297763 L-533000 297757 L-532982 297754 L-532946 297750 L-532906 297748 L-532891 297745 L-532866 297741 L-532813 297738 L-532789 297735 L-532712 297733 L-532674 297731 L-532659 297729 L-532596 297726 L-532581 297723 L-532535 297719 L-532464 297716 L-532426 297715 L-532402 297712 L-532349 297710 L-532324 297708 L-532309 297707 L-532247 297705 L-532210 297704 L-532133 297703 L-532117 297701 L-532089 297699 L-532017 297697 L-531977 297696 L-531824 297693 L-531707 297692 L-531653 297690 L-531571 297689 L-531537 297688 L-531513 297686 L-531359 297685 L-531344 297684 L-531242 297682 L-530932 297681 L-530895 297680 L-530680 297678 L-530569 297678 L-530544 297678 L-530314 297680 L-530082 297680 L-529707 297678 L-529579 297677 L-529539 297675 L-529487 297674 L-529385 297673 L-529348 297671 L-529138 297671 L-529074 297670 L-528961 297670 L-528750 297669 L-528712 297667 L-528340 297666 L-528287 297665 L-528208 297663 L-528186 297662 L-528094 297661 L-527893 297659 L-527856 297659 L-527834 297659 L-527604 297659 L-527583 297658 L-527374 297658 L-527279 297656 L-527242 297655 L-526905 297654 L-526793 297652 L-526753 297651 L-526739 297651 L-526599 297650 L-526584 297650 L-526330 297650 L-525747 297648 L-525671 297647 L-525633 297646 L-525588 297644 L-525540 297643 L-525360 297641 L-525346 297640 L-525246 297639 L-525168 297637 L-525108 297636 L-524742 297633 L-524660 297632 L-524642 297631 L-524589 297629 L-523620 297628 L-523489 297626 L-523467 297625 L-523247 297624 L-523178 297622 L-523156 297621 L-522909 297620 L-522653 297618 L-522522 297617 L-522483 297616 L-522461 297613 L-522406 297610 L-522318 297609 L-522257 297606 L-522031 297605 L-521902 297603 L-521802 297602 L-521748 297601 L-521555 297599 L-521477 297598 L-521143 297597 L-521013 297595 L-520835 297594 L-520819 297592 L-520794 297591 L-520525 297591 L-519324 297590 L-519287 297590 L-519171 297588 L-518938 297587 L-518747 297586 L-518708 297586 L-518652 297584 L-518547 297584 L-518034 297583 L-517740 297582 L-517508 297580 L-517233 297579 L-517215 297578 L-517183 297576 L-517143 297575 L-517105 297573 L-517004 297572 L-516927 297571 L-516834 297569 L-516707 297568 L-516602 297567 L-516424 297567 L-516231 297565 L-515403 297565 L-515287 297564 L-515032 297563 L-514992 297561 L-514893 297560 L-514833 297560 L-514590 297558 L-514566 297558 L-514446 297557 L-514374 297556 L-514335 297554 L-514103 297553 L-513927 297552 L-513406 297550 L-513330 297549 L-513313 297548 L-512902 297548 L-512539 297548 L-512424 297546 L-512401 297546 L-512360 297545 L-512284 297543 L-512230 297542 L-511881 297541 L-511766 297539 L-511588 297539 L-511533 297538 L-511509 297538 L-511395 297537 L-511108 297535 L-510876 297534 L-510660 297533 L-510451 297531 L-510240 297529 L-509414 297527 L-509074 297526 L-508067 297524 L-507704 297523 L-506658 297522 L-506581 297520 L-506134 297519 L-505922 297518 L-505730 297516 L-505436 297515 L-505395 297514 L-505242 297512 L-505188 297509 L-504957 297508 L-504376 297507 L-504182 297505 L-503563 297505 L-503074 297504 L-503022 297503 L-502374 297501 L-502223 297500 L-502054 297499 L-501681 297497 L-501666 297497 L-501567 297496 L-501528 297496 L-501397 297494 L-500964 297494 L-500661 297494 L-500275 297494 L-500135 297493 L-499974 297493 L-499540 297493 L-499501 297492 L-499399 297492 L-499284 297490 L-499106 297490 L-498936 297489 L-498818 297488 L-498457 297485 L-498239 297484 L-498107 297482 L-497966 297482 L-497468 297482 L-497390 297482 L-497155 297481 L-496832 297481 L-496445 297480 L-496422 297478 L-495802 297478 L-495532 297477 L-495299 297477 L-494874 297475 L-494602 297474 L-494460 297473 L-494252 297471 L-494046 297470 L-493495 297469 L-493364 297469 L-492977 297467 L-492707 297467 L-492604 297466 L-492344 297465 L-492142 297463 L-492073 297462 L-492034 297460 L-491467 297459 L-491260 297458 L-491233 297456 L-491003 297455 L-490926 297454 L-490409 297452 L-490370 297451 L-490215 297450 L-489921 297448 L-489650 297447 L-489286 297445 L-488938 297445 L-488566 297444 L-488446 297444 L-488374 297443 L-487894 297441 L-487831 297440 L-487497 297439 L-487366 297437 L-487288 297436 L-487159 297435 L-486695 297435 L-486401 297433 L-486324 297433 L-486013 297432 L-485704 297431 L-485641 297429 L-485611 297428 L-484837 297426 L-484732 297424 L-484644 297422 L-484621 297421 L-484467 297420 L-484245 297418 L-484079 297417 L-483692 297416 L-483637 297414 L-483573 297414 L-482956 297413 L-482839 297411 L-482516 297410 L-481990 297409 L-481640 297407 L-481564 297406 L-480944 297405 L-480533 297403 L-480233 297402 L-479922 297401 L-479784 297399 L-479160 297399 L-478778 297398 L-477655 297398 L-476594 297396 L-476532 297395 L-476171 297394 L-476070 297394 L-476054 297392 L-475680 297392 L-474674 297390 L-474288 297388 L-474081 297386 L-473992 297384 L-473616 297383 L-473323 297382 L-473012 297380 L-472223 297379 L-472135 297377 L-472083 297376 L-472045 297375 L-471527 297373 L-471412 297372 L-471203 297371 L-471064 297369 L-470460 297368 L-469631 297367 L-469347 297365 L-469166 297365 L-468664 297364 L-468459 297364 L-467905 297364 L-467400 297362 L-467208 297361 L-467170 297360 L-466541 297358 L-466088 297357 L-465673 297356 L-465065 297354 L-463944 297354 L-463531 297353 L-463207 297353 L-462992 297352 L-462565 297350 L-462425 297349 L-462334 297348 L-462103 297346 L-461516 297346 L-460708 297345 L-459509 297345 L-459395 297345 L-459262 297343 L-459175 297342 L-459133 297343 L-459113 297345 L-459102 297348 L-459007 297350 L-458244 297350 L-457538 297350 L-457498 297349 L-457211 297348 L-456671 297346 L-456609 297345 L-456569 297343 L-456554 297342 L-456298 297341 L-455974 297339 L-455834 297338 L-455564 297337 L-455525 297335 L-455417 297334 L-455016 297333 L-454906 297331 L-454829 297330 L-454532 297328 L-454489 297327 L-454271 297327 L-454087 297327 L-453977 297327 L-453962 297326 L-453936 297326 L-453512 297324 L-453266 297323 L-452930 297322 L-452895 297320 L-452761 297319 L-452507 297319 L-452352 297318 L-451446 297318 L-451347 297316 L-451152 297313 L-450145 297312 L-449644 297311 L-449566 297309 L-449527 297308 L-449319 297307 L-449201 297305 L-449103 297304 L-448917 297303 L-448751 297301 L-448516 297300 L-448096 297299 L-448081 297297 L-447772 297296 L-446726 297294 L-446509 297293 L-446493 297292 L-446471 297290 L-446262 297289 L-446103 297288 L-446045 297286 L-444599 297285 L-444274 297285 L-444072 297285 L-443873 297285 L-443723 297285 L-443452 297284 L-443011 297282 L-442794 297282 L-442099 297281 L-441596 297279 L-441272 297278 L-441000 297278 L-440280 297277 L-440125 297277 L-438927 297274 L-438538 297273 L-438422 297270 L-438269 297269 L-438115 297267 L-437144 297266 L-437092 297264 L-436845 297263 L-436823 297262 L-436603 297260 L-436165 297258 L-436025 297255 L-435917 297252 L-435715 297251 L-435598 297250 L-435496 297248 L-435481 297248 L-435349 297247 L-435095 297245 L-434477 297244 L-433818 297243 L-433572 297243 L-433379 297241 L-432620 297241 L-432581 297241 L-432502 297240 L-432450 297237 L-432411 297236 L-432373 297235 L-432334 297233 L-432243 297232 L-432198 297230 L-432140 297228 L-432116 297226 L-432001 297225 L-431691 297222 L-431636 297221 L-431615 297220 L-431273 297218 L-431108 297217 L-431072 297214 L-431031 297213 L-431017 297211 L-430785 297210 L-430644 297209 L-430477 297207 L-430027 297207 L-429794 297207 L-429701 297207 L-429681 297209 L-429200 297207 L-429123 297207 L-428996 297206 L-428866 297203 L-428487 297202 L-428246 297199 L-428208 297198 L-428154 297196 L-428016 297194 L-427977 297192 L-427937 297191 L-427707 297190 L-427667 297188 L-427536 297187 L-427358 297186 L-427317 297184 L-427303 297183 L-427139 297181 L-427124 297180 L-426971 297179 L-426956 297177 L-426930 297176 L-426896 297175 L-426674 297172 L-426451 297172 L-426197 297171 L-426065 297172 L-425423 297172 L-424815 297171 L-423796 297171 L-423603 297169 L-423552 297168 L-423426 297166 L-423102 297165 L-422329 297164 L-422272 297162 L-422158 297161 L-421746 297160 L-421421 297158 L-421283 297157 L-421059 297156 L-420533 297154 L-420132 297154 L-420100 297153 L-419813 297153 L-419528 297152 L-419140 297150 L-418924 297149 L-418496 297146 L-418315 297145 L-417979 297143 L-417872 297142 L-417686 297142 L-417569 297141 L-417555 297141 L-416833 297139 L-416664 297138 L-416415 297137 L-416315 297135 L-415673 297134 L-415385 297132 L-415195 297131 L-414920 297130 L-414602 297128 L-414318 297127 L-414204 297124 L-414159 297123 L-413956 297122 L-412348 297120 L-412136 297119 L-411455 297117 L-411372 297116 L-411144 297115 L-410954 297115 L-410815 297113 L-410796 297113 L-410603 297113 L-410373 297113 L-410180 297113 L-409096 297112 L-408901 297112 L-408848 297112 L-408694 297112 L-408587 297112 L-408420 297112 L-408268 297111 L-408153 297109 L-408029 297107 L-407611 297105 L-407354 297103 L-407262 297101 L-407069 297101 L-407007 297100 L-406682 297100 L-406621 297100 L-406564 297098 L-406295 297097 L-405946 297096 L-405768 297094 L-405574 297093 L-405538 297094 L-404825 297094 L-404785 297097 L-404476 297098 L-404178 297100 L-404129 297101 L-403873 297103 L-403602 297104 L-403547 297104 L-402456 297104 L-402426 297103 L-402385 297103 L-402209 297103 L-402016 297101 L-401158 297101 L-400105 297100 L-400044 297098 L-399695 297097 L-398882 297097 L-398069 297097 L-398054 297097 L-397679 297097 L-397510 297097 L-397241 297097 L-396914 297096 L-396792 297094 L-396735 297094 L-396700 297093 L-396622 297093 L-396405 297092 L-396347 297090 L-396031 297089 L-395863 297088 L-395500 297088 L-395307 297088 L-395283 297088 L-395206 297086 L-394725 297086 L-394588 297086 L-394174 297085 L-393875 297085 L-393776 297083 L-393760 297082 L-393731 297081 L-393372 297079 L-393022 297078 L-392884 297077 L-392848 297077 L-392031 297075 L-391825 297074 L-391800 297073 L-391644 297073 L-391554 297071 L-391313 297071 L-390989 297070 L-390897 297070 L-390700 297069 L-390414 297069 L-389658 297067 L-389529 297066 L-389456 297064 L-388843 297063 L-388667 297062 L-388557 297060 L-388457 297059 L-388378 297058 L-388241 297056 L-388087 297056 L-388007 297056 L-387817 297056 L-387143 297056 L-387105 297055 L-387002 297054 L-386059 297052 L-386037 297051 L-385686 297049 L-385221 297048 L-385186 297047 L-384756 297045 L-384705 297045 L-384294 297044 L-384277 297044 L-384181 297044 L-384126 297044 L-384087 297044 L-383792 297043 L-382053 297041 L-380544 297040 L-380036 297039 L-379538 297037 L-379404 297036 L-379313 297034 L-379186 297033 L-379107 297030 L-378801 297029 L-378531 297028 L-378297 297028 L-377098 297026 L-376993 297026 L-376927 297025 L-376086 297024 L-375900 297022 L-374989 297021 L-374120 297018 L-373832 297017 L-373740 297014 L-373191 297013 L-372671 297011 L-371602 297010 L-371334 297009 L-371180 297009 L-371087 297009 L-370957 297010 L-370910 297011 L-370750 297011 L-369884 297011 L-369549 297011 L-369166 297010 L-368413 297009 L-368354 297007 L-367965 297007 L-367643 297007 L-367486 297006 L-366754 297006 L-366691 297006 L-366404 297006 L-366030 297006 L-365849 297006 L-365593 297005 L-365332 297002 L-365179 297000 L-364776 296999 L-363478 296998 L-363363 296996 L-362900 296995 L-361568 296994 L-361143 296992 L-361119 296991 L-360986 296990 L-360810 296988 L-360677 296988 L-360347 296987 L-359960 296985 L-359920 296984 L-359904 296981 L-359513 296980 L-359222 296979 L-358953 296979 L-358779 296979 L-357286 296979 L-357236 296977 L-357158 296979 L-355918 296980 L-355843 296980 L-355816 296983 L-355569 296981 L-355412 296981 L-355354 296980 L-354466 296980 L-354238 296979 L-353714 296979 L-353573 296980 L-353497 296980 L-352801 296981 L-352553 296981 L-351872 296980 L-351855 296980 L-351601 296979 L-351233 296979 L-351098 296977 L-350476 296975 L-350132 296973 L-350085 296972 L-349598 296971 L-349264 296968 L-349047 296968 L-348913 296966 L-348592 296965 L-348527 296965 L-348275 296964 L-347986 296962 L-347676 296961 L-347536 296960 L-346997 296958 L-346721 296957 L-345991 296956 L-345938 296956 L-345831 296956 L-345565 296956 L-345141 296956 L-344876 296954 L-344657 296953 L-344636 296951 L-344405 296950 L-344118 296949 L-344095 296949 L-344080 296947 L-343708 296947 L-343536 296946 L-343460 296943 L-343399 296942 L-343098 296939 L-342857 296936 L-342764 296935 L-342507 296934 L-342455 296932 L-342259 296931 L-342043 296932 L-341619 296932 L-341527 296934 L-341387 296932 L-340522 296931 L-340148 296930 L-339821 296927 L-339668 296926 L-339241 296926 L-338523 296924 L-338328 296924 L-337974 296923 L-337828 296922 L-337321 296919 L-337085 296917 L-336118 296916 L-336108 296915 L-335042 296913 L-334810 296912 L-334408 296911 L-334214 296909 L-334134 296908 L-334038 296907 L-333301 296907 L-333169 296907 L-332779 296907 L-332757 296905 L-332662 296905 L-332526 296904 L-332509 296902 L-332489 296901 L-330804 296900 L-330786 296900 L-330669 296898 L-330585 296898 L-330460 296898 L-330436 296897 L-330152 296896 L-330045 296894 L-329857 296892 L-329586 296890 L-328915 296889 L-328543 296887 L-327691 296887 L-327633 296886 L-327614 296886 L-327381 296886 L-327106 296885 L-326801 296885 L-326761 296882 L-326530 296882 L-326293 296881 L-325680 296879 L-325639 296878 L-325602 296875 L-325080 296874 L-324888 296873 L-324828 296871 L-324786 296870 L-324463 296870 L-324435 296868 L-324421 296868 L-323935 296867 L-323882 296866 L-323744 296864 L-323706 296863 L-323689 296862 L-323594 296860 L-322929 296860 L-322313 296859 L-322043 296859 L-321635 296859 L-321614 296858 L-321599 296858 L-321485 296856 L-321098 296855 L-320632 296855 L-320571 296853 L-320492 296852 L-320478 296851 L-319992 296848 L-319952 296847 L-319807 296847 L-319757 296845 L-319678 296847 L-319046 296845 L-318955 296845 L-318714 296845 L-318598 296844 L-318270 296844 L-317516 296843 L-317499 296843 L-316547 296843 L-316238 296841 L-315813 296840 L-315100 296838 L-314781 296837 L-314766 296836 L-314615 296833 L-314312 296832 L-314234 296830 L-314107 296829 L-313670 296829 L-313609 296829 L-313086 296829 L-312817 296829 L-312680 296828 L-312602 296826 L-312563 296825 L-311752 296825 L-311711 296825 L-311271 296825 L-311193 296825 L-310935 296824 L-310744 296822 L-310116 296821 L-309929 296819 L-309894 296817 L-309738 296815 L-309337 296813 L-309259 296811 L-309078 296810 L-308888 296809 L-307959 296806 L-307809 296804 L-306601 296803 L-305791 296802 L-305388 296800 L-304786 296799 L-304584 296798 L-304515 296796 L-304357 296795 L-304095 296794 L-303722 298013 L-303703 298012 L-303547 298012 L-302348 298012 L-301245 296791 L-300317 296790 L-300203 296788 L-299918 296787 L-299816 296785 L-299792 296785 L-299601 296783 L-299524 296781 L-299328 296781 L-298616 296781 L-298458 296783 L-297401 296783 L-296977 296783 L-296566 296781 L-296280 296779 L-296106 296777 L-295874 296776 L-295620 296775 L-295177 296773 L-294517 296772 L-294341 296770 L-294036 296769 L-293649 296768 L-293629 296766 L-293610 296765 L-293588 296764 L-293455 296762 L-293262 296761 L-291618 296760 L-290322 296758 L-290283 296757 L-290225 296755 L-290124 296754 L-289565 296753 L-288580 296751 L-288038 296749 L-287574 296747 L-286929 296746 L-286380 296745 L-285330 296743 L-284401 296742 L-284054 296741 L-283860 296739 L-283357 296738 L-282912 296738 L-282770 296736 L-282748 296736 L-282177 296736 L-281792 296734 L-280958 296732 L-280610 296731 L-280588 296730 L-280200 296730 L-279777 296728 L-279179 296727 L-279160 296726 L-278654 296726 L-278422 296724 L-278309 296724 L-277690 296721 L-277128 296720 L-277088 296719 L-276529 296717 L-276196 296716 L-276083 296716 L-276045 296715 L-275620 296715 L-275560 296715 L-275484 296713 L-275193 296713 L-274981 296712 L-274497 296709 L-274283 296708 L-273143 296706 L-273084 296705 L-273066 296704 L-272660 296702 L-272021 296701 L-271886 296700 L-271828 296698 L-271286 296697 L-270977 296696 L-270725 296696 L-270650 296694 L-270530 296693 L-269797 296690 L-269352 296689 L-269137 296687 L-268404 296686 L-268229 296685 L-267864 296685 L-267649 296685 L-266411 296685 L-266101 296685 L-265985 296685 L-265732 296683 L-265521 296682 L-264979 296681 L-264747 296679 L-264690 296679 L-264592 296678 L-264263 296678 L-264031 296677 L-262368 296675 L-262017 296674 L-261614 296671 L-261459 296670 L-260666 296668 L-259175 296667 L-258789 296666 L-258750 296664 L-258496 296663 L-258401 296662 L-258209 296660 L-257860 296660 L-257164 296659 L-256913 296659 L-256197 296657 L-254784 296656 L-254553 296655 L-254223 296655 L-253007 296655 L-252655 296656 L-252463 296657 L-252345 296659 L-249910 296659 L-248941 296657 L-248110 296656 L-247801 296655 L-246458 296653 L-245886 296652 L-245770 296651 L-245441 296651 L-245344 296649 L-244937 296649 L-244822 296648 L-244631 296647 L-243874 296645 L-243749 296644 L-243467 296643 L-242965 296641 L-242887 296640 L-241301 296647 L-241243 296653 L-240501 296662 L-240120 296668 L-239792 296667 L-239129 296666 L-238999 296664 L-238959 296664 L-238709 296664 L-238573 296664 L-238380 296663 L-238244 296663 L-237993 296660 L-237780 296660 L-237471 296659 L-237198 296659 L-236697 296659 L-236678 296659 L-236244 296657 L-236018 296656 L-235574 296655 L-235556 296653 L-235053 296652 L-234915 296651 L-234801 296649 L-234569 296648 L-234259 296647 L-233794 296645 L-233717 296644 L-233214 296643 L-232944 296641 L-232606 296640 L-232421 296638 L-231744 296637 L-231725 296637 L-231551 296636 L-231531 296634 L-230913 296633 L-230197 296632 L-229635 296630 L-229440 296630 L-229287 296629 L-229268 296629 L-228745 296626 L-228630 296625 L-227759 296623 L-227737 296622 L-227681 296621 L-226849 296619 L-226540 296618 L-226463 296617 L-226192 296615 L-226129 296615 L-226078 296613 L-225767 296610 L-225150 296607 L-224374 296606 L-223580 296604 L-223542 296603 L-223465 296602 L-223292 296600 L-222414 296599 L-221530 296598 L-221435 296596 L-221316 296595 L-220986 296594 L-220950 296594 L-220717 296592 L-220484 296592 L-219769 296589 L-219267 296588 L-218601 296587 L-218493 296585 L-218338 296584 L-218319 296583 L-218164 296581 L-217749 296580 L-217138 296579 L-217003 296577 L-216094 296576 L-215892 296574 L-215339 296573 L-212690 296572 L-212515 296570 L-212437 296568 L-211566 296566 L-211102 296565 L-210619 296564 L-210580 296561 L-210000 296559 L-209980 296558 L-208878 296557 L-207456 296555 L-207039 296554 L-206731 296553 L-206654 296551 L-206578 296550 L-206420 296549 L-206344 296547 L-205880 296546 L-204642 296545 L-204390 296543 L-203946 296542 L-203324 296540 L-203268 296539 L-203074 296539 L-202610 296538 L-202319 296535 L-202278 296532 L-202242 296530 L-202089 296527 L-201911 296525 L-200773 296523 L-200385 296521 L-200328 296520 L-200154 296519 L-197637 296516 L-196477 296515 L-195839 296513 L-195700 296512 L-195569 296509 L-195181 296508 L-194717 296506 L-194506 296504 L-194441 296502 L-194408 296501 L-193654 296500 L-193072 296498 L-192880 296497 L-192261 296496 L-192215 296494 L-191854 296493 L-191748 296491 L-191564 296490 L-191286 296489 L-190383 296487 L-189378 296486 L-188643 296485 L-188217 296483 L-188057 296482 L-187694 296481 L-187597 296479 L-187154 296478 L-187078 296476 L-186726 296476 L-186476 296474 L-186456 296471 L-186283 296468 L-185335 296464 L-185221 296463 L-184658 296462 L-184208 296460 L-183823 296459 L-182912 296457 L-182857 296456 L-181717 296455 L-181137 296452 L-180962 296451 L-180169 296448 L-179937 296447 L-179551 296445 L-179280 296444 L-179144 296442 L-179029 296441 L-178409 296441 L-178352 296441 L-178137 296441 L-177842 296441 L-177054 296440 L-176914 296440 L-175526 296438 L-175179 296438 L-174792 296437 L-174731 296434 L-174694 296433 L-174637 296432 L-173994 296430 L-173303 296429 L-173051 296429 L-172715 296427 L-172625 296427 L-172105 296426 L-171852 296425 L-171636 296422 L-171253 296421 L-171092 296419 L-170554 296417 L-169742 296415 L-169723 296414 L-169607 296414 L-169463 296413 L-169082 296413 L-168890 296413 L-168833 296411 L-168534 296410 L-168468 296408 L-168272 296407 L-167905 296406 L-167843 296404 L-167540 296403 L-167494 296403 L-167440 296402 L-166802 296402 L-166783 296400 L-166298 296399 L-165816 296400 L-165447 296400 L-165080 296402 L-164946 296402 L-164792 296400 L-164722 296399 L-164074 296399 L-164054 296398 L-163913 296398 L-163429 296396 L-163146 296396 L-163088 296395 L-163030 296395 L-162720 296393 L-162566 296392 L-162082 296392 L-161309 296392 L-160669 296392 L-160571 296391 L-159509 296391 L-159487 296389 L-159022 298032 L-159006 298032 L-158833 298032 L-158320 298032 L-155965 296388 L-155021 296387 L-154302 296385 L-153762 296383 L-153065 296381 L-152748 296380 L-152100 296378 L-151592 296377 L-151558 296376 L-151516 296374 L-151170 296373 L-150475 296372 L-150278 296370 L-150262 296368 L-150146 296366 L-149864 296365 L-148966 296362 L-148920 296361 L-148554 296358 L-148537 296357 L-148482 296355 L-148289 296354 L-148153 296353 L-148077 296351 L-147844 296350 L-147302 296349 L-147262 296347 L-147225 296346 L-147199 296344 L-146564 296342 L-146022 296340 L-144857 296339 L-144497 296338 L-143220 296338 L-143181 296336 L-143143 296336 L-142928 296335 L-142737 296334 L-142660 296332 L-142506 296331 L-142467 296329 L-141378 296328 L-141054 296328 L-140839 296327 L-140579 296327 L-140086 296327 L-140064 296332 L-139647 296338 L-139506 296342 L-139446 296347 L-139369 296347 L-139158 296346 L-137863 296346 L-137587 296344 L-136963 296343 L-135571 296342 L-135499 296340 L-135461 296338 L-135268 296336 L-134878 296335 L-134571 296334 L-134515 296332 L-134199 296332 L-134149 296332 L-134110 296331 L-134065 296329 L-133432 296328 L-132658 296327 L-132219 296325 L-132077 297983 L-132053 297982 L-132037 299639 L-132012 299639 L-131594 297982 L-131391 297980 L-131242 296321 L-131164 296320 L-131109 296319 L-130312 296319 L-130296 296319 L-129433 296319 L-129229 296319 L-128942 296317 L-128826 296316 L-128301 296315 L-128124 296313 L-127820 296312 L-127433 296310 L-127373 296308 L-127317 296306 L-127162 296305 L-126118 296304 L-125556 296304 L-125320 296302 L-125283 296302 L-125014 296302 L-124608 296301 L-123139 296300 L-121398 296298 L-121011 296297 L-120779 296295 L-120679 296294 L-120585 296293 L-120430 296290 L-119867 296290 L-119785 296289 L-119618 296289 L-119075 296290 L-117891 296290 L-117876 296290 L-117817 296290 L-117666 296289 L-117181 296287 L-116534 296286 L-115827 296283 L-115711 296282 L-114744 296280 L-114699 296279 L-114008 296279 L-113951 296278 L-113874 296278 L-113854 296276 L-113833 296275 L-113618 296274 L-112905 296274 L-112515 296272 L-112478 296271 L-112461 296270 L-112403 296268 L-111976 296267 L-111761 296266 L-111686 296263 L-111609 296261 L-111494 296260 L-111428 296260 L-111300 296259 L-111241 296259 L-111165 296256 L-111086 296255 L-110658 296253 L-109932 296252 L-109919 296249 L-109752 296248 L-109536 296245 L-109521 296242 L-108940 296241 L-108668 296240 L-108380 296238 L-107950 296237 L-107797 296236 L-107740 296234 L-107564 296233 L-106168 296232 L-105903 296229 L-105010 296226 L-104484 296225 L-103465 296222 L-103384 296221 L-102920 296219 L-102301 296219 L-102014 296218 L-101761 296218 L-101609 296217 L-101261 296215 L-100544 296214 L-99982 296212 L-99094 296211 L-98785 296211 L-98494 296211 L-97642 296211 L-97621 296211 L-96964 296211 L-96461 296208 L-96250 296207 L-96230 296206 L-95901 296204 L-95842 296204 L-95456 296204 L-94470 296204 L-93908 296204 L-93811 296204 L-93503 296203 L-93425 296203 L-92391 296202 L-92261 296200 L-92204 296199 L-91568 296197 L-91509 296196 L-91434 296195 L-90020 296193 L-89883 296192 L-89750 296191 L-89264 296189 L-89014 296188 L-88724 296187 L-88511 296185 L-87854 296184 L-87286 296181 L-87197 296180 L-87057 296178 L-86982 296177 L-85818 296177 L-85785 296176 L-85356 296176 L-85339 296174 L-85165 296173 L-83637 296172 L-83552 296173 L-82747 296173 L-82553 296173 L-82532 296173 L-81679 296172 L-81485 296170 L-80852 296169 L-80676 296168 L-80556 296166 L-80503 296166 L-80482 296166 L-80426 296166 L-80037 296166 L-79593 296166 L-79515 296165 L-79318 296165 L-79257 296163 L-78994 296162 L-78646 296162 L-78530 296161 L-77381 296161 L-77097 296159 L-76652 296158 L-75448 296157 L-75318 296155 L-75008 296154 L-74580 296153 L-73283 296151 L-72974 297749 L-72958 297749 L-72912 297780 L-72862 297780 L-71934 296180 L-71604 296180 L-71055 296147 L-70928 296146 L-70482 296144 L-68948 296143 L-68780 296142 L-68508 296140 L-68484 296138 L-67580 296136 L-67464 296135 L-66997 296134 L-66975 296132 L-66902 296131 L-66704 296129 L-66552 296128 L-66085 296127 L-65434 296125 L-64948 296124 L-64397 296124 L-63376 296124 L-63069 296124 L-63015 296124 L-62415 296123 L-61985 296121 L-61911 296121 L-61893 296120 L-61672 296120 L-61368 296119 L-61286 296117 L-60982 296117 L-60382 296116 L-60246 296114 L-59976 296113 L-59762 296112 L-59586 296112 L-59378 296112 L-59356 296112 L-59107 296128 L-58658 296144 L-58641 296161 L-58196 296177 L-56988 296177 L-56785 296176 L-55857 296176 L-55796 296174 L-55761 296173 L-54735 296172 L-54619 296172 L-54599 296170 L-54445 296170 L-54426 296170 L-54014 296169 L-53999 296169 L-53961 296168 L-53651 296166 L-53497 296165 L-53292 296165 L-52893 296163 L-51911 296163 L-51386 296163 L-51329 296162 L-51304 296162 L-50982 296161 L-50265 296161 L-49396 296161 L-49357 296161 L-49280 296161 L-49029 296159 L-49009 296158 L-48286 296158 L-48136 296157 L-48023 296157 L-47926 296155 L-46824 296154 L-46069 296153 L-45896 296151 L-45735 296150 L-45659 296148 L-45466 296148 L-44327 296147 L-43643 296147 L-43360 296146 L-42393 296144 L-42374 296143 L-41523 296142 L-41483 296140 L-41340 296139 L-41015 296138 L-40786 296136 L-40748 296135 L-40707 296134 L-40691 296131 L-40555 296129 L-40536 296128 L-40324 296127 L-40264 296125 L-40187 296124 L-40163 296123 L-40088 296121 L-39607 296120 L-39511 296119 L-39435 296117 L-39258 296116 L-39236 296114 L-39181 296113 L-39143 296112 L-39084 296110 L-38929 296109 L-37905 296108 L-37606 296106 L-37479 296105 L-37401 296104 L-36375 296102 L-36319 296101 L-36261 296099 L-36215 296098 L-36201 296097 L-36164 296095 L-36125 296094 L-34946 296093 L-34887 296091 L-34190 296091 L-33571 296090 L-33428 296090 L-32986 296089 L-32720 296087 L-32057 296087 L-31773 296086 L-30303 296086 L-29354 296085 L-29248 296083 L-29182 296083 L-29152 296082 L-28832 296080 L-28812 296080 L-27883 296080 L-27707 296082 L-26975 296083 L-26435 222779 L-26411 149473 L-26385 76167 L-26352 2861 L-26336 2859 L-26315 2857 L-26277 2854 L-26257 2854 L-26235 2857 L-26220 2858 L-26201 2859 L-26181 2859 L-26159 2857 L-26142 2855 L-26123 2854 L-26104 2854 L-26065 2854 L-26025 2851 L-26000 2849 L-25984 2844 L-25966 2842 L-25928 2839 L-25910 2838 L-25890 2836 L-25871 2835 L-25850 2832 L-25833 2831 L-25794 2827 L-25771 2823 L-25756 2821 L-25737 2819 L-25717 2817 L-25697 2816 L-25678 2813 L-25640 2812 L-25582 2810 L-25534 2808 L-25482 2806 L-25456 2804 L-25440 2801 L-25423 2800 L-25407 2798 L-25386 2797 L-25369 2797 L-25349 2794 L-25329 2793 L-25306 2790 L-25291 2786 L-25272 2783 L-25252 2782 L-25231 2779 L-25194 2776 L-25175 2774 L-25154 2771 L-25118 2768 L-25097 2767 L-25071 2766 L-25055 2764 L-25037 2761 L-25020 2755 L-25000 2748 L-24982 2740 L-24962 2734 L-24943 2730 L-24885 2727 L-24865 2723 L-24843 2721 L-24808 2717 L-24788 2712 L-24768 2710 L-24750 2707 L-24731 2706 L-24692 2704 L-24672 2702 L-24654 2699 L-24627 2697 L-24440 2695 L-24420 2692 L-24401 2691 L-24378 2688 L-24344 2685 L-24324 2683 L-24302 2678 L-24285 2674 L-24265 2670 L-24246 2666 L-24226 2663 L-24208 2661 L-24189 2658 L-24168 2655 L-24143 2653 L-24127 2650 L-24092 2647 L-24071 2646 L-24053 2643 L-24033 2642 L-24014 2639 L-23993 2636 L-23957 2634 L-23937 2631 L-23915 2628 L-23899 2625 L-23880 2623 L-23860 2620 L-23840 2619 L-23802 2616 L-23725 2614 L-23700 2612 L-23677 2609 L-23649 2605 L-23626 2602 L-23599 2599 L-23550 2597 L-23529 2595 L-23492 2591 L-23473 2589 L-23451 2587 L-23435 2585 L-23415 2583 L-23395 2582 L-23375 2580 L-23338 2578 L-23318 2576 L-23261 2575 L-23240 2574 L-23214 2574 L-23200 2572 L-23182 2572 L-23144 2571 L-23125 2568 L-23106 2565 L-23086 2563 L-23066 2560 L-23048 2557 L-23029 2553 L-23008 2550 L-22988 2548 L-22951 2545 L-22931 2544 L-22912 2542 L-22874 2541 L-22835 2540 L-22815 2538 L-22796 2537 L-22748 2536 L-22720 2534 L-22681 2531 L-22650 2530 L-22636 2527 L-22563 2525 L-22544 2522 L-22522 2521 L-22506 2519 L-22487 2518 L-22447 2518 L-22370 2515 L-22351 2514 L-22332 2511 L-22311 2510 L-22286 2508 L-22254 2507 L-22235 2507 L-22216 2504 L-22177 2501 L-22137 2497 L-22058 2493 L-22023 2491 L-21983 2488 L-21906 2487 L-21887 2485 L-21841 2484 L-21819 2485 L-21791 2485 L-21752 2482 L-21721 2481 L-21707 2478 L-21693 2476 L-21652 2473 L-21591 2472 L-21577 2469 L-21558 2466 L-21537 2463 L-21461 2459 L-21422 2457 L-21404 2454 L-21357 2452 L-21340 2451 L-21322 2450 L-21306 2448 L-21267 2444 L-21247 2442 L-21228 2438 L-21207 2435 L-21190 2432 L-21151 2429 L-21113 2427 L-21094 2424 L-21074 2420 L-21054 2414 L-21036 2409 L-21017 2404 L-20997 2401 L-20977 2399 L-20913 2398 L-20891 2397 L-20863 2395 L-20839 2391 L-20813 2387 L-20797 2382 L-20780 2376 L-20744 2374 L-20726 2371 L-20706 2369 L-20686 2368 L-20663 2365 L-20648 2364 L-20629 2363 L-20609 2359 L-20588 2353 L-20571 2349 L-20551 2345 L-20532 2342 L-20511 2340 L-20494 2338 L-20475 2335 L-20428 2334 L-20412 2331 L-20394 2329 L-20377 2325 L-20356 2320 L-20339 2316 L-20319 2312 L-20300 2307 L-20262 2306 L-20242 2304 L-20199 2303 L-20185 2301 L-20166 2297 L-20145 2293 L-20107 2291 L-20088 2289 L-20068 2286 L-20029 2285 L-20011 2282 L-19985 2280 L-19934 2278 L-19897 2277 L-19882 2276 L-19836 2274 L-19797 2271 L-19777 2270 L-19758 2267 L-19735 2266 L-19720 2263 L-19700 2261 L-19659 2259 L-19642 2257 L-19604 2252 L-19583 2250 L-19565 2246 L-19525 2242 L-19500 2239 L-19483 2236 L-19449 2233 L-19429 2229 L-19410 2224 L-19390 2217 L-19349 2210 L-19333 2203 L-19256 2199 L-19237 2197 L-19197 2195 L-19178 2193 L-19159 2190 L-19139 2190 L-19120 2188 L-19101 2188 L-19006 2190 L-18981 2188 L-18953 2187 L-18922 2184 L-18907 2182 L-18886 2179 L-18848 2176 L-18829 2174 L-18806 2171 L-18791 2169 L-18772 2168 L-18752 2165 L-18730 2163 L-18714 2160 L-18694 2157 L-18675 2154 L-18654 2152 L-18636 2148 L-18618 2145 L-18597 2144 L-18571 2141 L-18554 2137 L-18536 2133 L-18499 2129 L-18481 2123 L-18461 2119 L-18443 2115 L-18421 2110 L-18385 2107 L-18365 2103 L-18342 2099 L-18327 2096 L-18308 2093 L-18288 2090 L-18250 2088 L-18211 2086 L-18191 2085 L-18172 2082 L-18128 2081 L-18026 2081 L-18010 2080 L-17878 2078 L-17863 2077 L-17844 2071 L-17824 2067 L-17802 2065 L-17765 2061 L-17746 2059 L-17726 2058 L-17668 2055 L-17642 2052 L-17626 2050 L-17609 2046 L-17592 2043 L-17572 2041 L-17553 2040 L-17514 2037 L-17492 2036 L-17457 2035 L-17437 2033 L-17415 2032 L-17360 2032 L-17340 2031 L-17282 2029 L-17244 2028 L-17177 2027 L-17149 2024 L-17126 2021 L-17099 2018 L-17067 2016 L-17050 2014 L-17030 2012 L-17012 2016 L-16992 2018 L-16973 2022 L-16951 2027 L-16934 2025 L-16838 2024 L-16780 2022 L-16740 2021 L-16714 2017 L-16683 2014 L-16644 2012 L-16606 2007 L-16586 2005 L-16548 2002 L-16508 1999 L-16470 1997 L-16451 1995 L-16412 1992 L-16393 1990 L-16374 1988 L-16354 1987 L-16335 1986 L-16315 1984 L-16296 1982 L-16270 1978 L-16220 1973 L-16181 1971 L-16150 1968 L-16135 1965 L-16122 1964 L-16083 1961 L-16063 1958 L-16022 1956 L-16006 1953 L-15987 1950 L-15946 1946 L-15910 1943 L-15870 1941 L-15832 1939 L-15786 1937 L-15772 1935 L-15696 1934 L-15657 1933 L-15637 1933 L-15619 1930 L-15600 1929 L-15503 1926 L-15464 1923 L-15406 1920 L-15386 1918 L-15368 1915 L-15342 1915 L-15319 1914 L-15253 1912 L-15236 1912 L-15221 1911 L-15207 1909 L-15171 1908 L-15115 1907 L-15091 1904 L-15058 1901 L-15038 1899 L-14999 1895 L-14979 1890 L-14961 1886 L-14939 1884 L-14922 1881 L-14903 1880 L-14882 1877 L-14857 1874 L-14806 1873 L-14785 1870 L-14729 1869 L-14709 1866 L-14613 1865 L-14594 1862 L-14554 1860 L-14535 1859 L-14517 1855 L-14478 1854 L-14458 1852 L-14439 1851 L-14391 1850 L-14339 1850 L-14312 1848 L-14296 1846 L-14280 1844 L-14264 1841 L-14226 1839 L-14205 1837 L-14186 1835 L-14129 1832 L-14109 1829 L-14087 1825 L-14071 1822 L-14051 1818 L-14032 1816 L-13975 1811 L-13954 1807 L-13928 1803 L-13893 1798 L-13877 1794 L-13857 1791 L-13839 1788 L-13819 1787 L-13800 1784 L-13778 1782 L-13761 1780 L-13742 1779 L-13722 1777 L-13700 1775 L-13684 1772 L-13666 1769 L-13645 1767 L-13625 1765 L-13588 1764 L-13568 1760 L-13548 1756 L-13483 1750 L-13462 1746 L-13434 1743 L-13394 1739 L-13363 1735 L-13348 1731 L-13315 1728 L-13277 1726 L-13258 1724 L-13235 1722 L-13220 1720 L-13201 1718 L-13181 1713 L-13142 1712 L-13122 1709 L-13082 1708 L-13025 1705 L-13000 1704 L-12964 1701 L-12949 1699 L-12927 1696 L-12910 1693 L-12871 1690 L-12850 1689 L-12833 1686 L-12813 1684 L-12794 1679 L-12771 1677 L-12756 1673 L-12737 1670 L-12659 1669 L-12640 1666 L-12620 1663 L-12601 1660 L-12582 1658 L-12556 1655 L-12482 1652 L-12456 1650 L-12440 1645 L-12423 1644 L-12407 1641 L-12387 1639 L-12369 1636 L-12329 1635 L-12307 1633 L-12291 1632 L-12272 1629 L-12252 1628 L-12231 1625 L-12214 1624 L-12118 1621 L-12097 1618 L-12071 1617 L-12038 1614 L-12020 1611 L-12000 1609 L-11982 1606 L-11962 1605 L-11943 1603 L-11921 1602 L-11905 1599 L-11885 1596 L-11865 1594 L-11843 1591 L-11827 1588 L-11808 1587 L-11768 1584 L-11750 1581 L-11711 1579 L-11654 1577 L-11628 1575 L-11605 1572 L-11577 1569 L-11554 1567 L-11528 1564 L-11495 1562 L-11479 1561 L-11458 1561 L-11440 1561 L-11420 1561 L-11401 1561 L-11363 1558 L-11344 1556 L-11324 1552 L-11302 1549 L-11266 1546 L-11246 1545 L-11226 1542 L-11208 1539 L-11189 1538 L-11168 1535 L-11143 1532 L-11127 1530 L-11109 1527 L-11092 1523 L-11072 1520 L-11053 1516 L-11034 1512 L-11014 1509 L-10957 1505 L-10937 1504 L-10915 1501 L-10821 1498 L-10783 1497 L-10763 1507 L-10744 1516 L-10725 1531 L-10627 1546 L-10600 1550 L-10568 1554 L-10550 1553 L-10451 1552 L-10434 1549 L-10416 1547 L-10395 1545 L-10375 1542 L-10357 1538 L-10338 1534 L-10318 1530 L-10299 1526 L-10261 1523 L-10240 1522 L-10183 1520 L-10163 1524 L-10144 1545 L-10125 1565 L-10106 1584 L-10086 1599 L-10065 1599 L-10008 1599 L-9987 1601 L-9951 1599 L-9931 1598 L-9874 1596 L-9854 1595 L-9815 1599 L-9797 1602 L-9770 1605 L-9720 1607 L-9681 1605 L-9622 1602 L-9602 1599 L-9583 1598 L-9544 1596 L-9506 1595 L-9467 1594 L-9390 1592 L-9370 1591 L-9351 1590 L-9254 1588 L-9235 1588 L-9157 1587 L-9100 1586 L-9042 1583 L-9003 1580 L-8984 1579 L-8964 1576 L-8945 1572 L-8819 1568 L-8738 1564 L-8723 1560 L-8708 1556 L-8672 1553 L-8634 1550 L-8615 1549 L-8592 1546 L-8577 1545 L-8558 1542 L-8499 1539 L-8479 1523 L-8461 1504 L-8439 1485 L-8422 1464 L-8403 1459 L-8382 1456 L-8357 1454 L-8340 1451 L-8322 1448 L-8306 1445 L-8285 1439 L-8267 1432 L-8247 1425 L-8207 1418 L-8171 1414 L-8151 1411 L-8128 1409 L-8094 1405 L-8054 1403 L-8035 1400 L-7997 1398 L-7977 1395 L-7958 1394 L-7939 1392 L-7913 1390 L-7891 1387 L-7839 1383 L-7813 1380 L-7797 1379 L-7780 1376 L-7764 1375 L-7744 1372 L-7726 1371 L-7706 1369 L-7629 1368 L-7609 1366 L-7588 1364 L-7571 1358 L-7551 1354 L-7511 1350 L-7475 1346 L-7453 1343 L-7428 1341 L-7412 1339 L-7393 1337 L-7356 1335 L-7339 1334 L-7318 1331 L-7300 1330 L-7278 1327 L-7262 1323 L-7242 1320 L-7222 1317 L-7199 1316 L-7145 1315 L-7125 1312 L-7107 1311 L-7049 1308 L-6985 1305 L-6962 1301 L-6884 1298 L-6852 1294 L-6815 1292 L-6797 1290 L-6777 1288 L-6735 1286 L-6720 1283 L-6681 1279 L-6659 1275 L-6642 1271 L-6622 1266 L-6583 1262 L-6565 1258 L-6546 1255 L-6525 1251 L-6500 1248 L-6483 1244 L-6465 1240 L-6428 1236 L-6390 1233 L-6371 1229 L-6349 1226 L-6313 1225 L-6270 1222 L-6217 1219 L-6178 1217 L-6159 1214 L-6140 1210 L-6119 1207 L-6056 1204 L-5981 1200 L-5938 1199 L-5923 1196 L-5907 1194 L-5868 1192 L-5848 1191 L-5806 1190 L-5791 1190 L-5772 1188 L-5752 1187 L-5730 1184 L-5714 1181 L-5694 1179 L-5654 1175 L-5618 1170 L-5597 1166 L-5571 1162 L-5554 1160 L-5536 1157 L-5520 1154 L-5499 76610 L-5468 76605 L-5442 76600 L-5420 76594 L-5404 1130 L-5384 1128 L-5365 1126 L-5327 1121 L-5308 1117 L-5288 1113 L-5268 1108 L-5211 1104 L-5191 1100 L-5172 1096 L-5127 1094 L-5105 1092 L-5077 1089 L-5052 1086 L-5025 1083 L-4994 1081 L-4958 1078 L-4940 1077 L-4920 1074 L-4844 1072 L-4823 1071 L-4802 1071 L-4785 1072 L-4765 1072 L-4668 1074 L-4643 1071 L-4626 1070 L-4608 1067 L-4592 1063 L-4553 1060 L-4534 1058 L-4493 1055 L-4457 1053 L-4437 1051 L-4414 1049 L-4399 1047 L-4360 1045 L-4302 1044 L-4263 1041 L-4177 1037 L-4149 1034 L-4126 1030 L-4084 1026 L-4011 1025 L-3992 1023 L-3934 1023 L-3915 1025 L-3895 1022 L-3875 1019 L-3838 1017 L-3798 1014 L-3780 1013 L-3740 1013 L-3714 1011 L-3663 1010 L-3625 1009 L-3566 1006 L-3547 1004 L-3528 1002 L-3488 1000 L-3412 996 L-3393 994 L-3374 988 L-3315 983 L-3296 979 L-3270 974 L-3248 972 L-3182 969 L-3152 968 L-3137 965 L-3101 964 L-3063 961 L-3022 958 L-2987 955 L-2967 953 L-2946 951 L-2928 950 L-2910 949 L-2889 947 L-2870 946 L-2851 945 L-2771 943 L-2716 942 L-2696 939 L-2677 938 L-2637 938 L-2619 938 L-2558 938 L-2523 936 L-2503 934 L-2464 932 L-2425 930 L-2406 927 L-2368 924 L-2252 921 L-2220 920 L-2205 917 L-2172 915 L-2154 913 L-2134 911 L-2091 909 L-2057 906 L-1999 905 L-1978 902 L-1939 902 L-1882 901 L-1857 900 L-1840 897 L-1806 894 L-1785 891 L-1766 889 L-1747 886 L-1690 883 L-1671 881 L-1629 878 L-1613 875 L-1574 871 L-1554 867 L-1535 864 L-1497 862 L-1477 859 L-1458 857 L-1439 855 L-1391 852 L-1363 849 L-1338 848 L-1311 845 L-1295 842 L-1280 840 L-1243 836 L-1186 833 L-1148 829 L-1109 826 L-1088 823 L-1071 821 L-1050 817 L-1011 814 L-994 811 L-975 808 L-954 804 L-928 802 L-911 798 L-893 795 L-877 791 L-856 788 L-838 785 L-819 783 L-800 781 L-778 779 L-762 776 L-743 774 L-699 769 L-684 765 L-666 759 L-645 753 L-625 747 L-607 743 L-568 738 L-485 735 L-462 731 L-434 727 L-396 724 L-365 721 L-350 719 L-315 717 L-277 715 L-234 715 L-220 713 L-181 712 L-122 709 L-103 706 L-82 702 L-46 701 L-25 700 L0 698 L17 697 L50 694 L72 691 L89 689 L108 685 L128 681 L166 676 L186 672 L205 668 L229 666 L243 664 L303 661 L321 659 L340 656 L359 651 L379 648 L417 644 L443 641 L493 638 L532 637 L563 636 L577 634 L592 633 L651 630 L670 629 L708 626 L727 623 L747 621 L786 618 L806 614 L824 611 L846 607 L881 603 L903 600 L928 597 L979 596 L1018 593 L1038 589 L1078 585 L1095 581 L1115 577 L1157 573 L1172 570 L1191 568 L1211 565 L1231 562 L1249 561 L1268 559 L1288 558 L1394 555 L1460 554 L1490 550 L1520 547 L1559 544 L1579 543 L1636 540 L1655 538 L1676 534 L1697 529 L1714 525 L1753 523 L1774 519 L1791 514 L1810 513 L1831 510 L1856 506 L1873 504 L1891 500 L1907 497 L1928 495 L1946 494 L1966 493 L1985 490 L2007 489 L2023 489 L2062 489 L2085 489 L2119 489 L2159 486 L2178 485 L2197 482 L2217 478 L2236 475 L2255 471 L2274 467 L2322 465 L2350 463 L2373 460 L2400 459 L2433 456 L2487 453 L2507 452 L2526 449 L2549 448 L2565 445 L2583 444 L2642 442 L2661 441 L2681 438 L2738 437 L2759 434 L2836 433 L2855 430 L2874 427 L2893 425 L2934 421 L2951 415 L2970 412 L2991 408 L3068 407 L3087 406 L3165 403 L3279 400 L3320 397 L3352 396 L3366 395 L3378 393 L3399 392 L3416 391 L3455 388 L3493 387 L3512 384 L3532 382 L3609 380 L3688 377 L3713 376 L3728 374 L3764 373 L3783 373 L3803 372 L3822 370 L3880 367 L3899 366 L3919 363 L3941 362 L3997 359 L4016 357 L4112 354 L4131 351 L4180 351 L4208 350 L4248 350 L4308 347 L4328 346 L4345 343 L4365 342 L4384 340 L4408 338 L4422 336 L4442 333 L4461 331 L4483 329 L4520 327 L4538 325 L4560 323 L4596 320 L4617 318 L4659 317 L4677 314 L4693 312 L4714 308 L4732 305 L4752 302 L4771 299 L4792 297 L4809 294 L4829 291 L4872 289 L4905 286 L4925 283 L4946 279 L4964 276 L4983 274 L5002 271 L5022 270 L5041 268 L5060 267 L5086 267 L5175 265 L5206 263 L5221 260 L5256 257 L5294 255 L5313 253 L5336 250 L5351 249 L5370 246 L5390 245 L5428 242 L5449 240 L5467 242 L5488 244 L5511 244 L5524 244 L5546 240 L5571 235 L5607 231 L5622 227 L5642 223 L5661 223 L5680 223 L5699 223 L5721 222 L5737 218 L5757 215 L5800 211 L5815 210 L5834 207 L5875 204 L5892 203 L5911 199 L5931 196 L5951 193 L5970 191 L5989 189 L6037 186 L6104 185 L6136 184 L6163 182 L6185 181 L6202 180 L6223 178 L6242 177 L6265 177 L6279 176 L6299 174 L6318 170 L6341 166 L6357 163 L6378 161 L6396 159 L6453 157 L6474 154 L6500 151" />
</svg>
