<svg xmlns="http://www.w3.org/2000/svg" version="1.1" viewBox="0 0 6500 1000">
	<path fill="none" stroke="gold" stroke-width="125" stroke-linecap="round" stroke-linejoin="round" d="M0 1219  L-30059 1219 L-29647 1132 L-29422 1176 L-29365 1132 L-29327 1045 L-29143 958 L-28653 871 L-28359 827 L-28048 783 L-27813 696 L-27760 609 L-27701 522 L-27548 478 L-27507 435 L-27375 391 L-27082 435 L-26541 391 L-25931 304 L-25883 391 L-25243 304 L-25210 348 L-24684 261 L-24552 217 L-24161 43 L-23833 -44 L-23716 -131 L-23505 -44 L-22788 -87 L-22218 -131 L-22111 -174 L-21936 -261 L-21715 -349 L-21313 -392 L-21288 -479 L-20360 -566 L-20272 -654 L-20190 -741 L-20120 -828 L-19823 -871 L-19671 -915 L-17780 -654 L-17680 -784 L-17417 -871 L-17124 -784 L-16982 -871 L-16733 -915 L-16698 -959 L-16539 -1046 L-16076 -1089 L-15823 -1176 L-15611 -1220 L-15359 -1264 L-15010 -1351 L-14083 -1438 L-13989 -1525 L-13579 -1569 L-12408 -1612 L-11219 -1699 L-11126 -1786 L-11099 -1874 L-10833 -2004 L-10534 -2091 L-10405 -2135 L-10368 -2222 L-9553 -1917 L-9169 -1961 L-8109 -2048 L-8048 -2091 L-7782 1437 L-7311 1393 L-7119 1306 L-6855 1263 L-6518 1219 L-6383 1263 L-5927 1132 L-5184 1088 L-5166 1001 L-5001 958 L-4933 1045 L-4417 1001 L-3388 914 L-3192 827 L-2703 871 L-2341 827 L-1933 914 L-1547 958 L155 914 L253 871 L325 914 L387 871 L571 827 L907 783 L1548 696 L1625 783 L1686 740 L1873 696 L1952 653 L2129 609 L2149 653 L2379 609 L2766 566 L3655 522 L3694 478 L3783 391 L3810 348 L4818 261 L4968 217 L4992 173 L5125 130 L5165 86 L6423 43 L6481 130" />
</svg>
