<svg xmlns="http://www.w3.org/2000/svg" version="1.1" viewBox="0 0 6500 1000">
	<path fill="none" stroke="gold" stroke-width="125" stroke-linecap="round" stroke-linejoin="round" d="M0 1668  L-5031 1668 L-4619 1601 L-4394 1634 L-4337 1601 L-4299 1534 L-4115 1468 L-3625 1401 L-3331 1368 L-3020 1334 L-2785 1267 L-2732 1201 L-2673 1134 L-2519 1101 L-2479 1067 L-2346 1034 L-2054 1067 L-1513 1034 L-903 967 L-855 1034 L-215 967 L-181 1001 L343 934 L476 900 L866 767 L1194 700 L1311 633 L1522 700 L2239 667 L2809 633 L2917 600 L3091 533 L3312 467 L3714 433 L3740 367 L4668 300 L4755 233 L4837 166 L4907 100 L5205 66 L5357 33" />
</svg>
