<svg xmlns="http://www.w3.org/2000/svg" version="1.1" viewBox="0 0 6500 1000">
	<path fill="none" stroke="gold" stroke-width="125" stroke-linecap="round" stroke-linejoin="round" d="M0 3940  L-1321498 3940 L-1321314 3940 L-1320823 3940 L-1320530 3940 L-1320219 3940 L-1319984 3940 L-1319931 3940 L-1319871 3940 L-1319718 3940 L-1319678 3939 L-1319545 3939 L-1319253 3939 L-1318712 3939 L-1318102 3939 L-1318054 3939 L-1317414 3939 L-1317380 3939 L-1316855 3939 L-1316722 3939 L-1316332 3939 L-1316004 3939 L-1315887 3939 L-1315676 3939 L-1314959 3939 L-1314389 3939 L-1314281 3939 L-1314107 3939 L-1313886 3939 L-1313484 3939 L-1313458 3939 L-1312530 3939 L-1312443 3939 L-1312361 3939 L-1312291 3939 L-1311993 3939 L-1311841 3939 L-1309951 3939 L-1309850 3939 L-1309588 3939 L-1309294 3939 L-1309153 3939 L-1308904 3939 L-1308868 3939 L-1308710 3939 L-1308247 3939 L-1307994 3939 L-1307781 3939 L-1307530 3939 L-1307181 3939 L-1306254 3939 L-1306160 3939 L-1305749 3939 L-1304578 3939 L-1303389 3939 L-1303297 3939 L-1303270 3939 L-1303004 3939 L-1302705 3938 L-1302576 3938 L-1302538 3938 L-1301724 3938 L-1301340 3938 L-1300279 3938 L-1300218 3938 L-1299953 3939 L-1299482 3939 L-1299289 3939 L-1299026 3940 L-1298689 3940 L-1298553 3940 L-1298098 3940 L-1297355 3940 L-1297337 3940 L-1297172 3940 L-1297104 3940 L-1296587 3940 L-1295559 3940 L-1295363 3940 L-1294874 3940 L-1294512 3940 L-1294103 3940 L-1293718 3940 L-1292014 3940 L-1291916 3940 L-1291845 3940 L-1291783 3940 L-1291599 3940 L-1291262 3940 L-1290622 3940 L-1290545 3940 L-1290484 3940 L-1290297 3940 L-1290217 3940 L-1290040 3940 L-1290021 3940 L-1289791 3940 L-1289403 3940 L-1288515 3940 L-1288475 3939 L-1288387 3939 L-1288360 3939 L-1287352 3939 L-1287202 3939 L-1287178 3939 L-1287045 3939 L-1287005 3939 L-1285747 3939 L-1285689 3939 L-1285149 3939 L-1285096 3939 L-1285050 3939 L-1284655 3939 L-1284515 3939 L-1284315 3939 L-1284169 3939 L-1284004 3939 L-1283727 3939 L-1283369 3939 L-1282816 3939 L-1282171 3939 L-1281912 3939 L-1281759 3939 L-1281358 3939 L-1281318 3939 L-1281197 3939 L-1281135 3939 L-1281121 3939 L-1281027 3939 L-1280734 3939 L-1280583 3939 L-1280253 3939 L-1280175 3939 L-1280099 3939 L-1279872 3939 L-1279806 3939 L-1279578 3939 L-1279526 3939 L-1279361 3939 L-1278355 3939 L-1278172 3939 L-1277621 3939 L-1277228 3939 L-1276830 3939 L-1275980 3939 L-1275902 3939 L-1275323 3939 L-1274882 3939 L-1274641 3939 L-1274483 3939 L-1274083 3939 L-1274062 3939 L-1273617 3939 L-1273212 3939 L-1273076 3938 L-1272901 3938 L-1272764 3938 L-1272514 3938 L-1271514 3938 L-1271432 3938 L-1271297 3938 L-1271258 3938 L-1270368 3938 L-1270152 3938 L-1269709 3938 L-1269592 3938 L-1269535 3938 L-1268859 3938 L-1268758 3938 L-1268730 3938 L-1267388 3938 L-1266982 3938 L-1266942 3938 L-1266014 3938 L-1265916 3938 L-1265783 3938 L-1265379 3938 L-1265353 3938 L-1265260 3938 L-1265043 3938 L-1264632 3938 L-1263479 3938 L-1263187 3938 L-1263158 3938 L-1262550 3938 L-1262300 3938 L-1262280 3938 L-1261351 3938 L-1261300 3938 L-1261177 3938 L-1261160 3938 L-1261004 3938 L-1260829 3938 L-1260692 3938 L-1260636 3938 L-1260528 3938 L-1260442 3938 L-1260209 3938 L-1260134 3938 L-1259826 3938 L-1259708 3937 L-1259538 3937 L-1259447 3937 L-1259344 3937 L-1259321 3937 L-1259244 3937 L-1259146 3937 L-1258779 3937 L-1258675 3937 L-1258171 3937 L-1257719 3937 L-1257681 3937 L-1257657 3937 L-1257616 3937 L-1257488 3937 L-1257387 3937 L-1256945 3937 L-1256663 3937 L-1256071 3937 L-1255940 3937 L-1255666 3937 L-1255513 3937 L-1255360 3937 L-1255275 3937 L-1255197 3937 L-1255011 3937 L-1254961 3937 L-1254933 3937 L-1254853 3937 L-1254830 3937 L-1254547 3937 L-1253943 3937 L-1252948 3937 L-1252650 3937 L-1251916 3937 L-1251671 3937 L-1251581 3937 L-1251004 3937 L-1250306 3937 L-1249553 3937 L-1249235 3937 L-1248852 3937 L-1248775 3937 L-1248141 3937 L-1247955 3937 L-1247867 3937 L-1247738 3937 L-1247425 3937 L-1247376 3937 L-1247234 3937 L-1247212 3937 L-1246244 3937 L-1245699 3937 L-1245221 3937 L-1245160 3937 L-1244836 3937 L-1244814 3937 L-1244752 3937 L-1244542 3937 L-1244465 3936 L-1244410 3936 L-1244388 3936 L-1244349 3936 L-1244333 3936 L-1243576 3936 L-1243559 3936 L-1242760 3936 L-1242607 3936 L-1241702 3936 L-1241196 3936 L-1240967 3936 L-1240925 3936 L-1240810 3936 L-1240634 3936 L-1239879 3936 L-1239744 3936 L-1239580 3936 L-1239262 3936 L-1239086 3936 L-1238064 3936 L-1238041 3936 L-1237790 3936 L-1237576 3936 L-1236943 3936 L-1236705 3936 L-1236672 3936 L-1236494 3936 L-1236414 3936 L-1236324 3936 L-1236260 3936 L-1235819 3936 L-1235796 3936 L-1235255 3936 L-1234999 3936 L-1234504 3936 L-1233627 3936 L-1233590 3936 L-1233538 3936 L-1233496 3936 L-1233379 3936 L-1233103 3936 L-1232896 3936 L-1232698 3936 L-1232675 3936 L-1232625 3935 L-1232586 3935 L-1232508 3935 L-1231910 3935 L-1231850 3935 L-1231747 3935 L-1231593 3935 L-1230961 3935 L-1230280 3935 L-1229977 3935 L-1229630 3935 L-1229433 3935 L-1229385 3935 L-1229064 3935 L-1228437 3935 L-1228290 3935 L-1228254 3935 L-1228196 3935 L-1228119 3935 L-1227878 3935 L-1227790 3935 L-1227695 3935 L-1227402 3935 L-1227267 3935 L-1227207 3935 L-1227170 3935 L-1226898 3935 L-1225892 3935 L-1225716 3935 L-1225666 3935 L-1225373 3935 L-1225181 3935 L-1224848 3935 L-1224341 3935 L-1223779 3935 L-1223764 3935 L-1223747 3935 L-1223647 3935 L-1223532 3935 L-1223493 3935 L-1223456 3935 L-1223390 3935 L-1223362 3935 L-1223223 3935 L-1222930 3935 L-1222880 3935 L-1222775 3935 L-1222510 3935 L-1222045 3935 L-1221901 3935 L-1221846 3935 L-1221789 3935 L-1221598 3935 L-1221233 3934 L-1221019 3934 L-1220824 3934 L-1220766 3934 L-1220707 3934 L-1220553 3934 L-1220284 3934 L-1219854 3935 L-1219838 3935 L-1219761 3934 L-1219697 3934 L-1219567 3934 L-1219544 3934 L-1219260 3934 L-1219212 3934 L-1219158 3934 L-1218695 3934 L-1218657 3934 L-1218616 3934 L-1218425 3934 L-1217945 3934 L-1217458 3934 L-1217442 3934 L-1217404 3934 L-1217147 3934 L-1217070 3934 L-1216840 3934 L-1216824 3934 L-1216529 3934 L-1216087 3934 L-1215640 3934 L-1215136 3934 L-1214982 3934 L-1214695 3934 L-1214655 3934 L-1214324 3934 L-1214102 3934 L-1213585 3934 L-1213509 3934 L-1213261 3934 L-1213067 3934 L-1213007 3934 L-1212231 3934 L-1212157 3934 L-1211926 3934 L-1211910 3934 L-1211848 3934 L-1211652 3934 L-1211188 3934 L-1211165 3934 L-1211035 3934 L-1209734 3934 L-1209718 3934 L-1209640 3934 L-1209547 3934 L-1209329 3934 L-1209177 3934 L-1208999 3934 L-1208945 3934 L-1208658 3934 L-1208618 3934 L-1208249 3934 L-1207808 3934 L-1207625 3934 L-1207304 3934 L-1207009 3934 L-1206563 3934 L-1206491 3934 L-1206029 3934 L-1205591 3934 L-1205409 3933 L-1203955 3933 L-1203823 3933 L-1203366 3933 L-1203140 3933 L-1202754 3933 L-1202237 3933 L-1201283 3933 L-1200489 3933 L-1199814 3933 L-1199389 3933 L-1199078 3933 L-1198848 3933 L-1198164 3933 L-1198151 3933 L-1197941 3933 L-1197919 3933 L-1197745 3933 L-1196795 3933 L-1196527 3933 L-1195712 3933 L-1195401 3933 L-1195364 3933 L-1195306 3933 L-1194689 3933 L-1194051 3933 L-1192425 3933 L-1191752 3933 L-1191110 3933 L-1191032 3933 L-1190976 3933 L-1190940 3933 L-1190912 3933 L-1190800 3933 L-1190782 3933 L-1190759 3933 L-1190606 3933 L-1190552 3932 L-1190474 3932 L-1190355 3932 L-1190257 3932 L-1190140 3932 L-1189870 3932 L-1189601 3932 L-1189583 3932 L-1189383 3932 L-1189236 3932 L-1189010 3932 L-1188876 3932 L-1188567 3932 L-1188507 3932 L-1188154 3932 L-1187805 3932 L-1187704 3932 L-1187640 3932 L-1187580 3932 L-1187196 3932 L-1186815 3932 L-1186710 3932 L-1186450 3932 L-1186179 3932 L-1186020 3932 L-1185987 3932 L-1185925 3932 L-1185784 3932 L-1185600 3932 L-1185556 3932 L-1185268 3932 L-1185251 3932 L-1185018 3932 L-1184957 3932 L-1184919 3932 L-1184339 3932 L-1184206 3932 L-1184182 3932 L-1184164 3932 L-1184146 3931 L-1184130 3931 L-1184106 3931 L-1184090 3931 L-1184069 3931 L-1184052 3931 L-1184029 3931 L-1184012 3931 L-1183990 3931 L-1183974 3931 L-1183925 3931 L-1183852 3930 L-1183818 3930 L-1183794 3930 L-1183758 3930 L-1183717 3930 L-1183680 3930 L-1183664 3930 L-1183640 3930 L-1183603 3930 L-1183586 3930 L-1183563 3930 L-1183545 3930 L-1183527 3930 L-1183511 3930 L-1183481 3930 L-1183455 3930 L-1183410 3930 L-1183394 3930 L-1183352 3930 L-1183304 3930 L-1183233 3930 L-1183218 3929 L-1183202 3929 L-1183139 3929 L-1183100 3929 L-1183061 3929 L-1182895 3929 L-1182830 3929 L-1182814 3929 L-1182770 3929 L-1182711 3929 L-1182499 3929 L-1182465 3929 L-1182423 3929 L-1182345 3929 L-1181807 3929 L-1181729 3929 L-1181625 3929 L-1181536 3929 L-1181360 3929 L-1181010 3929 L-1180854 3929 L-1180416 3929 L-1180259 3929 L-1180129 3929 L-1179425 3929 L-1179224 3929 L-1178264 3929 L-1177781 3929 L-1177682 3929 L-1177590 3929 L-1177345 3929 L-1177272 3929 L-1176829 3929 L-1176733 3929 L-1176718 3929 L-1176702 3929 L-1176677 3929 L-1176211 3929 L-1175994 3929 L-1175854 3929 L-1175561 3929 L-1175472 3929 L-1175431 3929 L-1175401 3929 L-1175228 3929 L-1175169 3929 L-1175093 3929 L-1175013 3929 L-1174943 3929 L-1174634 3929 L-1174549 3929 L-1174335 3928 L-1174300 3928 L-1173616 3928 L-1173517 3928 L-1173312 3928 L-1173266 3928 L-1172987 3928 L-1172925 3928 L-1172908 3928 L-1172830 3928 L-1172522 3928 L-1172498 3928 L-1172444 3928 L-1172421 3928 L-1172299 3928 L-1172163 3928 L-1171919 3928 L-1171793 3928 L-1171146 3928 L-1171130 3928 L-1171106 3928 L-1170925 3928 L-1170849 3928 L-1170757 3928 L-1170330 3928 L-1169913 3928 L-1169520 3928 L-1169442 3928 L-1169423 3928 L-1169060 3928 L-1168823 3928 L-1168595 3928 L-1168282 3928 L-1168204 3928 L-1168123 3928 L-1167945 3928 L-1167930 3928 L-1167664 3928 L-1167584 3928 L-1167354 3928 L-1167128 3928 L-1166812 3928 L-1166637 3928 L-1166276 3928 L-1165884 3928 L-1165815 3928 L-1165751 3928 L-1165611 3928 L-1165559 3928 L-1165457 3927 L-1164956 3927 L-1164758 3927 L-1164512 3927 L-1164326 3927 L-1164026 3927 L-1163950 3927 L-1163784 3927 L-1162900 3927 L-1162871 3927 L-1162748 3927 L-1162170 3927 L-1162092 3927 L-1161378 3927 L-1161066 3927 L-1160853 3927 L-1160836 3927 L-1160450 3927 L-1159925 3927 L-1159479 3927 L-1159149 3927 L-1158996 3927 L-1158670 3927 L-1158492 3927 L-1158411 3927 L-1158204 3927 L-1158029 3927 L-1157100 3927 L-1156211 3927 L-1156171 3927 L-1155943 3927 L-1155564 3927 L-1154777 3927 L-1154542 3927 L-1154467 3927 L-1154109 3927 L-1153537 3927 L-1153270 3927 L-1152884 3927 L-1152780 3927 L-1152610 3927 L-1151992 3927 L-1151781 3927 L-1151473 3927 L-1151420 3927 L-1151292 3927 L-1151239 3927 L-1151120 3927 L-1150784 3927 L-1149824 3927 L-1149693 3927 L-1149491 3927 L-1148860 3927 L-1148549 3927 L-1148135 3927 L-1148107 3927 L-1147962 3927 L-1147542 3927 L-1146209 3927 L-1146162 3927 L-1146034 3927 L-1146017 3926 L-1145439 3926 L-1145233 3926 L-1145204 3926 L-1145163 3926 L-1145106 3926 L-1145068 3926 L-1144990 3926 L-1144847 3926 L-1144392 3926 L-1144274 3926 L-1143989 3926 L-1143616 3926 L-1143520 3926 L-1143193 3926 L-1142839 3926 L-1142669 3926 L-1142621 3926 L-1142512 3926 L-1142423 3926 L-1142396 3926 L-1142319 3926 L-1142016 3926 L-1141982 3926 L-1141910 3926 L-1141542 3926 L-1141207 3926 L-1141126 3926 L-1140906 3926 L-1140735 3926 L-1140707 3926 L-1140210 3926 L-1139661 3926 L-1138780 3926 L-1138682 3926 L-1138605 3926 L-1138330 3926 L-1138083 3926 L-1138009 3926 L-1137948 3926 L-1137829 3926 L-1137786 3926 L-1137676 3926 L-1137600 3926 L-1136899 3926 L-1136653 3926 L-1136614 3926 L-1136457 3926 L-1135858 3926 L-1135631 3926 L-1135539 3926 L-1135064 3926 L-1134467 3925 L-1133947 3925 L-1133926 3925 L-1133781 3925 L-1133460 3925 L-1132919 3925 L-1132687 3925 L-1132516 3925 L-1132030 3925 L-1131802 3925 L-1131717 3925 L-1131371 3925 L-1131045 3925 L-1130522 3925 L-1130195 3925 L-1129594 3925 L-1129397 3925 L-1129345 3925 L-1129304 3925 L-1129023 3925 L-1128338 3925 L-1128028 3925 L-1128003 3925 L-1127812 3925 L-1127589 3925 L-1127503 3925 L-1126840 3925 L-1126815 3925 L-1126593 3925 L-1126264 3925 L-1125912 3925 L-1125707 3925 L-1125474 3925 L-1125216 3925 L-1125027 3925 L-1124980 3925 L-1124752 3925 L-1124718 3925 L-1124561 3925 L-1124347 3925 L-1124174 3925 L-1124083 3925 L-1123805 3925 L-1123562 3925 L-1123246 3925 L-1122820 3925 L-1122783 3925 L-1122299 3925 L-1122066 3925 L-1121854 3925 L-1121628 3925 L-1121078 3925 L-1120831 3925 L-1119997 3925 L-1119941 3925 L-1119919 3925 L-1119761 3925 L-1119300 3925 L-1119259 3924 L-1118919 3924 L-1118786 3924 L-1118563 3924 L-1117991 3924 L-1117519 3924 L-1117325 3924 L-1117132 3924 L-1116942 3924 L-1116841 3924 L-1116472 3924 L-1116426 3924 L-1116344 3924 L-1115051 3924 L-1115003 3924 L-1114734 3924 L-1114589 3924 L-1114038 3924 L-1113922 3924 L-1113840 3924 L-1113481 3924 L-1113257 3924 L-1112976 3924 L-1112647 3924 L-1112139 3924 L-1112026 3924 L-1111947 3924 L-1111783 3924 L-1111489 3924 L-1111020 3924 L-1110823 3924 L-1110773 3924 L-1110123 3924 L-1110001 3924 L-1109547 3924 L-1109511 3924 L-1109043 3924 L-1108932 3924 L-1108916 3924 L-1108700 3924 L-1108519 3924 L-1107987 3924 L-1106958 3924 L-1106758 3924 L-1106300 3924 L-1105352 3924 L-1105253 3924 L-1104899 3924 L-1104838 3924 L-1104824 3924 L-1104789 3924 L-1104419 3924 L-1104299 3924 L-1104057 3924 L-1103893 3924 L-1103706 3924 L-1103585 3924 L-1102515 3924 L-1101657 3924 L-1101444 3924 L-1101347 3924 L-1101173 3923 L-1100840 3923 L-1100768 3923 L-1100710 3923 L-1100535 3923 L-1100146 3923 L-1099911 3923 L-1099799 3923 L-1099682 3923 L-1098702 3923 L-1098676 3923 L-1098082 3923 L-1098049 3923 L-1097901 3923 L-1097616 3923 L-1096704 3923 L-1095758 3923 L-1095605 3923 L-1095503 3923 L-1095371 3923 L-1095228 3923 L-1095202 3923 L-1095087 3923 L-1094869 3923 L-1094188 3923 L-1094058 3923 L-1093755 3923 L-1093515 3923 L-1093183 3923 L-1092544 3923 L-1092201 3923 L-1092140 3923 L-1091984 3923 L-1091062 3923 L-1090592 3923 L-1090548 3923 L-1090536 3923 L-1090494 3923 L-1090472 3923 L-1090445 3923 L-1090301 3923 L-1089879 3923 L-1089544 3923 L-1089352 3923 L-1088924 3923 L-1088736 3923 L-1088347 3923 L-1087813 3923 L-1087440 3923 L-1087419 3923 L-1087169 3923 L-1087050 3923 L-1086975 3923 L-1086839 3923 L-1086799 3923 L-1086720 3923 L-1086325 3923 L-1085829 3923 L-1085717 3923 L-1085544 3923 L-1085236 3923 L-1084789 3923 L-1084466 3923 L-1084323 3922 L-1083896 3922 L-1083743 3922 L-1083688 3922 L-1082874 3922 L-1082854 3922 L-1082482 3922 L-1082425 3922 L-1081296 3922 L-1081228 3922 L-1080670 3922 L-1080475 3922 L-1080339 3922 L-1080106 3922 L-1079759 3922 L-1079724 3922 L-1079689 3922 L-1079620 3922 L-1079272 3922 L-1079099 3922 L-1078615 3922 L-1078598 3922 L-1078273 3922 L-1078116 3922 L-1076975 3922 L-1076950 3922 L-1076758 3922 L-1076565 3922 L-1076315 3922 L-1076297 3922 L-1075277 3922 L-1074979 3922 L-1074904 3922 L-1074768 3922 L-1074592 3922 L-1074015 3922 L-1073800 3922 L-1073736 3922 L-1073605 3922 L-1073568 3922 L-1073045 3922 L-1072907 3929 L-1072893 3929 L-1072870 3929 L-1072850 3929 L-1072623 3922 L-1071847 3922 L-1071805 3922 L-1071437 3922 L-1071359 3922 L-1071307 3922 L-1070634 3922 L-1069891 3922 L-1069467 3922 L-1069019 3922 L-1067957 3921 L-1067646 3921 L-1067236 3921 L-1067164 3921 L-1066639 3921 L-1066545 3921 L-1066527 3921 L-1066082 3921 L-1065897 3921 L-1065116 3921 L-1064444 3921 L-1064032 3921 L-1063800 3921 L-1063659 3921 L-1063578 3921 L-1063558 3921 L-1063482 3921 L-1063353 3921 L-1063036 3921 L-1062812 3921 L-1062487 3921 L-1062425 3921 L-1062055 3921 L-1062022 3921 L-1061813 3921 L-1061146 3921 L-1061068 3921 L-1060910 3921 L-1060800 3921 L-1060473 3921 L-1060318 3921 L-1059977 3921 L-1059920 3921 L-1059582 3921 L-1059379 3921 L-1059326 3921 L-1057949 3921 L-1057820 3921 L-1057386 3921 L-1057066 3921 L-1056238 3921 L-1056115 3921 L-1055384 3921 L-1055228 3921 L-1055187 3921 L-1055133 3921 L-1055110 3921 L-1054996 3921 L-1054700 3921 L-1054410 3921 L-1054356 3921 L-1054235 3921 L-1054205 3921 L-1054105 3921 L-1053661 3921 L-1053509 3921 L-1052674 3921 L-1052132 3921 L-1051797 3921 L-1051782 3921 L-1051706 3921 L-1051590 3920 L-1051395 3920 L-1051131 3920 L-1050297 3920 L-1050200 3920 L-1049679 3920 L-1049637 3920 L-1049538 3920 L-1048709 3920 L-1048574 3920 L-1048236 3920 L-1047682 3920 L-1047302 3920 L-1047139 3920 L-1046829 3920 L-1046016 3920 L-1045710 3920 L-1045442 3920 L-1045120 3920 L-1044799 3920 L-1044524 3920 L-1043695 3920 L-1043600 3920 L-1043508 3920 L-1043403 3920 L-1043016 3920 L-1042536 3920 L-1042520 3920 L-1042401 3920 L-1042033 3920 L-1041939 3920 L-1041105 3920 L-1041028 3920 L-1040728 3920 L-1040638 3920 L-1040230 3920 L-1040120 3920 L-1039421 3920 L-1038948 3920 L-1038887 3920 L-1038669 3920 L-1038395 3920 L-1038282 3920 L-1037255 3920 L-1036868 3920 L-1036848 3920 L-1036515 3920 L-1036271 3920 L-1035837 3920 L-1035727 3920 L-1035610 3919 L-1035158 3919 L-1034567 3919 L-1034231 3919 L-1032338 3919 L-1032224 3919 L-1032013 3919 L-1030694 3919 L-1030588 3915 L-1030522 3911 L-1030486 3908 L-1030424 3908 L-1029924 3912 L-1029249 3916 L-1029227 3919 L-1028957 3919 L-1027989 3919 L-1027299 3919 L-1027137 3919 L-1026597 3919 L-1026507 3919 L-1025488 3919 L-1024540 3919 L-1024174 3919 L-1024071 3919 L-1023483 3919 L-1023424 3919 L-1023323 3919 L-1022883 3919 L-1022776 3919 L-1022334 3919 L-1021334 3919 L-1021078 3919 L-1020975 3919 L-1020845 3919 L-1020478 3919 L-1019897 3919 L-1019866 3919 L-1019551 3919 L-1017568 3919 L-1017452 3919 L-1017384 3919 L-1017026 3919 L-1015407 3919 L-1015229 3919 L-1015085 3919 L-1014263 3919 L-1014210 3919 L-1014155 3919 L-1013721 3919 L-1012741 3919 L-1012667 3919 L-1011582 3919 L-1011369 3919 L-1010653 3919 L-1010265 3919 L-1010046 3919 L-1009726 3919 L-1009233 3919 L-1009105 3918 L-1008876 3918 L-1008644 3918 L-1008585 3918 L-1008295 3918 L-1008023 3918 L-1006993 3918 L-1005328 3918 L-1004909 3918 L-1004772 3918 L-1004615 3918 L-1004310 3918 L-1004082 3918 L-1003924 3918 L-1003764 3918 L-1003595 3918 L-1003548 3918 L-1003494 3918 L-1003473 3918 L-1003087 3918 L-1002837 3918 L-1002566 3918 L-1002406 3918 L-1002316 3918 L-1000657 3918 L-1000492 3918 L-1000112 3918 L-999652 3918 L-999042 3918 L-997949 3918 L-997518 3918 L-997487 3918 L-997424 3918 L-997407 3918 L-995703 3918 L-995661 3918 L-995195 3918 L-995008 3918 L-994976 3918 L-994381 3918 L-994331 3918 L-994008 3918 L-993957 3918 L-993747 3918 L-993729 3918 L-993463 3918 L-993410 3918 L-992941 3918 L-992431 3918 L-992352 3918 L-992058 3918 L-992041 3918 L-992003 3918 L-991932 3918 L-991774 3918 L-990828 3918 L-990772 3918 L-990251 3918 L-990059 3918 L-989958 3918 L-989732 3918 L-989222 3918 L-988834 3918 L-988764 3918 L-988416 3918 L-988059 3918 L-986930 3917 L-986879 3917 L-986653 3917 L-986619 3917 L-986494 3917 L-986395 3917 L-986130 3917 L-985390 3917 L-984812 3917 L-984518 3917 L-983812 3917 L-983634 3917 L-983610 3917 L-982974 3917 L-982663 3917 L-982267 3917 L-982237 3917 L-982216 3917 L-982062 3917 L-981377 3917 L-981361 3917 L-981021 3917 L-980748 3917 L-980711 3917 L-980655 3917 L-980633 3917 L-980561 3917 L-980229 3917 L-980123 3917 L-980094 3917 L-979896 3917 L-979743 3917 L-978875 3917 L-978313 3917 L-978297 3917 L-978195 3917 L-978093 3917 L-977947 3917 L-977868 3917 L-977831 3917 L-977775 3917 L-977702 3917 L-977557 3917 L-977075 3917 L-976671 3917 L-975804 3917 L-975784 3917 L-975527 3917 L-975450 3917 L-975421 3917 L-975410 3917 L-975393 3917 L-975100 3917 L-975061 3917 L-974989 3917 L-974915 3917 L-974710 3917 L-974550 3917 L-974249 3917 L-974172 3917 L-974154 3917 L-973938 3916 L-973707 3916 L-973597 3916 L-973227 3917 L-973069 3917 L-972837 3917 L-972669 3917 L-972524 3916 L-972392 3916 L-971116 3916 L-970713 3916 L-970652 3916 L-970535 3916 L-970110 3916 L-970095 3916 L-970033 3916 L-969759 3916 L-969647 3916 L-969365 3916 L-969087 3916 L-968662 3916 L-968640 3916 L-968562 3916 L-968436 3916 L-967850 3916 L-967458 3916 L-967123 3916 L-966534 3916 L-966431 3916 L-966261 3916 L-966125 3916 L-965297 3916 L-964112 3916 L-964076 3916 L-964020 3916 L-963800 3916 L-963595 3916 L-963440 3916 L-963183 3916 L-963107 3916 L-962564 3916 L-962528 3916 L-962279 3916 L-961891 3916 L-961066 3916 L-960707 3916 L-960397 3916 L-960139 3916 L-959915 3916 L-959509 3916 L-959393 3916 L-959209 3916 L-959156 3916 L-958968 3916 L-958797 3916 L-958768 3916 L-958488 3916 L-958177 3916 L-958039 3916 L-957729 3916 L-957536 3916 L-957520 3916 L-956801 3916 L-956667 3916 L-956370 3915 L-956279 3915 L-955678 3915 L-955640 3915 L-955562 3915 L-954941 3915 L-954790 3915 L-954749 3915 L-954439 3915 L-954247 3915 L-954054 3915 L-953998 3915 L-953689 3915 L-953637 3915 L-953583 3915 L-953557 3915 L-953432 3915 L-952621 3915 L-952545 3915 L-952004 3915 L-951736 3915 L-951076 3915 L-950169 3915 L-949927 3915 L-949395 3915 L-949178 3915 L-948070 3915 L-948020 3915 L-947244 3915 L-946697 3915 L-946586 3915 L-946433 3915 L-946378 3915 L-946212 3915 L-945835 3915 L-945387 3915 L-945333 3915 L-945178 3915 L-944498 3915 L-944278 3915 L-943760 3915 L-942911 3915 L-942895 3915 L-941104 3915 L-940550 3915 L-940433 3915 L-939427 3915 L-939390 3915 L-939158 3915 L-939065 3915 L-939025 3915 L-938693 3915 L-938341 3915 L-938076 3915 L-937789 3915 L-937479 3915 L-937224 3915 L-937131 3915 L-936641 3915 L-936433 3915 L-935868 3914 L-935753 3915 L-935402 3914 L-935351 3914 L-935311 3914 L-934707 3914 L-933973 3914 L-933392 3914 L-933157 3914 L-932616 3914 L-932464 3914 L-931962 3914 L-931753 3914 L-931730 3914 L-931671 3914 L-930708 3914 L-930530 3914 L-930089 3914 L-930064 3914 L-929909 3914 L-929828 3914 L-929677 3914 L-929030 3914 L-928981 3914 L-927861 3914 L-926877 3914 L-926815 3914 L-926095 3914 L-925230 3914 L-924851 3914 L-924632 3914 L-923872 3914 L-923820 3914 L-923511 3914 L-922660 3914 L-922467 3914 L-922290 3914 L-922066 3914 L-921939 3914 L-921747 3914 L-921514 3914 L-921345 3914 L-921058 3914 L-920779 3914 L-920696 3914 L-920525 3914 L-920509 3914 L-920355 3914 L-920316 3914 L-919540 3914 L-919464 3914 L-919231 3914 L-918805 3914 L-918459 3914 L-917876 3914 L-917607 3914 L-917348 3914 L-917219 3914 L-917203 3914 L-917089 3914 L-917065 3914 L-916831 3914 L-916795 3914 L-915479 3914 L-915423 3913 L-914744 3913 L-914172 3913 L-914046 3913 L-913893 3913 L-913816 3913 L-913504 3913 L-913231 3913 L-913142 3913 L-913040 3913 L-912112 3913 L-912036 3913 L-911672 3913 L-911648 3913 L-911611 3913 L-910836 3913 L-910744 3913 L-910604 3913 L-910202 3913 L-909940 3913 L-909697 3913 L-909483 3913 L-909402 3913 L-909326 3913 L-909249 3913 L-909063 3913 L-908996 3913 L-908746 3913 L-908691 3913 L-908554 3913 L-908474 3913 L-908361 3913 L-908138 3913 L-907973 3913 L-907932 3913 L-907763 3913 L-907392 3913 L-907377 3913 L-907261 3913 L-906540 3913 L-906504 3913 L-906371 3913 L-906024 3913 L-905612 3913 L-905576 3913 L-905498 3913 L-905459 3913 L-905095 3913 L-904891 3913 L-904876 3913 L-904530 3913 L-904182 3913 L-903856 3913 L-903754 3913 L-903601 3913 L-903407 3913 L-903175 3913 L-903083 3913 L-902927 3913 L-902850 3913 L-902809 3913 L-902696 3913 L-902673 3913 L-902422 3913 L-902283 3913 L-901705 3913 L-900877 3913 L-900389 3913 L-900268 3913 L-900229 3913 L-900217 3913 L-900064 3913 L-899964 3912 L-899731 3912 L-899340 3912 L-899036 3912 L-899020 3912 L-898850 3912 L-898611 3912 L-898015 3912 L-897411 3912 L-897371 3912 L-897331 3912 L-897178 3912 L-897124 3912 L-897062 3912 L-896994 3912 L-896939 3912 L-896914 3912 L-896867 3912 L-896773 3912 L-896636 3912 L-896482 3912 L-896350 3912 L-896309 3912 L-896273 3912 L-896212 3912 L-895938 3912 L-895624 3912 L-895583 3912 L-895498 3912 L-895320 3912 L-895083 3912 L-894726 3912 L-894696 3912 L-894126 3912 L-894004 3912 L-893768 3912 L-893745 3912 L-893463 3912 L-893178 3912 L-892923 3912 L-892351 3912 L-892054 3912 L-891978 3912 L-891279 3912 L-891201 3912 L-891166 3912 L-891140 3912 L-891088 3912 L-890894 3912 L-890754 3912 L-890718 3912 L-890678 3912 L-890083 3912 L-889850 3912 L-889567 3912 L-889512 3912 L-889438 3912 L-889360 3912 L-889124 3912 L-888880 3912 L-888745 3912 L-888638 3912 L-888559 3912 L-888172 3912 L-888045 3912 L-887892 3912 L-887854 3912 L-887708 3912 L-887487 3912 L-887313 3912 L-887244 3912 L-886422 3912 L-886406 3912 L-886112 3912 L-885324 3912 L-885014 3912 L-884868 3912 L-884640 3912 L-884439 3912 L-883502 3912 L-883465 3912 L-883443 3912 L-883402 3911 L-883133 3911 L-882537 3911 L-882473 3911 L-882438 3911 L-882421 3911 L-881726 3911 L-881524 3911 L-881492 3911 L-881159 3911 L-881051 3911 L-880426 3911 L-879922 3911 L-879885 3911 L-879443 3911 L-879347 3911 L-879188 3911 L-878875 3911 L-878862 3911 L-878422 3911 L-877940 3911 L-877811 3911 L-877491 3911 L-877423 3911 L-877119 3911 L-876943 3911 L-876749 3911 L-876506 3911 L-876309 3911 L-876283 3911 L-875705 3911 L-875635 3911 L-875225 3911 L-875171 3911 L-875125 3911 L-874761 3911 L-874614 3911 L-874409 3911 L-874313 3911 L-874158 3911 L-874096 3911 L-873949 3911 L-873848 3911 L-873291 3911 L-873269 3911 L-873097 3911 L-872555 3911 L-872494 3911 L-872440 3911 L-872412 3911 L-872340 3911 L-872324 3911 L-872260 3911 L-872224 3911 L-872069 3911 L-871744 3911 L-871178 3911 L-871163 3911 L-871101 3911 L-871000 3911 L-870953 3911 L-870711 3911 L-870289 3911 L-870134 3911 L-868392 3911 L-867850 3911 L-866907 3911 L-866498 3911 L-865957 3911 L-865760 3911 L-865592 3910 L-865296 3910 L-865181 3910 L-865166 3910 L-865011 3910 L-864871 3910 L-864795 3910 L-864663 3910 L-864315 3910 L-863944 3910 L-863346 3910 L-863171 3910 L-863014 3910 L-862745 3910 L-862594 3910 L-862303 3910 L-862279 3910 L-862196 3910 L-861969 3911 L-861269 3911 L-861142 3910 L-860711 3910 L-860617 3910 L-859412 3910 L-859363 3910 L-859070 3910 L-858666 3910 L-858390 3910 L-858371 3910 L-858253 3910 L-858177 3910 L-857996 3910 L-857516 3910 L-857064 3910 L-856654 3910 L-856624 3910 L-856205 3910 L-856091 3910 L-855973 3910 L-855958 3910 L-855764 3910 L-855742 3910 L-855510 3910 L-855067 3910 L-854747 3910 L-854282 3910 L-854117 3910 L-853962 3910 L-853806 3910 L-853353 3910 L-853034 3910 L-852979 3910 L-852608 3910 L-852570 3910 L-852244 3910 L-852127 3910 L-852028 3910 L-851702 3910 L-851315 3910 L-851054 3910 L-850696 3910 L-850439 3910 L-848269 3910 L-848220 3910 L-848197 3910 L-847786 3910 L-847724 3910 L-847654 3910 L-847423 3910 L-847113 3910 L-846809 3910 L-846765 3910 L-846457 3910 L-846324 3910 L-846108 3910 L-845395 3910 L-845240 3910 L-845102 3910 L-844953 3910 L-844932 3910 L-844738 3910 L-844713 3910 L-844621 3910 L-844599 3910 L-844583 3910 L-844483 3910 L-843554 3910 L-843096 3910 L-842004 3910 L-841582 3910 L-841178 3910 L-841139 3910 L-840886 3910 L-840111 3909 L-840095 3909 L-840071 3909 L-839878 3909 L-839141 3909 L-838872 3909 L-838831 3909 L-838433 3909 L-838408 3909 L-837618 3909 L-836938 3909 L-835567 3909 L-835297 3909 L-835249 3909 L-834711 3909 L-834678 3909 L-834576 3909 L-834253 3909 L-834173 3909 L-833904 3909 L-832992 3909 L-832853 3909 L-832604 3909 L-832059 3909 L-831637 3909 L-831444 3909 L-831428 3909 L-831290 3909 L-831196 3909 L-831069 3909 L-830809 3909 L-830784 3909 L-830693 3909 L-830383 3909 L-830322 3909 L-830206 3909 L-829856 3909 L-829045 3909 L-828814 3909 L-827985 3909 L-827753 3909 L-827536 3909 L-827018 3909 L-826380 3909 L-825963 3909 L-825641 3909 L-825160 3909 L-824735 3909 L-824673 3909 L-824325 3909 L-824284 3909 L-824271 3909 L-824171 3909 L-824126 3909 L-823640 3909 L-822839 3909 L-822504 3909 L-821423 3909 L-820943 3909 L-820920 3908 L-820780 3908 L-820225 3908 L-819528 3908 L-819219 3908 L-818997 3908 L-818892 3908 L-818790 3908 L-818119 3908 L-818025 3908 L-818003 3908 L-817925 3908 L-817747 3908 L-817575 3908 L-817395 3908 L-817381 3908 L-817305 3908 L-817141 3908 L-816626 3908 L-816610 3908 L-816469 3908 L-816107 3908 L-816083 3908 L-815952 3908 L-815927 3908 L-815565 3908 L-815040 3908 L-814946 3908 L-814730 3908 L-814637 3908 L-814612 3908 L-814148 3908 L-814071 3908 L-813669 3908 L-813219 3908 L-811967 3908 L-811928 3908 L-811496 3908 L-811464 3908 L-810745 3908 L-810568 3908 L-810433 3908 L-810126 3908 L-810071 3908 L-810046 3908 L-810030 3908 L-809855 3908 L-809666 3908 L-809158 3908 L-808785 3908 L-808446 3907 L-808408 3907 L-807689 3907 L-807595 3907 L-807556 3907 L-807015 3907 L-806992 3907 L-806589 3907 L-806163 3907 L-805892 3907 L-805713 3907 L-805467 3907 L-805443 3907 L-805387 3907 L-804770 3907 L-804268 3907 L-803880 3907 L-803262 3907 L-803045 3907 L-802890 3907 L-801598 3907 L-801499 3907 L-801056 3907 L-800725 3907 L-800424 3907 L-800182 3907 L-799447 3907 L-798868 3907 L-798038 3907 L-797938 3907 L-797381 3907 L-797243 3907 L-795601 3907 L-795540 3907 L-795446 3907 L-794479 3907 L-794302 3907 L-794015 3907 L-793797 3907 L-793719 3907 L-793447 3907 L-793332 3907 L-793179 3907 L-792868 3907 L-792790 3907 L-792699 3907 L-792622 3906 L-792506 3906 L-792327 3906 L-792235 3906 L-792196 3906 L-791693 3906 L-791475 3906 L-791345 3906 L-791190 3906 L-791136 3906 L-791011 3906 L-790626 3906 L-790118 3906 L-790045 3906 L-789565 3906 L-789488 3906 L-789388 3906 L-789154 3906 L-788690 3906 L-788460 3906 L-788443 3906 L-788211 3906 L-788056 3906 L-787995 3906 L-787802 3906 L-787531 3906 L-786779 3906 L-785826 3906 L-785790 3906 L-785565 3906 L-785126 3906 L-784845 3906 L-784496 3906 L-783427 3906 L-782499 3906 L-782369 3906 L-782322 3906 L-782253 3906 L-782098 3906 L-782020 3906 L-781847 3906 L-781412 3906 L-781208 3906 L-781148 3906 L-780565 3906 L-780411 3906 L-780296 3906 L-780255 3906 L-780085 3906 L-779949 3906 L-779738 3906 L-779660 3906 L-779637 3906 L-779428 3906 L-779018 3906 L-778994 3906 L-778771 3906 L-778625 3906 L-778591 3906 L-778577 3906 L-778555 3906 L-778321 3906 L-778136 3906 L-777919 3906 L-777893 3906 L-777204 3905 L-777100 3905 L-777065 3905 L-777044 3905 L-776850 3905 L-776797 3905 L-776680 3905 L-776599 3905 L-776488 3905 L-776173 3905 L-775714 3905 L-775459 3905 L-775224 3905 L-775095 3905 L-774742 3905 L-774683 3905 L-774530 3905 L-773958 3905 L-773871 3905 L-773718 3905 L-773422 3905 L-773052 3905 L-772749 3905 L-772673 3905 L-772268 3905 L-772100 3905 L-771956 3905 L-771416 3905 L-771355 3905 L-771339 3905 L-771173 3905 L-770967 3905 L-770892 3905 L-770800 3905 L-770390 3905 L-770374 3905 L-770351 3905 L-770158 3905 L-770081 3905 L-769910 3905 L-769848 3905 L-769833 3905 L-769318 3905 L-769097 3905 L-768478 3905 L-768224 3905 L-768030 3905 L-767991 3905 L-767917 3905 L-767852 3905 L-767202 3905 L-767163 3905 L-766989 3905 L-766923 3905 L-766249 3905 L-765860 3905 L-765598 3905 L-765361 3905 L-765283 3905 L-765267 3905 L-765065 3905 L-764694 3905 L-764469 3905 L-763833 3905 L-763813 3905 L-763426 3905 L-763333 3905 L-763274 3905 L-762998 3905 L-762689 3905 L-762612 3905 L-761760 3905 L-761418 3905 L-760981 3905 L-760547 3905 L-760052 3905 L-759902 3905 L-759634 3905 L-758396 3905 L-758339 3905 L-756576 3905 L-756385 3905 L-755375 3905 L-755224 3905 L-754849 3905 L-754528 3906 L-753922 3906 L-753853 3906 L-753675 3906 L-752847 3906 L-752708 3906 L-752322 3906 L-752137 3905 L-752094 3905 L-751974 3905 L-751764 3905 L-751316 3905 L-750968 3905 L-750836 3905 L-750427 3905 L-750077 3905 L-749791 3905 L-749598 3905 L-749443 3905 L-749279 3905 L-749211 3905 L-749111 3905 L-748878 3905 L-748761 3905 L-748708 3905 L-748166 3905 L-747702 3905 L-746520 3905 L-746387 3905 L-746362 3905 L-746309 3905 L-745642 3905 L-744607 3905 L-744413 3905 L-744233 3905 L-744082 3905 L-744041 3905 L-744026 3905 L-743965 3905 L-743640 3905 L-742479 3905 L-742286 3905 L-742108 3905 L-740994 3905 L-740135 3905 L-740028 3905 L-739555 3905 L-739362 3905 L-737040 3905 L-736963 3905 L-736841 3905 L-736807 3905 L-736770 3905 L-736675 3905 L-736460 3905 L-735878 3905 L-735492 3905 L-734719 3905 L-734641 3905 L-733944 3905 L-733403 3905 L-733362 3905 L-733231 3905 L-732767 3905 L-732729 3905 L-732594 3905 L-732226 3905 L-732196 3905 L-732046 3905 L-731646 3905 L-729822 3905 L-729015 3905 L-728296 3905 L-728279 3905 L-727966 3905 L-727404 3905 L-726903 3904 L-726384 3904 L-726362 3904 L-724618 3904 L-724449 3904 L-724254 3904 L-723360 3904 L-722841 3904 L-722631 3904 L-722373 3904 L-721663 3904 L-720713 3904 L-720055 3904 L-720016 3904 L-719729 3904 L-719647 3904 L-719551 3904 L-719419 3904 L-719342 3904 L-718607 3904 L-718270 3904 L-718220 3904 L-717965 3904 L-717678 3904 L-717253 3904 L-716672 3904 L-716413 3904 L-716262 3904 L-716015 3904 L-715976 3904 L-715179 3904 L-715141 3904 L-714964 3904 L-714555 3904 L-714327 3904 L-714250 3904 L-714119 3904 L-714003 3904 L-713654 3904 L-713591 3904 L-713439 3904 L-712698 3904 L-712587 3904 L-712416 3904 L-712377 3904 L-712083 3904 L-711681 3904 L-711505 3904 L-711410 3904 L-711101 3904 L-710300 3904 L-709841 3904 L-709321 3904 L-708832 3904 L-708137 3904 L-707091 3904 L-706822 3904 L-706767 3904 L-706607 3904 L-706356 3904 L-706110 3904 L-706031 3904 L-705816 3904 L-705504 3904 L-705041 3904 L-705026 3904 L-704730 3904 L-704717 3904 L-703726 3904 L-703053 3904 L-702719 3904 L-702102 3904 L-701965 3903 L-701326 3903 L-701196 3903 L-700245 3903 L-700146 3903 L-699586 3903 L-699178 3903 L-698749 3903 L-698658 3903 L-697823 3903 L-697460 3903 L-697421 3903 L-697288 3903 L-697112 3903 L-696895 3903 L-696841 3903 L-696684 3903 L-696431 3903 L-695331 3903 L-695254 3903 L-695034 3903 L-694903 3903 L-694867 3903 L-694674 3903 L-694574 3903 L-694090 3903 L-693806 3903 L-693646 3903 L-693551 3903 L-693280 3903 L-693010 3903 L-692994 3903 L-692855 3903 L-692717 3903 L-692390 3903 L-692081 3903 L-692040 3903 L-691965 3903 L-691849 3903 L-690999 3903 L-690672 3903 L-690341 3903 L-690208 3903 L-689992 3903 L-689976 3903 L-689296 3903 L-689202 3903 L-689179 3903 L-689163 3903 L-689125 3903 L-688713 3902 L-688443 3902 L-688403 3902 L-688035 3902 L-687825 3902 L-686742 3902 L-686726 3902 L-686697 3902 L-686677 3902 L-686300 3902 L-686045 3902 L-685797 3902 L-685658 3902 L-685526 3902 L-685194 3902 L-685101 3902 L-685040 3902 L-684482 3902 L-684421 3902 L-684265 3902 L-684071 3902 L-683878 3902 L-683863 3902 L-683824 3902 L-683785 3902 L-683515 3902 L-683391 3902 L-683359 3902 L-683260 3902 L-683104 3902 L-682963 3902 L-682679 3902 L-682353 3902 L-681657 3902 L-681635 3902 L-681125 3902 L-680279 3902 L-679916 3902 L-679762 3902 L-679158 3902 L-678988 3902 L-678927 3902 L-678872 3902 L-677816 3902 L-677798 3902 L-676892 3902 L-676871 3902 L-676704 3902 L-676461 3902 L-676411 3902 L-676357 3902 L-676219 3902 L-676180 3902 L-675251 3902 L-675196 3902 L-675074 3902 L-675002 3902 L-674887 3902 L-674708 3902 L-673726 3902 L-673586 3902 L-673469 3902 L-673174 3902 L-672927 3902 L-672890 3902 L-672835 3902 L-672814 3902 L-672681 3902 L-672602 3902 L-672464 3902 L-671841 3902 L-671675 3902 L-671210 3902 L-671034 3902 L-671018 3902 L-670957 3902 L-670841 3902 L-670358 3902 L-669663 3902 L-669290 3901 L-669120 3901 L-668154 3901 L-667999 3901 L-667822 3901 L-667729 3901 L-667474 3901 L-667303 3901 L-666656 3901 L-666645 3901 L-666065 3901 L-665927 3901 L-665872 3901 L-665137 3901 L-665098 3901 L-665020 3901 L-664378 3901 L-663604 3901 L-663511 3901 L-663463 3901 L-663447 3901 L-663411 3901 L-663395 3901 L-663332 3901 L-663316 3901 L-663296 3901 L-663141 3901 L-663102 3901 L-663086 3901 L-663047 3901 L-662908 3901 L-662831 3901 L-662467 3901 L-662119 3901 L-661345 3901 L-660743 3901 L-660546 3901 L-660316 3901 L-660179 3901 L-659541 3901 L-659251 3901 L-659230 3901 L-658769 3901 L-658537 3901 L-658482 3901 L-658443 3901 L-657940 3901 L-657390 3901 L-656602 3901 L-655479 3901 L-654585 3901 L-654497 3901 L-654197 3901 L-654126 3901 L-654010 3901 L-652833 3901 L-652485 3901 L-652462 3901 L-651943 3901 L-651797 3901 L-651688 3901 L-651479 3901 L-651324 3901 L-651302 3901 L-651108 3901 L-651031 3901 L-650887 3901 L-650086 3901 L-649940 3901 L-649660 3901 L-649483 3900 L-649173 3900 L-648362 3900 L-647433 3900 L-645841 3900 L-645598 3900 L-644957 3900 L-644762 3900 L-644684 3900 L-644166 3900 L-643934 3900 L-643911 3900 L-643779 3900 L-643440 3900 L-643429 3900 L-643213 3900 L-643176 3900 L-642634 3900 L-642105 3900 L-642038 3900 L-641745 3900 L-641197 3900 L-641162 3900 L-641109 3900 L-641010 3900 L-640777 3900 L-640197 3900 L-640099 3900 L-640025 3900 L-639693 3900 L-638943 3900 L-638904 3900 L-638224 3900 L-638070 3900 L-637744 3900 L-637528 3900 L-637296 3900 L-637000 3900 L-636754 3900 L-636402 3900 L-636349 3900 L-635590 3900 L-634897 3900 L-634546 3900 L-634082 3900 L-633449 3900 L-633040 3900 L-632962 3900 L-632536 3900 L-631894 3900 L-631724 3900 L-630982 3900 L-630795 3900 L-630500 3900 L-629928 3900 L-629903 3900 L-628883 3900 L-628396 3900 L-628303 3900 L-628242 3900 L-627954 3900 L-627668 3900 L-627607 3900 L-627427 3900 L-626716 3900 L-626540 3900 L-626341 3900 L-626190 3900 L-626098 3900 L-626036 3899 L-625494 3899 L-625184 3899 L-625092 3899 L-625015 3899 L-624447 3899 L-624356 3899 L-624102 3899 L-623775 3899 L-623738 3899 L-623583 3899 L-623351 3899 L-623029 3899 L-621896 3899 L-621697 3899 L-621172 3899 L-620927 3899 L-620681 3899 L-620601 3899 L-620581 3899 L-620504 3899 L-620449 3899 L-620372 3899 L-620333 3899 L-620154 3899 L-620117 3899 L-619885 3899 L-618648 3899 L-618321 3899 L-618281 3899 L-617500 3899 L-617353 3899 L-616361 3899 L-616155 3899 L-615729 3899 L-615601 3899 L-615197 3899 L-615109 3899 L-614452 3899 L-613745 3899 L-613136 3899 L-612943 3899 L-612710 3899 L-612092 3899 L-611796 3899 L-611357 3899 L-611202 3899 L-611047 3899 L-610291 3899 L-609941 3898 L-609538 3898 L-609500 3898 L-608494 3898 L-608174 3898 L-607927 3898 L-607227 3898 L-607154 3898 L-606841 3898 L-605761 3898 L-605570 3898 L-605336 3898 L-605141 3898 L-604641 3898 L-603887 3898 L-603774 3898 L-603573 3898 L-603532 3898 L-603439 3898 L-603126 3898 L-603038 3898 L-602922 3898 L-602604 3898 L-602535 3898 L-602510 3898 L-602148 3898 L-602110 3898 L-601893 3898 L-601390 3898 L-600788 3898 L-600576 3898 L-600423 3898 L-600385 3898 L-600341 3898 L-600307 3898 L-600174 3898 L-599765 3898 L-599394 3898 L-599340 3898 L-599324 3898 L-599245 3898 L-598836 3898 L-598682 3898 L-598666 3898 L-598627 3898 L-598448 3898 L-598372 3898 L-598141 3898 L-597351 3898 L-597274 3898 L-596539 3898 L-596383 3898 L-596143 3898 L-596081 3898 L-595996 3898 L-595973 3898 L-595855 3898 L-595841 3898 L-595779 3898 L-595742 3898 L-595648 3898 L-595626 3898 L-595509 3898 L-595277 3898 L-595107 3897 L-594287 3897 L-593885 3897 L-593730 3897 L-593225 3897 L-593111 3897 L-592515 3897 L-592140 3897 L-592089 3897 L-591895 3897 L-591198 3897 L-591160 3897 L-591015 3897 L-590790 3897 L-590528 3897 L-590154 3897 L-589729 3897 L-589600 3897 L-589579 3897 L-589086 3897 L-588390 3897 L-588158 3897 L-588004 3897 L-587036 3897 L-586811 3897 L-586533 3897 L-586517 3897 L-585991 3897 L-585463 3897 L-585314 3897 L-585295 3897 L-584753 3897 L-584443 3897 L-584326 3897 L-584134 3897 L-583998 3897 L-583671 3897 L-583554 3897 L-583244 3897 L-582818 3897 L-582762 3897 L-582530 3897 L-582433 3897 L-582300 3897 L-582004 3897 L-581890 3897 L-581525 3897 L-581213 3897 L-580730 3897 L-580559 3897 L-580311 3897 L-580095 3897 L-579569 3897 L-579383 3897 L-579027 3897 L-578392 3897 L-578238 3897 L-577497 3897 L-577077 3897 L-576897 3897 L-576821 3897 L-576690 3897 L-576396 3897 L-576355 3897 L-576125 3897 L-575933 3897 L-575678 3897 L-575251 3897 L-575142 3897 L-574524 3897 L-574342 3897 L-573131 3897 L-572483 3897 L-572333 3897 L-572295 3897 L-572163 3897 L-572062 3897 L-572046 3897 L-571965 3897 L-571753 3897 L-571636 3897 L-571274 3897 L-570902 3897 L-570205 3897 L-569803 3897 L-569698 3896 L-569680 3896 L-568735 3896 L-568540 3896 L-568388 3896 L-568333 3896 L-567576 3896 L-567559 3896 L-567070 3896 L-566940 3896 L-566747 3896 L-565857 3896 L-565817 3896 L-565779 3896 L-565702 3896 L-565663 3896 L-565586 3896 L-565502 3896 L-565238 3896 L-565006 3896 L-564944 3896 L-564463 3896 L-564127 3896 L-564015 3896 L-563822 3896 L-563646 3896 L-563586 3896 L-563550 3896 L-563280 3896 L-562582 3896 L-562529 3896 L-562235 3896 L-561833 3896 L-561269 3896 L-560396 3896 L-560091 3896 L-560053 3896 L-559930 3896 L-559332 3896 L-559202 3896 L-559002 3896 L-558965 3896 L-558351 3896 L-558172 3896 L-558157 3896 L-557939 3896 L-557861 3896 L-557554 3896 L-557422 3896 L-557190 3896 L-556856 3896 L-556764 3896 L-556664 3896 L-556626 3896 L-556083 3896 L-555890 3896 L-555349 3896 L-554923 3896 L-554791 3896 L-554730 3896 L-554499 3896 L-554482 3896 L-553994 3896 L-553913 3896 L-553896 3896 L-552503 3896 L-552367 3896 L-552253 3896 L-551619 3896 L-551479 3896 L-551361 3896 L-551208 3896 L-551171 3896 L-551092 3896 L-551038 3896 L-550046 3896 L-550010 3896 L-549877 3896 L-549816 3895 L-549717 3895 L-549427 3895 L-549413 3895 L-549103 3895 L-549004 3895 L-548538 3895 L-548485 3897 L-548342 3899 L-548214 3901 L-547982 3903 L-547413 3903 L-547324 3903 L-547302 3903 L-547015 3903 L-546332 3903 L-546255 3903 L-546219 3903 L-546202 3903 L-546003 3903 L-545582 3903 L-545311 3903 L-544438 3903 L-544146 3903 L-544035 3903 L-543300 3903 L-543173 3903 L-542814 3903 L-542561 3903 L-541690 3903 L-541521 3903 L-541459 3903 L-541404 3903 L-541056 3903 L-541033 3903 L-540824 3903 L-540684 3903 L-540553 3903 L-540431 3903 L-540307 3903 L-540070 3903 L-539780 3903 L-539121 3903 L-539099 3902 L-538944 3902 L-538826 3902 L-537862 3902 L-537806 3902 L-537574 3902 L-537551 3902 L-537225 3902 L-537110 3902 L-537070 3902 L-536568 3902 L-536269 3902 L-536158 3902 L-535615 3902 L-534556 3902 L-533930 3902 L-533759 3902 L-533511 3902 L-533255 3902 L-533124 3902 L-533102 3902 L-532435 3902 L-531538 3902 L-531492 3902 L-531422 3902 L-531306 3902 L-531086 3902 L-530895 3902 L-530856 3902 L-530663 3902 L-530004 3902 L-529387 3902 L-529348 3902 L-528752 3902 L-528690 3902 L-527568 3902 L-527514 3902 L-527393 3902 L-527127 3902 L-527064 3902 L-526795 3902 L-526718 3902 L-526502 3902 L-526020 3902 L-525750 3902 L-525619 3902 L-525386 3902 L-525362 3902 L-525347 3902 L-525324 3902 L-525308 3902 L-525284 3902 L-525270 3902 L-525247 3902 L-525231 3902 L-525208 3901 L-525193 3901 L-525171 3901 L-525155 3901 L-525126 3901 L-525109 3901 L-525091 3901 L-525054 3901 L-525015 3901 L-524999 3901 L-524974 3901 L-524922 3901 L-524898 3901 L-524821 3901 L-524783 3901 L-524768 3901 L-524705 3901 L-524690 3901 L-524644 3901 L-524573 3901 L-524535 3901 L-524511 3901 L-524458 3901 L-524433 3900 L-524418 3900 L-524356 3900 L-524319 3900 L-524242 3900 L-524226 3900 L-524198 3900 L-524125 3900 L-524086 3900 L-523932 3900 L-523816 3900 L-523762 3900 L-523679 3900 L-523646 3900 L-523622 3900 L-523467 3900 L-523452 3900 L-523351 3900 L-523040 3900 L-523004 3900 L-522789 3900 L-522678 3900 L-522653 3900 L-522423 3900 L-522190 3900 L-521815 3900 L-521688 3900 L-521648 3900 L-521595 3900 L-521494 3900 L-521457 3900 L-521247 3900 L-521182 3900 L-521070 3900 L-520858 3900 L-520821 3900 L-520449 3900 L-520396 3900 L-520317 3900 L-520295 3900 L-520202 3900 L-520002 3900 L-519965 3900 L-519943 3900 L-519713 3900 L-519692 3900 L-519483 3900 L-519388 3900 L-519350 3900 L-519014 3900 L-518901 3900 L-518861 3900 L-518848 3900 L-518708 3900 L-518693 3900 L-518439 3900 L-517856 3900 L-517780 3900 L-517742 3900 L-517697 3900 L-517649 3900 L-517469 3900 L-517454 3900 L-517355 3900 L-517277 3900 L-517216 3900 L-516851 3900 L-516769 3899 L-516751 3899 L-516697 3899 L-515729 3899 L-515597 3899 L-515576 3899 L-515355 3899 L-515287 3899 L-515264 3899 L-515018 3899 L-514762 3899 L-514631 3899 L-514591 3899 L-514570 3899 L-514514 3899 L-514427 3899 L-514365 3899 L-514140 3899 L-514011 3899 L-513911 3899 L-513857 3899 L-513663 3899 L-513585 3899 L-513252 3899 L-513121 3899 L-512944 3899 L-512928 3899 L-512903 3899 L-512634 3899 L-511433 3899 L-511396 3899 L-511280 3899 L-511046 3899 L-510855 3899 L-510816 3899 L-510761 3899 L-510656 3899 L-510142 3899 L-509848 3899 L-509616 3899 L-509341 3899 L-509324 3899 L-509291 3899 L-509251 3899 L-509214 3899 L-509112 3899 L-509035 3899 L-508942 3899 L-508816 3899 L-508711 3899 L-508533 3899 L-508340 3899 L-507511 3899 L-507395 3899 L-507141 3899 L-507101 3899 L-507002 3899 L-506941 3899 L-506699 3899 L-506675 3899 L-506554 3899 L-506483 3898 L-506443 3898 L-506212 3898 L-506035 3898 L-505515 3898 L-505439 3898 L-505422 3898 L-505011 3898 L-504648 3898 L-504532 3898 L-504510 3898 L-504469 3898 L-504393 3898 L-504339 3898 L-503990 3898 L-503874 3898 L-503697 3898 L-503642 3898 L-503618 3898 L-503504 3898 L-503216 3898 L-502984 3898 L-502769 3898 L-502559 3898 L-502349 3898 L-501523 3898 L-501183 3898 L-500175 3898 L-499812 3898 L-498767 3898 L-498689 3898 L-498242 3898 L-498031 3898 L-497839 3898 L-497545 3898 L-497504 3898 L-497350 3898 L-497297 3898 L-497065 3898 L-496485 3898 L-496291 3898 L-495672 3898 L-495183 3898 L-495131 3898 L-494482 3898 L-494332 3898 L-494163 3898 L-493790 3898 L-493774 3898 L-493675 3898 L-493637 3898 L-493506 3898 L-493072 3898 L-492769 3898 L-492384 3898 L-492244 3898 L-492082 3898 L-491648 3898 L-491610 3898 L-491508 3898 L-491393 3898 L-491215 3898 L-491045 3898 L-490927 3898 L-490565 3898 L-490348 3898 L-490215 3898 L-490075 3898 L-489576 3898 L-489498 3898 L-489264 3898 L-488940 3898 L-488553 3897 L-488531 3897 L-487910 3897 L-487640 3897 L-487407 3897 L-486982 3897 L-486711 3897 L-486569 3897 L-486360 3897 L-486155 3897 L-485603 3897 L-485472 3897 L-485086 3897 L-484815 3897 L-484713 3897 L-484452 3897 L-484251 3897 L-484181 3897 L-484143 3897 L-483575 3897 L-483368 3897 L-483341 3897 L-483112 3897 L-483035 3897 L-482518 3897 L-482479 3897 L-482324 3897 L-482030 3897 L-481759 3897 L-481395 3897 L-481047 3897 L-480675 3897 L-480554 3897 L-480483 3897 L-480003 3897 L-479940 3897 L-479605 3897 L-479474 3897 L-479396 3897 L-479267 3897 L-478803 3897 L-478509 3897 L-478433 3897 L-478121 3897 L-477813 3897 L-477750 3897 L-477720 3897 L-476945 3897 L-476841 3897 L-476753 3897 L-476730 3897 L-476576 3897 L-476354 3897 L-476187 3897 L-475800 3897 L-475746 3897 L-475682 3897 L-475065 3897 L-474948 3897 L-474625 3897 L-474099 3897 L-473749 3897 L-473673 3897 L-473053 3897 L-472642 3896 L-472341 3896 L-472031 3896 L-471892 3896 L-471268 3896 L-470887 3896 L-469763 3896 L-468703 3896 L-468640 3896 L-468280 3896 L-468178 3896 L-468162 3896 L-467789 3896 L-466783 3896 L-466396 3896 L-466189 3896 L-466101 3896 L-465725 3896 L-465432 3896 L-465121 3896 L-464332 3896 L-464244 3896 L-464192 3896 L-464153 3896 L-463636 3896 L-463520 3896 L-463311 3896 L-463172 3896 L-462569 3896 L-461739 3896 L-461456 3896 L-461274 3896 L-460773 3896 L-460568 3896 L-460014 3896 L-459508 3896 L-459317 3896 L-459279 3896 L-458650 3896 L-458197 3896 L-457782 3896 L-457174 3896 L-456053 3896 L-455640 3896 L-455316 3896 L-455101 3896 L-454674 3896 L-454534 3896 L-454443 3896 L-454211 3896 L-453625 3896 L-452817 3896 L-451617 3896 L-451504 3896 L-451371 3896 L-451284 3896 L-451242 3896 L-451221 3896 L-451210 3896 L-451116 3896 L-450352 3896 L-449646 3896 L-449606 3896 L-449320 3896 L-448780 3896 L-448718 3896 L-448678 3896 L-448663 3896 L-448406 3896 L-448083 3896 L-447943 3896 L-447673 3896 L-447634 3896 L-447526 3896 L-447125 3896 L-447015 3896 L-446938 3896 L-446641 3896 L-446598 3895 L-446379 3895 L-446196 3895 L-446085 3895 L-446071 3895 L-446045 3895 L-445621 3895 L-445374 3895 L-445039 3895 L-445004 3895 L-444869 3895 L-444615 3895 L-444461 3895 L-443555 3895 L-443456 3895 L-443261 3895 L-442253 3895 L-441753 3895 L-441674 3895 L-441636 3895 L-441428 3895 L-441310 3895 L-441211 3895 L-441026 3895 L-440860 3895 L-440624 3895 L-440205 3895 L-440189 3895 L-439880 3895 L-438834 3895 L-438617 3895 L-438602 3895 L-438579 3895 L-438371 3895 L-438212 3895 L-438153 3895 L-436708 3895 L-436382 3895 L-436180 3895 L-435981 3895 L-435831 3895 L-435561 3895 L-435120 3895 L-434902 3895 L-434208 3895 L-433705 3895 L-433380 3895 L-433109 3895 L-432389 3895 L-432234 3895 L-431035 3895 L-430646 3895 L-430531 3895 L-430377 3895 L-430224 3895 L-429253 3895 L-429201 3895 L-428954 3895 L-428931 3895 L-428712 3895 L-428273 3895 L-428134 3895 L-428026 3895 L-427824 3894 L-427707 3894 L-427605 3894 L-427590 3894 L-427458 3894 L-427204 3894 L-426586 3894 L-425926 3894 L-425681 3894 L-425488 3894 L-424729 3894 L-424689 3894 L-424611 3894 L-424559 3894 L-424520 3894 L-424482 3894 L-424443 3894 L-424351 3894 L-424307 3894 L-424249 3894 L-424225 3894 L-424110 3894 L-423800 3894 L-423745 3894 L-423723 3894 L-423381 3894 L-423216 3894 L-423181 3894 L-423140 3894 L-423125 3894 L-422894 3894 L-422753 3894 L-422585 3894 L-422136 3894 L-421902 3894 L-421810 3894 L-421790 3894 L-421309 3894 L-421231 3894 L-421104 3894 L-420974 3894 L-420596 3894 L-420355 3894 L-420317 3894 L-420263 3894 L-420125 3894 L-420086 3894 L-420046 3894 L-419815 3894 L-419775 3894 L-419645 3894 L-419466 3894 L-419425 3894 L-419411 3894 L-419247 3894 L-419233 3894 L-419080 3894 L-419065 3894 L-419039 3894 L-419004 3893 L-418782 3893 L-418560 3893 L-418305 3893 L-418173 3893 L-417531 3893 L-416924 3893 L-415904 3893 L-415711 3893 L-415660 3893 L-415535 3893 L-415211 3893 L-414438 3893 L-414380 3893 L-414266 3893 L-413854 3893 L-413529 3893 L-413392 3893 L-413167 3893 L-412642 3893 L-412240 3893 L-412209 3893 L-411922 3893 L-411637 3893 L-411249 3893 L-411032 3893 L-410605 3893 L-410424 3893 L-410087 3893 L-409981 3893 L-409794 3893 L-409677 3893 L-409663 3893 L-408942 3893 L-408772 3893 L-408524 3893 L-408424 3893 L-407782 3893 L-407494 3893 L-407303 3893 L-407028 3893 L-406711 3893 L-406426 3893 L-406312 3893 L-406267 3893 L-406065 3893 L-404456 3893 L-404244 3893 L-403563 3893 L-403481 3893 L-403253 3893 L-403062 3893 L-402923 3893 L-402905 3893 L-402711 3893 L-402482 3893 L-402289 3893 L-401205 3893 L-401009 3893 L-400957 3893 L-400803 3893 L-400695 3893 L-400529 3893 L-400376 3893 L-400261 3893 L-400137 3893 L-399720 3893 L-399463 3893 L-399371 3893 L-399178 3893 L-399116 3893 L-398791 3893 L-398729 3893 L-398672 3892 L-398403 3892 L-398055 3892 L-397877 3892 L-397682 3892 L-397646 3892 L-396934 3892 L-396894 3892 L-396585 3892 L-396287 3893 L-396237 3893 L-395982 3893 L-395711 3893 L-395656 3893 L-394565 3893 L-394534 3893 L-394494 3893 L-394317 3893 L-394125 3893 L-393267 3893 L-392213 3893 L-392152 3892 L-391804 3892 L-390991 3892 L-390177 3892 L-390162 3892 L-389787 3892 L-389619 3892 L-389350 3892 L-389022 3892 L-388901 3892 L-388844 3892 L-388808 3892 L-388731 3892 L-388514 3892 L-388456 3892 L-388140 3892 L-387972 3892 L-387609 3892 L-387416 3892 L-387392 3892 L-387315 3892 L-386834 3892 L-386696 3892 L-386283 3892 L-385984 3892 L-385884 3892 L-385869 3892 L-385840 3892 L-385481 3892 L-385131 3892 L-384993 3892 L-384956 3892 L-384139 3892 L-383933 3892 L-383909 3892 L-383753 3892 L-383663 3892 L-383422 3892 L-383098 3892 L-383005 3892 L-382809 3892 L-382523 3892 L-381767 3892 L-381638 3892 L-381564 3892 L-380952 3892 L-380776 3892 L-380665 3892 L-380566 3892 L-380487 3892 L-380350 3892 L-380195 3892 L-380116 3892 L-379925 3892 L-379252 3892 L-379214 3892 L-379111 3892 L-378168 3892 L-378146 3892 L-377795 3892 L-377330 3892 L-377294 3892 L-376865 3892 L-376814 3892 L-376402 3892 L-376386 3892 L-376290 3892 L-376234 3892 L-376196 3892 L-375901 3892 L-374162 3892 L-372652 3892 L-372144 3892 L-371647 3892 L-371513 3892 L-371422 3892 L-371295 3892 L-371216 3892 L-370910 3892 L-370640 3892 L-370406 3892 L-369207 3892 L-369102 3892 L-369036 3892 L-368195 3892 L-368009 3891 L-367098 3891 L-366228 3891 L-365941 3891 L-365848 3891 L-365299 3891 L-364779 3891 L-363711 3891 L-363442 3891 L-363288 3891 L-363196 3891 L-363065 3891 L-363018 3891 L-362859 3891 L-361993 3891 L-361658 3891 L-361275 3891 L-360522 3891 L-360463 3891 L-360074 3891 L-359752 3891 L-359595 3891 L-358862 3891 L-358800 3891 L-358513 3891 L-358139 3891 L-357957 3891 L-357702 3891 L-357440 3891 L-357288 3891 L-356884 3891 L-355587 3891 L-355472 3891 L-355008 3891 L-353676 3891 L-353252 3891 L-353227 3891 L-353094 3891 L-352919 3891 L-352786 3891 L-352456 3891 L-352068 3891 L-352029 3891 L-352013 3891 L-351622 3891 L-351330 3891 L-351061 3891 L-350888 3891 L-349395 3891 L-349344 3891 L-349266 3891 L-348026 3891 L-347951 3891 L-347925 3891 L-347678 3891 L-347521 3891 L-347462 3891 L-346575 3891 L-346346 3891 L-345823 3891 L-345681 3891 L-345606 3891 L-344909 3891 L-344662 3891 L-343981 3891 L-343964 3891 L-343710 3891 L-343342 3891 L-343206 3891 L-342584 3891 L-342241 3891 L-342194 3891 L-341706 3891 L-341372 3891 L-341156 3891 L-341021 3891 L-340700 3891 L-340636 3891 L-340384 3891 L-340094 3891 L-339785 3891 L-339645 3891 L-339106 3891 L-338830 3891 L-338100 3891 L-338047 3891 L-337939 3891 L-337674 3891 L-337249 3891 L-336985 3891 L-336765 3891 L-336745 3891 L-336513 3891 L-336226 3891 L-336203 3891 L-336189 3890 L-335816 3890 L-335645 3890 L-335569 3890 L-335508 3890 L-335207 3890 L-334966 3890 L-334873 3890 L-334616 3890 L-334563 3890 L-334368 3890 L-334152 3890 L-333728 3890 L-333636 3890 L-333495 3890 L-332630 3890 L-332257 3890 L-331929 3890 L-331777 3890 L-331350 3890 L-330632 3890 L-330437 3890 L-330083 3890 L-329936 3890 L-329430 3890 L-329193 3890 L-328226 3890 L-328216 3890 L-327151 3890 L-326919 3890 L-326517 3890 L-326322 3890 L-326242 3890 L-326146 3890 L-325409 3890 L-325277 3890 L-324887 3890 L-324865 3890 L-324770 3890 L-324635 3890 L-324618 3890 L-324598 3890 L-322913 3890 L-322894 3890 L-322778 3890 L-322693 3890 L-322569 3890 L-322545 3890 L-322261 3890 L-322154 3890 L-321966 3890 L-321695 3890 L-321023 3890 L-320651 3890 L-319800 3890 L-319742 3890 L-319722 3890 L-319489 3890 L-319215 3890 L-318909 3890 L-318870 3890 L-318639 3890 L-318401 3890 L-317788 3890 L-317748 3890 L-317710 3890 L-317188 3890 L-316997 3890 L-316937 3889 L-316894 3889 L-316572 3889 L-316544 3889 L-316529 3889 L-316044 3889 L-315991 3889 L-315852 3889 L-315814 3889 L-315797 3889 L-315703 3889 L-315037 3889 L-314421 3889 L-314152 3889 L-313743 3889 L-313723 3889 L-313708 3889 L-313594 3889 L-313207 3889 L-312741 3889 L-312680 3889 L-312601 3889 L-312586 3889 L-312100 3889 L-312061 3889 L-311915 3889 L-311866 3889 L-311787 3889 L-311155 3889 L-311064 3889 L-310823 3889 L-310706 3889 L-310379 3889 L-309624 3889 L-309608 3889 L-308656 3889 L-308347 3889 L-307922 3889 L-307208 3889 L-306890 3889 L-306875 3889 L-306724 3889 L-306420 3889 L-306342 3889 L-306215 3889 L-305778 3889 L-305718 3889 L-305195 3889 L-304926 3889 L-304789 3889 L-304711 3889 L-304672 3889 L-303860 3889 L-303819 3889 L-303380 3889 L-303301 3889 L-303044 3889 L-302853 3889 L-302224 3889 L-302037 3889 L-302003 3889 L-301847 3889 L-301445 3889 L-301368 3889 L-301187 3889 L-300997 3889 L-300068 3889 L-299917 3889 L-298710 3889 L-297900 3889 L-297497 3889 L-296894 3889 L-296692 3889 L-296623 3889 L-296465 3888 L-296204 3888 L-295831 3904 L-295812 3904 L-295655 3904 L-294457 3904 L-293353 3888 L-292426 3888 L-292312 3888 L-292026 3888 L-291924 3888 L-291900 3888 L-291710 3888 L-291632 3888 L-291437 3888 L-290725 3888 L-290567 3888 L-289510 3888 L-289085 3888 L-288675 3888 L-288389 3888 L-288215 3888 L-287983 3888 L-287729 3888 L-287286 3888 L-286625 3888 L-286450 3888 L-286145 3888 L-285758 3888 L-285738 3888 L-285718 3888 L-285697 3888 L-285563 3888 L-285371 3888 L-283727 3888 L-282430 3888 L-282392 3888 L-282334 3888 L-282232 3888 L-281673 3888 L-280689 3888 L-280147 3888 L-279683 3888 L-279037 3888 L-278488 3888 L-277439 3888 L-276510 3888 L-276162 3888 L-275969 3888 L-275466 3888 L-275021 3888 L-274879 3888 L-274857 3888 L-274286 3888 L-273900 3888 L-273067 3888 L-272718 3888 L-272697 3888 L-272309 3888 L-271886 3888 L-271288 3888 L-271269 3888 L-270763 3888 L-270531 3888 L-270417 3888 L-269798 3888 L-269237 3888 L-269197 3887 L-268637 3887 L-268305 3887 L-268192 3887 L-268153 3887 L-267728 3887 L-267668 3887 L-267593 3887 L-267302 3887 L-267089 3887 L-266606 3887 L-266391 3887 L-265252 3887 L-265193 3887 L-265175 3887 L-264769 3887 L-264130 3887 L-263995 3887 L-263936 3887 L-263394 3887 L-263085 3887 L-262834 3887 L-262758 3887 L-262639 3887 L-261906 3887 L-261460 3887 L-261246 3887 L-260513 3887 L-260338 3887 L-259972 3887 L-259758 3887 L-258520 3887 L-258210 3887 L-258093 3887 L-257841 3887 L-257630 3887 L-257088 3887 L-256856 3887 L-256798 3887 L-256701 3887 L-256372 3887 L-256139 3887 L-254477 3887 L-254126 3887 L-253722 3887 L-253567 3887 L-252775 3887 L-251284 3887 L-250897 3887 L-250859 3887 L-250605 3887 L-250510 3887 L-250317 3887 L-249969 3887 L-249273 3887 L-249021 3887 L-248305 3887 L-246893 3887 L-246661 3887 L-246332 3887 L-245115 3887 L-244764 3887 L-244572 3887 L-244454 3887 L-242019 3887 L-241049 3887 L-240218 3887 L-239909 3887 L-238567 3887 L-237994 3887 L-237878 3887 L-237549 3887 L-237453 3887 L-237046 3887 L-236930 3887 L-236739 3887 L-235983 3887 L-235857 3887 L-235576 3886 L-235073 3886 L-234996 3886 L-233409 3887 L-233352 3887 L-232610 3887 L-232229 3887 L-231901 3887 L-231237 3887 L-231107 3887 L-231068 3887 L-230817 3887 L-230681 3887 L-230489 3887 L-230353 3887 L-230102 3887 L-229889 3887 L-229579 3887 L-229307 3887 L-228805 3887 L-228786 3887 L-228353 3887 L-228127 3887 L-227683 3887 L-227664 3887 L-227161 3887 L-227023 3887 L-226909 3887 L-226677 3887 L-226367 3887 L-225903 3887 L-225826 3887 L-225323 3886 L-225052 3886 L-224714 3886 L-224529 3886 L-223853 3886 L-223834 3886 L-223659 3886 L-223639 3886 L-223022 3886 L-222305 3886 L-221744 3886 L-221549 3886 L-221395 3886 L-221377 3886 L-220853 3886 L-220739 3886 L-219867 3886 L-219846 3886 L-219790 3886 L-218958 3886 L-218648 3886 L-218572 3886 L-218300 3886 L-218237 3886 L-218187 3886 L-217875 3886 L-217258 3886 L-216483 3886 L-215689 3886 L-215651 3886 L-215573 3886 L-215401 3886 L-214523 3886 L-213639 3886 L-213544 3886 L-213424 3886 L-213095 3886 L-213058 3886 L-212826 3886 L-212593 3886 L-211878 3886 L-211375 3886 L-210710 3886 L-210601 3886 L-210447 3886 L-210427 3886 L-210273 3886 L-209857 3886 L-209246 3886 L-209112 3886 L-208203 3886 L-208000 3886 L-207448 3886 L-204798 3886 L-204624 3886 L-204546 3886 L-203674 3885 L-203211 3885 L-202728 3885 L-202689 3885 L-202109 3885 L-202089 3885 L-200987 3885 L-199565 3885 L-199147 3885 L-198840 3885 L-198763 3885 L-198687 3885 L-198529 3885 L-198453 3885 L-197989 3885 L-196751 3885 L-196499 3885 L-196054 3885 L-195432 3885 L-195377 3885 L-195183 3885 L-194718 3885 L-194428 3885 L-194387 3885 L-194350 3885 L-194197 3885 L-194020 3885 L-192882 3885 L-192494 3885 L-192436 3885 L-192263 3885 L-189745 3885 L-188585 3885 L-187948 3885 L-187809 3885 L-187677 3885 L-187290 3885 L-186826 3885 L-186615 3885 L-186550 3885 L-186516 3885 L-185762 3885 L-185180 3885 L-184989 3885 L-184370 3885 L-184324 3885 L-183963 3885 L-183857 3885 L-183672 3884 L-183395 3884 L-182491 3884 L-181487 3884 L-180751 3884 L-180326 3884 L-180166 3884 L-179803 3884 L-179706 3884 L-179262 3884 L-179187 3884 L-178834 3884 L-178585 3884 L-178565 3884 L-178392 3884 L-177443 3884 L-177329 3884 L-176767 3884 L-176317 3884 L-175932 3884 L-175021 3884 L-174965 3884 L-173826 3884 L-173246 3884 L-173071 3884 L-172277 3884 L-172046 3884 L-171659 3884 L-171389 3884 L-171253 3884 L-171137 3884 L-170518 3884 L-170460 3884 L-170245 3884 L-169951 3884 L-169163 3884 L-169023 3884 L-167634 3884 L-167288 3884 L-166901 3884 L-166840 3884 L-166803 3884 L-166746 3884 L-166103 3884 L-165411 3884 L-165159 3884 L-164824 3884 L-164734 3884 L-164214 3884 L-163960 3884 L-163744 3884 L-163361 3884 L-163201 3884 L-162663 3884 L-161850 3884 L-161831 3883 L-161716 3883 L-161571 3883 L-161191 3883 L-160998 3883 L-160942 3883 L-160643 3883 L-160576 3883 L-160381 3883 L-160013 3883 L-159952 3883 L-159648 3883 L-159603 3883 L-159549 3883 L-158911 3883 L-158891 3883 L-158406 3883 L-157924 3883 L-157555 3883 L-157189 3883 L-157054 3883 L-156900 3883 L-156830 3883 L-156183 3883 L-156163 3883 L-156022 3883 L-155537 3883 L-155254 3883 L-155197 3883 L-155139 3883 L-154829 3883 L-154674 3883 L-154191 3883 L-153417 3883 L-152777 3883 L-152680 3883 L-151617 3883 L-151596 3883 L-151131 3905 L-151115 3905 L-150941 3905 L-150428 3905 L-148074 3883 L-147130 3883 L-146411 3883 L-145870 3883 L-145173 3883 L-144857 3883 L-144208 3883 L-143701 3883 L-143666 3883 L-143624 3883 L-143279 3883 L-142584 3883 L-142387 3883 L-142371 3883 L-142254 3883 L-141973 3883 L-141075 3883 L-141029 3883 L-140663 3883 L-140646 3883 L-140591 3883 L-140397 3883 L-140261 3883 L-140186 3883 L-139952 3883 L-139411 3883 L-139371 3883 L-139334 3883 L-139308 3883 L-138673 3883 L-138131 3883 L-136966 3883 L-136606 3882 L-135329 3882 L-135290 3882 L-135251 3882 L-135036 3882 L-134846 3882 L-134769 3882 L-134615 3882 L-134575 3882 L-133486 3882 L-133162 3882 L-132948 3882 L-132688 3882 L-132195 3882 L-132173 3882 L-131756 3882 L-131615 3883 L-131555 3883 L-131477 3883 L-131266 3883 L-129972 3883 L-129696 3883 L-129071 3883 L-127680 3883 L-127608 3883 L-127570 3882 L-127376 3882 L-126987 3882 L-126679 3882 L-126623 3882 L-126308 3882 L-126258 3882 L-126219 3882 L-126173 3882 L-125540 3882 L-124766 3882 L-124327 3882 L-124185 3904 L-124162 3904 L-124146 3926 L-124120 3926 L-123703 3904 L-123500 3904 L-123350 3882 L-123272 3882 L-123218 3882 L-122421 3882 L-122405 3882 L-121541 3882 L-121337 3882 L-121050 3882 L-120935 3882 L-120409 3882 L-120233 3882 L-119929 3882 L-119542 3882 L-119481 3882 L-119426 3882 L-119271 3882 L-118227 3882 L-117664 3882 L-117428 3882 L-117392 3882 L-117122 3882 L-116717 3882 L-115247 3882 L-113506 3882 L-113119 3882 L-112887 3882 L-112788 3882 L-112694 3882 L-112539 3882 L-111976 3882 L-111893 3882 L-111726 3882 L-111184 3882 L-109999 3882 L-109985 3882 L-109926 3882 L-109774 3882 L-109289 3882 L-108643 3882 L-107936 3882 L-107820 3882 L-106853 3882 L-106808 3882 L-106117 3882 L-106060 3882 L-105982 3882 L-105963 3882 L-105942 3882 L-105726 3882 L-105013 3882 L-104623 3882 L-104587 3882 L-104570 3882 L-104512 3882 L-104084 3882 L-103870 3882 L-103795 3882 L-103718 3881 L-103603 3881 L-103537 3881 L-103409 3881 L-103349 3881 L-103274 3881 L-103195 3881 L-102767 3881 L-102041 3881 L-102027 3881 L-101861 3881 L-101644 3881 L-101629 3881 L-101049 3881 L-100777 3881 L-100489 3881 L-100058 3881 L-99905 3881 L-99849 3881 L-99672 3881 L-98277 3881 L-98011 3881 L-97118 3881 L-96593 3881 L-95574 3881 L-95492 3881 L-95029 3881 L-94409 3881 L-94123 3881 L-93869 3881 L-93718 3881 L-93369 3881 L-92653 3881 L-92091 3881 L-91203 3881 L-90894 3881 L-90603 3881 L-89750 3881 L-89730 3881 L-89073 3881 L-88569 3881 L-88359 3881 L-88339 3881 L-88009 3881 L-87951 3881 L-87564 3881 L-86579 3881 L-86017 3881 L-85920 3881 L-85611 3881 L-85534 3881 L-84500 3881 L-84369 3881 L-84313 3881 L-83677 3881 L-83618 3881 L-83543 3881 L-82129 3881 L-81992 3881 L-81859 3881 L-81373 3881 L-81123 3881 L-80832 3881 L-80620 3880 L-79963 3880 L-79394 3880 L-79305 3880 L-79166 3880 L-79091 3880 L-77926 3880 L-77894 3880 L-77465 3880 L-77448 3880 L-77273 3880 L-75745 3880 L-75661 3880 L-74856 3880 L-74662 3880 L-74641 3880 L-73788 3880 L-73594 3880 L-72960 3880 L-72784 3880 L-72665 3880 L-72612 3880 L-72590 3880 L-72534 3880 L-72146 3880 L-71702 3880 L-71624 3880 L-71427 3880 L-71365 3880 L-71103 3880 L-70754 3880 L-70638 3880 L-69490 3880 L-69205 3880 L-68761 3880 L-67557 3880 L-67427 3880 L-67117 3880 L-66689 3880 L-65392 3880 L-65083 3901 L-65067 3901 L-65020 3901 L-64971 3901 L-64043 3880 L-63712 3880 L-63164 3880 L-63036 3880 L-62590 3880 L-61057 3880 L-60889 3880 L-60617 3880 L-60593 3880 L-59688 3880 L-59573 3880 L-59106 3880 L-59083 3880 L-59011 3880 L-58813 3880 L-58661 3880 L-58194 3880 L-57542 3880 L-57056 3880 L-56506 3880 L-55484 3880 L-55178 3880 L-55123 3880 L-54523 3880 L-54093 3880 L-54019 3880 L-54002 3880 L-53781 3880 L-53476 3880 L-53394 3880 L-53091 3880 L-52491 3880 L-52355 3880 L-52084 3880 L-51870 3880 L-51695 3880 L-51486 3880 L-51465 3880 L-51216 3880 L-50766 3880 L-50750 3880 L-50305 3880 L-49096 3880 L-48894 3880 L-47966 3880 L-47904 3880 L-47870 3880 L-46844 3880 L-46728 3880 L-46707 3880 L-46553 3880 L-46534 3880 L-46123 3880 L-46107 3880 L-46070 3880 L-45760 3880 L-45606 3880 L-45401 3880 L-45002 3880 L-44019 3880 L-43494 3880 L-43438 3880 L-43412 3880 L-43090 3880 L-42374 3880 L-41504 3880 L-41466 3880 L-41389 3880 L-41137 3880 L-41117 3880 L-40395 3880 L-40245 3880 L-40132 3880 L-40034 3880 L-38932 3880 L-38177 3880 L-38005 3880 L-37844 3880 L-37768 3880 L-37574 3880 L-36436 3880 L-35752 3880 L-35469 3880 L-34502 3880 L-34483 3880 L-33632 3880 L-33592 3880 L-33449 3880 L-33124 3880 L-32894 3880 L-32857 3880 L-32816 3880 L-32799 3880 L-32663 3880 L-32645 3880 L-32433 3880 L-32373 3880 L-32295 3880 L-32271 3880 L-32196 3880 L-31716 3880 L-31620 3880 L-31544 3880 L-31367 3880 L-31345 3880 L-31290 3880 L-31251 3880 L-31192 3880 L-31037 3879 L-30013 3879 L-29714 3879 L-29588 3879 L-29510 3879 L-28484 3879 L-28427 3879 L-28370 3879 L-28323 3879 L-28310 3879 L-28272 3879 L-28234 3879 L-27054 3879 L-26996 3879 L-26299 3879 L-25680 3879 L-25537 3879 L-25094 3879 L-24829 3879 L-24165 3879 L-23881 3879 L-22411 3879 L-21463 3879 L-21357 3879 L-21291 3879 L-21261 3879 L-20941 3879 L-20920 3879 L-19991 3879 L-19816 3879 L-19084 3879 L-18543 2916 L-18520 1954 L-18493 991 L-18461 28 L-18444 28 L-18424 28 L-18386 28 L-18366 28 L-18343 28 L-18328 28 L-18310 28 L-18289 28 L-18268 28 L-18251 28 L-18231 28 L-18212 28 L-18174 28 L-18134 28 L-18108 28 L-18092 28 L-18074 28 L-18037 28 L-18019 28 L-17999 28 L-17980 28 L-17958 27 L-17942 27 L-17902 27 L-17880 27 L-17864 27 L-17845 27 L-17825 27 L-17806 27 L-17787 27 L-17748 27 L-17691 27 L-17642 27 L-17591 27 L-17564 27 L-17548 27 L-17532 27 L-17516 27 L-17495 27 L-17477 27 L-17457 27 L-17438 27 L-17415 27 L-17400 27 L-17381 27 L-17361 27 L-17339 27 L-17303 27 L-17284 27 L-17263 27 L-17226 27 L-17205 27 L-17180 27 L-17164 27 L-17146 27 L-17129 26 L-17108 26 L-17090 26 L-17070 26 L-17051 26 L-16994 26 L-16974 26 L-16951 26 L-16917 26 L-16897 26 L-16877 26 L-16858 26 L-16839 26 L-16800 26 L-16781 26 L-16762 26 L-16736 26 L-16549 26 L-16529 26 L-16509 26 L-16487 26 L-16453 26 L-16432 26 L-16411 25 L-16394 25 L-16374 25 L-16355 25 L-16334 25 L-16317 25 L-16298 25 L-16277 25 L-16251 25 L-16235 25 L-16200 25 L-16180 25 L-16162 25 L-16142 25 L-16123 25 L-16102 25 L-16065 25 L-16045 25 L-16023 25 L-16007 25 L-15988 25 L-15968 25 L-15949 25 L-15911 25 L-15834 25 L-15808 25 L-15785 25 L-15757 25 L-15735 24 L-15708 24 L-15659 24 L-15638 24 L-15600 24 L-15581 24 L-15559 24 L-15543 24 L-15524 24 L-15504 24 L-15483 24 L-15447 24 L-15427 24 L-15369 24 L-15348 24 L-15323 24 L-15308 24 L-15291 24 L-15253 24 L-15233 24 L-15215 24 L-15195 24 L-15174 24 L-15156 24 L-15137 24 L-15117 24 L-15096 24 L-15060 24 L-15040 24 L-15021 24 L-14982 24 L-14943 24 L-14924 24 L-14905 24 L-14857 24 L-14829 24 L-14789 24 L-14759 24 L-14744 23 L-14672 23 L-14653 23 L-14630 23 L-14614 23 L-14596 23 L-14555 23 L-14479 23 L-14460 23 L-14441 23 L-14420 23 L-14394 23 L-14363 23 L-14343 23 L-14324 23 L-14286 23 L-14245 23 L-14167 23 L-14131 23 L-14092 23 L-14014 23 L-13995 23 L-13950 23 L-13928 23 L-13900 23 L-13861 23 L-13830 23 L-13815 23 L-13801 23 L-13761 23 L-13700 23 L-13685 23 L-13666 23 L-13646 23 L-13569 23 L-13531 23 L-13512 23 L-13465 23 L-13449 22 L-13431 22 L-13414 22 L-13376 22 L-13356 22 L-13337 22 L-13315 22 L-13299 22 L-13260 22 L-13222 22 L-13203 22 L-13182 22 L-13163 22 L-13144 22 L-13125 22 L-13105 22 L-13086 22 L-13022 22 L-13000 22 L-12972 22 L-12948 22 L-12921 22 L-12905 22 L-12889 22 L-12852 21 L-12834 21 L-12814 21 L-12795 21 L-12772 21 L-12757 21 L-12737 21 L-12718 21 L-12696 21 L-12679 21 L-12660 21 L-12641 21 L-12620 21 L-12602 21 L-12583 21 L-12537 21 L-12521 21 L-12502 21 L-12486 21 L-12465 21 L-12447 21 L-12427 21 L-12408 21 L-12370 21 L-12351 21 L-12308 21 L-12293 21 L-12274 20 L-12254 20 L-12216 20 L-12197 20 L-12177 20 L-12138 20 L-12119 20 L-12093 20 L-12043 20 L-12006 20 L-11990 20 L-11944 20 L-11906 20 L-11886 20 L-11866 20 L-11843 20 L-11828 20 L-11809 20 L-11767 20 L-11751 20 L-11712 20 L-11691 20 L-11674 20 L-11634 20 L-11608 20 L-11592 20 L-11558 20 L-11537 20 L-11519 20 L-11499 19 L-11458 19 L-11442 19 L-11364 19 L-11346 19 L-11306 19 L-11287 19 L-11268 19 L-11248 19 L-11229 19 L-11209 19 L-11114 19 L-11089 19 L-11062 19 L-11031 19 L-11016 19 L-10995 19 L-10957 19 L-10938 19 L-10915 19 L-10900 19 L-10881 19 L-10861 19 L-10839 19 L-10822 19 L-10802 19 L-10784 19 L-10763 19 L-10745 19 L-10726 18 L-10705 18 L-10680 18 L-10663 18 L-10645 18 L-10607 18 L-10590 18 L-10570 18 L-10551 18 L-10530 18 L-10493 18 L-10474 18 L-10451 18 L-10436 18 L-10417 18 L-10397 18 L-10358 18 L-10320 18 L-10300 18 L-10281 18 L-10236 18 L-10134 18 L-10119 18 L-9987 18 L-9971 18 L-9952 18 L-9932 17 L-9910 17 L-9874 17 L-9855 17 L-9834 17 L-9777 17 L-9751 17 L-9735 17 L-9717 17 L-9701 17 L-9680 17 L-9662 17 L-9623 17 L-9601 17 L-9565 17 L-9545 17 L-9523 17 L-9468 17 L-9449 17 L-9391 17 L-9352 17 L-9285 17 L-9258 17 L-9235 17 L-9208 17 L-9175 17 L-9159 17 L-9138 17 L-9120 17 L-9101 17 L-9081 17 L-9060 17 L-9043 17 L-8947 17 L-8888 17 L-8848 17 L-8823 17 L-8792 17 L-8753 17 L-8715 17 L-8695 17 L-8656 17 L-8617 17 L-8579 17 L-8560 17 L-8521 16 L-8501 16 L-8482 16 L-8462 16 L-8443 16 L-8424 16 L-8405 16 L-8378 16 L-8329 16 L-8289 16 L-8259 16 L-8244 16 L-8230 16 L-8191 16 L-8172 16 L-8130 16 L-8114 16 L-8096 16 L-8055 16 L-8018 16 L-7979 16 L-7941 16 L-7894 16 L-7880 16 L-7805 16 L-7766 16 L-7746 16 L-7728 16 L-7709 16 L-7611 16 L-7573 16 L-7514 16 L-7495 15 L-7477 15 L-7450 15 L-7428 15 L-7362 15 L-7345 15 L-7329 15 L-7316 15 L-7280 15 L-7223 15 L-7199 15 L-7166 15 L-7146 15 L-7108 15 L-7087 15 L-7069 15 L-7048 15 L-7031 15 L-7012 15 L-6991 15 L-6965 15 L-6915 15 L-6894 15 L-6837 15 L-6818 15 L-6721 15 L-6703 15 L-6663 15 L-6644 15 L-6625 15 L-6587 15 L-6567 15 L-6548 15 L-6500 15 L-6448 15 L-6421 15 L-6405 15 L-6389 15 L-6373 14 L-6334 14 L-6314 14 L-6295 14 L-6237 14 L-6218 14 L-6195 14 L-6179 14 L-6159 14 L-6141 14 L-6083 14 L-6062 14 L-6037 14 L-6002 14 L-5986 14 L-5966 14 L-5948 14 L-5928 14 L-5909 14 L-5887 14 L-5870 14 L-5850 14 L-5831 14 L-5809 14 L-5793 14 L-5774 14 L-5754 13 L-5734 13 L-5697 13 L-5677 13 L-5657 13 L-5592 13 L-5571 13 L-5543 13 L-5503 13 L-5472 13 L-5457 13 L-5423 13 L-5385 13 L-5366 13 L-5343 13 L-5328 13 L-5309 13 L-5289 13 L-5251 13 L-5231 13 L-5191 13 L-5134 13 L-5108 13 L-5073 13 L-5057 13 L-5036 13 L-5019 13 L-4980 12 L-4958 12 L-4942 12 L-4922 12 L-4902 12 L-4880 12 L-4865 12 L-4846 12 L-4768 12 L-4748 12 L-4728 12 L-4709 12 L-4691 12 L-4665 12 L-4591 12 L-4565 12 L-4548 12 L-4532 12 L-4516 12 L-4495 12 L-4477 12 L-4438 12 L-4415 12 L-4400 12 L-4381 12 L-4361 12 L-4339 12 L-4322 12 L-4227 12 L-4205 12 L-4180 12 L-4146 11 L-4129 11 L-4108 11 L-4090 11 L-4070 11 L-4052 11 L-4030 11 L-4013 11 L-3994 11 L-3974 11 L-3952 11 L-3936 11 L-3917 11 L-3877 11 L-3858 11 L-3819 11 L-3762 11 L-3736 11 L-3714 11 L-3686 11 L-3662 11 L-3636 11 L-3604 11 L-3587 11 L-3567 11 L-3549 11 L-3529 11 L-3509 11 L-3471 11 L-3452 11 L-3432 11 L-3411 11 L-3375 11 L-3355 11 L-3335 11 L-3317 11 L-3298 10 L-3277 10 L-3251 10 L-3236 10 L-3218 10 L-3200 10 L-3180 10 L-3162 10 L-3143 10 L-3123 10 L-3065 10 L-3045 10 L-3023 10 L-2930 10 L-2891 10 L-2872 10 L-2852 10 L-2834 10 L-2736 11 L-2709 11 L-2676 11 L-2659 11 L-2559 11 L-2543 11 L-2524 11 L-2504 11 L-2484 11 L-2465 10 L-2447 10 L-2427 10 L-2407 10 L-2369 10 L-2348 10 L-2291 10 L-2272 10 L-2253 11 L-2233 11 L-2215 11 L-2195 11 L-2174 11 L-2117 11 L-2096 11 L-2060 11 L-2040 11 L-1983 11 L-1963 11 L-1924 11 L-1905 11 L-1878 11 L-1829 11 L-1789 11 L-1730 11 L-1710 11 L-1691 11 L-1653 11 L-1614 11 L-1575 11 L-1498 11 L-1479 11 L-1460 11 L-1363 11 L-1344 11 L-1266 11 L-1209 11 L-1150 11 L-1111 11 L-1092 11 L-1073 11 L-1054 11 L-928 11 L-846 11 L-832 11 L-817 11 L-780 11 L-743 11 L-723 11 L-700 11 L-685 11 L-666 11 L-608 11 L-588 10 L-569 10 L-548 10 L-531 10 L-512 9 L-491 9 L-465 9 L-449 9 L-431 9 L-415 9 L-394 9 L-376 9 L-356 9 L-315 9 L-279 9 L-260 9 L-237 9 L-203 9 L-163 9 L-144 9 L-105 9 L-86 9 L-67 9 L-48 9 L-22 9 L0 9 L52 8 L78 8 L94 8 L110 8 L126 8 L147 8 L165 8 L185 8 L261 8 L281 8 L303 8 L320 8 L339 8 L379 8 L415 8 L437 8 L462 8 L479 8 L497 8 L534 8 L552 8 L572 8 L590 8 L612 8 L629 8 L649 8 L668 8 L691 8 L745 8 L765 8 L784 8 L842 7 L906 7 L928 7 L1007 7 L1039 7 L1075 7 L1093 7 L1113 7 L1156 7 L1171 7 L1210 7 L1231 7 L1248 7 L1268 7 L1308 7 L1325 7 L1344 7 L1365 7 L1391 7 L1408 7 L1426 7 L1463 7 L1500 6 L1519 6 L1541 6 L1577 6 L1620 6 L1674 6 L1712 6 L1731 6 L1751 6 L1771 6 L1834 6 L1909 6 L1952 6 L1968 6 L1983 6 L2022 6 L2042 6 L2085 6 L2099 6 L2118 6 L2138 6 L2160 6 L2177 6 L2196 6 L2237 6 L2273 6 L2294 6 L2319 6 L2336 6 L2354 5 L2370 5 L2392 997 L2422 996 L2448 996 L2470 996 L2486 5 L2506 5 L2525 5 L2563 5 L2582 5 L2602 5 L2622 5 L2679 5 L2699 5 L2718 5 L2763 5 L2785 5 L2813 5 L2838 5 L2865 5 L2896 4 L2933 4 L2950 4 L2970 4 L3047 4 L3067 4 L3088 4 L3105 4 L3125 4 L3222 4 L3248 4 L3264 4 L3282 4 L3299 4 L3337 4 L3357 4 L3398 4 L3434 4 L3454 4 L3476 4 L3492 4 L3531 4 L3588 4 L3628 4 L3714 4 L3741 4 L3764 4 L3806 4 L3879 4 L3898 4 L3956 4 L3975 4 L3995 4 L4016 4 L4052 4 L4092 4 L4111 4 L4151 4 L4176 4 L4227 4 L4266 4 L4325 4 L4343 3 L4362 3 L4403 3 L4478 3 L4498 3 L4516 3 L4575 3 L4594 3 L4620 3 L4642 3 L4709 3 L4739 3 L4753 3 L4789 3 L4827 3 L4868 3 L4903 3 L4924 3 L4944 3 L4962 3 L4981 3 L5001 3 L5021 3 L5039 3 L5119 3 L5175 3 L5194 3 L5213 3 L5254 3 L5272 3 L5332 3 L5368 3 L5388 3 L5426 3 L5465 3 L5484 2 L5522 2 L5638 2 L5670 2 L5685 2 L5719 2 L5736 2 L5756 2 L5800 2 L5833 2 L5891 2 L5912 2 L5951 2 L6008 2 L6034 2 L6051 2 L6084 2 L6106 2 L6124 2 L6143 2 L6200 2 L6220 2 L6262 2 L6278 2 L6317 2 L6336 2 L6355 2 L6394 2 L6414 2 L6432 2 L6451 2 L6500 1" />
</svg>
