<svg xmlns="http://www.w3.org/2000/svg" version="1.1" viewBox="0 0 6500 1000">
	<path fill="none" stroke="gold" stroke-width="125" stroke-linecap="round" stroke-linejoin="round" d="M0 31840  L-165506 31840 L-165322 31797 L-164832 31710 L-164538 31666 L-164227 31580 L-163992 31536 L-163939 31449 L-163880 31362 L-163727 31319 L-163686 31232 L-163554 31188 L-163261 31145 L-162720 31145 L-162110 31101 L-162062 31101 L-161422 31058 L-161389 31058 L-160863 31058 L-160731 31014 L-160340 30927 L-160012 30840 L-159895 30753 L-159684 30666 L-158967 30666 L-158397 30623 L-158290 30623 L-158115 30580 L-157894 30493 L-157492 30449 L-157467 30362 L-156539 30275 L-156451 30188 L-156369 30101 L-156299 30014 L-156002 29971 L-155850 29884 L-153959 29927 L-153859 29927 L-153596 29927 L-153303 29971 L-153161 29884 L-152912 29884 L-152877 29840 L-152718 29797 L-152255 29710 L-152002 29666 L-151790 29580 L-151538 29536 L-151189 29493 L-150262 29406 L-150168 29319 L-149758 29275 L-148587 29188 L-147398 29145 L-147305 29058 L-147278 28971 L-147012 28884 L-146713 28797 L-146584 28710 L-146547 28623 L-145732 28623 L-145348 28666 L-144288 28710 L-144227 28710 L-143961 29580 L-143490 30406 L-143298 31232 L-143034 32058 L-142697 32014 L-142562 31971 L-142106 31927 L-141363 31884 L-141345 31840 L-141180 31753 L-141112 31753 L-140596 31710 L-139567 31710 L-139371 31666 L-138882 31623 L-138520 31580 L-138112 31580 L-137726 31623 L-136023 31623 L-135925 31623 L-135853 31623 L-135791 31623 L-135607 31580 L-135271 31580 L-134630 31536 L-134553 31493 L-134492 31493 L-134305 31449 L-134226 31449 L-134049 31406 L-134029 31362 L-133799 31362 L-133412 31319 L-132523 31319 L-132484 31275 L-132395 31232 L-132368 31145 L-131360 31101 L-131210 31014 L-131186 30971 L-131053 30927 L-131013 30884 L-129755 30840 L-129697 30840 L-129157 30797 L-129105 30797 L-129058 30797 L-128663 30753 L-128524 30710 L-128324 30666 L-128177 30666 L-128012 30666 L-127736 30710 L-127377 30710 L-126824 30666 L-126180 30623 L-125921 30536 L-125767 30493 L-125366 30449 L-125326 30406 L-125205 30362 L-125144 30406 L-125130 30406 L-125036 30406 L-124743 30362 L-124591 30188 L-124261 30101 L-124183 30014 L-124107 29971 L-123881 29840 L-123814 29753 L-123586 29666 L-123534 29580 L-123369 29536 L-122363 29493 L-122180 29449 L-121629 29406 L-121236 29319 L-120839 29275 L-119989 29188 L-119910 29145 L-119331 29101 L-118890 29101 L-118649 29058 L-118492 29058 L-118091 28971 L-118070 28971 L-117626 28927 L-117220 28884 L-117084 28797 L-116909 28710 L-116773 28623 L-116522 28536 L-115523 28493 L-115440 28449 L-115305 28406 L-115266 28362 L-114376 28319 L-114161 28275 L-113717 28232 L-113600 28188 L-113543 28145 L-112867 28145 L-112767 28101 L-112738 28101 L-111396 28058 L-110990 28014 L-110951 27971 L-110023 27927 L-109924 27884 L-109791 27840 L-109387 27797 L-109361 27753 L-109268 27710 L-109052 27666 L-108641 27580 L-107487 27493 L-107195 27406 L-107167 27319 L-106559 27275 L-106309 27188 L-106289 27145 L-105359 27101 L-105308 27014 L-105186 26971 L-105168 26884 L-105012 26840 L-104837 26753 L-104700 26710 L-104644 26666 L-104536 26623 L-104451 26580 L-104218 26536 L-104143 26493 L-103834 26449 L-103716 26406 L-103547 26362 L-103455 26319 L-103353 26319 L-103329 26275 L-103252 26275 L-103154 26188 L-102788 26145 L-102683 26101 L-102179 26058 L-101728 26014 L-101689 25971 L-101665 25927 L-101625 25884 L-101496 25840 L-101395 25797 L-100954 25753 L-100671 25710 L-100079 25666 L-99949 25623 L-99674 25536 L-99522 25493 L-99368 25449 L-99283 25362 L-99205 25319 L-99019 25275 L-98969 25275 L-98941 25232 L-98862 25188 L-98839 25145 L-98555 25058 L-97951 24971 L-96956 24927 L-96658 24884 L-95924 24840 L-95680 24797 L-95590 24753 L-95012 24710 L-94314 24666 L-93562 24623 L-93243 24580 L-92860 24493 L-92783 24449 L-92149 24406 L-91963 24362 L-91876 24362 L-91746 24362 L-91433 24319 L-91384 24275 L-91242 24232 L-91220 24188 L-90253 24145 L-89707 24101 L-89229 24101 L-89168 24101 L-88844 24101 L-88823 24058 L-88760 24058 L-88550 24014 L-88473 23971 L-88419 23927 L-88396 23884 L-88357 23840 L-88341 23797 L-87584 23753 L-87568 23710 L-86768 23666 L-86616 23623 L-85710 23580 L-85204 23536 L-84975 23449 L-84934 23449 L-84818 23406 L-84642 23362 L-83888 23406 L-83753 23362 L-83589 23319 L-83271 23275 L-83094 23188 L-82072 23101 L-82049 23014 L-81798 22971 L-81585 22884 L-80951 22840 L-80713 22753 L-80680 22666 L-80502 22580 L-80422 22493 L-80332 22449 L-80268 22362 L-79828 22275 L-79804 22232 L-79263 22188 L-79007 22145 L-78513 22101 L-77635 22058 L-77599 22014 L-77546 21971 L-77505 21927 L-77388 21884 L-77111 21840 L-76904 21753 L-76707 21666 L-76684 21580 L-76633 21493 L-76594 21449 L-76516 21406 L-75919 21319 L-75858 21275 L-75755 21232 L-75601 21188 L-74969 21145 L-74288 21101 L-73985 21014 L-73639 20971 L-73441 20927 L-73393 20840 L-73072 20797 L-72445 20753 L-72298 20710 L-72262 20666 L-72204 20623 L-72127 20536 L-71886 20536 L-71798 20493 L-71704 20449 L-71410 20406 L-71276 20362 L-71216 20319 L-71179 20232 L-70906 20232 L-69900 20188 L-69725 20145 L-69674 20145 L-69381 20101 L-69189 20014 L-68856 19971 L-68349 19927 L-67787 19840 L-67772 19753 L-67756 19710 L-67655 19623 L-67541 19536 L-67502 19449 L-67464 19406 L-67398 19406 L-67370 19362 L-67231 19406 L-66939 19406 L-66888 19406 L-66783 19406 L-66519 19362 L-66054 19319 L-65909 19319 L-65855 19232 L-65798 19188 L-65607 19145 L-65241 19101 L-65027 19101 L-64832 19101 L-64774 19101 L-64715 19014 L-64561 18971 L-64292 18927 L-63862 19145 L-63847 19145 L-63770 19101 L-63705 19058 L-63576 18753 L-63552 18710 L-63268 18666 L-63221 18623 L-63166 18580 L-62704 18536 L-62665 18536 L-62624 18493 L-62434 18449 L-61953 18406 L-61466 18362 L-61450 18319 L-61412 18275 L-61155 18232 L-61078 18145 L-60848 18101 L-60832 18014 L-60538 17927 L-60095 17884 L-59648 17840 L-59144 17797 L-58990 17753 L-58704 17710 L-58663 17623 L-58332 17580 L-58110 17536 L-57593 17449 L-57518 17406 L-57270 17319 L-57075 17232 L-57016 17188 L-56239 17145 L-56165 17145 L-55934 17101 L-55918 17101 L-55856 17058 L-55660 17014 L-55196 17014 L-55173 16971 L-55043 16971 L-53742 16971 L-53726 16971 L-53649 16927 L-53555 16927 L-53338 16927 L-53186 16884 L-53007 16927 L-52953 16971 L-52666 17014 L-52627 17014 L-52257 17014 L-51817 17014 L-51634 17014 L-51313 16971 L-51018 16971 L-50572 16884 L-50500 16840 L-50037 16753 L-49600 16710 L-49418 16666 L-47963 16580 L-47832 16536 L-47374 16449 L-47148 16406 L-46762 16319 L-46245 16232 L-45291 16145 L-44497 16058 L-43823 16014 L-43397 15927 L-43086 15884 L-42856 15753 L-42173 15623 L-42160 15493 L-41950 15319 L-41928 15275 L-41753 15188 L-40803 15145 L-40535 15058 L-39720 15014 L-39409 14927 L-39372 14884 L-39315 14797 L-38698 14753 L-38060 14666 L-36434 14623 L-35760 14580 L-35118 14580 L-35040 14580 L-34984 14580 L-34948 14580 L-34920 14536 L-34808 14449 L-34790 14406 L-34767 14362 L-34614 14319 L-34560 14232 L-34482 14188 L-34363 14145 L-34266 14101 L-34148 14058 L-33879 13971 L-33609 13927 L-33592 13840 L-33392 13797 L-33245 13710 L-33018 13666 L-32884 13623 L-32575 13580 L-32515 13536 L-32162 13449 L-31813 13406 L-31713 13362 L-31648 13275 L-31588 13232 L-31204 13145 L-30823 13101 L-30719 13058 L-30458 13014 L-30187 12927 L-30028 12884 L-29996 12840 L-29934 12797 L-29792 12753 L-29608 12710 L-29564 12666 L-29276 12666 L-29260 12623 L-29027 12623 L-28966 12580 L-28927 12580 L-28348 12536 L-28214 12493 L-28191 12319 L-28172 12014 L-28155 11666 L-28139 11319 L-28115 10971 L-28098 10710 L-28077 10406 L-28060 10101 L-28037 9927 L-28020 9753 L-27999 9623 L-27982 9536 L-27933 9406 L-27861 9275 L-27826 9058 L-27802 8884 L-27767 8710 L-27725 8536 L-27688 8449 L-27673 8275 L-27648 8145 L-27611 8058 L-27594 7927 L-27571 7840 L-27554 7753 L-27535 7666 L-27519 7580 L-27490 7449 L-27464 7319 L-27418 7275 L-27402 7188 L-27360 7145 L-27312 7058 L-27241 6971 L-27226 6884 L-27210 6797 L-27148 6753 L-27109 6710 L-27069 6666 L-26903 6623 L-26838 6580 L-26822 6536 L-26778 6449 L-26720 6406 L-26507 6362 L-26474 6319 L-26431 6275 L-26353 6232 L-25816 6188 L-25738 6145 L-25633 6058 L-25545 6014 L-25368 5971 L-25018 5927 L-24862 5884 L-24424 5840 L-24267 5797 L-24138 5753 L-23434 5666 L-23233 5623 L-22272 5536 L-21790 5493 L-21691 5493 L-21598 5449 L-21353 5406 L-21280 5362 L-20837 5275 L-20741 5232 L-20726 5188 L-20710 5145 L-20685 5101 L-20219 5058 L-20002 5014 L-19863 4971 L-19569 4927 L-19480 4884 L-19439 4840 L-19409 4797 L-19237 4753 L-19178 4710 L-19102 4666 L-19021 4623 L-18951 4623 L-18642 4580 L-18557 4536 L-18343 4493 L-18308 4449 L-17625 4406 L-17526 4362 L-17321 4319 L-17274 4275 L-16996 4232 L-16934 4188 L-16917 4101 L-16839 4058 L-16530 3971 L-16506 3927 L-16452 3840 L-16429 3797 L-16307 3753 L-16171 3666 L-15927 3623 L-15801 3623 L-15155 3580 L-15139 3580 L-15114 3580 L-14933 3493 L-14857 3449 L-14766 3406 L-14338 3362 L-13922 3319 L-13529 3232 L-13450 3188 L-13431 3145 L-13068 3101 L-12832 3058 L-12603 3014 L-12290 2971 L-12212 2927 L-12132 2840 L-11954 2753 L-11938 2710 L-11673 2623 L-11592 2580 L-11362 2536 L-11136 2493 L-10821 2493 L-10645 2449 L-10284 2449 L-9893 2406 L-9823 2319 L-9759 2275 L-9619 2188 L-9567 2145 L-9466 2058 L-8964 2014 L-8766 1971 L-8520 1927 L-8334 1884 L-8035 1840 L-7959 1797 L-7793 1710 L-6908 1666 L-6880 1580 L-6757 1493 L-6178 1449 L-6100 1406 L-5387 1406 L-5075 1406 L-4862 1406 L-4845 1406 L-4458 1406 L-3933 1319 L-3487 1275 L-3157 1232 L-3005 1188 L-2679 1188 L-2500 1145 L-2419 1145 L-2213 1058 L-2037 1014 L-1108 971 L-219 927 L-180 884 L47 884 L426 840 L1214 797 L1448 753 L1524 710 L1882 666 L2453 580 L2720 536 L3107 493 L3210 493 L3380 493 L3999 493 L4210 493 L4518 493 L4571 449 L4699 406 L4752 362 L4871 319 L5207 232 L6166 188 L6298 101 L6500 58" />
</svg>
