<svg xmlns="http://www.w3.org/2000/svg" version="1.1" viewBox="0 0 6500 1000">
	<path fill="none" stroke="gold" stroke-width="125" stroke-linecap="round" stroke-linejoin="round" d="M0 65  L-35980 65 L-35568 62 L-35343 63 L-35286 62 L-35248 60 L-35064 58 L-34574 55 L-34280 54 L-33969 53 L-33735 50 L-33681 48 L-33622 46 L-33469 45 L-33428 43 L-33296 42 L-33003 43 L-32462 42 L-31852 40 L-31804 42 L-31164 40 L-31131 41 L-30605 39 L-30473 37 L-30082 33 L-29754 30 L-29637 28 L-29426 30 L-28709 29 L-28139 28 L-28032 27 L-27857 24 L-27636 22 L-27234 21 L-27209 18 L-26281 16 L-26193 14 L-26111 11 L-26041 9 L-25744 8 L-25592 7 L-23701 14 L-23601 10 L-23338 8 L-23045 10 L-22903 8 L-22654 7 L-22619 5 L-22460 3 L-21997 2 L-21744 0 L-21532 -1 L-21280 -2 L-20931 -4 L-20004 -7 L-19910 -9 L-19500 -10 L-18329 -11 L-17140 -14 L-17048 -16 L-17020 -18 L-16754 -22 L-16455 -24 L-16326 -26 L-16289 -28 L-15474 -20 L-15090 -21 L-14030 -23 L-13969 -24 L-13703 71 L-13232 69 L-13040 67 L-12776 66 L-12439 65 L-12304 66 L-11848 62 L-11105 61 L-11087 59 L-10922 58 L-10854 60 L-10338 59 L-9309 56 L-9113 54 L-8624 55 L-8262 54 L-7854 56 L-7468 58 L-5765 56 L-5667 55 L-5595 56 L-5533 55 L-5349 54 L-5013 53 L-4372 50 L-4295 53 L-4234 52 L-4047 50 L-3968 49 L-3791 48 L-3771 49 L-3541 48 L-3154 47 L-2265 46 L-2226 45 L-2137 42 L-2110 41 L-1102 39 L-952 37 L-928 36 L-795 35 L-755 34 L502 33 L560 35 L1100 34 L1152 33 L1199 31 L1594 30 L1733 29 L1933 28 L2080 33 L2245 31 L2521 30 L2880 29 L3433 28 L4077 26 L4336 24 L4490 23 L4891 22 L4931 21 L5034 998 L5052 21 L5113 29 L5127 21 L5221 18 L5514 16 L5666 14 L5996 11 L6074 9 L6150 8 L6376 1 L6443 2" />
</svg>
