<svg xmlns="http://www.w3.org/2000/svg" version="1.1" viewBox="0 0 6500 1000">
	<path fill="none" stroke="gold" stroke-width="125" stroke-linecap="round" stroke-linejoin="round" d="M0 82511  L-1286628 82511 L-1286444 82486 L-1285953 82437 L-1285660 82413 L-1285348 82364 L-1285114 82340 L-1285061 82291 L-1285001 82242 L-1284848 82218 L-1284808 82169 L-1284675 82145 L-1284383 82120 L-1283842 82120 L-1283232 82096 L-1283184 82096 L-1282544 82071 L-1282510 82071 L-1281985 82071 L-1281852 82047 L-1281462 81998 L-1281134 81949 L-1281017 81900 L-1280805 81852 L-1280088 81852 L-1279519 81827 L-1279411 81827 L-1279237 81803 L-1279015 81754 L-1278614 81729 L-1278588 81681 L-1277660 81632 L-1277573 81583 L-1277490 81534 L-1277420 81485 L-1277123 81461 L-1276971 81412 L-1275081 81437 L-1274980 81437 L-1274718 81437 L-1274424 81461 L-1274283 81412 L-1274034 81412 L-1273998 81388 L-1273840 81363 L-1273376 81314 L-1273123 81290 L-1272911 81241 L-1272660 81217 L-1272311 81192 L-1271384 81144 L-1271290 81095 L-1270879 81070 L-1269708 81021 L-1268519 80997 L-1268427 80948 L-1268400 80899 L-1268134 80851 L-1267835 80802 L-1267706 80753 L-1267668 80704 L-1266854 80704 L-1266470 80729 L-1265409 80753 L-1265348 80753 L-1265083 81241 L-1264612 81705 L-1264419 82169 L-1264156 82633 L-1263819 82608 L-1263683 82584 L-1263228 82560 L-1262484 82535 L-1262467 82511 L-1262302 82462 L-1262233 82462 L-1261717 82437 L-1260689 82437 L-1260492 82413 L-1260004 82389 L-1259642 82364 L-1259233 82364 L-1258848 82389 L-1257144 82389 L-1257046 82389 L-1256974 82389 L-1256913 82389 L-1256729 82364 L-1256392 82364 L-1255752 82340 L-1255675 82315 L-1255613 82315 L-1255427 82291 L-1255347 82291 L-1255170 82267 L-1255151 82242 L-1254921 82242 L-1254533 82218 L-1253644 82218 L-1253605 82193 L-1253517 82169 L-1253489 82120 L-1252481 82096 L-1252332 82047 L-1252307 82022 L-1252175 81998 L-1252135 81974 L-1250876 81949 L-1250819 81949 L-1250279 81925 L-1250226 81925 L-1250180 81925 L-1249785 81900 L-1249645 81876 L-1249445 81852 L-1249299 81852 L-1249134 81852 L-1248857 81876 L-1248498 81876 L-1247946 81852 L-1247301 81827 L-1247042 81778 L-1246889 81754 L-1246488 81729 L-1246447 81705 L-1246327 81681 L-1246265 81705 L-1246251 81705 L-1246157 81705 L-1245864 81681 L-1245713 81583 L-1245382 81534 L-1245305 81485 L-1245229 81461 L-1245002 81388 L-1244936 81339 L-1244708 81290 L-1244656 81241 L-1244491 81217 L-1243485 81192 L-1243302 81168 L-1242751 81144 L-1242358 81095 L-1241960 81070 L-1241110 81021 L-1241032 80997 L-1240453 80973 L-1240012 80973 L-1239771 80948 L-1239613 80948 L-1239213 80899 L-1239192 80899 L-1238747 80875 L-1238342 80851 L-1238206 80802 L-1238031 80753 L-1237894 80704 L-1237644 80655 L-1236644 80631 L-1236562 80606 L-1236426 80582 L-1236388 80558 L-1235498 80533 L-1235282 80509 L-1234839 80484 L-1234722 80460 L-1234665 80436 L-1233989 80436 L-1233888 80411 L-1233859 80411 L-1232518 80387 L-1232112 80362 L-1232072 80338 L-1231144 80313 L-1231046 80289 L-1230913 80265 L-1230509 80240 L-1230483 80216 L-1230390 80191 L-1230173 80167 L-1229762 80118 L-1228608 80069 L-1228317 80020 L-1228288 79972 L-1227680 79947 L-1227430 79898 L-1227410 79874 L-1226481 79850 L-1226430 79801 L-1226307 79776 L-1226290 79728 L-1226134 79703 L-1225959 79654 L-1225822 79630 L-1225765 79605 L-1225658 79581 L-1225572 79557 L-1225339 79532 L-1225264 79508 L-1224956 79483 L-1224838 79459 L-1224668 79435 L-1224577 79410 L-1224474 79410 L-1224451 79386 L-1224374 79386 L-1224276 79337 L-1223909 79312 L-1223804 79288 L-1223301 79264 L-1222849 79239 L-1222811 79215 L-1222787 79190 L-1222746 79166 L-1222617 79142 L-1222517 79117 L-1222075 79093 L-1221793 79068 L-1221200 79044 L-1221070 79020 L-1220796 78971 L-1220643 78946 L-1220490 78922 L-1220405 78873 L-1220327 78849 L-1220141 78824 L-1220090 78824 L-1220063 78800 L-1219983 78775 L-1219960 78751 L-1219677 78702 L-1219073 78653 L-1218077 78629 L-1217780 78604 L-1217046 78580 L-1216801 78556 L-1216711 78531 L-1216134 78507 L-1215436 78482 L-1214683 78458 L-1214365 78434 L-1213982 78385 L-1213905 78360 L-1213270 78336 L-1213085 78312 L-1212997 78312 L-1212868 78312 L-1212555 78287 L-1212505 78263 L-1212363 78238 L-1212342 78214 L-1211374 78189 L-1210829 78165 L-1210350 78165 L-1210289 78165 L-1209966 78165 L-1209944 78141 L-1209882 78141 L-1209672 78116 L-1209595 78092 L-1209540 78067 L-1209518 78043 L-1209478 78019 L-1209463 77994 L-1208706 77970 L-1208689 77945 L-1207890 77921 L-1207737 77896 L-1206832 77872 L-1206326 77848 L-1206096 77799 L-1206055 77799 L-1205940 77774 L-1205763 77750 L-1205009 77774 L-1204874 77750 L-1204710 77726 L-1204392 77701 L-1204216 77652 L-1203194 77604 L-1203171 77555 L-1202919 77530 L-1202706 77481 L-1202072 77457 L-1201835 77408 L-1201802 77359 L-1201624 77311 L-1201544 77262 L-1201454 77237 L-1201389 77188 L-1200949 77140 L-1200926 77115 L-1200385 77091 L-1200129 77066 L-1199634 77042 L-1198757 77018 L-1198720 76993 L-1198667 76969 L-1198626 76944 L-1198509 76920 L-1198233 76895 L-1198025 76847 L-1197828 76798 L-1197805 76749 L-1197755 76700 L-1197716 76676 L-1197638 76651 L-1197040 76603 L-1196980 76578 L-1196877 76554 L-1196722 76529 L-1196090 76505 L-1195410 76480 L-1195107 76432 L-1194760 76407 L-1194563 76383 L-1194514 76334 L-1194194 76310 L-1193566 76285 L-1193420 76261 L-1193383 76236 L-1193326 76212 L-1193249 76163 L-1193008 76163 L-1192919 76139 L-1192825 76114 L-1192532 76090 L-1192397 76065 L-1192337 76041 L-1192300 75992 L-1192028 75992 L-1191022 75968 L-1190846 75943 L-1190796 75943 L-1190503 75919 L-1190311 75870 L-1189977 75846 L-1189471 75821 L-1188909 75772 L-1188894 75724 L-1188877 75699 L-1188777 75650 L-1188662 75602 L-1188623 75553 L-1188585 75528 L-1188520 75528 L-1188492 75504 L-1188353 75528 L-1188060 75528 L-1188010 75528 L-1187905 75528 L-1187640 75504 L-1187175 75479 L-1187031 75479 L-1186976 75431 L-1186919 75406 L-1186728 75382 L-1186363 75357 L-1186148 75357 L-1185954 75357 L-1185896 75357 L-1185837 75309 L-1185683 75284 L-1185413 75260 L-1184984 75382 L-1184968 75382 L-1184891 75357 L-1184827 75333 L-1184697 75162 L-1184674 75138 L-1184390 75113 L-1184342 75089 L-1184288 75064 L-1183825 75040 L-1183786 75040 L-1183746 75016 L-1183555 74991 L-1183075 74967 L-1182588 74942 L-1182571 74918 L-1182533 74894 L-1182277 74869 L-1182200 74820 L-1181970 74796 L-1181954 74747 L-1181659 74698 L-1181217 74674 L-1180770 74649 L-1180265 74625 L-1180112 74601 L-1179825 74576 L-1179785 74527 L-1179454 74503 L-1179232 74479 L-1178715 74430 L-1178639 74405 L-1178391 74356 L-1178197 74308 L-1178137 74283 L-1177361 74259 L-1177287 74259 L-1177056 74234 L-1177039 74234 L-1176977 74210 L-1176782 74186 L-1176318 74186 L-1176294 74161 L-1176165 74161 L-1174864 74161 L-1174847 74161 L-1174770 74137 L-1174677 74137 L-1174459 74137 L-1174307 74112 L-1174129 74137 L-1174075 74161 L-1173788 74186 L-1173748 74186 L-1173379 74186 L-1172938 74186 L-1172755 74186 L-1172434 74161 L-1172139 74161 L-1171693 74112 L-1171621 74088 L-1171159 74039 L-1170721 74015 L-1170539 73990 L-1169085 73941 L-1168953 73917 L-1168496 73868 L-1168270 73844 L-1167883 73795 L-1167367 73746 L-1166413 73697 L-1165619 73648 L-1164944 73624 L-1164519 73575 L-1164207 73551 L-1163977 73478 L-1163294 73404 L-1163281 73331 L-1163071 73233 L-1163049 73209 L-1162875 73160 L-1161925 73136 L-1161657 73087 L-1160841 73062 L-1160531 73014 L-1160493 72989 L-1160436 72940 L-1159819 72916 L-1159181 72867 L-1157555 72843 L-1156881 72818 L-1156239 72818 L-1156162 72818 L-1156105 72818 L-1156070 72818 L-1156041 72794 L-1155930 72745 L-1155912 72721 L-1155889 72696 L-1155736 72672 L-1155682 72623 L-1155604 72599 L-1155485 72574 L-1155387 72550 L-1155270 72525 L-1155000 72477 L-1154730 72452 L-1154713 72403 L-1154513 72379 L-1154366 72330 L-1154140 72306 L-1154005 72281 L-1153697 72257 L-1153637 72232 L-1153284 72184 L-1152935 72159 L-1152834 72135 L-1152770 72086 L-1152710 72062 L-1152325 72013 L-1151945 71988 L-1151840 71964 L-1151580 71939 L-1151309 71891 L-1151150 71866 L-1151117 71842 L-1151055 71817 L-1150914 71793 L-1150730 71769 L-1150686 71744 L-1150397 71744 L-1150381 71720 L-1150148 71720 L-1150087 71695 L-1150049 71695 L-1149469 71671 L-1149335 71646 L-1149312 71549 L-1149294 71378 L-1149276 71183 L-1149260 70987 L-1149236 70792 L-1149220 70645 L-1149198 70475 L-1149182 70304 L-1149159 70206 L-1149142 70108 L-1149120 70035 L-1149103 69986 L-1149055 69913 L-1148982 69840 L-1148948 69718 L-1148924 69620 L-1148888 69522 L-1148847 69425 L-1148810 69376 L-1148794 69278 L-1148770 69205 L-1148733 69156 L-1148716 69083 L-1148693 69034 L-1148675 68985 L-1148657 68937 L-1148641 68888 L-1148611 68814 L-1148585 68741 L-1148540 68717 L-1148523 68668 L-1148482 68644 L-1148433 68595 L-1148363 68546 L-1148347 68497 L-1148331 68448 L-1148269 68424 L-1148230 68399 L-1148191 68375 L-1148025 68351 L-1147960 68326 L-1147944 68302 L-1147900 68253 L-1147841 68229 L-1147628 68204 L-1147595 68180 L-1147553 68155 L-1147475 68131 L-1146937 68106 L-1146859 68082 L-1146755 68033 L-1146666 68009 L-1146490 67984 L-1146139 67960 L-1145984 67936 L-1145546 67911 L-1145389 67887 L-1145259 67862 L-1144555 67813 L-1144354 67789 L-1143394 67740 L-1142911 67716 L-1142812 67716 L-1142720 67691 L-1142475 67667 L-1142402 67643 L-1141959 67594 L-1141863 67569 L-1141848 67545 L-1141832 67520 L-1141807 67496 L-1141341 67472 L-1141124 67447 L-1140984 67423 L-1140690 67398 L-1140602 67374 L-1140560 67350 L-1140531 67325 L-1140358 67301 L-1140299 67276 L-1140223 67252 L-1140142 67228 L-1140073 67228 L-1139764 67203 L-1139678 67179 L-1139465 67154 L-1139429 67130 L-1138746 67105 L-1138647 67081 L-1138442 67057 L-1138396 67032 L-1138117 67008 L-1138055 66983 L-1138038 66935 L-1137960 66910 L-1137652 66861 L-1137628 66837 L-1137574 66788 L-1137551 66764 L-1137428 66739 L-1137293 66690 L-1137048 66666 L-1136923 66666 L-1136276 66642 L-1136260 66642 L-1136235 66642 L-1136055 66593 L-1135979 66568 L-1135887 66544 L-1135459 66520 L-1135043 66495 L-1134650 66446 L-1134572 66422 L-1134553 66397 L-1134189 66373 L-1133953 66349 L-1133725 66324 L-1133412 66300 L-1133334 66275 L-1133253 66227 L-1133075 66178 L-1133059 66153 L-1132794 66104 L-1132714 66080 L-1132484 66056 L-1132258 66031 L-1131942 66031 L-1131767 66007 L-1131406 66007 L-1131014 65982 L-1130945 65934 L-1130881 65909 L-1130740 65860 L-1130689 65836 L-1130587 65787 L-1130085 65763 L-1129888 65738 L-1129641 65714 L-1129456 65689 L-1129156 65665 L-1129080 65641 L-1128914 65592 L-1128030 65567 L-1128001 65519 L-1127878 65470 L-1127299 65445 L-1127222 65421 L-1126508 65421 L-1126196 65421 L-1125983 65421 L-1125966 65421 L-1125580 65421 L-1125055 65372 L-1124609 65348 L-1124279 65323 L-1124126 65299 L-1123800 65299 L-1123622 65274 L-1123540 65274 L-1123334 65226 L-1123159 65201 L-1122230 65177 L-1121340 65152 L-1121301 65128 L-1121073 65128 L-1120694 65104 L-1119907 65079 L-1119672 65055 L-1119596 65030 L-1119239 65006 L-1118667 64957 L-1118400 64933 L-1118014 64908 L-1117910 64908 L-1117740 64908 L-1117122 64908 L-1116910 64908 L-1116603 64908 L-1116550 64884 L-1116422 64859 L-1116369 64835 L-1116250 64811 L-1115913 64762 L-1114954 64737 L-1114823 64688 L-1114621 64664 L-1113990 64640 L-1113678 64615 L-1113265 64591 L-1113237 64566 L-1113092 64542 L-1112672 64518 L-1111339 64518 L-1111292 64493 L-1111164 64444 L-1111147 64420 L-1110569 64371 L-1110363 64347 L-1110334 64322 L-1110293 64298 L-1110235 64273 L-1110198 64249 L-1110120 64225 L-1109977 64200 L-1109522 64176 L-1109404 64151 L-1109119 64127 L-1108746 64103 L-1108650 64078 L-1108323 64054 L-1107969 64029 L-1107799 64005 L-1107751 63980 L-1107642 63956 L-1107553 63932 L-1107525 63907 L-1107449 63858 L-1107146 63834 L-1107112 63785 L-1107040 63761 L-1106672 63736 L-1106337 63712 L-1106256 63712 L-1106036 63687 L-1105865 63663 L-1105837 63639 L-1105340 63614 L-1104791 63565 L-1103910 63541 L-1103812 63492 L-1103735 63468 L-1103460 63443 L-1103213 63395 L-1103139 63370 L-1103077 63321 L-1102959 63297 L-1102916 63272 L-1102806 63248 L-1102729 63199 L-1102029 63175 L-1101783 63150 L-1101744 63126 L-1101587 63102 L-1100988 63102 L-1100761 63102 L-1100669 63102 L-1100194 63102 L-1099596 63053 L-1099077 63028 L-1099056 63004 L-1098910 62979 L-1098590 62979 L-1098048 62979 L-1097816 62979 L-1097646 62979 L-1097160 62955 L-1096932 62931 L-1096847 62906 L-1096501 62882 L-1096175 62882 L-1095652 62857 L-1095324 62833 L-1094724 62809 L-1094526 62760 L-1094474 62735 L-1094434 62711 L-1094153 62687 L-1093468 62638 L-1093158 62613 L-1093133 62564 L-1092942 62540 L-1092719 62516 L-1092633 62491 L-1091969 62442 L-1091945 62418 L-1091723 62369 L-1091393 62345 L-1091041 62296 L-1090837 62271 L-1090604 62223 L-1090346 62198 L-1090157 62149 L-1090109 62125 L-1089882 62101 L-1089848 62076 L-1089691 62052 L-1089477 62027 L-1089304 62003 L-1089212 61979 L-1088935 61954 L-1088691 61930 L-1088376 61905 L-1087950 61905 L-1087913 61905 L-1087429 61905 L-1087196 61905 L-1086984 61881 L-1086758 61856 L-1086208 61856 L-1085961 61832 L-1085127 61832 L-1085071 61808 L-1085049 61783 L-1084891 61759 L-1084430 61734 L-1084389 61710 L-1084049 61661 L-1083916 61637 L-1083693 61612 L-1083121 61588 L-1082649 61563 L-1082454 61539 L-1082262 61515 L-1082072 61490 L-1081970 61466 L-1081602 61441 L-1081556 61417 L-1081474 61393 L-1080181 61368 L-1080133 61344 L-1079864 61344 L-1079719 61344 L-1079168 61344 L-1079051 61319 L-1078970 61295 L-1078610 61270 L-1078387 61246 L-1078106 61222 L-1077776 61173 L-1077268 61148 L-1077156 61124 L-1077077 61100 L-1076913 61075 L-1076618 61075 L-1076150 61075 L-1075953 61100 L-1075903 61100 L-1075253 61075 L-1075131 61051 L-1074677 61051 L-1074641 61026 L-1074173 61002 L-1074062 60978 L-1074046 60953 L-1073830 60953 L-1073649 60929 L-1073117 60929 L-1072088 60929 L-1071888 60904 L-1071430 60880 L-1070482 60831 L-1070383 60807 L-1070029 60758 L-1069968 60733 L-1069954 60709 L-1069918 60685 L-1069549 60660 L-1069429 60636 L-1069187 60611 L-1069023 60587 L-1068836 60562 L-1068715 60538 L-1067645 60489 L-1066786 60465 L-1066574 60416 L-1066477 60392 L-1066303 60343 L-1065969 60318 L-1065898 60294 L-1065840 60270 L-1065665 60270 L-1065276 60245 L-1065040 60221 L-1064929 60196 L-1064812 60172 L-1063831 60147 L-1063806 60123 L-1063212 60074 L-1063179 60074 L-1063030 60050 L-1062746 60025 L-1061834 60025 L-1060888 60025 L-1060735 60001 L-1060633 60001 L-1060501 59977 L-1060358 59952 L-1060332 59928 L-1060217 59903 L-1059999 59879 L-1059318 59854 L-1059188 59830 L-1058885 59806 L-1058645 59757 L-1058312 59732 L-1057674 59708 L-1057331 59659 L-1057269 59635 L-1057114 59635 L-1056192 59635 L-1055722 59635 L-1055678 59635 L-1055665 59610 L-1055624 59586 L-1055602 59562 L-1055575 59537 L-1055431 59513 L-1055009 59488 L-1054673 59488 L-1054482 59464 L-1054054 59464 L-1053866 59439 L-1053477 59391 L-1052943 59366 L-1052570 59342 L-1052549 59342 L-1052299 59317 L-1052180 59293 L-1052104 59269 L-1051969 59244 L-1051929 59220 L-1051849 59195 L-1051455 59171 L-1050959 59146 L-1050847 59098 L-1050674 59073 L-1050366 59049 L-1049918 59024 L-1049595 59000 L-1049453 58951 L-1049026 58902 L-1048873 58854 L-1048817 58805 L-1048004 58780 L-1047984 58756 L-1047612 58731 L-1047555 58731 L-1046426 58707 L-1046358 58707 L-1045800 58683 L-1045605 58658 L-1045469 58634 L-1045235 58609 L-1044888 58585 L-1044854 58536 L-1044819 58512 L-1044750 58463 L-1044401 58438 L-1044229 58414 L-1043744 58390 L-1043728 58365 L-1043403 58341 L-1043245 58316 L-1042105 58268 L-1042080 58243 L-1041888 58194 L-1041695 58170 L-1041444 58145 L-1041427 58121 L-1040407 58097 L-1040109 58072 L-1040034 58048 L-1039898 57999 L-1039722 57975 L-1039145 57926 L-1038930 57901 L-1038866 57877 L-1038735 57853 L-1038698 57804 L-1038175 57779 L-1038037 67398 L-1038023 67398 L-1038000 67398 L-1037980 67398 L-1037752 57755 L-1036977 57755 L-1036935 57755 L-1036567 57755 L-1036489 57730 L-1036437 57706 L-1035764 57682 L-1035021 57657 L-1034597 57657 L-1034149 57633 L-1033087 57608 L-1032776 57560 L-1032365 57560 L-1032293 57535 L-1031769 57535 L-1031675 57535 L-1031657 57535 L-1031212 57511 L-1031027 57462 L-1030246 57413 L-1029574 57389 L-1029162 57315 L-1028930 57267 L-1028789 57242 L-1028708 57193 L-1028688 57169 L-1028612 57169 L-1028483 57145 L-1028166 57169 L-1027942 57169 L-1027617 57145 L-1027555 57145 L-1027185 57145 L-1027152 57145 L-1026943 57145 L-1026276 57145 L-1026198 57145 L-1026040 57096 L-1025930 57096 L-1025603 57071 L-1025448 57047 L-1025107 57047 L-1025050 56998 L-1024712 56949 L-1024508 56925 L-1024455 56876 L-1023079 56852 L-1022949 56827 L-1022516 56803 L-1022195 56778 L-1021368 56729 L-1021244 56705 L-1020514 56656 L-1020358 56607 L-1020317 56583 L-1020263 56559 L-1020240 56534 L-1020126 56510 L-1019830 56485 L-1019540 56461 L-1019485 56437 L-1019365 56412 L-1019335 56388 L-1019235 56363 L-1018791 56363 L-1018639 56339 L-1017804 56339 L-1017262 56314 L-1016927 56314 L-1016912 56290 L-1016836 56266 L-1016720 56241 L-1016525 56217 L-1016261 56192 L-1015426 56168 L-1015330 56144 L-1014809 56119 L-1014767 56095 L-1014668 56070 L-1013839 56070 L-1013704 56046 L-1013366 56046 L-1012811 56021 L-1012432 55997 L-1012269 55973 L-1011959 55948 L-1011146 55924 L-1010840 55899 L-1010572 55899 L-1010250 55899 L-1009929 55924 L-1009654 55924 L-1008825 55875 L-1008730 55851 L-1008638 55777 L-1008533 55704 L-1008146 55631 L-1007666 55582 L-1007650 55558 L-1007531 55533 L-1007163 55484 L-1007068 55460 L-1006234 55411 L-1006157 55387 L-1005858 55362 L-1005767 55338 L-1005360 55289 L-1005250 55240 L-1004550 55216 L-1004077 55191 L-1004017 55167 L-1003798 55118 L-1003525 55094 L-1003412 55069 L-1002384 55045 L-1001998 55020 L-1001978 54996 L-1001645 54972 L-1001400 54947 L-1000967 54923 L-1000857 54898 L-1000739 54874 L-1000288 54825 L-999697 54801 L-999361 54776 L-997468 54752 L-997354 54703 L-997142 54679 L-995824 54654 L-995718 49161 L-995652 43741 L-995615 38736 L-995554 38736 L-995054 44181 L-994379 49552 L-994357 54508 L-994087 54459 L-993118 54459 L-992429 54435 L-992267 54410 L-991726 54386 L-991637 54361 L-990617 54337 L-989670 54288 L-989304 54312 L-989201 54337 L-988613 54337 L-988554 54337 L-988453 54312 L-988013 54264 L-987905 54239 L-987464 54215 L-986464 54142 L-986208 54068 L-986105 53995 L-985974 53946 L-985608 53897 L-985027 53849 L-984996 53824 L-984681 53800 L-982698 53775 L-982582 53751 L-982514 53751 L-982156 53727 L-980537 53702 L-980359 53702 L-980215 53702 L-979393 53727 L-979340 53751 L-979285 53751 L-978851 53751 L-977871 53775 L-977797 53775 L-976712 53751 L-976499 53751 L-975783 53702 L-975395 53678 L-975176 53629 L-974856 53580 L-974362 53531 L-974235 53507 L-974006 53458 L-973774 53409 L-973714 53385 L-973425 53360 L-973153 53312 L-972123 53287 L-970458 53263 L-970039 53238 L-969901 53214 L-969745 53214 L-969440 53189 L-969212 53141 L-969053 53116 L-968894 53067 L-968725 53019 L-968677 52994 L-968624 52970 L-968602 52970 L-968216 52945 L-967967 52945 L-967696 52945 L-967535 52945 L-967446 52945 L-965787 52945 L-965622 52970 L-965242 52945 L-964782 52945 L-964172 52896 L-963079 52872 L-962648 52848 L-962617 52823 L-962554 52799 L-962537 52774 L-960833 52750 L-960791 52726 L-960325 52701 L-960138 52677 L-960106 52628 L-959510 52604 L-959461 52579 L-959138 52555 L-959087 52530 L-958877 52506 L-958859 52481 L-958593 52433 L-958540 52408 L-958071 52384 L-957560 52335 L-957482 52335 L-957188 52311 L-957171 52286 L-957133 52262 L-957062 52237 L-956904 52213 L-955958 52213 L-955902 52213 L-955381 52213 L-955188 52188 L-955088 52188 L-954862 52164 L-954352 52164 L-953964 52823 L-953894 52823 L-953546 52799 L-953189 52774 L-952060 52066 L-952009 52018 L-951782 51993 L-951749 51969 L-951624 51920 L-951525 51920 L-951260 51920 L-950520 51944 L-949941 51944 L-949648 51944 L-948942 51944 L-948763 51920 L-948740 51920 L-948104 51895 L-947793 51871 L-947396 51871 L-947367 51847 L-947346 51822 L-947192 51798 L-946507 51798 L-946490 51798 L-946151 51798 L-945878 51773 L-945841 51749 L-945785 51700 L-945763 51676 L-945691 51651 L-945359 51627 L-945253 51603 L-945224 51554 L-945026 51529 L-944873 51505 L-944005 51480 L-943442 51432 L-943426 51432 L-943325 51407 L-943223 51432 L-943076 51432 L-942998 51432 L-942960 51407 L-942905 51383 L-942832 51358 L-942687 51334 L-942205 51334 L-941800 51310 L-940934 51334 L-940914 51334 L-940656 51334 L-940580 51334 L-940551 51310 L-940540 51261 L-940523 51236 L-940230 51212 L-940191 51187 L-940119 51163 L-940045 51139 L-939840 51114 L-939680 51041 L-939379 50968 L-939302 50870 L-939284 50797 L-939068 50748 L-938837 50748 L-938727 50772 L-938357 50797 L-938199 50797 L-937967 50797 L-937799 50797 L-937654 50772 L-937522 50748 L-936246 50699 L-935843 50650 L-935782 50626 L-935665 50577 L-935240 50553 L-935224 50504 L-935162 50479 L-934889 50431 L-934777 50406 L-934494 50357 L-934217 50333 L-933792 50284 L-933770 50260 L-933692 50235 L-933566 50211 L-932979 50187 L-932588 50162 L-932253 50138 L-931663 50113 L-931561 50113 L-931391 50089 L-931255 50089 L-930427 50064 L-929242 50040 L-929205 50016 L-929150 50016 L-928929 49991 L-928724 49991 L-928570 49991 L-928313 49967 L-928237 49942 L-927694 49918 L-927657 49894 L-927409 49869 L-927021 49845 L-926196 49820 L-925837 49796 L-925527 49796 L-925269 49771 L-925045 49747 L-924639 49723 L-924523 49698 L-924339 49674 L-924286 49674 L-924098 49649 L-923927 49625 L-923898 49601 L-923618 49576 L-923307 49552 L-923169 49527 L-922859 49503 L-922665 49503 L-922650 49479 L-921931 49479 L-921797 49430 L-921499 49405 L-921409 49381 L-920808 49381 L-920770 49356 L-920692 49332 L-920071 49308 L-919920 49259 L-919879 49234 L-919568 49210 L-919377 49186 L-919184 49137 L-919128 49088 L-918819 49063 L-918767 49039 L-918713 49063 L-918687 49063 L-918562 49063 L-917751 49039 L-917675 49015 L-917134 48990 L-916865 48966 L-916206 48941 L-915298 48917 L-915057 48893 L-914525 48868 L-914308 48844 L-913200 48868 L-913150 48868 L-912374 48868 L-911827 48844 L-911715 48819 L-911563 48770 L-911507 48746 L-911342 48722 L-910965 48697 L-910517 48673 L-910463 48648 L-910308 48624 L-909628 48600 L-909408 48575 L-908890 48551 L-908041 48502 L-908025 48478 L-906234 48453 L-905680 48429 L-905563 48404 L-904557 48380 L-904520 48355 L-904288 48355 L-904195 48355 L-904155 48355 L-903823 48331 L-903471 48307 L-903206 48258 L-902919 48233 L-902608 48185 L-902354 48136 L-902261 48111 L-901771 48087 L-901563 48062 L-900998 48038 L-900883 48062 L-900532 48038 L-900481 48038 L-900440 48038 L-899837 47989 L-899103 47940 L-898522 47892 L-898286 47843 L-897746 47770 L-897594 47721 L-897092 47696 L-896883 47647 L-896859 47647 L-896800 47623 L-895838 47623 L-895660 47599 L-895218 47574 L-895194 47525 L-895039 47501 L-894957 47501 L-894807 47525 L-894160 47525 L-894111 47501 L-892991 47477 L-892006 47452 L-891945 47428 L-891224 47403 L-890359 47379 L-889981 47354 L-889762 47354 L-889002 47330 L-888950 47306 L-888641 47257 L-887790 47257 L-887597 47232 L-887420 47208 L-887195 47208 L-887069 47184 L-886877 47184 L-886644 47159 L-886475 47184 L-886188 47159 L-885909 47159 L-885826 47135 L-885655 47110 L-885639 47062 L-885485 47037 L-885445 47013 L-884670 46988 L-884593 46988 L-884361 46939 L-883934 46915 L-883589 46891 L-883006 46866 L-882737 46866 L-882478 46866 L-882349 46817 L-882332 46793 L-882219 46769 L-882195 46744 L-881961 46720 L-881925 46695 L-880609 46695 L-880553 46671 L-879874 46622 L-879301 46622 L-879176 46622 L-879023 46622 L-878946 46622 L-878634 46573 L-878361 46549 L-878272 46500 L-878170 46500 L-877242 46476 L-877166 46476 L-876802 46476 L-876777 46451 L-876741 46427 L-875965 46378 L-875874 46354 L-875734 46329 L-875332 46305 L-875070 46305 L-874827 46329 L-874612 46305 L-874532 46305 L-874456 46305 L-874379 46305 L-874192 46329 L-874126 46329 L-873876 46329 L-873821 46305 L-873684 46280 L-873604 46231 L-873491 46207 L-873268 46183 L-873103 46158 L-873062 46134 L-872893 46109 L-872522 46085 L-872507 46061 L-872391 46036 L-871670 46012 L-871634 45987 L-871501 45987 L-871153 45963 L-870742 45963 L-870706 45963 L-870628 45938 L-870589 45914 L-870225 45890 L-870021 45865 L-870006 45841 L-869660 45816 L-869312 45816 L-868986 45816 L-868884 45792 L-868731 45792 L-868537 45768 L-868305 45768 L-868213 45768 L-868057 45768 L-867980 45768 L-867939 45743 L-867826 45719 L-867802 45694 L-867552 45694 L-867413 45645 L-866835 45572 L-866007 45523 L-865519 45475 L-865398 45450 L-865359 45426 L-865347 45401 L-865194 45353 L-865093 45304 L-864860 45279 L-864470 45230 L-864166 45206 L-864150 45182 L-863979 45157 L-863741 45108 L-863144 45108 L-862541 45084 L-862501 45084 L-862461 45084 L-862307 45060 L-862254 45035 L-862192 45011 L-862124 44986 L-862069 44937 L-862044 44913 L-861997 44889 L-861903 44840 L-861765 44815 L-861612 44791 L-861480 44767 L-861439 44767 L-861403 44742 L-861341 44718 L-861068 44669 L-860754 44645 L-860713 44596 L-860628 44571 L-860450 44547 L-860213 44522 L-859855 44498 L-859826 44474 L-859256 44449 L-859133 44425 L-858897 44400 L-858875 44400 L-858593 44376 L-858308 44376 L-858052 44376 L-857480 44352 L-857184 44327 L-857108 44303 L-856409 44278 L-856331 44254 L-856296 44229 L-856270 44205 L-856218 44156 L-856024 44132 L-855884 44083 L-855848 44059 L-855808 44034 L-855213 44010 L-854980 43985 L-854697 44156 L-854642 44303 L-854568 44474 L-854490 44620 L-854254 44571 L-854010 44547 L-853875 44522 L-853768 44498 L-853688 44474 L-853301 44425 L-853174 44400 L-853022 44376 L-852984 44352 L-852838 44327 L-852617 44303 L-852443 44278 L-852374 44254 L-851552 44205 L-851536 44205 L-851241 44181 L-850454 44156 L-850144 44156 L-849998 44132 L-849770 44107 L-849569 44059 L-848632 44034 L-848595 44010 L-848573 43985 L-848532 43937 L-848263 43912 L-847667 43888 L-847603 43863 L-847567 43839 L-847550 43814 L-846855 43814 L-846654 43814 L-846622 43814 L-846289 43814 L-846181 43790 L-845556 43741 L-845052 43717 L-845015 43668 L-844573 43668 L-844477 43644 L-844318 43644 L-844004 43644 L-843992 43644 L-843552 43668 L-843070 43692 L-842941 43692 L-842621 43692 L-842553 43668 L-842248 43668 L-842073 43644 L-841879 43619 L-841636 43570 L-841439 43521 L-841413 43473 L-840835 43448 L-840765 43424 L-840355 43399 L-840301 43375 L-840255 43351 L-839891 43326 L-839744 43302 L-839539 43277 L-839443 43277 L-839288 43253 L-839226 43229 L-839079 43180 L-838978 43155 L-838421 43155 L-838399 43204 L-838227 43229 L-837685 43253 L-837624 43253 L-837570 43204 L-837542 43155 L-837470 43131 L-837454 43082 L-837390 43058 L-837354 43009 L-837199 42984 L-836874 42960 L-836307 42936 L-836293 42911 L-836231 42862 L-836129 42813 L-836083 42813 L-835841 42789 L-835418 42789 L-835264 42789 L-833522 42740 L-832980 42716 L-832037 42691 L-831628 42667 L-831087 42618 L-830890 42594 L-830722 42569 L-830426 42545 L-830311 42520 L-830296 42520 L-830141 42496 L-830001 42472 L-829925 42423 L-829793 42423 L-829445 42423 L-829074 42447 L-828476 42447 L-828300 42447 L-828144 42423 L-827875 42398 L-827724 42398 L-827433 42472 L-827409 42520 L-827326 42569 L-827098 42618 L-826399 42594 L-826272 42569 L-825841 42545 L-825747 42520 L-824542 42520 L-824493 42496 L-824200 42496 L-823796 42472 L-823520 42423 L-823501 42398 L-823383 42374 L-823307 42350 L-823125 42325 L-822645 42301 L-822194 42252 L-821784 42228 L-821753 42203 L-821335 42179 L-821221 42179 L-821103 42179 L-821088 42179 L-820893 42154 L-820872 42105 L-820640 42081 L-820196 42057 L-819877 42008 L-819412 42008 L-819247 41983 L-819092 41959 L-818936 41959 L-818483 41959 L-818164 41959 L-818109 41983 L-817738 41983 L-817700 42008 L-817373 42008 L-817257 41983 L-817158 41959 L-816832 41910 L-816445 41886 L-816184 41861 L-815826 41812 L-815569 41788 L-813399 41764 L-813350 41739 L-813327 41715 L-812916 41715 L-812854 41715 L-812784 41739 L-812553 41739 L-812242 41715 L-811939 41666 L-811895 41642 L-811587 41617 L-811454 41593 L-811237 41568 L-810525 41544 L-810370 41544 L-810232 41520 L-810083 41520 L-810062 41520 L-809868 41495 L-809842 41471 L-809751 41446 L-809729 41422 L-809713 41397 L-809613 41373 L-808684 41349 L-808226 41349 L-807134 41300 L-806712 41300 L-806308 41275 L-806269 41251 L-806016 41227 L-805241 41178 L-805225 41153 L-805200 41129 L-805007 41104 L-804271 41080 L-804002 41056 L-803961 41031 L-803562 40982 L-803537 40958 L-802748 40934 L-802068 40909 L-800697 40885 L-800427 40860 L-800378 40836 L-799841 40787 L-799808 40763 L-799706 40714 L-799383 40689 L-799303 40665 L-799034 40665 L-798122 40641 L-797983 40641 L-797734 40592 L-797189 40592 L-796766 40567 L-796573 40543 L-796558 40543 L-796420 40494 L-796326 40470 L-796199 40445 L-795939 40421 L-795914 40372 L-795823 40348 L-795513 40323 L-795452 40299 L-795335 40299 L-794986 40299 L-794175 40299 L-793944 40250 L-793115 40250 L-792883 40201 L-792666 40177 L-792147 40177 L-791509 40152 L-791093 40128 L-790771 40104 L-790290 40079 L-789865 40079 L-789803 40055 L-789455 40055 L-789414 40030 L-789400 40006 L-789301 39957 L-789256 39957 L-788770 39933 L-787969 39933 L-787634 39933 L-786553 39908 L-786073 39884 L-786050 39859 L-785910 39835 L-785355 39811 L-784658 39786 L-784349 39762 L-784127 39737 L-784022 39713 L-783920 39664 L-783249 39640 L-783155 39615 L-783132 39615 L-783055 39591 L-782877 39591 L-782705 39591 L-782524 39566 L-782511 39542 L-782435 39518 L-782270 39493 L-781756 39469 L-781740 39444 L-781599 39444 L-781237 39420 L-781213 39420 L-781082 39395 L-781057 39371 L-780695 39347 L-780170 39298 L-780076 39273 L-779860 39225 L-779767 39200 L-779742 39176 L-779278 39151 L-779201 39151 L-778799 39127 L-778348 39127 L-777097 39103 L-777058 39078 L-776626 39054 L-776594 39029 L-775875 39005 L-775698 38980 L-775563 38956 L-775256 38932 L-775201 38907 L-775176 38858 L-775160 38810 L-774985 38785 L-774796 38761 L-774288 38761 L-773914 38565 L-773576 38346 L-773537 38150 L-772818 37979 L-772725 37955 L-772686 37931 L-772145 37931 L-772121 37906 L-771719 37882 L-771293 37857 L-771022 37857 L-770843 37833 L-770597 37784 L-770573 37760 L-770517 37711 L-769900 37687 L-769397 37662 L-769010 37662 L-768391 37687 L-768175 37687 L-768020 37711 L-766728 37662 L-766628 37638 L-766186 37589 L-765855 37564 L-765554 37516 L-765312 37491 L-764577 37442 L-763998 37418 L-763168 37394 L-763068 37369 L-762510 37345 L-762372 37320 L-760731 37296 L-760670 37296 L-760576 37296 L-759609 37296 L-759431 37271 L-759144 37271 L-758927 37271 L-758848 37247 L-758577 37247 L-758462 37223 L-758309 37198 L-757998 37174 L-757920 37149 L-757829 37149 L-757752 37125 L-757636 37125 L-757456 37101 L-757364 37076 L-757326 37052 L-756823 37052 L-756605 37027 L-756475 37027 L-756320 37003 L-756265 36979 L-756141 36979 L-755756 36954 L-755247 36930 L-755175 36905 L-754695 36881 L-754618 36856 L-754517 36856 L-754284 36832 L-753819 36832 L-753589 36832 L-753573 36832 L-753341 36832 L-753186 36832 L-753125 36832 L-752932 36808 L-752661 36759 L-751909 36734 L-750956 36734 L-750920 36710 L-750695 36710 L-750255 36710 L-749975 36661 L-749626 36637 L-748557 36612 L-747629 36612 L-747498 36612 L-747452 36612 L-747383 36588 L-747228 36588 L-747150 36539 L-746977 36490 L-746542 36441 L-746338 36417 L-746278 36368 L-745695 36344 L-745541 36295 L-745426 36270 L-745385 36246 L-745215 36222 L-745078 36197 L-744868 36148 L-744790 36124 L-744767 36100 L-744558 36051 L-744148 36026 L-744124 36002 L-743900 35978 L-743755 35953 L-743720 35929 L-743707 35904 L-743685 35880 L-743451 35855 L-743266 35831 L-743048 35807 L-743023 35782 L-742334 35758 L-742230 35733 L-742195 35709 L-742174 35685 L-741980 35660 L-741927 35636 L-741810 35587 L-741728 35587 L-741617 35562 L-741303 35538 L-740844 35514 L-740588 35489 L-740354 35440 L-740224 35416 L-739872 35392 L-739813 35367 L-739660 35343 L-739088 35294 L-739001 35270 L-738848 35221 L-738552 35172 L-738182 35123 L-737879 35074 L-737802 35050 L-737398 35025 L-737230 35025 L-737086 35025 L-736545 35025 L-736485 35025 L-736469 34977 L-736303 34952 L-736097 34928 L-736022 34928 L-735929 34903 L-735520 34879 L-735504 34854 L-735480 34854 L-735287 34830 L-735211 35050 L-735040 35270 L-734978 35465 L-734962 35685 L-734448 35660 L-734227 35636 L-733608 35587 L-733354 35562 L-733160 35538 L-733121 35514 L-733047 35514 L-732982 35514 L-732332 35514 L-732293 35538 L-732119 35538 L-732053 35538 L-731379 35538 L-730990 35489 L-730728 35465 L-730490 35440 L-730413 35392 L-730397 35343 L-730195 35318 L-729824 35270 L-729599 35245 L-728963 35221 L-728943 35221 L-728556 35196 L-728462 35196 L-728404 35172 L-728128 35147 L-727819 35147 L-727742 35123 L-726890 35147 L-726548 35270 L-726111 35416 L-725677 35538 L-725182 35660 L-725032 35636 L-724764 35660 L-723526 35685 L-723469 35733 L-721705 35758 L-721515 35733 L-720505 35709 L-720354 35685 L-719978 35733 L-719658 35782 L-719052 35831 L-718983 35880 L-718805 35855 L-717977 35831 L-717838 35807 L-717451 35782 L-717267 35758 L-717223 35733 L-717103 35709 L-716893 35685 L-716446 35636 L-716098 35611 L-715966 35587 L-715557 35562 L-715206 35562 L-714921 35538 L-714728 35514 L-714573 35514 L-714409 35489 L-714341 35465 L-714241 35465 L-714008 35440 L-713891 35440 L-713838 35416 L-713296 35416 L-712832 35392 L-711650 35392 L-711516 35392 L-711492 35392 L-711439 35392 L-710771 35392 L-709737 35343 L-709543 35318 L-709363 35294 L-709212 35294 L-709171 35270 L-709156 35270 L-709095 35245 L-708769 35221 L-707609 35196 L-707415 35172 L-707238 35147 L-706124 35123 L-705264 35099 L-705158 35099 L-704684 35074 L-704492 35074 L-702170 35050 L-702093 35025 L-701971 34977 L-701937 34952 L-701900 34903 L-701805 34830 L-701589 34781 L-701008 34732 L-700622 34708 L-699849 34684 L-699771 34659 L-699074 34659 L-698532 34659 L-698491 34635 L-698361 34635 L-697897 34610 L-697859 34586 L-697724 34562 L-697356 34537 L-697326 34513 L-697176 34513 L-696775 34488 L-694951 34513 L-694144 34488 L-693426 34488 L-693409 34488 L-693095 34439 L-692534 34415 L-692032 34391 L-691513 34366 L-691492 34342 L-689748 34317 L-689579 34293 L-689383 34269 L-688490 34244 L-687971 34195 L-687761 34171 L-687503 34146 L-686793 34122 L-685843 34098 L-685185 34073 L-685145 34024 L-684859 34000 L-684776 33976 L-684681 33976 L-684549 33951 L-684472 33951 L-683737 33951 L-683400 33927 L-683350 33951 L-683095 33951 L-682808 33927 L-682383 33927 L-681802 33902 L-681543 33902 L-681392 33878 L-681144 33878 L-681106 33878 L-680309 33854 L-680271 33829 L-680094 33829 L-679685 33780 L-679456 33780 L-679380 33780 L-679249 33780 L-679133 33756 L-678784 33731 L-678721 33707 L-678569 33683 L-677828 33658 L-677716 33634 L-677546 33609 L-677507 33585 L-677213 33585 L-676811 33585 L-676635 33585 L-676540 33585 L-676231 33561 L-675429 33536 L-674971 33487 L-674451 33463 L-673962 33438 L-673267 33414 L-672220 33390 L-671952 33390 L-671897 33365 L-671737 33365 L-671486 33365 L-671240 33341 L-671161 33316 L-670946 33268 L-670634 33243 L-670171 33194 L-670156 33170 L-669860 33170 L-669847 33145 L-668856 33121 L-668183 33097 L-667848 33048 L-667232 33048 L-667095 33023 L-666456 32999 L-666326 32975 L-665375 32926 L-665276 32877 L-664716 32853 L-664308 32853 L-663879 32853 L-663788 32828 L-662953 32828 L-662590 32828 L-662550 32853 L-662418 32877 L-662241 32877 L-662025 32877 L-661971 32853 L-661814 32804 L-661561 32779 L-660461 32755 L-660384 32730 L-660164 32706 L-660033 32657 L-659997 32633 L-659804 32608 L-659704 32584 L-659220 32560 L-658936 32535 L-658776 32511 L-658681 32462 L-658410 32437 L-658140 32413 L-658124 32315 L-657985 32242 L-657847 32169 L-657520 32071 L-657211 32022 L-657170 31998 L-657094 31949 L-656979 31925 L-656129 31876 L-655802 31852 L-655471 31827 L-655338 31827 L-655122 31827 L-655106 31827 L-654425 31827 L-654332 31778 L-654309 31754 L-654293 31705 L-654254 31681 L-653843 31632 L-653573 31607 L-653533 31583 L-653165 31583 L-652955 31559 L-651872 31559 L-651856 31534 L-651827 31510 L-651807 31510 L-651430 31461 L-651175 31437 L-650927 31388 L-650788 31339 L-650656 31314 L-650324 31290 L-650231 31266 L-650170 31241 L-649612 31217 L-649551 31192 L-649395 31168 L-649201 31144 L-649008 31119 L-648993 31095 L-648954 31070 L-648915 31046 L-648644 31021 L-648521 30997 L-648489 30973 L-648389 30973 L-648234 30973 L-648093 30973 L-647809 30948 L-647483 30948 L-646787 30924 L-646765 30924 L-646255 30924 L-645409 30924 L-645046 30899 L-644891 30875 L-644288 30875 L-644118 30875 L-644057 30875 L-644002 30851 L-642946 30826 L-642928 30826 L-642022 30826 L-642000 30826 L-641833 30802 L-641591 30802 L-641541 30777 L-641486 30729 L-641349 30704 L-641309 30680 L-640381 30655 L-640326 30655 L-640204 30655 L-640132 30655 L-640016 30655 L-639838 30680 L-638856 30655 L-638716 30655 L-638598 30606 L-638304 30558 L-638057 30533 L-638020 30509 L-637965 30533 L-637944 30533 L-637811 30533 L-637732 30533 L-637594 30509 L-636971 30509 L-636805 30484 L-636340 30484 L-636164 30436 L-636147 30411 L-636087 30387 L-635971 30362 L-635488 30338 L-634792 30313 L-634420 30289 L-634250 30265 L-633284 30240 L-633129 30216 L-632951 30216 L-632859 30191 L-632604 30191 L-632433 30191 L-631786 30167 L-631775 30167 L-631195 30143 L-631057 30143 L-631002 30094 L-630266 30069 L-630228 30045 L-630150 30045 L-629508 30020 L-628734 30020 L-628641 29996 L-628593 29996 L-628577 29972 L-628541 29972 L-628525 29923 L-628462 29898 L-628446 29874 L-628426 29874 L-628271 29850 L-628232 29825 L-628216 29801 L-628177 29776 L-628037 29752 L-627961 29728 L-627597 29703 L-627249 29679 L-626475 29654 L-625873 29630 L-625676 29605 L-625446 29605 L-625308 29581 L-624670 29581 L-624381 29557 L-624359 29557 L-623899 29532 L-623666 29532 L-623612 29508 L-623573 29483 L-623070 29459 L-622520 29435 L-621732 29410 L-620609 29410 L-619715 29386 L-619627 29386 L-619327 29361 L-619255 29337 L-619140 29312 L-617963 29288 L-617615 29264 L-617592 29239 L-617073 29215 L-616926 29190 L-616818 29166 L-616609 29142 L-616454 29117 L-616431 29093 L-616238 29068 L-616161 29044 L-616017 29020 L-615216 28995 L-615070 28971 L-614790 28946 L-614613 28922 L-614303 28897 L-613492 28873 L-612563 28873 L-610971 28849 L-610728 28824 L-610087 28800 L-609891 28775 L-609814 28751 L-609296 28727 L-609064 28727 L-609041 28702 L-608909 28702 L-608570 28678 L-608559 28653 L-608343 28629 L-608306 28604 L-607764 28580 L-607235 28531 L-607168 28507 L-606874 28482 L-606327 28434 L-606291 28409 L-606239 28385 L-606139 28336 L-605907 28336 L-605327 28336 L-605229 28360 L-605155 28360 L-604823 28336 L-604073 28312 L-604034 28287 L-603354 28287 L-603200 28287 L-602873 28263 L-602658 28238 L-602426 28238 L-602130 28214 L-601883 28189 L-601532 28165 L-601479 28141 L-600720 28116 L-600026 28067 L-599676 28019 L-599212 27994 L-598579 27970 L-598170 27945 L-598092 27970 L-597666 27970 L-597023 27945 L-596854 27945 L-596112 27921 L-595925 27896 L-595630 27872 L-595058 27848 L-595032 27823 L-594013 27823 L-593526 27799 L-593433 27799 L-593372 27774 L-593084 27750 L-592798 27726 L-592736 27701 L-592557 27701 L-591845 27677 L-591670 27652 L-591471 27628 L-591319 27604 L-591228 27579 L-591166 27555 L-590624 27555 L-590314 27530 L-590222 27481 L-590144 27433 L-589577 27408 L-589486 27408 L-589232 27359 L-588905 27311 L-588868 27237 L-588713 27164 L-588481 27140 L-588159 27115 L-587026 27091 L-586827 27066 L-586301 27042 L-586057 27042 L-585811 27018 L-585731 26993 L-585711 26944 L-585634 26920 L-585579 26871 L-585502 26847 L-585463 26822 L-585284 26773 L-585247 26749 L-585015 26725 L-583777 26700 L-583451 26676 L-583411 26627 L-582629 26603 L-582483 26578 L-581491 26554 L-581284 26554 L-580859 26554 L-580731 26554 L-580327 26578 L-580239 26554 L-579582 26529 L-578875 26505 L-578266 26480 L-578073 26456 L-577840 26407 L-577222 26383 L-576926 26334 L-576486 26310 L-576332 26285 L-576177 26261 L-575421 26212 L-575071 26187 L-574668 26187 L-574630 26163 L-573624 26163 L-573304 26163 L-573057 26139 L-572357 26090 L-572284 26065 L-571971 26041 L-570891 26017 L-570700 25992 L-570466 25992 L-570271 25968 L-569771 25943 L-569017 25943 L-568903 25943 L-568703 25943 L-568662 25919 L-568569 25895 L-568256 25870 L-568168 25846 L-568052 25821 L-567734 25821 L-567665 25797 L-567640 25772 L-567278 25748 L-567240 25724 L-567023 25699 L-566520 25724 L-565918 25748 L-565706 25797 L-565553 25821 L-565515 25821 L-565471 25772 L-565437 25748 L-565304 25724 L-564894 25699 L-564524 25675 L-564470 25650 L-564454 25626 L-564375 25602 L-563966 25577 L-563812 25553 L-563796 25504 L-563757 25479 L-563578 25431 L-563502 25406 L-563271 25382 L-562481 25357 L-562403 25357 L-561668 25309 L-561513 25284 L-561273 25235 L-561211 25187 L-561126 25162 L-561103 25113 L-560985 25064 L-560971 25016 L-560909 24967 L-560872 24942 L-560778 24918 L-560756 24918 L-560639 24894 L-560407 24869 L-560236 24820 L-559416 24820 L-559015 24796 L-558860 24796 L-558355 24796 L-558241 24796 L-557645 24796 L-557270 24771 L-557218 24771 L-557025 24747 L-556328 24747 L-556290 24723 L-556145 24723 L-555920 24698 L-555658 24674 L-555284 24649 L-554858 24625 L-554729 24601 L-554709 24552 L-554216 24552 L-553519 24527 L-553288 24552 L-553134 24552 L-552166 24552 L-551941 24576 L-551663 24576 L-551647 24552 L-551121 24527 L-550592 24503 L-550444 24479 L-550425 24454 L-549883 24430 L-549573 24405 L-549456 24356 L-549264 24308 L-549127 24259 L-548800 24234 L-548684 24210 L-548374 24210 L-547948 24186 L-547892 24186 L-547659 24210 L-547563 24210 L-547430 24210 L-547134 24210 L-547020 24186 L-546655 24161 L-546342 24161 L-545859 24137 L-545689 24112 L-545441 24088 L-545225 24063 L-544699 24039 L-544513 23990 L-544157 23966 L-543522 23941 L-543367 23893 L-542627 23868 L-542207 23844 L-542027 23819 L-541951 23819 L-541820 23795 L-541526 23770 L-541485 23746 L-541255 23746 L-541063 23722 L-540808 23722 L-540381 23697 L-540272 23673 L-539653 23673 L-539472 23673 L-538260 23673 L-537613 23697 L-537462 23697 L-537425 23697 L-537293 23697 L-537192 23673 L-537176 23648 L-537094 23624 L-536883 23600 L-536766 23575 L-536403 23551 L-536032 23526 L-535335 23502 L-534933 23478 L-534828 23453 L-534810 23429 L-533865 23404 L-533670 23355 L-533518 23331 L-533462 23282 L-532706 23282 L-532689 23331 L-532200 23355 L-532070 23404 L-531877 23404 L-530987 23380 L-530947 23355 L-530909 23331 L-530832 23307 L-530793 23307 L-530716 23282 L-530632 23258 L-530368 23233 L-530136 23209 L-530074 23185 L-529593 23160 L-529257 23160 L-529145 23136 L-528952 23111 L-528775 23087 L-528716 23087 L-528680 23062 L-528410 23038 L-527712 22989 L-527659 22940 L-527365 22892 L-526963 22843 L-526399 22818 L-525526 22794 L-525221 22770 L-525183 22745 L-525060 22721 L-524462 22696 L-524332 22672 L-524132 22647 L-524095 22623 L-523481 22599 L-523302 22574 L-523287 22525 L-523069 22501 L-522991 22452 L-522684 22452 L-522552 22428 L-522320 22428 L-521986 22428 L-521894 22403 L-521793 22379 L-521756 22354 L-521213 22354 L-521020 22330 L-520479 22306 L-520053 22281 L-519921 22281 L-519860 22281 L-519628 22281 L-519612 22281 L-519124 22306 L-519043 22306 L-519026 22306 L-517633 22330 L-517497 22330 L-517383 22306 L-516749 22281 L-516609 22257 L-516491 22232 L-516338 22184 L-516301 22159 L-516222 22135 L-516168 22159 L-515176 22159 L-515140 22135 L-515007 22135 L-514946 22086 L-514847 22062 L-514557 22037 L-514543 22013 L-514233 22013 L-514133 22037 L-513668 22013 L-513615 24601 L-513472 27164 L-513344 29752 L-513112 32340 L-512543 32315 L-512454 32291 L-512432 32291 L-512145 32267 L-511462 32242 L-511385 32218 L-511348 32193 L-511332 32169 L-511133 32145 L-510712 32096 L-510441 32096 L-509568 32071 L-509275 32071 L-509164 32071 L-508430 32047 L-508303 32022 L-507944 31998 L-507691 31998 L-506820 31974 L-506650 31974 L-506589 31949 L-506534 31925 L-506186 31900 L-506163 31876 L-505954 31852 L-505814 31827 L-505683 31803 L-505560 31778 L-505437 31754 L-505200 31729 L-504909 31705 L-504250 31681 L-504228 31656 L-504074 31632 L-503956 31607 L-502992 31583 L-502936 31559 L-502703 31534 L-502681 31510 L-502355 31485 L-502240 31485 L-502200 31461 L-501698 31461 L-501399 31437 L-501287 31412 L-500745 31388 L-499686 31363 L-499060 31339 L-498888 31314 L-498641 31290 L-498384 31266 L-498254 31241 L-498232 31217 L-497565 31192 L-496668 31168 L-496622 31144 L-496552 31119 L-496436 31119 L-496216 31095 L-496025 31095 L-495986 31070 L-495793 31046 L-495134 31046 L-494517 31021 L-494478 31168 L-493882 31314 L-493820 31437 L-492698 31559 L-492644 31559 L-492523 31534 L-492257 31510 L-492194 31510 L-491924 31510 L-491848 31485 L-491632 31485 L-491150 31461 L-490880 31437 L-490748 31437 L-490516 31388 L-490491 31314 L-490476 31217 L-490454 31095 L-490438 30973 L-490414 30851 L-490400 30704 L-490377 30558 L-490361 30411 L-490338 30289 L-490323 30167 L-490301 30045 L-490284 29972 L-490256 29898 L-490239 29801 L-490221 29752 L-490184 29679 L-490144 29630 L-490129 29581 L-490104 29508 L-490052 29459 L-490027 29410 L-489951 29361 L-489913 29337 L-489898 29288 L-489834 29239 L-489820 29190 L-489774 29117 L-489703 29068 L-489665 29044 L-489640 28995 L-489588 28946 L-489563 28922 L-489547 28897 L-489486 28873 L-489449 28849 L-489372 28824 L-489356 28800 L-489328 28751 L-489255 28727 L-489216 28702 L-489062 28653 L-488946 28629 L-488891 28604 L-488809 28580 L-488776 28556 L-488752 28531 L-488597 28507 L-488582 28482 L-488481 28458 L-488170 28434 L-488134 28409 L-487918 28385 L-487807 28385 L-487783 28385 L-487553 28409 L-487320 28409 L-486945 28385 L-486818 28360 L-486778 28336 L-486725 28312 L-486624 28287 L-486587 28263 L-486377 28263 L-486312 28238 L-486200 28238 L-485988 28214 L-485951 28189 L-485579 28165 L-485525 28141 L-485447 28116 L-485425 28092 L-485332 28067 L-485132 28043 L-485094 28043 L-485073 28043 L-484843 28043 L-484822 28019 L-484612 28019 L-484518 27994 L-484480 27970 L-484144 27945 L-484031 27921 L-483991 27896 L-483978 27896 L-483838 27872 L-483823 27872 L-483568 27872 L-482986 27848 L-482909 27823 L-482872 27799 L-482827 27774 L-482778 27750 L-482599 27726 L-482584 27701 L-482484 27677 L-482407 27652 L-482346 27628 L-481981 27579 L-481898 27555 L-481881 27530 L-481827 27506 L-480859 27481 L-480727 27457 L-480706 27433 L-480485 27408 L-480417 27384 L-480394 27359 L-480148 27335 L-479892 27311 L-479761 27286 L-479721 27262 L-479700 27213 L-479644 27164 L-479556 27140 L-479495 27091 L-479270 27066 L-479141 27042 L-479041 27018 L-478987 26993 L-478793 26969 L-478715 26944 L-478382 26920 L-478251 26895 L-478074 26871 L-478058 26847 L-478033 26822 L-477763 26822 L-476563 26798 L-476526 26798 L-476409 26773 L-476176 26749 L-475985 26725 L-475946 26725 L-475891 26700 L-475786 26700 L-475272 26676 L-474978 26651 L-474746 26627 L-474471 26603 L-474454 26578 L-474421 26554 L-474381 26529 L-474344 26505 L-474242 26480 L-474165 26456 L-474072 26432 L-473945 26407 L-473841 26383 L-473663 26383 L-473470 26358 L-472641 26358 L-472525 26334 L-472271 26310 L-472230 26285 L-472131 26261 L-472071 26261 L-471829 26236 L-471805 26236 L-471684 26212 L-471613 26187 L-471573 26163 L-471341 26139 L-471165 26114 L-470645 26090 L-470568 26065 L-470552 26041 L-470141 26041 L-469778 26041 L-469662 26017 L-469639 26017 L-469599 25992 L-469523 25968 L-469469 25943 L-469120 25919 L-469004 25895 L-468827 25895 L-468772 25870 L-468748 25870 L-468634 25846 L-468346 25821 L-468114 25797 L-467899 25772 L-467689 25748 L-467479 25699 L-466652 25675 L-466313 25650 L-465305 25626 L-464942 25602 L-463897 25577 L-463819 25553 L-463372 25528 L-463161 25504 L-462969 25479 L-462674 25455 L-462633 25431 L-462480 25406 L-462427 25357 L-462195 25333 L-461615 25309 L-461421 25284 L-460802 25284 L-460313 25260 L-460261 25235 L-459612 25211 L-459462 25187 L-459293 25162 L-458919 25138 L-458904 25138 L-458805 25113 L-458766 25113 L-458635 25089 L-458202 25089 L-457899 25089 L-457513 25089 L-457373 25064 L-457212 25064 L-456778 25064 L-456739 25040 L-456638 25040 L-456523 25016 L-456345 25016 L-456175 24991 L-456057 24967 L-455695 24918 L-455478 24894 L-455345 24869 L-455205 24869 L-454706 24869 L-454628 24869 L-454394 24845 L-454070 24845 L-453683 24820 L-453660 24796 L-453040 24796 L-452770 24771 L-452537 24771 L-452112 24747 L-451841 24723 L-451699 24698 L-451490 24674 L-451284 24649 L-450733 24625 L-450602 24625 L-450216 24601 L-449945 24601 L-449842 24576 L-449582 24552 L-449380 24527 L-449311 24503 L-449272 24479 L-448705 24454 L-448498 24430 L-448471 24405 L-448242 24381 L-448165 24356 L-447648 24332 L-447609 24308 L-447454 24283 L-447160 24259 L-446888 24234 L-446525 24210 L-446177 24210 L-445804 24186 L-445684 24186 L-445612 24161 L-445133 24137 L-445070 24112 L-444735 24088 L-444604 24063 L-444526 24039 L-444397 24015 L-443933 24015 L-443639 23990 L-443563 23990 L-443251 23966 L-442943 23941 L-442880 23917 L-442850 23893 L-442075 23868 L-441970 23819 L-441883 23795 L-441860 23770 L-441705 23746 L-441484 23722 L-441317 23697 L-440930 23673 L-440875 23648 L-440812 23648 L-440194 23624 L-440078 23600 L-439754 23575 L-439229 23551 L-438878 23526 L-438802 23502 L-438183 23478 L-437772 23453 L-437471 23429 L-437160 23404 L-437022 23380 L-436398 23380 L-436017 23355 L-434893 23355 L-433833 23331 L-433770 23307 L-433409 23282 L-433308 23282 L-433292 23258 L-432918 23258 L-431913 23209 L-431526 23185 L-431319 23136 L-431230 23111 L-430855 23087 L-430562 23062 L-430251 23038 L-429462 23014 L-429374 22989 L-429322 22965 L-429283 22940 L-428765 22916 L-428650 22892 L-428441 22867 L-428302 22843 L-427698 22818 L-426869 22794 L-426586 22770 L-426404 22770 L-425903 22745 L-425698 22745 L-425143 22745 L-424638 22721 L-424447 22696 L-424409 22672 L-423780 22647 L-423326 22623 L-422912 22599 L-422303 22574 L-421183 22574 L-420770 22550 L-420445 22550 L-420231 22525 L-419804 22501 L-419664 22477 L-419572 22452 L-419341 22428 L-418754 22428 L-417947 22403 L-416747 22403 L-416633 22403 L-416501 22379 L-416414 22354 L-416372 22379 L-416351 22403 L-416340 22452 L-416246 22501 L-415482 22501 L-414776 22501 L-414736 22477 L-414450 22452 L-413909 22428 L-413848 22403 L-413808 22379 L-413793 22354 L-413536 22330 L-413213 22306 L-413073 22281 L-412803 22257 L-412764 22232 L-412656 22208 L-412254 22184 L-412145 22159 L-412068 22135 L-411771 22110 L-411728 22086 L-411509 22086 L-411326 22086 L-411215 22086 L-411201 22062 L-411175 22062 L-410751 22037 L-410504 22013 L-410168 21988 L-410134 21964 L-409999 21939 L-409745 21939 L-409591 21915 L-408685 21915 L-408586 21891 L-408390 21842 L-407383 21817 L-406883 21793 L-406804 21769 L-406766 21744 L-406558 21720 L-406439 21695 L-406341 21671 L-406155 21646 L-405990 21622 L-405754 21598 L-405335 21573 L-405319 21549 L-405010 21524 L-403964 21500 L-403747 21476 L-403731 21451 L-403709 21427 L-403501 21402 L-403342 21378 L-403283 21354 L-401838 21329 L-401512 21329 L-401310 21329 L-401111 21329 L-400961 21329 L-400691 21305 L-400250 21280 L-400032 21280 L-399337 21256 L-398835 21231 L-398510 21207 L-398239 21207 L-397519 21183 L-397364 21183 L-396165 21134 L-395776 21109 L-395660 21061 L-395507 21036 L-395353 21012 L-394383 20987 L-394331 20963 L-394084 20938 L-394061 20914 L-393842 20890 L-393403 20841 L-393264 20792 L-393156 20743 L-392954 20719 L-392837 20694 L-392734 20670 L-392720 20670 L-392587 20645 L-392334 20621 L-391716 20597 L-391056 20572 L-390810 20572 L-390618 20548 L-389858 20548 L-389819 20548 L-389741 20523 L-389689 20475 L-389649 20450 L-389612 20426 L-389573 20401 L-389481 20377 L-389437 20353 L-389378 20304 L-389354 20279 L-389240 20255 L-388930 20206 L-388875 20182 L-388853 20157 L-388511 20133 L-388346 20108 L-388310 20060 L-388270 20035 L-388255 20011 L-388024 19986 L-387883 19962 L-387715 19937 L-387266 19937 L-387032 19937 L-386939 19937 L-386920 19962 L-386439 19937 L-386361 19937 L-386234 19913 L-386104 19864 L-385726 19840 L-385485 19791 L-385447 19767 L-385393 19742 L-385255 19693 L-385215 19669 L-385175 19645 L-384945 19620 L-384905 19596 L-384775 19571 L-384596 19547 L-384555 19522 L-384541 19498 L-384377 19474 L-384362 19449 L-384210 19425 L-384195 19400 L-384168 19376 L-384134 19352 L-383912 19303 L-383690 19303 L-383435 19278 L-383303 19303 L-382661 19303 L-382054 19278 L-381034 19278 L-380841 19254 L-380790 19229 L-380665 19205 L-380341 19181 L-379568 19156 L-379510 19132 L-379396 19107 L-378984 19083 L-378659 19059 L-378522 19034 L-378297 19010 L-377771 18985 L-377370 18985 L-377339 18961 L-377052 18961 L-376767 18937 L-376379 18912 L-376162 18888 L-375735 18839 L-375554 18814 L-375217 18790 L-375111 18766 L-374924 18766 L-374807 18741 L-374793 18741 L-374072 18717 L-373902 18692 L-373654 18668 L-373554 18644 L-372912 18619 L-372623 18595 L-372433 18570 L-372158 18546 L-371841 18521 L-371556 18497 L-371442 18448 L-371397 18424 L-371195 18399 L-369586 18375 L-369374 18351 L-368693 18326 L-368611 18302 L-368383 18277 L-368192 18277 L-368053 18253 L-368035 18253 L-367841 18253 L-367612 18253 L-367419 18253 L-366335 18229 L-366139 18229 L-366087 18229 L-365933 18229 L-365825 18229 L-365659 18229 L-365506 18204 L-365391 18180 L-365267 18131 L-364850 18106 L-364593 18058 L-364501 18033 L-364308 18033 L-364246 18009 L-363920 18009 L-363859 18009 L-363802 17984 L-363533 17960 L-363185 17936 L-363007 17911 L-362812 17887 L-362776 17911 L-362064 17911 L-362024 17960 L-361715 17984 L-361417 18009 L-361367 18033 L-361112 18058 L-360841 18082 L-360786 18082 L-359694 18082 L-359664 18058 L-359624 18058 L-359447 18058 L-359255 18033 L-358397 18033 L-357343 18009 L-357282 17984 L-356934 17960 L-356121 17960 L-355307 17960 L-355292 17960 L-354917 17960 L-354749 17960 L-354480 17960 L-354152 17936 L-354031 17911 L-353974 17911 L-353938 17887 L-353861 17887 L-353644 17862 L-353586 17838 L-353270 17813 L-353102 17789 L-352739 17789 L-352545 17789 L-352522 17789 L-352444 17765 L-351963 17765 L-351826 17765 L-351412 17740 L-351113 17740 L-351014 17716 L-350998 17691 L-350970 17667 L-350611 17643 L-350260 17618 L-350123 17594 L-350086 17594 L-349269 17569 L-349063 17545 L-349039 17520 L-348883 17520 L-348793 17496 L-348551 17496 L-348227 17472 L-348135 17472 L-347939 17447 L-347653 17447 L-346897 17423 L-346768 17398 L-346694 17374 L-346081 17350 L-345906 17325 L-345795 17301 L-345696 17276 L-345617 17252 L-345480 17228 L-345325 17228 L-345246 17228 L-345055 17228 L-344382 17228 L-344344 17203 L-344241 17179 L-343297 17154 L-343276 17130 L-342925 17105 L-342460 17081 L-342424 17057 L-341995 17032 L-341944 17032 L-341532 17008 L-341516 17008 L-341419 17008 L-341364 17008 L-341326 17008 L-341031 16983 L-339292 16959 L-337782 16935 L-337274 16910 L-336777 16886 L-336643 16861 L-336552 16837 L-336424 16812 L-336345 16764 L-336040 16739 L-335769 16715 L-335535 16715 L-334337 16690 L-334232 16690 L-334166 16666 L-333324 16642 L-333138 16617 L-332227 16593 L-331358 16544 L-331071 16520 L-330978 16471 L-330429 16446 L-329909 16422 L-328841 16397 L-328572 16373 L-328418 16373 L-328326 16373 L-328195 16397 L-328148 16422 L-327988 16422 L-327123 16422 L-326788 16422 L-326405 16397 L-325652 16373 L-325593 16349 L-325203 16349 L-324882 16349 L-324724 16324 L-323992 16324 L-323930 16324 L-323642 16324 L-323269 16324 L-323087 16324 L-322832 16300 L-322570 16251 L-322418 16227 L-322014 16202 L-320717 16178 L-320602 16153 L-320138 16129 L-318806 16104 L-318381 16080 L-318357 16056 L-318224 16031 L-318049 16007 L-317916 16007 L-317586 15982 L-317198 15958 L-317159 15934 L-317142 15885 L-316752 15860 L-316460 15836 L-316191 15836 L-316018 15836 L-314525 15836 L-314474 15812 L-314396 15836 L-313156 15860 L-313081 15860 L-313054 15909 L-312808 15885 L-312651 15885 L-312592 15860 L-311705 15860 L-311476 15836 L-310952 15836 L-310811 15860 L-310736 15860 L-310039 15885 L-309791 15885 L-309111 15860 L-309093 15860 L-308840 15836 L-308472 15836 L-308336 15812 L-307714 15763 L-307371 15738 L-307323 15714 L-306836 15689 L-306502 15641 L-306286 15641 L-306151 15616 L-305830 15592 L-305766 15592 L-305514 15567 L-305224 15543 L-304915 15519 L-304775 15494 L-304236 15470 L-303960 15445 L-303230 15421 L-303176 15421 L-303069 15421 L-302803 15421 L-302379 15421 L-302115 15396 L-301895 15372 L-301875 15348 L-301643 15323 L-301356 15299 L-301333 15299 L-301319 15274 L-300946 15274 L-300775 15250 L-300699 15201 L-300638 15177 L-300337 15128 L-300096 15079 L-300003 15055 L-299746 15030 L-299693 15006 L-299498 14981 L-299282 15006 L-298858 15006 L-298766 15030 L-298625 15006 L-297760 14981 L-297387 14957 L-297059 14908 L-296907 14884 L-296479 14884 L-295762 14859 L-295567 14859 L-295213 14835 L-295066 14811 L-294559 14762 L-294323 14737 L-293356 14713 L-293346 14688 L-292281 14664 L-292048 14640 L-291647 14615 L-291452 14591 L-291372 14566 L-291276 14542 L-290539 14542 L-290407 14542 L-290017 14542 L-289995 14518 L-289900 14518 L-289765 14493 L-289748 14469 L-289728 14444 L-288043 14420 L-288024 14420 L-287908 14395 L-287823 14395 L-287698 14395 L-287675 14371 L-287390 14347 L-287284 14322 L-287096 14273 L-286825 14249 L-286153 14225 L-285781 14200 L-284929 14200 L-284872 14176 L-284852 14176 L-284619 14176 L-284345 14151 L-284039 14151 L-283999 14103 L-283769 14103 L-283531 14078 L-282918 14054 L-282877 14029 L-282840 13980 L-282318 13956 L-282127 13932 L-282067 13907 L-282024 13883 L-281702 13883 L-281674 13858 L-281659 13858 L-281174 13834 L-281121 13810 L-280982 13785 L-280944 13761 L-280927 13736 L-280833 13712 L-280167 13712 L-279551 13687 L-279282 13687 L-278873 13687 L-278853 13663 L-278837 13663 L-278724 13639 L-278337 13614 L-277870 13614 L-277810 13590 L-277731 13565 L-277716 13541 L-277230 13492 L-277190 13468 L-277045 13468 L-276996 13443 L-276917 13468 L-276285 13443 L-276194 13443 L-275953 13443 L-275836 13419 L-275508 13419 L-274754 13395 L-274737 13395 L-273786 13395 L-273477 13370 L-273052 13346 L-272338 13321 L-272019 13297 L-272005 13272 L-271853 13224 L-271550 13199 L-271472 13175 L-271345 13150 L-270908 13150 L-270848 13150 L-270324 13150 L-270056 13150 L-269919 13126 L-269840 13102 L-269801 13077 L-268990 13077 L-268949 13077 L-268509 13077 L-268431 13077 L-268174 13053 L-267983 13028 L-267354 13004 L-267167 12979 L-267133 12931 L-266977 12906 L-266575 12857 L-266498 12833 L-266317 12809 L-266126 12784 L-265198 12735 L-265047 12711 L-263839 12687 L-263030 12662 L-262626 12638 L-262024 12613 L-261822 12589 L-261753 12564 L-261595 12540 L-261334 12516 L-260960 34391 L-260942 34366 L-260785 34366 L-259587 34366 L-258483 12467 L-257555 12442 L-257442 12418 L-257156 12394 L-257054 12369 L-257030 12369 L-256840 12320 L-256762 12296 L-256566 12296 L-255855 12296 L-255697 12320 L-254640 12320 L-254215 12320 L-253805 12296 L-253519 12247 L-253344 12223 L-253113 12198 L-252859 12174 L-252416 12149 L-251755 12125 L-251579 12101 L-251275 12076 L-250887 12052 L-250868 12027 L-250848 12003 L-250827 11979 L-250693 11954 L-250501 11930 L-248857 11905 L-247560 11881 L-247521 11856 L-247464 11832 L-247362 11808 L-246803 11783 L-245819 11759 L-245277 11710 L-244813 11686 L-244167 11661 L-243618 11637 L-242568 11612 L-241640 11588 L-241292 11563 L-241099 11539 L-240596 11515 L-240151 11515 L-240008 11490 L-239987 11490 L-239416 11490 L-239030 11441 L-238197 11417 L-237848 11393 L-237826 11368 L-237439 11368 L-237016 11344 L-236417 11319 L-236398 11295 L-235893 11295 L-235661 11270 L-235547 11270 L-234928 11222 L-234367 11197 L-234327 11173 L-233767 11148 L-233434 11124 L-233322 11124 L-233283 11100 L-232858 11100 L-232798 11100 L-232723 11075 L-232432 11075 L-232219 11051 L-231736 11002 L-231521 10978 L-230382 10953 L-230322 10929 L-230304 10904 L-229898 10880 L-229260 10855 L-229125 10831 L-229066 10807 L-228524 10782 L-228215 10758 L-227964 10758 L-227888 10733 L-227769 10709 L-227035 10660 L-226590 10636 L-226376 10611 L-225643 10587 L-225468 10562 L-225102 10562 L-224887 10562 L-223649 10562 L-223340 10562 L-223223 10562 L-222971 10538 L-222760 10514 L-222218 10489 L-221986 10465 L-221928 10465 L-221831 10440 L-221502 10440 L-221269 10416 L-219607 10392 L-219256 10367 L-218852 10318 L-218697 10294 L-217904 10270 L-216414 10245 L-216027 10221 L-215989 10196 L-215735 10172 L-215640 10147 L-215447 10123 L-215099 10123 L-214403 10099 L-214151 10099 L-213435 10074 L-212023 10050 L-211791 10025 L-211462 10025 L-210245 10025 L-209894 10050 L-209702 10074 L-209583 10099 L-207149 10099 L-206179 10074 L-205348 10050 L-205039 10025 L-203697 10001 L-203124 9977 L-203008 9952 L-202679 9952 L-202583 9928 L-202176 9928 L-202060 9903 L-201869 9879 L-201113 9854 L-200987 9830 L-200706 9806 L-200203 9781 L-200126 9757 L-198539 9879 L-198482 10001 L-197740 10147 L-197359 10270 L-197030 10245 L-196367 10221 L-196237 10196 L-196198 10196 L-195947 10196 L-195811 10196 L-195619 10172 L-195483 10172 L-195231 10123 L-195019 10123 L-194709 10099 L-194437 10099 L-193935 10099 L-193916 10099 L-193482 10074 L-193256 10050 L-192813 10025 L-192794 10001 L-192291 9977 L-192153 9952 L-192039 9928 L-191807 9903 L-191497 9879 L-191033 9854 L-190956 9830 L-190453 9806 L-190182 9781 L-189844 9757 L-189659 9732 L-188983 9708 L-188964 9708 L-188789 9684 L-188769 9659 L-188151 9635 L-187435 9610 L-186873 9586 L-186679 9586 L-186525 9562 L-186506 9562 L-185983 9513 L-185869 9488 L-184997 9464 L-184976 9439 L-184920 9415 L-184088 9391 L-183778 9366 L-183702 9342 L-183430 9317 L-183367 9317 L-183317 9269 L-183005 9220 L-182388 9171 L-181613 9146 L-180819 9122 L-180780 9098 L-180703 9073 L-180531 9049 L-179653 9024 L-178768 9000 L-178674 8976 L-178554 8951 L-178225 8927 L-178188 8927 L-177956 8902 L-177723 8902 L-177008 8854 L-176505 8829 L-175840 8805 L-175731 8780 L-175577 8756 L-175557 8731 L-175403 8707 L-174987 8683 L-174376 8658 L-174242 8634 L-173333 8609 L-173130 8585 L-172578 8561 L-169928 8536 L-169753 8512 L-169676 8463 L-168804 8438 L-168340 8414 L-167858 8390 L-167819 8341 L-167238 8316 L-167218 8292 L-166117 8268 L-164695 8243 L-164277 8219 L-163970 8194 L-163892 8170 L-163816 8145 L-163659 8121 L-163583 8097 L-163119 8072 L-161881 8048 L-161629 8023 L-161184 7999 L-160562 7975 L-160506 7950 L-160313 7950 L-159848 7926 L-159557 7877 L-159516 7828 L-159480 7779 L-159327 7730 L-159150 7706 L-158011 7657 L-157624 7633 L-157566 7608 L-157392 7584 L-154875 7535 L-153715 7511 L-153078 7486 L-152939 7462 L-152807 7413 L-152420 7389 L-151956 7364 L-151745 7315 L-151680 7291 L-151646 7267 L-150892 7242 L-150310 7218 L-150119 7193 L-149500 7169 L-149454 7145 L-149093 7120 L-148987 7096 L-148802 7071 L-148525 7047 L-147621 7022 L-146617 6998 L-145881 6974 L-145456 6949 L-145295 6925 L-144933 6900 L-144836 6876 L-144392 6852 L-144316 6827 L-143964 6827 L-143715 6778 L-143695 6729 L-143521 6681 L-142573 6607 L-142459 6583 L-141896 6559 L-141446 6534 L-141061 6510 L-140151 6485 L-140095 6461 L-138956 6437 L-138376 6388 L-138201 6363 L-137407 6314 L-137176 6290 L-136789 6266 L-136519 6241 L-136383 6217 L-136267 6192 L-135648 6192 L-135590 6192 L-135375 6192 L-135081 6192 L-134293 6168 L-134152 6168 L-132764 6144 L-132417 6144 L-132030 6119 L-131969 6070 L-131933 6046 L-131876 6021 L-131233 5997 L-130541 5973 L-130289 5973 L-129954 5948 L-129864 5948 L-129344 5924 L-129090 5899 L-128874 5851 L-128491 5826 L-128331 5802 L-127792 5753 L-126980 5729 L-126961 5704 L-126846 5704 L-126701 5680 L-126321 5680 L-126128 5680 L-126072 5655 L-125773 5631 L-125706 5606 L-125510 5582 L-125143 5558 L-125082 5533 L-124778 5509 L-124733 5509 L-124679 5484 L-124041 5484 L-124021 5460 L-123536 5436 L-123054 5460 L-122685 5460 L-122319 5484 L-122184 5484 L-122030 5460 L-121960 5436 L-121313 5436 L-121293 5411 L-121152 5411 L-120667 5387 L-120384 5387 L-120326 5362 L-120268 5362 L-119959 5338 L-119804 5313 L-119320 5313 L-118547 5313 L-117907 5313 L-117810 5289 L-116747 5289 L-116726 5265 L-116261 34732 L-116245 34732 L-116071 34732 L-115558 34732 L-113204 5240 L-112259 5216 L-111541 5191 L-111000 5143 L-110303 5118 L-109987 5094 L-109338 5069 L-108830 5045 L-108796 5020 L-108754 4996 L-108409 4972 L-107714 4947 L-107517 4923 L-107500 4874 L-107384 4850 L-107103 4825 L-106205 4776 L-106159 4752 L-105793 4703 L-105775 4679 L-105720 4654 L-105527 4630 L-105391 4605 L-105316 4581 L-105082 4557 L-104541 4532 L-104500 4508 L-104464 4483 L-104438 4459 L-103803 4410 L-103261 4386 L-102096 4361 L-101736 4337 L-100459 4337 L-100419 4312 L-100381 4312 L-100166 4288 L-99976 4264 L-99898 4239 L-99745 4215 L-99705 4190 L-98616 4166 L-98292 4166 L-98078 4142 L-97817 4142 L-97325 4142 L-97303 4239 L-96886 4337 L-96744 4410 L-96684 4508 L-96607 4508 L-96396 4483 L-95102 4483 L-94825 4459 L-94201 4435 L-92810 4410 L-92738 4386 L-92700 4337 L-92506 4312 L-92117 4288 L-91809 4264 L-91753 4239 L-91438 4239 L-91387 4239 L-91349 4215 L-91303 4190 L-90670 4166 L-89896 4142 L-89457 4117 L-89315 33854 L-89292 33829 L-89275 63565 L-89250 63565 L-88833 33829 L-88630 33805 L-88480 4044 L-88402 4020 L-88348 3995 L-87551 3995 L-87535 3995 L-86671 3995 L-86467 3995 L-86180 3971 L-86065 3946 L-85539 3922 L-85363 3897 L-85059 3873 L-84672 3849 L-84611 3800 L-84556 3775 L-84401 3751 L-83356 3727 L-82794 3727 L-82558 3702 L-82522 3702 L-82252 3702 L-81846 3678 L-80377 3653 L-78636 3629 L-78249 3604 L-78017 3580 L-77918 3556 L-77823 3531 L-77669 3482 L-77106 3482 L-77023 3458 L-76856 3458 L-76314 3482 L-75129 3482 L-75115 3482 L-75055 3482 L-74904 3458 L-74419 3434 L-73772 3409 L-73066 3360 L-72950 3336 L-71982 3312 L-71937 3287 L-71247 3287 L-71190 3263 L-71112 3263 L-71093 3238 L-71072 3214 L-70856 3189 L-70143 3189 L-69753 3165 L-69717 3141 L-69699 3116 L-69642 3092 L-69214 3067 L-69000 3043 L-68925 2994 L-68848 2970 L-68732 2945 L-68667 2945 L-68539 2921 L-68479 2921 L-68404 2872 L-68325 2848 L-67897 2823 L-67171 2799 L-67157 2750 L-66991 2726 L-66774 2677 L-66759 2628 L-66178 2604 L-65907 2579 L-65618 2555 L-65188 2530 L-65035 2506 L-64979 2481 L-64802 2457 L-63407 2433 L-63141 2384 L-62248 2335 L-61723 2311 L-60703 2262 L-60622 2237 L-60159 2213 L-59539 2213 L-59253 2188 L-58999 2188 L-58847 2164 L-58499 2140 L-57782 2115 L-57221 2091 L-56333 2066 L-56024 2066 L-55732 2066 L-54880 2066 L-54859 2066 L-54203 2066 L-53699 2018 L-53489 1993 L-53468 1969 L-53139 1944 L-53081 1944 L-52694 1944 L-51709 1944 L-51147 1944 L-51050 1944 L-50741 1920 L-50664 1920 L-49629 1895 L-49499 1871 L-49443 1847 L-48807 1822 L-48748 1798 L-48673 1773 L-47259 1749 L-47122 1725 L-46988 1700 L-46503 1676 L-46253 1651 L-45962 1627 L-45750 1603 L-45093 1578 L-44524 1529 L-44435 1505 L-44295 1480 L-44221 1456 L-43056 1456 L-43024 1432 L-42594 1432 L-42578 1407 L-42403 1383 L-40875 1358 L-40791 1383 L-39985 1383 L-39792 1383 L-39770 1383 L-38917 1358 L-38724 1334 L-38090 1310 L-37914 1285 L-37795 1261 L-37741 1261 L-37720 1261 L-37664 1261 L-37276 1261 L-36832 1261 L-36754 1236 L-36557 1236 L-36495 1212 L-36233 1187 L-35884 1187 L-35768 1163 L-34620 1163 L-34335 1139 L-33890 1114 L-32687 1090 L-32557 1065 L-32247 1041 L-31819 1017 L-30522 992 L-30213 29654 L-30197 29654 L-30150 30216 L-30100 30216 L-29172 1505 L-28842 1505 L-28294 919 L-28166 895 L-27720 870 L-26187 846 L-26018 821 L-25747 797 L-25723 748 L-24818 724 L-24703 699 L-24236 675 L-24213 650 L-24141 626 L-23943 602 L-23791 577 L-23323 553 L-22672 528 L-22186 504 L-21636 504 L-20614 504 L-20308 504 L-20253 504 L-19653 479 L-19223 455 L-19149 455 L-19132 431 L-18911 431 L-18606 406 L-18524 382 L-18221 382 L-17621 357 L-17485 333 L-17214 309 L-17000 284 L-16825 284 L-16616 284 L-16594 284 L-16346 577 L-15896 870 L-15880 1163 L-15434 1456 L-14226 1456 L-14024 1432 L-13096 1432 L-13034 1407 L-13000 1383 L-11974 1358 L-11858 1358 L-11837 1334 L-11683 1334 L-11664 1334 L-11253 1310 L-11237 1310 L-11200 1285 L-10890 1261 L-10736 1236 L-10531 1236 L-10132 1212 L-9149 1212 L-8624 1212 L-8568 1187 L-8542 1187 L-8220 1163 L-7504 1163 L-6634 1163 L-6596 1163 L-6519 1163 L-6267 1139 L-6247 1114 L-5524 1114 L-5374 1090 L-5261 1090 L-5164 1065 L-4062 1041 L-3307 1017 L-3135 992 L-2974 968 L-2898 943 L-2704 943 L-1566 919 L-882 919 L-599 895 L367 870 L386 846 L1238 821 L1277 797 L1420 772 L1745 748 L1975 724 L2013 699 L2053 675 L2070 626 L2206 602 L2225 577 L2436 553 L2496 528 L2574 504 L2598 479 L2673 455 L3153 431 L3250 406 L3326 382 L3502 357 L3525 333 L3580 309 L3618 284 L3677 260 L3832 235 L4856 211 L5155 187 L5282 162 L5360 138 L6385 113 L6442 89 L6500 64" />
</svg>
