<svg xmlns="http://www.w3.org/2000/svg" version="1.1" viewBox="0 0 6500 1000">
	<path fill="none" stroke="gold" stroke-width="125" stroke-linecap="round" stroke-linejoin="round" d="M0 105709  L-600995 105709 L-600810 105656 L-600320 105551 L-600027 105498 L-599715 105392 L-599481 105339 L-599428 105233 L-599368 105127 L-599215 105075 L-599175 104969 L-599042 104916 L-598750 104863 L-598209 104863 L-597599 104810 L-597551 104810 L-596911 104757 L-596877 104757 L-596352 104757 L-596219 104704 L-595829 104599 L-595501 104493 L-595384 104387 L-595172 104281 L-594455 104281 L-593885 104228 L-593778 104228 L-593604 104176 L-593382 104070 L-592981 104017 L-592955 103911 L-592027 103805 L-591940 103700 L-591857 103594 L-591787 103488 L-591490 103435 L-591338 103329 L-589448 103382 L-589347 103382 L-589085 103382 L-588791 103435 L-588650 103329 L-588401 103329 L-588365 103277 L-588207 103224 L-587743 103118 L-587490 103065 L-587278 102959 L-587027 102906 L-586678 102854 L-585751 102748 L-585657 102642 L-585246 102589 L-584075 102483 L-582886 102430 L-582794 102325 L-582767 102219 L-582501 102113 L-582202 102007 L-582073 101902 L-582035 101796 L-581221 101796 L-580837 101849 L-579776 101902 L-579715 101902 L-579450 102959 L-578979 103964 L-578786 104969 L-578523 105974 L-578186 105921 L-578050 105868 L-577595 105815 L-576851 105762 L-576834 105709 L-576669 105603 L-576600 105603 L-576084 105551 L-575056 105551 L-574859 105498 L-574371 105445 L-574009 105392 L-573600 105392 L-573215 105445 L-571511 105445 L-571413 105445 L-571341 105445 L-571280 105445 L-571096 105392 L-570759 105392 L-570119 105339 L-570042 105286 L-569980 105286 L-569794 105233 L-569714 105233 L-569537 105180 L-569518 105127 L-569288 105127 L-568900 105075 L-568011 105075 L-567972 105022 L-567884 104969 L-567856 104863 L-566848 104810 L-566699 104704 L-566674 104652 L-566541 104599 L-566502 104546 L-565243 104493 L-565186 104493 L-564646 104440 L-564593 104440 L-564547 104440 L-564151 104387 L-564012 104334 L-563812 104281 L-563665 104281 L-563501 104281 L-563224 104334 L-562865 104334 L-562313 104281 L-561668 104228 L-561409 104123 L-561256 104070 L-560855 104017 L-560814 103964 L-560694 103911 L-560632 103964 L-560618 103964 L-560524 103964 L-560231 103911 L-560080 103700 L-559749 103594 L-559672 103488 L-559596 103435 L-559369 103277 L-559303 103171 L-559075 103065 L-559022 102959 L-558858 102906 L-557852 102854 L-557669 102801 L-557118 102748 L-556725 102642 L-556327 102589 L-555477 102483 L-555399 102430 L-554820 102378 L-554378 102378 L-554137 102325 L-553980 102325 L-553579 102219 L-553559 102219 L-553114 102166 L-552709 102113 L-552573 102007 L-552397 101902 L-552261 101796 L-552011 101690 L-551011 101637 L-550929 101584 L-550793 101531 L-550755 101479 L-549865 101426 L-549649 101373 L-549206 101320 L-549088 101267 L-549032 101214 L-548355 101214 L-548255 101161 L-548226 101161 L-546885 101108 L-546479 101056 L-546439 101003 L-545511 100950 L-545413 100897 L-545280 100844 L-544876 100791 L-544849 100738 L-544756 100685 L-544540 100632 L-544129 100527 L-542975 100421 L-542684 100315 L-542655 100209 L-542047 100157 L-541797 100051 L-541777 99998 L-540848 99945 L-540797 99839 L-540674 99786 L-540657 99681 L-540501 99628 L-540325 99522 L-540189 99469 L-540132 99416 L-540024 99363 L-539939 99310 L-539706 99258 L-539631 99205 L-539322 99152 L-539205 99099 L-539035 99046 L-538944 98993 L-538841 98993 L-538818 98940 L-538741 98940 L-538643 98835 L-538276 98782 L-538171 98729 L-537668 98676 L-537216 98623 L-537178 98570 L-537154 98517 L-537113 98464 L-536984 98411 L-536883 98359 L-536442 98306 L-536160 98253 L-535567 98200 L-535437 98147 L-535163 98041 L-535010 97988 L-534857 97936 L-534772 97830 L-534694 97777 L-534508 97724 L-534457 97724 L-534430 97671 L-534350 97618 L-534327 97565 L-534044 97460 L-533440 97354 L-532444 97301 L-532146 97248 L-531413 97195 L-531168 97142 L-531078 97089 L-530501 97037 L-529803 96984 L-529050 96931 L-528732 96878 L-528349 96772 L-528272 96719 L-527637 96666 L-527452 96613 L-527364 96613 L-527235 96613 L-526922 96561 L-526872 96508 L-526730 96455 L-526709 96402 L-525741 96349 L-525196 96296 L-524717 96296 L-524656 96296 L-524333 96296 L-524311 96243 L-524249 96243 L-524039 96190 L-523962 96138 L-523907 96085 L-523885 96032 L-523845 95979 L-523830 95926 L-523072 95873 L-523056 95820 L-522257 95767 L-522104 95714 L-521199 95662 L-520693 95609 L-520463 95503 L-520422 95503 L-520307 95450 L-520130 95397 L-519376 95450 L-519241 95397 L-519077 95344 L-518759 95291 L-518583 95186 L-517561 95080 L-517538 94974 L-517286 94921 L-517073 94815 L-516439 94763 L-516201 94657 L-516169 94551 L-515991 94445 L-515911 94340 L-515821 94287 L-515756 94181 L-515316 94075 L-515293 94022 L-514752 93969 L-514496 93916 L-514001 93864 L-513124 93811 L-513087 93758 L-513034 93705 L-512993 93652 L-512876 93599 L-512600 93546 L-512392 93441 L-512195 93335 L-512172 93229 L-512122 93123 L-512082 93070 L-512005 93017 L-511407 92912 L-511347 92859 L-511244 92806 L-511089 92753 L-510457 92700 L-509777 92647 L-509474 92542 L-509127 92489 L-508929 92436 L-508881 92330 L-508561 92277 L-507933 92224 L-507787 92171 L-507750 92118 L-507692 92066 L-507616 91960 L-507374 91960 L-507286 91907 L-507192 91854 L-506898 91801 L-506764 91748 L-506704 91695 L-506667 91590 L-506395 91590 L-505389 91537 L-505213 91484 L-505163 91484 L-504870 91431 L-504677 91325 L-504344 91272 L-503838 91219 L-503276 91114 L-503261 91008 L-503244 90955 L-503144 90849 L-503029 90744 L-502990 90638 L-502952 90585 L-502887 90585 L-502859 90532 L-502720 90585 L-502427 90585 L-502377 90585 L-502272 90585 L-502007 90532 L-501542 90479 L-501398 90479 L-501343 90373 L-501286 90320 L-501095 90268 L-500730 90215 L-500515 90215 L-500321 90215 L-500263 90215 L-500204 90109 L-500050 90056 L-499780 90003 L-499351 90268 L-499335 90268 L-499258 90215 L-499194 90162 L-499064 89792 L-499041 89739 L-498757 89686 L-498709 89633 L-498654 89580 L-498192 89527 L-498153 89527 L-498113 89474 L-497922 89421 L-497442 89369 L-496955 89316 L-496938 89263 L-496900 89210 L-496644 89157 L-496567 89051 L-496337 88998 L-496321 88893 L-496026 88787 L-495584 88734 L-495137 88681 L-494632 88628 L-494479 88575 L-494192 88523 L-494152 88417 L-493821 88364 L-493599 88311 L-493082 88205 L-493006 88152 L-492758 88047 L-492564 87941 L-492504 87888 L-491727 87835 L-491653 87835 L-491423 87782 L-491406 87782 L-491344 87729 L-491149 87676 L-490685 87676 L-490661 87624 L-490532 87624 L-489231 87624 L-489214 87624 L-489137 87571 L-489043 87571 L-488826 87571 L-488674 87518 L-488496 87571 L-488442 87624 L-488155 87676 L-488115 87676 L-487745 87676 L-487305 87676 L-487122 87676 L-486801 87624 L-486506 87624 L-486060 87518 L-485988 87465 L-485526 87359 L-485088 87306 L-484906 87253 L-483452 87148 L-483320 87095 L-482863 86989 L-482637 86936 L-482250 86830 L-481734 86725 L-480780 86619 L-479986 86513 L-479311 86460 L-478885 86354 L-478574 86301 L-478344 86143 L-477661 85984 L-477648 85826 L-477438 85614 L-477416 85561 L-477242 85455 L-476292 85402 L-476024 85297 L-475208 85244 L-474898 85138 L-474860 85085 L-474803 84979 L-474186 84927 L-473548 84821 L-471922 84768 L-471248 84715 L-470606 84715 L-470529 84715 L-470472 84715 L-470437 84715 L-470408 84662 L-470296 84556 L-470279 84503 L-470256 84451 L-470102 84398 L-470049 84292 L-469971 84239 L-469852 84186 L-469754 84133 L-469637 84080 L-469367 83975 L-469097 83922 L-469080 83816 L-468880 83763 L-468733 83657 L-468506 83604 L-468372 83552 L-468064 83499 L-468004 83446 L-467651 83340 L-467302 83287 L-467201 83234 L-467137 83129 L-467077 83076 L-466692 82970 L-466311 82917 L-466207 82864 L-465947 82811 L-465676 82705 L-465517 82653 L-465484 82600 L-465422 82547 L-465281 82494 L-465097 82441 L-465053 82388 L-464764 82388 L-464748 82335 L-464515 82335 L-464454 82282 L-464416 82282 L-463836 82230 L-463702 82177 L-463679 81965 L-463661 81595 L-463643 81172 L-463627 80749 L-463603 80326 L-463587 80008 L-463565 79638 L-463549 79268 L-463526 79057 L-463509 78845 L-463487 78686 L-463470 78581 L-463421 78422 L-463349 78263 L-463315 77999 L-463291 77787 L-463255 77576 L-463214 77364 L-463177 77259 L-463161 77047 L-463137 76888 L-463100 76783 L-463083 76624 L-463060 76518 L-463042 76413 L-463023 76307 L-463007 76201 L-462978 76042 L-462952 75884 L-462907 75831 L-462890 75725 L-462848 75672 L-462800 75566 L-462730 75461 L-462714 75355 L-462698 75249 L-462636 75196 L-462597 75143 L-462558 75090 L-462392 75038 L-462327 74985 L-462311 74932 L-462266 74826 L-462208 74773 L-461995 74720 L-461962 74667 L-461920 74615 L-461842 74562 L-461304 74509 L-461226 74456 L-461122 74350 L-461033 74297 L-460857 74244 L-460506 74191 L-460350 74139 L-459913 74086 L-459756 74033 L-459626 73980 L-458922 73874 L-458721 73821 L-457761 73716 L-457278 73663 L-457179 73663 L-457087 73610 L-456842 73557 L-456769 73504 L-456326 73398 L-456230 73345 L-456215 73292 L-456198 73240 L-456174 73187 L-455708 73134 L-455491 73081 L-455351 73028 L-455057 72975 L-454969 72922 L-454927 72869 L-454898 72817 L-454725 72764 L-454666 72711 L-454590 72658 L-454509 72605 L-454440 72605 L-454130 72552 L-454045 72499 L-453831 72446 L-453796 72393 L-453113 72341 L-453014 72288 L-452809 72235 L-452763 72182 L-452484 72129 L-452422 72076 L-452405 71970 L-452327 71918 L-452019 71812 L-451994 71759 L-451941 71653 L-451918 71600 L-451795 71547 L-451660 71442 L-451415 71389 L-451290 71389 L-450643 71336 L-450627 71336 L-450602 71336 L-450422 71230 L-450346 71177 L-450254 71124 L-449826 71071 L-449410 71019 L-449017 70913 L-448939 70860 L-448920 70807 L-448556 70754 L-448320 70701 L-448092 70648 L-447779 70595 L-447701 70543 L-447620 70437 L-447442 70331 L-447426 70278 L-447161 70172 L-447081 70120 L-446851 70067 L-446625 70014 L-446309 70014 L-446134 69961 L-445773 69961 L-445381 69908 L-445312 69802 L-445248 69749 L-445107 69644 L-445056 69591 L-444954 69485 L-444452 69432 L-444255 69379 L-444008 69326 L-443823 69273 L-443523 69221 L-443447 69168 L-443281 69062 L-442397 69009 L-442368 68903 L-442245 68797 L-441666 68745 L-441588 68692 L-440875 68692 L-440563 68692 L-440350 68692 L-440333 68692 L-439947 68692 L-439422 68586 L-438975 68533 L-438646 68480 L-438493 68427 L-438167 68427 L-437989 68374 L-437907 68374 L-437701 68269 L-437526 68216 L-436597 68163 L-435707 68110 L-435668 68057 L-435440 68057 L-435061 68004 L-434274 67951 L-434039 67898 L-433963 67846 L-433606 67793 L-433034 67687 L-432767 67634 L-432381 67581 L-432277 67581 L-432107 67581 L-431489 67581 L-431277 67581 L-430969 67581 L-430916 67528 L-430789 67475 L-430736 67423 L-430616 67370 L-430280 67264 L-429321 67211 L-429190 67105 L-428988 67052 L-428357 67000 L-428045 66947 L-427632 66894 L-427604 66841 L-427459 66788 L-427039 66735 L-425706 66735 L-425659 66682 L-425531 66576 L-425514 66524 L-424936 66418 L-424730 66365 L-424701 66312 L-424660 66259 L-424602 66206 L-424565 66153 L-424486 66101 L-424344 66048 L-423889 65995 L-423771 65942 L-423486 65889 L-423113 65836 L-423017 65783 L-422690 65730 L-422336 65677 L-422166 65625 L-422118 65572 L-422009 65519 L-421920 65466 L-421892 65413 L-421816 65307 L-421513 65254 L-421479 65149 L-421407 65096 L-421039 65043 L-420704 64990 L-420623 64990 L-420403 64937 L-420232 64884 L-420204 64831 L-419707 64778 L-419158 64673 L-418277 64620 L-418179 64514 L-418102 64461 L-417827 64408 L-417580 64303 L-417506 64250 L-417444 64144 L-417326 64091 L-417283 64038 L-417173 63985 L-417096 63879 L-416396 63827 L-416150 63774 L-416110 63721 L-415954 63668 L-415355 63668 L-415128 63668 L-415036 63668 L-414561 63668 L-413963 63562 L-413444 63509 L-413423 63456 L-413277 63404 L-412957 63404 L-412415 63404 L-412183 63404 L-412013 63404 L-411526 63351 L-411299 63298 L-411214 63245 L-410868 63192 L-410542 63192 L-410019 63139 L-409691 63086 L-409091 63033 L-408893 62928 L-408841 62875 L-408801 62822 L-408520 62769 L-407835 62663 L-407525 62610 L-407500 62505 L-407309 62452 L-407086 62399 L-407000 62346 L-406336 62240 L-406312 62187 L-406090 62081 L-405760 62029 L-405408 61923 L-405204 61870 L-404971 61764 L-404713 61711 L-404523 61606 L-404476 61553 L-404249 61500 L-404214 61447 L-404058 61394 L-403844 61341 L-403671 61288 L-403579 61235 L-403302 61182 L-403058 61130 L-402743 61077 L-402317 61077 L-402279 61077 L-401796 61077 L-401563 61077 L-401351 61024 L-401125 60971 L-400575 60971 L-400328 60918 L-399494 60918 L-399438 60865 L-399416 60812 L-399258 60759 L-398797 60707 L-398756 60654 L-398416 60548 L-398283 60495 L-398060 60442 L-397488 60389 L-397016 60336 L-396821 60283 L-396629 60231 L-396439 60178 L-396337 60125 L-395969 60072 L-395923 60019 L-395841 59966 L-394548 59913 L-394500 59860 L-394231 59860 L-394086 59860 L-393535 59860 L-393418 59808 L-393337 59755 L-392977 59702 L-392754 59649 L-392472 59596 L-392143 59490 L-391635 59437 L-391523 59384 L-391444 59332 L-391280 59279 L-390985 59279 L-390517 59279 L-390320 59332 L-390270 59332 L-389620 59279 L-389498 59226 L-389044 59226 L-389008 59173 L-388540 59120 L-388429 59067 L-388413 59014 L-388197 59014 L-388016 58961 L-387484 58961 L-386455 58961 L-386255 58909 L-385797 58856 L-384849 58750 L-384750 58697 L-384396 58591 L-384335 58538 L-384321 58485 L-384285 58433 L-383916 58380 L-383796 58327 L-383554 58274 L-383390 58221 L-383203 58168 L-383082 58115 L-382011 58010 L-381153 57957 L-380941 57851 L-380844 57798 L-380670 57692 L-380336 57639 L-380265 57586 L-380207 57534 L-380031 57534 L-379643 57481 L-379407 57428 L-379296 57375 L-379179 57322 L-378198 57269 L-378173 57216 L-377578 57111 L-377546 57111 L-377397 57058 L-377113 57005 L-376201 57005 L-375255 57005 L-375102 56952 L-375000 56952 L-374868 56899 L-374725 56846 L-374699 56793 L-374584 56740 L-374366 56687 L-373684 56635 L-373555 56582 L-373252 56529 L-373012 56423 L-372679 56370 L-372041 56317 L-371698 56212 L-371636 56159 L-371481 56159 L-370559 56159 L-370089 56159 L-370045 56159 L-370032 56106 L-369991 56053 L-369969 56000 L-369942 55947 L-369798 55894 L-369376 55841 L-369040 55841 L-368849 55789 L-368421 55789 L-368233 55736 L-367844 55630 L-367310 55577 L-366937 55524 L-366915 55524 L-366665 55471 L-366547 55418 L-366471 55365 L-366336 55313 L-366296 55260 L-366216 55207 L-365822 55154 L-365326 55101 L-365214 54995 L-365041 54942 L-364733 54890 L-364285 54837 L-363962 54784 L-363820 54678 L-363393 54572 L-363240 54466 L-363184 54361 L-362370 54308 L-362351 54255 L-361979 54202 L-361922 54202 L-360793 54149 L-360725 54149 L-360167 54096 L-359972 54043 L-359836 53991 L-359602 53938 L-359255 53885 L-359221 53779 L-359186 53726 L-359117 53620 L-358768 53567 L-358596 53515 L-358111 53462 L-358095 53409 L-357770 53356 L-357612 53303 L-356472 53197 L-356447 53144 L-356255 53039 L-356061 52986 L-355811 52933 L-355794 52880 L-354774 52827 L-354476 52774 L-354401 52721 L-354265 52616 L-354089 52563 L-353512 52457 L-353297 52404 L-353233 52351 L-353102 52298 L-353065 52193 L-352542 52140 L-352404 72975 L-352390 72975 L-352367 72975 L-352346 72975 L-352119 52087 L-351343 52087 L-351302 52087 L-350934 52087 L-350856 52034 L-350804 51981 L-350131 51928 L-349388 51875 L-348963 51875 L-348516 51822 L-347454 51769 L-347142 51664 L-346732 51664 L-346660 51611 L-346136 51611 L-346041 51611 L-346024 51611 L-345579 51558 L-345393 51452 L-344613 51346 L-343941 51294 L-343529 51135 L-343297 51029 L-343156 50976 L-343075 50870 L-343055 50818 L-342978 50818 L-342850 50765 L-342533 50818 L-342309 50818 L-341984 50765 L-341922 50765 L-341552 50765 L-341519 50765 L-341310 50765 L-340643 50765 L-340565 50765 L-340407 50659 L-340296 50659 L-339970 50606 L-339815 50553 L-339474 50553 L-339417 50447 L-339079 50342 L-338875 50289 L-338822 50183 L-337446 50130 L-337316 50077 L-336883 50024 L-336562 49971 L-335735 49866 L-335611 49813 L-334881 49707 L-334725 49601 L-334684 49548 L-334630 49496 L-334607 49443 L-334493 49390 L-334197 49337 L-333907 49284 L-333852 49231 L-333732 49178 L-333701 49125 L-333602 49072 L-333158 49072 L-333006 49020 L-332171 49020 L-331629 48967 L-331294 48967 L-331279 48914 L-331203 48861 L-331087 48808 L-330892 48755 L-330628 48702 L-329793 48649 L-329697 48597 L-329176 48544 L-329134 48491 L-329034 48438 L-328206 48438 L-328071 48385 L-327732 48385 L-327178 48332 L-326799 48279 L-326636 48226 L-326326 48173 L-325513 48121 L-325207 48068 L-324939 48068 L-324617 48068 L-324296 48121 L-324021 48121 L-323192 48015 L-323097 47962 L-323005 47803 L-322900 47645 L-322513 47486 L-322033 47380 L-322017 47327 L-321898 47274 L-321530 47169 L-321435 47116 L-320601 47010 L-320524 46957 L-320225 46904 L-320134 46851 L-319727 46746 L-319617 46640 L-318917 46587 L-318444 46534 L-318384 46481 L-318165 46375 L-317892 46323 L-317779 46270 L-316751 46217 L-316365 46164 L-316345 46111 L-316012 46058 L-315767 46005 L-315334 45952 L-315224 45900 L-315106 45847 L-314655 45741 L-314064 45688 L-313728 45635 L-311835 45582 L-311721 45476 L-311509 45424 L-310191 45371 L-310084 33472 L-310019 21732 L-309982 10892 L-309921 10892 L-309421 22684 L-308746 34318 L-308724 45053 L-308454 44948 L-307485 44948 L-306796 44895 L-306634 44842 L-306093 44789 L-306004 44736 L-304984 44683 L-304037 44578 L-303671 44630 L-303568 44683 L-302980 44683 L-302921 44683 L-302820 44630 L-302380 44525 L-302272 44472 L-301831 44419 L-300831 44260 L-300574 44102 L-300472 43943 L-300341 43837 L-299975 43731 L-299394 43626 L-299363 43573 L-299047 43520 L-297065 43467 L-296949 43414 L-296881 43414 L-296522 43361 L-294904 43308 L-294726 43308 L-294582 43308 L-293760 43361 L-293707 43414 L-293652 43414 L-293218 43414 L-292238 43467 L-292164 43467 L-291079 43414 L-290866 43414 L-290150 43308 L-289761 43255 L-289543 43150 L-289223 43044 L-288729 42938 L-288602 42885 L-288373 42780 L-288140 42674 L-288081 42621 L-287792 42568 L-287520 42462 L-286490 42409 L-284825 42356 L-284405 42304 L-284268 42251 L-284112 42251 L-283807 42198 L-283579 42092 L-283420 42039 L-283261 41933 L-283092 41828 L-283044 41775 L-282991 41722 L-282969 41722 L-282583 41669 L-282334 41669 L-282063 41669 L-281902 41669 L-281813 41669 L-280154 41669 L-279989 41722 L-279609 41669 L-279149 41669 L-278539 41563 L-277446 41510 L-277015 41457 L-276984 41405 L-276921 41352 L-276904 41299 L-275200 41246 L-275158 41193 L-274692 41140 L-274505 41087 L-274473 40982 L-273877 40929 L-273828 40876 L-273505 40823 L-273454 40770 L-273244 40717 L-273226 40664 L-272960 40558 L-272907 40506 L-272438 40453 L-271927 40347 L-271849 40347 L-271555 40294 L-271538 40241 L-271500 40188 L-271428 40135 L-271271 40083 L-270325 40083 L-270269 40083 L-269748 40083 L-269555 40030 L-269454 40030 L-269229 39977 L-268719 39977 L-268331 41405 L-268261 41405 L-267913 41352 L-267556 41299 L-266427 39765 L-266375 39659 L-266149 39607 L-266116 39554 L-265991 39448 L-265892 39448 L-265627 39448 L-264887 39501 L-264308 39501 L-264015 39501 L-263309 39501 L-263130 39448 L-263107 39448 L-262471 39395 L-262160 39342 L-261763 39342 L-261734 39289 L-261713 39236 L-261559 39184 L-260874 39184 L-260857 39184 L-260518 39184 L-260245 39131 L-260208 39078 L-260152 38972 L-260130 38919 L-260058 38866 L-259726 38813 L-259620 38760 L-259591 38655 L-259393 38602 L-259240 38549 L-258372 38496 L-257809 38390 L-257793 38390 L-257692 38337 L-257590 38390 L-257443 38390 L-257365 38390 L-257327 38337 L-257272 38285 L-257198 38232 L-257054 38179 L-256572 38179 L-256167 38126 L-255301 38179 L-255281 38179 L-255023 38179 L-254947 38179 L-254918 38126 L-254907 38020 L-254890 37967 L-254597 37914 L-254558 37861 L-254486 37809 L-254412 37756 L-254207 37703 L-254047 37544 L-253746 37386 L-253668 37174 L-253651 37015 L-253435 36910 L-253204 36910 L-253094 36962 L-252724 37015 L-252566 37015 L-252334 37015 L-252166 37015 L-252021 36962 L-251889 36910 L-250613 36804 L-250209 36698 L-250149 36645 L-250032 36539 L-249607 36487 L-249591 36381 L-249529 36328 L-249256 36222 L-249144 36169 L-248861 36063 L-248584 36011 L-248159 35905 L-248137 35852 L-248058 35799 L-247933 35746 L-247346 35693 L-246955 35640 L-246620 35588 L-246030 35535 L-245928 35535 L-245758 35482 L-245622 35482 L-244794 35429 L-243608 35376 L-243572 35323 L-243517 35323 L-243296 35270 L-243091 35270 L-242937 35270 L-242680 35217 L-242604 35164 L-242061 35112 L-242024 35059 L-241776 35006 L-241388 34953 L-240563 34900 L-240204 34847 L-239894 34847 L-239636 34794 L-239412 34741 L-239006 34689 L-238889 34636 L-238706 34583 L-238653 34583 L-238464 34530 L-238294 34477 L-238265 34424 L-237985 34371 L-237674 34318 L-237536 34265 L-237226 34213 L-237032 34213 L-237017 34160 L-236298 34160 L-236164 34054 L-235866 34001 L-235776 33948 L-235175 33948 L-235137 33895 L-235059 33842 L-234438 33790 L-234287 33684 L-234246 33631 L-233935 33578 L-233744 33525 L-233551 33419 L-233495 33314 L-233186 33261 L-233134 33208 L-233079 33261 L-233054 33261 L-232929 33261 L-232118 33208 L-232042 33155 L-231501 33102 L-231232 33049 L-230573 32996 L-229665 32943 L-229424 32891 L-228892 32838 L-228675 32785 L-227567 32838 L-227517 32838 L-226741 32838 L-226194 32785 L-226082 32732 L-225930 32626 L-225874 32573 L-225709 32520 L-225332 32468 L-224884 32415 L-224829 32362 L-224675 32309 L-223995 32256 L-223775 32203 L-223257 32150 L-222408 32044 L-222392 31992 L-220601 31939 L-220047 31886 L-219930 31833 L-218924 31780 L-218887 31727 L-218654 31727 L-218562 31727 L-218522 31727 L-218190 31674 L-217838 31621 L-217573 31516 L-217286 31463 L-216975 31357 L-216721 31251 L-216628 31198 L-216137 31145 L-215930 31093 L-215365 31040 L-215250 31093 L-214899 31040 L-214848 31040 L-214807 31040 L-214204 30934 L-213470 30828 L-212889 30722 L-212653 30617 L-212113 30458 L-211961 30352 L-211459 30299 L-211249 30194 L-211226 30194 L-211167 30141 L-210205 30141 L-210027 30088 L-209585 30035 L-209561 29929 L-209406 29876 L-209324 29876 L-209174 29929 L-208527 29929 L-208477 29876 L-207357 29823 L-206373 29771 L-206312 29718 L-205591 29665 L-204726 29612 L-204347 29559 L-204129 29559 L-203369 29506 L-203317 29453 L-203008 29347 L-202157 29347 L-201963 29295 L-201787 29242 L-201562 29242 L-201436 29189 L-201244 29189 L-201011 29136 L-200842 29189 L-200555 29136 L-200276 29136 L-200193 29083 L-200022 29030 L-200006 28924 L-199852 28872 L-199812 28819 L-199037 28766 L-198960 28766 L-198728 28660 L-198301 28607 L-197956 28554 L-197373 28501 L-197104 28501 L-196845 28501 L-196716 28396 L-196699 28343 L-196585 28290 L-196562 28237 L-196328 28184 L-196292 28131 L-194976 28131 L-194920 28078 L-194241 27973 L-193668 27973 L-193543 27973 L-193390 27973 L-193313 27973 L-193001 27867 L-192728 27814 L-192639 27708 L-192537 27708 L-191609 27655 L-191533 27655 L-191169 27655 L-191144 27602 L-191108 27549 L-190332 27444 L-190240 27391 L-190100 27338 L-189699 27285 L-189437 27285 L-189194 27338 L-188979 27285 L-188899 27285 L-188823 27285 L-188746 27285 L-188559 27338 L-188493 27338 L-188243 27338 L-188188 27285 L-188051 27232 L-187971 27126 L-187858 27074 L-187635 27021 L-187470 26968 L-187429 26915 L-187260 26862 L-186889 26809 L-186874 26756 L-186758 26703 L-186037 26650 L-186001 26598 L-185868 26598 L-185520 26545 L-185109 26545 L-185073 26545 L-184995 26492 L-184956 26439 L-184592 26386 L-184387 26333 L-184372 26280 L-184027 26227 L-183679 26227 L-183353 26227 L-183251 26175 L-183098 26175 L-182904 26122 L-182672 26122 L-182580 26122 L-182424 26122 L-182347 26122 L-182306 26069 L-182193 26016 L-182169 25963 L-181919 25963 L-181780 25857 L-181202 25699 L-180374 25593 L-179886 25487 L-179765 25434 L-179726 25381 L-179713 25328 L-179561 25223 L-179460 25117 L-179227 25064 L-178837 24958 L-178533 24905 L-178517 24852 L-178346 24800 L-178108 24694 L-177511 24694 L-176908 24641 L-176868 24641 L-176827 24641 L-176674 24588 L-176621 24535 L-176559 24482 L-176490 24429 L-176436 24324 L-176411 24271 L-176364 24218 L-176269 24112 L-176132 24059 L-175979 24006 L-175847 23953 L-175806 23953 L-175770 23901 L-175708 23848 L-175435 23742 L-175121 23689 L-175080 23583 L-174995 23530 L-174817 23478 L-174580 23425 L-174222 23372 L-174192 23319 L-173623 23266 L-173500 23213 L-173264 23160 L-173242 23160 L-172960 23107 L-172675 23107 L-172419 23107 L-171847 23054 L-171551 23002 L-171475 22949 L-170776 22896 L-170698 22843 L-170663 22790 L-170637 22737 L-170585 22631 L-170391 22579 L-170251 22473 L-170215 22420 L-170175 22367 L-169579 22314 L-169347 22261 L-169064 22631 L-169009 22949 L-168935 23319 L-168857 23636 L-168621 23530 L-168377 23478 L-168242 23425 L-168135 23372 L-168055 23319 L-167668 23213 L-167541 23160 L-167389 23107 L-167351 23054 L-167205 23002 L-166984 22949 L-166810 22896 L-166741 22843 L-165919 22737 L-165903 22737 L-165608 22684 L-164821 22631 L-164511 22631 L-164365 22579 L-164137 22526 L-163936 22420 L-162999 22367 L-162962 22314 L-162939 22261 L-162899 22156 L-162630 22103 L-162033 22050 L-161970 21997 L-161934 21944 L-161917 21891 L-161222 21891 L-161021 21891 L-160989 21891 L-160656 21891 L-160548 21838 L-159923 21732 L-159419 21680 L-159382 21574 L-158940 21574 L-158843 21521 L-158685 21521 L-158371 21521 L-158359 21521 L-157919 21574 L-157437 21627 L-157308 21627 L-156988 21627 L-156920 21574 L-156615 21574 L-156440 21521 L-156246 21468 L-156003 21362 L-155805 21257 L-155780 21151 L-155202 21098 L-155132 21045 L-154722 20992 L-154668 20939 L-154622 20886 L-154258 20833 L-154111 20781 L-153906 20728 L-153810 20728 L-153655 20675 L-153593 20622 L-153445 20516 L-153345 20463 L-152788 20463 L-152766 20569 L-152594 20622 L-152052 20675 L-151991 20675 L-151937 20569 L-151908 20463 L-151837 20410 L-151821 20305 L-151757 20252 L-151721 20146 L-151566 20093 L-151240 20040 L-150674 19987 L-150660 19934 L-150598 19829 L-150496 19723 L-150450 19723 L-150208 19670 L-149785 19670 L-149631 19670 L-147889 19564 L-147347 19511 L-146404 19459 L-145995 19406 L-145453 19300 L-145257 19247 L-145088 19194 L-144793 19141 L-144678 19088 L-144663 19088 L-144508 19035 L-144368 18983 L-144292 18877 L-144160 18877 L-143812 18877 L-143441 18930 L-142843 18930 L-142667 18930 L-142511 18877 L-142242 18824 L-142091 18824 L-141800 18983 L-141776 19088 L-141693 19194 L-141465 19300 L-140766 19247 L-140639 19194 L-140208 19141 L-140114 19088 L-138909 19088 L-138860 19035 L-138566 19035 L-138163 18983 L-137887 18877 L-137868 18824 L-137750 18771 L-137674 18718 L-137492 18665 L-137012 18612 L-136561 18507 L-136151 18454 L-136120 18401 L-135702 18348 L-135588 18348 L-135470 18348 L-135455 18348 L-135260 18295 L-135239 18189 L-135007 18136 L-134563 18084 L-134244 17978 L-133779 17978 L-133614 17925 L-133459 17872 L-133303 17872 L-132850 17872 L-132531 17872 L-132476 17925 L-132105 17925 L-132067 17978 L-131740 17978 L-131624 17925 L-131525 17872 L-131199 17766 L-130812 17713 L-130551 17661 L-130193 17555 L-129936 17502 L-127766 17449 L-127717 17396 L-127694 17343 L-127283 17343 L-127221 17343 L-127151 17396 L-126920 17396 L-126609 17343 L-126306 17237 L-126262 17185 L-125954 17132 L-125821 17079 L-125604 17026 L-124892 16973 L-124737 16973 L-124599 16920 L-124450 16920 L-124429 16920 L-124235 16867 L-124209 16814 L-124118 16762 L-124096 16709 L-124080 16656 L-123980 16603 L-123051 16550 L-122593 16550 L-121501 16444 L-121079 16444 L-120675 16391 L-120636 16338 L-120383 16286 L-119608 16180 L-119592 16127 L-119567 16074 L-119374 16021 L-118638 15968 L-118369 15915 L-118328 15863 L-117929 15757 L-117904 15704 L-117115 15651 L-116435 15598 L-115064 15545 L-114794 15492 L-114745 15439 L-114208 15334 L-114175 15281 L-114073 15175 L-113750 15122 L-113670 15069 L-113401 15069 L-112488 15016 L-112350 15016 L-112101 14911 L-111555 14911 L-111133 14858 L-110940 14805 L-110925 14805 L-110787 14699 L-110693 14646 L-110566 14593 L-110306 14540 L-110281 14435 L-110190 14382 L-109880 14329 L-109819 14276 L-109702 14276 L-109353 14276 L-108542 14276 L-108311 14170 L-107482 14170 L-107250 14065 L-107033 14012 L-106514 14012 L-105876 13959 L-105460 13906 L-105138 13853 L-104657 13800 L-104231 13800 L-104170 13747 L-103822 13747 L-103781 13694 L-103767 13641 L-103668 13536 L-103622 13536 L-103137 13483 L-102336 13483 L-102001 13483 L-100920 13430 L-100440 13377 L-100417 13324 L-100277 13271 L-99722 13218 L-99025 13166 L-98716 13113 L-98494 13060 L-98389 13007 L-98287 12901 L-97615 12848 L-97521 12795 L-97499 12795 L-97422 12742 L-97244 12742 L-97072 12742 L-96891 12690 L-96878 12637 L-96802 12584 L-96637 12531 L-96123 12478 L-96107 12425 L-95966 12425 L-95604 12372 L-95579 12372 L-95449 12319 L-95424 12267 L-95062 12214 L-94537 12108 L-94443 12055 L-94227 11949 L-94134 11896 L-94109 11843 L-93645 11791 L-93568 11791 L-93166 11738 L-92715 11738 L-91464 11685 L-91425 11632 L-90993 11579 L-90960 11526 L-90241 11473 L-90065 11420 L-89930 11368 L-89623 11315 L-89568 11262 L-89543 11156 L-89527 11050 L-89352 10997 L-89163 10945 L-88655 10945 L-88281 10521 L-87943 10046 L-87904 9622 L-87185 9252 L-87092 9199 L-87053 9147 L-86512 9147 L-86488 9094 L-86086 9041 L-85660 8988 L-85389 8988 L-85210 8935 L-84964 8829 L-84940 8776 L-84884 8671 L-84267 8618 L-83764 8565 L-83377 8565 L-82758 8618 L-82542 8618 L-82387 8671 L-81095 8565 L-80995 8512 L-80553 8406 L-80222 8353 L-79921 8248 L-79679 8195 L-78944 8089 L-78365 8036 L-77535 7983 L-77435 7930 L-76877 7877 L-76739 7824 L-75098 7772 L-75037 7772 L-74943 7772 L-73976 7772 L-73798 7719 L-73511 7719 L-73294 7719 L-73215 7666 L-72944 7666 L-72829 7613 L-72676 7560 L-72365 7507 L-72287 7454 L-72196 7454 L-72119 7401 L-72002 7401 L-71823 7349 L-71731 7296 L-71693 7243 L-71190 7243 L-70972 7190 L-70842 7190 L-70687 7137 L-70632 7084 L-70508 7084 L-70123 7031 L-69614 6978 L-69542 6925 L-69062 6873 L-68985 6820 L-68884 6820 L-68651 6767 L-68186 6767 L-67956 6767 L-67940 6767 L-67708 6767 L-67553 6767 L-67492 6767 L-67299 6714 L-67028 6608 L-66276 6555 L-65323 6555 L-65287 6502 L-65062 6502 L-64622 6502 L-64342 6397 L-63993 6344 L-62924 6291 L-61996 6291 L-61865 6291 L-61819 6291 L-61749 6238 L-61595 6238 L-61517 6132 L-61344 6026 L-60909 5921 L-60705 5868 L-60644 5762 L-60062 5709 L-59908 5603 L-59792 5551 L-59752 5498 L-59582 5445 L-59445 5392 L-59235 5286 L-59157 5233 L-59134 5180 L-58925 5075 L-58515 5022 L-58491 4969 L-58267 4916 L-58122 4863 L-58087 4810 L-58074 4757 L-58051 4704 L-57818 4652 L-57633 4599 L-57415 4546 L-57390 4493 L-56701 4440 L-56597 4387 L-56562 4334 L-56541 4281 L-56347 4228 L-56294 4176 L-56177 4070 L-56095 4070 L-55984 4017 L-55670 3964 L-55210 3911 L-54955 3858 L-54721 3753 L-54591 3700 L-54239 3647 L-54180 3594 L-54027 3541 L-53455 3435 L-53368 3382 L-53215 3277 L-52919 3171 L-52549 3065 L-52246 2959 L-52169 2906 L-51765 2854 L-51596 2854 L-51452 2854 L-50912 2854 L-50852 2854 L-50836 2748 L-50670 2695 L-50464 2642 L-50389 2642 L-50296 2589 L-49887 2536 L-49871 2483 L-49847 2483 L-49654 2430 L-49578 2906 L-49407 3382 L-49345 3805 L-49329 4281 L-48815 4228 L-48594 4176 L-47975 4070 L-47721 4017 L-47527 3964 L-47488 3911 L-47414 3911 L-47349 3911 L-46699 3911 L-46660 3964 L-46486 3964 L-46420 3964 L-45746 3964 L-45357 3858 L-45095 3805 L-44857 3753 L-44780 3647 L-44764 3541 L-44562 3488 L-44191 3382 L-43966 3329 L-43330 3277 L-43310 3277 L-42923 3224 L-42829 3224 L-42771 3171 L-42495 3118 L-42186 3118 L-42109 3065 L-41257 3118 L-40915 3382 L-40478 3700 L-40044 3964 L-39549 4228 L-39399 4176 L-39131 4228 L-37893 4281 L-37836 4387 L-36072 4440 L-35882 4387 L-34872 4334 L-34721 4281 L-34345 4387 L-34024 4493 L-33419 4599 L-33349 4704 L-33172 4652 L-32344 4599 L-32205 4546 L-31818 4493 L-31634 4440 L-31590 4387 L-31470 4334 L-31260 4281 L-30813 4176 L-30465 4123 L-30333 4070 L-29924 4017 L-29573 4017 L-29288 3964 L-29095 3911 L-28940 3911 L-28776 3858 L-28708 3805 L-28608 3805 L-28374 3753 L-28258 3753 L-28205 3700 L-27663 3700 L-27199 3647 L-26017 3647 L-25883 3647 L-25859 3647 L-25806 3647 L-25138 3647 L-24104 3541 L-23910 3488 L-23730 3435 L-23579 3435 L-23538 3382 L-23523 3382 L-23461 3329 L-23136 3277 L-21976 3224 L-21782 3171 L-21605 3118 L-20491 3065 L-19631 3012 L-19525 3012 L-19051 2959 L-18859 2959 L-16537 2906 L-16459 2854 L-16338 2748 L-16304 2695 L-16266 2589 L-16172 2430 L-15956 2325 L-15375 2219 L-14989 2166 L-14216 2113 L-14138 2060 L-13441 2060 L-12899 2060 L-12858 2007 L-12728 2007 L-12264 1955 L-12226 1902 L-12091 1849 L-11723 1796 L-11693 1743 L-11543 1743 L-11142 1690 L-9318 1743 L-8511 1690 L-7793 1690 L-7776 1690 L-7462 1584 L-6901 1531 L-6399 1479 L-5880 1426 L-5859 1373 L-4115 1320 L-3946 1267 L-3750 1214 L-2857 1161 L-2338 1056 L-2127 1003 L-1870 950 L-1160 897 L-210 844 L447 791 L487 685 L773 632 L856 580 L951 580 L1083 527 L1160 527 L1895 527 L2233 474 L2282 527 L2537 527 L2824 474 L3250 474 L3830 421 L4089 421 L4240 368 L4488 368 L4526 368 L5323 315 L5361 262 L5538 262 L5947 157 L6176 157 L6252 157 L6383 157 L6500 104" />
</svg>
