<svg xmlns="http://www.w3.org/2000/svg" version="1.1" viewBox="0 0 6500 1000">
	<path fill="none" stroke="gold" stroke-width="125" stroke-linecap="round" stroke-linejoin="round" d="M0 2709  L-10017 2709 L-9605 2626 L-9381 2667 L-9323 2626 L-9286 2542 L-9101 2459 L-8611 2375 L-8318 2334 L-8006 2292 L-7772 2209 L-7719 2125 L-7659 2042 L-7506 2000 L-7466 1959 L-7333 1917 L-7040 1959 L-6500 1917 L-5890 1834 L-5842 1917 L-5201 1834 L-5168 1875 L-4643 1792 L-4510 1750 L-4120 1583 L-3792 1500 L-3674 1417 L-3463 1500 L-2746 1458 L-2176 1417 L-2069 1375 L-1895 1292 L-1673 1208 L-1272 1167 L-1246 1083 L-318 1000 L-231 917 L-148 833 L-78 750 L218 708 L370 666 L2260 917 L2361 791 L2623 708 L2917 791 L3058 708 L3307 666 L3343 625 L3501 541 L3965 500 L4218 416 L4430 375 L4681 333 L5030 250 L5957 166 L6051 83 L6462 41" />
</svg>
