<svg xmlns="http://www.w3.org/2000/svg" version="1.1" viewBox="0 0 6500 1000">
	<path fill="none" stroke="gold" stroke-width="125" stroke-linecap="round" stroke-linejoin="round" d="M0 128703  L-726839 128703 L-726655 128649 L-726165 128541 L-725871 128487 L-725560 128378 L-725325 128324 L-725272 128216 L-725213 128108 L-725060 128054 L-725019 127945 L-724886 127891 L-724594 127837 L-724053 127837 L-723443 127783 L-723395 127783 L-722755 127729 L-722722 127729 L-722196 127729 L-722064 127675 L-721673 127566 L-721345 127458 L-721228 127350 L-721017 127242 L-720300 127242 L-719730 127187 L-719623 127187 L-719448 127133 L-719227 127025 L-718825 126971 L-718800 126863 L-717872 126754 L-717784 126646 L-717702 126538 L-717632 126429 L-717335 126375 L-717182 126267 L-715292 126321 L-715192 126321 L-714929 126321 L-714636 126375 L-714494 126267 L-714245 126267 L-714210 126213 L-714051 126159 L-713588 126050 L-713335 125996 L-713123 125888 L-712871 125834 L-712522 125780 L-711595 125671 L-711501 125563 L-711091 125509 L-709920 125401 L-708731 125347 L-708638 125238 L-708611 125130 L-708345 125022 L-708046 124913 L-707917 124805 L-707880 124697 L-707065 124697 L-706681 124751 L-705621 124805 L-705559 124805 L-705294 125888 L-704823 126917 L-704631 127945 L-704367 128974 L-704030 128920 L-703895 128866 L-703439 128812 L-702696 128757 L-702678 128703 L-702513 128595 L-702445 128595 L-701929 128541 L-700900 128541 L-700704 128487 L-700215 128433 L-699853 128378 L-699445 128378 L-699059 128433 L-697356 128433 L-697258 128433 L-697186 128433 L-697124 128433 L-696940 128378 L-696604 128378 L-695963 128324 L-695886 128270 L-695825 128270 L-695638 128216 L-695559 128216 L-695381 128162 L-695362 128108 L-695132 128108 L-694744 128054 L-693856 128054 L-693816 128000 L-693728 127945 L-693701 127837 L-692693 127783 L-692543 127675 L-692519 127621 L-692386 127566 L-692346 127512 L-691088 127458 L-691030 127458 L-690490 127404 L-690438 127404 L-690391 127404 L-689996 127350 L-689856 127296 L-689657 127242 L-689510 127242 L-689345 127242 L-689069 127296 L-688710 127296 L-688157 127242 L-687512 127187 L-687254 127079 L-687100 127025 L-686699 126971 L-686659 126917 L-686538 126863 L-686477 126917 L-686463 126917 L-686369 126917 L-686076 126863 L-685924 126646 L-685594 126538 L-685516 126429 L-685440 126375 L-685214 126213 L-685147 126105 L-684919 125996 L-684867 125888 L-684702 125834 L-683696 125780 L-683513 125726 L-682962 125671 L-682569 125563 L-682172 125509 L-681322 125401 L-681243 125347 L-680664 125292 L-680223 125292 L-679982 125238 L-679825 125238 L-679424 125130 L-679403 125130 L-678958 125076 L-678553 125022 L-678417 124913 L-678242 124805 L-678106 124697 L-677855 124589 L-676855 124534 L-676773 124480 L-676638 124426 L-676599 124372 L-675709 124318 L-675494 124264 L-675050 124210 L-674933 124155 L-674876 124101 L-674200 124101 L-674100 124047 L-674071 124047 L-672729 123993 L-672323 123939 L-672284 123885 L-671355 123831 L-671257 123776 L-671124 123722 L-670720 123668 L-670694 123614 L-670601 123560 L-670385 123506 L-669974 123397 L-668820 123289 L-668528 123181 L-668500 123073 L-667892 123018 L-667641 122910 L-667622 122856 L-666692 122802 L-666641 122694 L-666519 122639 L-666501 122531 L-666345 122477 L-666170 122369 L-666033 122315 L-665977 122260 L-665869 122206 L-665784 122152 L-665551 122098 L-665476 122044 L-665167 121990 L-665049 121936 L-664879 121881 L-664788 121827 L-664686 121827 L-664662 121773 L-664585 121773 L-664487 121665 L-664121 121611 L-664016 121557 L-663512 121502 L-663061 121448 L-663022 121394 L-662998 121340 L-662958 121286 L-662829 121232 L-662728 121178 L-662286 121123 L-662004 121069 L-661412 121015 L-661281 120961 L-661007 120853 L-660855 120799 L-660701 120744 L-660616 120636 L-660538 120582 L-660352 120528 L-660302 120528 L-660274 120474 L-660195 120420 L-660172 120365 L-659888 120257 L-659284 120149 L-658289 120095 L-657991 120041 L-657257 119987 L-657013 119932 L-656923 119878 L-656345 119824 L-655647 119770 L-654895 119716 L-654576 119662 L-654193 119553 L-654116 119499 L-653482 119445 L-653296 119391 L-653209 119391 L-653079 119391 L-652766 119337 L-652717 119283 L-652575 119229 L-652553 119174 L-651586 119120 L-651040 119066 L-650562 119066 L-650501 119066 L-650177 119066 L-650156 119012 L-650093 119012 L-649883 118958 L-649806 118904 L-649752 118850 L-649729 118795 L-649690 118741 L-649674 118687 L-648917 118633 L-648900 118579 L-648101 118525 L-647949 118471 L-647043 118416 L-646537 118362 L-646308 118254 L-646266 118254 L-646151 118200 L-645975 118146 L-645220 118200 L-645086 118146 L-644922 118092 L-644604 118037 L-644427 117929 L-643405 117821 L-643382 117713 L-643131 117658 L-642918 117550 L-642284 117496 L-642046 117388 L-642013 117279 L-641835 117171 L-641755 117063 L-641665 117009 L-641601 116900 L-641161 116792 L-641137 116738 L-640596 116684 L-640340 116630 L-639846 116576 L-638968 116521 L-638932 116467 L-638879 116413 L-638838 116359 L-638721 116305 L-638444 116251 L-638237 116142 L-638040 116034 L-638017 115926 L-637966 115818 L-637927 115763 L-637849 115709 L-637252 115601 L-637191 115547 L-637088 115493 L-636934 115439 L-636302 115384 L-635621 115330 L-635318 115222 L-634972 115168 L-634774 115114 L-634726 115005 L-634405 114951 L-633778 114897 L-633631 114843 L-633595 114789 L-633537 114735 L-633460 114626 L-633219 114626 L-633131 114572 L-633037 114518 L-632743 114464 L-632609 114410 L-632549 114356 L-632512 114247 L-632239 114247 L-631233 114193 L-631058 114139 L-631007 114139 L-630714 114085 L-630522 113977 L-630189 113923 L-629682 113868 L-629120 113760 L-629105 113652 L-629089 113598 L-628988 113489 L-628874 113381 L-628835 113273 L-628797 113219 L-628731 113219 L-628703 113165 L-628564 113219 L-628272 113219 L-628221 113219 L-628116 113219 L-627852 113165 L-627387 113110 L-627242 113110 L-627188 113002 L-627131 112948 L-626940 112894 L-626574 112840 L-626360 112840 L-626165 112840 L-626107 112840 L-626048 112731 L-625894 112677 L-625625 112623 L-625195 112894 L-625180 112894 L-625103 112840 L-625038 112786 L-624909 112407 L-624885 112353 L-624601 112298 L-624554 112244 L-624499 112190 L-624037 112136 L-623998 112136 L-623957 112082 L-623767 112028 L-623286 111974 L-622799 111919 L-622783 111865 L-622745 111811 L-622488 111757 L-622411 111649 L-622181 111595 L-622165 111486 L-621871 111378 L-621428 111324 L-620981 111270 L-620477 111216 L-620323 111161 L-620036 111107 L-619996 110999 L-619665 110945 L-619443 110891 L-618926 110782 L-618851 110728 L-618603 110620 L-618408 110512 L-618348 110458 L-617572 110403 L-617498 110403 L-617267 110349 L-617251 110349 L-617189 110295 L-616993 110241 L-616529 110241 L-616506 110187 L-616376 110187 L-615075 110187 L-615059 110187 L-614982 110133 L-614888 110133 L-614671 110133 L-614518 110079 L-614340 110133 L-614286 110187 L-613999 110241 L-613959 110241 L-613590 110241 L-613150 110241 L-612967 110241 L-612646 110187 L-612350 110187 L-611904 110079 L-611833 110024 L-611370 109916 L-610933 109862 L-610750 109808 L-609296 109700 L-609165 109645 L-608707 109537 L-608481 109483 L-608095 109375 L-607578 109266 L-606624 109158 L-605830 109050 L-605156 108996 L-604730 108887 L-604419 108833 L-604189 108671 L-603506 108508 L-603492 108346 L-603283 108129 L-603261 108075 L-603086 107967 L-602136 107913 L-601868 107805 L-601053 107750 L-600742 107642 L-600705 107588 L-600648 107480 L-600031 107426 L-599393 107317 L-597767 107263 L-597093 107209 L-596451 107209 L-596373 107209 L-596317 107209 L-596281 107209 L-596253 107155 L-596141 107047 L-596123 106992 L-596100 106938 L-595947 106884 L-595893 106776 L-595815 106722 L-595696 106668 L-595599 106613 L-595481 106559 L-595212 106451 L-594942 106397 L-594924 106289 L-594725 106234 L-594578 106126 L-594351 106072 L-594217 106018 L-593908 105964 L-593848 105910 L-593495 105801 L-593146 105747 L-593045 105693 L-592981 105585 L-592921 105531 L-592537 105422 L-592156 105368 L-592052 105314 L-591791 105260 L-591520 105152 L-591361 105097 L-591329 105043 L-591267 104989 L-591125 104935 L-590941 104881 L-590897 104827 L-590609 104827 L-590593 104773 L-590359 104773 L-590299 104719 L-590260 104719 L-589681 104664 L-589547 104610 L-589524 104394 L-589505 104015 L-589488 103582 L-589471 103148 L-589448 102715 L-589431 102390 L-589410 102011 L-589393 101632 L-589370 101416 L-589353 101199 L-589332 101037 L-589315 100929 L-589266 100766 L-589194 100604 L-589159 100333 L-589135 100116 L-589100 99900 L-589058 99683 L-589021 99575 L-589005 99358 L-588981 99196 L-588944 99088 L-588927 98925 L-588904 98817 L-588887 98709 L-588868 98600 L-588852 98492 L-588823 98330 L-588797 98167 L-588751 98113 L-588735 98005 L-588693 97951 L-588645 97842 L-588574 97734 L-588559 97626 L-588543 97518 L-588481 97463 L-588442 97409 L-588402 97355 L-588236 97301 L-588171 97247 L-588155 97193 L-588111 97085 L-588053 97030 L-587840 96976 L-587806 96922 L-587764 96868 L-587686 96814 L-587149 96760 L-587070 96706 L-586966 96597 L-586878 96543 L-586701 96489 L-586351 96435 L-586195 96381 L-585757 96327 L-585600 96272 L-585471 96218 L-584767 96110 L-584566 96056 L-583605 95948 L-583123 95893 L-583023 95893 L-582931 95839 L-582686 95785 L-582613 95731 L-582170 95623 L-582074 95569 L-582059 95514 L-582043 95460 L-582018 95406 L-581552 95352 L-581335 95298 L-581196 95244 L-580902 95190 L-580813 95135 L-580772 95081 L-580742 95027 L-580570 94973 L-580511 94919 L-580435 94865 L-580354 94811 L-580284 94811 L-579975 94756 L-579890 94702 L-579676 94648 L-579641 94594 L-578957 94540 L-578859 94486 L-578654 94432 L-578607 94377 L-578329 94323 L-578267 94269 L-578250 94161 L-578172 94107 L-577863 93998 L-577839 93944 L-577785 93836 L-577762 93782 L-577640 93728 L-577504 93619 L-577260 93565 L-577134 93565 L-576487 93511 L-576472 93511 L-576447 93511 L-576266 93403 L-576190 93349 L-576099 93295 L-575671 93240 L-575255 93186 L-574862 93078 L-574783 93024 L-574764 92970 L-574401 92916 L-574165 92861 L-573936 92807 L-573623 92753 L-573545 92699 L-573465 92591 L-573287 92482 L-573271 92428 L-573005 92320 L-572925 92266 L-572695 92212 L-572469 92158 L-572154 92158 L-571978 92103 L-571617 92103 L-571225 92049 L-571156 91941 L-571092 91887 L-570952 91779 L-570900 91724 L-570799 91616 L-570297 91562 L-570099 91508 L-569853 91454 L-569667 91400 L-569368 91345 L-569292 91291 L-569125 91183 L-568241 91129 L-568212 91021 L-568090 90912 L-567511 90858 L-567433 90804 L-566720 90804 L-566408 90804 L-566194 90804 L-566178 90804 L-565791 90804 L-565266 90696 L-564820 90642 L-564490 90587 L-564338 90533 L-564012 90533 L-563833 90479 L-563752 90479 L-563546 90371 L-563370 90317 L-562441 90263 L-561552 90208 L-561513 90154 L-561285 90154 L-560906 90100 L-560118 90046 L-559884 89992 L-559808 89938 L-559450 89884 L-558879 89775 L-558612 89721 L-558225 89667 L-558121 89667 L-557951 89667 L-557333 89667 L-557122 89667 L-556814 89667 L-556761 89613 L-556633 89559 L-556580 89505 L-556461 89451 L-556125 89342 L-555166 89288 L-555034 89180 L-554832 89126 L-554201 89072 L-553890 89017 L-553476 88963 L-553449 88909 L-553303 88855 L-552883 88801 L-551550 88801 L-551504 88747 L-551375 88638 L-551358 88584 L-550780 88476 L-550575 88422 L-550545 88368 L-550504 88314 L-550447 88259 L-550409 88205 L-550331 88151 L-550188 88097 L-549734 88043 L-549615 87989 L-549330 87935 L-548958 87880 L-548861 87826 L-548535 87772 L-548180 87718 L-548010 87664 L-547963 87610 L-547854 87556 L-547765 87501 L-547737 87447 L-547661 87339 L-547357 87285 L-547323 87177 L-547252 87122 L-546884 87068 L-546548 87014 L-546467 87014 L-546248 86960 L-546076 86906 L-546049 86852 L-545551 86798 L-545002 86689 L-544122 86635 L-544023 86527 L-543946 86473 L-543672 86419 L-543425 86310 L-543351 86256 L-543289 86148 L-543170 86094 L-543128 86040 L-543018 85985 L-542941 85877 L-542240 85823 L-541995 85769 L-541955 85715 L-541799 85661 L-541199 85661 L-540973 85661 L-540880 85661 L-540405 85661 L-539808 85552 L-539288 85498 L-539267 85444 L-539122 85390 L-538802 85390 L-538260 85390 L-538028 85390 L-537857 85390 L-537371 85336 L-537143 85282 L-537058 85227 L-536712 85173 L-536386 85173 L-535863 85119 L-535536 85065 L-534935 85011 L-534738 84903 L-534686 84848 L-534645 84794 L-534364 84740 L-533680 84632 L-533369 84578 L-533345 84469 L-533153 84415 L-532931 84361 L-532845 84307 L-532181 84199 L-532157 84145 L-531935 84036 L-531605 83982 L-531253 83874 L-531048 83820 L-530815 83711 L-530558 83657 L-530368 83549 L-530321 83495 L-530094 83441 L-530059 83387 L-529903 83332 L-529688 83278 L-529515 83224 L-529424 83170 L-529147 83116 L-528903 83062 L-528587 83008 L-528161 83008 L-528124 83008 L-527640 83008 L-527407 83008 L-527195 82953 L-526969 82899 L-526419 82899 L-526172 82845 L-525338 82845 L-525282 82791 L-525261 82737 L-525103 82683 L-524641 82629 L-524601 82574 L-524261 82466 L-524127 82412 L-523904 82358 L-523332 82304 L-522860 82250 L-522666 82195 L-522473 82141 L-522283 82087 L-522182 82033 L-521814 81979 L-521767 81925 L-521686 81871 L-520392 81817 L-520344 81762 L-520076 81762 L-519930 81762 L-519380 81762 L-519263 81708 L-519181 81654 L-518822 81600 L-518598 81546 L-518317 81492 L-517988 81383 L-517480 81329 L-517367 81275 L-517289 81221 L-517124 81167 L-516830 81167 L-516361 81167 L-516165 81221 L-516114 81221 L-515464 81167 L-515342 81113 L-514888 81113 L-514853 81059 L-514384 81004 L-514274 80950 L-514257 80896 L-514041 80896 L-513860 80842 L-513329 80842 L-512299 80842 L-512100 80788 L-511641 80734 L-510693 80625 L-510594 80571 L-510240 80463 L-510180 80409 L-510165 80355 L-510130 80301 L-509761 80246 L-509641 80192 L-509398 80138 L-509235 80084 L-509047 80030 L-508927 79976 L-507856 79867 L-506998 79813 L-506786 79705 L-506688 79651 L-506514 79543 L-506181 79488 L-506109 79434 L-506052 79380 L-505876 79380 L-505487 79326 L-505252 79272 L-505141 79218 L-505024 79164 L-504043 79109 L-504017 79055 L-503423 78947 L-503390 78947 L-503242 78893 L-502957 78839 L-502046 78839 L-501100 78839 L-500946 78785 L-500844 78785 L-500712 78730 L-500569 78676 L-500543 78622 L-500429 78568 L-500210 78514 L-499529 78460 L-499400 78406 L-499096 78351 L-498856 78243 L-498524 78189 L-497885 78135 L-497543 78027 L-497481 77972 L-497325 77972 L-496404 77972 L-495933 77972 L-495890 77972 L-495877 77918 L-495836 77864 L-495813 77810 L-495787 77756 L-495643 77702 L-495220 77648 L-494885 77648 L-494694 77593 L-494265 77593 L-494077 77539 L-493688 77431 L-493154 77377 L-492781 77323 L-492760 77323 L-492510 77269 L-492392 77214 L-492316 77160 L-492180 77106 L-492141 77052 L-492061 76998 L-491666 76944 L-491170 76890 L-491059 76781 L-490886 76727 L-490577 76673 L-490130 76619 L-489807 76565 L-489664 76456 L-489237 76348 L-489084 76240 L-489029 76132 L-488215 76077 L-488195 76023 L-487823 75969 L-487767 75969 L-486637 75915 L-486570 75915 L-486011 75861 L-485817 75807 L-485680 75753 L-485447 75698 L-485100 75644 L-485065 75536 L-485030 75482 L-484962 75374 L-484613 75319 L-484441 75265 L-483956 75211 L-483939 75157 L-483614 75103 L-483457 75049 L-482316 74940 L-482291 74886 L-482099 74778 L-481906 74724 L-481656 74670 L-481639 74616 L-480618 74561 L-480321 74507 L-480245 74453 L-480109 74345 L-479933 74291 L-479357 74182 L-479141 74128 L-479077 74074 L-478947 74020 L-478910 73912 L-478386 73858 L-478249 95190 L-478234 95190 L-478211 95190 L-478191 95190 L-477964 73804 L-477188 73804 L-477146 73804 L-476779 73804 L-476700 73749 L-476648 73695 L-475975 73641 L-475233 73587 L-474808 73587 L-474360 73533 L-473299 73479 L-472987 73370 L-472577 73370 L-472505 73316 L-471981 73316 L-471886 73316 L-471868 73316 L-471423 73262 L-471238 73154 L-470458 73046 L-469785 72991 L-469373 72829 L-469141 72721 L-469001 72667 L-468919 72558 L-468899 72504 L-468823 72504 L-468695 72450 L-468378 72504 L-468153 72504 L-467828 72450 L-467766 72450 L-467396 72450 L-467363 72450 L-467155 72450 L-466487 72450 L-466410 72450 L-466252 72342 L-466141 72342 L-465815 72288 L-465660 72233 L-465319 72233 L-465262 72125 L-464923 72017 L-464720 71963 L-464667 71854 L-463291 71800 L-463161 71746 L-462727 71692 L-462407 71638 L-461579 71530 L-461456 71475 L-460725 71367 L-460569 71259 L-460529 71205 L-460475 71151 L-460452 71096 L-460338 71042 L-460041 70988 L-459751 70934 L-459697 70880 L-459576 70826 L-459546 70772 L-459446 70717 L-459003 70717 L-458851 70663 L-458015 70663 L-457473 70609 L-457139 70609 L-457123 70555 L-457047 70501 L-456931 70447 L-456737 70393 L-456472 70338 L-455638 70284 L-455541 70230 L-455020 70176 L-454978 70122 L-454879 70068 L-454051 70068 L-453916 70014 L-453577 70014 L-453023 69959 L-452643 69905 L-452480 69851 L-452170 69797 L-451358 69743 L-451052 69689 L-450783 69689 L-450462 69689 L-450141 69743 L-449865 69743 L-449037 69635 L-448942 69580 L-448849 69418 L-448745 69256 L-448358 69093 L-447878 68985 L-447861 68931 L-447743 68877 L-447375 68768 L-447280 68714 L-446446 68606 L-446369 68552 L-446069 68498 L-445979 68443 L-445572 68335 L-445461 68227 L-444762 68173 L-444289 68119 L-444229 68064 L-444010 67956 L-443736 67902 L-443623 67848 L-442596 67794 L-442209 67740 L-442189 67685 L-441856 67631 L-441612 67577 L-441178 67523 L-441068 67469 L-440951 67415 L-440499 67306 L-439909 67252 L-439572 67198 L-437679 67144 L-437566 67036 L-437354 66982 L-436036 66927 L-435929 54746 L-435863 42726 L-435827 31627 L-435765 31627 L-435266 43701 L-434590 55612 L-434569 66603 L-434298 66494 L-433330 66494 L-432641 66440 L-432479 66386 L-431938 66332 L-431848 66278 L-430829 66224 L-429881 66115 L-429516 66170 L-429413 66224 L-428824 66224 L-428765 66224 L-428665 66170 L-428224 66061 L-428117 66007 L-427675 65953 L-426675 65791 L-426419 65628 L-426316 65466 L-426186 65357 L-425819 65249 L-425238 65141 L-425208 65087 L-424892 65033 L-422909 64978 L-422793 64924 L-422726 64924 L-422367 64870 L-420748 64816 L-420571 64816 L-420426 64816 L-419604 64870 L-419551 64924 L-419497 64924 L-419063 64924 L-418082 64978 L-418008 64978 L-416924 64924 L-416711 64924 L-415994 64816 L-415606 64762 L-415387 64654 L-415068 64545 L-414574 64437 L-414446 64383 L-414217 64275 L-413985 64166 L-413926 64112 L-413636 64058 L-413364 63950 L-412334 63896 L-410669 63841 L-410250 63787 L-410113 63733 L-409957 63733 L-409651 63679 L-409423 63571 L-409265 63517 L-409106 63408 L-408936 63300 L-408889 63246 L-408836 63192 L-408814 63192 L-408428 63138 L-408178 63138 L-407908 63138 L-407747 63138 L-407657 63138 L-405998 63138 L-405833 63192 L-405453 63138 L-404993 63138 L-404384 63029 L-403291 62975 L-402859 62921 L-402828 62867 L-402766 62813 L-402748 62759 L-401045 62704 L-401003 62650 L-400536 62596 L-400349 62542 L-400317 62434 L-399722 62380 L-399672 62325 L-399349 62271 L-399299 62217 L-399088 62163 L-399070 62109 L-398804 62001 L-398751 61946 L-398282 61892 L-397772 61784 L-397693 61784 L-397399 61730 L-397383 61676 L-397344 61622 L-397273 61567 L-397116 61513 L-396170 61513 L-396113 61513 L-395592 61513 L-395400 61459 L-395299 61459 L-395073 61405 L-394563 61405 L-394175 62867 L-394106 62867 L-393757 62813 L-393400 62759 L-392272 61188 L-392220 61080 L-391994 61026 L-391960 60972 L-391835 60864 L-391737 60864 L-391472 60864 L-390731 60918 L-390153 60918 L-389859 60918 L-389154 60918 L-388975 60864 L-388952 60864 L-388316 60809 L-388004 60755 L-387608 60755 L-387578 60701 L-387557 60647 L-387404 60593 L-386718 60593 L-386702 60593 L-386362 60593 L-386090 60539 L-386052 60485 L-385996 60376 L-385974 60322 L-385902 60268 L-385570 60214 L-385464 60160 L-385435 60051 L-385237 59997 L-385084 59943 L-384216 59889 L-383654 59781 L-383638 59781 L-383537 59727 L-383434 59781 L-383288 59781 L-383210 59781 L-383172 59727 L-383116 59672 L-383043 59618 L-382898 59564 L-382416 59564 L-382012 59510 L-381145 59564 L-381125 59564 L-380868 59564 L-380791 59564 L-380762 59510 L-380752 59402 L-380735 59348 L-380442 59293 L-380402 59239 L-380330 59185 L-380257 59131 L-380052 59077 L-379892 58914 L-379590 58752 L-379513 58536 L-379496 58373 L-379279 58265 L-379048 58265 L-378938 58319 L-378568 58373 L-378410 58373 L-378179 58373 L-378010 58373 L-377865 58319 L-377733 58265 L-376457 58157 L-376054 58048 L-375993 57994 L-375876 57886 L-375451 57832 L-375436 57723 L-375374 57669 L-375101 57561 L-374988 57507 L-374706 57399 L-374429 57344 L-374003 57236 L-373981 57182 L-373903 57128 L-373777 57074 L-373191 57020 L-372800 56965 L-372464 56911 L-371875 56857 L-371773 56857 L-371602 56803 L-371466 56803 L-370638 56749 L-369453 56695 L-369417 56641 L-369361 56641 L-369141 56586 L-368936 56586 L-368781 56586 L-368525 56532 L-368448 56478 L-367905 56424 L-367869 56370 L-367620 56316 L-367233 56262 L-366407 56207 L-366049 56153 L-365738 56153 L-365480 56099 L-365257 56045 L-364850 55991 L-364734 55937 L-364551 55883 L-364498 55883 L-364309 55828 L-364138 55774 L-364109 55720 L-363829 55666 L-363519 55612 L-363381 55558 L-363071 55504 L-362877 55504 L-362862 55449 L-362142 55449 L-362009 55341 L-361711 55287 L-361620 55233 L-361020 55233 L-360981 55179 L-360903 55125 L-360283 55070 L-360131 54962 L-360090 54908 L-359780 54854 L-359588 54800 L-359395 54691 L-359339 54583 L-359031 54529 L-358979 54475 L-358924 54529 L-358898 54529 L-358773 54529 L-357963 54475 L-357886 54421 L-357346 54367 L-357077 54312 L-356417 54258 L-355510 54204 L-355269 54150 L-354736 54096 L-354519 54042 L-353412 54096 L-353361 54096 L-352586 54096 L-352038 54042 L-351927 53988 L-351774 53879 L-351719 53825 L-351553 53771 L-351176 53717 L-350729 53663 L-350674 53609 L-350519 53554 L-349840 53500 L-349619 53446 L-349102 53392 L-348253 53284 L-348237 53230 L-346446 53175 L-345891 53121 L-345774 53067 L-344768 53013 L-344732 52959 L-344499 52959 L-344406 52959 L-344366 52959 L-344034 52905 L-343682 52851 L-343417 52742 L-343131 52688 L-342820 52580 L-342566 52472 L-342472 52417 L-341982 52363 L-341775 52309 L-341209 52255 L-341095 52309 L-340743 52255 L-340692 52255 L-340652 52255 L-340049 52147 L-339315 52038 L-338734 51930 L-338498 51822 L-337958 51659 L-337805 51551 L-337303 51497 L-337094 51389 L-337071 51389 L-337012 51335 L-336049 51335 L-335872 51280 L-335430 51226 L-335405 51118 L-335250 51064 L-335169 51064 L-335019 51118 L-334372 51118 L-334322 51064 L-333202 51010 L-332218 50956 L-332156 50902 L-331436 50847 L-330571 50793 L-330192 50739 L-329973 50739 L-329214 50685 L-329162 50631 L-328853 50523 L-328001 50523 L-327808 50468 L-327631 50414 L-327407 50414 L-327280 50360 L-327088 50360 L-326856 50306 L-326686 50360 L-326400 50306 L-326120 50306 L-326037 50252 L-325867 50198 L-325850 50089 L-325696 50035 L-325657 49981 L-324881 49927 L-324805 49927 L-324573 49819 L-324146 49765 L-323800 49710 L-323217 49656 L-322948 49656 L-322689 49656 L-322560 49548 L-322544 49494 L-322430 49440 L-322406 49386 L-322172 49331 L-322136 49277 L-320820 49277 L-320764 49223 L-320085 49115 L-319513 49115 L-319387 49115 L-319234 49115 L-319157 49115 L-318845 49007 L-318572 48952 L-318483 48844 L-318381 48844 L-317454 48790 L-317377 48790 L-317013 48790 L-316989 48736 L-316952 48682 L-316177 48573 L-316085 48519 L-315945 48465 L-315543 48411 L-315282 48411 L-315038 48465 L-314824 48411 L-314743 48411 L-314667 48411 L-314591 48411 L-314404 48465 L-314337 48465 L-314088 48465 L-314033 48411 L-313895 48357 L-313816 48249 L-313702 48194 L-313479 48140 L-313315 48086 L-313274 48032 L-313104 47978 L-312733 47924 L-312719 47870 L-312603 47815 L-311881 47761 L-311845 47707 L-311713 47707 L-311365 47653 L-310953 47653 L-310917 47653 L-310839 47599 L-310800 47545 L-310436 47491 L-310232 47436 L-310217 47382 L-309871 47328 L-309523 47328 L-309197 47328 L-309095 47274 L-308943 47274 L-308748 47220 L-308517 47220 L-308424 47220 L-308269 47220 L-308191 47220 L-308151 47166 L-308037 47112 L-308014 47057 L-307763 47057 L-307624 46949 L-307046 46787 L-306218 46678 L-305730 46570 L-305609 46516 L-305571 46462 L-305558 46408 L-305406 46299 L-305305 46191 L-305072 46137 L-304682 46029 L-304377 45975 L-304362 45920 L-304191 45866 L-303952 45758 L-303356 45758 L-302752 45704 L-302712 45704 L-302672 45704 L-302519 45650 L-302466 45596 L-302403 45541 L-302335 45487 L-302280 45379 L-302255 45325 L-302208 45271 L-302114 45162 L-301977 45108 L-301823 45054 L-301691 45000 L-301651 45000 L-301615 44946 L-301553 44892 L-301280 44783 L-300965 44729 L-300924 44621 L-300839 44567 L-300662 44513 L-300424 44459 L-300067 44404 L-300037 44350 L-299468 44296 L-299345 44242 L-299109 44188 L-299086 44188 L-298805 44134 L-298519 44134 L-298264 44134 L-297692 44080 L-297395 44025 L-297319 43971 L-296620 43917 L-296542 43863 L-296507 43809 L-296481 43755 L-296430 43646 L-296236 43592 L-296095 43484 L-296060 43430 L-296019 43376 L-295424 43322 L-295192 43268 L-294908 43646 L-294854 43971 L-294780 44350 L-294702 44675 L-294465 44567 L-294222 44513 L-294086 44459 L-293980 44404 L-293900 44350 L-293513 44242 L-293386 44188 L-293233 44134 L-293195 44080 L-293050 44025 L-292828 43971 L-292654 43917 L-292585 43863 L-291764 43755 L-291748 43755 L-291453 43701 L-290665 43646 L-290355 43646 L-290209 43592 L-289981 43538 L-289780 43430 L-288843 43376 L-288807 43322 L-288784 43268 L-288743 43159 L-288475 43105 L-287878 43051 L-287814 42997 L-287779 42943 L-287762 42889 L-287067 42889 L-286866 42889 L-286834 42889 L-286500 42889 L-286392 42834 L-285768 42726 L-285264 42672 L-285226 42564 L-284784 42564 L-284688 42510 L-284529 42510 L-284216 42510 L-284204 42510 L-283763 42564 L-283282 42618 L-283152 42618 L-282832 42618 L-282764 42564 L-282460 42564 L-282284 42510 L-282090 42455 L-281848 42347 L-281650 42239 L-281624 42131 L-281046 42076 L-280976 42022 L-280567 41968 L-280512 41914 L-280466 41860 L-280102 41806 L-279956 41752 L-279751 41697 L-279654 41697 L-279499 41643 L-279438 41589 L-279290 41481 L-279189 41427 L-278633 41427 L-278610 41535 L-278438 41589 L-277896 41643 L-277835 41643 L-277781 41535 L-277753 41427 L-277682 41373 L-277665 41264 L-277602 41210 L-277565 41102 L-277411 41048 L-277085 40994 L-276519 40939 L-276504 40885 L-276442 40777 L-276341 40669 L-276295 40669 L-276052 40615 L-275630 40615 L-275475 40615 L-273733 40506 L-273192 40452 L-272248 40398 L-271839 40344 L-271298 40236 L-271102 40181 L-270933 40127 L-270637 40073 L-270523 40019 L-270507 40019 L-270353 39965 L-270213 39911 L-270136 39802 L-270004 39802 L-269656 39802 L-269286 39857 L-268688 39857 L-268512 39857 L-268356 39802 L-268087 39748 L-267935 39748 L-267644 39911 L-267620 40019 L-267538 40127 L-267310 40236 L-266610 40181 L-266484 40127 L-266052 40073 L-265958 40019 L-264753 40019 L-264704 39965 L-264411 39965 L-264007 39911 L-263732 39802 L-263712 39748 L-263595 39694 L-263518 39640 L-263337 39586 L-262857 39532 L-262406 39423 L-261996 39369 L-261965 39315 L-261547 39261 L-261433 39261 L-261315 39261 L-261299 39261 L-261105 39207 L-261083 39099 L-260851 39044 L-260408 38990 L-260088 38882 L-259624 38882 L-259458 38828 L-259303 38774 L-259148 38774 L-258694 38774 L-258375 38774 L-258320 38828 L-257949 38828 L-257911 38882 L-257585 38882 L-257468 38828 L-257369 38774 L-257043 38665 L-256656 38611 L-256396 38557 L-256037 38449 L-255781 38395 L-253611 38341 L-253561 38286 L-253539 38232 L-253127 38232 L-253066 38232 L-252995 38286 L-252765 38286 L-252454 38232 L-252151 38124 L-252106 38070 L-251798 38016 L-251665 37962 L-251449 37907 L-250737 37853 L-250582 37853 L-250443 37799 L-250294 37799 L-250273 37799 L-250079 37745 L-250054 37691 L-249963 37637 L-249941 37583 L-249924 37528 L-249824 37474 L-248896 37420 L-248438 37420 L-247346 37312 L-246923 37312 L-246519 37258 L-246481 37204 L-246227 37149 L-245453 37041 L-245436 36987 L-245412 36933 L-245219 36879 L-244482 36825 L-244213 36770 L-244173 36716 L-243774 36608 L-243749 36554 L-242960 36500 L-242280 36446 L-240909 36391 L-240639 36337 L-240590 36283 L-240052 36175 L-240019 36121 L-239918 36012 L-239594 35958 L-239514 35904 L-239246 35904 L-238333 35850 L-238194 35850 L-237945 35742 L-237400 35742 L-236978 35688 L-236785 35634 L-236769 35634 L-236632 35525 L-236538 35471 L-236410 35417 L-236150 35363 L-236125 35255 L-236034 35200 L-235724 35146 L-235664 35092 L-235547 35092 L-235197 35092 L-234386 35092 L-234155 34984 L-233326 34984 L-233094 34876 L-232877 34821 L-232359 34821 L-231721 34767 L-231305 34713 L-230982 34659 L-230502 34605 L-230076 34605 L-230015 34551 L-229666 34551 L-229626 34497 L-229612 34442 L-229512 34334 L-229467 34334 L-228982 34280 L-228180 34280 L-227846 34280 L-226764 34226 L-226284 34172 L-226262 34118 L-226121 34063 L-225566 34009 L-224869 33955 L-224560 33901 L-224338 33847 L-224234 33793 L-224131 33684 L-223460 33630 L-223366 33576 L-223344 33576 L-223267 33522 L-223089 33522 L-222917 33522 L-222736 33468 L-222722 33414 L-222646 33360 L-222482 33305 L-221967 33251 L-221951 33197 L-221811 33197 L-221448 33143 L-221424 33143 L-221293 33089 L-221269 33035 L-220907 32981 L-220381 32872 L-220287 32818 L-220072 32710 L-219978 32656 L-219954 32602 L-219489 32547 L-219412 32547 L-219010 32493 L-218560 32493 L-217308 32439 L-217269 32385 L-216838 32331 L-216805 32277 L-216086 32223 L-215910 32168 L-215774 32114 L-215467 32060 L-215412 32006 L-215388 31898 L-215371 31789 L-215197 31735 L-215007 31681 L-214500 31681 L-214126 31248 L-213788 30761 L-213749 30328 L-213030 29949 L-212936 29894 L-212898 29840 L-212356 29840 L-212333 29786 L-211930 29732 L-211505 29678 L-211234 29678 L-211054 29624 L-210808 29515 L-210785 29461 L-210728 29353 L-210112 29299 L-209609 29245 L-209222 29245 L-208603 29299 L-208387 29299 L-208232 29353 L-206939 29245 L-206840 29191 L-206398 29082 L-206066 29028 L-205766 28920 L-205523 28866 L-204788 28757 L-204209 28703 L-203380 28649 L-203280 28595 L-202722 28541 L-202584 28487 L-200942 28433 L-200881 28433 L-200787 28433 L-199820 28433 L-199643 28378 L-199356 28378 L-199138 28378 L-199060 28324 L-198789 28324 L-198673 28270 L-198520 28216 L-198210 28162 L-198132 28108 L-198040 28108 L-197963 28054 L-197847 28054 L-197668 28000 L-197576 27945 L-197537 27891 L-197034 27891 L-196816 27837 L-196686 27837 L-196531 27783 L-196477 27729 L-196352 27729 L-195967 27675 L-195459 27621 L-195387 27566 L-194906 27512 L-194829 27458 L-194729 27458 L-194496 27404 L-194031 27404 L-193801 27404 L-193784 27404 L-193552 27404 L-193398 27404 L-193336 27404 L-193143 27350 L-192872 27242 L-192121 27187 L-191168 27187 L-191131 27133 L-190907 27133 L-190467 27133 L-190186 27025 L-189838 26971 L-188769 26917 L-187841 26917 L-187710 26917 L-187663 26917 L-187594 26863 L-187439 26863 L-187362 26754 L-187188 26646 L-186753 26538 L-186549 26484 L-186489 26375 L-185907 26321 L-185752 26213 L-185637 26159 L-185596 26105 L-185427 26050 L-185290 25996 L-185079 25888 L-185001 25834 L-184978 25780 L-184769 25671 L-184360 25617 L-184335 25563 L-184112 25509 L-183967 25455 L-183932 25401 L-183918 25347 L-183896 25292 L-183663 25238 L-183477 25184 L-183260 25130 L-183235 25076 L-182545 25022 L-182442 24968 L-182406 24913 L-182386 24859 L-182191 24805 L-182138 24751 L-182021 24643 L-181940 24643 L-181829 24589 L-181514 24534 L-181055 24480 L-180800 24426 L-180566 24318 L-180436 24264 L-180083 24210 L-180024 24155 L-179871 24101 L-179299 23993 L-179213 23939 L-179059 23831 L-178764 23722 L-178393 23614 L-178090 23506 L-178014 23452 L-177609 23397 L-177441 23397 L-177297 23397 L-176757 23397 L-176696 23397 L-176680 23289 L-176514 23235 L-176308 23181 L-176234 23181 L-176141 23127 L-175731 23073 L-175716 23018 L-175692 23018 L-175499 22964 L-175422 23452 L-175252 23939 L-175189 24372 L-175174 24859 L-174659 24805 L-174438 24751 L-173819 24643 L-173566 24589 L-173372 24534 L-173332 24480 L-173259 24480 L-173194 24480 L-172543 24480 L-172504 24534 L-172330 24534 L-172264 24534 L-171590 24534 L-171201 24426 L-170940 24372 L-170702 24318 L-170624 24210 L-170608 24101 L-170406 24047 L-170036 23939 L-169810 23885 L-169175 23831 L-169155 23831 L-168767 23776 L-168674 23776 L-168616 23722 L-168340 23668 L-168030 23668 L-167953 23614 L-167102 23668 L-166759 23939 L-166322 24264 L-165888 24534 L-165393 24805 L-165244 24751 L-164975 24805 L-163737 24859 L-163681 24968 L-161917 25022 L-161727 24968 L-160716 24913 L-160565 24859 L-160190 24968 L-159869 25076 L-159264 25184 L-159194 25292 L-159017 25238 L-158188 25184 L-158050 25130 L-157663 25076 L-157478 25022 L-157435 24968 L-157315 24913 L-157105 24859 L-156658 24751 L-156309 24697 L-156177 24643 L-155768 24589 L-155418 24589 L-155133 24534 L-154939 24480 L-154784 24480 L-154621 24426 L-154552 24372 L-154453 24372 L-154219 24318 L-154103 24318 L-154049 24264 L-153508 24264 L-153043 24210 L-151861 24210 L-151728 24210 L-151703 24210 L-151651 24210 L-150983 24210 L-149948 24101 L-149754 24047 L-149575 23993 L-149423 23993 L-149382 23939 L-149368 23939 L-149306 23885 L-148981 23831 L-147820 23776 L-147627 23722 L-147449 23668 L-146335 23614 L-145476 23560 L-145369 23560 L-144896 23506 L-144703 23506 L-142381 23452 L-142304 23397 L-142183 23289 L-142148 23235 L-142111 23127 L-142016 22964 L-141801 22856 L-141219 22748 L-140833 22694 L-140060 22639 L-139982 22585 L-139285 22585 L-138744 22585 L-138703 22531 L-138573 22531 L-138109 22477 L-138070 22423 L-137935 22369 L-137567 22315 L-137538 22260 L-137388 22260 L-136987 22206 L-135163 22260 L-134356 22206 L-133637 22206 L-133621 22206 L-133307 22098 L-132745 22044 L-132244 21990 L-131725 21936 L-131703 21881 L-129960 21827 L-129790 21773 L-129595 21719 L-128701 21665 L-128182 21557 L-127972 21502 L-127714 21448 L-127005 21394 L-126054 21340 L-125396 21286 L-125357 21178 L-125070 21123 L-124988 21069 L-124892 21069 L-124760 21015 L-124683 21015 L-123948 21015 L-123611 20961 L-123561 21015 L-123306 21015 L-123020 20961 L-122594 20961 L-122014 20907 L-121755 20907 L-121603 20853 L-121356 20853 L-121317 20853 L-120520 20799 L-120483 20744 L-120305 20744 L-119896 20636 L-119668 20636 L-119591 20636 L-119460 20636 L-119344 20582 L-118996 20528 L-118932 20474 L-118780 20420 L-118039 20365 L-117928 20311 L-117758 20257 L-117719 20203 L-117424 20203 L-117023 20203 L-116846 20203 L-116752 20203 L-116442 20149 L-115641 20095 L-115182 19987 L-114662 19932 L-114174 19878 L-113478 19824 L-112432 19770 L-112163 19770 L-112109 19716 L-111948 19716 L-111697 19716 L-111451 19662 L-111372 19608 L-111158 19499 L-110846 19445 L-110382 19337 L-110368 19283 L-110072 19283 L-110058 19229 L-109067 19174 L-108395 19120 L-108060 19012 L-107444 19012 L-107307 18958 L-106668 18904 L-106538 18850 L-105586 18741 L-105487 18633 L-104928 18579 L-104519 18579 L-104091 18579 L-103999 18525 L-103165 18525 L-102801 18525 L-102762 18579 L-102630 18633 L-102453 18633 L-102236 18633 L-102182 18579 L-102025 18471 L-101773 18416 L-100672 18362 L-100595 18308 L-100375 18254 L-100245 18146 L-100208 18092 L-100015 18037 L-99915 17983 L-99432 17929 L-99147 17875 L-98987 17821 L-98892 17713 L-98621 17658 L-98351 17604 L-98335 17388 L-98196 17225 L-98058 17063 L-97732 16846 L-97423 16738 L-97382 16684 L-97306 16576 L-97191 16521 L-96340 16413 L-96014 16359 L-95682 16305 L-95549 16305 L-95333 16305 L-95317 16305 L-94637 16305 L-94543 16197 L-94520 16142 L-94504 16034 L-94466 15980 L-94054 15872 L-93785 15818 L-93745 15763 L-93376 15763 L-93167 15709 L-92084 15709 L-92067 15655 L-92039 15601 L-92018 15601 L-91642 15493 L-91387 15439 L-91139 15330 L-90999 15222 L-90867 15168 L-90535 15114 L-90442 15060 L-90381 15005 L-89823 14951 L-89762 14897 L-89606 14843 L-89412 14789 L-89220 14735 L-89204 14681 L-89166 14626 L-89127 14572 L-88856 14518 L-88733 14464 L-88700 14410 L-88601 14410 L-88445 14410 L-88304 14410 L-88020 14356 L-87695 14356 L-86999 14302 L-86976 14302 L-86466 14302 L-85621 14302 L-85258 14247 L-85103 14193 L-84499 14193 L-84329 14193 L-84268 14193 L-84213 14139 L-83157 14085 L-83139 14085 L-82233 14085 L-82212 14085 L-82045 14031 L-81803 14031 L-81752 13977 L-81698 13868 L-81560 13814 L-81521 13760 L-80593 13706 L-80537 13706 L-80415 13706 L-80344 13706 L-80228 13706 L-80049 13760 L-79067 13706 L-78928 13706 L-78810 13598 L-78515 13489 L-78268 13435 L-78231 13381 L-78177 13435 L-78155 13435 L-78022 13435 L-77943 13435 L-77805 13381 L-77183 13381 L-77016 13327 L-76552 13327 L-76375 13219 L-76359 13165 L-76299 13110 L-76182 13056 L-75699 13002 L-75004 12948 L-74631 12894 L-74462 12840 L-73496 12786 L-73341 12731 L-73163 12731 L-73070 12677 L-72815 12677 L-72644 12677 L-71998 12623 L-71987 12623 L-71406 12569 L-71268 12569 L-71213 12461 L-70478 12407 L-70439 12353 L-70362 12353 L-69720 12298 L-68945 12298 L-68853 12244 L-68804 12244 L-68789 12190 L-68753 12190 L-68736 12082 L-68673 12028 L-68657 11974 L-68637 11974 L-68482 11919 L-68443 11865 L-68427 11811 L-68388 11757 L-68249 11703 L-68172 11649 L-67808 11595 L-67460 11540 L-66686 11486 L-66084 11432 L-65888 11378 L-65658 11378 L-65520 11324 L-64882 11324 L-64592 11270 L-64571 11270 L-64111 11216 L-63878 11216 L-63823 11161 L-63785 11107 L-63282 11053 L-62731 10999 L-61943 10945 L-60820 10945 L-59926 10891 L-59838 10891 L-59539 10837 L-59467 10782 L-59351 10728 L-58174 10674 L-57826 10620 L-57804 10566 L-57285 10512 L-57138 10458 L-57030 10403 L-56820 10349 L-56665 10295 L-56643 10241 L-56449 10187 L-56372 10133 L-56228 10079 L-55428 10024 L-55281 9970 L-55001 9916 L-54824 9862 L-54515 9808 L-53703 9754 L-52775 9754 L-51183 9700 L-50939 9645 L-50298 9591 L-50103 9537 L-50025 9483 L-49508 9429 L-49276 9429 L-49252 9375 L-49120 9375 L-48781 9321 L-48770 9266 L-48554 9212 L-48517 9158 L-47975 9104 L-47447 8996 L-47379 8942 L-47086 8887 L-46538 8779 L-46503 8725 L-46450 8671 L-46351 8563 L-46119 8563 L-45538 8563 L-45441 8617 L-45366 8617 L-45035 8563 L-44285 8508 L-44245 8454 L-43566 8454 L-43411 8454 L-43085 8400 L-42869 8346 L-42637 8346 L-42341 8292 L-42095 8238 L-41744 8184 L-41691 8129 L-40931 8075 L-40238 7967 L-39887 7859 L-39424 7805 L-38790 7750 L-38381 7696 L-38304 7750 L-37877 7750 L-37235 7696 L-37066 7696 L-36324 7642 L-36136 7588 L-35841 7534 L-35269 7480 L-35244 7426 L-34225 7426 L-33738 7371 L-33644 7371 L-33583 7317 L-33295 7263 L-33009 7209 L-32948 7155 L-32768 7155 L-32057 7101 L-31881 7047 L-31683 6992 L-31531 6938 L-31439 6884 L-31377 6830 L-30836 6830 L-30525 6776 L-30433 6668 L-30356 6559 L-29789 6505 L-29698 6505 L-29443 6397 L-29116 6289 L-29079 6126 L-28924 5964 L-28692 5910 L-28370 5855 L-27238 5801 L-27038 5747 L-26513 5693 L-26268 5693 L-26022 5639 L-25942 5585 L-25922 5476 L-25846 5422 L-25790 5314 L-25713 5260 L-25674 5206 L-25495 5097 L-25458 5043 L-25227 4989 L-23989 4935 L-23662 4881 L-23622 4773 L-22841 4719 L-22694 4664 L-21702 4610 L-21496 4610 L-21070 4610 L-20943 4610 L-20538 4664 L-20450 4610 L-19793 4556 L-19086 4502 L-18478 4448 L-18285 4394 L-18052 4285 L-17433 4231 L-17138 4123 L-16698 4069 L-16543 4015 L-16388 3961 L-15632 3852 L-15282 3798 L-14880 3798 L-14841 3744 L-13835 3744 L-13515 3744 L-13268 3690 L-12569 3582 L-12495 3527 L-12183 3473 L-11103 3419 L-10911 3365 L-10677 3365 L-10482 3311 L-9982 3257 L-9229 3257 L-9115 3257 L-8915 3257 L-8873 3203 L-8781 3148 L-8468 3094 L-8379 3040 L-8263 2986 L-7945 2986 L-7876 2932 L-7852 2878 L-7490 2824 L-7451 2769 L-7235 2715 L-6731 2769 L-6129 2824 L-5918 2932 L-5764 2986 L-5727 2986 L-5683 2878 L-5648 2824 L-5515 2769 L-5106 2715 L-4735 2661 L-4682 2607 L-4665 2553 L-4587 2499 L-4177 2445 L-4023 2390 L-4008 2282 L-3968 2228 L-3790 2120 L-3714 2066 L-3482 2011 L-2692 1957 L-2615 1957 L-1880 1849 L-1724 1795 L-1484 1687 L-1423 1578 L-1337 1524 L-1315 1416 L-1197 1308 L-1182 1199 L-1121 1091 L-1083 1037 L-989 983 L-967 983 L-851 929 L-618 874 L-448 766 L371 766 L772 712 L928 712 L1433 712 L1547 712 L2143 712 L2517 658 L2569 658 L2763 604 L3460 604 L3498 550 L3643 550 L3868 495 L4130 441 L4503 387 L4929 333 L5058 279 L5078 171 L5572 171 L6268 116 L6500 171" />
</svg>
